# Blender 5.2.0 LTS
# www.blender.org
mtllib terrain-abyss-chancel-object-089.mtl
o terrain-abyss-chancel-object-089
v 0.029024 1.096453 0.035420
v 0.032775 1.098973 0.044455
v 0.023789 1.095247 0.038851
v 0.030989 1.089788 0.035968
v 0.024801 1.094494 0.030320
v 0.024693 1.087911 0.029691
v 0.019540 1.094164 0.034545
v 0.018118 1.087758 0.034232
v 0.015139 1.093959 0.042278
v 0.020077 1.094896 0.043114
v 0.018098 1.095904 0.053120
v 0.013333 1.088273 0.043036
v 0.013650 1.081309 0.043648
v 0.014902 1.089963 0.054949
v 0.024058 1.090247 0.060937
v 0.014839 1.082540 0.054534
v 0.014633 1.075011 0.054223
v 0.022882 1.083096 0.060443
v 0.021689 1.075546 0.060520
v 0.031431 1.083035 0.056718
v 0.030854 1.075312 0.058353
v 0.033810 1.082545 0.046837
v 0.031744 1.091253 0.056168
v 0.030534 1.097841 0.055079
v 0.034354 1.091479 0.045413
v 0.023596 1.096105 0.049348
v 0.025571 1.096803 0.060712
v 0.026936 1.096897 0.044250
v 0.030942 1.081708 0.037249
v 0.033058 1.074847 0.048058
v 0.032595 1.066994 0.048592
v 0.030871 1.074073 0.037792
v 0.025562 1.073504 0.028824
v 0.030815 1.066651 0.038697
v 0.025973 1.065012 0.029554
v 0.035945 1.054477 0.038425
v 0.033361 1.051193 0.040850
v 0.025981 1.056914 0.034845
v 0.042017 1.053959 0.035591
v 0.034805 1.058082 0.047071
v 0.036688 1.054855 0.054935
v 0.039587 1.056830 0.041878
v 0.042950 1.060182 0.052976
v 0.047824 1.061549 0.020984
v 0.045887 1.078723 0.033987
v 0.043825 1.100151 0.031827
v 0.044558 1.078525 0.050259
v 0.048706 1.077113 0.018055
v 0.060709 1.075804 0.014538
v 0.047732 1.099596 0.015153
v 0.059325 1.099877 0.013334
v 0.047729 1.132587 0.012773
v 0.042338 1.130319 0.030288
v 0.057550 1.133739 0.010395
v 0.045878 1.165832 0.024097
v 0.055477 1.170555 0.019371
v 0.042498 1.158578 0.037484
v 0.046945 1.180970 0.035009
v 0.049843 1.191946 0.039961
v 0.042240 1.178255 0.043631
v 0.053125 1.183391 0.029578
v 0.061905 1.182577 0.031893
v 0.052987 1.192479 0.036301
v 0.055111 1.193185 0.045896
v 0.058647 1.192496 0.035807
v 0.064031 1.191787 0.044435
v 0.066460 1.178427 0.042588
v 0.061874 1.189205 0.055242
v 0.052691 1.191756 0.053431
v 0.055774 1.187748 0.062214
v 0.065494 1.175975 0.053204
v 0.066570 1.156699 0.049462
v 0.060136 1.175783 0.063254
v 0.061761 1.156807 0.062233
v 0.050251 1.176356 0.068883
v 0.049333 1.185653 0.065487
v 0.052703 1.156736 0.068947
v 0.042483 1.176203 0.061251
v 0.044217 1.155932 0.062173
v 0.040921 1.176863 0.052283
v 0.044940 1.188532 0.059939
v 0.043921 1.190325 0.052569
v 0.050826 1.190838 0.058717
v 0.045503 1.191957 0.046034
v 0.041948 1.155590 0.050336
v 0.043659 1.127923 0.048914
v 0.045585 1.127263 0.062397
v 0.044579 1.099644 0.049090
v 0.046189 1.098248 0.061725
v 0.047076 1.076687 0.060917
v 0.054814 1.097652 0.065139
v 0.055837 1.076663 0.061742
v 0.061219 1.097939 0.056103
v 0.053792 1.127160 0.067866
v 0.061152 1.127503 0.059485
v 0.064542 1.128725 0.046198
v 0.062774 1.098441 0.043691
v 0.067348 1.130836 0.029007
v 0.066738 1.132230 0.016056
v 0.067796 1.159969 0.035319
v 0.066059 1.099282 0.029070
v 0.065785 1.099858 0.018824
v 0.065656 1.076334 0.028138
v 0.067023 1.057660 0.028297
v 0.060926 1.076306 0.041792
v 0.067942 1.075570 0.018652
v 0.067449 1.057297 0.019177
v 0.074547 1.050083 0.014045
v 0.058949 1.055160 0.014811
v 0.067645 1.048410 0.004697
v 0.054057 1.057693 0.009958
v 0.057996 1.047626 0.001915
v 0.057427 1.054804 0.000665
v 0.061284 1.047206 -0.004752
v 0.062334 1.044816 0.012099
v 0.059063 1.052869 -0.007279
v 0.062504 1.047059 -0.013598
v 0.068304 1.042940 -0.015102
v 0.073565 1.048273 -0.006246
v 0.055186 1.044720 -0.023747
v 0.052967 1.049086 -0.015887
v 0.046997 1.052030 -0.013972
v 0.048650 1.045549 -0.020238
v 0.054857 1.065703 -0.017064
v 0.059173 1.066324 -0.009183
v 0.048436 1.065991 -0.015548
v 0.054470 1.080054 -0.016558
v 0.053847 1.090836 -0.012469
v 0.059257 1.079779 -0.010231
v 0.048093 1.079641 -0.015699
v 0.048873 1.090497 -0.011963
v 0.044666 1.079490 -0.009267
v 0.044653 1.080956 -0.001685
v 0.044397 1.066555 -0.008183
v 0.046106 1.088168 -0.009063
v 0.047325 1.091578 -0.004738
v 0.049759 1.094372 -0.007608
v 0.049905 1.093248 -0.001422
v 0.053214 1.094769 -0.006490
v 0.054090 1.090881 -0.001015
v 0.048469 1.082433 0.003513
v 0.054746 1.081939 0.003055
v 0.047422 1.070234 0.005563
v 0.054106 1.069762 0.005857
v 0.044219 1.059909 0.009479
v 0.044713 1.068313 -0.000211
v 0.043761 1.056228 0.002317
v 0.043185 1.054101 -0.006481
v 0.039604 1.049684 0.004641
v 0.033357 1.046215 0.005810
v 0.039310 1.048062 -0.006345
v 0.043623 1.053277 0.017368
v 0.044953 1.050338 0.031968
v 0.041376 1.046606 0.018039
v 0.047228 1.056530 0.020378
v 0.043641 1.043424 0.015334
v 0.048337 1.046313 0.030257
v 0.049350 1.047925 0.042229
v 0.052200 1.044317 0.028614
v 0.057253 1.043517 0.025103
v 0.056551 1.047194 0.041594
v 0.061722 1.048320 0.039002
v 0.060215 1.050844 0.050473
v 0.060122 1.052483 0.055862
v 0.067352 1.051678 0.056620
v 0.048994 1.049431 0.049605
v 0.065720 1.051163 0.047385
v 0.070956 1.051953 0.053410
v 0.069355 1.052102 0.044374
v 0.074828 1.057438 0.051292
v 0.070167 1.052817 0.041852
v 0.066400 1.049593 0.036904
v 0.068991 1.049917 0.034127
v 0.066041 1.045874 0.030193
v 0.071065 1.046409 0.031607
v 0.066928 1.043635 0.024813
v 0.070438 1.042653 0.030699
v 0.069751 1.042966 0.021642
v 0.059063 1.044325 0.013235
v 0.062334 1.044816 0.012099
v 0.060675 1.042089 0.001731
v 0.050382 1.042077 0.003295
v 0.043197 1.041170 -0.003194
v 0.047460 1.042705 0.011035
v 0.052557 1.041318 -0.005590
v 0.054349 1.040593 -0.013236
v 0.045512 1.040153 -0.011281
v 0.039372 1.040664 -0.014831
v 0.047539 1.039040 -0.019469
v 0.041600 1.040078 -0.022921
v 0.050202 1.039187 -0.025891
v 0.056429 1.040806 -0.019117
v 0.044420 1.039425 -0.027463
v 0.053427 1.040244 -0.028853
v 0.048056 1.045038 -0.028168
v 0.058834 1.042229 -0.024015
v 0.042665 1.044647 -0.023300
v 0.039196 1.044164 -0.016164
v 0.043464 1.046806 -0.014877
v 0.034366 1.044950 -0.007573
v 0.036590 1.041250 -0.006549
v 0.036105 1.042353 0.004926
v 0.041645 1.041785 0.003788
v 0.065696 1.042070 -0.011088
v 0.074786 1.039845 -0.006129
v 0.062909 1.041625 -0.005904
v 0.071297 1.040463 0.000671
v 0.066873 1.042274 0.007018
v 0.079195 1.040854 0.008916
v 0.084459 1.039728 0.002883
v 0.083681 1.041149 0.018259
v 0.073792 1.042358 0.016008
v 0.077543 1.041510 0.023896
v 0.073066 1.041322 0.028043
v 0.079487 1.040161 0.031025
v 0.078962 1.040791 0.037255
v 0.075044 1.040790 0.032530
v 0.086049 1.040067 0.027018
v 0.087483 1.040112 0.036027
v 0.092487 1.039731 0.023353
v 0.095394 1.040025 0.030997
v 0.097325 1.039417 0.018895
v 0.089897 1.039739 0.013182
v 0.096133 1.039639 0.009222
v 0.101832 1.040868 0.006366
v 0.089314 1.039771 -0.002816
v 0.093344 1.041650 -0.007211
v 0.076998 1.040228 -0.012164
v 0.080781 1.042596 -0.019141
v 0.076984 1.045379 -0.012987
v 0.090339 1.046998 -0.004587
v 0.099689 1.045307 0.006067
v 0.083582 1.050743 0.004248
v 0.094710 1.050771 0.008349
v 0.084310 1.062781 0.008820
v 0.091993 1.062427 0.012351
v 0.077238 1.062327 0.014082
v 0.085195 1.080199 0.007760
v 0.092477 1.079680 0.014972
v 0.077142 1.079287 0.012973
v 0.087371 1.095201 0.013491
v 0.091669 1.097062 0.020812
v 0.079103 1.097622 0.017327
v 0.082766 1.100530 0.024735
v 0.076776 1.092899 0.022257
v 0.075868 1.077970 0.022459
v 0.082575 1.094777 0.027759
v 0.091653 1.094411 0.026380
v 0.082549 1.077186 0.029450
v 0.092345 1.078292 0.025041
v 0.082319 1.058334 0.028933
v 0.092732 1.060027 0.022368
v 0.076175 1.048839 0.030049
v 0.076976 1.060931 0.023133
v 0.088993 1.048445 0.029715
v 0.094491 1.048479 0.020402
v 0.080708 1.047045 0.033334
v 0.094080 1.044245 0.031927
v 0.085603 1.044743 0.036662
v 0.100246 1.044240 0.021590
v 0.102485 1.040004 0.021656
v 0.078582 1.044433 0.036872
v 0.074395 1.045064 0.034885
v 0.073510 1.042337 0.035005
v 0.070783 1.051966 0.027928
v 0.069153 1.054913 0.039486
v 0.060451 1.058655 0.038665
v 0.066444 1.057341 0.049029
v 0.070226 1.055908 0.050195
v 0.062470 1.062514 0.049853
v 0.060867 1.056333 0.057685
v 0.049243 1.052557 0.061402
v 0.067369 1.055547 0.058008
v 0.058062 1.063086 0.058609
v 0.046010 1.061218 0.060319
v 0.035494 1.054234 0.060080
v 0.025965 1.053566 0.062413
v 0.035466 1.051742 0.061204
v 0.036688 1.054855 0.054935
v 0.024625 1.051067 0.060433
v 0.017603 1.049758 0.056771
v 0.019656 1.050912 0.068321
v 0.026086 1.049415 0.052449
v 0.025503 1.048743 0.044810
v 0.017979 1.048581 0.049927
v 0.018769 1.047729 0.044390
v 0.014443 1.054092 0.047176
v 0.016252 1.052555 0.039654
v 0.015300 1.059762 0.045821
v 0.014433 1.055088 0.053740
v 0.015763 1.054072 0.063042
v 0.014462 1.059746 0.053774
v 0.026570 1.056396 0.062823
v 0.014327 1.067643 0.053825
v 0.022152 1.067702 0.061089
v 0.014916 1.066711 0.044799
v 0.019219 1.065691 0.036623
v 0.014305 1.074027 0.044149
v 0.018804 1.073225 0.035622
v 0.018350 1.080816 0.035052
v 0.024721 1.080957 0.029836
v 0.019036 1.058429 0.038272
v 0.031005 1.066834 0.057733
v 0.020283 1.054428 0.068893
v 0.016374 1.050108 0.064707
v 0.006999 1.052706 0.072593
v 0.008428 1.049617 0.074454
v 0.010621 1.052542 0.077153
v 0.001279 1.053299 0.076171
v 0.001045 1.050178 0.076173
v 0.001063 1.050084 0.078957
v -0.002241 1.052938 0.076806
v -0.002244 1.052075 0.079421
v 0.001502 1.052862 0.079740
v 0.002421 1.050741 0.083518
v 0.011094 1.050100 0.077536
v 0.025553 1.051389 0.037901
v 0.033079 1.050256 0.046370
v 0.039587 1.056830 0.041878
v 0.038710 1.051245 0.041220
v 0.041969 1.050232 0.047972
v 0.043403 1.050063 0.042260
v 0.049387 1.050847 0.055514
v 0.073768 1.057655 0.060784
v 0.065518 1.052108 0.059498
v 0.069686 1.052278 0.062407
v 0.071887 1.052086 0.061178
v 0.075122 1.052336 0.062642
v 0.076382 1.052219 0.057295
v 0.079130 1.052585 0.060453
v 0.081597 1.057255 0.054712
v 0.081933 1.063127 0.055105
v 0.079655 1.057320 0.059988
v 0.079851 1.063778 0.058959
v 0.080255 1.068236 0.057555
v 0.076523 1.064395 0.057988
v 0.078479 1.064055 0.053504
v 0.078077 1.068663 0.056332
v 0.079275 1.068110 0.054176
v 0.082077 1.068557 0.055173
v 0.061446 1.077396 0.052661
v 0.058178 1.067583 -0.000418
v 0.058534 1.080490 -0.002303
v 0.055937 1.091775 -0.005024
v 0.057014 1.088402 -0.009797
v 0.067266 1.167657 0.023830
vn 0.4295 0.7613 -0.4857
vn 0.5497 0.8282 -0.1092
vn 0.9944 0.0861 -0.0616
vn 0.8524 0.0377 -0.5216
vn -0.2427 0.9651 -0.0986
vn -0.2921 0.9542 -0.0640
vn 0.0280 0.5751 -0.8176
vn -0.5816 0.6566 -0.4802
vn 0.0832 0.0254 -0.9962
vn -0.7556 0.0461 -0.6534
vn -0.9743 0.1341 -0.1809
vn -0.7043 0.6848 -0.1871
vn -0.1913 0.9769 -0.0958
vn -0.5779 0.7770 0.2495
vn -0.2066 0.9769 -0.0553
vn -0.8443 0.1986 0.4977
vn -0.7749 -0.0728 -0.6279
vn -0.9797 -0.0592 -0.1915
vn -0.8716 0.0008 0.4903
vn -0.0483 0.1230 0.9912
vn 0.0422 0.6589 0.7511
vn -0.1241 0.0213 0.9920
vn -0.9008 -0.0016 0.4343
vn -0.2330 0.0355 0.9718
vn -0.9724 -0.0676 -0.2232
vn 0.7131 0.0077 0.7010
vn 0.7794 -0.0135 0.6264
vn 0.8216 0.0576 0.5672
vn 0.9988 -0.0491 0.0027
vn 0.9981 -0.0575 -0.0203
vn 0.5162 0.7702 0.3746
vn 0.8908 -0.0431 -0.4523
vn 0.9238 -0.0257 -0.3821
vn 0.7674 0.1460 0.6243
vn 0.9878 0.1558 -0.0049
vn 0.9116 0.0576 -0.4071
vn 0.1288 -0.0485 -0.9905
vn 0.0810 -0.0366 -0.9960
vn 0.0747 -0.1739 -0.9819
vn 0.2720 -0.0418 -0.9614
vn 0.0085 -0.3168 -0.9485
vn 0.7845 0.6199 0.0141
vn -0.0111 -0.6932 -0.7206
vn 0.2599 -0.8899 -0.3749
vn -0.8727 -0.1896 -0.4499
vn -0.3287 -0.9404 -0.0878
vn -0.6551 0.7095 -0.2598
vn 0.0803 0.9303 0.3580
vn -0.7641 0.2422 -0.5979
vn -0.7323 0.6635 -0.1531
vn -0.8603 0.4992 0.1028
vn -0.9910 0.0592 0.1201
vn -0.9912 0.0340 -0.1280
vn -0.7226 -0.0428 -0.6899
vn -0.6943 -0.0909 -0.7139
vn -0.9927 -0.0552 -0.1070
vn -0.9960 -0.0343 0.0827
vn 0.1366 -0.0445 -0.9896
vn 0.2023 -0.0609 -0.9774
vn 0.3004 0.5474 -0.7811
vn -0.9918 -0.0131 -0.1275
vn -0.6868 0.0476 -0.7253
vn 0.1148 0.0930 -0.9890
vn -0.9874 0.0389 -0.1534
vn -0.7746 0.2450 -0.5831
vn -0.0483 0.4431 -0.8952
vn -0.8051 0.3430 -0.4839
vn -0.2511 0.5561 -0.7923
vn -0.9574 0.1733 -0.2308
vn -0.5442 0.7672 -0.3394
vn -0.2419 0.8182 -0.5216
vn -0.6480 0.7496 -0.1350
vn 0.6756 0.4625 -0.5741
vn 0.8022 0.2944 -0.5194
vn 0.4108 0.7601 -0.5034
vn 0.0252 0.9952 0.0944
vn 0.7168 0.6972 -0.0094
vn 0.9816 0.1892 -0.0266
vn 0.6804 0.6180 0.3939
vn 0.9434 0.1122 0.3122
vn 0.0201 0.9697 0.2434
vn 0.4188 0.6218 0.6618
vn -0.0330 0.9233 0.3828
vn 0.7109 0.1405 0.6891
vn 0.9990 0.0428 0.0154
vn 0.9740 -0.0253 0.2249
vn 0.8067 -0.0170 0.5907
vn -0.1799 0.4770 0.8603
vn -0.1150 0.1413 0.9833
vn 0.0067 -0.0280 0.9996
vn -0.6328 0.6237 0.4589
vn -0.8799 0.0700 0.4699
vn -0.8569 -0.0571 0.5122
vn -0.9954 0.0875 0.0389
vn -0.9967 -0.0430 0.0695
vn -0.7262 0.6801 0.1002
vn -0.9950 -0.0391 0.0920
vn -0.8336 -0.0508 0.5500
vn -0.7805 -0.0619 0.6221
vn -0.6433 -0.0476 0.7642
vn 0.2829 -0.0902 0.9549
vn 0.1293 -0.0626 0.9896
vn 0.4334 -0.0922 0.8965
vn 0.9652 -0.0218 0.2606
vn 0.9289 -0.0533 0.3666
vn 0.8777 -0.0551 0.4761
vn 0.9788 -0.0600 0.1959
vn 0.9839 -0.0528 0.1708
vn 0.9982 -0.0388 0.0459
vn 0.9909 -0.0309 0.1308
vn 0.8953 -0.0119 -0.4453
vn 0.8443 0.0298 -0.5350
vn 0.9716 -0.0037 0.2364
vn 0.9895 -0.0182 0.1435
vn 0.9028 0.0109 -0.4298
vn 0.8850 0.4246 0.1910
vn 0.7934 0.4841 -0.3689
vn 0.8922 0.4437 0.0843
vn 0.3680 0.7974 0.4783
vn -0.3032 0.8474 -0.4358
vn -0.0156 0.9763 -0.2158
vn 0.0769 0.8577 -0.5083
vn 0.5763 0.8162 -0.0408
vn 0.5819 0.7446 0.3269
vn 0.9641 0.2005 0.1742
vn 0.9539 0.2571 -0.1547
vn 0.3831 0.9235 0.0159
vn 0.3122 0.8599 -0.4038
vn 0.2145 0.6088 -0.7638
vn 0.0056 0.9637 -0.2669
vn 0.0677 0.6931 -0.7177
vn 0.2099 -0.2690 -0.9400
vn 0.2854 0.8140 -0.5059
vn 0.7224 -0.1925 -0.6641
vn -0.0831 0.9306 -0.3565
vn -0.5932 -0.0125 -0.8050
vn 0.3956 -0.0509 -0.9170
vn -0.5755 0.3123 -0.7558
vn -0.4250 0.7888 -0.4441
vn 0.9759 -0.0354 -0.2155
vn 0.3683 0.1729 -0.9135
vn 0.9566 0.1217 -0.2646
vn -0.5570 0.1383 -0.8189
vn 0.3666 0.5875 -0.7214
vn -0.4984 0.5448 -0.6744
vn 0.8867 0.3600 -0.2900
vn -0.9631 0.0934 -0.2525
vn -0.9184 0.3035 -0.2539
vn -0.9710 0.0296 -0.2374
vn -0.9494 0.1673 0.2658
vn -0.9810 0.1098 0.1600
vn -0.8229 0.5506 0.1400
vn -0.4406 0.8583 -0.2630
vn -0.2453 0.7471 0.6178
vn 0.2657 0.9613 -0.0725
vn -0.4391 0.3062 0.8446
vn 0.5125 0.5151 0.6871
vn 0.8040 0.5668 0.1799
vn 0.5069 0.2668 0.8197
vn -0.5427 0.2632 0.7976
vn 0.5165 0.1909 0.8348
vn -0.6980 0.5692 0.4346
vn -0.9471 0.3184 0.0401
vn -0.9116 0.3182 -0.2604
vn -0.6375 0.7298 -0.2469
vn -0.7688 0.6381 0.0425
vn -0.8315 0.5105 0.2192
vn -0.9303 0.2386 -0.2785
vn -0.9711 0.0939 0.2194
vn -0.8669 -0.2953 0.4016
vn -0.9209 -0.3897 0.0047
vn -0.5767 -0.7790 0.2460
vn -0.4992 -0.8444 0.1944
vn -0.3192 -0.9076 0.2728
vn -0.1261 -0.9673 0.2198
vn -0.2333 -0.9575 0.1698
vn -0.5734 -0.8181 0.0440
vn 0.0709 -0.9658 0.2496
vn 0.0237 -0.9958 0.0890
vn 0.0557 -0.9883 0.1419
vn 0.2327 -0.9418 0.2425
vn 0.3210 -0.9435 0.0816
vn 0.0967 -0.9721 0.2137
vn -0.0944 -0.9623 0.2550
vn 0.0082 -0.9636 0.2671
vn 0.0075 -0.8491 0.5281
vn -0.3583 -0.5489 0.7552
vn -0.0038 -0.9953 0.0969
vn 0.3059 -0.9382 -0.1620
vn 0.7492 -0.6249 -0.2194
vn 0.1317 0.2050 -0.9699
vn 0.3343 -0.8964 0.2912
vn 0.9983 -0.0122 -0.0563
vn 0.2370 0.9545 -0.1809
vn 0.7599 -0.4182 0.4977
vn -0.0450 -0.8923 0.4492
vn -0.1912 0.0516 0.9802
vn -0.1943 -0.9759 0.0990
vn -0.5845 -0.7066 0.3988
vn 0.0290 -0.9969 0.0728
vn -0.1913 -0.9811 -0.0301
vn -0.2589 -0.9656 -0.0259
vn -0.1106 -0.9874 0.1134
vn -0.1381 -0.9790 0.1501
vn -0.0384 -0.9896 0.1389
vn 0.0433 -0.9924 0.1149
vn 0.0510 -0.9931 0.1057
vn -0.0173 -0.9954 0.0939
vn -0.0242 -0.9949 0.0977
vn -0.0240 -0.9937 0.1096
vn 0.1080 -0.9919 0.0674
vn -0.0304 -0.9992 0.0270
vn 0.0009 -0.9986 0.0536
vn -0.5588 -0.8271 -0.0613
vn -0.6273 -0.7587 -0.1755
vn -0.7317 -0.5804 -0.3573
vn -0.5026 -0.5482 -0.6685
vn 0.0711 -0.9243 -0.3749
vn 0.2186 -0.9753 -0.0321
vn 0.4423 -0.3247 -0.8360
vn -0.1510 0.6094 -0.7784
vn 0.0072 -0.9953 -0.0968
vn -0.6133 0.6637 -0.4282
vn -0.7974 0.4515 -0.4003
vn -0.0918 -0.9942 -0.0556
vn -0.0965 -0.8901 -0.4454
vn -0.1205 -0.9904 0.0676
vn -0.0456 -0.9985 0.0296
vn -0.1191 -0.9886 0.0916
vn -0.1680 -0.9845 0.0509
vn -0.0793 -0.9967 0.0189
vn -0.1359 -0.9907 0.0005
vn -0.1347 -0.9876 -0.0807
vn -0.1121 -0.9937 -0.0040
vn -0.2673 -0.9589 0.0948
vn -0.0794 -0.9966 -0.0222
vn -0.1560 -0.6132 0.7744
vn 0.2564 -0.6549 0.7109
vn -0.5947 -0.4591 0.6600
vn -0.0425 -0.9990 0.0170
vn 0.5723 -0.5866 0.5731
vn 0.0544 -0.9985 -0.0035
vn 0.8535 -0.4659 0.2331
vn 0.0923 -0.9941 -0.0574
vn 0.1007 -0.9876 -0.1207
vn 0.8891 -0.3654 -0.2758
vn 0.6947 -0.2796 -0.6627
vn 0.2917 -0.1281 -0.9479
vn 0.3920 0.8116 -0.4332
vn -0.0181 0.8284 -0.5599
vn 0.7152 0.6579 -0.2358
vn 0.6619 0.6738 -0.3284
vn -0.1003 0.1706 -0.9802
vn 0.8542 0.1607 -0.4945
vn -0.8647 0.1303 -0.4851
vn 0.0788 0.1524 -0.9852
vn 0.9103 0.0718 -0.4076
vn -0.8172 0.0940 -0.5686
vn 0.7513 0.6548 -0.0830
vn 0.2431 0.5565 -0.7944
vn -0.6229 0.6927 -0.3636
vn -0.1710 0.9337 0.3146
vn -0.9322 0.2241 0.2841
vn -0.2591 0.3995 0.8794
vn -0.9531 0.0293 0.3014
vn -0.1923 -0.0073 0.9813
vn 0.7039 0.2911 0.6479
vn 0.8320 -0.0046 0.5548
vn 0.0214 0.2411 0.9703
vn 0.8863 0.1003 0.4521
vn -0.9102 0.2308 0.3438
vn 0.7731 0.5677 0.2829
vn 0.4193 0.6170 0.6660
vn 0.0040 0.7002 0.7139
vn -0.0431 0.6006 0.7984
vn 0.5857 0.4855 0.6491
vn 0.7819 0.5688 0.2552
vn 0.2287 0.4480 0.8643
vn -0.1391 0.4427 0.8858
vn -0.4127 0.4754 0.7769
vn 0.8291 0.5579 -0.0368
vn 0.5674 0.8227 0.0356
vn 0.9317 0.3181 0.1752
vn 0.3429 0.1877 0.9204
vn -0.2721 0.8211 0.5017
vn 0.5393 0.0766 0.8386
vn 0.1029 -0.5561 0.8247
vn -0.4008 0.2455 0.8826
vn 0.0840 -0.7332 0.6748
vn -0.0142 0.4712 0.8819
vn 0.4213 0.2312 0.8769
vn 0.1224 0.5791 0.8060
vn 0.3081 -0.8782 0.3658
vn 0.0448 -0.9989 0.0135
vn 0.1949 -0.9716 0.1339
vn -0.3292 -0.9307 -0.1595
vn -0.4872 -0.8673 0.1016
vn 0.5284 -0.7275 0.4377
vn -0.4641 -0.8814 0.0880
vn 0.5111 0.5689 0.6443
vn 0.1267 -0.9826 -0.1361
vn 0.4367 -0.8927 0.1115
vn -0.3568 -0.9126 -0.1996
vn -0.9722 -0.1991 -0.1236
vn -0.7034 -0.3958 -0.5904
vn -0.9862 0.0064 0.1657
vn -0.9670 0.0343 -0.2525
vn -0.7142 -0.1503 -0.6836
vn -0.9228 0.1685 0.3464
vn -0.8623 0.4919 0.1204
vn -0.2114 0.0140 0.9773
vn -0.9221 -0.0401 0.3849
vn -0.9639 -0.0694 -0.2569
vn -0.7854 -0.1673 -0.5960
vn -0.7974 -0.0914 -0.5966
vn -0.5532 0.4859 -0.6767
vn 0.3474 0.7884 0.5077
vn -0.1572 -0.9613 -0.2262
vn -0.4683 -0.8720 0.1425
vn -0.4438 -0.5996 -0.6660
vn -0.1593 0.8013 0.5767
vn -0.2757 0.8261 -0.4914
vn -0.8850 0.3240 -0.3345
vn -0.9262 0.0942 0.3651
vn 0.0258 -0.2772 0.9605
vn 0.5105 -0.5597 0.6528
vn -0.1714 -0.9516 0.2552
vn -0.5366 -0.8336 0.1308
vn -0.3102 0.6072 0.7315
vn -0.3706 -0.2891 0.8827
vn 0.0084 -0.8504 0.5260
vn 0.1632 -0.5141 0.8420
vn 0.3870 -0.8910 -0.2375
vn 0.6422 -0.5698 0.5127
vn 0.8603 -0.2996 -0.4125
vn 0.6848 -0.0239 0.7283
vn 0.4542 0.2040 0.8673
vn 0.9501 0.0292 -0.3106
vn -0.2928 0.2510 -0.9226
vn -0.7438 0.4825 0.4625
vn 0.3196 0.6486 0.6908
vn -0.6242 0.7665 0.1507
vn 0.7784 0.5780 -0.2449
vn -0.2350 0.6025 -0.7628
vn 0.9504 0.0274 0.3098
vn 0.9396 0.1472 0.3091
vt 0.020895 0.860699
vt 0.016808 0.861558
vt 0.015428 0.858009
vt 0.020030 0.857071
vt 0.022184 0.863583
vt 0.018521 0.864474
vt 0.023553 0.859701
vt 0.025371 0.862403
vt 0.024039 0.856357
vt 0.026994 0.857807
vt 0.029167 0.861341
vt 0.026857 0.865221
vt 0.022824 0.866285
vt 0.019459 0.423571
vt 0.016338 0.425639
vt 0.014848 0.421181
vt 0.016585 0.418471
vt 0.019408 0.416222
vt 0.022534 0.421132
vt 0.028463 0.855072
vt 0.031387 0.859743
vt 0.025383 0.417899
vt 0.022525 0.413391
vt 0.025285 0.425858
vt 0.022535 0.428449
vt 0.028083 0.422002
vt 0.028349 0.414607
vt 0.030836 0.418467
vt 0.025443 0.410416
vt 0.032917 0.422502
vt 0.029825 0.425672
vt 0.026231 0.428751
vt 0.013697 0.849495
vt 0.014666 0.853496
vt 0.009770 0.854338
vt 0.008441 0.850553
vt 0.010840 0.859129
vt 0.012565 0.862851
vt 0.009601 0.863613
vt 0.008005 0.862268
vt 0.019696 0.852904
vt 0.016605 0.866778
vt 0.019035 0.431023
vt 0.019485 0.849193
vt 0.008854 0.846052
vt 0.013843 0.845668
vt 0.019337 0.845533
vt 0.025165 0.849369
vt 0.025460 0.853023
vt 0.025461 0.845137
vt 0.020341 0.839345
vt 0.025804 0.840449
vt 0.014806 0.841106
vt 0.025691 0.837473
vt 0.021663 0.837613
vt 0.018612 0.835513
vt 0.021423 0.835225
vt 0.015816 0.838125
vt 0.010237 0.839709
vt 0.053432 0.288396
vt 0.051959 0.286229
vt 0.060431 0.281690
vt 0.063685 0.282191
vt 0.068911 0.278831
vt 0.069397 0.282229
vt 0.072086 0.291050
vt 0.062988 0.294048
vt 0.054746 0.296286
vt 0.057489 0.307235
vt 0.065747 0.304318
vt 0.074134 0.300811
vt 0.048517 0.297863
vt 0.051685 0.309051
vt 0.046689 0.287831
vt 0.069255 0.319317
vt 0.061118 0.323254
vt 0.056241 0.325201
vt 0.076403 0.331573
vt 0.070083 0.337416
vt 0.066019 0.342015
vt 0.078356 0.342557
vt 0.074824 0.345720
vt 0.083045 0.338976
vt 0.082252 0.346866
vt 0.080393 0.348416
vt 0.086066 0.345068
vt 0.496641 0.047515
vt 0.493742 0.051800
vt 0.484849 0.048548
vt 0.488124 0.042937
vt 0.501655 0.052007
vt 0.499420 0.053685
vt 0.502780 0.060967
vt 0.498275 0.059298
vt 0.085456 0.350061
vt 0.491005 0.058173
vt 0.497142 0.065796
vt 0.489932 0.064369
vt 0.502109 0.067503
vt 0.497007 0.071019
vt 0.500711 0.071670
vt 0.490139 0.070856
vt 0.481151 0.054761
vt 0.479703 0.062345
vt 0.479937 0.070180
vt 0.496123 0.075279
vt 0.490834 0.077374
vt 0.480745 0.076042
vt 0.092938 0.340896
vt 0.091129 0.334922
vt 0.095652 0.337068
vt 0.095282 0.341357
vt 0.481585 0.080613
vt 0.491674 0.081181
vt 0.087101 0.337103
vt 0.082563 0.327750
vt 0.088516 0.325628
vt 0.089549 0.343378
vt 0.093978 0.344216
vt 0.091161 0.347022
vt 0.500434 0.074871
vt 0.077240 0.314416
vt 0.083179 0.312477
vt 0.080470 0.298181
vt 0.077391 0.288214
vt 0.083515 0.298339
vt 0.087027 0.310892
vt 0.437717 0.078970
vt 0.438270 0.073874
vt 0.448968 0.076088
vt 0.447234 0.079780
vt 0.438090 0.067865
vt 0.449075 0.069696
vt 0.464762 0.075773
vt 0.464485 0.069530
vt 0.467118 0.079557
vt 0.464922 0.061770
vt 0.448722 0.061716
vt 0.465339 0.051606
vt 0.449137 0.052646
vt 0.449708 0.046462
vt 0.466585 0.044828
vt 0.437307 0.052875
vt 0.437393 0.061432
vt 0.437260 0.047239
vt 0.427415 0.053030
vt 0.427885 0.048171
vt 0.428418 0.059956
vt 0.427230 0.043338
vt 0.437717 0.042603
vt 0.450082 0.041864
vt 0.423460 0.053358
vt 0.423029 0.046260
vt 0.420425 0.041866
vt 0.500182 0.869838
vt 0.502004 0.867816
vt 0.503504 0.872389
vt 0.497856 0.872831
vt 0.046481 0.284697
vt 0.505897 0.867589
vt 0.502595 0.866417
vt 0.967792 0.038235
vt 0.963738 0.037779
vt 0.962900 0.034818
vt 0.967157 0.034574
vt 0.961991 0.030462
vt 0.958827 0.030933
vt 0.971062 0.032587
vt 0.973571 0.037195
vt 0.966887 0.027024
vt 0.968699 0.025033
vt 0.970499 0.028767
vt 0.545179 0.884528
vt 0.548558 0.891060
vt 0.543991 0.896398
vt 0.543706 0.887859
vt 0.542506 0.879197
vt 0.547480 0.881522
vt 0.975466 0.046721
vt 0.971696 0.046206
vt 0.976984 0.039881
vt 0.978584 0.037449
vt 0.976425 0.035817
vt 0.966679 0.045855
vt 0.970300 0.053505
vt 0.966137 0.053096
vt 0.973937 0.054081
vt 0.969603 0.059255
vt 0.972834 0.059772
vt 0.966382 0.058249
vt 0.978037 0.054885
vt 0.976089 0.059167
vt 0.979653 0.048026
vt 0.982092 0.055783
vt 0.983471 0.049060
vt 0.507259 0.858160
vt 0.503522 0.852412
vt 0.504888 0.851816
vt 0.507850 0.853254
vt 0.501495 0.848711
vt 0.504688 0.849164
vt 0.502376 0.852878
vt 0.499540 0.849279
vt 0.505246 0.858338
vt 0.501438 0.853825
vt 0.499567 0.851289
vt 0.502805 0.858035
vt 0.507280 0.863316
vt 0.504349 0.862727
vt 0.510192 0.863557
vt 0.512394 0.870267
vt 0.516777 0.870033
vt 0.981320 0.042121
vt 0.985599 0.044090
vt 0.983145 0.039370
vt 0.987406 0.041351
vt 0.518888 0.875912
vt 0.511077 0.880309
vt 0.527876 0.879423
vt 0.520215 0.880390
vt 0.527442 0.876506
vt 0.512479 0.884690
vt 0.046790 0.281725
vt 0.050970 0.284384
vt 0.057809 0.280228
vt 0.658161 0.949952
vt 0.662190 0.948326
vt 0.670332 0.958361
vt 0.667253 0.958902
vt 0.521168 0.883033
vt 0.514810 0.887558
vt 0.509264 0.896771
vt 0.507990 0.894470
vt 0.657022 0.940406
vt 0.661649 0.939974
vt 0.654130 0.950608
vt 0.651501 0.938641
vt 0.518334 0.889822
vt 0.512015 0.898200
vt 0.649013 0.952530
vt 0.646342 0.940896
vt 0.418724 0.060825
vt 0.420032 0.064008
vt 0.417661 0.065004
vt 0.416574 0.061818
vt 0.653523 0.931684
vt 0.659098 0.933884
vt 0.659563 0.929566
vt 0.654464 0.928142
vt 0.592067 0.037638
vt 0.588565 0.034947
vt 0.588941 0.031473
vt 0.593646 0.034181
vt 0.595193 0.031805
vt 0.593345 0.028406
vt 0.616039 0.034777
vt 0.616985 0.036875
vt 0.610925 0.038135
vt 0.611901 0.034792
vt 0.421789 0.063183
vt 0.420637 0.059788
vt 0.618279 0.037464
vt 0.614172 0.039031
vt 0.422766 0.062675
vt 0.422183 0.057262
vt 0.643271 0.942842
vt 0.641241 0.948159
vt 0.638106 0.946108
vt 0.639601 0.942917
vt 0.636370 0.950773
vt 0.635227 0.947887
vt 0.511096 0.905681
vt 0.519778 0.897102
vt 0.515076 0.904834
vt 0.631656 0.951371
vt 0.630850 0.950063
vt 0.629707 0.955546
vt 0.629439 0.954816
vt 0.625048 0.956659
vt 0.623239 0.959919
vt 0.530426 0.891415
vt 0.528245 0.897082
vt 0.524183 0.891204
vt 0.526955 0.886234
vt 0.531873 0.886469
vt 0.522491 0.886248
vt 0.535739 0.891087
vt 0.534961 0.896354
vt 0.536252 0.886251
vt 0.527849 0.881972
vt 0.533113 0.881465
vt 0.537342 0.882488
vt 0.539308 0.883739
vt 0.539801 0.886888
vt 0.540282 0.890750
vt 0.541602 0.886024
vt 0.542066 0.883724
vt 0.539604 0.896394
vt 0.539564 0.880113
vt 0.534598 0.879280
vt 0.536228 0.875985
vt 0.539332 0.901438
vt 0.542525 0.902465
vt 0.536971 0.902081
vt 0.530147 0.900822
vt 0.541640 0.906778
vt 0.538820 0.906696
vt 0.626646 0.953869
vt 0.619332 0.958865
vt 0.622819 0.955047
vt 0.615671 0.955444
vt 0.621210 0.953034
vt 0.618256 0.959314
vt 0.626495 0.951683
vt 0.625915 0.949718
vt 0.629674 0.949120
vt 0.621370 0.950153
vt 0.628916 0.947666
vt 0.621492 0.947222
vt 0.630642 0.947701
vt 0.616164 0.952184
vt 0.615159 0.949512
vt 0.383197 0.040346
vt 0.378816 0.038866
vt 0.379083 0.035500
vt 0.382033 0.035262
vt 0.374556 0.034412
vt 0.377235 0.031136
vt 0.371129 0.028856
vt 0.373558 0.025203
vt 0.379951 0.028919
vt 0.376316 0.022805
vt 0.368718 0.020082
vt 0.372096 0.015785
vt 0.366874 0.023581
vt 0.970098 0.023076
vt 0.972329 0.025896
vt 0.379025 0.021317
vt 0.375858 0.014930
vt 0.380021 0.014915
vt 0.384303 0.021823
vt 0.381588 0.027449
vt 0.385593 0.026974
vt 0.390748 0.022062
vt 0.392071 0.025963
vt 0.415221 0.044862
vt 0.413348 0.041997
vt 0.418304 0.041177
vt 0.957862 0.026461
vt 0.960348 0.022705
vt 0.399579 0.019312
vt 0.400700 0.024188
vt 0.407682 0.042893
vt 0.408453 0.045300
vt 0.409632 0.022079
vt 0.407898 0.018162
vt 0.402295 0.043545
vt 0.403034 0.038971
vt 0.398180 0.044118
vt 0.395412 0.040945
vt 0.402522 0.046564
vt 0.400141 0.048503
vt 0.409768 0.047950
vt 0.407922 0.050908
vt 0.414321 0.026818
vt 0.412614 0.030398
vt 0.409486 0.025947
vt 0.404260 0.034150
vt 0.401964 0.028983
vt 0.394761 0.037062
vt 0.392733 0.031068
vt 0.417626 0.047647
vt 0.417310 0.049956
vt 0.387312 0.033417
vt 0.388940 0.038835
vt 0.418086 0.052563
vt 0.414432 0.051693
vt 0.420337 0.052842
vt 0.385555 0.039778
vt 0.384301 0.034554
vt 0.388393 0.043788
vt 0.386581 0.043421
vt 0.384868 0.044156
vt 0.386529 0.047350
vt 0.385299 0.048092
vt 0.419072 0.054158
vt 0.417106 0.053939
vt 0.416216 0.052132
vt 0.418826 0.054954
vt 0.416567 0.055004
vt 0.421618 0.054044
vt 0.420488 0.055608
vt 0.424068 0.060945
vt 0.426560 0.067015
vt 0.430241 0.066876
vt 0.425109 0.066813
vt 0.594063 0.044313
vt 0.591635 0.043878
vt 0.588578 0.039003
vt 0.593298 0.039908
vt 0.431147 0.072448
vt 0.427631 0.071656
vt 0.580073 0.034782
vt 0.579076 0.037089
vt 0.430596 0.078448
vt 0.426167 0.078951
vt 0.072386 0.275042
vt 0.075507 0.277493
vt 0.072385 0.280928
vt 0.071235 0.276700
vt 0.043122 0.415133
vt 0.045255 0.418296
vt 0.042913 0.420031
vt 0.041168 0.414458
vt 0.044629 0.414386
vt 0.046314 0.418239
vt 0.570025 0.036300
vt 0.570693 0.032607
vt 0.562733 0.035974
vt 0.561728 0.033266
vt 0.990371 0.938564
vt 0.989142 0.934803
vt 0.992963 0.934963
vt 0.993030 0.939082
vt 0.556264 0.033130
vt 0.557166 0.035179
vt 0.994947 0.938424
vt 0.994688 0.934769
vt 0.559446 0.031029
vt 0.564581 0.030523
vt 0.554162 0.031094
vt 0.032734 0.400108
vt 0.032383 0.403553
vt 0.029708 0.400386
vt 0.031108 0.397984
vt 0.552606 0.034370
vt 0.552290 0.031896
vt 0.030915 0.405526
vt 0.027726 0.401449
vt 0.036291 0.406540
vt 0.035100 0.408614
vt 0.988151 0.937975
vt 0.986253 0.933636
vt 0.042207 0.407703
vt 0.034442 0.415733
vt 0.031357 0.411542
vt 0.028633 0.407917
vt 0.025618 0.403174
vt 0.023262 0.405759
vt 0.019848 0.408540
vt 0.030772 0.846638
vt 0.029934 0.850664
vt 0.022746 0.398080
vt 0.026073 0.397046
vt 0.027542 0.395075
vt 0.036502 0.419987
vt 0.044674 0.410282
vt 0.048865 0.406013
vt 0.050290 0.408297
vt 0.989137 0.944536
vt 0.987004 0.944205
vt 0.987562 0.948330
vt 0.986208 0.947627
vt 0.052886 0.406223
vt 0.051863 0.405545
vt 0.053188 0.404951
vt 0.053395 0.403762
vt 0.054833 0.404543
vt 0.053883 0.405348
vt 0.056005 0.406255
vt 0.051180 0.408881
vt 0.991350 0.945002
vt 0.989515 0.949658
vt 0.045828 0.411637
vt 0.552908 0.029429
vt 0.557335 0.027303
vt 0.561997 0.028560
vt 0.565084 0.027717
vt 0.667803 0.937785
vt 0.666094 0.938529
vt 0.665753 0.936095
vt 0.670893 0.935137
vt 0.662740 0.934362
vt 0.666436 0.927808
vt 0.665505 0.944534
vt 0.597662 0.041847
vt 0.595463 0.044466
vt 0.594681 0.038028
vt 0.595863 0.038215
vt 0.598157 0.038536
vt 0.607332 0.032909
vt 0.608348 0.035653
vt 0.606405 0.036424
vt 0.605772 0.034053
vt 0.610758 0.032036
vt 0.607854 0.039702
vt 0.605526 0.038941
vt 0.605631 0.042605
vt 0.608395 0.042747
vt 0.610249 0.042648
vt 0.602078 0.045969
vt 0.600704 0.046358
vt 0.600236 0.041962
vt 0.600665 0.040168
vt 0.603822 0.048146
vt 0.602914 0.048308
vt 0.606919 0.045257
vt 0.605342 0.044816
vt 0.600448 0.048584
vt 0.602878 0.049182
vt 0.604967 0.050918
vt 0.602652 0.050975
vt 0.501670 0.862423
vt 0.499613 0.856327
vt 0.963137 0.044442
vt 0.495634 0.853611
vt 0.497911 0.861158
vt 0.497433 0.850566
vt 0.496978 0.846460
vt 0.971470 0.062516
vt 0.969569 0.062962
vt 0.467721 0.039227
s 1
usemtl abyss_chancel_background_pbr
f 1/1/1 2/2/2 25/3/3 4/4/4
f 1/1/1 3/5/5 28/6/6 2/2/2
f 3/5/5 1/1/1 5/7/7 7/8/8
f 4/4/4 6/9/9 5/7/7 1/1/1
f 8/10/10 7/8/8 5/7/7 6/9/9
f 7/8/8 8/10/10 12/11/11 9/12/12
f 7/8/8 9/12/12 10/13/13 3/5/5
f 11/14/14 26/15/15 10/16/13 9/17/12
f 11/14/14 9/17/12 12/18/11 14/19/16
f 12/11/11 8/10/10 300/20/17 13/21/18
f 16/22/19 14/19/16 12/18/11 13/23/18
f 14/19/16 15/24/20 27/25/21 11/14/14
f 14/19/16 16/22/19 18/26/22 15/24/20
f 18/26/22 16/22/19 17/27/23 19/28/24
f 13/23/18 298/29/25 17/27/23 16/22/19
f 21/30/26 20/31/27 18/26/22 19/28/24
f 23/32/28 15/24/20 18/26/22 20/31/27
f 30/33/29 22/34/30 20/35/27 21/36/26
f 25/3/3 23/37/28 20/35/27 22/34/30
f 24/38/31 23/37/28 25/3/3 2/2/2
f 23/37/28 24/38/31 27/39/21 15/40/20
f 29/41/32 4/4/4 25/3/3 22/34/30
f 24/38/31 2/2/2 28/6/6 26/42/15
f 26/15/15 11/14/14 27/25/21 24/43/31
f 10/13/13 26/42/15 28/6/6 3/5/5
f 30/33/29 32/44/33 29/41/32 22/34/30
f 303/45/34 31/46/35 30/33/29 21/36/26
f 30/33/29 31/46/35 34/47/36 32/44/33
f 33/48/37 301/49/38 29/41/32 32/44/33
f 34/47/36 35/50/39 33/48/37 32/44/33
f 36/51/40 38/52/41 35/50/39 34/47/36
f 40/53/42 36/51/40 34/47/36 31/46/35
f 317/54/43 38/52/41 36/51/40 37/55/44
f 37/55/44 36/51/40 39/56/45 320/57/46
f 40/53/42 42/58/47 39/56/45 36/51/40
f 42/58/47 40/53/42 41/59/48
f 31/46/35 303/45/34 41/59/48 40/53/42
f 44/60/49 155/61/50 39/62/45 42/63/47
f 41/64/48 43/65/51 42/63/47
f 47/66/52 45/67/53 42/63/47 43/65/51
f 44/60/49 42/63/47 45/67/53 48/68/54
f 50/69/55 48/68/54 45/67/53 46/70/56
f 88/71/57 46/70/56 45/67/53 47/66/52
f 49/72/58 48/68/54 50/69/55 51/73/59
f 48/68/54 49/72/58 109/74/60 44/60/49
f 53/75/61 52/76/62 50/69/55 46/70/56
f 54/77/63 51/73/59 50/69/55 52/76/62
f 52/76/62 53/75/61 57/78/64 55/79/65
f 55/79/65 56/80/66 54/77/63 52/76/62
f 58/81/67 61/82/68 56/80/66 55/79/65
f 58/81/67 55/79/65 57/78/64 60/83/69
f 61/82/68 58/81/67 59/84/70 63/85/71
f 60/83/69 84/86/72 59/84/70 58/81/67
f 61/87/68 62/88/73 346/89/74 56/90/66
f 61/87/68 63/91/71 65/92/75 62/88/73
f 64/93/76 66/94/77 65/92/75 63/91/71
f 64/95/76 63/85/71 59/84/70 84/86/72
f 67/96/78 62/88/73 65/92/75 66/94/77
f 67/96/78 66/94/77 68/97/79 71/98/80
f 66/94/77 64/93/76 69/99/81 68/97/79
f 70/100/82 68/97/79 69/99/81 83/101/83
f 73/102/84 71/98/80 68/97/79 70/100/82
f 100/103/85 67/96/78 71/98/80 72/104/86
f 74/105/87 72/104/86 71/98/80 73/102/84
f 70/100/82 76/106/88 75/107/89 73/102/84
f 75/107/89 77/108/90 74/105/87 73/102/84
f 81/109/91 78/110/92 75/111/89 76/112/88
f 79/113/93 77/108/90 75/107/89 78/114/92
f 78/110/92 80/115/94 85/116/95 79/117/93
f 81/109/91 82/118/96 80/115/94 78/110/92
f 83/119/83 69/120/81 82/118/96 81/109/91
f 76/106/88 70/100/82 83/101/83 81/121/91
f 84/86/72 60/83/69 80/115/94 82/118/96
f 64/95/76 84/86/72 82/118/96 69/120/81
f 60/83/69 57/78/64 85/116/95 80/115/94
f 53/75/61 86/122/97 85/116/95 57/78/64
f 85/116/95 86/122/97 87/123/98 79/117/93
f 88/71/57 89/124/99 87/123/98 86/122/97
f 46/70/56 88/71/57 86/122/97 53/75/61
f 47/66/52 90/125/100 89/124/99 88/71/57
f 87/123/98 89/124/99 91/126/101 94/127/102
f 90/128/100 92/129/103 91/130/101 89/131/99
f 92/129/103 341/132/104 93/133/105 91/130/101
f 94/134/102 91/130/101 93/133/105 95/135/106
f 94/134/102 95/135/106 74/105/87 77/108/90
f 77/108/90 79/113/93 87/136/98 94/134/102
f 96/137/107 72/104/86 74/105/87 95/135/106
f 95/135/106 93/133/105 97/138/108 96/137/107
f 72/104/86 96/137/107 98/139/109 100/103/85
f 97/138/108 101/140/110 98/139/109 96/137/107
f 102/141/111 99/142/112 98/139/109 101/140/110
f 98/139/109 99/142/112 346/89/74 100/103/85
f 103/143/113 101/140/110 97/138/108 105/144/114
f 106/145/115 102/141/111 101/140/110 103/143/113
f 104/146/116 107/147/117 106/145/115 103/143/113
f 103/143/113 105/144/114 267/148/118 104/146/116
f 106/145/115 107/147/117 109/149/60 49/150/58
f 49/150/58 51/151/59 102/141/111 106/145/115
f 104/146/116 265/152/119 108/153/120 107/147/117
f 109/149/60 107/147/117 108/153/120 110/154/121
f 115/155/122 112/156/123 109/157/60 110/158/121
f 155/61/50 44/60/49 109/74/60 111/159/124
f 111/160/124 109/157/60 112/156/123 113/161/125
f 116/162/126 113/163/125 112/164/123 114/165/127
f 110/166/121 114/165/127 112/164/123 115/167/122
f 114/165/127 117/168/128 121/169/129 116/162/126
f 110/166/121 119/170/130 117/168/128 114/165/127
f 119/170/130 230/171/131 118/172/132 117/168/128
f 120/173/133 117/174/128 118/175/132 196/176/134
f 120/173/133 123/177/135 121/178/129 117/174/128
f 126/179/136 124/180/137 121/169/129 122/181/138
f 199/182/139 122/181/138 121/169/129 123/183/135
f 121/169/129 124/180/137 125/184/140 116/162/126
f 127/185/141 129/186/142 125/184/140 124/180/137
f 130/187/143 127/185/141 124/180/137 126/179/136
f 128/188/144 127/185/141 130/187/143 131/189/145
f 127/185/141 128/188/144 345/190/146 129/186/142
f 130/187/143 132/191/147 135/192/148 131/189/145
f 130/187/143 126/179/136 134/193/149 132/191/147
f 133/194/150 132/191/147 134/193/149 146/195/151
f 133/196/150 136/197/152 135/198/148 132/199/147
f 135/198/148 136/197/152 137/200/153 131/201/145
f 138/202/154 139/203/155 137/200/153 136/197/152
f 138/202/154 136/197/152 133/196/150 141/204/156
f 139/203/155 138/202/154 140/205/157 344/206/158
f 141/204/156 142/207/159 140/205/157 138/202/154
f 142/207/159 141/204/156 143/208/160 144/209/161
f 141/204/156 133/196/150 146/210/151 143/208/160
f 143/208/160 145/211/162 111/160/124 144/209/161
f 145/211/162 143/208/160 146/210/151 147/212/163
f 146/195/151 134/193/149 148/213/164 147/214/163
f 148/213/164 151/215/165 149/216/166 147/214/163
f 145/211/162 147/212/163 149/217/166 152/218/167
f 200/219/168 150/220/169 149/217/166 151/221/165
f 149/217/166 150/220/169 154/222/170 152/218/167
f 111/159/124 145/223/162 152/224/167 155/61/50
f 39/62/45 155/61/50 152/224/167 153/225/171
f 157/226/172 153/227/171 152/228/167 154/229/170
f 202/230/173 156/231/174 154/222/170 150/220/169
f 156/231/174 159/232/175 157/233/172 154/222/170
f 157/226/172 158/234/176 322/235/177 153/227/171
f 159/236/175 161/237/178 158/234/176 157/226/172
f 156/231/174 184/238/179 160/239/180 159/232/175
f 161/237/178 159/236/175 160/240/180 162/241/181
f 162/242/181 167/243/182 163/244/183 161/245/178
f 158/234/176 161/237/178 163/246/183 166/247/184
f 323/248/185 166/247/184 163/246/183 164/249/186
f 325/250/187 164/251/186 163/252/183 165/253/188
f 168/254/189 165/253/188 163/252/183 167/255/182
f 167/256/182 169/257/190 170/258/191 168/259/189
f 169/260/190 167/243/182 162/242/181 172/261/192
f 171/262/193 269/263/194 170/258/191 169/257/190
f 171/264/193 169/260/190 172/261/192 173/265/195
f 172/266/192 174/267/196 175/268/197 173/269/195
f 172/266/192 162/241/181 160/240/180 174/267/196
f 176/270/198 177/271/199 175/268/197 174/267/196
f 174/272/196 160/239/180 179/273/200 176/274/198
f 177/271/199 176/270/198 178/275/201 214/276/202
f 176/270/198 179/277/200 180/278/203 178/275/201
f 208/279/204 180/278/203 179/277/200 181/280/205
f 185/281/206 181/282/205 179/273/200 182/283/207
f 184/238/179 182/283/207 179/273/200 160/239/180
f 182/283/207 183/284/208 187/285/209 185/281/206
f 182/283/207 184/238/179 203/286/210 183/284/208
f 181/282/205 185/281/206 186/287/211 206/288/212
f 186/287/211 185/281/206 187/285/209 189/289/213
f 183/284/208 201/290/214 188/291/215 187/285/209
f 189/289/213 187/285/209 188/291/215 190/292/216
f 193/293/217 191/294/218 189/289/213 190/292/216
f 191/294/218 192/295/219 186/287/211 189/289/213
f 196/176/134 192/295/219 191/294/218 194/296/220
f 193/293/217 195/297/221 194/296/220 191/294/218
f 196/176/134 194/296/220 195/297/221 120/173/133
f 192/295/219 196/176/134 118/175/132 204/298/222
f 120/173/133 195/297/221 197/299/223 123/177/135
f 193/293/217 190/292/216 197/299/223 195/297/221
f 197/299/223 190/292/216 188/291/215 198/300/224
f 199/301/139 123/177/135 197/299/223 198/300/224
f 199/301/139 198/300/224 200/219/168 151/221/165
f 188/291/215 201/290/214 200/219/168 198/300/224
f 202/230/173 150/220/169 200/219/168 201/290/214
f 201/290/214 183/284/208 203/286/210 202/230/173
f 156/231/174 202/230/173 203/286/210 184/238/179
f 199/182/139 151/215/165 148/213/164 122/181/138
f 204/298/222 206/288/212 186/287/211 192/295/219
f 205/302/225 204/298/222 118/175/132 228/303/226
f 205/302/225 207/304/227 206/288/212 204/298/222
f 208/305/204 181/282/205 206/288/212 207/304/227
f 210/306/228 209/307/229 207/304/227 205/302/225
f 212/308/230 208/279/204 207/309/227 209/310/229
f 223/311/231 211/312/232 209/310/229 210/313/228
f 213/314/233 212/308/230 209/310/229 211/312/232
f 213/314/233 214/276/202 178/275/201 212/308/230
f 212/308/230 178/275/201 180/278/203 208/279/204
f 213/314/233 215/315/234 217/316/235 214/276/202
f 215/315/234 213/314/233 211/312/232 218/317/236
f 216/318/237 215/315/234 218/317/236 219/319/238
f 216/318/237 264/320/239 217/316/235 215/315/234
f 220/321/240 218/317/236 211/312/232 223/311/231
f 221/322/241 219/319/238 218/317/236 220/321/240
f 221/323/241 220/324/240 222/325/242 261/326/243
f 223/327/231 224/328/244 222/325/242 220/324/240
f 224/328/244 223/327/231 210/329/228 226/330/245
f 225/331/246 224/328/244 226/330/245 227/332/247
f 225/331/246 261/326/243 222/325/242 224/328/244
f 226/330/245 228/333/226 229/334/248 227/332/247
f 228/333/226 226/330/245 210/329/228 205/335/225
f 118/172/132 230/171/131 229/336/248 228/337/226
f 231/338/249 227/332/247 229/334/248 230/339/131
f 230/339/131 119/340/130 233/341/250 231/338/249
f 232/342/251 225/331/246 227/332/247 231/338/249
f 231/338/249 233/341/250 234/343/252 232/342/251
f 235/344/253 236/345/254 234/343/252 233/341/250
f 237/346/255 235/347/253 233/348/250 108/153/120
f 110/166/121 108/349/120 233/350/250 119/170/130
f 236/345/254 235/344/253 238/351/256 239/352/257
f 238/353/256 235/347/253 237/346/255 240/354/258
f 242/355/259 239/352/257 238/351/256 241/356/260
f 243/357/261 241/358/260 238/353/256 240/354/258
f 244/359/262 242/360/259 241/358/260 243/357/261
f 245/361/263 247/362/264 244/359/262 243/357/261
f 240/354/258 246/363/265 245/361/263 243/357/261
f 249/364/266 247/362/264 245/361/263 246/363/265
f 244/365/262 247/366/264 248/367/267 242/355/259
f 249/368/266 250/369/268 248/367/267 247/366/264
f 250/369/268 249/368/266 251/370/269 252/371/270
f 246/363/265 254/372/271 251/373/269 249/364/266
f 256/374/272 252/371/270 251/370/269 255/375/273
f 257/376/274 255/377/273 251/373/269 253/378/275
f 265/152/119 253/378/275 251/373/269 254/372/271
f 256/374/272 255/375/273 258/379/276 260/380/277
f 255/375/273 257/381/274 259/382/278 258/379/276
f 261/326/243 260/380/277 258/379/276 221/323/241
f 221/323/241 258/379/276 259/382/278 219/383/238
f 225/331/246 232/342/251 260/380/277 261/326/243
f 260/380/277 232/342/251 234/343/252 256/374/272
f 219/383/238 259/382/278 262/384/279 216/385/237
f 257/376/274 263/386/280 262/387/279 259/388/278
f 264/389/239 216/390/237 262/387/279 263/386/280
f 264/389/239 263/386/280 175/391/197 177/392/199
f 257/376/274 253/378/275 175/391/197 263/386/280
f 177/271/199 214/276/202 217/316/235 264/320/239
f 252/371/270 256/374/272 234/343/252 236/345/254
f 254/372/271 237/346/255 108/153/120 265/152/119
f 246/363/265 240/354/258 237/346/255 254/372/271
f 265/152/119 173/265/195 175/391/197 253/378/275
f 267/148/118 266/393/281 265/152/119 104/146/116
f 171/264/193 173/265/195 265/152/119 266/393/281
f 268/394/282 266/393/281 267/148/118 270/395/283
f 269/396/194 171/264/193 266/393/281 268/394/282
f 269/397/194 268/398/282 271/399/284 273/400/285
f 270/395/283 274/401/286 271/402/284 268/394/282
f 323/403/185 164/251/186 271/399/284 272/404/287
f 325/250/187 273/400/285 271/399/284 164/251/186
f 275/405/288 272/406/287 271/402/284 274/401/286
f 270/395/283 341/132/104 92/129/103 274/401/286
f 92/129/103 90/128/100 275/405/288 274/401/286
f 278/407/289 272/408/287 275/409/288 276/410/290
f 41/64/48 276/410/290 275/409/288 43/65/51
f 47/66/52 43/65/51 275/409/288 90/125/100
f 277/411/291 276/412/290 41/413/48 293/414/292
f 276/412/290 277/411/291 280/415/293 278/416/289
f 272/404/287 278/417/289 279/418/294 323/403/185
f 280/419/293 283/420/295 279/418/294 278/417/289
f 305/421/296 281/422/297 280/423/293 282/424/298
f 285/425/299 283/420/295 280/419/293 281/426/297
f 304/427/300 282/424/298 280/423/293 277/428/291
f 284/429/301 318/430/302 279/418/294 283/420/295
f 285/425/299 286/431/303 284/429/301 283/420/295
f 285/432/299 287/433/304 288/434/305 286/435/303
f 285/425/299 281/426/297 290/436/306 287/437/304
f 289/438/307 302/439/308 288/434/305 287/433/304
f 289/438/307 287/433/304 290/440/306 292/441/309
f 281/422/297 305/421/296 291/442/310 290/443/306
f 292/441/309 290/440/306 291/444/310 293/414/292
f 295/445/311 294/446/312 292/441/309 293/414/292
f 296/447/313 289/438/307 292/441/309 294/446/312
f 295/445/311 19/28/24 17/27/23 294/446/312
f 17/27/23 298/29/25 296/447/313 294/446/312
f 302/439/308 289/438/307 296/447/313 297/448/314
f 299/449/315 297/448/314 296/447/313 298/29/25
f 298/29/25 13/23/18 300/450/17 299/449/315
f 297/451/314 299/452/315 33/48/37 35/50/39
f 299/452/315 300/20/17 301/49/38 33/48/37
f 8/10/10 6/9/9 301/49/38 300/20/17
f 6/9/9 4/4/4 29/41/32 301/49/38
f 302/439/308 297/448/314 35/453/39 38/454/41
f 38/454/41 317/455/43 288/434/305 302/439/308
f 295/445/311 303/456/34 21/30/26 19/28/24
f 295/445/311 293/414/292 41/413/48 303/456/34
f 304/457/300 277/411/291 293/414/292 291/444/310
f 304/457/300 291/444/310 306/458/316 308/459/317
f 307/460/318 306/461/316 291/442/310 305/421/296
f 311/462/319 310/463/320 306/461/316 307/460/318
f 314/464/321 308/459/317 306/458/316 309/465/322
f 312/466/323 309/465/322 306/458/316 310/467/320
f 311/468/319 313/469/324 312/466/323 310/467/320
f 314/464/321 309/465/322 312/466/323 313/469/324
f 313/469/324 311/468/319 315/470/325 314/464/321
f 308/459/317 314/464/321 315/470/325 316/471/326
f 307/460/318 316/472/326 315/473/325 311/462/319
f 305/421/296 282/424/298 316/472/326 307/460/318
f 304/457/300 308/459/317 316/471/326 282/474/298
f 284/429/301 286/431/303 288/475/305 317/476/43
f 37/477/44 318/430/302 284/429/301 317/476/43
f 319/478/327 279/418/294 318/430/302
f 37/479/44 320/480/46 319/481/327 318/482/302
f 322/235/177 321/483/328 319/481/327 320/480/46
f 279/484/294 319/481/327 321/483/328
f 158/234/176 166/247/184 321/483/328 322/235/177
f 166/247/184 323/248/185 279/484/294 321/483/328
f 322/235/177 320/480/46 39/485/45 153/227/171
f 273/400/285 324/486/329 170/487/191 269/397/194
f 325/250/187 326/488/330 324/486/329 273/400/285
f 326/488/330 325/250/187 165/253/188 327/489/331
f 327/489/331 328/490/332 324/486/329 326/488/330
f 327/491/331 329/492/333 330/493/334 328/494/332
f 329/492/333 327/491/331 165/495/188 168/259/189
f 331/496/335 333/497/336 330/493/334 329/492/333
f 329/492/333 168/259/189 170/258/191 331/496/335
f 334/498/337 333/497/336 331/496/335 332/499/338
f 332/499/338 331/496/335 170/258/191 337/500/339
f 334/501/337 336/502/340 324/486/329 333/503/336
f 324/486/329 328/490/332 330/504/334 333/503/336
f 334/501/337 335/505/341 338/506/342 336/502/340
f 334/498/337 332/499/338 340/507/343 335/508/341
f 336/502/340 337/509/339 170/487/191 324/486/329
f 337/509/339 336/502/340 338/506/342 339/510/344
f 338/506/342 335/505/341 340/511/343 339/510/344
f 337/509/339 339/510/344 340/511/343 332/512/338
f 341/132/104 270/395/283 267/148/118 105/144/114
f 341/132/104 105/144/114 97/138/108 93/133/105
f 239/352/257 250/369/268 252/371/270 236/345/254
f 239/352/257 242/355/259 248/367/267 250/369/268
f 126/179/136 122/181/138 148/213/164 134/193/149
f 342/513/345 144/209/161 111/160/124 113/161/125
f 343/514/346 142/207/159 144/209/161 342/513/345
f 116/162/126 125/184/140 342/515/345 113/163/125
f 129/516/142 343/514/346 342/513/345 125/517/140
f 343/514/346 344/206/158 140/205/157 142/207/159
f 343/514/346 129/516/142 345/518/146 344/206/158
f 139/203/155 344/206/158 345/518/146 128/519/144
f 128/188/144 131/189/145 137/520/153 139/521/155
f 102/141/111 51/151/59 54/522/63 99/142/112
f 67/96/78 100/103/85 346/89/74 62/88/73
f 346/89/74 99/142/112 54/522/63 56/90/66
