# Blender 5.2.0 LTS
# www.blender.org
mtllib terrain-abyss-chancel-object-058.mtl
o terrain-abyss-chancel-object-058
v -0.220835 0.854441 -0.058717
v -0.219344 0.856906 -0.059992
v -0.219917 0.853781 -0.061573
v -0.223467 0.854894 -0.058716
v -0.222869 0.853157 -0.062063
v -0.226270 0.855566 -0.059181
v -0.222560 0.858106 -0.059645
v -0.221565 0.858969 -0.062889
v -0.225483 0.858573 -0.060485
v -0.228271 0.858503 -0.061590
v -0.224496 0.859106 -0.063936
v -0.226943 0.858850 -0.064703
v -0.224235 0.857241 -0.066977
v -0.221173 0.857032 -0.066021
v -0.225001 0.853910 -0.066068
v -0.227181 0.857042 -0.067341
v -0.230057 0.857489 -0.066640
v -0.228274 0.854536 -0.065797
v -0.231362 0.856244 -0.065181
v -0.228952 0.854116 -0.062823
v -0.225860 0.853541 -0.062393
v -0.231590 0.855255 -0.063252
v -0.229259 0.856150 -0.060163
v -0.232017 0.856586 -0.061910
v -0.230798 0.857947 -0.063418
v -0.229268 0.858434 -0.065117
v -0.221962 0.853777 -0.065538
v -0.219386 0.854214 -0.064396
v -0.218411 0.856475 -0.063780
v -0.217443 0.855502 -0.061385
v -0.218976 0.857852 -0.062203
vn 0.0919 0.7057 0.7025
vn -0.0857 -0.3781 0.9218
vn 0.2712 -0.4512 0.8502
vn 0.6099 0.3952 0.6870
vn 0.4668 -0.8606 0.2037
vn 0.9623 -0.1625 0.2179
vn -0.0196 -0.9905 0.1361
vn -0.2950 -0.2497 0.9223
vn -0.1973 -0.9637 0.1800
vn -0.1257 0.8042 0.5809
vn 0.6008 0.7991 0.0220
vn 0.2844 0.9553 -0.0806
vn 0.0574 0.9791 -0.1951
vn -0.4752 -0.1009 0.8741
vn -0.2649 0.8554 0.4451
vn -0.0676 0.9633 -0.2599
vn 0.1510 0.3501 -0.9245
vn -0.0961 0.2261 -0.9693
vn 0.4244 0.3619 -0.8300
vn 0.2614 -0.7235 -0.6389
vn -0.0082 -0.7569 -0.6535
vn -0.2659 -0.7549 -0.5995
vn -0.4986 0.3352 -0.7994
vn -0.3090 0.9092 -0.2792
vn -0.8305 -0.1312 -0.5413
vn -0.3573 -0.9212 0.1538
vn -0.8132 -0.5818 0.0132
vn -0.8710 0.0819 0.4845
vn -0.6512 0.7552 0.0748
vn 0.8617 0.2009 -0.4660
vn 0.5787 -0.6372 -0.5089
vt 0.564614 0.022756
vt 0.564433 0.025368
vt 0.563391 0.024575
vt 0.563184 0.023250
vt 0.561559 0.024311
vt 0.562144 0.023393
vt 0.560783 0.025417
vt 0.939914 0.021277
vt 0.940619 0.019257
vt 0.942061 0.019760
vt 0.941394 0.021639
vt 0.566078 0.022042
vt 0.566136 0.024159
vt 0.562668 0.022390
vt 0.563275 0.021419
vt 0.564052 0.020335
vt 0.943618 0.020653
vt 0.943671 0.018905
vt 0.945394 0.019926
vt 0.566220 0.020322
vt 0.564323 0.019188
vt 0.561986 0.019532
vt 0.562476 0.018151
vt 0.561247 0.020985
vt 0.559506 0.022514
vt 0.559738 0.019543
vt 0.560948 0.017806
vt 0.564060 0.017391
vt 0.564913 0.018246
vt 0.942795 0.023826
vt 0.944544 0.023106
vt 0.944740 0.024075
vt 0.943738 0.024889
vt 0.942855 0.022078
vt 0.944066 0.022331
vt 0.941085 0.023582
vt 0.944610 0.021643
vt 0.945591 0.021776
vt 0.566289 0.018451
vt 0.945705 0.023111
vt 0.939590 0.023285
vt 0.561733 0.022442
vt 0.560708 0.022904
s 1
usemtl abyss_chancel_background_pbr
f 7/1/1 4/2/2 1/3/3 2/4/4
f 1/3/3 3/5/5 30/6/6 2/4/4
f 5/7/7 3/5/5 1/3/3 4/2/2
f 5/8/7 4/9/2 6/10/8 21/11/9
f 4/2/2 7/1/1 9/12/10 6/13/8
f 7/1/1 2/4/4 31/14/11 8/15/12
f 7/1/1 8/15/12 11/16/13 9/12/10
f 23/17/14 6/10/8 9/18/10 10/19/15
f 10/20/15 9/12/10 11/16/13 12/21/16
f 12/21/16 11/16/13 13/22/17 16/23/18
f 8/15/12 14/24/19 13/22/17 11/16/13
f 14/24/19 27/25/20 15/26/21 13/22/17
f 16/23/18 13/22/17 15/26/21 18/27/22
f 16/23/18 17/28/23 26/29/24 12/21/16
f 18/30/22 19/31/25 17/32/23 16/33/18
f 18/30/22 20/34/26 22/35/27 19/31/25
f 15/36/21 21/11/9 20/34/26 18/30/22
f 6/10/8 23/17/14 20/34/26 21/11/9
f 20/34/26 23/17/14 24/37/28 22/35/27
f 10/19/15 25/38/29 24/37/28 23/17/14
f 19/31/25 22/35/27 24/37/28 25/38/29
f 10/20/15 12/21/16 26/29/24 25/39/29
f 19/31/25 25/38/29 26/40/24 17/32/23
f 5/8/7 21/11/9 15/36/21 27/41/20
f 14/24/19 29/42/30 28/43/31 27/25/20
f 5/7/7 27/25/20 28/43/31 3/5/5
f 28/43/31 29/42/30 30/6/6 3/5/5
f 31/14/11 2/4/4 30/6/6 29/42/30
f 14/24/19 8/15/12 31/14/11 29/42/30
