# Blender 5.2.0 LTS
# www.blender.org
mtllib terrain-abyss-chancel-object-069.mtl
o terrain-abyss-chancel-object-069
v -0.137615 0.857025 0.057052
v -0.135018 0.855099 0.055826
v -0.140475 0.855936 0.055117
v -0.132761 0.860690 0.053504
v -0.127924 0.857961 0.049352
v -0.136429 0.860858 0.051340
v -0.126251 0.866904 0.053620
v -0.119625 0.864890 0.051879
v -0.132205 0.869854 0.052314
v -0.123249 0.877910 0.055183
v -0.122590 0.890483 0.055112
v -0.117264 0.877215 0.052284
v -0.130822 0.879592 0.053504
v -0.139278 0.881543 0.048331
v -0.129431 0.892249 0.053004
v -0.138962 0.893667 0.047951
v -0.124906 0.901689 0.044194
v -0.116937 0.897474 0.046485
v -0.135233 0.902081 0.039898
v -0.118682 0.903497 0.030700
v -0.129488 0.903985 0.027210
v -0.111825 0.903326 0.016528
v -0.109243 0.900650 0.032632
v -0.105080 0.890523 0.031216
v -0.102585 0.899372 0.017531
v -0.093472 0.900129 0.003731
v -0.098318 0.889271 0.013855
v -0.098462 0.875994 0.008929
v -0.090917 0.890606 0.000766
v -0.091347 0.879752 -0.002998
v -0.081907 0.893291 -0.008974
v -0.085844 0.902434 -0.008202
v -0.070109 0.895588 -0.016511
v -0.081884 0.882394 -0.009043
v -0.081982 0.872901 -0.009274
v -0.070291 0.883581 -0.017097
v -0.060716 0.884119 -0.035650
v -0.070611 0.872868 -0.017553
v -0.060621 0.872864 -0.036485
v -0.073070 0.863440 -0.020206
v -0.083574 0.864589 -0.010183
v -0.078633 0.859093 -0.025727
v -0.062469 0.863229 -0.038695
v -0.056625 0.863450 -0.055215
v -0.069263 0.859396 -0.043977
v -0.064009 0.858847 -0.059204
v -0.077962 0.858828 -0.050257
v -0.087756 0.858120 -0.032541
v -0.088610 0.859239 -0.058733
v -0.072712 0.858495 -0.064982
v -0.082908 0.858971 -0.071986
v -0.070395 0.859418 -0.076111
v -0.079540 0.859376 -0.082494
v -0.069959 0.861724 -0.084477
v -0.062249 0.859060 -0.070315
v -0.054341 0.861946 -0.065669
v -0.062186 0.860441 -0.079051
v -0.054639 0.861648 -0.074253
v -0.062472 0.862720 -0.085472
v -0.070180 0.865644 -0.088592
v -0.055055 0.862218 -0.081129
v -0.062342 0.867591 -0.087780
v -0.069898 0.870952 -0.089630
v -0.061281 0.871995 -0.086683
v -0.055271 0.865061 -0.084641
v -0.051803 0.863153 -0.083725
v -0.054141 0.865873 -0.083564
v -0.052253 0.862062 -0.078181
v -0.051867 0.868141 -0.072075
v -0.058863 0.878183 -0.080512
v -0.052654 0.879975 -0.072193
v -0.066741 0.884740 -0.086071
v -0.056004 0.896047 -0.079140
v -0.065406 0.897731 -0.084755
v -0.048104 0.895158 -0.071850
v -0.054698 0.909236 -0.077819
v -0.046741 0.908009 -0.071290
v -0.058518 0.914558 -0.069133
v -0.066873 0.909496 -0.083187
v -0.070274 0.915370 -0.075380
v -0.077963 0.909342 -0.088471
v -0.087246 0.909008 -0.092298
v -0.076598 0.898186 -0.089893
v -0.081858 0.915215 -0.080868
v -0.086356 0.915906 -0.070589
v -0.091030 0.914563 -0.084922
v -0.098793 0.914800 -0.087893
v -0.096143 0.915855 -0.075086
v -0.103877 0.915707 -0.078508
v -0.103289 0.915688 -0.061373
v -0.110228 0.915367 -0.065003
v -0.093090 0.915485 -0.056159
v -0.112736 0.913940 -0.043956
v -0.120251 0.913216 -0.046449
v -0.121100 0.908071 -0.031150
v -0.102664 0.914184 -0.037985
v -0.091702 0.913756 -0.030562
v -0.112218 0.908716 -0.024236
v -0.124062 0.903549 -0.007859
v -0.101948 0.908474 -0.016936
v -0.093030 0.907405 -0.010860
v -0.112536 0.904407 -0.002209
v -0.122380 0.903757 0.013186
v -0.102701 0.904066 0.001642
v -0.134694 0.904236 0.008454
v -0.142465 0.904398 0.022507
v -0.146778 0.904575 0.003409
v -0.156451 0.900314 -0.000020
v -0.134412 0.903848 -0.013687
v -0.155064 0.904567 0.018055
v -0.164465 0.898843 0.015418
v -0.158909 0.902746 0.028345
v -0.164620 0.896793 0.030766
v -0.148199 0.902899 0.034405
v -0.151744 0.895292 0.041827
v -0.152056 0.884300 0.042118
v -0.152361 0.873516 0.040354
v -0.164609 0.885996 0.031839
v -0.162473 0.876279 0.030414
v -0.166290 0.888752 0.015586
v -0.158293 0.890441 -0.000159
v -0.165539 0.878563 0.016141
v -0.163729 0.866311 0.016009
v -0.158771 0.879269 0.000433
v -0.158717 0.866653 0.001036
v -0.148918 0.878354 -0.020672
v -0.147298 0.890063 -0.020920
v -0.149159 0.865827 -0.020494
v -0.134619 0.879950 -0.042174
v -0.134849 0.867668 -0.042377
v -0.132864 0.892202 -0.040850
v -0.121715 0.884089 -0.057901
v -0.121026 0.871783 -0.059702
v -0.113852 0.886705 -0.074230
v -0.122905 0.895809 -0.055160
v -0.124830 0.904673 -0.051360
v -0.114682 0.897332 -0.072278
v -0.115262 0.905213 -0.070103
v -0.108850 0.897613 -0.084671
v -0.107765 0.887423 -0.086280
v -0.102314 0.897986 -0.093043
v -0.109711 0.905940 -0.083197
v -0.109990 0.912936 -0.081754
v -0.103477 0.906940 -0.091396
v -0.095194 0.908824 -0.094897
v -0.105608 0.912404 -0.089044
v -0.093580 0.898165 -0.095701
v -0.085182 0.898325 -0.093956
v -0.092722 0.887990 -0.096565
v -0.101550 0.887905 -0.094311
v -0.091603 0.878001 -0.096732
v -0.084434 0.887687 -0.094029
v -0.084051 0.878761 -0.093768
v -0.076514 0.887274 -0.089996
v -0.076944 0.879085 -0.090456
v -0.077397 0.872192 -0.090808
v -0.068307 0.876937 -0.088807
v -0.077413 0.866940 -0.090931
v -0.083249 0.871369 -0.093560
v -0.088708 0.869289 -0.095994
v -0.080859 0.865523 -0.096378
v -0.084111 0.863382 -0.095540
v -0.079982 0.863184 -0.096740
v -0.082464 0.862019 -0.099301
v -0.078254 0.863334 -0.090375
v -0.088265 0.860500 -0.089478
v -0.096883 0.865545 -0.095808
v -0.093244 0.859346 -0.079482
v -0.103036 0.864122 -0.085829
v -0.098940 0.859243 -0.067055
v -0.108740 0.863395 -0.073551
v -0.107859 0.859164 -0.050502
v -0.098025 0.858640 -0.041468
v -0.119729 0.854675 -0.031784
v -0.116656 0.861295 -0.057911
v -0.129626 0.857394 -0.039021
v -0.142805 0.856150 -0.016864
v -0.151902 0.855952 0.003721
v -0.131467 0.854102 -0.010804
v -0.119005 0.854463 -0.004078
v -0.139060 0.854099 0.008901
v -0.144374 0.854225 0.022992
v -0.127243 0.854046 0.014720
v -0.134197 0.853792 0.029683
v -0.117315 0.854422 0.019929
v -0.108875 0.858462 0.024993
v -0.108003 0.854599 0.002440
v -0.125777 0.854259 0.035094
v -0.133989 0.854418 0.046890
v -0.118015 0.856875 0.038839
v -0.112196 0.866112 0.041652
v -0.111122 0.877967 0.043245
v -0.105451 0.867736 0.026165
v -0.100350 0.866097 0.011401
v -0.104305 0.878302 0.027603
v -0.098371 0.858187 0.009807
v -0.093096 0.863042 0.013165
v -0.089073 0.853868 0.007253
v -0.091312 0.871525 0.007464
v -0.084257 0.860388 0.015155
v -0.082865 0.870008 0.011769
v -0.081998 0.854195 0.007538
v -0.076974 0.857237 0.014341
v -0.069228 0.857306 0.010525
v -0.075985 0.865305 0.013391
v -0.076220 0.854518 0.008576
v -0.072204 0.856181 0.004262
v -0.071094 0.862374 0.002262
v -0.077788 0.856088 -0.000759
v -0.083203 0.856810 -0.004063
v -0.076184 0.864159 -0.002917
v -0.079115 0.870669 0.002568
v -0.083021 0.864654 -0.006666
v -0.086871 0.870819 -0.002786
v -0.073195 0.867862 0.006741
v -0.069203 0.864598 0.009277
v -0.067169 0.860575 0.006505
v -0.069729 0.861807 0.014241
v -0.087080 0.858063 -0.010095
v -0.098328 0.855045 -0.015038
v -0.108953 0.854672 -0.023242
v -0.111066 0.889466 0.046580
v -0.116797 0.887094 0.052657
v -0.138714 0.853330 0.054808
v -0.140326 0.855049 0.039158
v -0.142276 0.862292 0.043755
v -0.148959 0.856401 0.031747
v -0.151888 0.863138 0.036913
v -0.156911 0.856594 0.026620
v -0.160963 0.864754 0.028510
v -0.155678 0.856367 0.017625
v -0.140075 0.871167 0.046435
v -0.112874 0.874383 -0.075467
v -0.106619 0.875448 -0.087406
v -0.100615 0.876670 -0.096355
v -0.115774 0.912194 -0.066774
v -0.129086 0.911878 -0.042981
v -0.128121 0.904565 -0.038372
v -0.143401 0.901338 -0.019214
v -0.081838 0.912879 -0.023543
v -0.072105 0.908102 -0.017181
v -0.070362 0.913535 -0.043133
v -0.062990 0.914601 -0.057893
v -0.080811 0.914680 -0.049567
v -0.061962 0.908218 -0.037838
v -0.060351 0.896733 -0.036315
v -0.052692 0.909808 -0.051889
v -0.050776 0.896580 -0.050956
v -0.049064 0.910433 -0.063028
v -0.046209 0.895287 -0.061782
v -0.049919 0.881339 -0.063094
v -0.052373 0.883262 -0.051897
v -0.050602 0.870795 -0.064237
v -0.053143 0.872506 -0.053060
v -0.074402 0.915592 -0.064629
vn 0.0950 0.1541 0.9835
vn -0.1211 0.2419 0.9627
vn 0.4794 -0.5357 0.6951
vn 0.4362 -0.7109 0.5517
vn -0.9463 0.0942 0.3092
vn -0.5027 -0.8409 0.2004
vn -0.8196 0.1670 0.5481
vn 0.0553 -0.1891 0.9804
vn 0.5451 -0.4045 0.7343
vn -0.4404 0.0164 0.8976
vn 0.6153 -0.1242 0.7785
vn 0.0798 -0.0611 0.9949
vn -0.3869 -0.0091 0.9221
vn 0.1622 0.3358 0.9279
vn -0.2439 0.4221 0.8731
vn 0.6107 0.1164 0.7832
vn -0.5712 -0.0678 0.8180
vn -0.4881 -0.0224 0.8725
vn -0.3693 0.4217 0.8281
vn 0.0272 0.8835 0.4677
vn -0.1261 0.9018 0.4134
vn 0.4511 0.6794 0.5787
vn 0.6204 0.7160 0.3200
vn 0.1631 0.9757 0.1461
vn 0.0146 0.9974 0.0711
vn 0.0195 0.9997 0.0120
vn 0.1788 0.9788 0.1000
vn 0.6821 0.6449 0.3447
vn 0.8127 0.1782 0.5548
vn 0.9134 0.1386 0.3827
vn 0.9017 0.0156 0.4321
vn 0.1596 0.9557 0.2475
vn 0.6530 0.5459 0.5250
vn 0.8012 -0.0242 0.5979
vn 0.9283 -0.1092 0.3554
vn 0.8249 0.0925 0.5577
vn 0.7643 0.1016 0.6368
vn 0.6127 -0.0261 0.7898
vn 0.6249 0.0328 0.7800
vn 0.4823 0.5396 0.6901
vn 0.7416 0.0705 0.6672
vn 0.5647 0.5754 0.5916
vn 0.7524 -0.0312 0.6579
vn 0.6911 -0.0422 0.7215
vn 0.7489 -0.1685 0.6409
vn 0.7085 0.6496 0.2758
vn 0.8815 -0.1858 0.4342
vn 0.8852 -0.0472 0.4628
vn 0.8705 0.0660 0.4878
vn 0.6569 -0.5658 0.4984
vn 0.6919 -0.6450 0.3242
vn 0.8544 -0.4014 0.3300
vn 0.3954 -0.9178 -0.0350
vn 0.3232 -0.9325 0.1615
vn 0.2491 -0.9623 0.1094
vn 0.7036 -0.6676 0.2435
vn 0.2272 -0.9707 0.0779
vn 0.9215 -0.2176 0.3218
vn 0.0140 -0.9999 0.0034
vn 0.0050 -0.9999 -0.0155
vn 0.0940 -0.9946 -0.0447
vn 0.0497 -0.9946 -0.0912
vn -0.0206 -0.9997 -0.0151
vn -0.0130 -0.9994 -0.0328
vn 0.0530 -0.9866 -0.1541
vn 0.0876 -0.9741 -0.2086
vn 0.1887 -0.9811 -0.0437
vn 0.4381 -0.7451 -0.5029
vn 0.1322 -0.8766 -0.4627
vn 0.1333 -0.9632 -0.2335
vn 0.5286 -0.8485 0.0254
vn 0.6941 -0.7143 0.0894
vn 0.2199 -0.4380 -0.8717
vn 0.1722 -0.7340 -0.6570
vn 0.1701 -0.9219 -0.3481
vn 0.2288 -0.0422 -0.9726
vn 0.3189 -0.1529 -0.9354
vn 0.3834 -0.2469 -0.8899
vn 0.5782 0.2518 -0.7761
vn 0.3802 0.1635 -0.9104
vn 0.7129 0.4430 -0.5436
vn 0.8269 -0.2787 -0.4883
vn 0.8923 -0.4340 -0.1242
vn 0.7423 0.1607 -0.6505
vn 0.9633 -0.1442 -0.2265
vn 0.9013 -0.0493 -0.4304
vn 0.4781 0.1062 -0.8719
vn 0.6092 -0.0120 -0.7930
vn 0.8980 -0.0960 -0.4294
vn 0.4585 0.0772 -0.8854
vn 0.3757 0.5396 -0.7535
vn 0.5250 0.5120 -0.6798
vn 0.8428 0.3951 -0.3655
vn 0.2799 0.9493 -0.1433
vn 0.7666 0.6358 0.0902
vn 0.1530 0.9531 -0.2612
vn 0.1162 0.9446 -0.3070
vn 0.3346 0.5422 -0.7708
vn 0.4157 0.1042 -0.9035
vn 0.2771 0.5308 -0.8009
vn 0.1132 0.9356 -0.3345
vn 0.3370 0.1092 -0.9352
vn 0.0115 0.9998 -0.0142
vn 0.0397 0.9988 0.0300
vn 0.0042 0.9991 -0.0411
vn -0.0240 0.4381 -0.8986
vn -0.0801 0.8837 -0.4612
vn -0.1768 0.9770 -0.1193
vn -0.0421 0.9985 0.0359
vn -0.2126 0.9760 -0.0483
vn -0.0020 0.9987 0.0514
vn -0.3815 0.9184 0.1047
vn -0.1843 0.9704 0.1558
vn -0.0969 0.9820 0.1621
vn -0.7457 0.6560 -0.1162
vn -0.2756 0.9479 0.1600
vn -0.1602 0.9622 0.2200
vn -0.1127 0.9629 0.2450
vn -0.0484 0.9832 0.1758
vn 0.0326 0.9970 0.0701
vn -0.1698 0.9852 -0.0214
vn -0.0611 0.9947 0.0821
vn -0.0469 0.9922 0.1152
vn 0.0854 0.9158 0.3924
vn 0.1251 0.9440 0.3054
vn 0.0212 0.9998 -0.0044
vn -0.0017 0.9977 0.0671
vn -0.2805 0.9598 -0.0135
vn -0.1590 0.9827 -0.0955
vn -0.8359 0.5222 -0.1690
vn -0.6793 0.6363 -0.3656
vn -0.6131 0.7029 -0.3606
vn -0.8045 0.4288 0.4109
vn -0.4033 0.8758 0.2653
vn -0.1828 0.8969 0.4026
vn -0.4574 0.4043 0.7920
vn -0.5536 -0.0497 0.8313
vn -0.8817 -0.0469 0.4694
vn -0.5916 -0.1872 0.7842
vn -0.8706 -0.1826 0.4569
vn -0.9839 0.0210 -0.1776
vn -0.9872 -0.1080 -0.1176
vn -0.9105 -0.0128 -0.4133
vn -0.8830 0.1192 -0.4540
vn -0.8796 -0.3240 -0.3484
vn -0.9334 -0.3444 -0.1004
vn -0.8308 -0.3877 0.3993
vn -0.8333 0.2088 -0.5119
vn -0.8690 0.0515 -0.4922
vn -0.8347 -0.3026 -0.4601
vn -0.8212 0.2190 -0.5270
vn -0.8110 0.0763 -0.5801
vn -0.7722 -0.2571 -0.5810
vn -0.8523 0.0388 -0.5217
vn -0.8099 -0.2101 -0.5477
vn -0.8779 0.0902 -0.4702
vn -0.8666 -0.1959 -0.4589
vn -0.8959 -0.0090 -0.4442
vn -0.9033 0.0091 -0.4290
vn -0.9241 0.1425 -0.3546
vn -0.9069 0.0496 -0.4184
vn -0.8492 -0.0047 -0.5281
vn -0.8532 0.0084 -0.5215
vn -0.8705 0.0272 -0.4914
vn -0.5712 0.0473 -0.8195
vn -0.5465 0.0498 -0.8360
vn -0.5727 0.1910 -0.7972
vn -0.5713 0.5438 -0.6148
vn -0.7276 0.5691 -0.3831
vn -0.7291 0.6020 -0.3256
vn -0.0231 0.0965 -0.9951
vn 0.3669 0.0291 -0.9298
vn 0.0379 0.0660 -0.9971
vn 0.1238 0.0161 -0.9922
vn -0.5035 -0.0823 -0.8601
vn 0.3912 0.0206 -0.9201
vn 0.4030 0.0508 -0.9138
vn 0.3478 0.0617 -0.9355
vn 0.3778 0.1496 -0.9137
vn 0.3592 0.0766 -0.9301
vn 0.5498 -0.0689 -0.8325
vn 0.4471 0.3321 -0.8305
vn 0.0848 -0.1432 -0.9861
vn -0.0867 -0.6142 -0.7844
vn -0.2434 -0.4274 -0.8706
vn 0.6967 -0.5730 -0.4316
vn -0.0485 -0.9156 -0.3993
vn -0.3707 -0.5380 -0.7571
vn -0.1630 -0.9770 -0.1375
vn -0.6105 -0.6856 -0.3965
vn -0.1308 -0.9872 -0.0909
vn -0.5923 -0.7283 -0.3447
vn -0.0361 -0.9882 -0.1486
vn -0.4730 -0.7814 -0.4071
vn 0.0642 -0.9951 -0.0751
vn -0.0176 -0.9903 -0.1377
vn -0.4222 -0.8169 -0.3929
vn -0.4716 -0.8404 -0.2670
vn -0.0633 -0.9967 -0.0507
vn -0.4969 -0.8493 -0.1783
vn -0.0707 -0.9972 -0.0262
vn 0.0220 -0.9997 -0.0051
vn 0.0167 -0.9999 -0.0031
vn -0.5319 -0.8453 -0.0506
vn -0.1178 -0.9926 0.0303
vn -0.0438 -0.9985 0.0315
vn 0.1551 -0.9803 0.1221
vn 0.1680 -0.9826 0.0791
vn 0.1410 -0.9875 0.0710
vn 0.5152 -0.7902 0.3319
vn 0.6347 -0.7025 0.3219
vn 0.2173 -0.8458 0.4873
vn -0.1727 -0.9714 0.1627
vn -0.3719 -0.8722 0.3176
vn 0.8069 -0.3644 0.4650
vn 0.8945 -0.2187 0.3900
vn 0.8697 -0.1265 0.4771
vn 0.6560 -0.0512 0.7530
vn -0.1257 -0.0744 0.9893
vn 0.2851 0.7065 0.6477
vn -0.2280 -0.9457 0.2315
vn -0.0622 -0.9779 0.1994
vn -0.1445 -0.2168 0.9655
vn 0.0784 0.7759 0.6260
vn 0.2692 0.5148 0.8139
vn 0.0537 -0.5578 0.8282
vn 0.1146 -0.9782 0.1734
vn 0.7410 -0.5637 0.3650
vn 0.5120 -0.7815 -0.3567
vn 0.5721 0.1877 0.7984
vn 0.3622 -0.7375 -0.5701
vn 0.7816 0.1320 -0.6097
vn 0.6158 0.2171 -0.7574
vn 0.9621 -0.0367 -0.2703
vn 0.2228 -0.8061 -0.5483
vn 0.9019 0.0495 -0.4290
vn 0.5718 0.8204 -0.0027
vn 0.3968 0.8975 -0.1925
vn 0.7739 0.6137 0.1563
vn 0.1384 -0.9904 -0.0014
vn -0.6363 -0.3437 0.6906
vn -0.3782 -0.8487 0.3697
vn -0.5924 -0.4092 0.6940
vn -0.5624 -0.7836 0.2638
vn -0.8393 -0.1744 -0.5150
vn -0.8793 0.4733 0.0535
vn 0.6750 0.6089 0.4166
vn 0.2035 0.9649 0.1660
vn 0.6987 0.6084 0.3764
vn 0.1984 0.9712 0.1321
vn 0.8993 0.0258 0.4367
vn 0.9892 -0.0629 0.1325
vn 0.9886 -0.1480 0.0285
vn 0.9180 -0.1132 0.3802
vn 0.9774 -0.2061 0.0459
vt 0.218181 0.861714
vt 0.219325 0.859990
vt 0.220172 0.860677
vt 0.223172 0.864032
vt 0.218767 0.859075
vt 0.220129 0.858952
vt 0.216368 0.857239
vt 0.217663 0.866228
vt 0.220187 0.869264
vt 0.214819 0.863466
vt 0.215767 0.873250
vt 0.213921 0.869943
vt 0.211166 0.866597
vt 0.209277 0.872912
vt 0.206733 0.870310
vt 0.211721 0.875437
vt 0.211206 0.859794
vt 0.207223 0.862937
vt 0.202757 0.867264
vt 0.202730 0.875251
vt 0.198571 0.871783
vt 0.206449 0.877846
vt 0.203214 0.884406
vt 0.198830 0.881082
vt 0.194494 0.877214
vt 0.190365 0.883586
vt 0.195000 0.887503
vt 0.198807 0.891458
vt 0.211146 0.880107
vt 0.207986 0.885558
vt 0.531123 0.786349
vt 0.522297 0.787019
vt 0.523133 0.782933
vt 0.530765 0.783013
vt 0.191335 0.895152
vt 0.195063 0.898351
vt 0.514385 0.787343
vt 0.514842 0.782265
vt 0.532415 0.790533
vt 0.522920 0.792212
vt 0.516040 0.793079
vt 0.510670 0.794605
vt 0.507820 0.788919
vt 0.507200 0.783003
vt 0.501282 0.791279
vt 0.498884 0.784977
vt 0.503278 0.797084
vt 0.512563 0.798879
vt 0.505082 0.802316
vt 0.518029 0.797752
vt 0.493464 0.806866
vt 0.492498 0.800950
vt 0.490056 0.794441
vt 0.506658 0.807269
vt 0.495088 0.811500
vt 0.513481 0.802960
vt 0.514593 0.805844
vt 0.507852 0.811018
vt 0.169520 0.088365
vt 0.169613 0.084649
vt 0.179460 0.084418
vt 0.179598 0.088344
vt 0.188274 0.086410
vt 0.187170 0.082882
vt 0.190721 0.089975
vt 0.182773 0.093335
vt 0.179844 0.079726
vt 0.187557 0.078082
vt 0.169373 0.079471
vt 0.170955 0.072571
vt 0.180893 0.072786
vt 0.188327 0.072154
vt 0.192899 0.076451
vt 0.194377 0.071104
vt 0.192602 0.080816
vt 0.199942 0.069531
vt 0.197749 0.074439
vt 0.196277 0.078752
vt 0.197487 0.082506
vt 0.193686 0.084810
vt 0.200668 0.073476
vt 0.199750 0.077449
vt 0.199542 0.080507
vt 0.204500 0.072809
vt 0.203510 0.076380
vt 0.201043 0.079300
vt 0.206551 0.077909
vt 0.208063 0.071138
vt 0.202960 0.079554
vt 0.201827 0.079952
vt 0.201326 0.081567
vt 0.208771 0.080262
vt 0.198684 0.085300
vt 0.203860 0.085716
vt 0.212081 0.069978
vt 0.214155 0.082932
vt 0.211112 0.087113
vt 0.458905 0.787000
vt 0.461894 0.794534
vt 0.454019 0.796885
vt 0.453288 0.790382
vt 0.462986 0.781765
vt 0.466529 0.788664
vt 0.469350 0.793074
vt 0.468841 0.799940
vt 0.471047 0.785740
vt 0.473561 0.791387
vt 0.468797 0.779324
vt 0.467357 0.772985
vt 0.461720 0.775461
vt 0.455871 0.780054
vt 0.460517 0.769958
vt 0.466375 0.768057
vt 0.454159 0.775165
vt 0.473681 0.771165
vt 0.475194 0.777795
vt 0.472478 0.765715
vt 0.460694 0.765880
vt 0.466060 0.763714
vt 0.471569 0.761608
vt 0.480532 0.763157
vt 0.478737 0.759075
vt 0.482443 0.768644
vt 0.486060 0.755708
vt 0.488638 0.758550
vt 0.493436 0.765476
vt 0.488443 0.751507
vt 0.490730 0.752785
vt 0.168083 0.901012
vt 0.170722 0.893740
vt 0.176603 0.896583
vt 0.172713 0.903876
vt 0.501393 0.765942
vt 0.504171 0.772181
vt 0.494813 0.772752
vt 0.484010 0.776075
vt 0.175090 0.884010
vt 0.180663 0.887488
vt 0.186576 0.891693
vt 0.183476 0.900235
vt 0.506385 0.777287
vt 0.497270 0.778823
vt 0.187626 0.902270
vt 0.184888 0.878951
vt 0.513492 0.777648
vt 0.189392 0.872393
vt 0.184926 0.867954
vt 0.179589 0.874592
vt 0.182169 0.863104
vt 0.176169 0.869862
vt 0.170260 0.880718
vt 0.189642 0.860132
vt 0.188949 0.864154
vt 0.193608 0.867441
vt 0.197285 0.863357
vt 0.200978 0.859539
vt 0.193497 0.856031
vt 0.204527 0.855490
vt 0.197377 0.852620
vt 0.124112 0.033195
vt 0.132531 0.030241
vt 0.131399 0.035923
vt 0.122360 0.038929
vt 0.122821 0.044847
vt 0.130866 0.041763
vt 0.139864 0.041435
vt 0.141016 0.035455
vt 0.141923 0.030126
vt 0.138948 0.048297
vt 0.131075 0.048332
vt 0.125771 0.051190
vt 0.152939 0.037712
vt 0.151625 0.043743
vt 0.150678 0.050343
vt 0.165722 0.039886
vt 0.164664 0.046228
vt 0.163623 0.052515
vt 0.175228 0.046293
vt 0.174742 0.053077
vt 0.175751 0.040095
vt 0.183815 0.052958
vt 0.184877 0.046705
vt 0.185430 0.041251
vt 0.176182 0.035506
vt 0.185557 0.037446
vt 0.167335 0.033444
vt 0.191863 0.047585
vt 0.192712 0.042908
vt 0.193378 0.039108
vt 0.198401 0.043919
vt 0.197376 0.048774
vt 0.198964 0.039611
vt 0.197795 0.037341
vt 0.194440 0.035986
vt 0.186685 0.034301
vt 0.203788 0.040967
vt 0.202916 0.046007
vt 0.465523 0.760299
vt 0.461662 0.761088
vt 0.470285 0.758051
vt 0.207448 0.048662
vt 0.208565 0.041655
vt 0.206181 0.054450
vt 0.202026 0.050479
vt 0.200596 0.056118
vt 0.196603 0.054051
vt 0.204293 0.058414
vt 0.451190 0.784391
vt 0.449390 0.779006
vt 0.208182 0.061055
vt 0.206769 0.064957
vt 0.202886 0.061611
vt 0.204271 0.066789
vt 0.201869 0.069022
vt 0.201563 0.064688
vt 0.199567 0.060878
vt 0.197818 0.065686
vt 0.199803 0.065927
vt 0.200002 0.066850
vt 0.194345 0.065841
vt 0.194884 0.059802
vt 0.189035 0.065741
vt 0.189430 0.059382
vt 0.182027 0.065913
vt 0.182668 0.059199
vt 0.172586 0.065840
vt 0.173949 0.059487
vt 0.159956 0.072272
vt 0.161057 0.065279
vt 0.162465 0.058760
vt 0.149958 0.056720
vt 0.149272 0.063749
vt 0.138850 0.055630
vt 0.138799 0.063506
vt 0.148978 0.071019
vt 0.138565 0.070814
vt 0.131945 0.055573
vt 0.131507 0.062593
vt 0.130592 0.069138
vt 0.129732 0.074471
vt 0.138384 0.076344
vt 0.148203 0.077383
vt 0.129771 0.078778
vt 0.137851 0.081771
vt 0.146358 0.083449
vt 0.123098 0.071306
vt 0.125232 0.066804
vt 0.228558 0.868972
vt 0.222277 0.856861
vt 0.229029 0.865500
vt 0.223399 0.875739
vt 0.536593 0.798090
vt 0.534545 0.794054
vt 0.541782 0.794072
vt 0.545152 0.796607
vt 0.217362 0.878946
vt 0.539935 0.790519
vt 0.529327 0.797346
vt 0.527490 0.795243
vt 0.539018 0.786757
vt 0.526781 0.798194
vt 0.522256 0.796962
vt 0.531553 0.800747
vt 0.145645 0.091419
vt 0.149094 0.087633
vt 0.150588 0.090559
vt 0.148321 0.093666
vt 0.527758 0.801151
vt 0.523340 0.801334
vt 0.526241 0.803629
vt 0.529427 0.803893
vt 0.151345 0.093238
vt 0.148891 0.095436
vt 0.151175 0.095639
vt 0.152673 0.093648
vt 0.150397 0.097424
vt 0.149228 0.100089
vt 0.154032 0.090583
vt 0.154005 0.094365
vt 0.155709 0.092276
vt 0.152515 0.096013
vt 0.154827 0.087969
vt 0.157564 0.088738
vt 0.154180 0.097504
vt 0.157059 0.094766
vt 0.158948 0.092458
vt 0.515505 0.802891
vt 0.157973 0.085415
vt 0.158674 0.088675
vt 0.519817 0.801144
vt 0.155600 0.100372
vt 0.151928 0.097505
vt 0.158345 0.078879
vt 0.121123 0.065233
vt 0.119264 0.069700
vt 0.126559 0.060904
vt 0.122288 0.058872
vt 0.127737 0.056160
vt 0.118713 0.053466
vt 0.213863 0.855848
vt 0.208193 0.851825
vt 0.190847 0.053331
vt 0.477870 0.755945
vt 0.176161 0.030819
vt 0.486578 0.751503
vt 0.487632 0.744900
vt 0.165779 0.891773
vt 0.154285 0.031591
vt 0.487849 0.788400
vt 0.486339 0.782319
vt 0.479420 0.790855
vt 0.477459 0.784345
vt 0.481180 0.797670
vt 0.474713 0.799315
vt 0.476111 0.806717
vt 0.471183 0.808657
vt 0.482421 0.804365
vt 0.483247 0.809920
vt 0.476948 0.813254
vt 0.200276 0.090090
vt 0.195332 0.087982
s 1
usemtl abyss_chancel_background_pbr
f 4/1/1 1/2/2 2/3/3 5/4/4
f 1/2/2 3/5/5 224/6/6 2/3/3
f 4/1/1 6/7/7 3/5/5 1/2/2
f 7/8/8 4/1/1 5/4/4 8/9/9
f 7/8/8 9/10/10 6/7/7 4/1/1
f 12/11/11 10/12/12 7/8/8 8/9/9
f 7/8/8 10/12/12 13/13/13 9/10/10
f 10/12/12 11/14/14 15/15/15 13/13/13
f 10/12/12 12/11/11 223/16/16 11/14/14
f 232/17/17 9/10/10 13/13/13 14/18/18
f 14/18/18 13/13/13 15/15/15 16/19/19
f 15/15/15 17/20/20 19/21/21 16/19/19
f 11/14/14 18/22/22 17/20/20 15/15/15
f 18/22/22 23/23/23 20/24/24 17/20/20
f 20/24/24 21/25/25 19/21/21 17/20/20
f 103/26/26 21/25/25 20/24/24 22/27/27
f 25/28/28 22/27/27 20/24/24 23/23/23
f 222/29/29 24/30/30 23/23/23 18/22/22
f 24/31/30 27/32/31 25/33/28 23/34/23
f 104/35/32 22/27/27 25/28/28 26/36/33
f 29/37/34 26/38/33 25/33/28 27/32/31
f 24/31/30 195/39/35 28/40/36 27/32/31
f 29/37/34 27/32/31 28/40/36 30/41/37
f 30/41/37 34/42/38 31/43/39 29/37/34
f 29/37/34 31/43/39 32/44/40 26/38/33
f 33/45/41 241/46/42 32/44/40 31/43/39
f 34/42/38 36/47/43 33/45/41 31/43/39
f 34/42/38 35/48/44 38/49/45 36/47/43
f 34/42/38 30/41/37 214/50/46 35/48/44
f 38/49/45 39/51/47 37/52/48 36/47/43
f 37/52/48 246/53/49 33/45/41 36/47/43
f 38/49/45 40/54/50 43/55/51 39/51/47
f 41/56/52 40/54/50 38/49/45 35/48/44
f 40/54/50 41/56/52 219/57/53 42/58/54
f 40/59/50 42/60/54 45/61/55 43/62/51
f 44/63/56 43/62/51 45/61/55 46/64/57
f 43/62/51 44/63/56 254/65/58 39/66/47
f 46/64/57 45/61/55 47/67/59 50/68/60
f 42/60/54 48/69/61 47/67/59 45/61/55
f 47/67/59 48/69/61 173/70/62 49/71/63
f 51/72/64 50/68/60 47/67/59 49/71/63
f 52/73/65 50/68/60 51/72/64 53/74/66
f 55/75/67 46/64/57 50/68/60 52/73/65
f 52/73/65 53/74/66 165/76/68 54/77/69
f 52/73/65 54/77/69 57/78/70 55/75/67
f 57/78/70 58/79/71 56/80/72 55/75/67
f 46/64/57 55/75/67 56/80/72 44/63/56
f 60/81/73 59/82/74 57/78/70 54/77/69
f 61/83/75 58/79/71 57/78/70 59/82/74
f 63/84/76 62/85/77 59/82/74 60/81/73
f 65/86/78 61/83/75 59/82/74 62/85/77
f 64/87/79 62/85/77 63/84/76 157/88/80
f 67/89/81 65/86/78 62/85/77 64/87/79
f 65/86/78 66/90/82 68/91/83 61/83/75
f 67/89/81 66/90/82 65/86/78
f 64/87/79 70/92/84 68/91/83 67/89/81
f 66/90/82 67/89/81 68/91/83
f 58/79/71 61/83/75 68/91/83 69/93/85
f 71/94/86 69/93/85 68/91/83 70/92/84
f 157/88/80 72/95/87 70/92/84 64/87/79
f 70/92/84 73/96/88 75/97/89 71/94/86
f 74/98/90 73/99/88 70/100/84 72/101/87
f 73/99/88 74/98/90 79/102/91 76/103/92
f 73/99/88 76/103/92 77/104/93 75/105/89
f 78/106/94 249/107/95 77/104/93 76/103/92
f 78/106/94 76/103/92 79/102/91 80/108/96
f 84/109/97 80/108/96 79/102/91 81/110/98
f 79/102/91 74/98/90 83/111/99 81/110/98
f 82/112/100 86/113/101 84/109/97 81/110/98
f 82/112/100 81/110/98 83/111/99 148/114/102
f 85/115/103 255/116/104 80/108/96 84/109/97
f 84/109/97 86/113/101 88/117/105 85/115/103
f 86/113/101 82/112/100 145/118/106 87/119/107
f 86/113/101 87/119/107 89/120/108 88/117/105
f 90/121/109 88/117/105 89/120/108 91/122/110
f 92/123/111 85/115/103 88/117/105 90/121/109
f 94/124/112 93/125/113 90/121/109 91/122/110
f 96/126/114 92/123/111 90/121/109 93/125/113
f 93/125/113 94/124/112 238/127/115 95/128/116
f 93/129/113 95/130/116 98/131/117 96/132/114
f 98/133/117 100/134/118 97/135/119 96/126/114
f 92/123/111 96/126/114 97/135/119 244/136/120
f 109/137/121 99/138/122 98/131/117 95/130/116
f 102/139/123 100/140/118 98/131/117 99/138/122
f 101/141/124 240/142/125 97/135/119 100/134/118
f 100/140/118 102/139/123 104/35/32 101/143/124
f 103/26/26 102/139/123 99/138/122 105/144/126
f 103/26/26 22/27/27 104/35/32 102/139/123
f 32/44/40 101/141/124 104/145/32 26/38/33
f 21/25/25 103/26/26 105/144/126 106/146/127
f 110/147/128 106/146/127 105/144/126 107/148/129
f 107/148/129 105/144/126 99/138/122 109/137/121
f 111/149/130 110/147/128 107/148/129 108/150/131
f 239/151/132 108/150/131 107/148/129 109/137/121
f 111/149/130 113/152/133 112/153/134 110/147/128
f 106/146/127 110/147/128 112/153/134 114/154/135
f 115/155/136 114/154/135 112/153/134 113/152/133
f 106/146/127 114/154/135 19/21/21 21/25/25
f 19/21/21 114/154/135 115/155/136 16/19/19
f 14/18/18 16/19/19 115/155/136 116/156/137
f 118/157/138 116/156/137 115/155/136 113/152/133
f 14/18/18 116/156/137 117/158/139 232/17/17
f 116/156/137 118/157/138 119/159/140 117/158/139
f 113/160/133 111/161/130 120/162/141 118/163/138
f 119/164/140 118/163/138 120/162/141 122/165/142
f 124/166/143 122/165/142 120/162/141 121/167/144
f 120/162/141 111/161/130 108/168/131 121/167/144
f 125/169/145 123/170/146 122/165/142 124/166/143
f 123/170/146 230/171/147 119/164/140 122/165/142
f 121/167/144 127/172/148 126/173/149 124/166/143
f 126/173/149 128/174/150 125/169/145 124/166/143
f 131/175/151 129/176/152 126/173/149 127/172/148
f 130/177/153 128/174/150 126/173/149 129/176/152
f 132/178/154 133/179/155 130/177/153 129/176/152
f 131/175/151 135/180/156 132/178/154 129/176/152
f 233/181/157 133/179/155 132/178/154 134/182/158
f 137/183/159 134/182/158 132/178/154 135/180/156
f 136/184/160 138/185/161 137/183/159 135/180/156
f 135/180/156 131/175/151 238/186/115 136/184/160
f 140/187/162 134/182/158 137/183/159 139/188/163
f 142/189/164 139/188/163 137/183/159 138/185/161
f 141/190/165 150/191/166 140/187/162 139/188/163
f 141/190/165 139/188/163 142/189/164 144/192/167
f 146/193/168 144/192/167 142/189/164 143/194/169
f 236/195/170 143/194/169 142/189/164 138/185/161
f 141/190/165 144/192/167 145/196/106 147/197/171
f 146/198/168 87/119/107 145/118/106 144/199/167
f 87/119/107 146/198/168 143/200/169 89/120/108
f 148/201/102 147/197/171 145/196/106 82/202/100
f 148/201/102 152/203/172 149/204/173 147/197/171
f 141/190/165 147/197/171 149/204/173 150/191/166
f 149/204/173 151/205/174 235/206/175 150/191/166
f 153/207/176 151/205/174 149/204/173 152/203/172
f 148/114/102 83/111/99 154/208/177 152/209/172
f 152/203/172 154/210/177 155/211/178 153/207/176
f 72/95/87 157/88/80 155/211/178 154/210/177
f 74/98/90 72/101/87 154/208/177 83/111/99
f 159/212/179 153/207/176 155/211/178 156/213/180
f 155/211/178 157/88/80 63/84/76 156/213/180
f 158/214/181 156/213/180 63/84/76 60/81/73
f 156/213/180 158/214/181 161/215/182 159/212/179
f 159/212/179 160/216/183 151/205/174 153/207/176
f 160/216/183 159/212/179 161/215/182 162/217/184
f 161/215/182 164/218/185 162/217/184
f 161/215/182 163/219/186 164/218/185
f 165/76/68 163/219/186 161/215/182 158/214/181
f 163/219/186 165/76/68 162/217/184 164/218/185
f 53/74/66 166/220/187 162/217/184 165/76/68
f 60/81/73 54/77/69 165/76/68 158/214/181
f 167/221/188 160/216/183 162/217/184 166/220/187
f 167/221/188 166/220/187 168/222/189 169/223/190
f 166/220/187 53/74/66 51/72/64 168/222/189
f 168/222/189 170/224/191 171/225/192 169/223/190
f 170/224/191 168/222/189 51/72/64 49/71/63
f 172/226/193 175/227/194 171/225/192 170/224/191
f 49/71/63 173/70/62 172/226/193 170/224/191
f 221/228/195 174/229/196 172/226/193 173/70/62
f 176/230/197 175/227/194 172/226/193 174/229/196
f 133/179/155 233/181/157 171/225/192 175/227/194
f 175/227/194 176/230/197 130/177/153 133/179/155
f 177/231/198 176/230/197 174/229/196 179/232/199
f 177/231/198 128/174/150 130/177/153 176/230/197
f 177/231/198 178/233/200 125/169/145 128/174/150
f 178/233/200 177/231/198 179/232/199 181/234/201
f 180/235/202 179/232/199 174/229/196 221/228/195
f 183/236/203 181/234/201 179/232/199 180/235/202
f 231/237/204 178/233/200 181/234/201 182/238/205
f 184/239/206 182/238/205 181/234/201 183/236/203
f 188/240/207 184/239/206 183/236/203 185/241/208
f 187/242/209 185/241/208 183/236/203 180/235/202
f 190/243/210 188/240/207 185/241/208 186/244/211
f 185/241/208 187/242/209 196/245/212 186/244/211
f 184/239/206 188/240/207 189/246/213 225/247/214
f 190/248/210 5/4/4 189/249/213 188/250/207
f 191/251/215 8/9/9 5/4/4 190/248/210
f 186/252/211 193/253/216 191/254/215 190/255/210
f 12/11/11 8/9/9 191/251/215 192/256/217
f 195/39/35 192/257/217 191/254/215 193/253/216
f 193/253/216 186/252/211 196/258/212 194/259/218
f 193/253/216 194/259/218 28/40/36 195/39/35
f 24/31/30 222/260/29 192/257/217 195/39/35
f 197/261/219 199/262/220 28/40/36 194/259/218
f 197/261/219 194/259/218 196/258/212 198/263/221
f 197/264/219 198/265/221 202/266/222 200/267/223
f 199/262/220 197/261/219 200/268/223 201/269/224
f 205/270/225 201/269/224 200/268/223 203/271/226
f 200/267/223 202/266/222 206/272/227 203/273/226
f 204/274/228 203/273/226 206/272/227 207/275/229
f 203/273/226 204/274/228 218/276/230 205/277/225
f 209/278/231 207/275/229 206/272/227 202/266/222
f 208/279/232 207/275/229 209/278/231 211/280/233
f 207/275/229 208/279/232 217/281/234 204/274/228
f 198/265/221 210/282/235 209/278/231 202/266/222
f 213/283/236 211/280/233 209/278/231 210/282/235
f 215/284/237 208/279/232 211/280/233 212/285/238
f 211/280/233 213/283/236 214/286/46 212/285/238
f 41/56/52 35/48/44 214/50/46 213/287/236
f 213/283/236 210/282/235 219/288/53 41/289/52
f 201/269/224 212/290/238 214/50/46 199/262/220
f 28/40/36 199/262/220 214/50/46 30/41/37
f 215/284/237 212/285/238 201/291/224 205/277/225
f 215/284/237 216/292/239 217/281/234 208/279/232
f 205/277/225 218/276/230 216/292/239 215/284/237
f 218/276/230 204/274/228 217/281/234 216/292/239
f 198/265/221 196/245/212 219/288/53 210/282/235
f 187/242/209 220/293/240 219/288/53 196/245/212
f 48/69/61 42/60/54 219/288/53 220/293/240
f 48/69/61 220/293/240 221/228/195 173/70/62
f 220/293/240 187/242/209 180/235/202 221/228/195
f 192/256/217 222/29/29 223/16/16 12/11/11
f 18/22/22 11/14/14 223/16/16 222/29/29
f 6/7/7 189/249/213 224/6/6 3/5/5
f 5/4/4 2/3/3 224/6/6 189/249/213
f 226/294/241 225/247/214 189/246/213 6/295/7
f 225/247/214 227/296/242 182/238/205 184/239/206
f 225/247/214 226/294/241 228/297/243 227/296/242
f 182/238/205 227/296/242 229/298/244 231/237/204
f 228/297/243 230/171/147 229/298/244 227/296/242
f 123/170/146 231/237/204 229/298/244 230/171/147
f 231/237/204 123/170/146 125/169/145 178/233/200
f 228/297/243 117/299/139 119/164/140 230/171/147
f 226/300/241 232/17/17 117/158/139 228/301/243
f 232/17/17 226/300/241 6/7/7 9/10/10
f 171/225/192 233/181/157 234/302/245 169/223/190
f 233/181/157 134/182/158 140/187/162 234/302/245
f 167/221/188 169/223/190 234/302/245 235/206/175
f 235/206/175 234/302/245 140/187/162 150/191/166
f 160/216/183 167/221/188 235/206/175 151/205/174
f 91/122/110 89/120/108 143/200/169 236/303/170
f 138/185/161 136/184/160 237/304/246 236/195/170
f 91/122/110 236/303/170 237/305/246 94/124/112
f 238/127/115 94/124/112 237/305/246 136/306/160
f 109/137/121 95/130/116 238/307/115 239/151/132
f 238/186/115 131/175/151 127/172/148 239/308/132
f 127/172/148 121/167/144 108/168/131 239/308/132
f 240/142/125 101/141/124 32/44/40 241/46/42
f 241/46/42 245/309/247 242/310/248 240/142/125
f 97/135/119 240/142/125 242/310/248 244/136/120
f 245/309/247 247/311/249 243/312/250 242/310/248
f 244/136/120 242/310/248 243/312/250 255/116/104
f 245/309/247 241/46/42 33/45/41 246/53/49
f 246/53/49 248/313/251 247/311/249 245/309/247
f 250/314/252 249/107/95 247/311/249 248/313/251
f 249/107/95 78/106/94 243/312/250 247/311/249
f 250/314/252 75/105/89 77/104/93 249/107/95
f 75/105/89 250/314/252 251/315/253 71/316/86
f 248/313/251 252/317/254 251/315/253 250/314/252
f 251/315/253 252/317/254 254/318/58 253/319/255
f 69/93/85 71/94/86 251/320/253 253/321/255
f 69/93/85 253/321/255 56/80/72 58/79/71
f 56/80/72 253/321/255 254/65/58 44/63/56
f 254/318/58 252/317/254 37/52/48 39/51/47
f 248/313/251 246/53/49 37/52/48 252/317/254
f 255/116/104 85/115/103 92/123/111 244/136/120
f 243/312/250 78/106/94 80/108/96 255/116/104
