# Blender 5.2.0 LTS
# www.blender.org
mtllib terrain-abyss-chancel-object-021.mtl
o terrain-abyss-chancel-object-021
v -0.801194 0.188843 0.066623
v -0.799448 0.190227 0.069754
v -0.797939 0.190002 0.064344
v -0.803855 0.189850 0.063674
v -0.804682 0.188142 0.069193
v -0.803438 0.190045 0.072301
v -0.807823 0.188331 0.071464
v -0.806863 0.189525 0.066608
v -0.809819 0.190002 0.069867
v -0.808353 0.192583 0.065198
v -0.805362 0.193261 0.062738
v -0.806912 0.195783 0.066167
v -0.810281 0.192183 0.068372
v -0.808484 0.194251 0.069714
v -0.808867 0.191967 0.072636
v -0.805593 0.194999 0.069936
v -0.803783 0.195610 0.067653
v -0.804449 0.193396 0.071949
v -0.800556 0.193861 0.069653
v -0.797614 0.193764 0.066297
v -0.796874 0.190586 0.066904
v -0.796027 0.192780 0.063544
v -0.801732 0.195590 0.064876
v -0.800957 0.193739 0.061986
v -0.804915 0.195825 0.064230
v -0.801176 0.190926 0.061954
v -0.807733 0.189750 0.073102
vn 0.1716 -0.9824 -0.0741
vn 0.6337 -0.4253 0.6461
vn 0.3849 -0.3811 0.8406
vn 0.0256 -0.9980 0.0576
vn 0.5871 -0.7195 -0.3709
vn 0.8315 -0.4020 0.3834
vn -0.2427 -0.7163 -0.6542
vn 0.0434 -0.5192 -0.8535
vn -0.4380 -0.7646 -0.4728
vn -0.2422 -0.4024 0.8828
vn -0.3397 -0.8925 0.2967
vn -0.8864 -0.4629 0.0015
vn -0.4534 0.1400 -0.8802
vn -0.7893 0.0033 -0.6140
vn -0.9768 0.0780 -0.1993
vn -0.4633 0.8659 -0.1888
vn -0.2165 0.8605 -0.4611
vn -0.6037 0.7454 0.2827
vn -0.5635 0.2545 0.7860
vn -0.0457 0.8884 0.4567
vn 0.1166 0.9590 0.2582
vn 0.1839 0.5557 0.8108
vn 0.4949 0.6124 0.6165
vn 0.7499 0.6273 0.2104
vn 0.2066 0.9584 -0.1970
vn 0.8430 0.2273 -0.4876
vn 0.1608 0.3825 -0.9098
vt 0.334562 0.981227
vt 0.332475 0.979522
vt 0.333207 0.977685
vt 0.334852 0.978014
vt 0.331877 0.982530
vt 0.331799 0.980998
vt 0.119011 0.030996
vt 0.120133 0.029324
vt 0.121205 0.030683
vt 0.120164 0.032352
vt 0.336658 0.976481
vt 0.336725 0.979396
vt 0.333548 0.975948
vt 0.334487 0.976182
vt 0.334653 0.974882
vt 0.121921 0.028506
vt 0.119717 0.027205
vt 0.121615 0.026606
vt 0.334852 0.973579
vt 0.336754 0.974739
vt 0.123426 0.026657
vt 0.123332 0.028127
vt 0.121926 0.024793
vt 0.123515 0.024743
vt 0.333015 0.974880
vt 0.332216 0.973623
vt 0.328778 0.975119
vt 0.330449 0.975739
vt 0.329069 0.977060
vt 0.331645 0.976572
vt 0.330773 0.978276
vt 0.329896 0.979869
vt 0.327443 0.979730
vt 0.330075 0.981223
vt 0.327758 0.982216
vt 0.122811 0.030457
vt 0.124311 0.029538
vt 0.124880 0.027802
vt 0.330723 0.983118
s 1
usemtl abyss_chancel_background_pbr
f 1/1/1 2/2/2 6/3/3 5/4/4
f 1/1/1 3/5/5 21/6/6 2/2/2
f 1/7/1 4/8/7 26/9/8 3/10/5
f 1/1/1 5/4/4 8/11/9 4/12/7
f 6/3/3 27/13/10 7/14/11 5/4/4
f 8/11/9 5/4/4 7/14/11 9/15/12
f 11/16/13 4/8/7 8/17/9 10/18/14
f 8/11/9 9/15/12 13/19/15 10/20/14
f 10/18/14 12/21/16 25/22/17 11/16/13
f 12/21/16 10/18/14 13/23/15 14/24/18
f 15/25/19 14/26/18 13/19/15 9/15/12
f 12/27/16 14/26/18 16/28/20 17/29/21
f 15/25/19 18/30/22 16/28/20 14/26/18
f 19/31/23 17/29/21 16/28/20 18/30/22
f 2/2/2 19/31/23 18/30/22 6/3/3
f 18/30/22 15/25/19 27/13/10 6/3/3
f 20/32/24 23/33/25 17/29/21 19/31/23
f 19/31/23 2/2/2 21/6/6 20/32/24
f 22/34/26 20/32/24 21/6/6 3/5/5
f 23/33/25 20/32/24 22/34/26 24/35/27
f 24/36/27 11/16/13 25/22/17 23/37/25
f 17/38/21 23/37/25 25/22/17 12/21/16
f 11/16/13 24/36/27 26/9/8 4/8/7
f 26/39/8 24/35/27 22/34/26 3/5/5
f 15/25/19 9/15/12 7/14/11 27/13/10
