# Blender 5.2.0 LTS
# www.blender.org
mtllib terrain-abyss-chancel-object-008.mtl
o terrain-abyss-chancel-object-008
v -0.790194 0.428930 0.093690
v -0.786209 0.428332 0.095246
v -0.793289 0.430203 0.098399
v -0.796021 0.421764 0.091701
v -0.791235 0.419815 0.090278
v -0.799082 0.421433 0.096395
v -0.804435 0.417414 0.087653
v -0.807353 0.413509 0.095445
v -0.799495 0.411816 0.084533
v -0.816540 0.415799 0.084706
v -0.818544 0.411779 0.091001
v -0.814973 0.411892 0.080722
v -0.829380 0.415504 0.081699
v -0.845346 0.417857 0.077690
v -0.831125 0.412802 0.086786
v -0.828636 0.413505 0.078109
v -0.844827 0.416431 0.074357
v -0.829661 0.408098 0.078575
v -0.831189 0.406628 0.083307
v -0.816061 0.405233 0.080727
v -0.845992 0.411820 0.075203
v -0.863086 0.414872 0.070607
v -0.847278 0.410331 0.079326
v -0.847878 0.412557 0.083337
v -0.864742 0.412756 0.074836
v -0.877428 0.415947 0.071408
v -0.865141 0.415863 0.079045
v -0.877832 0.418256 0.075945
v -0.864051 0.419235 0.077517
v -0.876515 0.422474 0.074083
v -0.862331 0.421582 0.072796
v -0.847002 0.415489 0.082193
v -0.874553 0.425109 0.069446
v -0.861652 0.419916 0.069538
v -0.874031 0.423248 0.065639
v -0.875869 0.417926 0.066701
v -0.883117 0.426260 0.062375
v -0.890851 0.429397 0.059392
v -0.883816 0.428172 0.066683
v -0.885353 0.420433 0.063196
v -0.893720 0.422572 0.060237
v -0.887329 0.417504 0.069261
v -0.887076 0.420072 0.074993
v -0.897354 0.419106 0.067674
v -0.894749 0.421360 0.075662
v -0.903894 0.419309 0.072104
v -0.904342 0.423843 0.063345
v -0.904269 0.428727 0.068220
v -0.901574 0.425293 0.057856
v -0.907460 0.422211 0.070210
v -0.908184 0.426071 0.072760
v -0.911301 0.420711 0.075425
v -0.910722 0.421317 0.078882
v -0.908289 0.419503 0.075316
v -0.912055 0.424121 0.075877
v -0.911562 0.423180 0.078211
v -0.906876 0.425824 0.077256
v -0.906694 0.421519 0.078954
v -0.900878 0.427267 0.074605
v -0.900467 0.421596 0.076525
v -0.893955 0.428616 0.070873
v -0.899262 0.431599 0.067383
v -0.891242 0.431839 0.064858
v -0.885503 0.425622 0.072009
v -0.898894 0.434186 0.063598
v -0.904868 0.430576 0.064077
v -0.897002 0.430998 0.057207
v -0.832017 0.409164 0.087973
v -0.819222 0.405973 0.092246
v -0.808353 0.402514 0.095001
v -0.817921 0.402897 0.086459
v -0.805162 0.399601 0.088524
v -0.793206 0.399115 0.092733
v -0.801793 0.402524 0.081887
v -0.792545 0.401887 0.086740
v -0.789594 0.408104 0.089175
v -0.789877 0.406666 0.096850
v -0.788050 0.417055 0.094038
v -0.784981 0.424225 0.097016
v -0.789485 0.416308 0.099562
v -0.787290 0.425154 0.101322
v -0.795529 0.418210 0.100816
v -0.793192 0.427420 0.102215
v -0.798107 0.408440 0.100809
v -0.798245 0.399878 0.097591
v -0.787824 0.429313 0.100009
vn 0.4203 0.2638 -0.8682
vn -0.3025 0.6751 -0.6729
vn -0.0929 0.7471 -0.6582
vn 0.6893 0.6047 -0.3990
vn -0.4387 0.8747 0.2060
vn 0.4734 0.7671 0.4330
vn -0.7534 0.5907 0.2891
vn 0.2993 0.3326 -0.8943
vn -0.1824 0.8948 -0.4074
vn -0.4757 0.4672 0.7453
vn -0.0196 0.9903 -0.1372
vn -0.2629 0.5684 0.7796
vn 0.1747 0.3968 -0.9011
vn 0.0863 0.9963 -0.0041
vn -0.1504 0.6443 0.7499
vn 0.2200 0.4280 -0.8766
vn 0.2956 0.4340 -0.8510
vn 0.1673 0.9843 0.0564
vn -0.0715 0.6786 0.7310
vn 0.0102 -0.5376 -0.8432
vn 0.0149 -0.6149 -0.7885
vn 0.0638 -0.6429 -0.7633
vn -0.2605 -0.9652 -0.0230
vn -0.2523 -0.9674 0.0227
vn -0.2052 -0.9776 0.0476
vn -0.1982 -0.9794 0.0381
vn 0.0834 -0.6504 -0.7550
vn 0.3491 0.3934 -0.8505
vn -0.3601 -0.3449 0.8668
vn -0.3015 -0.2927 0.9075
vn -0.2824 -0.2607 0.9232
vn -0.2384 -0.2937 0.9257
vn -0.1894 -0.9819 -0.0001
vn 0.0906 -0.6468 -0.7573
vn -0.0324 0.6854 0.7275
vn 0.0262 0.6811 0.7317
vn 0.2248 0.9723 0.0644
vn 0.2784 0.9568 0.0838
vn 0.3974 0.3812 -0.8347
vn 0.1121 -0.6320 -0.7668
vn 0.4474 0.3753 -0.8118
vn 0.3567 0.9294 0.0949
vn 0.3374 0.9363 0.0970
vn 0.4200 0.4114 -0.8089
vn 0.0525 -0.6308 -0.7741
vn -0.1418 -0.9891 -0.0386
vn -0.1562 -0.9759 -0.1522
vn -0.1137 -0.3239 0.9392
vn 0.1156 -0.3419 0.9326
vn 0.3096 -0.4026 0.8614
vn -0.1277 -0.9898 -0.0627
vn -0.7196 -0.3748 -0.5846
vn -0.7512 -0.4829 -0.4499
vn -0.4810 -0.2800 -0.8308
vn -0.6677 0.7233 -0.1761
vn -0.6880 0.7182 0.1038
vn -0.8419 0.5200 -0.1443
vn -0.7646 -0.6153 -0.1918
vn -0.8780 0.4687 -0.0969
vn -0.1521 -0.9881 0.0223
vn -0.4600 -0.3881 0.7986
vn -0.7224 0.3212 0.6124
vn 0.1437 -0.3595 0.9220
vn -0.0537 0.7396 0.6709
vn 0.0731 0.7216 0.6885
vn 0.1385 0.7284 0.6710
vn -0.1255 0.8511 0.5098
vn -0.1763 0.9831 -0.0501
vn 0.1309 0.6868 0.7150
vn 0.0145 0.4829 -0.8755
vn -0.3844 -0.4282 0.8179
vn -0.3852 -0.5916 0.7083
vn -0.1398 -0.9838 -0.1125
vn 0.1928 -0.4800 -0.8558
vn 0.4864 -0.8569 0.1706
vn -0.0426 -0.7030 0.7099
vn 0.6217 -0.4985 -0.6041
vn 0.8720 -0.0851 -0.4820
vn 0.7848 -0.3411 0.5174
vn 0.9468 -0.1181 -0.2992
vn 0.6454 -0.2649 0.7165
vn 0.9960 -0.0695 -0.0555
vn 0.6262 0.0700 0.7765
vn -0.3010 0.2950 0.9068
vn -0.2439 0.0406 0.9690
vn -0.0802 -0.1436 0.9864
vt 0.218717 0.044873
vt 0.220283 0.046921
vt 0.215912 0.048791
vt 0.214565 0.047778
vt 0.215693 0.051165
vt 0.213049 0.049478
vt 0.220660 0.049504
vt 0.223915 0.041812
vt 0.225696 0.045020
vt 0.225986 0.049020
vt 0.231664 0.044635
vt 0.232045 0.047963
vt 0.231742 0.041687
vt 0.238692 0.044230
vt 0.238276 0.047242
vt 0.238887 0.041999
vt 0.247279 0.043249
vt 0.247196 0.045384
vt 0.246422 0.047576
vt 0.232232 0.038011
vt 0.239310 0.039015
vt 0.247621 0.040445
vt 0.233126 0.034404
vt 0.239931 0.035967
vt 0.248210 0.037507
vt 0.256879 0.039296
vt 0.256629 0.041955
vt 0.256024 0.044526
vt 0.240513 0.032820
vt 0.248590 0.034510
vt 0.257553 0.036425
vt 0.264128 0.037223
vt 0.263574 0.040226
vt 0.263291 0.042888
vt 0.418070 0.012727
vt 0.420336 0.018314
vt 0.417596 0.018997
vt 0.416102 0.012906
vt 0.257387 0.034459
vt 0.248800 0.032789
vt 0.421474 0.011822
vt 0.423438 0.017557
vt 0.255486 0.046448
vt 0.254753 0.048427
vt 0.240939 0.030535
vt 0.423513 0.010978
vt 0.425786 0.016906
vt 0.262702 0.045690
vt 0.268250 0.043716
vt 0.267610 0.046584
vt 0.427004 0.021512
vt 0.424505 0.022232
vt 0.425898 0.025861
vt 0.428945 0.025375
vt 0.271961 0.047088
vt 0.273011 0.044445
vt 0.268826 0.040692
vt 0.273953 0.041157
vt 0.268802 0.037978
vt 0.272686 0.037775
vt 0.275601 0.037778
vt 0.277496 0.039563
vt 0.279850 0.040428
vt 0.278329 0.043056
vt 0.277212 0.045436
vt 0.282055 0.040478
vt 0.281766 0.042755
vt 0.281621 0.044495
vt 0.281016 0.038408
vt 0.282980 0.038791
vt 0.279611 0.038389
vt 0.280606 0.037080
vt 0.282050 0.037703
vt 0.279037 0.036783
vt 0.421203 0.034512
vt 0.419066 0.036264
vt 0.417904 0.035864
vt 0.419163 0.033541
vt 0.416849 0.034964
vt 0.417018 0.033054
vt 0.420599 0.030600
vt 0.423406 0.032257
vt 0.417841 0.029968
vt 0.418085 0.027279
vt 0.422398 0.027280
vt 0.424682 0.029686
vt 0.426825 0.029206
vt 0.421475 0.022932
vt 0.418251 0.023593
vt 0.429970 0.028665
vt 0.425769 0.032912
vt 0.430473 0.032246
vt 0.275272 0.047745
vt 0.233947 0.030520
vt 0.234757 0.027666
vt 0.228059 0.029713
vt 0.226217 0.033062
vt 0.229130 0.024886
vt 0.225265 0.036914
vt 0.219941 0.032321
vt 0.222431 0.029162
vt 0.220386 0.036040
vt 0.218290 0.038575
vt 0.215004 0.035198
vt 0.216206 0.043191
vt 0.213324 0.041396
vt 0.213595 0.046086
vt 0.007337 0.062206
vt 0.005449 0.060744
vt 0.005839 0.056996
vt 0.007403 0.057638
vt 0.010835 0.057720
vt 0.010876 0.062486
vt 0.011272 0.067770
vt 0.006452 0.067234
vt 0.014150 0.061059
vt 0.012828 0.055959
vt 0.016694 0.066091
vt 0.223090 0.024650
vt 0.008682 0.071785
vt 0.005000 0.071599
vt 0.008788 0.055756
vt 0.211619 0.047610
s 1
usemtl abyss_chancel_background_pbr
f 5/1/1 4/2/2 1/3/3 2/4/4
f 1/3/3 3/5/5 86/6/6 2/4/4
f 6/7/7 3/5/5 1/3/3 4/2/2
f 4/2/2 5/1/1 9/8/8 7/9/9
f 4/2/2 7/9/9 8/10/10 6/7/7
f 10/11/11 11/12/12 8/10/10 7/9/9
f 10/11/11 7/9/9 9/8/8 12/13/13
f 11/12/12 10/11/11 13/14/14 15/15/15
f 12/13/13 16/16/16 13/14/14 10/11/11
f 17/17/17 14/18/18 13/14/14 16/16/16
f 13/14/14 14/18/18 32/19/19 15/15/15
f 12/13/13 20/20/20 18/21/21 16/16/16
f 16/16/16 18/21/21 21/22/22 17/17/17
f 18/21/21 20/20/20 71/23/23 19/24/24
f 19/24/24 23/25/25 21/22/22 18/21/21
f 25/26/26 22/27/27 21/22/22 23/25/25
f 21/22/22 22/27/27 34/28/28 17/17/17
f 68/29/29 24/30/30 23/25/25 19/24/24
f 27/31/31 25/26/26 23/25/25 24/30/30
f 27/31/31 28/32/32 26/33/33 25/26/26
f 22/27/27 25/26/26 26/33/33 36/34/34
f 29/35/35 30/36/36 28/37/32 27/38/31
f 29/39/35 27/31/31 24/30/30 32/40/19
f 31/41/37 33/42/38 30/36/36 29/35/35
f 31/43/37 29/44/35 32/19/19 14/18/18
f 15/45/15 32/40/19 24/30/30 68/29/29
f 34/46/28 35/47/39 33/42/38 31/41/37
f 14/18/18 17/17/17 34/28/28 31/43/37
f 36/34/34 35/48/39 34/28/28 22/27/27
f 35/48/39 36/34/34 40/49/40 37/50/41
f 37/51/41 39/52/42 33/42/38 35/47/39
f 63/53/43 39/52/42 37/51/41 38/54/44
f 38/55/44 37/50/41 40/49/40 41/56/45
f 40/49/40 42/57/46 44/58/47 41/56/45
f 26/33/33 42/57/46 40/49/40 36/34/34
f 43/59/48 42/57/46 26/33/33 28/32/32
f 43/59/48 45/60/49 44/58/47 42/57/46
f 60/61/50 46/62/51 44/58/47 45/60/49
f 46/62/51 50/63/52 47/64/53 44/58/47
f 41/56/45 44/58/47 47/64/53 49/65/54
f 50/63/52 51/66/55 48/67/56 47/64/53
f 49/65/54 47/64/53 48/67/56 66/68/57
f 50/63/52 52/69/58 55/70/59 51/66/55
f 50/63/52 46/62/51 54/71/60 52/69/58
f 55/70/59 52/69/58 53/72/61 56/73/62
f 53/72/61 52/69/58 54/71/60 58/74/63
f 51/75/55 55/76/59 56/77/62 57/78/64
f 57/78/64 56/77/62 53/79/61 58/80/63
f 57/78/64 59/81/65 48/82/56 51/75/55
f 59/81/65 57/78/64 58/80/63 60/83/50
f 60/83/50 45/84/49 61/85/66 59/81/65
f 48/82/56 59/81/65 61/85/66 62/86/67
f 65/87/68 62/86/67 61/85/66 63/53/43
f 39/52/42 63/53/43 61/85/66 64/88/69
f 43/89/48 64/88/69 61/85/66 45/84/49
f 39/52/42 64/88/69 30/36/36 33/42/38
f 64/88/69 43/89/48 28/37/32 30/36/36
f 65/87/68 63/53/43 38/54/44 67/90/70
f 66/91/57 48/82/56 62/86/67 65/87/68
f 66/91/57 65/87/68 67/90/70 49/92/54
f 49/65/54 67/93/70 38/55/44 41/56/45
f 60/61/50 58/74/63 54/71/60 46/62/51
f 71/23/23 69/94/71 68/29/29 19/24/24
f 69/94/71 11/95/12 15/45/15 68/29/29
f 70/96/72 69/94/71 71/23/23 72/97/73
f 69/94/71 70/96/72 8/98/10 11/95/12
f 74/99/74 72/97/73 71/23/23 20/20/20
f 72/97/73 73/100/75 85/101/76 70/96/72
f 72/97/73 74/99/74 75/102/77 73/100/75
f 9/8/8 76/103/78 75/102/77 74/99/74
f 20/20/20 12/13/13 9/8/8 74/99/74
f 77/104/79 73/100/75 75/102/77 76/103/78
f 78/105/80 76/103/78 9/8/8 5/1/1
f 80/106/81 77/104/79 76/103/78 78/105/80
f 5/1/1 2/4/4 79/107/82 78/105/80
f 80/108/81 78/109/80 79/110/82 81/111/83
f 80/108/81 81/111/83 83/112/84 82/113/85
f 82/113/85 84/114/86 77/115/79 80/108/81
f 6/116/7 82/113/85 83/112/84 3/117/5
f 82/113/85 6/116/7 8/118/10 84/114/86
f 8/98/10 70/96/72 85/101/76 84/119/86
f 77/115/79 84/114/86 85/120/76 73/121/75
f 83/112/84 81/111/83 86/122/6 3/117/5
f 79/107/82 2/4/4 86/6/6 81/123/83
