# Blender 5.2.0 LTS
# www.blender.org
mtllib terrain-abyss-chancel-object-003.mtl
o terrain-abyss-chancel-object-003
v -0.889826 0.878618 0.058619
v -0.887059 0.879747 0.057125
v -0.889858 0.877602 0.054445
v -0.890416 0.881524 0.060229
v -0.893091 0.877308 0.059523
v -0.896747 0.876462 0.060232
v -0.893176 0.880344 0.062495
v -0.893503 0.876266 0.055158
v -0.897287 0.875473 0.055811
v -0.894027 0.877105 0.050864
v -0.894427 0.879526 0.047325
v -0.897972 0.876649 0.051311
v -0.889775 0.878167 0.050757
v -0.887173 0.881669 0.052326
v -0.889644 0.879643 0.047951
v -0.890327 0.882545 0.050646
v -0.894449 0.882996 0.049964
v -0.891200 0.883236 0.055157
v -0.888523 0.882149 0.056296
v -0.891934 0.882763 0.058479
v -0.894679 0.883494 0.054818
v -0.894470 0.882645 0.059398
v -0.897991 0.883344 0.055238
v -0.898376 0.882583 0.050434
v -0.901130 0.882784 0.056131
v -0.897497 0.882591 0.060018
v -0.896556 0.880080 0.063479
v -0.900624 0.882531 0.060687
v -0.900146 0.879456 0.063605
v -0.904347 0.882025 0.060880
v -0.904508 0.882273 0.057082
v -0.907383 0.880986 0.060866
v -0.904177 0.878971 0.063159
v -0.906927 0.878662 0.061619
v -0.904089 0.876971 0.059983
v -0.907712 0.877787 0.059472
v -0.904561 0.876712 0.056602
v -0.900326 0.876589 0.060232
v -0.900921 0.875879 0.056257
v -0.901726 0.876828 0.052133
v -0.905214 0.877362 0.053433
v -0.902595 0.879356 0.049366
v -0.898645 0.879418 0.048246
v -0.901787 0.881915 0.051705
v -0.905880 0.879187 0.051237
v -0.908478 0.879209 0.052817
v -0.904993 0.881436 0.053521
v -0.907995 0.880627 0.055453
v -0.908174 0.877596 0.056810
v -0.907927 0.880997 0.058284
v -0.907835 0.877862 0.054400
v -0.885934 0.880510 0.054458
vn 0.5419 0.4244 0.7254
vn 0.6415 -0.5736 0.5094
vn 0.8642 -0.2336 0.4457
vn 0.5552 0.7713 0.3113
vn 0.4815 -0.8744 -0.0597
vn 0.9935 -0.0756 0.0855
vn 0.3852 -0.7932 0.4716
vn 0.2614 -0.9652 -0.0075
vn 0.3834 0.1091 0.9171
vn 0.0511 -0.9986 -0.0112
vn 0.1381 -0.8686 0.4760
vn 0.1642 0.0917 0.9822
vn -0.0539 -0.8958 -0.4412
vn 0.1207 -0.9078 -0.4017
vn 0.5520 -0.6930 -0.4637
vn 0.0178 -0.1332 -0.9909
vn -0.2378 -0.1167 -0.9643
vn 0.4970 -0.0906 -0.8630
vn 0.9036 0.3448 -0.2540
vn 0.4232 0.7832 -0.4555
vn -0.0057 0.8648 -0.5021
vn 0.0100 0.9999 0.0138
vn 0.2068 0.9769 0.0544
vn 0.1693 0.9329 0.3179
vn 0.0658 0.9234 0.3783
vn -0.2103 0.8419 -0.4969
vn -0.1039 0.9946 -0.0029
vn 0.0056 0.9207 0.3903
vn -0.1613 0.9863 -0.0331
vn -0.3034 0.8458 -0.4389
vn -0.0803 0.8956 0.4376
vn -0.0261 -0.0529 0.9983
vn -0.2408 0.8444 0.4785
vn -0.2575 0.9652 -0.0444
vn -0.2274 -0.1789 0.9572
vn -0.8105 0.5790 0.0886
vn -0.6858 0.5467 0.4804
vn -0.6184 -0.3011 0.7259
vn -0.1650 -0.9225 0.3489
vn -0.7451 -0.6025 0.2861
vn -0.0486 -0.9005 0.4322
vn -0.7900 -0.6118 0.0395
vn -0.2153 -0.9765 -0.0121
vn -0.1392 -0.9902 -0.0065
vn -0.2087 -0.8843 -0.4176
vn -0.2839 -0.8875 -0.3629
vn -0.5543 -0.0321 -0.8317
vn -0.4207 -0.0559 -0.9055
vn -0.3493 0.8675 -0.3541
vn -0.6911 -0.6890 -0.2181
vn -0.8207 0.0280 -0.5707
vn -0.8070 0.5720 -0.1467
vt 0.012892 0.021827
vt 0.014048 0.023763
vt 0.012766 0.023748
vt 0.011424 0.023003
vt 0.013512 0.026129
vt 0.012065 0.024533
vt 0.015518 0.023672
vt 0.014545 0.027662
vt 0.013828 0.020746
vt 0.016943 0.028343
vt 0.017030 0.023730
vt 0.014659 0.019477
vt 0.012198 0.029944
vt 0.012028 0.028396
vt 0.011877 0.026762
vt 0.009481 0.027996
vt 0.008364 0.029177
vt 0.010489 0.026618
vt 0.011062 0.024759
vt 0.009534 0.025085
vt 0.007861 0.025990
vt 0.008017 0.022476
vt 0.009848 0.022817
vt 0.011006 0.021282
vt 0.010647 0.020131
vt 0.006250 0.026575
vt 0.006693 0.021759
vt 0.010356 0.018875
vt 0.302051 0.983989
vt 0.300765 0.983555
vt 0.298904 0.979794
vt 0.300402 0.980055
vt 0.009181 0.017791
vt 0.006139 0.019828
vt 0.307229 0.984045
vt 0.308413 0.980410
vt 0.309701 0.980494
vt 0.308638 0.983213
vt 0.305931 0.982442
vt 0.303348 0.982299
vt 0.307056 0.980280
vt 0.304358 0.980546
vt 0.305363 0.980954
vt 0.305965 0.979834
vt 0.306447 0.977992
vt 0.305268 0.979087
vt 0.307786 0.976880
vt 0.304235 0.978681
vt 0.304711 0.977003
vt 0.304951 0.975527
vt 0.305212 0.974129
vt 0.309052 0.975985
vt 0.302049 0.975786
vt 0.302765 0.977158
vt 0.300817 0.974266
vt 0.301575 0.978277
vt 0.300174 0.977462
vt 0.298454 0.977087
vt 0.301981 0.980605
vt 0.303338 0.978289
vt 0.302636 0.978781
vt 0.303365 0.979834
s 1
usemtl abyss_chancel_background_pbr
f 4/1/1 1/2/2 2/3/3 19/4/4
f 1/2/2 3/5/5 52/6/6 2/3/3
f 3/5/5 1/2/2 5/7/7 8/8/8
f 4/1/1 7/9/9 5/7/7 1/2/2
f 9/10/10 8/8/8 5/7/7 6/11/11
f 5/7/7 7/9/9 27/12/12 6/11/11
f 12/13/13 10/14/14 8/8/8 9/10/10
f 13/15/15 3/5/5 8/8/8 10/14/14
f 11/16/16 10/14/14 12/13/13 43/17/17
f 10/14/14 11/16/16 15/18/18 13/15/15
f 13/15/15 14/19/19 52/6/6 3/5/5
f 14/19/19 13/15/15 15/18/18 16/20/20
f 17/21/21 16/20/20 15/18/18 11/16/16
f 16/20/20 17/21/21 21/22/22 18/23/23
f 14/19/19 16/20/20 18/23/23 19/4/4
f 19/4/4 18/23/23 20/24/24 4/1/1
f 21/22/22 22/25/25 20/24/24 18/23/23
f 21/22/22 17/21/21 24/26/26 23/27/27
f 22/25/25 21/22/22 23/27/27 26/28/28
f 25/29/29 23/30/27 24/31/26 44/32/30
f 28/33/31 26/28/28 23/27/27 25/34/29
f 22/25/25 26/28/28 27/12/12 7/9/9
f 28/35/31 29/36/32 27/37/12 26/38/28
f 30/39/33 28/35/31 25/29/29 31/40/34
f 33/41/35 29/36/32 28/35/31 30/39/33
f 31/40/34 50/42/36 32/43/37 30/39/33
f 33/41/35 30/39/33 32/43/37 34/44/38
f 35/45/39 33/41/35 34/44/38 36/46/40
f 33/41/35 35/45/39 38/47/41 29/36/32
f 36/46/40 49/48/42 37/49/43 35/45/39
f 38/47/41 35/45/39 37/49/43 39/50/44
f 9/51/10 6/52/11 38/47/41 39/50/44
f 27/37/12 29/36/32 38/47/41 6/52/11
f 40/53/45 39/50/44 37/49/43 41/54/46
f 39/50/44 40/53/45 12/55/13 9/51/10
f 41/54/46 45/56/47 42/57/48 40/53/45
f 42/57/48 43/58/17 12/55/13 40/53/45
f 44/32/30 24/31/26 43/58/17 42/57/48
f 45/56/47 47/59/49 44/32/30 42/57/48
f 41/54/46 51/60/50 46/61/51 45/56/47
f 47/59/49 45/56/47 46/61/51 48/62/52
f 50/42/36 31/40/34 47/59/49 48/62/52
f 47/59/49 31/40/34 25/29/29 44/32/30
f 50/42/36 48/62/52 49/48/42 36/46/40
f 49/48/42 48/62/52 46/61/51 51/60/50
f 36/46/40 34/44/38 32/43/37 50/42/36
f 37/49/43 49/48/42 51/60/50 41/54/46
f 17/21/21 11/16/16 43/17/17 24/26/26
f 7/9/9 4/1/1 20/24/24 22/25/25
f 19/4/4 2/3/3 52/6/6 14/19/19
