# Blender 5.2.0 LTS
# www.blender.org
mtllib terrain-abyss-chancel-object-105.mtl
o terrain-abyss-chancel-object-105
v 0.326470 1.194116 0.000745
v 0.326452 1.200640 -0.000200
v 0.326411 1.194157 -0.002857
v 0.324976 1.188174 0.002265
v 0.324682 1.194588 0.000481
v 0.324646 1.195028 -0.002473
v 0.325910 1.199627 0.001598
v 0.324903 1.188172 -0.001585
v 0.325411 1.185247 0.001920
v 0.324149 1.181425 -0.006170
v 0.325486 1.187272 -0.004482
v 0.325208 1.181512 -0.006531
v 0.325076 1.187215 -0.002920
v 0.324282 1.180997 -0.004538
v 0.323908 1.180520 -0.004643
v 0.321816 1.177217 -0.005359
v 0.327332 1.177161 -0.006465
v 0.325634 1.176998 -0.007330
v 0.328968 1.171088 -0.009046
v 0.327851 1.176808 -0.004999
v 0.329175 1.175615 -0.002832
v 0.331328 1.171700 -0.006704
v 0.323161 1.177362 -0.000659
v 0.315115 1.170172 -0.003111
v 0.315263 1.169393 0.001947
v 0.310270 1.159458 -0.000616
v 0.316228 1.170006 -0.006339
v 0.311306 1.160187 -0.006524
v 0.318629 1.170311 -0.009349
v 0.314712 1.161196 -0.011869
v 0.322077 1.170653 -0.010966
v 0.322250 1.176952 -0.006394
v 0.323756 1.176914 -0.007804
v 0.325819 1.170761 -0.010851
v 0.319866 1.161995 -0.014915
v 0.316253 1.149636 -0.019958
v 0.325669 1.162592 -0.015289
v 0.325238 1.150325 -0.021471
v 0.331396 1.163672 -0.013530
v 0.333766 1.151470 -0.018687
v 0.335551 1.164525 -0.009979
v 0.337458 1.164891 -0.004520
v 0.339872 1.152726 -0.013217
v 0.346985 1.141642 -0.020142
v 0.342220 1.153139 -0.005223
v 0.342320 1.154133 0.002868
v 0.350935 1.141267 -0.008679
v 0.351570 1.142791 0.005385
v 0.356148 1.130136 -0.014534
v 0.359247 1.126717 -0.025908
v 0.364118 1.126508 -0.006294
v 0.350093 1.131440 -0.028556
v 0.357331 1.133582 0.007173
v 0.351157 1.135979 0.020507
v 0.361651 1.128046 0.011885
v 0.355189 1.129724 0.024774
v 0.364922 1.125773 0.013586
v 0.367509 1.124575 -0.003438
v 0.364536 1.121489 0.013914
v 0.359800 1.126794 0.027882
v 0.347097 1.127359 0.036097
v 0.360789 1.122898 0.028630
v 0.347745 1.124049 0.037429
v 0.359025 1.118100 0.028185
v 0.347696 1.119426 0.036790
v 0.362524 1.117314 0.014119
v 0.356406 1.112519 0.026883
v 0.360050 1.110770 0.014517
v 0.354935 1.099393 0.025777
v 0.347390 1.113995 0.035036
v 0.346296 1.099399 0.031257
v 0.331773 1.116230 0.038163
v 0.335026 1.105257 0.033856
v 0.312983 1.117852 0.037927
v 0.331030 1.121038 0.040281
v 0.312536 1.122655 0.040077
v 0.330499 1.125528 0.041425
v 0.312146 1.127194 0.039769
v 0.329983 1.128780 0.038853
v 0.312019 1.126535 0.035977
v 0.329180 1.131478 0.035184
v 0.344968 1.131128 0.031821
v 0.328406 1.137327 0.030653
v 0.313586 1.130236 0.031993
v 0.300676 1.131803 0.027247
v 0.314917 1.137583 0.028043
v 0.303988 1.139277 0.023412
v 0.317034 1.146275 0.022210
v 0.327217 1.145927 0.024141
v 0.308644 1.148240 0.018054
v 0.319722 1.157310 0.014770
v 0.313896 1.158357 0.010926
v 0.320466 1.167929 0.009572
v 0.326273 1.156814 0.016743
v 0.325109 1.167293 0.011015
v 0.333849 1.156623 0.015094
v 0.330651 1.167138 0.010407
v 0.339155 1.155608 0.010137
v 0.337460 1.145862 0.021646
v 0.345986 1.144759 0.015611
v 0.341681 1.137219 0.027168
v 0.335118 1.166552 0.006753
v 0.330728 1.172864 0.003814
v 0.337356 1.165656 0.001574
v 0.332256 1.172189 0.000078
v 0.328212 1.177053 0.000939
v 0.332143 1.171732 -0.003510
v 0.327791 1.177299 0.002496
v 0.322350 1.175653 0.005648
v 0.317584 1.168905 0.006410
v 0.324754 1.180692 0.002035
v 0.324448 1.174020 0.006652
v 0.324695 1.179440 0.004628
v 0.327996 1.173360 0.006409
v 0.326599 1.178426 0.004600
v 0.325851 1.183388 0.003526
v 0.325400 1.185106 0.001936
v 0.311053 1.158935 0.005663
v 0.304287 1.148297 0.010925
v 0.298493 1.138863 0.015880
v 0.301918 1.147783 0.002450
v 0.295428 1.137749 0.005083
v 0.303438 1.147935 -0.007234
v 0.296008 1.136840 -0.008837
v 0.308302 1.149069 -0.015231
v 0.301107 1.138422 -0.020515
v 0.295565 1.128899 -0.025316
v 0.310052 1.138980 -0.026213
v 0.302772 1.130150 -0.031293
v 0.324254 1.138886 -0.029443
v 0.336910 1.139454 -0.026231
v 0.322489 1.130687 -0.035388
v 0.338871 1.130440 -0.033095
v 0.322856 1.127366 -0.040269
v 0.339990 1.126708 -0.037936
v 0.304685 1.126316 -0.037386
v 0.322676 1.122900 -0.043145
v 0.323078 1.118301 -0.041001
v 0.306174 1.122328 -0.039555
v 0.340478 1.123487 -0.040587
v 0.339877 1.119329 -0.038724
v 0.353000 1.124041 -0.036637
v 0.352262 1.119853 -0.035336
v 0.351884 1.127266 -0.033499
v 0.361756 1.124729 -0.028921
v 0.365158 1.124699 -0.018818
v 0.360772 1.120658 -0.028633
v 0.364211 1.121491 -0.018363
v 0.358444 1.115534 -0.027439
v 0.351072 1.114229 -0.033414
v 0.355897 1.105221 -0.025580
v 0.361973 1.116438 -0.018003
v 0.357636 1.107615 -0.016343
v 0.363952 1.116302 -0.003204
v 0.360663 1.109044 -0.003205
v 0.365920 1.120669 -0.003119
v 0.358400 1.092103 -0.003111
v 0.357086 1.096195 0.014795
v 0.358587 1.068664 -0.002282
v 0.357110 1.088407 -0.016815
v 0.355421 1.084913 -0.023972
v 0.356692 1.064145 -0.015086
v 0.355624 1.059029 -0.022811
v 0.356884 1.041040 -0.014244
v 0.355449 1.037818 -0.022198
v 0.359275 1.045320 -0.002271
v 0.358037 1.023096 -0.014377
v 0.360580 1.025491 -0.001270
v 0.363885 1.013918 -0.014290
v 0.356860 1.021059 -0.023131
v 0.353710 1.017585 -0.031744
v 0.362536 1.012427 -0.024027
v 0.358923 1.005271 -0.022269
v 0.362253 1.009483 -0.031979
v 0.357033 1.002702 -0.030744
v 0.350019 1.005837 -0.032648
v 0.352183 0.993859 -0.024091
v 0.353350 0.995582 -0.017296
v 0.346228 0.998534 -0.028124
v 0.343528 0.985152 -0.017500
v 0.339471 0.991244 -0.023013
v 0.336316 0.981957 -0.010729
v 0.346194 0.985763 -0.008545
v 0.338617 0.982082 -0.001372
v 0.347943 0.987985 0.000333
v 0.350165 0.991320 0.009298
v 0.355809 0.996505 -0.008404
v 0.341178 0.984060 0.009027
v 0.346457 0.988635 0.017625
v 0.340200 0.983647 0.017193
v 0.332422 0.981674 0.007770
v 0.332758 0.983544 0.014474
v 0.330823 0.978102 0.002332
v 0.325875 0.977965 0.006028
v 0.323941 0.975884 0.003382
v 0.324046 0.981769 0.009195
v 0.322372 0.977689 0.000940
v 0.314513 0.982766 0.010874
v 0.323227 0.988160 0.021602
v 0.333228 0.988948 0.022761
v 0.322244 0.995822 0.029519
v 0.313387 0.987270 0.021055
v 0.310782 0.994889 0.027143
v 0.305714 0.985463 0.021049
v 0.302039 0.992462 0.024500
v 0.305827 0.985385 0.012007
v 0.299365 0.992895 0.013956
v 0.306282 0.984384 0.001771
v 0.298852 0.992053 0.002305
v 0.307804 0.983372 -0.007322
v 0.315154 0.981319 0.001367
v 0.316072 0.981554 -0.006867
v 0.315734 0.982663 -0.016784
v 0.328096 0.980016 -0.006553
v 0.323419 0.983574 -0.017303
v 0.331708 0.986570 -0.019392
v 0.317682 0.991321 -0.024188
v 0.312217 0.998185 -0.030096
v 0.310176 0.989876 -0.021591
v 0.326500 0.993744 -0.026620
v 0.334164 0.995905 -0.027818
v 0.323376 1.000217 -0.032299
v 0.335724 1.001369 -0.031967
v 0.322132 1.006314 -0.036626
v 0.308765 1.004699 -0.034311
v 0.321804 1.014485 -0.037008
v 0.337088 1.007344 -0.036282
v 0.339010 1.016574 -0.035704
v 0.339932 1.028333 -0.031556
v 0.352026 1.033886 -0.029491
v 0.340453 1.048275 -0.030235
v 0.321256 1.024753 -0.034291
v 0.320893 1.043806 -0.033369
v 0.304931 1.020257 -0.032822
v 0.292966 1.018974 -0.032465
v 0.307087 1.012014 -0.035848
v 0.303606 1.040487 -0.030135
v 0.295437 1.037953 -0.031132
v 0.303906 1.067907 -0.030236
v 0.321306 1.072288 -0.033001
v 0.305225 1.094580 -0.032382
v 0.295464 1.063448 -0.031587
v 0.296256 1.091226 -0.031895
v 0.295528 1.060764 -0.026066
v 0.294971 1.035280 -0.025308
v 0.294955 1.088621 -0.027133
v 0.294314 1.058871 -0.017348
v 0.293963 1.032339 -0.015037
v 0.290994 1.055276 0.002987
v 0.293427 1.086961 -0.018857
v 0.292256 1.107621 -0.020902
v 0.291272 1.083355 0.000668
v 0.290255 1.105365 -0.001818
v 0.291939 1.078355 0.017599
v 0.290646 1.101437 0.015734
v 0.292285 1.075294 0.025731
v 0.292301 1.051470 0.017899
v 0.292153 1.026343 0.015970
v 0.292061 1.050052 0.026620
v 0.292046 1.030535 0.028147
v 0.300120 1.048544 0.029306
v 0.298951 1.071465 0.029057
v 0.314199 1.047228 0.033036
v 0.302021 1.031429 0.029572
v 0.302376 1.019723 0.032204
v 0.315487 1.031335 0.034014
v 0.316945 1.020571 0.035039
v 0.339322 1.030283 0.031553
v 0.340465 1.030112 0.032204
v 0.339420 1.020269 0.032003
v 0.339155 1.044617 0.030962
v 0.340371 1.044371 0.031651
v 0.338771 1.063915 0.030491
v 0.313072 1.068054 0.031404
v 0.337642 1.086872 0.030319
v 0.340099 1.063757 0.031395
v 0.340721 1.063560 0.031748
v 0.338779 1.085594 0.031044
v 0.339821 1.082056 0.031813
v 0.339323 1.090806 0.032018
v 0.350191 1.082426 0.031381
v 0.354609 1.078508 0.025553
v 0.351290 1.059228 0.031700
v 0.351560 1.039272 0.032299
v 0.354674 1.054926 0.025634
v 0.356504 1.050447 0.015519
v 0.354968 1.033401 0.026569
v 0.360409 1.014347 0.028481
v 0.357043 1.029542 0.015403
v 0.362803 1.014781 0.015176
v 0.360960 1.006430 0.012653
v 0.364760 1.014923 -0.000316
v 0.363180 1.006194 -0.000507
v 0.361694 1.006227 -0.012428
v 0.356856 0.997421 0.001384
v 0.356686 0.998834 0.010116
v 0.353104 0.996706 0.018230
v 0.356407 1.004872 0.024327
v 0.350404 0.994546 0.024721
v 0.354838 1.002285 0.031195
v 0.344327 0.995183 0.028339
v 0.334439 0.996458 0.029563
v 0.347865 1.003427 0.033246
v 0.341670 0.987915 0.022376
v 0.351130 1.012697 0.038022
v 0.336543 1.003932 0.034778
v 0.321134 1.002617 0.034168
v 0.340783 1.018760 0.034030
v 0.341279 1.029725 0.033100
v 0.320329 1.008024 0.038646
v 0.340188 1.019418 0.033145
v 0.318436 1.014855 0.038747
v 0.302926 1.012953 0.037160
v 0.288290 1.008946 0.034251
v 0.305746 1.007632 0.035530
v 0.308178 1.001344 0.031462
v 0.294924 1.005595 0.032367
v 0.298573 0.999133 0.027958
v 0.290663 1.005800 0.017694
v 0.293913 0.999237 0.016168
v 0.286106 1.010440 0.018679
v 0.288507 1.005278 0.003009
v 0.284756 1.010512 0.002901
v 0.289370 1.005058 -0.011186
v 0.292037 0.998791 0.002699
v 0.293783 0.998545 -0.010011
v 0.300782 0.991405 -0.008305
v 0.297639 0.997795 -0.019948
v 0.304125 0.989844 -0.016943
v 0.293508 1.004970 -0.021863
v 0.302856 0.996662 -0.026658
v 0.297051 1.003766 -0.030212
v 0.290373 1.008869 -0.030097
v 0.298682 1.010389 -0.035132
v 0.288534 1.010092 -0.024146
v 0.292480 1.018197 -0.024468
v 0.285366 1.010003 -0.012152
v 0.289902 1.017057 -0.013372
v 0.287413 1.017179 0.002357
v 0.288606 1.017768 0.017828
v 0.290117 1.029335 0.002427
v 0.291456 1.019891 0.029953
v 0.309833 0.983264 -0.014798
v 0.351729 1.022856 0.033956
v 0.341437 1.044167 0.032235
v 0.359287 1.009660 0.036247
v 0.356065 1.073970 0.015053
v 0.312574 1.091122 0.030675
v 0.299121 1.094962 0.029257
v 0.313030 1.109057 0.034063
v 0.299765 1.111543 0.032188
v 0.299545 1.118360 0.034986
v 0.289961 1.113237 0.026998
v 0.285950 1.122204 0.023817
v 0.289434 1.118232 0.032358
v 0.292308 1.098159 0.025278
v 0.287185 1.114191 0.013836
v 0.284048 1.121103 0.010966
v 0.286318 1.115112 -0.004437
v 0.289510 1.116808 -0.023980
v 0.284318 1.120807 -0.009319
v 0.287700 1.122032 -0.026409
v 0.286691 1.125251 -0.017012
v 0.292130 1.128836 -0.011535
v 0.285910 1.127106 0.006455
v 0.290279 1.125927 -0.028787
v 0.292183 1.126555 -0.032504
v 0.295739 1.126961 -0.035908
v 0.289532 1.122167 -0.033232
v 0.294672 1.122513 -0.037635
v 0.291769 1.117223 -0.031213
v 0.293372 1.108596 -0.028875
v 0.296249 1.117431 -0.035427
v 0.306784 1.117801 -0.038110
v 0.297062 1.109647 -0.033115
v 0.306786 1.111039 -0.035507
v 0.323095 1.112319 -0.037602
v 0.322427 1.098596 -0.033639
v 0.339421 1.112820 -0.035687
v 0.339866 1.102469 -0.032505
v 0.349780 1.103258 -0.030706
v 0.340678 1.077121 -0.030053
v 0.350742 1.080266 -0.029240
v 0.351607 1.053540 -0.028978
v 0.290496 1.130056 0.006410
v 0.289036 1.127555 0.020767
v 0.296071 1.127290 0.029608
v 0.293506 1.131270 0.019089
v 0.287174 1.123646 0.030174
v 0.297693 1.125946 0.035601
v 0.298757 1.122377 0.036519
v 0.289479 1.125581 0.033617
v 0.290018 1.121755 0.034941
v 0.362478 1.126015 -0.017239
v 0.325866 1.204350 -0.001596
v 0.325159 1.203092 -0.005013
vn 0.9627 0.1408 0.2313
vn -0.3226 0.1592 0.9330
vn -0.8637 0.0423 0.5022
vn 0.8339 -0.0963 0.5434
vn 0.8904 -0.0281 -0.4543
vn 0.0324 0.0912 -0.9953
vn 0.1054 -0.4827 0.8694
vn 0.9875 -0.0984 -0.1230
vn -0.9988 0.0398 0.0292
vn 0.0685 0.5257 -0.8479
vn -0.9681 0.0433 -0.2468
vn -0.0849 0.2714 -0.9587
vn -0.7818 0.3159 -0.5377
vn -0.8597 0.4138 -0.2994
vn -0.9404 -0.0109 0.3399
vn 0.7109 0.3961 0.5811
vn 0.5150 0.4494 -0.7299
vn 0.9729 -0.0108 0.2311
vn 0.0198 0.5214 -0.8531
vn -0.6866 0.5204 -0.5077
vn -0.6643 0.7115 0.2288
vn 0.8041 0.5581 -0.2051
vn 0.3881 0.4520 -0.8032
vn 0.4294 0.9028 0.0231
vn 0.4492 0.5231 -0.7243
vn 0.1635 0.4792 -0.8623
vn 0.6914 0.5880 -0.4198
vn -0.4000 0.9086 0.1202
vn 0.3706 0.9286 0.0178
vn 0.6361 0.7640 -0.1080
vn 0.7764 0.6120 -0.1505
vn -0.7928 0.6092 0.0171
vn -0.7402 0.6258 0.2459
vn -0.8037 0.5814 -0.1265
vn -0.8641 0.5033 0.0038
vn -0.7861 0.5416 0.2980
vn -0.8272 0.4820 -0.2888
vn -0.6054 0.5012 -0.6183
vn -0.6385 0.4689 -0.6103
vn -0.2433 0.4878 -0.8384
vn -0.3000 0.4522 -0.8400
vn -0.3082 0.4646 -0.8301
vn 0.0651 0.4568 -0.8872
vn 0.0188 0.5113 -0.8592
vn -0.3161 0.5338 -0.7843
vn -0.6287 0.5715 -0.5273
vn 0.3851 0.4806 -0.7878
vn 0.3298 0.5141 -0.7918
vn 0.6960 0.5044 -0.5111
vn 0.6699 0.5405 -0.5090
vn 0.8522 0.4934 -0.1744
vn 0.8396 0.5154 -0.1715
vn 0.6079 0.6183 -0.4981
vn 0.8123 0.5551 -0.1788
vn 0.2393 0.6037 -0.7605
vn 0.8092 0.5818 0.0820
vn 0.8429 0.5290 0.0982
vn 0.8537 0.5106 0.1024
vn 0.6858 0.7060 -0.1766
vn 0.4433 0.7578 -0.4789
vn 0.7557 0.6521 0.0617
vn 0.3257 0.7944 -0.5126
vn 0.4673 0.8513 -0.2384
vn 0.5526 0.8306 -0.0688
vn 0.4872 0.8665 -0.1090
vn 0.5963 0.7980 0.0876
vn 0.6264 0.6565 0.4202
vn 0.6556 0.6184 0.4333
vn 0.5065 0.7911 0.3429
vn 0.9436 0.3306 -0.0156
vn 0.8742 0.4568 0.1650
vn 0.6785 0.5641 0.4705
vn 0.9527 -0.2344 0.1936
vn 0.9361 -0.3517 -0.0053
vn 0.8183 -0.0375 0.5735
vn 0.3015 0.7558 0.5813
vn 0.3310 0.6380 0.6953
vn 0.3986 0.1235 0.9088
vn 0.3735 -0.2746 0.8861
vn 0.7580 -0.3451 0.5535
vn 0.9017 -0.3943 0.1773
vn 0.3670 -0.3111 0.8767
vn 0.7795 -0.2962 0.5519
vn 0.9434 -0.2778 0.1810
vn 0.9834 -0.0923 0.1563
vn 0.8436 -0.0935 0.5288
vn 0.3807 -0.1056 0.9186
vn 0.0623 -0.2644 0.9624
vn 0.0398 -0.3646 0.9303
vn 0.0411 -0.2508 0.9672
vn -0.1284 -0.3988 0.9080
vn -0.1106 -0.2876 0.9514
vn -0.1495 -0.2034 0.9676
vn 0.0794 0.3233 0.9430
vn -0.1432 0.6042 0.7839
vn -0.1260 0.8933 0.4314
vn 0.0330 0.7860 0.6173
vn -0.2106 0.6402 0.7387
vn -0.0135 0.7078 0.7062
vn 0.3475 0.6485 0.6773
vn 0.0152 0.5985 0.8010
vn -0.2055 0.5517 0.8083
vn -0.4018 0.6609 0.6339
vn -0.4685 0.5946 0.6534
vn -0.3397 0.8919 0.2984
vn -0.4748 0.6318 0.6128
vn -0.2052 0.5854 0.7843
vn 0.0232 0.5861 0.8099
vn -0.0017 0.5236 0.8520
vn -0.2817 0.5286 0.8008
vn -0.5670 0.5617 0.6025
vn -0.4532 0.5404 0.7089
vn -0.6776 0.5942 0.4334
vn -0.0237 0.4986 0.8665
vn 0.3661 0.6078 0.7047
vn 0.4022 0.5363 0.7421
vn 0.3883 0.5412 0.7458
vn 0.7143 0.5367 0.4491
vn 0.7259 0.5348 0.4326
vn 0.7179 0.6002 0.3526
vn 0.4232 0.5516 0.7188
vn 0.7795 0.6246 0.0482
vn 0.8034 0.5598 -0.2030
vn -0.7456 0.5968 0.2966
vn -0.3601 0.5707 -0.7380
vn -0.0587 0.4911 0.8691
vn -0.3901 0.4222 0.8182
vn 0.5918 0.5091 0.6250
vn -0.7347 0.6089 0.2992
vn -0.8199 0.5712 0.0379
vn -0.7377 0.5946 0.3198
vn -0.8344 0.5497 0.0393
vn -0.7999 0.5601 -0.2155
vn -0.8228 0.5411 -0.1739
vn -0.6452 0.6206 -0.4456
vn -0.3170 0.6213 -0.7166
vn -0.5241 0.8135 -0.2522
vn -0.6758 0.7240 -0.1386
vn -0.2831 0.7987 -0.5310
vn -0.0030 0.5898 -0.8075
vn -0.0290 0.7286 -0.6844
vn 0.1702 0.7235 -0.6690
vn -0.1522 0.6648 -0.7314
vn -0.0230 0.6880 -0.7253
vn 0.1526 0.7188 -0.6783
vn 0.2197 0.1327 -0.9665
vn -0.0306 0.0746 -0.9967
vn -0.1880 0.0345 -0.9816
vn -0.1664 -0.3796 -0.9101
vn 0.0017 -0.4222 -0.9065
vn 0.1978 -0.4124 -0.8892
vn 0.4670 0.2312 -0.8535
vn 0.4492 -0.3688 -0.8138
vn 0.7852 0.3287 -0.5248
vn 0.7809 -0.3513 -0.5165
vn 0.9082 0.3592 -0.2147
vn 0.9092 -0.3626 -0.2048
vn 0.8932 -0.4102 -0.1840
vn 0.7837 -0.3843 -0.4880
vn 0.4369 -0.3453 -0.8306
vn 0.8576 -0.1881 -0.4787
vn 0.4450 -0.1684 -0.8796
vn 0.9565 -0.2375 -0.1695
vn 0.9103 -0.4135 -0.0216
vn 0.9609 -0.2750 -0.0315
vn 0.9869 -0.0310 -0.1584
vn 0.9978 -0.0640 -0.0184
vn 0.9897 -0.0013 0.1429
vn 1.0000 0.0041 -0.0037
vn 0.9872 -0.0032 -0.1595
vn 0.8957 -0.0254 -0.4440
vn 0.9276 -0.0035 -0.3734
vn 0.9831 0.0343 -0.1797
vn 0.9992 0.0363 -0.0191
vn 0.9464 0.0474 -0.3194
vn 0.8811 0.3480 -0.3203
vn 0.9398 0.2807 -0.1949
vn 0.9699 0.2419 -0.0286
vn 0.9948 0.1013 0.0055
vn 0.9803 0.1044 -0.1678
vn 0.9691 0.1105 -0.2203
vn 0.4781 0.2450 -0.8435
vn 0.5787 0.1115 -0.8079
vn 0.7715 -0.0534 -0.6340
vn 0.8656 -0.4966 -0.0642
vn 0.8937 -0.4324 -0.1195
vn 0.5363 -0.5258 -0.6602
vn 0.1370 -0.2951 -0.9456
vn 0.7896 -0.6072 -0.0892
vn 0.5304 -0.7029 -0.4739
vn 0.0841 -0.6042 -0.7924
vn 0.3403 -0.8440 -0.4146
vn 0.5936 -0.8037 -0.0409
vn 0.0639 -0.6824 -0.7282
vn 0.0496 -0.7787 -0.6255
vn 0.2151 -0.9307 -0.2959
vn 0.3991 -0.9168 0.0145
vn 0.6488 -0.7601 0.0349
vn 0.4468 -0.8854 0.1279
vn 0.7821 -0.6187 -0.0741
vn 0.7027 -0.7052 0.0939
vn 0.7834 -0.6197 0.0476
vn 0.6275 -0.7421 0.2358
vn 0.2169 -0.7853 0.5799
vn 0.2471 -0.9051 0.3460
vn 0.2305 -0.9185 0.3214
vn 0.0076 -0.9148 0.4038
vn 0.2943 -0.9536 0.0638
vn -0.1178 -0.8819 0.4565
vn -0.1105 -0.8269 0.5514
vn -0.2434 -0.9409 0.2357
vn -0.2376 -0.9706 -0.0378
vn -0.2646 -0.9631 0.0500
vn -0.1352 -0.9520 0.2747
vn -0.0459 -0.7544 0.6548
vn -0.0178 -0.7983 0.6021
vn -0.0139 -0.8105 0.5855
vn 0.0185 -0.6162 0.7874
vn -0.0330 -0.6312 0.7749
vn -0.0760 -0.5903 0.8036
vn -0.4832 -0.6614 0.5736
vn -0.3616 -0.8141 0.4543
vn -0.4967 -0.8580 0.1309
vn -0.7512 -0.6486 0.1228
vn -0.7221 -0.6918 0.0012
vn -0.5375 -0.8430 0.0218
vn -0.5053 -0.8590 -0.0819
vn -0.7160 -0.6862 -0.1281
vn -0.1842 -0.9727 -0.1411
vn 0.0707 -0.9567 -0.2824
vn -0.4358 -0.8343 -0.3377
vn -0.1490 -0.8641 -0.4807
vn 0.0109 -0.8472 -0.5312
vn -0.0469 -0.6690 -0.7418
vn 0.0336 -0.6631 -0.7478
vn -0.2746 -0.6942 -0.6653
vn -0.4132 -0.6867 -0.5982
vn -0.1102 -0.6330 -0.7663
vn 0.0084 -0.6133 -0.7898
vn 0.0883 -0.6460 -0.7582
vn 0.1015 -0.6045 -0.7901
vn -0.0159 -0.3275 -0.9447
vn 0.1353 -0.2833 -0.9494
vn -0.1417 -0.4343 -0.8896
vn -0.1311 0.0019 -0.9914
vn -0.0344 0.1165 -0.9926
vn 0.1431 0.1356 -0.9804
vn -0.0291 0.1802 -0.9832
vn 0.1283 0.1600 -0.9787
vn 0.1296 0.0288 -0.9911
vn 0.5369 0.0107 -0.8436
vn -0.0118 0.0388 -0.9992
vn -0.0922 0.1910 -0.9772
vn -0.0340 0.0424 -0.9985
vn -0.6790 0.1676 -0.7148
vn -0.6641 0.0832 -0.7430
vn -0.2549 -0.1362 -0.9573
vn -0.6326 -0.0138 -0.7743
vn -0.0228 -0.0256 -0.9994
vn 0.0031 -0.0228 -0.9997
vn -0.0697 -0.1044 -0.9921
vn 0.0225 -0.1543 -0.9878
vn -0.5588 -0.0665 -0.8266
vn -0.9947 -0.0037 -0.1026
vn -0.9770 -0.0405 -0.2093
vn -0.9933 0.0869 -0.0759
vn -0.9825 0.1120 -0.1491
vn -0.9892 -0.0060 -0.1466
vn -0.9878 -0.0495 -0.1473
vn -0.9900 0.1391 -0.0253
vn -0.9994 0.0039 -0.0354
vn -0.9983 -0.0341 -0.0471
vn -0.9626 -0.2111 -0.1701
vn -0.8963 -0.1893 -0.4011
vn -0.9766 -0.2050 -0.0654
vn -0.9990 0.0044 0.0439
vn -0.9983 -0.0166 0.0567
vn -0.9865 -0.1462 0.0732
vn -0.8306 -0.1058 0.5468
vn -0.8376 -0.0003 0.5463
vn -0.8156 0.0155 0.5784
vn -0.9844 0.1567 0.0798
vn -0.7664 0.1398 0.6269
vn -0.2352 0.0914 0.9676
vn -0.2637 0.0243 0.9643
vn -0.2906 0.0156 0.9567
vn -0.0872 0.0375 0.9955
vn -0.0670 0.0292 0.9973
vn -0.0848 0.0735 0.9937
vn -0.0567 0.3582 0.9319
vn -0.2167 0.3451 0.9132
vn -0.6984 0.3743 0.6100
vn -0.2139 0.2879 0.9335
vn -0.2470 0.0588 0.9672
vn -0.2263 0.0381 0.9733
vn -0.6315 0.0510 0.7737
vn -0.5245 0.0202 0.8512
vn -0.3410 0.2522 0.9056
vn -0.5494 -0.0102 0.8355
vn -0.2634 0.0164 0.9646
vn -0.2306 -0.1174 0.9660
vn -0.0735 -0.0810 0.9940
vn -0.6070 -0.0663 0.7920
vn -0.2833 0.0377 0.9583
vn -0.2668 0.0034 0.9637
vn -0.3022 -0.0122 0.9532
vn -0.1577 -0.1034 0.9821
vn 0.4322 0.0318 0.9012
vn 0.5026 0.0270 0.8641
vn 0.9159 0.0118 0.4012
vn 0.9429 0.0226 0.3324
vn 0.4950 0.0787 0.8653
vn 0.9154 0.1475 0.3745
vn 0.9870 0.0267 0.1585
vn 0.9701 0.1936 0.1466
vn 0.3898 0.2603 0.8833
vn 0.9451 0.0341 0.3251
vn 0.9865 0.0200 0.1625
vn 0.8944 -0.4073 0.1846
vn 0.9191 -0.3933 0.0239
vn 0.8811 -0.4566 0.1230
vn 0.7928 -0.5871 0.1635
vn 0.8003 -0.5798 0.1528
vn 0.6121 -0.6765 0.4094
vn 0.6034 -0.6230 0.4978
vn 0.1714 -0.6546 0.7363
vn 0.0502 -0.4648 0.8840
vn 0.0457 -0.3667 0.9292
vn 0.1657 0.0156 0.9861
vn -0.1092 0.0772 0.9910
vn 0.7219 -0.2030 0.6616
vn 0.0288 -0.2350 0.9716
vn -0.0121 -0.5024 0.8646
vn -0.3893 0.1068 0.9149
vn -0.0122 0.2787 0.9603
vn -0.1817 0.1068 0.9775
vn -0.1293 -0.4529 0.8821
vn -0.7321 -0.2189 0.6450
vn -0.3943 -0.6713 0.6277
vn -0.1296 -0.5837 0.8015
vn -0.5119 -0.6337 0.5800
vn -0.7940 -0.5784 0.1871
vn -0.7570 -0.6368 0.1464
vn -0.9674 -0.2206 0.1244
vn -0.8223 -0.5679 0.0371
vn -0.7983 -0.6018 0.0223
vn -0.9922 -0.1240 0.0136
vn -0.7844 -0.6016 -0.1508
vn -0.9797 -0.1206 -0.1603
vn -0.7695 -0.6185 -0.1594
vn -0.6103 -0.7061 -0.3591
vn -0.6951 -0.6504 -0.3064
vn -0.7124 -0.6618 -0.2333
vn -0.5058 -0.5836 -0.6352
vn -0.8205 -0.3176 -0.4753
vn -0.9631 -0.1666 -0.2112
vn -0.9530 0.2727 -0.1318
vn -0.9270 0.3429 -0.1518
vn -0.9408 0.3385 -0.0184
vn -0.9473 0.3027 0.1045
vn -0.3300 -0.0774 0.9408
vn -0.3147 -0.3272 0.8910
vn -0.2346 -0.4530 0.8601
vn -0.6593 -0.4148 0.6271
vn -0.8034 -0.3438 0.4861
vn -0.9963 0.0260 0.0822
vn -0.9451 -0.3151 0.0861
vn -0.9579 0.1736 0.2285
vn -0.8728 0.3556 0.3344
vn -0.9257 -0.3711 -0.0729
vn -0.9925 -0.0563 -0.1083
vn -0.9668 -0.0432 -0.2518
vn -0.8970 -0.3875 -0.2129
vn -0.7758 0.6310 0.0043
vn -0.7746 0.6146 -0.1488
vn -0.6857 0.6996 -0.2009
vn -0.7000 0.7140 0.0152
vn -0.5536 0.7314 -0.3983
vn -0.8448 -0.0137 -0.5349
vn -0.2927 0.6856 -0.6665
vn -0.4462 0.0036 -0.8949
vn -0.4092 -0.3908 -0.8245
vn -0.7762 -0.4048 -0.4834
vn -0.4863 -0.2185 -0.8460
vn -0.1276 -0.2778 -0.9521
vn 0.0205 -0.3559 -0.9343
vn 0.1745 -0.3522 -0.9195
vn 0.1500 -0.1783 -0.9725
vn 0.4827 -0.0310 -0.8753
vn 0.1262 -0.0309 -0.9915
vn -0.6639 0.7174 0.2112
vn -0.6416 0.7083 0.2943
vn -0.5445 0.6356 0.5472
vn -0.2165 0.7373 0.6399
vn -0.2311 -0.1452 0.9620
vn -0.5092 -0.1293 0.8509
vt 0.608785 0.047578
vt 0.609631 0.047722
vt 0.610276 0.050350
vt 0.609160 0.050445
vt 0.614810 0.048301
vt 0.612574 0.050022
vt 0.612545 0.046352
vt 0.614739 0.044929
vt 0.338067 0.960233
vt 0.334476 0.962420
vt 0.333439 0.960474
vt 0.337198 0.958371
vt 0.609094 0.053728
vt 0.611453 0.053869
vt 0.611260 0.045356
vt 0.611946 0.050032
vt 0.613138 0.054435
vt 0.613101 0.058030
vt 0.612204 0.058542
vt 0.609299 0.055288
vt 0.607828 0.055768
vt 0.613859 0.057723
vt 0.333286 0.959661
vt 0.337465 0.957327
vt 0.330344 0.959537
vt 0.330186 0.958333
vt 0.333198 0.963434
vt 0.333114 0.963431
vt 0.330062 0.959412
vt 0.956710 0.245595
vt 0.956112 0.245580
vt 0.955199 0.243931
vt 0.955377 0.243985
vt 0.952669 0.243893
vt 0.952280 0.243255
vt 0.954033 0.243012
vt 0.953266 0.244469
vt 0.958702 0.243244
vt 0.961997 0.244205
vt 0.961324 0.246013
vt 0.958389 0.244152
vt 0.959159 0.242434
vt 0.962278 0.242471
vt 0.385075 0.975166
vt 0.383983 0.972507
vt 0.385513 0.972087
vt 0.386488 0.973221
vt 0.387055 0.970408
vt 0.385731 0.969505
vt 0.247446 0.528863
vt 0.244476 0.529643
vt 0.242856 0.524971
vt 0.244916 0.522858
vt 0.957082 0.249123
vt 0.955425 0.249347
vt 0.248634 0.533986
vt 0.244567 0.534569
vt 0.249395 0.528336
vt 0.251934 0.532981
vt 0.958972 0.248657
vt 0.960506 0.252086
vt 0.957956 0.252756
vt 0.960288 0.247433
vt 0.963290 0.251096
vt 0.957623 0.245325
vt 0.955634 0.243623
vt 0.614736 0.060096
vt 0.614207 0.060444
vt 0.965125 0.248568
vt 0.970626 0.252750
vt 0.967865 0.256719
vt 0.964248 0.259638
vt 0.966279 0.245571
vt 0.972560 0.248231
vt 0.967026 0.242595
vt 0.973392 0.244093
vt 0.386449 0.965279
vt 0.389069 0.966809
vt 0.967672 0.239964
vt 0.974076 0.240034
vt 0.981019 0.245698
vt 0.981873 0.239439
vt 0.979393 0.251496
vt 0.385483 0.947873
vt 0.388464 0.952038
vt 0.385346 0.959183
vt 0.381885 0.958095
vt 0.382983 0.964877
vt 0.987668 0.240440
vt 0.987292 0.248259
vt 0.985809 0.234281
vt 0.990492 0.234109
vt 0.990292 0.249737
vt 0.992508 0.244820
vt 0.388371 0.932709
vt 0.383951 0.934787
vt 0.387474 0.929503
vt 0.390696 0.925891
vt 0.381233 0.943302
vt 0.376988 0.939928
vt 0.372974 0.947423
vt 0.377109 0.951657
vt 0.369499 0.943602
vt 0.382301 0.933207
vt 0.375920 0.938259
vt 0.367058 0.941242
vt 0.108914 0.795010
vt 0.117115 0.795504
vt 0.116788 0.797212
vt 0.108552 0.796987
vt 0.101346 0.796402
vt 0.102007 0.794546
vt 0.215119 0.549143
vt 0.214445 0.552415
vt 0.208525 0.552500
vt 0.209682 0.549447
vt 0.214264 0.554263
vt 0.207941 0.554818
vt 0.213719 0.556637
vt 0.207556 0.557162
vt 0.102185 0.792465
vt 0.109178 0.792898
vt 0.213501 0.559420
vt 0.207983 0.560410
vt 0.103069 0.789654
vt 0.109345 0.789480
vt 0.109666 0.782124
vt 0.104184 0.782571
vt 0.213288 0.567024
vt 0.208488 0.566804
vt 0.221655 0.556391
vt 0.221086 0.559033
vt 0.219266 0.564909
vt 0.230392 0.558658
vt 0.230550 0.563314
vt 0.230681 0.556089
vt 0.222100 0.553949
vt 0.231252 0.553865
vt 0.231413 0.552050
vt 0.222504 0.551789
vt 0.231533 0.549303
vt 0.223129 0.549529
vt 0.217134 0.545092
vt 0.224326 0.545842
vt 0.231860 0.545265
vt 0.239306 0.549137
vt 0.239402 0.545375
vt 0.240438 0.552024
vt 0.239655 0.540409
vt 0.233104 0.540754
vt 0.226334 0.540795
vt 0.229396 0.534959
vt 0.234596 0.535096
vt 0.240396 0.535166
vt 0.239387 0.530598
vt 0.241641 0.530231
vt 0.374106 0.965107
vt 0.376940 0.969535
vt 0.376303 0.971491
vt 0.372792 0.968224
vt 0.220165 0.539832
vt 0.224693 0.534315
vt 0.375299 0.961747
vt 0.378395 0.966858
vt 0.378038 0.958917
vt 0.380668 0.965766
vt 0.371881 0.955834
vt 0.367614 0.950733
vt 0.363952 0.947947
vt 0.382945 0.969974
vt 0.380544 0.971055
vt 0.384322 0.969527
vt 0.383199 0.972887
vt 0.240196 0.524114
vt 0.238559 0.526319
vt 0.238153 0.523368
vt 0.240127 0.523372
vt 0.237742 0.526787
vt 0.237282 0.524333
vt 0.237262 0.529362
vt 0.334384 0.968447
vt 0.333596 0.971290
vt 0.332544 0.970193
vt 0.333412 0.968144
vt 0.379570 0.972657
vt 0.332228 0.968402
vt 0.330639 0.971030
vt 0.334758 0.965859
vt 0.335438 0.966431
vt 0.332668 0.965843
vt 0.335447 0.966502
vt 0.335441 0.968673
vt 0.245299 0.540722
vt 0.250664 0.540580
vt 0.245173 0.545990
vt 0.251514 0.546621
vt 0.255807 0.539735
vt 0.258428 0.546337
vt 0.260088 0.537706
vt 0.264385 0.544482
vt 0.254936 0.531552
vt 0.971266 0.263264
vt 0.966781 0.266530
vt 0.266996 0.550494
vt 0.260535 0.550883
vt 0.973815 0.269281
vt 0.969946 0.271990
vt 0.976059 0.257419
vt 0.979990 0.261311
vt 0.984625 0.254132
vt 0.977391 0.270581
vt 0.982322 0.263133
vt 0.987233 0.255568
vt 0.988965 0.256623
vt 0.984308 0.264611
vt 0.979605 0.271679
vt 0.157750 0.794558
vt 0.158602 0.796688
vt 0.150329 0.797418
vt 0.149730 0.795253
vt 0.141054 0.796004
vt 0.140954 0.798193
vt 0.992208 0.250985
vt 0.134607 0.798131
vt 0.134640 0.796183
vt 0.129481 0.798111
vt 0.129665 0.796491
vt 0.994463 0.245982
vt 0.387501 0.927745
vt 0.390693 0.923892
vt 0.124499 0.798461
vt 0.124556 0.796896
vt 0.125059 0.794305
vt 0.130019 0.793832
vt 0.134679 0.793377
vt 0.130257 0.788665
vt 0.134550 0.787962
vt 0.125298 0.789435
vt 0.117631 0.793336
vt 0.118243 0.789681
vt 0.126002 0.780275
vt 0.118770 0.781219
vt 0.110230 0.770976
vt 0.119102 0.769682
vt 0.125915 0.768217
vt 0.130073 0.778719
vt 0.130077 0.766003
vt 0.125212 0.756631
vt 0.118865 0.757942
vt 0.129443 0.755384
vt 0.129009 0.747170
vt 0.124525 0.747870
vt 0.117951 0.748075
vt 0.117310 0.742140
vt 0.123475 0.742025
vt 0.127740 0.742090
vt 0.133867 0.745666
vt 0.133673 0.753715
vt 0.131067 0.740806
vt 0.127995 0.737428
vt 0.123073 0.737393
vt 0.132280 0.737518
vt 0.136112 0.739176
vt 0.128259 0.731515
vt 0.132917 0.732381
vt 0.136726 0.734552
vt 0.133920 0.726744
vt 0.128297 0.725474
vt 0.138539 0.729675
vt 0.141606 0.726172
vt 0.135264 0.723090
vt 0.129303 0.721200
vt 0.122235 0.725227
vt 0.120788 0.720035
vt 0.122961 0.731712
vt 0.117009 0.725739
vt 0.118483 0.731365
vt 0.114952 0.722622
vt 0.216464 0.628150
vt 0.218920 0.626599
vt 0.220054 0.629965
vt 0.217799 0.633306
vt 0.128086 0.717413
vt 0.121251 0.716797
vt 0.125951 0.715543
vt 0.133071 0.717998
vt 0.132467 0.712813
vt 0.133661 0.714984
vt 0.135490 0.715915
vt 0.138360 0.715938
vt 0.142749 0.715024
vt 0.138632 0.709445
vt 0.224125 0.630939
vt 0.222650 0.626086
vt 0.227834 0.626650
vt 0.231557 0.632596
vt 0.237363 0.631002
vt 0.234037 0.626086
vt 0.221163 0.620854
vt 0.227419 0.620953
vt 0.233633 0.621591
vt 0.239213 0.622328
vt 0.238510 0.625920
vt 0.243103 0.627626
vt 0.245675 0.623249
vt 0.251972 0.624533
vt 0.248114 0.629345
vt 0.242568 0.632956
vt 0.253327 0.631327
vt 0.257289 0.625877
vt 0.145510 0.718612
vt 0.147425 0.714227
vt 0.150417 0.718216
vt 0.138756 0.719881
vt 0.151823 0.721735
vt 0.148967 0.722611
vt 0.144947 0.723859
vt 0.149508 0.728489
vt 0.145957 0.730848
vt 0.152808 0.726750
vt 0.157509 0.731332
vt 0.153258 0.733057
vt 0.148011 0.735017
vt 0.142347 0.732527
vt 0.142170 0.736060
vt 0.149067 0.738716
vt 0.142039 0.739863
vt 0.155041 0.737370
vt 0.156222 0.741293
vt 0.149462 0.742931
vt 0.141198 0.744586
vt 0.149762 0.748433
vt 0.140352 0.750963
vt 0.139619 0.760993
vt 0.133824 0.763387
vt 0.149885 0.758132
vt 0.157521 0.745726
vt 0.158751 0.755966
vt 0.163089 0.744085
vt 0.162553 0.754292
vt 0.159577 0.740127
vt 0.163015 0.767347
vt 0.158673 0.769825
vt 0.149632 0.772321
vt 0.157792 0.782740
vt 0.149439 0.785391
vt 0.162025 0.780708
vt 0.269541 0.587904
vt 0.270240 0.573867
vt 0.272296 0.573691
vt 0.271649 0.586814
vt 0.165358 0.752407
vt 0.165194 0.765537
vt 0.269428 0.600658
vt 0.264445 0.601767
vt 0.265216 0.588630
vt 0.265999 0.574736
vt 0.255851 0.602570
vt 0.254794 0.590003
vt 0.255896 0.576531
vt 0.266384 0.564482
vt 0.270208 0.563744
vt 0.257124 0.566244
vt 0.247242 0.591597
vt 0.247060 0.578630
vt 0.248359 0.567622
vt 0.243181 0.569018
vt 0.242646 0.580032
vt 0.242787 0.592190
vt 0.249042 0.603679
vt 0.242659 0.601605
vt 0.237513 0.600995
vt 0.238420 0.592751
vt 0.238551 0.581745
vt 0.230945 0.593523
vt 0.231173 0.583229
vt 0.230261 0.601172
vt 0.229476 0.606396
vt 0.236749 0.606552
vt 0.242357 0.606636
vt 0.218221 0.606651
vt 0.218057 0.601833
vt 0.218153 0.594756
vt 0.217366 0.602136
vt 0.217460 0.594900
vt 0.217670 0.607539
vt 0.217213 0.584940
vt 0.218113 0.584866
vt 0.217997 0.573819
vt 0.231660 0.571937
vt 0.217110 0.574221
vt 0.216853 0.594851
vt 0.216830 0.585052
vt 0.216301 0.575766
vt 0.216722 0.571539
vt 0.211345 0.575339
vt 0.212063 0.587176
vt 0.207971 0.576738
vt 0.208958 0.589254
vt 0.212278 0.597005
vt 0.208941 0.599228
vt 0.105291 0.760347
vt 0.110129 0.758639
vt 0.104946 0.772364
vt 0.104586 0.749071
vt 0.109754 0.748336
vt 0.212399 0.605477
vt 0.207823 0.609287
vt 0.105372 0.738567
vt 0.110811 0.740100
vt 0.112521 0.735748
vt 0.117977 0.737299
vt 0.108069 0.732953
vt 0.114488 0.731114
vt 0.111889 0.728438
vt 0.109937 0.726021
vt 0.105806 0.730685
vt 0.214107 0.623462
vt 0.216616 0.621774
vt 0.211704 0.618257
vt 0.214664 0.616947
vt 0.219517 0.616140
vt 0.212869 0.611605
vt 0.217081 0.608155
vt 0.209601 0.613674
vt 0.227705 0.613097
vt 0.227071 0.616731
vt 0.216834 0.602327
vt 0.228497 0.609724
vt 0.235669 0.610856
vt 0.234717 0.613804
vt 0.241627 0.611714
vt 0.240331 0.615126
vt 0.234054 0.617619
vt 0.239777 0.618698
vt 0.247133 0.619294
vt 0.247912 0.615476
vt 0.248382 0.612239
vt 0.254749 0.616005
vt 0.253834 0.619790
vt 0.255602 0.612496
vt 0.261078 0.617006
vt 0.261832 0.613677
vt 0.259877 0.621107
vt 0.261584 0.628156
vt 0.264456 0.622534
vt 0.265175 0.618471
vt 0.155107 0.724279
vt 0.158831 0.727546
vt 0.268427 0.619283
vt 0.267711 0.624406
vt 0.160177 0.735819
vt 0.163625 0.738244
vt 0.267070 0.614073
vt 0.269111 0.615507
vt 0.268763 0.609377
vt 0.271062 0.611776
vt 0.263324 0.609528
vt 0.255768 0.608735
vt 0.248631 0.608164
vt 0.166479 0.744069
vt 0.257052 0.631488
vt 0.103900 0.734558
vt 0.238914 0.570495
vt 0.237573 0.562701
vt 0.236991 0.559146
vt 0.241777 0.558484
vt 0.243400 0.561735
vt 0.251085 0.557289
vt 0.249570 0.561040
vt 0.245734 0.556513
vt 0.243126 0.556209
vt 0.257966 0.560874
vt 0.259932 0.557124
vt 0.268094 0.556262
vt 0.267350 0.559357
vt 0.252621 0.553912
vt 0.263318 0.554618
vt 0.268901 0.553805
vt 0.251955 0.551135
vt 0.972776 0.275170
vt 0.973612 0.277751
vt 0.970654 0.278673
vt 0.970865 0.275763
vt 0.974770 0.273977
vt 0.976172 0.276027
vt 0.166633 0.795680
vt 0.163757 0.796017
vt 0.163316 0.794055
vt 0.166298 0.793537
vt 0.270965 0.556538
vt 0.270928 0.559027
vt 0.164618 0.790712
vt 0.161803 0.790171
vt 0.157136 0.791124
vt 0.164886 0.782884
vt 0.149525 0.792288
vt 0.140690 0.792585
vt 0.139908 0.787497
vt 0.133986 0.776735
vt 0.139499 0.775026
vt 0.245947 0.553390
vt 0.245401 0.550560
vt 0.240904 0.555287
vt 0.237780 0.554852
vt 0.237036 0.556813
vt 0.240562 0.556962
vt 0.675697 0.971380
vt 0.675697 0.968566
vt 0.676228 0.969476
s 1
usemtl abyss_chancel_background_pbr
f 2/1/1 7/2/2 5/3/3 1/4/4
f 1/5/4 3/6/5 396/7/6 2/8/1
f 1/9/4 4/10/7 13/11/8 3/12/5
f 4/13/7 1/4/4 5/3/3 8/14/9
f 395/15/10 6/16/11 5/3/3 7/2/2
f 6/16/11 11/17/12 8/14/9 5/3/3
f 10/18/13 15/19/14 9/20/15 8/14/9
f 4/13/7 8/14/9 9/20/15 116/21/16
f 12/22/17 10/18/13 8/14/9 11/17/12
f 3/12/5 13/11/8 11/23/12 6/24/11
f 11/23/12 13/11/8 14/25/18 12/26/17
f 13/11/8 4/10/7 117/27/19 9/28/15
f 14/25/18 13/11/8 9/28/15 15/29/14
f 32/30/20 16/31/21 14/32/18 15/33/14
f 14/32/18 17/34/22 18/35/23 12/36/17
f 20/37/24 17/34/22 14/32/18 16/31/21
f 17/38/22 19/39/25 34/40/26 18/41/23
f 20/42/24 22/43/27 19/39/25 17/38/22
f 23/44/28 106/45/29 21/46/30 20/47/24
f 22/48/27 20/47/24 21/46/30 107/49/31
f 24/50/32 25/51/33 23/52/28 20/53/24
f 20/37/24 16/31/21 27/54/34 24/55/32
f 24/50/32 26/56/35 118/57/36 25/51/33
f 27/58/34 28/59/37 26/56/35 24/50/32
f 32/30/20 29/60/38 27/54/34 16/31/21
f 30/61/39 28/62/37 27/54/34 29/60/38
f 29/60/38 31/63/40 35/64/41 30/61/39
f 29/60/38 32/30/20 33/65/42 31/63/40
f 15/33/14 10/66/13 33/65/42 32/30/20
f 33/65/42 18/41/23 34/40/26 31/63/40
f 10/18/13 12/22/17 18/67/23 33/68/42
f 34/40/26 37/69/43 35/64/41 31/63/40
f 38/70/44 36/71/45 35/64/41 37/69/43
f 35/64/41 36/71/45 125/72/46 30/61/39
f 38/70/44 37/69/43 39/73/47 40/74/48
f 39/73/47 37/69/43 34/40/26 19/39/25
f 22/43/27 41/75/49 39/73/47 19/39/25
f 43/76/50 40/74/48 39/73/47 41/75/49
f 22/48/27 107/49/31 42/77/51 41/78/49
f 43/76/50 41/75/49 42/79/51 45/80/52
f 44/81/53 43/76/50 45/80/52 47/82/54
f 44/81/53 131/83/55 40/74/48 43/76/50
f 48/84/56 47/85/54 45/86/52 46/87/57
f 45/86/52 42/77/51 104/88/58 46/87/57
f 44/81/53 47/82/54 49/89/59 52/90/60
f 49/89/59 47/82/54 48/91/56 53/92/61
f 144/93/62 52/90/60 49/89/59 50/94/63
f 49/95/59 51/96/64 394/97/65 50/98/63
f 51/96/64 49/95/59 53/99/61 55/100/66
f 54/101/67 53/99/61 48/84/56 100/102/68
f 56/103/69 55/100/66 53/99/61 54/101/67
f 58/104/70 51/96/64 55/100/66 57/105/71
f 60/106/72 57/105/71 55/100/66 56/103/69
f 59/107/73 156/108/74 58/109/70 57/110/71
f 57/110/71 60/111/72 62/112/75 59/107/73
f 82/113/76 61/114/77 60/115/72 56/116/69
f 61/114/77 63/117/78 62/118/75 60/115/72
f 65/119/79 64/120/80 62/118/75 63/117/78
f 62/112/75 64/121/80 66/122/81 59/107/73
f 65/119/79 70/123/82 67/124/83 64/120/80
f 67/125/83 68/126/84 66/122/81 64/121/80
f 158/127/85 68/126/84 67/125/83 69/128/86
f 71/129/87 69/130/86 67/124/83 70/123/82
f 75/131/88 72/132/89 70/123/82 65/119/79
f 72/132/89 73/133/90 71/129/87 70/123/82
f 72/132/89 74/134/91 350/135/92 73/133/90
f 75/131/88 76/136/93 74/134/91 72/132/89
f 77/137/94 78/138/95 76/136/93 75/131/88
f 65/119/79 63/117/78 77/137/94 75/131/88
f 80/139/96 78/138/95 77/137/94 79/140/97
f 61/114/77 79/140/97 77/137/94 63/117/78
f 84/141/98 80/139/96 79/140/97 81/142/99
f 82/113/76 81/142/99 79/140/97 61/114/77
f 101/143/100 83/144/101 81/142/99 82/113/76
f 86/145/102 84/141/98 81/142/99 83/144/101
f 85/146/103 84/141/98 86/145/102 87/147/104
f 84/141/98 85/146/103 387/148/105 80/139/96
f 90/149/106 87/147/104 86/145/102 88/150/107
f 89/151/108 88/150/107 86/145/102 83/144/101
f 88/150/107 89/151/108 94/152/109 91/153/110
f 91/153/110 92/154/111 90/149/106 88/150/107
f 93/155/112 110/156/113 92/154/111 91/153/110
f 94/157/109 95/158/114 93/159/112 91/160/110
f 94/152/109 89/151/108 99/161/115 96/162/116
f 96/163/116 97/164/117 95/158/114 94/157/109
f 97/164/117 96/163/116 98/165/118 102/166/119
f 98/165/118 96/163/116 99/167/115 100/102/68
f 83/144/101 101/143/100 99/161/115 89/151/108
f 99/167/115 101/168/100 54/101/67 100/102/68
f 101/168/100 82/169/76 56/103/69 54/101/67
f 98/165/118 100/102/68 48/84/56 46/87/57
f 98/165/118 46/87/57 104/88/58 102/166/119
f 102/166/119 103/170/120 114/171/121 97/164/117
f 104/88/58 105/172/122 103/170/120 102/166/119
f 107/49/31 105/172/122 104/88/58 42/77/51
f 106/45/29 108/173/123 103/170/120 105/172/122
f 105/172/122 107/49/31 21/46/30 106/45/29
f 110/156/113 106/174/29 23/52/28 25/51/33
f 106/174/29 109/175/124 111/176/125 108/177/123
f 106/174/29 110/156/113 93/155/112 109/175/124
f 110/156/113 25/51/33 118/57/36 92/154/111
f 112/178/126 113/179/127 111/176/125 109/175/124
f 112/178/126 109/175/124 93/155/112 95/180/114
f 113/181/127 112/182/126 114/183/121 115/184/128
f 114/171/121 112/185/126 95/158/114 97/164/117
f 108/186/123 115/184/128 114/183/121 103/187/120
f 115/184/128 116/188/16 9/189/15 113/181/127
f 111/190/125 116/188/16 115/184/128 108/186/123
f 111/190/125 117/27/19 4/10/7 116/188/16
f 9/189/15 117/191/19 111/192/125 113/181/127
f 118/57/36 119/193/129 90/149/106 92/154/111
f 121/194/130 119/193/129 118/57/36 26/56/35
f 120/195/131 87/147/104 90/149/106 119/193/129
f 121/194/130 122/196/132 120/195/131 119/193/129
f 121/194/130 123/197/133 124/198/134 122/196/132
f 123/197/133 121/194/130 26/56/35 28/59/37
f 125/199/46 126/200/135 124/198/134 123/197/133
f 28/59/37 30/201/39 125/199/46 123/197/133
f 128/202/136 126/203/135 125/72/46 36/71/45
f 126/200/135 127/204/137 364/205/138 124/198/134
f 126/203/135 128/202/136 129/206/139 127/207/137
f 129/206/139 128/202/136 130/208/140 132/209/141
f 36/71/45 38/70/44 130/208/140 128/202/136
f 133/210/142 132/209/141 130/208/140 131/83/55
f 130/208/140 38/70/44 40/74/48 131/83/55
f 136/211/143 129/206/139 132/209/141 134/212/144
f 135/213/145 134/212/144 132/209/141 133/210/142
f 140/214/146 137/215/147 134/212/144 135/213/145
f 139/216/148 136/211/143 134/212/144 137/215/147
f 374/217/149 139/218/148 137/219/147 138/220/150
f 141/221/151 138/220/150 137/219/147 140/222/146
f 135/213/145 144/93/62 142/223/152 140/214/146
f 141/221/151 140/222/146 142/224/152 143/225/153
f 143/225/153 142/224/152 145/226/154 147/227/155
f 144/93/62 50/94/63 145/228/154 142/223/152
f 50/98/63 394/97/65 146/229/156 145/230/154
f 147/227/155 145/226/154 146/231/156 148/232/157
f 147/227/155 148/232/157 152/233/158 149/234/159
f 149/234/159 150/235/160 143/225/153 147/227/155
f 150/235/160 149/234/159 151/236/161 381/237/162
f 152/233/158 153/238/163 151/236/161 149/234/159
f 156/108/74 154/239/164 152/233/158 148/232/157
f 155/240/165 153/238/163 152/233/158 154/239/164
f 66/122/81 68/126/84 155/240/165 154/239/164
f 156/108/74 59/107/73 66/122/81 154/239/164
f 148/232/157 146/231/156 58/109/70 156/108/74
f 160/241/166 153/238/163 155/240/165 157/242/167
f 158/127/85 157/242/167 155/240/165 68/126/84
f 157/242/167 158/127/85 347/243/168 159/244/169
f 160/241/166 157/242/167 159/244/169 162/245/170
f 161/246/171 160/241/166 162/245/170 163/247/172
f 160/241/166 161/246/171 151/236/161 153/238/163
f 164/248/173 162/245/170 159/244/169 166/249/174
f 165/250/175 163/247/172 162/245/170 164/248/173
f 170/251/176 165/250/175 164/248/173 167/252/177
f 168/253/178 167/252/177 164/248/173 166/249/174
f 292/254/179 169/255/180 167/252/177 168/253/178
f 172/256/181 170/251/176 167/252/177 169/255/180
f 165/250/175 170/251/176 171/257/182 230/258/183
f 170/251/176 172/256/181 174/259/184 171/257/182
f 173/260/185 172/256/181 169/255/180 294/261/186
f 173/260/185 175/262/187 174/259/184 172/256/181
f 176/263/188 171/257/182 174/259/184 175/262/187
f 175/262/187 173/260/185 178/264/189 177/265/190
f 176/263/188 175/262/187 177/265/190 179/266/191
f 180/267/192 177/265/190 178/264/189 183/268/193
f 181/269/194 179/266/191 177/265/190 180/267/192
f 216/270/195 181/269/194 180/267/192 182/271/196
f 184/272/197 182/271/196 180/267/192 183/268/193
f 183/268/193 185/273/198 188/274/199 184/272/197
f 185/273/198 183/268/193 178/264/189 187/275/200
f 186/276/201 185/273/198 187/275/200 295/277/202
f 186/276/201 189/278/203 188/274/199 185/273/198
f 189/279/203 304/280/204 190/281/205 188/282/199
f 191/283/206 188/274/199 190/284/205 192/285/207
f 193/286/208 184/272/197 188/274/199 191/283/206
f 192/285/207 196/287/209 194/288/210 191/283/206
f 193/286/208 191/283/206 194/288/210 195/289/211
f 197/290/212 195/289/211 194/288/210 196/287/209
f 211/291/213 197/290/212 196/287/209 198/292/214
f 192/293/207 200/294/215 199/295/216 196/296/209
f 198/297/214 196/296/209 199/295/216 202/298/217
f 199/295/216 200/294/215 302/299/218 201/300/219
f 203/301/220 202/298/217 199/295/216 201/300/219
f 203/301/220 205/302/221 204/303/222 202/298/217
f 198/297/214 202/298/217 204/303/222 206/304/223
f 207/305/224 206/304/223 204/303/222 205/302/221
f 206/304/223 207/305/224 209/306/225 208/307/226
f 198/297/214 206/304/223 208/307/226 211/308/213
f 210/309/227 208/307/226 209/306/225 327/310/228
f 212/311/229 211/291/213 208/312/226 210/313/227
f 211/291/213 212/311/229 214/314/230 197/290/212
f 212/311/229 210/313/227 343/315/231 213/316/232
f 213/316/232 215/317/233 214/314/230 212/311/229
f 197/290/212 214/314/230 193/286/208 195/289/211
f 216/270/195 182/271/196 214/314/230 215/317/233
f 182/271/196 184/272/197 193/286/208 214/314/230
f 216/270/195 215/317/233 217/318/234 220/319/235
f 213/316/232 219/320/236 217/318/234 215/317/233
f 219/320/236 331/321/237 218/322/238 217/318/234
f 220/319/235 217/318/234 218/322/238 222/323/239
f 216/270/195 220/319/235 221/324/240 181/269/194
f 222/323/239 223/325/241 221/324/240 220/319/235
f 223/325/241 222/323/239 224/326/242 227/327/243
f 218/322/238 225/328/244 224/326/242 222/323/239
f 225/328/244 236/329/245 226/330/246 224/326/242
f 227/327/243 224/326/242 226/330/246 228/331/247
f 179/266/191 223/325/241 227/327/243 176/263/188
f 227/327/243 228/331/247 171/257/182 176/263/188
f 228/331/247 226/330/246 232/332/248 229/333/249
f 229/333/249 230/258/183 171/257/182 228/331/247
f 230/258/183 229/333/249 231/334/250 384/335/251
f 229/333/249 232/332/248 233/336/252 231/334/250
f 234/337/253 237/338/254 233/336/252 232/332/248
f 236/329/245 234/337/253 232/332/248 226/330/246
f 237/338/254 234/337/253 235/339/255 238/340/256
f 236/329/245 334/341/257 235/339/255 234/337/253
f 237/338/254 238/340/256 242/342/258 239/343/259
f 233/336/252 237/338/254 239/343/259 240/344/260
f 239/343/259 241/345/261 378/346/262 240/344/260
f 242/342/258 243/347/263 241/345/261 239/343/259
f 244/348/264 246/349/265 243/350/263 242/351/258
f 238/340/256 245/352/266 244/353/264 242/342/258
f 245/354/266 248/355/267 247/356/268 244/348/264
f 247/356/268 250/357/269 246/349/265 244/348/264
f 341/358/270 249/359/271 247/356/268 248/355/267
f 252/360/272 250/357/269 247/356/268 249/359/271
f 251/361/273 372/362/274 246/349/265 250/357/269
f 250/357/269 252/360/272 253/363/275 251/361/273
f 249/359/271 257/364/276 254/365/277 252/360/272
f 254/365/277 255/366/278 253/363/275 252/360/272
f 356/367/279 255/366/278 254/365/277 256/368/280
f 259/369/281 256/368/280 254/365/277 257/364/276
f 259/369/281 257/364/276 258/370/282 260/371/283
f 249/359/271 341/358/270 258/370/282 257/364/276
f 259/369/281 260/371/283 264/372/284 261/373/285
f 261/373/285 262/374/286 256/368/280 259/369/281
f 263/375/287 274/376/288 262/374/286 261/373/285
f 264/372/284 266/377/289 263/375/287 261/373/285
f 267/378/290 266/377/289 264/372/284 265/379/291
f 342/380/292 265/379/291 264/372/284 260/371/283
f 266/377/289 267/378/290 270/381/293 268/382/294
f 266/377/289 268/382/294 271/383/295 263/375/287
f 268/382/294 269/384/296 272/385/297 271/383/295
f 269/384/296 268/382/294 270/381/293 311/386/298
f 271/383/295 272/385/297 276/387/299 273/388/300
f 274/376/288 263/375/287 271/383/295 273/388/300
f 273/388/300 275/389/301 348/390/302 274/376/288
f 275/389/301 273/388/300 276/387/299 278/391/303
f 345/392/304 277/393/305 276/387/299 272/385/297
f 276/387/299 277/393/305 279/394/306 278/391/303
f 73/133/90 275/389/301 278/391/303 280/395/307
f 278/391/303 279/394/306 280/395/307
f 280/395/307 71/129/87 73/133/90
f 71/129/87 280/395/307 279/394/306 281/396/308
f 279/394/306 277/393/305 283/397/309 281/396/308
f 281/396/308 282/398/310 69/130/86 71/129/87
f 281/396/308 283/397/309 285/399/311 282/398/310
f 345/392/304 284/400/312 283/397/309 277/393/305
f 284/400/312 287/401/313 285/399/311 283/397/309
f 285/402/311 286/403/314 347/243/168 282/404/310
f 287/405/313 289/406/315 286/403/314 285/402/311
f 284/400/312 344/407/316 288/408/317 287/401/313
f 289/406/315 287/405/313 288/409/317 290/410/318
f 289/406/315 290/410/318 292/254/179 168/253/178
f 286/403/314 289/406/315 168/253/178 166/249/174
f 291/411/319 293/412/320 292/254/179 290/410/318
f 291/411/319 290/410/318 288/409/317 298/413/321
f 293/412/320 294/261/186 169/255/180 292/254/179
f 293/412/320 291/411/319 296/414/322 295/277/202
f 295/277/202 187/275/200 294/261/186 293/412/320
f 186/276/201 295/277/202 296/414/322 297/415/323
f 298/413/321 297/415/323 296/414/322 291/411/319
f 186/276/201 297/415/323 299/416/324 189/278/203
f 298/413/321 300/417/325 299/416/324 297/415/323
f 189/279/203 299/418/324 301/419/326 304/280/204
f 300/420/325 303/421/327 301/419/326 299/418/324
f 200/294/215 304/280/204 301/419/326 302/299/218
f 301/419/326 303/421/327 306/422/328 302/299/218
f 200/294/215 192/293/207 190/281/205 304/280/204
f 305/423/329 308/424/330 306/422/328 303/421/327
f 303/421/327 300/420/325 346/425/331 305/423/329
f 308/424/330 310/426/332 307/427/333 306/422/328
f 302/299/218 306/422/328 307/427/333 201/300/219
f 344/407/316 309/428/334 308/424/330 305/423/329
f 269/384/296 311/386/298 308/424/330 309/428/334
f 312/429/335 310/426/332 308/424/330 311/386/298
f 312/429/335 311/386/298 270/381/293 267/378/290
f 310/426/332 312/429/335 313/430/336 315/431/337
f 312/429/335 267/378/290 265/379/291 313/430/336
f 265/379/291 342/380/292 314/432/338 313/430/336
f 313/430/336 314/432/338 317/433/339 315/431/337
f 307/427/333 310/426/332 315/431/337 316/434/340
f 316/434/340 315/431/337 317/433/339 318/435/341
f 320/436/342 318/435/341 317/433/339 319/437/343
f 321/438/344 319/437/343 317/433/339 314/432/338
f 320/436/342 319/437/343 322/439/345 325/440/346
f 319/437/343 321/438/344 323/441/347 322/439/345
f 324/442/348 322/439/345 323/441/347 337/443/349
f 326/444/350 325/440/346 322/439/345 324/442/348
f 207/305/224 320/436/342 325/440/346 209/306/225
f 327/310/228 209/306/225 325/440/346 326/444/350
f 329/445/351 327/310/228 326/444/350 328/446/352
f 330/447/353 328/446/352 326/444/350 324/442/348
f 219/320/236 329/448/351 328/449/352 331/321/237
f 328/446/352 330/447/353 332/450/354 331/451/237
f 218/322/238 331/321/237 332/452/354 225/328/244
f 235/339/255 334/341/257 332/452/354 333/453/355
f 335/454/356 333/455/355 332/450/354 330/447/353
f 236/329/245 225/328/244 332/452/354 334/341/257
f 335/454/356 336/456/357 235/457/255 333/455/355
f 335/454/356 330/447/353 324/442/348 337/443/349
f 335/454/356 337/443/349 338/458/358 336/456/357
f 323/441/347 339/459/359 338/458/358 337/443/349
f 336/456/357 338/458/358 248/355/267 245/354/266
f 339/459/359 341/358/270 248/355/267 338/458/358
f 340/460/360 339/459/359 323/441/347 321/438/344
f 339/459/359 340/460/360 258/370/282 341/358/270
f 340/460/360 321/438/344 314/432/338 342/380/292
f 342/380/292 260/371/283 258/370/282 340/460/360
f 245/352/266 238/340/256 235/339/255 336/461/357
f 327/310/228 329/445/351 343/462/231 210/309/227
f 219/320/236 213/316/232 343/315/231 329/448/351
f 205/302/221 318/435/341 320/436/342 207/305/224
f 205/302/221 203/301/220 316/434/340 318/435/341
f 203/301/220 201/300/219 307/427/333 316/434/340
f 344/407/316 284/400/312 345/392/304 309/428/334
f 309/428/334 345/392/304 272/385/297 269/384/296
f 305/423/329 346/425/331 288/408/317 344/407/316
f 300/417/325 298/413/321 288/409/317 346/463/331
f 178/264/189 173/260/185 294/261/186 187/275/200
f 166/249/174 159/244/169 347/243/168 286/403/314
f 347/243/168 158/127/85 69/128/86 282/404/310
f 73/133/90 350/135/92 348/390/302 275/389/301
f 348/390/302 349/464/361 262/374/286 274/376/288
f 351/465/362 349/464/361 348/390/302 350/135/92
f 352/466/363 351/465/362 350/135/92 74/134/91
f 352/466/363 355/467/364 353/468/365 351/465/362
f 349/464/361 351/465/362 353/468/365 356/367/279
f 358/469/366 357/470/367 353/468/365 354/471/368
f 389/472/369 354/471/368 353/468/365 355/467/364
f 255/366/278 356/367/279 353/468/365 357/470/367
f 255/366/278 357/470/367 359/473/370 253/363/275
f 358/469/366 361/474/371 359/473/370 357/470/367
f 361/474/371 362/475/372 360/476/373 359/473/370
f 253/363/275 359/473/370 360/476/373 251/361/273
f 361/474/371 358/469/366 365/477/374 363/478/375
f 362/475/372 361/474/371 363/478/375 366/479/376
f 365/477/374 385/480/377 364/205/138 363/478/375
f 127/204/137 366/479/376 363/478/375 364/205/138
f 367/481/378 369/482/379 362/483/372 366/484/376
f 366/484/376 127/207/137 129/206/139 367/481/378
f 129/206/139 136/211/143 368/485/380 367/481/378
f 369/482/379 367/481/378 368/485/380 370/486/381
f 369/487/379 370/488/381 373/489/382 371/490/383
f 362/475/372 369/491/379 371/492/383 360/476/373
f 251/361/273 360/476/373 371/492/383 372/362/274
f 372/493/274 371/490/383 373/489/382 375/494/384
f 370/488/381 139/218/148 374/217/149 373/489/382
f 375/494/384 373/489/382 374/217/149 376/495/385
f 375/494/384 376/495/385 241/345/261 243/347/263
f 372/493/274 375/494/384 243/347/263 246/496/265
f 377/497/386 376/495/385 374/217/149 138/220/150
f 376/495/385 377/497/386 378/346/262 241/345/261
f 138/220/150 141/221/151 379/498/387 377/497/386
f 378/346/262 377/497/386 379/498/387 380/499/388
f 379/498/387 141/221/151 143/225/153 150/235/160
f 381/237/162 380/499/388 379/498/387 150/235/160
f 380/499/388 381/237/162 383/500/389 382/501/390
f 382/501/390 240/344/260 378/346/262 380/499/388
f 382/501/390 231/334/250 233/336/252 240/344/260
f 383/500/389 384/335/251 231/334/250 382/501/390
f 163/247/172 384/335/251 383/500/389 161/246/171
f 151/236/161 161/246/171 383/500/389 381/237/162
f 230/258/183 384/335/251 163/247/172 165/250/175
f 139/216/148 370/486/381 368/485/380 136/211/143
f 386/502/391 388/503/392 385/480/377 365/477/374
f 354/471/368 386/502/391 365/477/374 358/469/366
f 354/471/368 389/472/369 387/148/105 386/502/391
f 388/503/392 386/502/391 387/148/105 85/146/103
f 85/146/103 87/147/104 120/195/131 388/503/392
f 385/480/377 388/503/392 120/195/131 122/196/132
f 387/148/105 389/472/369 392/504/393 390/505/394
f 78/138/95 80/139/96 387/148/105 390/505/394
f 390/505/394 391/506/395 76/136/93 78/138/95
f 391/506/395 390/505/394 392/504/393 393/507/396
f 355/467/364 393/507/396 392/504/393 389/472/369
f 352/466/363 391/506/395 393/507/396 355/467/364
f 391/506/395 352/466/363 74/134/91 76/136/93
f 122/196/132 124/198/134 364/205/138 385/480/377
f 349/464/361 356/367/279 256/368/280 262/374/286
f 179/266/191 181/269/194 221/324/240 223/325/241
f 394/97/65 51/96/64 58/104/70 146/229/156
f 52/90/60 144/93/62 135/213/145 133/210/142
f 44/81/53 52/90/60 133/210/142 131/83/55
f 395/508/10 7/509/2 2/510/1
f 396/7/6 395/15/10 2/8/1
f 6/16/11 395/15/10 396/7/6 3/6/5
