# Blender 5.2.0 LTS
# www.blender.org
mtllib terrain-abyss-chancel-object-002.mtl
o terrain-abyss-chancel-object-002
v -0.903600 0.878473 0.082421
v -0.903128 0.878210 0.085407
v -0.904859 0.879564 0.082798
v -0.904299 0.877023 0.083033
v -0.904979 0.878499 0.080239
v -0.905496 0.877074 0.080636
v -0.906767 0.878711 0.078592
v -0.905996 0.879815 0.081204
v -0.907431 0.879853 0.079612
v -0.907640 0.879975 0.082672
v -0.908868 0.880040 0.081193
v -0.906165 0.879562 0.084158
v -0.908592 0.878897 0.083777
v -0.910353 0.879591 0.082587
v -0.906682 0.878318 0.084928
v -0.908312 0.877354 0.083351
v -0.906175 0.877071 0.083656
v -0.908049 0.876590 0.082275
v -0.910402 0.877743 0.082779
v -0.909465 0.876702 0.081615
v -0.912292 0.878176 0.081659
v -0.913906 0.878401 0.080106
v -0.911204 0.876819 0.080736
v -0.911932 0.879960 0.081071
v -0.910093 0.880095 0.079684
v -0.912949 0.880008 0.079211
v -0.911206 0.880145 0.078542
v -0.913303 0.879583 0.077301
v -0.910925 0.879562 0.077274
v -0.914799 0.878367 0.078224
v -0.913658 0.878667 0.075865
v -0.913373 0.877307 0.075766
v -0.915000 0.877891 0.076706
v -0.910783 0.878667 0.076115
v -0.911110 0.877194 0.076749
v -0.908570 0.878789 0.077221
v -0.908928 0.879749 0.078241
v -0.909086 0.877285 0.077796
v -0.910007 0.876576 0.079181
v -0.907261 0.877283 0.078990
v -0.908328 0.876619 0.080209
v -0.906679 0.876672 0.081558
v -0.911902 0.876659 0.078150
v -0.914012 0.876956 0.077083
v -0.912859 0.876924 0.079600
v -0.914236 0.877031 0.078538
v -0.904750 0.878159 0.085295
v -0.904828 0.879235 0.085232
v -0.904022 0.879262 0.084484
vn 0.4452 -0.8940 0.0510
vn 0.9520 0.0685 -0.2985
vn 0.8582 -0.0356 0.5120
vn 0.1726 -0.3115 0.9344
vn 0.4221 0.9030 -0.0806
vn 0.4626 0.8505 0.2502
vn 0.7755 0.1583 -0.6111
vn 0.3549 0.9132 -0.2003
vn 0.4938 -0.7712 -0.4017
vn 0.4200 -0.7137 -0.5606
vn 0.6350 0.1976 -0.7468
vn 0.3013 0.9054 -0.2992
vn -0.1077 0.8654 0.4894
vn -0.0549 0.9549 0.2917
vn -0.0011 0.9935 0.1139
vn -0.3581 0.6372 0.6825
vn -0.4016 0.3115 0.8612
vn -0.3432 -0.1223 0.9313
vn -0.4808 -0.4065 0.7769
vn -0.3114 -0.6703 0.6736
vn -0.0600 -0.8892 0.4535
vn -0.0941 -0.9594 0.2660
vn 0.0928 -0.9957 0.0033
vn -0.1974 -0.9389 0.2818
vn -0.6477 -0.1886 0.7382
vn -0.2860 -0.9016 0.3246
vn -0.3975 0.7900 0.4667
vn -0.8222 0.0531 0.5667
vn -0.3967 -0.8528 0.3396
vn -0.4382 0.8893 0.1308
vn 0.0384 0.9988 -0.0313
vn 0.0059 0.9851 -0.1719
vn -0.3664 0.8858 -0.2849
vn 0.0925 0.8806 -0.4647
vn -0.9687 0.1834 0.1672
vn 0.2900 0.2714 -0.9177
vn -0.3619 0.3614 -0.8593
vn -0.9235 -0.0131 -0.3834
vn 0.2440 -0.7087 -0.6620
vn -0.1075 -0.5966 -0.7953
vn -0.4648 -0.8472 -0.2575
vn 0.2483 0.8838 -0.3966
vn 0.5023 0.2088 -0.8391
vn 0.3586 -0.7227 -0.5909
vn 0.0588 -0.9901 -0.1271
vn -0.0093 -0.9930 -0.1178
vn 0.0924 -0.9850 -0.1460
vn -0.6012 -0.7507 0.2739
vn -0.0174 0.7037 0.7102
vt 0.436880 0.969538
vt 0.437968 0.969651
vt 0.437366 0.970497
vt 0.436659 0.970817
vt 0.438817 0.969774
vt 0.438097 0.970918
vt 0.437912 0.968555
vt 0.438884 0.968921
vt 0.437014 0.968442
vt 0.437155 0.967422
vt 0.438030 0.967501
vt 0.438905 0.967755
vt 0.436459 0.978344
vt 0.435507 0.978399
vt 0.435453 0.977457
vt 0.436519 0.977338
vt 0.436344 0.976394
vt 0.435295 0.976347
vt 0.437353 0.976365
vt 0.437455 0.977443
vt 0.437268 0.978508
vt 0.438238 0.976575
vt 0.438263 0.977603
vt 0.438317 0.978629
vt 0.438948 0.977635
vt 0.439300 0.978311
vt 0.439085 0.976807
vt 0.438236 0.975506
vt 0.439126 0.975860
vt 0.437364 0.975281
vt 0.438375 0.974389
vt 0.439287 0.974795
vt 0.437227 0.974367
vt 0.436277 0.975430
vt 0.436301 0.974627
vt 0.436884 0.973496
vt 0.435733 0.974194
vt 0.438334 0.973424
vt 0.438781 0.963332
vt 0.438889 0.965289
vt 0.438179 0.965317
vt 0.437815 0.964065
vt 0.437012 0.963781
vt 0.436812 0.963285
vt 0.437172 0.965431
vt 0.437204 0.964451
vt 0.436521 0.964306
vt 0.438915 0.966686
vt 0.438227 0.966467
vt 0.437292 0.966436
vt 0.436336 0.966360
vt 0.436208 0.965315
vt 0.436267 0.967351
vt 0.436124 0.968460
vt 0.435387 0.967158
vt 0.435403 0.966114
vt 0.435441 0.967991
vt 0.435854 0.969484
vt 0.435189 0.965015
vt 0.435753 0.964147
vt 0.439145 0.973874
vt 0.435396 0.975297
vt 0.435534 0.970388
vt 0.436916 0.979331
vt 0.436458 0.979127
vt 0.437235 0.971243
vt 0.435867 0.979200
s 1
usemtl abyss_chancel_background_pbr
f 4/1/1 1/2/2 2/3/3 47/4/4
f 1/2/2 3/5/5 49/6/6 2/3/3
f 3/5/5 1/2/2 5/7/7 8/8/8
f 4/1/1 6/9/9 5/7/7 1/2/2
f 5/7/7 6/9/9 40/10/10 7/11/11
f 9/12/12 8/8/8 5/7/7 7/11/11
f 12/13/13 3/14/5 8/15/8 10/16/14
f 11/17/15 10/16/14 8/15/8 9/18/12
f 14/19/16 13/20/17 10/16/14 11/17/15
f 15/21/18 12/13/13 10/16/14 13/20/17
f 19/22/19 16/23/20 13/20/17 14/19/16
f 17/24/21 15/21/18 13/20/17 16/23/20
f 17/24/21 16/23/20 18/25/22 42/26/23
f 19/22/19 20/27/24 18/25/22 16/23/20
f 19/22/19 21/28/25 23/29/26 20/27/24
f 21/28/25 19/22/19 14/19/16 24/30/27
f 23/29/26 21/28/25 22/31/28 45/32/29
f 24/30/27 26/33/30 22/31/28 21/28/25
f 25/34/31 24/30/27 14/19/16 11/17/15
f 24/30/27 25/34/31 27/35/32 26/33/30
f 28/36/33 26/33/30 27/35/32 29/37/34
f 28/36/33 30/38/35 22/31/28 26/33/30
f 28/39/33 29/40/34 34/41/36 31/42/37
f 28/39/33 31/42/37 33/43/38 30/44/35
f 34/41/36 35/45/39 32/46/40 31/42/37
f 33/43/38 31/42/37 32/46/40 44/47/41
f 29/40/34 37/48/42 36/49/43 34/41/36
f 35/45/39 34/41/36 36/49/43 38/50/44
f 36/49/43 37/48/42 9/12/12 7/11/11
f 36/49/43 7/11/11 40/10/10 38/50/44
f 35/45/39 38/50/44 39/51/45 43/52/46
f 40/10/10 41/53/47 39/51/45 38/50/44
f 42/54/23 41/53/47 40/10/10 6/9/9
f 41/53/47 20/55/24 23/56/26 39/51/45
f 41/53/47 42/54/23 18/57/22 20/55/24
f 17/58/21 42/54/23 6/9/9 4/1/1
f 43/52/46 39/51/45 23/56/26 45/59/29
f 43/52/46 44/47/41 32/46/40 35/45/39
f 43/52/46 45/59/29 46/60/48 44/47/41
f 22/31/28 30/38/35 46/61/48 45/32/29
f 46/60/48 30/44/35 33/43/38 44/47/41
f 37/62/42 25/34/31 11/17/15 9/18/12
f 37/62/42 29/37/34 27/35/32 25/34/31
f 47/4/4 15/63/18 17/58/21 4/1/1
f 15/21/18 47/64/4 48/65/49 12/13/13
f 47/4/4 2/3/3 49/6/6 48/66/49
f 12/13/13 48/65/49 49/67/6 3/14/5
