# Blender 5.2.0 LTS
# www.blender.org
mtllib terrain-abyss-chancel-object-041.mtl
o terrain-abyss-chancel-object-041
v -0.639933 0.877751 0.078783
v -0.642538 0.875020 0.081623
v -0.644524 0.877933 0.076551
v -0.636525 0.878240 0.073252
v -0.634948 0.877205 0.080673
v -0.630046 0.876704 0.082671
v -0.637452 0.873937 0.083383
v -0.631453 0.877756 0.075284
v -0.626506 0.877272 0.077224
v -0.627851 0.877932 0.069810
v -0.633069 0.878476 0.067614
v -0.623894 0.877902 0.064368
v -0.622813 0.877397 0.072017
v -0.618020 0.876855 0.074205
v -0.618860 0.877203 0.066919
v -0.614698 0.876389 0.062044
v -0.614249 0.876526 0.069397
v -0.610376 0.875702 0.064762
v -0.610059 0.875947 0.071735
v -0.605939 0.874935 0.074027
v -0.606612 0.875305 0.067051
v -0.613496 0.876298 0.076302
v -0.609055 0.875240 0.078483
v -0.616999 0.876413 0.080957
v -0.620404 0.876070 0.086059
v -0.621620 0.876820 0.079182
v -0.612462 0.875498 0.082824
v -0.611279 0.871413 0.084008
v -0.615789 0.875584 0.087021
v -0.612953 0.871987 0.087321
v -0.618637 0.872793 0.090184
v -0.622098 0.873136 0.089494
v -0.616634 0.869885 0.087915
v -0.621103 0.868187 0.087606
v -0.614426 0.867179 0.083992
v -0.619048 0.864646 0.083277
v -0.611417 0.864964 0.078387
v -0.616129 0.862127 0.077286
v -0.608775 0.870147 0.078846
v -0.608578 0.864572 0.072360
v -0.605651 0.869548 0.073929
v -0.605819 0.865623 0.066319
v -0.613227 0.861367 0.070337
v -0.619097 0.860398 0.067917
v -0.610317 0.862627 0.063382
v -0.607603 0.865737 0.057754
v -0.616260 0.861419 0.060285
v -0.613116 0.864133 0.052521
v -0.622076 0.860577 0.057700
v -0.619553 0.862526 0.050565
v -0.628241 0.860537 0.055159
v -0.625165 0.859977 0.065452
v -0.631549 0.860092 0.062612
v -0.628126 0.860049 0.073091
v -0.630586 0.862469 0.079691
v -0.621922 0.860772 0.075314
v -0.634510 0.860777 0.070175
v -0.640518 0.863088 0.066650
v -0.637120 0.862372 0.077267
v -0.643452 0.864310 0.073719
v -0.638049 0.867385 0.081800
v -0.643694 0.869619 0.079702
v -0.632300 0.866964 0.084542
v -0.626754 0.867211 0.086297
v -0.632300 0.873472 0.085572
v -0.627472 0.873322 0.088016
v -0.625056 0.876306 0.084565
v -0.624464 0.863069 0.081706
v -0.647480 0.873514 0.076638
v -0.646643 0.876451 0.079307
v -0.647145 0.876872 0.074655
v -0.645826 0.870467 0.070947
v -0.645145 0.876649 0.070062
v -0.642998 0.869360 0.064173
v -0.639748 0.869380 0.057596
v -0.642406 0.876508 0.063870
v -0.639340 0.876816 0.057364
v -0.638924 0.879169 0.065195
v -0.635389 0.879331 0.059095
v -0.641812 0.878771 0.071196
v -0.630774 0.879124 0.052689
v -0.629365 0.878538 0.061860
v -0.624618 0.877984 0.056184
v -0.619257 0.877085 0.059204
v -0.619573 0.875301 0.051288
v -0.625955 0.876753 0.046935
v -0.614631 0.874432 0.054779
v -0.615232 0.870118 0.045732
v -0.610720 0.864082 0.043750
v -0.598932 0.871827 0.039510
v -0.624127 0.869622 0.043449
v -0.621967 0.875276 0.032899
v -0.611248 0.870594 0.051805
v -0.606465 0.871403 0.055677
v -0.604186 0.874461 0.058638
v -0.610321 0.874288 0.057949
v -0.602353 0.870503 0.058333
v -0.603371 0.868231 0.061029
v -0.601386 0.874111 0.060316
v -0.601266 0.871893 0.063188
v -0.603209 0.874827 0.062671
v -0.600513 0.874923 0.065067
v -0.606531 0.874756 0.060660
v -0.603165 0.875030 0.068988
v -0.603702 0.870400 0.068260
v -0.611783 0.879327 0.033674
v -0.625745 0.869578 0.029619
v -0.628492 0.876669 0.012452
v -0.630060 0.877151 -0.002479
v -0.624104 0.882188 0.018056
v -0.635593 0.882711 0.008908
v -0.633139 0.872396 0.012270
v -0.638554 0.879626 0.015436
v -0.626708 0.865707 0.016554
v -0.637336 0.869496 0.018229
v -0.631937 0.865747 0.009685
v -0.645313 0.863175 0.022554
v -0.644229 0.875900 0.019588
v -0.650897 0.872229 0.022635
v -0.649720 0.885148 0.019302
v -0.656173 0.890060 0.013834
v -0.644708 0.887483 0.014001
v -0.654044 0.881868 0.022945
v -0.660810 0.882245 0.017559
v -0.659920 0.870251 0.018457
v -0.666947 0.883691 0.009141
v -0.671869 0.885384 -0.000306
v -0.666824 0.871577 0.009284
v -0.662196 0.891491 0.005367
v -0.666919 0.891547 -0.004398
v -0.655210 0.892886 -0.000509
v -0.650083 0.891977 0.008104
v -0.648031 0.890676 -0.006417
v -0.660399 0.892482 -0.009783
v -0.665663 0.887119 -0.017854
v -0.653463 0.888315 -0.014984
v -0.658290 0.883097 -0.021345
v -0.645663 0.884451 -0.021576
v -0.649239 0.878897 -0.026662
v -0.641997 0.884274 -0.010818
v -0.636937 0.882788 -0.026689
v -0.634264 0.884001 -0.014269
v -0.627450 0.879791 -0.028319
v -0.639511 0.875402 -0.031991
v -0.640972 0.868887 -0.030956
v -0.629648 0.871815 -0.032104
v -0.626981 0.869687 -0.031151
v -0.634577 0.867054 -0.032729
v -0.623041 0.869101 -0.028140
v -0.617017 0.866020 -0.028920
v -0.621718 0.876532 -0.026130
v -0.624965 0.863652 -0.027786
v -0.632408 0.861835 -0.025252
v -0.624016 0.861971 -0.022978
v -0.622634 0.862372 -0.015787
v -0.631095 0.862324 -0.018765
v -0.629069 0.865373 -0.011853
v -0.638702 0.863041 -0.014752
v -0.636793 0.865667 -0.007462
v -0.640568 0.862095 -0.022065
v -0.646128 0.861937 -0.008337
v -0.654601 0.860057 -0.001313
v -0.649606 0.862277 -0.016813
v -0.640679 0.862407 0.000130
v -0.647612 0.859157 0.007859
v -0.639266 0.859772 0.015377
v -0.655202 0.860602 0.015081
v -0.663138 0.861065 0.005588
v -0.669674 0.863593 -0.004238
v -0.672284 0.874886 0.000420
v -0.672361 0.870075 -0.013392
v -0.659743 0.860881 -0.010549
v -0.662983 0.865684 -0.018515
v -0.651689 0.864968 -0.024033
v -0.661597 0.874613 -0.021358
v -0.669749 0.878518 -0.018004
v -0.651252 0.871358 -0.026834
v -0.673909 0.883690 -0.009722
v -0.670267 0.889063 -0.013254
v -0.675326 0.877652 -0.006539
v -0.641453 0.864174 -0.028163
v -0.633159 0.864106 -0.030692
v -0.631056 0.868184 0.000918
v -0.626541 0.862910 -0.003415
v -0.624430 0.862075 0.006518
v -0.620638 0.860087 -0.007233
v -0.614049 0.859491 -0.010804
v -0.617914 0.859777 0.004289
v -0.610454 0.859060 0.002459
v -0.614761 0.860161 0.017579
v -0.621585 0.862091 0.017271
v -0.607789 0.858922 0.018472
v -0.614611 0.860653 0.031406
v -0.617580 0.863500 0.042687
v -0.608378 0.859583 0.032971
v -0.619966 0.861502 0.030223
v -0.624385 0.864443 0.029742
v -0.622027 0.863253 0.041546
v -0.625149 0.864611 0.040844
v -0.625208 0.862432 0.048811
v -0.629647 0.864411 0.046832
v -0.630363 0.870379 0.046433
v -0.633719 0.863443 0.052540
v -0.637852 0.862691 0.059238
v -0.635482 0.870057 0.051411
v -0.635563 0.877136 0.050551
v -0.631130 0.878277 0.043440
v -0.596531 0.859831 0.032088
v -0.597374 0.864827 0.039656
v -0.597838 0.857996 0.018613
v -0.576279 0.858403 0.029196
v -0.582927 0.862671 0.042036
v -0.555418 0.856234 0.034270
v -0.582048 0.858559 0.013637
v -0.551545 0.857281 0.011249
v -0.560472 0.858118 0.000565
v -0.536634 0.855905 -0.000869
v -0.539931 0.856796 0.018147
v -0.529325 0.855237 0.008381
v -0.531937 0.856487 0.023347
v -0.543436 0.856191 0.038050
v -0.525386 0.858098 0.027467
v -0.523012 0.854694 0.015886
v -0.517649 0.857086 0.020658
v -0.516022 0.854067 0.011917
v -0.511330 0.856052 0.016527
v -0.512443 0.854972 0.008404
v -0.521634 0.854616 0.003194
v -0.515615 0.855906 -0.000211
v -0.528007 0.855445 -0.007692
v -0.536509 0.856419 -0.018780
v -0.520736 0.856244 -0.012265
v -0.528774 0.857819 -0.024728
v -0.514110 0.860455 -0.014741
v -0.510958 0.858817 -0.001569
v -0.511376 0.867389 -0.014797
v -0.522104 0.863044 -0.029343
v -0.519593 0.871647 -0.030388
v -0.539158 0.866127 -0.045192
v -0.537851 0.875785 -0.044662
v -0.552325 0.867387 -0.060469
v -0.544208 0.860337 -0.041021
v -0.551923 0.858002 -0.034290
v -0.557173 0.859053 -0.055603
v -0.565017 0.856724 -0.047547
v -0.567128 0.860747 -0.064776
v -0.574834 0.857789 -0.057190
v -0.574361 0.861822 -0.070316
v -0.562710 0.868325 -0.069506
v -0.573905 0.868977 -0.073071
v -0.562040 0.880172 -0.069946
v -0.561347 0.894060 -0.069541
v -0.551562 0.878749 -0.060527
v -0.573787 0.880420 -0.075477
v -0.586538 0.881356 -0.070733
v -0.572895 0.895711 -0.075533
v -0.570506 0.909999 -0.073841
v -0.583765 0.896646 -0.071247
v -0.582067 0.910965 -0.070772
v -0.591621 0.897147 -0.058842
v -0.590049 0.911216 -0.058845
v -0.600399 0.897275 -0.043240
v -0.593668 0.882405 -0.058168
v -0.602554 0.882864 -0.043210
v -0.594590 0.869873 -0.057267
v -0.602186 0.870916 -0.044121
v -0.585199 0.869026 -0.068493
v -0.591853 0.859654 -0.054944
v -0.582189 0.860493 -0.064857
v -0.583349 0.857455 -0.047715
v -0.599507 0.861377 -0.042679
v -0.609846 0.861560 -0.038517
v -0.593201 0.858078 -0.035398
v -0.584849 0.857583 -0.026284
v -0.604296 0.860112 -0.029401
v -0.614257 0.863072 -0.027375
v -0.597373 0.860074 -0.018544
v -0.607543 0.859646 -0.014851
v -0.589453 0.858521 -0.003801
v -0.573507 0.858424 -0.014309
v -0.601601 0.858908 0.000761
v -0.560719 0.856942 -0.026014
v -0.545686 0.856980 -0.011050
v -0.573635 0.856590 -0.038347
v -0.617907 0.863199 -0.038120
v -0.617166 0.861641 -0.020607
v -0.624487 0.866967 -0.033124
v -0.613428 0.872454 -0.033042
v -0.612449 0.883453 -0.029828
v -0.621423 0.886002 -0.017480
v -0.611080 0.897012 -0.028227
v -0.610373 0.911867 -0.027711
v -0.619026 0.899008 -0.012359
v -0.624948 0.900040 0.006118
v -0.619038 0.911795 -0.009472
v -0.624019 0.911603 0.008817
v -0.616916 0.922813 -0.007430
v -0.620251 0.923248 0.011189
v -0.609042 0.923636 -0.026165
v -0.610097 0.929612 -0.004656
v -0.599453 0.931126 -0.001128
v -0.610442 0.929724 0.010979
v -0.602799 0.931185 -0.022216
v -0.593999 0.931729 -0.017674
v -0.593288 0.932688 -0.041058
v -0.585272 0.934483 -0.036403
v -0.596438 0.923638 -0.043124
v -0.585970 0.932698 -0.056407
v -0.578588 0.931425 -0.065939
v -0.588684 0.923221 -0.058118
v -0.577491 0.934713 -0.051853
v -0.568576 0.934261 -0.046486
v -0.571070 0.931970 -0.063943
v -0.568592 0.922946 -0.071178
v -0.561953 0.930784 -0.058199
v -0.558852 0.921169 -0.065283
v -0.549540 0.931223 -0.049788
v -0.533378 0.925024 -0.033064
v -0.557041 0.933512 -0.037424
v -0.547177 0.919926 -0.056321
v -0.548764 0.906033 -0.058309
v -0.532434 0.914755 -0.038189
v -0.533870 0.901922 -0.040837
v -0.514255 0.910675 -0.026447
v -0.504012 0.906814 -0.014621
v -0.516732 0.922960 -0.022534
v -0.516124 0.897071 -0.027775
v -0.518553 0.882544 -0.029442
v -0.506496 0.891915 -0.014648
v -0.509003 0.876169 -0.015038
v -0.506979 0.890595 0.000579
v -0.510164 0.874020 0.003028
v -0.513319 0.893084 0.017101
v -0.501395 0.904629 0.001010
v -0.501623 0.916804 0.000297
v -0.509681 0.905312 0.017494
v -0.519237 0.907894 0.039992
v -0.509974 0.915767 0.017033
v -0.514418 0.923739 0.014671
v -0.518737 0.918009 0.039670
v -0.527927 0.919513 0.056675
v -0.524729 0.924848 0.035821
v -0.533077 0.926741 0.030432
v -0.534135 0.924640 0.052116
v -0.541738 0.927127 0.045940
v -0.543019 0.925783 0.062676
v -0.537544 0.921241 0.067848
v -0.551019 0.926605 0.070961
v -0.550602 0.927420 0.056420
v -0.559135 0.928027 0.048623
v -0.558272 0.927538 0.064358
v -0.566888 0.926576 0.055843
v -0.562715 0.917942 0.068689
v -0.563860 0.906176 0.068095
v -0.554896 0.916706 0.074761
v -0.572213 0.918263 0.059804
v -0.574638 0.906729 0.059168
v -0.583552 0.919145 0.050665
v -0.596976 0.920954 0.039970
v -0.578059 0.926891 0.046334
v -0.585558 0.907265 0.049758
v -0.587583 0.894034 0.047162
v -0.597786 0.908833 0.039342
v -0.600008 0.896372 0.037088
v -0.615010 0.910101 0.027846
v -0.616431 0.899176 0.025932
v -0.612738 0.922066 0.028345
v -0.604588 0.929938 0.023921
v -0.594876 0.931134 0.016218
v -0.592636 0.929006 0.034753
v -0.585636 0.930523 0.025159
v -0.570890 0.927723 0.037715
v -0.578819 0.930582 0.013199
v -0.589337 0.930974 0.004556
v -0.563671 0.928317 0.026688
v -0.572564 0.929961 -0.002496
v -0.564736 0.933095 -0.021760
v -0.556076 0.927924 0.012166
v -0.584379 0.931240 -0.011985
v -0.576470 0.933922 -0.031037
v -0.542859 0.927391 0.023618
v -0.547882 0.928766 -0.006909
v -0.539684 0.928733 -0.022163
v -0.533844 0.928847 0.003770
v -0.523129 0.927748 0.010484
v -0.524823 0.928433 -0.011904
v -0.512859 0.926978 -0.005337
v -0.506056 0.923778 0.001003
v -0.504864 0.919983 -0.013520
v -0.550968 0.928135 0.038336
v -0.601121 0.931229 0.009168
v -0.620035 0.889484 0.023557
v -0.625578 0.888939 0.001068
v -0.603972 0.885819 0.034172
v -0.591287 0.882211 0.043091
v -0.578540 0.880945 0.054117
v -0.566009 0.881179 0.063764
v -0.576515 0.893952 0.056606
v -0.581763 0.869563 0.051537
v -0.572177 0.862654 0.053539
v -0.566872 0.869780 0.062692
v -0.562375 0.861427 0.059627
v -0.557189 0.868549 0.069800
v -0.557178 0.879828 0.070278
v -0.548819 0.869230 0.070847
v -0.551565 0.860114 0.064370
v -0.543780 0.865966 0.066224
v -0.543797 0.857854 0.055051
v -0.536628 0.864725 0.056645
v -0.535238 0.858433 0.040876
v -0.553587 0.856899 0.050715
v -0.566714 0.858554 0.046172
v -0.529509 0.864785 0.042231
v -0.525834 0.873583 0.041535
v -0.520827 0.864292 0.027508
v -0.518648 0.870749 0.023927
v -0.514073 0.861952 0.019987
v -0.510314 0.860172 0.015805
v -0.513186 0.865619 0.013619
v -0.509430 0.861438 0.010564
v -0.508793 0.856812 0.009851
v -0.510204 0.864271 -0.000867
v -0.515986 0.879256 0.019787
v -0.523640 0.884696 0.040573
v -0.521157 0.896777 0.040066
v -0.531767 0.887157 0.056673
v -0.534195 0.874898 0.056095
v -0.537596 0.888417 0.067280
v -0.529661 0.899678 0.057572
v -0.527559 0.910399 0.057957
v -0.536112 0.901188 0.069214
v -0.535592 0.912566 0.070120
v -0.545765 0.902594 0.074559
v -0.545824 0.914486 0.076307
v -0.546462 0.890112 0.072708
v -0.555651 0.904346 0.073995
v -0.556726 0.891968 0.072169
v -0.565079 0.893699 0.065933
v -0.547541 0.877907 0.071525
v -0.540479 0.876198 0.065698
v -0.545403 0.923502 0.076242
v -0.627278 0.882678 -0.000570
v -0.628378 0.884432 -0.015779
v -0.536559 0.887733 -0.042956
v -0.550453 0.891662 -0.059886
v -0.559792 0.908040 -0.067766
v -0.580315 0.923366 -0.069665
v -0.598098 0.911716 -0.043329
v -0.637359 0.884141 -0.000046
v -0.642947 0.890925 0.002359
v -0.640537 0.888573 0.008993
vn -0.0494 0.9194 0.3903
vn -0.3962 0.3185 0.8612
vn -0.3258 0.2974 0.8975
vn -0.0636 0.9061 0.4182
vn -0.3504 0.9150 0.2001
vn -0.6697 0.4325 0.6037
vn 0.0526 0.9928 0.1076
vn -0.2186 0.9752 -0.0348
vn 0.0584 0.9929 0.1040
vn -0.0912 0.9129 0.3978
vn 0.0563 0.9934 0.0998
vn -0.3481 0.3158 0.8827
vn 0.0876 0.9945 0.0579
vn 0.0790 0.9946 0.0669
vn 0.0785 0.9939 0.0768
vn 0.1126 0.9926 0.0453
vn 0.1199 0.9925 0.0218
vn 0.1335 0.9910 0.0081
vn 0.0559 0.9947 0.0868
vn 0.0967 0.9943 0.0438
vn 0.1370 0.9906 -0.0040
vn 0.1911 0.9731 -0.1284
vn 0.2190 0.9675 -0.1261
vn 0.1442 0.9852 -0.0927
vn 0.1544 0.9878 0.0219
vn 0.1117 0.9933 -0.0293
vn 0.1441 0.9878 0.0590
vn 0.7172 0.6268 0.3045
vn 0.6958 0.6239 0.3557
vn 0.6318 0.6811 0.3701
vn 0.1006 0.9910 0.0885
vn 0.5455 0.7701 0.3307
vn -0.0758 0.9242 0.3743
vn -0.0165 0.9233 0.3837
vn 0.3559 0.7367 0.5750
vn 0.7027 -0.0299 0.7108
vn 0.8166 -0.0881 0.5704
vn 0.8248 -0.1979 0.5297
vn 0.1069 0.1505 0.9828
vn 0.3468 -0.4481 0.8240
vn -0.1449 0.2525 0.9567
vn 0.0014 -0.5905 0.8070
vn 0.4855 -0.6555 0.5784
vn 0.1793 -0.8059 0.5643
vn 0.2696 -0.9025 0.3358
vn 0.5797 -0.6826 0.4450
vn 0.3381 -0.9351 0.1059
vn 0.6537 -0.7078 0.2677
vn 0.8617 -0.2771 0.4251
vn 0.7106 -0.6976 0.0922
vn 0.8774 -0.3563 0.3212
vn 0.4311 -0.8978 -0.0903
vn 0.0784 -0.9688 0.2350
vn 0.1396 -0.9901 0.0167
vn 0.2485 -0.9588 -0.1378
vn 0.5843 -0.6887 -0.4293
vn 0.7805 -0.5962 -0.1879
vn 0.6007 -0.7466 -0.2858
vn 0.1286 -0.9821 -0.1377
vn 0.1501 -0.9792 -0.1363
vn 0.0354 -0.9993 -0.0091
vn -0.1174 -0.9665 -0.2281
vn -0.1072 -0.9628 -0.2482
vn -0.1799 -0.9800 -0.0846
vn -0.0414 -0.9856 0.1642
vn -0.2293 -0.9714 0.0610
vn -0.0113 -0.8586 0.5126
vn -0.1532 -0.8681 0.4722
vn -0.3361 -0.8555 0.3939
vn -0.6404 -0.7492 -0.1689
vn -0.6285 -0.7061 -0.3263
vn -0.6991 -0.7022 0.1351
vn -0.3211 -0.4908 0.8099
vn -0.4171 -0.4750 0.7749
vn -0.6526 -0.4205 0.6303
vn -0.1905 -0.5472 0.8150
vn -0.2868 0.2958 0.9112
vn -0.9740 -0.0734 0.2145
vn -0.9475 -0.2438 -0.2067
vn -0.8378 0.5254 -0.1486
vn -0.7987 0.5129 -0.3146
vn -0.7946 0.4888 -0.3602
vn -0.9047 -0.2023 -0.3749
vn -0.8616 -0.1799 -0.4747
vn -0.7582 0.5056 -0.4117
vn -0.2281 0.9707 -0.0761
vn -0.1718 0.9809 -0.0910
vn 0.2211 0.9714 -0.0869
vn 0.0224 0.9942 -0.1054
vn -0.6779 0.5327 -0.5067
vn 0.3522 0.8667 -0.3533
vn 0.3583 0.8491 -0.3882
vn 0.2106 0.7741 -0.5970
vn 0.4655 0.8744 0.1367
vn -0.5349 0.6069 -0.5879
vn 0.7297 0.4249 -0.5358
vn -0.2467 0.0956 0.9644
vn 0.4056 -0.7121 0.5730
vn -0.0397 -0.6847 0.7278
vn -0.4293 0.5290 0.7320
vn -0.5218 0.7416 0.4215
vn -0.9470 0.1786 0.2671
vn 0.5530 0.2370 -0.7988
vn 0.2184 0.8947 -0.3897
vn 0.7849 0.4787 -0.3935
vn 0.7794 -0.2099 -0.5903
vn 0.2953 0.7689 -0.5671
vn 0.1010 0.9606 -0.2588
vn 0.9795 -0.1892 0.0698
vn 0.3078 0.9423 -0.1320
vn 0.8263 0.5364 0.1718
vn -0.8033 0.4698 0.3660
vn -0.4888 0.7395 0.4628
vn -0.0908 0.1829 0.9789
vn 0.6417 0.7632 -0.0761
vn 0.6769 0.6594 0.3272
vn -0.0980 0.9764 0.1927
vn -0.7914 0.5952 0.1396
vn 0.5189 0.3958 0.7577
vn 0.4460 0.2608 0.8562
vn 0.5357 -0.0311 0.8439
vn -0.6147 -0.7350 0.2862
vn -0.7831 -0.6179 0.0707
vn 0.0673 -0.9518 0.2993
vn 0.1340 -0.4987 0.8564
vn 0.4561 -0.8267 0.3294
vn -0.0798 -0.0492 0.9956
vn 0.4000 0.7076 0.5825
vn 0.1989 0.5858 0.7856
vn -0.1432 0.2993 0.9433
vn 0.1332 0.9613 0.2413
vn -0.2159 0.8323 0.5106
vn -0.6157 0.3133 0.7231
vn -0.6368 -0.2595 0.7261
vn -0.3933 0.8646 0.3127
vn -0.7741 0.3365 0.5362
vn -0.8230 -0.2307 0.5191
vn -0.4727 0.8791 0.0615
vn -0.8421 0.4173 0.3417
vn -0.9222 -0.1507 0.3561
vn -0.0110 0.9540 -0.2997
vn 0.0401 0.9989 -0.0224
vn 0.4866 0.8722 -0.0506
vn 0.3681 0.8964 -0.2470
vn 0.1683 0.8652 -0.4723
vn -0.3391 0.5895 -0.7331
vn -0.2170 0.4987 -0.8392
vn -0.6269 0.6831 -0.3747
vn -0.3163 0.4282 -0.8465
vn 0.0251 0.8849 -0.4650
vn 0.4096 0.8995 -0.1523
vn 0.0066 0.8405 -0.5418
vn -0.1727 0.3154 -0.9331
vn 0.0341 0.9989 0.0335
vn -0.2771 0.9487 -0.1521
vn 0.2330 0.6629 -0.7115
vn 0.2588 0.0880 -0.9619
vn -0.3179 -0.2167 -0.9230
vn -0.4414 -0.1156 -0.8899
vn -0.0538 -0.2838 -0.9574
vn 0.4465 -0.2897 -0.8466
vn 0.0290 -0.6754 -0.7368
vn 0.1765 -0.1139 -0.9777
vn 0.1928 -0.7143 -0.6727
vn -0.1411 0.4601 -0.8766
vn -0.6517 -0.4630 -0.6008
vn 0.0222 -0.9773 -0.2106
vn -0.6108 0.2424 -0.7538
vn 0.0174 -0.9632 -0.2681
vn 0.0077 -0.9872 0.1592
vn -0.2021 -0.9784 -0.0437
vn -0.1951 -0.9673 0.1619
vn -0.1196 -0.9738 -0.1932
vn 0.1255 -0.9838 0.1283
vn 0.1932 -0.9769 0.0912
vn -0.0791 -0.9879 -0.1335
vn 0.3692 -0.9199 -0.1320
vn 0.1856 -0.9806 -0.0630
vn -0.0563 -0.9781 -0.2005
vn 0.0947 -0.9955 -0.0021
vn -0.0255 -0.9974 -0.0671
vn -0.2099 -0.9517 -0.2242
vn -0.0999 -0.9928 -0.0654
vn -0.3761 -0.7968 0.4729
vn -0.5311 -0.8062 0.2607
vn -0.6930 -0.7195 0.0457
vn -0.9991 -0.0383 0.0182
vn -0.8112 -0.4068 -0.4202
vn -0.4524 -0.6226 -0.6386
vn -0.3472 -0.6749 -0.6511
vn -0.6489 0.0363 -0.7600
vn -0.4518 -0.0562 -0.8904
vn -0.2773 -0.7430 -0.6092
vn -0.9295 0.3190 -0.1849
vn -0.4362 -0.8998 0.0096
vn -0.4474 -0.8927 0.0544
vn -0.2939 -0.9536 -0.0652
vn -0.2234 -0.9740 0.0370
vn -0.0734 -0.9973 -0.0076
vn -0.1033 -0.9892 -0.1039
vn -0.1996 -0.9791 0.0404
vn -0.0976 -0.9946 0.0342
vn -0.3939 -0.9158 0.0787
vn -0.3379 -0.9395 0.0573
vn -0.1496 -0.9799 0.1320
vn -0.0328 -0.9683 0.2477
vn 0.0116 -0.9961 0.0878
vn -0.2110 -0.9768 -0.0358
vn -0.7845 -0.5645 -0.2565
vn -0.5792 -0.5394 -0.6112
vn -0.5753 -0.6521 -0.4938
vn -0.5634 -0.0704 -0.8232
vn -0.7864 -0.1876 -0.5885
vn -0.3361 0.5252 -0.7818
vn -0.0064 -0.9657 0.2597
vn -0.0236 -0.9992 0.0311
vn -0.0906 -0.9912 0.0963
vn -0.2924 -0.8390 0.4588
vn -0.0185 -0.9998 0.0062
vn -0.2377 -0.9484 0.2098
vn -0.0807 -0.9967 0.0116
vn -0.0700 -0.9974 -0.0175
vn -0.0642 -0.9979 0.0020
vn -0.0524 -0.9986 0.0052
vn -0.0854 -0.9963 -0.0073
vn -0.0597 -0.9982 -0.0107
vn -0.0922 -0.9956 0.0177
vn -0.0091 -0.9860 0.1664
vn 0.0348 -0.9931 0.1120
vn 0.0613 -0.9964 0.0588
vn 0.4110 -0.8113 0.4157
vn 0.4260 -0.8644 0.2671
vn 0.3811 -0.7166 0.5842
vn 0.0111 -0.9977 -0.0662
vn 0.1258 -0.9882 0.0871
vn 0.6122 -0.6169 0.4946
vn 0.3367 -0.9347 -0.1139
vn 0.8575 -0.5145 0.0059
vn 0.3012 -0.9359 -0.1827
vn -0.0017 -0.9972 -0.0743
vn 0.2654 -0.9392 -0.2178
vn 0.2358 -0.9186 -0.3172
vn 0.0098 -0.9944 -0.1057
vn 0.8135 -0.5380 -0.2209
vn 0.7198 -0.5989 -0.3510
vn 0.6047 -0.5436 -0.5820
vn 0.9969 -0.0637 -0.0458
vn 0.9260 -0.2086 -0.3147
vn 0.7340 -0.1376 -0.6651
vn 0.3106 -0.8896 -0.3350
vn 0.6155 -0.4511 -0.6463
vn 0.6934 -0.0482 -0.7189
vn 0.6438 -0.3784 -0.6651
vn 0.7106 -0.0358 -0.7027
vn 0.3419 -0.8621 -0.3741
vn 0.0842 -0.9928 -0.0849
vn 0.0794 -0.9918 -0.1003
vn -0.0172 -0.9808 -0.1942
vn 0.2506 -0.8175 -0.5185
vn 0.4854 -0.3392 -0.8058
vn -0.3520 -0.7625 -0.5429
vn -0.0254 -0.6965 -0.7171
vn -0.0090 -0.3256 -0.9455
vn 0.0173 -0.0837 -0.9963
vn 0.5377 -0.0526 -0.8415
vn 0.0587 0.0466 -0.9972
vn 0.5625 0.0066 -0.8268
vn 0.7133 -0.0121 -0.7008
vn -0.6119 0.0939 -0.7853
vn -0.6414 -0.0340 -0.7664
vn -0.5926 -0.2775 -0.7562
vn -0.5678 0.1432 -0.8106
vn 0.1408 0.1172 -0.9831
vn 0.5757 0.0582 -0.8156
vn -0.8536 0.1125 -0.5087
vn -0.8497 0.1243 -0.5124
vn -0.8510 0.0410 -0.5235
vn -0.8341 0.1127 -0.5399
vn -0.8367 0.1211 -0.5341
vn -0.8176 0.1034 -0.5664
vn -0.7729 -0.0443 -0.6329
vn -0.8144 -0.1977 -0.5456
vn -0.5331 -0.7344 -0.4200
vn -0.5411 -0.7468 -0.3866
vn -0.1286 -0.9879 -0.0863
vn -0.1586 -0.9869 -0.0304
vn -0.5490 -0.6225 -0.5578
vn -0.1705 -0.9848 -0.0340
vn -0.0192 -0.9998 0.0032
vn -0.0770 -0.9960 0.0455
vn -0.0919 -0.9958 -0.0039
vn -0.0673 -0.9931 -0.0964
vn -0.4180 -0.9083 -0.0167
vn -0.7344 -0.3314 -0.5923
vn -0.0269 -0.9995 -0.0147
vn -0.0240 -0.9991 -0.0360
vn -0.0415 -0.9985 0.0366
vn -0.0065 -0.9998 0.0189
vn -0.7168 -0.6957 -0.0468
vn -0.7387 0.2536 -0.6246
vn -0.6476 0.5723 -0.5031
vn -0.8291 0.1424 -0.5407
vn -0.9106 0.1642 -0.3793
vn -0.8485 0.1275 -0.5137
vn -0.9280 0.1653 -0.3340
vn -0.9928 0.1048 0.0580
vn -0.9393 0.3432 0.0048
vn -0.9842 0.1513 0.0922
vn -0.8264 0.5077 -0.2436
vn -0.8394 0.5280 0.1294
vn -0.8015 0.4147 -0.4309
vn -0.4028 0.9122 0.0756
vn -0.4320 0.8977 -0.0865
vn -0.4522 0.8769 -0.1627
vn -0.0614 0.9981 0.0074
vn -0.0728 0.9957 0.0565
vn -0.0753 0.9971 0.0124
vn -0.5258 0.8142 -0.2463
vn -0.8216 0.3038 -0.4824
vn -0.0814 0.9962 0.0302
vn -0.0065 0.9942 -0.1078
vn -0.5349 0.7575 -0.3742
vn -0.8244 0.2473 -0.5092
vn 0.1803 0.8379 -0.5151
vn -0.2943 0.7240 -0.6238
vn -0.4636 0.3286 -0.8229
vn 0.0070 0.9963 0.0858
vn 0.0977 0.9932 -0.0630
vn 0.3504 0.8296 -0.4348
vn 0.2476 0.3809 -0.8908
vn 0.5556 0.3450 -0.7565
vn 0.6833 0.2803 -0.6742
vn 0.4718 0.7934 -0.3846
vn 0.1717 0.9850 -0.0147
vn 0.1932 0.9801 -0.0462
vn 0.5144 0.7442 -0.4262
vn 0.6790 0.2228 -0.6995
vn 0.7093 0.0184 -0.7046
vn 0.6818 0.0106 -0.7315
vn 0.6636 0.1435 -0.7341
vn 0.6920 -0.0326 -0.7211
vn 0.5035 0.6746 -0.5398
vn 0.7760 0.4952 -0.3906
vn 0.9065 -0.0275 -0.4213
vn 0.9258 -0.1635 -0.3409
vn 0.9465 -0.1364 -0.2924
vn 0.7175 -0.0446 -0.6952
vn 0.6897 -0.0050 -0.7241
vn 0.9591 -0.2213 0.1765
vn 0.9812 -0.0529 0.1854
vn 0.9785 -0.1333 0.1575
vn 0.9042 -0.1983 0.3782
vn 0.9247 -0.0861 0.3708
vn 0.9045 -0.1262 0.4073
vn 0.9376 0.3224 0.1305
vn 0.8671 0.2975 0.3996
vn 0.8956 -0.1756 0.4087
vn 0.9068 -0.0892 0.4120
vn 0.8432 0.3868 0.3733
vn 0.6421 0.7505 0.1564
vn 0.5411 0.7986 0.2635
vn 0.4573 0.8654 0.2047
vn 0.8641 -0.0142 0.5030
vn 0.7517 0.4940 0.4369
vn 0.3699 0.9071 0.2009
vn 0.1727 0.9800 0.0992
vn 0.1460 0.9861 0.0788
vn 0.1339 0.9889 0.0637
vn 0.0799 0.9952 0.0564
vn 0.3018 0.9384 0.1680
vn 0.6401 0.5709 0.5141
vn -0.0871 0.8320 0.5478
vn 0.2373 0.5496 0.8010
vn -0.2852 0.8783 0.3837
vn 0.0402 0.9991 0.0128
vn -0.0204 0.9989 0.0418
vn -0.3219 0.8778 0.3547
vn -0.6113 0.3522 0.7087
vn -0.6076 0.3046 0.7335
vn -0.4215 0.1796 0.8889
vn -0.3620 -0.0811 0.9286
vn -0.6236 -0.0168 0.7816
vn -0.6451 0.0028 0.7641
vn -0.2510 0.8807 0.4017
vn -0.5704 0.3601 0.7382
vn -0.6417 -0.0011 0.7669
vn -0.6056 -0.0085 0.7957
vn -0.5439 0.3772 0.7496
vn -0.2270 0.8861 0.4040
vn -0.6407 -0.0449 0.7665
vn -0.6389 -0.0600 0.7669
vn -0.5945 -0.0381 0.8032
vn -0.7602 0.0419 0.6484
vn -0.7674 0.0024 0.6411
vn -0.6812 0.4368 0.5875
vn -0.3203 0.8988 0.2993
vn -0.0223 0.9985 0.0504
vn 0.0324 0.9948 0.0966
vn 0.0083 0.9965 0.0831
vn 0.0795 0.9963 0.0313
vn 0.0365 0.9993 0.0120
vn 0.0580 0.9980 0.0269
vn 0.0044 0.9965 0.0830
vn 0.0595 0.9953 0.0766
vn 0.0502 0.9978 0.0434
vn 0.0573 0.9959 0.0699
vn 0.0651 0.9922 0.1063
vn 0.0356 0.9989 0.0289
vn 0.0293 0.9989 0.0359
vn 0.1706 0.9772 -0.1261
vn 0.3767 0.9235 -0.0723
vn -0.7976 0.1470 0.5850
vn -0.5447 0.0863 0.8342
vn -0.5876 0.0387 0.8082
vn -0.5682 -0.3432 0.7479
vn -0.6215 -0.0187 0.7832
vn -0.6064 -0.0557 0.7932
vn -0.6151 -0.0764 0.7848
vn -0.5660 -0.2918 0.7710
vn -0.4362 -0.7387 0.5138
vn -0.3584 -0.7889 0.4991
vn -0.0015 -0.8146 0.5801
vn -0.3246 -0.3493 0.8790
vn -0.3781 -0.0775 0.9225
vn 0.2153 -0.3081 0.9267
vn 0.2489 -0.1352 0.9590
vn 0.5338 -0.4654 0.7060
vn 0.3085 -0.8950 0.3223
vn 0.7266 -0.4806 0.4910
vn -0.0795 -0.9836 0.1618
vn 0.7774 -0.4475 0.4420
vn 0.7879 -0.2699 0.5535
vn 0.8763 -0.1839 0.4453
vn 0.8339 -0.2063 0.5119
vn 0.9036 -0.0121 0.4283
vn 0.7680 0.0336 0.6395
vn 0.9055 0.2378 0.3516
vn 0.8615 0.1673 0.4793
vn 0.9761 0.1491 0.1582
vn 0.8952 -0.1502 0.4195
vn 0.8527 -0.1838 0.4890
vn 0.8615 -0.1618 0.4812
vn 0.7089 -0.1919 0.6787
vn 0.6994 -0.1930 0.6882
vn 0.6845 -0.1512 0.7131
vn 0.7055 0.0330 0.7079
vn 0.1882 0.0539 0.9807
vn 0.2034 -0.1350 0.9697
vn 0.2189 -0.1599 0.9626
vn -0.3651 -0.1111 0.9243
vn 0.5873 0.7554 0.2907
vt 0.684027 0.032744
vt 0.683574 0.034816
vt 0.680919 0.033895
vt 0.681752 0.031532
vt 0.686426 0.033412
vt 0.685994 0.034986
vt 0.685294 0.029650
vt 0.687772 0.030980
vt 0.682881 0.028389
vt 0.679508 0.030399
vt 0.680515 0.027196
vt 0.678409 0.032777
vt 0.681277 0.024019
vt 0.683736 0.025150
vt 0.686244 0.026440
vt 0.687157 0.023084
vt 0.684471 0.021743
vt 0.681833 0.020786
vt 0.678186 0.026042
vt 0.678889 0.022991
vt 0.679352 0.019932
vt 0.682205 0.017502
vt 0.684797 0.018286
vt 0.679767 0.016844
vt 0.677054 0.019246
vt 0.677745 0.016370
vt 0.676542 0.022021
vt 0.675923 0.015793
vt 0.674663 0.018471
vt 0.674133 0.021061
vt 0.676037 0.024918
vt 0.673862 0.023899
vt 0.677170 0.029143
vt 0.675086 0.027861
vt 0.673307 0.026435
vt 0.671506 0.026064
vt 0.671850 0.023633
vt 0.671628 0.020372
vt 0.672455 0.028800
vt 0.670533 0.027949
vt 0.673755 0.029794
vt 0.671064 0.031139
vt 0.173587 0.028803
vt 0.172746 0.031453
vt 0.170106 0.030677
vt 0.171164 0.027869
vt 0.669670 0.024655
vt 0.172512 0.024814
vt 0.175044 0.025307
vt 0.669190 0.021498
vt 0.173790 0.021135
vt 0.176402 0.022177
vt 0.178314 0.023961
vt 0.177298 0.026406
vt 0.673553 0.011029
vt 0.674273 0.014226
vt 0.672573 0.017043
vt 0.671834 0.014017
vt 0.175221 0.017532
vt 0.177845 0.018851
vt 0.169664 0.023816
vt 0.170851 0.020077
vt 0.172095 0.016319
vt 0.177020 0.014535
vt 0.179379 0.016032
vt 0.173359 0.012363
vt 0.169080 0.015185
vt 0.170016 0.011545
vt 0.167799 0.019041
vt 0.165899 0.014154
vt 0.167085 0.010844
vt 0.164568 0.017840
vt 0.166634 0.022852
vt 0.163323 0.021568
vt 0.168453 0.027183
vt 0.165393 0.026341
vt 0.162188 0.025138
vt 0.160023 0.020005
vt 0.161154 0.016338
vt 0.158695 0.023600
vt 0.164633 0.029613
vt 0.161227 0.028395
vt 0.157842 0.027390
vt 0.683907 0.037268
vt 0.679259 0.036961
vt 0.676208 0.035303
vt 0.167473 0.030186
vt 0.673649 0.033609
vt 0.675956 0.031471
vt 0.688047 0.035855
vt 0.154472 0.025703
vt 0.155367 0.022087
vt 0.688041 0.034061
vt 0.692012 0.033605
vt 0.689609 0.031983
vt 0.691247 0.028884
vt 0.694841 0.030097
vt 0.156786 0.018455
vt 0.158158 0.014619
vt 0.692481 0.025621
vt 0.696385 0.026308
vt 0.689096 0.027989
vt 0.690067 0.024651
vt 0.687789 0.019322
vt 0.690967 0.020908
vt 0.693646 0.022052
vt 0.684838 0.014699
vt 0.687864 0.015616
vt 0.691577 0.017051
vt 0.688719 0.011484
vt 0.693661 0.014089
vt 0.684704 0.011702
vt 0.823154 0.869537
vt 0.826929 0.876838
vt 0.823391 0.876352
vt 0.820263 0.871453
vt 0.684348 0.008462
vt 0.688330 0.008244
vt 0.831379 0.871136
vt 0.833536 0.875960
vt 0.697386 0.008984
vt 0.694023 0.007018
vt 0.681413 0.010849
vt 0.680534 0.007609
vt 0.682284 0.014068
vt 0.678125 0.012371
vt 0.678605 0.010955
vt 0.679680 0.012483
vt 0.680165 0.013968
vt 0.676796 0.009618
vt 0.676262 0.012014
vt 0.678264 0.013780
vt 0.676617 0.013703
vt 0.841518 0.873959
vt 0.843842 0.877403
vt 0.843716 0.880376
vt 0.834797 0.878964
vt 0.973717 0.788253
vt 0.979506 0.785389
vt 0.986621 0.785932
vt 0.977968 0.792004
vt 0.851472 0.876075
vt 0.851533 0.878922
vt 0.982275 0.782320
vt 0.988041 0.780077
vt 0.981820 0.777939
vt 0.986870 0.777018
vt 0.525342 0.124331
vt 0.520362 0.121010
vt 0.523421 0.117507
vt 0.527739 0.123640
vt 0.993878 0.776318
vt 0.993475 0.779415
vt 0.984977 0.772248
vt 0.988913 0.772206
vt 0.980981 0.773260
vt 0.974798 0.781960
vt 0.976150 0.778611
vt 0.976681 0.775598
vt 0.969999 0.779571
vt 0.971264 0.775965
vt 0.973663 0.772001
vt 0.978127 0.768995
vt 0.966200 0.773102
vt 0.969006 0.769009
vt 0.973878 0.764186
vt 0.961937 0.768978
vt 0.965036 0.764834
vt 0.969630 0.761017
vt 0.958455 0.771985
vt 0.965143 0.776577
vt 0.969871 0.783918
vt 0.965676 0.781145
vt 0.032466 0.595610
vt 0.036813 0.596753
vt 0.036749 0.601728
vt 0.032519 0.600892
vt 0.037207 0.591205
vt 0.033029 0.590410
vt 0.956874 0.762833
vt 0.959277 0.763981
vt 0.027862 0.589690
vt 0.027350 0.593991
vt 0.027357 0.599641
vt 0.022125 0.593541
vt 0.022175 0.588831
vt 0.022617 0.599705
vt 0.018916 0.599454
vt 0.017004 0.592795
vt 0.017038 0.588157
vt 0.022309 0.585514
vt 0.027816 0.585586
vt 0.018984 0.585413
vt 0.015444 0.587033
vt 0.018150 0.583823
vt 0.013214 0.587432
vt 0.013809 0.584362
vt 0.013355 0.591783
vt 0.513883 0.092274
vt 0.515096 0.090505
vt 0.518201 0.091503
vt 0.514390 0.093904
vt 0.512025 0.088347
vt 0.515272 0.084620
vt 0.017122 0.581275
vt 0.013076 0.582061
vt 0.016352 0.577948
vt 0.515648 0.101498
vt 0.519134 0.101805
vt 0.516922 0.104680
vt 0.513404 0.103601
vt 0.113604 0.021850
vt 0.116869 0.023396
vt 0.116869 0.028348
vt 0.113257 0.025449
vt 0.020626 0.575953
vt 0.015418 0.575058
vt 0.018699 0.572821
vt 0.021709 0.579469
vt 0.993471 0.764316
vt 0.991139 0.766050
vt 0.990398 0.758378
vt 0.994616 0.761417
vt 0.024722 0.574213
vt 0.026820 0.577617
vt 0.987568 0.765299
vt 0.984864 0.758791
vt 0.980391 0.752779
vt 0.988489 0.753235
vt 0.994785 0.771395
vt 0.983810 0.766903
vt 0.980195 0.762109
vt 0.976923 0.757652
vt 0.965909 0.758549
vt 0.970069 0.755832
vt 0.975732 0.752854
vt 0.032403 0.576255
vt 0.033768 0.581070
vt 0.027540 0.581791
vt 0.960515 0.753602
vt 0.968989 0.752357
vt 0.033887 0.585672
vt 0.037852 0.586675
vt 0.022148 0.582767
vt 0.962577 0.760278
vt 0.014831 0.569574
vt 0.012845 0.570659
vt 0.519404 0.107159
vt 0.522714 0.111632
vt 0.519922 0.114221
vt 0.517306 0.110572
vt 0.522493 0.104748
vt 0.526039 0.109942
vt 0.529696 0.108233
vt 0.522995 0.100837
vt 0.517732 0.097776
vt 0.529789 0.116318
vt 0.533744 0.116345
vt 0.526365 0.116909
vt 0.530244 0.123062
vt 0.533151 0.123193
vt 0.536586 0.123349
vt 0.534234 0.129198
vt 0.531924 0.128541
vt 0.537980 0.129153
vt 0.530254 0.128656
vt 0.168192 0.007298
vt 0.170721 0.007688
vt 0.164536 0.009813
vt 0.166315 0.006854
vt 0.162799 0.012826
vt 0.161896 0.008316
vt 0.159759 0.011308
vt 0.163832 0.005936
vt 0.697482 0.022389
vt 0.694065 0.018556
vt 0.697480 0.017823
vt 0.528146 0.130821
vt 0.542453 0.121835
vt 0.538870 0.115667
vt 0.544767 0.126053
vt 0.553045 0.118545
vt 0.552994 0.125868
vt 0.546083 0.111539
vt 0.562565 0.125366
vt 0.565326 0.117661
vt 0.560455 0.105986
vt 0.568180 0.107431
vt 0.553504 0.101868
vt 0.565367 0.097533
vt 0.558793 0.093758
vt 0.570948 0.100565
vt 0.575979 0.102654
vt 0.573751 0.107929
vt 0.572390 0.116461
vt 0.579284 0.107538
vt 0.577972 0.114979
vt 0.580289 0.102685
vt 0.573546 0.096435
vt 0.577915 0.098799
vt 0.581188 0.099158
vt 0.578800 0.096358
vt 0.580890 0.095779
vt 0.576020 0.093056
vt 0.568408 0.092370
vt 0.571092 0.088339
vt 0.564696 0.083704
vt 0.562006 0.088219
vt 0.578282 0.090580
vt 0.574019 0.084741
vt 0.567348 0.079017
vt 0.580815 0.088498
vt 0.576784 0.081396
vt 0.570071 0.074432
vt 0.554506 0.077274
vt 0.556956 0.072689
vt 0.559838 0.067675
vt 0.547936 0.067310
vt 0.550612 0.061460
vt 0.545268 0.072730
vt 0.551570 0.082579
vt 0.542544 0.078181
vt 0.535994 0.074817
vt 0.539217 0.069685
vt 0.541234 0.064971
vt 0.531350 0.071581
vt 0.535086 0.068207
vt 0.535133 0.064398
vt 0.534997 0.058948
vt 0.543157 0.059174
vt 0.537025 0.053214
vt 0.545515 0.052543
vt 0.553201 0.055049
vt 0.529267 0.054587
vt 0.528417 0.061785
vt 0.528979 0.066767
vt 0.530615 0.049354
vt 0.539315 0.047515
vt 0.548293 0.047374
vt 0.521891 0.058287
vt 0.522623 0.051504
vt 0.520810 0.066317
vt 0.513423 0.065803
vt 0.514243 0.057023
vt 0.517039 0.074152
vt 0.520753 0.079628
vt 0.524317 0.073571
vt 0.525054 0.083391
vt 0.528202 0.077710
vt 0.533446 0.080550
vt 0.530202 0.087462
vt 0.521723 0.086661
vt 0.526550 0.091044
vt 0.539560 0.084204
vt 0.535973 0.091415
vt 0.531020 0.096746
vt 0.526453 0.099688
vt 0.523253 0.093307
vt 0.519825 0.088950
vt 0.538148 0.103520
vt 0.533890 0.106714
vt 0.543932 0.095903
vt 0.548503 0.088210
vt 0.519749 0.093311
vt 0.512469 0.080564
vt 0.505051 0.085286
vt 0.508430 0.073805
vt 0.869292 0.869056
vt 0.868621 0.876167
vt 0.860952 0.875395
vt 0.861040 0.868423
vt 0.504955 0.065463
vt 0.860772 0.861412
vt 0.869852 0.859935
vt 0.851151 0.867758
vt 0.851676 0.873058
vt 0.852102 0.862403
vt 0.860738 0.855142
vt 0.851942 0.856053
vt 0.869421 0.852666
vt 0.852387 0.850193
vt 0.859344 0.849671
vt 0.867548 0.846670
vt 0.857478 0.843689
vt 0.864951 0.841225
vt 0.852571 0.845167
vt 0.513075 0.042811
vt 0.519449 0.044810
vt 0.517877 0.048721
vt 0.511538 0.045116
vt 0.873102 0.835873
vt 0.876294 0.839585
vt 0.879327 0.831665
vt 0.882968 0.834671
vt 0.529818 0.042449
vt 0.527906 0.045694
vt 0.885177 0.826776
vt 0.886174 0.831451
vt 0.536796 0.041329
vt 0.535497 0.044409
vt 0.869722 0.831367
vt 0.876538 0.827415
vt 0.881956 0.823003
vt 0.542999 0.041979
vt 0.542324 0.037117
vt 0.551539 0.038112
vt 0.550379 0.042231
vt 0.560195 0.043235
vt 0.562413 0.038535
vt 0.876408 0.818603
vt 0.870862 0.822022
vt 0.861349 0.813783
vt 0.865985 0.808962
vt 0.576821 0.044731
vt 0.573085 0.049527
vt 0.557132 0.048952
vt 0.568757 0.055381
vt 0.583425 0.056955
vt 0.578772 0.062528
vt 0.587000 0.052097
vt 0.592609 0.059805
vt 0.589435 0.063726
vt 0.584542 0.070059
vt 0.579598 0.077352
vt 0.573649 0.069100
vt 0.563656 0.061784
vt 0.590289 0.076876
vt 0.586244 0.086478
vt 0.594352 0.071091
vt 0.594513 0.086888
vt 0.590935 0.096193
vt 0.599171 0.080392
vt 0.598130 0.067437
vt 0.602383 0.074887
vt 0.598436 0.099668
vt 0.602431 0.093385
vt 0.606056 0.087370
vt 0.600043 0.065293
vt 0.605363 0.070971
vt 0.608744 0.080687
vt 0.605793 0.102559
vt 0.608868 0.097580
vt 0.817933 0.816238
vt 0.823645 0.809428
vt 0.828001 0.812279
vt 0.822136 0.818799
vt 0.604136 0.062779
vt 0.615144 0.073999
vt 0.832715 0.815294
vt 0.826771 0.821416
vt 0.823243 0.826965
vt 0.818594 0.824328
vt 0.813986 0.823014
vt 0.817376 0.829696
vt 0.813946 0.828396
vt 0.821236 0.831920
vt 0.832145 0.824493
vt 0.828391 0.829857
vt 0.826097 0.834856
vt 0.823447 0.840153
vt 0.818083 0.836885
vt 0.814426 0.834470
vt 0.810408 0.839860
vt 0.814902 0.842079
vt 0.820613 0.845751
vt 0.831812 0.838992
vt 0.829248 0.844032
vt 0.826372 0.849873
vt 0.832842 0.854391
vt 0.836080 0.848675
vt 0.839110 0.843963
vt 0.823972 0.856712
vt 0.818088 0.852248
vt 0.830806 0.860677
vt 0.841755 0.859683
vt 0.840342 0.864771
vt 0.843588 0.854082
vt 0.845748 0.848294
vt 0.848409 0.842686
vt 0.843016 0.839264
vt 0.835058 0.833852
vt 0.848073 0.834554
vt 0.853575 0.839080
vt 0.839555 0.828932
vt 0.861379 0.835660
vt 0.855212 0.830530
vt 0.845912 0.823574
vt 0.854216 0.818005
vt 0.864058 0.825421
vt 0.838298 0.818604
vt 0.846839 0.812077
vt 0.853764 0.806140
vt 0.603158 0.056645
vt 0.616908 0.065944
vt 0.596048 0.056361
vt 0.595839 0.050346
vt 0.583618 0.042811
vt 0.839719 0.869811
vt 0.830076 0.866273
vt 0.822501 0.863037
vt 0.813476 0.863842
vt 0.815376 0.858296
vt 0.808997 0.853583
vt 0.812152 0.848067
vt 0.806100 0.858382
vt 0.812867 0.869238
vt 0.805009 0.867704
vt 0.807443 0.864295
vt 0.802238 0.861149
vt 0.796728 0.858206
vt 0.801124 0.854931
vt 0.804201 0.850667
vt 0.797868 0.852450
vt 0.799948 0.848243
vt 0.794621 0.852416
vt 0.577643 0.127807
vt 0.578058 0.122268
vt 0.584070 0.120547
vt 0.583987 0.125828
vt 0.571450 0.129377
vt 0.571678 0.123712
vt 0.583555 0.113565
vt 0.564693 0.129535
vt 0.584720 0.105987
vt 0.589338 0.110897
vt 0.589853 0.117913
vt 0.588100 0.101454
vt 0.583432 0.101285
vt 0.585500 0.097086
vt 0.583159 0.098034
vt 0.583004 0.094601
vt 0.593881 0.106145
vt 0.596707 0.114244
vt 0.601415 0.108021
vt 0.590577 0.122746
vt 0.597851 0.119530
vt 0.603365 0.113867
vt 0.607338 0.109450
vt 0.809485 0.826174
vt 0.810666 0.833115
vt 0.806068 0.837180
vt 0.804760 0.832048
vt 0.803281 0.842864
vt 0.799775 0.839219
vt 0.807613 0.845479
vt 0.796242 0.845984
vt 0.611608 0.104769
vt 0.858975 0.878170
vt 0.858535 0.880592
vt 0.014575 0.598461
vt 0.876807 0.856698
vt 0.876104 0.861719
vt 0.174231 0.008089
vt 0.028408 0.605216
vt 0.023858 0.606295
vt 0.032875 0.605330
vt 0.974217 0.784471
s 1
usemtl abyss_chancel_background_pbr
f 1/1/1 2/2/2 7/3/3 5/4/4
f 1/1/1 3/5/5 70/6/6 2/2/2
f 3/5/5 1/1/1 4/7/7 80/8/8
f 1/1/1 5/4/4 8/9/9 4/7/7
f 6/10/10 9/11/11 8/9/9 5/4/4
f 5/4/4 7/3/3 65/12/12 6/10/10
f 8/9/9 9/11/11 13/13/13 10/14/14
f 11/15/15 4/7/7 8/9/9 10/14/14
f 82/16/16 11/15/15 10/14/14 12/17/17
f 12/17/17 10/14/14 13/13/13 15/18/18
f 9/11/11 26/19/19 14/20/20 13/13/13
f 15/18/18 13/13/13 14/20/20 17/21/21
f 15/18/18 16/22/22 84/23/23 12/17/17
f 17/21/21 18/24/24 16/22/22 15/18/18
f 19/25/25 21/26/26 18/24/24 17/21/21
f 14/20/20 22/27/27 19/25/25 17/21/21
f 104/28/28 21/26/26 19/25/25 20/29/29
f 23/30/30 20/29/29 19/25/25 22/27/27
f 22/27/27 24/31/31 27/32/32 23/30/30
f 24/31/31 22/27/27 14/20/20 26/19/19
f 26/19/19 67/33/33 25/34/34 24/31/31
f 25/34/34 29/35/35 27/32/32 24/31/31
f 29/35/35 30/36/36 28/37/37 27/32/32
f 23/30/30 27/32/32 28/37/37 39/38/38
f 30/36/36 29/35/35 31/39/39 33/40/40
f 31/39/39 29/35/35 25/34/34 32/41/41
f 31/39/39 32/41/41 34/42/42 33/40/40
f 35/43/43 33/44/40 34/45/42 36/46/44
f 30/36/36 33/40/40 35/47/43 28/37/37
f 38/48/45 37/49/46 35/43/43 36/46/44
f 39/38/38 28/37/37 35/47/43 37/50/46
f 37/49/46 38/48/45 43/51/47 40/52/48
f 37/49/46 40/52/48 41/53/49 39/54/38
f 42/55/50 105/56/51 41/57/49 40/58/48
f 43/51/47 45/59/52 42/60/50 40/52/48
f 56/61/53 44/62/54 43/51/47 38/48/45
f 47/63/55 45/59/52 43/51/47 44/62/54
f 46/64/56 98/65/57 42/60/50 45/59/52
f 45/59/52 47/63/55 48/66/58 46/64/56
f 49/67/59 50/68/60 48/66/58 47/63/55
f 49/67/59 47/63/55 44/62/54 52/69/61
f 49/67/59 51/70/62 200/71/63 50/68/60
f 49/67/59 52/69/61 53/72/64 51/70/62
f 54/73/65 57/74/66 53/72/64 52/69/61
f 44/62/54 56/61/53 54/73/65 52/69/61
f 68/75/67 55/76/68 54/73/65 56/61/53
f 59/77/69 57/74/66 54/73/65 55/76/68
f 58/78/70 204/79/71 53/72/64 57/74/66
f 57/74/66 59/77/69 60/80/72 58/78/70
f 55/76/68 63/81/73 61/82/74 59/77/69
f 60/80/72 59/77/69 61/82/74 62/83/75
f 2/2/2 62/84/75 61/85/74 7/3/3
f 61/85/74 63/86/73 65/12/12 7/3/3
f 63/81/73 55/76/68 68/75/67 64/87/76
f 64/88/76 66/89/77 65/12/12 63/86/73
f 65/12/12 66/89/77 67/33/33 6/10/10
f 66/89/77 32/41/41 25/34/34 67/33/33
f 66/89/77 64/88/76 34/42/42 32/41/41
f 9/11/11 6/10/10 67/33/33 26/19/19
f 34/45/42 64/87/76 68/75/67 36/46/44
f 38/48/45 36/46/44 68/75/67 56/61/53
f 62/84/75 2/2/2 70/6/6 69/90/78
f 69/91/78 72/92/79 60/80/72 62/83/75
f 71/93/80 69/90/78 70/6/6 3/5/5
f 72/94/79 69/90/78 71/93/80 73/95/81
f 73/95/81 76/96/82 74/97/83 72/94/79
f 74/98/83 58/78/70 60/80/72 72/92/79
f 204/79/71 58/78/70 74/98/83 75/99/84
f 77/100/85 75/101/84 74/97/83 76/96/82
f 73/95/81 80/8/8 78/102/86 76/96/82
f 78/102/86 79/103/87 77/100/85 76/96/82
f 11/15/15 82/16/16 79/103/87 78/102/86
f 78/102/86 80/8/8 4/7/7 11/15/15
f 80/8/8 73/95/81 71/93/80 3/5/5
f 83/104/88 81/105/89 79/103/87 82/16/16
f 81/105/89 206/106/90 77/100/85 79/103/87
f 12/17/17 84/23/23 83/104/88 82/16/16
f 87/107/91 85/108/92 83/104/88 84/23/23
f 86/109/93 81/105/89 83/104/88 85/108/92
f 86/109/93 85/108/92 88/110/94 91/111/95
f 87/107/91 93/112/96 88/110/94 85/108/92
f 90/113/97 88/114/94 89/115/98 209/116/99
f 88/110/94 93/112/96 48/117/58 89/118/98
f 106/119/100 92/120/101 88/114/94 90/113/97
f 107/121/102 91/111/95 88/110/94 92/122/101
f 48/117/58 93/112/96 94/123/103 46/124/56
f 87/107/91 96/125/104 94/123/103 93/112/96
f 99/126/105 97/127/106 94/123/103 95/128/107
f 103/129/108 95/128/107 94/123/103 96/125/104
f 98/130/57 46/124/56 94/123/103 97/127/106
f 99/126/105 100/131/109 98/130/57 97/127/106
f 99/126/105 101/132/110 102/133/111 100/131/109
f 99/126/105 95/128/107 103/129/108 101/132/110
f 21/26/26 104/28/28 102/133/111 101/132/110
f 101/132/110 103/129/108 18/24/24 21/26/26
f 103/129/108 96/125/104 16/22/22 18/24/24
f 105/56/51 100/131/109 102/133/111 104/28/28
f 105/56/51 104/28/28 20/29/29 41/57/49
f 100/131/109 105/56/51 42/55/50 98/130/57
f 96/125/104 87/107/91 84/23/23 16/22/22
f 92/120/101 106/119/100 110/134/112 108/135/113
f 92/120/101 108/135/113 112/136/114 107/137/102
f 449/138/115 111/139/116 108/140/113 109/141/117
f 442/142/118 109/143/117 108/135/113 110/134/112
f 113/144/119 112/145/114 108/140/113 111/139/116
f 118/146/120 115/147/121 112/145/114 113/144/119
f 107/148/102 112/149/114 114/150/122 197/151/123
f 112/145/114 115/147/121 116/152/124 114/153/122
f 115/147/121 117/154/125 166/155/126 116/152/124
f 115/147/121 118/146/120 119/156/127 117/154/125
f 113/144/119 122/157/128 120/158/129 118/146/120
f 118/146/120 120/158/129 123/159/130 119/156/127
f 122/157/128 132/160/131 121/161/132 120/158/129
f 121/161/132 124/162/133 123/159/130 120/158/129
f 125/163/134 119/156/127 123/159/130 124/162/133
f 121/161/132 129/164/135 126/165/136 124/162/133
f 124/162/133 126/165/136 128/166/137 125/163/134
f 130/167/138 127/168/139 126/165/136 129/164/135
f 127/168/139 170/169/140 128/166/137 126/165/136
f 134/170/141 130/167/138 129/164/135 131/171/142
f 132/160/131 131/171/142 129/164/135 121/161/132
f 450/172/143 133/173/144 131/171/142 132/160/131
f 136/174/145 134/175/141 131/176/142 133/177/144
f 135/178/146 134/175/141 136/174/145 137/179/147
f 134/170/141 135/180/146 179/181/148 130/167/138
f 139/182/149 137/179/147 136/174/145 138/183/150
f 140/184/151 138/183/150 136/174/145 133/177/144
f 141/185/152 144/186/153 139/182/149 138/183/150
f 142/187/154 141/185/152 138/183/150 140/184/151
f 443/188/155 143/189/156 141/185/152 142/187/154
f 141/185/152 143/189/156 146/190/157 144/186/153
f 145/191/158 177/192/159 139/182/149 144/186/153
f 145/191/158 144/186/153 146/190/157 148/193/160
f 148/193/160 146/190/157 147/194/161 182/195/162
f 149/196/163 152/197/164 147/194/161 146/190/157
f 151/198/165 149/196/163 146/190/157 143/189/156
f 152/199/164 149/200/163 150/201/166 154/202/167
f 149/200/163 151/203/165 288/204/168 150/201/166
f 153/205/169 182/195/162 147/194/161 152/197/164
f 152/197/164 154/206/167 156/207/170 153/205/169
f 154/208/167 155/209/171 157/210/172 156/211/170
f 155/212/171 154/213/167 150/214/166 286/215/173
f 158/216/174 156/207/170 157/217/172 159/218/175
f 156/207/170 158/216/174 160/219/176 153/205/169
f 159/220/175 164/221/177 161/222/178 158/223/174
f 158/216/174 161/224/178 163/225/179 160/219/176
f 165/226/180 162/227/181 161/222/178 164/221/177
f 162/227/181 172/228/182 163/229/179 161/222/178
f 159/220/175 183/230/183 116/152/124 164/221/177
f 165/226/180 164/221/177 116/152/124 166/155/126
f 166/155/126 117/154/125 167/231/184 165/226/180
f 162/227/181 165/226/180 167/231/184 168/232/185
f 119/156/127 125/163/134 167/231/184 117/154/125
f 167/231/184 125/163/134 128/166/137 168/232/185
f 162/227/181 168/232/185 169/233/186 172/228/182
f 128/166/137 170/169/140 169/233/186 168/232/185
f 169/233/186 170/169/140 180/234/187 171/235/188
f 173/236/189 172/228/182 169/233/186 171/235/188
f 172/237/182 173/238/189 174/239/190 163/225/179
f 171/235/188 176/240/191 175/241/192 173/236/189
f 174/239/190 173/238/189 175/242/192 177/192/159
f 135/178/146 137/179/147 175/242/192 176/243/191
f 175/242/192 137/179/147 139/182/149 177/192/159
f 145/191/158 181/244/193 174/239/190 177/192/159
f 176/240/191 178/245/194 179/181/148 135/180/146
f 176/240/191 171/235/188 180/234/187 178/245/194
f 127/168/139 130/167/138 179/181/148 178/245/194
f 127/168/139 178/245/194 180/234/187 170/169/140
f 160/219/176 163/225/179 174/239/190 181/244/193
f 148/193/160 182/195/162 181/244/193 145/191/158
f 182/195/162 153/205/169 160/219/176 181/244/193
f 183/246/183 159/218/175 157/217/172 184/247/195
f 184/248/195 185/249/196 116/250/124 183/251/183
f 185/249/196 184/248/195 186/252/197 188/253/198
f 186/252/197 184/248/195 157/210/172 155/209/171
f 189/254/199 188/253/198 186/252/197 187/255/200
f 286/256/173 187/255/200 186/252/197 155/209/171
f 190/257/201 188/253/198 189/254/199 192/258/202
f 185/249/196 188/253/198 190/257/201 191/259/203
f 196/260/204 191/259/203 190/257/201 193/261/205
f 195/262/206 193/261/205 190/257/201 192/258/202
f 194/263/207 198/264/208 196/260/204 193/261/205
f 193/261/205 195/262/206 89/265/98 194/263/207
f 114/150/122 191/259/203 196/260/204 197/151/123
f 199/266/209 197/151/123 196/260/204 198/264/208
f 50/68/60 200/71/63 198/267/208 194/268/207
f 201/269/210 199/270/209 198/267/208 200/71/63
f 203/271/211 201/269/210 200/71/63 51/70/62
f 202/272/212 201/269/210 203/271/211 205/273/213
f 201/269/210 202/272/212 91/274/95 199/270/209
f 53/72/64 204/79/71 203/271/211 51/70/62
f 75/99/84 205/273/213 203/271/211 204/79/71
f 205/275/213 75/101/84 77/100/85 206/106/90
f 205/275/213 206/106/90 207/276/214 202/277/212
f 81/105/89 86/109/93 207/276/214 206/106/90
f 91/111/95 202/277/212 207/276/214 86/109/93
f 197/151/123 199/266/209 91/278/95 107/148/102
f 208/279/215 195/262/206 192/258/202 210/280/216
f 208/279/215 209/281/99 89/265/98 195/262/206
f 209/281/99 208/279/215 211/282/217 212/283/218
f 210/280/216 214/284/219 211/282/217 208/279/215
f 412/285/220 212/283/218 211/282/217 213/286/221
f 211/282/217 215/287/222 218/288/223 213/286/221
f 211/282/217 214/284/219 216/289/224 215/287/222
f 217/290/225 215/287/222 216/289/224 283/291/226
f 218/288/223 215/287/222 217/290/225 219/292/227
f 218/288/223 219/292/227 223/293/228 220/294/229
f 213/286/221 218/288/223 220/294/229 221/295/230
f 220/294/229 222/296/231 410/297/232 221/295/230
f 223/293/228 224/298/233 222/296/231 220/294/229
f 228/299/234 225/300/235 223/293/228 219/292/227
f 226/301/236 224/298/233 223/293/228 225/300/235
f 226/301/236 225/300/235 227/302/237 421/303/238
f 228/299/234 229/304/239 227/302/237 225/300/235
f 229/304/239 228/299/234 230/305/240 232/306/241
f 228/299/234 219/292/227 217/290/225 230/305/240
f 233/307/242 232/306/241 230/305/240 231/308/243
f 231/308/243 230/305/240 217/290/225 283/291/226
f 235/309/244 229/304/239 232/306/241 234/310/245
f 237/311/246 234/310/245 232/306/241 233/307/242
f 422/312/247 235/309/244 234/310/245 236/313/248
f 238/314/249 236/313/248 234/310/245 237/311/246
f 237/311/246 233/307/242 242/315/250 239/316/251
f 239/316/251 240/317/252 238/314/249 237/311/246
f 240/317/252 239/316/251 241/318/253 253/319/254
f 241/318/253 239/316/251 242/315/250 244/320/255
f 233/307/242 231/308/243 243/321/256 242/315/250
f 244/320/255 242/315/250 243/321/256 245/322/257
f 247/323/258 246/324/259 244/320/255 245/322/257
f 246/324/259 249/325/260 241/318/253 244/320/255
f 247/323/258 269/326/261 248/327/262 246/324/259
f 249/325/260 246/324/259 248/327/262 250/328/263
f 250/328/263 254/329/264 251/330/265 249/325/260
f 251/330/265 253/319/254 241/318/253 249/325/260
f 256/331/266 252/332/267 251/330/265 254/329/264
f 252/332/267 445/333/268 253/319/254 251/330/265
f 258/334/269 256/331/266 254/329/264 255/335/270
f 267/336/271 255/335/270 254/329/264 250/328/263
f 258/334/269 259/337/272 257/338/273 256/331/266
f 252/332/267 256/331/266 257/338/273 446/339/274
f 260/340/275 261/341/276 259/337/272 258/334/269
f 258/334/269 255/335/270 263/342/277 260/340/275
f 262/343/278 448/344/279 261/341/276 260/340/275
f 263/342/277 264/345/280 262/343/278 260/340/275
f 266/346/281 264/345/280 263/342/277 265/347/282
f 267/336/271 265/347/282 263/342/277 255/335/270
f 271/348/283 266/346/281 265/347/282 268/349/284
f 269/326/261 268/349/284 265/347/282 267/336/271
f 247/323/258 270/350/285 268/349/284 269/326/261
f 273/351/286 271/348/283 268/349/284 270/350/285
f 272/352/287 271/348/283 273/351/286 275/353/288
f 271/348/283 272/352/287 288/204/168 266/346/281
f 284/354/289 274/355/290 273/351/286 270/350/285
f 277/356/291 275/353/288 273/351/286 274/355/290
f 277/356/291 278/357/292 276/358/293 275/353/288
f 272/352/287 275/353/288 276/358/293 285/359/294
f 277/356/291 279/360/295 281/361/296 278/357/292
f 274/355/290 280/362/297 279/360/295 277/356/291
f 216/289/224 214/284/219 279/360/295 280/362/297
f 214/284/219 210/280/216 281/361/296 279/360/295
f 278/357/292 281/361/296 189/254/199 187/255/200
f 210/280/216 192/258/202 189/254/199 281/361/296
f 280/362/297 274/355/290 284/354/289 282/363/298
f 282/363/298 283/291/226 216/289/224 280/362/297
f 283/291/226 282/363/298 243/321/256 231/308/243
f 243/321/256 282/363/298 284/354/289 245/322/257
f 247/323/258 245/322/257 284/354/289 270/350/285
f 187/255/200 286/256/173 276/358/293 278/357/292
f 276/358/293 287/364/299 150/201/166 285/359/294
f 286/256/173 150/201/166 287/364/299 276/358/293
f 285/359/294 150/201/166 288/204/168 272/352/287
f 264/345/280 266/346/281 288/204/168 289/365/300
f 290/366/301 289/365/300 288/204/168 151/203/165
f 289/365/300 291/367/302 262/343/278 264/345/280
f 291/368/302 289/369/300 290/370/301 293/371/303
f 262/343/278 291/367/302 292/372/304 448/344/279
f 293/371/303 295/373/305 292/374/304 291/368/302
f 294/375/306 293/371/303 290/370/301 393/376/307
f 293/371/303 294/375/306 296/377/308 295/373/305
f 297/378/309 295/373/305 296/377/308 298/379/310
f 295/373/305 297/378/309 299/380/311 292/374/304
f 302/381/312 300/382/313 297/378/309 298/379/310
f 297/378/309 300/382/313 303/383/314 299/380/311
f 301/384/315 304/385/316 303/383/314 300/382/313
f 300/382/313 302/381/312 391/386/317 301/384/315
f 303/387/314 305/388/318 307/389/319 299/390/311
f 306/391/320 305/392/318 303/383/314 304/385/316
f 311/393/321 308/394/322 305/392/318 306/391/320
f 308/395/322 310/396/323 307/389/319 305/388/318
f 311/393/321 313/397/324 309/398/325 308/394/322
f 310/396/323 308/395/322 309/399/325 447/400/326
f 306/391/320 380/401/327 312/402/328 311/393/321
f 313/397/324 311/393/321 312/402/328 315/403/329
f 314/404/330 313/405/324 315/406/329 316/407/331
f 314/404/330 447/400/326 309/399/325 313/405/324
f 320/408/332 316/407/331 315/406/329 317/409/333
f 317/410/333 315/403/329 312/402/328 319/411/334
f 383/412/335 318/413/336 317/410/333 319/411/334
f 318/414/336 322/415/337 320/408/332 317/409/333
f 321/416/338 446/339/274 316/407/331 320/408/332
f 322/415/337 323/417/339 321/416/338 320/408/332
f 322/415/337 324/418/340 327/419/341 323/417/339
f 322/415/337 318/414/336 326/420/342 324/418/340
f 326/420/342 389/421/343 325/422/344 324/418/340
f 325/422/344 329/423/345 327/419/341 324/418/340
f 329/423/345 330/424/346 328/425/347 327/419/341
f 323/417/339 327/419/341 328/425/347 444/426/348
f 329/423/345 331/427/349 332/428/350 330/424/346
f 331/427/349 329/423/345 325/422/344 334/429/351
f 333/430/352 423/431/353 332/428/350 331/427/349
f 331/427/349 334/429/351 336/432/354 333/430/352
f 335/433/355 334/429/351 325/422/344 389/421/343
f 335/433/355 338/434/356 336/432/354 334/429/351
f 425/435/357 333/430/352 336/432/354 337/436/358
f 336/432/354 338/434/356 340/437/359 337/436/358
f 338/434/356 335/433/355 388/438/360 339/439/361
f 338/434/356 339/439/361 342/440/362 340/437/359
f 430/441/363 337/436/358 340/437/359 341/442/364
f 341/443/364 340/444/359 342/445/362 344/446/365
f 339/439/361 385/447/366 343/448/367 342/440/362
f 344/446/365 342/445/362 343/449/367 345/450/368
f 344/446/365 345/450/368 349/451/369 346/452/370
f 346/452/370 347/453/371 341/443/364 344/446/365
f 346/452/370 348/454/372 441/455/373 347/453/371
f 348/454/372 346/452/370 349/451/369 351/456/374
f 345/450/368 390/457/375 350/458/376 349/451/369
f 351/456/374 349/451/369 350/458/376 352/459/377
f 356/460/378 353/461/379 351/456/374 352/459/377
f 355/462/380 348/454/372 351/456/374 353/461/379
f 436/463/381 355/462/380 353/461/379 354/464/382
f 357/465/383 354/464/382 353/461/379 356/460/378
f 360/466/384 358/467/385 356/460/378 352/459/377
f 361/468/386 357/465/383 356/460/378 358/467/385
f 363/469/387 361/468/386 358/467/385 359/470/388
f 358/467/385 360/466/384 370/471/389 359/470/388
f 361/468/386 362/472/390 398/473/391 357/465/383
f 363/469/387 364/474/392 362/472/390 361/468/386
f 365/475/393 366/476/394 364/474/392 363/469/387
f 363/469/387 359/470/388 367/477/395 365/475/393
f 296/377/308 294/375/306 366/476/394 365/475/393
f 367/477/395 298/379/310 296/377/308 365/475/393
f 370/471/389 368/478/396 367/477/395 359/470/388
f 302/381/312 298/379/310 367/477/395 368/478/396
f 369/479/397 368/478/396 370/471/389 371/480/398
f 368/478/396 369/479/397 391/386/317 302/381/312
f 372/481/399 371/480/398 370/471/389 360/466/384
f 369/479/397 371/480/398 373/482/400 374/483/401
f 373/482/400 371/480/398 372/481/399 375/484/402
f 379/485/403 374/483/401 373/482/400 376/486/404
f 378/487/405 376/486/404 373/482/400 375/484/402
f 378/487/405 382/488/406 377/489/407 376/486/404
f 377/489/407 380/401/327 379/485/403 376/486/404
f 301/384/315 374/483/401 379/485/403 304/385/316
f 306/391/320 304/385/316 379/485/403 380/401/327
f 312/402/328 380/401/327 377/489/407 319/411/334
f 381/490/408 378/487/405 375/484/402 390/457/375
f 378/487/405 381/490/408 384/491/409 382/488/406
f 383/412/335 319/411/334 377/489/407 382/488/406
f 382/488/406 384/491/409 386/492/410 383/412/335
f 343/448/367 385/447/366 384/493/409 381/494/408
f 385/447/366 387/495/411 386/496/410 384/493/409
f 387/495/411 389/421/343 326/420/342 386/496/410
f 383/497/335 386/496/410 326/420/342 318/414/336
f 385/447/366 339/439/361 388/438/360 387/495/411
f 389/421/343 387/495/411 388/438/360 335/433/355
f 390/457/375 345/450/368 343/449/367 381/490/408
f 390/457/375 375/484/402 372/481/399 350/458/376
f 374/483/401 301/384/315 391/386/317 369/479/397
f 352/459/377 350/458/376 372/481/399 360/466/384
f 392/498/412 394/499/413 364/474/392 366/476/394
f 294/375/306 393/376/307 392/498/412 366/476/394
f 442/142/118 110/134/112 392/498/412 393/376/307
f 106/119/100 394/499/413 392/498/412 110/134/112
f 394/499/413 106/119/100 90/113/97 395/500/414
f 394/499/413 395/500/414 362/472/390 364/474/392
f 395/500/414 90/113/97 399/501/415 396/502/416
f 395/500/414 396/502/416 398/473/391 362/472/390
f 396/502/416 397/503/417 438/504/418 398/473/391
f 397/503/417 396/502/416 399/501/415 401/505/419
f 209/116/99 212/506/218 399/501/415 90/113/97
f 212/506/218 412/507/220 400/508/420 399/501/415
f 401/505/419 399/501/415 400/508/420 402/509/421
f 401/505/419 402/509/421 406/510/422 403/511/423
f 403/511/423 404/512/424 397/503/417 401/505/419
f 404/512/424 403/511/423 405/513/425 439/514/426
f 406/510/422 407/515/427 405/513/425 403/511/423
f 406/516/422 408/517/428 409/518/429 407/519/427
f 406/516/422 402/520/421 411/521/430 408/517/428
f 410/297/232 413/522/431 409/518/429 408/517/428
f 411/521/430 221/295/230 410/297/232 408/517/428
f 412/285/220 213/286/221 221/295/230 411/521/430
f 400/523/420 412/285/220 411/521/430 402/520/421
f 415/524/432 413/522/431 410/297/232 222/296/231
f 409/518/429 413/522/431 414/525/433 427/526/434
f 415/524/432 416/527/435 414/525/433 413/522/431
f 417/528/436 415/524/432 222/296/231 224/298/233
f 419/529/437 416/527/435 415/524/432 417/528/436
f 419/529/437 417/528/436 418/530/438 420/531/439
f 224/298/233 226/301/236 418/530/438 417/528/436
f 420/531/439 422/312/247 332/428/350 419/529/437
f 416/527/435 419/529/437 332/428/350 423/431/353
f 420/531/439 421/303/238 235/309/244 422/312/247
f 421/303/238 420/531/439 418/530/438 226/301/236
f 236/313/248 330/424/346 332/428/350 422/312/247
f 235/309/244 421/303/238 227/302/237 229/304/239
f 423/431/353 424/532/440 414/525/433 416/527/435
f 423/431/353 333/430/352 425/435/357 424/532/440
f 426/533/441 424/532/440 425/435/357 429/534/442
f 414/525/433 424/532/440 426/533/441 427/526/434
f 440/535/443 427/526/434 426/533/441 428/536/444
f 431/537/445 428/536/444 426/533/441 429/534/442
f 430/441/363 432/538/446 431/537/445 429/534/442
f 430/441/363 429/534/442 425/435/357 337/436/358
f 432/539/446 434/540/447 433/541/448 431/542/445
f 433/541/448 435/543/449 428/544/444 431/542/445
f 434/540/447 355/462/380 436/463/381 433/541/448
f 436/463/381 437/545/450 435/543/449 433/541/448
f 354/464/382 438/504/418 437/545/450 436/463/381
f 397/503/417 404/512/424 437/545/450 438/504/418
f 404/512/424 439/514/426 435/543/449 437/545/450
f 357/465/383 398/473/391 438/504/418 354/464/382
f 439/514/426 440/546/443 428/544/444 435/543/449
f 440/546/443 439/514/426 405/513/425 407/515/427
f 440/535/443 407/519/427 409/518/429 427/526/434
f 355/462/380 434/540/447 441/455/373 348/454/372
f 432/539/446 347/453/371 441/455/373 434/540/447
f 347/547/371 432/538/446 430/441/363 341/442/364
f 442/142/118 393/376/307 290/370/301 443/548/155
f 443/548/155 142/549/154 109/143/117 442/142/118
f 143/189/156 443/188/155 290/550/301 151/198/165
f 330/424/346 236/313/248 238/314/249 328/425/347
f 444/426/348 328/425/347 238/314/249 240/317/252
f 444/426/348 240/317/252 253/319/254 445/333/268
f 323/417/339 444/426/348 445/333/268 321/416/338
f 446/339/274 321/416/338 445/333/268 252/332/267
f 257/338/273 314/404/330 316/407/331 446/339/274
f 447/400/326 314/404/330 257/338/273 259/337/272
f 310/396/323 447/400/326 259/337/272 261/341/276
f 307/389/319 310/396/323 261/341/276 448/344/279
f 292/374/304 299/380/311 307/551/319 448/552/279
f 267/336/271 250/328/263 248/327/262 269/326/261
f 194/268/207 89/553/98 48/66/58 50/68/60
f 191/259/203 114/150/122 116/250/124 185/249/196
f 140/184/151 449/554/115 109/555/117 142/187/154
f 449/554/115 140/184/151 133/177/144 450/556/143
f 449/138/115 450/172/143 451/557/451 111/139/116
f 132/160/131 122/157/128 451/557/451 450/172/143
f 113/144/119 111/139/116 451/557/451 122/157/128
f 39/38/38 41/57/49 20/29/29 23/30/30
