# Blender 5.2.0 LTS
# www.blender.org
mtllib terrain-abyss-chancel-object-048.mtl
o terrain-abyss-chancel-object-048
v -0.382725 1.050399 0.093758
v -0.383399 1.047729 0.093390
v -0.377643 1.049672 0.093259
v -0.381247 1.050491 0.099516
v -0.388476 1.051633 0.095570
v -0.386927 1.051753 0.100924
v -0.390142 1.048180 0.093936
v -0.392954 1.053010 0.098698
v -0.399217 1.057676 0.102761
v -0.394930 1.051999 0.106910
v -0.395242 1.050319 0.094247
v -0.395834 1.048669 0.099598
v -0.402314 1.051889 0.096612
v -0.406299 1.052347 0.090066
v -0.409210 1.052644 0.101599
v -0.403835 1.048380 0.098834
v -0.412217 1.048008 0.101033
v -0.406896 1.048817 0.088786
v -0.403537 1.048890 0.106799
v -0.401730 1.048108 0.110798
v -0.397630 1.049534 0.106520
v -0.415383 1.054401 0.109086
v -0.414119 1.059455 0.111277
v -0.414835 1.052998 0.117783
v -0.422919 1.049856 0.113660
v -0.411111 1.049270 0.111390
v -0.416983 1.052592 0.106920
v -0.422919 1.049856 0.113660
v -0.417588 1.048279 0.101555
v -0.423806 1.048862 0.109052
v -0.415151 1.052002 0.099208
v -0.428810 1.052136 0.108705
v -0.430790 1.050017 0.113229
v -0.427914 1.052409 0.103923
v -0.437810 1.051243 0.111512
v -0.437238 1.050850 0.113941
v -0.441836 1.049414 0.113041
v -0.437696 1.051394 0.107468
v -0.443587 1.050021 0.110160
v -0.437816 1.051401 0.103655
v -0.445007 1.049854 0.106956
v -0.438340 1.051204 0.099243
v -0.428934 1.051989 0.099820
v -0.418844 1.053282 0.093597
v -0.430334 1.051140 0.095277
v -0.421839 1.052026 0.090238
v -0.429148 1.048522 0.095426
v -0.437594 1.048789 0.098664
v -0.421130 1.047834 0.091700
v -0.426651 1.047899 0.099702
v -0.424866 1.048224 0.103808
v -0.435280 1.047858 0.102567
v -0.418752 1.047354 0.096901
v -0.412237 1.047223 0.093575
v -0.414261 1.048399 0.086539
v -0.410888 1.049214 0.080930
v -0.415872 1.054196 0.083641
v -0.414803 1.051979 0.076976
v -0.415448 1.060912 0.081483
v -0.410684 1.055912 0.086653
v -0.399321 1.055611 0.081034
v -0.409811 1.062489 0.085366
v -0.399501 1.061308 0.081596
v -0.409230 1.071678 0.086049
v -0.399152 1.071379 0.083466
v -0.415350 1.071509 0.080738
v -0.408562 1.083665 0.087701
v -0.398618 1.083861 0.084932
v -0.415444 1.083864 0.081663
v -0.409675 1.098515 0.088848
v -0.399181 1.099070 0.086520
v -0.409920 1.111593 0.085639
v -0.416079 1.098602 0.081893
v -0.414343 1.114245 0.080148
v -0.417471 1.098627 0.073471
v -0.413508 1.098891 0.065548
v -0.416937 1.111964 0.073394
v -0.417196 1.084140 0.073771
v -0.417447 1.070864 0.074544
v -0.413917 1.084147 0.066934
v -0.415375 1.071246 0.068212
v -0.406571 1.084015 0.064045
v -0.409291 1.071020 0.064392
v -0.398598 1.084023 0.066956
v -0.405138 1.099233 0.062988
v -0.397617 1.099504 0.068041
v -0.405174 1.112934 0.065413
v -0.400729 1.114362 0.071912
v -0.411997 1.115060 0.068341
v -0.407119 1.117947 0.075877
v -0.402831 1.113696 0.082896
v -0.397931 1.110853 0.077980
v -0.394630 1.099152 0.077437
v -0.395680 1.084122 0.075782
v -0.397189 1.071245 0.072565
v -0.399540 1.059096 0.067132
v -0.401737 1.071129 0.066023
v -0.405175 1.058579 0.064536
v -0.405864 1.052944 0.061666
v -0.410743 1.059039 0.064887
v -0.415335 1.058706 0.068640
v -0.410852 1.052144 0.062596
v -0.410207 1.047514 0.064249
v -0.416119 1.052626 0.065652
v -0.419339 1.053285 0.070926
v -0.414920 1.047885 0.065950
v -0.415813 1.049219 0.070996
v -0.409923 1.048053 0.071801
v -0.403746 1.047846 0.075728
v -0.401912 1.048233 0.065484
v -0.400033 1.050180 0.078952
v -0.395595 1.050521 0.070118
v -0.394579 1.055304 0.071233
v -0.391399 1.051714 0.063381
v -0.387045 1.055063 0.056164
v -0.396328 1.050792 0.060493
v -0.390468 1.055495 0.063686
v -0.394967 1.059702 0.060023
v -0.389795 1.059305 0.055404
v -0.401037 1.060407 0.055514
v -0.395450 1.064838 0.057611
v -0.392054 1.064574 0.055750
v -0.397697 1.067904 0.053906
v -0.393547 1.070033 0.055820
v -0.395898 1.067346 0.051801
v -0.392999 1.069045 0.052705
v -0.399014 1.060686 0.049537
v -0.392375 1.063325 0.051479
v -0.396877 1.052344 0.051402
v -0.398611 1.055090 0.046018
v -0.390977 1.058710 0.048663
v -0.399727 1.053518 0.039421
v -0.394926 1.052115 0.045684
v -0.396008 1.051775 0.036676
v -0.389398 1.051693 0.045869
v -0.382659 1.051448 0.046615
v -0.390357 1.052156 0.053317
v -0.388216 1.051142 0.039290
v -0.386944 1.051008 0.034134
v -0.381465 1.051069 0.041074
v -0.374203 1.051208 0.041994
v -0.380441 1.050980 0.035631
v -0.373889 1.051307 0.036132
v -0.379882 1.051535 0.029690
v -0.380135 1.053263 0.025583
v -0.373432 1.051894 0.030021
v -0.386261 1.051056 0.028412
v -0.387319 1.054348 0.025268
v -0.393730 1.051209 0.026848
v -0.395827 1.054977 0.023911
v -0.401007 1.050235 0.021598
v -0.393959 1.051019 0.031092
v -0.403687 1.050108 0.024487
v -0.406340 1.050782 0.027737
v -0.408766 1.046931 0.014430
v -0.413974 1.047366 0.015752
v -0.403293 1.047576 0.013646
v -0.407170 1.042739 0.001421
v -0.400382 1.045141 -0.011281
v -0.399260 1.044433 0.002834
v -0.413886 1.042867 0.000823
v -0.409338 1.043325 -0.012040
v -0.419727 1.045170 0.000604
v -0.419311 1.048880 0.016427
v -0.420411 1.050586 0.000156
v -0.416052 1.044320 -0.013221
v -0.416605 1.048691 -0.013118
v -0.413601 1.044858 -0.022332
v -0.412559 1.047370 -0.022372
v -0.406975 1.047688 -0.021362
v -0.411377 1.043141 -0.034916
v -0.405063 1.043918 -0.043324
v -0.405488 1.041041 -0.032013
v -0.409193 1.047910 -0.033603
v -0.403989 1.050907 -0.030005
v -0.401399 1.048410 -0.040346
v -0.396523 1.048102 -0.042311
v -0.394616 1.051187 -0.034790
v -0.386775 1.051923 -0.032001
v -0.393456 1.057983 -0.030454
v -0.390657 1.048867 -0.039498
v -0.386899 1.049349 -0.036586
v -0.387158 1.046310 -0.042299
v -0.388894 1.043224 -0.036441
v -0.380485 1.045552 -0.040201
v -0.396495 1.043966 -0.043123
v -0.385879 1.048059 -0.039169
v -0.382392 1.048216 -0.037515
v -0.373856 1.047414 -0.040039
v -0.379721 1.049812 -0.034218
v -0.371424 1.048994 -0.035023
v -0.378488 1.052820 -0.029129
v -0.370116 1.052834 -0.028726
v -0.379886 1.060367 -0.019768
v -0.380120 1.072060 -0.015609
v -0.384476 1.059131 -0.008033
v -0.387410 1.057757 -0.023120
v -0.370563 1.061957 -0.022928
v -0.360235 1.060728 -0.017094
v -0.370469 1.073705 -0.020152
v -0.360331 1.075300 -0.014568
v -0.371558 1.088298 -0.020685
v -0.382067 1.086054 -0.014548
v -0.372976 1.110739 -0.021900
v -0.360389 1.090411 -0.015080
v -0.361077 1.113944 -0.017539
v -0.358279 1.092908 -0.002104
v -0.357202 1.117342 -0.004579
v -0.360525 1.095279 0.008694
v -0.359659 1.076281 -0.000983
v -0.361926 1.063120 -0.000699
v -0.361896 1.077386 0.007849
v -0.366752 1.058600 0.006158
v -0.361687 1.077793 0.015013
v -0.361313 1.063199 0.009585
v -0.361879 1.097221 0.017827
v -0.369818 1.078816 0.013341
v -0.378092 1.081148 0.008742
v -0.367117 1.064141 0.005996
v -0.370765 1.098987 0.017826
v -0.370448 1.126156 0.020210
v -0.378242 1.101532 0.010348
v -0.378952 1.129340 0.011768
v -0.385245 1.104485 -0.001351
v -0.384396 1.083835 -0.001991
v -0.386032 1.133415 -0.000963
v -0.383591 1.107557 -0.014995
v -0.384161 1.137142 -0.015493
v -0.373942 1.139960 -0.023683
v -0.385229 1.157694 -0.015205
v -0.386446 1.155089 -0.000426
v -0.385581 1.171329 -0.015169
v -0.375268 1.159794 -0.023785
v -0.362037 1.162268 -0.021132
v -0.376018 1.172008 -0.024482
v -0.363552 1.173565 -0.021946
v -0.376322 1.183190 -0.025472
v -0.364098 1.184218 -0.024456
v -0.374509 1.192366 -0.020653
v -0.385691 1.182541 -0.014253
v -0.384228 1.191061 -0.013084
v -0.386905 1.181692 -0.000468
v -0.382794 1.192247 -0.002090
v -0.381362 1.179533 0.013822
v -0.386967 1.169583 -0.000208
v -0.381382 1.167203 0.013741
v -0.379641 1.152476 0.012149
v -0.372248 1.165597 0.022193
v -0.371495 1.150399 0.020994
v -0.372590 1.177395 0.023086
v -0.361737 1.165000 0.019561
v -0.361683 1.176799 0.020223
v -0.356697 1.164680 0.007631
v -0.361972 1.149115 0.019040
v -0.358419 1.147647 0.007685
v -0.361596 1.123580 0.018498
v -0.359975 1.120844 0.008614
v -0.355840 1.145511 -0.006566
v -0.355298 1.164169 -0.007791
v -0.361216 1.142857 -0.019874
v -0.356177 1.176369 -0.008336
v -0.356895 1.188332 -0.009077
v -0.356489 1.176943 0.007332
v -0.356201 1.188092 0.007883
v -0.362384 1.185198 0.021484
v -0.359567 1.196615 0.008464
v -0.364012 1.190949 0.023625
v -0.366948 1.192006 0.007434
v -0.360604 1.198482 -0.008900
v -0.365700 1.193811 -0.023925
v -0.369120 1.193091 -0.006805
v -0.367016 1.192036 0.018701
v -0.378975 1.191144 0.012536
v -0.371585 1.185935 0.023992
v -0.383806 1.069945 -0.003822
v -0.379629 1.067512 0.006870
v -0.382926 1.054880 0.002357
v -0.366423 1.057204 0.003645
v -0.384029 1.047115 -0.003458
v -0.389828 1.050461 -0.009516
v -0.402050 1.055496 -0.012255
v -0.399329 1.052394 0.007109
v -0.394547 1.045619 0.002702
v -0.391313 1.066901 -0.016619
v -0.391375 1.078800 -0.019241
v -0.388291 1.067799 -0.023099
v -0.398885 1.067564 -0.015972
v -0.397416 1.078871 -0.017583
v -0.402394 1.067087 -0.021902
v -0.405079 1.052664 -0.021939
v -0.399904 1.067342 -0.028207
v -0.400923 1.078384 -0.022421
v -0.395715 1.088274 -0.023425
v -0.398314 1.078322 -0.027730
v -0.392792 1.078652 -0.027799
v -0.396315 1.084492 -0.026271
v -0.393185 1.084596 -0.024376
v -0.396263 1.085957 -0.021025
v -0.389002 1.077331 -0.023362
v -0.392626 1.067741 -0.029088
v -0.400840 1.055928 -0.028662
v -0.406975 1.047688 -0.021362
v -0.410873 1.051323 -0.011987
v -0.414433 1.052493 0.000687
v -0.406532 1.052886 0.002932
v -0.417579 1.061183 0.012338
v -0.409279 1.060026 0.009048
v -0.420051 1.074407 0.013637
v -0.420207 1.055290 0.014679
v -0.414161 1.064915 0.028753
v -0.417430 1.075206 0.027076
v -0.408670 1.058478 0.031186
v -0.404910 1.065370 0.027950
v -0.400118 1.057820 0.028476
v -0.406914 1.075697 0.030025
v -0.400670 1.063179 0.022312
v -0.401023 1.059194 0.014048
v -0.400977 1.075567 0.022646
v -0.400567 1.088892 0.024310
v -0.401435 1.074587 0.013288
v -0.401362 1.088593 0.013095
v -0.410828 1.074140 0.007683
v -0.410195 1.087896 0.005935
v -0.420226 1.087523 0.012952
v -0.408734 1.103931 0.006329
v -0.420289 1.104421 0.012336
v -0.400245 1.102302 0.013560
v -0.406768 1.115015 0.010535
v -0.405114 1.121125 0.013602
v -0.413449 1.117284 0.013326
v -0.400535 1.113443 0.015063
v -0.400957 1.113705 0.023483
v -0.402182 1.122097 0.017546
v -0.404867 1.125658 0.019342
v -0.401573 1.121231 0.021836
v -0.405936 1.123880 0.022029
v -0.407905 1.116224 0.027764
v -0.409984 1.122913 0.018420
v -0.415056 1.118404 0.021733
v -0.408068 1.123252 0.015427
v -0.420044 1.103750 0.025593
v -0.418680 1.087761 0.026370
v -0.409146 1.103191 0.030915
v -0.408080 1.088495 0.031360
v -0.400304 1.102299 0.024816
v -0.398312 1.051612 0.018261
v -0.399410 1.049192 0.012315
v -0.390969 1.056402 0.031195
v -0.383647 1.057268 0.030551
v -0.395243 1.056294 0.038827
v -0.385844 1.058703 0.040335
v -0.384482 1.056181 0.049117
v -0.382324 1.062651 0.039580
v -0.377269 1.061308 0.026359
v -0.382508 1.073051 0.039724
v -0.378415 1.061563 0.048785
v -0.369961 1.064485 0.049947
v -0.379698 1.056894 0.054211
v -0.377768 1.073484 0.048420
v -0.377469 1.083663 0.047037
v -0.370004 1.073651 0.050132
v -0.370027 1.083208 0.050241
v -0.364304 1.073628 0.044634
v -0.364061 1.065826 0.044626
v -0.363585 1.073389 0.036486
v -0.363739 1.082805 0.044850
v -0.364714 1.090600 0.043950
v -0.363282 1.083398 0.036332
v -0.365263 1.094050 0.037919
v -0.365557 1.084177 0.028623
v -0.365986 1.073160 0.027987
v -0.372112 1.084644 0.024631
v -0.366237 1.093666 0.031585
v -0.372975 1.096189 0.029292
v -0.373026 1.098287 0.040023
v -0.378991 1.092858 0.030606
v -0.380015 1.083820 0.028735
v -0.378945 1.094311 0.039703
v -0.376166 1.091485 0.044265
v -0.382709 1.083764 0.039085
v -0.371305 1.093086 0.046199
v -0.378850 1.072829 0.028092
v -0.371538 1.072901 0.023061
v -0.369625 1.061802 0.023721
v -0.367998 1.055696 0.025321
v -0.365106 1.063977 0.028757
v -0.363534 1.057532 0.029395
v -0.363084 1.065437 0.036677
v -0.362252 1.058773 0.036864
v -0.363179 1.053170 0.036400
v -0.363174 1.059942 0.043968
v -0.364054 1.053489 0.042536
v -0.369883 1.060184 0.052162
v -0.364986 1.052555 0.050246
v -0.369029 1.062757 0.053738
v -0.373801 1.059944 0.058676
v -0.371793 1.062302 0.059127
v -0.371507 1.058270 0.059041
v -0.379062 1.055424 0.058999
v -0.372580 1.055216 0.057003
v -0.383104 1.053666 0.052555
v -0.374436 1.052378 0.052932
v -0.369619 1.052280 0.053332
v -0.374510 1.051298 0.047533
v -0.368506 1.051721 0.048256
v -0.368407 1.051713 0.042208
v -0.368170 1.051782 0.036138
v -0.367779 1.052397 0.029858
v -0.363036 1.053005 0.030085
v -0.368073 1.054444 0.057320
v -0.368566 1.060415 0.059269
v -0.365574 1.060495 0.054163
v -0.373633 1.054470 0.025536
v -0.409149 1.053486 0.030002
v -0.389828 1.050461 -0.009516
v -0.381456 1.045358 -0.008192
v -0.377738 1.044083 -0.015943
v -0.371356 1.044118 -0.004318
v -0.370016 1.043316 -0.015273
v -0.364740 1.044003 -0.003238
v -0.359275 1.046635 -0.003023
v -0.363517 1.042816 -0.014806
v -0.364230 1.051182 0.007422
v -0.361872 1.052597 0.006136
v -0.357577 1.045374 -0.014651
v -0.361527 1.043305 -0.025702
v -0.357133 1.045070 -0.025640
v -0.360246 1.041314 -0.036117
v -0.367490 1.043264 -0.025906
v -0.366633 1.041663 -0.035147
v -0.374367 1.043565 -0.025230
v -0.373332 1.042688 -0.033188
v -0.383428 1.043401 -0.023733
v -0.381751 1.043054 -0.030679
v -0.392456 1.042843 -0.022937
v -0.386835 1.044479 -0.016608
v -0.396509 1.044847 -0.016716
v -0.390157 1.042569 -0.030008
v -0.399496 1.042349 -0.023964
v -0.398035 1.041674 -0.030545
v -0.396596 1.042196 -0.037611
v -0.403142 1.042002 -0.038175
v -0.381080 1.043424 -0.036343
v -0.374366 1.042670 -0.038653
v -0.375544 1.044741 -0.042708
v -0.368512 1.041413 -0.041918
v -0.370886 1.043980 -0.046071
v -0.363222 1.041111 -0.044503
v -0.366993 1.043099 -0.047475
v -0.357648 1.044218 -0.045356
v -0.353954 1.042471 -0.036917
v -0.362540 1.046945 -0.044732
v -0.358054 1.047172 -0.036823
v -0.367717 1.047274 -0.042410
v -0.364523 1.048152 -0.036161
v -0.362967 1.051087 -0.027264
v -0.358699 1.048588 -0.026476
v -0.357692 1.052087 -0.015447
v -0.359724 1.054090 -0.003649
v -0.402163 1.053328 0.057374
v -0.417643 1.058041 0.074958
v -0.441840 1.048019 0.105462
v -0.433306 1.047826 0.106272
v -0.440030 1.047968 0.108814
v -0.431711 1.048528 0.110638
v -0.438781 1.048491 0.112310
v -0.443268 1.048945 0.101571
v -0.445138 1.049917 0.103061
v -0.416983 1.052592 0.106920
v -0.410747 1.050016 0.115434
v -0.400520 1.049051 0.115869
v -0.411110 1.056297 0.118305
v -0.416895 1.050048 0.115109
v -0.399121 1.054222 0.119826
v -0.408887 1.066980 0.120510
v -0.398426 1.067511 0.120124
v -0.413360 1.068000 0.113030
v -0.406776 1.080011 0.122403
v -0.413962 1.080092 0.115450
v -0.405098 1.094099 0.122826
v -0.397346 1.080633 0.119125
v -0.394499 1.080566 0.108858
v -0.396970 1.094269 0.117605
v -0.397472 1.105002 0.115377
v -0.395140 1.094200 0.107529
v -0.396196 1.105268 0.107920
v -0.402875 1.094540 0.101471
v -0.412532 1.094265 0.105740
v -0.401602 1.080489 0.101570
v -0.402306 1.109131 0.106700
v -0.402996 1.107137 0.118614
v -0.408672 1.106942 0.108272
v -0.410563 1.105054 0.116459
v -0.413474 1.093916 0.116577
v -0.399973 1.068539 0.102778
v -0.411863 1.080423 0.105140
v -0.409852 1.068682 0.104298
v -0.408750 1.059262 0.103663
v -0.395325 1.068296 0.110474
v -0.394788 1.057422 0.110144
v -0.391353 1.052938 0.110498
v -0.391062 1.051254 0.116770
v -0.393454 1.048713 0.110044
v -0.384970 1.050953 0.110610
v -0.385664 1.051068 0.105808
v -0.379369 1.050044 0.110408
v -0.384761 1.050494 0.116309
v -0.380359 1.050014 0.114644
v -0.384832 1.047483 0.113159
v -0.392439 1.049115 0.114497
v -0.384355 1.046516 0.106449
v -0.378495 1.046786 0.111672
v -0.376060 1.049472 0.109266
v -0.376894 1.046211 0.105225
v -0.374309 1.049117 0.104387
v -0.376240 1.046157 0.098806
v -0.375866 1.049683 0.098684
v -0.383652 1.046550 0.099617
v -0.377274 1.047450 0.093582
v -0.390825 1.047689 0.100358
v -0.393050 1.048742 0.108288
v -0.379881 1.050215 0.104826
vn 0.0513 0.7227 -0.6893
vn -0.1251 -0.5518 -0.8246
vn -0.2362 -0.4581 -0.8570
vn 0.0609 0.8535 -0.5176
vn 0.4688 0.5361 -0.7020
vn 0.5258 -0.5303 -0.6651
vn 0.1740 0.9847 -0.0132
vn 0.8038 0.5799 -0.1327
vn 0.1802 0.9794 0.0914
vn 0.2298 0.9043 -0.3599
vn 0.6668 0.7296 -0.1522
vn -0.1679 -0.0842 -0.9822
vn 0.2674 0.3546 -0.8960
vn 0.4247 0.4953 -0.7578
vn 0.9410 0.3340 -0.0539
vn -0.2055 -0.9771 -0.0544
vn -0.1523 -0.9744 -0.1655
vn 0.1651 -0.9818 -0.0944
vn -0.0023 0.9995 0.0317
vn -0.2596 0.8566 -0.4458
vn 0.8616 0.4289 0.2714
vn 0.4218 -0.9067 -0.0087
vn -0.5258 0.2616 -0.8094
vn -0.0234 -0.9967 -0.0783
vn -0.1231 -0.9898 -0.0716
vn 0.0584 -0.9976 -0.0366
vn -0.0128 -0.9585 0.2847
vn -0.8181 0.5323 -0.2178
vn -0.0695 -0.9934 -0.0913
vn -0.2540 -0.9384 -0.2344
vn -0.1219 -0.9917 0.0412
vn 0.0931 -0.9430 0.3194
vn 0.2002 0.4081 0.8907
vn -0.9724 0.2268 -0.0540
vn -0.4685 0.0265 0.8831
vn -0.5034 -0.1252 0.8550
vn -0.8673 -0.2988 -0.3983
vn -0.5035 -0.7095 0.4931
vn -0.1784 -0.2252 -0.9579
vn 0.3861 -0.0955 0.9175
vn 0.2437 -0.9434 0.2250
vn -0.0157 0.9805 0.1957
vn 0.1209 0.0393 0.9919
vn 0.1220 -0.9785 0.1662
vn -0.0437 0.9990 0.0073
vn -0.1501 0.9101 0.3862
vn -0.0153 0.1912 0.9814
vn -0.1556 0.9870 0.0404
vn -0.7345 0.0488 0.6768
vn -0.1998 -0.7555 0.6240
vn -0.8961 0.1666 0.4115
vn -0.0857 0.9955 -0.0404
vn -0.1452 0.9890 -0.0277
vn -0.9733 0.1112 0.2007
vn -0.3705 0.7020 -0.6082
vn -0.9509 0.1222 -0.2844
vn -0.4026 0.5638 -0.7211
vn -0.0876 0.9926 0.0846
vn -0.6025 0.4452 -0.6624
vn -0.3133 -0.8213 -0.4768
vn -0.3089 -0.7451 -0.5911
vn -0.3445 -0.6242 -0.7012
vn -0.0432 -0.9959 -0.0791
vn -0.0315 -0.9994 -0.0114
vn -0.0285 -0.9992 0.0282
vn 0.0305 -0.9971 0.0696
vn -0.2964 -0.8917 -0.3420
vn -0.3523 -0.9358 -0.0167
vn -0.9981 0.0571 0.0222
vn -0.7849 -0.5817 0.2135
vn -0.8451 0.0518 0.5321
vn -0.9985 -0.0273 0.0479
vn 0.0282 0.6617 0.7492
vn -0.1438 0.0381 0.9889
vn 0.7523 -0.5024 0.4263
vn 0.7840 0.2140 0.5828
vn 0.7815 0.0455 0.6223
vn 0.7271 -0.1595 0.6678
vn -0.2096 -0.0910 0.9735
vn -0.8394 -0.0017 0.5435
vn 0.6852 -0.1089 0.7201
vn -0.2232 -0.0996 0.9697
vn -0.8609 -0.0437 0.5069
vn 0.6145 0.1093 0.7813
vn -0.2703 0.0724 0.9601
vn -0.8792 0.0363 0.4751
vn 0.4262 0.6634 0.6150
vn -0.2576 0.4721 0.8431
vn -0.6588 0.6350 0.4034
vn -0.9055 0.3980 -0.1471
vn -0.9881 0.0388 -0.1488
vn -0.9949 -0.0042 -0.1008
vn -0.6265 0.0532 -0.7776
vn -0.6941 -0.0087 -0.7198
vn -0.4397 0.6849 -0.5811
vn -0.9995 0.0149 -0.0295
vn -0.7763 0.0126 -0.6302
vn 0.1395 0.0882 -0.9863
vn 0.0033 -0.0341 -0.9994
vn -0.1848 0.0016 -0.9828
vn 0.7175 -0.0571 -0.6942
vn 0.5258 -0.0134 -0.8505
vn 0.8039 0.1125 -0.5841
vn 0.2083 0.5065 -0.8367
vn 0.6530 0.6816 -0.3301
vn 0.0461 0.9968 0.0657
vn 0.8735 0.4654 0.1431
vn 0.9897 0.1178 0.0820
vn 0.9966 -0.0806 -0.0180
vn 0.9752 -0.0980 -0.1986
vn 0.6659 0.7052 -0.2435
vn 0.0718 0.3776 -0.9232
vn -0.3204 0.1987 -0.9262
vn -0.7433 -0.3197 -0.5877
vn -0.1542 -0.0503 -0.9868
vn -0.2702 -0.0314 -0.9623
vn -0.7774 0.2148 -0.5912
vn -0.7581 -0.0079 -0.6521
vn -0.1390 -0.8220 -0.5523
vn -0.5275 -0.7547 -0.3901
vn 0.1015 -0.9580 -0.2681
vn -0.9953 -0.0928 -0.0257
vn -0.6447 -0.7521 0.1372
vn -0.1611 -0.9812 0.1066
vn 0.2030 -0.9723 0.1161
vn 0.6628 -0.7043 0.2543
vn 0.8992 0.2178 0.3794
vn 0.8241 0.3205 0.4670
vn 0.6841 -0.6922 0.2299
vn 0.0940 -0.9797 -0.1771
vn 0.8781 0.1365 0.4587
vn 0.1916 -0.9716 0.1390
vn 0.1007 0.7957 0.5972
vn 0.7310 0.6372 0.2441
vn 0.7956 0.3781 0.4734
vn -0.1278 0.3942 0.9101
vn -0.9336 0.3572 -0.0290
vn -0.6843 0.7115 0.1597
vn 0.3370 0.8645 0.3730
vn -0.3011 0.5654 -0.7679
vn -0.6054 0.2482 -0.7563
vn 0.5042 0.6660 -0.5498
vn 0.6540 0.4206 -0.6287
vn 0.2568 0.9185 -0.3006
vn -0.9813 0.0484 -0.1861
vn -0.5467 -0.8202 -0.1684
vn -0.3569 -0.9301 0.0870
vn -0.2424 0.9654 0.0965
vn -0.7525 -0.3170 0.5773
vn -0.1890 -0.9673 0.1694
vn -0.0247 -0.9953 0.0935
vn -0.0523 -0.9973 0.0512
vn -0.0058 -0.9994 0.0339
vn -0.0140 -0.9888 0.1486
vn -0.1496 -0.6318 0.7606
vn -0.0103 -0.9999 0.0043
vn 0.0305 -0.9992 -0.0272
vn -0.0054 -0.9987 0.0508
vn 0.0471 -0.9988 0.0119
vn -0.0059 -0.9923 0.1235
vn 0.0651 -0.9968 -0.0457
vn 0.0660 -0.9562 -0.2853
vn 0.0940 -0.9506 -0.2959
vn 0.0432 -0.9311 -0.3621
vn 0.1273 0.1985 -0.9718
vn -0.1209 -0.3521 -0.9281
vn -0.0914 -0.5098 -0.8554
vn 0.1944 -0.9160 -0.3510
vn 0.8290 0.2771 -0.4858
vn 0.3760 -0.9265 0.0137
vn 0.9282 -0.3358 -0.1603
vn 0.0652 -0.9828 0.1728
vn -0.1631 -0.9306 0.3278
vn -0.1728 -0.9273 0.3320
vn 0.0683 -0.9564 0.2838
vn 0.2849 -0.9149 0.2859
vn -0.1340 -0.9856 0.1036
vn 0.1404 -0.9830 0.1180
vn 0.2751 -0.9521 0.1338
vn -0.0089 -0.9939 0.1100
vn 0.1767 -0.9840 -0.0241
vn 0.0242 -0.9891 -0.1453
vn -0.7516 -0.5233 0.4016
vn -0.7660 -0.6429 -0.0014
vn -0.6670 -0.6869 -0.2886
vn -0.9736 0.1366 0.1830
vn -0.9085 0.3544 -0.2214
vn -0.7664 0.5424 -0.3441
vn -0.6723 0.6978 -0.2470
vn -0.7558 -0.6209 -0.2080
vn -0.0455 -0.9954 0.0839
vn -0.5810 0.7651 -0.2777
vn -0.8485 -0.4112 -0.3330
vn -0.1210 -0.9876 0.1001
vn -0.4605 -0.2553 -0.8502
vn -0.2595 0.7683 -0.5851
vn -0.0579 -0.9712 -0.2312
vn -0.5017 0.8462 -0.1795
vn -0.5031 0.8133 -0.2924
vn -0.0298 0.8382 -0.5445
vn 0.0911 -0.3941 -0.9146
vn -0.0060 0.6962 -0.7178
vn 0.1010 0.8113 -0.5758
vn 0.1267 0.8785 -0.4606
vn 0.1947 0.8081 -0.5559
vn 0.5197 0.7590 -0.3922
vn 0.2059 0.3998 -0.8932
vn -0.6463 0.3470 -0.6797
vn 0.1948 0.8405 -0.5056
vn 0.2749 -0.0583 -0.9597
vn 0.1180 -0.9699 -0.2131
vn 0.1126 -0.9656 -0.2346
vn -0.1526 -0.1404 -0.9783
vn -0.0646 -0.9686 -0.2402
vn 0.0999 0.8529 -0.5124
vn 0.0572 0.8854 -0.4613
vn -0.0979 0.8753 -0.4735
vn -0.4753 -0.1088 -0.8731
vn 0.0596 0.9218 -0.3830
vn -0.0070 0.7985 -0.6020
vn 0.1230 0.7691 -0.6272
vn -0.5385 0.6145 -0.5766
vn 0.0791 0.4612 -0.8837
vn 0.0344 0.1096 -0.9934
vn -0.7728 0.0816 -0.6294
vn -0.9976 0.0247 0.0645
vn -0.9236 0.3762 0.0736
vn -0.1412 0.8071 0.5733
vn 0.8579 0.2914 -0.4232
vn 0.4677 0.7417 -0.4808
vn 0.8673 -0.0009 -0.4977
vn -0.0307 -0.0474 -0.9984
vn 0.8088 -0.0420 -0.5866
vn -0.8138 -0.0590 -0.5782
vn -0.8420 -0.0520 -0.5369
vn -0.1048 -0.0634 -0.9925
vn 0.7382 -0.0531 -0.6725
vn 0.9986 -0.0354 -0.0390
vn 0.9984 -0.0450 0.0329
vn 0.9842 -0.1087 0.1398
vn 0.9797 -0.0256 0.1986
vn 0.9855 -0.0370 0.1656
vn 0.9952 -0.0893 0.0392
vn 0.9343 -0.0906 0.3449
vn -0.0030 -0.8972 -0.4417
vn 0.6078 -0.3116 0.7304
vn 0.7561 -0.2989 0.5822
vn 0.6337 -0.1065 0.7662
vn -0.3376 -0.2628 0.9039
vn -0.2758 -0.3180 0.9071
vn -0.3629 -0.1119 0.9251
vn -0.7026 -0.1364 0.6984
vn -0.7809 -0.0670 0.6211
vn -0.6010 -0.1900 0.7763
vn -0.8038 -0.0420 0.5934
vn -0.3126 -0.0476 0.9487
vn 0.6796 -0.0378 0.7326
vn -0.9817 -0.0324 0.1875
vn -0.9816 -0.0443 0.1855
vn -0.9872 -0.0517 0.1507
vn -0.8639 -0.0380 -0.5023
vn -0.1729 -0.0461 -0.9839
vn -0.9832 -0.0513 0.1749
vn -0.8872 -0.0385 -0.4598
vn -0.2426 -0.0405 -0.9693
vn -0.9014 -0.0246 -0.4323
vn -0.9877 -0.0287 0.1539
vn -0.3016 -0.0706 -0.9508
vn 0.6288 -0.0059 -0.7776
vn 0.6771 -0.0398 -0.7348
vn 0.5993 -0.0400 -0.7995
vn -0.9103 0.1621 -0.3809
vn -0.3775 0.1089 -0.9196
vn 0.5268 0.0979 -0.8444
vn -0.4033 0.7327 -0.5481
vn 0.2331 0.6884 -0.6868
vn -0.6812 0.6844 -0.2600
vn -0.9757 0.1529 0.1570
vn -0.6093 0.7850 0.1118
vn -0.8467 0.1026 0.5220
vn -0.5829 0.7149 0.3862
vn -0.8296 -0.0644 0.5546
vn -0.8171 -0.0750 0.5716
vn -0.2960 -0.0669 0.9528
vn -0.2779 -0.0803 0.9572
vn -0.3064 -0.0246 0.9516
vn 0.6680 -0.0443 0.7429
vn 0.6571 -0.0522 0.7520
vn 0.6661 -0.0588 0.7436
vn 0.9721 -0.0262 0.2330
vn 0.9791 0.0042 0.2032
vn 0.9722 -0.0449 0.2296
vn 0.9936 -0.0419 -0.1046
vn 0.9835 0.0048 -0.1810
vn 0.9741 0.0235 -0.2248
vn 0.9691 0.1591 0.1886
vn 0.9577 0.1658 -0.2351
vn 0.6256 0.0944 0.7744
vn 0.4072 0.8828 0.2343
vn 0.2813 0.5530 0.7843
vn 0.3823 0.9134 -0.1395
vn -0.2961 0.9436 0.1484
vn -0.3003 0.8719 0.3869
vn -0.2835 0.9584 0.0335
vn -0.3089 0.3171 0.8967
vn -0.5615 -0.0775 0.8238
vn 0.6878 -0.0576 0.7236
vn -0.3695 -0.7293 0.5758
vn 0.6779 -0.6687 0.3054
vn 0.7593 0.6507 -0.0045
vn -0.4028 0.8387 0.3666
vn 0.1092 0.9472 -0.3015
vn -0.4714 0.2843 0.8348
vn 0.5911 0.2374 0.7709
vn 0.8530 -0.4499 0.2646
vn 0.9865 0.1064 -0.1247
vn 0.7008 0.3651 0.6129
vn -0.3134 0.3812 0.8698
vn 0.9645 0.2374 -0.1157
vn -0.9564 0.2865 0.0559
vn -0.9825 0.1861 0.0115
vn -0.8687 0.4641 -0.1728
vn -0.6003 0.1267 -0.7897
vn -0.5172 0.2680 -0.8128
vn -0.1457 0.7600 0.6333
vn -0.0808 0.9838 -0.1601
vn -0.2557 0.5944 -0.7624
vn 0.5067 0.2905 -0.8117
vn 0.3931 0.0839 -0.9157
vn 0.7571 0.6370 -0.1451
vn -0.3469 0.9156 -0.2031
vn -0.3410 0.8761 -0.3410
vn -0.8902 0.2266 -0.3951
vn 0.1571 0.4417 -0.8833
vn -0.0073 -0.0704 -0.9975
vn -0.9207 -0.1297 -0.3681
vn -0.7431 -0.1182 0.6587
vn -0.6335 -0.0408 0.7726
vn -0.4306 0.3612 0.8271
vn 0.4647 0.2043 0.8616
vn 0.2935 -0.0458 0.9549
vn 0.4125 0.8640 0.2886
vn 0.9550 0.2517 0.1570
vn 0.9510 -0.0084 0.3089
vn 0.8463 0.2724 -0.4578
vn 0.8622 -0.0248 -0.5060
vn 0.9215 -0.0294 0.3873
vn 0.1644 -0.0278 0.9860
vn 0.8810 -0.0458 -0.4708
vn 0.0331 -0.0455 -0.9984
vn -0.9006 -0.0408 -0.4328
vn 0.0955 0.1363 -0.9861
vn -0.8500 0.1963 -0.4888
vn 0.9019 0.0260 -0.4312
vn -0.6336 0.5145 -0.5777
vn 0.1889 0.3408 -0.9210
vn 0.9012 0.1559 -0.4043
vn 0.7907 0.5398 -0.2887
vn 0.3119 0.5085 -0.8026
vn -0.2597 0.8134 -0.5205
vn 0.8610 0.1784 0.4763
vn 0.8887 0.0394 0.4568
vn 0.8047 0.4008 0.4378
vn 0.2072 0.9774 -0.0411
vn 0.0668 0.8239 0.5628
vn 0.0187 0.4147 0.9098
vn -0.6009 0.7925 0.1044
vn -0.7427 0.5792 0.3360
vn -0.8422 0.1802 0.5081
vn 0.0543 0.1358 0.9892
vn -0.8028 -0.0406 0.5948
vn 0.0153 0.9798 -0.1994
vn -0.3625 0.8003 -0.4776
vn -0.3972 0.9177 -0.0068
vn -0.6289 -0.4012 0.6660
vn -0.1437 0.8920 0.4285
vn -0.9183 0.3950 0.0257
vn -0.5823 0.1106 -0.8054
vn -0.5588 0.4675 0.6850
vn -0.7809 -0.0236 -0.6241
vn -0.9947 -0.0076 0.1024
vn -0.6039 0.0422 0.7959
vn 0.2465 0.0143 0.9690
vn 0.3187 0.2200 0.9220
vn -0.5700 0.7362 0.3648
vn 0.2152 0.9732 0.0813
vn -0.6175 0.1904 0.7631
vn -0.9784 0.1365 0.1552
vn 0.1608 0.1778 0.9708
vn 0.8828 0.0962 0.4598
vn 0.8964 -0.0077 0.4431
vn 0.8901 0.0906 0.4467
vn 0.9921 0.1009 -0.0739
vn 0.9954 0.0099 -0.0954
vn 0.9923 0.0648 -0.1060
vn 0.7844 0.4144 0.4616
vn 0.0678 0.6025 0.7953
vn 0.7825 0.6212 0.0428
vn 0.7956 0.1533 -0.5862
vn 0.7062 0.5472 -0.4493
vn 0.8310 0.0441 -0.5545
vn 0.0364 0.2101 -0.9770
vn 0.0736 0.0409 -0.9964
vn -0.0320 0.7787 -0.6266
vn -0.0593 0.9658 0.2526
vn -0.7255 0.4977 -0.4753
vn -0.7663 0.5965 0.2384
vn -0.7925 0.1339 -0.5950
vn -0.5689 0.4240 0.7047
vn 0.2050 -0.0245 -0.9785
vn 0.8582 0.0831 -0.5066
vn 0.3147 -0.3766 -0.8713
vn 0.8694 -0.0724 -0.4888
vn 0.9998 0.0159 -0.0111
vn 0.9331 0.0892 0.3484
vn 0.7668 -0.6414 0.0243
vn 0.7106 -0.6096 -0.3513
vn 0.7914 -0.5835 0.1821
vn 0.7830 -0.5612 0.2682
vn 0.0131 0.9247 -0.3804
vn 0.8738 0.4693 -0.1276
vn -0.3404 0.7616 0.5515
vn -0.4911 0.5209 0.6982
vn -0.5586 -0.0945 0.8240
vn 0.0005 -0.2628 0.9648
vn 0.4949 0.2562 0.8303
vn -0.0163 -0.6587 0.7522
vn -0.0582 -0.9370 0.3446
vn 0.4276 -0.5732 0.6990
vn 0.0620 -0.9384 0.3399
vn 0.1780 -0.9806 0.0820
vn 0.2019 -0.9794 0.0032
vn 0.1724 -0.9848 -0.0207
vn 0.2389 -0.8888 -0.3911
vn -0.2683 -0.9024 0.3372
vn -0.2146 -0.8716 0.4407
vn -0.0743 -0.9966 0.0350
vn -0.1195 -0.9868 0.1095
vn -0.0592 -0.9557 0.2883
vn 0.1734 -0.9830 0.0599
vn 0.0210 -0.9094 0.4153
vn -0.2231 -0.5531 0.8027
vn 0.6922 -0.1112 0.7131
vn 0.8286 -0.4438 0.3413
vn 0.8583 -0.5055 0.0881
vn 0.9458 0.2179 0.2409
vn -0.0475 -0.9961 0.0746
vn 0.1636 -0.9800 0.1136
vn 0.9115 -0.3984 0.1020
vn 0.1573 -0.9857 0.0612
vn 0.9485 -0.3079 -0.0741
vn -0.0680 -0.9923 0.1038
vn -0.0377 -0.9967 0.0715
vn -0.0795 -0.9948 0.0642
vn 0.0211 -0.9941 0.1061
vn 0.0112 -0.9999 0.0130
vn -0.0053 -0.9802 0.1981
vn 0.0810 -0.9967 0.0064
vn -0.0084 -0.9574 0.2888
vn -0.1719 -0.9354 0.3091
vn 0.0060 -0.9972 0.0745
vn -0.2299 -0.9571 -0.1765
vn -0.4837 -0.0754 -0.8720
vn -0.2106 -0.9661 -0.1494
vn 0.1083 -0.8359 -0.5380
vn -0.2110 -0.1771 -0.9613
vn 0.2430 0.7196 -0.6505
vn 0.7301 -0.0763 -0.6791
vn 0.5300 0.8361 -0.1416
vn -0.0744 0.9124 -0.4025
vn 0.1464 0.9584 -0.2450
vn 0.8095 0.5606 -0.1744
vn 0.9714 0.2299 -0.0597
vn -0.2742 -0.9616 0.0115
vn -0.5161 -0.5727 -0.6369
vn -0.1852 -0.9743 0.1286
vn 0.0564 -0.9459 0.3195
vn -0.0277 -0.8447 0.5345
vn -0.1035 -0.8463 0.5226
vn 0.3269 -0.2069 0.9221
vn -0.4421 -0.0546 0.8953
vn 0.6008 -0.0624 0.7970
vn -0.9951 -0.0120 0.0979
vn 0.7345 -0.0175 0.6784
vn -0.2311 -0.0309 0.9724
vn -0.9577 -0.0326 0.2861
vn -0.9067 0.1515 0.3937
vn -0.0524 0.1275 0.9905
vn 0.8043 0.0867 0.5878
vn 0.9931 -0.0127 -0.1168
vn 0.9697 -0.0128 -0.2438
vn 0.9252 0.0919 -0.3682
vn 0.7612 0.4848 0.4307
vn 0.0811 0.7264 0.6824
vn 0.8215 0.4704 -0.3223
vn 0.1011 0.1410 -0.9848
vn 0.1083 0.8589 -0.5005
vn 0.2384 -0.0291 -0.9707
vn -0.7895 0.1610 -0.5923
vn -0.7508 -0.0357 -0.6595
vn -0.6264 0.6786 -0.3836
vn -0.7232 0.5651 0.3970
vn 0.3971 -0.0061 -0.9178
vn -0.6252 -0.0159 -0.7803
vn 0.3800 0.1081 0.9187
vn 0.4648 0.8403 -0.2790
vn 0.3285 0.8842 -0.3321
vn 0.2472 0.2753 0.9290
vn 0.0981 0.9930 -0.0651
vn 0.1012 0.9945 0.0271
vn 0.3993 0.8889 0.2247
vn 0.1761 0.9841 0.0217
vn 0.4544 0.3416 0.8227
vn -0.0160 -0.8923 0.4511
vn -0.0423 -0.8973 0.4394
vn 0.5266 -0.6480 0.5503
vn -0.1285 -0.9899 0.0599
vn 0.4779 -0.8726 0.1014
vn 0.8555 0.3909 0.3396
vn 0.9321 0.3542 0.0757
vn 0.5816 -0.7938 -0.1778
vn -0.1053 -0.9912 -0.0801
vt 0.406159 0.938698
vt 0.405416 0.939261
vt 0.405743 0.936551
vt 0.407433 0.935231
vt 0.406031 0.940477
vt 0.405613 0.940977
vt 0.407404 0.939129
vt 0.406147 0.942517
vt 0.408783 0.936715
vt 0.408760 0.931350
vt 0.411397 0.930218
vt 0.406903 0.932059
vt 0.405482 0.926316
vt 0.409712 0.923764
vt 0.414123 0.928681
vt 0.404119 0.936829
vt 0.404585 0.933729
vt 0.403273 0.927681
vt 0.605307 0.976374
vt 0.607509 0.978849
vt 0.603618 0.984462
vt 0.599658 0.985121
vt 0.603291 0.988077
vt 0.599073 0.988576
vt 0.403133 0.920685
vt 0.407220 0.916999
vt 0.402291 0.934480
vt 0.400916 0.932244
vt 0.607000 0.957039
vt 0.608563 0.951708
vt 0.614545 0.960508
vt 0.609423 0.963049
vt 0.610198 0.970361
vt 0.618447 0.963622
vt 0.621185 0.964584
vt 0.618456 0.967946
vt 0.622978 0.962414
vt 0.627008 0.962078
vt 0.606244 0.965506
vt 0.608786 0.970221
vt 0.610106 0.978370
vt 0.612141 0.974012
vt 0.614923 0.973302
vt 0.616451 0.975796
vt 0.615386 0.971490
vt 0.617545 0.972225
vt 0.616170 0.970108
vt 0.603474 0.969031
vt 0.603484 0.967508
vt 0.602813 0.971351
vt 0.600131 0.968532
vt 0.602971 0.965353
vt 0.602595 0.973159
vt 0.225510 0.889433
vt 0.227740 0.882180
vt 0.228741 0.880523
vt 0.228324 0.886116
vt 0.223054 0.890060
vt 0.226211 0.884703
vt 0.228923 0.878834
vt 0.230918 0.877603
vt 0.228211 0.879434
vt 0.221400 0.891684
vt 0.225364 0.884963
vt 0.227347 0.880080
vt 0.224262 0.885190
vt 0.226222 0.881389
vt 0.220808 0.890900
vt 0.219293 0.899888
vt 0.218128 0.898679
vt 0.217627 0.897713
vt 0.218171 0.894899
vt 0.220689 0.889495
vt 0.223622 0.885225
vt 0.223562 0.883017
vt 0.220569 0.887789
vt 0.216092 0.890692
vt 0.598025 0.963507
vt 0.597180 0.961269
vt 0.601571 0.963177
vt 0.604615 0.961738
vt 0.602583 0.952335
vt 0.600415 0.957661
vt 0.603281 0.947430
vt 0.212928 0.896677
vt 0.215236 0.897178
vt 0.214010 0.900884
vt 0.211360 0.898872
vt 0.208383 0.904392
vt 0.208237 0.900523
vt 0.212571 0.906942
vt 0.207880 0.908419
vt 0.216338 0.908264
vt 0.216103 0.916450
vt 0.212585 0.915959
vt 0.208625 0.915270
vt 0.201409 0.914854
vt 0.200858 0.909315
vt 0.200685 0.905204
vt 0.192004 0.914537
vt 0.191632 0.909521
vt 0.191493 0.904947
vt 0.180657 0.914890
vt 0.181157 0.909504
vt 0.180101 0.904927
vt 0.171402 0.915703
vt 0.171940 0.910642
vt 0.168989 0.907359
vt 0.190981 0.976969
vt 0.185649 0.970699
vt 0.188843 0.970104
vt 0.194497 0.973570
vt 0.202100 0.976326
vt 0.200799 0.979879
vt 0.196808 0.969412
vt 0.203790 0.972224
vt 0.189701 0.966105
vt 0.200185 0.901799
vt 0.191677 0.902276
vt 0.209393 0.975404
vt 0.208142 0.979321
vt 0.198190 0.964997
vt 0.205322 0.967913
vt 0.211204 0.971328
vt 0.206892 0.963215
vt 0.212776 0.967216
vt 0.198965 0.960309
vt 0.191780 0.962973
vt 0.190651 0.958815
vt 0.185586 0.963330
vt 0.165364 0.916246
vt 0.172617 0.920322
vt 0.166790 0.920564
vt 0.180097 0.919883
vt 0.192084 0.956555
vt 0.195936 0.954757
vt 0.192289 0.919187
vt 0.189083 0.922945
vt 0.180071 0.924358
vt 0.201474 0.921226
vt 0.213848 0.963076
vt 0.209260 0.960045
vt 0.210825 0.923595
vt 0.220051 0.967333
vt 0.218275 0.970942
vt 0.216452 0.973862
vt 0.222498 0.971781
vt 0.220860 0.973685
vt 0.219855 0.975787
vt 0.215144 0.977325
vt 0.217941 0.977731
vt 0.221276 0.978263
vt 0.219530 0.979343
vt 0.224311 0.976154
vt 0.217047 0.980354
vt 0.219006 0.981932
vt 0.214410 0.981143
vt 0.221777 0.982525
vt 0.220023 0.986219
vt 0.216579 0.984669
vt 0.222290 0.989131
vt 0.225513 0.981580
vt 0.219335 0.917550
vt 0.217710 0.908299
vt 0.222939 0.924520
vt 0.218175 0.922876
vt 0.215466 0.922961
vt 0.219752 0.928529
vt 0.221269 0.928462
vt 0.224048 0.929210
vt 0.223975 0.933762
vt 0.226756 0.934324
vt 0.223453 0.966280
vt 0.224469 0.964332
vt 0.227410 0.965139
vt 0.226525 0.966055
vt 0.222118 0.964523
vt 0.124369 0.979739
vt 0.126710 0.979928
vt 0.127638 0.981303
vt 0.121925 0.981259
vt 0.225580 0.969451
vt 0.126806 0.978271
vt 0.129099 0.978872
vt 0.125635 0.978839
vt 0.126006 0.977661
vt 0.126944 0.975803
vt 0.125027 0.978172
vt 0.123362 0.977028
vt 0.120868 0.975210
vt 0.124669 0.973395
vt 0.131431 0.980230
vt 0.129232 0.976173
vt 0.127377 0.972527
vt 0.117573 0.968645
vt 0.120637 0.969185
vt 0.578472 0.945907
vt 0.577635 0.949207
vt 0.576038 0.949533
vt 0.577004 0.944914
vt 0.118479 0.939204
vt 0.116154 0.940219
vt 0.117370 0.936078
vt 0.120594 0.935982
vt 0.116689 0.944800
vt 0.114154 0.944706
vt 0.111973 0.944141
vt 0.113822 0.940387
vt 0.114725 0.936497
vt 0.113585 0.949303
vt 0.111449 0.948015
vt 0.116133 0.949142
vt 0.109210 0.943420
vt 0.111156 0.940659
vt 0.109180 0.947721
vt 0.110868 0.952960
vt 0.108370 0.951712
vt 0.113741 0.953188
vt 0.113615 0.956777
vt 0.110048 0.956407
vt 0.107041 0.955173
vt 0.117376 0.952395
vt 0.117762 0.955831
vt 0.571709 0.959690
vt 0.570161 0.960943
vt 0.569989 0.957959
vt 0.571096 0.956330
vt 0.119612 0.948051
vt 0.121100 0.948831
vt 0.121952 0.944983
vt 0.577430 0.964059
vt 0.574641 0.964454
vt 0.573409 0.958218
vt 0.575301 0.956722
vt 0.571678 0.964461
vt 0.576889 0.972378
vt 0.573274 0.971711
vt 0.568941 0.970343
vt 0.565004 0.977850
vt 0.570868 0.979160
vt 0.575678 0.979207
vt 0.580555 0.964555
vt 0.580357 0.972705
vt 0.579494 0.980014
vt 0.584600 0.964707
vt 0.583259 0.973013
vt 0.581967 0.980214
vt 0.580782 0.985275
vt 0.579226 0.984837
vt 0.575144 0.984714
vt 0.581748 0.990551
vt 0.579078 0.990465
vt 0.576734 0.990165
vt 0.434977 0.037210
vt 0.433799 0.034254
vt 0.437875 0.033543
vt 0.438441 0.037567
vt 0.431972 0.037629
vt 0.431362 0.035473
vt 0.583705 0.986811
vt 0.584426 0.990600
vt 0.441602 0.032355
vt 0.442621 0.037991
vt 0.432967 0.040065
vt 0.435450 0.039824
vt 0.985877 0.524971
vt 0.987143 0.527356
vt 0.982548 0.528788
vt 0.982466 0.524925
vt 0.979863 0.525519
vt 0.977620 0.529191
vt 0.974532 0.537372
vt 0.980224 0.534364
vt 0.445141 0.033315
vt 0.447159 0.037893
vt 0.980450 0.523340
vt 0.982150 0.521872
vt 0.987301 0.522843
vt 0.987828 0.519304
vt 0.983640 0.518085
vt 0.978930 0.519717
vt 0.980506 0.516159
vt 0.978486 0.523131
vt 0.975758 0.524878
vt 0.975461 0.520017
vt 0.977036 0.517749
vt 0.972178 0.522384
vt 0.972555 0.528144
vt 0.968398 0.524988
vt 0.968236 0.536679
vt 0.964374 0.529447
vt 0.959008 0.532440
vt 0.963236 0.537446
vt 0.046290 0.388934
vt 0.047298 0.395862
vt 0.041612 0.398139
vt 0.040937 0.391363
vt 0.036103 0.392381
vt 0.037815 0.399923
vt 0.958065 0.524324
vt 0.963880 0.520397
vt 0.951748 0.530136
vt 0.951774 0.537666
vt 0.944918 0.534564
vt 0.957339 0.541654
vt 0.588440 0.815637
vt 0.588911 0.810160
vt 0.599847 0.812467
vt 0.598328 0.817161
vt 0.590118 0.803792
vt 0.602228 0.807493
vt 0.592153 0.796463
vt 0.604222 0.799512
vt 0.611486 0.802105
vt 0.607139 0.809901
vt 0.593600 0.788880
vt 0.605260 0.793243
vt 0.613616 0.796957
vt 0.619043 0.802751
vt 0.612078 0.812320
vt 0.623060 0.800477
vt 0.046158 0.372424
vt 0.041376 0.373286
vt 0.038114 0.371578
vt 0.044083 0.370311
vt 0.614393 0.793465
vt 0.606123 0.787921
vt 0.048460 0.375661
vt 0.042282 0.376655
vt 0.615705 0.789558
vt 0.607221 0.783542
vt 0.051178 0.380730
vt 0.060276 0.374480
vt 0.061424 0.380313
vt 0.044995 0.382857
vt 0.075054 0.378416
vt 0.073355 0.371618
vt 0.594677 0.777825
vt 0.594084 0.782797
vt 0.077391 0.386472
vt 0.062957 0.387942
vt 0.052921 0.387696
vt 0.054075 0.395149
vt 0.064845 0.395517
vt 0.079549 0.394484
vt 0.573889 0.811395
vt 0.574554 0.805836
vt 0.088213 0.385695
vt 0.091801 0.393994
vt 0.565043 0.803128
vt 0.564196 0.808077
vt 0.097162 0.393495
vt 0.095154 0.385683
vt 0.097976 0.400361
vt 0.093346 0.399253
vt 0.567357 0.796515
vt 0.576548 0.799290
vt 0.559286 0.800914
vt 0.562054 0.794909
vt 0.102170 0.392484
vt 0.104093 0.397443
vt 0.556935 0.793973
vt 0.554431 0.798194
vt 0.549477 0.794511
vt 0.552651 0.792182
vt 0.106031 0.391006
vt 0.109187 0.395072
vt 0.100813 0.385871
vt 0.106651 0.385445
vt 0.100127 0.378551
vt 0.105845 0.378150
vt 0.093684 0.377877
vt 0.086487 0.378181
vt 0.085280 0.371799
vt 0.093386 0.373177
vt 0.099315 0.372421
vt 0.087805 0.368387
vt 0.094594 0.367769
vt 0.101336 0.367114
vt 0.572932 0.780812
vt 0.567157 0.778917
vt 0.569726 0.771593
vt 0.575339 0.773904
vt 0.582666 0.777319
vt 0.581235 0.783540
vt 0.584195 0.773514
vt 0.578777 0.792134
vt 0.569940 0.789037
vt 0.564123 0.787089
vt 0.562117 0.776871
vt 0.558523 0.785325
vt 0.565796 0.769762
vt 0.557652 0.775078
vt 0.563173 0.768581
vt 0.553541 0.783653
vt 0.114387 0.372802
vt 0.111877 0.376673
vt 0.108379 0.371953
vt 0.107072 0.369104
vt 0.548217 0.782494
vt 0.552895 0.774570
vt 0.113569 0.387383
vt 0.103587 0.372444
vt 0.103694 0.368837
vt 0.038983 0.385602
vt 0.038766 0.376921
vt 0.558467 0.972290
vt 0.561648 0.974501
vt 0.550149 0.975467
vt 0.550205 0.974538
vt 0.566395 0.970071
vt 0.559496 0.968295
vt 0.594987 0.975619
vt 0.596785 0.984821
vt 0.590099 0.983180
vt 0.590824 0.974858
vt 0.453685 0.026168
vt 0.447736 0.023277
vt 0.451215 0.016289
vt 0.456847 0.023189
vt 0.569323 0.964141
vt 0.567027 0.963221
vt 0.977701 0.540912
vt 0.975887 0.542293
vt 0.979904 0.540114
vt 0.461842 0.027886
vt 0.458597 0.029512
vt 0.981116 0.543909
vt 0.979313 0.546557
vt 0.456588 0.031678
vt 0.451630 0.030091
vt 0.444502 0.028395
vt 0.451177 0.034396
vt 0.456720 0.034705
vt 0.460550 0.032327
vt 0.460583 0.033726
vt 0.459550 0.035037
vt 0.458973 0.037726
vt 0.453050 0.038561
vt 0.462423 0.034871
vt 0.982852 0.548721
vt 0.983558 0.543477
vt 0.982357 0.538884
vt 0.443077 0.027837
vt 0.585434 0.981261
vt 0.586629 0.987259
vt 0.586528 0.974174
vt 0.588353 0.965977
vt 0.591798 0.969201
vt 0.025940 0.238914
vt 0.026317 0.246026
vt 0.023798 0.245721
vt 0.021066 0.243205
vt 0.029706 0.771785
vt 0.036993 0.771258
vt 0.037202 0.778196
vt 0.028067 0.776781
vt 0.025482 0.780564
vt 0.037193 0.781446
vt 0.023117 0.776788
vt 0.023941 0.771602
vt 0.021809 0.780995
vt 0.018698 0.782121
vt 0.019282 0.777737
vt 0.018904 0.771784
vt 0.034835 0.243744
vt 0.031438 0.246051
vt 0.030735 0.238224
vt 0.034952 0.237947
vt 0.567070 0.959660
vt 0.567541 0.956423
vt 0.018627 0.764898
vt 0.024056 0.765225
vt 0.035023 0.231038
vt 0.029135 0.231088
vt 0.022996 0.231841
vt 0.041336 0.770774
vt 0.037509 0.764460
vt 0.042220 0.765579
vt 0.022407 0.223254
vt 0.017420 0.230032
vt 0.016747 0.222298
vt 0.028883 0.223962
vt 0.034304 0.755358
vt 0.032208 0.748486
vt 0.035617 0.746749
vt 0.037670 0.750556
vt 0.025634 0.217536
vt 0.030145 0.218288
vt 0.030828 0.213906
vt 0.027316 0.214168
vt 0.028754 0.744860
vt 0.032076 0.744505
vt 0.035426 0.217853
vt 0.034976 0.223677
vt 0.034000 0.214114
vt 0.027770 0.212150
vt 0.031100 0.211556
vt 0.024174 0.745716
vt 0.023872 0.747115
vt 0.019955 0.748010
vt 0.020638 0.745922
vt 0.023282 0.751038
vt 0.018310 0.751817
vt 0.027604 0.746499
vt 0.028542 0.749852
vt 0.029074 0.757202
vt 0.023666 0.757948
vt 0.030549 0.765635
vt 0.018335 0.757897
vt 0.596699 0.970399
vt 0.114964 0.961451
vt 0.119294 0.958349
vt 0.123319 0.961595
vt 0.110907 0.961062
vt 0.111957 0.967783
vt 0.126154 0.964661
vt 0.115732 0.974255
vt 0.108314 0.968794
vt 0.105620 0.960547
vt 0.111735 0.973343
vt 0.098064 0.964211
vt 0.097265 0.968993
vt 0.040104 0.514908
vt 0.038435 0.520510
vt 0.035754 0.519849
vt 0.033730 0.513483
vt 0.029567 0.512991
vt 0.029166 0.516186
vt 0.033143 0.521859
vt 0.029113 0.517828
vt 0.032533 0.526227
vt 0.034393 0.524715
vt 0.091318 0.975017
vt 0.090068 0.971753
vt 0.097426 0.974122
vt 0.093222 0.978020
vt 0.089572 0.977581
vt 0.026056 0.506926
vt 0.030508 0.506959
vt 0.025025 0.511359
vt 0.024012 0.515135
vt 0.019603 0.514726
vt 0.020522 0.510634
vt 0.021443 0.505576
vt 0.025981 0.502945
vt 0.028921 0.500952
vt 0.023597 0.500496
vt 0.017597 0.503774
vt 0.020478 0.499265
vt 0.015803 0.509543
vt 0.014026 0.502234
vt 0.012106 0.508493
vt 0.018259 0.495675
vt 0.027167 0.497117
vt 0.080239 0.976436
vt 0.080704 0.969422
vt 0.084065 0.970590
vt 0.084098 0.975519
vt 0.087999 0.964770
vt 0.089734 0.967586
vt 0.031540 0.497134
vt 0.031297 0.499457
vt 0.086551 0.977668
vt 0.032471 0.503450
vt 0.096019 0.961194
vt 0.102166 0.957389
vt 0.011577 0.514798
vt 0.015241 0.514553
vt 0.011956 0.518639
vt 0.015219 0.518189
vt 0.104486 0.954141
vt 0.019085 0.518523
vt 0.022692 0.518041
vt 0.018171 0.521535
vt 0.015052 0.520656
vt 0.020998 0.522100
vt 0.023982 0.522277
vt 0.028346 0.519962
vt 0.027261 0.521479
vt 0.029333 0.522079
vt 0.030066 0.522190
vt 0.031506 0.522876
vt 0.029381 0.523957
vt 0.028408 0.523019
vt 0.029770 0.525261
vt 0.027564 0.528081
vt 0.025961 0.531419
vt 0.031632 0.529185
vt 0.227217 0.939047
vt 0.229385 0.939677
vt 0.027398 0.524835
vt 0.025950 0.525693
vt 0.024017 0.526111
vt 0.021168 0.525521
vt 0.021551 0.528959
vt 0.017431 0.524144
vt 0.016893 0.526732
vt 0.013189 0.522252
vt 0.013260 0.525329
vt 0.106033 0.950655
vt 0.120188 0.980483
vt 0.577622 0.955530
vt 0.579983 0.954693
vt 0.559703 0.977009
vt 0.554161 0.978900
vt 0.968330 0.504991
vt 0.963708 0.501274
vt 0.967700 0.500541
vt 0.971123 0.502635
vt 0.559304 0.981558
vt 0.564166 0.982578
vt 0.963310 0.506496
vt 0.959243 0.505602
vt 0.626470 0.803151
vt 0.631496 0.801253
vt 0.631667 0.803236
vt 0.628005 0.804705
vt 0.631900 0.805134
vt 0.958951 0.512016
vt 0.955363 0.509096
vt 0.622864 0.805493
vt 0.624901 0.806795
vt 0.629032 0.806389
vt 0.628376 0.806698
vt 0.633128 0.806846
vt 0.972066 0.507570
vt 0.965406 0.509178
vt 0.964010 0.511877
vt 0.970706 0.510589
vt 0.968764 0.512914
vt 0.975075 0.510831
vt 0.978520 0.504538
vt 0.978352 0.509830
vt 0.562818 0.986208
vt 0.558240 0.985991
vt 0.982855 0.508972
vt 0.981368 0.512606
vt 0.985430 0.510861
vt 0.984991 0.514697
vt 0.569019 0.982253
vt 0.567685 0.985609
vt 0.571637 0.986826
vt 0.989536 0.511684
vt 0.989101 0.515450
vt 0.427822 0.039300
vt 0.424461 0.038529
vt 0.424633 0.035516
vt 0.430853 0.040806
vt 0.978245 0.514804
vt 0.975767 0.515690
vt 0.976323 0.513271
vt 0.973562 0.513459
vt 0.974208 0.515367
vt 0.972006 0.516530
vt 0.971164 0.514800
vt 0.967471 0.516505
vt 0.972927 0.518541
vt 0.969088 0.519619
vt 0.962936 0.515724
vt 0.957402 0.517127
vt 0.619351 0.808324
vt 0.618885 0.815477
vt 0.953198 0.513472
vt 0.621742 0.806690
vt 0.132474 0.975640
vt 0.135139 0.980665
vt 0.225447 0.973485
vt 0.225715 0.879966
vt 0.225674 0.881483
vt 0.224092 0.879257
vt 0.227763 0.877607
vt 0.595736 0.965433
vt 0.595378 0.962057
vt 0.599486 0.966816
vt 0.596066 0.966888
vt 0.625312 0.966831
vt 0.620577 0.971135
vt 0.629589 0.969019
vt 0.626992 0.976071
vt 0.633993 0.972309
vt 0.407006 0.909035
vt 0.403971 0.912883
vt 0.398378 0.908226
vt 0.400946 0.904291
vt 0.637186 0.974794
vt 0.631904 0.977865
vt 0.627203 0.979039
vt 0.630140 0.981024
vt 0.597211 0.016739
vt 0.597077 0.023779
vt 0.592536 0.025581
vt 0.590280 0.019094
vt 0.586807 0.026587
vt 0.585139 0.019466
vt 0.584286 0.032485
vt 0.579218 0.031491
vt 0.580876 0.026071
vt 0.579591 0.018332
vt 0.584174 0.014268
vt 0.587456 0.013306
vt 0.580974 0.012616
vt 0.431187 0.906435
vt 0.439609 0.901676
vt 0.439840 0.906214
vt 0.433125 0.910752
vt 0.426225 0.917867
vt 0.422288 0.913731
vt 0.426642 0.902999
vt 0.418374 0.908545
vt 0.435503 0.898668
vt 0.584764 0.009765
vt 0.590074 0.008845
vt 0.591176 0.013375
vt 0.596201 0.011944
vt 0.421338 0.897756
vt 0.413369 0.904420
vt 0.419256 0.923366
vt 0.415856 0.919019
vt 0.412294 0.913930
vt 0.640533 0.969804
vt 0.638572 0.967326
vt 0.635053 0.964694
vt 0.638538 0.965733
vt 0.642119 0.965084
vt 0.642991 0.966480
vt 0.637889 0.962912
vt 0.641082 0.964079
vt 0.409594 0.940105
vt 0.409153 0.938518
vt 0.411593 0.935501
vt 0.412620 0.937124
vt 0.408011 0.942826
vt 0.407702 0.941071
vt 0.408358 0.943918
vt 0.409668 0.944120
vt 0.632368 0.964294
vt 0.637523 0.961410
vt 0.641885 0.960975
vt 0.641171 0.962914
vt 0.400790 0.948590
vt 0.399184 0.942258
vt 0.400602 0.939086
vt 0.402240 0.943741
vt 0.404299 0.945458
vt 0.406643 0.947715
vt 0.407005 0.945038
vt 0.406163 0.944457
vt 0.405179 0.942782
vt 0.403654 0.940691
s 1
usemtl abyss_chancel_background_pbr
f 1/1/1 2/2/2 7/3/3 5/4/4
f 1/1/1 3/5/5 519/6/6 2/2/2
f 4/7/7 517/8/8 3/5/5 1/1/1
f 4/7/7 1/1/1 5/4/4 6/9/9
f 5/4/4 8/10/10 10/11/11 6/9/9
f 5/4/4 7/3/3 11/12/12 8/10/10
f 11/12/12 13/13/13 9/14/14 8/10/10
f 9/14/14 500/15/15 10/11/11 8/10/10
f 520/16/16 12/17/17 11/12/12 7/3/3
f 11/12/12 12/17/17 16/18/18 13/13/13
f 31/19/19 15/20/20 13/21/13 14/22/21
f 14/22/21 13/21/13 16/23/18 18/24/22
f 15/25/20 498/26/23 9/14/14 13/13/13
f 16/18/18 12/17/17 21/27/24 19/28/25
f 54/29/26 18/30/22 16/31/18 17/32/27
f 22/33/28 17/32/27 16/31/18 19/34/25
f 20/35/29 26/36/30 22/33/28 19/34/25
f 19/34/25 21/37/24 521/38/31 20/35/29
f 29/39/32 17/32/27 22/33/28 27/40/33
f 498/41/23 15/20/20 22/33/28 23/42/34
f 22/33/28 24/43/35 472/44/36 23/42/34
f 25/45/37 473/46/38 24/43/35 22/33/28
f 469/47/39 25/45/37 22/33/28 26/36/30
f 31/19/19 27/40/33 22/33/28 15/20/20
f 28/48/40 30/49/41 27/40/33
f 32/50/42 33/51/43 28/48/40 27/40/33
f 51/52/44 29/39/32 27/40/33 30/49/41
f 34/53/45 32/50/42 27/40/33 31/19/19
f 32/54/42 35/55/46 36/56/47 33/57/43
f 32/54/42 34/58/45 38/59/48 35/55/46
f 36/56/47 35/55/46 37/60/49 466/61/50
f 38/59/48 39/62/51 37/60/49 35/55/46
f 34/58/45 43/63/52 40/64/53 38/59/48
f 39/62/51 38/59/48 40/64/53 41/65/54
f 40/64/53 42/66/55 468/67/56 41/65/54
f 45/68/57 42/66/55 40/64/53 43/63/52
f 43/63/52 34/58/45 31/69/19 44/70/58
f 44/70/58 46/71/59 45/68/57 43/63/52
f 49/72/60 47/73/61 45/68/57 46/71/59
f 48/74/62 42/66/55 45/68/57 47/73/61
f 52/75/63 48/74/62 47/73/61 50/76/64
f 53/77/65 50/76/64 47/73/61 49/72/60
f 463/78/66 52/79/63 50/80/64 51/52/44
f 29/39/32 51/52/44 50/80/64 53/81/65
f 55/82/67 54/29/26 53/81/65 49/83/60
f 17/32/27 29/39/32 53/81/65 54/29/26
f 55/82/67 56/84/68 18/30/22 54/29/26
f 56/85/68 55/86/67 57/87/69 58/88/70
f 49/72/60 46/71/59 57/87/69 55/86/67
f 57/87/69 59/89/71 461/90/72 58/88/70
f 59/89/71 57/87/69 60/91/73 62/92/74
f 46/71/59 44/70/58 60/91/73 57/87/69
f 31/69/19 14/93/21 60/91/73 44/70/58
f 111/94/75 61/95/76 60/91/73 14/93/21
f 63/96/77 62/92/74 60/91/73 61/95/76
f 65/97/78 64/98/79 62/92/74 63/96/77
f 66/99/80 59/89/71 62/92/74 64/98/79
f 68/100/81 67/101/82 64/98/79 65/97/78
f 69/102/83 66/99/80 64/98/79 67/101/82
f 71/103/84 70/104/85 67/101/82 68/100/81
f 70/104/85 73/105/86 69/102/83 67/101/82
f 71/103/84 91/106/87 72/107/88 70/104/85
f 73/105/86 70/104/85 72/107/88 74/108/89
f 73/109/86 74/110/89 77/111/90 75/112/91
f 75/112/91 78/113/92 69/114/83 73/109/86
f 76/115/93 80/116/94 78/113/92 75/112/91
f 76/115/93 75/112/91 77/111/90 89/117/95
f 79/118/96 66/99/80 69/102/83 78/119/92
f 81/120/97 79/121/96 78/113/92 80/116/94
f 85/122/98 82/123/99 80/116/94 76/115/93
f 83/124/100 81/120/97 80/116/94 82/123/99
f 84/125/101 97/126/102 83/124/100 82/123/99
f 85/122/98 86/127/103 84/125/101 82/123/99
f 86/127/103 85/122/98 87/128/104 88/129/105
f 76/115/93 89/117/95 87/128/104 85/122/98
f 90/130/106 88/129/105 87/128/104 89/117/95
f 90/130/106 89/117/95 77/111/90 74/110/89
f 90/131/106 91/106/87 92/132/107 88/133/105
f 90/131/106 74/108/89 72/107/88 91/106/87
f 71/103/84 93/134/108 92/132/107 91/106/87
f 86/127/103 88/129/105 92/135/107 93/136/108
f 71/103/84 68/100/81 94/137/109 93/134/108
f 93/134/108 94/137/109 84/138/101 86/139/103
f 65/97/78 95/140/110 94/137/109 68/100/81
f 95/141/110 97/126/102 84/125/101 94/142/109
f 65/97/78 63/96/77 96/143/111 95/140/110
f 97/126/102 95/141/110 96/144/111 98/145/112
f 98/145/112 100/146/113 83/124/100 97/126/102
f 98/145/112 96/144/111 460/147/114 99/148/115
f 99/148/115 102/149/116 100/146/113 98/145/112
f 101/150/117 81/120/97 83/124/100 100/146/113
f 104/151/118 101/150/117 100/146/113 102/149/116
f 103/152/119 106/153/120 104/151/118 102/149/116
f 102/149/116 99/148/115 110/154/121 103/152/119
f 105/155/122 104/151/118 106/153/120 107/156/123
f 104/151/118 105/155/122 461/157/72 101/150/117
f 103/152/119 108/158/124 107/156/123 106/153/120
f 108/158/124 56/159/68 58/160/70 107/156/123
f 107/156/123 58/160/70 461/157/72 105/155/122
f 18/161/22 56/159/68 108/158/124 109/162/125
f 108/158/124 103/152/119 110/154/121 109/162/125
f 109/163/125 111/94/75 14/93/21 18/164/22
f 111/94/75 109/163/125 110/165/121 112/166/126
f 112/166/126 113/167/127 61/95/76 111/94/75
f 117/168/128 113/167/127 112/166/126 114/169/129
f 114/169/129 112/166/126 110/165/121 116/170/130
f 115/171/131 117/168/128 114/169/129
f 114/169/129 116/170/130 137/172/132 115/171/131
f 118/173/133 117/174/128 115/175/131 119/176/134
f 113/177/127 117/174/128 118/173/133 96/144/111
f 122/178/135 121/179/136 118/180/133 119/181/134
f 460/147/114 96/144/111 118/173/133 120/182/137
f 123/183/138 120/184/137 118/180/133 121/179/136
f 121/179/136 122/178/135 124/185/139 123/183/138
f 123/183/138 125/186/140 127/187/141 120/184/137
f 124/185/139 126/188/142 125/186/140 123/183/138
f 127/187/141 125/186/140 126/188/142 128/189/143
f 131/190/144 130/191/145 127/187/141 128/189/143
f 460/192/114 120/184/137 127/187/141 129/193/146
f 133/194/147 129/193/146 127/187/141 130/191/145
f 130/191/145 131/190/144 350/195/148 132/196/149
f 130/197/145 132/198/149 134/199/150 133/200/147
f 133/201/147 135/202/151 137/203/132 129/204/146
f 135/202/151 133/201/147 134/205/150 138/206/152
f 135/202/151 138/206/152 140/207/153 136/208/154
f 136/208/154 401/209/155 137/203/132 135/202/151
f 138/206/152 139/210/156 142/211/157 140/207/153
f 139/210/156 138/206/152 134/205/150 152/212/158
f 140/207/153 141/213/159 404/214/160 136/208/154
f 142/211/157 143/215/161 141/213/159 140/207/153
f 144/216/162 146/217/163 143/215/161 142/211/157
f 139/210/156 147/218/164 144/216/162 142/211/157
f 148/219/165 145/220/166 144/216/162 147/218/164
f 145/220/166 413/221/167 146/217/163 144/216/162
f 147/218/164 149/222/168 150/223/169 148/219/165
f 149/222/168 147/218/164 139/210/156 152/212/158
f 151/224/170 346/225/171 150/226/169 149/227/168
f 149/222/168 152/212/158 153/228/172 151/229/170
f 153/228/172 152/212/158 134/205/150 154/230/173
f 156/231/174 155/232/175 153/233/172 154/234/173
f 157/235/176 151/224/170 153/233/172 155/232/175
f 156/231/174 161/236/177 158/237/178 155/232/175
f 158/237/178 160/238/179 157/235/176 155/232/175
f 415/239/180 160/238/179 158/237/178 159/240/181
f 162/241/182 159/240/181 158/237/178 161/236/177
f 164/242/183 163/243/184 161/236/177 156/231/174
f 166/244/185 162/241/182 161/236/177 163/243/184
f 309/245/186 165/246/187 163/243/184 164/242/183
f 167/247/188 166/244/185 163/243/184 165/246/187
f 169/248/189 168/249/190 166/244/185 167/247/188
f 166/244/185 168/249/190 170/250/191 162/241/182
f 174/251/192 171/252/193 168/249/190 169/248/189
f 171/252/193 173/253/194 170/250/191 168/249/190
f 172/254/195 171/255/193 174/256/192 176/257/196
f 171/255/193 172/254/195 442/258/197 173/259/194
f 174/251/192 169/248/189 302/260/198 175/261/199
f 174/256/192 175/262/199 178/263/200 176/257/196
f 186/264/201 172/254/195 176/257/196 177/265/202
f 177/266/202 176/267/196 178/268/200 181/269/203
f 182/270/204 181/269/203 178/268/200 179/271/205
f 197/272/206 179/271/205 178/268/200 180/273/207
f 301/274/208 180/275/207 178/263/200 175/262/199
f 182/270/204 187/276/209 183/277/210 181/269/203
f 177/266/202 181/269/203 183/277/210 186/278/201
f 441/279/211 186/278/201 183/277/210 184/280/212
f 184/280/212 183/277/210 185/281/213 443/282/214
f 185/281/213 183/277/210 187/276/209 188/283/215
f 182/270/204 190/284/216 188/283/215 187/276/209
f 189/285/217 445/286/218 185/281/213 188/283/215
f 191/287/219 189/285/217 188/283/215 190/284/216
f 191/287/219 190/284/216 192/288/220 193/289/221
f 182/270/204 179/271/205 192/288/220 190/284/216
f 193/289/221 192/288/220 194/290/222 198/291/223
f 179/271/205 197/272/206 194/290/222 192/288/220
f 200/292/224 198/291/223 194/290/222 195/293/225
f 275/294/226 195/295/225 194/296/222 196/297/227
f 280/298/228 196/297/227 194/296/222 197/299/206
f 193/289/221 198/291/223 199/300/229 456/301/230
f 200/292/224 201/302/231 199/300/229 198/291/223
f 201/302/231 200/292/224 202/303/232 205/304/233
f 202/303/232 200/292/224 195/293/225 203/305/234
f 227/306/235 204/307/236 202/308/232 203/309/234
f 206/310/237 205/311/233 202/308/232 204/307/236
f 208/312/238 207/313/239 205/311/233 206/310/237
f 210/314/240 201/315/231 205/311/233 207/313/239
f 257/316/241 209/317/242 207/313/239 208/312/238
f 212/318/243 210/314/240 207/313/239 209/317/242
f 210/314/240 211/319/244 199/320/229 201/315/231
f 212/318/243 213/321/245 211/319/244 210/314/240
f 214/322/246 215/323/247 213/324/245 212/325/243
f 214/326/246 212/318/243 209/317/242 216/327/248
f 215/323/247 214/322/246 217/328/249 219/329/250
f 217/330/249 214/326/246 216/327/248 220/331/251
f 218/332/252 217/328/249 220/333/251 222/334/253
f 218/332/252 276/335/254 219/329/250 217/328/249
f 223/336/255 222/334/253 220/333/251 221/337/256
f 221/338/256 220/331/251 216/327/248 256/339/257
f 226/340/258 224/341/259 222/334/253 223/336/255
f 225/342/260 218/332/252 222/334/253 224/341/259
f 203/343/234 225/342/260 224/341/259 227/344/235
f 228/345/261 227/344/235 224/341/259 226/340/258
f 204/307/236 227/306/235 228/346/261 229/347/262
f 231/348/263 230/349/264 228/345/261 226/340/258
f 233/350/265 229/347/262 228/346/261 230/351/264
f 232/352/266 230/349/264 231/348/263 245/353/267
f 230/349/264 232/352/266 235/354/268 233/355/265
f 229/347/262 233/350/265 234/356/269 260/357/270
f 235/358/268 236/359/271 234/356/269 233/350/265
f 240/360/272 237/361/273 235/354/268 232/352/266
f 238/362/274 236/359/271 235/358/268 237/363/273
f 237/363/273 239/364/275 270/365/276 238/362/274
f 237/361/273 240/360/272 241/366/277 239/367/275
f 242/368/278 243/369/279 241/366/277 240/360/272
f 242/368/278 240/360/272 232/352/266 245/353/267
f 243/369/279 242/368/278 244/370/280 273/371/281
f 242/368/278 245/353/267 246/372/282 244/370/280
f 246/372/282 245/353/267 231/348/263 247/373/283
f 249/374/284 248/375/285 246/372/282 247/373/283
f 250/376/286 244/370/280 246/372/282 248/375/285
f 248/375/285 249/374/284 254/377/287 251/378/288
f 251/378/288 252/379/289 250/376/286 248/375/285
f 253/380/290 263/381/291 252/382/289 251/383/288
f 254/384/287 255/385/292 253/380/290 251/383/288
f 221/338/256 256/339/257 254/384/287 249/386/284
f 256/339/257 257/316/241 255/385/292 254/384/287
f 256/339/257 216/327/248 209/317/242 257/316/241
f 257/316/241 208/312/238 258/387/293 255/385/292
f 258/387/293 259/388/294 253/380/290 255/385/292
f 234/356/269 259/388/294 258/387/293 260/357/270
f 206/310/237 260/357/270 258/387/293 208/312/238
f 204/307/236 229/347/262 260/357/270 206/310/237
f 261/389/295 259/388/294 234/356/269 236/359/271
f 261/389/295 263/381/291 253/380/290 259/388/294
f 264/390/296 263/381/291 261/389/295 262/391/297
f 262/391/297 261/389/295 236/359/271 238/362/274
f 264/390/296 265/392/298 252/382/289 263/381/291
f 264/390/296 266/393/299 267/394/300 265/392/298
f 266/393/299 264/390/296 262/391/297 269/395/301
f 266/396/299 268/397/302 272/398/303 267/399/300
f 266/393/299 269/395/301 271/400/304 268/401/302
f 262/391/297 238/362/274 270/365/276 269/395/301
f 271/400/304 269/395/301 270/365/276 239/364/275
f 271/402/304 239/367/275 241/366/277 243/369/279
f 268/397/302 271/402/304 243/369/279 273/371/281
f 273/371/281 274/403/305 272/398/303 268/397/302
f 273/371/281 244/370/280 250/376/286 274/403/305
f 265/404/298 274/403/305 250/376/286 252/379/289
f 265/404/298 267/399/300 272/398/303 274/403/305
f 223/336/255 221/337/256 249/374/284 247/373/283
f 223/336/255 247/373/283 231/348/263 226/340/258
f 225/342/260 203/343/234 195/295/225 275/294/226
f 276/335/254 218/332/252 225/342/260 275/294/226
f 275/294/226 196/297/227 277/405/306 276/335/254
f 277/405/306 278/406/307 219/329/250 276/335/254
f 277/407/306 279/408/308 213/409/245 278/410/307
f 283/411/309 279/408/308 277/407/306 280/412/228
f 280/298/228 277/405/306 196/297/227
f 282/413/310 280/414/228 281/415/311 305/416/312
f 287/417/313 281/418/311 280/419/228 284/420/314
f 347/421/315 283/411/309 280/412/228 282/422/310
f 284/423/314 280/424/228 197/272/206 286/425/316
f 285/426/317 288/427/318 287/417/313 284/420/314
f 284/423/314 286/425/316 299/428/319 285/429/317
f 292/430/320 289/431/321 287/417/313 288/427/318
f 287/417/313 289/431/321 290/432/322 281/418/311
f 291/433/323 301/274/208 290/432/322 289/431/321
f 292/430/320 294/434/324 291/433/323 289/431/321
f 292/430/320 288/427/318 298/435/325 293/436/326
f 292/430/320 293/436/326 296/437/327 294/434/324
f 295/438/328 300/439/329 291/433/323 294/434/324
f 295/438/328 294/434/324 296/437/327 297/440/330
f 297/440/330 296/437/327 293/436/326 298/435/325
f 285/426/317 297/440/330 298/435/325 288/427/318
f 297/441/330 285/429/317 299/428/319 295/442/328
f 300/443/329 295/442/328 299/428/319 286/425/316
f 180/275/207 301/274/208 291/433/323 300/439/329
f 300/443/329 286/425/316 197/272/206 180/273/207
f 175/262/199 302/444/198 290/432/322 301/274/208
f 303/445/331 281/415/311 290/446/322 302/260/198
f 167/247/188 303/445/331 302/260/198 169/248/189
f 303/445/331 167/247/188 165/246/187 304/447/332
f 304/447/332 305/416/312 281/415/311 303/445/331
f 305/416/312 304/447/332 306/448/333 307/449/334
f 165/246/187 309/245/186 306/448/333 304/447/332
f 322/450/335 307/451/334 306/452/333 308/453/336
f 311/454/337 308/455/336 306/456/333 310/457/338
f 312/458/339 310/457/338 306/456/333 309/459/186
f 311/454/337 310/457/338 313/460/340 315/461/341
f 313/460/340 310/457/338 312/458/339 314/462/342
f 313/460/340 314/462/342 150/463/169 316/464/343
f 318/465/344 315/461/341 313/460/340 316/464/343
f 316/466/343 317/467/345 320/468/346 318/469/344
f 150/226/169 346/225/171 317/470/345 316/471/343
f 319/472/347 344/473/348 315/461/341 318/465/344
f 319/474/347 318/469/344 320/468/346 321/475/349
f 307/451/334 322/450/335 320/468/346 317/467/345
f 320/468/346 322/450/335 323/476/350 321/475/349
f 322/477/335 308/455/336 324/478/351 323/479/350
f 325/480/352 323/476/350 324/481/351 326/482/353
f 327/483/354 321/475/349 323/476/350 325/480/352
f 326/484/353 330/485/355 328/486/356 325/487/352
f 328/488/356 331/489/357 327/483/354 325/480/352
f 333/490/358 331/489/357 328/488/356 329/491/359
f 340/492/360 329/493/359 328/486/356 330/485/355
f 331/489/357 332/494/361 345/495/362 327/483/354
f 331/489/357 333/490/358 335/496/363 332/494/361
f 333/490/358 329/491/359 340/497/360 334/498/364
f 334/499/364 336/500/365 335/501/363 333/502/358
f 337/503/366 332/504/361 335/501/363 336/500/365
f 337/503/366 336/500/365 338/505/367 339/506/368
f 334/499/364 340/492/360 338/505/367 336/500/365
f 330/485/355 339/506/368 338/505/367 340/492/360
f 337/503/366 339/506/368 341/507/369 343/508/370
f 339/506/368 330/485/355 326/484/353 341/507/369
f 326/484/353 324/478/351 342/509/371 341/507/369
f 343/508/370 341/507/369 342/509/371 344/473/348
f 344/473/348 319/472/347 345/510/362 343/508/370
f 337/503/366 343/508/370 345/510/362 332/504/361
f 345/495/362 319/474/347 321/475/349 327/483/354
f 342/509/371 311/454/337 315/461/341 344/473/348
f 308/455/336 311/454/337 342/509/371 324/478/351
f 305/416/312 307/449/334 317/511/345 282/413/310
f 347/421/315 282/422/310 317/470/345 346/225/171
f 346/225/171 151/224/170 157/235/176 347/421/315
f 283/411/309 347/421/315 157/235/176 160/238/179
f 348/512/372 148/219/165 150/223/169 314/513/342
f 348/512/372 314/513/342 312/514/339 350/195/148
f 148/219/165 348/512/372 349/515/373 145/220/166
f 349/515/373 348/512/372 350/195/148 351/516/374
f 132/196/149 350/195/148 312/514/339 414/517/375
f 352/518/376 351/516/374 350/195/148 131/190/144
f 349/515/373 351/516/374 353/519/377 354/520/378
f 351/516/374 352/518/376 356/521/379 353/519/377
f 382/522/380 354/520/378 353/519/377 355/523/381
f 355/524/381 353/525/377 356/526/379 359/527/382
f 361/528/383 359/527/382 356/526/379 357/529/384
f 356/526/379 358/530/385 393/531/386 357/529/384
f 401/532/155 358/530/385 356/526/379 352/533/376
f 360/534/387 380/535/388 355/523/381 359/536/382
f 360/534/387 359/536/382 361/537/383 362/538/389
f 366/539/390 362/540/389 361/528/383 363/541/391
f 364/542/392 363/541/391 361/528/383 357/529/384
f 388/543/393 365/544/394 363/541/391 364/542/392
f 368/545/395 366/539/390 363/541/391 365/544/394
f 362/540/389 366/539/390 367/546/396 381/547/397
f 368/545/395 369/548/398 367/546/396 366/539/390
f 369/548/398 368/545/395 370/549/399 373/550/400
f 368/545/395 365/544/394 371/551/401 370/549/399
f 372/552/402 370/549/399 371/551/401 383/553/403
f 374/554/404 373/550/400 370/549/399 372/552/402
f 375/555/405 369/548/398 373/550/400 374/554/404
f 375/556/405 374/557/404 376/558/406 378/559/407
f 372/560/402 377/561/408 376/558/406 374/557/404
f 380/535/388 378/559/407 376/558/406 377/561/408
f 375/555/405 378/562/407 379/563/409 381/547/397
f 380/535/388 360/534/387 379/564/409 378/559/407
f 377/561/408 382/522/380 355/523/381 380/535/388
f 362/540/389 381/547/397 379/563/409 360/565/387
f 375/555/405 381/547/397 367/546/396 369/548/398
f 377/561/408 372/560/402 383/566/403 382/522/380
f 383/566/403 384/567/410 354/520/378 382/522/380
f 384/568/410 383/553/403 371/551/401 386/569/411
f 385/570/412 384/568/410 386/569/411 387/571/413
f 385/572/412 413/221/167 354/520/378 384/567/410
f 371/551/401 365/544/394 388/543/393 386/569/411
f 387/571/413 386/569/411 388/543/393 389/573/414
f 391/574/415 389/573/414 388/543/393 364/542/392
f 389/573/414 390/575/416 409/576/417 387/571/413
f 390/575/416 389/573/414 391/574/415 392/577/418
f 391/574/415 393/531/386 394/578/419 392/577/418
f 364/542/392 357/529/384 393/531/386 391/574/415
f 395/579/420 412/580/421 394/578/419 393/531/386
f 397/581/422 395/579/420 393/531/386 396/582/423
f 399/583/424 396/582/423 393/531/386 358/530/385
f 397/581/422 396/582/423 398/584/425 411/585/426
f 399/583/424 400/586/427 398/584/425 396/582/423
f 400/586/427 399/583/424 401/532/155 402/587/428
f 399/583/424 358/530/385 401/532/155
f 404/588/160 402/587/428 401/532/155 136/589/154
f 352/590/376 115/171/131 137/172/132 401/591/155
f 410/592/429 400/586/427 402/587/428 403/593/430
f 405/594/431 403/593/430 402/587/428 404/588/160
f 406/595/432 405/594/431 404/588/160 141/596/159
f 406/595/432 392/577/418 394/578/419 405/594/431
f 403/593/430 405/594/431 394/578/419 410/592/429
f 390/575/416 392/577/418 406/595/432 407/597/433
f 407/597/433 406/595/432 141/596/159 143/598/161
f 408/599/434 407/597/433 143/598/161 146/600/163
f 407/597/433 408/599/434 409/576/417 390/575/416
f 385/572/412 408/601/434 146/217/163 413/221/167
f 385/570/412 387/571/413 409/576/417 408/599/434
f 410/592/429 411/585/426 398/584/425 400/586/427
f 411/585/426 410/592/429 394/578/419 412/580/421
f 397/581/422 411/585/426 412/580/421 395/579/420
f 145/220/166 349/515/373 354/520/378 413/221/167
f 115/602/131 352/518/376 131/190/144 119/181/134
f 164/242/183 414/603/375 312/604/339 309/245/186
f 414/603/375 154/234/173 134/199/150 132/198/149
f 414/603/375 164/242/183 156/231/174 154/234/173
f 160/238/179 415/239/180 279/408/308 283/411/309
f 416/605/435 279/408/308 415/239/180
f 213/409/245 279/408/308 416/605/435 418/606/436
f 419/607/437 418/608/436 416/609/435 417/610/438
f 417/611/438 416/605/435 415/239/180 436/612/439
f 422/613/440 420/614/441 418/608/436 419/607/437
f 423/615/442 213/321/245 418/616/436 420/617/441
f 424/618/443 423/615/442 420/617/441 421/619/444
f 425/620/445 421/621/444 420/614/441 422/613/440
f 423/615/442 219/622/250 211/319/244 213/321/245
f 219/622/250 423/615/442 424/618/443 215/623/247
f 424/618/443 278/624/307 213/625/245 215/623/247
f 421/619/444 459/626/446 278/624/307 424/618/443
f 422/613/440 419/607/437 429/627/447 426/628/448
f 426/628/448 427/629/449 425/620/445 422/613/440
f 428/630/450 451/631/451 427/629/449 426/628/448
f 428/630/450 426/628/448 429/627/447 430/632/452
f 419/607/437 417/610/438 431/633/453 429/627/447
f 429/627/447 431/633/453 432/634/454 430/632/452
f 417/611/438 436/612/439 433/635/455 431/636/453
f 433/637/455 434/638/456 432/634/454 431/633/453
f 435/639/457 438/640/458 434/638/456 433/637/455
f 437/641/459 435/642/457 433/635/455 436/612/439
f 437/641/459 436/612/439 415/239/180 159/240/181
f 159/240/181 162/241/182 170/250/191 437/641/459
f 435/642/457 437/641/459 170/250/191 439/643/460
f 439/644/460 440/645/461 438/640/458 435/639/457
f 440/646/461 439/647/460 170/648/191 173/259/194
f 440/646/461 173/259/194 442/258/197 441/649/211
f 441/279/211 184/280/212 438/640/458 440/645/461
f 186/264/201 441/649/211 442/258/197 172/254/195
f 184/280/212 443/282/214 434/638/456 438/640/458
f 443/282/214 444/650/462 432/634/454 434/638/456
f 444/650/462 443/282/214 185/281/213 445/286/218
f 444/650/462 445/286/218 447/651/463 446/652/464
f 432/634/454 444/650/462 446/652/464 430/632/452
f 448/653/465 446/652/464 447/651/463 449/654/466
f 428/630/450 430/632/452 446/652/464 448/653/465
f 449/654/466 452/655/467 450/656/468 448/653/465
f 448/653/465 450/656/468 451/631/451 428/630/450
f 450/656/468 452/655/467 453/657/469 451/631/451
f 454/658/470 455/659/471 453/657/469 452/655/467
f 449/654/466 447/651/463 454/658/470 452/655/467
f 191/287/219 455/659/471 454/658/470 189/285/217
f 445/286/218 189/285/217 454/658/470 447/651/463
f 193/289/221 456/301/230 455/659/471 191/287/219
f 456/301/230 457/660/472 453/657/469 455/659/471
f 457/660/472 456/301/230 199/300/229 458/661/473
f 457/660/472 458/661/473 425/620/445 427/629/449
f 453/657/469 457/660/472 427/629/449 451/631/451
f 459/662/446 458/663/473 199/320/229 211/319/244
f 459/664/446 421/621/444 425/620/445 458/661/473
f 278/665/307 459/662/446 211/319/244 219/622/250
f 460/192/114 129/193/146 137/666/132 116/667/130
f 122/178/135 119/181/134 131/190/144 128/189/143
f 110/154/121 99/148/115 460/147/114 116/668/130
f 122/178/135 128/189/143 126/188/142 124/185/139
f 61/95/76 113/167/127 96/143/111 63/96/77
f 81/120/97 101/150/117 461/157/72 79/121/96
f 66/99/80 79/118/96 461/90/72 59/89/71
f 52/75/63 462/669/474 467/670/475 48/74/62
f 462/669/474 52/75/63 463/671/66 464/672/476
f 466/673/50 464/674/476 463/78/66 465/675/477
f 30/49/41 465/675/477 463/78/66 51/52/44
f 465/675/477 30/49/41 28/48/40 33/51/43
f 465/675/477 33/51/43 36/676/47 466/673/50
f 464/672/476 466/61/50 37/60/49 39/62/51
f 464/672/476 39/62/51 41/65/54 462/669/474
f 41/65/54 468/67/56 467/670/475 462/669/474
f 42/66/55 48/74/62 467/670/475 468/67/56
f 471/677/478 470/678/479 26/36/30 20/35/29
f 470/678/479 473/46/38 469/47/39 26/36/30
f 470/678/479 471/677/478 474/679/480 472/44/36
f 473/46/38 470/678/479 472/44/36 24/43/35
f 25/45/37 469/47/39 473/46/38
f 475/680/481 472/44/36 474/679/480 476/681/482
f 477/682/483 23/683/34 472/684/36 475/685/481
f 475/680/481 476/681/482 481/686/484 478/687/485
f 477/688/483 475/680/481 478/687/485 479/689/486
f 494/690/487 479/691/486 478/692/485 480/693/488
f 480/693/488 478/692/485 481/694/484 483/695/489
f 476/696/482 499/697/490 482/698/491 481/694/484
f 483/695/489 481/694/484 482/698/491 485/699/492
f 480/693/488 483/695/489 484/700/493 491/701/494
f 485/699/492 486/702/495 484/700/493 483/695/489
f 487/703/496 490/704/497 486/705/495 485/706/492
f 485/706/492 482/707/491 489/708/498 487/703/496
f 488/709/499 487/703/496 489/708/498 496/710/500
f 487/703/496 488/709/499 492/711/501 490/704/497
f 491/701/494 490/712/497 492/713/501 493/714/502
f 490/712/497 491/701/494 484/700/493 486/702/495
f 494/690/487 493/714/502 492/713/501 488/715/499
f 480/693/488 491/701/494 493/714/502 494/690/487
f 494/716/487 488/709/499 496/710/500 479/717/486
f 499/718/490 495/719/503 489/708/498 482/707/491
f 489/708/498 495/719/503 497/720/504 496/710/500
f 479/717/486 496/710/500 497/720/504 477/682/483
f 497/720/504 495/719/503 9/14/14 498/26/23
f 23/683/34 477/682/483 497/720/504 498/26/23
f 499/718/490 500/15/15 9/14/14 495/719/503
f 499/721/490 476/681/482 474/679/480 500/722/15
f 474/679/480 502/723/505 501/724/506 500/722/15
f 500/722/15 501/724/506 503/725/507 10/726/11
f 502/723/505 507/727/508 504/728/509 501/724/506
f 504/729/509 505/730/510 503/731/507 501/732/506
f 504/729/509 506/733/511 522/734/512 505/730/510
f 508/735/513 506/733/511 504/729/509 507/736/508
f 510/737/514 509/738/515 507/727/508 502/723/505
f 512/739/516 508/740/513 507/727/508 509/738/515
f 509/741/515 510/742/514 521/743/31 511/744/517
f 509/741/515 511/744/517 514/745/518 512/746/516
f 508/735/513 512/746/516 513/747/519 506/733/511
f 512/746/516 514/745/518 515/748/520 513/747/519
f 516/749/521 517/8/8 515/748/520 514/745/518
f 518/750/522 516/749/521 514/745/518 511/744/517
f 517/8/8 516/749/521 519/6/6 3/5/5
f 519/6/6 516/749/521 518/750/522 2/2/2
f 518/750/522 520/16/16 7/3/3 2/2/2
f 518/750/522 511/744/517 521/743/31 520/16/16
f 12/17/17 520/16/16 521/743/31 21/27/24
f 471/677/478 20/35/29 521/38/31 510/737/514
f 517/8/8 4/7/7 522/734/512 515/748/520
f 513/747/519 515/748/520 522/734/512 506/733/511
f 522/734/512 4/7/7 6/9/9 505/730/510
f 510/737/514 502/723/505 474/679/480 471/677/478
f 6/9/9 10/11/11 503/731/507 505/730/510
