# Blender 5.2.0 LTS
# www.blender.org
mtllib terrain-abyss-chancel-object-063.mtl
o terrain-abyss-chancel-object-063
v -0.170178 0.124247 0.007397
v -0.168727 0.125262 0.007520
v -0.168560 0.123360 0.007773
v -0.171041 0.125161 0.005843
v -0.170647 0.123300 0.006727
v -0.171597 0.123765 0.005402
v -0.169229 0.122908 0.006256
v -0.167467 0.122707 0.005409
v -0.170347 0.122719 0.004542
v -0.168858 0.122834 0.003563
v -0.171538 0.123055 0.002975
v -0.170665 0.123335 0.001880
v -0.172328 0.124148 0.003403
v -0.171648 0.125662 0.004086
v -0.172209 0.124553 0.001179
v -0.171285 0.124942 0.000555
v -0.171675 0.125949 0.002274
v -0.170446 0.126463 0.002624
v -0.171558 0.126143 0.000889
v -0.170343 0.126416 0.000992
v -0.170120 0.125229 -0.000018
v -0.168590 0.126873 0.001369
v -0.166626 0.126895 0.002547
v -0.169192 0.126957 0.002740
v -0.168389 0.125024 0.000337
v -0.169427 0.123853 0.001161
v -0.166238 0.124804 0.001514
v -0.164470 0.124626 0.003151
v -0.167417 0.123400 0.002524
v -0.165788 0.123186 0.004329
v -0.164571 0.123217 0.006282
v -0.163386 0.124949 0.004602
v -0.166486 0.123192 0.007336
v -0.164542 0.124910 0.008049
v -0.166096 0.124512 0.008533
v -0.164561 0.125904 0.006143
v -0.166600 0.125895 0.007137
v -0.165383 0.126488 0.004143
v -0.167454 0.126507 0.005437
v -0.168397 0.126776 0.003973
v -0.169587 0.126165 0.005998
v -0.170137 0.126318 0.004257
v -0.168111 0.124131 0.008792
vn -0.6253 0.0072 0.7803
vn -0.3182 0.6270 0.7111
vn -0.3205 0.8453 0.4276
vn -0.7178 0.4862 0.4984
vn -0.2139 -0.6861 0.6954
vn -0.1526 -0.0391 0.9875
vn -0.6162 -0.5823 0.5303
vn -0.1700 -0.9431 0.2858
vn -0.8452 -0.3553 0.3993
vn -0.2742 -0.9607 0.0423
vn 0.0598 -0.9753 -0.2127
vn 0.0841 -0.9962 0.0237
vn 0.1885 -0.8817 0.4326
vn -0.9680 -0.2380 0.0790
vn -0.4822 -0.8651 -0.1384
vn -0.2067 -0.8568 -0.4724
vn -0.8468 -0.2292 -0.4800
vn -0.7131 0.7009 -0.0134
vn -0.7485 0.6143 0.2500
vn -0.4593 -0.1645 -0.8729
vn 0.0570 -0.7714 -0.6338
vn -0.5892 0.6532 -0.4756
vn -0.3332 0.9401 0.0722
vn -0.3490 0.9081 0.2316
vn -0.1980 0.8300 -0.5214
vn -0.0543 -0.0178 -0.9984
vn -0.1789 0.9823 0.0558
vn 0.1221 0.8584 -0.4983
vn 0.2913 -0.1097 -0.9503
vn 0.3913 0.8529 -0.3457
vn 0.5946 -0.1561 -0.7888
vn -0.0746 0.9851 0.1550
vn 0.2558 -0.8502 -0.4601
vn 0.3569 -0.8963 -0.2632
vn 0.8009 -0.1538 -0.5787
vn 0.4490 0.8821 -0.1424
vn 0.9760 0.0375 -0.2145
vn 0.6531 -0.7276 0.2097
vn 0.6224 0.1543 0.7673
vn 0.6385 0.7171 0.2794
vn 0.2357 0.0263 0.9715
vn 0.0361 0.8624 0.5049
vn -0.0005 0.9603 0.2789
vt 0.704286 0.026146
vt 0.703629 0.026667
vt 0.703346 0.025589
vt 0.704069 0.025109
vt 0.935740 0.021572
vt 0.936445 0.020698
vt 0.936852 0.021175
vt 0.936407 0.021984
vt 0.935380 0.021148
vt 0.935686 0.020417
vt 0.934618 0.021963
vt 0.934579 0.021213
vt 0.934762 0.020347
vt 0.934691 0.019494
vt 0.935871 0.019404
vt 0.936818 0.019807
vt 0.933576 0.021084
vt 0.933802 0.020400
vt 0.933475 0.019724
vt 0.932802 0.020293
vt 0.932662 0.021405
vt 0.933550 0.022018
vt 0.932384 0.019681
vt 0.933314 0.019006
vt 0.932221 0.020462
vt 0.702652 0.023954
vt 0.703106 0.023397
vt 0.703755 0.024204
vt 0.703067 0.024689
vt 0.701854 0.023490
vt 0.702372 0.023027
vt 0.700933 0.023167
vt 0.701605 0.022750
vt 0.702110 0.024405
vt 0.701268 0.024196
vt 0.700057 0.023926
vt 0.701101 0.025204
vt 0.699747 0.025185
vt 0.702255 0.025095
vt 0.932333 0.018952
vt 0.932911 0.018210
vt 0.934169 0.017686
vt 0.934517 0.018616
vt 0.935769 0.018372
vt 0.935452 0.017342
vt 0.701116 0.026160
vt 0.699930 0.026580
vt 0.700627 0.027215
vt 0.701137 0.028359
vt 0.699793 0.028362
vt 0.702706 0.028919
vt 0.701097 0.029418
vt 0.702104 0.027859
vt 0.701600 0.027056
vt 0.702774 0.027892
vt 0.702648 0.026884
vt 0.702355 0.025936
vt 0.703660 0.027657
vt 0.703612 0.028284
s 1
usemtl abyss_chancel_background_pbr
f 1/1/1 2/2/2 41/3/3 4/4/4
f 1/5/1 3/6/5 43/7/6 2/8/2
f 3/6/5 1/5/1 5/9/7 7/10/8
f 4/11/4 6/12/9 5/9/7 1/5/1
f 9/13/10 7/10/8 5/9/7 6/12/9
f 9/13/10 10/14/11 8/15/12 7/10/8
f 3/6/5 7/10/8 8/15/12 33/16/13
f 6/12/9 13/17/14 11/18/15 9/13/10
f 10/14/11 9/13/10 11/18/15 12/19/16
f 15/20/17 12/19/16 11/18/15 13/17/14
f 17/21/18 15/20/17 13/17/14 14/22/19
f 4/11/4 14/22/19 13/17/14 6/12/9
f 16/23/20 26/24/21 12/19/16 15/20/17
f 15/20/17 17/21/18 19/25/22 16/23/20
f 18/26/23 17/27/18 14/28/19 42/29/24
f 18/26/23 20/30/25 19/31/22 17/27/18
f 19/31/22 20/30/25 21/32/26 16/33/20
f 20/30/25 18/26/23 24/34/27 22/35/28
f 22/35/28 25/36/29 21/32/26 20/30/25
f 22/35/28 23/37/30 27/38/31 25/36/29
f 23/37/30 22/35/28 24/34/27 40/39/32
f 26/24/21 16/23/20 21/40/26 25/41/29
f 26/24/21 25/41/29 27/42/31 29/43/33
f 30/44/34 29/43/33 27/42/31 28/45/35
f 27/38/31 23/37/30 38/46/36 28/47/35
f 12/19/16 26/24/21 29/43/33 10/14/11
f 8/15/12 10/14/11 29/43/33 30/44/34
f 32/48/37 31/49/38 30/50/34 28/47/35
f 31/49/38 33/51/13 8/52/12 30/50/34
f 34/53/39 31/49/38 32/48/37 36/54/40
f 34/53/39 35/55/41 33/51/13 31/49/38
f 34/53/39 36/54/40 37/56/42 35/55/41
f 36/54/40 38/46/36 39/57/43 37/56/42
f 32/48/37 28/47/35 38/46/36 36/54/40
f 23/37/30 40/39/32 39/57/43 38/46/36
f 40/39/32 42/29/24 41/3/3 39/57/43
f 37/56/42 39/57/43 41/3/3 2/2/2
f 41/3/3 42/29/24 14/28/19 4/4/4
f 42/29/24 40/39/32 24/34/27 18/26/23
f 37/56/42 2/2/2 43/58/6 35/55/41
f 33/51/13 35/55/41 43/58/6 3/59/5
