# Blender 5.2.0 LTS
# www.blender.org
mtllib terrain-abyss-chancel-object-052.mtl
o terrain-abyss-chancel-object-052
v -0.287618 0.894580 0.030248
v -0.290668 0.903494 0.028642
v -0.283515 0.895443 0.026268
v -0.287317 0.887233 0.028780
v -0.290080 0.892752 0.035755
v -0.289886 0.884949 0.033953
v -0.292773 0.890152 0.041408
v -0.292722 0.903926 0.034583
v -0.294974 0.902825 0.041367
v -0.303793 0.909318 0.028148
v -0.301244 0.908762 0.021852
v -0.306709 0.908735 0.034515
v -0.317826 0.910668 0.020217
v -0.331176 0.910894 0.011428
v -0.321957 0.909786 0.026450
v -0.314340 0.912268 0.014349
v -0.326247 0.912211 0.005469
v -0.312564 0.918854 0.011709
v -0.299375 0.913265 0.018734
v -0.325756 0.920116 0.004317
v -0.312994 0.927812 0.012165
v -0.298775 0.923538 0.019843
v -0.326255 0.929362 0.004341
v -0.312766 0.941109 0.008614
v -0.324379 0.940310 -0.000001
v -0.300038 0.937344 0.018554
v -0.301498 0.946202 -0.008773
v -0.294647 0.944891 0.005603
v -0.305674 0.947526 -0.019481
v -0.318488 0.945705 -0.011951
v -0.301925 0.958681 -0.010849
v -0.298199 0.969962 -0.016871
v -0.295596 0.958503 0.001292
v -0.305909 0.958280 -0.019589
v -0.308239 0.969153 -0.020523
v -0.313699 0.954455 -0.024684
v -0.313758 0.966879 -0.027575
v -0.317671 0.948155 -0.033597
v -0.315828 0.947464 -0.021543
v -0.325339 0.945014 -0.024720
v -0.327265 0.935388 -0.028585
v -0.329454 0.941526 -0.015578
v -0.331119 0.938372 -0.007327
v -0.332379 0.932391 -0.018374
v -0.333779 0.930831 -0.006751
v -0.333192 0.921714 -0.018956
v -0.334847 0.920923 -0.006020
v -0.327242 0.923438 -0.030013
v -0.334567 0.909979 -0.019316
v -0.329960 0.911068 -0.030433
v -0.337000 0.894608 -0.021541
v -0.336502 0.909314 -0.005703
v -0.343145 0.908092 0.001853
v -0.341463 0.893762 -0.012399
v -0.348364 0.893377 -0.003589
v -0.341204 0.877949 -0.014994
v -0.337522 0.878224 -0.025149
v -0.341230 0.866524 -0.015542
v -0.349599 0.877900 -0.005177
v -0.348090 0.866005 -0.004213
v -0.358951 0.877270 0.006555
v -0.358197 0.864078 0.006315
v -0.357517 0.892415 0.006943
v -0.363639 0.876275 0.016655
v -0.362617 0.891517 0.017201
v -0.358757 0.874930 0.025202
v -0.362161 0.864011 0.016000
v -0.355348 0.862699 0.020415
v -0.349099 0.858224 0.011057
v -0.343598 0.861738 0.027631
v -0.330787 0.861452 0.036615
v -0.337363 0.856219 0.018289
v -0.346399 0.874333 0.032528
v -0.332888 0.873789 0.041568
v -0.348565 0.889587 0.035398
v -0.347221 0.903711 0.033301
v -0.334896 0.890067 0.044587
v -0.360051 0.890039 0.027419
v -0.356269 0.902093 0.027401
v -0.355510 0.905838 0.020050
v -0.341934 0.908584 0.025992
v -0.351642 0.908040 0.010312
v -0.336820 0.910442 0.018680
v -0.327359 0.908285 0.033288
v -0.334252 0.904917 0.041698
v -0.311122 0.907633 0.041901
v -0.299672 0.901011 0.048348
v -0.317345 0.903377 0.050023
v -0.305388 0.896453 0.055440
v -0.321681 0.889946 0.053471
v -0.312027 0.890365 0.058120
v -0.320821 0.871811 0.050381
v -0.311025 0.878129 0.056715
v -0.324355 0.860903 0.046323
v -0.316590 0.865211 0.054264
v -0.308736 0.868486 0.055428
v -0.313800 0.860980 0.052604
v -0.316884 0.867953 0.060812
v -0.323512 0.860495 0.054120
v -0.320828 0.854709 0.052285
v -0.322940 0.861567 0.063149
v -0.320515 0.854434 0.062546
v -0.319697 0.862201 0.071232
v -0.314511 0.861959 0.076692
v -0.316111 0.868183 0.068601
v -0.317951 0.855665 0.070556
v -0.313436 0.854979 0.071113
v -0.308724 0.857316 0.068383
v -0.314837 0.852826 0.060304
v -0.312434 0.854156 0.058532
v -0.311575 0.854262 0.047953
v -0.297395 0.857076 0.040409
v -0.307753 0.854106 0.031686
v -0.312682 0.857206 0.050489
v -0.302426 0.855587 0.048335
v -0.304174 0.860834 0.052775
v -0.295523 0.855100 0.048017
v -0.293346 0.855968 0.051870
v -0.292539 0.854903 0.043406
v -0.287876 0.856122 0.045201
v -0.290039 0.854567 0.035806
v -0.287512 0.856151 0.023038
v -0.284063 0.855200 0.036230
v -0.279720 0.859605 0.038163
v -0.283078 0.855544 0.024990
v -0.274296 0.860022 0.027226
v -0.288601 0.860092 0.020979
v -0.282592 0.858050 0.001857
v -0.274287 0.865935 0.018564
v -0.305323 0.858346 0.007599
v -0.297821 0.856450 -0.007965
v -0.315658 0.856338 0.017909
v -0.319502 0.859171 -0.002807
v -0.331336 0.860110 -0.010237
v -0.328562 0.857519 0.008182
v -0.310286 0.859110 -0.016984
v -0.301435 0.860465 -0.032848
v -0.322695 0.859872 -0.023475
v -0.313309 0.859256 -0.037173
v -0.335365 0.866035 -0.029210
v -0.325641 0.860452 -0.042896
v -0.338956 0.863444 -0.039398
v -0.342891 0.857504 -0.046584
v -0.333982 0.861189 -0.048076
v -0.341064 0.875513 -0.032304
v -0.337762 0.896403 -0.031829
v -0.347602 0.867087 -0.043330
v -0.352106 0.852127 -0.048789
v -0.349940 0.869098 -0.054311
v -0.348026 0.889840 -0.037085
v -0.350735 0.886956 -0.049409
v -0.338935 0.901590 -0.046957
v -0.346746 0.898617 -0.050696
v -0.325462 0.904400 -0.044845
v -0.331525 0.902461 -0.059123
v -0.343026 0.899476 -0.061511
v -0.327590 0.901584 -0.074234
v -0.323667 0.905201 -0.057226
v -0.322940 0.915711 -0.056795
v -0.319368 0.904736 -0.072598
v -0.318875 0.915627 -0.071809
v -0.311912 0.899590 -0.087398
v -0.305753 0.880631 -0.090423
v -0.325463 0.893879 -0.085252
v -0.295060 0.899550 -0.093789
v -0.311490 0.916611 -0.086195
v -0.299042 0.919311 -0.093933
v -0.312692 0.928728 -0.083013
v -0.303274 0.932810 -0.087088
v -0.315920 0.939169 -0.080411
v -0.319828 0.927558 -0.070788
v -0.319426 0.939455 -0.069402
v -0.323252 0.928167 -0.055948
v -0.323224 0.939649 -0.053628
v -0.323138 0.926138 -0.041815
v -0.322472 0.937730 -0.038195
v -0.322879 0.913558 -0.042868
v -0.311851 0.946910 -0.049850
v -0.296871 0.947385 -0.052821
v -0.311593 0.959152 -0.049445
v -0.309596 0.944398 -0.065745
v -0.306065 0.940078 -0.077470
v -0.295318 0.946118 -0.063057
v -0.278372 0.947844 -0.061628
v -0.290955 0.943243 -0.076534
v -0.272450 0.944685 -0.073037
v -0.285971 0.934272 -0.087246
v -0.282397 0.919183 -0.090248
v -0.264171 0.935309 -0.079910
v -0.250741 0.935723 -0.066533
v -0.261704 0.919171 -0.079724
v -0.249855 0.920632 -0.064673
v -0.263586 0.899103 -0.078434
v -0.264962 0.876043 -0.074611
v -0.280778 0.898471 -0.089210
v -0.249858 0.903683 -0.063571
v -0.253733 0.880596 -0.067349
v -0.239980 0.899980 -0.061142
v -0.254412 0.911765 -0.044397
v -0.253881 0.926277 -0.046896
v -0.262413 0.922058 -0.029248
v -0.243877 0.902994 -0.041127
v -0.230954 0.898481 -0.038745
v -0.250083 0.902734 -0.025316
v -0.235726 0.898970 -0.021416
v -0.254473 0.900160 -0.013295
v -0.266405 0.904360 -0.017438
v -0.241707 0.897479 -0.012112
v -0.255291 0.885050 -0.008047
v -0.267298 0.885591 0.000819
v -0.253008 0.872595 -0.001994
v -0.242972 0.885509 -0.006926
v -0.231444 0.884604 -0.018086
v -0.244808 0.872672 -0.004837
v -0.252447 0.863107 -0.005567
v -0.232053 0.869963 -0.017012
v -0.229453 0.869347 -0.040178
v -0.243172 0.861276 -0.020470
v -0.241426 0.861890 -0.042834
v -0.257356 0.861326 -0.027303
v -0.263306 0.863582 -0.010164
v -0.272351 0.863364 -0.035820
v -0.255662 0.862863 -0.045507
v -0.255635 0.867376 -0.059038
v -0.272073 0.860665 -0.049799
v -0.273854 0.854575 -0.055112
v -0.287448 0.858481 -0.051072
v -0.266614 0.861276 -0.063538
v -0.273335 0.860214 -0.068108
v -0.259368 0.858642 -0.068843
v -0.265876 0.855733 -0.064164
v -0.258195 0.854304 -0.071395
v -0.267403 0.855242 -0.068336
v -0.261090 0.854584 -0.076840
v -0.267825 0.856847 -0.072183
v -0.274669 0.853523 -0.061299
v -0.275026 0.855198 -0.066216
v -0.281421 0.853731 -0.057244
v -0.281807 0.855499 -0.061845
v -0.284208 0.854377 -0.053201
v -0.285801 0.855000 -0.058209
v -0.287058 0.860493 -0.056200
v -0.280574 0.860174 -0.064923
v -0.294451 0.862156 -0.046390
v -0.296278 0.861673 -0.071163
v -0.303598 0.857277 -0.057639
v -0.314756 0.856201 -0.063593
v -0.304625 0.858516 -0.049837
v -0.320528 0.857414 -0.053772
v -0.332218 0.858969 -0.059793
v -0.340407 0.850919 -0.057436
v -0.342297 0.861769 -0.069222
v -0.324172 0.861367 -0.068743
v -0.332848 0.864767 -0.078266
v -0.310690 0.861938 -0.075259
v -0.316217 0.866228 -0.084594
v -0.297021 0.862801 -0.078856
v -0.298137 0.865646 -0.087529
v -0.288311 0.863782 -0.080652
v -0.287946 0.865637 -0.081050
v -0.292778 0.878434 -0.089892
v -0.284830 0.863530 -0.073848
v -0.278993 0.870938 -0.082661
v -0.320497 0.879908 -0.088775
v -0.338638 0.876440 -0.081428
v -0.341388 0.889374 -0.078771
v -0.347308 0.872509 -0.066199
v -0.347673 0.886553 -0.062710
v -0.338983 0.898955 -0.072773
v -0.350560 0.855688 -0.061426
v -0.339029 0.854702 -0.050329
v -0.344970 0.848490 -0.051878
v -0.286316 0.862244 -0.042072
v -0.290036 0.860661 -0.026822
v -0.276309 0.859394 -0.017009
v -0.265487 0.859277 -0.072961
v -0.265070 0.857840 -0.079961
v -0.259017 0.860600 -0.079522
v -0.256416 0.856061 -0.083088
v -0.251682 0.858222 -0.072424
v -0.250723 0.856047 -0.078590
v -0.243081 0.867353 -0.060105
v -0.230407 0.874403 -0.058527
v -0.243779 0.880791 -0.067941
v -0.234753 0.881232 -0.064523
v -0.229881 0.892558 -0.060704
v -0.226561 0.884481 -0.055113
v -0.227257 0.884414 -0.038187
v -0.267795 0.867182 0.001665
v -0.267519 0.873207 0.004663
v -0.256784 0.865345 0.001222
v -0.259428 0.868271 0.005452
v -0.259413 0.872217 0.007217
v -0.272122 0.874677 0.017203
v -0.272518 0.886181 0.017244
v -0.282538 0.875956 0.027117
v -0.277573 0.870771 0.028769
v -0.287104 0.881679 0.025324
v -0.281107 0.886797 0.026399
v -0.287027 0.872667 0.031223
v -0.288026 0.873201 0.028485
v -0.289140 0.878718 0.031142
v -0.290141 0.875871 0.035393
v -0.292764 0.870530 0.041638
v -0.292210 0.881361 0.038987
v -0.295456 0.876797 0.044909
v -0.300834 0.872739 0.051922
v -0.296477 0.886643 0.047674
v -0.302057 0.882778 0.054453
v -0.297943 0.863998 0.048900
v -0.290876 0.860761 0.052181
v -0.293286 0.864611 0.047150
v -0.290016 0.863596 0.050523
v -0.290280 0.866701 0.043865
v -0.292379 0.865967 0.043345
v -0.286067 0.864717 0.046254
v -0.285034 0.870444 0.036454
v -0.279425 0.866378 0.038984
v -0.275240 0.866417 0.031176
v -0.285264 0.859859 0.046359
v -0.275397 0.897270 0.018349
v -0.277335 0.906771 0.019371
v -0.272077 0.904688 0.003295
v -0.272860 0.910211 0.006375
v -0.272589 0.930512 -0.019676
v -0.281916 0.939824 -0.027645
v -0.275792 0.948021 -0.017651
v -0.269688 0.924955 -0.013304
v -0.272562 0.949257 -0.023722
v -0.268325 0.954535 -0.029449
v -0.277552 0.957762 -0.011637
v -0.279979 0.970603 -0.017773
v -0.283287 0.968484 -0.007107
v -0.269886 0.968200 -0.025824
v -0.282840 0.976797 -0.025929
v -0.269954 0.975345 -0.023504
v -0.284532 0.976942 -0.036146
v -0.297674 0.976988 -0.024245
v -0.311754 0.976628 -0.021369
v -0.299155 0.976701 -0.032832
v -0.310942 0.975793 -0.030120
v -0.300620 0.974904 -0.042904
v -0.311157 0.973885 -0.039729
v -0.285889 0.975978 -0.049636
v -0.300001 0.968058 -0.049765
v -0.298424 0.957667 -0.050982
v -0.284912 0.967661 -0.050377
v -0.311164 0.969479 -0.048340
v -0.266856 0.967951 -0.049789
v -0.282847 0.958641 -0.050412
v -0.280900 0.949053 -0.052703
v -0.266868 0.960536 -0.049900
v -0.266882 0.951929 -0.050028
v -0.265501 0.958465 -0.037544
v -0.266065 0.967707 -0.036272
v -0.260546 0.948901 -0.041395
v -0.260996 0.939212 -0.034442
v -0.253126 0.940253 -0.051102
v -0.261682 0.949184 -0.057307
v -0.255534 0.944624 -0.067693
v -0.266285 0.975074 -0.036207
v -0.266845 0.974938 -0.049685
v -0.314477 0.962767 -0.037244
v -0.292641 0.968978 -0.006574
v -0.286592 0.958207 0.004777
v -0.280615 0.954205 -0.001132
v -0.287749 0.944790 0.010919
v -0.287942 0.934371 0.023329
v -0.280892 0.944129 0.009425
v -0.274996 0.942482 0.005105
v -0.277685 0.932151 0.019229
v -0.272144 0.931099 0.009584
v -0.277734 0.919259 0.020309
v -0.287228 0.920228 0.025049
v -0.272866 0.919106 0.008473
v -0.268900 0.927500 -0.008179
v -0.275465 0.936905 -0.019731
v -0.268653 0.934580 -0.003547
v -0.274967 0.942263 -0.016427
v -0.271165 0.941830 -0.002767
v -0.274663 0.945184 -0.012144
v -0.276784 0.948967 -0.007242
v -0.277146 0.943460 -0.021993
v -0.278910 0.942273 -0.022691
v -0.280435 0.938906 -0.024897
v -0.274211 0.934625 -0.020575
v -0.288397 0.906459 0.024227
v -0.339750 0.859333 0.001057
v -0.324367 0.855303 0.027568
v -0.319609 0.854196 0.040128
v -0.312943 0.861901 0.058897
v -0.309999 0.863848 0.066352
v -0.309381 0.864780 0.071762
v -0.309737 0.861324 0.075436
v -0.314022 0.867200 0.073735
vn 0.7820 0.1775 0.5975
vn 0.5773 0.6381 0.5095
vn 0.6736 0.6712 0.3095
vn 0.9087 0.0969 0.4061
vn 0.6064 0.1922 0.7715
vn 0.2525 0.3077 0.9174
vn 0.7053 -0.0800 0.7044
vn 0.5215 0.0064 0.8532
vn 0.9250 -0.0498 0.3766
vn 0.8786 0.0583 0.4740
vn 0.9023 -0.0024 0.4310
vn 0.6605 0.5990 0.4527
vn 0.2111 0.9669 0.1432
vn 0.1513 0.9626 0.2248
vn 0.0615 0.8712 0.4871
vn -0.2296 0.7966 0.5593
vn -0.0024 0.9919 0.1268
vn -0.0243 0.9903 0.1370
vn -0.4889 0.7221 0.4894
vn -0.1241 0.9917 0.0344
vn -0.1122 0.9912 0.0707
vn -0.6489 0.1027 0.7539
vn -0.4690 0.1525 0.8699
vn -0.3443 0.2795 0.8963
vn -0.4496 0.0207 0.8930
vn -0.5125 0.0807 0.8549
vn -0.6563 0.1609 0.7372
vn -0.3665 0.6997 0.6132
vn -0.3550 0.5385 0.7642
vn -0.5077 0.6902 0.5156
vn -0.6383 0.6460 0.4186
vn -0.2385 0.9518 0.1931
vn -0.4209 0.6752 0.6058
vn -0.6124 0.4194 0.6701
vn -0.8372 0.2290 0.4966
vn -0.4137 0.8436 0.3424
vn -0.5590 0.5951 0.5774
vn -0.7080 0.1329 0.6935
vn -0.3187 0.6741 0.6664
vn -0.6144 0.2509 0.7480
vn -0.3265 0.8212 0.4679
vn -0.9438 0.1389 0.3000
vn -0.7702 0.3095 0.5576
vn -0.9815 0.1683 -0.0917
vn -0.8737 0.4714 -0.1199
vn -0.7224 0.6780 -0.1362
vn -0.7383 0.6741 -0.0223
vn -0.8895 0.2451 -0.3857
vn -0.9042 0.3623 -0.2263
vn -0.9463 0.2021 -0.2523
vn -0.7803 0.5711 0.2549
vn -0.9421 0.2084 0.2626
vn -0.9533 0.1172 -0.2782
vn -0.9519 0.1079 0.2867
vn -0.9080 0.1115 -0.4039
vn -0.9465 0.2334 -0.2229
vn -0.8650 0.4943 -0.0866
vn -0.8942 0.2691 -0.3577
vn -0.8729 0.4534 0.1804
vn -0.9696 0.2007 -0.1398
vn -0.8561 0.2380 -0.4588
vn -0.4912 0.7961 -0.3535
vn -0.7409 0.2801 -0.6104
vn -0.8691 0.0286 -0.4938
vn -0.7766 0.0181 -0.6297
vn -0.9987 -0.0201 -0.0471
vn -0.6777 -0.7320 0.0698
vn -0.7382 -0.5239 -0.4250
vn -0.6434 -0.5156 -0.5659
vn -0.8447 0.0112 -0.5350
vn -0.8201 0.2666 -0.5062
vn -0.7127 -0.5437 -0.4432
vn -0.8442 -0.5267 0.0991
vn -0.9958 -0.0831 0.0379
vn -0.9737 0.2195 -0.0606
vn -0.8050 0.0723 0.5889
vn -0.7013 -0.2447 0.6695
vn -0.5318 -0.7121 0.4584
vn -0.2922 -0.9517 -0.0944
vn -0.1650 -0.9823 0.0884
vn -0.4245 -0.7030 0.5706
vn -0.5263 -0.3133 0.7905
vn -0.5912 -0.2575 0.7643
vn -0.5644 -0.6350 0.5275
vn -0.1956 -0.9784 0.0673
vn -0.5460 0.0129 0.8377
vn -0.5572 -0.0212 0.8301
vn -0.4695 0.6048 0.6432
vn -0.6896 0.5146 0.5095
vn -0.3811 0.6557 0.6518
vn -0.6648 0.7435 0.0718
vn -0.2154 0.9468 0.2392
vn -0.5561 0.7840 -0.2759
vn -0.1028 0.9618 0.2536
vn 0.0798 0.9266 0.3675
vn -0.1789 0.6893 0.7021
vn 0.5450 0.5724 0.6127
vn 0.3052 0.3990 0.8646
vn -0.4632 0.0821 0.8824
vn -0.1092 0.1111 0.9878
vn -0.5975 -0.0511 0.8002
vn -0.0564 -0.0997 0.9934
vn -0.3059 0.6192 0.7232
vn 0.0911 -0.1481 0.9848
vn -0.8460 -0.3595 0.3937
vn -0.9888 0.0426 0.1434
vn 0.7487 -0.1126 0.6533
vn 0.1315 -0.3360 0.9326
vn 0.8858 0.3947 -0.2442
vn -0.0419 0.9832 -0.1776
vn -0.9697 0.2074 0.1291
vn -0.3287 -0.9425 0.0597
vn -0.5913 -0.8061 -0.0217
vn -0.6404 -0.7505 0.1629
vn -0.5713 -0.6556 0.4938
vn -0.8409 0.1268 0.5261
vn -0.1660 0.9805 0.1051
vn -0.1067 0.0198 0.9941
vn 0.0693 -0.8529 0.5175
vn -0.0179 0.8518 0.5236
vn 0.1960 -0.9790 0.0568
vn 0.9538 -0.2975 -0.0424
vn 0.8938 -0.4401 0.0859
vn 0.7330 -0.0776 0.6757
vn 0.1903 -0.9789 0.0741
vn 0.7274 -0.5452 0.4166
vn -0.0641 -0.9945 -0.0827
vn -0.0363 -0.9180 0.3950
vn 0.1223 -0.9907 -0.0592
vn 0.1232 -0.9609 -0.2480
vn -0.0684 -0.9821 0.1753
vn 0.2199 -0.5546 0.8025
vn -0.0343 -0.9994 0.0047
vn 0.4499 -0.8191 0.3560
vn -0.2462 -0.9622 -0.1161
vn 0.3611 -0.9212 0.1449
vn -0.1344 -0.8001 -0.5847
vn 0.2999 -0.8901 -0.3432
vn 0.7790 -0.4564 0.4299
vn 0.7427 -0.2847 0.6061
vn 0.8765 -0.4726 -0.0920
vn 0.8953 -0.4238 0.1371
vn -0.0069 -0.9992 -0.0392
vn 0.2409 -0.9647 0.1065
vn 0.0256 -0.9988 -0.0413
vn 0.3009 -0.8556 0.4213
vn 0.0455 -0.9902 -0.1323
vn -0.0463 -0.9961 -0.0755
vn -0.0382 -0.9979 -0.0531
vn -0.0135 -0.9902 -0.1390
vn -0.1844 -0.9816 -0.0497
vn -0.2306 -0.9576 -0.1728
vn -0.2137 -0.9381 -0.2724
vn -0.0318 -0.9981 0.0535
vn 0.0720 -0.9964 -0.0447
vn 0.0557 -0.9900 -0.1299
vn -0.1785 -0.9751 0.1315
vn 0.1602 -0.9299 0.3311
vn -0.3429 -0.7609 0.5509
vn -0.7980 -0.2003 0.5684
vn -0.8004 -0.2354 0.5513
vn 0.1471 -0.6106 0.7782
vn 0.5903 -0.6843 0.4281
vn -0.8038 0.2786 0.5256
vn -0.7060 -0.5447 0.4527
vn 0.0039 -0.9602 0.2794
vn -0.9953 0.0382 -0.0890
vn -0.7199 -0.4565 -0.5228
vn -0.9807 0.1920 0.0375
vn -0.4353 0.8874 0.1517
vn -0.7443 0.6677 0.0129
vn -0.7565 0.6410 -0.1298
vn -0.2666 0.9602 -0.0828
vn -0.6394 0.7415 -0.2031
vn -0.7513 0.6451 -0.1393
vn -0.3299 0.8577 -0.3945
vn -0.5499 0.7365 -0.3938
vn -0.7393 0.5295 -0.4160
vn -0.9299 0.0278 -0.3667
vn -0.9893 0.0429 -0.1397
vn -0.9580 0.1707 -0.2303
vn -0.6961 0.0707 -0.7144
vn -0.4409 0.1837 -0.8785
vn -0.3368 0.4347 -0.8352
vn 0.1958 -0.2409 -0.9506
vn -0.1041 -0.1275 -0.9864
vn 0.0018 -0.0579 -0.9983
vn -0.2477 -0.0980 -0.9639
vn -0.1495 0.1556 -0.9764
vn -0.6733 0.1957 -0.7130
vn -0.1975 0.4934 -0.8471
vn -0.9388 -0.0052 -0.3445
vn -0.5802 0.5455 -0.6048
vn -0.1548 0.8373 -0.5243
vn -0.7665 0.5569 -0.3198
vn -0.9933 0.0081 -0.1153
vn -0.8755 0.4670 -0.1238
vn -0.9839 0.0517 -0.1713
vn -0.6068 0.6613 -0.4411
vn -0.2261 0.9494 -0.2180
vn -0.0869 0.9726 -0.2154
vn -0.0958 0.7298 -0.6769
vn -0.0675 0.1135 -0.9912
vn -0.6468 0.1261 -0.7521
vn -0.0365 0.8752 -0.4824
vn -0.0281 0.7195 -0.6940
vn -0.0432 0.9681 -0.2467
vn 0.1347 0.8476 -0.5133
vn 0.4677 0.3708 -0.8024
vn 0.1387 0.5200 -0.8429
vn 0.3146 0.1110 -0.9427
vn 0.6195 0.0113 -0.7849
vn 0.5356 0.7556 -0.3772
vn 0.8967 0.3141 -0.3120
vn 0.9706 0.0008 -0.2408
vn 0.7775 0.2655 -0.5701
vn 0.6167 -0.0950 -0.7815
vn 0.4079 -0.0995 -0.9076
vn 0.5933 -0.3389 -0.7301
vn 0.3778 -0.4928 -0.7838
vn 0.3937 -0.2509 -0.8843
vn 0.1756 -0.1416 -0.9742
vn 0.4283 0.6767 -0.5988
vn 0.5153 0.8570 -0.0054
vn 0.8798 0.4398 0.1802
vn 0.9431 0.0592 0.3271
vn 0.8361 0.1513 0.5273
vn 0.7889 0.2925 0.5405
vn 0.4265 0.8454 0.3216
vn 0.7318 0.6796 0.0513
vn 0.7100 0.4236 -0.5625
vn 0.6264 0.7042 0.3343
vn 0.2172 0.6528 0.7257
vn 0.3585 0.6275 0.6911
vn 0.6854 0.4449 0.5765
vn 0.7498 0.3393 0.5680
vn 0.2328 0.4608 0.8564
vn 0.3838 0.2584 0.8865
vn 0.5447 0.1227 0.8296
vn 0.3209 0.2038 0.9249
vn 0.5037 -0.1707 0.8468
vn 0.8833 0.1229 0.4524
vn 0.8029 -0.4257 0.4173
vn 0.2973 -0.7011 0.6481
vn 0.2516 -0.8403 0.4802
vn 0.3130 -0.9298 0.1938
vn 0.9935 0.0706 0.0895
vn 0.8294 -0.5579 -0.0285
vn 0.2853 -0.9465 -0.1507
vn 0.0025 -1.0000 0.0057
vn 0.0593 -0.9916 -0.1152
vn 0.0761 -0.9878 0.1361
vn 0.1571 -0.9874 -0.0211
vn 0.0448 -0.9989 0.0169
vn 0.2569 -0.9154 0.3099
vn 0.2570 -0.8170 -0.5161
vn 0.2072 -0.7681 -0.6059
vn 0.9147 -0.3814 -0.1334
vn 0.3858 -0.7756 0.4996
vn -0.3893 -0.8730 0.2939
vn -0.3482 -0.8451 0.4057
vn 0.5342 -0.7172 0.4476
vn -0.0142 -0.9984 0.0548
vn -0.2596 0.9362 -0.2371
vn -0.0562 -0.3287 -0.9428
vn 0.5430 0.5475 0.6367
vn 0.2973 -0.8847 0.3591
vn -0.2160 -0.9062 -0.3634
vn -0.0761 -0.9889 -0.1273
vn 0.0185 -0.9955 -0.0925
vn -0.6434 -0.4250 -0.6367
vn -0.7498 0.0799 -0.6568
vn -0.3520 -0.6727 -0.6508
vn -0.1080 -0.9926 -0.0549
vn -0.5365 -0.6011 -0.5924
vn -0.7177 -0.5969 -0.3586
vn -0.4317 -0.8892 -0.1515
vn -0.3063 -0.7166 -0.6266
vn 0.0855 -0.9744 -0.2078
vn 0.0551 -0.9060 -0.4197
vn 0.1084 -0.9820 0.1547
vn 0.1499 -0.9885 0.0216
vn 0.0282 -0.9943 0.1027
vn -0.0231 -0.9796 -0.1998
vn -0.1124 -0.9921 0.0553
vn 0.1201 -0.9749 -0.1873
vn -0.0840 -0.9474 -0.3087
vn -0.4621 -0.6029 -0.6503
vn 0.3114 -0.9275 -0.2069
vn -0.3278 -0.6997 -0.6348
vn -0.1569 -0.6794 -0.7167
vn -0.0459 -0.9294 -0.3661
vn 0.0843 -0.6223 -0.7782
vn 0.0475 -0.9585 -0.2811
vn 0.3505 -0.7527 -0.5574
vn 0.6284 -0.7712 0.1018
vn -0.6156 -0.1531 -0.7730
vn -0.7069 0.2857 -0.6470
vn -0.8957 -0.0626 -0.4402
vn -0.9386 0.1685 -0.3011
vn -0.0662 0.8455 -0.5298
vn 0.3004 -0.3035 -0.9042
vn 0.7872 0.3256 0.5238
vn 0.9401 -0.1865 -0.2853
vn 0.7357 -0.4719 -0.4859
vn 0.4864 -0.1228 -0.8651
vn 0.9699 0.0046 -0.2436
vn 0.8838 0.0224 0.4673
vn 0.5407 -0.1585 0.8261
vn 0.2384 -0.3875 0.8905
vn 0.8552 0.1032 0.5079
vn 0.5314 0.3556 0.7689
vn 0.7355 0.5404 0.4086
vn 0.4277 0.7465 0.5097
vn 0.5065 0.7459 0.4325
vn 0.8927 0.1215 0.4340
vn 0.4825 0.6693 0.5650
vn 0.4877 -0.0545 0.8713
vn 0.8636 0.3013 0.4043
vn 0.6660 0.3734 0.6458
vn 0.8363 -0.0012 0.5483
vn 0.8117 0.0372 0.5829
vn 0.6194 -0.0585 0.7829
vn 0.3804 0.3088 0.8717
vn 0.5794 -0.0244 0.8147
vn 0.4158 0.1895 0.8895
vn 0.3141 0.6456 0.6961
vn 0.1203 0.7978 0.5908
vn 0.1763 0.7720 0.6106
vn 0.1215 0.8328 0.5400
vn 0.5283 0.5449 0.6511
vn 0.7074 0.4185 0.5696
vn 0.8909 0.3053 0.3362
vn 0.8137 0.1776 0.5535
vn 0.9775 0.0927 0.1896
vn 0.7568 0.0634 0.6505
vn 0.9858 -0.0855 0.1448
vn 0.9501 0.2051 0.2349
vn 0.9855 -0.0475 -0.1628
vn 0.5042 -0.5809 0.6390
vn 0.8641 0.3567 -0.3551
vn 0.9410 0.1084 0.3206
vn 0.7448 -0.4369 0.5044
vn 0.9179 0.2581 0.3014
vn 0.8076 0.0910 0.5827
vn 0.8032 0.0749 0.5909
vn 0.4957 0.6103 0.6178
vn 0.8194 0.0979 0.5648
vn 0.4576 0.7653 0.4527
vn -0.0190 0.9223 0.3861
vn 0.1015 0.9262 0.3631
vn 0.5276 0.6746 0.5163
vn 0.0219 0.9989 -0.0419
vn 0.7658 0.6380 0.0810
vn -0.0692 0.9938 -0.0876
vn -0.5703 0.6593 0.4900
vn -0.6508 0.7592 -0.0079
vn -0.1394 0.8852 -0.4439
vn -0.6403 0.7111 -0.2905
vn -0.0727 0.7498 -0.6577
vn -0.1237 0.3475 -0.9295
vn -0.5753 0.4464 -0.6854
vn -0.0419 0.1335 -0.9902
vn 0.0288 0.1067 -0.9939
vn 0.6919 0.0421 -0.7208
vn 0.6525 0.1490 -0.7430
vn 0.5767 0.5681 -0.5870
vn 0.5022 0.7087 -0.4956
vn 0.9777 0.1582 0.1378
vn 0.8973 0.3982 0.1906
vn 0.9899 0.0096 0.1413
vn 0.9054 0.3746 0.1996
vn 0.3983 0.9039 -0.1558
vn 0.1997 0.5436 0.8153
vn 0.7937 0.4097 0.4496
vn 0.0759 0.6695 0.7389
vn 0.5957 0.5618 0.5740
vn 0.0310 0.4361 0.8994
vn 0.6401 0.3191 0.6989
vn 0.8863 0.4238 0.1870
vn 0.7916 0.4899 0.3652
vn 0.9083 0.1553 0.3883
vn 0.7068 -0.0099 0.7073
vn 0.0214 0.0147 0.9997
vn 0.9584 -0.0761 0.2752
vn 0.9987 0.0315 -0.0398
vn 0.9864 0.1625 0.0241
vn 0.8435 0.3680 -0.3912
vn 0.9132 0.1303 -0.3862
vn 0.8797 0.4688 0.0798
vn 0.9370 0.3232 -0.1324
vn 0.8838 -0.1277 -0.4501
vn 0.8721 0.2596 -0.4147
vn 0.8542 0.4689 -0.2248
vn 0.8042 0.5623 0.1926
vt 0.208821 0.501110
vt 0.202927 0.497240
vt 0.205593 0.495350
vt 0.211833 0.499206
vt 0.206457 0.503015
vt 0.200047 0.498399
vt 0.212010 0.504052
vt 0.210785 0.507218
vt 0.215685 0.502228
vt 0.215443 0.497568
vt 0.219345 0.500431
vt 0.209161 0.493285
vt 0.201195 0.489081
vt 0.204297 0.487084
vt 0.197988 0.490697
vt 0.195828 0.482745
vt 0.198487 0.480795
vt 0.201741 0.478042
vt 0.193472 0.474294
vt 0.196705 0.472092
vt 0.200200 0.469017
vt 0.911009 0.896363
vt 0.915197 0.896700
vt 0.914962 0.906604
vt 0.911275 0.906096
vt 0.912397 0.916150
vt 0.915248 0.915661
vt 0.907158 0.915062
vt 0.906607 0.905268
vt 0.906032 0.896371
vt 0.899452 0.904087
vt 0.899605 0.912980
vt 0.899601 0.896122
vt 0.888260 0.903616
vt 0.891814 0.894869
vt 0.891005 0.911922
vt 0.883462 0.910824
vt 0.881374 0.904299
vt 0.886542 0.892891
vt 0.885010 0.898127
vt 0.880073 0.899475
vt 0.874603 0.905279
vt 0.875451 0.899204
vt 0.876824 0.910986
vt 0.875216 0.894107
vt 0.881609 0.893384
vt 0.874656 0.889021
vt 0.882196 0.887049
vt 0.888660 0.887752
vt 0.894245 0.889226
vt 0.890093 0.882896
vt 0.883434 0.882047
vt 0.896819 0.884782
vt 0.899013 0.890845
vt 0.902916 0.889014
vt 0.900589 0.880640
vt 0.907492 0.887882
vt 0.893486 0.877980
vt 0.905943 0.878957
vt 0.912770 0.886697
vt 0.898758 0.873332
vt 0.043561 0.802804
vt 0.043746 0.797413
vt 0.049463 0.800526
vt 0.050427 0.806924
vt 0.048644 0.811515
vt 0.040178 0.808365
vt 0.192002 0.466590
vt 0.194545 0.463688
vt 0.045437 0.815960
vt 0.037516 0.812283
vt 0.056824 0.815507
vt 0.052480 0.820659
vt 0.059436 0.810930
vt 0.067571 0.813190
vt 0.062048 0.819439
vt 0.057148 0.824982
vt 0.046602 0.825984
vt 0.041236 0.821204
vt 0.051395 0.830194
vt 0.047214 0.832566
vt 0.042319 0.829831
vt 0.037014 0.824829
vt 0.216668 0.454746
vt 0.211414 0.450772
vt 0.224534 0.448493
vt 0.227231 0.454343
vt 0.233473 0.450083
vt 0.234511 0.454832
vt 0.240605 0.454997
vt 0.238259 0.448024
vt 0.242263 0.463794
vt 0.236566 0.463205
vt 0.228512 0.462191
vt 0.230469 0.472023
vt 0.237541 0.472835
vt 0.243102 0.471517
vt 0.220372 0.470734
vt 0.218141 0.461521
vt 0.210047 0.464232
vt 0.208985 0.458962
vt 0.211680 0.471456
vt 0.204527 0.459113
vt 0.204459 0.466686
vt 0.199446 0.459306
vt 0.205556 0.450510
vt 0.034536 0.816974
vt 0.206011 0.475087
vt 0.208675 0.484271
vt 0.214009 0.481207
vt 0.212761 0.490579
vt 0.217695 0.487975
vt 0.222122 0.479260
vt 0.221925 0.485316
vt 0.231254 0.481253
vt 0.227902 0.487622
vt 0.234858 0.485601
vt 0.231888 0.490604
vt 0.236356 0.479456
vt 0.238035 0.482437
vt 0.235961 0.489637
vt 0.234579 0.495083
vt 0.237717 0.489403
vt 0.238225 0.486920
vt 0.240319 0.484628
vt 0.240489 0.478273
vt 0.241785 0.480872
vt 0.243919 0.483561
vt 0.244839 0.484572
vt 0.244301 0.485425
vt 0.241485 0.487310
vt 0.986560 0.488796
vt 0.991008 0.488773
vt 0.985487 0.491836
vt 0.983438 0.490322
vt 0.986565 0.486595
vt 0.986426 0.484589
vt 0.979166 0.491370
vt 0.980723 0.492821
vt 0.976879 0.490045
vt 0.981762 0.488352
vt 0.984570 0.488228
vt 0.245595 0.480349
vt 0.245683 0.483673
vt 0.969320 0.491483
vt 0.971513 0.489019
vt 0.961595 0.489797
vt 0.966176 0.486826
vt 0.961333 0.498469
vt 0.951607 0.497149
vt 0.967425 0.497924
vt 0.972270 0.492490
vt 0.973768 0.486620
vt 0.977598 0.486406
vt 0.968847 0.483546
vt 0.962945 0.484923
vt 0.962829 0.482311
vt 0.960291 0.485548
vt 0.958817 0.481941
vt 0.233003 0.513427
vt 0.230628 0.512693
vt 0.233136 0.508232
vt 0.234530 0.509987
vt 0.957289 0.488613
vt 0.227497 0.519153
vt 0.226114 0.518256
vt 0.950819 0.494778
vt 0.228792 0.510708
vt 0.231590 0.506654
vt 0.224153 0.514849
vt 0.224502 0.521199
vt 0.219523 0.516836
vt 0.084256 0.830456
vt 0.090109 0.836792
vt 0.083729 0.846461
vt 0.077847 0.837618
vt 0.097539 0.839990
vt 0.091550 0.847593
vt 0.071683 0.842539
vt 0.073649 0.850719
vt 0.072478 0.830322
vt 0.079530 0.824076
vt 0.066905 0.835514
vt 0.074198 0.818856
vt 0.067258 0.824431
vt 0.062008 0.829780
vt 0.082270 0.813729
vt 0.087973 0.816843
vt 0.092130 0.821691
vt 0.077017 0.808583
vt 0.074519 0.804976
vt 0.068989 0.807539
vt 0.061902 0.808161
vt 0.063675 0.802443
vt 0.069398 0.802604
vt 0.072979 0.801626
vt 0.052456 0.796042
vt 0.068348 0.797562
vt 0.071322 0.799006
vt 0.062786 0.792987
vt 0.070969 0.792690
vt 0.056613 0.789359
vt 0.049105 0.787899
vt 0.052375 0.786366
vt 0.045078 0.787850
vt 0.049682 0.778038
vt 0.055062 0.780094
vt 0.046739 0.776880
vt 0.058993 0.769212
vt 0.059814 0.773451
vt 0.058214 0.766425
vt 0.523336 0.936037
vt 0.523181 0.942147
vt 0.516493 0.937716
vt 0.517195 0.931300
vt 0.043535 0.776669
vt 0.040962 0.787080
vt 0.531245 0.937955
vt 0.531053 0.946405
vt 0.074314 0.765840
vt 0.070226 0.770331
vt 0.093795 0.767179
vt 0.088499 0.774001
vt 0.077074 0.760147
vt 0.081255 0.774851
vt 0.538484 0.937477
vt 0.540536 0.947319
vt 0.530431 0.931819
vt 0.535683 0.930081
vt 0.524310 0.928873
vt 0.529918 0.926067
vt 0.533999 0.924053
vt 0.525861 0.921840
vt 0.518549 0.923786
vt 0.520465 0.916184
vt 0.513169 0.920718
vt 0.514031 0.915359
vt 0.511920 0.928042
vt 0.886710 0.876507
vt 0.891182 0.871125
vt 0.871328 0.881367
vt 0.876478 0.877459
vt 0.527052 0.911528
vt 0.530706 0.918485
vt 0.537547 0.915280
vt 0.535400 0.910675
vt 0.859456 0.887483
vt 0.860626 0.882811
vt 0.868699 0.885915
vt 0.541185 0.921323
vt 0.543911 0.908930
vt 0.546188 0.913141
vt 0.549789 0.919256
vt 0.554859 0.924796
vt 0.543965 0.928328
vt 0.546983 0.935265
vt 0.558364 0.932242
vt 0.557733 0.917019
vt 0.562285 0.920107
vt 0.567621 0.926921
vt 0.569702 0.935875
vt 0.559824 0.941574
vt 0.549114 0.945118
vt 0.562883 0.952161
vt 0.554789 0.957064
vt 0.570128 0.947209
vt 0.886542 0.572528
vt 0.884590 0.577457
vt 0.874433 0.567147
vt 0.878969 0.563343
vt 0.877375 0.551866
vt 0.871763 0.555093
vt 0.866920 0.555315
vt 0.868405 0.563470
vt 0.849117 0.934484
vt 0.856043 0.928944
vt 0.857585 0.935839
vt 0.849970 0.940736
vt 0.868216 0.544987
vt 0.876622 0.540930
vt 0.885465 0.548740
vt 0.885187 0.561820
vt 0.888615 0.537684
vt 0.190131 0.535878
vt 0.191588 0.530528
vt 0.194400 0.534842
vt 0.192800 0.539846
vt 0.181027 0.531424
vt 0.189942 0.524742
vt 0.200701 0.519108
vt 0.198356 0.527903
vt 0.198028 0.534023
vt 0.204520 0.529723
vt 0.208087 0.525155
vt 0.201911 0.533978
vt 0.196872 0.540140
vt 0.203066 0.541136
vt 0.209769 0.529295
vt 0.210393 0.533306
vt 0.915473 0.550000
vt 0.920058 0.553777
vt 0.912448 0.559436
vt 0.906398 0.550089
vt 0.893070 0.551596
vt 0.898495 0.542964
vt 0.900559 0.559219
vt 0.905582 0.568124
vt 0.915867 0.569838
vt 0.905668 0.574390
vt 0.216329 0.529719
vt 0.217161 0.538420
vt 0.211393 0.540438
vt 0.096631 0.828677
vt 0.102343 0.819554
vt 0.106907 0.826473
vt 0.101196 0.834583
vt 0.916196 0.578672
vt 0.908247 0.580779
vt 0.896329 0.577876
vt 0.895504 0.571875
vt 0.896589 0.585576
vt 0.905024 0.584123
vt 0.913814 0.585255
vt 0.910409 0.586292
vt 0.898504 0.586358
vt 0.918853 0.582590
vt 0.898127 0.590317
vt 0.895118 0.591278
vt 0.898990 0.587709
vt 0.886855 0.594301
vt 0.885108 0.585505
vt 0.900261 0.588338
vt 0.902229 0.589293
vt 0.899891 0.586875
vt 0.114083 0.806062
vt 0.108923 0.807994
vt 0.110819 0.805715
vt 0.114751 0.805042
vt 0.114083 0.803050
vt 0.117198 0.802490
vt 0.119996 0.804381
vt 0.109192 0.804408
vt 0.106176 0.806816
vt 0.105735 0.804837
vt 0.104814 0.808309
vt 0.103983 0.806401
vt 0.100246 0.808176
vt 0.099604 0.806099
vt 0.106015 0.803352
vt 0.895299 0.602838
vt 0.892062 0.597411
vt 0.897550 0.594323
vt 0.899812 0.598247
vt 0.089684 0.807877
vt 0.091520 0.803727
vt 0.094844 0.810761
vt 0.098436 0.813368
vt 0.087013 0.799353
vt 0.096737 0.798986
vt 0.082573 0.803571
vt 0.079508 0.797460
vt 0.084013 0.792876
vt 0.074941 0.789196
vt 0.074034 0.797698
vt 0.079691 0.785369
vt 0.087785 0.784618
vt 0.090316 0.791759
vt 0.095760 0.784292
vt 0.095567 0.790913
vt 0.099688 0.789219
vt 0.098565 0.790779
vt 0.887809 0.599771
vt 0.883128 0.603359
vt 0.883711 0.610598
vt 0.888690 0.605808
vt 0.546235 0.955477
vt 0.072760 0.779082
vt 0.065608 0.776607
vt 0.068088 0.785445
vt 0.060558 0.782928
vt 0.109823 0.803419
vt 0.114655 0.801499
vt 0.120308 0.800698
vt 0.120245 0.801997
vt 0.124099 0.802188
vt 0.122511 0.802524
vt 0.901803 0.589332
vt 0.900346 0.591740
vt 0.122545 0.803608
vt 0.124311 0.804739
vt 0.893225 0.565168
vt 0.888305 0.567385
vt 0.889950 0.560424
vt 0.213657 0.524535
vt 0.212848 0.516321
vt 0.210698 0.522077
vt 0.209414 0.526592
vt 0.207086 0.512123
vt 0.217863 0.510719
vt 0.221037 0.511521
vt 0.223911 0.506214
vt 0.220922 0.506762
vt 0.217910 0.505349
vt 0.219498 0.507282
vt 0.215433 0.506178
vt 0.220820 0.503610
vt 0.226051 0.501817
vt 0.223870 0.498668
vt 0.219681 0.495342
vt 0.228384 0.495180
vt 0.231689 0.498691
vt 0.223917 0.491787
vt 0.962352 0.479246
vt 0.966340 0.478913
vt 0.962044 0.477284
vt 0.964331 0.476406
vt 0.230179 0.501241
vt 0.228268 0.502501
vt 0.228502 0.503505
vt 0.231804 0.502918
vt 0.229809 0.505357
vt 0.226354 0.508662
vt 0.223564 0.511757
vt 0.232970 0.503579
vt 0.958175 0.478935
vt 0.202184 0.507234
vt 0.194614 0.512759
vt 0.197408 0.504055
vt 0.192987 0.509937
vt 0.180528 0.520859
vt 0.182899 0.516355
vt 0.879324 0.940304
vt 0.874031 0.936992
vt 0.876170 0.934573
vt 0.878576 0.936879
vt 0.874607 0.927831
vt 0.876180 0.930807
vt 0.872784 0.922409
vt 0.867336 0.929008
vt 0.172624 0.525643
vt 0.862737 0.918346
vt 0.869077 0.915100
vt 0.861336 0.925080
vt 0.874992 0.915429
vt 0.870004 0.903929
vt 0.866156 0.909743
vt 0.863792 0.914437
vt 0.863598 0.905167
vt 0.860196 0.912177
vt 0.866733 0.899150
vt 0.872173 0.898225
vt 0.870123 0.894922
vt 0.863221 0.895749
vt 0.868522 0.892271
vt 0.859601 0.902268
vt 0.860717 0.892597
vt 0.866089 0.889390
vt 0.856632 0.901686
vt 0.852443 0.896737
vt 0.855965 0.910891
vt 0.853956 0.910647
vt 0.857866 0.908991
vt 0.550939 0.903437
vt 0.552126 0.906840
vt 0.544939 0.904893
vt 0.849931 0.889560
vt 0.555428 0.902090
vt 0.556643 0.905331
vt 0.858770 0.914646
vt 0.853444 0.920553
vt 0.850883 0.924309
vt 0.571108 0.915234
vt 0.561727 0.911898
vt 0.562682 0.906452
vt 0.554548 0.911330
vt 0.882872 0.915577
vt 0.879508 0.920801
vt 0.891140 0.917053
vt 0.889570 0.921105
vt 0.899421 0.919832
vt 0.897367 0.925321
vt 0.879451 0.925113
vt 0.888084 0.924669
vt 0.893485 0.928866
vt 0.903094 0.928593
vt 0.905716 0.923044
vt 0.897294 0.934040
vt 0.911720 0.924683
vt 0.908481 0.932019
vt 0.900238 0.936872
vt 0.884030 0.936820
vt 0.887087 0.932165
vt 0.878831 0.935266
vt 0.879706 0.931274
vt 0.885334 0.927879
vt 0.880004 0.928695
vt 0.876590 0.931905
vt 0.876891 0.933909
vt 0.196567 0.491897
vt 0.061052 0.838904
vt 0.056236 0.833333
vt 0.248072 0.468844
vt 0.247208 0.461470
vt 0.248238 0.474747
vt 0.982181 0.485128
vt 0.980926 0.481261
vt 0.984246 0.486674
s 1
usemtl abyss_chancel_background_pbr
f 1/1/1 2/2/2 8/3/3 5/4/4
f 1/1/1 3/5/5 387/6/6 2/2/2
f 3/5/5 1/1/1 4/7/7 299/8/8
f 1/1/1 5/4/4 6/9/9 4/7/7
f 7/10/10 305/11/11 6/9/9 5/4/4
f 8/3/3 9/12/12 7/10/10 5/4/4
f 8/3/3 10/13/13 12/14/14 9/12/12
f 2/2/2 11/15/15 10/13/13 8/3/3
f 11/15/15 16/16/16 13/17/17 10/13/13
f 13/17/17 15/18/18 12/14/14 10/13/13
f 17/19/19 14/20/20 13/17/17 16/16/16
f 14/20/20 83/21/21 15/18/18 13/17/17
f 20/22/22 17/23/19 16/24/16 18/25/23
f 19/26/24 18/25/23 16/24/16 11/27/15
f 22/28/25 21/29/26 18/25/23 19/26/24
f 23/30/27 20/22/22 18/25/23 21/29/26
f 24/31/28 21/29/26 22/28/25 26/32/29
f 25/33/30 23/30/27 21/29/26 24/31/28
f 25/33/30 24/31/28 27/34/31 30/35/32
f 26/32/29 28/36/33 27/34/31 24/31/28
f 33/37/34 31/38/35 27/34/31 28/36/33
f 39/39/36 30/35/32 27/34/31 29/40/37
f 34/41/38 29/40/37 27/34/31 31/38/35
f 34/41/38 31/38/35 32/42/39 35/43/40
f 31/38/35 33/37/34 364/44/41 32/42/39
f 35/43/40 37/45/42 36/46/43 34/41/38
f 36/46/43 39/39/36 29/40/37 34/41/38
f 363/47/44 38/48/45 36/46/43 37/45/42
f 39/39/36 36/46/43 38/48/45 40/49/46
f 39/39/36 40/49/46 42/50/47 30/35/32
f 41/51/48 40/49/46 38/48/45 176/52/49
f 40/49/46 41/51/48 44/53/50 42/50/47
f 30/35/32 42/50/47 43/54/51 25/33/30
f 44/53/50 45/55/52 43/54/51 42/50/47
f 45/55/52 44/53/50 46/56/53 47/57/54
f 41/51/48 48/58/55 46/56/53 44/53/50
f 46/56/53 49/59/56 52/60/57 47/57/54
f 50/61/58 49/59/56 46/56/53 48/58/55
f 49/62/56 50/63/58 146/64/59 51/65/60
f 51/65/60 54/66/61 52/67/57 49/62/56
f 20/22/22 47/57/54 52/60/57 17/23/19
f 14/20/20 17/19/19 52/68/57 53/69/62
f 55/70/63 53/71/62 52/67/57 54/66/61
f 54/66/61 56/72/64 59/73/65 55/70/63
f 51/65/60 57/74/66 56/72/64 54/66/61
f 56/72/64 57/74/66 140/75/67 58/76/68
f 58/76/68 60/77/69 59/73/65 56/72/64
f 59/73/65 61/78/70 63/79/71 55/70/63
f 62/80/72 61/78/70 59/73/65 60/77/69
f 61/78/70 62/80/72 67/81/73 64/82/74
f 64/82/74 65/83/75 63/79/71 61/78/70
f 78/84/76 65/85/75 64/86/74 66/87/77
f 66/87/77 64/86/74 67/88/73 68/89/78
f 69/90/79 68/89/78 67/88/73 62/91/72
f 68/89/78 69/90/79 72/92/80 70/93/81
f 66/87/77 68/89/78 70/93/81 73/94/82
f 74/95/83 73/94/82 70/93/81 71/96/84
f 71/96/84 70/93/81 72/92/80 389/97/85
f 77/98/86 75/99/87 73/94/82 74/95/83
f 78/84/76 66/87/77 73/94/82 75/99/87
f 75/99/87 76/100/88 79/101/89 78/84/76
f 75/99/87 77/98/86 85/102/90 76/100/88
f 65/85/75 78/84/76 79/101/89 80/103/91
f 81/104/92 80/103/91 79/101/89 76/100/88
f 80/103/91 81/104/92 83/21/21 82/105/93
f 65/85/75 80/103/91 82/105/93 63/106/71
f 53/69/62 82/105/93 83/21/21 14/20/20
f 55/70/63 63/79/71 82/107/93 53/71/62
f 81/104/92 84/108/94 15/18/18 83/21/21
f 81/104/92 76/100/88 85/102/90 84/108/94
f 86/109/95 84/108/94 85/102/90 88/110/96
f 84/108/94 86/109/95 12/14/14 15/18/18
f 12/14/14 86/109/95 87/111/97 9/12/12
f 88/110/96 89/112/98 87/111/97 86/109/95
f 88/110/96 90/113/99 91/114/100 89/112/98
f 90/113/99 88/110/96 85/102/90 77/98/86
f 92/115/101 93/116/102 91/114/100 90/113/99
f 90/113/99 77/98/86 74/95/83 92/115/101
f 93/116/102 92/115/101 95/117/103 96/118/104
f 71/96/84 94/119/105 92/115/101 74/95/83
f 94/119/105 99/120/106 95/117/103 92/115/101
f 95/117/103 97/121/107 116/122/108 96/118/104
f 391/123/109 97/121/107 95/117/103 98/124/110
f 101/125/111 98/124/110 95/117/103 99/120/106
f 99/120/106 94/119/105 390/126/112 100/127/113
f 101/125/111 99/120/106 100/127/113 102/128/114
f 101/125/111 102/128/114 106/129/115 103/130/116
f 103/130/116 105/131/117 98/124/110 101/125/111
f 104/132/118 103/133/116 106/134/115 107/135/119
f 103/133/116 104/132/118 395/136/120 105/137/117
f 109/138/121 107/135/119 106/134/115 102/139/114
f 107/135/119 109/138/121 110/140/122 108/141/123
f 107/135/119 108/141/123 394/142/124 104/132/118
f 102/128/114 100/127/113 111/143/125 109/144/121
f 111/145/125 114/146/126 110/140/122 109/138/121
f 114/146/126 111/145/125 112/147/127 115/148/128
f 111/145/125 113/149/129 127/150/130 112/147/127
f 390/151/112 113/149/129 111/145/125 100/152/113
f 97/153/107 391/154/109 110/140/122 114/146/126
f 114/146/126 115/148/128 116/155/108 97/153/107
f 117/156/131 118/157/132 116/155/108 115/148/128
f 112/147/127 119/158/133 117/156/131 115/148/128
f 120/159/134 118/157/132 117/156/131 119/158/133
f 121/160/135 123/161/136 120/162/134 119/163/133
f 112/147/127 121/164/135 119/158/133
f 122/165/137 125/166/138 123/161/136 121/160/135
f 121/164/135 112/147/127 127/150/130 122/167/137
f 124/168/139 320/169/140 120/162/134 123/161/136
f 126/170/141 124/168/139 123/161/136 125/166/138
f 125/166/138 127/171/130 129/172/142 126/170/141
f 127/171/130 125/166/138 122/165/137
f 131/173/143 128/174/144 127/175/130 130/176/145
f 128/174/144 289/177/146 129/178/142 127/175/130
f 132/179/147 130/176/145 127/175/130 113/180/129
f 131/173/143 130/176/145 133/181/148 136/182/149
f 130/176/145 132/179/147 135/183/150 133/181/148
f 138/184/151 136/182/149 133/181/148 134/185/152
f 133/181/148 135/183/150 388/186/153 134/185/152
f 139/187/154 137/188/155 136/182/149 138/184/151
f 274/189/156 131/173/143 136/182/149 137/188/155
f 139/187/154 138/184/151 140/75/67 141/190/157
f 134/185/152 58/76/68 140/75/67 138/184/151
f 144/191/158 141/190/157 140/75/67 142/192/159
f 145/193/160 142/192/159 140/75/67 57/74/66
f 142/192/159 145/193/160 147/194/161 143/195/162
f 142/192/159 143/195/162 271/196/163 144/191/158
f 57/74/66 51/65/60 146/64/59 145/193/160
f 147/194/161 145/193/160 146/64/59 150/197/164
f 147/194/161 148/198/165 272/199/166 143/195/162
f 149/200/167 270/201/168 148/198/165 147/194/161
f 149/200/167 147/194/161 150/197/164 151/202/169
f 150/197/164 152/203/170 153/204/171 151/202/169
f 150/197/164 146/64/59 154/205/172 152/203/170
f 155/206/173 156/207/174 153/204/171 152/203/170
f 155/206/173 152/203/170 154/205/172 158/208/175
f 155/206/173 157/209/176 269/210/177 156/207/174
f 157/209/176 155/206/173 158/208/175 160/211/178
f 161/212/179 160/213/178 158/214/175 159/215/180
f 159/216/180 158/208/175 154/205/172 177/217/181
f 161/212/179 166/218/182 162/219/183 160/213/178
f 157/209/176 160/211/178 162/220/183 164/221/184
f 261/222/185 163/223/186 162/220/183 165/224/187
f 264/225/188 164/221/184 162/220/183 163/223/186
f 167/226/189 165/227/187 162/219/183 166/218/182
f 168/228/190 169/229/191 167/226/189 166/218/182
f 168/228/190 166/218/182 161/212/179 171/230/192
f 169/229/191 168/228/190 170/231/193 182/232/194
f 171/230/192 172/233/195 170/231/193 168/228/190
f 172/233/195 171/230/192 173/234/196 174/235/197
f 161/212/179 159/215/180 173/234/196 171/230/192
f 174/235/197 173/234/196 175/236/198 176/237/49
f 159/215/180 177/238/181 175/236/198 173/234/196
f 176/52/49 175/239/198 48/58/55 41/51/48
f 177/240/181 50/61/58 48/58/55 175/239/198
f 50/63/58 177/217/181 154/205/172 146/64/59
f 176/52/49 38/48/45 178/241/199 174/242/197
f 172/233/195 174/235/197 178/243/199 181/244/200
f 183/245/201 181/244/200 178/243/199 179/246/202
f 346/247/203 179/248/202 178/241/199 180/249/204
f 363/47/44 180/249/204 178/241/199 38/48/45
f 181/244/200 183/245/201 185/250/205 182/232/194
f 181/244/200 182/232/194 170/231/193 172/233/195
f 351/251/206 184/252/207 183/245/201 179/246/202
f 184/252/207 186/253/208 185/250/205 183/245/201
f 186/253/208 189/254/209 187/255/210 185/250/205
f 182/232/194 185/250/205 187/255/210 169/229/191
f 187/255/210 188/256/211 167/226/189 169/229/191
f 189/254/209 191/257/212 188/256/211 187/255/210
f 189/254/209 186/253/208 360/258/213 190/259/214
f 192/260/215 191/257/212 189/254/209 190/259/214
f 191/257/212 192/260/215 196/261/216 193/262/217
f 191/257/212 193/262/217 195/263/218 188/256/211
f 194/264/219 263/265/220 195/263/218 193/262/217
f 194/264/219 193/262/217 196/261/216 197/266/221
f 284/267/222 197/268/221 196/269/216 198/270/223
f 202/271/224 198/270/223 196/269/216 199/272/225
f 200/273/226 199/272/225 196/269/216 192/274/215
f 200/275/226 357/276/227 201/277/228 199/278/225
f 199/272/225 201/279/228 204/280/229 202/271/224
f 198/270/223 202/271/224 203/281/230 286/282/231
f 203/281/230 202/271/224 204/280/229 205/283/232
f 204/284/229 206/285/233 208/286/234 205/287/232
f 201/288/228 207/289/235 206/285/233 204/284/229
f 206/285/233 207/289/235 210/290/236 209/291/237
f 209/291/237 212/292/238 208/286/234 206/285/233
f 211/293/239 209/291/237 210/290/236 293/294/240
f 209/291/237 211/293/239 214/295/241 212/292/238
f 213/296/242 212/292/238 214/295/241 216/297/243
f 213/296/242 205/287/232 208/286/234 212/292/238
f 291/298/244 215/299/245 214/295/241 211/293/239
f 214/300/241 215/301/245 218/302/246 216/303/243
f 288/304/247 213/305/242 216/303/243 217/306/248
f 217/306/248 216/303/243 218/302/246 219/307/249
f 219/307/249 218/302/246 220/308/250 223/309/251
f 215/299/245 221/310/252 220/311/250 218/312/246
f 275/313/253 222/314/254 220/315/250 221/316/252
f 220/308/250 222/317/254 225/318/255 223/309/251
f 224/319/256 282/320/257 219/307/249 223/309/251
f 223/309/251 225/318/255 228/321/258 224/319/256
f 226/322/259 225/318/255 227/323/260 240/324/261
f 226/322/259 231/325/262 228/321/258 225/318/255
f 222/317/254 273/326/263 227/323/260 225/318/255
f 276/327/264 229/328/265 228/321/258 230/329/266
f 228/321/258 229/328/265 263/330/220 194/331/219
f 197/268/221 224/319/256 228/321/258 194/331/219
f 232/332/267 230/329/266 228/321/258 231/325/262
f 234/333/268 232/332/267 231/325/262 233/334/269
f 231/335/262 226/336/259 236/337/270 233/338/269
f 233/338/269 235/339/271 277/340/272 234/341/268
f 235/339/271 233/338/269 236/337/270 237/342/273
f 237/342/273 236/337/270 238/343/274 239/344/275
f 226/336/259 240/345/261 238/343/274 236/337/270
f 241/346/276 239/344/275 238/343/274 240/345/261
f 240/345/261 227/347/260 242/348/277 241/346/276
f 239/344/275 241/346/276 242/348/277 243/349/278
f 245/350/279 262/351/280 243/352/278 242/353/277
f 248/354/281 246/355/282 242/348/277 244/356/283
f 244/356/283 242/348/277 227/347/260 273/357/263
f 247/358/284 245/359/279 242/348/277 246/355/282
f 249/360/285 247/358/284 246/355/282 248/354/281
f 137/188/155 139/187/154 248/354/281 244/356/283
f 141/190/157 249/360/285 248/354/281 139/187/154
f 247/358/284 249/360/285 250/361/286 253/362/287
f 141/190/157 144/191/158 250/361/286 249/360/285
f 270/201/168 252/363/288 250/361/286 251/364/289
f 250/361/286 144/191/158 271/196/163 251/364/289
f 254/365/290 253/362/287 250/361/286 252/363/288
f 256/366/291 255/367/292 253/362/287 254/365/290
f 245/359/279 247/358/284 253/362/287 255/367/292
f 255/367/292 256/366/291 258/368/293 257/369/294
f 245/359/279 255/367/292 257/369/294
f 257/369/294 258/368/293 260/370/295 259/371/296
f 245/359/279 257/369/294 259/371/296
f 245/359/279 259/371/296 260/370/295
f 263/330/220 262/351/280 260/372/295 261/373/185
f 163/374/186 261/373/185 260/372/295 258/375/293
f 245/350/279 260/372/295 262/351/280
f 243/352/278 262/351/280 263/330/220 229/328/265
f 261/376/185 165/227/187 195/263/218 263/265/220
f 264/225/188 163/223/186 258/368/293 256/366/291
f 264/225/188 256/366/291 254/365/290 265/377/297
f 164/221/184 264/225/188 265/377/297 266/378/298
f 267/379/299 265/377/297 254/365/290 252/363/288
f 268/380/300 266/378/298 265/377/297 267/379/299
f 151/202/169 268/380/300 267/379/299 149/200/167
f 270/201/168 149/200/167 267/379/299 252/363/288
f 268/380/300 156/207/174 269/210/177 266/378/298
f 268/380/300 151/202/169 153/204/171 156/207/174
f 164/221/184 266/378/298 269/210/177 157/209/176
f 270/201/168 251/364/289 272/199/166 148/198/165
f 271/196/163 143/195/162 272/199/166 251/364/289
f 244/356/283 273/357/263 274/189/156 137/188/155
f 222/314/254 275/313/253 274/189/156 273/357/263
f 128/174/144 131/173/143 274/189/156 275/313/253
f 275/313/253 221/316/252 289/177/146 128/174/144
f 239/344/275 243/349/278 229/381/265 237/342/273
f 235/339/271 237/342/273 229/381/265 276/382/264
f 276/382/264 278/383/301 277/340/272 235/339/271
f 277/340/272 278/383/301 279/384/302 234/341/268
f 279/384/302 278/383/301 280/385/303 281/386/304
f 276/327/264 230/329/266 280/387/303 278/388/301
f 232/389/267 281/386/304 280/385/303 230/390/266
f 232/389/267 234/341/268 279/384/302 281/386/304
f 284/267/222 282/320/257 224/319/256 197/268/221
f 283/391/305 217/306/248 219/307/249 282/320/257
f 282/320/257 284/267/222 285/392/306 283/391/305
f 198/270/223 286/282/231 285/392/306 284/267/222
f 285/392/306 286/282/231 287/393/307 283/391/305
f 203/281/230 288/304/247 287/393/307 286/282/231
f 217/306/248 283/391/305 287/393/307 288/304/247
f 288/304/247 203/281/230 205/283/232 213/305/242
f 215/299/245 291/298/244 289/394/146 221/310/252
f 294/395/308 129/172/142 289/394/146 290/396/309
f 292/397/310 290/396/309 289/394/146 291/298/244
f 211/293/239 293/294/240 292/397/310 291/298/244
f 290/396/309 292/397/310 293/294/240 210/290/236
f 294/395/308 290/396/309 210/290/236 295/398/311
f 295/398/311 299/8/8 296/399/312 294/395/308
f 296/399/312 297/400/313 129/172/142 294/395/308
f 317/401/314 297/400/313 296/399/312 300/402/315
f 302/403/316 301/404/317 296/399/312 298/405/318
f 4/7/7 298/405/318 296/399/312 299/8/8
f 296/399/312 301/404/317 300/402/315
f 300/402/315 301/404/317 302/403/316 303/406/319
f 303/406/319 302/403/316 6/9/9 305/11/11
f 6/9/9 302/403/316 298/405/318 4/7/7
f 303/406/319 304/407/320 317/401/314 300/402/315
f 305/11/11 306/408/321 304/407/320 303/406/319
f 306/408/321 305/11/11 7/10/10 308/409/322
f 307/410/323 310/411/324 304/407/320 306/408/321
f 307/410/323 306/408/321 308/409/322 309/412/325
f 89/112/98 309/412/325 308/409/322 87/111/97
f 87/111/97 308/409/322 7/10/10 9/12/12
f 309/412/325 89/112/98 91/114/100 93/116/102
f 309/412/325 93/116/102 96/118/104 307/410/323
f 307/410/323 96/118/104 116/122/108 310/411/324
f 311/413/326 310/414/324 116/155/108 118/157/132
f 310/414/324 311/413/326 313/415/327 312/416/328
f 312/417/328 315/418/329 304/407/320 310/411/324
f 314/419/330 312/417/328 313/420/327 316/421/331
f 312/417/328 314/419/330 315/418/329
f 315/418/329 314/419/330 317/401/314 304/407/320
f 316/421/331 318/422/332 317/401/314 314/419/330
f 317/401/314 318/422/332 319/423/333 297/400/313
f 124/168/139 126/170/141 319/423/333 318/422/332
f 124/168/139 318/422/332 316/421/331 320/169/140
f 319/423/333 126/170/141 129/172/142 297/400/313
f 320/169/140 316/421/331 313/420/327 311/424/326
f 311/413/326 118/157/132 120/159/134 320/425/140
f 321/426/334 3/5/5 299/8/8 295/398/311
f 321/426/334 295/398/311 210/290/236 323/427/335
f 322/428/336 321/426/334 323/427/335 324/429/337
f 321/426/334 322/428/336 387/6/6 3/5/5
f 324/429/337 323/427/335 325/430/338 328/431/339
f 210/290/236 207/289/235 325/430/338 323/427/335
f 328/432/339 325/433/338 326/434/340 386/435/341
f 327/436/342 383/437/343 326/434/340 325/433/338
f 331/438/344 327/436/342 325/433/338 329/439/345
f 325/430/338 207/289/235 201/288/228 329/440/345
f 334/441/346 332/442/347 329/439/345 330/443/348
f 330/443/348 329/439/345 201/277/228 357/276/227
f 331/438/344 329/439/345 332/442/347 333/444/349
f 364/44/41 333/444/349 332/442/347 32/42/39
f 338/445/350 32/42/39 332/442/347 335/446/351
f 332/442/347 334/441/346 336/447/352 335/446/351
f 337/448/353 335/446/351 336/447/352 361/449/354
f 335/446/351 337/448/353 340/450/355 338/445/350
f 339/451/356 35/43/40 32/42/39 338/445/350
f 340/450/355 341/452/357 339/451/356 338/445/350
f 341/452/357 340/450/355 342/453/358 343/454/359
f 337/448/353 344/455/360 342/453/358 340/450/355
f 342/453/358 345/456/361 348/457/362 343/454/359
f 347/458/363 345/456/361 342/453/358 344/455/360
f 345/456/361 347/458/363 350/459/364 346/247/203
f 346/247/203 180/249/204 348/457/362 345/456/361
f 363/47/44 343/454/359 348/457/362 180/249/204
f 347/458/363 349/460/365 352/461/366 350/459/364
f 347/458/363 344/455/360 362/462/367 349/460/365
f 352/463/366 353/464/368 351/251/206 350/465/364
f 346/247/203 350/459/364 351/466/206 179/248/202
f 354/467/369 356/468/370 353/464/368 352/463/366
f 349/460/365 355/469/371 354/470/369 352/461/366
f 334/441/346 330/443/348 354/470/369 355/469/371
f 330/443/348 357/276/227 356/471/370 354/470/369
f 200/472/226 358/473/372 356/468/370 357/474/227
f 358/473/372 359/475/373 353/464/368 356/468/370
f 200/472/226 192/260/215 190/259/214 358/473/372
f 358/473/372 190/259/214 360/258/213 359/475/373
f 359/475/373 184/252/207 351/251/206 353/464/368
f 184/252/207 359/475/373 360/258/213 186/253/208
f 355/469/371 361/449/354 336/447/352 334/441/346
f 355/469/371 349/460/365 362/462/367 361/449/354
f 337/448/353 361/449/354 362/462/367 344/455/360
f 341/452/357 343/454/359 363/47/44 37/45/42
f 37/45/42 35/43/40 339/451/356 341/452/357
f 333/444/349 365/476/374 366/477/375 331/438/344
f 365/476/374 333/444/349 364/44/41 33/37/34
f 365/476/374 367/478/376 369/479/377 366/477/375
f 33/37/34 28/36/33 367/478/376 365/476/374
f 369/479/377 367/478/376 368/480/378 371/481/379
f 28/36/33 26/32/29 368/480/378 367/478/376
f 382/482/380 366/477/375 369/479/377 370/483/381
f 372/484/382 370/483/381 369/479/377 371/481/379
f 373/485/383 371/481/379 368/480/378 374/486/384
f 375/487/385 372/484/382 371/481/379 373/485/383
f 387/488/6 322/489/336 373/485/383 374/486/384
f 322/489/336 324/490/337 375/487/385 373/485/383
f 328/432/339 376/491/386 375/487/385 324/490/337
f 378/492/387 372/484/382 375/487/385 376/491/386
f 376/491/386 377/493/388 379/494/389 378/492/387
f 376/491/386 328/432/339 386/435/341 377/493/388
f 380/495/390 378/492/387 379/494/389 381/496/391
f 372/484/382 378/492/387 380/495/390 370/483/381
f 382/482/380 370/483/381 380/495/390 381/496/391
f 383/437/343 381/496/391 379/494/389 384/497/392
f 383/437/343 327/436/342 382/482/380 381/496/391
f 384/497/392 385/498/393 326/434/340 383/437/343
f 385/498/393 384/497/392 379/494/389 377/493/388
f 377/493/388 386/435/341 326/434/340 385/498/393
f 327/436/342 331/438/344 366/477/375 382/482/380
f 368/480/378 26/32/29 22/28/25 374/486/384
f 387/488/6 374/486/384 22/28/25 19/26/24
f 11/15/15 2/2/2 387/6/6 19/499/24
f 195/263/218 165/227/187 167/226/189 188/256/211
f 72/500/80 69/501/79 388/186/153 135/183/150
f 132/502/147 389/97/85 72/92/80 135/503/150
f 134/185/152 388/186/153 60/77/69 58/76/68
f 69/501/79 62/80/72 60/77/69 388/186/153
f 113/504/129 390/126/112 389/97/85 132/502/147
f 94/119/105 71/96/84 389/97/85 390/126/112
f 392/505/394 108/141/123 110/140/122 391/154/109
f 392/505/394 391/154/109 98/506/110 105/137/117
f 392/505/394 105/137/117 395/136/120 393/507/395
f 392/505/394 393/507/395 394/142/124 108/141/123
f 394/142/124 393/507/395 395/136/120 104/132/118
f 45/55/52 47/57/54 20/22/22 23/30/27
f 23/30/27 25/33/30 43/54/51 45/55/52
