# Blender 5.2.0 LTS
# www.blender.org
mtllib terrain-abyss-chancel-object-006.mtl
o terrain-abyss-chancel-object-006
v -0.857908 0.023113 0.057949
v -0.856966 0.022375 0.057290
v -0.858151 0.022690 0.059004
v -0.857908 0.023294 0.056951
v -0.859373 0.023558 0.057995
v -0.859102 0.023616 0.056671
v -0.860860 0.023526 0.057879
v -0.859588 0.022904 0.059104
v -0.859339 0.021437 0.059099
v -0.860984 0.022544 0.058933
v -0.862201 0.022204 0.058391
v -0.860535 0.021260 0.058161
v -0.861479 0.021498 0.057348
v -0.859833 0.020849 0.056502
v -0.858620 0.020836 0.057386
v -0.861034 0.021338 0.055897
v -0.859191 0.021526 0.055043
v -0.857873 0.021211 0.055744
v -0.860692 0.022012 0.054614
v -0.858886 0.023104 0.055186
v -0.857560 0.022652 0.056098
v -0.860465 0.023402 0.055007
v -0.861799 0.023647 0.055054
v -0.860645 0.023852 0.056402
v -0.861992 0.023464 0.056178
v -0.862241 0.022076 0.055694
v -0.862109 0.022948 0.057427
v -0.862210 0.021785 0.056747
v -0.862145 0.022538 0.054681
v -0.856805 0.021107 0.056482
v -0.857423 0.021066 0.058318
v -0.858277 0.021933 0.059586
v -0.856899 0.022200 0.058625
vn 0.9246 0.3769 -0.0557
vn 0.6756 0.4910 -0.5500
vn 0.4988 0.8631 -0.0792
vn 0.4495 0.8656 0.2205
vn 0.3442 0.5452 0.7643
vn 0.8368 0.2434 0.4905
vn 0.0930 0.9348 0.3427
vn -0.1358 0.4946 0.8584
vn 0.2404 0.9666 -0.0891
vn -0.0479 0.9988 -0.0075
vn -0.2539 0.8834 0.3939
vn -0.4412 0.1414 0.8862
vn -0.2917 -0.8293 0.4766
vn -0.1760 -0.6146 0.7690
vn 0.1482 -0.2821 0.9479
vn -0.8457 0.4480 0.2899
vn -0.7749 -0.1513 0.6137
vn -0.5413 -0.8213 0.1801
vn -0.3118 -0.9081 -0.2795
vn -0.1336 -0.9814 -0.1376
vn 0.0139 -0.9969 0.0773
vn 0.4877 -0.5925 -0.6411
vn 0.2188 -0.5201 -0.8256
vn -0.0631 -0.3896 -0.9188
vn 0.3983 0.5513 -0.7331
vn 0.1329 0.6893 -0.7122
vn -0.6631 -0.1139 -0.7398
vn -0.4510 0.7238 -0.5222
vn -0.7136 0.7001 0.0262
vn -0.8700 -0.4368 -0.2286
vn -0.8620 -0.5065 -0.0207
vn 0.7848 -0.5276 -0.3252
vn 0.5453 -0.7263 0.4185
vt 0.829624 0.980860
vt 0.829108 0.981262
vt 0.829139 0.980546
vt 0.829715 0.980148
vt 0.830405 0.980126
vt 0.830145 0.980612
vt 0.829594 0.979561
vt 0.830893 0.979546
vt 0.828693 0.980312
vt 0.653830 0.018626
vt 0.653666 0.019424
vt 0.652964 0.019700
vt 0.653224 0.018647
vt 0.653463 0.017280
vt 0.652852 0.017919
vt 0.651832 0.017759
vt 0.651892 0.016960
vt 0.831264 0.980376
vt 0.830773 0.980341
vt 0.652578 0.018896
vt 0.652435 0.018399
vt 0.651821 0.018541
vt 0.651148 0.019552
vt 0.650439 0.019153
vt 0.650411 0.018103
vt 0.829632 0.981959
vt 0.831281 0.981755
vt 0.830561 0.982489
vt 0.829009 0.982569
vt 0.651070 0.020922
vt 0.651562 0.020389
vt 0.828377 0.981331
vt 0.652399 0.020484
vt 0.652966 0.020909
vt 0.651845 0.019882
vt 0.652280 0.019992
vt 0.652427 0.019503
vt 0.651839 0.019452
vt 0.651936 0.018958
vt 0.829883 0.981473
vt 0.830562 0.981066
s 1
usemtl abyss_chancel_background_pbr
f 2/1/1 21/2/2 4/3/3 1/4/4
f 1/4/4 3/5/5 33/6/6 2/1/1
f 1/4/4 5/7/7 8/8/8 3/5/5
f 5/7/7 1/4/4 4/3/3 6/9/9
f 5/10/7 6/11/9 24/12/10 7/13/11
f 8/14/8 5/10/7 7/13/11 10/15/12
f 8/14/8 10/15/12 12/16/13 9/17/14
f 8/8/8 9/18/14 32/19/15 3/5/5
f 7/13/11 27/20/16 11/21/17 10/15/12
f 12/16/13 10/15/12 11/21/17 13/22/18
f 12/16/13 13/22/18 16/23/19 14/24/20
f 9/17/14 12/16/13 14/24/20 15/25/21
f 18/26/22 15/27/21 14/28/20 17/29/23
f 17/30/23 14/24/20 16/23/19 19/31/24
f 21/2/2 18/26/22 17/29/23 20/32/25
f 22/33/26 20/34/25 17/30/23 19/31/24
f 20/32/25 6/9/9 4/3/3 21/2/2
f 20/34/25 22/33/26 24/12/10 6/11/9
f 19/31/24 29/35/27 23/36/28 22/33/26
f 24/12/10 22/33/26 23/36/28 25/37/29
f 27/20/16 7/13/11 24/12/10 25/37/29
f 25/37/29 26/38/30 28/39/31 27/20/16
f 26/38/30 25/37/29 23/36/28 29/35/27
f 28/39/31 13/22/18 11/21/17 27/20/16
f 16/23/19 13/22/18 28/39/31 26/38/30
f 16/23/19 26/38/30 29/35/27 19/31/24
f 21/2/2 2/1/1 30/40/32 18/26/22
f 15/27/21 18/26/22 30/40/32 31/41/33
f 30/40/32 2/1/1 33/6/6 31/41/33
f 15/27/21 31/41/33 32/19/15 9/18/14
f 32/19/15 31/41/33 33/6/6 3/5/5
