# Blender 5.2.0 LTS
# www.blender.org
mtllib terrain-abyss-chancel-object-023.mtl
o terrain-abyss-chancel-object-023
v -0.758616 0.200146 0.022729
v -0.755548 0.204556 0.020910
v -0.761563 0.200269 0.019289
v -0.761964 0.201181 0.025120
v -0.766384 0.203667 0.021403
v -0.759672 0.206471 0.024633
v -0.762591 0.209903 0.019790
v -0.758029 0.208273 0.014957
v -0.765277 0.212825 0.012113
v -0.763451 0.216416 0.000872
v -0.770378 0.205492 0.014554
v -0.762625 0.211287 0.006830
v -0.763296 0.208675 0.002477
v -0.759193 0.203879 0.012204
v -0.764756 0.210839 -0.011223
v -0.768735 0.204096 0.003031
v -0.765110 0.201707 0.012391
v -0.771275 0.206465 -0.008671
v -0.775985 0.205805 0.007878
v -0.778898 0.205679 -0.006659
v -0.783937 0.205456 0.007478
v -0.779624 0.213975 0.021446
v -0.775122 0.234095 0.013732
v -0.764221 0.234899 -0.000337
v -0.784916 0.231183 0.028588
v -0.774297 0.251062 0.016219
v -0.787858 0.248589 0.035088
v -0.777047 0.264253 0.014312
v -0.763034 0.249930 -0.000827
v -0.761900 0.250543 -0.017124
v -0.767344 0.263760 -0.004062
v -0.763139 0.262835 -0.015514
v -0.780290 0.269762 -0.011207
v -0.772527 0.268708 -0.025008
v -0.794257 0.271106 -0.021247
v -0.789317 0.267605 0.006198
v -0.803138 0.269179 -0.005336
v -0.801362 0.265441 0.024343
v -0.812379 0.262636 0.037368
v -0.813849 0.267166 0.010852
v -0.790868 0.262656 0.033560
v -0.803874 0.257177 0.047960
v -0.811539 0.252438 0.050969
v -0.801950 0.244656 0.052565
v -0.794682 0.225198 0.042681
v -0.811271 0.242635 0.052327
v -0.821556 0.243146 0.043798
v -0.812638 0.227935 0.051638
v -0.815483 0.216402 0.050421
v -0.822562 0.230780 0.043055
v -0.828181 0.220026 0.044104
v -0.834302 0.230429 0.030150
v -0.843179 0.223542 0.015978
v -0.838535 0.218946 0.035977
v -0.833969 0.244364 0.028576
v -0.832126 0.255898 0.027516
v -0.844154 0.242853 0.013260
v -0.844440 0.243027 -0.002534
v -0.843736 0.256400 0.013657
v -0.835996 0.266322 0.009428
v -0.845224 0.256536 -0.002021
v -0.844731 0.267293 -0.001768
v -0.835359 0.258339 -0.016758
v -0.833595 0.270235 -0.012979
v -0.834721 0.243577 -0.015723
v -0.825131 0.258008 -0.033193
v -0.815604 0.259195 -0.046183
v -0.825327 0.240107 -0.033195
v -0.821561 0.272124 -0.028789
v -0.814526 0.270958 -0.017600
v -0.812809 0.272751 -0.037754
v -0.817194 0.271887 -0.043583
v -0.806697 0.273122 -0.049187
v -0.797985 0.270750 -0.042515
v -0.805330 0.260021 -0.052550
v -0.795728 0.259551 -0.046816
v -0.804607 0.245375 -0.052073
v -0.815278 0.244399 -0.047034
v -0.803639 0.233136 -0.051708
v -0.795202 0.245318 -0.047136
v -0.794525 0.232312 -0.046924
v -0.783987 0.243234 -0.039772
v -0.783507 0.230180 -0.042922
v -0.784669 0.258178 -0.039084
v -0.771011 0.239849 -0.034075
v -0.769698 0.254694 -0.032277
v -0.770630 0.227224 -0.036498
v -0.764027 0.236410 -0.018607
v -0.763707 0.223751 -0.019734
v -0.761792 0.217340 -0.023570
v -0.755329 0.217881 -0.028881
v -0.766992 0.219075 -0.037007
v -0.762949 0.211863 -0.022585
v -0.770433 0.207986 -0.018754
v -0.762170 0.209238 -0.031156
v -0.756264 0.209885 -0.023244
v -0.754502 0.207590 -0.032549
v -0.750675 0.215532 -0.035256
v -0.757660 0.210760 -0.040968
v -0.754752 0.216955 -0.040988
v -0.762899 0.211950 -0.039444
v -0.759728 0.219166 -0.038649
v -0.772897 0.213431 -0.039583
v -0.781980 0.222567 -0.044535
v -0.787579 0.213832 -0.042333
v -0.772043 0.209400 -0.030464
v -0.784101 0.208647 -0.031477
v -0.796187 0.208898 -0.034004
v -0.781643 0.206844 -0.019274
v -0.792092 0.206820 -0.018967
v -0.786833 0.205585 -0.005311
v -0.803519 0.206674 -0.017701
v -0.810121 0.206521 -0.027689
v -0.814461 0.205893 -0.015386
v -0.796824 0.205586 -0.003767
v -0.809588 0.205697 -0.001907
v -0.792732 0.204428 0.009405
v -0.805781 0.203953 0.012632
v -0.789281 0.202792 0.019042
v -0.802424 0.202822 0.024969
v -0.781737 0.208185 0.030871
v -0.782814 0.203916 0.016327
v -0.797569 0.202392 0.036036
v -0.811778 0.202965 0.042408
v -0.805133 0.213264 0.043204
v -0.815663 0.207855 0.046346
v -0.828585 0.207398 0.051506
v -0.828795 0.198113 0.044580
v -0.843287 0.204371 0.046894
v -0.835565 0.213669 0.048298
v -0.841884 0.211990 0.045412
v -0.840480 0.197799 0.042185
v -0.843737 0.211102 0.031076
v -0.840421 0.202120 0.029058
v -0.829788 0.199153 0.030040
v -0.842315 0.207817 0.013134
v -0.842582 0.213282 -0.005005
v -0.832630 0.203527 0.013153
v -0.820195 0.203669 0.014150
v -0.832760 0.206318 -0.003158
v -0.821633 0.205821 -0.001367
v -0.829988 0.209000 -0.014972
v -0.830669 0.207796 -0.021655
v -0.822643 0.206398 -0.014354
v -0.834796 0.216233 -0.016144
v -0.831424 0.215584 -0.024356
v -0.834870 0.228610 -0.015231
v -0.828868 0.226372 -0.027493
v -0.843753 0.226818 -0.002961
v -0.825039 0.220867 -0.034403
v -0.822430 0.214527 -0.038415
v -0.830249 0.211486 -0.030806
v -0.820284 0.229655 -0.039966
v -0.816529 0.220110 -0.044274
v -0.813022 0.232506 -0.049345
v -0.808985 0.223238 -0.053079
v -0.805362 0.214710 -0.054264
v -0.802051 0.223437 -0.052618
v -0.803567 0.219913 -0.055325
v -0.793619 0.221457 -0.047618
v -0.798626 0.221013 -0.052890
v -0.792201 0.218152 -0.050175
v -0.790061 0.218389 -0.059902
v -0.792534 0.213058 -0.047764
v -0.791769 0.213599 -0.061828
v -0.798803 0.210970 -0.050701
v -0.795764 0.211599 -0.060821
v -0.805846 0.208777 -0.040138
v -0.814632 0.205901 -0.034292
v -0.812415 0.212069 -0.045168
v -0.819033 0.207944 -0.039126
v -0.827014 0.204600 -0.034102
v -0.827997 0.209669 -0.034808
v -0.831620 0.204927 -0.028712
v -0.822946 0.203280 -0.029997
v -0.827041 0.203318 -0.027070
v -0.818969 0.204540 -0.024003
v -0.825168 0.204571 -0.021940
v -0.797881 0.213188 -0.064925
v -0.794385 0.215213 -0.066151
v -0.800208 0.217139 -0.063161
v -0.795526 0.218497 -0.063321
v -0.816465 0.202064 0.030020
v -0.786397 0.270898 -0.034309
v -0.805885 0.272400 -0.031644
v -0.824844 0.269077 -0.002535
v -0.824754 0.264055 0.022202
v -0.819830 0.254541 0.043689
v -0.757473 0.201978 0.017664
vn 0.9724 0.0537 0.2272
vn 0.2212 0.4975 0.8388
vn -0.2531 -0.4606 0.8508
vn 0.4285 -0.8026 0.4150
vn -0.0659 -0.9948 -0.0783
vn 0.7054 -0.6237 -0.3370
vn -0.8037 -0.2084 0.5573
vn -0.0689 0.8600 0.5057
vn 0.8480 0.5157 -0.1227
vn 0.9262 0.3724 -0.0585
vn -0.1053 0.9358 0.3365
vn -0.9049 -0.1469 0.3994
vn 0.9403 0.1236 0.3171
vn 0.1775 -0.8843 0.4320
vn 0.7463 -0.4737 -0.4675
vn 0.8547 -0.4166 -0.3097
vn -0.0709 -0.9796 -0.1878
vn 0.1369 -0.9719 -0.1913
vn 0.8534 -0.5193 -0.0454
vn 0.2654 -0.9540 -0.1393
vn 0.0048 -0.9975 -0.0710
vn 0.8147 -0.0737 0.5752
vn 0.9327 -0.0608 0.3554
vn 0.0166 -0.9980 -0.0606
vn 0.1733 -0.9849 0.0045
vn 0.8852 -0.2299 0.4045
vn 0.4937 -0.8652 0.0875
vn 0.8466 0.0013 0.5322
vn 0.9402 0.0752 0.3322
vn 0.8240 0.1009 0.5575
vn 0.7829 0.1034 0.6135
vn 0.5725 0.7102 0.4098
vn 0.4745 0.7157 0.5125
vn 0.6929 0.6690 0.2690
vn 0.9798 0.0764 -0.1848
vn 0.9786 -0.0117 -0.2053
vn 0.8340 0.5469 -0.0724
vn 0.1889 0.9757 0.1115
vn 0.5334 0.7796 -0.3283
vn 0.1011 0.9830 0.1535
vn 0.3552 0.8289 -0.4322
vn 0.0516 0.9967 0.0620
vn 0.0097 0.9920 0.1260
vn -0.0270 0.9871 0.1577
vn 0.0293 0.9781 0.2059
vn -0.1951 0.8969 0.3969
vn 0.2127 0.6425 0.7362
vn -0.2911 0.8921 0.3456
vn 0.4534 0.0617 0.8892
vn -0.3037 0.4071 0.8614
vn -0.2306 0.0150 0.9729
vn -0.5859 0.4790 0.6537
vn 0.6147 -0.1376 0.7767
vn -0.1001 -0.0967 0.9903
vn -0.7061 0.0809 0.7035
vn -0.6475 0.1688 0.7431
vn 0.1138 -0.0970 0.9888
vn 0.4063 -0.3108 0.8593
vn -0.4478 0.5018 0.7401
vn -0.7998 0.2429 0.5489
vn -0.7591 0.5287 0.3798
vn -0.7956 0.0888 0.5993
vn -0.9547 0.0172 0.2971
vn -0.9843 0.0421 0.1712
vn -0.9963 0.0665 0.0535
vn -0.6790 0.4553 0.5759
vn -0.8601 0.3053 0.4087
vn -0.9564 -0.0340 -0.2900
vn -0.9572 -0.0284 -0.2879
vn -0.9666 0.1420 -0.2136
vn -0.4103 0.8470 0.3380
vn -0.7318 0.6783 -0.0654
vn -0.8231 0.1185 -0.5555
vn -0.5122 0.8196 -0.2565
vn -0.8454 -0.0213 -0.5337
vn -0.4946 0.8395 -0.2251
vn -0.8469 0.1180 -0.5184
vn -0.8410 0.0005 -0.5410
vn -0.6831 0.0827 -0.7256
vn -0.5963 0.6402 -0.4844
vn -0.6438 0.0044 -0.7652
vn -0.0320 0.9879 0.1520
vn 0.0034 0.9933 0.1151
vn -0.0190 0.9998 0.0110
vn 0.0563 0.9971 0.0515
vn 0.0245 0.7306 -0.6823
vn 0.0314 0.1420 -0.9894
vn 0.5488 0.1965 -0.8125
vn 0.4039 0.7900 -0.4612
vn 0.5012 0.0471 -0.8641
vn 0.0314 0.0138 -0.9994
vn -0.5728 0.0297 -0.8192
vn 0.1264 0.0981 -0.9871
vn 0.4426 0.1051 -0.8905
vn 0.5230 0.2419 -0.8173
vn 0.4757 0.1080 -0.8730
vn 0.4204 0.1857 -0.8881
vn 0.7155 0.0810 -0.6939
vn 0.7077 0.2150 -0.6730
vn 0.6997 0.1856 -0.6899
vn 0.9855 0.1095 -0.1298
vn 0.8573 0.4420 0.2638
vn 0.4136 0.5390 -0.7338
vn 0.4575 -0.4779 0.7499
vn 0.5872 0.7018 0.4034
vn 0.5877 -0.7121 0.3840
vn 0.0246 0.8431 -0.5372
vn 0.2563 -0.9642 -0.0677
vn 0.0742 -0.9721 -0.2223
vn -0.1019 -0.9921 -0.0739
vn 0.5219 -0.8530 0.0007
vn 0.9612 0.2390 -0.1381
vn 0.0801 -0.5562 -0.8272
vn 0.4719 0.4016 -0.7849
vn -0.2286 -0.4821 -0.8458
vn 0.1730 -0.5280 -0.8314
vn 0.3491 -0.0197 -0.9369
vn 0.5309 0.2995 -0.7927
vn 0.3286 -0.7026 -0.6311
vn 0.0558 -0.9560 -0.2880
vn 0.0454 -0.9910 -0.1257
vn 0.1283 -0.9735 -0.1895
vn 0.0148 -0.9942 -0.1062
vn 0.0107 -0.9969 -0.0774
vn 0.0528 -0.9964 -0.0666
vn 0.1529 -0.9862 -0.0635
vn 0.0364 -0.9992 0.0180
vn 0.1219 -0.9890 0.0835
vn -0.0039 -0.9968 -0.0800
vn 0.0223 -0.9930 -0.1158
vn -0.0047 -0.9938 -0.1112
vn 0.2504 -0.9679 -0.0231
vn 0.0588 -0.9979 -0.0270
vn 0.7160 -0.4787 0.5081
vn 0.2956 -0.8066 0.5118
vn 0.3571 -0.4362 0.8260
vn 0.3022 -0.7809 0.5467
vn 0.1085 -0.9908 -0.0811
vn -0.0230 -0.1395 0.9900
vn 0.0848 -0.8991 0.4294
vn -0.7571 -0.2129 0.6177
vn -0.5235 -0.8257 0.2102
vn -0.3552 0.5193 0.7773
vn -0.7062 0.4779 0.5224
vn -0.6803 -0.7112 -0.1768
vn -0.8137 -0.5653 -0.1353
vn -0.1825 -0.9617 -0.2047
vn 0.0039 -0.9849 -0.1730
vn -0.8493 -0.4079 -0.3351
vn -0.3259 -0.9142 -0.2409
vn 0.0397 -0.9879 -0.1497
vn -0.0395 -0.9930 -0.1110
vn -0.5635 -0.8174 -0.1198
vn -0.1310 -0.9892 0.0658
vn -0.8674 -0.2485 -0.4312
vn -0.9549 -0.0055 -0.2969
vn -0.8090 -0.5728 0.1316
vn -0.1935 -0.9455 0.2620
vn -0.8550 0.0182 -0.5184
vn -0.8742 0.0614 -0.4817
vn -0.8042 0.1071 -0.5846
vn -0.9006 0.0767 -0.4278
vn -0.7929 -0.0000 -0.6093
vn -0.7179 -0.1079 -0.6877
vn -0.6502 -0.0323 -0.7591
vn -0.6824 -0.0225 -0.7307
vn -0.4802 0.0407 -0.8762
vn 0.2164 0.3570 -0.9087
vn -0.6072 -0.5291 -0.5928
vn -0.4304 -0.6234 -0.6528
vn -0.3506 0.5172 -0.7808
vn 0.2778 0.8483 -0.4507
vn 0.8802 0.4112 -0.2367
vn 0.5971 -0.7669 -0.2352
vn 0.7836 -0.4827 -0.3911
vn 0.8429 0.5126 -0.1634
vn 0.1610 0.7699 -0.6175
vn 0.0174 -0.9836 -0.1797
vn 0.0546 -0.9766 -0.2078
vn 0.0574 -0.9591 -0.2771
vn -0.3521 -0.4817 -0.8025
vn 0.1347 -0.9548 -0.2649
vn -0.2527 -0.6380 -0.7274
vn 0.0575 -0.9899 -0.1293
vn -0.4268 -0.6649 -0.6130
vn -0.8153 -0.5661 -0.1218
vn -0.2140 -0.9681 0.1302
vn 0.3072 -0.0763 -0.9486
vn -0.5997 0.4834 -0.6377
vt 0.071811 0.974729
vt 0.073485 0.977036
vt 0.070563 0.976656
vt 0.070108 0.975461
vt 0.067958 0.975225
vt 0.069394 0.973998
vt 0.070272 0.976943
vt 0.913406 0.251050
vt 0.916005 0.251714
vt 0.916301 0.253615
vt 0.913441 0.253061
vt 0.070842 0.972602
vt 0.074341 0.972808
vt 0.069696 0.969726
vt 0.072749 0.970288
vt 0.912522 0.246169
vt 0.917735 0.249022
vt 0.912483 0.241029
vt 0.910866 0.244395
vt 0.920384 0.244065
vt 0.068375 0.972323
vt 0.066648 0.968024
vt 0.070754 0.967851
vt 0.066036 0.973692
vt 0.063530 0.968341
vt 0.067744 0.961257
vt 0.063230 0.961693
vt 0.061975 0.972609
vt 0.059551 0.969598
vt 0.059013 0.961794
vt 0.919970 0.230682
vt 0.910608 0.232345
vt 0.054632 0.961773
vt 0.054867 0.968681
vt 0.054207 0.977713
vt 0.051669 0.972672
vt 0.929610 0.229934
vt 0.928462 0.239602
vt 0.909662 0.225140
vt 0.919271 0.222777
vt 0.930146 0.220249
vt 0.917601 0.216171
vt 0.928273 0.213273
vt 0.908382 0.218247
vt 0.901709 0.224938
vt 0.900510 0.231814
vt 0.902954 0.219316
vt 0.906187 0.210904
vt 0.899277 0.213848
vt 0.915442 0.208968
vt 0.895568 0.206521
vt 0.902675 0.203320
vt 0.911574 0.201039
vt 0.921049 0.198401
vt 0.925542 0.206643
vt 0.933459 0.204415
vt 0.937780 0.210964
vt 0.928527 0.195588
vt 0.940754 0.217332
vt 0.172506 0.977903
vt 0.172528 0.972869
vt 0.177116 0.973749
vt 0.176414 0.980479
vt 0.940899 0.207716
vt 0.938986 0.202147
vt 0.938782 0.228741
vt 0.172089 0.965329
vt 0.181949 0.962561
vt 0.166731 0.979777
vt 0.165763 0.973924
vt 0.165177 0.967638
vt 0.171104 0.959353
vt 0.176841 0.956503
vt 0.163927 0.961817
vt 0.156281 0.966963
vt 0.156011 0.959940
vt 0.155641 0.974353
vt 0.146359 0.973300
vt 0.148167 0.962893
vt 0.153030 0.952702
vt 0.155688 0.980794
vt 0.146703 0.980760
vt 0.138203 0.972922
vt 0.138240 0.964157
vt 0.138656 0.980614
vt 0.924127 0.188210
vt 0.929830 0.184359
vt 0.933918 0.192865
vt 0.919959 0.182633
vt 0.922096 0.178013
vt 0.910715 0.177882
vt 0.912080 0.184820
vt 0.892786 0.729468
vt 0.888610 0.721338
vt 0.895792 0.717730
vt 0.898758 0.725378
vt 0.901581 0.190064
vt 0.900997 0.182704
vt 0.884086 0.712232
vt 0.893254 0.707775
vt 0.880710 0.703588
vt 0.877071 0.715196
vt 0.874608 0.707108
vt 0.887887 0.699876
vt 0.915950 0.191115
vt 0.906914 0.194027
vt 0.896592 0.193157
vt 0.898452 0.197081
vt 0.891004 0.194010
vt 0.894954 0.190046
vt 0.872171 0.700822
vt 0.878258 0.697212
vt 0.875289 0.691865
vt 0.870308 0.695656
vt 0.891496 0.200458
vt 0.882798 0.688057
vt 0.885202 0.693576
vt 0.893185 0.696145
vt 0.891233 0.690600
vt 0.889736 0.684590
vt 0.872694 0.684110
vt 0.880816 0.680759
vt 0.888385 0.677932
vt 0.879290 0.672979
vt 0.885260 0.669536
vt 0.870428 0.675328
vt 0.892537 0.227285
vt 0.893680 0.219928
vt 0.883587 0.659556
vt 0.877046 0.663948
vt 0.900607 0.237592
vt 0.074726 0.958215
vt 0.072317 0.955400
vt 0.888530 0.659324
vt 0.888631 0.667548
vt 0.892264 0.659984
vt 0.890833 0.661796
vt 0.892785 0.658727
vt 0.890734 0.665039
vt 0.069773 0.955268
vt 0.065145 0.956644
vt 0.066135 0.950411
vt 0.071160 0.950423
vt 0.895307 0.661134
vt 0.898620 0.659234
vt 0.892946 0.662531
vt 0.895468 0.663817
vt 0.893106 0.664136
vt 0.896009 0.666037
vt 0.897135 0.669966
vt 0.902267 0.664192
vt 0.892543 0.675637
vt 0.895484 0.680983
vt 0.900595 0.676096
vt 0.904119 0.672039
vt 0.059562 0.954698
vt 0.060442 0.947769
vt 0.912640 0.680120
vt 0.054054 0.953628
vt 0.054360 0.945240
vt 0.049249 0.960781
vt 0.047881 0.952340
vt 0.045555 0.946136
vt 0.041908 0.951870
vt 0.040594 0.946790
vt 0.042420 0.959649
vt 0.049041 0.968091
vt 0.041692 0.967768
vt 0.047887 0.973593
vt 0.040067 0.974322
vt 0.048717 0.980920
vt 0.039075 0.980362
vt 0.180170 0.950167
vt 0.188766 0.953139
vt 0.933870 0.239380
vt 0.172356 0.953602
vt 0.174752 0.949032
vt 0.031507 0.981065
vt 0.032256 0.974695
vt 0.165803 0.954968
vt 0.165274 0.950584
vt 0.158573 0.952899
vt 0.158438 0.949530
vt 0.161758 0.957203
vt 0.158881 0.956000
vt 0.151853 0.947536
vt 0.146653 0.952985
vt 0.023925 0.961583
vt 0.028612 0.963688
vt 0.025964 0.972699
vt 0.020706 0.970440
vt 0.160796 0.944837
vt 0.026463 0.951508
vt 0.031358 0.955187
vt 0.139020 0.957325
vt 0.034310 0.966148
vt 0.036400 0.957969
vt 0.033675 0.949206
vt 0.037560 0.951044
vt 0.029759 0.946323
vt 0.030790 0.942048
vt 0.034212 0.945783
vt 0.037344 0.946767
vt 0.020995 0.947147
vt 0.025545 0.942191
vt 0.028076 0.938683
vt 0.902291 0.708305
vt 0.904009 0.714675
vt 0.906627 0.721293
vt 0.903376 0.703068
vt 0.909745 0.702120
vt 0.908168 0.706472
vt 0.897154 0.701783
vt 0.901248 0.697507
vt 0.905795 0.698839
vt 0.909578 0.699691
vt 0.897117 0.692664
vt 0.895767 0.688176
vt 0.903351 0.691116
vt 0.906025 0.693299
vt 0.898188 0.690269
vt 0.896904 0.685190
vt 0.898454 0.680384
vt 0.904805 0.680308
vt 0.902287 0.684440
vt 0.900757 0.683153
vt 0.900406 0.685822
vt 0.906698 0.684137
vt 0.903669 0.685441
vt 0.909323 0.686788
vt 0.901984 0.687140
vt 0.910598 0.690597
vt 0.914704 0.685722
vt 0.909048 0.695196
vt 0.913764 0.694067
vt 0.912161 0.697318
vt 0.913007 0.700653
vt 0.036796 0.940649
vt 0.038756 0.943119
vt 0.036775 0.943945
vt 0.034599 0.942126
vt 0.043493 0.942525
vt 0.032880 0.940330
vt 0.901648 0.685945
vt 0.900307 0.688071
vt 0.169136 0.942895
vt 0.890524 0.211797
vt 0.887373 0.205654
vt 0.916571 0.253570
vt 0.918271 0.250595
s 1
usemtl abyss_chancel_background_pbr
f 2/1/1 6/2/2 4/3/3 1/4/4
f 1/4/4 3/5/5 189/6/6 2/1/1
f 3/5/5 1/4/4 4/3/3 5/7/7
f 7/8/8 5/9/7 4/10/3 6/11/2
f 2/1/1 8/12/9 7/13/8 6/2/2
f 7/13/8 8/12/9 12/14/10 9/15/11
f 5/9/7 7/8/8 9/16/11 11/17/12
f 10/18/13 9/16/11 12/19/10
f 11/17/12 9/16/11 10/18/13 19/20/14
f 8/12/9 14/21/15 13/22/16 12/14/10
f 10/23/13 12/14/10 13/22/16
f 17/24/17 16/25/18 13/22/16 14/21/15
f 10/23/13 13/22/16 15/26/19
f 13/22/16 16/25/18 18/27/20 15/26/19
f 17/24/17 11/28/12 19/29/14 16/25/18
f 18/27/20 16/25/18 19/29/14 20/30/21
f 23/31/22 19/20/14 10/18/13 24/32/23
f 111/33/24 20/30/21 19/29/14 21/34/25
f 21/34/25 19/29/14 22/35/26 122/36/27
f 19/20/14 23/31/22 25/37/28 22/38/26
f 24/32/23 29/39/29 26/40/30 23/31/22
f 25/37/28 23/31/22 26/40/30 27/41/31
f 26/40/30 28/42/32 41/43/33 27/41/31
f 31/44/34 28/42/32 26/40/30 29/39/29
f 30/45/35 29/39/29 24/32/23 88/46/36
f 29/39/29 30/45/35 32/47/37 31/44/34
f 33/48/38 31/44/34 32/47/37 34/49/39
f 31/44/34 33/48/38 36/50/40 28/42/32
f 33/48/38 34/49/39 184/51/41 35/52/42
f 36/50/40 33/48/38 35/52/42 37/53/43
f 36/50/40 37/53/43 40/54/44 38/55/45
f 41/43/33 28/42/32 36/50/40 38/55/45
f 39/56/46 42/57/47 41/43/33 38/55/45
f 38/55/45 40/54/44 187/58/48 39/56/46
f 44/59/49 27/41/31 41/43/33 42/57/47
f 43/60/50 46/61/51 44/62/49 42/63/47
f 43/64/50 42/57/47 39/56/46 188/65/52
f 27/41/31 44/59/49 45/66/53 25/37/28
f 48/67/54 45/68/53 44/62/49 46/61/51
f 43/60/50 188/69/52 47/70/55 46/61/51
f 46/61/51 47/70/55 50/71/56 48/67/54
f 48/67/54 49/72/57 125/73/58 45/68/53
f 48/67/54 50/71/56 51/74/59 49/72/57
f 52/75/60 54/76/61 51/74/59 50/71/56
f 55/77/62 52/75/60 50/71/56 47/70/55
f 55/77/62 57/78/63 53/79/64 52/75/60
f 54/76/61 52/75/60 53/79/64 133/80/65
f 56/81/66 55/77/62 47/70/55 188/69/52
f 57/78/63 55/77/62 56/81/66 59/82/67
f 58/83/68 149/84/69 53/79/64 57/78/63
f 59/82/67 61/85/70 58/83/68 57/78/63
f 60/86/71 59/87/67 56/88/66 187/58/48
f 59/87/67 60/86/71 62/89/72 61/90/70
f 63/91/73 61/90/70 62/89/72 64/92/74
f 61/93/70 63/94/73 65/95/75 58/96/68
f 63/91/73 64/92/74 69/97/76 66/98/77
f 63/94/73 66/99/77 68/100/78 65/95/75
f 67/101/79 66/99/77 69/102/76 72/103/80
f 67/101/79 78/104/81 68/100/78 66/99/77
f 64/92/74 186/105/82 70/106/83 69/97/76
f 71/107/84 69/97/76 70/106/83 185/108/85
f 73/109/86 72/110/80 69/97/76 71/107/84
f 67/101/79 72/103/80 73/111/86 75/112/87
f 76/113/88 75/112/87 73/111/86 74/114/89
f 74/115/89 73/109/86 71/107/84 185/108/85
f 80/116/90 77/117/91 75/112/87 76/113/88
f 78/104/81 67/101/79 75/112/87 77/117/91
f 155/118/92 78/104/81 77/117/91 79/119/93
f 81/120/94 79/119/93 77/117/91 80/116/90
f 84/121/95 82/122/96 80/116/90 76/113/88
f 83/123/97 81/120/94 80/116/90 82/122/96
f 83/123/97 82/122/96 85/124/98 87/125/99
f 85/124/98 82/122/96 84/121/95 86/126/100
f 30/45/35 88/46/36 85/127/98 86/128/100
f 89/129/101 87/125/99 85/124/98 88/130/36
f 88/46/36 24/32/23 10/18/13 89/131/101
f 89/132/101 10/23/13 15/26/19 90/133/102
f 87/125/99 89/129/101 90/134/102 92/135/103
f 96/136/104 91/137/105 90/134/102 93/138/106
f 102/139/107 92/135/103 90/134/102 91/137/105
f 15/26/19 93/140/106 90/133/102
f 15/26/19 94/141/108 93/140/106
f 106/142/109 95/143/110 93/140/106 94/141/108
f 97/144/111 96/136/104 93/138/106 95/145/110
f 96/136/104 97/144/111 98/146/112 91/137/105
f 97/144/111 99/147/113 100/148/114 98/146/112
f 95/145/110 101/149/115 99/147/113 97/144/111
f 101/149/115 102/139/107 100/148/114 99/147/113
f 101/149/115 103/150/116 92/135/103 102/139/107
f 101/149/115 95/145/110 106/151/109 103/150/116
f 104/152/117 87/125/99 92/135/103 103/150/116
f 160/153/118 104/152/117 103/150/116 105/154/119
f 103/150/116 106/151/109 107/155/120 105/154/119
f 106/142/109 94/141/108 109/156/121 107/157/120
f 105/154/119 107/155/120 108/158/122
f 109/156/121 110/159/123 108/160/122 107/157/120
f 18/27/20 20/30/21 109/156/121 94/141/108
f 20/30/21 111/33/24 110/159/123 109/156/121
f 110/159/123 111/33/24 115/161/124 112/162/125
f 112/162/125 113/163/126 108/160/122 110/159/123
f 113/163/126 112/162/125 114/164/127 177/165/128
f 114/164/127 112/162/125 115/161/124 116/166/129
f 116/166/129 115/161/124 117/167/130 118/168/131
f 111/33/24 21/34/25 117/167/130 115/161/124
f 117/167/130 21/34/25 122/36/27 119/169/132
f 118/168/131 117/167/130 119/169/132 120/170/133
f 120/170/133 119/169/132 121/171/134 123/172/135
f 119/169/132 122/36/27 22/35/26 121/171/134
f 125/73/58 123/173/135 121/174/134 45/68/53
f 25/37/28 45/66/53 121/175/134 22/38/26
f 125/73/58 126/176/136 124/177/137 123/173/135
f 120/170/133 123/172/135 124/178/137 183/179/138
f 49/72/57 127/180/139 126/176/136 125/73/58
f 126/176/136 127/180/139 128/181/140 124/177/137
f 127/180/139 129/182/141 132/183/142 128/181/140
f 129/182/141 127/180/139 130/184/143 131/185/144
f 127/180/139 49/72/57 51/74/59 130/184/143
f 54/76/61 131/185/144 130/184/143 51/74/59
f 54/76/61 133/80/65 129/182/141 131/185/144
f 133/80/65 134/186/145 132/183/142 129/182/141
f 134/186/145 133/80/65 53/79/64 136/187/146
f 136/188/146 138/189/147 135/190/148 134/191/145
f 135/192/148 128/181/140 132/183/142 134/186/145
f 136/188/146 137/193/149 140/194/150 138/189/147
f 137/195/149 136/187/146 53/79/64 149/84/69
f 139/196/151 183/179/138 135/190/148 138/189/147
f 139/196/151 138/189/147 140/194/150 141/197/152
f 140/194/150 142/198/153 144/199/154 141/197/152
f 137/193/149 145/200/155 142/198/153 140/194/150
f 146/201/156 143/202/157 142/198/153 145/200/155
f 143/202/157 178/203/158 144/199/154 142/198/153
f 137/193/149 149/204/69 147/205/159 145/200/155
f 147/205/159 148/206/160 146/201/156 145/200/155
f 65/95/75 68/100/78 148/207/160 147/208/159
f 149/209/69 58/96/68 65/95/75 147/208/159
f 150/210/161 152/211/162 146/212/156 148/207/160
f 148/207/160 68/100/78 153/213/163 150/210/161
f 154/214/164 151/215/165 150/210/161 153/213/163
f 150/210/161 151/215/165 173/216/166 152/211/162
f 153/213/163 155/118/92 156/217/167 154/214/164
f 78/104/81 155/118/92 153/213/163 68/100/78
f 79/119/93 158/218/168 156/217/167 155/118/92
f 154/214/164 156/217/167 157/219/169 170/220/170
f 156/217/167 158/218/168 159/221/171 157/219/169
f 158/218/168 160/153/118 161/222/172 159/221/171
f 79/119/93 81/120/94 160/153/118 158/218/168
f 83/123/97 104/152/117 160/153/118 81/120/94
f 105/154/119 162/223/173 160/153/118
f 162/223/173 161/222/172 160/153/118
f 164/224/174 165/225/175 163/226/176 162/223/173
f 161/222/172 162/223/173 163/226/176 182/227/177
f 105/154/119 164/224/174 162/223/173
f 164/224/174 166/228/178 167/229/179 165/225/175
f 166/228/178 164/224/174 108/158/122 168/230/180
f 105/154/119 108/158/122 164/224/174
f 166/228/178 168/230/180 170/220/170 157/219/169
f 157/219/169 179/231/181 167/229/179 166/228/178
f 169/232/182 168/230/180 108/158/122 113/233/126
f 169/232/182 171/234/183 170/220/170 168/230/180
f 171/234/183 151/215/165 154/214/164 170/220/170
f 171/234/183 169/232/182 175/235/184 172/236/185
f 171/234/183 172/236/185 173/216/166 151/215/165
f 174/237/186 152/211/162 173/216/166 172/236/185
f 172/238/185 175/239/184 176/240/187 174/241/186
f 177/165/128 178/203/158 176/240/187 175/239/184
f 169/242/182 113/163/126 177/165/128 175/239/184
f 178/203/158 177/165/128 114/164/127 144/199/154
f 143/202/157 174/241/186 176/240/187 178/203/158
f 174/241/186 143/202/157 146/201/156 152/243/162
f 180/244/188 165/225/175 167/229/179 179/231/181
f 180/244/188 179/231/181 181/245/189 182/227/177
f 157/219/169 159/221/171 181/245/189 179/231/181
f 161/222/172 182/227/177 181/245/189 159/221/171
f 180/244/188 182/227/177 163/226/176 165/225/175
f 141/197/152 144/199/154 114/164/127 116/166/129
f 118/168/131 139/196/151 141/197/152 116/166/129
f 183/179/138 139/196/151 118/168/131 120/170/133
f 124/177/137 128/181/140 135/192/148 183/246/138
f 104/152/117 83/123/97 87/125/99
f 91/137/105 98/146/112 100/148/114 102/139/107
f 15/26/19 18/27/20 94/141/108
f 86/128/100 34/49/39 32/47/37 30/45/35
f 34/49/39 86/128/100 84/247/95 184/51/41
f 74/115/89 184/51/41 84/247/95 76/248/88
f 185/108/85 35/52/42 184/51/41 74/115/89
f 35/52/42 185/108/85 70/106/83 37/53/43
f 70/106/83 186/105/82 40/54/44 37/53/43
f 186/105/82 60/86/71 187/58/48 40/54/44
f 186/105/82 64/92/74 62/89/72 60/86/71
f 39/56/46 187/58/48 56/88/66 188/65/52
f 17/24/17 14/21/15 189/6/6 3/5/5
f 3/249/5 5/9/7 11/17/12 17/250/17
f 8/12/9 2/1/1 189/6/6 14/21/15
