# Blender 5.2.0 LTS
# www.blender.org
mtllib terrain-abyss-chancel-object-124.mtl
o terrain-abyss-chancel-object-124
v 0.740426 1.156993 0.003222
v 0.740535 1.172394 0.001284
v 0.751189 1.158447 0.005281
v 0.741398 1.138975 0.002499
v 0.742739 1.156802 -0.007150
v 0.752940 1.158039 -0.005689
v 0.744188 1.169210 -0.006829
v 0.743393 1.139234 -0.007405
v 0.753201 1.140136 -0.005058
v 0.745140 1.118085 -0.006646
v 0.750438 1.096865 -0.003117
v 0.743395 1.118153 0.001795
v 0.754216 1.118875 -0.004621
v 0.751839 1.118812 0.003936
v 0.754516 1.099627 -0.000394
v 0.753835 1.099859 0.004490
v 0.765094 1.086537 0.003205
v 0.778528 1.081608 0.003160
v 0.765010 1.086424 0.006235
v 0.763962 1.084306 0.002149
v 0.777998 1.079525 0.001916
v 0.763286 1.083353 0.005452
v 0.777820 1.078129 0.004461
v 0.749314 1.097403 0.002878
v 0.778507 1.080454 0.005876
v 0.789011 1.075997 0.003239
v 0.789287 1.078210 0.005341
v 0.797402 1.075850 0.002535
v 0.788956 1.077987 0.000384
v 0.798141 1.077830 -0.000359
v 0.789403 1.079790 0.002730
v 0.801375 1.083546 0.003278
v 0.803275 1.085071 0.000862
v 0.796035 1.092470 0.002287
v 0.800730 1.086194 0.004640
v 0.797874 1.078487 0.004673
v 0.802235 1.080401 0.005301
v 0.806848 1.083970 0.006637
v 0.809802 1.075032 0.005924
v 0.802273 1.075040 0.002370
v 0.807716 1.073126 0.002748
v 0.803225 1.077763 -0.000322
v 0.808338 1.076462 -0.000153
v 0.809598 1.081661 0.000271
v 0.813978 1.072280 -0.000715
v 0.811292 1.069379 0.002338
v 0.820245 1.065963 0.000140
v 0.817932 1.078900 -0.002390
v 0.824844 1.081460 -0.009856
v 0.818156 1.085750 0.003430
v 0.823506 1.073534 -0.004750
v 0.830156 1.072930 -0.005627
v 0.827019 1.078181 -0.010662
v 0.832025 1.078367 -0.010911
v 0.829509 1.081850 -0.017647
v 0.827761 1.084762 -0.016659
v 0.831353 1.087266 -0.027453
v 0.832576 1.083158 -0.016683
v 0.830488 1.086371 -0.015538
v 0.833366 1.088739 -0.026354
v 0.834751 1.099945 -0.037558
v 0.831286 1.090661 -0.025419
v 0.831885 1.100816 -0.036811
v 0.829290 1.088943 -0.026703
v 0.829424 1.099429 -0.038486
v 0.832777 1.097738 -0.040328
v 0.827561 1.117682 -0.044868
v 0.829857 1.118437 -0.040764
v 0.832002 1.117630 -0.047055
v 0.825468 1.138286 -0.047368
v 0.832696 1.138218 -0.050137
v 0.822342 1.159190 -0.049135
v 0.827868 1.138498 -0.039992
v 0.835187 1.138492 -0.042844
v 0.825364 1.159576 -0.037114
v 0.838182 1.159608 -0.040948
v 0.825321 1.182289 -0.037575
v 0.823311 1.182240 -0.049547
v 0.825586 1.198069 -0.037762
v 0.837592 1.182326 -0.040367
v 0.835141 1.182218 -0.052543
v 0.837606 1.197879 -0.040423
v 0.834803 1.197646 -0.052753
v 0.823603 1.197651 -0.050293
v 0.834756 1.159125 -0.053490
v 0.834088 1.118399 -0.043099
v 0.830128 1.086312 -0.007088
v 0.828018 1.091230 -0.003324
v 0.834366 1.082067 -0.003159
v 0.836277 1.079025 -0.002254
v 0.832900 1.088453 0.002278
v 0.836989 1.082290 0.003562
v 0.828446 1.088872 0.010710
v 0.831532 1.097744 0.003798
v 0.826957 1.097608 0.008841
v 0.826807 1.098283 -0.001332
v 0.829701 1.109839 0.004246
v 0.826794 1.109975 0.000135
v 0.826011 1.109820 0.007729
v 0.829767 1.122520 0.004223
v 0.826328 1.122607 0.006706
v 0.828950 1.129467 0.003565
v 0.826882 1.122445 0.001193
v 0.826365 1.129894 0.001513
v 0.824020 1.122628 0.003465
v 0.824780 1.129655 0.003239
v 0.822601 1.109958 0.003514
v 0.821525 1.098074 0.003851
v 0.820232 1.090597 0.002977
v 0.826301 1.130225 0.005440
v 0.831765 1.081794 0.012100
v 0.825167 1.083941 0.015169
v 0.829571 1.081204 0.016963
v 0.827009 1.084139 0.025525
v 0.822395 1.081650 0.015468
v 0.825010 1.083087 0.025734
v 0.816410 1.081915 0.007215
v 0.822196 1.078733 0.015587
v 0.815221 1.078174 0.008183
v 0.824536 1.081249 0.026488
v 0.822670 1.074033 0.015805
v 0.826134 1.080057 0.026767
v 0.829803 1.076108 0.017988
v 0.821878 1.066439 0.012978
v 0.817799 1.071695 0.008485
v 0.819315 1.066232 0.008101
v 0.813301 1.070120 0.006327
v 0.817777 1.059946 0.003570
v 0.817182 1.061743 0.000976
v 0.813301 1.064189 0.001769
v 0.819964 1.062572 0.004183
v 0.821946 1.059410 0.013430
v 0.821869 1.057745 -0.005044
v 0.806981 1.054715 0.008386
v 0.818519 1.043268 0.006055
v 0.808742 1.054810 -0.005808
v 0.820120 1.054573 0.024129
v 0.821777 1.044925 0.012373
v 0.822950 1.023466 0.008751
v 0.826210 1.048711 0.016821
v 0.831865 1.057306 0.015527
v 0.830102 1.045117 0.013420
v 0.826987 1.065615 0.017219
v 0.825853 1.023689 0.010182
v 0.825679 1.001018 0.011840
v 0.828338 1.023289 0.009512
v 0.830829 1.023306 0.007421
v 0.829191 1.001165 0.011032
v 0.831535 0.977503 0.016514
v 0.832547 1.001053 0.008614
v 0.838420 0.979360 0.006172
v 0.833577 1.001198 0.005135
v 0.831543 1.023215 0.005525
v 0.832364 1.001370 0.001677
v 0.838533 0.979710 0.001692
v 0.835350 0.980865 -0.002151
v 0.853684 0.971151 -0.004271
v 0.849224 0.971053 -0.013040
v 0.854782 0.971236 0.002334
v 0.842903 0.960666 0.005381
v 0.840466 0.966357 0.016905
v 0.837474 0.955230 0.010486
v 0.839559 0.958624 -0.001744
v 0.835274 0.941194 0.006386
v 0.834542 0.957657 -0.005801
v 0.834353 0.939282 0.001158
v 0.828233 0.956653 -0.007792
v 0.839735 0.971150 -0.020800
v 0.826306 0.970792 -0.023344
v 0.831137 0.981258 -0.004949
v 0.830003 1.001380 -0.000760
v 0.826167 0.981233 -0.006139
v 0.822041 0.982305 -0.004577
v 0.827014 1.001406 -0.002349
v 0.827008 1.023135 -0.000749
v 0.823221 1.001435 -0.001574
v 0.824452 1.023104 -0.000442
v 0.820402 1.001549 0.000812
v 0.818486 0.982663 -0.001176
v 0.822207 1.023137 0.001034
v 0.818790 1.001518 0.004645
v 0.820968 1.023149 0.003395
v 0.819493 1.001503 0.008299
v 0.816389 0.982351 0.003871
v 0.799439 0.971265 0.001771
v 0.816775 0.981982 0.010167
v 0.819517 0.981047 0.013684
v 0.800773 0.971282 0.015275
v 0.808407 0.971253 0.026678
v 0.815617 0.956671 0.009846
v 0.818593 0.957718 0.015933
v 0.820114 0.938076 0.007307
v 0.815441 0.956293 0.002883
v 0.817723 0.956199 -0.002802
v 0.819831 0.937937 0.002664
v 0.822265 0.937829 -0.001468
v 0.819081 0.913839 0.000853
v 0.817872 0.913867 0.006828
v 0.806346 0.886865 -0.006573
v 0.823013 0.913561 -0.003063
v 0.813920 0.886967 -0.016217
v 0.828179 0.913707 -0.004620
v 0.825930 0.938083 -0.003495
v 0.833707 0.913965 -0.002291
v 0.828754 0.886770 -0.019040
v 0.830032 0.886504 -0.034163
v 0.844972 0.886907 -0.010823
v 0.853495 0.886314 -0.017163
v 0.850082 0.887034 0.006855
v 0.844023 0.886975 0.022257
v 0.857207 0.885969 0.007821
v 0.837437 0.913919 0.004045
v 0.835807 0.913772 0.010140
v 0.830903 0.914289 0.014415
v 0.832713 0.940180 0.011597
v 0.825139 0.914289 0.015160
v 0.830410 0.886843 0.029295
v 0.831808 0.886333 0.045701
v 0.815154 0.886815 0.027475
v 0.807091 0.886849 0.018349
v 0.804719 0.886515 0.039226
v 0.795037 0.886565 0.022553
v 0.802847 0.874909 0.031914
v 0.789201 0.867176 0.026929
v 0.790755 0.877632 0.020008
v 0.809960 0.867277 0.027710
v 0.828726 0.874823 0.037616
v 0.851604 0.874440 0.030975
v 0.828184 0.869669 0.030557
v 0.845827 0.868500 0.028472
v 0.828593 0.861092 0.023960
v 0.812731 0.860753 0.022429
v 0.828089 0.861147 0.014194
v 0.842707 0.862393 0.023041
v 0.842262 0.861224 0.013675
v 0.854683 0.861453 0.022284
v 0.855647 0.864936 0.028705
v 0.855104 0.860814 0.013216
v 0.859496 0.857936 0.023423
v 0.860943 0.856279 0.012998
v 0.857939 0.861443 0.028986
v 0.866952 0.857894 0.021436
v 0.867874 0.856678 0.012729
v 0.866649 0.864914 0.024381
v 0.862841 0.871366 0.025915
v 0.868868 0.862760 0.012306
v 0.868434 0.863096 -0.002577
v 0.864798 0.869650 0.011155
v 0.858509 0.878112 0.008312
v 0.864102 0.870328 -0.005972
v 0.851367 0.874036 -0.020294
v 0.860724 0.871339 -0.017918
v 0.855042 0.863558 -0.015439
v 0.865868 0.865258 -0.014790
v 0.845402 0.871596 -0.019056
v 0.842099 0.865534 -0.014431
v 0.825213 0.871674 -0.020954
v 0.805977 0.870642 -0.016532
v 0.826034 0.874991 -0.034473
v 0.826247 0.865694 -0.013719
v 0.809301 0.865322 -0.011554
v 0.826847 0.861131 -0.005891
v 0.841586 0.861193 -0.007214
v 0.827597 0.860983 0.004462
v 0.810745 0.861481 -0.004525
v 0.811827 0.860963 0.004928
v 0.797241 0.861349 -0.003897
v 0.795751 0.863143 -0.010095
v 0.798276 0.860928 0.004214
v 0.788039 0.859184 -0.004651
v 0.781301 0.857216 -0.005828
v 0.786827 0.860395 -0.010698
v 0.788810 0.859434 0.003115
v 0.782785 0.856519 0.002045
v 0.789490 0.860051 0.011431
v 0.799113 0.860825 0.012768
v 0.784465 0.856307 0.010344
v 0.790943 0.860594 0.019984
v 0.785414 0.857748 0.018822
v 0.791618 0.860138 0.026309
v 0.799426 0.860775 0.021251
v 0.796759 0.862695 0.026311
v 0.787487 0.861560 0.026432
v 0.777208 0.859375 0.027484
v 0.778389 0.858306 0.017903
v 0.781221 0.863703 0.024252
v 0.780619 0.863436 0.017309
v 0.784845 0.868771 0.017773
v 0.780468 0.863340 0.008273
v 0.784171 0.869254 0.007125
v 0.781081 0.863768 -0.000645
v 0.778832 0.857522 0.009353
v 0.778904 0.858922 0.000918
v 0.778638 0.860122 -0.007269
v 0.780258 0.860073 -0.015091
v 0.782238 0.864136 -0.008827
v 0.787699 0.869489 -0.012375
v 0.785121 0.862467 -0.013400
v 0.792520 0.865820 -0.013850
v 0.801415 0.873490 -0.020913
v 0.784819 0.869682 -0.003116
v 0.790080 0.876576 -0.007995
v 0.795386 0.886469 -0.011498
v 0.788845 0.876738 0.005806
v 0.793637 0.886502 0.005872
v 0.804292 0.886992 0.006154
v 0.805717 0.886596 -0.028586
v 0.781878 0.858018 -0.012026
v 0.812465 0.860831 0.013982
v 0.842435 0.860953 0.003325
v 0.854819 0.860799 0.001809
v 0.860781 0.855773 0.000329
v 0.854062 0.860939 -0.009150
v 0.860234 0.858159 -0.011061
v 0.859112 0.861203 -0.016242
v 0.866113 0.857937 -0.010801
v 0.867602 0.856692 -0.001200
v 0.852561 0.886244 0.029858
v 0.819937 0.914019 0.011871
v 0.822860 0.938573 0.011402
v 0.827228 0.939273 0.012877
v 0.824413 0.959438 0.019468
v 0.820459 0.970658 0.030207
v 0.832718 0.960006 0.018469
v 0.829929 0.970103 0.031235
v 0.823966 0.979085 0.016804
v 0.830787 0.938548 -0.002875
v 0.821769 0.956475 -0.006392
v 0.812391 0.971302 -0.020414
v 0.802683 0.971351 -0.010693
v 0.821929 1.001389 0.010945
v 0.821360 1.023257 0.006314
v 0.818850 1.042631 0.001035
v 0.821494 1.042308 -0.002321
v 0.816841 1.054870 -0.013876
v 0.826438 1.042395 -0.003920
v 0.827442 1.054743 -0.016414
v 0.828998 1.042385 -0.003687
v 0.831880 1.042570 -0.001523
v 0.834327 1.054727 -0.014908
v 0.840934 1.054899 -0.010347
v 0.832943 1.057835 -0.004975
v 0.845322 1.054910 -0.003332
v 0.834261 1.069853 -0.002459
v 0.824617 1.064013 -0.001803
v 0.837486 1.057496 0.003042
v 0.837321 1.057409 0.010648
v 0.847021 1.055079 0.005628
v 0.838753 1.067349 0.001133
v 0.838371 1.069526 0.008423
v 0.844860 1.076871 0.002110
v 0.845572 1.076993 0.006766
v 0.844219 1.081586 0.002670
v 0.855651 1.080909 0.004007
v 0.854988 1.083371 0.003359
v 0.855425 1.081485 0.006539
v 0.870178 1.086731 0.003856
v 0.870240 1.087048 0.006204
v 0.869325 1.088036 0.003144
v 0.885416 1.098465 0.001869
v 0.882370 1.100083 -0.000369
v 0.883755 1.099836 0.005251
v 0.893104 1.118885 0.000767
v 0.896838 1.141056 0.001649
v 0.888045 1.118909 -0.004894
v 0.887934 1.119280 0.005973
v 0.882399 1.119369 0.000551
v 0.886926 1.140771 0.010341
v 0.878087 1.141420 0.000439
v 0.885873 1.162532 0.010248
v 0.896757 1.162570 0.002046
v 0.878212 1.162681 -0.000667
v 0.885153 1.178151 0.010254
v 0.896672 1.178204 0.002398
v 0.884953 1.189360 0.007676
v 0.878441 1.179165 -0.000763
v 0.883939 1.191919 0.001000
v 0.888774 1.178944 -0.007843
v 0.888936 1.190357 -0.005371
v 0.888737 1.162666 -0.008708
v 0.888058 1.140953 -0.008523
v 0.894526 1.190156 0.001992
v 0.881394 1.101149 0.002788
v 0.869332 1.088669 0.005378
v 0.854897 1.083515 0.006289
v 0.844510 1.080875 0.007540
v 0.837938 1.077667 0.009537
v 0.832699 1.076757 0.013162
v 0.832399 1.067640 0.013710
v 0.834890 1.043465 0.005699
v 0.843832 1.055131 0.016018
v 0.834176 1.055150 0.024773
v 0.833636 1.043969 0.009892
v 0.833859 1.043030 0.001172
v 0.831413 1.023215 0.002504
v 0.829646 1.023152 0.000232
v 0.829168 1.080757 0.026626
v 0.829163 1.083142 0.025692
v 0.829970 1.087297 0.038657
v 0.827747 1.086597 0.039415
v 0.832358 1.101346 0.052089
v 0.830176 1.089252 0.037134
v 0.831958 1.103295 0.048118
v 0.828173 1.090322 0.036509
v 0.826163 1.089494 0.037239
v 0.828732 1.104071 0.046557
v 0.828465 1.123561 0.048979
v 0.825882 1.103465 0.047553
v 0.824999 1.123410 0.050012
v 0.824277 1.101759 0.050919
v 0.825839 1.087608 0.038619
v 0.827425 1.100319 0.054164
v 0.824118 1.123242 0.053621
v 0.826919 1.123335 0.055749
v 0.821768 1.144635 0.053969
v 0.817657 1.166536 0.054004
v 0.825915 1.144901 0.058260
v 0.823034 1.144678 0.047808
v 0.828514 1.144856 0.046357
v 0.819994 1.167132 0.044132
v 0.829535 1.166907 0.041174
v 0.819705 1.192281 0.044070
v 0.817908 1.192373 0.053061
v 0.820633 1.212706 0.043752
v 0.829121 1.192296 0.041579
v 0.835205 1.192297 0.048544
v 0.829634 1.212339 0.042255
v 0.835900 1.212590 0.048657
v 0.829580 1.222709 0.042749
v 0.834098 1.226782 0.047490
v 0.822396 1.226260 0.043469
v 0.827618 1.233641 0.045028
v 0.819104 1.229082 0.052027
v 0.824884 1.228313 0.059182
v 0.826647 1.239477 0.049950
v 0.817390 1.213081 0.053318
v 0.824362 1.213338 0.060336
v 0.833246 1.213024 0.057611
v 0.824071 1.192540 0.060115
v 0.824477 1.166956 0.060758
v 0.832852 1.192465 0.057458
v 0.833817 1.167240 0.058071
v 0.836043 1.167012 0.048577
v 0.831188 1.144926 0.056563
v 0.830014 1.123446 0.054819
v 0.832374 1.145022 0.050499
v 0.830993 1.123490 0.051747
v 0.831785 1.229451 0.055486
v 0.809092 1.085536 0.006050
v 0.809882 1.085431 0.003405
v 0.803979 1.089614 0.005547
v 0.798572 1.094977 0.004909
v 0.804709 1.088834 0.003025
v 0.801996 1.088096 0.006171
v 0.796895 1.093619 0.005338
v 0.795605 1.092473 0.004013
v 0.790330 1.102561 0.004405
v 0.792443 1.103387 0.003541
v 0.788992 1.101449 0.002709
v 0.784078 1.118705 0.004085
v 0.781770 1.117967 0.000539
v 0.780801 1.139425 0.005413
v 0.787981 1.119319 0.003230
v 0.789640 1.119398 -0.000281
v 0.787665 1.139651 0.005854
v 0.787705 1.162240 0.007437
v 0.791819 1.139707 -0.000713
v 0.787961 1.139388 -0.007336
v 0.792650 1.162237 -0.000520
v 0.792568 1.182475 -0.000302
v 0.788727 1.162097 -0.008724
v 0.779800 1.161945 -0.009394
v 0.788871 1.182502 -0.008983
v 0.779875 1.182422 -0.009436
v 0.788647 1.196989 -0.009301
v 0.786696 1.209472 -0.009192
v 0.780056 1.197317 -0.009257
v 0.792988 1.197107 -0.000683
v 0.791842 1.209508 -0.002245
v 0.787438 1.197638 0.007729
v 0.778257 1.197892 0.005714
v 0.787355 1.182511 0.007555
v 0.786344 1.209071 0.006154
v 0.781484 1.210403 0.003300
v 0.789673 1.214242 -0.003454
v 0.775855 1.208201 -0.003927
v 0.774648 1.197515 -0.002664
v 0.782499 1.210329 -0.008330
v 0.774687 1.182395 -0.002032
v 0.775290 1.161926 -0.001658
v 0.778503 1.182465 0.006225
v 0.779145 1.162006 0.006438
v 0.776973 1.139365 -0.000872
v 0.780555 1.139337 -0.007302
v 0.783679 1.117929 -0.003285
v 0.787495 1.118678 -0.003575
v 0.789971 1.101498 0.000418
v 0.791962 1.102679 0.000067
v 0.797517 1.093643 0.001598
v 0.793088 1.103541 0.001768
v 0.798787 1.095038 0.002870
v 0.751710 1.139776 0.005559
v 0.754027 1.175188 -0.003310
v 0.749874 1.172655 0.003342
v 0.745676 1.178392 -0.000120
vn -0.7415 0.5990 0.3022
vn -0.4245 0.2482 -0.8708
vn -0.5474 0.0170 -0.8367
vn -0.8438 0.0309 0.5358
vn 0.5243 0.0461 0.8503
vn 0.4091 0.3038 0.8605
vn -0.8495 -0.0741 0.5224
vn 0.5365 -0.0152 0.8438
vn -0.5469 -0.0511 -0.8357
vn 0.8186 0.0366 -0.5733
vn 0.8274 0.0097 -0.5616
vn 0.6611 0.6840 -0.3083
vn -0.8550 -0.1537 0.4954
vn -0.5131 -0.1816 -0.8389
vn 0.8480 -0.0146 -0.5298
vn -0.4011 -0.4290 -0.8094
vn 0.8214 0.2107 -0.5300
vn -0.7820 -0.4048 0.4739
vn 0.5109 0.0078 0.8596
vn 0.3841 0.2050 0.9002
vn 0.5689 0.6595 -0.4913
vn -0.2153 -0.4834 -0.8485
vn 0.2395 0.3719 0.8969
vn 0.2361 0.9175 -0.3202
vn -0.1425 -0.2724 -0.9516
vn 0.1417 0.2798 0.9496
vn -0.2354 -0.9289 0.2858
vn -0.4828 -0.7389 0.4700
vn -0.0859 -0.9863 0.1409
vn 0.0328 0.0151 0.9993
vn -0.1311 -0.1474 -0.9803
vn -0.0170 -0.9919 0.1257
vn -0.1022 -0.1350 0.9856
vn -0.1934 -0.1483 -0.9698
vn -0.0126 0.9952 -0.0972
vn -0.8834 0.3609 -0.2991
vn -0.0546 0.2328 -0.9710
vn -0.1680 -0.2212 -0.9606
vn -0.6625 -0.5109 -0.5479
vn 0.1227 0.0221 -0.9922
vn -0.7548 -0.5100 0.4124
vn -0.6614 -0.3280 0.6745
vn -0.3835 -0.1866 0.9045
vn -0.2412 -0.9686 0.0602
vn -0.1844 -0.0071 0.9828
vn -0.1208 0.0544 0.9912
vn -0.4060 -0.3364 0.8497
vn -0.4735 0.0225 0.8805
vn -0.6146 -0.7883 -0.0308
vn -0.2164 -0.2448 -0.9451
vn -0.0023 0.3434 -0.9392
vn -0.4416 0.2119 -0.8718
vn -0.3499 -0.2423 -0.9049
vn -0.7738 -0.5950 -0.2172
vn -0.3504 -0.1753 -0.9201
vn -0.7896 -0.5283 -0.3122
vn -0.3863 -0.3817 -0.8397
vn -0.3885 -0.6217 -0.6801
vn -0.8138 0.2046 -0.5439
vn -0.5068 0.8549 -0.1113
vn 0.3648 0.7857 -0.4996
vn 0.2959 0.8931 -0.3387
vn 0.2196 -0.3244 -0.9201
vn -0.2190 0.0976 -0.9708
vn 0.7518 -0.4638 -0.4688
vn -0.2462 -0.7935 -0.5566
vn 0.9517 -0.2783 -0.1298
vn -0.9518 0.2351 -0.1969
vn -0.9930 0.0086 -0.1178
vn -0.0012 -0.8253 -0.5647
vn 0.9941 -0.1000 0.0429
vn 0.2138 0.9316 0.2940
vn 0.0045 0.8244 0.5660
vn -0.1718 0.4797 0.8605
vn 0.9886 0.0495 0.1421
vn 0.2051 -0.5688 -0.7965
vn -0.9686 -0.1435 -0.2029
vn 0.3030 -0.2250 -0.9261
vn -0.9332 -0.1702 -0.3164
vn -0.3182 0.0837 0.9443
vn -0.4217 -0.1246 0.8981
vn -0.8910 -0.1634 -0.4236
vn 0.4043 -0.1630 -0.9000
vn -0.8763 -0.0708 -0.4765
vn 0.4696 -0.0761 -0.8796
vn -0.5011 -0.0754 0.8621
vn 0.8720 -0.0728 0.4841
vn 0.9034 -0.1124 0.4139
vn 0.9589 0.0093 0.2837
vn 0.8456 0.0094 0.5338
vn -0.5463 0.0192 0.8373
vn -0.8479 0.0124 -0.5301
vn -0.4504 0.5936 0.6669
vn -0.6706 0.5694 -0.4754
vn 0.6877 0.5829 0.4327
vn 0.4305 0.5657 -0.7034
vn 0.5283 0.0037 -0.8490
vn 0.8552 0.2708 -0.4418
vn -0.9181 0.3817 -0.1068
vn 0.0623 0.4273 -0.9020
vn 0.8970 0.4415 -0.0217
vn 0.5835 0.1706 -0.7940
vn 0.4202 -0.0902 -0.9029
vn 0.6238 0.7815 0.0129
vn 0.2177 0.5459 0.8091
vn 0.6816 0.4838 0.5489
vn 0.9806 0.1946 0.0231
vn 0.0354 0.1190 0.9923
vn 0.0376 0.2085 -0.9773
vn 0.9928 0.0888 0.0800
vn -0.0757 0.0889 0.9932
vn 0.0896 0.0961 -0.9913
vn 0.0772 0.0535 -0.9956
vn 0.9920 0.0834 0.0946
vn -0.1247 0.1197 0.9849
vn 0.8327 0.5537 0.0026
vn -0.1147 0.7001 0.7047
vn 0.0046 0.5936 -0.8047
vn -0.9895 0.0902 -0.1134
vn -0.7881 0.6010 -0.1330
vn -0.9925 0.0916 -0.0808
vn -0.9940 0.1085 0.0155
vn -0.1682 0.8934 0.4165
vn 0.8264 0.4821 0.2908
vn 0.8827 0.4414 -0.1610
vn 0.0002 0.9581 -0.2865
vn -0.3477 0.5927 0.7265
vn -0.7687 0.5245 0.3662
vn -0.8443 0.5356 -0.0182
vn -0.8769 -0.0194 0.4802
vn -0.9405 -0.1930 0.2796
vn -0.6281 -0.2116 0.7488
vn -0.6486 -0.2950 0.7017
vn -0.2857 -0.8193 0.4971
vn 0.6553 -0.3112 0.6883
vn 0.7709 -0.5678 0.2887
vn -0.7657 -0.1131 0.6332
vn -0.0539 -0.0353 0.9979
vn -0.7330 -0.2803 0.6199
vn -0.5460 -0.3500 0.7612
vn -0.2776 -0.8907 0.3600
vn -0.4908 0.0409 0.8703
vn -0.3441 -0.5332 -0.7728
vn -0.2119 0.8511 -0.4803
vn -0.5621 0.3922 0.7282
vn -0.9623 0.1413 0.2324
vn -0.0822 0.0284 0.9962
vn -0.8598 0.1576 -0.4857
vn -0.8560 -0.4506 0.2535
vn -0.8376 -0.4645 -0.2876
vn -0.5536 -0.4042 0.7281
vn -0.0322 -0.0957 0.9949
vn -0.9406 -0.0075 0.3394
vn -0.6633 -0.0291 0.7478
vn -0.0623 -0.0815 0.9947
vn 0.6276 -0.0088 0.7785
vn 0.2305 0.3928 0.8903
vn 0.3635 -0.4026 0.8401
vn 0.0577 0.0698 0.9959
vn 0.4921 -0.0559 0.8687
vn 0.4549 0.1462 0.8785
vn -0.0869 0.1574 0.9837
vn -0.5730 0.1477 0.8061
vn 0.7150 -0.4936 0.4952
vn 0.8252 -0.0480 0.5628
vn 0.8498 0.1500 0.5053
vn -0.0441 0.6341 0.7720
vn 0.5026 0.4653 0.7286
vn 0.7452 0.5217 0.4153
vn 0.7225 0.6777 -0.1367
vn 0.9851 0.1658 -0.0458
vn 0.9963 -0.0374 0.0774
vn 0.8301 0.1500 -0.5371
vn 0.9115 -0.0443 -0.4090
vn 0.6146 0.6144 -0.4948
vn 0.9843 0.1312 -0.1183
vn 0.8113 0.0912 -0.5774
vn 0.9155 0.1611 0.3688
vn 0.7780 -0.6083 0.1570
vn 0.7519 -0.5896 -0.2951
vn 0.7905 -0.0256 0.6119
vn 0.5412 -0.3760 0.7522
vn 0.8494 -0.3663 0.3800
vn 0.9719 -0.1522 0.1793
vn 0.8820 -0.0971 -0.4612
vn 0.5303 -0.5553 -0.6406
vn 0.4566 0.0996 -0.8841
vn 0.1359 -0.5337 -0.8347
vn 0.4350 -0.0954 -0.8954
vn 0.0233 0.0687 -0.9974
vn 0.0304 0.6292 -0.7766
vn 0.3653 0.6043 -0.7081
vn 0.5410 0.1307 -0.8308
vn 0.0866 0.1296 -0.9878
vn -0.4379 0.1201 -0.8910
vn -0.3625 0.5778 -0.7313
vn -0.4556 0.0893 -0.8857
vn 0.1854 -0.0526 -0.9813
vn 0.6305 -0.0497 -0.7746
vn -0.3105 -0.0453 -0.9495
vn -0.7966 0.1088 -0.5946
vn -0.7162 -0.0400 -0.6968
vn -0.6822 0.5673 -0.4614
vn -0.8170 0.5693 -0.0918
vn -0.9852 0.1156 -0.1267
vn -0.9785 -0.0225 -0.2048
vn -0.9058 0.1348 0.4016
vn -0.7395 0.5824 0.3376
vn -0.8513 0.0829 -0.5180
vn -0.9928 0.0793 -0.0894
vn -0.9304 0.0841 0.3567
vn -0.4434 0.5826 0.6812
vn -0.5697 0.0978 0.8160
vn -0.8420 -0.5240 -0.1285
vn -0.8006 -0.5350 0.2698
vn -0.5128 -0.5599 0.6508
vn -0.9653 -0.0926 0.2440
vn -0.6643 -0.1103 0.7393
vn -0.9550 -0.0947 -0.2810
vn -0.6827 -0.5296 -0.5035
vn -0.6790 -0.0979 -0.7276
vn -0.5259 0.2915 -0.7990
vn -0.8774 0.2862 -0.3850
vn -0.9501 0.2891 0.1172
vn -0.4146 0.8885 -0.1967
vn -0.4882 0.8725 0.0198
vn -0.2185 0.9073 -0.3592
vn 0.0389 0.2761 -0.9604
vn 0.0534 0.8980 -0.4367
vn -0.1871 -0.1008 -0.9772
vn 0.6370 0.2639 -0.7243
vn 0.3426 0.8940 -0.2887
vn 0.1633 0.5883 -0.7920
vn -0.4282 0.5911 -0.6835
vn 0.6907 0.6041 -0.3975
vn 0.7731 0.6341 0.0177
vn 0.4963 0.8681 0.0079
vn 0.9527 0.2708 -0.1382
vn 0.6678 0.5653 0.4842
vn 0.3617 0.8849 0.2936
vn 0.8353 0.2827 0.4716
vn 0.5680 -0.1094 0.8157
vn 0.3783 0.2857 0.8805
vn 0.1074 0.8895 0.4442
vn -0.1002 -0.1199 0.9877
vn -0.2430 0.3060 0.9205
vn -0.1743 0.9061 0.3854
vn -0.4210 0.4748 0.7729
vn 0.1488 0.4500 0.8806
vn -0.7487 0.3067 0.5877
vn -0.3954 0.8877 0.2358
vn -0.6362 0.7093 0.3036
vn -0.4185 -0.3040 0.8558
vn 0.0558 -0.5692 0.8203
vn -0.8403 0.4008 0.3650
vn -0.0357 -0.6430 0.7650
vn -0.3980 0.2886 0.8708
vn 0.0650 -0.6657 0.7434
vn -0.7515 0.6180 0.2308
vn 0.0087 -0.6662 0.7457
vn 0.5491 -0.1328 0.8252
vn 0.0565 -0.6192 0.7832
vn 0.0264 -0.8912 0.4528
vn -0.0049 -0.8999 0.4362
vn 0.0056 -0.9202 0.3914
vn 0.0216 -0.9996 0.0173
vn 0.0086 -0.9999 -0.0068
vn -0.0037 -0.9989 0.0471
vn -0.3503 -0.9356 0.0451
vn -0.4013 -0.8657 0.2993
vn -0.0261 -0.3917 0.9197
vn -0.0941 -0.4853 0.8693
vn -0.1889 -0.8768 0.4423
vn -0.2729 -0.9597 0.0667
vn 0.6407 -0.6586 0.3947
vn 0.6883 -0.7188 0.0977
vn 0.8225 0.0662 0.5650
vn 0.9817 0.1836 0.0503
vn 0.6316 0.5094 0.5845
vn 0.7550 0.6553 0.0255
vn 0.7420 0.6535 -0.1495
vn 0.9778 0.1850 -0.0986
vn 0.6771 -0.7261 -0.1197
vn 0.8967 0.4425 0.0093
vn 0.7111 0.2821 -0.6440
vn 0.7621 0.0158 -0.6473
vn 0.4157 0.3909 -0.8212
vn 0.0717 -0.7193 -0.6910
vn -0.1592 -0.6237 -0.7653
vn -0.0433 -0.7536 -0.6559
vn -0.0633 -0.5811 -0.8114
vn 0.0128 -0.5520 -0.8337
vn -0.0153 -0.8683 -0.4959
vn -0.0395 -0.7999 -0.5988
vn -0.0121 -0.8216 -0.5700
vn -0.0545 -0.7954 -0.6036
vn -0.4986 -0.3768 -0.7806
vn -0.0451 -0.9652 -0.2576
vn -0.0259 -0.9628 -0.2689
vn -0.0044 -0.9684 -0.2492
vn -0.0098 -1.0000 0.0001
vn 0.0004 -1.0000 -0.0068
vn 0.0015 -0.9997 -0.0241
vn 0.0769 -0.9968 -0.0196
vn 0.1283 -0.9721 -0.1963
vn 0.1593 -0.8330 -0.5298
vn 0.3537 -0.8102 -0.4674
vn 0.3062 -0.9405 -0.1472
vn 0.3143 -0.9486 -0.0377
vn -0.2011 -0.9730 -0.1131
vn -0.0095 -0.9979 -0.0643
vn -0.0469 -0.9101 -0.4118
vn 0.3204 -0.9473 0.0073
vn 0.1651 -0.9861 0.0179
vn 0.0390 -0.9992 0.0053
vn 0.0712 -0.9660 0.2486
vn 0.1940 -0.9750 0.1085
vn 0.1856 -0.9697 0.1589
vn 0.1208 -0.7356 0.6666
vn -0.0090 -0.4725 0.8813
vn -0.6561 -0.3537 0.6666
vn -0.8498 -0.5090 0.1369
vn -0.6265 0.6335 0.4540
vn -0.8315 0.5539 0.0434
vn -0.8958 0.4444 -0.0022
vn -0.8593 -0.5113 0.0091
vn -0.8371 0.5469 0.0096
vn -0.8618 0.5057 -0.0411
vn -0.8155 0.5557 -0.1617
vn -0.9572 -0.2885 -0.0242
vn -0.7252 0.6110 -0.3176
vn -0.9877 -0.0440 -0.1501
vn -0.5066 -0.1127 -0.8548
vn -0.1019 -0.0753 -0.9919
vn -0.6331 0.3482 -0.6914
vn -0.0402 -0.5380 -0.8420
vn -0.8299 0.4412 -0.3415
vn -0.8690 0.4948 0.0003
vn -0.5668 0.8239 -0.0021
vn -0.6217 0.7253 -0.2957
vn -0.3261 -0.9453 -0.0078
vn -0.3119 -0.9179 -0.2453
vn -0.2645 -0.9632 -0.0470
vn -0.1704 -0.8963 -0.4093
vn 0.6055 -0.6732 -0.4245
vn -0.0978 -0.5752 0.8121
vn 0.3796 0.0767 0.9220
vn -0.1016 0.1044 0.9893
vn -0.3363 -0.5387 -0.7725
vn -0.5234 -0.4690 -0.7114
vn -0.4879 0.2224 -0.8441
vn -0.0542 0.2262 -0.9726
vn -0.1173 -0.4749 -0.8722
vn 0.3845 0.2216 -0.8961
vn 0.2815 -0.4844 -0.8283
vn 0.6236 -0.4641 -0.6291
vn 0.7147 0.2110 -0.6668
vn 0.2676 0.7549 -0.5987
vn 0.9044 0.2195 -0.3659
vn 0.9728 0.2254 0.0530
vn 0.7468 0.6395 -0.1827
vn 0.8705 -0.2332 -0.4335
vn 0.6236 0.7044 0.3389
vn 0.8109 0.2189 0.5427
vn 0.8150 -0.1930 0.5463
vn 0.6419 -0.3570 -0.6786
vn 0.5086 -0.5354 0.6742
vn 0.3365 -0.7539 -0.5642
vn 0.2711 -0.5716 0.7745
vn 0.0630 0.8721 -0.4852
vn -0.1154 0.6110 -0.7831
vn -0.2360 0.2594 -0.9365
vn 0.4542 -0.8146 -0.3608
vn 0.2635 -0.3950 0.8801
vn 0.7925 -0.5871 -0.1647
vn 0.2367 -0.1750 0.9557
vn -0.1418 -0.1210 -0.9825
vn 0.0399 -0.1979 -0.9794
vn 0.9670 -0.2542 -0.0172
vn 0.0548 -0.1476 0.9875
vn 0.0677 -0.0877 -0.9938
vn 0.9936 -0.0770 0.0826
vn -0.0702 -0.0941 0.9931
vn -0.9936 -0.0957 -0.0599
vn -0.9985 -0.0530 -0.0095
vn -0.8809 0.4209 0.2165
vn -0.1465 0.0022 0.9892
vn -0.9883 0.0004 -0.1526
vn 0.9919 0.0119 0.1268
vn 0.9800 0.1077 0.1671
vn -0.2150 0.1218 0.9690
vn -0.9672 0.1541 -0.2017
vn 0.7799 0.6050 0.1605
vn -0.2462 0.5831 0.7742
vn -0.5472 0.8333 -0.0786
vn 0.1288 0.1513 -0.9801
vn 0.1250 0.6580 -0.7425
vn 0.1287 0.0101 -0.9916
vn -0.4732 0.7470 0.4669
vn -0.1668 0.7324 0.6601
vn 0.0416 0.5968 0.8013
vn 0.4731 0.3341 0.8152
vn 0.7376 0.1529 0.6577
vn 0.8699 -0.4860 0.0845
vn 0.8187 -0.4803 -0.3149
vn 0.8891 0.2903 -0.3538
vn 0.7857 -0.5362 0.3085
vn -0.1304 -0.8021 0.5828
vn 0.8000 -0.2545 0.5434
vn -0.1529 -0.4272 0.8911
vn 0.9164 0.1571 -0.3680
vn 0.0270 0.7422 -0.6696
vn 0.1149 0.3671 -0.9231
vn -0.8090 0.4518 -0.3761
vn -0.7651 0.2172 -0.6061
vn 0.2298 0.0094 -0.9732
vn 0.9555 0.0146 -0.2947
vn -0.7262 -0.0317 -0.6867
vn -0.9190 -0.3137 0.2387
vn -0.9452 -0.1684 0.2798
vn -0.9531 -0.0816 0.2913
vn -0.1994 -0.1003 0.9748
vn -0.2249 -0.1216 0.9668
vn -0.9454 -0.1469 0.2911
vn -0.7164 -0.1759 -0.6752
vn -0.9598 -0.0830 0.2682
vn -0.2540 -0.0488 0.9660
vn -0.7214 -0.1027 -0.6848
vn 0.2761 -0.1028 -0.9556
vn 0.2701 -0.1758 -0.9466
vn 0.2846 0.0099 -0.9586
vn -0.7149 0.0067 -0.6992
vn -0.9689 0.0032 0.2476
vn -0.6633 0.0397 -0.7473
vn -0.9732 0.0554 0.2230
vn 0.3163 0.0165 -0.9485
vn 0.9712 0.0073 -0.2383
vn 0.9662 -0.0712 -0.2478
vn 0.9734 0.0367 -0.2262
vn 0.3287 0.1007 -0.9391
vn 0.8805 0.2844 -0.3792
vn -0.4995 0.2549 -0.8279
vn 0.1525 0.6631 -0.7328
vn -0.8770 0.4460 0.1787
vn -0.0098 0.9997 0.0238
vn -0.2419 0.0569 0.9686
vn -0.2192 0.3366 0.9158
vn 0.6381 0.4830 0.5996
vn -0.2667 0.0072 0.9637
vn 0.7276 0.0544 0.6839
vn 0.7165 0.0080 0.6976
vn 0.7311 -0.0440 0.6808
vn 0.9590 -0.1334 -0.2501
vn 0.7228 -0.1114 0.6820
vn 0.7473 -0.0501 0.6625
vn 0.2464 0.6338 0.7332
vn 0.5623 0.6735 -0.4799
vn 0.4726 0.6073 0.6386
vn 0.7378 0.5579 -0.3800
vn 0.5227 0.5260 0.6709
vn -0.2360 -0.0612 0.9698
vn -0.3023 -0.0904 0.9489
vn -0.8612 -0.4683 0.1976
vn 0.5839 0.3351 0.7394
vn 0.5685 0.0486 0.8213
vn -0.4162 -0.1313 0.8997
vn -0.9509 -0.3011 0.0715
vn -0.9890 -0.1474 0.0073
vn -0.5133 -0.1083 0.8513
vn 0.4752 -0.0737 0.8768
vn 0.9138 0.3517 -0.2032
vn 0.9967 0.0430 -0.0695
vn 0.9973 -0.0724 0.0128
vn -0.5717 -0.0426 0.8193
vn 0.4302 -0.0273 0.9023
vn 0.9982 -0.0221 0.0558
vn 0.5010 -0.1176 -0.8574
vn 0.5510 -0.0371 -0.8337
vn 0.4325 -0.1307 -0.8921
vn 0.9968 -0.0068 0.0803
vn 0.4025 0.0009 0.9154
vn 0.5614 -0.0090 -0.8275
vn -0.5016 -0.1581 -0.8505
vn -0.4662 -0.0516 -0.8832
vn -0.4434 -0.0097 -0.8963
vn 0.5198 0.0280 -0.8538
vn 0.9965 0.0570 0.0614
vn -0.4293 0.0346 -0.9025
vn 0.4479 0.2598 -0.8555
vn 0.8702 0.4927 -0.0089
vn -0.2885 0.5995 -0.7466
vn 0.3190 0.4319 0.8436
vn 0.3695 0.0996 0.9239
vn -0.6336 0.1187 0.7645
vn -0.6050 -0.0017 0.7962
vn -0.3980 0.6977 0.5956
vn 0.2656 0.9553 -0.1297
vn -0.8601 0.4813 -0.1693
vn -0.9876 0.1011 -0.1204
vn -0.9963 -0.0104 -0.0853
vn -0.9978 -0.0521 -0.0421
vn -0.5232 -0.3008 -0.7973
vn -0.5255 -0.4355 -0.7309
vn 0.3458 -0.0407 -0.9374
vn -0.1824 0.9813 0.0610
vt 0.053981 0.045486
vt 0.053314 0.039250
vt 0.058891 0.037869
vt 0.061330 0.043145
vt 0.062709 0.048749
vt 0.056112 0.049969
vt 0.068968 0.041013
vt 0.070884 0.045855
vt 0.067317 0.035785
vt 0.059124 0.033661
vt 0.066797 0.030428
vt 0.464699 0.034634
vt 0.464723 0.027866
vt 0.469776 0.026758
vt 0.471188 0.035377
vt 0.077962 0.037300
vt 0.076899 0.032727
vt 0.076691 0.027668
vt 0.086647 0.031315
vt 0.086283 0.028252
vt 0.087536 0.034802
vt 0.072819 0.050801
vt 0.080100 0.041640
vt 0.081834 0.046213
vt 0.089082 0.040495
vt 0.088106 0.037792
vt 0.094437 0.028402
vt 0.095108 0.030302
vt 0.096259 0.036817
vt 0.095981 0.035178
vt 0.100937 0.027083
vt 0.101569 0.028879
vt 0.102157 0.033139
vt 0.102747 0.034806
vt 0.101950 0.031363
vt 0.095702 0.032699
vt 0.106956 0.030300
vt 0.107288 0.032444
vt 0.106622 0.027878
vt 0.110765 0.029867
vt 0.111193 0.031197
vt 0.110796 0.027416
vt 0.107921 0.034804
vt 0.107755 0.033625
vt 0.113014 0.032823
vt 0.111805 0.035273
vt 0.103101 0.035940
vt 0.960815 0.907075
vt 0.961975 0.903411
vt 0.963531 0.903375
vt 0.962958 0.908732
vt 0.960559 0.899015
vt 0.960957 0.898508
vt 0.949874 0.390524
vt 0.949940 0.391411
vt 0.945479 0.389296
vt 0.946467 0.388745
vt 0.113589 0.031544
vt 0.114873 0.032916
vt 0.113139 0.029837
vt 0.963795 0.898741
vt 0.964109 0.897130
vt 0.965853 0.896971
vt 0.966359 0.899274
vt 0.968244 0.895626
vt 0.970185 0.898608
vt 0.963564 0.913184
vt 0.960795 0.913877
vt 0.959041 0.910231
vt 0.961495 0.910165
vt 0.959775 0.908068
vt 0.965080 0.910319
vt 0.966441 0.906829
vt 0.971487 0.910205
vt 0.967908 0.914239
vt 0.965453 0.916367
vt 0.970382 0.920035
vt 0.966302 0.920243
vt 0.974665 0.913727
vt 0.977907 0.910241
vt 0.976718 0.908137
vt 0.971629 0.904332
vt 0.977423 0.903719
vt 0.967116 0.903260
vt 0.897629 0.418742
vt 0.897719 0.414643
vt 0.899541 0.413907
vt 0.899133 0.418963
vt 0.897610 0.410842
vt 0.899856 0.410315
vt 0.897730 0.406818
vt 0.899847 0.406593
vt 0.895310 0.410686
vt 0.895609 0.406702
vt 0.895748 0.401890
vt 0.897275 0.401944
vt 0.899274 0.401831
vt 0.902055 0.406328
vt 0.902956 0.410030
vt 0.901427 0.401344
vt 0.899987 0.394448
vt 0.898938 0.394150
vt 0.897261 0.394745
vt 0.895317 0.394666
vt 0.894130 0.401845
vt 0.893486 0.394840
vt 0.893958 0.406869
vt 0.897025 0.385362
vt 0.893527 0.385512
vt 0.892043 0.386978
vt 0.986721 0.684391
vt 0.986737 0.687152
vt 0.977814 0.688031
vt 0.977279 0.683040
vt 0.891842 0.375913
vt 0.896832 0.375797
vt 0.891371 0.365957
vt 0.897633 0.365710
vt 0.967422 0.682889
vt 0.968104 0.689442
vt 0.969083 0.696358
vt 0.978519 0.693098
vt 0.987058 0.689717
vt 0.957719 0.696212
vt 0.958279 0.689437
vt 0.956205 0.683186
vt 0.952330 0.690352
vt 0.948818 0.684357
vt 0.950186 0.696932
vt 0.898777 0.347527
vt 0.905004 0.348288
vt 0.905295 0.355529
vt 0.897775 0.354806
vt 0.903538 0.366265
vt 0.945429 0.690905
vt 0.891647 0.347747
vt 0.890040 0.355247
vt 0.901736 0.376052
vt 0.900867 0.386311
vt 0.902392 0.387097
vt 0.892851 0.410561
vt 0.038804 0.291332
vt 0.034468 0.289600
vt 0.035292 0.285343
vt 0.039929 0.287386
vt 0.973190 0.901618
vt 0.977280 0.901048
vt 0.035212 0.293108
vt 0.040189 0.293853
vt 0.031968 0.288301
vt 0.031600 0.283869
vt 0.030597 0.290994
vt 0.013223 0.278311
vt 0.016052 0.278244
vt 0.017135 0.283960
vt 0.014389 0.282773
vt 0.716917 0.024388
vt 0.720629 0.024687
vt 0.720622 0.029292
vt 0.715563 0.029010
vt 0.711841 0.027114
vt 0.713191 0.023487
vt 0.718152 0.018052
vt 0.720371 0.019029
vt 0.715003 0.017685
vt 0.715516 0.011216
vt 0.717453 0.010703
vt 0.011230 0.122324
vt 0.011175 0.115848
vt 0.014161 0.116724
vt 0.013954 0.122743
vt 0.717953 0.007455
vt 0.719081 0.007109
vt 0.719520 0.009763
vt 0.715603 0.007919
vt 0.713777 0.010727
vt 0.715073 0.007050
vt 0.711800 0.016889
vt 0.008928 0.122239
vt 0.009497 0.125963
vt 0.007989 0.125653
vt 0.008464 0.115915
vt 0.008454 0.109930
vt 0.010878 0.109864
vt 0.709359 0.022861
vt 0.723673 0.027388
vt 0.724543 0.030832
vt 0.706527 0.026018
vt 0.433423 0.782659
vt 0.427491 0.783934
vt 0.429926 0.782328
vt 0.434007 0.781216
vt 0.007533 0.126781
vt 0.008918 0.127536
vt 0.425700 0.783361
vt 0.427050 0.780325
vt 0.421830 0.785042
vt 0.421996 0.785490
vt 0.432290 0.783398
vt 0.427612 0.784851
vt 0.422130 0.786124
vt 0.427867 0.785551
vt 0.422430 0.787412
vt 0.432473 0.783916
vt 0.957879 0.916271
vt 0.960271 0.919831
vt 0.956013 0.922221
vt 0.953178 0.920310
vt 0.428853 0.786971
vt 0.422933 0.788742
vt 0.428168 0.789932
vt 0.423461 0.790925
vt 0.958697 0.925414
vt 0.956830 0.927323
vt 0.952267 0.924640
vt 0.960973 0.924187
vt 0.962882 0.917575
vt 0.964912 0.923784
vt 0.965384 0.926010
vt 0.967956 0.922711
vt 0.972409 0.926336
vt 0.959103 0.929020
vt 0.966467 0.934120
vt 0.960311 0.934042
vt 0.971443 0.933821
vt 0.963450 0.943550
vt 0.967756 0.944183
vt 0.959487 0.940746
vt 0.957586 0.935385
vt 0.701090 0.696167
vt 0.698834 0.698314
vt 0.687538 0.692827
vt 0.688637 0.691236
vt 0.694155 0.714887
vt 0.689609 0.715364
vt 0.678122 0.708359
vt 0.678181 0.707364
vt 0.021749 0.275375
vt 0.020440 0.272338
vt 0.022808 0.265175
vt 0.023495 0.270777
vt 0.689352 0.711125
vt 0.699956 0.716968
vt 0.695464 0.718098
vt 0.678084 0.706290
vt 0.665255 0.702360
vt 0.663868 0.703982
vt 0.664199 0.705589
vt 0.690122 0.710166
vt 0.678935 0.705152
vt 0.664621 0.700201
vt 0.651012 0.703488
vt 0.650526 0.699855
vt 0.652313 0.695276
vt 0.656139 0.693566
vt 0.668107 0.699341
vt 0.679600 0.704442
vt 0.668492 0.697346
vt 0.680607 0.703389
vt 0.657716 0.691615
vt 0.645318 0.690512
vt 0.645788 0.687731
vt 0.646045 0.692686
vt 0.635671 0.689731
vt 0.635008 0.684910
vt 0.641750 0.697094
vt 0.633806 0.696669
vt 0.631832 0.691356
vt 0.623668 0.685487
vt 0.623236 0.680908
vt 0.635161 0.681163
vt 0.647317 0.684136
vt 0.635021 0.676575
vt 0.623466 0.676566
vt 0.648272 0.679992
vt 0.661274 0.685839
vt 0.659248 0.689575
vt 0.669552 0.695806
vt 0.670972 0.693641
vt 0.672729 0.691275
vt 0.663045 0.683252
vt 0.650797 0.675728
vt 0.682968 0.700323
vt 0.681900 0.702023
vt 0.684022 0.698536
vt 0.674382 0.688280
vt 0.685337 0.696846
vt 0.664547 0.680076
vt 0.667076 0.676621
vt 0.676063 0.685225
vt 0.686137 0.694801
vt 0.677638 0.682587
vt 0.667910 0.673140
vt 0.653215 0.672703
vt 0.653983 0.669156
vt 0.656049 0.665968
vt 0.678990 0.680328
vt 0.668659 0.670947
vt 0.656724 0.660578
vt 0.640935 0.665799
vt 0.643247 0.663474
vt 0.642936 0.661146
vt 0.627072 0.663872
vt 0.628463 0.661968
vt 0.625819 0.666600
vt 0.638737 0.668568
vt 0.624667 0.669666
vt 0.610747 0.664809
vt 0.612221 0.661063
vt 0.613251 0.656396
vt 0.600987 0.645878
vt 0.603504 0.641434
vt 0.597843 0.650308
vt 0.609914 0.668478
vt 0.594843 0.657804
vt 0.624056 0.672686
vt 0.608934 0.672886
vt 0.592017 0.668241
vt 0.588332 0.651737
vt 0.592292 0.642691
vt 0.586600 0.665766
vt 0.585915 0.678949
vt 0.590094 0.679242
vt 0.607850 0.678627
vt 0.581640 0.690477
vt 0.589453 0.688176
vt 0.606937 0.683667
vt 0.622893 0.689177
vt 0.605908 0.689108
vt 0.586005 0.695007
vt 0.620661 0.692035
vt 0.604442 0.691566
vt 0.588441 0.700083
vt 0.578403 0.707438
vt 0.572928 0.702043
vt 0.604538 0.693490
vt 0.587747 0.705941
vt 0.581621 0.713316
vt 0.945540 0.195150
vt 0.933924 0.185111
vt 0.938912 0.180025
vt 0.948782 0.188029
vt 0.928659 0.172335
vt 0.930041 0.168806
vt 0.944458 0.177959
vt 0.934481 0.169455
vt 0.939935 0.171657
vt 0.932084 0.163325
vt 0.952514 0.184390
vt 0.955438 0.195939
vt 0.955858 0.202349
vt 0.956425 0.192600
vt 0.033336 0.199536
vt 0.030618 0.208810
vt 0.024038 0.207544
vt 0.025741 0.201371
vt 0.948760 0.174208
vt 0.955647 0.179865
vt 0.958232 0.174933
vt 0.952561 0.170464
vt 0.020231 0.199937
vt 0.017981 0.205584
vt 0.021409 0.194516
vt 0.026327 0.196603
vt 0.031847 0.195973
vt 0.029971 0.194923
vt 0.026953 0.194123
vt 0.022375 0.191435
vt 0.026641 0.191045
vt 0.024649 0.188140
vt 0.029597 0.190705
vt 0.027166 0.185959
vt 0.033098 0.191413
vt 0.030344 0.183703
vt 0.022040 0.178361
vt 0.021314 0.182247
vt 0.019844 0.185129
vt 0.040142 0.195937
vt 0.033930 0.180319
vt 0.019877 0.170315
vt 0.016364 0.178892
vt 0.015600 0.174431
vt 0.019418 0.168498
vt 0.572326 0.653008
vt 0.572539 0.647895
vt 0.578834 0.655861
vt 0.569718 0.654743
vt 0.012715 0.181577
vt 0.010657 0.181740
vt 0.583541 0.645443
vt 0.580201 0.660774
vt 0.577337 0.641370
vt 0.573613 0.640642
vt 0.580019 0.628064
vt 0.584939 0.629965
vt 0.587445 0.631644
vt 0.569018 0.644308
vt 0.568928 0.635356
vt 0.575340 0.626005
vt 0.565009 0.641277
vt 0.563768 0.634391
vt 0.569939 0.623403
vt 0.956182 0.164930
vt 0.950617 0.161156
vt 0.952299 0.156169
vt 0.958557 0.159803
vt 0.953446 0.151976
vt 0.959236 0.156779
vt 0.948606 0.151558
vt 0.947828 0.154904
vt 0.947017 0.158298
vt 0.944228 0.153736
vt 0.942603 0.156328
vt 0.946083 0.151897
vt 0.944655 0.162447
vt 0.942587 0.160191
vt 0.948412 0.165676
vt 0.944210 0.169763
vt 0.942099 0.166397
vt 0.940578 0.163768
vt 0.939981 0.169120
vt 0.938405 0.168436
vt 0.936960 0.165521
vt 0.937631 0.162331
vt 0.935358 0.165801
vt 0.934155 0.163134
vt 0.936733 0.158619
vt 0.939665 0.158938
vt 0.934299 0.157863
vt 0.938498 0.152346
vt 0.936961 0.150293
vt 0.940157 0.154795
vt 0.942475 0.150417
vt 0.943174 0.152421
vt 0.945394 0.150912
vt 0.947621 0.149364
vt 0.944349 0.147696
vt 0.954338 0.148353
vt 0.960749 0.149784
vt 0.961264 0.143923
vt 0.591773 0.624677
vt 0.592165 0.629621
vt 0.588394 0.623006
vt 0.595807 0.619356
vt 0.595063 0.626716
vt 0.599270 0.632581
vt 0.595250 0.636286
vt 0.928216 0.158588
vt 0.599791 0.624197
vt 0.604238 0.630428
vt 0.607459 0.639727
vt 0.614986 0.654800
vt 0.961503 0.169916
vt 0.012791 0.204017
vt 0.014650 0.197556
vt 0.016163 0.191377
vt 0.568241 0.651321
vt 0.563496 0.647343
vt 0.017773 0.188015
vt 0.010556 0.186431
vt 0.013872 0.184213
vt 0.016346 0.182660
vt 0.581325 0.678790
vt 0.574439 0.690938
vt 0.619268 0.694044
vt 0.631506 0.699560
vt 0.629180 0.700924
vt 0.640890 0.701461
vt 0.641715 0.704656
vt 0.639409 0.709355
vt 0.652231 0.705951
vt 0.637504 0.672286
vt 0.697391 0.699542
vt 0.696394 0.700678
vt 0.974545 0.939346
vt 0.968721 0.946106
vt 0.707515 0.704013
vt 0.704120 0.706247
vt 0.693658 0.702262
vt 0.701542 0.707187
vt 0.693207 0.703788
vt 0.692654 0.706063
vt 0.700372 0.708737
vt 0.709112 0.710264
vt 0.701029 0.710503
vt 0.713016 0.708517
vt 0.701517 0.712327
vt 0.706062 0.713461
vt 0.028207 0.281833
vt 0.029213 0.275849
vt 0.033533 0.277870
vt 0.976275 0.925084
vt 0.973063 0.921567
vt 0.977348 0.918835
vt 0.979729 0.921987
vt 0.025812 0.273666
vt 0.026511 0.269421
vt 0.030536 0.270923
vt 0.023952 0.280534
vt 0.025280 0.287531
vt 0.022649 0.287020
vt 0.020125 0.293204
vt 0.018845 0.292835
vt 0.026154 0.290043
vt 0.021032 0.294070
vt 0.015263 0.301305
vt 0.014642 0.301218
vt 0.013918 0.300957
vt 0.437166 0.914249
vt 0.437137 0.922713
vt 0.434790 0.922290
vt 0.435832 0.914466
vt 0.438654 0.914595
vt 0.439871 0.923048
vt 0.440956 0.932609
vt 0.436686 0.932072
vt 0.432520 0.930849
vt 0.441837 0.943393
vt 0.435098 0.942376
vt 0.428820 0.940581
vt 0.422692 0.938147
vt 0.427953 0.929111
vt 0.432460 0.921737
vt 0.425648 0.950140
vt 0.419249 0.947594
vt 0.431785 0.952110
vt 0.428989 0.959392
vt 0.422531 0.957248
vt 0.416507 0.954644
vt 0.105426 0.970995
vt 0.110023 0.976997
vt 0.103938 0.978291
vt 0.100242 0.974389
vt 0.418863 0.961410
vt 0.414795 0.961124
vt 0.410564 0.952446
vt 0.410145 0.958443
vt 0.413030 0.944826
vt 0.438139 0.953485
vt 0.435006 0.960771
vt 0.108005 0.983730
vt 0.101980 0.982339
vt 0.416922 0.934755
vt 0.424222 0.926834
vt 0.099457 0.978455
vt 0.431036 0.920699
vt 0.435064 0.914254
vt 0.434514 0.914001
vt 0.013057 0.300653
vt 0.017702 0.292696
vt 0.011984 0.300554
vt 0.016409 0.292959
vt 0.020603 0.286853
vt 0.018037 0.287789
vt 0.020122 0.281991
vt 0.018627 0.278377
vt 0.015276 0.275756
vt 0.017095 0.275628
vt 0.691733 0.709486
vt 0.692645 0.708069
vt 0.700850 0.714419
vt 0.023154 0.265881
vt 0.713708 0.704566
vt 0.423795 0.792614
vt 0.428022 0.792718
vt 0.416908 0.793251
vt 0.416801 0.791613
vt 0.416590 0.790036
vt 0.408508 0.794681
vt 0.408020 0.791970
vt 0.409027 0.796903
vt 0.407683 0.784710
vt 0.416039 0.784999
vt 0.415881 0.786241
vt 0.407358 0.786381
vt 0.415957 0.787410
vt 0.407453 0.787782
vt 0.397569 0.786428
vt 0.397814 0.784340
vt 0.397263 0.788480
vt 0.416091 0.788584
vt 0.407823 0.789718
vt 0.397458 0.790801
vt 0.397711 0.793169
vt 0.387641 0.795294
vt 0.387254 0.791730
vt 0.386993 0.788261
vt 0.376100 0.793000
vt 0.376456 0.797621
vt 0.375236 0.788162
vt 0.375713 0.783486
vt 0.387142 0.785076
vt 0.363249 0.782870
vt 0.363127 0.788689
vt 0.363251 0.794211
vt 0.353188 0.788526
vt 0.353284 0.794660
vt 0.353328 0.782526
vt 0.363788 0.777511
vt 0.376856 0.778995
vt 0.353379 0.777376
vt 0.894601 0.022343
vt 0.898166 0.019284
vt 0.898700 0.027504
vt 0.893031 0.027452
vt 0.891575 0.018832
vt 0.887960 0.024223
vt 0.894735 0.017436
vt 0.890242 0.012082
vt 0.895139 0.014796
vt 0.883460 0.021051
vt 0.354130 0.801153
vt 0.346670 0.801390
vt 0.345712 0.796596
vt 0.896575 0.010870
vt 0.902503 0.013464
vt 0.364129 0.799937
vt 0.355508 0.807325
vt 0.347137 0.807277
vt 0.365419 0.805426
vt 0.377526 0.802450
vt 0.357024 0.812799
vt 0.366998 0.810965
vt 0.378757 0.807418
vt 0.388879 0.802334
vt 0.388091 0.798653
vt 0.398083 0.795293
vt 0.398576 0.797353
vt 0.387429 0.781904
vt 0.903026 0.025273
vt 0.966862 0.901286
vt 0.970740 0.900996
vt 0.963914 0.900871
vt 0.964048 0.899995
vt 0.961476 0.898094
vt 0.961677 0.897413
vt 0.949863 0.394039
vt 0.949195 0.394563
vt 0.946445 0.393219
vt 0.946511 0.392939
vt 0.962432 0.894329
vt 0.962084 0.894755
vt 0.953771 0.397092
vt 0.952826 0.398012
vt 0.948548 0.395264
vt 0.954496 0.395961
vt 0.961681 0.399428
vt 0.960628 0.401370
vt 0.959382 0.403328
vt 0.966962 0.410258
vt 0.968925 0.407648
vt 0.970356 0.404775
vt 0.954913 0.394892
vt 0.962533 0.397463
vt 0.971984 0.401053
vt 0.521674 0.014505
vt 0.514671 0.005673
vt 0.517613 0.005000
vt 0.525386 0.013203
vt 0.982316 0.404514
vt 0.980190 0.408382
vt 0.973396 0.397361
vt 0.984395 0.399006
vt 0.963058 0.395219
vt 0.530460 0.012203
vt 0.533975 0.022133
vt 0.529020 0.023457
vt 0.535579 0.010818
vt 0.538908 0.020803
vt 0.974283 0.393727
vt 0.985281 0.394510
vt 0.540431 0.009230
vt 0.543558 0.019693
vt 0.540103 0.027514
vt 0.535298 0.029595
vt 0.544540 0.026759
vt 0.543287 0.032286
vt 0.539639 0.033230
vt 0.545907 0.032388
vt 0.011359 0.143731
vt 0.008665 0.138423
vt 0.014395 0.136857
vt 0.016658 0.142134
vt 0.530046 0.031325
vt 0.525751 0.032919
vt 0.524574 0.024637
vt 0.528106 0.036856
vt 0.525638 0.038301
vt 0.009360 0.135769
vt 0.014314 0.133992
vt 0.011506 0.129835
vt 0.007170 0.131958
vt 0.017036 0.128227
vt 0.013834 0.125197
vt 0.549175 0.026624
vt 0.549933 0.030677
vt 0.006133 0.134170
vt 0.522043 0.033461
vt 0.520355 0.025670
vt 0.548121 0.018895
vt 0.517540 0.014999
vt 0.545060 0.007785
vt 0.511465 0.006402
vt 0.986025 0.389844
vt 0.974685 0.390154
vt 0.963730 0.390753
vt 0.963423 0.393068
vt 0.955009 0.392250
vt 0.955053 0.393605
vt 0.954969 0.390822
vt 0.950127 0.392436
vt 0.950166 0.393159
vt 0.064626 0.052673
vt 0.464957 0.021373
vt 0.468875 0.023141
vt 0.472727 0.021225
vt 0.476261 0.027387
s 1
usemtl abyss_chancel_background_pbr
f 2/1/1 7/2/2 5/3/3 1/4/4
f 1/4/4 3/5/5 504/6/6 2/1/1
f 3/5/5 1/4/4 4/7/7 502/8/8
f 1/4/4 5/3/3 8/9/9 4/7/7
f 5/3/3 6/10/10 9/11/11 8/9/9
f 5/12/3 7/13/2 503/14/12 6/15/10
f 12/16/13 4/7/7 8/9/9 10/17/14
f 10/17/14 8/9/9 9/11/11 13/18/15
f 11/19/16 10/17/14 13/18/15 15/20/17
f 10/17/14 11/19/16 24/21/18 12/16/13
f 9/22/11 502/8/8 14/23/19 13/24/15
f 15/25/17 13/24/15 14/23/19 16/26/20
f 15/20/17 17/27/21 20/28/22 11/19/16
f 17/29/21 15/25/17 16/26/20 19/30/23
f 20/28/22 17/27/21 18/31/24 21/32/25
f 19/30/23 25/33/26 18/34/24 17/29/21
f 23/35/27 22/36/28 20/28/22 21/32/25
f 24/21/18 11/19/16 20/28/22 22/36/28
f 25/33/26 19/30/23 22/36/28 23/35/27
f 19/30/23 16/26/20 24/21/18 22/36/28
f 14/23/19 12/16/13 24/21/18 16/26/20
f 23/35/27 26/37/29 27/38/30 25/33/26
f 26/37/29 23/35/27 21/32/25 29/39/31
f 28/40/32 36/41/33 27/38/30 26/37/29
f 30/42/34 28/40/32 26/37/29 29/39/31
f 29/43/31 31/44/35 32/45/36 30/46/34
f 29/43/31 21/47/25 18/34/24 31/44/35
f 18/34/24 25/33/26 27/38/30 31/44/35
f 27/38/30 36/41/33 32/45/36 31/44/35
f 30/48/34 32/49/36 33/50/37 42/51/38
f 34/52/39 499/53/40 33/50/37 32/49/36
f 456/54/41 34/55/39 32/56/36 35/57/42
f 37/58/43 35/59/42 32/45/36 36/41/33
f 28/40/32 40/60/44 37/58/43 36/41/33
f 454/61/45 35/62/42 37/63/43 38/64/46
f 37/63/43 39/65/47 119/66/48 38/64/46
f 41/67/49 39/68/47 37/69/43 40/70/44
f 30/48/34 42/51/38 40/70/44 28/71/32
f 42/51/38 43/72/50 41/67/49 40/70/44
f 43/72/50 42/51/38 33/50/37 44/73/51
f 43/72/50 44/73/51 48/74/52 45/75/53
f 45/75/53 46/76/54 41/67/49 43/72/50
f 46/76/54 45/75/53 47/77/55 130/78/56
f 48/74/52 51/79/57 47/77/55 45/75/53
f 53/80/58 51/79/57 48/74/52 49/81/59
f 48/74/52 50/82/60 87/83/61 49/81/59
f 44/73/51 450/84/62 50/82/60 48/74/52
f 47/85/55 51/86/57 52/87/63 345/88/64
f 53/89/58 54/90/65 52/87/63 51/86/57
f 54/90/65 53/89/58 55/91/66 58/92/67
f 55/91/66 53/89/58 49/93/59 56/94/68
f 64/95/69 57/96/70 55/91/66 56/94/68
f 60/97/71 58/92/67 55/91/66 57/96/70
f 58/92/67 59/98/72 87/99/61 54/90/65
f 59/98/72 58/92/67 60/97/71 62/100/73
f 63/101/74 62/100/73 60/97/71 61/102/75
f 66/103/76 61/102/75 60/97/71 57/96/70
f 65/104/77 64/95/69 62/105/73 63/106/74
f 56/94/68 59/107/72 62/105/73 64/95/69
f 57/96/70 64/95/69 65/104/77 66/103/76
f 69/108/78 66/103/76 65/104/77 67/109/79
f 68/110/80 67/109/79 65/104/77 63/106/74
f 67/111/79 68/112/80 73/113/81 70/114/82
f 70/115/82 71/116/83 69/108/78 67/109/79
f 71/116/83 70/115/82 72/117/84 85/118/85
f 72/119/84 70/114/82 73/113/81 75/120/86
f 76/121/87 75/120/86 73/113/81 74/122/88
f 73/113/81 68/112/80 86/123/89 74/122/88
f 75/120/86 76/121/87 80/124/90 77/125/91
f 77/125/91 78/126/92 72/119/84 75/120/86
f 79/127/93 84/128/94 78/126/92 77/125/91
f 79/127/93 77/125/91 80/124/90 82/129/95
f 83/130/96 82/131/95 80/132/90 81/133/97
f 80/132/90 76/134/87 85/118/85 81/133/97
f 84/128/94 79/127/93 82/129/95 83/135/96
f 84/136/94 83/130/96 81/133/97 78/137/92
f 81/133/97 85/118/85 72/117/84 78/137/92
f 74/138/88 71/116/83 85/118/85 76/134/87
f 74/138/88 86/139/89 69/108/78 71/116/83
f 61/102/75 66/103/76 69/108/78 86/139/89
f 63/101/74 61/102/75 86/139/89 68/140/80
f 56/94/68 49/93/59 87/141/61 59/107/72
f 87/142/61 89/143/98 52/144/63 54/145/65
f 109/146/99 88/147/100 87/83/61 50/82/60
f 91/148/101 89/143/98 87/142/61 88/149/100
f 52/144/63 89/143/98 90/150/102 344/151/103
f 89/143/98 91/148/101 92/152/104 90/150/102
f 93/153/105 111/154/106 92/155/104 91/156/101
f 94/157/107 95/158/108 93/159/105 91/160/101
f 94/157/107 91/160/101 88/161/100 96/162/109
f 95/158/108 94/157/107 97/163/110 99/164/111
f 97/163/110 94/157/107 96/162/109 98/165/112
f 103/166/113 100/167/114 97/163/110 98/165/112
f 101/168/115 99/169/111 97/170/110 100/171/114
f 100/167/114 102/172/116 110/173/117 101/174/115
f 100/167/114 103/166/113 104/175/118 102/172/116
f 105/176/119 106/177/120 104/175/118 103/166/113
f 105/176/119 103/166/113 98/165/112 107/178/121
f 105/179/119 101/168/115 110/180/117 106/181/120
f 105/179/119 107/182/121 99/169/111 101/168/115
f 108/183/122 95/184/108 99/169/111 107/182/121
f 107/178/121 98/165/112 96/162/109 108/185/122
f 108/186/122 109/187/99 93/159/105 95/158/108
f 108/185/122 96/162/109 88/161/100 109/188/99
f 50/189/60 112/190/123 93/191/105 109/192/99
f 104/193/118 106/181/120 110/180/117 102/194/116
f 113/195/124 111/196/106 93/191/105 112/190/123
f 398/197/125 113/195/124 112/190/123 114/198/126
f 117/199/127 115/200/128 112/190/123 50/189/60
f 116/201/129 114/198/126 112/190/123 115/200/128
f 115/200/128 118/202/130 120/203/131 116/201/129
f 115/200/128 117/199/127 119/204/48 118/202/130
f 119/205/48 125/206/132 121/207/133 118/208/130
f 120/203/131 118/202/130 121/209/133 122/210/134
f 122/210/134 121/209/133 123/211/135 397/212/136
f 124/213/137 143/214/138 123/215/135 121/207/133
f 126/216/139 124/213/137 121/207/133 125/206/132
f 126/216/139 125/206/132 127/217/140 128/218/141
f 127/217/140 125/206/132 119/205/48 39/68/47
f 130/78/56 128/218/141 127/217/140 46/76/54
f 127/217/140 39/68/47 41/67/49 46/76/54
f 131/219/142 126/216/139 128/218/141
f 131/219/142 128/218/141 129/220/143 133/221/144
f 130/78/56 47/77/55 129/220/143 128/218/141
f 124/213/137 126/216/139 131/219/142 132/222/145
f 131/219/142 134/223/146 137/224/147 132/222/145
f 136/225/148 134/223/146 131/219/142 133/221/144
f 135/226/149 134/223/146 136/225/148 333/227/150
f 135/226/149 138/228/151 137/224/147 134/223/146
f 137/224/147 138/228/151 140/229/152 132/222/145
f 138/230/151 135/231/149 332/232/153 139/233/154
f 140/234/152 138/235/151 139/236/154 144/237/155
f 389/238/156 143/239/138 140/240/152 141/241/157
f 140/234/152 142/242/158 392/243/159 141/244/157
f 142/242/158 140/234/152 144/237/155 146/245/160
f 124/213/137 132/222/145 140/229/152 143/214/138
f 148/246/161 146/245/160 144/237/155 145/247/162
f 145/247/162 144/237/155 139/236/154 331/248/163
f 393/249/164 142/242/158 146/245/160 147/250/165
f 150/251/166 147/250/165 146/245/160 148/246/161
f 145/247/162 326/252/167 149/253/168 148/246/161
f 150/251/166 148/246/161 149/253/168 151/254/169
f 150/251/166 151/254/169 155/255/170 152/256/171
f 152/256/171 153/257/172 147/250/165 150/251/166
f 152/256/171 154/258/173 395/259/174 153/257/172
f 154/258/173 152/256/171 155/255/170 156/260/175
f 155/255/170 157/261/176 158/262/177 156/260/175
f 151/254/169 159/263/178 157/261/176 155/255/170
f 160/264/179 163/265/180 158/262/177 157/261/176
f 161/266/181 160/264/179 157/261/176 159/263/178
f 161/266/181 324/267/182 162/268/183 160/264/179
f 160/264/179 162/268/183 164/269/184 163/265/180
f 163/265/180 164/269/184 166/270/185 165/271/186
f 165/271/186 168/272/187 158/262/177 163/265/180
f 167/273/188 165/271/186 166/270/185 327/274/189
f 168/272/187 165/271/186 167/273/188 169/275/190
f 168/272/187 169/275/190 172/276/191 170/277/192
f 158/262/177 168/272/187 170/277/192 156/260/175
f 154/258/173 156/260/175 170/277/192 171/278/193
f 171/278/193 170/277/192 172/276/191 174/279/194
f 176/280/195 174/279/194 172/276/191 173/281/196
f 172/276/191 169/275/190 329/282/197 173/281/196
f 174/279/194 175/283/198 396/284/199 171/278/193
f 176/280/195 177/285/200 175/283/198 174/279/194
f 178/286/201 180/287/202 177/285/200 176/280/195
f 173/281/196 179/288/203 178/286/201 176/280/195
f 184/289/204 181/290/205 178/286/201 179/288/203
f 182/291/206 180/287/202 178/286/201 181/290/205
f 181/290/205 183/292/207 332/232/153 182/291/206
f 183/292/207 181/290/205 184/289/204 186/293/208
f 330/294/209 185/295/210 184/289/204 179/288/203
f 188/296/211 186/293/208 184/289/204 185/295/210
f 331/297/163 183/292/207 186/293/208 187/298/212
f 189/299/213 187/298/212 186/293/208 188/296/211
f 188/296/211 185/295/210 193/300/214 190/301/215
f 190/301/215 191/302/216 189/299/213 188/296/211
f 191/302/216 190/301/215 192/303/217 320/304/218
f 192/303/217 190/301/215 193/300/214 195/305/219
f 185/295/210 330/294/209 194/306/220 193/300/214
f 195/305/219 193/300/214 194/306/220 196/307/221
f 195/305/219 196/307/221 200/308/222 197/309/223
f 197/309/223 198/310/224 192/303/217 195/305/219
f 199/311/225 306/312/226 198/310/224 197/309/223
f 200/308/222 201/313/227 199/311/225 197/309/223
f 202/314/228 205/315/229 201/313/227 200/308/222
f 196/307/221 203/316/230 202/314/228 200/308/222
f 327/274/189 204/317/231 202/314/228 203/316/230
f 204/317/231 207/318/232 205/315/229 202/314/228
f 206/319/233 307/320/234 201/313/227 205/315/229
f 208/321/235 206/319/233 205/315/229 207/318/232
f 211/322/236 208/321/235 207/318/232 209/323/237
f 212/324/238 209/323/237 207/318/232 204/317/231
f 318/325/239 211/322/236 209/323/237 210/326/240
f 209/323/237 212/324/238 213/327/241 210/326/240
f 204/317/231 327/274/189 166/270/185 212/324/238
f 166/270/185 164/269/184 213/327/241 212/324/238
f 164/269/184 215/328/242 214/329/243 213/327/241
f 210/326/240 213/327/241 214/329/243 217/330/244
f 214/329/243 215/328/242 321/331/245 216/332/246
f 219/333/247 217/330/244 214/329/243 216/332/246
f 221/334/248 218/335/249 217/330/244 219/333/247
f 218/335/249 318/325/239 210/326/240 217/330/244
f 216/332/246 319/336/250 220/337/251 219/333/247
f 221/334/248 219/333/247 220/337/251 222/338/252
f 218/339/249 221/340/248 223/341/253 227/342/254
f 222/343/252 225/344/255 223/341/253 221/340/248
f 226/345/256 223/341/253 224/346/257 282/347/258
f 225/344/255 288/348/259 224/346/257 223/341/253
f 229/349/260 227/342/254 223/341/253 226/345/256
f 218/339/249 227/342/254 228/350/261 318/351/239
f 229/349/260 230/352/262 228/350/261 227/342/254
f 230/353/262 229/354/260 231/355/263 234/356/264
f 229/349/260 226/345/256 232/357/265 231/358/263
f 233/359/266 231/358/263 232/357/265 309/360/267
f 235/361/268 234/356/264 231/355/263 233/362/266
f 238/363/269 236/364/270 234/356/264 235/361/268
f 237/365/271 230/353/262 234/356/264 236/364/270
f 241/366/272 237/365/271 236/364/270 239/367/273
f 240/368/274 239/367/273 236/364/270 238/363/269
f 242/369/275 239/367/273 240/368/274 243/370/276
f 241/366/272 239/367/273 242/369/275 244/371/277
f 244/371/277 242/369/275 243/370/276 246/372/278
f 241/366/272 244/371/277 245/373/279 237/365/271
f 245/373/279 244/371/277 246/372/278 248/374/280
f 250/375/281 248/374/280 246/372/278 247/376/282
f 247/376/282 246/372/278 243/370/276 317/377/283
f 228/378/261 245/373/279 248/374/280 249/379/284
f 251/380/285 249/379/284 248/374/280 250/375/281
f 247/376/282 254/381/286 252/382/287 250/375/281
f 251/380/285 250/375/281 252/382/287 255/383/288
f 253/384/289 256/385/290 255/386/288 252/387/287
f 315/388/291 253/389/289 252/382/287 254/381/286
f 259/390/292 251/391/285 255/386/288 257/392/293
f 260/393/294 257/392/293 255/386/288 256/385/290
f 257/392/293 260/393/294 261/394/295 258/395/296
f 257/392/293 258/395/296 300/396/297 259/390/292
f 256/385/290 263/397/298 262/398/299 260/393/294
f 261/394/295 260/393/294 262/398/299 265/399/300
f 262/398/299 263/397/298 310/400/301 264/401/302
f 266/402/303 265/399/300 262/398/299 264/401/302
f 266/403/303 269/404/304 267/405/305 265/406/300
f 267/405/305 268/407/306 261/408/295 265/406/300
f 272/409/307 268/407/306 267/405/305 270/410/308
f 273/411/309 270/410/308 267/405/305 269/404/304
f 271/412/310 270/410/308 273/411/309 274/413/311
f 270/410/308 271/412/310 308/414/312 272/409/307
f 273/411/309 275/415/313 277/416/314 274/413/311
f 269/404/304 276/417/315 275/415/313 273/411/309
f 281/418/316 278/419/317 275/415/313 276/417/315
f 278/419/317 279/420/318 277/416/314 275/415/313
f 278/419/317 280/421/319 283/422/320 279/420/318
f 281/418/316 282/347/258 280/421/319 278/419/317
f 282/347/258 281/418/316 232/357/265 226/345/256
f 232/357/265 281/418/316 276/417/315 309/360/267
f 282/347/258 224/346/257 283/422/320 280/421/319
f 279/420/318 283/422/320 284/423/321 285/424/322
f 224/346/257 286/425/323 284/423/321 283/422/320
f 287/426/324 285/424/322 284/423/321 286/425/323
f 287/426/324 286/425/323 224/346/257 288/348/259
f 285/424/322 287/426/324 289/427/325 292/428/326
f 287/426/324 288/348/259 290/429/327 289/427/325
f 291/430/328 289/427/325 290/429/327 301/431/329
f 293/432/330 292/428/326 289/427/325 291/430/328
f 274/413/311 277/416/314 292/428/326 293/432/330
f 279/420/318 285/424/322 292/428/326 277/416/314
f 296/433/331 294/434/332 293/432/330 291/430/328
f 294/434/332 271/412/310 274/413/311 293/432/330
f 294/434/332 295/435/333 308/414/312 271/412/310
f 296/433/331 298/436/334 295/435/333 294/434/332
f 297/437/335 296/433/331 291/430/328 301/431/329
f 298/436/334 296/433/331 297/437/335 299/438/336
f 298/436/334 272/409/307 308/414/312 295/435/333
f 298/436/334 299/438/336 268/407/306 272/409/307
f 299/438/336 258/439/296 261/408/295 268/407/306
f 299/438/336 297/437/335 300/440/297 258/439/296
f 301/441/329 302/442/337 300/396/297 297/443/335
f 301/441/329 290/444/327 304/445/338 302/442/337
f 302/442/337 304/445/338 305/446/339 303/447/340
f 303/447/340 307/320/234 300/396/297 302/442/337
f 288/348/259 225/344/255 304/448/338 290/429/327
f 225/449/255 222/450/252 305/446/339 304/445/338
f 199/311/225 303/447/340 305/446/339 306/312/226
f 305/446/339 222/450/252 220/451/251 306/312/226
f 220/451/251 319/452/250 198/310/224 306/312/226
f 307/320/234 303/447/340 199/311/225 201/313/227
f 206/319/233 259/390/292 300/396/297 307/320/234
f 266/403/303 309/360/267 276/417/315 269/404/304
f 309/360/267 266/403/303 264/453/302 233/359/266
f 233/362/266 264/454/302 310/455/301 235/361/268
f 238/363/269 235/361/268 310/455/301 311/456/341
f 310/400/301 263/397/298 313/457/342 311/458/341
f 311/456/341 312/459/343 240/368/274 238/363/269
f 313/460/342 314/461/344 312/459/343 311/456/341
f 256/385/290 253/384/289 313/457/342 263/397/298
f 315/388/291 314/461/344 313/460/342 253/389/289
f 314/461/344 316/462/345 317/377/283 312/459/343
f 315/388/291 254/381/286 316/462/345 314/461/344
f 254/381/286 247/376/282 317/377/283 316/462/345
f 317/377/283 243/370/276 240/368/274 312/459/343
f 206/319/233 208/321/235 251/391/285 259/390/292
f 249/463/284 251/391/285 208/321/235 211/322/236
f 211/322/236 318/325/239 228/464/261 249/463/284
f 237/365/271 245/373/279 228/378/261 230/353/262
f 319/336/250 216/332/246 321/331/245 320/465/218
f 319/452/250 320/304/218 192/303/217 198/310/224
f 320/465/218 321/331/245 322/466/346 191/467/216
f 215/328/242 324/267/182 322/466/346 321/331/245
f 325/468/347 323/469/348 322/466/346 324/267/182
f 322/466/346 323/469/348 189/470/213 191/467/216
f 325/468/347 324/267/182 161/266/181 149/253/168
f 215/328/242 164/269/184 162/268/183 324/267/182
f 323/469/348 325/468/347 149/253/168 326/252/167
f 323/469/348 326/252/167 187/471/212 189/470/213
f 145/247/162 331/248/163 187/471/212 326/252/167
f 203/316/230 328/472/349 167/273/188 327/274/189
f 203/316/230 196/307/221 194/306/220 328/472/349
f 194/306/220 330/294/209 329/282/197 328/472/349
f 329/282/197 169/275/190 167/273/188 328/472/349
f 179/288/203 173/281/196 329/282/197 330/294/209
f 331/297/163 139/233/154 332/232/153 183/292/207
f 332/232/153 135/231/149 333/473/150 182/291/206
f 180/287/202 182/291/206 333/473/150 334/474/350
f 136/225/148 335/475/351 334/476/350 333/227/150
f 334/474/350 335/477/351 337/478/352 336/479/353
f 180/287/202 334/474/350 336/479/353 177/285/200
f 340/480/354 338/481/355 336/479/353 337/478/352
f 336/479/353 338/481/355 175/283/198 177/285/200
f 338/481/355 339/482/356 396/284/199 175/283/198
f 338/481/355 340/480/354 341/483/357 339/482/356
f 342/484/358 343/485/359 341/483/357 340/480/354
f 337/478/352 133/486/144 342/484/358 340/480/354
f 348/487/360 343/485/359 342/484/358 346/488/361
f 349/489/362 346/490/361 342/491/358 344/151/103
f 342/492/358 345/493/64 52/494/63 344/495/103
f 129/220/143 345/493/64 342/492/358 133/221/144
f 347/496/363 391/497/364 348/498/360 346/490/361
f 346/490/361 349/489/362 350/499/365 347/496/363
f 351/500/366 352/501/367 350/499/365 349/489/362
f 344/151/103 90/150/102 351/500/366 349/489/362
f 352/501/367 351/500/366 354/502/368 356/503/369
f 351/500/366 90/150/102 92/152/104 353/504/370
f 354/502/368 351/500/366 353/504/370 355/505/371
f 359/506/372 357/507/373 354/502/368 355/505/371
f 358/508/374 356/503/369 354/502/368 357/507/373
f 357/509/373 360/510/375 362/511/376 358/512/374
f 360/510/375 357/509/373 359/513/372 361/514/377
f 361/514/377 365/515/378 363/516/379 360/510/375
f 360/510/375 363/516/379 366/517/380 362/511/376
f 365/515/378 381/518/381 364/519/382 363/516/379
f 364/519/382 368/520/383 366/517/380 363/516/379
f 369/521/384 367/522/385 366/517/380 368/520/383
f 366/517/380 367/522/385 383/523/386 362/511/376
f 368/520/383 370/524/387 372/525/388 369/521/384
f 370/524/387 368/520/383 364/519/382 371/526/389
f 374/527/390 373/528/391 370/524/387 371/526/389
f 373/528/391 376/529/392 372/525/388 370/524/387
f 373/530/391 374/531/390 382/532/393 375/533/394
f 373/528/391 375/534/394 377/535/395 376/529/392
f 378/536/396 376/529/392 377/535/395 379/537/397
f 376/529/392 378/536/396 380/538/398 372/525/388
f 374/527/390 371/526/389 380/539/398 378/540/396
f 378/541/396 379/542/397 382/532/393 374/531/390
f 380/539/398 371/526/389 364/519/382 381/518/381
f 369/521/384 372/525/388 380/538/398 381/543/381
f 367/522/385 369/521/384 381/543/381 365/544/378
f 377/545/395 375/533/394 382/532/393 379/542/397
f 365/544/378 361/546/377 383/523/386 367/522/385
f 358/512/374 362/511/376 383/523/386 384/547/399
f 383/523/386 361/546/377 359/548/372 384/547/399
f 356/503/369 358/508/374 384/549/399 385/550/400
f 385/550/400 384/549/399 359/551/372 355/552/371
f 386/553/401 352/501/367 356/503/369 385/550/400
f 385/550/400 355/552/371 353/554/370 386/553/401
f 386/553/401 353/554/370 92/155/104 387/555/402
f 386/553/401 387/555/402 350/499/365 352/501/367
f 388/556/403 389/238/156 350/499/365 387/555/402
f 388/556/403 387/555/402 92/155/104 111/154/106
f 111/154/106 113/557/124 123/558/135 388/556/403
f 389/238/156 388/556/403 123/558/135 143/239/138
f 141/241/157 347/496/363 350/499/365 389/238/156
f 343/485/359 348/487/360 390/559/404 394/560/405
f 391/561/364 393/249/164 390/559/404 348/487/360
f 347/496/363 141/241/157 392/562/159 391/497/364
f 393/249/164 391/561/364 392/243/159 142/242/158
f 390/559/404 393/249/164 147/250/165 153/257/172
f 395/259/174 394/560/405 390/559/404 153/257/172
f 394/560/405 339/482/356 341/483/357 343/485/359
f 339/482/356 394/560/405 395/259/174 396/284/199
f 171/278/193 396/284/199 395/259/174 154/258/173
f 47/77/55 345/493/64 129/220/143
f 133/486/144 337/478/352 335/477/351 136/563/148
f 151/254/169 149/253/168 161/266/181 159/263/178
f 398/564/125 397/212/136 123/211/135 113/565/124
f 397/212/136 398/564/125 402/566/406 399/567/407
f 397/212/136 399/567/407 400/568/408 122/210/134
f 401/569/409 412/570/410 400/568/408 399/567/407
f 402/566/406 403/571/411 401/569/409 399/567/407
f 403/572/411 402/573/406 404/574/412 406/575/413
f 398/197/125 114/198/126 404/574/412 402/573/406
f 116/201/129 405/576/414 404/574/412 114/198/126
f 404/574/412 405/576/414 408/577/415 406/575/413
f 406/575/413 407/578/416 447/579/417 403/572/411
f 407/578/416 406/575/413 408/577/415 409/580/418
f 411/581/419 410/582/420 408/577/415 405/576/414
f 408/577/415 410/582/420 413/583/421 409/580/418
f 410/582/420 411/581/419 400/568/408 412/570/410
f 412/570/410 414/584/422 413/583/421 410/582/420
f 413/583/421 414/584/422 417/585/423 415/586/424
f 418/587/425 409/580/418 413/583/421 415/586/424
f 416/588/426 415/586/424 417/585/423 440/589/427
f 415/586/424 416/588/426 420/590/428 418/587/425
f 420/590/428 421/591/429 419/592/430 418/587/425
f 409/580/418 418/587/425 419/592/430 407/578/416
f 425/593/431 421/591/429 420/590/428 422/594/432
f 423/595/433 422/594/432 420/590/428 416/588/426
f 424/596/434 422/594/432 423/595/433 436/597/435
f 422/594/432 424/596/434 427/598/436 425/593/431
f 421/591/429 425/593/431 426/599/437 443/600/438
f 425/593/431 427/598/436 428/601/439 426/599/437
f 429/602/440 430/603/441 428/604/439 427/605/436
f 431/606/442 429/602/440 427/605/436 424/607/434
f 429/602/440 431/606/442 432/608/443 430/603/441
f 431/606/442 433/609/444 435/610/445 432/608/443
f 433/609/444 431/606/442 424/607/434 436/611/435
f 436/597/435 437/612/446 434/613/447 433/614/444
f 434/615/447 448/616/448 435/610/445 433/609/444
f 437/612/446 436/597/435 423/595/433 439/617/449
f 438/618/450 448/619/448 434/613/447 437/612/446
f 438/618/450 437/612/446 439/617/449 441/620/451
f 440/589/427 439/617/449 423/595/433 416/588/426
f 442/621/452 441/620/451 439/617/449 440/589/427
f 428/622/439 438/618/450 441/620/451 426/623/437
f 443/624/438 426/623/437 441/620/451 442/621/452
f 446/625/453 443/624/438 442/621/452 444/626/454
f 417/585/423 444/626/454 442/621/452 440/589/427
f 445/627/455 444/626/454 417/585/423 414/584/422
f 444/626/454 445/627/455 447/628/417 446/625/453
f 419/592/430 446/629/453 447/579/417 407/578/416
f 443/600/438 446/629/453 419/592/430 421/591/429
f 447/628/417 445/627/455 401/569/409 403/571/411
f 414/584/422 412/570/410 401/569/409 445/627/455
f 448/616/448 438/630/450 428/604/439 430/603/441
f 430/603/441 432/608/443 435/610/445 448/616/448
f 405/576/414 116/201/129 120/203/131 411/581/419
f 400/568/408 411/581/419 120/203/131 122/210/134
f 449/631/456 38/64/46 119/66/48 117/632/127
f 449/631/456 117/632/127 50/82/60 450/84/62
f 450/84/62 453/633/457 451/634/458 449/631/456
f 449/631/456 451/634/458 454/61/45 38/64/46
f 453/633/457 501/635/459 452/636/460 451/634/458
f 452/637/460 455/638/461 454/639/45 451/640/458
f 456/641/41 35/62/42 454/61/45 455/642/461
f 455/638/461 457/643/462 459/644/463 456/645/41
f 457/643/462 455/638/461 452/637/460 458/646/464
f 458/646/464 463/647/465 460/648/466 457/643/462
f 459/644/463 457/643/462 460/648/466 461/649/467
f 493/650/468 461/649/467 460/648/466 462/651/469
f 460/648/466 463/647/465 465/652/470 462/651/469
f 463/647/465 458/646/464 500/653/471 464/654/472
f 464/654/472 467/655/473 465/652/470 463/647/465
f 492/656/474 462/657/469 465/658/470 466/659/475
f 465/652/470 467/655/473 469/660/476 466/661/475
f 468/662/477 471/663/478 469/660/476 467/655/473
f 467/655/473 464/654/472 496/664/479 468/662/477
f 469/665/476 470/666/480 482/667/481 466/659/475
f 471/668/478 473/669/482 470/666/480 469/665/476
f 471/663/478 468/662/477 494/670/483 472/671/484
f 472/672/484 474/673/485 473/669/482 471/668/478
f 475/674/486 478/675/487 470/666/480 473/669/482
f 477/676/488 475/674/486 473/669/482 474/673/485
f 478/675/487 475/674/486 476/677/489 479/678/490
f 477/676/488 488/679/491 476/677/489 475/674/486
f 478/680/487 479/681/490 483/682/492 480/683/493
f 478/675/487 480/684/493 482/667/481 470/666/480
f 480/684/493 481/685/494 491/686/495 482/667/481
f 481/685/494 480/684/493 483/687/492 484/688/496
f 483/682/492 479/681/490 485/689/497 484/690/496
f 486/691/498 484/690/496 485/689/497 488/692/491
f 481/693/494 484/690/496 486/691/498 487/694/499
f 477/676/488 487/695/499 486/696/498 488/679/491
f 485/689/497 479/681/490 476/697/489 488/692/491
f 487/698/499 489/699/500 491/686/495 481/685/494
f 487/695/499 477/676/488 474/673/485 489/700/500
f 491/686/495 489/699/500 490/701/501 492/656/474
f 474/673/485 472/672/484 490/702/501 489/700/500
f 466/659/475 482/667/481 491/686/495 492/656/474
f 462/657/469 492/656/474 490/701/501 493/703/468
f 490/704/501 472/671/484 494/670/483 493/705/468
f 461/706/467 493/705/468 494/670/483 495/707/502
f 494/670/483 468/662/477 496/664/479 495/707/502
f 497/708/503 495/707/502 496/664/479 498/709/504
f 495/707/502 497/708/503 459/710/463 461/706/467
f 34/55/39 456/54/41 459/710/463 497/708/503
f 499/711/40 34/55/39 497/708/503 498/709/504
f 499/711/40 498/709/504 500/653/471 501/712/459
f 496/664/479 464/654/472 500/653/471 498/709/504
f 500/653/471 458/646/464 452/637/460 501/712/459
f 501/635/459 453/633/457 33/50/37 499/53/40
f 450/84/62 44/73/51 33/50/37 453/633/457
f 4/7/7 12/16/13 14/23/19 502/8/8
f 3/5/5 502/8/8 9/22/11 6/713/10
f 2/714/1 505/715/505 503/14/12 7/13/2
f 505/715/505 2/714/1 504/716/6 503/14/12
f 503/14/12 504/716/6 3/717/5 6/15/10
