# Blender 5.2.0 LTS
# www.blender.org
mtllib terrain-abyss-chancel-object-039.mtl
o terrain-abyss-chancel-object-039
v -0.616151 1.041527 -0.028570
v -0.610922 1.043085 -0.030345
v -0.618486 1.041598 -0.034785
v -0.621523 1.041859 -0.026138
v -0.614526 1.042391 -0.021857
v -0.610193 1.044372 -0.023250
v -0.619908 1.042516 -0.020056
v -0.611939 1.042926 -0.014661
v -0.607807 1.044758 -0.016456
v -0.617395 1.043094 -0.012533
v -0.607061 1.042832 -0.007585
v -0.602386 1.045376 -0.010660
v -0.612692 1.042800 -0.004182
v -0.599391 1.044005 0.001532
v -0.595540 1.046883 -0.002015
v -0.605180 1.043501 0.006126
v -0.592541 1.044494 0.007951
v -0.597860 1.043925 0.014075
v -0.589170 1.048141 0.003939
v -0.585658 1.044906 0.011530
v -0.580492 1.045108 0.014652
v -0.583408 1.048760 0.008360
v -0.591277 1.043945 0.018820
v -0.584365 1.043972 0.021365
v -0.596760 1.043086 0.026876
v -0.601017 1.042241 0.034633
v -0.603449 1.043728 0.020662
v -0.589932 1.042041 0.030011
v -0.583874 1.042432 0.032206
v -0.594599 1.041028 0.038909
v -0.588230 1.040588 0.042821
v -0.599810 1.041539 0.045640
v -0.593419 1.041252 0.049269
v -0.605854 1.042200 0.042045
v -0.605371 1.042004 0.050887
v -0.609978 1.042580 0.055504
v -0.598885 1.041585 0.054473
v -0.611596 1.042378 0.046979
v -0.616617 1.042515 0.043106
v -0.616995 1.042618 0.050302
v -0.623633 1.042640 0.045731
v -0.621863 1.043590 0.052415
v -0.613400 1.044642 0.060571
v -0.628801 1.043105 0.047800
v -0.622712 1.046903 0.057372
v -0.623108 1.054067 0.062146
v -0.613852 1.049239 0.057491
v -0.630651 1.047347 0.052124
v -0.626038 1.046708 0.045540
v -0.629875 1.055654 0.056540
v -0.627089 1.057611 0.047872
v -0.630933 1.065782 0.059189
v -0.628358 1.067537 0.048612
v -0.630942 1.076324 0.061390
v -0.623477 1.064702 0.064917
v -0.623363 1.072446 0.066645
v -0.615085 1.065811 0.061519
v -0.613113 1.067869 0.053021
v -0.615236 1.056537 0.059278
v -0.615437 1.073424 0.062987
v -0.613426 1.076679 0.058674
v -0.622263 1.073736 0.070480
v -0.615822 1.081859 0.049128
v -0.618531 1.086948 0.067591
v -0.618572 1.068545 0.046401
v -0.629033 1.081448 0.049803
v -0.627597 1.092560 0.062570
v -0.626768 1.099980 0.068559
v -0.629077 1.086031 0.068043
v -0.631840 1.098880 0.071791
v -0.635298 1.085523 0.078342
v -0.626220 1.073502 0.069770
v -0.634758 1.073337 0.078159
v -0.628101 1.066724 0.071490
v -0.628791 1.057134 0.072371
v -0.634638 1.064657 0.078727
v -0.634541 1.056477 0.079268
v -0.633041 1.065011 0.088875
v -0.634658 1.056012 0.090259
v -0.624898 1.063549 0.092515
v -0.633505 1.073662 0.088569
v -0.624833 1.073210 0.092226
v -0.634115 1.084902 0.088899
v -0.634620 1.097763 0.088944
v -0.625677 1.084653 0.092801
v -0.618076 1.084581 0.087678
v -0.626047 1.097725 0.093786
v -0.626796 1.111495 0.090771
v -0.617620 1.097434 0.088913
v -0.615512 1.097596 0.079893
v -0.619098 1.111122 0.086758
v -0.624148 1.118063 0.079392
v -0.616708 1.107995 0.081103
v -0.620334 1.110934 0.074689
v -0.618276 1.098972 0.071736
v -0.626871 1.108861 0.072049
v -0.630941 1.110216 0.074865
v -0.634749 1.110340 0.081889
v -0.628660 1.116711 0.085843
v -0.634307 1.108258 0.088027
v -0.636660 1.097930 0.079800
v -0.616318 1.085453 0.078194
v -0.617530 1.072085 0.077827
v -0.618139 1.072404 0.086570
v -0.617893 1.058970 0.078658
v -0.618948 1.060060 0.086407
v -0.621808 1.058277 0.073390
v -0.613483 1.044574 0.076829
v -0.614543 1.045843 0.079067
v -0.617477 1.050001 0.085086
v -0.620323 1.048851 0.072029
v -0.613932 1.044901 0.076146
v -0.629058 1.049840 0.072975
v -0.635011 1.049748 0.078060
v -0.624660 1.044656 0.075327
v -0.625130 1.044460 0.080289
v -0.629699 1.045000 0.091038
v -0.625319 1.053412 0.094586
v -0.636387 1.047570 0.088450
v -0.632409 1.047891 0.099877
v -0.631639 1.052901 0.101380
v -0.634587 1.048475 0.104983
v -0.637115 1.046702 0.097416
v -0.637140 1.052937 0.098331
v -0.637032 1.047155 0.103249
v -0.639194 1.051117 0.103387
v -0.635238 1.051743 0.106277
v -0.619022 1.058012 0.046623
v -0.617580 1.048242 0.045221
v -0.614440 1.057784 0.052186
v -0.612817 1.049433 0.050355
v -0.605762 1.052121 0.051705
v -0.603973 1.047496 0.041314
v -0.610688 1.045499 0.037625
v -0.600606 1.052790 0.046370
v -0.594980 1.048913 0.040485
v -0.606787 1.048383 0.026803
v -0.597262 1.048655 0.031431
v -0.610729 1.046415 0.027640
v -0.607664 1.052007 0.018137
v -0.619990 1.054621 0.017180
v -0.622654 1.047873 0.017580
v -0.613455 1.057022 0.015933
v -0.623776 1.064402 0.014214
v -0.628489 1.055883 0.006198
v -0.632939 1.050142 0.000111
v -0.628796 1.062900 0.004983
v -0.639429 1.059637 0.001368
v -0.630007 1.077902 0.005894
v -0.637031 1.077496 0.002044
v -0.630813 1.098789 0.007766
v -0.625398 1.078072 0.014504
v -0.626522 1.097741 0.016958
v -0.616740 1.078986 0.019561
v -0.615424 1.066220 0.016636
v -0.617747 1.097660 0.022388
v -0.609106 1.081174 0.012883
v -0.609694 1.098930 0.015377
v -0.606801 1.081559 0.001947
v -0.608855 1.067687 0.010371
v -0.608204 1.058404 0.008808
v -0.606860 1.067933 -0.000050
v -0.606338 1.057871 -0.002351
v -0.610429 1.066600 -0.011134
v -0.618599 1.065820 -0.014902
v -0.609099 1.080806 -0.009929
v -0.611878 1.055862 -0.014519
v -0.608620 1.049572 -0.015708
v -0.619970 1.056784 -0.017018
v -0.614531 1.051197 -0.023826
v -0.620664 1.052549 -0.023719
v -0.610493 1.048545 -0.023925
v -0.616775 1.049660 -0.029765
v -0.621331 1.046904 -0.034089
v -0.621366 1.050456 -0.028231
v -0.612496 1.047449 -0.030749
v -0.616789 1.045821 -0.036627
v -0.614144 1.042976 -0.036914
v -0.620477 1.044100 -0.038690
v -0.624908 1.043545 -0.036732
v -0.623365 1.041750 -0.031894
v -0.629886 1.043633 -0.031960
v -0.628130 1.048277 -0.030096
v -0.635429 1.043983 -0.031555
v -0.628584 1.042938 -0.028519
v -0.635305 1.042936 -0.026848
v -0.627324 1.042634 -0.023482
v -0.625807 1.042768 -0.018082
v -0.634423 1.042800 -0.021538
v -0.641954 1.041963 -0.021464
v -0.632856 1.043013 -0.016075
v -0.629694 1.044119 -0.008985
v -0.640696 1.042617 -0.014826
v -0.637921 1.044399 -0.007484
v -0.648390 1.042095 -0.015381
v -0.648637 1.044069 -0.006013
v -0.654716 1.042698 -0.016802
v -0.648650 1.041242 -0.022861
v -0.648209 1.041907 -0.029748
v -0.654788 1.042150 -0.024908
v -0.653854 1.042835 -0.032144
v -0.659351 1.044771 -0.027122
v -0.657408 1.047851 -0.027055
v -0.659791 1.044393 -0.018357
v -0.656564 1.047046 -0.033656
v -0.653728 1.047595 -0.033745
v -0.652758 1.044702 -0.036046
v -0.649017 1.047545 -0.033075
v -0.647683 1.043631 -0.035255
v -0.643448 1.047228 -0.032073
v -0.652421 1.048416 -0.026262
v -0.647027 1.048679 -0.025700
v -0.655110 1.047901 -0.018563
v -0.650321 1.049887 -0.017940
v -0.656593 1.046458 -0.010143
v -0.659715 1.046821 -0.019004
v -0.660283 1.045859 -0.010907
v -0.661869 1.046456 -0.003729
v -0.659819 1.043938 -0.009847
v -0.654016 1.043113 -0.008206
v -0.661170 1.044069 -0.002456
v -0.655608 1.043358 -0.001584
v -0.664310 1.045982 0.004509
v -0.664817 1.045721 0.001668
v -0.655894 1.044162 0.006214
v -0.656783 1.047576 0.003209
v -0.645881 1.045193 0.005122
v -0.649284 1.050616 0.003013
v -0.650484 1.047578 -0.006653
v -0.657036 1.046828 -0.004189
v -0.648491 1.059308 -0.005171
v -0.643483 1.058643 -0.017074
v -0.646126 1.077243 -0.002454
v -0.645734 1.098959 -0.000300
v -0.645512 1.077336 -0.013658
v -0.633810 1.078445 -0.016893
v -0.646984 1.099353 -0.012061
v -0.647759 1.121802 -0.010950
v -0.636273 1.099769 -0.017705
v -0.637689 1.121814 -0.018566
v -0.626137 1.099882 -0.015008
v -0.626095 1.121580 -0.016736
v -0.626178 1.079166 -0.012798
v -0.617079 1.099312 -0.017965
v -0.615261 1.121442 -0.018938
v -0.607790 1.099493 -0.009548
v -0.618100 1.079555 -0.016341
v -0.606530 1.100073 0.003752
v -0.607285 1.121964 -0.008715
v -0.606312 1.122170 0.005190
v -0.606674 1.138097 -0.007645
v -0.606233 1.151666 -0.006452
v -0.613871 1.137503 -0.019125
v -0.605677 1.138242 0.006205
v -0.605852 1.151270 0.006100
v -0.609620 1.138710 0.017869
v -0.608927 1.152214 0.016251
v -0.616973 1.138915 0.024921
v -0.609799 1.121273 0.017304
v -0.618145 1.121006 0.024176
v -0.627486 1.121523 0.019693
v -0.627198 1.138593 0.021320
v -0.631632 1.122368 0.010121
v -0.636272 1.122453 0.004346
v -0.632063 1.138984 0.012088
v -0.636544 1.139082 0.004686
v -0.632376 1.151886 0.013663
v -0.626884 1.152279 0.022881
v -0.631500 1.163173 0.014149
v -0.636695 1.152223 0.005165
v -0.635292 1.162834 0.004288
v -0.645071 1.153604 0.001461
v -0.641361 1.165173 -0.000824
v -0.647485 1.153686 -0.009411
v -0.645774 1.139238 0.001042
v -0.647990 1.139571 -0.010210
v -0.645899 1.121797 0.000857
v -0.638421 1.139000 -0.018234
v -0.625831 1.137837 -0.018044
v -0.638116 1.152735 -0.017821
v -0.636602 1.163037 -0.014422
v -0.625654 1.150668 -0.019559
v -0.612011 1.150753 -0.019225
v -0.626360 1.160474 -0.019945
v -0.625310 1.165889 -0.016489
v -0.611174 1.161955 -0.019053
v -0.606169 1.163239 -0.005391
v -0.614272 1.169508 -0.016104
v -0.606951 1.171585 -0.003922
v -0.617344 1.168181 -0.010230
v -0.615152 1.169655 -0.002272
v -0.623562 1.163745 -0.010365
v -0.626569 1.165116 -0.001425
v -0.632852 1.168188 -0.009181
v -0.623143 1.164602 0.011266
v -0.614173 1.169481 0.009118
v -0.620034 1.164188 0.020742
v -0.614574 1.168040 0.016350
v -0.615306 1.155345 0.023984
v -0.626732 1.161122 0.023958
v -0.608744 1.164871 0.017245
v -0.606186 1.169453 0.008665
v -0.607800 1.160090 0.013763
v -0.605582 1.161913 0.006989
v -0.644125 1.162727 -0.008598
v -0.636167 1.098969 0.003459
v -0.627181 1.067203 -0.010609
v -0.630802 1.060822 -0.016559
v -0.629745 1.052161 -0.024559
v -0.639810 1.050345 -0.025043
v -0.636787 1.047299 -0.030513
v -0.641559 1.043323 -0.033257
v -0.642015 1.042013 -0.027692
v -0.625173 1.044742 0.000005
v -0.623028 1.043408 -0.010745
v -0.618537 1.043229 -0.001899
v -0.611014 1.043181 0.010805
v -0.617676 1.043234 0.014706
v -0.608517 1.044403 0.027305
v -0.611528 1.043772 0.037563
v -0.604645 1.051579 -0.004058
v -0.599078 1.051509 0.002655
v -0.606612 1.053494 0.008750
v -0.603444 1.054841 0.011318
v -0.601604 1.062209 0.014417
v -0.602226 1.055331 0.023200
v -0.600781 1.064267 0.024225
v -0.590804 1.054227 0.026456
v -0.591219 1.064843 0.026021
v -0.589002 1.047409 0.032939
v -0.583581 1.052838 0.023114
v -0.579069 1.046110 0.022959
v -0.583368 1.045964 0.033735
v -0.581018 1.054997 0.014347
v -0.584251 1.065691 0.021547
v -0.582054 1.066723 0.014139
v -0.583008 1.078918 0.022309
v -0.591273 1.077870 0.026799
v -0.581859 1.097115 0.022738
v -0.581204 1.080302 0.013366
v -0.580517 1.099503 0.012021
v -0.587615 1.082900 0.006459
v -0.588596 1.102738 0.004928
v -0.596981 1.086794 0.008732
v -0.587153 1.068498 0.008490
v -0.594912 1.071275 0.008798
v -0.585539 1.055517 0.009559
v -0.593587 1.056985 0.007988
v -0.601098 1.074698 0.016364
v -0.600095 1.076614 0.025706
v -0.602014 1.090398 0.017683
v -0.600465 1.092842 0.026699
v -0.603630 1.111995 0.019037
v -0.603173 1.131911 0.017670
v -0.598819 1.107225 0.008764
v -0.600241 1.115409 0.028328
v -0.596942 1.137045 0.026238
v -0.590417 1.117832 0.028656
v -0.589220 1.137459 0.029486
v -0.580967 1.119435 0.022580
v -0.591162 1.095201 0.027657
v -0.581004 1.139570 0.021946
v -0.579462 1.121499 0.010544
v -0.580579 1.139078 0.010688
v -0.589625 1.123938 0.004002
v -0.593072 1.139418 0.004785
v -0.598982 1.127269 0.008657
v -0.598388 1.137700 0.008522
v -0.598500 1.141891 0.014433
v -0.598085 1.147968 0.012305
v -0.591409 1.147132 0.020401
v -0.585958 1.148143 0.012101
v -0.578232 1.049021 0.013860
v -0.582071 1.044086 0.047454
v -0.587093 1.042768 0.053676
v -0.587432 1.047182 0.043146
v -0.586344 1.051062 0.050674
v -0.587938 1.061208 0.051129
v -0.587941 1.051354 0.060337
v -0.593713 1.052864 0.044910
v -0.593944 1.061447 0.046326
v -0.595281 1.069150 0.047968
v -0.601034 1.061205 0.047959
v -0.604727 1.060402 0.052830
v -0.600148 1.070903 0.050338
v -0.596487 1.075032 0.053507
v -0.603508 1.069969 0.054949
v -0.604167 1.067267 0.059053
v -0.600227 1.074579 0.057799
v -0.596492 1.074455 0.060311
v -0.601015 1.069077 0.062582
v -0.602133 1.059146 0.063493
v -0.595308 1.069184 0.063168
v -0.594972 1.059730 0.065233
v -0.591096 1.069432 0.058373
v -0.593464 1.074534 0.057133
v -0.591350 1.070438 0.051493
v -0.588836 1.060653 0.059840
v -0.596061 1.049108 0.064831
v -0.603764 1.049110 0.062266
v -0.597301 1.042708 0.062194
v -0.591228 1.044750 0.065882
v -0.586356 1.045615 0.062312
v -0.586779 1.042537 0.067896
v -0.592598 1.041462 0.065045
v -0.588072 1.040050 0.067723
v -0.589614 1.040541 0.061925
v -0.585977 1.039737 0.066248
v -0.593218 1.041050 0.057733
v -0.583592 1.042114 0.066014
v -0.603561 1.043364 0.060177
v -0.607794 1.043227 0.064928
v -0.607496 1.045543 0.065544
v -0.611993 1.042899 0.070594
v -0.614071 1.044306 0.066725
v -0.610537 1.045196 0.070906
v -0.613483 1.044574 0.076829
v -0.613068 1.045349 0.069433
v -0.610300 1.045787 0.063868
v -0.606897 1.049105 0.057659
v -0.605207 1.059702 0.058143
vn 0.1543 -0.9877 0.0245
vn 0.8455 -0.4616 -0.2685
vn 0.8526 -0.4982 -0.1579
vn 0.1883 -0.9807 0.0525
vn 0.0631 -0.9269 -0.3700
vn 0.6201 -0.4057 -0.6715
vn -0.0633 -0.9960 0.0626
vn -0.1589 -0.9788 -0.1293
vn -0.0181 -0.9957 0.0908
vn 0.8111 -0.4646 -0.3553
vn 0.1649 -0.9848 -0.0546
vn -0.0269 -0.9989 0.0389
vn 0.8043 -0.2556 -0.5365
vn 0.1976 -0.9754 -0.0982
vn 0.0002 -0.9999 0.0144
vn 0.6957 -0.1474 -0.7031
vn 0.2475 -0.9607 -0.1258
vn 0.0528 -0.9985 0.0143
vn 0.5235 -0.1814 -0.8325
vn 0.2344 -0.9472 -0.2188
vn 0.0515 -0.9982 -0.0324
vn 0.2794 -0.8975 -0.3413
vn 0.0318 -0.9944 -0.1009
vn 0.6045 -0.1683 -0.7786
vn 0.9509 -0.0928 -0.2954
vn 0.4691 -0.8444 -0.2585
vn 0.2335 -0.9655 -0.1152
vn 0.0502 -0.9877 -0.1478
vn -0.0535 -0.9916 -0.1175
vn -0.0120 -0.9998 -0.0138
vn -0.0527 -0.9961 -0.0713
vn -0.1234 -0.9870 -0.1032
vn -0.3805 -0.9242 0.0325
vn 0.9314 -0.3135 0.1849
vn 0.6248 -0.7805 0.0213
vn 0.2874 -0.9576 0.0191
vn 0.0588 -0.9973 0.0433
vn -0.0819 -0.9966 -0.0071
vn -0.1015 -0.9918 -0.0771
vn -0.0637 -0.9945 0.0828
vn -0.0670 -0.9964 0.0512
vn -0.0492 -0.9983 -0.0317
vn -0.0990 -0.9864 0.1308
vn -0.0780 -0.9901 0.1168
vn -0.0048 -0.8671 0.4980
vn -0.6087 -0.6903 -0.3911
vn -0.3721 -0.7084 -0.5998
vn -0.3227 -0.7156 -0.6195
vn -0.2392 -0.8647 0.4418
vn -0.6898 -0.6767 -0.2575
vn -0.5269 -0.5384 0.6577
vn 0.2080 0.3897 0.8971
vn -0.3074 -0.4764 0.8238
vn -0.9134 -0.3910 0.1131
vn -0.1588 -0.3527 0.9222
vn -0.9383 -0.2003 0.2819
vn 0.7603 -0.1650 0.6283
vn -0.5146 0.1167 -0.8494
vn -0.6370 0.0692 -0.7677
vn -0.9415 -0.1358 0.3083
vn -0.6867 0.0313 -0.7263
vn -0.1376 -0.2332 0.9626
vn -0.9787 -0.0778 0.1898
vn -0.5742 0.4737 -0.6678
vn -0.0748 -0.5549 0.8285
vn 0.7697 -0.1613 0.6176
vn 0.7466 -0.2457 0.6182
vn 0.9603 0.0640 -0.2714
vn 0.9755 -0.0345 -0.2173
vn 0.9872 0.0318 0.1562
vn 0.8701 -0.3257 -0.3699
vn 0.6290 0.4596 -0.6270
vn 0.8902 0.3024 -0.3408
vn 0.3703 0.0607 -0.9269
vn -0.4045 0.6083 -0.6829
vn -0.9465 -0.0065 -0.3228
vn -0.1590 0.3524 -0.9222
vn 0.7625 0.2381 -0.6016
vn -0.7956 0.1469 -0.5877
vn -0.9828 0.0441 -0.1795
vn -0.9663 -0.0830 -0.2436
vn -0.9510 -0.0673 -0.3017
vn -0.7277 -0.4745 -0.4953
vn -0.3867 -0.1378 -0.9118
vn -0.9497 0.0046 -0.3130
vn -0.9375 0.0821 -0.3383
vn -0.3874 -0.0134 -0.9218
vn 0.4583 0.0251 -0.8884
vn -0.8575 0.4049 0.3175
vn -0.7965 0.0826 0.5990
vn -0.8051 -0.0359 0.5921
vn 0.5586 -0.0148 0.8293
vn 0.2129 0.0810 0.9737
vn 0.1531 -0.0290 0.9878
vn -0.8052 -0.0695 0.5889
vn 0.0686 -0.0654 0.9955
vn -0.8034 0.0244 0.5950
vn 0.0331 0.0594 0.9977
vn 0.7950 0.0436 0.6050
vn 0.8409 -0.0652 0.5373
vn 0.8845 -0.0432 0.4646
vn -0.0312 0.5167 0.8556
vn 0.7384 0.4833 0.4703
vn -0.7679 0.2811 0.5756
vn 0.9975 0.0626 -0.0314
vn 0.9924 -0.0836 -0.0898
vn 0.9505 0.3079 -0.0423
vn 0.1545 0.9637 -0.2177
vn 0.5812 0.5324 -0.6154
vn -0.2924 0.8974 0.3303
vn -0.0982 0.4426 -0.8913
vn -0.5808 0.5074 -0.6366
vn -0.8830 0.4660 -0.0551
vn 0.9739 -0.0968 -0.2054
vn 0.9666 0.1016 -0.2352
vn 0.8902 0.0486 0.4530
vn 0.7987 -0.3178 0.5109
vn 0.5613 0.8040 0.1961
vn 0.2882 -0.1667 -0.9430
vn 0.6952 -0.3844 0.6074
vn -0.2555 -0.3162 0.9137
vn -0.4239 -0.3648 -0.8290
vn -0.1801 -0.8595 -0.4784
vn -0.8339 -0.3838 -0.3966
vn -0.0545 -0.9955 0.0773
vn -0.8357 -0.5373 -0.1136
vn 0.1751 -0.9550 0.2395
vn 0.5274 -0.7647 0.3702
vn 0.5848 0.5654 0.5817
vn -0.7013 -0.7111 -0.0492
vn 0.0921 0.3683 0.9252
vn 0.3042 -0.6080 0.7333
vn -0.4909 -0.8031 0.3378
vn -0.7231 0.6895 0.0414
vn -0.8721 0.3235 0.3671
vn 0.3249 0.1060 -0.9398
vn -0.0368 0.4475 -0.8935
vn 0.3648 0.8782 -0.3093
vn -0.7132 0.6297 -0.3080
vn -0.6138 0.6932 0.3779
vn -0.4003 0.5371 -0.7425
vn -0.2028 0.9470 -0.2493
vn -0.6855 0.6547 -0.3184
vn -0.8544 0.0973 0.5104
vn -0.3657 0.8106 0.4572
vn 0.2461 0.5134 -0.8221
vn 0.0959 0.9454 -0.3115
vn -0.1047 0.9300 0.3523
vn -0.6293 0.5073 0.5887
vn -0.0769 0.8980 0.4331
vn -0.7416 -0.2674 0.6152
vn -0.4787 0.3338 0.8120
vn 0.4070 0.4747 0.7804
vn -0.3026 -0.5906 0.7481
vn -0.7255 -0.0016 0.6883
vn 0.2626 -0.0492 0.9636
vn -0.6308 -0.0691 0.7729
vn -0.6526 -0.0962 0.7516
vn -0.4086 0.0663 0.9103
vn -0.7044 -0.0761 0.7057
vn -0.4589 -0.0431 0.8874
vn -0.7033 -0.1290 0.6991
vn -0.5116 -0.0591 0.8572
vn -0.7872 -0.0753 0.6121
vn -0.7319 -0.1076 0.6729
vn 0.1295 -0.1481 0.9804
vn 0.0930 -0.1157 0.9889
vn 0.8872 -0.0238 0.4608
vn 0.8637 -0.0608 0.5003
vn 0.8471 -0.0464 0.5295
vn 0.9995 -0.0258 0.0178
vn 0.9969 -0.0219 0.0749
vn 0.9986 0.0075 -0.0521
vn 0.9046 0.2384 0.3535
vn 0.9731 0.1943 -0.1238
vn 0.6631 0.4525 -0.5962
vn 0.7700 0.0468 -0.6363
vn 0.8437 -0.0428 -0.5351
vn 0.1104 0.1648 -0.9801
vn 0.1004 -0.0806 -0.9917
vn 0.1777 0.6251 -0.7601
vn 0.8230 0.4673 -0.3230
vn 0.3953 0.8235 -0.4068
vn 0.8024 0.4461 -0.3965
vn 0.7013 0.6251 -0.3427
vn 0.1215 0.8471 -0.5173
vn 0.1709 0.8884 -0.4261
vn -0.0136 0.8805 -0.4739
vn 0.6525 0.6282 -0.4237
vn 0.2894 0.4785 -0.8290
vn -0.1505 0.8163 -0.5577
vn -0.1510 0.7378 -0.6580
vn -0.2017 -0.0372 -0.9787
vn -0.4962 -0.2177 -0.8405
vn -0.1287 -0.9876 -0.0900
vn -0.3097 -0.4794 -0.8211
vn 0.1035 -0.4785 -0.8720
vn 0.0187 0.6602 -0.7508
vn 0.0551 -0.9923 -0.1108
vn -0.0608 -0.9977 0.0290
vn 0.0431 -0.9990 0.0096
vn -0.0312 -0.9958 0.0863
vn 0.0185 -0.9943 0.1047
vn 0.0893 -0.9957 0.0244
vn 0.1083 -0.9853 -0.1323
vn 0.0628 -0.9881 0.1406
vn 0.0579 -0.9621 0.2666
vn -0.1080 -0.9649 0.2392
vn -0.0662 -0.9944 0.0825
vn 0.1226 -0.9803 0.1551
vn -0.0009 -0.9910 0.1340
vn -0.0319 -0.9994 0.0127
vn -0.1997 -0.9783 0.0556
vn -0.0496 -0.9969 0.0606
vn -0.3104 -0.9475 -0.0769
vn -0.3626 -0.8414 -0.4006
vn -0.0118 -0.9815 -0.1911
vn -0.9336 -0.2636 -0.2427
vn -0.8440 0.1090 -0.5252
vn -0.8351 -0.5480 -0.0477
vn -0.4867 0.8682 -0.0971
vn -0.7266 0.6870 -0.0123
vn -0.3345 0.7105 -0.6192
vn -0.1745 -0.2157 -0.9607
vn 0.1169 0.8416 -0.5273
vn 0.1693 -0.3687 -0.9140
vn -0.1026 0.9908 -0.0877
vn 0.1180 0.7528 -0.6476
vn 0.2537 -0.4612 -0.8502
vn -0.1780 0.9239 -0.3387
vn -0.5139 0.8346 -0.1983
vn -0.2300 0.9718 0.0528
vn -0.2069 0.9777 0.0369
vn -0.5846 0.8113 0.0105
vn -0.8298 0.5554 -0.0547
vn -0.6501 -0.7567 -0.0697
vn -0.1835 0.9777 -0.1022
vn -0.8299 0.5139 -0.2172
vn -0.4678 -0.8820 -0.0570
vn -0.0267 -0.9969 0.0737
vn -0.6399 -0.0615 0.7660
vn -0.9774 0.2113 0.0004
vn -0.1138 -0.4316 0.8949
vn -0.1685 0.9202 0.3533
vn -0.3001 0.6273 0.7186
vn 0.2198 -0.5217 0.8244
vn -0.9354 0.2725 0.2254
vn -0.5979 0.4393 -0.6705
vn -0.8709 -0.0173 0.4912
vn -0.7652 0.0233 -0.6434
vn -0.8010 -0.0477 0.5968
vn -0.8763 -0.0279 -0.4809
vn 0.1416 -0.0028 -0.9899
vn 0.0621 0.4448 -0.8935
vn -0.0999 -0.0365 -0.9943
vn -0.2378 -0.0253 -0.9710
vn -0.9227 -0.0145 -0.3854
vn -0.7740 -0.0275 0.6326
vn -0.0271 -0.0425 -0.9987
vn -0.0110 -0.0590 -0.9982
vn 0.0544 -0.0710 -0.9960
vn 0.3369 -0.0476 -0.9403
vn 0.2144 -0.0672 -0.9744
vn 0.9292 -0.0316 -0.3682
vn 0.8950 -0.0399 -0.4444
vn 0.1536 0.1221 -0.9806
vn 0.9940 -0.0273 0.1056
vn 0.9536 -0.0354 -0.2990
vn 0.9918 -0.0200 0.1261
vn 0.4426 -0.0557 -0.8950
vn 0.5446 -0.0420 -0.8376
vn 0.9714 -0.0225 -0.2364
vn 0.9920 -0.0153 0.1251
vn 0.8740 -0.0243 0.4854
vn 0.8456 -0.0229 0.5333
vn 0.8382 -0.0438 0.5435
vn 0.3700 0.1145 0.9219
vn 0.2281 -0.0305 0.9732
vn 0.1192 -0.0756 0.9900
vn -0.7136 -0.0720 0.6968
vn -0.6449 -0.0442 0.7630
vn -0.8694 -0.0544 0.4912
vn -0.8456 -0.0622 0.5302
vn -0.5806 -0.0460 0.8129
vn -0.6405 -0.0391 0.7670
vn -0.8863 -0.0005 0.4632
vn -0.6993 0.0646 0.7119
vn -0.5531 0.0177 0.8329
vn -0.4248 0.4517 0.7845
vn -0.6671 0.6568 0.3517
vn -0.4589 0.7121 0.5313
vn -0.5469 0.7411 0.3894
vn -0.7715 0.1582 0.6162
vn -0.7744 -0.0035 0.6327
vn -0.7652 0.5748 -0.2900
vn -0.9306 0.2061 -0.3026
vn -0.9414 0.0248 -0.3364
vn -0.4218 0.1223 -0.8984
vn -0.3438 -0.0027 -0.9390
vn -0.0378 -0.0415 -0.9984
vn -0.0735 0.0042 -0.9973
vn -0.4408 0.5569 -0.7040
vn -0.1516 0.3002 -0.9417
vn 0.5627 0.2023 -0.8015
vn -0.0650 0.9890 -0.1326
vn -0.1369 0.8469 -0.5139
vn 0.1698 0.8349 -0.5235
vn 0.5657 0.8125 -0.1408
vn 0.9648 0.1134 -0.2374
vn -0.3894 0.9211 0.0067
vn -0.3094 0.9509 0.0093
vn -0.0808 0.9956 0.0476
vn -0.1410 0.9839 0.1099
vn -0.1817 0.9630 0.1991
vn -0.3109 0.9408 0.1352
vn -0.0721 0.7276 0.6822
vn -0.0512 0.8631 0.5024
vn 0.6471 0.4173 0.6381
vn 0.9175 -0.0371 0.3959
vn 0.6924 0.6823 0.2345
vn 0.9925 0.0114 0.1219
vn -0.0224 0.7804 -0.6248
vn -0.1656 0.7967 -0.5812
vn -0.3029 -0.9325 0.1965
vn -0.0792 -0.9964 0.0298
vn -0.3162 -0.9268 0.2028
vn -0.0125 -0.9995 0.0293
vn 0.1742 0.8241 -0.5390
vn -0.5045 0.8243 -0.2571
vn 0.4847 0.8704 0.0868
vn -0.9100 0.2206 -0.3510
vn -0.7374 0.0275 0.6749
vn -0.0724 0.4005 -0.9134
vn 0.1631 -0.0192 0.9864
vn 0.1325 0.4657 0.8749
vn 0.2232 0.9176 0.3288
vn 0.7534 0.3845 0.5334
vn 0.7952 0.0102 0.6063
vn 0.8536 0.4197 0.3086
vn 0.9376 0.2806 -0.2055
vn 0.9707 -0.0054 -0.2403
vn 0.9538 -0.0704 -0.2922
vn 0.8094 -0.0668 0.5835
vn 0.1961 -0.0686 0.9782
vn 0.8272 -0.0463 0.5599
vn 0.2167 -0.0517 0.9749
vn 0.9316 -0.0506 -0.3598
vn 0.3835 -0.0349 -0.9229
vn 0.2663 -0.0767 -0.9608
vn 0.1563 -0.0551 -0.9862
vn -0.6142 -0.0676 -0.7862
vn -0.6917 -0.0449 -0.7208
vn -0.4482 -0.0225 -0.8936
vn 0.5192 0.2373 -0.8210
vn -0.9639 -0.0088 -0.2660
vn -0.9878 -0.0580 -0.1444
vn -0.6940 -0.0559 0.7178
vn -0.6561 -0.0654 0.7518
vn -0.6077 0.0230 0.7938
vn -0.9995 -0.0043 -0.0318
vn -0.5301 0.4210 0.7360
vn -0.9769 0.2117 0.0283
vn -0.7336 0.0141 -0.6795
vn 0.2185 -0.0112 0.9758
vn 0.2081 0.3105 0.9275
vn 0.8607 -0.0197 0.5087
vn 0.7620 0.3947 0.5134
vn 0.9011 0.0083 -0.4336
vn 0.8140 0.3902 -0.4304
vn 0.0760 0.0031 -0.9971
vn -0.1385 0.2590 -0.9559
vn -0.7895 0.1278 -0.6003
vn -0.8599 0.5082 -0.0483
vn -0.4689 0.8196 -0.3292
vn -0.0910 0.8538 0.5125
vn 0.3832 0.8878 -0.2548
vn 0.9649 -0.1917 0.1796
vn 0.5005 0.8552 -0.1347
vn 0.7693 -0.6330 0.0861
vn 0.9287 0.3200 -0.1874
vn 0.2226 0.2134 -0.9513
vn 0.9032 0.2299 -0.3624
vn 0.8626 0.1764 0.4741
vn 0.8511 0.1750 0.4950
vn 0.9552 0.1407 0.2604
vn -0.5519 0.1893 -0.8122
vn -0.4570 0.5389 -0.7076
vn 0.1396 0.4218 -0.8959
vn 0.7163 0.5307 -0.4531
vn -0.8742 0.4491 -0.1844
vn -0.9177 0.1666 -0.3605
vn 0.0616 0.9317 -0.3580
vn -0.4927 0.8461 0.2033
vn -0.9624 0.1287 0.2391
vn -0.9240 0.2499 0.2894
vn -0.5431 0.3671 0.7552
vn 0.1405 0.7835 0.6053
vn 0.5825 0.7933 0.1770
vn 0.2615 0.3817 0.8865
vn 0.2263 0.0928 0.9696
vn -0.5599 0.0752 0.8251
vn 0.8392 0.4183 0.3475
vn -0.0402 -0.0237 0.9989
vn -0.3696 0.1348 0.9194
vn -0.3451 -0.7299 0.5900
vn -0.4590 -0.6641 0.5902
vn -0.0914 0.3043 0.9482
vn 0.1876 0.3000 0.9353
vn 0.9857 0.0617 0.1570
vn -0.1847 -0.6508 0.7364
vn 0.4998 -0.8579 0.1186
vn 0.1936 -0.9670 -0.1656
vn 0.0691 -0.9968 0.0391
vn 0.3838 -0.8529 0.3540
vn 0.5404 0.4753 0.6944
vn 0.7206 0.5092 0.4705
vn -0.0640 -0.9460 0.3177
vn -0.9662 -0.1595 -0.2027
vn -0.7133 0.6941 0.0968
vn -0.2279 0.1306 0.9649
vn -0.2753 0.9333 0.2308
vt 0.142938 0.381299
vt 0.142896 0.378059
vt 0.145825 0.375575
vt 0.146449 0.378521
vt 0.139435 0.381050
vt 0.140402 0.379321
vt 0.139214 0.384413
vt 0.136921 0.381858
vt 0.124642 0.600788
vt 0.123824 0.603899
vt 0.122968 0.602466
vt 0.121616 0.599340
vt 0.125344 0.607285
vt 0.123830 0.609003
vt 0.122974 0.607719
vt 0.121892 0.606253
vt 0.123631 0.613937
vt 0.121695 0.612090
vt 0.120164 0.609992
vt 0.121259 0.619577
vt 0.119564 0.617033
vt 0.117289 0.615387
vt 0.120762 0.624221
vt 0.118553 0.621880
vt 0.114830 0.620285
vt 0.117498 0.626234
vt 0.112649 0.624131
vt 0.120468 0.628162
vt 0.116457 0.630605
vt 0.115430 0.628762
vt 0.111460 0.627969
vt 0.106583 0.625740
vt 0.107808 0.621767
vt 0.110795 0.618008
vt 0.959888 0.089880
vt 0.961300 0.094485
vt 0.956114 0.095998
vt 0.954350 0.092272
vt 0.104262 0.618822
vt 0.107248 0.615862
vt 0.110858 0.631385
vt 0.105765 0.628269
vt 0.952308 0.090133
vt 0.957688 0.086007
vt 0.961447 0.083890
vt 0.964418 0.088630
vt 0.966247 0.092935
vt 0.965763 0.083746
vt 0.969307 0.088148
vt 0.971226 0.092688
vt 0.973998 0.088802
vt 0.975761 0.093351
vt 0.970914 0.082646
vt 0.968355 0.097008
vt 0.972734 0.096298
vt 0.977187 0.097318
vt 0.979796 0.094688
vt 0.979946 0.098011
vt 0.979510 0.090124
vt 0.982694 0.087439
vt 0.982599 0.093011
vt 0.983189 0.097420
vt 0.985735 0.091497
vt 0.988993 0.097900
vt 0.985639 0.088506
vt 0.979432 0.100347
vt 0.984395 0.103043
vt 0.252179 0.933157
vt 0.257180 0.924406
vt 0.258207 0.933427
vt 0.253954 0.937718
vt 0.256504 0.919187
vt 0.251278 0.927866
vt 0.177344 0.636655
vt 0.174593 0.636063
vt 0.174194 0.623055
vt 0.179140 0.629962
vt 0.260770 0.912562
vt 0.264389 0.916428
vt 0.251552 0.919725
vt 0.254814 0.913087
vt 0.988941 0.088720
vt 0.990011 0.093094
vt 0.985418 0.086115
vt 0.989538 0.085492
vt 0.173014 0.618860
vt 0.170202 0.627930
vt 0.169485 0.627963
vt 0.168524 0.623916
vt 0.250210 0.912968
vt 0.258472 0.908815
vt 0.171718 0.634033
vt 0.170102 0.641929
vt 0.167925 0.640583
vt 0.172721 0.624458
vt 0.171439 0.650724
vt 0.175069 0.647464
vt 0.169046 0.659584
vt 0.166143 0.653472
vt 0.272379 0.906896
vt 0.287420 0.904926
vt 0.287268 0.907036
vt 0.277993 0.908715
vt 0.287700 0.901757
vt 0.277027 0.902804
vt 0.265449 0.899737
vt 0.262382 0.908635
vt 0.256555 0.903565
vt 0.258748 0.901137
vt 0.203602 0.936558
vt 0.203115 0.933694
vt 0.210901 0.929096
vt 0.210635 0.932306
vt 0.250183 0.896328
vt 0.246771 0.897531
vt 0.196302 0.943408
vt 0.196530 0.937217
vt 0.222457 0.959244
vt 0.221396 0.955101
vt 0.226154 0.955453
vt 0.227404 0.959083
vt 0.984815 0.963813
vt 0.986816 0.959681
vt 0.990867 0.962914
vt 0.987962 0.966936
vt 0.219496 0.951851
vt 0.225352 0.951223
vt 0.232139 0.956177
vt 0.231975 0.951581
vt 0.232586 0.959617
vt 0.280894 0.899297
vt 0.290518 0.898453
vt 0.239308 0.952426
vt 0.239513 0.957176
vt 0.239456 0.947677
vt 0.232228 0.947110
vt 0.224852 0.946578
vt 0.246580 0.952420
vt 0.246857 0.947761
vt 0.245384 0.956313
vt 0.240304 0.943308
vt 0.233966 0.942583
vt 0.245674 0.944333
vt 0.252088 0.943896
vt 0.248198 0.940734
vt 0.250793 0.951719
vt 0.241860 0.939505
vt 0.307748 0.904353
vt 0.300952 0.905269
vt 0.296866 0.904013
vt 0.297645 0.902584
vt 0.289715 0.909737
vt 0.296388 0.901165
vt 0.305605 0.899720
vt 0.299928 0.899198
vt 0.307452 0.896813
vt 0.236183 0.938223
vt 0.250324 0.903905
vt 0.248241 0.907465
vt 0.243632 0.899325
vt 0.224497 0.941756
vt 0.242892 0.896312
vt 0.217750 0.946840
vt 0.217454 0.941068
vt 0.212349 0.945630
vt 0.211599 0.941846
vt 0.214077 0.935246
vt 0.210584 0.938061
vt 0.210526 0.942123
vt 0.209255 0.941166
vt 0.207539 0.937270
vt 0.206869 0.940418
vt 0.203989 0.939055
vt 0.206737 0.944493
vt 0.202123 0.947540
vt 0.208178 0.950325
vt 0.212234 0.952018
vt 0.208044 0.954391
vt 0.209600 0.955340
vt 0.989174 0.951827
vt 0.988945 0.954514
vt 0.984681 0.955679
vt 0.984258 0.951902
vt 0.206826 0.957001
vt 0.205925 0.956239
vt 0.991590 0.951960
vt 0.991435 0.953543
vt 0.990716 0.957204
vt 0.992768 0.955279
vt 0.204883 0.957526
vt 0.205299 0.959204
vt 0.994930 0.956706
vt 0.993472 0.959222
vt 0.170206 0.608398
vt 0.175834 0.610714
vt 0.177531 0.615434
vt 0.977438 0.106300
vt 0.973851 0.099740
vt 0.170392 0.599602
vt 0.175714 0.600833
vt 0.982852 0.085097
vt 0.165404 0.593862
vt 0.165131 0.598911
vt 0.163168 0.595433
vt 0.168211 0.587366
vt 0.175357 0.588333
vt 0.180411 0.592174
vt 0.188854 0.586284
vt 0.188936 0.582746
vt 0.168692 0.581530
vt 0.174899 0.580329
vt 0.184207 0.579170
vt 0.942378 0.687737
vt 0.939746 0.684884
vt 0.941666 0.683311
vt 0.944489 0.681849
vt 0.200106 0.581264
vt 0.200448 0.577450
vt 0.165081 0.367739
vt 0.168506 0.367657
vt 0.171255 0.374033
vt 0.166158 0.371189
vt 0.090556 0.243924
vt 0.080184 0.241001
vt 0.081250 0.237913
vt 0.088240 0.239800
vt 0.165252 0.362833
vt 0.170247 0.364453
vt 0.089893 0.236576
vt 0.084773 0.233755
vt 0.095487 0.240018
vt 0.092236 0.229467
vt 0.096720 0.231108
vt 0.086732 0.227365
vt 0.099198 0.220554
vt 0.095449 0.219342
vt 0.090171 0.217850
vt 0.082829 0.224776
vt 0.085051 0.215813
vt 0.166411 0.356591
vt 0.171459 0.359164
vt 0.160155 0.362152
vt 0.160981 0.355008
vt 0.167702 0.346218
vt 0.162008 0.345469
vt 0.154877 0.354786
vt 0.155630 0.344837
vt 0.154215 0.362004
vt 0.160127 0.367045
vt 0.153766 0.367254
vt 0.145923 0.367962
vt 0.147549 0.362512
vt 0.148166 0.355126
vt 0.142287 0.363089
vt 0.142084 0.355697
vt 0.140954 0.367957
vt 0.144332 0.374009
vt 0.142565 0.372631
vt 0.147370 0.371641
vt 0.153705 0.370641
vt 0.139685 0.371786
vt 0.140397 0.375063
vt 0.138515 0.374167
vt 0.142026 0.376371
vt 0.139475 0.378203
vt 0.137736 0.377169
vt 0.134560 0.376499
vt 0.138143 0.379360
vt 0.136325 0.379471
vt 0.133873 0.381367
vt 0.133644 0.379371
vt 0.131177 0.379283
vt 0.130718 0.377508
vt 0.131117 0.382019
vt 0.134389 0.383951
vt 0.131057 0.384327
vt 0.138431 0.386475
vt 0.134706 0.386235
vt 0.130953 0.386565
vt 0.127285 0.386877
vt 0.128236 0.383431
vt 0.127510 0.390356
vt 0.089193 0.249093
vt 0.088276 0.252199
vt 0.086751 0.252467
vt 0.085942 0.251221
vt 0.134556 0.389321
vt 0.131301 0.389991
vt 0.090823 0.252718
vt 0.088643 0.255463
vt 0.122468 0.389702
vt 0.124518 0.387264
vt 0.119822 0.387201
vt 0.117811 0.390959
vt 0.115692 0.386481
vt 0.122175 0.385433
vt 0.124134 0.383580
vt 0.125879 0.383794
vt 0.121817 0.383097
vt 0.123427 0.382228
vt 0.119840 0.383335
vt 0.122256 0.381481
vt 0.120783 0.381369
vt 0.124025 0.381190
vt 0.124669 0.381968
vt 0.125530 0.380076
vt 0.126238 0.381319
vt 0.124036 0.378640
vt 0.127881 0.378630
vt 0.128601 0.380539
vt 0.126237 0.376550
vt 0.123528 0.375698
vt 0.122058 0.379010
vt 0.119750 0.380487
vt 0.119292 0.378983
vt 0.118745 0.382624
vt 0.118147 0.383580
vt 0.099135 0.251337
vt 0.100903 0.251379
vt 0.101170 0.253116
vt 0.098731 0.255053
vt 0.115792 0.385914
vt 0.115964 0.385089
vt 0.090940 0.256718
vt 0.092931 0.254834
vt 0.096401 0.256659
vt 0.095619 0.258883
vt 0.096333 0.253869
vt 0.097254 0.253752
vt 0.095075 0.251564
vt 0.096695 0.250816
vt 0.096336 0.247045
vt 0.093703 0.248547
vt 0.100525 0.247823
vt 0.101144 0.241917
vt 0.107752 0.243789
vt 0.107146 0.249104
vt 0.102419 0.232818
vt 0.108732 0.234247
vt 0.104851 0.222169
vt 0.111752 0.223701
vt 0.115653 0.235448
vt 0.114381 0.243960
vt 0.118928 0.225144
vt 0.121534 0.214511
vt 0.114301 0.213015
vt 0.107770 0.211286
vt 0.136254 0.333072
vt 0.137238 0.345045
vt 0.131885 0.345365
vt 0.131168 0.334654
vt 0.137316 0.356487
vt 0.132830 0.356934
vt 0.142019 0.332834
vt 0.142163 0.344978
vt 0.148739 0.332637
vt 0.148664 0.344945
vt 0.137070 0.363214
vt 0.155915 0.332656
vt 0.149434 0.323794
vt 0.156563 0.323843
vt 0.142460 0.323992
vt 0.143041 0.316714
vt 0.150211 0.316352
vt 0.156566 0.316635
vt 0.161878 0.316280
vt 0.162896 0.323657
vt 0.162323 0.333201
vt 0.166786 0.314366
vt 0.168124 0.323550
vt 0.167759 0.333415
vt 0.088733 0.204722
vt 0.093741 0.206138
vt 0.096741 0.197870
vt 0.092197 0.195722
vt 0.101395 0.199910
vt 0.098827 0.207991
vt 0.102379 0.209425
vt 0.105379 0.201242
vt 0.104081 0.193305
vt 0.108183 0.194646
vt 0.099667 0.191326
vt 0.101372 0.186995
vt 0.106278 0.187656
vt 0.110921 0.189253
vt 0.114076 0.191023
vt 0.112151 0.196398
vt 0.109817 0.202923
vt 0.117310 0.193485
vt 0.116804 0.197833
vt 0.115546 0.204420
vt 0.122099 0.197900
vt 0.122087 0.205409
vt 0.126783 0.212731
vt 0.128804 0.206375
vt 0.126870 0.197848
vt 0.121100 0.192496
vt 0.126494 0.191125
vt 0.136315 0.324118
vt 0.136086 0.316928
vt 0.135666 0.311392
vt 0.143341 0.310631
vt 0.119057 0.188648
vt 0.124674 0.187963
vt 0.136175 0.307996
vt 0.142941 0.306153
vt 0.151269 0.305436
vt 0.150801 0.310005
vt 0.144766 0.302572
vt 0.151738 0.301635
vt 0.120417 0.185036
vt 0.120878 0.181715
vt 0.124325 0.179961
vt 0.114511 0.184037
vt 0.116237 0.178508
vt 0.108758 0.177541
vt 0.106726 0.183182
vt 0.167965 0.301660
vt 0.167774 0.307926
vt 0.164200 0.306023
vt 0.161261 0.303079
vt 0.100444 0.183343
vt 0.162302 0.309296
vt 0.095866 0.187513
vt 0.160615 0.311977
vt 0.158272 0.306883
vt 0.157096 0.310900
vt 0.134079 0.369436
vt 0.134442 0.373610
vt 0.129287 0.374575
vt 0.127591 0.368837
vt 0.120343 0.600123
vt 0.117671 0.604062
vt 0.115961 0.599818
vt 0.120675 0.595655
vt 0.121419 0.603242
vt 0.119143 0.607607
vt 0.137411 0.389398
vt 0.113582 0.609822
vt 0.115007 0.613031
vt 0.111634 0.606964
vt 0.106682 0.614215
vt 0.102705 0.612063
vt 0.102471 0.612529
vt 0.962631 0.100737
vt 0.968281 0.098100
vt 0.147933 0.374147
vt 0.152373 0.374559
vt 0.926698 0.686701
vt 0.925449 0.682741
vt 0.929115 0.684900
vt 0.930616 0.688416
vt 0.936253 0.688518
vt 0.936020 0.686610
vt 0.160771 0.369656
vt 0.937440 0.692318
vt 0.942657 0.691608
vt 0.931537 0.692589
vt 0.111728 0.642978
vt 0.106213 0.646322
vt 0.103210 0.643244
vt 0.108490 0.638767
vt 0.182610 0.572339
vt 0.190537 0.568104
vt 0.189411 0.575331
vt 0.112245 0.635533
vt 0.116625 0.640743
vt 0.183113 0.568136
vt 0.191610 0.563740
vt 0.118324 0.633059
vt 0.184857 0.564893
vt 0.192142 0.559145
vt 0.121251 0.638754
vt 0.124691 0.645087
vt 0.119880 0.647068
vt 0.114894 0.649055
vt 0.124753 0.655478
vt 0.119326 0.657275
vt 0.130011 0.654837
vt 0.125538 0.637593
vt 0.129661 0.644241
vt 0.135333 0.653706
vt 0.937045 0.705677
vt 0.941417 0.714552
vt 0.935486 0.714782
vt 0.931237 0.706047
vt 0.929537 0.699032
vt 0.934237 0.698846
vt 0.926808 0.693584
vt 0.121721 0.631862
vt 0.924284 0.691289
vt 0.926434 0.689655
vt 0.939648 0.698165
vt 0.943079 0.705129
vt 0.944546 0.697554
vt 0.948345 0.704353
vt 0.952996 0.714225
vt 0.947669 0.714542
vt 0.955112 0.724944
vt 0.949794 0.724174
vt 0.944129 0.723786
vt 0.120804 0.669533
vt 0.125187 0.668204
vt 0.130543 0.677501
vt 0.127460 0.679900
vt 0.114263 0.658329
vt 0.130185 0.666829
vt 0.135702 0.676278
vt 0.110001 0.651381
vt 0.135266 0.665079
vt 0.139945 0.673914
vt 0.140464 0.663886
vt 0.144861 0.671549
vt 0.938495 0.724722
vt 0.945706 0.728355
vt 0.942501 0.731075
vt 0.949967 0.730549
vt 0.947559 0.731772
vt 0.953869 0.734005
vt 0.947580 0.737202
vt 0.141189 0.679735
vt 0.134663 0.683667
vt 0.942395 0.738368
vt 0.171329 0.568747
vt 0.174800 0.561776
vt 0.173660 0.573480
vt 0.165415 0.566929
vt 0.168241 0.560593
vt 0.165185 0.574084
vt 0.160276 0.579713
vt 0.156316 0.572954
vt 0.150318 0.565108
vt 0.158353 0.566331
vt 0.160131 0.564523
vt 0.159734 0.584751
vt 0.149797 0.579961
vt 0.152473 0.577269
vt 0.148407 0.572968
vt 0.148909 0.583736
vt 0.158882 0.588870
vt 0.144611 0.576185
vt 0.141942 0.579725
vt 0.983645 0.074124
vt 0.981040 0.073922
vt 0.982767 0.069500
vt 0.985223 0.068413
vt 0.984527 0.065305
vt 0.981544 0.067289
vt 0.139327 0.574943
vt 0.142949 0.572848
vt 0.979846 0.065175
vt 0.981725 0.063179
vt 0.975720 0.069458
vt 0.978559 0.072106
vt 0.143749 0.566695
vt 0.139302 0.568767
vt 0.972651 0.066306
vt 0.976315 0.062130
vt 0.972384 0.074274
vt 0.968369 0.071074
vt 0.976067 0.077244
vt 0.969519 0.079624
vt 0.967684 0.077401
vt 0.969276 0.074928
vt 0.964970 0.072560
vt 0.967573 0.075354
vt 0.966346 0.074718
vt 0.967051 0.075876
vt 0.966356 0.075684
vt 0.964936 0.076258
vt 0.963365 0.079116
vt 0.960265 0.078197
vt 0.974408 0.082441
vt 0.976722 0.079979
vt 0.977614 0.082053
vt 0.977039 0.084347
vt 0.978567 0.086163
vt 0.978789 0.084231
vt 0.977805 0.083622
vt 0.979574 0.081853
vt 0.980731 0.079920
vt 0.983609 0.078864
s 1
usemtl abyss_chancel_background_pbr
f 1/1/1 2/2/2 6/3/3 5/4/4
f 1/1/1 3/5/5 178/6/6 2/2/2
f 3/5/5 1/1/1 4/7/7 181/8/8
f 1/9/1 5/10/4 7/11/9 4/12/7
f 6/13/3 9/14/10 8/15/11 5/10/4
f 8/15/11 10/16/12 7/11/9 5/10/4
f 9/14/10 12/17/13 11/18/14 8/15/11
f 11/18/14 13/19/15 10/16/12 8/15/11
f 12/17/13 15/20/16 14/21/17 11/18/14
f 11/18/14 14/21/17 16/22/18 13/19/15
f 15/20/16 19/23/19 17/24/20 14/21/17
f 17/24/20 18/25/21 16/22/18 14/21/17
f 20/26/22 23/27/23 18/25/21 17/24/20
f 22/28/24 20/26/22 17/24/20 19/23/19
f 22/28/24 373/29/25 21/30/26 20/26/22
f 23/27/23 20/26/22 21/30/26 24/31/27
f 24/31/27 28/32/28 25/33/29 23/27/23
f 25/33/29 27/34/30 18/25/21 23/27/23
f 30/35/31 26/36/32 25/37/29 28/38/28
f 25/33/29 26/39/32 319/40/33 27/34/30
f 332/41/34 29/42/35 28/32/28 24/31/27
f 29/43/35 31/44/36 30/35/31 28/38/28
f 33/45/37 32/46/38 30/35/31 31/44/36
f 34/47/39 26/36/32 30/35/31 32/46/38
f 37/48/40 35/49/41 32/46/38 33/45/37
f 38/50/42 34/47/39 32/46/38 35/49/41
f 36/51/43 40/52/44 38/50/42 35/49/41
f 35/49/41 37/48/40 411/53/45 36/51/43
f 320/54/46 34/47/39 38/50/42 39/55/47
f 41/56/48 39/55/47 38/50/42 40/52/44
f 41/56/48 40/52/44 42/57/49 44/58/50
f 36/51/43 43/59/51 42/57/49 40/52/44
f 47/60/52 45/61/53 42/57/49 43/59/51
f 48/62/54 44/58/50 42/57/49 45/61/53
f 45/61/53 46/63/55 50/64/56 48/62/54
f 46/63/55 45/61/53 47/60/52 59/65/57
f 49/66/58 41/56/48 44/58/50 48/62/54
f 50/64/56 51/67/59 49/66/58 48/62/54
f 50/68/56 52/69/60 53/70/61 51/71/59
f 55/72/62 52/69/60 50/68/56 46/73/55
f 54/74/63 66/75/64 53/76/61 52/77/60
f 52/69/60 55/72/62 56/78/65 54/79/63
f 55/72/62 57/80/66 60/81/67 56/78/65
f 57/82/66 55/83/62 46/63/55 59/65/57
f 57/82/66 59/65/57 130/84/68 58/85/69
f 58/86/69 61/87/70 60/88/67 57/89/66
f 60/81/67 61/90/70 62/91/71 56/78/65
f 61/87/70 63/92/72 64/93/73 62/94/71
f 61/87/70 58/86/69 65/95/74 63/92/72
f 67/96/75 64/93/73 63/92/72 66/75/64
f 66/75/64 63/92/72 65/95/74 53/76/61
f 66/75/64 54/74/63 69/97/76 67/96/75
f 64/93/73 67/96/75 68/98/77 95/99/78
f 69/100/76 70/101/79 68/102/77 67/103/75
f 101/104/80 70/101/79 69/100/76 71/105/81
f 73/106/82 71/105/81 69/100/76 72/107/83
f 56/78/65 72/107/83 69/100/76 54/79/63
f 72/107/83 56/78/65 62/91/71 74/108/84
f 76/109/85 73/106/82 72/107/83 74/108/84
f 77/110/86 76/111/85 74/112/84 75/113/87
f 75/114/87 74/108/84 62/91/71 107/115/88
f 76/111/85 77/110/86 79/116/89 78/117/90
f 76/118/85 78/119/90 81/120/91 73/121/82
f 78/122/90 79/123/89 118/124/92 80/125/93
f 78/119/90 80/126/93 82/127/94 81/120/91
f 83/128/95 81/120/91 82/127/94 85/129/96
f 73/121/82 81/120/91 83/128/95 71/130/81
f 101/104/80 71/105/81 83/131/95 84/132/97
f 87/133/98 84/134/97 83/128/95 85/129/96
f 89/135/99 87/133/98 85/129/96 86/136/100
f 85/129/96 82/127/94 104/137/101 86/136/100
f 88/138/102 87/133/98 89/135/99 91/139/103
f 87/133/98 88/138/102 100/140/104 84/134/97
f 90/141/105 89/135/99 86/136/100 102/142/106
f 89/135/99 90/141/105 93/143/107 91/139/103
f 92/144/108 91/139/103 93/143/107 94/145/109
f 91/139/103 92/144/108 99/146/110 88/138/102
f 95/147/78 94/145/109 93/143/107 90/141/105
f 92/148/108 94/149/109 96/150/111 97/151/112
f 95/152/78 68/102/77 96/150/111 94/149/109
f 70/101/79 97/151/112 96/150/111 68/102/77
f 97/151/112 98/153/113 99/154/110 92/148/108
f 98/153/113 97/151/112 70/101/79 101/104/80
f 100/155/104 88/156/102 99/154/110 98/153/113
f 101/104/80 84/132/97 100/155/104 98/153/113
f 90/141/105 102/142/106 64/157/73 95/147/78
f 103/158/114 62/91/71 64/159/73 102/160/106
f 86/136/100 104/137/101 103/161/114 102/142/106
f 105/162/115 107/115/88 62/91/71 103/158/114
f 106/163/116 105/164/115 103/161/114 104/137/101
f 106/163/116 110/165/117 108/166/118 105/164/115
f 107/167/88 105/164/115 108/166/118 111/168/119
f 108/166/118 110/165/117 109/169/120
f 109/169/120 112/170/121 111/168/119 108/166/118
f 113/171/122 111/168/119 112/170/121 115/172/123
f 75/113/87 107/167/88 111/168/119 113/171/122
f 114/173/124 113/171/122 115/172/123 116/174/125
f 114/173/124 77/110/86 75/113/87 113/171/122
f 116/174/125 115/172/123 112/170/121
f 119/175/126 114/173/124 116/174/125 117/176/127
f 116/174/125 110/165/117 118/177/92 117/176/127
f 109/169/120 110/165/117 116/174/125 112/170/121
f 120/178/128 117/176/127 118/177/92 121/179/129
f 120/180/128 123/181/130 119/182/126 117/183/127
f 120/178/128 121/179/129 127/184/131 122/185/132
f 120/180/128 122/186/132 125/187/133 123/181/130
f 123/181/130 124/188/134 79/123/89 119/182/126
f 124/188/134 123/181/130 125/187/133 126/189/135
f 125/190/133 122/185/132 127/184/131 126/191/135
f 124/188/134 126/189/135 127/192/131 121/193/129
f 124/188/134 121/193/129 118/124/92 79/123/89
f 114/173/124 119/175/126 79/116/89 77/110/86
f 106/163/116 80/126/93 118/177/92 110/165/117
f 80/126/93 106/163/116 104/137/101 82/127/94
f 58/86/69 130/194/68 128/195/136 65/95/74
f 53/76/61 65/95/74 128/195/136 51/196/59
f 128/197/136 129/198/137 49/66/58 51/67/59
f 130/194/68 131/199/138 129/200/137 128/195/136
f 130/84/68 59/65/57 47/60/52 131/201/138
f 132/202/139 131/199/138 47/203/52 420/204/140
f 135/205/141 133/206/142 131/199/138 132/202/139
f 133/206/142 134/207/143 129/200/137 131/199/138
f 139/208/144 134/207/143 133/206/142 137/209/145
f 380/210/146 136/211/147 133/206/142 135/205/141
f 138/212/148 137/209/145 133/206/142 136/211/147
f 326/213/149 140/214/150 137/215/145 138/216/148
f 142/217/151 139/208/144 137/209/145 141/218/152
f 143/219/153 141/220/152 137/221/145 140/222/150
f 146/223/154 142/224/151 141/225/152 145/226/155
f 155/227/156 144/228/157 141/220/152 143/219/153
f 147/229/158 145/226/155 141/225/152 144/230/157
f 148/231/159 146/223/154 145/226/155 147/229/158
f 149/232/160 150/233/161 148/231/159 147/229/158
f 144/230/157 152/234/162 149/232/160 147/229/158
f 306/235/163 150/233/161 149/232/160 151/236/164
f 153/237/165 151/236/164 149/232/160 152/234/162
f 154/238/166 156/239/167 153/237/165 152/234/162
f 144/228/157 155/227/156 154/240/166 152/241/162
f 154/240/166 155/227/156 160/242/168 157/243/169
f 156/244/167 154/240/166 157/243/169 158/245/170
f 158/245/170 157/243/169 159/246/171 248/247/172
f 160/242/168 162/248/173 159/246/171 157/243/169
f 143/219/153 161/249/174 160/242/168 155/227/156
f 163/250/175 162/248/173 160/242/168 161/249/174
f 162/248/173 163/250/175 167/251/176 164/252/177
f 162/248/173 164/252/177 166/253/178 159/246/171
f 165/254/179 247/255/180 166/253/178 164/252/177
f 165/254/179 164/252/177 167/251/176 169/256/181
f 172/257/182 170/258/183 167/251/176 168/259/184
f 167/251/176 163/250/175 321/260/185 168/259/184
f 171/261/186 169/256/181 167/251/176 170/258/183
f 170/258/183 173/262/187 175/263/188 171/261/186
f 172/257/182 176/264/189 173/262/187 170/258/183
f 177/265/190 174/266/191 173/262/187 176/264/189
f 174/266/191 183/267/192 175/263/188 173/262/187
f 176/264/189 172/257/182 6/3/3 2/2/2
f 176/264/189 2/2/2 178/6/6 177/265/190
f 179/268/193 177/265/190 178/6/6 3/5/5
f 174/266/191 177/265/190 179/268/193 180/269/194
f 181/8/8 180/269/194 179/268/193 3/5/5
f 180/269/194 181/8/8 185/270/195 182/271/196
f 180/269/194 182/271/196 183/267/192 174/266/191
f 184/272/197 311/273/198 183/267/192 182/271/196
f 184/272/197 182/271/196 185/270/195 186/274/199
f 181/8/8 4/7/7 187/275/200 185/270/195
f 186/274/199 185/270/195 187/275/200 189/276/201
f 7/277/9 188/278/202 187/275/200 4/7/7
f 187/275/200 188/278/202 191/279/203 189/276/201
f 189/276/201 190/280/204 313/281/205 186/274/199
f 191/279/203 193/282/206 190/280/204 189/276/201
f 194/283/207 193/284/206 191/285/203 192/286/208
f 315/287/209 192/288/208 191/279/203 188/278/202
f 193/284/206 194/283/207 196/289/210 195/290/211
f 193/282/206 195/291/211 198/292/212 190/280/204
f 197/293/213 195/291/211 196/294/210 220/295/214
f 197/293/213 200/296/215 198/292/212 195/291/211
f 201/297/216 199/298/217 198/292/212 200/296/215
f 198/292/212 199/298/217 313/281/205 190/280/204
f 200/296/215 202/299/218 205/300/219 201/297/216
f 200/296/215 197/293/213 204/301/220 202/299/218
f 203/302/221 202/299/218 204/301/220 216/303/222
f 203/302/221 206/304/223 205/300/219 202/299/218
f 205/300/219 206/304/223 207/305/224 201/297/216
f 208/306/225 209/307/226 207/305/224 206/304/223
f 206/304/223 203/302/221 211/308/227 208/306/225
f 209/307/226 208/306/225 210/309/228 312/310/229
f 210/309/228 208/306/225 211/308/227 212/311/230
f 214/312/231 212/311/230 211/308/227 213/313/232
f 211/308/227 203/302/221 216/303/222 213/313/232
f 213/313/232 215/314/233 229/315/234 214/312/231
f 215/314/233 213/313/232 216/303/222 217/316/235
f 216/303/222 204/301/220 219/317/236 217/316/235
f 230/318/237 215/319/233 217/320/235 218/321/238
f 217/316/235 219/317/236 221/322/239 218/323/238
f 197/293/213 220/295/214 219/317/236 204/301/220
f 220/324/214 222/325/240 221/326/239 219/327/236
f 218/321/238 221/326/239 223/328/241 224/329/242
f 222/325/240 225/330/243 223/328/241 221/326/239
f 226/331/244 224/329/242 223/328/241 225/330/243
f 228/332/245 226/331/244 225/330/243 227/333/246
f 196/289/210 227/333/246 225/330/243 222/325/240
f 196/289/210 194/283/207 146/223/154 227/333/246
f 228/332/245 227/333/246 146/223/154 148/231/159
f 229/334/234 228/332/245 148/231/159 231/335/247
f 226/331/244 228/332/245 229/334/234 230/318/237
f 229/334/234 231/335/247 232/336/248 214/337/231
f 229/334/234 215/319/233 230/318/237
f 233/338/249 235/339/250 232/336/248 231/335/247
f 233/338/249 231/335/247 148/231/159 150/233/161
f 150/233/161 306/235/163 234/340/251 233/338/249
f 235/339/250 233/338/249 234/340/251 237/341/252
f 235/339/250 236/342/253 308/343/254 232/336/248
f 236/342/253 235/339/250 237/341/252 239/344/255
f 240/345/256 239/344/255 237/341/252 238/346/257
f 238/346/257 237/341/252 234/340/251 277/347/258
f 242/348/259 241/349/260 239/350/255 240/351/256
f 243/352/261 236/353/253 239/350/255 241/349/260
f 245/354/262 244/355/263 241/349/260 242/348/259
f 247/255/180 243/352/261 241/349/260 244/355/263
f 249/356/264 246/357/265 244/355/263 245/354/262
f 166/253/178 247/255/180 244/355/263 246/357/265
f 247/255/180 165/254/179 307/358/266 243/352/261
f 248/247/172 159/246/171 166/253/178 246/357/265
f 250/359/267 248/247/172 246/357/265 249/356/264
f 249/356/264 251/360/268 254/361/269 250/359/267
f 251/360/268 249/356/264 245/354/262 253/362/270
f 253/362/270 283/363/271 252/364/272 251/360/268
f 252/364/272 255/365/273 254/361/269 251/360/268
f 257/366/274 256/367/275 254/361/269 255/365/273
f 254/361/269 256/367/275 259/368/276 250/359/267
f 256/367/275 257/366/274 299/369/277 258/370/278
f 256/367/275 258/370/278 260/371/279 259/368/276
f 158/245/170 259/368/276 260/371/279 156/244/167
f 248/247/172 250/359/267 259/368/276 158/245/170
f 260/372/279 261/373/280 153/237/165 156/239/167
f 262/374/281 261/373/280 260/372/279 258/375/278
f 261/373/280 262/374/281 265/376/282 263/377/283
f 263/377/283 151/236/164 153/237/165 261/373/280
f 151/236/164 263/377/283 264/378/284 306/235/163
f 264/378/284 263/377/283 265/376/282 266/379/285
f 265/376/282 267/380/286 270/381/287 266/379/285
f 268/382/288 267/380/286 265/376/282 262/374/281
f 267/380/286 268/382/288 300/383/289 269/384/290
f 269/384/290 271/385/291 270/381/287 267/380/286
f 273/386/292 272/387/293 270/381/287 271/385/291
f 270/381/287 272/387/293 275/388/294 266/379/285
f 272/387/293 273/386/292 305/389/295 274/390/296
f 272/387/293 274/390/296 276/391/297 275/388/294
f 277/347/258 275/388/294 276/391/297 238/346/257
f 264/378/284 266/379/285 275/388/294 277/347/258
f 234/340/251 306/235/163 264/378/284 277/347/258
f 274/390/296 280/392/298 278/393/299 276/391/297
f 238/346/257 276/391/297 278/393/299 240/345/256
f 242/394/259 240/345/256 278/393/299 279/395/300
f 278/393/299 280/392/298 282/396/301 279/395/300
f 280/392/298 281/397/302 284/398/303 282/396/301
f 280/392/298 274/390/296 305/389/295 281/397/302
f 253/362/270 279/399/300 282/400/301 283/363/271
f 282/400/301 284/401/303 286/402/304 283/363/271
f 294/403/305 285/404/306 284/398/303 281/397/302
f 285/405/306 288/406/307 286/402/304 284/401/303
f 289/407/308 287/408/309 286/402/304 288/406/307
f 286/402/304 287/408/309 252/364/272 283/363/271
f 289/407/308 288/406/307 290/409/310 291/410/311
f 285/404/306 292/411/312 290/412/310 288/413/307
f 293/414/313 291/415/311 290/412/310 292/411/312
f 285/404/306 294/403/305 293/414/313 292/411/312
f 296/416/314 291/415/311 293/414/313 295/417/315
f 273/386/292 271/385/291 293/414/313 294/403/305
f 269/384/290 295/417/315 293/414/313 271/385/291
f 295/418/315 297/419/316 298/420/317 296/421/314
f 295/417/315 269/384/290 300/383/289 297/422/316
f 299/369/277 301/423/318 298/420/317 297/419/316
f 300/383/289 268/382/288 299/424/277 297/422/316
f 299/369/277 257/366/274 303/425/319 301/423/318
f 262/374/281 258/375/278 299/424/277 268/382/288
f 302/426/320 296/421/314 298/420/317 301/423/318
f 302/426/320 301/423/318 303/425/319 304/427/321
f 255/365/273 304/427/321 303/425/319 257/366/274
f 302/426/320 304/427/321 287/408/309 289/407/308
f 304/427/321 255/365/273 252/364/272 287/408/309
f 296/421/314 302/426/320 289/407/308 291/410/311
f 294/403/305 281/397/302 305/389/295 273/386/292
f 279/399/300 253/362/270 245/354/262 242/348/259
f 236/353/253 243/352/261 307/358/266 308/428/254
f 169/256/181 308/428/254 307/358/266 165/254/179
f 171/261/186 309/429/322 308/428/254 169/256/181
f 310/430/323 232/431/248 308/428/254 309/429/322
f 310/430/323 309/429/322 183/267/192 311/273/198
f 309/429/322 171/261/186 175/263/188 183/267/192
f 212/311/230 214/312/231 232/431/248 310/430/323
f 310/430/323 311/273/198 210/309/228 212/311/230
f 184/272/197 312/310/229 210/309/228 311/273/198
f 230/318/237 218/321/238 224/329/242 226/331/244
f 196/289/210 222/325/240 220/324/214
f 199/298/217 209/307/226 312/310/229 313/281/205
f 186/274/199 313/281/205 312/310/229 184/272/197
f 199/298/217 201/297/216 207/305/224 209/307/226
f 192/432/208 314/433/324 146/434/154 194/435/207
f 192/432/208 315/436/209 316/437/325 314/433/324
f 315/287/209 188/278/202 7/277/9 10/438/12
f 316/437/325 315/436/209 10/16/12 13/19/15
f 318/439/326 314/433/324 316/437/325 317/440/327
f 16/22/18 317/440/327 316/437/325 13/19/15
f 27/34/30 317/440/327 16/22/18 18/25/21
f 317/440/327 27/34/30 319/40/33 318/439/326
f 142/441/151 318/439/326 319/40/33 139/442/144
f 318/439/326 142/441/151 146/434/154 314/433/324
f 134/443/143 139/442/144 319/40/33 320/444/46
f 34/47/39 320/54/46 319/445/33 26/36/32
f 320/54/46 39/55/47 129/198/137 134/446/143
f 168/259/184 9/447/10 6/3/3 172/257/182
f 9/447/10 168/259/184 321/260/185 12/448/13
f 15/449/16 12/450/13 321/451/185 322/452/328
f 324/453/329 322/452/328 321/451/185 323/454/330
f 161/249/174 323/455/330 321/260/185 163/250/175
f 140/222/150 323/455/330 161/249/174 143/219/153
f 323/454/330 140/214/150 326/213/149 324/453/329
f 325/456/331 324/453/329 326/213/149 327/457/332
f 324/453/329 325/456/331 348/458/333 322/452/328
f 329/459/334 327/460/332 326/461/149 328/462/335
f 330/463/336 328/464/335 326/465/149 138/212/148
f 329/459/334 328/462/335 331/466/337 335/467/338
f 330/463/336 333/468/339 331/469/337 328/464/335
f 373/29/25 334/470/340 331/466/337 332/41/34
f 29/471/35 332/472/34 331/469/337 333/468/339
f 336/473/341 335/467/338 331/466/337 334/470/340
f 335/467/338 336/473/341 340/474/342 337/475/343
f 335/467/338 337/475/343 338/476/344 329/459/334
f 339/477/345 361/478/346 338/476/344 337/475/343
f 340/474/342 341/479/347 339/477/345 337/475/343
f 336/473/341 345/480/348 342/481/349 340/474/342
f 340/474/342 342/481/349 343/482/350 341/479/347
f 344/483/351 355/484/352 343/485/350 342/486/349
f 345/487/348 346/488/353 344/483/351 342/486/349
f 345/487/348 347/489/354 348/458/333 346/488/353
f 347/490/354 345/480/348 336/473/341 334/470/340
f 22/491/24 19/492/19 348/458/333 347/489/354
f 22/28/24 347/490/354 334/470/340 373/29/25
f 349/493/355 346/488/353 348/458/333 325/456/331
f 15/449/16 322/452/328 348/458/333 19/492/19
f 346/488/353 349/493/355 351/494/356 344/483/351
f 349/493/355 325/456/331 327/457/332 350/495/357
f 350/495/357 352/496/358 351/494/356 349/493/355
f 352/496/358 356/497/359 353/498/360 351/494/356
f 351/494/356 353/498/360 355/484/352 344/483/351
f 357/499/361 354/500/362 353/498/360 356/497/359
f 354/500/362 367/501/363 355/484/352 353/498/360
f 356/502/359 358/503/364 359/504/365 357/505/361
f 358/503/364 356/502/359 352/506/358 361/478/346
f 360/507/366 362/508/367 359/504/365 358/503/364
f 358/503/364 361/478/346 339/477/345 360/507/366
f 352/506/358 350/509/357 338/476/344 361/478/346
f 362/508/367 360/507/366 363/510/368 364/511/369
f 363/510/368 360/507/366 339/477/345 341/479/347
f 343/482/350 365/512/370 363/510/368 341/479/347
f 366/513/371 364/511/369 363/510/368 365/512/370
f 365/514/370 367/501/363 368/515/372 366/516/371
f 367/501/363 365/514/370 343/485/350 355/484/352
f 354/500/362 369/517/373 368/515/372 367/501/363
f 368/515/372 369/517/373 370/518/374 366/516/371
f 369/517/373 371/519/375 372/520/376 370/518/374
f 371/519/375 369/517/373 354/500/362 357/499/361
f 362/508/367 364/511/369 372/521/376 371/522/375
f 371/522/375 357/505/361 359/504/365 362/508/367
f 366/516/371 370/518/374 372/520/376 364/523/369
f 338/476/344 350/509/357 327/460/332 329/459/334
f 332/41/34 24/31/27 21/30/26 373/29/25
f 29/471/35 333/468/339 374/524/377 31/525/36
f 330/463/336 376/526/378 374/524/377 333/468/339
f 31/525/36 374/524/377 375/527/379 33/528/37
f 374/524/377 376/526/378 377/529/380 375/527/379
f 376/526/378 330/463/336 138/212/148 136/211/147
f 136/211/147 380/210/146 377/529/380 376/526/378
f 381/530/381 378/531/382 377/529/380 380/210/146
f 398/532/383 379/533/384 377/529/380 378/531/382
f 377/529/380 379/533/384 403/534/385 375/527/379
f 381/530/381 380/210/146 135/205/141 383/535/386
f 383/535/386 385/536/387 382/537/388 381/530/381
f 378/531/382 381/530/381 382/537/388 397/538/389
f 387/539/390 385/536/387 383/535/386 384/540/391
f 384/540/391 383/535/386 135/205/141 132/202/139
f 386/541/392 397/538/389 382/537/388 385/536/387
f 389/542/393 386/541/392 385/536/387 387/539/390
f 384/543/391 421/544/394 388/545/395 387/546/390
f 389/547/393 387/546/390 388/545/395 391/548/396
f 386/541/392 389/542/393 390/549/397 396/550/398
f 391/548/396 393/551/399 390/552/397 389/547/393
f 394/553/400 393/551/399 391/548/396 392/554/401
f 392/554/401 391/548/396 388/545/395 421/544/394
f 395/555/402 396/550/398 390/549/397 393/556/399
f 393/551/399 394/553/400 398/557/383 395/558/402
f 397/538/389 386/541/392 396/550/398 395/555/402
f 397/538/389 395/555/402 398/532/383 378/531/382
f 398/557/383 394/553/400 399/559/403 379/560/384
f 394/553/400 392/554/401 400/561/404 399/559/403
f 401/562/405 399/559/403 400/561/404 411/53/45
f 405/563/406 402/564/407 399/559/403 401/562/405
f 399/559/403 402/564/407 403/565/385 379/560/384
f 402/564/407 404/566/408 410/567/409 403/565/385
f 404/566/408 402/564/407 405/563/406 406/568/410
f 408/569/411 406/568/410 405/563/406 407/570/412
f 409/571/413 407/570/412 405/563/406 401/562/405
f 409/571/413 375/572/379 403/565/385 407/570/412
f 407/570/412 403/565/385 410/567/409 408/569/411
f 37/48/40 33/45/37 375/572/379 409/571/413
f 409/571/413 401/562/405 411/53/45 37/48/40
f 406/568/410 408/569/411 410/567/409 404/566/408
f 411/53/45 412/573/414 43/59/51 36/51/43
f 412/573/414 411/53/45 400/561/404 413/574/415
f 416/575/416 414/576/417 412/573/414 413/574/415
f 414/576/417 415/577/418 43/59/51 412/573/414
f 418/578/419 415/577/418 414/576/417 417/579/420
f 414/576/417 416/575/416 417/579/420
f 416/575/416 418/578/419 417/579/420
f 418/578/419 419/580/421 43/59/51 415/577/418
f 416/575/416 413/574/415 419/580/421 418/578/419
f 419/580/421 413/574/415 400/561/404 420/581/140
f 420/581/140 47/60/52 43/59/51 419/580/421
f 421/544/394 420/581/140 400/561/404 392/554/401
f 384/543/391 132/582/139 420/581/140 421/544/394
f 39/55/47 41/56/48 49/66/58 129/198/137
