# Blender 5.2.0 LTS
# www.blender.org
mtllib terrain-abyss-chancel-object-038.mtl
o terrain-abyss-chancel-object-038
v -0.620413 0.476014 -0.126205
v -0.616148 0.478237 -0.129146
v -0.622514 0.482164 -0.124634
v -0.627413 0.473432 -0.121645
v -0.615825 0.472419 -0.118796
v -0.625862 0.470049 -0.118662
v -0.618766 0.471089 -0.108142
v -0.612873 0.477951 -0.118631
v -0.614637 0.484774 -0.118879
v -0.615395 0.476903 -0.107310
v -0.617900 0.476234 -0.095746
v -0.618657 0.483149 -0.107384
v -0.628132 0.481575 -0.110206
v -0.621833 0.481254 -0.095874
v -0.628853 0.479313 -0.096942
v -0.623097 0.479345 -0.081746
v -0.624522 0.476849 -0.062342
v -0.629074 0.477552 -0.082370
v -0.619762 0.474474 -0.081987
v -0.621721 0.472347 -0.062644
v -0.623396 0.469368 -0.082782
v -0.629503 0.468236 -0.083046
v -0.621467 0.470301 -0.096720
v -0.624644 0.467781 -0.063373
v -0.626099 0.466116 -0.041213
v -0.630256 0.467167 -0.063716
v -0.631132 0.465789 -0.041446
v -0.633017 0.471158 -0.063451
v -0.633755 0.469559 -0.041223
v -0.629659 0.475512 -0.062887
v -0.633243 0.472620 -0.082797
v -0.633385 0.473694 -0.096706
v -0.635278 0.474360 -0.107599
v -0.628540 0.468382 -0.097112
v -0.626784 0.468371 -0.108454
v -0.634793 0.476629 -0.116872
v -0.630755 0.478073 -0.119612
v -0.637356 0.473926 -0.122323
v -0.635323 0.473997 -0.124195
v -0.638815 0.468835 -0.124456
v -0.634257 0.469660 -0.124849
v -0.630587 0.473330 -0.040765
v -0.625757 0.473934 -0.040496
v -0.631054 0.471651 -0.019625
v -0.626378 0.471862 -0.019497
v -0.631421 0.470790 -0.002467
v -0.633955 0.467838 -0.019948
v -0.634698 0.466031 -0.003118
v -0.631911 0.463721 -0.020293
v -0.626839 0.464080 -0.020198
v -0.632558 0.461339 -0.003663
v -0.633499 0.459248 0.008741
v -0.627467 0.461872 -0.003462
v -0.627663 0.459226 0.008848
v -0.624139 0.466044 -0.002892
v -0.623309 0.464335 0.009211
v -0.626411 0.470368 -0.002332
v -0.623793 0.467798 -0.019755
v -0.623574 0.470009 -0.040763
v -0.625516 0.470077 0.009941
v -0.624572 0.469406 0.019455
v -0.632087 0.470225 0.009976
v -0.633024 0.469786 0.021849
v -0.636676 0.464677 0.008848
v -0.638442 0.462488 0.019144
v -0.639907 0.461216 0.026142
v -0.634537 0.457091 0.019205
v -0.627621 0.457684 0.019218
v -0.634802 0.456375 0.028488
v -0.633478 0.463690 0.031495
v -0.627970 0.457267 0.029588
v -0.624396 0.458778 0.035774
v -0.629516 0.466217 0.030361
v -0.620581 0.462465 0.026760
v -0.619548 0.462723 0.033903
v -0.621956 0.462906 0.018568
v -0.622797 0.468949 0.027216
v -0.621805 0.468450 0.034173
v -0.620417 0.466728 0.040086
v -0.625966 0.465077 0.035386
v -0.623730 0.464656 0.039760
v -0.621777 0.462225 0.041658
v -0.619475 0.463810 0.040083
v -0.638009 0.466791 0.028262
v -0.621013 0.485967 -0.118782
v -0.615151 0.483802 -0.127353
vn 0.5556 -0.8013 -0.2219
vn -0.0852 -0.4433 -0.8923
vn 0.3967 -0.1517 -0.9053
vn 0.9797 -0.1982 -0.0317
vn -0.5055 0.5758 -0.6426
vn 0.4237 0.5953 -0.6827
vn 0.0576 -0.3840 -0.9215
vn -0.4778 0.7159 -0.5091
vn -0.0345 -0.9707 -0.2376
vn 0.6034 -0.7951 0.0621
vn -0.1767 -0.9809 -0.0812
vn 0.9678 -0.0450 0.2475
vn 0.6118 0.7910 -0.0024
vn 0.4182 0.8626 0.2847
vn 0.9808 0.0225 0.1938
vn 0.5824 -0.8106 0.0606
vn 0.3044 0.9317 0.1981
vn -0.4709 0.8799 0.0633
vn -0.5281 0.8422 0.1086
vn -0.2686 0.9610 -0.0656
vn -0.5533 0.8289 0.0823
vn 0.3244 0.9330 0.1560
vn 0.9935 -0.0015 0.1141
vn 0.3717 0.9175 0.1413
vn 0.9962 -0.0210 0.0847
vn -0.5379 0.8399 0.0722
vn 0.5254 -0.8505 -0.0262
vn 0.5469 -0.8372 0.0001
vn -0.2638 -0.9644 -0.0171
vn -0.3445 -0.9374 -0.0513
vn -0.3973 -0.9150 -0.0699
vn 0.4998 -0.8646 -0.0513
vn -0.4463 -0.8909 -0.0846
vn 0.9982 -0.0369 0.0482
vn -0.9996 0.0228 -0.0141
vn -1.0000 -0.0039 0.0028
vn -0.9982 0.0554 -0.0218
vn -0.5007 0.8630 0.0672
vn -0.9986 -0.0353 0.0381
vn -0.9967 -0.0749 -0.0317
vn -0.9528 0.2836 0.1083
vn -0.1452 0.5739 -0.8060
vn -0.9528 0.3033 -0.0166
vn -0.6290 -0.5938 -0.5018
vn 0.2397 -0.2336 -0.9423
vn 0.4291 0.8960 0.1143
vn -0.9957 0.0881 -0.0287
vn -0.4627 0.8846 0.0585
vn 0.4798 0.8736 0.0818
vn -0.4297 0.9027 0.0235
vn 0.5337 0.8449 0.0364
vn -0.9918 0.0975 -0.0821
vn -0.4897 -0.8544 -0.1739
vn -0.4832 -0.8680 -0.1144
vn 0.4808 -0.8725 -0.0868
vn 0.4634 -0.8756 -0.1367
vn 0.4201 -0.8905 -0.1747
vn -0.4630 -0.8590 -0.2185
vn -0.9869 0.0916 -0.1330
vn 0.9941 -0.0975 -0.0466
vn 0.9807 -0.1579 -0.1151
vn 0.9980 -0.0624 0.0102
vn 0.5637 0.8260 -0.0041
vn -0.4154 0.9096 0.0079
vn 0.5487 0.8357 0.0231
vn 0.9596 -0.2440 -0.1401
vn -0.3932 0.9111 0.1236
vn -0.9808 -0.0178 -0.1941
vn -0.3910 -0.9046 -0.1698
vn -0.3506 -0.7947 0.4955
vn -0.9659 -0.1632 0.2011
vn -0.6700 0.5824 0.4604
vn 0.3858 -0.9151 -0.1171
vn 0.1404 -0.8933 0.4270
vn -0.2179 0.1647 0.9620
vn -0.3398 0.6655 0.6646
vn 0.9544 -0.2923 -0.0606
vn -0.1605 -0.8885 0.4298
vn 0.9458 -0.2935 -0.1390
vn -0.7841 0.3774 0.4928
vn 0.5046 0.8602 0.0742
vn 0.3430 0.9264 0.1557
vn 0.3458 0.7665 0.5412
vn 0.8418 -0.0794 0.5340
vn -0.6662 0.3150 0.6760
vn -0.0066 -0.4537 0.8911
vt 0.027658 0.088611
vt 0.034280 0.090372
vt 0.031271 0.091471
vt 0.028600 0.094185
vt 0.035011 0.093774
vt 0.031968 0.093220
vt 0.037905 0.089473
vt 0.039554 0.094785
vt 0.035458 0.087264
vt 0.900993 0.980027
vt 0.896818 0.980452
vt 0.896826 0.975156
vt 0.901994 0.974675
vt 0.026154 0.099190
vt 0.023667 0.098092
vt 0.031186 0.096409
vt 0.031304 0.101759
vt 0.027618 0.106694
vt 0.024193 0.105835
vt 0.031989 0.107921
vt 0.038175 0.100558
vt 0.037064 0.108538
vt 0.034241 0.096718
vt 0.033504 0.116377
vt 0.029401 0.115717
vt 0.025462 0.114765
vt 0.485026 0.908186
vt 0.488054 0.908935
vt 0.488792 0.918425
vt 0.485687 0.918179
vt 0.482395 0.918008
vt 0.482135 0.907778
vt 0.490097 0.908558
vt 0.491949 0.918660
vt 0.021716 0.114070
vt 0.041630 0.115350
vt 0.043730 0.118622
vt 0.041035 0.123440
vt 0.039166 0.120578
vt 0.473010 0.918471
vt 0.473894 0.909509
vt 0.476285 0.908718
vt 0.475731 0.917869
vt 0.474802 0.899092
vt 0.476986 0.897660
vt 0.488408 0.896852
vt 0.489961 0.898192
vt 0.479132 0.908360
vt 0.478937 0.917837
vt 0.479175 0.896310
vt 0.482439 0.896372
vt 0.039355 0.111841
vt 0.037369 0.117906
vt 0.891475 0.985950
vt 0.888003 0.987003
vt 0.886605 0.980292
vt 0.891700 0.980478
vt 0.895332 0.986031
vt 0.899726 0.986561
vt 0.891048 0.975709
vt 0.888565 0.974994
vt 0.888997 0.972350
vt 0.890419 0.972679
vt 0.891712 0.970258
vt 0.889010 0.970186
vt 0.041369 0.084894
vt 0.041033 0.086685
vt 0.886458 0.972647
vt 0.485620 0.896555
vt 0.480571 0.885181
vt 0.484111 0.885396
vt 0.487604 0.885713
vt 0.484006 0.876716
vt 0.487771 0.876710
vt 0.480530 0.876328
vt 0.972292 0.190875
vt 0.969612 0.190797
vt 0.971388 0.182329
vt 0.973845 0.182883
vt 0.974306 0.172490
vt 0.972172 0.171938
vt 0.977411 0.172971
vt 0.976600 0.183379
vt 0.974921 0.191573
vt 0.974341 0.197680
vt 0.970865 0.197302
vt 0.968239 0.196153
vt 0.978324 0.191951
vt 0.978206 0.198076
vt 0.979078 0.183547
vt 0.487644 0.870155
vt 0.489963 0.870479
vt 0.490271 0.876152
vt 0.980911 0.183166
vt 0.979896 0.191079
vt 0.489586 0.886789
vt 0.980125 0.173226
vt 0.485088 0.870094
vt 0.489065 0.865826
vt 0.492037 0.865727
vt 0.485681 0.863858
vt 0.482085 0.867990
vt 0.481532 0.864371
vt 0.479661 0.867431
vt 0.479409 0.862748
vt 0.969740 0.202666
vt 0.969175 0.207160
vt 0.966431 0.206286
vt 0.966218 0.202865
vt 0.480849 0.860603
vt 0.483939 0.860138
vt 0.973461 0.202879
vt 0.972964 0.208051
vt 0.481031 0.856715
vt 0.485466 0.857910
vt 0.487354 0.854323
vt 0.487732 0.858966
vt 0.978017 0.210214
vt 0.972533 0.211176
vt 0.977561 0.207260
vt 0.489445 0.856494
vt 0.489308 0.853298
vt 0.977467 0.202820
vt 0.982492 0.208812
vt 0.981164 0.213619
vt 0.980344 0.204560
vt 0.490689 0.861483
vt 0.491118 0.857876
vt 0.978037 0.213208
vt 0.977266 0.212137
vt 0.976190 0.215715
vt 0.976723 0.213831
vt 0.976210 0.212855
s 1
usemtl abyss_chancel_background_pbr
f 5/1/1 1/2/2 2/3/3 8/4/4
f 1/2/2 3/5/5 86/6/6 2/3/3
f 1/2/2 4/7/7 37/8/8 3/5/5
f 1/2/2 5/1/1 6/9/9 4/7/7
f 7/10/10 35/11/11 6/12/9 5/13/1
f 5/1/1 8/4/4 10/14/12 7/15/10
f 8/4/4 2/3/3 86/6/6 9/16/13
f 9/16/13 12/17/14 10/14/12 8/4/4
f 7/15/10 10/14/12 11/18/15 23/19/16
f 12/17/14 14/20/17 11/18/15 10/14/12
f 14/20/17 12/17/14 13/21/18 15/22/19
f 12/17/14 9/16/13 85/23/20 13/21/18
f 14/20/17 15/22/19 18/24/21 16/25/22
f 14/20/17 16/25/22 19/26/23 11/18/15
f 17/27/24 20/28/25 19/29/23 16/30/22
f 16/30/22 18/31/21 30/32/26 17/27/24
f 20/28/25 24/33/27 21/34/28 19/29/23
f 11/18/15 19/26/23 21/35/28 23/19/16
f 34/36/29 23/37/16 21/38/28 22/39/30
f 21/40/28 24/41/27 26/42/31 22/43/30
f 25/44/32 27/45/33 26/42/31 24/41/27
f 24/33/27 20/28/25 59/46/34 25/47/32
f 22/43/30 26/42/31 28/48/35 31/49/36
f 27/45/33 29/50/37 28/48/35 26/42/31
f 29/50/37 42/51/38 30/32/26 28/48/35
f 31/49/36 28/48/35 30/32/26 18/31/21
f 15/22/19 32/52/39 31/53/36 18/24/21
f 31/53/36 32/52/39 34/36/29 22/39/30
f 32/54/39 15/55/19 13/56/18 33/57/40
f 33/57/40 35/11/11 34/58/29 32/54/39
f 35/11/11 7/10/10 23/59/16 34/58/29
f 33/57/40 36/60/41 6/12/9 35/11/11
f 33/57/40 13/56/18 37/61/8 36/60/41
f 36/60/41 37/61/8 39/62/42 38/63/43
f 36/60/41 38/63/43 40/64/44 6/12/9
f 40/64/44 38/63/43 39/62/42 41/65/45
f 4/7/7 6/9/9 40/66/44 41/67/45
f 4/68/7 41/65/45 39/62/42 37/61/8
f 37/8/8 13/21/18 85/23/20 3/5/5
f 30/32/26 42/51/38 43/69/46 17/27/24
f 42/51/38 29/50/37 47/70/47 44/71/48
f 44/71/48 45/72/49 43/69/46 42/51/38
f 44/71/48 46/73/50 57/74/51 45/72/49
f 47/70/47 48/75/52 46/73/50 44/71/48
f 51/76/53 48/77/52 47/78/47 49/79/54
f 27/80/33 49/79/54 47/78/47 29/81/37
f 25/82/32 50/83/55 49/79/54 27/80/33
f 53/84/56 51/76/53 49/79/54 50/83/55
f 53/84/56 54/85/57 52/86/58 51/76/53
f 48/77/52 51/76/53 52/86/58 64/87/59
f 55/88/60 56/89/61 54/85/57 53/84/56
f 55/88/60 53/84/56 50/83/55 58/90/62
f 57/74/51 60/91/63 56/92/61 55/93/60
f 58/90/62 45/94/49 57/95/51 55/88/60
f 45/72/49 58/96/62 59/46/34 43/69/46
f 59/97/34 58/90/62 50/83/55 25/82/32
f 17/27/24 43/69/46 59/46/34 20/28/25
f 62/98/64 60/91/63 57/74/51 46/73/50
f 61/99/65 76/100/66 56/92/61 60/91/63
f 60/91/63 62/98/64 63/101/67 61/99/65
f 64/102/59 65/103/68 63/101/67 62/98/64
f 64/102/59 62/98/64 46/73/50 48/75/52
f 52/104/58 67/105/69 65/103/68 64/102/59
f 67/106/69 69/107/70 66/108/71 65/109/68
f 66/110/71 84/111/72 63/101/67 65/103/68
f 68/112/73 67/106/69 52/86/58 54/85/57
f 67/106/69 68/112/73 71/113/74 69/107/70
f 69/114/70 70/115/75 84/111/72 66/110/71
f 70/115/75 69/114/70 71/116/74 73/117/76
f 75/118/77 72/119/78 71/113/74 74/120/79
f 80/121/80 73/117/76 71/116/74 72/122/78
f 76/123/66 74/120/79 71/113/74 68/112/73
f 75/118/77 74/120/79 77/124/81 78/125/82
f 74/120/79 76/123/66 61/126/65 77/124/81
f 61/99/65 63/101/67 73/117/76 77/127/81
f 78/128/82 77/127/81 73/117/76 80/121/80
f 78/125/82 79/129/83 83/130/84 75/118/77
f 80/131/80 81/132/85 79/129/83 78/125/82
f 80/131/80 72/119/78 82/133/86 81/132/85
f 81/132/85 82/133/86 83/130/84 79/129/83
f 72/119/78 75/118/77 83/130/84 82/133/86
f 76/123/66 68/112/73 54/85/57 56/89/61
f 84/111/72 70/115/75 73/117/76 63/101/67
f 85/23/20 9/16/13 86/6/6 3/5/5
