# Blender 5.2.0 LTS
# www.blender.org
mtllib terrain-abyss-chancel-object-032.mtl
o terrain-abyss-chancel-object-032
v -0.652638 0.448372 0.088042
v -0.652598 0.455009 0.090933
v -0.651154 0.451947 0.080938
v -0.655856 0.447600 0.096834
v -0.660840 0.445947 0.080712
v -0.671127 0.449441 0.075281
v -0.657011 0.452834 0.075386
v -0.664962 0.448266 0.087825
v -0.664770 0.454674 0.090028
v -0.673913 0.450557 0.081142
v -0.685394 0.453684 0.074473
v -0.674067 0.456866 0.083991
v -0.685522 0.457915 0.076412
v -0.671315 0.461919 0.080129
v -0.660998 0.460011 0.086316
v -0.668761 0.461469 0.074037
v -0.683882 0.461249 0.073564
v -0.697951 0.462058 0.066373
v -0.682025 0.460890 0.069235
v -0.696270 0.461678 0.062545
v -0.681765 0.456627 0.067344
v -0.683597 0.453030 0.070082
v -0.668336 0.454656 0.071368
v -0.696049 0.458096 0.061271
v -0.708889 0.459687 0.054758
v -0.697656 0.455688 0.064118
v -0.699383 0.455356 0.067580
v -0.710688 0.456073 0.057664
v -0.722184 0.455543 0.052528
v -0.712880 0.457882 0.061273
v -0.712841 0.461955 0.062564
v -0.727718 0.460579 0.055133
v -0.739777 0.464758 0.051861
v -0.734544 0.462978 0.046378
v -0.725519 0.465391 0.057428
v -0.735991 0.469776 0.054178
v -0.722387 0.468202 0.054919
v -0.711206 0.464866 0.060407
v -0.719595 0.466969 0.050776
v -0.731442 0.471999 0.050276
v -0.738445 0.475360 0.046564
v -0.727540 0.470246 0.045433
v -0.728465 0.464609 0.045258
v -0.733878 0.473116 0.040807
v -0.739288 0.475582 0.036345
v -0.734505 0.466599 0.040831
v -0.741505 0.468869 0.036265
v -0.748753 0.470843 0.034046
v -0.743251 0.465629 0.043573
v -0.752501 0.468914 0.041998
v -0.758486 0.471200 0.045960
v -0.748778 0.467199 0.049530
v -0.754359 0.475333 0.041396
v -0.752158 0.476013 0.036589
v -0.751694 0.477514 0.044061
v -0.757585 0.475341 0.044683
v -0.755714 0.477025 0.048063
v -0.759863 0.473295 0.051121
v -0.750227 0.476780 0.048350
v -0.754779 0.468949 0.047628
v -0.743320 0.473057 0.052283
v -0.743716 0.478329 0.042203
v -0.748381 0.480336 0.036161
v -0.743811 0.477696 0.032055
v -0.720316 0.460929 0.049581
v -0.731175 0.461653 0.046916
v -0.709502 0.463828 0.056438
v -0.699540 0.459325 0.068806
v -0.657179 0.460983 0.078619
v -0.650455 0.457973 0.083923
v -0.656433 0.453543 0.096175
vn 0.7143 -0.6908 0.1119
vn 0.7170 0.4650 0.5194
vn 0.1033 0.3066 0.9462
vn 0.1664 -0.5981 0.7839
vn 0.8557 -0.2968 -0.4239
vn 0.8372 0.5467 -0.0148
vn 0.0960 -0.9505 -0.2955
vn 0.5051 -0.2278 -0.8325
vn -0.4537 -0.7468 0.4862
vn -0.4967 -0.7406 0.4526
vn -0.0852 -0.9091 -0.4078
vn 0.2834 -0.1615 -0.9453
vn -0.4830 0.3139 0.8174
vn -0.5162 0.2274 0.8257
vn -0.4229 -0.7728 0.4733
vn -0.0323 -0.9181 -0.3949
vn -0.4901 0.2101 0.8459
vn -0.1607 0.9351 0.3158
vn -0.1498 0.9264 0.3456
vn 0.0015 0.8988 0.4384
vn 0.4413 0.8108 -0.3845
vn 0.2202 0.8239 -0.5223
vn 0.2279 0.8082 -0.5430
vn -0.0473 0.9393 0.3397
vn -0.4069 0.2195 0.8867
vn 0.3390 0.7775 -0.5297
vn 0.3043 -0.1791 -0.9356
vn 0.3885 -0.2294 -0.8924
vn 0.0355 -0.9434 -0.3297
vn 0.4321 -0.2125 -0.8764
vn 0.0431 -0.9696 -0.2410
vn 0.4304 0.7262 -0.5362
vn -0.3610 -0.7741 0.5200
vn -0.3717 -0.6411 0.6714
vn -0.1053 -0.9723 -0.2085
vn 0.3842 -0.2708 -0.8826
vn -0.4711 -0.6390 0.6080
vn -0.3407 0.2362 0.9100
vn -0.2465 0.2726 0.9300
vn -0.1279 0.3610 0.9237
vn -0.3931 -0.7101 0.5842
vn -0.2132 -0.9478 -0.2372
vn -0.1920 -0.9382 -0.2879
vn -0.2159 -0.8786 -0.4261
vn 0.1752 0.9150 0.3633
vn 0.2731 0.9061 0.3230
vn 0.0650 0.9290 0.3642
vn 0.5262 0.6474 -0.5514
vn 0.6157 0.5731 -0.5407
vn -0.1160 0.4454 0.8878
vn 0.3148 0.9099 0.2702
vn 0.6561 0.5301 -0.5371
vn 0.3219 -0.5340 -0.7818
vn 0.3692 -0.3509 -0.8606
vn 0.2642 0.9469 0.1832
vn 0.6403 0.4666 -0.6102
vn 0.2041 -0.6290 -0.7502
vn 0.2402 0.4461 -0.8622
vn -0.3547 -0.4704 -0.8081
vn -0.5268 -0.7526 -0.3950
vn -0.4555 -0.6574 0.6003
vn -0.7440 0.4545 -0.4897
vn -0.7963 0.3442 -0.4974
vn -0.8797 -0.4718 -0.0593
vn -0.3034 -0.8089 0.5036
vn -0.8098 0.2426 -0.5343
vn -0.2701 0.9565 0.1100
vn -0.2355 0.8987 -0.3700
vn -0.3800 0.9108 0.1611
vn -0.6248 0.1882 0.7577
vn -0.0646 0.6456 0.7609
vt 0.809380 0.030597
vt 0.806418 0.029422
vt 0.808531 0.025240
vt 0.810476 0.027084
vt 0.811124 0.033302
vt 0.807216 0.034819
vt 0.815582 0.030020
vt 0.815512 0.034820
vt 0.815473 0.025256
vt 0.820754 0.025863
vt 0.821197 0.029681
vt 0.821470 0.033614
vt 0.813724 0.022102
vt 0.820363 0.021840
vt 0.827182 0.025741
vt 0.827639 0.028572
vt 0.826826 0.022792
vt 0.690838 0.892659
vt 0.689153 0.891895
vt 0.690420 0.884604
vt 0.692496 0.885272
vt 0.693565 0.878835
vt 0.691381 0.878736
vt 0.695931 0.879576
vt 0.694429 0.886222
vt 0.692603 0.893392
vt 0.688655 0.900012
vt 0.686883 0.898860
vt 0.690739 0.901450
vt 0.694360 0.894171
vt 0.692974 0.902202
vt 0.696580 0.887148
vt 0.828151 0.031439
vt 0.834918 0.027240
vt 0.835542 0.029943
vt 0.690265 0.909417
vt 0.695407 0.903621
vt 0.693243 0.910634
vt 0.687495 0.908635
vt 0.834824 0.025228
vt 0.697717 0.904947
vt 0.695580 0.912245
vt 0.690931 0.916816
vt 0.687857 0.915634
vt 0.693185 0.920531
vt 0.697925 0.913306
vt 0.700013 0.906230
vt 0.696153 0.920720
vt 0.696125 0.926591
vt 0.692475 0.927403
vt 0.687755 0.928579
vt 0.688509 0.923780
vt 0.688233 0.921781
vt 0.676388 0.918810
vt 0.679475 0.913553
vt 0.682045 0.913999
vt 0.679555 0.919274
vt 0.682930 0.906997
vt 0.685055 0.907556
vt 0.684714 0.914699
vt 0.682796 0.919824
vt 0.673691 0.922513
vt 0.677331 0.923280
vt 0.681167 0.923986
vt 0.684795 0.924387
vt 0.686019 0.920515
vt 0.675752 0.926900
vt 0.679764 0.927576
vt 0.683291 0.928634
vt 0.678716 0.930662
vt 0.682523 0.932767
vt 0.686961 0.933941
vt 0.692491 0.932510
vt 0.011728 0.101199
vt 0.012442 0.098936
vt 0.014589 0.103336
vt 0.011173 0.102847
vt 0.010705 0.106811
vt 0.009896 0.104674
vt 0.013801 0.096332
vt 0.016728 0.095887
vt 0.009279 0.098661
vt 0.012244 0.092055
vt 0.010116 0.100325
vt 0.009371 0.102069
vt 0.005458 0.102476
vt 0.005470 0.107794
vt 0.671576 0.926742
vt 0.005610 0.094624
vt 0.675122 0.930864
vt 0.013572 0.090194
vt 0.696604 0.930912
vt 0.685252 0.898678
vt 0.687340 0.892089
vt 0.698362 0.881061
vt 0.694062 0.872994
vt 0.696374 0.874713
vt 0.812121 0.037226
vt 0.692165 0.873171
s 1
usemtl abyss_chancel_background_pbr
f 1/1/1 2/2/2 71/3/3 4/4/4
f 1/1/1 3/5/5 70/6/6 2/2/2
f 5/7/7 7/8/8 3/5/5 1/1/1
f 5/7/7 1/1/1 4/4/4 8/9/9
f 8/9/9 10/10/10 6/11/11 5/7/7
f 7/8/8 5/7/7 6/11/11 23/12/12
f 8/9/9 9/13/13 12/14/14 10/10/10
f 8/9/9 4/4/4 71/3/3 9/13/13
f 11/15/15 22/16/16 6/11/11 10/10/10
f 12/14/14 13/17/17 11/15/15 10/10/10
f 17/18/18 13/19/17 12/20/14 14/21/19
f 15/22/20 14/21/19 12/20/14 9/23/13
f 69/24/21 16/25/22 14/21/19 15/22/20
f 19/26/23 17/18/18 14/21/19 16/25/22
f 18/27/24 68/28/25 13/19/17 17/18/18
f 17/18/18 19/26/23 20/29/26 18/27/24
f 21/30/27 24/31/28 20/29/26 19/26/23
f 16/25/22 23/32/12 21/30/27 19/26/23
f 6/11/11 22/16/16 21/33/27 23/12/12
f 26/34/29 24/35/28 21/33/27 22/16/16
f 25/36/30 24/31/28 26/37/29 28/38/31
f 25/36/30 67/39/32 20/29/26 24/31/28
f 26/34/29 22/16/16 11/15/15 27/40/33
f 28/38/31 26/37/29 27/41/33 30/42/34
f 28/38/31 29/43/35 65/44/36 25/36/30
f 28/38/31 30/42/34 32/45/37 29/43/35
f 31/46/38 30/42/34 27/41/33 68/47/25
f 31/46/38 35/48/39 32/45/37 30/42/34
f 36/49/40 33/50/41 32/45/37 35/48/39
f 49/51/42 34/52/43 32/45/37 33/50/41
f 66/53/44 29/43/35 32/45/37 34/52/43
f 36/54/40 35/55/39 37/56/45 40/57/46
f 31/58/38 38/59/47 37/56/45 35/55/39
f 67/39/32 39/60/48 37/56/45 38/59/47
f 37/56/45 39/60/48 42/61/49 40/57/46
f 61/62/50 36/54/40 40/57/46 41/63/51
f 41/63/51 40/57/46 42/61/49 44/64/52
f 46/65/53 44/64/52 42/61/49 43/66/54
f 42/61/49 39/60/48 65/44/36 43/66/54
f 62/67/55 41/63/51 44/64/52 45/68/56
f 47/69/57 45/68/56 44/64/52 46/65/53
f 49/51/42 47/69/57 46/65/53 34/52/43
f 46/65/53 43/66/54 66/53/44 34/52/43
f 64/70/58 45/68/56 47/69/57 48/71/59
f 47/69/57 49/51/42 50/72/60 48/71/59
f 33/50/41 52/73/61 50/72/60 49/51/42
f 56/74/62 53/75/63 50/76/60 51/77/64
f 50/76/60 52/78/61 60/79/65 51/77/64
f 54/80/66 48/81/59 50/76/60 53/75/63
f 53/75/63 55/82/67 63/83/68 54/80/66
f 53/75/63 56/74/62 57/84/69 55/82/67
f 58/85/70 57/84/69 56/74/62 51/77/64
f 55/82/67 57/84/69 58/85/70 59/86/71
f 60/79/65 59/86/71 58/85/70 51/77/64
f 61/87/50 59/86/71 60/79/65 52/78/61
f 41/63/51 62/67/55 59/88/71 61/62/50
f 59/86/71 62/89/55 63/83/68 55/82/67
f 45/68/56 64/70/58 63/90/68 62/67/55
f 48/81/59 54/80/66 63/83/68 64/91/58
f 52/73/61 33/50/41 36/49/40 61/92/50
f 65/44/36 29/43/35 66/53/44 43/66/54
f 67/39/32 25/36/30 65/44/36 39/60/48
f 20/29/26 67/39/32 38/59/47 18/27/24
f 68/28/25 18/27/24 38/59/47 31/58/38
f 68/28/25 27/93/33 11/94/15 13/19/17
f 69/24/21 7/95/8 23/32/12 16/25/22
f 15/22/20 2/96/2 70/97/6 69/24/21
f 7/8/8 69/98/21 70/6/6 3/5/5
f 15/22/20 9/23/13 71/99/3 2/96/2
