# Blender 5.2.0 LTS
# www.blender.org
mtllib terrain-abyss-chancel-object-126.mtl
o terrain-abyss-chancel-object-126
v 0.805686 0.259879 0.000526
v 0.816841 0.260608 0.000406
v 0.805762 0.254379 0.001050
v 0.795986 0.260717 -0.000046
v 0.805516 0.264444 -0.002703
v 0.797439 0.264689 -0.002661
v 0.815861 0.265148 -0.002657
v 0.805648 0.262926 -0.006957
v 0.806130 0.257954 -0.006621
v 0.797875 0.263278 -0.006642
v 0.815236 0.262967 -0.007414
v 0.815279 0.257114 -0.005577
v 0.828066 0.261754 -0.008036
v 0.826425 0.255901 -0.004527
v 0.848415 0.259938 -0.008110
v 0.829743 0.264983 -0.003193
v 0.848823 0.264140 -0.003297
v 0.829021 0.260919 0.000618
v 0.848544 0.259557 0.000655
v 0.847324 0.255073 -0.004087
v 0.866654 0.257181 0.000797
v 0.867405 0.251577 -0.004153
v 0.878467 0.255279 0.000522
v 0.866804 0.262730 -0.002710
v 0.866773 0.258838 -0.008004
v 0.879676 0.261233 -0.002446
v 0.879593 0.258768 -0.007601
v 0.890384 0.260299 -0.002481
v 0.899948 0.259887 -0.002888
v 0.889883 0.255438 0.000511
v 0.890365 0.258503 -0.007496
v 0.890414 0.252625 -0.007475
v 0.899864 0.258383 -0.008086
v 0.900167 0.252903 -0.007778
v 0.909188 0.257889 -0.008066
v 0.909011 0.259582 -0.003155
v 0.909192 0.252589 -0.008140
v 0.918579 0.256741 -0.007479
v 0.918429 0.258717 -0.003055
v 0.927682 0.255690 -0.007111
v 0.918510 0.251899 -0.008439
v 0.927481 0.251217 -0.007804
v 0.918331 0.249622 -0.004059
v 0.908949 0.248968 -0.004686
v 0.917930 0.251099 0.000313
v 0.927393 0.249744 -0.003031
v 0.934917 0.251122 -0.002121
v 0.927445 0.252065 0.001029
v 0.927695 0.256344 0.000695
v 0.934065 0.253028 0.000802
v 0.934373 0.255272 -0.000837
v 0.937226 0.254464 -0.002172
v 0.934150 0.256842 -0.003402
v 0.935350 0.254683 -0.005434
v 0.927710 0.258342 -0.003060
v 0.933670 0.251190 -0.006540
v 0.918105 0.256239 0.001035
v 0.908659 0.256344 0.000996
v 0.899971 0.255925 0.001215
v 0.907777 0.249026 0.000090
v 0.899639 0.249496 0.002443
v 0.901686 0.242475 -0.003186
v 0.898625 0.241953 0.002669
v 0.900936 0.248499 -0.004865
v 0.901159 0.232831 -0.003528
v 0.892190 0.242624 -0.003950
v 0.890846 0.248151 -0.005543
v 0.892844 0.234147 -0.002771
v 0.882124 0.241613 -0.005143
v 0.871406 0.237947 -0.005134
v 0.884118 0.234601 -0.004614
v 0.880231 0.246921 -0.005911
v 0.879182 0.251987 -0.006895
v 0.868931 0.243859 -0.005075
v 0.867483 0.240989 -0.000685
v 0.857383 0.240174 -0.004193
v 0.857064 0.238925 -0.000915
v 0.859283 0.233635 -0.004840
v 0.845494 0.239419 -0.004338
v 0.845618 0.233036 -0.004562
v 0.845437 0.239227 -0.001051
v 0.832410 0.243085 -0.004396
v 0.818485 0.250082 -0.004385
v 0.832236 0.243618 -0.001456
v 0.831116 0.237025 -0.004119
v 0.817409 0.242816 -0.004348
v 0.829455 0.230623 -0.004119
v 0.827807 0.223510 -0.005061
v 0.815385 0.236386 -0.004673
v 0.845554 0.226334 -0.004749
v 0.845145 0.218903 -0.005199
v 0.860609 0.227111 -0.005074
v 0.861807 0.218903 -0.005310
v 0.873631 0.232154 -0.005083
v 0.875023 0.223275 -0.005020
v 0.876053 0.211706 -0.004312
v 0.884754 0.224904 -0.003504
v 0.892806 0.224661 -0.002455
v 0.885383 0.214041 -0.002647
v 0.886119 0.202898 -0.002816
v 0.893043 0.214225 -0.003027
v 0.893433 0.202845 -0.004002
v 0.900078 0.213768 -0.004045
v 0.900003 0.202401 -0.004058
v 0.900051 0.223871 -0.003338
v 0.897346 0.213343 0.000883
v 0.889680 0.213170 0.003085
v 0.898101 0.223766 0.001682
v 0.896670 0.201920 0.000093
v 0.889393 0.201545 0.001983
v 0.896260 0.189206 -0.000671
v 0.889346 0.189375 0.000980
v 0.899429 0.189226 -0.004438
v 0.894845 0.174159 -0.000843
v 0.891623 0.158705 -0.000871
v 0.897820 0.173683 -0.003741
v 0.888988 0.175241 0.000356
v 0.886754 0.160240 -0.000019
v 0.883664 0.177015 0.000392
v 0.882602 0.189457 0.001240
v 0.882487 0.161636 -0.000070
v 0.877744 0.181596 -0.001730
v 0.883306 0.177090 -0.003714
v 0.872462 0.188151 -0.003926
v 0.867927 0.178412 -0.002977
v 0.874932 0.188862 0.000227
v 0.879347 0.163558 -0.001756
v 0.882329 0.161593 -0.004038
v 0.876036 0.152575 -0.001731
v 0.872150 0.145917 -0.002180
v 0.879553 0.150459 -0.000170
v 0.878489 0.151216 -0.004300
v 0.882779 0.148807 -0.004439
v 0.875262 0.143616 -0.004198
v 0.867225 0.130655 -0.004891
v 0.879499 0.140710 -0.004297
v 0.875359 0.131492 -0.004966
v 0.884185 0.139128 -0.003564
v 0.886600 0.146612 -0.004036
v 0.887238 0.146334 -0.001371
v 0.880400 0.140036 -0.000409
v 0.880365 0.130137 -0.003867
v 0.877967 0.131367 -0.000978
v 0.878161 0.121817 -0.003954
v 0.876336 0.122136 -0.001109
v 0.873566 0.121956 -0.005291
v 0.877525 0.112822 -0.004283
v 0.875963 0.112784 -0.001738
v 0.873835 0.112599 -0.004965
v 0.878001 0.102914 -0.005000
v 0.877982 0.096356 -0.005761
v 0.878587 0.096199 -0.003704
v 0.875850 0.103766 -0.002301
v 0.874935 0.103728 -0.004885
v 0.875046 0.096524 -0.005066
v 0.873618 0.103816 -0.003194
v 0.872031 0.112875 -0.002862
v 0.873225 0.096523 -0.003503
v 0.875665 0.096256 -0.002383
v 0.871388 0.090095 -0.003269
v 0.874228 0.089274 -0.002145
v 0.868124 0.084326 -0.003733
v 0.873566 0.089587 -0.005559
v 0.877826 0.088920 -0.006035
v 0.871446 0.082114 -0.005776
v 0.869289 0.071379 -0.006304
v 0.876387 0.081368 -0.006128
v 0.875315 0.073377 -0.006086
v 0.879724 0.081014 -0.004751
v 0.875947 0.081713 -0.002714
v 0.880440 0.088717 -0.005452
v 0.878296 0.074057 -0.004348
v 0.876107 0.068925 -0.004861
v 0.873573 0.075516 -0.002611
v 0.871692 0.070738 -0.003878
v 0.868032 0.077291 -0.002350
v 0.864592 0.072869 -0.002414
v 0.863496 0.078851 -0.004596
v 0.871354 0.082858 -0.002266
v 0.861902 0.070455 -0.006349
v 0.859262 0.075986 -0.002824
v 0.858408 0.082891 -0.004427
v 0.854315 0.081994 -0.002526
v 0.856285 0.078234 -0.005967
v 0.855288 0.090485 -0.003867
v 0.851123 0.090028 -0.005893
v 0.850830 0.090179 -0.002243
v 0.856712 0.105217 -0.004054
v 0.851023 0.102777 -0.005762
v 0.852308 0.102708 -0.001521
v 0.845307 0.102857 -0.001480
v 0.859030 0.124062 -0.001253
v 0.851977 0.122515 -0.001189
v 0.863519 0.142568 -0.001433
v 0.870151 0.138585 -0.001250
v 0.866364 0.144807 -0.004243
v 0.855351 0.143574 -0.001557
v 0.859788 0.161071 -0.002002
v 0.852508 0.163422 -0.002669
v 0.861880 0.159537 -0.003778
v 0.860946 0.175686 -0.001679
v 0.855749 0.179551 -0.002044
v 0.865386 0.183725 -0.001087
v 0.863383 0.172630 -0.003879
v 0.858104 0.173171 -0.005996
v 0.856097 0.158012 -0.006108
v 0.852494 0.174911 -0.007122
v 0.864103 0.182237 -0.005250
v 0.858931 0.186952 -0.006184
v 0.868718 0.196322 -0.004886
v 0.852513 0.191316 -0.006526
v 0.861548 0.205605 -0.005577
v 0.839010 0.195771 -0.006536
v 0.846226 0.176650 -0.007809
v 0.843329 0.157696 -0.008268
v 0.833449 0.178635 -0.007556
v 0.830300 0.156789 -0.006998
v 0.817575 0.178572 -0.005235
v 0.814720 0.154626 -0.005372
v 0.822174 0.198614 -0.005500
v 0.805020 0.177481 -0.005228
v 0.808292 0.199889 -0.003514
v 0.796488 0.176112 -0.007222
v 0.802235 0.152642 -0.007187
v 0.800722 0.133467 -0.007189
v 0.794051 0.150478 -0.007664
v 0.792769 0.132422 -0.007386
v 0.786809 0.149762 -0.007899
v 0.786650 0.131653 -0.007476
v 0.789526 0.175468 -0.008134
v 0.784195 0.148982 -0.004857
v 0.786225 0.129263 -0.004415
v 0.790234 0.146461 -0.003387
v 0.784778 0.174937 -0.006913
v 0.787828 0.199704 -0.006635
v 0.788777 0.172873 -0.003410
v 0.795221 0.171206 -0.002551
v 0.790378 0.199196 -0.003373
v 0.796445 0.198004 -0.001054
v 0.791297 0.216110 -0.002716
v 0.796891 0.215137 0.000346
v 0.789481 0.216713 -0.006433
v 0.791795 0.228492 -0.002479
v 0.791114 0.228866 -0.006139
v 0.791669 0.238429 -0.002189
v 0.797302 0.227908 0.000958
v 0.797428 0.237958 0.001195
v 0.804169 0.227345 0.002140
v 0.804936 0.237649 0.001413
v 0.812522 0.226381 0.000596
v 0.803274 0.214132 0.002055
v 0.802650 0.196728 0.001227
v 0.811116 0.213242 0.001121
v 0.825975 0.210589 -0.000730
v 0.810955 0.196151 0.000882
v 0.825188 0.194828 -0.001063
v 0.810087 0.170489 0.000176
v 0.823771 0.169567 -0.001404
v 0.811406 0.143396 -0.001706
v 0.801252 0.170580 -0.001622
v 0.803024 0.143174 -0.002258
v 0.796361 0.144194 -0.002747
v 0.808983 0.121897 -0.002651
v 0.801891 0.122873 -0.003129
v 0.816369 0.121181 -0.002355
v 0.811991 0.104054 -0.002629
v 0.809940 0.089554 -0.002868
v 0.818371 0.102957 -0.002569
v 0.805632 0.105469 -0.003110
v 0.805321 0.105435 -0.006366
v 0.804270 0.093428 -0.003364
v 0.804983 0.094495 -0.006754
v 0.801303 0.085935 -0.003552
v 0.806502 0.081435 -0.003597
v 0.800330 0.080587 -0.003908
v 0.801756 0.086711 -0.006551
v 0.800189 0.081158 -0.006799
v 0.807614 0.084372 -0.007340
v 0.803199 0.076810 -0.006704
v 0.815594 0.080129 -0.007628
v 0.812083 0.091990 -0.007436
v 0.815246 0.103577 -0.007227
v 0.822537 0.087637 -0.007425
v 0.824713 0.102749 -0.007218
v 0.831247 0.073861 -0.007412
v 0.835594 0.088377 -0.007051
v 0.841753 0.073291 -0.007156
v 0.835483 0.102766 -0.006874
v 0.844945 0.088578 -0.006597
v 0.843677 0.102638 -0.006388
v 0.851438 0.071125 -0.006978
v 0.858715 0.061676 -0.006883
v 0.849444 0.052076 -0.005819
v 0.844701 0.050547 -0.007336
v 0.851525 0.041450 -0.007443
v 0.855756 0.050802 -0.007199
v 0.843902 0.058929 -0.007249
v 0.836630 0.060587 -0.007571
v 0.838808 0.050495 -0.007672
v 0.829461 0.059299 -0.007751
v 0.823924 0.070534 -0.007679
v 0.823572 0.057185 -0.007621
v 0.832884 0.049433 -0.007857
v 0.834644 0.041838 -0.007938
v 0.827102 0.047743 -0.007877
v 0.822517 0.046348 -0.006481
v 0.829533 0.040393 -0.007875
v 0.825364 0.039133 -0.006859
v 0.831396 0.033322 -0.007803
v 0.832314 0.026976 -0.007915
v 0.835865 0.034348 -0.007814
v 0.827190 0.032234 -0.006646
v 0.829172 0.032898 -0.004659
v 0.828372 0.026198 -0.007209
v 0.831049 0.025661 -0.005060
v 0.830533 0.020963 -0.006000
v 0.833562 0.018378 -0.005158
v 0.832287 0.020893 -0.008080
v 0.832677 0.016608 -0.005370
v 0.838331 0.022568 -0.007998
v 0.842601 0.023532 -0.007707
v 0.839662 0.018939 -0.007840
v 0.837113 0.027765 -0.007925
v 0.841323 0.028955 -0.007886
v 0.846006 0.029317 -0.007566
v 0.840198 0.035309 -0.007807
v 0.839670 0.042660 -0.007868
v 0.845833 0.035249 -0.007709
v 0.845228 0.042568 -0.007529
v 0.852755 0.033443 -0.007425
v 0.858425 0.032251 -0.006996
v 0.851905 0.026312 -0.007097
v 0.848423 0.022256 -0.006871
v 0.854648 0.025571 -0.004805
v 0.851801 0.030938 -0.004069
v 0.848876 0.023271 -0.004836
v 0.843522 0.021176 -0.004667
v 0.846267 0.028828 -0.004069
v 0.844563 0.035482 -0.003579
v 0.840621 0.027532 -0.004038
v 0.839371 0.034847 -0.003652
v 0.835881 0.026444 -0.004259
v 0.838760 0.020098 -0.004666
v 0.834327 0.034010 -0.004033
v 0.832855 0.041338 -0.003536
v 0.827463 0.039763 -0.004281
v 0.830731 0.049464 -0.003257
v 0.838142 0.042450 -0.003379
v 0.844534 0.042490 -0.003622
v 0.836547 0.050907 -0.003043
v 0.833671 0.060987 -0.002785
v 0.844317 0.051467 -0.003233
v 0.851513 0.050494 -0.004357
v 0.842153 0.062787 -0.002716
v 0.849117 0.050881 -0.004849
v 0.851570 0.058797 -0.003066
v 0.858377 0.058450 -0.002976
v 0.856916 0.064560 -0.002698
v 0.866024 0.063507 -0.004043
v 0.861310 0.069945 -0.002434
v 0.848752 0.068629 -0.002492
v 0.854538 0.072976 -0.002397
v 0.841856 0.076600 -0.002210
v 0.835443 0.074449 -0.002366
v 0.838215 0.088265 -0.001972
v 0.848405 0.079222 -0.002061
v 0.844454 0.089393 -0.001933
v 0.831598 0.087010 -0.002247
v 0.838966 0.103393 -0.001831
v 0.844731 0.122852 -0.002092
v 0.832600 0.103599 -0.002262
v 0.836027 0.123481 -0.002590
v 0.825334 0.102985 -0.002479
v 0.824776 0.085581 -0.002544
v 0.825424 0.122821 -0.002276
v 0.824005 0.144009 -0.001721
v 0.837094 0.144297 -0.003045
v 0.847584 0.144325 -0.002739
v 0.837010 0.167732 -0.003319
v 0.840190 0.189912 -0.002178
v 0.846261 0.165270 -0.003439
v 0.849939 0.184067 -0.002388
v 0.857042 0.200893 -0.001107
v 0.862386 0.190447 -0.001074
v 0.857578 0.217862 -0.000503
v 0.842554 0.205458 -0.001157
v 0.872206 0.209030 0.000209
v 0.873530 0.198143 0.000399
v 0.870970 0.222207 -0.000334
v 0.881640 0.212329 0.001964
v 0.881347 0.223892 0.001128
v 0.882082 0.200840 0.001829
v 0.880397 0.233737 0.000324
v 0.889665 0.224008 0.003269
v 0.889973 0.233864 0.002552
v 0.889842 0.242210 0.001754
v 0.898535 0.232926 0.002411
v 0.878354 0.240100 0.000123
v 0.889306 0.248820 0.001207
v 0.875797 0.246775 -0.000260
v 0.868327 0.236335 -0.000065
v 0.857580 0.233325 0.000312
v 0.869718 0.230620 -0.000077
v 0.857908 0.226877 0.000061
v 0.844085 0.226556 0.000315
v 0.844772 0.233142 0.000323
v 0.828536 0.230859 0.000464
v 0.843599 0.218723 -0.000373
v 0.826965 0.222969 -0.000070
v 0.830567 0.236746 0.000348
v 0.814106 0.236203 0.000449
v 0.816204 0.244420 0.000372
v 0.818455 0.253826 -0.002152
v 0.804927 0.247233 0.001165
v 0.796249 0.246763 0.001256
v 0.793784 0.254565 0.000191
v 0.790958 0.246408 -0.002501
v 0.789778 0.253367 -0.003981
v 0.792560 0.246721 -0.005973
v 0.798055 0.246881 -0.005006
v 0.792817 0.253567 -0.006152
v 0.791922 0.238519 -0.006090
v 0.797474 0.238515 -0.005091
v 0.804133 0.238459 -0.004145
v 0.796570 0.228551 -0.005595
v 0.794992 0.216514 -0.006380
v 0.802986 0.228414 -0.003260
v 0.812678 0.227612 -0.004624
v 0.801475 0.216186 -0.003709
v 0.810459 0.215416 -0.003970
v 0.799618 0.200330 -0.005162
v 0.793002 0.200585 -0.007501
v 0.825330 0.212746 -0.005371
v 0.843491 0.208898 -0.005743
v 0.805251 0.246414 -0.004533
v 0.806661 0.252368 -0.005302
v 0.798361 0.253492 -0.005803
v 0.798151 0.258814 -0.006889
v 0.792084 0.259137 -0.006495
v 0.786588 0.259017 -0.005425
v 0.791380 0.263733 -0.006701
v 0.785463 0.264698 -0.007157
v 0.790695 0.265473 -0.003187
v 0.789186 0.262252 -0.000466
v 0.784212 0.267188 -0.003886
v 0.782164 0.264095 -0.000493
v 0.776327 0.268699 -0.004324
v 0.777250 0.265493 -0.008041
v 0.770339 0.267261 -0.004742
v 0.774535 0.265182 -0.000653
v 0.767618 0.263570 -0.003985
v 0.773720 0.261257 -0.001016
v 0.779989 0.260353 -0.001309
v 0.770439 0.262201 -0.004825
v 0.778355 0.260945 -0.005653
v 0.770089 0.265799 -0.006170
v 0.787423 0.258952 -0.001417
v 0.817107 0.084210 -0.002871
v 0.828918 0.072459 -0.002653
v 0.822710 0.070326 -0.003083
v 0.817570 0.067285 -0.003975
v 0.827541 0.059039 -0.003169
v 0.821990 0.056791 -0.003927
v 0.817060 0.054630 -0.006683
v 0.825203 0.047456 -0.004196
v 0.813755 0.064317 -0.005452
v 0.817606 0.066870 -0.007659
v 0.809018 0.071892 -0.005453
v 0.803659 0.075078 -0.004823
v 0.811958 0.076364 -0.003904
v 0.810671 0.073683 -0.007308
v 0.852683 0.040777 -0.003594
v 0.857099 0.041006 -0.007169
v 0.855328 0.033790 -0.003968
v 0.849888 0.035895 -0.003703
v 0.844724 0.020307 -0.007206
v 0.845781 0.024627 -0.007467
v 0.848348 0.120249 -0.006194
v 0.857041 0.123332 -0.005526
v 0.839356 0.119257 -0.006855
v 0.851115 0.139864 -0.006696
v 0.842813 0.138498 -0.007547
v 0.850179 0.157371 -0.007483
v 0.858679 0.141979 -0.005700
v 0.829850 0.136905 -0.006743
v 0.814425 0.134554 -0.006776
v 0.827411 0.119227 -0.006823
v 0.814325 0.119319 -0.007095
v 0.797353 0.124818 -0.003570
v 0.790234 0.117968 -0.005130
v 0.786406 0.121113 -0.004446
v 0.786702 0.121684 -0.007298
v 0.878021 0.201387 -0.003849
v 0.880296 0.190265 -0.003709
v 0.887186 0.190318 -0.003681
v 0.893721 0.189708 -0.004899
v 0.887904 0.175635 -0.004211
v 0.893237 0.174539 -0.004725
v 0.885952 0.160389 -0.004282
v 0.890383 0.159179 -0.004164
v 0.893546 0.158057 -0.003056
v 0.889734 0.147962 -0.003590
v 0.873377 0.133820 -0.000964
v 0.876697 0.142855 -0.000593
v 0.868886 0.123341 -0.003665
v 0.874048 0.067169 -0.005744
v 0.881338 0.095414 -0.006283
v 0.877835 0.088832 -0.003158
v 0.883525 0.148336 -0.000493
vn 0.0134 0.2659 0.9639
vn 0.0749 0.1640 0.9836
vn -0.0152 0.9702 0.2418
vn -0.0121 0.9529 0.3031
vn 0.0590 0.0320 0.9977
vn 0.5006 -0.1967 0.8431
vn -0.0424 0.3095 0.9499
vn -0.3523 -0.0622 0.9338
vn 0.0575 0.9475 0.3145
vn -0.0002 0.5217 -0.8532
vn 0.0283 0.5682 -0.8224
vn -0.0079 0.4137 -0.9104
vn 0.0785 -0.3026 -0.9499
vn 0.0255 -0.1566 -0.9873
vn -0.0049 -0.0857 -0.9963
vn 0.0050 0.2270 -0.9739
vn 0.0877 -0.9799 -0.1793
vn 0.0426 0.9912 0.1251
vn 0.0064 0.1484 -0.9889
vn -0.0950 -0.9914 -0.0901
vn 0.0708 0.9925 0.0998
vn 0.0347 0.0155 0.9993
vn -0.0234 -0.0349 0.9991
vn -0.5366 -0.8163 -0.2139
vn -0.0724 0.0059 0.9974
vn 0.0877 0.9775 0.1919
vn -0.0620 0.1672 0.9840
vn -0.2352 -0.0065 0.9719
vn 0.0701 0.9513 0.3003
vn 0.0048 0.4484 -0.8938
vn -0.0070 0.2407 -0.9706
vn -0.0009 0.5580 -0.8299
vn 0.0214 0.9489 0.3149
vn -0.0410 0.3278 0.9439
vn 0.0171 0.4055 0.9140
vn 0.0137 0.9700 0.2427
vn -0.0060 0.5784 -0.8157
vn -0.0650 -0.1740 -0.9826
vn -0.0052 -0.2145 -0.9767
vn -0.0090 -0.2914 -0.9566
vn 0.0470 0.5941 -0.8030
vn 0.0038 -0.3646 -0.9312
vn 0.0569 0.9863 0.1547
vn 0.0711 0.9951 0.0687
vn 0.0806 0.5912 -0.8025
vn 0.0346 -0.4318 -0.9013
vn 0.1510 0.5397 -0.8282
vn 0.1506 0.9885 -0.0153
vn 0.1360 -0.5195 -0.8436
vn 0.0689 -0.9928 0.0982
vn 0.0431 -0.9928 -0.1113
vn 0.1560 -0.8649 -0.4771
vn 0.0376 -0.6174 0.7858
vn 0.3663 -0.6349 0.6803
vn 0.0694 -0.4688 0.8806
vn 0.4342 -0.5571 -0.7079
vn 0.6079 -0.7681 0.2011
vn 0.3601 -0.2803 0.8898
vn 0.1007 0.5579 0.8238
vn 0.0122 0.4385 0.8987
vn 0.5207 0.5321 0.6676
vn 0.9776 0.1484 0.1491
vn 0.3800 0.9213 -0.0819
vn 0.7088 0.3236 -0.6268
vn 0.0527 0.4164 0.9077
vn 0.1368 -0.0621 0.9886
vn 0.3656 -0.0979 0.9256
vn 0.7431 -0.5007 -0.4439
vn 0.1451 -0.5235 -0.8396
vn 0.5571 -0.0317 0.8298
vn 0.8183 -0.0954 -0.5668
vn 0.0539 -0.3061 -0.9505
vn 0.0824 -0.1492 -0.9854
vn 0.0548 -0.0542 -0.9970
vn 0.0665 -0.0976 -0.9930
vn -0.0192 -0.1448 -0.9893
vn 0.1193 -0.0601 -0.9910
vn -0.0156 -0.0156 -0.9998
vn 0.0343 -0.0178 -0.9993
vn -0.5164 0.3793 -0.7678
vn -0.0744 0.6364 0.7677
vn -0.2204 0.4072 0.8864
vn -0.1365 0.8086 -0.5724
vn -0.0271 0.0334 -0.9991
vn 0.0858 0.6983 -0.7106
vn 0.0967 0.7183 0.6890
vn -0.0197 0.0286 -0.9994
vn 0.2193 0.5062 -0.8341
vn -0.0024 0.0029 -1.0000
vn 0.3442 0.7723 0.5340
vn 0.0104 -0.0185 -0.9998
vn 0.2216 0.1188 -0.9679
vn 0.0067 0.0452 -0.9990
vn -0.0118 0.0087 -0.9999
vn -0.0150 0.0493 -0.9987
vn -0.0029 0.0517 -0.9987
vn -0.0112 0.0462 -0.9989
vn -0.0565 0.0043 -0.9984
vn 0.0182 0.0160 -0.9997
vn -0.0106 0.0236 -0.9997
vn 0.0879 -0.0275 -0.9957
vn 0.1244 -0.0474 -0.9911
vn 0.1196 -0.0184 -0.9926
vn 0.0684 -0.0062 -0.9976
vn 0.0557 0.0164 -0.9983
vn -0.0057 -0.0116 -0.9999
vn -0.0671 0.0343 -0.9972
vn -0.0104 0.0367 -0.9993
vn 0.1023 0.0018 -0.9948
vn -0.0801 0.0486 -0.9956
vn 0.8928 -0.0080 -0.4503
vn 0.8265 -0.0040 -0.5629
vn 0.8010 -0.0560 -0.5960
vn 0.6060 -0.0683 0.7925
vn 0.5587 -0.0713 0.8263
vn 0.6145 -0.0599 0.7866
vn 0.0553 -0.0423 0.9976
vn 0.1091 -0.0714 0.9915
vn -0.0289 0.0096 0.9995
vn 0.1225 -0.0592 0.9907
vn 0.5218 -0.0608 0.8509
vn 0.9202 -0.0589 -0.3870
vn 0.1031 -0.0405 0.9938
vn 0.4849 -0.0790 0.8710
vn 0.9412 -0.1781 -0.2872
vn 0.4678 -0.1534 0.8704
vn 0.9219 -0.2930 -0.2537
vn 0.0911 -0.0480 0.9947
vn -0.1728 -0.0565 0.9833
vn -0.1868 0.0126 0.9823
vn -0.0982 -0.0907 0.9910
vn -0.1278 -0.1322 0.9830
vn -0.6804 -0.7300 0.0651
vn -0.9898 0.1196 0.0777
vn -0.2059 -0.0106 -0.9785
vn -0.2851 0.0733 -0.9557
vn -0.0065 -0.0366 -0.9993
vn 0.1038 -0.1033 -0.9892
vn 0.2300 -0.0949 -0.9685
vn 0.6900 -0.7238 0.0062
vn -0.0130 -0.1428 0.9897
vn -0.9254 0.3434 0.1605
vn -0.2939 0.1306 -0.9469
vn -0.1621 0.0332 0.9862
vn -0.7067 0.6766 0.2070
vn -0.1203 0.0289 0.9923
vn -0.1137 0.1200 -0.9863
vn 0.0238 -0.0161 -0.9996
vn 0.0642 -0.0080 -0.9979
vn -0.0246 0.0060 -0.9997
vn -0.1025 -0.5632 -0.8199
vn 0.6400 0.5825 -0.5011
vn 0.0698 -0.0028 -0.9976
vn 0.4409 -0.2618 -0.8586
vn 0.8593 -0.4401 -0.2606
vn 0.9139 -0.2426 -0.3254
vn 0.8713 -0.3739 -0.3177
vn 0.6711 -0.4013 0.6234
vn 0.1392 -0.1018 0.9850
vn 0.2441 -0.1525 0.9577
vn 0.2947 -0.1555 0.9428
vn 0.3028 -0.1078 0.9469
vn 0.9233 -0.1265 -0.3626
vn -0.0792 -0.0652 -0.9947
vn 0.9171 -0.0288 -0.3975
vn 0.3201 -0.0645 0.9452
vn -0.2896 -0.0600 -0.9553
vn 0.2375 -0.0116 0.9713
vn 0.8871 0.1673 -0.4302
vn -0.3990 0.0125 -0.9169
vn -0.4230 0.0913 -0.9015
vn 0.2377 0.1894 -0.9527
vn 0.7581 0.1627 0.6315
vn 0.9230 0.1006 -0.3715
vn 0.0766 0.0534 0.9956
vn -0.9710 0.1563 0.1810
vn -0.9632 -0.0715 0.2590
vn -0.9530 -0.1778 0.2452
vn -0.0389 0.0509 0.9979
vn -0.9216 0.3362 0.1941
vn -0.3642 0.1397 -0.9208
vn -0.8878 0.4569 0.0549
vn -0.1198 0.0611 0.9909
vn -0.1994 0.1241 -0.9720
vn 0.1644 -0.0280 -0.9860
vn 0.0276 -0.0061 -0.9996
vn 0.0364 -0.5472 -0.8362
vn -0.1474 0.9621 -0.2296
vn 0.2113 -0.1294 -0.9688
vn 0.9846 -0.1695 -0.0423
vn 0.9317 -0.3454 0.1128
vn 0.9670 -0.0989 -0.2347
vn 0.3030 -0.0460 0.9519
vn 0.1796 -0.1360 0.9743
vn 0.4511 -0.0198 0.8923
vn 0.7749 -0.6149 0.1462
vn 0.1558 -0.9646 -0.2128
vn 0.0363 -0.7021 0.7112
vn -0.0890 0.0564 0.9944
vn 0.0397 -0.2664 0.9631
vn 0.0785 0.1539 0.9850
vn 0.1135 -0.0183 -0.9934
vn 0.8748 -0.4629 0.1429
vn 0.1560 0.1237 -0.9800
vn 0.8479 0.5291 -0.0324
vn 0.1945 0.0801 0.9776
vn 0.9902 0.1392 0.0128
vn 0.2012 -0.0069 0.9795
vn 0.2190 0.0557 -0.9741
vn 0.9507 -0.2683 -0.1557
vn 0.1896 -0.0173 -0.9817
vn 0.2373 -0.0654 0.9692
vn 0.2519 -0.0987 0.9627
vn 0.1402 -0.0426 -0.9892
vn -0.0245 -0.0124 0.9996
vn 0.0082 -0.0210 0.9997
vn -0.0524 0.0146 0.9985
vn -0.0867 0.0444 0.9952
vn 0.1563 0.0873 0.9838
vn -0.0742 0.0313 0.9968
vn 0.9745 0.0906 -0.2054
vn 0.2807 0.0123 0.9597
vn -0.0994 0.0051 0.9950
vn 0.1256 -0.1129 0.9856
vn -0.0929 -0.0294 0.9952
vn 0.9491 -0.2818 -0.1408
vn -0.0937 -0.0339 0.9950
vn 0.2706 -0.0505 -0.9614
vn 0.2453 -0.0014 -0.9694
vn 0.1493 -0.0161 -0.9887
vn 0.1439 0.0037 -0.9896
vn 0.1297 0.0030 -0.9915
vn 0.1087 -0.0117 -0.9940
vn 0.0531 0.0449 -0.9976
vn 0.0360 0.0314 -0.9989
vn -0.0245 0.0532 -0.9983
vn -0.0021 0.0436 -0.9990
vn -0.0706 0.0329 -0.9970
vn -0.0825 0.0041 -0.9966
vn 0.0186 -0.0119 -0.9998
vn -0.0036 0.0272 -0.9996
vn -0.0625 0.0340 -0.9975
vn -0.0816 0.0361 -0.9960
vn 0.0891 0.0244 -0.9957
vn 0.0935 0.0423 -0.9947
vn 0.0217 0.0326 -0.9992
vn 0.1666 0.0253 -0.9857
vn 0.2234 0.0324 -0.9742
vn 0.0690 -0.0026 -0.9976
vn -0.0160 -0.0100 -0.9998
vn 0.0414 -0.0881 -0.9953
vn 0.1366 -0.1228 -0.9830
vn -0.5075 -0.0730 -0.8586
vn -0.3488 -0.0223 -0.9369
vn -0.1008 0.0159 -0.9948
vn -0.8027 -0.0544 0.5939
vn -0.9618 -0.0223 0.2727
vn -0.9863 0.0648 -0.1518
vn -0.4219 -0.8812 0.2133
vn -0.1868 -0.0140 0.9823
vn -0.3827 0.0154 0.9237
vn -0.9252 0.1011 -0.3658
vn 0.0817 0.0380 -0.9959
vn -0.5829 0.0150 0.8124
vn -0.1845 -0.0278 0.9824
vn -0.3100 -0.0419 0.9498
vn -0.1101 -0.0315 0.9934
vn -0.3635 -0.0289 0.9311
vn -0.7149 0.0199 0.6990
vn -0.8446 0.0986 -0.5263
vn -0.3379 -0.0047 0.9412
vn -0.8120 0.0208 0.5833
vn -0.7303 0.0671 -0.6798
vn -0.8877 -0.0143 0.4602
vn -0.6054 0.0153 -0.7958
vn -0.2883 -0.0072 0.9575
vn -0.0783 -0.0248 0.9966
vn -0.0041 0.0107 0.9999
vn 0.0334 0.0177 0.9993
vn 0.0986 -0.0019 0.9951
vn 0.0643 0.0064 0.9979
vn 0.1080 -0.0159 0.9940
vn 0.0592 -0.0362 0.9976
vn -0.1449 -0.0544 0.9880
vn 0.0625 -0.0347 0.9974
vn 0.0261 -0.0421 0.9988
vn 0.0925 -0.0338 0.9951
vn -0.0114 -0.0463 0.9989
vn 0.0995 -0.0276 0.9947
vn -0.1491 -0.0504 0.9875
vn -0.0337 -0.0400 0.9986
vn 0.0625 -0.0177 0.9979
vn -0.0946 -0.0384 0.9948
vn -0.2961 -0.1183 0.9478
vn -0.0585 -0.0245 0.9980
vn -0.0211 -0.0202 0.9996
vn -0.5281 -0.0618 0.8470
vn -0.0470 -0.0109 0.9988
vn -0.0183 -0.0112 0.9998
vn -0.7053 0.1609 0.6904
vn -0.0469 -0.0333 0.9983
vn -0.0473 -0.0431 0.9980
vn -0.7595 -0.0276 -0.6499
vn -0.6581 0.1435 -0.7391
vn -0.0520 -0.1105 0.9925
vn -0.7258 0.1651 0.6678
vn -0.7084 0.2279 -0.6680
vn -0.7773 -0.2238 0.5880
vn -0.5734 -0.7392 0.3532
vn -0.7681 -0.0833 -0.6349
vn -0.0643 0.0071 -0.9979
vn -0.5162 -0.3994 -0.7576
vn -0.0425 0.0238 -0.9988
vn -0.0186 0.0029 -0.9998
vn -0.2094 -0.2138 -0.9542
vn 0.0146 0.0144 -0.9998
vn -0.0457 0.0271 -0.9986
vn 0.0158 0.0128 -0.9998
vn 0.0391 0.0073 -0.9992
vn 0.0359 0.0175 -0.9992
vn 0.0033 0.0084 -1.0000
vn 0.0261 0.0179 -0.9995
vn 0.0437 0.0123 -0.9990
vn 0.0706 0.0302 -0.9970
vn 0.0524 0.0232 -0.9984
vn 0.0736 0.0030 -0.9973
vn 0.0561 0.0391 -0.9977
vn 0.0866 -0.0001 -0.9962
vn 0.2937 -0.2273 -0.9285
vn 0.7809 -0.2062 -0.5896
vn 0.1317 0.0539 -0.9898
vn 0.0710 0.0464 -0.9964
vn 0.0251 0.0449 -0.9987
vn 0.9096 0.2330 -0.3441
vn 0.0331 0.0186 -0.9993
vn 0.0393 0.0215 -0.9990
vn 0.0069 0.0123 -0.9999
vn 0.0070 0.0142 -0.9999
vn -0.1649 -0.0852 -0.9826
vn -0.1083 -0.0338 -0.9935
vn -0.1103 -0.0327 -0.9934
vn -0.1199 -0.0384 -0.9920
vn 0.0055 0.0004 -1.0000
vn 0.0327 0.0135 -0.9994
vn -0.9035 -0.3738 -0.2097
vn -0.9105 -0.2879 -0.2967
vn -0.9007 -0.4088 -0.1468
vn 0.0005 0.0014 -1.0000
vn -0.1132 -0.0160 -0.9934
vn -0.9400 -0.2389 -0.2435
vn -0.1534 -0.0221 -0.9879
vn -0.9416 -0.2458 -0.2301
vn 0.0096 0.0129 -0.9999
vn -0.4147 -0.1518 0.8972
vn -0.4203 -0.1447 0.8958
vn -0.3586 -0.1168 0.9262
vn -0.9172 -0.3236 0.2325
vn -0.2764 -0.5771 0.7685
vn -0.3823 -0.2823 -0.8798
vn -0.3323 -0.8757 -0.3502
vn 0.0189 -0.0981 -0.9950
vn 0.2268 -0.8303 -0.5091
vn 0.0375 -0.0009 -0.9993
vn 0.0863 -0.0361 -0.9956
vn 0.3512 -0.8102 -0.4693
vn 0.0225 0.0033 -0.9997
vn 0.0568 -0.0303 -0.9979
vn 0.0923 -0.0612 -0.9939
vn 0.0381 -0.0011 -0.9993
vn 0.0954 -0.0685 -0.9931
vn 0.2894 -0.3754 -0.8805
vn 0.6668 -0.6805 0.3038
vn 0.9603 -0.1783 -0.2147
vn 0.3642 -0.6489 0.6680
vn 0.4073 -0.7072 -0.5779
vn 0.4081 0.0029 0.9129
vn 0.1447 -0.0946 0.9849
vn 0.0314 -0.0846 0.9959
vn 0.1726 -0.5745 0.8001
vn -0.0025 -0.0720 0.9974
vn 0.0205 -0.0400 0.9990
vn 0.0135 -0.0366 0.9992
vn -0.0174 -0.0460 0.9988
vn -0.0762 -0.0713 0.9945
vn -0.0818 -0.0667 0.9944
vn 0.1195 -0.4850 0.8663
vn -0.0756 -0.0610 0.9953
vn -0.0034 -0.0389 0.9992
vn -0.0806 -0.0483 0.9956
vn -0.3508 -0.1537 0.9237
vn -0.0049 -0.0359 0.9993
vn 0.0349 -0.0072 0.9994
vn 0.0611 -0.0205 0.9979
vn -0.0248 -0.0312 0.9992
vn -0.0866 -0.0447 0.9952
vn 0.0146 -0.0509 0.9986
vn 0.3244 0.0600 0.9440
vn 0.3111 -0.0407 0.9495
vn 0.1124 0.5565 0.8232
vn 0.0170 -0.0975 0.9951
vn 0.5366 -0.3646 0.7610
vn 0.0751 -0.0355 0.9965
vn 0.0007 -0.0438 0.9990
vn 0.1301 -0.0969 0.9868
vn 0.0221 -0.0063 0.9997
vn -0.0104 -0.0300 0.9995
vn -0.0224 -0.0272 0.9994
vn 0.0283 -0.0139 0.9995
vn -0.0313 -0.0151 0.9994
vn -0.0385 -0.0110 0.9992
vn -0.0578 0.0096 0.9983
vn -0.0342 0.0072 0.9994
vn -0.0814 0.0323 0.9962
vn -0.0067 0.0154 0.9999
vn 0.0166 -0.0097 0.9998
vn -0.0177 -0.0043 0.9998
vn -0.0373 -0.0151 0.9992
vn 0.0352 0.0127 0.9993
vn 0.0547 -0.0198 0.9983
vn -0.0819 0.0315 0.9961
vn -0.0572 -0.0072 0.9983
vn -0.0501 -0.0467 0.9977
vn 0.0269 -0.0517 0.9983
vn -0.0503 -0.0354 0.9981
vn 0.0041 -0.0526 0.9986
vn -0.1260 -0.0296 0.9916
vn -0.1188 0.0017 0.9929
vn 0.0018 -0.0628 0.9980
vn -0.0112 -0.0400 0.9991
vn -0.0747 0.0026 0.9972
vn -0.0950 -0.0440 0.9945
vn -0.1530 0.0031 0.9882
vn -0.1750 0.0393 0.9838
vn -0.0920 0.0338 0.9952
vn -0.1391 0.0335 0.9897
vn -0.0222 -0.0083 0.9997
vn -0.1030 0.0386 0.9939
vn -0.1165 0.0424 0.9923
vn -0.0991 0.0605 0.9932
vn -0.0258 0.0585 0.9980
vn 0.0021 0.0802 0.9968
vn 0.0155 -0.0407 0.9990
vn 0.0055 -0.0445 0.9990
vn 0.0162 0.0995 0.9949
vn 0.0429 0.1114 0.9928
vn 0.0059 -0.0204 0.9998
vn 0.1038 0.1015 0.9894
vn 0.0548 0.0579 0.9968
vn -0.3034 0.0059 0.9529
vn -0.9575 -0.0644 0.2813
vn -0.9172 -0.3770 -0.1285
vn -0.2485 -0.1597 -0.9554
vn -0.4378 -0.0672 -0.8965
vn 0.0444 -0.1409 -0.9890
vn 0.1099 -0.0606 -0.9921
vn 0.1670 -0.0150 -0.9859
vn 0.2055 0.0030 -0.9786
vn 0.0419 -0.0603 -0.9973
vn 0.0583 -0.0257 -0.9980
vn 0.1053 -0.0175 -0.9943
vn 0.1826 0.0149 -0.9831
vn 0.1793 0.0307 -0.9833
vn -0.0474 0.0083 -0.9988
vn -0.0532 0.0229 -0.9983
vn 0.0429 -0.1455 -0.9884
vn -0.1152 -0.1453 -0.9827
vn 0.0657 0.4774 -0.8762
vn -0.3470 -0.6915 -0.6335
vn 0.1146 0.3474 -0.9307
vn 0.1975 0.9742 0.1095
vn 0.1628 0.9570 0.2400
vn -0.0104 0.2821 0.9593
vn 0.0452 0.2904 0.9558
vn -0.0484 0.2230 -0.9736
vn -0.0582 0.9974 0.0433
vn -0.2196 0.2782 0.9351
vn -0.4217 0.1202 -0.8987
vn -0.5168 0.8479 -0.1181
vn -0.9710 0.1280 0.2020
vn -0.6624 -0.6985 -0.2708
vn -0.2895 -0.7353 0.6128
vn -0.1410 -0.7686 0.6240
vn -0.1469 -0.7947 -0.5889
vn -0.3598 -0.5034 0.7856
vn -0.0398 -0.0279 0.9988
vn -0.0853 -0.0465 0.9953
vn -0.2021 -0.1140 0.9727
vn -0.1137 -0.1283 0.9852
vn -0.2643 -0.1332 0.9552
vn -0.8708 -0.4873 0.0659
vn -0.6417 -0.7384 0.2072
vn 0.0333 -0.0136 -0.9994
vn 0.0878 -0.0246 -0.9958
vn 0.1597 0.0066 -0.9871
vn 0.1215 -0.0329 -0.9921
vn 0.0248 -0.0312 -0.9992
vn -0.0406 0.0021 -0.9992
vn 0.0019 0.0067 -1.0000
vn -0.0642 -0.0037 -0.9979
vn -0.0894 -0.9960 -0.0075
vn -0.7439 -0.3948 0.5393
vn -0.5696 -0.3105 -0.7610
vn -0.0739 0.0320 -0.9968
vn -0.0824 0.0094 -0.9966
vn -0.0340 0.0203 -0.9992
vn 0.0538 -0.0339 -0.9980
vn 0.1287 -0.0474 -0.9906
vn -0.2636 -0.0472 0.9635
vn -0.9705 -0.2378 0.0397
vt 0.189717 0.695158
vt 0.183993 0.696668
vt 0.183921 0.693313
vt 0.189285 0.692152
vt 0.454642 0.799052
vt 0.456542 0.799937
vt 0.457005 0.805989
vt 0.453512 0.803114
vt 0.194697 0.693287
vt 0.197374 0.696044
vt 0.192459 0.697741
vt 0.193634 0.691102
vt 0.188787 0.689790
vt 0.192807 0.689119
vt 0.183728 0.690274
vt 0.451089 0.736200
vt 0.450939 0.731512
vt 0.453582 0.730479
vt 0.454122 0.734841
vt 0.450853 0.727796
vt 0.453267 0.726492
vt 0.457303 0.736913
vt 0.455278 0.738289
vt 0.176926 0.690788
vt 0.176508 0.694124
vt 0.165925 0.691749
vt 0.165312 0.688629
vt 0.175944 0.688446
vt 0.166499 0.694961
vt 0.177545 0.696903
vt 0.167525 0.698035
vt 0.183170 0.699880
vt 0.178782 0.700623
vt 0.167875 0.701537
vt 0.157385 0.702221
vt 0.157889 0.698622
vt 0.157048 0.695755
vt 0.151199 0.699556
vt 0.152244 0.703404
vt 0.150090 0.696484
vt 0.149701 0.693752
vt 0.156571 0.692901
vt 0.144005 0.694925
vt 0.144678 0.697947
vt 0.145394 0.701200
vt 0.140194 0.702292
vt 0.139780 0.698889
vt 0.139132 0.696197
vt 0.148787 0.690414
vt 0.142974 0.692407
vt 0.138191 0.693573
vt 0.134304 0.696967
vt 0.133608 0.694378
vt 0.134910 0.699674
vt 0.130057 0.700669
vt 0.129477 0.698048
vt 0.128705 0.695431
vt 0.124814 0.698985
vt 0.125288 0.701552
vt 0.124068 0.696658
vt 0.686542 0.949846
vt 0.692670 0.947145
vt 0.692200 0.949150
vt 0.685724 0.951074
vt 0.698336 0.944924
vt 0.698097 0.947449
vt 0.691969 0.945362
vt 0.699246 0.942637
vt 0.687197 0.948578
vt 0.681437 0.952831
vt 0.681024 0.952111
vt 0.681780 0.951228
vt 0.684789 0.949140
vt 0.690338 0.943793
vt 0.680749 0.951279
vt 0.678764 0.953007
vt 0.679388 0.951368
vt 0.677611 0.952392
vt 0.682197 0.949240
vt 0.121763 0.701547
vt 0.120778 0.700102
vt 0.125724 0.703945
vt 0.130682 0.703485
vt 0.121034 0.698146
vt 0.118827 0.700359
vt 0.118553 0.698271
vt 0.695883 0.941046
vt 0.135523 0.702519
vt 0.700034 0.936723
vt 0.703861 0.937307
vt 0.708306 0.938621
vt 0.708779 0.942639
vt 0.704288 0.946177
vt 0.713848 0.940244
vt 0.714216 0.944229
vt 0.709549 0.948384
vt 0.711854 0.948382
vt 0.716762 0.950126
vt 0.141809 0.690208
vt 0.140268 0.688093
vt 0.144239 0.687426
vt 0.146609 0.688911
vt 0.138246 0.685194
vt 0.141706 0.685123
vt 0.446244 0.768067
vt 0.449446 0.773017
vt 0.446361 0.773312
vt 0.443513 0.769221
vt 0.449108 0.767259
vt 0.451851 0.772419
vt 0.714908 0.902599
vt 0.715121 0.911531
vt 0.711938 0.912533
vt 0.712518 0.903619
vt 0.447464 0.761583
vt 0.450582 0.766205
vt 0.445892 0.761824
vt 0.715213 0.914949
vt 0.710321 0.920472
vt 0.442772 0.762493
vt 0.445147 0.755161
vt 0.446772 0.755405
vt 0.442029 0.755312
vt 0.445780 0.747370
vt 0.442619 0.747157
vt 0.447278 0.747659
vt 0.444221 0.739199
vt 0.447966 0.739013
vt 0.450254 0.738856
vt 0.439165 0.746695
vt 0.440757 0.738684
vt 0.438391 0.755529
vt 0.434366 0.755863
vt 0.435289 0.746313
vt 0.436033 0.737900
vt 0.435732 0.764556
vt 0.439650 0.763349
vt 0.439382 0.770763
vt 0.442688 0.774351
vt 0.458900 0.870491
vt 0.456118 0.874457
vt 0.454106 0.870571
vt 0.458705 0.865248
vt 0.434399 0.771278
vt 0.428704 0.765796
vt 0.720748 0.956153
vt 0.722274 0.951698
vt 0.726448 0.955962
vt 0.728697 0.953053
vt 0.731830 0.957048
vt 0.463360 0.866154
vt 0.463107 0.870522
vt 0.459780 0.861035
vt 0.464742 0.862196
vt 0.466189 0.858679
vt 0.461103 0.857258
vt 0.719311 0.947438
vt 0.727070 0.949861
vt 0.462457 0.854392
vt 0.467846 0.855920
vt 0.456939 0.855016
vt 0.457933 0.852275
vt 0.464030 0.850472
vt 0.469858 0.852724
vt 0.459345 0.848073
vt 0.476626 0.855687
vt 0.472985 0.858718
vt 0.471400 0.860912
vt 0.477374 0.862215
vt 0.475553 0.864190
vt 0.474270 0.865792
vt 0.967843 0.970572
vt 0.969447 0.971110
vt 0.967261 0.979268
vt 0.964911 0.978274
vt 0.961574 0.976698
vt 0.965250 0.969450
vt 0.958932 0.975743
vt 0.962995 0.968543
vt 0.955396 0.980028
vt 0.957853 0.981898
vt 0.477025 0.851498
vt 0.478529 0.847463
vt 0.481890 0.849723
vt 0.483077 0.852587
vt 0.956262 0.975838
vt 0.960954 0.968262
vt 0.977922 0.983409
vt 0.975176 0.980819
vt 0.975648 0.972742
vt 0.977403 0.973847
vt 0.978287 0.987303
vt 0.980797 0.987620
vt 0.416263 0.768257
vt 0.420463 0.771681
vt 0.417759 0.774515
vt 0.414409 0.770832
vt 0.482521 0.843444
vt 0.485204 0.845204
vt 0.978369 0.967621
vt 0.976676 0.966839
vt 0.964807 0.962663
vt 0.962597 0.962266
vt 0.963464 0.958179
vt 0.966588 0.958998
vt 0.977479 0.962449
vt 0.979160 0.963746
vt 0.974630 0.965533
vt 0.974950 0.961182
vt 0.973762 0.972106
vt 0.387997 0.773745
vt 0.396030 0.771701
vt 0.395299 0.774325
vt 0.394430 0.776743
vt 0.976456 0.956416
vt 0.980554 0.955527
vt 0.972476 0.964870
vt 0.972133 0.960589
vt 0.973892 0.955832
vt 0.970897 0.965695
vt 0.969714 0.963926
vt 0.967340 0.963231
vt 0.969400 0.959334
vt 0.971796 0.955355
vt 0.974163 0.951132
vt 0.975741 0.951542
vt 0.978142 0.951736
vt 0.977640 0.947283
vt 0.976540 0.946857
vt 0.979428 0.947464
vt 0.320135 0.078798
vt 0.323068 0.076913
vt 0.326268 0.075728
vt 0.321034 0.079021
vt 0.980454 0.942473
vt 0.981224 0.943208
vt 0.330426 0.074767
vt 0.326615 0.076163
vt 0.329970 0.073915
vt 0.327612 0.073473
vt 0.329101 0.073744
vt 0.324820 0.074229
vt 0.331998 0.076480
vt 0.328560 0.076267
vt 0.321142 0.077213
vt 0.322771 0.076893
vt 0.318484 0.079130
vt 0.317135 0.079086
vt 0.323740 0.074074
vt 0.329309 0.070966
vt 0.327656 0.070838
vt 0.334508 0.073610
vt 0.336825 0.073758
vt 0.330547 0.067854
vt 0.332932 0.068511
vt 0.339047 0.071038
vt 0.340054 0.071991
vt 0.337064 0.070541
vt 0.333276 0.072257
vt 0.341795 0.067232
vt 0.344018 0.069695
vt 0.338663 0.068468
vt 0.335872 0.070041
vt 0.337644 0.068332
vt 0.332283 0.071920
vt 0.334630 0.069486
vt 0.337135 0.067444
vt 0.330604 0.071691
vt 0.339262 0.067416
vt 0.339905 0.067260
vt 0.339812 0.066260
vt 0.336494 0.066439
vt 0.336998 0.064281
vt 0.887244 0.961152
vt 0.890506 0.961502
vt 0.890660 0.963615
vt 0.887578 0.963853
vt 0.333022 0.065758
vt 0.347292 0.064346
vt 0.342976 0.061700
vt 0.348397 0.067237
vt 0.348175 0.070165
vt 0.891406 0.966702
vt 0.892890 0.965762
vt 0.897108 0.967640
vt 0.896295 0.968913
vt 0.364888 0.774330
vt 0.362914 0.773457
vt 0.368134 0.769917
vt 0.368153 0.772179
vt 0.374586 0.771691
vt 0.375170 0.768905
vt 0.372991 0.773538
vt 0.367581 0.774212
vt 0.384882 0.777718
vt 0.384685 0.769467
vt 0.271293 0.543358
vt 0.267113 0.536265
vt 0.271294 0.534123
vt 0.274715 0.542135
vt 0.257771 0.525028
vt 0.262597 0.524003
vt 0.967514 0.951281
vt 0.965817 0.955166
vt 0.961880 0.953802
vt 0.965445 0.947040
vt 0.250499 0.515257
vt 0.254732 0.512531
vt 0.961557 0.955815
vt 0.955850 0.951062
vt 0.955196 0.949684
vt 0.244103 0.502097
vt 0.240640 0.504696
vt 0.496112 0.840128
vt 0.496686 0.843219
vt 0.487990 0.842270
vt 0.486813 0.839203
vt 0.497651 0.843990
vt 0.489312 0.843930
vt 0.479996 0.840655
vt 0.411022 0.769481
vt 0.410951 0.766421
vt 0.403942 0.769798
vt 0.402815 0.766639
vt 0.402269 0.763537
vt 0.411514 0.763230
vt 0.418425 0.765187
vt 0.424502 0.769432
vt 0.420275 0.761677
vt 0.412025 0.759783
vt 0.421649 0.754294
vt 0.428944 0.755772
vt 0.412195 0.752792
vt 0.400723 0.753096
vt 0.401898 0.759983
vt 0.398525 0.745017
vt 0.410970 0.744075
vt 0.421758 0.745020
vt 0.396331 0.738254
vt 0.409397 0.737322
vt 0.421310 0.737330
vt 0.407936 0.732579
vt 0.420584 0.732610
vt 0.394668 0.733993
vt 0.388079 0.746151
vt 0.385965 0.738430
vt 0.385225 0.734361
vt 0.384204 0.730932
vt 0.393602 0.730156
vt 0.407033 0.728700
vt 0.294363 0.477772
vt 0.287719 0.481600
vt 0.288359 0.479571
vt 0.296995 0.474867
vt 0.276284 0.473681
vt 0.277376 0.470934
vt 0.295055 0.479573
vt 0.287783 0.486334
vt 0.274614 0.476323
vt 0.419772 0.726555
vt 0.420480 0.729055
vt 0.407116 0.726329
vt 0.407123 0.723720
vt 0.419704 0.724491
vt 0.407352 0.720744
vt 0.419884 0.721462
vt 0.289015 0.492815
vt 0.273991 0.480824
vt 0.428540 0.721521
vt 0.428683 0.724450
vt 0.428707 0.726348
vt 0.435121 0.721579
vt 0.435124 0.724567
vt 0.435243 0.726396
vt 0.440126 0.724172
vt 0.440231 0.726139
vt 0.440137 0.720895
vt 0.428425 0.718573
vt 0.435086 0.718536
vt 0.440074 0.717741
vt 0.435222 0.714900
vt 0.440029 0.714183
vt 0.428857 0.715158
vt 0.420622 0.714962
vt 0.419856 0.718465
vt 0.428989 0.708985
vt 0.434846 0.709021
vt 0.421534 0.709017
vt 0.408595 0.714372
vt 0.409322 0.708983
vt 0.407668 0.718199
vt 0.259177 0.491669
vt 0.267686 0.487395
vt 0.281917 0.500860
vt 0.273646 0.504054
vt 0.271022 0.483156
vt 0.285782 0.495297
vt 0.423589 0.077433
vt 0.409481 0.073985
vt 0.410362 0.071733
vt 0.423297 0.075024
vt 0.411459 0.069542
vt 0.424241 0.072429
vt 0.399061 0.068742
vt 0.401218 0.064291
vt 0.402471 0.061813
vt 0.394879 0.061244
vt 0.394802 0.057968
vt 0.393668 0.053500
vt 0.409995 0.075800
vt 0.395645 0.070828
vt 0.392857 0.063972
vt 0.390569 0.055372
vt 0.391188 0.058284
vt 0.389657 0.060009
vt 0.389162 0.057223
vt 0.387152 0.054572
vt 0.388160 0.057613
vt 0.385616 0.061855
vt 0.385972 0.056731
vt 0.386693 0.066169
vt 0.379867 0.060488
vt 0.381394 0.055174
vt 0.377625 0.067017
vt 0.390727 0.072694
vt 0.372434 0.750439
vt 0.372793 0.755475
vt 0.365096 0.756104
vt 0.366691 0.751267
vt 0.373629 0.761086
vt 0.366618 0.763270
vt 0.372290 0.056918
vt 0.368383 0.060125
vt 0.361213 0.061499
vt 0.369377 0.068853
vt 0.367259 0.767314
vt 0.359269 0.772250
vt 0.359128 0.766106
vt 0.374465 0.765285
vt 0.353762 0.063059
vt 0.353267 0.048061
vt 0.357975 0.051631
vt 0.348858 0.057710
vt 0.349456 0.047217
vt 0.356241 0.045549
vt 0.354784 0.039497
vt 0.351994 0.037736
vt 0.864167 0.955779
vt 0.862246 0.953337
vt 0.867559 0.950448
vt 0.869417 0.955424
vt 0.363009 0.051724
vt 0.360023 0.044349
vt 0.367050 0.048973
vt 0.363417 0.042095
vt 0.375019 0.052602
vt 0.370236 0.045940
vt 0.366424 0.039047
vt 0.847644 0.952698
vt 0.845267 0.951460
vt 0.847806 0.949357
vt 0.851330 0.952350
vt 0.358161 0.038690
vt 0.360862 0.037081
vt 0.293156 0.569020
vt 0.295772 0.571136
vt 0.294524 0.573753
vt 0.292799 0.572916
vt 0.293029 0.564232
vt 0.297208 0.565175
vt 0.849717 0.954523
vt 0.847455 0.954252
vt 0.292656 0.577162
vt 0.295179 0.577302
vt 0.844770 0.958724
vt 0.844539 0.963908
vt 0.842677 0.957912
vt 0.848247 0.956605
vt 0.291481 0.572095
vt 0.291682 0.576734
vt 0.292604 0.582269
vt 0.293770 0.580908
vt 0.845898 0.963163
vt 0.847126 0.964388
vt 0.844678 0.966939
vt 0.846275 0.961466
vt 0.847240 0.963448
vt 0.847815 0.959115
vt 0.848814 0.960958
vt 0.850389 0.956821
vt 0.849906 0.959038
vt 0.850857 0.960478
vt 0.852390 0.954585
vt 0.852640 0.957208
vt 0.851484 0.958853
vt 0.854914 0.955599
vt 0.854224 0.952065
vt 0.857590 0.953486
vt 0.858678 0.956096
vt 0.854682 0.958734
vt 0.856517 0.959034
vt 0.859975 0.957749
vt 0.853456 0.960598
vt 0.852602 0.960027
vt 0.860724 0.959305
vt 0.858185 0.960621
vt 0.855203 0.962427
vt 0.851026 0.961680
vt 0.852432 0.964364
vt 0.860953 0.961462
vt 0.858513 0.963640
vt 0.855280 0.965728
vt 0.850196 0.966370
vt 0.854025 0.968023
vt 0.849474 0.963126
vt 0.290018 0.581859
vt 0.289909 0.576340
vt 0.289072 0.571632
vt 0.287900 0.576501
vt 0.286813 0.571425
vt 0.288266 0.566411
vt 0.291072 0.567869
vt 0.285747 0.565330
vt 0.863904 0.963470
vt 0.860403 0.966407
vt 0.283034 0.566308
vt 0.284390 0.572191
vt 0.285514 0.558599
vt 0.288335 0.559021
vt 0.281656 0.558628
vt 0.864553 0.959145
vt 0.870127 0.959248
vt 0.868944 0.964775
vt 0.870299 0.960862
vt 0.875519 0.967605
vt 0.875558 0.961755
vt 0.876902 0.958107
vt 0.881774 0.956395
vt 0.880244 0.961190
vt 0.880820 0.966607
vt 0.887354 0.957053
vt 0.884654 0.960999
vt 0.884768 0.964843
vt 0.279157 0.549349
vt 0.282379 0.549738
vt 0.278255 0.555303
vt 0.275341 0.554509
vt 0.275252 0.549144
vt 0.278144 0.541316
vt 0.281720 0.541196
vt 0.888991 0.968096
vt 0.271671 0.548894
vt 0.275146 0.532340
vt 0.279180 0.530821
vt 0.267194 0.522054
vt 0.272495 0.519473
vt 0.279367 0.517247
vt 0.284312 0.530677
vt 0.284931 0.542063
vt 0.288729 0.529793
vt 0.285122 0.516093
vt 0.288429 0.543174
vt 0.265473 0.507501
vt 0.251712 0.496128
vt 0.259423 0.510203
vt 0.247127 0.499865
vt 0.485509 0.835625
vt 0.483807 0.829780
vt 0.496042 0.831771
vt 0.495995 0.836910
vt 0.484054 0.821567
vt 0.497770 0.824676
vt 0.475664 0.836278
vt 0.475613 0.827906
vt 0.474543 0.844994
vt 0.469517 0.842499
vt 0.468975 0.825584
vt 0.467441 0.832855
vt 0.463343 0.838800
vt 0.471598 0.849223
vt 0.466092 0.846525
vt 0.460941 0.843625
vt 0.455196 0.846437
vt 0.456466 0.841581
vt 0.459246 0.836629
vt 0.454147 0.850608
vt 0.712744 0.923893
vt 0.715332 0.926667
vt 0.713164 0.933907
vt 0.708857 0.931516
vt 0.720441 0.944285
vt 0.705582 0.929235
vt 0.145732 0.703030
vt 0.702842 0.930094
vt 0.716030 0.916606
vt 0.718229 0.918527
vt 0.450264 0.762053
vt 0.452367 0.766470
vt 0.457534 0.834789
vt 0.460208 0.829969
vt 0.463095 0.831121
vt 0.464963 0.824061
vt 0.461607 0.823201
vt 0.462378 0.815874
vt 0.465059 0.815723
vt 0.469244 0.816890
vt 0.476205 0.819359
vt 0.438698 0.708512
vt 0.460454 0.807077
vt 0.463403 0.807032
vt 0.459418 0.801527
vt 0.462853 0.803518
vt 0.457705 0.814852
vt 0.195806 0.701248
vt 0.199005 0.699208
vt 0.201015 0.701929
vt 0.199689 0.704402
vt 0.202428 0.699148
vt 0.200919 0.696618
vt 0.204544 0.701744
vt 0.447471 0.724120
vt 0.447706 0.725691
vt 0.444355 0.725696
vt 0.444478 0.723507
vt 0.447997 0.728330
vt 0.444691 0.728669
vt 0.440497 0.729015
vt 0.435404 0.729102
vt 0.445023 0.732462
vt 0.440932 0.732565
vt 0.435712 0.732731
vt 0.429265 0.732699
vt 0.428953 0.729137
vt 0.429539 0.737563
vt 0.429437 0.745738
vt 0.448120 0.732576
vt 0.450801 0.725362
vt 0.453117 0.724585
vt 0.451911 0.723042
vt 0.454675 0.720721
vt 0.199037 0.686923
vt 0.200192 0.688476
vt 0.196953 0.689741
vt 0.195976 0.687553
vt 0.198111 0.691813
vt 0.201795 0.690322
vt 0.456414 0.717914
vt 0.457797 0.716989
vt 0.457137 0.720126
vt 0.204610 0.687822
vt 0.203308 0.686094
vt 0.457927 0.715091
vt 0.457951 0.715516
vt 0.206898 0.684778
vt 0.207327 0.686843
vt 0.208907 0.687666
vt 0.206289 0.688870
vt 0.203736 0.691533
vt 0.455184 0.718427
vt 0.453626 0.718042
vt 0.455904 0.716291
vt 0.456484 0.716335
vt 0.208347 0.685731
vt 0.451006 0.721041
vt 0.199502 0.693131
vt 0.201396 0.694351
vt 0.460219 0.820642
vt 0.450014 0.755386
vt 0.285682 0.550941
vt 0.288931 0.551713
vt 0.291949 0.552779
vt 0.293255 0.545991
vt 0.290539 0.561928
vt 0.380498 0.049677
vt 0.377421 0.050559
vt 0.373938 0.043454
vt 0.377193 0.041388
vt 0.382790 0.053353
vt 0.388030 0.051665
vt 0.889296 0.956484
vt 0.876524 0.955094
vt 0.880954 0.949511
vt 0.382155 0.761030
vt 0.383125 0.765524
vt 0.393900 0.768475
vt 0.392940 0.764878
vt 0.391861 0.760830
vt 0.390428 0.754176
vt 0.381227 0.755069
vt 0.380322 0.748319
vt 0.381388 0.738968
vt 0.371837 0.745084
vt 0.298902 0.475329
vt 0.300169 0.475732
vt 0.299087 0.473919
vt 0.298604 0.474162
vt 0.297255 0.479431
vt 0.380362 0.728534
vt 0.379208 0.730695
vt 0.379386 0.728594
vt 0.299038 0.472727
vt 0.463372 0.876273
vt 0.458390 0.878320
vt 0.422330 0.773685
vt 0.425479 0.772661
vt 0.468584 0.866786
vt 0.469020 0.870871
vt 0.976395 0.987253
vt 0.973142 0.980323
vt 0.469740 0.863581
vt 0.473404 0.867558
vt 0.472730 0.869891
vt 0.970286 0.979774
vt 0.971313 0.971574
vt 0.969055 0.954810
vt 0.970699 0.949055
vt 0.980461 0.951844
vt 0.980219 0.947081
vt 0.974952 0.945646
vt 0.155123 0.689542
vt 0.137114 0.691489
vt 0.133166 0.692056
s 1
usemtl abyss_chancel_background_pbr
f 1/1/1 2/2/2 7/3/3 5/4/4
f 1/5/1 3/6/5 413/7/6 2/8/2
f 1/1/1 4/9/7 416/10/8 3/11/5
f 4/9/7 1/1/1 5/4/4 6/12/9
f 6/12/9 5/4/4 8/13/10 10/14/11
f 7/3/3 11/15/12 8/13/10 5/4/4
f 12/16/13 9/17/14 8/18/10 11/19/12
f 8/18/10 9/17/14 438/20/15 10/21/11
f 11/19/12 13/22/16 14/23/17 12/16/13
f 13/24/16 11/15/12 7/3/3 16/25/18
f 15/26/19 20/27/20 14/28/17 13/24/16
f 15/26/19 13/24/16 16/25/18 17/29/21
f 18/30/22 16/25/18 7/3/3 2/2/2
f 19/31/23 17/29/21 16/25/18 18/30/22
f 18/30/22 2/2/2 413/32/6 14/33/17
f 19/31/23 18/30/22 14/33/17 20/34/20
f 19/31/23 20/34/20 22/35/24 21/36/25
f 21/36/25 24/37/26 17/29/21 19/31/23
f 23/38/27 21/36/25 22/35/24 400/39/28
f 23/38/27 26/40/29 24/37/26 21/36/25
f 27/41/30 25/42/31 24/37/26 26/40/29
f 25/42/31 15/26/19 17/29/21 24/37/26
f 31/43/32 27/41/30 26/40/29 28/44/33
f 30/45/34 28/44/33 26/40/29 23/38/27
f 30/45/34 59/46/35 29/47/36 28/44/33
f 29/47/36 33/48/37 31/43/32 28/44/33
f 73/49/38 27/41/30 31/43/32 32/50/39
f 34/51/40 32/50/39 31/43/32 33/48/37
f 34/51/40 33/48/37 35/52/41 37/53/42
f 35/52/41 33/48/37 29/47/36 36/54/43
f 39/55/44 38/56/45 35/52/41 36/54/43
f 41/57/46 37/53/42 35/52/41 38/56/45
f 40/58/47 38/56/45 39/55/44 55/59/48
f 40/58/47 42/60/49 41/57/46 38/56/45
f 46/61/50 43/62/51 41/63/46 42/64/49
f 43/62/51 44/65/52 37/66/42 41/63/46
f 43/62/51 45/67/53 60/68/54 44/65/52
f 48/69/55 45/67/53 43/62/51 46/61/50
f 46/61/50 42/64/49 56/70/56 47/71/57
f 46/61/50 47/71/57 50/72/58 48/69/55
f 48/69/55 49/73/59 57/74/60 45/67/53
f 49/73/59 48/69/55 50/72/58 51/75/61
f 50/72/58 47/71/57 52/76/62 51/75/61
f 53/77/63 51/75/61 52/76/62 54/78/64
f 49/73/59 51/75/61 53/77/63 55/79/48
f 40/58/47 55/59/48 53/80/63 54/81/64
f 49/82/59 55/59/48 39/55/44 57/83/60
f 40/58/47 54/81/64 56/84/56 42/60/49
f 56/84/56 54/81/64 52/85/62 47/86/57
f 57/74/60 58/87/65 60/68/54 45/67/53
f 58/88/65 57/83/60 39/55/44 36/54/43
f 58/88/65 36/54/43 29/47/36 59/46/35
f 59/89/35 61/90/66 60/68/54 58/87/65
f 63/91/67 62/92/68 60/68/54 61/90/66
f 64/93/69 44/65/52 60/68/54 62/92/68
f 397/94/70 65/95/71 62/92/68 63/91/67
f 67/96/72 64/93/69 62/92/68 66/97/73
f 68/98/74 66/97/73 62/92/68 65/95/71
f 67/99/72 66/100/73 69/101/75 72/102/76
f 66/100/73 68/103/74 71/104/77 69/101/75
f 70/105/78 69/106/75 71/107/77 94/108/79
f 69/106/75 70/105/78 74/109/80 72/110/76
f 72/102/76 73/49/38 32/50/39 67/99/72
f 72/111/76 74/112/80 22/113/24 73/114/38
f 77/115/81 75/116/82 74/109/80 76/117/83
f 75/118/82 400/119/28 22/113/24 74/112/80
f 78/120/84 76/117/83 74/109/80 70/105/78
f 77/115/81 76/117/83 79/121/85 81/122/86
f 76/117/83 78/120/84 80/123/87 79/121/85
f 82/124/88 79/121/85 80/123/87 85/125/89
f 84/126/90 81/122/86 79/121/85 82/124/88
f 85/125/89 86/127/91 83/128/92 82/124/88
f 82/124/88 83/128/92 413/129/6 84/126/90
f 86/127/91 85/125/89 87/130/93 89/131/94
f 85/125/89 80/123/87 90/132/95 87/130/93
f 90/132/95 91/133/96 88/134/97 87/130/93
f 89/131/94 87/130/93 88/134/97 428/135/98
f 93/136/99 91/133/96 90/132/95 92/137/100
f 78/120/84 92/137/100 90/132/95 80/123/87
f 93/136/99 92/137/100 94/108/79 95/138/101
f 78/120/84 70/105/78 94/108/79 92/137/100
f 95/138/101 94/108/79 71/107/77 97/139/102
f 96/140/103 95/141/101 97/142/102 99/143/104
f 95/138/101 96/144/103 212/145/105 93/136/99
f 71/146/77 68/98/74 98/147/106 97/148/102
f 97/148/102 98/147/106 101/149/107 99/150/104
f 96/140/103 99/143/104 100/151/108 493/152/109
f 101/153/107 102/154/110 100/151/108 99/143/104
f 104/155/111 102/154/110 101/153/107 103/156/112
f 105/157/113 103/158/112 101/149/107 98/147/106
f 103/156/112 106/159/114 109/160/115 104/155/111
f 106/159/114 103/156/112 105/161/113 108/162/116
f 109/160/115 106/159/114 107/163/117 110/164/118
f 108/162/116 394/165/119 107/163/117 106/159/114
f 112/166/120 111/167/121 109/160/115 110/164/118
f 113/168/122 104/155/111 109/160/115 111/167/121
f 111/167/121 112/166/120 117/169/123 114/170/124
f 114/170/124 116/171/125 113/168/122 111/167/121
f 115/172/126 501/173/127 116/174/125 114/175/124
f 115/172/126 114/175/124 117/176/123 118/177/128
f 117/176/123 119/178/129 121/179/130 118/177/128
f 120/180/131 119/178/129 117/176/123 112/181/120
f 120/182/131 126/183/132 122/184/133 119/185/129
f 119/178/129 122/186/133 127/187/134 121/179/130
f 122/188/133 123/189/135 128/190/136 127/191/134
f 494/192/137 123/189/135 122/188/133 124/193/138
f 208/194/139 124/195/138 122/196/133 125/197/140
f 203/198/141 125/199/140 122/184/133 126/183/132
f 129/200/142 127/191/134 128/190/136 132/201/143
f 131/202/144 121/179/130 127/187/134 129/203/142
f 131/202/144 129/203/142 130/204/145 504/205/146
f 132/201/143 134/206/147 130/207/145 129/200/142
f 133/208/148 136/209/149 134/206/147 132/201/143
f 132/201/143 128/190/136 499/210/150 133/208/148
f 135/211/151 196/212/152 130/213/145 134/214/147
f 136/209/149 137/215/153 135/216/151 134/206/147
f 133/208/148 139/217/154 138/218/155 136/209/149
f 137/215/153 136/209/149 138/218/155 142/219/156
f 138/218/155 139/217/154 502/220/157 140/221/158
f 509/222/159 141/223/160 138/218/155 140/221/158
f 143/224/161 142/219/156 138/218/155 141/223/160
f 142/219/156 143/224/161 145/225/162 144/226/163
f 137/215/153 142/219/156 144/226/163 146/227/164
f 147/228/165 144/226/163 145/225/162 148/229/166
f 149/230/167 146/227/164 144/226/163 147/228/165
f 148/231/166 153/232/168 150/233/169 147/234/165
f 149/230/167 147/228/165 150/235/169 154/236/170
f 155/237/171 154/238/170 150/233/169 151/239/172
f 150/233/169 152/240/173 507/241/174 151/239/172
f 159/242/175 152/240/173 150/233/169 153/232/168
f 155/237/171 158/243/176 156/244/177 154/238/170
f 154/245/170 156/246/177 157/247/178 149/248/167
f 159/242/175 153/232/168 156/246/177 158/249/176
f 153/232/168 148/231/166 157/247/178 156/246/177
f 161/250/179 159/242/175 158/249/176 160/251/180
f 163/252/181 160/253/180 158/243/176 155/237/171
f 162/254/182 179/255/183 161/250/179 160/251/180
f 165/256/184 162/257/182 160/253/180 163/252/181
f 167/258/185 165/256/184 163/252/181 164/259/186
f 151/239/172 164/259/186 163/252/181 155/237/171
f 165/256/184 166/260/187 178/261/188 162/257/182
f 167/258/185 168/262/189 166/260/187 165/256/184
f 168/262/189 167/258/185 169/263/190 172/264/191
f 164/259/186 171/265/192 169/263/190 167/258/185
f 172/264/191 169/263/190 170/266/193 174/267/194
f 171/265/192 508/268/195 170/266/193 169/263/190
f 172/264/191 173/269/196 506/270/197 168/262/189
f 172/264/191 174/267/194 175/271/198 173/269/196
f 176/272/199 174/267/194 170/266/193 179/255/183
f 176/272/199 177/273/200 175/271/198 174/267/194
f 177/274/200 176/275/199 178/276/188 181/277/201
f 179/255/183 162/254/182 178/278/188 176/272/199
f 170/266/193 508/268/195 161/250/179 179/255/183
f 180/279/202 178/261/188 166/260/187 359/280/203
f 184/281/204 182/282/205 178/261/188 180/279/202
f 183/283/206 181/277/201 178/276/188 182/284/205
f 182/284/205 185/285/207 187/286/208 183/283/206
f 182/287/205 184/288/204 186/289/209 185/290/207
f 188/291/210 185/290/207 186/289/209 189/292/211
f 188/291/210 190/293/212 187/294/208 185/290/207
f 135/211/151 192/295/213 190/293/212 188/291/210
f 189/292/211 479/296/214 135/211/151 188/291/210
f 187/297/208 190/298/212 191/299/215 367/300/216
f 192/301/213 193/302/217 191/299/215 190/298/212
f 135/303/151 195/304/218 194/305/219 192/306/213
f 193/302/217 192/301/213 194/307/219 197/308/220
f 194/305/219 195/304/218 130/204/145 196/309/152
f 200/310/221 198/311/222 194/305/219 196/309/152
f 199/312/223 197/308/220 194/307/219 198/313/222
f 199/314/223 198/315/222 201/316/224 202/317/225
f 198/315/222 200/318/221 204/319/226 201/316/224
f 384/320/227 202/317/225 201/316/224 203/198/141
f 203/198/141 201/316/224 204/319/226 125/199/140
f 125/197/140 204/321/226 205/322/228 208/194/139
f 200/323/221 206/324/229 205/322/228 204/321/226
f 205/322/228 206/324/229 483/325/230 207/326/231
f 209/327/232 208/194/139 205/322/228 207/326/231
f 124/195/138 208/194/139 209/327/232 210/328/233
f 209/327/232 211/329/234 212/145/105 210/328/233
f 211/329/234 209/327/232 207/326/231 214/330/235
f 213/331/236 434/332/237 212/145/105 211/329/234
f 213/331/236 211/329/234 214/330/235 216/333/238
f 217/334/239 216/333/238 214/330/235 215/335/240
f 214/330/235 207/326/231 483/325/230 215/335/240
f 219/336/241 218/337/242 216/333/238 217/334/239
f 220/338/243 213/331/236 216/333/238 218/337/242
f 218/337/242 219/336/241 224/339/244 221/340/245
f 221/340/245 222/341/246 220/338/243 218/337/242
f 221/340/245 223/342/247 431/343/248 222/341/246
f 221/340/245 224/339/244 226/344/249 223/342/247
f 486/345/250 225/346/251 224/339/244 219/336/241
f 225/346/251 227/347/252 226/344/249 224/339/244
f 227/347/252 229/348/253 228/349/254 226/344/249
f 226/344/249 228/349/254 230/350/255 223/342/247
f 232/351/256 231/352/257 228/353/254 229/354/253
f 231/352/257 234/355/258 230/356/255 228/353/254
f 231/352/257 232/351/256 489/357/259 233/358/260
f 233/358/260 236/359/261 234/355/258 231/352/257
f 235/360/262 432/361/263 230/350/255 234/362/258
f 234/362/258 236/363/261 238/364/264 235/360/262
f 238/364/264 236/363/261 237/365/265 239/366/266
f 233/358/260 262/367/267 237/368/265 236/359/261
f 241/369/268 240/370/269 238/364/264 239/366/266
f 242/371/270 235/360/262 238/364/264 240/370/269
f 240/370/269 241/369/268 246/372/271 243/373/272
f 243/373/272 244/374/273 242/371/270 240/370/269
f 244/374/273 243/373/272 245/375/274 422/376/275
f 246/372/271 247/377/276 245/375/274 243/373/272
f 241/369/268 251/378/277 248/379/278 246/372/271
f 248/379/278 249/380/279 247/377/276 246/372/271
f 250/381/280 411/382/281 249/380/279 248/379/278
f 253/383/282 250/381/280 248/379/278 251/378/277
f 255/384/283 253/383/282 251/378/277 252/385/284
f 239/366/266 252/385/284 251/378/277 241/369/268
f 253/383/282 254/386/285 409/387/286 250/381/280
f 255/384/283 256/388/287 254/386/285 253/383/282
f 257/389/288 258/390/289 256/388/287 255/384/283
f 257/389/288 255/384/283 252/385/284 260/391/290
f 258/392/289 257/393/288 259/394/291 376/395/292
f 257/393/288 260/396/290 261/397/293 259/394/291
f 237/368/265 262/367/267 261/397/293 260/396/290
f 252/385/284 239/366/266 237/365/265 260/391/290
f 262/398/267 264/399/294 263/400/295 261/401/293
f 261/401/293 263/400/295 265/402/296 259/403/291
f 269/404/297 266/405/298 263/400/295 264/399/294
f 266/405/298 268/406/299 265/402/296 263/400/295
f 266/405/298 269/404/297 271/407/300 267/408/301
f 266/405/298 267/408/301 458/409/302 268/406/299
f 269/404/297 264/399/294 489/410/259 270/411/303
f 269/404/297 270/411/303 272/412/304 271/407/300
f 274/413/305 267/408/301 271/407/300 273/414/306
f 273/414/306 271/407/300 272/412/304 276/415/307
f 273/414/306 275/416/308 469/417/309 274/413/305
f 275/416/308 273/414/306 276/415/307 277/418/310
f 276/415/307 278/419/311 279/420/312 277/418/310
f 278/419/311 276/415/307 272/412/304 281/421/313
f 280/422/314 471/423/315 279/420/312 278/419/311
f 278/419/311 281/421/313 283/424/316 280/422/314
f 272/412/304 270/411/303 282/425/317 281/421/313
f 282/426/317 284/427/318 283/428/316 281/429/313
f 288/430/319 286/431/320 283/428/316 284/427/318
f 301/432/321 280/422/314 283/424/316 285/433/322
f 287/434/323 285/433/322 283/424/316 286/435/320
f 286/431/320 289/436/324 291/437/325 287/438/323
f 286/431/320 288/430/319 290/439/326 289/436/324
f 290/439/326 189/292/211 186/289/209 289/436/324
f 186/289/209 184/288/204 291/437/325 289/436/324
f 287/434/323 291/440/325 293/441/327 297/442/328
f 180/279/202 292/443/329 291/440/325 184/281/204
f 292/443/329 296/444/330 293/441/327 291/440/325
f 294/445/331 297/442/328 293/441/327
f 329/446/332 294/445/331 293/441/327 295/447/333
f 473/448/334 295/449/333 293/450/327 296/451/330
f 287/434/323 297/442/328 298/452/335 285/433/322
f 297/442/328 294/445/331 299/453/336 298/452/335
f 301/432/321 285/433/322 298/452/335 300/454/337
f 300/454/337 298/452/335 299/453/336 303/455/338
f 467/456/339 301/432/321 300/454/337 302/457/340
f 305/458/341 302/457/340 300/454/337 303/455/338
f 307/459/342 305/460/341 303/461/338 304/462/343
f 303/455/338 299/453/336 327/463/344 304/464/343
f 306/465/345 305/466/341 307/467/342 308/468/346
f 305/466/341 306/465/345 464/469/347 302/470/340
f 311/471/348 309/472/349 307/459/342 304/462/343
f 312/473/350 308/468/346 307/467/342 309/474/349
f 310/475/351 314/476/352 312/477/350 309/472/349
f 309/472/349 311/471/348 323/478/353 310/475/351
f 346/479/354 308/468/346 312/473/350 313/480/355
f 315/481/356 313/480/355 312/473/350 314/482/352
f 314/476/352 316/483/357 317/484/358 315/485/356
f 316/483/357 314/476/352 310/475/351 318/486/359
f 316/483/357 318/486/359 319/487/360 317/484/358
f 318/486/359 320/488/361 322/489/362 319/487/360
f 310/475/351 323/478/353 320/488/361 318/486/359
f 324/490/363 321/491/364 320/488/361 323/478/353
f 321/491/364 476/492/365 322/489/362 320/488/361
f 326/493/366 324/490/363 323/478/353 311/471/348
f 324/490/363 325/494/367 477/495/368 321/491/364
f 325/494/367 324/490/363 326/493/366 328/496/369
f 304/462/343 327/497/344 326/493/366 311/471/348
f 329/498/332 328/496/369 326/493/366 327/497/344
f 295/449/333 330/499/370 328/496/369 329/498/332
f 332/500/371 325/494/367 328/496/369 330/499/370
f 334/501/372 332/500/371 330/499/370 331/502/373
f 473/448/334 331/502/373 330/499/370 295/449/333
f 332/500/371 334/501/372 336/503/374 333/504/375
f 332/500/371 333/504/375 477/495/368 325/494/367
f 334/501/372 331/502/373 474/505/376 335/506/377
f 335/506/377 338/507/378 336/503/374 334/501/372
f 476/492/365 333/504/375 336/503/374 337/508/379
f 336/503/374 338/507/378 340/509/380 337/508/379
f 338/507/378 335/506/377 475/510/381 339/511/382
f 338/507/378 339/511/382 341/512/383 340/509/380
f 342/513/384 340/509/380 341/512/383 344/514/385
f 343/515/386 337/508/379 340/509/380 342/513/384
f 315/481/356 342/516/384 344/517/385 313/480/355
f 342/513/384 315/485/356 317/484/358 343/515/386
f 344/517/385 345/518/387 346/479/354 313/480/355
f 344/517/385 341/519/383 348/520/388 345/518/387
f 347/521/389 465/522/390 346/479/354 345/518/387
f 348/520/388 350/523/391 347/521/389 345/518/387
f 339/511/382 349/524/392 348/525/388 341/512/383
f 352/526/393 350/523/391 348/520/388 349/527/392
f 351/528/394 462/529/395 347/521/389 350/523/391
f 350/523/391 352/526/393 354/530/396 351/528/394
f 472/531/397 353/532/398 352/533/393 349/524/392
f 355/534/399 352/533/393 353/532/398
f 354/535/396 352/533/393 355/534/399 356/536/400
f 357/537/401 356/536/400 355/534/399 353/532/398
f 357/537/401 359/538/203 358/539/402 356/536/400
f 358/539/402 361/540/403 354/535/396 356/536/400
f 358/539/402 359/538/203 166/541/187 360/542/404
f 358/539/402 360/542/404 362/543/405 361/540/403
f 363/544/406 364/545/407 354/530/396 361/546/403
f 361/546/403 362/547/405 366/548/408 363/544/406
f 364/545/407 363/544/406 365/549/409 368/550/410
f 365/549/409 363/544/406 366/548/408 367/300/216
f 181/277/201 183/283/206 366/551/408 362/543/405
f 366/548/408 183/552/206 187/297/208 367/300/216
f 365/549/409 367/300/216 191/299/215 369/553/411
f 371/554/412 368/550/410 365/549/409 369/553/411
f 191/299/215 193/302/217 370/555/413 369/553/411
f 371/554/412 369/553/411 370/555/413 372/556/414
f 375/557/415 373/558/416 371/554/412 372/556/414
f 373/558/416 374/559/417 368/550/410 371/554/412
f 268/560/299 373/558/416 375/557/415 265/561/296
f 373/558/416 268/560/299 458/562/302 374/559/417
f 259/394/291 265/561/296 375/557/415 376/395/292
f 377/563/418 376/395/292 375/557/415 372/556/414
f 376/395/292 377/563/418 379/564/419 258/392/289
f 372/556/414 370/555/413 378/565/420 377/563/418
f 378/565/420 381/566/421 379/564/419 377/563/418
f 382/567/422 380/568/423 379/569/419 381/570/421
f 379/569/419 380/568/423 256/571/287 258/572/289
f 199/312/223 381/566/421 378/565/420 197/308/220
f 202/317/225 382/567/422 381/570/421 199/314/223
f 380/568/423 382/567/422 383/573/424 386/574/425
f 202/317/225 384/320/227 383/573/424 382/567/422
f 388/575/426 387/576/427 383/573/424 384/320/227
f 408/577/428 386/574/425 383/573/424 385/578/429
f 389/579/430 385/578/429 383/573/424 387/576/427
f 387/576/427 388/575/426 392/580/431 390/581/432
f 387/576/427 390/581/432 391/582/433 389/579/430
f 107/163/117 394/165/119 391/582/433 390/581/432
f 392/580/431 110/164/118 107/163/117 390/581/432
f 392/580/431 120/182/131 112/166/120 110/164/118
f 126/183/132 120/182/131 392/580/431 388/575/426
f 395/583/434 393/584/435 391/582/433 394/165/119
f 391/582/433 393/584/435 403/585/436 389/579/430
f 395/583/434 394/165/119 108/162/116 397/586/70
f 398/587/437 393/588/435 395/589/434 396/590/438
f 63/91/67 396/590/438 395/589/434 397/94/70
f 397/94/70 108/591/116 105/157/113 65/95/71
f 396/590/438 399/592/439 400/119/28 398/587/437
f 61/90/66 399/592/439 396/590/438 63/91/67
f 30/45/34 23/38/27 400/39/28 399/593/439
f 61/90/66 59/89/35 30/594/34 399/592/439
f 401/595/440 398/587/437 400/119/28 75/118/82
f 398/587/437 401/595/440 403/596/436 393/588/435
f 75/116/82 77/115/81 402/597/441 401/598/440
f 403/585/436 401/599/440 402/600/441 404/601/442
f 385/578/429 389/579/430 403/585/436 404/601/442
f 405/602/443 404/601/442 402/600/441 406/603/444
f 408/577/428 385/578/429 404/601/442 405/602/443
f 410/604/445 407/605/446 405/602/443 406/603/444
f 409/606/286 408/577/428 405/602/443 407/605/446
f 386/574/425 408/577/428 409/606/286 254/607/285
f 411/382/281 250/381/280 409/387/286 407/608/446
f 410/604/445 412/609/447 411/610/281 407/605/446
f 412/609/447 414/611/448 249/612/279 411/610/281
f 410/604/445 84/613/90 413/7/6 412/609/447
f 414/611/448 412/609/447 413/7/6 3/6/5
f 414/614/448 3/11/5 416/10/8 415/615/449
f 414/614/448 415/615/449 247/616/276 249/617/279
f 417/618/450 415/615/449 416/10/8 418/619/451
f 415/615/449 417/618/450 245/620/274 247/616/276
f 418/621/451 421/622/452 419/623/453 417/624/450
f 245/375/274 417/624/450 419/623/453 422/376/275
f 421/622/452 437/625/454 420/626/455 419/623/453
f 422/376/275 419/623/453 420/626/455 423/627/456
f 422/376/275 423/627/456 425/628/457 244/374/273
f 420/626/455 435/629/458 424/630/459 423/627/456
f 424/630/459 427/631/460 425/628/457 423/627/456
f 429/632/461 426/633/462 425/628/457 427/631/460
f 425/628/457 426/633/462 242/371/270 244/374/273
f 428/135/98 430/634/463 429/632/461 427/631/460
f 428/135/98 427/631/460 424/630/459 89/131/94
f 222/341/246 431/343/248 429/632/461 430/634/463
f 432/361/263 426/633/462 429/632/461 431/343/248
f 230/350/255 432/361/263 431/343/248 223/342/247
f 432/361/263 235/360/262 242/371/270 426/633/462
f 428/135/98 88/134/97 433/635/464 430/634/463
f 430/634/463 433/635/464 220/338/243 222/341/246
f 91/133/96 434/332/237 433/635/464 88/134/97
f 434/332/237 213/331/236 220/338/243 433/635/464
f 91/133/96 93/136/99 212/145/105 434/332/237
f 86/127/91 89/131/94 424/630/459 435/629/458
f 435/629/458 436/636/465 83/128/92 86/127/91
f 436/636/465 435/629/458 420/626/455 437/625/454
f 9/17/14 12/16/13 83/128/92 436/636/465
f 9/17/14 436/636/465 437/625/454 438/20/15
f 439/637/466 438/20/15 437/625/454 421/622/452
f 441/638/467 10/21/11 438/20/15 439/637/466
f 441/638/467 439/637/466 440/639/468 442/640/469
f 421/622/452 418/621/451 440/639/468 439/637/466
f 442/641/469 445/642/470 443/643/471 441/644/467
f 441/644/467 443/643/471 6/12/9 10/14/11
f 444/645/472 4/9/7 6/12/9 443/643/471
f 446/646/473 444/645/472 443/643/471 445/642/470
f 448/647/474 447/648/475 445/649/470 442/640/469
f 450/650/476 446/646/473 445/642/470 447/651/475
f 448/647/474 456/652/477 449/653/478 447/648/475
f 450/650/476 447/651/475 449/654/478 451/655/479
f 451/655/479 454/656/480 452/657/481 450/650/476
f 446/646/473 450/650/476 452/657/481 453/658/482
f 455/659/483 453/660/482 452/661/481 454/662/480
f 455/659/483 454/662/480 456/652/477 448/647/474
f 454/656/480 451/655/479 449/654/478 456/663/477
f 448/647/474 442/640/469 440/639/468 455/659/483
f 453/660/482 455/659/483 440/639/468 457/664/484
f 457/665/484 444/645/472 446/646/473 453/658/482
f 444/645/472 457/665/484 416/10/8 4/9/7
f 440/666/468 418/619/451 416/10/8 457/665/484
f 12/16/13 14/23/17 413/129/6 83/128/92
f 410/604/445 406/603/444 81/667/86 84/613/90
f 402/597/441 77/115/81 81/122/86 406/668/444
f 388/575/426 384/320/227 203/198/141 126/183/132
f 380/568/423 386/574/425 254/607/285 256/571/287
f 193/302/217 197/308/220 378/565/420 370/555/413
f 459/669/485 374/559/417 458/562/302 460/670/486
f 459/669/485 364/545/407 368/550/410 374/559/417
f 459/669/485 460/670/486 462/529/395 351/528/394
f 459/669/485 351/528/394 354/530/396 364/545/407
f 461/671/487 460/670/486 458/562/302 470/672/488
f 461/671/487 463/673/489 462/529/395 460/670/486
f 463/673/489 465/522/390 347/521/389 462/529/395
f 465/522/390 463/673/489 464/469/347 306/465/345
f 461/674/487 466/675/490 464/676/347 463/677/489
f 306/465/345 308/468/346 346/479/354 465/522/390
f 467/456/339 302/457/340 464/676/347 466/675/490
f 468/678/491 471/423/315 467/456/339 466/675/490
f 468/678/491 466/675/490 461/674/487 470/679/488
f 471/423/315 468/678/491 469/417/309 279/420/312
f 470/679/488 274/413/305 469/417/309 468/678/491
f 471/423/315 280/422/314 301/432/321 467/456/339
f 274/413/305 470/679/488 458/409/302 267/408/301
f 277/418/310 279/420/312 469/417/309 275/416/308
f 177/274/200 181/277/201 362/543/405 360/542/404
f 177/274/200 360/542/404 166/541/187 175/680/198
f 357/537/401 292/681/329 180/682/202 359/538/203
f 292/681/329 357/537/401 353/532/398 296/451/330
f 473/448/334 296/451/330 353/532/398 472/531/397
f 473/448/334 472/531/397 474/505/376 331/502/373
f 475/510/381 335/506/377 474/505/376 472/531/397
f 349/524/392 339/511/382 475/510/381 472/531/397
f 322/489/362 476/492/365 337/508/379 343/515/386
f 343/515/386 317/484/358 319/487/360 322/489/362
f 476/492/365 321/491/364 477/495/368 333/504/375
f 294/445/331 329/446/332 327/463/344 299/453/336
f 480/683/492 478/684/493 290/439/326 288/430/319
f 479/296/214 189/292/211 290/439/326 478/684/493
f 484/685/494 479/296/214 478/684/493 481/686/495
f 482/687/496 481/686/495 478/684/493 480/683/492
f 215/335/240 483/325/230 481/686/495 482/687/496
f 206/324/229 484/685/494 481/686/495 483/325/230
f 206/324/229 200/323/221 196/212/152 484/685/494
f 484/685/494 196/212/152 135/211/151 479/296/214
f 215/335/240 482/687/496 485/688/497 217/334/239
f 480/683/492 487/689/498 485/688/497 482/687/496
f 488/690/499 486/345/250 485/688/497 487/689/498
f 485/688/497 486/345/250 219/336/241 217/334/239
f 282/426/317 488/690/499 487/689/498 284/427/318
f 288/430/319 284/427/318 487/689/498 480/683/492
f 486/345/250 488/690/499 489/691/259 225/346/251
f 489/691/259 488/690/499 282/426/317 270/692/303
f 227/693/252 225/694/251 489/357/259 490/695/500
f 491/696/501 490/695/500 489/357/259 232/351/256
f 262/367/267 233/358/260 489/357/259 264/697/294
f 492/698/502 490/699/500 491/700/501
f 229/348/253 227/347/252 490/699/500 492/698/502
f 491/696/501 232/351/256 229/354/253 492/701/502
f 493/152/109 210/702/233 212/703/105 96/140/103
f 494/704/137 124/195/138 210/328/233 493/705/109
f 493/152/109 100/151/108 495/706/503 494/707/137
f 123/189/135 494/192/137 495/708/503 497/709/504
f 102/154/110 496/710/505 495/706/503 100/151/108
f 495/706/503 496/710/505 498/711/506 497/712/504
f 499/210/150 497/709/504 498/713/506 500/714/507
f 123/189/135 497/709/504 499/210/150 128/190/136
f 139/217/154 133/208/148 499/210/150 500/714/507
f 500/714/507 501/173/127 502/220/157 139/217/154
f 501/173/127 500/714/507 498/713/506 116/174/125
f 115/172/126 140/221/158 502/220/157 501/173/127
f 498/711/506 496/710/505 113/168/122 116/171/125
f 102/154/110 104/155/111 113/168/122 496/710/505
f 503/715/508 504/205/146 130/204/145 195/304/218
f 503/715/508 195/304/218 135/303/151 505/716/509
f 141/223/160 504/205/146 503/715/508 143/224/161
f 503/715/508 505/716/509 145/225/162 143/224/161
f 146/227/164 505/717/509 135/216/151 137/215/153
f 149/230/167 157/718/178 505/717/509 146/227/164
f 148/229/166 145/225/162 505/716/509 157/719/178
f 141/223/160 509/222/159 131/202/144 504/205/146
f 166/260/187 168/262/189 506/270/197 175/271/198
f 506/270/197 173/269/196 175/271/198
f 164/259/186 151/239/172 507/241/174 171/265/192
f 508/268/195 171/265/192 507/241/174 152/240/173
f 152/240/173 159/242/175 161/250/179 508/268/195
f 140/221/158 115/172/126 118/177/128 509/222/159
f 509/222/159 118/177/128 121/179/130 131/202/144
f 68/98/74 65/95/71 105/157/113 98/147/106
f 27/41/30 73/49/38 22/720/24 25/42/31
f 64/721/69 67/99/72 32/50/39 34/51/40
f 64/721/69 34/51/40 37/53/42 44/722/52
f 15/26/19 25/42/31 22/720/24 20/27/20
