# Blender 5.2.0 LTS
# www.blender.org
mtllib terrain-abyss-chancel-object-100.mtl
o terrain-abyss-chancel-object-100
v 0.316853 0.679741 0.019486
v 0.321739 0.679330 0.007099
v 0.316558 0.673235 0.017606
v 0.307867 0.679289 0.031160
v 0.312748 0.682635 0.018939
v 0.317581 0.681892 0.006359
v 0.307233 0.682001 0.016662
v 0.303193 0.682723 0.030748
v 0.296967 0.680370 0.028036
v 0.292646 0.682792 0.042803
v 0.287039 0.679993 0.038576
v 0.283316 0.682418 0.053849
v 0.297032 0.678346 0.042762
v 0.287447 0.676436 0.052711
v 0.298342 0.671351 0.039943
v 0.296631 0.665467 0.035690
v 0.287812 0.670063 0.050327
v 0.308746 0.672965 0.027916
v 0.305986 0.667581 0.022117
v 0.315521 0.666980 0.012575
v 0.308149 0.657096 0.019070
v 0.297087 0.655286 0.033492
v 0.317580 0.657154 0.007968
v 0.310199 0.644253 0.017014
v 0.319666 0.644020 0.006455
v 0.313308 0.633051 0.014315
v 0.298349 0.643161 0.031951
v 0.300766 0.632453 0.030989
v 0.287980 0.642096 0.044639
v 0.292029 0.628725 0.039818
v 0.277278 0.641807 0.055530
v 0.285830 0.654159 0.046563
v 0.277153 0.653640 0.055641
v 0.285667 0.663795 0.047604
v 0.277580 0.662834 0.055220
v 0.280656 0.669046 0.056836
v 0.272045 0.662257 0.061351
v 0.264431 0.661994 0.056521
v 0.272314 0.653293 0.061593
v 0.273007 0.668607 0.061397
v 0.277669 0.673276 0.063249
v 0.269302 0.670244 0.064522
v 0.263308 0.669071 0.055649
v 0.255427 0.671535 0.046009
v 0.260316 0.672355 0.057083
v 0.260750 0.677495 0.055606
v 0.251989 0.674726 0.046960
v 0.252102 0.680673 0.045974
v 0.240226 0.676567 0.032495
v 0.241449 0.683212 0.030967
v 0.228604 0.674096 0.017831
v 0.242159 0.670664 0.032376
v 0.230887 0.669154 0.016708
v 0.244439 0.663992 0.032206
v 0.231346 0.661906 0.016223
v 0.246211 0.653901 0.032934
v 0.257948 0.663111 0.046072
v 0.258706 0.653650 0.047184
v 0.259473 0.642331 0.048474
v 0.265305 0.653232 0.057383
v 0.265698 0.642700 0.058209
v 0.272720 0.642606 0.061798
v 0.264688 0.630631 0.059561
v 0.273188 0.629697 0.063252
v 0.263206 0.617792 0.061667
v 0.256913 0.630827 0.051646
v 0.256647 0.618346 0.051998
v 0.243871 0.630518 0.036849
v 0.246403 0.641669 0.034188
v 0.227831 0.628403 0.020024
v 0.245153 0.618649 0.038541
v 0.230011 0.618422 0.020362
v 0.261282 0.620209 0.022398
v 0.276347 0.618776 0.032359
v 0.272941 0.617240 0.004900
v 0.241082 0.620345 0.010789
v 0.219848 0.618290 -0.008169
v 0.251150 0.618446 -0.002163
v 0.260619 0.620206 -0.018686
v 0.230214 0.617882 -0.018129
v 0.244080 0.617647 -0.033136
v 0.230394 0.624102 -0.019995
v 0.244145 0.624412 -0.034767
v 0.232466 0.629421 -0.019873
v 0.220592 0.624218 -0.009126
v 0.214236 0.624282 0.001664
v 0.221672 0.630342 -0.009766
v 0.214144 0.630108 -0.001530
v 0.225763 0.637739 -0.007821
v 0.227845 0.647953 -0.007955
v 0.236840 0.635467 -0.018234
v 0.219604 0.639493 -0.001577
v 0.220437 0.648993 -0.003006
v 0.220368 0.639561 0.004379
v 0.231134 0.640015 0.016750
v 0.221531 0.650085 0.005217
v 0.222147 0.659352 0.005961
v 0.231574 0.651843 0.016428
v 0.221528 0.666073 0.006211
v 0.220637 0.658368 -0.004204
v 0.221162 0.665634 -0.004862
v 0.228349 0.658103 -0.010831
v 0.229708 0.666976 -0.012435
v 0.239292 0.657872 -0.021990
v 0.239993 0.668257 -0.024251
v 0.252789 0.656716 -0.036101
v 0.237383 0.645938 -0.020561
v 0.251255 0.645188 -0.034911
v 0.250153 0.635358 -0.033234
v 0.263622 0.645205 -0.045879
v 0.261534 0.635676 -0.045402
v 0.269202 0.645648 -0.053272
v 0.264393 0.655666 -0.047603
v 0.270305 0.655846 -0.054329
v 0.264185 0.664482 -0.049410
v 0.262827 0.671443 -0.052468
v 0.270806 0.664050 -0.055448
v 0.253701 0.667223 -0.037688
v 0.252461 0.674029 -0.041538
v 0.253883 0.680067 -0.043106
v 0.239366 0.674372 -0.027571
v 0.229702 0.672911 -0.014309
v 0.240298 0.680796 -0.029123
v 0.229973 0.678738 -0.015284
v 0.244309 0.683289 -0.027443
v 0.232753 0.683147 -0.013560
v 0.250723 0.680930 -0.023456
v 0.259211 0.682374 -0.039912
v 0.263699 0.680224 -0.036718
v 0.274176 0.681268 -0.045889
v 0.276408 0.679563 -0.041779
v 0.287626 0.683373 -0.039749
v 0.280990 0.677299 -0.054264
v 0.265429 0.677459 -0.053022
v 0.273359 0.673829 -0.060181
v 0.272695 0.670232 -0.057283
v 0.281360 0.670174 -0.054023
v 0.279107 0.665010 -0.052486
v 0.289719 0.673122 -0.046484
v 0.299421 0.674995 -0.036044
v 0.285374 0.667424 -0.044339
v 0.290211 0.679943 -0.045491
v 0.300588 0.681035 -0.034513
v 0.309712 0.680462 -0.021758
v 0.297435 0.683308 -0.029751
v 0.305699 0.683193 -0.018204
v 0.294377 0.680636 -0.025394
v 0.286574 0.680677 -0.035485
v 0.302523 0.680422 -0.015261
v 0.292421 0.673122 -0.021460
v 0.300844 0.674575 -0.012229
v 0.284224 0.674501 -0.031097
v 0.287181 0.670966 -0.013520
v 0.280859 0.674266 -0.007597
v 0.295843 0.673987 -0.005258
v 0.277317 0.670909 -0.023249
v 0.268881 0.674757 -0.032030
v 0.269365 0.666809 -0.013300
v 0.266347 0.665835 0.004452
v 0.257238 0.673145 -0.019595
v 0.249460 0.674195 -0.004002
v 0.240184 0.671399 0.004319
v 0.239218 0.680849 -0.010598
v 0.231641 0.680263 -0.001239
v 0.222535 0.680873 0.004813
v 0.224593 0.680038 -0.004594
v 0.220009 0.678377 0.005132
v 0.222047 0.675993 -0.005900
v 0.221595 0.671172 -0.005793
v 0.219654 0.675502 0.005814
v 0.229496 0.679042 0.016798
v 0.220555 0.670986 0.006219
v 0.232631 0.682200 0.014390
v 0.236921 0.677354 0.010002
v 0.245344 0.682530 0.027004
v 0.247693 0.675377 0.023615
v 0.256107 0.682158 0.041348
v 0.263759 0.681338 0.051834
v 0.259316 0.675845 0.037574
v 0.265112 0.668976 0.032033
v 0.267821 0.679103 0.046851
v 0.272656 0.681948 0.054063
v 0.274196 0.672780 0.043196
v 0.278308 0.680737 0.046279
v 0.283014 0.671535 0.035700
v 0.293466 0.672603 0.026769
v 0.274453 0.668378 0.024068
v 0.285902 0.671223 0.019278
v 0.278734 0.673515 0.006803
v 0.298068 0.671406 0.012721
v 0.305955 0.672149 0.004892
v 0.303673 0.675101 0.015307
v 0.292303 0.675447 0.007194
v 0.301275 0.672824 0.000087
v 0.290218 0.680428 0.001901
v 0.306623 0.675632 -0.003650
v 0.308935 0.676002 0.004690
v 0.309749 0.680571 -0.004975
v 0.314064 0.682356 -0.007312
v 0.311979 0.681111 0.005411
v 0.318663 0.679591 -0.009329
v 0.318522 0.672961 -0.009818
v 0.322321 0.673540 0.006865
v 0.316030 0.665971 -0.009597
v 0.309143 0.674425 -0.022294
v 0.304769 0.668534 -0.021606
v 0.301342 0.656771 -0.023921
v 0.293774 0.669254 -0.034155
v 0.290801 0.657848 -0.036498
v 0.283443 0.657509 -0.046478
v 0.288689 0.644928 -0.040478
v 0.281040 0.645848 -0.048746
v 0.298869 0.643199 -0.027016
v 0.286199 0.634498 -0.043211
v 0.296677 0.632259 -0.029756
v 0.288354 0.627000 -0.047363
v 0.279677 0.635868 -0.050991
v 0.280337 0.628412 -0.055387
v 0.273447 0.636434 -0.055952
v 0.268016 0.635781 -0.052277
v 0.275857 0.645913 -0.054241
v 0.272503 0.628611 -0.057704
v 0.277925 0.616915 -0.060387
v 0.265743 0.625587 -0.059519
v 0.266196 0.629063 -0.052800
v 0.262633 0.626409 -0.055004
v 0.258722 0.628984 -0.045638
v 0.255956 0.625276 -0.047215
v 0.246374 0.629763 -0.034523
v 0.256594 0.617660 -0.046185
v 0.262889 0.617433 -0.053963
v 0.287036 0.617666 -0.047490
v 0.297273 0.617771 -0.035662
v 0.281529 0.617355 -0.055947
v 0.282230 0.619271 -0.005452
v 0.310405 0.617753 -0.020098
v 0.298941 0.625585 -0.034818
v 0.312397 0.624378 -0.018974
v 0.309722 0.630665 -0.012728
v 0.329291 0.623456 -0.002506
v 0.339478 0.621034 -0.010985
v 0.331447 0.621768 0.002877
v 0.343271 0.622029 0.001057
v 0.330554 0.617817 0.000516
v 0.322852 0.631502 -0.001338
v 0.322698 0.632828 0.005871
v 0.322967 0.643091 -0.001298
v 0.332350 0.627582 -0.009029
v 0.334309 0.630582 -0.012421
v 0.348525 0.619110 -0.026914
v 0.330375 0.628712 0.004795
v 0.335163 0.626086 0.013956
v 0.323781 0.625069 0.009890
v 0.333038 0.632257 0.003345
v 0.336176 0.636284 0.001760
v 0.336693 0.631317 0.013379
v 0.343701 0.631575 0.022250
v 0.339740 0.636703 0.011423
v 0.346610 0.636860 0.019639
v 0.340224 0.643891 0.010573
v 0.336737 0.643301 -0.000027
v 0.340984 0.651527 0.009695
v 0.347529 0.644024 0.018988
v 0.348482 0.651561 0.018151
v 0.358862 0.643900 0.024427
v 0.357601 0.636668 0.025125
v 0.374003 0.642956 0.023604
v 0.359831 0.651351 0.023641
v 0.374558 0.650248 0.022233
v 0.360949 0.659685 0.021405
v 0.350032 0.660198 0.016348
v 0.363209 0.670722 0.015681
v 0.374864 0.658660 0.019809
v 0.374026 0.669911 0.014415
v 0.386346 0.657167 0.011056
v 0.391527 0.655613 -0.003583
v 0.387357 0.648624 0.012968
v 0.383161 0.668812 0.007268
v 0.376853 0.680590 0.000757
v 0.387785 0.667628 -0.004498
v 0.385019 0.666533 -0.016085
v 0.379226 0.679893 -0.006207
v 0.377597 0.679197 -0.013163
v 0.372465 0.690042 -0.007632
v 0.371895 0.690455 -0.003907
v 0.371647 0.689983 -0.011342
v 0.370876 0.697591 -0.008785
v 0.370148 0.697510 -0.011076
v 0.371035 0.698472 -0.006221
v 0.371623 0.707524 -0.010151
v 0.372980 0.707002 -0.011001
v 0.370119 0.703145 -0.011743
v 0.371865 0.705773 -0.007634
v 0.373282 0.707369 -0.010837
v 0.367851 0.703473 -0.004487
v 0.370916 0.707457 -0.011072
v 0.370916 0.707457 -0.011072
v 0.362827 0.703422 -0.007380
v 0.363033 0.706034 -0.009796
v 0.360462 0.692025 -0.004091
v 0.359407 0.691728 -0.007178
v 0.354065 0.681455 0.000310
v 0.363419 0.692382 -0.001650
v 0.366065 0.691423 -0.000659
v 0.358751 0.681660 0.004913
v 0.365123 0.681409 0.006997
v 0.353840 0.671102 0.012030
v 0.347316 0.671097 0.004999
v 0.344761 0.670306 -0.004836
v 0.342642 0.660278 0.008205
v 0.339341 0.659656 -0.002654
v 0.337484 0.651060 -0.001364
v 0.341921 0.658146 -0.016281
v 0.340094 0.649541 -0.015484
v 0.351644 0.655932 -0.027746
v 0.346599 0.669365 -0.015644
v 0.354267 0.680537 -0.012772
v 0.354322 0.667968 -0.024390
v 0.359106 0.680167 -0.017949
v 0.365568 0.666775 -0.027695
v 0.365781 0.679645 -0.020296
v 0.377096 0.666133 -0.024418
v 0.366315 0.654489 -0.031827
v 0.366244 0.645715 -0.032325
v 0.379525 0.654272 -0.027559
v 0.380402 0.645416 -0.027979
v 0.388678 0.654451 -0.017550
v 0.389667 0.645719 -0.017541
v 0.389816 0.637627 -0.017035
v 0.392790 0.646916 -0.002775
v 0.393222 0.639070 -0.002250
v 0.393480 0.631863 -0.001495
v 0.387468 0.641158 0.013747
v 0.387525 0.633954 0.014456
v 0.373160 0.635787 0.024853
v 0.390035 0.628784 0.016562
v 0.396384 0.626188 -0.000918
v 0.390661 0.623566 0.017627
v 0.373398 0.631139 0.028488
v 0.372973 0.626028 0.030159
v 0.355571 0.631651 0.028482
v 0.354278 0.626573 0.029697
v 0.354583 0.624182 0.026324
v 0.342654 0.626295 0.023150
v 0.344572 0.623950 0.020224
v 0.336108 0.623508 0.012613
v 0.348442 0.623146 0.013901
v 0.352998 0.622134 0.006096
v 0.340039 0.622784 0.007202
v 0.356560 0.623372 0.019661
v 0.360247 0.622352 0.011502
v 0.367196 0.622991 0.021072
v 0.379764 0.621304 0.010279
v 0.366053 0.622379 0.014484
v 0.371058 0.623405 0.027026
v 0.387029 0.621414 0.014889
v 0.391435 0.619594 -0.001380
v 0.384202 0.620107 0.000359
v 0.386066 0.618758 -0.012202
v 0.397061 0.620889 -0.001105
v 0.391897 0.618089 -0.015888
v 0.381613 0.617573 -0.026636
v 0.392913 0.623810 -0.016842
v 0.389908 0.630102 -0.016288
v 0.382433 0.622857 -0.028938
v 0.367006 0.623174 -0.034630
v 0.380537 0.629540 -0.027045
v 0.366617 0.629914 -0.031873
v 0.380535 0.636840 -0.027573
v 0.366192 0.637212 -0.032174
v 0.349626 0.638958 -0.028153
v 0.338557 0.641568 -0.014405
v 0.349328 0.631976 -0.027862
v 0.350445 0.647328 -0.028283
v 0.337278 0.634973 -0.013006
v 0.347401 0.625517 -0.029572
v 0.366817 0.617712 -0.032633
v 0.365888 0.618399 -0.025935
v 0.364284 0.619465 -0.015699
v 0.352120 0.619261 -0.023641
v 0.377811 0.618374 -0.020282
v 0.372849 0.619512 -0.011065
v 0.366837 0.620971 0.000835
v 0.379667 0.619769 -0.005191
v 0.373168 0.621148 0.005594
v 0.358895 0.620849 -0.004108
v 0.349464 0.620831 -0.008714
v 0.355910 0.619730 -0.017006
v 0.372714 0.679135 -0.018397
v 0.369265 0.690310 -0.013750
v 0.365635 0.691263 -0.013916
v 0.368636 0.699245 -0.012153
v 0.368214 0.702464 -0.012317
v 0.364252 0.705141 -0.012437
v 0.362695 0.691317 -0.012556
v 0.359249 0.688236 -0.010744
v 0.352322 0.680937 -0.006031
v 0.371804 0.681137 0.005624
v 0.369503 0.690970 -0.001533
v 0.369370 0.699510 -0.004679
v 0.369837 0.704282 -0.005272
v 0.367490 0.699249 -0.003907
v 0.371721 0.705462 -0.011660
v 0.313481 0.617792 0.020781
v 0.306487 0.626084 0.029829
v 0.293031 0.617852 0.044923
v 0.275451 0.617861 0.068030
v 0.278879 0.629611 0.057383
v 0.265393 0.617905 0.068090
v 0.329415 0.617574 0.004745
v 0.290095 0.619794 0.011360
v 0.296012 0.617806 -0.002021
v 0.323273 0.655616 -0.001163
v 0.311651 0.642074 -0.011897
v 0.313229 0.655202 -0.009908
v 0.322955 0.665923 0.003605
v 0.266694 0.616998 -0.059682
v 0.277688 0.656578 -0.052865
v 0.275321 0.680887 0.059227
v 0.267734 0.680431 0.059804
v 0.269414 0.680560 0.065077
v 0.267109 0.675420 0.065019
v 0.271390 0.676614 0.064744
v 0.276292 0.678369 0.061934
v 0.274135 0.672342 0.066448
v 0.280564 0.679233 0.059377
v 0.281114 0.674866 0.058698
v 0.254128 0.669648 0.016414
v 0.277278 0.676042 -0.037400
v 0.212133 0.617755 0.000119
vn 0.8890 0.4467 0.1002
vn 0.2578 0.9662 0.0056
vn 0.2335 0.9633 0.1324
vn 0.7987 0.3871 0.4607
vn 0.7795 -0.3405 0.5257
vn 0.9780 -0.1265 0.1658
vn 0.7276 0.3079 0.6130
vn 0.7189 -0.4218 0.5525
vn 0.1819 0.9643 0.1927
vn -0.4987 0.8640 -0.0695
vn -0.4675 0.8354 -0.2891
vn -0.5020 0.7556 -0.4208
vn 0.2380 0.9425 0.2348
vn -0.4347 0.7708 -0.4657
vn 0.7099 0.2302 0.6656
vn -0.2589 0.8569 -0.4457
vn 0.3468 0.8616 0.3706
vn 0.7172 0.0809 0.6921
vn 0.6790 -0.3564 0.6418
vn 0.7096 -0.3812 0.5925
vn 0.7254 -0.3832 0.5718
vn 0.7459 -0.3409 0.5722
vn 0.7026 -0.2874 0.6509
vn 0.7415 -0.3035 0.5984
vn 0.7800 -0.0235 0.6254
vn 0.7698 -0.0301 0.6376
vn 0.7926 -0.0680 0.6060
vn 0.7704 0.0402 0.6363
vn 0.7631 0.0581 0.6437
vn 0.8437 0.0679 0.5326
vn 0.7476 0.4430 0.4947
vn 0.7048 0.3072 0.6395
vn 0.7065 0.2487 0.6626
vn 0.7510 0.0438 0.6588
vn 0.7047 0.2281 0.6718
vn 0.7346 -0.0234 0.6781
vn 0.7601 0.0697 0.6460
vn 0.7149 0.2362 0.6581
vn 0.7454 0.0044 0.6666
vn 0.6914 -0.1939 0.6960
vn 0.6388 -0.3911 0.6625
vn 0.1901 -0.5891 0.7854
vn 0.0762 -0.0559 0.9955
vn 0.1764 0.0270 0.9839
vn -0.6941 -0.0210 0.7196
vn -0.6912 0.0093 0.7226
vn -0.6531 -0.4915 0.5761
vn 0.6945 -0.0873 0.7142
vn 0.5974 -0.1681 0.7841
vn 0.3019 -0.2300 0.9252
vn -0.2970 -0.5569 0.7757
vn -0.7115 -0.4102 0.5705
vn -0.7156 -0.4410 0.5417
vn -0.7802 -0.1076 0.6162
vn -0.7599 -0.1924 0.6209
vn -0.6404 0.4798 0.5997
vn -0.5214 0.6720 0.5259
vn -0.5942 0.1723 0.7856
vn -0.5105 0.7658 0.3911
vn -0.7792 -0.0638 0.6235
vn -0.7211 -0.3111 0.6190
vn -0.6914 0.5305 0.4903
vn -0.7785 -0.0737 0.6233
vn -0.7367 -0.2386 0.6327
vn -0.7512 -0.0804 0.6551
vn -0.7412 -0.1271 0.6592
vn -0.7473 0.0030 0.6645
vn -0.7515 0.0107 0.6596
vn -0.7950 0.0011 0.6066
vn -0.7377 0.1894 0.6480
vn -0.7746 0.1510 0.6142
vn -0.6442 0.0969 0.7587
vn 0.2162 0.0968 0.9715
vn -0.6536 0.2205 0.7240
vn 0.0954 0.3411 0.9352
vn -0.7544 0.1736 0.6331
vn -0.5570 -0.6547 0.5110
vn -0.2540 -0.4100 0.8760
vn -0.5704 -0.6987 0.4317
vn -0.7416 0.1634 0.6507
vn -0.5302 -0.7283 0.4341
vn -0.7541 0.1824 0.6309
vn -0.7641 0.1354 0.6307
vn -0.4858 -0.7594 0.4329
vn -0.0175 -0.9995 -0.0262
vn -0.0082 -0.9999 0.0080
vn 0.0211 -0.9996 0.0166
vn -0.0154 -0.9998 0.0103
vn -0.0046 -1.0000 -0.0012
vn -0.0065 -0.9996 0.0272
vn -0.8030 -0.5920 -0.0685
vn -0.5551 -0.6883 -0.4671
vn -0.4639 -0.7784 -0.4229
vn 0.0208 -0.9998 -0.0006
vn -0.0115 -0.9998 -0.0163
vn -0.4510 -0.7835 -0.4275
vn -0.7187 0.1069 -0.6870
vn -0.7227 0.0397 -0.6900
vn -0.7627 0.0179 -0.6465
vn -0.6463 0.3946 -0.6531
vn -0.6388 0.4544 -0.6208
vn -0.6910 0.2667 -0.6719
vn -0.9856 0.1230 0.1161
vn -0.9370 0.2523 -0.2416
vn -0.9159 0.2801 -0.2876
vn -0.6568 0.2619 -0.7071
vn -0.6891 0.2829 -0.6671
vn -0.9247 0.0107 -0.3806
vn -0.6885 -0.0364 -0.7243
vn -0.7399 -0.0220 -0.6723
vn -0.8761 0.2087 0.4347
vn -0.9082 0.0475 0.4157
vn -0.9071 -0.0132 0.4208
vn -0.9256 -0.0383 -0.3766
vn -0.9184 -0.1202 0.3771
vn -0.9205 -0.0606 -0.3861
vn -0.6942 -0.0642 -0.7169
vn -0.7033 -0.1309 -0.6988
vn -0.7185 -0.2220 -0.6592
vn -0.7309 -0.0350 -0.6816
vn -0.7129 -0.2653 -0.6491
vn -0.7115 -0.0414 -0.7015
vn -0.7094 -0.0046 -0.7048
vn -0.6957 0.2391 -0.6774
vn -0.7312 0.0207 -0.6818
vn -0.7030 0.1972 -0.6833
vn -0.7288 -0.0583 -0.6823
vn -0.5125 0.0472 -0.8574
vn -0.6197 0.1764 -0.7648
vn -0.3345 -0.0533 -0.9409
vn -0.6887 -0.2234 -0.6898
vn -0.2155 -0.2332 -0.9482
vn -0.0631 -0.2852 -0.9564
vn -0.6505 -0.1713 -0.7400
vn -0.7164 -0.1981 -0.6690
vn -0.7416 -0.2099 -0.6371
vn -0.4054 0.5625 -0.7206
vn -0.5254 0.5647 -0.6364
vn -0.6807 0.4459 -0.5812
vn -0.7442 -0.1364 -0.6539
vn -0.7592 0.3464 -0.5510
vn 0.0110 0.9949 -0.1005
vn -0.1007 0.9896 -0.1023
vn -0.2748 0.9570 -0.0925
vn 0.2892 0.9035 0.3162
vn 0.3707 0.8779 0.3032
vn 0.2962 0.8698 0.3947
vn -0.0023 0.9914 -0.1310
vn -0.1170 0.8460 0.5203
vn -0.4567 0.7395 0.4946
vn -0.0635 0.9979 -0.0150
vn 0.5092 0.5712 -0.6438
vn 0.3913 0.5172 -0.7612
vn 0.0028 0.2796 -0.9601
vn 0.5971 -0.3315 -0.7305
vn 0.5644 -0.2800 -0.7766
vn 0.7196 -0.3074 -0.6227
vn 0.7551 -0.3576 -0.5496
vn 0.6500 0.5373 -0.5374
vn 0.7349 -0.3153 -0.6004
vn 0.7205 -0.3970 -0.5686
vn -0.0146 0.9997 0.0180
vn 0.7013 0.5243 -0.4830
vn 0.7543 -0.2587 -0.6034
vn 0.0048 0.9993 0.0376
vn -0.5410 0.7078 0.4542
vn -0.5554 0.7163 0.4224
vn -0.3474 0.8120 0.4690
vn -0.4604 0.8109 0.3613
vn -0.5173 0.7935 0.3205
vn -0.1469 0.9808 -0.1283
vn 0.0691 0.9925 -0.1009
vn -0.0507 0.9758 0.2125
vn 0.0054 0.9940 0.1096
vn -0.2751 0.9463 -0.1696
vn 0.0445 0.9989 -0.0170
vn 0.4029 0.8529 0.3322
vn 0.2416 0.8519 0.4646
vn -0.0968 0.8193 0.5651
vn 0.3617 0.8924 0.2699
vn -0.0594 0.9964 0.0613
vn -0.3700 0.9133 0.1702
vn 0.3969 0.9130 0.0947
vn 0.3163 0.9360 -0.1544
vn 0.2158 0.9607 0.1746
vn -0.5391 0.8182 -0.2000
vn 0.4643 0.8412 -0.2772
vn 0.0429 0.9840 -0.1729
vn -0.6321 0.7749 -0.0054
vn -0.8848 0.2108 -0.4156
vn -0.9396 0.2718 0.2081
vn -0.8969 -0.0814 -0.4348
vn -0.9481 -0.0943 0.3035
vn -0.0119 0.9949 -0.0998
vn 0.3007 0.9188 -0.2558
vn 0.5538 0.7122 -0.4313
vn 0.2491 0.9563 -0.1528
vn 0.4870 0.7271 -0.4840
vn -0.1119 0.9908 0.0760
vn 0.1692 0.8537 -0.4925
vn 0.2190 0.9211 -0.3218
vn -0.1016 0.8111 -0.5760
vn -0.3520 0.8839 0.3080
vn -0.0690 0.9864 -0.1489
vn -0.3927 0.8120 -0.4317
vn -0.1355 0.9893 -0.0544
vn -0.4944 0.7745 -0.3946
vn -0.2097 0.9748 0.0766
vn -0.1417 0.9899 -0.0103
vn 0.1074 0.9660 0.2352
vn -0.6287 0.6708 -0.3933
vn -0.3541 0.9349 0.0223
vn 0.0383 0.9819 0.1852
vn -0.7437 0.6665 -0.0508
vn -0.6084 0.7376 0.2929
vn -0.5513 0.7955 0.2514
vn 0.1372 0.9904 -0.0183
vn 0.8081 0.4843 -0.3353
vn 0.8833 -0.1020 -0.4575
vn 0.8009 -0.1338 -0.5836
vn 0.9857 -0.1488 0.0797
vn 0.7042 -0.3341 -0.6266
vn 0.7372 -0.0165 -0.6754
vn 0.7600 -0.0404 -0.6487
vn 0.7781 -0.0199 -0.6278
vn 0.7708 -0.0277 -0.6365
vn 0.7763 0.0111 -0.6302
vn 0.7366 0.0050 -0.6763
vn 0.7797 -0.0063 -0.6262
vn 0.6694 0.2137 -0.7115
vn 0.7570 0.2586 -0.6001
vn 0.7617 0.3029 -0.5728
vn 0.7601 0.2518 -0.5990
vn 0.7595 0.2298 -0.6085
vn 0.6072 0.2723 -0.7464
vn 0.0208 0.3864 -0.9221
vn 0.0322 0.2085 -0.9775
vn 0.3308 0.0263 -0.9433
vn -0.5478 0.5703 -0.6121
vn -0.4452 0.3782 -0.8116
vn 0.2865 -0.5516 -0.7834
vn -0.3426 -0.6350 -0.6924
vn 0.5080 -0.6584 -0.5554
vn -0.6826 0.4451 -0.5797
vn -0.7147 0.2437 -0.6556
vn -0.6188 0.5060 -0.6009
vn -0.5362 -0.7584 -0.3704
vn -0.4809 -0.7819 -0.3966
vn 0.5209 -0.7472 -0.4128
vn 0.4880 -0.7564 -0.4356
vn 0.4673 -0.7632 -0.4462
vn -0.0248 -0.9996 0.0129
vn 0.7147 0.2754 -0.6430
vn 0.6949 0.3233 -0.6423
vn 0.6950 0.5513 -0.4615
vn 0.2689 -0.5713 -0.7755
vn 0.7059 -0.6554 -0.2685
vn -0.3139 -0.9461 -0.0794
vn -0.0538 -0.9935 0.1000
vn -0.0470 -0.9967 0.0659
vn -0.8632 -0.0338 -0.5037
vn 0.6313 -0.6864 0.3611
vn 0.5185 -0.8380 0.1699
vn -0.0416 -0.9956 0.0844
vn -0.2990 0.8657 0.4014
vn 0.9668 0.0419 -0.2521
vn 0.7224 -0.0146 -0.6913
vn -0.5008 -0.7031 -0.5048
vn -0.1574 -0.9870 0.0314
vn -0.8710 0.2227 -0.4378
vn -0.5494 0.0043 -0.8356
vn -0.8268 0.5512 0.1123
vn 0.5441 0.1935 0.8164
vn -0.7427 0.4769 0.4701
vn -0.7094 0.1710 0.6838
vn -0.2979 -0.8276 0.4758
vn -0.9202 0.3781 0.1013
vn -0.8697 0.2853 -0.4029
vn -0.8010 0.3837 0.4596
vn -0.6069 -0.2776 0.7447
vn -0.5790 0.4337 0.6905
vn -0.5716 0.3910 0.7214
vn -0.6011 0.1527 0.7844
vn -0.8622 0.1432 0.4858
vn -0.9887 0.1250 0.0827
vn -0.8546 0.1993 0.4795
vn -0.9837 0.1719 0.0521
vn -0.5854 0.2121 0.7825
vn -0.1889 0.3938 0.8996
vn -0.1867 0.1454 0.9716
vn -0.1616 0.2106 0.9641
vn 0.3244 0.3678 0.8715
vn 0.3454 0.1139 0.9315
vn 0.3630 0.1836 0.9135
vn 0.3781 0.3333 0.8637
vn -0.1278 0.3662 0.9217
vn -0.5431 0.3696 0.7539
vn -0.0713 0.5463 0.8345
vn -0.4605 0.5523 0.6949
vn 0.3744 0.5180 0.7690
vn 0.8025 0.1433 0.5792
vn 0.7901 0.2830 0.5437
vn 0.7385 0.4755 0.4780
vn 0.9722 0.2304 0.0416
vn 0.8994 0.4365 0.0215
vn 0.9940 0.0950 0.0551
vn 0.7138 0.5787 0.3944
vn 0.3970 0.6082 0.6874
vn 0.8339 0.5517 -0.0144
vn 0.8650 0.2026 -0.4591
vn 0.7956 0.4095 -0.4465
vn 0.7451 0.5119 -0.4276
vn 0.8138 0.3563 -0.4591
vn 0.9261 0.3711 -0.0688
vn 0.8275 0.4171 0.3758
vn 0.9820 0.0494 -0.1821
vn 0.9345 0.1003 0.3415
vn 0.8233 0.0805 -0.5618
vn 0.5931 -0.0327 -0.8045
vn 0.5780 -0.8044 -0.1371
vn 0.6795 0.6352 0.3672
vn 0.8830 -0.4145 -0.2204
vn -0.0822 0.8241 0.5604
vn -0.4328 0.7228 -0.5388
vn 0.7796 -0.3786 -0.4989
vn -0.0844 0.5420 0.8361
vn -0.6446 0.5211 0.5595
vn 0.2878 0.5780 0.7636
vn -0.0000 -0.0000 1.0000
vn -0.9764 0.2153 0.0168
vn 0.9760 -0.2151 -0.0335
vn -0.0137 0.9130 -0.4077
vn -0.5466 0.8007 -0.2452
vn -0.3385 0.4782 0.8104
vn -0.7388 0.4824 0.4706
vn -0.9096 0.3976 -0.1208
vn -0.8150 0.5775 -0.0469
vn -0.7025 0.6057 0.3736
vn -0.4035 0.6220 0.6711
vn 0.0707 0.4885 0.8697
vn 0.1819 0.2682 0.9460
vn -0.0152 0.6215 0.7832
vn -0.7420 0.5433 0.3928
vn -0.8182 0.3601 0.4482
vn -0.8600 0.5101 -0.0151
vn -0.9452 0.3254 0.0250
vn -0.8560 0.2643 -0.4443
vn -0.8953 0.1250 -0.4275
vn -0.7678 0.4702 -0.4351
vn -0.5028 0.2110 -0.8382
vn -0.5298 0.0672 -0.8455
vn -0.4506 0.4283 -0.7832
vn -0.7115 0.5516 -0.4352
vn -0.4413 0.5251 -0.7277
vn 0.0322 0.1896 -0.9813
vn 0.0202 0.4055 -0.9139
vn 0.0023 0.4943 -0.8693
vn 0.4558 0.4856 -0.7460
vn 0.4841 0.4009 -0.7778
vn 0.5237 0.1949 -0.8293
vn 0.0278 0.0263 -0.9993
vn 0.5434 0.0262 -0.8391
vn 0.8886 0.0522 -0.4558
vn 0.8892 -0.0143 -0.4573
vn 0.5489 -0.0389 -0.8350
vn 0.9980 0.0354 0.0528
vn 0.8028 0.0759 0.5914
vn 0.9632 0.2675 0.0254
vn 0.8596 0.2090 -0.4662
vn 0.7775 0.3180 0.5425
vn 0.7744 0.3519 0.5258
vn 0.9649 0.2615 0.0220
vn 0.3085 0.4158 0.8555
vn 0.6970 -0.4085 0.5893
vn 0.8289 -0.5524 0.0881
vn 0.2523 -0.3094 0.9169
vn -0.2095 0.4394 0.8735
vn -0.2591 -0.2858 0.9226
vn -0.1255 -0.9159 0.3812
vn 0.0301 -0.9216 0.3871
vn -0.2368 -0.9139 0.3299
vn -0.0425 -0.9938 0.1032
vn -0.0468 -0.9936 0.1033
vn -0.0467 -0.9938 0.1010
vn -0.0439 -0.9940 0.1007
vn -0.0476 -0.9938 0.1006
vn -0.0489 -0.9936 0.1017
vn -0.0473 -0.9939 0.0993
vn 0.1396 -0.9593 0.2456
vn -0.0470 -0.9939 0.0994
vn 0.0901 -0.9870 0.1330
vn -0.0470 -0.9940 0.0991
vn -0.0129 -0.9949 0.1002
vn -0.0473 -0.9940 0.0988
vn 0.6078 -0.7500 -0.2610
vn 0.8742 0.1099 -0.4730
vn 0.3447 -0.8164 -0.4633
vn 0.5628 0.0051 -0.8265
vn -0.0486 -0.9941 0.0969
vn 0.5462 0.1779 -0.8185
vn -0.0075 -0.8097 -0.5868
vn 0.0524 -0.0286 -0.9982
vn 0.0612 0.1716 -0.9833
vn 0.0298 -0.0317 -0.9991
vn -0.4967 0.1896 -0.8469
vn -0.5370 0.0077 -0.8436
vn -0.9107 0.0765 -0.4058
vn -0.0470 -0.9943 0.0962
vn -0.0473 -0.9941 0.0977
vn -0.0466 -0.9942 0.0969
vn -0.0453 -0.9943 0.0967
vn -0.0453 -0.9942 0.0980
vn -0.0465 -0.9940 0.0989
vn -0.1405 0.3150 -0.9386
vn 0.4617 0.3415 -0.8186
vn -0.1130 0.3851 -0.9159
vn 0.3771 0.1078 -0.9199
vn 0.2526 0.3152 -0.9148
vn -0.6560 0.3021 -0.6916
vn -0.7506 0.4593 -0.4750
vn 0.4771 0.4636 0.7466
vn 0.5449 0.1658 0.8219
vn 0.7143 0.2509 0.6534
vn 0.4849 -0.7452 0.4578
vn 0.5930 -0.6219 0.5115
vn 0.4642 -0.4597 0.7571
vn 0.9853 -0.0043 -0.1710
vn 0.4990 -0.0424 -0.8656
vn 0.1477 0.9172 0.3702
vn -0.1658 0.6982 0.6964
vn 0.0433 0.3502 0.9357
vn 0.4732 0.4734 0.7429
vn 0.5279 0.4765 0.7031
vt 0.365056 0.346908
vt 0.363122 0.349522
vt 0.357748 0.345198
vt 0.360049 0.342663
vt 0.362311 0.339060
vt 0.367919 0.343246
vt 0.353202 0.338511
vt 0.356323 0.335483
vt 0.350165 0.340671
vt 0.359502 0.352026
vt 0.354670 0.347755
vt 0.346871 0.344270
vt 0.342062 0.336710
vt 0.338791 0.340559
vt 0.344674 0.333702
vt 0.332055 0.337485
vt 0.334196 0.332392
vt 0.337157 0.329176
vt 0.339016 0.325361
vt 0.347594 0.329922
vt 0.358627 0.331095
vt 0.349080 0.325939
vt 0.339540 0.320885
vt 0.365413 0.335257
vt 0.350523 0.319892
vt 0.360591 0.324903
vt 0.368588 0.330158
vt 0.350589 0.312286
vt 0.362214 0.316573
vt 0.369458 0.321375
vt 0.369888 0.313565
vt 0.364024 0.310657
vt 0.351637 0.306894
vt 0.340881 0.309126
vt 0.342028 0.301150
vt 0.339614 0.315596
vt 0.331486 0.307767
vt 0.330838 0.301936
vt 0.331541 0.313854
vt 0.331616 0.318790
vt 0.332960 0.322619
vt 0.326148 0.321038
vt 0.325597 0.317603
vt 0.326251 0.312790
vt 0.318454 0.319180
vt 0.319109 0.314021
vt 0.317418 0.323581
vt 0.332755 0.325701
vt 0.329220 0.325201
vt 0.326555 0.324517
vt 0.323932 0.324130
vt 0.317907 0.325475
vt 0.311014 0.328301
vt 0.311532 0.322504
vt 0.311069 0.331711
vt 0.317938 0.330266
vt 0.311864 0.336024
vt 0.322837 0.327098
vt 0.303387 0.342185
vt 0.301696 0.338215
vt 0.301238 0.333744
vt 0.293987 0.347297
vt 0.292973 0.344016
vt 0.292058 0.340946
vt 0.292057 0.336500
vt 0.301470 0.329022
vt 0.300551 0.322848
vt 0.292252 0.327352
vt 0.311743 0.316651
vt 0.301422 0.313267
vt 0.312037 0.309283
vt 0.319168 0.308312
vt 0.324884 0.307949
vt 0.318656 0.302624
vt 0.324617 0.302425
vt 0.312527 0.302101
vt 0.319226 0.297446
vt 0.323938 0.297975
vt 0.314314 0.295651
vt 0.303386 0.303152
vt 0.307889 0.294886
vt 0.291744 0.319862
vt 0.293510 0.310495
vt 0.296680 0.301398
vt 0.322679 0.288915
vt 0.314026 0.288471
vt 0.298334 0.292598
vt 0.332968 0.281558
vt 0.317915 0.282682
vt 0.303480 0.286871
vt 0.285251 0.309646
vt 0.287081 0.300753
vt 0.287205 0.288090
vt 0.310706 0.280008
vt 0.332570 0.277130
vt 0.298337 0.280773
vt 0.041920 0.546492
vt 0.038064 0.546376
vt 0.037730 0.536832
vt 0.041372 0.537119
vt 0.041203 0.530307
vt 0.037564 0.530175
vt 0.044573 0.537355
vt 0.045141 0.546578
vt 0.044909 0.530511
vt 0.037557 0.524995
vt 0.041151 0.524368
vt 0.044927 0.525327
vt 0.051068 0.526774
vt 0.050023 0.530865
vt 0.048872 0.537902
vt 0.057089 0.527306
vt 0.056215 0.531313
vt 0.054885 0.538692
vt 0.285350 0.325859
vt 0.283099 0.327933
vt 0.282197 0.320219
vt 0.284986 0.314237
vt 0.286013 0.333009
vt 0.281708 0.336340
vt 0.285111 0.339988
vt 0.279929 0.343977
vt 0.286483 0.343721
vt 0.282815 0.347465
vt 0.062364 0.532537
vt 0.063040 0.527893
vt 0.067549 0.528507
vt 0.067570 0.533796
vt 0.067593 0.541024
vt 0.061663 0.539683
vt 0.065995 0.549693
vt 0.060419 0.548856
vt 0.054311 0.547914
vt 0.048911 0.547136
vt 0.054093 0.555839
vt 0.049236 0.554740
vt 0.059305 0.556622
vt 0.054500 0.560529
vt 0.049787 0.559439
vt 0.059381 0.561137
vt 0.063770 0.556923
vt 0.063253 0.561397
vt 0.066114 0.562089
vt 0.067677 0.557347
vt 0.070130 0.550831
vt 0.071345 0.542362
vt 0.070675 0.558711
vt 0.073361 0.552402
vt 0.074973 0.543699
vt 0.071119 0.534708
vt 0.074558 0.535167
vt 0.076356 0.554229
vt 0.077760 0.544196
vt 0.296995 0.365570
vt 0.305829 0.373841
vt 0.300752 0.373656
vt 0.292256 0.364424
vt 0.302399 0.365731
vt 0.311588 0.373763
vt 0.323491 0.382045
vt 0.320157 0.383241
vt 0.075420 0.562854
vt 0.333094 0.383897
vt 0.332011 0.386662
vt 0.341352 0.380284
vt 0.342239 0.381972
vt 0.072465 0.570845
vt 0.070201 0.565818
vt 0.075726 0.570509
vt 0.068094 0.562402
vt 0.066574 0.566362
vt 0.063733 0.565839
vt 0.068908 0.571071
vt 0.065067 0.570845
vt 0.073719 0.577801
vt 0.070640 0.577388
vt 0.066548 0.576889
vt 0.076775 0.577943
vt 0.074245 0.585260
vt 0.071063 0.585298
vt 0.077295 0.585215
vt 0.348700 0.373616
vt 0.350841 0.374487
vt 0.355559 0.365700
vt 0.353617 0.365461
vt 0.339102 0.378173
vt 0.345470 0.372179
vt 0.350897 0.365247
vt 0.341060 0.371244
vt 0.347333 0.364099
vt 0.333955 0.375560
vt 0.328347 0.370862
vt 0.336411 0.367874
vt 0.342446 0.363023
vt 0.319076 0.373052
vt 0.327494 0.379240
vt 0.334007 0.381299
vt 0.311267 0.364779
vt 0.324107 0.362562
vt 0.334775 0.361637
vt 0.304656 0.359297
vt 0.314305 0.355035
vt 0.296384 0.359046
vt 0.291228 0.358554
vt 0.300337 0.354730
vt 0.291380 0.353839
vt 0.289702 0.353031
vt 0.287589 0.357561
vt 0.288354 0.351492
vt 0.286649 0.361532
vt 0.283997 0.353759
vt 0.286226 0.349230
vt 0.296774 0.350035
vt 0.304647 0.345897
vt 0.308796 0.349711
vt 0.313717 0.339717
vt 0.316866 0.343700
vt 0.319382 0.334496
vt 0.322554 0.338166
vt 0.322634 0.348492
vt 0.327795 0.341935
vt 0.322825 0.331451
vt 0.326962 0.334427
vt 0.334621 0.345802
vt 0.329589 0.352470
vt 0.342386 0.348325
vt 0.337935 0.353851
vt 0.346747 0.354906
vt 0.343858 0.359271
vt 0.350721 0.351400
vt 0.352409 0.356164
vt 0.350387 0.359702
vt 0.355664 0.354386
vt 0.354665 0.359292
vt 0.357671 0.358285
vt 0.360117 0.357495
vt 0.075782 0.600589
vt 0.074211 0.592580
vt 0.077067 0.591945
vt 0.078109 0.599370
vt 0.072202 0.601053
vt 0.070862 0.592751
vt 0.067053 0.592754
vt 0.068128 0.600057
vt 0.067310 0.584730
vt 0.061223 0.592262
vt 0.061021 0.583412
vt 0.060717 0.575464
vt 0.060196 0.569414
vt 0.054142 0.573767
vt 0.054536 0.568080
vt 0.053931 0.581944
vt 0.049782 0.567437
vt 0.048754 0.572424
vt 0.048224 0.580459
vt 0.043891 0.579072
vt 0.043669 0.572016
vt 0.045966 0.566974
vt 0.046852 0.562624
vt 0.050212 0.563051
vt 0.054598 0.564129
vt 0.046413 0.558624
vt 0.044198 0.560171
vt 0.041696 0.564687
vt 0.041194 0.560820
vt 0.040171 0.567051
vt 0.044003 0.557426
vt 0.041768 0.553707
vt 0.045383 0.553665
vt 0.039042 0.559449
vt 0.036581 0.554091
vt 0.036495 0.570124
vt 0.333762 0.266521
vt 0.307810 0.273847
vt 0.349343 0.271429
vt 0.039685 0.578114
vt 0.360342 0.283697
vt 0.351232 0.287143
vt 0.040013 0.588149
vt 0.043566 0.589228
vt 0.048221 0.590771
vt 0.049062 0.599110
vt 0.043572 0.600574
vt 0.040758 0.601836
vt 0.507264 0.971564
vt 0.501822 0.976421
vt 0.497319 0.973823
vt 0.501085 0.968596
vt 0.510869 0.975713
vt 0.505754 0.978983
vt 0.040376 0.603715
vt 0.042143 0.603191
vt 0.503238 0.965233
vt 0.507400 0.968071
vt 0.372230 0.309315
vt 0.378369 0.311246
vt 0.373350 0.315293
vt 0.373706 0.323194
vt 0.054235 0.591540
vt 0.055310 0.598893
vt 0.494310 0.982481
vt 0.493510 0.980488
vt 0.505281 0.982065
vt 0.493973 0.985699
vt 0.510245 0.981123
vt 0.510499 0.985154
vt 0.370459 0.307029
vt 0.506358 0.956691
vt 0.510717 0.955957
vt 0.510453 0.958609
vt 0.505640 0.960036
vt 0.510555 0.963056
vt 0.504927 0.961710
vt 0.509259 0.986619
vt 0.504545 0.984778
vt 0.506719 0.953278
vt 0.511198 0.953492
vt 0.501661 0.955751
vt 0.502037 0.953253
vt 0.501684 0.950377
vt 0.069133 0.495685
vt 0.063723 0.496604
vt 0.063271 0.493216
vt 0.067971 0.492325
vt 0.058184 0.497298
vt 0.058151 0.493813
vt 0.063942 0.500286
vt 0.058246 0.501099
vt 0.069345 0.499819
vt 0.494774 0.947029
vt 0.493787 0.943754
vt 0.500524 0.946538
vt 0.075120 0.496060
vt 0.075173 0.500191
vt 0.485444 0.946162
vt 0.483603 0.943356
vt 0.081963 0.501724
vt 0.081876 0.497460
vt 0.081087 0.506606
vt 0.074867 0.504825
vt 0.069458 0.504849
vt 0.073734 0.511564
vt 0.068942 0.510959
vt 0.078506 0.513419
vt 0.088524 0.504718
vt 0.087639 0.509937
vt 0.083678 0.514915
vt 0.946923 0.844570
vt 0.951804 0.847341
vt 0.952133 0.854012
vt 0.947515 0.850323
vt 0.095869 0.508477
vt 0.094396 0.512380
vt 0.313686 0.031063
vt 0.308375 0.031490
vt 0.308597 0.023802
vt 0.312268 0.023972
vt 0.302974 0.030547
vt 0.304674 0.023458
vt 0.959182 0.846767
vt 0.957676 0.853655
vt 0.955442 0.861047
vt 0.958904 0.861255
vt 0.959079 0.867643
vt 0.957456 0.867053
vt 0.306673 0.017714
vt 0.308927 0.018023
vt 0.307792 0.013886
vt 0.309548 0.013975
vt 0.306438 0.013044
vt 0.305440 0.016499
vt 0.306411 0.010371
vt 0.308557 0.010078
vt 0.309820 0.010886
vt 0.307959 0.009342
vt 0.308030 0.008135
vt 0.308927 0.009743
vt 0.307237 0.009566
vt 0.312518 0.010347
vt 0.312515 0.008859
vt 0.311287 0.010949
vt 0.307930 0.008056
vt 0.960804 0.878472
vt 0.957976 0.880942
vt 0.957918 0.880916
vt 0.959461 0.877250
vt 0.965825 0.878762
vt 0.960586 0.880984
vt 0.965950 0.876913
vt 0.965205 0.875438
vt 0.971749 0.873265
vt 0.972217 0.876829
vt 0.972293 0.879894
vt 0.314313 0.016363
vt 0.313156 0.017447
vt 0.312154 0.013633
vt 0.318050 0.021086
vt 0.315673 0.022869
vt 0.980157 0.880321
vt 0.978347 0.883560
vt 0.973029 0.883046
vt 0.978838 0.876773
vt 0.064346 0.504900
vt 0.064279 0.511073
vt 0.978604 0.871831
vt 0.059002 0.505674
vt 0.059321 0.511752
vt 0.052546 0.507073
vt 0.051484 0.502574
vt 0.054070 0.513071
vt 0.045717 0.509312
vt 0.043865 0.504800
vt 0.048798 0.515063
vt 0.970537 0.869846
vt 0.977043 0.866517
vt 0.968552 0.866603
vt 0.973956 0.861158
vt 0.971584 0.851350
vt 0.977674 0.856068
vt 0.968987 0.857654
vt 0.965751 0.863977
vt 0.962351 0.862079
vt 0.963493 0.855077
vt 0.965740 0.848859
vt 0.974307 0.847327
vt 0.979921 0.852337
vt 0.967560 0.843774
vt 0.960239 0.841762
vt 0.952704 0.841597
vt 0.465104 0.974079
vt 0.469555 0.982936
vt 0.465773 0.984402
vt 0.461715 0.972773
vt 0.466412 0.961337
vt 0.464406 0.958977
vt 0.473626 0.949359
vt 0.472436 0.946567
vt 0.468578 0.961866
vt 0.467715 0.973693
vt 0.475278 0.951943
vt 0.481021 0.941113
vt 0.476156 0.955113
vt 0.470582 0.964256
vt 0.486028 0.948987
vt 0.478140 0.957000
vt 0.472486 0.965281
vt 0.487446 0.951700
vt 0.495486 0.949717
vt 0.495743 0.952615
vt 0.496180 0.955072
vt 0.488343 0.953858
vt 0.500802 0.957879
vt 0.499098 0.961536
vt 0.495088 0.958443
vt 0.493011 0.962594
vt 0.496502 0.965698
vt 0.490229 0.960743
vt 0.489941 0.957208
vt 0.483060 0.962088
vt 0.479587 0.959127
vt 0.485789 0.964960
vt 0.475518 0.966200
vt 0.479510 0.966473
vt 0.477176 0.971895
vt 0.481385 0.969422
vt 0.473817 0.972486
vt 0.470936 0.972898
vt 0.477530 0.978195
vt 0.475318 0.979919
vt 0.480605 0.976076
vt 0.473347 0.981894
vt 0.484144 0.982308
vt 0.482893 0.984542
vt 0.481567 0.987598
vt 0.478446 0.988970
vt 0.474862 0.989966
vt 0.041734 0.496679
vt 0.042843 0.500267
vt 0.035338 0.501881
vt 0.033974 0.498029
vt 0.036595 0.504570
vt 0.051134 0.498394
vt 0.050927 0.494932
vt 0.492960 0.988462
vt 0.486413 0.979740
vt 0.484461 0.972789
vt 0.488622 0.975534
vt 0.492950 0.977135
vt 0.492674 0.970749
vt 0.488948 0.967683
vt 0.963136 0.869653
vt 0.960134 0.867701
vt 0.959587 0.873432
vt 0.957855 0.869787
vt 0.305374 0.011767
vt 0.304371 0.015392
vt 0.305015 0.010072
vt 0.957515 0.872370
vt 0.964186 0.871362
vt 0.304476 0.007377
vt 0.966203 0.872416
vt 0.318946 0.029258
vt 0.311005 0.017875
vt 0.311139 0.013553
vt 0.350668 0.301175
vt 0.369038 0.303224
vt 0.371592 0.303006
vt 0.354055 0.298695
vt 0.330246 0.291157
vt 0.327391 0.297559
vt 0.369559 0.300326
vt 0.373267 0.332253
vt 0.062312 0.598584
vt 0.370934 0.338692
vt 0.059632 0.565092
vt 0.328678 0.330813
vt 0.324854 0.329010
vt 0.325634 0.327058
vt 0.328959 0.328314
vt 0.331674 0.328858
vt 0.070675 0.529081
s 1
usemtl abyss_chancel_background_pbr
f 2/1/1 6/2/2 5/3/3 1/4/4
f 1/4/4 3/5/5 203/6/6 2/1/1
f 1/4/4 4/7/7 18/8/8 3/5/5
f 4/7/7 1/4/4 5/3/3 8/9/9
f 5/3/3 6/2/2 200/10/10 7/11/11
f 9/12/12 8/9/9 5/3/3 7/11/11
f 10/13/13 8/9/9 9/12/12 11/14/14
f 10/13/13 13/15/15 4/7/7 8/9/9
f 11/14/14 184/16/16 12/17/17 10/13/13
f 13/15/15 10/13/13 12/17/17 14/18/18
f 13/15/15 14/18/18 17/19/19 15/20/20
f 4/7/7 13/15/15 15/20/20 18/8/8
f 19/21/21 18/8/8 15/20/20 16/22/22
f 15/20/20 17/19/19 34/23/23 16/22/22
f 20/24/24 3/5/5 18/8/8 19/21/21
f 22/25/25 21/26/26 19/21/21 16/22/22
f 23/27/27 20/24/24 19/21/21 21/26/26
f 22/25/25 27/28/28 24/29/29 21/26/26
f 24/29/29 25/30/30 23/27/27 21/26/26
f 246/31/31 25/30/30 24/29/29 26/32/32
f 28/33/33 26/32/32 24/29/29 27/28/28
f 27/28/28 29/34/34 30/35/35 28/33/33
f 29/34/34 27/28/28 22/25/25 32/36/36
f 31/37/37 408/38/38 30/35/35 29/34/34
f 29/34/34 32/36/36 33/39/39 31/37/37
f 34/23/23 35/40/40 33/39/39 32/36/36
f 22/25/25 16/22/22 34/23/23 32/36/36
f 36/41/41 35/40/40 34/23/23 17/19/19
f 35/40/40 36/41/41 40/42/42 37/43/43
f 35/40/40 37/43/43 39/44/44 33/39/39
f 37/43/43 38/45/45 60/46/46 39/44/44
f 38/45/45 37/43/43 40/42/42 43/47/47
f 427/48/48 41/49/49 40/42/42 36/41/41
f 40/42/42 41/49/49 425/50/50 42/51/51
f 45/52/52 43/47/47 40/42/42 42/51/51
f 38/45/45 43/47/47 44/53/53 57/54/54
f 43/47/47 45/52/52 47/55/55 44/53/53
f 46/56/56 48/57/57 47/55/55 45/52/52
f 45/52/52 42/51/51 422/58/58 46/56/56
f 50/59/59 49/60/60 47/55/55 48/57/57
f 47/55/55 49/60/60 52/61/61 44/53/53
f 49/60/60 50/59/59 171/62/62 51/63/63
f 51/63/63 53/64/64 52/61/61 49/60/60
f 52/61/61 53/64/64 55/65/65 54/66/66
f 57/54/54 44/53/53 52/61/61 54/66/66
f 56/67/67 54/66/66 55/65/65 98/68/68
f 56/67/67 58/69/69 57/54/54 54/66/66
f 60/46/46 38/45/45 57/54/54 58/69/69
f 56/67/67 69/70/70 59/71/71 58/69/69
f 59/71/71 61/72/72 60/46/46 58/69/69
f 62/73/73 39/44/44 60/46/46 61/72/72
f 61/72/72 63/74/74 64/75/75 62/73/73
f 63/74/74 61/72/72 59/71/71 66/76/76
f 65/77/77 409/78/78 64/75/75 63/74/74
f 65/77/77 63/74/74 66/76/76 67/79/79
f 68/80/80 66/76/76 59/71/71 69/70/70
f 67/79/79 66/76/76 68/80/80 71/81/81
f 95/82/82 70/83/83 68/80/80 69/70/70
f 72/84/84 71/81/81 68/80/80 70/83/83
f 74/85/85 67/79/79 71/81/81 73/86/86
f 71/81/81 72/84/84 76/87/87 73/86/86
f 411/88/88 74/85/85 73/86/86 75/89/89
f 75/89/89 73/86/86 76/87/87 78/90/90
f 76/87/87 72/84/84 430/91/91 77/92/92
f 80/93/93 78/90/90 76/87/87 77/92/92
f 79/94/94 235/95/95 75/89/89 78/90/90
f 79/94/94 78/90/90 80/93/93 81/96/96
f 83/97/97 81/98/96 80/99/93 82/100/98
f 85/101/99 82/100/98 80/99/93 77/102/92
f 84/103/100 229/104/101 83/97/97 82/100/98
f 85/101/99 87/105/102 84/103/100 82/100/98
f 85/101/99 77/102/92 430/106/91 86/107/103
f 85/101/99 86/107/103 88/108/104 87/105/102
f 88/108/104 92/109/105 89/110/106 87/105/102
f 84/103/100 87/105/102 89/110/106 91/111/107
f 92/109/105 93/112/108 90/113/109 89/110/106
f 91/111/107 89/110/106 90/113/109 107/114/110
f 94/115/111 92/116/105 88/117/104 86/118/103
f 94/115/111 96/119/112 93/120/108 92/116/105
f 95/82/82 98/68/68 96/119/112 94/115/111
f 95/82/82 94/115/111 86/118/103 70/83/83
f 55/65/65 97/121/113 96/119/112 98/68/68
f 97/121/113 100/122/114 93/120/108 96/119/112
f 98/68/68 95/82/82 69/70/70 56/67/67
f 99/123/115 97/121/113 55/65/65 53/64/64
f 97/121/113 99/123/115 101/124/116 100/122/114
f 102/125/117 100/126/114 101/127/116 103/128/118
f 100/126/114 102/125/117 90/113/109 93/112/108
f 103/128/118 105/129/119 104/130/120 102/125/117
f 90/113/109 102/125/117 104/130/120 107/114/110
f 104/130/120 105/129/119 118/131/121 106/132/122
f 108/133/123 107/114/110 104/130/120 106/132/122
f 108/133/123 109/134/124 91/111/107 107/114/110
f 108/133/123 110/135/125 111/136/126 109/134/124
f 110/135/125 108/133/123 106/132/122 113/137/127
f 112/138/128 220/139/129 111/136/126 110/135/125
f 113/137/127 114/140/130 112/138/128 110/135/125
f 114/140/130 113/137/127 115/141/131 117/142/132
f 113/137/127 106/132/122 118/131/121 115/141/131
f 136/143/133 117/142/132 115/141/131 116/144/134
f 115/141/131 118/131/121 119/145/135 116/144/134
f 105/129/119 121/146/136 119/145/135 118/131/121
f 134/147/137 116/144/134 119/145/135 120/148/138
f 119/145/135 121/146/136 123/149/139 120/148/138
f 123/149/139 121/146/136 122/150/140 124/151/141
f 105/129/119 103/128/118 122/150/140 121/146/136
f 128/152/142 120/148/138 123/149/139 125/153/143
f 126/154/144 125/155/143 123/156/139 124/157/141
f 163/158/145 127/159/146 125/155/143 126/154/144
f 129/160/147 128/161/142 125/155/143 127/159/146
f 120/148/138 128/152/142 130/162/148 134/147/137
f 129/160/147 131/163/149 130/164/148 128/161/142
f 148/165/150 132/166/151 130/164/148 131/163/149
f 142/167/152 133/168/153 130/162/148 132/169/151
f 135/170/154 134/147/137 130/162/148 133/168/153
f 116/144/134 134/147/137 135/170/154 136/143/133
f 137/171/155 136/143/133 135/170/154 133/168/153
f 136/143/133 137/171/155 138/172/156 117/142/132
f 137/171/155 139/173/157 141/174/158 138/172/156
f 133/168/153 142/167/152 139/173/157 137/171/155
f 142/167/152 143/175/159 140/176/160 139/173/157
f 140/176/160 208/177/161 141/174/158 139/173/157
f 142/167/152 132/169/151 145/178/162 143/175/159
f 144/179/163 205/180/164 140/176/160 143/175/159
f 145/178/162 146/181/165 144/179/163 143/175/159
f 132/166/151 148/165/150 147/182/166 145/183/162
f 146/184/165 145/183/162 147/182/166 149/185/167
f 148/165/150 152/186/168 150/187/169 147/182/166
f 147/182/166 150/187/169 151/188/170 149/185/167
f 153/189/171 155/190/172 151/188/170 150/187/169
f 152/186/168 156/191/173 153/189/171 150/187/169
f 158/192/174 154/193/175 153/189/171 156/191/173
f 195/194/176 155/190/172 153/189/171 154/193/175
f 160/195/177 158/192/174 156/191/173 157/196/178
f 156/191/173 152/186/168 429/197/179 157/196/178
f 160/195/177 161/198/180 159/199/181 158/192/174
f 154/193/175 158/192/174 159/199/181 189/200/182
f 161/198/180 160/195/177 127/159/146 163/158/145
f 157/196/178 129/160/147 127/159/146 160/195/177
f 162/201/183 428/202/184 159/199/181 161/198/180
f 162/201/183 161/198/180 163/158/145 164/203/185
f 166/204/186 164/203/185 163/158/145 126/154/144
f 174/205/187 162/201/183 164/203/185 165/206/188
f 166/204/186 167/207/189 165/206/188 164/203/185
f 167/207/189 166/204/186 168/208/190 170/209/191
f 168/208/190 166/204/186 126/154/144 124/157/141
f 168/208/190 124/157/141 122/210/140 169/211/192
f 168/208/190 169/211/192 172/212/193 170/209/191
f 167/207/189 170/209/191 171/62/62 173/213/194
f 172/212/193 51/63/63 171/62/62 170/209/191
f 101/124/116 99/123/115 172/212/193 169/211/192
f 53/64/64 51/63/63 172/212/193 99/123/115
f 171/62/62 50/59/59 175/214/195 173/213/194
f 173/213/194 174/205/187 165/206/188 167/207/189
f 174/205/187 173/213/194 175/214/195 176/215/196
f 175/214/195 177/216/197 179/217/198 176/215/196
f 48/57/57 177/216/197 175/214/195 50/59/59
f 178/218/199 177/216/197 48/57/57 46/56/56
f 178/218/199 181/219/200 179/217/198 177/216/197
f 428/202/184 176/215/196 179/217/198 180/220/201
f 179/217/198 181/219/200 183/221/202 180/220/201
f 420/222/203 182/223/204 181/219/200 178/218/199
f 182/223/204 184/16/16 183/221/202 181/219/200
f 184/16/16 11/14/14 185/224/205 183/221/202
f 180/220/201 183/221/202 185/224/205 187/225/206
f 185/224/205 11/14/14 9/12/12 186/226/207
f 188/227/208 187/225/206 185/224/205 186/226/207
f 187/225/206 188/227/208 189/200/182 159/199/181
f 180/220/201 187/225/206 159/199/181 428/202/184
f 190/228/209 193/229/210 189/200/182 188/227/208
f 190/228/209 188/227/208 186/226/207 192/230/211
f 193/229/210 190/228/209 191/231/212 194/232/213
f 192/230/211 197/233/214 191/231/212 190/228/209
f 193/229/210 194/232/213 155/190/172 195/194/176
f 189/200/182 193/229/210 195/194/176 154/193/175
f 194/232/213 196/234/215 151/188/170 155/190/172
f 196/234/215 194/232/213 191/231/212 197/233/214
f 196/234/215 197/233/214 200/10/10 198/235/216
f 151/188/170 196/234/215 198/235/216 149/185/167
f 200/10/10 6/2/2 199/236/217 198/235/216
f 149/185/167 198/235/216 199/236/217 146/184/165
f 192/230/211 7/11/11 200/10/10 197/233/214
f 2/237/1 201/238/218 199/239/217 6/240/2
f 199/239/217 201/238/218 144/179/163 146/181/165
f 201/238/218 2/237/1 203/241/6 202/242/219
f 202/242/219 205/180/164 144/179/163 201/238/218
f 204/243/220 202/242/219 203/241/6 416/244/221
f 202/242/219 204/243/220 206/245/222 205/180/164
f 206/245/222 208/177/161 140/176/160 205/180/164
f 206/245/222 204/243/220 415/246/223 207/247/224
f 208/177/161 206/245/222 207/247/224 209/248/225
f 209/248/225 210/249/226 141/174/158 208/177/161
f 210/249/226 209/248/225 211/250/227 212/251/228
f 211/250/227 209/248/225 207/247/224 213/252/229
f 217/253/230 212/251/228 211/250/227 214/254/231
f 215/255/232 214/254/231 211/250/227 213/252/229
f 237/256/233 216/257/234 214/254/231 215/255/232
f 218/258/235 217/253/230 214/254/231 216/257/234
f 217/253/230 218/258/235 222/259/236 219/260/237
f 219/260/237 221/261/238 212/251/228 217/253/230
f 219/260/237 220/139/129 112/138/128 221/261/238
f 220/139/129 219/260/237 222/259/236 225/262/239
f 224/263/240 222/259/236 223/264/241 417/265/242
f 218/258/235 234/266/243 223/264/241 222/259/236
f 226/267/244 225/262/239 222/259/236 224/263/240
f 226/267/244 228/268/245 227/269/246 225/262/239
f 220/139/129 225/262/239 227/269/246 111/136/126
f 227/269/246 228/268/245 83/97/97 229/104/101
f 109/134/124 111/136/126 227/269/246 229/104/101
f 229/104/101 84/103/100 91/111/107 109/134/124
f 231/270/247 230/271/248 228/268/245 226/267/244
f 230/271/248 81/98/96 83/97/97 228/268/245
f 231/270/247 234/266/243 232/272/249 230/271/248
f 232/273/249 79/94/94 81/96/96 230/274/248
f 235/95/95 79/94/94 232/273/249 233/275/250
f 237/256/233 233/276/250 232/272/249 216/257/234
f 216/257/234 232/272/249 234/266/243 218/258/235
f 231/270/247 417/265/242 223/264/241 234/266/243
f 233/275/250 236/277/251 412/278/252 235/95/95
f 236/279/251 233/276/250 237/256/233 238/280/253
f 239/281/254 238/280/253 237/256/233 215/255/232
f 239/281/254 245/282/255 240/283/256 238/280/253
f 236/279/251 238/280/253 240/283/256 244/284/257
f 240/285/256 241/286/258 387/287/259 243/288/260
f 241/286/258 240/285/256 245/289/255 248/290/261
f 410/291/262 244/284/257 240/283/256 242/292/263
f 349/293/264 242/294/263 240/285/256 243/288/260
f 251/295/265 248/296/261 245/297/255 246/31/31
f 25/30/30 246/31/31 245/297/255 247/298/266
f 245/282/255 239/281/254 414/299/267 247/300/266
f 241/286/258 248/290/261 250/301/268 380/302/269
f 248/290/261 249/303/270 376/304/271 250/301/268
f 249/303/270 248/290/261 251/305/265 254/306/272
f 246/31/31 26/32/32 253/307/273 251/295/265
f 256/308/274 254/309/272 251/310/265 252/311/275
f 252/311/275 251/310/265 253/312/273 346/313/276
f 249/303/270 254/306/272 255/314/277 375/315/278
f 254/309/272 256/308/274 258/316/279 255/317/277
f 256/308/274 252/311/275 344/318/280 257/319/281
f 258/316/279 256/308/274 257/319/281 259/320/282
f 263/321/283 260/322/284 258/323/279 259/324/282
f 261/325/285 255/326/277 258/323/279 260/322/284
f 261/325/285 260/322/284 262/327/286 312/328/287
f 260/322/284 263/321/283 264/329/288 262/327/286
f 259/320/282 266/330/289 265/331/290 263/332/283
f 264/329/288 263/321/283 265/333/290 268/334/291
f 265/331/290 266/330/289 335/335/292 267/336/293
f 269/337/294 268/334/291 265/333/290 267/338/293
f 268/334/291 269/337/294 273/339/295 270/340/296
f 270/340/296 271/341/297 264/329/288 268/334/291
f 271/341/297 270/340/296 272/342/298 307/343/299
f 272/342/298 270/340/296 273/339/295 274/344/300
f 273/339/295 269/337/294 277/345/301 275/346/302
f 278/347/303 274/344/300 273/339/295 275/346/302
f 275/348/302 276/349/304 280/350/305 278/351/303
f 275/346/302 277/345/301 330/352/306 276/353/304
f 274/354/300 278/355/303 279/356/307 398/357/308
f 279/356/307 278/355/303 280/358/305 282/359/309
f 276/349/304 327/360/310 281/361/311 280/350/305
f 282/362/309 280/350/305 281/361/311 283/363/312
f 283/363/312 286/364/313 284/365/314 282/362/309
f 284/366/314 285/367/315 279/356/307 282/359/309
f 287/368/316 289/369/317 285/367/315 284/366/314
f 288/370/318 287/368/316 284/366/314 286/371/313
f 288/370/318 292/372/319 290/373/320 287/368/316
f 289/369/317 287/368/316 290/373/320 293/374/321
f 290/373/320 291/375/322 296/376/323 294/377/324
f 290/373/320 292/372/319 403/378/325 291/375/322
f 294/377/324 293/374/321 290/373/320
f 295/379/326 294/377/324 296/376/323 298/380/327
f 293/374/321 294/377/324 295/379/326 401/381/328
s 0
f 297/382/329 296/376/330 291/375/331
s 1
f 298/383/327 296/384/323 297/385/332 299/386/333
f 303/387/334 295/388/326 298/383/327 300/389/335
f 301/390/336 300/389/335 298/383/327 299/386/333
f 300/389/335 301/390/336 397/391/337 302/392/338
f 303/387/334 300/389/335 302/392/338 305/393/339
f 295/379/326 303/394/334 304/395/340 402/396/341
f 305/397/339 306/398/342 304/395/340 303/394/334
f 305/393/339 307/399/299 272/400/298 306/401/342
f 302/392/338 308/402/343 307/399/299 305/393/339
f 310/403/344 271/341/297 307/343/299 308/404/343
f 397/391/337 309/405/345 308/402/343 302/392/338
f 311/406/346 310/403/344 308/404/343 309/407/345
f 310/403/344 262/327/286 264/329/288 271/341/297
f 311/406/346 312/328/287 262/327/286 310/403/344
f 313/408/347 314/409/348 312/328/287 311/406/346
f 313/408/347 311/406/346 309/407/345 316/410/349
f 315/411/350 374/412/351 314/409/348 313/408/347
f 315/411/350 313/408/347 316/410/349 318/413/352
f 317/414/353 316/415/349 309/405/345 397/391/337
f 319/416/354 318/417/352 316/415/349 317/414/353
f 323/418/355 315/419/350 318/417/352 320/420/356
f 321/421/357 320/420/356 318/417/352 319/416/354
f 389/422/358 322/423/359 320/420/356 321/421/357
f 325/424/360 323/418/355 320/420/356 322/423/359
f 323/418/355 324/425/361 374/426/351 315/419/350
f 323/418/355 325/424/360 326/427/362 324/425/361
f 327/360/310 328/428/363 326/427/362 325/424/360
f 327/360/310 325/424/360 322/423/359 281/361/311
f 276/349/304 330/429/306 328/428/363 327/360/310
f 329/430/364 369/431/365 326/432/362 328/433/363
f 331/434/366 329/430/364 328/433/363 330/435/306
f 333/436/367 331/434/366 330/435/306 277/437/301
f 331/434/366 332/438/368 364/439/369 329/430/364
f 333/436/367 334/440/370 332/438/368 331/434/366
f 267/336/293 335/335/292 334/440/370 333/436/367
f 267/336/293 333/436/367 277/437/301 269/441/294
f 336/442/371 337/443/372 332/438/368 334/440/370
f 339/444/373 336/442/371 334/440/370 335/335/292
f 336/442/371 338/445/374 360/446/375 337/443/372
f 339/444/373 340/447/376 338/445/374 336/442/371
f 340/447/376 339/444/373 341/448/377 342/449/378
f 341/448/377 339/444/373 335/335/292 266/330/289
f 266/330/289 259/320/282 257/319/281 341/448/377
f 341/448/377 257/319/281 344/318/280 342/449/378
f 342/449/378 343/450/379 355/451/380 340/447/376
f 344/318/280 345/452/381 343/450/379 342/449/378
f 252/311/275 346/313/276 345/452/381 344/318/280
f 346/313/276 349/293/264 347/453/382 345/452/381
f 347/453/382 350/454/383 343/450/379 345/452/381
f 351/455/384 350/454/383 347/453/382 348/456/385
f 243/288/260 348/456/385 347/453/382 349/293/264
f 350/454/383 351/455/384 354/457/386 352/458/387
f 350/454/383 352/458/387 355/451/380 343/450/379
f 353/459/388 356/460/389 355/451/380 352/458/387
f 353/459/388 352/458/387 354/457/386 385/461/390
f 355/451/380 356/460/389 338/445/374 340/447/376
f 356/460/389 357/462/391 360/446/375 338/445/374
f 356/460/389 353/459/388 358/463/392 357/462/391
f 359/464/393 357/462/391 358/463/392 384/465/394
f 360/446/375 357/462/391 359/464/393 361/466/395
f 363/467/396 337/443/372 360/446/375 361/466/395
f 361/466/395 362/468/397 365/469/398 363/467/396
f 362/468/397 361/466/395 359/464/393 381/470/399
f 337/443/372 363/467/396 364/439/369 332/438/368
f 364/439/369 363/467/396 365/469/398 367/471/400
f 365/469/398 362/468/397 377/472/401 366/473/402
f 368/474/403 367/471/400 365/469/398 366/473/402
f 367/471/400 368/474/403 370/475/404 369/431/365
f 369/431/365 329/430/364 364/439/369 367/471/400
f 326/432/362 369/431/365 370/475/404 324/476/361
f 373/477/405 371/478/406 370/479/404 368/480/403
f 370/479/404 371/478/406 374/412/351 324/481/361
f 371/478/406 372/482/407 314/409/348 374/412/351
f 371/478/406 373/477/405 375/483/278 372/482/407
f 376/304/271 249/303/270 375/315/278 373/484/405
f 368/474/403 366/473/402 376/304/271 373/484/405
f 377/472/401 250/301/268 376/304/271 366/473/402
f 372/482/407 375/483/278 255/326/277 261/325/285
f 372/482/407 261/325/285 312/328/287 314/409/348
f 381/470/399 378/485/408 377/472/401 362/468/397
f 378/485/408 380/302/269 250/301/268 377/472/401
f 378/485/408 381/470/399 382/486/409 379/487/410
f 378/485/408 379/487/410 388/488/411 380/302/269
f 382/486/409 381/470/399 359/464/393 384/465/394
f 386/489/412 379/487/410 382/486/409 383/490/413
f 385/461/390 383/490/413 382/486/409 384/465/394
f 385/461/390 384/465/394 358/463/392 353/459/388
f 383/490/413 385/461/390 354/457/386 351/455/384
f 383/490/413 351/455/384 348/456/385 386/489/412
f 386/489/412 387/287/259 388/488/411 379/487/410
f 387/287/259 386/489/412 348/456/385 243/288/260
f 241/286/258 380/302/269 388/488/411 387/287/259
f 349/293/264 346/313/276 253/312/273 242/294/263
f 283/363/312 281/361/311 322/423/359 389/422/358
f 321/421/357 391/491/414 390/492/415 389/422/358
f 389/422/358 390/492/415 286/364/313 283/363/312
f 394/493/416 392/494/417 390/492/415 391/491/414
f 392/495/417 288/370/318 286/371/313 390/496/415
f 288/370/318 392/495/417 393/497/418 292/372/319
f 392/494/417 394/493/416 299/386/333 393/498/418
f 299/386/333 394/493/416 391/491/414 395/499/419
f 297/382/332 393/497/418 299/500/333
f 393/497/418 297/382/332 403/378/325 292/372/319
f 319/416/354 395/499/419 391/491/414 321/421/357
f 396/501/420 301/390/336 299/386/333 395/499/419
f 317/414/353 396/501/420 395/499/419 319/416/354
f 397/391/337 301/390/336 396/501/420 317/414/353
f 398/357/308 306/398/342 272/502/298 274/354/300
f 306/398/342 398/357/308 399/503/421 304/395/340
f 399/503/421 398/357/308 279/356/307 285/367/315
f 289/369/317 400/504/422 399/503/421 285/367/315
f 402/396/341 304/395/340 399/503/421 400/504/422
f 400/504/422 401/381/328 295/379/326 402/396/341
f 293/374/321 401/381/328 400/504/422 289/369/317
f 403/378/325 297/382/332 291/375/322
f 253/307/273 26/32/32 28/33/33 405/505/423
f 410/506/262 242/507/263 253/307/273 404/508/424
f 253/307/273 405/505/423 406/509/425 404/508/424
f 405/505/423 28/33/33 30/35/35 406/509/425
f 409/78/78 65/77/77 406/509/425 407/510/426
f 407/510/426 406/509/425 30/35/35 408/38/38
f 67/79/79 74/85/85 406/509/425 65/77/77
f 406/509/425 74/85/85 411/88/88 404/508/424
f 407/510/426 408/38/38 64/75/75 409/78/78
f 31/37/37 62/73/73 64/75/75 408/38/38
f 411/88/88 412/278/252 410/506/262 404/508/424
f 235/95/95 412/278/252 411/88/88 75/89/89
f 244/511/257 410/506/262 412/278/252 236/277/251
f 247/298/266 413/512/427 23/27/27 25/30/30
f 414/299/267 415/246/223 413/513/427 247/300/266
f 414/299/267 239/281/254 215/255/232 213/252/229
f 213/252/229 207/247/224 415/246/223 414/299/267
f 204/243/220 416/244/221 413/513/427 415/246/223
f 416/514/221 20/24/24 23/27/27 413/512/427
f 20/24/24 416/514/221 203/6/6 3/5/5
f 226/267/244 224/263/240 417/265/242 231/270/247
f 418/515/428 221/261/238 112/138/128 114/140/130
f 212/251/228 221/261/238 418/515/428 210/249/226
f 141/174/158 210/249/226 418/515/428 138/172/156
f 117/142/132 138/172/156 418/515/428 114/140/130
f 192/230/211 186/226/207 9/12/12 7/11/11
f 182/223/204 419/516/429 12/17/17 184/16/16
f 182/223/204 420/222/203 421/517/430 419/516/429
f 421/517/430 420/222/203 422/58/58 423/518/431
f 178/218/199 46/56/56 422/58/58 420/222/203
f 422/58/58 42/51/51 425/50/50 423/518/431
f 424/519/432 419/516/429 421/517/430 423/518/431
f 424/519/432 423/518/431 425/50/50 41/49/49
f 424/519/432 426/520/433 12/17/17 419/516/429
f 41/49/49 427/48/48 426/520/433 424/519/432
f 427/48/48 14/18/18 12/17/17 426/520/433
f 427/48/48 36/41/41 17/19/19 14/18/18
f 162/201/183 174/205/187 176/215/196 428/202/184
f 122/150/140 103/128/118 101/127/116 169/521/192
f 129/160/147 157/196/178 429/197/179 131/163/149
f 148/165/150 131/163/149 429/197/179 152/186/168
f 70/83/83 86/118/103 430/91/91 72/84/84
f 31/37/37 33/39/39 39/44/44 62/73/73
