# Blender 5.2.0 LTS
# www.blender.org
mtllib terrain-abyss-chancel-object-046.mtl
o terrain-abyss-chancel-object-046
v -0.486911 0.857494 -0.020792
v -0.484562 0.854222 -0.019387
v -0.487538 0.857927 -0.014966
v -0.490392 0.854376 -0.022137
v -0.489656 0.857858 -0.020205
v -0.491840 0.852791 -0.019408
v -0.492241 0.856678 -0.014326
v -0.493367 0.850967 -0.013557
v -0.492911 0.854660 -0.008819
v -0.493010 0.853291 -0.004631
v -0.493488 0.849511 -0.008123
v -0.488923 0.857275 -0.009521
v -0.485530 0.854669 -0.011372
v -0.490765 0.855867 -0.004423
v -0.486632 0.853395 -0.006271
v -0.490253 0.851809 -0.000711
v -0.487794 0.851708 -0.002585
v -0.488943 0.847229 -0.000246
v -0.492901 0.850017 -0.002366
v -0.492124 0.846668 -0.001309
v -0.490709 0.846097 -0.006601
v -0.486927 0.847046 -0.003865
v -0.489386 0.846560 -0.012455
v -0.485065 0.848393 -0.009413
v -0.488495 0.848676 -0.017942
v -0.484401 0.850491 -0.014759
v -0.487486 0.851681 -0.022046
v -0.485366 0.855683 -0.015488
vn 0.2696 0.7868 -0.5552
vn 0.9027 0.0834 -0.4220
vn 0.2234 -0.4787 -0.8491
vn -0.3755 0.0544 -0.9252
vn 0.3088 0.9430 0.1239
vn 0.8682 0.4857 0.1020
vn -0.5647 0.7617 -0.3177
vn -0.7406 0.6705 -0.0440
vn -0.8299 -0.2119 -0.5161
vn -0.9337 -0.2710 -0.2339
vn -0.8537 0.5165 0.0662
vn 0.1304 0.9510 0.2804
vn -0.9502 -0.3038 -0.0699
vn -0.8679 -0.0044 0.4967
vn -0.8646 0.4063 0.2957
vn -0.1134 0.8667 0.4858
vn 0.8684 0.4354 0.2375
vn 0.8230 0.4193 0.3832
vn 0.0420 0.4269 0.9033
vn 0.7727 0.3363 0.5384
vn 0.2903 -0.4639 0.8370
vn 0.7288 -0.5966 0.3360
vn -0.5401 -0.6616 0.5202
vn -0.3123 -0.9487 -0.0485
vn -0.1153 -0.9558 -0.2704
vn 0.8683 -0.4896 0.0791
vn 0.9238 -0.3673 -0.1079
vn 0.0060 -0.8651 -0.5016
vt 0.658452 0.020835
vt 0.659769 0.022638
vt 0.657277 0.023533
vt 0.655330 0.023067
vt 0.838986 0.017312
vt 0.838182 0.020267
vt 0.836888 0.019521
vt 0.836919 0.017360
vt 0.840294 0.018390
vt 0.840296 0.021391
vt 0.842018 0.017489
vt 0.843026 0.019242
vt 0.842964 0.022443
vt 0.839675 0.024038
vt 0.837364 0.023010
vt 0.842061 0.025343
vt 0.840325 0.027505
vt 0.839361 0.025962
vt 0.837608 0.025609
vt 0.835932 0.021422
vt 0.662990 0.025340
vt 0.665123 0.025722
vt 0.666087 0.028706
vt 0.663703 0.028160
vt 0.664866 0.032238
vt 0.664034 0.030318
vt 0.838304 0.027959
vt 0.662665 0.032157
vt 0.661399 0.030915
vt 0.663159 0.034468
vt 0.661925 0.033278
vt 0.660218 0.035275
vt 0.659189 0.032634
vt 0.658134 0.028746
vt 0.660911 0.028204
vt 0.844863 0.024418
vt 0.843669 0.026600
vt 0.660181 0.025617
vt 0.657533 0.025898
vt 0.654868 0.025203
vt 0.655387 0.027957
vt 0.661780 0.023614
s 1
usemtl abyss_chancel_background_pbr
f 1/1/1 2/2/2 27/3/3 4/4/4
f 1/5/1 3/6/5 28/7/6 2/8/2
f 3/6/5 1/5/1 5/9/7 7/10/8
f 4/11/4 6/12/9 5/9/7 1/5/1
f 8/13/10 7/10/8 5/9/7 6/12/9
f 3/6/5 7/10/8 9/14/11 12/15/12
f 7/10/8 8/13/10 11/16/13 9/14/11
f 11/16/13 19/17/14 10/18/15 9/14/11
f 12/15/12 9/14/11 10/18/15 14/19/16
f 12/15/12 13/20/17 28/7/6 3/6/5
f 13/21/17 12/22/12 14/23/16 15/24/18
f 14/23/16 16/25/19 17/26/20 15/24/18
f 16/27/19 14/19/16 10/18/15 19/17/14
f 18/28/21 22/29/22 17/26/20 16/25/19
f 19/30/14 20/31/23 18/28/21 16/25/19
f 11/32/13 21/33/24 20/31/23 19/30/14
f 21/33/24 22/29/22 18/28/21 20/31/23
f 22/29/22 21/33/24 23/34/25 24/35/26
f 23/36/25 21/37/24 11/16/13 8/13/10
f 26/38/27 24/35/26 23/34/25 25/39/28
f 6/40/9 25/39/28 23/34/25 8/41/10
f 6/40/9 4/4/4 27/3/3 25/39/28
f 26/38/27 25/39/28 27/3/3 2/2/2
f 26/38/27 2/2/2 28/42/6 13/21/17
f 13/21/17 15/24/18 24/35/26 26/38/27
f 24/35/26 15/24/18 17/26/20 22/29/22
