# Blender 5.2.0 LTS
# www.blender.org
mtllib terrain-abyss-chancel-object-060.mtl
o terrain-abyss-chancel-object-060
v -0.220174 0.855706 -0.033151
v -0.220731 0.855372 -0.031006
v -0.220999 0.857390 -0.032401
v -0.221371 0.854071 -0.033359
v -0.220454 0.855960 -0.035379
v -0.220903 0.856109 -0.037497
v -0.221719 0.853944 -0.035492
v -0.221323 0.858098 -0.034428
v -0.223768 0.856936 -0.033367
v -0.221755 0.858491 -0.036509
v -0.222585 0.858135 -0.038737
v -0.224293 0.857735 -0.035290
v -0.224355 0.854663 -0.035330
v -0.224517 0.857871 -0.037508
v -0.224440 0.857654 -0.039407
v -0.224860 0.854790 -0.037377
v -0.222052 0.854037 -0.037646
v -0.224221 0.855310 -0.039523
v -0.222270 0.854417 -0.039403
v -0.223469 0.855744 -0.040862
v -0.221551 0.856237 -0.039535
v -0.223922 0.857550 -0.040921
v -0.223608 0.854407 -0.033257
v -0.222828 0.854460 -0.031453
v -0.221732 0.854659 -0.030931
v -0.222869 0.856257 -0.031691
v -0.222203 0.855788 -0.030381
v -0.221107 0.856639 -0.030603
vn 0.4069 -0.9122 0.0484
vn 0.9899 -0.1306 0.0555
vn 0.7932 -0.2770 0.5423
vn 0.0808 -0.7219 0.6873
vn 0.4442 0.8244 0.3508
vn 0.3444 0.5696 0.7463
vn 0.9883 -0.0550 -0.1424
vn 0.4431 0.8767 0.1872
vn 0.3680 -0.9254 -0.0903
vn 0.4239 0.9048 -0.0404
vn 0.9670 -0.0013 -0.2546
vn 0.3517 -0.9109 -0.2159
vn -0.7075 0.4487 0.5460
vn -0.7373 0.5125 0.4402
vn -0.7247 0.6360 0.2651
vn 0.8052 -0.0098 -0.5929
vn 0.3484 0.8726 -0.3424
vn -0.7584 0.6513 -0.0259
vn -0.6956 -0.6576 0.2894
vn -0.7897 -0.5909 0.1650
vn -0.8354 -0.5467 -0.0564
vn -0.2852 0.5194 -0.8055
vn -0.7781 0.5657 -0.2731
vn -0.6891 -0.5383 -0.4852
vn 0.3126 -0.8126 -0.4918
vn -0.0872 -0.1982 -0.9763
vn -0.6045 -0.6389 0.4758
vn -0.3600 0.1496 0.9209
vt 0.293053 0.979144
vt 0.294004 0.978789
vt 0.294350 0.979700
vt 0.294170 0.980229
vt 0.295022 0.978757
vt 0.294983 0.979606
vt 0.293888 0.977760
vt 0.295065 0.977766
vt 0.292807 0.977977
vt 0.294980 0.976701
vt 0.293669 0.976728
vt 0.292534 0.976971
vt 0.296137 0.979145
vt 0.296417 0.978134
vt 0.296241 0.977028
vt 0.293464 0.975697
vt 0.294891 0.975668
vt 0.296450 0.975777
vt 0.951502 0.970994
vt 0.952871 0.970987
vt 0.953123 0.972008
vt 0.951640 0.972028
vt 0.953177 0.973157
vt 0.951716 0.973005
vt 0.294959 0.974497
vt 0.295793 0.975007
vt 0.952901 0.974143
vt 0.951645 0.974026
vt 0.950353 0.971933
vt 0.950339 0.973035
vt 0.950534 0.973936
vt 0.951502 0.974778
vt 0.950361 0.974792
vt 0.952654 0.974873
vt 0.293682 0.974552
vt 0.292534 0.976044
vt 0.950307 0.970845
vt 0.950901 0.969761
vt 0.951419 0.970130
vt 0.952523 0.970131
vt 0.952002 0.969507
vt 0.295237 0.980059
s 1
usemtl abyss_chancel_background_pbr
f 4/1/1 1/2/2 2/3/3 25/4/4
f 1/2/2 3/5/5 28/6/6 2/3/3
f 3/5/5 1/2/2 5/7/7 8/8/8
f 1/2/2 4/1/1 7/9/9 5/7/7
f 10/10/10 8/8/8 5/7/7 6/11/11
f 6/11/11 5/7/7 7/9/9 17/12/12
f 26/13/13 3/5/5 8/8/8 9/14/14
f 12/15/15 9/14/14 8/8/8 10/10/10
f 21/16/16 11/17/17 10/10/10 6/11/11
f 14/18/18 12/15/15 10/10/10 11/17/17
f 23/19/19 9/20/14 12/21/15 13/22/20
f 12/21/15 14/23/18 16/24/21 13/22/20
f 14/18/18 11/17/17 22/25/22 15/26/23
f 16/24/21 14/23/18 15/27/23 18/28/24
f 7/29/9 13/22/20 16/24/21 17/30/12
f 16/24/21 18/28/24 19/31/25 17/30/12
f 19/31/25 18/28/24 20/32/26 21/33/16
f 15/27/23 22/34/22 20/32/26 18/28/24
f 11/17/17 21/16/16 20/35/26 22/25/22
f 6/11/11 17/12/12 19/36/25 21/16/16
f 23/19/19 13/22/20 7/29/9 4/37/1
f 4/37/1 25/38/4 24/39/27 23/19/19
f 9/20/14 23/19/19 24/39/27 26/40/13
f 24/39/27 25/38/4 27/41/28 26/40/13
f 26/13/13 27/42/28 28/6/6 3/5/5
f 25/4/4 2/3/3 28/6/6 27/42/28
