# Blender 5.2.0 LTS
# www.blender.org
mtllib terrain-abyss-chancel-object-022.mtl
o terrain-abyss-chancel-object-022
v -0.820301 0.024664 0.075992
v -0.836186 0.024567 0.072647
v -0.823253 0.028458 0.083354
v -0.805339 0.022385 0.082842
v -0.816453 0.025740 0.068479
v -0.833071 0.027077 0.063305
v -0.814032 0.032835 0.062371
v -0.799933 0.024312 0.073934
v -0.799410 0.031041 0.066328
v -0.786396 0.023085 0.080801
v -0.794149 0.022246 0.088243
v -0.777183 0.019880 0.080401
v -0.787877 0.027957 0.069425
v -0.777229 0.031100 0.093427
v -0.771696 0.043851 0.091449
v -0.776793 0.025257 0.105892
v -0.764461 0.033831 0.096937
v -0.785058 0.034784 0.089586
v -0.777316 0.018899 0.094875
v -0.776477 0.016325 0.109742
v -0.770461 0.014462 0.097162
v -0.763285 0.015050 0.097085
v -0.768661 0.017672 0.081873
v -0.767755 0.013782 0.109411
v -0.764228 0.019355 0.113469
v -0.759613 0.016134 0.103371
v -0.759619 0.022956 0.106579
v -0.752277 0.021920 0.088662
v -0.751277 0.030129 0.092947
v -0.743852 0.022298 0.073594
v -0.759067 0.018663 0.084334
v -0.754782 0.017859 0.070853
v -0.752175 0.018886 0.057723
v -0.767047 0.017447 0.068828
v -0.778459 0.020197 0.068872
v -0.766929 0.018505 0.057046
v -0.780577 0.021975 0.060374
v -0.768017 0.019431 0.045647
v -0.787449 0.025189 0.048188
v -0.768630 0.021903 0.033777
v -0.750909 0.019851 0.045714
v -0.736674 0.027659 0.045547
v -0.751543 0.020565 0.033510
v -0.739500 0.027054 0.033702
v -0.753269 0.020309 0.018371
v -0.744368 0.028116 0.014213
v -0.753421 0.021352 0.002980
v -0.770314 0.025691 0.020628
v -0.766859 0.024260 0.003439
v -0.786867 0.024091 0.019669
v -0.782841 0.024653 0.003247
v -0.787717 0.026703 0.032644
v -0.804912 0.029497 0.014313
v -0.816811 0.035470 0.008140
v -0.806947 0.028919 0.026868
v -0.817265 0.031480 0.014849
v -0.798399 0.028677 0.000915
v -0.808580 0.035072 -0.002518
v -0.793562 0.027953 -0.014443
v -0.789560 0.027207 -0.028619
v -0.805197 0.033590 -0.017061
v -0.778978 0.026761 -0.011585
v -0.763978 0.024888 -0.009552
v -0.775779 0.025880 -0.024476
v -0.760985 0.025153 -0.019408
v -0.773861 0.026334 -0.036899
v -0.773036 0.030166 -0.048379
v -0.785837 0.029628 -0.041195
v -0.757866 0.025334 -0.031752
v -0.758560 0.028169 -0.045926
v -0.752834 0.027283 -0.018776
v -0.745256 0.025196 -0.041044
v -0.744321 0.028864 -0.035816
v -0.737058 0.022849 -0.045083
v -0.747063 0.025614 -0.046762
v -0.743043 0.033024 -0.046416
v -0.739197 0.023054 -0.049666
v -0.733066 0.022789 -0.051138
v -0.737425 0.028214 -0.050082
v -0.732167 0.026462 -0.052481
v -0.735418 0.027370 -0.045039
v -0.731193 0.024919 -0.051182
v -0.731844 0.023066 -0.048870
v -0.739575 0.039760 -0.031645
v -0.739702 0.042642 -0.047431
v -0.757275 0.032904 -0.054389
v -0.771599 0.034602 -0.057921
v -0.753874 0.041414 -0.060494
v -0.752732 0.054199 -0.063072
v -0.771455 0.041647 -0.065593
v -0.774482 0.053433 -0.067875
v -0.787481 0.040081 -0.062539
v -0.791463 0.047593 -0.061912
v -0.785234 0.035011 -0.057433
v -0.798917 0.034958 -0.059490
v -0.810028 0.027872 -0.054073
v -0.795355 0.030515 -0.056703
v -0.801811 0.039832 -0.057176
v -0.811872 0.031066 -0.051620
v -0.801172 0.041321 -0.047744
v -0.811376 0.031132 -0.047754
v -0.795661 0.054142 -0.054312
v -0.796271 0.035144 -0.045278
v -0.802801 0.044597 -0.035207
v -0.799779 0.033769 -0.032715
v -0.801427 0.059290 -0.040244
v -0.806741 0.046118 -0.017625
v -0.803022 0.066794 -0.020575
v -0.811095 0.045753 -0.002650
v -0.810423 0.058909 -0.002382
v -0.824224 0.044384 0.008224
v -0.823811 0.054504 0.010964
v -0.832671 0.048042 0.010590
v -0.824864 0.042083 0.004921
v -0.832592 0.045753 0.005274
v -0.826504 0.037782 0.000165
v -0.822526 0.034126 0.010058
v -0.832312 0.027940 0.017488
v -0.823753 0.031351 0.003907
v -0.832425 0.023561 0.007514
v -0.824472 0.027879 -0.000888
v -0.822591 0.025661 -0.005403
v -0.827941 0.031086 -0.005078
v -0.827854 0.024218 0.000552
v -0.824235 0.023048 -0.005826
v -0.832700 0.023994 -0.002209
v -0.835106 0.028431 -0.005111
v -0.839557 0.023634 0.001111
v -0.828408 0.023449 -0.005838
v -0.828941 0.026230 -0.007272
v -0.823969 0.023924 -0.010182
v -0.824431 0.026664 -0.008186
v -0.842851 0.028977 -0.003848
v -0.851810 0.022855 0.004991
v -0.847237 0.021065 0.014201
v -0.865726 0.022706 0.006150
v -0.853321 0.029633 -0.001112
v -0.852784 0.037052 -0.001161
v -0.867378 0.031928 0.000536
v -0.866556 0.039706 -0.000197
v -0.880505 0.034108 0.005906
v -0.878595 0.025855 0.008477
v -0.882964 0.033323 0.023857
v -0.879943 0.042465 0.005519
v -0.876561 0.049849 0.006767
v -0.882469 0.042894 0.023608
v -0.876928 0.042257 0.039414
v -0.875416 0.051378 0.021988
v -0.873066 0.050081 0.033943
v -0.859713 0.053226 0.019035
v -0.849352 0.045272 0.014534
v -0.859916 0.050699 0.032270
v -0.862610 0.049218 0.004291
v -0.851122 0.041749 0.005133
v -0.841023 0.042249 0.001848
v -0.842497 0.036719 -0.003705
v -0.832948 0.041098 -0.000510
v -0.840365 0.045890 0.009758
v -0.839825 0.046035 0.016429
v -0.834596 0.040724 0.019320
v -0.850014 0.043552 0.024325
v -0.848454 0.041213 0.036593
v -0.840790 0.040993 0.023309
v -0.834954 0.046038 0.024234
v -0.843694 0.041164 0.030918
v -0.840109 0.045873 0.031831
v -0.839516 0.040832 0.043834
v -0.837805 0.056089 0.031425
v -0.839214 0.053719 0.044785
v -0.837570 0.070490 0.031402
v -0.832383 0.055712 0.021698
v -0.829764 0.072938 0.017627
v -0.816956 0.073695 0.006717
v -0.820521 0.088828 0.022330
v -0.805841 0.088937 0.035359
v -0.830935 0.087579 0.034822
v -0.807791 0.086484 0.012258
v -0.796603 0.088136 0.026755
v -0.798274 0.083583 0.007697
v -0.805325 0.075544 0.000366
v -0.788687 0.088091 0.020754
v -0.796555 0.091646 0.001579
v -0.803687 0.088439 -0.011692
v -0.792805 0.102910 -0.000891
v -0.784249 0.094447 0.014513
v -0.771871 0.095161 0.021753
v -0.780174 0.102608 0.008356
v -0.765525 0.101999 0.015299
v -0.774460 0.105885 0.000295
v -0.759854 0.099731 0.007811
v -0.767302 0.105800 -0.014162
v -0.791286 0.105458 -0.010370
v -0.781628 0.104707 -0.022465
v -0.785046 0.097676 -0.033775
v -0.783655 0.079931 -0.037473
v -0.761428 0.099736 -0.027941
v -0.751964 0.095053 -0.018203
v -0.761504 0.085116 -0.033471
v -0.750157 0.080507 -0.021870
v -0.759938 0.075042 -0.042842
v -0.756245 0.067907 -0.056878
v -0.744341 0.071861 -0.034407
v -0.782763 0.072639 -0.044675
v -0.779878 0.067155 -0.060756
v -0.742167 0.060729 -0.026719
v -0.741068 0.065453 -0.051677
v -0.738485 0.054228 -0.047872
v -0.738657 0.050846 -0.028732
v -0.748062 0.059809 -0.010033
v -0.748960 0.068447 -0.018494
v -0.750330 0.067121 -0.009181
v -0.751787 0.079735 -0.008448
v -0.751175 0.065668 0.002161
v -0.744865 0.058308 0.001394
v -0.753062 0.063987 0.014852
v -0.755696 0.080661 0.004060
v -0.759404 0.080748 0.016374
v -0.763951 0.092163 0.020572
v -0.760707 0.077922 0.032247
v -0.767448 0.086961 0.031413
v -0.762928 0.078105 0.045406
v -0.754322 0.058644 0.032357
v -0.743017 0.050302 0.029458
v -0.749170 0.054731 0.042534
v -0.761220 0.064211 0.045222
v -0.761423 0.054674 0.041025
v -0.764535 0.066956 0.059103
v -0.764703 0.079884 0.059103
v -0.769392 0.065909 0.071104
v -0.759889 0.056382 0.058509
v -0.749146 0.053898 0.058971
v -0.765532 0.055270 0.067277
v -0.754645 0.053300 0.071821
v -0.772936 0.052998 0.075075
v -0.760834 0.051895 0.084186
v -0.776702 0.052091 0.084850
v -0.779635 0.053570 0.075125
v -0.784377 0.045115 0.073862
v -0.786663 0.056366 0.069717
v -0.783044 0.070581 0.072002
v -0.791467 0.045442 0.065992
v -0.802881 0.060420 0.062711
v -0.823763 0.063911 0.053988
v -0.805873 0.047173 0.059361
v -0.800479 0.074639 0.064965
v -0.820504 0.078756 0.055370
v -0.795614 0.085099 0.058822
v -0.814079 0.087356 0.046916
v -0.788784 0.087323 0.048771
v -0.779795 0.084161 0.067994
v -0.774336 0.086364 0.055981
v -0.767913 0.081011 0.069980
v -0.770757 0.086510 0.043640
v -0.782652 0.087914 0.039108
v -0.777269 0.089036 0.028639
v -0.835280 0.082960 0.045769
v -0.838818 0.068094 0.045873
v -0.807930 0.033626 0.055586
v -0.824283 0.049651 0.051764
v -0.824132 0.036540 0.048481
v -0.822781 0.029115 0.036469
v -0.834080 0.028375 0.035213
v -0.822542 0.030287 0.022250
v -0.806334 0.027923 0.042148
v -0.831709 0.028728 0.024795
v -0.843005 0.027465 0.026769
v -0.845937 0.026674 0.037884
v -0.844246 0.027568 0.024901
v -0.852807 0.024732 0.030691
v -0.859065 0.030067 0.041442
v -0.860808 0.019962 0.018997
v -0.872241 0.022369 0.037974
v -0.844192 0.024590 0.022605
v -0.877375 0.031647 0.040688
v -0.878510 0.022075 0.023340
v -0.860898 0.041533 0.041779
v -0.794401 0.031782 0.061035
v -0.786010 0.030546 0.065273
v -0.788280 0.043330 0.078371
v -0.792509 0.041738 0.086003
v -0.778777 0.043506 0.085680
v -0.800249 0.042225 0.070166
v -0.803124 0.043480 0.078714
v -0.814749 0.041996 0.064331
v -0.833363 0.039153 0.058023
v -0.817000 0.045836 0.071268
v -0.836549 0.044273 0.065112
v -0.820178 0.043347 0.079743
v -0.822893 0.037454 0.085616
v -0.835028 0.044958 0.072893
v -0.809254 0.040244 0.087758
v -0.802751 0.038543 0.097102
v -0.814987 0.033621 0.092077
v -0.812590 0.024636 0.089763
v -0.810666 0.031490 0.101394
v -0.804772 0.024113 0.099168
v -0.797575 0.031652 0.103032
v -0.839490 0.039286 0.078519
v -0.836344 0.030727 0.081672
v -0.843322 0.034450 0.068737
v -0.839877 0.031196 0.061384
v -0.829344 0.033525 0.057115
v -0.770495 0.051244 0.091227
v -0.746347 0.051415 0.090915
v -0.761097 0.042497 0.093527
v -0.747556 0.041647 0.091280
v -0.740602 0.042358 0.075531
v -0.743239 0.053114 0.074808
v -0.740637 0.031806 0.075057
v -0.739744 0.041984 0.057828
v -0.739156 0.040716 0.041898
v -0.739577 0.032632 0.058378
v -0.740313 0.050379 0.058374
v -0.740744 0.049540 0.041969
v -0.737158 0.032754 0.041345
v -0.740700 0.024118 0.059138
v -0.739105 0.033533 0.031590
v -0.740021 0.041200 0.029176
v -0.743499 0.034435 0.015558
v -0.737525 0.033811 0.013005
v -0.743564 0.041407 0.017209
v -0.736819 0.039057 0.008340
v -0.745069 0.052157 0.014264
v -0.737202 0.046197 0.004040
v -0.738135 0.054622 -0.001579
v -0.728502 0.042345 0.001099
v -0.722493 0.038569 -0.000061
v -0.729964 0.037133 0.008658
v -0.727961 0.049850 -0.003267
v -0.730399 0.052929 -0.010792
v -0.720039 0.045370 -0.005475
v -0.716963 0.038597 -0.010592
v -0.720487 0.051236 -0.012524
v -0.714709 0.045642 -0.013213
v -0.725522 0.048525 -0.021802
v -0.731043 0.044804 -0.031391
v -0.732976 0.051478 -0.017890
v -0.721606 0.040310 -0.022288
v -0.722077 0.030817 -0.017171
v -0.732162 0.033843 -0.026256
v -0.733373 0.025728 -0.019754
v -0.742428 0.031430 -0.022946
v -0.743576 0.025004 -0.016073
v -0.752361 0.025489 -0.014407
v -0.743394 0.021934 -0.008308
v -0.743162 0.023193 0.002504
v -0.752558 0.023045 -0.008421
v -0.734126 0.019813 -0.009121
v -0.723711 0.023404 -0.006483
v -0.734949 0.023908 0.002710
v -0.728218 0.025809 0.004872
v -0.736638 0.028417 0.010721
v -0.731245 0.028119 0.010668
v -0.730574 0.032308 0.013173
v -0.724421 0.029777 0.007816
v -0.719546 0.031361 -0.002764
v -0.725412 0.035207 0.007378
v -0.735650 0.050303 -0.023415
v -0.740000 0.053152 -0.017009
v -0.742581 0.054751 -0.012297
v -0.753653 0.097457 -0.006885
v -0.829939 0.045287 0.016082
v -0.834549 0.034657 -0.005156
v -0.809010 0.027751 -0.046715
v -0.794619 0.030828 -0.050573
v -0.807647 0.024208 -0.048967
v -0.784836 0.031979 -0.049855
v -0.808475 0.024895 -0.053279
v -0.820813 0.020452 -0.047843
v -0.821195 0.021428 -0.053576
v -0.820983 0.026125 -0.049475
v -0.818357 0.023135 -0.042968
v -0.819276 0.027207 -0.045572
v -0.818329 0.024310 -0.054670
v -0.769067 0.026537 0.107350
v -0.771795 0.019607 0.115521
vn -0.4735 -0.8703 0.1357
vn -0.2177 -0.8095 -0.5452
vn 0.0755 -0.8816 -0.4659
vn -0.1214 -0.9914 0.0482
vn -0.3947 -0.6178 0.6800
vn -0.5165 -0.4208 0.7457
vn -0.1024 -0.9945 -0.0235
vn -0.4844 -0.7948 0.3656
vn 0.0462 -0.9139 -0.4033
vn 0.0911 -0.2691 -0.9588
vn 0.2718 -0.2418 -0.9315
vn 0.3053 -0.2365 -0.9224
vn -0.4864 -0.5500 -0.6789
vn -0.3190 -0.9382 0.1343
vn 0.1958 -0.9271 0.3196
vn -0.6021 0.2019 0.7725
vn 0.1163 0.2138 0.9699
vn -0.4360 -0.8927 -0.1137
vn -0.5043 -0.8630 0.0292
vn -0.7693 -0.6369 0.0502
vn 0.0456 0.3467 0.9369
vn -0.2936 0.3705 0.8812
vn 0.0344 0.5657 0.8239
vn -0.5046 0.5337 0.6786
vn -0.7847 0.4861 0.3847
vn -0.0598 0.7833 0.6187
vn -0.7482 -0.4460 0.4913
vn -0.1492 -0.9823 -0.1130
vn 0.1212 -0.9211 0.3699
vn -0.1134 -0.9904 -0.0787
vn 0.2512 -0.9679 -0.0125
vn 0.2664 -0.9569 -0.1160
vn 0.6508 -0.7235 0.2304
vn 0.4953 -0.0266 0.8683
vn -0.1844 0.0694 0.9804
vn 0.7161 0.2129 0.6647
vn 0.7126 -0.6504 0.2630
vn 0.7374 -0.0050 0.6754
vn 0.7185 -0.6649 0.2039
vn 0.9449 -0.1755 0.2762
vn 0.2143 -0.9763 0.0311
vn -0.0968 -0.9945 -0.0389
vn 0.7910 -0.6090 0.0589
vn 0.2388 -0.9693 -0.0587
vn -0.1147 -0.9897 -0.0855
vn -0.4664 -0.8843 -0.0229
vn -0.2952 -0.9529 0.0698
vn -0.1399 -0.9846 -0.1052
vn 0.2508 -0.9640 -0.0881
vn -0.1531 -0.9828 -0.1032
vn -0.1636 -0.9851 -0.0529
vn 0.2202 -0.9689 -0.1126
vn 0.8160 -0.5492 -0.1804
vn 0.8908 -0.4537 0.0269
vn 0.1402 -0.9893 -0.0399
vn 0.6327 -0.7270 0.2669
vn -0.1165 -0.9928 -0.0294
vn 0.0176 -0.9998 -0.0030
vn 0.1468 -0.9669 0.2089
vn -0.1260 -0.9905 -0.0549
vn -0.1048 -0.9928 -0.0575
vn -0.1368 -0.9906 -0.0080
vn -0.2407 -0.9616 -0.1316
vn -0.3233 -0.9401 -0.1080
vn -0.1195 -0.9915 -0.0514
vn -0.3137 -0.6775 -0.6653
vn -0.6906 -0.6519 -0.3132
vn -0.0266 -0.9452 -0.3254
vn 0.5620 -0.6877 -0.4595
vn 0.0562 -0.9907 -0.1237
vn -0.2978 -0.9524 -0.0651
vn -0.7776 -0.5995 -0.1895
vn -0.1003 -0.9940 -0.0425
vn -0.0877 -0.9956 -0.0326
vn -0.2765 -0.9534 -0.1206
vn -0.7201 -0.6593 -0.2163
vn -0.0934 -0.9909 -0.0967
vn 0.0387 -0.9970 -0.0666
vn -0.0825 -0.9797 -0.1825
vn 0.0712 -0.9969 -0.0321
vn -0.2316 -0.9567 -0.1765
vn -0.0628 -0.9321 -0.3568
vn -0.0425 -0.9741 -0.2221
vn -0.0177 -0.9084 -0.4178
vn -0.1831 -0.8051 -0.5641
vn 0.0791 -0.9662 0.2453
vn -0.0037 -0.9469 -0.3216
vn 0.2046 -0.9606 -0.1883
vn 0.7349 -0.6398 0.2247
vn 0.2542 -0.8494 0.4625
vn 0.7276 0.3693 0.5782
vn -0.3567 -0.6882 -0.6318
vn 0.2144 -0.6968 -0.6845
vn 0.7642 -0.0814 -0.6399
vn 0.0958 0.7057 -0.7020
vn 0.1023 -0.7336 -0.6718
vn 0.6725 -0.6805 0.2909
vn 0.4027 0.5188 -0.7541
vn 0.9847 0.0049 -0.1744
vn 0.7990 -0.3458 -0.4919
vn 0.2547 -0.8357 -0.4866
vn 0.8667 0.4359 -0.2426
vn 0.8962 -0.2074 -0.3923
vn 0.4365 -0.3801 -0.8155
vn 0.0125 -0.8075 -0.5898
vn 0.0469 -0.4352 -0.8991
vn 0.4454 0.0939 -0.8904
vn 0.9350 0.1115 -0.3366
vn -0.0804 0.1580 -0.9842
vn -0.1478 -0.3698 -0.9173
vn -0.5142 0.1877 -0.8369
vn 0.0609 -0.8215 -0.5670
vn -0.6881 0.3697 -0.6243
vn -0.2388 -0.2267 -0.9443
vn 0.1996 -0.8027 -0.5619
vn -0.5905 0.6938 -0.4123
vn -0.2476 -0.0176 -0.9687
vn 0.2218 -0.7925 -0.5681
vn -0.4047 0.7115 0.5744
vn -0.9695 0.2444 0.0196
vn -0.7544 0.4326 -0.4937
vn 0.1817 -0.2229 0.9578
vn -0.4694 -0.7956 0.3830
vn -0.8610 0.3818 -0.3360
vn -0.9692 -0.1071 -0.2219
vn -0.9669 -0.0433 -0.2515
vn -0.9074 0.2319 -0.3505
vn -0.8500 -0.0764 -0.5211
vn -0.8412 0.1474 -0.5202
vn -0.3001 0.3992 -0.8664
vn -0.7017 0.1951 -0.6853
vn -0.1422 0.9808 -0.1337
vn -0.6431 0.7243 -0.2487
vn 0.0763 0.8686 -0.4896
vn 0.5431 0.4449 -0.7121
vn 0.6667 0.4327 -0.6069
vn 0.1345 0.6978 -0.7036
vn 0.9643 -0.2583 -0.0586
vn 0.3360 -0.9291 0.1543
vn 0.3831 -0.9116 0.1492
vn 0.9879 -0.0977 0.1205
vn 0.4160 0.4784 -0.7733
vn 0.4210 -0.8656 0.2712
vn 0.5050 -0.8615 -0.0530
vn 0.9926 0.0775 0.0932
vn 0.5221 0.5298 -0.6684
vn -0.1931 -0.9195 -0.3424
vn -0.3130 -0.9004 -0.3021
vn -0.0791 -0.9045 -0.4191
vn -0.2241 -0.3621 -0.9048
vn -0.2398 -0.2765 -0.9306
vn -0.3758 -0.1766 -0.9097
vn 0.2850 -0.3565 -0.8898
vn 0.0220 0.3719 -0.9280
vn -0.0658 -0.8803 -0.4698
vn -0.1773 -0.3659 -0.9136
vn 0.1582 -0.9851 0.0680
vn 0.0124 -0.9999 0.0116
vn -0.1831 -0.8232 -0.5374
vn -0.2532 -0.2839 -0.9248
vn -0.1716 0.4144 -0.8938
vn -0.0868 0.3445 -0.9348
vn -0.1445 0.2215 -0.9644
vn -0.7449 0.2882 -0.6017
vn -0.7817 -0.1934 -0.5929
vn -0.6145 -0.6516 -0.4449
vn -0.9821 -0.1578 0.1026
vn -0.5980 -0.7990 0.0630
vn -0.9377 0.3316 0.1035
vn -0.4819 0.8749 0.0476
vn -0.4591 0.7550 -0.4683
vn 0.1262 0.7827 -0.6095
vn -0.5690 0.3784 0.7301
vn -0.5966 -0.2627 0.7583
vn -0.3324 0.8276 0.4522
vn 0.2969 0.9542 -0.0359
vn 0.2638 0.8789 0.3974
vn 0.2247 0.9670 -0.1199
vn 0.0880 0.8132 -0.5753
vn 0.4094 0.8779 0.2483
vn -0.1910 0.9497 -0.2481
vn -0.1476 0.8112 -0.5658
vn 0.0397 0.9388 0.3421
vn -0.2910 0.9557 0.0446
vn -0.1227 0.9870 0.1037
vn 0.1709 0.4112 0.8954
vn 0.1495 0.6419 0.7521
vn -0.1936 0.9809 0.0200
vn -0.7562 0.3645 -0.5434
vn -0.8429 0.5029 -0.1910
vn -0.5830 -0.1367 0.8009
vn -0.9535 0.0710 -0.2930
vn -0.8589 -0.0248 0.5115
vn -0.8151 0.0743 -0.5746
vn -0.8824 0.0953 0.4608
vn -0.9283 0.2083 -0.3081
vn -0.7417 0.2796 -0.6097
vn -0.5763 0.3663 -0.7306
vn -0.3658 0.8664 -0.3399
vn -0.2081 0.8609 -0.4643
vn -0.5938 0.8035 -0.0412
vn -0.1412 0.9202 0.3651
vn 0.0047 0.9993 0.0362
vn 0.0188 0.9969 -0.0768
vn -0.2759 0.9460 0.1704
vn -0.5713 0.8205 -0.0198
vn -0.8272 0.4273 -0.3650
vn -0.7676 0.5174 0.3784
vn -0.9013 0.3928 -0.1826
vn -0.5006 0.6826 0.5324
vn -0.5873 0.7219 0.3661
vn -0.5039 0.8625 -0.0458
vn -0.2701 0.8499 0.4525
vn 0.2504 0.7943 0.5535
vn -0.0101 0.7728 0.6345
vn -0.0391 0.9518 0.3043
vn 0.6837 0.6476 0.3364
vn 0.0971 0.9873 0.1260
vn 0.2659 0.9560 -0.1238
vn 0.8248 0.5450 0.1506
vn -0.2175 0.9123 -0.3469
vn -0.3502 0.5422 -0.7638
vn 0.4513 0.6390 -0.6230
vn -0.4000 0.5082 -0.7627
vn 0.3979 0.5221 -0.7544
vn 0.8666 0.4519 -0.2116
vn 0.9325 0.3384 -0.1263
vn 0.8052 0.5882 -0.0755
vn 0.2031 0.8499 -0.4863
vn -0.3804 0.7692 -0.5135
vn 0.2684 0.7029 -0.6587
vn -0.2734 0.6784 -0.6819
vn 0.7260 0.5227 -0.4469
vn 0.9308 0.2646 0.2522
vn 0.9305 0.3120 0.1916
vn 0.8200 0.5664 0.0822
vn 0.5820 0.8132 0.0022
vn 0.9411 0.3025 0.1510
vn 0.9720 0.1293 0.1960
vn 0.9413 0.1914 0.2781
vn 0.9020 0.3993 0.1643
vn 0.7580 0.6354 0.1472
vn 0.8654 0.4635 0.1906
vn 0.8400 0.4941 0.2239
vn 0.9199 0.2947 0.2586
vn 0.7135 0.4824 0.5081
vn 0.5440 0.7774 0.3158
vn 0.8859 0.4076 0.2213
vn 0.7921 0.5569 0.2501
vn 0.8774 0.4429 0.1845
vn 0.4156 0.9026 0.1122
vn 0.9439 0.2341 0.2327
vn 0.8572 0.5127 -0.0480
vn 0.8297 0.5569 -0.0377
vn 0.4395 0.8928 0.0994
vn 0.6197 0.7214 0.3091
vn 0.9565 0.1204 0.2658
vn 0.6004 0.7808 0.1730
vn 0.8438 0.4869 0.2257
vn 0.5619 0.4807 0.6732
vn 0.5076 0.1557 0.8474
vn 0.4742 0.7310 0.4907
vn 0.2285 0.9734 0.0167
vn 0.0831 0.9902 0.1122
vn 0.0905 0.8183 0.5676
vn 0.0202 0.8958 0.4440
vn -0.3731 0.4266 0.8239
vn -0.4772 0.7674 0.4282
vn -0.1507 0.6954 0.7026
vn -0.8427 0.3326 0.4233
vn -0.5289 -0.1415 0.8368
vn -0.4297 0.0343 0.9023
vn -0.2207 0.1848 0.9577
vn -0.3746 0.2783 0.8844
vn -0.4087 -0.0876 0.9085
vn -0.4098 -0.1694 0.8963
vn -0.3859 0.4250 0.8188
vn -0.4458 -0.0450 0.8940
vn -0.4145 -0.1441 0.8986
vn -0.0110 0.7457 0.6662
vn -0.1788 0.8416 0.5097
vn 0.0118 0.9937 0.1114
vn 0.2736 0.9526 0.1332
vn 0.0464 0.9974 0.0555
vn -0.7078 0.5416 0.4535
vn -0.4884 -0.6036 0.6302
vn -0.3713 -0.6100 0.7000
vn -0.3521 -0.5483 0.7586
vn -0.1194 -0.9651 0.2331
vn -0.0449 -0.9209 0.3871
vn -0.1808 -0.9702 0.1613
vn 0.1345 -0.9906 0.0244
vn 0.2549 -0.9378 0.2355
vn 0.0710 -0.7518 0.6555
vn 0.1653 -0.3286 0.9299
vn 0.1356 -0.9376 0.3202
vn 0.4196 -0.7985 0.4317
vn 0.3254 -0.8734 0.3622
vn -0.2279 -0.8141 0.5341
vn -0.8724 -0.4642 0.1532
vn -0.3742 0.9272 -0.0146
vn 0.0353 0.9951 0.0925
vn 0.0744 0.9134 0.4002
vn 0.2913 0.7491 -0.5950
vn 0.2385 0.6583 -0.7140
vn 0.0659 0.9922 -0.1060
vn -0.2433 0.3776 -0.8935
vn -0.4881 0.8151 -0.3120
vn -0.3857 0.8835 0.2657
vn -0.1119 0.8929 0.4360
vn -0.1906 0.8855 0.4237
vn -0.3702 0.3867 0.8446
vn -0.6645 0.2246 0.7127
vn -0.7293 0.3343 0.5970
vn -0.0584 0.7711 0.6340
vn -0.6079 0.1138 0.7858
vn -0.1235 -0.6979 0.7055
vn 0.4118 0.0295 0.9108
vn -0.9931 -0.0422 -0.1094
vn -0.6996 -0.3161 -0.6408
vn 0.6122 0.1617 0.7740
vn 0.4426 0.6567 0.6106
vn 0.6524 0.7420 0.1547
vn 0.9716 0.0324 0.2342
vn 0.9928 0.1054 0.0562
vn 0.7946 0.6067 0.0246
vn 0.9930 -0.0142 0.1176
vn 0.9856 0.1662 -0.0315
vn 0.9977 0.0342 -0.0590
vn 0.9710 0.1598 -0.1779
vn 0.9780 0.0082 -0.2083
vn 0.9364 -0.0558 0.3465
vn 0.9715 0.1879 0.1444
vn 0.3697 0.0447 0.9281
vn 0.5288 0.4820 0.6987
vn 0.1210 -0.6959 0.7079
vn 0.6032 0.5048 0.6176
vn 0.5470 0.7921 0.2707
vn 0.4344 0.5608 0.7049
vn 0.4102 0.7180 0.5624
vn 0.3968 0.6016 0.6932
vn 0.7379 0.3519 0.5758
vn 0.6677 0.4432 0.5981
vn 0.6832 0.4317 0.5890
vn 0.5937 0.8043 -0.0245
vn 0.2613 0.9651 -0.0154
vn 0.9286 -0.2711 0.2533
vn 0.9882 -0.1405 0.0610
vn 0.9634 0.2499 -0.0969
vn 0.4740 0.6535 -0.5901
vn 0.7371 -0.1152 -0.6658
vn 0.1837 0.9324 -0.3113
vn 0.4025 0.2408 -0.8832
vn 0.2615 0.8809 -0.3944
vn 0.3031 -0.5164 -0.8009
vn 0.6917 -0.5519 -0.4658
vn 0.1460 -0.7569 -0.6370
vn -0.1128 -0.8411 -0.5290
vn 0.1102 -0.9853 -0.1304
vn -0.0806 -0.9857 -0.1482
vn -0.0724 -0.9824 -0.1720
vn 0.0891 -0.9307 0.3548
vn 0.3785 -0.8184 0.4324
vn 0.6015 -0.7987 -0.0161
vn 0.1623 -0.7162 0.6787
vn 0.3018 0.0076 0.9533
vn 0.7515 -0.2624 0.6053
vn 0.2767 0.9400 -0.1997
vn 0.3835 -0.8795 0.2817
vn 0.2105 -0.9679 0.1372
vn -0.6017 -0.7527 0.2671
vn -0.6059 -0.5537 -0.5712
vn -0.1809 -0.2355 0.9549
vn -0.8496 0.5180 -0.0990
vn -0.3493 0.1398 -0.9265
vn -0.5632 0.6039 0.5640
vt 0.330607 0.822146
vt 0.333633 0.819036
vt 0.340907 0.826828
vt 0.337361 0.829201
vt 0.333944 0.831536
vt 0.328185 0.826293
vt 0.343688 0.837556
vt 0.337814 0.838270
vt 0.347887 0.834539
vt 0.336783 0.816212
vt 0.344064 0.823074
vt 0.350392 0.829835
vt 0.355310 0.834968
vt 0.354272 0.843022
vt 0.348459 0.844175
vt 0.355932 0.855346
vt 0.350682 0.853742
vt 0.361758 0.837319
vt 0.360948 0.843659
vt 0.363416 0.848605
vt 0.366935 0.863316
vt 0.358620 0.861351
vt 0.367167 0.860180
vt 0.351146 0.861321
vt 0.364226 0.854353
vt 0.370811 0.856771
vt 0.367864 0.851639
vt 0.369324 0.847123
vt 0.371557 0.851019
vt 0.369137 0.842031
vt 0.376025 0.844260
vt 0.373897 0.847715
vt 0.375438 0.851744
vt 0.372118 0.853594
vt 0.369344 0.853702
vt 0.374388 0.855425
vt 0.380291 0.849612
vt 0.379022 0.860906
vt 0.385794 0.847873
vt 0.386147 0.856802
vt 0.379914 0.840663
vt 0.368896 0.837956
vt 0.390105 0.843994
vt 0.383840 0.836349
vt 0.375016 0.835396
vt 0.116512 0.517540
vt 0.118497 0.514081
vt 0.123478 0.517174
vt 0.119886 0.519702
vt 0.125641 0.508606
vt 0.130164 0.516401
vt 0.664784 0.116128
vt 0.668355 0.120544
vt 0.660286 0.122965
vt 0.659241 0.116717
vt 0.137900 0.514312
vt 0.136249 0.508606
vt 0.661790 0.110046
vt 0.656613 0.112868
vt 0.667891 0.108194
vt 0.668532 0.112445
vt 0.670251 0.117713
vt 0.656361 0.106826
vt 0.660075 0.103929
vt 0.651278 0.111060
vt 0.648908 0.103949
vt 0.652167 0.101965
vt 0.645239 0.107546
vt 0.162314 0.862197
vt 0.163441 0.853554
vt 0.171848 0.855291
vt 0.171514 0.863855
vt 0.177885 0.861457
vt 0.178459 0.852218
vt 0.168632 0.873954
vt 0.160827 0.870272
vt 0.140161 0.500901
vt 0.147878 0.501920
vt 0.142626 0.510246
vt 0.165803 0.878268
vt 0.157884 0.875894
vt 0.154225 0.497521
vt 0.148636 0.496748
vt 0.152790 0.495096
vt 0.144764 0.493824
vt 0.151758 0.867976
vt 0.149597 0.874723
vt 0.154387 0.860248
vt 0.147414 0.859104
vt 0.143741 0.865778
vt 0.140489 0.872421
vt 0.156654 0.852175
vt 0.151215 0.850624
vt 0.140446 0.858153
vt 0.145036 0.850436
vt 0.136738 0.864737
vt 0.638931 0.057699
vt 0.634507 0.065479
vt 0.633897 0.058842
vt 0.636556 0.052272
vt 0.639481 0.065819
vt 0.633307 0.080247
vt 0.639125 0.072636
vt 0.638623 0.077308
vt 0.153168 0.845022
vt 0.150868 0.844899
vt 0.644685 0.081331
vt 0.641746 0.088720
vt 0.640449 0.076881
vt 0.642811 0.076461
vt 0.640106 0.074388
vt 0.644735 0.060947
vt 0.645840 0.069507
vt 0.642146 0.073599
vt 0.640707 0.074897
vt 0.641058 0.075862
vt 0.641258 0.074909
vt 0.641380 0.075306
vt 0.651992 0.077593
vt 0.646577 0.086579
vt 0.659896 0.077717
vt 0.651885 0.068296
vt 0.650581 0.057309
vt 0.644558 0.051915
vt 0.650258 0.044687
vt 0.657288 0.054261
vt 0.657958 0.066837
vt 0.657282 0.039133
vt 0.119646 0.881115
vt 0.122404 0.882758
vt 0.115895 0.889236
vt 0.112624 0.886710
vt 0.639870 0.047783
vt 0.641750 0.043157
vt 0.124201 0.878144
vt 0.120928 0.877559
vt 0.635191 0.045792
vt 0.635327 0.042698
vt 0.122368 0.873740
vt 0.120766 0.873611
vt 0.627880 0.043271
vt 0.628186 0.041828
vt 0.123636 0.873272
vt 0.129838 0.877354
vt 0.126718 0.885078
vt 0.625840 0.046571
vt 0.631437 0.050728
vt 0.626683 0.051223
vt 0.623779 0.047089
vt 0.134850 0.886940
vt 0.138250 0.878483
vt 0.133384 0.871096
vt 0.148617 0.881659
vt 0.144144 0.893356
vt 0.715085 0.033554
vt 0.714662 0.040021
vt 0.702548 0.032910
vt 0.708446 0.029209
vt 0.157128 0.881664
vt 0.723352 0.032989
vt 0.722966 0.037629
vt 0.166096 0.882314
vt 0.726283 0.033371
vt 0.727928 0.034359
vt 0.507073 0.038874
vt 0.507191 0.040857
vt 0.501139 0.041451
vt 0.501735 0.040101
vt 0.495876 0.040775
vt 0.496011 0.043677
vt 0.501218 0.038691
vt 0.506564 0.036276
vt 0.496164 0.038159
vt 0.150330 0.490160
vt 0.492374 0.030544
vt 0.488797 0.032888
vt 0.497066 0.036898
vt 0.501355 0.036828
vt 0.496066 0.033278
vt 0.498243 0.034106
vt 0.498391 0.035905
vt 0.499739 0.035503
vt 0.498208 0.030481
vt 0.499047 0.032482
vt 0.498244 0.027027
vt 0.503326 0.027480
vt 0.503110 0.031441
vt 0.500822 0.033386
vt 0.499313 0.034585
vt 0.504573 0.033525
vt 0.499197 0.020640
vt 0.504921 0.021894
vt 0.493052 0.021503
vt 0.493420 0.012925
vt 0.501651 0.013556
vt 0.507543 0.013952
vt 0.507665 0.029594
vt 0.509119 0.023743
vt 0.511139 0.016142
vt 0.914124 0.762467
vt 0.920292 0.765055
vt 0.912114 0.769304
vt 0.908424 0.765065
vt 0.898798 0.770311
vt 0.900383 0.766588
vt 0.903305 0.759563
vt 0.897308 0.759234
vt 0.908058 0.758254
vt 0.912887 0.754407
vt 0.917479 0.758777
vt 0.921526 0.757225
vt 0.905189 0.750668
vt 0.899960 0.751000
vt 0.909568 0.750685
vt 0.919438 0.748745
vt 0.913303 0.745959
vt 0.924077 0.747433
vt 0.926505 0.753882
vt 0.918532 0.740906
vt 0.927766 0.757096
vt 0.518341 0.033230
vt 0.512808 0.037103
vt 0.510802 0.033764
vt 0.513180 0.027358
vt 0.513248 0.039442
vt 0.520516 0.037292
vt 0.922532 0.737226
vt 0.921250 0.733708
vt 0.923158 0.730043
vt 0.925559 0.733049
vt 0.918125 0.735060
vt 0.906424 0.743169
vt 0.908776 0.736888
vt 0.913301 0.735061
vt 0.919569 0.729999
vt 0.914238 0.730664
vt 0.907235 0.730561
vt 0.916383 0.724387
vt 0.909149 0.723100
vt 0.922065 0.724990
vt 0.912017 0.714760
vt 0.918356 0.715246
vt 0.925217 0.714756
vt 0.926671 0.725078
vt 0.729436 0.049425
vt 0.721593 0.049768
vt 0.729697 0.038665
vt 0.728999 0.062687
vt 0.721468 0.061187
vt 0.921264 0.704611
vt 0.928014 0.703603
vt 0.737134 0.068338
vt 0.734956 0.081797
vt 0.728537 0.078269
vt 0.722607 0.076353
vt 0.717972 0.076415
vt 0.716542 0.059903
vt 0.715367 0.050466
vt 0.712653 0.060461
vt 0.706777 0.048843
vt 0.713125 0.074498
vt 0.708165 0.061962
vt 0.703413 0.058519
vt 0.707562 0.071093
vt 0.704383 0.078131
vt 0.708609 0.082414
vt 0.712907 0.085553
vt 0.699140 0.077690
vt 0.702614 0.068824
vt 0.694554 0.065257
vt 0.690896 0.073174
vt 0.695874 0.056494
vt 0.691551 0.049007
vt 0.686675 0.060980
vt 0.683148 0.041729
vt 0.679483 0.058458
vt 0.685697 0.069390
vt 0.678528 0.071413
vt 0.670715 0.068247
vt 0.673240 0.055327
vt 0.677623 0.039664
vt 0.665409 0.052716
vt 0.667630 0.036419
vt 0.663206 0.062531
vt 0.127773 0.898654
vt 0.132375 0.904397
vt 0.120152 0.894041
vt 0.674271 0.077225
vt 0.666540 0.075959
vt 0.673123 0.083537
vt 0.668515 0.084490
vt 0.677240 0.082204
vt 0.683205 0.078814
vt 0.689394 0.082817
vt 0.681751 0.087125
vt 0.676603 0.089224
vt 0.687227 0.091491
vt 0.679559 0.095522
vt 0.696307 0.086731
vt 0.703693 0.084305
vt 0.708159 0.089141
vt 0.702628 0.092466
vt 0.692651 0.098084
vt 0.708391 0.096528
vt 0.713856 0.092905
vt 0.702134 0.100309
vt 0.683344 0.101041
vt 0.686234 0.105458
vt 0.691199 0.103608
vt 0.697019 0.101964
vt 0.708040 0.104831
vt 0.701941 0.107857
vt 0.713781 0.100875
vt 0.718102 0.104266
vt 0.712939 0.109497
vt 0.706198 0.111003
vt 0.694798 0.109883
vt 0.700546 0.114073
vt 0.359404 0.875573
vt 0.355679 0.871607
vt 0.363119 0.868193
vt 0.366442 0.873815
vt 0.355216 0.879173
vt 0.352319 0.871855
vt 0.353752 0.866104
vt 0.357642 0.864304
vt 0.349482 0.871882
vt 0.105726 0.504594
vt 0.102919 0.510449
vt 0.097325 0.505094
vt 0.099337 0.500168
vt 0.089471 0.496999
vt 0.093187 0.491737
vt 0.097639 0.484082
vt 0.104121 0.492323
vt 0.111475 0.496828
vt 0.102917 0.475835
vt 0.110753 0.481577
vt 0.118063 0.487818
vt 0.086690 0.484639
vt 0.092261 0.478008
vt 0.741559 0.084977
vt 0.737128 0.097501
vt 0.730950 0.095064
vt 0.724770 0.090593
vt 0.719160 0.096991
vt 0.724762 0.101926
vt 0.083767 0.488286
vt 0.718995 0.087871
vt 0.741683 0.072076
vt 0.107395 0.467529
vt 0.114960 0.472427
vt 0.914360 0.706478
vt 0.121712 0.479280
vt 0.115232 0.507304
vt 0.119728 0.499734
vt 0.125323 0.491427
vt 0.128375 0.483473
vt 0.135368 0.493161
vt 0.137351 0.487197
vt 0.130401 0.500472
vt 0.479847 0.030534
vt 0.484936 0.031460
vt 0.482905 0.036183
vt 0.476484 0.033231
vt 0.484915 0.023914
vt 0.479417 0.023527
vt 0.896203 0.745205
vt 0.888733 0.744074
vt 0.892437 0.739889
vt 0.898941 0.738795
vt 0.486131 0.024356
vt 0.487611 0.023540
vt 0.485525 0.017636
vt 0.895167 0.751858
vt 0.887967 0.758008
vt 0.896524 0.731379
vt 0.112276 0.512179
vt 0.111602 0.515920
vt 0.101517 0.516781
vt 0.347840 0.868455
vt 0.097333 0.526571
vt 0.097169 0.519948
vt 0.101872 0.524152
vt 0.095747 0.517703
vt 0.097453 0.513982
vt 0.107743 0.522601
vt 0.103859 0.531310
vt 0.099762 0.532762
vt 0.096075 0.533628
vt 0.096265 0.542925
vt 0.092554 0.543937
vt 0.100097 0.540583
vt 0.090218 0.542437
vt 0.092637 0.534127
vt 0.091707 0.529551
vt 0.089144 0.535325
vt 0.088487 0.532635
vt 0.085300 0.545345
vt 0.092387 0.525284
vt 0.086776 0.531268
vt 0.329214 0.832691
vt 0.332720 0.838804
vt 0.340055 0.844935
vt 0.334873 0.845076
vt 0.340894 0.851379
vt 0.335552 0.850989
vt 0.090798 0.525023
vt 0.086536 0.550697
vt 0.323129 0.823327
vt 0.324000 0.817714
vt 0.329946 0.815956
vt 0.328385 0.809529
vt 0.334450 0.812501
vt 0.375612 0.864952
vt 0.372779 0.868191
vt 0.374695 0.873368
vt 0.384064 0.867602
vt 0.689468 0.119410
vt 0.684309 0.113003
vt 0.689363 0.111317
vt 0.695107 0.116986
vt 0.684077 0.121112
vt 0.677322 0.114849
vt 0.680796 0.108140
vt 0.672765 0.110202
vt 0.677980 0.104435
vt 0.393175 0.851786
vt 0.672665 0.106858
vt 0.668775 0.103203
vt 0.674990 0.101143
vt 0.664739 0.102022
vt 0.669783 0.100147
vt 0.660072 0.101924
vt 0.672134 0.095707
vt 0.672197 0.090388
vt 0.667310 0.095574
vt 0.667359 0.092140
vt 0.667026 0.098918
vt 0.663951 0.095801
vt 0.663318 0.093083
vt 0.664629 0.098352
vt 0.662254 0.089703
vt 0.666179 0.088537
vt 0.659678 0.096675
vt 0.658868 0.093396
vt 0.659675 0.091065
vt 0.659350 0.085714
vt 0.656126 0.088047
vt 0.663321 0.084806
vt 0.655563 0.080943
vt 0.661304 0.081643
vt 0.651409 0.086594
vt 0.654248 0.091916
vt 0.649521 0.091352
vt 0.646102 0.093100
vt 0.642682 0.093586
vt 0.652076 0.097218
vt 0.649300 0.098160
vt 0.646165 0.098869
vt 0.655002 0.100684
vt 0.657445 0.099540
vt 0.655840 0.096611
vt 0.660068 0.100630
vt 0.663868 0.100348
vt 0.660278 0.099143
vt 0.642314 0.099585
vt 0.639698 0.094469
vt 0.665598 0.083480
vt 0.627069 0.044936
vt 0.633539 0.048295
vt 0.620416 0.041792
vt 0.621756 0.039910
vt 0.620809 0.043626
vt 0.118298 0.870911
vt 0.118267 0.871571
vt 0.116191 0.871174
vt 0.115969 0.869117
vt 0.618264 0.042810
vt 0.617615 0.041341
vt 0.122407 0.871515
vt 0.119378 0.871148
vt 0.118099 0.869714
vt 0.623845 0.039555
s 1
usemtl abyss_chancel_background_pbr
f 2/1/1 6/2/2 5/3/3 1/4/4
f 1/4/4 3/5/5 299/6/6 2/1/1
f 3/5/5 1/4/4 4/7/7 294/8/8
f 1/4/4 5/3/3 8/9/9 4/7/7
f 5/3/3 6/2/2 302/10/10 7/11/11
f 7/11/11 9/12/12 8/9/9 5/3/3
f 9/12/12 13/13/13 10/14/14 8/9/9
f 4/7/7 8/9/9 10/14/14 11/15/15
f 11/15/15 10/14/14 14/16/16 18/17/17
f 35/18/18 12/19/19 10/14/14 13/13/13
f 12/19/19 19/20/20 14/16/16 10/14/14
f 305/21/21 15/22/22 14/16/16 17/23/23
f 281/24/24 18/17/17 14/16/16 15/22/22
f 17/23/23 14/16/16 16/25/25 375/26/26
f 19/20/20 20/27/27 16/25/25 14/16/16
f 20/27/27 19/20/20 21/28/28 24/29/29
f 21/28/28 19/20/20 12/19/19 23/30/30
f 23/30/30 31/31/31 22/32/32 21/28/28
f 24/29/29 21/28/28 22/32/32 26/33/33
f 20/27/27 24/29/29 25/34/34 376/35/35
f 26/33/33 27/36/36 25/34/34 24/29/29
f 26/33/33 28/37/37 29/38/38 27/36/36
f 28/37/37 26/33/33 22/32/32 31/31/31
f 30/39/39 309/40/40 29/38/38 28/37/37
f 28/37/37 31/31/31 32/41/41 30/39/39
f 23/30/30 34/42/42 32/41/41 31/31/31
f 316/43/43 30/39/39 32/41/41 33/44/44
f 32/41/41 34/42/42 36/45/45 33/44/44
f 12/19/19 35/18/18 34/42/42 23/30/30
f 35/46/18 37/47/46 36/48/45 34/49/42
f 36/48/45 37/47/46 39/50/47 38/51/48
f 41/52/49 33/53/44 36/54/45 38/55/48
f 40/56/50 38/51/48 39/50/47 52/57/51
f 43/58/52 41/52/49 38/55/48 40/59/50
f 43/58/52 44/60/53 42/61/54 41/52/49
f 33/53/44 41/52/49 42/61/54 316/62/43
f 45/63/55 46/64/56 44/60/53 43/58/52
f 43/58/52 40/59/50 48/65/57 45/63/55
f 47/66/58 346/67/59 46/64/56 45/63/55
f 47/66/58 45/63/55 48/65/57 49/68/60
f 51/69/61 49/70/60 48/71/57 50/72/62
f 52/73/51 50/72/62 48/71/57 40/74/50
f 50/72/62 53/75/63 57/76/64 51/69/61
f 52/57/51 55/77/65 53/78/63 50/79/62
f 53/75/63 54/80/66 58/81/67 57/76/64
f 54/82/66 53/78/63 56/83/68 117/84/69
f 55/77/65 263/85/70 56/83/68 53/78/63
f 59/86/71 57/76/64 58/81/67 61/87/72
f 51/69/61 57/76/64 59/86/71 62/88/73
f 64/89/74 62/88/73 59/86/71 60/90/75
f 105/91/76 60/90/75 59/86/71 61/87/72
f 49/70/60 51/69/61 62/88/73 63/92/77
f 65/93/78 63/92/77 62/88/73 64/89/74
f 64/89/74 66/94/79 69/95/80 65/93/78
f 66/94/79 64/89/74 60/90/75 68/96/81
f 67/97/82 66/98/79 68/99/81 367/100/83
f 67/97/82 70/101/84 69/102/80 66/98/79
f 75/103/85 72/104/86 69/102/80 70/101/84
f 344/105/87 65/93/78 69/95/80 71/106/88
f 69/102/80 72/104/86 73/107/89 71/108/88
f 74/109/90 81/110/91 73/107/89 72/104/86
f 77/111/92 74/109/90 72/104/86 75/103/85
f 70/101/84 86/112/93 76/113/94 75/103/85
f 77/111/92 75/103/85 76/113/94 79/114/95
f 74/109/90 77/111/92 78/115/96 83/116/97
f 79/114/95 80/117/98 78/115/96 77/111/92
f 79/114/95 81/110/91 82/118/99 80/117/98
f 81/110/91 79/114/95 76/113/94 73/107/89
f 81/110/91 74/109/90 83/116/97 82/118/99
f 82/118/99 83/116/97 78/115/96 80/117/98
f 84/119/100 342/120/101 73/107/89 76/113/94
f 208/121/102 84/119/100 76/113/94 85/122/103
f 88/123/104 85/122/103 76/113/94 86/112/93
f 70/101/84 67/97/82 87/124/105 86/112/93
f 88/123/104 86/112/93 87/124/105 90/125/106
f 89/126/107 207/127/108 85/122/103 88/123/104
f 88/123/104 90/125/106 91/128/109 89/126/107
f 92/129/110 93/130/111 91/131/109 90/132/106
f 87/124/105 94/133/112 92/134/110 90/125/106
f 98/135/113 93/130/111 92/129/110 95/136/114
f 97/137/115 95/138/114 92/134/110 94/133/112
f 99/139/116 98/135/113 95/136/114 96/140/117
f 368/141/118 96/142/117 95/138/114 97/137/115
f 99/139/116 101/143/119 100/144/120 98/135/113
f 93/130/111 98/135/113 100/144/120 102/145/121
f 364/146/122 103/147/123 100/148/120 101/149/119
f 106/150/124 102/145/121 100/144/120 104/151/125
f 105/91/76 104/151/125 100/144/120 103/152/123
f 104/151/125 105/91/76 61/87/72 107/153/126
f 104/151/125 107/153/126 108/154/127 106/150/124
f 109/155/128 110/156/129 108/157/127 107/158/126
f 107/153/126 61/87/72 58/81/67 109/159/128
f 109/155/128 111/160/130 112/161/131 110/156/129
f 58/81/67 54/80/66 111/162/130 109/159/128
f 113/163/132 362/164/133 112/161/131 111/160/130
f 115/165/134 113/166/132 111/167/130 114/168/135
f 117/169/69 114/168/135 111/167/130 54/170/66
f 114/168/135 116/171/136 157/172/137 115/165/134
f 116/171/136 114/168/135 117/169/69 119/173/138
f 117/84/69 56/83/68 263/85/70 118/174/139
f 120/175/140 119/173/138 117/169/69 118/176/139
f 119/173/138 121/177/141 123/178/142 116/171/136
f 121/177/141 119/173/138 120/175/140 124/179/143
f 124/179/143 125/180/144 122/181/145 121/177/141
f 123/178/142 121/177/141 122/181/145 132/182/146
f 124/179/143 126/183/147 129/184/148 125/180/144
f 126/183/147 124/179/143 120/175/140 128/185/149
f 126/183/147 128/185/149 133/186/150 127/187/151
f 127/187/151 130/188/152 129/184/148 126/183/147
f 129/184/148 130/188/152 131/189/153 125/180/144
f 123/178/142 132/182/146 131/189/153 130/188/152
f 127/187/151 363/190/154 123/178/142 130/188/152
f 122/181/145 125/180/144 131/189/153 132/182/146
f 128/185/149 134/191/155 137/192/156 133/186/150
f 134/191/155 128/185/149 120/175/140 135/193/157
f 135/193/157 271/194/158 136/195/159 134/191/155
f 137/192/156 134/191/155 136/195/159 139/196/160
f 156/197/161 133/186/150 137/192/156 138/198/162
f 140/199/163 138/198/162 137/192/156 139/196/160
f 144/200/164 140/201/163 139/202/160 141/203/165
f 139/202/160 136/204/159 142/205/166 141/203/165
f 143/206/167 141/203/165 142/205/166 275/207/168
f 146/208/169 144/200/164 141/203/165 143/206/167
f 146/208/169 148/209/170 145/210/171 144/200/164
f 140/201/163 144/200/164 145/210/171 153/211/172
f 147/212/173 146/208/169 143/206/167 274/213/174
f 146/208/169 147/212/173 149/214/175 148/209/170
f 150/215/176 148/209/170 149/214/175 152/216/177
f 150/215/176 153/211/172 145/210/171 148/209/170
f 150/215/176 151/217/178 154/218/179 153/211/172
f 150/215/176 152/216/177 161/219/180 151/217/178
f 140/201/163 153/211/172 154/218/179 138/220/162
f 151/221/178 158/222/181 155/223/182 154/224/179
f 154/224/179 155/223/182 156/197/161 138/198/162
f 157/172/137 363/190/154 156/197/161 155/223/182
f 115/165/134 157/172/137 155/223/182 158/222/181
f 113/166/132 115/165/134 158/222/181 159/225/183
f 158/222/181 151/221/178 161/226/180 159/225/183
f 159/227/183 160/228/184 362/229/133 113/230/132
f 161/219/180 163/231/185 160/228/184 159/227/183
f 276/232/186 162/233/187 161/219/180 152/216/177
f 162/233/187 165/234/188 163/231/185 161/219/180
f 163/231/185 164/235/189 362/229/133 160/228/184
f 166/236/190 164/235/189 163/231/185 165/234/188
f 165/234/188 162/233/187 167/237/191 166/236/190
f 168/238/192 166/236/190 167/237/191 169/239/193
f 171/240/194 164/235/189 166/236/190 168/238/192
f 257/241/195 170/242/196 168/238/192 169/239/193
f 172/243/197 171/240/194 168/238/192 170/242/196
f 164/235/189 171/240/194 112/244/131 362/229/133
f 172/245/197 173/246/198 112/161/131 171/247/194
f 173/246/198 172/245/197 174/248/199 177/249/200
f 170/242/196 176/250/201 174/251/199 172/243/197
f 176/252/201 248/253/202 175/254/203 174/248/199
f 177/249/200 174/248/199 175/254/203 178/255/204
f 181/256/205 179/257/206 177/249/200 178/255/204
f 180/258/207 173/246/198 177/249/200 179/257/206
f 179/257/206 182/259/208 183/260/209 180/258/207
f 182/259/208 179/257/206 181/256/205 185/261/210
f 183/260/209 182/259/208 184/262/211 192/263/212
f 184/262/211 182/259/208 185/261/210 187/264/213
f 188/265/214 187/264/213 185/261/210 186/266/215
f 186/266/215 185/261/210 181/256/205 255/267/216
f 187/264/213 188/265/214 190/268/217 189/269/218
f 189/269/218 192/263/212 184/262/211 187/264/213
f 191/270/219 189/269/218 190/268/217 361/271/220
f 189/269/218 191/270/219 193/272/221 192/263/212
f 183/260/209 192/263/212 193/272/221 194/273/222
f 196/274/223 194/273/222 193/272/221 191/270/219
f 194/273/222 195/275/224 108/157/127 183/260/209
f 196/274/223 198/276/225 195/275/224 194/273/222
f 191/270/219 361/271/220 197/277/226 196/274/223
f 198/276/225 196/274/223 197/277/226 199/278/227
f 198/276/225 199/278/227 202/279/228 200/280/229
f 198/276/225 200/280/229 203/281/230 195/275/224
f 201/282/231 204/283/232 203/281/230 200/280/229
f 200/280/229 202/279/228 206/284/233 201/282/231
f 203/285/230 106/150/124 108/154/127 195/286/224
f 102/145/121 106/150/124 203/285/230 204/287/232
f 93/130/111 102/145/121 204/287/232 91/131/109
f 89/126/107 91/128/109 204/283/232 201/282/231
f 202/279/228 199/278/227 210/288/234 205/289/235
f 205/289/235 207/127/108 206/284/233 202/279/228
f 89/126/107 201/282/231 206/284/233 207/127/108
f 207/127/108 205/289/235 208/121/102 85/122/103
f 205/289/235 209/290/236 360/291/237 208/121/102
f 209/290/236 205/289/235 210/288/234 211/292/238
f 211/292/238 210/288/234 199/278/227 212/293/239
f 216/294/240 213/295/241 211/292/238 212/293/239
f 214/296/242 209/290/236 211/292/238 213/295/241
f 213/295/241 215/297/243 323/298/244 214/296/242
f 217/299/245 215/297/243 213/295/241 216/294/240
f 217/299/245 216/294/240 190/268/217 218/300/246
f 212/293/239 361/271/220 190/268/217 216/294/240
f 217/299/245 218/300/246 220/301/247 219/302/248
f 215/297/243 217/299/245 219/302/248 222/303/249
f 221/304/250 219/302/248 220/301/247 253/305/251
f 225/306/252 222/303/249 219/302/248 221/304/250
f 323/298/244 215/297/243 222/303/249 223/307/253
f 314/308/254 223/307/253 222/303/249 224/309/255
f 226/310/256 224/309/255 222/303/249 225/306/252
f 227/311/257 230/312/258 226/310/256 225/306/252
f 227/311/257 225/306/252 221/304/250 228/313/259
f 227/311/257 228/313/259 252/314/260 229/315/261
f 229/315/261 232/316/262 230/312/258 227/311/257
f 231/317/263 224/309/255 226/310/256 230/312/258
f 232/316/262 233/318/264 231/317/263 230/312/258
f 232/319/262 234/320/265 235/321/266 233/322/264
f 229/323/261 237/324/267 234/320/265 232/319/262
f 236/325/268 303/326/269 235/321/266 234/320/265
f 237/324/267 238/327/270 236/325/268 234/320/265
f 241/328/271 238/329/270 237/330/267 239/331/272
f 239/331/272 237/330/267 229/332/261 240/333/273
f 240/333/273 245/334/274 242/335/275 239/331/272
f 241/328/271 239/331/272 242/335/275 244/336/276
f 246/337/277 243/338/278 242/335/275 245/334/274
f 242/335/275 243/338/278 259/339/279 244/336/276
f 250/340/280 247/341/281 245/334/274 240/333/273
f 248/253/202 246/342/277 245/343/274 247/344/281
f 175/254/203 248/253/202 247/344/281 249/345/282
f 251/346/283 249/345/282 247/344/281 250/347/280
f 251/346/283 250/347/280 252/314/260 228/313/259
f 240/333/273 229/332/261 252/348/260 250/340/280
f 251/346/283 228/313/259 221/304/250 253/305/251
f 249/345/282 251/346/283 253/305/251 254/349/284
f 253/305/251 220/301/247 255/267/216 254/349/284
f 254/349/284 255/267/216 181/256/205 178/255/204
f 254/349/284 178/255/204 175/254/203 249/345/282
f 218/300/246 186/266/215 255/267/216 220/301/247
f 248/253/202 176/252/201 256/350/285 246/342/277
f 243/338/278 246/337/277 256/351/285 257/352/195
f 170/242/196 257/241/195 256/353/285 176/250/201
f 243/338/278 257/352/195 169/354/193 259/339/279
f 277/355/286 241/328/271 244/336/276 258/356/287
f 258/356/287 244/336/276 259/339/279 260/357/288
f 259/339/279 169/354/193 167/358/191 260/357/288
f 261/359/289 260/357/288 167/358/191 262/360/290
f 264/361/291 258/356/287 260/357/288 261/359/289
f 262/362/290 265/363/292 263/364/70 261/365/289
f 264/361/291 261/359/289 263/85/70 55/77/65
f 55/77/65 52/57/51 39/50/47 264/361/291
f 258/356/287 264/361/291 39/50/47 277/355/286
f 118/176/139 263/364/70 265/363/292 266/366/293
f 267/367/294 266/366/293 265/363/292 262/362/290
f 270/368/295 269/369/296 266/370/293 267/371/294
f 268/372/297 273/373/298 118/176/139 266/366/293
f 273/373/298 268/372/297 266/366/293 269/374/296
f 270/368/295 274/213/174 272/375/299 269/369/296
f 271/376/158 269/369/296 272/375/299 275/207/168
f 135/193/157 273/373/298 269/374/296 271/194/158
f 273/373/298 135/193/157 120/175/140 118/176/139
f 143/206/167 275/207/168 272/375/299 274/213/174
f 271/376/158 275/207/168 142/205/166 136/204/159
f 276/232/186 147/212/173 274/213/174 270/368/295
f 270/368/295 267/371/294 162/233/187 276/232/186
f 276/232/186 152/216/177 149/214/175 147/212/173
f 267/371/294 262/377/290 167/237/191 162/233/187
f 278/378/300 277/355/286 39/50/47 37/47/46
f 277/355/286 278/378/300 238/329/270 241/328/271
f 37/47/46 35/46/18 13/379/13 278/378/300
f 278/378/300 13/379/13 279/380/301 238/329/270
f 279/381/301 281/24/24 236/325/268 238/327/270
f 283/382/302 280/383/303 279/380/301 282/384/304
f 279/380/301 280/383/303 18/385/17 281/386/24
f 9/387/12 282/384/304 279/380/301 13/379/13
f 7/388/11 284/389/305 282/384/304 9/387/12
f 284/389/305 286/390/306 283/382/302 282/384/304
f 285/391/307 287/392/308 286/390/306 284/389/305
f 284/389/305 7/388/11 302/393/10 285/391/307
f 286/390/306 287/392/308 290/394/309 288/395/310
f 288/395/310 291/396/311 283/382/302 286/390/306
f 289/397/312 293/398/313 291/396/311 288/395/310
f 289/397/312 288/395/310 290/394/309 298/399/314
f 292/400/315 280/383/303 283/382/302 291/396/311
f 291/396/311 293/398/313 295/401/316 292/400/315
f 289/402/312 3/5/5 294/8/8 293/403/313
f 294/8/8 296/404/317 295/405/316 293/403/313
f 297/406/318 292/407/315 295/405/316 296/404/317
f 296/404/317 294/8/8 4/7/7 11/15/15
f 11/15/15 18/17/17 297/406/318 296/404/317
f 280/383/303 292/400/315 297/408/318 18/385/17
f 300/409/319 298/399/314 290/394/309 287/392/308
f 289/402/312 298/410/314 299/6/6 3/5/5
f 300/411/319 2/1/1 299/6/6 298/410/314
f 2/1/1 300/411/319 301/412/320 6/2/2
f 287/413/308 285/414/307 301/412/320 300/411/319
f 301/412/320 285/414/307 302/10/10 6/2/2
f 281/24/24 15/22/22 303/326/269 236/325/268
f 15/22/22 305/21/21 235/321/266 303/326/269
f 305/21/21 306/415/321 304/416/322 235/321/266
f 233/322/264 235/321/266 304/416/322 308/417/323
f 305/21/21 17/23/23 29/38/38 306/415/321
f 307/418/324 306/415/321 29/38/38 309/40/40
f 307/418/324 308/417/323 304/416/322 306/415/321
f 307/419/324 310/420/325 313/421/326 308/422/323
f 310/420/325 307/419/324 309/423/40 312/424/327
f 311/425/328 314/308/254 313/421/326 310/420/325
f 310/420/325 312/424/327 315/426/329 311/425/328
f 314/308/254 224/309/255 231/317/263 313/421/326
f 308/422/323 313/421/326 231/317/263 233/318/264
f 311/425/328 318/427/330 223/307/253 314/308/254
f 316/62/43 42/61/54 315/426/329 312/424/327
f 312/428/327 309/40/40 30/39/39 316/43/43
f 318/427/330 311/425/328 315/426/329 317/429/331
f 44/60/53 317/429/331 315/426/329 42/61/54
f 317/429/331 319/430/332 321/431/333 318/427/330
f 319/430/332 317/429/331 44/60/53 46/64/56
f 319/430/332 320/432/334 322/433/335 321/431/333
f 320/432/334 319/430/332 46/64/56 352/434/336
f 318/427/330 321/431/333 323/298/244 223/307/253
f 322/433/335 324/435/337 323/298/244 321/431/333
f 325/436/338 214/296/242 323/298/244 324/435/337
f 324/435/337 326/437/339 329/438/340 325/436/338
f 328/439/341 326/437/339 324/435/337 322/433/335
f 327/440/342 331/441/343 329/438/340 326/437/339
f 326/437/339 328/439/341 357/442/344 327/440/342
f 331/441/343 333/443/345 330/444/346 329/438/340
f 325/436/338 329/438/340 330/444/346 360/291/237
f 356/445/347 332/446/348 331/441/343 327/440/342
f 331/441/343 332/446/348 334/447/349 333/443/345
f 335/448/350 333/443/345 334/447/349 338/449/351
f 333/443/345 335/448/350 337/450/352 330/444/346
f 337/450/352 335/448/350 336/451/353 358/452/354
f 338/449/351 340/453/355 336/451/353 335/448/350
f 338/449/351 339/454/356 341/455/357 340/453/355
f 339/454/356 338/449/351 334/447/349 332/446/348
f 336/451/353 340/453/355 342/120/101 84/119/100
f 341/455/357 343/456/358 342/120/101 340/453/355
f 344/457/87 71/108/88 342/120/101 343/456/358
f 342/120/101 71/108/88 73/107/89
f 341/455/357 348/458/359 345/459/360 343/456/358
f 343/456/358 345/459/360 347/460/361 344/457/87
f 350/461/362 346/67/59 345/459/360 348/458/359
f 346/67/59 47/66/58 347/460/361 345/459/360
f 351/462/363 350/461/362 348/458/359 349/463/364
f 339/454/356 349/463/364 348/458/359 341/455/357
f 350/461/362 351/462/363 353/464/365 352/434/336
f 350/461/362 352/434/336 46/64/56 346/67/59
f 320/432/334 352/434/336 353/464/365 354/465/366
f 355/466/367 354/465/366 353/464/365 351/462/363
f 354/465/366 355/466/367 357/442/344 328/439/341
f 354/465/366 328/439/341 322/433/335 320/432/334
f 355/466/367 351/462/363 349/463/364 356/445/347
f 356/445/347 327/440/342 357/442/344 355/466/367
f 332/446/348 356/445/347 349/463/364 339/454/356
f 344/457/87 347/460/361 63/467/77 65/468/78
f 47/66/58 49/68/60 63/467/77 347/460/361
f 360/291/237 330/444/346 337/450/352 359/469/368
f 359/469/368 337/450/352 358/452/354
f 358/452/354 208/121/102 360/291/237 359/469/368
f 214/296/242 325/436/338 360/291/237 209/290/236
f 208/121/102 358/452/354 336/451/353 84/119/100
f 186/266/215 218/300/246 190/268/217 188/265/214
f 212/293/239 199/278/227 197/277/226 361/271/220
f 110/156/129 180/258/207 183/260/209 108/157/127
f 110/156/129 112/161/131 173/246/198 180/258/207
f 157/172/137 116/171/136 123/178/142 363/190/154
f 127/187/151 133/186/150 156/197/161 363/190/154
f 60/90/75 105/91/76 103/152/123 68/96/81
f 366/470/369 365/471/370 103/147/123 364/146/122
f 367/100/83 68/99/81 103/147/123 365/471/370
f 366/470/369 368/141/118 97/137/115 365/471/370
f 367/100/83 365/471/370 97/137/115 94/133/112
f 67/97/82 367/100/83 94/133/112 87/124/105
f 366/470/369 369/472/371 370/473/372 368/141/118
f 366/470/369 364/146/122 372/474/373 369/472/371
f 371/475/374 374/476/375 370/477/372 369/478/371
f 369/472/371 372/474/373 373/479/376 371/480/374
f 364/481/122 101/143/119 373/482/376 372/483/373
f 99/139/116 371/475/374 373/482/376 101/143/119
f 99/139/116 96/140/117 374/476/375 371/475/374
f 96/142/117 368/141/118 370/473/372 374/484/375
f 375/26/26 27/36/36 29/38/38 17/23/23
f 375/26/26 376/35/35 25/34/34 27/36/36
f 16/25/25 20/27/27 376/35/35 375/26/26
