# Blender 5.2.0 LTS
# www.blender.org
mtllib terrain-abyss-chancel-object-091.mtl
o terrain-abyss-chancel-object-091
v 0.159255 1.038810 0.038583
v 0.153266 1.041609 0.036293
v 0.155047 1.038132 0.044673
v 0.159709 1.047209 0.045797
v 0.167350 1.039979 0.039101
v 0.158989 1.038499 0.026599
v 0.153575 1.042390 0.027235
v 0.167596 1.038587 0.030264
v 0.162252 1.037739 0.018439
v 0.151697 1.037300 0.018177
v 0.155826 1.037003 0.012991
v 0.147460 1.038898 0.022244
v 0.145595 1.038777 0.010688
v 0.150819 1.041877 0.006693
v 0.145221 1.046428 0.009411
v 0.142750 1.039451 0.015053
v 0.143336 1.045819 0.015045
v 0.148212 1.046194 0.020156
v 0.143003 1.052163 0.015283
v 0.145487 1.053348 0.008724
v 0.143184 1.058725 0.015084
v 0.149203 1.052128 0.019859
v 0.155526 1.052362 0.015030
v 0.149265 1.057759 0.019433
v 0.154282 1.057684 0.015267
v 0.149021 1.062516 0.017736
v 0.144730 1.062856 0.014274
v 0.152008 1.062985 0.015171
v 0.148315 1.062363 0.010184
v 0.150547 1.056030 0.008987
v 0.145989 1.060857 0.006144
v 0.150960 1.049288 0.007764
v 0.155086 1.047131 0.018794
v 0.159777 1.046204 0.023134
v 0.157643 1.043310 0.007116
v 0.166204 1.045237 0.015409
v 0.161839 1.046540 0.004511
v 0.154680 1.039203 0.003927
v 0.156670 1.040541 -0.004366
v 0.157624 1.039518 -0.012433
v 0.154473 1.037908 -0.004667
v 0.160585 1.044929 -0.004547
v 0.165953 1.041861 -0.010553
v 0.162287 1.052126 -0.004239
v 0.162602 1.064241 -0.004356
v 0.164060 1.053561 0.004316
v 0.176431 1.048193 -0.007841
v 0.177231 1.038731 -0.006514
v 0.187437 1.053452 -0.003576
v 0.189331 1.042532 -0.006939
v 0.171919 1.063077 -0.007857
v 0.181168 1.064008 -0.005153
v 0.168867 1.080315 -0.008942
v 0.179218 1.080662 -0.008081
v 0.160936 1.080189 -0.004314
v 0.167351 1.102264 -0.010149
v 0.159663 1.102497 -0.004766
v 0.178194 1.101821 -0.010097
v 0.166115 1.121549 -0.010664
v 0.159402 1.121657 -0.004909
v 0.176995 1.121530 -0.012410
v 0.165326 1.136153 -0.010160
v 0.167014 1.147154 -0.008405
v 0.159279 1.136671 -0.004633
v 0.175596 1.135143 -0.012341
v 0.174686 1.145422 -0.013027
v 0.183190 1.135344 -0.005687
v 0.173809 1.135511 0.015819
v 0.184217 1.121658 -0.003187
v 0.180939 1.146168 -0.007508
v 0.179688 1.154863 -0.009510
v 0.182790 1.144466 0.006457
v 0.175267 1.152918 0.002068
v 0.178471 1.125574 0.018347
v 0.180327 1.151749 0.014426
v 0.184981 1.110556 0.030512
v 0.170143 1.109895 0.017555
v 0.180422 1.087471 0.020589
v 0.170482 1.081641 0.019164
v 0.184181 1.082038 0.030697
v 0.179840 1.066606 0.022169
v 0.183735 1.066512 0.030801
v 0.179220 1.052794 0.021617
v 0.170124 1.065952 0.020373
v 0.169188 1.053859 0.021354
v 0.162417 1.066032 0.026000
v 0.161771 1.080493 0.025438
v 0.155451 1.065836 0.032582
v 0.162932 1.054501 0.026448
v 0.155671 1.055370 0.031273
v 0.155569 1.056066 0.039339
v 0.155609 1.046837 0.029596
v 0.154800 1.046780 0.038325
v 0.152557 1.043015 0.044282
v 0.150753 1.039315 0.042844
v 0.155499 1.043290 0.047264
v 0.161388 1.056309 0.045731
v 0.156654 1.065862 0.041452
v 0.164289 1.065586 0.045176
v 0.157794 1.078296 0.043000
v 0.158427 1.102498 0.045211
v 0.155284 1.080010 0.033886
v 0.169630 1.073107 0.048533
v 0.167667 1.100756 0.050457
v 0.173351 1.078688 0.041681
v 0.170968 1.066453 0.040478
v 0.179705 1.080331 0.038852
v 0.173963 1.102573 0.046655
v 0.180211 1.104378 0.040408
v 0.174027 1.133584 0.049303
v 0.181047 1.135897 0.041720
v 0.166851 1.131812 0.054286
v 0.174598 1.160274 0.050826
v 0.183374 1.161352 0.040684
v 0.166463 1.159435 0.055951
v 0.176257 1.178141 0.051297
v 0.166427 1.177576 0.055023
v 0.174888 1.191168 0.050875
v 0.185081 1.179142 0.039411
v 0.182672 1.192806 0.039624
v 0.186041 1.181255 0.023976
v 0.181021 1.195204 0.021466
v 0.178185 1.182157 0.015557
v 0.185805 1.163441 0.026137
v 0.179661 1.166502 0.016660
v 0.184435 1.141097 0.028648
v 0.169899 1.168912 0.016308
v 0.170959 1.152119 0.015816
v 0.169003 1.183070 0.014736
v 0.159979 1.171591 0.022782
v 0.160690 1.155253 0.023332
v 0.154329 1.174178 0.036170
v 0.160380 1.185277 0.021875
v 0.154865 1.187522 0.035043
v 0.162605 1.197722 0.021517
v 0.170638 1.195124 0.014600
v 0.157989 1.198355 0.034670
v 0.168729 1.203212 0.024048
v 0.175291 1.199441 0.028519
v 0.163488 1.203293 0.035866
v 0.175034 1.201917 0.015308
v 0.172609 1.197420 0.037483
v 0.162350 1.198137 0.047863
v 0.170075 1.196334 0.046182
v 0.165031 1.190101 0.053042
v 0.158434 1.196359 0.044109
v 0.157327 1.188906 0.047294
v 0.157579 1.176309 0.048773
v 0.158526 1.158837 0.049445
v 0.154650 1.157536 0.036743
v 0.158644 1.132013 0.048336
v 0.154847 1.132866 0.036144
v 0.160422 1.133562 0.023060
v 0.155075 1.103395 0.035095
v 0.160515 1.104321 0.024104
v 0.176011 1.191797 0.014267
v 0.168011 1.149658 0.009105
v 0.163515 1.148573 0.004023
v 0.168988 1.136777 0.010491
v 0.162967 1.136810 0.004075
v 0.170660 1.121502 0.011645
v 0.181378 1.120861 0.011514
v 0.171090 1.102196 0.012498
v 0.162590 1.121807 0.004224
v 0.162917 1.102520 0.004671
v 0.163751 1.081209 0.004828
v 0.171756 1.081362 0.011948
v 0.164292 1.065377 0.004505
v 0.171639 1.065922 0.011420
v 0.170705 1.053246 0.011465
v 0.180686 1.065651 0.011319
v 0.180441 1.053917 0.011699
v 0.185101 1.063556 0.004035
v 0.180732 1.081261 0.011251
v 0.183276 1.080932 0.001835
v 0.181460 1.102095 0.011227
v 0.183749 1.101847 -0.000480
v 0.187983 1.054327 0.008451
v 0.195582 1.055240 0.003292
v 0.198653 1.048065 0.002872
v 0.198743 1.054716 0.006764
v 0.197180 1.047029 0.007433
v 0.197854 1.038583 0.009481
v 0.188782 1.044713 0.009899
v 0.191630 1.038988 0.013606
v 0.181207 1.044261 0.015667
v 0.188084 1.040879 0.019456
v 0.184491 1.045884 0.024750
v 0.174174 1.047163 0.015489
v 0.187798 1.041334 0.026887
v 0.182710 1.046056 0.035447
v 0.185256 1.039868 0.035236
v 0.182978 1.054164 0.032527
v 0.180992 1.042517 0.043115
v 0.175917 1.047734 0.040114
v 0.168389 1.047934 0.042508
v 0.177207 1.055682 0.038577
v 0.174602 1.042313 0.043488
v 0.175822 1.041077 0.052829
v 0.179329 1.039529 0.042600
v 0.174353 1.038308 0.032559
v 0.180266 1.038540 0.033789
v 0.176450 1.037509 0.024045
v 0.169484 1.037931 0.021960
v 0.183125 1.037978 0.026152
v 0.179442 1.036650 0.016778
v 0.183125 1.035674 0.010013
v 0.186938 1.037524 0.019926
v 0.171544 1.037286 0.013598
v 0.173550 1.036765 0.005481
v 0.164493 1.037298 0.010016
v 0.165183 1.036709 0.000460
v 0.158023 1.037641 0.005668
v 0.157742 1.036467 -0.005081
v 0.158099 1.036164 -0.012410
v 0.153087 1.038262 -0.011529
v 0.159028 1.037375 -0.018132
v 0.166492 1.035958 -0.006979
v 0.168988 1.037278 -0.012656
v 0.175471 1.036862 -0.001164
v 0.186055 1.035422 0.001949
v 0.187701 1.036388 -0.004683
v 0.198065 1.037082 0.004693
v 0.194769 1.037362 -0.003448
v 0.192802 1.037593 0.015146
v 0.197631 1.043147 -0.003517
v 0.195671 1.040157 -0.007888
v 0.193908 1.047508 -0.003334
v 0.183156 1.040760 0.042848
v 0.178462 1.039707 0.052211
v 0.182588 1.040393 0.052042
v 0.180026 1.038874 0.059846
v 0.176286 1.039062 0.061982
v 0.185230 1.040644 0.060723
v 0.184505 1.040816 0.063293
v 0.181370 1.041607 0.052386
v 0.169139 1.056302 0.041353
v 0.178674 1.066594 0.038012
v 0.169891 1.046136 0.008563
v 0.159458 1.150361 -0.003818
v 0.168132 1.152160 0.001142
v 0.171166 1.151894 -0.004011
v 0.174174 1.153001 -0.013680
vn -0.8913 -0.0830 0.4458
vn -0.1500 -0.9780 0.1449
vn 0.0440 -0.9664 0.2531
vn -0.9233 -0.3423 -0.1741
vn 0.0102 -0.8545 0.5193
vn -0.8852 -0.4564 0.0897
vn -0.0812 -0.0272 0.9963
vn -0.0430 0.1199 0.9918
vn 0.0615 -0.8169 0.5734
vn 0.2200 -0.1048 0.9698
vn -0.0034 -0.9933 0.1153
vn -0.6006 -0.4343 0.6713
vn -0.1315 -0.9873 0.0893
vn -0.0507 -0.9963 0.0692
vn 0.0083 -0.9978 0.0657
vn -0.0890 -0.9906 -0.1041
vn -0.5526 -0.6614 -0.5070
vn -0.2520 -0.1951 -0.9479
vn -0.8820 -0.4609 0.0983
vn -0.6995 -0.0110 -0.7146
vn 0.4214 0.0001 -0.9069
vn -0.9836 0.0515 0.1727
vn -0.4708 0.3338 0.8166
vn -0.9591 0.0181 0.2825
vn -0.5822 -0.0010 -0.8130
vn -0.0504 0.1435 0.9884
vn -0.9112 0.2602 0.3194
vn -0.3695 0.2586 -0.8925
vn 0.0372 0.2070 0.9776
vn 0.9881 0.1205 0.0957
vn 0.9454 0.2914 0.1457
vn 0.2461 0.9286 0.2779
vn 0.6491 0.7564 0.0808
vn 0.0191 0.7098 0.7041
vn -0.5644 0.8027 0.1927
vn 0.1193 0.7667 -0.6309
vn 0.5888 0.1466 -0.7949
vn -0.8684 0.4381 -0.2323
vn -0.4601 0.7907 -0.4039
vn -0.3085 0.9213 -0.2368
vn -0.3424 0.9213 -0.1842
vn -0.9482 -0.2421 -0.2058
vn -0.6143 0.5564 0.5595
vn -0.7332 0.6239 0.2704
vn -0.6374 0.6636 -0.3916
vn -0.6157 0.7727 -0.1545
vn -0.9778 -0.2075 0.0303
vn -0.0177 0.5986 -0.8008
vn -0.4733 0.6759 -0.5649
vn -0.9730 -0.0579 -0.2234
vn -0.8277 0.2187 -0.5168
vn 0.0931 0.1099 -0.9896
vn -0.8656 0.0682 0.4961
vn -0.8687 -0.0139 0.4952
vn -0.8770 -0.0616 -0.4765
vn -0.0704 -0.0446 -0.9965
vn 0.3683 -0.4716 -0.8012
vn 0.1715 -0.6467 -0.7432
vn 0.0171 -0.8050 -0.5930
vn 0.1454 0.0074 -0.9893
vn 0.5727 0.1284 -0.8097
vn 0.4618 0.3723 -0.8051
vn 0.5459 0.4125 -0.7293
vn -0.9254 -0.0851 -0.3692
vn -0.2056 -0.0828 -0.9751
vn 0.5765 -0.0466 -0.8158
vn -0.3118 -0.0663 -0.9478
vn 0.4924 -0.0694 -0.8676
vn -0.9502 -0.0475 -0.3079
vn -0.9642 -0.0125 -0.2649
vn -0.3991 -0.0280 -0.9165
vn 0.3717 -0.0355 -0.9277
vn -0.9660 0.0487 -0.2540
vn -0.4609 0.0486 -0.8861
vn 0.2533 0.0211 -0.9671
vn -0.5006 0.3951 -0.7703
vn 0.0860 0.1153 -0.9896
vn -0.7860 0.5829 -0.2058
vn 0.9301 0.1180 -0.3478
vn 0.9628 0.0074 -0.2701
vn 0.9790 0.0686 -0.1921
vn 0.9945 0.0648 0.0817
vn -0.6235 -0.3969 -0.6735
vn 0.6557 0.0644 0.7523
vn -0.1166 0.6181 -0.7774
vn 0.5272 0.7833 -0.3294
vn 0.3036 0.9457 0.1161
vn 0.5948 -0.1507 -0.7896
vn 0.8102 0.3331 -0.4823
vn -0.2184 -0.0559 -0.9743
vn 0.9997 -0.0141 -0.0204
vn 0.9948 -0.0489 -0.0898
vn 0.9982 -0.0400 0.0439
vn 0.6236 -0.0418 -0.7806
vn -0.2037 -0.0699 -0.9765
vn 0.6285 -0.0619 -0.7754
vn -0.2393 -0.0513 -0.9696
vn 0.9942 -0.0517 0.0944
vn 0.9662 0.1039 0.2359
vn 0.6320 0.3231 -0.7044
vn -0.3070 0.3390 -0.8893
vn -0.6293 0.2168 -0.7463
vn -0.6436 -0.0213 -0.7650
vn -0.6962 -0.0378 -0.7168
vn -0.9824 -0.0088 -0.1864
vn -0.9443 0.0148 -0.3286
vn -0.9061 0.1071 -0.4092
vn -0.8331 0.0108 0.5530
vn -0.9277 0.0589 0.3687
vn -0.9332 0.3295 0.1430
vn -0.8190 0.3635 0.4440
vn -0.1537 0.0265 0.9878
vn 0.0375 -0.1361 0.9900
vn 0.2994 -0.2644 0.9167
vn -0.7793 -0.0434 0.6251
vn -0.7857 -0.0585 0.6158
vn -0.9955 -0.0183 -0.0927
vn 0.0892 -0.1022 0.9908
vn 0.6563 -0.0826 0.7500
vn 0.6242 -0.1537 0.7660
vn 0.5321 -0.1632 0.8308
vn 0.6132 -0.0472 0.7885
vn 0.7172 -0.0865 0.6914
vn 0.8107 -0.0547 0.5829
vn 0.6516 -0.0578 0.7563
vn -0.0142 -0.0847 0.9963
vn 0.8686 -0.0386 0.4940
vn 0.9091 -0.0564 0.4128
vn 0.6382 -0.0412 0.7688
vn -0.0646 -0.0259 0.9976
vn 0.9392 0.0684 0.3366
vn 0.6078 0.0427 0.7930
vn -0.1178 0.0573 0.9914
vn 0.4962 0.4545 0.7397
vn -0.1824 0.3321 0.9254
vn 0.7889 0.5349 0.3025
vn 0.9515 0.0922 -0.2935
vn 0.8153 0.5020 -0.2885
vn 0.9822 -0.0404 -0.1832
vn 0.4578 -0.0062 -0.8890
vn 0.4243 0.0575 -0.9037
vn 0.4991 -0.0073 -0.8665
vn -0.3283 -0.0411 -0.9437
vn -0.3081 -0.0373 -0.9506
vn -0.6280 0.3334 -0.7032
vn -0.7876 -0.0419 -0.6147
vn -0.7681 -0.0236 -0.6400
vn -0.7983 0.0533 -0.5999
vn -0.9984 -0.0211 -0.0533
vn -0.9976 -0.0085 -0.0693
vn -0.9865 0.1241 -0.1066
vn -0.8448 0.5281 -0.0864
vn -0.7182 0.4379 -0.5407
vn -0.2116 0.2568 -0.9430
vn -0.0697 0.9803 -0.1846
vn 0.2897 0.7472 -0.5981
vn -0.1730 0.9758 0.1334
vn 0.5068 0.8428 0.1812
vn 0.4413 0.8571 0.2658
vn -0.2496 0.7370 0.6281
vn 0.3363 0.8084 0.4831
vn -0.8095 0.4741 0.3463
vn -0.8408 0.1730 0.5130
vn -0.8294 0.0266 0.5580
vn -0.8186 -0.0184 0.5741
vn -0.8047 -0.0494 0.5916
vn -0.9983 -0.0089 -0.0576
vn -0.7486 -0.0089 -0.6630
vn -0.7371 -0.0312 -0.6750
vn -0.6946 -0.0604 0.7168
vn -0.6489 0.5963 0.4726
vn -0.7129 0.4569 0.5320
vn -0.8339 0.0118 0.5518
vn -0.2441 0.9688 0.0435
vn -0.8387 0.0022 0.5445
vn -0.4393 -0.0516 0.8969
vn -0.3253 -0.0048 0.9456
vn 0.6676 -0.0032 0.7445
vn -0.8399 -0.0179 0.5425
vn -0.8463 -0.0440 0.5309
vn -0.3238 -0.0239 0.9458
vn -0.3583 -0.0000 0.9336
vn -0.4580 0.2126 0.8632
vn 0.4809 0.0873 0.8724
vn 0.3057 0.2629 0.9151
vn 0.6167 0.0092 0.7871
vn 0.4373 0.3654 0.8217
vn 0.9171 0.3841 0.1069
vn 0.9977 0.0191 -0.0647
vn 0.9878 -0.0268 -0.1532
vn 0.7665 0.6296 -0.1270
vn 0.7522 0.3500 0.5583
vn 0.9396 0.2027 -0.2757
vn 0.7616 0.1887 0.6200
vn 0.4046 0.4394 0.8020
vn 0.7862 0.0073 0.6179
vn 0.8012 -0.5969 0.0420
vn 0.6370 0.3461 0.6888
vn 0.6232 0.7344 0.2687
vn 0.8500 0.4325 0.3006
vn -0.0333 0.9993 0.0172
vn 0.9846 -0.0756 0.1573
vn 0.8235 0.5411 -0.1706
vn 0.8119 0.4293 0.3957
vn 0.8718 -0.4000 0.2827
vn 0.9148 -0.3157 0.2520
vn 0.4913 0.8065 0.3288
vn 0.5410 0.0655 0.8385
vn 0.3439 0.2951 0.8914
vn -0.2693 -0.2955 0.9166
vn 0.4053 0.0155 0.9141
vn 0.2184 0.9735 0.0681
vn -0.9776 0.1735 0.1192
vn -0.1127 -0.9913 -0.0684
vn -0.0561 -0.9928 0.1062
vn -0.0558 -0.9839 0.1698
vn 0.1044 -0.9835 0.1475
vn -0.0248 -0.9960 0.0864
vn 0.2965 -0.9445 0.1416
vn -0.0232 -0.9951 0.0963
vn -0.0658 -0.9961 0.0591
vn 0.4725 -0.8187 0.3262
vn 0.0006 -0.9975 0.0709
vn -0.0622 -0.9975 0.0323
vn 0.5820 -0.6437 0.4969
vn -0.0145 -0.9989 0.0446
vn -0.0288 -0.9974 0.0667
vn -0.2471 -0.9689 0.0125
vn -0.2370 -0.9688 0.0722
vn 0.0826 -0.9947 -0.0614
vn -0.3468 -0.8914 -0.2918
vn -0.0776 -0.1558 -0.9847
vn 0.0049 -0.9954 -0.0954
vn 0.0187 -0.9975 -0.0687
vn 0.4459 -0.7886 -0.4234
vn 0.8504 0.1044 -0.5157
vn 0.4601 -0.1656 -0.8723
vn 0.9680 -0.2365 -0.0845
vn 0.9925 -0.1222 -0.0029
vn 0.0745 -0.9966 0.0345
vn -0.8087 -0.1203 0.5758
vn 0.5751 0.0756 0.8146
vn -0.3297 0.9049 -0.2693
vt 0.026524 0.807567
vt 0.024870 0.804554
vt 0.035410 0.800573
vt 0.030868 0.806317
vt 0.034527 0.804698
vt 0.032935 0.806170
vt 0.036857 0.806935
vt 0.035030 0.806390
vt 0.343715 0.026432
vt 0.340732 0.029213
vt 0.339450 0.024866
vt 0.343330 0.022229
vt 0.026069 0.799855
vt 0.030698 0.797935
vt 0.022222 0.810738
vt 0.019760 0.808466
vt 0.020846 0.799162
vt 0.019695 0.803121
vt 0.016569 0.806523
vt 0.019826 0.348316
vt 0.023683 0.347158
vt 0.027756 0.351201
vt 0.024093 0.352045
vt 0.018312 0.343523
vt 0.021932 0.344694
vt 0.025800 0.345386
vt 0.027766 0.346883
vt 0.023863 0.343331
vt 0.019938 0.337990
vt 0.024212 0.341557
vt 0.027282 0.343968
vt 0.008277 0.979102
vt 0.010867 0.976860
vt 0.013489 0.983377
vt 0.010624 0.983763
vt 0.015348 0.979293
vt 0.018727 0.979828
vt 0.020201 0.982269
vt 0.013677 0.976027
vt 0.013273 0.971686
vt 0.016886 0.970471
vt 0.008071 0.974041
vt 0.016970 0.974730
vt 0.015700 0.976180
vt 0.016644 0.977935
vt 0.018435 0.977501
vt 0.020997 0.976788
vt 0.034383 0.344154
vt 0.027566 0.344056
vt 0.032435 0.342554
vt 0.035269 0.345770
vt 0.028518 0.810848
vt 0.026151 0.814608
vt 0.023965 0.813439
vt 0.025674 0.819207
vt 0.021433 0.819196
vt 0.021208 0.813426
vt 0.029356 0.357650
vt 0.033582 0.356193
vt 0.044788 0.356770
vt 0.043344 0.359491
vt 0.038036 0.360976
vt 0.033587 0.366394
vt 0.030886 0.364650
vt 0.028593 0.363219
vt 0.029163 0.374463
vt 0.027651 0.369140
vt 0.027057 0.366623
vt 0.879293 0.197707
vt 0.878675 0.192516
vt 0.883643 0.196644
vt 0.882189 0.201372
vt 0.042534 0.363336
vt 0.038832 0.368097
vt 0.875956 0.191163
vt 0.874707 0.184243
vt 0.878914 0.186673
vt 0.882483 0.186676
vt 0.024035 0.376101
vt 0.028464 0.383177
vt 0.019390 0.377813
vt 0.043046 0.756055
vt 0.039593 0.754506
vt 0.040949 0.748243
vt 0.044391 0.752392
vt 0.050607 0.737012
vt 0.048572 0.745815
vt 0.045633 0.739111
vt 0.048050 0.750981
vt 0.877535 0.174797
vt 0.881468 0.175456
vt 0.886428 0.186934
vt 0.885886 0.175839
vt 0.880491 0.161678
vt 0.884359 0.164786
vt 0.876257 0.161281
vt 0.876500 0.149038
vt 0.881763 0.149123
vt 0.054815 0.705470
vt 0.054794 0.716785
vt 0.050439 0.713138
vt 0.050842 0.704679
vt 0.876058 0.140081
vt 0.880920 0.139342
vt 0.886324 0.139207
vt 0.886741 0.145926
vt 0.052670 0.688645
vt 0.055344 0.690497
vt 0.055960 0.698018
vt 0.051316 0.694388
vt 0.873947 0.132855
vt 0.877993 0.131760
vt 0.059175 0.691105
vt 0.059724 0.698008
vt 0.059637 0.706608
vt 0.065093 0.692377
vt 0.068392 0.699216
vt 0.065668 0.708618
vt 0.054334 0.687210
vt 0.059266 0.686905
vt 0.064255 0.685883
vt 0.880484 0.106359
vt 0.880879 0.117579
vt 0.872091 0.124329
vt 0.864972 0.120931
vt 0.117539 0.084198
vt 0.112640 0.091722
vt 0.115927 0.079142
vt 0.123788 0.079175
vt 0.885880 0.095643
vt 0.867723 0.111139
vt 0.315283 0.050059
vt 0.327883 0.044503
vt 0.326745 0.051461
vt 0.312719 0.064424
vt 0.333450 0.056389
vt 0.321378 0.064246
vt 0.334858 0.046402
vt 0.336911 0.050272
vt 0.334364 0.041699
vt 0.340553 0.038986
vt 0.342846 0.044103
vt 0.106406 0.112824
vt 0.110148 0.115814
vt 0.106336 0.118376
vt 0.103492 0.117400
vt 0.100241 0.116504
vt 0.101490 0.111130
vt 0.108475 0.104882
vt 0.102613 0.104263
vt 0.096705 0.103852
vt 0.096392 0.110646
vt 0.096035 0.115472
vt 0.102596 0.122339
vt 0.099983 0.121230
vt 0.095568 0.119674
vt 0.091593 0.110110
vt 0.092153 0.114787
vt 0.091179 0.119160
vt 0.033295 0.810778
vt 0.033977 0.807344
vt 0.087593 0.118862
vt 0.088222 0.114628
vt 0.087648 0.110036
vt 0.084709 0.105605
vt 0.091624 0.103809
vt 0.092522 0.092366
vt 0.098605 0.092702
vt 0.086953 0.092150
vt 0.314967 0.038132
vt 0.313582 0.034253
vt 0.327496 0.031213
vt 0.326717 0.035703
vt 0.332413 0.033275
vt 0.331510 0.029222
vt 0.333436 0.037182
vt 0.327090 0.039492
vt 0.316070 0.042914
vt 0.300983 0.038183
vt 0.300033 0.033549
vt 0.302208 0.041662
vt 0.855896 0.105395
vt 0.854231 0.098408
vt 0.867921 0.098103
vt 0.868466 0.103721
vt 0.853520 0.093691
vt 0.868046 0.093449
vt 0.845211 0.102274
vt 0.843779 0.096128
vt 0.842324 0.091147
vt 0.089782 0.046449
vt 0.093066 0.049345
vt 0.089880 0.054765
vt 0.085716 0.051611
vt 0.837042 0.099558
vt 0.835350 0.093633
vt 0.847575 0.108725
vt 0.838126 0.107241
vt 0.857117 0.114055
vt 0.846616 0.112874
vt 0.840162 0.111065
vt 0.855811 0.119574
vt 0.887699 0.088739
vt 0.844186 0.115131
vt 0.852281 0.122444
vt 0.862380 0.128309
vt 0.109192 0.060317
vt 0.115418 0.062230
vt 0.115085 0.070579
vt 0.108527 0.068303
vt 0.109555 0.053677
vt 0.115467 0.055114
vt 0.100867 0.066268
vt 0.101553 0.058341
vt 0.101977 0.051971
vt 0.103014 0.046892
vt 0.109990 0.047388
vt 0.115327 0.049149
vt 0.110519 0.043228
vt 0.115568 0.045121
vt 0.102532 0.042976
vt 0.832857 0.107488
vt 0.829474 0.102466
vt 0.832811 0.102582
vt 0.097977 0.039759
vt 0.105140 0.038932
vt 0.837230 0.111802
vt 0.096084 0.045870
vt 0.092126 0.043395
vt 0.098165 0.046970
vt 0.096974 0.051162
vt 0.094877 0.056653
vt 0.093962 0.064909
vt 0.089339 0.063765
vt 0.093974 0.077838
vt 0.100465 0.078528
vt 0.088993 0.077073
vt 0.107884 0.078963
vt 0.105700 0.092979
vt 0.830398 0.098482
vt 0.829654 0.093154
vt 0.866141 0.138271
vt 0.863405 0.138884
vt 0.866532 0.129983
vt 0.869785 0.131765
vt 0.870281 0.139262
vt 0.872010 0.128242
vt 0.870764 0.148125
vt 0.866836 0.148217
vt 0.863173 0.150192
vt 0.868189 0.160698
vt 0.864798 0.161993
vt 0.872123 0.161499
vt 0.873098 0.173418
vt 0.869807 0.173268
vt 0.871754 0.184027
vt 0.873253 0.191048
vt 0.869307 0.184952
vt 0.869292 0.192298
vt 0.867503 0.173838
vt 0.064577 0.746162
vt 0.060146 0.746675
vt 0.056618 0.739984
vt 0.062152 0.739939
vt 0.062886 0.730958
vt 0.057206 0.730178
vt 0.059759 0.718474
vt 0.065695 0.719283
vt 0.050827 0.729325
vt 0.053638 0.747803
vt 0.055602 0.749016
vt 0.052034 0.752208
vt 0.054410 0.753195
vt 0.059285 0.752841
vt 0.054088 0.757105
vt 0.050548 0.758846
vt 0.056864 0.758086
vt 0.063956 0.753252
vt 0.059726 0.757768
vt 0.069023 0.750618
vt 0.068117 0.752903
vt 0.063738 0.760030
vt 0.066034 0.757756
vt 0.069604 0.757197
vt 0.051981 0.357808
vt 0.049638 0.361767
vt 0.106467 0.123094
vt 0.348177 0.039927
vt 0.346379 0.041684
vt 0.344450 0.036321
vt 0.348511 0.037114
vt 0.350139 0.034257
vt 0.348015 0.033530
vt 0.338685 0.035103
vt 0.342284 0.032911
vt 0.344781 0.030950
vt 0.337098 0.031134
vt 0.349751 0.030007
vt 0.348338 0.028327
vt 0.032672 0.787666
vt 0.033241 0.788354
vt 0.030588 0.792755
vt 0.028659 0.790330
vt 0.025117 0.795490
vt 0.024008 0.791994
vt 0.020040 0.795319
vt 0.019350 0.791560
vt 0.015622 0.794780
vt 0.015672 0.798643
vt 0.015374 0.790211
vt 0.050887 0.763481
vt 0.056441 0.763763
vt 0.050062 0.767340
vt 0.043797 0.762307
vt 0.056572 0.759295
vt 0.059935 0.760635
vt 0.014901 0.802180
vt 0.020527 0.365873
vt 0.015522 0.368147
vt 0.015431 0.363145
vt 0.019590 0.360913
vt 0.026391 0.358224
vt 0.025293 0.363712
vt 0.012858 0.805644
vt 0.020560 0.370550
vt 0.024580 0.368005
vt 0.025571 0.370808
vt 0.016157 0.371875
vt 0.045454 0.759335
vt 0.039850 0.757292
vt 0.046623 0.756313
vt 0.047644 0.754075
vt 0.045545 0.754470
vt 0.015243 0.788517
vt 0.018462 0.788307
vt 0.023007 0.789177
vt 0.027981 0.788156
vt 0.031634 0.785803
vt 0.354010 0.029910
vt 0.356789 0.029061
vt 0.354702 0.033237
vt 0.351069 0.031165
vt 0.035118 0.784270
vt 0.036374 0.784423
vt 0.354245 0.029062
vt 0.354928 0.025966
vt 0.335615 0.026801
vt 0.875534 0.127347
vt 0.878828 0.123036
vt 0.880442 0.126395
vt 0.882672 0.128377
s 1
usemtl abyss_chancel_background_pbr
f 7/1/1 6/2/2 1/3/3 2/4/4
f 1/3/3 3/5/5 95/6/6 2/4/4
f 3/5/5 1/3/3 4/7/7 96/8/8
f 5/9/9 196/10/10 4/11/7 1/12/3
f 8/13/11 5/14/9 1/3/3 6/2/2
f 12/15/12 10/16/13 6/2/2 7/1/1
f 204/17/14 8/13/11 6/2/2 9/18/15
f 11/19/16 9/18/15 6/2/2 10/16/13
f 10/20/13 13/21/17 14/22/18 11/23/16
f 10/20/13 12/24/12 16/25/19 13/21/17
f 15/26/20 32/27/21 14/22/18 13/21/17
f 15/26/20 13/21/17 16/25/19 17/28/22
f 18/29/23 17/28/22 16/25/19 12/24/12
f 15/26/20 17/28/22 19/30/24 20/31/25
f 18/32/23 22/33/26 19/34/24 17/35/22
f 19/34/24 21/36/27 31/37/28 20/38/25
f 24/39/29 21/36/27 19/34/24 22/33/26
f 23/40/30 25/41/31 24/39/29 22/33/26
f 22/33/26 18/32/23 33/42/32 23/40/30
f 24/39/29 25/41/31 28/43/33 26/44/34
f 21/36/27 24/39/29 26/44/34 27/45/35
f 27/45/35 26/44/34 28/43/33 29/46/36
f 30/47/37 29/46/36 28/43/33 25/41/31
f 31/37/28 21/36/27 27/45/35 29/46/36
f 30/47/37 20/38/25 31/37/28 29/46/36
f 23/48/30 32/27/21 30/49/37 25/50/31
f 32/27/21 15/26/20 20/31/25 30/49/37
f 32/27/21 23/48/30 33/51/32 14/22/18
f 92/52/38 34/53/39 33/54/32 7/1/1
f 33/54/32 34/53/39 36/55/40 35/56/41
f 12/15/12 7/1/1 33/54/32 18/57/23
f 38/58/42 14/22/18 33/51/32 35/59/41
f 35/59/41 36/60/40 239/61/43 37/62/44
f 42/63/45 39/64/46 35/59/41 37/62/44
f 41/65/47 38/58/42 35/59/41 39/64/46
f 43/66/48 40/67/49 39/64/46 42/63/45
f 39/64/46 40/67/49 216/68/50 41/65/47
f 42/69/45 44/70/51 47/71/52 43/72/48
f 46/73/53 44/74/51 42/63/45 37/62/44
f 44/70/51 46/75/53 168/76/54 45/77/55
f 45/77/55 51/78/56 47/71/52 44/70/51
f 219/79/57 43/66/48 47/80/52 48/81/58
f 222/82/59 48/83/58 47/84/52 50/85/60
f 52/86/61 49/87/62 47/84/52 51/88/56
f 228/89/63 50/85/60 47/84/52 49/87/62
f 51/78/56 45/77/55 55/90/64 53/91/65
f 52/92/61 51/78/56 53/91/65 54/93/66
f 54/93/66 53/91/65 56/94/67 58/95/68
f 56/94/67 53/91/65 55/90/64 57/96/69
f 60/97/70 59/98/71 56/94/67 57/96/69
f 61/99/72 58/100/68 56/101/67 59/102/71
f 64/103/73 62/104/74 59/98/71 60/97/70
f 62/104/74 65/105/75 61/106/72 59/98/71
f 63/107/76 66/108/77 65/109/75 62/110/74
f 62/104/74 64/103/73 240/111/78 63/112/76
f 66/108/77 70/113/79 67/114/80 65/109/75
f 67/114/80 69/115/81 61/99/72 65/109/75
f 72/116/82 68/117/83 67/114/80 70/113/79
f 68/117/83 162/118/84 69/115/81 67/114/80
f 70/113/79 66/108/77 243/119/85 71/120/86
f 72/116/82 70/113/79 71/120/86 73/121/87
f 74/122/88 72/123/82 73/124/87 75/125/89
f 74/126/88 77/127/90 68/128/83 72/129/82
f 76/130/91 74/122/88 75/125/89 126/131/92
f 76/132/91 80/133/93 78/134/94 74/135/88
f 74/135/88 78/134/94 79/136/95 77/137/90
f 81/138/96 84/139/97 79/136/95 78/134/94
f 82/140/98 81/138/96 78/134/94 80/133/93
f 82/140/98 193/141/99 83/142/100 81/138/96
f 84/143/97 81/144/96 83/145/100 85/146/101
f 85/146/101 89/147/102 86/148/103 84/143/97
f 79/149/95 84/143/97 86/148/103 87/150/104
f 102/151/105 87/150/104 86/148/103 88/152/106
f 86/148/103 89/147/102 90/153/107 88/152/106
f 89/147/102 85/146/101 36/154/40 34/155/39
f 89/147/102 34/155/39 92/156/38 90/153/107
f 98/157/108 88/152/106 90/153/107 91/158/109
f 90/153/107 92/156/38 93/159/110 91/158/109
f 7/1/1 2/4/4 93/160/110 92/52/38
f 93/160/110 2/4/4 95/6/6 94/161/111
f 94/161/111 96/8/8 4/7/7 93/160/110
f 91/158/109 93/159/110 4/162/7 97/163/112
f 96/8/8 94/161/111 95/6/6 3/5/5
f 97/163/112 99/164/113 98/157/108 91/158/109
f 98/157/108 99/164/113 103/165/114 100/166/115
f 98/157/108 100/166/115 102/151/105 88/152/106
f 100/166/115 101/167/116 154/168/117 102/151/105
f 101/167/116 100/166/115 103/165/114 104/169/118
f 108/170/119 104/171/118 103/172/114 105/173/120
f 106/174/121 105/173/120 103/172/114 99/175/113
f 105/173/120 106/174/121 238/176/122 107/177/123
f 105/173/120 107/177/123 109/178/124 108/170/119
f 104/171/118 108/170/119 110/179/125 112/180/126
f 110/179/125 108/170/119 109/178/124 111/181/127
f 114/182/128 113/183/129 110/184/125 111/185/127
f 115/186/130 112/187/126 110/184/125 113/183/129
f 114/182/128 119/188/131 116/189/132 113/183/129
f 116/189/132 117/190/133 115/186/130 113/183/129
f 118/191/134 145/192/135 117/193/133 116/194/132
f 120/195/136 118/196/134 116/189/132 119/188/131
f 119/188/131 121/197/137 122/198/138 120/195/136
f 121/197/137 119/188/131 114/182/128 124/199/139
f 123/200/140 156/201/141 122/198/138 121/197/137
f 123/200/140 121/197/137 124/199/139 125/202/142
f 124/199/139 126/131/92 75/125/89 125/202/142
f 126/131/92 124/199/139 114/182/128 111/185/127
f 126/131/92 111/185/127 109/203/124 76/130/91
f 129/204/143 123/200/140 125/202/142 127/205/144
f 125/202/142 75/125/89 128/206/145 127/205/144
f 130/207/146 127/208/144 128/209/145 131/210/147
f 127/208/144 130/207/146 133/211/148 129/212/143
f 130/207/146 131/210/147 150/213/149 132/214/150
f 133/211/148 130/207/146 132/214/150 134/215/151
f 137/216/152 135/217/153 133/211/148 134/215/151
f 136/218/154 129/212/143 133/211/148 135/217/153
f 135/217/153 138/219/155 141/220/156 136/218/154
f 140/221/157 138/219/155 135/217/153 137/216/152
f 141/222/156 138/223/155 139/224/158 122/198/138
f 140/221/157 142/225/159 139/226/158 138/219/155
f 136/227/154 141/222/156 122/198/138 156/201/141
f 140/221/157 143/228/160 144/229/161 142/225/159
f 140/221/157 137/216/152 146/230/162 143/228/160
f 145/192/135 118/191/134 144/229/161 143/228/160
f 145/192/135 143/228/160 146/230/162 147/231/163
f 134/215/151 147/231/163 146/230/162 137/216/152
f 145/192/135 147/231/163 148/232/164 117/193/133
f 134/215/151 132/214/150 148/232/164 147/231/163
f 150/213/149 149/233/165 148/232/164 132/214/150
f 148/232/164 149/233/165 115/234/130 117/193/133
f 151/235/166 149/233/165 150/213/149 152/236/167
f 151/235/166 112/237/126 115/234/130 149/233/165
f 104/169/118 112/237/126 151/235/166 101/167/116
f 101/167/116 151/235/166 152/236/167 154/168/117
f 153/238/168 152/236/167 150/213/149 131/210/147
f 155/239/169 154/168/117 152/236/167 153/238/168
f 87/150/104 102/151/105 154/168/117 155/239/169
f 155/239/169 77/127/90 79/149/95 87/150/104
f 155/239/169 153/238/168 68/128/83 77/127/90
f 153/238/168 131/210/147 128/209/145 68/128/83
f 120/195/136 142/240/159 144/241/161 118/196/134
f 120/195/136 122/198/138 139/224/158 142/240/159
f 129/204/143 136/227/154 156/201/141 123/200/140
f 159/242/170 68/243/83 128/206/145 157/244/171
f 128/206/145 75/125/89 73/124/87 157/244/171
f 158/245/172 160/246/173 159/242/170 157/244/171
f 157/244/171 73/124/87 241/247/174 158/245/172
f 159/242/170 160/246/173 164/248/175 161/249/176
f 161/249/176 162/250/84 68/243/83 159/242/170
f 161/249/176 163/251/177 176/252/178 162/250/84
f 164/248/175 165/253/179 163/251/177 161/249/176
f 64/103/73 60/97/70 164/248/175 160/246/173
f 57/96/69 165/253/179 164/248/175 60/97/70
f 166/254/180 167/255/181 163/251/177 165/253/179
f 165/253/179 57/96/69 55/90/64 166/254/180
f 167/255/181 166/254/180 168/76/54 169/256/182
f 55/90/64 45/77/55 168/76/54 166/254/180
f 168/76/54 46/75/53 170/257/183 169/256/182
f 171/258/184 169/256/182 170/257/183 172/259/185
f 171/258/184 174/260/186 167/255/181 169/256/182
f 172/261/185 178/262/187 173/263/188 171/264/184
f 174/265/186 171/264/184 173/263/188 175/266/189
f 174/265/186 175/266/189 177/267/190 176/268/178
f 167/255/181 174/260/186 176/252/178 163/251/177
f 162/118/84 176/268/178 177/267/190 69/115/81
f 54/269/66 58/100/68 177/267/190 175/266/189
f 177/267/190 58/100/68 61/99/72 69/115/81
f 54/269/66 175/266/189 173/263/188 52/86/61
f 52/86/61 173/263/188 179/270/191 49/87/62
f 173/263/188 178/262/187 181/271/192 179/270/191
f 228/89/63 49/87/62 179/270/191 180/272/193
f 182/273/194 180/272/193 179/270/191 181/271/192
f 184/274/195 182/273/194 181/271/192 178/262/187
f 182/273/194 183/275/196 223/276/197 180/272/193
f 184/274/195 185/277/198 183/275/196 182/273/194
f 172/261/185 186/278/199 184/274/195 178/262/187
f 187/279/200 185/277/198 184/274/195 186/278/199
f 170/280/183 189/281/201 186/278/199 172/261/185
f 190/282/202 187/279/200 186/278/199 188/283/203
f 83/284/100 188/283/203 186/278/199 189/281/201
f 36/60/40 189/285/201 170/286/183 239/61/43
f 36/154/40 85/146/101 83/145/100 189/287/201
f 190/288/202 188/289/203 191/290/204 192/291/205
f 83/142/100 193/141/99 191/290/204 188/289/203
f 229/292/206 192/291/205 191/290/204 194/293/207
f 197/294/208 195/295/209 191/290/204 193/141/99
f 198/296/210 194/293/207 191/290/204 195/295/209
f 237/297/211 196/10/10 195/295/209 197/294/208
f 196/10/10 5/9/9 198/296/210 195/295/209
f 236/298/212 194/293/207 198/296/210 199/299/213
f 230/300/214 199/301/213 198/302/210 200/303/215
f 8/13/11 201/304/216 198/302/210 5/14/9
f 202/305/217 200/303/215 198/302/210 201/304/216
f 202/305/217 201/304/216 203/306/218 205/307/219
f 201/304/216 8/13/11 204/17/14 203/306/218
f 206/308/220 203/306/218 204/17/14 209/309/221
f 208/310/222 205/307/219 203/306/218 206/308/220
f 207/311/223 206/312/220 209/313/221 210/314/224
f 206/312/220 207/311/223 225/315/225 208/316/222
f 211/317/226 209/309/221 204/17/14 9/18/15
f 212/318/227 210/319/224 209/320/221 211/321/226
f 211/321/226 213/322/228 214/323/229 212/318/227
f 211/317/226 9/18/15 11/19/16 213/324/228
f 38/58/42 41/65/47 214/323/229 213/322/228
f 213/322/228 11/23/16 14/22/18 38/58/42
f 218/325/230 212/318/227 214/323/229 215/326/231
f 214/323/229 41/65/47 216/68/50 215/326/231
f 216/68/50 40/67/49 217/327/232 215/326/231
f 218/325/230 215/326/231 217/327/232 219/79/57
f 219/79/57 48/81/58 220/328/233 218/325/230
f 218/325/230 220/328/233 210/319/224 212/318/227
f 222/82/59 221/329/234 220/330/233 48/83/58
f 221/329/234 207/311/223 210/314/224 220/330/233
f 207/311/223 221/329/234 223/276/197 225/315/225
f 222/82/59 224/331/235 223/276/197 221/329/234
f 228/89/63 180/272/193 223/276/197 226/332/236
f 227/333/237 226/332/236 223/276/197 224/331/235
f 185/277/198 225/315/225 223/276/197 183/275/196
f 228/89/63 226/332/236 227/333/237 50/85/60
f 222/82/59 50/85/60 227/333/237 224/331/235
f 187/279/200 208/316/222 225/315/225 185/277/198
f 43/66/48 219/79/57 217/327/232 40/67/49
f 187/334/200 190/335/202 205/307/219 208/310/222
f 192/336/205 202/305/217 205/307/219 190/335/202
f 229/337/206 200/303/215 202/305/217 192/336/205
f 231/338/238 230/300/214 200/303/215 229/337/206
f 234/339/239 232/340/240 230/341/214 231/342/238
f 230/300/214 232/343/240 233/344/241 199/301/213
f 235/345/242 233/346/241 232/340/240 234/339/239
f 231/342/238 236/298/212 235/345/242 234/339/239
f 236/298/212 199/299/213 233/346/241 235/345/242
f 236/298/212 231/342/238 229/292/206 194/293/207
f 193/141/99 82/140/98 238/176/122 197/294/208
f 237/297/211 197/294/208 238/176/122 106/174/121
f 238/176/122 82/140/98 80/133/93 107/177/123
f 237/297/211 97/347/112 4/11/7 196/10/10
f 97/347/112 237/297/211 106/174/121 99/175/113
f 37/62/44 239/61/43 170/286/183 46/73/53
f 160/246/173 158/245/172 240/111/78 64/103/73
f 240/111/78 158/245/172 241/247/174
f 242/348/243 241/247/174 73/124/87
f 242/348/243 63/112/76 240/111/78 241/247/174
f 73/124/87 71/349/86 243/350/85 242/348/243
f 63/112/76 242/348/243 243/350/85 66/351/77
f 109/178/124 107/177/123 80/133/93 76/132/91
