# Blender 5.2.0 LTS
# www.blender.org
mtllib terrain-abyss-chancel-object-095.mtl
o terrain-abyss-chancel-object-095
v 0.289160 0.846536 0.084699
v 0.287155 0.842101 0.089486
v 0.288029 0.852850 0.086115
v 0.291008 0.851420 0.077826
v 0.287912 0.840717 0.082042
v 0.290445 0.845881 0.075624
v 0.285891 0.836994 0.086429
v 0.282814 0.835016 0.078831
v 0.284498 0.833250 0.082781
v 0.276825 0.834539 0.081925
v 0.288825 0.838297 0.073975
v 0.279737 0.833572 0.073044
v 0.285799 0.831844 0.070676
v 0.277990 0.832169 0.066166
v 0.274562 0.834403 0.075655
v 0.269149 0.836276 0.078049
v 0.273072 0.833734 0.067881
v 0.267809 0.836043 0.069774
v 0.271814 0.833288 0.058485
v 0.276772 0.830707 0.057576
v 0.268701 0.831353 0.047773
v 0.266742 0.836079 0.060307
v 0.261682 0.838575 0.062328
v 0.263534 0.836560 0.049461
v 0.257916 0.839745 0.036340
v 0.257689 0.841061 0.052637
v 0.250515 0.845501 0.042412
v 0.254816 0.847577 0.057099
v 0.261478 0.844839 0.063729
v 0.246122 0.853184 0.048113
v 0.255971 0.855105 0.059706
v 0.246280 0.861450 0.050987
v 0.257480 0.862312 0.061215
v 0.263420 0.851563 0.064576
v 0.264753 0.851536 0.072141
v 0.265345 0.858184 0.065279
v 0.266453 0.864140 0.064736
v 0.266631 0.857707 0.072087
v 0.267977 0.858074 0.079716
v 0.268631 0.863939 0.071802
v 0.271701 0.868513 0.071590
v 0.269686 0.864243 0.079358
v 0.270001 0.863614 0.086237
v 0.272313 0.867712 0.079452
v 0.272896 0.866864 0.084789
v 0.276041 0.865121 0.080408
v 0.275395 0.864697 0.087189
v 0.280645 0.861598 0.082252
v 0.276154 0.865681 0.071829
v 0.275165 0.866690 0.060421
v 0.282304 0.861713 0.074935
v 0.283516 0.861499 0.064984
v 0.288225 0.856721 0.078318
v 0.284707 0.857412 0.084444
v 0.291873 0.854561 0.080394
v 0.291169 0.855584 0.069867
v 0.292746 0.856219 0.054931
v 0.295675 0.850967 0.067621
v 0.296491 0.850505 0.056824
v 0.295571 0.844174 0.061275
v 0.293659 0.839007 0.068069
v 0.290539 0.831365 0.066539
v 0.293429 0.837603 0.061037
v 0.290569 0.830849 0.060058
v 0.293573 0.836180 0.051890
v 0.290701 0.829510 0.050102
v 0.296149 0.834232 0.034938
v 0.295761 0.843309 0.054456
v 0.298607 0.841283 0.036484
v 0.299590 0.847948 0.037042
v 0.303295 0.838960 0.011964
v 0.313723 0.832640 -0.007382
v 0.299657 0.832144 0.011591
v 0.304717 0.846171 0.013771
v 0.316884 0.841205 -0.007480
v 0.301275 0.852819 0.014405
v 0.310680 0.849570 -0.008141
v 0.295150 0.854487 0.035844
v 0.293822 0.857731 0.013360
v 0.302539 0.854239 -0.008935
v 0.286821 0.861951 0.012406
v 0.288871 0.859439 0.034230
v 0.285569 0.860693 0.052077
v 0.282818 0.862716 0.032728
v 0.281662 0.869848 0.032213
v 0.280527 0.865210 0.048312
v 0.279259 0.871142 0.045972
v 0.274652 0.873410 0.056113
v 0.271969 0.875193 0.042273
v 0.267657 0.877379 0.051872
v 0.275512 0.873367 0.030199
v 0.264555 0.879432 0.037043
v 0.268080 0.877672 0.026079
v 0.260099 0.881762 0.045332
v 0.254975 0.885017 0.030238
v 0.258100 0.883558 0.020779
v 0.251056 0.886761 0.037358
v 0.240789 0.893575 0.024765
v 0.244046 0.891989 0.015718
v 0.228882 0.901833 0.018060
v 0.237383 0.895049 0.031994
v 0.234310 0.895041 0.038544
v 0.223976 0.903998 0.023403
v 0.218221 0.905712 0.028202
v 0.216690 0.909405 0.006088
v 0.223071 0.905925 0.004274
v 0.210422 0.912854 0.007303
v 0.214297 0.912811 -0.015498
v 0.206328 0.916113 -0.015177
v 0.221064 0.908019 -0.013189
v 0.211785 0.908696 -0.045581
v 0.212394 0.909392 -0.056245
v 0.222566 0.908990 -0.035729
v 0.208406 0.894364 -0.046877
v 0.205634 0.911273 -0.040693
v 0.201287 0.895154 -0.043952
v 0.200893 0.902435 -0.035984
v 0.202349 0.908310 -0.027467
v 0.202129 0.909555 -0.012639
v 0.200630 0.901785 -0.027388
v 0.199662 0.891058 -0.025699
v 0.200655 0.900907 -0.012621
v 0.200684 0.890319 -0.013704
v 0.206568 0.899549 0.003915
v 0.205813 0.889438 0.001084
v 0.207499 0.908052 0.006169
v 0.207091 0.895568 0.027114
v 0.224736 0.885680 0.044891
v 0.211500 0.903863 0.030637
v 0.206356 0.887058 0.023242
v 0.207395 0.878081 0.019310
v 0.218174 0.879582 0.041398
v 0.234813 0.874093 0.044338
v 0.215208 0.873439 0.036770
v 0.228793 0.869379 0.041882
v 0.216391 0.864968 0.031258
v 0.211508 0.867519 0.015429
v 0.226697 0.857180 0.038782
v 0.238960 0.851080 0.028643
v 0.218461 0.860484 0.013989
v 0.228003 0.855904 0.008195
v 0.210583 0.862092 -0.007015
v 0.206925 0.866941 -0.005155
v 0.219852 0.859089 -0.012220
v 0.204805 0.859732 -0.020439
v 0.206919 0.857355 -0.007032
v 0.203822 0.854457 -0.016499
v 0.202640 0.861082 -0.003998
v 0.202709 0.852057 -0.003276
v 0.200560 0.855053 0.001600
v 0.198055 0.851471 -0.002123
v 0.200135 0.850251 -0.011847
v 0.194538 0.851906 -0.009082
v 0.196674 0.851715 -0.017539
v 0.192029 0.854904 -0.015873
v 0.197517 0.855541 -0.022522
v 0.199438 0.862566 -0.027485
v 0.192842 0.860951 -0.021530
v 0.197446 0.868101 -0.027265
v 0.194988 0.866849 -0.016495
v 0.199347 0.876552 -0.023106
v 0.191985 0.860356 -0.011428
v 0.199306 0.868580 -0.010859
v 0.202811 0.877927 -0.014801
v 0.196524 0.862796 -0.006284
v 0.195560 0.856499 -0.001718
v 0.192514 0.856240 -0.007602
v 0.206287 0.878729 -0.001582
v 0.199541 0.880869 -0.035417
v 0.199484 0.871472 -0.037097
v 0.199871 0.892600 -0.035984
v 0.201494 0.882479 -0.045141
v 0.207728 0.883313 -0.050030
v 0.203658 0.870926 -0.049351
v 0.208646 0.874312 -0.053112
v 0.207746 0.866656 -0.061878
v 0.209709 0.863971 -0.047114
v 0.213612 0.862070 -0.060345
v 0.203767 0.866256 -0.034425
v 0.218816 0.859388 -0.044791
v 0.223266 0.857336 -0.057397
v 0.233949 0.851794 -0.044523
v 0.213672 0.861581 -0.028419
v 0.233061 0.852241 -0.031565
v 0.250422 0.842096 -0.032400
v 0.236554 0.851910 -0.017432
v 0.256793 0.838876 -0.021923
v 0.242392 0.848857 0.000891
v 0.250146 0.844670 0.019955
v 0.260315 0.838459 -0.006032
v 0.263664 0.836653 0.012502
v 0.273896 0.832553 -0.010886
v 0.268781 0.834038 -0.028032
v 0.275647 0.831526 0.009515
v 0.283450 0.828079 -0.014937
v 0.283849 0.827576 0.007151
v 0.291078 0.823851 -0.019600
v 0.276987 0.830159 -0.035403
v 0.256010 0.840716 -0.051668
v 0.282707 0.827380 -0.043859
v 0.286827 0.825325 -0.053104
v 0.257260 0.840239 -0.062831
v 0.258717 0.842647 -0.071933
v 0.236849 0.850741 -0.064668
v 0.240153 0.854356 -0.071304
v 0.225381 0.856486 -0.068376
v 0.235519 0.851210 -0.055665
v 0.228578 0.861098 -0.076191
v 0.214918 0.861494 -0.072351
v 0.210373 0.863608 -0.070988
v 0.212144 0.867357 -0.080629
v 0.218044 0.867517 -0.088241
v 0.211817 0.881666 -0.077878
v 0.210274 0.870863 -0.072094
v 0.210872 0.882047 -0.070321
v 0.208591 0.872967 -0.062260
v 0.209427 0.883008 -0.060724
v 0.210428 0.894230 -0.058673
v 0.211839 0.893871 -0.068301
v 0.214429 0.908626 -0.067207
v 0.213181 0.893723 -0.075084
v 0.216554 0.903657 -0.073587
v 0.214021 0.894882 -0.080561
v 0.212124 0.882564 -0.084288
v 0.217089 0.902220 -0.077526
v 0.215146 0.896777 -0.084528
v 0.216142 0.901979 -0.079988
v 0.215352 0.884428 -0.088091
v 0.219304 0.895977 -0.084651
v 0.221679 0.888099 -0.088060
v 0.222042 0.900742 -0.080905
v 0.222809 0.901627 -0.077770
v 0.227309 0.893500 -0.085099
v 0.230224 0.897395 -0.079856
v 0.236320 0.884759 -0.089251
v 0.240634 0.890459 -0.082699
v 0.230024 0.877483 -0.092031
v 0.249543 0.877106 -0.090000
v 0.244004 0.869914 -0.092259
v 0.269504 0.865936 -0.084095
v 0.253423 0.882601 -0.083175
v 0.254810 0.884849 -0.073970
v 0.269319 0.872370 -0.077557
v 0.294060 0.859574 -0.060256
v 0.267907 0.876147 -0.070520
v 0.266130 0.878065 -0.064134
v 0.288158 0.863383 -0.055090
v 0.296887 0.858999 -0.032296
v 0.281275 0.867441 -0.051263
v 0.278081 0.874332 -0.046860
v 0.288420 0.864800 -0.031329
v 0.287132 0.865269 -0.010741
v 0.283251 0.871370 -0.031173
v 0.283638 0.871660 -0.010319
v 0.273561 0.876716 -0.030473
v 0.268780 0.880400 -0.051822
v 0.274630 0.875994 -0.010277
v 0.262394 0.883389 -0.029612
v 0.247575 0.892015 -0.029796
v 0.263180 0.881876 -0.009883
v 0.259137 0.886139 -0.050401
v 0.245075 0.894203 -0.049055
v 0.255578 0.885107 -0.063897
v 0.242827 0.892795 -0.062747
v 0.231279 0.899762 -0.062808
v 0.242369 0.892733 -0.073648
v 0.231424 0.899345 -0.072089
v 0.222920 0.903480 -0.072035
v 0.221868 0.904890 -0.064155
v 0.220564 0.905690 -0.052596
v 0.231311 0.900639 -0.050023
v 0.232415 0.901877 -0.031080
v 0.232736 0.900973 -0.012626
v 0.232603 0.900259 0.002680
v 0.247947 0.890589 -0.010919
v 0.246657 0.890805 0.003997
v 0.260933 0.882345 0.008164
v 0.271189 0.876341 0.011152
v 0.279037 0.871789 0.012439
v 0.284205 0.867102 0.012328
v 0.234307 0.898544 0.012546
v 0.293953 0.858944 -0.010135
v 0.306279 0.852736 -0.033580
v 0.312637 0.847161 -0.033795
v 0.299436 0.854427 -0.065262
v 0.316167 0.839921 -0.032553
v 0.304167 0.846070 -0.068594
v 0.313100 0.831245 -0.030829
v 0.301847 0.836524 -0.068291
v 0.308840 0.822926 -0.029088
v 0.306251 0.818728 -0.028457
v 0.305955 0.823743 -0.004378
v 0.295227 0.829635 -0.062790
v 0.291658 0.829137 -0.056821
v 0.263501 0.846399 -0.082918
v 0.261282 0.844497 -0.075827
v 0.246240 0.853055 -0.088079
v 0.265906 0.852183 -0.087233
v 0.240486 0.861743 -0.094208
v 0.268934 0.859235 -0.086722
v 0.231583 0.859346 -0.085769
v 0.223540 0.871646 -0.094058
v 0.241563 0.853973 -0.080651
v 0.305178 0.818072 -0.011427
v 0.298932 0.821612 -0.000591
v 0.299995 0.821593 -0.008175
v 0.295724 0.827287 0.009185
v 0.292791 0.827732 0.032669
v 0.292003 0.823819 0.003721
v 0.288084 0.825174 0.030499
v 0.282372 0.828010 0.030730
v 0.287178 0.826293 0.048668
v 0.281814 0.828160 0.047721
v 0.287000 0.826880 0.058990
v 0.282151 0.828805 0.057830
v 0.286552 0.827429 0.064217
v 0.283261 0.829973 0.065077
v 0.275847 0.828630 0.047097
v 0.275746 0.830394 0.031339
v 0.266456 0.832348 0.032490
v 0.298183 0.820297 -0.025804
v 0.254974 0.840867 -0.041417
v 0.239333 0.879391 0.045800
v 0.248259 0.867956 0.052953
v 0.250288 0.874339 0.054038
v 0.258994 0.868973 0.061795
v 0.252412 0.880885 0.054714
v 0.260497 0.875336 0.062929
v 0.255772 0.884053 0.052233
v 0.242941 0.884588 0.045844
v 0.229751 0.891632 0.043130
v 0.246809 0.887626 0.042867
v 0.263594 0.879459 0.060274
v 0.270805 0.875293 0.063565
v 0.269040 0.869806 0.064390
v 0.280374 0.856139 0.090641
v 0.274357 0.854316 0.093106
v 0.277478 0.860428 0.088571
v 0.284419 0.850059 0.093110
v 0.285062 0.844250 0.096770
v 0.274680 0.848166 0.094917
v 0.278994 0.843139 0.099134
v 0.271972 0.842280 0.094305
v 0.268659 0.847374 0.087267
v 0.269473 0.853054 0.087257
v 0.267694 0.841809 0.087127
v 0.265961 0.846175 0.079872
v 0.263318 0.845105 0.072015
v 0.266704 0.852248 0.079917
v 0.265800 0.840058 0.079595
v 0.263342 0.839273 0.071469
v 0.271648 0.837751 0.084974
v 0.274941 0.838424 0.090158
v 0.279391 0.838256 0.094636
v 0.279637 0.835196 0.086349
v 0.282818 0.835533 0.090699
v 0.285763 0.838242 0.093586
v 0.281259 0.838227 0.096780
v 0.276113 0.840626 0.097647
v 0.269830 0.858258 0.086927
v 0.273306 0.859063 0.092377
v 0.272386 0.862626 0.092296
vn 0.9567 -0.1536 0.2473
vn 0.7787 -0.6200 0.0961
vn 0.9201 -0.3772 0.1055
vn 0.9463 -0.1233 0.2990
vn 0.7919 0.3718 0.4843
vn 0.5867 0.4210 0.6917
vn 0.9664 0.1057 0.2345
vn 0.8751 0.3910 0.2851
vn 0.9185 -0.1800 0.3521
vn 0.4048 -0.9056 0.1268
vn 0.7279 -0.5063 0.4624
vn 0.4470 -0.8933 -0.0471
vn -0.2113 -0.9628 0.1686
vn -0.1547 -0.9560 0.2492
vn -0.1973 -0.9680 0.1550
vn 0.0027 -0.9632 0.2687
vn 0.2371 -0.8197 0.5214
vn -0.2721 -0.9391 0.2101
vn -0.2499 -0.9127 0.3232
vn -0.3129 -0.9416 0.1249
vn -0.4765 -0.8508 0.2213
vn -0.4571 -0.8816 0.1178
vn -0.4612 -0.8225 0.3327
vn -0.4941 -0.8624 0.1106
vn -0.4266 -0.8876 0.1738
vn -0.3162 -0.9306 0.1843
vn -0.4749 -0.8729 0.1115
vn -0.2716 -0.9606 0.0597
vn -0.5862 -0.8038 0.1018
vn -0.8545 -0.4694 0.2226
vn -0.7435 -0.6367 0.2045
vn -0.6852 -0.6994 0.2033
vn -0.5881 -0.8082 0.0304
vn -0.4684 -0.8828 -0.0358
vn -0.5900 -0.7900 0.1666
vn -0.6561 -0.5012 0.5643
vn -0.7704 -0.3247 0.5487
vn -0.9052 -0.0847 0.4164
vn -0.8330 0.1204 0.5400
vn -0.6452 -0.0628 0.7614
vn -0.5990 -0.0932 0.7953
vn -0.5511 0.0313 0.8339
vn -0.5879 0.0464 0.8076
vn -0.7899 0.1684 0.5896
vn -0.9668 0.0828 0.2418
vn -0.9516 0.2279 0.2062
vn -0.9451 0.2676 0.1876
vn -0.6626 0.2261 0.7141
vn -0.8909 0.4028 0.2097
vn -0.4884 0.0625 0.8704
vn -0.9478 0.1743 0.2672
vn -0.9566 0.2182 0.1931
vn -0.8873 0.4411 0.1350
vn -0.1570 0.9738 0.1648
vn -0.1578 0.9793 0.1269
vn 0.0697 0.5632 0.8234
vn -0.0965 0.9645 0.2457
vn -0.8066 0.4777 0.3481
vn -0.9191 0.0742 0.3869
vn 0.5245 0.8502 0.0460
vn 0.5808 0.8047 0.1232
vn 0.4058 0.7984 0.4448
vn 0.5825 0.5633 0.5859
vn 0.6004 0.7563 0.2601
vn 0.5666 0.8179 0.0997
vn 0.7130 0.6538 0.2534
vn 0.5495 0.8330 0.0637
vn 0.6765 0.7172 0.1674
vn 0.7729 0.6153 0.1547
vn 0.5718 0.7167 0.3993
vn 0.5595 0.8274 0.0481
vn 0.6878 0.7238 0.0561
vn 0.9496 0.1923 0.2476
vn 0.9594 0.2669 0.0916
vn 0.9778 -0.1932 0.0814
vn 0.9645 -0.2347 0.1212
vn 0.8839 -0.3165 0.3443
vn 0.9396 -0.3353 0.0687
vn 0.6715 -0.6444 0.3658
vn 0.8233 -0.5627 0.0741
vn 0.9141 -0.3858 0.1252
vn 0.7751 -0.6215 0.1136
vn 0.6949 -0.7067 0.1333
vn 0.8754 -0.4513 0.1730
vn 0.9396 -0.2835 0.1916
vn 0.9680 0.1892 0.1649
vn 0.8546 -0.3469 0.3864
vn 0.9322 0.1687 0.3201
vn 0.7720 -0.5321 0.3477
vn 0.8643 -0.4286 0.2631
vn 0.9708 0.0854 0.2244
vn 0.6203 -0.6859 0.3805
vn 0.6968 0.7006 0.1535
vn 0.7120 0.6972 0.0835
vn 0.7206 0.6855 0.1044
vn 0.5268 0.8487 0.0465
vn 0.5176 0.8531 0.0657
vn 0.5510 0.8335 0.0408
vn 0.5953 0.8012 0.0612
vn 0.7083 0.7005 0.0876
vn 0.7970 0.5981 0.0838
vn 0.7909 0.5930 0.1512
vn 0.7933 0.5924 0.1404
vn 0.8041 0.5902 0.0713
vn 0.8035 0.5885 0.0899
vn 0.7381 0.6199 0.2664
vn 0.4871 0.8732 0.0151
vn 0.4865 0.8734 0.0207
vn 0.5170 0.8559 0.0113
vn 0.4878 0.8727 0.0211
vn 0.4631 0.8859 0.0267
vn 0.4948 0.8687 0.0225
vn 0.5009 0.8650 0.0281
vn 0.4943 0.8686 0.0350
vn 0.4587 0.8853 0.0769
vn 0.5273 0.8488 0.0378
vn 0.5179 0.8533 0.0599
vn 0.4762 0.8666 0.1493
vn 0.5430 0.8385 0.0442
vn 0.5146 0.8548 0.0667
vn 0.4661 0.8747 0.1330
vn 0.0743 0.9094 0.4093
vn 0.2828 0.8215 0.4951
vn 0.2295 0.8889 0.3965
vn 0.4691 0.8794 0.0815
vn -0.1438 0.9603 0.2389
vn 0.5114 0.8577 0.0536
vn 0.4814 0.8760 0.0290
vn 0.3844 0.9226 -0.0313
vn -0.3048 0.9524 0.0074
vn -0.4218 0.7833 -0.4567
vn -0.2366 0.8788 -0.4143
vn 0.4189 0.9051 -0.0728
vn -0.9777 0.1454 -0.1517
vn -0.7889 0.2020 -0.5803
vn -0.4918 0.8593 -0.1406
vn 0.4069 0.9104 -0.0753
vn -0.7916 0.1830 -0.5831
vn -0.9902 0.0799 -0.1147
vn -0.9596 0.2431 -0.1414
vn -0.9839 0.1776 -0.0189
vn -0.9123 0.4048 -0.0617
vn -0.9234 0.3585 0.1369
vn -0.9815 0.0785 0.1745
vn -0.9983 0.0277 0.0519
vn -0.9744 -0.0473 0.2196
vn -0.9743 0.0996 0.2021
vn -0.8535 0.4494 0.2638
vn -0.9828 -0.0518 0.1770
vn -0.9549 -0.0193 0.2963
vn -0.8855 0.1746 0.4306
vn -0.5764 0.5741 0.5816
vn -0.3795 0.0450 0.9241
vn -0.6017 -0.1472 0.7851
vn -0.1047 0.4762 0.8731
vn -0.7414 -0.2791 0.6102
vn -0.9558 -0.2066 0.2090
vn -0.9650 -0.1144 0.2362
vn -0.3930 -0.0926 0.9148
vn -0.3511 0.0959 0.9314
vn -0.4572 -0.2301 0.8591
vn -0.7584 -0.5307 0.3783
vn -0.5754 -0.6352 0.5152
vn -0.8417 -0.5098 0.1780
vn -0.5512 -0.8297 0.0878
vn -0.4679 -0.8794 0.0879
vn -0.4138 -0.9102 0.0173
vn -0.0166 -0.9413 0.3372
vn -0.3066 -0.9515 0.0247
vn -0.7127 -0.1559 0.6839
vn 0.1770 0.3570 0.9172
vn 0.8517 -0.4208 0.3123
vn -0.2929 -0.9522 -0.0862
vn 0.3324 -0.8618 -0.3833
vn 0.6590 -0.6616 -0.3578
vn 0.5137 -0.7152 0.4739
vn 0.2240 -0.9656 -0.1323
vn 0.1604 -0.0275 0.9867
vn -0.3613 -0.7974 0.4834
vn -0.6373 0.0759 0.7668
vn -0.6351 -0.7585 0.1459
vn -0.1950 -0.8717 -0.4497
vn -0.1063 -0.6560 -0.7473
vn -0.8818 -0.4189 -0.2170
vn -0.8950 -0.0427 -0.4440
vn -0.3503 -0.6563 -0.6682
vn -0.9317 -0.0463 -0.3603
vn -0.8851 0.4530 0.1065
vn -0.9779 0.1914 0.0841
vn -0.9418 0.2674 0.2039
vn -0.7237 0.4722 0.5033
vn -0.9327 0.1163 0.3415
vn -0.5493 0.5821 0.5995
vn -0.9350 -0.0789 0.3457
vn -0.9918 0.0328 -0.1239
vn -0.9300 -0.2671 -0.2524
vn -0.8459 0.0782 -0.5276
vn -0.8932 -0.2601 -0.3668
vn -0.8434 0.1340 -0.5203
vn -0.9026 0.2131 -0.3740
vn -0.9254 -0.3486 -0.1485
vn -0.9693 0.1485 -0.1961
vn -0.5250 -0.8511 -0.0031
vn -0.5692 -0.8196 -0.0659
vn -0.5339 -0.7878 -0.3070
vn -0.4423 -0.8968 -0.0117
vn -0.4401 -0.8979 -0.0131
vn -0.4552 -0.8900 -0.0248
vn -0.4503 -0.8927 -0.0182
vn -0.4580 -0.8888 0.0155
vn -0.4610 -0.8862 0.0457
vn -0.4631 -0.8863 -0.0079
vn -0.4399 -0.8977 0.0255
vn -0.4383 -0.8981 -0.0356
vn -0.4478 -0.8939 0.0230
vn -0.4710 -0.8819 0.0203
vn -0.5161 -0.8565 0.0075
vn -0.4547 -0.8900 -0.0334
vn -0.4034 -0.9149 0.0140
vn -0.3919 -0.9193 -0.0354
vn -0.4026 -0.9153 0.0054
vn -0.4328 -0.9014 0.0121
vn -0.4327 -0.9014 0.0159
vn -0.4288 -0.9033 -0.0123
vn -0.3933 -0.9189 0.0299
vn -0.2209 -0.9691 0.1095
vn -0.4311 -0.9020 -0.0241
vn -0.4478 -0.8940 -0.0171
vn -0.4394 -0.8838 -0.1607
vn -0.2715 -0.9607 -0.0573
vn -0.1854 -0.9350 -0.3023
vn -0.3351 -0.8582 -0.3889
vn -0.4077 -0.8778 -0.2516
vn -0.4026 -0.8504 -0.3389
vn -0.3376 -0.8952 -0.2908
vn -0.3399 -0.8874 -0.3116
vn -0.4853 -0.8250 -0.2896
vn -0.8037 -0.4702 -0.3646
vn -0.8375 -0.5200 -0.1677
vn -0.9728 -0.0494 -0.2261
vn -0.6460 -0.5652 -0.5131
vn -0.4252 -0.8350 -0.3492
vn -0.9076 0.0234 -0.4193
vn -0.9771 0.0551 -0.2054
vn -0.9812 0.0958 -0.1674
vn -0.9867 0.0814 -0.1409
vn -0.9638 0.1663 -0.2083
vn -0.3992 0.8670 -0.2983
vn -0.9584 0.2238 -0.1774
vn -0.4573 0.7997 -0.3891
vn -0.9557 0.2475 -0.1592
vn -0.4716 0.8500 -0.2349
vn -0.5782 0.4582 -0.6751
vn -0.5582 0.1742 -0.8112
vn -0.5345 0.7676 -0.3537
vn 0.1980 0.7661 -0.6115
vn 0.0228 0.4788 -0.8776
vn -0.0317 0.3727 -0.9274
vn 0.1840 0.5712 -0.7999
vn 0.2698 0.8952 -0.3547
vn 0.3958 0.7882 -0.4713
vn 0.4022 0.7480 -0.5279
vn 0.1758 0.4754 -0.8620
vn 0.0319 0.2909 -0.9562
vn 0.5011 0.6978 -0.5118
vn 0.3325 0.4053 -0.8516
vn 0.1902 0.1724 -0.9665
vn 0.5131 0.4664 -0.7206
vn 0.4103 0.1382 -0.9014
vn 0.5804 0.7106 -0.3976
vn 0.5730 0.8070 -0.1430
vn 0.5466 0.8177 -0.1807
vn 0.5056 0.8462 -0.1681
vn 0.5972 0.7771 -0.1985
vn 0.6891 0.5972 -0.4105
vn 0.5503 0.8316 -0.0750
vn 0.6395 0.7583 -0.1268
vn 0.5700 0.8102 -0.1365
vn 0.5206 0.8438 -0.1305
vn 0.6949 0.7181 -0.0388
vn 0.5504 0.8349 0.0030
vn 0.5824 0.8124 -0.0288
vn 0.5805 0.7982 -0.1610
vn 0.6719 0.7223 -0.1637
vn 0.6896 0.7221 -0.0551
vn 0.7572 0.6499 0.0654
vn 0.6604 0.7495 0.0469
vn 0.4933 0.8697 0.0166
vn 0.4701 0.8819 0.0362
vn 0.5060 0.8583 -0.0855
vn 0.5002 0.8651 0.0363
vn 0.4887 0.8715 0.0407
vn 0.4890 0.8694 -0.0706
vn 0.5124 0.8583 0.0279
vn 0.5253 0.8499 0.0422
vn 0.4986 0.8618 -0.0932
vn 0.4756 0.8776 -0.0610
vn 0.4935 0.8653 -0.0876
vn 0.4708 0.8672 -0.1622
vn 0.3492 0.9058 -0.2399
vn 0.4307 0.8974 -0.0957
vn 0.5320 0.8467 -0.0088
vn 0.5408 0.8399 0.0448
vn 0.5373 0.8424 0.0420
vn 0.5272 0.8490 0.0366
vn 0.4937 0.8689 0.0356
vn 0.4828 0.8747 0.0434
vn 0.5854 0.8093 0.0486
vn 0.7660 0.6351 -0.0991
vn 0.9840 0.0746 -0.1621
vn 0.7813 0.1079 -0.6148
vn 0.8597 -0.4850 -0.1606
vn 0.5925 -0.4740 -0.6513
vn 0.7238 -0.6738 -0.1485
vn 0.2349 -0.8420 -0.4856
vn 0.3487 -0.9246 -0.1536
vn 0.0216 -0.9132 -0.4069
vn 0.3921 -0.9081 0.1471
vn 0.2129 -0.3388 -0.9165
vn -0.1163 -0.8125 -0.5712
vn -0.2867 -0.8935 -0.3456
vn -0.4348 -0.8727 -0.2222
vn -0.2287 -0.7963 -0.5600
vn -0.0817 -0.3686 -0.9260
vn -0.3229 -0.1395 -0.9361
vn 0.1500 -0.8960 0.4180
vn -0.1626 -0.9707 0.1770
vn 0.5202 -0.8016 0.2946
vn 0.0483 -0.9971 0.0583
vn -0.3646 -0.9310 -0.0180
vn 0.1262 -0.9888 0.0797
vn -0.2971 -0.9539 0.0438
vn 0.1762 -0.9775 0.1158
vn -0.3445 -0.9289 0.1357
vn 0.1158 -0.9476 0.2978
vn -0.3074 -0.9496 -0.0611
vn -0.6012 0.1238 0.7895
vn -0.3425 0.3014 0.8899
vn -0.4502 0.4951 0.7431
vn -0.1894 0.5128 0.8373
vn 0.1644 0.8340 0.5267
vn 0.1139 0.9244 0.3641
vn 0.4798 0.5872 0.6519
vn 0.4301 0.5435 0.7208
vn -0.3089 0.2897 0.9059
vn -0.2459 0.2803 0.9279
vn -0.4260 0.3444 0.8366
vn 0.7259 -0.5144 0.4566
vn 0.6533 0.1906 0.7328
vn -0.0666 0.0438 0.9968
vn -0.7307 -0.2799 0.6227
vn -0.5040 -0.4660 0.7272
vn -0.8773 0.1076 0.4676
vn -0.8820 0.1456 0.4482
vn -0.8450 -0.3076 0.4375
vn -0.9520 0.0931 0.2915
vn -0.8552 -0.4114 0.3153
vn -0.4268 -0.8361 0.3446
vn -0.2348 -0.8567 0.4593
vn 0.2123 -0.9213 0.3258
vn 0.1635 -0.6554 0.7374
vn -0.2425 0.4741 0.8464
vt 0.249155 0.791163
vt 0.247200 0.789146
vt 0.249871 0.788208
vt 0.251818 0.789911
vt 0.254086 0.791327
vt 0.251964 0.795144
vt 0.254538 0.786812
vt 0.255550 0.788190
vt 0.252013 0.785589
vt 0.247756 0.786119
vt 0.249675 0.784441
vt 0.246737 0.787822
vt 0.154347 0.203634
vt 0.151102 0.205025
vt 0.151031 0.202753
vt 0.153654 0.201145
vt 0.154671 0.206597
vt 0.151976 0.207660
vt 0.147976 0.207554
vt 0.146125 0.204496
vt 0.151991 0.210796
vt 0.148768 0.210808
vt 0.154873 0.210894
vt 0.157464 0.206457
vt 0.157956 0.210514
vt 0.157624 0.202941
vt 0.157847 0.215157
vt 0.154561 0.215363
vt 0.151513 0.215046
vt 0.154185 0.220846
vt 0.150300 0.220218
vt 0.158115 0.220731
vt 0.160499 0.210111
vt 0.160461 0.214821
vt 0.162073 0.220285
vt 0.159794 0.227697
vt 0.153887 0.228516
vt 0.165138 0.226122
vt 0.169490 0.223451
vt 0.165622 0.218097
vt 0.163308 0.214337
vt 0.275415 0.806484
vt 0.270130 0.804095
vt 0.270826 0.801349
vt 0.275596 0.802678
vt 0.282875 0.803321
vt 0.282752 0.807346
vt 0.275811 0.799243
vt 0.282544 0.799873
vt 0.271047 0.798250
vt 0.266506 0.803754
vt 0.267288 0.800992
vt 0.267818 0.798208
vt 0.271342 0.795300
vt 0.267896 0.795044
vt 0.276050 0.796063
vt 0.263708 0.800664
vt 0.264340 0.798338
vt 0.264467 0.795560
vt 0.267131 0.792155
vt 0.263699 0.793753
vt 0.270673 0.791696
vt 0.261823 0.795098
vt 0.261567 0.796998
vt 0.260672 0.798939
vt 0.265064 0.790106
vt 0.261882 0.792617
vt 0.260143 0.794940
vt 0.257666 0.794998
vt 0.259283 0.791909
vt 0.261326 0.788806
vt 0.268606 0.786084
vt 0.263482 0.784535
vt 0.257573 0.788214
vt 0.258256 0.783658
vt 0.256599 0.791615
vt 0.265878 0.778293
vt 0.261740 0.776916
vt 0.256354 0.781011
vt 0.258421 0.775936
vt 0.137288 0.208778
vt 0.136264 0.212005
vt 0.133537 0.209341
vt 0.136155 0.204580
vt 0.142964 0.202076
vt 0.141882 0.206909
vt 0.140107 0.210187
vt 0.144792 0.209346
vt 0.143403 0.211958
vt 0.139171 0.214731
vt 0.142342 0.216847
vt 0.139565 0.225222
vt 0.136427 0.223002
vt 0.133393 0.220644
vt 0.130572 0.218893
vt 0.128764 0.232324
vt 0.125979 0.229920
vt 0.132320 0.234077
vt 0.122028 0.241864
vt 0.117966 0.240326
vt 0.127591 0.242152
vt 0.261855 0.765175
vt 0.267115 0.754063
vt 0.269952 0.756425
vt 0.265347 0.767205
vt 0.269709 0.740669
vt 0.273846 0.743757
vt 0.277545 0.746606
vt 0.273707 0.758810
vt 0.268964 0.769077
vt 0.281576 0.749357
vt 0.277120 0.761085
vt 0.272144 0.770594
vt 0.269544 0.778665
vt 0.272619 0.779077
vt 0.275332 0.772385
vt 0.279529 0.762749
vt 0.272341 0.785004
vt 0.277108 0.780005
vt 0.276688 0.785615
vt 0.278769 0.773664
vt 0.282027 0.780536
vt 0.281974 0.785709
vt 0.283467 0.774644
vt 0.289668 0.776108
vt 0.288385 0.781352
vt 0.288236 0.785951
vt 0.297661 0.779015
vt 0.296622 0.783937
vt 0.296411 0.788090
vt 0.303399 0.781053
vt 0.304457 0.785097
vt 0.305288 0.788738
vt 0.306677 0.792062
vt 0.295958 0.791762
vt 0.288717 0.789960
vt 0.313474 0.784810
vt 0.315983 0.787453
vt 0.311258 0.781895
vt 0.317859 0.775998
vt 0.321733 0.777834
vt 0.324473 0.781131
vt 0.333724 0.773277
vt 0.333828 0.768417
vt 0.325816 0.767911
vt 0.342963 0.765154
vt 0.341114 0.770880
vt 0.335757 0.763302
vt 0.331347 0.761862
vt 0.340340 0.774868
vt 0.339182 0.780031
vt 0.335735 0.778396
vt 0.333329 0.781868
vt 0.331232 0.779678
vt 0.325829 0.784726
vt 0.328304 0.787919
vt 0.335708 0.786257
vt 0.330764 0.792021
vt 0.320541 0.793256
vt 0.317899 0.789747
vt 0.323182 0.797014
vt 0.312618 0.803313
vt 0.310587 0.799042
vt 0.307850 0.795166
vt 0.297402 0.799331
vt 0.300856 0.803452
vt 0.296447 0.795336
vt 0.303256 0.807477
vt 0.315139 0.807385
vt 0.325574 0.801266
vt 0.290675 0.800370
vt 0.289460 0.796745
vt 0.293355 0.803791
vt 0.300887 0.810107
vt 0.293448 0.809061
vt 0.188325 0.242930
vt 0.183532 0.243884
vt 0.182924 0.235620
vt 0.186878 0.234968
vt 0.178881 0.244096
vt 0.176586 0.231300
vt 0.169325 0.234515
vt 0.173583 0.245527
vt 0.181117 0.255143
vt 0.175763 0.256174
vt 0.183557 0.254663
vt 0.335193 0.806812
vt 0.335144 0.809118
vt 0.332147 0.807423
vt 0.329347 0.802990
vt 0.177385 0.264562
vt 0.182631 0.262219
vt 0.185151 0.260455
vt 0.184296 0.256109
vt 0.187800 0.255844
vt 0.187900 0.260024
vt 0.338124 0.808568
vt 0.337147 0.809698
vt 0.340775 0.811616
vt 0.338539 0.806655
vt 0.190091 0.258676
vt 0.190918 0.261210
vt 0.188699 0.262565
vt 0.186797 0.263995
vt 0.190768 0.263668
vt 0.189355 0.266305
vt 0.184074 0.266499
vt 0.186171 0.268501
vt 0.192800 0.268210
vt 0.190669 0.271117
vt 0.193478 0.264611
vt 0.195915 0.269925
vt 0.194877 0.272569
vt 0.335229 0.803295
vt 0.337898 0.802137
vt 0.339019 0.805325
vt 0.336675 0.805526
vt 0.332968 0.797146
vt 0.196467 0.260108
vt 0.193304 0.261266
vt 0.193027 0.258352
vt 0.337878 0.792967
vt 0.188575 0.252636
vt 0.342470 0.782589
vt 0.184605 0.271862
vt 0.188484 0.274143
vt 0.345149 0.776236
vt 0.350884 0.775230
vt 0.345681 0.783216
vt 0.345869 0.771680
vt 0.349829 0.771639
vt 0.354070 0.768928
vt 0.352103 0.766949
vt 0.172906 0.280476
vt 0.176916 0.274613
vt 0.179842 0.277303
vt 0.176724 0.282184
vt 0.181560 0.270028
vt 0.168291 0.277637
vt 0.172787 0.272054
vt 0.164382 0.270275
vt 0.161910 0.275547
vt 0.166518 0.263933
vt 0.166557 0.256611
vt 0.156666 0.262287
vt 0.154165 0.256433
vt 0.153068 0.266239
vt 0.153936 0.248263
vt 0.165016 0.247018
vt 0.162241 0.236847
vt 0.153744 0.238718
vt 0.146204 0.249100
vt 0.146982 0.238747
vt 0.147269 0.258192
vt 0.141714 0.260759
vt 0.140623 0.249798
vt 0.142350 0.238682
vt 0.135884 0.251320
vt 0.137230 0.239539
vt 0.137257 0.264171
vt 0.150942 0.271140
vt 0.148510 0.276487
vt 0.131345 0.253531
vt 0.133457 0.268185
vt 0.146526 0.281161
vt 0.159562 0.279942
vt 0.157667 0.283834
vt 0.165474 0.282981
vt 0.163504 0.287606
vt 0.170160 0.286221
vt 0.171511 0.291240
vt 0.172608 0.286193
vt 0.174606 0.289034
vt 0.166841 0.294942
vt 0.159917 0.291858
vt 0.350241 0.752074
vt 0.353630 0.745809
vt 0.356848 0.753034
vt 0.350712 0.755854
vt 0.350214 0.760841
vt 0.354827 0.760143
vt 0.348024 0.765986
vt 0.356297 0.763078
vt 0.345063 0.760293
vt 0.338362 0.758630
vt 0.345534 0.756568
vt 0.340391 0.755376
vt 0.345259 0.753436
vt 0.341541 0.753791
vt 0.344101 0.751377
vt 0.348245 0.749068
vt 0.341883 0.752578
vt 0.339878 0.750970
vt 0.342465 0.749602
vt 0.343804 0.746527
vt 0.338987 0.746580
vt 0.338635 0.751798
vt 0.335916 0.748235
vt 0.332059 0.743011
vt 0.336203 0.740612
vt 0.341765 0.740358
vt 0.326070 0.737695
vt 0.330310 0.735226
vt 0.334466 0.732689
vt 0.318179 0.729098
vt 0.318850 0.725960
vt 0.315702 0.732749
vt 0.314388 0.736256
vt 0.322425 0.740705
vt 0.328339 0.745710
vt 0.298932 0.729677
vt 0.298087 0.725270
vt 0.299417 0.733994
vt 0.301393 0.737983
vt 0.313237 0.739383
vt 0.318619 0.743815
vt 0.291750 0.743366
vt 0.288129 0.739662
vt 0.284313 0.735402
vt 0.308731 0.743870
vt 0.302585 0.742212
vt 0.294941 0.746221
vt 0.285411 0.752012
vt 0.288149 0.754421
vt 0.299151 0.750032
vt 0.292057 0.757614
vt 0.312924 0.747965
vt 0.304187 0.754449
vt 0.297117 0.761747
vt 0.319100 0.753748
vt 0.311227 0.759950
vt 0.304486 0.766830
vt 0.324295 0.749229
vt 0.329791 0.753716
vt 0.325768 0.758526
vt 0.333015 0.750661
vt 0.336997 0.753919
vt 0.334438 0.756842
vt 0.319182 0.765226
vt 0.312417 0.771941
vt 0.307389 0.777884
vt 0.300174 0.773259
vt 0.292197 0.769803
vt 0.286472 0.767301
vt 0.282389 0.764961
vt 0.281389 0.732309
vt 0.278247 0.729725
vt 0.296421 0.720523
vt 0.117968 0.276253
vt 0.115262 0.254311
vt 0.119628 0.254840
vt 0.122859 0.276043
vt 0.124353 0.254735
vt 0.127654 0.272971
vt 0.127009 0.254282
vt 0.130311 0.270501
vt 0.129022 0.246141
vt 0.141248 0.290495
vt 0.142974 0.286902
vt 0.144855 0.283321
vt 0.155208 0.288081
vt 0.151745 0.291248
vt 0.154808 0.296435
vt 0.322320 0.723634
vt 0.338740 0.730537
vt 0.297585 0.715995
vt 0.163901 0.298839
vt 0.347651 0.741280
vt 0.132711 0.241215
vt 0.132292 0.244588
vt 0.135055 0.236194
vt 0.142069 0.226781
vt 0.145314 0.227391
vt 0.144552 0.218167
vt 0.147339 0.219228
vt 0.145672 0.213562
vt 0.148451 0.214367
vt 0.146727 0.211253
vt 0.148966 0.227875
vt 0.282393 0.796441
vt 0.276250 0.792962
vt 0.282437 0.792950
vt 0.288809 0.793356
vt 0.276477 0.790329
vt 0.282329 0.790224
vt 0.272363 0.789291
vt 0.255363 0.795199
vt 0.256264 0.799112
vt 0.258097 0.798093
vt 0.254532 0.801310
vt 0.247007 0.792206
vt 0.249357 0.795803
vt 0.250649 0.800639
vt 0.158451 0.196438
vt 0.158160 0.199155
vt 0.156210 0.196454
vt 0.156323 0.194118
vt 0.259881 0.800938
vt 0.259883 0.803103
vt 0.161222 0.202541
vt 0.162526 0.199868
vt 0.263141 0.802940
vt 0.261913 0.805074
vt 0.259442 0.805027
vt 0.264847 0.807278
vt 0.159812 0.205886
vt 0.162742 0.209856
vt 0.155922 0.199751
vt 0.154691 0.197185
vt 0.152842 0.198456
vt 0.151167 0.199169
vt 0.244917 0.790911
vt 0.152526 0.197019
vt 0.154418 0.196042
vt 0.153022 0.193745
vt 0.259096 0.796884
s 1
usemtl abyss_chancel_background_pbr
f 2/1/1 7/2/2 5/3/3 1/4/4
f 1/4/4 3/5/5 339/6/6 2/1/1
f 1/4/4 4/7/7 55/8/8 3/5/5
f 4/7/7 1/4/4 5/3/3 6/9/9
f 6/9/9 5/3/3 8/10/10 11/11/11
f 5/3/3 7/2/2 9/12/12 8/10/10
f 10/13/13 8/14/10 9/15/12 355/16/14
f 15/17/15 12/18/16 8/14/10 10/13/13
f 8/14/10 12/18/16 13/19/17 11/20/11
f 14/21/18 317/22/19 13/19/17 12/18/16
f 12/18/16 15/17/15 17/23/20 14/21/18
f 17/23/20 15/17/15 16/24/21 18/25/22
f 15/17/15 10/13/13 352/26/23 16/24/21
f 22/27/24 19/28/25 17/23/20 18/25/22
f 20/29/26 14/21/18 17/23/20 19/28/25
f 21/30/27 318/31/28 20/29/26 19/28/25
f 19/28/25 22/27/24 24/32/29 21/30/27
f 351/33/30 23/34/31 22/27/24 18/25/22
f 22/27/24 23/34/31 26/35/32 24/32/29
f 21/30/27 24/32/29 25/36/33 320/37/34
f 26/35/32 27/38/35 25/36/33 24/32/29
f 30/39/36 27/38/35 26/35/32 28/40/37
f 29/41/38 28/40/37 26/35/32 23/34/31
f 28/42/37 29/43/38 34/44/39 31/45/40
f 32/46/41 30/47/36 28/42/37 31/45/40
f 32/46/41 31/45/40 33/48/42 324/49/43
f 34/44/39 36/50/44 33/48/42 31/45/40
f 348/51/45 35/52/46 34/44/39 29/43/38
f 38/53/47 36/50/44 34/44/39 35/52/46
f 37/54/48 36/50/44 38/53/47 40/55/49
f 37/54/48 326/56/50 33/48/42 36/50/44
f 38/53/47 35/52/46 349/57/51 39/58/52
f 40/55/49 38/53/47 39/58/52 42/59/53
f 41/60/54 40/55/49 42/59/53 44/61/55
f 40/55/49 41/60/54 335/62/56 37/54/48
f 45/63/57 44/61/55 42/59/53 43/64/58
f 43/64/58 42/59/53 39/58/52 360/65/59
f 49/66/60 41/60/54 44/61/55 46/67/61
f 47/68/62 46/67/61 44/61/55 45/63/57
f 338/69/63 48/70/64 46/67/61 47/68/62
f 51/71/65 49/66/60 46/67/61 48/70/64
f 41/60/54 49/66/60 50/72/66 335/62/56
f 51/71/65 52/73/67 50/72/66 49/66/60
f 51/71/65 53/74/68 56/75/69 52/73/67
f 53/74/68 51/71/65 48/70/64 54/76/70
f 54/76/70 3/5/5 55/8/8 53/74/68
f 55/8/8 4/7/7 56/75/69 53/74/68
f 83/77/71 52/73/67 56/75/69 57/78/72
f 56/75/69 58/79/73 59/80/74 57/78/72
f 6/9/9 58/79/73 56/75/69 4/7/7
f 60/81/75 68/82/76 59/83/74 58/84/73
f 58/84/73 6/85/9 11/20/11 61/86/77
f 58/84/73 61/86/77 63/87/78 60/81/75
f 61/86/77 62/88/79 64/89/80 63/87/78
f 61/86/77 11/20/11 13/19/17 62/88/79
f 65/90/81 63/87/78 64/89/80 66/91/82
f 68/82/76 60/81/75 63/87/78 65/90/81
f 308/92/83 67/93/84 65/90/81 66/91/82
f 69/94/85 68/82/76 65/90/81 67/93/84
f 69/94/85 70/95/86 59/83/74 68/82/76
f 69/94/85 71/96/87 74/97/88 70/95/86
f 71/96/87 69/94/85 67/93/84 73/98/89
f 71/96/87 72/99/90 75/100/91 74/97/88
f 71/96/87 73/98/89 292/101/92 72/99/90
f 70/102/86 74/103/88 76/104/93 78/105/94
f 76/104/93 74/103/88 75/106/91 77/107/95
f 80/108/96 79/109/97 76/104/93 77/107/95
f 82/110/98 78/105/94 76/104/93 79/109/97
f 79/109/97 80/108/96 282/111/99 81/112/100
f 81/112/100 84/113/101 82/110/98 79/109/97
f 57/78/72 78/105/94 82/110/98 83/77/71
f 86/114/102 83/77/71 82/110/98 84/113/101
f 87/115/103 86/114/102 84/113/101 85/116/104
f 84/113/101 81/112/100 280/117/105 85/116/104
f 87/115/103 88/118/106 50/72/66 86/114/102
f 83/77/71 86/114/102 50/72/66 52/73/67
f 88/118/106 87/115/103 89/119/107 90/120/108
f 87/115/103 85/116/104 91/121/109 89/119/107
f 90/120/108 89/119/107 92/122/110 94/123/111
f 92/122/110 89/119/107 91/121/109 93/124/112
f 96/125/113 95/126/114 92/122/110 93/124/112
f 97/127/115 94/123/111 92/122/110 95/126/114
f 99/128/116 98/129/117 95/126/114 96/125/113
f 98/129/117 101/130/118 97/127/115 95/126/114
f 98/129/117 99/128/116 281/131/119 100/132/120
f 100/132/120 103/133/121 101/130/118 98/129/117
f 103/133/121 104/134/122 102/135/123 101/130/118
f 102/135/123 332/136/124 97/127/115 101/130/118
f 103/133/121 105/137/125 107/138/126 104/134/122
f 100/132/120 106/139/127 105/137/125 103/133/121
f 106/139/127 110/140/128 108/141/129 105/137/125
f 108/141/129 109/142/130 107/138/126 105/137/125
f 115/143/131 109/142/130 108/141/129 111/144/132
f 113/145/133 111/144/132 108/141/129 110/140/128
f 218/146/134 114/147/135 111/144/132 112/148/136
f 270/149/137 112/148/136 111/144/132 113/145/133
f 116/150/138 115/143/131 111/144/132 114/147/135
f 171/151/139 117/152/140 115/143/131 116/150/138
f 120/153/141 118/154/142 115/143/131 117/152/140
f 109/142/130 115/143/131 118/154/142 119/155/143
f 122/156/144 119/155/143 118/154/142 120/153/141
f 117/152/140 171/151/139 121/157/145 120/153/141
f 122/156/144 120/153/141 121/157/145 123/158/146
f 119/155/143 122/156/144 124/159/147 126/160/148
f 124/159/147 122/156/144 123/158/146 125/161/149
f 130/162/150 127/163/151 124/159/147 125/161/149
f 129/164/152 126/160/148 124/159/147 127/163/151
f 128/165/153 127/163/151 130/162/150 132/166/154
f 129/164/152 127/163/151 128/165/153 331/167/155
f 134/168/156 132/166/154 130/162/150 131/169/157
f 168/170/158 131/169/157 130/162/150 125/161/149
f 133/171/159 323/172/160 128/165/153 132/166/154
f 132/166/154 134/168/156 135/173/161 133/171/159
f 136/174/162 138/175/163 135/173/161 134/168/156
f 131/176/157 137/177/164 136/178/162 134/179/156
f 137/177/164 140/180/165 138/181/163 136/178/162
f 30/47/36 32/46/41 135/173/161 138/175/163
f 27/38/35 30/39/36 138/181/163 139/182/166
f 141/183/167 139/182/166 138/181/163 140/180/165
f 141/183/167 140/180/165 142/184/168 144/185/169
f 137/177/164 143/186/170 142/184/168 140/180/165
f 148/187/171 146/188/172 142/189/168 143/190/170
f 183/191/173 144/185/169 142/184/168 145/192/174
f 147/193/175 145/192/174 142/184/168 146/194/172
f 146/194/172 149/195/176 152/196/177 147/193/175
f 148/187/171 150/197/178 149/198/176 146/188/172
f 151/199/179 149/198/176 150/197/178 166/200/180
f 152/196/177 149/195/176 151/201/179 153/202/181
f 147/193/175 152/196/177 154/203/182 156/204/183
f 153/202/181 155/205/184 154/203/182 152/196/177
f 158/206/185 156/204/183 154/203/182 155/205/184
f 145/192/174 147/193/175 156/204/183 157/207/186
f 159/208/187 157/207/186 156/204/183 158/206/185
f 158/206/185 160/209/188 161/210/189 159/208/187
f 158/206/185 155/205/184 162/211/190 160/209/188
f 163/212/191 164/213/192 161/210/189 160/209/188
f 163/214/191 160/215/188 162/216/190 165/217/193
f 165/217/193 148/187/171 143/190/170 163/214/191
f 164/218/192 163/214/191 143/190/170 168/170/158
f 165/219/193 162/211/190 167/220/194 166/221/180
f 165/217/193 166/200/180 150/197/178 148/187/171
f 167/220/194 153/202/181 151/201/179 166/221/180
f 155/205/184 153/202/181 167/220/194 162/211/190
f 168/170/158 125/161/149 123/158/146 164/218/192
f 123/158/146 121/157/145 161/222/189 164/218/192
f 131/176/157 168/223/158 143/186/170 137/177/164
f 171/151/139 169/224/195 161/222/189 121/157/145
f 170/225/196 159/208/187 161/210/189 169/226/195
f 169/224/195 172/227/197 174/228/198 170/229/196
f 116/150/138 172/227/197 169/224/195 171/151/139
f 114/147/135 173/230/199 172/227/197 116/150/138
f 172/227/197 173/230/199 175/231/200 174/228/198
f 176/232/201 174/228/198 175/231/200 216/233/202
f 178/234/203 177/235/204 174/236/198 176/237/201
f 179/238/205 170/225/196 174/236/198 177/235/204
f 177/235/204 178/234/203 181/239/206 180/240/207
f 177/235/204 180/240/207 183/191/173 179/238/205
f 182/241/208 180/240/207 181/239/206 207/242/209
f 184/243/210 183/191/173 180/240/207 182/241/208
f 186/244/211 144/185/169 183/191/173 184/243/210
f 157/207/186 179/238/205 183/191/173 145/192/174
f 186/244/211 184/243/210 185/245/212 187/246/213
f 182/241/208 322/247/214 185/245/212 184/243/210
f 186/244/211 187/246/213 190/248/215 188/249/216
f 144/185/169 186/244/211 188/249/216 141/183/167
f 139/182/166 141/183/167 188/249/216 189/250/217
f 189/250/217 188/249/216 190/248/215 191/251/218
f 190/248/215 192/252/219 194/253/220 191/251/218
f 187/246/213 193/254/221 192/252/219 190/248/215
f 198/255/222 195/256/223 192/252/219 193/254/221
f 195/256/223 196/257/224 194/253/220 192/252/219
f 195/256/223 197/258/225 309/259/226 196/257/224
f 197/258/225 195/256/223 198/255/222 200/260/227
f 322/247/214 199/261/228 198/255/222 193/254/221
f 202/262/229 200/260/227 198/255/222 199/261/228
f 321/263/230 197/258/225 200/260/227 201/264/231
f 203/265/232 201/264/231 200/260/227 202/262/229
f 202/262/229 199/261/228 207/242/209 204/266/233
f 204/266/233 205/267/234 203/265/232 202/262/229
f 206/268/235 208/269/236 205/267/234 204/266/233
f 207/242/209 181/239/206 206/268/235 204/266/233
f 322/247/214 182/241/208 207/242/209 199/261/228
f 209/270/237 211/271/238 208/269/236 206/268/235
f 178/234/203 209/270/237 206/268/235 181/239/206
f 210/272/239 209/270/237 178/234/203 176/237/201
f 211/271/238 209/270/237 210/272/239 214/273/240
f 212/274/241 301/275/242 208/269/236 211/271/238
f 224/276/243 212/277/241 211/278/238 213/279/244
f 215/280/245 213/279/244 211/278/238 214/281/240
f 215/280/245 214/281/240 216/233/202 217/282/246
f 214/281/240 210/283/239 176/232/201 216/233/202
f 217/282/246 216/233/202 175/231/200 173/230/199
f 114/147/135 218/146/134 217/282/246 173/230/199
f 217/282/246 218/146/134 219/284/247 215/280/245
f 218/146/134 112/148/136 220/285/248 219/284/247
f 213/279/244 215/280/245 219/284/247 221/286/249
f 221/286/249 219/284/247 220/285/248 222/287/250
f 224/276/243 213/279/244 221/286/249 223/288/251
f 225/289/252 223/288/251 221/286/249 222/287/250
f 223/288/251 226/290/253 228/291/254 224/276/243
f 226/290/253 223/288/251 225/289/252 227/292/255
f 227/292/255 231/293/256 229/294/257 226/290/253
f 226/290/253 229/294/257 230/295/258 228/291/254
f 229/294/257 231/293/256 233/296/259 230/295/258
f 231/293/256 227/292/255 225/289/252 232/297/260
f 233/296/259 231/293/256 232/297/260 234/298/261
f 236/299/262 235/300/263 233/296/259 234/298/261
f 237/301/264 230/295/258 233/296/259 235/300/263
f 235/300/263 236/299/262 241/302/265 238/303/266
f 235/300/263 238/303/266 239/304/267 237/301/264
f 240/305/268 300/306/269 239/304/267 238/303/266
f 240/305/268 238/303/266 241/302/265 243/307/270
f 245/308/271 243/307/270 241/302/265 242/309/272
f 241/302/265 236/299/262 266/310/273 242/309/272
f 243/307/270 244/311/274 285/312/275 240/305/268
f 244/311/274 243/307/270 245/308/271 247/313/276
f 249/314/277 247/313/276 245/308/271 246/315/278
f 245/308/271 242/309/272 263/316/279 246/315/278
f 247/313/276 249/314/277 251/317/280 248/318/281
f 247/313/276 248/318/281 283/319/282 244/311/274
f 246/315/278 256/320/283 250/321/284 249/314/277
f 249/314/277 250/321/284 253/322/285 251/317/280
f 251/317/280 252/323/286 282/111/99 248/318/281
f 252/323/286 251/317/280 253/322/285 254/324/287
f 250/321/284 256/320/283 255/325/288 253/322/285
f 254/324/287 253/322/285 255/325/288 257/326/289
f 256/320/283 261/327/290 258/328/291 255/325/288
f 255/325/288 258/328/291 260/329/292 257/326/289
f 262/330/293 259/331/294 258/328/291 261/327/290
f 259/331/294 275/332/295 260/329/292 258/328/291
f 246/315/278 263/316/279 261/327/290 256/320/283
f 264/333/296 262/330/293 261/327/290 263/316/279
f 266/310/273 264/333/296 263/316/279 242/309/272
f 264/333/296 265/334/297 271/335/298 262/330/293
f 265/334/297 264/333/296 266/310/273 267/336/299
f 234/298/261 267/336/299 266/310/273 236/299/262
f 267/336/299 268/337/300 269/338/301 265/334/297
f 267/336/299 234/298/261 232/297/260 268/337/300
f 268/337/300 232/297/260 225/289/252 222/287/250
f 222/287/250 220/285/248 269/338/301 268/337/300
f 112/148/136 270/149/137 269/338/301 220/285/248
f 269/338/301 270/149/137 271/335/298 265/334/297
f 270/149/137 113/145/133 272/339/302 271/335/298
f 262/330/293 271/335/298 272/339/302 259/331/294
f 275/332/295 259/331/294 272/339/302 273/340/303
f 272/339/302 113/145/133 110/140/128 273/340/303
f 274/341/304 276/342/305 275/332/295 273/340/303
f 274/341/304 273/340/303 110/140/128 106/139/127
f 275/332/295 276/342/305 277/343/306 260/329/292
f 276/342/305 99/128/116 96/125/113 277/343/306
f 276/342/305 274/341/304 281/131/119 99/128/116
f 257/326/289 260/329/292 277/343/306 278/344/307
f 278/344/307 277/343/306 96/125/113 93/124/112
f 278/344/307 93/124/112 91/121/109 279/345/308
f 279/345/308 254/324/287 257/326/289 278/344/307
f 91/121/109 85/116/104 280/117/105 279/345/308
f 254/324/287 279/345/308 280/117/105 252/323/286
f 280/117/105 81/112/100 282/111/99 252/323/286
f 106/139/127 100/132/120 281/131/119 274/341/304
f 282/111/99 80/108/96 283/319/282 248/318/281
f 77/107/95 284/346/309 283/319/282 80/108/96
f 283/319/282 284/346/309 285/312/275 244/311/274
f 286/347/310 287/348/311 285/312/275 284/346/309
f 284/346/309 77/107/95 75/106/91 286/347/310
f 287/349/311 286/350/310 288/351/312 289/352/313
f 75/100/91 72/99/90 288/351/312 286/350/310
f 288/351/312 290/353/314 293/354/315 289/352/313
f 292/101/92 290/353/314 288/351/312 72/99/90
f 290/353/314 291/355/316 294/356/317 293/354/315
f 290/353/314 292/101/92 304/357/318 291/355/316
f 298/358/319 289/352/313 293/354/315 295/359/320
f 295/359/320 293/354/315 294/356/317 296/360/321
f 296/360/321 303/361/322 297/362/323 295/359/320
f 298/358/319 295/359/320 297/362/323 299/363/324
f 298/364/319 299/365/324 239/304/267 300/306/269
f 289/366/313 298/364/319 300/306/269 287/348/311
f 285/312/275 287/348/311 300/306/269 240/305/268
f 301/275/242 299/363/324 297/362/323 303/361/322
f 301/275/242 212/274/241 302/367/325 299/363/324
f 239/304/267 299/365/324 302/368/325 237/301/264
f 212/277/241 224/276/243 228/291/254 302/368/325
f 302/368/325 228/291/254 230/295/258 237/301/264
f 301/275/242 303/361/322 205/267/234 208/269/236
f 303/361/322 296/360/321 203/265/232 205/267/234
f 296/360/321 294/356/317 201/264/231 203/265/232
f 291/355/316 321/263/230 201/264/231 294/356/317
f 305/369/326 306/370/327 304/357/318 292/101/92
f 307/371/328 305/369/326 292/101/92 73/98/89
f 305/369/326 307/371/328 309/259/226 306/370/327
f 307/371/328 73/98/89 67/93/84 308/92/83
f 308/92/83 310/372/329 309/259/226 307/371/328
f 311/373/330 196/257/224 309/259/226 310/372/329
f 321/263/230 306/370/327 309/259/226 197/258/225
f 310/372/329 308/92/83 66/91/82 312/374/331
f 311/373/330 310/372/329 312/374/331 313/375/332
f 312/374/331 314/376/333 315/377/334 313/375/332
f 66/91/82 64/89/80 314/376/333 312/374/331
f 316/378/335 317/22/19 315/377/334 314/376/333
f 62/88/79 316/378/335 314/376/333 64/89/80
f 316/378/335 62/88/79 13/19/17 317/22/19
f 317/22/19 14/21/18 20/29/26 315/377/334
f 313/375/332 315/377/334 20/29/26 318/31/28
f 319/379/336 311/373/330 313/375/332 318/31/28
f 21/30/27 320/37/34 319/379/336 318/31/28
f 196/257/224 311/373/330 319/379/336 194/253/220
f 191/251/218 194/253/220 319/379/336 320/37/34
f 320/37/34 25/36/33 189/250/217 191/251/218
f 321/263/230 291/355/316 304/357/318 306/370/327
f 193/254/221 187/246/213 185/245/212 322/247/214
f 27/38/35 139/182/166 189/250/217 25/36/33
f 179/238/205 157/207/186 159/208/187 170/225/196
f 324/49/43 133/171/159 135/173/161 32/46/41
f 133/171/159 324/49/43 325/380/337 323/172/160
f 33/48/42 326/56/50 325/380/337 324/49/43
f 326/56/50 328/381/338 327/382/339 325/380/337
f 323/172/160 325/380/337 327/382/339 330/383/340
f 328/381/338 333/384/341 329/385/342 327/382/339
f 330/383/340 327/382/339 329/385/342 332/136/124
f 330/383/340 331/167/155 128/165/153 323/172/160
f 330/383/340 332/136/124 102/135/123 331/167/155
f 329/385/342 94/123/111 97/127/115 332/136/124
f 129/164/152 331/167/155 102/135/123 104/134/122
f 90/120/108 94/123/111 329/385/342 333/384/341
f 90/120/108 333/384/341 334/386/343 88/118/106
f 333/384/341 328/381/338 335/62/56 334/386/343
f 334/386/343 335/62/56 50/72/66 88/118/106
f 326/56/50 37/54/48 335/62/56 328/381/338
f 104/134/122 107/138/126 126/160/148 129/164/152
f 109/142/130 119/155/143 126/160/148 107/138/126
f 78/105/94 57/78/72 59/80/74 70/102/86
f 336/387/344 54/76/70 48/70/64 338/69/63
f 54/76/70 336/387/344 339/6/6 3/5/5
f 337/388/345 336/387/344 338/69/63 361/389/346
f 337/388/345 341/390/347 339/6/6 336/387/344
f 357/391/348 2/1/1 339/6/6 340/392/349
f 342/393/350 340/392/349 339/6/6 341/390/347
f 341/394/347 343/395/351 359/396/352 342/397/350
f 345/398/353 344/399/354 341/390/347 337/388/345
f 346/400/355 343/395/351 341/394/347 344/401/354
f 344/399/354 345/398/353 349/57/51 347/402/356
f 344/399/354 347/402/356 350/403/357 346/404/355
f 350/403/357 347/402/356 348/51/45 351/405/30
f 349/57/51 35/52/46 348/51/45 347/402/356
f 18/25/22 16/24/21 350/406/357 351/33/30
f 352/26/23 346/400/355 350/406/357 16/24/21
f 23/34/31 351/33/30 348/407/45 29/41/38
f 360/65/59 39/58/52 349/57/51 345/398/353
f 343/395/351 346/400/355 352/26/23 353/408/358
f 355/16/14 353/408/358 352/26/23 10/13/13
f 353/408/358 354/409/359 359/396/352 343/395/351
f 355/16/14 356/410/360 354/409/359 353/408/358
f 356/410/360 355/16/14 9/15/12 7/411/2
f 2/1/1 357/391/348 356/412/360 7/2/2
f 357/413/348 358/414/361 354/409/359 356/410/360
f 358/414/361 357/413/348 340/415/349 342/397/350
f 358/414/361 342/397/350 359/396/352 354/409/359
f 345/398/353 337/388/345 361/389/346 360/65/59
f 43/64/58 360/65/59 361/389/346 362/416/362
f 362/416/362 361/389/346 338/69/63 47/68/62
f 45/63/57 43/64/58 362/416/362 47/68/62
