# Blender 5.2.0 LTS
# www.blender.org
mtllib terrain-abyss-chancel-object-088.mtl
o terrain-abyss-chancel-object-088
v 0.028372 0.059939 -0.008579
v 0.021901 0.060734 -0.008594
v 0.032915 0.055805 -0.008475
v 0.034765 0.059443 -0.007992
v 0.027856 0.067223 -0.008872
v 0.020713 0.068187 -0.008852
v 0.035719 0.067259 -0.005201
v 0.026890 0.076466 -0.008722
v 0.037479 0.070146 -0.006426
v 0.025467 0.088108 -0.008827
v 0.019298 0.078237 -0.008944
v 0.016420 0.089635 -0.008980
v 0.012280 0.078680 -0.008791
v 0.013470 0.069258 -0.008421
v 0.008152 0.089627 -0.009065
v 0.005402 0.078731 -0.008381
v 0.000463 0.090602 -0.009099
v 0.008367 0.072078 -0.008093
v -0.000073 0.080062 -0.007283
v -0.002679 0.084065 -0.006090
v 0.006469 0.071465 -0.005316
v -0.007420 0.088947 -0.009089
v -0.010802 0.084171 -0.009469
v -0.016775 0.090159 -0.010057
v -0.009750 0.102917 -0.009649
v -0.016513 0.100384 -0.010416
v -0.003042 0.106829 -0.009272
v -0.010556 0.111426 -0.006598
v -0.008291 0.107206 -0.005436
v -0.013281 0.113995 -0.007398
v -0.006005 0.112722 -0.005935
v -0.001491 0.119451 -0.005682
v -0.002683 0.110161 -0.004644
v 0.002506 0.116486 -0.004363
v 0.003024 0.106012 -0.004101
v 0.008241 0.113217 -0.003851
v -0.003936 0.101314 -0.004612
v 0.010236 0.101769 -0.003827
v 0.020702 0.096704 -0.003682
v 0.015618 0.110248 -0.003811
v 0.001659 0.095947 -0.004298
v 0.008673 0.089669 -0.004016
v -0.007224 0.092519 -0.004839
v -0.015490 0.090827 -0.005803
v -0.011107 0.099080 -0.005297
v -0.013353 0.106971 -0.005974
v -0.018713 0.098276 -0.006398
v -0.019323 0.108665 -0.006179
v -0.011785 0.082785 -0.006838
v -0.013747 0.079690 -0.009718
v -0.011666 0.075586 -0.006455
v -0.017677 0.081961 -0.008001
v -0.016618 0.076828 -0.007368
v -0.015539 0.070047 -0.006888
v -0.011306 0.068479 -0.006705
v -0.014679 0.065385 -0.006498
v -0.012935 0.072758 -0.009434
v -0.012853 0.066025 -0.009228
v -0.011875 0.063243 -0.008821
v -0.011225 0.064100 -0.006597
v 0.015894 0.080759 -0.003806
v 0.023982 0.085649 -0.003607
v 0.008970 0.075564 -0.004455
v 0.019825 0.071261 -0.004012
v 0.022604 0.063405 -0.004489
v 0.013676 0.068937 -0.004539
v 0.026688 0.075060 -0.003793
v 0.033271 0.077403 -0.003454
v 0.030873 0.066271 -0.004200
v 0.037471 0.059221 -0.006327
v 0.026512 0.054499 -0.005134
v 0.039847 0.059855 -0.005811
v 0.050441 0.068432 -0.006996
v 0.037282 0.052556 -0.008166
v 0.036770 0.040007 -0.008721
v 0.046538 0.052837 -0.008405
v 0.055091 0.052490 -0.009134
v 0.044026 0.039773 -0.008970
v 0.041922 0.024828 -0.009018
v 0.050907 0.038210 -0.009165
v 0.053380 0.037362 -0.006109
v 0.047006 0.023816 -0.008731
v 0.043710 0.009760 -0.008278
v 0.047881 0.023924 -0.005733
v 0.044032 0.010562 -0.005423
v 0.043642 0.025175 -0.004719
v 0.039098 0.025955 -0.004481
v 0.047915 0.039929 -0.004529
v 0.041833 0.011048 -0.004645
v 0.041145 0.004819 -0.004957
v 0.038525 0.011225 -0.004720
v 0.036048 0.010920 -0.005769
v 0.038967 0.001814 -0.004810
v 0.041071 -0.000000 -0.005768
v 0.038185 0.000778 -0.006077
v 0.039998 0.010951 -0.008808
v 0.037255 0.014496 -0.008227
v 0.036547 0.025622 -0.008845
v 0.033884 0.025701 -0.005795
v 0.031931 0.040355 -0.005603
v 0.041407 0.043256 -0.004201
v 0.048773 0.067894 -0.004881
v 0.044844 0.081332 -0.006481
v 0.055159 0.058133 -0.004632
v 0.059034 0.069633 -0.004617
v 0.060470 0.052776 -0.006126
v 0.064714 0.068088 -0.006305
v 0.059316 0.067704 -0.009053
v 0.068019 0.079569 -0.006919
v 0.061989 0.081024 -0.008880
v 0.071883 0.089542 -0.007349
v 0.061484 0.080393 -0.004470
v 0.055092 0.081225 -0.007128
v 0.063996 0.088679 -0.004493
v 0.071338 0.096946 -0.006371
v 0.055365 0.089215 -0.005058
v 0.064636 0.091983 -0.008040
v 0.054262 0.097791 -0.004801
v 0.054423 0.105799 -0.004399
v 0.063074 0.101532 -0.007547
v 0.043044 0.097873 -0.003175
v 0.055773 0.111669 -0.009231
v 0.044926 0.094911 -0.007584
v 0.040669 0.089763 -0.003004
v 0.047558 0.109994 -0.008735
v 0.036070 0.096655 -0.007178
v 0.035547 0.084918 -0.007641
v 0.037950 0.110093 -0.008131
v 0.025236 0.099524 -0.008472
v 0.026920 0.111482 -0.007719
v 0.014886 0.101455 -0.009118
v 0.016121 0.113297 -0.008844
v 0.005592 0.103442 -0.009111
v 0.007427 0.114880 -0.008877
v -0.000218 0.117484 -0.008529
v 0.010141 0.126927 -0.008829
v 0.001874 0.128962 -0.008536
v 0.018202 0.126031 -0.008401
v 0.007880 0.143441 -0.008707
v 0.002995 0.159501 -0.009036
v 0.017209 0.141089 -0.008464
v -0.002112 0.147505 -0.008658
v -0.001509 0.139865 -0.006538
v -0.012176 0.155783 -0.009099
v -0.004992 0.162296 -0.009349
v -0.011779 0.164413 -0.009673
v -0.007051 0.176892 -0.009556
v -0.012708 0.176900 -0.009716
v -0.001114 0.177551 -0.009331
v -0.009883 0.197664 -0.009502
v -0.012596 0.220074 -0.009144
v -0.015086 0.196685 -0.010192
v -0.003941 0.199519 -0.008898
v -0.006844 0.221217 -0.008663
v 0.006795 0.201734 -0.010756
v 0.009874 0.178938 -0.009578
v 0.023140 0.203285 -0.010630
v 0.003416 0.222705 -0.011772
v 0.002725 0.240706 -0.010856
v 0.023385 0.220989 -0.010739
v 0.024646 0.234136 -0.011391
v 0.045005 0.217874 -0.011192
v 0.045240 0.231600 -0.011658
v 0.060230 0.216201 -0.009345
v 0.042158 0.201231 -0.010616
v 0.039174 0.179511 -0.010160
v 0.055912 0.198441 -0.009739
v 0.050673 0.177039 -0.010018
v 0.065666 0.195584 -0.008338
v 0.075414 0.201737 -0.008089
v 0.064548 0.187327 -0.005385
v 0.071101 0.215227 -0.008493
v 0.059691 0.174483 -0.009580
v 0.063517 0.170234 -0.005826
v 0.058223 0.157063 -0.009535
v 0.057953 0.142275 -0.009264
v 0.063715 0.154164 -0.006006
v 0.049592 0.158320 -0.009819
v 0.050173 0.142342 -0.009569
v 0.039259 0.159523 -0.009664
v 0.040172 0.142087 -0.009254
v 0.025520 0.159745 -0.009367
v 0.028118 0.141529 -0.008530
v 0.023419 0.180294 -0.010171
v 0.012902 0.159461 -0.008972
v 0.028556 0.125211 -0.007937
v 0.039910 0.125010 -0.008904
v 0.049690 0.126036 -0.009376
v 0.057619 0.128153 -0.009192
v 0.065652 0.129589 -0.007697
v 0.063870 0.114923 -0.008190
v 0.065919 0.138012 -0.006991
v 0.063551 0.117990 -0.004547
v 0.056609 0.133813 -0.004442
v 0.056183 0.151424 -0.004813
v 0.055527 0.117574 -0.004278
v 0.048182 0.132993 -0.004620
v 0.047098 0.149499 -0.004639
v 0.038033 0.133083 -0.003998
v 0.047376 0.117426 -0.004101
v 0.045382 0.106465 -0.003770
v 0.037883 0.118122 -0.003606
v 0.027598 0.119058 -0.003141
v 0.035856 0.106925 -0.002906
v 0.033357 0.097582 -0.002663
v 0.025106 0.107967 -0.003117
v 0.032576 0.088195 -0.002972
v 0.018405 0.120506 -0.003562
v 0.028330 0.133560 -0.003407
v 0.019198 0.134094 -0.003559
v 0.028492 0.150306 -0.002422
v 0.036580 0.148958 -0.003286
v 0.023953 0.165083 -0.003394
v 0.017370 0.147940 -0.003691
v 0.011706 0.162711 -0.004170
v 0.008760 0.147953 -0.004056
v -0.000806 0.149064 -0.004831
v 0.002268 0.162250 -0.004218
v 0.012280 0.134423 -0.003805
v 0.005160 0.135948 -0.004231
v 0.011448 0.122553 -0.003884
v 0.005339 0.124920 -0.004161
v -0.000179 0.127453 -0.005843
v -0.005792 0.162009 -0.005103
v -0.004110 0.177554 -0.004273
v -0.010300 0.177438 -0.005115
v -0.009500 0.196712 -0.004395
v 0.003467 0.178910 -0.004086
v -0.004245 0.197684 -0.003859
v 0.012416 0.182446 -0.004673
v 0.002781 0.199874 -0.003843
v 0.021677 0.188629 -0.003241
v 0.033143 0.200154 -0.003572
v 0.012290 0.204524 -0.004306
v 0.033876 0.173130 -0.002961
v 0.044957 0.166734 -0.003833
v 0.044695 0.187572 -0.003505
v 0.051713 0.198938 -0.003622
v 0.052042 0.184738 -0.002860
v 0.061092 0.197175 -0.003552
v 0.059013 0.184762 -0.003940
v 0.066790 0.195094 -0.004052
v 0.055815 0.168160 -0.005012
v 0.071146 0.194278 -0.005805
v 0.074035 0.196917 -0.004430
v 0.071209 0.204645 -0.003025
v 0.080450 0.188349 -0.005712
v 0.080377 0.191455 -0.007896
v 0.085030 0.178100 -0.008275
v 0.089856 0.188028 -0.006676
v 0.083894 0.202613 -0.008509
v 0.086768 0.216550 -0.007992
v 0.091054 0.202634 -0.005916
v 0.092980 0.217399 -0.004411
v 0.095605 0.202903 -0.001315
v 0.094684 0.217591 0.000271
v 0.090793 0.203522 0.000284
v 0.094845 0.186445 -0.002422
v 0.091978 0.185330 0.000412
v 0.094823 0.167954 -0.003082
v 0.092902 0.165200 -0.000389
v 0.094795 0.147031 -0.003716
v 0.090863 0.171689 -0.006662
v 0.090809 0.150932 -0.006884
v 0.088440 0.130045 -0.007773
v 0.085887 0.156276 -0.007884
v 0.082750 0.133936 -0.008520
v 0.084639 0.161405 -0.005325
v 0.080909 0.137684 -0.005135
v 0.088472 0.162576 -0.002452
v 0.087094 0.185964 -0.002485
v 0.086607 0.140478 -0.003177
v 0.092298 0.143787 -0.001062
v 0.082692 0.119519 -0.004017
v 0.078328 0.098548 -0.005182
v 0.076031 0.117041 -0.005821
v 0.090338 0.124115 -0.002277
v 0.088441 0.105694 -0.003090
v 0.093207 0.126663 -0.005113
v 0.092147 0.109376 -0.006219
v 0.086053 0.111325 -0.008699
v 0.090957 0.095665 -0.006965
v 0.083646 0.096340 -0.008952
v 0.089966 0.083412 -0.007354
v 0.087822 0.094423 -0.003376
v 0.088019 0.083482 -0.003480
v 0.079613 0.092189 -0.006060
v 0.082048 0.084974 -0.005741
v 0.076429 0.096206 -0.008165
v 0.079578 0.113917 -0.008803
v 0.084330 0.073251 -0.005313
v 0.086703 0.072688 -0.004264
v 0.088311 0.072339 -0.007389
v 0.085016 0.204605 -0.003625
v 0.077519 0.205486 -0.003876
v 0.083267 0.217140 -0.004042
v 0.076400 0.215894 -0.003002
v 0.081415 0.230662 -0.003998
v 0.088998 0.217482 0.000193
v 0.087433 0.231534 -0.000432
v 0.093621 0.231814 0.000749
v 0.086728 0.245306 -0.001296
v 0.092772 0.245627 0.000823
v 0.085279 0.256836 -0.002389
v 0.078762 0.244558 -0.002811
v 0.075130 0.255133 -0.002872
v 0.067996 0.240519 -0.003529
v 0.064016 0.249685 -0.004671
v 0.072618 0.228412 -0.002820
v 0.055538 0.232451 -0.005234
v 0.051546 0.240289 -0.006001
v 0.061197 0.221982 -0.004200
v 0.037767 0.220401 -0.006272
v 0.043336 0.209408 -0.005466
v 0.033463 0.229123 -0.005832
v 0.036181 0.220348 -0.002699
v 0.042584 0.208910 -0.001956
v 0.026158 0.213008 -0.003550
v 0.020907 0.225475 -0.005455
v 0.007224 0.221598 -0.005886
v 0.018161 0.237852 -0.006476
v 0.005444 0.237706 -0.005510
v 0.018208 0.247429 -0.007021
v 0.032731 0.240895 -0.006859
v 0.032519 0.249018 -0.007105
v 0.048717 0.247382 -0.006449
v 0.046263 0.253537 -0.006398
v 0.060582 0.255376 -0.005458
v 0.057989 0.260566 -0.005659
v 0.072115 0.262790 -0.003775
v 0.069647 0.269321 -0.004389
v 0.083614 0.267338 -0.001798
v 0.091429 0.268338 0.001074
v 0.082663 0.277242 -0.000684
v 0.093261 0.278688 0.000124
v 0.086454 0.285274 -0.002163
v 0.077297 0.281751 -0.000979
v 0.077755 0.286251 -0.002674
v 0.066314 0.278952 -0.005353
v 0.065933 0.284971 -0.002017
v 0.066933 0.276985 -0.007138
v 0.052343 0.279712 -0.005537
v 0.055113 0.266457 -0.006435
v 0.043839 0.259694 -0.006213
v 0.053908 0.267071 -0.009160
v 0.055118 0.259535 -0.010621
v 0.042289 0.261758 -0.009158
v 0.030952 0.260505 -0.008432
v 0.042718 0.255810 -0.010837
v 0.029754 0.256265 -0.010664
v 0.043283 0.248911 -0.011882
v 0.044095 0.241531 -0.011852
v 0.057323 0.251599 -0.010789
v 0.027831 0.250074 -0.011987
v 0.025995 0.243619 -0.012019
v 0.014589 0.255610 -0.012109
v 0.017888 0.261113 -0.010386
v 0.010232 0.250095 -0.011715
v 0.005246 0.262277 -0.012052
v 0.009624 0.266426 -0.010478
v 0.000662 0.258648 -0.011299
v 0.000467 0.270524 -0.011845
v 0.004483 0.271858 -0.010148
v -0.001350 0.278002 -0.010582
v -0.004575 0.267536 -0.011289
v -0.007394 0.275977 -0.011261
v -0.010221 0.264332 -0.010815
v -0.012549 0.273770 -0.010939
v -0.015268 0.262817 -0.009896
v -0.006290 0.254141 -0.011154
v -0.012762 0.252135 -0.009694
v -0.018045 0.251704 -0.008728
v -0.010168 0.239581 -0.009185
v -0.015637 0.238644 -0.008838
v -0.020259 0.237915 -0.010171
v -0.017501 0.219323 -0.010359
v -0.022925 0.251181 -0.010328
v -0.024242 0.237346 -0.010978
v -0.021947 0.218738 -0.011105
v -0.026441 0.250716 -0.009888
v -0.024164 0.237238 -0.007365
v -0.024463 0.250848 -0.006530
v -0.019707 0.237552 -0.005246
v -0.022438 0.218468 -0.008035
v -0.020119 0.196493 -0.007592
v -0.018111 0.218722 -0.005666
v -0.014816 0.196502 -0.005557
v -0.013220 0.219054 -0.004589
v -0.015223 0.238027 -0.004019
v -0.008298 0.219421 -0.003958
v -0.010365 0.238373 -0.003960
v -0.002323 0.219612 -0.004629
v -0.004840 0.238630 -0.005364
v -0.003985 0.252636 -0.005899
v 0.006218 0.249648 -0.005994
v -0.001901 0.262206 -0.006044
v -0.010691 0.252385 -0.005162
v -0.009667 0.263131 -0.005438
v -0.015423 0.251759 -0.003834
v -0.020075 0.251191 -0.004704
v -0.015247 0.262479 -0.004371
v -0.019856 0.261852 -0.004595
v -0.015300 0.271080 -0.004460
v -0.008604 0.271116 -0.005251
v -0.020184 0.270198 -0.004282
v -0.015222 0.278139 -0.003663
v -0.021003 0.277435 -0.003701
v -0.014675 0.284050 -0.002981
v -0.008161 0.278473 -0.004264
v -0.000907 0.278430 -0.004928
v -0.007885 0.284711 -0.003100
v -0.007536 0.286455 -0.008063
v -0.001103 0.284764 -0.002847
v 0.007464 0.284429 -0.002472
v -0.000891 0.287442 -0.006954
v -0.001134 0.282953 -0.009457
v 0.007669 0.287464 -0.005708
v 0.007395 0.284198 -0.009306
v 0.020598 0.287257 -0.004858
v 0.020561 0.283302 -0.002444
v 0.020750 0.284964 -0.009203
v 0.036525 0.287198 -0.004489
v 0.036520 0.284828 -0.008808
v 0.052645 0.286772 -0.005371
v 0.036649 0.283164 -0.002311
v 0.052527 0.283530 -0.002052
v 0.036594 0.280417 -0.005883
v 0.020722 0.280342 -0.006269
v 0.006152 0.279690 -0.006945
v 0.066346 0.285946 -0.006137
v 0.052583 0.282934 -0.008483
v 0.076829 0.283910 -0.006894
v 0.085761 0.283163 -0.006875
v 0.077327 0.277157 -0.008523
v 0.086263 0.276906 -0.007959
v 0.078967 0.268974 -0.008451
v 0.087428 0.269022 -0.007259
v 0.067995 0.266171 -0.009993
v 0.080875 0.259040 -0.007563
v 0.081772 0.245873 -0.007850
v 0.088065 0.258255 -0.006935
v 0.070256 0.256929 -0.009134
v 0.073055 0.245341 -0.008123
v 0.073378 0.231070 -0.008244
v 0.059419 0.242906 -0.010352
v 0.060831 0.230927 -0.009419
v 0.081924 0.231043 -0.008492
v 0.088103 0.231281 -0.006902
v 0.080162 0.215825 -0.008547
v 0.093937 0.231718 -0.003798
v 0.088464 0.245750 -0.006774
v 0.094139 0.245718 -0.003649
v 0.093710 0.257893 -0.003566
v 0.091592 0.257527 0.000902
v 0.093321 0.267974 -0.004132
v 0.093959 0.277026 -0.006348
v 0.101323 0.279847 -0.005617
v 0.093306 0.282812 -0.007015
v 0.093293 0.284361 -0.002460
v 0.100962 0.282796 -0.006759
v 0.100495 0.283935 -0.002921
v 0.102496 0.281734 -0.002007
v -0.007446 0.281815 -0.010302
v -0.013244 0.280494 -0.010635
v -0.013103 0.285537 -0.008670
v -0.018321 0.279197 -0.010368
v -0.023394 0.278038 -0.010274
v -0.017393 0.272049 -0.009934
v -0.017605 0.284383 -0.008885
v -0.023624 0.283328 -0.009370
v -0.014455 0.288883 -0.002182
v -0.022686 0.287013 -0.004861
v -0.029330 0.286591 -0.004906
v -0.021705 0.282879 -0.003071
v -0.028524 0.281544 -0.003620
v -0.025443 0.276082 -0.004271
v -0.035919 0.282401 -0.003775
v -0.031928 0.278784 -0.006513
v -0.037957 0.280172 -0.007290
v -0.031084 0.281011 -0.009343
v -0.029163 0.274993 -0.007027
v -0.028319 0.276167 -0.009594
v -0.027874 0.268982 -0.008022
v -0.027310 0.261329 -0.009045
v -0.024444 0.269282 -0.005120
v -0.026544 0.269897 -0.011011
v -0.024888 0.261592 -0.010842
v -0.022422 0.270813 -0.009399
v -0.020410 0.262111 -0.009076
v -0.024292 0.261379 -0.005999
v -0.037124 0.283010 -0.008352
v -0.036313 0.286887 -0.004997
v 0.000587 0.269791 -0.006758
v 0.010376 0.264591 -0.007128
v 0.008301 0.257985 -0.007288
v 0.020212 0.261195 -0.006484
v 0.019021 0.254970 -0.007128
v 0.031981 0.256032 -0.006463
v -0.020303 0.196306 -0.010735
v -0.016172 0.177005 -0.006538
v -0.014029 0.162789 -0.006108
v -0.017626 0.176799 -0.009144
v -0.017024 0.164527 -0.009295
v -0.018353 0.154513 -0.009705
v -0.014782 0.150342 -0.008450
v 0.067318 0.211953 -0.003659
v 0.034879 0.159555 -0.002083
v 0.063855 0.104623 -0.004413
v 0.038477 0.076754 -0.003337
v 0.042409 0.003967 -0.005236
v 0.014103 0.063909 -0.007977
vn -0.4737 -0.5745 -0.6675
vn -0.0321 -0.0324 -0.9990
vn 0.1448 -0.0015 -0.9895
vn 0.0082 -0.1596 -0.9871
vn 0.0357 -0.7426 -0.6688
vn -0.2103 -0.9236 0.3205
vn 0.4935 0.1789 -0.8512
vn -0.0962 0.0670 -0.9931
vn 0.9701 -0.1268 -0.2068
vn -0.0034 -0.0112 -0.9999
vn 0.1043 -0.0251 -0.9942
vn 0.1293 -0.0127 -0.9915
vn 0.0824 0.0068 -0.9966
vn 0.1043 -0.0235 -0.9943
vn 0.0164 -0.0026 -0.9999
vn -0.2127 -0.1553 -0.9647
vn -0.0375 -0.0383 -0.9986
vn -0.0075 -0.0239 -0.9997
vn -0.3153 -0.2499 -0.9155
vn -0.2024 -0.2019 -0.9583
vn -0.0155 -0.0618 -0.9980
vn -0.6663 -0.6426 -0.3784
vn 0.0038 -0.1798 -0.9837
vn -0.7206 -0.6655 0.1946
vn -0.2020 -0.1551 0.9670
vn -0.1452 -0.6019 0.7853
vn 0.1027 -0.4980 -0.8611
vn -0.9975 -0.0275 -0.0650
vn -0.6957 -0.1793 -0.6956
vn -0.0908 0.1478 -0.9848
vn 0.0648 0.1322 -0.9891
vn -0.3933 0.0661 -0.9170
vn -0.4239 0.9055 -0.0195
vn -0.1865 0.9756 0.1159
vn -0.7494 0.6295 0.2055
vn -0.1368 0.1043 0.9851
vn -0.1557 0.0785 0.9847
vn -0.0771 0.1063 0.9913
vn -0.8918 0.2660 0.3660
vn -0.3723 0.1426 -0.9171
vn -0.1509 0.0556 0.9870
vn -0.0648 0.0048 0.9979
vn -0.0449 0.0061 0.9990
vn -0.0887 0.0144 0.9960
vn -0.0366 -0.0081 0.9993
vn -0.0390 -0.0023 0.9992
vn -0.0601 -0.0452 0.9972
vn -0.0660 -0.0362 0.9972
vn -0.0466 -0.0075 0.9989
vn -0.0368 0.0067 0.9993
vn -0.0843 -0.0761 0.9935
vn -0.1064 0.0193 0.9941
vn -0.5468 -0.1130 0.8296
vn -0.8702 -0.0262 0.4920
vn 0.1372 -0.5425 0.8288
vn -0.8810 0.3479 0.3206
vn 0.2136 -0.0652 -0.9747
vn 0.1366 -0.1079 -0.9847
vn 0.8098 0.0692 0.5826
vn -0.9732 -0.0439 0.2258
vn -0.9350 -0.1033 0.3393
vn 0.8559 0.0859 0.5100
vn -0.8010 -0.3762 0.4657
vn 0.6375 -0.7632 0.1052
vn 0.0807 -0.3502 -0.9332
vn 0.2335 -0.7102 -0.6641
vn -0.0551 -0.0253 0.9982
vn -0.0423 -0.0200 0.9989
vn 0.0010 -0.0496 0.9988
vn -0.0732 -0.1166 0.9905
vn -0.1744 -0.2662 0.9480
vn -0.2301 -0.3351 0.9136
vn 0.1798 -0.0640 0.9816
vn -0.6544 -0.7345 -0.1795
vn 0.0277 -0.0850 0.9960
vn -0.0285 -0.0268 0.9992
vn 0.8363 -0.4754 0.2732
vn 0.0236 0.1458 -0.9890
vn -0.1022 0.0992 -0.9898
vn -0.5497 0.4704 -0.6903
vn -0.0387 0.2246 0.9737
vn -0.2664 -0.0091 -0.9638
vn -0.9786 0.0106 0.2055
vn -0.0288 0.0206 -0.9994
vn 0.1321 -0.0269 -0.9909
vn 0.2319 -0.0654 -0.9705
vn 0.3732 -0.1354 -0.9178
vn 0.5661 -0.1806 -0.8043
vn -0.0140 -0.0180 -0.9997
vn -0.4215 -0.0401 -0.9059
vn 0.9347 -0.3135 0.1673
vn 0.8906 -0.3247 0.3185
vn 0.8380 -0.2455 0.4873
vn 0.6350 -0.2654 -0.7255
vn -0.2091 -0.1416 -0.9676
vn 0.8069 -0.2028 0.5547
vn 0.1332 -0.0357 0.9904
vn 0.1437 -0.0324 0.9891
vn 0.1241 -0.0432 0.9913
vn -0.1045 -0.0167 0.9944
vn -0.1134 0.0453 0.9925
vn -0.2072 -0.0367 0.9776
vn 0.1579 -0.0728 0.9848
vn 0.7755 -0.2519 0.5789
vn -0.2173 -0.2559 0.9420
vn -0.9585 -0.0823 0.2730
vn -0.9720 -0.1867 0.1428
vn -0.6064 -0.7827 -0.1400
vn 0.4293 -0.9029 0.0228
vn -0.5070 -0.0893 -0.8573
vn 0.1159 -0.0051 0.9932
vn 0.9395 -0.2197 -0.2629
vn 0.1384 -0.1066 0.9846
vn 0.0346 0.0333 0.9988
vn 0.9630 -0.2529 0.0931
vn -0.0002 0.0344 -0.9994
vn 0.9695 -0.2436 -0.0252
vn 0.0258 -0.0406 0.9988
vn -0.0496 0.0942 -0.9943
vn 0.8994 -0.4371 -0.0078
vn 0.0941 -0.0354 0.9949
vn -0.9650 0.2479 -0.0852
vn -0.9479 0.2624 0.1804
vn -0.3614 0.8398 0.4052
vn 0.2803 -0.9078 0.3119
vn -0.1300 -0.1531 0.9796
vn 0.1887 0.0475 -0.9809
vn 0.0563 -0.0300 0.9980
vn 0.7065 -0.0149 0.7076
vn 0.0773 0.0141 0.9969
vn 0.2006 -0.1978 0.9595
vn 0.7354 -0.0746 -0.6735
vn 0.0515 -0.1069 -0.9929
vn 0.3062 -0.0984 0.9469
vn 0.4775 -0.5119 -0.7141
vn 0.0249 -0.0941 -0.9952
vn 0.0368 -0.0160 -0.9992
vn -0.0354 -0.0361 -0.9987
vn 0.0704 0.0148 -0.9974
vn 0.0344 -0.0024 -0.9994
vn 0.0345 0.0139 -0.9993
vn 0.0489 0.0162 -0.9987
vn 0.0067 0.0118 -0.9999
vn 0.0011 0.0228 -0.9997
vn -0.4428 -0.0235 -0.8963
vn 0.0061 0.0072 -1.0000
vn 0.0406 -0.0013 -0.9992
vn 0.0057 -0.0116 -0.9999
vn -0.0618 -0.0977 -0.9933
vn 0.0136 -0.0180 -0.9997
vn 0.0075 -0.0242 -0.9997
vn -0.0113 -0.0311 -0.9995
vn 0.0236 -0.0263 -0.9994
vn -0.9237 0.0559 0.3791
vn -0.9132 -0.2625 0.3117
vn -0.7446 -0.6612 -0.0914
vn 0.0178 -0.0906 -0.9957
vn -0.0022 -0.0155 -0.9999
vn 0.0539 0.0016 -0.9985
vn 0.0016 -0.0104 -0.9999
vn 0.0059 -0.0140 -0.9999
vn 0.0958 -0.0078 -0.9954
vn 0.1033 0.0173 -0.9945
vn -0.0389 -0.0084 -0.9992
vn 0.1855 0.0274 -0.9823
vn 0.1329 0.0246 -0.9908
vn -0.0838 -0.0108 -0.9964
vn -0.0994 -0.0193 -0.9949
vn -0.0740 -0.0358 -0.9966
vn -0.0362 -0.0325 -0.9988
vn 0.0019 -0.0254 -0.9997
vn -0.0147 -0.0323 -0.9994
vn 0.0029 -0.0196 -0.9998
vn -0.1117 -0.0385 -0.9930
vn -0.0873 -0.0345 -0.9956
vn -0.0132 -0.0313 -0.9994
vn 0.0576 -0.0355 -0.9977
vn 0.0494 -0.0262 -0.9984
vn 0.0284 -0.0187 -0.9994
vn 0.1025 -0.0173 -0.9946
vn 0.1169 -0.0204 -0.9929
vn 0.0836 -0.0121 -0.9964
vn 0.0061 -0.0206 -0.9998
vn 0.0427 -0.0075 -0.9991
vn 0.0475 -0.0099 -0.9988
vn 0.2178 -0.1541 -0.9638
vn 0.4233 -0.0470 -0.9048
vn 0.0368 0.0032 -0.9993
vn -0.0158 -0.0763 -0.9970
vn 0.3849 -0.9176 -0.0995
vn 0.8780 -0.3360 0.3409
vn 0.9493 -0.1026 0.2971
vn 0.9787 0.0366 0.2018
vn 0.2916 -0.0043 -0.9565
vn 0.0104 -0.0162 -0.9998
vn 0.1959 0.0126 -0.9806
vn 0.0018 -0.0156 -0.9999
vn 0.9970 0.0752 0.0158
vn -0.0430 -0.0258 -0.9987
vn -0.0192 -0.0276 -0.9994
vn -0.0250 -0.0377 -0.9990
vn -0.0282 -0.0319 -0.9991
vn -0.0128 -0.0196 -0.9997
vn -0.0569 -0.0279 -0.9980
vn -0.0201 -0.0195 -0.9996
vn 0.1040 -0.0018 -0.9946
vn 0.8500 -0.0639 -0.5228
vn 0.6437 -0.0260 0.7648
vn 0.0878 0.0264 0.9958
vn 0.0487 0.0196 0.9986
vn 0.1107 -0.0007 0.9939
vn 0.0798 -0.0149 0.9967
vn 0.0360 0.0122 0.9993
vn 0.0442 0.0206 0.9988
vn 0.0846 -0.0338 0.9958
vn 0.0712 -0.0025 0.9975
vn 0.0510 0.0280 0.9983
vn 0.0293 0.0235 0.9993
vn 0.0094 -0.0122 0.9999
vn -0.0032 0.0168 0.9999
vn -0.0095 -0.0021 1.0000
vn -0.0391 0.0031 0.9992
vn -0.0452 -0.0048 0.9990
vn -0.0282 -0.0189 0.9994
vn -0.0577 0.0007 0.9983
vn 0.0488 0.0002 0.9988
vn -0.0484 0.0160 0.9987
vn -0.0343 0.0140 0.9993
vn -0.0530 0.0034 0.9986
vn -0.0489 0.0032 0.9988
vn -0.0611 -0.0151 0.9980
vn -0.1710 -0.0093 0.9852
vn -0.1838 -0.0778 0.9799
vn -0.1546 -0.0580 0.9863
vn -0.1582 0.0224 0.9872
vn -0.0448 0.0022 0.9990
vn -0.0091 -0.0031 1.0000
vn -0.0896 -0.0257 0.9956
vn -0.1880 -0.0297 0.9817
vn -0.1383 -0.0229 0.9901
vn -0.2742 -0.0311 0.9612
vn -0.0233 -0.0044 0.9997
vn -0.0269 -0.0027 0.9996
vn 0.0260 0.0187 0.9995
vn -0.0366 0.0018 0.9993
vn -0.0191 0.0412 0.9990
vn -0.0132 0.0177 0.9998
vn -0.0018 -0.0015 1.0000
vn -0.0285 -0.0130 0.9995
vn -0.0825 0.0619 0.9947
vn 0.0730 -0.0199 0.9971
vn 0.0515 -0.0264 0.9983
vn 0.4306 0.2935 0.8535
vn -0.0033 0.0396 0.9992
vn 0.0255 -0.0184 0.9995
vn 0.1280 -0.0437 0.9908
vn 0.1647 -0.0844 0.9827
vn 0.1659 -0.1926 0.9672
vn -0.3096 -0.2439 -0.9191
vn 0.0505 -0.2890 0.9560
vn 0.0296 -0.0471 0.9984
vn -0.8590 -0.3101 0.4075
vn -0.0055 -0.0446 0.9990
vn -0.2880 -0.0338 -0.9570
vn 0.4667 0.0205 -0.8842
vn 0.4504 0.0171 -0.8927
vn 0.5534 -0.0029 -0.8329
vn 0.1333 -0.0290 -0.9907
vn 0.2834 0.0069 -0.9590
vn 0.7392 0.0141 -0.6734
vn 0.9727 -0.0088 0.2318
vn 0.9998 0.0042 0.0207
vn 0.8138 -0.0026 0.5812
vn -0.2923 -0.0404 0.9555
vn -0.1368 -0.0373 0.9899
vn 0.0951 -0.0262 0.9951
vn 0.2342 -0.0339 0.9716
vn 0.9970 0.0044 -0.0779
vn 0.2734 -0.0603 0.9600
vn 0.9912 -0.0382 -0.1271
vn 0.4259 0.0089 -0.9047
vn -0.3182 0.0533 -0.9465
vn 0.9797 -0.0809 -0.1832
vn 0.3183 0.0084 -0.9479
vn -0.3134 0.0883 -0.9455
vn -0.9522 0.1418 0.2707
vn -0.9743 -0.0347 0.2226
vn -0.3599 0.0154 0.9329
vn -0.4478 -0.0146 0.8940
vn -0.4633 -0.0394 0.8853
vn -0.9638 0.1648 0.2096
vn -0.2470 0.0031 0.9690
vn 0.2825 -0.0656 0.9570
vn 0.2918 -0.0674 0.9541
vn 0.9727 -0.0818 -0.2171
vn 0.1973 0.0045 -0.9803
vn 0.3046 -0.0691 0.9500
vn 0.9292 -0.1271 -0.3471
vn -0.0017 -0.1122 -0.9937
vn 0.8214 -0.1843 -0.5397
vn -0.9537 -0.2955 -0.0565
vn 0.3470 -0.0798 0.9345
vn -0.6186 -0.7002 0.3566
vn -0.2071 -0.2506 -0.9457
vn -0.2620 0.0635 -0.9630
vn 0.1862 -0.6492 0.7375
vn -0.8448 -0.5351 -0.0063
vn 0.5615 -0.6245 -0.5429
vn -0.3556 -0.0419 0.9337
vn -0.2474 -0.0273 0.9685
vn 0.0305 -0.0058 0.9995
vn -0.0160 0.0012 0.9999
vn -0.1928 -0.0248 0.9809
vn -0.3197 -0.0241 0.9472
vn 0.6201 0.0152 0.7844
vn 0.4645 0.0328 0.8850
vn -0.2825 -0.0047 0.9593
vn -0.1379 -0.0037 0.9904
vn -0.2565 -0.0149 0.9664
vn 0.3639 0.0055 0.9314
vn -0.1298 0.0164 0.9914
vn -0.0954 0.0154 0.9953
vn -0.1410 0.0329 0.9895
vn -0.0852 0.0398 0.9956
vn -0.0996 0.0239 0.9947
vn -0.0991 0.0222 0.9948
vn 0.0129 0.1112 0.9937
vn 0.4717 0.2799 0.8362
vn 0.4629 0.3861 0.7979
vn 0.4043 0.3099 0.8605
vn -0.0426 0.0951 0.9946
vn 0.0179 0.0539 0.9984
vn -0.0167 0.0541 0.9984
vn 0.0296 0.0493 0.9983
vn 0.0481 0.0311 0.9984
vn 0.0353 0.0351 0.9988
vn 0.0594 0.0543 0.9968
vn -0.0176 -0.0109 0.9998
vn -0.0688 0.0261 0.9973
vn -0.0410 -0.0116 0.9991
vn -0.1220 0.0177 0.9924
vn -0.0963 0.0190 0.9952
vn -0.1876 -0.0213 0.9820
vn -0.1514 -0.0081 0.9884
vn -0.2264 -0.0397 0.9732
vn -0.1410 0.0678 0.9877
vn 0.4232 -0.0397 0.9052
vn 0.3296 -0.0668 0.9417
vn 0.0576 0.8964 0.4396
vn 0.0458 0.9038 0.4256
vn 0.0233 0.8627 0.5052
vn -0.1295 0.0076 0.9915
vn -0.3700 -0.3965 0.8402
vn -0.0461 0.4523 0.8907
vn -0.4043 0.4845 0.7757
vn -0.0003 0.0412 0.9991
vn -0.0871 -0.9852 0.1477
vn -0.4058 0.7123 -0.5727
vn -0.2639 0.2295 -0.9368
vn -0.0187 -0.1084 -0.9939
vn -0.1512 0.3342 0.9303
vn -0.2821 0.9117 -0.2987
vn 0.0054 0.1216 -0.9926
vn 0.0435 0.0851 -0.9954
vn -0.0166 0.2044 -0.9788
vn 0.0129 0.9947 0.1023
vn -0.0233 0.1422 0.9896
vn 0.0458 0.3810 -0.9234
vn 0.0342 0.0568 -0.9978
vn 0.0195 0.0833 -0.9963
vn 0.0942 0.0047 -0.9955
vn 0.1251 -0.0267 -0.9918
vn 0.0520 -0.0245 -0.9983
vn -0.0160 -0.0330 -0.9993
vn 0.0327 0.0805 -0.9962
vn 0.2627 0.6391 -0.7229
vn -0.0433 -0.0430 -0.9981
vn 0.0344 0.0629 -0.9974
vn 0.5016 0.7216 -0.4771
vn -0.0630 -0.0330 -0.9975
vn 0.8211 0.4604 -0.3374
vn 0.1022 0.1205 -0.9874
vn -0.0598 -0.0033 -0.9982
vn 0.1610 0.1148 -0.9803
vn 0.5076 -0.8569 -0.0895
vn -0.0156 0.0815 -0.9966
vn -0.1078 -0.0486 -0.9930
vn -0.1200 -0.0324 -0.9922
vn -0.0990 -0.0050 -0.9951
vn -0.1623 -0.0534 -0.9853
vn -0.1139 -0.0563 -0.9919
vn -0.1510 -0.0621 -0.9866
vn 0.0840 -0.0051 -0.9965
vn 0.1053 -0.0081 -0.9944
vn 0.1092 0.0160 -0.9939
vn 0.1926 0.0455 -0.9802
vn 0.0862 0.0250 -0.9960
vn -0.6140 -0.0600 -0.7870
vn -0.6829 -0.0541 -0.7285
vn -0.8923 -0.0720 -0.4456
vn -0.8627 -0.0911 0.4974
vn -0.8122 -0.0972 0.5752
vn -0.6679 -0.0679 0.7412
vn -0.3309 -0.0506 0.9423
vn -0.2755 -0.0226 0.9610
vn -0.3324 -0.0458 0.9420
vn -0.7126 -0.1116 -0.6926
vn -0.7924 -0.0899 0.6033
vn -0.1582 -0.0277 0.9870
vn -0.1040 -0.0163 0.9944
vn 0.0094 0.0087 0.9999
vn 0.0996 0.0282 0.9946
vn 0.0856 0.0425 0.9954
vn 0.1117 0.0399 0.9929
vn 0.0934 0.0392 0.9949
vn 0.1579 0.0321 0.9869
vn 0.0985 0.0192 0.9950
vn 0.0443 0.0261 0.9987
vn 0.1456 0.0039 0.9893
vn 0.0684 0.0046 0.9977
vn 0.0006 0.0150 0.9999
vn -0.1757 -0.0227 0.9842
vn 0.0705 -0.0646 0.9954
vn -0.0817 -0.0753 0.9938
vn 0.1229 -0.0787 0.9893
vn 0.0774 -0.1742 0.9817
vn 0.0491 -0.1221 0.9913
vn -0.0379 -0.1170 0.9924
vn -0.0862 0.0346 0.9957
vn 0.0960 0.3967 0.9129
vn -0.0551 0.4978 0.8655
vn 0.1909 -0.3003 0.9345
vn -0.0046 0.3175 0.9482
vn 0.2754 0.0229 0.9611
vn -0.0313 0.9778 -0.2070
vn -0.0611 0.9207 -0.3856
vn 0.0935 0.8083 -0.5813
vn 0.0121 0.0604 0.9981
vn -0.0066 0.9994 0.0329
vn 0.0858 0.2227 -0.9711
vn 0.1135 0.2784 -0.9537
vn 0.0262 0.2914 -0.9562
vn -0.0160 -0.1498 0.9886
vn 0.0054 0.9764 0.2159
vn 0.0314 0.2425 -0.9696
vn -0.0088 -0.1475 0.9890
vn 0.0233 0.9768 0.2129
vn 0.0187 0.2009 -0.9794
vn 0.0563 0.9921 -0.1123
vn -0.0174 -0.9918 -0.1268
vn 0.0106 -0.9882 -0.1526
vn 0.0173 0.8282 -0.5601
vn 0.0151 0.6395 -0.7686
vn 0.0090 0.1272 -0.9918
vn 0.0878 0.5899 -0.8027
vn 0.1369 0.0173 -0.9904
vn 0.2558 -0.0677 -0.9644
vn 0.0877 0.0052 -0.9961
vn 0.3139 -0.0072 -0.9494
vn 0.1221 -0.0281 -0.9921
vn 0.1245 -0.0298 -0.9918
vn 0.0938 -0.0103 -0.9955
vn 0.1067 0.0116 -0.9942
vn 0.3333 0.0123 -0.9428
vn 0.0910 0.0211 -0.9956
vn 0.0475 0.0039 -0.9989
vn 0.3407 0.0146 -0.9401
vn 0.8655 0.0123 -0.5007
vn 0.9249 0.0303 -0.3790
vn 0.9479 0.0311 -0.3171
vn 0.9240 -0.0682 -0.3764
vn 0.5852 -0.3954 -0.7079
vn 0.0916 0.5394 -0.8371
vn 0.4774 0.4794 -0.7363
vn 0.7124 -0.5371 -0.4518
vn 0.8392 -0.0900 0.5364
vn 0.4404 0.8405 0.3157
vn -0.0628 0.2024 -0.9773
vn -0.0625 0.1031 -0.9927
vn 0.0633 0.5971 -0.7997
vn -0.0759 0.4936 -0.8664
vn -0.0205 0.0630 -0.9978
vn 0.0742 -0.0072 -0.9972
vn 0.1575 0.9240 0.3484
vn -0.1960 0.9478 0.2514
vn -0.2533 0.0962 -0.9626
vn -0.0919 0.9660 0.2416
vn -0.1646 -0.0947 0.9818
vn -0.2899 -0.2118 0.9333
vn -0.8850 -0.3860 0.2603
vn -0.5736 -0.8068 0.1416
vn -0.4690 0.8634 0.1861
vn -0.4891 -0.1657 0.8563
vn -0.7415 -0.6686 -0.0558
vn -0.7105 0.1631 -0.6845
vn -0.4744 -0.1300 -0.8707
vn -0.9706 -0.1825 0.1571
vn -0.4113 -0.1366 0.9012
vn -0.3612 -0.0323 -0.9319
vn -0.9894 -0.1116 -0.0925
vn -0.1182 -0.0066 -0.9930
vn -0.5288 -0.0738 0.8455
vn 0.2996 0.4974 0.8141
vn 0.1987 0.7384 0.6444
vn 0.0084 0.0250 0.9997
vn -0.6103 -0.0737 0.7887
vn -0.8529 -0.1273 -0.5063
vn -0.4262 -0.0642 0.9023
vn -0.9131 -0.0852 -0.3987
vn -0.9106 -0.2381 -0.3378
vn -0.0506 0.0126 0.9986
vt 0.383730 0.597852
vt 0.384269 0.593932
vt 0.387450 0.596068
vt 0.386409 0.599724
vt 0.387893 0.602763
vt 0.383956 0.601902
vt 0.389228 0.601206
vt 0.389116 0.604618
vt 0.391612 0.597945
vt 0.385738 0.589170
vt 0.388918 0.591662
vt 0.392649 0.596822
vt 0.390751 0.586030
vt 0.395268 0.589599
vt 0.386762 0.583327
vt 0.381491 0.592463
vt 0.382813 0.587833
vt 0.382875 0.581623
vt 0.379926 0.590285
vt 0.379841 0.586937
vt 0.379556 0.579939
vt 0.377356 0.586854
vt 0.375735 0.583025
vt 0.378491 0.590328
vt 0.376785 0.592179
vt 0.375748 0.586413
vt 0.373093 0.584777
vt 0.933662 0.731087
vt 0.933393 0.736087
vt 0.927974 0.738960
vt 0.929477 0.734219
vt 0.926916 0.746141
vt 0.925089 0.738989
vt 0.929320 0.744422
vt 0.931836 0.741530
vt 0.932452 0.747105
vt 0.931379 0.747915
vt 0.932016 0.750526
vt 0.934983 0.749201
vt 0.934182 0.752160
vt 0.935348 0.746787
vt 0.381596 0.565311
vt 0.382898 0.566776
vt 0.380550 0.571704
vt 0.379105 0.568549
vt 0.932052 0.755140
vt 0.935413 0.755755
vt 0.939464 0.750891
vt 0.939760 0.755450
vt 0.938682 0.747344
vt 0.943735 0.751016
vt 0.944523 0.756149
vt 0.941752 0.745716
vt 0.065113 0.277152
vt 0.061618 0.273940
vt 0.064842 0.267819
vt 0.067474 0.273845
vt 0.071466 0.271851
vt 0.071775 0.266786
vt 0.939754 0.741275
vt 0.944739 0.740577
vt 0.945839 0.744450
vt 0.937353 0.742514
vt 0.937166 0.737398
vt 0.933892 0.740138
vt 0.370746 0.590693
vt 0.371205 0.587426
vt 0.373708 0.590207
vt 0.934200 0.744732
vt 0.936969 0.732657
vt 0.368076 0.588221
vt 0.370885 0.585385
vt 0.368971 0.588739
vt 0.369616 0.589937
vt 0.370679 0.590013
vt 0.929839 0.730902
vt 0.932259 0.729189
vt 0.930346 0.726850
vt 0.932053 0.725031
vt 0.367128 0.590706
vt 0.367860 0.591625
vt 0.930828 0.723057
vt 0.930586 0.721288
vt 0.932092 0.722025
vt 0.929340 0.723704
vt 0.366125 0.590683
vt 0.366148 0.591068
vt 0.365566 0.591824
vt 0.364910 0.591337
vt 0.374167 0.595482
vt 0.372751 0.592064
vt 0.371234 0.598739
vt 0.367450 0.596089
vt 0.373785 0.600337
vt 0.376136 0.597527
vt 0.378438 0.594866
vt 0.038749 0.275622
vt 0.040409 0.272613
vt 0.048328 0.270256
vt 0.044734 0.274483
vt 0.380814 0.595252
vt 0.379462 0.599457
vt 0.047884 0.266633
vt 0.055754 0.264011
vt 0.054531 0.268443
vt 0.041076 0.270266
vt 0.392983 0.599820
vt 0.390738 0.601795
vt 0.378428 0.605490
vt 0.387212 0.607262
vt 0.388445 0.607218
vt 0.391316 0.602628
vt 0.035420 0.273949
vt 0.032981 0.273042
vt 0.040233 0.272788
vt 0.886070 0.234471
vt 0.887942 0.229835
vt 0.891099 0.233279
vt 0.892601 0.240704
vt 0.893469 0.239343
vt 0.894567 0.234151
vt 0.881933 0.225950
vt 0.882694 0.222967
vt 0.888604 0.227369
vt 0.880829 0.229354
vt 0.889554 0.245192
vt 0.883773 0.238413
vt 0.878963 0.232641
vt 0.444592 0.973542
vt 0.441651 0.974013
vt 0.442475 0.968306
vt 0.444750 0.966493
vt 0.874826 0.223814
vt 0.875872 0.222085
vt 0.442643 0.957764
vt 0.446654 0.965868
vt 0.440607 0.959470
vt 0.446279 0.973267
vt 0.444700 0.980323
vt 0.442557 0.981540
vt 0.446341 0.979854
vt 0.448959 0.972836
vt 0.447759 0.979854
vt 0.449877 0.965182
vt 0.451461 0.973167
vt 0.454106 0.964795
vt 0.449409 0.980268
vt 0.447221 0.982631
vt 0.446506 0.982358
vt 0.447104 0.985128
vt 0.875893 0.220212
vt 0.869898 0.216672
vt 0.869850 0.215289
vt 0.875445 0.217149
vt 0.865731 0.214009
vt 0.865985 0.213361
vt 0.446117 0.983808
vt 0.445826 0.986047
vt 0.871124 0.218787
vt 0.869349 0.218584
vt 0.881833 0.218038
vt 0.451306 0.951703
vt 0.459059 0.959008
vt 0.459030 0.964290
vt 0.445453 0.955437
vt 0.050449 0.260728
vt 0.047298 0.264942
vt 0.039648 0.263427
vt 0.399445 0.593082
vt 0.398578 0.599727
vt 0.448654 0.948370
vt 0.452215 0.950203
vt 0.886074 0.249341
vt 0.881516 0.245232
vt 0.881910 0.242168
vt 0.888079 0.248564
vt 0.895061 0.250204
vt 0.892492 0.253384
vt 0.447652 0.943699
vt 0.444980 0.948289
vt 0.444153 0.942076
vt 0.899380 0.254789
vt 0.896607 0.257196
vt 0.058821 0.234804
vt 0.058561 0.230544
vt 0.061733 0.229031
vt 0.062162 0.235759
vt 0.450783 0.943891
vt 0.061976 0.242579
vt 0.058121 0.238970
vt 0.065596 0.233537
vt 0.065063 0.248161
vt 0.064708 0.227706
vt 0.897452 0.246591
vt 0.901103 0.249424
vt 0.905091 0.252235
vt 0.903802 0.257712
vt 0.069577 0.248263
vt 0.069670 0.240789
vt 0.069522 0.254894
vt 0.063543 0.256217
vt 0.910791 0.261018
vt 0.912398 0.256144
vt 0.057275 0.259178
vt 0.056335 0.252614
vt 0.406190 0.580026
vt 0.411007 0.581004
vt 0.407610 0.587146
vt 0.402732 0.586848
vt 0.398080 0.584273
vt 0.401087 0.578109
vt 0.392856 0.580527
vt 0.395759 0.575079
vt 0.388204 0.577459
vt 0.390676 0.571787
vt 0.384139 0.574660
vt 0.386591 0.569242
vt 0.385886 0.561489
vt 0.389841 0.564064
vt 0.393835 0.566174
vt 0.391599 0.555840
vt 0.387054 0.552189
vt 0.396025 0.558873
vt 0.392876 0.547526
vt 0.397748 0.549496
vt 0.390044 0.544605
vt 0.383888 0.561516
vt 0.384344 0.555105
vt 0.380744 0.547596
vt 0.385284 0.546864
vt 0.387705 0.542154
vt 0.392312 0.537010
vt 0.395122 0.538018
vt 0.389859 0.535853
vt 0.392176 0.526304
vt 0.394867 0.526937
vt 0.398048 0.527293
vt 0.395772 0.515530
vt 0.398225 0.516094
vt 0.401197 0.516632
vt 0.406555 0.518053
vt 0.403874 0.528507
vt 0.400573 0.539820
vt 0.412266 0.531205
vt 0.407708 0.542013
vt 0.415908 0.522737
vt 0.403425 0.507318
vt 0.409723 0.509234
vt 0.419108 0.516581
vt 0.428776 0.521867
vt 0.426061 0.528485
vt 0.421601 0.535967
vt 0.433490 0.532082
vt 0.436527 0.525022
vt 0.428285 0.540006
vt 0.415531 0.545610
vt 0.420820 0.548987
vt 0.193459 0.804586
vt 0.188251 0.807167
vt 0.185890 0.796821
vt 0.190973 0.794712
vt 0.433098 0.543748
vt 0.424229 0.552415
vt 0.184092 0.809618
vt 0.182735 0.802219
vt 0.183685 0.796775
vt 0.186621 0.791871
vt 0.425849 0.554961
vt 0.431985 0.548031
vt 0.421880 0.562267
vt 0.419597 0.560219
vt 0.415859 0.557615
vt 0.416299 0.566993
vt 0.412692 0.565225
vt 0.419068 0.570853
vt 0.407886 0.563183
vt 0.411035 0.554855
vt 0.404183 0.551987
vt 0.401693 0.560988
vt 0.398899 0.568816
vt 0.404510 0.571287
vt 0.409452 0.572885
vt 0.413555 0.573506
vt 0.417541 0.574583
vt 0.415646 0.580964
vt 0.417216 0.580799
vt 0.422211 0.573590
vt 0.420108 0.581301
vt 0.424568 0.564909
vt 0.427936 0.567195
vt 0.425372 0.574680
vt 0.422920 0.582064
vt 0.101263 0.268643
vt 0.089464 0.264582
vt 0.089375 0.259833
vt 0.101287 0.264656
vt 0.077928 0.260350
vt 0.077011 0.254742
vt 0.076231 0.248697
vt 0.070185 0.260666
vt 0.090140 0.269243
vt 0.079899 0.266307
vt 0.063544 0.261814
vt 0.949266 0.758696
vt 0.948113 0.763651
vt 0.942934 0.761566
vt 0.945531 0.769636
vt 0.940294 0.767882
vt 0.949643 0.773403
vt 0.945586 0.779302
vt 0.941721 0.777367
vt 0.936569 0.773701
vt 0.118604 0.817277
vt 0.124545 0.818564
vt 0.124984 0.822474
vt 0.119319 0.820190
vt 0.931861 0.780091
vt 0.938324 0.783662
vt 0.932280 0.771708
vt 0.936311 0.766157
vt 0.927269 0.778420
vt 0.931639 0.764883
vt 0.927638 0.772007
vt 0.924102 0.777649
vt 0.934977 0.760099
vt 0.938937 0.760648
vt 0.928429 0.766820
vt 0.930921 0.759450
vt 0.922871 0.773184
vt 0.099989 0.933969
vt 0.102468 0.930375
vt 0.109974 0.935060
vt 0.109593 0.938327
vt 0.104796 0.927749
vt 0.111874 0.932662
vt 0.094078 0.923666
vt 0.095664 0.921418
vt 0.091912 0.925538
vt 0.118786 0.823283
vt 0.126340 0.828573
vt 0.121344 0.829128
vt 0.098482 0.936887
vt 0.088524 0.927862
vt 0.091644 0.937119
vt 0.083178 0.931515
vt 0.131379 0.821881
vt 0.132365 0.828038
vt 0.141312 0.823631
vt 0.141318 0.830834
vt 0.143313 0.837632
vt 0.134645 0.839008
vt 0.132216 0.817983
vt 0.141460 0.820729
vt 0.148234 0.831269
vt 0.148530 0.824756
vt 0.150224 0.820737
vt 0.134776 0.815255
vt 0.142528 0.818458
vt 0.150656 0.817938
vt 0.137014 0.813862
vt 0.143922 0.816933
vt 0.150255 0.816565
vt 0.427947 0.557900
vt 0.431104 0.560653
vt 0.150098 0.813845
vt 0.153283 0.816334
vt 0.156391 0.818683
vt 0.153124 0.813319
vt 0.159869 0.814194
vt 0.625771 0.033605
vt 0.632527 0.034038
vt 0.627845 0.035763
vt 0.623073 0.036312
vt 0.634872 0.030944
vt 0.628086 0.029097
vt 0.621849 0.027684
vt 0.621024 0.031541
vt 0.177903 0.804354
vt 0.180054 0.797424
vt 0.180674 0.811591
vt 0.174236 0.806595
vt 0.177180 0.813989
vt 0.622627 0.023913
vt 0.629720 0.025881
vt 0.170817 0.808583
vt 0.174597 0.815475
vt 0.171639 0.817095
vt 0.168389 0.810147
vt 0.630647 0.023836
vt 0.622884 0.021262
vt 0.639024 0.026856
vt 0.637784 0.028693
vt 0.648469 0.029025
vt 0.646702 0.031177
vt 0.644261 0.034013
vt 0.641931 0.037040
vt 0.654601 0.035174
vt 0.652471 0.037506
vt 0.650401 0.039394
vt 0.649154 0.041313
vt 0.640179 0.038834
vt 0.650383 0.026401
vt 0.640993 0.024074
vt 0.642327 0.021057
vt 0.652204 0.024357
vt 0.631294 0.020796
vt 0.630316 0.017470
vt 0.141402 0.026878
vt 0.141578 0.023410
vt 0.150392 0.025954
vt 0.149991 0.028419
vt 0.144331 0.018925
vt 0.152271 0.024965
vt 0.130213 0.024235
vt 0.134627 0.019535
vt 0.129178 0.027601
vt 0.136548 0.017098
vt 0.144893 0.017357
vt 0.656180 0.031877
vt 0.145532 0.013733
vt 0.136437 0.013335
vt 0.128700 0.020217
vt 0.129615 0.018647
vt 0.129861 0.015363
vt 0.059123 0.214593
vt 0.063277 0.209005
vt 0.062351 0.217965
vt 0.058201 0.219760
vt 0.060197 0.209595
vt 0.060952 0.206395
vt 0.059522 0.202131
vt 0.059988 0.202311
vt 0.127014 0.024300
vt 0.062454 0.225864
vt 0.063154 0.223558
vt 0.899054 0.271833
vt 0.896439 0.265364
vt 0.899231 0.262344
vt 0.900918 0.270200
vt 0.901207 0.260208
vt 0.902815 0.270418
vt 0.136819 0.009525
vt 0.137108 0.006507
vt 0.147880 0.007112
vt 0.146668 0.009836
vt 0.100213 0.019312
vt 0.100194 0.024692
vt 0.096978 0.024974
vt 0.098908 0.019403
vt 0.105822 0.019422
vt 0.107101 0.017770
vt 0.109432 0.024835
vt 0.103527 0.025531
vt 0.104937 0.018039
vt 0.102505 0.023755
vt 0.623231 0.018113
vt 0.623266 0.014304
vt 0.165079 0.812605
vt 0.167778 0.818963
vt 0.164149 0.820527
vt 0.167911 0.827718
vt 0.172234 0.825716
vt 0.175472 0.823883
vt 0.178592 0.822098
vt 0.182725 0.828644
vt 0.179949 0.830593
vt 0.176333 0.832934
vt 0.183299 0.836429
vt 0.186509 0.834443
vt 0.178587 0.838894
vt 0.170651 0.835017
vt 0.172504 0.840712
vt 0.164315 0.840970
vt 0.162985 0.835943
vt 0.161364 0.829025
vt 0.153063 0.842571
vt 0.152046 0.837270
vt 0.150143 0.831287
vt 0.149868 0.837702
vt 0.064864 0.933870
vt 0.070031 0.929489
vt 0.074650 0.935471
vt 0.068726 0.937985
vt 0.075732 0.924731
vt 0.059389 0.930654
vt 0.064630 0.924713
vt 0.068553 0.919012
vt 0.060120 0.921955
vt 0.062506 0.915780
vt 0.055637 0.928174
vt 0.052401 0.936116
vt 0.050516 0.934172
vt 0.055147 0.939575
vt 0.046147 0.940820
vt 0.044586 0.938647
vt 0.173411 0.844616
vt 0.166139 0.844975
vt 0.181601 0.847052
vt 0.174814 0.847384
vt 0.180232 0.843249
vt 0.185851 0.842211
vt 0.190730 0.848932
vt 0.189615 0.839347
vt 0.191747 0.843864
vt 0.195705 0.847677
vt 0.196085 0.846267
vt 0.196018 0.850135
vt 0.194133 0.850524
vt 0.495624 0.929669
vt 0.495573 0.935419
vt 0.483196 0.937406
vt 0.484529 0.934034
vt 0.490806 0.928168
vt 0.482502 0.933042
vt 0.503303 0.944209
vt 0.503933 0.941234
vt 0.494944 0.918925
vt 0.496771 0.918490
vt 0.505102 0.941521
vt 0.496989 0.929364
vt 0.498230 0.918902
vt 0.043531 0.937239
vt 0.048826 0.931956
vt 0.439825 0.507195
vt 0.433599 0.507234
vt 0.434970 0.505656
vt 0.440760 0.506151
vt 0.439147 0.509881
vt 0.448728 0.505123
vt 0.445938 0.509810
vt 0.432055 0.509839
vt 0.427351 0.505195
vt 0.428951 0.503306
vt 0.425773 0.507027
vt 0.430962 0.513173
vt 0.423692 0.509527
vt 0.438110 0.513297
vt 0.438594 0.516955
vt 0.430219 0.516925
vt 0.421578 0.512208
vt 0.418162 0.504210
vt 0.420770 0.502052
vt 0.415064 0.506071
vt 0.414858 0.499147
vt 0.417571 0.497800
vt 0.412036 0.500158
vt 0.415825 0.493597
vt 0.413627 0.494253
vt 0.410823 0.495044
vt 0.412562 0.490175
vt 0.415611 0.489211
vt 0.409956 0.490458
vt 0.408010 0.501006
vt 0.407734 0.495461
vt 0.407619 0.490550
vt 0.405157 0.495187
vt 0.405496 0.490351
vt 0.404684 0.500851
vt 0.402364 0.500162
vt 0.402747 0.494511
vt 0.400827 0.506727
vt 0.398545 0.506176
vt 0.400217 0.499489
vt 0.393903 0.514557
vt 0.396760 0.505625
vt 0.398725 0.499232
vt 0.392518 0.514022
vt 0.395236 0.504995
vt 0.396698 0.498185
vt 0.072532 0.901299
vt 0.078798 0.905511
vt 0.077088 0.907680
vt 0.070749 0.903249
vt 0.087378 0.911819
vt 0.085687 0.913881
vt 0.389711 0.525459
vt 0.389017 0.524352
vt 0.098525 0.919977
vt 0.083748 0.916029
vt 0.075321 0.909596
vt 0.081913 0.918197
vt 0.073593 0.911726
vt 0.079867 0.920938
vt 0.071427 0.914232
vt 0.064618 0.910315
vt 0.067244 0.907493
vt 0.059340 0.908186
vt 0.057921 0.914209
vt 0.062343 0.904447
vt 0.064416 0.902041
vt 0.069089 0.905338
vt 0.066077 0.900123
vt 0.061947 0.898715
vt 0.063267 0.896763
vt 0.060036 0.900955
vt 0.058455 0.897476
vt 0.059708 0.895168
vt 0.061104 0.893070
vt 0.059819 0.890542
vt 0.057877 0.892151
vt 0.056471 0.894178
vt 0.056528 0.897486
vt 0.054704 0.894906
vt 0.056373 0.902778
vt 0.052728 0.892709
vt 0.054262 0.891935
vt 0.054982 0.890149
vt 0.053325 0.897105
vt 0.051698 0.894288
vt 0.050407 0.892962
vt 0.049813 0.890573
vt 0.052093 0.891049
vt 0.053716 0.889773
vt 0.505453 0.892596
vt 0.503118 0.894189
vt 0.504142 0.884682
vt 0.505649 0.883416
vt 0.501362 0.893439
vt 0.502782 0.884367
vt 0.502599 0.905332
vt 0.500866 0.905504
vt 0.499060 0.905914
vt 0.499733 0.916727
vt 0.501496 0.914663
vt 0.496175 0.907305
vt 0.497492 0.906722
vt 0.496710 0.894989
vt 0.499112 0.894962
vt 0.048851 0.892134
vt 0.048623 0.893202
vt 0.501289 0.884157
vt 0.418434 0.492722
vt 0.417446 0.488682
vt 0.412698 0.487221
vt 0.416116 0.487370
vt 0.203300 0.848417
vt 0.205352 0.845987
vt 0.209454 0.847551
vt 0.209217 0.849653
vt 0.208575 0.839166
vt 0.212297 0.843905
vt 0.203047 0.844602
vt 0.203326 0.839638
vt 0.200553 0.844530
vt 0.199531 0.840110
vt 0.196078 0.836270
vt 0.200221 0.834863
vt 0.203798 0.831355
vt 0.192042 0.831612
vt 0.195810 0.830504
vt 0.200568 0.827424
vt 0.195881 0.822440
vt 0.191578 0.824425
vt 0.188135 0.825886
vt 0.444097 0.513666
vt 0.444360 0.518432
vt 0.187157 0.817348
vt 0.191431 0.815421
vt 0.197138 0.812045
vt 0.200385 0.816549
vt 0.184016 0.819012
vt 0.180817 0.820850
vt 0.184993 0.827475
vt 0.188900 0.833271
vt 0.192423 0.837779
vt 0.196329 0.840537
vt 0.198523 0.844408
vt 0.196546 0.843960
vt 0.196335 0.843215
vt 0.195461 0.843864
vt 0.196279 0.844784
vt 0.410424 0.487754
vt 0.408152 0.486989
vt 0.409283 0.484504
vt 0.411627 0.484844
vt 0.406063 0.486294
vt 0.407300 0.483133
vt 0.404665 0.483446
vt 0.403841 0.486220
vt 0.403372 0.490202
vt 0.054613 0.887824
vt 0.057139 0.889647
vt 0.407820 0.478993
vt 0.404380 0.480561
vt 0.058940 0.887925
vt 0.401703 0.483163
vt 0.402458 0.479159
vt 0.059080 0.885131
vt 0.061942 0.888481
vt 0.062731 0.892131
vt 0.064257 0.890282
vt 0.063768 0.887593
vt 0.060933 0.883486
vt 0.062225 0.885076
vt 0.063509 0.884553
vt 0.064392 0.883358
vt 0.065215 0.887104
vt 0.065409 0.889400
vt 0.065997 0.893346
vt 0.064691 0.895115
vt 0.066870 0.891826
vt 0.068659 0.896107
vt 0.069831 0.895163
vt 0.067475 0.898119
vt 0.400519 0.493678
vt 0.401528 0.490001
vt 0.401534 0.486088
vt 0.399431 0.493342
vt 0.073051 0.899419
vt 0.400531 0.477962
vt 0.399995 0.480198
vt 0.419423 0.497372
vt 0.421923 0.495230
vt 0.420122 0.490828
vt 0.422868 0.501199
vt 0.425148 0.498964
vt 0.056290 0.920196
vt 0.052597 0.926531
vt 0.107055 0.925335
vt 0.099517 0.919133
vt 0.108174 0.924182
vt 0.383990 0.540876
vt 0.380879 0.540564
vt 0.384088 0.535342
vt 0.385970 0.535495
vt 0.387565 0.535213
vt 0.385555 0.541188
vt 0.383582 0.545553
vt 0.376346 0.544578
vt 0.159014 0.822418
vt 0.122829 0.813443
vt 0.077227 0.243890
vt 0.070264 0.239269
vt 0.076835 0.242358
vt 0.904684 0.259890
s 1
usemtl abyss_chancel_background_pbr
f 2/1/1 6/2/2 5/3/3 1/4/4
f 1/4/4 3/5/5 71/6/6 2/1/1
f 4/7/7 74/8/8 3/5/5 1/4/4
f 4/7/7 1/4/4 5/3/3 7/9/9
f 5/3/3 6/2/2 11/10/10 8/11/11
f 8/11/11 9/12/12 7/9/9 5/3/3
f 10/13/13 127/14/14 9/12/12 8/11/11
f 10/13/13 8/11/11 11/10/10 12/15/15
f 6/2/2 14/16/16 13/17/17 11/10/10
f 11/10/10 13/17/17 15/18/18 12/15/15
f 18/19/19 16/20/20 13/17/17 14/16/16
f 16/20/20 17/21/21 15/18/18 13/17/17
f 16/20/20 19/22/22 22/23/23 17/21/21
f 21/24/24 19/22/22 16/20/20 18/19/19
f 21/24/24 63/25/25 20/26/26 19/22/22
f 22/23/23 19/22/22 20/26/26 23/27/27
f 52/28/28 24/29/29 22/30/23 23/31/27
f 27/32/30 17/33/21 22/30/23 25/34/31
f 26/35/32 25/34/31 22/30/23 24/29/29
f 25/34/31 26/35/32 30/36/33 28/37/34
f 28/37/34 31/38/35 27/32/30 25/34/31
f 28/37/34 29/39/36 33/40/37 31/38/35
f 29/39/36 28/37/34 30/36/33 46/41/38
f 32/42/39 135/43/40 27/44/30 31/45/35
f 32/46/39 31/38/35 33/40/37 34/47/41
f 33/40/37 35/48/42 36/49/43 34/47/41
f 29/39/36 37/50/44 35/48/42 33/40/37
f 38/51/45 40/52/46 36/49/43 35/48/42
f 41/53/47 38/51/45 35/48/42 37/50/44
f 41/54/47 42/55/48 39/56/49 38/57/45
f 40/58/46 38/57/45 39/56/49 206/59/50
f 41/53/47 43/60/51 20/61/26 42/62/48
f 43/60/51 41/53/47 37/50/44 45/63/52
f 44/64/53 43/60/51 45/63/52 47/65/54
f 44/66/53 49/67/55 20/26/26 43/68/51
f 48/69/56 47/65/54 45/63/52 46/41/38
f 46/41/38 45/63/52 37/50/44 29/39/36
f 24/29/29 44/64/53 47/65/54 26/35/32
f 30/36/33 26/35/32 47/65/54 48/69/56
f 30/36/33 48/69/56 46/41/38
f 24/29/29 52/28/28 49/70/55 44/64/53
f 57/71/57 50/72/58 49/67/55 51/73/59
f 50/72/58 23/27/27 20/26/26 49/67/55
f 53/74/60 51/73/59 49/67/55 52/75/28
f 23/31/27 50/76/58 53/77/60 52/28/28
f 57/78/57 54/79/61 53/77/60 50/76/58
f 55/80/62 51/73/59 53/74/60 54/81/61
f 56/82/63 60/83/64 55/84/62 54/79/61
f 54/79/61 57/78/57 58/85/65 56/82/63
f 57/71/57 51/73/59 55/80/62 58/86/65
f 59/87/66 58/86/65 55/80/62 60/88/64
f 58/86/65 59/87/66 60/88/64 56/89/63
f 61/90/67 42/91/48 20/26/26 63/25/25
f 61/90/67 62/92/68 39/93/49 42/91/48
f 67/94/69 62/92/68 61/90/67 64/95/70
f 66/96/71 64/95/70 61/90/67 63/25/25
f 65/97/72 69/98/73 67/99/69 64/100/70
f 64/95/70 66/96/71 511/101/74 65/102/72
f 67/99/69 68/103/75 207/104/76 62/105/68
f 67/99/69 69/98/73 7/106/9 68/103/75
f 7/9/9 69/107/73 70/108/77 4/7/7
f 69/109/73 65/102/72 71/6/6 70/110/77
f 72/111/78 70/110/77 71/6/6 3/5/5
f 4/7/7 70/108/77 72/112/78 74/8/8
f 72/113/78 3/114/5 7/106/9 9/115/12
f 76/116/79 74/117/8 72/118/78 73/119/80
f 102/120/81 73/119/80 72/118/78 9/121/12
f 75/122/82 100/123/83 3/124/5 74/117/8
f 74/117/8 76/116/79 78/125/84 75/122/82
f 73/119/80 108/126/85 77/127/86 76/116/79
f 77/127/86 80/128/87 78/125/84 76/116/79
f 82/129/88 79/130/89 78/131/84 80/132/87
f 78/125/84 79/133/89 98/134/90 75/122/82
f 106/135/91 81/136/92 80/132/87 77/137/86
f 84/138/93 82/129/88 80/132/87 81/136/92
f 79/130/89 82/129/88 83/139/94 96/140/95
f 84/138/93 85/141/96 83/139/94 82/129/88
f 84/138/93 86/142/97 89/143/98 85/141/96
f 86/142/97 84/138/93 81/136/92 88/144/99
f 87/145/100 86/142/97 88/144/99 101/146/101
f 87/145/100 91/147/102 89/143/98 86/142/97
f 89/143/98 90/148/103 510/149/104 85/141/96
f 91/147/102 93/150/105 90/148/103 89/143/98
f 99/151/106 92/152/107 91/153/102 87/154/100
f 95/155/108 93/156/105 91/153/102 92/152/107
f 94/157/109 510/149/104 90/148/103 93/150/105
f 94/157/109 93/150/105 95/158/108
f 96/140/95 83/139/94 94/157/109 95/158/108
f 97/159/110 96/160/95 95/155/108 92/152/107
f 79/133/89 96/160/95 97/159/110 98/134/90
f 98/134/90 97/159/110 92/152/107 99/151/106
f 100/123/83 75/122/82 98/134/90 99/151/106
f 101/161/101 100/123/83 99/151/106 87/154/100
f 101/146/101 102/162/81 3/163/5 100/164/83
f 102/162/81 101/146/101 88/144/99 104/165/111
f 103/166/112 509/167/113 3/114/5 102/168/81
f 103/169/112 102/170/81 9/12/12 127/14/14
f 105/171/114 73/172/80 102/162/81 104/165/111
f 105/173/114 104/174/111 106/175/91 107/176/115
f 104/165/111 88/144/99 81/136/92 106/135/91
f 108/126/85 107/176/115 106/175/91 77/127/86
f 110/177/116 109/178/117 107/176/115 108/126/85
f 112/179/118 105/171/114 107/180/115 109/181/117
f 110/177/116 117/182/119 111/183/120 109/178/117
f 112/184/118 109/185/117 111/186/120 114/187/121
f 112/179/118 113/188/122 73/172/80 105/171/114
f 112/184/118 114/187/121 116/189/123 113/190/122
f 116/189/123 114/187/121 115/191/124 118/192/125
f 114/187/121 111/186/120 275/193/126 115/191/124
f 113/194/122 116/195/123 117/182/119 110/177/116
f 118/196/125 120/197/127 117/182/119 116/195/123
f 119/198/128 118/192/125 115/191/124 508/199/129
f 201/200/130 121/201/131 118/192/125 119/198/128
f 191/202/132 120/197/127 118/196/125 122/203/133
f 124/204/134 123/205/135 118/192/125 121/201/131
f 125/206/136 122/207/133 118/208/125 123/209/135
f 103/166/112 123/205/135 124/204/134 509/167/113
f 125/206/136 123/209/135 126/210/137 128/211/138
f 103/169/112 127/14/14 126/210/137 123/209/135
f 127/14/14 10/13/13 129/212/139 126/210/137
f 128/211/138 126/210/137 129/212/139 130/213/140
f 10/13/13 12/15/15 131/214/141 129/212/139
f 129/212/139 131/214/141 132/215/142 130/213/140
f 15/18/18 133/216/143 131/214/141 12/15/15
f 133/216/143 134/217/144 132/215/142 131/214/141
f 27/44/30 133/216/143 15/18/18 17/21/21
f 134/217/144 133/216/143 27/44/30 135/43/40
f 134/217/144 135/43/40 137/218/145 136/219/146
f 132/215/142 134/217/144 136/219/146 138/220/147
f 139/221/148 136/219/146 137/218/145 142/222/149
f 141/223/150 138/220/147 136/219/146 139/221/148
f 139/221/148 140/224/151 185/225/152 141/223/150
f 140/224/151 139/221/148 142/222/149 145/226/153
f 142/222/149 137/218/145 223/227/154 143/228/155
f 142/222/149 143/228/155 505/229/156 144/230/157
f 146/231/158 145/226/153 142/222/149 144/230/157
f 145/226/153 147/232/159 149/233/160 140/224/151
f 147/232/159 145/226/153 146/231/158 148/234/161
f 148/234/161 152/235/162 150/236/163 147/232/159
f 147/232/159 150/236/163 153/237/164 149/233/160
f 152/235/162 376/238/165 151/239/166 150/236/163
f 151/239/166 154/240/167 153/237/164 150/236/163
f 158/241/168 155/242/169 153/237/164 154/240/167
f 153/237/164 155/242/169 156/243/170 149/233/160
f 157/244/171 184/245/172 156/243/170 155/242/169
f 158/241/168 160/246/173 157/244/171 155/242/169
f 154/240/167 373/247/174 159/248/175 158/241/168
f 160/246/173 158/241/168 159/248/175 161/249/176
f 160/246/173 161/249/176 163/250/177 162/251/178
f 157/244/171 160/246/173 162/251/178 165/252/179
f 164/253/180 162/251/178 163/250/177 446/254/181
f 167/255/182 165/252/179 162/251/178 164/253/180
f 184/245/172 157/244/171 165/252/179 166/256/183
f 168/257/184 166/256/183 165/252/179 167/255/182
f 164/258/180 172/259/185 169/260/186 167/261/182
f 168/257/184 167/255/182 169/262/186 173/263/187
f 449/264/188 170/265/189 169/260/186 172/259/185
f 244/266/190 171/267/191 169/260/186 170/265/189
f 174/268/192 173/263/187 169/262/186 171/269/191
f 177/270/193 175/271/194 173/263/187 174/268/192
f 173/263/187 175/271/194 178/272/195 168/257/184
f 176/273/196 179/274/197 178/272/195 175/271/194
f 175/271/194 177/270/193 192/275/198 176/273/196
f 178/272/195 179/274/197 181/276/199 180/277/200
f 178/272/195 180/277/200 166/256/183 168/257/184
f 182/278/201 180/277/200 181/276/199 183/279/202
f 166/256/183 180/277/200 182/278/201 184/245/172
f 141/223/150 185/225/152 182/278/201 183/279/202
f 156/243/170 184/245/172 182/278/201 185/225/152
f 140/224/151 149/233/160 156/243/170 185/225/152
f 138/220/147 141/223/150 183/279/202 186/280/203
f 186/280/203 183/279/202 181/276/199 187/281/204
f 186/280/203 130/213/140 132/215/142 138/220/147
f 186/280/203 187/281/204 128/211/138 130/213/140
f 181/276/199 179/274/197 188/282/205 187/281/204
f 188/282/205 125/206/136 128/211/138 187/281/204
f 176/273/196 189/283/206 188/282/205 179/274/197
f 122/207/133 125/206/136 188/282/205 189/283/206
f 122/207/133 189/283/206 190/284/207 191/285/132
f 189/283/206 176/273/196 192/275/198 190/284/207
f 191/285/132 190/284/207 192/275/198 193/286/208
f 192/275/198 194/287/209 196/288/210 193/286/208
f 195/289/211 194/287/209 192/275/198 177/270/193
f 195/289/211 198/290/212 197/291/213 194/287/209
f 196/288/210 194/287/209 197/291/213 200/292/214
f 212/293/215 199/294/216 197/295/213 198/296/212
f 197/295/213 199/294/216 202/297/217 200/298/214
f 201/200/130 119/198/128 196/299/210 200/298/214
f 201/200/130 200/298/214 202/297/217 204/300/218
f 199/294/216 209/301/219 203/302/220 202/297/217
f 204/300/218 202/297/217 203/302/220 206/59/50
f 205/303/221 121/201/131 201/200/130 204/300/218
f 204/300/218 206/59/50 39/56/49 205/303/221
f 206/304/50 203/305/220 208/306/222 40/52/46
f 207/104/76 124/204/134 121/201/131 205/303/221
f 207/104/76 205/303/221 39/56/49 62/105/68
f 68/103/75 509/167/113 124/204/134 207/104/76
f 209/307/219 210/308/223 208/306/222 203/305/220
f 199/309/216 212/310/215 211/311/224 209/307/219
f 210/308/223 209/307/219 211/311/224 214/312/225
f 212/313/215 507/314/226 213/315/227 211/316/224
f 215/317/228 214/312/225 211/311/224 213/318/227
f 210/308/223 214/312/225 216/319/229 219/320/230
f 214/312/225 215/317/228 218/321/231 216/319/229
f 220/322/232 219/320/230 216/319/229 217/323/233
f 217/323/233 216/319/229 218/321/231 224/324/234
f 222/325/235 221/326/236 219/320/230 220/322/232
f 208/306/222 210/308/223 219/320/230 221/326/236
f 36/49/43 40/52/46 208/306/222 221/326/236
f 222/325/235 34/47/41 36/49/43 221/326/236
f 220/322/232 143/327/155 223/328/154 222/325/235
f 223/328/154 32/46/39 34/47/41 222/325/235
f 135/43/40 32/42/39 223/227/154 137/218/145
f 220/322/232 217/323/233 505/329/156 143/327/155
f 228/330/237 225/331/238 218/332/231 215/333/228
f 218/332/231 225/331/238 226/334/239 224/335/234
f 227/336/240 387/337/241 226/334/239 225/331/238
f 225/331/238 228/330/237 229/338/242 227/336/240
f 215/339/228 213/315/227 230/340/243 228/341/237
f 228/330/237 230/342/243 231/343/244 229/338/242
f 232/344/245 234/345/246 231/343/244 230/342/243
f 235/346/247 232/347/245 230/340/243 213/315/227
f 232/347/245 235/346/247 237/348/248 233/349/249
f 232/347/245 233/349/249 318/350/250 234/351/246
f 235/346/247 236/352/251 239/353/252 237/348/248
f 235/346/247 213/315/227 507/314/226 236/352/251
f 317/354/253 233/349/249 237/348/248 238/355/254
f 237/348/248 239/353/252 240/356/255 238/355/254
f 236/352/251 243/357/256 241/358/257 239/353/252
f 241/358/257 242/359/258 240/356/255 239/353/252
f 174/360/192 171/361/191 241/358/257 243/357/256
f 171/361/191 244/362/190 242/359/258 241/358/257
f 177/270/193 174/268/192 243/363/256 195/289/211
f 198/290/212 195/289/211 243/363/256 236/364/251
f 248/365/259 245/366/260 242/359/258 244/362/190
f 245/366/260 246/367/261 240/356/255 242/359/258
f 246/367/261 245/366/260 247/368/262 295/369/263
f 248/370/259 249/371/264 247/372/262 245/373/260
f 263/374/265 249/371/264 248/370/259 250/375/266
f 253/376/267 250/375/266 248/370/259 251/377/268
f 170/265/189 251/378/268 248/379/259 244/266/190
f 170/265/189 449/264/188 252/380/269 251/378/268
f 253/381/267 251/378/268 252/380/269 254/382/270
f 250/375/266 253/376/267 255/383/271 258/384/272
f 255/385/271 253/381/267 254/382/270 256/386/273
f 299/387/274 257/388/275 255/385/271 256/386/273
f 259/389/276 258/384/272 255/383/271 257/390/275
f 261/391/277 260/392/278 258/384/272 259/389/276
f 263/374/265 250/375/266 258/384/272 260/392/278
f 273/393/279 262/394/280 260/392/278 261/391/277
f 264/395/281 263/374/265 260/392/278 262/394/280
f 249/371/264 263/374/265 264/395/281 266/396/282
f 279/397/283 265/398/284 264/395/281 262/394/280
f 267/399/285 266/396/282 264/395/281 265/398/284
f 269/400/286 268/401/287 266/396/282 267/399/285
f 247/372/262 249/371/264 266/396/282 268/401/287
f 272/402/288 270/403/289 268/404/287 269/405/286
f 271/406/290 247/407/262 268/404/287 270/403/289
f 259/389/276 271/406/290 270/403/289 261/391/277
f 273/393/279 261/391/277 270/403/289 272/402/288
f 276/408/291 274/409/292 272/410/288 269/411/286
f 277/412/293 273/413/279 272/410/288 274/409/292
f 275/414/126 278/415/294 277/412/293 274/409/292
f 274/409/292 276/408/291 115/416/124 275/414/126
f 280/417/295 279/418/283 277/412/293 278/415/294
f 262/394/280 273/393/279 277/419/293 279/397/283
f 265/420/284 279/418/283 280/417/295 281/421/296
f 285/422/297 282/423/298 280/417/295 278/415/294
f 283/424/299 281/421/296 280/417/295 282/423/298
f 282/425/298 284/426/300 288/427/301 283/428/299
f 285/429/297 286/430/302 284/426/300 282/425/298
f 285/429/297 287/431/303 288/432/301 286/430/302
f 285/422/297 278/415/294 275/414/126 287/433/303
f 289/434/304 283/428/299 288/427/301 287/435/303
f 289/434/304 287/435/303 275/193/126 111/186/120
f 281/436/296 283/437/299 289/438/304 290/439/305
f 111/183/120 117/182/119 115/440/124 289/438/304
f 290/439/305 289/438/304 115/440/124 276/441/291
f 290/442/305 276/443/291 269/444/286 267/445/285
f 281/421/296 290/442/305 267/445/285 265/420/284
f 292/446/306 286/447/302 288/448/301 291/449/307
f 293/450/308 291/451/307 288/452/301 284/453/300
f 291/451/307 293/450/308 292/454/306
f 292/454/306 293/450/308 284/453/300 286/455/302
f 294/456/309 271/406/290 259/389/276 257/390/275
f 294/456/309 295/457/263 247/407/262 271/406/290
f 295/369/263 294/458/309 296/459/310 297/460/311
f 296/459/310 294/458/309 257/388/275 299/387/274
f 309/461/312 297/460/311 296/459/310 298/462/313
f 300/463/314 298/462/313 296/459/310 299/387/274
f 256/386/273 301/464/315 300/463/314 299/387/274
f 303/465/316 302/466/317 300/463/314 301/464/315
f 305/467/318 298/462/313 300/463/314 302/466/317
f 304/468/319 302/466/317 303/465/316 454/469/320
f 305/467/318 302/466/317 304/468/319 306/470/321
f 298/462/313 305/467/318 307/471/322 309/461/312
f 307/471/322 305/467/318 306/470/321 308/472/323
f 311/473/324 310/474/325 307/471/322 308/472/323
f 312/475/326 309/461/312 307/471/322 310/474/325
f 311/473/324 315/476/327 313/477/328 310/474/325
f 313/477/328 314/478/329 312/475/326 310/474/325
f 316/479/330 317/354/253 314/478/329 313/477/328
f 313/477/328 315/476/327 316/479/330
f 317/354/253 316/479/330 318/350/250 233/349/249
f 315/480/327 319/481/331 318/482/250 316/483/330
f 320/484/332 234/345/246 318/482/250 319/481/331
f 315/480/327 324/485/333 321/486/334 319/481/331
f 320/484/332 319/481/331 321/486/334 322/487/335
f 321/486/334 323/488/336 395/489/337 322/487/335
f 325/490/338 323/488/336 321/486/334 324/485/333
f 326/491/339 327/492/340 325/490/338 324/485/333
f 324/485/333 315/480/327 311/493/324 326/491/339
f 327/492/340 326/491/339 328/494/341 329/495/342
f 328/496/341 326/497/339 311/473/324 308/472/323
f 331/498/343 329/499/342 328/496/341 330/500/344
f 328/496/341 308/472/323 306/470/321 330/500/344
f 330/500/344 332/501/345 334/502/346 331/498/343
f 330/500/344 306/470/321 304/468/319 332/501/345
f 333/503/347 332/501/345 304/468/319 454/469/320
f 332/501/345 333/503/347 335/504/348 334/502/346
f 336/505/349 334/502/346 335/504/348 459/506/350
f 338/507/351 337/508/352 334/502/346 336/505/349
f 339/509/353 331/510/343 334/511/346 337/512/352
f 340/513/354 339/509/353 337/512/352 338/514/351
f 329/515/342 331/510/343 339/509/353 343/516/355
f 426/517/356 342/518/357 339/509/353 340/513/354
f 345/519/358 343/516/355 339/509/353 341/520/359
f 431/521/360 341/520/359 339/509/353 342/518/357
f 329/495/342 343/522/355 344/523/361 327/492/340
f 345/524/358 347/525/362 344/526/361 343/527/355
f 346/528/363 345/524/358 341/529/359 438/530/364
f 345/524/358 346/528/363 349/531/365 347/525/362
f 348/532/366 498/533/367 344/526/361 347/525/362
f 349/531/365 350/534/368 348/532/366 347/525/362
f 349/531/365 351/535/369 354/536/370 350/534/368
f 349/531/365 346/528/363 353/537/371 351/535/369
f 353/537/371 445/538/372 352/539/373 351/535/369
f 352/539/373 355/540/374 354/536/370 351/535/369
f 354/536/370 356/541/375 357/542/376 350/534/368
f 355/540/374 358/543/377 356/541/375 354/536/370
f 359/544/378 360/545/379 357/542/376 356/541/375
f 358/543/377 361/546/380 359/544/378 356/541/375
f 363/547/381 360/545/379 359/544/378 362/548/382
f 365/549/383 362/548/382 359/544/378 361/546/380
f 362/548/382 364/550/384 429/551/385 363/547/381
f 364/550/384 362/548/382 365/549/383 366/552/386
f 370/553/387 367/554/388 365/549/383 361/546/380
f 368/555/389 366/552/386 365/549/383 367/554/388
f 369/556/390 468/557/391 368/555/389 367/554/388
f 370/553/387 371/558/392 369/556/390 367/554/388
f 371/558/392 370/553/387 159/248/175 373/247/174
f 361/546/380 358/543/377 159/248/175 370/553/387
f 371/558/392 372/559/393 489/560/394 369/556/390
f 373/247/174 374/561/395 372/559/393 371/558/392
f 373/247/174 154/240/167 151/239/166 374/561/395
f 375/562/396 374/561/395 151/239/166 376/238/165
f 372/559/393 374/561/395 375/562/396 377/563/397
f 379/564/398 378/565/399 375/562/396 376/238/165
f 380/566/400 377/563/397 375/562/396 378/565/399
f 379/564/398 384/567/401 381/568/402 378/565/399
f 381/568/402 382/569/403 380/566/400 378/565/399
f 382/570/403 381/571/402 383/572/404 400/573/405
f 384/574/401 386/575/406 383/572/404 381/571/402
f 379/564/398 499/576/407 385/577/408 384/567/401
f 386/575/406 384/574/401 385/578/408 387/337/241
f 387/337/241 227/336/240 388/579/409 386/575/406
f 383/572/404 386/575/406 388/579/409 389/580/410
f 388/579/409 227/336/240 229/338/242 390/581/411
f 391/582/412 389/580/410 388/579/409 390/581/411
f 390/581/411 392/583/413 393/584/414 391/582/412
f 229/338/242 231/343/244 392/583/413 390/581/411
f 320/484/332 322/487/335 393/584/414 392/583/413
f 234/345/246 320/484/332 392/583/413 231/343/244
f 395/489/337 394/585/415 393/584/414 322/487/335
f 393/584/414 394/585/415 397/586/416 391/582/412
f 396/587/417 394/585/415 395/489/337 495/588/418
f 396/587/417 398/589/419 397/586/416 394/585/415
f 397/586/416 398/589/419 401/590/420 399/591/421
f 389/580/410 391/582/412 397/586/416 399/591/421
f 399/591/421 400/573/405 383/572/404 389/580/410
f 400/573/405 399/591/421 401/590/420 402/592/422
f 401/590/420 403/593/423 405/594/424 402/592/422
f 398/589/419 404/595/425 403/593/423 401/590/420
f 404/595/425 409/596/426 406/597/427 403/593/423
f 406/597/427 407/598/428 405/594/424 403/593/423
f 474/599/429 407/598/428 406/597/427 408/600/430
f 411/601/431 408/600/430 406/597/427 409/596/426
f 410/602/432 413/603/433 411/601/431 409/596/426
f 409/596/426 404/595/425 493/604/434 410/602/432
f 411/601/431 413/603/433 415/605/435 412/606/436
f 412/606/436 465/607/437 408/600/430 411/601/431
f 413/603/433 410/602/432 429/608/385 414/609/438
f 414/609/438 417/610/439 415/605/435 413/603/433
f 418/611/440 416/612/441 415/605/435 417/610/439
f 415/605/435 416/612/441 463/613/442 412/606/436
f 420/614/443 419/615/444 417/616/439 414/617/438
f 421/618/445 418/619/440 417/616/439 419/615/444
f 425/620/446 422/621/447 419/615/444 420/614/443
f 423/622/448 421/618/445 419/615/444 422/621/447
f 424/623/449 431/521/360 423/622/448 422/621/447
f 426/624/356 424/623/449 422/621/447 425/620/446
f 426/517/356 425/625/446 427/626/450 342/518/357
f 420/627/443 428/628/451 427/626/450 425/625/446
f 428/628/451 421/618/445 423/622/448 427/626/450
f 342/518/357 427/626/450 423/622/448 431/521/360
f 420/629/443 414/609/438 429/608/385 428/630/451
f 421/618/445 428/628/451 429/631/385 418/619/440
f 493/632/434 363/547/381 429/551/385 410/633/432
f 416/634/441 418/635/440 429/551/385 364/550/384
f 340/636/354 430/637/452 424/638/449 426/639/356
f 424/638/449 430/637/452 341/640/359 431/641/360
f 432/642/453 434/643/454 341/640/359 430/637/452
f 430/637/452 340/636/354 338/507/351 432/642/453
f 433/644/455 432/642/453 338/507/351 336/505/349
f 433/644/455 435/645/456 434/643/454 432/642/453
f 435/645/456 437/646/457 436/647/458 434/643/454
f 436/647/458 438/648/364 341/640/359 434/643/454
f 436/647/458 437/646/457 441/649/459 439/650/460
f 438/648/364 436/647/458 439/650/460 442/651/461
f 443/652/462 442/651/461 439/650/460 440/653/463
f 440/653/463 439/650/460 441/649/459 451/654/464
f 445/538/372 353/537/371 442/655/461 443/656/462
f 346/528/363 438/530/364 442/655/461 353/537/371
f 440/653/463 447/657/465 444/658/466 443/652/462
f 443/652/462 444/658/466 446/659/181 445/660/372
f 446/254/181 163/250/177 352/539/373 445/538/372
f 172/259/185 164/258/180 446/659/181 444/658/466
f 449/264/188 172/259/185 444/658/466 447/657/465
f 451/654/464 448/661/467 447/657/465 440/653/463
f 252/380/269 449/264/188 447/657/465 448/661/467
f 450/662/468 254/382/270 252/380/269 448/661/467
f 448/661/467 451/654/464 452/663/469 450/662/468
f 451/654/464 441/649/459 453/664/470 452/663/469
f 453/664/470 454/469/320 303/465/316 452/663/469
f 450/662/468 452/663/469 303/465/316 301/464/315
f 333/503/347 454/469/320 453/664/470 455/665/471
f 437/646/457 455/665/471 453/664/470 441/649/459
f 455/665/471 456/666/472 335/504/348 333/503/347
f 437/646/457 435/645/456 456/666/472 455/665/471
f 458/667/473 460/668/474 457/669/475 456/666/472
f 456/666/472 457/669/475 462/670/476 335/504/348
f 433/644/455 458/667/473 456/666/472 435/645/456
f 459/506/350 458/667/473 433/644/455 336/505/349
f 458/667/473 459/506/350 461/671/477 460/668/474
f 460/668/474 461/671/477 462/670/476 457/669/475
f 459/506/350 335/504/348 462/670/476 461/671/477
f 301/464/315 256/386/273 254/382/270 450/662/468
f 364/550/384 366/552/386 463/672/442 416/634/441
f 463/672/442 366/552/386 368/555/389 464/673/478
f 465/674/437 412/675/436 463/672/442 464/673/478
f 466/676/479 464/673/478 368/555/389 468/557/391
f 465/674/437 464/673/478 466/676/479 469/677/480
f 470/678/481 469/677/480 466/676/479 467/679/482
f 488/680/483 467/679/482 466/676/479 468/557/391
f 465/607/437 469/681/480 471/682/484 408/600/430
f 471/683/484 469/677/480 470/678/481 472/684/485
f 474/599/429 408/600/430 471/682/484 472/685/485
f 472/684/485 470/678/481 480/686/486 473/687/487
f 472/685/485 473/688/487 475/689/488 474/599/429
f 407/598/428 474/599/429 475/689/488 476/690/489
f 481/691/490 476/690/489 475/689/488 478/692/491
f 492/693/492 477/694/493 475/689/488 473/688/487
f 479/695/494 478/692/491 475/689/488 477/694/493
f 479/695/494 491/696/495 480/697/486 478/692/491
f 481/691/490 478/692/491 480/697/486 482/698/496
f 476/690/489 481/691/490 483/699/497 485/700/498
f 481/691/490 482/698/496 486/701/499 483/699/497
f 484/702/500 483/699/497 486/701/499 487/703/501
f 483/699/497 484/702/500 490/704/502 485/700/498
f 487/705/501 486/706/499 488/680/483 489/560/394
f 482/707/496 467/679/482 488/680/483 486/706/499
f 369/556/390 489/560/394 488/680/483 468/557/391
f 377/563/397 487/705/501 489/560/394 372/559/393
f 487/705/501 377/563/397 380/566/400 484/708/500
f 476/690/489 485/700/498 405/594/424 407/598/428
f 405/594/424 485/700/498 490/704/502 402/592/422
f 490/704/502 484/702/500 380/709/400 382/570/403
f 400/573/405 402/592/422 490/704/502 382/570/403
f 467/679/482 482/707/496 480/686/486 470/678/481
f 492/710/492 473/687/487 480/686/486 491/711/495
f 479/695/494 477/694/493 492/693/492 491/696/495
f 360/545/379 363/547/381 493/632/434 494/712/503
f 495/713/418 494/712/503 493/632/434 396/714/417
f 398/589/419 396/587/417 493/604/434 404/595/425
f 360/545/379 494/712/503 496/715/504 357/542/376
f 495/713/418 497/716/505 496/715/504 494/712/503
f 357/542/376 496/715/504 348/532/366 350/534/368
f 497/716/505 498/533/367 348/532/366 496/715/504
f 497/717/505 495/588/418 395/489/337 323/488/336
f 497/717/505 323/488/336 325/490/338 498/718/367
f 344/523/361 498/718/367 325/490/338 327/492/340
f 226/334/239 387/337/241 385/578/408 500/719/506
f 385/578/408 499/720/407 502/721/507 500/719/506
f 501/722/508 224/723/234 226/724/239 500/725/506
f 501/722/508 500/725/506 502/726/507 503/727/509
f 502/726/507 148/234/161 146/231/158 503/727/509
f 152/235/162 148/234/161 502/726/507 499/576/407
f 503/727/509 504/728/510 505/229/156 501/722/508
f 504/728/510 503/727/509 146/231/158 144/230/157
f 505/229/156 504/728/510 144/230/157
f 224/723/234 501/722/508 505/229/156 217/729/233
f 499/576/407 379/564/398 376/238/165 152/235/162
f 355/540/374 161/249/176 159/248/175 358/543/377
f 161/249/176 355/540/374 352/539/373 163/250/177
f 238/355/254 314/478/329 317/354/253
f 238/355/254 506/730/511 312/475/326 314/478/329
f 297/460/311 309/461/312 312/475/326 506/730/511
f 240/356/255 246/367/261 506/730/511 238/355/254
f 295/369/263 297/460/311 506/730/511 246/367/261
f 198/731/212 236/352/251 507/314/226 212/313/215
f 508/199/129 193/732/208 196/299/210 119/198/128
f 120/733/127 191/734/132 193/732/208 508/199/129
f 120/197/127 508/735/129 115/440/124 117/182/119
f 68/103/75 7/106/9 3/114/5 509/167/113
f 110/177/116 108/126/85 73/119/80 113/194/122
f 85/141/96 510/149/104 94/157/109 83/139/94
f 511/101/74 2/1/1 71/6/6 65/102/72
f 63/25/25 21/24/24 511/101/74 66/96/71
f 6/2/2 2/1/1 511/101/74 14/16/16
f 18/19/19 14/16/16 511/101/74 21/24/24
