# Blender 5.2.0 LTS
# www.blender.org
mtllib terrain-abyss-chancel-object-035.mtl
o terrain-abyss-chancel-object-035
v -0.665352 0.183626 0.061937
v -0.665130 0.184970 0.061903
v -0.664634 0.183958 0.060147
v -0.666812 0.183171 0.061194
v -0.666447 0.184006 0.063399
v -0.667443 0.184436 0.064947
v -0.666361 0.185160 0.063181
v -0.667812 0.183355 0.062789
v -0.668984 0.183447 0.062146
v -0.668782 0.183968 0.063794
v -0.669262 0.184641 0.064003
v -0.669747 0.184088 0.062847
v -0.669936 0.184917 0.062972
v -0.670664 0.184194 0.061790
v -0.669919 0.183565 0.061456
v -0.671363 0.184283 0.059933
v -0.670686 0.185183 0.061735
v -0.671536 0.185529 0.059991
v -0.669608 0.186026 0.061222
v -0.668777 0.185677 0.062623
v -0.670288 0.186241 0.059595
v -0.668255 0.186178 0.060507
v -0.667416 0.185804 0.061979
v -0.666833 0.186229 0.059755
v -0.668828 0.186489 0.059059
v -0.667448 0.186392 0.058418
v -0.669251 0.186477 0.057440
v -0.669229 0.185864 0.055788
v -0.670726 0.186313 0.057746
v -0.667993 0.186531 0.057310
v -0.667381 0.186118 0.056384
v -0.666365 0.186385 0.057713
v -0.666915 0.184987 0.055876
v -0.665526 0.185228 0.057012
v -0.667191 0.183991 0.057089
v -0.669147 0.184700 0.055383
v -0.669234 0.183824 0.056575
v -0.671661 0.184637 0.055138
v -0.671489 0.184376 0.056392
v -0.671010 0.185672 0.055988
v -0.672087 0.185473 0.056432
v -0.671958 0.185668 0.057937
v -0.671461 0.184112 0.057964
v -0.669507 0.183678 0.058120
v -0.667556 0.183342 0.058587
v -0.669730 0.183613 0.059864
v -0.668182 0.183295 0.060476
v -0.666044 0.183485 0.059387
v -0.665613 0.184131 0.057837
v -0.664378 0.184673 0.058713
v -0.664806 0.185574 0.059829
v -0.664626 0.185520 0.057942
v -0.665583 0.186017 0.058918
v -0.663906 0.185124 0.060671
v -0.666017 0.185791 0.061100
v -0.667924 0.185149 0.063935
vn 0.6090 -0.6843 0.4010
vn 0.7310 0.3919 0.5586
vn 0.5407 0.6340 0.5529
vn 0.5692 -0.4689 0.6754
vn 0.7658 -0.6428 -0.0184
vn 0.9212 0.2906 0.2587
vn 0.1282 -0.9895 0.0670
vn 0.2832 -0.9424 -0.1779
vn -0.0234 -0.9580 0.2857
vn 0.2232 -0.1762 0.9587
vn -0.4059 -0.6251 0.6667
vn 0.0088 0.7211 0.6928
vn -0.2651 -0.9459 0.1871
vn -0.0915 -0.9953 -0.0323
vn -0.6275 -0.6130 0.4801
vn -0.6200 0.2523 0.7430
vn -0.7062 0.3408 0.6206
vn -0.7596 0.4184 0.4979
vn -0.7621 -0.5172 0.3894
vn -0.3669 -0.9212 0.1299
vn -0.7903 -0.5881 0.1723
vn -0.2727 -0.9620 -0.0110
vn -0.8525 0.4274 0.3010
vn -0.2316 0.9227 0.3083
vn -0.2775 0.9424 0.1868
vn -0.1552 0.9090 0.3869
vn 0.1427 0.9483 0.2834
vn 0.0361 0.9802 0.1945
vn -0.0199 0.9944 0.1038
vn 0.2737 0.9264 0.2587
vn 0.1642 0.9740 0.1562
vn 0.1012 0.9939 0.0438
vn 0.0361 0.9850 -0.1685
vn -0.0790 0.9833 -0.1637
vn -0.2848 0.9554 -0.0779
vn 0.0031 0.7200 -0.6940
vn -0.3622 0.7374 -0.5702
vn 0.2379 0.7670 -0.5958
vn 0.3265 0.9126 -0.2460
vn 0.6914 0.0806 -0.7179
vn 0.4486 -0.1281 -0.8845
vn 0.1103 -0.2879 -0.9513
vn 0.4825 -0.7425 -0.4647
vn 0.2498 -0.8530 -0.4583
vn -0.0009 -0.9315 -0.3637
vn -0.6489 -0.6985 -0.3016
vn -0.4698 -0.2185 -0.8553
vn -0.9122 0.3471 -0.2178
vn -0.9051 0.4233 0.0398
vn -0.6705 -0.7419 0.0050
vn -0.1625 -0.9799 -0.1159
vn 0.0477 -0.9803 -0.1914
vn 0.9178 -0.2181 -0.3317
vn 0.8225 0.3788 -0.4242
vn 0.6770 0.7318 0.0787
vn 0.4336 0.9011 0.0079
vt 0.456345 0.978220
vt 0.456278 0.977182
vt 0.457211 0.977403
vt 0.457210 0.978071
vt 0.186268 0.977032
vt 0.186522 0.977883
vt 0.185480 0.977861
vt 0.185534 0.977102
vt 0.457079 0.979254
vt 0.456497 0.980016
vt 0.455873 0.979349
vt 0.457786 0.978729
vt 0.457969 0.977844
vt 0.458420 0.978378
vt 0.458273 0.977445
vt 0.458365 0.979109
vt 0.457781 0.979810
vt 0.458857 0.978684
vt 0.458678 0.978052
vt 0.459105 0.978287
vt 0.459620 0.978693
vt 0.459249 0.979092
vt 0.458811 0.979405
vt 0.459684 0.979855
vt 0.458711 0.980165
vt 0.460237 0.979413
vt 0.459764 0.977800
vt 0.460427 0.978505
vt 0.459045 0.977427
vt 0.458445 0.976657
vt 0.459557 0.976844
vt 0.184363 0.980252
vt 0.184940 0.980813
vt 0.184512 0.981446
vt 0.183920 0.980843
vt 0.184513 0.979005
vt 0.184922 0.979623
vt 0.183958 0.979587
vt 0.185361 0.980170
vt 0.185756 0.980593
vt 0.185639 0.981222
vt 0.185423 0.982037
vt 0.186489 0.981152
vt 0.186325 0.981972
vt 0.186304 0.980359
vt 0.185841 0.979771
vt 0.186574 0.979434
vt 0.186943 0.980149
vt 0.187350 0.981035
vt 0.187056 0.979039
vt 0.187758 0.979803
vt 0.188275 0.981133
vt 0.187273 0.982350
vt 0.186918 0.982043
vt 0.186294 0.982544
vt 0.185592 0.983100
vt 0.186873 0.983112
vt 0.459777 0.980930
vt 0.460507 0.980516
vt 0.184369 0.982179
vt 0.458597 0.981780
vt 0.458567 0.981003
vt 0.459976 0.981703
vt 0.457263 0.981585
vt 0.457257 0.980712
vt 0.187533 0.978433
vt 0.188181 0.979106
vt 0.186278 0.978502
vt 0.186169 0.978973
vt 0.185306 0.978486
vt 0.185509 0.979136
vt 0.457129 0.976700
vt 0.455948 0.976732
vt 0.456593 0.976393
s 1
usemtl abyss_chancel_background_pbr
f 1/1/1 2/2/2 7/3/3 5/4/4
f 1/5/1 3/6/5 54/7/6 2/8/2
f 1/1/1 4/9/7 48/10/8 3/11/5
f 5/4/4 8/12/9 4/9/7 1/1/1
f 8/12/9 5/4/4 6/13/10 10/14/11
f 7/3/3 56/15/12 6/13/10 5/4/4
f 9/16/13 47/17/14 4/9/7 8/12/9
f 10/14/11 12/18/15 9/16/13 8/12/9
f 12/18/15 10/14/11 11/19/16 13/20/17
f 11/19/16 10/14/11 6/13/10 56/15/12
f 12/18/15 13/20/17 17/21/18 14/22/19
f 12/18/15 14/22/19 15/23/20 9/16/13
f 16/24/21 46/25/22 15/23/20 14/22/19
f 16/24/21 14/22/19 17/21/18 18/26/23
f 17/21/18 19/27/24 21/28/25 18/26/23
f 13/20/17 20/29/26 19/27/24 17/21/18
f 20/29/26 23/30/27 22/31/28 19/27/24
f 22/32/28 25/33/29 21/34/25 19/35/24
f 55/36/30 24/37/31 22/32/28 23/38/27
f 26/39/32 25/33/29 22/32/28 24/37/31
f 25/33/29 26/39/32 30/40/33 27/41/34
f 25/33/29 27/41/34 29/42/35 21/34/25
f 28/43/36 40/44/37 29/42/35 27/41/34
f 28/43/36 27/41/34 30/40/33 31/45/38
f 32/46/39 31/45/38 30/40/33 26/39/32
f 32/46/39 34/47/40 33/48/41 31/45/38
f 28/43/36 31/45/38 33/48/41 36/49/42
f 34/47/40 49/50/43 35/51/44 33/48/41
f 36/49/42 33/48/41 35/51/44 37/52/45
f 37/52/45 39/53/46 38/54/47 36/49/42
f 28/43/36 36/49/42 38/54/47 40/44/37
f 41/55/48 40/44/37 38/54/47 39/53/46
f 29/42/35 40/44/37 41/55/48 42/56/49
f 43/57/50 42/56/49 41/55/48 39/53/46
f 43/58/50 16/24/21 18/26/23 42/59/49
f 18/60/23 21/34/25 29/42/35 42/56/49
f 37/61/45 44/62/51 43/58/50 39/63/46
f 46/25/22 16/24/21 43/58/50 44/62/51
f 35/64/44 45/65/52 44/62/51 37/61/45
f 47/17/14 46/25/22 44/62/51 45/65/52
f 47/17/14 9/16/13 15/23/20 46/25/22
f 47/17/14 45/65/52 48/10/8 4/9/7
f 48/66/8 45/67/52 35/51/44 49/50/43
f 50/68/53 3/6/5 48/66/8 49/50/43
f 49/50/43 34/47/40 52/69/54 50/68/53
f 51/70/55 50/68/53 52/69/54 53/71/56
f 50/68/53 51/70/55 54/7/6 3/6/5
f 32/46/39 53/71/56 52/69/54 34/47/40
f 51/70/55 53/71/56 24/37/31 55/36/30
f 32/46/39 26/39/32 24/37/31 53/71/56
f 55/72/30 2/2/2 54/73/6 51/74/55
f 2/2/2 55/72/30 23/30/27 7/3/3
f 56/15/12 7/3/3 23/30/27 20/29/26
f 20/29/26 13/20/17 11/19/16 56/15/12
