# Blender 5.2.0 LTS
# www.blender.org
mtllib terrain-abyss-chancel-object-064.mtl
o terrain-abyss-chancel-object-064
v -0.162148 0.856545 0.040963
v -0.162719 0.856309 0.042179
v -0.163142 0.857324 0.041570
v -0.162171 0.856966 0.039998
v -0.163338 0.855710 0.040520
v -0.163262 0.855800 0.039388
v -0.165057 0.855447 0.040269
v -0.163535 0.855699 0.041918
v -0.163757 0.855683 0.043026
v -0.165051 0.855500 0.041711
v -0.164872 0.855612 0.043099
v -0.166566 0.855475 0.041581
v -0.166700 0.855635 0.040136
v -0.166978 0.857013 0.041378
v -0.166196 0.855726 0.043033
v -0.165671 0.855883 0.044115
v -0.166369 0.856996 0.042707
v -0.165110 0.857793 0.041640
v -0.165448 0.856925 0.043449
v -0.164601 0.856903 0.043947
v -0.164353 0.857630 0.042550
v -0.163650 0.856958 0.043196
v -0.162769 0.857063 0.042406
v -0.163616 0.856277 0.043235
v -0.164635 0.856134 0.043879
v -0.165752 0.857796 0.040613
v -0.163687 0.857594 0.040710
v -0.164409 0.857821 0.039807
v -0.163080 0.857345 0.039036
v -0.165329 0.857738 0.038478
v -0.164305 0.857451 0.037981
v -0.166309 0.857283 0.037006
v -0.166503 0.857645 0.039214
v -0.167093 0.857081 0.037624
v -0.167340 0.857015 0.039915
v -0.167679 0.857004 0.038550
v -0.166498 0.855795 0.038635
v -0.166067 0.856017 0.037403
v -0.164928 0.855500 0.038923
v -0.164663 0.855851 0.037836
v -0.163268 0.855946 0.038311
v -0.164298 0.856889 0.036847
v -0.163346 0.856295 0.037288
v -0.165371 0.857114 0.036732
vn 0.8713 -0.3173 0.3744
vn 0.3894 -0.9127 0.1242
vn 0.4151 -0.9093 -0.0297
vn 0.9914 -0.0938 0.0910
vn 0.5205 0.8342 0.1822
vn 0.7202 0.5191 0.4603
vn 0.9538 0.2543 -0.1598
vn 0.3099 0.9490 0.0584
vn 0.5610 -0.7895 -0.2489
vn 0.0287 -0.9989 -0.0376
vn 0.0277 -0.9879 -0.1526
vn 0.0356 -0.9983 0.0451
vn 0.3832 -0.8450 0.3731
vn 0.1078 -0.9514 0.2884
vn 0.6216 -0.3703 0.6903
vn -0.6242 -0.6063 0.4928
vn -0.6119 -0.7704 0.1788
vn -0.5927 -0.8052 0.0172
vn -0.8800 0.3945 0.2646
vn -0.9522 0.2876 0.1034
vn -0.7287 0.5169 0.4492
vn 0.2247 -0.3620 0.9047
vn -0.3706 -0.3739 0.8502
vn -0.3615 0.6561 0.6625
vn -0.0973 0.9771 0.1893
vn -0.2272 0.9688 0.0987
vn 0.0872 0.9460 0.3123
vn 0.1782 0.5094 0.8419
vn 0.5222 0.5028 0.6889
vn 0.1459 0.9882 -0.0466
vn 0.7004 0.6442 -0.3073
vn 0.3876 0.8589 -0.3347
vn -0.0128 0.9818 -0.1896
vn -0.3291 0.9439 -0.0250
vn 0.0565 0.2781 -0.9589
vn -0.3813 0.4884 -0.7849
vn -0.7729 0.2626 -0.5777
vn -0.9723 0.1507 -0.1787
vn -0.4827 -0.8516 -0.2045
vn -0.3013 -0.7231 -0.6216
vn 0.0524 -0.8840 -0.4645
vn 0.6614 -0.5288 -0.5319
vn 0.4158 0.0766 -0.9062
vn 0.5963 -0.1572 -0.7873
vt 0.079385 0.981967
vt 0.079469 0.981463
vt 0.080156 0.981455
vt 0.079990 0.982160
vt 0.621978 0.981160
vt 0.622656 0.981237
vt 0.622562 0.981675
vt 0.622215 0.981818
vt 0.622053 0.980599
vt 0.622872 0.980770
vt 0.080740 0.981396
vt 0.080538 0.982179
vt 0.080146 0.980610
vt 0.080802 0.980560
vt 0.079441 0.980725
vt 0.078921 0.981444
vt 0.078790 0.980873
vt 0.078728 0.981722
vt 0.078686 0.980150
vt 0.079397 0.979982
vt 0.080086 0.979791
vt 0.079277 0.979204
vt 0.080059 0.979080
vt 0.078611 0.979472
vt 0.078417 0.981149
vt 0.078242 0.980545
vt 0.624413 0.981488
vt 0.624668 0.982052
vt 0.624188 0.982417
vt 0.623956 0.981912
vt 0.623637 0.981053
vt 0.623846 0.980509
vt 0.624600 0.980799
vt 0.623340 0.981557
vt 0.623504 0.982608
vt 0.623554 0.982240
vt 0.623022 0.982004
vt 0.622865 0.982298
vt 0.623123 0.980251
vt 0.622395 0.979989
vt 0.622803 0.979323
vt 0.623397 0.979540
vt 0.624092 0.979772
vt 0.623208 0.978640
vt 0.623685 0.978776
vt 0.624277 0.978963
vt 0.624727 0.979393
vt 0.624628 0.980074
vt 0.080823 0.978951
vt 0.080813 0.979768
vt 0.081446 0.979822
vt 0.081374 0.979064
vt 0.081359 0.980601
vt 0.081297 0.981388
vt 0.082029 0.980579
vt 0.081782 0.981212
vt 0.082079 0.979938
vt 0.621994 0.978769
vt 0.622605 0.978522
vt 0.081865 0.979357
vt 0.621821 0.979531
vt 0.621507 0.980006
s 1
usemtl abyss_chancel_background_pbr
f 2/1/1 8/2/2 5/3/3 1/4/4
f 1/5/4 3/6/5 23/7/6 2/8/1
f 3/6/5 1/5/4 4/9/7 27/10/8
f 5/3/3 6/11/9 4/12/7 1/4/4
f 7/13/10 39/14/11 6/11/9 5/3/3
f 8/2/2 10/15/12 7/13/10 5/3/3
f 10/15/12 8/2/2 9/16/13 11/17/14
f 2/1/1 24/18/15 9/16/13 8/2/2
f 11/17/14 15/19/16 12/20/17 10/15/12
f 12/20/17 13/21/18 7/13/10 10/15/12
f 12/20/17 14/22/19 35/23/20 13/21/18
f 15/19/16 17/24/21 14/22/19 12/20/17
f 11/17/14 25/25/22 16/26/23 15/19/16
f 17/27/21 15/28/16 16/29/23 19/30/24
f 17/27/21 18/31/25 26/32/26 14/33/19
f 19/30/24 21/34/27 18/31/25 17/27/21
f 16/29/23 25/35/22 20/36/28 19/30/24
f 21/34/27 19/30/24 20/36/28 22/37/29
f 21/34/27 3/6/5 27/10/8 18/31/25
f 21/34/27 22/37/29 23/7/6 3/6/5
f 24/38/15 2/8/1 23/7/6 22/37/29
f 24/38/15 22/37/29 20/36/28 25/35/22
f 25/25/22 11/17/14 9/16/13 24/18/15
f 27/10/8 28/39/30 26/32/26 18/31/25
f 4/9/7 29/40/31 28/39/30 27/10/8
f 31/41/32 30/42/33 28/39/30 29/40/31
f 30/42/33 33/43/34 26/32/26 28/39/30
f 31/41/32 44/44/35 32/45/36 30/42/33
f 33/43/34 30/42/33 32/45/36 34/46/37
f 33/43/34 34/46/37 36/47/38 35/48/20
f 26/32/26 33/43/34 35/48/20 14/33/19
f 13/21/18 35/23/20 36/49/38 37/50/39
f 38/51/40 37/50/39 36/49/38 34/52/37
f 38/51/40 40/53/41 39/14/11 37/50/39
f 13/21/18 37/50/39 39/14/11 7/13/10
f 40/53/41 41/54/42 6/11/9 39/14/11
f 40/53/41 42/55/43 43/56/44 41/54/42
f 38/51/40 44/57/35 42/55/43 40/53/41
f 44/44/35 31/41/32 43/58/44 42/59/43
f 38/51/40 34/52/37 32/60/36 44/57/35
f 29/40/31 41/61/42 43/58/44 31/41/32
f 41/61/42 29/40/31 4/9/7 6/62/9
