# Blender 5.2.0 LTS
# www.blender.org
mtllib terrain-abyss-chancel-object-057.mtl
o terrain-abyss-chancel-object-057
v -0.245868 0.869851 0.039322
v -0.244552 0.870426 0.045956
v -0.253947 0.871371 0.043298
v -0.242891 0.860084 0.041186
v -0.249678 0.868970 0.034283
v -0.248288 0.858495 0.035016
v -0.257416 0.866427 0.037662
v -0.255538 0.857670 0.033557
v -0.264286 0.861206 0.044294
v -0.259860 0.867604 0.051801
v -0.258878 0.853156 0.039020
v -0.262511 0.854127 0.050058
v -0.253975 0.851806 0.042885
v -0.256478 0.858903 0.055811
v -0.249864 0.863173 0.057776
v -0.248982 0.855462 0.048914
v -0.244409 0.861266 0.054003
v -0.240999 0.862825 0.047151
v -0.245382 0.869562 0.054030
v -0.249972 0.869290 0.054842
v -0.249726 0.871784 0.047441
vn 0.6597 0.7512 -0.0223
vn 0.9897 -0.1260 0.0682
vn 0.8853 -0.3578 -0.2970
vn 0.5455 0.6768 -0.4942
vn -0.3151 0.9412 -0.1223
vn -0.0046 0.9940 0.1095
vn 0.1585 0.5488 -0.8208
vn -0.5744 0.5184 -0.6335
vn 0.4698 -0.4192 -0.7769
vn -0.2894 -0.3191 -0.9025
vn -0.9921 0.0713 -0.1034
vn -0.6715 0.5929 0.4445
vn -0.5171 -0.6492 -0.5578
vn -0.6236 -0.6513 0.4324
vn -0.3085 -0.3729 0.8751
vn 0.0972 -0.9900 -0.1020
vn 0.4329 -0.8472 0.3078
vn 0.0966 -0.1031 0.9900
vn -0.0039 0.7007 0.7134
vn 0.7089 -0.3455 0.6148
vn 0.5841 0.6025 0.5439
vt 0.043989 0.021210
vt 0.042537 0.017873
vt 0.045084 0.014635
vt 0.046598 0.019889
vt 0.044111 0.026695
vt 0.043037 0.024968
vt 0.189259 0.022010
vt 0.193031 0.024924
vt 0.190198 0.026505
vt 0.186555 0.025246
vt 0.193222 0.030958
vt 0.188844 0.031936
vt 0.185453 0.029993
vt 0.181605 0.023424
vt 0.184836 0.018754
vt 0.181430 0.029356
vt 0.035763 0.029841
vt 0.028322 0.022265
vt 0.031278 0.019837
vt 0.035112 0.022276
vt 0.028188 0.011385
vt 0.033055 0.014122
vt 0.036996 0.017328
vt 0.038185 0.022665
vt 0.039895 0.024379
vt 0.039621 0.019964
vt 0.039305 0.010200
vt 0.041366 0.022654
vt 0.032123 0.009519
s 1
usemtl abyss_chancel_background_pbr
f 2/1/1 18/2/2 4/3/3 1/4/4
f 1/4/4 3/5/5 21/6/6 2/1/1
f 3/7/5 1/8/4 5/9/7 7/10/8
f 4/11/3 6/12/9 5/9/7 1/8/4
f 8/13/10 7/10/8 5/9/7 6/12/9
f 3/7/5 7/10/8 9/14/11 10/15/12
f 9/14/11 7/10/8 8/13/10 11/16/13
f 10/17/12 9/18/11 12/19/14 14/20/15
f 12/19/14 9/18/11 11/21/13 13/22/16
f 16/23/17 14/20/15 12/19/14 13/22/16
f 10/17/12 14/20/15 15/24/18 20/25/19
f 16/23/17 17/26/20 15/24/18 14/20/15
f 18/2/2 17/26/20 16/23/17 4/3/3
f 4/3/3 16/23/17 13/22/16 6/27/9
f 19/28/21 20/25/19 15/24/18 17/26/20
f 19/28/21 17/26/20 18/2/2 2/1/1
f 19/28/21 2/1/1 21/6/6 20/25/19
f 10/17/12 20/25/19 21/6/6 3/5/5
f 13/22/16 11/21/13 8/29/10 6/27/9
