# Blender 5.2.0 LTS
# www.blender.org
mtllib terrain-abyss-chancel-object-050.mtl
o terrain-abyss-chancel-object-050
v -0.317165 0.856249 -0.086791
v -0.318126 0.854287 -0.086456
v -0.317907 0.856607 -0.084091
v -0.319757 0.857851 -0.087233
v -0.317713 0.856563 -0.090621
v -0.318983 0.853995 -0.089805
v -0.320053 0.856504 -0.093967
v -0.319636 0.858018 -0.090466
v -0.321603 0.858581 -0.090188
v -0.321501 0.857943 -0.093121
v -0.324068 0.857975 -0.095281
v -0.323279 0.858619 -0.091523
v -0.325963 0.858411 -0.093199
v -0.324584 0.858792 -0.089103
v -0.322299 0.858391 -0.088019
v -0.325363 0.858180 -0.085957
v -0.327300 0.858764 -0.090492
v -0.328009 0.858306 -0.087302
v -0.329432 0.856352 -0.091685
v -0.330491 0.856295 -0.088385
v -0.327030 0.853738 -0.090520
v -0.327491 0.856546 -0.094465
v -0.325555 0.856752 -0.096312
v -0.325541 0.854191 -0.093335
v -0.323722 0.855556 -0.095435
v -0.323301 0.852965 -0.091167
v -0.324940 0.852834 -0.089559
v -0.321725 0.852955 -0.088260
v -0.321038 0.854203 -0.093156
v -0.320922 0.853424 -0.085439
v -0.324442 0.852821 -0.087345
v -0.327428 0.853320 -0.087698
v -0.323978 0.853234 -0.084567
v -0.326913 0.853883 -0.084636
v -0.323597 0.855274 -0.082875
v -0.323057 0.857663 -0.084794
v -0.320625 0.855061 -0.083145
v -0.326015 0.855877 -0.083113
v -0.328193 0.857010 -0.084233
v -0.329780 0.856075 -0.085157
v -0.317745 0.854828 -0.083894
v -0.320473 0.856974 -0.084270
v -0.322282 0.857463 -0.096338
vn 0.9540 0.2986 0.0276
vn 0.6864 -0.7223 0.0844
vn 0.6101 -0.7582 -0.2299
vn 0.9169 0.2166 -0.3352
vn 0.6249 0.5270 0.5760
vn 0.6507 -0.4093 0.6396
vn 0.3310 0.9320 0.1478
vn 0.1792 0.7605 0.6241
vn 0.4268 0.8937 -0.1381
vn 0.7321 0.1283 -0.6690
vn 0.3992 -0.7569 -0.5174
vn 0.3281 0.9089 -0.2575
vn 0.1804 0.9831 -0.0305
vn 0.1374 0.9766 0.1656
vn 0.1019 0.9879 -0.1171
vn 0.4437 0.2952 -0.8461
vn -0.0082 0.7900 -0.6130
vn -0.2685 0.9127 -0.3081
vn -0.3602 0.9246 -0.1238
vn 0.0247 0.9966 0.0783
vn -0.0073 0.9164 0.4002
vn 0.0626 0.8366 0.5443
vn -0.3840 0.9035 0.1902
vn -0.7223 0.0212 -0.6913
vn -0.9080 0.0067 -0.4189
vn -0.9996 0.0217 -0.0155
vn -0.4660 -0.8434 -0.2677
vn -0.4758 -0.8793 0.0217
vn -0.2900 -0.8238 -0.4870
vn -0.4194 0.0384 -0.9070
vn 0.0299 -0.5817 -0.8129
vn 0.0379 -0.9608 -0.2746
vn -0.1470 -0.9809 -0.1271
vn 0.2027 -0.9791 -0.0151
vn -0.0707 -0.9948 0.0738
vn 0.2012 -0.9302 0.3070
vn -0.0416 -0.8702 0.4910
vn -0.4150 -0.7308 0.5419
vn -0.0140 -0.0478 0.9988
vn -0.2399 0.1547 0.9584
vn 0.1765 -0.2344 0.9560
vn -0.4594 0.4864 0.7432
vn -0.8733 -0.0410 0.4855
vt 0.786010 0.975377
vt 0.785895 0.976583
vt 0.783828 0.977461
vt 0.784142 0.975684
vt 0.519995 0.973434
vt 0.518552 0.973215
vt 0.518697 0.972558
vt 0.519375 0.971565
vt 0.518396 0.974607
vt 0.517246 0.973430
vt 0.785399 0.973783
vt 0.783969 0.974439
vt 0.782378 0.975521
vt 0.781506 0.976473
vt 0.782586 0.974335
vt 0.783720 0.973377
vt 0.784546 0.972576
vt 0.782691 0.973097
vt 0.781228 0.974785
vt 0.781162 0.973954
vt 0.781033 0.972801
vt 0.781497 0.971503
vt 0.783161 0.971851
vt 0.783863 0.970329
vt 0.785173 0.970940
vt 0.782232 0.970143
vt 0.779438 0.973128
vt 0.779679 0.971373
vt 0.780493 0.969662
vt 0.515962 0.967636
vt 0.515373 0.968929
vt 0.513513 0.967698
vt 0.514866 0.966141
vt 0.517182 0.966648
vt 0.516254 0.965199
vt 0.780174 0.974079
vt 0.778772 0.974827
vt 0.780231 0.975234
vt 0.779656 0.977414
vt 0.518031 0.968110
vt 0.516906 0.968506
vt 0.518224 0.969699
vt 0.516695 0.969586
vt 0.782083 0.978125
vt 0.517854 0.971146
vt 0.519814 0.970116
vt 0.516296 0.970908
vt 0.514833 0.970567
vt 0.515923 0.972185
vt 0.514694 0.971939
vt 0.517347 0.972401
vt 0.515957 0.973888
vt 0.514684 0.973855
vt 0.782914 0.968735
vt 0.784255 0.968488
vt 0.783442 0.967240
vt 0.781894 0.968422
vt 0.513382 0.969484
vt 0.516975 0.975240
s 1
usemtl abyss_chancel_background_pbr
f 1/1/1 2/2/2 6/3/3 5/4/4
f 1/5/1 3/6/5 41/7/6 2/8/2
f 4/9/7 42/10/8 3/6/5 1/5/1
f 4/11/7 1/1/1 5/4/4 8/12/9
f 7/13/10 5/4/4 6/3/3 29/14/11
f 10/15/12 8/12/9 5/4/4 7/13/10
f 4/11/7 8/12/9 9/16/13 15/17/14
f 10/15/12 12/18/15 9/16/13 8/12/9
f 10/15/12 7/13/10 43/19/16 11/20/17
f 11/20/17 13/21/18 12/18/15 10/15/12
f 12/18/15 13/21/18 17/22/19 14/23/20
f 14/23/20 15/17/14 9/16/13 12/18/15
f 14/23/20 16/24/21 36/25/22 15/17/14
f 16/24/21 14/23/20 17/22/19 18/26/23
f 22/27/24 19/28/25 17/22/19 13/21/18
f 17/22/19 19/28/25 20/29/26 18/26/23
f 21/30/27 32/31/28 20/32/26 19/33/25
f 24/34/29 21/30/27 19/33/25 22/35/24
f 13/21/18 11/20/17 23/36/30 22/27/24
f 24/37/29 22/27/24 23/36/30 25/38/31
f 25/38/31 29/14/11 26/39/32 24/37/29
f 24/34/29 26/40/32 27/41/33 21/30/27
f 28/42/34 31/43/35 27/41/33 26/40/32
f 29/14/11 6/3/3 28/44/34 26/39/32
f 29/14/11 25/38/31 43/19/16 7/13/10
f 2/8/2 30/45/36 28/42/34 6/46/3
f 28/42/34 30/45/36 33/47/37 31/43/35
f 32/31/28 21/30/27 27/41/33 31/43/35
f 31/43/35 33/47/37 34/48/38 32/31/28
f 35/49/39 38/50/40 34/48/38 33/47/37
f 30/45/36 37/51/41 35/49/39 33/47/37
f 42/10/8 36/52/22 35/49/39 37/51/41
f 16/53/21 38/50/40 35/49/39 36/52/22
f 16/24/21 18/26/23 39/54/42 38/55/40
f 34/56/38 38/55/40 39/54/42 40/57/43
f 20/29/26 40/57/43 39/54/42 18/26/23
f 32/31/28 34/48/38 40/58/43 20/32/26
f 42/10/8 37/51/41 41/7/6 3/6/5
f 30/45/36 2/8/2 41/7/6 37/51/41
f 4/9/7 15/59/14 36/52/22 42/10/8
f 23/36/30 11/20/17 43/19/16 25/38/31
