# Blender 5.2.0 LTS
# www.blender.org
mtllib terrain-abyss-chancel-object-106.mtl
o terrain-abyss-chancel-object-106
v 0.471166 1.236272 0.001071
v 0.471361 1.237001 0.000034
v 0.472009 1.236335 0.001275
v 0.470163 1.236152 0.000970
v 0.471282 1.234627 0.002258
v 0.472170 1.234458 0.001882
v 0.471264 1.231559 0.003185
v 0.470392 1.234964 0.002233
v 0.469499 1.234991 0.002075
v 0.469968 1.231822 0.003257
v 0.468835 1.232054 0.002464
v 0.469530 1.226437 0.003945
v 0.468135 1.226476 0.002935
v 0.471208 1.226381 0.004351
v 0.469096 1.215919 0.004036
v 0.471120 1.215929 0.004458
v 0.467469 1.216024 0.002953
v 0.466127 1.198726 0.011813
v 0.461650 1.198454 0.009475
v 0.470336 1.198881 0.012626
v 0.462963 1.181689 0.018687
v 0.471282 1.182023 0.021094
v 0.456577 1.181669 0.013961
v 0.459638 1.172097 0.025541
v 0.458063 1.163197 0.030786
v 0.450178 1.172483 0.019232
v 0.472495 1.172746 0.028856
v 0.484329 1.172814 0.025380
v 0.474961 1.164068 0.034488
v 0.477854 1.158318 0.038269
v 0.488537 1.164314 0.030022
v 0.497824 1.164177 0.023448
v 0.492472 1.158055 0.034100
v 0.495710 1.154293 0.038208
v 0.501739 1.157844 0.026799
v 0.506048 1.154428 0.029875
v 0.505715 1.155878 0.014150
v 0.502448 1.162464 0.012467
v 0.509203 1.156457 0.000053
v 0.510931 1.154120 0.016679
v 0.512060 1.149959 0.017408
v 0.514132 1.155315 0.000602
v 0.515959 1.150488 0.001234
v 0.510708 1.153738 -0.014999
v 0.505157 1.154881 -0.012962
v 0.506946 1.153666 -0.027256
v 0.512687 1.150451 -0.015152
v 0.508268 1.148165 -0.027716
v 0.509822 1.144641 -0.013560
v 0.506151 1.135028 -0.012566
v 0.512229 1.144536 0.001457
v 0.506532 1.142782 -0.025768
v 0.504212 1.134348 -0.023869
v 0.496874 1.142203 -0.033819
v 0.497469 1.147840 -0.036207
v 0.481789 1.142842 -0.037626
v 0.496262 1.134441 -0.030899
v 0.482457 1.135198 -0.034014
v 0.496692 1.118427 -0.028123
v 0.496913 1.094088 -0.028125
v 0.501864 1.117912 -0.023171
v 0.484019 1.119724 -0.029523
v 0.464602 1.119914 -0.032666
v 0.484970 1.094996 -0.028793
v 0.485370 1.066964 -0.029151
v 0.464518 1.095678 -0.032376
v 0.451246 1.096231 -0.029941
v 0.466275 1.067483 -0.032559
v 0.451760 1.067860 -0.030304
v 0.469531 1.041940 -0.033723
v 0.485023 1.039759 -0.032160
v 0.455647 1.042352 -0.032166
v 0.472638 1.020957 -0.031954
v 0.480645 1.011851 -0.026129
v 0.473985 1.012312 -0.032932
v 0.462013 1.025194 -0.032354
v 0.450632 1.025795 -0.029948
v 0.467272 1.014389 -0.030322
v 0.469597 1.008604 -0.030348
v 0.458672 1.016936 -0.025637
v 0.448816 1.017376 -0.019293
v 0.465793 1.009337 -0.025408
v 0.457972 1.010668 -0.016959
v 0.449826 1.011756 -0.007486
v 0.468182 1.002885 -0.017771
v 0.487225 1.009072 -0.014258
v 0.469966 0.992393 -0.012352
v 0.457189 1.002849 -0.007730
v 0.462084 0.992044 -0.007075
v 0.450939 1.001442 0.001456
v 0.449284 0.999566 0.010017
v 0.458103 0.990308 -0.000356
v 0.444326 1.012852 0.002381
v 0.444574 1.013876 0.012278
v 0.438501 1.021201 0.002077
v 0.433031 1.029826 0.002621
v 0.441902 1.019281 -0.009605
v 0.439055 1.022067 0.014457
v 0.442892 1.021813 0.024655
v 0.434953 1.030534 0.016385
v 0.436440 1.046008 0.017726
v 0.438975 1.031561 0.027851
v 0.439122 1.047172 0.028266
v 0.449424 1.032544 0.034744
v 0.449097 1.048437 0.031227
v 0.452527 1.024102 0.031272
v 0.461999 1.034893 0.037747
v 0.467033 1.025223 0.036363
v 0.477037 1.038592 0.038502
v 0.460865 1.049178 0.035286
v 0.457634 1.070795 0.032249
v 0.483785 1.046725 0.033796
v 0.488231 1.049772 0.034118
v 0.478904 1.069703 0.033773
v 0.476467 1.096303 0.033443
v 0.490312 1.067997 0.032562
v 0.496967 1.066362 0.033363
v 0.491116 1.095680 0.031972
v 0.489452 1.120516 0.032199
v 0.498884 1.094751 0.033352
v 0.498375 1.119562 0.033231
v 0.500752 1.094715 0.026367
v 0.500852 1.119392 0.026148
v 0.501001 1.065654 0.028170
v 0.501531 1.095033 0.019021
v 0.503200 1.119295 0.017453
v 0.501011 1.066236 0.018715
v 0.504419 1.094690 0.003607
v 0.504842 1.066808 0.003376
v 0.501918 1.094045 -0.013524
v 0.504446 1.118629 0.003434
v 0.503156 1.117938 -0.012910
v 0.508471 1.134480 0.002393
v 0.506397 1.135127 0.016810
v 0.509581 1.144806 0.016889
v 0.503091 1.135785 0.027222
v 0.497989 1.135977 0.034824
v 0.506420 1.144276 0.029284
v 0.507546 1.149633 0.030623
v 0.497548 1.144013 0.037244
v 0.483847 1.145262 0.039543
v 0.497161 1.149560 0.039413
v 0.482404 1.149997 0.042726
v 0.480565 1.154905 0.041923
v 0.464559 1.149809 0.042445
v 0.461753 1.154119 0.040894
v 0.449618 1.149598 0.038616
v 0.467031 1.144899 0.041317
v 0.452442 1.144567 0.037654
v 0.470070 1.136931 0.038168
v 0.454613 1.137167 0.035053
v 0.473133 1.121450 0.033902
v 0.486420 1.136770 0.035798
v 0.455910 1.121618 0.032606
v 0.456568 1.096958 0.030608
v 0.446721 1.121801 0.029872
v 0.440376 1.121896 0.028791
v 0.445178 1.136684 0.032410
v 0.446892 1.096916 0.029862
v 0.439854 1.096911 0.029267
v 0.447725 1.070140 0.029804
v 0.439194 1.069705 0.028276
v 0.438816 1.069727 0.019821
v 0.436710 1.069794 0.006109
v 0.439249 1.096982 0.020818
v 0.437902 1.097180 0.008367
v 0.438801 1.122165 0.021699
v 0.436532 1.136390 0.023298
v 0.437836 1.122084 0.010256
v 0.434431 1.136767 0.011978
v 0.437746 1.121465 -0.007297
v 0.442437 1.120331 -0.019672
v 0.433333 1.136337 -0.003298
v 0.439342 1.096954 -0.010797
v 0.442937 1.096384 -0.021224
v 0.439330 1.069339 -0.012172
v 0.436777 1.044593 -0.011826
v 0.442230 1.069005 -0.023044
v 0.443900 1.068299 -0.030183
v 0.440577 1.043360 -0.023024
v 0.445363 1.042956 -0.030782
v 0.440224 1.026186 -0.022744
v 0.435199 1.028381 -0.011502
v 0.443762 1.096116 -0.030401
v 0.441780 1.119554 -0.028652
v 0.440832 1.134682 -0.029413
v 0.450592 1.119769 -0.030150
v 0.451245 1.134994 -0.033015
v 0.450652 1.142383 -0.036505
v 0.465159 1.135088 -0.035679
v 0.465221 1.142952 -0.038967
v 0.464549 1.148469 -0.041789
v 0.464388 1.153192 -0.040976
v 0.449522 1.148200 -0.038263
v 0.481863 1.147962 -0.040886
v 0.481522 1.152601 -0.040623
v 0.480122 1.155623 -0.035966
v 0.496740 1.152389 -0.035475
v 0.494010 1.155723 -0.030726
v 0.502358 1.156473 -0.023985
v 0.490559 1.162701 -0.026634
v 0.498815 1.163831 -0.020743
v 0.486314 1.172054 -0.022071
v 0.478799 1.162028 -0.031384
v 0.476774 1.171872 -0.026042
v 0.465447 1.162222 -0.031550
v 0.464874 1.156886 -0.036249
v 0.453703 1.162084 -0.027770
v 0.465994 1.171156 -0.026069
v 0.466774 1.181577 -0.017336
v 0.456179 1.171619 -0.023075
v 0.448679 1.170807 -0.016995
v 0.459319 1.181971 -0.015731
v 0.454486 1.180712 -0.010575
v 0.462638 1.197905 -0.008776
v 0.467515 1.215447 -0.003108
v 0.460351 1.197607 -0.004895
v 0.467250 1.197259 -0.010199
v 0.469024 1.215660 -0.003734
v 0.472106 1.197245 -0.010213
v 0.476051 1.197389 -0.009200
v 0.474394 1.181679 -0.017433
v 0.470864 1.215627 -0.004172
v 0.470417 1.225915 -0.003884
v 0.472354 1.215635 -0.003946
v 0.471930 1.227797 -0.003347
v 0.473894 1.215490 -0.002921
v 0.474747 1.215682 -0.001821
v 0.473282 1.227451 -0.002941
v 0.479859 1.197690 -0.007047
v 0.483018 1.198127 -0.003583
v 0.486657 1.181989 -0.011617
v 0.489655 1.181366 -0.005899
v 0.493834 1.172703 -0.016817
v 0.481131 1.181967 -0.015540
v 0.497115 1.171346 -0.009213
v 0.499750 1.171357 -0.000078
v 0.501605 1.162265 -0.011479
v 0.505347 1.162929 -0.000501
v 0.491362 1.181146 0.000827
v 0.498015 1.171249 0.010657
v 0.493117 1.172765 0.019347
v 0.490057 1.181263 0.008001
v 0.486323 1.181671 0.014125
v 0.482814 1.199097 0.005237
v 0.479793 1.199025 0.009181
v 0.474812 1.215758 0.001656
v 0.483858 1.198724 0.000602
v 0.475441 1.215908 0.000091
v 0.475042 1.226692 -0.000472
v 0.474726 1.226428 0.001143
v 0.474121 1.231985 -0.000631
v 0.474478 1.227080 -0.002001
v 0.473204 1.232207 -0.001629
v 0.472352 1.234557 -0.001496
v 0.472123 1.232504 -0.002295
v 0.471171 1.234706 -0.001936
v 0.471002 1.232740 -0.002728
v 0.468709 1.228631 -0.003545
v 0.469622 1.233818 -0.002196
v 0.467649 1.227765 -0.002783
v 0.468625 1.233389 -0.001259
v 0.470177 1.235434 -0.001153
v 0.468060 1.232892 -0.000067
v 0.466908 1.227198 -0.001557
v 0.466639 1.226872 0.000006
v 0.466611 1.215738 -0.001760
v 0.466147 1.215682 -0.000091
v 0.466683 1.215869 0.001788
v 0.458746 1.198001 -0.000071
v 0.458928 1.198289 0.004086
v 0.451867 1.180380 -0.002418
v 0.452517 1.180725 0.006377
v 0.444367 1.170042 -0.005798
v 0.445294 1.171127 0.008538
v 0.440057 1.161185 -0.007855
v 0.440192 1.162105 0.009588
v 0.445179 1.161948 -0.021085
v 0.437430 1.154877 -0.010052
v 0.435472 1.156458 0.008348
v 0.442823 1.155797 -0.024337
v 0.432965 1.152491 -0.013663
v 0.431006 1.149319 -0.016056
v 0.430064 1.153998 0.005411
v 0.439667 1.152463 -0.027957
v 0.436597 1.147606 -0.031185
v 0.449894 1.153270 -0.036490
v 0.452003 1.156512 -0.032159
v 0.438261 1.141918 -0.030177
v 0.434850 1.143836 -0.016416
v 0.430177 1.144077 -0.000223
v 0.438105 1.135997 -0.017870
v 0.427144 1.149138 0.002520
v 0.433159 1.144533 0.014529
v 0.434374 1.144522 0.026397
v 0.430100 1.149359 0.018271
v 0.431947 1.150427 0.029508
v 0.433541 1.153499 0.022043
v 0.437079 1.154058 0.032015
v 0.441619 1.158204 0.026392
v 0.444750 1.163667 0.023960
v 0.458867 1.158102 0.035989
v 0.446233 1.154325 0.035523
v 0.439622 1.150619 0.036489
v 0.442166 1.144278 0.035165
v 0.434619 1.152698 0.034774
v 0.436675 1.144469 0.032281
v 0.438944 1.136297 0.029480
v 0.467115 1.226598 0.001612
v 0.468094 1.232508 0.001231
v 0.469217 1.235474 0.000933
v 0.469415 1.235498 -0.000180
v 0.470470 1.236483 -0.000110
v 0.471370 1.236182 -0.001100
v 0.472294 1.236214 -0.000654
v 0.473302 1.234406 -0.000816
v 0.472931 1.236212 0.000076
v 0.471998 1.237421 0.000205
v 0.472928 1.236065 0.001203
v 0.473653 1.234348 0.000317
v 0.473204 1.234292 0.001457
v 0.473996 1.231791 0.000669
v 0.473510 1.231677 0.001952
v 0.472493 1.231553 0.002744
v 0.473933 1.226258 0.002594
v 0.472782 1.226305 0.003689
v 0.474244 1.215767 0.003139
v 0.472669 1.215755 0.003920
v 0.475387 1.199013 0.011824
v 0.479680 1.181732 0.018937
v 0.434923 1.045524 0.003643
v 0.501734 1.093605 -0.022832
v 0.501801 1.066497 -0.013195
v 0.505598 1.041177 -0.011004
v 0.501840 1.066393 -0.023285
v 0.496925 1.066639 -0.027911
v 0.504181 1.039805 -0.022555
v 0.496641 1.039173 -0.029721
v 0.504699 1.020879 -0.016031
v 0.497672 1.008268 -0.003529
v 0.507634 1.028009 -0.002086
v 0.492840 1.017494 -0.022844
v 0.502556 1.021012 0.012058
v 0.506291 1.040865 0.013008
v 0.506248 1.047444 0.002419
v 0.503380 1.037280 0.025308
v 0.489510 1.037074 0.036670
v 0.491039 1.017851 0.024214
v 0.491347 1.005868 0.010742
v 0.471418 1.017383 0.027795
v 0.457607 1.016312 0.024344
v 0.476918 1.006324 0.018223
v 0.478738 0.992804 0.012870
v 0.464767 1.006376 0.016471
v 0.455973 1.003919 0.012871
v 0.468834 0.992264 0.013690
v 0.469451 0.980190 0.009071
v 0.462358 0.990736 0.009940
v 0.465658 0.979697 0.006752
v 0.458224 0.989192 0.005742
v 0.462288 0.980589 0.004622
v 0.462870 0.978760 0.000412
v 0.465041 0.979737 -0.003146
v 0.466113 0.973676 0.003367
v 0.465994 0.973251 0.000161
v 0.468648 0.973872 0.005272
v 0.467758 0.970976 0.002919
v 0.472250 0.973546 0.005738
v 0.475134 0.979986 0.009176
v 0.470255 0.970360 0.003926
v 0.475842 0.972787 0.003861
v 0.473166 0.969495 0.003026
v 0.480022 0.979639 0.004554
v 0.475401 0.972709 -0.000738
v 0.479814 0.979881 -0.002418
v 0.472369 0.972627 -0.002812
v 0.473245 0.969749 0.000230
v 0.470879 0.969131 -0.000431
v 0.468251 0.969798 0.000559
v 0.470585 0.966568 0.001002
v 0.469201 0.967124 0.002225
v 0.468523 0.972947 -0.002178
v 0.469484 0.980139 -0.006598
v 0.475446 0.979914 -0.006582
v 0.480194 0.993653 -0.009745
v 0.486863 0.992011 -0.005322
v 0.486730 0.991882 0.005221
v 0.449565 1.014859 0.019162
v 0.477817 1.007101 -0.029809
vn -0.1635 0.7242 0.6699
vn -0.1584 0.9798 -0.1218
vn -0.4381 0.8756 -0.2036
vn -0.3756 0.8287 0.4149
vn 0.1920 0.6150 0.7648
vn 0.2306 0.9731 0.0001
vn 0.1580 0.4107 0.8980
vn 0.3223 0.3144 0.8929
vn -0.1406 0.5266 0.8384
vn 0.4770 0.2223 0.8503
vn 0.1829 0.2369 0.9542
vn -0.2474 0.2278 0.9418
vn -0.7383 0.6175 0.2711
vn -0.5545 0.4772 0.6818
vn -0.6608 0.2227 0.7168
vn -0.6945 0.0964 0.7130
vn -0.3701 0.0945 0.9242
vn 0.1051 0.1012 0.9893
vn -0.6931 0.2404 0.6795
vn -0.3693 0.2469 0.8959
vn 0.0413 0.2356 0.9710
vn -0.0183 0.4358 0.8999
vn -0.3506 0.4199 0.8371
vn -0.6736 0.4098 0.6151
vn -0.6506 0.5309 0.5431
vn -0.3587 0.5276 0.7700
vn -0.0199 0.5497 0.8351
vn -0.0101 0.5922 0.8058
vn -0.3248 0.5809 0.7463
vn -0.6145 0.6185 0.4897
vn -0.6198 0.6073 0.4970
vn -0.2967 0.5723 0.7645
vn 0.0189 0.5901 0.8071
vn 0.3397 0.6194 0.7078
vn 0.3413 0.5605 0.7546
vn 0.3522 0.6113 0.7087
vn -0.2186 0.6968 0.6832
vn 0.0498 0.6991 0.7133
vn 0.3122 0.7379 0.5984
vn 0.6599 0.5948 0.4592
vn 0.6142 0.6241 0.4829
vn 0.5315 0.7742 0.3436
vn 0.0807 0.5308 0.8437
vn 0.3671 0.5661 0.7381
vn 0.6442 0.6207 0.4468
vn 0.7113 0.6736 0.2010
vn 0.6036 0.7809 0.1609
vn 0.8263 0.5157 0.2264
vn 0.5520 0.8329 -0.0389
vn 0.8588 0.5089 -0.0590
vn 0.6645 0.7472 -0.0117
vn 0.8287 0.0034 0.5597
vn 0.9633 -0.0529 0.2631
vn 0.9981 -0.0602 0.0158
vn 0.9686 -0.0243 -0.2475
vn 0.6547 0.7282 -0.2027
vn 0.5955 0.7828 -0.1804
vn 0.4987 0.7928 -0.3504
vn 0.6116 0.6400 -0.4651
vn 0.8229 -0.0851 -0.5617
vn 0.9039 -0.4277 0.0035
vn 0.8951 -0.4119 -0.1704
vn 0.7946 -0.3924 -0.4633
vn 0.9519 -0.2702 -0.1446
vn 0.8517 -0.2518 -0.4597
vn 0.9600 -0.2799 0.0060
vn 0.4568 -0.1375 -0.8789
vn 0.4167 -0.4038 -0.8144
vn 0.4224 -0.2735 -0.8641
vn 0.1382 -0.4389 -0.8878
vn 0.1640 -0.1829 -0.9694
vn 0.1414 -0.3116 -0.9396
vn 0.4324 -0.0899 -0.8972
vn 0.1335 -0.1220 -0.9835
vn 0.8928 -0.0812 -0.4431
vn 0.1259 -0.0027 -0.9920
vn 0.4256 -0.0022 -0.9049
vn 0.9192 -0.0070 -0.3936
vn -0.0183 -0.1139 -0.9933
vn -0.0303 -0.3127 -0.9494
vn -0.0047 -0.0030 -1.0000
vn 0.4376 0.0353 -0.8985
vn 0.1404 0.0475 -0.9889
vn 0.0043 0.0360 -0.9993
vn -0.0973 0.0054 -0.9952
vn -0.1702 -0.0699 -0.9829
vn -0.0896 0.0216 -0.9957
vn 0.0444 -0.0139 -0.9989
vn -0.1210 -0.0154 -0.9925
vn 0.2083 -0.0739 -0.9753
vn 0.4383 -0.6195 -0.6512
vn 0.1171 -0.0914 -0.9889
vn -0.1965 -0.2163 -0.9564
vn 0.4735 -0.8021 -0.3639
vn 0.2237 -0.1106 -0.9684
vn -0.3758 -0.3426 -0.8611
vn -0.4625 -0.5961 -0.6563
vn -0.4271 -0.3645 -0.8275
vn -0.5275 -0.0415 -0.8485
vn -0.3046 -0.8565 -0.4168
vn -0.4062 -0.7621 -0.5041
vn -0.5458 -0.7136 -0.4392
vn -0.7653 -0.3816 -0.5184
vn -0.5136 -0.6865 -0.5148
vn -0.1625 -0.6472 -0.7448
vn -0.6674 -0.6368 -0.3861
vn -0.7098 -0.6681 -0.2233
vn -0.6659 -0.4760 -0.5744
vn 0.4475 -0.5436 -0.7101
vn 0.4631 -0.6545 -0.5976
vn -0.1555 -0.4076 -0.8998
vn 0.3992 -0.3948 -0.8275
vn -0.6481 -0.3744 -0.6631
vn -0.8262 -0.4340 -0.3593
vn -0.8222 -0.4673 -0.3250
vn -0.8227 -0.5461 -0.1576
vn -0.7638 -0.5211 0.3810
vn -0.7373 -0.5480 0.3950
vn -0.7533 -0.5785 0.3129
vn -0.7995 -0.5589 0.2201
vn -0.8163 -0.5769 -0.0287
vn -0.9766 -0.2152 -0.0062
vn -0.9311 -0.2745 -0.2402
vn -0.9526 -0.2113 0.2191
vn -0.4045 -0.6609 0.6321
vn -0.5796 -0.6064 0.5443
vn -0.7501 -0.2061 0.6283
vn -0.9821 0.0621 0.1777
vn -0.9954 0.0948 -0.0095
vn -0.7518 0.0556 0.6571
vn -0.3697 -0.1475 0.9174
vn -0.3161 0.0867 0.9447
vn -0.2826 -0.5709 0.7708
vn -0.1372 -0.0314 0.9900
vn -0.1424 0.1498 0.9784
vn -0.0129 -0.4941 0.8693
vn 0.3638 -0.1711 0.9156
vn 0.0379 0.0832 0.9958
vn 0.0370 0.2104 0.9769
vn -0.1457 0.0473 0.9882
vn -0.2066 0.0237 0.9781
vn 0.0179 0.0410 0.9990
vn -0.0506 0.1337 0.9897
vn -0.0435 0.0514 0.9977
vn -0.0010 -0.0012 1.0000
vn -0.1402 -0.0123 0.9901
vn -0.0249 0.0061 0.9997
vn 0.4030 0.0232 0.9149
vn 0.5115 0.0026 0.8593
vn 0.0146 -0.0962 0.9953
vn 0.5270 -0.0734 0.8467
vn -0.0043 -0.1316 0.9913
vn 0.9706 -0.0084 0.2406
vn 0.9487 -0.0680 0.3088
vn 0.9239 0.0093 0.3824
vn 0.9887 -0.0166 0.1492
vn 0.9761 -0.1106 0.1871
vn 0.9877 0.0562 0.1460
vn 0.9997 -0.0137 0.0215
vn 0.9925 -0.1216 0.0125
vn 0.9980 0.0583 0.0230
vn 0.9938 0.0573 -0.0957
vn 0.9959 -0.0121 -0.0895
vn 0.9884 -0.1039 -0.1104
vn 0.9418 -0.2653 0.2064
vn 0.9005 -0.3799 0.2114
vn 0.8786 -0.2340 0.4162
vn 0.8134 -0.3308 0.4784
vn 0.4745 -0.2477 0.8447
vn 0.4162 -0.3473 0.8403
vn 0.4330 -0.0385 0.9006
vn 0.1128 -0.0733 0.9909
vn 0.1091 -0.3828 0.9174
vn 0.0819 -0.2682 0.9599
vn -0.1280 -0.0514 0.9904
vn -0.0644 -0.3759 0.9244
vn -0.1773 0.5144 0.8390
vn -0.2690 0.6729 0.6891
vn -0.2571 0.0223 0.9661
vn -0.2180 -0.3526 0.9100
vn -0.0165 -0.3033 0.9528
vn -0.2067 -0.3055 0.9295
vn -0.1740 -0.1286 0.9763
vn -0.2944 -0.2872 0.9115
vn -0.2190 -0.0875 0.9718
vn -0.1505 -0.0074 0.9886
vn -0.7022 -0.0808 0.7073
vn -0.7121 0.0025 0.7021
vn -0.7012 -0.2964 0.6485
vn -0.7406 0.0217 0.6716
vn -0.9944 0.0061 0.1057
vn -0.9921 0.0392 0.1192
vn -0.9985 0.0545 0.0052
vn -0.9997 0.0009 0.0224
vn -0.9824 -0.0941 0.1613
vn -0.9895 -0.1316 0.0590
vn -0.9472 -0.2385 0.2142
vn -0.9582 -0.2633 0.1124
vn -0.9537 -0.2786 -0.1130
vn -0.9761 -0.1295 -0.1745
vn -0.9792 0.0064 -0.2027
vn -0.9805 -0.0037 -0.1965
vn -0.9766 -0.1045 -0.1881
vn -0.9403 -0.2612 -0.2183
vn -0.9592 0.0325 -0.2809
vn -0.9758 0.0575 -0.2109
vn -0.9681 0.0827 -0.2367
vn -0.8924 0.0023 -0.4513
vn -0.6673 -0.0001 -0.7448
vn -0.6147 0.0193 -0.7885
vn -0.7585 -0.0992 -0.6440
vn -0.7268 -0.2835 -0.6256
vn -0.2411 -0.2643 -0.9338
vn -0.2794 -0.3645 -0.8883
vn -0.0457 -0.4289 -0.9022
vn -0.7225 -0.3923 -0.5692
vn -0.3745 0.0221 -0.9270
vn -0.0908 -0.1287 -0.9875
vn -0.0964 0.5287 -0.8433
vn 0.1605 0.5113 -0.8443
vn -0.3602 0.6234 -0.6939
vn 0.3798 0.5388 -0.7520
vn -0.0825 0.7397 -0.6678
vn 0.1415 0.7424 -0.6549
vn 0.2944 0.7488 -0.5939
vn 0.3709 0.5614 -0.7398
vn 0.6893 0.5564 -0.4641
vn 0.1603 0.5669 -0.8080
vn 0.3537 0.5920 -0.7242
vn 0.6313 0.6169 -0.4699
vn 0.1302 0.5817 -0.8029
vn -0.1147 0.5787 -0.8074
vn -0.1174 0.5667 -0.8155
vn -0.3432 0.7383 -0.5806
vn -0.4060 0.5700 -0.7144
vn -0.3992 0.5713 -0.7171
vn -0.1014 0.5385 -0.8365
vn 0.1053 0.5531 -0.8265
vn -0.4473 0.5480 -0.7069
vn -0.7118 0.5169 -0.4757
vn -0.7017 0.5556 -0.4461
vn -0.7515 0.5290 -0.3942
vn -0.8333 0.3859 -0.3959
vn -0.5408 0.4117 -0.7335
vn -0.1337 0.3829 -0.9141
vn -0.6283 0.2264 -0.7443
vn -0.2650 0.1741 -0.9484
vn -0.8974 0.1959 -0.3954
vn 0.0407 0.1831 -0.9823
vn 0.0871 0.3774 -0.9219
vn 0.3394 0.1882 -0.9216
vn 0.3454 0.3906 -0.8533
vn 0.3425 0.5592 -0.7550
vn -0.2428 0.1830 -0.9527
vn 0.0186 0.0557 -0.9983
vn 0.2697 0.1321 -0.9538
vn 0.5409 0.1214 -0.8323
vn 0.5874 0.2129 -0.7808
vn 0.6031 0.4040 -0.6878
vn 0.8254 0.2213 -0.5193
vn 0.8156 0.4080 -0.4102
vn 0.8044 0.1119 -0.5835
vn 0.7919 0.5384 -0.2880
vn 0.6117 0.5694 -0.5492
vn 0.7837 0.5760 -0.2324
vn 0.8382 0.4892 -0.2410
vn 0.8124 0.5814 -0.0440
vn 0.8431 0.5370 -0.0283
vn 0.7821 0.5787 0.2310
vn 0.7908 0.5454 0.2776
vn 0.6116 0.5644 0.5545
vn 0.9067 0.4208 -0.0298
vn 0.8325 0.4287 0.3508
vn 0.6258 0.4352 0.6473
vn 0.8946 0.2550 0.3670
vn 0.6989 0.2627 0.6653
vn 0.9690 0.2458 -0.0262
vn 0.9908 0.1018 -0.0894
vn 0.9376 0.0923 0.3351
vn 0.9408 0.2120 -0.2644
vn 0.9548 0.1752 0.2401
vn 0.6680 0.2307 -0.7075
vn 0.4110 0.2562 -0.8749
vn 0.4560 0.3531 -0.8169
vn 0.7901 0.3166 -0.5249
vn 0.0439 0.4653 -0.8840
vn -0.4264 0.4522 -0.7834
vn 0.0202 0.2975 -0.9545
vn -0.6781 0.1466 -0.7202
vn -0.4611 0.6112 -0.6433
vn -0.7997 0.4002 -0.4475
vn -0.9151 0.1402 -0.3780
vn -0.9383 0.3343 -0.0887
vn -0.7546 0.6122 -0.2361
vn -0.9913 0.1310 0.0153
vn -0.9714 0.2323 -0.0487
vn -0.9178 0.3809 -0.1122
vn -0.9048 0.2395 0.3522
vn -0.8982 0.1109 0.4253
vn -0.8905 0.3877 0.2381
vn -0.8408 0.5083 0.1864
vn -0.8551 0.5059 -0.1138
vn -0.8348 0.5346 -0.1317
vn -0.8147 0.5639 0.1351
vn -0.8541 0.4925 -0.1670
vn -0.8341 0.5422 0.1017
vn -0.6483 0.7606 0.0336
vn -0.6374 0.7495 -0.1791
vn -0.5694 0.7294 -0.3791
vn -0.6767 0.7362 0.0095
vn -0.6244 0.7557 -0.1978
vn -0.5436 0.7228 -0.4267
vn -0.9999 -0.0092 -0.0076
vn -0.9504 0.1156 -0.2888
vn -0.7698 0.0725 -0.6341
vn -0.8915 -0.3930 -0.2254
vn -0.8980 -0.4374 -0.0472
vn -0.8910 -0.4295 0.1472
vn -0.9827 -0.0206 0.1842
vn -0.8763 -0.4072 0.2575
vn -0.9366 0.1236 0.3279
vn -0.3842 0.8533 0.3524
vn -0.6376 0.7541 0.1576
vn -0.5031 0.7691 0.3941
vn -0.3556 0.1521 0.9222
vn -0.6453 0.3876 0.6582
vn -0.3180 -0.3656 0.8748
vn -0.6530 -0.4094 0.6372
vn -0.9029 0.2700 0.3346
vn 0.0040 0.6614 -0.7500
vn 0.4376 0.5697 -0.6957
vn 0.8060 0.5710 -0.1560
vn 0.9616 0.2724 0.0330
vn 0.6742 0.4445 0.5898
vn 0.7310 0.2624 0.6299
vn 0.7600 0.1904 0.6214
vn 0.7744 0.0921 0.6259
vn 0.4891 0.0987 0.8666
vn 0.3990 0.2455 0.8835
vn 0.3346 0.4351 0.8359
vn 0.9095 0.0428 -0.4134
vn 0.9919 0.0671 -0.1077
vn 0.8708 -0.0510 -0.4890
vn 0.9947 0.1032 0.0012
vn 0.4489 -0.1204 -0.8854
vn 0.8201 -0.4176 -0.3911
vn 0.9836 -0.1792 0.0194
vn 0.7968 -0.5909 -0.1261
vn 0.8414 -0.4273 0.3309
vn 0.9896 0.0032 0.1440
vn 0.8511 -0.1791 0.4936
vn 0.4655 -0.5782 0.6700
vn 0.0511 -0.6646 0.7454
vn 0.6555 -0.5503 0.5172
vn 0.1542 -0.5338 0.8314
vn -0.1913 -0.7039 0.6841
vn -0.1864 -0.5161 0.8360
vn 0.7841 -0.4663 0.4095
vn 0.3283 -0.3558 0.8750
vn -0.1751 -0.3239 0.9298
vn -0.3352 -0.4764 0.8128
vn -0.4064 -0.3772 0.8322
vn -0.2208 -0.4028 0.8882
vn 0.2966 -0.4278 0.8538
vn -0.5663 -0.4285 0.7040
vn -0.8019 -0.4492 0.3940
vn -0.8757 -0.4641 -0.1330
vn -0.7594 -0.5247 0.3848
vn -0.6796 -0.3941 -0.6187
vn -0.7979 -0.5147 -0.3139
vn -0.3717 -0.4774 0.7962
vn -0.7295 -0.5294 0.4330
vn 0.1178 -0.5021 0.8567
vn -0.1680 -0.5272 0.8330
vn 0.6857 -0.6008 0.4108
vn 0.7791 -0.5073 0.3683
vn 0.5638 -0.7105 0.4211
vn 0.6441 -0.6466 -0.4087
vn 0.7048 -0.5963 -0.3844
vn 0.7541 -0.5236 -0.3966
vn 0.1701 -0.5651 -0.8073
vn 0.3113 -0.4531 -0.8353
vn 0.0629 -0.6636 -0.7454
vn 0.0604 -0.9831 -0.1727
vn -0.7238 -0.5853 -0.3655
vn -0.4422 -0.5070 -0.7399
vn -0.4885 -0.8132 0.3164
vn -0.2559 -0.4158 -0.8727
vn 0.7763 -0.4892 -0.3974
vt 0.617054 0.224208
vt 0.616725 0.223185
vt 0.617027 0.223113
vt 0.617435 0.223981
vt 0.616666 0.224502
vt 0.616569 0.223477
vt 0.617736 0.224979
vt 0.617280 0.225261
vt 0.617924 0.224713
vt 0.618677 0.225798
vt 0.619115 0.225534
vt 0.619421 0.225216
vt 0.617783 0.223817
vt 0.618054 0.224452
vt 0.619409 0.224667
vt 0.621887 0.225008
vt 0.621758 0.225808
vt 0.621605 0.226426
vt 0.626304 0.226343
vt 0.625933 0.227573
vt 0.625386 0.228211
vt 0.632244 0.237335
vt 0.633348 0.235196
vt 0.634416 0.232403
vt 0.642382 0.236635
vt 0.641374 0.241360
vt 0.638916 0.244537
vt 0.643184 0.249854
vt 0.646285 0.245037
vt 0.647878 0.239426
vt 0.652876 0.241803
vt 0.651349 0.248364
vt 0.647072 0.253495
vt 0.508620 0.198880
vt 0.502693 0.201794
vt 0.501835 0.196918
vt 0.507599 0.192753
vt 0.513078 0.190850
vt 0.513893 0.197699
vt 0.654674 0.251393
vt 0.647345 0.255428
vt 0.517094 0.190438
vt 0.517963 0.197023
vt 0.514440 0.203208
vt 0.509401 0.204603
vt 0.518598 0.202512
vt 0.519999 0.190609
vt 0.521460 0.196712
vt 0.521584 0.201995
vt 0.521400 0.208485
vt 0.518437 0.209022
vt 0.514777 0.209537
vt 0.518217 0.216381
vt 0.514488 0.216852
vt 0.520561 0.216512
vt 0.524138 0.202128
vt 0.523638 0.208508
vt 0.522996 0.216293
vt 0.522376 0.224393
vt 0.520509 0.224394
vt 0.517516 0.223815
vt 0.517150 0.229546
vt 0.520268 0.230142
vt 0.523133 0.230112
vt 0.526289 0.216441
vt 0.525726 0.224166
vt 0.526306 0.230140
vt 0.530762 0.224276
vt 0.530443 0.230101
vt 0.531475 0.216191
vt 0.522678 0.235739
vt 0.525611 0.235800
vt 0.529626 0.235322
vt 0.523936 0.242567
vt 0.520939 0.242403
vt 0.528210 0.241774
vt 0.537663 0.234600
vt 0.536132 0.240649
vt 0.538457 0.230881
vt 0.548155 0.241114
vt 0.549408 0.235112
vt 0.550146 0.231336
vt 0.534790 0.249790
vt 0.527194 0.249858
vt 0.546868 0.250717
vt 0.562837 0.235578
vt 0.562122 0.241413
vt 0.561089 0.250705
vt 0.690425 0.204391
vt 0.690354 0.211556
vt 0.679138 0.211327
vt 0.678944 0.203923
vt 0.704271 0.204023
vt 0.704053 0.211854
vt 0.716857 0.203291
vt 0.716472 0.210742
vt 0.575502 0.242960
vt 0.574106 0.250107
vt 0.590511 0.241686
vt 0.586493 0.248745
vt 0.727104 0.200996
vt 0.724408 0.208263
vt 0.736032 0.202915
vt 0.733100 0.205101
vt 0.730106 0.204488
vt 0.729679 0.207676
vt 0.730399 0.212884
vt 0.724606 0.214900
vt 0.715806 0.216108
vt 0.732517 0.208050
vt 0.734922 0.210335
vt 0.731175 0.219300
vt 0.724668 0.221238
vt 0.737227 0.216789
vt 0.741187 0.214339
vt 0.735625 0.226112
vt 0.730382 0.226650
vt 0.740170 0.224594
vt 0.588150 0.235941
vt 0.594196 0.233115
vt 0.598596 0.242583
vt 0.603891 0.238298
vt 0.602428 0.232068
vt 0.744694 0.225021
vt 0.744765 0.218081
vt 0.745136 0.230808
vt 0.739176 0.232905
vt 0.733198 0.233689
vt 0.745797 0.234812
vt 0.739114 0.238734
vt 0.732043 0.240039
vt 0.727291 0.240749
vt 0.728072 0.233614
vt 0.722867 0.234247
vt 0.723860 0.227146
vt 0.722247 0.241098
vt 0.732398 0.244943
vt 0.726405 0.246230
vt 0.721205 0.247007
vt 0.714763 0.242123
vt 0.715189 0.234993
vt 0.713578 0.247356
vt 0.720997 0.252802
vt 0.712688 0.252111
vt 0.726037 0.252105
vt 0.718368 0.257925
vt 0.711680 0.257641
vt 0.589249 0.192274
vt 0.584710 0.187858
vt 0.590646 0.184486
vt 0.594405 0.187620
vt 0.580040 0.198126
vt 0.580686 0.192548
vt 0.577825 0.185061
vt 0.575643 0.193094
vt 0.701003 0.256044
vt 0.701985 0.251341
vt 0.564451 0.189840
vt 0.567598 0.184042
vt 0.572995 0.195875
vt 0.565038 0.195525
vt 0.551080 0.189627
vt 0.555554 0.182121
vt 0.551566 0.195035
vt 0.564984 0.199254
vt 0.551544 0.199472
vt 0.538977 0.195625
vt 0.539335 0.200067
vt 0.538073 0.187859
vt 0.551698 0.203330
vt 0.539332 0.203834
vt 0.565334 0.203758
vt 0.551140 0.208155
vt 0.539379 0.208701
vt 0.564890 0.209566
vt 0.550784 0.216726
vt 0.539294 0.216367
vt 0.564274 0.218031
vt 0.563721 0.226885
vt 0.550349 0.226346
vt 0.538944 0.225262
vt 0.531505 0.208663
vt 0.526523 0.208661
vt 0.531286 0.203130
vt 0.526921 0.202697
vt 0.531260 0.198631
vt 0.527360 0.197116
vt 0.524135 0.196683
vt 0.522967 0.190789
vt 0.525982 0.191277
vt 0.530844 0.192964
vt 0.523262 0.183859
vt 0.526031 0.184144
vt 0.521088 0.182611
vt 0.658590 0.248852
vt 0.660672 0.251210
vt 0.659212 0.255809
vt 0.657165 0.254389
vt 0.663984 0.252581
vt 0.661632 0.257349
vt 0.665827 0.259121
vt 0.667929 0.253115
vt 0.530475 0.185353
vt 0.676037 0.253572
vt 0.673616 0.260388
vt 0.687900 0.255289
vt 0.683528 0.263016
vt 0.669541 0.249258
vt 0.676768 0.249433
vt 0.688764 0.250912
vt 0.677240 0.246362
vt 0.689187 0.247446
vt 0.670169 0.246179
vt 0.702669 0.247169
vt 0.689664 0.243294
vt 0.703037 0.243066
vt 0.703431 0.235967
vt 0.690023 0.236757
vt 0.677520 0.242884
vt 0.677830 0.237150
vt 0.670402 0.243088
vt 0.670544 0.237254
vt 0.670944 0.229571
vt 0.678494 0.227891
vt 0.690356 0.226485
vt 0.690482 0.220558
vt 0.679057 0.220870
vt 0.671461 0.221701
vt 0.703583 0.220099
vt 0.703510 0.226396
vt 0.715501 0.226721
vt 0.715970 0.220833
vt 0.690456 0.215584
vt 0.703774 0.216070
vt 0.679242 0.216077
vt 0.671982 0.215447
vt 0.671620 0.209886
vt 0.671206 0.202947
vt 0.667618 0.209047
vt 0.667029 0.202024
vt 0.668443 0.215575
vt 0.522938 0.249819
vt 0.664637 0.208926
vt 0.664383 0.201941
vt 0.519547 0.249332
vt 0.517201 0.248955
vt 0.518390 0.242035
vt 0.661980 0.209486
vt 0.661955 0.202312
vt 0.520097 0.235555
vt 0.514119 0.248139
vt 0.515295 0.241433
vt 0.516656 0.234811
vt 0.512260 0.233878
vt 0.512902 0.228615
vt 0.511188 0.240056
vt 0.506887 0.232008
vt 0.507949 0.226892
vt 0.505889 0.237124
vt 0.655025 0.204515
vt 0.649960 0.208084
vt 0.648394 0.203723
vt 0.650324 0.201186
vt 0.510635 0.246716
vt 0.658907 0.210002
vt 0.655652 0.211313
vt 0.658548 0.203236
vt 0.650652 0.212947
vt 0.643639 0.212075
vt 0.642644 0.208425
vt 0.644262 0.216145
vt 0.656022 0.217201
vt 0.650869 0.218340
vt 0.644776 0.220613
vt 0.636158 0.222222
vt 0.636057 0.219312
vt 0.635888 0.216156
vt 0.627809 0.221378
vt 0.626929 0.220790
vt 0.627590 0.222629
vt 0.485218 0.220396
vt 0.485901 0.219686
vt 0.493007 0.226784
vt 0.490873 0.227154
vt 0.635312 0.213776
vt 0.486318 0.219007
vt 0.493910 0.224530
vt 0.500280 0.232415
vt 0.501329 0.228509
vt 0.479650 0.218806
vt 0.481550 0.218120
vt 0.480906 0.216892
vt 0.481226 0.216188
vt 0.486552 0.217638
vt 0.494636 0.221645
vt 0.486655 0.216582
vt 0.495125 0.218369
vt 0.481552 0.215474
vt 0.503067 0.220419
vt 0.502373 0.224515
vt 0.508819 0.221987
vt 0.513518 0.223266
vt 0.509616 0.216420
vt 0.503726 0.215822
vt 0.509938 0.210073
vt 0.503810 0.211085
vt 0.503473 0.206506
vt 0.495181 0.215373
vt 0.495087 0.212059
vt 0.494846 0.208676
vt 0.486905 0.213654
vt 0.487061 0.212284
vt 0.486762 0.215049
vt 0.481877 0.214674
vt 0.482024 0.213830
vt 0.479354 0.214585
vt 0.479434 0.214062
vt 0.479115 0.215153
vt 0.478850 0.215679
vt 0.477932 0.215200
vt 0.478124 0.214674
vt 0.477677 0.215632
vt 0.477953 0.216255
vt 0.478535 0.216239
vt 0.621252 0.221372
vt 0.622041 0.222152
vt 0.618877 0.222159
vt 0.618699 0.221523
vt 0.617675 0.222584
vt 0.617579 0.221974
vt 0.618846 0.222832
vt 0.621691 0.222922
vt 0.618895 0.223535
vt 0.617658 0.223199
vt 0.621960 0.223536
vt 0.627313 0.223905
vt 0.635636 0.225752
vt 0.626753 0.225380
vt 0.621975 0.224214
vt 0.635206 0.228483
vt 0.643561 0.231475
vt 0.644576 0.225999
vt 0.650813 0.225167
vt 0.649377 0.233102
vt 0.655563 0.224757
vt 0.654220 0.234275
vt 0.657818 0.233463
vt 0.659058 0.224250
vt 0.659461 0.216440
vt 0.660767 0.232517
vt 0.661987 0.223379
vt 0.662133 0.215840
vt 0.663793 0.231712
vt 0.664053 0.222723
vt 0.665225 0.215545
vt 0.667354 0.222453
vt 0.666820 0.230573
vt 0.666640 0.238156
vt 0.663200 0.239130
vt 0.666138 0.243785
vt 0.662893 0.244058
vt 0.660083 0.245583
vt 0.660526 0.240740
vt 0.655875 0.243451
vt 0.661908 0.248141
vt 0.517980 0.181765
vt 0.662080 0.246345
vt 0.665242 0.248907
vt 0.665794 0.246348
vt 0.619116 0.224060
vt 0.616892 0.222244
vt 0.476537 0.214661
vt 0.477222 0.214662
vt 0.477025 0.215104
vt 0.476382 0.215048
vt 0.616950 0.221644
vt 0.477470 0.214237
vt 0.478254 0.214140
vt 0.476798 0.214208
vt 0.616199 0.225011
vt 0.616028 0.224458
vt 0.477368 0.213704
vt 0.478202 0.213621
vt 0.479424 0.213450
vt 0.481931 0.213095
vt 0.617076 0.225655
vt 0.618163 0.226248
vt 0.620434 0.226917
vt 0.621502 0.226923
vt 0.624065 0.229262
vt 0.623979 0.229520
vt 0.486543 0.211400
vt 0.494291 0.205431
vt 0.486262 0.210403
vt 0.493551 0.202447
vt 0.563294 0.232100
vt 0.576378 0.226309
vt 0.576438 0.232428
vt 0.573825 0.219162
vt 0.576129 0.237236
vt 0.585878 0.229222
vt 0.583377 0.221945
vt 0.594162 0.223410
vt 0.587441 0.214630
vt 0.577149 0.213860
vt 0.579209 0.207595
vt 0.590366 0.206035
vt 0.593820 0.197539
vt 0.596164 0.214193
vt 0.598952 0.204722
vt 0.598238 0.192484
vt 0.602120 0.199730
vt 0.768976 0.016131
vt 0.774492 0.009774
vt 0.780054 0.015648
vt 0.773534 0.019513
vt 0.776238 0.023827
vt 0.783520 0.021156
vt 0.605662 0.196882
vt 0.602352 0.190760
vt 0.784025 0.026652
vt 0.776758 0.027907
vt 0.770680 0.027244
vt 0.769318 0.024590
vt 0.770991 0.029636
vt 0.776679 0.031211
vt 0.771721 0.031539
vt 0.783611 0.031267
vt 0.750837 0.230773
vt 0.750127 0.233494
vt 0.767350 0.031131
vt 0.769889 0.032900
vt 0.750571 0.228042
vt 0.753594 0.231403
vt 0.753584 0.229580
vt 0.767914 0.029446
vt 0.765072 0.032243
vt 0.765878 0.030142
vt 0.767170 0.027278
vt 0.766238 0.028692
vt 0.765664 0.025905
vt 0.766483 0.022458
vt 0.765031 0.027361
vt 0.763864 0.027301
vt 0.763628 0.025740
vt 0.763058 0.022107
vt 0.762321 0.026686
vt 0.760376 0.023889
vt 0.763393 0.028502
vt 0.764379 0.028685
vt 0.764457 0.030216
vt 0.761797 0.028774
vt 0.764968 0.029068
vt 0.759046 0.028522
vt 0.759565 0.031835
vt 0.755999 0.020183
vt 0.758816 0.016389
vt 0.754210 0.027673
vt 0.763377 0.015047
vt 0.602410 0.227637
vt 0.767310 0.005967
vt 0.738846 0.242757
vt 0.731747 0.250398
s 1
usemtl abyss_chancel_background_pbr
f 1/1/1 2/2/2 313/3/3 4/4/4
f 1/1/1 3/5/5 318/6/6 2/2/2
f 3/5/5 1/1/1 5/7/7 6/8/8
f 4/4/4 8/9/9 5/7/7 1/1/1
f 324/10/10 6/8/8 5/7/7 7/11/11
f 5/7/7 8/9/9 10/12/12 7/11/11
f 4/4/4 311/13/13 9/14/14 8/9/9
f 10/12/12 8/9/9 9/14/14 11/15/15
f 13/16/16 12/17/17 10/12/12 11/15/15
f 14/18/18 7/11/11 10/12/12 12/17/17
f 12/17/17 13/16/16 17/19/19 15/20/20
f 14/18/18 12/17/17 15/20/20 16/21/21
f 20/22/22 16/21/21 15/20/20 18/23/23
f 18/23/23 15/20/20 17/19/19 19/24/24
f 18/23/23 19/24/24 23/25/25 21/26/26
f 20/22/22 18/23/23 21/26/26 22/27/27
f 27/28/28 22/27/27 21/26/26 24/29/29
f 24/29/29 21/26/26 23/25/25 26/30/30
f 301/31/31 25/32/32 24/29/29 26/30/30
f 24/29/29 25/32/32 29/33/33 27/28/28
f 28/34/34 330/35/35 22/36/27 27/37/28
f 28/34/34 27/37/28 29/38/33 31/39/36
f 302/40/37 30/41/38 29/33/33 25/32/32
f 29/38/33 30/42/38 33/43/39 31/39/36
f 28/34/34 31/39/36 32/44/40 242/45/41
f 32/44/40 31/39/36 33/43/39 35/46/42
f 33/43/39 30/42/38 144/47/43 34/48/44
f 36/49/45 35/46/42 33/43/39 34/48/44
f 35/46/42 36/49/45 40/50/46 37/51/47
f 37/51/47 38/52/48 32/44/40 35/46/42
f 39/53/49 239/54/50 38/52/48 37/51/47
f 39/53/49 37/51/47 40/50/46 42/55/51
f 40/50/46 36/49/45 139/56/52 41/57/53
f 43/58/54 42/55/51 40/50/46 41/57/53
f 47/59/55 44/60/56 42/55/51 43/58/54
f 45/61/57 39/53/49 42/55/51 44/60/56
f 200/62/58 45/61/57 44/60/56 46/63/59
f 48/64/60 46/63/59 44/60/56 47/59/55
f 47/59/55 43/58/54 51/65/61 49/66/62
f 47/59/55 49/66/62 52/67/63 48/64/60
f 52/67/63 49/66/62 50/68/64 53/69/65
f 51/65/61 133/70/66 50/68/64 49/66/62
f 55/71/67 48/64/60 52/67/63 54/72/68
f 57/73/69 54/72/68 52/67/63 53/69/65
f 54/72/68 56/74/70 195/75/71 55/71/67
f 57/73/69 58/76/72 56/74/70 54/72/68
f 58/76/72 57/73/69 59/77/73 62/78/74
f 57/73/69 53/69/65 61/79/75 59/77/73
f 64/80/76 62/78/74 59/77/73 60/81/77
f 60/81/77 59/77/73 61/79/75 332/82/78
f 62/78/74 63/83/79 190/84/80 58/76/72
f 63/83/79 62/78/74 64/80/76 66/85/81
f 60/81/77 336/86/82 65/87/83 64/80/76
f 64/80/76 65/87/83 68/88/84 66/85/81
f 66/89/81 67/90/85 187/91/86 63/92/79
f 67/90/85 66/89/81 68/93/84 69/94/87
f 68/93/84 70/95/88 72/96/89 69/94/87
f 71/97/90 70/98/88 68/88/84 65/87/83
f 70/98/88 71/97/90 74/99/91 73/100/92
f 70/95/88 73/101/92 76/102/93 72/96/89
f 73/101/92 74/103/91 389/104/94 75/105/95
f 75/105/95 78/106/96 76/102/93 73/101/92
f 78/106/96 80/107/97 77/108/98 76/102/93
f 72/96/89 76/102/93 77/108/98 181/109/99
f 80/107/97 78/106/96 79/110/100 82/111/101
f 78/106/96 75/105/95 389/104/94 79/110/100
f 77/108/98 80/107/97 81/112/102 182/113/103
f 82/111/101 83/114/104 81/112/102 80/107/97
f 83/114/104 82/111/101 74/103/91 85/115/105
f 82/111/101 79/110/100 389/104/94 74/103/91
f 83/114/104 84/116/106 97/117/107 81/112/102
f 84/116/106 83/114/104 85/115/105 88/118/108
f 74/99/91 342/119/109 86/120/110 85/121/105
f 87/122/111 85/121/105 86/120/110 385/123/112
f 89/124/113 88/118/108 85/115/105 87/125/111
f 89/124/113 92/126/114 90/127/115 88/118/108
f 84/116/106 88/118/108 90/127/115 93/128/116
f 92/126/114 360/129/117 91/130/118 90/127/115
f 93/128/116 90/127/115 91/130/118 94/131/119
f 98/132/120 95/133/121 93/128/116 94/131/119
f 97/117/107 84/116/106 93/128/116 95/133/121
f 96/134/122 183/135/123 97/117/107 95/133/121
f 96/134/122 95/133/121 98/132/120 100/136/124
f 388/137/125 99/138/126 98/132/120 94/131/119
f 102/139/127 100/136/124 98/132/120 99/138/126
f 100/136/124 101/140/128 331/141/129 96/134/122
f 102/139/127 103/142/130 101/140/128 100/136/124
f 104/143/131 105/144/132 103/142/130 102/139/127
f 99/138/126 106/145/133 104/143/131 102/139/127
f 107/146/134 110/147/135 105/144/132 104/143/131
f 108/148/136 107/149/134 104/150/131 106/151/133
f 107/149/134 108/148/136 347/152/137 109/153/138
f 110/154/135 107/149/134 109/153/138 112/155/139
f 111/156/140 161/157/141 105/144/132 110/147/135
f 112/155/139 114/158/142 111/159/140 110/154/135
f 112/155/139 109/153/138 347/152/137 113/160/143
f 114/158/142 112/155/139 113/160/143 116/161/144
f 114/158/142 115/162/145 155/163/146 111/159/140
f 114/158/142 116/161/144 118/164/147 115/162/145
f 116/161/144 117/165/148 120/166/149 118/164/147
f 116/161/144 113/160/143 347/152/137 117/165/148
f 119/167/150 118/164/147 120/166/149 121/168/151
f 118/164/147 119/167/150 152/169/152 115/162/145
f 121/168/151 120/166/149 122/170/153 123/171/154
f 117/165/148 124/172/155 122/170/153 120/166/149
f 122/170/153 125/173/156 126/174/157 123/171/154
f 124/172/155 127/175/158 125/173/156 122/170/153
f 128/176/159 131/177/160 126/174/157 125/173/156
f 129/178/161 128/176/159 125/173/156 127/175/158
f 129/178/161 333/179/162 130/180/163 128/176/159
f 131/177/160 128/176/159 130/180/163 132/181/164
f 131/177/160 132/181/164 50/68/64 133/70/66
f 126/174/157 131/177/160 133/70/66 134/182/165
f 135/183/166 134/182/165 133/70/66 51/65/61
f 136/184/167 123/171/154 126/174/157 134/182/165
f 138/185/168 136/184/167 134/182/165 135/183/166
f 137/186/169 121/168/151 123/171/154 136/184/167
f 136/184/167 138/185/168 140/187/170 137/186/169
f 135/183/166 41/57/53 139/56/52 138/185/168
f 139/56/52 142/188/171 140/187/170 138/185/168
f 143/189/172 141/190/173 140/187/170 142/188/171
f 140/187/170 141/190/173 153/191/174 137/186/169
f 142/188/171 34/48/44 144/47/43 143/189/172
f 34/48/44 142/188/171 139/56/52 36/49/45
f 141/190/173 143/189/172 145/192/175 148/193/176
f 144/47/43 146/194/177 145/192/175 143/189/172
f 303/195/178 147/196/179 145/197/175 146/198/177
f 145/197/175 147/196/179 149/199/180 148/200/176
f 150/201/181 148/200/176 149/199/180 151/202/182
f 148/193/176 150/203/181 153/191/174 141/190/173
f 151/202/182 154/204/183 152/205/152 150/201/181
f 153/191/174 150/203/181 152/169/152 119/167/150
f 121/168/151 137/186/169 153/191/174 119/167/150
f 152/205/152 154/204/183 155/206/146 115/207/145
f 154/204/183 151/202/182 158/208/184 156/209/185
f 154/204/183 156/209/185 159/210/186 155/206/146
f 156/209/185 157/211/187 160/212/188 159/210/186
f 156/209/185 158/208/184 308/213/189 157/211/187
f 161/157/141 159/210/186 160/212/188 162/214/190
f 111/156/140 155/206/146 159/210/186 161/157/141
f 161/157/141 162/214/190 103/142/130 105/144/132
f 162/214/190 160/212/188 165/215/191 163/216/192
f 162/214/190 163/216/192 101/140/128 103/142/130
f 163/216/192 164/217/193 331/141/129 101/140/128
f 163/216/192 165/215/191 166/218/194 164/217/193
f 157/211/187 167/219/195 165/215/191 160/212/188
f 167/219/195 169/220/196 166/218/194 165/215/191
f 157/211/187 308/213/189 168/221/197 167/219/195
f 169/220/196 167/219/195 168/221/197 170/222/198
f 170/222/198 173/223/199 171/224/200 169/220/196
f 166/218/194 169/220/196 171/224/200 174/225/201
f 175/226/202 174/225/201 171/224/200 172/227/203
f 171/224/200 173/223/199 292/228/204 172/227/203
f 174/225/201 175/226/202 178/229/205 176/230/206
f 176/230/206 164/217/193 166/218/194 174/225/201
f 164/217/193 176/230/206 177/231/207 331/141/129
f 177/231/207 176/230/206 178/229/205 180/232/208
f 178/229/205 175/226/202 184/233/209 179/234/210
f 181/109/99 180/232/208 178/229/205 179/234/210
f 180/232/208 181/109/99 77/108/98 182/113/103
f 182/113/103 183/135/123 177/231/207 180/232/208
f 182/113/103 81/112/102 97/117/107 183/135/123
f 96/134/122 331/141/129 177/231/207 183/135/123
f 179/234/210 69/94/87 72/96/89 181/109/99
f 69/94/87 179/234/210 184/233/209 67/90/85
f 184/233/209 185/235/211 187/91/86 67/90/85
f 172/227/203 185/235/211 184/233/209 175/226/202
f 186/236/212 188/237/213 187/91/86 185/235/211
f 185/235/211 172/227/203 292/228/204 186/236/212
f 187/91/86 188/237/213 190/238/80 63/92/79
f 189/239/214 191/240/215 190/238/80 188/237/213
f 188/237/213 186/236/212 289/241/216 189/239/214
f 190/84/80 191/242/215 56/74/70 58/76/72
f 191/240/215 189/239/214 194/243/217 192/244/218
f 191/242/215 192/245/218 195/75/71 56/74/70
f 192/245/218 193/246/219 196/247/220 195/75/71
f 192/244/218 194/243/217 287/248/221 193/249/219
f 195/75/71 196/247/220 198/250/222 55/71/67
f 207/251/223 197/252/224 196/247/220 193/246/219
f 197/252/224 199/253/225 198/250/222 196/247/220
f 199/253/225 200/62/58 46/63/59 198/250/222
f 55/71/67 198/250/222 46/63/59 48/64/60
f 199/253/225 201/254/226 202/255/227 200/62/58
f 201/254/226 199/253/225 197/252/224 204/256/228
f 203/257/229 234/258/230 202/255/227 201/254/226
f 204/256/228 205/259/231 203/257/229 201/254/226
f 206/260/232 209/261/233 205/262/231 204/263/228
f 197/252/224 207/251/223 206/264/232 204/256/228
f 288/265/234 208/266/235 206/260/232 207/267/223
f 211/268/236 209/261/233 206/260/232 208/266/235
f 210/269/237 222/270/238 205/262/231 209/261/233
f 209/261/233 211/268/236 213/271/239 210/269/237
f 208/266/235 278/272/240 212/273/241 211/268/236
f 212/273/241 214/274/242 213/271/239 211/268/236
f 217/275/243 215/276/244 213/271/239 214/274/242
f 213/271/239 215/276/244 218/277/245 210/269/237
f 216/278/246 219/279/247 218/277/245 215/276/244
f 215/276/244 217/275/243 267/280/248 216/278/246
f 219/281/247 223/282/249 220/283/250 218/284/245
f 210/269/237 218/277/245 220/285/250 222/270/238
f 223/282/249 225/286/251 221/287/252 220/283/250
f 222/288/238 220/283/250 221/287/252 235/289/253
f 219/281/247 259/290/254 224/291/255 223/282/249
f 225/286/251 223/282/249 224/291/255 226/292/256
f 225/286/251 226/292/256 229/293/257 227/294/258
f 225/286/251 227/294/258 230/295/259 221/287/252
f 228/296/260 231/297/261 230/295/259 227/294/258
f 227/294/258 229/293/257 253/298/262 228/296/260
f 230/295/259 231/297/261 233/299/263 232/300/264
f 235/289/253 221/287/252 230/295/259 232/300/264
f 234/258/230 232/300/264 233/299/263 236/301/265
f 232/300/264 234/258/230 203/257/229 235/289/253
f 222/288/238 235/289/253 203/257/229 205/259/231
f 234/258/230 236/301/265 238/302/266 202/255/227
f 236/301/265 237/303/267 239/54/50 238/302/266
f 236/301/265 233/299/263 240/304/268 237/303/267
f 200/62/58 202/255/227 238/302/266 45/61/57
f 45/61/57 238/302/266 239/54/50 39/53/49
f 237/303/267 241/305/269 38/52/48 239/54/50
f 237/303/267 240/304/268 243/306/270 241/305/269
f 241/305/269 242/45/41 32/44/40 38/52/48
f 241/305/269 243/306/270 244/307/271 242/45/41
f 248/308/272 245/309/273 243/306/270 240/304/268
f 245/309/273 246/310/274 244/307/271 243/306/270
f 245/309/273 247/311/275 327/312/276 246/310/274
f 248/308/272 249/313/277 247/311/275 245/309/273
f 231/297/261 228/296/260 249/313/277 248/308/272
f 231/297/261 248/308/272 240/304/268 233/299/263
f 250/314/278 251/315/279 247/311/275 249/313/277
f 253/298/262 250/314/278 249/313/277 228/296/260
f 250/314/278 252/316/280 322/317/281 251/315/279
f 252/316/280 250/314/278 253/298/262 254/318/282
f 256/319/283 254/318/282 253/298/262 229/293/257
f 254/318/282 255/320/284 316/321/285 252/316/280
f 255/320/284 254/318/282 256/319/283 257/322/286
f 260/323/287 257/322/286 256/319/283 258/324/288
f 226/292/256 258/324/288 256/319/283 229/293/257
f 259/325/254 261/326/289 260/327/287 258/328/288
f 258/324/288 226/292/256 224/291/255 259/290/254
f 263/329/290 257/330/286 260/327/287 262/331/291
f 265/332/292 262/331/291 260/327/287 261/326/289
f 262/331/291 264/333/293 312/334/294 263/329/290
f 265/332/292 266/335/295 264/333/293 262/331/291
f 266/335/295 265/332/292 267/280/248 268/336/296
f 267/280/248 265/332/292 261/326/289 216/278/246
f 270/337/297 268/336/296 267/280/248 217/275/243
f 268/336/296 269/338/298 309/339/299 266/335/295
f 269/338/298 268/336/296 270/337/297 271/340/300
f 273/341/301 271/340/300 270/337/297 272/342/302
f 214/274/242 272/342/302 270/337/297 217/275/243
f 272/342/302 214/274/242 212/273/241 274/343/303
f 274/343/303 275/344/304 273/341/301 272/342/302
f 275/344/304 274/343/303 276/345/305 277/346/306
f 276/345/305 274/343/303 212/273/241 278/272/240
f 280/347/307 277/346/306 276/345/305 279/348/308
f 281/349/309 279/348/308 276/345/305 278/272/240
f 284/350/310 280/347/307 279/348/308 282/351/311
f 285/352/312 282/351/311 279/348/308 281/349/309
f 293/353/313 284/350/310 282/351/311 283/354/314
f 286/355/315 283/354/314 282/351/311 285/352/312
f 285/352/312 281/349/309 288/265/234 287/248/221
f 286/355/315 285/352/312 287/248/221 194/243/217
f 193/249/219 287/248/221 288/265/234 207/267/223
f 278/272/240 208/266/235 288/265/234 281/349/309
f 283/354/314 286/355/315 289/241/216 290/356/316
f 289/241/216 286/355/315 194/243/217 189/239/214
f 292/228/204 290/356/316 289/241/216 186/236/212
f 290/356/316 291/357/317 293/353/313 283/354/314
f 291/357/317 290/356/316 292/228/204 173/223/199
f 294/358/318 296/359/319 293/353/313 291/357/317
f 173/223/199 170/222/198 294/358/318 291/357/317
f 168/221/197 295/360/320 294/358/318 170/222/198
f 295/360/320 297/361/321 296/359/319 294/358/318
f 299/362/322 298/363/323 296/359/319 297/361/321
f 298/363/323 284/350/310 293/353/313 296/359/319
f 299/362/322 303/195/178 300/364/324 298/363/323
f 284/350/310 298/363/323 300/364/324 280/347/307
f 277/346/306 280/347/307 300/364/324 301/31/31
f 25/32/32 301/31/31 300/364/324 302/40/37
f 146/198/177 302/40/37 300/364/324 303/195/178
f 299/362/322 304/365/325 147/196/179 303/195/178
f 302/366/37 146/194/177 144/47/43 30/42/38
f 277/346/306 301/31/31 26/30/30 275/344/304
f 299/362/322 297/361/321 306/367/326 304/365/325
f 304/365/325 305/368/327 149/199/180 147/196/179
f 305/368/327 304/365/325 306/367/326 307/369/328
f 295/360/320 307/369/328 306/367/326 297/361/321
f 307/369/328 295/360/320 168/221/197 308/213/189
f 305/368/327 307/369/328 308/213/189 158/208/184
f 149/199/180 305/368/327 158/208/184 151/202/182
f 26/30/30 23/25/25 273/341/301 275/344/304
f 19/24/24 271/340/300 273/341/301 23/25/25
f 271/340/300 19/24/24 17/19/19 269/338/298
f 17/19/19 13/16/16 309/339/299 269/338/298
f 309/339/299 310/370/329 264/333/293 266/335/295
f 11/15/15 310/370/329 309/339/299 13/16/16
f 310/370/329 311/13/13 312/334/294 264/333/293
f 310/370/329 11/15/15 9/14/14 311/13/13
f 311/13/13 4/4/4 313/3/3 312/334/294
f 312/334/294 313/3/3 314/371/330 263/329/290
f 2/372/2 315/373/331 314/374/330 313/375/3
f 314/374/330 315/373/331 316/321/285 255/320/284
f 257/330/286 263/329/290 314/371/330 255/376/284
f 317/377/332 320/378/333 316/321/285 315/373/331
f 315/373/331 2/372/2 318/379/6 317/377/332
f 319/380/334 317/381/332 318/6/6 3/5/5
f 320/378/333 317/377/332 319/382/334 321/383/335
f 320/378/333 321/383/335 323/384/336 322/317/281
f 316/321/285 320/378/333 322/317/281 252/316/280
f 251/315/279 322/317/281 323/384/336 325/385/337
f 321/386/335 6/8/8 324/10/10 323/387/336
f 325/388/337 323/387/336 324/10/10 326/389/338
f 325/388/337 326/389/338 328/390/339 327/391/276
f 251/315/279 325/385/337 327/312/276 247/311/275
f 246/310/274 327/312/276 328/392/339 329/393/340
f 326/389/338 14/18/18 16/21/21 328/390/339
f 329/393/340 328/392/339 16/394/21 20/395/22
f 329/393/340 20/395/22 22/36/27 330/35/35
f 246/310/274 329/393/340 330/35/35 244/307/271
f 242/45/41 244/307/271 330/35/35 28/34/34
f 14/18/18 326/389/338 324/10/10 7/11/11
f 6/8/8 321/386/335 319/380/334 3/5/5
f 219/279/247 216/278/246 261/326/289 259/325/254
f 41/57/53 135/183/166 51/65/61 43/58/54
f 50/68/64 132/181/164 61/79/75 53/69/65
f 61/79/75 132/181/164 130/180/163 332/82/78
f 130/180/163 333/179/162 335/396/341 332/82/78
f 333/179/162 334/397/342 337/398/343 335/396/341
f 333/179/162 129/178/161 345/399/344 334/397/342
f 337/398/343 338/400/345 336/86/82 335/396/341
f 332/82/78 335/396/341 336/86/82 60/81/77
f 342/119/109 338/400/345 337/398/343 339/401/346
f 341/402/347 339/401/346 337/398/343 334/397/342
f 340/403/348 86/120/110 342/119/109 339/401/346
f 341/402/347 343/404/349 340/403/348 339/401/346
f 338/400/345 342/119/109 74/99/91 71/97/90
f 341/402/347 344/405/350 346/406/351 343/404/349
f 341/402/347 334/397/342 345/399/344 344/405/350
f 127/175/158 344/405/350 345/399/344 129/178/161
f 344/405/350 127/175/158 124/172/155 346/406/351
f 343/404/349 346/406/351 347/152/137 348/407/352
f 124/172/155 117/165/148 347/152/137 346/406/351
f 350/408/353 348/407/352 347/152/137 108/148/136
f 348/407/352 349/409/354 340/403/348 343/404/349
f 348/407/352 350/408/353 352/410/355 349/409/354
f 350/408/353 108/148/136 106/151/133 351/411/356
f 352/410/355 350/408/353 351/411/356 354/412/357
f 387/413/358 349/414/354 352/415/355 353/416/359
f 356/417/360 353/416/359 352/415/355 354/418/357
f 355/419/361 354/412/357 351/411/356 388/420/125
f 355/421/361 358/422/362 356/417/360 354/418/357
f 357/423/363 369/424/364 353/416/359 356/417/360
f 358/422/362 359/425/365 357/423/363 356/417/360
f 358/422/362 360/426/117 361/427/366 359/425/365
f 360/426/117 358/422/362 355/421/361 91/428/118
f 92/126/114 362/429/367 361/430/366 360/129/117
f 364/431/368 359/425/365 361/427/366 362/432/367
f 92/126/114 89/124/113 363/433/369 362/429/367
f 364/434/368 362/429/367 363/433/369 365/435/370
f 359/425/365 364/431/368 366/436/371 357/423/363
f 366/436/371 364/431/368 365/437/370 367/438/372
f 369/424/364 357/423/363 366/436/371 368/439/373
f 370/440/374 368/439/373 366/436/371 367/438/372
f 368/439/373 371/441/375 373/442/376 369/424/364
f 370/440/374 372/443/377 371/441/375 368/439/373
f 372/443/377 377/444/378 374/445/379 371/441/375
f 374/445/379 375/446/380 373/442/376 371/441/375
f 376/447/381 384/448/382 375/446/380 374/445/379
f 377/444/378 378/449/383 376/447/381 374/445/379
f 377/444/378 372/443/377 380/450/384 378/449/383
f 378/449/383 379/451/385 382/452/386 376/447/381
f 379/451/385 378/449/383 380/450/384 381/453/387
f 372/443/377 370/440/374 381/453/387 380/450/384
f 367/438/372 379/451/385 381/453/387 370/440/374
f 379/451/385 367/438/372 365/437/370 382/452/386
f 382/452/386 383/454/388 384/448/382 376/447/381
f 365/437/370 363/455/369 383/454/388 382/452/386
f 87/456/111 385/457/112 384/448/382 383/454/388
f 89/458/113 87/456/111 383/454/388 363/455/369
f 385/457/112 386/459/389 375/446/380 384/448/382
f 385/123/112 86/120/110 340/403/348 386/460/389
f 387/413/358 386/459/389 340/461/348 349/414/354
f 386/459/389 387/413/358 373/442/376 375/446/380
f 373/442/376 387/413/358 353/416/359 369/424/364
f 94/131/119 91/130/118 355/462/361 388/137/125
f 388/137/125 351/463/356 106/145/133 99/138/126
f 338/400/345 71/97/90 65/87/83 336/86/82
