# Blender 5.2.0 LTS
# www.blender.org
mtllib terrain-abyss-chancel-object-034.mtl
o terrain-abyss-chancel-object-034
v -0.666021 0.430630 0.115517
v -0.668069 0.431610 0.118637
v -0.666109 0.429706 0.115617
v -0.672116 0.427697 0.115724
v -0.672241 0.430303 0.113710
v -0.678278 0.427115 0.114619
v -0.673207 0.430125 0.118539
v -0.673188 0.432648 0.116353
v -0.679132 0.429162 0.116858
v -0.679153 0.431571 0.114645
v -0.685628 0.428152 0.115347
v -0.692480 0.427020 0.113679
v -0.684706 0.426325 0.113210
v -0.685353 0.430337 0.112804
v -0.684486 0.428588 0.110724
v -0.692462 0.429174 0.111024
v -0.699867 0.427540 0.109129
v -0.691616 0.427157 0.108951
v -0.691709 0.424988 0.111939
v -0.698909 0.425545 0.107042
v -0.706345 0.423573 0.104850
v -0.699062 0.422980 0.110269
v -0.700092 0.425337 0.112374
v -0.706608 0.421024 0.108790
v -0.713231 0.418680 0.107319
v -0.707744 0.423723 0.110782
v -0.707472 0.426167 0.107070
v -0.714848 0.421871 0.109378
v -0.721153 0.420067 0.108516
v -0.715005 0.424726 0.105262
v -0.721608 0.422976 0.104060
v -0.713489 0.421694 0.103088
v -0.719832 0.419502 0.101277
v -0.725887 0.416847 0.100260
v -0.719257 0.416388 0.105979
v -0.724198 0.413846 0.105702
v -0.726612 0.417931 0.108083
v -0.728663 0.411221 0.106584
v -0.731332 0.413722 0.101199
v -0.731556 0.409223 0.107975
v -0.731167 0.415291 0.108162
v -0.732742 0.418339 0.103632
v -0.736281 0.413552 0.106952
v -0.737172 0.416269 0.102213
v -0.736755 0.412019 0.102326
v -0.733497 0.410954 0.103465
v -0.735577 0.414174 0.100145
v -0.727771 0.420977 0.103403
v -0.678300 0.429612 0.112304
v -0.667080 0.432744 0.117654
vn 0.2365 -0.9716 -0.0098
vn 0.5954 -0.7130 0.3704
vn 0.2364 -0.0623 0.9697
vn -0.0898 -0.1029 0.9906
vn 0.6131 -0.1918 -0.7664
vn 0.6076 0.7373 0.2952
vn 0.2481 0.0836 -0.9651
vn 0.1316 -0.9907 -0.0347
vn 0.2040 0.0896 -0.9749
vn -0.2535 -0.0702 0.9648
vn -0.0897 0.9950 0.0439
vn -0.1779 0.9835 0.0314
vn -0.2349 -0.0082 0.9720
vn -0.1657 0.9860 -0.0207
vn 0.1611 -0.9867 0.0200
vn -0.2155 0.0704 0.9740
vn -0.1697 0.9836 -0.0607
vn 0.1979 -0.9740 0.1101
vn 0.2260 0.0355 -0.9735
vn 0.2500 -0.0125 -0.9682
vn -0.1658 0.9805 -0.1051
vn 0.2767 -0.0358 -0.9603
vn -0.2113 0.1067 0.9716
vn 0.2279 -0.9634 0.1410
vn 0.2940 -0.0828 -0.9522
vn 0.2366 -0.9517 0.1956
vn -0.1598 0.9752 -0.1533
vn -0.2153 0.1573 0.9638
vn 0.2841 -0.9348 0.2131
vn -0.2005 0.1711 0.9646
vn 0.2895 -0.0827 -0.9536
vn -0.1884 0.9656 -0.1790
vn -0.1580 0.2059 0.9657
vn -0.2554 0.9483 -0.1886
vn 0.3696 -0.9071 0.2014
vn 0.2455 -0.0830 -0.9658
vn -0.4080 0.8882 -0.2113
vn 0.0977 -0.1502 -0.9838
vn 0.4462 -0.8655 0.2277
vn -0.1076 0.2707 0.9566
vn 0.4502 -0.8268 0.3372
vn 0.1450 -0.3089 -0.9400
vn -0.1338 0.3024 0.9437
vn 0.0241 -0.8470 0.5311
vn -0.0940 -0.9202 -0.3800
vn -0.7538 -0.0452 0.6556
vn -0.4134 0.9014 -0.1289
vn -0.7486 0.6174 -0.2417
vn -0.3328 -0.0518 -0.9416
vn -0.6942 -0.6388 -0.3318
vt 0.367313 0.961187
vt 0.367068 0.958086
vt 0.369512 0.958571
vt 0.369453 0.961286
vt 0.005109 0.972423
vt 0.005339 0.972024
vt 0.005807 0.973832
vt 0.005072 0.974327
vt 0.365375 0.961095
vt 0.366487 0.958006
vt 0.367000 0.964210
vt 0.365101 0.964275
vt 0.368767 0.964422
vt 0.363015 0.958408
vt 0.363956 0.957348
vt 0.364674 0.957789
vt 0.364069 0.959783
vt 0.352738 0.013685
vt 0.352708 0.015350
vt 0.349723 0.015463
vt 0.349763 0.013679
vt 0.346610 0.013760
vt 0.346688 0.015682
vt 0.367105 0.967603
vt 0.368943 0.967670
vt 0.343263 0.014291
vt 0.343168 0.016025
vt 0.343247 0.012882
vt 0.346594 0.012433
vt 0.349789 0.017218
vt 0.346747 0.017297
vt 0.343197 0.017780
vt 0.339477 0.016316
vt 0.339458 0.017989
vt 0.339491 0.014163
vt 0.365400 0.967579
vt 0.366814 0.971268
vt 0.364940 0.971256
vt 0.343036 0.019709
vt 0.339474 0.020384
vt 0.335727 0.018336
vt 0.335672 0.020831
vt 0.335729 0.016395
vt 0.339646 0.012364
vt 0.335934 0.012045
vt 0.335735 0.013981
vt 0.332488 0.011649
vt 0.332259 0.013810
vt 0.332344 0.021360
vt 0.332232 0.018539
vt 0.332067 0.016426
vt 0.329007 0.013793
vt 0.328737 0.016341
vt 0.329288 0.011498
vt 0.328979 0.018721
vt 0.329361 0.021433
vt 0.325601 0.016443
vt 0.325872 0.019006
vt 0.326723 0.022016
vt 0.326129 0.013577
vt 0.326628 0.011043
vt 0.324262 0.022415
vt 0.322659 0.019417
vt 0.323639 0.013137
vt 0.324134 0.010726
vt 0.081411 0.023040
vt 0.080988 0.025377
vt 0.079447 0.023273
vt 0.078295 0.019402
vt 0.322340 0.010540
vt 0.321268 0.012011
vt 0.322941 0.016295
vt 0.073503 0.025241
vt 0.074169 0.021022
vt 0.076221 0.022332
vt 0.076752 0.025255
vt 0.077712 0.021742
vt 0.078044 0.023100
vt 0.352761 0.017033
s 1
usemtl abyss_chancel_background_pbr
f 4/1/1 1/2/2 2/3/3 7/4/4
f 1/5/2 3/6/5 50/7/6 2/8/3
f 5/9/7 3/10/5 1/2/2 4/1/1
f 5/9/7 4/1/1 6/11/8 49/12/9
f 4/1/1 7/4/4 9/13/10 6/11/8
f 7/14/4 2/15/3 50/16/6 8/17/11
f 7/18/4 8/19/11 10/20/12 9/21/10
f 11/22/13 9/21/10 10/20/12 14/23/14
f 13/24/15 6/11/8 9/13/10 11/25/13
f 12/26/16 11/22/13 14/23/14 16/27/17
f 11/22/13 12/26/16 19/28/18 13/29/15
f 10/20/12 49/30/9 15/31/19 14/23/14
f 16/27/17 14/23/14 15/31/19 18/32/20
f 17/33/21 16/27/17 18/32/20 20/34/22
f 16/27/17 17/33/21 23/35/23 12/26/16
f 15/36/19 13/24/15 19/37/18 18/38/20
f 20/34/22 18/32/20 19/39/18 22/40/24
f 21/41/25 20/34/22 22/40/24 24/42/26
f 20/34/22 21/41/25 27/43/27 17/33/21
f 19/28/18 12/26/16 23/35/23 22/44/24
f 24/45/26 22/44/24 23/35/23 26/46/28
f 25/47/29 24/45/26 26/46/28 28/48/30
f 24/42/26 25/49/29 32/50/31 21/41/25
f 23/35/23 17/33/21 27/43/27 26/46/28
f 28/48/30 26/46/28 27/43/27 30/51/32
f 29/52/33 28/48/30 30/51/32 31/53/34
f 28/48/30 29/52/33 35/54/35 25/47/29
f 31/53/34 30/51/32 32/50/31 33/55/36
f 27/43/27 21/41/25 32/50/31 30/51/32
f 32/50/31 25/49/29 35/56/35 33/55/36
f 48/57/37 31/53/34 33/55/36 34/58/38
f 34/58/38 33/55/36 35/56/35 36/59/39
f 35/54/35 29/52/33 37/60/40 36/61/39
f 36/59/39 38/62/41 39/63/42 34/58/38
f 36/61/39 37/60/40 41/64/43 38/65/41
f 38/66/41 40/67/44 46/68/45 39/69/42
f 40/70/44 38/65/41 41/64/43 43/71/46
f 48/57/37 42/72/47 41/64/43 37/60/40
f 41/73/43 42/74/47 44/75/48 43/76/46
f 43/76/46 44/75/48 47/77/49 45/78/50
f 43/76/46 45/78/50 46/68/45 40/67/44
f 47/77/49 39/69/42 46/68/45 45/78/50
f 44/75/48 42/74/47 39/69/42 47/77/49
f 48/57/37 34/58/38 39/63/42 42/72/47
f 31/53/34 48/57/37 37/60/40 29/52/33
f 6/11/8 13/24/15 15/36/19 49/12/9
f 5/79/7 49/30/9 10/20/12 8/19/11
f 5/9/7 8/17/11 50/16/6 3/10/5
