# Blender 5.2.0 LTS
# www.blender.org
mtllib terrain-abyss-chancel-object-020.mtl
o terrain-abyss-chancel-object-020
v -0.807290 0.025643 0.117273
v -0.805740 0.024124 0.117119
v -0.805254 0.026676 0.118745
v -0.808733 0.023543 0.118126
v -0.809396 0.026755 0.118515
v -0.810481 0.024776 0.118229
v -0.810489 0.026252 0.120094
v -0.807219 0.027906 0.120558
v -0.808486 0.026652 0.122538
v -0.805426 0.028094 0.122137
v -0.803791 0.026835 0.121313
v -0.805785 0.026532 0.124255
v -0.803781 0.025856 0.124104
v -0.805403 0.024255 0.124212
v -0.804319 0.023629 0.122962
v -0.808263 0.024277 0.123041
v -0.807254 0.022911 0.121486
v -0.810568 0.024468 0.120616
v -0.809192 0.023044 0.120414
v -0.806393 0.022861 0.119033
v -0.803744 0.023518 0.120246
v -0.804295 0.024037 0.118020
vn -0.3837 -0.6554 -0.6506
vn 0.0054 0.2737 -0.9618
vn 0.2753 -0.2992 -0.9136
vn 0.0629 -0.9434 -0.3258
vn 0.4951 0.6549 -0.5710
vn 0.7091 -0.2716 -0.6507
vn -0.5012 0.6769 -0.5391
vn -0.1186 0.9879 -0.1000
vn -0.7851 -0.1664 -0.5966
vn -0.8442 0.5110 0.1620
vn -0.9093 -0.3165 0.2702
vn -0.5836 0.5368 0.6093
vn -0.0172 0.4675 0.8838
vn 0.1771 0.9640 0.1985
vn 0.8366 0.5449 -0.0564
vn 0.7542 0.1515 0.6390
vn -0.0565 -0.4517 0.8904
vn 0.5553 -0.6954 0.4561
vn -0.5186 -0.3965 0.7576
vn -0.1303 -0.9559 0.2632
vn -0.4477 -0.8882 0.1031
vn 0.8081 -0.5643 -0.1689
vt 0.457536 0.967601
vt 0.459621 0.968639
vt 0.458360 0.968943
vt 0.456783 0.969054
vt 0.459650 0.971009
vt 0.458382 0.969618
vt 0.614750 0.978775
vt 0.616258 0.978003
vt 0.616201 0.979508
vt 0.614915 0.980834
vt 0.617818 0.978521
vt 0.617188 0.979262
vt 0.616697 0.980274
vt 0.617504 0.980228
vt 0.616421 0.981618
vt 0.456478 0.974316
vt 0.457102 0.972907
vt 0.458410 0.973066
vt 0.459116 0.973796
vt 0.458449 0.971625
vt 0.457317 0.972107
vt 0.456375 0.972044
vt 0.456695 0.971246
vt 0.455458 0.972581
vt 0.455255 0.970356
vt 0.618008 0.981649
vt 0.618364 0.980008
vt 0.619134 0.980711
vt 0.619194 0.978824
vt 0.457439 0.970200
s 1
usemtl abyss_chancel_background_pbr
f 4/1/1 1/2/2 2/3/3 20/4/4
f 1/2/2 3/5/5 22/6/6 2/3/3
f 3/7/5 1/8/2 5/9/7 8/10/8
f 1/8/2 4/11/1 6/12/9 5/9/7
f 7/13/10 5/9/7 6/12/9 18/14/11
f 8/10/8 5/9/7 7/13/10 9/15/12
f 9/16/12 12/17/13 10/18/14 8/19/8
f 3/5/5 8/19/8 10/18/14 11/20/15
f 10/18/14 12/17/13 13/21/16 11/20/15
f 13/21/16 12/17/13 14/22/17 15/23/18
f 9/16/12 16/24/19 14/22/17 12/17/13
f 17/25/20 15/23/18 14/22/17 16/24/19
f 16/26/19 9/15/12 7/13/10 18/14/11
f 16/26/19 18/14/11 19/27/21 17/28/20
f 6/12/9 4/11/1 19/27/21 18/14/11
f 20/29/4 17/28/20 19/27/21 4/11/1
f 21/30/22 15/23/18 17/25/20 20/4/4
f 20/4/4 2/3/3 22/6/6 21/30/22
f 21/30/22 11/20/15 13/21/16 15/23/18
f 11/20/15 21/30/22 22/6/6 3/5/5
