# Blender 5.2.0 LTS
# www.blender.org
mtllib terrain-abyss-chancel-object-030.mtl
o terrain-abyss-chancel-object-030
v -0.739742 0.878072 -0.045500
v -0.736778 0.883946 -0.042843
v -0.735929 0.881242 -0.052062
v -0.744877 0.878361 -0.050426
v -0.744734 0.879287 -0.041339
v -0.741643 0.884166 -0.039716
v -0.747618 0.881598 -0.039041
v -0.749554 0.880737 -0.044611
v -0.750207 0.884829 -0.041004
v -0.750841 0.884744 -0.046670
v -0.748917 0.888784 -0.044933
v -0.747799 0.884777 -0.052821
v -0.743331 0.885092 -0.056433
v -0.744121 0.889636 -0.050093
v -0.739143 0.888372 -0.053714
v -0.739559 0.889667 -0.045917
v -0.735428 0.889140 -0.049498
v -0.744508 0.889218 -0.042162
v -0.748286 0.888449 -0.039210
v -0.746639 0.884901 -0.037009
v -0.733675 0.883779 -0.047996
v -0.740083 0.880491 -0.054424
vn 0.3379 -0.9061 0.2544
vn 0.7276 -0.0359 0.6851
vn 0.5059 0.0200 0.8624
vn -0.0346 -0.8321 0.5536
vn 0.7358 -0.4774 -0.4804
vn 0.9940 -0.0680 0.0860
vn -0.3387 -0.8682 -0.3627
vn 0.1903 -0.5962 -0.7800
vn -0.7767 -0.6296 0.0196
vn -0.0538 0.0563 0.9970
vn -0.3801 -0.5705 0.7281
vn -0.9196 0.0281 0.3918
vn -0.9635 0.0713 -0.2582
vn -0.7280 0.0863 -0.6802
vn -0.6579 0.7499 -0.0690
vn -0.2865 0.9096 -0.3008
vn -0.1926 0.1254 -0.9732
vn 0.3030 0.6456 -0.7009
vn 0.3272 0.8927 0.3099
vn 0.0901 0.8950 0.4369
vn 0.7038 0.6995 -0.1243
vn -0.3650 0.6811 0.6347
vt 0.013114 0.083837
vt 0.008945 0.082313
vt 0.009728 0.080086
vt 0.012460 0.079732
vt 0.010422 0.087678
vt 0.008611 0.085146
vt 0.436585 0.017877
vt 0.437693 0.021028
vt 0.433816 0.021310
vt 0.432790 0.019275
vt 0.014621 0.075909
vt 0.015060 0.082250
vt 0.009874 0.078128
vt 0.011834 0.077769
vt 0.011129 0.076145
vt 0.440823 0.023227
vt 0.439681 0.025210
vt 0.436448 0.024355
vt 0.008376 0.075300
vt 0.011473 0.074107
vt 0.435931 0.027388
vt 0.439400 0.027667
vt 0.433572 0.024300
vt 0.432803 0.027014
vt 0.435642 0.030350
vt 0.438968 0.030162
vt 0.432802 0.029811
vt 0.005545 0.081970
vt 0.005408 0.077330
vt 0.005231 0.084761
vt 0.008926 0.076877
vt 0.005159 0.087625
vt 0.009852 0.089895
vt 0.005974 0.090383
s 1
usemtl abyss_chancel_background_pbr
f 1/1/1 2/2/2 6/3/3 5/4/4
f 1/1/1 3/5/5 21/6/6 2/2/2
f 1/7/1 4/8/7 22/9/8 3/10/5
f 1/1/1 5/4/4 8/11/9 4/12/7
f 6/3/3 20/13/10 7/14/11 5/4/4
f 8/11/9 5/4/4 7/14/11 9/15/12
f 4/8/7 8/16/9 10/17/13 12/18/14
f 9/15/12 11/19/15 10/20/13 8/11/9
f 14/21/16 12/18/14 10/17/13 11/22/15
f 12/18/14 13/23/17 22/9/8 4/8/7
f 14/21/16 15/24/18 13/23/17 12/18/14
f 16/25/19 14/21/16 11/22/15 18/26/20
f 14/21/16 16/25/19 17/27/21 15/24/18
f 2/2/2 16/28/19 18/29/20 6/3/3
f 16/28/19 2/2/2 21/6/6 17/30/21
f 11/19/15 9/15/12 19/31/22 18/29/20
f 18/29/20 19/31/22 20/13/10 6/3/3
f 19/31/22 9/15/12 7/14/11 20/13/10
f 15/32/18 17/30/21 21/6/6 3/5/5
f 15/32/18 3/5/5 22/33/8 13/34/17
