# Blender 5.2.0 LTS
# www.blender.org
mtllib terrain-abyss-chancel-object-062.mtl
o terrain-abyss-chancel-object-062
v -0.167201 0.184216 0.076183
v -0.167070 0.184363 0.075419
v -0.167616 0.183413 0.075539
v -0.168119 0.184365 0.076155
v -0.167982 0.184768 0.075477
v -0.168529 0.183424 0.075750
v -0.169048 0.184539 0.076088
v -0.169005 0.184757 0.075556
v -0.169397 0.183643 0.075854
v -0.169974 0.184039 0.075931
v -0.169632 0.183600 0.074923
v -0.170049 0.184499 0.075010
v -0.169822 0.183866 0.073872
v -0.168786 0.183447 0.074832
v -0.167895 0.183382 0.074644
v -0.168969 0.183581 0.073801
v -0.168983 0.183915 0.072805
v -0.168084 0.183433 0.073682
v -0.167184 0.183618 0.073528
v -0.168208 0.183756 0.072712
v -0.167410 0.183919 0.072585
v -0.168326 0.184009 0.071946
v -0.167934 0.184325 0.071801
v -0.168857 0.184251 0.071896
v -0.168426 0.184613 0.071544
v -0.169439 0.184534 0.071981
v -0.169000 0.184943 0.071362
v -0.169848 0.185265 0.072246
v -0.169776 0.184154 0.072898
v -0.170057 0.185084 0.073091
v -0.169044 0.185338 0.073045
v -0.170201 0.184887 0.073987
v -0.169089 0.185330 0.073941
v -0.167932 0.185150 0.073791
v -0.169063 0.185069 0.074779
v -0.167917 0.185124 0.074655
v -0.166981 0.184543 0.074535
v -0.167050 0.183508 0.074444
v -0.167046 0.184621 0.073614
v -0.167308 0.184636 0.072720
v -0.167565 0.184669 0.071931
v -0.167983 0.185168 0.072906
v -0.168172 0.184979 0.071995
v -0.168978 0.185207 0.072130
v -0.166877 0.183423 0.075241
vn 0.2134 0.8963 0.3886
vn 0.1231 0.3097 0.9428
vn 0.4976 0.1282 0.8579
vn 0.8075 0.4438 0.3885
vn 0.2311 -0.8661 0.4432
vn 0.7793 -0.6031 0.1700
vn -0.0755 -0.8288 0.5544
vn -0.1729 0.8365 0.5200
vn -0.1278 0.3527 0.9270
vn -0.4869 -0.6045 0.6305
vn -0.8325 0.0856 0.5473
vn -0.5828 -0.8124 -0.0185
vn -0.1605 -0.9867 -0.0274
vn -0.9119 0.2882 0.2923
vn -0.9079 0.4073 0.0991
vn -0.6974 -0.7004 -0.1519
vn -0.2321 -0.9523 -0.1979
vn 0.0108 -0.9986 -0.0521
vn -0.0157 -0.9795 -0.2009
vn -0.2983 -0.8940 -0.3344
vn -0.7059 -0.6243 -0.3344
vn -0.0301 -0.9325 -0.3600
vn 0.7296 -0.6756 -0.1062
vn 0.6934 -0.6726 -0.2585
vn 0.6526 -0.6129 -0.4455
vn -0.0321 -0.8180 -0.5743
vn 0.4237 -0.3345 -0.8418
vn -0.2612 -0.7542 -0.6024
vn 0.1392 0.0310 -0.9898
vn -0.6402 -0.3727 -0.6718
vn -0.1720 0.2606 -0.9500
vn -0.7056 0.5870 -0.3970
vn -0.0414 0.9205 -0.3885
vn -0.8504 0.5010 -0.1605
vn -0.1208 0.9809 0.1523
vn -0.0174 0.9997 -0.0146
vn -0.1817 0.9257 0.3318
vn 0.3379 0.9407 0.0312
vn 0.3602 0.9258 -0.1147
vn 0.2798 0.9336 0.2239
vn 0.8714 0.4881 0.0487
vn 0.8910 0.4353 -0.1293
vn 0.8647 0.3969 -0.3079
vn 0.7319 0.3518 -0.5836
vn 0.3738 0.8006 -0.4683
vt 0.071390 0.980953
vt 0.071647 0.980544
vt 0.071878 0.980810
vt 0.071901 0.981151
vt 0.072307 0.980468
vt 0.072358 0.980848
vt 0.072076 0.980109
vt 0.071141 0.980382
vt 0.071399 0.980279
vt 0.071742 0.979867
vt 0.071396 0.979824
vt 0.071818 0.979442
vt 0.072457 0.979719
vt 0.071130 0.979547
vt 0.256470 0.979026
vt 0.257238 0.979278
vt 0.257332 0.979772
vt 0.256370 0.979437
vt 0.255703 0.979111
vt 0.255637 0.979729
vt 0.072723 0.980421
vt 0.073220 0.980506
vt 0.072949 0.979856
vt 0.255866 0.980056
vt 0.256414 0.979882
vt 0.255580 0.980557
vt 0.255202 0.980461
vt 0.072638 0.980916
vt 0.072848 0.981171
vt 0.255553 0.981055
vt 0.255214 0.981136
vt 0.255856 0.980705
vt 0.255946 0.980986
vt 0.256064 0.980480
vt 0.256139 0.980888
vt 0.256367 0.980379
vt 0.256356 0.980743
vt 0.256768 0.980443
vt 0.256693 0.980838
vt 0.257014 0.980138
vt 0.257586 0.980839
vt 0.257167 0.980894
vt 0.070833 0.980404
vt 0.070387 0.980728
vt 0.070619 0.979909
vt 0.256955 0.981744
vt 0.256608 0.981531
vt 0.071132 0.981391
vt 0.070909 0.981684
vt 0.257162 0.981948
vt 0.256251 0.982104
vt 0.255984 0.981871
vt 0.072068 0.981550
vt 0.072481 0.981688
vt 0.255902 0.981495
vt 0.256054 0.981262
vt 0.256406 0.981186
s 1
usemtl abyss_chancel_background_pbr
f 5/1/1 4/2/2 1/3/3 2/4/4
f 1/3/3 3/5/5 45/6/6 2/4/4
f 6/7/7 3/5/5 1/3/3 4/2/2
f 5/1/1 8/8/8 7/9/9 4/2/2
f 6/7/7 4/2/2 7/9/9 9/10/10
f 10/11/11 9/10/10 7/9/9 8/8/8
f 9/10/10 11/12/12 14/13/13 6/7/7
f 11/12/12 9/10/10 10/11/11 12/14/14
f 11/15/12 12/16/14 32/17/15 13/18/16
f 14/19/13 11/15/12 13/18/16 16/20/17
f 3/5/5 6/7/7 14/13/13 15/21/18
f 18/22/19 15/21/18 14/13/13 16/23/17
f 17/24/20 16/20/17 13/18/16 29/25/21
f 17/24/20 20/26/22 18/27/19 16/20/17
f 38/28/23 15/21/18 18/22/19 19/29/24
f 21/30/25 19/31/24 18/27/19 20/26/22
f 21/30/25 20/26/22 22/32/26 23/33/27
f 17/24/20 24/34/28 22/32/26 20/26/22
f 25/35/29 23/33/27 22/32/26 24/34/28
f 24/34/28 17/24/20 29/25/21 26/36/30
f 24/34/28 26/36/30 27/37/31 25/35/29
f 28/38/32 44/39/33 27/37/31 26/36/30
f 29/25/21 30/40/34 28/38/32 26/36/30
f 29/25/21 13/18/16 32/17/15 30/40/34
f 32/17/15 33/41/35 31/42/36 30/40/34
f 31/42/36 44/39/33 28/38/32 30/40/34
f 35/43/37 33/44/35 32/45/15 12/14/14
f 34/46/38 42/47/39 31/42/36 33/41/35
f 33/44/35 35/43/37 36/48/40 34/49/38
f 8/8/8 5/1/1 36/48/40 35/43/37
f 35/43/37 12/14/14 10/11/11 8/8/8
f 36/50/40 37/51/41 39/52/42 34/46/38
f 2/4/4 37/53/41 36/48/40 5/1/1
f 37/53/41 2/4/4 45/6/6 38/28/23
f 37/53/41 38/28/23 19/29/24 39/54/42
f 40/55/43 39/52/42 19/31/24 21/30/25
f 42/47/39 34/46/38 39/52/42 40/55/43
f 21/30/25 23/33/27 41/56/44 40/55/43
f 42/47/39 40/55/43 41/56/44 43/57/45
f 43/57/45 44/39/33 31/42/36 42/47/39
f 25/35/29 43/57/45 41/56/44 23/33/27
f 43/57/45 25/35/29 27/37/31 44/39/33
f 15/21/18 38/28/23 45/6/6 3/5/5
