# Blender 5.2.0 LTS
# www.blender.org
mtllib terrain-abyss-chancel-object-113.mtl
o terrain-abyss-chancel-object-113
v 0.575824 0.959943 -0.019851
v 0.582934 0.951335 -0.020322
v 0.578676 0.959675 -0.028029
v 0.577812 0.970964 -0.020249
v 0.573586 0.960123 -0.009600
v 0.571824 0.962365 0.002438
v 0.575063 0.971951 -0.010784
v 0.582332 0.949123 -0.009188
v 0.593835 0.941042 -0.012694
v 0.581929 0.948596 0.003012
v 0.582127 0.949775 0.016123
v 0.595232 0.939124 0.002312
v 0.608277 0.935177 0.002961
v 0.594402 0.939764 0.016143
v 0.606975 0.938017 0.017991
v 0.594698 0.942545 0.026904
v 0.583540 0.950081 0.024907
v 0.595666 0.949828 0.032780
v 0.606887 0.942236 0.026629
v 0.607353 0.949441 0.034299
v 0.619739 0.942850 0.027950
v 0.631137 0.945057 0.030296
v 0.620200 0.938191 0.021753
v 0.619037 0.949416 0.034758
v 0.628841 0.950549 0.035224
v 0.619001 0.957850 0.041521
v 0.628450 0.958249 0.040735
v 0.608073 0.958326 0.041124
v 0.619934 0.966852 0.043549
v 0.629573 0.966623 0.042964
v 0.620785 0.979791 0.040081
v 0.608739 0.967427 0.043333
v 0.598150 0.967401 0.041400
v 0.609077 0.981036 0.039965
v 0.607931 1.003565 0.037929
v 0.598349 0.981548 0.036986
v 0.589020 0.982815 0.036145
v 0.597446 1.004027 0.034754
v 0.589161 1.004838 0.035637
v 0.597946 1.028493 0.034062
v 0.590883 1.029531 0.036575
v 0.599969 1.048399 0.035146
v 0.607194 1.027038 0.036828
v 0.619217 1.026690 0.037138
v 0.607662 1.047312 0.036903
v 0.606008 1.065317 0.043141
v 0.617686 1.047271 0.038004
v 0.616197 1.064594 0.042691
v 0.626814 1.048522 0.039624
v 0.629071 1.027781 0.036089
v 0.624168 1.065832 0.042444
v 0.633052 1.049741 0.036968
v 0.632674 1.067686 0.039840
v 0.635134 1.028176 0.037523
v 0.640486 1.051006 0.037516
v 0.647141 1.051940 0.038396
v 0.641026 1.028474 0.037353
v 0.640628 1.067815 0.039442
v 0.642359 1.077529 0.042301
v 0.647630 1.067895 0.036890
v 0.649373 1.077454 0.038028
v 0.650513 1.067892 0.030159
v 0.652200 1.067301 0.022877
v 0.648296 1.051138 0.032294
v 0.653168 1.077348 0.030866
v 0.655393 1.077120 0.023046
v 0.654897 1.082513 0.031533
v 0.651535 1.082461 0.039333
v 0.656380 1.086317 0.032097
v 0.656995 1.082381 0.023491
v 0.658374 1.086037 0.023903
v 0.658832 1.082180 0.015184
v 0.660422 1.081695 0.007799
v 0.657210 1.076259 0.014819
v 0.660332 1.086011 0.015752
v 0.662212 1.086243 0.008497
v 0.661601 1.089650 0.016491
v 0.659523 1.089738 0.024171
v 0.660489 1.093191 0.016520
v 0.663696 1.089915 0.009492
v 0.662880 1.093325 0.010075
v 0.665499 1.090511 0.003117
v 0.665803 1.094383 0.004588
v 0.663904 1.086319 0.001994
v 0.665611 1.091333 -0.005351
v 0.663512 1.092015 -0.015481
v 0.663516 1.086761 -0.005932
v 0.664751 1.095534 -0.004305
v 0.659293 1.097777 -0.001735
v 0.660864 1.094689 -0.013708
v 0.655451 1.094700 -0.009629
v 0.657481 1.093901 -0.023679
v 0.662074 1.092760 -0.026785
v 0.651758 1.093322 -0.018726
v 0.651874 1.093296 -0.033897
v 0.638431 1.093236 -0.041901
v 0.656021 1.094158 -0.038782
v 0.646486 1.092646 -0.028508
v 0.636204 1.092710 -0.035262
v 0.640194 1.094972 -0.019962
v 0.646609 1.094111 -0.011795
v 0.634273 1.099890 -0.009014
v 0.632163 1.095568 -0.026314
v 0.625089 1.100287 -0.014731
v 0.618190 1.095621 -0.030778
v 0.613100 1.099728 -0.019467
v 0.620347 1.093612 -0.038723
v 0.603140 1.094099 -0.030937
v 0.599216 1.098130 -0.020347
v 0.590956 1.094958 -0.030091
v 0.604464 1.092276 -0.039164
v 0.591980 1.092868 -0.037803
v 0.604749 1.093128 -0.045721
v 0.592411 1.092923 -0.044544
v 0.605061 1.091977 -0.051421
v 0.621603 1.093869 -0.045471
v 0.622874 1.092712 -0.051502
v 0.622839 1.086481 -0.050338
v 0.640177 1.092289 -0.047131
v 0.640347 1.087492 -0.046866
v 0.656527 1.087153 -0.040175
v 0.639050 1.081358 -0.044287
v 0.637098 1.071453 -0.041442
v 0.653051 1.081410 -0.039055
v 0.622831 1.080221 -0.047623
v 0.607197 1.079700 -0.047586
v 0.624175 1.068764 -0.044507
v 0.626792 1.047773 -0.038582
v 0.608809 1.068522 -0.045406
v 0.610942 1.048314 -0.039820
v 0.597017 1.069261 -0.043349
v 0.594393 1.079411 -0.046103
v 0.598975 1.049682 -0.041202
v 0.588323 1.069250 -0.042151
v 0.585479 1.079036 -0.044345
v 0.589369 1.051691 -0.040142
v 0.582235 1.069402 -0.038601
v 0.579890 1.078844 -0.040882
v 0.579143 1.069634 -0.032469
v 0.581391 1.052655 -0.039119
v 0.582454 1.051648 -0.031384
v 0.581543 1.030069 -0.039019
v 0.583504 1.029338 -0.031208
v 0.588102 1.030387 -0.039960
v 0.581607 1.007389 -0.038210
v 0.583653 1.007120 -0.030382
v 0.581545 0.986673 -0.036862
v 0.587187 1.008178 -0.040481
v 0.585988 0.986841 -0.040819
v 0.595940 1.009445 -0.040297
v 0.594112 0.987908 -0.040254
v 0.607471 1.009927 -0.038334
v 0.598115 1.030073 -0.040031
v 0.610134 1.029753 -0.038282
v 0.626263 1.030642 -0.036838
v 0.639574 1.030793 -0.036549
v 0.625008 1.010213 -0.037461
v 0.640289 1.009944 -0.035643
v 0.624402 0.988305 -0.039199
v 0.623531 0.969931 -0.042100
v 0.640453 0.988459 -0.036699
v 0.606235 0.988148 -0.039642
v 0.606498 0.970855 -0.042509
v 0.606333 0.960517 -0.043461
v 0.593701 0.971249 -0.041160
v 0.585184 0.970928 -0.040930
v 0.593577 0.961343 -0.041881
v 0.585328 0.958964 -0.042913
v 0.592415 0.956310 -0.038241
v 0.581062 0.957405 -0.038166
v 0.592644 0.951826 -0.034481
v 0.604320 0.952831 -0.038475
v 0.620236 0.950729 -0.036425
v 0.601270 0.946014 -0.030402
v 0.590623 0.946497 -0.024705
v 0.604626 0.938513 -0.015785
v 0.616887 0.942635 -0.028159
v 0.627653 0.940803 -0.024384
v 0.614338 0.937649 -0.016983
v 0.611990 0.932488 -0.006843
v 0.622073 0.936857 -0.013987
v 0.616974 0.931047 -0.007731
v 0.628402 0.937193 -0.007892
v 0.625441 0.936306 0.002642
v 0.619765 0.929295 -0.004506
v 0.634777 0.939093 -0.020800
v 0.639695 0.939072 -0.003900
v 0.641021 0.941372 -0.017178
v 0.637892 0.940211 0.007893
v 0.649961 0.949219 -0.001609
v 0.649440 0.950040 0.011200
v 0.648287 0.950002 -0.014457
v 0.657573 0.960340 -0.000480
v 0.656789 0.961096 -0.015324
v 0.657855 0.971484 -0.000046
v 0.655626 0.960353 0.014673
v 0.654674 0.971312 0.018237
v 0.652688 0.959244 0.025560
v 0.646818 0.950226 0.021194
v 0.651390 0.968865 0.027040
v 0.650582 0.957405 0.033795
v 0.648289 0.955329 0.039810
v 0.652863 0.966998 0.034812
v 0.644614 0.948525 0.028798
v 0.635814 0.939628 0.021246
v 0.642778 0.946728 0.033411
v 0.633468 0.940016 0.026786
v 0.639030 0.949389 0.034683
v 0.642638 0.957688 0.039994
v 0.634993 0.952529 0.036375
v 0.636266 0.958508 0.039958
v 0.637059 0.967105 0.040713
v 0.644299 0.965462 0.043055
v 0.639158 0.972286 0.038001
v 0.636613 0.982493 0.038470
v 0.631436 0.975001 0.037446
v 0.640452 0.985056 0.037113
v 0.635701 1.004860 0.037981
v 0.630775 1.003358 0.036018
v 0.640417 1.005677 0.037069
v 0.645497 1.006103 0.039575
v 0.646624 1.028759 0.039454
v 0.645399 0.986639 0.039417
v 0.648858 1.006280 0.036390
v 0.647084 1.006426 0.030821
v 0.649038 0.988109 0.037134
v 0.648880 1.028688 0.035244
v 0.646787 1.028321 0.029303
v 0.650105 1.027998 0.024854
v 0.648128 1.050067 0.025852
v 0.651642 1.048946 0.021126
v 0.648882 1.048962 0.017516
v 0.654377 1.065171 0.015801
v 0.654800 1.063655 0.008808
v 0.654976 1.062904 0.000081
v 0.658619 1.074958 0.007381
v 0.659326 1.073845 0.000586
v 0.658401 1.072693 -0.008106
v 0.661789 1.081172 0.001230
v 0.660941 1.081357 -0.006595
v 0.659363 1.081735 -0.016778
v 0.661911 1.087332 -0.016163
v 0.657596 1.081677 -0.028466
v 0.656408 1.072738 -0.018419
v 0.650380 1.056721 -0.022631
v 0.654314 1.072571 -0.029502
v 0.651574 1.055912 -0.031559
v 0.648724 1.071862 -0.038748
v 0.645660 1.054204 -0.036293
v 0.646664 1.031232 -0.036280
v 0.636186 1.051016 -0.036218
v 0.646972 1.009591 -0.036303
v 0.652462 1.031756 -0.034733
v 0.652619 1.009273 -0.035579
v 0.649919 1.032165 -0.028531
v 0.650516 1.008936 -0.029725
v 0.651577 1.032162 -0.021451
v 0.650874 1.008294 -0.024032
v 0.648403 1.030696 -0.018831
v 0.653347 1.057444 -0.012775
v 0.651002 1.054092 -0.013614
v 0.651832 1.048643 0.001257
v 0.651591 1.027732 0.000420
v 0.646815 1.027890 0.020963
v 0.652394 1.006418 -0.000182
v 0.648517 1.007343 -0.020063
v 0.653686 0.989666 -0.000373
v 0.646992 1.006320 0.022309
v 0.648125 0.989117 0.022747
v 0.649250 1.006549 0.026822
v 0.649662 0.989402 0.027101
v 0.650488 0.977376 0.027485
v 0.648151 0.988860 0.031511
v 0.649107 0.976713 0.032843
v 0.648841 0.975817 0.038880
v 0.644634 0.973033 0.040491
v 0.654067 0.962540 0.044170
v 0.649134 0.977335 0.022805
v 0.654673 0.978247 -0.000592
v 0.650353 0.978237 -0.019955
v 0.655325 0.970384 -0.016037
v 0.651802 0.977683 -0.024287
v 0.649238 0.990128 -0.020211
v 0.651106 0.990364 -0.024153
v 0.650586 0.990308 -0.029408
v 0.652554 0.989733 -0.035383
v 0.651691 0.976134 -0.028820
v 0.652419 0.973760 -0.035667
v 0.655284 0.964379 -0.025910
v 0.651503 0.960753 -0.035373
v 0.649276 0.952710 -0.022849
v 0.653086 0.968651 -0.023668
v 0.646125 0.947895 -0.027428
v 0.640711 0.948282 -0.031312
v 0.644211 0.959917 -0.037754
v 0.632697 0.949972 -0.033395
v 0.635807 0.959698 -0.039585
v 0.622578 0.959325 -0.042607
v 0.637659 0.969039 -0.039216
v 0.646298 0.971169 -0.038019
v 0.647469 0.989021 -0.036592
v 0.660185 1.087831 -0.027984
v 0.620983 1.003620 0.037884
v 0.620791 0.937303 0.013559
v 0.636623 0.940183 0.015117
v 0.621250 0.936473 0.007293
v 0.613335 0.931258 0.004633
v 0.615176 0.926103 0.002126
v 0.616218 0.925113 -0.003281
v 0.620165 0.929422 0.000280
v 0.611570 0.927328 -0.001708
v 0.613682 0.927129 -0.004680
v 0.586317 0.951960 -0.031916
v 0.582643 0.953939 -0.026900
v 0.580792 0.971040 -0.036422
v 0.579430 0.971245 -0.028361
v 0.581582 0.987152 -0.029338
v 0.581325 0.986416 -0.021809
v 0.582716 1.006501 -0.022651
v 0.577341 0.986606 -0.012507
v 0.575868 0.986763 -0.000148
v 0.578989 1.006019 -0.013908
v 0.580208 1.028385 -0.014910
v 0.577311 1.005760 -0.001328
v 0.577869 1.028283 -0.001727
v 0.580224 1.006118 0.018513
v 0.580226 1.029600 0.017567
v 0.577115 1.006255 0.020375
v 0.579481 0.986508 0.018632
v 0.576936 0.986578 0.020498
v 0.578662 0.972044 0.018662
v 0.574667 0.968599 0.017418
v 0.574790 0.972221 0.001441
v 0.574901 0.966181 0.023834
v 0.575875 0.965892 0.031273
v 0.579012 0.986233 0.024045
v 0.577334 0.985752 0.030814
v 0.579826 1.006292 0.025662
v 0.577184 1.006232 0.031315
v 0.579737 1.030146 0.024978
v 0.578768 1.054340 0.021930
v 0.577245 1.030337 0.031461
v 0.577163 1.029647 0.018877
v 0.575456 1.052684 0.013455
v 0.578207 1.053503 0.011878
v 0.572247 1.072520 0.012848
v 0.573743 1.072800 0.021624
v 0.569781 1.082200 0.014057
v 0.571286 1.071957 0.005595
v 0.570948 1.070813 -0.004205
v 0.569266 1.082375 0.005013
v 0.566277 1.088052 0.005676
v 0.568850 1.081932 -0.004924
v 0.565495 1.088529 -0.005575
v 0.571815 1.081319 -0.016678
v 0.568841 1.087799 -0.017414
v 0.573987 1.080430 -0.026877
v 0.573112 1.070224 -0.015915
v 0.576676 1.070107 -0.025014
v 0.579310 1.051269 -0.014310
v 0.577569 1.051478 -0.002134
v 0.579606 1.050975 -0.023798
v 0.581994 1.028608 -0.023276
v 0.572025 1.086659 -0.027917
v 0.576606 1.079515 -0.034887
v 0.574542 1.085902 -0.036601
v 0.577641 1.085208 -0.043412
v 0.573601 1.090795 -0.037711
v 0.576315 1.089956 -0.044834
v 0.576079 1.094017 -0.037582
v 0.570399 1.091589 -0.029327
v 0.574297 1.093639 -0.029264
v 0.567153 1.093086 -0.019055
v 0.570980 1.094062 -0.019844
v 0.564657 1.097675 -0.006849
v 0.568464 1.095251 -0.001248
v 0.564846 1.093619 0.007164
v 0.567181 1.096844 -0.009278
v 0.575302 1.093351 -0.009896
v 0.574214 1.093608 0.000054
v 0.578448 1.092691 -0.020012
v 0.584534 1.094281 -0.009301
v 0.594240 1.098883 -0.008304
v 0.588076 1.094354 -0.020088
v 0.581662 1.094359 0.000842
v 0.581103 1.092670 0.010957
v 0.590685 1.098286 0.003369
v 0.600882 1.100452 0.008385
v 0.588982 1.096170 0.012920
v 0.598000 1.098720 0.018116
v 0.587029 1.094899 0.021710
v 0.595320 1.094884 0.025646
v 0.580923 1.092225 0.019607
v 0.585792 1.093875 0.029197
v 0.579957 1.092309 0.027217
v 0.594052 1.092773 0.032624
v 0.584850 1.093488 0.035265
v 0.582987 1.093840 0.041135
v 0.579054 1.094240 0.033495
v 0.592318 1.093254 0.038032
v 0.590211 1.093526 0.043331
v 0.601346 1.094287 0.041734
v 0.612524 1.096650 0.045064
v 0.598387 1.094566 0.045749
v 0.603529 1.093817 0.037030
v 0.614597 1.095294 0.040690
v 0.605602 1.094789 0.030849
v 0.608050 1.097808 0.023124
v 0.616638 1.094776 0.034632
v 0.627377 1.093584 0.035641
v 0.618701 1.097145 0.026260
v 0.629257 1.095462 0.027616
v 0.621907 1.099639 0.016428
v 0.632162 1.098229 0.018270
v 0.611411 1.099894 0.013237
v 0.627213 1.099631 0.004200
v 0.636213 1.098065 0.007454
v 0.617202 1.099442 -0.000135
v 0.605798 1.099901 -0.005034
v 0.641453 1.096991 -0.003244
v 0.644052 1.094883 0.010440
v 0.650642 1.093458 0.013116
v 0.640858 1.094992 0.019621
v 0.647698 1.095469 0.002094
v 0.651380 1.094842 -0.004311
v 0.653939 1.094433 0.006211
v 0.658982 1.094621 0.008973
v 0.656630 1.096106 0.001733
v 0.660844 1.096017 0.004268
v 0.656081 1.093629 0.015180
v 0.653564 1.093385 0.022703
v 0.651967 1.093760 0.030736
v 0.658192 1.093101 0.023849
v 0.647708 1.093637 0.021192
v 0.645701 1.093400 0.029563
v 0.644699 1.094013 0.037424
v 0.638492 1.094770 0.028555
v 0.636852 1.093223 0.036069
v 0.635807 1.093608 0.042432
v 0.626098 1.093760 0.041962
v 0.644990 1.093686 0.043475
v 0.635511 1.092215 0.047424
v 0.634719 1.087779 0.047500
v 0.625377 1.093955 0.047327
v 0.644829 1.091021 0.046381
v 0.644171 1.086804 0.045689
v 0.654645 1.090267 0.041332
v 0.652935 1.086003 0.040560
v 0.657427 1.090111 0.032340
v 0.654875 1.092921 0.041183
v 0.656462 1.093334 0.032102
v 0.651111 1.094461 0.037763
v 0.643380 1.083096 0.044304
v 0.634093 1.083602 0.045819
v 0.633499 1.077498 0.043784
v 0.624110 1.083970 0.047173
v 0.624816 1.089247 0.049205
v 0.615058 1.083934 0.048438
v 0.623794 1.076631 0.044966
v 0.614926 1.074917 0.045603
v 0.606258 1.072721 0.044614
v 0.598224 1.069066 0.039802
v 0.606955 1.083784 0.047131
v 0.598321 1.083099 0.044637
v 0.606351 1.090518 0.050321
v 0.614961 1.090276 0.051088
v 0.604925 1.096474 0.047720
v 0.597672 1.089402 0.047578
v 0.588980 1.088398 0.044559
v 0.588585 1.082700 0.041746
v 0.580588 1.089073 0.042069
v 0.578011 1.082638 0.037513
v 0.574786 1.090626 0.041072
v 0.570571 1.092426 0.039683
v 0.577783 1.094669 0.039224
v 0.572088 1.087433 0.036771
v 0.570321 1.086685 0.030764
v 0.569021 1.091924 0.036470
v 0.568396 1.091244 0.031012
v 0.570462 1.095049 0.035418
v 0.573097 1.095201 0.037323
v 0.570458 1.094342 0.031095
v 0.570168 1.093752 0.024499
v 0.574125 1.094202 0.031969
v 0.574861 1.093095 0.025549
v 0.574910 1.092655 0.017994
v 0.569775 1.093316 0.017244
v 0.574368 1.092586 0.009879
v 0.568931 1.094000 0.008715
v 0.566197 1.091444 0.016356
v 0.567642 1.087161 0.014922
v 0.567501 1.090919 0.024091
v 0.568950 1.086697 0.023399
v 0.570989 1.081947 0.022698
v 0.573025 1.082108 0.030208
v 0.575132 1.072603 0.029663
v 0.580240 1.072295 0.035660
v 0.576906 1.054806 0.029848
v 0.580343 1.054305 0.035277
v 0.587248 1.052631 0.033456
v 0.579006 1.030240 0.035625
v 0.585017 1.029929 0.033916
v 0.578369 1.005917 0.035771
v 0.577227 0.985293 0.035525
v 0.584274 1.005427 0.034340
v 0.582304 0.984443 0.035609
v 0.578342 0.970714 0.038290
v 0.575648 0.968240 0.035649
v 0.589082 0.967257 0.036884
v 0.586964 0.960148 0.037803
v 0.585427 0.948066 0.031030
v 0.597056 0.959260 0.039620
v 0.589201 1.071673 0.038391
v 0.593032 1.050605 0.035980
v 0.601594 1.061063 0.040419
v 0.581227 1.093362 -0.029077
v 0.582671 1.094010 -0.037195
v 0.583199 1.093812 -0.044287
v 0.576333 1.093652 -0.043793
v 0.583060 1.090419 -0.048103
v 0.592631 1.091306 -0.049599
v 0.583763 1.085201 -0.046978
v 0.593173 1.085741 -0.048406
v 0.606089 1.085948 -0.049987
vn -0.6896 -0.6963 -0.1988
vn -0.6914 -0.7152 -0.1024
vn -0.9537 -0.2654 -0.1418
vn -0.9344 -0.2620 -0.2414
vn -0.9318 -0.2895 -0.2189
vn -0.7114 -0.6772 -0.1877
vn -0.9596 0.1357 -0.2465
vn -0.9812 0.1001 -0.1650
vn -0.9714 0.1410 -0.1911
vn -0.7246 -0.6876 0.0454
vn -0.9879 -0.1446 0.0556
vn -0.9772 0.2095 0.0346
vn -0.4402 -0.8325 -0.3363
vn -0.4284 -0.8845 -0.1849
vn -0.4189 -0.9080 -0.0077
vn -0.9983 0.0365 0.0463
vn -0.7691 -0.6270 0.1237
vn -0.3981 -0.9028 0.1629
vn -0.2746 -0.9157 -0.2932
vn -0.3951 -0.9129 0.1025
vn -0.0985 -0.9578 0.2702
vn -0.0682 -0.8170 0.5726
vn -0.2789 -0.8529 0.4413
vn -0.7502 -0.6381 0.1730
vn -0.1488 -0.6541 0.7416
vn -0.4852 -0.6840 0.5447
vn -0.0703 -0.6520 0.7550
vn -0.0487 -0.7527 0.6565
vn -0.0015 -0.6635 0.7482
vn -0.0107 -0.9314 0.3640
vn 0.0260 -0.6260 0.7794
vn -0.0638 -0.6595 0.7490
vn 0.1691 -0.8825 0.4389
vn 0.0112 -0.4335 0.9011
vn -0.0979 -0.4172 0.9035
vn 0.0991 -0.4084 0.9074
vn 0.1245 0.0533 0.9908
vn 0.0701 0.0312 0.9970
vn -0.1023 0.0259 0.9944
vn 0.0338 0.2514 0.9673
vn 0.1219 0.1806 0.9760
vn -0.1177 0.1736 0.9777
vn -0.1950 -0.3331 0.9225
vn -0.2371 0.0547 0.9699
vn -0.1960 0.1444 0.9699
vn 0.0947 0.0560 0.9939
vn -0.1445 0.0617 0.9876
vn -0.0851 0.0413 0.9955
vn -0.0668 0.0960 0.9931
vn -0.1700 0.0356 0.9848
vn -0.0678 0.0260 0.9974
vn -0.0209 -0.0077 0.9998
vn -0.0814 0.0055 0.9967
vn -0.1592 0.0102 0.9872
vn -0.1094 -0.1513 0.9824
vn -0.1979 -0.0925 0.9758
vn -0.1543 -0.1658 0.9740
vn 0.0155 -0.0154 0.9998
vn -0.0426 -0.1585 0.9864
vn -0.2202 -0.2339 0.9470
vn -0.0027 -0.2512 0.9679
vn -0.2746 -0.2590 0.9260
vn 0.1598 -0.2202 0.9623
vn 0.1029 -0.1277 0.9865
vn -0.0158 -0.0379 0.9992
vn -0.0282 -0.0134 0.9995
vn 0.1154 -0.0765 0.9904
vn 0.1768 -0.2288 0.9573
vn -0.0427 -0.0353 0.9985
vn 0.1636 -0.1951 0.9670
vn -0.1488 0.0106 0.9888
vn 0.6755 -0.1605 0.7197
vn 0.5719 -0.0058 0.8203
vn 0.3710 0.0185 0.9284
vn 0.2917 -0.3373 0.8950
vn 0.1526 -0.3212 0.9346
vn 0.6764 -0.3402 0.6532
vn 0.9875 -0.0570 0.1473
vn 0.9411 -0.1926 0.2779
vn 0.8888 -0.3145 0.3334
vn 0.9372 -0.1997 0.2858
vn 0.9230 -0.2876 0.2557
vn 0.9646 -0.0605 0.2569
vn 0.6771 -0.4229 0.6023
vn 0.8730 -0.3774 0.3089
vn 0.9116 -0.3391 0.2324
vn 0.8905 -0.3548 0.2848
vn 0.6853 -0.3796 0.6215
vn 0.9101 -0.3433 0.2320
vn 0.9363 -0.2677 0.2272
vn 0.9181 -0.3295 0.2200
vn 0.9004 -0.3720 0.2255
vn 0.9174 -0.3366 0.2123
vn 0.8914 -0.3941 0.2236
vn 0.9413 -0.2935 0.1666
vn 0.9682 0.0096 0.2498
vn 0.9596 -0.0489 0.2772
vn 0.9407 -0.1682 0.2946
vn 0.6079 0.7600 0.2300
vn 0.5820 0.8003 0.1442
vn 0.6889 0.6311 0.3565
vn 0.8111 0.5302 0.2472
vn 0.9758 -0.1845 0.1171
vn 0.9148 -0.3970 0.0742
vn 0.6675 0.7326 -0.1332
vn 0.9888 -0.0165 -0.1480
vn 0.9173 -0.3793 -0.1215
vn 0.3267 0.9275 -0.1820
vn 0.9420 0.2650 -0.2061
vn 0.9193 -0.3602 -0.1585
vn -0.0114 0.9999 -0.0084
vn 0.1247 0.9608 0.2477
vn -0.0803 0.9877 -0.1344
vn 0.0813 0.9959 -0.0406
vn -0.0156 0.9976 -0.0680
vn 0.8339 0.5132 -0.2030
vn 0.5397 0.6771 -0.5002
vn -0.0317 0.9995 0.0084
vn 0.0225 0.9988 -0.0424
vn 0.0036 0.9997 -0.0239
vn 0.0556 0.9968 -0.0574
vn 0.2385 0.6283 -0.7406
vn 0.1497 0.9572 -0.2477
vn 0.2275 0.9587 -0.1707
vn 0.1762 0.9776 -0.1148
vn 0.2149 0.9737 -0.0754
vn 0.2690 0.9629 -0.0200
vn 0.0824 0.9863 -0.1426
vn 0.0087 0.9567 -0.2909
vn -0.0230 0.9787 -0.2042
vn -0.0030 0.9968 -0.0795
vn -0.0588 0.9596 -0.2753
vn -0.1553 0.9680 -0.1972
vn -0.0253 0.9966 -0.0784
vn -0.0734 0.9876 -0.1389
vn -0.2138 0.9717 -0.1004
vn 0.0385 0.9965 -0.0741
vn 0.0050 0.9847 -0.1740
vn -0.0394 0.9958 -0.0831
vn -0.0006 0.9979 -0.0640
vn -0.0839 0.5181 -0.8512
vn -0.1211 0.4657 -0.8766
vn 0.0890 0.5582 -0.8249
vn 0.1061 -0.2807 -0.9539
vn -0.0569 -0.2968 -0.9532
vn 0.3068 -0.2008 -0.9304
vn 0.7195 -0.2064 -0.6631
vn 0.6323 -0.3932 -0.6675
vn 0.2676 -0.3321 -0.9045
vn 0.1176 -0.3209 -0.9398
vn 0.1577 -0.2498 -0.9554
vn 0.2414 -0.2415 -0.9399
vn 0.5379 -0.2449 -0.8067
vn -0.0541 -0.3070 -0.9502
vn -0.0204 -0.2316 -0.9726
vn 0.1489 -0.1180 -0.9818
vn 0.1383 -0.1455 -0.9796
vn 0.0618 -0.1575 -0.9856
vn -0.0277 -0.1070 -0.9939
vn -0.1208 -0.2100 -0.9702
vn -0.1342 -0.3229 -0.9369
vn -0.3175 -0.3716 -0.8724
vn -0.2678 -0.1943 -0.9437
vn -0.1583 -0.0525 -0.9860
vn -0.6843 -0.3925 -0.6146
vn -0.7320 -0.2121 -0.6475
vn -0.7836 -0.0483 -0.6193
vn -0.9294 -0.2186 -0.2972
vn -0.8798 -0.3422 -0.3298
vn -0.9863 -0.0904 -0.1377
vn -0.8349 -0.0096 -0.5503
vn -0.9995 -0.0318 0.0021
vn -0.1104 -0.0039 -0.9939
vn -0.9989 0.0293 0.0367
vn -0.8873 0.0175 -0.4609
vn -0.1789 0.0037 -0.9839
vn -0.9034 0.0482 -0.4261
vn -0.9947 0.0978 -0.0318
vn -0.3075 0.0155 -0.9514
vn 0.0753 0.0094 -0.9971
vn 0.0342 0.0415 -0.9986
vn 0.0577 -0.0250 -0.9980
vn 0.0934 0.0221 -0.9954
vn 0.0367 0.0893 -0.9953
vn 0.1066 -0.0410 -0.9935
vn 0.0866 -0.0314 -0.9957
vn 0.0790 0.0330 -0.9963
vn 0.0413 -0.0116 -0.9991
vn 0.0353 0.0158 -0.9993
vn 0.0834 0.0789 -0.9934
vn 0.0955 0.1032 -0.9901
vn 0.1159 0.0906 -0.9891
vn -0.0174 0.1060 -0.9942
vn 0.1652 0.0448 -0.9852
vn -0.0229 0.0862 -0.9960
vn -0.0506 -0.2668 -0.9624
vn -0.0475 -0.2473 -0.9678
vn 0.1194 -0.2892 -0.9498
vn -0.3910 0.0737 -0.9174
vn -0.2473 -0.3614 -0.8990
vn -0.0969 -0.7052 -0.7024
vn -0.7036 -0.4543 -0.5465
vn -0.0870 -0.6365 -0.7664
vn -0.2063 -0.7548 -0.6226
vn -0.4614 -0.7883 -0.4071
vn -0.1745 -0.8163 -0.5506
vn 0.0707 -0.6592 -0.7487
vn -0.0102 -0.8305 -0.5569
vn -0.1383 -0.8991 -0.4154
vn 0.1321 -0.6525 -0.7462
vn 0.0676 -0.8623 -0.5019
vn 0.1066 -0.9026 -0.4170
vn -0.4951 -0.7602 -0.4206
vn 0.0697 -0.7436 -0.6650
vn 0.3291 -0.9346 -0.1352
vn 0.5697 -0.7665 -0.2965
vn 0.2011 -0.9158 -0.3477
vn 0.4465 -0.8874 0.1148
vn 0.4415 -0.8765 0.1919
vn 0.4810 -0.8767 0.0061
vn 0.6734 -0.6834 0.2821
vn 0.5378 -0.8258 -0.1696
vn 0.7879 -0.6077 -0.0993
vn 0.7623 -0.6472 0.0076
vn 0.7401 -0.6588 0.1351
vn 0.9586 -0.2846 0.0088
vn 0.9419 -0.2770 0.1900
vn 0.9553 -0.2514 -0.1556
vn 0.9469 0.2834 -0.1518
vn 0.9646 0.2630 0.0183
vn 0.9411 0.2572 0.2195
vn 0.9790 0.1447 0.1436
vn 0.9399 -0.3014 0.1605
vn 0.7437 -0.6582 0.1172
vn 0.9054 -0.4241 0.0197
vn 0.7316 -0.6757 0.0907
vn 0.9959 0.0884 0.0213
vn 0.4518 -0.6339 0.6277
vn 0.3700 -0.7570 0.5386
vn 0.6967 -0.1459 0.7024
vn 0.4236 -0.9023 0.0799
vn 0.4403 -0.8936 0.0879
vn -0.0975 -0.5612 0.8219
vn -0.1525 -0.3915 0.9075
vn 0.0013 -0.3666 0.9304
vn -0.0070 -0.5646 0.8253
vn -0.1563 0.0626 0.9857
vn -0.0659 0.1039 0.9924
vn -0.1215 0.2784 0.9527
vn 0.0320 0.2106 0.9770
vn 0.0808 0.0801 0.9935
vn -0.0733 0.0523 0.9959
vn -0.0615 0.0097 0.9981
vn -0.0602 0.0310 0.9977
vn -0.1274 0.0076 0.9918
vn 0.0378 0.0549 0.9978
vn 0.1679 0.0067 0.9858
vn 0.9691 0.0066 0.2466
vn 0.9929 -0.0071 0.1191
vn 0.9132 0.0383 0.4057
vn 0.9945 0.0250 0.1013
vn 0.9863 0.0049 0.1650
vn 0.9933 0.0510 0.1041
vn 0.9997 0.0177 0.0145
vn 0.9991 -0.0425 0.0067
vn 0.9857 -0.1469 0.0828
vn 0.9532 -0.2410 0.1828
vn 0.9754 -0.0671 -0.2101
vn 0.9698 -0.2084 -0.1266
vn 0.9525 -0.2953 0.0749
vn 0.9883 -0.1485 0.0345
vn 0.9499 -0.3106 0.0353
vn 0.9478 -0.3164 0.0392
vn 0.9359 -0.3478 0.0555
vn 0.9491 -0.2942 -0.1123
vn 0.9325 -0.3388 -0.1254
vn 0.9653 -0.2490 -0.0791
vn 0.9490 -0.2750 -0.1543
vn 0.9279 -0.3379 -0.1576
vn 0.8950 -0.3713 -0.2472
vn 0.9275 -0.2778 -0.2503
vn 0.9131 -0.2709 -0.3046
vn 0.9881 -0.1281 -0.0853
vn 0.9297 -0.1053 -0.3530
vn 0.3561 -0.0773 -0.9312
vn 0.1614 0.0218 -0.9866
vn 0.8929 0.0247 -0.4496
vn 0.8650 0.0111 -0.5016
vn 0.0758 0.0097 -0.9971
vn 0.9982 -0.0010 0.0603
vn 0.9928 0.0056 0.1196
vn 0.9566 -0.0895 0.2772
vn 0.9738 -0.0077 0.2273
vn 0.9382 -0.0935 0.3331
vn 0.9805 0.0146 0.1960
vn 0.8871 -0.2647 0.3781
vn 0.9994 -0.0066 0.0325
vn 0.9986 0.0476 0.0209
vn 0.9910 0.0199 -0.1323
vn 0.9969 0.0771 0.0129
vn 0.9915 0.0627 0.1136
vn 0.9958 0.0663 -0.0625
vn 0.9980 0.0636 -0.0011
vn 0.9794 0.1915 0.0641
vn 0.9685 0.2382 0.0728
vn 0.9806 0.1796 0.0787
vn 0.7527 0.2682 0.6012
vn 0.9553 0.2956 0.0003
vn 0.9761 0.2162 -0.0214
vn 0.9607 0.2730 -0.0501
vn 0.9836 0.1737 0.0479
vn 0.9829 0.0420 0.1794
vn 0.9941 0.1070 0.0187
vn 0.9950 0.0277 0.0963
vn 0.7899 0.0369 -0.6121
vn 0.8611 0.0280 -0.5077
vn 0.9819 -0.0971 -0.1629
vn 0.7282 -0.2974 -0.6175
vn 0.8320 -0.5393 -0.1302
vn 0.6379 -0.6777 -0.3659
vn 0.2615 -0.6829 -0.6821
vn 0.2763 -0.3167 -0.9074
vn 0.1879 -0.2950 -0.9368
vn 0.2236 0.0091 -0.9746
vn 0.1296 0.0421 -0.9907
vn 0.0543 -0.9807 0.1876
vn 0.1787 -0.8771 0.4458
vn 0.0746 -0.8331 0.5480
vn -0.4449 -0.6389 0.6276
vn -0.6990 -0.7150 0.0146
vn 0.2031 -0.9455 -0.2544
vn -0.3012 -0.7240 -0.6206
vn -0.9003 0.0596 -0.4312
vn -0.9670 0.1128 -0.2284
vn -0.9730 0.0281 -0.2292
vn -0.9668 0.0939 -0.2376
vn -0.9677 0.0390 -0.2492
vn -0.9959 0.0796 0.0418
vn -0.9989 0.0466 0.0034
vn -0.9998 -0.0023 -0.0215
vn -0.9824 -0.0161 -0.1861
vn -0.9764 -0.0435 -0.2114
vn -0.8762 0.0821 -0.4749
vn -0.9013 0.0118 -0.4330
vn -0.8641 -0.0965 -0.4940
vn -0.9620 -0.0051 -0.2728
vn -0.9454 -0.0845 -0.3147
vn -0.9287 0.0929 -0.3591
vn -0.8184 0.2546 -0.5152
vn -0.9790 -0.1864 0.0823
vn -0.9918 0.0808 0.0989
vn -0.9949 0.0700 -0.0728
vn -0.9385 -0.2448 0.2434
vn -0.9975 0.0165 -0.0683
vn -0.9993 0.0139 0.0350
vn -0.9998 -0.0078 0.0206
vn -0.9990 -0.0011 0.0438
vn -0.9894 -0.1100 0.0945
vn -0.9576 -0.2201 -0.1858
vn -0.9762 -0.0698 0.2055
vn -0.9445 -0.2407 -0.2235
vn -0.9653 -0.2477 0.0823
vn -0.9669 -0.2544 0.0193
vn -0.9596 -0.2337 0.1568
vn -0.9193 -0.3556 0.1688
vn -0.9339 -0.3414 0.1060
vn -0.9412 -0.3314 0.0652
vn -0.9433 -0.3226 -0.0788
vn -0.9665 -0.2508 -0.0545
vn -0.9839 -0.1763 -0.0293
vn -0.9217 -0.3750 0.0992
vn -0.9406 -0.3355 0.0523
vn -0.9467 -0.3111 -0.0832
vn -0.9150 -0.3465 -0.2068
vn -0.9280 -0.3003 -0.2203
vn -0.9507 -0.2355 -0.2017
vn -0.9189 -0.3079 -0.2465
vn -0.9065 -0.3493 -0.2373
vn -0.9358 -0.2308 -0.2664
vn -0.9631 -0.1421 -0.2285
vn -0.9739 -0.1675 -0.1534
vn -0.8880 -0.3400 -0.3096
vn -0.6892 -0.3836 -0.6147
vn -0.9001 0.3150 -0.3009
vn -0.9409 0.1575 -0.2998
vn -0.7171 0.0869 -0.6915
vn -0.4110 0.9050 -0.1102
vn -0.4978 0.7609 -0.4162
vn -0.2261 0.9712 -0.0758
vn -0.8524 0.3897 -0.3487
vn -0.0470 0.9879 -0.1475
vn -0.6528 0.7559 -0.0489
vn 0.1192 0.9835 -0.1357
vn 0.2132 0.9671 0.1392
vn 0.0131 0.9900 0.1401
vn -0.8226 0.5352 0.1921
vn 0.0197 0.9997 -0.0146
vn 0.1164 0.9928 -0.0289
vn 0.1100 0.9916 0.0683
vn -0.2454 0.9690 0.0288
vn -0.2511 0.9637 -0.0910
vn -0.2495 0.9634 -0.0978
vn -0.3131 0.9495 0.0210
vn -0.3508 0.9284 0.1228
vn -0.2231 0.9714 0.0812
vn 0.0913 0.9933 0.0704
vn -0.1025 0.9928 0.0615
vn -0.0459 0.9985 -0.0312
vn -0.1721 0.9592 0.2242
vn -0.1639 0.9864 0.0113
vn -0.2720 0.9548 0.1198
vn -0.1345 0.9583 0.2521
vn -0.0772 0.9966 0.0296
vn -0.0391 0.9963 0.0766
vn -0.0391 0.9950 -0.0915
vn 0.0845 0.9894 -0.1184
vn 0.0661 0.9969 -0.0418
vn -0.0044 0.9980 -0.0633
vn -0.0159 0.8763 0.4815
vn -0.0779 0.8185 0.5692
vn -0.1993 0.8163 0.5421
vn -0.1007 0.9776 -0.1847
vn -0.0913 0.9948 -0.0449
vn -0.2879 0.8316 0.4750
vn 0.0420 0.9614 0.2719
vn 0.0440 0.9950 -0.0897
vn -0.1801 0.8681 0.4626
vn 0.0256 0.9909 0.1319
vn -0.1047 0.9707 0.2164
vn -0.0652 0.9596 0.2737
vn 0.0249 0.9622 0.2712
vn 0.1091 0.9940 -0.0075
vn 0.0727 0.9915 0.1079
vn 0.1012 0.9627 0.2509
vn 0.1854 0.9690 0.1633
vn 0.0528 0.9887 0.1406
vn 0.0043 0.9951 0.0986
vn 0.2402 0.9671 0.0843
vn 0.0875 0.9955 0.0373
vn 0.0106 0.9999 0.0054
vn 0.2258 0.9680 0.1097
vn 0.2255 0.9689 0.1024
vn 0.1307 0.9900 0.0526
vn 0.0577 0.9952 0.0793
vn -0.0438 0.9889 0.1418
vn 0.0946 0.9951 0.0303
vn -0.0484 0.9963 -0.0712
vn -0.1741 0.9755 0.1344
vn 0.0474 0.9762 0.2116
vn 0.0330 0.9965 0.0768
vn 0.0359 0.9993 0.0046
vn 0.0569 0.9980 -0.0289
vn 0.0401 0.9991 0.0101
vn 0.6532 0.7462 0.1285
vn 0.1087 0.9835 0.1445
vn -0.0104 0.9994 0.0328
vn 0.0797 0.9956 0.0496
vn 0.0117 0.9977 0.0671
vn 0.0318 0.9907 0.1321
vn 0.1190 0.8947 0.4306
vn 0.1398 0.8183 0.5575
vn 0.1229 0.5951 0.7942
vn 0.2819 0.2792 0.9179
vn 0.2946 -0.2948 0.9090
vn 0.1251 -0.1695 0.9776
vn 0.1185 0.0169 0.9928
vn 0.7646 0.0067 0.6445
vn 0.5770 0.6853 0.4444
vn 0.9651 -0.0375 0.2590
vn 0.2984 -0.3888 0.8717
vn 0.1281 -0.3514 0.9274
vn 0.1249 -0.3394 0.9323
vn 0.1485 -0.2862 0.9466
vn 0.0521 0.1159 0.9919
vn 0.0138 -0.3392 0.9406
vn 0.0223 -0.2576 0.9660
vn -0.2123 -0.2345 0.9486
vn -0.1866 -0.3431 0.9206
vn -0.3218 -0.2127 0.9226
vn -0.2651 -0.3536 0.8971
vn -0.1433 0.0586 0.9879
vn -0.3047 -0.0561 0.9508
vn -0.3032 -0.0868 0.9490
vn -0.2871 -0.3596 0.8878
vn -0.3031 -0.0888 0.9488
vn -0.5231 -0.4148 0.7445
vn -0.3709 -0.0229 0.9284
vn -0.6533 -0.5535 0.5166
vn -0.1679 0.9328 0.3188
vn -0.6067 0.1642 0.7778
vn -0.9211 0.0491 0.3863
vn -0.8355 -0.4875 0.2537
vn -0.8348 -0.4143 0.3625
vn -0.9901 0.0700 0.1215
vn -0.5034 0.8609 0.0741
vn -0.4277 0.9003 -0.0805
vn 0.1068 0.9819 -0.1564
vn -0.3219 0.9465 -0.0229
vn -0.9731 0.1972 0.1189
vn 0.1296 0.9863 -0.1017
vn 0.1115 0.9937 -0.0112
vn -0.1732 0.9832 0.0570
vn -0.9299 0.3279 0.1668
vn -0.9045 -0.3990 0.1507
vn -0.9142 -0.1954 0.3551
vn -0.5288 -0.1870 0.8279
vn -0.4471 -0.0486 0.8932
vn -0.4355 0.0171 0.9001
vn -0.2417 -0.2254 0.9438
vn -0.1183 -0.0659 0.9908
vn -0.0518 0.0181 0.9985
vn -0.5391 0.0191 0.8420
vn -0.0358 0.0190 0.9992
vn -0.0744 0.0795 0.9941
vn -0.7385 0.0885 0.6684
vn -0.1516 0.0447 0.9874
vn -0.7464 -0.1082 0.6567
vn -0.3321 -0.3185 0.8879
vn -0.0302 0.9994 0.0144
vn 0.0170 0.9996 -0.0237
vn -0.0515 0.9297 -0.3647
vn -0.2559 0.2598 -0.9311
vn -0.2986 -0.3499 -0.8879
vn -0.1247 -0.3040 -0.9445
vt 0.426908 0.139594
vt 0.422962 0.137582
vt 0.429403 0.131973
vt 0.431726 0.135329
vt 0.433272 0.138610
vt 0.430046 0.140706
vt 0.438190 0.133516
vt 0.439592 0.136911
vt 0.436527 0.129883
vt 0.419995 0.133632
vt 0.428589 0.127398
vt 0.434238 0.125573
vt 0.425887 0.146292
vt 0.419953 0.146944
vt 0.414790 0.144582
vt 0.427202 0.121865
vt 0.417427 0.127689
vt 0.285569 0.606956
vt 0.274989 0.613964
vt 0.272877 0.607987
vt 0.282059 0.602006
vt 0.420376 0.154572
vt 0.411997 0.156250
vt 0.294171 0.599559
vt 0.294939 0.605826
vt 0.295907 0.609838
vt 0.287995 0.611117
vt 0.280226 0.615509
vt 0.290077 0.615318
vt 0.284261 0.615603
vt 0.297016 0.614577
vt 0.303947 0.609665
vt 0.303896 0.614230
vt 0.303663 0.606141
vt 0.309749 0.614604
vt 0.310705 0.611278
vt 0.312110 0.608453
vt 0.304237 0.619358
vt 0.298166 0.619955
vt 0.309531 0.619359
vt 0.310988 0.623654
vt 0.305110 0.623848
vt 0.298870 0.624458
vt 0.312563 0.628722
vt 0.305597 0.630265
vt 0.299007 0.631330
vt 0.292034 0.620652
vt 0.293087 0.624667
vt 0.292859 0.631937
vt 0.306083 0.641748
vt 0.298746 0.642252
vt 0.292551 0.642896
vt 0.287677 0.632793
vt 0.287697 0.625158
vt 0.287933 0.643523
vt 0.293667 0.654652
vt 0.289510 0.655453
vt 0.299017 0.653716
vt 0.295128 0.664034
vt 0.291467 0.665484
vt 0.299539 0.663437
vt 0.305673 0.653156
vt 0.305257 0.663171
vt 0.299633 0.672451
vt 0.305060 0.671809
vt 0.296775 0.670386
vt 0.309422 0.672128
vt 0.310415 0.663703
vt 0.311190 0.653459
vt 0.314651 0.653594
vt 0.314124 0.664076
vt 0.314247 0.672714
vt 0.318180 0.664604
vt 0.318415 0.672821
vt 0.317862 0.653625
vt 0.322358 0.672699
vt 0.321690 0.664907
vt 0.321063 0.653702
vt 0.318786 0.677772
vt 0.314206 0.677803
vt 0.322653 0.677631
vt 0.324908 0.664570
vt 0.325943 0.672667
vt 0.326350 0.677373
vt 0.329440 0.672847
vt 0.329583 0.677996
vt 0.328171 0.663982
vt 0.323001 0.680320
vt 0.326416 0.680378
vt 0.329411 0.680864
vt 0.326345 0.682664
vt 0.323247 0.682169
vt 0.329152 0.683170
vt 0.332825 0.678301
vt 0.332369 0.681608
vt 0.331806 0.683935
vt 0.335072 0.682212
vt 0.334175 0.685117
vt 0.335761 0.678342
vt 0.328856 0.685456
vt 0.331230 0.686218
vt 0.333423 0.687116
vt 0.330702 0.688509
vt 0.328357 0.687811
vt 0.332505 0.689511
vt 0.334068 0.690836
vt 0.334946 0.688894
vt 0.336261 0.686806
vt 0.336162 0.693600
vt 0.337147 0.692480
vt 0.505013 0.185642
vt 0.507994 0.185604
vt 0.507097 0.188800
vt 0.505147 0.189289
vt 0.510017 0.181183
vt 0.510149 0.185839
vt 0.507688 0.181170
vt 0.504720 0.181477
vt 0.333939 0.695439
vt 0.332867 0.693106
vt 0.336965 0.698825
vt 0.334328 0.700725
vt 0.513991 0.180067
vt 0.510169 0.176474
vt 0.513847 0.175077
vt 0.506898 0.176824
vt 0.506700 0.171424
vt 0.509588 0.170353
vt 0.513247 0.169449
vt 0.507936 0.162937
vt 0.511373 0.162495
vt 0.505092 0.163373
vt 0.516090 0.160974
vt 0.517329 0.167435
vt 0.517825 0.174935
vt 0.522574 0.165599
vt 0.522359 0.171864
vt 0.521627 0.157110
vt 0.514052 0.151865
vt 0.518990 0.148247
vt 0.510260 0.153447
vt 0.512402 0.142344
vt 0.516284 0.138354
vt 0.508870 0.144165
vt 0.509823 0.135288
vt 0.512357 0.131114
vt 0.507044 0.137330
vt 0.504280 0.138879
vt 0.505578 0.145082
vt 0.507094 0.153894
vt 0.502655 0.145781
vt 0.501620 0.139767
vt 0.504082 0.154603
vt 0.500968 0.155188
vt 0.499652 0.146731
vt 0.502622 0.163766
vt 0.503237 0.171576
vt 0.499914 0.171241
vt 0.499143 0.164336
vt 0.497772 0.155804
vt 0.492286 0.157529
vt 0.494072 0.164347
vt 0.494674 0.170609
vt 0.496411 0.147715
vt 0.491151 0.149434
vt 0.484130 0.165766
vt 0.482106 0.160682
vt 0.481419 0.152118
vt 0.481288 0.145586
vt 0.490464 0.143042
vt 0.495421 0.141103
vt 0.494543 0.136594
vt 0.489762 0.138283
vt 0.481576 0.140386
vt 0.493917 0.133297
vt 0.489222 0.134452
vt 0.481381 0.135921
vt 0.488628 0.130808
vt 0.493368 0.129950
vt 0.479922 0.132056
vt 0.470490 0.137609
vt 0.469354 0.133438
vt 0.471130 0.141083
vt 0.458239 0.134425
vt 0.459227 0.138586
vt 0.460127 0.141683
vt 0.448906 0.139577
vt 0.448347 0.135703
vt 0.449575 0.142646
vt 0.461441 0.146221
vt 0.450741 0.146867
vt 0.471786 0.146403
vt 0.462497 0.152372
vt 0.451695 0.153230
vt 0.472365 0.152828
vt 0.473619 0.161262
vt 0.463574 0.161688
vt 0.474304 0.168201
vt 0.464212 0.169919
vt 0.453831 0.171183
vt 0.452741 0.162721
vt 0.443513 0.163295
vt 0.443070 0.154369
vt 0.443924 0.170843
vt 0.442445 0.147841
vt 0.437107 0.148909
vt 0.437738 0.155115
vt 0.438121 0.163428
vt 0.441636 0.143268
vt 0.436622 0.145182
vt 0.433927 0.148454
vt 0.434055 0.142933
vt 0.433008 0.154506
vt 0.430875 0.148436
vt 0.430314 0.144604
vt 0.427498 0.153090
vt 0.432522 0.162992
vt 0.426616 0.162087
vt 0.420515 0.160887
vt 0.432604 0.169730
vt 0.425505 0.168447
vt 0.420042 0.166735
vt 0.415555 0.160830
vt 0.416337 0.164852
vt 0.418756 0.173178
vt 0.415180 0.166929
vt 0.425405 0.173259
vt 0.417825 0.183993
vt 0.412285 0.172882
vt 0.421550 0.180720
vt 0.414012 0.168382
vt 0.425865 0.177725
vt 0.430296 0.183453
vt 0.427259 0.187659
vt 0.425108 0.191782
vt 0.434857 0.191436
vt 0.431960 0.195900
vt 0.437821 0.186401
vt 0.443022 0.187579
vt 0.441424 0.193322
vt 0.438469 0.198995
vt 0.436800 0.202174
vt 0.431445 0.200544
vt 0.329802 0.619493
vt 0.326368 0.610630
vt 0.329829 0.607737
vt 0.332939 0.614174
vt 0.325267 0.616812
vt 0.321053 0.611838
vt 0.326023 0.621929
vt 0.328894 0.623235
vt 0.320268 0.616750
vt 0.317521 0.612830
vt 0.322650 0.619841
vt 0.315220 0.606545
vt 0.318039 0.604703
vt 0.315240 0.614054
vt 0.316950 0.618308
vt 0.313915 0.619075
vt 0.313042 0.615846
vt 0.319143 0.621755
vt 0.316017 0.622968
vt 0.321251 0.625006
vt 0.318375 0.625936
vt 0.316281 0.631188
vt 0.319045 0.631813
vt 0.314885 0.642084
vt 0.311797 0.641794
vt 0.317439 0.642503
vt 0.321568 0.632375
vt 0.320549 0.642589
vt 0.322984 0.642539
vt 0.323581 0.653558
vt 0.323635 0.633334
vt 0.326028 0.642486
vt 0.326829 0.653220
vt 0.326284 0.633585
vt 0.328365 0.642392
vt 0.329522 0.653053
vt 0.331003 0.663544
vt 0.332655 0.672257
vt 0.332039 0.652638
vt 0.333082 0.663397
vt 0.335439 0.672054
vt 0.484440 0.193741
vt 0.492162 0.190832
vt 0.492629 0.194404
vt 0.484937 0.200794
vt 0.498165 0.189802
vt 0.498977 0.192802
vt 0.502121 0.189525
vt 0.502342 0.192658
vt 0.496992 0.186034
vt 0.501866 0.186040
vt 0.488877 0.185739
vt 0.337083 0.684415
vt 0.496015 0.181228
vt 0.501036 0.181707
vt 0.500367 0.176417
vt 0.503742 0.176867
vt 0.495463 0.175833
vt 0.487693 0.179860
vt 0.486953 0.174668
vt 0.485966 0.170618
vt 0.474844 0.171963
vt 0.475202 0.175141
vt 0.464251 0.176520
vt 0.464284 0.173502
vt 0.475735 0.178617
vt 0.464262 0.179807
vt 0.476146 0.182396
vt 0.464032 0.182652
vt 0.475370 0.184508
vt 0.463455 0.184950
vt 0.486890 0.187016
vt 0.473440 0.193747
vt 0.472389 0.203098
vt 0.461690 0.193832
vt 0.459243 0.202869
vt 0.452508 0.193761
vt 0.454775 0.185625
vt 0.448849 0.202429
vt 0.330821 0.641906
vt 0.330577 0.633280
vt 0.328436 0.633617
vt 0.328479 0.627437
vt 0.330603 0.627485
vt 0.325914 0.627378
vt 0.323468 0.626559
vt 0.441796 0.201671
vt 0.440469 0.203309
vt 0.446101 0.193666
vt 0.448514 0.185684
vt 0.443719 0.184136
vt 0.448406 0.183786
vt 0.455002 0.183474
vt 0.447799 0.181665
vt 0.455043 0.180867
vt 0.446703 0.178248
vt 0.454780 0.177622
vt 0.441270 0.183072
vt 0.439993 0.178086
vt 0.433797 0.181369
vt 0.432070 0.177308
vt 0.432289 0.174093
vt 0.439429 0.174349
vt 0.438901 0.170163
vt 0.445349 0.175157
vt 0.454308 0.174867
vt 0.304278 0.602751
vt 0.305406 0.600292
vt 0.320644 0.602378
vt 0.309325 0.599293
vt 0.412036 0.164355
vt 0.409999 0.167313
vt 0.409175 0.161890
vt 0.412545 0.161920
vt 0.298714 0.598566
vt 0.413667 0.164441
vt 0.413966 0.163130
vt 0.440861 0.140452
vt 0.446673 0.132510
vt 0.456893 0.130651
vt 0.444981 0.128104
vt 0.455241 0.126750
vt 0.442595 0.123450
vt 0.453376 0.121441
vt 0.464335 0.119262
vt 0.466797 0.125224
vt 0.467959 0.129442
vt 0.437910 0.117113
vt 0.449052 0.113740
vt 0.461541 0.111622
vt 0.273413 0.644335
vt 0.273646 0.656174
vt 0.272099 0.656041
vt 0.271673 0.644218
vt 0.271637 0.634276
vt 0.273122 0.634317
vt 0.269752 0.627321
vt 0.271486 0.625188
vt 0.430107 0.120177
vt 0.274689 0.624070
vt 0.275114 0.634272
vt 0.278604 0.634225
vt 0.278215 0.624734
vt 0.279459 0.644343
vt 0.276243 0.644414
vt 0.276880 0.656238
vt 0.280361 0.656142
vt 0.277158 0.668285
vt 0.273013 0.668262
vt 0.281057 0.668269
vt 0.271591 0.668520
vt 0.274516 0.678515
vt 0.271932 0.679365
vt 0.278037 0.677727
vt 0.278508 0.682441
vt 0.275873 0.683911
vt 0.273029 0.685200
vt 0.269743 0.686772
vt 0.268544 0.680784
vt 0.267076 0.672446
vt 0.276698 0.686660
vt 0.274044 0.688650
vt 0.270838 0.690705
vt 0.492967 0.115547
vt 0.496899 0.115746
vt 0.497067 0.120929
vt 0.493304 0.121186
vt 0.487087 0.116007
vt 0.487811 0.121879
vt 0.493570 0.126037
vt 0.496883 0.125617
vt 0.488236 0.126710
vt 0.478972 0.127894
vt 0.477950 0.123133
vt 0.476681 0.117028
vt 0.474676 0.110942
vt 0.496937 0.129282
vt 0.497054 0.132419
vt 0.499828 0.125428
vt 0.499597 0.129238
vt 0.499384 0.132458
vt 0.502197 0.129997
vt 0.501000 0.131979
vt 0.502652 0.126729
vt 0.500603 0.121376
vt 0.502954 0.122774
vt 0.502786 0.116647
vt 0.503505 0.118065
vt 0.275213 0.697146
vt 0.272652 0.697986
vt 0.272874 0.696049
vt 0.277331 0.694849
vt 0.275764 0.692376
vt 0.507592 0.125476
vt 0.508311 0.121164
vt 0.278024 0.699917
vt 0.274269 0.702126
vt 0.512776 0.119771
vt 0.515085 0.123042
vt 0.513711 0.126346
vt 0.518256 0.132489
vt 0.519885 0.126873
vt 0.287946 0.701547
vt 0.287072 0.705789
vt 0.281141 0.702475
vt 0.282671 0.699097
vt 0.279392 0.697077
vt 0.289512 0.711537
vt 0.295243 0.706440
vt 0.298687 0.711969
vt 0.294515 0.701867
vt 0.284479 0.696523
vt 0.288625 0.698047
vt 0.293590 0.697604
vt 0.289318 0.694691
vt 0.293689 0.694114
vt 0.286201 0.694255
vt 0.286691 0.691797
vt 0.289820 0.691514
vt 0.293325 0.691016
vt 0.286948 0.689077
vt 0.289347 0.688293
vt 0.292674 0.687779
vt 0.297723 0.690875
vt 0.298902 0.693281
vt 0.296797 0.688146
vt 0.303952 0.689635
vt 0.305068 0.691705
vt 0.300051 0.688326
vt 0.305941 0.694676
vt 0.299499 0.696383
vt 0.300942 0.700324
vt 0.307355 0.698857
vt 0.310569 0.689688
vt 0.311561 0.693035
vt 0.313068 0.696890
vt 0.315963 0.700747
vt 0.309642 0.703715
vt 0.302519 0.705091
vt 0.320630 0.703922
vt 0.315085 0.706906
vt 0.307672 0.710764
vt 0.322264 0.709717
vt 0.316826 0.713764
vt 0.326691 0.704672
vt 0.523356 0.140997
vt 0.526377 0.148744
vt 0.321232 0.697720
vt 0.325377 0.699090
vt 0.328197 0.700703
vt 0.328252 0.694935
vt 0.330544 0.695582
vt 0.325169 0.694647
vt 0.331724 0.700535
vt 0.331215 0.705439
vt 0.332215 0.696033
vt 0.331417 0.692078
vt 0.329376 0.691494
vt 0.326858 0.691013
vt 0.324529 0.690098
vt 0.321751 0.692795
vt 0.325701 0.687207
vt 0.317969 0.695495
vt 0.319535 0.690035
vt 0.322515 0.688278
vt 0.316083 0.691775
vt 0.315087 0.688521
vt 0.319090 0.687046
vt 0.309899 0.686978
vt 0.314526 0.685769
vt 0.318775 0.685051
vt 0.318669 0.682846
vt 0.314239 0.683403
vt 0.309519 0.684303
vt 0.323102 0.684558
vt 0.323215 0.685830
vt 0.326370 0.684816
vt 0.318702 0.680754
vt 0.314165 0.681100
vt 0.309270 0.681298
vt 0.309133 0.677569
vt 0.304747 0.685004
vt 0.304618 0.681568
vt 0.304472 0.676998
vt 0.299758 0.676110
vt 0.300329 0.681610
vt 0.294762 0.674451
vt 0.295781 0.681578
vt 0.300679 0.685184
vt 0.296302 0.685149
vt 0.291929 0.685005
vt 0.290913 0.681853
vt 0.288068 0.685695
vt 0.285418 0.681966
vt 0.285767 0.686826
vt 0.283607 0.685220
vt 0.284802 0.689530
vt 0.284357 0.687946
vt 0.283200 0.687606
vt 0.281337 0.684640
vt 0.281412 0.682169
vt 0.281339 0.687584
vt 0.283256 0.689492
vt 0.282103 0.689808
vt 0.283442 0.691332
vt 0.280374 0.690824
vt 0.279551 0.688469
vt 0.282476 0.693068
vt 0.280529 0.694614
vt 0.278843 0.692339
vt 0.277502 0.689703
vt 0.279048 0.685637
vt 0.281617 0.677218
vt 0.285410 0.676638
vt 0.284363 0.667769
vt 0.282637 0.656066
vt 0.289866 0.676081
vt 0.288122 0.666638
vt 0.285968 0.655807
vt 0.281835 0.644188
vt 0.285162 0.644019
vt 0.283904 0.633712
vt 0.281081 0.634071
vt 0.282202 0.626987
vt 0.280445 0.625650
vt 0.286439 0.621773
vt 0.517354 0.179447
vt 0.507332 0.129413
vt 0.505101 0.132425
vt 0.502641 0.134506
vt 0.500639 0.135269
vt 0.497779 0.135823
vt 0.498703 0.140335
s 1
usemtl abyss_chancel_background_pbr
f 2/1/1 8/2/2 5/3/3 1/4/4
f 1/4/4 3/5/5 314/6/6 2/1/1
f 3/5/5 1/4/4 4/7/7 316/8/8
f 1/4/4 5/3/3 7/9/9 4/7/7
f 10/10/10 6/11/11 5/3/3 8/2/2
f 6/11/11 333/12/12 7/9/9 5/3/3
f 175/13/13 9/14/14 8/2/2 2/1/1
f 9/14/14 12/15/15 10/10/10 8/2/2
f 332/16/16 6/11/11 10/10/10 11/17/17
f 14/18/18 11/19/17 10/20/10 12/21/15
f 9/14/14 176/22/19 13/23/20 12/15/15
f 14/18/18 12/21/15 13/24/20 15/25/21
f 14/18/18 15/25/21 19/26/22 16/27/23
f 16/27/23 17/28/24 11/19/17 14/18/18
f 16/27/23 18/29/25 511/30/26 17/28/24
f 18/29/25 16/27/23 19/26/22 20/31/27
f 20/31/27 19/26/22 21/32/28 24/33/29
f 15/25/21 23/34/30 21/32/28 19/26/22
f 25/35/31 24/33/29 21/32/28 22/36/32
f 21/32/28 23/34/30 207/37/33 22/36/32
f 26/38/34 28/39/35 20/31/27 24/33/29
f 25/35/31 27/40/36 26/38/34 24/33/29
f 30/41/37 29/42/38 26/38/34 27/40/36
f 32/43/39 28/39/35 26/38/34 29/42/38
f 29/42/38 30/41/37 216/44/40 31/45/41
f 31/45/41 34/46/42 32/43/39 29/42/38
f 512/47/43 28/39/35 32/43/39 33/48/44
f 36/49/45 33/48/44 32/43/39 34/46/42
f 303/50/46 35/51/47 34/46/42 31/45/41
f 38/52/48 36/49/45 34/46/42 35/51/47
f 36/49/45 37/53/49 509/54/50 33/48/44
f 37/53/49 36/49/45 38/52/48 39/55/51
f 38/52/48 40/56/52 41/57/53 39/55/51
f 35/51/47 43/58/54 40/56/52 38/52/48
f 42/59/55 514/60/56 41/57/53 40/56/52
f 45/61/57 42/59/55 40/56/52 43/58/54
f 303/50/46 44/62/58 43/58/54 35/51/47
f 47/63/59 45/61/57 43/58/54 44/62/58
f 46/64/60 45/61/57 47/63/59 48/65/61
f 45/61/57 46/64/60 515/66/62 42/59/55
f 51/67/63 48/65/61 47/63/59 49/68/64
f 50/69/65 49/68/64 47/63/59 44/62/58
f 49/68/64 50/69/65 54/70/66 52/71/67
f 52/71/67 53/72/68 51/67/63 49/68/64
f 53/72/68 52/71/67 55/73/69 58/74/70
f 55/73/69 52/71/67 54/70/66 57/75/71
f 60/76/72 58/74/70 55/73/69 56/77/73
f 222/78/74 56/77/73 55/73/69 57/75/71
f 58/74/70 59/79/75 455/80/76 53/72/68
f 59/79/75 58/74/70 60/76/72 61/81/77
f 64/82/78 62/83/79 60/76/72 56/77/73
f 65/84/80 61/81/77 60/76/72 62/83/79
f 63/85/81 66/86/82 65/84/80 62/83/79
f 62/83/79 64/82/78 230/87/83 63/85/81
f 68/88/84 61/81/77 65/84/80 67/89/85
f 70/90/86 67/89/85 65/84/80 66/86/82
f 67/89/85 69/91/87 448/92/88 68/88/84
f 69/91/87 67/89/85 70/90/86 71/93/89
f 74/94/90 72/95/91 70/90/86 66/86/82
f 75/96/92 71/93/89 70/90/86 72/95/91
f 73/97/93 76/98/94 75/96/92 72/95/91
f 72/95/91 74/94/90 236/99/95 73/97/93
f 78/100/96 71/93/89 75/96/92 77/101/97
f 80/102/98 77/101/97 75/96/92 76/98/94
f 77/101/97 79/103/99 433/104/100 78/100/96
f 79/103/99 77/101/97 80/102/98 81/105/101
f 83/106/102 81/105/101 80/102/98 82/107/103
f 84/108/104 82/107/103 80/102/98 76/98/94
f 88/109/105 83/106/102 82/107/103 85/110/106
f 87/111/107 85/112/106 82/113/103 84/114/104
f 90/115/108 88/116/105 85/112/106 86/117/109
f 242/118/110 86/117/109 85/112/106 87/111/107
f 83/106/102 88/109/105 89/119/111 429/120/112
f 90/121/108 91/122/113 89/119/111 88/109/105
f 91/123/113 90/115/108 92/124/114 94/125/115
f 92/124/114 90/115/108 86/117/109 93/126/116
f 92/124/114 93/126/116 97/127/117 95/128/118
f 98/129/119 94/125/115 92/124/114 95/128/118
f 96/130/120 99/131/121 98/129/119 95/128/118
f 95/128/118 97/127/117 119/132/122 96/130/120
f 103/133/123 100/134/124 98/129/119 99/131/121
f 101/135/125 94/125/115 98/129/119 100/134/124
f 102/136/126 420/137/127 101/135/125 100/134/124
f 103/133/123 104/138/128 102/136/126 100/134/124
f 103/133/123 105/139/129 106/140/130 104/138/128
f 99/131/121 107/141/131 105/139/129 103/133/123
f 108/142/132 109/143/133 106/140/130 105/139/129
f 111/144/134 108/142/132 105/139/129 107/141/131
f 108/142/132 110/145/135 384/146/136 109/143/133
f 110/145/135 108/142/132 111/144/134 112/147/137
f 114/148/138 112/147/137 111/144/134 113/149/139
f 116/150/140 113/149/139 111/144/134 107/141/131
f 115/151/141 521/152/142 114/148/138 113/149/139
f 113/149/139 116/150/140 117/153/143 115/151/141
f 107/141/131 99/131/121 96/130/120 116/150/140
f 116/150/140 96/130/120 119/132/122 117/153/143
f 115/151/141 117/153/143 118/154/144 524/155/145
f 119/132/122 120/156/146 118/154/144 117/153/143
f 121/157/147 120/156/146 119/132/122 97/127/117
f 121/157/147 124/158/148 122/159/149 120/156/146
f 118/154/144 120/156/146 122/159/149 125/160/150
f 127/161/151 125/160/150 122/159/149 123/162/152
f 122/159/149 124/158/148 248/163/153 123/162/152
f 126/164/154 524/155/145 118/154/144 125/160/150
f 127/161/151 129/165/155 126/164/154 125/160/150
f 123/162/152 251/166/156 128/167/157 127/161/151
f 129/165/155 127/161/151 128/167/157 130/168/158
f 130/168/158 133/169/159 131/170/160 129/165/155
f 131/170/160 132/171/161 126/164/154 129/165/155
f 135/172/162 132/171/161 131/170/160 134/173/163
f 136/174/164 134/173/163 131/170/160 133/169/159
f 138/175/165 135/172/162 134/173/163 137/176/166
f 140/177/167 137/176/166 134/173/163 136/174/164
f 137/176/166 139/178/168 365/179/169 138/175/165
f 140/177/167 141/180/170 139/178/168 137/176/166
f 141/180/170 140/177/167 142/181/171 143/182/172
f 142/181/171 140/177/167 136/174/164 144/183/173
f 146/184/174 143/182/172 142/181/171 145/185/175
f 148/186/176 145/185/175 142/181/171 144/183/173
f 145/185/175 147/187/177 317/188/178 146/184/174
f 148/186/176 149/189/179 147/187/177 145/185/175
f 150/190/180 151/191/181 149/189/179 148/186/176
f 150/190/180 148/186/176 144/183/173 153/192/182
f 152/193/183 162/194/184 151/191/181 150/190/180
f 152/193/183 150/190/180 153/192/182 154/195/185
f 130/168/158 154/195/185 153/192/182 133/169/159
f 153/192/182 144/183/173 136/174/164 133/169/159
f 154/195/185 155/196/186 157/197/187 152/193/183
f 154/195/185 130/168/158 128/167/157 155/196/186
f 156/198/188 155/196/186 128/167/157 251/166/156
f 156/198/188 158/199/189 157/197/187 155/196/186
f 161/200/190 159/201/191 157/197/187 158/199/189
f 157/197/187 159/201/191 162/194/184 152/193/183
f 159/201/191 160/202/192 163/203/193 162/194/184
f 159/201/191 161/200/190 299/204/194 160/202/192
f 163/203/193 165/205/195 151/191/181 162/194/184
f 167/206/196 165/205/195 163/203/193 164/207/197
f 298/208/198 164/207/197 163/203/193 160/202/192
f 165/205/195 166/209/199 149/189/179 151/191/181
f 165/205/195 167/206/196 168/210/200 166/209/199
f 167/206/196 169/211/201 170/212/202 168/210/200
f 169/211/201 167/206/196 164/207/197 172/213/203
f 170/212/202 169/211/201 171/214/204 313/215/205
f 172/213/203 174/216/206 171/214/204 169/211/201
f 173/217/207 172/213/203 164/207/197 298/208/198
f 173/217/207 177/218/208 174/216/206 172/213/203
f 9/14/14 175/13/13 174/216/206 176/22/19
f 175/13/13 313/215/205 171/214/204 174/216/206
f 179/219/209 176/22/19 174/216/206 177/218/208
f 177/218/208 173/217/207 296/220/210 178/221/211
f 179/219/209 177/218/208 178/221/211 181/222/212
f 180/223/213 179/219/209 181/222/212 182/224/214
f 179/219/209 180/223/213 13/23/20 176/22/19
f 182/224/214 181/222/212 183/225/215 185/226/216
f 178/221/211 186/227/217 183/225/215 181/222/212
f 189/228/218 184/229/219 183/225/215 187/230/220
f 310/231/221 185/226/216 183/225/215 184/229/219
f 188/232/222 187/230/220 183/225/215 186/227/217
f 188/232/222 192/233/223 190/234/224 187/230/220
f 189/228/218 187/230/220 190/234/224 191/235/225
f 191/235/225 190/234/224 193/236/226 196/237/227
f 192/233/223 194/238/228 193/236/226 190/234/224
f 194/238/228 281/239/229 195/240/230 193/236/226
f 196/237/227 193/236/226 195/240/230 197/241/231
f 197/241/231 200/242/232 198/243/233 196/237/227
f 198/244/233 199/245/234 191/246/225 196/247/227
f 201/248/235 204/249/236 199/245/234 198/244/233
f 203/250/237 201/248/235 198/244/233 200/251/232
f 202/252/238 206/253/239 204/249/236 201/248/235
f 201/248/235 203/250/237 277/254/240 202/252/238
f 205/255/241 305/256/242 199/245/234 204/249/236
f 207/37/33 205/255/241 204/249/236 206/253/239
f 208/257/243 22/36/32 207/37/33 206/253/239
f 209/258/244 208/257/243 206/253/239 202/252/238
f 209/258/244 211/259/245 210/260/246 208/257/243
f 22/36/32 208/257/243 210/260/246 25/35/31
f 27/40/36 25/35/31 210/260/246 211/259/245
f 209/258/244 213/261/247 212/262/248 211/259/245
f 27/40/36 211/259/245 212/262/248 30/41/37
f 276/263/249 214/264/250 212/262/248 213/261/247
f 216/44/40 30/41/37 212/262/248 215/265/251
f 217/266/252 215/265/251 212/262/248 214/264/250
f 218/267/253 219/268/254 216/44/40 215/265/251
f 215/265/251 217/266/252 220/269/255 218/267/253
f 219/268/254 218/267/253 54/70/66 50/69/65
f 54/70/66 218/267/253 220/269/255 57/75/71
f 217/266/252 223/270/256 221/271/257 220/269/255
f 57/75/71 220/269/255 221/271/257 222/78/74
f 221/271/257 224/272/258 227/273/259 222/78/74
f 226/274/260 224/272/258 221/271/257 223/270/256
f 225/275/261 228/276/262 227/273/259 224/272/258
f 224/272/258 226/274/260 273/277/263 225/275/261
f 56/77/73 222/78/74 227/273/259 64/82/78
f 227/273/259 228/276/262 230/87/83 64/82/78
f 228/276/262 225/275/261 270/278/264 229/279/265
f 229/279/265 231/280/266 230/87/83 228/276/262
f 230/87/83 231/280/266 233/281/267 63/85/81
f 231/280/266 229/279/265 264/282/268 232/283/269
f 231/280/266 232/283/269 234/284/270 233/281/267
f 233/281/267 234/284/270 236/99/95 74/94/90
f 66/86/82 63/85/81 233/281/267 74/94/90
f 262/285/271 235/286/272 234/287/270 232/288/269
f 235/286/272 237/289/273 236/290/95 234/287/270
f 236/290/95 237/289/273 239/291/274 73/292/93
f 237/289/273 238/293/275 240/294/276 239/291/274
f 237/289/273 235/286/272 260/295/277 238/293/275
f 84/114/104 239/291/274 240/294/276 87/111/107
f 76/98/94 73/97/93 239/296/274 84/108/104
f 238/293/275 244/297/278 241/298/279 240/294/276
f 87/111/107 240/294/276 241/298/279 242/118/110
f 241/298/279 243/299/280 302/300/281 242/118/110
f 246/301/282 243/299/280 241/298/279 244/297/278
f 244/297/278 245/302/283 247/303/284 246/301/282
f 244/297/278 238/293/275 260/295/277 245/302/283
f 248/163/153 246/301/282 247/303/284 249/304/285
f 243/299/280 246/301/282 248/163/153 124/158/148
f 251/166/156 123/162/152 248/163/153 249/304/285
f 250/305/286 249/304/285 247/303/284 253/306/287
f 156/198/188 251/166/156 249/304/285 250/305/286
f 253/306/287 254/307/288 252/308/289 250/305/286
f 250/305/286 252/308/289 158/199/189 156/198/188
f 254/307/288 253/306/287 255/309/290 256/310/291
f 247/303/284 245/302/283 255/309/290 253/306/287
f 256/310/291 255/309/290 257/311/292 258/312/293
f 245/302/283 260/295/277 257/311/292 255/309/290
f 258/312/293 257/311/292 259/313/294 266/314/295
f 260/295/277 261/315/296 259/313/294 257/311/292
f 235/286/272 262/285/271 261/315/296 260/295/277
f 261/315/296 262/285/271 263/316/297 259/313/294
f 262/285/271 232/288/269 264/317/268 263/316/297
f 265/318/298 263/316/297 264/317/268 268/319/299
f 266/314/295 259/313/294 263/316/297 265/318/298
f 265/318/298 267/320/300 283/321/301 266/314/295
f 267/320/300 265/318/298 268/319/299 269/322/302
f 264/282/268 229/279/265 270/278/264 268/323/299
f 269/324/302 268/323/299 270/278/264 271/325/303
f 270/278/264 225/275/261 273/277/263 271/325/303
f 269/324/302 271/325/303 272/326/304 278/327/305
f 273/277/263 274/328/306 272/326/304 271/325/303
f 275/329/307 274/328/306 273/277/263 226/274/260
f 274/328/306 275/329/307 277/254/240 203/250/237
f 274/328/306 203/250/237 200/251/232 272/326/304
f 276/263/249 275/329/307 226/274/260 223/270/256
f 276/263/249 213/261/247 277/254/240 275/329/307
f 209/258/244 202/252/238 277/254/240 213/261/247
f 223/270/256 217/266/252 214/264/250 276/263/249
f 278/330/305 272/331/304 200/242/232 197/241/231
f 197/241/231 195/240/230 279/332/308 278/330/305
f 269/322/302 278/330/305 279/332/308 267/320/300
f 279/332/308 280/333/309 283/321/301 267/320/300
f 281/239/229 280/333/309 279/332/308 195/240/230
f 280/333/309 281/239/229 292/334/310 282/335/311
f 280/333/309 282/335/311 284/336/312 283/321/301
f 266/314/295 283/321/301 284/336/312 258/312/293
f 282/335/311 287/337/313 285/338/314 284/336/312
f 258/312/293 284/336/312 285/338/314 256/310/291
f 287/337/313 288/339/315 286/340/316 285/338/314
f 256/310/291 285/338/314 286/340/316 254/307/288
f 287/337/313 289/341/317 290/342/318 288/339/315
f 282/335/311 292/334/310 289/341/317 287/337/313
f 290/342/318 289/341/317 291/343/319 293/344/320
f 194/238/228 192/233/223 291/343/319 289/341/317
f 281/239/229 194/238/228 289/341/317 292/334/310
f 188/232/222 293/344/320 291/343/319 192/233/223
f 188/232/222 186/227/217 294/345/321 293/344/320
f 294/345/321 295/346/322 290/342/318 293/344/320
f 297/347/323 295/346/322 294/345/321 296/220/210
f 178/221/211 296/220/210 294/345/321 186/227/217
f 298/208/198 297/347/323 296/220/210 173/217/207
f 298/208/198 160/202/192 299/204/194 297/347/323
f 295/346/322 297/347/323 299/204/194 300/348/324
f 301/349/325 300/348/324 299/204/194 161/200/190
f 300/348/324 288/339/315 290/342/318 295/346/322
f 300/348/324 301/349/325 286/340/316 288/339/315
f 301/349/325 161/200/190 158/199/189 252/308/289
f 286/340/316 301/349/325 252/308/289 254/307/288
f 124/158/148 121/157/147 302/300/281 243/299/280
f 302/300/281 121/157/147 97/127/117 93/126/116
f 86/117/109 242/118/110 302/300/281 93/126/116
f 303/50/46 219/268/254 50/69/65 44/62/58
f 303/50/46 31/45/41 216/44/40 219/268/254
f 304/350/326 205/255/241 207/37/33 23/34/30
f 205/255/241 304/350/326 306/351/327 305/256/242
f 305/256/242 189/352/218 191/246/225 199/245/234
f 189/352/218 305/256/242 306/351/327 184/353/219
f 308/354/328 306/355/327 307/356/329 311/357/330
f 306/351/327 304/350/326 13/24/20 307/358/329
f 310/231/221 184/229/219 306/355/327 308/354/328
f 308/354/328 309/359/331 185/226/216 310/231/221
f 308/354/328 311/357/330 312/360/332 309/359/331
f 311/357/330 307/356/329 13/23/20 180/223/213
f 180/223/213 182/224/214 312/360/332 311/357/330
f 185/226/216 309/359/331 312/360/332 182/224/214
f 23/34/30 15/25/21 13/24/20 304/350/326
f 175/13/13 2/1/1 314/6/6 313/215/205
f 170/212/202 313/215/205 314/6/6 3/5/5
f 166/209/199 168/210/200 170/212/202 315/361/333
f 316/8/8 315/361/333 170/212/202 3/5/5
f 315/361/333 316/8/8 317/188/178 147/187/177
f 166/209/199 315/361/333 147/187/177 149/189/179
f 317/188/178 316/8/8 4/7/7 318/362/334
f 319/363/335 146/184/174 317/188/178 318/362/334
f 4/7/7 7/9/9 320/364/336 318/362/334
f 319/363/335 318/362/334 320/364/336 322/365/337
f 333/12/12 321/366/338 320/364/336 7/9/9
f 320/364/336 321/366/338 324/367/339 322/365/337
f 324/367/339 325/368/340 323/369/341 322/365/337
f 319/363/335 322/365/337 323/369/341 363/370/342
f 321/366/338 329/371/343 326/372/344 324/367/339
f 326/372/344 327/373/345 325/368/340 324/367/339
f 328/374/346 343/375/347 327/376/345 326/377/344
f 329/378/343 330/379/348 328/374/346 326/377/344
f 330/379/348 329/378/343 331/380/349 332/381/16
f 321/366/338 333/12/12 331/382/349 329/371/343
f 6/11/11 332/16/16 331/382/349 333/12/12
f 11/19/17 17/28/24 334/383/350 332/381/16
f 336/384/351 330/379/348 332/381/16 334/383/350
f 337/385/352 336/384/351 334/383/350 335/386/353
f 334/383/350 17/28/24 511/30/26 335/386/353
f 337/385/352 339/387/354 338/388/355 336/384/351
f 330/379/348 336/384/351 338/388/355 328/374/346
f 338/388/355 340/389/356 343/375/347 328/374/346
f 342/390/357 340/389/356 338/388/355 339/387/354
f 341/391/358 344/392/359 343/375/347 340/389/356
f 340/389/356 342/390/357 498/393/360 341/391/358
f 344/392/359 345/394/361 327/376/345 343/375/347
f 344/392/359 346/395/362 349/396/363 345/394/361
f 341/391/358 347/397/364 346/395/362 344/392/359
f 494/398/365 348/399/366 346/395/362 347/397/364
f 348/399/366 351/400/367 349/396/363 346/395/362
f 351/400/367 353/401/368 350/402/369 349/396/363
f 345/394/361 349/396/363 350/402/369 361/403/370
f 348/399/366 491/404/371 352/405/372 351/400/367
f 353/401/368 351/400/367 352/405/372 354/406/373
f 353/407/368 354/408/373 356/409/374 355/410/375
f 350/411/369 353/407/368 355/410/375 358/412/376
f 357/413/377 355/410/375 356/409/374 364/414/378
f 359/415/379 358/412/376 355/410/375 357/413/377
f 358/412/376 359/415/379 362/416/380 360/417/381
f 360/417/381 361/418/370 350/411/369 358/412/376
f 361/418/370 360/417/381 323/369/341 325/368/340
f 323/369/341 360/417/381 362/416/380 363/370/342
f 362/416/380 359/415/379 139/178/168 141/180/170
f 143/182/172 363/370/342 362/416/380 141/180/170
f 363/370/342 143/182/172 146/184/174 319/363/335
f 345/419/361 361/418/370 325/368/340 327/373/345
f 359/415/379 357/413/377 365/179/169 139/178/168
f 364/414/378 366/420/382 365/179/169 357/413/377
f 365/179/169 366/420/382 367/421/383 138/175/165
f 366/420/382 364/414/378 371/422/384 368/423/385
f 368/423/385 369/424/386 367/421/383 366/420/382
f 368/423/385 370/425/387 519/426/388 369/424/386
f 368/423/385 371/422/384 372/427/389 370/425/387
f 373/428/390 374/429/391 372/427/389 371/422/384
f 356/409/374 373/428/390 371/422/384 364/414/378
f 373/428/390 375/430/392 378/431/393 374/429/391
f 375/430/392 373/428/390 356/409/374 354/408/373
f 376/432/394 378/433/393 375/434/392
f 489/435/395 376/432/394 375/434/392 377/436/396
f 352/405/372 377/436/396 375/434/392 354/406/373
f 381/437/397 374/429/391 378/431/393 379/438/398
f 380/439/399 379/440/398 378/433/393 376/432/394
f 379/438/398 380/441/399 385/442/400 382/443/401
f 381/437/397 379/438/398 382/443/401 384/146/136
f 109/143/133 384/146/136 382/443/401 383/444/402
f 383/444/402 382/443/401 385/442/400 387/445/403
f 389/446/404 387/447/403 385/448/400 386/449/405
f 385/448/400 380/439/399 488/450/406 386/449/405
f 383/451/402 387/447/403 388/452/407 419/453/408
f 387/447/403 389/446/404 390/454/409 388/452/407
f 386/449/405 393/455/410 391/456/411 389/446/404
f 390/454/409 389/446/404 391/456/411 392/457/412
f 391/456/411 394/458/413 396/459/414 392/457/412
f 393/455/410 395/460/415 394/458/413 391/456/411
f 395/460/415 399/461/416 397/462/417 394/458/413
f 397/462/417 400/463/418 396/459/414 394/458/413
f 475/464/419 398/465/420 397/462/417 399/461/416
f 401/466/421 400/463/418 397/462/417 398/465/420
f 402/467/422 405/468/423 396/459/414 400/463/418
f 402/467/422 400/463/418 401/466/421 404/469/424
f 405/468/423 402/467/422 403/470/425 406/471/426
f 402/467/422 404/469/424 467/472/427 403/470/425
f 405/468/423 406/471/426 409/473/428 407/474/429
f 396/459/414 405/468/423 407/474/429 392/457/412
f 390/454/409 392/457/412 407/474/429 408/475/430
f 408/475/430 407/474/429 409/473/428 411/476/431
f 406/471/426 440/477/432 410/478/433 409/473/428
f 411/476/431 409/473/428 410/478/433 412/479/434
f 412/479/434 414/480/435 413/481/436 411/476/431
f 408/475/430 411/476/431 413/481/436 415/482/437
f 413/481/436 414/480/435 417/483/438 416/484/439
f 418/485/440 415/482/437 413/481/436 416/484/439
f 418/485/440 416/484/439 102/486/126 104/487/128
f 417/483/438 420/488/127 102/486/126 416/484/439
f 418/485/440 419/453/408 388/452/407 415/482/437
f 104/138/128 106/140/130 419/489/408 418/490/440
f 109/143/133 383/444/402 419/489/408 106/140/130
f 423/491/441 421/492/442 417/483/438 414/480/435
f 424/493/443 420/488/127 417/483/438 421/492/442
f 422/494/444 426/495/445 424/493/443 421/492/442
f 421/492/442 423/491/441 434/496/446 422/494/444
f 424/493/443 425/497/447 101/498/125 420/488/127
f 428/499/448 425/497/447 424/493/443 426/495/445
f 429/120/112 428/499/448 426/495/445 427/500/449
f 426/495/445 422/494/444 430/501/450 427/500/449
f 425/497/447 428/499/448 89/119/111 91/122/113
f 89/119/111 428/499/448 429/120/112
f 83/106/102 429/120/112 427/500/449 81/105/101
f 81/105/101 427/500/449 430/501/450 79/103/99
f 434/496/446 431/502/451 430/501/450 422/494/444
f 430/501/450 431/502/451 433/104/100 79/103/99
f 432/503/452 431/502/451 434/496/446 435/504/453
f 432/503/452 451/505/454 433/104/100 431/502/451
f 437/506/455 435/504/453 434/496/446 423/491/441
f 435/504/453 436/507/456 452/508/457 432/503/452
f 436/507/456 435/504/453 437/506/455 438/509/458
f 410/478/433 438/509/458 437/506/455 412/479/434
f 414/480/435 412/479/434 437/506/455 423/491/441
f 436/507/456 438/509/458 439/510/459 441/511/460
f 439/510/459 438/509/458 410/478/433 440/477/432
f 444/512/461 442/513/462 439/510/459 440/477/432
f 445/514/463 441/511/460 439/510/459 442/513/462
f 446/515/464 445/514/463 442/513/462 443/516/465
f 457/517/466 443/516/465 442/513/462 444/512/461
f 445/514/463 446/515/464 448/92/88 447/518/467
f 450/519/468 441/511/460 445/514/463 447/518/467
f 449/520/469 447/518/467 448/92/88 69/91/87
f 450/519/468 447/518/467 449/520/469 451/505/454
f 451/505/454 432/503/452 452/508/457 450/519/468
f 441/511/460 450/519/468 452/508/457 436/507/456
f 433/104/100 451/505/454 449/520/469 78/100/96
f 71/93/89 78/100/96 449/520/469 69/91/87
f 448/92/88 446/515/464 453/521/470 68/88/84
f 443/516/465 454/522/471 453/521/470 446/515/464
f 453/521/470 454/522/471 455/80/76 59/79/75
f 61/81/77 68/88/84 453/521/470 59/79/75
f 456/523/472 459/524/473 455/80/76 454/522/471
f 456/523/472 454/522/471 443/516/465 457/517/466
f 466/525/474 458/526/475 456/523/472 457/517/466
f 460/527/476 459/524/473 456/523/472 458/526/475
f 455/80/76 459/524/473 51/67/63 53/72/68
f 460/527/476 48/65/61 51/67/63 459/524/473
f 461/528/477 460/527/476 458/526/475 463/529/478
f 460/527/476 461/528/477 46/64/60 48/65/61
f 461/528/477 462/530/479 515/66/62 46/64/60
f 462/530/479 461/528/477 463/529/478 464/531/480
f 465/532/481 463/529/478 458/526/475 466/525/474
f 468/533/482 464/531/480 463/529/478 465/532/481
f 466/525/474 403/470/425 467/472/427 465/532/481
f 468/533/482 465/532/481 467/472/427 404/469/424
f 468/533/482 404/469/424 401/466/421 469/534/483
f 469/534/483 470/535/484 464/531/480 468/533/482
f 469/534/483 471/536/485 472/537/486 470/535/484
f 471/536/485 469/534/483 401/466/421 398/465/420
f 473/538/487 476/539/488 472/537/486 471/536/485
f 473/538/487 471/536/485 398/465/420 475/464/419
f 475/464/419 481/540/489 474/541/490 473/538/487
f 476/539/488 473/538/487 474/541/490 478/542/491
f 477/543/492 495/544/493 472/537/486 476/539/488
f 476/539/488 478/542/491 479/545/494 477/543/492
f 474/541/490 481/540/489 480/546/495 478/542/491
f 480/546/495 482/547/496 479/545/494 478/542/491
f 480/546/495 481/540/489 484/548/497 482/547/496
f 479/545/494 482/547/496 483/549/498 492/550/499
f 484/548/497 485/551/500 483/549/498 482/547/496
f 485/551/500 484/548/497 399/461/416 395/460/415
f 481/540/489 475/464/419 399/461/416 484/548/497
f 486/552/501 487/553/502 483/549/498 485/551/500
f 395/460/415 393/455/410 486/552/501 485/551/500
f 489/435/395 487/553/502 486/552/501 488/450/406
f 386/449/405 488/450/406 486/552/501 393/455/410
f 376/432/394 489/435/395 488/450/406 380/439/399
f 489/435/395 377/436/396 490/554/503 487/553/502
f 483/549/498 487/553/502 490/554/503 492/550/499
f 493/555/504 492/550/499 490/554/503 491/404/371
f 490/554/503 377/436/396 352/405/372 491/404/371
f 493/555/504 477/543/492 479/545/494 492/550/499
f 477/543/492 493/555/504 494/398/365 495/544/493
f 491/404/371 348/399/366 494/398/365 493/555/504
f 496/556/505 495/544/493 494/398/365 347/397/364
f 496/556/505 497/557/506 472/537/486 495/544/493
f 497/557/506 496/556/505 498/393/360 499/558/507
f 498/393/360 496/556/505 347/397/364 341/391/358
f 501/559/508 499/558/507 498/393/360 342/390/357
f 513/560/509 497/557/506 499/558/507 500/561/510
f 502/562/511 500/561/510 499/558/507 501/559/508
f 501/559/508 342/390/357 339/387/354 503/563/512
f 502/562/511 501/559/508 503/563/512 505/564/513
f 506/565/514 505/564/513 503/563/512 504/566/515
f 504/566/515 503/563/512 339/387/354 337/385/352
f 505/564/513 39/55/51 41/57/53 502/562/511
f 506/565/514 37/53/49 39/55/51 505/564/513
f 37/53/49 506/565/514 507/567/516 509/54/50
f 504/566/515 508/568/517 507/567/516 506/565/514
f 510/569/518 509/54/50 507/567/516 508/568/517
f 512/47/43 33/48/44 509/54/50 510/569/518
f 508/568/517 335/386/353 511/30/26 510/569/518
f 512/47/43 510/569/518 511/30/26 18/29/25
f 512/47/43 18/29/25 20/31/27 28/39/35
f 335/386/353 508/568/517 504/566/515 337/385/352
f 41/57/53 514/60/56 500/561/510 502/562/511
f 462/530/479 513/560/509 500/561/510 514/60/56
f 514/60/56 42/59/55 515/66/62 462/530/479
f 513/560/509 462/530/479 464/531/480 470/535/484
f 513/560/509 470/535/484 472/537/486 497/557/506
f 457/517/466 444/512/461 403/470/425 466/525/474
f 440/477/432 406/471/426 403/470/425 444/512/461
f 91/123/113 94/125/115 101/135/125 425/570/447
f 415/482/437 388/452/407 390/454/409 408/475/430
f 516/571/519 381/437/397 384/146/136 110/145/135
f 374/429/391 381/437/397 516/571/519 372/427/389
f 370/425/387 372/427/389 516/571/519 517/572/520
f 112/147/137 517/572/520 516/571/519 110/145/135
f 517/572/520 518/573/521 519/426/388 370/425/387
f 517/572/520 112/147/137 114/148/138 518/573/521
f 520/574/522 369/424/386 519/426/388 518/573/521
f 520/574/522 518/573/521 114/148/138 521/152/142
f 369/424/386 520/574/522 522/575/523 367/421/383
f 522/575/523 520/574/522 521/152/142 523/576/524
f 132/171/161 135/172/162 522/575/523 523/576/524
f 138/175/165 367/421/383 522/575/523 135/172/162
f 524/155/145 523/576/524 521/152/142 115/151/141
f 523/576/524 524/155/145 126/164/154 132/171/161
