# Blender 5.2.0 LTS
# www.blender.org
mtllib terrain-abyss-chancel-object-029.mtl
o terrain-abyss-chancel-object-029
v -0.748732 0.877049 0.051971
v -0.749272 0.877104 0.053265
v -0.748756 0.875360 0.053492
v -0.749177 0.875504 0.052514
v -0.750253 0.875247 0.053319
v -0.749638 0.875372 0.054401
v -0.750174 0.877005 0.054378
v -0.750921 0.876201 0.050159
v -0.749938 0.876828 0.049385
v -0.748515 0.876910 0.050577
v -0.749810 0.875700 0.051251
v -0.750332 0.877431 0.051192
v -0.751781 0.877271 0.050601
v -0.753167 0.875781 0.051791
v -0.753680 0.876946 0.051321
v -0.752993 0.876984 0.050301
v -0.752171 0.875821 0.050833
v -0.752449 0.877454 0.051735
v -0.753713 0.877403 0.053918
v -0.753919 0.877246 0.055203
v -0.752930 0.877404 0.055265
v -0.752406 0.877448 0.054415
v -0.751082 0.876881 0.055345
v -0.752243 0.876922 0.056026
v -0.753586 0.877099 0.056436
v -0.754587 0.876831 0.056453
v -0.754082 0.876737 0.057635
v -0.753022 0.876253 0.057089
v -0.753448 0.875391 0.056059
v -0.754544 0.875831 0.056491
v -0.755655 0.876528 0.056355
v -0.754812 0.877009 0.055121
v -0.755276 0.876200 0.055175
v -0.754853 0.875288 0.055553
v -0.754128 0.875117 0.054773
v -0.754916 0.875953 0.053899
v -0.754730 0.877273 0.053754
v -0.754364 0.877011 0.052427
v -0.754141 0.875733 0.052737
v -0.753269 0.874954 0.053818
v -0.752429 0.875169 0.055206
v -0.752239 0.875094 0.052913
v -0.751378 0.874969 0.054209
v -0.751814 0.875938 0.056419
v -0.750655 0.875465 0.055431
v -0.751048 0.875369 0.052058
v -0.753138 0.877446 0.052810
v -0.751633 0.877461 0.053397
v -0.750873 0.877477 0.052363
vn 0.8716 0.4816 -0.0918
vn 0.6649 0.6857 0.2961
vn 0.8069 -0.5075 0.3023
vn 0.6541 -0.7503 -0.0964
vn 0.1274 -0.9893 -0.0708
vn 0.6440 -0.5471 0.5347
vn 0.5104 0.7005 0.4989
vn -0.0163 -0.4204 -0.9072
vn 0.2789 0.1830 -0.9427
vn 0.8252 0.1693 -0.5389
vn 0.3639 -0.8703 -0.3318
vn 0.0490 0.9727 -0.2270
vn -0.1871 0.7333 -0.6537
vn -0.4581 -0.7455 -0.4841
vn -0.7290 0.3248 -0.6026
vn -0.5268 0.2599 -0.8093
vn -0.2364 -0.7129 -0.6603
vn -0.1389 0.9818 -0.1298
vn -0.1411 0.9900 -0.0019
vn -0.1469 0.9762 0.1593
vn 0.0600 0.9766 0.2067
vn 0.0786 0.9869 0.1409
vn 0.4990 0.6693 0.5505
vn 0.3654 0.7585 0.5396
vn 0.0992 0.9202 0.3786
vn -0.4591 0.7708 0.4416
vn -0.1016 0.2154 0.9712
vn 0.2979 -0.0975 0.9496
vn 0.0220 -0.8927 0.4501
vn -0.4283 -0.6703 0.6061
vn -0.9319 0.1444 0.3328
vn -0.5875 0.8092 0.0061
vn -0.9927 -0.0867 -0.0833
vn -0.5199 -0.8408 0.1507
vn -0.3525 -0.9357 0.0109
vn -0.8807 -0.3658 -0.3010
vn -0.7040 0.6845 -0.1893
vn -0.7583 0.4388 -0.4821
vn -0.6566 -0.6097 -0.4440
vn -0.2156 -0.9698 -0.1143
vn 0.0594 -0.9517 0.3011
vn -0.0773 -0.9720 -0.2218
vn 0.1054 -0.9896 0.0978
vn 0.4717 -0.2610 0.8423
vn 0.5468 -0.4844 0.6829
vn 0.0289 -0.9606 -0.2763
vn -0.1413 0.9854 -0.0951
vn 0.0799 0.9912 0.1055
vn 0.0895 0.9954 0.0326
vt 0.601429 0.026466
vt 0.601602 0.025782
vt 0.602323 0.026334
vt 0.602404 0.027068
vt 0.878503 0.019175
vt 0.878142 0.018641
vt 0.878675 0.018419
vt 0.879061 0.018918
vt 0.601878 0.025075
vt 0.602367 0.025728
vt 0.599639 0.027146
vt 0.600178 0.026729
vt 0.601039 0.026927
vt 0.601115 0.027606
vt 0.600555 0.026051
vt 0.599553 0.026200
vt 0.877572 0.020564
vt 0.877107 0.021105
vt 0.876728 0.020710
vt 0.877075 0.019981
vt 0.876362 0.019997
vt 0.876094 0.020622
vt 0.876442 0.021382
vt 0.600154 0.023939
vt 0.600657 0.023369
vt 0.601026 0.023729
vt 0.600913 0.024204
vt 0.601890 0.024340
vt 0.601654 0.023703
vt 0.601332 0.023131
vt 0.600895 0.022743
vt 0.601403 0.022546
vt 0.602000 0.022649
vt 0.601689 0.021709
vt 0.601022 0.022008
vt 0.600523 0.022356
vt 0.600291 0.022992
vt 0.599913 0.022282
vt 0.600435 0.021659
vt 0.600784 0.021348
vt 0.878440 0.021659
vt 0.879032 0.021273
vt 0.879136 0.021724
vt 0.878772 0.022067
vt 0.599847 0.023466
vt 0.599570 0.022808
vt 0.877482 0.021608
vt 0.877978 0.021135
vt 0.877945 0.022157
vt 0.878638 0.020732
vt 0.879717 0.020954
vt 0.879347 0.020366
vt 0.878233 0.020143
vt 0.878905 0.019776
vt 0.880070 0.020091
vt 0.879568 0.019411
vt 0.877815 0.019485
vt 0.600593 0.027864
vt 0.599500 0.027615
vt 0.877661 0.018863
vt 0.602230 0.023546
vt 0.880406 0.020783
vt 0.602491 0.023974
vt 0.879742 0.018488
vt 0.880044 0.018966
vt 0.877429 0.022419
vt 0.876905 0.021961
vt 0.600868 0.024842
vt 0.600041 0.024608
vt 0.600693 0.025448
vt 0.599833 0.025258
s 1
usemtl abyss_chancel_background_pbr
f 1/1/1 2/2/2 3/3/3 4/4/4
f 5/5/5 4/6/4 3/7/3 6/8/6
f 7/9/7 6/10/6 3/3/3 2/2/2
f 8/11/8 9/12/9 10/13/10 11/14/11
f 4/4/4 11/14/11 10/13/10 1/1/1
f 12/15/12 1/1/1 10/13/10 9/12/9
f 13/16/13 12/15/12 9/12/9 8/11/8
f 14/17/14 15/18/15 16/19/16 17/20/17
f 8/21/8 17/20/17 16/19/16 13/22/13
f 18/23/18 13/22/13 16/19/16 15/18/15
f 19/24/19 20/25/20 21/26/21 22/27/22
f 23/28/23 22/27/22 21/26/21 24/29/24
f 25/30/25 24/29/24 21/26/21 20/25/20
f 25/30/25 26/31/26 27/32/27 28/33/28
f 29/34/29 28/33/28 27/32/27 30/35/30
f 31/36/31 30/35/30 27/32/27 26/31/26
f 32/37/32 33/38/33 31/36/31 26/31/26
f 34/39/34 30/35/30 31/36/31 33/38/33
f 29/34/29 30/35/30 34/39/34 35/40/35
f 36/41/36 35/42/35 34/43/34 33/44/33
f 32/37/32 37/45/37 36/46/36 33/38/33
f 38/47/38 39/48/39 36/41/36 37/49/37
f 40/50/40 35/42/35 36/41/36 39/48/39
f 29/51/29 35/42/35 40/50/40 41/52/41
f 14/17/14 42/53/42 40/50/40 39/48/39
f 43/54/43 41/52/41 40/50/40 42/53/42
f 44/55/44 41/52/41 43/54/43 45/56/45
f 46/57/46 5/5/5 43/54/43 42/53/42
f 6/8/6 45/56/45 43/54/43 5/5/5
f 14/17/14 17/20/17 46/57/46 42/53/42
f 8/11/8 11/14/11 46/58/46 17/59/17
f 4/6/4 5/5/5 46/57/46 11/60/11
f 25/30/25 28/33/28 44/61/44 24/29/24
f 29/51/29 41/52/41 44/55/44 28/62/28
f 23/28/23 24/29/24 44/61/44 45/63/45
f 7/64/7 23/65/23 45/56/45 6/8/6
f 15/18/15 14/17/14 39/48/39 38/47/38
f 19/66/19 47/67/47 38/47/38 37/49/37
f 18/23/18 15/18/15 38/47/38 47/67/47
f 22/27/22 48/68/48 47/69/47 19/24/19
f 49/70/49 18/71/18 47/69/47 48/68/48
f 7/9/7 2/2/2 49/70/49 48/68/48
f 1/1/1 12/15/12 49/70/49 2/2/2
f 13/16/13 18/71/18 49/70/49 12/15/12
f 23/28/23 7/9/7 48/68/48 22/27/22
f 20/25/20 19/24/19 37/45/37 32/37/32
f 25/30/25 20/25/20 32/37/32 26/31/26
