# Blender 5.2.0 LTS
# www.blender.org
mtllib terrain-abyss-chancel-object-096.mtl
o terrain-abyss-chancel-object-096
v 0.321704 0.289552 -0.006826
v 0.326393 0.290915 -0.011320
v 0.321553 0.284120 -0.003571
v 0.319504 0.291062 -0.009345
v 0.323901 0.293955 -0.007780
v 0.316368 0.286218 -0.005944
v 0.317144 0.287231 -0.009201
v 0.316042 0.282520 -0.003174
v 0.310764 0.285583 -0.004679
v 0.303766 0.288717 -0.002430
v 0.311327 0.285707 -0.008621
v 0.310047 0.281725 -0.002380
v 0.302458 0.282494 -0.001391
v 0.309294 0.276729 -0.002125
v 0.301945 0.276909 -0.001484
v 0.308761 0.270577 -0.002638
v 0.315004 0.276456 -0.002703
v 0.319452 0.276017 -0.002438
v 0.313727 0.270015 -0.003544
v 0.312532 0.262304 -0.004915
v 0.317840 0.269467 -0.003951
v 0.321494 0.269327 -0.005457
v 0.316977 0.261792 -0.004720
v 0.319995 0.261652 -0.006082
v 0.316674 0.252878 -0.004540
v 0.320222 0.253094 -0.005586
v 0.316096 0.242035 -0.004068
v 0.311672 0.252860 -0.006459
v 0.310578 0.241947 -0.005988
v 0.307677 0.253127 -0.004815
v 0.305885 0.242398 -0.006147
v 0.301688 0.254695 -0.002267
v 0.308602 0.262746 -0.003188
v 0.302008 0.263725 -0.002843
v 0.301795 0.270885 -0.002533
v 0.290911 0.263773 -0.003287
v 0.276082 0.262149 -0.002523
v 0.291845 0.270098 -0.002245
v 0.290835 0.255979 -0.004500
v 0.290170 0.245249 -0.004230
v 0.275126 0.254911 -0.003488
v 0.274464 0.245914 -0.005067
v 0.257259 0.255251 -0.003590
v 0.258675 0.262671 -0.003265
v 0.255849 0.248081 -0.004799
v 0.242789 0.259066 -0.004439
v 0.244804 0.265838 -0.004556
v 0.240353 0.251926 -0.004409
v 0.230441 0.263241 -0.004631
v 0.233898 0.269325 -0.004686
v 0.226995 0.255501 -0.004517
v 0.214137 0.264676 -0.004830
v 0.211570 0.256040 -0.004965
v 0.202854 0.264611 -0.003651
v 0.216783 0.271531 -0.004341
v 0.219068 0.276568 -0.003583
v 0.203581 0.272315 -0.004007
v 0.204693 0.278038 -0.003502
v 0.194440 0.271389 -0.007341
v 0.193983 0.278258 -0.004724
v 0.195501 0.263775 -0.008400
v 0.191674 0.272632 -0.016471
v 0.191471 0.280612 -0.015613
v 0.196725 0.273696 -0.016302
v 0.192035 0.263995 -0.015286
v 0.197225 0.264375 -0.016874
v 0.193011 0.254342 -0.015204
v 0.194176 0.242197 -0.015360
v 0.196428 0.254368 -0.009661
v 0.197972 0.254804 -0.016620
v 0.198990 0.243141 -0.016427
v 0.204752 0.255791 -0.010573
v 0.205051 0.244325 -0.010747
v 0.217934 0.257543 -0.010107
v 0.204654 0.265449 -0.010587
v 0.219924 0.266590 -0.010605
v 0.205105 0.273840 -0.011768
v 0.221254 0.273359 -0.011793
v 0.205293 0.280286 -0.012948
v 0.205558 0.285466 -0.011803
v 0.220755 0.279919 -0.012907
v 0.196196 0.281230 -0.015408
v 0.196186 0.285849 -0.012842
v 0.187115 0.285449 -0.012597
v 0.195961 0.286912 -0.007365
v 0.195484 0.283086 -0.004121
v 0.186055 0.286586 -0.007108
v 0.205516 0.287018 -0.006769
v 0.219093 0.286028 -0.006647
v 0.205392 0.282934 -0.003788
v 0.218982 0.282145 -0.003485
v 0.238865 0.281603 -0.002259
v 0.239099 0.286272 -0.005496
v 0.256795 0.281495 -0.002081
v 0.239105 0.275040 -0.005188
v 0.244152 0.272638 -0.007999
v 0.256502 0.276819 -0.005428
v 0.257079 0.276248 -0.008993
v 0.271233 0.275984 -0.005081
v 0.271012 0.276206 -0.009949
v 0.271989 0.280318 -0.002008
v 0.284398 0.273533 -0.004503
v 0.277127 0.268914 -0.004453
v 0.293463 0.275467 -0.001598
v 0.286623 0.264347 -0.008102
v 0.283996 0.279859 -0.001967
v 0.284552 0.276465 -0.011221
v 0.297974 0.271978 -0.011278
v 0.308234 0.272179 -0.011361
v 0.297114 0.277531 -0.012636
v 0.299687 0.264713 -0.009608
v 0.300853 0.255540 -0.007943
v 0.308311 0.263926 -0.009984
v 0.313473 0.262916 -0.011095
v 0.308006 0.254202 -0.010521
v 0.307885 0.242955 -0.011122
v 0.313270 0.253605 -0.010767
v 0.313060 0.242302 -0.010390
v 0.317941 0.253148 -0.009110
v 0.318053 0.261930 -0.009636
v 0.317845 0.242005 -0.008557
v 0.320159 0.241984 -0.004992
v 0.317283 0.226435 -0.007965
v 0.312215 0.227006 -0.009862
v 0.316120 0.206598 -0.008080
v 0.319817 0.226695 -0.004600
v 0.319290 0.207115 -0.004578
v 0.315117 0.226844 -0.003499
v 0.314019 0.207651 -0.003221
v 0.309274 0.227083 -0.005289
v 0.303774 0.227670 -0.007066
v 0.307383 0.208033 -0.004603
v 0.305348 0.190858 -0.004127
v 0.301103 0.208940 -0.006716
v 0.298686 0.191930 -0.006179
v 0.293714 0.210733 -0.003970
v 0.289164 0.194962 -0.003412
v 0.297684 0.229075 -0.003583
v 0.282381 0.213410 -0.003505
v 0.274888 0.197273 -0.000755
v 0.265469 0.217802 -0.003863
v 0.287755 0.231049 -0.003441
v 0.271638 0.233172 -0.004813
v 0.253518 0.237230 -0.004727
v 0.249157 0.222577 -0.003748
v 0.237728 0.241635 -0.004241
v 0.234977 0.227032 -0.003277
v 0.223770 0.244197 -0.004221
v 0.221650 0.228892 -0.005256
v 0.210837 0.243690 -0.003928
v 0.202018 0.242871 -0.005206
v 0.211335 0.228129 -0.002454
v 0.211748 0.210383 -0.003459
v 0.203594 0.226828 -0.006050
v 0.205953 0.209125 -0.006923
v 0.199075 0.226248 -0.011361
v 0.197300 0.242337 -0.010572
v 0.202127 0.208061 -0.011442
v 0.196433 0.226188 -0.015686
v 0.202174 0.207786 -0.015558
v 0.201145 0.227894 -0.015806
v 0.206129 0.209113 -0.013295
v 0.206432 0.229642 -0.010683
v 0.210508 0.210567 -0.009452
v 0.215674 0.231601 -0.009788
v 0.216350 0.245761 -0.010489
v 0.217887 0.212263 -0.009043
v 0.230237 0.232782 -0.008503
v 0.229314 0.214180 -0.009379
v 0.232624 0.246381 -0.009360
v 0.249948 0.232200 -0.009646
v 0.251530 0.245124 -0.009927
v 0.248916 0.214996 -0.008517
v 0.272405 0.231449 -0.009932
v 0.271364 0.214068 -0.009171
v 0.289306 0.230613 -0.008492
v 0.272890 0.245177 -0.010046
v 0.288963 0.245180 -0.009145
v 0.272953 0.254692 -0.008810
v 0.287972 0.256722 -0.009530
v 0.273799 0.262102 -0.007264
v 0.254293 0.254475 -0.009120
v 0.235844 0.257247 -0.009728
v 0.256630 0.262428 -0.008091
v 0.259177 0.267966 -0.006070
v 0.239559 0.264946 -0.009538
v 0.301460 0.243942 -0.009036
v 0.300832 0.229104 -0.011502
v 0.298631 0.209692 -0.011739
v 0.306996 0.227452 -0.011813
v 0.304750 0.206951 -0.011119
v 0.301704 0.186005 -0.010564
v 0.310370 0.206662 -0.009366
v 0.307160 0.186570 -0.009207
v 0.313599 0.188082 -0.008304
v 0.304151 0.163812 -0.008650
v 0.310239 0.167571 -0.007758
v 0.305447 0.140272 -0.008492
v 0.299049 0.161915 -0.009699
v 0.292602 0.160769 -0.010633
v 0.298997 0.132981 -0.008333
v 0.295788 0.104362 -0.007760
v 0.303506 0.118975 -0.006617
v 0.291647 0.134116 -0.009004
v 0.289441 0.106700 -0.007854
v 0.282703 0.134456 -0.009609
v 0.281502 0.106938 -0.009290
v 0.283023 0.161843 -0.009221
v 0.269820 0.134738 -0.008142
v 0.269162 0.161867 -0.007964
v 0.250856 0.134773 -0.008533
v 0.268651 0.109855 -0.007845
v 0.251722 0.111774 -0.008048
v 0.265883 0.093205 -0.007934
v 0.251961 0.095249 -0.007478
v 0.263056 0.080353 -0.007900
v 0.277768 0.089398 -0.008496
v 0.272959 0.077904 -0.008210
v 0.284431 0.086716 -0.007733
v 0.279625 0.076440 -0.007696
v 0.288930 0.084498 -0.007515
v 0.285377 0.082918 -0.002746
v 0.290997 0.073732 -0.005160
v 0.301220 0.099808 -0.008342
v 0.294257 0.091950 -0.002862
v 0.302092 0.103668 -0.003770
v 0.296355 0.111813 -0.002607
v 0.296337 0.126054 -0.003091
v 0.288055 0.106669 -0.002569
v 0.307331 0.123495 -0.006103
v 0.312090 0.120212 -0.007865
v 0.305119 0.129212 -0.004083
v 0.314168 0.121057 -0.006394
v 0.311426 0.127653 -0.004944
v 0.310693 0.143272 -0.004465
v 0.304228 0.140592 -0.003648
v 0.308584 0.164625 -0.005913
v 0.310823 0.141535 -0.007632
v 0.303456 0.158114 -0.003784
v 0.310712 0.176793 -0.003588
v 0.303836 0.175171 -0.003891
v 0.312501 0.190469 -0.003372
v 0.317478 0.177460 -0.005645
v 0.318384 0.189904 -0.005061
v 0.296806 0.174936 -0.004783
v 0.297177 0.155241 -0.004145
v 0.284641 0.178009 -0.001810
v 0.289432 0.154589 -0.004548
v 0.283529 0.169181 -0.002058
v 0.286554 0.173387 -0.000060
v 0.279447 0.191520 0.003391
v 0.259601 0.197847 0.003756
v 0.286364 0.175650 0.003062
v 0.275063 0.189549 0.002467
v 0.283169 0.176051 0.003286
v 0.273832 0.182540 -0.001994
v 0.259264 0.193907 0.002529
v 0.260053 0.188123 0.001183
v 0.250040 0.191707 0.000943
v 0.245745 0.188383 -0.001596
v 0.246446 0.195438 0.003977
v 0.252158 0.182275 0.000501
v 0.252357 0.166356 0.001908
v 0.248175 0.178399 -0.000972
v 0.246631 0.168370 0.002167
v 0.241985 0.172072 -0.000498
v 0.244212 0.167015 -0.001562
v 0.240611 0.167336 0.001281
v 0.234740 0.170616 0.002958
v 0.235991 0.170592 -0.003592
v 0.240848 0.183369 -0.003021
v 0.233865 0.178121 -0.003539
v 0.239952 0.192676 -0.002501
v 0.239967 0.190158 0.001910
v 0.242319 0.198094 0.001177
v 0.233425 0.185352 -0.003657
v 0.234233 0.193855 -0.003708
v 0.223771 0.176892 -0.000118
v 0.230494 0.173603 -0.000675
v 0.224983 0.167697 0.003154
v 0.219766 0.177055 -0.001282
v 0.217424 0.161006 -0.002675
v 0.213282 0.160579 -0.005153
v 0.215813 0.150999 -0.004420
v 0.221889 0.157471 -0.000435
v 0.228963 0.150811 0.002340
v 0.219022 0.151150 -0.002691
v 0.225116 0.146390 -0.000627
v 0.219253 0.142645 -0.003343
v 0.224943 0.128487 -0.002430
v 0.216974 0.141282 -0.004612
v 0.223471 0.142002 -0.001595
v 0.228489 0.132134 -0.001118
v 0.231659 0.137725 -0.000621
v 0.235248 0.119761 -0.001195
v 0.239091 0.131532 -0.002083
v 0.235306 0.102486 -0.001117
v 0.228205 0.114068 -0.002073
v 0.245099 0.120125 -0.002501
v 0.246149 0.130436 -0.002643
v 0.243927 0.105613 -0.001788
v 0.253023 0.121205 -0.001535
v 0.257715 0.121190 0.002081
v 0.252263 0.131272 0.001108
v 0.252425 0.107070 -0.002323
v 0.257448 0.107889 0.001776
v 0.251675 0.091237 -0.001833
v 0.242882 0.089992 -0.001400
v 0.257058 0.091995 0.001842
v 0.250382 0.076756 -0.001091
v 0.249515 0.065550 -0.000914
v 0.242649 0.075714 -0.001183
v 0.256303 0.076466 0.001519
v 0.261325 0.075659 0.000189
v 0.255292 0.065848 0.000945
v 0.261020 0.065760 0.000480
v 0.255331 0.056122 0.000174
v 0.250347 0.055120 -0.001638
v 0.261121 0.056798 -0.000105
v 0.255737 0.049892 -0.000615
v 0.252645 0.047617 -0.002227
v 0.260672 0.049176 -0.000843
v 0.258524 0.042651 -0.000970
v 0.267708 0.049260 -0.002925
v 0.274501 0.048960 -0.003882
v 0.267046 0.056873 -0.002551
v 0.268434 0.042749 -0.003343
v 0.271578 0.036600 -0.004281
v 0.275389 0.042935 -0.004474
v 0.278804 0.042962 -0.007295
v 0.276602 0.037465 -0.005260
v 0.275999 0.033550 -0.005630
v 0.277274 0.038475 -0.008187
v 0.275092 0.035766 -0.007807
v 0.270953 0.031864 -0.006934
v 0.273855 0.042198 -0.008075
v 0.268649 0.041071 -0.007870
v 0.273529 0.048988 -0.008100
v 0.274181 0.055494 -0.007786
v 0.278714 0.048853 -0.007156
v 0.267977 0.049015 -0.008050
v 0.267790 0.056040 -0.008009
v 0.262428 0.049008 -0.007772
v 0.262140 0.056312 -0.007675
v 0.257543 0.048487 -0.007508
v 0.263083 0.041453 -0.007903
v 0.258566 0.041241 -0.007652
v 0.263340 0.033329 -0.007854
v 0.262607 0.023994 -0.007298
v 0.259906 0.034115 -0.002622
v 0.258594 0.034189 -0.007537
v 0.255303 0.034455 -0.006817
v 0.257595 0.024889 -0.007486
v 0.253704 0.024602 -0.005505
v 0.258107 0.019137 -0.007154
v 0.254854 0.018714 -0.005080
v 0.261956 0.018237 -0.005835
v 0.258479 0.018909 -0.004188
v 0.259109 0.024207 -0.003686
v 0.253085 0.040619 -0.006515
v 0.252771 0.041119 -0.002819
v 0.251981 0.047078 -0.006444
v 0.250057 0.054679 -0.006414
v 0.248975 0.046469 -0.003356
v 0.245410 0.053463 -0.003589
v 0.242025 0.064414 -0.003678
v 0.236545 0.063491 -0.003912
v 0.238631 0.071693 -0.005605
v 0.247882 0.063602 -0.006237
v 0.245545 0.071593 -0.006103
v 0.254639 0.063636 -0.007197
v 0.253354 0.071265 -0.007145
v 0.261867 0.063676 -0.007745
v 0.256234 0.056066 -0.007279
v 0.261840 0.070736 -0.007794
v 0.268158 0.063082 -0.008021
v 0.269417 0.069855 -0.008022
v 0.275043 0.061815 -0.007844
v 0.280001 0.060644 -0.004913
v 0.276715 0.068133 -0.007853
v 0.282649 0.067598 -0.005003
v 0.275724 0.071949 -0.003272
v 0.278288 0.086733 -0.003598
v 0.268113 0.074980 -0.002824
v 0.273881 0.062842 -0.003209
v 0.273784 0.055664 -0.003402
v 0.267156 0.065184 -0.002530
v 0.279308 0.054731 -0.005563
v 0.268550 0.090512 -0.003161
v 0.268569 0.108954 -0.002878
v 0.260912 0.091686 -0.000498
v 0.260936 0.108671 -0.001002
v 0.261346 0.122283 -0.001956
v 0.261638 0.131170 -0.001682
v 0.269312 0.123254 -0.002084
v 0.271558 0.134920 0.000368
v 0.279733 0.123851 -0.003683
v 0.280411 0.135981 -0.002914
v 0.279957 0.107905 -0.004448
v 0.288619 0.124225 -0.003805
v 0.289153 0.137533 -0.004250
v 0.296570 0.138358 -0.003534
v 0.281357 0.152256 -0.002335
v 0.282769 0.148330 0.001800
v 0.278750 0.164589 -0.002050
v 0.287163 0.162492 0.001918
v 0.285972 0.162493 0.004206
v 0.280287 0.149373 0.003877
v 0.282746 0.163432 0.002098
v 0.278750 0.164589 -0.002050
v 0.278699 0.152299 0.000667
v 0.261614 0.142935 0.002505
v 0.259143 0.147362 0.002310
v 0.261448 0.153673 -0.000307
v 0.267455 0.137573 0.003944
v 0.259736 0.133169 0.003035
v 0.261170 0.159124 0.001825
v 0.252538 0.154597 -0.000702
v 0.266391 0.162740 -0.000187
v 0.270233 0.177975 -0.001180
v 0.260960 0.179891 0.000727
v 0.279404 0.174759 -0.001116
v 0.246421 0.149339 -0.002852
v 0.251608 0.142718 0.000947
v 0.246399 0.139717 -0.002804
v 0.240345 0.139086 -0.002541
v 0.234344 0.141588 -0.000174
v 0.240098 0.146569 -0.003043
v 0.234969 0.146192 -0.000792
v 0.239250 0.154617 -0.003200
v 0.237838 0.163267 -0.003466
v 0.233627 0.152530 0.000103
v 0.245735 0.158863 -0.003051
v 0.231586 0.162533 0.000737
v 0.227995 0.160423 0.003912
v 0.231903 0.169102 -0.000288
v 0.237757 0.168454 0.000193
v 0.252276 0.080926 -0.007115
v 0.243197 0.081527 -0.006131
v 0.240282 0.095274 -0.006238
v 0.235287 0.082813 -0.006225
v 0.228617 0.083298 -0.007351
v 0.231452 0.096458 -0.006854
v 0.224670 0.097251 -0.008123
v 0.228022 0.113655 -0.007299
v 0.225277 0.135250 -0.007115
v 0.221579 0.115978 -0.009136
v 0.237702 0.112520 -0.006508
v 0.234925 0.134590 -0.007034
v 0.232156 0.159845 -0.008262
v 0.222139 0.158273 -0.007025
v 0.230299 0.187450 -0.009286
v 0.249766 0.161282 -0.008176
v 0.249235 0.188923 -0.007308
v 0.269860 0.188905 -0.008212
v 0.285073 0.187792 -0.008530
v 0.288315 0.212168 -0.007924
v 0.295253 0.185718 -0.011214
v 0.219913 0.185992 -0.007241
v 0.214421 0.185328 -0.008899
v 0.210562 0.186443 -0.011328
v 0.216413 0.159738 -0.009155
v 0.211096 0.162195 -0.012075
v 0.218989 0.138323 -0.009306
v 0.212821 0.141001 -0.011072
v 0.215930 0.119066 -0.010562
v 0.205809 0.143204 -0.010944
v 0.202433 0.148883 -0.013152
v 0.209735 0.140584 -0.008129
v 0.210675 0.122721 -0.009636
v 0.206611 0.165304 -0.014097
v 0.203064 0.168307 -0.015259
v 0.206714 0.187535 -0.013621
v 0.205012 0.189115 -0.011943
v 0.206185 0.190567 -0.008372
v 0.200514 0.171640 -0.011939
v 0.209638 0.191580 -0.004785
v 0.216673 0.193844 -0.002238
v 0.204873 0.172533 -0.009419
v 0.200390 0.157935 -0.011213
v 0.210180 0.174483 -0.005876
v 0.214118 0.175793 -0.003603
v 0.204936 0.158999 -0.009475
v 0.209313 0.159835 -0.007465
v 0.208309 0.149870 -0.008416
v 0.212190 0.150438 -0.006487
v 0.213397 0.140200 -0.006393
v 0.216516 0.124628 -0.005719
v 0.212313 0.123435 -0.007688
v 0.217366 0.109129 -0.005506
v 0.220867 0.125940 -0.003991
v 0.222003 0.111059 -0.004018
v 0.222396 0.097955 -0.004484
v 0.216691 0.099239 -0.009506
v 0.223026 0.084977 -0.004519
v 0.228463 0.099677 -0.002657
v 0.229212 0.086705 -0.002667
v 0.235667 0.087619 -0.001581
v 0.228818 0.074010 -0.002847
v 0.228691 0.063533 -0.003552
v 0.235382 0.072972 -0.001678
v 0.223450 0.072953 -0.005054
v 0.225348 0.072448 -0.008169
v 0.225199 0.065369 -0.004812
v 0.228320 0.063155 -0.007596
v 0.230418 0.060070 -0.007259
v 0.234225 0.059651 -0.006662
v 0.232180 0.064356 -0.002644
v 0.222016 0.083805 -0.007898
v 0.232141 0.072137 -0.006764
v 0.209179 0.099096 -0.011569
v 0.209090 0.107520 -0.010389
v 0.211158 0.106204 -0.007782
v 0.204906 0.101621 -0.010267
v 0.206635 0.098887 -0.009229
v 0.205210 0.096456 -0.012612
v 0.223966 0.194133 -0.003265
v 0.230398 0.209937 -0.004092
v 0.243147 0.207674 -0.002695
v 0.219789 0.210980 -0.003813
v 0.256692 0.204028 -0.000792
v 0.198100 0.158581 -0.013484
v 0.265901 0.035854 -0.003432
v 0.273884 0.031227 -0.005678
v 0.201939 0.254875 -0.004118
v 0.300382 0.243712 -0.002404
v 0.319453 0.269304 -0.010059
v 0.324800 0.275235 -0.011828
v 0.314385 0.271254 -0.011857
v 0.315393 0.279567 -0.013020
v 0.320866 0.286165 -0.012773
v 0.307673 0.278734 -0.012453
v 0.306250 0.284444 -0.010449
v 0.303727 0.288447 -0.007106
v 0.296655 0.282953 -0.012198
v 0.284742 0.281502 -0.012453
v 0.295314 0.286186 -0.008822
v 0.294033 0.286135 -0.003795
v 0.284637 0.285000 -0.009285
v 0.271950 0.285020 -0.009568
v 0.284121 0.284902 -0.004065
v 0.272116 0.285120 -0.004295
v 0.256978 0.285899 -0.004792
v 0.257205 0.285431 -0.010378
v 0.239603 0.285733 -0.011309
v 0.257133 0.280473 -0.012475
v 0.240176 0.279848 -0.012230
v 0.271579 0.280882 -0.012230
v 0.219495 0.284943 -0.011262
v 0.293643 0.281444 -0.001745
v 0.306867 0.289041 -0.006524
v 0.322738 0.290678 -0.011855
v 0.329531 0.286176 -0.011041
v 0.334082 0.284526 -0.006718
v 0.324913 0.275189 -0.002153
v 0.332432 0.277375 -0.002957
v 0.326945 0.271960 -0.004242
v 0.332409 0.273719 -0.006571
v 0.332800 0.277793 -0.012350
v 0.339667 0.273993 -0.007720
v 0.349850 0.273871 -0.008401
v 0.340037 0.278656 -0.012324
v 0.339939 0.277839 -0.002841
v 0.340427 0.283297 -0.006682
v 0.349766 0.277996 -0.003136
v 0.350246 0.283208 -0.006409
v 0.359404 0.278373 -0.003244
v 0.359018 0.282621 -0.006154
v 0.357638 0.275206 -0.009130
v 0.358887 0.281232 -0.009998
v 0.350247 0.279833 -0.012412
v 0.323406 0.294775 -0.010664
v 0.321868 0.295330 -0.008105
v 0.326680 0.295569 -0.009744
v 0.323782 0.302193 -0.006436
v 0.177597 0.282844 -0.005976
v 0.184954 0.282501 -0.005299
v 0.184408 0.279937 -0.008058
v 0.178552 0.281356 -0.007112
v 0.178984 0.281307 -0.010280
v 0.179488 0.284132 -0.011947
vn 0.8778 0.4587 -0.1381
vn 0.2980 -0.0977 0.9495
vn 0.0526 0.4567 0.8880
vn 0.8491 0.3221 -0.4186
vn 0.2075 0.3880 0.8980
vn 0.5633 0.7081 -0.4259
vn 0.0166 0.3208 0.9470
vn -0.1999 0.7754 0.5990
vn -0.5503 0.7626 -0.3400
vn -0.7978 0.5952 -0.0963
vn -0.6812 0.6788 0.2742
vn -0.0069 0.8656 -0.5006
vn 0.2533 0.7121 0.6548
vn 0.1532 0.1944 0.9689
vn 0.0413 0.7963 0.6035
vn 0.0416 0.1512 0.9876
vn 0.2764 0.9350 -0.2223
vn 0.1001 -0.0516 0.9936
vn 0.0591 -0.0363 0.9976
vn 0.0358 -0.0633 0.9973
vn 0.0250 -0.1109 0.9935
vn 0.1144 -0.1131 0.9870
vn 0.1006 -0.1458 0.9842
vn 0.1284 -0.0455 0.9907
vn 0.1196 -0.2119 0.9699
vn 0.2235 -0.1147 0.9679
vn 0.1134 -0.1358 0.9842
vn 0.1281 -0.0785 0.9886
vn 0.6584 -0.6225 0.4232
vn 0.2097 -0.1024 0.9724
vn 0.9386 -0.1129 0.3261
vn 0.0084 0.0213 0.9997
vn 0.9387 0.0062 0.3447
vn -0.0111 -0.0600 0.9981
vn -0.0455 0.0496 0.9977
vn 0.9307 -0.0066 0.3657
vn -0.1712 0.0212 0.9850
vn 0.3075 -0.1129 0.9448
vn 0.2407 -0.0817 0.9672
vn 0.0906 -0.0523 0.9945
vn 0.1839 -0.0649 0.9808
vn 0.0256 -0.0652 0.9975
vn -0.0318 -0.0440 0.9985
vn -0.0790 0.0033 0.9969
vn -0.0581 -0.0582 0.9966
vn -0.0156 0.0549 0.9984
vn 0.0086 -0.1139 0.9935
vn -0.3088 0.9435 0.1199
vn -0.0155 -0.0407 0.9991
vn -0.0838 0.0013 0.9965
vn -0.0376 0.1772 0.9835
vn -0.0345 -0.0839 0.9959
vn 0.0006 -0.0539 0.9985
vn 0.0325 0.1882 0.9816
vn -0.0311 -0.0109 0.9995
vn -0.0024 -0.0075 1.0000
vn 0.0577 0.0176 0.9982
vn -0.0076 -0.0025 1.0000
vn -0.0087 0.0222 0.9997
vn 0.0236 -0.0623 0.9978
vn 0.0336 -0.0229 0.9992
vn 0.0207 -0.0007 0.9998
vn -0.2274 -0.0516 0.9724
vn -0.3514 -0.0555 0.9346
vn -0.1454 -0.1133 0.9829
vn 0.0129 -0.1011 0.9948
vn -0.0677 -0.0816 0.9944
vn 0.1068 -0.2216 0.9693
vn -0.4836 -0.3637 0.7961
vn -0.7388 -0.1233 0.6626
vn -0.7483 -0.0828 0.6581
vn -0.4715 -0.0255 -0.8815
vn -0.7957 -0.0465 -0.6040
vn -0.9023 -0.1108 -0.4167
vn 0.1338 0.2553 -0.9576
vn 0.2191 0.0132 -0.9756
vn 0.2191 -0.0247 -0.9754
vn 0.2267 -0.0028 -0.9740
vn -0.9208 -0.1143 -0.3730
vn -0.7747 -0.0935 0.6254
vn 0.2676 0.0139 -0.9634
vn -0.9107 -0.1198 -0.3953
vn -0.7906 -0.1043 0.6033
vn 0.3896 0.0258 -0.9206
vn 0.3654 0.0137 -0.9307
vn 0.3279 -0.0493 -0.9434
vn 0.0312 -0.0134 -0.9994
vn 0.0525 -0.0180 -0.9985
vn 0.0407 -0.0647 -0.9971
vn 0.0555 -0.1732 -0.9833
vn 0.2406 -0.0955 -0.9659
vn 0.1581 0.1071 -0.9816
vn 0.0309 -0.0036 -0.9995
vn 0.0222 0.7200 -0.6936
vn 0.0899 0.7312 -0.6763
vn 0.0442 0.7743 -0.6313
vn -0.3063 0.4749 -0.8250
vn -0.0308 0.9410 0.3369
vn -0.1693 0.8838 0.4361
vn 0.0253 0.9452 0.3255
vn -0.1589 -0.1354 0.9780
vn -0.0992 0.2416 0.9653
vn -0.0222 0.3301 0.9437
vn 0.0079 0.9387 0.3445
vn -0.0073 0.2671 0.9636
vn -0.0101 0.1172 0.9931
vn -0.0162 0.9136 0.4064
vn -0.0073 0.0001 1.0000
vn 0.0193 0.8870 0.4614
vn 0.0361 -0.7747 0.6313
vn 0.5078 -0.7329 -0.4528
vn 0.0461 -0.9217 -0.3851
vn -0.0487 -0.8214 -0.5683
vn -0.0726 -0.8938 0.4425
vn -0.0323 -0.0484 0.9983
vn -0.1152 -0.5761 -0.8092
vn -0.5504 -0.6671 0.5020
vn -0.0768 0.0170 0.9969
vn -0.1480 0.1487 -0.9778
vn -0.0257 0.2622 -0.9647
vn -0.0726 -0.0793 0.9942
vn -0.0930 0.1406 0.9857
vn -0.1170 -0.0682 -0.9908
vn -0.1453 -0.2536 -0.9563
vn -0.0531 -0.2020 -0.9780
vn 0.0018 0.1008 -0.9949
vn -0.0613 -0.1649 -0.9844
vn -0.1307 -0.0940 -0.9870
vn -0.1049 0.0008 -0.9945
vn -0.0034 0.0605 -0.9982
vn -0.1547 0.0087 -0.9879
vn 0.0278 -0.1630 -0.9862
vn 0.0741 -0.0677 -0.9949
vn 0.1486 -0.0180 -0.9887
vn 0.2533 -0.0240 -0.9671
vn -0.0431 0.0451 -0.9981
vn -0.1420 0.0680 -0.9875
vn 0.6244 -0.0402 -0.7801
vn 0.6198 -0.0446 -0.7835
vn 0.6202 -0.0954 -0.7786
vn 0.9388 -0.0254 0.3436
vn 0.5834 -0.0399 -0.8112
vn 0.3009 -0.0375 -0.9529
vn 0.4942 -0.0357 -0.8686
vn 0.2611 -0.0428 -0.9644
vn 0.9580 -0.0583 0.2809
vn -0.0234 0.0324 0.9992
vn 0.0284 0.0076 0.9996
vn -0.2616 0.0462 0.9641
vn -0.2490 0.0495 0.9672
vn 0.1076 -0.0358 0.9935
vn 0.0260 0.0070 0.9996
vn 0.0177 0.0378 0.9991
vn -0.1821 0.0430 0.9823
vn 0.0825 -0.0157 0.9965
vn 0.2209 -0.0190 0.9751
vn 0.2990 0.0649 0.9521
vn 0.2228 -0.0618 0.9729
vn 0.0412 0.0589 0.9974
vn 0.2187 0.3604 0.9068
vn -0.0411 0.0178 0.9990
vn 0.0046 0.1064 0.9943
vn -0.0209 0.3735 0.9274
vn -0.0206 0.0399 0.9990
vn 0.0271 0.0323 0.9991
vn 0.0054 0.0720 0.9974
vn -0.0279 0.0283 0.9992
vn 0.0017 0.0218 0.9998
vn 0.0109 0.0260 0.9996
vn 0.0408 0.0130 0.9991
vn -0.0435 0.0151 0.9989
vn -0.1063 -0.0162 0.9942
vn -0.4831 -0.0537 0.8739
vn -0.5765 -0.0843 0.8127
vn -0.2580 -0.0205 0.9659
vn 0.0191 0.0286 0.9994
vn -0.6662 -0.0848 0.7409
vn -0.9229 -0.1700 0.3454
vn -0.8290 -0.1504 0.5386
vn -0.8154 -0.1839 -0.5489
vn -0.5076 -0.1756 -0.8435
vn 0.3700 0.0305 -0.9285
vn 0.5129 0.0452 -0.8573
vn 0.4071 0.0246 -0.9131
vn 0.3910 0.0213 -0.9202
vn 0.0654 -0.0298 -0.9974
vn 0.0420 -0.0258 -0.9988
vn 0.0195 -0.0219 -0.9996
vn 0.0197 -0.0276 -0.9994
vn 0.0039 -0.0155 -0.9999
vn -0.0220 -0.0280 -0.9994
vn 0.0019 -0.0305 -0.9995
vn -0.0119 0.0153 -0.9998
vn 0.0175 0.0266 -0.9995
vn 0.0288 -0.0339 -0.9990
vn 0.0114 -0.0368 -0.9993
vn -0.0667 0.0041 -0.9978
vn -0.1273 0.0020 -0.9919
vn 0.0122 0.0269 -0.9996
vn -0.0075 0.1211 -0.9926
vn 0.0263 0.0831 -0.9962
vn 0.0781 0.1766 -0.9812
vn 0.0351 0.0045 -0.9994
vn 0.0900 0.0371 -0.9952
vn 0.1076 0.9920 -0.0660
vn -0.1446 0.0475 -0.9883
vn 0.1159 0.0030 -0.9933
vn 0.1817 -0.0438 -0.9824
vn -0.1225 0.0031 -0.9925
vn 0.2128 -0.0490 -0.9759
vn 0.1789 -0.0489 -0.9826
vn -0.0696 -0.0045 -0.9976
vn 0.3579 -0.0451 -0.9327
vn 0.8196 -0.3092 -0.4824
vn 0.1692 -0.0312 -0.9851
vn 0.1348 -0.0435 -0.9899
vn 0.0641 -0.0408 -0.9971
vn 0.7690 0.0215 -0.6389
vn 0.1082 -0.0576 -0.9925
vn -0.0031 -0.0253 -0.9997
vn 0.0601 -0.0371 -0.9975
vn 0.0693 -0.0261 -0.9973
vn 0.0793 -0.0349 -0.9962
vn 0.4737 -0.0919 -0.8759
vn 0.7457 -0.2843 -0.6026
vn 0.6018 -0.7973 0.0457
vn -0.0349 -0.0133 -0.9993
vn 0.0220 -0.0269 -0.9994
vn -0.1011 0.0055 -0.9949
vn -0.0500 -0.0103 -0.9987
vn -0.0473 -0.0006 -0.9989
vn -0.0388 0.0107 -0.9992
vn -0.0281 -0.0140 -0.9995
vn 0.0042 0.0005 -1.0000
vn -0.0503 -0.0237 -0.9985
vn -0.0467 -0.0073 -0.9989
vn -0.0683 -0.0217 -0.9974
vn 0.0298 -0.0296 -0.9991
vn -0.0496 -0.0055 -0.9988
vn -0.0889 -0.0160 -0.9959
vn 0.0120 -0.0185 -0.9998
vn 0.2057 -0.1950 -0.9590
vn 0.3288 -0.1025 -0.9388
vn 0.1272 -0.3789 -0.9167
vn 0.2581 -0.4323 0.8640
vn 0.3940 -0.9105 0.1252
vn 0.3828 -0.2011 0.9016
vn 0.8152 -0.1645 0.5554
vn 0.0967 0.0159 0.9952
vn -0.0701 0.0158 0.9974
vn 0.0476 0.0091 0.9988
vn -0.0424 0.0230 0.9988
vn 0.1260 -0.0602 0.9902
vn 0.3236 -0.8073 -0.4936
vn 0.8943 -0.4286 0.1288
vn 0.6877 -0.0799 0.7216
vn 0.6721 0.0498 0.7388
vn 0.0869 0.0098 0.9962
vn 0.5858 -0.0551 0.8086
vn 0.0652 0.0218 0.9976
vn -0.0338 -0.0011 0.9994
vn 0.2352 -0.1398 0.9618
vn 0.9616 -0.2714 0.0403
vn 0.9766 -0.1140 0.1823
vn 0.0259 0.0199 0.9995
vn -0.0120 0.0087 0.9999
vn 0.7820 0.2297 0.5794
vn 0.1274 -0.0188 0.9917
vn 0.8964 -0.3052 0.3215
vn 0.8151 -0.1378 0.5626
vn 0.9217 0.0530 -0.3843
vn 0.6699 0.2363 0.7038
vn 0.2897 0.1734 0.9413
vn -0.0312 -0.3344 0.9419
vn -0.1527 -0.2802 0.9477
vn 0.0591 0.2321 0.9709
vn -0.4046 -0.0964 0.9094
vn -0.2023 -0.2089 0.9568
vn -0.4297 -0.1139 0.8958
vn -0.0028 -0.1813 0.9834
vn -0.1731 0.0393 0.9841
vn -0.0292 -0.3722 0.9277
vn -0.1688 -0.0125 0.9856
vn -0.2202 0.1295 0.9668
vn -0.2318 -0.3387 0.9119
vn -0.4677 -0.3194 0.8242
vn -0.1286 -0.0673 0.9894
vn 0.1102 0.0104 0.9939
vn -0.2810 -0.1308 0.9507
vn -0.3626 0.1893 0.9125
vn 0.0656 -0.7014 0.7097
vn -0.2327 -0.0380 0.9718
vn 0.1338 0.0597 0.9892
vn 0.1840 -0.0136 0.9828
vn -0.3546 -0.5629 0.7466
vn -0.0272 -0.0264 -0.9993
vn 0.5195 0.5470 0.6564
vn 0.5206 -0.0378 0.8529
vn 0.0937 0.1137 0.9891
vn -0.4271 -0.1309 0.8947
vn 0.0117 0.0554 0.9984
vn -0.4012 0.3515 0.8459
vn -0.1348 0.0177 0.9907
vn -0.0636 0.1857 0.9805
vn 0.3688 0.3986 0.8397
vn -0.2329 0.0652 0.9703
vn -0.2693 0.1067 0.9571
vn -0.5089 -0.0208 0.8606
vn -0.5241 -0.0919 0.8467
vn -0.4509 -0.0563 0.8908
vn -0.4643 -0.0537 0.8841
vn -0.4775 -0.0695 0.8759
vn -0.4551 -0.0964 0.8852
vn 0.0155 -0.1183 0.9929
vn -0.0088 -0.1148 0.9933
vn -0.3101 -0.1445 0.9397
vn -0.3969 -0.0777 0.9146
vn -0.2832 -0.0801 0.9557
vn -0.4176 -0.0638 0.9064
vn -0.2802 -0.0614 0.9580
vn -0.3464 -0.0423 0.9371
vn -0.1283 -0.0550 0.9902
vn -0.0040 -0.0978 0.9952
vn -0.0085 -0.0086 0.9999
vn 0.1124 -0.0036 0.9937
vn -0.2239 -0.0330 0.9741
vn -0.1760 -0.0190 0.9842
vn -0.0184 -0.0135 0.9997
vn -0.2299 -0.0269 0.9728
vn -0.0568 -0.0069 0.9984
vn 0.0481 0.0131 0.9988
vn -0.3569 -0.0654 0.9319
vn -0.3817 -0.0564 0.9226
vn -0.3169 0.0131 0.9484
vn 0.1387 -0.0828 0.9869
vn 0.0086 0.0087 0.9999
vn 0.0732 -0.2382 0.9684
vn -0.2667 0.0363 0.9631
vn -0.0371 0.0273 0.9989
vn 0.0162 0.0143 0.9998
vn -0.0583 -0.0573 0.9967
vn -0.2481 0.0046 0.9687
vn -0.0719 0.0116 0.9973
vn -0.2891 -0.0655 0.9550
vn -0.1209 -0.0408 0.9918
vn -0.7139 -0.6937 0.0957
vn 0.4017 0.0117 0.9157
vn 0.3316 0.0029 0.9434
vn 0.2664 -0.0324 0.9633
vn -0.1376 -0.1063 0.9848
vn 0.2202 -0.0691 0.9730
vn -0.3185 -0.1186 0.9405
vn -0.2653 -0.1209 0.9566
vn -0.1573 -0.1265 0.9794
vn 0.1365 -0.0867 0.9868
vn -0.0055 -0.1255 0.9921
vn 0.1978 -0.0745 0.9774
vn 0.2149 -0.0598 0.9748
vn 0.2498 -0.0393 0.9675
vn 0.4557 -0.0640 0.8878
vn 0.3458 -0.0666 0.9359
vn 0.2427 -0.0683 0.9677
vn 0.0768 -0.4729 0.8777
vn 0.1264 -0.2210 0.9671
vn 0.7174 -0.2518 0.6496
vn 0.9573 -0.0324 -0.2874
vn 0.9681 0.0076 -0.2503
vn 0.7713 -0.1439 -0.6200
vn 0.7538 -0.6041 0.2584
vn 0.4062 -0.2823 -0.8691
vn 0.4710 -0.8523 0.2275
vn 0.0238 -0.0098 -0.9997
vn 0.1345 -0.9396 -0.3147
vn -0.0065 -0.0412 -0.9991
vn -0.0204 0.0035 -0.9998
vn 0.1107 0.0340 -0.9933
vn -0.0161 0.0047 -0.9999
vn 0.2029 0.0296 -0.9787
vn 0.9960 -0.0845 0.0303
vn -0.0598 0.0022 -0.9982
vn -0.0491 0.0078 -0.9988
vn -0.0197 -0.0124 -0.9997
vn -0.1164 -0.0009 -0.9932
vn -0.1072 -0.0069 -0.9942
vn -0.1263 -0.0083 -0.9920
vn 0.3447 -0.5545 -0.7574
vn -0.1585 -0.0205 -0.9871
vn -0.2011 -0.0794 -0.9764
vn 0.9050 -0.1693 -0.3902
vn -0.0804 -0.3236 0.9428
vn 0.1847 -0.0081 0.9828
vn -0.8789 -0.2612 -0.3992
vn -0.7006 -0.3416 -0.6265
vn -0.9984 -0.0543 0.0143
vn -0.1574 -0.6089 -0.7775
vn -0.7794 -0.6132 0.1287
vn 0.7470 -0.6594 -0.0848
vn 0.0855 -0.6479 0.7570
vn -0.6740 -0.3906 0.6271
vn -0.8882 -0.3718 0.2701
vn -0.4700 -0.1648 -0.8671
vn -0.9392 -0.3282 0.1013
vn -0.3349 -0.0966 -0.9373
vn -0.2555 -0.0855 -0.9630
vn 0.0201 -0.1268 -0.9917
vn 0.6811 -0.7298 0.0583
vn 0.2102 -0.0479 -0.9765
vn -0.0757 -0.1045 0.9916
vn -0.1416 -0.0790 -0.9868
vn -0.1062 -0.0126 -0.9943
vn -0.1028 -0.0127 -0.9946
vn -0.0556 -0.0047 -0.9984
vn -0.0587 -0.0051 -0.9983
vn -0.0029 -0.0082 -1.0000
vn -0.0104 -0.0048 -0.9999
vn 0.2357 -0.0454 -0.9708
vn 0.2707 -0.0615 -0.9607
vn 0.9676 -0.2068 0.1451
vn 0.9633 -0.2252 0.1459
vn 0.0868 -0.0264 0.9959
vn 0.1726 -0.0337 0.9844
vn -0.0125 0.0029 0.9999
vn 0.2066 0.0157 0.9783
vn 0.2314 0.0137 0.9728
vn 0.2628 -0.0096 0.9648
vn -0.0103 0.0016 0.9999
vn 0.1632 -0.0099 0.9865
vn 0.4417 0.0032 0.8971
vn 0.4438 -0.0699 0.8934
vn 0.1001 -0.0858 0.9913
vn 0.4004 -0.3597 0.8428
vn 0.3374 -0.3902 0.8566
vn 0.0977 -0.0565 0.9936
vn 0.3627 -0.1513 0.9195
vn 0.0323 0.0089 0.9994
vn -0.0293 0.0214 0.9993
vn 0.7883 -0.3660 0.4946
vn 0.9678 -0.1521 -0.2008
vn 0.9430 -0.2410 0.2297
vn 0.1702 -0.0869 0.9816
vn 0.3350 -0.0256 0.9419
vn -0.5947 0.0895 0.7990
vn -0.3413 0.2593 0.9035
vn -0.3403 0.0545 0.9387
vn 0.3632 0.0832 0.9280
vn -0.0384 0.1699 0.9847
vn 0.1164 -0.2639 0.9575
vn 0.0864 -0.0425 0.9954
vn 0.1316 0.0833 0.9878
vn -0.3952 0.0569 0.9168
vn 0.1668 -0.0723 0.9833
vn -0.3189 0.0038 0.9478
vn 0.1378 0.0201 0.9903
vn -0.2628 0.0259 0.9645
vn -0.2688 0.0342 0.9626
vn -0.2419 -0.1328 0.9612
vn 0.2043 0.0377 0.9782
vn 0.1582 0.0089 0.9874
vn 0.1803 -0.0845 0.9800
vn 0.4430 0.0312 0.8960
vn 0.2207 0.0169 0.9752
vn 0.4994 0.0242 0.8660
vn 0.9198 0.3921 0.0132
vn -0.0580 -0.0283 -0.9979
vn -0.0256 -0.0224 -0.9994
vn 0.1310 -0.0052 -0.9914
vn 0.0944 -0.0127 -0.9955
vn 0.1770 -0.0194 -0.9840
vn 0.1555 0.0013 -0.9878
vn 0.2499 0.0039 -0.9683
vn 0.1616 0.0055 -0.9868
vn -0.0206 -0.0186 -0.9996
vn 0.1602 0.0123 -0.9870
vn -0.0346 -0.0198 -0.9992
vn 0.3260 0.0335 -0.9448
vn -0.0509 -0.0213 -0.9985
vn 0.1259 0.0053 -0.9920
vn 0.0570 -0.0193 -0.9982
vn -0.0315 -0.0248 -0.9992
vn 0.0194 -0.0136 -0.9997
vn -0.0199 -0.0077 -0.9998
vn -0.1299 0.0160 -0.9914
vn 0.3848 0.0322 -0.9224
vn 0.3989 0.0253 -0.9167
vn 0.3521 -0.0115 -0.9359
vn 0.5297 0.0423 -0.8471
vn 0.1597 -0.0287 -0.9868
vn 0.1078 -0.0102 -0.9941
vn -0.9294 -0.0711 -0.3621
vn -0.9126 -0.2692 -0.3076
vn 0.2878 -0.0399 -0.9569
vn -0.2465 0.0569 -0.9675
vn -0.7565 -0.5430 -0.3645
vn -0.5185 -0.0673 0.8524
vn -0.5457 -0.0656 0.8354
vn -0.5571 -0.0253 0.8300
vn 0.1390 0.0207 -0.9901
vn -0.9586 0.0054 -0.2846
vn -0.7995 -0.0023 0.6007
vn -0.9709 0.1459 0.1899
vn -0.4668 -0.0289 0.8839
vn -0.5335 -0.0048 0.8458
vn -0.3921 -0.0608 0.9179
vn -0.1279 -0.0090 0.9917
vn -0.5408 -0.1492 0.8278
vn -0.9852 -0.0738 -0.1544
vn -0.4614 -0.0901 0.8826
vn -0.0414 0.0560 0.9976
vn -0.2691 -0.0356 0.9625
vn -0.4656 -0.0708 0.8822
vn -0.4258 -0.0480 0.9035
vn -0.3802 -0.0261 0.9245
vn -0.4022 -0.1199 0.9077
vn -0.3948 -0.1159 0.9114
vn -0.3481 -0.0558 0.9358
vn -0.7171 -0.5261 -0.4571
vn -0.4907 -0.0881 0.8669
vn -0.6637 -0.0919 0.7423
vn -0.7067 -0.1453 -0.6924
vn -0.2383 -0.0177 0.9710
vn -0.0972 -0.0070 0.9952
vn -0.2658 -0.0334 0.9634
vn -0.8887 -0.1705 0.4256
vn -0.4280 -0.5255 0.7353
vn -0.8858 -0.3757 0.2725
vn -0.0294 -0.3580 0.9332
vn -0.4333 -0.1391 -0.8904
vn -0.3843 -0.4728 -0.7930
vn -0.0311 -0.8891 -0.4566
vn 0.7382 -0.6330 -0.2330
vn 0.6487 -0.5620 -0.5131
vn -0.8493 0.2647 -0.4568
vn -0.8792 0.4579 -0.1319
vn -0.1446 -0.4555 0.8784
vn -0.3753 -0.7902 -0.4846
vn -0.0217 0.0270 0.9994
vn -0.1079 0.1600 0.9812
vn 0.4959 -0.3389 -0.7995
vn 0.2773 -0.4211 -0.8636
vn 0.3757 -0.8548 0.3580
vn -0.0437 0.1068 -0.9933
vn -0.1404 0.2115 -0.9672
vn 0.0396 0.5101 -0.8592
vn -0.0063 0.3982 -0.9173
vn -0.1013 0.8961 -0.4322
vn -0.1136 0.8937 -0.4340
vn -0.0418 0.2407 -0.9697
vn -0.0502 0.9031 -0.4265
vn -0.1803 0.8128 0.5539
vn -0.0545 0.8293 0.5561
vn 0.0195 0.8531 0.5214
vn 0.0200 0.8724 -0.4883
vn -0.0102 0.0543 -0.9985
vn 0.0337 0.8081 -0.5881
vn 0.0094 0.7516 -0.6595
vn 0.0215 -0.1013 -0.9946
vn 0.0478 -0.0911 -0.9947
vn -0.2050 0.2975 -0.9325
vn 0.1665 -0.2134 -0.9627
vn -0.0269 0.9855 0.1676
vn 0.0313 -0.0100 0.9995
vn 0.2068 -0.9762 0.0657
vn 0.0001 0.0498 -0.9988
vn 0.0426 -0.9970 -0.0653
vn 0.0436 -0.1460 0.9883
vn 0.1041 -0.9786 -0.1776
vn 0.0482 -0.1879 0.9810
vn 0.0545 0.2293 -0.9718
vn 0.0003 0.9875 0.1577
vn -0.0055 0.9739 0.2269
vn 0.6467 -0.1837 0.7403
vn 0.6490 0.7373 0.1879
vn 0.5363 -0.7863 -0.3067
vn 0.6355 0.3167 -0.7042
vn -0.2641 0.4176 -0.8694
vn 0.0614 0.9460 0.3182
vn -0.7039 0.5140 0.4902
vn -0.5311 0.2616 -0.8059
vn -0.7203 -0.4620 0.5175
vn -0.2296 -0.9731 0.0186
vn -0.5678 -0.7205 -0.3980
vt 0.869647 0.015904
vt 0.871175 0.015459
vt 0.871715 0.017253
vt 0.867363 0.017318
vt 0.872255 0.018955
vt 0.865129 0.019572
vt 0.195544 0.616822
vt 0.193998 0.614637
vt 0.194667 0.612248
vt 0.195885 0.614775
vt 0.195671 0.612879
vt 0.194988 0.611637
vt 0.193853 0.609650
vt 0.193438 0.610407
vt 0.197820 0.613797
vt 0.197692 0.616024
vt 0.197610 0.618603
vt 0.200139 0.617225
vt 0.200570 0.620566
vt 0.199562 0.615330
vt 0.197318 0.621019
vt 0.195169 0.619667
vt 0.200427 0.623235
vt 0.199876 0.626077
vt 0.196757 0.624035
vt 0.194533 0.622797
vt 0.193517 0.618319
vt 0.192759 0.621775
vt 0.195441 0.627742
vt 0.193516 0.626668
vt 0.191592 0.625332
vt 0.191242 0.620687
vt 0.191881 0.616600
vt 0.190305 0.624475
vt 0.189337 0.629656
vt 0.187885 0.628467
vt 0.191538 0.631321
vt 0.186677 0.634953
vt 0.185027 0.633682
vt 0.189126 0.636612
vt 0.193447 0.632392
vt 0.191180 0.637861
vt 0.196671 0.633469
vt 0.194497 0.639133
vt 0.198555 0.629388
vt 0.203747 0.632350
vt 0.204414 0.629228
vt 0.201985 0.635931
vt 0.210401 0.636968
vt 0.209039 0.640771
vt 0.211669 0.633308
vt 0.206726 0.645215
vt 0.199404 0.641200
vt 0.218745 0.641594
vt 0.217499 0.645607
vt 0.216009 0.649483
vt 0.226163 0.644400
vt 0.225378 0.648024
vt 0.224448 0.651969
vt 0.232623 0.645754
vt 0.232400 0.649536
vt 0.231718 0.654119
vt 0.241278 0.649512
vt 0.240387 0.653215
vt 0.239166 0.657931
vt 0.245665 0.656327
vt 0.243519 0.660992
vt 0.247586 0.652807
vt 0.241946 0.646722
vt 0.248855 0.650185
vt 0.232053 0.641773
vt 0.253830 0.652478
vt 0.252117 0.655204
vt 0.249798 0.658607
vt 0.885354 0.126380
vt 0.889542 0.129357
vt 0.888762 0.131611
vt 0.884890 0.128509
vt 0.256521 0.655516
vt 0.254566 0.659876
vt 0.891789 0.131523
vt 0.891381 0.134763
vt 0.258227 0.656114
vt 0.258699 0.657932
vt 0.261267 0.659322
vt 0.258768 0.660291
vt 0.890151 0.154079
vt 0.888518 0.156992
vt 0.886082 0.156652
vt 0.885883 0.152918
vt 0.893390 0.157883
vt 0.891189 0.160084
vt 0.891660 0.152263
vt 0.889553 0.162336
vt 0.896932 0.155277
vt 0.894432 0.148729
vt 0.262933 0.657765
vt 0.264972 0.659912
vt 0.902730 0.147310
vt 0.903009 0.153760
vt 0.895088 0.143289
vt 0.904062 0.142180
vt 0.904543 0.138330
vt 0.894984 0.138242
vt 0.264441 0.655750
vt 0.895768 0.134820
vt 0.904710 0.134641
vt 0.904081 0.131863
vt 0.896405 0.132017
vt 0.892328 0.129305
vt 0.888945 0.126290
vt 0.892322 0.126633
vt 0.888403 0.123593
vt 0.896519 0.129361
vt 0.887812 0.121378
vt 0.892566 0.124700
vt 0.896457 0.126832
vt 0.904253 0.129388
vt 0.904357 0.126978
vt 0.896902 0.124619
vt 0.904994 0.124352
vt 0.008172 0.047111
vt 0.008564 0.042080
vt 0.010913 0.041316
vt 0.009619 0.046663
vt 0.916991 0.121206
vt 0.916091 0.124383
vt 0.915975 0.127074
vt 0.924406 0.550594
vt 0.925893 0.548506
vt 0.928503 0.557528
vt 0.926985 0.559667
vt 0.927841 0.546525
vt 0.929880 0.554775
vt 0.929458 0.547528
vt 0.930843 0.553312
vt 0.228374 0.641191
vt 0.924856 0.572789
vt 0.922600 0.574580
vt 0.919850 0.566990
vt 0.921388 0.566035
vt 0.935123 0.562439
vt 0.933374 0.564792
vt 0.929242 0.578681
vt 0.925572 0.581416
vt 0.939572 0.568048
vt 0.937248 0.570434
vt 0.925377 0.586934
vt 0.918373 0.588966
vt 0.921525 0.584996
vt 0.204365 0.626390
vt 0.209573 0.628881
vt 0.941301 0.574441
vt 0.943267 0.572313
vt 0.932532 0.589572
vt 0.933832 0.585815
vt 0.935051 0.583084
vt 0.940908 0.586810
vt 0.939060 0.589539
vt 0.936445 0.592878
vt 0.931135 0.594066
vt 0.923441 0.590479
vt 0.934448 0.597191
vt 0.941973 0.592188
vt 0.939220 0.594688
vt 0.360445 0.701128
vt 0.360801 0.705735
vt 0.358724 0.705862
vt 0.357894 0.701697
vt 0.356030 0.696691
vt 0.358560 0.695954
vt 0.364295 0.700292
vt 0.362017 0.695161
vt 0.355557 0.702390
vt 0.353629 0.697550
vt 0.356680 0.706274
vt 0.355065 0.707006
vt 0.353686 0.703234
vt 0.351667 0.698350
vt 0.349359 0.691448
vt 0.351307 0.690496
vt 0.353888 0.689716
vt 0.348988 0.681475
vt 0.351534 0.680375
vt 0.347005 0.682531
vt 0.596099 0.838172
vt 0.594421 0.846178
vt 0.592150 0.845363
vt 0.594884 0.837660
vt 0.183321 0.642104
vt 0.181502 0.640633
vt 0.186015 0.643795
vt 0.181652 0.653026
vt 0.179848 0.649971
vt 0.188414 0.645539
vt 0.184609 0.654702
vt 0.602073 0.851364
vt 0.597975 0.858381
vt 0.594485 0.855768
vt 0.599195 0.849411
vt 0.175162 0.654782
vt 0.174078 0.652494
vt 0.606439 0.854055
vt 0.602085 0.860159
vt 0.191833 0.646787
vt 0.188343 0.656249
vt 0.194464 0.658652
vt 0.192685 0.667919
vt 0.185866 0.664233
vt 0.196696 0.648866
vt 0.203117 0.661414
vt 0.202956 0.670710
vt 0.204711 0.652232
vt 0.214126 0.655413
vt 0.211981 0.663788
vt 0.219812 0.665551
vt 0.222695 0.657676
vt 0.229930 0.660363
vt 0.226687 0.668280
vt 0.236052 0.664007
vt 0.231396 0.671563
vt 0.240071 0.666617
vt 0.234970 0.674524
vt 0.226151 0.679893
vt 0.222618 0.677338
vt 0.228811 0.682460
vt 0.892749 0.177375
vt 0.889615 0.180217
vt 0.888904 0.170511
vt 0.891262 0.168625
vt 0.887115 0.163860
vt 0.892735 0.166725
vt 0.894737 0.176322
vt 0.894768 0.164635
vt 0.895874 0.174635
vt 0.898482 0.163064
vt 0.898472 0.172924
vt 0.903286 0.161519
vt 0.903610 0.171421
vt 0.912166 0.152578
vt 0.912797 0.159755
vt 0.395052 0.675363
vt 0.391572 0.666954
vt 0.396559 0.663676
vt 0.400979 0.671825
vt 0.384901 0.679365
vt 0.382337 0.671272
vt 0.923759 0.157667
vt 0.924064 0.151461
vt 0.375947 0.689793
vt 0.373909 0.683498
vt 0.386017 0.685308
vt 0.371452 0.675430
vt 0.365658 0.686593
vt 0.363032 0.678089
vt 0.368217 0.693143
vt 0.376439 0.694116
vt 0.370835 0.698061
vt 0.906676 0.601384
vt 0.907886 0.597003
vt 0.916536 0.592249
vt 0.915162 0.598663
vt 0.908400 0.593723
vt 0.913478 0.146583
vt 0.924512 0.146809
vt 0.915566 0.142321
vt 0.925350 0.141775
vt 0.911480 0.589920
vt 0.918123 0.137919
vt 0.926521 0.138674
vt 0.220103 0.638614
vt 0.359717 0.688298
vt 0.356495 0.688659
vt 0.354253 0.679323
vt 0.357418 0.679145
vt 0.349525 0.670592
vt 0.351916 0.669436
vt 0.354810 0.667838
vt 0.347061 0.672566
vt 0.344564 0.662542
vt 0.346520 0.659765
vt 0.348428 0.657986
vt 0.341685 0.649891
vt 0.339890 0.651312
vt 0.342390 0.644953
vt 0.351017 0.656217
vt 0.346036 0.644180
vt 0.338859 0.631991
vt 0.342036 0.631653
vt 0.336970 0.640122
vt 0.335701 0.631502
vt 0.335841 0.642864
vt 0.350369 0.642386
vt 0.345769 0.629920
vt 0.355712 0.654509
vt 0.352225 0.628327
vt 0.356497 0.639680
vt 0.362242 0.651607
vt 0.365512 0.635655
vt 0.371331 0.647260
vt 0.360712 0.625595
vt 0.350598 0.620370
vt 0.357673 0.618275
vt 0.344185 0.621214
vt 0.349658 0.614091
vt 0.354952 0.612031
vt 0.344494 0.615137
vt 0.340547 0.621391
vt 0.341169 0.615832
vt 0.338011 0.621594
vt 0.338122 0.619140
vt 0.564144 0.898430
vt 0.564057 0.903262
vt 0.558550 0.898801
vt 0.563722 0.891326
vt 0.334738 0.619585
vt 0.564067 0.883456
vt 0.560111 0.886087
vt 0.570628 0.880185
vt 0.571319 0.886731
vt 0.572525 0.891309
vt 0.576973 0.882475
vt 0.579192 0.886007
vt 0.574914 0.878509
vt 0.332979 0.634390
vt 0.333362 0.643647
vt 0.569954 0.878224
vt 0.568912 0.878104
vt 0.572361 0.876489
vt 0.576489 0.871428
vt 0.578641 0.874536
vt 0.574656 0.870351
vt 0.584526 0.864264
vt 0.584827 0.868463
vt 0.584320 0.862274
vt 0.590542 0.862464
vt 0.588828 0.859399
vt 0.586729 0.856705
vt 0.591404 0.852917
vt 0.589448 0.851517
vt 0.345023 0.674552
vt 0.342985 0.668755
vt 0.593408 0.865055
vt 0.586672 0.871606
vt 0.599930 0.869884
vt 0.589291 0.874953
vt 0.596622 0.873739
vt 0.591375 0.879172
vt 0.599790 0.873351
vt 0.602264 0.872328
vt 0.606732 0.864357
vt 0.607556 0.860528
vt 0.198026 0.675814
vt 0.189322 0.674133
vt 0.187864 0.671254
vt 0.199078 0.673674
vt 0.757672 0.983247
vt 0.757893 0.985425
vt 0.751402 0.987526
vt 0.751357 0.984056
vt 0.752636 0.978388
vt 0.757363 0.979162
vt 0.189352 0.677281
vt 0.196174 0.677857
vt 0.202488 0.678864
vt 0.199389 0.679570
vt 0.196209 0.682413
vt 0.748403 0.957868
vt 0.747368 0.960486
vt 0.742350 0.957082
vt 0.741458 0.954263
vt 0.200303 0.682337
vt 0.197815 0.681280
vt 0.745548 0.967320
vt 0.756033 0.961462
vt 0.750095 0.969126
vt 0.753901 0.958020
vt 0.750993 0.955116
vt 0.752899 0.954754
vt 0.742770 0.951563
vt 0.993445 0.920116
vt 0.989716 0.920166
vt 0.990749 0.916534
vt 0.994092 0.916593
vt 0.994763 0.932468
vt 0.991191 0.930708
vt 0.990843 0.928476
vt 0.994440 0.929794
vt 0.993411 0.927279
vt 0.989715 0.924060
vt 0.128585 0.584800
vt 0.127383 0.588035
vt 0.125537 0.585325
vt 0.127236 0.581285
vt 0.739997 0.947913
vt 0.738548 0.949254
vt 0.738048 0.947220
vt 0.740366 0.951456
vt 0.736425 0.948171
vt 0.736214 0.949291
vt 0.736098 0.946230
vt 0.736432 0.944046
vt 0.739463 0.945183
vt 0.129546 0.577862
vt 0.134691 0.585646
vt 0.133394 0.586039
vt 0.129839 0.581245
vt 0.134679 0.591637
vt 0.130868 0.591252
vt 0.130253 0.588518
vt 0.139583 0.592603
vt 0.138402 0.595441
vt 0.141472 0.591427
vt 0.144856 0.595373
vt 0.142941 0.596337
vt 0.141334 0.597341
vt 0.136393 0.600243
vt 0.134467 0.595867
vt 0.139745 0.601037
vt 0.143707 0.600872
vt 0.141826 0.602430
vt 0.145259 0.600650
vt 0.145746 0.608233
vt 0.148531 0.607867
vt 0.142919 0.607941
vt 0.139720 0.606645
vt 0.144170 0.615136
vt 0.138840 0.611739
vt 0.148963 0.615140
vt 0.136434 0.614694
vt 0.140072 0.618524
vt 0.153543 0.621027
vt 0.149641 0.622201
vt 0.145028 0.623927
vt 0.136878 0.621011
vt 0.133157 0.616812
vt 0.141325 0.626449
vt 0.134867 0.623346
vt 0.138612 0.628573
vt 0.130516 0.619390
vt 0.146425 0.632414
vt 0.143631 0.634430
vt 0.150390 0.629835
vt 0.154772 0.635562
vt 0.151308 0.637869
vt 0.148708 0.640226
vt 0.155194 0.642068
vt 0.152520 0.643954
vt 0.159098 0.639931
vt 0.141979 0.636212
vt 0.146891 0.642278
vt 0.150228 0.645972
vt 0.155362 0.647855
vt 0.152937 0.649555
vt 0.157901 0.646582
vt 0.159221 0.650470
vt 0.157152 0.650535
vt 0.155398 0.652455
vt 0.158165 0.654498
vt 0.154440 0.657587
vt 0.152561 0.654936
vt 0.150478 0.651718
vt 0.151314 0.660051
vt 0.149985 0.657485
vt 0.148367 0.654473
vt 0.158060 0.659816
vt 0.155238 0.660666
vt 0.152819 0.661838
vt 0.149546 0.662911
vt 0.147889 0.659437
vt 0.151894 0.663040
vt 0.154433 0.662882
vt 0.153225 0.663735
vt 0.156266 0.663090
vt 0.148910 0.664920
vt 0.157952 0.664451
vt 0.151232 0.666976
vt 0.339755 0.598296
vt 0.341790 0.601378
vt 0.339471 0.602424
vt 0.337815 0.599708
vt 0.337305 0.602986
vt 0.336324 0.600376
vt 0.343165 0.604419
vt 0.340546 0.605347
vt 0.338277 0.605772
vt 0.345628 0.603476
vt 0.344169 0.600296
vt 0.342324 0.597114
vt 0.346212 0.599154
vt 0.348285 0.602081
vt 0.344339 0.596253
vt 0.337618 0.594199
vt 0.341373 0.592994
vt 0.343574 0.592869
vt 0.341815 0.588960
vt 0.339299 0.589408
vt 0.337743 0.592427
vt 0.337158 0.588772
vt 0.160782 0.658410
vt 0.161516 0.661447
vt 0.345011 0.592219
vt 0.346722 0.595005
vt 0.343201 0.588340
vt 0.340287 0.587313
vt 0.340213 0.585262
vt 0.339292 0.587176
vt 0.338314 0.586543
vt 0.162353 0.662699
vt 0.164315 0.662569
vt 0.165095 0.664623
vt 0.163450 0.665039
vt 0.162396 0.657604
vt 0.160862 0.653328
vt 0.162475 0.654093
vt 0.161115 0.649754
vt 0.163492 0.650818
vt 0.348507 0.597344
vt 0.353030 0.598443
vt 0.350881 0.600203
vt 0.350212 0.596083
vt 0.160654 0.645693
vt 0.356799 0.602450
vt 0.353698 0.603543
vt 0.359674 0.605253
vt 0.359157 0.601169
vt 0.362748 0.604156
vt 0.158530 0.634014
vt 0.161165 0.638200
vt 0.356387 0.606487
vt 0.350542 0.605011
vt 0.352647 0.608019
vt 0.348517 0.609621
vt 0.347186 0.606591
vt 0.344803 0.610921
vt 0.344278 0.607646
vt 0.341072 0.608549
vt 0.341118 0.611859
vt 0.338310 0.608426
vt 0.338062 0.611836
vt 0.141561 0.653455
vt 0.142583 0.649088
vt 0.146072 0.651864
vt 0.144551 0.655143
vt 0.136052 0.648397
vt 0.136791 0.644528
vt 0.139347 0.639667
vt 0.144402 0.645264
vt 0.147853 0.648592
vt 0.146597 0.656865
vt 0.130277 0.637314
vt 0.133901 0.632774
vt 0.136592 0.629993
vt 0.132677 0.625230
vt 0.129201 0.627697
vt 0.130200 0.622356
vt 0.125511 0.624243
vt 0.582689 0.889513
vt 0.585979 0.884778
vt 0.589061 0.888179
vt 0.586205 0.892555
vt 0.125860 0.631559
vt 0.583561 0.880894
vt 0.576714 0.894269
vt 0.581240 0.877911
vt 0.569934 0.902213
vt 0.593564 0.881731
vt 0.597848 0.877875
vt 0.596154 0.875914
vt 0.595131 0.882754
vt 0.598857 0.877824
vt 0.764155 0.979418
vt 0.765213 0.981229
vt 0.770512 0.975606
vt 0.773411 0.977174
vt 0.762600 0.976534
vt 0.766510 0.965518
vt 0.773747 0.964017
vt 0.778271 0.966080
vt 0.763343 0.964047
vt 0.770924 0.962570
vt 0.780330 0.961734
vt 0.126625 0.620817
vt 0.591840 0.889913
vt 0.773270 0.957620
vt 0.780999 0.956991
vt 0.761671 0.968565
vt 0.764818 0.958972
vt 0.753367 0.974641
vt 0.193861 0.680888
vt 0.189622 0.679898
vt 0.130706 0.607288
vt 0.133637 0.610992
vt 0.130407 0.612049
vt 0.127784 0.607940
vt 0.766026 0.955578
vt 0.759633 0.955928
vt 0.133585 0.605995
vt 0.135849 0.609022
vt 0.137494 0.605953
vt 0.135674 0.604348
vt 0.131872 0.602347
vt 0.133995 0.601085
vt 0.128699 0.603444
vt 0.985545 0.920140
vt 0.984425 0.922708
vt 0.986451 0.916341
vt 0.755136 0.956292
vt 0.131731 0.596406
vt 0.993474 0.925688
vt 0.993201 0.922894
vt 0.129393 0.589519
vt 0.128294 0.591305
vt 0.752836 0.953615
vt 0.359454 0.610349
vt 0.363285 0.615805
vt 0.367716 0.614426
vt 0.363506 0.609291
vt 0.371063 0.613374
vt 0.366830 0.608082
vt 0.376064 0.621010
vt 0.372396 0.621369
vt 0.367529 0.622935
vt 0.377757 0.630469
vt 0.373078 0.632188
vt 0.381505 0.630292
vt 0.379371 0.642874
vt 0.383826 0.640093
vt 0.390503 0.652085
vt 0.385885 0.654970
vt 0.377202 0.659551
vt 0.367444 0.663747
vt 0.360118 0.666511
vt 0.387010 0.639430
vt 0.393107 0.650685
vt 0.399886 0.661395
vt 0.390288 0.639181
vt 0.395450 0.650180
vt 0.402201 0.659505
vt 0.385019 0.629699
vt 0.379417 0.621359
vt 0.382398 0.621479
vt 0.388544 0.628196
vt 0.393157 0.639671
vt 0.395332 0.640076
vt 0.392002 0.629574
vt 0.146793 0.594207
vt 0.150095 0.592220
vt 0.150336 0.595672
vt 0.149098 0.598314
vt 0.153749 0.605670
vt 0.155259 0.605185
vt 0.397776 0.649698
vt 0.399107 0.649606
vt 0.403481 0.658524
vt 0.893104 0.187481
vt 0.892498 0.186556
vt 0.891030 0.187308
vt 0.224600 0.692869
vt 0.223207 0.702949
vt 0.221758 0.700872
vt 0.223186 0.691495
vt 0.221635 0.689484
vt 0.219752 0.699619
vt 0.217723 0.696299
vt 0.219078 0.686199
vt 0.219120 0.707218
vt 0.220182 0.707219
vt 0.147798 0.588076
vt 0.145563 0.589269
vt 0.138978 0.584774
vt 0.140970 0.583209
vt 0.215836 0.684338
vt 0.215687 0.694981
vt 0.143373 0.590524
vt 0.136423 0.584779
vt 0.147423 0.599799
vt 0.151121 0.606788
vt 0.158397 0.611959
vt 0.155092 0.613270
vt 0.152642 0.614328
vt 0.159847 0.616453
vt 0.156934 0.619580
vt 0.160955 0.625061
vt 0.162675 0.624176
vt 0.157371 0.626414
vt 0.154122 0.628264
vt 0.161264 0.631356
vt 0.164286 0.629995
vt 0.164598 0.635291
vt 0.166064 0.633415
vt 0.162599 0.636043
vt 0.370505 0.605474
vt 0.370076 0.606869
vt 0.365726 0.602892
vt 0.367234 0.601753
vt 0.365524 0.599252
vt 0.363342 0.599542
vt 0.362137 0.598538
vt 0.364586 0.597872
vt 0.360232 0.598996
vt 0.165540 0.637207
vt 0.163718 0.638598
vt 0.375202 0.612638
vt 0.163286 0.613478
vt 0.380722 0.613530
vt 0.380840 0.610699
vt 0.378839 0.610196
vt 0.163752 0.611249
vt 0.162168 0.612044
vt 0.159349 0.610600
vt 0.162724 0.612623
vt 0.210754 0.681496
vt 0.212955 0.693020
vt 0.217286 0.675031
vt 0.210640 0.672584
vt 0.204326 0.679117
vt 0.220930 0.712749
vt 0.886118 0.159041
vt 0.247708 0.661250
vt 0.357365 0.709927
vt 0.356041 0.710318
vt 0.359533 0.709983
vt 0.852225 0.013730
vt 0.853950 0.012115
vt 0.857772 0.016416
vt 0.852627 0.017627
vt 0.854970 0.008506
vt 0.859944 0.010571
vt 0.945171 0.589129
vt 0.865218 0.013952
vt 0.195442 0.611257
vt 0.196822 0.611126
vt 0.942639 0.584178
vt 0.946175 0.585218
vt 0.937217 0.581071
vt 0.943570 0.581488
vt 0.938564 0.578895
vt 0.945516 0.582296
vt 0.931592 0.576652
vt 0.933360 0.574614
vt 0.939912 0.576598
vt 0.945340 0.579894
vt 0.935299 0.572464
vt 0.931494 0.566885
vt 0.929340 0.569025
vt 0.927279 0.571031
vt 0.925141 0.561907
vt 0.922562 0.552836
vt 0.923314 0.128277
vt 0.916206 0.133005
vt 0.916193 0.129990
vt 0.923340 0.126349
vt 0.923308 0.563871
vt 0.933185 0.550552
vt 0.932023 0.542957
vt 0.204082 0.623285
vt 0.204658 0.620738
vt 0.194785 0.610299
vt 0.866896 0.014827
vt 0.873970 0.021571
vt 0.872303 0.022821
vt 0.859484 0.021712
vt 0.864666 0.024144
vt 0.868728 0.024820
vt 0.188093 0.613280
vt 0.190640 0.617168
vt 0.187700 0.614459
vt 0.855142 0.021148
vt 0.858143 0.026502
vt 0.854108 0.025893
vt 0.184460 0.612698
vt 0.185068 0.610891
vt 0.181318 0.608232
vt 0.182667 0.606756
vt 0.856699 0.032831
vt 0.851983 0.032131
vt 0.185571 0.608775
vt 0.188101 0.609692
vt 0.183380 0.604359
vt 0.180247 0.604986
vt 0.180684 0.603466
vt 0.178288 0.605622
vt 0.179505 0.601172
vt 0.854148 0.038243
vt 0.850577 0.036887
vt 0.183256 0.600566
vt 0.862393 0.027750
vt 0.860333 0.033555
vt 0.869099 0.013554
vt 0.868702 0.012621
vt 0.871934 0.014381
vt 0.870196 0.014592
vt 0.884545 0.120369
vt 0.885107 0.123401
vt 0.885168 0.119873
vt 0.008027 0.036671
vt 0.010036 0.036130
vt 0.008424 0.033176
vt 0.010618 0.033307
vt 0.012045 0.032252
vt 0.008125 0.032152
vt 0.014079 0.035737
vt 0.016617 0.038496
s 1
usemtl abyss_chancel_background_pbr
f 574/1/1 5/2/2 1/3/3 2/4/4
f 1/3/3 3/5/5 553/6/6 2/4/4
f 8/7/7 3/8/5 1/9/3 6/10/8
f 7/11/9 6/10/8 1/9/3 4/12/10
f 573/13/11 4/12/10 1/9/3 5/14/2
f 6/10/8 7/11/9 11/15/12 9/16/13
f 6/10/8 9/16/13 12/17/14 8/7/7
f 12/17/14 9/16/13 10/18/15 13/19/16
f 10/18/15 9/16/13 11/15/12 551/20/17
f 8/7/7 12/17/14 14/21/18 17/22/19
f 12/17/14 13/19/16 15/23/20 14/21/18
f 15/23/20 35/24/21 16/25/22 14/21/18
f 17/22/19 14/21/18 16/25/22 19/26/23
f 3/8/5 8/7/7 17/22/19 18/27/24
f 21/28/25 18/27/24 17/22/19 19/26/23
f 16/25/22 33/29/26 20/30/27 19/26/23
f 21/28/25 19/26/23 20/30/27 23/31/28
f 21/28/25 22/32/29 555/33/30 18/27/24
f 23/31/28 24/34/31 22/32/29 21/28/25
f 24/34/31 23/31/28 25/35/32 26/36/33
f 20/30/27 28/37/34 25/35/32 23/31/28
f 25/35/32 27/38/35 122/39/36 26/36/33
f 29/40/37 27/38/35 25/35/32 28/37/34
f 28/37/34 30/41/38 31/42/39 29/40/37
f 30/41/38 28/37/34 20/30/27 33/29/26
f 32/43/40 526/44/41 31/42/39 30/41/38
f 33/29/26 34/45/42 32/43/40 30/41/38
f 34/45/42 33/29/26 16/25/22 35/24/21
f 36/46/43 34/45/42 35/24/21 38/47/44
f 36/46/43 39/48/45 32/43/40 34/45/42
f 37/49/46 41/50/47 39/48/45 36/46/43
f 36/46/43 38/47/44 103/51/48 37/49/46
f 42/52/49 40/53/50 39/48/45 41/50/47
f 40/53/50 526/44/41 32/43/40 39/48/45
f 44/54/51 43/55/52 41/50/47 37/49/46
f 45/56/53 42/52/49 41/50/47 43/55/52
f 47/57/54 46/58/55 43/55/52 44/54/51
f 48/59/56 45/56/53 43/55/52 46/58/55
f 50/60/57 49/61/58 46/58/55 47/57/54
f 51/62/59 48/59/56 46/58/55 49/61/58
f 50/60/57 55/63/60 52/64/61 49/61/58
f 52/64/61 53/65/62 51/62/59 49/61/58
f 53/65/62 52/64/61 54/66/63 525/67/64
f 55/63/60 57/68/65 54/66/63 52/64/61
f 56/69/66 58/70/67 57/68/65 55/63/60
f 55/63/60 50/60/57 95/71/68 56/69/66
f 57/68/65 58/70/67 60/72/69 59/73/70
f 57/68/65 59/73/70 61/74/71 54/66/63
f 60/75/69 63/76/72 62/77/73 59/78/70
f 61/74/71 59/73/70 62/79/73 65/80/74
f 63/76/72 82/81/75 64/82/76 62/77/73
f 65/80/74 62/79/73 64/83/76 66/84/77
f 66/84/77 70/85/78 67/86/79 65/80/74
f 67/87/79 69/88/80 61/89/71 65/90/74
f 71/91/81 68/92/82 67/87/79 70/93/78
f 157/94/83 69/88/80 67/87/79 68/92/82
f 73/95/84 71/91/81 70/93/78 72/96/85
f 70/85/78 66/84/77 75/97/86 72/98/85
f 73/95/84 72/96/85 74/99/87 166/100/88
f 75/101/86 76/102/89 74/99/87 72/96/85
f 78/103/90 76/102/89 75/101/86 77/104/91
f 64/83/76 77/105/91 75/97/86 66/84/77
f 82/81/75 79/106/92 77/104/91 64/82/76
f 81/107/93 78/103/90 77/104/91 79/106/92
f 549/108/94 81/107/93 79/106/92 80/109/95
f 83/110/96 80/109/95 79/106/92 82/81/75
f 82/81/75 63/76/72 84/111/97 83/110/96
f 85/112/98 83/110/96 84/111/97 87/113/99
f 83/110/96 85/112/98 88/114/100 80/109/95
f 577/115/101 86/116/102 85/112/98 87/113/99
f 86/116/102 90/117/103 88/114/100 85/112/98
f 88/114/100 89/118/104 549/108/94 80/109/95
f 88/114/100 90/117/103 91/119/105 89/118/104
f 58/120/67 56/121/66 91/119/105 90/117/103
f 90/122/103 86/123/102 60/124/69 58/125/67
f 56/121/66 95/126/68 92/127/106 91/119/105
f 89/118/104 91/119/105 92/127/106 93/128/107
f 93/129/107 92/130/106 94/131/108 543/132/109
f 95/133/68 97/134/110 94/131/108 92/130/106
f 97/134/110 95/133/68 96/135/111 98/136/112
f 50/60/57 47/57/54 96/137/111 95/71/68
f 100/138/113 99/139/114 97/140/110 98/141/112
f 99/142/114 101/143/115 94/131/108 97/134/110
f 100/138/113 107/144/116 102/145/117 99/139/114
f 101/143/115 99/142/114 102/146/117 106/147/118
f 105/148/119 181/149/120 103/150/48 102/145/117
f 104/151/121 102/152/117 103/51/48 38/47/44
f 550/153/122 106/147/118 102/146/117 104/154/121
f 111/155/123 105/148/119 102/145/117 108/156/124
f 110/157/125 108/156/124 102/145/117 107/144/116
f 532/158/126 109/159/127 108/156/124 110/157/125
f 108/156/124 109/159/127 113/160/128 111/155/123
f 105/148/119 111/155/123 112/161/129 180/162/130
f 112/161/129 111/155/123 113/160/128 115/163/131
f 109/159/127 529/164/132 114/165/133 113/160/128
f 115/166/131 113/167/128 114/168/133 117/169/134
f 117/169/134 118/170/135 116/171/136 115/166/131
f 112/172/129 115/166/131 116/171/136 187/173/137
f 119/174/138 121/175/139 118/170/135 117/169/134
f 114/168/133 120/176/140 119/174/138 117/169/134
f 120/176/140 24/177/31 26/178/33 119/174/138
f 26/178/33 122/179/36 121/175/139 119/174/138
f 126/180/141 123/181/142 121/175/139 122/179/36
f 123/181/142 124/182/143 118/170/135 121/175/139
f 123/181/142 125/183/144 193/184/145 124/182/143
f 126/180/141 127/185/146 125/183/144 123/181/142
f 128/186/147 129/187/148 127/188/146 126/189/141
f 128/190/147 126/191/141 122/39/36 27/38/35
f 130/192/149 132/193/150 129/194/148 128/190/147
f 27/38/35 29/40/37 130/192/149 128/190/147
f 31/42/39 131/195/151 130/192/149 29/40/37
f 131/195/151 134/196/152 132/193/150 130/192/149
f 134/197/152 135/198/153 133/199/154 132/200/150
f 133/201/154 242/202/155 129/194/148 132/193/150
f 135/198/153 134/197/152 136/203/156 137/204/157
f 131/195/151 138/205/158 136/206/156 134/196/152
f 136/206/156 139/207/159 140/208/160 137/209/157
f 142/210/161 139/207/159 136/206/156 138/205/158
f 139/207/159 141/211/162 521/212/163 140/208/160
f 141/211/162 139/207/159 142/210/161 143/213/164
f 526/44/41 40/53/50 142/210/161 138/205/158
f 42/52/49 143/213/164 142/210/161 40/53/50
f 45/56/53 144/214/165 143/213/164 42/52/49
f 145/215/166 141/211/162 143/213/164 144/214/165
f 147/216/167 145/215/166 144/214/165 146/217/168
f 48/59/56 146/217/168 144/214/165 45/56/53
f 146/217/168 48/59/56 51/62/59 148/218/169
f 148/218/169 149/219/170 147/216/167 146/217/168
f 149/219/170 148/218/169 150/220/171 152/221/172
f 150/220/171 148/218/169 51/62/59 53/65/62
f 525/67/64 151/222/173 150/220/171 53/65/62
f 154/223/174 152/221/172 150/220/171 151/222/173
f 152/221/172 153/224/175 520/225/176 149/219/170
f 153/224/175 152/221/172 154/223/174 155/226/177
f 158/227/178 155/228/177 154/229/174 156/230/179
f 157/94/83 156/230/179 154/229/174 151/231/173
f 68/92/82 159/232/180 156/230/179 157/94/83
f 160/233/181 158/227/178 156/230/179 159/232/180
f 71/91/81 161/234/182 159/232/180 68/92/82
f 162/235/183 160/233/181 159/232/180 161/234/182
f 73/95/84 163/236/184 161/234/182 71/91/81
f 164/237/185 162/235/183 161/234/182 163/236/184
f 166/100/88 165/238/186 163/236/184 73/95/84
f 167/239/187 164/237/185 163/236/184 165/238/186
f 165/238/186 166/100/88 170/240/188 168/241/189
f 168/242/189 169/243/190 167/244/187 165/245/186
f 169/243/190 168/242/189 171/246/191 173/247/192
f 171/248/191 168/241/189 170/240/188 172/249/193
f 177/250/194 174/251/195 171/246/191 172/252/193
f 175/253/196 173/247/192 171/246/191 174/251/195
f 174/251/195 176/254/197 457/255/198 175/253/196
f 176/254/197 174/251/195 177/250/194 178/256/199
f 177/250/194 179/257/200 180/258/130 178/256/199
f 172/259/193 182/260/201 179/261/200 177/262/194
f 181/149/120 105/148/119 180/162/130 179/261/200
f 184/263/202 181/149/120 179/261/200 182/260/201
f 170/240/188 183/264/203 182/265/201 172/249/193
f 186/266/204 184/267/202 182/265/201 183/264/203
f 184/263/202 185/268/205 103/150/48 181/149/120
f 184/267/202 186/266/204 96/269/111 185/270/205
f 76/102/89 78/103/90 96/269/111 186/266/204
f 76/102/89 186/266/204 183/264/203 74/99/87
f 44/54/51 37/49/46 103/51/48 185/271/205
f 44/54/51 185/271/205 96/137/111 47/57/54
f 166/100/88 74/99/87 183/264/203 170/240/188
f 178/256/199 180/258/130 112/172/129 187/173/137
f 178/256/199 187/173/137 188/272/206 176/254/197
f 116/171/136 190/273/207 188/272/206 187/173/137
f 191/274/208 189/275/209 188/272/206 190/273/207
f 188/272/206 189/275/209 457/255/198 176/254/197
f 190/273/207 124/182/143 193/184/145 191/274/208
f 124/182/143 190/273/207 116/171/136 118/170/135
f 193/184/145 194/276/210 192/277/211 191/274/208
f 189/275/209 191/274/208 192/277/211 458/278/212
f 195/279/213 194/276/210 193/184/145 125/183/144
f 194/276/210 195/279/213 197/280/214 196/281/215
f 194/276/210 196/281/215 199/282/216 192/277/211
f 198/283/217 196/281/215 197/280/214 238/284/218
f 198/283/217 201/285/219 199/282/216 196/281/215
f 458/278/212 192/277/211 199/282/216 200/286/220
f 199/282/216 201/285/219 204/287/221 200/286/220
f 201/285/219 202/288/222 205/289/223 204/287/221
f 202/288/222 201/285/219 203/290/224 224/291/225
f 201/285/219 198/283/217 230/292/226 203/290/224
f 206/293/227 204/287/221 205/289/223 207/294/228
f 208/295/229 200/286/220 204/287/221 206/293/227
f 207/294/228 212/296/230 209/297/231 206/293/227
f 208/295/229 206/293/227 209/297/231 210/298/232
f 209/297/231 211/299/233 453/300/234 210/298/232
f 213/301/235 211/299/233 209/297/231 212/296/230
f 212/296/230 214/302/236 215/303/237 213/301/235
f 212/296/230 207/294/228 217/304/238 214/302/236
f 216/305/239 438/306/240 215/303/237 214/302/236
f 217/304/238 218/307/241 216/305/239 214/302/236
f 219/308/242 220/309/243 218/307/241 217/304/238
f 205/289/223 219/308/242 217/304/238 207/294/228
f 219/308/242 221/310/244 222/311/245 220/309/243
f 221/310/244 219/308/242 205/289/223 202/288/222
f 222/312/245 221/313/244 223/314/246 225/315/247
f 202/288/222 224/291/225 223/316/246 221/310/244
f 226/317/248 225/315/247 223/314/246 224/318/225
f 230/319/226 227/320/249 225/315/247 226/317/248
f 225/315/247 227/320/249 229/321/250 222/312/245
f 227/320/249 228/322/251 400/323/252 229/321/250
f 228/322/251 227/320/249 230/319/226 232/324/253
f 226/325/248 224/291/225 203/290/224 230/292/226
f 238/284/218 231/326/254 230/292/226 198/283/217
f 233/327/255 230/319/226 231/328/254
f 234/329/256 232/324/253 230/319/226 233/327/255
f 231/328/254 234/329/256 233/327/255
f 235/330/257 236/331/258 232/324/253 234/329/256
f 235/330/257 234/329/256 231/328/254 238/332/218
f 236/331/258 235/330/257 237/333/259 239/334/260
f 238/332/218 197/335/214 237/333/259 235/330/257
f 241/336/261 239/334/260 237/333/259 240/337/262
f 243/338/263 240/337/262 237/333/259 197/335/214
f 240/337/262 242/339/155 133/199/154 241/336/261
f 242/339/155 240/337/262 243/338/263 244/340/264
f 195/279/213 244/341/264 243/342/263 197/280/214
f 244/341/264 195/279/213 125/183/144 127/185/146
f 242/339/155 244/340/264 127/188/146 129/187/148
f 241/336/261 245/343/265 246/344/266 239/334/260
f 245/343/265 241/336/261 133/199/154 135/198/153
f 135/198/153 137/204/157 247/345/267 245/343/265
f 247/345/267 248/346/268 246/344/266 245/343/265
f 247/345/267 249/347/269 403/348/270 248/346/268
f 247/345/267 250/349/271 249/347/269
f 253/350/272 250/349/271 247/345/267 251/351/273
f 140/352/160 251/351/273 247/345/267 137/204/157
f 257/353/274 254/354/275 251/355/273 252/356/276
f 251/355/273 140/208/160 521/212/163 252/356/276
f 255/357/277 253/358/272 251/359/273 254/360/275
f 254/360/275 256/361/278 422/362/279 255/357/277
f 256/363/278 254/354/275 257/353/274 258/364/280
f 261/365/281 259/366/282 257/353/274 252/356/276
f 262/367/283 258/364/280 257/353/274 259/366/282
f 264/368/284 262/369/283 259/370/282 260/371/285
f 259/366/282 261/365/281 274/372/286 260/373/285
f 258/374/280 262/369/283 263/375/287 421/376/288
f 264/368/284 265/377/289 263/375/287 262/369/283
f 265/377/289 264/368/284 266/378/290 268/379/291
f 260/371/285 271/380/292 266/378/290 264/368/284
f 270/381/293 431/382/294 267/383/295 266/384/290
f 267/385/295 437/386/296 269/387/297 266/388/290
f 268/389/291 266/388/290 269/387/297 434/390/298
f 272/391/299 270/392/293 266/393/290 271/394/292
f 272/395/299 271/380/292 273/396/300 276/397/301
f 271/380/292 260/371/285 274/398/286 273/396/300
f 275/399/302 273/396/300 274/398/286 261/400/281
f 277/401/303 276/397/301 273/396/300 275/399/302
f 272/395/299 276/397/301 278/402/304 279/403/305
f 277/404/303 281/405/306 278/406/304 276/407/301
f 278/406/304 280/408/307 269/409/297 279/410/305
f 280/408/307 278/406/304 282/411/308 285/412/309
f 281/405/306 283/413/310 282/411/308 278/406/304
f 282/411/308 283/413/310 486/414/311 284/415/312
f 287/416/313 285/412/309 282/411/308 284/415/312
f 280/408/307 285/412/309 286/417/314 435/418/315
f 287/416/313 288/419/316 286/417/314 285/412/309
f 287/416/313 289/420/317 292/421/318 288/419/316
f 287/416/313 284/415/312 291/422/319 289/420/317
f 290/423/320 289/420/317 291/422/319 491/424/321
f 290/423/320 293/425/322 292/421/318 289/420/317
f 294/426/323 288/419/316 292/421/318 293/425/322
f 294/426/323 293/425/322 295/427/324 296/428/325
f 290/423/320 298/429/326 295/427/324 293/425/322
f 300/430/327 296/428/325 295/427/324 299/431/328
f 496/432/329 297/433/330 295/427/324 298/429/326
f 301/434/331 299/431/328 295/427/324 297/433/330
f 299/431/328 302/435/332 304/436/333 300/430/327
f 299/431/328 301/434/331 305/437/334 302/435/332
f 303/438/335 302/435/332 305/437/334 306/439/336
f 302/435/332 303/438/335 416/440/337 304/436/333
f 306/439/336 305/437/334 307/441/338 309/442/339
f 301/434/331 308/443/340 307/441/338 305/437/334
f 312/444/341 310/445/342 307/441/338 308/443/340
f 307/441/338 310/445/342 313/446/343 309/442/339
f 310/445/342 311/447/344 315/448/345 313/446/343
f 310/445/342 312/444/341 366/449/346 311/447/344
f 391/450/347 309/442/339 313/446/343 314/451/348
f 313/446/343 315/448/345 316/452/349 314/451/348
f 317/453/350 319/454/351 316/452/349 315/448/345
f 318/455/352 317/453/350 315/448/345 311/447/344
f 318/455/352 321/456/353 320/457/354 317/453/350
f 319/454/351 317/453/350 320/457/354 322/458/355
f 320/457/354 321/456/353 323/459/356 322/458/355
f 322/458/355 323/459/356 327/460/357 324/461/358
f 319/454/351 322/458/355 324/461/358 326/462/359
f 327/460/357 329/463/360 325/464/361 324/461/358
f 326/462/359 324/461/358 325/464/361 386/465/362
f 523/466/363 328/467/364 327/460/357 323/459/356
f 331/468/365 329/463/360 327/460/357 328/467/364
f 330/469/366 340/470/367 325/464/361 329/463/360
f 331/468/365 333/471/368 330/469/366 329/463/360
f 333/471/368 331/468/365 332/472/369 334/473/370
f 328/467/364 524/474/371 332/472/369 331/468/365
f 334/473/370 336/475/372 330/469/366 333/471/368
f 336/475/372 334/473/370 335/476/373 337/477/374
f 335/476/373 334/473/370 332/472/369 524/474/371
f 337/478/374 341/479/375 338/480/376 336/481/372
f 338/480/376 340/482/367 330/483/366 336/481/372
f 342/484/377 339/485/378 338/480/376 341/479/375
f 338/480/376 339/485/378 388/486/379 340/482/367
f 344/487/380 342/484/377 341/479/375 343/488/381
f 346/489/382 343/488/381 341/479/375 337/478/374
f 345/490/383 374/491/384 344/487/380 343/488/381
f 346/489/382 347/492/385 345/490/383 343/488/381
f 346/489/382 337/478/374 335/493/373 348/494/386
f 347/492/385 346/489/382 348/494/386 351/495/387
f 353/496/388 351/495/387 348/494/386 349/497/389
f 349/497/389 348/494/386 350/498/390 359/499/391
f 335/476/373 523/466/363 350/500/390 348/501/386
f 351/495/387 352/502/392 360/503/393 347/492/385
f 354/504/394 352/502/392 351/495/387 353/496/388
f 353/496/388 355/505/395 356/506/396 354/504/394
f 355/505/395 353/496/388 349/497/389 357/507/397
f 357/507/397 358/508/398 356/506/396 355/505/395
f 358/508/398 357/507/397 349/497/389 359/499/391
f 359/509/391 354/510/394 356/511/396 358/512/398
f 354/510/394 359/509/391 350/500/390 352/513/392
f 350/500/390 361/514/399 360/515/393 352/513/392
f 361/514/399 364/516/400 362/517/401 360/515/393
f 347/492/385 360/503/393 362/518/401 345/490/383
f 365/519/402 363/520/403 362/518/401 364/521/400
f 362/518/401 363/520/403 374/491/384 345/490/383
f 364/516/400 361/514/399 323/459/356 321/456/353
f 364/516/400 321/456/353 318/455/352 365/522/402
f 318/455/352 311/447/344 366/449/346 365/522/402
f 363/520/403 365/519/402 366/523/346 369/524/404
f 368/525/405 366/523/346 367/526/406 510/527/407
f 366/449/346 312/444/341 501/528/408 367/529/406
f 370/530/409 369/524/404 366/523/346 368/525/405
f 363/520/403 369/524/404 371/531/410 374/491/384
f 370/530/409 372/532/411 371/531/410 369/524/404
f 375/533/412 373/534/413 371/531/410 372/532/411
f 371/531/410 373/534/413 344/487/380 374/491/384
f 373/534/413 375/533/412 377/535/414 376/536/415
f 376/536/415 342/484/377 344/487/380 373/534/413
f 378/537/416 376/536/415 377/535/414 380/538/417
f 342/484/377 376/536/415 378/537/416 339/485/378
f 388/486/379 339/485/378 378/537/416 379/539/418
f 381/540/419 379/539/418 378/537/416 380/538/417
f 380/538/417 220/309/243 222/311/245 381/540/419
f 220/309/243 380/538/417 377/535/414 218/307/241
f 381/541/419 382/542/420 385/543/421 379/544/418
f 382/542/420 381/541/419 222/545/245 383/546/422
f 382/542/420 383/546/422 389/547/423 384/548/424
f 385/543/421 382/542/420 384/548/424 387/549/425
f 385/543/421 386/465/362 388/550/379 379/544/418
f 385/543/421 387/549/425 326/462/359 386/465/362
f 316/452/349 319/454/351 326/462/359 387/549/425
f 384/548/424 314/451/348 316/452/349 387/549/425
f 325/464/361 340/470/367 388/550/379 386/465/362
f 314/451/348 384/548/424 389/547/423 391/450/347
f 383/546/422 399/551/426 390/552/427 389/547/423
f 389/547/423 390/552/427 392/553/428 391/450/347
f 391/450/347 392/553/428 306/439/336 309/442/339
f 393/554/429 303/438/335 306/439/336 392/553/428
f 395/555/430 393/554/429 392/553/428 390/552/427
f 303/438/335 393/554/429 394/556/431 416/440/337
f 395/555/430 396/557/432 394/556/431 393/554/429
f 397/558/433 398/559/434 396/560/432 395/561/430
f 397/562/433 395/555/430 390/552/427 399/551/426
f 398/559/434 397/558/433 400/323/252 401/563/435
f 400/323/252 397/558/433 399/564/426 229/321/250
f 402/565/436 401/563/435 400/323/252 228/322/251
f 248/346/268 401/563/435 402/565/436 246/344/266
f 401/563/435 248/346/268 403/348/270 398/559/434
f 232/324/253 236/331/258 402/565/436 228/322/251
f 239/334/260 246/344/266 402/565/436 236/331/258
f 222/312/245 229/321/250 399/564/426 383/566/422
f 403/348/270 404/567/437 396/560/432 398/559/434
f 406/568/438 404/567/437 403/348/270 405/569/439
f 403/348/270 249/347/269 405/569/439
f 250/349/271 406/568/438 405/569/439 249/347/269
f 408/570/440 404/567/437 406/568/438 407/571/441
f 406/568/438 250/349/271 253/350/272 407/571/441
f 409/572/442 407/573/441 253/358/272 255/357/277
f 407/573/441 409/572/442 411/574/443 408/575/440
f 410/576/444 411/574/443 409/572/442
f 255/357/277 422/362/279 410/576/444 409/572/442
f 410/576/444 414/577/445 412/578/446 411/574/443
f 408/575/440 411/574/443 412/578/446 415/579/447
f 417/580/448 413/581/449 412/578/446 414/577/445
f 412/578/446 413/581/449 416/582/337 415/579/447
f 415/583/447 416/440/337 394/556/431 396/557/432
f 408/570/440 415/584/447 396/560/432 404/567/437
f 424/585/450 304/586/333 416/582/337 413/581/449
f 419/587/451 417/580/448 414/577/445 410/576/444
f 417/580/448 418/588/452 424/585/450 413/581/449
f 417/580/448 419/587/451 263/375/287 418/588/452
f 420/589/453 419/587/451 410/576/444 422/362/279
f 420/589/453 421/376/288 263/375/287 419/587/451
f 256/363/278 258/364/280 421/590/288 420/591/453
f 422/362/279 256/361/278 420/589/453
f 423/592/454 425/593/455 424/594/450 418/595/452
f 423/596/454 418/588/452 263/375/287 433/597/456
f 300/430/327 304/436/333 424/594/450 425/593/455
f 423/592/454 428/598/457 426/599/458 425/593/455
f 425/593/455 426/599/458 296/428/325 300/430/327
f 296/428/325 426/599/458 427/600/459 294/426/323
f 426/599/458 428/598/457 429/601/460 427/600/459
f 430/602/461 432/603/462 429/601/460 428/598/457
f 433/604/456 430/602/461 428/598/457 423/592/454
f 430/605/461 431/382/294 434/390/298 432/606/462
f 430/605/461 433/607/456 267/383/295 431/382/294
f 267/608/295 433/597/456 263/375/287 265/377/289
f 429/601/460 432/603/462 286/417/314 427/600/459
f 434/609/298 435/418/315 286/417/314 432/603/462
f 437/610/296 268/389/291 434/390/298 436/611/463
f 269/409/297 280/408/307 435/418/315 434/609/298
f 270/381/293 436/611/463 434/390/298 431/382/294
f 436/612/463 279/410/305 269/409/297 437/613/296
f 436/612/463 270/392/293 272/391/299 279/410/305
f 268/379/291 437/614/296 267/608/295 265/377/289
f 294/426/323 427/600/459 286/417/314 288/419/316
f 377/535/414 375/533/412 216/305/239 218/307/241
f 372/532/411 438/306/240 216/305/239 375/533/412
f 439/615/464 438/306/240 372/532/411 370/530/409
f 439/615/464 440/616/465 215/303/237 438/306/240
f 443/617/466 440/616/465 439/615/464 441/618/467
f 368/525/405 441/618/467 439/615/464 370/530/409
f 444/619/468 443/617/466 441/618/467 442/620/469
f 510/527/407 442/620/469 441/618/467 368/525/405
f 447/621/470 445/622/471 443/617/466 444/619/468
f 443/617/466 445/622/471 448/623/472 440/616/465
f 448/623/472 445/622/471 446/624/473 449/625/474
f 447/621/470 464/626/475 446/624/473 445/622/471
f 211/299/233 213/301/235 448/623/472 449/625/474
f 215/303/237 440/616/465 448/623/472 213/301/235
f 450/627/476 449/625/474 446/624/473 451/628/477
f 449/625/474 450/627/476 453/300/234 211/299/233
f 451/628/477 459/629/478 452/630/479 450/627/476
f 453/300/234 450/627/476 452/630/479 454/631/480
f 455/632/481 210/298/232 453/300/234 454/631/480
f 173/247/192 454/631/480 452/630/479 169/243/190
f 454/631/480 173/247/192 175/253/196 455/632/481
f 456/633/482 208/295/229 210/298/232 455/632/481
f 175/253/196 457/255/198 456/633/482 455/632/481
f 189/275/209 458/278/212 456/633/482 457/255/198
f 200/286/220 208/295/229 456/633/482 458/278/212
f 452/630/479 459/629/478 167/244/187 169/243/190
f 459/629/478 451/628/477 462/634/483 460/635/484
f 460/635/484 164/636/185 167/244/187 459/629/478
f 462/634/483 463/637/485 461/638/486 460/635/484
f 164/636/185 460/635/484 461/638/486 162/639/183
f 465/640/487 463/637/485 462/634/483 464/626/475
f 446/624/473 464/626/475 462/634/483 451/628/477
f 466/641/488 465/640/487 464/626/475 447/621/470
f 466/641/488 470/642/489 467/643/490 465/640/487
f 463/637/485 465/640/487 467/643/490 471/644/491
f 472/645/492 471/644/491 467/643/490 468/646/493
f 485/647/494 468/648/493 467/649/490 469/650/495
f 489/651/496 469/650/495 467/649/490 470/652/489
f 463/637/485 471/644/491 473/653/497 461/638/486
f 471/644/491 472/645/492 474/654/498 473/653/497
f 162/639/183 461/638/486 473/653/497 160/655/181
f 160/233/181 473/656/497 474/657/498 158/227/178
f 155/228/177 158/227/178 474/657/498 475/658/499
f 474/659/498 472/660/492 476/661/500 475/662/499
f 155/226/177 475/662/499 477/663/501 153/224/175
f 476/661/500 479/664/502 477/663/501 475/662/499
f 481/665/503 478/666/504 477/663/501 479/664/502
f 477/663/501 478/666/504 520/225/176 153/224/175
f 480/667/505 479/664/502 476/661/500 522/668/506
f 480/669/505 483/670/507 481/671/503 479/672/502
f 517/673/508 478/666/504 481/665/503 482/674/509
f 484/675/510 482/676/509 481/671/503 483/670/507
f 468/648/493 483/670/507 480/669/505
f 468/648/493 485/647/494 484/675/510 483/670/507
f 486/414/311 283/413/310 484/675/510 485/647/494
f 281/405/306 482/676/509 484/675/510 283/413/310
f 469/650/495 487/677/511 486/414/311 485/647/494
f 291/422/319 284/415/312 486/414/311 487/677/511
f 489/651/496 488/678/512 487/677/511 469/650/495
f 488/678/512 491/424/321 291/422/319 487/677/511
f 488/678/512 489/651/496 513/679/513 490/680/514
f 490/680/514 492/681/515 491/424/321 488/678/512
f 298/429/326 290/423/320 491/424/321 492/681/515
f 492/681/515 490/680/514 494/682/516 493/683/517
f 496/432/329 298/429/326 492/681/515 493/683/517
f 495/684/518 493/683/517 494/682/516 509/685/519
f 497/686/520 496/432/329 493/683/517 495/684/518
f 498/687/521 297/433/330 496/432/329 497/686/520
f 497/686/520 499/688/522 501/528/408 498/687/521
f 497/686/520 495/684/518 502/689/523 499/688/522
f 500/690/524 499/688/522 502/689/523 504/691/525
f 499/688/522 500/690/524 508/692/526 501/528/408
f 495/693/518 509/694/519 503/695/527 502/696/523
f 504/697/525 502/696/523 503/695/527 505/698/528
f 504/697/525 505/698/528 506/699/529 500/700/524
f 367/526/406 505/698/528 503/695/527 510/527/407
f 505/698/528 367/526/406 507/701/530 506/699/529
f 506/702/529 507/703/530 508/692/526 500/690/524
f 367/529/406 501/528/408 508/692/526 507/703/530
f 503/695/527 509/694/519 442/620/469 510/527/407
f 442/620/469 509/694/519 494/704/516 444/619/468
f 308/443/340 498/687/521 501/528/408 312/444/341
f 498/687/521 308/443/340 301/434/331 297/433/330
f 494/682/516 490/680/514 513/679/513 511/705/531
f 470/642/489 466/641/488 494/704/516 512/706/532
f 447/621/470 444/619/468 494/704/516 466/641/488
f 514/707/533 512/706/532 494/704/516 511/708/531
f 514/709/533 515/710/534 513/679/513 512/711/532
f 470/652/489 512/711/532 513/679/513 489/651/496
f 514/709/533 516/712/535 515/710/534
f 514/709/533 511/705/531 516/712/535
f 516/712/535 511/705/531 513/679/513 515/710/534
f 277/713/303 517/673/508 482/674/509 281/714/306
f 517/673/508 518/715/536 520/225/176 478/666/504
f 518/715/536 517/673/508 277/713/303 519/716/537
f 519/716/537 145/215/166 147/216/167 518/715/536
f 520/225/176 518/715/536 147/216/167 149/219/170
f 145/215/166 519/716/537 521/212/163 141/211/162
f 521/212/163 519/716/537 277/713/303 275/717/302
f 261/365/281 252/356/276 521/212/163 275/717/302
f 468/718/493 480/667/505 522/668/506
f 468/718/493 522/668/506 476/661/500 472/660/492
f 323/459/356 361/514/399 350/500/390 523/466/363
f 523/466/363 335/476/373 524/474/371 328/467/364
f 151/231/173 525/719/64 69/88/80 157/94/83
f 525/67/64 54/66/63 61/74/71 69/720/80
f 138/205/158 131/195/151 31/42/39 526/44/41
f 120/176/140 527/721/538 22/722/29 24/177/31
f 527/721/538 120/176/140 114/168/133 529/723/132
f 22/724/29 527/725/538 528/726/539 557/727/540
f 527/725/538 529/728/132 530/729/541 528/726/539
f 109/159/127 532/158/126 530/730/541 529/164/132
f 553/6/6 528/726/539 530/729/541 531/731/542
f 7/11/9 531/732/542 530/733/541 11/15/12
f 533/734/543 11/735/12 530/730/541 532/158/126
f 532/158/126 110/157/125 535/736/544 533/734/543
f 534/737/545 533/734/543 535/736/544 537/738/546
f 534/737/545 551/739/17 11/735/12 533/734/543
f 110/157/125 107/144/116 536/740/547 535/736/544
f 537/738/546 535/736/544 536/740/547 539/741/548
f 537/738/546 538/742/549 10/743/15 534/737/545
f 538/742/549 537/738/546 539/741/548 541/744/550
f 542/745/551 541/744/550 539/741/548 540/746/552
f 539/741/548 536/740/547 548/747/553 540/746/552
f 550/153/122 538/742/549 541/744/550 106/147/118
f 101/143/115 106/147/118 541/744/550 542/745/551
f 94/131/108 101/143/115 542/745/551 543/132/109
f 542/745/551 540/746/552 544/748/554 543/132/109
f 543/132/109 544/748/554 545/749/555 93/129/107
f 546/750/556 547/751/557 545/752/555 544/753/554
f 548/747/553 546/754/556 544/748/554 540/746/552
f 98/141/112 546/754/556 548/747/553 100/138/113
f 546/755/556 98/136/112 96/135/111 547/756/557
f 107/144/116 100/138/113 548/747/553 536/740/547
f 81/107/93 547/751/557 96/269/111 78/103/90
f 547/751/557 81/107/93 549/108/94 545/752/555
f 93/128/107 545/752/555 549/108/94 89/118/104
f 550/757/122 13/19/16 10/18/15 538/758/549
f 550/757/122 104/151/121 15/23/20 13/19/16
f 534/737/545 10/743/15 551/739/17
f 552/759/558 531/732/542 7/11/9 4/12/10
f 552/760/558 2/4/4 553/6/6 531/731/542
f 18/761/24 555/762/30 553/6/6 3/5/5
f 559/763/559 528/726/539 553/6/6 554/764/560
f 556/765/561 554/764/560 553/6/6 555/762/30
f 556/766/561 555/33/30 557/767/540 558/768/562
f 555/33/30 22/32/29 557/767/540
f 558/769/562 557/727/540 528/726/539 559/763/559
f 558/769/562 559/763/559 562/770/563 560/771/564
f 558/768/562 560/772/564 563/773/565 556/766/561
f 561/774/566 565/775/567 563/773/565 560/772/564
f 560/771/564 562/770/563 571/776/568 561/777/566
f 556/766/561 563/773/565 564/778/569 554/779/560
f 565/775/567 566/780/570 564/778/569 563/773/565
f 566/780/570 565/775/567 567/781/571 568/782/572
f 561/774/566 569/783/573 567/781/571 565/775/567
f 570/784/574 568/782/572 567/781/571 569/783/573
f 561/777/566 571/776/568 570/785/574 569/786/573
f 566/780/570 568/782/572 570/784/574 571/787/568
f 564/788/569 566/789/570 571/776/568 562/770/563
f 559/763/559 554/764/560 564/788/569 562/770/563
f 572/790/575 552/760/558 4/791/10 573/792/11
f 574/1/1 2/4/4 552/760/558 572/790/575
f 575/793/576 574/1/1 572/790/575 573/792/11
f 574/1/1 575/793/576 573/792/11 5/2/2
f 104/151/121 38/47/44 35/24/21 15/23/20
f 576/794/577 87/113/99 84/111/97 581/795/578
f 87/113/99 576/794/577 579/796/579 577/115/101
f 577/797/101 578/798/580 60/124/69 86/123/102
f 578/798/580 577/797/101 579/799/579 580/800/581
f 581/801/578 580/800/581 579/799/579 576/802/577
f 580/800/581 581/801/578 84/803/97 578/798/580
f 60/124/69 578/798/580 84/803/97 63/804/72
