# Blender 5.2.0 LTS
# www.blender.org
mtllib terrain-abyss-chancel-object-036.mtl
o terrain-abyss-chancel-object-036
v -0.658962 0.858581 0.040266
v -0.657755 0.858930 0.039268
v -0.659798 0.858150 0.039446
v -0.658843 0.859853 0.040456
v -0.658012 0.860057 0.039491
v -0.660765 0.861348 0.038588
v -0.660054 0.859677 0.040463
v -0.662120 0.859847 0.039170
v -0.664362 0.859413 0.037683
v -0.661176 0.857545 0.037835
v -0.658586 0.858111 0.036559
v -0.662555 0.857359 0.035798
v -0.663897 0.857194 0.033814
v -0.659592 0.857972 0.034224
v -0.660933 0.858225 0.032084
v -0.658601 0.860630 0.034097
v -0.659639 0.860968 0.031624
v -0.657801 0.860023 0.036673
v -0.660560 0.861867 0.035305
v -0.662079 0.862187 0.033261
v -0.662794 0.861778 0.036904
v -0.659072 0.861093 0.037512
v -0.664638 0.862038 0.035100
v -0.666275 0.859222 0.036004
v -0.666340 0.862234 0.033414
v -0.668063 0.862464 0.031462
v -0.667953 0.859086 0.034021
v -0.663903 0.862471 0.031430
v -0.665887 0.862497 0.029360
v -0.661700 0.861274 0.029797
v -0.662224 0.858554 0.029836
v -0.663687 0.861449 0.027901
v -0.663508 0.859244 0.027617
v -0.665411 0.861583 0.026287
v -0.665118 0.859784 0.026335
v -0.667881 0.861749 0.027412
v -0.670252 0.862094 0.028871
v -0.668042 0.859525 0.028012
v -0.667179 0.858088 0.029490
v -0.670088 0.860369 0.030009
v -0.669308 0.859803 0.032106
v -0.665310 0.857376 0.031617
v -0.658303 0.858055 0.038538
vn 0.2492 -0.5476 0.7988
vn 0.9025 -0.2545 0.3473
vn 0.7126 0.5614 0.4207
vn 0.2611 0.3248 0.9091
vn -0.0992 -0.8263 0.5544
vn 0.5708 -0.8168 0.0835
vn -0.3957 0.0572 0.9166
vn -0.0684 0.8714 0.4858
vn 0.4861 0.8629 0.1386
vn -0.5575 0.0396 0.8292
vn -0.1616 -0.9206 0.3556
vn -0.6355 -0.1445 0.7585
vn -0.1207 -0.9681 0.2193
vn -0.2457 0.8667 0.4341
vn 0.6439 -0.7490 -0.1565
vn 0.5832 -0.7610 -0.2844
vn -0.1050 -0.9908 0.0850
vn -0.7013 -0.2292 0.6750
vn 0.5341 -0.7379 -0.4126
vn 0.8825 0.3438 -0.3208
vn 0.9612 0.2279 -0.1554
vn 0.7930 0.3581 -0.4929
vn 0.2148 0.9762 -0.0290
vn 0.3021 0.9527 0.0329
vn -0.3220 0.8542 0.4082
vn -0.7625 -0.3461 0.5467
vn -0.3679 0.8374 0.4043
vn 0.1627 0.9843 -0.0678
vn -0.4294 0.8523 0.2987
vn 0.0775 0.9841 -0.1598
vn -0.8779 -0.2502 0.4084
vn 0.5650 0.5978 -0.5687
vn 0.6774 0.4957 -0.5436
vn 0.4938 -0.5042 -0.7085
vn 0.5197 -0.6580 -0.5449
vn 0.1046 -0.3920 -0.9140
vn 0.0871 0.4950 -0.8645
vn -0.4063 0.5189 -0.7521
vn -0.5049 -0.6078 -0.6129
vn -0.7941 0.5147 -0.3232
vn -0.9711 -0.2368 -0.0289
vn -0.3147 -0.9168 -0.2458
vn -0.1440 -0.9865 -0.0782
vt 0.743442 0.970547
vt 0.744821 0.970168
vt 0.744524 0.970713
vt 0.743769 0.970986
vt 0.729598 0.023166
vt 0.729840 0.023735
vt 0.728867 0.023699
vt 0.728556 0.023134
vt 0.743128 0.971392
vt 0.742885 0.970551
vt 0.744195 0.972168
vt 0.745174 0.971623
vt 0.743113 0.972582
vt 0.729957 0.024761
vt 0.731001 0.023365
vt 0.731564 0.024442
vt 0.731558 0.025771
vt 0.729889 0.025991
vt 0.744426 0.973406
vt 0.742951 0.973861
vt 0.728474 0.024547
vt 0.728286 0.025817
vt 0.729792 0.027193
vt 0.731673 0.027135
vt 0.727959 0.027121
vt 0.727093 0.025394
vt 0.727527 0.024012
vt 0.726906 0.026402
vt 0.746277 0.973996
vt 0.745709 0.972849
vt 0.746810 0.972140
vt 0.747658 0.973256
vt 0.746018 0.970987
vt 0.744850 0.974620
vt 0.743256 0.975073
vt 0.743530 0.976358
vt 0.745164 0.975753
vt 0.746676 0.975224
vt 0.745559 0.976952
vt 0.746989 0.976602
vt 0.744157 0.977537
vt 0.748287 0.975959
vt 0.748081 0.974594
vt 0.727775 0.029771
vt 0.726959 0.030327
vt 0.726789 0.029263
vt 0.727741 0.028435
vt 0.748994 0.973160
vt 0.749140 0.974230
vt 0.749122 0.976122
vt 0.749142 0.976997
vt 0.748270 0.976942
vt 0.747428 0.977991
vt 0.748278 0.978646
vt 0.745948 0.978601
vt 0.730001 0.031001
vt 0.731680 0.030860
vt 0.731810 0.031816
vt 0.730439 0.031990
vt 0.729918 0.029944
vt 0.731763 0.029682
vt 0.728016 0.030853
vt 0.744786 0.978638
vt 0.729720 0.028485
vt 0.731758 0.028443
s 1
usemtl abyss_chancel_background_pbr
f 1/1/1 2/2/2 5/3/3 4/4/4
f 1/5/1 3/6/5 43/7/6 2/8/2
f 1/1/1 4/4/4 7/9/7 3/10/5
f 6/11/8 4/4/4 5/3/3 22/12/9
f 6/11/8 8/13/10 7/9/7 4/4/4
f 10/14/11 3/6/5 7/15/7 8/16/10
f 10/14/11 8/16/10 9/17/12 12/18/13
f 8/13/10 6/11/8 21/19/14 9/20/12
f 11/21/15 10/14/11 12/18/13 14/22/16
f 10/14/11 11/21/15 43/7/6 3/6/5
f 13/23/17 12/18/13 9/17/12 24/24/18
f 12/18/13 13/23/17 15/25/19 14/22/16
f 11/21/15 14/22/16 16/26/20 18/27/21
f 16/26/20 14/22/16 15/25/19 17/28/22
f 20/29/23 19/30/24 16/31/20 17/32/22
f 22/12/9 18/33/21 16/31/20 19/30/24
f 23/34/25 21/19/14 19/30/24 20/29/23
f 6/11/8 22/12/9 19/30/24 21/19/14
f 18/33/21 22/12/9 5/3/3 2/2/2
f 24/35/18 9/20/12 21/19/14 23/34/25
f 27/36/26 24/35/18 23/34/25 25/37/27
f 28/38/28 25/37/27 23/34/25 20/29/23
f 26/39/29 25/37/27 28/38/28 29/40/30
f 25/37/27 26/39/29 41/41/31 27/36/26
f 32/42/32 29/40/30 28/38/28 30/43/33
f 17/32/22 30/43/33 28/38/28 20/29/23
f 33/44/34 32/45/32 30/46/33 31/47/35
f 30/43/33 17/32/22 15/48/19 31/49/35
f 32/42/32 33/50/34 35/51/36 34/52/37
f 29/40/30 32/42/32 34/52/37 36/53/38
f 36/53/38 34/52/37 35/51/36 38/54/39
f 29/40/30 36/53/38 37/55/40 26/39/29
f 38/56/39 40/57/41 37/58/40 36/59/38
f 39/60/42 41/61/31 40/57/41 38/56/39
f 39/60/42 38/56/39 35/62/36 33/44/34
f 41/41/31 26/39/29 37/55/40 40/63/41
f 42/64/43 27/65/26 41/61/31 39/60/42
f 33/44/34 31/47/35 42/64/43 39/60/42
f 15/25/19 13/23/17 42/64/43 31/47/35
f 24/24/18 27/65/26 42/64/43 13/23/17
f 18/27/21 2/8/2 43/7/6 11/21/15
