# Blender 5.2.0 LTS
# www.blender.org
mtllib terrain-abyss-chancel-object-005.mtl
o terrain-abyss-chancel-object-005
v -0.844529 0.480204 0.034713
v -0.842851 0.474489 0.032689
v -0.851301 0.477079 0.031960
v -0.852347 0.486275 0.037828
v -0.840327 0.488387 0.034156
v -0.835414 0.479833 0.032669
v -0.830173 0.478837 0.026696
v -0.833556 0.486722 0.031053
v -0.838605 0.472824 0.033244
v -0.839387 0.478646 0.026142
v -0.840815 0.471837 0.032714
v -0.844860 0.474130 0.032123
v -0.848368 0.472530 0.032437
v -0.846274 0.469127 0.032373
v -0.846627 0.475125 0.029688
v -0.851301 0.476244 0.027551
v -0.845642 0.479768 0.022583
v -0.856691 0.480245 0.027544
v -0.862007 0.486598 0.028801
v -0.851333 0.480351 0.020247
v -0.855767 0.483689 0.034113
v -0.867459 0.491810 0.040071
v -0.864595 0.495539 0.042112
v -0.870162 0.508115 0.040215
v -0.880403 0.496309 0.035735
v -0.874585 0.486815 0.028786
v -0.893558 0.498151 0.028480
v -0.879799 0.510999 0.036764
v -0.891892 0.514219 0.030403
v -0.872066 0.525172 0.035830
v -0.882316 0.531214 0.029977
v -0.857040 0.536030 0.033287
v -0.864509 0.520681 0.038988
v -0.851369 0.529249 0.036047
v -0.859073 0.516790 0.039978
v -0.857445 0.512739 0.036893
v -0.864707 0.507363 0.040877
v -0.847791 0.522246 0.036822
v -0.837228 0.522141 0.028079
v -0.849381 0.515486 0.032916
v -0.854258 0.511945 0.027466
v -0.840982 0.512917 0.027663
v -0.832703 0.511686 0.024415
v -0.839796 0.503119 0.026929
v -0.848274 0.509420 0.022965
v -0.845526 0.502244 0.022287
v -0.854780 0.505706 0.018425
v -0.860990 0.502309 0.014972
v -0.851793 0.499752 0.017932
v -0.859675 0.508230 0.022586
v -0.864984 0.504423 0.019098
v -0.865086 0.507457 0.027656
v -0.868837 0.503943 0.023617
v -0.860803 0.510342 0.031954
v -0.869080 0.501936 0.032478
v -0.865236 0.504403 0.035688
v -0.872363 0.499098 0.027916
v -0.865111 0.494145 0.031828
v -0.857884 0.492846 0.026715
v -0.862424 0.495004 0.035323
v -0.867631 0.492634 0.027325
v -0.869496 0.491882 0.022934
v -0.862082 0.491950 0.022918
v -0.859054 0.493043 0.018446
v -0.867455 0.491431 0.019459
v -0.872865 0.494526 0.016802
v -0.865326 0.492130 0.015442
v -0.863158 0.494783 0.012599
v -0.871070 0.493510 0.012939
v -0.866843 0.498280 0.013090
v -0.869974 0.500350 0.016701
v -0.871836 0.500990 0.020474
v -0.873783 0.496189 0.022444
v -0.858255 0.497163 0.014766
v -0.853168 0.494693 0.021795
v -0.847757 0.496620 0.025881
v -0.842554 0.496961 0.030436
v -0.854007 0.493781 0.030650
v -0.848762 0.492627 0.035248
v -0.861110 0.496490 0.038322
v -0.863200 0.506028 0.038817
v -0.837275 0.494805 0.031303
v -0.834341 0.502026 0.028214
v -0.833938 0.492030 0.027579
v -0.831670 0.493871 0.022717
v -0.828313 0.495834 0.016293
v -0.829072 0.486881 0.025413
v -0.826683 0.488436 0.018633
v -0.826530 0.488733 0.011328
v -0.826255 0.481038 0.020394
v -0.828990 0.475648 0.018091
v -0.826600 0.481374 0.014343
v -0.827887 0.481288 0.009955
v -0.827325 0.471740 0.016018
v -0.827583 0.472333 0.016354
v -0.830191 0.476063 0.009141
v -0.832071 0.480258 0.004787
v -0.834162 0.477402 0.012123
v -0.838019 0.479149 0.007660
v -0.836159 0.479302 0.018351
v -0.831433 0.478120 0.021038
v -0.840804 0.480395 0.015326
v -0.845359 0.481365 0.012081
v -0.850640 0.482773 0.008103
v -0.840892 0.480876 0.003663
v -0.832454 0.484591 0.000951
v -0.842511 0.485950 -0.000996
v -0.846653 0.486667 -0.009477
v -0.832645 0.489231 -0.008045
v -0.826755 0.497307 -0.012384
v -0.836452 0.489627 -0.019039
v -0.845430 0.487900 -0.027917
v -0.833919 0.498934 -0.021182
v -0.842281 0.498840 -0.030009
v -0.832799 0.510657 -0.019339
v -0.839072 0.511984 -0.027871
v -0.830932 0.523452 -0.010806
v -0.828567 0.509265 -0.012309
v -0.827335 0.519909 -0.004787
v -0.827906 0.507069 -0.006494
v -0.829348 0.506754 -0.006383
v -0.827289 0.515842 0.001366
v -0.824943 0.490477 0.001356
v -0.828136 0.495041 -0.001975
v -0.827197 0.493973 0.007839
v -0.832131 0.495765 -0.005832
v -0.834121 0.505639 -0.007729
v -0.837599 0.495588 -0.008598
v -0.832415 0.494683 0.003755
v -0.837595 0.493496 0.000465
v -0.834330 0.497409 0.011137
v -0.836805 0.502432 0.014729
v -0.839029 0.495828 0.008188
v -0.842368 0.499496 0.010631
v -0.843449 0.494197 0.004627
v -0.848471 0.495484 0.005716
v -0.844004 0.492326 -0.002662
v -0.851921 0.491910 -0.003311
v -0.845044 0.494665 -0.010644
v -0.848024 0.500992 -0.011163
v -0.852373 0.494572 -0.011026
v -0.854720 0.498700 -0.008636
v -0.852130 0.503526 -0.002246
v -0.856267 0.495963 -0.003432
v -0.852040 0.500124 0.003504
v -0.845384 0.504594 0.008835
v -0.838826 0.507709 0.013422
v -0.845427 0.508157 0.003434
v -0.843360 0.508179 -0.003472
v -0.838529 0.511687 0.007635
v -0.836368 0.510985 -0.000739
v -0.832642 0.514437 0.011521
v -0.829494 0.518770 0.016436
v -0.830555 0.513602 0.001240
v -0.833070 0.509749 0.018436
v -0.831310 0.503557 0.019862
v -0.828270 0.527545 0.010496
v -0.837432 0.530404 0.025390
v -0.830443 0.534140 0.004442
v -0.836553 0.541067 -0.002552
v -0.839437 0.538777 0.021442
v -0.846772 0.546555 0.014966
v -0.864903 0.543252 0.025593
v -0.855724 0.548937 0.005965
v -0.871499 0.546665 0.009676
v -0.851159 0.545471 -0.009632
v -0.848186 0.532042 -0.029412
v -0.872139 0.545256 -0.012895
v -0.894064 0.540555 -0.013172
v -0.869461 0.535087 -0.035951
v -0.873156 0.516331 -0.046824
v -0.887233 0.534723 -0.034170
v -0.898360 0.520961 -0.039867
v -0.913037 0.523419 -0.013681
v -0.905637 0.504473 -0.038707
v -0.907305 0.490601 -0.035477
v -0.918349 0.504244 -0.013528
v -0.879111 0.500641 -0.048735
v -0.856312 0.498298 -0.040590
v -0.886369 0.488430 -0.046992
v -0.861257 0.485885 -0.039004
v -0.890495 0.479934 -0.041051
v -0.868991 0.477725 -0.029851
v -0.900908 0.478185 -0.028319
v -0.879721 0.478337 -0.014850
v -0.908808 0.479186 -0.014035
v -0.893130 0.476969 0.001088
v -0.916916 0.488651 -0.014092
v -0.905928 0.484920 0.010546
v -0.908662 0.500216 0.013411
v -0.889199 0.485067 0.024718
v -0.878329 0.481907 0.011507
v -0.865789 0.482958 -0.005764
v -0.867001 0.485202 0.015894
v -0.858152 0.484218 0.002056
v -0.857970 0.482443 0.018471
v -0.853284 0.482501 -0.018949
v -0.906666 0.519176 0.014705
v -0.892628 0.537868 0.013128
v -0.851709 0.513280 -0.038749
v -0.836605 0.527074 -0.018841
v -0.851545 0.503226 -0.007193
v -0.840011 0.503647 -0.009700
vn -0.0190 -0.4447 0.8955
vn 0.2737 -0.8686 0.4131
vn 0.5546 -0.3599 0.7503
vn 0.0659 -0.1695 0.9833
vn -0.4851 -0.6968 0.5284
vn -0.2923 -0.8440 0.4497
vn -0.4009 -0.7080 0.5814
vn 0.1116 -0.2194 0.9692
vn 0.3509 0.1871 0.9176
vn 0.1882 0.6309 0.7527
vn 0.6361 0.1516 0.7566
vn 0.1204 -0.9465 -0.2995
vn 0.6815 -0.6214 0.3865
vn 0.8213 0.2101 0.5304
vn -0.0746 -0.7654 -0.6392
vn -0.0700 -0.9695 0.2350
vn -0.0465 -0.4323 0.9005
vn -0.0780 -0.9717 0.2231
vn -0.3617 -0.8873 -0.2861
vn -0.0650 -0.9417 -0.3301
vn -0.5705 -0.8212 0.0134
vn -0.2602 -0.9297 -0.2606
vn -0.3978 -0.8898 0.2237
vn -0.2973 -0.9523 -0.0694
vn -0.2927 -0.5544 0.7791
vn 0.1035 -0.0894 0.9906
vn -0.2669 0.0690 0.9612
vn 0.2139 -0.0207 0.9766
vn -0.3815 0.0929 0.9197
vn -0.3768 -0.3440 0.8600
vn -0.1525 -0.8712 0.4667
vn -0.5770 -0.2164 0.7875
vn -0.2970 -0.7430 0.5997
vn -0.5812 0.1752 0.7947
vn -0.2486 0.3608 0.8989
vn -0.4246 0.5465 0.7219
vn -0.1008 0.2582 0.9608
vn 0.0910 0.5972 0.7969
vn -0.1120 0.8189 0.5628
vn 0.2747 0.4007 0.8740
vn 0.4600 -0.0207 0.8877
vn 0.2568 -0.0599 0.9646
vn 0.9262 -0.2438 0.2874
vn 0.5948 -0.6428 0.4827
vn 0.3912 -0.6637 0.6376
vn 0.6934 0.0727 0.7169
vn 0.6955 0.3962 0.5994
vn 0.2468 -0.2994 0.9217
vn 0.2227 -0.8896 0.3989
vn 0.5621 -0.8266 0.0293
vn -0.2368 -0.6001 0.7640
vn 0.8089 -0.0010 0.5879
vn 0.9391 -0.1356 0.3158
vn -0.2458 0.2691 0.9312
vn 0.6019 0.2035 0.7722
vn -0.5938 0.1693 0.7866
vn -0.1731 -0.5795 0.7964
vn -0.5509 0.1825 0.8144
vn 0.2520 -0.8610 0.4418
vn 0.3336 -0.8088 0.4843
vn -0.0467 -0.5424 0.8388
vn -0.4481 0.2299 0.8639
vn 0.5836 -0.8109 0.0432
vn 0.6488 -0.7520 0.1159
vn 0.9122 -0.0523 -0.4064
vn 0.8241 -0.1842 -0.5356
vn 0.8328 -0.2649 -0.4860
vn 0.3701 0.7528 -0.5444
vn 0.4279 0.7599 -0.4893
vn 0.3615 0.8331 -0.4187
vn -0.1363 0.9890 -0.0576
vn -0.1703 0.9813 -0.0901
vn -0.1013 0.9948 -0.0083
vn 0.1835 0.9827 0.0235
vn 0.4379 0.8756 -0.2039
vn 0.9802 0.1825 -0.0766
vn -0.3838 0.8585 0.3401
vn -0.4722 0.8128 0.3412
vn -0.0819 0.8672 0.4911
vn 0.8599 0.3278 0.3913
vn 0.5272 0.4017 0.7488
vn -0.2818 0.3230 0.9035
vn 0.2161 -0.3170 0.9235
vn 0.5995 -0.6112 0.5168
vn 0.7789 -0.5914 0.2087
vn -0.4638 0.7758 0.4278
vn -0.1437 0.6296 0.7635
vn 0.7680 0.5581 0.3141
vn 0.4512 0.3144 0.8352
vn 0.7518 0.2425 0.6132
vn 0.8427 0.2333 0.4852
vn 0.8746 0.4845 0.0183
vn 0.9669 0.2145 -0.1385
vn 0.9509 0.1889 0.2451
vn 0.9185 -0.2367 0.3168
vn 0.9969 0.0721 0.0305
vn 0.7185 0.6955 -0.0087
vn 0.9901 -0.1302 -0.0516
vn 0.0201 -0.9791 0.2023
vn 0.2280 -0.9212 0.3153
vn 0.9764 -0.2069 -0.0618
vn 0.8892 -0.3116 -0.3349
vn 0.9783 -0.1521 -0.1409
vn 0.9813 -0.1884 -0.0397
vn -0.4326 -0.9006 -0.0415
vn 0.2555 -0.8212 -0.5102
vn 0.2910 -0.7530 -0.5901
vn -0.2353 -0.9340 -0.2689
vn -0.2553 -0.9663 0.0317
vn -0.2201 -0.9735 -0.0615
vn -0.1772 -0.8853 -0.4300
vn -0.2271 -0.9557 -0.1874
vn -0.1640 -0.9610 -0.2226
vn 0.0089 -0.9392 -0.3433
vn 0.3316 -0.7574 -0.5625
vn 0.4517 -0.8047 -0.3852
vn 0.0723 -0.9974 -0.0079
vn 0.2238 -0.9731 -0.0541
vn 0.5860 -0.7161 -0.3792
vn 0.9056 -0.2021 -0.3729
vn 0.7734 -0.1969 -0.6026
vn 0.3128 -0.9495 -0.0257
vn 0.5664 -0.6638 -0.4884
vn 0.6683 -0.1869 -0.7200
vn 0.7285 0.0987 -0.6779
vn 0.8217 0.1133 -0.5586
vn 0.9332 0.1057 -0.3435
vn 0.7373 0.4167 -0.5317
vn 0.8707 0.3005 -0.3892
vn 0.9737 0.1478 -0.1733
vn 0.9132 -0.3478 0.2126
vn 0.8923 -0.0658 0.4465
vn 0.3839 -0.8148 0.4345
vn -0.1182 -0.2937 0.9486
vn -0.0805 0.7265 0.6825
vn 0.0363 0.9965 -0.0751
vn -0.3852 0.6381 0.6667
vn -0.2195 -0.4033 0.8883
vn -0.1164 -0.4161 0.9019
vn -0.3425 0.5815 0.7379
vn -0.1548 0.9870 -0.0424
vn 0.0653 0.8452 -0.5304
vn 0.3097 0.8114 -0.4957
vn 0.4194 0.3904 -0.8196
vn 0.5568 0.3245 -0.7647
vn 0.0363 0.8999 -0.4346
vn 0.4331 0.5998 -0.6728
vn -0.0941 0.9954 0.0189
vn 0.4445 0.8924 -0.0778
vn -0.1316 0.5789 0.8047
vn 0.3650 0.5379 0.7599
vn 0.1577 -0.4092 0.8987
vn 0.8395 -0.1344 0.5265
vn 0.9706 0.1909 -0.1463
vn 0.7228 -0.6905 -0.0276
vn 0.8223 -0.1273 -0.5546
vn 0.4875 -0.7484 0.4498
vn 0.5731 -0.8057 -0.1499
vn 0.6774 -0.3248 -0.6600
vn 0.6646 -0.3609 -0.6543
vn 0.5068 -0.8497 -0.1453
vn 0.2819 -0.8782 0.3864
vn 0.2184 -0.8872 0.4064
vn 0.6720 -0.7399 -0.0300
vn 0.9273 -0.2527 -0.2762
vn 0.9422 0.2653 0.2047
vn 0.8536 0.5208 -0.0153
vn 0.5803 0.6672 0.4670
vn 0.6471 0.7332 -0.2089
vn 0.3254 0.9101 0.2566
vn 0.2727 0.9087 -0.3162
vn 0.0738 0.9972 0.0094
vn -0.2126 0.9629 0.1663
vn -0.0866 0.9668 -0.2402
vn 0.4690 0.5833 -0.6632
vn 0.0879 0.7084 -0.7003
vn -0.4887 0.8613 -0.1388
vn -0.5466 0.7622 0.3467
vn -0.3003 0.7439 -0.5970
vn 0.0884 0.2547 -0.9630
vn 0.5102 0.1485 -0.8471
vn -0.5175 0.4237 -0.7434
vn -0.8691 0.4840 -0.1018
vn 0.0013 -0.0541 -0.9985
vn -0.6711 0.1071 -0.7336
vn -0.9954 0.0731 -0.0614
vn -0.1382 -0.4040 -0.9043
vn -0.7162 -0.2748 -0.6415
vn -0.9095 -0.4119 -0.0567
vn 0.3854 -0.5904 -0.7092
vn 0.4650 -0.1688 -0.8691
vn 0.2009 -0.9517 -0.2322
vn -0.2010 -0.8114 -0.5488
vn -0.3816 -0.8674 -0.3194
vn 0.0992 -0.9935 0.0564
vn -0.1122 -0.9767 0.1830
vn -0.4879 -0.8718 -0.0434
vn -0.6458 -0.6061 0.4643
vn -0.8461 -0.0782 0.5273
vn 0.0993 -0.9722 0.2122
vn -0.0149 -0.9929 0.1176
vn 0.1999 -0.9701 0.1379
vn -0.8079 0.3445 0.4781
vt 0.528669 0.821192
vt 0.526673 0.821074
vt 0.526128 0.819568
vt 0.531480 0.819269
vt 0.532261 0.824365
vt 0.529915 0.822955
vt 0.536509 0.824297
vt 0.536631 0.820815
vt 0.529823 0.816399
vt 0.536873 0.816271
vt 0.525861 0.817292
vt 0.523345 0.823528
vt 0.520223 0.821766
vt 0.520257 0.818973
vt 0.527822 0.825515
vt 0.527854 0.823119
vt 0.528516 0.822307
vt 0.528182 0.822478
vt 0.530270 0.826879
vt 0.526276 0.828917
vt 0.534537 0.828299
vt 0.529726 0.831265
vt 0.538735 0.829644
vt 0.532771 0.833767
vt 0.544360 0.824663
vt 0.544614 0.821406
vt 0.551700 0.820906
vt 0.550280 0.818429
vt 0.556370 0.824867
vt 0.550421 0.830013
vt 0.544096 0.833471
vt 0.556196 0.836837
vt 0.549411 0.840053
vt 0.562065 0.832015
vt 0.561552 0.820026
vt 0.567759 0.824463
vt 0.557164 0.816541
vt 0.564417 0.812614
vt 0.571608 0.815460
vt 0.561396 0.810108
vt 0.557960 0.810125
vt 0.554101 0.814708
vt 0.549041 0.817352
vt 0.551847 0.814506
vt 0.673856 0.728720
vt 0.669221 0.728120
vt 0.672296 0.723314
vt 0.674469 0.724581
vt 0.672872 0.734306
vt 0.668992 0.735026
vt 0.663787 0.727175
vt 0.677270 0.733237
vt 0.677275 0.727749
vt 0.676954 0.724025
vt 0.679195 0.728682
vt 0.679810 0.738898
vt 0.676269 0.742304
vt 0.681391 0.732209
vt 0.682191 0.734879
vt 0.681691 0.728892
vt 0.680754 0.725494
vt 0.682421 0.725836
vt 0.678034 0.724175
vt 0.550921 0.806549
vt 0.550386 0.803662
vt 0.554505 0.805770
vt 0.551092 0.809703
vt 0.547321 0.804145
vt 0.550693 0.800144
vt 0.551654 0.812471
vt 0.549983 0.811810
vt 0.553901 0.810455
vt 0.549412 0.809518
vt 0.547542 0.811137
vt 0.547534 0.813734
vt 0.548178 0.815835
vt 0.544543 0.814593
vt 0.543498 0.817286
vt 0.545814 0.811443
vt 0.544953 0.810101
vt 0.544192 0.810554
vt 0.686236 0.725611
vt 0.686363 0.724287
vt 0.689492 0.721215
vt 0.689800 0.722570
vt 0.546302 0.808313
vt 0.546461 0.809264
vt 0.547751 0.809029
vt 0.685335 0.722660
vt 0.687478 0.722400
vt 0.684376 0.724987
vt 0.546213 0.807059
vt 0.545022 0.806991
vt 0.547784 0.807553
vt 0.547692 0.806663
vt 0.547595 0.805263
vt 0.548790 0.805625
vt 0.549245 0.806992
vt 0.549047 0.808204
vt 0.683488 0.721951
vt 0.684260 0.727261
vt 0.684029 0.730249
vt 0.687038 0.727629
vt 0.543746 0.818534
vt 0.538370 0.814819
vt 0.527748 0.813902
vt 0.531571 0.813345
vt 0.685649 0.732744
vt 0.522608 0.812983
vt 0.524488 0.815888
vt 0.520185 0.816565
vt 0.515088 0.817962
vt 0.517371 0.814479
vt 0.516169 0.820233
vt 0.516980 0.822331
vt 0.512937 0.823428
vt 0.511069 0.823178
vt 0.513749 0.825477
vt 0.519625 0.825451
vt 0.517677 0.825697
vt 0.516246 0.825729
vt 0.513016 0.828167
vt 0.508130 0.829032
vt 0.516423 0.826667
vt 0.518791 0.829765
vt 0.515716 0.830017
vt 0.513948 0.832269
vt 0.518607 0.833353
vt 0.521231 0.827553
vt 0.522602 0.831176
vt 0.519210 0.836027
vt 0.524197 0.833696
vt 0.525675 0.836837
vt 0.518274 0.839422
vt 0.513044 0.834337
vt 0.510922 0.838445
vt 0.527502 0.841635
vt 0.517874 0.844460
vt 0.509972 0.844489
vt 0.505634 0.837595
vt 0.504353 0.844339
vt 0.519133 0.851164
vt 0.511213 0.852484
vt 0.671101 0.768561
vt 0.671757 0.773175
vt 0.667716 0.777302
vt 0.666369 0.771910
vt 0.665196 0.766175
vt 0.670044 0.762525
vt 0.675194 0.765318
vt 0.673621 0.760128
vt 0.663913 0.757222
vt 0.668393 0.754669
vt 0.672074 0.753215
vt 0.675067 0.751797
vt 0.676096 0.758179
vt 0.500084 0.834781
vt 0.501556 0.830361
vt 0.676778 0.751968
vt 0.676786 0.757950
vt 0.501766 0.828794
vt 0.506437 0.827129
vt 0.509365 0.822462
vt 0.504724 0.825853
vt 0.500809 0.827441
vt 0.682652 0.755942
vt 0.684332 0.758393
vt 0.682469 0.760071
vt 0.678914 0.757042
vt 0.506673 0.821504
vt 0.502981 0.824373
vt 0.509602 0.818435
vt 0.511886 0.818265
vt 0.509823 0.815912
vt 0.513092 0.815035
vt 0.507023 0.818160
vt 0.506124 0.816057
vt 0.503609 0.819818
vt 0.501706 0.817315
vt 0.692551 0.759398
vt 0.687182 0.758813
vt 0.690120 0.756470
vt 0.693583 0.753042
vt 0.500084 0.822168
vt 0.686807 0.755965
vt 0.689361 0.754605
vt 0.691140 0.752870
vt 0.687582 0.752187
vt 0.688850 0.750104
vt 0.687314 0.753975
vt 0.692582 0.748182
vt 0.683888 0.750209
vt 0.685376 0.748017
vt 0.504621 0.813897
vt 0.509281 0.813408
vt 0.513474 0.812670
vt 0.680826 0.748169
vt 0.682644 0.745334
vt 0.682926 0.752990
vt 0.679485 0.752512
vt 0.678118 0.746031
vt 0.680386 0.742589
vt 0.517741 0.812223
vt 0.519915 0.810966
vt 0.671211 0.743768
vt 0.667097 0.745266
vt 0.664170 0.736112
vt 0.661242 0.746392
vt 0.657071 0.737678
vt 0.657731 0.727306
vt 0.649791 0.730483
vt 0.652936 0.748729
vt 0.650533 0.740700
vt 0.642305 0.737380
vt 0.641831 0.750565
vt 0.656154 0.760718
vt 0.644834 0.763505
vt 0.629394 0.752774
vt 0.630575 0.738729
vt 0.635736 0.764339
vt 0.646582 0.774897
vt 0.657988 0.770987
vt 0.632242 0.772918
vt 0.619090 0.762669
vt 0.646491 0.782785
vt 0.629660 0.781708
vt 0.614099 0.773095
vt 0.645790 0.788798
vt 0.632987 0.789140
vt 0.617400 0.785921
vt 0.659742 0.784086
vt 0.658538 0.777994
vt 0.657948 0.790663
vt 0.646713 0.794040
vt 0.636393 0.797529
vt 0.532858 0.857467
vt 0.540474 0.870636
vt 0.530668 0.873287
vt 0.522836 0.861853
vt 0.543705 0.853408
vt 0.548462 0.865622
vt 0.625107 0.793748
vt 0.553201 0.851878
vt 0.556824 0.867079
vt 0.561592 0.848769
vt 0.567438 0.864922
vt 0.540445 0.843314
vt 0.536334 0.837522
vt 0.529111 0.847733
vt 0.514550 0.863085
vt 0.570694 0.843154
vt 0.578515 0.858559
vt 0.577308 0.832277
vt 0.588843 0.845263
vt 0.580237 0.821716
s 1
usemtl abyss_chancel_background_pbr
f 2/1/1 9/2/2 6/3/3 1/4/4
f 1/4/4 3/5/5 13/6/6 2/1/1
f 21/7/7 3/5/5 1/4/4 4/8/8
f 1/4/4 5/9/9 79/10/10 4/8/8
f 8/11/11 5/9/9 1/4/4 6/3/3
f 10/12/12 7/13/13 6/3/3 9/2/2
f 7/13/13 87/14/14 8/11/11 6/3/3
f 15/15/15 10/12/12 9/2/2 11/16/16
f 13/6/6 12/17/17 9/2/2 2/1/1
f 9/2/2 12/17/17 14/18/18 11/16/16
f 14/18/18 12/17/17 13/6/6
f 11/16/16 14/18/18 13/6/6 15/15/15
f 16/19/19 15/15/15 13/6/6 3/5/5
f 15/15/15 16/19/19 17/20/20 10/12/12
f 16/19/19 18/21/21 20/22/22 17/20/20
f 3/5/5 21/7/7 18/21/21 16/19/19
f 18/21/21 19/23/23 196/24/24 20/22/22
f 18/21/21 21/7/7 22/25/25 19/23/23
f 21/7/7 4/8/8 23/26/26 22/25/25
f 24/27/27 22/25/25 23/26/26 37/28/28
f 22/25/25 24/27/27 28/29/29 25/30/30
f 26/31/31 19/23/23 22/25/25 25/30/30
f 25/30/30 27/32/32 191/33/33 26/31/31
f 28/29/29 29/34/34 27/32/32 25/30/30
f 28/29/29 30/35/35 31/36/36 29/34/34
f 28/29/29 24/27/27 33/37/37 30/35/35
f 32/38/38 163/39/39 31/36/36 30/35/35
f 33/37/37 34/40/40 32/38/38 30/35/35
f 38/41/41 34/40/40 33/37/37 35/42/42
f 37/28/28 35/42/42 33/37/37 24/27/27
f 81/43/43 36/44/44 35/42/42 37/28/28
f 40/45/45 38/46/41 35/47/42 36/48/44
f 39/49/46 158/50/47 34/51/40 38/46/41
f 38/46/41 40/45/45 42/52/48 39/49/46
f 41/53/49 40/45/45 36/48/44 54/54/50
f 41/53/49 45/55/51 42/52/48 40/45/45
f 42/52/48 43/56/52 153/57/53 39/49/46
f 42/52/48 44/58/54 83/59/55 43/56/52
f 46/60/56 44/58/54 42/52/48 45/55/51
f 45/55/51 47/61/57 49/62/58 46/60/56
f 41/53/49 50/63/59 47/61/57 45/55/51
f 51/64/60 48/65/61 47/66/57 50/67/59
f 48/65/61 74/68/62 49/69/58 47/66/57
f 54/70/50 52/71/63 50/67/59 41/72/49
f 53/73/64 51/64/60 50/67/59 52/71/63
f 57/74/65 53/73/64 52/71/63 55/75/66
f 52/71/63 54/70/50 56/76/67 55/75/66
f 58/77/68 55/75/66 56/76/67 60/78/69
f 57/74/65 55/75/66 58/77/68 61/79/70
f 63/80/71 61/79/70 58/77/68 59/81/72
f 78/82/73 59/83/72 58/84/68 60/85/69
f 63/80/71 65/86/74 62/87/75 61/79/70
f 57/74/65 61/79/70 62/87/75 73/88/76
f 64/89/77 63/90/71 59/83/72 75/91/78
f 67/92/79 65/86/74 63/80/71 64/93/77
f 66/94/80 73/88/76 62/87/75 65/86/74
f 65/86/74 67/92/79 69/95/81 66/94/80
f 64/93/77 74/68/62 68/96/82 67/92/79
f 69/95/81 67/92/79 68/96/82 70/97/83
f 71/98/84 66/94/80 69/95/81 70/97/83
f 70/97/83 48/65/61 51/64/60 71/98/84
f 48/65/61 70/97/83 68/96/82 74/68/62
f 66/94/80 71/98/84 72/99/85 73/88/76
f 51/64/60 53/73/64 72/99/85 71/98/84
f 57/74/65 73/88/76 72/99/85 53/73/64
f 74/100/62 64/89/77 75/91/78 49/62/58
f 76/101/86 75/91/78 59/83/72 78/82/73
f 46/60/56 49/62/58 75/91/78 76/101/86
f 44/58/54 46/60/56 76/101/86 77/102/87
f 76/101/86 78/82/73 79/103/10 77/102/87
f 60/78/69 80/104/88 79/10/10 78/105/73
f 82/106/89 77/107/87 79/10/10 5/9/9
f 23/26/26 4/8/8 79/10/10 80/104/88
f 80/104/88 60/78/69 56/76/67 81/43/43
f 81/43/43 37/28/28 23/26/26 80/104/88
f 56/76/67 54/70/50 36/44/44 81/43/43
f 77/102/87 82/108/89 83/59/55 44/58/54
f 83/109/55 82/106/89 84/110/90 85/111/91
f 82/106/89 5/9/9 8/11/11 84/110/90
f 85/111/91 84/110/90 8/11/11 87/14/14
f 83/109/55 85/111/91 86/112/92 156/113/93
f 87/14/14 88/114/94 86/112/92 85/111/91
f 87/14/14 7/13/13 90/115/95 88/114/94
f 89/116/96 125/117/97 86/112/92 88/114/94
f 89/116/96 88/114/94 90/115/95 92/118/98
f 7/13/13 101/119/99 91/120/100 90/115/95
f 90/115/95 91/120/100 94/121/101 92/118/98
f 92/118/98 93/122/102 123/123/103 89/116/96
f 92/118/98 94/121/101 95/124/104 93/122/102
f 95/124/104 94/121/101 91/120/100
f 98/125/105 96/126/106 95/124/104 91/120/100
f 95/124/104 96/126/106 97/127/107 93/122/102
f 96/126/106 98/125/105 99/128/108 97/127/107
f 98/125/105 100/129/109 102/130/110 99/128/108
f 98/125/105 91/120/100 101/119/99 100/129/109
f 100/129/109 10/12/12 17/20/20 102/130/110
f 100/129/109 101/119/99 7/13/13 10/12/12
f 105/131/111 99/128/108 102/130/110 103/132/112
f 102/130/110 17/20/20 20/22/22 103/132/112
f 104/133/113 107/134/114 105/131/111 103/132/112
f 103/132/112 20/22/22 196/24/24 104/133/113
f 106/135/115 97/127/107 99/128/108 105/131/111
f 109/136/116 106/135/115 105/131/111 107/134/114
f 195/137/117 108/138/118 107/134/114 104/133/113
f 111/139/119 109/136/116 107/134/114 108/138/118
f 109/136/116 110/140/120 123/123/103 106/135/115
f 110/140/120 109/136/116 111/139/119 113/141/121
f 108/138/118 197/142/122 112/143/123 111/139/119
f 113/144/121 111/145/119 112/146/123 114/147/124
f 114/147/124 116/148/125 115/149/126 113/144/121
f 110/150/120 113/144/121 115/149/126 118/151/127
f 115/149/126 116/148/125 201/152/128 117/153/129
f 119/154/130 118/151/127 115/149/126 117/153/129
f 122/155/131 120/156/132 118/151/127 119/154/130
f 118/157/127 120/158/132 123/123/103 110/140/120
f 122/155/131 154/159/133 121/160/134 120/156/132
f 121/161/134 124/162/135 123/123/103 120/158/132
f 125/117/97 89/116/96 123/123/103 124/162/135
f 97/127/107 106/135/115 123/123/103 93/122/102
f 129/163/136 125/117/97 124/162/135 126/164/137
f 127/165/138 126/164/137 124/162/135 121/161/134
f 203/166/139 128/167/140 126/168/137 127/169/138
f 130/170/141 129/163/136 126/164/137 128/171/140
f 133/172/142 131/173/143 129/163/136 130/170/141
f 129/163/136 131/173/143 86/112/92 125/117/97
f 133/172/142 134/174/144 132/175/145 131/173/143
f 132/175/145 156/113/93 86/112/92 131/173/143
f 134/174/144 133/172/142 135/176/146 136/177/147
f 130/170/141 137/178/148 135/176/146 133/172/142
f 138/179/149 136/177/147 135/176/146 137/178/148
f 137/180/148 139/181/150 141/182/151 138/183/149
f 137/178/148 130/170/141 128/171/140 139/184/150
f 140/185/152 139/181/150 128/167/140 203/166/139
f 140/185/152 142/186/153 141/182/151 139/181/150
f 141/182/151 142/186/153 144/187/154 138/183/149
f 143/188/155 145/189/156 144/187/154 142/186/153
f 142/186/153 140/185/152 202/190/157 143/188/155
f 136/191/147 138/183/149 144/187/154 145/189/156
f 143/188/155 148/192/158 146/193/159 145/189/156
f 136/177/147 145/194/156 146/195/159 134/174/144
f 132/175/145 134/174/144 146/195/159 147/196/160
f 146/193/159 148/192/158 150/197/161 147/198/160
f 148/192/158 143/188/155 202/190/157 149/199/162
f 148/192/158 149/199/162 151/200/163 150/197/161
f 152/201/164 150/197/161 151/200/163 154/159/133
f 155/202/165 147/198/160 150/197/161 152/201/164
f 155/202/165 152/201/164 153/57/53 43/56/52
f 154/159/133 122/155/131 153/57/53 152/201/164
f 155/203/165 43/204/52 83/109/55 156/113/93
f 156/113/93 132/175/145 147/196/160 155/203/165
f 154/159/133 151/200/163 127/169/138 121/160/134
f 158/50/47 39/49/46 153/57/53 157/205/166
f 119/154/130 157/205/166 153/57/53 122/155/131
f 119/154/130 117/153/129 159/206/167 157/205/166
f 157/205/166 159/206/167 161/207/168 158/50/47
f 201/152/128 160/208/169 159/206/167 117/153/129
f 160/208/169 162/209/170 161/207/168 159/206/167
f 158/50/47 161/207/168 32/210/38 34/51/40
f 162/209/170 163/211/39 32/210/38 161/207/168
f 160/208/169 166/212/171 164/213/172 162/209/170
f 163/211/39 162/209/170 164/213/172 165/214/173
f 168/215/174 165/214/173 164/213/172 166/212/171
f 166/212/171 160/208/169 201/152/128 167/216/175
f 168/215/174 166/212/171 167/216/175 170/217/176
f 168/215/174 169/218/177 199/219/178 165/214/173
f 168/215/174 170/217/176 172/220/179 169/218/177
f 171/221/180 170/217/176 167/216/175 200/222/181
f 171/221/180 173/223/182 172/220/179 170/217/176
f 174/224/183 169/218/177 172/220/179 173/223/182
f 171/221/180 178/225/184 175/226/185 173/223/182
f 174/224/183 173/223/182 175/226/185 177/227/186
f 180/228/187 176/229/188 175/226/185 178/225/184
f 175/226/185 176/229/188 188/230/189 177/227/186
f 181/231/190 180/228/187 178/225/184 179/232/191
f 200/222/181 179/232/191 178/225/184 171/221/180
f 181/231/190 183/233/192 182/234/193 180/228/187
f 176/229/188 180/228/187 182/234/193 184/235/194
f 185/236/195 184/237/194 182/238/193 183/239/192
f 185/236/195 187/240/196 186/241/197 184/237/194
f 176/229/188 184/235/194 186/242/197 188/230/189
f 189/243/198 188/244/189 186/241/197 187/240/196
f 190/245/199 177/246/186 188/244/189 189/243/198
f 189/243/198 187/240/196 192/247/200 191/33/33
f 190/245/199 189/243/198 191/33/33 27/32/32
f 26/31/31 191/33/33 192/247/200 194/248/201
f 187/240/196 185/236/195 193/249/202 192/247/200
f 194/248/201 192/247/200 193/249/202 195/137/117
f 104/133/113 196/24/24 194/248/201 195/137/117
f 19/23/23 26/31/31 194/248/201 196/24/24
f 195/137/117 193/249/202 197/142/122 108/138/118
f 185/236/195 183/239/192 197/142/122 193/249/202
f 183/239/192 181/250/190 112/143/123 197/142/122
f 177/246/186 190/245/199 198/251/203 174/252/183
f 198/251/203 190/245/199 27/32/32 29/34/34
f 31/36/36 199/253/178 198/251/203 29/34/34
f 169/254/177 174/252/183 198/251/203 199/253/178
f 163/39/39 165/255/173 199/253/178 31/36/36
f 112/146/123 181/231/190 179/232/191 114/147/124
f 116/148/125 114/147/124 179/232/191 200/222/181
f 200/222/181 167/216/175 201/152/128 116/148/125
f 149/199/162 203/166/139 127/169/138 151/200/163
f 203/166/139 149/199/162 202/190/157 140/185/152
