# Blender 5.2.0 LTS
# www.blender.org
mtllib terrain-abyss-chancel-object-090.mtl
o terrain-abyss-chancel-object-090
v 0.149524 0.919419 -0.033880
v 0.151679 0.917710 -0.026227
v 0.149030 0.924962 -0.032055
v 0.147833 0.911765 -0.033813
v 0.144453 0.921005 -0.039180
v 0.144051 0.925816 -0.036879
v 0.138020 0.922196 -0.042817
v 0.142696 0.914063 -0.039222
v 0.139554 0.903437 -0.038863
v 0.136571 0.917030 -0.041677
v 0.128320 0.922067 -0.043738
v 0.132791 0.905389 -0.041781
v 0.126865 0.908426 -0.042654
v 0.131152 0.889506 -0.040795
v 0.130657 0.872623 -0.040361
v 0.137785 0.888442 -0.038956
v 0.124713 0.890587 -0.041343
v 0.117746 0.890358 -0.045977
v 0.125049 0.872957 -0.040474
v 0.118391 0.872999 -0.044807
v 0.126152 0.858783 -0.039571
v 0.119847 0.859012 -0.043568
v 0.126614 0.850261 -0.039142
v 0.131343 0.858077 -0.040904
v 0.131290 0.847117 -0.041715
v 0.137744 0.856442 -0.038357
v 0.137033 0.872048 -0.038765
v 0.139721 0.844875 -0.039738
v 0.144282 0.853693 -0.033336
v 0.150067 0.847253 -0.032134
v 0.141914 0.855900 -0.025295
v 0.146606 0.842270 -0.036626
v 0.143039 0.870799 -0.033320
v 0.141665 0.870570 -0.024677
v 0.143855 0.887238 -0.033782
v 0.142984 0.886392 -0.024487
v 0.145362 0.901560 -0.033675
v 0.145171 0.900174 -0.024426
v 0.136950 0.898965 -0.015160
v 0.148421 0.910064 -0.024682
v 0.143142 0.908572 -0.012969
v 0.146368 0.917462 -0.013114
v 0.133599 0.906952 0.000009
v 0.122543 0.893019 -0.002721
v 0.123219 0.906878 0.017309
v 0.138546 0.915752 0.001176
v 0.139658 0.923483 0.000802
v 0.126660 0.914439 0.019391
v 0.127799 0.921991 0.019913
v 0.112744 0.912622 0.039840
v 0.113872 0.920422 0.040435
v 0.109376 0.905710 0.037677
v 0.102631 0.911281 0.053926
v 0.093339 0.911119 0.065136
v 0.098765 0.904983 0.052208
v 0.104345 0.918547 0.054012
v 0.096441 0.917611 0.064294
v 0.101141 0.923245 0.050713
v 0.095161 0.922836 0.061378
v 0.094921 0.924550 0.045238
v 0.109343 0.924155 0.036770
v 0.122425 0.924898 0.015974
v 0.102600 0.925322 0.031519
v 0.115256 0.926083 0.010838
v 0.095632 0.926549 0.025755
v 0.089766 0.925280 0.020670
v 0.087933 0.925848 0.039463
v 0.108001 0.927102 0.005760
v 0.102487 0.925602 0.001898
v 0.119899 0.927491 -0.013526
v 0.126792 0.926646 -0.008588
v 0.131183 0.927776 -0.030454
v 0.115496 0.925866 -0.017105
v 0.112480 0.923645 -0.019989
v 0.128458 0.926131 -0.035390
v 0.108709 0.929258 -0.021738
v 0.098228 0.923731 -0.001051
v 0.094431 0.929589 -0.003686
v 0.084784 0.924550 0.016596
v 0.075619 0.924947 0.030202
v 0.081531 0.929663 0.014167
v 0.071445 0.929370 0.027812
v 0.074542 0.930258 0.009446
v 0.067257 0.930824 0.004440
v 0.063751 0.930169 0.023197
v 0.088079 0.930117 -0.008020
v 0.080922 0.930648 -0.012852
v 0.102632 0.929815 -0.024967
v 0.094937 0.930444 -0.029094
v 0.116264 0.929210 -0.039670
v 0.123683 0.927559 -0.039176
v 0.124474 0.928868 -0.051258
v 0.107574 0.929909 -0.042485
v 0.116559 0.928830 -0.053440
v 0.097709 0.930466 -0.046499
v 0.086864 0.931102 -0.033716
v 0.089562 0.925075 -0.050108
v 0.105550 0.928669 -0.056165
v 0.111568 0.920954 -0.060287
v 0.096821 0.925324 -0.058679
v 0.093911 0.928155 -0.061763
v 0.101329 0.921324 -0.063977
v 0.095457 0.922606 -0.068313
v 0.102708 0.908375 -0.061120
v 0.096726 0.907178 -0.068116
v 0.101621 0.890199 -0.056609
v 0.112022 0.909274 -0.055912
v 0.110404 0.890746 -0.051501
v 0.120582 0.910389 -0.049566
v 0.127966 0.915227 -0.050080
v 0.120333 0.922268 -0.056191
v 0.127239 0.923746 -0.052599
v 0.111446 0.872858 -0.050126
v 0.101473 0.873557 -0.055706
v 0.112804 0.859157 -0.049516
v 0.101664 0.859562 -0.055200
v 0.112836 0.849466 -0.049780
v 0.115137 0.844899 -0.053092
v 0.101296 0.849482 -0.055249
v 0.120677 0.849215 -0.042926
v 0.123964 0.845534 -0.047485
v 0.124879 0.839046 -0.048254
v 0.133002 0.838047 -0.043697
v 0.115847 0.839728 -0.054010
v 0.123890 0.833819 -0.046187
v 0.115539 0.834847 -0.053329
v 0.121147 0.833823 -0.041367
v 0.131733 0.833739 -0.040863
v 0.128992 0.833771 -0.035593
v 0.138888 0.833647 -0.035857
v 0.145799 0.834484 -0.031723
v 0.139962 0.836929 -0.039113
v 0.136259 0.833700 -0.030535
v 0.132624 0.833741 -0.024227
v 0.141932 0.833639 -0.026558
v 0.137913 0.833888 -0.019670
v 0.144886 0.840454 -0.024750
v 0.145208 0.847418 -0.024150
v 0.148961 0.840361 -0.031786
v 0.140313 0.840618 -0.017586
v 0.134398 0.840352 -0.009668
v 0.139031 0.848023 -0.018418
v 0.135922 0.857000 -0.019380
v 0.130109 0.848151 -0.012463
v 0.129636 0.857266 -0.013638
v 0.124530 0.846910 0.002207
v 0.123975 0.847866 -0.011418
v 0.122629 0.856223 -0.009155
v 0.118749 0.847204 0.000455
v 0.115740 0.856397 0.001691
v 0.113908 0.850776 0.011913
v 0.112480 0.859212 0.015000
v 0.116834 0.844761 0.017929
v 0.098118 0.848029 0.034560
v 0.098173 0.861161 0.030219
v 0.104097 0.844047 0.036295
v 0.090511 0.849758 0.047637
v 0.093676 0.844123 0.049409
v 0.088370 0.860405 0.046190
v 0.081640 0.849841 0.056527
v 0.071941 0.849897 0.059855
v 0.082631 0.844193 0.057644
v 0.081380 0.859783 0.056655
v 0.080890 0.872694 0.057038
v 0.072962 0.858884 0.061408
v 0.073110 0.871768 0.062078
v 0.065454 0.859056 0.058353
v 0.060795 0.858847 0.052822
v 0.064324 0.850279 0.057627
v 0.066103 0.871685 0.059210
v 0.065628 0.886641 0.059290
v 0.061373 0.871770 0.054022
v 0.061352 0.886392 0.054026
v 0.062520 0.871514 0.047398
v 0.053833 0.870133 0.042097
v 0.062290 0.855187 0.047198
v 0.063043 0.886995 0.048061
v 0.053090 0.884328 0.041732
v 0.062219 0.906689 0.048942
v 0.060705 0.900983 0.053885
v 0.054477 0.898481 0.042008
v 0.043343 0.895460 0.033942
v 0.057397 0.908163 0.049580
v 0.048704 0.914818 0.051708
v 0.064880 0.908924 0.060969
v 0.044360 0.907199 0.035869
v 0.035089 0.907171 0.027906
v 0.038885 0.911757 0.041094
v 0.030806 0.919569 0.040400
v 0.031359 0.912094 0.031998
v 0.023692 0.908280 0.025591
v 0.029066 0.919759 0.032453
v 0.034694 0.925989 0.025163
v 0.024766 0.921218 0.026995
v 0.029791 0.926804 0.022269
v 0.018151 0.922985 0.024002
v 0.016531 0.909053 0.023746
v 0.011879 0.923371 0.019881
v 0.016386 0.931133 0.020181
v 0.024794 0.928563 0.021428
v 0.020341 0.931440 0.014265
v 0.035937 0.931234 0.004797
v 0.030338 0.932032 0.000112
v 0.040575 0.928773 0.008331
v 0.047224 0.931676 -0.010281
v 0.060141 0.931502 -0.027103
v 0.051954 0.929325 -0.006513
v 0.041328 0.932093 -0.015054
v 0.035250 0.932436 -0.019434
v 0.053819 0.931894 -0.031729
v 0.065557 0.931643 -0.046819
v 0.047415 0.932227 -0.036129
v 0.042615 0.928295 -0.039007
v 0.058945 0.932087 -0.051182
v 0.053893 0.928788 -0.054247
v 0.070029 0.931749 -0.063082
v 0.081648 0.929309 -0.073870
v 0.064478 0.929543 -0.066129
v 0.076571 0.931222 -0.058367
v 0.088317 0.929756 -0.068287
v 0.082275 0.930807 -0.054521
v 0.091291 0.930248 -0.064124
v 0.086419 0.929190 -0.051832
v 0.071940 0.931158 -0.042412
v 0.076917 0.929086 -0.039116
v 0.065283 0.929552 -0.023398
v 0.080289 0.925474 -0.037415
v 0.068461 0.925956 -0.021211
v 0.055986 0.925945 -0.003677
v 0.074026 0.931074 -0.017540
v 0.060797 0.931222 -0.000207
v 0.048856 0.931189 0.014599
v 0.045026 0.926213 0.011819
v 0.036191 0.928764 0.028453
v 0.055607 0.930874 0.018523
v 0.047021 0.930480 0.030706
v 0.042911 0.929402 0.041126
v 0.056845 0.929744 0.033342
v 0.053128 0.928712 0.041700
v 0.065241 0.928977 0.036902
v 0.061599 0.928548 0.044491
v 0.069541 0.924832 0.039137
v 0.074502 0.925065 0.042883
v 0.064766 0.925163 0.045850
v 0.060856 0.924535 0.051298
v 0.069594 0.924367 0.049283
v 0.063514 0.921089 0.054302
v 0.078650 0.924601 0.059075
v 0.082793 0.925195 0.050277
v 0.076123 0.922401 0.066292
v 0.085638 0.922995 0.065911
v 0.089963 0.922436 0.068291
v 0.089576 0.923872 0.056277
v 0.082849 0.921925 0.070052
v 0.087370 0.917561 0.073903
v 0.077203 0.915827 0.071571
v 0.075819 0.907262 0.068276
v 0.064410 0.915817 0.059352
v 0.088513 0.905293 0.062664
v 0.074002 0.898600 0.063589
v 0.083082 0.899244 0.058509
v 0.065270 0.899566 0.060186
v 0.073100 0.886871 0.062134
v 0.080962 0.887315 0.057229
v 0.087318 0.888444 0.045076
v 0.100980 0.889387 0.031075
v 0.087652 0.873658 0.045641
v 0.091486 0.899932 0.047765
v 0.101808 0.901465 0.032416
v 0.115024 0.900877 0.014159
v 0.110529 0.889009 0.017843
v 0.113706 0.875487 0.013198
v 0.117342 0.868814 0.000430
v 0.100806 0.874065 0.031126
v 0.124675 0.880833 -0.008666
v 0.122135 0.864500 -0.005586
v 0.126896 0.868345 -0.011897
v 0.133951 0.870056 -0.019385
v 0.133409 0.885619 -0.018355
v 0.050011 0.920023 0.052153
v 0.051147 0.923790 0.050092
v 0.036693 0.921491 0.054580
v 0.033209 0.920480 0.048105
v 0.036277 0.928852 0.048402
v 0.042857 0.925074 0.051558
v 0.041614 0.927947 0.047094
v 0.051380 0.926986 0.047602
v 0.059308 0.928147 0.050393
v 0.034739 0.929716 0.042842
v 0.080760 0.924926 0.033984
v 0.071494 0.928534 -0.073886
v 0.062710 0.921623 -0.066016
v 0.052424 0.920370 -0.054037
v 0.071606 0.922634 -0.075021
v 0.063246 0.912906 -0.064308
v 0.070918 0.913190 -0.074413
v 0.054520 0.912903 -0.050475
v 0.065811 0.905177 -0.060865
v 0.057798 0.906990 -0.046868
v 0.073266 0.904676 -0.070485
v 0.065524 0.893388 -0.058403
v 0.064856 0.879258 -0.056154
v 0.073527 0.892060 -0.068756
v 0.055776 0.895019 -0.045514
v 0.048997 0.899416 -0.035688
v 0.050789 0.881270 -0.040910
v 0.052228 0.863466 -0.038225
v 0.037285 0.875366 -0.022849
v 0.045134 0.895468 -0.034202
v 0.043910 0.910112 -0.034928
v 0.036570 0.892517 -0.021936
v 0.033832 0.909269 -0.022020
v 0.025028 0.893434 -0.006078
v 0.015992 0.893868 0.002801
v 0.026337 0.875804 -0.006038
v 0.022800 0.910010 -0.008024
v 0.014762 0.912089 0.003627
v 0.020125 0.919804 -0.009428
v 0.020760 0.928596 -0.007873
v 0.030292 0.919553 -0.023454
v 0.012349 0.921026 0.002938
v 0.013306 0.929143 0.004549
v 0.008379 0.922806 0.014518
v 0.008066 0.929212 0.013232
v 0.006659 0.913806 0.013785
v 0.010458 0.894048 0.010763
v 0.011837 0.911352 0.018971
v 0.011452 0.893315 0.016611
v 0.011971 0.876577 0.015775
v 0.016672 0.892755 0.022156
v 0.023176 0.892722 0.023000
v 0.017151 0.876908 0.021454
v 0.018214 0.862510 0.021523
v 0.023921 0.877694 0.022346
v 0.024664 0.863394 0.022411
v 0.029899 0.878586 0.021777
v 0.036656 0.879632 0.026894
v 0.030105 0.864044 0.021495
v 0.028818 0.893456 0.021364
v 0.025204 0.908516 0.021026
v 0.035978 0.894297 0.026893
v 0.028690 0.851747 0.020213
v 0.037248 0.865257 0.027450
v 0.037858 0.852999 0.028326
v 0.043612 0.867426 0.034780
v 0.043157 0.881333 0.033797
v 0.045180 0.855322 0.037012
v 0.055532 0.857193 0.044177
v 0.044718 0.848277 0.040842
v 0.044469 0.839980 0.043368
v 0.035372 0.846935 0.032405
v 0.056940 0.850836 0.049629
v 0.054942 0.841187 0.051653
v 0.056846 0.833710 0.049080
v 0.063478 0.842653 0.057375
v 0.063605 0.833610 0.055693
v 0.071508 0.844026 0.060366
v 0.071912 0.838736 0.062813
v 0.084390 0.839179 0.058500
v 0.077357 0.833565 0.052872
v 0.083898 0.833528 0.053776
v 0.085662 0.833567 0.041785
v 0.070635 0.833634 0.048329
v 0.063323 0.834560 0.041788
v 0.079499 0.833594 0.037446
v 0.072078 0.835996 0.031023
v 0.089499 0.833537 0.023874
v 0.101529 0.833553 0.007221
v 0.081901 0.836085 0.017914
v 0.095427 0.833568 0.028369
v 0.107540 0.833566 0.011785
v 0.100938 0.833665 0.032586
v 0.091040 0.833535 0.045823
v 0.103822 0.838128 0.034959
v 0.113074 0.833817 0.015878
v 0.115901 0.838865 0.017923
v 0.124138 0.833682 0.000246
v 0.126362 0.840103 0.002616
v 0.119000 0.833619 -0.004202
v 0.132242 0.834060 -0.011423
v 0.127155 0.833721 -0.016109
v 0.121367 0.833661 -0.021318
v 0.113508 0.833570 -0.009294
v 0.125884 0.833817 -0.029911
v 0.113674 0.835811 -0.028571
v 0.105108 0.833847 -0.036447
v 0.105963 0.836090 -0.016004
v 0.118073 0.834208 -0.036095
v 0.109291 0.833833 -0.043148
v 0.099407 0.833999 -0.051766
v 0.112539 0.833846 -0.048479
v 0.102845 0.833855 -0.057163
v 0.093371 0.833782 -0.066848
v 0.105501 0.835789 -0.061023
v 0.105957 0.841236 -0.061597
v 0.096257 0.836878 -0.070220
v 0.088190 0.838633 -0.076811
v 0.096981 0.842678 -0.070488
v 0.094364 0.849292 -0.066139
v 0.087696 0.843693 -0.078829
v 0.080897 0.851904 -0.075039
v 0.081223 0.845823 -0.083696
v 0.075303 0.845923 -0.076929
v 0.081783 0.839210 -0.082312
v 0.081795 0.834104 -0.079169
v 0.075378 0.839546 -0.075216
v 0.076960 0.833609 -0.073149
v 0.068345 0.839209 -0.066656
v 0.070400 0.833744 -0.064455
v 0.059419 0.839669 -0.055575
v 0.067855 0.845115 -0.068056
v 0.071930 0.851912 -0.066026
v 0.060264 0.846466 -0.055643
v 0.048489 0.846463 -0.038005
v 0.062891 0.852796 -0.054488
v 0.052203 0.852417 -0.036178
v 0.063800 0.864404 -0.055109
v 0.073412 0.863474 -0.066833
v 0.081789 0.862716 -0.073897
v 0.073414 0.877511 -0.067656
v 0.081444 0.876187 -0.075201
v 0.091007 0.875181 -0.072016
v 0.081440 0.891308 -0.075204
v 0.080599 0.905050 -0.076174
v 0.090646 0.890903 -0.073042
v 0.094836 0.890428 -0.065453
v 0.090461 0.906440 -0.074344
v 0.088903 0.919126 -0.076243
v 0.079573 0.914796 -0.079096
v 0.076747 0.922474 -0.079800
v 0.093810 0.874400 -0.063747
v 0.093887 0.860589 -0.062230
v 0.092439 0.861543 -0.069467
v 0.094161 0.850308 -0.060734
v 0.038274 0.850771 -0.017643
v 0.033928 0.846553 -0.020024
v 0.024813 0.850799 -0.005594
v 0.038391 0.861387 -0.019729
v 0.025866 0.861826 -0.006184
v 0.017361 0.862115 0.002184
v 0.017220 0.850140 0.002793
v 0.012033 0.861824 0.009220
v 0.017082 0.876412 0.002013
v 0.011549 0.876480 0.009104
v 0.012786 0.861947 0.015677
v 0.010978 0.848169 0.010539
v 0.005883 0.839859 0.011009
v 0.012428 0.849183 0.017154
v 0.017825 0.849628 0.022300
v 0.010991 0.840409 0.017972
v 0.017098 0.840282 0.022842
v 0.013096 0.833939 0.014406
v 0.008751 0.834244 0.009926
v 0.018761 0.833882 0.006030
v 0.019224 0.833810 0.018973
v 0.024513 0.833836 0.011004
v 0.026931 0.833935 0.023816
v 0.038976 0.833900 0.029960
v 0.024520 0.840037 0.027674
v 0.032203 0.834246 0.016246
v 0.049667 0.833763 0.024827
v 0.036427 0.835289 0.004450
v 0.053245 0.835973 0.015292
v 0.031919 0.833800 0.000462
v 0.046059 0.834882 -0.009368
v 0.061992 0.836088 0.002377
v 0.059080 0.835101 -0.026862
v 0.041678 0.833728 -0.013101
v 0.054614 0.833842 -0.031172
v 0.035942 0.833798 -0.017709
v 0.026385 0.833776 -0.004400
v 0.049067 0.833985 -0.036013
v 0.033035 0.839252 -0.020621
v 0.023028 0.837692 -0.007301
v 0.046397 0.839864 -0.038816
v 0.014850 0.836338 0.002061
v 0.021735 0.844586 -0.008254
v 0.013534 0.842994 0.000568
v 0.061810 0.833911 -0.053000
v 0.067355 0.833806 -0.047980
v 0.071878 0.834755 -0.043541
v 0.076100 0.833711 -0.059773
v 0.082112 0.833692 -0.068085
v 0.082382 0.834823 -0.055771
v 0.088718 0.833883 -0.061548
v 0.096825 0.834018 -0.046501
v 0.085930 0.836121 -0.032427
v 0.085898 0.833777 -0.031483
v 0.096363 0.833922 -0.023458
v 0.074166 0.833673 -0.014177
v 0.062563 0.833857 0.002838
v 0.084262 0.833919 -0.006242
v 0.073673 0.836148 -0.014689
v 0.072584 0.833738 0.010375
v 0.093816 0.836103 0.001270
v 0.061596 0.833770 0.023350
v 0.054215 0.833754 0.016072
v 0.055971 0.833922 0.033485
v 0.048619 0.833846 0.040671
v 0.086746 0.833718 -0.073976
v 0.025929 0.849315 0.024889
v 0.034007 0.840152 0.035002
v 0.104463 0.845942 -0.059548
v 0.093690 0.838152 0.048540
v 0.011892 0.931734 0.018187
v 0.016460 0.932242 0.008577
v 0.024846 0.932347 -0.004277
v 0.041259 0.919641 -0.038838
v 0.030743 0.928381 -0.022706
v 0.048340 0.911095 -0.033720
v 0.145987 0.835609 -0.035842
v 0.139351 0.927031 -0.044312
v 0.136093 0.926862 -0.024896
v 0.141436 0.926103 -0.019894
v 0.146823 0.925278 -0.015005
v 0.133549 0.925779 -0.003613
v 0.154552 0.924010 -0.029463
vn 0.9707 -0.2345 0.0515
vn 0.9283 -0.3396 0.1513
vn 0.8486 -0.2538 -0.4643
vn 0.8052 -0.1003 -0.5844
vn 0.5609 0.7336 -0.3836
vn 0.8925 0.4099 -0.1882
vn 0.6430 -0.0115 -0.7658
vn 0.5323 0.7539 -0.3852
vn 0.5222 -0.1641 -0.8369
vn 0.1929 0.3278 -0.9248
vn 0.1934 0.7405 -0.6437
vn 0.2615 0.0231 -0.9649
vn 0.2203 -0.0834 -0.9719
vn 0.4914 -0.1121 -0.8637
vn 0.8859 -0.1829 -0.4262
vn 0.7129 0.4671 -0.5232
vn -0.3814 0.8027 -0.4586
vn 0.4814 -0.2037 -0.8525
vn 0.1774 -0.0519 -0.9828
vn 0.3566 -0.0887 -0.9300
vn 0.4740 -0.0518 -0.8790
vn 0.4728 -0.0079 -0.8811
vn 0.1207 -0.0176 -0.9925
vn 0.2776 -0.0277 -0.9603
vn 0.5969 -0.1163 -0.7938
vn 0.6161 -0.3172 -0.7210
vn 0.5822 -0.0159 -0.8129
vn 0.1678 -0.0105 -0.9858
vn 0.5906 -0.0003 -0.8069
vn 0.0371 0.0313 -0.9988
vn 0.1139 0.3338 -0.9358
vn 0.4944 0.4523 -0.7423
vn 0.2866 0.2912 -0.9127
vn 0.4751 0.1006 -0.8742
vn 0.4538 0.1267 -0.8821
vn 0.9391 -0.0099 -0.3434
vn 0.8862 0.2919 -0.3599
vn 0.6616 0.0121 -0.7498
vn 0.9659 0.2305 -0.1178
vn 0.9778 -0.2090 0.0130
vn 0.8287 0.2380 0.5066
vn 0.8143 0.2165 0.5386
vn 0.8463 -0.0103 0.5325
vn 0.9174 -0.0870 -0.3882
vn 0.8714 -0.1316 0.4726
vn 0.9077 -0.2879 0.3054
vn 0.7903 -0.4290 0.4375
vn 0.7143 -0.4029 0.5723
vn 0.6765 -0.1529 0.7204
vn 0.8851 -0.1899 0.4248
vn 0.8362 -0.2624 0.4816
vn 0.7027 -0.5430 0.4597
vn 0.7775 -0.3577 0.5173
vn 0.6420 -0.6349 0.4298
vn 0.7059 -0.5205 0.4804
vn 0.8019 -0.3172 0.5063
vn 0.6803 0.6531 0.3327
vn 0.7127 0.5539 0.4305
vn 0.7253 0.4765 0.4969
vn 0.7454 0.3985 0.5344
vn 0.7832 -0.3422 0.5192
vn 0.5897 -0.7157 0.3743
vn 0.7777 0.2584 0.5731
vn 0.7341 -0.3960 0.5516
vn 0.5503 -0.7259 0.4127
vn 0.7306 0.0473 0.6812
vn 0.4899 -0.5306 0.6918
vn 0.4084 -0.6341 0.6566
vn 0.2648 0.9373 0.2264
vn 0.3490 0.8932 0.2834
vn 0.4259 0.8310 0.3579
vn 0.0941 0.9892 0.1121
vn 0.0965 0.9895 0.1078
vn 0.0932 0.9906 0.1005
vn 0.2068 0.9627 0.1742
vn 0.0874 0.9925 0.0854
vn -0.0539 0.9985 -0.0125
vn -0.0307 0.9994 0.0154
vn -0.0010 0.9992 0.0397
vn -0.2217 0.9642 -0.1452
vn -0.1287 0.9889 -0.0742
vn -0.0632 0.9977 -0.0237
vn -0.0768 0.9964 -0.0358
vn -0.3121 0.9260 -0.2122
vn 0.0835 0.9939 0.0715
vn 0.1205 0.9918 0.0432
vn -0.1068 0.9857 -0.1302
vn 0.1997 0.9691 0.1447
vn 0.2356 0.9560 0.1746
vn 0.6659 0.6879 0.2886
vn 0.4343 0.8494 0.2999
vn 0.3783 0.8841 0.2743
vn 0.3666 0.8922 0.2637
vn 0.2971 0.9322 0.2066
vn 0.2962 0.9317 0.2101
vn 0.3295 0.9106 0.2494
vn 0.0546 0.9965 0.0635
vn 0.0559 0.9975 0.0434
vn 0.0585 0.9977 0.0351
vn 0.0512 0.9982 0.0321
vn 0.0469 0.9984 0.0329
vn 0.0138 0.9989 0.0448
vn 0.0818 0.9960 0.0371
vn 0.0598 0.9979 0.0261
vn 0.1734 0.9841 0.0388
vn 0.0586 0.9980 -0.0240
vn 0.7155 0.3471 -0.6063
vn 0.3973 0.8588 -0.3233
vn 0.1716 0.8520 -0.4946
vn 0.0300 0.8707 -0.4909
vn -0.1613 0.9661 -0.2013
vn -0.2119 0.9593 -0.1865
vn 0.1207 0.9919 0.0391
vn 0.0813 0.9964 0.0252
vn 0.2617 0.9260 -0.2720
vn 0.3922 0.0699 -0.9172
vn 0.3787 0.1540 -0.9126
vn 0.5266 0.3560 -0.7719
vn 0.5805 0.8135 -0.0363
vn 0.4403 0.8411 0.3142
vn 0.6896 0.3972 -0.6055
vn 0.5078 -0.2653 -0.8196
vn 0.5989 -0.1756 -0.7813
vn 0.7526 -0.0759 -0.6540
vn 0.8165 -0.1109 -0.5667
vn 0.6364 -0.1388 -0.7587
vn 0.5485 -0.1399 -0.8243
vn 0.7859 -0.2883 -0.5471
vn 0.5497 -0.0174 -0.8352
vn 0.6108 -0.0451 -0.7905
vn 0.5541 0.0063 -0.8324
vn 0.5631 -0.0264 -0.8259
vn 0.4958 0.4327 -0.7530
vn 0.5264 0.4557 -0.7178
vn 0.4987 0.6536 -0.5693
vn 0.4753 0.5287 -0.7033
vn 0.4493 0.5207 -0.7260
vn 0.5416 -0.0831 -0.8365
vn 0.4778 -0.2067 -0.8538
vn 0.5762 0.0269 -0.8168
vn 0.2273 -0.8888 -0.3979
vn 0.2815 -0.8375 -0.4684
vn 0.3985 -0.7115 -0.5788
vn -0.0095 -0.9999 -0.0083
vn 0.0320 -0.9971 -0.0685
vn -0.0188 -0.9998 0.0049
vn 0.4089 -0.4042 -0.8182
vn 0.1739 -0.9407 -0.2912
vn 0.0143 -0.9999 -0.0024
vn 0.6443 -0.7647 -0.0092
vn 0.4464 -0.8556 0.2620
vn 0.6014 -0.5215 -0.6053
vn 0.4562 -0.8327 0.3137
vn 0.0027 -1.0000 0.0093
vn -0.0563 -0.9984 0.0021
vn 0.8101 -0.2347 0.5373
vn 0.7757 -0.1016 0.6228
vn 0.6756 0.2604 0.6898
vn 0.8084 -0.0060 0.5887
vn 0.4609 -0.8306 0.3124
vn 0.5813 0.4079 0.7041
vn 0.6524 0.1562 0.7416
vn 0.6120 0.0572 0.7888
vn 0.7255 -0.0097 0.6881
vn 0.4843 0.6090 0.6282
vn 0.8484 -0.1055 0.5187
vn 0.6217 0.7016 0.3483
vn 0.6768 0.6704 0.3043
vn 0.9191 0.0408 0.3920
vn 0.8719 0.0174 0.4895
vn 0.7784 0.5059 0.3717
vn 0.7603 0.4205 0.4950
vn 0.8011 0.0248 0.5980
vn 0.7254 0.4805 0.4930
vn 0.7609 0.3337 0.5565
vn 0.8194 0.0771 0.5680
vn 0.7318 0.3665 0.5746
vn 0.7099 0.2976 0.6384
vn 0.5334 0.1529 0.8320
vn 0.4536 0.2676 0.8501
vn 0.6569 0.0134 0.7539
vn -0.1020 0.1497 0.9835
vn 0.0041 0.0064 1.0000
vn 0.0699 -0.0690 0.9952
vn 0.0883 -0.0253 0.9958
vn 0.7118 0.0054 0.7024
vn 0.8160 0.0013 0.5781
vn -0.5734 -0.0223 0.8190
vn -0.5640 -0.0228 0.8255
vn -0.5299 0.0571 0.8461
vn -0.9217 0.1563 0.3551
vn -0.9661 0.0066 0.2582
vn -0.6634 0.3679 0.6516
vn 0.0801 -0.0726 0.9941
vn -0.5934 -0.0390 0.8039
vn -0.9773 -0.0197 0.2111
vn -0.9400 -0.0141 0.3410
vn -0.9141 0.0231 0.4049
vn -0.8064 0.4329 0.4028
vn -0.5829 0.0024 0.8125
vn -0.5510 0.0240 0.8342
vn -0.5830 0.2953 0.7569
vn -0.9481 -0.1469 0.2819
vn -0.7177 -0.5641 0.4083
vn -0.6117 -0.1431 0.7781
vn -0.5554 -0.5554 0.6189
vn -0.6556 -0.0630 0.7525
vn -0.6692 0.0058 0.7431
vn -0.5695 -0.5082 0.6461
vn -0.4158 -0.5228 0.7442
vn -0.4979 -0.7362 0.4584
vn -0.6012 0.1181 0.7903
vn -0.6446 -0.1763 0.7440
vn -0.6412 -0.1079 0.7597
vn -0.5843 -0.6142 0.5304
vn -0.5314 -0.5196 0.6690
vn -0.6428 -0.0601 0.7637
vn -0.9474 -0.1194 0.2970
vn -0.8358 -0.2282 0.4993
vn -0.8206 0.2537 0.5121
vn -0.1542 -0.3378 0.9285
vn 0.0269 -0.4302 0.9023
vn -0.3805 0.3805 0.8429
vn -0.4205 0.9028 0.0899
vn 0.0320 0.8776 0.4783
vn -0.5221 0.8498 -0.0723
vn 0.0878 0.8109 0.5785
vn -0.3367 0.2960 0.8939
vn -0.4987 -0.0584 0.8648
vn -0.7630 -0.0527 0.6442
vn -0.6772 0.0957 0.7295
vn -0.5175 0.7313 0.4442
vn -0.1201 0.7449 0.6562
vn 0.1011 0.9678 0.2306
vn 0.0677 0.9942 0.0840
vn 0.1820 0.9616 0.2054
vn 0.2820 0.9196 0.2736
vn 0.1627 0.9775 0.1339
vn 0.0449 0.9985 0.0324
vn 0.3590 0.8897 0.2819
vn 0.4022 0.8679 0.2917
vn 0.1559 0.9821 0.1061
vn 0.0467 0.9987 0.0217
vn -0.2318 0.9582 -0.1675
vn -0.2280 0.9628 -0.1449
vn -0.2153 0.9625 -0.1648
vn 0.1569 0.9824 0.1015
vn 0.0541 0.9983 0.0219
vn -0.1711 0.9746 -0.1445
vn -0.6925 0.5144 -0.5058
vn -0.7031 0.5048 -0.5008
vn -0.6515 0.5553 -0.5169
vn 0.0623 0.9977 -0.0285
vn -0.0716 0.9838 -0.1642
vn -0.5522 0.6309 -0.5450
vn 0.3762 0.8434 -0.3835
vn 0.1655 0.7740 -0.6111
vn -0.4022 0.6553 -0.6394
vn 0.1733 0.9807 0.0907
vn 0.4313 0.8890 -0.1539
vn 0.4287 0.8505 0.3048
vn 0.0257 0.9996 0.0069
vn -0.2405 0.9525 -0.1868
vn -0.0550 0.9977 -0.0403
vn -0.2625 0.9440 -0.1999
vn -0.3115 0.9288 -0.2005
vn -0.1690 0.9806 -0.0994
vn -0.0220 0.9981 0.0575
vn 0.0432 0.9946 0.0942
vn 0.0271 0.9906 0.1342
vn -0.5715 0.8085 0.1404
vn 0.0069 0.9874 0.1578
vn 0.3038 0.9234 0.2348
vn 0.3123 0.9103 0.2718
vn 0.3779 0.8623 0.3370
vn 0.2980 0.9325 0.2043
vn -0.0607 0.9816 0.1813
vn -0.0293 0.9994 0.0172
vn 0.1029 0.6919 0.7146
vn -0.2705 0.7070 0.6534
vn 0.1222 0.7811 0.6123
vn -0.3730 0.7692 0.5189
vn -0.0859 0.9827 0.1643
vn 0.0166 0.9975 0.0682
vn 0.0440 0.9606 0.2743
vn -0.1387 0.7768 0.6142
vn 0.2852 0.0749 0.9555
vn 0.3695 0.7850 0.4973
vn -0.2900 0.0374 0.9563
vn -0.1589 -0.3678 0.9162
vn -0.1276 0.2224 0.9666
vn -0.0186 -0.3000 0.9538
vn 0.5525 -0.5120 0.6577
vn 0.7071 -0.1176 0.6973
vn 0.8046 -0.1351 0.5782
vn 0.6499 -0.6061 0.4585
vn 0.7774 -0.0355 0.6281
vn 0.7815 -0.0964 0.6164
vn 0.6556 -0.5983 0.4606
vn 0.8310 -0.0646 0.5525
vn 0.8687 -0.0729 0.4899
vn 0.8870 -0.0839 0.4541
vn 0.8047 -0.1234 0.5808
vn 0.7720 -0.0662 0.6322
vn 0.7359 -0.0081 0.6770
vn 0.6610 0.0093 0.7503
vn -0.0280 0.5505 0.8344
vn 0.1521 0.6193 0.7703
vn -0.3414 0.0198 0.9397
vn -0.3929 0.7704 0.5020
vn 0.1074 0.8896 0.4440
vn -0.0371 0.8531 0.5205
vn 0.5179 0.1809 -0.8361
vn -0.5935 0.1394 -0.7927
vn -0.7585 -0.0224 -0.6513
vn -0.7838 -0.1256 -0.6082
vn -0.6909 -0.5482 -0.4713
vn -0.7522 -0.3530 -0.5563
vn -0.6359 -0.2682 -0.7237
vn -0.6669 -0.2711 -0.6941
vn -0.7919 -0.2835 -0.5408
vn -0.7830 -0.3599 -0.5074
vn -0.7820 0.0405 -0.6220
vn -0.7994 -0.0398 -0.5995
vn -0.7238 -0.0710 -0.6863
vn -0.7831 -0.0355 -0.6208
vn -0.7329 -0.0368 -0.6794
vn -0.7745 -0.0389 -0.6314
vn -0.5553 0.0807 -0.8277
vn -0.5176 -0.4392 -0.7343
vn -0.7065 0.0042 -0.7077
vn -0.7979 -0.0204 -0.6025
vn -0.7997 -0.0979 -0.5924
vn -0.7670 -0.1030 -0.6333
vn -0.7971 -0.0858 -0.5978
vn -0.8052 -0.0766 -0.5881
vn -0.7753 -0.2415 -0.5836
vn -0.6110 -0.3671 -0.7013
vn -0.7686 -0.0795 -0.6348
vn -0.7888 -0.2102 -0.5776
vn -0.7485 -0.0358 -0.6622
vn -0.8221 -0.1216 -0.5563
vn -0.7685 -0.0463 -0.6382
vn -0.7408 -0.0163 -0.6715
vn -0.8016 -0.1214 -0.5854
vn -0.8282 -0.0807 -0.5546
vn -0.8704 -0.0126 -0.4921
vn -0.7377 0.5372 -0.4089
vn -0.7081 0.5255 -0.4716
vn -0.9892 0.0396 0.1408
vn -0.8928 0.4494 -0.0310
vn -0.9982 -0.0541 0.0266
vn -0.9795 -0.0719 -0.1883
vn -0.8680 -0.0845 0.4893
vn -0.4765 -0.0796 0.8756
vn -0.9591 -0.0352 -0.2809
vn -0.9124 -0.0531 0.4058
vn -0.4647 -0.0409 0.8845
vn 0.1235 -0.0438 0.9914
vn 0.0131 -0.0137 0.9998
vn 0.0854 0.0356 0.9957
vn -0.4742 0.0383 0.8796
vn -0.9065 0.0167 0.4219
vn -0.2094 0.0081 0.9778
vn -0.2566 -0.0092 0.9665
vn -0.1334 -0.0400 0.9903
vn -0.6718 -0.0101 0.7407
vn -0.6973 0.0055 0.7167
vn -0.2886 0.3729 0.8819
vn -0.0922 0.3307 0.9392
vn -0.6613 0.3494 0.6638
vn -0.6703 0.2600 0.6950
vn -0.6809 0.0248 0.7319
vn -0.6231 0.3743 0.6868
vn -0.5811 0.4747 0.6610
vn -0.6054 -0.2068 0.7686
vn -0.6434 -0.1963 0.7399
vn -0.6335 -0.0837 0.7692
vn -0.5471 0.0132 0.8370
vn -0.2899 -0.8960 0.3364
vn -0.3409 -0.8466 0.4088
vn -0.3239 -0.7592 0.5646
vn -0.0820 -0.3256 0.9419
vn 0.4754 -0.2621 0.8398
vn 0.2574 -0.8753 0.4095
vn 0.0558 -0.9569 0.2850
vn -0.0096 -0.9992 0.0392
vn -0.0010 -1.0000 -0.0013
vn 0.3428 -0.8936 0.2898
vn -0.0738 -0.9947 -0.0722
vn 0.0158 -0.9985 -0.0517
vn -0.0078 -0.9992 -0.0388
vn -0.0290 -0.9993 -0.0220
vn -0.1009 -0.9922 -0.0739
vn 0.0077 -1.0000 0.0037
vn 0.0118 -0.9999 0.0074
vn -0.1012 -0.9922 -0.0734
vn -0.0286 -0.9993 -0.0230
vn 0.4006 -0.8747 0.2729
vn 0.3622 -0.8959 0.2572
vn 0.7442 -0.3952 0.5384
vn 0.7038 -0.3377 0.6250
vn 0.7916 -0.3131 0.5247
vn 0.4427 -0.8485 0.2900
vn 0.0172 -0.9998 0.0047
vn 0.0187 -0.9998 0.0060
vn -0.0837 -0.9959 -0.0346
vn -0.0942 -0.9934 -0.0649
vn -0.0320 -0.9994 -0.0158
vn -0.0445 -0.9985 0.0312
vn -0.0428 -0.9980 0.0465
vn 0.0361 -0.9977 0.0567
vn -0.0025 -0.9993 0.0377
vn 0.0753 -0.9958 0.0522
vn -0.0392 -0.9992 0.0085
vn -0.0250 -0.9996 0.0158
vn 0.1071 -0.9844 -0.1397
vn 0.5022 -0.6169 -0.6059
vn -0.0091 -0.9992 0.0399
vn 0.2022 -0.9505 -0.2358
vn 0.5672 -0.5019 -0.6530
vn 0.6445 0.1670 -0.7461
vn 0.6630 0.2439 -0.7078
vn 0.2870 -0.8929 -0.3470
vn 0.5877 -0.3754 -0.7167
vn 0.5606 0.2798 -0.7793
vn -0.0677 0.4960 -0.8657
vn 0.7112 0.4684 -0.5242
vn -0.1106 0.2950 -0.9491
vn -0.6345 0.3120 -0.7072
vn -0.0645 -0.3811 -0.9223
vn -0.7277 -0.3004 -0.6167
vn -0.0611 -0.7710 -0.6339
vn -0.4130 -0.8396 -0.3528
vn -0.4120 -0.8556 -0.3134
vn -0.7564 -0.2976 -0.5826
vn -0.7683 0.2039 -0.6067
vn -0.7866 -0.2227 -0.5758
vn -0.3998 -0.8667 -0.2984
vn -0.7826 0.2983 -0.5464
vn -0.7922 0.2518 -0.5559
vn -0.7124 0.3258 -0.6216
vn -0.7430 0.4111 -0.5281
vn -0.7964 0.2568 -0.5475
vn -0.7881 -0.1761 -0.5899
vn -0.7294 0.0121 -0.6840
vn -0.1475 -0.0470 -0.9879
vn -0.2090 -0.0651 -0.9757
vn -0.2206 -0.0634 -0.9733
vn 0.7768 -0.0265 -0.6292
vn 0.6786 -0.0566 -0.7323
vn 0.5917 -0.0733 -0.8028
vn -0.1650 -0.2053 -0.9647
vn 0.5431 -0.0854 -0.8353
vn 0.8566 -0.0406 -0.5143
vn -0.0793 -0.1126 -0.9905
vn -0.1539 0.2430 -0.9577
vn 0.8784 0.0002 -0.4778
vn 0.7851 0.4158 -0.4591
vn -0.7165 0.3142 -0.6228
vn -0.6964 0.4115 -0.5880
vn -0.6946 0.2980 -0.6548
vn -0.7201 0.2402 -0.6509
vn -0.7245 -0.0327 -0.6885
vn -0.7459 -0.0078 -0.6660
vn -0.7599 0.2521 -0.5991
vn -0.9455 0.2946 -0.1384
vn -0.9604 -0.0039 -0.2785
vn -0.8377 0.1638 0.5210
vn -0.7507 -0.1346 0.6468
vn -0.9988 -0.0484 -0.0023
vn -0.7763 0.1414 -0.6143
vn -0.5158 0.1360 0.8458
vn -0.5508 -0.2099 0.8078
vn -0.3917 -0.8658 0.3114
vn -0.2708 -0.8823 0.3851
vn -0.6614 -0.7415 -0.1125
vn -0.1282 -0.9812 -0.1444
vn -0.5575 -0.6384 -0.5307
vn 0.0379 -0.9993 0.0060
vn -0.5108 -0.2063 0.8346
vn -0.2281 -0.9018 0.3671
vn 0.0554 -0.9979 -0.0334
vn -0.2220 -0.9366 0.2713
vn -0.0130 -0.9990 -0.0434
vn 0.0749 -0.9962 0.0435
vn 0.1062 -0.9941 0.0219
vn -0.3836 -0.8793 -0.2821
vn 0.1065 -0.9912 0.0792
vn -0.4560 -0.8365 -0.3038
vn 0.0818 -0.9949 0.0590
vn 0.1002 -0.9921 0.0749
vn -0.4798 -0.8144 -0.3263
vn 0.0680 -0.9964 0.0503
vn -0.3432 -0.9004 -0.2674
vn -0.3858 -0.8755 -0.2908
vn -0.2581 -0.9409 -0.2192
vn -0.6494 -0.4892 -0.5823
vn -0.7482 -0.2794 -0.6017
vn 0.0550 -0.9973 0.0496
vn 0.0326 -0.9983 0.0486
vn 0.0698 -0.9945 0.0784
vn 0.0159 -0.9973 0.0723
vn 0.0090 -0.9998 0.0171
vn -0.4908 -0.8098 -0.3214
vn -0.5051 -0.7852 -0.3583
vn -0.4945 -0.8004 -0.3389
vn 0.0791 -0.9954 0.0537
vn -0.4776 -0.8180 -0.3207
vn 0.0768 -0.9955 0.0549
vn 0.0645 -0.9973 0.0352
vn -0.4628 -0.8440 -0.2713
vn 0.0529 -0.9986 0.0096
vn -0.2118 0.9723 -0.0987
vn -0.7907 -0.1601 -0.5909
vn 0.1337 0.9899 0.0482
vn 0.1469 0.9812 0.1253
vt 0.289961 0.265826
vt 0.287424 0.263403
vt 0.293088 0.261816
vt 0.294375 0.265036
vt 0.295230 0.267317
vt 0.290682 0.267889
vt 0.298269 0.263836
vt 0.297952 0.266610
vt 0.297914 0.260466
vt 0.302964 0.264258
vt 0.300433 0.266079
vt 0.302284 0.261279
vt 0.299804 0.253798
vt 0.295597 0.255544
vt 0.290906 0.257426
vt 0.308904 0.263831
vt 0.300733 0.269797
vt 0.303065 0.252910
vt 0.295968 0.247039
vt 0.299332 0.244766
vt 0.292105 0.249442
vt 0.288599 0.242346
vt 0.291864 0.240210
vt 0.294782 0.237893
vt 0.303470 0.240446
vt 0.306691 0.249429
vt 0.298587 0.234337
vt 0.291060 0.231911
vt 0.293914 0.228703
vt 0.288454 0.233684
vt 0.288749 0.228181
vt 0.290371 0.224621
vt 0.285932 0.227811
vt 0.285109 0.235583
vt 0.282428 0.230209
vt 0.284012 0.244597
vt 0.280699 0.237482
vt 0.278744 0.231083
vt 0.277396 0.234717
vt 0.275830 0.231140
vt 0.275774 0.240290
vt 0.273231 0.235943
vt 0.278622 0.246534
vt 0.287509 0.251609
vt 0.282243 0.253662
vt 0.285421 0.259715
vt 0.280165 0.266057
vt 0.277819 0.261392
vt 0.275501 0.255028
vt 0.282857 0.269047
vt 0.274083 0.271728
vt 0.271245 0.267685
vt 0.265910 0.260805
vt 0.260816 0.270818
vt 0.257074 0.265628
vt 0.263305 0.275163
vt 0.284711 0.271756
vt 0.276538 0.274234
vt 0.266364 0.278523
vt 0.252870 0.280036
vt 0.250117 0.276014
vt 0.247540 0.272153
vt 0.243551 0.279941
vt 0.240777 0.275982
vt 0.237725 0.271856
vt 0.236676 0.278986
vt 0.233039 0.275619
vt 0.230160 0.271030
vt 0.256449 0.284913
vt 0.246265 0.283220
vt 0.174155 0.356872
vt 0.178372 0.358822
vt 0.180086 0.363455
vt 0.174070 0.358966
vt 0.179417 0.355143
vt 0.176750 0.351249
vt 0.170001 0.351699
vt 0.169830 0.354580
vt 0.270736 0.280796
vt 0.277312 0.281466
vt 0.260551 0.287738
vt 0.280279 0.281847
vt 0.267634 0.287249
vt 0.261741 0.292391
vt 0.258840 0.292279
vt 0.285366 0.281069
vt 0.270771 0.287474
vt 0.178092 0.335296
vt 0.181731 0.343016
vt 0.179264 0.345731
vt 0.176209 0.337780
vt 0.290347 0.276192
vt 0.294546 0.275465
vt 0.285571 0.276478
vt 0.295242 0.270935
vt 0.297066 0.270845
vt 0.300063 0.275295
vt 0.285980 0.281849
vt 0.169948 0.296646
vt 0.173246 0.297966
vt 0.176166 0.308752
vt 0.172836 0.310057
vt 0.176436 0.321715
vt 0.179700 0.319725
vt 0.183006 0.331023
vt 0.180309 0.332943
vt 0.273543 0.288960
vt 0.183448 0.341015
vt 0.186199 0.339174
vt 0.190145 0.337160
vt 0.186759 0.328647
vt 0.183142 0.317984
vt 0.187403 0.316277
vt 0.190905 0.326700
vt 0.194761 0.335206
vt 0.179680 0.307567
vt 0.184418 0.306194
vt 0.177111 0.298231
vt 0.182232 0.297613
vt 0.311585 0.263710
vt 0.311598 0.256503
vt 0.313424 0.257153
vt 0.314675 0.263663
vt 0.175305 0.292738
vt 0.178323 0.292602
vt 0.325067 0.254112
vt 0.318200 0.253525
vt 0.322383 0.248206
vt 0.328258 0.250078
vt 0.188629 0.296776
vt 0.189749 0.304560
vt 0.194791 0.295712
vt 0.195281 0.303146
vt 0.325494 0.243235
vt 0.330913 0.245799
vt 0.314028 0.251664
vt 0.317559 0.246739
vt 0.322303 0.241554
vt 0.198876 0.289619
vt 0.198576 0.295110
vt 0.195929 0.290579
vt 0.325372 0.237994
vt 0.327889 0.241497
vt 0.312608 0.243904
vt 0.317494 0.238129
vt 0.320331 0.232484
vt 0.315370 0.226008
vt 0.311394 0.231292
vt 0.308064 0.236750
vt 0.309418 0.254296
vt 0.301689 0.229924
vt 0.306023 0.224730
vt 0.296964 0.224351
vt 0.300859 0.218722
vt 0.292897 0.219751
vt 0.297030 0.214732
vt 0.294202 0.211877
vt 0.290114 0.217223
vt 0.287341 0.222173
vt 0.284330 0.219485
vt 0.281696 0.223103
vt 0.287609 0.214958
vt 0.278929 0.221117
vt 0.281487 0.217199
vt 0.285110 0.213005
vt 0.278407 0.215512
vt 0.282043 0.210984
vt 0.275485 0.219418
vt 0.279357 0.226041
vt 0.276575 0.224459
vt 0.273123 0.223755
vt 0.274927 0.228018
vt 0.271787 0.227573
vt 0.277016 0.227943
vt 0.267586 0.227341
vt 0.269161 0.223168
vt 0.271778 0.218810
vt 0.272034 0.232097
vt 0.267926 0.232222
vt 0.269501 0.236507
vt 0.263071 0.231197
vt 0.262765 0.226944
vt 0.264204 0.236981
vt 0.271124 0.241664
vt 0.266712 0.242245
vt 0.262522 0.242577
vt 0.261669 0.238729
vt 0.255566 0.230450
vt 0.255380 0.234296
vt 0.255427 0.237415
vt 0.255370 0.242681
vt 0.248581 0.243042
vt 0.249027 0.237992
vt 0.246407 0.232650
vt 0.238089 0.243530
vt 0.234519 0.235325
vt 0.234959 0.231042
vt 0.228037 0.241814
vt 0.226802 0.234805
vt 0.226936 0.230678
vt 0.220151 0.233330
vt 0.220450 0.229072
vt 0.221291 0.240490
vt 0.215999 0.227134
vt 0.216038 0.231748
vt 0.216682 0.237640
vt 0.204052 0.383386
vt 0.209698 0.388605
vt 0.206004 0.390584
vt 0.200552 0.385196
vt 0.229792 0.250030
vt 0.222599 0.248574
vt 0.206684 0.381705
vt 0.212914 0.385980
vt 0.217922 0.387757
vt 0.214740 0.390471
vt 0.216247 0.383901
vt 0.210310 0.380159
vt 0.222858 0.384513
vt 0.197781 0.377017
vt 0.200991 0.375712
vt 0.203931 0.374602
vt 0.207037 0.373236
vt 0.213348 0.377912
vt 0.219930 0.382533
vt 0.212813 0.370493
vt 0.218698 0.375147
vt 0.222856 0.379955
vt 0.199141 0.368458
vt 0.201445 0.367020
vt 0.207158 0.365913
vt 0.199603 0.364060
vt 0.213359 0.362866
vt 0.219584 0.366794
vt 0.208186 0.359301
vt 0.199766 0.358642
vt 0.205889 0.355745
vt 0.191958 0.361019
vt 0.193185 0.364539
vt 0.195869 0.369309
vt 0.210758 0.351335
vt 0.211713 0.354859
vt 0.217729 0.359394
vt 0.206105 0.350461
vt 0.202481 0.351637
vt 0.208498 0.347568
vt 0.216087 0.349804
vt 0.216180 0.352325
vt 0.210853 0.345213
vt 0.205368 0.341295
vt 0.207350 0.340166
vt 0.203703 0.342282
vt 0.209376 0.339833
vt 0.213531 0.343513
vt 0.219082 0.347402
vt 0.220955 0.344465
vt 0.216880 0.341262
vt 0.214524 0.338557
vt 0.212583 0.338986
vt 0.211640 0.335884
vt 0.209186 0.328149
vt 0.206075 0.329598
vt 0.203927 0.331378
vt 0.204903 0.320327
vt 0.209049 0.318489
vt 0.201580 0.321902
vt 0.199702 0.311287
vt 0.203857 0.310124
vt 0.209038 0.308788
vt 0.214114 0.318050
vt 0.213062 0.326489
vt 0.214309 0.308563
vt 0.202871 0.301165
vt 0.208355 0.300379
vt 0.213832 0.299977
vt 0.219034 0.308937
vt 0.218817 0.317701
vt 0.218722 0.300444
vt 0.207263 0.293419
vt 0.213005 0.293085
vt 0.217449 0.293769
vt 0.205680 0.287266
vt 0.212415 0.286284
vt 0.217768 0.289863
vt 0.202369 0.294450
vt 0.202146 0.289110
vt 0.198697 0.302307
vt 0.196639 0.312568
vt 0.191721 0.314280
vt 0.198553 0.322981
vt 0.194787 0.324914
vt 0.198590 0.333872
vt 0.201508 0.332714
vt 0.197371 0.341838
vt 0.192037 0.342795
vt 0.196444 0.346909
vt 0.199896 0.348201
vt 0.192809 0.347733
vt 0.188021 0.344253
vt 0.189630 0.348748
vt 0.188450 0.350608
vt 0.186030 0.346352
vt 0.187073 0.352010
vt 0.184317 0.348291
vt 0.190659 0.353855
vt 0.190536 0.357083
vt 0.190893 0.351877
vt 0.186030 0.359534
vt 0.184506 0.355557
vt 0.181746 0.351785
vt 0.182196 0.358166
vt 0.183951 0.359910
vt 0.182959 0.362021
vt 0.180976 0.359798
vt 0.185688 0.365345
vt 0.179898 0.367460
vt 0.184935 0.373182
vt 0.188986 0.368402
vt 0.195975 0.355973
vt 0.192959 0.371571
vt 0.190414 0.374621
vt 0.195099 0.379360
vt 0.232066 0.258931
vt 0.224937 0.257909
vt 0.227517 0.265748
vt 0.234812 0.266235
vt 0.240377 0.251290
vt 0.243147 0.260114
vt 0.244568 0.266770
vt 0.251890 0.259920
vt 0.252403 0.252851
vt 0.258673 0.249038
vt 0.267345 0.254368
vt 0.262205 0.246719
vt 0.267209 0.247958
vt 0.273159 0.248010
vt 0.193954 0.353920
vt 0.196729 0.352496
vt 0.199276 0.353369
vt 0.198550 0.349945
vt 0.196534 0.350223
vt 0.193507 0.351290
vt 0.330141 0.237760
vt 0.329166 0.240275
vt 0.332183 0.233437
vt 0.327255 0.231167
vt 0.222045 0.289320
vt 0.223394 0.294726
vt 0.224334 0.302165
vt 0.229567 0.302944
vt 0.229393 0.295850
vt 0.228689 0.290353
vt 0.235576 0.292116
vt 0.235833 0.297147
vt 0.234344 0.303733
vt 0.241792 0.306875
vt 0.243168 0.299858
vt 0.244268 0.294227
vt 0.250949 0.303181
vt 0.252667 0.296857
vt 0.248551 0.312829
vt 0.238884 0.311936
vt 0.233509 0.310386
vt 0.240001 0.314830
vt 0.258417 0.306576
vt 0.255873 0.317552
vt 0.252318 0.330164
vt 0.246814 0.325904
vt 0.239778 0.322535
vt 0.231359 0.319781
vt 0.232033 0.312196
vt 0.236219 0.332270
vt 0.228777 0.327818
vt 0.242910 0.336261
vt 0.226178 0.334914
vt 0.233231 0.339041
vt 0.239750 0.342755
vt 0.224846 0.318392
vt 0.223308 0.326251
vt 0.221862 0.333255
vt 0.217160 0.332467
vt 0.217700 0.326006
vt 0.219094 0.338928
vt 0.216996 0.337087
vt 0.222705 0.340816
vt 0.230559 0.344186
vt 0.228999 0.347570
vt 0.226430 0.351057
vt 0.237492 0.347636
vt 0.235477 0.351334
vt 0.232967 0.354900
vt 0.224044 0.353608
vt 0.230153 0.357721
vt 0.236315 0.361264
vt 0.238880 0.358489
vt 0.241366 0.354527
vt 0.233709 0.363627
vt 0.227632 0.360146
vt 0.221876 0.355792
vt 0.224048 0.363547
vt 0.229968 0.367579
vt 0.241640 0.365998
vt 0.238375 0.366555
vt 0.234439 0.371155
vt 0.229415 0.375823
vt 0.225351 0.371186
vt 0.232004 0.378085
vt 0.238000 0.372748
vt 0.240731 0.374536
vt 0.234753 0.380527
vt 0.227851 0.385906
vt 0.221765 0.389291
vt 0.236819 0.383105
vt 0.231024 0.387771
vt 0.225959 0.391041
vt 0.219529 0.393501
vt 0.217494 0.391850
vt 0.216474 0.222007
vt 0.221428 0.225745
vt 0.223001 0.221464
vt 0.221569 0.217740
vt 0.221180 0.211822
vt 0.217017 0.212572
vt 0.227512 0.217686
vt 0.227303 0.222454
vt 0.228474 0.212754
vt 0.219380 0.205088
vt 0.224424 0.205106
vt 0.231219 0.206156
vt 0.239238 0.207350
vt 0.236867 0.213607
vt 0.235910 0.218719
vt 0.246257 0.220508
vt 0.247398 0.215642
vt 0.249507 0.209205
vt 0.245560 0.225020
vt 0.235412 0.223298
vt 0.235051 0.227168
vt 0.227226 0.226895
vt 0.245818 0.228849
vt 0.255729 0.225860
vt 0.256398 0.221570
vt 0.264046 0.222670
vt 0.266008 0.218092
vt 0.258277 0.217211
vt 0.261220 0.211330
vt 0.269590 0.212865
vt 0.274888 0.213912
vt 0.273728 0.207646
vt 0.278489 0.209246
vt 0.264711 0.204490
vt 0.278673 0.202644
vt 0.282706 0.203884
vt 0.286282 0.205850
vt 0.289025 0.207646
vt 0.287300 0.197971
vt 0.290942 0.200569
vt 0.293302 0.202478
vt 0.291748 0.209872
vt 0.296181 0.204659
vt 0.293796 0.197406
vt 0.296765 0.199138
vt 0.299549 0.199858
vt 0.305599 0.197675
vt 0.300185 0.207345
vt 0.300777 0.196603
vt 0.299221 0.193120
vt 0.298014 0.195900
vt 0.296322 0.192209
vt 0.295653 0.195009
vt 0.293184 0.192687
vt 0.290375 0.189144
vt 0.293690 0.188296
vt 0.297093 0.189083
vt 0.287487 0.184667
vt 0.282961 0.185890
vt 0.291478 0.183537
vt 0.298431 0.186572
vt 0.302758 0.192563
vt 0.283991 0.178492
vt 0.290788 0.177840
vt 0.278845 0.179453
vt 0.309880 0.195546
vt 0.303322 0.187929
vt 0.296633 0.177475
vt 0.260128 0.299417
vt 0.308664 0.204085
vt 0.315642 0.202730
vt 0.313694 0.210279
vt 0.319811 0.210729
vt 0.319042 0.216582
vt 0.305976 0.210243
vt 0.311924 0.215246
vt 0.317765 0.221451
vt 0.324478 0.221617
vt 0.324788 0.216525
vt 0.322802 0.227648
vt 0.309463 0.219675
vt 0.328611 0.224834
vt 0.331866 0.226749
vt 0.221289 0.286724
vt 0.226972 0.286332
vt 0.234770 0.287852
vt 0.304102 0.214202
vt 0.299925 0.211153
vt 0.259937 0.321075
vt 0.255898 0.333649
vt 0.274118 0.173050
vt 0.275221 0.170766
vt 0.251737 0.343123
vt 0.257661 0.336242
vt 0.254568 0.345116
vt 0.247953 0.339827
vt 0.245034 0.346032
vt 0.249431 0.348986
vt 0.247644 0.354207
vt 0.242911 0.350837
vt 0.245897 0.357901
vt 0.249170 0.360139
vt 0.250786 0.356644
vt 0.252472 0.350990
vt 0.243928 0.361673
vt 0.247283 0.363946
vt 0.252215 0.360377
vt 0.251087 0.364342
vt 0.253086 0.357600
vt 0.256687 0.358923
vt 0.254749 0.353501
vt 0.255448 0.363149
vt 0.245097 0.368210
vt 0.247927 0.369375
vt 0.251888 0.369506
vt 0.244010 0.377135
vt 0.248843 0.379030
vt 0.258499 0.365942
vt 0.257088 0.367545
vt 0.253421 0.378749
vt 0.239597 0.189416
vt 0.247954 0.178743
vt 0.256312 0.181066
vt 0.247758 0.191036
vt 0.251434 0.176153
vt 0.259286 0.178792
vt 0.266897 0.185302
vt 0.258398 0.193626
vt 0.270150 0.182645
vt 0.264055 0.175934
vt 0.274228 0.180921
vt 0.255829 0.173108
vt 0.258500 0.170129
vt 0.267401 0.174488
vt 0.257177 0.346983
vt 0.260372 0.338411
vt 0.251360 0.170199
vt 0.254288 0.168172
vt 0.279233 0.188042
vt 0.285964 0.191424
vt 0.276218 0.189944
vt 0.283546 0.194747
vt 0.290270 0.194614
vt 0.270043 0.197515
vt 0.268781 0.198503
vt 0.257499 0.195044
vt 0.253244 0.202117
vt 0.246671 0.192199
vt 0.242808 0.199778
vt 0.234434 0.197370
vt 0.238806 0.191077
vt 0.228332 0.198143
vt 0.233279 0.191456
vt 0.223142 0.197744
vt 0.227677 0.188966
vt 0.248278 0.171243
vt 0.214338 0.333622
vt 0.224912 0.310217
vt 0.288451 0.272166
vt 0.280274 0.275844
s 1
usemtl abyss_chancel_background_pbr
f 2/1/1 40/2/2 4/3/3 1/4/4
f 1/4/4 3/5/5 517/6/6 2/1/1
f 3/5/5 1/4/4 5/7/7 6/8/8
f 5/7/7 1/4/4 4/3/3 8/9/9
f 5/7/7 7/10/10 512/11/11 6/8/8
f 7/10/10 5/7/7 8/9/9 10/12/12
f 12/13/13 10/12/12 8/9/9 9/14/14
f 9/14/14 8/9/9 4/3/3 37/15/15
f 7/10/10 10/12/12 11/16/16 75/17/17
f 12/13/13 13/18/18 11/16/16 10/12/12
f 13/18/18 12/13/13 14/19/19 17/20/20
f 12/13/13 9/14/14 16/21/21 14/19/19
f 16/21/21 27/22/22 15/23/23 14/19/19
f 14/19/19 15/23/23 19/24/24 17/20/20
f 17/20/20 18/25/25 109/26/26 13/18/18
f 17/20/20 19/24/24 20/27/27 18/25/25
f 21/28/28 22/29/29 20/27/27 19/24/24
f 24/30/30 21/28/28 19/24/24 15/23/23
f 22/29/29 21/28/28 23/31/31 120/32/32
f 24/30/30 25/33/33 23/31/31 21/28/28
f 26/34/34 28/35/35 25/33/33 24/30/30
f 26/34/34 24/30/30 15/23/23 27/22/22
f 27/22/22 33/36/36 29/37/37 26/34/34
f 28/35/35 26/34/34 29/37/37 32/38/38
f 32/38/38 29/37/37 30/39/39 139/40/40
f 31/41/41 138/42/42 30/39/39 29/37/37
f 34/43/43 31/41/41 29/37/37 33/36/36
f 34/43/43 33/36/36 35/44/44 36/45/45
f 33/36/36 27/22/22 16/21/21 35/44/44
f 38/46/46 36/45/45 35/44/44 37/15/15
f 37/15/15 35/44/44 16/21/21 9/14/14
f 4/3/3 40/2/2 38/46/46 37/15/15
f 41/47/47 39/48/48 38/46/46 40/2/2
f 39/48/48 279/49/49 36/45/45 38/46/46
f 42/50/50 41/47/47 40/2/2 2/1/1
f 41/47/47 42/50/50 46/51/51 43/52/52
f 41/47/47 43/52/52 44/53/53 39/48/48
f 45/54/54 270/55/55 44/53/53 43/52/52
f 45/54/54 43/52/52 46/51/51 48/56/56
f 42/50/50 515/57/57 47/58/58 46/51/51
f 48/56/56 46/51/51 47/58/58 49/59/59
f 51/60/60 50/61/61 48/56/56 49/59/59
f 52/62/62 45/54/54 48/56/56 50/61/61
f 51/60/60 56/63/63 53/64/64 50/61/61
f 53/64/64 55/65/65 52/62/62 50/61/61
f 57/66/66 54/67/67 53/64/64 56/63/63
f 54/67/67 259/68/68 55/65/65 53/64/64
f 51/60/60 61/69/69 58/70/70 56/63/63
f 58/71/70 59/72/71 57/73/66 56/74/63
f 253/75/72 59/72/71 58/71/70 60/76/73
f 63/77/74 60/76/73 58/71/70 61/78/69
f 49/59/59 62/79/75 61/69/69 51/60/60
f 62/79/75 64/80/76 63/81/74 61/69/69
f 68/82/77 65/83/78 63/81/74 64/80/76
f 67/84/79 60/85/73 63/81/74 65/83/78
f 68/82/77 69/86/80 66/87/81 65/83/78
f 66/88/81 290/89/82 67/90/79 65/91/78
f 68/82/77 70/92/83 73/93/84 69/86/80
f 64/80/76 71/94/85 70/92/83 68/82/77
f 513/95/86 72/96/87 70/92/83 71/94/85
f 72/96/87 75/17/17 73/93/84 70/92/83
f 75/17/17 11/16/16 74/97/88 73/93/84
f 69/86/80 73/93/84 74/97/88 77/98/89
f 75/17/17 72/96/87 512/11/11 7/10/10
f 11/99/16 91/100/90 76/101/91 74/102/88
f 77/103/89 74/102/88 76/101/91 78/104/92
f 77/103/89 78/104/92 81/105/93 79/106/94
f 77/98/89 79/107/94 66/87/81 69/86/80
f 80/108/95 290/89/82 66/88/81 79/106/94
f 81/105/93 82/109/96 80/108/95 79/106/94
f 85/110/97 82/109/96 81/105/93 83/111/98
f 86/112/99 83/111/98 81/105/93 78/104/92
f 87/113/100 84/114/101 83/111/98 86/112/99
f 84/114/101 235/115/102 85/110/97 83/111/98
f 86/112/99 88/116/103 89/117/104 87/113/100
f 78/104/92 76/101/91 88/116/103 86/112/99
f 91/100/90 90/118/105 88/116/103 76/101/91
f 90/118/105 93/119/106 89/117/104 88/116/103
f 91/120/90 112/121/107 92/122/108 90/123/105
f 93/119/106 90/118/105 92/124/108 94/125/109
f 93/126/106 94/127/109 98/128/110 95/129/111
f 93/119/106 95/130/111 96/131/112 89/117/104
f 97/132/113 227/133/114 96/131/112 95/130/111
f 98/128/110 100/134/115 97/135/113 95/129/111
f 111/136/116 99/137/117 98/128/110 94/127/109
f 102/138/118 100/134/115 98/128/110 99/137/117
f 101/139/119 223/140/120 97/132/113 100/141/115
f 100/134/115 102/138/118 103/142/121 101/143/119
f 99/137/117 107/144/122 104/145/123 102/138/118
f 104/145/123 105/146/124 103/142/121 102/138/118
f 426/147/125 105/146/124 104/145/123 106/148/126
f 108/149/127 106/148/126 104/145/123 107/144/122
f 108/149/127 107/144/122 109/26/26 18/25/25
f 99/137/117 111/136/116 109/26/26 107/144/122
f 111/136/116 112/121/107 110/150/128 109/26/26
f 109/26/26 110/150/128 11/16/16 13/18/18
f 111/136/116 94/127/109 92/122/108 112/121/107
f 112/121/107 91/120/90 11/16/16 110/150/128
f 108/149/127 18/25/25 20/27/27 113/151/129
f 108/149/127 113/151/129 114/152/130 106/148/126
f 115/153/131 116/154/132 114/152/130 113/151/129
f 20/27/27 22/29/29 115/153/131 113/151/129
f 120/32/32 117/155/133 115/153/131 22/29/29
f 119/156/134 116/154/132 115/153/131 117/155/133
f 503/157/135 119/156/134 117/155/133 118/158/136
f 121/159/137 118/158/136 117/155/133 120/32/32
f 121/159/137 120/32/32 23/31/31 25/33/33
f 122/160/138 121/159/137 25/33/33 123/161/139
f 122/160/138 124/162/140 118/158/136 121/159/137
f 122/160/138 123/161/139 128/163/141 125/164/142
f 125/164/142 126/165/143 124/162/140 122/160/138
f 126/165/143 125/164/142 127/166/144 391/167/145
f 125/164/142 128/163/141 129/168/146 127/166/144
f 132/169/147 130/170/148 128/163/141 123/161/139
f 130/170/148 133/171/149 129/168/146 128/163/141
f 131/172/150 135/173/151 133/171/149 130/170/148
f 130/170/148 132/169/147 511/174/152 131/172/150
f 136/175/153 134/176/154 133/171/149 135/173/151
f 134/176/154 384/177/155 129/168/146 133/171/149
f 137/178/156 140/179/157 136/175/153 135/173/151
f 139/40/40 137/178/156 135/173/151 131/172/150
f 138/42/42 142/180/158 140/179/157 137/178/156
f 137/178/156 139/40/40 30/39/39 138/42/42
f 141/181/159 380/182/160 136/175/153 140/179/157
f 140/179/157 142/180/158 144/183/161 141/181/159
f 138/42/42 31/41/41 143/184/162 142/180/158
f 143/184/162 145/185/163 144/183/161 142/180/158
f 148/186/164 147/187/165 144/183/161 145/185/163
f 378/188/166 141/181/159 144/183/161 146/189/167
f 149/190/168 146/189/167 144/183/161 147/187/165
f 150/191/169 149/190/168 147/187/165 148/186/164
f 150/191/169 152/192/170 151/193/171 149/190/168
f 146/189/167 149/190/168 151/193/171 153/194/172
f 155/195/173 154/196/174 151/193/171 152/192/170
f 156/197/175 153/194/172 151/193/171 154/196/174
f 159/198/176 157/199/177 154/196/174 155/195/173
f 158/200/178 156/197/175 154/196/174 157/199/177
f 158/200/178 157/199/177 160/201/179 162/202/180
f 157/199/177 159/198/176 163/203/181 160/201/179
f 357/204/182 162/202/180 160/201/179 161/205/183
f 161/205/183 160/201/179 163/203/181 165/206/184
f 166/207/185 165/208/184 163/209/181 164/210/186
f 163/203/181 159/198/176 267/211/187 164/212/186
f 170/213/188 167/214/189 165/208/184 166/207/185
f 167/214/189 169/215/190 161/216/183 165/208/184
f 168/217/191 167/214/189 170/213/188 172/218/192
f 167/214/189 168/217/191 352/219/193 169/215/190
f 263/220/194 171/221/195 170/213/188 166/207/185
f 173/222/196 172/218/192 170/213/188 171/221/195
f 177/223/197 174/224/198 172/218/192 173/222/196
f 172/218/192 174/224/198 176/225/199 168/217/191
f 177/223/197 178/226/200 175/227/201 174/224/198
f 175/227/201 348/228/202 176/225/199 174/224/198
f 173/222/196 180/229/203 179/230/204 177/223/197
f 178/226/200 177/223/197 179/230/204 181/231/205
f 179/230/204 180/229/203 183/232/206 181/231/205
f 178/226/200 181/231/205 182/233/207 346/234/208
f 183/232/206 186/235/209 182/233/207 181/231/205
f 186/235/209 183/232/206 184/236/210 188/237/211
f 258/238/212 184/236/210 183/232/206 185/239/213
f 262/240/214 185/239/213 183/232/206 180/229/203
f 188/237/211 190/241/215 187/242/216 186/235/209
f 187/242/216 341/243/217 182/233/207 186/235/209
f 189/244/218 188/237/211 184/236/210 283/245/219
f 189/244/218 192/246/220 190/241/215 188/237/211
f 187/242/216 190/241/215 191/247/221 340/248/222
f 192/246/220 194/249/223 191/247/221 190/241/215
f 193/250/224 195/251/225 194/249/223 192/246/220
f 192/246/220 189/244/218 234/252/226 193/250/224
f 194/249/223 195/251/225 200/253/227 196/254/228
f 191/247/221 194/249/223 196/254/228 197/255/229
f 327/256/230 197/255/229 196/254/228 198/257/231
f 505/258/232 198/257/231 196/254/228 199/259/233
f 199/259/233 196/254/228 200/253/227 201/260/234
f 203/261/235 201/260/234 200/253/227 202/262/236
f 204/263/237 202/262/236 200/253/227 195/251/225
f 202/262/236 205/264/238 208/265/239 203/261/235
f 202/262/236 204/263/237 207/266/240 205/264/238
f 205/264/238 207/266/240 226/267/241 206/268/242
f 206/268/242 210/269/243 208/265/239 205/264/238
f 208/265/239 209/270/244 507/271/245 203/261/235
f 212/272/246 209/270/244 208/265/239 210/269/243
f 224/273/247 211/274/248 210/269/243 206/268/242
f 214/275/249 212/272/246 210/269/243 211/274/248
f 212/272/246 213/276/250 509/277/251 209/270/244
f 213/276/250 212/272/246 214/275/249 215/278/252
f 219/279/253 216/280/254 214/275/249 211/274/248
f 218/281/255 215/278/252 214/275/249 216/280/254
f 219/279/253 220/282/256 217/283/257 216/280/254
f 218/281/255 216/280/254 217/283/257 291/284/258
f 219/279/253 221/285/259 222/286/260 220/282/256
f 221/285/259 219/279/253 211/274/248 224/273/247
f 223/140/120 101/139/119 222/286/260 221/285/259
f 223/140/120 221/285/259 224/273/247 225/287/261
f 226/267/241 225/287/261 224/273/247 206/268/242
f 227/133/114 225/287/261 226/267/241 228/288/262
f 225/287/261 227/133/114 97/132/113 223/140/120
f 227/133/114 228/288/262 230/289/263 96/131/112
f 229/290/264 228/288/262 226/267/241 207/266/240
f 230/289/263 228/288/262 229/290/264 231/291/265
f 84/114/101 87/113/100 230/289/263 231/291/265
f 89/117/104 96/131/112 230/289/263 87/113/100
f 232/292/266 235/115/102 84/114/101 231/291/265
f 232/292/266 231/291/265 229/290/264 233/293/267
f 233/293/267 193/250/224 234/252/226 232/292/266
f 235/115/102 232/292/266 234/252/226 236/294/268
f 236/294/268 238/295/269 85/110/97 235/115/102
f 237/296/270 236/294/268 234/252/226 289/297/271
f 237/296/270 239/298/272 238/295/269 236/294/268
f 240/299/273 82/109/96 85/110/97 238/295/269
f 241/300/274 240/299/273 238/295/269 239/298/272
f 241/300/274 244/301/275 242/302/276 240/299/273
f 240/299/273 242/302/276 80/108/95 82/109/96
f 246/303/277 243/304/278 242/302/276 244/301/275
f 243/304/278 290/89/82 80/108/95 242/302/276
f 244/301/275 245/305/279 247/306/280 246/303/277
f 244/301/275 241/300/274 288/307/281 245/305/279
f 247/306/280 250/308/282 248/309/283 246/303/277
f 246/303/277 248/309/283 249/310/284 243/304/278
f 251/311/285 253/75/72 249/310/284 248/309/283
f 254/312/286 251/311/285 248/309/283 250/308/282
f 254/312/286 255/313/287 252/314/288 251/311/285
f 252/314/288 59/72/71 253/75/72 251/311/285
f 254/312/286 250/308/282 256/315/289 255/313/287
f 256/315/289 54/316/67 57/73/66 255/313/287
f 252/314/288 255/313/287 57/73/66 59/72/71
f 247/306/280 258/238/212 256/315/289 250/308/282
f 259/317/68 54/316/67 256/315/289 257/318/290
f 185/239/213 257/318/290 256/315/289 258/238/212
f 184/236/210 258/238/212 247/306/280 280/319/291
f 259/317/68 257/318/290 260/320/292 261/321/293
f 185/239/213 262/240/214 260/320/292 257/318/290
f 261/321/293 260/320/292 263/220/194 264/322/294
f 262/240/214 171/221/195 263/220/194 260/320/292
f 164/210/186 264/322/294 263/220/194 166/207/185
f 164/212/186 267/211/187 265/323/295 264/324/294
f 261/325/293 264/324/294 265/323/295 268/326/296
f 274/327/297 266/328/298 265/323/295 267/211/187
f 265/323/295 266/328/298 269/329/299 268/326/296
f 55/65/65 259/68/68 261/325/293 268/326/296
f 268/326/296 269/329/299 52/62/62 55/65/65
f 271/330/300 270/55/55 269/329/299 266/328/298
f 270/55/55 45/54/54 52/62/62 269/329/299
f 271/330/300 272/331/301 44/53/53 270/55/55
f 266/328/298 274/327/297 272/331/301 271/330/300
f 273/332/302 275/333/303 44/53/53 272/331/301
f 150/191/169 273/332/302 272/331/301 152/192/170
f 155/195/173 152/192/170 272/331/301 274/327/297
f 155/195/173 274/327/297 267/211/187 159/198/176
f 275/333/303 273/332/302 276/334/304 277/335/305
f 150/191/169 148/186/164 276/334/304 273/332/302
f 145/185/163 277/335/305 276/334/304 148/186/164
f 275/333/303 277/335/305 278/336/306 279/49/49
f 145/185/163 143/184/162 278/336/306 277/335/305
f 278/336/306 34/43/43 36/45/45 279/49/49
f 31/41/41 34/43/43 278/336/306 143/184/162
f 279/49/49 39/48/48 44/53/53 275/333/303
f 180/229/203 173/222/196 171/221/195 262/240/214
f 253/75/72 60/76/73 67/90/79 249/310/284
f 243/304/278 249/310/284 67/90/79 290/89/82
f 281/337/307 280/319/291 247/306/280 245/305/279
f 281/337/307 285/338/308 282/339/309 280/319/291
f 282/339/309 283/245/219 184/236/210 280/319/291
f 282/339/309 284/340/310 289/297/271 283/245/219
f 284/340/310 282/339/309 285/338/308 286/341/311
f 281/337/307 287/342/312 286/341/311 285/338/308
f 284/340/310 286/341/311 237/296/270 289/297/271
f 287/342/312 239/298/272 237/296/270 286/341/311
f 281/337/307 245/305/279 288/307/281 287/342/312
f 239/298/272 287/342/312 288/307/281 241/300/274
f 283/245/219 289/297/271 234/252/226 189/244/218
f 193/250/224 233/293/267 204/263/237 195/251/225
f 204/263/237 233/293/267 229/290/264 207/266/240
f 103/142/121 220/343/256 222/344/260 101/143/119
f 217/345/257 220/343/256 103/142/121 428/346/313
f 291/284/258 294/347/314 292/348/315 218/281/255
f 292/348/315 293/349/316 215/278/252 218/281/255
f 297/350/317 293/349/316 292/348/315 295/351/318
f 296/352/319 295/351/318 292/348/315 294/347/314
f 300/353/320 298/354/321 295/351/318 296/352/319
f 299/355/322 297/350/317 295/351/318 298/354/321
f 304/356/323 299/355/322 298/354/321 301/357/324
f 303/358/325 301/357/324 298/354/321 300/353/320
f 302/359/326 301/357/324 303/358/325 420/360/327
f 301/357/324 302/359/326 306/361/328 304/356/323
f 304/356/323 305/362/329 510/363/330 299/355/322
f 306/361/328 309/364/331 305/362/329 304/356/323
f 417/365/332 307/366/333 306/361/328 302/359/326
f 306/361/328 307/366/333 438/367/334 308/368/335
f 311/369/336 309/364/331 306/361/328 308/368/335
f 311/369/336 312/370/337 310/371/338 309/364/331
f 309/364/331 310/371/338 510/363/330 305/362/329
f 312/370/337 311/369/336 313/372/339 316/373/340
f 311/369/336 308/368/335 315/374/341 313/372/339
f 317/375/342 316/373/340 313/372/339 314/376/343
f 314/376/343 313/372/339 315/374/341 443/377/344
f 320/378/345 312/370/337 316/373/340 318/379/346
f 321/380/347 318/379/346 316/373/340 317/375/342
f 322/381/348 319/382/349 318/379/346 321/380/347
f 509/277/251 320/378/345 318/379/346 319/382/349
f 321/380/347 323/383/350 324/384/351 322/381/348
f 321/380/347 317/375/342 325/385/352 323/383/350
f 198/257/231 323/383/350 325/385/352 327/256/230
f 198/257/231 505/258/232 324/384/351 323/383/350
f 314/376/343 326/386/353 325/385/352 317/375/342
f 328/387/354 327/256/230 325/385/352 326/386/353
f 197/255/229 327/256/230 328/387/354 330/388/355
f 328/387/354 326/386/353 444/389/356 329/390/357
f 330/388/355 328/387/354 329/390/357 332/391/358
f 331/392/359 330/388/355 332/391/358 334/393/360
f 330/388/355 331/392/359 191/247/221 197/255/229
f 335/394/361 334/393/360 332/391/358 333/395/362
f 333/395/362 332/391/358 329/390/357 445/396/363
f 338/397/364 336/398/365 334/393/360 335/394/361
f 339/399/366 331/392/359 334/393/360 336/398/365
f 341/243/217 339/399/366 336/398/365 337/400/367
f 343/401/368 337/400/367 336/398/365 338/397/364
f 341/243/217 187/242/216 340/248/222 339/399/366
f 339/399/366 340/248/222 191/247/221 331/392/359
f 182/233/207 341/243/217 337/400/367 346/234/208
f 335/394/361 501/402/369 342/403/370 338/397/364
f 343/401/368 338/397/364 342/403/370 344/404/371
f 344/404/371 347/405/372 345/406/373 343/401/368
f 345/406/373 346/234/208 337/400/367 343/401/368
f 348/228/202 175/227/201 345/406/373 347/405/372
f 175/227/201 178/226/200 346/234/208 345/406/373
f 347/405/372 349/407/374 352/219/193 348/228/202
f 347/405/372 344/404/371 351/408/375 349/407/374
f 349/407/374 351/408/375 502/409/376 350/410/377
f 350/410/377 353/411/378 352/219/193 349/407/374
f 352/219/193 168/217/191 176/225/199 348/228/202
f 355/412/379 169/215/190 352/219/193 353/411/378
f 353/411/378 350/410/377 499/413/380 354/414/381
f 355/412/379 353/411/378 354/414/381 356/415/382
f 355/412/379 356/415/382 358/416/383 357/417/182
f 355/412/379 357/417/182 161/216/183 169/215/190
f 162/202/180 357/204/182 358/418/383 359/419/384
f 361/420/385 359/419/384 358/418/383 360/421/386
f 363/422/387 360/421/386 358/418/383 356/423/382
f 361/420/385 360/421/386 362/424/388 373/425/389
f 363/422/387 365/426/390 362/424/388 360/421/386
f 363/422/387 356/423/382 354/427/381 364/428/391
f 365/426/390 363/422/387 364/428/391 366/429/392
f 366/429/392 369/430/393 367/431/394 365/426/390
f 362/424/388 365/426/390 367/431/394 370/432/395
f 371/433/396 370/432/395 367/431/394 368/434/397
f 367/431/394 369/430/393 495/435/398 368/434/397
f 370/432/395 371/433/396 375/436/399 372/437/400
f 372/437/400 373/425/389 362/424/388 370/432/395
f 374/438/401 504/439/402 373/425/389 372/437/400
f 375/436/399 376/440/403 374/438/401 372/437/400
f 378/188/166 376/440/403 375/436/399 377/441/404
f 379/442/405 377/441/404 375/436/399 371/433/396
f 378/188/166 377/441/404 380/182/160 141/181/159
f 380/182/160 377/441/404 379/442/405 381/443/406
f 381/443/406 134/176/154 136/175/153 380/182/160
f 134/176/154 381/443/406 382/444/407 384/177/155
f 382/444/407 381/443/406 379/442/405 383/445/408
f 387/446/409 385/447/410 382/444/407 383/445/408
f 388/448/411 384/177/155 382/444/407 385/447/410
f 386/449/412 389/450/413 388/448/411 385/447/410
f 385/447/410 387/446/409 489/451/414 386/449/412
f 391/167/145 127/166/144 388/448/411 389/450/413
f 129/168/146 384/177/155 388/448/411 127/166/144
f 389/450/413 386/449/412 486/452/415 390/453/416
f 392/454/417 391/167/145 389/450/413 390/453/416
f 391/167/145 392/454/417 394/455/418 126/165/143
f 390/453/416 485/456/419 393/457/420 392/454/417
f 393/457/420 396/458/421 394/455/418 392/454/417
f 394/455/418 395/459/422 124/162/140 126/165/143
f 398/460/423 395/459/422 394/455/418 396/458/421
f 500/461/424 397/462/425 396/458/421 393/457/420
f 400/463/426 398/460/423 396/458/421 397/462/425
f 400/463/426 401/464/427 399/465/428 398/460/423
f 395/459/422 398/460/423 399/465/428 503/157/135
f 401/464/427 400/463/426 402/466/429 403/467/430
f 397/462/425 404/468/431 402/466/429 400/463/426
f 406/469/432 403/467/430 402/466/429 404/468/431
f 397/462/425 500/461/424 405/470/433 404/468/431
f 406/469/432 404/468/431 405/470/433 407/471/434
f 406/469/432 407/471/434 409/472/435 408/473/436
f 403/467/430 406/469/432 408/473/436 411/474/437
f 410/475/438 408/473/436 409/472/435 479/476/439
f 413/477/440 411/474/437 408/473/436 410/475/438
f 411/474/437 413/477/440 415/478/441 412/479/442
f 411/474/437 412/479/442 401/464/427 403/467/430
f 413/477/440 414/480/443 416/481/444 415/478/441
f 413/477/440 410/475/438 475/482/445 414/480/443
f 418/483/446 412/479/442 415/478/441 417/484/332
f 417/484/332 415/478/441 416/481/444 307/485/333
f 417/365/332 302/359/326 420/360/327 418/486/446
f 418/483/446 419/487/447 401/464/427 412/479/442
f 419/487/447 418/483/446 420/488/327 421/489/448
f 421/489/448 420/488/327 303/490/325 423/491/449
f 433/492/450 419/487/447 421/489/448 422/493/451
f 425/494/452 422/493/451 421/489/448 423/491/449
f 424/495/453 423/491/449 303/490/325 300/496/320
f 424/495/453 427/497/454 425/494/452 423/491/449
f 105/146/124 426/147/125 425/494/452 427/497/454
f 426/147/125 431/498/455 422/493/451 425/494/452
f 428/346/313 427/497/454 424/495/453 429/499/456
f 427/497/454 428/346/313 103/142/121 105/146/124
f 429/499/456 430/500/457 217/345/257 428/346/313
f 430/501/457 429/502/456 296/352/319 294/347/314
f 296/352/319 429/502/456 424/503/453 300/353/320
f 294/347/314 291/284/258 217/283/257 430/501/457
f 106/148/126 114/152/130 431/498/455 426/147/125
f 116/154/132 432/504/458 431/498/455 114/152/130
f 432/504/458 433/492/450 422/493/451 431/498/455
f 433/492/450 432/504/458 434/505/459 399/465/428
f 116/154/132 119/156/134 434/505/459 432/504/458
f 503/157/135 399/465/428 434/505/459 119/156/134
f 419/487/447 433/492/450 399/465/428 401/464/427
f 416/506/444 435/507/460 438/367/334 307/366/333
f 416/481/444 414/480/443 436/508/461 435/509/460
f 437/510/462 435/507/460 436/511/461 477/512/463
f 438/367/334 435/507/460 437/510/462 439/513/464
f 315/374/341 308/368/335 438/367/334 439/513/464
f 440/514/465 439/513/464 437/510/462 441/515/466
f 440/514/465 443/377/344 315/374/341 439/513/464
f 440/514/465 441/515/466 446/516/467 442/517/468
f 442/517/468 444/389/356 443/377/344 440/514/465
f 326/386/353 314/376/343 443/377/344 444/389/356
f 445/396/363 329/390/357 444/389/356 442/517/468
f 445/396/363 442/517/468 446/516/467 448/518/469
f 450/519/470 448/518/469 446/516/467 447/520/471
f 478/521/472 447/520/471 446/516/467 441/515/466
f 449/522/473 333/395/362 445/396/363 448/518/469
f 449/522/473 448/518/469 450/519/470 451/523/474
f 450/519/470 452/524/475 455/525/476 451/523/474
f 450/519/470 447/520/471 453/526/477 452/524/475
f 454/527/478 452/524/475 453/526/477 476/528/479
f 455/525/476 452/524/475 454/527/478 456/529/480
f 459/530/481 451/523/474 455/525/476 457/531/482
f 460/532/483 457/531/482 455/525/476 456/529/480
f 502/409/376 459/530/481 457/531/482 458/533/484
f 461/534/485 458/533/484 457/531/482 460/532/483
f 456/529/480 464/535/486 462/536/487 460/532/483
f 461/534/485 460/532/483 462/536/487 463/537/488
f 463/538/488 462/539/487 465/540/489 466/541/490
f 464/542/486 468/543/491 465/540/489 462/539/487
f 465/540/489 467/544/492 493/545/493 466/541/490
f 469/546/494 467/544/492 465/540/489 468/543/491
f 470/547/495 472/548/496 469/546/494 468/543/491
f 464/542/486 471/549/497 470/547/495 468/543/491
f 474/550/498 473/551/499 470/547/495 471/549/497
f 475/482/445 472/548/496 470/547/495 473/551/499
f 474/552/498 477/512/463 436/511/461 473/553/499
f 436/508/461 414/480/443 475/482/445 473/551/499
f 479/476/439 472/548/496 475/482/445 410/475/438
f 476/528/479 478/521/472 477/512/463 474/552/498
f 474/550/498 471/549/497 454/554/478 476/555/479
f 478/521/472 441/515/466 437/510/462 477/512/463
f 478/521/472 476/528/479 453/526/477 447/520/471
f 479/476/439 480/556/500 469/546/494 472/548/496
f 479/476/439 409/472/435 482/557/501 480/556/500
f 481/558/502 467/544/492 469/546/494 480/556/500
f 481/558/502 480/556/500 482/557/501 484/559/503
f 407/471/434 483/560/504 482/557/501 409/472/435
f 482/557/501 483/560/504 485/456/419 484/559/503
f 487/561/505 481/558/502 484/559/503 486/452/415
f 486/452/415 484/559/503 485/456/419 390/453/416
f 486/452/415 488/562/506 487/561/505
f 489/451/414 488/562/506 486/452/415 386/449/412
f 488/562/506 490/563/507 493/545/493 487/561/505
f 490/563/507 488/562/506 489/451/414 492/564/508
f 493/545/493 490/563/507 491/565/509 466/541/490
f 492/564/508 494/566/510 491/565/509 490/563/507
f 481/558/502 487/561/505 493/545/493 467/544/492
f 494/566/510 492/564/508 495/435/398 369/430/393
f 495/435/398 492/564/508 489/451/414 387/446/409
f 383/445/408 368/434/397 495/435/398 387/446/409
f 491/565/509 494/566/510 496/567/511 497/568/512
f 369/430/393 366/429/392 496/567/511 494/566/510
f 496/567/511 366/429/392 364/428/391 498/569/513
f 497/568/512 496/567/511 461/570/485
f 496/567/511 498/569/513 461/570/485
f 498/569/513 499/571/380 458/572/484 461/570/485
f 364/428/391 354/427/381 499/571/380 498/569/513
f 350/410/377 502/409/376 458/533/484 499/413/380
f 463/538/488 497/568/512 461/570/485
f 463/538/488 466/541/490 491/565/509 497/568/512
f 483/560/504 500/461/424 393/457/420 485/456/419
f 483/560/504 407/471/434 405/470/433 500/461/424
f 464/542/486 456/573/480 454/554/478 471/549/497
f 451/523/474 459/530/481 501/402/369 449/522/473
f 502/409/376 351/408/375 501/402/369 459/530/481
f 333/395/362 449/522/473 501/402/369 335/394/361
f 351/408/375 344/404/371 342/403/370 501/402/369
f 395/459/422 503/157/135 118/158/136 124/162/140
f 368/434/397 383/445/408 379/442/405 371/433/396
f 146/189/167 153/194/172 376/440/403 378/188/166
f 153/194/172 156/197/175 374/438/401 376/440/403
f 156/197/175 158/200/178 504/439/402 374/438/401
f 162/202/180 359/419/384 504/439/402 158/200/178
f 359/419/384 361/420/385 373/425/389 504/439/402
f 506/574/514 322/381/348 324/384/351 505/258/232
f 199/259/233 201/260/234 506/574/514 505/258/232
f 322/381/348 506/574/514 507/271/245 319/382/349
f 201/260/234 203/261/235 507/271/245 506/574/514
f 507/271/245 209/270/244 509/277/251 319/382/349
f 508/575/515 320/378/345 509/277/251 213/276/250
f 320/378/345 508/575/515 310/371/338 312/370/337
f 508/575/515 213/276/250 215/278/252 293/349/316
f 293/349/316 297/350/317 310/371/338 508/575/515
f 297/350/317 299/355/322 510/363/330 310/371/338
f 139/40/40 131/172/150 511/174/152 32/38/38
f 132/169/147 123/161/139 25/33/33 28/35/35
f 28/35/35 32/38/38 511/174/152 132/169/147
f 513/95/86 6/8/8 512/11/11 72/96/87
f 3/5/5 6/8/8 513/95/86 514/576/516
f 514/576/516 513/95/86 71/94/85 516/577/517
f 514/576/516 515/57/57 517/6/6 3/5/5
f 515/57/57 514/576/516 516/577/517 47/58/58
f 62/79/75 516/577/517 71/94/85 64/80/76
f 49/59/59 47/58/58 516/577/517 62/79/75
f 42/50/50 2/1/1 517/6/6 515/57/57
