# Blender 5.2.0 LTS
# www.blender.org
mtllib terrain-abyss-chancel-object-065.mtl
o terrain-abyss-chancel-object-065
v -0.126782 0.132829 0.045175
v -0.124305 0.133578 0.036232
v -0.127935 0.123490 0.045170
v -0.125796 0.141584 0.044855
v -0.131835 0.130775 0.055745
v -0.130906 0.139986 0.058125
v -0.133163 0.121312 0.052708
v -0.136951 0.126802 0.071189
v -0.138272 0.118379 0.065742
v -0.146990 0.120185 0.082397
v -0.136394 0.136580 0.074293
v -0.141551 0.144184 0.074156
v -0.145303 0.131964 0.086539
v -0.145128 0.141625 0.087938
v -0.158792 0.130729 0.085305
v -0.158082 0.142951 0.085362
v -0.170591 0.130461 0.079493
v -0.157856 0.120044 0.080225
v -0.154159 0.112769 0.070439
v -0.169174 0.120485 0.075483
v -0.177706 0.121276 0.071140
v -0.165109 0.113442 0.065895
v -0.156747 0.114124 0.052617
v -0.176708 0.117034 0.062674
v -0.184913 0.125407 0.063073
v -0.169463 0.115649 0.048333
v -0.181138 0.120016 0.046907
v -0.158346 0.116008 0.034743
v -0.144276 0.115211 0.039534
v -0.171373 0.119789 0.031200
v -0.148279 0.120989 0.025891
v -0.129414 0.122690 0.031259
v -0.145378 0.131766 0.023078
v -0.163374 0.121615 0.021262
v -0.174252 0.126913 0.020808
v -0.160626 0.132640 0.018831
v -0.160477 0.144067 0.022608
v -0.174784 0.134387 0.019384
v -0.174094 0.142017 0.020913
v -0.182217 0.136430 0.031179
v -0.176432 0.146023 0.033117
v -0.179688 0.127658 0.030440
v -0.184074 0.140590 0.047040
v -0.176959 0.147387 0.049536
v -0.187510 0.146044 0.061264
v -0.184849 0.129687 0.046732
v -0.187260 0.136378 0.063384
v -0.182290 0.139425 0.075715
v -0.180843 0.129027 0.073469
v -0.170697 0.141101 0.080485
v -0.179543 0.147816 0.066219
v -0.167203 0.147155 0.069138
v -0.164187 0.147614 0.053350
v -0.154257 0.145958 0.071672
v -0.150388 0.147215 0.056143
v -0.147739 0.148382 0.040243
v -0.137929 0.145483 0.058026
v -0.135108 0.146869 0.042998
v -0.133122 0.143125 0.029833
v -0.125102 0.141566 0.032988
v -0.145713 0.143975 0.026417
v -0.131170 0.132321 0.028024
v -0.161898 0.148671 0.036989
v -0.129378 0.118178 0.039844
v -0.121277 0.124692 0.035357
v -0.123270 0.124091 0.042124
v -0.123916 0.119352 0.039424
v -0.137774 0.115477 0.047042
v -0.144624 0.113829 0.058989
v -0.146450 0.113090 0.074700
vn 0.9221 -0.0350 0.3853
vn 0.9703 -0.0066 -0.2418
vn 0.7931 0.4607 -0.3984
vn 0.8524 0.4851 0.1951
vn 0.7474 -0.3902 0.5378
vn 0.8989 -0.0027 0.4381
vn 0.9204 -0.1878 0.3430
vn 0.7913 -0.5259 0.3119
vn 0.8727 0.3569 0.3332
vn 0.8744 -0.2786 0.3973
vn 0.8959 0.1297 0.4249
vn 0.7403 -0.6256 0.2461
vn 0.3296 -0.5478 0.7689
vn 0.3531 -0.8386 0.4148
vn 0.4323 -0.1485 0.8894
vn 0.3844 0.9025 0.1941
vn 0.4976 0.8102 0.3098
vn 0.3631 0.5177 0.7747
vn -0.2652 -0.2227 0.9381
vn -0.1798 0.6023 0.7778
vn -0.2452 -0.6171 0.7477
vn -0.3446 0.4833 0.8048
vn -0.4124 -0.2525 0.8753
vn -0.3678 -0.6433 0.6715
vn -0.0378 -0.9649 0.2599
vn -0.2046 -0.9598 0.1922
vn -0.6774 -0.3361 0.6543
vn -0.5480 -0.6340 0.5457
vn -0.4691 -0.8672 0.1668
vn -0.0469 -0.9955 -0.0828
vn -0.2606 -0.9591 -0.1104
vn 0.2706 -0.9627 0.0040
vn -0.8593 -0.4824 0.1699
vn -0.6885 -0.7065 -0.1639
vn -0.0528 -0.9619 -0.2683
vn -0.4148 -0.8480 -0.3300
vn 0.1017 -0.9598 -0.2616
vn 0.1987 -0.6660 -0.7190
vn 0.5398 -0.5151 -0.6658
vn -0.0654 -0.6560 -0.7519
vn 0.2891 -0.0225 -0.9570
vn 0.5165 -0.0537 -0.8546
vn 0.1358 0.0076 -0.9907
vn -0.5098 -0.4556 -0.7298
vn -0.4974 0.0773 -0.8641
vn -0.8317 -0.4051 -0.3797
vn 0.0827 0.6986 -0.7107
vn 0.2225 0.6943 -0.6844
vn -0.3848 0.6119 -0.6910
vn -0.9238 0.1875 -0.3338
vn -0.4868 0.8354 -0.2553
vn -0.8923 0.3951 -0.2185
vn -0.3026 0.9466 -0.1115
vn -0.9530 -0.2352 -0.1910
vn -0.8175 0.5759 0.0050
vn -0.3859 0.8883 0.2489
vn -0.9832 -0.0048 0.1827
vn -0.6405 0.2682 0.7196
vn -0.0649 0.9709 0.2304
vn -0.0042 0.9995 0.0313
vn 0.0331 0.9840 0.1749
vn 0.0722 0.9936 0.0866
vn -0.0230 0.9898 -0.1403
vn 0.0903 0.9911 -0.0974
vn 0.2986 0.9543 -0.0060
vn 0.4128 0.6529 -0.6351
vn 0.3628 -0.9318 0.0097
vn 0.4089 -0.9124 -0.0172
vn 0.6914 -0.7110 0.1282
vn 0.8486 0.2106 -0.4853
vt 0.947222 0.795169
vt 0.948850 0.799941
vt 0.946636 0.802362
vt 0.943817 0.797788
vt 0.952262 0.793542
vt 0.950820 0.796227
vt 0.948726 0.789318
vt 0.954542 0.789400
vt 0.942965 0.791622
vt 0.949299 0.781290
vt 0.942793 0.785310
vt 0.955239 0.783512
vt 0.953622 0.775463
vt 0.958807 0.778879
vt 0.978545 0.339352
vt 0.971066 0.342428
vt 0.965860 0.338967
vt 0.973145 0.336182
vt 0.937970 0.792731
vt 0.938643 0.786983
vt 0.982508 0.345572
vt 0.976226 0.344684
vt 0.968205 0.346908
vt 0.973535 0.349644
vt 0.961974 0.344837
vt 0.969807 0.354156
vt 0.963993 0.351868
vt 0.958829 0.350888
vt 0.953337 0.345807
vt 0.957070 0.341649
vt 0.952481 0.352792
vt 0.961555 0.357055
vt 0.957632 0.355614
vt 0.953417 0.359556
vt 0.946570 0.356784
vt 0.949009 0.364810
vt 0.946916 0.348473
vt 0.958304 0.361958
vt 0.954458 0.369802
vt 0.945456 0.372974
vt 0.951674 0.377962
vt 0.963263 0.797128
vt 0.968580 0.790149
vt 0.974330 0.795443
vt 0.969555 0.802634
vt 0.962580 0.807181
vt 0.956198 0.801216
vt 0.972957 0.809357
vt 0.966985 0.814139
vt 0.956165 0.810147
vt 0.952311 0.804234
vt 0.958759 0.816774
vt 0.965993 0.820240
vt 0.960762 0.822491
vt 0.957632 0.379268
vt 0.954205 0.383323
vt 0.948735 0.383007
vt 0.950868 0.819558
vt 0.948601 0.812289
vt 0.955508 0.824773
vt 0.962361 0.828336
vt 0.956496 0.830970
vt 0.967315 0.825316
vt 0.972190 0.379438
vt 0.964168 0.380522
vt 0.966706 0.372842
vt 0.973023 0.371257
vt 0.960246 0.372165
vt 0.967892 0.366148
vt 0.971423 0.362535
vt 0.963425 0.364246
vt 0.966224 0.358743
vt 0.976806 0.359165
vt 0.978942 0.367319
vt 0.979975 0.353573
vt 0.985016 0.361776
vt 0.988014 0.356208
vt 0.980909 0.375067
vt 0.986927 0.370031
vt 0.941245 0.803450
vt 0.937961 0.809722
vt 0.935053 0.801056
vt 0.947077 0.806478
vt 0.942805 0.817147
vt 0.983229 0.381147
vt 0.976191 0.384000
vt 0.959631 0.791988
vt 0.956046 0.794447
vt 0.954897 0.795810
vt 0.953784 0.797392
vt 0.962131 0.786218
vt 0.962927 0.779260
s 1
usemtl abyss_chancel_background_pbr
f 1/1/1 2/2/2 60/3/3 4/4/4
f 1/1/1 3/5/5 66/6/6 2/2/2
f 3/5/5 1/1/1 5/7/7 7/8/8
f 1/1/1 4/4/4 6/9/9 5/7/7
f 8/10/10 5/7/7 6/9/9 11/11/11
f 9/12/12 7/8/8 5/7/7 8/10/10
f 8/10/10 10/13/13 70/14/14 9/12/12
f 11/15/11 13/16/15 10/17/13 8/18/10
f 11/11/11 6/9/9 57/19/16 12/20/17
f 11/15/11 12/21/17 14/22/18 13/16/15
f 15/23/19 13/16/15 14/22/18 16/24/20
f 13/16/15 15/23/19 18/25/21 10/17/13
f 15/23/19 16/24/20 50/26/22 17/27/23
f 18/25/21 15/23/19 17/27/23 20/28/24
f 18/25/21 19/29/25 70/30/14 10/17/13
f 19/29/25 18/25/21 20/28/24 22/31/26
f 17/27/23 49/32/27 21/33/28 20/28/24
f 22/31/26 20/28/24 21/33/28 24/34/29
f 23/35/30 22/31/26 24/34/29 26/36/31
f 22/31/26 23/35/30 69/37/32 19/29/25
f 25/38/33 24/34/29 21/33/28 49/32/27
f 27/39/34 26/36/31 24/34/29 25/38/33
f 28/40/35 26/36/31 27/39/34 30/41/36
f 29/42/37 23/43/30 26/44/31 28/45/35
f 28/45/35 31/46/38 32/47/39 29/42/37
f 31/46/38 28/45/35 30/48/36 34/49/40
f 33/50/41 62/51/42 32/47/39 31/46/38
f 33/50/41 31/46/38 34/49/40 36/52/43
f 36/52/43 34/49/40 35/53/44 38/54/45
f 30/41/36 42/55/46 35/56/44 34/57/40
f 36/52/43 37/58/47 61/59/48 33/50/41
f 36/52/43 38/54/45 39/60/49 37/58/47
f 40/61/50 41/62/51 39/60/49 38/54/45
f 40/61/50 38/54/45 35/53/44 42/63/46
f 41/64/51 40/65/50 43/66/52 44/67/53
f 40/65/50 42/55/46 46/68/54 43/66/52
f 44/67/53 43/66/52 45/69/55 51/70/56
f 46/68/54 47/71/57 45/69/55 43/66/52
f 42/55/46 30/41/36 27/39/34 46/68/54
f 47/71/57 46/68/54 27/39/34 25/38/33
f 48/72/58 47/71/57 25/38/33 49/32/27
f 48/72/58 51/70/56 45/69/55 47/71/57
f 50/26/22 48/72/58 49/32/27 17/27/23
f 51/70/56 48/72/58 50/26/22 52/73/59
f 44/67/53 51/70/56 52/73/59 53/74/60
f 54/75/61 52/73/59 50/26/22 16/24/20
f 55/76/62 53/74/60 52/73/59 54/75/61
f 12/21/17 57/77/16 55/76/62 54/75/61
f 54/75/61 16/24/20 14/22/18 12/21/17
f 63/78/63 53/74/60 55/76/62 56/79/64
f 58/80/65 56/81/64 55/82/62 57/19/16
f 4/4/4 58/80/65 57/19/16 6/9/9
f 59/83/66 61/59/48 56/81/64 58/80/65
f 58/80/65 4/4/4 60/3/3 59/83/66
f 62/51/42 59/83/66 60/3/3 2/2/2
f 62/51/42 33/50/41 61/59/48 59/83/66
f 62/51/42 2/2/2 66/6/6 32/47/39
f 37/58/47 63/84/63 56/81/64 61/59/48
f 41/64/51 44/67/53 53/74/60 63/78/63
f 63/78/63 37/85/47 39/86/49 41/64/51
f 68/87/67 29/42/37 32/47/39 64/88/68
f 67/89/69 64/88/68 32/47/39 65/90/70
f 65/90/70 32/47/39 66/6/6 67/89/69
f 64/88/68 67/89/69 66/6/6 3/5/5
f 64/88/68 3/5/5 7/8/8 68/87/67
f 29/42/37 68/87/67 69/91/32 23/43/30
f 7/8/8 9/12/12 69/91/32 68/87/67
f 70/14/14 19/92/25 69/91/32 9/12/12
