# Blender 5.2.0 LTS
# www.blender.org
mtllib terrain-abyss-chancel-object-044.mtl
o terrain-abyss-chancel-object-044
v -0.532225 0.198128 -0.043452
v -0.531259 0.198765 -0.043907
v -0.532626 0.197722 -0.045138
v -0.531510 0.199040 -0.041899
v -0.533981 0.197829 -0.043676
v -0.533401 0.198405 -0.041921
v -0.535801 0.197791 -0.044021
v -0.534254 0.197522 -0.045523
v -0.534279 0.197577 -0.047142
v -0.536148 0.197840 -0.046069
v -0.536202 0.197955 -0.047777
v -0.538008 0.198390 -0.046462
v -0.538155 0.198632 -0.048456
v -0.537513 0.198194 -0.044479
v -0.538604 0.199887 -0.046770
v -0.538229 0.200059 -0.048702
v -0.538746 0.199161 -0.044779
v -0.537068 0.200395 -0.046937
v -0.535407 0.200109 -0.046781
v -0.536453 0.200193 -0.048566
v -0.537702 0.200339 -0.045168
v -0.537788 0.200309 -0.043401
v -0.536045 0.200364 -0.045249
v -0.534602 0.200174 -0.045135
v -0.536301 0.200540 -0.043547
v -0.534980 0.200371 -0.043613
v -0.536355 0.200386 -0.041709
v -0.534970 0.200131 -0.041917
v -0.536417 0.199302 -0.040885
v -0.537894 0.200263 -0.041832
v -0.537800 0.199349 -0.041290
v -0.538312 0.199174 -0.042850
v -0.536994 0.198414 -0.042407
v -0.535317 0.198248 -0.042142
v -0.534816 0.199354 -0.040818
v -0.533274 0.199586 -0.041849
v -0.531974 0.199332 -0.042848
v -0.533551 0.199893 -0.042741
v -0.533870 0.200223 -0.043673
v -0.532472 0.199618 -0.043762
v -0.531608 0.199305 -0.044751
v -0.533223 0.199927 -0.044612
v -0.532504 0.199586 -0.045641
v -0.533930 0.199893 -0.046434
v -0.531824 0.199166 -0.046711
v -0.533153 0.199504 -0.047506
v -0.531217 0.198523 -0.045783
v -0.532372 0.198015 -0.047825
v -0.532326 0.198528 -0.048758
v -0.532583 0.197691 -0.046651
v -0.534079 0.197773 -0.048791
v -0.534008 0.198826 -0.049377
v -0.535901 0.198369 -0.049563
v -0.535750 0.199253 -0.050021
v -0.537914 0.198758 -0.050375
v -0.537330 0.199781 -0.050310
v -0.534712 0.199863 -0.048171
v -0.531301 0.197884 -0.044865
vn 0.9739 0.0401 0.2232
vn 0.7084 0.5885 0.3897
vn 0.6006 -0.2567 0.7572
vn 0.4199 -0.8568 0.2992
vn 0.2394 -0.9686 0.0677
vn 0.7535 -0.6515 0.0888
vn 0.0558 -0.9745 0.2174
vn -0.0143 -0.9988 0.0476
vn 0.2272 -0.6855 0.6917
vn -0.0190 -0.8773 0.4796
vn -0.1427 -0.9791 0.1446
vn -0.2070 -0.9782 -0.0173
vn 0.4150 -0.8888 -0.1945
vn -0.0231 -0.9945 -0.1024
vn -0.2132 -0.9690 -0.1249
vn -0.6333 -0.7708 -0.0687
vn -0.7615 -0.6181 -0.1952
vn -0.4652 -0.8812 0.0839
vn -0.9116 0.4089 -0.0428
vn -0.7059 0.6614 -0.2534
vn -0.9952 -0.0684 0.0698
vn 0.1268 0.9670 -0.2210
vn -0.0998 0.9945 -0.0307
vn -0.3811 0.9243 0.0200
vn 0.2767 0.9167 -0.2884
vn 0.1644 0.9829 -0.0824
vn 0.0718 0.9952 -0.0667
vn -0.9279 -0.2823 0.2435
vn -0.5469 0.8354 0.0553
vn 0.0209 0.9998 0.0076
vn 0.1700 0.9852 0.0230
vn 0.1747 0.9785 -0.1100
vn 0.2323 0.9649 -0.1222
vn 0.1851 0.9064 0.3798
vn -0.0112 0.8855 0.4646
vn -0.5928 0.7129 0.3747
vn -0.1713 -0.1340 0.9761
vn 0.1951 0.0634 0.9787
vn -0.6515 -0.1397 0.7457
vn -0.3152 -0.8805 0.3541
vn 0.3362 0.6146 0.7136
vn 0.3024 0.9296 0.2106
vn 0.4333 0.8976 0.0808
vn 0.2984 0.9534 -0.0451
vn 0.2654 0.9633 0.0406
vn 0.7033 0.7108 -0.0147
vn 0.3957 0.9123 -0.1053
vn 0.9679 -0.0909 -0.2344
vn 0.8186 0.4798 -0.3158
vn 0.4333 0.8528 -0.2916
vn 0.7023 -0.5145 -0.4920
vn 0.6491 0.1152 -0.7519
vn 0.1125 -0.8619 -0.4944
vn 0.4150 0.1765 -0.8925
vn 0.0163 -0.7786 -0.6274
vn 0.3124 0.3240 -0.8930
vn -0.5481 -0.4793 -0.6855
vn -0.2302 0.4931 -0.8390
vt 0.059879 0.977280
vt 0.059528 0.976900
vt 0.059881 0.976599
vt 0.060644 0.976869
vt 0.061263 0.977319
vt 0.060527 0.977491
vt 0.061426 0.976412
vt 0.062170 0.976975
vt 0.060370 0.976114
vt 0.060787 0.975584
vt 0.062429 0.975896
vt 0.063042 0.977196
vt 0.061449 0.977920
vt 0.062295 0.977945
vt 0.063264 0.978279
vt 0.063921 0.977283
vt 0.064212 0.978624
vt 0.063183 0.976068
vt 0.182962 0.971987
vt 0.183058 0.973010
vt 0.182188 0.972652
vt 0.182330 0.971738
vt 0.182937 0.974048
vt 0.182156 0.973617
vt 0.181529 0.971464
vt 0.181389 0.972358
vt 0.181319 0.973272
vt 0.060946 0.979954
vt 0.061162 0.980729
vt 0.060015 0.980605
vt 0.059927 0.979889
vt 0.059025 0.979787
vt 0.059070 0.980443
vt 0.181948 0.974473
vt 0.181320 0.974167
vt 0.180440 0.974391
vt 0.180448 0.973600
vt 0.058396 0.978372
vt 0.059144 0.979047
vt 0.058347 0.979086
vt 0.059891 0.979134
vt 0.180436 0.975835
vt 0.180104 0.974863
vt 0.180891 0.975421
vt 0.181296 0.974869
vt 0.181639 0.975710
vt 0.181292 0.976291
vt 0.181632 0.975129
vt 0.182361 0.975190
vt 0.182609 0.976260
vt 0.183242 0.974979
vt 0.059206 0.976114
vt 0.060144 0.974982
vt 0.180198 0.976276
vt 0.180637 0.976754
vt 0.059212 0.977436
vt 0.058774 0.976983
vt 0.059273 0.978217
vt 0.058762 0.978009
vt 0.058258 0.977136
vt 0.059878 0.977727
vt 0.059849 0.978320
vt 0.060484 0.977934
vt 0.060517 0.978454
vt 0.060598 0.979202
vt 0.061411 0.978470
vt 0.061407 0.978941
vt 0.062238 0.978849
vt 0.061889 0.979570
vt 0.062859 0.979576
vt 0.062379 0.980264
vt 0.063750 0.980041
vt 0.063149 0.980615
vt 0.182545 0.970851
vt 0.183204 0.971058
vt 0.181662 0.970582
s 1
usemtl abyss_chancel_background_pbr
f 2/1/1 37/2/2 4/3/3 1/4/4
f 1/4/4 3/5/5 58/6/6 2/1/1
f 1/4/4 5/7/7 8/8/8 3/5/5
f 5/7/7 1/4/4 4/3/3 6/9/9
f 6/9/9 34/10/10 7/11/11 5/7/7
f 7/11/11 10/12/12 8/8/8 5/7/7
f 50/13/13 3/5/5 8/8/8 9/14/14
f 8/8/8 10/12/12 11/15/15 9/14/14
f 12/16/16 13/17/17 11/15/15 10/12/12
f 12/16/16 10/12/12 7/11/11 14/18/18
f 13/19/17 12/20/16 15/21/19 16/22/20
f 15/21/19 12/20/16 14/23/18 17/24/21
f 20/25/22 16/22/20 15/21/19 18/26/23
f 21/27/24 18/26/23 15/21/19 17/24/21
f 57/28/25 20/29/22 18/30/23 19/31/26
f 23/32/27 19/31/26 18/30/23 21/33/24
f 32/34/28 22/35/29 21/27/24 17/24/21
f 22/35/29 25/36/30 23/37/27 21/27/24
f 26/38/31 24/39/32 23/32/27 25/40/30
f 24/39/32 44/41/33 19/31/26 23/32/27
f 28/42/34 26/43/31 25/36/30 27/44/35
f 25/36/30 22/35/29 30/45/36 27/44/35
f 27/44/35 29/46/37 35/47/38 28/42/34
f 27/44/35 30/45/36 31/48/39 29/46/37
f 22/35/29 32/34/28 31/48/39 30/45/36
f 33/49/40 29/46/37 31/48/39 32/34/28
f 32/34/28 17/24/21 14/23/18 33/49/40
f 29/46/37 33/49/40 34/50/10 35/47/38
f 33/49/40 14/23/18 7/51/11 34/50/10
f 36/52/41 35/53/38 34/10/10 6/9/9
f 38/54/42 28/42/34 35/47/38 36/55/41
f 36/52/41 37/2/2 40/56/43 38/57/42
f 36/52/41 6/9/9 4/3/3 37/2/2
f 40/56/43 42/58/44 39/59/45 38/57/42
f 28/60/34 38/57/42 39/59/45 26/38/31
f 2/1/1 41/61/46 40/56/43 37/2/2
f 40/56/43 41/61/46 43/62/47 42/58/44
f 42/58/44 43/62/47 44/41/33 24/39/32
f 24/39/32 26/38/31 39/59/45 42/58/44
f 47/63/48 45/64/49 43/62/47 41/61/46
f 45/64/49 46/65/50 44/41/33 43/62/47
f 45/64/49 48/66/51 49/67/52 46/65/50
f 47/63/48 50/13/13 48/66/51 45/64/49
f 51/68/53 52/69/54 49/67/52 48/66/51
f 48/66/51 50/13/13 9/14/14 51/68/53
f 52/69/54 51/68/53 53/70/55 54/71/56
f 51/68/53 9/14/14 11/15/15 53/70/55
f 53/70/55 55/72/57 56/73/58 54/71/56
f 11/15/15 13/17/17 55/72/57 53/70/55
f 13/19/17 16/22/20 56/74/58 55/75/57
f 20/25/22 54/76/56 56/74/58 16/22/20
f 52/69/54 54/71/56 20/29/22 57/28/25
f 57/28/25 46/65/50 49/67/52 52/69/54
f 46/65/50 57/28/25 19/31/26 44/41/33
f 50/13/13 47/63/48 58/6/6 3/5/5
f 41/61/46 2/1/1 58/6/6 47/63/48
