# Blender 5.2.0 LTS
# www.blender.org
mtllib terrain-abyss-chancel-object-033.mtl
o terrain-abyss-chancel-object-033
v -0.660026 0.464319 -0.074243
v -0.665310 0.464476 -0.076014
v -0.660055 0.467017 -0.069626
v -0.660844 0.468758 -0.074295
v -0.660749 0.470508 -0.071692
v -0.665879 0.468583 -0.075785
v -0.666361 0.471043 -0.072064
v -0.669427 0.468106 -0.078257
v -0.669934 0.462164 -0.075542
v -0.668317 0.466624 -0.080288
v -0.673201 0.471157 -0.073183
v -0.676109 0.463294 -0.073467
v -0.672310 0.470297 -0.065329
v -0.682020 0.472179 -0.070661
v -0.680350 0.470682 -0.063895
v -0.684026 0.465872 -0.072858
v -0.691043 0.473043 -0.067421
v -0.689473 0.470680 -0.061304
v -0.700963 0.474149 -0.064193
v -0.692374 0.467707 -0.070102
v -0.702289 0.469483 -0.067307
v -0.690680 0.465982 -0.064081
v -0.701176 0.467260 -0.061896
v -0.681731 0.464835 -0.065818
v -0.673754 0.463853 -0.067027
v -0.667187 0.463128 -0.068527
v -0.665845 0.468923 -0.066703
v -0.662684 0.463393 -0.070083
v -0.712066 0.468381 -0.059393
v -0.699836 0.471712 -0.058645
v -0.711019 0.472413 -0.055993
v -0.721065 0.472687 -0.053116
v -0.711947 0.475098 -0.061179
v -0.713102 0.470869 -0.064757
v -0.721814 0.476065 -0.058448
v -0.729766 0.477549 -0.056231
v -0.723356 0.472150 -0.062679
v -0.730587 0.473045 -0.062401
v -0.722439 0.469119 -0.056897
v -0.731144 0.469811 -0.054987
v -0.739720 0.471182 -0.052330
v -0.729723 0.473519 -0.050633
v -0.738364 0.474575 -0.047841
v -0.745785 0.475597 -0.046686
v -0.738300 0.478491 -0.052177
v -0.739276 0.479430 -0.057383
v -0.745446 0.478941 -0.049647
v -0.746213 0.478734 -0.053223
v -0.747354 0.474329 -0.052936
vn 0.3380 0.6377 -0.6922
vn 0.6302 0.4433 -0.6375
vn 0.7439 -0.4874 -0.4571
vn 0.3814 -0.5835 -0.7170
vn 0.8373 -0.0271 0.5461
vn 0.3851 -0.8336 0.3960
vn 0.5980 0.8015 0.0036
vn 0.1806 0.9808 -0.0739
vn 0.0385 0.2723 -0.9614
vn -0.1052 0.8432 -0.5271
vn 0.3508 -0.1710 -0.9207
vn -0.2447 -0.8467 -0.4724
vn -0.3853 -0.7151 -0.5832
vn -0.3149 -0.4786 -0.8196
vn -0.0433 0.8652 -0.4996
vn 0.2122 0.4858 0.8479
vn 0.1939 0.5300 0.8255
vn 0.2948 0.3806 0.8765
vn -0.0276 0.9323 -0.3606
vn 0.2499 0.3242 0.9124
vn -0.3337 -0.3824 -0.8616
vn 0.0212 0.9619 -0.2726
vn 0.2491 0.2588 0.9333
vn -0.2869 -0.2802 -0.9161
vn -0.0463 -0.9555 0.2914
vn -0.0328 -0.9155 0.4011
vn -0.0348 -0.8436 0.5359
vn -0.0032 -0.7723 0.6353
vn 0.1962 -0.8016 0.5648
vn 0.2573 0.1848 0.9485
vn -0.0296 -0.9767 0.2126
vn -0.2479 -0.2046 -0.9469
vn 0.0424 0.9799 -0.1948
vn 0.2833 0.0683 0.9566
vn -0.0240 -0.9873 0.1570
vn 0.1175 0.9872 -0.1075
vn -0.1760 -0.1434 -0.9739
vn -0.2495 -0.0578 -0.9667
vn 0.2463 0.9686 0.0347
vn 0.3064 -0.0094 0.9519
vn -0.1925 -0.9800 0.0500
vn -0.3208 -0.9448 -0.0672
vn -0.2217 0.5474 -0.8069
vn 0.1722 -0.1052 0.9794
vn 0.2219 0.9258 0.3060
vn -0.4662 -0.0548 0.8830
vn -0.8003 -0.5391 -0.2624
vn -0.3992 0.8036 0.4414
vn -0.6977 0.5695 -0.4347
vt 0.987985 0.293991
vt 0.985061 0.294786
vt 0.983585 0.293612
vt 0.984757 0.292336
vt 0.982386 0.294864
vt 0.979543 0.292585
vt 0.984120 0.295566
vt 0.986022 0.296835
vt 0.932676 0.529372
vt 0.931693 0.531064
vt 0.928865 0.530472
vt 0.931053 0.527914
vt 0.933853 0.532986
vt 0.932021 0.532242
vt 0.930481 0.534348
vt 0.927391 0.533922
vt 0.923589 0.532648
vt 0.923982 0.529035
vt 0.982726 0.304473
vt 0.982358 0.300799
vt 0.986788 0.299952
vt 0.986904 0.304483
vt 0.982296 0.297692
vt 0.985885 0.309107
vt 0.982286 0.308955
vt 0.919353 0.532530
vt 0.919403 0.528787
vt 0.986183 0.314165
vt 0.982277 0.314201
vt 0.914365 0.532435
vt 0.914435 0.529268
vt 0.914398 0.535771
vt 0.919466 0.536503
vt 0.923924 0.536685
vt 0.979334 0.309029
vt 0.978613 0.314202
vt 0.978976 0.304476
vt 0.979223 0.300585
vt 0.927759 0.536978
vt 0.979073 0.295656
vt 0.930996 0.537376
vt 0.934317 0.535754
vt 0.982255 0.319736
vt 0.979279 0.319552
vt 0.908980 0.535541
vt 0.909001 0.531930
vt 0.985570 0.319674
vt 0.981748 0.324767
vt 0.978644 0.324734
vt 0.985421 0.324651
vt 0.909021 0.528462
vt 0.904089 0.532113
vt 0.904086 0.528576
vt 0.900747 0.531623
vt 0.900119 0.527775
vt 0.985810 0.328705
vt 0.981623 0.329095
vt 0.903847 0.535935
vt 0.899529 0.535640
vt 0.977931 0.328799
vt 0.895286 0.534731
vt 0.895405 0.529448
vt 0.897403 0.537895
vt 0.894475 0.537036
vt 0.985840 0.333230
vt 0.981687 0.334299
vt 0.983260 0.336715
vt 0.982066 0.338679
vt 0.980368 0.335514
vt 0.985127 0.336818
vt 0.895681 0.527131
vt 0.987749 0.336007
vt 0.986260 0.338272
vt 0.891497 0.533609
vt 0.891683 0.530130
s 1
usemtl abyss_chancel_background_pbr
f 6/1/1 4/2/2 1/3/3 2/4/4
f 1/3/3 3/5/5 28/6/6 2/4/4
f 5/7/7 3/5/5 1/3/3 4/2/2
f 7/8/8 5/7/7 4/2/2 6/1/1
f 6/9/1 8/10/9 11/11/10 7/12/8
f 8/10/9 6/9/1 2/13/4 10/14/11
f 9/15/12 8/10/9 10/14/11 2/13/4
f 9/15/12 12/16/13 11/11/10 8/10/9
f 16/17/14 14/18/15 11/11/10 12/16/13
f 15/19/16 13/20/17 11/21/10 14/22/15
f 27/23/18 7/8/8 11/21/10 13/20/17
f 15/19/16 14/22/15 17/24/19 18/25/20
f 14/18/15 16/17/14 20/26/21 17/27/19
f 17/24/19 19/28/22 30/29/23 18/25/20
f 20/26/21 21/30/24 19/31/22 17/27/19
f 23/32/25 21/30/24 20/26/21 22/33/26
f 24/34/27 22/33/26 20/26/21 16/17/14
f 22/35/26 18/25/20 30/29/23 23/36/25
f 18/25/20 22/35/26 24/37/27 15/19/16
f 13/20/17 15/19/16 24/37/27 25/38/28
f 12/16/13 25/39/28 24/34/27 16/17/14
f 26/40/29 27/23/18 13/20/17 25/38/28
f 25/39/28 12/16/13 9/15/12 26/41/29
f 27/23/18 26/40/29 28/6/6 3/5/5
f 9/15/12 2/13/4 28/42/6 26/41/29
f 27/23/18 3/5/5 5/7/7 7/8/8
f 30/29/23 31/43/30 29/44/31 23/36/25
f 21/30/24 23/32/25 29/45/31 34/46/32
f 33/47/33 31/43/30 30/29/23 19/28/22
f 32/48/34 39/49/35 29/44/31 31/43/30
f 31/43/30 33/47/33 35/50/36 32/48/34
f 34/46/32 33/51/33 19/31/22 21/30/24
f 34/46/32 37/52/37 35/53/36 33/51/33
f 38/54/38 36/55/39 35/53/36 37/52/37
f 35/50/36 36/56/39 42/57/40 32/48/34
f 29/45/31 39/58/35 37/52/37 34/46/32
f 40/59/41 38/54/38 37/52/37 39/58/35
f 39/49/35 32/48/34 42/57/40 40/60/41
f 40/59/41 41/61/42 46/62/43 38/54/38
f 40/59/41 42/63/40 43/64/44 41/61/42
f 36/56/39 45/65/45 43/66/44 42/57/40
f 43/66/44 44/67/46 49/68/47 41/69/42
f 43/66/44 45/65/45 47/70/48 44/67/46
f 36/55/39 38/54/38 46/62/43 45/71/45
f 47/70/48 45/65/45 46/72/43 48/73/49
f 49/68/47 44/67/46 47/70/48 48/73/49
f 49/74/47 48/75/49 46/62/43 41/61/42
