# Blender 5.2.0 LTS
# www.blender.org
mtllib terrain-abyss-chancel-object-067.mtl
o terrain-abyss-chancel-object-067
v -0.114279 0.191031 0.009825
v -0.113633 0.190356 0.009276
v -0.113995 0.190809 0.010958
v -0.115295 0.191033 0.010470
v -0.114597 0.191123 0.008350
v -0.115041 0.191116 0.007340
v -0.115669 0.191365 0.009153
v -0.114355 0.190446 0.008046
v -0.115342 0.190675 0.007142
v -0.114942 0.190178 0.008419
v -0.115568 0.189970 0.008792
v -0.115911 0.190287 0.007451
v -0.114371 0.189963 0.009566
v -0.114369 0.189955 0.010783
v -0.115236 0.189850 0.009901
v -0.116303 0.189822 0.009939
v -0.115404 0.189920 0.010983
v -0.116533 0.189863 0.010828
v -0.115666 0.190311 0.011641
v -0.116711 0.190105 0.011560
v -0.114797 0.190553 0.011472
v -0.116127 0.190931 0.010872
v -0.117004 0.190828 0.011278
v -0.116579 0.191256 0.009641
v -0.117088 0.191416 0.008383
v -0.117511 0.191068 0.010098
v -0.118422 0.190880 0.010558
v -0.118097 0.191258 0.008855
v -0.118599 0.191312 0.007652
v -0.119031 0.191061 0.009350
v -0.119610 0.190749 0.009822
v -0.119562 0.191220 0.008294
v -0.119858 0.190955 0.008904
v -0.119128 0.190195 0.007772
v -0.119523 0.190197 0.008726
v -0.118172 0.190081 0.008100
v -0.118470 0.190579 0.006839
v -0.117621 0.190259 0.007339
v -0.117741 0.191166 0.006136
v -0.116944 0.190519 0.006664
v -0.117453 0.191289 0.007205
v -0.116400 0.191142 0.006650
v -0.116049 0.191307 0.007805
v -0.116536 0.190097 0.007978
v -0.117074 0.189931 0.008644
v -0.116238 0.189811 0.009124
v -0.117396 0.189858 0.009602
v -0.118500 0.190003 0.009101
v -0.117645 0.189801 0.010583
v -0.117818 0.190055 0.011379
v -0.118771 0.189929 0.010081
v -0.118945 0.190318 0.010864
v -0.119496 0.190129 0.009571
v -0.117871 0.190736 0.011547
v -0.113432 0.190203 0.010459
vn 0.4538 0.8904 0.0359
vn 0.9313 -0.1998 -0.3045
vn 0.7623 -0.3416 -0.5497
vn 0.5400 0.8101 -0.2281
vn 0.5807 0.5345 0.6141
vn 0.9388 -0.2688 0.2155
vn 0.0570 0.9514 0.3026
vn 0.2947 0.2167 0.9307
vn 0.0942 0.9924 0.0788
vn 0.5275 0.7122 -0.4633
vn 0.1237 0.9774 -0.1716
vn 0.5459 -0.1251 -0.8285
vn 0.2281 -0.9632 -0.1424
vn 0.2094 -0.9317 -0.2968
vn 0.1862 -0.8583 -0.4782
vn 0.0845 -0.9958 -0.0352
vn 0.1004 -0.9753 -0.1967
vn 0.0484 -0.9615 -0.2704
vn 0.3409 -0.8405 0.4212
vn 0.1213 -0.9299 0.3471
vn 0.0223 -0.9997 -0.0090
vn 0.0288 -0.9916 -0.1259
vn 0.0257 -0.9781 0.2065
vn 0.1285 -0.0766 0.9887
vn 0.0430 -0.4087 0.9116
vn -0.0098 0.7495 0.6619
vn 0.0004 0.8842 0.4671
vn -0.0750 0.9756 0.2065
vn -0.0265 0.9835 0.1787
vn -0.0829 0.9888 0.1243
vn -0.0247 0.9995 0.0197
vn -0.3037 0.8519 0.4266
vn -0.2460 0.5917 0.7677
vn -0.1994 0.9461 0.2551
vn -0.0706 0.9512 -0.3004
vn -0.4231 0.8544 -0.3015
vn -0.7158 0.6471 -0.2626
vn -0.9219 0.3853 0.0408
vn -0.8445 0.2890 0.4508
vn -0.7014 -0.1739 0.6912
vn -0.5363 -0.2602 -0.8029
vn -0.5864 -0.6138 -0.5286
vn -0.6828 -0.7071 -0.1840
vn -0.0709 -0.9762 -0.2048
vn -0.1161 -0.9887 -0.0944
vn -0.0374 -0.9215 -0.3866
vn -0.2048 0.2411 -0.9486
vn 0.1603 -0.5642 -0.8100
vn 0.3217 0.5126 -0.7961
vn -0.0269 -0.9859 -0.1653
vn -0.0540 -0.9966 -0.0620
vn -0.1025 -0.9843 0.1438
vn -0.3567 -0.9220 0.1508
vn -0.2809 -0.5085 0.8140
vn -0.6521 -0.7485 0.1204
vt 0.278293 0.019514
vt 0.278950 0.020004
vt 0.278874 0.020646
vt 0.278512 0.020548
vt 0.279204 0.019312
vt 0.279248 0.019639
vt 0.278884 0.018848
vt 0.279857 0.019164
vt 0.217663 0.017789
vt 0.218377 0.017797
vt 0.218165 0.018400
vt 0.217437 0.018303
vt 0.218949 0.017967
vt 0.218887 0.018487
vt 0.278911 0.021256
vt 0.278621 0.021141
vt 0.279437 0.020149
vt 0.279260 0.020712
vt 0.279307 0.021347
vt 0.279854 0.020268
vt 0.279636 0.020775
vt 0.279740 0.021389
vt 0.279721 0.019620
vt 0.280192 0.019825
vt 0.280274 0.020530
vt 0.280007 0.020853
vt 0.280598 0.020192
vt 0.280462 0.019526
vt 0.280862 0.019892
vt 0.217242 0.019306
vt 0.216828 0.019358
vt 0.216844 0.018755
vt 0.217401 0.018795
vt 0.216829 0.018311
vt 0.217865 0.019390
vt 0.218051 0.018893
vt 0.218528 0.019589
vt 0.218711 0.019056
vt 0.217690 0.019903
vt 0.217203 0.019758
vt 0.218282 0.020101
vt 0.219312 0.019286
vt 0.219111 0.019916
vt 0.218751 0.020316
vt 0.218494 0.020514
vt 0.218080 0.020435
vt 0.217519 0.020310
vt 0.219514 0.020181
vt 0.219183 0.020639
vt 0.218556 0.020897
vt 0.280604 0.022287
vt 0.280346 0.021873
vt 0.280802 0.021589
vt 0.281026 0.022058
vt 0.279997 0.022462
vt 0.279877 0.021974
vt 0.279340 0.022482
vt 0.279356 0.021949
vt 0.219765 0.019562
vt 0.278945 0.021830
vt 0.278819 0.022378
vt 0.219517 0.018675
vt 0.278366 0.021594
vt 0.280160 0.021311
vt 0.280574 0.021000
vt 0.280949 0.020613
vt 0.281173 0.021212
vt 0.281196 0.020274
vt 0.216903 0.019978
vt 0.217564 0.020866
vt 0.216900 0.020427
vt 0.218076 0.020732
vt 0.217939 0.021078
s 1
usemtl abyss_chancel_background_pbr
f 1/1/1 2/2/2 8/3/3 5/4/4
f 1/1/1 3/5/5 55/6/6 2/2/2
f 4/7/7 21/8/8 3/5/5 1/1/1
f 1/9/1 5/10/4 7/11/9 4/12/7
f 7/11/9 5/10/4 6/13/10 43/14/11
f 8/3/3 9/15/12 6/16/10 5/4/4
f 2/2/2 13/17/13 10/18/14 8/3/3
f 8/3/3 10/18/14 12/19/15 9/15/12
f 15/20/16 11/21/17 10/18/14 13/17/13
f 11/21/17 44/22/18 12/19/15 10/18/14
f 13/17/13 2/2/2 55/6/6 14/23/19
f 13/17/13 14/23/19 17/24/20 15/20/16
f 15/20/16 16/25/21 46/26/22 11/21/17
f 15/20/16 17/24/20 18/27/23 16/25/21
f 19/28/24 20/29/25 18/27/23 17/24/20
f 14/23/19 21/8/8 19/28/24 17/24/20
f 23/30/26 20/31/25 19/32/24 22/33/27
f 4/12/7 22/33/27 19/32/24 21/34/8
f 26/35/28 23/30/26 22/33/27 24/36/29
f 7/11/9 24/36/29 22/33/27 4/12/7
f 28/37/30 26/35/28 24/36/29 25/38/31
f 43/14/11 25/38/31 24/36/29 7/11/9
f 26/35/28 27/39/32 54/40/33 23/30/26
f 27/39/32 26/35/28 28/37/30 30/41/34
f 41/42/35 29/43/36 28/37/30 25/38/31
f 32/44/37 30/41/34 28/37/30 29/43/36
f 32/44/37 33/45/38 31/46/39 30/41/34
f 27/39/32 30/41/34 31/46/39 52/47/40
f 29/43/36 37/48/41 34/49/42 32/44/37
f 33/45/38 32/44/37 34/49/42 35/50/43
f 34/51/42 36/52/44 48/53/45 35/54/43
f 37/55/41 38/56/46 36/52/44 34/51/42
f 38/56/46 37/55/41 39/57/47 40/58/48
f 29/43/36 41/42/35 39/59/47 37/48/41
f 42/60/49 40/58/48 39/57/47 41/61/35
f 42/62/49 41/42/35 25/38/31 43/14/11
f 42/60/49 9/15/12 12/19/15 40/58/48
f 42/60/49 43/63/11 6/16/10 9/15/12
f 12/19/15 44/22/18 38/56/46 40/58/48
f 44/22/18 45/64/50 36/52/44 38/56/46
f 44/22/18 11/21/17 46/26/22 45/64/50
f 47/65/51 45/64/50 46/26/22 16/25/21
f 45/64/50 47/65/51 48/53/45 36/52/44
f 47/65/51 49/66/52 51/67/53 48/53/45
f 16/25/21 18/27/23 49/66/52 47/65/51
f 20/29/25 50/68/54 49/66/52 18/27/23
f 50/69/54 52/47/40 51/70/53 49/71/52
f 51/70/53 52/47/40 31/46/39 53/72/55
f 35/50/43 48/73/45 51/70/53 53/72/55
f 53/72/55 31/46/39 33/45/38 35/50/43
f 52/47/40 50/69/54 54/40/33 27/39/32
f 20/31/25 23/30/26 54/40/33 50/69/54
f 21/8/8 14/23/19 55/6/6 3/5/5
