# Blender 5.2.0 LTS
# www.blender.org
mtllib terrain-abyss-chancel-object-011.mtl
o terrain-abyss-chancel-object-011
v -0.848515 0.876729 -0.111740
v -0.844926 0.879793 -0.109953
v -0.851608 0.881272 -0.109804
v -0.850193 0.876221 -0.107993
v -0.845912 0.876680 -0.106333
v -0.852451 0.877565 -0.097492
v -0.854338 0.877440 -0.106620
v -0.856765 0.879540 -0.098926
v -0.862508 0.879085 -0.084220
v -0.855877 0.884387 -0.099893
v -0.850805 0.886350 -0.099174
v -0.863229 0.884932 -0.085713
v -0.858309 0.890242 -0.085886
v -0.868925 0.884677 -0.071253
v -0.866966 0.892294 -0.072697
v -0.875155 0.883768 -0.064698
v -0.869622 0.878523 -0.067158
v -0.878502 0.877991 -0.059467
v -0.872453 0.876231 -0.053713
v -0.860033 0.875257 -0.068613
v -0.856527 0.877113 -0.083414
v -0.848775 0.875315 -0.069621
v -0.860323 0.874939 -0.056024
v -0.840062 0.879221 -0.058681
v -0.861535 0.875567 -0.045503
v -0.839998 0.878413 -0.050212
v -0.864909 0.875316 -0.031995
v -0.874879 0.876505 -0.042608
v -0.880539 0.882257 -0.041137
v -0.881310 0.876838 -0.027779
v -0.876362 0.875000 -0.009563
v -0.883885 0.884060 -0.031951
v -0.896896 0.874035 -0.014739
v -0.899132 0.880373 -0.024824
v -0.910365 0.872076 -0.004232
v -0.888905 0.874407 0.001732
v -0.877470 0.880799 0.011990
v -0.900502 0.872688 0.011493
v -0.916492 0.874908 0.020728
v -0.888537 0.878016 0.025254
v -0.905462 0.877891 0.031792
v -0.884737 0.891818 0.026601
v -0.899129 0.889133 0.034177
v -0.876297 0.894650 0.013407
v -0.886642 0.904476 0.023896
v -0.878840 0.908591 0.013017
v -0.889683 0.918326 0.019807
v -0.896908 0.900908 0.032275
v -0.899664 0.903896 0.023785
v -0.906600 0.900515 0.038952
v -0.910612 0.902763 0.028118
v -0.913958 0.888069 0.036141
v -0.917608 0.893387 0.030176
v -0.916981 0.877228 0.037236
v -0.921721 0.882579 0.042127
v -0.923425 0.874441 0.043766
v -0.922506 0.884816 0.034330
v -0.926898 0.881811 0.048533
v -0.930674 0.884138 0.041007
v -0.929112 0.874233 0.049955
v -0.930333 0.880683 0.054671
v -0.932649 0.876334 0.054757
v -0.936519 0.883136 0.046302
v -0.939819 0.878101 0.049187
v -0.939579 0.882048 0.037590
v -0.938827 0.875459 0.033687
v -0.943731 0.880567 0.041555
v -0.931775 0.882990 0.031926
v -0.920517 0.886981 0.022545
v -0.929575 0.876870 0.029204
v -0.919747 0.881231 0.021254
v -0.924577 0.874863 0.032560
v -0.931576 0.872932 0.039201
v -0.937023 0.873977 0.045261
v -0.943801 0.877168 0.038706
v -0.926705 0.881480 0.006437
v -0.927463 0.890110 0.007545
v -0.930956 0.883307 -0.009052
v -0.923200 0.873511 0.004198
v -0.926890 0.875973 -0.009760
v -0.917880 0.875204 -0.018420
v -0.921105 0.886750 -0.019403
v -0.924426 0.895582 -0.016779
v -0.901255 0.892892 -0.026910
v -0.891418 0.903451 -0.032005
v -0.883515 0.890984 -0.032486
v -0.910567 0.901608 -0.022888
v -0.901951 0.909247 -0.027987
v -0.914552 0.906891 -0.014856
v -0.911113 0.917219 -0.020496
v -0.910138 0.904377 -0.003191
v -0.923853 0.903163 -0.009705
v -0.933802 0.901472 -0.004597
v -0.918894 0.903357 0.003234
v -0.927904 0.898924 0.008263
v -0.914375 0.903075 0.016866
v -0.921565 0.896817 0.020901
v -0.904059 0.904378 0.010946
v -0.899269 0.919224 0.007467
v -0.907319 0.918928 -0.006313
v -0.892634 0.930456 0.002863
v -0.883536 0.932864 -0.005971
v -0.882908 0.923569 0.011694
v -0.899664 0.930588 -0.012130
v -0.888981 0.932947 -0.019777
v -0.901517 0.924812 -0.027493
v -0.896937 0.915328 -0.031472
v -0.885936 0.923902 -0.035604
v -0.880480 0.936159 -0.039914
v -0.877913 0.921117 -0.036384
v -0.887084 0.912903 -0.034611
v -0.880903 0.911792 -0.033216
v -0.876521 0.912939 -0.029652
v -0.881644 0.900858 -0.032974
v -0.876434 0.906124 -0.030032
v -0.878529 0.896395 -0.037794
v -0.875061 0.902682 -0.034324
v -0.880663 0.895273 -0.044577
v -0.880608 0.889094 -0.039638
v -0.881745 0.887327 -0.047133
v -0.880235 0.879664 -0.050010
v -0.882505 0.884804 -0.055643
v -0.881891 0.894318 -0.052147
v -0.879442 0.887150 -0.060139
v -0.878819 0.894102 -0.058299
v -0.872948 0.893254 -0.063992
v -0.878147 0.903371 -0.057376
v -0.881378 0.903269 -0.049690
v -0.875423 0.912113 -0.055452
v -0.871017 0.902057 -0.063724
v -0.865016 0.900664 -0.073289
v -0.869297 0.911773 -0.063971
v -0.863681 0.911147 -0.074177
v -0.869212 0.921446 -0.063728
v -0.869206 0.931039 -0.063085
v -0.864304 0.921976 -0.074855
v -0.873542 0.920534 -0.053915
v -0.872069 0.931315 -0.052620
v -0.877238 0.919228 -0.045808
v -0.876504 0.916439 -0.038887
v -0.878831 0.911253 -0.047443
v -0.875969 0.930488 -0.044969
v -0.863049 0.934830 -0.041243
v -0.861359 0.931977 -0.048409
v -0.847994 0.937058 -0.037469
v -0.864754 0.946266 -0.039633
v -0.848551 0.950055 -0.033245
v -0.867431 0.952613 -0.028081
v -0.882805 0.943380 -0.026255
v -0.869129 0.952818 -0.017368
v -0.853698 0.954107 -0.018692
v -0.843546 0.954802 -0.005777
v -0.862506 0.953918 -0.006274
v -0.870569 0.940828 0.001347
v -0.853059 0.951586 0.006993
v -0.847076 0.947940 0.021238
v -0.860122 0.936387 0.010923
v -0.865112 0.925128 0.012934
v -0.854412 0.931261 0.028097
v -0.858093 0.929042 0.042174
v -0.866994 0.924480 0.027176
v -0.835156 0.931742 0.037097
v -0.821064 0.930865 0.045453
v -0.831509 0.923308 0.042395
v -0.836069 0.946593 0.036361
v -0.843665 0.929478 0.047808
v -0.834925 0.924692 0.051370
v -0.848337 0.928133 0.059393
v -0.838419 0.927393 0.060895
v -0.860304 0.927637 0.054549
v -0.849744 0.920409 0.065757
v -0.850981 0.910444 0.067835
v -0.839493 0.916995 0.062896
v -0.860758 0.921779 0.062554
v -0.860873 0.909305 0.063850
v -0.869066 0.921879 0.057977
v -0.870018 0.908635 0.058425
v -0.869238 0.923413 0.049258
v -0.869290 0.911231 0.046356
v -0.867144 0.923418 0.038936
v -0.867396 0.912491 0.036727
v -0.865441 0.900906 0.033453
v -0.869285 0.913459 0.024656
v -0.868018 0.899995 0.023882
v -0.866590 0.913021 0.012397
v -0.872207 0.911485 0.005106
v -0.867016 0.898887 0.013160
v -0.865655 0.885564 0.013038
v -0.870285 0.897434 0.004274
v -0.870081 0.883301 0.001755
v -0.860310 0.874320 0.000121
v -0.863286 0.874233 -0.014089
v -0.857961 0.872487 0.012458
v -0.841621 0.871218 -0.003339
v -0.839955 0.870785 0.011120
v -0.820916 0.873051 -0.005833
v -0.843129 0.872666 -0.018963
v -0.822779 0.873331 -0.022198
v -0.843385 0.874187 -0.034704
v -0.825589 0.874031 -0.037550
v -0.828630 0.879706 -0.050141
v -0.811835 0.874141 -0.038897
v -0.807268 0.874287 -0.023705
v -0.817093 0.880181 -0.051009
v -0.799712 0.873093 -0.039933
v -0.787322 0.873433 -0.040986
v -0.808610 0.877997 -0.051720
v -0.793733 0.874946 -0.025645
v -0.785009 0.876412 -0.027558
v -0.790571 0.874572 -0.005876
v -0.790993 0.873665 0.009407
v -0.788486 0.877540 0.003423
v -0.782135 0.875660 -0.011745
v -0.804583 0.873065 -0.006572
v -0.804791 0.872367 0.009352
v -0.807929 0.872053 0.024493
v -0.821360 0.871543 0.009548
v -0.824514 0.871244 0.023553
v -0.840156 0.871106 0.023894
v -0.829510 0.881637 0.036125
v -0.814575 0.882402 0.040971
v -0.826919 0.896974 0.038018
v -0.834592 0.883063 0.041670
v -0.842188 0.873292 0.035463
v -0.845838 0.873263 0.043357
v -0.855587 0.874848 0.032997
v -0.860122 0.874993 0.041178
v -0.856285 0.873797 0.024291
v -0.860338 0.887143 0.031942
v -0.866822 0.886411 0.038222
v -0.864370 0.886170 0.024110
v -0.874101 0.885104 0.050760
v -0.870558 0.899205 0.041032
v -0.875698 0.896835 0.053276
v -0.881244 0.895469 0.067753
v -0.878513 0.905635 0.070575
v -0.887424 0.892656 0.081674
v -0.880815 0.884475 0.066422
v -0.885939 0.883587 0.082356
v -0.876470 0.874845 0.067010
v -0.882842 0.875016 0.080379
v -0.865624 0.871344 0.070792
v -0.868504 0.874826 0.052108
v -0.851687 0.872473 0.056434
v -0.839605 0.872739 0.064547
v -0.831450 0.883095 0.046582
v -0.826553 0.884122 0.057284
v -0.831163 0.896954 0.047641
v -0.833912 0.911022 0.051044
v -0.826078 0.897782 0.055297
v -0.833443 0.897382 0.040425
v -0.831383 0.910860 0.042006
v -0.824688 0.910281 0.040075
v -0.822801 0.921561 0.043736
v -0.820781 0.908071 0.048582
v -0.819304 0.918168 0.053020
v -0.818631 0.905258 0.057245
v -0.821468 0.896404 0.044973
v -0.819618 0.896920 0.056398
v -0.810768 0.887574 0.051462
v -0.814844 0.900549 0.066495
v -0.808919 0.904460 0.073609
v -0.807345 0.888516 0.062831
v -0.815948 0.910648 0.063241
v -0.811121 0.917582 0.068016
v -0.814841 0.925076 0.055965
v -0.800014 0.921834 0.064297
v -0.807398 0.926844 0.052475
v -0.797318 0.909699 0.073490
v -0.787490 0.922824 0.052231
v -0.777470 0.921002 0.032745
v -0.798187 0.925516 0.041223
v -0.777990 0.915001 0.061993
v -0.766255 0.914764 0.040931
v -0.776318 0.899417 0.066100
v -0.766839 0.902433 0.044724
v -0.801245 0.893944 0.075517
v -0.772563 0.890598 0.060897
v -0.783810 0.891136 0.077880
v -0.775542 0.884935 0.074818
v -0.798456 0.887778 0.083437
v -0.787076 0.888374 0.085515
v -0.781883 0.883593 0.084428
v -0.793029 0.881361 0.089203
v -0.784487 0.874408 0.084151
v -0.796936 0.873031 0.081763
v -0.802055 0.879187 0.081788
v -0.799409 0.873321 0.066942
v -0.789844 0.871900 0.077504
v -0.788297 0.872957 0.066800
v -0.777247 0.876078 0.070635
v -0.785726 0.877456 0.054106
v -0.782824 0.880386 0.046044
v -0.799349 0.878837 0.054254
v -0.775816 0.881608 0.057287
v -0.772713 0.883671 0.047779
v -0.768018 0.882456 0.039553
v -0.768863 0.892765 0.047357
v -0.763605 0.889849 0.036682
v -0.759157 0.886478 0.031799
v -0.761082 0.898907 0.028071
v -0.758031 0.889913 0.023982
v -0.766582 0.900612 0.010886
v -0.761184 0.910482 0.025573
v -0.771312 0.913568 0.014874
v -0.785491 0.912380 0.012178
v -0.795346 0.912791 0.010817
v -0.790726 0.922531 0.025645
v -0.781017 0.900440 0.008392
v -0.775894 0.891495 0.006446
v -0.792001 0.899460 0.005927
v -0.785173 0.892263 0.005823
v -0.788952 0.901501 0.001679
v -0.783662 0.906156 -0.007236
v -0.785333 0.892753 0.000716
v -0.792985 0.917616 0.006235
v -0.795362 0.931524 0.010832
v -0.789258 0.920659 -0.000766
v -0.788035 0.929235 -0.002518
v -0.783163 0.939440 -0.011335
v -0.777476 0.916058 -0.010920
v -0.768235 0.907786 -0.013761
v -0.775631 0.924633 -0.018035
v -0.779029 0.927160 -0.028447
v -0.762046 0.918498 -0.019932
v -0.761216 0.921854 -0.030701
v -0.752700 0.910321 -0.022829
v -0.757794 0.906963 -0.032638
v -0.765033 0.902195 -0.017571
v -0.771740 0.897846 -0.017323
v -0.770206 0.900578 -0.026078
v -0.775334 0.907968 -0.032498
v -0.782066 0.889805 -0.035140
v -0.769506 0.889056 -0.018774
v -0.779030 0.884622 -0.032301
v -0.770561 0.884108 -0.001102
v -0.772934 0.877360 -0.015789
v -0.779549 0.879039 -0.030173
v -0.776153 0.875913 -0.001402
v -0.783334 0.876817 -0.001432
v -0.781987 0.876175 0.008895
v -0.772051 0.880838 0.011070
v -0.779853 0.874158 0.023667
v -0.777471 0.875608 0.036988
v -0.769282 0.875331 0.023591
v -0.792028 0.873035 0.023945
v -0.795865 0.877856 0.037792
v -0.797722 0.883112 0.045992
v -0.765202 0.875950 0.032285
v -0.761498 0.874895 0.023711
v -0.760637 0.878937 0.016082
v -0.756690 0.875090 0.028409
v -0.753800 0.878103 0.031322
v -0.750726 0.876839 0.020604
v -0.751149 0.883574 0.017052
v -0.748065 0.877719 0.025031
v -0.750803 0.884666 0.023484
v -0.754054 0.883738 0.029485
v -0.761668 0.889068 0.014244
v -0.761419 0.880327 0.035352
v -0.779472 0.877376 -0.039393
v -0.775655 0.875374 -0.046664
v -0.778985 0.882569 -0.041111
v -0.782359 0.887621 -0.043456
v -0.775841 0.882125 -0.049094
v -0.773947 0.877214 -0.058660
v -0.782220 0.885441 -0.052204
v -0.785635 0.881010 -0.060685
v -0.787145 0.898469 -0.055179
v -0.789382 0.894735 -0.064009
v -0.785602 0.901231 -0.046551
v -0.789160 0.915195 -0.059233
v -0.798362 0.928349 -0.062446
v -0.787120 0.916855 -0.048636
v -0.790826 0.909743 -0.068860
v -0.799349 0.919519 -0.073743
v -0.785075 0.906991 -0.080271
v -0.797218 0.912332 -0.087897
v -0.785241 0.892114 -0.074441
v -0.777274 0.896277 -0.099636
v -0.793721 0.904910 -0.106938
v -0.783866 0.882626 -0.108294
v -0.777476 0.886117 -0.093982
v -0.777125 0.879773 -0.104635
v -0.782154 0.876565 -0.091354
v -0.789688 0.872230 -0.095825
v -0.789746 0.877435 -0.072936
v -0.776041 0.874209 -0.100952
v -0.770655 0.872899 -0.106661
v -0.781014 0.870197 -0.105608
v -0.773977 0.870782 -0.113502
v -0.786329 0.870197 -0.111377
v -0.789531 0.876905 -0.114637
v -0.795298 0.872129 -0.102162
v -0.777447 0.871670 -0.119330
v -0.780804 0.876073 -0.121184
v -0.775205 0.879190 -0.115400
v -0.771673 0.878685 -0.109474
v -0.797653 0.878118 -0.107849
v -0.809345 0.872681 -0.090594
v -0.814115 0.878904 -0.101275
v -0.800835 0.873808 -0.081141
v -0.819788 0.874983 -0.083201
v -0.811813 0.875324 -0.073070
v -0.830347 0.876384 -0.077441
v -0.825112 0.880567 -0.091424
v -0.827648 0.890052 -0.092443
v -0.835220 0.880948 -0.086722
v -0.834646 0.888868 -0.084165
v -0.848907 0.882882 -0.084065
v -0.844767 0.882717 -0.096872
v -0.851570 0.877626 -0.083066
v -0.840835 0.876106 -0.072420
v -0.843181 0.892626 -0.079955
v -0.835744 0.894362 -0.071118
v -0.842960 0.906374 -0.083610
v -0.856380 0.897803 -0.081592
v -0.855811 0.908954 -0.082308
v -0.857781 0.920682 -0.083712
v -0.859165 0.931980 -0.083369
v -0.845169 0.919077 -0.085272
v -0.834411 0.920141 -0.081123
v -0.848672 0.929631 -0.082099
v -0.838617 0.927033 -0.079728
v -0.854250 0.931838 -0.071535
v -0.843780 0.929984 -0.069396
v -0.863864 0.931276 -0.074555
v -0.858809 0.932183 -0.059755
v -0.846984 0.930992 -0.057848
v -0.838764 0.924830 -0.056522
v -0.848122 0.931578 -0.046565
v -0.836836 0.925877 -0.046550
v -0.833815 0.937977 -0.035289
v -0.832200 0.911012 -0.049270
v -0.817764 0.926031 -0.048731
v -0.813025 0.924879 -0.061191
v -0.799744 0.929266 -0.047708
v -0.823001 0.942577 -0.041428
v -0.821465 0.912002 -0.051567
v -0.815801 0.913386 -0.056621
v -0.820623 0.896417 -0.053799
v -0.813404 0.897237 -0.053695
v -0.830859 0.895716 -0.051593
v -0.838601 0.896070 -0.052337
v -0.837019 0.895972 -0.060637
v -0.838031 0.911110 -0.054122
v -0.835409 0.910243 -0.064096
v -0.832961 0.907168 -0.075723
v -0.836245 0.923073 -0.067836
v -0.816222 0.897069 -0.059006
v -0.810954 0.880434 -0.056952
v -0.818148 0.911554 -0.065101
v -0.821340 0.895537 -0.066150
v -0.829854 0.894236 -0.074549
v -0.822920 0.906801 -0.076080
v -0.815627 0.880512 -0.061611
v -0.824793 0.879903 -0.068265
v -0.803899 0.876426 -0.064838
v -0.798056 0.875968 -0.058340
v -0.794555 0.874371 -0.052037
v -0.784436 0.873876 -0.054408
v -0.772470 0.876043 -0.054214
v -0.782744 0.872920 -0.047589
v -0.834465 0.880735 -0.064770
v -0.827980 0.899945 -0.086849
v -0.812757 0.912157 -0.086905
v -0.811968 0.920132 -0.072923
v -0.815425 0.905400 -0.101966
v -0.816108 0.890589 -0.106255
v -0.795820 0.888237 -0.110718
v -0.807158 0.944046 -0.040266
v -0.826913 0.956367 -0.033864
v -0.835767 0.954339 -0.025452
v -0.815111 0.957928 -0.026447
v -0.824181 0.957703 -0.008215
v -0.803847 0.958198 -0.016361
v -0.815319 0.957064 0.006060
v -0.795485 0.957373 -0.005405
v -0.793905 0.943949 -0.032126
v -0.784373 0.943961 -0.023797
v -0.789022 0.928356 -0.036600
v -0.785224 0.917661 -0.038450
v -0.784478 0.904020 -0.037570
v -0.778699 0.918323 -0.034344
v -0.765105 0.918471 -0.036530
v -0.765096 0.909746 -0.035249
v -0.792126 0.948065 0.004436
v -0.807407 0.956135 0.016993
v -0.802166 0.949583 0.024177
v -0.819625 0.953875 0.036457
v -0.812736 0.952289 0.043405
v -0.823928 0.944332 0.044856
v -0.827909 0.954548 0.025335
v -0.835402 0.955520 0.010713
v -0.814401 0.942251 0.046630
v -0.814255 0.931834 0.045665
v -0.803985 0.938439 0.028677
v -0.806246 0.930842 0.032363
v -0.799348 0.923783 0.018695
v -0.847554 0.878651 -0.096547
v -0.778414 0.893914 -0.003270
v -0.774335 0.904339 -0.015462
v -0.805435 0.882145 0.071093
v -0.810094 0.892470 0.075511
v -0.828916 0.899597 0.070588
v -0.828732 0.907941 0.053976
v -0.837937 0.908699 0.067157
v -0.843850 0.905997 0.081313
v -0.834179 0.899919 0.083931
v -0.856661 0.906289 0.078694
v -0.850824 0.904547 0.093324
v -0.839724 0.901072 0.096874
v -0.857324 0.902851 0.102471
v -0.863499 0.904882 0.088987
v -0.869449 0.902972 0.097353
v -0.876458 0.904956 0.084698
v -0.883469 0.902343 0.094514
v -0.887049 0.900981 0.082197
v -0.868444 0.906198 0.074573
v -0.883602 0.897293 0.094557
v -0.871001 0.896346 0.098646
v -0.882243 0.889894 0.093689
v -0.880453 0.881685 0.092656
v -0.870671 0.888379 0.097692
v -0.859420 0.886270 0.102401
v -0.869145 0.879595 0.095440
v -0.864548 0.871500 0.088027
v -0.858654 0.876631 0.098528
v -0.851300 0.876425 0.099088
v -0.853433 0.871414 0.090572
v -0.846240 0.875043 0.093219
v -0.844464 0.871804 0.079726
v -0.832863 0.875252 0.073147
v -0.853711 0.871289 0.075077
v -0.838734 0.874472 0.083853
v -0.828774 0.876144 0.077018
v -0.835309 0.880407 0.085418
v -0.828507 0.878611 0.082142
v -0.841816 0.882254 0.095943
v -0.833205 0.888016 0.082785
v -0.826720 0.887642 0.072180
v -0.826153 0.882520 0.079629
v -0.840086 0.891408 0.096147
v -0.847374 0.892702 0.105718
v -0.847163 0.901259 0.107924
v -0.859165 0.894861 0.104225
v -0.849244 0.884015 0.103071
v -0.823948 0.882893 0.075067
v -0.875733 0.873265 0.085407
v -0.874295 0.926742 0.003600
v -0.877573 0.942326 -0.012444
v -0.877233 0.909290 -0.040445
v -0.873568 0.908128 -0.033996
v -0.878929 0.902431 -0.042142
v -0.873107 0.915191 -0.033013
v -0.867810 0.908010 -0.027540
v -0.864407 0.909233 -0.023299
v -0.870557 0.905302 -0.025577
v -0.868046 0.914351 -0.027501
v -0.869800 0.918150 -0.025470
v -0.863380 0.912814 -0.020410
v -0.865267 0.916280 -0.019739
v -0.867535 0.910800 -0.021626
v -0.871755 0.914024 -0.024691
v -0.872698 0.908815 -0.026060
v -0.874624 0.919300 -0.030456
v -0.932931 0.892386 -0.006173
v -0.848342 0.881882 -0.107556
vn 0.0940 -0.4089 -0.9077
vn 0.8051 0.0936 -0.5856
vn 0.6024 -0.7963 0.0554
vn -0.1819 -0.9340 -0.3076
vn -0.4731 0.4238 -0.7724
vn 0.2138 0.8513 -0.4791
vn -0.7958 -0.5106 -0.3256
vn -0.1008 -0.9945 0.0290
vn 0.6046 -0.7784 0.1689
vn -0.7996 -0.5278 -0.2866
vn -0.7027 0.5341 -0.4701
vn -0.8673 0.2211 -0.4460
vn -0.7148 -0.6216 -0.3203
vn -0.1256 -0.9842 -0.1250
vn 0.1567 0.9569 -0.2446
vn -0.2902 0.6885 -0.6646
vn -0.8425 0.0147 -0.5385
vn -0.7831 0.2639 -0.5632
vn -0.5357 -0.7461 -0.3955
vn -0.7154 -0.0817 -0.6939
vn -0.7258 0.1764 -0.6649
vn -0.6467 -0.6808 -0.3438
vn -0.7657 -0.6423 0.0333
vn -0.2304 -0.9726 -0.0322
vn -0.1052 -0.9906 -0.0868
vn 0.0014 -1.0000 -0.0074
vn 0.3237 -0.9376 -0.1271
vn 0.1937 -0.9789 -0.0654
vn 0.6712 -0.7187 0.1815
vn -0.0025 -0.9990 -0.0448
vn 0.3121 -0.8776 -0.3639
vn -0.3711 -0.9277 -0.0407
vn -0.0681 -0.9952 -0.0706
vn -0.0126 -0.9892 -0.1463
vn -0.2639 -0.9256 -0.2712
vn -0.9093 -0.3955 -0.1297
vn -0.6711 -0.3871 -0.6323
vn -0.1424 -0.9886 0.0488
vn 0.0276 -0.9931 0.1143
vn 0.2370 -0.9686 0.0755
vn 0.0045 -0.9651 -0.2620
vn -0.2495 -0.5501 -0.7969
vn -0.0333 -0.9945 -0.0997
vn -0.3305 -0.6863 -0.6479
vn 0.1101 -0.9861 0.1243
vn -0.1197 -0.8273 0.5489
vn 0.6759 -0.6018 0.4254
vn 0.4763 -0.6751 0.5634
vn 0.2523 -0.7038 0.6640
vn -0.2777 -0.9563 0.0912
vn -0.5426 -0.8260 0.1526
vn 0.6710 -0.0356 0.7406
vn 0.3923 -0.1531 0.9070
vn 0.8130 0.0030 0.5822
vn 0.2962 0.4879 0.8211
vn 0.5106 0.3511 0.7849
vn 0.7320 0.2044 0.6499
vn 0.2990 0.6341 0.7131
vn -0.0362 0.6259 0.7791
vn -0.2191 0.8591 0.4625
vn -0.3692 0.8694 0.3284
vn -0.0843 0.4880 0.8688
vn -0.0679 0.2859 0.9559
vn -0.7612 0.5143 0.3951
vn 0.4667 -0.6909 0.5521
vn -0.3625 0.8882 0.2821
vn 0.4776 0.5335 0.6981
vn 0.5706 -0.7055 0.4204
vn 0.5741 0.5910 0.5667
vn 0.3837 -0.7645 0.5179
vn -0.0483 0.9935 0.1027
vn -0.2994 0.9031 0.3077
vn 0.3047 0.4939 0.8144
vn -0.0687 -0.3069 0.9493
vn -0.7751 -0.0642 0.6285
vn -0.4821 0.7248 -0.4921
vn -0.5293 0.7548 -0.3875
vn -0.9485 0.3053 0.0846
vn -0.4989 -0.4380 -0.7478
vn -0.5599 -0.4832 -0.6731
vn -0.8646 -0.3819 -0.3264
vn -0.9832 0.1736 0.0558
vn -0.9088 -0.3813 -0.1693
vn -0.0153 -0.9724 -0.2329
vn -0.0278 -0.9941 -0.1049
vn -0.3724 -0.9060 0.2012
vn -0.8919 -0.3290 0.3103
vn -0.9188 -0.1336 0.3714
vn -0.9839 -0.0064 -0.1789
vn -0.9237 -0.2627 -0.2789
vn -0.6704 -0.6868 -0.2807
vn -0.5266 -0.1015 -0.8440
vn -0.3490 -0.1021 -0.9315
vn -0.6183 0.2348 -0.7501
vn -0.5446 0.1344 -0.8278
vn -0.5342 -0.0246 -0.8450
vn -0.2646 -0.1203 -0.9568
vn -0.2479 0.1848 -0.9510
vn -0.6323 0.0008 -0.7747
vn -0.7626 0.5899 -0.2654
vn -0.8737 0.3606 -0.3264
vn -0.4701 0.8333 -0.2909
vn -0.5654 0.7786 0.2724
vn -0.8254 0.4898 0.2809
vn -0.2162 0.9645 0.1519
vn -0.8201 0.5695 -0.0563
vn -0.7741 0.5037 0.3835
vn -0.7996 0.4823 0.3578
vn -0.3131 0.9314 0.1859
vn -0.5204 0.8043 0.2869
vn -0.6847 0.5554 0.4720
vn -0.2974 0.8607 0.4132
vn -0.5237 0.8516 0.0246
vn -0.3744 0.8366 0.4000
vn -0.5884 0.7996 -0.1197
vn -0.2786 0.5172 0.8092
vn -0.5926 0.5405 -0.5973
vn -0.5344 0.1238 -0.8361
vn -0.4554 -0.0080 -0.8902
vn -0.1827 -0.1069 -0.9773
vn -0.5904 0.3314 -0.7359
vn -0.7415 0.6543 -0.1483
vn -0.6341 0.3188 -0.7045
vn -0.6614 -0.4015 -0.6335
vn 0.3270 -0.1809 -0.9275
vn 0.6892 -0.1773 -0.7026
vn 0.4996 0.3388 -0.7973
vn 0.0134 -0.9656 -0.2596
vn -0.9854 0.0862 -0.1469
vn -0.9407 0.3060 -0.1462
vn -0.7666 0.6339 -0.1027
vn -0.9690 0.1122 0.2201
vn -0.9276 0.1583 0.3384
vn -0.9927 -0.0587 0.1057
vn -0.9650 -0.1153 -0.2356
vn -0.9836 0.1178 -0.1363
vn -0.7746 0.0979 -0.6248
vn -0.7860 0.1818 -0.5909
vn -0.8061 0.2221 -0.5486
vn -0.7658 0.1636 -0.6219
vn -0.9780 0.2004 -0.0586
vn -0.8469 0.2504 -0.4691
vn -0.9696 0.2397 -0.0491
vn -0.8422 0.1076 -0.5283
vn -0.7763 0.1494 -0.6124
vn -0.8142 -0.0230 -0.5802
vn -0.9020 0.1627 -0.4000
vn -0.9062 0.0617 -0.4184
vn -0.8622 -0.0376 -0.5052
vn -0.6244 0.6927 -0.3610
vn -0.6793 0.6823 -0.2702
vn -0.6183 0.7304 -0.2903
vn -0.9770 0.1310 -0.1684
vn -0.9650 -0.0835 0.2484
vn -0.9217 0.1108 0.3716
vn -0.0335 0.9828 -0.1815
vn 0.0294 0.6819 -0.7309
vn -0.0736 0.6369 -0.7674
vn 0.1989 0.5877 -0.7843
vn 0.2074 0.9167 -0.3416
vn 0.1354 0.7262 -0.6740
vn -0.2930 0.9239 -0.2459
vn -0.0511 0.9915 -0.1198
vn -0.6730 0.6544 0.3446
vn -0.4408 0.8882 0.1297
vn -0.3655 0.8832 0.2938
vn -0.1283 0.9913 0.0283
vn -0.1901 0.8999 -0.3925
vn -0.4296 0.8231 0.3714
vn -0.6150 0.5131 0.5987
vn -0.6765 0.5172 0.5242
vn -0.1966 0.9691 0.1489
vn -0.5633 0.6881 0.4575
vn -0.5724 0.7465 0.3393
vn -0.8427 0.3562 0.4037
vn -0.8666 0.4966 0.0482
vn -0.3072 0.5406 0.7832
vn -0.5176 0.5365 0.6665
vn -0.8390 0.5429 -0.0363
vn -0.2948 0.9538 0.0582
vn 0.1492 0.9756 0.1611
vn -0.4346 0.2154 0.8745
vn -0.3921 0.3401 0.8547
vn 0.3610 0.2927 0.8855
vn -0.6140 0.0474 0.7879
vn 0.7976 0.5041 0.3314
vn 0.0264 0.8654 0.5005
vn 0.5567 0.6247 0.5475
vn -0.2929 0.9144 0.2795
vn -0.0511 0.4167 0.9076
vn 0.5883 0.3738 0.7170
vn -0.3826 0.4835 0.7873
vn -0.0545 0.7179 0.6940
vn -0.3314 0.6788 0.6554
vn 0.5358 0.7114 0.4548
vn -0.7661 0.4357 0.4725
vn -0.8467 0.5150 0.1338
vn -0.8410 0.5409 0.0124
vn -0.9737 0.1438 -0.1766
vn -0.9961 0.0341 -0.0813
vn -0.9994 0.0285 -0.0174
vn -0.9056 0.0481 -0.4213
vn -0.9828 -0.1416 -0.1188
vn -0.9804 -0.1669 0.1046
vn -0.9688 0.0296 0.2462
vn -0.9775 -0.0916 0.1900
vn -0.0761 0.1136 0.9906
vn -0.1297 -0.0596 0.9898
vn -0.9092 -0.3613 0.2069
vn -0.9073 -0.3627 0.2125
vn -0.4904 -0.8659 0.0985
vn -0.3524 -0.9251 0.1415
vn -0.0366 -0.9976 -0.0585
vn -0.0384 -0.9978 -0.0538
vn -0.0409 -0.9991 -0.0142
vn 0.0410 -0.9985 -0.0372
vn 0.0396 -0.9974 -0.0610
vn 0.0288 -0.9983 -0.0510
vn 0.0055 -0.9751 -0.2216
vn -0.0285 -0.6113 -0.7909
vn -0.0924 -0.5830 -0.8072
vn -0.0486 -0.9824 -0.1803
vn 0.0314 -0.9994 -0.0128
vn 0.0792 -0.9965 0.0268
vn -0.0539 -0.9969 -0.0575
vn -0.3452 -0.8812 -0.3230
vn 0.1348 -0.9861 0.0973
vn 0.2218 -0.9750 0.0108
vn -0.1040 -0.9557 -0.2754
vn 0.1275 -0.9916 -0.0219
vn 0.1587 -0.9873 0.0076
vn 0.0582 -0.9968 -0.0556
vn 0.0633 -0.9973 -0.0381
vn 0.2324 -0.9668 -0.1062
vn 0.3011 -0.9480 -0.1031
vn 0.2874 -0.9510 -0.1137
vn 0.0256 -0.9979 0.0600
vn 0.0425 -0.9906 0.1302
vn 0.0029 -0.9678 0.2519
vn 0.0522 -0.9603 0.2740
vn 0.0108 -0.9797 0.2001
vn -0.2886 -0.7529 0.5915
vn 0.1755 -0.6380 0.7498
vn 0.1783 -0.9363 0.3027
vn -0.1428 -0.1678 0.9754
vn -0.8068 -0.2488 0.5359
vn 0.8791 -0.0951 0.4671
vn 0.7798 -0.5552 0.2893
vn 0.2439 -0.9677 0.0634
vn -0.4479 -0.8279 -0.3375
vn -0.4979 -0.8667 -0.0294
vn -0.5421 -0.8199 0.1839
vn -0.7731 -0.2963 -0.5608
vn -0.9136 -0.3858 -0.1286
vn -0.9228 0.1671 -0.3472
vn -0.8521 -0.2732 -0.4465
vn -0.5060 -0.7954 -0.3336
vn -0.9065 0.1540 -0.3932
vn -0.6026 0.7824 -0.1571
vn -0.9001 -0.2170 -0.3778
vn -0.9986 -0.0324 -0.0428
vn -0.8668 0.4974 -0.0359
vn -0.9490 -0.3077 0.0679
vn -0.5885 -0.7605 -0.2744
vn -0.7134 -0.7007 0.0077
vn -0.1194 -0.9902 -0.0718
vn -0.3640 -0.8763 0.3155
vn 0.0953 -0.9879 -0.1220
vn 0.0357 -0.9992 -0.0155
vn 0.3718 -0.9193 -0.1287
vn 0.7924 -0.5117 -0.3321
vn 0.8786 -0.4200 -0.2272
vn 0.9529 0.2230 -0.2054
vn 0.9226 0.0320 -0.3843
vn 0.6987 -0.0925 0.7094
vn 0.9667 0.2277 0.1169
vn 0.8616 0.4883 -0.1387
vn -0.4485 -0.1143 0.8864
vn -0.8939 0.1415 0.4252
vn -0.9351 0.0169 0.3540
vn -0.9489 0.0453 0.3123
vn -0.8705 0.1404 0.4717
vn -0.8734 -0.3376 0.3511
vn -0.5694 -0.7694 0.2897
vn -0.8838 -0.1863 0.4292
vn -0.7793 -0.6009 0.1778
vn -0.4890 0.1585 0.8578
vn -0.4574 0.5243 0.7183
vn -0.6901 -0.2695 0.6717
vn -0.4933 0.6508 0.5772
vn 0.1847 0.3984 0.8984
vn 0.1091 0.8181 0.5646
vn 0.1295 0.9267 0.3529
vn 0.3013 0.9206 0.2484
vn 0.3070 0.9495 0.0642
vn 0.5922 0.5347 0.6028
vn 0.7855 0.5742 0.2308
vn 0.3395 0.9344 -0.1079
vn 0.2980 0.9111 -0.2847
vn 0.7076 0.2786 0.6494
vn 0.9218 0.0725 0.3807
vn -0.2733 0.2786 0.9207
vn 0.9172 -0.1455 0.3709
vn 0.9531 -0.0730 0.2937
vn -0.5215 0.5015 0.6903
vn 0.3794 0.7071 0.5967
vn 0.9119 0.0368 0.4088
vn 0.2465 0.5951 0.7649
vn 0.6947 0.1169 0.7097
vn -0.1443 -0.0349 0.9889
vn 0.4418 -0.6501 0.6182
vn -0.4412 -0.7740 0.4542
vn 0.0789 -0.9831 0.1651
vn -0.8412 -0.2309 0.4889
vn -0.4998 -0.8508 -0.1624
vn -0.8900 -0.4127 0.1938
vn 0.1398 -0.9710 -0.1941
vn 0.7279 -0.6833 0.0569
vn 0.7277 -0.6841 -0.0485
vn 0.1356 -0.9365 -0.3234
vn -0.4390 -0.8525 -0.2836
vn -0.2335 -0.9600 0.1545
vn 0.1177 -0.9834 0.1384
vn 0.6780 -0.6704 0.3015
vn 0.8522 0.0023 0.5232
vn 0.5614 -0.5046 0.6559
vn 0.1119 -0.9232 0.3676
vn 0.9791 0.1934 0.0627
vn 0.7147 0.3269 0.6183
vn 0.4621 -0.3156 0.8288
vn 0.8011 0.5971 0.0405
vn 0.8796 0.4562 -0.1348
vn 0.6308 0.1828 -0.7541
vn 0.5947 0.2531 -0.7630
vn 0.4591 0.6444 -0.6115
vn 0.1863 0.2727 -0.9439
vn 0.2077 0.6123 -0.7628
vn 0.8418 0.4597 -0.2828
vn 0.8835 0.4475 -0.1388
vn 0.8698 0.4810 0.1097
vn 0.6028 0.5030 -0.6194
vn 0.4282 0.8108 -0.3990
vn 0.4932 0.7240 0.4822
vn 0.7881 0.2495 0.5628
vn 0.8693 0.0233 0.4938
vn 0.6770 0.5875 0.4433
vn 0.6932 0.1230 0.7102
vn 0.7951 0.0040 0.6065
vn 0.8874 -0.0016 0.4611
vn 0.8281 0.0469 0.5586
vn 0.5853 0.0960 0.8051
vn 0.9007 0.3401 0.2703
vn 0.8468 0.3784 0.3739
vn 0.7144 0.5477 0.4354
vn 0.4922 -0.0599 0.8684
vn 0.3865 -0.0373 0.9215
vn 0.6410 0.5718 0.5121
vn 0.5626 0.7133 -0.4180
vn 0.6115 0.6477 -0.4545
vn 0.7444 0.5885 -0.3155
vn 0.6071 -0.5069 0.6120
vn 0.9573 -0.1139 0.2656
vn 0.7141 -0.4245 -0.5566
vn 0.6586 -0.5455 -0.5183
vn 0.8448 0.0228 0.5347
vn 0.9824 -0.1146 -0.1475
vn 0.2750 -0.2545 -0.9272
vn 0.1379 -0.3308 -0.9336
vn 0.9035 0.1287 -0.4089
vn 0.8566 0.0275 -0.5153
vn 0.9399 -0.0658 -0.3351
vn 0.7257 -0.6736 -0.1401
vn 0.6608 -0.7348 -0.1533
vn 0.9872 -0.0438 0.1532
vn 0.4376 -0.8985 0.0350
vn 0.5934 -0.6483 -0.4770
vn 0.0845 -0.9842 -0.1557
vn 0.1302 -0.9911 -0.0271
vn -0.0766 -0.9073 0.4135
vn 0.1363 -0.8954 0.4238
vn 0.0067 -0.9813 -0.1924
vn 0.1737 -0.9608 0.2159
vn 0.1915 -0.6482 -0.7370
vn 0.6386 -0.6302 -0.4416
vn 0.5866 -0.3479 0.7313
vn 0.9159 -0.3182 0.2447
vn 0.6650 0.2521 -0.7030
vn 0.8185 0.5675 0.0893
vn 0.6332 0.4804 0.6069
vn 0.9362 0.3390 0.0921
vn 0.7900 -0.5527 0.2653
vn 0.7936 -0.5444 0.2717
vn 0.8061 0.5914 0.0212
vn 0.1444 -0.9870 0.0712
vn 0.7827 0.5489 -0.2935
vn 0.8913 0.4420 -0.1013
vn 0.8745 -0.4590 -0.1564
vn 0.6248 -0.1099 -0.7730
vn 0.7618 -0.4078 -0.5033
vn 0.9601 0.1419 -0.2408
vn 0.9920 0.1061 -0.0686
vn 0.9767 0.1400 -0.1624
vn 0.9115 0.3967 -0.1086
vn 0.9057 0.3474 -0.2431
vn 0.9053 0.3567 -0.2307
vn 0.3498 0.8325 -0.4296
vn 0.3516 0.8772 -0.3269
vn 0.4098 0.7507 -0.5182
vn 0.9594 0.0086 0.2820
vn 0.8326 0.5473 0.0852
vn 0.2815 0.9047 -0.3200
vn 0.2125 0.6516 -0.7282
vn 0.8432 0.4122 -0.3451
vn 0.9872 -0.0062 0.1591
vn 0.3440 0.6003 -0.7221
vn -0.0201 0.1247 -0.9920
vn 0.8570 0.4971 0.1356
vn 0.6721 -0.6288 0.3910
vn 0.7015 -0.4873 0.5199
vn 0.6128 -0.7631 0.2055
vn 0.1087 -0.9733 0.2021
vn 0.1166 -0.9761 0.1834
vn 0.0740 -0.9849 0.1567
vn 0.6440 -0.6980 -0.3132
vn 0.8969 -0.3415 0.2809
vn 0.8269 0.5619 -0.0225
vn -0.3207 -0.8941 -0.3127
vn 0.3246 -0.5916 -0.7380
vn -0.2662 -0.9404 -0.2117
vn -0.4767 -0.0363 -0.8783
vn -0.3894 -0.4560 -0.8003
vn -0.0897 0.1531 -0.9841
vn 0.5495 0.6581 -0.5148
vn -0.2107 -0.9678 -0.1374
vn -0.4650 -0.6109 -0.6407
vn -0.2279 -0.9719 -0.0588
vn -0.5465 -0.6053 -0.5788
vn -0.0876 -0.9667 0.2406
vn -0.2003 -0.6120 0.7651
vn -0.1146 -0.9931 -0.0241
vn -0.3977 -0.4925 -0.7741
vn -0.7794 0.0979 -0.6188
vn -0.5184 -0.0206 -0.8549
vn -0.4937 0.5257 -0.6928
vn 0.7120 -0.1517 -0.6856
vn 0.2195 0.2860 -0.9328
vn 0.1467 -0.9869 -0.0677
vn 0.9495 0.2979 0.0982
vn -0.3356 0.1308 -0.9329
vn 0.9318 0.3517 0.0903
vn -0.5162 0.7493 0.4149
vn 0.2900 -0.2055 -0.9347
vn 0.9391 -0.1134 -0.3244
vn -0.4271 -0.1191 -0.8963
vn -0.4714 -0.0309 -0.8814
vn 0.1772 0.0497 -0.9829
vn -0.3587 0.6523 -0.6677
vn 0.1827 0.7393 -0.6482
vn 0.8107 0.2554 -0.5269
vn 0.5499 0.7230 -0.4183
vn 0.0949 0.9945 -0.0435
vn 0.4396 0.8982 -0.0086
vn 0.0070 0.9998 -0.0195
vn 0.3373 0.9413 -0.0114
vn 0.8881 0.4417 0.1271
vn 0.8274 0.5577 -0.0665
vn 0.2817 0.6178 -0.7342
vn -0.1596 0.5184 -0.8401
vn -0.1967 0.5038 -0.8411
vn -0.3408 0.5179 -0.7847
vn 0.9557 0.0828 -0.2824
vn 0.2219 0.1456 -0.9641
vn -0.3866 0.1146 -0.9151
vn -0.9272 0.1477 -0.3442
vn -0.5778 0.7514 -0.3186
vn 0.2699 0.6020 -0.7515
vn -0.8580 -0.1809 -0.4807
vn -0.1892 -0.0578 -0.9802
vn 0.0142 -0.0278 -0.9995
vn 0.8232 -0.0807 -0.5619
vn 0.9732 -0.0481 0.2248
vn 0.9807 0.0309 0.1933
vn 0.6323 -0.4834 0.6053
vn -0.9386 0.3161 0.1382
vn -0.8842 -0.0559 0.4637
vn -0.6745 -0.6556 0.3395
vn -0.5598 -0.5886 0.5833
vn -0.8036 0.1220 0.5825
vn -0.8159 0.5700 0.0963
vn -0.8107 0.5450 -0.2139
vn -0.0520 -0.9792 0.1960
vn -0.0541 -0.9879 -0.1450
vn 0.0401 -0.9328 -0.3582
vn -0.3652 0.8677 -0.3373
vn -0.4438 0.6238 -0.6434
vn -0.4828 0.8000 -0.3563
vn -0.2740 0.7569 -0.5933
vn 0.1029 0.9291 -0.3553
vn -0.0922 0.9957 0.0089
vn 0.2304 0.9473 -0.2227
vn 0.5132 0.6281 -0.5849
vn -0.0203 0.9972 0.0721
vn 0.4947 0.8681 0.0407
vn 0.2801 0.9396 0.1969
vn 0.6219 0.4687 -0.6273
vn 0.7509 0.2878 -0.5944
vn 0.2969 0.2796 -0.9130
vn 0.1856 0.2711 -0.9445
vn 0.7810 0.4714 0.4098
vn -0.0751 0.9007 0.4278
vn 0.4051 0.6034 0.6869
vn -0.2173 0.9441 0.2478
vn 0.3655 0.1663 0.9158
vn 0.3400 0.5885 0.7335
vn 0.8821 0.0007 0.4711
vn 0.8068 0.4857 0.3364
vn 0.8630 0.4121 0.2924
vn 0.9956 -0.0181 0.0918
vn -0.0380 0.9821 0.1843
vn 0.2551 0.9377 0.2359
vn 0.7761 0.4989 0.3857
vn 0.7146 0.5409 0.4436
vn 0.1151 0.9793 0.1663
vn -0.0405 0.9886 0.1449
vn -0.1739 0.7236 0.6680
vn 0.2847 0.4757 0.8322
vn -0.2205 0.7382 0.6375
vn -0.2312 0.9645 0.1273
vn -0.4445 0.7231 0.5287
vn -0.1300 0.9811 0.1434
vn -0.6823 0.1708 0.7109
vn -0.6855 -0.1775 0.7061
vn -0.3475 0.0322 0.9371
vn -0.3628 -0.2148 0.9068
vn -0.5853 -0.4337 0.6851
vn -0.3254 -0.5427 0.7743
vn -0.3214 -0.0215 0.9467
vn -0.2740 -0.2802 0.9200
vn -0.1940 -0.6404 0.7431
vn -0.1624 -0.9377 0.3070
vn 0.0441 -0.9517 0.3038
vn 0.1882 -0.6668 0.7211
vn 0.2781 -0.3778 0.8832
vn 0.4246 -0.7598 0.4924
vn 0.2012 -0.9758 0.0857
vn 0.4228 -0.8303 0.3630
vn 0.6502 -0.7578 -0.0547
vn 0.5049 -0.8516 -0.1409
vn 0.6237 -0.3439 0.7019
vn 0.6579 -0.3331 0.6755
vn 0.7083 -0.3690 0.6018
vn 0.8298 0.1201 0.5450
vn 0.8202 0.1304 0.5571
vn 0.8283 -0.1221 0.5469
vn 0.9842 -0.0427 -0.1717
vn 0.3457 -0.1708 0.9227
vn -0.8056 -0.2812 0.5215
vn -0.8344 0.1639 0.5262
vn -0.8358 0.4065 0.3691
vn -0.0459 0.8755 -0.4809
vn -0.7650 -0.3188 0.5595
vn 0.2753 0.3850 -0.8809
vn -0.8544 0.5154 -0.0657
vn -0.8801 0.1251 -0.4580
vn -0.0771 -0.9625 -0.2600
vn -0.3979 -0.6096 -0.6856
vn 0.6702 -0.1230 -0.7319
vn 0.6470 0.2384 -0.7242
vt 0.927985 0.673966
vt 0.927353 0.672194
vt 0.929122 0.673107
vt 0.929041 0.674322
vt 0.924381 0.671327
vt 0.924186 0.668797
vt 0.633650 0.987864
vt 0.632545 0.990549
vt 0.629772 0.987801
vt 0.631956 0.986884
vt 0.637401 0.983827
vt 0.631573 0.984427
vt 0.636775 0.981413
vt 0.637834 0.986231
vt 0.637350 0.988931
vt 0.645939 0.987278
vt 0.646641 0.983908
vt 0.645484 0.980605
vt 0.919972 0.664801
vt 0.920611 0.663718
vt 0.910944 0.657987
vt 0.912189 0.656073
vt 0.900572 0.652801
vt 0.904965 0.647238
vt 0.656901 0.983717
vt 0.654554 0.987266
vt 0.894620 0.648266
vt 0.898700 0.642347
vt 0.894922 0.653523
vt 0.887384 0.648973
vt 0.878847 0.648849
vt 0.882590 0.652901
vt 0.653464 0.978637
vt 0.660766 0.977390
vt 0.666476 0.983469
vt 0.644438 0.977878
vt 0.650258 0.972487
vt 0.655715 0.966970
vt 0.666257 0.977214
vt 0.660206 0.966489
vt 0.670943 0.983700
vt 0.672159 0.977005
vt 0.667399 0.965513
vt 0.278606 0.851788
vt 0.273602 0.846833
vt 0.274503 0.839169
vt 0.280281 0.847032
vt 0.673486 0.987232
vt 0.669338 0.986469
vt 0.281614 0.844757
vt 0.279745 0.839473
vt 0.263106 0.847126
vt 0.262245 0.841909
vt 0.259234 0.831453
vt 0.270150 0.828542
vt 0.277581 0.829451
vt 0.267443 0.818494
vt 0.277323 0.816798
vt 0.256907 0.821766
vt 0.252760 0.842849
vt 0.250008 0.835273
vt 0.246779 0.825244
vt 0.244528 0.814963
vt 0.253776 0.810571
vt 0.264636 0.809405
vt 0.239357 0.829235
vt 0.237851 0.819426
vt 0.242529 0.838782
vt 0.231163 0.823423
vt 0.233087 0.832573
vt 0.234655 0.841574
vt 0.225710 0.844573
vt 0.226010 0.836803
vt 0.226000 0.825311
vt 0.792157 0.308148
vt 0.797598 0.304260
vt 0.803523 0.306044
vt 0.797734 0.308995
vt 0.229685 0.815836
vt 0.237440 0.810167
vt 0.803792 0.301001
vt 0.810261 0.303429
vt 0.243112 0.807811
vt 0.811685 0.300441
vt 0.814958 0.302094
vt 0.241749 0.801720
vt 0.238003 0.804131
vt 0.820937 0.301572
vt 0.819725 0.299963
vt 0.825763 0.299765
vt 0.816936 0.298697
vt 0.821578 0.297672
vt 0.824218 0.298853
vt 0.826226 0.298372
vt 0.824949 0.297189
vt 0.815581 0.296530
vt 0.820366 0.295792
vt 0.823281 0.295864
vt 0.814626 0.294820
vt 0.821032 0.293624
vt 0.824442 0.294750
vt 0.805485 0.297389
vt 0.807149 0.293923
vt 0.810400 0.290327
vt 0.816540 0.293681
vt 0.247646 0.800543
vt 0.245997 0.804517
vt 0.243951 0.799238
vt 0.245276 0.795612
vt 0.240038 0.797166
vt 0.242905 0.794821
vt 0.826876 0.291501
vt 0.831621 0.296173
vt 0.798293 0.289686
vt 0.798034 0.285871
vt 0.795323 0.292624
vt 0.785811 0.290156
vt 0.785421 0.287307
vt 0.786576 0.285129
vt 0.273723 0.809888
vt 0.777735 0.285919
vt 0.781520 0.280858
vt 0.283694 0.816357
vt 0.285258 0.830625
vt 0.776910 0.289915
vt 0.767305 0.291936
vt 0.762758 0.288092
vt 0.758743 0.295163
vt 0.752948 0.293747
vt 0.291512 0.837672
vt 0.289142 0.842516
vt 0.284002 0.840301
vt 0.771750 0.295473
vt 0.765118 0.297736
vt 0.778580 0.293716
vt 0.778065 0.298905
vt 0.770553 0.302324
vt 0.784922 0.297825
vt 0.784505 0.292669
vt 0.791940 0.295288
vt 0.798182 0.298932
vt 0.792697 0.301644
vt 0.785540 0.304007
vt 0.776894 0.307362
vt 0.782796 0.312995
vt 0.770000 0.310040
vt 0.761768 0.305062
vt 0.775306 0.314713
vt 0.762946 0.310623
vt 0.752725 0.308688
vt 0.768569 0.317625
vt 0.756838 0.300591
vt 0.745493 0.302290
vt 0.753596 0.297669
vt 0.750511 0.295861
vt 0.737857 0.306802
vt 0.744788 0.313195
vt 0.732949 0.302096
vt 0.740006 0.299763
vt 0.295594 0.844468
vt 0.296647 0.841589
vt 0.301690 0.842872
vt 0.300783 0.845781
vt 0.296469 0.847566
vt 0.292941 0.846570
vt 0.300533 0.848250
vt 0.284119 0.845363
vt 0.288543 0.845238
vt 0.874149 0.628332
vt 0.874481 0.623103
vt 0.878167 0.625077
vt 0.878258 0.631796
vt 0.882897 0.634386
vt 0.884054 0.628537
vt 0.880820 0.640744
vt 0.876415 0.636497
vt 0.874930 0.642124
vt 0.885703 0.644054
vt 0.887890 0.637204
vt 0.890978 0.644285
vt 0.892928 0.639622
vt 0.896066 0.633018
vt 0.902880 0.636728
vt 0.889951 0.630768
vt 0.898741 0.625870
vt 0.891348 0.624437
vt 0.906013 0.629285
vt 0.909674 0.641191
vt 0.913842 0.633103
vt 0.901672 0.620021
vt 0.909171 0.621994
vt 0.916740 0.624693
vt 0.919053 0.617357
vt 0.911249 0.615383
vt 0.725457 0.300673
vt 0.722381 0.298567
vt 0.723544 0.295991
vt 0.728388 0.296682
vt 0.011237 0.900868
vt 0.010794 0.905391
vt 0.005682 0.903052
vt 0.006434 0.898601
vt 0.016291 0.902071
vt 0.014832 0.906677
vt 0.010127 0.909266
vt 0.014002 0.910524
vt 0.007116 0.909445
vt 0.721400 0.304902
vt 0.725369 0.308183
vt 0.729561 0.313883
vt 0.718421 0.314714
vt 0.714736 0.309351
vt 0.720832 0.322202
vt 0.735314 0.317566
vt 0.812081 0.276394
vt 0.818670 0.282430
vt 0.811718 0.287385
vt 0.807320 0.283235
vt 0.798015 0.283296
vt 0.797222 0.275016
vt 0.804384 0.277870
vt 0.805579 0.270886
vt 0.815085 0.268320
vt 0.823663 0.277802
vt 0.806913 0.262112
vt 0.797618 0.266046
vt 0.798473 0.257607
vt 0.815969 0.258382
vt 0.807132 0.252051
vt 0.800317 0.244609
vt 0.790941 0.261485
vt 0.792989 0.254061
vt 0.792658 0.246010
vt 0.809416 0.234872
vt 0.812714 0.241130
vt 0.791848 0.239826
vt 0.797308 0.237640
vt 0.803697 0.231707
vt 0.818675 0.228962
vt 0.818802 0.236228
vt 0.812001 0.228581
vt 0.815673 0.225516
vt 0.807143 0.227488
vt 0.799042 0.227893
vt 0.802995 0.225597
vt 0.794713 0.231997
vt 0.796211 0.223925
vt 0.801387 0.221576
vt 0.791981 0.227673
vt 0.792424 0.220627
vt 0.787316 0.225097
vt 0.800529 0.217693
vt 0.789334 0.231771
vt 0.782634 0.230891
vt 0.790043 0.235503
vt 0.784162 0.236962
vt 0.785630 0.241990
vt 0.786815 0.247396
vt 0.778341 0.239466
vt 0.779444 0.243501
vt 0.779618 0.247973
vt 0.786375 0.253387
vt 0.778753 0.253060
vt 0.784144 0.257599
vt 0.777517 0.257194
vt 0.772457 0.252459
vt 0.772447 0.247844
vt 0.770552 0.256628
vt 0.244207 0.845504
vt 0.235655 0.848329
vt 0.888261 0.788663
vt 0.884395 0.782799
vt 0.887807 0.779501
vt 0.892790 0.784457
vt 0.897946 0.779695
vt 0.893787 0.773512
vt 0.906062 0.785542
vt 0.899630 0.791066
vt 0.893575 0.796029
vt 0.899449 0.803475
vt 0.906358 0.799078
vt 0.912905 0.793526
vt 0.913079 0.781178
vt 0.918764 0.788231
vt 0.905989 0.772463
vt 0.920065 0.778335
vt 0.923465 0.782803
vt 0.927111 0.787642
vt 0.922948 0.793815
vt 0.917486 0.800055
vt 0.922551 0.804556
vt 0.927035 0.798279
vt 0.929105 0.791188
vt 0.930878 0.803080
vt 0.925592 0.807736
vt 0.918461 0.110452
vt 0.925756 0.113238
vt 0.926360 0.121440
vt 0.919209 0.119147
vt 0.919871 0.813521
vt 0.914968 0.811660
vt 0.911200 0.805668
vt 0.904653 0.810537
vt 0.908452 0.816891
vt 0.914174 0.816925
vt 0.911224 0.821358
vt 0.916770 0.817155
vt 0.901370 0.820210
vt 0.896914 0.813333
vt 0.892082 0.806216
vt 0.887624 0.799613
vt 0.886658 0.816490
vt 0.883277 0.808380
vt 0.881546 0.801315
vt 0.877679 0.812787
vt 0.878649 0.815802
vt 0.742572 0.241374
vt 0.750628 0.242663
vt 0.749141 0.244863
vt 0.741961 0.243426
vt 0.757490 0.241985
vt 0.757780 0.244619
vt 0.763212 0.240107
vt 0.764422 0.244262
vt 0.757270 0.248646
vt 0.764249 0.248232
vt 0.771502 0.240785
vt 0.771749 0.244405
vt 0.763960 0.253302
vt 0.776048 0.233983
vt 0.769918 0.235397
vt 0.763428 0.235811
vt 0.773122 0.228246
vt 0.777569 0.225725
vt 0.767539 0.229460
vt 0.769374 0.222984
vt 0.773274 0.221560
vt 0.792590 0.944032
vt 0.793704 0.947871
vt 0.785945 0.953523
vt 0.787227 0.944201
vt 0.797583 0.937041
vt 0.799488 0.941291
vt 0.762197 0.230767
vt 0.807840 0.934556
vt 0.803321 0.941528
vt 0.755287 0.237435
vt 0.756338 0.231822
vt 0.815041 0.941170
vt 0.824825 0.940728
vt 0.826683 0.946903
vt 0.747421 0.241241
vt 0.839364 0.953836
vt 0.833595 0.955217
vt 0.832934 0.968718
vt 0.836612 0.966676
vt 0.840595 0.956148
vt 0.839625 0.966534
vt 0.810029 0.216518
vt 0.811418 0.222163
vt 0.808954 0.222281
vt 0.807941 0.217475
vt 0.834704 0.978624
vt 0.832665 0.976495
vt 0.812328 0.216543
vt 0.813303 0.222227
vt 0.381884 0.900578
vt 0.387483 0.899780
vt 0.389783 0.907262
vt 0.384865 0.907467
vt 0.389764 0.915231
vt 0.384887 0.916068
vt 0.380420 0.907169
vt 0.375884 0.901954
vt 0.380204 0.913079
vt 0.382191 0.926387
vt 0.378034 0.921500
vt 0.375402 0.906358
vt 0.374738 0.915455
vt 0.367136 0.901012
vt 0.369041 0.896338
vt 0.370511 0.907006
vt 0.377989 0.895895
vt 0.354329 0.901913
vt 0.357891 0.895187
vt 0.821448 0.222589
vt 0.823200 0.216259
vt 0.827086 0.218328
vt 0.825296 0.223949
vt 0.833602 0.218862
vt 0.832074 0.226071
vt 0.828807 0.210462
vt 0.836430 0.211817
vt 0.844523 0.214739
vt 0.842075 0.221532
vt 0.840833 0.228155
vt 0.334878 0.923636
vt 0.341296 0.910379
vt 0.345867 0.912861
vt 0.341495 0.926983
vt 0.365503 0.904911
vt 0.346720 0.931537
vt 0.348906 0.925124
vt 0.360844 0.909564
vt 0.352815 0.913204
vt 0.351419 0.919523
vt 0.356589 0.913502
vt 0.354716 0.916336
vt 0.360119 0.914322
vt 0.358238 0.918620
vt 0.363619 0.916907
vt 0.361530 0.920567
vt 0.364578 0.912423
vt 0.368247 0.920317
vt 0.369547 0.914332
vt 0.362510 0.925945
vt 0.355475 0.924202
vt 0.353838 0.930201
vt 0.364064 0.931118
vt 0.371257 0.926245
vt 0.372820 0.930044
vt 0.363931 0.935077
vt 0.354761 0.935065
vt 0.348092 0.939155
vt 0.353059 0.939855
vt 0.898316 0.837696
vt 0.896177 0.832880
vt 0.901208 0.830753
vt 0.901534 0.839046
vt 0.341377 0.940943
vt 0.907338 0.843330
vt 0.902444 0.842597
vt 0.904379 0.838911
vt 0.345915 0.942394
vt 0.342065 0.945156
vt 0.335594 0.935647
vt 0.865998 0.221865
vt 0.858857 0.222252
vt 0.857307 0.214831
vt 0.864111 0.217134
vt 0.851608 0.222410
vt 0.850631 0.216084
vt 0.857453 0.227831
vt 0.849804 0.228344
vt 0.856207 0.231779
vt 0.849160 0.232751
vt 0.840904 0.233108
vt 0.863185 0.228566
vt 0.861129 0.231291
vt 0.861850 0.233175
vt 0.857934 0.234278
vt 0.850450 0.236078
vt 0.866055 0.234409
vt 0.861918 0.239503
vt 0.853665 0.239780
vt 0.844692 0.238781
vt 0.852226 0.244327
vt 0.861806 0.245374
vt 0.854259 0.253013
vt 0.843301 0.249415
vt 0.861909 0.253107
vt 0.867944 0.241872
vt 0.868160 0.245059
vt 0.867911 0.251798
vt 0.870697 0.257603
vt 0.863659 0.262243
vt 0.853835 0.261480
vt 0.872143 0.244538
vt 0.872541 0.250048
vt 0.875845 0.253354
vt 0.879951 0.248692
vt 0.871859 0.241211
vt 0.874659 0.239148
vt 0.880962 0.259926
vt 0.877694 0.256337
vt 0.887218 0.259914
vt 0.882367 0.265953
vt 0.935937 0.138959
vt 0.935816 0.130631
vt 0.939675 0.130032
vt 0.940202 0.137693
vt 0.932085 0.129975
vt 0.931560 0.138302
vt 0.870541 0.232260
vt 0.917473 0.820074
vt 0.923726 0.816204
vt 0.927383 0.821175
vt 0.918636 0.824367
vt 0.928377 0.809254
vt 0.913524 0.830298
vt 0.907932 0.830095
vt 0.905218 0.825478
vt 0.894007 0.823621
vt 0.904885 0.834784
vt 0.377505 0.932852
vt 0.891808 0.827539
vt 0.909033 0.833486
vt 0.907725 0.836194
vt 0.913209 0.834261
vt 0.911014 0.836935
vt 0.907365 0.838470
vt 0.909963 0.838365
vt 0.919719 0.835872
vt 0.913624 0.838068
vt 0.911706 0.839910
vt 0.908572 0.841352
vt 0.913663 0.842128
vt 0.917556 0.828282
vt 0.868728 0.227297
vt 0.935097 0.126306
vt 0.931330 0.125160
vt 0.932404 0.806100
vt 0.932858 0.122382
vt 0.935750 0.122329
vt 0.929276 0.119383
vt 0.939106 0.121240
vt 0.938282 0.125709
vt 0.933593 0.119348
vt 0.935039 0.118206
vt 0.936203 0.111250
vt 0.943827 0.122602
vt 0.942792 0.114696
vt 0.944039 0.127749
vt 0.948930 0.121151
vt 0.949822 0.125635
vt 0.949378 0.132666
vt 0.952672 0.468616
vt 0.951167 0.463891
vt 0.958287 0.461072
vt 0.961013 0.466611
vt 0.964081 0.472722
vt 0.953670 0.473875
vt 0.942545 0.464984
vt 0.939756 0.459600
vt 0.947504 0.458277
vt 0.954687 0.453719
vt 0.950106 0.444609
vt 0.942078 0.446503
vt 0.936283 0.447430
vt 0.942062 0.435424
vt 0.948900 0.435529
vt 0.938183 0.437883
vt 0.933140 0.444395
vt 0.935308 0.437743
vt 0.947801 0.094768
vt 0.942994 0.107783
vt 0.935315 0.103105
vt 0.943610 0.092297
vt 0.947594 0.086733
vt 0.939820 0.088931
vt 0.944113 0.083140
vt 0.931031 0.096067
vt 0.948581 0.078315
vt 0.948227 0.082100
vt 0.951133 0.079155
vt 0.950432 0.083609
vt 0.943028 0.079644
vt 0.947438 0.076678
vt 0.937476 0.084538
vt 0.943284 0.075097
vt 0.938215 0.080265
vt 0.948019 0.073682
vt 0.954033 0.074308
vt 0.948625 0.066557
vt 0.936133 0.435776
vt 0.936592 0.433265
vt 0.949230 0.429460
vt 0.948004 0.426139
vt 0.956444 0.424024
vt 0.959787 0.428956
vt 0.929337 0.088934
vt 0.922092 0.090998
vt 0.921160 0.086133
vt 0.926309 0.084479
vt 0.922707 0.098198
vt 0.968857 0.426302
vt 0.971405 0.421685
vt 0.977009 0.423913
vt 0.973721 0.428183
vt 0.973502 0.433152
vt 0.968177 0.431713
vt 0.968922 0.437090
vt 0.959464 0.435235
vt 0.974217 0.437589
vt 0.979273 0.431971
vt 0.978790 0.437858
vt 0.979707 0.427193
vt 0.926344 0.668092
vt 0.924709 0.666906
vt 0.921247 0.660487
vt 0.923826 0.663321
vt 0.673361 0.281095
vt 0.678947 0.281438
vt 0.679677 0.290685
vt 0.672696 0.286387
vt 0.928150 0.666704
vt 0.928120 0.665859
vt 0.979353 0.443071
vt 0.976614 0.444251
vt 0.687026 0.288265
vt 0.689835 0.295854
vt 0.683550 0.298151
vt 0.685692 0.280048
vt 0.916250 0.646745
vt 0.921112 0.636886
vt 0.692432 0.278030
vt 0.693778 0.286247
vt 0.923481 0.627700
vt 0.697849 0.279386
vt 0.701286 0.286305
vt 0.924878 0.618745
vt 0.696159 0.292657
vt 0.699725 0.291249
vt 0.710365 0.291360
vt 0.706339 0.295991
vt 0.923299 0.609556
vt 0.930526 0.610463
vt 0.717646 0.297717
vt 0.711249 0.302707
vt 0.917000 0.606478
vt 0.701468 0.299491
vt 0.705150 0.305874
vt 0.706918 0.312231
vt 0.710143 0.320564
vt 0.703871 0.327847
vt 0.698592 0.321086
vt 0.696275 0.308540
vt 0.696037 0.312936
vt 0.692760 0.318526
vt 0.690812 0.322605
vt 0.691316 0.328353
vt 0.968038 0.463861
vt 0.970201 0.469879
vt 0.838048 0.284348
vt 0.845770 0.277556
vt 0.855493 0.279929
vt 0.847927 0.288034
vt 0.682117 0.323639
vt 0.684893 0.319921
vt 0.687248 0.313548
vt 0.673257 0.325727
vt 0.675890 0.322737
vt 0.678671 0.317892
vt 0.677266 0.312972
vt 0.686983 0.309222
vt 0.677691 0.307839
vt 0.686246 0.304365
vt 0.694558 0.302970
vt 0.655075 0.962547
vt 0.656979 0.954881
vt 0.659637 0.957872
vt 0.974236 0.461081
vt 0.972177 0.457165
vt 0.979987 0.454971
vt 0.981908 0.457238
vt 0.906469 0.106252
vt 0.917398 0.107225
vt 0.905679 0.108332
vt 0.916068 0.103684
vt 0.904750 0.103225
vt 0.971576 0.450519
vt 0.978718 0.450199
vt 0.902269 0.098405
vt 0.913525 0.098764
vt 0.970017 0.443655
vt 0.924960 0.104490
vt 0.926491 0.109166
vt 0.930757 0.115493
vt 0.982142 0.422292
vt 0.651953 0.956805
vt 0.655421 0.953339
vt 0.650230 0.967190
vt 0.963008 0.451323
vt 0.960748 0.442691
vt 0.965216 0.458680
vt 0.943471 0.429679
vt 0.831384 0.278036
vt 0.835517 0.271686
vt 0.831157 0.286077
vt 0.826138 0.265620
vt 0.839900 0.264757
vt 0.851575 0.268961
vt 0.828749 0.256453
vt 0.841978 0.257014
vt 0.831286 0.249178
vt 0.861058 0.269188
vt 0.872060 0.269777
vt 0.873083 0.265375
vt 0.948461 0.137759
vt 0.955989 0.139623
vt 0.952935 0.142762
vt 0.944711 0.134244
vt 0.874931 0.259500
vt 0.833586 0.243001
vt 0.822049 0.242424
vt 0.824300 0.237854
vt 0.818137 0.248977
vt 0.822913 0.232859
vt 0.823574 0.228095
vt 0.833171 0.235177
vt 0.832012 0.231378
vt 0.713692 0.327534
vt 0.385772 0.894293
vt 0.826352 0.967878
vt 0.829427 0.958172
vt 0.822097 0.977992
vt 0.808041 0.219446
vt 0.806733 0.979034
vt 0.814209 0.974460
vt 0.814411 0.980944
vt 0.818330 0.968293
vt 0.811229 0.965918
vt 0.805497 0.971926
vt 0.796401 0.973607
vt 0.800455 0.967892
vt 0.805084 0.963938
vt 0.795155 0.966204
vt 0.789224 0.972944
vt 0.790440 0.966326
vt 0.797237 0.981252
vt 0.785635 0.962961
vt 0.790353 0.961494
vt 0.777924 0.218506
vt 0.782600 0.221924
vt 0.787619 0.217438
vt 0.790735 0.955690
vt 0.794601 0.961001
vt 0.796097 0.955489
vt 0.797933 0.946592
vt 0.799882 0.949087
vt 0.799260 0.961419
vt 0.801215 0.955019
vt 0.804635 0.948901
vt 0.806427 0.944092
vt 0.810679 0.945817
vt 0.807562 0.949901
vt 0.807253 0.954974
vt 0.811971 0.949823
vt 0.817965 0.946232
vt 0.818736 0.950211
vt 0.825106 0.952447
vt 0.826189 0.950589
vt 0.823011 0.954462
vt 0.819443 0.954974
vt 0.812959 0.954852
vt 0.824799 0.956903
vt 0.821568 0.961235
vt 0.812523 0.960155
vt 0.827260 0.956338
vt 0.806039 0.959670
vt 0.883525 0.792507
vt 0.227217 0.850972
vt 0.791539 0.270944
vt 0.791964 0.279194
vt 0.885253 0.623248
vt 0.009361 0.912828
vt 0.013276 0.914333
vt 0.879555 0.621358
vt 0.010655 0.918518
vt 0.014644 0.916707
vt 0.012668 0.919192
vt 0.008587 0.916498
vt 0.305077 0.851741
vt 0.303548 0.850700
vt 0.304989 0.851124
vt 0.307233 0.852008
vt 0.304945 0.850558
vt 0.305232 0.849628
vt 0.303012 0.849321
vt 0.303867 0.848096
vt 0.303751 0.850181
vt 0.300798 0.848916
vt 0.303002 0.850981
vt 0.016504 0.922643
vt 0.014373 0.924099
vt 0.014356 0.921965
vt 0.015656 0.919493
vt 0.006484 0.912499
s 1
usemtl abyss_chancel_background_pbr
f 1/1/1 2/2/2 5/3/3 4/4/4
f 1/1/1 3/5/5 568/6/6 2/2/2
f 7/7/7 3/8/5 1/9/1 4/10/4
f 6/11/8 4/10/4 5/12/3 500/13/9
f 4/10/4 6/11/8 8/14/10 7/7/7
f 3/8/5 7/7/7 8/14/10 10/15/11
f 12/16/12 10/15/11 8/14/10 9/17/13
f 8/14/10 6/11/8 21/18/14 9/17/13
f 10/19/11 11/20/15 568/6/6 3/5/5
f 10/19/11 12/21/12 13/22/16 11/20/15
f 14/23/17 15/24/18 13/22/16 12/21/12
f 12/16/12 9/17/13 17/25/19 14/26/17
f 15/24/18 14/23/17 16/27/20 126/28/21
f 17/29/19 18/30/22 16/27/20 14/23/17
f 121/31/23 18/30/22 17/29/19 19/32/24
f 9/17/13 21/18/14 20/33/25 17/25/19
f 23/34/26 19/35/24 17/25/19 20/33/25
f 412/36/27 22/37/28 20/33/25 21/18/14
f 24/38/29 23/34/26 20/33/25 22/37/28
f 25/39/30 23/34/26 24/38/29 26/40/31
f 23/34/26 25/39/30 28/41/32 19/35/24
f 27/42/33 25/39/30 26/40/31 199/43/34
f 25/44/30 27/45/33 30/46/35 28/47/32
f 19/35/24 28/41/32 29/48/36 121/49/23
f 29/50/36 28/47/32 30/46/35 32/51/37
f 192/52/38 31/53/39 30/46/35 27/45/33
f 30/46/35 31/53/39 36/54/40 33/55/41
f 34/56/42 32/51/37 30/46/35 33/55/41
f 34/56/42 33/55/41 35/57/43 81/58/44
f 33/55/41 36/54/40 38/59/45 35/57/43
f 36/54/40 31/53/39 190/60/46 37/61/47
f 36/54/40 37/61/47 40/62/48 38/59/45
f 40/62/48 41/63/49 39/64/50 38/59/45
f 35/57/43 38/59/45 39/64/50 79/65/51
f 42/66/52 43/67/53 41/63/49 40/62/48
f 37/61/47 44/68/54 42/66/52 40/62/48
f 48/69/55 43/67/53 42/66/52 45/70/56
f 46/71/57 45/70/56 42/66/52 44/68/54
f 46/71/57 103/72/58 47/73/59 45/70/56
f 48/69/55 45/70/56 47/73/59 49/74/60
f 49/75/60 51/76/61 50/77/62 48/78/55
f 43/67/53 48/69/55 50/79/62 52/80/63
f 53/81/64 52/82/63 50/77/62 51/76/61
f 41/63/49 43/67/53 52/80/63 54/83/65
f 57/84/66 55/85/67 52/82/63 53/81/64
f 56/86/68 54/83/65 52/80/63 55/87/67
f 56/88/68 55/85/67 58/89/69 60/90/70
f 57/84/66 59/91/71 58/89/69 55/85/67
f 59/91/71 63/92/72 61/93/73 58/89/69
f 60/90/70 58/89/69 61/93/73 62/94/74
f 64/95/75 62/94/74 61/93/73 63/92/72
f 59/91/71 68/96/76 65/97/77 63/92/72
f 63/92/72 65/97/77 67/98/78 64/95/75
f 68/96/76 70/99/79 66/100/80 65/97/77
f 66/100/80 75/101/81 67/98/78 65/97/77
f 59/91/71 57/84/66 69/102/82 68/96/76
f 70/99/79 68/96/76 69/102/82 71/103/83
f 70/99/79 71/103/83 39/104/50 72/105/84
f 70/106/79 72/107/84 73/108/85 66/109/80
f 54/83/65 72/107/84 39/64/50 41/63/49
f 54/83/65 56/86/68 73/108/85 72/107/84
f 60/110/70 74/111/86 73/108/85 56/86/68
f 73/112/85 74/113/86 75/101/81 66/100/80
f 74/113/86 64/95/75 67/98/78 75/101/81
f 74/113/86 60/90/70 62/94/74 64/95/75
f 76/114/87 79/115/51 39/104/50 71/103/83
f 76/114/87 71/103/83 69/102/82 77/116/88
f 567/117/89 78/118/90 76/114/87 77/116/88
f 76/114/87 78/118/90 80/119/91 79/115/51
f 35/57/43 79/65/51 80/120/91 81/58/44
f 82/121/92 81/122/44 80/119/91 78/118/90
f 81/58/44 82/123/92 84/124/93 34/56/42
f 83/125/94 82/121/92 78/118/90 567/117/89
f 83/125/94 87/126/95 84/127/93 82/121/92
f 88/128/96 85/129/97 84/127/93 87/126/95
f 84/124/93 85/130/97 114/131/98 86/132/99
f 32/51/37 34/56/42 84/124/93 86/132/99
f 87/126/95 89/133/100 90/134/101 88/128/96
f 83/125/94 92/135/102 89/133/100 87/126/95
f 91/136/103 100/137/104 90/134/101 89/133/100
f 92/135/102 94/138/105 91/136/103 89/133/100
f 83/125/94 567/117/89 93/139/106 92/135/102
f 94/138/105 92/135/102 93/139/106 95/140/107
f 95/140/107 97/141/108 96/142/109 94/138/105
f 96/142/109 98/143/110 91/136/103 94/138/105
f 53/81/64 51/76/61 96/142/109 97/141/108
f 49/75/60 98/143/110 96/142/109 51/76/61
f 99/144/111 100/137/104 91/136/103 98/143/110
f 98/143/110 49/75/60 47/145/59 99/144/111
f 99/144/111 101/146/112 104/147/113 100/137/104
f 101/146/112 99/144/111 47/145/59 103/148/58
f 102/149/114 105/150/115 104/147/113 101/146/112
f 101/146/112 103/148/58 550/151/116 102/149/114
f 104/147/113 106/152/117 90/134/101 100/137/104
f 108/153/118 106/152/117 104/147/113 105/150/115
f 90/134/101 106/152/117 107/154/119 88/128/96
f 107/154/119 106/152/117 108/153/118 111/155/120
f 109/156/121 108/153/118 105/150/115 149/157/122
f 108/153/118 109/156/121 142/158/123 110/159/124
f 112/160/125 111/161/120 108/162/118 110/163/124
f 85/129/97 88/128/96 107/154/119 111/155/120
f 111/161/120 112/160/125 114/131/98 85/130/97
f 113/164/126 115/165/127 114/131/98 112/160/125
f 113/164/126 112/160/125 110/163/124 566/166/128
f 119/167/129 86/132/99 114/131/98 116/168/130
f 114/169/98 115/170/127 117/171/131 116/172/130
f 118/173/132 116/172/130 117/171/131 554/174/133
f 118/173/132 120/175/134 119/176/129 116/172/130
f 120/175/134 121/31/23 29/177/36 119/176/129
f 86/132/99 119/167/129 29/50/36 32/51/37
f 121/31/23 120/175/134 122/178/135 18/30/22
f 118/173/132 123/179/136 122/178/135 120/175/134
f 122/178/135 124/180/137 16/27/20 18/30/22
f 125/181/138 124/180/137 122/178/135 123/179/136
f 125/181/138 126/28/21 16/27/20 124/180/137
f 126/28/21 125/181/138 127/182/139 130/183/140
f 125/181/138 123/179/136 128/184/141 127/182/139
f 129/185/142 127/182/139 128/184/141 141/186/143
f 132/187/144 130/183/140 127/182/139 129/185/142
f 15/24/18 126/28/21 130/183/140 131/188/145
f 133/189/146 131/188/145 130/183/140 132/187/144
f 129/185/142 137/190/147 134/191/148 132/187/144
f 134/191/148 136/192/149 133/189/146 132/187/144
f 427/193/150 136/192/149 134/191/148 135/194/151
f 138/195/152 135/196/151 134/197/148 137/198/147
f 137/199/147 139/200/153 142/201/123 138/202/152
f 139/200/153 137/199/147 129/203/142 141/204/143
f 140/205/154 139/200/153 141/204/143 552/206/155
f 140/205/154 110/207/124 142/201/123 139/200/153
f 144/208/156 138/195/152 142/158/123 143/209/157
f 146/210/158 143/209/157 142/158/123 109/156/121
f 145/211/159 431/212/160 144/208/156 143/209/157
f 145/211/159 143/209/157 146/210/158 147/213/161
f 149/157/122 148/214/162 146/210/158 109/156/121
f 151/215/163 147/216/161 146/217/158 148/218/162
f 149/219/122 551/220/164 150/221/165 148/218/162
f 151/215/163 148/218/162 150/221/165 153/222/166
f 151/215/163 152/223/167 473/224/168 147/216/161
f 151/215/163 153/222/166 155/225/169 152/223/167
f 154/226/170 153/222/166 150/221/165 551/220/164
f 153/222/166 154/226/170 157/227/171 155/225/169
f 494/228/172 152/223/167 155/225/169 156/229/173
f 156/229/173 155/225/169 157/227/171 159/230/174
f 157/227/171 154/226/170 550/231/116 158/232/175
f 158/232/175 161/233/176 159/230/174 157/227/171
f 156/229/173 159/230/174 162/234/177 165/235/178
f 180/236/179 160/237/180 159/230/174 161/233/176
f 160/237/180 166/238/181 162/234/177 159/230/174
f 165/235/178 162/234/177 163/239/182 492/240/183
f 164/241/184 254/242/185 163/239/182 162/234/177
f 167/243/186 164/241/184 162/234/177 166/238/181
f 166/238/181 168/244/187 169/245/188 167/243/186
f 166/238/181 160/237/180 170/246/189 168/244/187
f 171/247/190 173/248/191 169/245/188 168/244/187
f 171/247/190 168/244/187 170/246/189 174/249/192
f 172/250/193 171/247/190 174/249/192 175/251/194
f 171/247/190 172/250/193 507/252/195 173/248/191
f 174/249/192 176/253/196 177/254/197 175/251/194
f 170/246/189 178/255/198 176/253/196 174/249/192
f 178/255/198 179/256/199 177/254/197 176/253/196
f 178/255/198 180/236/179 181/257/200 179/256/199
f 170/246/189 160/237/180 180/236/179 178/255/198
f 180/236/179 161/233/176 183/258/201 181/257/200
f 233/259/202 179/256/199 181/257/200 182/260/203
f 181/257/200 183/258/201 184/261/204 182/260/203
f 158/232/175 185/262/205 183/258/201 161/233/176
f 185/262/205 187/263/206 184/261/204 183/258/201
f 185/262/205 158/232/175 550/231/116 186/264/207
f 185/262/205 186/264/207 189/265/208 187/263/206
f 187/263/206 188/266/209 231/267/210 184/261/204
f 187/263/206 189/265/208 190/268/46 188/266/209
f 44/68/54 37/61/47 190/60/46 189/269/208
f 186/270/207 46/71/57 44/68/54 189/269/208
f 193/271/211 188/272/209 190/273/46 191/274/212
f 192/275/38 191/274/212 190/273/46 31/276/39
f 192/275/38 197/277/213 194/278/214 191/274/212
f 194/278/214 195/279/215 193/271/211 191/274/212
f 217/280/216 195/279/215 194/278/214 196/281/217
f 198/282/218 196/281/217 194/278/214 197/277/213
f 199/283/34 200/284/219 198/282/218 197/277/213
f 27/285/33 199/283/34 197/277/213 192/275/38
f 200/284/219 199/283/34 26/286/31 201/287/220
f 204/288/221 202/289/222 200/284/219 201/287/220
f 202/289/222 203/290/223 198/282/218 200/284/219
f 208/291/224 203/290/223 202/289/222 205/292/225
f 202/289/222 204/288/221 207/293/226 205/292/225
f 208/291/224 205/292/225 206/294/227 209/295/228
f 207/296/226 460/297/229 206/298/227 205/299/225
f 209/295/228 213/300/230 210/301/231 208/291/224
f 203/290/223 208/291/224 210/301/231 214/302/232
f 215/303/233 214/302/232 210/301/231 211/304/234
f 210/301/231 212/305/235 341/306/236 211/304/234
f 210/301/231 213/300/230 340/307/237 212/305/235
f 214/302/232 215/303/233 217/280/216 196/281/217
f 214/302/232 196/281/217 198/282/218 203/290/223
f 211/304/234 346/308/238 216/309/239 215/303/233
f 216/309/239 218/310/240 217/280/216 215/303/233
f 219/311/241 195/279/215 217/280/216 218/310/240
f 218/310/240 216/309/239 221/312/242 220/313/243
f 219/311/241 218/310/240 220/313/243 224/314/244
f 222/315/245 220/313/243 221/312/242 258/316/246
f 251/317/247 223/318/248 220/319/243 222/320/245
f 225/321/249 224/322/244 220/319/243 223/318/248
f 225/321/249 227/323/250 226/324/251 224/322/244
f 219/325/241 224/322/244 226/324/251 228/326/252
f 226/324/251 227/323/250 230/327/253 229/328/254
f 226/324/251 229/328/254 231/267/210 228/326/252
f 230/327/253 233/259/202 182/260/203 229/328/254
f 182/260/203 184/261/204 231/267/210 229/328/254
f 231/267/210 188/266/209 193/329/211 228/326/252
f 234/330/255 233/259/202 230/327/253 232/331/256
f 243/332/257 232/331/256 230/327/253 227/323/250
f 233/259/202 234/330/255 177/254/197 179/256/199
f 235/333/258 236/334/259 177/254/197 234/330/255
f 235/333/258 234/330/255 232/331/256 238/335/260
f 236/334/259 235/333/258 237/336/261 518/337/262
f 238/338/260 239/339/263 237/340/261 235/341/258
f 238/338/260 240/342/264 241/343/265 239/339/263
f 240/344/264 238/335/260 232/331/256 243/332/257
f 242/345/266 549/346/267 241/343/265 240/342/264
f 240/344/264 243/332/257 244/347/268 242/348/266
f 227/323/250 225/321/249 244/347/268 243/332/257
f 534/349/269 242/345/266 244/350/268 245/351/270
f 244/347/268 225/321/249 223/318/248 246/352/271
f 245/351/270 244/350/268 246/353/271 247/354/272
f 250/355/273 247/354/272 246/353/271 248/356/274
f 248/356/274 246/353/271 223/357/248 251/358/247
f 251/359/247 252/360/275 249/361/276 248/362/274
f 250/355/273 248/356/274 249/363/276 506/364/277
f 252/360/275 251/359/247 222/365/245 253/366/278
f 164/241/184 167/243/186 249/361/276 252/360/275
f 164/241/184 252/360/275 253/366/278 254/242/185
f 256/367/279 254/368/185 253/369/278 255/370/280
f 255/370/280 253/369/278 222/371/245 258/372/246
f 256/367/279 255/370/280 257/373/281 264/374/282
f 258/372/246 259/375/283 257/373/281 255/370/280
f 259/375/283 258/372/246 221/376/242 260/377/284
f 261/378/285 264/374/282 257/373/281 259/375/283
f 259/375/283 260/377/284 263/379/286 261/378/285
f 261/378/285 262/380/287 265/381/288 264/374/282
f 261/378/285 263/379/286 504/382/289 262/380/287
f 256/367/279 264/374/282 265/381/288 266/383/290
f 262/380/287 269/384/291 267/385/292 265/381/288
f 266/386/290 265/387/288 267/388/292 268/389/293
f 267/388/292 270/390/294 272/391/295 268/389/293
f 269/392/291 273/393/296 270/390/294 267/388/292
f 274/394/297 271/395/298 270/390/294 273/393/296
f 271/395/298 308/396/299 272/391/295 270/390/294
f 274/397/297 273/398/296 275/399/300 276/400/301
f 269/384/291 277/401/302 275/399/300 273/398/296
f 298/402/303 276/400/301 275/399/300 278/403/304
f 281/404/305 279/405/306 275/399/300 277/401/302
f 280/406/307 278/403/304 275/399/300 279/405/306
f 279/405/306 282/407/308 283/408/309 280/406/307
f 281/404/305 284/409/310 282/407/308 279/405/306
f 284/409/310 285/410/311 283/408/309 282/407/308
f 284/409/310 286/411/312 289/412/313 285/410/311
f 284/409/310 281/404/305 287/413/314 286/411/312
f 288/414/315 286/411/312 287/413/314 503/415/316
f 288/414/315 290/416/317 289/412/313 286/411/312
f 291/417/318 285/410/311 289/412/313 290/416/317
f 295/418/319 291/417/318 290/416/317 292/419/320
f 294/420/321 292/419/320 290/416/317 288/414/315
f 348/421/322 293/422/323 292/419/320 294/420/321
f 293/422/323 296/423/324 295/418/319 292/419/320
f 298/402/303 278/403/304 295/418/319 296/423/324
f 280/406/307 291/417/318 295/418/319 278/403/304
f 299/424/325 298/402/303 296/423/324 297/425/326
f 296/426/324 293/427/323 344/428/327 297/429/326
f 298/402/303 299/424/325 301/430/328 276/400/301
f 300/431/329 299/432/325 297/429/326 360/433/330
f 300/434/329 302/435/331 301/430/328 299/424/325
f 274/397/297 276/400/301 301/430/328 304/436/332
f 359/437/333 303/438/334 301/439/328 302/440/331
f 305/441/335 304/442/332 301/439/328 303/438/334
f 271/395/298 274/394/297 304/442/332 305/441/335
f 303/438/334 309/443/336 306/444/337 305/441/335
f 305/441/335 306/444/337 308/396/299 271/395/298
f 311/445/338 307/446/339 306/444/337 309/443/336
f 307/446/339 499/447/340 308/396/299 306/444/337
f 309/443/336 303/438/334 359/437/333 310/448/341
f 311/445/338 309/443/336 310/448/341 312/449/342
f 311/445/338 312/449/342 315/450/343 313/451/344
f 316/452/345 307/446/339 311/445/338 313/451/344
f 315/450/343 501/453/346 314/454/347 313/451/344
f 313/451/344 314/454/347 318/455/348 316/452/345
f 307/446/339 316/452/345 317/456/349 499/447/340
f 317/456/349 316/452/345 318/455/348 319/457/350
f 321/458/351 319/457/350 318/455/348 314/454/347
f 320/459/352 487/460/353 317/456/349 319/457/350
f 320/459/352 319/457/350 321/458/351 323/461/354
f 321/458/351 314/454/347 502/462/355 322/463/356
f 325/464/357 323/461/354 321/458/351 322/463/356
f 325/464/357 326/465/358 324/466/359 323/461/354
f 320/459/352 323/461/354 324/466/359 480/467/360
f 322/463/356 329/468/361 327/469/362 325/464/357
f 326/465/358 325/464/357 327/469/362 328/470/363
f 331/471/364 328/470/363 327/469/362 329/468/361
f 329/468/361 322/463/356 502/462/355 330/472/365
f 331/471/364 329/468/361 330/472/365 334/473/366
f 331/471/364 332/474/367 486/475/368 328/470/363
f 332/474/367 331/471/364 333/476/369 483/477/370
f 334/478/366 335/479/371 333/480/369 331/481/364
f 338/482/372 335/479/371 334/478/366 337/483/373
f 336/484/374 334/473/366 330/472/365 501/453/346
f 339/485/375 337/486/373 334/487/366 336/488/374
f 338/489/372 337/486/373 213/300/230 209/295/228
f 337/486/373 339/485/375 340/307/237 213/300/230
f 336/488/374 342/490/376 341/306/236 339/485/375
f 340/307/237 339/485/375 341/306/236 212/305/235
f 345/491/377 343/492/378 341/306/236 342/490/376
f 346/308/238 211/304/234 341/306/236 343/492/378
f 346/308/238 343/492/378 344/428/327 347/493/379
f 345/491/377 349/494/380 344/428/327 343/492/378
f 346/308/238 347/493/379 221/312/242 216/309/239
f 348/421/322 260/377/284 221/376/242 347/495/379
f 348/496/322 347/493/379 344/428/327 293/427/323
f 348/421/322 294/420/321 263/379/286 260/377/284
f 349/494/380 345/491/377 350/497/381 352/498/382
f 350/497/381 345/491/377 342/490/376 351/499/383
f 354/500/384 352/498/382 350/497/381 351/499/383
f 353/501/385 360/433/330 349/494/380 352/498/382
f 352/498/382 354/500/384 356/502/386 353/501/385
f 351/499/383 359/503/333 355/504/387 354/500/384
f 355/504/387 357/505/388 356/502/386 354/500/384
f 356/502/386 357/505/388 358/506/389 353/501/385
f 302/507/331 357/505/388 355/504/387 359/503/333
f 302/507/331 300/431/329 358/506/389 357/505/388
f 360/433/330 353/501/385 358/506/389 300/431/329
f 342/490/376 310/508/341 359/503/333 351/499/383
f 360/433/330 297/429/326 344/428/327 349/494/380
f 501/453/346 310/448/341 342/509/376 336/484/374
f 363/510/390 335/479/371 338/482/372 361/511/391
f 338/489/372 209/295/228 206/294/227 361/512/391
f 362/513/392 365/514/393 363/510/390 361/511/391
f 361/511/391 206/298/227 463/515/394 362/513/392
f 367/516/395 364/517/396 363/510/390 365/514/393
f 363/510/390 364/517/396 333/480/369 335/479/371
f 362/513/392 462/518/397 366/519/398 365/514/393
f 367/516/395 365/514/393 366/519/398 368/520/399
f 369/521/400 367/516/395 368/520/399 370/522/401
f 367/516/395 369/521/400 371/523/402 364/517/396
f 369/521/400 370/522/401 375/524/403 372/525/404
f 372/525/404 374/526/405 371/523/402 369/521/400
f 372/527/404 375/528/403 376/529/406 373/530/407
f 372/527/404 373/530/407 437/531/408 374/532/405
f 370/533/401 379/534/409 377/535/410 375/528/403
f 377/535/410 378/536/411 376/529/406 375/528/403
f 381/537/412 378/536/411 377/535/410 380/538/413
f 383/539/414 380/538/413 377/535/410 379/534/409
f 381/537/412 380/538/413 382/540/415 470/541/416
f 383/539/414 384/542/417 382/540/415 380/538/413
f 384/542/417 383/539/414 385/543/418 388/544/419
f 383/545/414 379/546/409 387/547/420 385/548/418
f 388/549/419 385/548/418 386/550/421 390/551/422
f 386/550/421 385/548/418 387/547/420 402/552/423
f 390/551/422 391/553/424 389/554/425 388/549/419
f 388/549/419 389/554/425 398/555/426 384/556/417
f 390/551/422 392/557/427 395/558/428 391/553/424
f 390/551/422 386/550/421 394/559/429 392/557/427
f 393/560/430 392/557/427 394/559/429 399/561/431
f 392/557/427 393/560/430 396/562/432 395/558/428
f 391/553/424 395/558/428 396/562/432 397/563/433
f 382/564/415 397/563/433 396/562/432 393/560/430
f 391/553/424 397/563/433 398/555/426 389/554/425
f 382/540/415 384/542/417 398/565/426 397/566/433
f 399/567/431 394/568/429 400/569/434 401/570/435
f 386/550/421 402/552/423 400/571/434 394/559/429
f 400/571/434 403/572/436 406/573/437 401/574/435
f 404/575/438 403/572/436 400/571/434 402/552/423
f 403/576/436 404/577/438 457/578/439 405/579/440
f 405/579/440 408/580/441 406/581/437 403/576/436
f 406/581/437 407/582/442 469/583/443 401/570/435
f 409/584/444 407/582/442 406/581/437 408/580/441
f 408/580/441 410/585/445 414/586/446 409/584/444
f 405/579/440 413/587/447 410/585/445 408/580/441
f 500/588/9 411/589/448 410/590/445 412/591/27
f 11/20/15 13/22/16 410/590/445 411/589/448
f 13/592/16 417/593/449 414/594/446 410/595/445
f 22/596/28 412/591/27 410/590/445 413/597/447
f 414/586/446 415/598/450 454/599/451 409/584/444
f 416/600/452 448/601/453 415/602/450 414/594/446
f 418/603/454 416/600/452 414/594/446 417/593/449
f 417/604/449 131/188/145 133/189/146 418/605/454
f 131/188/145 417/604/449 13/22/16 15/24/18
f 416/600/452 418/603/454 419/606/455 421/607/456
f 419/608/455 418/605/454 133/189/146 136/192/149
f 421/607/456 419/606/455 420/609/457 423/610/458
f 136/192/149 427/193/150 420/611/457 419/608/455
f 448/601/453 416/600/452 421/607/456 422/612/459
f 421/607/456 423/610/458 424/613/460 422/612/459
f 425/614/461 426/615/462 424/613/460 423/610/458
f 425/616/461 423/617/458 420/611/457 427/193/150
f 426/615/462 425/614/461 428/618/463 429/619/464
f 425/616/461 427/193/150 135/194/151 428/620/463
f 431/212/160 429/619/464 428/618/463 144/208/156
f 144/208/156 428/618/463 135/196/151 138/195/152
f 449/621/465 426/615/462 429/619/464 430/622/466
f 429/619/464 431/212/160 432/623/467 430/622/466
f 145/211/159 433/624/468 432/623/467 431/212/160
f 433/624/468 438/625/469 435/626/470 432/623/467
f 446/627/471 430/622/466 432/623/467 434/628/472
f 434/628/472 432/623/467 435/626/470 439/629/473
f 440/630/474 439/629/473 435/626/470 436/631/475
f 436/632/475 435/633/470 437/531/408 373/530/407
f 438/634/469 471/635/476 437/636/408 435/637/470
f 440/630/474 442/638/477 441/639/478 439/629/473
f 439/629/473 441/639/478 443/640/479 434/628/472
f 441/639/478 442/638/477 207/641/226 204/642/221
f 441/639/478 204/642/221 201/643/220 443/640/479
f 443/640/479 201/643/220 26/644/31 444/645/480
f 446/627/471 434/628/472 443/640/479 444/645/480
f 444/645/480 26/644/31 24/646/29 445/647/481
f 447/648/482 446/627/471 444/645/480 445/647/481
f 447/648/482 449/621/465 430/622/466 446/627/471
f 448/601/453 422/612/459 449/621/465 447/648/482
f 447/648/482 445/647/481 415/602/450 448/601/453
f 449/621/465 422/612/459 424/613/460 426/615/462
f 24/38/29 464/649/483 415/650/450 445/651/481
f 440/652/474 452/653/484 450/654/485 442/655/477
f 450/656/485 451/657/486 207/296/226 442/658/477
f 456/659/487 451/657/486 450/656/485 453/660/488
f 455/661/489 453/662/488 450/654/485 452/653/484
f 456/659/487 453/660/488 454/663/451 457/664/439
f 455/661/489 465/665/490 454/599/451 453/662/488
f 458/666/491 456/659/487 457/664/439 404/575/438
f 458/666/491 459/667/492 451/657/486 456/659/487
f 404/575/438 402/552/423 387/547/420 458/666/491
f 458/666/491 387/547/420 368/520/399 459/667/492
f 460/297/229 459/667/492 368/520/399 461/668/493
f 459/667/492 460/297/229 207/296/226 451/657/486
f 460/297/229 461/668/493 463/515/394 206/298/227
f 462/518/397 362/513/392 463/515/394 461/668/493
f 461/668/493 368/520/399 366/519/398 462/518/397
f 413/587/447 405/579/440 457/578/439 464/669/483
f 464/649/483 457/670/439 454/671/451 415/650/450
f 413/672/447 464/649/483 24/38/29 22/37/28
f 465/665/490 455/661/489 466/673/494 468/674/495
f 466/673/494 455/661/489 452/653/484 467/675/496
f 376/529/406 378/536/411 466/673/494 467/675/496
f 381/537/412 468/674/495 466/673/494 378/536/411
f 407/582/442 465/665/490 468/674/495 469/583/443
f 470/541/416 469/583/443 468/674/495 381/537/412
f 399/567/431 401/570/435 469/583/443 470/541/416
f 399/567/431 470/541/416 382/540/415 393/676/430
f 436/632/475 373/530/407 376/529/406 467/675/496
f 436/632/475 467/675/496 452/653/484 440/652/474
f 407/582/442 409/584/444 454/599/451 465/665/490
f 471/635/476 438/634/469 472/677/497 474/678/498
f 433/679/468 473/224/168 472/677/497 438/634/469
f 475/680/499 474/678/498 472/677/497 473/224/168
f 471/635/476 474/678/498 476/681/500 479/682/501
f 474/678/498 475/680/499 477/683/502 476/681/500
f 478/684/503 476/681/500 477/683/502 488/685/504
f 480/467/360 479/682/501 476/681/500 478/684/503
f 479/682/501 480/467/360 324/466/359 481/686/505
f 479/682/501 481/686/505 437/636/408 471/635/476
f 482/687/506 481/686/505 324/466/359 484/688/507
f 482/689/506 374/526/405 437/690/408 481/691/505
f 374/526/405 482/689/506 483/692/370 371/523/402
f 484/688/507 332/474/367 483/477/370 482/687/506
f 324/466/359 326/465/358 485/693/508 484/688/507
f 332/474/367 484/688/507 485/693/508 486/475/368
f 328/470/363 486/475/368 485/693/508 326/465/358
f 371/523/402 483/692/370 333/480/369 364/517/396
f 320/459/352 480/467/360 478/684/503 487/460/353
f 489/694/509 487/460/353 478/684/503 488/685/504
f 488/685/504 490/695/510 491/696/511 489/694/509
f 488/685/504 477/683/502 493/697/512 490/695/510
f 492/240/183 495/698/513 491/696/511 490/695/510
f 492/240/183 490/695/510 493/697/512 165/235/178
f 493/697/512 494/228/172 156/229/173 165/235/178
f 475/680/499 494/228/172 493/697/512 477/683/502
f 494/228/172 475/680/499 473/224/168 152/223/167
f 495/698/513 492/240/183 163/239/182 496/699/514
f 497/700/515 489/694/509 491/696/511 495/698/513
f 497/700/515 495/698/513 496/699/514 498/701/516
f 498/701/516 499/447/340 317/456/349 497/700/515
f 489/694/509 497/700/515 317/456/349 487/460/353
f 499/447/340 498/701/516 272/391/295 308/396/299
f 272/391/295 498/701/516 496/699/514 268/389/293
f 268/389/293 496/699/514 163/239/182 266/386/290
f 145/211/159 147/213/161 473/702/168 433/624/468
f 500/13/9 412/36/27 21/18/14 6/11/8
f 411/589/448 500/588/9 5/3/3 2/2/2
f 411/589/448 2/2/2 568/6/6 11/20/15
f 379/546/409 370/522/401 368/520/399 387/547/420
f 501/453/346 330/472/365 502/462/355 314/454/347
f 312/449/342 310/448/341 501/453/346 315/450/343
f 288/414/315 503/415/316 263/379/286 294/420/321
f 291/417/318 280/406/307 283/408/309 285/410/311
f 263/379/286 503/415/316 277/401/302 504/382/289
f 277/401/302 503/415/316 287/413/314 281/404/305
f 262/380/287 504/382/289 277/401/302 269/384/291
f 256/367/279 266/383/290 163/703/182 254/368/185
f 250/355/273 505/704/517 541/705/518 247/354/272
f 250/355/273 506/364/277 507/706/195 505/704/517
f 249/361/276 173/248/191 507/252/195 506/707/277
f 510/708/519 508/709/520 507/706/195 172/710/193
f 509/711/521 505/704/517 507/706/195 508/709/520
f 512/712/522 509/711/521 508/709/520 511/713/523
f 511/713/523 508/709/520 510/708/519 514/714/524
f 511/713/523 513/715/525 545/716/526 512/712/522
f 513/715/525 511/713/523 514/714/524 515/717/527
f 514/714/524 516/718/528 517/719/529 515/717/527
f 514/714/524 510/708/519 519/720/530 516/718/528
f 518/721/262 520/722/531 517/719/529 516/718/528
f 518/337/262 516/723/528 519/724/530 236/334/259
f 172/250/193 175/251/194 519/724/530 510/725/519
f 519/724/530 175/251/194 177/254/197 236/334/259
f 518/721/262 237/340/261 522/726/532 520/722/531
f 521/727/533 520/722/531 522/726/532 524/728/534
f 521/727/533 515/717/527 517/719/529 520/722/531
f 239/339/263 523/729/535 522/726/532 237/340/261
f 522/726/532 523/729/535 526/730/536 524/728/534
f 546/731/537 521/727/533 524/728/534 525/732/538
f 525/732/538 524/728/534 526/730/536 528/733/539
f 523/729/535 549/346/267 527/734/540 526/730/536
f 528/733/539 526/730/536 527/734/540 530/735/541
f 525/732/538 528/733/539 529/736/542 547/737/543
f 530/735/541 531/738/544 529/736/542 528/733/539
f 531/738/544 530/735/541 532/739/545 535/740/546
f 530/735/541 527/734/540 534/349/269 532/739/545
f 536/741/547 535/740/546 532/739/545 533/742/548
f 533/742/548 532/739/545 534/349/269 245/351/270
f 538/743/549 537/744/550 535/740/546 536/741/547
f 539/745/551 531/738/544 535/740/546 537/744/550
f 537/744/550 538/743/549 542/746/552 540/747/553
f 539/745/551 537/744/550 540/747/553 543/748/554
f 505/704/517 509/711/521 540/747/553 541/705/518
f 541/705/518 540/747/553 542/746/552 548/749/555
f 512/712/522 543/748/554 540/747/553 509/711/521
f 543/748/554 512/712/522 545/716/526 544/750/556
f 543/748/554 544/750/556 547/737/543 539/745/551
f 546/731/537 544/750/556 545/716/526 513/715/525
f 544/750/556 546/731/537 525/732/538 547/737/543
f 539/745/551 547/737/543 529/736/542 531/738/544
f 546/731/537 513/715/525 515/717/527 521/727/533
f 536/741/547 548/749/555 542/746/552 538/743/549
f 548/749/555 536/741/547 533/742/548 541/705/518
f 247/354/272 541/705/518 533/742/548 245/351/270
f 549/346/267 242/345/266 534/349/269 527/734/540
f 523/729/535 239/339/263 241/343/265 549/346/267
f 249/361/276 167/243/186 169/245/188 173/248/191
f 219/311/241 228/751/252 193/271/211 195/279/215
f 46/71/57 186/270/207 550/752/116 103/72/58
f 551/220/164 102/753/114 550/231/116 154/226/170
f 551/220/164 149/219/122 105/754/115 102/753/114
f 141/186/143 128/184/141 554/174/133 552/755/155
f 555/756/557 140/205/154 552/206/155 553/757/558
f 552/755/155 554/174/133 117/171/131 553/758/558
f 123/179/136 118/173/132 554/174/133 128/184/141
f 556/759/559 553/757/558 117/760/131 558/761/560
f 559/762/561 555/756/557 553/757/558 556/759/559
f 558/763/560 563/764/562 557/765/563 556/766/559
f 556/766/559 557/765/563 561/767/564 559/768/561
f 559/768/561 560/769/565 566/166/128 555/770/557
f 559/768/561 561/767/564 562/771/566 560/769/565
f 557/765/563 563/764/562 562/771/566 561/767/564
f 564/772/567 560/769/565 562/771/566 563/764/562
f 563/764/562 558/763/560 565/773/568 564/772/567
f 564/772/567 113/164/126 566/166/128 560/769/565
f 113/774/126 564/775/567 565/776/568 115/777/127
f 117/760/131 115/777/127 565/776/568 558/761/560
f 555/756/557 566/778/128 110/207/124 140/205/154
f 53/81/64 97/141/108 69/102/82 57/84/66
f 95/140/107 77/116/88 69/102/82 97/141/108
f 77/116/88 95/140/107 93/139/106 567/117/89
