# Blender 5.2.0 LTS
# www.blender.org
mtllib terrain-abyss-chancel-object-107.mtl
o terrain-abyss-chancel-object-107
v 0.446045 0.277972 -0.004158
v 0.437814 0.276298 -0.006124
v 0.445091 0.281560 -0.004427
v 0.445934 0.272028 -0.002154
v 0.451982 0.276564 -0.005630
v 0.442951 0.277042 -0.006514
v 0.469632 0.273514 -0.005890
v 0.455053 0.272020 -0.001822
v 0.454664 0.271486 -0.010470
v 0.470531 0.269855 -0.010479
v 0.455712 0.265607 -0.014996
v 0.443630 0.270592 -0.012274
v 0.446156 0.266704 -0.015219
v 0.436353 0.263375 -0.016351
v 0.442675 0.261196 -0.017822
v 0.434157 0.248194 -0.017191
v 0.434738 0.272716 -0.011274
v 0.428780 0.259969 -0.016114
v 0.429008 0.246712 -0.014664
v 0.426502 0.257723 -0.011633
v 0.428159 0.269167 -0.013418
v 0.429591 0.275212 -0.009704
v 0.424010 0.265954 -0.011788
v 0.421419 0.273452 -0.010683
v 0.421964 0.264245 -0.008553
v 0.418980 0.268487 -0.007549
v 0.423628 0.256751 -0.008358
v 0.423795 0.263695 -0.003774
v 0.434247 0.264980 -0.005725
v 0.422437 0.269519 -0.002603
v 0.423376 0.255951 -0.005353
v 0.428982 0.255033 -0.004418
v 0.421779 0.245170 -0.006111
v 0.426146 0.244186 -0.003814
v 0.422895 0.245620 -0.008823
v 0.420447 0.228886 -0.007281
v 0.421804 0.229156 -0.009224
v 0.419060 0.207797 -0.007392
v 0.424106 0.228232 -0.004425
v 0.429078 0.227780 -0.003063
v 0.423007 0.207684 -0.005106
v 0.424514 0.184396 -0.005414
v 0.427802 0.207537 -0.003846
v 0.432787 0.207794 -0.003784
v 0.429551 0.185161 -0.004328
v 0.434552 0.186039 -0.003719
v 0.433977 0.161802 -0.004076
v 0.438669 0.143789 -0.003729
v 0.440367 0.163159 -0.004614
v 0.428080 0.160804 -0.004648
v 0.431991 0.141995 -0.003748
v 0.422619 0.159628 -0.005991
v 0.425824 0.140164 -0.004959
v 0.419598 0.158348 -0.008678
v 0.419894 0.183682 -0.007178
v 0.419499 0.182985 -0.010468
v 0.420589 0.207757 -0.010312
v 0.424167 0.182383 -0.010272
v 0.429253 0.181864 -0.008957
v 0.424013 0.157472 -0.010109
v 0.425430 0.207518 -0.009096
v 0.429469 0.207368 -0.007620
v 0.426805 0.229281 -0.007958
v 0.430316 0.229762 -0.010357
v 0.427623 0.245666 -0.009565
v 0.433303 0.230985 -0.015192
v 0.438996 0.232483 -0.016236
v 0.433819 0.208146 -0.010642
v 0.434234 0.181514 -0.008430
v 0.438824 0.208576 -0.013968
v 0.439757 0.181203 -0.011417
v 0.447893 0.209235 -0.014373
v 0.464181 0.208101 -0.015833
v 0.449098 0.233482 -0.015804
v 0.450939 0.179787 -0.012951
v 0.465090 0.180863 -0.013088
v 0.455861 0.138907 -0.007635
v 0.464049 0.140163 -0.005397
v 0.467020 0.150647 -0.010601
v 0.454018 0.149543 -0.006027
v 0.452858 0.133928 -0.008737
v 0.443477 0.151189 -0.009951
v 0.435937 0.155308 -0.008583
v 0.447282 0.135630 -0.009639
v 0.451652 0.125054 -0.009126
v 0.439454 0.136233 -0.008616
v 0.443199 0.123719 -0.008868
v 0.432488 0.136825 -0.008936
v 0.425242 0.137180 -0.009177
v 0.430044 0.156580 -0.009137
v 0.435963 0.122816 -0.008737
v 0.428499 0.122265 -0.008826
v 0.440156 0.110676 -0.008393
v 0.443291 0.101999 -0.008191
v 0.432245 0.109363 -0.008074
v 0.448064 0.111881 -0.008727
v 0.450399 0.098474 -0.008682
v 0.460007 0.114264 -0.006159
v 0.459733 0.102696 -0.009159
v 0.466522 0.105922 -0.004257
v 0.454050 0.112838 -0.004406
v 0.472926 0.115721 -0.004147
v 0.468716 0.117896 -0.008527
v 0.468788 0.128920 -0.009090
v 0.472161 0.123001 -0.004514
v 0.468634 0.104797 -0.009149
v 0.476708 0.117336 -0.009159
v 0.477362 0.105180 -0.008862
v 0.477556 0.128534 -0.010044
v 0.484215 0.116671 -0.008472
v 0.486143 0.128120 -0.009468
v 0.491192 0.116445 -0.005717
v 0.485464 0.104528 -0.007857
v 0.490142 0.092384 -0.007614
v 0.492624 0.103996 -0.005213
v 0.498038 0.092265 -0.006492
v 0.486159 0.095515 -0.003172
v 0.498804 0.101185 -0.002629
v 0.486738 0.106911 -0.003469
v 0.481637 0.110109 -0.003802
v 0.487746 0.116598 -0.003840
v 0.479689 0.100306 -0.003702
v 0.475385 0.108089 -0.003960
v 0.471168 0.098259 -0.003976
v 0.479139 0.090524 -0.003722
v 0.462651 0.094900 -0.004182
v 0.454386 0.091734 -0.003897
v 0.470740 0.086705 -0.004039
v 0.458405 0.103341 -0.004430
v 0.451189 0.100614 -0.003836
v 0.443808 0.099103 -0.003520
v 0.447897 0.110154 -0.003713
v 0.441224 0.108549 -0.003551
v 0.444539 0.120112 -0.003637
v 0.442365 0.131069 -0.003571
v 0.451787 0.123157 -0.005084
v 0.438431 0.117515 -0.003537
v 0.432304 0.115028 -0.004439
v 0.435327 0.128374 -0.003448
v 0.429291 0.125729 -0.004726
v 0.424625 0.123426 -0.006756
v 0.427777 0.111870 -0.006915
v 0.421348 0.138312 -0.006642
v 0.434747 0.108109 -0.004060
v 0.438195 0.100920 -0.003564
v 0.438481 0.099200 -0.008072
v 0.445863 0.090210 -0.004656
v 0.452008 0.078359 -0.005378
v 0.461528 0.082284 -0.004176
v 0.455621 0.083499 -0.009014
v 0.465219 0.069957 -0.004899
v 0.464857 0.070567 -0.009487
v 0.474672 0.074357 -0.004475
v 0.476104 0.061903 -0.004974
v 0.481105 0.051833 -0.004838
v 0.484865 0.064373 -0.003944
v 0.472420 0.061296 -0.009498
v 0.479217 0.064069 -0.009236
v 0.476149 0.052268 -0.009028
v 0.483323 0.053272 -0.009106
v 0.476702 0.040590 -0.008335
v 0.483771 0.041462 -0.008985
v 0.482264 0.040874 -0.005709
v 0.480480 0.030826 -0.009068
v 0.484541 0.031422 -0.008822
v 0.482373 0.030633 -0.007001
v 0.482020 0.025121 -0.009070
v 0.483101 0.020347 -0.009188
v 0.483243 0.024740 -0.007674
v 0.484603 0.024917 -0.008790
v 0.485923 0.024873 -0.007716
v 0.484810 0.020811 -0.008736
v 0.484915 0.018213 -0.008761
v 0.485895 0.021273 -0.007803
v 0.483934 0.020616 -0.008268
v 0.485919 0.018695 -0.007935
v 0.484600 0.018111 -0.008324
v 0.484054 0.017624 -0.009085
v 0.486663 0.031237 -0.007139
v 0.489325 0.041482 -0.006150
v 0.492016 0.054534 -0.005954
v 0.486587 0.065112 -0.008285
v 0.493319 0.063299 -0.006476
v 0.479327 0.077611 -0.008958
v 0.487246 0.078742 -0.008075
v 0.471992 0.091421 -0.009302
v 0.471718 0.075333 -0.009446
v 0.463452 0.087898 -0.009285
v 0.481126 0.092592 -0.008708
v 0.495109 0.079975 -0.007052
v 0.503252 0.079488 -0.005802
v 0.498347 0.067618 -0.006509
v 0.499575 0.061312 -0.005504
v 0.504164 0.067170 -0.005834
v 0.504506 0.063768 -0.003108
v 0.503787 0.059367 -0.005655
v 0.504130 0.058963 -0.003261
v 0.501402 0.057109 -0.004520
v 0.503432 0.072427 -0.002425
v 0.504331 0.079588 -0.001955
v 0.498778 0.068431 -0.003006
v 0.497373 0.078144 -0.002412
v 0.485646 0.078030 -0.003333
v 0.498564 0.085676 -0.002293
v 0.490078 0.086161 -0.002770
v 0.499600 0.092986 -0.002034
v 0.504740 0.085971 -0.001668
v 0.510711 0.086400 -0.001501
v 0.504964 0.093044 -0.001502
v 0.510315 0.093855 -0.001412
v 0.505578 0.101521 -0.001610
v 0.500922 0.101514 -0.002144
v 0.510150 0.101054 -0.001496
v 0.506169 0.108882 -0.001635
v 0.506889 0.116163 -0.001667
v 0.510491 0.108070 -0.001591
v 0.501908 0.109926 -0.002459
v 0.501585 0.109826 -0.004630
v 0.502577 0.117018 -0.002655
v 0.503899 0.116774 -0.004750
v 0.503202 0.126269 -0.004935
v 0.505845 0.125260 -0.005350
v 0.508463 0.124141 -0.001278
v 0.504009 0.132145 -0.002123
v 0.499255 0.134719 -0.006236
v 0.488822 0.136601 -0.009698
v 0.494605 0.129470 -0.005042
v 0.506896 0.134951 -0.005974
v 0.503247 0.151896 -0.008452
v 0.510693 0.151966 -0.007364
v 0.492638 0.152631 -0.010626
v 0.509182 0.175087 -0.010541
v 0.498152 0.177667 -0.012413
v 0.515442 0.201263 -0.013288
v 0.517140 0.175791 -0.009073
v 0.522962 0.175287 -0.006921
v 0.523290 0.198507 -0.011262
v 0.526555 0.220505 -0.013069
v 0.528238 0.197866 -0.007048
v 0.534322 0.196244 -0.004059
v 0.531764 0.218063 -0.007969
v 0.536490 0.215302 -0.003917
v 0.534568 0.235655 -0.011073
v 0.529186 0.238782 -0.014944
v 0.536004 0.251781 -0.014175
v 0.537628 0.234030 -0.005232
v 0.540921 0.248203 -0.007700
v 0.542277 0.232674 -0.004405
v 0.544885 0.231426 -0.002061
v 0.542241 0.213351 -0.006015
v 0.543370 0.246987 -0.002923
v 0.546776 0.253584 -0.004044
v 0.545516 0.245864 -0.000315
v 0.547376 0.252920 -0.000005
v 0.542634 0.245618 0.002075
v 0.541076 0.230931 0.001282
v 0.539008 0.246267 0.000634
v 0.544587 0.253929 0.001926
v 0.541027 0.254927 0.000686
v 0.546432 0.259493 0.001502
v 0.550955 0.264962 -0.000879
v 0.550160 0.256837 0.000250
v 0.542085 0.260605 0.000767
v 0.543606 0.266851 -0.001398
v 0.535880 0.261224 -0.002276
v 0.539088 0.255304 -0.002401
v 0.534106 0.261059 -0.006300
v 0.524157 0.263612 -0.001868
v 0.535990 0.268352 -0.001870
v 0.537968 0.271907 -0.004740
v 0.524073 0.269378 -0.001686
v 0.512533 0.269383 -0.001718
v 0.524645 0.272542 -0.007690
v 0.518391 0.272007 -0.008184
v 0.527667 0.268270 -0.010026
v 0.512806 0.273547 -0.005565
v 0.499768 0.272127 -0.005800
v 0.510774 0.267686 -0.010378
v 0.499522 0.267670 -0.010506
v 0.512361 0.260762 -0.014694
v 0.519148 0.267993 -0.010261
v 0.522762 0.262121 -0.014569
v 0.527048 0.253240 -0.016584
v 0.531505 0.263670 -0.014052
v 0.539169 0.266127 -0.011385
v 0.535652 0.269167 -0.008826
v 0.542267 0.259410 -0.012377
v 0.544813 0.268458 -0.008805
v 0.547442 0.262943 -0.010709
v 0.552326 0.266860 -0.005575
v 0.553004 0.264363 -0.008646
v 0.558976 0.264337 -0.004189
v 0.561018 0.263096 -0.005275
v 0.558629 0.263642 -0.002446
v 0.557726 0.264283 -0.006033
v 0.558422 0.261768 -0.006365
v 0.553452 0.260567 -0.007668
v 0.558115 0.260322 -0.004338
v 0.560277 0.260964 -0.004296
v 0.557987 0.261705 -0.001601
v 0.554086 0.258843 -0.004141
v 0.554108 0.259650 -0.000902
v 0.550203 0.256801 -0.004144
v 0.549088 0.258838 -0.008255
v 0.545053 0.255209 -0.008686
v 0.515613 0.252891 -0.017295
v 0.501979 0.252228 -0.017987
v 0.518890 0.241673 -0.017233
v 0.518723 0.224211 -0.014599
v 0.504314 0.242717 -0.019459
v 0.505451 0.227066 -0.017257
v 0.486840 0.242097 -0.020493
v 0.486579 0.252662 -0.017913
v 0.486974 0.228668 -0.019916
v 0.466871 0.244751 -0.021175
v 0.464470 0.231494 -0.019962
v 0.451958 0.248312 -0.019736
v 0.469612 0.254845 -0.018397
v 0.454829 0.258251 -0.018810
v 0.470520 0.263373 -0.014679
v 0.486397 0.261765 -0.014788
v 0.500316 0.260887 -0.014937
v 0.486128 0.268306 -0.010645
v 0.485778 0.272472 -0.006024
v 0.485634 0.270115 -0.001532
v 0.469597 0.271086 -0.001873
v 0.484687 0.264945 -0.003777
v 0.500099 0.269675 -0.001461
v 0.500596 0.264126 -0.002975
v 0.512837 0.264303 -0.002441
v 0.501395 0.259920 -0.009475
v 0.484171 0.260021 -0.009914
v 0.513291 0.260259 -0.008292
v 0.502115 0.250810 -0.012905
v 0.483682 0.251154 -0.013283
v 0.502524 0.237981 -0.014243
v 0.514602 0.251817 -0.012322
v 0.514947 0.238155 -0.012293
v 0.524338 0.253490 -0.011509
v 0.532349 0.255197 -0.010651
v 0.523415 0.261245 -0.007034
v 0.526208 0.238967 -0.010392
v 0.521926 0.212578 -0.008379
v 0.532212 0.235128 -0.003897
v 0.536060 0.250083 -0.007902
v 0.536735 0.247903 -0.003531
v 0.538777 0.255308 -0.005658
v 0.527229 0.211810 -0.002761
v 0.536081 0.232187 0.001395
v 0.532402 0.211003 0.000937
v 0.538461 0.210629 0.000705
v 0.524514 0.185076 -0.001288
v 0.517871 0.184788 -0.002439
v 0.531811 0.187148 0.000198
v 0.512582 0.162397 -0.003009
v 0.500872 0.142640 -0.003066
v 0.522628 0.164074 -0.001575
v 0.500387 0.161751 -0.004659
v 0.490901 0.140218 -0.004545
v 0.481785 0.150280 -0.005497
v 0.497690 0.172922 -0.004476
v 0.510347 0.186986 -0.003961
v 0.482323 0.169411 -0.008572
v 0.463556 0.155174 -0.004225
v 0.472837 0.183639 -0.007663
v 0.498432 0.184356 -0.005058
v 0.487909 0.199540 -0.007715
v 0.509941 0.214822 -0.009303
v 0.498261 0.219105 -0.011561
v 0.479642 0.225979 -0.013801
v 0.482908 0.239787 -0.015578
v 0.472746 0.212929 -0.009870
v 0.460032 0.233903 -0.014242
v 0.456419 0.222192 -0.011144
v 0.447167 0.239174 -0.012073
v 0.462089 0.244077 -0.015715
v 0.450153 0.248951 -0.013876
v 0.464620 0.253995 -0.013731
v 0.453580 0.257324 -0.013876
v 0.467191 0.261679 -0.009769
v 0.468651 0.266204 -0.004033
v 0.455737 0.264299 -0.009551
v 0.455868 0.267156 -0.003934
v 0.445893 0.266419 -0.009948
v 0.438767 0.267073 -0.008827
v 0.446024 0.267062 -0.004334
v 0.444055 0.260260 -0.012541
v 0.441285 0.252427 -0.011936
v 0.436279 0.261684 -0.011180
v 0.432964 0.260876 -0.008268
v 0.434785 0.254161 -0.011350
v 0.431750 0.254602 -0.007253
v 0.433231 0.242814 -0.008796
v 0.438008 0.241795 -0.011677
v 0.434010 0.227986 -0.005007
v 0.430509 0.243514 -0.004146
v 0.436240 0.227679 -0.009376
v 0.444368 0.226162 -0.010820
v 0.436857 0.208436 -0.006129
v 0.439621 0.187818 -0.004049
v 0.441768 0.208712 -0.009724
v 0.443634 0.190710 -0.005173
v 0.452308 0.209315 -0.009426
v 0.460884 0.200309 -0.007162
v 0.457481 0.172052 -0.004208
v 0.448196 0.166160 -0.006139
v 0.480947 0.137154 -0.005351
v 0.469567 0.132158 -0.004847
v 0.480669 0.125369 -0.004553
v 0.487847 0.126938 -0.004222
v 0.481432 0.116349 -0.004109
v 0.531305 0.167445 -0.001152
v 0.510588 0.145726 -0.001865
v 0.516719 0.146326 -0.001201
v 0.523274 0.145753 -0.001234
v 0.510705 0.132319 -0.001171
v 0.516808 0.131615 -0.001335
v 0.517068 0.132226 -0.004355
v 0.513800 0.122750 -0.001419
v 0.511771 0.115129 -0.001691
v 0.514785 0.122722 -0.004450
v 0.512696 0.114888 -0.004169
v 0.510366 0.124114 -0.005258
v 0.512338 0.134534 -0.005655
v 0.508768 0.115753 -0.005124
v 0.507375 0.108842 -0.005183
v 0.506656 0.101093 -0.004954
v 0.511402 0.107959 -0.003911
v 0.511162 0.100877 -0.003688
v 0.513044 0.093699 -0.003289
v 0.513715 0.088137 -0.001689
v 0.509677 0.093171 -0.004452
v 0.504754 0.092007 -0.005462
v 0.512559 0.087119 -0.003710
v 0.510352 0.081845 -0.002185
v 0.516751 0.151122 -0.006192
v 0.522573 0.148219 -0.004317
v 0.529903 0.173410 -0.003706
v 0.536874 0.187739 -0.002752
v 0.542307 0.195038 -0.004443
v 0.543471 0.211631 -0.002542
v 0.440487 0.249433 -0.016680
v 0.485576 0.205639 -0.016350
v 0.483079 0.179701 -0.013972
v 0.502897 0.203545 -0.013466
v 0.480060 0.153744 -0.012341
v 0.478547 0.138146 -0.010721
v 0.468559 0.137679 -0.009949
v 0.493424 0.093104 -0.002669
v 0.446915 0.146303 -0.005220
v 0.434887 0.270955 -0.002783
v 0.416721 0.271753 -0.003635
v 0.423492 0.275583 -0.004105
v 0.417458 0.275217 -0.004902
v 0.416712 0.273725 -0.009412
v 0.415798 0.270447 -0.007198
v 0.434482 0.275939 -0.008089
v 0.440943 0.280714 -0.005099
vn -0.0381 0.0542 0.9978
vn 0.0240 0.2668 0.9634
vn -0.1476 0.9584 0.2443
vn 0.0056 0.0176 0.9998
vn 0.0926 0.9715 0.2184
vn -0.5356 0.8388 0.0976
vn 0.1787 0.9836 0.0237
vn 0.0471 0.1756 0.9833
vn 0.0368 0.5248 -0.8504
vn 0.0380 0.6004 -0.7988
vn 0.0879 0.6709 -0.7363
vn 0.0705 0.6653 -0.7432
vn 0.0997 0.9935 -0.0549
vn 0.0267 0.2735 0.9615
vn 0.0704 0.4750 -0.8772
vn 0.0790 0.5154 -0.8533
vn 0.0182 0.5286 -0.8487
vn -0.0793 0.2971 -0.9515
vn -0.0735 0.2457 -0.9665
vn 0.0169 0.5896 -0.8075
vn -0.0980 -0.0373 -0.9945
vn -0.2215 -0.0530 -0.9737
vn -0.7103 -0.1042 -0.6961
vn -0.4848 0.0595 -0.8726
vn -0.2134 0.3292 -0.9198
vn -0.5995 -0.0910 -0.7952
vn -0.7545 -0.1088 -0.6472
vn -0.6198 -0.0388 -0.7838
vn -0.0837 0.8053 -0.5869
vn -0.0935 0.9457 -0.3115
vn -0.3108 0.5149 -0.7989
vn -0.9267 -0.2844 -0.2455
vn -0.7383 -0.6373 -0.2208
vn -0.8926 -0.0810 -0.4436
vn -0.4614 -0.2816 0.8413
vn -0.2650 -0.1825 0.9468
vn -0.7603 0.0180 0.6493
vn 0.2569 -0.0356 0.9658
vn 0.3288 -0.4886 0.8082
vn -0.9211 0.0916 0.3785
vn -0.1564 0.0437 0.9867
vn -0.6625 0.0285 -0.7485
vn -0.9721 0.0620 0.2261
vn -0.3784 0.0089 0.9256
vn -0.4432 0.0480 -0.8951
vn -0.4798 0.0417 -0.8764
vn -0.9406 0.0225 0.3388
vn -0.3771 -0.0143 0.9261
vn -0.1024 -0.0179 0.9946
vn 0.1134 0.0274 0.9932
vn 0.4719 0.0661 0.8792
vn -0.1151 -0.0168 0.9932
vn -0.2795 -0.0149 0.9600
vn -0.7817 -0.0100 0.6235
vn 0.0765 0.0036 0.9971
vn 0.2708 0.0319 0.9621
vn 0.5979 0.0756 0.7980
vn -0.0202 0.0095 0.9998
vn 0.1040 0.0108 0.9945
vn -0.1807 0.0067 0.9835
vn -0.1156 0.0055 0.9933
vn 0.1042 0.0190 0.9944
vn 0.1872 -0.0259 0.9820
vn -0.5106 -0.0024 0.8598
vn -0.3236 -0.0214 0.9459
vn -0.9656 -0.0736 -0.2495
vn -0.9843 -0.1636 0.0664
vn -0.7486 -0.0137 -0.6629
vn 0.1468 0.0166 -0.9890
vn 0.1223 0.0048 -0.9925
vn -0.0888 -0.0420 -0.9952
vn 0.1136 -0.0007 -0.9935
vn 0.0834 0.0084 -0.9965
vn -0.1931 -0.0272 -0.9808
vn -0.1571 -0.0386 -0.9868
vn -0.6295 -0.1041 -0.7700
vn -0.4630 -0.1260 -0.8774
vn -0.4885 -0.0908 -0.8678
vn -0.1072 -0.0974 -0.9895
vn -0.2447 -0.0980 -0.9646
vn -0.2493 -0.0373 -0.9677
vn -0.2518 -0.0793 -0.9645
vn -0.0811 -0.0848 -0.9931
vn -0.0568 -0.0921 -0.9941
vn -0.1265 -0.1119 -0.9856
vn -0.1074 -0.1198 -0.9870
vn -0.0768 -0.1114 -0.9908
vn -0.0592 -0.0897 -0.9942
vn -0.0958 -0.1350 -0.9862
vn 0.1517 -0.9859 -0.0712
vn -0.1036 -0.0592 -0.9929
vn -0.0286 -0.0785 0.9965
vn -0.4842 -0.3959 0.7802
vn -0.0100 -0.0048 0.9999
vn -0.4316 -0.2519 -0.8662
vn 0.9999 0.0039 0.0125
vn 0.1059 -0.0136 -0.9943
vn -0.0960 -0.0206 -0.9952
vn -0.0450 -0.0169 -0.9988
vn 0.4260 0.0232 -0.9044
vn 0.0008 -0.0316 -0.9995
vn 0.4752 0.2418 0.8460
vn 0.0486 -0.0057 -0.9988
vn 0.0001 -0.0217 -0.9998
vn -0.2339 -0.0839 -0.9686
vn -0.2434 -0.0708 -0.9673
vn -0.0298 -0.0312 -0.9991
vn -0.6791 -0.4655 -0.5676
vn 0.0294 0.0002 -0.9996
vn -0.0531 -0.1204 -0.9913
vn -0.0993 -0.0774 -0.9920
vn -0.6595 -0.5666 -0.4940
vn 0.2089 0.9775 -0.0278
vn -0.0295 0.0727 -0.9969
vn -0.0467 0.0503 -0.9976
vn -0.6349 0.3414 -0.6930
vn -0.0390 0.0566 0.9976
vn -0.0520 0.0315 0.9981
vn -0.1645 0.1762 0.9705
vn 0.0447 0.0577 0.9973
vn 0.2088 0.1590 0.9649
vn -0.4028 0.0846 0.9114
vn -0.7992 -0.1924 -0.5695
vn -0.0105 -0.0747 -0.9971
vn 0.0121 -0.0418 -0.9991
vn -0.5843 -0.1273 0.8015
vn 0.0610 0.0040 -0.9981
vn 0.2316 -0.0580 -0.9711
vn 0.2081 0.0277 -0.9777
vn 0.2345 -0.1263 -0.9639
vn 0.5065 -0.7438 0.4362
vn 0.9964 -0.0849 0.0036
vn 0.8362 0.5484 -0.0027
vn 0.1665 0.0545 -0.9845
vn 0.0953 0.0139 -0.9954
vn 0.2592 0.1425 -0.9552
vn 0.1456 0.0194 0.9891
vn 0.1339 0.0319 0.9905
vn 0.1566 0.0397 -0.9869
vn -0.5371 0.8338 0.1277
vn -0.1039 0.0748 0.9918
vn -0.0375 0.0528 0.9979
vn -0.0111 0.0116 0.9999
vn -0.0347 0.0314 0.9989
vn -0.0299 0.0416 0.9987
vn -0.0350 0.0067 0.9994
vn -0.0568 0.0001 0.9984
vn 0.0003 0.0106 0.9999
vn -0.0322 -0.0188 0.9993
vn -0.0396 -0.0540 0.9978
vn -0.0159 -0.0397 0.9991
vn 0.0360 -0.0041 0.9993
vn 0.0666 0.0243 0.9975
vn -0.2110 -0.1890 0.9590
vn -0.7707 -0.5987 0.2184
vn -0.0222 0.0034 0.9997
vn 0.1089 0.0544 0.9926
vn -0.0594 -0.0131 0.9981
vn 0.1678 0.0497 0.9846
vn -0.0847 -0.0127 0.9963
vn -0.3058 -0.1440 0.9411
vn -0.4978 -0.2812 0.8204
vn -0.2721 -0.0607 0.9604
vn -0.9664 -0.2462 0.0733
vn -0.9007 -0.4340 -0.0200
vn -0.5279 -0.3193 0.7870
vn -0.7398 -0.6069 0.2905
vn -0.3165 -0.1883 -0.9297
vn -0.4975 -0.5325 0.6848
vn -0.0295 -0.0524 0.9982
vn -0.4055 -0.4236 -0.8100
vn -0.6287 -0.5204 -0.5779
vn -0.3558 -0.2632 0.8968
vn 0.1605 -0.0719 0.9844
vn -0.2520 -0.1085 0.9616
vn -0.8722 -0.2987 -0.3872
vn 0.9787 -0.1808 0.0977
vn 0.1701 -0.0227 -0.9852
vn 0.0918 0.0015 -0.9958
vn 0.0256 0.0102 -0.9996
vn 0.2057 -0.0166 -0.9785
vn -0.9561 -0.1993 -0.2150
vn -0.2296 -0.1049 0.9676
vn 0.3082 0.0038 -0.9513
vn -0.8800 -0.2538 -0.4015
vn -0.3314 -0.1630 0.9293
vn 0.3907 0.0152 -0.9204
vn -0.8478 -0.2392 -0.4733
vn -0.4147 -0.1608 0.8957
vn -0.8166 -0.2762 -0.5068
vn -0.4802 -0.1538 0.8636
vn 0.4379 0.0338 -0.8984
vn 0.9367 -0.1342 0.3233
vn 0.9116 -0.1041 0.3977
vn 0.9451 -0.1828 0.2708
vn 0.5893 -0.5319 -0.6081
vn -0.4157 -0.8229 -0.3874
vn 0.8462 -0.3469 0.4045
vn -0.1336 -0.6781 0.7228
vn 0.9614 -0.1879 0.2009
vn 0.3293 -0.0111 -0.9442
vn 0.5025 -0.8151 0.2883
vn 0.0923 0.0107 -0.9957
vn 0.1266 -0.0043 -0.9920
vn 0.0354 0.0095 -0.9993
vn -0.0137 0.0071 -0.9999
vn 0.1263 -0.0066 -0.9920
vn 0.0294 -0.2286 -0.9731
vn 0.4881 -0.1648 -0.8571
vn 0.7511 0.0133 -0.6601
vn -0.6911 -0.6966 -0.1928
vn -0.1855 -0.3076 0.9333
vn 0.5805 -0.3733 -0.7236
vn 0.5609 -0.4521 0.6935
vn 0.6895 -0.1367 0.7112
vn 0.6188 -0.0983 0.7794
vn -0.4202 -0.9048 0.0688
vn 0.3340 -0.3268 0.8841
vn 0.8356 -0.5475 0.0443
vn -0.0990 -0.0840 0.9915
vn -0.0451 -0.0625 0.9970
vn -0.0425 -0.0388 0.9983
vn -0.0804 -0.0150 0.9966
vn -0.0713 -0.0041 0.9974
vn -0.1051 0.0153 0.9943
vn -0.0623 -0.0007 0.9981
vn 0.3541 -0.1732 0.9190
vn 0.2687 0.0682 0.9608
vn -0.3220 0.1052 0.9409
vn -0.0732 0.0209 0.9971
vn 0.4616 0.0329 0.8865
vn -0.6460 0.1630 0.7458
vn -0.0899 0.0225 0.9957
vn 0.5343 -0.0494 0.8439
vn -0.9015 0.1495 0.4060
vn -0.1528 0.0386 0.9875
vn 0.5531 -0.1323 0.8225
vn -0.7531 0.1338 -0.6441
vn -0.4517 0.0312 -0.8916
vn -0.8075 -0.4122 -0.4220
vn -0.1583 -0.0642 -0.9853
vn -0.1934 -0.0004 0.9811
vn 0.0565 -0.0949 -0.9939
vn 0.0876 -0.3433 -0.9351
vn -0.1087 -0.0136 0.9940
vn -0.3239 -0.2114 0.9222
vn 0.1569 -0.1125 -0.9812
vn 0.1619 -0.1279 -0.9785
vn 0.2033 -0.1545 -0.9668
vn 0.1593 -0.1125 -0.9808
vn 0.1484 -0.1180 -0.9819
vn 0.2758 -0.1399 -0.9510
vn 0.1162 -0.0930 -0.9889
vn 0.1344 -0.1112 -0.9847
vn 0.1027 -0.1139 -0.9882
vn 0.3928 -0.1456 -0.9080
vn 0.2459 -0.0976 -0.9644
vn 0.3794 -0.1203 -0.9174
vn 0.5176 -0.1267 -0.8462
vn 0.3992 -0.1494 -0.9046
vn 0.6382 -0.1524 -0.7547
vn 0.1423 -0.1238 -0.9821
vn 0.2418 -0.0662 -0.9681
vn 0.2203 -0.0848 -0.9717
vn 0.4748 -0.1575 -0.8659
vn 0.6418 -0.1925 -0.7423
vn 0.3084 -0.1315 -0.9421
vn 0.5607 -0.1363 -0.8168
vn 0.1684 0.0719 -0.9831
vn 0.4441 -0.1119 -0.8890
vn 0.6958 -0.3101 -0.6479
vn 0.5221 -0.0151 -0.8527
vn 0.4916 -0.0394 -0.8699
vn 0.7471 -0.2404 -0.6198
vn 0.8450 -0.1096 0.5234
vn 0.9940 -0.0584 0.0929
vn 0.9686 -0.1906 0.1594
vn 0.6062 -0.4643 -0.6457
vn 0.7462 -0.5482 -0.3778
vn 0.8132 -0.4170 0.4059
vn 0.0949 -0.0357 0.9948
vn 0.1982 -0.0407 0.9793
vn 0.3119 -0.0553 0.9485
vn -0.4161 0.0920 0.9046
vn -0.5557 0.1395 0.8196
vn -0.5188 0.0597 0.8528
vn -0.2682 0.1311 0.9544
vn 0.0923 0.1311 0.9871
vn 0.6064 -0.4372 0.6642
vn 0.1932 0.6150 0.7645
vn 0.0914 0.6359 0.7663
vn 0.4634 -0.4526 0.7618
vn 0.0401 0.4900 0.8708
vn -0.4489 -0.3618 0.8171
vn -0.8558 -0.0497 0.5149
vn -0.8742 -0.1434 0.4639
vn -0.3940 -0.7151 0.5774
vn -0.0506 -0.7471 0.6628
vn -0.0438 -0.5501 0.8339
vn 0.0195 0.4250 0.9050
vn 0.2753 0.8550 -0.4395
vn 0.2145 0.9760 0.0384
vn 0.0629 0.9686 -0.2407
vn 0.0029 0.3678 0.9299
vn -0.0259 -0.5396 0.8415
vn -0.0171 0.9983 -0.0555
vn -0.0408 0.6734 -0.7381
vn -0.0346 0.5480 -0.8358
vn 0.0417 0.6239 -0.7804
vn 0.0784 0.7026 -0.7072
vn -0.0223 0.3397 0.9403
vn -0.0032 0.9945 -0.1046
vn 0.0137 0.6278 -0.7783
vn -0.0319 0.5929 -0.8047
vn 0.0054 0.4249 -0.9052
vn 0.0193 0.4364 -0.8995
vn 0.0225 0.4132 -0.9104
vn 0.1060 0.4016 -0.9096
vn 0.0685 0.1699 -0.9831
vn 0.1348 0.4888 -0.8619
vn 0.3716 -0.0552 -0.9267
vn 0.3509 0.1064 -0.9303
vn 0.2976 0.9476 -0.1162
vn 0.3870 0.3176 -0.8657
vn 0.6082 0.7923 0.0481
vn 0.3977 0.5469 -0.7367
vn 0.5182 0.3518 0.7795
vn 0.9339 0.1915 -0.3020
vn 0.4436 -0.3209 -0.8368
vn 0.8463 -0.5254 0.0881
vn 0.3850 -0.5115 -0.7682
vn 0.5147 -0.8557 -0.0544
vn 0.4448 -0.8834 -0.1471
vn 0.4410 -0.3545 0.8245
vn 0.5976 -0.7608 -0.2532
vn 0.4698 -0.5269 -0.7083
vn 0.1376 -0.0587 -0.9888
vn 0.0402 0.2416 -0.9695
vn 0.0977 0.0182 -0.9951
vn 0.1206 -0.1303 -0.9841
vn 0.0534 -0.1227 -0.9910
vn 0.0490 0.0642 -0.9967
vn 0.0376 0.2825 -0.9585
vn 0.0562 0.2993 -0.9525
vn -0.0351 0.0486 -0.9982
vn -0.1232 -0.0099 -0.9923
vn -0.0000 0.2686 -0.9633
vn 0.0346 0.4449 -0.8949
vn 0.0423 0.6491 -0.7595
vn 0.0499 0.9924 -0.1123
vn -0.0052 0.3355 0.9420
vn -0.0639 -0.6199 0.7821
vn -0.0519 -0.6039 0.7953
vn -0.0315 -0.5821 0.8125
vn -0.0512 -0.5986 0.7994
vn -0.0353 -0.6190 0.7846
vn -0.0331 -0.6614 0.7493
vn -0.0464 -0.2692 0.9620
vn -0.0569 -0.2355 0.9702
vn -0.0798 -0.2193 0.9724
vn -0.0347 -0.0089 0.9994
vn -0.0921 0.0336 0.9952
vn -0.1207 0.0650 0.9906
vn -0.3968 0.1658 0.9028
vn -0.1208 -0.2218 0.9676
vn -0.3038 -0.2342 0.9235
vn -0.6801 0.1665 0.7140
vn -0.5461 0.1621 0.8219
vn -0.7116 0.2205 0.6671
vn -0.3551 0.1901 0.9153
vn -0.0979 0.1641 0.9816
vn -0.8097 0.2754 0.5182
vn -0.2873 0.0430 0.9569
vn 0.2971 -0.0860 0.9510
vn -0.2597 0.0888 0.9616
vn -0.2164 0.0249 0.9760
vn 0.1192 -0.0670 0.9906
vn -0.1450 0.0561 0.9878
vn -0.1524 0.0467 0.9872
vn -0.0655 0.0113 0.9978
vn -0.1469 0.0617 0.9872
vn -0.1579 0.0402 0.9866
vn -0.0695 0.0139 0.9975
vn -0.0249 0.0471 0.9986
vn -0.0360 0.0431 0.9984
vn -0.1633 0.0511 0.9853
vn -0.0322 0.0505 0.9982
vn -0.1870 0.1359 0.9729
vn -0.1337 0.0821 0.9876
vn 0.0467 0.0517 0.9976
vn 0.0378 0.0181 0.9991
vn -0.0331 0.1248 0.9916
vn -0.0654 0.1802 0.9815
vn 0.0089 0.1880 0.9821
vn 0.0236 0.1828 0.9829
vn 0.0584 -0.0105 0.9982
vn 0.1076 0.1537 0.9822
vn 0.0585 0.1643 0.9847
vn 0.1572 0.1004 0.9825
vn 0.1706 0.1068 0.9795
vn 0.1367 0.0040 0.9906
vn -0.0485 -0.2895 0.9559
vn 0.0004 -0.2685 0.9633
vn -0.0922 -0.6267 0.7738
vn -0.1110 -0.7120 0.6934
vn -0.0735 -0.6828 0.7269
vn -0.0092 -0.8093 0.5874
vn 0.0794 -0.2399 0.9675
vn -0.0296 -0.7915 0.6105
vn 0.2421 -0.8643 0.4409
vn 0.4334 -0.3073 0.8472
vn 0.1874 0.0173 0.9821
vn 0.5284 -0.0093 0.8489
vn 0.7702 -0.2917 0.5672
vn 0.7514 -0.0733 0.6557
vn 0.6562 0.0789 0.7505
vn 0.3443 0.0860 0.9349
vn 0.5136 0.1008 0.8521
vn 0.4618 0.1106 0.8801
vn 0.2029 0.1558 0.9667
vn 0.1754 0.0393 0.9837
vn 0.1507 0.1236 0.9808
vn -0.0086 0.1712 0.9852
vn 0.0269 0.1381 0.9901
vn 0.0180 -0.0212 0.9996
vn -0.0305 0.0498 0.9983
vn 0.0426 0.0019 0.9991
vn 0.8905 -0.2933 0.3477
vn -0.0594 0.0282 0.9978
vn 0.7723 -0.2853 0.5675
vn 0.9347 -0.3552 -0.0104
vn 0.6616 -0.2263 0.7149
vn 0.5821 -0.1787 0.7932
vn 0.7116 -0.2449 -0.6585
vn 0.5867 -0.1985 -0.7851
vn 0.8115 -0.2327 -0.5361
vn 0.8538 -0.2011 -0.4801
vn 0.0819 -0.0377 -0.9959
vn 0.0964 -0.0542 -0.9939
vn 0.1523 -0.0743 -0.9855
vn 0.0534 -0.0463 -0.9975
vn 0.8853 -0.1125 -0.4512
vn 0.0343 -0.0038 -0.9994
vn 0.9202 0.0428 -0.3891
vn 0.2104 -0.0245 -0.9773
vn 0.9795 0.1570 -0.1261
vn 0.9208 -0.0613 0.3852
vn 0.6632 -0.3315 -0.6711
vn 0.8417 -0.1868 -0.5066
vn 0.0475 -0.1274 -0.9907
vn 0.0283 -0.0838 -0.9961
vn 0.0102 -0.0831 -0.9965
vn -0.0002 -0.0811 -0.9967
vn -0.0626 0.8570 0.5116
vn -0.8614 -0.4728 -0.1854
vn -0.6780 -0.1308 0.7233
vn -0.4930 0.7897 0.3651
vn -0.6312 0.3924 -0.6690
vt 0.768128 0.332146
vt 0.767267 0.327815
vt 0.769445 0.324880
vt 0.771245 0.330716
vt 0.766758 0.326637
vt 0.767872 0.325404
vt 0.763133 0.327188
vt 0.764014 0.332455
vt 0.768605 0.323142
vt 0.084559 0.275810
vt 0.084962 0.272332
vt 0.088775 0.274002
vt 0.089052 0.277824
vt 0.095971 0.281533
vt 0.096491 0.278805
vt 0.097252 0.276775
vt 0.090999 0.272602
vt 0.095005 0.285113
vt 0.088794 0.281352
vt 0.084732 0.278446
vt 0.080748 0.276342
vt 0.082443 0.279876
vt 0.080622 0.272140
vt 0.790670 0.321526
vt 0.790315 0.325522
vt 0.783394 0.319937
vt 0.784840 0.317920
vt 0.789831 0.329175
vt 0.783524 0.325653
vt 0.778722 0.322374
vt 0.775492 0.319975
vt 0.789769 0.332560
vt 0.783612 0.329955
vt 0.779431 0.326753
vt 0.773650 0.324032
vt 0.773099 0.322596
vt 0.775803 0.325129
vt 0.779587 0.329556
vt 0.776837 0.328521
vt 0.783053 0.332588
vt 0.778043 0.332035
vt 0.774213 0.330549
vt 0.782828 0.334476
vt 0.781730 0.337438
vt 0.774417 0.336165
vt 0.788577 0.337157
vt 0.787886 0.340039
vt 0.788897 0.335465
vt 0.796785 0.341402
vt 0.795959 0.344155
vt 0.797226 0.340064
vt 0.808242 0.343296
vt 0.807519 0.345241
vt 0.805872 0.346522
vt 0.290660 0.378648
vt 0.283908 0.367065
vt 0.284606 0.364208
vt 0.292117 0.377418
vt 0.793600 0.346150
vt 0.786673 0.342298
vt 0.299135 0.395691
vt 0.301217 0.392942
vt 0.294716 0.374896
vt 0.303320 0.390441
vt 0.297202 0.398536
vt 0.289828 0.383245
vt 0.281965 0.368567
vt 0.308216 0.412573
vt 0.305256 0.416312
vt 0.310759 0.409517
vt 0.319117 0.422088
vt 0.315941 0.425473
vt 0.311439 0.429502
vt 0.313260 0.406754
vt 0.321885 0.419277
vt 0.315342 0.405174
vt 0.323964 0.417728
vt 0.305261 0.389349
vt 0.821194 0.346456
vt 0.819990 0.347643
vt 0.809282 0.340346
vt 0.822561 0.344154
vt 0.835426 0.347535
vt 0.834152 0.349851
vt 0.836811 0.344437
vt 0.823468 0.341353
vt 0.810296 0.337611
vt 0.797840 0.336989
vt 0.798460 0.334449
vt 0.798711 0.330689
vt 0.810865 0.334232
vt 0.799347 0.326864
vt 0.811570 0.330910
vt 0.824576 0.338480
vt 0.826017 0.334895
vt 0.813069 0.326293
vt 0.829095 0.329198
vt 0.800558 0.321364
vt 0.804224 0.315303
vt 0.816351 0.318648
vt 0.830905 0.321787
vt 0.847057 0.324702
vt 0.850844 0.334016
vt 0.842098 0.338101
vt 0.306351 0.431352
vt 0.311369 0.438154
vt 0.302093 0.439891
vt 0.298027 0.432507
vt 0.308015 0.444385
vt 0.303896 0.445694
vt 0.318041 0.439855
vt 0.851020 0.337911
vt 0.853180 0.335059
vt 0.838326 0.341492
vt 0.849196 0.341842
vt 0.857266 0.338204
vt 0.856202 0.342095
vt 0.859095 0.336059
vt 0.847753 0.345545
vt 0.855413 0.345827
vt 0.854716 0.349653
vt 0.846504 0.348797
vt 0.862466 0.346103
vt 0.862037 0.349645
vt 0.863410 0.342705
vt 0.867571 0.346217
vt 0.870514 0.343886
vt 0.868198 0.348634
vt 0.864726 0.338594
vt 0.870943 0.340177
vt 0.783374 0.864254
vt 0.787542 0.862862
vt 0.788131 0.869149
vt 0.784448 0.870984
vt 0.336607 0.444733
vt 0.343856 0.447572
vt 0.347049 0.451024
vt 0.343886 0.451221
vt 0.342035 0.444810
vt 0.335412 0.442574
vt 0.328430 0.442458
vt 0.328014 0.444340
vt 0.786172 0.873026
vt 0.788953 0.873405
vt 0.784670 0.876842
vt 0.780136 0.877003
vt 0.779948 0.871019
vt 0.300868 0.449067
vt 0.297258 0.454668
vt 0.296849 0.451967
vt 0.298713 0.446769
vt 0.779035 0.864670
vt 0.775660 0.871163
vt 0.774583 0.864563
vt 0.775433 0.877160
vt 0.770091 0.877774
vt 0.771656 0.871341
vt 0.770430 0.864439
vt 0.771247 0.858110
vt 0.776414 0.858035
vt 0.768362 0.859777
vt 0.354336 0.455769
vt 0.356132 0.455822
vt 0.360697 0.458066
vt 0.356432 0.457777
vt 0.268737 0.029087
vt 0.269632 0.031808
vt 0.264725 0.034730
vt 0.263718 0.031229
vt 0.268637 0.014036
vt 0.263668 0.016753
vt 0.265111 0.012335
vt 0.269269 0.010240
vt 0.355198 0.454509
vt 0.360002 0.456987
vt 0.350211 0.453382
vt 0.351042 0.455477
vt 0.352275 0.452327
vt 0.359709 0.455884
vt 0.351384 0.449616
vt 0.358356 0.453684
vt 0.361177 0.451215
vt 0.353710 0.446846
vt 0.346359 0.444557
vt 0.338935 0.441257
vt 0.345917 0.441605
vt 0.354800 0.443707
vt 0.339027 0.438688
vt 0.329802 0.437559
vt 0.332925 0.435143
vt 0.323051 0.433058
vt 0.327014 0.429893
vt 0.335896 0.432768
vt 0.340098 0.435577
vt 0.329968 0.427353
vt 0.332609 0.425432
vt 0.339286 0.431193
vt 0.853675 0.351778
vt 0.845274 0.350798
vt 0.860069 0.351415
vt 0.341705 0.434081
vt 0.344239 0.439140
vt 0.346939 0.438688
vt 0.874332 0.347156
vt 0.362124 0.446397
vt 0.889495 0.853637
vt 0.891537 0.857599
vt 0.880283 0.856913
vt 0.877851 0.850991
vt 0.902705 0.856212
vt 0.907901 0.862233
vt 0.896452 0.863484
vt 0.900866 0.853201
vt 0.911280 0.850012
vt 0.913591 0.853758
vt 0.918322 0.859235
vt 0.920949 0.848794
vt 0.917422 0.845521
vt 0.926129 0.855310
vt 0.781023 0.835580
vt 0.783575 0.835770
vt 0.782499 0.840754
vt 0.779456 0.841305
vt 0.780999 0.846820
vt 0.783720 0.845295
vt 0.782833 0.829405
vt 0.785448 0.829797
vt 0.926989 0.842373
vt 0.924209 0.839169
vt 0.784676 0.824210
vt 0.786355 0.824463
vt 0.931993 0.835678
vt 0.930701 0.834282
vt 0.785964 0.820951
vt 0.786935 0.821338
vt 0.934350 0.831393
vt 0.935245 0.831955
vt 0.937176 0.828630
vt 0.937518 0.829354
vt 0.787243 0.818687
vt 0.786053 0.818943
vt 0.785341 0.820631
vt 0.785446 0.819091
vt 0.783703 0.823741
vt 0.786895 0.817385
vt 0.787077 0.817791
vt 0.939792 0.828096
vt 0.938825 0.829398
vt 0.938024 0.830429
vt 0.939385 0.828616
vt 0.938979 0.827799
vt 0.936294 0.833062
vt 0.787174 0.816887
vt 0.787459 0.817357
vt 0.787757 0.818559
vt 0.934085 0.837775
vt 0.930683 0.845579
vt 0.780837 0.828641
vt 0.777835 0.835133
vt 0.776348 0.841257
vt 0.924863 0.862013
vt 0.928449 0.861138
vt 0.777658 0.848864
vt 0.773906 0.850571
vt 0.771992 0.841482
vt 0.781511 0.857244
vt 0.785382 0.855157
vt 0.886994 0.848839
vt 0.897305 0.846959
vt 0.877664 0.845760
vt 0.769090 0.851041
vt 0.768501 0.844660
vt 0.271773 0.034936
vt 0.275065 0.027932
vt 0.276751 0.031081
vt 0.765882 0.848570
vt 0.764888 0.843322
vt 0.766454 0.841276
vt 0.767047 0.839318
vt 0.763927 0.839982
vt 0.762874 0.839603
vt 0.763023 0.841369
vt 0.762556 0.845803
vt 0.932366 0.874516
vt 0.932853 0.878484
vt 0.931717 0.875446
vt 0.929351 0.873485
vt 0.929837 0.876269
vt 0.926230 0.873981
vt 0.927071 0.870536
vt 0.924628 0.877006
vt 0.927412 0.877562
vt 0.926516 0.881102
vt 0.921121 0.873786
vt 0.914205 0.868611
vt 0.275335 0.020638
vt 0.272125 0.020132
vt 0.271832 0.017218
vt 0.275416 0.016761
vt 0.271989 0.013046
vt 0.276264 0.010651
vt 0.267878 0.017333
vt 0.267650 0.020031
vt 0.270990 0.022895
vt 0.266803 0.022759
vt 0.274152 0.024407
vt 0.263369 0.017913
vt 0.263114 0.020442
vt 0.263282 0.023041
vt 0.259071 0.018161
vt 0.259440 0.020521
vt 0.259729 0.022935
vt 0.255394 0.018163
vt 0.255672 0.020333
vt 0.256003 0.022959
vt 0.258877 0.017020
vt 0.255168 0.016962
vt 0.250601 0.017607
vt 0.250693 0.016209
vt 0.251579 0.020705
vt 0.103227 0.356852
vt 0.102335 0.361385
vt 0.101378 0.360897
vt 0.100504 0.356320
vt 0.247279 0.020719
vt 0.247169 0.017427
vt 0.768217 0.882413
vt 0.770548 0.882562
vt 0.767524 0.885845
vt 0.097532 0.347212
vt 0.102158 0.347376
vt 0.096677 0.355337
vt 0.774904 0.881741
vt 0.105508 0.348037
vt 0.105311 0.335854
vt 0.109496 0.336097
vt 0.099554 0.333847
vt 0.109398 0.322851
vt 0.103129 0.320881
vt 0.112952 0.324954
vt 0.108351 0.348801
vt 0.112761 0.337102
vt 0.115841 0.326625
vt 0.117122 0.313471
vt 0.120392 0.315534
vt 0.113176 0.311672
vt 0.122286 0.317875
vt 0.119088 0.327564
vt 0.116837 0.338718
vt 0.123691 0.307617
vt 0.120737 0.305350
vt 0.126699 0.309469
vt 0.121295 0.298217
vt 0.126093 0.299733
vt 0.129575 0.302506
vt 0.128795 0.310770
vt 0.125734 0.319227
vt 0.131867 0.304086
vt 0.127426 0.320300
vt 0.130642 0.311481
vt 0.133609 0.304748
vt 0.132150 0.298989
vt 0.134079 0.300661
vt 0.135756 0.301714
vt 0.778159 0.938271
vt 0.776485 0.938938
vt 0.775207 0.935078
vt 0.777077 0.935114
vt 0.774217 0.928237
vt 0.776748 0.928480
vt 0.771773 0.928769
vt 0.773306 0.935345
vt 0.774620 0.939521
vt 0.774681 0.942531
vt 0.776731 0.942094
vt 0.778675 0.941191
vt 0.778554 0.945290
vt 0.774900 0.946051
vt 0.780266 0.942648
vt 0.770721 0.947209
vt 0.771059 0.943762
vt 0.772849 0.939733
vt 0.771230 0.939986
vt 0.769229 0.942558
vt 0.763950 0.944110
vt 0.764790 0.946380
vt 0.764810 0.948859
vt 0.776275 0.949706
vt 0.771962 0.949248
vt 0.130197 0.286002
vt 0.130473 0.288534
vt 0.123452 0.287440
vt 0.124329 0.284218
vt 0.759545 0.949605
vt 0.758757 0.947469
vt 0.118394 0.282552
vt 0.117602 0.285242
vt 0.120144 0.287187
vt 0.119793 0.289394
vt 0.124203 0.290132
vt 0.128424 0.290510
vt 0.111519 0.282136
vt 0.110660 0.284480
vt 0.109512 0.287564
vt 0.115377 0.288692
vt 0.114934 0.292794
vt 0.108679 0.291471
vt 0.120473 0.293319
vt 0.125151 0.293525
vt 0.115322 0.297203
vt 0.129556 0.292921
vt 0.130427 0.296475
vt 0.132764 0.292038
vt 0.133623 0.294983
vt 0.781234 0.947026
vt 0.136912 0.294264
vt 0.137358 0.292358
vt 0.782208 0.945280
vt 0.783553 0.946167
vt 0.781479 0.948196
vt 0.781713 0.944669
vt 0.783225 0.945028
vt 0.784481 0.944484
vt 0.782821 0.944291
vt 0.137015 0.296024
vt 0.139704 0.294168
vt 0.139850 0.295176
vt 0.783117 0.943674
vt 0.139960 0.296167
vt 0.137905 0.297489
vt 0.781622 0.943721
vt 0.781667 0.941533
vt 0.780770 0.940125
vt 0.135736 0.299141
vt 0.134536 0.297196
vt 0.779747 0.939261
vt 0.115358 0.303149
vt 0.108193 0.296206
vt 0.108054 0.301204
vt 0.106445 0.309167
vt 0.096878 0.306242
vt 0.099354 0.299432
vt 0.100833 0.293967
vt 0.093589 0.289170
vt 0.091048 0.293028
vt 0.087962 0.298011
vt 0.084945 0.288429
vt 0.081787 0.292569
vt 0.087382 0.284485
vt 0.102149 0.289099
vt 0.102828 0.285441
vt 0.103570 0.282394
vt 0.104284 0.280101
vt 0.758769 0.338316
vt 0.751825 0.340806
vt 0.749932 0.337685
vt 0.757163 0.335552
vt 0.112726 0.279412
vt 0.105414 0.277711
vt 0.118883 0.280346
vt 0.744023 0.945356
vt 0.752453 0.944390
vt 0.752602 0.948334
vt 0.745018 0.949092
vt 0.758485 0.944059
vt 0.742793 0.940663
vt 0.752088 0.939461
vt 0.758484 0.939378
vt 0.742539 0.934170
vt 0.751965 0.932845
vt 0.758321 0.932538
vt 0.764074 0.932605
vt 0.763314 0.939903
vt 0.767197 0.939943
vt 0.769386 0.937677
vt 0.766416 0.919066
vt 0.768519 0.930375
vt 0.762489 0.919664
vt 0.756238 0.920810
vt 0.771102 0.936203
vt 0.769595 0.918546
vt 0.772530 0.918457
vt 0.763273 0.905597
vt 0.765912 0.904859
vt 0.769773 0.907097
vt 0.253783 0.463480
vt 0.273388 0.456259
vt 0.266898 0.462616
vt 0.250449 0.467802
vt 0.771952 0.895162
vt 0.772606 0.897872
vt 0.115641 0.357435
vt 0.118253 0.346121
vt 0.121896 0.349975
vt 0.116618 0.362410
vt 0.284501 0.455000
vt 0.277826 0.460227
vt 0.287548 0.445417
vt 0.290677 0.450198
vt 0.270132 0.452898
vt 0.281681 0.440729
vt 0.258559 0.458088
vt 0.264421 0.451283
vt 0.279261 0.428129
vt 0.292422 0.420467
vt 0.739335 0.902614
vt 0.745467 0.896955
vt 0.752919 0.904480
vt 0.746386 0.911816
vt 0.759465 0.906185
vt 0.750231 0.922831
vt 0.741235 0.926312
vt 0.738146 0.918825
vt 0.732927 0.934433
vt 0.731684 0.929398
vt 0.730094 0.923121
vt 0.725078 0.931400
vt 0.724293 0.924512
vt 0.725855 0.936677
vt 0.733009 0.941546
vt 0.763729 0.346689
vt 0.768638 0.343609
vt 0.772673 0.346372
vt 0.767194 0.350843
vt 0.753743 0.344610
vt 0.761151 0.342101
vt 0.755039 0.348672
vt 0.766411 0.339925
vt 0.764667 0.335975
vt 0.770286 0.338575
vt 0.773330 0.341891
vt 0.769000 0.335327
vt 0.773261 0.338353
vt 0.775860 0.339699
vt 0.777405 0.344250
vt 0.779554 0.341761
vt 0.777197 0.338411
vt 0.781183 0.339547
vt 0.784726 0.343947
vt 0.782647 0.346125
vt 0.791050 0.349163
vt 0.788776 0.349493
vt 0.784298 0.354701
vt 0.783369 0.355097
vt 0.720601 0.915417
vt 0.723511 0.915546
vt 0.720327 0.924907
vt 0.720574 0.932316
vt 0.294254 0.398808
vt 0.286932 0.384755
vt 0.292428 0.400623
vt 0.285533 0.386633
vt 0.728545 0.916115
vt 0.725338 0.905745
vt 0.733009 0.911470
vt 0.731775 0.897336
vt 0.300226 0.418883
vt 0.721353 0.937540
vt 0.290977 0.456350
vt 0.287235 0.458456
vt 0.287202 0.463893
vt 0.289865 0.462561
vt 0.295641 0.456479
vt 0.281733 0.462474
vt 0.284576 0.466814
vt 0.117810 0.341875
vt 0.114283 0.354469
vt 0.112570 0.351952
vt 0.772827 0.907155
vt 0.775776 0.900128
vt 0.110924 0.361934
vt 0.108711 0.359772
vt 0.112881 0.364500
vt 0.251923 0.023183
vt 0.247161 0.023587
vt 0.107512 0.358761
vt 0.111338 0.350458
vt 0.252081 0.024621
vt 0.247155 0.024988
vt 0.256109 0.024297
vt 0.256164 0.026347
vt 0.251856 0.026575
vt 0.246361 0.027111
vt 0.246811 0.029258
vt 0.251831 0.028528
vt 0.255787 0.028777
vt 0.259311 0.029802
vt 0.259555 0.026676
vt 0.259835 0.024320
vt 0.263453 0.027084
vt 0.263570 0.024534
vt 0.267860 0.027003
vt 0.267195 0.024720
vt 0.269579 0.024066
vt 0.270470 0.024837
vt 0.105439 0.357255
vt 0.122198 0.333419
vt 0.121931 0.327721
vt 0.775395 0.918852
vt 0.114535 0.369220
vt 0.080335 0.283191
vt 0.793314 0.316710
vt 0.820955 0.310191
vt 0.808942 0.306954
vt 0.094511 0.318967
vt 0.834379 0.314453
vt 0.092992 0.331326
vt 0.847363 0.317088
vt 0.839828 0.310270
vt 0.850362 0.313010
vt 0.775244 0.890043
vt 0.780316 0.881871
vt 0.781989 0.889816
vt 0.787042 0.888042
vt 0.785227 0.881441
vt 0.272387 0.008365
vt 0.369997 0.458710
vt 0.366778 0.460572
vt 0.900916 0.869881
vt 0.772858 0.326711
vt 0.775793 0.328034
vt 0.774723 0.328440
vt 0.774076 0.327323
vt 0.775261 0.326950
s 1
usemtl abyss_chancel_background_pbr
f 4/1/1 1/2/2 2/3/3 451/4/4
f 1/2/2 3/5/5 458/6/6 2/3/3
f 5/7/7 3/5/5 1/2/2
f 4/1/1 8/8/8 5/7/7 1/2/2
f 5/7/7 6/9/9 458/6/6 3/5/5
f 12/10/10 6/11/9 5/12/7 9/13/11
f 10/14/12 9/13/11 5/12/7 7/15/13
f 326/16/14 7/15/13 5/12/7 8/17/8
f 9/13/11 10/14/12 320/18/15 11/19/16
f 9/13/11 11/19/16 13/20/17 12/10/10
f 14/21/18 12/10/10 13/20/17 15/22/19
f 6/11/9 12/10/10 14/21/18 17/23/20
f 442/24/21 16/25/22 14/26/18 15/27/19
f 19/28/23 18/29/24 14/26/18 16/25/22
f 21/30/25 17/31/20 14/26/18 18/29/24
f 19/28/23 65/32/26 20/33/27 18/29/24
f 21/30/25 18/29/24 20/33/27 23/34/28
f 21/30/25 22/35/29 457/36/30 17/31/20
f 21/30/25 23/34/28 24/37/31 22/35/29
f 25/38/32 26/39/33 24/37/31 23/34/28
f 25/38/32 23/34/28 20/33/27 27/40/34
f 25/38/32 28/41/35 30/42/36 26/39/33
f 28/41/35 25/38/32 27/40/34 31/43/37
f 31/43/37 32/44/38 29/45/39 28/41/35
f 30/42/36 28/41/35 29/45/39 451/4/4
f 32/44/38 31/43/37 33/46/40 34/47/41
f 31/43/37 27/40/34 35/48/42 33/46/40
f 34/47/41 33/46/40 36/49/43 39/50/44
f 35/48/42 37/51/45 36/49/43 33/46/40
f 37/51/45 57/52/46 38/53/47 36/49/43
f 39/50/44 36/49/43 38/53/47 41/54/48
f 43/55/49 40/56/50 39/57/44 41/58/48
f 40/59/50 396/60/51 34/47/41 39/50/44
f 45/61/52 43/55/49 41/58/48 42/62/53
f 42/62/53 41/58/48 38/63/47 55/64/54
f 45/61/52 46/65/55 44/66/56 43/55/49
f 40/56/50 43/55/49 44/66/56 395/67/57
f 47/68/58 49/69/59 46/65/55 45/61/52
f 42/62/53 50/70/60 47/68/58 45/61/52
f 51/71/61 48/72/62 47/68/58 50/70/60
f 48/72/62 450/73/63 49/69/59 47/68/58
f 50/70/60 42/62/53 55/64/54 52/74/64
f 52/74/64 53/75/65 51/71/61 50/70/60
f 54/76/66 143/77/67 53/75/65 52/74/64
f 52/74/64 55/64/54 56/78/68 54/76/66
f 38/53/47 57/52/46 56/79/68 55/80/54
f 56/79/68 57/52/46 61/81/69 58/82/70
f 60/83/71 54/84/66 56/79/68 58/82/70
f 90/85/72 60/83/71 58/82/70 59/86/73
f 59/86/73 58/82/70 61/81/69 62/87/74
f 61/81/69 63/88/75 64/89/76 62/87/74
f 37/51/45 63/88/75 61/81/69 57/52/46
f 65/32/26 19/28/23 64/89/76 63/88/75
f 63/88/75 37/51/45 35/48/42 65/32/26
f 20/33/27 65/32/26 35/48/42 27/40/34
f 19/28/23 16/25/22 66/90/77 64/89/76
f 62/87/74 64/89/76 66/90/77 68/91/78
f 16/25/22 442/24/21 67/92/79 66/90/77
f 68/91/78 66/90/77 67/92/79 70/93/80
f 69/94/81 59/86/73 62/87/74 68/91/78
f 68/91/78 70/93/80 71/95/82 69/94/81
f 72/96/83 75/97/84 71/95/82 70/93/80
f 67/92/79 74/98/85 72/96/83 70/93/80
f 316/99/86 73/100/87 72/96/83 74/98/85
f 76/101/88 75/97/84 72/96/83 73/100/87
f 79/102/89 77/103/90 75/97/84 76/101/88
f 77/103/90 82/104/91 71/95/82 75/97/84
f 80/105/92 77/106/90 78/107/93 364/108/94
f 79/109/89 448/110/95 78/107/93 77/106/90
f 450/73/63 81/111/96 77/106/90 80/105/92
f 84/112/97 82/104/91 77/103/90 81/113/96
f 71/95/82 82/104/91 83/114/98 69/94/81
f 82/104/91 84/112/97 86/115/99 83/114/98
f 85/116/100 87/117/101 86/115/99 84/112/97
f 85/116/100 84/112/97 81/113/96 136/118/102
f 83/114/98 86/115/99 88/119/103 90/85/72
f 87/117/101 91/120/104 88/119/103 86/115/99
f 91/120/104 92/121/105 89/122/106 88/119/103
f 90/85/72 88/119/103 89/122/106 60/83/71
f 91/120/104 93/123/107 95/124/108 92/121/105
f 93/123/107 91/120/104 87/117/101 96/125/109
f 94/126/110 93/123/107 96/125/109 97/127/111
f 94/126/110 146/128/112 95/124/108 93/123/107
f 87/117/101 85/116/100 98/129/113 96/125/109
f 97/127/111 96/125/109 98/129/113 99/130/114
f 106/131/115 99/132/114 98/133/113 103/134/116
f 98/135/113 100/136/117 123/137/118 102/138/119
f 129/139/120 100/136/117 98/135/113 101/140/121
f 136/141/102 101/140/121 98/135/113 85/142/100
f 105/143/122 103/134/116 98/133/113 102/144/119
f 104/145/123 109/146/124 107/147/125 103/134/116
f 104/148/123 103/149/116 105/150/122 408/151/126
f 103/134/116 107/147/125 108/152/127 106/131/115
f 110/153/128 113/154/129 108/152/127 107/147/125
f 111/155/130 110/153/128 107/147/125 109/146/124
f 110/153/128 111/155/130 227/156/131 112/157/132
f 110/153/128 112/157/132 115/158/133 113/154/129
f 114/159/134 189/160/135 108/152/127 113/154/129
f 114/159/134 113/154/129 115/158/133 116/161/136
f 121/162/137 119/163/138 115/164/133 112/165/132
f 433/166/139 116/167/136 115/168/133 118/169/140
f 449/170/141 118/171/140 115/172/133 117/173/142
f 122/174/143 117/175/142 115/164/133 119/163/138
f 122/174/143 119/163/138 120/176/144 123/137/118
f 121/162/137 411/177/145 120/176/144 119/163/138
f 123/137/118 100/136/117 124/178/146 122/174/143
f 122/174/143 124/178/146 125/179/147 117/175/142
f 126/180/148 128/181/149 125/179/147 124/178/146
f 100/136/117 129/139/120 126/180/148 124/178/146
f 149/182/150 128/181/149 126/180/148 127/183/151
f 130/184/152 127/183/151 126/180/148 129/139/120
f 129/139/120 101/140/121 132/185/153 130/184/152
f 130/184/152 131/186/154 147/187/155 127/183/151
f 131/186/154 130/184/152 132/185/153 133/188/156
f 133/188/156 132/185/153 134/189/157 137/190/158
f 101/140/121 136/141/102 134/189/157 132/185/153
f 81/111/96 135/191/159 134/189/157 136/141/102
f 134/189/157 135/191/159 139/192/160 137/190/158
f 138/193/161 144/194/162 133/188/156 137/190/158
f 138/193/161 137/190/158 139/192/160 140/195/163
f 140/195/163 139/192/160 51/71/61 53/75/65
f 135/191/159 48/72/62 51/71/61 139/192/160
f 140/195/163 141/196/164 142/197/165 138/193/161
f 141/196/164 140/195/163 53/75/65 143/77/67
f 92/121/105 141/198/164 143/199/67 89/122/106
f 92/121/105 95/124/108 142/200/165 141/198/164
f 60/83/71 89/122/106 143/199/67 54/84/66
f 144/194/162 138/193/161 142/197/165 95/201/108
f 145/202/166 131/186/154 133/188/156 144/194/162
f 145/202/166 144/194/162 95/201/108 146/203/112
f 145/202/166 146/203/112 147/187/155 131/186/154
f 94/126/110 97/127/111 147/204/155 146/128/112
f 149/182/150 127/183/151 147/187/155 148/205/167
f 150/206/168 148/207/167 147/208/155 97/209/111
f 148/207/167 151/210/169 153/211/170 149/212/150
f 150/206/168 152/213/171 151/210/169 148/207/167
f 157/214/172 154/215/173 151/210/169 152/213/171
f 154/215/173 156/216/174 153/211/170 151/210/169
f 155/217/175 154/215/173 157/214/172 159/218/176
f 154/215/173 155/217/175 181/219/177 156/216/174
f 160/220/178 159/221/176 157/222/172 158/223/179
f 187/224/180 158/223/179 157/222/172 152/225/171
f 162/226/181 161/227/182 159/221/176 160/220/178
f 163/228/183 155/217/175 159/218/176 161/229/182
f 165/230/184 164/231/185 161/227/182 162/226/181
f 166/232/186 163/228/183 161/229/182 164/233/185
f 164/231/185 165/230/184 170/234/187 167/235/188
f 167/236/188 169/237/189 166/232/186 164/233/185
f 168/238/190 175/239/191 169/237/189 167/236/188
f 168/240/190 167/235/188 170/234/187 172/241/192
f 172/241/192 170/234/187 171/242/193 174/243/194
f 165/230/184 179/244/195 171/242/193 170/234/187
f 172/241/192 173/245/196 178/246/197 168/240/190
f 173/247/196 172/248/192 174/249/194 176/250/198
f 177/251/199 176/250/198 174/249/194 175/239/191
f 175/239/191 174/249/194 171/252/193 169/237/189
f 176/253/198 177/254/199 178/246/197 173/245/196
f 175/255/191 168/240/190 178/246/197 177/254/199
f 171/252/193 179/256/195 166/232/186 169/237/189
f 180/257/200 163/228/183 166/232/186 179/256/195
f 162/226/181 180/258/200 179/244/195 165/230/184
f 162/226/181 160/220/178 181/259/177 180/258/200
f 163/228/183 180/257/200 181/219/177 155/217/175
f 158/223/179 182/260/201 181/259/177 160/220/178
f 183/261/202 156/216/174 181/219/177 182/262/201
f 182/260/201 158/223/179 187/224/180 184/263/203
f 184/263/203 185/264/204 183/265/202 182/260/201
f 185/264/204 184/263/203 186/266/205 189/160/135
f 186/266/205 184/263/203 187/224/180 188/267/206
f 150/206/168 188/268/206 187/269/180 152/213/171
f 99/132/114 106/131/115 186/266/205 188/267/206
f 97/209/111 99/270/114 188/268/206 150/206/168
f 108/152/127 189/160/135 186/266/205 106/131/115
f 190/271/207 185/264/204 189/160/135 114/159/134
f 190/271/207 192/272/208 183/265/202 185/264/204
f 114/273/134 116/167/136 191/274/209 190/275/207
f 192/272/208 190/271/207 191/276/209 194/277/210
f 193/278/211 201/279/212 183/265/202 192/272/208
f 194/277/210 196/280/213 193/278/211 192/272/208
f 197/281/214 196/280/213 194/277/210 195/282/215
f 195/282/215 194/277/210 191/276/209 199/283/216
f 196/284/213 197/285/214 198/286/217
f 196/284/213 198/286/217 193/287/211
f 197/285/214 195/288/215 193/287/211 198/286/217
f 199/289/216 201/290/212 193/287/211 195/288/215
f 200/291/218 199/289/216 191/292/209 435/293/219
f 199/289/216 200/291/218 202/294/220 201/290/212
f 201/290/212 202/294/220 203/295/221 183/261/202
f 200/296/218 207/297/222 204/298/223 202/299/220
f 204/298/223 205/300/224 203/301/221 202/299/220
f 449/170/141 205/300/224 204/298/223 206/302/225
f 209/303/226 206/302/225 204/298/223 207/297/222
f 208/304/227 210/305/228 209/303/226 207/297/222
f 207/297/222 200/296/218 435/306/219 208/304/227
f 212/307/229 206/302/225 209/303/226 211/308/230
f 213/309/231 211/308/230 209/303/226 210/305/228
f 217/310/232 212/307/229 211/308/230 214/311/233
f 216/312/234 214/311/233 211/308/230 213/309/231
f 219/313/235 217/310/232 214/311/233 215/314/236
f 420/315/237 215/314/236 214/311/233 216/312/234
f 217/310/232 218/316/238 118/171/140 212/307/229
f 218/316/238 217/310/232 219/313/235 220/317/239
f 220/317/239 219/313/235 221/318/240 222/319/241
f 215/314/236 223/320/242 221/318/240 219/313/235
f 228/321/243 222/322/241 221/323/240 225/324/244
f 221/318/240 223/320/242 416/325/245 224/326/246
f 224/327/246 227/156/131 225/328/244 221/329/240
f 231/330/247 229/331/248 225/324/244 226/332/249
f 226/333/249 225/328/244 227/156/131 111/155/130
f 230/334/250 228/321/243 225/324/244 229/331/248
f 229/331/248 232/335/251 235/336/252 230/334/250
f 229/331/248 231/330/247 233/337/253 232/335/251
f 234/338/254 232/335/251 233/337/253 445/339/255
f 235/336/252 232/335/251 234/338/254 237/340/256
f 436/341/257 230/334/250 235/336/252 236/342/258
f 235/336/252 237/340/256 239/343/259 236/342/258
f 239/343/259 237/340/256 238/344/260 241/345/261
f 238/344/260 237/340/256 234/338/254 309/346/262
f 242/347/263 240/348/264 239/343/259 241/345/261
f 438/349/265 236/342/258 239/343/259 240/348/264
f 243/350/266 241/345/261 238/344/260 244/351/267
f 246/352/268 242/347/263 241/345/261 243/350/266
f 244/351/267 283/353/269 245/354/270 243/350/266
f 246/352/268 243/350/266 245/354/270 247/355/271
f 242/347/263 246/352/268 248/356/272 250/357/273
f 246/352/268 247/355/271 251/358/274 248/356/272
f 441/359/275 250/357/273 248/356/272 249/360/276
f 249/360/276 248/356/272 251/358/274 253/361/277
f 247/355/271 305/362/278 252/363/279 251/358/274
f 253/361/277 251/358/274 252/363/279 254/364/280
f 254/365/280 258/366/281 255/367/282 253/368/277
f 255/367/282 256/369/283 249/370/276 253/368/277
f 349/371/284 256/369/283 255/367/282 257/372/285
f 259/373/286 257/372/285 255/367/282 258/366/281
f 263/374/287 259/373/286 258/366/281 260/375/288
f 262/376/289 260/375/288 258/366/281 254/365/280
f 263/374/287 260/375/288 261/377/290 264/378/291
f 262/376/289 302/379/292 261/377/290 260/375/288
f 264/378/291 269/380/293 265/381/294 263/374/287
f 259/373/286 263/374/287 265/381/294 266/382/295
f 347/383/296 266/382/295 265/381/294 267/384/297
f 341/385/298 267/384/297 265/381/294 268/386/299
f 269/380/293 271/387/300 268/386/299 265/381/294
f 269/380/293 264/378/291 288/388/301 270/389/302
f 269/390/293 270/391/302 273/392/303 271/393/300
f 271/387/300 272/394/304 330/395/305 268/386/299
f 272/396/304 271/393/300 273/392/303 276/397/306
f 273/392/303 274/398/307 276/397/306
f 281/399/308 274/398/307 273/392/303 275/400/309
f 286/401/310 275/400/309 273/392/303 270/391/302
f 328/402/311 272/396/304 276/397/306 277/403/312
f 279/404/313 277/403/312 276/397/306 278/405/314
f 281/399/308 278/405/314 276/397/306 274/398/307
f 279/404/313 278/405/314 280/406/315 322/407/316
f 281/399/308 282/408/317 280/406/315 278/405/314
f 275/400/309 284/409/318 282/408/317 281/399/308
f 282/408/317 283/353/269 306/410/319 280/406/315
f 282/408/317 284/409/318 245/354/270 283/353/269
f 275/400/309 286/401/310 285/411/320 284/409/318
f 285/411/320 287/412/321 245/354/270 284/409/318
f 286/401/310 270/391/302 288/413/301 285/411/320
f 287/412/321 285/411/320 288/413/301 289/414/322
f 288/388/301 264/378/291 261/377/290 290/415/323
f 291/416/324 289/414/322 288/413/301 290/417/323
f 290/415/323 292/418/325 295/419/326 291/420/324
f 292/418/325 290/415/323 261/377/290 294/421/327
f 295/419/326 292/418/325 293/422/328 296/423/329
f 294/421/327 299/424/330 293/422/328 292/418/325
f 297/425/331 291/416/324 295/426/326 296/427/329
f 298/428/332 296/423/329 293/422/328 299/424/330
f 298/429/332 301/430/333 297/425/331 296/427/329
f 299/424/330 294/421/327 300/431/334 298/428/332
f 301/432/333 298/428/332 300/431/334 302/379/292
f 302/379/292 262/376/289 303/433/335 301/432/333
f 301/430/333 303/434/335 304/435/336 297/425/331
f 252/363/279 305/362/278 304/435/336 303/434/335
f 262/376/289 254/365/280 252/436/279 303/433/335
f 297/425/331 304/435/336 289/414/322 291/416/324
f 305/362/278 287/412/321 289/414/322 304/435/336
f 305/362/278 247/355/271 245/354/270 287/412/321
f 261/377/290 302/379/292 300/431/334 294/421/327
f 283/353/269 244/351/267 308/437/337 306/410/319
f 322/407/316 280/406/315 306/410/319 307/438/338
f 307/438/338 306/410/319 308/437/337 310/439/339
f 311/440/340 310/439/339 308/437/337 309/346/262
f 308/437/337 244/351/267 238/344/260 309/346/262
f 311/440/340 314/441/341 312/442/342 310/439/339
f 307/438/338 310/439/339 312/442/342 313/443/343
f 318/444/344 313/443/343 312/442/342 315/445/345
f 312/442/342 314/441/341 316/446/86 315/445/345
f 317/447/346 315/445/345 316/446/86 74/448/85
f 317/447/346 319/449/347 318/444/344 315/445/345
f 11/19/16 320/18/15 318/444/344 319/449/347
f 321/450/348 313/443/343 318/444/344 320/18/15
f 320/18/15 10/14/12 323/451/349 321/450/348
f 323/451/349 279/404/313 322/407/316 321/450/348
f 313/443/343 321/450/348 322/407/316 307/438/338
f 277/403/312 279/404/313 323/451/349 324/452/350
f 7/15/13 324/452/350 323/451/349 10/14/12
f 328/402/311 277/403/312 324/452/350 325/453/351
f 326/16/14 325/453/351 324/452/350 7/15/13
f 381/454/352 327/455/353 325/456/351 326/457/14
f 329/458/354 328/402/311 325/453/351 327/459/353
f 272/396/304 328/402/311 329/458/354 330/460/305
f 332/461/355 331/462/356 329/463/354 327/464/353
f 333/465/357 330/395/305 329/463/354 331/462/356
f 332/461/355 335/466/358 334/467/359 331/462/356
f 334/467/359 337/468/360 333/465/357 331/462/356
f 371/469/361 336/470/362 334/467/359 335/466/358
f 338/471/363 337/468/360 334/467/359 336/470/362
f 337/468/360 338/471/363 342/472/364 339/473/365
f 339/473/365 341/385/298 333/465/357 337/468/360
f 340/474/366 267/384/297 341/385/298 339/473/365
f 340/474/366 339/473/365 342/472/364 345/475/367
f 348/476/368 344/477/369 342/472/364 343/478/370
f 368/479/371 343/478/370 342/472/364 338/471/363
f 346/480/372 345/475/367 342/472/364 344/477/369
f 267/384/297 340/474/366 345/475/367 347/383/296
f 345/475/367 346/480/372 266/382/295 347/383/296
f 346/480/372 344/477/369 349/371/284 257/372/285
f 266/382/295 346/480/372 257/372/285 259/373/286
f 348/476/368 350/481/373 349/371/284 344/477/369
f 351/482/374 256/369/283 349/371/284 350/481/373
f 353/483/375 352/484/376 350/481/373 348/476/368
f 354/485/377 351/482/374 350/481/373 352/484/376
f 353/486/375 358/487/378 355/488/379 352/489/376
f 352/484/376 355/490/379 357/491/380 354/485/377
f 413/492/381 357/493/380 355/494/379 356/495/382
f 359/496/383 356/497/382 355/488/379 358/487/378
f 359/496/383 358/487/378 360/498/384 407/499/385
f 360/498/384 358/487/378 361/500/386 363/501/387
f 353/486/375 362/502/388 361/500/386 358/487/378
f 366/503/389 363/501/387 361/500/386 362/502/388
f 364/108/94 78/107/93 360/498/384 363/501/387
f 364/108/94 363/501/387 365/504/390 405/505/391
f 365/506/390 363/507/387 366/508/389 367/509/392
f 366/508/389 362/510/388 343/478/370 368/479/371
f 366/508/389 368/479/371 369/511/393 367/509/392
f 368/479/371 338/471/363 336/470/362 369/511/393
f 370/512/394 369/511/393 336/470/362 371/469/361
f 372/513/395 367/509/392 369/511/393 370/512/394
f 370/512/394 371/469/361 376/514/396 373/515/397
f 373/515/397 374/516/398 372/513/395 370/512/394
f 375/517/399 398/518/400 374/516/398 373/515/397
f 373/515/397 376/514/396 377/519/401 375/517/399
f 371/469/361 335/466/358 378/520/402 376/514/396
f 378/521/402 379/522/403 377/523/401 376/524/396
f 332/525/355 380/526/404 378/521/402 335/527/358
f 382/528/405 379/522/403 378/521/402 380/526/404
f 383/529/406 382/528/405 380/526/404 381/454/352
f 327/455/353 381/454/352 380/526/404 332/525/355
f 382/528/405 384/530/407 387/531/408 379/522/403
f 384/530/407 382/528/405 383/529/406 386/532/409
f 385/533/410 389/534/411 387/531/408 384/530/407
f 384/530/407 386/532/409 29/45/39 385/533/410
f 377/523/401 379/522/403 387/531/408 388/535/412
f 387/531/408 389/534/411 391/536/413 388/535/412
f 389/534/411 385/533/410 29/45/39 390/537/414
f 390/537/414 392/538/415 391/536/413 389/534/411
f 391/536/413 392/538/415 396/60/51 393/539/416
f 394/540/417 388/535/412 391/536/413 393/539/416
f 393/539/416 395/541/57 397/542/418 394/540/417
f 395/541/57 393/539/416 396/60/51 40/59/50
f 392/538/415 32/44/38 34/47/41 396/60/51
f 44/543/56 399/544/419 397/542/418 395/541/57
f 399/545/419 401/546/420 398/518/400 397/547/418
f 394/548/417 397/547/418 398/518/400 375/517/399
f 400/549/421 399/550/419 44/66/56 46/65/55
f 399/550/419 400/549/421 402/551/422 401/552/420
f 403/553/423 401/546/420 402/554/422 404/555/424
f 401/546/420 403/553/423 374/516/398 398/518/400
f 403/553/423 404/555/424 372/513/395 374/516/398
f 365/506/390 367/509/392 372/513/395 404/555/424
f 365/506/390 404/555/424 402/554/422 405/556/391
f 406/557/425 405/505/391 402/551/422 400/549/421
f 364/108/94 405/505/391 406/557/425 80/105/92
f 406/557/425 400/549/421 46/65/55 49/69/59
f 80/105/92 406/557/425 49/69/59 450/73/63
f 394/548/417 375/517/399 377/519/401 388/558/412
f 392/538/415 390/537/414 29/45/39 32/44/38
f 4/1/1 451/4/4 29/45/39 386/532/409
f 4/1/1 386/532/409 383/529/406 8/8/8
f 326/457/14 8/8/8 383/529/406 381/454/352
f 362/510/388 353/483/375 348/476/368 343/478/370
f 408/151/126 407/499/385 360/498/384 78/107/93
f 105/150/122 409/559/426 407/499/385 408/151/126
f 410/560/427 359/496/383 407/499/385 409/559/426
f 121/561/137 410/560/427 409/559/426 411/562/145
f 102/563/119 411/562/145 409/559/426 105/150/122
f 102/138/119 123/137/118 120/176/144 411/177/145
f 359/496/383 410/560/427 227/564/131 356/497/382
f 121/561/137 112/565/132 227/564/131 410/560/427
f 104/148/123 408/151/126 78/107/93 448/110/95
f 412/566/428 357/493/380 414/567/429 415/568/430
f 439/569/431 354/485/377 357/491/380 412/570/428
f 414/567/429 357/493/380 413/492/381
f 414/567/429 416/571/245 417/572/432 415/568/430
f 413/492/381 224/573/246 416/571/245 414/567/429
f 223/320/242 419/574/433 417/575/432 416/325/245
f 415/568/430 417/572/432 418/576/434 437/577/435
f 419/574/433 421/578/436 418/579/434 417/575/432
f 223/320/242 215/314/236 420/315/237 419/574/433
f 421/578/436 419/574/433 420/315/237 422/580/437
f 421/578/436 422/580/437 425/581/438 423/582/439
f 418/579/434 421/578/436 423/582/439 424/583/440
f 228/584/243 424/583/440 423/582/439 222/585/241
f 222/585/241 423/582/439 425/581/438 220/586/239
f 218/587/238 220/586/239 425/581/438 426/588/441
f 425/581/438 422/580/437 428/589/442 426/588/441
f 426/588/441 427/590/443 118/169/140 218/587/238
f 427/590/443 426/588/441 428/589/442 429/591/444
f 428/589/442 422/580/437 420/315/237 216/312/234
f 213/309/231 429/591/444 428/589/442 216/312/234
f 432/592/445 427/590/443 429/591/444 430/593/446
f 210/305/228 430/593/446 429/591/444 213/309/231
f 431/594/447 434/595/448 432/592/445 430/593/446
f 210/305/228 208/304/227 431/594/447 430/593/446
f 118/169/140 427/590/443 432/592/445 433/166/139
f 435/306/219 433/166/139 432/592/445 434/595/448
f 435/306/219 434/595/448 431/594/447 208/304/227
f 433/166/139 435/306/219 191/274/209 116/167/136
f 436/341/257 437/577/435 418/576/434 424/596/440
f 230/334/250 436/341/257 424/596/440 228/321/243
f 436/341/257 236/342/258 438/349/265 437/577/435
f 415/568/430 437/577/435 438/349/265 412/566/428
f 438/349/265 439/597/431 412/566/428
f 240/348/264 440/598/449 439/597/431 438/349/265
f 351/482/374 354/485/377 439/569/431 441/599/275
f 250/357/273 441/359/275 439/597/431 440/598/449
f 351/482/374 441/599/275 249/370/276 256/369/283
f 242/347/263 250/357/273 440/598/449 240/348/264
f 413/492/381 356/495/382 227/600/131 224/573/246
f 268/386/299 330/395/305 333/465/357 341/385/298
f 319/449/347 15/22/19 13/20/17 11/19/16
f 15/22/19 319/449/347 317/447/346 442/601/21
f 67/92/79 442/24/21 317/602/346 74/98/85
f 443/603/450 73/100/87 316/99/86 314/604/341
f 445/339/255 443/605/450 314/441/341 311/440/340
f 444/606/451 76/101/88 73/100/87 443/603/450
f 443/605/450 445/339/255 233/337/253 444/607/451
f 311/440/340 309/346/262 234/338/254 445/339/255
f 76/101/88 444/606/451 446/608/452 79/102/89
f 233/609/253 231/610/247 446/608/452 444/606/451
f 231/611/247 226/333/249 447/612/453 446/613/452
f 79/614/89 446/613/452 447/612/453 448/615/95
f 448/615/95 447/612/453 109/146/124 104/145/123
f 226/333/249 111/155/130 109/146/124 447/612/453
f 206/302/225 212/307/229 118/171/140 449/170/141
f 449/170/141 117/173/142 125/616/147 205/300/224
f 125/179/147 128/181/149 203/617/221 205/618/224
f 156/216/174 183/261/202 203/295/221 153/211/170
f 149/212/150 153/211/170 203/295/221 128/619/149
f 48/72/62 135/191/159 81/111/96 450/73/63
f 59/86/73 69/94/81 83/114/98 90/85/72
f 2/3/3 453/620/454 30/42/36 451/4/4
f 456/621/455 26/39/33 30/42/36 452/622/456
f 454/623/457 452/622/456 30/42/36 453/620/454
f 2/3/3 22/35/29 24/37/31 453/620/454
f 454/623/457 453/620/454 24/37/31 455/624/458
f 455/624/458 456/621/455 452/622/456 454/623/457
f 456/621/455 455/624/458 24/37/31 26/39/33
f 457/36/30 22/35/29 2/3/3
f 6/9/9 17/31/20 457/36/30 2/3/3
f 6/9/9 2/3/3 458/6/6
