# Blender 5.2.0 LTS
# www.blender.org
mtllib terrain-abyss-chancel-object-066.mtl
o terrain-abyss-chancel-object-066
v -0.122816 0.117989 0.086831
v -0.123445 0.116818 0.086950
v -0.123451 0.118220 0.087535
v -0.122891 0.117805 0.086045
v -0.123830 0.116865 0.086136
v -0.122979 0.117384 0.085355
v -0.123809 0.118729 0.086563
v -0.123875 0.118698 0.085542
v -0.125066 0.119055 0.087366
v -0.124389 0.118368 0.088627
v -0.126627 0.119024 0.088256
v -0.125504 0.119147 0.085999
v -0.125693 0.118587 0.084668
v -0.127160 0.119219 0.086635
v -0.127476 0.118788 0.085028
v -0.128730 0.119073 0.087325
v -0.128170 0.118840 0.088992
v -0.130291 0.118780 0.088065
v -0.129128 0.118720 0.085649
v -0.129038 0.117254 0.085326
v -0.130656 0.118512 0.086553
v -0.130547 0.117276 0.086101
v -0.131715 0.118313 0.087458
v -0.131636 0.117314 0.087071
v -0.131721 0.118141 0.088575
v -0.132169 0.117279 0.088033
v -0.131342 0.117428 0.089735
v -0.129879 0.116743 0.090357
v -0.129931 0.118540 0.089632
v -0.131301 0.116761 0.088517
v -0.129875 0.116344 0.088702
v -0.131097 0.116608 0.087404
v -0.129974 0.116496 0.087084
v -0.128527 0.116381 0.086809
v -0.126920 0.116400 0.086503
v -0.128134 0.116099 0.088653
v -0.127889 0.116573 0.090413
v -0.126441 0.116233 0.088266
v -0.124870 0.116433 0.087644
v -0.125903 0.116697 0.089857
v -0.125945 0.118233 0.089709
v -0.124300 0.116813 0.088789
v -0.123125 0.116906 0.087851
v -0.127794 0.118055 0.090496
v -0.129428 0.118144 0.090672
v -0.125327 0.116432 0.086230
v -0.125561 0.117215 0.084965
v -0.127314 0.117207 0.084934
v -0.124092 0.117310 0.085167
v -0.124155 0.118500 0.084701
vn 0.4093 -0.8827 -0.2311
vn 0.9729 0.0579 -0.2240
vn 0.9733 0.2292 0.0124
vn 0.6434 -0.7656 -0.0002
vn 0.7491 0.5517 0.3667
vn 0.7856 -0.4354 0.4396
vn 0.4789 0.8778 0.0090
vn 0.3660 -0.5596 -0.7436
vn 0.8204 -0.2950 -0.4898
vn 0.4832 0.7732 -0.4108
vn 0.0948 0.9827 -0.1591
vn 0.2272 0.9561 0.1853
vn 0.5145 0.5903 0.6220
vn 0.0788 0.9595 0.2706
vn 0.3517 0.5434 0.7622
vn -0.0420 0.9963 -0.0749
vn 0.2952 0.3784 -0.8773
vn 0.0164 0.4799 -0.8772
vn -0.1735 0.6162 -0.7682
vn -0.3468 0.6724 -0.6539
vn -0.1325 0.9912 -0.0048
vn 0.0029 0.9542 0.2993
vn -0.2805 0.8174 0.5032
vn -0.2640 0.9576 0.1156
vn -0.5031 0.6858 -0.5259
vn -0.1494 -0.4979 -0.8542
vn -0.3288 -0.4169 -0.8474
vn -0.5066 -0.3436 -0.7908
vn -0.7838 -0.2994 -0.5440
vn -0.7070 0.6419 -0.2969
vn -0.8011 0.5377 0.2629
vn -0.9586 -0.2845 -0.0058
vn -0.7454 -0.0561 0.6643
vn -0.5828 -0.7914 0.1844
vn -0.3350 -0.5399 0.7722
vn -0.2174 -0.9685 0.1212
vn -0.1559 0.4536 0.8774
vn -0.3934 -0.8824 -0.2580
vn -0.2254 -0.9272 -0.2990
vn -0.1038 -0.9494 -0.2963
vn -0.0172 -0.9969 0.0765
vn -0.0140 -0.9562 -0.2924
vn 0.1062 -0.9917 0.0720
vn 0.1167 -0.6298 0.7679
vn 0.3952 -0.5498 0.7359
vn 0.1058 -0.9479 -0.3005
vn 0.1866 -0.9816 0.0411
vn 0.5667 -0.5293 0.6314
vn 0.1591 0.4686 0.8690
vn 0.0293 -0.5783 -0.8153
vt 0.385632 0.981606
vt 0.385492 0.982204
vt 0.385067 0.982091
vt 0.385164 0.981486
vt 0.832385 0.022704
vt 0.832537 0.022224
vt 0.833190 0.022426
vt 0.833036 0.022888
vt 0.831959 0.022273
vt 0.831914 0.022908
vt 0.386147 0.981857
vt 0.385808 0.982235
vt 0.831394 0.023078
vt 0.831445 0.022378
vt 0.831285 0.021610
vt 0.832003 0.021535
vt 0.832758 0.021533
vt 0.831970 0.020651
vt 0.832812 0.020599
vt 0.831146 0.020786
vt 0.830982 0.022448
vt 0.830597 0.021854
vt 0.830369 0.021021
vt 0.830284 0.020183
vt 0.831095 0.019929
vt 0.831977 0.019797
vt 0.831828 0.018915
vt 0.830998 0.019118
vt 0.830215 0.019328
vt 0.829671 0.021343
vt 0.829571 0.020357
vt 0.829560 0.019445
vt 0.829727 0.018690
vt 0.830301 0.018657
vt 0.830822 0.018418
vt 0.830196 0.018107
vt 0.831612 0.018100
vt 0.830835 0.017759
vt 0.385741 0.977952
vt 0.386411 0.977416
vt 0.386855 0.977951
vt 0.386384 0.978490
vt 0.832493 0.018122
vt 0.832478 0.018835
vt 0.387279 0.978405
vt 0.387065 0.978926
vt 0.387492 0.977807
vt 0.387773 0.978338
vt 0.387791 0.979028
vt 0.386686 0.979555
vt 0.385838 0.979156
vt 0.387479 0.979816
vt 0.386359 0.980297
vt 0.387145 0.980697
vt 0.385527 0.979951
vt 0.385021 0.978665
vt 0.384726 0.979676
vt 0.385993 0.980993
vt 0.385259 0.980732
vt 0.384554 0.980593
vt 0.832839 0.019580
vt 0.833517 0.019618
vt 0.833539 0.020588
vt 0.833499 0.021646
vt 0.384616 0.981311
vt 0.384623 0.978108
vt 0.385090 0.977620
vt 0.386666 0.981402
vt 0.830018 0.022240
vt 0.830595 0.022891
s 1
usemtl abyss_chancel_background_pbr
f 5/1/1 4/2/2 1/3/3 2/4/4
f 1/5/3 3/6/5 43/7/6 2/8/4
f 7/9/7 3/6/5 1/5/3 4/10/2
f 5/1/1 49/11/8 6/12/9 4/2/2
f 7/9/7 4/10/2 6/13/9 8/14/10
f 8/14/10 12/15/11 9/16/12 7/9/7
f 3/6/5 7/9/7 9/16/12 10/17/13
f 9/16/12 11/18/14 41/19/15 10/17/13
f 12/15/11 14/20/16 11/18/14 9/16/12
f 12/15/11 8/14/10 50/21/17 13/22/18
f 13/22/18 15/23/19 14/20/16 12/15/11
f 19/24/20 16/25/21 14/20/16 15/23/19
f 16/25/21 17/26/22 11/18/14 14/20/16
f 29/27/23 17/26/22 16/25/21 18/28/24
f 16/25/21 19/24/20 21/29/25 18/28/24
f 15/23/19 48/30/26 20/31/27 19/24/20
f 20/31/27 22/32/28 21/29/25 19/24/20
f 22/32/28 24/33/29 23/34/30 21/29/25
f 18/28/24 21/29/25 23/34/30 25/35/31
f 26/36/32 25/35/31 23/34/30 24/33/29
f 27/37/33 25/35/31 26/36/32 30/38/34
f 27/37/33 29/27/23 18/28/24 25/35/31
f 28/39/35 27/40/33 30/41/34 31/42/36
f 27/37/33 28/43/35 45/44/37 29/27/23
f 31/42/36 30/41/34 32/45/38 33/46/39
f 26/47/32 24/48/29 32/45/38 30/41/34
f 22/49/28 33/46/39 32/45/38 24/48/29
f 31/42/36 33/46/39 34/50/40 36/51/41
f 33/46/39 22/49/28 20/52/27 34/50/40
f 35/53/42 34/50/40 20/52/27 48/54/26
f 38/55/43 36/51/41 34/50/40 35/53/42
f 28/39/35 31/42/36 36/51/41 37/56/44
f 40/57/45 37/56/44 36/51/41 38/55/43
f 46/58/46 39/59/47 38/55/43 35/53/42
f 39/59/47 42/60/48 40/57/45 38/55/43
f 44/61/49 37/62/44 40/63/45 41/19/15
f 10/17/13 41/19/15 40/63/45 42/64/48
f 39/59/47 2/4/4 43/65/6 42/60/48
f 10/17/13 42/64/48 43/7/6 3/6/5
f 17/26/22 44/61/49 41/19/15 11/18/14
f 37/56/44 44/66/49 45/67/37 28/39/35
f 17/26/22 29/27/23 45/44/37 44/61/49
f 2/4/4 39/59/47 46/58/46 5/1/1
f 48/54/26 47/68/50 46/58/46 35/53/42
f 49/11/8 5/1/1 46/58/46 47/68/50
f 13/22/18 47/69/50 48/30/26 15/23/19
f 47/69/50 13/22/18 50/21/17 49/70/8
f 50/21/17 8/14/10 6/13/9 49/70/8
