# Blender 5.2.0 LTS
# www.blender.org
mtllib terrain-abyss-chancel-object-056.mtl
o terrain-abyss-chancel-object-056
v -0.256359 1.061959 0.027119
v -0.267761 1.061383 0.026833
v -0.258415 1.056046 0.014197
v -0.248447 1.058040 0.026660
v -0.253003 1.064836 0.036518
v -0.255664 1.071728 0.029435
v -0.265270 1.071430 0.030156
v -0.256023 1.082545 0.031141
v -0.254034 1.071799 0.038038
v -0.257048 1.071518 0.047522
v -0.253886 1.081996 0.039679
v -0.253076 1.093298 0.041319
v -0.257231 1.081244 0.048606
v -0.257675 1.092729 0.049475
v -0.266762 1.080838 0.047694
v -0.266844 1.092631 0.047920
v -0.266894 1.070603 0.046977
v -0.269660 1.081297 0.038649
v -0.269368 1.070431 0.037904
v -0.264254 1.082348 0.031097
v -0.269729 1.093101 0.038498
v -0.269709 1.105277 0.037506
v -0.263876 1.093875 0.031356
v -0.255950 1.093986 0.032731
v -0.263634 1.106006 0.031578
v -0.255633 1.106039 0.033602
v -0.264655 1.118861 0.034885
v -0.258307 1.117424 0.035970
v -0.261672 1.117445 0.047277
v -0.268562 1.114616 0.037849
v -0.268488 1.114326 0.044785
v -0.268196 1.104976 0.047156
v -0.259049 1.105353 0.050722
v -0.254017 1.105415 0.042537
v -0.256187 1.114726 0.042641
v -0.270423 1.061030 0.035973
v -0.267578 1.062112 0.046527
v -0.275454 1.054843 0.031371
v -0.269886 1.055619 0.041456
v -0.277329 1.051570 0.032398
v -0.285229 1.054434 0.026224
v -0.277337 1.056257 0.020983
v -0.276983 1.063193 0.014394
v -0.284732 1.056133 0.017373
v -0.283691 1.063981 0.009449
v -0.289236 1.055626 0.014891
v -0.287565 1.058526 0.007667
v -0.290914 1.054377 0.021210
v -0.292318 1.052901 0.013234
v -0.289902 1.053800 0.007863
v -0.288391 1.050517 0.015296
v -0.293756 1.051067 0.017069
v -0.289954 1.050153 0.021191
v -0.284884 1.050325 0.024711
v -0.290249 1.050361 0.025582
v -0.286012 1.050805 0.030204
v -0.283230 1.050516 0.018771
v -0.278120 1.050695 0.026918
v -0.270456 1.050907 0.029168
v -0.278545 1.051367 0.022256
v -0.270855 1.058985 0.028483
v -0.277186 1.051580 0.017128
v -0.272777 1.052363 0.017789
v -0.280306 1.050372 0.011230
v -0.273338 1.050800 0.010066
v -0.286251 1.051111 0.009725
v -0.280991 1.049341 0.001843
v -0.274749 1.049201 0.000204
v -0.286445 1.050441 0.002669
v -0.283132 1.048576 -0.005238
v -0.284998 1.048558 -0.010858
v -0.289063 1.049812 -0.003555
v -0.276038 1.048174 -0.007366
v -0.266966 1.048525 -0.010526
v -0.277529 1.048128 -0.013283
v -0.279298 1.049171 -0.018487
v -0.268573 1.048502 -0.017059
v -0.257342 1.049042 -0.022357
v -0.270918 1.049592 -0.022467
v -0.258808 1.049277 -0.028905
v -0.272242 1.052193 -0.025687
v -0.271083 1.056008 -0.023681
v -0.280538 1.052269 -0.020952
v -0.259778 1.052290 -0.035302
v -0.257414 1.058421 -0.031764
v -0.242661 1.052942 -0.032205
v -0.232898 1.052143 -0.027776
v -0.242376 1.056633 -0.028956
v -0.243629 1.049939 -0.028620
v -0.234770 1.048470 -0.026181
v -0.245036 1.048817 -0.022419
v -0.246346 1.048076 -0.014999
v -0.236697 1.046852 -0.020945
v -0.238465 1.046729 -0.013894
v -0.230097 1.046009 -0.019801
v -0.228032 1.047214 -0.025194
v -0.232156 1.046217 -0.012819
v -0.225784 1.047121 -0.018870
v -0.224253 1.049504 -0.018904
v -0.224112 1.046710 -0.023116
v -0.227479 1.046908 -0.012096
v -0.225895 1.050849 -0.011662
v -0.229159 1.047654 -0.002290
v -0.228066 1.052499 -0.002217
v -0.231332 1.051251 0.010583
v -0.234249 1.047371 -0.003321
v -0.240105 1.047495 -0.004136
v -0.236187 1.050442 0.010488
v -0.235633 1.050856 0.025168
v -0.241161 1.050052 0.010541
v -0.247322 1.050488 0.010526
v -0.241467 1.050979 0.025252
v -0.247984 1.051001 0.024937
v -0.242566 1.050923 0.035704
v -0.235956 1.050858 0.036113
v -0.249118 1.051027 0.034930
v -0.244403 1.050868 0.043504
v -0.250682 1.050921 0.042649
v -0.238079 1.050776 0.044522
v -0.245998 1.051003 0.050503
v -0.251969 1.050999 0.049677
v -0.246952 1.051898 0.057150
v -0.240383 1.050760 0.051410
v -0.241769 1.051973 0.057592
v -0.234297 1.051278 0.052794
v -0.236087 1.056331 0.053429
v -0.236912 1.052571 0.057290
v -0.233182 1.051008 0.045701
v -0.234358 1.057937 0.045458
v -0.229544 1.051106 0.036722
v -0.228980 1.055939 0.036158
v -0.229838 1.051446 0.024740
v -0.228499 1.054697 0.024722
v -0.233945 1.058647 0.024946
v -0.230820 1.054217 0.010816
v -0.235418 1.056709 0.011019
v -0.234242 1.057901 -0.002848
v -0.242372 1.057906 0.011762
v -0.241281 1.057852 0.024993
v -0.249753 1.057748 0.012546
v -0.242225 1.058387 -0.002489
v -0.241248 1.065791 -0.006863
v -0.249139 1.058149 -0.002628
v -0.254938 1.061977 -0.004028
v -0.246923 1.064888 -0.011120
v -0.250746 1.064936 -0.011299
v -0.244575 1.077138 -0.012560
v -0.245627 1.064620 -0.018488
v -0.241707 1.063942 -0.023249
v -0.244050 1.076628 -0.019253
v -0.250639 1.064320 -0.019036
v -0.254180 1.063372 -0.025213
v -0.251758 1.070170 -0.019933
v -0.259686 1.069160 -0.024941
v -0.251211 1.071779 -0.010754
v -0.251855 1.079401 -0.021529
v -0.261564 1.077367 -0.023117
v -0.252845 1.090887 -0.023260
v -0.250677 1.082069 -0.010807
v -0.249637 1.093872 -0.011969
v -0.259310 1.084431 -0.004271
v -0.264892 1.087101 -0.011252
v -0.258765 1.097389 -0.003707
v -0.259509 1.071725 -0.004653
v -0.262595 1.068226 0.004185
v -0.265665 1.073957 -0.011884
v -0.272528 1.070588 -0.005540
v -0.268592 1.065587 -0.016670
v -0.276027 1.063043 -0.008978
v -0.269430 1.060428 -0.020186
v -0.277801 1.057754 -0.012694
v -0.284241 1.055753 -0.007836
v -0.279335 1.054519 -0.016962
v -0.285902 1.053541 -0.012922
v -0.291852 1.052903 -0.010131
v -0.287508 1.052323 -0.017782
v -0.286721 1.049356 -0.016083
v -0.292340 1.052117 -0.015602
v -0.291770 1.049832 -0.014250
v -0.291328 1.049574 -0.009262
v -0.290378 1.053511 -0.004139
v -0.288920 1.054652 0.001167
v -0.283367 1.060552 -0.002509
v -0.280456 1.068184 -0.001917
v -0.278760 1.077584 -0.001505
v -0.270716 1.078639 -0.004210
v -0.281886 1.076166 0.007139
v -0.278039 1.088689 -0.002538
v -0.281882 1.088047 0.006093
v -0.269189 1.089503 -0.004444
v -0.276622 1.103344 -0.005089
v -0.282420 1.103815 0.004275
v -0.274341 1.114421 -0.006058
v -0.267718 1.102509 -0.004650
v -0.263043 1.102424 0.001617
v -0.264562 1.112714 -0.006963
v -0.266950 1.126222 -0.009461
v -0.264850 1.100509 -0.009644
v -0.259437 1.111646 -0.002337
v -0.263578 1.120970 0.009311
v -0.252148 1.127263 -0.004397
v -0.249500 1.107925 -0.014487
v -0.254938 1.105099 -0.024903
v -0.249259 1.125706 -0.017550
v -0.248774 1.150763 -0.021916
v -0.257853 1.124920 -0.026517
v -0.259488 1.150166 -0.029000
v -0.266910 1.150657 -0.016223
v -0.259974 1.172119 -0.028938
v -0.248761 1.171735 -0.022305
v -0.267418 1.170986 -0.016282
v -0.259072 1.187177 -0.023310
v -0.266266 1.184384 -0.014370
v -0.252979 1.188485 -0.018239
v -0.262393 1.188027 -0.007055
v -0.249227 1.185334 -0.009421
v -0.254987 1.187027 -0.003407
v -0.248348 1.170941 -0.009155
v -0.255093 1.171404 -0.000762
v -0.248671 1.151071 -0.008021
v -0.255365 1.151052 -0.000668
v -0.260791 1.131065 0.002127
v -0.264861 1.151287 -0.004600
v -0.264747 1.171299 -0.003947
v -0.267674 1.135783 0.000730
v -0.276561 1.126670 0.012288
v -0.280595 1.122182 -0.001344
v -0.277225 1.104062 0.014796
v -0.266289 1.103752 0.012975
v -0.276381 1.087201 0.014333
v -0.276419 1.075427 0.013538
v -0.267037 1.087703 0.012201
v -0.263692 1.088953 0.002852
v -0.267477 1.076139 0.012006
v -0.263836 1.077762 0.002900
v -0.267511 1.063591 0.014123
v -0.265794 1.104751 -0.018185
v -0.263650 1.089013 -0.021608
v -0.239336 1.076257 -0.023773
v -0.243798 1.090774 -0.019601
v -0.244587 1.090958 -0.012786
v -0.239063 1.090243 -0.024720
v -0.244214 1.106844 -0.020289
v -0.243813 1.120673 -0.020516
v -0.245544 1.107009 -0.012795
v -0.239123 1.107301 -0.026164
v -0.231263 1.107744 -0.027043
v -0.239319 1.125560 -0.024075
v -0.232827 1.127508 -0.023987
v -0.239976 1.130719 -0.015897
v -0.234390 1.133763 -0.016339
v -0.239416 1.130058 -0.009525
v -0.244665 1.123135 -0.013705
v -0.240664 1.122746 -0.006325
v -0.232082 1.123822 -0.005394
v -0.240880 1.107025 -0.005763
v -0.232000 1.107133 -0.003532
v -0.240836 1.090677 -0.006561
v -0.240982 1.077172 -0.007321
v -0.233587 1.090087 -0.005226
v -0.234506 1.076845 -0.005718
v -0.227556 1.089656 -0.010593
v -0.228511 1.076458 -0.010411
v -0.226718 1.089525 -0.019320
v -0.225569 1.107377 -0.010893
v -0.226686 1.125547 -0.013045
v -0.225089 1.107734 -0.020531
v -0.226201 1.124521 -0.020896
v -0.231890 1.089626 -0.025269
v -0.227931 1.075955 -0.018328
v -0.232403 1.075751 -0.023950
v -0.227838 1.064951 -0.018468
v -0.232791 1.064319 -0.023617
v -0.227042 1.055532 -0.020191
v -0.228410 1.065580 -0.010706
v -0.227387 1.056629 -0.011324
v -0.235088 1.066034 -0.006123
v -0.226673 1.050906 -0.025266
v -0.232800 1.056834 -0.025176
v -0.222965 1.049495 -0.023274
v -0.233935 1.131588 -0.009794
v -0.241834 1.065320 0.025689
v -0.246728 1.065409 0.033485
v -0.234287 1.066358 0.024765
v -0.242427 1.078263 0.025565
v -0.241770 1.090805 0.029461
v -0.248103 1.077995 0.033228
v -0.235270 1.078147 0.022533
v -0.234229 1.091326 0.028306
v -0.230178 1.077275 0.030844
v -0.230808 1.087912 0.031936
v -0.228752 1.077997 0.038084
v -0.230148 1.068771 0.030365
v -0.228870 1.064783 0.035469
v -0.233911 1.065676 0.043920
v -0.232350 1.078657 0.044863
v -0.239767 1.065780 0.045202
v -0.239544 1.077918 0.044396
v -0.241175 1.059463 0.048034
v -0.245828 1.064917 0.041924
v -0.246110 1.077692 0.040999
v -0.255170 1.064251 0.045862
v -0.247295 1.058578 0.049043
v -0.255047 1.058795 0.051285
v -0.247768 1.056292 0.054608
v -0.254554 1.056106 0.055945
v -0.241945 1.056977 0.053803
v -0.247557 1.054717 0.059202
v -0.253600 1.054117 0.059798
v -0.242224 1.055627 0.058415
v -0.236023 1.058813 0.059557
v -0.252838 1.051555 0.056667
v -0.259808 1.053320 0.060691
v -0.263958 1.051357 0.058858
v -0.261281 1.055483 0.056634
v -0.258691 1.051168 0.056069
v -0.257751 1.050734 0.048970
v -0.264054 1.050889 0.055217
v -0.263171 1.050908 0.048250
v -0.267319 1.050911 0.053613
v -0.266860 1.054423 0.056010
v -0.268173 1.051918 0.047685
v -0.269119 1.055299 0.049748
v -0.268908 1.053182 0.037390
v -0.262623 1.051352 0.039889
v -0.262780 1.050717 0.031635
v -0.256712 1.050863 0.041415
v -0.255590 1.051025 0.033377
v -0.254607 1.050750 0.024588
v -0.262852 1.050813 0.022729
v -0.253944 1.051104 0.011174
v -0.259498 1.052234 0.013591
v -0.255095 1.049865 -0.004226
v -0.265156 1.049929 -0.001422
v -0.256140 1.049089 -0.014108
v -0.247005 1.048733 -0.004627
v -0.265749 1.051483 0.016917
v -0.263197 1.057920 0.051962
v -0.244746 1.090444 0.039183
v -0.240772 1.089690 0.043633
v -0.246240 1.087567 0.033598
v -0.239865 1.096082 0.035854
v -0.235849 1.091820 0.041171
v -0.233317 1.095652 0.033160
v -0.231202 1.091038 0.036319
vn -0.5334 0.2159 -0.8178
vn 0.6142 0.1667 -0.7713
vn 0.2816 0.7749 -0.5659
vn -0.4399 0.8582 -0.2647
vn 0.3460 0.9354 0.0729
vn 0.3290 0.7274 0.6022
vn 0.0603 0.9982 0.0071
vn -0.1211 0.8952 -0.4289
vn 0.6314 0.7563 -0.1713
vn -0.6996 0.5609 -0.4427
vn 0.9976 0.0606 0.0320
vn 0.6202 0.0783 -0.7805
vn -0.4529 0.0801 -0.8879
vn 0.9978 -0.0157 0.0651
vn 0.5436 -0.0527 0.8377
vn 0.3500 0.5797 0.7358
vn 0.5166 -0.0757 0.8529
vn 0.9939 0.0042 0.1105
vn 0.6684 0.0489 -0.7422
vn 0.4425 -0.0388 0.8959
vn -0.6053 -0.0623 0.7935
vn -0.6275 -0.0529 0.7768
vn -0.6684 -0.0416 0.7426
vn -0.9788 -0.0126 -0.2043
vn -0.9903 0.0134 -0.1386
vn -0.9926 0.0965 -0.0735
vn -0.3538 0.0337 -0.9347
vn -0.7552 0.0491 0.6537
vn -0.9505 0.0331 -0.3088
vn -0.2628 0.1169 -0.9577
vn 0.7089 0.1689 -0.6848
vn -0.2225 0.8067 -0.5474
vn 0.5950 0.6660 -0.4498
vn -0.8765 0.4169 -0.2407
vn 0.0629 0.7419 0.6675
vn 0.8210 0.5314 0.2086
vn -0.7751 0.4299 0.4631
vn 0.3107 0.1316 0.9414
vn 0.9704 0.1528 0.1871
vn -0.9328 0.3463 0.0995
vn -0.6985 0.3006 0.6494
vn -0.6740 0.5758 0.4628
vn -0.9501 -0.0205 0.3114
vn -0.3319 0.8861 0.3235
vn -0.3487 -0.5930 0.7258
vn -0.4732 -0.8192 0.3241
vn -0.3312 0.8385 0.4326
vn -0.4488 -0.3490 0.8227
vn -0.3391 0.8682 0.3623
vn -0.3668 0.5356 0.7606
vn -0.8204 0.4779 0.3140
vn -0.6365 0.7620 0.1195
vn -0.8055 0.5926 -0.0010
vn -0.7037 0.6355 0.3177
vn -0.9736 -0.1332 -0.1853
vn -0.9511 -0.1477 -0.2712
vn -0.9334 -0.3389 -0.1180
vn -0.3259 -0.9425 -0.0733
vn -0.1576 -0.9728 -0.1700
vn -0.4473 -0.8872 0.1132
vn -0.6952 -0.4150 0.5869
vn 0.0538 -0.9982 0.0272
vn 0.0850 -0.9962 -0.0171
vn 0.2621 -0.9481 -0.1799
vn 0.3360 -0.9410 -0.0407
vn 0.0426 -0.9604 -0.2755
vn -0.0216 -0.9615 -0.2740
vn 0.2223 -0.9595 0.1733
vn 0.0702 -0.9602 0.2703
vn 0.0165 -0.9964 0.0832
vn 0.0674 -0.9892 0.1305
vn -0.0646 -0.9893 0.1312
vn 0.0528 -0.9904 0.1280
vn -0.4992 -0.8554 0.1377
vn -0.0946 -0.9909 0.0961
vn 0.0196 -0.9975 0.0678
vn -0.6236 -0.7342 0.2684
vn -0.1125 -0.9933 -0.0271
vn -0.0321 -0.9966 -0.0760
vn -0.7028 -0.6961 0.1463
vn 0.0498 -0.9912 0.1227
vn 0.0574 -0.9968 0.0555
vn 0.0034 -0.9974 -0.0719
vn -0.1847 -0.8842 -0.4290
vn -0.2348 -0.8507 -0.4704
vn -0.1720 -0.9242 -0.3411
vn -0.0099 -0.9976 -0.0691
vn -0.0177 -0.9994 0.0282
vn -0.0694 -0.9435 -0.3241
vn -0.5601 -0.1362 -0.8172
vn -0.2416 -0.1869 -0.9522
vn -0.4980 0.1114 -0.8600
vn -0.4172 0.8111 -0.4100
vn -0.4759 0.6814 -0.5561
vn -0.1453 0.6621 -0.7352
vn 0.2174 0.5514 -0.8054
vn 0.2584 -0.1240 -0.9580
vn 0.0508 -0.8938 -0.4456
vn 0.4446 0.4341 -0.7835
vn 0.3743 0.0649 -0.9250
vn 0.0386 -0.8007 -0.5978
vn -0.1301 -0.9771 -0.1684
vn -0.0862 -0.9876 -0.1311
vn -0.1306 -0.9914 -0.0090
vn -0.1333 -0.9911 0.0026
vn 0.1841 -0.7167 -0.6726
vn 0.0174 -0.9962 -0.0850
vn 0.0206 -0.9982 0.0564
vn 0.6188 -0.7259 -0.3003
vn 0.5616 -0.8130 0.1538
vn 0.5797 -0.7952 0.1778
vn 0.9899 -0.0018 0.1417
vn 0.9756 0.0379 0.2165
vn 0.9334 0.0466 -0.3557
vn 0.9389 0.2434 0.2434
vn 0.5998 -0.7613 0.2463
vn 0.0235 -0.9868 0.1605
vn 0.9190 0.3943 -0.0013
vn 0.6497 -0.7498 0.1253
vn 0.0591 -0.9901 0.1275
vn -0.0936 -0.9889 0.1152
vn -0.0348 -0.9938 0.1059
vn 0.6607 -0.7499 -0.0343
vn 0.0529 -0.9986 0.0093
vn -0.0093 -0.9997 0.0214
vn -0.0146 -0.9998 0.0168
vn -0.0780 -0.9942 0.0739
vn -0.1331 -0.9871 0.0888
vn -0.0115 -0.9999 -0.0075
vn 0.0008 -1.0000 -0.0038
vn 0.0233 -0.9997 -0.0062
vn 0.0172 -0.9998 0.0068
vn -0.0141 -0.9999 -0.0026
vn 0.0049 -1.0000 -0.0031
vn -0.0127 -0.9975 0.0695
vn 0.0217 -0.9985 0.0495
vn 0.0163 -0.9939 0.1090
vn 0.0580 -0.9215 0.3841
vn 0.0315 -0.8446 0.5345
vn 0.0347 -0.7559 0.6537
vn 0.7563 -0.6031 0.2534
vn 0.5083 -0.5872 0.6299
vn 0.7058 -0.6651 0.2440
vn 0.7682 0.3067 0.5619
vn 0.6974 0.6785 0.2307
vn 0.4111 0.6400 0.6491
vn 0.7163 -0.6753 0.1755
vn 0.9835 0.0677 0.1679
vn 0.9704 0.1854 -0.1547
vn 0.5783 0.6042 -0.5482
vn 0.9972 0.0427 0.0609
vn 0.3200 0.9472 -0.0200
vn 0.4976 0.7161 0.4894
vn 0.0263 0.9997 0.0026
vn -0.0674 0.8830 0.4645
vn -0.1780 0.8141 -0.5527
vn 0.0157 0.9310 0.3646
vn -0.3344 0.3508 0.8747
vn 0.2961 0.1678 0.9403
vn -0.4709 0.7658 0.4378
vn 0.5368 0.6744 0.5069
vn 0.6089 0.6825 0.4042
vn 0.4736 0.8305 -0.2932
vn -0.5443 0.7725 -0.3270
vn -0.5272 0.0265 0.8493
vn -0.9614 0.0764 0.2643
vn -0.8989 0.0574 -0.4343
vn -0.1352 0.4744 -0.8698
vn 0.0678 0.6620 -0.7464
vn -0.3971 -0.0159 -0.9177
vn 0.8474 0.1387 -0.5126
vn -0.2186 0.2014 -0.9548
vn 0.9135 0.0738 0.4000
vn -0.4973 0.0826 -0.8636
vn 0.7248 -0.0061 -0.6890
vn 0.9207 -0.0311 0.3891
vn -0.7200 -0.0310 -0.6933
vn 0.5319 -0.0079 -0.8468
vn 0.9632 0.0001 0.2686
vn -0.0045 -0.0374 0.9993
vn -0.1058 -0.0273 0.9940
vn 0.2939 0.5355 0.7917
vn -0.9212 -0.0830 0.3802
vn -0.9622 -0.0368 0.2699
vn -0.8991 0.4375 -0.0152
vn 0.8193 0.4935 0.2919
vn -0.3459 0.5976 -0.7233
vn -0.6430 0.5241 -0.5585
vn -0.7028 0.3700 -0.6076
vn -0.5507 0.5621 -0.6171
vn -0.5740 0.6780 -0.4591
vn -0.5154 0.7931 -0.3246
vn -0.7375 0.5746 -0.3549
vn -0.2819 0.9288 -0.2405
vn -0.4262 0.3351 -0.8403
vn -0.9323 0.3504 0.0898
vn -0.8425 0.5378 0.0292
vn -0.7656 0.3123 -0.5624
vn -0.6706 -0.6881 -0.2773
vn -0.9875 0.1555 -0.0250
vn -0.7746 0.3283 -0.5405
vn -0.7118 0.0777 -0.6980
vn -0.9773 0.0886 0.1925
vn 0.2656 0.0048 -0.9641
vn -0.6176 -0.0457 -0.7852
vn 0.3595 -0.0839 -0.9294
vn -0.9971 -0.0155 0.0748
vn -0.9986 0.0147 -0.0514
vn -0.4989 -0.0850 -0.8625
vn 0.3635 -0.2112 -0.9073
vn -0.8795 0.2942 -0.3741
vn -0.4423 -0.0717 -0.8940
vn -0.8130 -0.3226 -0.4846
vn 0.9732 -0.1898 -0.1295
vn 0.9847 -0.0647 -0.1618
vn 0.8160 -0.2412 0.5254
vn -0.8574 0.1266 -0.4989
vn -0.9081 -0.0287 -0.4177
vn 0.4936 0.2010 0.8461
vn 0.5979 0.1474 0.7879
vn 0.8637 -0.0800 0.4976
vn 0.6328 -0.0115 0.7742
vn 0.9982 -0.0243 0.0548
vn 0.9703 -0.0839 -0.2270
vn -0.0953 -0.0742 -0.9927
vn 0.2401 0.0133 -0.9706
vn -0.2167 -0.0852 -0.9725
vn 0.8908 -0.0454 -0.4521
vn 0.9237 -0.0246 0.3822
vn -0.9743 -0.0255 -0.2239
vn -0.9833 0.0755 -0.1653
vn -0.2256 0.1613 -0.9608
vn 0.8436 0.1261 -0.5220
vn -0.2136 0.6624 -0.7181
vn 0.4654 0.8109 -0.3548
vn -0.8636 0.4929 -0.1064
vn -0.4769 0.7505 0.4576
vn 0.2476 0.6116 0.7515
vn 0.8191 0.5175 0.2474
vn 0.9515 0.0674 0.3003
vn 0.2424 0.0826 0.9667
vn 0.2887 0.0599 0.9555
vn -0.7388 0.0795 0.6692
vn -0.7896 0.0963 0.6060
vn -0.6247 0.5619 0.5422
vn -0.4539 0.5741 0.6815
vn -0.4467 0.0651 0.8923
vn -0.3742 -0.0274 0.9269
vn 0.6577 -0.0423 0.7521
vn 0.6170 0.0491 0.7854
vn -0.3345 0.0725 0.9396
vn 0.9793 -0.0051 -0.2025
vn -0.9059 -0.0296 -0.4225
vn -0.4316 -0.0648 -0.8997
vn -0.9751 -0.0229 0.2205
vn -0.8998 -0.0059 -0.4362
vn -0.9792 0.0017 0.2028
vn -0.4275 0.0081 -0.9040
vn -0.8814 0.1804 -0.4365
vn -0.5015 0.4111 -0.7612
vn -0.9525 0.2864 0.1038
vn 0.3266 0.0128 -0.9451
vn 0.3768 -0.1036 -0.9205
vn 0.2551 0.5732 -0.7786
vn 0.1360 0.9847 -0.1085
vn -0.6421 0.7560 -0.1269
vn -0.5126 0.6519 0.5588
vn 0.1901 0.7869 0.5870
vn -0.5607 0.2619 0.7855
vn -0.5690 0.0067 0.8223
vn 0.3574 0.3259 0.8752
vn 0.3187 0.0017 0.9478
vn -0.5711 -0.0398 0.8199
vn 0.2591 -0.0723 0.9631
vn 0.2275 -0.0335 0.9732
vn 0.8949 -0.0884 0.4375
vn 0.8745 -0.0455 0.4830
vn 0.9228 -0.0083 0.3853
vn 0.9523 -0.0503 -0.3010
vn 0.9445 -0.1021 -0.3123
vn 0.9295 -0.0063 -0.3687
vn 0.8793 0.4182 0.2281
vn 0.8518 0.3363 -0.4017
vn 0.4002 -0.0633 -0.9142
vn 0.4268 0.1509 -0.8917
vn 0.9430 0.0675 -0.3259
vn 0.8906 0.0703 0.4494
vn 0.8714 0.3755 -0.3157
vn 0.9066 0.3180 0.2773
vn 0.5791 0.2146 -0.7865
vn -0.4640 0.0814 -0.8821
vn 0.4424 -0.0572 -0.8950
vn -0.5603 0.1048 -0.8216
vn -0.9753 0.0617 -0.2120
vn 0.2976 0.1166 -0.9475
vn -0.5333 0.5463 -0.6459
vn 0.3639 0.5331 -0.7638
vn -0.9159 0.3365 -0.2190
vn 0.9229 0.1935 -0.3329
vn 0.9267 0.0693 -0.3692
vn 0.9134 -0.0221 -0.4064
vn 0.9721 0.0772 0.2216
vn 0.8650 0.4600 0.2005
vn 0.5378 0.1035 0.8367
vn 0.5914 0.0358 0.8056
vn -0.2224 0.0866 0.9711
vn -0.0762 0.2444 0.9667
vn 0.0609 0.7592 0.6480
vn -0.8238 0.0619 0.5635
vn -0.4215 0.6468 0.6356
vn 0.0297 0.8192 0.5727
vn 0.0536 0.8153 0.5766
vn 0.0050 0.8935 0.4489
vn -0.0060 0.9255 0.3787
vn -0.0394 0.9728 0.2284
vn 0.0590 0.1314 0.9896
vn 0.0193 0.2936 0.9557
vn -0.0744 0.4836 0.8721
vn -0.0762 -0.0166 0.9970
vn 0.0723 -0.9655 0.2503
vn -0.2076 0.8124 0.5449
vn -0.3744 -0.4221 0.8256
vn -0.7536 0.2922 0.5888
vn -0.2196 -0.9470 0.2344
vn 0.0074 -0.9998 0.0166
vn -0.0911 -0.9949 -0.0439
vn -0.6519 -0.7359 0.1831
vn -0.6671 -0.7447 0.0181
vn -0.9302 0.1617 0.3294
vn -0.1238 -0.9923 0.0099
vn -0.1689 -0.9845 -0.0471
vn -0.0096 -0.9999 -0.0084
vn 0.0040 -0.9999 0.0110
vn -0.1977 -0.9797 -0.0334
vn -0.0189 -0.9997 -0.0123
vn -0.0217 -0.9997 0.0094
vn -0.0613 -0.9970 0.0466
vn -0.0488 -0.9938 0.0998
vn -0.0873 -0.9877 0.1295
vn -0.2958 0.7861 0.5428
vn -0.2663 0.3825 0.8848
vn -0.7507 0.5198 0.4077
vn -0.2493 0.9669 0.0545
vn 0.3027 0.5998 0.7407
vn 0.4719 0.8611 -0.1892
vt 0.638764 0.162890
vt 0.639678 0.166167
vt 0.635575 0.165212
vt 0.630273 0.160946
vt 0.106253 0.590059
vt 0.102820 0.580382
vt 0.110142 0.573515
vt 0.110280 0.584856
vt 0.097947 0.584003
vt 0.101774 0.595429
vt 0.957732 0.646588
vt 0.964465 0.645017
vt 0.965260 0.648717
vt 0.958378 0.649307
vt 0.641813 0.169350
vt 0.638611 0.169828
vt 0.644127 0.167703
vt 0.644087 0.165065
vt 0.645265 0.171445
vt 0.788088 0.031108
vt 0.793207 0.030653
vt 0.792678 0.034422
vt 0.787624 0.034431
vt 0.788419 0.026003
vt 0.793211 0.026081
vt 0.648855 0.173231
vt 0.648592 0.169860
vt 0.792634 0.020552
vt 0.787976 0.020289
vt 0.798341 0.030829
vt 0.798203 0.026010
vt 0.797464 0.020281
vt 0.802335 0.019412
vt 0.803048 0.025103
vt 0.803126 0.030437
vt 0.642915 0.162026
vt 0.639421 0.160295
vt 0.649750 0.163310
vt 0.649268 0.166746
vt 0.797957 0.014342
vt 0.802803 0.013118
vt 0.654182 0.168292
vt 0.656079 0.165603
vt 0.653879 0.171636
vt 0.661130 0.173474
vt 0.659141 0.174498
vt 0.659264 0.169521
vt 0.793828 0.009186
vt 0.789283 0.009584
vt 0.792079 0.005069
vt 0.798278 0.005353
vt 0.800407 0.007770
vt 0.797782 0.009910
vt 0.793200 0.014548
vt 0.788420 0.014310
vt 0.654512 0.175873
vt 0.657826 0.177109
vt 0.804686 0.034669
vt 0.799379 0.034784
vt 0.636251 0.156222
vt 0.630282 0.156409
vt 0.633231 0.150236
vt 0.637482 0.148899
vt 0.623666 0.166843
vt 0.628303 0.155663
vt 0.631068 0.148958
vt 0.623500 0.163485
vt 0.624900 0.159846
vt 0.619535 0.166372
vt 0.626189 0.170517
vt 0.620652 0.171120
vt 0.613030 0.171099
vt 0.617423 0.165740
vt 0.612775 0.167688
vt 0.620947 0.163372
vt 0.613198 0.164734
vt 0.616872 0.163932
vt 0.619566 0.162512
vt 0.614698 0.161335
vt 0.618544 0.160627
vt 0.621212 0.160235
vt 0.622544 0.160488
vt 0.623668 0.157688
vt 0.620755 0.157176
vt 0.626007 0.154650
vt 0.623214 0.154440
vt 0.625017 0.148603
vt 0.627871 0.149410
vt 0.619864 0.153874
vt 0.619937 0.151079
vt 0.616664 0.156746
vt 0.615623 0.152783
vt 0.611555 0.158475
vt 0.610296 0.154962
vt 0.611238 0.162395
vt 0.607435 0.160332
vt 0.605782 0.156745
vt 0.608298 0.163897
vt 0.604607 0.161706
vt 0.602224 0.158634
vt 0.605580 0.165134
vt 0.607872 0.149823
vt 0.602727 0.152424
vt 0.599148 0.154732
vt 0.599354 0.160835
vt 0.601562 0.163648
vt 0.596307 0.157565
vt 0.594847 0.149397
vt 0.599079 0.146884
vt 0.591689 0.151721
vt 0.594341 0.160315
vt 0.589253 0.155384
vt 0.597352 0.162931
vt 0.598027 0.167285
vt 0.592934 0.164308
vt 0.586133 0.157008
vt 0.583229 0.147357
vt 0.585162 0.146010
vt 0.587867 0.144859
vt 0.581478 0.141051
vt 0.584186 0.140648
vt 0.587218 0.140391
vt 0.591011 0.138728
vt 0.591752 0.143235
vt 0.596322 0.142129
vt 0.595042 0.138006
vt 0.587360 0.137312
vt 0.590235 0.135897
vt 0.593800 0.134729
vt 0.587788 0.135358
vt 0.589138 0.134068
vt 0.591708 0.132606
vt 0.588024 0.133304
vt 0.589319 0.130869
vt 0.586479 0.134926
vt 0.596892 0.129723
vt 0.596886 0.131377
vt 0.599430 0.133645
vt 0.605379 0.128524
vt 0.605705 0.129945
vt 0.606920 0.132009
vt 0.600622 0.136654
vt 0.608447 0.134365
vt 0.613245 0.126894
vt 0.614481 0.129454
vt 0.616031 0.132524
vt 0.617789 0.135976
vt 0.610220 0.137774
vt 0.602248 0.140249
vt 0.621449 0.131713
vt 0.622936 0.135486
vt 0.620067 0.128185
vt 0.624452 0.128382
vt 0.625495 0.131741
vt 0.626742 0.135162
vt 0.628657 0.131274
vt 0.629814 0.134667
vt 0.988555 0.638210
vt 0.990977 0.643094
vt 0.989395 0.648116
vt 0.987663 0.642297
vt 0.632639 0.133529
vt 0.631457 0.130399
vt 0.984815 0.639536
vt 0.983362 0.637163
vt 0.985785 0.645314
vt 0.985087 0.641897
vt 0.985763 0.648787
vt 0.980592 0.650862
vt 0.982241 0.645974
vt 0.983022 0.642996
vt 0.986301 0.652830
vt 0.990575 0.650266
vt 0.985503 0.655458
vt 0.617869 0.122931
vt 0.618982 0.125768
vt 0.612614 0.125317
vt 0.611107 0.122986
vt 0.617030 0.119407
vt 0.605132 0.125784
vt 0.598645 0.127052
vt 0.605192 0.122252
vt 0.598887 0.122544
vt 0.610645 0.119430
vt 0.096660 0.596078
vt 0.093963 0.586392
vt 0.086571 0.576877
vt 0.090672 0.574840
vt 0.953249 0.117353
vt 0.949357 0.116686
vt 0.949442 0.113361
vt 0.953691 0.114030
vt 0.082320 0.571623
vt 0.085733 0.568502
vt 0.093132 0.570763
vt 0.087659 0.566954
vt 0.580936 0.157653
vt 0.578304 0.158415
vt 0.577789 0.156824
vt 0.579193 0.153797
vt 0.958930 0.117746
vt 0.958793 0.121394
vt 0.952779 0.121075
vt 0.958496 0.125170
vt 0.952668 0.125180
vt 0.579451 0.149698
vt 0.583881 0.159709
vt 0.573288 0.150846
vt 0.573281 0.146853
vt 0.394753 0.898839
vt 0.391783 0.900922
vt 0.390370 0.898199
vt 0.393782 0.894713
vt 0.395723 0.902956
vt 0.392127 0.904253
vt 0.398053 0.891966
vt 0.399898 0.896170
vt 0.401318 0.900807
vt 0.405022 0.888742
vt 0.406955 0.893638
vt 0.408452 0.899450
vt 0.407949 0.879601
vt 0.400809 0.882933
vt 0.396579 0.880892
vt 0.404009 0.877427
vt 0.394410 0.885916
vt 0.392607 0.882155
vt 0.411358 0.880999
vt 0.403283 0.885351
vt 0.395900 0.888375
vt 0.095738 0.564435
vt 0.102229 0.569660
vt 0.093245 0.559325
vt 0.098181 0.561343
vt 0.088679 0.562289
vt 0.598509 0.171905
vt 0.596656 0.174670
vt 0.592173 0.172923
vt 0.592795 0.169312
vt 0.586658 0.165676
vt 0.586641 0.168741
vt 0.592471 0.166719
vt 0.598486 0.169674
vt 0.602524 0.169611
vt 0.606351 0.172387
vt 0.601828 0.167963
vt 0.600624 0.165423
vt 0.606875 0.168300
vt 0.605548 0.166818
vt 0.602867 0.166091
vt 0.603470 0.165065
vt 0.609719 0.166769
vt 0.608891 0.174086
vt 0.137964 0.565900
vt 0.132061 0.566111
vt 0.137118 0.562950
vt 0.142890 0.561931
vt 0.130885 0.563773
vt 0.123863 0.571876
vt 0.124048 0.567615
vt 0.137634 0.561155
vt 0.412403 0.852951
vt 0.415352 0.855321
vt 0.414494 0.860136
vt 0.412047 0.856519
vt 0.413079 0.846135
vt 0.416009 0.848806
vt 0.420110 0.857660
vt 0.419175 0.864045
vt 0.417211 0.868682
vt 0.424786 0.866494
vt 0.422306 0.870524
vt 0.419995 0.876679
vt 0.413911 0.870398
vt 0.412933 0.862023
vt 0.415700 0.875699
vt 0.428302 0.876495
vt 0.413921 0.884079
vt 0.433876 0.865442
vt 0.432081 0.855593
vt 0.437458 0.851312
vt 0.437824 0.862389
vt 0.427037 0.846090
vt 0.432129 0.843529
vt 0.939529 0.980396
vt 0.947515 0.981531
vt 0.948270 0.987095
vt 0.939252 0.986852
vt 0.410196 0.873549
vt 0.427667 0.887679
vt 0.427874 0.894469
vt 0.416520 0.895506
vt 0.415435 0.889932
vt 0.441994 0.889863
vt 0.443035 0.897440
vt 0.927373 0.980917
vt 0.926821 0.988567
vt 0.442355 0.882386
vt 0.454733 0.885879
vt 0.455295 0.893512
vt 0.456415 0.900671
vt 0.464475 0.892644
vt 0.468986 0.894648
vt 0.462240 0.886698
vt 0.465783 0.884128
vt 0.907530 0.985292
vt 0.907998 0.972602
vt 0.910346 0.976292
vt 0.911054 0.980940
vt 0.916394 0.987575
vt 0.917330 0.981261
vt 0.917742 0.975874
vt 0.927778 0.975131
vt 0.937627 0.974170
vt 0.916912 0.970660
vt 0.927173 0.970123
vt 0.935823 0.969607
vt 0.454996 0.879863
vt 0.442367 0.876269
vt 0.433164 0.872065
vt 0.428335 0.861484
vt 0.422748 0.850198
vt 0.417213 0.842283
vt 0.423492 0.836248
vt 0.112199 0.569047
vt 0.115876 0.564548
vt 0.119693 0.565997
vt 0.117898 0.570640
vt 0.125446 0.561766
vt 0.427363 0.835191
vt 0.410374 0.857191
vt 0.407961 0.860834
vt 0.407239 0.855714
vt 0.118919 0.575755
vt 0.105736 0.564869
vt 0.102266 0.560414
vt 0.565943 0.148718
vt 0.566462 0.145112
vt 0.965393 0.121974
vt 0.965424 0.125950
vt 0.973184 0.125683
vt 0.973019 0.121739
vt 0.557277 0.143750
vt 0.557291 0.147317
vt 0.549928 0.145782
vt 0.546186 0.142248
vt 0.980721 0.122039
vt 0.980034 0.125365
vt 0.557521 0.140126
vt 0.566539 0.141050
vt 0.547544 0.138652
vt 0.543662 0.135794
vt 0.542828 0.140624
vt 0.985713 0.122128
vt 0.983555 0.125859
vt 0.984133 0.119348
vt 0.985828 0.116983
vt 0.988035 0.117340
vt 0.980686 0.118360
vt 0.973086 0.117326
vt 0.981469 0.114730
vt 0.973860 0.111840
vt 0.965367 0.117833
vt 0.965384 0.113420
vt 0.958964 0.114200
vt 0.964964 0.108721
vt 0.958456 0.109818
vt 0.974042 0.108161
vt 0.568034 0.132101
vt 0.575466 0.132525
vt 0.573701 0.137048
vt 0.567197 0.136443
vt 0.559313 0.131272
vt 0.558291 0.135942
vt 0.985790 0.112275
vt 0.549627 0.134719
vt 0.549031 0.129841
vt 0.573048 0.142320
vt 0.578364 0.141179
vt 0.578894 0.136300
vt 0.580220 0.131257
vt 0.583501 0.133886
vt 0.585573 0.128907
vt 0.953272 0.109603
vt 0.949294 0.107949
vt 0.946621 0.107015
vt 0.945928 0.111666
vt 0.585599 0.136932
vt 0.988612 0.670095
vt 0.986045 0.666844
vt 0.986580 0.665559
vt 0.989441 0.668216
vt 0.098717 0.603478
vt 0.093868 0.601841
vt 0.093674 0.610073
vt 0.096922 0.611089
vt 0.090749 0.611747
vt 0.091242 0.603323
vt 0.093280 0.616387
vt 0.091055 0.618226
vt 0.095476 0.615232
vt 0.088999 0.620043
vt 0.085480 0.620143
vt 0.984083 0.666090
vt 0.985163 0.670782
vt 0.982427 0.666939
vt 0.090619 0.625905
vt 0.091790 0.622100
vt 0.979801 0.662455
vt 0.983409 0.659102
vt 0.976563 0.658716
vt 0.978666 0.653616
vt 0.972892 0.655565
vt 0.975029 0.650897
vt 0.977324 0.647283
vt 0.969855 0.653169
vt 0.971273 0.648603
vt 0.975543 0.643695
vt 0.099338 0.613533
vt 0.100966 0.606253
vt 0.969326 0.642385
vt 0.973541 0.639111
vt 0.976328 0.636862
vt 0.978056 0.640443
vt 0.979467 0.644022
vt 0.978655 0.635142
vt 0.980744 0.637843
vt 0.982200 0.640157
vt 0.980694 0.633648
vt 0.634415 0.133214
vt 0.635972 0.136727
vt 0.633765 0.136912
vt 0.974892 0.633088
vt 0.977519 0.631424
vt 0.975812 0.629384
vt 0.974227 0.629231
vt 0.636177 0.139445
vt 0.634680 0.140212
vt 0.630991 0.138167
vt 0.631785 0.141432
vt 0.634977 0.142400
vt 0.633343 0.144593
vt 0.636644 0.143485
vt 0.634764 0.146942
vt 0.629205 0.142910
vt 0.626294 0.143380
vt 0.627835 0.138801
vt 0.623979 0.139175
vt 0.620796 0.143902
vt 0.619211 0.139548
vt 0.615151 0.143985
vt 0.612267 0.141269
vt 0.604419 0.144657
vt 0.618219 0.146940
vt 0.637725 0.146685
vt 0.971223 0.630306
vt 0.971704 0.634387
vt 0.967998 0.634844
vt 0.100807 0.621907
vt 0.097475 0.619972
vt 0.096329 0.617653
vt 0.094117 0.619001
vt 0.094915 0.621132
vt 0.091971 0.620160
vt 0.096382 0.624686
s 1
usemtl abyss_chancel_background_pbr
f 7/1/1 6/2/2 1/3/3 2/4/4
f 1/5/3 3/6/5 236/7/6 2/8/4
f 140/9/7 3/6/5 1/5/3 4/10/8
f 1/11/3 5/12/9 283/13/10 4/14/8
f 9/15/11 5/16/9 1/3/3 6/2/2
f 8/17/12 6/2/2 7/1/1 20/18/13
f 9/15/11 6/2/2 8/17/12 11/19/14
f 9/20/11 10/21/15 302/22/16 5/23/9
f 10/21/15 9/20/11 11/24/14 13/25/17
f 12/26/18 11/19/14 8/17/12 24/27/19
f 14/28/20 13/25/17 11/24/14 12/29/18
f 17/30/21 10/21/15 13/25/17 15/31/22
f 16/32/23 15/31/22 13/25/17 14/28/20
f 21/33/24 18/34/25 15/31/22 16/32/23
f 19/35/26 17/30/21 15/31/22 18/34/25
f 18/36/25 20/18/13 7/1/1 19/37/26
f 20/18/13 18/36/25 21/38/24 23/39/27
f 32/40/28 22/41/29 21/33/24 16/32/23
f 25/42/30 23/39/27 21/38/24 22/43/29
f 23/39/27 24/27/19 8/17/12 20/18/13
f 25/42/30 26/44/31 24/27/19 23/39/27
f 25/42/30 27/45/32 28/46/33 26/44/31
f 25/42/30 22/43/29 30/47/34 27/45/32
f 29/48/35 35/49/36 28/50/33 27/51/32
f 27/51/32 30/52/34 31/53/37 29/48/35
f 22/41/29 32/40/28 31/53/37 30/52/34
f 33/54/38 29/48/35 31/53/37 32/40/28
f 33/54/38 32/40/28 16/32/23 14/28/20
f 34/55/39 33/54/38 14/28/20 12/29/18
f 33/54/38 34/55/39 35/49/36 29/48/35
f 26/44/31 34/56/39 12/26/18 24/27/19
f 34/56/39 26/44/31 28/46/33 35/57/36
f 19/35/26 36/58/40 37/59/41 17/30/21
f 19/37/26 7/1/1 2/4/4 36/60/40
f 38/61/42 39/62/43 37/63/41 36/60/40
f 38/61/42 36/60/40 2/4/4 42/64/44
f 38/61/42 40/65/45 324/66/46 39/62/43
f 38/61/42 41/67/47 56/68/48 40/65/45
f 42/64/44 44/69/49 41/67/47 38/61/42
f 42/64/44 2/4/4 236/70/6 43/71/50
f 42/64/44 43/71/50 45/72/51 44/69/49
f 46/73/52 44/69/49 45/72/51 47/74/53
f 46/73/52 48/75/54 41/67/47 44/69/49
f 47/74/53 50/76/55 49/77/56 46/73/52
f 48/75/54 46/73/52 49/77/56 52/78/57
f 49/77/56 50/76/55 66/79/58 51/80/59
f 53/81/60 52/78/57 49/77/56 51/80/59
f 52/78/57 53/81/60 55/82/61 48/75/54
f 55/82/61 53/81/60 54/83/62 56/68/48
f 54/83/62 53/81/60 51/80/59 57/84/63
f 48/75/54 55/82/61 56/68/48 41/67/47
f 40/65/45 56/68/48 54/83/62 58/85/64
f 60/86/65 58/85/64 54/83/62 57/84/63
f 58/85/64 60/86/65 61/87/66 59/88/67
f 58/85/64 59/88/67 324/66/46 40/65/45
f 60/86/65 62/89/68 63/90/69 61/87/66
f 57/84/63 64/91/70 62/89/68 60/86/65
f 64/91/70 65/92/71 63/90/69 62/89/68
f 65/92/71 64/91/70 67/93/72 68/94/73
f 57/84/63 51/80/59 66/79/58 64/91/70
f 66/79/58 69/95/74 67/93/72 64/91/70
f 67/93/72 70/96/75 73/97/76 68/94/73
f 72/98/77 70/96/75 67/93/72 69/95/74
f 73/97/76 70/96/75 71/99/78 75/100/79
f 72/98/77 180/101/80 71/99/78 70/96/75
f 334/102/81 68/94/73 73/97/76 74/103/82
f 77/104/83 74/103/82 73/97/76 75/100/79
f 76/105/84 75/100/79 71/99/78 177/106/85
f 75/100/79 76/105/84 79/107/86 77/104/83
f 78/108/87 335/109/88 74/103/82 77/104/83
f 78/108/87 77/104/83 79/107/86 80/110/89
f 79/107/86 81/111/90 84/112/91 80/110/89
f 79/107/86 76/105/84 83/113/92 81/111/90
f 83/113/92 173/114/93 82/115/94 81/111/90
f 82/115/94 85/116/95 84/112/91 81/111/90
f 85/116/95 88/117/96 86/118/97 84/112/91
f 80/110/89 84/112/91 86/118/97 89/119/98
f 279/120/99 87/121/100 86/118/97 88/117/96
f 86/118/97 87/121/100 90/122/101 89/119/98
f 89/119/98 90/122/101 93/123/102 91/124/103
f 91/124/103 78/108/87 80/110/89 89/119/98
f 91/124/103 92/125/104 335/109/88 78/108/87
f 92/125/104 91/124/103 93/123/102 94/126/105
f 96/127/106 95/128/107 93/123/102 90/122/101
f 93/123/102 95/128/107 97/129/108 94/126/105
f 95/128/107 96/127/106 100/130/109 98/131/110
f 98/131/110 101/132/111 97/129/108 95/128/107
f 99/133/112 102/134/113 101/132/111 98/131/110
f 98/131/110 100/130/109 280/135/114 99/133/112
f 102/134/113 104/136/115 103/137/116 101/132/111
f 97/129/108 101/132/111 103/137/116 106/138/117
f 104/136/115 135/139/118 105/140/119 103/137/116
f 106/138/117 103/137/116 105/140/119 108/141/120
f 107/142/121 94/126/105 97/129/108 106/138/117
f 106/138/117 108/141/120 110/143/122 107/142/121
f 105/140/119 132/144/123 109/145/124 108/141/120
f 109/145/124 112/146/125 110/143/122 108/141/120
f 113/147/126 111/148/127 110/143/122 112/146/125
f 110/143/122 111/148/127 336/149/128 107/142/121
f 113/147/126 112/146/125 114/150/129 116/151/130
f 114/150/129 112/146/125 109/145/124 115/152/131
f 119/153/132 117/154/133 114/150/129 115/152/131
f 118/155/134 116/151/130 114/150/129 117/154/133
f 118/155/134 117/154/133 120/156/135 121/157/136
f 120/158/135 117/159/133 119/160/132 123/161/137
f 312/162/138 121/157/136 120/156/135 122/163/139
f 124/164/140 122/165/139 120/158/135 123/161/137
f 123/161/137 125/166/141 127/167/142 124/164/140
f 125/166/141 123/161/137 119/160/132 128/168/143
f 125/166/141 128/168/143 129/169/144 126/170/145
f 125/166/141 126/170/145 311/171/146 127/167/142
f 130/172/147 128/168/143 119/160/132 115/173/131
f 130/172/147 131/174/148 129/169/144 128/168/143
f 131/175/148 130/176/147 132/144/123 133/177/149
f 130/176/147 115/152/131 109/145/124 132/144/123
f 135/139/118 133/177/149 132/144/123 105/140/119
f 133/177/149 134/178/150 294/179/151 131/175/148
f 135/139/118 136/180/152 134/178/150 133/177/149
f 135/139/118 104/136/115 137/181/153 136/180/152
f 138/182/154 136/180/152 137/181/153 141/183/155
f 138/182/154 139/184/156 134/178/150 136/180/152
f 139/185/156 138/186/154 140/9/7 4/10/8
f 141/187/155 143/188/157 140/9/7 138/186/154
f 142/189/158 141/190/155 137/191/153 277/192/159
f 141/187/155 142/193/158 145/194/160 143/188/157
f 143/188/157 144/195/161 3/6/5 140/9/7
f 144/195/161 143/188/157 145/194/160 146/196/162
f 151/197/163 146/198/162 145/199/160 148/200/164
f 259/201/165 147/202/166 145/203/160 142/189/158
f 150/204/167 148/205/164 145/203/160 147/202/166
f 151/197/163 148/200/164 149/206/168 152/207/169
f 150/208/167 239/209/170 149/206/168 148/200/164
f 153/210/171 151/211/163 152/212/169 154/213/172
f 151/211/163 153/210/171 155/214/173 146/215/162
f 154/213/172 157/216/174 156/217/175 153/210/171
f 153/210/171 156/217/175 159/218/176 155/214/173
f 157/216/174 238/219/177 158/220/178 156/217/175
f 158/220/178 160/221/179 159/218/176 156/217/175
f 163/222/180 161/223/181 159/224/176 160/225/179
f 159/224/176 161/223/181 164/226/182 155/227/173
f 198/228/183 162/229/184 161/223/181 163/222/180
f 161/223/181 162/229/184 166/230/185 164/226/182
f 144/195/161 164/231/182 165/232/186 3/6/5
f 166/233/185 167/234/187 165/232/186 164/231/182
f 146/196/162 155/235/173 164/231/182 144/195/161
f 169/236/188 167/237/187 166/238/185 168/239/189
f 154/240/172 168/239/189 166/238/185 157/241/174
f 238/219/177 157/216/174 166/230/185 162/229/184
f 169/236/188 168/239/189 170/242/190 171/243/191
f 154/240/172 152/207/169 170/242/190 168/239/189
f 152/207/169 85/116/95 82/115/94 170/242/190
f 171/243/191 170/242/190 82/115/94 173/114/93
f 171/243/191 172/244/192 183/245/193 169/236/188
f 172/244/192 171/243/191 173/114/93 174/246/194
f 176/247/195 174/246/194 173/114/93 83/113/92
f 181/248/196 172/244/192 174/246/194 175/249/197
f 174/246/194 176/247/195 178/250/198 175/249/197
f 177/106/85 176/247/195 83/113/92 76/105/84
f 177/106/85 179/251/199 178/250/198 176/247/195
f 180/101/80 175/249/197 178/250/198 179/251/199
f 71/99/78 180/101/80 179/251/199 177/106/85
f 175/249/197 180/101/80 72/98/77 181/248/196
f 181/248/196 182/252/200 183/245/193 172/244/192
f 181/248/196 72/98/77 69/95/74 182/252/200
f 50/76/55 47/74/53 183/245/193 182/252/200
f 50/76/55 182/252/200 69/95/74 66/79/58
f 183/245/193 47/74/53 45/72/51 184/253/201
f 183/254/193 184/255/201 167/256/187 169/257/188
f 185/258/202 184/255/201 45/259/51 187/260/203
f 185/258/202 186/261/204 167/256/187 184/255/201
f 185/262/202 188/263/205 190/264/206 186/265/204
f 188/263/205 185/262/202 187/266/203 189/267/207
f 192/268/208 191/269/209 188/263/205 189/267/207
f 191/269/209 194/270/210 190/264/206 188/263/205
f 192/268/208 227/271/211 193/272/212 191/269/209
f 194/270/210 191/269/209 193/272/212 196/273/213
f 194/270/210 195/274/214 233/275/215 190/264/206
f 194/270/210 196/273/213 199/276/216 195/274/214
f 197/277/217 196/273/213 193/272/212 227/271/211
f 198/228/183 196/273/213 197/277/217 237/278/218
f 198/228/183 163/222/180 199/276/216 196/273/213
f 222/279/219 200/280/220 199/281/216 201/282/221
f 229/283/222 195/284/214 199/281/216 200/280/220
f 201/285/221 199/286/216 202/287/223 204/288/224
f 160/225/179 202/289/223 199/276/216 163/222/180
f 206/290/225 204/291/224 202/292/223 203/293/226
f 202/292/223 160/221/179 158/220/178 203/293/226
f 207/294/227 205/295/228 204/291/224 206/290/225
f 220/296/229 201/285/221 204/288/224 205/297/228
f 207/294/227 206/290/225 197/277/217 208/298/230
f 203/293/226 237/278/218 197/277/217 206/290/225
f 211/299/231 209/300/232 207/294/227 208/298/230
f 209/300/232 210/301/233 205/295/228 207/294/227
f 210/301/233 209/300/232 212/302/234 214/303/235
f 211/299/231 213/304/236 212/302/234 209/300/232
f 215/305/237 214/303/235 212/302/234 213/304/236
f 214/306/235 215/307/237 217/308/238 216/309/239
f 210/310/233 214/306/235 216/309/239 218/311/240
f 218/311/240 216/309/239 217/308/238 219/312/241
f 219/312/241 221/313/242 220/296/229 218/311/240
f 210/310/233 218/311/240 220/296/229 205/297/228
f 222/314/219 201/285/221 220/296/229 221/313/242
f 224/315/243 223/316/244 221/313/242 219/312/241
f 225/317/245 222/314/219 221/313/242 223/316/244
f 224/318/243 211/299/231 208/298/230 223/319/244
f 223/319/244 208/298/230 197/277/217 225/320/245
f 226/321/246 200/280/220 222/279/219 225/320/245
f 226/321/246 225/320/245 197/277/217 227/271/211
f 227/271/211 192/268/208 228/322/247 226/321/246
f 200/280/220 226/321/246 228/322/247 229/283/222
f 192/268/208 189/267/207 230/323/248 228/322/247
f 229/283/222 228/322/247 230/323/248 232/324/249
f 234/325/250 232/326/249 230/327/248 231/328/251
f 230/327/248 189/329/207 187/260/203 231/328/251
f 195/284/214 229/283/222 232/324/249 233/330/215
f 235/331/252 233/275/215 232/332/249 234/333/250
f 231/328/251 43/334/50 236/7/6 234/325/250
f 235/335/252 234/325/250 236/7/6 165/232/186
f 236/7/6 3/6/5 165/232/186
f 186/336/204 235/335/252 165/232/186 167/234/187
f 186/265/204 190/264/206 233/275/215 235/331/252
f 231/328/251 187/260/203 45/259/51 43/334/50
f 224/318/243 215/305/237 213/304/236 211/299/231
f 224/315/243 219/312/241 217/308/238 215/307/237
f 237/278/218 203/293/226 158/220/178 238/219/177
f 198/228/183 237/278/218 238/219/177 162/229/184
f 85/116/95 152/207/169 149/206/168 88/117/96
f 239/209/170 150/208/167 240/337/253 242/338/254
f 150/204/167 147/202/166 241/339/255 240/340/253
f 243/341/256 240/340/253 241/339/255 245/342/257
f 246/343/258 242/338/254 240/337/253 243/344/256
f 246/343/258 243/344/256 244/345/259 248/346/260
f 245/342/257 253/347/261 244/348/259 243/341/256
f 247/349/262 269/350/263 242/338/254 246/343/258
f 249/351/264 247/349/262 246/343/258 248/346/260
f 251/352/265 249/351/264 248/346/260 250/353/266
f 250/354/266 248/355/260 244/348/259 253/347/261
f 250/354/266 252/356/267 281/357/268 251/358/265
f 253/347/261 254/359/269 252/356/267 250/354/266
f 253/347/261 245/342/257 256/360/270 254/359/269
f 254/359/269 255/361/271 281/357/268 252/356/267
f 255/361/271 254/359/269 256/360/270 257/362/272
f 257/362/272 256/360/270 258/363/273 260/364/274
f 245/342/257 241/339/255 258/363/273 256/360/270
f 147/202/166 259/201/165 258/363/273 241/339/255
f 258/363/273 259/201/165 261/365/275 260/364/274
f 262/366/276 260/364/274 261/365/275 263/367/277
f 262/366/276 265/368/278 257/362/272 260/364/274
f 262/369/276 263/370/277 270/371/279 264/372/280
f 265/373/278 262/369/276 264/372/280 267/374/281
f 266/375/282 255/361/271 257/362/272 265/368/278
f 265/373/278 267/374/281 268/376/283 266/377/282
f 247/349/262 249/351/264 268/376/283 267/374/281
f 267/374/281 264/372/280 269/350/263 247/349/262
f 251/352/265 266/377/282 268/376/283 249/351/264
f 266/375/282 251/358/265 281/357/268 255/361/271
f 270/371/279 271/378/284 269/350/263 264/372/280
f 273/379/285 271/378/284 270/371/279 272/380/286
f 275/381/287 272/380/286 270/371/279 263/370/277
f 273/379/285 272/380/286 274/382/288 279/120/99
f 275/381/287 276/383/289 274/382/288 272/380/286
f 275/384/287 277/192/159 137/191/153 276/385/289
f 263/367/277 261/365/275 277/192/159 275/384/287
f 259/201/165 142/189/158 277/192/159 261/365/275
f 102/386/113 276/385/289 137/191/153 104/387/115
f 102/134/113 99/133/112 274/382/288 276/383/289
f 274/382/288 99/133/112 280/135/114 278/388/290
f 87/121/100 279/120/99 274/382/288 278/388/290
f 279/120/99 88/117/96 149/206/168 273/379/285
f 96/127/106 278/388/290 280/135/114 100/130/109
f 278/388/290 96/127/106 90/122/101 87/121/100
f 271/378/284 273/379/285 149/206/168 239/209/170
f 271/378/284 239/209/170 242/338/254 269/350/263
f 282/389/291 284/390/292 134/391/150 139/392/156
f 139/185/156 4/10/8 283/393/10 282/394/291
f 285/395/293 282/394/291 283/393/10 287/396/294
f 282/394/291 285/395/293 288/397/295 284/398/292
f 286/399/296 289/400/297 288/397/295 285/395/293
f 285/395/293 287/396/294 341/401/298 286/399/296
f 288/397/295 289/400/297 291/402/299 290/403/300
f 293/404/301 284/390/292 288/405/295 290/406/300
f 292/407/302 290/403/300 291/402/299 345/408/303
f 290/406/300 292/409/302 294/410/151 293/404/301
f 134/391/150 284/390/292 293/404/301 294/410/151
f 296/411/304 295/412/305 294/410/151 292/409/302
f 129/169/144 131/174/148 294/410/151 295/412/305
f 296/411/304 298/413/306 297/414/307 295/412/305
f 297/414/307 299/415/308 129/169/144 295/412/305
f 298/413/306 301/416/309 300/417/310 297/414/307
f 299/415/308 297/414/307 300/417/310 303/418/311
f 301/419/309 287/396/294 283/393/10 300/420/310
f 302/421/16 300/417/310 283/13/10 5/12/9
f 304/422/312 303/418/311 300/417/310 302/421/16
f 304/422/312 306/423/313 305/424/314 303/418/311
f 299/415/308 303/418/311 305/424/314 307/425/315
f 305/424/314 306/423/313 309/426/316 308/427/317
f 310/428/318 307/425/315 305/424/314 308/427/317
f 124/164/140 310/428/318 308/427/317 122/165/139
f 122/165/139 308/427/317 309/426/316 312/429/138
f 307/425/315 310/428/318 311/171/146 126/170/145
f 310/428/318 124/164/140 127/167/142 311/171/146
f 309/430/316 313/431/319 316/432/320 312/162/138
f 315/433/321 313/434/319 309/426/316 306/423/313
f 314/435/322 313/434/319 315/433/321 321/436/323
f 314/437/322 318/438/324 316/432/320 313/431/319
f 316/432/320 317/439/325 121/157/136 312/162/138
f 318/438/324 319/440/326 317/439/325 316/432/320
f 318/438/324 320/441/327 322/442/328 319/440/326
f 320/441/327 318/438/324 314/437/322 321/443/323
f 321/443/323 323/444/329 322/442/328 320/441/327
f 319/440/326 322/442/328 324/66/46 325/445/330
f 323/444/329 39/62/43 324/66/46 322/442/328
f 326/446/331 325/445/330 324/66/46 59/88/67
f 319/440/326 325/445/330 327/447/332 317/439/325
f 326/446/331 328/448/333 327/447/332 325/445/330
f 116/151/130 118/155/134 327/447/332 328/448/333
f 327/447/332 118/155/134 121/157/136 317/439/325
f 330/449/334 329/450/335 328/448/333 326/446/331
f 113/147/126 116/151/130 328/448/333 329/450/335
f 329/450/335 330/449/334 332/451/336 331/452/337
f 331/452/337 111/148/127 113/147/126 329/450/335
f 333/453/338 331/452/337 332/451/336 334/102/81
f 331/452/337 333/453/338 336/149/128 111/148/127
f 333/453/338 334/102/81 74/103/82 335/109/88
f 336/149/128 333/453/338 335/109/88 92/125/104
f 94/126/105 107/142/121 336/149/128 92/125/104
f 68/94/73 334/102/81 332/451/336 65/92/71
f 330/449/334 337/454/339 332/451/336
f 63/90/69 65/92/71 332/451/336 337/454/339
f 63/90/69 337/454/339 330/449/334 61/87/66
f 326/446/331 59/88/67 61/87/66 330/449/334
f 323/444/329 338/455/340 37/63/41 39/62/43
f 323/456/329 321/436/323 315/433/321 338/457/340
f 338/457/340 304/422/312 302/421/16 37/458/41
f 304/422/312 338/457/340 315/433/321 306/423/313
f 307/425/315 126/170/145 129/169/144 299/415/308
f 17/30/21 37/59/41 302/22/16 10/21/15
f 301/419/309 298/459/306 340/460/341 339/461/342
f 301/419/309 339/461/342 341/401/298 287/396/294
f 342/462/343 339/461/342 340/460/341 343/463/344
f 342/462/343 286/399/296 341/401/298 339/461/342
f 343/463/344 345/408/303 344/464/345 342/462/343
f 286/399/296 342/462/343 344/464/345 289/400/297
f 291/402/299 289/400/297 344/464/345 345/408/303
f 345/408/303 343/463/344 296/465/304 292/407/302
f 296/465/304 343/463/344 340/460/341 298/459/306
