# Blender 5.2.0 LTS
# www.blender.org
mtllib terrain-abyss-chancel-object-043.mtl
o terrain-abyss-chancel-object-043
v -0.509185 0.633609 0.011829
v -0.503155 0.633049 0.007459
v -0.508865 0.628590 0.012403
v -0.518303 0.631373 0.011807
v -0.510382 0.635492 0.006810
v -0.518062 0.635473 0.008844
v -0.515301 0.636024 0.001031
v -0.506739 0.633895 0.001841
v -0.505338 0.630071 -0.001335
v -0.513553 0.633559 -0.003442
v -0.512424 0.629801 -0.006493
v -0.522294 0.633392 -0.008288
v -0.532824 0.633466 -0.013697
v -0.524162 0.636293 -0.003555
v -0.520902 0.629349 -0.011442
v -0.531304 0.628754 -0.016987
v -0.522661 0.625980 -0.008386
v -0.514374 0.626125 -0.004600
v -0.533013 0.626115 -0.013198
v -0.525333 0.625040 -0.002320
v -0.535630 0.624974 -0.007228
v -0.516407 0.625280 0.000739
v -0.526845 0.625013 0.003197
v -0.517185 0.625566 0.006316
v -0.537852 0.624842 -0.001114
v -0.527971 0.625528 0.008798
v -0.539570 0.625165 0.004809
v -0.528329 0.630098 0.009778
v -0.517939 0.626149 0.011420
v -0.539990 0.629767 0.006445
v -0.527519 0.635543 0.006756
v -0.526030 0.637791 0.002096
v -0.538855 0.635360 0.003098
v -0.536995 0.637857 -0.002417
v -0.554396 0.635586 -0.001682
v -0.574104 0.635677 -0.007518
v -0.556001 0.629572 0.001997
v -0.552098 0.638651 -0.007848
v -0.549702 0.637059 -0.014341
v -0.571845 0.638469 -0.013975
v -0.569407 0.636968 -0.021333
v -0.585981 0.638832 -0.017771
v -0.587817 0.635573 -0.011538
v -0.583961 0.637202 -0.025009
v -0.598242 0.637832 -0.020840
v -0.599776 0.634935 -0.014431
v -0.596203 0.636987 -0.027717
v -0.608852 0.634056 -0.024086
v -0.605655 0.633541 -0.030135
v -0.610330 0.630881 -0.017641
v -0.611836 0.628685 -0.025479
v -0.607652 0.626039 -0.024290
v -0.608522 0.628862 -0.031468
v -0.614370 0.627277 -0.019409
v -0.609313 0.626066 -0.018336
v -0.599021 0.625596 -0.015288
v -0.610771 0.626179 -0.015179
v -0.599933 0.628454 -0.012152
v -0.588700 0.629117 -0.008504
v -0.587419 0.625352 -0.011645
v -0.575016 0.629398 -0.004103
v -0.574005 0.625107 -0.007290
v -0.555338 0.624848 -0.001087
v -0.571572 0.624917 -0.014219
v -0.585173 0.625143 -0.018009
v -0.553424 0.624782 -0.007813
v -0.569607 0.625010 -0.021029
v -0.550408 0.624959 -0.014040
v -0.583408 0.625160 -0.024643
v -0.567408 0.625548 -0.027570
v -0.565839 0.629422 -0.031922
v -0.547530 0.626163 -0.020410
v -0.581911 0.625653 -0.031882
v -0.581433 0.629528 -0.035612
v -0.593985 0.625764 -0.034345
v -0.595471 0.625336 -0.027305
v -0.603566 0.625794 -0.035704
v -0.593831 0.629230 -0.037376
v -0.604125 0.628804 -0.035715
v -0.594624 0.633826 -0.033545
v -0.602144 0.632503 -0.033912
v -0.582439 0.634209 -0.031517
v -0.567282 0.633899 -0.027814
v -0.547551 0.633554 -0.019955
v -0.546022 0.630061 -0.023894
v -0.605657 0.625635 -0.030480
v -0.597283 0.625431 -0.021072
v -0.535079 0.636604 -0.008216
v -0.518956 0.637062 0.004713
v -0.509063 0.626250 0.007524
v -0.503707 0.627376 0.006109
v -0.510532 0.625634 0.002147
v -0.507546 0.626591 0.000186
v -0.502575 0.630461 0.010919
v -0.501606 0.630140 0.003626
vn 0.7674 0.6018 0.2213
vn 0.4441 0.8370 -0.3198
vn 0.1928 0.9677 0.1622
vn 0.1585 0.6358 0.7554
vn 0.2302 -0.4287 0.8736
vn 0.6994 -0.1595 0.6967
vn -0.1411 0.3055 0.9417
vn -0.0338 -0.6685 0.7430
vn -0.0441 0.8450 0.5329
vn 0.2055 0.9595 -0.1925
vn 0.0743 0.9897 0.1224
vn 0.3329 0.7905 -0.5141
vn 0.9464 0.0032 -0.3229
vn 0.7261 0.0190 -0.6874
vn 0.5377 0.0227 -0.8429
vn 0.4674 -0.0548 -0.8823
vn 0.2946 0.7700 -0.5659
vn 0.1750 0.9332 -0.3138
vn 0.4349 -0.1143 -0.8932
vn 0.2780 0.7770 -0.5647
vn 0.1606 0.9343 -0.3182
vn 0.1734 -0.9138 -0.3673
vn 0.2062 -0.9001 -0.3837
vn 0.2859 -0.8552 -0.4323
vn 0.0729 -0.9966 -0.0395
vn 0.0448 -0.9972 -0.0600
vn 0.0409 -0.9958 -0.0822
vn 0.0058 -0.9998 0.0181
vn 0.0176 -0.9986 0.0504
vn 0.0641 -0.9897 0.1277
vn -0.1456 -0.7496 0.6456
vn -0.1643 -0.8148 0.5560
vn -0.2931 0.0875 0.9521
vn -0.2587 0.1548 0.9535
vn 0.2047 -0.9543 0.2178
vn -0.1937 0.7539 0.6278
vn -0.1791 0.7517 0.6347
vn 0.0066 0.9943 0.1060
vn -0.0066 0.9951 0.0990
vn -0.1847 0.7573 0.6264
vn -0.2975 0.0069 0.9547
vn -0.0113 0.9950 0.0995
vn -0.0236 0.9946 0.1008
vn -0.1946 0.7412 0.6425
vn -0.3027 -0.0692 0.9506
vn 0.1371 0.9383 -0.3176
vn 0.1039 0.9461 -0.3068
vn -0.0518 0.9924 0.1114
vn -0.2117 0.7144 0.6670
vn 0.0608 0.9517 -0.3009
vn -0.3233 0.6949 0.6423
vn -0.2234 0.9709 0.0864
vn -0.0978 0.9417 -0.3220
vn -0.6712 0.5392 0.5087
vn -0.5900 0.8031 -0.0831
vn -0.4723 0.7621 -0.4428
vn -0.8310 -0.0560 -0.5534
vn -0.9314 -0.1548 -0.3296
vn -0.9596 -0.2692 0.0821
vn -0.3800 -0.9000 -0.2134
vn -0.2670 -0.9569 -0.1143
vn -0.3202 -0.9232 0.2125
vn -0.4747 -0.3359 0.8135
vn -0.0856 -0.9527 0.2916
vn -0.0380 -0.9992 0.0120
vn -0.2910 -0.2464 0.9244
vn -0.1334 -0.9096 0.3936
vn -0.2938 -0.1447 0.9449
vn -0.1460 -0.8933 0.4250
vn -0.1506 -0.8716 0.4665
vn -0.0117 -0.9999 0.0007
vn -0.0007 -1.0000 0.0004
vn -0.0205 -0.9998 0.0080
vn -0.0041 -0.9993 -0.0370
vn 0.0147 -0.9984 -0.0548
vn 0.0362 -0.9963 -0.0782
vn 0.1697 -0.9033 -0.3939
vn 0.1324 -0.9107 -0.3913
vn 0.0860 -0.9069 -0.4125
vn 0.3979 -0.0054 -0.9174
vn 0.3126 -0.0254 -0.9496
vn 0.1992 -0.0164 -0.9798
vn -0.0189 -0.9996 -0.0214
vn 0.0367 -0.8692 -0.4932
vn 0.0403 0.0415 -0.9983
vn -0.2654 -0.7735 -0.5756
vn -0.4840 0.0263 -0.8747
vn -0.2682 0.7000 -0.6619
vn -0.0278 0.7727 -0.6342
vn 0.1158 0.8033 -0.5842
vn 0.1811 0.8127 -0.5538
vn 0.2380 0.8047 -0.5439
vn 0.1434 -0.9893 -0.0277
vn 0.6584 -0.7487 0.0773
vn 0.4188 -0.8436 -0.3361
vt 0.952502 0.307934
vt 0.950165 0.305366
vt 0.953541 0.304620
vt 0.956160 0.306021
vt 0.038618 0.254768
vt 0.041524 0.254431
vt 0.043187 0.257540
vt 0.039975 0.258393
vt 0.038773 0.250233
vt 0.041366 0.250187
vt 0.955714 0.301315
vt 0.958052 0.301894
vt 0.951460 0.301281
vt 0.953951 0.300335
vt 0.948576 0.301405
vt 0.949167 0.308269
vt 0.947311 0.305641
vt 0.946046 0.301696
vt 0.945224 0.297130
vt 0.947831 0.296826
vt 0.950735 0.296624
vt 0.943695 0.291884
vt 0.946878 0.291399
vt 0.950515 0.291136
vt 0.051210 0.239951
vt 0.053806 0.240350
vt 0.052664 0.245794
vt 0.050311 0.245326
vt 0.049713 0.249594
vt 0.051901 0.250413
vt 0.046751 0.249419
vt 0.046901 0.244771
vt 0.047557 0.239548
vt 0.043950 0.239417
vt 0.043797 0.244975
vt 0.043889 0.249835
vt 0.040717 0.245319
vt 0.040503 0.239593
vt 0.037778 0.239827
vt 0.038030 0.245533
vt 0.044396 0.253807
vt 0.957040 0.291468
vt 0.960217 0.291300
vt 0.959714 0.297169
vt 0.956511 0.296914
vt 0.953851 0.296722
vt 0.953934 0.291107
vt 0.957594 0.283763
vt 0.961257 0.283738
vt 0.953745 0.283772
vt 0.954121 0.274077
vt 0.957744 0.274040
vt 0.961232 0.274441
vt 0.949919 0.283843
vt 0.950050 0.274074
vt 0.954994 0.267149
vt 0.958862 0.267320
vt 0.951104 0.266806
vt 0.958510 0.261557
vt 0.954734 0.261250
vt 0.950888 0.261059
vt 0.958656 0.256024
vt 0.954849 0.255777
vt 0.950886 0.256257
vt 0.949559 0.253775
vt 0.953796 0.252816
vt 0.040777 0.199215
vt 0.044596 0.202219
vt 0.040861 0.202775
vt 0.037701 0.203372
vt 0.048408 0.202454
vt 0.048175 0.204560
vt 0.044611 0.204532
vt 0.041421 0.204914
vt 0.039607 0.204593
vt 0.041620 0.209486
vt 0.044495 0.209616
vt 0.039587 0.209665
vt 0.036724 0.208081
vt 0.041545 0.215158
vt 0.039203 0.214458
vt 0.036521 0.212964
vt 0.038613 0.222299
vt 0.041239 0.222256
vt 0.961991 0.267887
vt 0.040965 0.231740
vt 0.037872 0.231848
vt 0.045113 0.222328
vt 0.044761 0.231481
vt 0.045035 0.215570
vt 0.048515 0.215393
vt 0.048957 0.222221
vt 0.048338 0.231999
vt 0.052043 0.232331
vt 0.052736 0.222194
vt 0.052257 0.215190
vt 0.054849 0.232680
vt 0.055961 0.222312
vt 0.054910 0.214629
vt 0.048051 0.209558
vt 0.051838 0.209190
vt 0.054233 0.208634
vt 0.051174 0.204832
vt 0.052336 0.203833
vt 0.944692 0.260476
vt 0.946445 0.255722
vt 0.948234 0.257197
vt 0.947612 0.260859
vt 0.947060 0.266651
vt 0.943651 0.266291
vt 0.946175 0.274050
vt 0.942968 0.273928
vt 0.946178 0.283996
vt 0.943261 0.284289
vt 0.047010 0.252351
vt 0.046288 0.255992
vt 0.048618 0.253412
vt 0.050678 0.254441
vt 0.048660 0.256993
vt 0.952495 0.309949
vt 0.949356 0.310216
s 1
usemtl abyss_chancel_background_pbr
f 2/1/1 8/2/2 5/3/3 1/4/4
f 1/5/4 3/6/5 94/7/6 2/8/1
f 3/6/5 1/5/4 4/9/7 29/10/8
f 5/3/3 6/11/9 4/12/7 1/4/4
f 5/3/3 7/13/10 89/14/11 6/11/9
f 5/3/3 8/2/2 10/15/12 7/13/10
f 8/2/2 2/1/1 95/16/13 9/17/14
f 8/2/2 9/17/14 11/18/15 10/15/12
f 10/15/12 11/18/15 15/19/16 12/20/17
f 14/21/18 7/13/10 10/15/12 12/20/17
f 15/19/16 16/22/19 13/23/20 12/20/17
f 14/21/18 12/20/17 13/23/20 88/24/21
f 19/25/22 16/26/19 15/27/16 17/28/23
f 18/29/24 17/28/23 15/27/16 11/30/15
f 18/29/24 22/31/25 20/32/26 17/28/23
f 20/32/26 21/33/27 19/25/22 17/28/23
f 25/34/28 21/33/27 20/32/26 23/35/29
f 24/36/30 23/35/29 20/32/26 22/31/25
f 24/36/30 29/10/8 26/37/31 23/35/29
f 26/37/31 27/38/32 25/34/28 23/35/29
f 30/39/33 27/38/32 26/37/31 28/40/34
f 4/9/7 28/40/34 26/37/31 29/10/8
f 90/41/35 3/6/5 29/10/8 24/36/30
f 33/42/36 30/43/33 28/44/34 31/45/37
f 31/45/37 28/44/34 4/12/7 6/11/9
f 31/45/37 6/11/9 89/14/11 32/46/38
f 31/45/37 32/46/38 34/47/39 33/42/36
f 30/43/33 33/42/36 35/48/40 37/49/41
f 34/47/39 38/50/42 35/48/40 33/42/36
f 40/51/43 36/52/44 35/48/40 38/50/42
f 35/48/40 36/52/44 61/53/45 37/49/41
f 39/54/46 38/50/42 34/47/39 88/24/21
f 40/51/43 38/50/42 39/54/46 41/55/47
f 36/52/44 40/51/43 42/56/48 43/57/49
f 40/51/43 41/55/47 44/58/50 42/56/48
f 46/59/51 43/57/49 42/56/48 45/60/52
f 45/60/52 42/56/48 44/58/50 47/61/53
f 50/62/54 46/59/51 45/60/52 48/63/55
f 49/64/56 48/63/55 45/60/52 47/61/53
f 49/64/56 53/65/57 51/66/58 48/63/55
f 48/67/55 51/68/58 54/69/59 50/70/54
f 53/71/57 86/72/60 52/73/61 51/68/58
f 52/73/61 55/74/62 54/69/59 51/68/58
f 54/69/59 55/74/62 57/75/63 50/70/54
f 56/76/64 55/74/62 52/73/61 87/77/65
f 56/76/64 58/78/66 57/75/63 55/74/62
f 46/79/51 50/70/54 57/75/63 58/78/66
f 58/78/66 56/76/64 60/80/67 59/81/68
f 58/78/66 59/81/68 43/82/49 46/79/51
f 61/83/45 59/81/68 60/80/67 62/84/69
f 43/57/49 59/85/68 61/53/45 36/52/44
f 63/86/70 37/87/41 61/83/45 62/84/69
f 62/84/69 64/88/71 66/89/72 63/86/70
f 64/88/71 62/84/69 60/80/67 65/90/73
f 65/90/73 69/91/74 67/92/75 64/88/71
f 67/92/75 68/93/76 66/89/72 64/88/71
f 72/94/77 68/93/76 67/92/75 70/95/78
f 73/96/79 70/95/78 67/92/75 69/91/74
f 85/97/80 72/94/77 70/95/78 71/98/81
f 74/99/82 71/98/81 70/95/78 73/96/79
f 76/100/83 75/101/84 73/96/79 69/91/74
f 75/101/84 78/102/85 74/99/82 73/96/79
f 76/100/83 86/72/60 77/103/86 75/101/84
f 78/102/85 75/101/84 77/103/86 79/104/87
f 78/105/85 79/106/87 81/107/88 80/108/89
f 78/105/85 80/108/89 82/109/90 74/110/82
f 47/61/53 80/108/89 81/107/88 49/64/56
f 47/61/53 44/58/50 82/109/90 80/108/89
f 82/109/90 83/111/91 71/112/81 74/110/82
f 41/55/47 83/111/91 82/109/90 44/58/50
f 84/113/92 85/114/80 71/112/81 83/111/91
f 83/111/91 41/55/47 39/54/46 84/113/92
f 85/114/80 84/113/92 13/23/20 16/22/19
f 13/23/20 84/113/92 39/54/46 88/24/21
f 85/97/80 16/26/19 19/25/22 72/94/77
f 53/65/57 49/64/56 81/107/88 79/106/87
f 53/71/57 79/104/87 77/103/86 86/72/60
f 76/100/83 87/77/65 52/73/61 86/72/60
f 69/91/74 65/90/73 87/77/65 76/100/83
f 60/80/67 56/76/64 87/77/65 65/90/73
f 68/93/76 72/94/77 19/25/22 21/33/27
f 68/93/76 21/33/27 25/34/28 66/89/72
f 63/86/70 66/89/72 25/34/28 27/38/32
f 37/87/41 63/86/70 27/38/32 30/39/33
f 14/21/18 88/24/21 34/47/39 32/46/38
f 14/21/18 32/46/38 89/14/11 7/13/10
f 24/36/30 22/31/25 92/115/93 90/41/35
f 90/41/35 91/116/94 94/7/6 3/6/5
f 91/116/94 90/41/35 92/115/93 93/117/95
f 18/29/24 93/117/95 92/115/93 22/31/25
f 93/117/95 18/29/24 11/30/15 9/118/14
f 93/117/95 9/118/14 95/119/13 91/116/94
f 95/16/13 2/1/1 94/120/6 91/121/94
