# Blender 5.2.0 LTS
# www.blender.org
mtllib terrain-abyss-chancel-object-112.mtl
o terrain-abyss-chancel-object-112
v 0.605011 1.226201 0.000199
v 0.611702 1.226496 -0.005396
v 0.605990 1.234064 0.001203
v 0.603474 1.212762 -0.001427
v 0.610120 1.226351 0.007634
v 0.610173 1.212676 0.009404
v 0.610167 1.234508 0.005966
v 0.617565 1.226579 0.002266
v 0.615687 1.234543 0.002429
v 0.620510 1.213035 0.002517
v 0.618775 1.199815 0.002946
v 0.614779 1.213184 -0.007723
v 0.615526 1.200131 -0.006003
v 0.605629 1.200143 -0.003148
v 0.615005 1.192643 -0.003180
v 0.615056 1.185341 0.000307
v 0.616064 1.193049 0.001331
v 0.609100 1.192559 -0.002868
v 0.609932 1.193131 0.003848
v 0.613193 1.185898 0.003490
v 0.611660 1.185812 -0.001129
v 0.609423 1.199640 0.007230
v 0.608877 1.234526 -0.003125
vn -0.9869 0.0923 -0.1327
vn 0.1159 0.2435 -0.9629
vn 0.2945 0.0734 -0.9528
vn -0.9666 -0.0098 -0.2561
vn -0.7962 0.6051 -0.0031
vn -0.1340 0.6609 -0.7384
vn -0.1811 0.1346 0.9742
vn -0.1420 0.6500 0.7465
vn -0.2173 -0.0179 0.9759
vn 0.9707 0.0583 0.2329
vn 0.9470 0.2813 0.1550
vn 0.7187 0.6872 0.1061
vn -0.3374 -0.3124 0.8880
vn 0.8995 -0.2488 0.3591
vn 0.4199 -0.1851 -0.8885
vn -0.8738 -0.2356 -0.4253
vn 0.4517 -0.4217 -0.7862
vn -0.6848 -0.4568 -0.5678
vn 0.8156 -0.3833 0.4334
vn 0.6660 -0.7447 -0.0430
vn -0.6489 -0.1713 -0.7413
vn -0.4807 -0.5167 0.7085
vn -0.4800 -0.1235 0.8685
vt 0.016354 0.944194
vt 0.011443 0.944523
vt 0.011667 0.937594
vt 0.017551 0.937254
vt 0.016990 0.874989
vt 0.014922 0.871729
vt 0.016143 0.869116
vt 0.018613 0.871375
vt 0.011626 0.875451
vt 0.012308 0.871519
vt 0.017674 0.881846
vt 0.011771 0.882074
vt 0.006031 0.881867
vt 0.007042 0.874846
vt 0.009425 0.869314
vt 0.006308 0.944616
vt 0.005770 0.937893
vt 0.010669 0.948573
vt 0.005813 0.948232
vt 0.012209 0.888603
vt 0.006766 0.888626
vt 0.010165 0.931723
vt 0.005126 0.931368
vt 0.015391 0.931436
vt 0.009654 0.928163
vt 0.013139 0.927853
vt 0.006895 0.928174
vt 0.008526 0.924827
vt 0.010888 0.923883
vt 0.018256 0.888116
vt 0.015851 0.893528
vt 0.012035 0.891947
vt 0.012899 0.896498
vt 0.011458 0.895764
vt 0.009681 0.896931
vt 0.008351 0.892678
s 1
usemtl abyss_chancel_background_pbr
f 1/1/1 2/2/2 12/3/3 4/4/4
f 1/5/1 3/6/5 23/7/6 2/8/2
f 3/6/5 1/5/1 5/9/7 7/10/8
f 4/11/4 6/12/9 5/9/7 1/5/1
f 5/9/7 6/12/9 10/13/10 8/14/11
f 9/15/12 7/10/8 5/9/7 8/14/11
f 2/2/2 8/16/11 10/17/10 12/3/3
f 8/16/11 2/2/2 23/18/6 9/19/12
f 10/13/10 6/12/9 22/20/13 11/21/14
f 13/22/15 12/3/3 10/17/10 11/23/14
f 14/24/16 4/4/4 12/3/3 13/22/15
f 13/22/15 15/25/17 18/26/18 14/24/16
f 15/25/17 13/22/15 11/23/14 17/27/19
f 16/28/20 15/25/17 17/27/19
f 15/25/17 16/28/20 20/29/21 18/26/18
f 22/20/13 14/30/16 18/31/18 19/32/22
f 19/32/22 18/31/18 20/33/21 21/34/23
f 20/33/21 16/35/20 21/34/23
f 19/32/22 21/34/23 16/35/20 17/36/19
f 17/36/19 11/21/14 22/20/13 19/32/22
f 4/11/4 14/30/16 22/20/13 6/12/9
f 7/10/8 9/15/12 23/7/6 3/6/5
