# Blender 5.2.0 LTS
# www.blender.org
mtllib terrain-abyss-chancel-object-121.mtl
o terrain-abyss-chancel-object-121
v 0.677149 0.659206 -0.073946
v 0.673047 0.660316 -0.079249
v 0.667041 0.659122 -0.064925
v 0.680730 0.659967 -0.069231
v 0.687989 0.659476 -0.081670
v 0.691157 0.660141 -0.075961
v 0.701290 0.659629 -0.087673
v 0.684721 0.660676 -0.088193
v 0.682998 0.664534 -0.092616
v 0.699466 0.661008 -0.094669
v 0.699718 0.665031 -0.098894
v 0.711240 0.659451 -0.099113
v 0.718008 0.656023 -0.103759
v 0.712747 0.664402 -0.103020
v 0.713723 0.659176 -0.090652
v 0.725391 0.660005 -0.092846
v 0.714920 0.660348 -0.083589
v 0.726096 0.661082 -0.084450
v 0.703047 0.660523 -0.081339
v 0.714571 0.666917 -0.080403
v 0.713335 0.674388 -0.083757
v 0.702989 0.667190 -0.080545
v 0.726778 0.666588 -0.082828
v 0.740627 0.666018 -0.080384
v 0.727707 0.672248 -0.085025
v 0.728069 0.679018 -0.090935
v 0.741809 0.671748 -0.082830
v 0.763298 0.672083 -0.074821
v 0.744489 0.675936 -0.088213
v 0.745906 0.673725 -0.094833
v 0.765739 0.675869 -0.081508
v 0.769408 0.673669 -0.087629
v 0.782935 0.676840 -0.070392
v 0.781843 0.674864 -0.061800
v 0.790212 0.682545 -0.062686
v 0.785402 0.674787 -0.076377
v 0.797488 0.677517 -0.067654
v 0.785794 0.667684 -0.076555
v 0.796957 0.668588 -0.067717
v 0.769253 0.666425 -0.088509
v 0.784292 0.661176 -0.074366
v 0.795067 0.661127 -0.065764
v 0.779868 0.659539 -0.067549
v 0.767340 0.660964 -0.085745
v 0.763926 0.659398 -0.079163
v 0.744820 0.662060 -0.094288
v 0.745728 0.667458 -0.096322
v 0.742847 0.659225 -0.088014
v 0.727862 0.663640 -0.099272
v 0.719190 0.663693 -0.105358
v 0.728627 0.670065 -0.101592
v 0.730043 0.678524 -0.100348
v 0.719780 0.671349 -0.106653
v 0.720120 0.680163 -0.107029
v 0.714402 0.672007 -0.104220
v 0.702197 0.673290 -0.099628
v 0.714474 0.681007 -0.105135
v 0.707227 0.681977 -0.101436
v 0.713747 0.694852 -0.104681
v 0.714273 0.705688 -0.102371
v 0.720160 0.695011 -0.106962
v 0.710407 0.694584 -0.098029
v 0.711788 0.708009 -0.095735
v 0.715059 0.694409 -0.089973
v 0.725228 0.694334 -0.091687
v 0.718277 0.707043 -0.091161
v 0.711548 0.681268 -0.090551
v 0.700666 0.676593 -0.090882
v 0.701774 0.674011 -0.083479
v 0.685515 0.676681 -0.087605
v 0.673664 0.676512 -0.083056
v 0.689268 0.674376 -0.079658
v 0.684485 0.671498 -0.092847
v 0.671265 0.669812 -0.085153
v 0.661352 0.667429 -0.077038
v 0.670152 0.662499 -0.084729
v 0.662339 0.660980 -0.076649
v 0.660656 0.658419 -0.068545
v 0.654532 0.658198 -0.060392
v 0.650932 0.656760 -0.064380
v 0.655238 0.665398 -0.068886
v 0.653530 0.675251 -0.068713
v 0.648572 0.662234 -0.060149
v 0.646045 0.676738 -0.057315
v 0.639387 0.665433 -0.041739
v 0.649926 0.660597 -0.053890
v 0.651317 0.657469 -0.063532
v 0.651263 0.657205 -0.063651
v 0.650370 0.660844 -0.062557
v 0.653000 0.657036 -0.062943
v 0.653136 0.659857 -0.047827
v 0.642777 0.661373 -0.039525
v 0.639094 0.661274 -0.025529
v 0.648543 0.659972 -0.036578
v 0.645677 0.659946 -0.024204
v 0.654607 0.659844 -0.034134
v 0.651982 0.659785 -0.022892
v 0.656045 0.665817 -0.033283
v 0.658711 0.659866 -0.044112
v 0.660047 0.665943 -0.043273
v 0.663958 0.660058 -0.052839
v 0.671533 0.659743 -0.060922
v 0.665262 0.666339 -0.052066
v 0.659112 0.659377 -0.056668
v 0.672152 0.666952 -0.061339
v 0.662416 0.673816 -0.053082
v 0.658844 0.682800 -0.055424
v 0.657348 0.672662 -0.044525
v 0.669334 0.676243 -0.065724
v 0.661857 0.676943 -0.077287
v 0.664505 0.686305 -0.066418
v 0.678843 0.674552 -0.074156
v 0.680772 0.667438 -0.069626
v 0.690906 0.667317 -0.076076
v 0.658791 0.685907 -0.071998
v 0.663507 0.698110 -0.066702
v 0.656794 0.698033 -0.071248
v 0.661969 0.706865 -0.066160
v 0.663058 0.697418 -0.059232
v 0.662239 0.709097 -0.061933
v 0.657302 0.697585 -0.056207
v 0.659979 0.707226 -0.058105
v 0.651125 0.697650 -0.060575
v 0.653777 0.684892 -0.057040
v 0.649778 0.685860 -0.060931
v 0.648998 0.677905 -0.051326
v 0.641249 0.677310 -0.038193
v 0.652636 0.676083 -0.047189
v 0.647457 0.675510 -0.035694
v 0.643460 0.675542 -0.022398
v 0.652899 0.672150 -0.033980
v 0.649893 0.672687 -0.022262
v 0.648678 0.673913 -0.010198
v 0.653308 0.666348 -0.022494
v 0.653480 0.667971 -0.011904
v 0.651979 0.660659 -0.012573
v 0.654137 0.668846 -0.001750
v 0.652607 0.660697 -0.003371
v 0.648849 0.674996 0.001158
v 0.653973 0.669962 0.008150
v 0.652950 0.669760 0.018395
v 0.648282 0.675245 0.010088
v 0.653509 0.661638 0.006098
v 0.652733 0.662310 0.017926
v 0.643706 0.659115 0.003820
v 0.646330 0.659631 0.018525
v 0.638214 0.658395 0.007646
v 0.644184 0.659815 -0.005340
v 0.642868 0.649842 0.001266
v 0.637432 0.657459 -0.000796
v 0.638934 0.649711 0.000540
v 0.631706 0.665989 0.002051
v 0.637661 0.660679 -0.005805
v 0.632017 0.666653 -0.004160
v 0.637633 0.661310 -0.014196
v 0.644618 0.659801 -0.013627
v 0.632413 0.666497 -0.013788
v 0.630607 0.673684 -0.012627
v 0.634838 0.666559 -0.025738
v 0.632678 0.673295 -0.025455
v 0.636479 0.677198 -0.024319
v 0.638060 0.674377 -0.040775
v 0.634390 0.676858 -0.010182
v 0.633884 0.676412 0.001443
v 0.641120 0.676869 -0.007648
v 0.645544 0.679876 0.005919
v 0.641956 0.677977 0.010842
v 0.633547 0.675302 0.010321
v 0.640276 0.676841 0.020011
v 0.647398 0.674691 0.019178
v 0.641257 0.676862 0.031482
v 0.633433 0.674288 0.020577
v 0.633870 0.665799 0.020834
v 0.635774 0.673255 0.033010
v 0.637010 0.665039 0.033727
v 0.640109 0.672299 0.045775
v 0.644649 0.669979 0.057493
v 0.644138 0.677457 0.044618
v 0.642754 0.663761 0.047864
v 0.647008 0.660586 0.057727
v 0.650082 0.659619 0.050829
v 0.650567 0.658275 0.058084
v 0.655168 0.659078 0.044617
v 0.643101 0.660376 0.033841
v 0.656504 0.659356 0.061133
v 0.653224 0.658875 0.063789
v 0.661990 0.660173 0.066979
v 0.661772 0.658862 0.055814
v 0.665470 0.662491 0.050316
v 0.667393 0.659061 0.062785
v 0.671671 0.662400 0.058053
v 0.677079 0.658624 0.072144
v 0.680685 0.661949 0.067731
v 0.690974 0.658568 0.081503
v 0.672479 0.660585 0.077705
v 0.687267 0.660993 0.087604
v 0.668358 0.663825 0.082020
v 0.655429 0.662184 0.068396
v 0.668639 0.670839 0.082345
v 0.684479 0.665575 0.091638
v 0.683580 0.673606 0.092719
v 0.698452 0.668271 0.099876
v 0.698073 0.678222 0.098853
v 0.702642 0.668544 0.104658
v 0.703604 0.661448 0.095398
v 0.719402 0.660257 0.095090
v 0.707429 0.661662 0.102643
v 0.705973 0.658235 0.086898
v 0.719131 0.657999 0.087831
v 0.707202 0.661951 0.081574
v 0.706988 0.669999 0.083107
v 0.693699 0.661387 0.076998
v 0.719408 0.662853 0.083145
v 0.719924 0.671185 0.085548
v 0.731146 0.663340 0.082648
v 0.731896 0.671625 0.085229
v 0.731446 0.657864 0.086580
v 0.743742 0.663656 0.079262
v 0.744969 0.657818 0.082800
v 0.756562 0.663561 0.073174
v 0.744979 0.671686 0.082637
v 0.758336 0.671596 0.076566
v 0.747383 0.675756 0.089660
v 0.733197 0.675854 0.093210
v 0.761775 0.675668 0.082788
v 0.749942 0.676608 0.096780
v 0.750431 0.671118 0.097716
v 0.765567 0.676655 0.089359
v 0.733399 0.676605 0.101597
v 0.716280 0.677427 0.104984
v 0.733812 0.669970 0.101502
v 0.717264 0.667746 0.103377
v 0.733669 0.663308 0.098883
v 0.749665 0.663512 0.095378
v 0.732541 0.659920 0.093414
v 0.719532 0.662316 0.100550
v 0.747551 0.659844 0.089614
v 0.762126 0.659903 0.082906
v 0.765392 0.663915 0.088746
v 0.772421 0.659910 0.075694
v 0.758354 0.657407 0.076455
v 0.767886 0.657644 0.069658
v 0.765637 0.663965 0.066872
v 0.774546 0.657634 0.062969
v 0.779726 0.659858 0.068865
v 0.779866 0.657388 0.055635
v 0.771866 0.664319 0.060301
v 0.777281 0.664716 0.053724
v 0.774542 0.672718 0.063324
v 0.779195 0.676393 0.068917
v 0.780128 0.672932 0.056256
v 0.767787 0.671661 0.070095
v 0.771833 0.675522 0.075586
v 0.776232 0.676634 0.081448
v 0.777759 0.671337 0.083228
v 0.783872 0.677231 0.074617
v 0.791167 0.679782 0.069150
v 0.785792 0.672107 0.076192
v 0.793246 0.672388 0.069754
v 0.784283 0.663993 0.074022
v 0.791363 0.662805 0.066561
v 0.776715 0.663987 0.081338
v 0.785923 0.659768 0.060688
v 0.798639 0.663176 0.056011
v 0.792288 0.659946 0.051036
v 0.804359 0.672909 0.064804
v 0.803557 0.662866 0.045386
v 0.808565 0.661949 0.035615
v 0.804222 0.672568 0.048893
v 0.797242 0.660022 0.042156
v 0.790750 0.657842 0.039666
v 0.801691 0.659933 0.033035
v 0.805211 0.659977 0.023591
v 0.794668 0.658120 0.030543
v 0.797402 0.658538 0.020744
v 0.791591 0.664565 0.029671
v 0.794428 0.672049 0.030761
v 0.794634 0.665255 0.019934
v 0.787192 0.664270 0.038209
v 0.782445 0.664243 0.046180
v 0.789988 0.672183 0.039589
v 0.785290 0.672430 0.047909
v 0.795755 0.675591 0.041713
v 0.790432 0.679326 0.050484
v 0.801850 0.676203 0.044576
v 0.800635 0.675413 0.032896
v 0.805156 0.675722 0.022865
v 0.806993 0.676543 0.035024
v 0.809079 0.670227 0.036150
v 0.812315 0.675636 0.024980
v 0.815997 0.677133 0.014196
v 0.812665 0.668637 0.025012
v 0.816774 0.665910 0.014276
v 0.812435 0.662665 0.025636
v 0.813435 0.661655 0.015597
v 0.815410 0.658794 0.006516
v 0.806598 0.659512 0.013801
v 0.806743 0.659302 0.003090
v 0.798586 0.658706 0.010606
v 0.795974 0.666483 0.009367
v 0.799125 0.659568 0.000528
v 0.796375 0.666923 -0.001220
v 0.797617 0.659103 -0.012540
v 0.796272 0.666504 -0.013409
v 0.795033 0.659493 -0.026593
v 0.805143 0.659461 -0.012052
v 0.801968 0.659717 -0.028271
v 0.812926 0.660621 -0.010914
v 0.817759 0.662780 -0.002784
v 0.815590 0.666476 -0.015076
v 0.809597 0.660841 -0.029506
v 0.805020 0.661112 -0.044072
v 0.812333 0.666946 -0.030917
v 0.811760 0.675029 -0.031436
v 0.807978 0.668190 -0.045424
v 0.807682 0.676891 -0.045704
v 0.805180 0.670245 -0.058344
v 0.806129 0.676843 -0.055939
v 0.803386 0.676826 -0.063604
v 0.800586 0.668235 -0.065349
v 0.801161 0.659991 -0.054618
v 0.792686 0.659347 -0.055616
v 0.800547 0.661246 -0.062584
v 0.784421 0.659304 -0.049826
v 0.798203 0.659805 -0.041620
v 0.790553 0.659426 -0.038770
v 0.789940 0.666418 -0.038470
v 0.783716 0.666966 -0.048899
v 0.794238 0.666047 -0.026653
v 0.794092 0.673048 -0.040058
v 0.788924 0.674935 -0.050024
v 0.797993 0.672512 -0.027897
v 0.800362 0.676686 -0.042180
v 0.804798 0.676079 -0.029618
v 0.795764 0.680741 -0.051223
v 0.798143 0.691562 -0.053263
v 0.789601 0.682905 -0.057132
v 0.804297 0.678455 -0.053042
v 0.805661 0.681714 -0.058309
v 0.804967 0.690635 -0.055696
v 0.801553 0.686855 -0.064249
v 0.804199 0.700375 -0.057475
v 0.801362 0.699274 -0.063979
v 0.799822 0.700888 -0.053291
v 0.804249 0.709513 -0.058532
v 0.801804 0.715692 -0.058545
v 0.801232 0.709306 -0.063935
v 0.800489 0.709911 -0.054777
v 0.799541 0.717588 -0.057323
v 0.794841 0.710466 -0.054980
v 0.793652 0.700935 -0.053499
v 0.791793 0.708586 -0.056986
v 0.796351 0.717209 -0.060759
v 0.800751 0.715892 -0.062747
v 0.794610 0.709795 -0.063305
v 0.795298 0.699996 -0.064598
v 0.790860 0.700578 -0.058897
v 0.796108 0.688755 -0.065658
v 0.791365 0.690630 -0.060624
v 0.791948 0.691123 -0.054739
v 0.807508 0.676390 -0.017154
v 0.808898 0.680875 -0.004781
v 0.814558 0.675474 -0.017680
v 0.800284 0.673177 -0.015099
v 0.801068 0.674544 -0.003380
v 0.800279 0.674883 0.009068
v 0.797648 0.672869 0.020663
v 0.807814 0.681021 0.009761
v 0.813486 0.689599 0.007878
v 0.817666 0.682093 0.010215
v 0.821111 0.693443 0.007703
v 0.811419 0.689886 -0.001804
v 0.813865 0.698706 0.007088
v 0.815950 0.710274 0.006700
v 0.812882 0.701524 -0.001168
v 0.821123 0.701831 -0.004610
v 0.816792 0.713702 0.000686
v 0.822457 0.716279 0.004559
v 0.821416 0.711265 -0.003689
v 0.825524 0.713086 -0.000206
v 0.826299 0.704193 0.000439
v 0.823741 0.707409 0.006780
v 0.826719 0.689680 0.001142
v 0.826765 0.677861 0.003346
v 0.822026 0.686317 -0.005417
v 0.821421 0.681156 -0.004802
v 0.820531 0.667918 -0.002667
v 0.823221 0.667085 0.004268
v 0.819648 0.657305 0.004128
v 0.820403 0.668010 0.010592
v 0.821137 0.676418 0.011658
v 0.821975 0.679696 0.008753
v 0.775537 0.666636 -0.059350
v 0.760633 0.665869 -0.071605
v 0.774920 0.659147 -0.061431
v 0.760727 0.659628 -0.072970
v 0.741154 0.660316 -0.082400
v 0.799959 0.679673 0.051271
v 0.804274 0.687059 0.056937
v 0.803349 0.678316 0.054907
v 0.802461 0.685053 0.063233
v 0.793494 0.686813 0.066839
v 0.800701 0.694573 0.063885
v 0.800012 0.678866 0.065999
v 0.800195 0.704036 0.063467
v 0.793917 0.695555 0.066227
v 0.803382 0.694544 0.058265
v 0.802098 0.703509 0.057963
v 0.799959 0.694826 0.053338
v 0.791410 0.695439 0.053474
v 0.798311 0.703638 0.053436
v 0.791679 0.704218 0.053531
v 0.797549 0.711846 0.053909
v 0.792938 0.712526 0.055031
v 0.801034 0.712309 0.057074
v 0.796492 0.717194 0.055198
v 0.798797 0.717484 0.056635
v 0.794247 0.717917 0.056655
v 0.795847 0.717444 0.058839
v 0.798985 0.713695 0.061601
v 0.792146 0.713613 0.059636
v 0.794652 0.713146 0.063366
v 0.789554 0.704883 0.060302
v 0.794076 0.704906 0.065508
v 0.788284 0.695938 0.060794
v 0.788086 0.687574 0.061023
v 0.785170 0.679925 0.061468
v 0.791375 0.687308 0.053162
v 0.785907 0.657607 0.047857
v 0.766315 0.671131 0.090554
v 0.709112 0.667769 0.108531
v 0.713557 0.661944 0.105104
v 0.709239 0.662758 0.107869
v 0.705514 0.661691 0.109616
v 0.704652 0.668057 0.109056
v 0.703628 0.677260 0.107299
v 0.708457 0.677136 0.109334
v 0.700273 0.687450 0.103127
v 0.700489 0.676906 0.103826
v 0.701481 0.701248 0.103228
v 0.708977 0.687307 0.109595
v 0.705744 0.689821 0.095041
v 0.707312 0.701945 0.096118
v 0.702741 0.681422 0.093337
v 0.713775 0.687224 0.107795
v 0.715819 0.682915 0.100350
v 0.714707 0.701248 0.103829
v 0.708475 0.701303 0.109957
v 0.712391 0.711255 0.103351
v 0.708018 0.711800 0.108350
v 0.706176 0.716663 0.101489
v 0.702732 0.712701 0.103582
v 0.719174 0.678378 0.094526
v 0.705647 0.675885 0.087982
v 0.690873 0.674247 0.081864
v 0.676644 0.674745 0.073469
v 0.686783 0.676190 0.087993
v 0.693360 0.668836 0.077921
v 0.680238 0.669281 0.068702
v 0.669675 0.670440 0.058342
v 0.663570 0.677929 0.061957
v 0.662573 0.670591 0.049508
v 0.656422 0.680548 0.050049
v 0.657597 0.670013 0.040021
v 0.651611 0.675331 0.040969
v 0.659746 0.662106 0.040276
v 0.654039 0.669517 0.029161
v 0.648472 0.674579 0.030116
v 0.654802 0.662273 0.029028
v 0.649093 0.659523 0.030728
v 0.646149 0.685237 0.054080
v 0.655177 0.691240 0.051687
v 0.646212 0.694015 0.055148
v 0.659830 0.688711 0.059570
v 0.654920 0.702354 0.052951
v 0.647648 0.704444 0.056537
v 0.654929 0.710654 0.055436
v 0.659183 0.700294 0.058588
v 0.655174 0.698177 0.065345
v 0.656751 0.711183 0.059013
v 0.651137 0.712646 0.061129
v 0.655655 0.708414 0.064394
v 0.648895 0.706894 0.063043
v 0.647356 0.696023 0.063951
v 0.646510 0.683106 0.063592
v 0.642452 0.677966 0.054189
v 0.655465 0.686163 0.066812
v 0.654243 0.671398 0.070018
v 0.660460 0.677822 0.069369
v 0.671595 0.676841 0.079416
v 0.649774 0.710812 0.057761
v 0.639393 0.660256 0.019794
v 0.632548 0.666391 0.009888
v 0.629958 0.674369 -0.003265
v 0.639570 0.651582 0.003447
v 0.651738 0.685003 -0.068511
v 0.650827 0.697642 -0.067606
v 0.652264 0.709035 -0.065303
v 0.657166 0.709498 -0.068417
v 0.653802 0.709370 -0.060967
v 0.657505 0.712909 -0.065646
v 0.723010 0.705605 -0.092108
v 0.721357 0.713125 -0.097787
v 0.715269 0.714751 -0.097336
v 0.723976 0.708225 -0.100059
v 0.726321 0.694536 -0.101588
v 0.718775 0.708938 -0.103593
vn 0.0259 -0.9995 -0.0166
vn -0.1020 -0.9641 -0.2451
vn -0.1553 -0.9187 -0.3631
vn -0.0022 -0.9992 -0.0387
vn 0.0654 -0.9971 0.0395
vn -0.2893 -0.9025 -0.3189
vn 0.4627 -0.6737 0.5762
vn 0.5132 -0.7034 0.4918
vn 0.3505 -0.6825 0.6414
vn -0.0261 -0.9996 -0.0057
vn 0.1619 -0.7409 0.6519
vn -0.1889 -0.8822 -0.4313
vn -0.4794 -0.5182 -0.7082
vn -0.3929 -0.4065 -0.8248
vn -0.3354 -0.3405 -0.8784
vn -0.4038 -0.2263 -0.8864
vn -0.2820 -0.8685 -0.4075
vn -0.0179 -0.9938 0.1094
vn 0.0958 -0.3548 -0.9300
vn 0.0325 -0.8568 -0.5146
vn 0.1452 -0.9837 -0.1059
vn 0.0902 -0.7852 0.6126
vn -0.0011 -0.7866 0.6175
vn 0.0027 0.0341 0.9994
vn 0.1052 0.0383 0.9937
vn 0.1977 0.1504 0.9687
vn 0.0309 0.5625 0.8262
vn 0.0340 0.5918 0.8054
vn 0.0548 0.7201 0.6917
vn -0.2008 -0.7898 0.5796
vn -0.2780 0.0815 0.9571
vn -0.1688 0.6390 0.7505
vn 0.3952 0.6887 0.6079
vn -0.3990 0.5897 0.7022
vn 0.0445 0.9786 0.2010
vn -0.3486 0.7507 0.5612
vn -0.5172 0.1728 0.8382
vn -0.0508 0.9982 0.0302
vn 0.3058 0.6409 -0.7041
vn 0.3481 0.6040 -0.7169
vn 0.6929 0.3504 -0.6302
vn 0.4202 0.5584 -0.7153
vn -0.1753 0.9735 -0.1471
vn -0.6071 0.7075 0.3617
vn -0.6720 0.6078 -0.4230
vn -0.8026 0.4414 0.4013
vn 0.4338 0.2535 -0.8646
vn 0.5889 -0.1863 -0.7864
vn 0.5648 -0.1725 -0.8070
vn 0.4439 -0.1787 -0.8781
vn 0.3662 -0.7751 -0.5149
vn 0.3876 -0.7729 -0.5023
vn 0.2873 -0.7674 -0.5731
vn 0.0759 -0.9953 -0.0605
vn 0.0674 -0.9938 -0.0885
vn 0.0465 -0.9936 -0.1029
vn 0.1804 -0.7184 -0.6718
vn 0.2976 -0.1435 -0.9439
vn 0.0095 -0.9910 -0.1338
vn 0.4195 -0.1282 -0.8986
vn 0.4007 -0.5735 -0.7145
vn 0.0840 -0.1139 -0.9899
vn 0.1277 -0.0053 -0.9918
vn -0.3705 -0.0543 -0.9272
vn -0.4416 0.0191 -0.8970
vn -0.4794 0.3707 -0.7955
vn -0.8108 0.3228 -0.4883
vn -0.9838 0.1793 -0.0001
vn -0.5915 0.1386 -0.7943
vn 0.1629 0.1321 -0.9778
vn -0.8702 0.4424 0.2171
vn -0.6851 0.2576 -0.6814
vn -0.0032 0.4839 -0.8751
vn -0.3958 0.0925 0.9137
vn -0.0345 0.3761 0.9259
vn 0.6894 0.1390 0.7109
vn 0.7034 0.2850 0.6511
vn -0.2716 0.9611 0.0510
vn -0.3898 0.4035 -0.8278
vn -0.1334 0.9599 -0.2467
vn 0.2394 0.8046 0.5434
vn -0.5440 0.1903 -0.8172
vn -0.2318 0.8730 -0.4291
vn 0.3367 0.8388 0.4278
vn -0.7125 -0.0767 -0.6975
vn -0.3084 0.5006 -0.8089
vn -0.5494 -0.6263 -0.5530
vn -0.7462 -0.1542 -0.6477
vn 0.0261 -0.9958 0.0880
vn 0.0265 -0.9811 0.1915
vn -0.1685 -0.8618 0.4785
vn -0.5478 -0.8153 -0.1879
vn -0.8598 -0.3267 -0.3925
vn -0.7775 -0.0133 -0.6287
vn -0.9198 0.2976 -0.2557
vn -0.8462 -0.4345 -0.3084
vn -0.8598 0.4019 -0.3150
vn -0.3713 -0.9276 -0.0426
vn -0.4651 -0.8757 -0.1300
vn -0.4157 -0.8919 -0.1783
vn -0.4636 -0.5774 0.6721
vn -0.1721 -0.8968 0.4076
vn -0.0761 -0.9970 0.0129
vn -0.1083 -0.9937 -0.0294
vn -0.5032 -0.8578 -0.1045
vn -0.8725 -0.4449 -0.2020
vn -0.0991 -0.9950 -0.0146
vn 0.5344 -0.8003 0.2720
vn 0.5580 -0.8094 0.1830
vn 0.5877 -0.8041 0.0893
vn 0.9462 0.1002 0.3078
vn 0.9822 0.1480 0.1155
vn 0.8882 0.0808 0.4524
vn 0.5205 -0.7616 0.3859
vn 0.8174 0.1147 0.5646
vn 0.7272 0.2164 0.6514
vn 0.6907 0.6586 0.2987
vn 0.6995 0.4613 0.5458
vn 0.6718 0.5927 0.4443
vn 0.5051 0.4449 0.7396
vn 0.3195 0.8445 0.4297
vn 0.9493 0.2633 -0.1716
vn 0.0615 0.2012 -0.9776
vn 0.5879 0.2898 0.7552
vn 0.4275 0.2601 0.8658
vn 0.0105 0.1422 -0.9898
vn 0.9144 0.0925 -0.3940
vn 0.8149 0.0515 0.5773
vn 0.0273 0.5813 -0.8133
vn 0.8196 0.2888 -0.4949
vn 0.7350 0.6096 0.2968
vn 0.1711 0.4064 0.8975
vn -0.1042 0.1373 0.9850
vn -0.3620 0.4333 0.8253
vn -0.8704 0.1333 0.4740
vn -0.6141 0.6217 0.4862
vn -0.9678 0.1948 0.1595
vn -0.2855 0.9086 0.3049
vn -0.1934 0.9806 -0.0324
vn 0.3440 0.9272 0.1484
vn 0.6834 0.6908 0.2361
vn 0.2911 0.9563 0.0274
vn 0.6588 0.7500 0.0583
vn -0.2813 0.9572 -0.0678
vn 0.6091 0.7877 -0.0918
vn 0.9713 0.2334 -0.0446
vn 0.1640 0.9815 -0.0992
vn 0.6663 -0.7457 0.0002
vn 0.6421 0.7633 -0.0708
vn 0.9563 0.2870 -0.0566
vn 0.6946 -0.7191 -0.0228
vn 0.7784 -0.6274 0.0206
vn 0.9327 0.3590 0.0346
vn 0.6306 0.7639 0.1368
vn 0.5023 0.8637 0.0409
vn 0.9117 0.4109 -0.0036
vn 0.8078 -0.5885 -0.0342
vn 0.1578 -0.9874 0.0131
vn 0.3787 -0.9253 0.0174
vn 0.0708 -0.9948 -0.0737
vn -0.4174 -0.9029 0.1025
vn -0.4741 -0.8252 0.3071
vn -0.3412 -0.5652 0.7510
vn 0.8025 -0.5851 -0.1165
vn -0.4531 -0.8782 -0.1533
vn -0.5413 -0.7547 -0.3707
vn -0.3336 -0.8115 -0.4797
vn -0.9574 -0.2791 0.0736
vn -0.9583 -0.2710 0.0905
vn -0.9217 -0.3880 -0.0046
vn -0.4947 -0.8669 -0.0615
vn -0.0573 -0.9983 -0.0075
vn -0.8736 -0.4768 -0.0973
vn -0.9296 0.3575 0.0900
vn -0.9451 0.3093 -0.1053
vn -0.9322 0.2868 -0.2207
vn -0.3117 0.9486 -0.0550
vn -0.6712 0.7377 0.0731
vn 0.3076 0.9456 0.1058
vn 0.0372 0.9872 0.1550
vn -0.7841 0.6149 0.0844
vn -0.0582 0.9956 0.0731
vn -0.8406 0.5259 0.1299
vn -0.1603 0.9861 0.0430
vn 0.4634 0.8794 -0.1089
vn -0.8832 0.4027 0.2404
vn -0.9107 -0.3870 0.1444
vn -0.8480 -0.4738 0.2376
vn -0.8095 -0.5342 0.2436
vn -0.9494 0.1621 0.2691
vn -0.4736 0.8674 -0.1526
vn -0.7606 -0.5639 0.3217
vn -0.8837 -0.1296 0.4498
vn -0.9549 0.2223 0.1968
vn -0.2664 -0.9639 -0.0064
vn -0.3815 -0.9190 0.0989
vn -0.2594 -0.9587 0.1164
vn 0.0379 -0.9940 0.1026
vn -0.2888 -0.8811 0.3746
vn 0.1645 -0.9811 -0.1019
vn 0.1512 -0.9832 -0.1022
vn 0.1321 -0.9895 -0.0580
vn -0.1364 -0.9605 0.2425
vn -0.5319 -0.5930 0.6045
vn 0.1241 -0.9877 -0.0952
vn 0.8031 -0.4449 -0.3964
vn 0.7537 -0.4135 -0.5108
vn 0.6736 -0.4265 -0.6036
vn -0.2191 -0.9190 0.3278
vn 0.0632 -0.9945 -0.0832
vn 0.5692 -0.4552 -0.6847
vn 0.0316 -0.9974 -0.0647
vn 0.4010 -0.4640 -0.7898
vn -0.2173 -0.8636 0.4550
vn -0.5032 -0.5286 0.6837
vn -0.4136 -0.4495 0.7918
vn -0.5871 0.2716 0.7626
vn -0.6571 0.0542 0.7519
vn -0.5077 0.4128 0.7562
vn -0.2392 -0.8808 0.4086
vn -0.5922 -0.3945 0.7026
vn -0.8108 0.3907 0.4358
vn -0.8501 -0.3189 0.4192
vn -0.8337 -0.0267 0.5516
vn -0.2900 -0.9185 0.2686
vn 0.0145 -0.9945 -0.1033
vn 0.1552 -0.8054 0.5720
vn 0.0095 -0.9501 0.3117
vn -0.0005 -0.9786 -0.2058
vn 0.2160 -0.3826 -0.8983
vn 0.0397 -0.2579 -0.9654
vn 0.0627 0.5633 -0.8239
vn 0.2094 0.4665 -0.8594
vn 0.4012 0.4320 -0.8077
vn -0.0474 -0.9590 -0.2794
vn -0.1481 -0.1586 -0.9762
vn -0.0877 0.6412 -0.7624
vn -0.2359 0.6841 -0.6902
vn -0.3367 -0.0854 -0.9377
vn -0.1174 -0.9481 -0.2954
vn -0.1612 -0.9470 -0.2780
vn -0.5003 -0.0574 -0.8640
vn -0.3595 0.6899 -0.6283
vn 0.0030 0.9601 -0.2798
vn -0.0932 0.9572 -0.2742
vn -0.1510 0.9518 -0.2671
vn 0.1839 0.6943 0.6958
vn 0.2096 0.7771 0.5935
vn 0.2839 0.8178 0.5007
vn 0.1965 -0.1796 0.9639
vn 0.3271 -0.0764 0.9419
vn 0.4849 -0.0063 0.8746
vn 0.2333 0.8927 -0.3857
vn 0.6077 0.2135 0.7649
vn 0.3615 -0.2835 0.8882
vn 0.1515 -0.6486 0.7459
vn 0.2553 -0.6154 0.7457
vn 0.0711 -0.9219 0.3808
vn 0.1338 -0.9127 0.3862
vn 0.4648 -0.6007 0.6505
vn 0.2049 -0.9114 0.3569
vn 0.3851 -0.6031 0.6986
vn 0.2575 -0.9137 0.3143
vn 0.4950 -0.6056 0.6231
vn -0.2149 -0.9408 -0.2622
vn -0.6525 -0.0361 -0.7569
vn -0.7593 -0.0228 -0.6503
vn -0.2757 -0.9319 -0.2356
vn 0.2655 -0.9243 0.2740
vn 0.2724 -0.9388 0.2108
vn -0.3152 -0.9180 -0.2406
vn -0.8044 -0.0067 -0.5940
vn -0.4880 0.6920 -0.5320
vn -0.6101 0.6615 -0.4361
vn -0.6829 0.5863 -0.4358
vn -0.2256 0.9497 -0.2172
vn -0.3560 0.9287 -0.1037
vn -0.7106 0.7013 -0.0562
vn 0.2309 0.8337 0.5016
vn 0.2962 0.8535 0.4288
vn 0.6099 0.0398 0.7915
vn 0.6483 0.0323 0.7607
vn 0.0535 0.5355 0.8429
vn 0.5691 -0.1361 0.8109
vn 0.5282 -0.6320 0.5671
vn 0.4727 -0.7375 0.4823
vn 0.2955 -0.9407 0.1669
vn 0.5971 -0.7477 0.2906
vn 0.8388 -0.1701 0.5172
vn 0.2794 -0.9482 0.1512
vn 0.6821 -0.6736 0.2846
vn 0.9843 0.1172 0.1321
vn 0.7137 -0.6340 0.2978
vn 0.2526 -0.9622 0.1020
vn 0.9200 0.1245 0.3715
vn -0.3646 -0.9175 -0.1587
vn -0.3030 -0.9362 -0.1781
vn -0.2853 -0.9365 -0.2039
vn 0.7520 -0.6126 0.2433
vn 0.2362 -0.9695 0.0658
vn -0.4451 -0.8891 -0.1066
vn -0.8753 -0.0710 -0.4783
vn -0.9279 -0.0468 -0.3699
vn -0.9778 -0.0025 -0.2095
vn -0.6662 0.6168 -0.4193
vn -0.6754 0.6867 -0.2689
vn -0.7252 0.6836 -0.0823
vn -0.6866 0.5570 -0.4672
vn -0.8376 -0.0582 -0.5431
vn -0.4251 0.6892 -0.5868
vn -0.2593 0.9164 -0.3048
vn -0.2453 0.9633 -0.1090
vn 0.4516 0.8882 -0.0843
vn 0.5410 0.6179 -0.5705
vn 0.4769 0.8620 0.1719
vn -0.2152 0.9734 0.0784
vn 0.6586 0.6801 0.3221
vn 0.9432 -0.0120 0.3320
vn 0.4947 0.4897 0.7179
vn -0.5014 0.8025 0.3234
vn 0.8453 -0.2833 0.4530
vn 0.5890 -0.7675 0.2532
vn 0.1300 -0.9887 0.0741
vn 0.0433 -0.9991 0.0012
vn 0.4023 -0.8911 0.2102
vn 0.7374 -0.2524 0.6265
vn -0.5170 -0.8534 -0.0670
vn -0.5689 -0.8224 -0.0081
vn -0.9938 0.0619 -0.0929
vn -0.9925 0.1220 -0.0088
vn 0.0658 -0.9974 -0.0299
vn -0.6033 -0.7949 0.0648
vn -0.9795 0.1797 0.0915
vn -0.9451 0.2174 0.2439
vn -0.6093 -0.7782 0.1520
vn 0.0948 -0.9949 -0.0357
vn 0.4769 -0.8603 -0.1801
vn 0.5784 -0.8005 -0.1573
vn 0.6697 -0.6418 -0.3736
vn 0.6830 -0.7303 0.0112
vn 0.8606 -0.2812 -0.4246
vn 0.9202 -0.2768 -0.2768
vn 0.9467 -0.2108 -0.2437
vn 0.5811 -0.7954 -0.1722
vn 0.0889 -0.9960 -0.0122
vn 0.9398 -0.2191 -0.2622
vn 0.6932 0.6239 -0.3608
vn 0.7335 0.6599 -0.1631
vn 0.7538 0.6559 -0.0399
vn 0.9157 -0.1913 -0.3534
vn 0.9672 0.2027 -0.1531
vn 0.5304 -0.8290 -0.1776
vn 0.8000 -0.0141 -0.5998
vn 0.9422 0.1426 -0.3033
vn 0.6949 -0.2197 -0.6847
vn 0.5833 -0.6835 -0.4389
vn -0.4316 -0.7886 0.4380
vn -0.5157 -0.7762 0.3627
vn -0.5724 -0.7721 0.2760
vn -0.8761 0.2312 0.4230
vn -0.8050 0.2451 0.5402
vn -0.6248 0.6082 0.4896
vn -0.6075 0.7063 0.3635
vn -0.6458 0.7448 0.1681
vn -0.1526 0.9561 0.2501
vn -0.2545 0.6003 0.7582
vn -0.1584 0.9854 0.0618
vn 0.6407 0.6769 0.3624
vn -0.7554 0.0831 0.6500
vn 0.0637 0.0717 0.9954
vn 0.9101 0.1117 0.3991
vn 0.6751 0.1126 -0.7291
vn 0.9730 0.0386 0.2275
vn 0.2886 0.0712 0.9548
vn 0.5880 0.0368 -0.8080
vn 0.4963 0.1613 -0.8531
vn 0.9759 0.1632 0.1449
vn 0.3157 0.2726 0.9089
vn 0.8034 0.5769 0.1475
vn 0.2049 0.8188 0.5363
vn 0.4136 0.5664 -0.7128
vn -0.5998 0.3830 0.7025
vn -0.3875 0.9014 -0.1934
vn -0.5255 0.0593 0.8487
vn -0.9660 0.2322 0.1134
vn -0.9928 0.0695 -0.0976
vn -0.6066 0.2803 -0.7439
vn -0.4072 0.0762 -0.9102
vn -0.2386 0.1313 -0.9622
vn -0.9322 0.1235 -0.3401
vn -0.2132 0.9671 -0.1390
vn -0.6947 0.7193 0.0001
vn -0.7386 0.6710 -0.0652
vn -0.5038 0.7824 -0.3661
vn 0.6326 0.1363 -0.7624
vn -0.7448 0.6672 -0.0085
vn -0.5671 0.3269 0.7560
vn 0.1348 0.3646 0.9214
vn -0.7992 0.2608 -0.5414
vn 0.6818 0.1501 0.7160
vn 0.4422 0.0764 0.8936
vn -0.6672 0.1388 0.7319
vn -0.8615 0.1834 -0.4734
vn 0.5142 0.1964 0.8348
vn -0.5963 0.3542 0.7204
vn -0.6175 0.7610 -0.1988
vn 0.1722 0.1018 -0.9798
vn 0.3676 0.0412 -0.9291
vn 0.0873 0.4092 -0.9083
vn 0.3137 0.8735 0.3723
vn 0.7750 0.5378 -0.3318
vn 0.9898 0.0454 -0.1348
vn 0.9990 0.0132 -0.0418
vn 0.9920 -0.1133 0.0554
vn 0.9384 -0.3321 0.0951
vn 0.7882 0.1174 0.6042
vn -0.7047 0.2423 0.6668
vn -0.3248 -0.7906 0.5190
vn 0.9805 0.1884 -0.0555
vn -0.4723 0.1970 -0.8591
vn 0.9032 0.0987 -0.4176
vn 0.8256 0.1162 0.5521
vn 0.6078 0.1919 0.7706
vn -0.1712 0.2056 0.9635
vn -0.2154 0.0739 0.9737
vn 0.6780 0.0768 0.7310
vn 0.9853 0.1480 -0.0853
vn 0.6871 0.1460 0.7117
vn -0.2430 0.1866 0.9519
vn 0.9791 0.1328 -0.1543
vn 0.4433 0.0127 -0.8963
vn 0.3814 0.0814 -0.9208
vn -0.5396 -0.0181 -0.8417
vn -0.5960 0.1238 -0.7934
vn -0.6718 0.3058 -0.6746
vn 0.2784 0.1802 -0.9434
vn 0.9312 0.2953 -0.2139
vn -0.5285 0.7710 -0.3554
vn 0.1162 0.6527 -0.7487
vn 0.6649 0.7202 -0.1978
vn -0.0823 0.9348 0.3454
vn -0.8210 0.4823 0.3056
vn 0.5438 0.4920 0.6799
vn -0.2404 0.4631 0.8531
vn -0.9644 0.1814 0.1923
vn -0.9783 0.0744 0.1936
vn -0.9622 0.2195 0.1615
vn 0.3569 -0.5673 0.7422
vn 0.3095 -0.0280 0.9505
vn 0.0571 -0.0067 0.9983
vn -0.4057 -0.6386 0.6540
vn -0.5699 -0.1555 0.8068
vn -0.6222 0.0220 0.7825
vn -0.9543 0.1793 0.2389
vn -0.0300 0.0279 0.9992
vn 0.0050 0.1211 -0.9926
vn -0.0452 0.3109 -0.9494
vn -0.9900 0.1124 0.0852
vn -0.0061 0.1093 0.9940
vn -0.1796 0.8220 -0.5404
vn 0.9946 0.1038 -0.0037
vn 0.9102 0.0980 0.4023
vn 0.8035 0.5222 -0.2858
vn 0.0135 0.9372 -0.3484
vn 0.8494 0.5277 -0.0023
vn 0.0278 0.4568 0.8891
vn -0.8404 0.5321 0.1028
vn 0.1364 0.7569 -0.6391
vn 0.2043 0.8174 -0.5386
vn -0.1798 0.9834 0.0235
vn -0.1810 0.9380 0.2955
vn 0.3381 0.8816 -0.3294
vn 0.5911 0.4531 -0.6673
vn 0.7029 0.4471 -0.5532
vn 0.7138 0.6802 -0.1669
vn 0.7580 0.4178 -0.5008
vn 0.5020 0.5519 -0.6659
vn 0.7910 0.4471 -0.4177
vn 0.4261 0.8217 -0.3785
vn 0.8601 0.4637 -0.2127
vn 0.8251 -0.5112 -0.2406
vn -0.7817 0.4179 -0.4629
vn 0.3188 0.1444 -0.9368
vn -0.8474 0.1245 -0.5161
vn 0.9760 0.2176 -0.0088
vn -0.8352 0.2571 -0.4861
vn 0.2915 0.2001 -0.9354
vn 0.9925 0.1080 -0.0567
vn -0.6390 0.6419 -0.4239
vn 0.2527 0.5910 -0.7660
vn 0.6815 0.7305 0.0440
vn 0.3836 0.1081 0.9172
vn 0.2416 0.2720 0.9315
vn 0.4193 0.3421 0.8410
vn -0.3347 0.8927 0.3018
vn -0.6798 0.3518 0.6435
vn -0.7518 0.0990 0.6519
vn -0.7803 0.0904 0.6189
vn -0.0156 0.7504 0.6608
vn -0.7983 0.0272 -0.6017
vn -0.8630 0.1160 -0.4916
vn -0.8264 0.4531 -0.3342
vn 0.0791 0.9885 -0.1288
vn 0.4319 0.8962 0.1015
vn -0.3679 0.9297 0.0184
vn 0.8241 0.4952 -0.2750
vn 0.9010 0.1776 -0.3959
vt 0.408369 0.837348
vt 0.405586 0.832510
vt 0.412205 0.827832
vt 0.415011 0.832042
vt 0.919198 0.940462
vt 0.921771 0.934020
vt 0.924481 0.935206
vt 0.921861 0.940745
vt 0.916398 0.937727
vt 0.919496 0.933002
vt 0.418092 0.835437
vt 0.411566 0.840381
vt 0.422378 0.826986
vt 0.424871 0.831260
vt 0.420213 0.821819
vt 0.402182 0.829796
vt 0.409785 0.824486
vt 0.418488 0.817634
vt 0.425588 0.813745
vt 0.427580 0.819057
vt 0.429042 0.825408
vt 0.429228 0.812497
vt 0.431618 0.818186
vt 0.435564 0.829344
vt 0.431892 0.830432
vt 0.437401 0.834924
vt 0.016875 0.610661
vt 0.018716 0.613027
vt 0.012619 0.616172
vt 0.010789 0.613112
vt 0.007150 0.617732
vt 0.005187 0.614855
vt 0.020041 0.615919
vt 0.013698 0.620314
vt 0.008117 0.621750
vt 0.110200 0.673935
vt 0.105993 0.674073
vt 0.112075 0.669179
vt 0.116325 0.668914
vt 0.025781 0.611803
vt 0.024345 0.608616
vt 0.022135 0.620173
vt 0.014918 0.625334
vt 0.027814 0.613558
vt 0.097908 0.686637
vt 0.101492 0.673393
vt 0.102918 0.686917
vt 0.096244 0.672228
vt 0.093473 0.683867
vt 0.093244 0.669794
vt 0.089379 0.682239
vt 0.094825 0.660058
vt 0.098397 0.662301
vt 0.089241 0.692524
vt 0.092691 0.695250
vt 0.096809 0.701393
vt 0.686022 0.962120
vt 0.678120 0.961151
vt 0.679078 0.958729
vt 0.685466 0.960131
vt 0.091849 0.699256
vt 0.088625 0.698189
vt 0.085357 0.693033
vt 0.084346 0.697926
vt 0.086247 0.680374
vt 0.684100 0.979821
vt 0.678694 0.982844
vt 0.680052 0.977891
vt 0.684820 0.974902
vt 0.081655 0.690816
vt 0.083448 0.678848
vt 0.684114 0.984098
vt 0.679876 0.987520
vt 0.077495 0.688187
vt 0.080349 0.676532
vt 0.087621 0.665242
vt 0.090578 0.667073
vt 0.084324 0.662878
vt 0.088721 0.657717
vt 0.086008 0.656559
vt 0.082934 0.655008
vt 0.084856 0.651328
vt 0.089264 0.651653
vt 0.081178 0.648481
vt 0.426886 0.806895
vt 0.430638 0.801519
vt 0.437784 0.800469
vt 0.432748 0.805689
vt 0.423898 0.807318
vt 0.427264 0.801949
vt 0.011166 0.634353
vt 0.006030 0.634752
vt 0.007432 0.628554
vt 0.011918 0.630596
vt 0.416111 0.811097
vt 0.017668 0.633623
vt 0.015845 0.636843
vt 0.434552 0.793302
vt 0.431773 0.792291
vt 0.021270 0.638678
vt 0.018261 0.639671
vt 0.433065 0.787423
vt 0.436809 0.788324
vt 0.020561 0.630093
vt 0.023798 0.635552
vt 0.025256 0.627876
vt 0.026058 0.633459
vt 0.007834 0.624996
vt 0.407654 0.820706
vt 0.403240 0.818993
vt 0.408723 0.812179
vt 0.398960 0.816869
vt 0.405267 0.811529
vt 0.398997 0.826369
vt 0.396063 0.822942
vt 0.391661 0.819634
vt 0.394079 0.831025
vt 0.388884 0.826247
vt 0.397434 0.834497
vt 0.397123 0.840449
vt 0.390825 0.835144
vt 0.924682 0.927747
vt 0.927168 0.928668
vt 0.927638 0.930537
vt 0.928340 0.931214
vt 0.933158 0.930206
vt 0.932534 0.936213
vt 0.386102 0.830959
vt 0.935977 0.936565
vt 0.941470 0.928760
vt 0.936055 0.918866
vt 0.941427 0.918597
vt 0.930942 0.925573
vt 0.932957 0.917830
vt 0.930282 0.929586
vt 0.928655 0.930918
vt 0.929156 0.930141
vt 0.928189 0.922829
vt 0.929292 0.916726
vt 0.933594 0.910059
vt 0.937168 0.909990
vt 0.930062 0.909748
vt 0.924719 0.921610
vt 0.925889 0.915906
vt 0.926723 0.909504
vt 0.922547 0.915318
vt 0.923365 0.909239
vt 0.921540 0.920796
vt 0.921982 0.926557
vt 0.918831 0.925598
vt 0.916878 0.931742
vt 0.372606 0.816736
vt 0.382054 0.816287
vt 0.383778 0.820823
vt 0.374183 0.819784
vt 0.368900 0.820592
vt 0.368365 0.819051
vt 0.375375 0.823463
vt 0.367920 0.821963
vt 0.380134 0.825807
vt 0.381587 0.828311
vt 0.388870 0.816121
vt 0.396196 0.815111
vt 0.914085 0.936456
vt 0.387129 0.812676
vt 0.394306 0.812228
vt 0.401952 0.811444
vt 0.400338 0.809301
vt 0.375854 0.830696
vt 0.373127 0.828783
vt 0.369740 0.827122
vt 0.369320 0.833947
vt 0.369228 0.832048
vt 0.366749 0.832445
vt 0.953557 0.936906
vt 0.956736 0.942182
vt 0.954545 0.940667
vt 0.951612 0.936841
vt 0.946703 0.929886
vt 0.950030 0.930061
vt 0.949871 0.937623
vt 0.953308 0.941962
vt 0.945247 0.932503
vt 0.367247 0.822525
vt 0.369652 0.824174
vt 0.945819 0.926053
vt 0.944418 0.917961
vt 0.948566 0.917299
vt 0.948066 0.924323
vt 0.360374 0.823131
vt 0.362000 0.820931
vt 0.947697 0.909583
vt 0.951176 0.909637
vt 0.951360 0.916067
vt 0.943899 0.909920
vt 0.362408 0.818542
vt 0.954573 0.909918
vt 0.954028 0.915113
vt 0.952162 0.903177
vt 0.955740 0.904218
vt 0.948531 0.901632
vt 0.922123 0.903398
vt 0.926020 0.903671
vt 0.954400 0.897068
vt 0.957291 0.898950
vt 0.921140 0.898034
vt 0.925341 0.898682
vt 0.923441 0.893604
vt 0.919558 0.892890
vt 0.956146 0.892017
vt 0.958429 0.893211
vt 0.945474 0.315218
vt 0.943709 0.313531
vt 0.945045 0.308517
vt 0.946753 0.310805
vt 0.919193 0.889002
vt 0.916372 0.889178
vt 0.524324 0.971639
vt 0.527954 0.971220
vt 0.526242 0.979500
vt 0.523041 0.977514
vt 0.928886 0.894515
vt 0.929880 0.899379
vt 0.531970 0.970663
vt 0.533276 0.975703
vt 0.531066 0.978746
vt 0.530324 0.979750
vt 0.933475 0.899142
vt 0.932853 0.895904
vt 0.530966 0.980665
vt 0.532084 0.984092
vt 0.536845 0.981657
vt 0.537641 0.976043
vt 0.938141 0.898372
vt 0.938420 0.894962
vt 0.933784 0.903722
vt 0.929977 0.903887
vt 0.937839 0.903448
vt 0.942559 0.898272
vt 0.941893 0.903059
vt 0.940950 0.909883
vt 0.944773 0.902107
vt 0.945177 0.895727
vt 0.952827 0.894407
vt 0.953617 0.890747
vt 0.541784 0.974846
vt 0.545837 0.973494
vt 0.548095 0.975881
vt 0.542947 0.979534
vt 0.992504 0.567593
vt 0.990608 0.573036
vt 0.988858 0.571617
vt 0.990231 0.566589
vt 0.540408 0.969485
vt 0.544068 0.968906
vt 0.987805 0.579168
vt 0.986289 0.576997
vt 0.538804 0.963015
vt 0.542327 0.962912
vt 0.536225 0.969689
vt 0.534355 0.962951
vt 0.533199 0.955082
vt 0.538045 0.956000
vt 0.541414 0.955732
vt 0.535668 0.951650
vt 0.540117 0.951883
vt 0.988698 0.589586
vt 0.990256 0.596279
vt 0.984995 0.592903
vt 0.984823 0.586656
vt 0.527825 0.954080
vt 0.530165 0.963114
vt 0.940999 0.361456
vt 0.940308 0.358467
vt 0.941629 0.358383
vt 0.943357 0.361990
vt 0.524244 0.948869
vt 0.525447 0.948010
vt 0.527063 0.950793
vt 0.521614 0.950952
vt 0.524686 0.956766
vt 0.526571 0.964543
vt 0.937671 0.358757
vt 0.935119 0.357788
vt 0.937001 0.354227
vt 0.938688 0.357061
vt 0.519547 0.946814
vt 0.522156 0.945377
vt 0.521599 0.958320
vt 0.518887 0.953089
vt 0.515926 0.948971
vt 0.926316 0.356932
vt 0.933339 0.361241
vt 0.925458 0.361091
vt 0.513426 0.943453
vt 0.515200 0.941568
vt 0.916975 0.361896
vt 0.923974 0.364131
vt 0.916717 0.364414
vt 0.916242 0.356976
vt 0.927130 0.352839
vt 0.917304 0.352787
vt 0.927208 0.348610
vt 0.937831 0.348463
vt 0.917598 0.347857
vt 0.907591 0.357020
vt 0.908756 0.351972
vt 0.909361 0.346582
vt 0.995000 0.013542
vt 0.991966 0.016743
vt 0.988747 0.017193
vt 0.992861 0.012770
vt 0.597122 0.893813
vt 0.598867 0.889931
vt 0.604079 0.889540
vt 0.602597 0.894067
vt 0.606697 0.879531
vt 0.608520 0.886969
vt 0.604241 0.879891
vt 0.606092 0.898759
vt 0.608398 0.896248
vt 0.611152 0.893017
vt 0.910917 0.368313
vt 0.910297 0.367302
vt 0.611490 0.885495
vt 0.613904 0.890912
vt 0.970279 0.019178
vt 0.966491 0.016245
vt 0.970656 0.012953
vt 0.974882 0.015501
vt 0.970623 0.006054
vt 0.974920 0.009808
vt 0.615741 0.897745
vt 0.618263 0.895185
vt 0.605147 0.918077
vt 0.604777 0.921422
vt 0.599632 0.919543
vt 0.599569 0.916360
vt 0.611205 0.921939
vt 0.609952 0.925166
vt 0.623986 0.898993
vt 0.622109 0.901962
vt 0.629150 0.906003
vt 0.630823 0.902877
vt 0.617786 0.926150
vt 0.616307 0.929422
vt 0.605600 0.913985
vt 0.612217 0.918598
vt 0.619540 0.922822
vt 0.606320 0.909627
vt 0.613709 0.915128
vt 0.621506 0.919557
vt 0.608657 0.906819
vt 0.615196 0.912307
vt 0.623200 0.916964
vt 0.598870 0.911185
vt 0.598118 0.905742
vt 0.602879 0.901108
vt 0.611111 0.903666
vt 0.617708 0.908696
vt 0.613221 0.900753
vt 0.619845 0.905019
vt 0.601570 0.897446
vt 0.627277 0.909413
vt 0.625362 0.913390
vt 0.633299 0.912505
vt 0.631638 0.916694
vt 0.634768 0.908829
vt 0.636327 0.905496
vt 0.640844 0.907320
vt 0.639118 0.910875
vt 0.638358 0.914594
vt 0.240084 0.973480
vt 0.235155 0.976054
vt 0.234244 0.972534
vt 0.238510 0.970590
vt 0.236860 0.967932
vt 0.232250 0.970108
vt 0.623030 0.929438
vt 0.626841 0.932695
vt 0.624900 0.935779
vt 0.621217 0.932333
vt 0.989202 0.140296
vt 0.987911 0.137284
vt 0.992689 0.135173
vt 0.994941 0.137257
vt 0.624995 0.926846
vt 0.628974 0.930081
vt 0.986666 0.142517
vt 0.981401 0.140539
vt 0.631650 0.926558
vt 0.627381 0.923373
vt 0.629244 0.920580
vt 0.633525 0.923704
vt 0.635411 0.929627
vt 0.632708 0.933528
vt 0.637829 0.926569
vt 0.636652 0.918943
vt 0.640922 0.922008
vt 0.241528 0.977136
vt 0.236448 0.979575
vt 0.245403 0.970633
vt 0.247762 0.974191
vt 0.980023 0.159470
vt 0.978716 0.166433
vt 0.975417 0.157144
vt 0.978943 0.152460
vt 0.249937 0.967348
vt 0.252600 0.970538
vt 0.254945 0.975505
vt 0.249262 0.980565
vt 0.256976 0.967047
vt 0.254531 0.964170
vt 0.259941 0.970332
vt 0.251638 0.961665
vt 0.247390 0.964997
vt 0.242841 0.968035
vt 0.261611 0.963523
vt 0.258720 0.960572
vt 0.255616 0.957699
vt 0.244596 0.962764
vt 0.248994 0.959455
vt 0.252856 0.955441
vt 0.020121 0.159641
vt 0.023555 0.161774
vt 0.020706 0.163819
vt 0.016753 0.162088
vt 0.268592 0.978176
vt 0.272429 0.974978
vt 0.274678 0.978361
vt 0.271459 0.981128
vt 0.988353 0.133127
vt 0.990017 0.129174
vt 0.994981 0.127127
vt 0.993483 0.131604
vt 0.240324 0.965573
vt 0.982574 0.134895
vt 0.986294 0.129282
vt 0.028021 0.165065
vt 0.022252 0.166088
vt 0.028262 0.167772
vt 0.031783 0.162308
vt 0.032445 0.167392
vt 0.023292 0.168428
vt 0.269219 0.971561
vt 0.265510 0.975481
vt 0.266604 0.968600
vt 0.262553 0.972936
vt 0.264205 0.965837
vt 0.257823 0.976614
vt 0.271178 0.965028
vt 0.274562 0.968987
vt 0.267111 0.960595
vt 0.264449 0.959091
vt 0.261612 0.956100
vt 0.263341 0.950597
vt 0.266648 0.954058
vt 0.269651 0.959403
vt 0.258515 0.953077
vt 0.260558 0.947462
vt 0.255673 0.950339
vt 0.257880 0.945069
vt 0.265008 0.942648
vt 0.262445 0.940491
vt 0.259943 0.939024
vt 0.261467 0.932216
vt 0.263332 0.933253
vt 0.266147 0.933723
vt 0.268175 0.944811
vt 0.934818 0.490104
vt 0.931977 0.487141
vt 0.936815 0.477546
vt 0.939819 0.481292
vt 0.933591 0.495107
vt 0.927975 0.497161
vt 0.925269 0.495854
vt 0.936890 0.497220
vt 0.939754 0.490336
vt 0.943007 0.482774
vt 0.941124 0.474152
vt 0.937222 0.472713
vt 0.945496 0.475339
vt 0.946236 0.491465
vt 0.946804 0.483583
vt 0.949658 0.476300
vt 0.097565 0.726385
vt 0.096453 0.722967
vt 0.098924 0.719948
vt 0.101003 0.722598
vt 0.945454 0.468633
vt 0.940828 0.468289
vt 0.690512 0.972684
vt 0.694305 0.972435
vt 0.692998 0.975728
vt 0.689176 0.977725
vt 0.688411 0.969146
vt 0.686348 0.975956
vt 0.686304 0.980481
vt 0.688603 0.983661
vt 0.938314 0.465666
vt 0.107279 0.697564
vt 0.110668 0.698642
vt 0.112244 0.705422
vt 0.107828 0.705965
vt 0.112211 0.712299
vt 0.116411 0.712959
vt 0.933243 0.471531
vt 0.933813 0.476516
vt 0.107381 0.712583
vt 0.103441 0.706626
vt 0.114455 0.717790
vt 0.111784 0.717907
vt 0.099355 0.709691
vt 0.103708 0.714688
vt 0.108840 0.720308
vt 0.100953 0.717453
vt 0.095679 0.713135
vt 0.106646 0.723002
vt 0.095458 0.719025
vt 0.105607 0.725582
vt 0.090600 0.715091
vt 0.093431 0.709378
vt 0.090860 0.718952
vt 0.091999 0.721823
vt 0.095093 0.721976
vt 0.093472 0.724289
vt 0.089719 0.724630
vt 0.088384 0.722218
vt 0.090886 0.727546
vt 0.704241 0.956442
vt 0.707335 0.957166
vt 0.705252 0.961609
vt 0.700543 0.960027
vt 0.087323 0.727650
vt 0.088322 0.729450
vt 0.085522 0.731832
vt 0.084869 0.731051
vt 0.706021 0.953693
vt 0.708707 0.954168
vt 0.086340 0.725395
vt 0.083797 0.730398
vt 0.086495 0.721370
vt 0.694192 0.953363
vt 0.699614 0.949964
vt 0.699058 0.952208
vt 0.695554 0.955875
vt 0.705150 0.951183
vt 0.701638 0.954450
vt 0.708347 0.951812
vt 0.697538 0.958680
vt 0.692709 0.963705
vt 0.690552 0.959949
vt 0.694544 0.966822
vt 0.689288 0.956887
vt 0.948972 0.483172
vt 0.948072 0.489387
vt 0.951217 0.482278
vt 0.950456 0.487312
vt 0.209355 0.034272
vt 0.205260 0.030825
vt 0.208145 0.026466
vt 0.211798 0.032304
vt 0.214527 0.031651
vt 0.213530 0.024177
vt 0.206940 0.037789
vt 0.203044 0.034991
vt 0.954295 0.486829
vt 0.954619 0.481390
vt 0.198829 0.028848
vt 0.201063 0.024182
vt 0.196770 0.033096
vt 0.277861 0.972906
vt 0.279063 0.977464
vt 0.278253 0.967396
vt 0.274381 0.964764
vt 0.207940 0.020820
vt 0.203016 0.018408
vt 0.197520 0.015593
vt 0.201919 0.013270
vt 0.198842 0.017719
vt 0.205609 0.014589
vt 0.209706 0.014809
vt 0.203657 0.007975
vt 0.207426 0.009531
vt 0.211412 0.008903
vt 0.214687 0.013996
vt 0.213688 0.021338
vt 0.214751 0.009669
vt 0.948404 0.524973
vt 0.945955 0.521100
vt 0.949685 0.521124
vt 0.953241 0.523646
vt 0.951770 0.518116
vt 0.949795 0.518398
vt 0.949198 0.512447
vt 0.946987 0.515895
vt 0.941085 0.513524
vt 0.943109 0.508794
vt 0.945753 0.503914
vt 0.935838 0.507689
vt 0.938596 0.504153
vt 0.944585 0.500884
vt 0.933459 0.500128
vt 0.268749 0.953887
vt 0.271565 0.957957
vt 0.931257 0.503137
vt 0.272488 0.962722
vt 0.274548 0.962975
vt 0.102689 0.698646
vt 0.107176 0.686612
vt 0.074389 0.685614
vt 0.077675 0.674824
vt 0.082094 0.661743
vt 0.446882 0.841319
vt 0.447330 0.838951
vt 0.032799 0.170512
vt 0.028557 0.171331
vt 0.036278 0.160893
vt 0.037869 0.167475
vt 0.038137 0.171338
vt 0.034168 0.176290
vt 0.037324 0.175590
vt 0.978108 0.147262
vt 0.975847 0.152170
vt 0.971768 0.149913
vt 0.973912 0.144755
vt 0.968602 0.142320
vt 0.967640 0.146307
vt 0.041998 0.167476
vt 0.043213 0.170681
vt 0.047895 0.168860
vt 0.049463 0.170768
vt 0.045742 0.172456
vt 0.046413 0.165934
vt 0.041560 0.164318
vt 0.046023 0.162512
vt 0.040546 0.159994
vt 0.044521 0.159144
vt 0.960813 0.131144
vt 0.959498 0.128449
vt 0.963532 0.129257
vt 0.966379 0.131700
vt 0.050390 0.163962
vt 0.050139 0.161654
vt 0.957374 0.129997
vt 0.956911 0.128661
vt 0.053008 0.161299
vt 0.052928 0.162676
vt 0.054461 0.161467
vt 0.054592 0.163242
vt 0.960282 0.132699
vt 0.956575 0.131984
vt 0.051923 0.165915
vt 0.960249 0.134634
vt 0.956186 0.134706
vt 0.965954 0.134309
vt 0.965606 0.136832
vt 0.971127 0.138229
vt 0.971889 0.134514
vt 0.976207 0.140234
vt 0.977113 0.135375
vt 0.961031 0.138553
vt 0.599986 0.897459
vt 0.598613 0.899199
vt 0.595096 0.902332
vt 0.599344 0.896067
vt 0.597283 0.897379
vt 0.593775 0.900487
vt 0.593356 0.897669
vt 0.587421 0.898723
vt 0.591602 0.903785
vt 0.994415 0.016940
vt 0.990498 0.021232
vt 0.990019 0.030894
vt 0.987249 0.024976
vt 0.994598 0.028130
vt 0.585317 0.904403
vt 0.583304 0.900752
vt 0.986628 0.018637
vt 0.986614 0.036808
vt 0.981502 0.030849
vt 0.979616 0.025876
vt 0.976988 0.029280
vt 0.976005 0.022920
vt 0.593548 0.905868
vt 0.585462 0.907724
vt 0.993271 0.039218
vt 0.990737 0.039056
vt 0.579483 0.906434
vt 0.580539 0.904759
vt 0.574342 0.902559
vt 0.579442 0.902700
vt 0.579770 0.896858
vt 0.979809 0.017332
vt 0.979131 0.011915
vt 0.982070 0.010595
vt 0.927194 0.344198
vt 0.916935 0.344115
vt 0.916603 0.339821
vt 0.926111 0.339825
vt 0.916175 0.335997
vt 0.925808 0.335593
vt 0.914769 0.332341
vt 0.924235 0.332029
vt 0.933759 0.333147
vt 0.936464 0.338206
vt 0.931368 0.330305
vt 0.937074 0.328467
vt 0.941022 0.331823
vt 0.513303 0.950224
vt 0.515498 0.955053
vt 0.940301 0.324334
vt 0.942492 0.326114
vt 0.517559 0.959596
vt 0.942133 0.319269
vt 0.944120 0.320766
vt 0.522845 0.965071
vt 0.519792 0.964678
vt 0.915404 0.883858
vt 0.917294 0.883366
vt 0.983438 0.582937
vt 0.980358 0.592624
vt 0.978190 0.586861
vt 0.974497 0.592026
vt 0.975423 0.595656
vt 0.943211 0.337341
vt 0.946030 0.333031
vt 0.969717 0.598450
vt 0.968284 0.595198
vt 0.950865 0.333292
vt 0.949096 0.336270
vt 0.966414 0.599461
vt 0.963983 0.598031
vt 0.955091 0.334007
vt 0.954955 0.335352
vt 0.948700 0.339423
vt 0.942178 0.341498
vt 0.953445 0.337503
vt 0.965630 0.601034
vt 0.962596 0.600025
vt 0.964956 0.603732
vt 0.968831 0.603141
vt 0.949478 0.342325
vt 0.954096 0.339609
vt 0.975336 0.599575
vt 0.945073 0.345849
vt 0.982811 0.597699
vt 0.991606 0.604354
vt 0.936167 0.343281
vt 0.942445 0.353939
vt 0.908501 0.344126
vt 0.943750 0.935719
vt 0.949196 0.939667
vt 0.382288 0.830816
vt 0.376256 0.832564
vt 0.948213 0.943879
vt 0.952253 0.942561
vt 0.952574 0.944205
vt 0.957475 0.945245
vt 0.366947 0.834740
vt 0.440439 0.783382
vt 0.447366 0.781863
vt 0.440785 0.786439
vt 0.439125 0.785764
vt 0.443820 0.786377
vt 0.439515 0.788905
vt 0.438765 0.793549
vt 0.442053 0.793484
vt 0.441344 0.800851
s 1
usemtl abyss_chancel_background_pbr
f 1/1/1 2/2/2 8/3/3 5/4/4
f 1/5/1 3/6/5 78/7/6 2/8/2
f 1/5/1 4/9/7 102/10/8 3/6/5
f 5/4/4 6/11/9 4/12/7 1/1/1
f 6/11/9 5/4/4 7/13/10 19/14/11
f 7/13/10 5/4/4 8/3/3 10/15/12
f 2/2/2 76/16/13 9/17/14 8/3/3
f 10/15/12 8/3/3 9/17/14 11/18/15
f 14/19/16 12/20/17 10/15/12 11/18/15
f 12/20/17 15/21/18 7/13/10 10/15/12
f 14/19/16 50/22/19 13/23/20 12/20/17
f 12/20/17 13/23/20 16/24/21 15/21/18
f 17/25/22 15/21/18 16/24/21 18/26/23
f 17/25/22 19/14/11 7/13/10 15/21/18
f 18/27/23 23/28/24 20/29/25 17/30/22
f 17/30/22 20/29/25 22/31/26 19/32/11
f 25/33/27 21/34/28 20/29/25 23/28/24
f 21/34/28 69/35/29 22/31/26 20/29/25
f 397/36/30 24/37/31 23/38/24 18/39/23
f 27/40/32 25/33/27 23/28/24 24/41/31
f 21/34/28 25/33/27 26/42/33 67/43/34
f 27/40/32 29/44/35 26/42/33 25/33/27
f 28/45/36 27/46/32 24/37/31 394/47/37
f 29/48/35 27/46/32 28/45/36 31/49/38
f 30/50/39 29/48/35 31/49/38 32/51/40
f 29/48/35 30/50/39 52/52/41 26/53/33
f 36/54/42 32/51/40 31/49/38 33/55/43
f 33/55/43 31/49/38 28/45/36 34/56/44
f 35/57/45 33/58/43 34/59/44 337/60/46
f 33/55/43 35/61/45 37/62/47 36/54/42
f 38/63/48 36/54/42 37/62/47 39/64/49
f 38/63/48 40/65/50 32/51/40 36/54/42
f 42/66/51 41/67/52 38/68/48 39/69/49
f 41/70/52 44/71/53 40/65/50 38/63/48
f 41/67/52 42/66/51 322/72/54 43/73/55
f 43/74/55 45/75/56 44/71/53 41/70/52
f 46/76/57 47/77/58 40/65/50 44/71/53
f 48/78/59 46/76/57 44/71/53 45/75/56
f 51/79/60 47/77/58 46/76/57 49/80/61
f 46/76/57 48/78/59 16/81/21 49/80/61
f 51/79/60 49/80/61 50/82/19 53/83/62
f 50/82/19 49/80/61 16/81/21 13/84/20
f 47/77/58 51/79/60 52/52/41 30/50/39
f 53/85/62 54/86/63 52/87/41 51/88/60
f 53/85/62 55/89/64 57/90/65 54/86/63
f 50/22/19 14/19/16 55/89/64 53/85/62
f 57/91/65 55/92/64 56/93/66 58/94/67
f 14/19/16 11/18/15 56/95/66 55/89/64
f 62/96/68 59/97/69 57/91/65 58/94/67
f 61/98/70 54/86/63 57/90/65 59/99/69
f 62/96/68 63/100/71 60/101/72 59/97/69
f 61/98/70 59/99/69 60/102/72 507/103/73
f 62/96/68 58/94/67 67/43/34 64/104/74
f 66/105/75 63/100/71 62/96/68 64/104/74
f 64/104/74 67/43/34 26/42/33 65/106/76
f 64/104/74 65/106/76 502/107/77 66/105/75
f 69/35/29 21/34/28 67/43/34 68/108/78
f 67/43/34 58/94/67 56/93/66 68/108/78
f 56/95/66 73/109/79 70/110/80 68/111/78
f 68/111/78 70/110/80 72/112/81 69/113/29
f 74/114/82 71/115/83 70/110/80 73/109/79
f 71/115/83 112/116/84 72/112/81 70/110/80
f 76/16/13 74/114/82 73/109/79 9/17/14
f 11/18/15 9/17/14 73/109/79 56/95/66
f 74/114/82 75/117/85 110/118/86 71/115/83
f 74/114/82 76/16/13 77/119/87 75/117/85
f 76/16/13 2/2/2 78/120/6 77/119/87
f 81/121/88 75/117/85 77/119/87 78/120/6
f 104/122/89 79/123/90 78/7/6 3/6/5
f 90/124/91 80/125/92 78/7/6 79/123/90
f 83/126/93 81/127/88 78/7/6 80/125/92
f 81/121/88 82/128/94 110/118/86 75/117/85
f 82/129/94 81/127/88 83/126/93 84/130/95
f 84/130/95 83/126/93 85/131/96 162/132/97
f 83/126/93 86/133/98 92/134/99 85/131/96
f 83/126/93 88/135/100 86/133/98
f 83/126/93 80/125/92 87/136/101
f 87/136/101 89/137/102 88/135/100 83/126/93
f 79/123/90 86/133/98 88/135/100 89/137/102
f 87/136/101 90/124/91 79/123/90 89/137/102
f 87/136/101 80/125/92 90/124/91
f 91/138/103 86/133/98 79/123/90 104/122/89
f 86/133/98 91/138/103 94/139/104 92/134/99
f 92/134/99 93/140/105 159/141/106 85/131/96
f 93/140/105 92/134/99 94/139/104 95/142/107
f 94/139/104 91/138/103 99/143/108 96/144/109
f 97/145/110 95/142/107 94/139/104 96/144/109
f 96/144/109 98/146/111 134/147/112 97/145/110
f 96/144/109 99/143/108 100/148/113 98/146/111
f 101/149/114 103/150/115 100/148/113 99/143/108
f 91/138/103 104/122/89 101/149/114 99/143/108
f 105/151/116 103/150/115 101/149/114 102/10/8
f 3/6/5 102/10/8 101/149/114 104/122/89
f 103/152/115 105/153/116 109/154/117 106/155/118
f 106/155/118 108/156/119 100/157/113 103/152/115
f 108/156/119 106/155/118 107/158/120 128/159/121
f 107/158/120 106/155/118 109/154/117 111/160/122
f 112/116/84 71/115/83 110/118/86 109/154/117
f 111/160/122 109/154/117 110/118/86 115/161/123
f 113/162/124 112/116/84 109/154/117 105/153/116
f 112/116/84 113/162/124 114/163/125 72/112/81
f 113/164/124 105/151/116 102/10/8 4/9/7
f 114/163/125 113/162/124 4/165/7 6/166/9
f 69/113/29 72/112/81 114/163/125 22/167/26
f 19/168/11 22/167/26 114/163/125 6/166/9
f 115/161/123 117/169/126 116/170/127 111/160/122
f 116/170/127 119/171/128 107/158/120 111/160/122
f 499/172/129 118/173/130 116/170/127 117/169/126
f 120/174/131 119/171/128 116/170/127 118/173/130
f 119/175/128 120/176/131 122/177/132 121/178/133
f 119/175/128 121/178/133 124/179/134 107/180/120
f 123/181/135 121/178/133 122/177/132 500/182/136
f 123/181/135 125/183/137 124/179/134 121/178/133
f 126/184/138 128/159/121 107/158/120 124/185/134
f 124/179/134 125/183/137 84/130/95 126/186/138
f 127/187/139 126/186/138 84/130/95 162/132/97
f 126/186/138 127/187/139 129/188/140 128/189/121
f 128/159/121 129/190/140 131/191/141 108/156/119
f 130/192/142 132/193/143 131/194/141 129/188/140
f 129/188/140 127/187/139 161/195/144 130/192/142
f 100/157/113 108/156/119 131/191/141 98/196/111
f 131/194/141 132/193/143 134/197/112 98/198/111
f 132/193/143 133/199/145 135/200/146 134/197/112
f 132/193/143 130/192/142 165/201/147 133/199/145
f 134/147/112 135/202/146 136/203/148 97/145/110
f 133/199/145 139/204/149 137/205/150 135/200/146
f 137/206/150 138/207/151 136/203/148 135/202/146
f 143/208/152 138/207/151 137/206/150 140/209/153
f 142/210/154 140/211/153 137/205/150 139/204/149
f 170/212/155 141/213/156 140/214/153 142/215/154
f 144/216/157 143/208/152 140/209/153 141/217/156
f 144/218/157 146/219/158 145/220/159 143/221/152
f 138/207/151 143/208/152 145/222/159 148/223/160
f 492/224/161 147/225/162 145/220/159 146/219/158
f 495/226/163 149/227/164 145/220/159 147/225/162
f 153/228/165 148/223/160 145/222/159 150/229/166
f 151/230/167 150/231/166 145/220/159 149/227/164
f 151/230/167 495/226/163 147/225/162 150/231/166
f 152/232/168 150/231/166 147/225/162 493/233/169
f 154/234/170 153/228/165 150/229/166 152/235/168
f 148/223/160 153/228/165 155/236/171 156/237/172
f 154/234/170 157/238/173 155/236/171 153/228/165
f 95/142/107 156/237/172 155/236/171 93/140/105
f 155/236/171 157/238/173 159/141/106 93/140/105
f 157/238/173 154/234/170 494/239/174 158/240/175
f 157/238/173 158/240/175 160/241/176 159/141/106
f 85/131/96 159/141/106 160/241/176 162/132/97
f 158/240/175 163/242/177 161/195/144 160/241/176
f 162/132/97 160/241/176 161/195/144 127/187/139
f 161/195/144 163/242/177 165/201/147 130/192/142
f 163/242/177 158/240/175 494/239/174 164/243/178
f 163/242/177 164/243/178 166/244/179 165/201/147
f 133/199/145 165/201/147 166/244/179 139/204/149
f 142/210/154 139/204/149 166/244/179 167/245/180
f 168/246/181 167/247/180 166/248/179 164/249/178
f 167/250/180 169/251/182 170/252/155 142/253/154
f 167/247/180 168/246/181 172/254/183 169/255/182
f 171/256/184 468/257/185 170/252/155 169/251/182
f 172/254/183 174/258/186 171/259/184 169/255/182
f 493/233/169 173/260/187 172/254/183 168/246/181
f 173/260/187 175/261/188 174/258/186 172/254/183
f 179/262/189 176/263/190 174/258/186 175/261/188
f 176/263/190 178/264/191 171/259/184 174/258/186
f 176/263/190 179/262/189 180/265/192 177/266/193
f 176/267/190 177/268/193 486/269/194 178/270/191
f 181/271/195 179/262/189 175/261/188 184/272/196
f 181/273/195 182/274/197 180/275/192 179/276/189
f 181/271/195 185/277/198 186/278/199 182/279/197
f 188/280/200 185/277/198 181/271/195 183/281/201
f 470/282/202 183/281/201 181/271/195 184/272/196
f 185/283/198 187/284/203 198/285/204 186/286/199
f 185/277/198 188/280/200 190/287/205 187/288/203
f 188/280/200 183/281/201 466/289/206 189/290/207
f 190/287/205 188/280/200 189/290/207 191/291/208
f 195/292/209 187/284/203 190/293/205 192/294/210
f 193/295/211 192/296/210 190/287/205 191/291/208
f 194/297/212 192/294/210 193/298/211 212/299/213
f 194/297/212 196/300/214 195/292/209 192/294/210
f 198/285/204 187/284/203 195/292/209 197/301/215
f 200/302/216 197/301/215 195/292/209 196/300/214
f 197/301/215 199/303/217 488/304/218 198/285/204
f 199/303/217 197/301/215 200/302/216 201/305/219
f 200/302/216 196/300/214 205/306/220 202/307/221
f 200/302/216 202/307/221 203/308/222 201/305/219
f 204/309/223 439/310/224 203/311/222 202/312/221
f 204/313/223 202/314/221 205/315/220 207/316/225
f 194/317/212 208/318/226 205/315/220 196/319/214
f 236/320/227 207/316/225 205/315/220 206/321/228
f 209/322/229 206/321/228 205/315/220 208/318/226
f 194/297/212 212/299/213 210/323/230 208/324/226
f 209/322/229 208/318/226 210/325/230 213/326/231
f 214/327/232 213/328/231 210/329/230 211/330/233
f 210/329/230 212/331/213 458/332/234 211/330/233
f 217/333/235 209/322/229 213/326/231 215/334/236
f 216/335/237 215/336/236 213/337/231 214/338/232
f 216/335/237 221/339/238 218/340/239 215/336/236
f 218/341/239 219/342/240 217/333/235 215/334/236
f 241/343/241 219/342/240 218/341/239 220/344/242
f 222/345/243 220/346/242 218/340/239 221/339/238
f 216/335/237 224/347/244 223/348/245 221/339/238
f 223/348/245 225/349/246 222/345/243 221/339/238
f 224/347/244 229/350/247 226/351/248 223/348/245
f 225/349/246 223/348/245 226/351/248 228/352/249
f 229/350/247 231/353/250 227/354/251 226/351/248
f 228/352/249 226/351/248 227/354/251 430/355/252
f 224/347/244 453/356/253 230/357/254 229/350/247
f 229/350/247 230/357/254 232/358/255 231/353/250
f 233/359/256 231/353/250 232/358/255 236/320/227
f 231/353/250 233/359/256 234/360/257 227/354/251
f 235/361/258 237/362/259 234/360/257 233/359/256
f 236/320/227 206/321/228 235/361/258 233/359/256
f 232/358/255 432/363/260 207/316/225 236/320/227
f 237/362/259 235/361/258 217/333/235 219/342/240
f 206/321/228 209/322/229 217/333/235 235/361/258
f 219/342/240 241/343/241 238/364/261 237/362/259
f 234/360/257 237/362/259 238/364/261 239/365/262
f 238/364/261 240/366/263 262/367/264 239/365/262
f 241/343/241 242/368/265 240/366/263 238/364/261
f 220/344/242 243/369/266 242/368/265 241/343/241
f 243/369/266 247/370/267 244/371/268 242/368/265
f 244/371/268 245/372/269 240/366/263 242/368/265
f 263/373/270 245/374/269 244/375/268 246/376/271
f 248/377/272 246/376/271 244/375/268 247/378/267
f 252/379/273 249/380/274 247/381/267 243/382/266
f 249/383/274 251/384/275 248/385/272 247/386/267
f 249/380/274 252/379/273 253/387/276 250/388/277
f 249/383/274 250/389/277 427/390/278 251/384/275
f 243/382/266 220/346/242 222/345/243 252/379/273
f 253/387/276 252/379/273 222/345/243 225/349/246
f 256/391/279 250/388/277 253/387/276 254/392/280
f 228/352/249 254/392/280 253/387/276 225/349/246
f 430/355/252 255/393/281 254/392/280 228/352/249
f 258/394/282 256/391/279 254/392/280 255/393/281
f 250/388/277 256/391/279 257/395/283 427/396/278
f 258/394/282 259/397/284 257/395/283 256/391/279
f 258/394/282 260/398/285 261/399/286 259/397/284
f 260/398/285 258/394/282 255/393/281 262/367/264
f 245/374/269 263/373/270 261/400/286 260/401/285
f 245/372/269 260/398/285 262/367/264 240/366/263
f 239/365/262 262/367/264 255/393/281 430/355/252
f 265/402/287 264/403/288 261/400/286 263/373/270
f 261/404/286 264/405/288 266/406/289 259/407/284
f 264/403/288 265/402/287 270/408/290 267/409/291
f 264/403/288 267/409/291 269/410/292 266/411/289
f 268/412/293 267/409/291 270/408/290 272/413/294
f 268/412/293 289/414/295 269/410/292 267/409/291
f 274/415/296 272/413/294 270/408/290 271/416/297
f 270/408/290 265/402/287 429/417/298 271/416/297
f 294/418/299 268/412/293 272/413/294 273/419/300
f 275/420/301 273/419/300 272/413/294 274/415/296
f 271/416/297 279/421/302 276/422/303 274/415/296
f 274/415/296 276/422/303 278/423/304 275/420/301
f 279/424/302 281/425/305 277/426/306 276/427/303
f 277/428/306 367/429/307 278/430/304 276/431/303
f 282/432/308 281/433/305 279/434/302 280/435/309
f 279/421/302 271/416/297 429/417/298 280/436/309
f 281/433/305 282/432/308 284/437/310 283/438/311
f 283/439/311 286/440/312 277/426/306 281/425/305
f 285/441/313 283/439/311 284/442/310 398/443/314
f 285/441/313 288/444/315 286/440/312 283/439/311
f 287/445/316 367/429/307 277/428/306 286/446/312
f 290/447/317 287/445/316 286/446/312 288/448/315
f 288/448/315 289/414/295 292/449/318 290/447/317
f 288/448/315 285/450/313 269/410/292 289/414/295
f 287/445/316 290/447/317 291/451/319 368/452/320
f 292/449/318 293/453/321 291/451/319 290/447/317
f 294/418/299 295/454/322 293/453/321 292/449/318
f 289/414/295 268/412/293 294/418/299 292/449/318
f 295/454/322 294/418/299 273/419/300 297/455/323
f 297/455/323 298/456/324 296/457/325 295/454/322
f 295/454/322 296/457/325 390/458/326 293/453/321
f 298/456/324 297/455/323 299/459/327 301/460/328
f 299/459/327 297/455/323 273/419/300 275/420/301
f 278/423/304 300/461/329 299/459/327 275/420/301
f 302/462/330 301/460/328 299/459/327 300/461/329
f 306/463/331 298/456/324 301/460/328 303/464/332
f 304/465/333 303/464/332 301/460/328 302/462/330
f 329/466/334 305/467/335 303/464/332 304/465/333
f 307/468/336 306/463/331 303/464/332 305/467/335
f 306/463/331 308/469/337 296/457/325 298/456/324
f 308/470/337 306/471/331 307/472/336 311/473/338
f 308/470/337 309/474/339 389/475/340 296/476/325
f 387/477/341 309/474/339 308/470/337 310/478/342
f 310/478/342 308/470/337 311/473/338 313/479/343
f 312/480/344 311/473/338 307/472/336 325/481/345
f 315/482/346 313/479/343 311/473/338 312/480/344
f 363/483/347 310/478/342 313/479/343 314/484/348
f 313/479/343 315/482/346 316/485/349 314/484/348
f 317/486/350 318/487/351 316/488/349 315/489/346
f 317/490/350 315/482/346 312/480/344 321/491/352
f 319/492/353 339/493/354 318/494/351 317/495/350
f 37/496/47 319/492/353 317/495/350 320/497/355
f 323/498/356 320/497/355 317/495/350 321/499/352
f 312/480/344 325/481/345 322/500/54 321/491/352
f 322/72/54 42/66/51 323/498/356 321/499/352
f 320/497/355 323/498/356 42/66/51 39/69/49
f 395/501/357 43/502/55 322/503/54 324/504/358
f 326/505/359 324/504/358 322/503/54 325/506/345
f 326/507/359 325/481/345 307/472/336 305/508/335
f 324/504/358 326/505/359 327/509/360 328/510/361
f 327/509/360 326/505/359 305/511/335 329/512/334
f 331/513/362 328/510/361 327/509/360 330/514/363
f 332/515/364 330/514/363 327/509/360 329/512/334
f 330/514/363 333/516/365 335/517/366 331/513/362
f 333/516/365 330/514/363 332/515/364 334/518/367
f 335/517/366 333/516/365 316/488/349 338/519/368
f 334/518/367 314/520/348 316/488/349 333/516/365
f 360/521/369 337/522/46 335/517/366 336/523/370
f 336/523/370 335/517/366 338/519/368 340/524/371
f 34/56/44 331/513/362 335/517/366 337/522/46
f 339/525/354 338/519/368 316/488/349 318/487/351
f 341/526/372 340/524/371 338/519/368 339/525/354
f 336/523/370 340/524/371 342/527/373 344/528/374
f 342/527/373 340/524/371 341/526/372 343/529/375
f 347/530/376 345/531/377 342/532/373 343/533/375
f 348/534/378 344/528/374 342/527/373 345/535/377
f 348/534/378 345/535/377 346/536/379 349/537/380
f 347/530/376 354/538/381 346/539/379 345/531/377
f 350/540/382 348/534/378 349/537/380 353/541/383
f 350/540/382 351/542/384 344/528/374 348/534/378
f 351/543/384 350/544/382 352/545/385 357/546/386
f 353/547/383 355/548/387 352/545/385 350/544/382
f 355/548/387 353/547/383 354/538/381 347/530/376
f 353/547/383 349/549/380 346/539/379 354/538/381
f 356/550/388 357/546/386 352/545/385 355/548/387
f 355/548/387 347/530/376 343/533/375 356/550/388
f 356/550/388 358/551/389 359/552/390 357/546/386
f 356/550/388 343/533/375 341/553/372 358/551/389
f 359/552/390 358/551/389 37/496/47 35/57/45
f 358/551/389 341/553/372 37/496/47
f 351/543/384 357/546/386 359/552/390 360/554/369
f 337/60/46 360/554/369 359/552/390 35/57/45
f 360/521/369 336/523/370 344/528/374 351/542/384
f 37/496/47 341/553/372 339/493/354 319/492/353
f 363/483/347 314/484/348 334/555/367 361/556/391
f 361/556/391 334/555/367 332/557/364 364/558/392
f 364/559/392 365/560/393 362/561/394 361/562/391
f 363/563/347 361/562/391 362/561/394 386/564/395
f 365/560/393 364/559/392 304/565/333 302/566/330
f 304/567/333 364/558/392 332/557/364 329/568/334
f 365/560/393 366/569/396 368/570/320 362/561/394
f 366/569/396 365/560/393 302/566/330 300/571/329
f 367/429/307 366/572/396 300/573/329 278/430/304
f 367/429/307 287/445/316 368/452/320 366/572/396
f 369/574/397 368/452/320 291/451/319 370/575/398
f 372/576/399 362/561/394 368/570/320 369/577/397
f 392/578/400 371/579/401 369/577/397 370/580/398
f 371/579/401 373/581/402 369/577/397
f 373/581/402 375/582/403 372/576/399 369/577/397
f 371/579/401 382/583/404 374/584/405 373/581/402
f 375/582/403 373/581/402 374/584/405 377/585/406
f 375/582/403 376/586/407 385/587/408 372/576/399
f 375/582/403 377/585/406 379/588/409 376/586/407
f 374/589/405 382/590/404 378/591/410 377/592/406
f 379/593/409 377/592/406 378/591/410 380/594/411
f 376/595/407 379/593/409 380/594/411 381/596/412
f 381/596/412 380/594/411 378/591/410 382/590/404
f 382/590/404 371/597/401 383/598/413 381/596/412
f 381/596/412 383/598/413 385/599/408 376/595/407
f 383/598/413 371/597/401 392/600/400 384/601/414
f 384/601/414 386/602/395 385/599/408 383/598/413
f 372/576/399 385/587/408 386/564/395 362/561/394
f 363/483/347 386/602/395 387/477/341 310/478/342
f 388/603/415 387/477/341 386/602/395 384/601/414
f 387/477/341 388/603/415 389/475/340 309/474/339
f 390/458/326 296/457/325 389/604/340 388/605/415
f 388/603/415 384/601/414 392/600/400 390/606/326
f 390/458/326 391/607/416 291/451/319 293/453/321
f 392/608/400 391/607/416 390/458/326
f 392/608/400 370/575/398 291/451/319 391/607/416
f 328/510/361 331/513/362 34/56/44 393/609/417
f 395/501/357 324/504/358 328/510/361 393/609/417
f 393/609/417 34/56/44 28/45/36 394/47/37
f 395/501/357 393/609/417 394/47/37 396/610/418
f 395/611/357 396/612/418 45/75/56 43/74/55
f 397/613/30 48/78/59 45/75/56 396/612/418
f 396/610/418 394/47/37 24/37/31 397/36/30
f 397/614/30 18/26/23 16/24/21 48/615/59
f 37/496/47 320/497/355 39/69/49
f 285/441/313 398/443/314 400/616/419 269/617/292
f 284/442/310 428/618/420 399/619/421 398/443/314
f 398/443/314 399/619/421 401/620/422 400/616/419
f 266/621/289 269/617/292 400/616/419
f 266/621/289 400/616/419 401/620/422 404/622/423
f 257/623/283 404/624/423 401/625/422 402/626/424
f 406/627/425 402/626/424 401/625/422 403/628/426
f 407/629/427 403/630/426 401/620/422 399/619/421
f 266/406/289 404/624/423 257/623/283 259/407/284
f 405/631/428 424/632/429 406/633/425 403/630/426
f 403/630/426 407/629/427 408/634/430 405/631/428
f 399/619/421 409/635/431 407/629/427
f 407/629/427 409/635/431 411/636/432 408/634/430
f 410/637/433 409/635/431 399/619/421 428/618/420
f 411/636/432 409/635/431 410/637/433 412/638/434
f 414/639/435 413/640/436 411/641/432 412/642/434
f 415/643/437 408/634/430 411/636/432 413/644/436
f 413/640/436 414/639/435 418/645/438 416/646/439
f 413/644/436 416/647/439 417/648/440 415/643/437
f 417/648/440 416/647/439 418/649/438 419/650/441
f 421/651/442 419/652/441 418/645/438 414/639/435
f 420/653/443 415/643/437 417/648/440 419/650/441
f 419/652/441 421/651/442 422/654/444 420/655/443
f 423/656/445 424/657/429 422/654/444 421/651/442
f 421/651/442 414/639/435 412/642/434 423/656/445
f 424/657/429 423/656/445 425/658/446 406/627/425
f 423/656/445 412/642/434 410/659/433 425/658/446
f 402/626/424 406/627/425 425/658/446 426/660/447
f 426/660/447 425/658/446 410/659/433 428/661/420
f 428/661/420 284/437/310 427/390/278 426/660/447
f 426/660/447 427/390/278 257/623/283 402/626/424
f 282/432/308 251/384/275 427/390/278 284/437/310
f 405/662/428 420/655/443 422/654/444 424/657/429
f 420/653/443 405/631/428 408/634/430 415/643/437
f 282/432/308 280/435/309 248/385/272 251/384/275
f 429/417/298 246/376/271 248/377/272 280/436/309
f 263/373/270 246/376/271 429/417/298 265/402/287
f 430/355/252 227/354/251 234/360/257 239/365/262
f 433/663/448 432/363/260 232/358/255 431/664/449
f 431/664/449 232/358/255 230/357/254 437/665/450
f 432/363/260 433/663/448 434/666/451 207/316/225
f 431/664/449 435/667/452 434/666/451 433/663/448
f 204/313/223 207/316/225 434/666/451 435/667/452
f 435/667/452 431/664/449 437/665/450 436/668/453
f 435/667/452 436/668/453 439/669/224 204/313/223
f 438/670/454 436/668/453 437/665/450 441/671/455
f 439/310/224 436/672/453 438/673/454 203/311/222
f 443/674/456 442/675/457 438/673/454 440/676/458
f 448/677/459 440/678/458 438/670/454 441/671/455
f 444/679/460 203/311/222 438/673/454 442/675/457
f 443/674/456 447/680/461 445/681/462 442/675/457
f 445/681/462 446/682/463 444/679/460 442/675/457
f 230/683/254 453/684/253 446/682/463 445/681/462
f 441/671/455 437/665/450 230/357/254 445/685/462
f 448/677/459 441/671/455 445/685/462 447/686/461
f 443/674/456 451/687/464 449/688/465 447/680/461
f 447/686/461 449/689/465 450/690/466 448/677/459
f 450/690/466 449/689/465 451/691/464 452/692/467
f 440/678/458 452/692/467 451/691/464 443/693/456
f 448/677/459 450/690/466 452/692/467 440/678/458
f 453/684/253 454/694/468 444/679/460 446/682/463
f 211/330/233 454/694/468 453/684/253 214/327/232
f 216/335/237 214/338/232 453/356/253 224/347/244
f 455/695/469 457/696/470 444/679/460 454/694/468
f 454/694/468 211/330/233 458/332/234 455/695/469
f 490/697/471 457/698/470 455/699/469 456/700/472
f 456/700/472 455/699/469 458/701/234 459/702/473
f 458/701/234 212/703/213 193/704/211 459/702/473
f 459/702/473 460/705/474 461/706/475 456/700/472
f 460/705/474 459/702/473 193/704/211 191/707/208
f 460/705/474 462/708/476 463/709/477 461/706/475
f 460/710/474 191/291/208 189/290/207 462/711/476
f 464/712/478 465/713/479 463/709/477 462/708/476
f 462/711/476 189/290/207 466/289/206 464/714/478
f 465/713/479 464/712/478 467/715/480 468/716/185
f 466/289/206 469/717/481 467/718/480 464/714/478
f 144/216/157 141/217/156 467/719/480 469/720/481
f 467/715/480 141/213/156 170/212/155 468/716/185
f 183/281/201 470/282/202 469/717/481 466/289/206
f 146/219/158 144/218/157 469/717/481 470/282/202
f 470/282/202 184/272/196 492/224/161 146/219/158
f 465/721/479 468/257/185 171/256/184 178/270/191
f 465/721/479 178/270/191 471/722/482 463/723/477
f 472/724/483 463/723/477 471/722/482 473/725/484
f 474/726/485 461/706/475 463/709/477 472/727/483
f 476/728/486 475/729/487 472/724/483 473/725/484
f 475/730/487 478/731/488 474/726/485 472/727/483
f 475/729/487 476/728/486 491/732/489 477/733/490
f 478/731/488 475/730/487 477/734/490 480/735/491
f 478/731/488 479/736/492 487/737/493 474/726/485
f 478/731/488 480/735/491 482/738/494 479/736/492
f 477/733/490 491/732/489 481/739/495 480/740/491
f 482/741/494 480/740/491 481/739/495 483/742/496
f 484/743/497 479/736/492 482/738/494 483/744/496
f 483/742/496 476/728/486 473/725/484 484/745/497
f 476/728/486 483/742/496 481/739/495 491/732/489
f 484/743/497 485/746/498 487/737/493 479/736/492
f 473/725/484 471/722/482 485/747/498 484/745/497
f 471/722/482 178/270/191 486/269/194 485/747/498
f 488/748/218 485/747/498 486/269/194 177/268/193
f 487/737/493 485/746/498 488/304/218 489/749/499
f 177/750/193 180/275/192 198/285/204 488/304/218
f 490/697/471 489/749/499 488/304/218 199/303/217
f 490/697/471 456/700/472 461/706/475 489/749/499
f 487/737/493 489/749/499 461/706/475 474/726/485
f 490/697/471 199/303/217 201/305/219 457/698/470
f 457/698/470 201/305/219 203/308/222 444/751/460
f 182/274/197 186/286/199 198/285/204 180/275/192
f 492/224/161 184/272/196 175/261/188 173/260/187
f 173/260/187 493/233/169 147/225/162 492/224/161
f 493/233/169 168/246/181 164/249/178 152/232/168
f 152/235/168 164/243/178 494/239/174 154/234/170
f 97/145/110 136/203/148 156/237/172 95/142/107
f 138/207/151 148/223/160 156/237/172 136/203/148
f 151/230/167 149/227/164 495/226/163
f 496/752/500 82/129/94 84/130/95 125/183/137
f 497/753/501 496/752/500 125/183/137 123/181/135
f 496/754/500 115/161/123 110/118/86 82/128/94
f 497/755/501 117/169/126 115/161/123 496/754/500
f 117/756/126 497/753/501 498/757/502 499/758/129
f 123/181/135 500/182/136 498/757/502 497/753/501
f 498/757/502 500/182/136 501/759/503 499/758/129
f 122/177/132 120/176/131 501/759/503 500/182/136
f 501/760/503 120/174/131 118/173/130 499/172/129
f 63/761/71 66/762/75 503/763/504 504/764/505
f 502/765/77 505/766/506 503/763/504 66/762/75
f 507/103/73 504/764/505 503/763/504 505/766/506
f 506/767/507 505/766/506 502/765/77 65/768/76
f 505/766/506 506/767/507 61/98/70 507/103/73
f 60/102/72 63/761/71 504/764/505 507/103/73
f 65/768/76 26/769/33 52/87/41 506/767/507
f 61/98/70 506/767/507 52/87/41 54/86/63
f 47/77/58 30/50/39 32/51/40 40/65/50
