# Blender 5.2.0 LTS
# www.blender.org
mtllib terrain-abyss-chancel-object-007.mtl
o terrain-abyss-chancel-object-007
v -0.842977 0.633699 -0.009984
v -0.841068 0.635032 -0.004319
v -0.843707 0.638486 -0.010384
v -0.847094 0.634677 -0.014918
v -0.846998 0.631400 -0.007724
v -0.851096 0.630437 -0.004244
v -0.843830 0.632199 -0.003241
v -0.851582 0.633175 -0.011981
v -0.852056 0.638719 -0.011621
v -0.856007 0.632307 -0.007583
v -0.858616 0.632258 -0.002031
v -0.857042 0.638609 -0.007483
v -0.860007 0.637959 -0.002556
v -0.853462 0.640673 -0.003600
v -0.848885 0.640862 -0.007334
v -0.856854 0.638542 0.000299
v -0.848842 0.639698 -0.000054
v -0.845167 0.636554 0.001950
v -0.845206 0.639500 -0.002903
v -0.851937 0.637963 0.002536
v -0.847954 0.636374 0.003672
v -0.854165 0.633696 0.003385
v -0.848966 0.633064 0.003437
v -0.853701 0.630650 0.000211
v -0.858355 0.634141 0.002119
v -0.850150 0.631060 0.001341
v -0.847351 0.630980 -0.000851
v -0.845052 0.632923 0.001710
v -0.842578 0.633130 0.000125
v -0.842797 0.636681 -0.000356
v -0.842507 0.638709 -0.005441
v -0.846327 0.636914 -0.013933
vn 0.7541 -0.4878 -0.4397
vn 0.9921 -0.1248 0.0077
vn 0.5638 -0.8244 0.0501
vn 0.2155 -0.9462 -0.2415
vn 0.6426 0.6170 -0.4542
vn 0.7461 0.6649 -0.0345
vn 0.1126 -0.3379 -0.9344
vn 0.2923 0.4231 -0.8577
vn -0.3506 -0.5573 -0.7527
vn 0.2412 -0.9511 0.1931
vn -0.0291 -0.9925 -0.1186
vn -0.5839 -0.6293 -0.5129
vn -0.3942 0.5839 -0.7097
vn -0.7115 0.5057 -0.4879
vn -0.1982 -0.9314 0.3053
vn -0.7877 -0.6138 0.0518
vn -0.9189 0.3927 -0.0386
vn -0.1730 0.9817 0.0792
vn -0.5088 0.6903 0.5144
vn 0.0682 0.9820 -0.1759
vn 0.4232 0.8769 0.2281
vn 0.1556 0.8938 0.4206
vn -0.0907 0.6119 0.7857
vn 0.7806 0.3608 0.5104
vn 0.4919 0.4046 0.7709
vn 0.2271 0.3289 0.9167
vn -0.2802 -0.2599 0.9241
vn 0.1428 -0.4232 0.8947
vn -0.6569 -0.1730 0.7338
vn 0.0597 -0.8888 0.4545
vn 0.5035 -0.5275 0.6843
vn 0.7498 -0.4757 0.4599
vt 0.284807 0.030185
vt 0.284253 0.026389
vt 0.286626 0.027961
vt 0.289587 0.030483
vt 0.287484 0.974450
vt 0.285542 0.976433
vt 0.283456 0.975297
vt 0.284338 0.973486
vt 0.288186 0.977417
vt 0.287120 0.977667
vt 0.290390 0.975453
vt 0.290206 0.979522
vt 0.288329 0.026803
vt 0.290870 0.028074
vt 0.296897 0.025938
vt 0.294722 0.030351
vt 0.286925 0.980357
vt 0.290076 0.983060
vt 0.285842 0.983210
vt 0.291425 0.025987
vt 0.293600 0.024425
vt 0.293449 0.021747
vt 0.295294 0.020979
vt 0.291352 0.017744
vt 0.291542 0.021076
vt 0.283862 0.979302
vt 0.283007 0.982194
vt 0.284784 0.020554
vt 0.287332 0.017904
vt 0.287351 0.020737
vt 0.289160 0.021579
vt 0.285139 0.023477
vt 0.286500 0.023423
vt 0.287813 0.023077
vt 0.290359 0.023848
vt 0.288586 0.024560
vt 0.291876 0.023384
vt 0.289520 0.025834
vt 0.287059 0.025232
vt 0.286009 0.025757
vt 0.283239 0.023250
vt 0.282371 0.976719
s 1
usemtl abyss_chancel_background_pbr
f 1/1/1 2/2/2 7/3/3 5/4/4
f 1/5/1 3/6/5 31/7/6 2/8/2
f 1/5/1 4/9/7 32/10/8 3/6/5
f 5/11/4 8/12/9 4/9/7 1/5/1
f 7/3/3 27/13/10 6/14/11 5/4/4
f 5/4/4 6/14/11 10/15/12 8/16/9
f 8/12/9 9/17/13 32/10/8 4/9/7
f 9/17/13 8/12/9 10/18/12 12/19/14
f 24/20/15 11/21/16 10/15/12 6/14/11
f 10/15/12 11/21/16 13/22/17 12/23/14
f 14/24/18 12/23/14 13/22/17 16/25/19
f 15/26/20 9/17/13 12/19/14 14/27/18
f 19/28/21 15/29/20 14/24/18 17/30/22
f 20/31/23 17/30/22 14/24/18 16/25/19
f 30/32/24 19/28/21 17/30/22 18/33/25
f 17/30/22 20/31/23 21/34/26 18/33/25
f 22/35/27 23/36/28 21/34/26 20/31/23
f 20/31/23 16/25/19 25/37/29 22/35/27
f 22/35/27 24/20/15 26/38/30 23/36/28
f 24/20/15 22/35/27 25/37/29 11/21/16
f 13/22/17 11/21/16 25/37/29 16/25/19
f 6/14/11 27/13/10 26/38/30 24/20/15
f 28/39/31 23/36/28 26/38/30 27/13/10
f 27/13/10 7/3/3 29/40/32 28/39/31
f 28/39/31 18/33/25 21/34/26 23/36/28
f 18/33/25 28/39/31 29/40/32 30/32/24
f 2/2/2 30/32/24 29/40/32 7/3/3
f 30/32/24 2/2/2 31/41/6 19/28/21
f 15/26/20 19/42/21 31/7/6 3/6/5
f 15/26/20 3/6/5 32/10/8 9/17/13
