# Blender 5.2.0 LTS
# www.blender.org
mtllib terrain-abyss-chancel-object-024.mtl
o terrain-abyss-chancel-object-024
v -0.777595 0.021935 0.127136
v -0.777726 0.021862 0.125421
v -0.778165 0.020703 0.126720
v -0.777736 0.021687 0.128541
v -0.778744 0.022985 0.127569
v -0.778982 0.022151 0.128888
v -0.780250 0.023469 0.127732
v -0.778741 0.023403 0.126180
v -0.780272 0.024032 0.126411
v -0.779070 0.023420 0.125098
v -0.779126 0.022081 0.124617
v -0.780335 0.023507 0.124843
v -0.780634 0.021916 0.124391
v -0.781752 0.023224 0.124879
v -0.782105 0.021759 0.124648
v -0.782966 0.023010 0.125196
v -0.781766 0.023986 0.126398
v -0.783283 0.023540 0.126367
v -0.781858 0.023516 0.127771
v -0.783153 0.023407 0.127674
v -0.782092 0.022524 0.128558
v -0.783750 0.022602 0.127935
v -0.780497 0.022400 0.128839
v -0.782283 0.021217 0.128025
v -0.783988 0.021498 0.127632
v -0.782344 0.020534 0.126761
v -0.780750 0.020932 0.128243
v -0.779462 0.020827 0.128235
v -0.780846 0.020329 0.126632
v -0.780897 0.020405 0.124906
v -0.779539 0.020202 0.126605
v -0.779489 0.020635 0.124835
v -0.778284 0.020925 0.125265
v -0.782404 0.020734 0.125405
v -0.784066 0.021132 0.126084
v -0.783802 0.020801 0.126945
v -0.783644 0.022020 0.125319
v -0.785390 0.021608 0.126959
v -0.784681 0.022589 0.126485
v -0.778314 0.020758 0.128097
vn 0.9800 0.1624 0.1148
vn 0.8997 0.0727 -0.4305
vn 0.5788 0.8097 -0.0967
vn 0.5050 0.7865 0.3556
vn 0.6273 -0.7788 -0.0051
vn 0.6080 -0.5922 -0.5288
vn 0.7555 -0.0059 0.6551
vn 0.4498 -0.7565 0.4749
vn 0.2666 0.2286 0.9363
vn 0.1486 0.8413 0.5197
vn -0.0168 0.2200 0.9754
vn 0.1317 0.9908 0.0323
vn 0.4178 0.6733 -0.6100
vn 0.0513 0.6925 -0.7196
vn 0.3733 0.1054 -0.9217
vn -0.0355 -0.0273 -0.9990
vn -0.2988 -0.1330 -0.9450
vn -0.2159 0.5998 -0.7704
vn -0.1438 0.9878 -0.0604
vn -0.5555 0.0217 -0.8312
vn -0.4067 0.5474 -0.7314
vn -0.4675 0.8689 -0.1626
vn -0.3546 0.7944 0.4932
vn -0.1053 0.8262 0.5535
vn -0.2002 0.1791 0.9632
vn -0.5131 0.3668 0.7760
vn -0.4945 -0.4435 0.7475
vn -0.2243 -0.6160 0.7551
vn -0.1334 -0.6931 0.7084
vn -0.3070 -0.9249 0.2242
vn -0.2064 -0.9624 0.1766
vn -0.1020 -0.9856 0.1350
vn 0.0200 -0.7479 0.6635
vn 0.1127 -0.9921 0.0557
vn -0.3188 -0.7798 -0.5388
vn -0.1016 -0.7838 -0.6127
vn 0.2317 -0.6861 -0.6897
vn -0.5653 -0.6805 -0.4662
vn -0.9555 -0.2602 0.1391
vn -0.8745 0.4545 -0.1692
vt 0.229431 0.979051
vt 0.228893 0.978489
vt 0.230480 0.978504
vt 0.230229 0.979311
vt 0.228704 0.979426
vt 0.228625 0.978844
vt 0.229498 0.979612
vt 0.228977 0.979835
vt 0.229762 0.980065
vt 0.230778 0.980026
vt 0.230188 0.980631
vt 0.231118 0.979518
vt 0.230913 0.978392
vt 0.231489 0.978798
vt 0.951015 0.976908
vt 0.951405 0.977601
vt 0.950616 0.977829
vt 0.950285 0.977411
vt 0.951716 0.978265
vt 0.950763 0.978471
vt 0.952015 0.978922
vt 0.951232 0.979053
vt 0.950606 0.979644
vt 0.950291 0.979064
vt 0.952153 0.979710
vt 0.951536 0.979595
vt 0.951216 0.980097
vt 0.951008 0.980711
vt 0.950404 0.980361
vt 0.231502 0.980439
vt 0.231054 0.981001
vt 0.950490 0.981060
vt 0.951587 0.981266
vt 0.230429 0.981405
vt 0.230357 0.982259
vt 0.229678 0.982455
vt 0.229547 0.981576
vt 0.229219 0.980901
vt 0.229077 0.982413
vt 0.228734 0.981742
vt 0.228082 0.981083
vt 0.228937 0.980357
vt 0.227703 0.980161
vt 0.228133 0.982010
vt 0.227742 0.981519
vt 0.952320 0.977498
vt 0.952981 0.977007
vt 0.953199 0.977524
vt 0.952647 0.978135
vt 0.228044 0.979120
vt 0.951853 0.976977
vt 0.952749 0.978962
vt 0.952700 0.980149
vt 0.228723 0.982738
vt 0.952311 0.980683
vt 0.953007 0.980751
vt 0.952433 0.981257
vt 0.951823 0.980461
s 1
usemtl abyss_chancel_background_pbr
f 1/1/1 2/2/2 8/3/3 5/4/4
f 1/1/1 3/5/5 33/6/6 2/2/2
f 1/1/1 4/7/7 40/8/8 3/5/5
f 5/4/4 6/9/9 4/7/7 1/1/1
f 5/4/4 7/10/10 23/11/11 6/9/9
f 8/3/3 9/12/12 7/10/10 5/4/4
f 9/12/12 8/3/3 10/13/13 12/14/14
f 2/15/2 11/16/15 10/17/13 8/18/3
f 13/19/16 12/20/14 10/17/13 11/16/15
f 12/20/14 13/19/16 15/21/17 14/22/18
f 12/20/14 14/22/18 17/23/19 9/24/12
f 15/21/17 37/25/20 16/26/21 14/22/18
f 17/23/19 14/22/18 16/26/21 18/27/22
f 17/23/19 18/27/22 20/28/23 19/29/24
f 17/30/19 19/31/24 7/10/10 9/12/12
f 21/32/25 19/29/24 20/28/23 22/33/26
f 19/31/24 21/34/25 23/11/11 7/10/10
f 22/35/26 25/36/27 24/37/28 21/34/25
f 21/34/25 24/37/28 27/38/29 23/11/11
f 24/37/28 25/36/27 36/39/30 26/40/31
f 24/37/28 26/40/31 29/41/32 27/38/29
f 6/9/9 23/11/11 27/38/29 28/42/33
f 28/42/33 27/38/29 29/41/32 31/43/34
f 29/41/32 26/40/31 34/44/35 30/45/36
f 32/46/37 31/47/34 29/48/32 30/49/36
f 31/43/34 3/5/5 40/8/8 28/42/33
f 31/43/34 32/50/37 33/6/6 3/5/5
f 11/16/15 32/46/37 30/49/36 13/19/16
f 11/16/15 2/15/2 33/51/6 32/46/37
f 13/19/16 30/49/36 34/52/35 15/21/17
f 37/25/20 15/21/17 34/52/35 35/53/38
f 34/44/35 26/40/31 36/39/30 35/54/38
f 38/55/39 35/53/38 36/56/30 25/57/27
f 37/25/20 35/53/38 38/55/39 39/58/40
f 22/33/26 39/58/40 38/55/39 25/57/27
f 39/58/40 22/33/26 20/28/23 18/27/22
f 39/58/40 18/27/22 16/26/21 37/25/20
f 6/9/9 28/42/33 40/8/8 4/7/7
