# Blender 5.2.0 LTS
# www.blender.org
mtllib terrain-abyss-chancel-object-120.mtl
o terrain-abyss-chancel-object-120
v 0.631924 0.153298 -0.004677
v 0.633302 0.153278 -0.007471
v 0.625670 0.159540 -0.004383
v 0.636078 0.141695 -0.005340
v 0.634178 0.160203 -0.003387
v 0.638904 0.142364 -0.003459
v 0.640345 0.162287 -0.002278
v 0.632412 0.178547 -0.003280
v 0.626554 0.167504 -0.003754
v 0.626519 0.179150 -0.003752
v 0.620895 0.169895 -0.005014
v 0.622050 0.179786 -0.005779
v 0.624173 0.169798 -0.008115
v 0.621566 0.163354 -0.004483
v 0.623149 0.161961 -0.007766
v 0.627762 0.154487 -0.005443
v 0.630686 0.166945 -0.007851
v 0.638679 0.161708 -0.007457
v 0.633565 0.180103 -0.007450
v 0.639048 0.182176 -0.006972
v 0.638261 0.194552 -0.005202
v 0.626461 0.179496 -0.007958
v 0.627942 0.189405 -0.007697
v 0.626756 0.196301 -0.007611
v 0.623279 0.189355 -0.006281
v 0.623695 0.197673 -0.006456
v 0.626101 0.190537 -0.004151
v 0.631981 0.193385 -0.005679
v 0.625940 0.199713 -0.004629
v 0.629057 0.202144 -0.006042
v 0.625513 0.207512 -0.004603
v 0.626008 0.214158 -0.004301
v 0.629774 0.211454 -0.006832
v 0.622960 0.205546 -0.006289
v 0.626178 0.204012 -0.007476
v 0.622348 0.213699 -0.005616
v 0.620725 0.222768 -0.005926
v 0.625037 0.212954 -0.007469
v 0.624826 0.223574 -0.008017
v 0.630519 0.224667 -0.008167
v 0.625055 0.233793 -0.008593
v 0.631595 0.235564 -0.008442
v 0.625485 0.242690 -0.008789
v 0.618889 0.231998 -0.007229
v 0.623749 0.231940 -0.004124
v 0.618891 0.241429 -0.007653
v 0.620129 0.250665 -0.007567
v 0.622568 0.240686 -0.003950
v 0.623731 0.248581 -0.002408
v 0.629184 0.241259 -0.002901
v 0.630047 0.232307 -0.003273
v 0.629508 0.248509 -0.001438
v 0.635810 0.241324 -0.001871
v 0.635630 0.232720 -0.002335
v 0.636554 0.248024 -0.000615
v 0.643166 0.241397 -0.000648
v 0.644649 0.247848 -0.000008
v 0.641591 0.232658 -0.000952
v 0.651874 0.240365 -0.001764
v 0.664769 0.235674 -0.003604
v 0.649561 0.231101 -0.001751
v 0.654421 0.246242 -0.000153
v 0.656020 0.252375 -0.000445
v 0.666988 0.242151 -0.000906
v 0.678308 0.237939 -0.000319
v 0.668509 0.247404 0.000268
v 0.678788 0.243537 0.000887
v 0.671001 0.250669 -0.001316
v 0.662385 0.253773 -0.003330
v 0.671872 0.250962 -0.004585
v 0.679387 0.248109 -0.000219
v 0.679499 0.248609 -0.004247
v 0.688534 0.247397 0.000707
v 0.697812 0.246638 0.000393
v 0.688925 0.242610 0.001624
v 0.688342 0.247770 -0.003941
v 0.687787 0.244570 -0.006911
v 0.697624 0.247034 -0.003968
v 0.696833 0.244278 -0.006628
v 0.707710 0.247047 -0.003255
v 0.708321 0.243372 -0.006664
v 0.706335 0.248310 0.001782
v 0.713972 0.244703 -0.001890
v 0.714730 0.242532 -0.005071
v 0.715482 0.239036 -0.000939
v 0.712781 0.248151 0.001254
v 0.712709 0.242327 0.003658
v 0.708930 0.238065 0.002023
v 0.706599 0.244163 0.005441
v 0.707654 0.239925 0.005589
v 0.698112 0.243232 0.002763
v 0.698978 0.239166 0.001221
v 0.700376 0.236448 -0.001304
v 0.689800 0.236287 -0.000931
v 0.695068 0.232734 -0.003147
v 0.685829 0.228430 -0.003967
v 0.691348 0.226160 -0.004211
v 0.677359 0.230700 -0.001985
v 0.682466 0.217665 -0.005235
v 0.675638 0.219224 -0.003459
v 0.681054 0.203315 -0.005644
v 0.688270 0.216405 -0.004793
v 0.686929 0.202716 -0.004702
v 0.692410 0.215349 -0.006937
v 0.690561 0.202328 -0.006726
v 0.694236 0.225024 -0.007302
v 0.688229 0.215968 -0.009711
v 0.689571 0.226138 -0.009618
v 0.682594 0.216870 -0.011170
v 0.686877 0.202322 -0.009291
v 0.681317 0.202814 -0.010783
v 0.686371 0.183641 -0.008900
v 0.690640 0.183610 -0.006360
v 0.685349 0.161214 -0.008774
v 0.680412 0.183734 -0.010070
v 0.679579 0.161485 -0.009166
v 0.674057 0.183831 -0.011438
v 0.675218 0.203284 -0.011029
v 0.665000 0.183814 -0.011361
v 0.673090 0.161803 -0.010354
v 0.673240 0.141342 -0.009202
v 0.664977 0.162231 -0.011498
v 0.654508 0.162739 -0.009128
v 0.665512 0.141889 -0.010027
v 0.656437 0.142503 -0.008996
v 0.666774 0.124729 -0.009405
v 0.657704 0.124933 -0.009133
v 0.673742 0.124427 -0.008707
v 0.667896 0.110242 -0.008730
v 0.668698 0.099236 -0.004580
v 0.674866 0.111812 -0.008149
v 0.658600 0.109802 -0.008902
v 0.658292 0.096800 -0.008535
v 0.649938 0.109343 -0.007677
v 0.643001 0.106953 -0.007679
v 0.649412 0.095324 -0.007696
v 0.649985 0.125090 -0.007406
v 0.643798 0.124797 -0.007699
v 0.649318 0.143508 -0.006826
v 0.643060 0.143397 -0.007353
v 0.646685 0.162973 -0.006623
v 0.646067 0.182407 -0.006628
v 0.645375 0.202099 -0.006695
v 0.653374 0.183205 -0.009550
v 0.651718 0.202402 -0.009937
v 0.651244 0.217345 -0.010922
v 0.664742 0.203391 -0.009800
v 0.665145 0.218005 -0.010359
v 0.666193 0.229124 -0.010377
v 0.676623 0.217610 -0.009861
v 0.677483 0.228199 -0.008732
v 0.677881 0.235996 -0.008640
v 0.684079 0.227352 -0.010248
v 0.685785 0.235742 -0.008978
v 0.691885 0.234028 -0.008687
v 0.686859 0.240405 -0.008139
v 0.678339 0.240932 -0.008561
v 0.696211 0.238843 -0.007710
v 0.708297 0.239125 -0.006965
v 0.700561 0.235036 -0.004588
v 0.709442 0.235827 -0.003159
v 0.697023 0.231472 -0.006514
v 0.715915 0.239473 -0.005610
v 0.668822 0.242572 -0.009780
v 0.678931 0.245097 -0.007315
v 0.670296 0.247286 -0.007943
v 0.662014 0.250835 -0.006068
v 0.658709 0.245337 -0.009007
v 0.650105 0.246111 -0.007984
v 0.655588 0.238835 -0.010541
v 0.667528 0.236871 -0.010256
v 0.652700 0.229466 -0.011139
v 0.646755 0.238719 -0.007703
v 0.638818 0.237450 -0.007518
v 0.644772 0.228784 -0.006912
v 0.636727 0.226995 -0.007694
v 0.643641 0.216145 -0.006408
v 0.634412 0.214229 -0.006110
v 0.639313 0.204998 -0.005613
v 0.631560 0.222596 -0.003557
v 0.636359 0.221305 -0.002488
v 0.625183 0.222750 -0.004201
v 0.640244 0.219049 -0.001540
v 0.647115 0.221368 -0.000992
v 0.653620 0.219525 -0.004590
v 0.646134 0.202492 -0.001135
v 0.645427 0.182745 -0.000980
v 0.652947 0.205255 -0.003667
v 0.653096 0.184207 -0.002525
v 0.663307 0.205268 -0.005068
v 0.674375 0.204072 -0.005080
v 0.661417 0.223097 -0.005415
v 0.664870 0.184629 -0.005658
v 0.665329 0.162052 -0.006900
v 0.674243 0.184421 -0.006606
v 0.680641 0.184156 -0.004878
v 0.673316 0.161729 -0.005167
v 0.672910 0.141328 -0.004048
v 0.679714 0.161554 -0.004203
v 0.685752 0.161270 -0.004126
v 0.679039 0.140943 -0.003935
v 0.684969 0.140669 -0.004039
v 0.678900 0.124818 -0.003875
v 0.679056 0.112453 -0.004235
v 0.684387 0.124866 -0.004099
v 0.673192 0.124634 -0.003919
v 0.666418 0.124032 -0.004378
v 0.674286 0.111444 -0.004187
v 0.675133 0.103237 -0.006594
v 0.668064 0.109339 -0.004114
v 0.661730 0.107854 -0.004067
v 0.664083 0.096920 -0.003929
v 0.654108 0.108298 -0.002380
v 0.659529 0.123893 -0.004191
v 0.652034 0.123996 -0.001782
v 0.657102 0.142075 -0.003700
v 0.649649 0.143072 -0.001342
v 0.654615 0.162545 -0.003029
v 0.665603 0.141684 -0.005241
v 0.646691 0.162944 -0.001341
v 0.644442 0.143084 -0.001998
v 0.645697 0.124453 -0.002027
v 0.640092 0.124552 -0.003117
v 0.647430 0.108606 -0.001707
v 0.641392 0.108065 -0.002870
v 0.649848 0.095601 -0.002208
v 0.643648 0.095089 -0.002339
v 0.653072 0.082719 -0.002951
v 0.657075 0.095871 -0.003192
v 0.661040 0.083530 -0.003745
v 0.666585 0.065722 -0.007575
v 0.665299 0.086669 -0.004067
v 0.666479 0.083197 -0.008238
v 0.657859 0.082666 -0.008493
v 0.649629 0.081695 -0.007826
v 0.658598 0.067446 -0.008469
v 0.658215 0.049954 -0.008464
v 0.651187 0.067072 -0.008068
v 0.652842 0.050303 -0.008147
v 0.644569 0.066153 -0.005412
v 0.648244 0.050047 -0.005649
v 0.642591 0.080844 -0.006634
v 0.649314 0.067059 -0.002960
v 0.645428 0.081841 -0.002522
v 0.656892 0.067534 -0.003558
v 0.652208 0.050385 -0.003527
v 0.654534 0.036327 -0.004483
v 0.657843 0.050326 -0.004259
v 0.662956 0.049804 -0.007121
v 0.657253 0.039673 -0.004799
v 0.659774 0.038921 -0.006713
v 0.655749 0.033914 -0.007992
v 0.653567 0.038785 -0.007478
v 0.651971 0.035500 -0.006270
v 0.655391 0.029075 -0.005257
v 0.653886 0.023641 -0.006509
v 0.640916 0.095450 -0.006961
v 0.637194 0.106618 -0.003550
v 0.639551 0.107231 -0.007945
v 0.634820 0.124332 -0.004504
v 0.637883 0.123481 -0.008142
v 0.638352 0.142024 -0.008009
v 0.679736 0.103651 -0.004790
v 0.680237 0.103935 -0.007722
v 0.680437 0.098793 -0.006626
v 0.684230 0.104753 -0.008269
v 0.679618 0.112892 -0.008221
v 0.679048 0.124772 -0.008608
v 0.684112 0.113229 -0.008440
v 0.684213 0.125029 -0.008570
v 0.687480 0.113259 -0.006528
v 0.687841 0.124864 -0.006458
v 0.687325 0.105068 -0.006779
v 0.683995 0.112979 -0.004491
v 0.683887 0.104520 -0.004871
v 0.683744 0.100012 -0.005043
v 0.686966 0.100283 -0.007233
v 0.683906 0.100249 -0.007920
v 0.688544 0.140582 -0.006689
v 0.689006 0.161052 -0.006472
v 0.684490 0.140736 -0.008731
v 0.679044 0.140723 -0.008810
v 0.686659 0.183906 -0.004284
v 0.638108 0.179813 -0.002531
v 0.641233 0.244854 -0.007307
v 0.644321 0.251390 -0.006572
v 0.633113 0.243703 -0.008128
v 0.635348 0.250088 -0.007139
v 0.636949 0.255279 -0.004903
v 0.627678 0.249836 -0.007994
v 0.629967 0.255409 -0.005352
v 0.623327 0.256275 -0.006074
v 0.630491 0.254474 -0.000319
v 0.637328 0.253888 -0.000311
v 0.624667 0.255003 -0.000480
v 0.618997 0.257080 -0.001109
v 0.616870 0.257154 -0.005812
v 0.613117 0.258246 -0.001454
v 0.613237 0.252932 -0.003842
v 0.612471 0.257579 -0.005589
v 0.609815 0.257701 -0.000988
v 0.609834 0.254971 -0.003062
v 0.646349 0.253627 -0.000541
v 0.657787 0.261095 -0.003653
vn -0.5242 -0.4219 0.7397
vn -0.3715 -0.2228 -0.9013
vn -0.3448 -0.0508 -0.9373
vn -0.9539 -0.1494 0.2603
vn -0.5120 -0.4032 0.7585
vn -0.4965 -0.8152 -0.2981
vn -0.1632 -0.0613 0.9847
vn -0.1377 -0.0105 0.9904
vn -0.2913 -0.0394 0.9558
vn -0.1595 -0.0216 0.9870
vn -0.1658 -0.0226 0.9859
vn -0.2029 0.0552 0.9776
vn -0.0741 0.0564 0.9957
vn -0.1924 0.0550 0.9798
vn -0.9664 0.0588 0.2501
vn -0.8628 -0.2038 0.4626
vn -0.9915 0.1257 0.0327
vn -0.3391 -0.0133 -0.9406
vn -0.1821 0.0459 -0.9822
vn -0.5845 -0.3707 -0.7218
vn 0.0308 -0.0448 -0.9985
vn 0.0188 0.0002 -0.9998
vn 0.0505 0.0469 -0.9976
vn -0.0501 0.0530 -0.9973
vn -0.9002 0.4006 0.1707
vn -0.8299 -0.1452 -0.5386
vn -0.0581 0.0782 -0.9952
vn -0.9891 0.0667 -0.1314
vn 0.0069 0.0562 -0.9984
vn 0.5340 0.5409 0.6498
vn -0.9851 -0.0062 -0.1717
vn -0.2375 0.0794 0.9681
vn -0.1495 0.0281 0.9884
vn 0.9914 0.1293 0.0221
vn 0.7995 -0.4262 -0.4233
vn -0.0475 -0.0661 0.9967
vn -0.9951 -0.0712 -0.0683
vn -0.0648 -0.1469 0.9870
vn -0.9880 -0.1211 0.0954
vn -0.3423 -0.8819 -0.3241
vn -0.0419 -0.0068 -0.9991
vn -0.1990 -0.0551 -0.9784
vn -0.2159 -0.0584 0.9747
vn -0.9873 -0.1554 0.0344
vn -0.1842 -0.0847 -0.9792
vn 0.0849 -0.0737 -0.9937
vn -0.1012 -0.0444 -0.9939
vn 0.0741 -0.0132 -0.9972
vn -0.9749 -0.1291 -0.1816
vn -0.0439 0.0375 -0.9983
vn 0.0859 0.0529 -0.9949
vn -0.9491 0.0287 -0.3137
vn -0.3436 -0.0350 0.9385
vn -0.4709 -0.0473 0.8809
vn -0.7774 -0.1131 -0.6188
vn 0.0341 0.2142 -0.9762
vn -0.4456 -0.2091 0.8705
vn -0.1473 -0.1161 0.9823
vn -0.1160 -0.1749 0.9777
vn -0.1512 -0.0444 0.9875
vn -0.1934 -0.0357 0.9805
vn -0.1520 -0.0960 0.9837
vn -0.0873 -0.0989 0.9913
vn -0.0782 -0.0212 0.9967
vn -0.0392 -0.0966 0.9946
vn -0.0188 -0.0547 0.9983
vn 0.0014 -0.1283 0.9917
vn 0.0695 -0.1741 0.9823
vn 0.1411 -0.0709 0.9874
vn -0.0483 -0.2026 0.9781
vn -0.0892 -0.2132 0.9729
vn 0.0466 -0.0688 0.9965
vn 0.0786 0.7671 0.6367
vn 0.0579 0.3800 0.9232
vn 0.0004 0.1754 0.9845
vn -0.0606 -0.0120 0.9981
vn -0.0754 -0.2709 0.9596
vn -0.0252 -0.2113 0.9771
vn 0.0871 0.7328 0.6749
vn 0.1955 0.7705 0.6068
vn -0.0531 0.9981 -0.0311
vn 0.2538 0.8951 -0.3664
vn 0.1872 0.9104 -0.3688
vn 0.0140 0.7629 0.6464
vn 0.0805 0.9301 -0.3583
vn -0.0622 -0.0385 0.9973
vn -0.2122 0.0969 0.9724
vn -0.0904 0.8683 0.4877
vn 0.0311 0.9106 -0.4120
vn 0.0500 0.4541 -0.8896
vn 0.0654 0.4703 -0.8801
vn 0.1322 0.4613 -0.8774
vn 0.0113 0.9264 0.3763
vn 0.1299 0.8585 -0.4961
vn 0.1670 0.4527 -0.8759
vn 0.7723 0.6152 -0.1587
vn 0.6817 0.4562 -0.5720
vn 0.5443 0.8042 0.2387
vn 0.8589 -0.4714 0.2003
vn 0.7467 -0.2674 -0.6091
vn 0.6564 -0.0521 0.7526
vn -0.0212 0.1910 0.9814
vn 0.2380 -0.9686 -0.0724
vn 0.1888 -0.7650 0.6157
vn 0.0597 -0.4831 0.8735
vn -0.1388 -0.5260 0.8391
vn 0.0023 -0.3689 0.9295
vn 0.0639 -0.8049 0.5899
vn 0.2946 -0.5555 0.7776
vn 0.3132 -0.2524 0.9155
vn 0.0697 -0.2190 0.9732
vn 0.0568 -0.0837 0.9949
vn 0.2107 -0.0708 0.9750
vn 0.0260 -0.0976 0.9949
vn 0.0099 -0.0488 0.9988
vn -0.0446 -0.0173 0.9989
vn 0.1754 0.0013 0.9845
vn 0.9354 -0.2967 -0.1924
vn 0.9845 -0.1755 0.0076
vn 0.9965 -0.0685 0.0477
vn 0.3944 -0.0497 -0.9176
vn 0.3724 -0.0520 -0.9266
vn 0.2922 0.0051 -0.9563
vn 0.0350 0.0324 -0.9989
vn -0.0101 0.0884 -0.9960
vn 0.1290 -0.0169 -0.9915
vn 0.9992 -0.0327 0.0246
vn 0.3619 -0.0304 -0.9317
vn 0.1685 -0.0328 -0.9851
vn 0.9986 -0.0433 -0.0290
vn 0.3034 -0.0211 -0.9526
vn 0.1230 -0.0322 -0.9919
vn 0.1251 -0.0439 -0.9912
vn 0.0781 -0.0089 -0.9969
vn -0.0139 0.0238 -0.9996
vn -0.0643 0.0114 -0.9979
vn -0.0334 0.0110 -0.9994
vn -0.0468 -0.0366 -0.9982
vn 0.0543 -0.0200 -0.9983
vn 0.0988 -0.0367 -0.9944
vn -0.0061 -0.0398 -0.9992
vn -0.2507 -0.0292 -0.9676
vn -0.2517 -0.0112 -0.9677
vn -0.2013 -0.0235 -0.9792
vn 0.0308 -0.0288 -0.9991
vn -0.1272 -0.0121 -0.9918
vn 0.0626 -0.0311 -0.9976
vn 0.0828 -0.1375 -0.9870
vn -0.0141 -0.0576 -0.9982
vn 0.0028 -0.1154 -0.9933
vn 0.9016 -0.4201 0.1033
vn 0.0553 -0.0108 -0.9984
vn -0.1609 -0.9749 -0.1538
vn -0.0918 -0.0106 -0.9957
vn -0.0757 -0.0056 -0.9971
vn -0.0890 0.0092 -0.9960
vn -0.1305 -0.0402 -0.9906
vn 0.0653 0.0115 -0.9978
vn -0.8736 -0.2113 -0.4384
vn -0.1083 0.0032 -0.9941
vn 0.0738 0.0223 -0.9970
vn -0.1137 -0.0057 -0.9935
vn -0.1829 -0.0045 -0.9831
vn -0.2657 -0.0204 -0.9638
vn -0.2432 -0.0305 -0.9695
vn -0.2422 -0.0450 -0.9692
vn -0.2447 -0.0232 -0.9693
vn 0.0352 -0.0006 -0.9994
vn -0.0568 0.0559 -0.9968
vn -0.2121 0.0363 -0.9766
vn 0.0830 0.0148 -0.9964
vn -0.0199 0.0648 -0.9977
vn 0.0865 0.0546 -0.9948
vn 0.0469 0.0541 -0.9974
vn 0.0211 0.1117 -0.9935
vn 0.2359 0.0467 -0.9707
vn 0.0540 0.1887 -0.9805
vn 0.1690 -0.0018 -0.9856
vn 0.0950 0.1696 -0.9809
vn 0.3536 -0.8955 -0.2703
vn 0.1837 -0.3387 -0.9228
vn 0.7906 -0.4975 -0.3571
vn 0.0809 0.2230 -0.9715
vn 0.1202 0.4929 -0.8617
vn -0.0869 0.6323 -0.7698
vn -0.0958 0.4141 -0.9052
vn -0.0452 0.3657 -0.9296
vn -0.1328 0.1185 -0.9840
vn -0.1609 0.0575 -0.9853
vn -0.2005 -0.0047 -0.9797
vn 0.0554 0.1138 -0.9920
vn 0.0622 -0.0111 -0.9980
vn 0.0883 -0.0634 -0.9941
vn -0.1453 -0.1160 0.9826
vn -0.3975 -0.1317 0.9081
vn -0.4006 -0.0657 0.9139
vn 0.0137 -0.0059 0.9999
vn 0.1292 -0.0434 0.9907
vn 0.2767 -0.0333 0.9604
vn 0.2627 0.0213 0.9646
vn -0.0512 0.0281 0.9983
vn 0.2426 0.0052 0.9701
vn 0.0649 -0.0069 0.9979
vn 0.1245 -0.0134 0.9921
vn -0.0745 -0.0026 0.9972
vn 0.0871 0.0229 0.9959
vn -0.1302 0.0408 0.9906
vn 0.2589 0.0063 0.9659
vn -0.1191 0.0227 0.9926
vn -0.0856 0.0299 0.9959
vn -0.1006 0.0336 0.9944
vn 0.0203 0.0396 0.9990
vn -0.0163 0.0123 0.9998
vn 0.2772 -0.0052 0.9608
vn 0.2157 0.0110 0.9764
vn 0.3145 -0.0083 0.9492
vn 0.0164 -0.0126 0.9998
vn 0.3086 -0.0219 0.9509
vn -0.0403 0.0013 0.9992
vn -0.0002 -0.0849 0.9964
vn -0.0118 -0.0699 0.9975
vn 0.2886 -0.0405 0.9566
vn 0.0785 -0.0373 0.9962
vn -0.0039 0.0143 0.9999
vn -0.2760 -0.3785 0.8835
vn 0.1262 0.0090 0.9920
vn 0.2745 -0.0441 0.9606
vn 0.1756 0.0182 0.9843
vn 0.1493 -0.0012 0.9888
vn 0.1251 -0.0104 0.9921
vn 0.1360 0.0033 0.9907
vn 0.2436 0.0246 0.9696
vn 0.0888 -0.0007 0.9960
vn 0.0317 -0.0073 0.9995
vn -0.1188 -0.0083 0.9929
vn -0.2517 0.0088 0.9678
vn -0.2682 -0.0553 0.9618
vn -0.0404 -0.0118 0.9991
vn -0.4089 -0.1000 0.9071
vn 0.0405 -0.0236 0.9989
vn -0.4022 -0.0726 0.9127
vn 0.1156 -0.0293 0.9929
vn 0.3173 -0.0500 0.9470
vn 0.4512 -0.0818 0.8887
vn 0.9798 -0.1524 -0.1298
vn 0.9208 -0.0610 -0.3853
vn 0.2130 -0.0369 0.9764
vn 0.0239 0.0202 -0.9995
vn 0.0263 -0.0125 -0.9996
vn -0.1361 -0.0185 -0.9905
vn -0.2012 -0.0302 -0.9791
vn 0.0893 -0.0441 -0.9950
vn -0.2694 -0.0430 -0.9621
vn 0.9773 -0.1786 -0.1139
vn -0.9767 -0.2142 -0.0139
vn -0.9772 -0.1891 -0.0969
vn -0.9305 -0.1445 -0.3367
vn -0.2349 -0.0678 0.9697
vn -0.1823 -0.0881 0.9793
vn 0.3033 -0.0534 0.9514
vn 0.0799 -0.2522 0.9644
vn -0.9739 -0.2249 -0.0309
vn 0.3925 -0.2169 0.8938
vn 0.9055 -0.4154 -0.0872
vn 0.5559 -0.2764 -0.7839
vn -0.3265 -0.0658 -0.9429
vn 0.5951 -0.2847 0.7516
vn -0.2184 -0.9699 -0.1075
vn -0.9492 -0.2129 0.2318
vn -0.4811 -0.0950 -0.8715
vn -0.9579 -0.0161 0.2867
vn -0.4239 -0.0307 -0.9052
vn -0.2797 -0.2900 -0.9153
vn -0.3487 -0.9359 -0.0502
vn -0.0454 -0.0538 -0.9975
vn 0.1441 -0.0461 -0.9885
vn 0.1408 -0.6002 -0.7874
vn 0.2230 -0.0188 -0.9746
vn 0.0117 -0.0231 -0.9997
vn 0.2493 -0.0185 -0.9682
vn 0.9966 -0.0714 -0.0404
vn 0.9990 -0.0417 -0.0147
vn 0.9984 -0.0432 -0.0371
vn 0.2550 -0.0978 0.9620
vn 0.2415 -0.6339 0.7347
vn 0.8513 -0.5087 -0.1287
vn 0.9971 -0.0363 -0.0667
vn 0.2603 -0.0155 -0.9654
vn 0.1620 0.3091 -0.9371
vn 0.0580 0.2375 -0.9697
vn -0.0289 0.9133 -0.4063
vn 0.6242 0.6981 -0.3507
vn 0.0938 0.8742 -0.4765
vn 0.0744 0.8051 -0.5884
vn -0.2100 0.4919 0.8449
vn -0.0135 0.5596 0.8286
vn -0.0653 0.4845 0.8723
vn -0.0134 0.5423 0.8401
vn -0.0452 0.6942 -0.7183
vn -0.3090 0.4934 -0.8131
vn -0.2079 0.5932 0.7778
vn -0.2335 -0.9702 -0.0640
vn -0.6613 0.3329 0.6722
vn -0.9051 -0.3763 0.1982
vt 0.903962 0.510884
vt 0.905147 0.513737
vt 0.899024 0.514105
vt 0.898333 0.512151
vt 0.907712 0.510260
vt 0.908035 0.513356
vt 0.904943 0.506354
vt 0.910236 0.507259
vt 0.896957 0.509862
vt 0.895268 0.506285
vt 0.904122 0.502583
vt 0.912058 0.498373
vt 0.912864 0.501401
vt 0.915055 0.503998
vt 0.912736 0.508874
vt 0.910173 0.510312
vt 0.916852 0.506397
vt 0.914147 0.511117
vt 0.918455 0.509448
vt 0.910866 0.511409
vt 0.912920 0.513929
vt 0.909531 0.517916
vt 0.919377 0.512898
vt 0.919619 0.515830
vt 0.926300 0.510186
vt 0.930602 0.511865
vt 0.922099 0.506828
vt 0.920498 0.504028
vt 0.925285 0.505568
vt 0.927577 0.507259
vt 0.924250 0.503441
vt 0.920388 0.502112
vt 0.924812 0.501539
vt 0.919383 0.498741
vt 0.926233 0.500421
vt 0.929066 0.501552
vt 0.928060 0.502865
vt 0.927028 0.503325
vt 0.288106 0.036136
vt 0.290716 0.038486
vt 0.289692 0.040418
vt 0.287020 0.037762
vt 0.290874 0.032700
vt 0.292933 0.032585
vt 0.927651 0.504803
vt 0.285916 0.039139
vt 0.288286 0.043375
vt 0.294363 0.042455
vt 0.293617 0.043938
vt 0.292776 0.048304
vt 0.285243 0.045656
vt 0.285674 0.038650
vt 0.291481 0.053176
vt 0.297789 0.053835
vt 0.297767 0.058709
vt 0.298642 0.049545
vt 0.324547 0.910419
vt 0.322841 0.905483
vt 0.326205 0.903199
vt 0.327363 0.908014
vt 0.320418 0.908389
vt 0.322085 0.913090
vt 0.321486 0.918824
vt 0.319497 0.914593
vt 0.323512 0.917503
vt 0.318164 0.909970
vt 0.318694 0.904016
vt 0.321939 0.901408
vt 0.316108 0.906430
vt 0.315089 0.911608
vt 0.313706 0.908488
vt 0.316678 0.916131
vt 0.314006 0.917581
vt 0.312129 0.913438
vt 0.310451 0.910470
vt 0.311377 0.919235
vt 0.308613 0.915109
vt 0.306696 0.912128
vt 0.302129 0.914621
vt 0.304556 0.917151
vt 0.307421 0.921538
vt 0.297947 0.920112
vt 0.295536 0.917739
vt 0.301096 0.925381
vt 0.300482 0.912033
vt 0.304979 0.909497
vt 0.294348 0.915391
vt 0.289103 0.918380
vt 0.290120 0.920572
vt 0.291580 0.923365
vt 0.288731 0.915797
vt 0.292681 0.913893
vt 0.296719 0.911549
vt 0.291618 0.912564
vt 0.287739 0.913769
vt 0.284058 0.916754
vt 0.283127 0.914039
vt 0.284137 0.919690
vt 0.279614 0.920295
vt 0.280134 0.918315
vt 0.278492 0.915831
vt 0.976957 0.820066
vt 0.974891 0.824520
vt 0.973084 0.823410
vt 0.975445 0.818825
vt 0.971809 0.828276
vt 0.969943 0.827170
vt 0.275352 0.917683
vt 0.274638 0.915408
vt 0.978457 0.813506
vt 0.976270 0.812617
vt 0.977841 0.808901
vt 0.979587 0.809701
vt 0.272322 0.917596
vt 0.270086 0.916461
vt 0.269316 0.920380
vt 0.266537 0.921818
vt 0.267120 0.918703
vt 0.272856 0.920500
vt 0.276053 0.919900
vt 0.273012 0.925607
vt 0.274524 0.922932
vt 0.275721 0.921201
vt 0.279513 0.921846
vt 0.284259 0.922802
vt 0.278865 0.923153
vt 0.282099 0.924319
vt 0.284467 0.926006
vt 0.287860 0.925811
vt 0.919214 0.461101
vt 0.916261 0.466412
vt 0.914438 0.464164
vt 0.917330 0.459537
vt 0.921864 0.463465
vt 0.918992 0.468685
vt 0.913058 0.474326
vt 0.910976 0.471591
vt 0.909254 0.469057
vt 0.916165 0.458553
vt 0.913213 0.462122
vt 0.908163 0.467234
vt 0.907052 0.465289
vt 0.912170 0.460042
vt 0.990938 0.829750
vt 0.984679 0.827530
vt 0.985824 0.825819
vt 0.992043 0.828104
vt 0.990070 0.831374
vt 0.984094 0.829664
vt 0.905929 0.462668
vt 0.911063 0.457686
vt 0.899674 0.472393
vt 0.898390 0.470199
vt 0.898486 0.467681
vt 0.889160 0.478661
vt 0.888799 0.476861
vt 0.229518 0.063771
vt 0.242510 0.067978
vt 0.239623 0.070999
vt 0.226670 0.065516
vt 0.232125 0.061165
vt 0.245557 0.065176
vt 0.257382 0.069905
vt 0.253785 0.072981
vt 0.250489 0.060441
vt 0.262264 0.064489
vt 0.237626 0.057632
vt 0.217359 0.060755
vt 0.219975 0.058629
vt 0.223170 0.056058
vt 0.241176 0.053245
vt 0.254990 0.054050
vt 0.227552 0.052630
vt 0.982270 0.701598
vt 0.980370 0.697393
vt 0.988292 0.692736
vt 0.989775 0.697071
vt 0.990939 0.700996
vt 0.983641 0.705081
vt 0.975759 0.704478
vt 0.973371 0.700384
vt 0.978023 0.707548
vt 0.970585 0.707123
vt 0.967339 0.702139
vt 0.974160 0.709255
vt 0.027333 0.885696
vt 0.028959 0.879118
vt 0.032977 0.876466
vt 0.031923 0.882805
vt 0.029143 0.891488
vt 0.025358 0.893580
vt 0.035181 0.881474
vt 0.032882 0.890567
vt 0.038225 0.874359
vt 0.893312 0.520073
vt 0.900366 0.519812
vt 0.899294 0.523187
vt 0.893294 0.525070
vt 0.899997 0.516692
vt 0.892444 0.518262
vt 0.909414 0.521375
vt 0.908273 0.524837
vt 0.918936 0.519935
vt 0.920091 0.523189
vt 0.929446 0.518001
vt 0.259172 0.050331
vt 0.271278 0.052077
vt 0.267074 0.056718
vt 0.280492 0.056084
vt 0.276332 0.060958
vt 0.270934 0.068783
vt 0.264968 0.074487
vt 0.282542 0.066991
vt 0.276710 0.074283
vt 0.270654 0.079522
vt 0.261692 0.076751
vt 0.267076 0.082612
vt 0.280249 0.078675
vt 0.274729 0.083208
vt 0.270615 0.087089
vt 0.978850 0.827342
vt 0.980954 0.824658
vt 0.976702 0.825803
vt 0.979422 0.821576
vt 0.976002 0.830405
vt 0.973769 0.829312
vt 0.982486 0.814084
vt 0.982070 0.819678
vt 0.980260 0.814207
vt 0.983328 0.822363
vt 0.277723 0.924949
vt 0.279628 0.926002
vt 0.985566 0.822668
vt 0.988463 0.824966
vt 0.981331 0.809711
vt 0.983186 0.809716
vt 0.970517 0.833167
vt 0.972686 0.834429
vt 0.968080 0.831750
vt 0.966930 0.830312
vt 0.964282 0.835198
vt 0.962693 0.833859
vt 0.288227 0.080660
vt 0.283305 0.083378
vt 0.282718 0.080958
vt 0.288811 0.077197
vt 0.960242 0.835413
vt 0.961547 0.838440
vt 0.955192 0.839405
vt 0.294159 0.072672
vt 0.286854 0.072525
vt 0.291544 0.067711
vt 0.287122 0.062326
vt 0.297205 0.067605
vt 0.295488 0.062578
vt 0.290084 0.057410
vt 0.283887 0.049868
vt 0.276423 0.049735
vt 0.318824 0.920781
vt 0.323222 0.923533
vt 0.324803 0.927807
vt 0.317028 0.922719
vt 0.295414 0.038263
vt 0.927197 0.484761
vt 0.929199 0.485133
vt 0.923751 0.492790
vt 0.919468 0.496366
vt 0.315882 0.924314
vt 0.919575 0.488554
vt 0.927130 0.481202
vt 0.312068 0.924826
vt 0.924267 0.479432
vt 0.924308 0.474671
vt 0.930160 0.476874
vt 0.918685 0.484245
vt 0.911730 0.494135
vt 0.909982 0.490168
vt 0.916247 0.479183
vt 0.906847 0.484367
vt 0.904275 0.480048
vt 0.896469 0.489936
vt 0.894012 0.486150
vt 0.900101 0.495290
vt 0.902457 0.477077
vt 0.892099 0.483173
vt 0.885128 0.491798
vt 0.887580 0.495260
vt 0.883140 0.488939
vt 0.890357 0.480450
vt 0.900856 0.474374
vt 0.881158 0.486228
vt 0.876208 0.492913
vt 0.874377 0.490531
vt 0.877657 0.495932
vt 0.870995 0.496436
vt 0.869895 0.495115
vt 0.869279 0.492904
vt 0.059908 0.874553
vt 0.062664 0.874342
vt 0.068618 0.878740
vt 0.064905 0.879896
vt 0.879833 0.499463
vt 0.066223 0.875703
vt 0.061274 0.870659
vt 0.064356 0.871327
vt 0.056255 0.869290
vt 0.054861 0.873504
vt 0.052687 0.868717
vt 0.062480 0.880445
vt 0.050079 0.876773
vt 0.048397 0.870059
vt 0.878288 0.507244
vt 0.881983 0.502777
vt 0.885450 0.506030
vt 0.880324 0.509858
vt 0.890644 0.499318
vt 0.893737 0.503271
vt 0.902549 0.499226
vt 0.886631 0.509580
vt 0.888393 0.512448
vt 0.042806 0.888075
vt 0.042263 0.879571
vt 0.045952 0.878245
vt 0.044766 0.886549
vt 0.881913 0.512045
vt 0.040799 0.872314
vt 0.044155 0.870954
vt 0.037459 0.864696
vt 0.041957 0.863046
vt 0.047320 0.862671
vt 0.050768 0.863774
vt 0.046816 0.852409
vt 0.052360 0.861386
vt 0.041124 0.853516
vt 0.961209 0.704628
vt 0.962613 0.708101
vt 0.954111 0.709039
vt 0.953771 0.706008
vt 0.027502 0.873717
vt 0.032091 0.871443
vt 0.025340 0.869830
vt 0.028981 0.868144
vt 0.968106 0.623783
vt 0.964081 0.621052
vt 0.967356 0.607674
vt 0.973016 0.610049
vt 0.978455 0.614224
vt 0.972582 0.624780
vt 0.960074 0.618899
vt 0.961195 0.605588
vt 0.035425 0.867499
vt 0.030095 0.866110
vt 0.957387 0.604947
vt 0.956858 0.618113
vt 0.956110 0.593404
vt 0.953276 0.592633
vt 0.033875 0.855563
vt 0.035775 0.844909
vt 0.034108 0.843702
vt 0.032839 0.836669
vt 0.032207 0.843634
vt 0.031433 0.835654
vt 0.034033 0.838542
vt 0.987077 0.617727
vt 0.977527 0.626508
vt 0.034676 0.837998
vt 0.037786 0.838976
vt 0.032482 0.833056
vt 0.036933 0.837140
vt 0.958821 0.634278
vt 0.959970 0.629291
vt 0.957113 0.631372
vt 0.954597 0.634470
vt 0.956630 0.633515
vt 0.957528 0.633150
vt 0.039688 0.880469
vt 0.036937 0.881491
vt 0.040071 0.889513
vt 0.036902 0.889550
vt 0.890865 0.515547
vt 0.890608 0.517162
vt 0.862848 0.495860
vt 0.860308 0.494415
vt 0.863459 0.494827
vt 0.865556 0.495925
vt 0.979395 0.709764
vt 0.975655 0.711290
vt 0.861934 0.493601
vt 0.862952 0.493767
vt 0.862767 0.490417
vt 0.863732 0.490933
vt 0.984873 0.707552
vt 0.980924 0.711939
vt 0.986226 0.709886
vt 0.864450 0.492438
vt 0.868008 0.490867
vt 0.986854 0.711786
vt 0.981994 0.713687
vt 0.872623 0.489083
vt 0.865829 0.494316
vt 0.864404 0.494117
vt 0.863666 0.493673
vt 0.994195 0.708603
vt 0.994939 0.710564
vt 0.988287 0.713312
vt 0.993167 0.706621
vt 0.880459 0.484432
vt 0.214664 0.062376
vt 0.224110 0.067231
vt 0.213128 0.063966
vt 0.992028 0.704086
vt 0.294978 0.928378
vt 0.303134 0.065716
vt 0.299855 0.070015
vt 0.297601 0.079891
vt 0.305225 0.068332
vt 0.307801 0.065629
vt 0.306489 0.062159
vt 0.307743 0.070707
vt 0.302600 0.076124
vt 0.310385 0.069252
vt 0.312810 0.067291
vt 0.314307 0.069833
vt 0.315285 0.071416
vt 0.313211 0.072578
vt 0.310118 0.904722
vt 0.312589 0.902866
vt 0.312616 0.906058
vt 0.309891 0.907809
vt 0.314631 0.903214
vt 0.316629 0.900233
vt 0.317892 0.069502
vt 0.318364 0.070537
vt 0.301957 0.018919
vt 0.302252 0.021539
vt 0.299875 0.021897
vt 0.299182 0.019859
vt 0.320876 0.069286
vt 0.318440 0.068802
vt 0.318962 0.068474
vt 0.320291 0.069416
vt 0.320914 0.069978
vt 0.323748 0.069439
vt 0.300775 0.023890
vt 0.299022 0.023884
vt 0.308197 0.078297
vt 0.309139 0.072102
vt 0.286090 0.032570
vt 0.286508 0.033970
s 1
usemtl abyss_chancel_background_pbr
f 1/1/1 2/2/2 262/3/3 4/4/4
f 1/1/1 3/5/5 16/6/6 2/2/2
f 3/5/5 1/1/1 5/7/7 9/8/8
f 4/4/4 6/9/9 5/7/7 1/1/1
f 221/10/10 7/11/11 5/7/7 6/9/9
f 284/12/12 8/13/13 5/7/7 7/11/11
f 10/14/14 9/8/8 5/7/7 8/13/13
f 3/5/5 9/8/8 11/15/15 14/16/16
f 9/8/8 10/14/14 12/17/17 11/15/15
f 13/18/18 11/15/15 12/17/17 22/19/19
f 15/20/20 14/16/16 11/15/15 13/18/18
f 14/16/16 15/20/20 16/6/6 3/5/5
f 16/6/6 15/20/20 13/18/18 17/21/21
f 16/6/6 17/21/21 18/22/22 2/2/2
f 19/23/23 20/24/24 18/22/22 17/21/21
f 19/23/23 17/21/21 13/18/18 22/19/19
f 19/23/23 21/25/25 179/26/26 20/24/24
f 22/19/19 23/27/27 21/25/25 19/23/23
f 22/19/19 12/17/17 25/28/28 23/27/27
f 24/29/29 28/30/30 21/25/25 23/27/27
f 23/27/27 25/28/28 26/31/31 24/29/29
f 27/32/32 29/33/33 26/31/31 25/28/28
f 10/14/14 27/32/32 25/28/28 12/17/17
f 29/33/33 27/32/32 28/34/30 30/35/34
f 10/14/14 8/13/13 28/34/30 27/32/32
f 29/33/33 30/35/34 33/36/35 31/37/36
f 29/33/33 31/37/36 34/38/37 26/31/31
f 31/39/36 32/40/38 36/41/39 34/42/37
f 31/39/36 33/43/35 178/44/40 32/40/38
f 24/29/29 26/31/31 34/38/37 35/45/41
f 35/46/41 34/42/37 36/41/39 38/47/42
f 32/40/38 182/48/43 37/49/44 36/41/39
f 38/47/42 36/41/39 37/49/44 39/50/45
f 35/46/41 38/47/42 33/51/35 30/52/34
f 33/51/35 38/47/42 39/50/45 40/53/46
f 40/53/46 39/50/45 41/54/47 42/55/48
f 37/49/44 44/56/49 41/54/47 39/50/45
f 41/57/47 43/58/50 287/59/51 42/60/48
f 46/61/52 43/58/50 41/57/47 44/62/49
f 182/63/43 45/64/53 44/62/49 37/65/44
f 48/66/54 46/61/52 44/62/49 45/64/53
f 43/58/50 46/61/52 47/67/55 290/68/56
f 48/66/54 49/69/57 47/67/55 46/61/52
f 49/69/57 48/66/54 50/70/58 52/71/59
f 50/70/58 48/66/54 45/64/53 51/72/60
f 54/73/61 53/74/62 50/70/58 51/72/60
f 55/75/63 52/71/59 50/70/58 53/74/62
f 54/73/61 58/76/64 56/77/65 53/74/62
f 56/77/65 57/78/66 55/75/63 53/74/62
f 62/79/67 57/78/66 56/77/65 59/80/68
f 61/81/69 59/80/68 56/77/65 58/76/64
f 60/82/70 64/83/71 62/79/67 59/80/68
f 59/80/68 61/81/69 192/84/72 60/82/70
f 57/78/66 62/79/67 63/85/73 303/86/74
f 66/87/75 63/85/73 62/79/67 64/83/71
f 67/88/76 66/87/75 64/83/71 65/89/77
f 98/90/78 65/89/77 64/83/71 60/82/70
f 66/87/75 67/88/76 71/91/79 68/92/80
f 66/87/75 68/92/80 69/93/81 63/85/73
f 68/92/80 70/94/82 69/93/81
f 70/94/82 68/92/80 71/91/79 72/95/83
f 71/91/79 73/96/84 76/97/85 72/95/83
f 67/88/76 75/98/86 73/96/84 71/91/79
f 75/98/86 91/99/87 74/100/88 73/96/84
f 74/100/88 78/101/89 76/97/85 73/96/84
f 79/102/90 77/103/91 76/104/85 78/105/89
f 76/104/85 77/103/91 165/106/92 72/107/83
f 82/108/93 80/109/94 78/101/89 74/100/88
f 81/110/95 79/102/90 78/105/89 80/111/94
f 80/111/94 83/112/96 84/113/97 81/110/95
f 80/109/94 82/108/93 86/114/98 83/115/96
f 83/115/96 85/116/99 163/117/100 84/118/97
f 85/116/99 83/115/96 86/114/98 87/119/101
f 89/120/102 87/119/101 86/114/98 82/108/93
f 161/121/103 85/116/99 87/119/101 88/122/104
f 87/119/101 89/120/102 90/123/105 88/122/104
f 91/99/87 92/124/106 90/123/105 89/120/102
f 89/120/102 82/108/93 74/100/88 91/99/87
f 91/99/87 75/98/86 94/125/107 92/124/106
f 93/126/108 92/124/106 94/125/107 95/127/109
f 93/126/108 88/122/104 90/123/105 92/124/106
f 67/88/76 65/89/77 94/125/107 75/98/86
f 97/128/110 95/127/109 94/125/107 96/129/111
f 98/90/78 96/129/111 94/125/107 65/89/77
f 96/130/111 99/131/112 102/132/113 97/133/110
f 98/134/78 100/135/114 99/131/112 96/130/111
f 100/135/114 191/136/115 101/137/116 99/131/112
f 102/132/113 99/131/112 101/137/116 103/138/117
f 106/139/118 97/133/110 102/132/113 104/140/119
f 105/141/120 104/140/119 102/132/113 103/138/117
f 104/140/119 105/141/120 110/142/121 107/143/122
f 107/144/122 108/145/123 106/146/118 104/147/119
f 109/148/124 153/149/125 108/145/123 107/144/122
f 107/143/122 110/142/121 111/150/126 109/151/124
f 105/141/120 113/152/127 112/153/128 110/142/121
f 111/150/126 110/142/121 112/153/128 115/154/129
f 112/153/128 113/152/127 280/155/130 114/156/131
f 116/157/132 115/158/129 112/159/128 114/160/131
f 116/157/132 120/161/133 117/162/134 115/158/129
f 117/162/134 118/163/135 111/164/126 115/158/129
f 119/165/136 147/166/137 118/163/135 117/162/134
f 122/167/138 119/165/136 117/162/134 120/161/133
f 282/168/139 121/169/140 120/161/133 116/157/132
f 124/170/141 122/167/138 120/161/133 121/169/140
f 122/167/138 123/171/142 144/172/143 119/165/136
f 124/170/141 125/173/144 123/171/142 122/167/138
f 126/174/145 127/175/146 125/176/144 124/177/141
f 121/178/140 128/179/147 126/174/145 124/177/141
f 129/180/148 132/181/149 127/175/146 126/174/145
f 131/182/150 129/180/148 126/174/145 128/179/147
f 132/181/149 129/180/148 130/183/151 133/184/152
f 129/180/148 131/182/150 209/185/153 130/183/151
f 132/186/149 133/187/152 136/188/154 134/189/155
f 132/186/149 134/189/155 137/190/156 127/191/146
f 135/192/157 138/193/158 137/190/156 134/189/155
f 134/189/155 136/188/154 257/194/159 135/192/157
f 137/195/156 139/196/160 125/197/144 127/198/146
f 140/199/161 139/196/160 137/195/156 138/200/158
f 139/196/160 140/199/161 18/22/22 141/201/162
f 139/196/160 141/201/162 123/202/142 125/197/144
f 142/203/163 141/201/162 18/22/22 20/24/24
f 141/201/162 142/203/163 144/204/143 123/202/142
f 179/26/26 143/205/164 142/203/163 20/24/24
f 142/206/163 143/207/164 145/208/165 144/172/143
f 119/165/136 144/172/143 145/208/165 147/166/137
f 143/207/164 177/209/166 146/210/167 145/208/165
f 147/166/137 145/208/165 146/210/167 148/211/168
f 148/211/168 150/212/169 118/163/135 147/166/137
f 148/211/168 146/210/167 172/213/170 149/214/171
f 151/215/172 150/212/169 148/211/168 149/214/171
f 150/212/169 109/216/124 111/164/126 118/163/135
f 150/212/169 151/215/172 153/217/125 109/216/124
f 149/214/171 171/218/173 152/219/174 151/215/172
f 152/219/174 154/220/175 153/217/125 151/215/172
f 154/221/175 155/222/176 108/145/123 153/149/125
f 154/221/175 156/223/177 158/224/178 155/222/176
f 156/223/177 154/221/175 152/225/174 157/226/179
f 156/223/177 157/226/179 165/106/92 77/103/91
f 77/103/91 79/102/90 158/224/178 156/223/177
f 161/227/103 160/228/180 158/224/178 159/229/181
f 81/110/95 159/229/181 158/224/178 79/102/90
f 162/230/182 155/222/176 158/224/178 160/228/180
f 88/122/104 93/126/108 160/231/180 161/121/103
f 93/126/108 95/127/109 162/232/182 160/231/180
f 95/233/109 97/234/110 106/146/118 162/230/182
f 155/222/176 162/230/182 106/146/118 108/145/123
f 161/227/103 159/229/181 163/235/100 85/236/99
f 81/110/95 84/113/97 163/235/100 159/229/181
f 164/237/183 157/226/179 152/225/174 171/238/173
f 165/106/92 157/226/179 164/237/183 166/239/184
f 70/240/82 72/107/83 165/106/92 166/239/184
f 166/239/184 167/241/185 69/242/81 70/240/82
f 167/243/185 166/244/184 164/245/183 168/246/186
f 167/241/185 63/247/73 69/242/81
f 168/248/186 169/249/187 63/247/73 167/241/185
f 169/250/187 168/246/186 170/251/188 173/252/189
f 170/251/188 168/246/186 164/245/183 171/218/173
f 149/214/171 172/213/170 170/251/188 171/218/173
f 175/253/190 173/252/189 170/251/188 172/213/170
f 285/254/191 169/250/187 173/252/189 174/255/192
f 176/256/193 174/255/192 173/252/189 175/253/190
f 175/253/190 177/209/166 178/257/40 176/256/193
f 177/209/166 175/253/190 172/213/170 146/210/167
f 177/209/166 143/207/164 179/258/26 178/257/40
f 180/259/194 178/260/40 179/261/26 181/262/195
f 182/48/43 32/40/38 178/44/40 180/263/194
f 40/53/46 176/256/193 178/257/40 33/51/35
f 180/259/194 181/262/195 54/73/61 51/72/60
f 180/259/194 51/72/60 45/64/53 182/63/43
f 183/264/196 181/265/195 179/266/26 21/267/25
f 181/262/195 183/268/196 58/76/64 54/73/61
f 183/264/196 21/267/25 186/269/197 184/270/198
f 184/271/198 61/81/69 58/76/64 183/268/196
f 184/270/198 185/272/199 192/273/72 61/274/69
f 186/269/197 188/275/200 185/272/199 184/270/198
f 186/269/197 187/276/201 189/277/202 188/275/200
f 187/276/201 186/269/197 21/267/25 284/12/12
f 188/275/200 190/278/203 192/273/72 185/272/199
f 190/278/203 188/275/200 189/277/202 193/279/204
f 190/278/203 193/279/204 195/280/205 191/136/115
f 191/136/115 100/135/114 192/273/72 190/278/203
f 195/280/205 193/279/204 194/281/206 197/282/207
f 189/277/202 218/283/208 194/281/206 193/279/204
f 101/137/116 191/136/115 195/280/205 196/284/209
f 199/285/210 196/284/209 195/280/205 197/282/207
f 198/286/211 197/282/207 194/281/206 219/287/212
f 197/282/207 198/286/211 201/288/213 199/285/210
f 196/284/209 199/285/210 200/289/214 283/290/215
f 199/285/210 201/288/213 202/291/216 200/289/214
f 202/291/216 201/288/213 203/292/217 205/293/218
f 198/286/211 206/294/219 203/292/217 201/288/213
f 208/295/220 204/296/221 203/292/217 206/294/219
f 203/292/217 204/296/221 274/297/222 205/293/218
f 210/298/223 208/299/220 206/300/219 207/301/224
f 219/287/212 207/302/224 206/294/219 198/286/211
f 204/303/221 208/299/220 209/304/153 263/305/225
f 208/299/220 210/298/223 130/306/151 209/304/153
f 211/307/226 212/308/227 130/306/151 210/298/223
f 211/307/226 210/298/223 207/301/224 214/309/228
f 211/307/226 213/310/229 229/311/230 212/308/227
f 211/312/226 214/313/228 215/314/231 213/315/229
f 216/316/232 217/317/233 215/314/231 214/313/228
f 207/302/224 219/287/212 216/316/232 214/313/228
f 220/318/234 217/317/233 216/316/232 218/283/208
f 194/281/206 218/283/208 216/316/232 219/287/212
f 220/318/234 218/283/208 189/277/202 187/276/201
f 221/10/10 217/317/233 220/318/234 7/11/11
f 284/12/12 7/11/11 220/318/234 187/276/201
f 221/10/10 222/319/235 215/314/231 217/317/233
f 221/10/10 6/9/9 223/320/236 222/319/235
f 223/321/236 225/322/237 224/323/238 222/324/235
f 215/314/231 222/319/235 224/325/238 213/315/229
f 227/326/239 226/327/240 224/323/238 225/322/237
f 224/323/238 226/327/240 229/311/230 213/310/229
f 227/326/239 244/328/241 228/329/242 226/327/240
f 229/311/230 226/327/240 228/329/242 230/330/243
f 232/331/244 212/308/227 229/311/230 230/330/243
f 232/331/244 230/330/243 231/332/245 233/333/246
f 231/332/245 230/330/243 228/329/242 245/334/247
f 232/331/244 233/333/246 130/306/151 212/308/227
f 234/335/248 133/184/152 130/183/151 233/336/246
f 234/335/248 233/336/246 231/337/245 236/338/249
f 133/187/152 234/339/248 235/340/250 136/188/154
f 234/339/248 236/341/249 238/342/251 235/340/250
f 237/343/252 239/344/253 238/345/251 236/346/249
f 237/343/252 236/346/249 231/347/245 249/348/254
f 238/345/251 239/344/253 241/349/255 240/350/256
f 242/351/257 235/340/250 238/342/251 240/352/256
f 243/353/258 240/350/256 241/349/255 246/354/259
f 242/355/257 240/350/256 243/353/258 244/356/241
f 228/329/242 244/328/241 243/357/258 245/334/247
f 248/358/260 245/334/247 243/357/258 246/359/259
f 247/360/261 246/359/259 241/361/255 254/362/262
f 247/360/261 250/363/263 248/358/260 246/359/259
f 249/348/254 231/347/245 245/364/247 248/365/260
f 251/366/264 249/367/254 248/358/260 250/363/263
f 250/363/263 247/360/261 252/368/265 251/366/264
f 237/369/252 249/367/254 251/366/264 252/368/265
f 237/343/252 252/370/265 253/371/266 239/344/253
f 253/371/266 252/370/265 254/372/262
f 252/370/265 247/373/261 255/374/267
f 252/370/265 256/375/268 254/372/262
f 252/370/265 255/374/267 256/375/268
f 255/374/267 247/373/261 254/372/262 256/375/268
f 241/349/255 239/344/253 253/371/266 254/372/262
f 244/328/241 227/326/239 257/194/159 242/351/257
f 235/340/250 242/351/257 257/194/159 136/188/154
f 225/322/237 258/376/269 257/194/159 227/326/239
f 259/377/270 135/192/157 257/194/159 258/376/269
f 225/322/237 223/321/236 260/378/271 258/376/269
f 258/376/269 260/378/271 261/379/272 259/377/270
f 6/9/9 4/4/4 260/380/271 223/320/236
f 4/4/4 262/3/3 261/381/272 260/380/271
f 262/3/3 140/199/161 138/200/158 261/381/272
f 259/377/270 261/379/272 138/193/158 135/192/157
f 262/3/3 2/2/2 18/22/22 140/199/161
f 209/382/153 264/383/273 265/384/274 263/385/225
f 267/386/275 264/387/273 209/185/153 131/182/150
f 266/388/276 278/389/277 265/384/274 264/383/273
f 264/383/273 267/390/275 269/391/278 266/388/276
f 267/386/275 131/182/150 128/179/147 268/392/279
f 269/393/278 267/386/275 268/392/279 270/394/280
f 273/395/281 266/388/276 269/391/278 271/396/282
f 272/397/283 271/398/282 269/393/278 270/394/280
f 272/399/283 205/293/218 274/297/222 271/396/282
f 274/297/222 275/400/284 273/395/281 271/396/282
f 263/385/225 275/400/284 274/297/222 204/296/221
f 275/400/284 263/385/225 265/384/274 276/401/285
f 276/401/285 277/402/286 273/395/281 275/400/284
f 277/402/286 276/401/285 265/384/274 278/389/277
f 278/389/277 266/388/276 273/395/281 277/402/286
f 272/397/283 279/403/287 202/404/216 205/405/218
f 270/394/280 281/406/288 279/403/287 272/397/283
f 280/155/130 200/289/214 202/291/216 279/407/287
f 281/408/288 114/160/131 280/409/130 279/410/287
f 281/408/288 282/168/139 116/157/132 114/160/131
f 281/406/288 270/394/280 268/392/279 282/411/139
f 282/411/139 268/392/279 128/179/147 121/178/140
f 283/290/215 200/289/214 280/155/130 113/152/127
f 283/290/215 103/138/117 101/137/116 196/284/209
f 103/138/117 283/290/215 113/152/127 105/141/120
f 98/90/78 60/82/70 192/84/72 100/412/114
f 8/13/13 284/12/12 21/267/25 28/34/30
f 40/53/46 42/55/48 174/255/192 176/256/193
f 287/413/51 285/254/191 174/255/192 42/55/48
f 285/254/191 286/414/289 63/415/73 169/250/187
f 286/414/289 285/254/191 287/413/51 288/416/290
f 290/417/56 288/416/290 287/413/51 43/418/50
f 286/414/289 288/416/290 289/419/291 304/420/292
f 290/417/56 291/421/293 289/419/291 288/416/290
f 291/421/293 290/417/56 47/422/55 292/423/294
f 292/423/294 295/424/295 293/425/296 291/421/293
f 289/426/291 291/427/293 293/428/296 294/429/297
f 293/428/296 52/71/59 55/75/63 294/429/297
f 49/69/57 52/71/59 293/428/296 295/430/295
f 295/430/295 296/431/298 47/67/55 49/69/57
f 292/423/294 297/432/299 296/433/298 295/424/295
f 296/434/298 297/435/299 300/436/300 298/437/301
f 298/438/301 299/439/302 47/422/55 296/440/298
f 299/439/302 298/438/301 301/441/303 302/442/304
f 302/442/304 301/441/303 298/438/301 300/443/300
f 299/444/302 302/445/304 300/436/300 297/435/299
f 297/432/299 292/423/294 47/422/55 299/439/302
f 303/86/74 294/429/297 55/75/63 57/78/66
f 303/446/74 304/420/292 289/419/291 294/447/297
f 304/420/292 303/446/74 63/415/73 286/414/289
f 35/46/41 30/52/34 28/448/30 24/449/29
