# Blender 5.2.0 LTS
# www.blender.org
mtllib terrain-abyss-chancel-object-080.mtl
o terrain-abyss-chancel-object-080
v -0.050261 0.634297 0.044245
v -0.048603 0.637538 0.043517
v -0.047978 0.633724 0.043761
v -0.052255 0.634668 0.040961
v -0.047877 0.633155 0.040403
v -0.052921 0.634558 0.037013
v -0.049160 0.638394 0.040429
v -0.044989 0.636523 0.040384
v -0.049732 0.639106 0.036890
v -0.049667 0.639626 0.032940
v -0.044146 0.637115 0.036527
v -0.043973 0.637109 0.032772
v -0.047657 0.632819 0.036407
v -0.048127 0.632775 0.032640
v -0.053877 0.635013 0.032789
v -0.048113 0.633163 0.028898
v -0.047969 0.633680 0.025212
v -0.053815 0.635376 0.028711
v -0.043864 0.637219 0.029051
v -0.049546 0.639590 0.028932
v -0.044159 0.637214 0.025294
v -0.049180 0.639257 0.025256
v -0.044919 0.636852 0.021720
v -0.047886 0.634158 0.021839
v -0.047007 0.636112 0.017928
v -0.048862 0.638760 0.021480
v -0.048589 0.637860 0.018080
v -0.052441 0.635946 0.021240
v -0.050045 0.636799 0.016762
v -0.053243 0.635725 0.024867
v -0.048087 0.635043 0.018698
v -0.046872 0.635589 0.044682
vn -0.9129 -0.2527 0.3207
vn -0.6252 -0.3051 0.7183
vn -0.1099 0.7594 0.6413
vn -0.2128 0.9252 0.3143
vn 0.2197 -0.7737 0.5943
vn 0.5692 0.0672 0.8194
vn 0.2741 -0.9532 0.1273
vn -0.9311 -0.3204 0.1743
vn 0.2863 -0.9573 0.0393
vn -0.2762 0.9440 0.1802
vn 0.9420 0.1989 0.2703
vn 0.9587 0.2558 0.1242
vn -0.2191 0.9724 0.0801
vn -0.9735 -0.2259 0.0365
vn 0.9799 0.1993 0.0133
vn 0.2007 -0.9788 -0.0417
vn 0.1947 -0.9759 -0.0980
vn 0.9807 0.1884 -0.0518
vn -0.9720 -0.1910 -0.1366
vn 0.1960 -0.9729 -0.1226
vn 0.9723 0.1889 -0.1374
vn -0.9605 -0.1579 -0.2290
vn -0.1958 0.9803 -0.0258
vn -0.1504 0.9827 -0.1078
vn -0.0770 0.9722 -0.2211
vn 0.9499 0.1176 -0.2894
vn 0.1875 -0.9604 -0.2063
vn 0.1991 -0.8287 -0.5232
vn 0.7152 -0.0158 -0.6988
vn 0.0624 0.7690 -0.6362
vn -0.9248 -0.1406 -0.3536
vn -0.4807 -0.0472 -0.8756
vt 0.987944 0.970751
vt 0.987585 0.969175
vt 0.990472 0.969416
vt 0.990490 0.971036
vt 0.333598 0.955495
vt 0.332991 0.954440
vt 0.334167 0.954141
vt 0.336331 0.954160
vt 0.985495 0.970812
vt 0.985839 0.969223
vt 0.987839 0.972571
vt 0.984910 0.972653
vt 0.990738 0.972749
vt 0.337087 0.952721
vt 0.334535 0.952149
vt 0.334895 0.950451
vt 0.337849 0.951042
vt 0.990699 0.974696
vt 0.987824 0.974635
vt 0.334868 0.948703
vt 0.337737 0.949037
vt 0.332152 0.950432
vt 0.332062 0.948541
vt 0.332020 0.952330
vt 0.984955 0.974440
vt 0.332148 0.946710
vt 0.335032 0.946962
vt 0.985019 0.976371
vt 0.987953 0.976526
vt 0.332622 0.944983
vt 0.335193 0.945265
vt 0.988057 0.978297
vt 0.985173 0.978245
vt 0.338076 0.947122
vt 0.337816 0.945322
vt 0.337629 0.943438
vt 0.335079 0.943682
vt 0.332729 0.943371
vt 0.333732 0.941975
vt 0.335249 0.941858
vt 0.336857 0.941833
vt 0.987995 0.979986
vt 0.990503 0.980296
vt 0.989630 0.981872
vt 0.987776 0.982102
vt 0.990819 0.978533
vt 0.985075 0.979879
vt 0.985529 0.981374
vt 0.990837 0.976710
vt 0.335884 0.940607
s 1
usemtl abyss_chancel_background_pbr
f 4/1/1 1/2/2 2/3/3 7/4/4
f 1/5/2 3/6/5 32/7/6 2/8/3
f 4/1/1 5/9/7 3/10/5 1/2/2
f 5/9/7 4/1/1 6/11/8 13/12/9
f 7/4/4 9/13/10 6/11/8 4/1/1
f 7/14/4 2/8/3 32/7/6 8/15/11
f 7/14/4 8/15/11 11/16/12 9/17/10
f 6/11/8 9/13/10 10/18/13 15/19/14
f 11/16/12 12/20/15 10/21/13 9/17/10
f 12/20/15 11/16/12 13/22/9 14/23/16
f 8/15/11 5/24/7 13/22/9 11/16/12
f 14/25/16 13/12/9 6/11/8 15/19/14
f 14/23/16 16/26/17 19/27/18 12/20/15
f 16/28/17 14/25/16 15/19/14 18/29/19
f 19/27/18 16/26/17 17/30/20 21/31/21
f 18/29/19 30/32/22 17/33/20 16/28/17
f 10/21/13 12/20/15 19/27/18 20/34/23
f 22/35/24 20/34/23 19/27/18 21/31/21
f 26/36/25 22/35/24 21/31/21 23/37/26
f 23/37/26 21/31/21 17/30/20 24/38/27
f 24/38/27 31/39/28 25/40/29 23/37/26
f 26/36/25 23/37/26 25/40/29 27/41/30
f 28/42/31 26/43/25 27/44/30 29/45/32
f 22/46/24 26/43/25 28/42/31 30/32/22
f 24/47/27 28/42/31 29/45/32 31/48/28
f 17/33/20 30/32/22 28/42/31 24/47/27
f 30/32/22 18/29/19 20/49/23 22/46/24
f 29/50/32 27/41/30 25/40/29 31/39/28
f 18/29/19 15/19/14 10/18/13 20/49/23
f 5/24/7 8/15/11 32/7/6 3/6/5
