# Blender 5.2.0 LTS
# www.blender.org
mtllib terrain-abyss-chancel-object-109.mtl
o terrain-abyss-chancel-object-109
v 0.550592 0.745913 -0.021109
v 0.552818 0.745641 -0.019863
v 0.545280 0.744381 -0.013932
v 0.551781 0.742738 -0.021449
v 0.554199 0.747694 -0.028243
v 0.555776 0.745857 -0.028364
v 0.558706 0.752644 -0.036216
v 0.555878 0.748156 -0.027122
v 0.560161 0.753062 -0.035126
v 0.557261 0.746354 -0.027289
v 0.554294 0.743677 -0.019728
v 0.561463 0.751883 -0.035390
v 0.567072 0.763982 -0.042892
v 0.560112 0.751534 -0.036505
v 0.566111 0.763411 -0.045846
v 0.563024 0.764442 -0.044582
v 0.568326 0.783485 -0.047968
v 0.569753 0.783317 -0.043593
v 0.570214 0.802165 -0.048122
v 0.563592 0.783608 -0.046838
v 0.563190 0.802375 -0.046454
v 0.564904 0.783382 -0.042011
v 0.564620 0.801821 -0.039497
v 0.564504 0.764598 -0.042557
v 0.564849 0.816148 -0.038537
v 0.571635 0.801660 -0.040832
v 0.572449 0.815989 -0.039705
v 0.570969 0.824034 -0.039985
v 0.571006 0.816526 -0.047178
v 0.570548 0.824626 -0.045113
v 0.563651 0.816576 -0.045797
v 0.565961 0.826373 -0.043443
v 0.566055 0.824811 -0.039745
v 0.551435 0.742712 -0.013935
v 0.546876 0.740362 -0.013554
v 0.552320 0.744769 -0.008406
v 0.538719 0.741650 -0.002319
v 0.546568 0.738225 -0.007634
v 0.544551 0.732148 -0.005157
v 0.542372 0.738882 -0.001687
v 0.539755 0.734857 0.001076
v 0.540603 0.726374 0.003399
v 0.535071 0.740662 0.001258
v 0.536537 0.732925 0.008865
v 0.537726 0.726869 0.008959
v 0.537410 0.726677 0.016281
v 0.535299 0.741216 0.005983
v 0.534786 0.731699 0.015294
v 0.539379 0.732098 0.016724
v 0.535742 0.742156 0.011629
v 0.542244 0.739165 0.017354
v 0.546296 0.742077 0.021516
v 0.539011 0.742066 0.016780
v 0.541807 0.737753 0.020547
v 0.535963 0.737568 0.017266
v 0.546906 0.741773 0.025357
v 0.543276 0.742820 0.020904
v 0.548686 0.745017 0.026278
v 0.552020 0.745138 0.027054
v 0.555252 0.750669 0.033397
v 0.559192 0.751283 0.033921
v 0.561049 0.759677 0.038788
v 0.552106 0.745837 0.030889
v 0.560136 0.753709 0.038476
v 0.565618 0.770514 0.045601
v 0.564140 0.777798 0.041651
v 0.567315 0.790111 0.046790
v 0.566699 0.764950 0.040371
v 0.570252 0.783982 0.041008
v 0.572079 0.800712 0.039597
v 0.568693 0.800682 0.046965
v 0.563888 0.796133 0.039963
v 0.562861 0.804714 0.038837
v 0.534786 0.731699 0.015294
v 0.527943 0.736985 0.014888
v 0.529973 0.730919 0.012251
v 0.522459 0.739127 0.016904
v 0.520301 0.735935 0.012318
v 0.522090 0.731470 0.008719
v 0.518228 0.738000 0.015270
v 0.516592 0.737614 0.008929
v 0.514807 0.740558 0.005078
v 0.518011 0.740149 0.011040
v 0.517280 0.732749 0.002824
v 0.519030 0.731322 0.006856
v 0.516692 0.728282 0.003719
v 0.519947 0.724029 0.002980
v 0.522849 0.712836 0.005396
v 0.519780 0.732969 -0.000859
v 0.531179 0.723257 0.012492
v 0.521947 0.722659 -0.005737
v 0.534053 0.725764 -0.007619
v 0.524513 0.713708 -0.003290
v 0.520535 0.731123 -0.005806
v 0.529428 0.733910 -0.008137
v 0.519744 0.738441 -0.004314
v 0.528123 0.740346 -0.004735
v 0.529927 0.743751 -0.000928
v 0.520643 0.741272 0.000913
v 0.532046 0.748138 0.003183
v 0.530890 0.748940 0.009513
v 0.530943 0.755854 0.003590
v 0.525110 0.749030 0.002507
v 0.527033 0.755724 0.002743
v 0.524189 0.747678 0.007604
v 0.522679 0.743188 0.014167
v 0.519078 0.741706 0.005584
v 0.525980 0.755923 0.006345
v 0.529656 0.756125 0.007794
v 0.526492 0.768279 0.005688
v 0.529623 0.768330 0.006903
v 0.527206 0.768203 0.002586
v 0.525868 0.786717 0.005304
v 0.526765 0.786658 0.002027
v 0.523707 0.805718 0.006688
v 0.529333 0.786865 0.006569
v 0.529710 0.786794 0.002959
v 0.530160 0.805738 0.007205
v 0.531689 0.820207 0.008469
v 0.530786 0.805849 0.000501
v 0.525519 0.806360 -0.000207
v 0.531211 0.819129 -0.002145
v 0.532490 0.836358 -0.001359
v 0.525410 0.825810 -0.002438
v 0.524028 0.837558 -0.002036
v 0.522491 0.821690 0.007752
v 0.522032 0.837485 0.008479
v 0.532247 0.837156 0.008336
v 0.524097 0.852789 0.007973
v 0.527381 0.863297 0.006330
v 0.523316 0.851475 -0.001310
v 0.533237 0.851481 0.006997
v 0.531860 0.850306 -0.001576
v 0.533205 0.861660 0.004291
v 0.533355 0.865450 0.001656
v 0.532211 0.860864 -0.001486
v 0.532498 0.865598 -0.001551
v 0.526964 0.862248 -0.000238
v 0.529527 0.866305 0.000101
v 0.530723 0.866811 0.004277
v 0.530057 0.768232 0.003639
v 0.514973 0.741122 0.018209
v 0.511122 0.738598 0.000891
v 0.537206 0.739144 -0.008022
v 0.540654 0.734301 -0.009252
v 0.524429 0.691210 -0.000688
v 0.533030 0.714386 -0.006350
v 0.539138 0.716292 -0.001634
v 0.531597 0.695131 -0.005516
v 0.529924 0.668411 -0.001599
v 0.537339 0.698425 0.000165
v 0.538027 0.702328 0.006905
v 0.535580 0.671788 0.001837
v 0.536445 0.648817 -0.001592
v 0.537096 0.675696 0.007319
v 0.538058 0.652403 0.007067
v 0.534046 0.679602 0.012754
v 0.534942 0.706984 0.011820
v 0.533744 0.656392 0.013312
v 0.527865 0.683738 0.012436
v 0.528316 0.710190 0.013416
v 0.522997 0.687534 0.006930
v 0.525902 0.659675 0.012763
v 0.521884 0.645252 0.016286
v 0.522991 0.662504 0.007660
v 0.524410 0.665371 0.001039
v 0.516448 0.644361 0.008178
v 0.508685 0.636933 0.009389
v 0.518610 0.644823 -0.002254
v 0.509846 0.636557 -0.005700
v 0.528093 0.645545 -0.007354
v 0.518955 0.636354 -0.016485
v 0.535361 0.637931 -0.012392
v 0.528562 0.635609 -0.020977
v 0.543643 0.632307 -0.014613
v 0.540027 0.638966 -0.004471
v 0.540818 0.640840 0.004655
v 0.546418 0.633195 -0.005744
v 0.549004 0.626294 -0.004905
v 0.546780 0.634272 0.003537
v 0.544322 0.635436 0.013173
v 0.550020 0.627084 0.003691
v 0.553946 0.620471 0.004299
v 0.549248 0.628033 0.011670
v 0.545786 0.628562 0.021131
v 0.553566 0.621472 0.011810
v 0.557922 0.614199 0.013068
v 0.550250 0.621024 0.016825
v 0.555398 0.615954 0.018360
v 0.545327 0.617715 0.018006
v 0.554272 0.610283 0.015315
v 0.544506 0.612258 0.009600
v 0.534808 0.616901 0.020382
v 0.541847 0.624908 0.024299
v 0.534149 0.623058 0.027015
v 0.538812 0.627960 0.032233
v 0.541950 0.634000 0.031926
v 0.531753 0.628443 0.035944
v 0.532760 0.634466 0.033743
v 0.518645 0.628265 0.035498
v 0.520538 0.634556 0.033239
v 0.521755 0.621847 0.028600
v 0.504143 0.626940 0.028048
v 0.496673 0.626736 0.011609
v 0.509426 0.619014 0.028595
v 0.494264 0.619572 0.024516
v 0.508664 0.634937 0.025228
v 0.500557 0.632992 0.010319
v 0.514563 0.637600 0.021240
v 0.527153 0.636830 0.025251
v 0.538194 0.634622 0.024113
v 0.535535 0.643681 0.015758
v 0.500633 0.630759 -0.009144
v 0.504845 0.622627 -0.012104
v 0.493928 0.624995 -0.003143
v 0.512676 0.633890 -0.022017
v 0.524831 0.634275 -0.026740
v 0.516231 0.625639 -0.022160
v 0.526064 0.619047 -0.015456
v 0.524700 0.627653 -0.025540
v 0.534222 0.624332 -0.022350
v 0.541750 0.616889 -0.021893
v 0.533158 0.630811 -0.026533
v 0.541429 0.625133 -0.019593
v 0.537798 0.631021 -0.022382
v 0.546312 0.626074 -0.013519
v 0.546455 0.619330 -0.020561
v 0.549774 0.612075 -0.020464
v 0.550484 0.619609 -0.013445
v 0.553225 0.612881 -0.013269
v 0.552625 0.619716 -0.004392
v 0.555081 0.612681 -0.004286
v 0.555361 0.607475 -0.003845
v 0.557129 0.613598 0.004887
v 0.558584 0.608587 0.005065
v 0.559696 0.610583 0.012057
v 0.553444 0.609033 0.007359
v 0.550670 0.608881 -0.001770
v 0.548375 0.608714 -0.010624
v 0.543248 0.611479 0.000144
v 0.541250 0.611801 -0.008787
v 0.531207 0.612857 0.002732
v 0.528495 0.613663 -0.006212
v 0.516993 0.612830 0.006543
v 0.532959 0.612952 0.011844
v 0.519826 0.612863 0.014836
v 0.507340 0.612750 0.017237
v 0.522498 0.615570 0.023028
v 0.510205 0.613227 0.024495
v 0.499556 0.612239 0.026756
v 0.490744 0.607010 0.032756
v 0.500289 0.614205 0.030457
v 0.497442 0.611796 0.019164
v 0.495420 0.611390 0.010575
v 0.491180 0.607509 0.021146
v 0.490109 0.611097 0.022282
v 0.490550 0.607572 0.011358
v 0.489579 0.607395 0.001255
v 0.488950 0.611414 0.011633
v 0.486685 0.610410 0.000869
v 0.491360 0.618982 0.011792
v 0.488884 0.618501 -0.000717
v 0.491420 0.615360 -0.007702
v 0.487214 0.607761 -0.008197
v 0.494795 0.611436 -0.005532
v 0.497075 0.620077 -0.008550
v 0.500869 0.614668 -0.005872
v 0.502917 0.612370 0.000687
v 0.510814 0.617207 -0.009259
v 0.514418 0.613326 -0.002033
v 0.494551 0.611286 0.001558
v 0.504731 0.612482 0.009119
v 0.491333 0.607460 -0.006630
v 0.495260 0.607298 0.029996
v 0.540134 0.613722 -0.016488
v 0.545313 0.609413 -0.017757
v 0.543676 0.611935 -0.022263
v 0.549006 0.607089 -0.017564
v 0.553547 0.607746 -0.012632
v 0.537377 0.721279 0.010262
v 0.540792 0.718941 0.005806
v 0.541666 0.723910 -0.003309
v 0.536817 0.726165 0.013086
v 0.536742 0.726355 0.016199
vn -0.7489 0.5670 -0.3432
vn 0.4435 0.8395 0.3140
vn 0.2156 0.8503 0.4801
vn -0.8707 0.3587 -0.3366
vn -0.6314 0.6248 -0.4594
vn 0.7186 0.5507 0.4246
vn -0.2181 -0.8732 -0.4359
vn 0.0076 -0.7627 -0.6467
vn -0.1218 -0.8410 -0.5272
vn -0.9210 0.1736 -0.3486
vn 0.0721 -0.7437 -0.6646
vn -0.0306 0.7023 0.7112
vn 0.9088 -0.3465 0.2325
vn 0.9139 -0.2788 0.2951
vn 0.8557 -0.4876 0.1732
vn 0.9137 -0.1808 0.3638
vn -0.3148 0.3314 0.8894
vn 0.3558 -0.4120 -0.8388
vn -0.8932 -0.0046 -0.4496
vn -0.8611 -0.0253 -0.5079
vn 0.4790 -0.0987 -0.8723
vn 0.8761 -0.1400 0.4614
vn 0.5353 -0.0147 -0.8445
vn 0.8300 -0.1229 0.5440
vn -0.8411 0.0208 -0.5405
vn -0.4918 -0.0561 0.8689
vn -0.5482 -0.0868 0.8319
vn 0.8137 0.0316 0.5804
vn -0.5819 0.0651 0.8107
vn -0.8126 0.1680 -0.5580
vn 0.5592 0.1434 -0.8166
vn 0.5146 0.6285 -0.5833
vn 0.6612 0.5084 0.5517
vn -0.4239 0.6131 0.6667
vn -0.4473 0.8489 -0.2815
vn 0.7766 -0.6261 0.0695
vn 0.8323 -0.5007 0.2379
vn -0.3283 0.5172 -0.7904
vn 0.2039 0.9256 0.3189
vn 0.6376 0.1156 0.7616
vn 0.9293 -0.3603 -0.0813
vn 0.1336 -0.3639 -0.9218
vn 0.8265 0.2235 0.5167
vn 0.7075 0.7066 0.0135
vn 0.8933 -0.2490 -0.3742
vn 0.9365 0.0441 0.3480
vn 0.9048 0.0450 0.4235
vn 0.9634 0.1978 0.1808
vn 0.9238 0.3828 -0.0031
vn 0.8340 -0.2327 0.5003
vn 0.6909 -0.2656 0.6724
vn 0.6788 -0.4124 0.6076
vn 0.9150 0.1122 -0.3876
vn 0.7326 0.5925 0.3351
vn 0.7043 -0.0721 -0.7063
vn 0.1309 -0.6296 0.7658
vn 0.0055 1.0000 -0.0050
vn 0.7716 0.0178 -0.6359
vn -0.3358 0.9415 0.0285
vn -0.1833 -0.7093 0.6806
vn -0.4788 0.1369 0.8672
vn -0.3916 -0.1882 0.9007
vn -0.5279 0.8491 -0.0194
vn 0.7306 -0.1344 -0.6694
vn -0.2588 -0.6047 0.7533
vn -0.7001 0.7134 -0.0316
vn 0.6982 -0.3444 -0.6276
vn -0.8454 0.4436 -0.2975
vn 0.8289 -0.3181 -0.4601
vn 0.0180 -0.4388 0.8984
vn 0.0305 -0.1551 0.9874
vn -0.8724 0.0964 -0.4791
vn -0.0059 -0.0592 0.9982
vn -0.8677 -0.0628 -0.4931
vn 0.8576 -0.1710 -0.4850
vn 0.8126 0.3748 -0.4463
vn 0.1279 0.4281 0.8946
vn -0.5861 0.7172 -0.3771
vn -0.1263 -0.1386 0.9823
vn -0.4087 -0.3458 0.8446
vn -0.4850 -0.4543 0.7473
vn -0.4781 -0.6366 0.6051
vn 0.1360 -0.2519 0.9582
vn -0.2546 0.6391 0.7257
vn -0.6709 -0.1934 0.7159
vn -0.8616 -0.1124 0.4950
vn -0.6815 -0.4142 0.6033
vn -0.9023 0.4050 0.1475
vn -0.7687 0.5832 0.2628
vn -0.9169 0.1227 -0.3797
vn -0.8987 -0.2913 -0.3278
vn -0.6293 0.7760 0.0432
vn -0.9030 -0.4268 0.0489
vn -0.9368 -0.2573 0.2371
vn -0.8711 0.0781 -0.4849
vn -0.7311 -0.1764 -0.6591
vn -0.9550 -0.0366 0.2944
vn -0.6751 -0.2171 -0.7051
vn -0.3384 0.0382 0.9402
vn -0.2401 -0.1701 0.9557
vn -0.7577 0.1063 -0.6439
vn -0.1720 0.1946 -0.9657
vn 0.1226 -0.2037 -0.9713
vn 0.1821 -0.1663 -0.9691
vn -0.7395 0.6345 -0.2250
vn -0.3110 0.6531 -0.6905
vn 0.1155 0.7088 -0.6959
vn -0.4985 0.5666 -0.6561
vn -0.5588 0.4312 -0.7084
vn 0.7206 0.4286 -0.5451
vn 0.4555 0.1819 0.8715
vn 0.4911 0.5403 0.6833
vn 0.8350 0.0939 -0.5421
vn -0.4959 0.0979 -0.8629
vn -0.6770 0.6111 0.4101
vn -0.8673 0.1722 0.4670
vn 0.5002 0.0551 0.8641
vn -0.8885 0.0201 0.4585
vn -0.4817 -0.0134 -0.8762
vn 0.5618 -0.0300 0.8267
vn -0.8701 -0.0625 0.4888
vn -0.5032 -0.0953 -0.8589
vn -0.8322 -0.1030 0.5449
vn -0.5767 -0.1282 -0.8068
vn 0.6349 -0.0918 0.7671
vn 0.7636 -0.1306 -0.6323
vn 0.8282 -0.0563 -0.5576
vn 0.8535 0.0147 -0.5209
vn -0.8105 -0.0730 0.5812
vn 0.6805 -0.0793 0.7285
vn 0.6805 -0.1148 -0.7237
vn -0.5516 -0.0319 -0.8335
vn 0.7109 -0.0101 0.7033
vn 0.7357 -0.0045 -0.6773
vn -0.6340 0.0153 -0.7732
vn -0.7606 0.0106 0.6491
vn -0.6483 0.2242 0.7276
vn 0.7787 0.0595 0.6245
vn -0.7301 0.1454 -0.6677
vn -0.7202 0.3618 -0.5919
vn -0.4621 0.5299 0.7111
vn 0.8470 0.1093 0.5203
vn 0.6458 0.0136 -0.7634
vn 0.5686 0.0191 -0.8224
vn 0.8486 0.5143 0.1237
vn 0.0131 0.8566 0.5159
vn 0.4732 0.4753 -0.7417
vn -0.3905 0.7890 -0.4744
vn -0.5483 0.5953 0.5874
vn -0.8029 -0.0478 -0.5942
vn -0.9730 0.0059 0.2308
vn 0.1306 -0.1098 -0.9853
vn 0.8717 -0.1780 -0.4565
vn 0.8851 -0.1061 -0.4532
vn 0.8518 -0.0000 -0.5239
vn 0.0432 0.0636 -0.9970
vn -0.8108 0.1458 -0.5668
vn 0.9816 -0.0080 0.1910
vn 0.9677 -0.0773 0.2401
vn 0.9526 -0.0652 0.2970
vn 0.7691 0.3191 -0.5538
vn 0.0008 0.6109 -0.7917
vn 0.9793 0.1449 0.1410
vn 0.5002 0.1244 0.8570
vn 0.4853 0.0046 0.8743
vn 0.5192 -0.0257 0.8543
vn -0.4151 0.0210 0.9095
vn -0.4394 0.1817 0.8797
vn -0.9520 0.1894 0.2404
vn -0.3715 0.5939 0.7137
vn 0.5185 0.5336 0.6681
vn -0.7893 0.5954 0.1501
vn -0.6815 0.6080 -0.4074
vn -0.2961 0.8957 0.3316
vn -0.5364 0.8422 0.0537
vn -0.4851 0.8496 -0.2070
vn -0.2099 0.9034 -0.3740
vn 0.1797 0.8745 -0.4504
vn 0.3628 0.7725 -0.5211
vn 0.6582 0.6597 -0.3629
vn 0.6958 0.5430 -0.4701
vn 0.5718 0.3815 -0.7263
vn 0.7952 0.5584 -0.2364
vn 0.8480 0.5297 0.0161
vn 0.8201 0.5719 -0.0161
vn 0.8120 0.4041 -0.4212
vn 0.8843 0.4215 -0.2009
vn 0.8819 0.4692 -0.0468
vn 0.7297 0.6230 0.2818
vn 0.8438 0.4940 0.2097
vn 0.8818 0.4583 -0.1113
vn 0.8866 0.4168 -0.2004
vn 0.8381 0.5233 0.1539
vn 0.4365 0.8579 0.2713
vn 0.8129 0.2571 0.5225
vn 0.6377 0.1940 0.7455
vn 0.9195 0.2512 0.3023
vn 0.9235 0.3352 -0.1868
vn 0.4991 0.1640 0.8509
vn 0.1561 -0.6227 0.7667
vn 0.0997 -0.7221 0.6846
vn 0.5414 -0.5248 0.6569
vn -0.1700 -0.9639 0.2047
vn -0.1863 -0.9448 0.2694
vn 0.0408 -0.9741 0.2222
vn 0.1869 -0.7931 0.5797
vn 0.2239 -0.7365 0.6383
vn 0.5039 -0.4660 0.7272
vn 0.1622 -0.3014 0.9396
vn 0.7086 0.4908 0.5069
vn 0.2074 0.7036 0.6797
vn -0.2117 -0.0952 0.9727
vn 0.0716 -0.6619 0.7461
vn -0.1587 0.7270 0.6680
vn -0.4835 0.7624 0.4300
vn -0.5503 0.3537 0.7563
vn 0.0124 -0.4258 0.9047
vn -0.6441 0.7585 0.0994
vn -0.7616 0.6256 0.1693
vn -0.8591 0.4838 0.1667
vn -0.7091 0.4598 0.5347
vn -0.1292 -0.2954 0.9466
vn 0.0859 0.8904 0.4470
vn -0.6867 0.5489 -0.4766
vn -0.7812 0.5396 -0.3141
vn -0.3616 -0.4871 -0.7949
vn -0.4531 -0.3804 -0.8062
vn -0.5245 0.4891 -0.6969
vn -0.4109 -0.0549 -0.9100
vn -0.0588 0.5050 -0.8611
vn -0.1273 -0.4774 -0.8694
vn -0.1964 -0.8081 -0.5554
vn -0.1206 -0.8112 -0.5723
vn 0.0752 -0.4416 -0.8941
vn 0.3484 0.2067 -0.9143
vn 0.5419 0.3565 -0.7611
vn -0.1467 -0.1974 -0.9693
vn 0.5792 0.2322 -0.7814
vn -0.5118 -0.7743 -0.3721
vn 0.8299 0.4327 -0.3523
vn -0.3105 -0.4292 -0.8482
vn 0.5857 -0.1410 -0.7982
vn 0.9236 0.1336 -0.3594
vn 0.9494 0.2168 -0.2274
vn 0.6163 -0.7762 -0.1331
vn 0.6171 -0.7527 -0.2293
vn 0.7698 -0.6340 -0.0733
vn 0.8593 -0.4488 0.2455
vn -0.2512 -0.9638 0.0891
vn -0.2215 -0.9735 0.0572
vn -0.3421 -0.9363 0.0795
vn -0.3271 -0.9421 -0.0734
vn -0.1370 -0.9626 -0.2339
vn -0.0554 -0.9984 -0.0084
vn -0.0101 -0.9680 -0.2506
vn 0.0162 -0.9996 -0.0221
vn 0.0698 -0.9894 0.1277
vn 0.1621 -0.8296 0.5343
vn 0.0854 -0.9952 0.0483
vn 0.0756 -0.9971 -0.0048
vn 0.1921 -0.8801 0.4342
vn 0.3877 -0.9213 0.0295
vn 0.3376 -0.9411 -0.0206
vn 0.0965 -0.9923 0.0774
vn -0.3077 -0.9411 0.1400
vn -0.9340 -0.0089 0.3572
vn -0.2164 -0.9752 0.0461
vn 0.3781 -0.9253 -0.0303
vn -0.8936 0.2803 0.3506
vn -0.9868 -0.0517 0.1537
vn -0.0624 -0.9934 0.0962
vn 0.4422 -0.8959 -0.0430
vn -0.9789 -0.2026 0.0260
vn -0.8764 0.4576 -0.1500
vn -0.4260 0.1369 -0.8943
vn -0.6315 -0.4215 -0.6508
vn 0.4507 -0.6652 -0.5954
vn 0.3094 -0.8109 -0.4968
vn 0.0707 -0.7646 -0.6406
vn 0.1134 -0.9795 -0.1667
vn -0.4041 -0.8613 -0.3080
vn 0.2179 -0.9001 -0.3774
vn 0.6684 -0.0570 0.7416
vn -0.1877 -0.3504 0.9176
vt 0.061556 0.158299
vt 0.061208 0.158976
vt 0.057755 0.156843
vt 0.058343 0.156257
vt 0.065745 0.160003
vt 0.065736 0.161806
vt 0.062001 0.157471
vt 0.066872 0.159447
vt 0.059058 0.155551
vt 0.054040 0.154059
vt 0.054663 0.153297
vt 0.052971 0.154868
vt 0.057405 0.157820
vt 0.052410 0.155815
vt 0.061280 0.159958
vt 0.060542 0.160561
vt 0.057242 0.158720
vt 0.052332 0.157143
vt 0.046491 0.152076
vt 0.047712 0.150925
vt 0.045266 0.154144
vt 0.051677 0.158354
vt 0.044121 0.156378
vt 0.034795 0.153555
vt 0.036306 0.150361
vt 0.038382 0.147597
vt 0.029038 0.145243
vt 0.031359 0.141703
vt 0.026370 0.149414
vt 0.048577 0.149611
vt 0.040678 0.144612
vt 0.042334 0.141977
vt 0.035585 0.135778
vt 0.033587 0.138399
vt 0.025720 0.137413
vt 0.028078 0.134374
vt 0.029381 0.132591
vt 0.023367 0.140384
vt 0.020695 0.137130
vt 0.022741 0.134453
vt 0.024112 0.132606
vt 0.378758 0.981788
vt 0.375636 0.979286
vt 0.380189 0.976979
vt 0.381965 0.978993
vt 0.021330 0.144275
vt 0.375642 0.975374
vt 0.379979 0.974908
vt 0.382454 0.976143
vt 0.063557 0.162105
vt 0.064038 0.164417
vt 0.066223 0.163982
vt 0.272202 0.330619
vt 0.271596 0.327953
vt 0.276259 0.324229
vt 0.275871 0.328125
vt 0.274229 0.323337
vt 0.272473 0.325304
vt 0.276269 0.329457
vt 0.277052 0.332432
vt 0.275166 0.334691
vt 0.273582 0.332853
vt 0.277895 0.334784
vt 0.277150 0.336549
vt 0.270162 0.325407
vt 0.271903 0.323806
vt 0.273465 0.340802
vt 0.277424 0.340361
vt 0.597873 0.927296
vt 0.597370 0.923504
vt 0.600001 0.922911
vt 0.601205 0.927156
vt 0.270497 0.322964
vt 0.273542 0.319528
vt 0.599332 0.930554
vt 0.597683 0.930155
vt 0.601471 0.933218
vt 0.603292 0.931892
vt 0.604523 0.925767
vt 0.606592 0.930236
vt 0.607247 0.936136
vt 0.605945 0.937461
vt 0.608992 0.934864
vt 0.610010 0.937662
vt 0.610204 0.936668
vt 0.611223 0.939091
vt 0.601882 0.938837
vt 0.599725 0.935412
vt 0.604551 0.941260
vt 0.608285 0.939495
vt 0.612767 0.940234
vt 0.615297 0.939168
vt 0.614978 0.937970
vt 0.617198 0.940260
vt 0.621283 0.941335
vt 0.623223 0.942377
vt 0.614684 0.942312
vt 0.629099 0.943219
vt 0.634039 0.945184
vt 0.626125 0.941503
vt 0.623629 0.940254
vt 0.014495 0.949108
vt 0.015268 0.946907
vt 0.017670 0.954242
vt 0.015240 0.957316
vt 0.013093 0.959913
vt 0.012727 0.951303
vt 0.017575 0.966162
vt 0.012874 0.967992
vt 0.006508 0.964447
vt 0.005501 0.955007
vt 0.009428 0.953027
vt 0.010343 0.962146
vt 0.008670 0.969886
vt 0.005499 0.969251
vt 0.241115 0.024059
vt 0.244172 0.019930
vt 0.243813 0.028455
vt 0.238345 0.025771
vt 0.235188 0.019772
vt 0.596603 0.940564
vt 0.595756 0.936335
vt 0.600942 0.943624
vt 0.591205 0.939461
vt 0.591306 0.942823
vt 0.593835 0.943792
vt 0.593024 0.946894
vt 0.590480 0.945065
vt 0.588968 0.944374
vt 0.589120 0.940298
vt 0.780486 0.926072
vt 0.782315 0.926129
vt 0.781910 0.926780
vt 0.779410 0.926553
vt 0.262072 0.327033
vt 0.262525 0.327653
vt 0.262525 0.331381
vt 0.261483 0.328246
vt 0.784410 0.926881
vt 0.782741 0.927177
vt 0.262425 0.333398
vt 0.261043 0.330869
vt 0.586632 0.939498
vt 0.587440 0.936390
vt 0.263397 0.331381
vt 0.262933 0.336502
vt 0.079794 0.127312
vt 0.081721 0.122249
vt 0.085249 0.128793
vt 0.081128 0.131789
vt 0.083973 0.120294
vt 0.089799 0.124647
vt 0.264667 0.334841
vt 0.268167 0.338962
vt 0.594283 0.930393
vt 0.269680 0.333941
vt 0.271593 0.337913
vt 0.265822 0.348335
vt 0.268690 0.347969
vt 0.266131 0.333094
vt 0.265495 0.329015
vt 0.267676 0.326443
vt 0.263676 0.327475
vt 0.265939 0.322787
vt 0.268668 0.322984
vt 0.793206 0.923589
vt 0.789429 0.922982
vt 0.789543 0.920841
vt 0.792940 0.921249
vt 0.268121 0.319827
vt 0.270750 0.319244
vt 0.792987 0.927671
vt 0.792654 0.929760
vt 0.789357 0.929857
vt 0.789168 0.927993
vt 0.788873 0.926141
vt 0.793055 0.925698
vt 0.784737 0.928768
vt 0.593740 0.950255
vt 0.597474 0.948768
vt 0.784602 0.925393
vt 0.799063 0.923722
vt 0.799143 0.925874
vt 0.799067 0.927897
vt 0.807984 0.923610
vt 0.808001 0.926413
vt 0.807809 0.928981
vt 0.817181 0.926770
vt 0.817476 0.931120
vt 0.817091 0.922728
vt 0.817181 0.918299
vt 0.807950 0.920938
vt 0.798912 0.921614
vt 0.825332 0.927293
vt 0.824802 0.922761
vt 0.823983 0.917742
vt 0.816923 0.934269
vt 0.807662 0.931252
vt 0.827041 0.932853
vt 0.823668 0.935679
vt 0.833263 0.921547
vt 0.832489 0.916320
vt 0.832313 0.936430
vt 0.833143 0.932180
vt 0.833218 0.926824
vt 0.841067 0.926731
vt 0.840403 0.921599
vt 0.840181 0.931731
vt 0.845966 0.931424
vt 0.846360 0.926123
vt 0.845494 0.921928
vt 0.839652 0.916748
vt 0.845077 0.917525
vt 0.600219 0.033957
vt 0.602341 0.034279
vt 0.602498 0.036743
vt 0.599493 0.035990
vt 0.847401 0.918670
vt 0.847707 0.920146
vt 0.602128 0.030204
vt 0.602206 0.032317
vt 0.600185 0.032349
vt 0.599526 0.030241
vt 0.845042 0.935077
vt 0.839473 0.936358
vt 0.848305 0.930820
vt 0.848786 0.927634
vt 0.798712 0.929798
vt 0.780277 0.927878
vt 0.588356 0.948060
vt 0.780524 0.924863
vt 0.076049 0.114773
vt 0.077129 0.111018
vt 0.268255 0.358768
vt 0.263763 0.358937
vt 0.271117 0.346874
vt 0.272306 0.358041
vt 0.268620 0.374496
vt 0.264344 0.375386
vt 0.260183 0.377490
vt 0.272540 0.372584
vt 0.275060 0.358149
vt 0.593821 0.922182
vt 0.588406 0.918179
vt 0.587568 0.911362
vt 0.593889 0.918521
vt 0.269960 0.388637
vt 0.263455 0.390426
vt 0.274862 0.387117
vt 0.075792 0.092269
vt 0.079141 0.089214
vt 0.081752 0.100344
vt 0.078952 0.103740
vt 0.277556 0.358043
vt 0.275773 0.371927
vt 0.078490 0.108267
vt 0.085199 0.117321
vt 0.072243 0.095045
vt 0.070889 0.098256
vt 0.066394 0.089046
vt 0.074236 0.084823
vt 0.062810 0.092144
vt 0.256821 0.389827
vt 0.249454 0.388494
vt 0.257075 0.379509
vt 0.069474 0.101670
vt 0.061006 0.085552
vt 0.056627 0.089750
vt 0.252417 0.394995
vt 0.246064 0.395105
vt 0.259001 0.398748
vt 0.265261 0.400345
vt 0.270121 0.397332
vt 0.274608 0.395429
vt 0.275014 0.402829
vt 0.270429 0.404746
vt 0.279730 0.400791
vt 0.279592 0.394183
vt 0.284413 0.399387
vt 0.277412 0.406392
vt 0.282866 0.405070
vt 0.287657 0.404006
vt 0.079392 0.077967
vt 0.081787 0.073018
vt 0.085259 0.073156
vt 0.084403 0.077782
vt 0.081072 0.082897
vt 0.289875 0.408491
vt 0.284728 0.409509
vt 0.082800 0.069150
vt 0.086155 0.067991
vt 0.073263 0.076951
vt 0.077259 0.072055
vt 0.078807 0.068567
vt 0.083140 0.065093
vt 0.085844 0.064496
vt 0.079848 0.065925
vt 0.074257 0.065513
vt 0.080244 0.062817
vt 0.072706 0.068722
vt 0.079749 0.058435
vt 0.074138 0.061032
vt 0.066959 0.059915
vt 0.067509 0.063996
vt 0.067003 0.067425
vt 0.069973 0.070682
vt 0.066185 0.072774
vt 0.071287 0.072673
vt 0.068000 0.075726
vt 0.060431 0.074944
vt 0.059599 0.068559
vt 0.062207 0.078168
vt 0.057414 0.082834
vt 0.053013 0.079842
vt 0.054227 0.072012
vt 0.051229 0.088044
vt 0.047505 0.085234
vt 0.042201 0.081477
vt 0.046335 0.077264
vt 0.049736 0.072353
vt 0.067730 0.081005
vt 0.237750 0.403151
vt 0.241508 0.399492
vt 0.248181 0.403749
vt 0.241710 0.406755
vt 0.257662 0.408724
vt 0.249207 0.409509
vt 0.257409 0.403590
vt 0.244417 0.410273
vt 0.263463 0.404222
vt 0.262643 0.408155
vt 0.261493 0.416907
vt 0.251627 0.414507
vt 0.267946 0.410432
vt 0.267401 0.405677
vt 0.273934 0.412072
vt 0.271539 0.415277
vt 0.272625 0.408120
vt 0.270126 0.418819
vt 0.279040 0.410177
vt 0.273764 0.416154
vt 0.276507 0.415314
vt 0.279208 0.415461
vt 0.283858 0.413317
vt 0.289397 0.414421
vt 0.282227 0.417542
vt 0.278866 0.418533
vt 0.285760 0.416997
vt 0.082569 0.063249
vt 0.084256 0.059973
vt 0.285389 0.421046
vt 0.281466 0.420894
vt 0.073300 0.057177
vt 0.077653 0.054869
vt 0.275960 0.421632
vt 0.274944 0.426171
vt 0.269311 0.422894
vt 0.261608 0.423997
vt 0.261630 0.428033
vt 0.065570 0.055815
vt 0.251914 0.420488
vt 0.250904 0.425308
vt 0.057939 0.059388
vt 0.056023 0.055015
vt 0.059593 0.063943
vt 0.051124 0.061992
vt 0.047636 0.060361
vt 0.053374 0.065903
vt 0.049451 0.068993
vt 0.046981 0.065641
vt 0.045998 0.070500
vt 0.043124 0.069259
vt 0.046788 0.072112
vt 0.039061 0.071182
vt 0.040749 0.066027
vt 0.042831 0.072946
vt 0.039358 0.075223
vt 0.235784 0.417915
vt 0.239395 0.419487
vt 0.234055 0.423561
vt 0.231729 0.418705
vt 0.234232 0.415213
vt 0.230287 0.414902
vt 0.236608 0.410002
vt 0.231862 0.408056
vt 0.241089 0.412583
vt 0.237772 0.414603
vt 0.241521 0.415815
vt 0.238497 0.416222
vt 0.245457 0.415023
vt 0.245568 0.419364
vt 0.242803 0.422709
vt 0.274699 0.418911
vt 0.277023 0.417537
vt 0.589522 0.922542
vt 0.594831 0.926539
vt 0.589674 0.925704
vt 0.596675 0.918899
vt 0.598450 0.932206
s 1
usemtl abyss_chancel_background_pbr
f 1/1/1 2/2/2 8/3/3 5/4/4
f 1/1/1 3/5/5 36/6/6 2/2/2
f 3/5/5 1/1/1 4/7/7 35/8/8
f 5/4/4 6/9/9 4/7/7 1/1/1
f 6/9/9 5/4/4 7/10/10 14/11/11
f 7/10/10 5/4/4 8/3/3 9/12/12
f 9/12/12 8/3/3 10/13/13 12/14/14
f 2/2/2 11/15/15 10/13/13 8/3/3
f 10/13/13 11/15/15 4/16/7 6/17/9
f 14/18/11 12/14/14 10/13/13 6/17/9
f 9/12/12 12/14/14 13/19/16 24/20/17
f 12/14/14 14/18/11 15/21/18 13/19/16
f 15/21/18 14/18/11 7/22/10 16/23/19
f 20/24/20 17/25/21 15/21/18 16/23/19
f 18/26/22 13/19/16 15/21/18 17/25/21
f 18/26/22 17/25/21 19/27/23 26/28/24
f 17/25/21 20/24/20 21/29/25 19/27/23
f 16/30/19 24/20/17 22/31/26 20/32/20
f 21/33/25 20/32/20 22/31/26 23/34/27
f 26/28/24 23/34/27 22/31/26 18/26/22
f 22/31/26 24/20/17 13/19/16 18/26/22
f 24/20/17 16/30/19 7/10/10 9/12/12
f 27/35/28 25/36/29 23/34/27 26/28/24
f 25/36/29 31/37/30 21/33/25 23/34/27
f 27/35/28 26/28/24 19/27/23 29/38/31
f 27/35/28 29/38/31 30/39/32 28/40/33
f 27/35/28 28/40/33 33/41/34 25/36/29
f 29/42/31 31/43/30 32/44/35 30/45/32
f 29/38/31 19/27/23 21/29/25 31/46/30
f 25/47/29 33/48/34 32/44/35 31/43/30
f 28/49/33 30/45/32 32/44/35 33/48/34
f 4/16/7 11/15/15 34/50/36 35/51/8
f 11/15/15 2/2/2 36/6/6 34/50/36
f 38/52/37 35/51/8 34/50/36 36/6/6
f 144/53/38 37/54/39 36/55/6 3/56/5
f 38/57/37 36/55/6 37/54/39 40/58/40
f 35/59/8 38/60/37 39/61/41 145/62/42
f 38/60/37 40/63/40 41/64/43 39/61/41
f 37/54/39 43/65/44 41/66/43 40/58/40
f 282/67/45 39/61/41 41/64/43 42/68/46
f 45/69/47 42/70/46 41/71/43 44/72/48
f 47/73/49 44/74/48 41/66/43 43/65/44
f 44/72/48 46/75/50 283/76/51 45/69/47
f 49/77/52 46/75/50 44/72/48 48/78/53
f 47/79/49 50/80/54 48/78/53 44/72/48
f 48/78/53 51/81/55 54/82/56 49/77/52
f 53/83/57 51/81/55 48/78/53 50/80/54
f 52/84/58 51/81/55 53/83/57 57/85/59
f 52/84/58 56/86/60 54/82/56 51/81/55
f 54/82/56 55/87/61 74/88/62 49/77/52
f 53/89/57 55/87/61 54/82/56 57/90/59
f 58/91/63 57/90/59 54/82/56 56/86/60
f 59/92/64 52/84/58 57/85/59 58/93/63
f 58/91/63 56/86/60 63/94/65 60/95/66
f 60/95/66 61/96/67 59/97/64 58/91/63
f 61/96/67 60/95/66 62/98/68 68/99/69
f 62/98/68 60/95/66 63/94/65 64/100/70
f 56/86/60 52/84/58 59/92/64 63/94/65
f 64/100/70 63/94/65 59/92/64 61/101/67
f 64/102/70 61/103/67 68/104/69 65/105/71
f 65/105/71 66/106/72 62/107/68 64/102/70
f 66/106/72 65/105/71 67/108/73 72/109/74
f 67/110/73 65/111/71 68/112/69 69/113/75
f 69/113/75 68/112/69 62/107/68 66/106/72
f 69/113/75 66/106/72 72/109/74 70/114/76
f 70/114/76 71/115/77 67/110/73 69/113/75
f 73/116/78 71/117/77 70/118/76
f 73/116/78 70/118/76 72/119/74
f 73/116/78 72/119/74 67/120/73 71/117/77
f 75/121/79 76/122/80 74/88/62 55/87/61
f 55/87/61 53/89/57 50/123/54 75/121/79
f 79/124/81 76/122/80 75/121/79 78/125/82
f 77/126/83 75/121/79 50/123/54 106/127/84
f 80/128/85 78/125/82 75/121/79 77/126/83
f 78/125/82 81/129/86 85/130/87 79/124/81
f 80/131/85 83/132/88 81/133/86 78/134/82
f 82/135/89 143/136/90 84/137/91 81/138/86
f 107/139/92 82/140/89 81/133/86 83/132/88
f 81/138/86 84/137/91 86/141/93 85/142/87
f 85/130/87 86/143/93 87/144/94 79/124/81
f 84/137/91 89/145/95 87/146/94 86/141/93
f 93/147/96 88/148/97 87/149/94 91/150/98
f 161/151/99 90/152/100 87/149/94 88/148/97
f 94/153/101 91/154/98 87/146/94 89/145/95
f 76/122/80 79/124/81 87/144/94 90/155/100
f 94/153/101 95/156/102 92/157/103 91/154/98
f 93/158/96 91/154/98 92/157/103 147/159/104
f 96/160/105 97/161/106 95/156/102 94/153/101
f 94/153/101 89/145/95 97/161/106 96/160/105
f 98/162/107 43/65/44 37/54/39 97/161/106
f 95/156/102 97/161/106 37/54/39 144/53/38
f 99/163/108 98/162/107 97/161/106 89/145/95
f 99/163/108 103/164/109 100/165/110 98/162/107
f 43/65/44 98/162/107 100/165/110 47/73/49
f 109/166/111 101/167/112 100/168/110 102/169/113
f 100/165/110 101/170/112 50/171/54 47/73/49
f 104/172/114 102/173/113 100/174/110 103/175/109
f 104/172/114 103/175/109 105/176/115 108/177/116
f 99/178/108 107/139/92 105/176/115 103/175/109
f 109/166/111 108/177/116 105/176/115 101/167/112
f 105/179/115 106/127/84 50/123/54 101/180/112
f 107/139/92 83/132/88 106/181/84 105/176/115
f 111/182/117 110/183/118 108/177/116 109/166/111
f 112/184/119 104/172/114 108/177/116 110/183/118
f 110/183/118 111/182/117 116/185/120 113/186/121
f 113/186/121 114/187/122 112/184/119 110/183/118
f 115/188/123 121/189/124 114/187/122 113/186/121
f 115/188/123 113/186/121 116/185/120 118/190/125
f 120/191/126 118/190/125 116/185/120 117/192/127
f 116/185/120 111/182/117 141/193/128 117/192/127
f 126/194/129 115/188/123 118/190/125 119/195/130
f 118/190/125 120/191/126 122/196/131 119/195/130
f 121/189/124 120/197/126 117/198/127 114/187/122
f 120/197/126 121/189/124 124/199/132 122/200/131
f 128/201/133 119/195/130 122/196/131 123/202/134
f 123/203/134 122/200/131 124/199/132 125/204/135
f 127/205/136 125/204/135 124/199/132 126/194/129
f 115/188/123 126/194/129 124/199/132 121/189/124
f 127/205/136 126/194/129 119/195/130 128/201/133
f 129/206/137 127/205/136 128/201/133 132/207/138
f 125/204/135 127/205/136 129/206/137 131/208/139
f 138/209/140 131/208/139 129/206/137 130/210/141
f 134/211/142 130/210/141 129/206/137 132/207/138
f 133/212/143 132/207/138 128/201/133 123/202/134
f 136/213/144 134/211/142 132/207/138 133/212/143
f 135/214/145 140/215/146 130/216/141 134/217/142
f 134/211/142 136/213/144 137/218/147 135/219/145
f 138/220/140 139/221/148 137/222/147 136/223/144
f 136/224/144 133/225/143 131/208/139 138/209/140
f 139/226/148 138/209/140 130/210/141 140/227/146
f 140/215/146 135/214/145 137/222/147 139/221/148
f 123/203/134 125/204/135 131/208/139 133/225/143
f 117/198/127 141/228/128 112/184/119 114/187/122
f 109/166/111 102/169/113 141/193/128 111/182/117
f 102/173/113 104/172/114 112/184/119 141/228/128
f 82/140/89 107/139/92 99/178/108 143/229/90
f 80/128/85 77/126/83 106/127/84 142/230/149
f 83/132/88 80/131/85 142/231/149 106/181/84
f 89/145/95 84/137/91 143/136/90 99/163/108
f 144/53/38 145/62/42 92/157/103 95/156/102
f 3/56/5 35/59/8 145/62/42 144/53/38
f 39/61/41 282/67/45 92/157/103 145/62/42
f 146/232/150 162/233/151 88/148/97 93/147/96
f 147/159/104 149/234/152 146/235/150 93/158/96
f 148/236/153 151/237/154 149/234/152 147/159/104
f 148/236/153 147/159/104 92/157/103 282/67/45
f 153/238/155 150/239/156 149/234/152 151/237/154
f 150/239/156 166/240/157 146/235/150 149/234/152
f 155/241/158 153/238/155 151/237/154 152/242/159
f 281/243/160 152/244/159 151/245/154 148/246/153
f 153/238/155 154/247/161 171/248/162 150/239/156
f 154/247/161 153/238/155 155/241/158 156/249/163
f 159/250/164 156/251/163 155/252/158 157/253/165
f 158/254/166 157/255/165 155/241/158 152/242/159
f 161/151/99 160/256/167 157/253/165 158/257/166
f 163/258/168 159/250/164 157/253/165 160/256/167
f 160/256/167 161/151/99 88/148/97 162/233/151
f 160/256/167 162/233/151 165/259/169 163/258/168
f 163/258/168 164/260/170 212/261/171 159/250/164
f 164/260/170 163/258/168 165/259/169 167/262/172
f 169/263/173 167/264/172 165/265/169 166/240/157
f 165/259/169 162/233/151 146/232/150 166/266/157
f 209/267/174 164/260/170 167/262/172 168/268/175
f 170/269/176 168/270/175 167/264/172 169/263/173
f 170/269/176 169/263/173 171/248/162 172/271/177
f 166/240/157 150/239/156 171/248/162 169/263/173
f 174/272/178 172/271/177 171/248/162 173/273/179
f 176/274/180 173/273/179 171/248/162 154/247/161
f 173/273/179 175/275/181 225/276/182 174/272/178
f 173/273/179 176/274/180 178/277/183 175/275/181
f 176/274/180 154/247/161 156/249/163 177/278/184
f 178/277/183 176/274/180 177/278/184 180/279/185
f 226/280/186 175/275/181 178/277/183 179/281/187
f 182/282/188 179/281/187 178/277/183 180/279/185
f 181/283/189 184/284/190 182/285/188 180/286/185
f 180/286/185 177/287/184 212/261/171 181/283/189
f 183/288/191 231/289/192 179/281/187 182/282/188
f 184/284/190 186/290/193 183/291/191 182/285/188
f 181/283/189 211/292/194 185/293/195 184/284/190
f 186/290/193 184/284/190 185/293/195 188/294/196
f 186/290/193 187/295/197 234/296/198 183/291/191
f 186/290/193 188/294/196 189/297/199 187/295/197
f 190/298/200 191/299/201 189/297/199 188/294/196
f 185/293/195 194/300/202 190/298/200 188/294/196
f 237/301/203 191/299/201 190/298/200 192/302/204
f 245/303/205 192/302/204 190/298/200 193/304/206
f 195/305/207 193/304/206 190/298/200 194/300/202
f 195/305/207 194/300/202 196/306/208 198/307/209
f 185/293/195 197/308/210 196/306/208 194/300/202
f 199/309/211 198/307/209 196/306/208 197/308/210
f 198/307/209 200/310/212 202/311/213 195/305/207
f 198/307/209 199/309/211 201/312/214 200/310/212
f 201/312/214 207/313/215 203/314/216 200/310/212
f 202/311/213 200/310/212 203/314/216 205/315/217
f 208/316/218 204/317/219 203/314/216 207/313/215
f 261/318/220 206/319/221 203/314/216 204/317/219
f 252/320/222 205/315/217 203/314/216 206/319/221
f 201/312/214 210/321/223 209/267/174 207/313/215
f 208/316/218 207/313/215 209/267/174 168/268/175
f 209/267/174 210/321/223 212/261/171 164/260/170
f 199/309/211 211/292/194 210/321/223 201/312/214
f 211/292/194 181/283/189 212/261/171 210/321/223
f 156/251/163 159/250/164 212/261/171 177/287/184
f 199/309/211 197/308/210 185/293/195 211/292/194
f 204/322/219 208/323/218 213/324/224 215/325/225
f 168/270/175 170/269/176 213/324/224 208/323/218
f 218/326/226 214/327/227 213/324/224 216/328/228
f 266/329/229 215/325/225 213/324/224 214/327/227
f 172/271/177 216/328/228 213/324/224 170/269/176
f 216/328/228 172/271/177 174/272/178 217/330/230
f 216/328/228 217/330/230 220/331/231 218/326/226
f 214/327/227 218/326/226 219/332/232 269/333/233
f 220/331/231 221/334/234 219/332/232 218/326/226
f 223/335/235 221/334/234 220/331/231 217/330/230
f 227/336/236 222/337/237 221/334/234 224/338/238
f 222/337/237 275/339/239 219/332/232 221/334/234
f 225/276/182 224/338/238 221/334/234 223/335/235
f 226/280/186 224/338/238 225/276/182 175/275/181
f 224/338/238 226/280/186 229/340/240 227/336/236
f 277/341/241 222/337/237 227/336/236 228/342/242
f 228/342/242 227/336/236 229/340/240 230/343/243
f 232/344/244 230/343/243 229/340/240 231/289/192
f 229/340/240 226/280/186 179/281/187 231/289/192
f 231/289/192 183/288/191 234/345/198 232/344/244
f 233/346/245 279/347/246 230/343/243 232/344/244
f 232/344/244 234/345/198 235/348/247 233/346/245
f 187/295/197 236/349/248 235/350/247 234/296/198
f 191/299/201 237/301/203 235/350/247 236/349/248
f 235/348/247 237/351/203 238/352/249 233/346/245
f 237/301/203 192/302/204 240/353/250 238/354/249
f 238/352/249 239/355/251 279/347/246 233/346/245
f 240/356/250 241/357/252 239/355/251 238/352/249
f 243/358/253 241/357/252 240/356/250 242/359/254
f 245/303/205 242/360/254 240/353/250 192/302/204
f 270/361/255 243/358/253 242/359/254 244/362/256
f 246/363/257 244/364/256 242/360/254 245/303/205
f 245/303/205 193/304/206 248/365/258 246/363/257
f 247/366/259 272/367/260 244/364/256 246/363/257
f 246/363/257 248/365/258 249/368/261 247/366/259
f 195/305/207 202/311/213 248/365/258 193/304/206
f 202/311/213 205/315/217 249/368/261 248/365/258
f 252/320/222 250/369/262 249/368/261 205/315/217
f 249/368/261 250/369/262 253/370/263 247/366/259
f 251/371/264 255/372/265 253/370/263 250/369/262
f 250/369/262 252/320/222 274/373/266 251/371/264
f 255/372/265 257/374/267 254/375/268 253/370/263
f 247/366/259 253/370/263 254/375/268 272/367/260
f 256/376/269 255/372/265 251/371/264 274/373/266
f 256/376/269 259/377/270 257/374/267 255/372/265
f 258/378/271 271/379/272 254/380/268 257/381/267
f 260/382/273 258/378/271 257/381/267 259/383/270
f 206/319/221 261/318/220 259/377/270 256/376/269
f 262/384/274 260/382/273 259/383/270 261/385/220
f 215/325/225 262/384/274 261/385/220 204/322/219
f 263/386/275 262/384/274 215/325/225 266/329/229
f 262/384/274 263/386/275 264/387/276 260/382/273
f 263/386/275 265/388/277 273/389/278 264/387/276
f 263/386/275 266/329/229 267/390/279 265/388/277
f 214/327/227 269/333/233 267/390/279 266/329/229
f 269/333/233 270/361/255 268/391/280 267/390/279
f 265/388/277 267/390/279 268/391/280 271/379/272
f 270/361/255 269/333/233 219/332/232 243/358/253
f 268/391/280 270/361/255 244/362/256 272/392/260
f 254/380/268 271/379/272 268/391/280 272/392/260
f 271/379/272 258/378/271 273/389/278 265/388/277
f 260/382/273 264/387/276 273/389/278 258/378/271
f 274/373/266 252/320/222 206/319/221 256/376/269
f 241/357/252 243/358/253 219/332/232 275/339/239
f 275/339/239 276/393/281 239/355/251 241/357/252
f 276/393/281 275/339/239 222/337/237 277/341/241
f 276/393/281 278/394/282 279/347/246 239/355/251
f 277/341/241 228/342/242 278/394/282 276/393/281
f 278/394/282 228/342/242 230/343/243 279/347/246
f 236/349/248 187/295/197 189/297/199 191/299/201
f 174/272/178 225/276/182 223/335/235 217/330/230
f 158/395/166 280/396/283 90/155/100 161/397/99
f 280/396/283 158/395/166 152/244/159 281/243/160
f 45/69/47 280/396/283 281/243/160 42/70/46
f 280/396/283 45/69/47 283/76/51 90/155/100
f 282/398/45 42/70/46 281/243/160 148/246/153
f 76/122/80 90/155/100 283/76/51 284/399/284
f 283/76/51 46/75/50 49/77/52 284/399/284
f 76/122/80 284/399/284 49/77/52 74/88/62
