# Blender 5.2.0 LTS
# www.blender.org
mtllib terrain-abyss-chancel-object-016.mtl
o terrain-abyss-chancel-object-016
v -0.842613 0.463210 0.031484
v -0.845645 0.465749 0.031307
v -0.842538 0.465216 0.033088
v -0.838239 0.462536 0.031079
v -0.842269 0.467141 0.032327
v -0.846274 0.469127 0.032373
v -0.837826 0.465448 0.031634
v -0.840815 0.471837 0.032714
v -0.837481 0.463377 0.032973
v -0.833645 0.465561 0.029902
v -0.833607 0.462617 0.028899
v -0.832274 0.462163 0.029797
v -0.829183 0.466219 0.023790
v -0.829513 0.464426 0.023495
v -0.828424 0.463699 0.024307
v -0.827583 0.472333 0.016354
v -0.827507 0.468800 0.018547
v -0.827325 0.471740 0.016018
v -0.846597 0.468194 0.032445
vn -0.6818 -0.5031 -0.5311
vn -0.0956 0.9949 -0.0329
vn -0.1280 0.9809 -0.1468
vn -0.4629 -0.7823 -0.4168
vn -0.2236 -0.2964 0.9285
vn -0.9226 0.2439 0.2990
vn -0.3656 -0.7810 -0.5063
vn 0.1840 -0.4441 0.8769
vn -0.2444 0.1499 -0.9580
vn -0.2317 0.9590 0.1630
vn 0.2540 0.9670 0.0213
vn 0.5493 -0.6593 0.5133
vn -0.1045 0.9239 0.3680
vn -0.6094 -0.4660 -0.6415
vn -0.5026 -0.6511 -0.5688
vn 0.7353 -0.6769 0.0351
vn -0.2050 0.8661 0.4559
vn -0.0263 0.9300 0.3666
vn 0.8039 -0.4826 -0.3475
vt 0.123304 0.021640
vt 0.121668 0.022391
vt 0.122128 0.020427
vt 0.123873 0.019787
vt 0.125172 0.020026
vt 0.124579 0.022363
vt 0.123260 0.017722
vt 0.124503 0.017461
vt 0.121781 0.018052
vt 0.013287 0.051020
vt 0.016502 0.051307
vt 0.017859 0.053756
vt 0.015946 0.054505
vt 0.018046 0.056444
vt 0.017648 0.056689
vt 0.018267 0.048513
vt 0.018628 0.051134
vt 0.015712 0.047573
vt 0.012826 0.046847
vt 0.014804 0.042864
vt 0.015607 0.043576
vt 0.014683 0.047469
vt 0.012867 0.050394
vt 0.011915 0.049615
vt 0.016683 0.044205
vt 0.018292 0.044157
vt 0.847084 0.020653
vt 0.847933 0.020594
vt 0.849289 0.024070
vt 0.848637 0.024363
vt 0.849450 0.019430
vt 0.849956 0.022488
vt 0.339140 0.972149
vt 0.339140 0.974202
vt 0.338821 0.972313
vt 0.847417 0.023244
vt 0.846570 0.020511
vt 0.018155 0.058075
s 1
usemtl abyss_chancel_background_pbr
f 2/1/1 6/2/2 5/3/3 1/4/4
f 1/4/4 3/5/5 19/6/6 2/1/1
f 1/4/4 4/7/7 9/8/8 3/5/5
f 4/7/7 1/4/4 5/3/3 7/9/9
f 9/10/8 8/11/10 5/12/3 3/13/5
f 5/12/3 6/14/2 19/15/6 3/13/5
f 10/16/11 7/17/9 5/12/3 8/11/10
f 12/18/12 10/16/11 8/11/10 9/10/8
f 10/19/11 13/20/13 14/21/14 11/22/15
f 11/22/15 4/23/7 7/24/9 10/19/11
f 10/16/11 12/18/12 15/25/16 13/26/13
f 14/27/14 13/28/13 16/29/17 18/30/18
f 15/31/16 17/32/19 16/29/17 13/28/13
f 16/33/17 17/34/19 18/35/18
f 14/27/14 18/30/18 17/36/19 15/37/16
f 12/18/12 11/22/15 14/21/14 15/25/16
f 4/23/7 11/22/15 12/18/12 9/10/8
f 19/15/6 6/14/2 2/38/1
