# Blender 5.2.0 LTS
# www.blender.org
mtllib terrain-abyss-chancel-object-047.mtl
o terrain-abyss-chancel-object-047
v -0.388312 0.042467 -0.042034
v -0.389681 0.037713 -0.037096
v -0.387797 0.051836 -0.030395
v -0.395223 0.029924 -0.053464
v -0.391413 0.046814 -0.045162
v -0.389836 0.055806 -0.035788
v -0.398292 0.036405 -0.054311
v -0.398601 0.049512 -0.044730
v -0.403483 0.042016 -0.054432
v -0.406738 0.053106 -0.044011
v -0.396667 0.057678 -0.035762
v -0.394788 0.063341 -0.028255
v -0.403629 0.060780 -0.034596
v -0.401199 0.066554 -0.027102
v -0.411614 0.065451 -0.032314
v -0.416504 0.059462 -0.042236
v -0.408274 0.070919 -0.024520
v -0.422131 0.074270 -0.029091
v -0.415100 0.077209 -0.020804
v -0.428680 0.070479 -0.038322
v -0.439816 0.086291 -0.023122
v -0.435798 0.090695 -0.016715
v -0.445275 0.081608 -0.031770
v -0.461355 0.100341 -0.018863
v -0.478064 0.108016 -0.015760
v -0.457641 0.104079 -0.013225
v -0.465660 0.096690 -0.024713
v -0.481549 0.104863 -0.021091
v -0.471511 0.092650 -0.031511
v -0.487123 0.100751 -0.026730
v -0.478893 0.084637 -0.034585
v -0.451328 0.077700 -0.040649
v -0.458542 0.071051 -0.046697
v -0.434678 0.065072 -0.047592
v -0.440266 0.058968 -0.054855
v -0.421903 0.054566 -0.051750
v -0.411619 0.047254 -0.053814
v -0.426218 0.051796 -0.058632
v -0.431202 0.045094 -0.060017
v -0.416654 0.045141 -0.061013
v -0.410320 0.038150 -0.061497
v -0.421659 0.041393 -0.064861
v -0.424673 0.035138 -0.062457
v -0.415822 0.036238 -0.066380
v -0.414736 0.029474 -0.065556
v -0.420153 0.033694 -0.064540
v -0.419051 0.028517 -0.063609
v -0.416744 0.022907 -0.061347
v -0.424427 0.028471 -0.060021
v -0.433097 0.028788 -0.055824
v -0.420713 0.023662 -0.056748
v -0.428987 0.022482 -0.052031
v -0.413440 0.022687 -0.051632
v -0.404044 0.026198 -0.044743
v -0.422028 0.022171 -0.045710
v -0.407964 0.022067 -0.056896
v -0.406130 0.024170 -0.060549
v -0.396990 0.027837 -0.050372
v -0.414505 0.024050 -0.065306
v -0.407338 0.031282 -0.060735
v -0.433279 0.021132 -0.039304
v -0.414240 0.024508 -0.039693
v -0.426656 0.022635 -0.033230
v -0.407264 0.030237 -0.028856
v -0.396522 0.032565 -0.031834
v -0.420414 0.028931 -0.023991
v -0.403144 0.034919 -0.015618
v -0.394675 0.038270 -0.019268
v -0.399018 0.037725 -0.004967
v -0.414655 0.034105 -0.010721
v -0.428344 0.032517 -0.005137
v -0.410018 0.038117 0.000639
v -0.407359 0.048373 0.001768
v -0.424085 0.040315 0.006868
v -0.423007 0.053185 0.007793
v -0.431005 0.037165 0.013557
v -0.433466 0.048395 0.017225
v -0.423149 0.038748 0.026123
v -0.435550 0.025167 0.018251
v -0.438776 0.028416 0.001709
v -0.444623 0.020785 0.008512
v -0.445046 0.021762 -0.008149
v -0.434162 0.025966 -0.016760
v -0.449438 0.014803 0.000117
v -0.449578 0.016071 -0.014995
v -0.453064 0.009043 -0.006370
v -0.453514 0.012556 -0.019985
v -0.439827 0.020331 -0.024836
v -0.445538 0.018720 -0.030398
v -0.452112 0.020384 -0.034728
v -0.440028 0.023030 -0.044935
v -0.459605 0.015298 -0.021882
v -0.462785 0.029941 -0.036566
v -0.467633 0.022113 -0.021456
v -0.444485 0.029025 -0.048728
v -0.466116 0.047836 -0.043830
v -0.485994 0.041911 -0.027817
v -0.487658 0.060204 -0.031301
v -0.484925 0.032046 -0.018383
v -0.503707 0.051455 -0.020817
v -0.513274 0.054291 -0.013309
v -0.502582 0.068635 -0.022285
v -0.500165 0.040943 -0.017235
v -0.506138 0.040405 -0.011157
v -0.487954 0.026125 -0.009083
v -0.508209 0.040301 -0.002448
v -0.506038 0.042533 0.007204
v -0.516717 0.055502 -0.002667
v -0.490835 0.023210 -0.000599
v -0.488617 0.027837 0.006978
v -0.477416 0.012957 0.000615
v -0.473311 0.016591 -0.009387
v -0.474754 0.017739 0.009299
v -0.468963 0.007142 0.001392
v -0.462858 0.003844 0.002342
v -0.466893 0.011650 0.009835
v -0.464794 0.010960 -0.009226
v -0.458964 0.007341 -0.008967
v -0.460499 0.007577 0.009874
v -0.463584 0.016351 0.020737
v -0.456601 0.011440 0.019004
v -0.459024 0.019600 0.031788
v -0.471966 0.023444 0.021272
v -0.470023 0.031171 0.034318
v -0.487939 0.034980 0.017691
v -0.490442 0.045168 0.026949
v -0.501030 0.044371 0.015196
v -0.505617 0.054357 0.019092
v -0.514035 0.055974 0.009784
v -0.504806 0.067527 0.021867
v -0.502880 0.078610 0.023963
v -0.489475 0.058405 0.031899
v -0.514871 0.071205 0.010902
v -0.517203 0.071705 -0.002508
v -0.514597 0.085303 0.011486
v -0.517067 0.087049 -0.004179
v -0.512349 0.096173 0.012280
v -0.513303 0.101673 -0.006448
v -0.510180 0.101901 0.014078
v -0.500691 0.085945 0.025520
v -0.484455 0.073379 0.036523
v -0.498717 0.091059 0.026628
v -0.482376 0.077681 0.038254
v -0.496859 0.095171 0.028206
v -0.493698 0.097224 0.027275
v -0.480365 0.082055 0.039839
v -0.508723 0.105899 0.016637
v -0.508703 0.112544 0.003741
v -0.504090 0.108137 0.017439
v -0.507357 0.115931 0.006363
v -0.499052 0.107794 0.015256
v -0.491689 0.107018 0.012754
v -0.489212 0.097697 0.024013
v -0.502213 0.115870 0.006801
v -0.500912 0.122219 -0.000234
v -0.493300 0.113145 0.006831
v -0.493207 0.119242 0.000888
v -0.483599 0.110332 0.006281
v -0.482797 0.105433 0.010954
v -0.471906 0.106060 0.005511
v -0.483572 0.115017 0.001353
v -0.472147 0.109417 0.000356
v -0.484318 0.117291 -0.004273
v -0.487382 0.115009 -0.009090
v -0.472277 0.112701 -0.004944
v -0.494971 0.120636 -0.004390
v -0.504582 0.120902 -0.001663
v -0.498240 0.117984 -0.008452
v -0.502013 0.115534 -0.012815
v -0.506624 0.117301 -0.004540
v -0.508433 0.113352 -0.009111
v -0.509731 0.109840 -0.013618
v -0.510351 0.108565 -0.000716
v -0.505916 0.113141 -0.017595
v -0.501401 0.105668 -0.022569
v -0.495463 0.109738 -0.019249
v -0.505369 0.098574 -0.020296
v -0.510408 0.086488 -0.017115
v -0.493585 0.093010 -0.027636
v -0.498836 0.082953 -0.024437
v -0.484521 0.074030 -0.032885
v -0.463831 0.060693 -0.045939
v -0.444574 0.049829 -0.054987
v -0.446924 0.039939 -0.053317
v -0.433415 0.037186 -0.058214
v -0.512798 0.071005 -0.014618
v -0.491156 0.112572 -0.013949
v -0.474538 0.110967 -0.010530
v -0.455912 0.103694 -0.007294
v -0.435280 0.089634 -0.010185
v -0.456104 0.099959 -0.001604
v -0.436858 0.085618 -0.003302
v -0.456568 0.096608 0.003909
v -0.439561 0.081369 0.004293
v -0.457639 0.093520 0.008783
v -0.459887 0.089433 0.013232
v -0.471264 0.102347 0.010229
v -0.443092 0.077964 0.009007
v -0.448862 0.073928 0.013030
v -0.434143 0.063666 0.008829
v -0.427568 0.068417 0.007345
v -0.441045 0.058540 0.014962
v -0.436640 0.062019 0.024954
v -0.425716 0.050577 0.029529
v -0.432242 0.067442 0.032917
v -0.448635 0.074466 0.020484
v -0.458891 0.085035 0.016100
v -0.446386 0.078098 0.026816
v -0.462119 0.090000 0.019880
v -0.449849 0.075890 0.032327
v -0.466968 0.088019 0.024693
v -0.453255 0.073908 0.036549
v -0.435981 0.064871 0.038991
v -0.426672 0.056291 0.044485
v -0.440130 0.062782 0.043860
v -0.431198 0.054477 0.050352
v -0.443882 0.061865 0.048352
v -0.435096 0.053940 0.055681
v -0.447382 0.061599 0.053092
v -0.456323 0.072349 0.040663
v -0.473766 0.086267 0.033190
v -0.459198 0.070707 0.044472
v -0.477168 0.085039 0.037610
v -0.462021 0.068148 0.046544
v -0.450831 0.060869 0.057159
v -0.464963 0.063843 0.046680
v -0.453843 0.055542 0.057151
v -0.467335 0.058858 0.045645
v -0.455827 0.049466 0.055557
v -0.469578 0.053238 0.044186
v -0.457849 0.043565 0.053818
v -0.471353 0.045169 0.042080
v -0.486868 0.067742 0.034442
v -0.458571 0.036418 0.051212
v -0.456568 0.027963 0.046714
v -0.449070 0.032155 0.057190
v -0.445100 0.029285 0.061313
v -0.447811 0.037526 0.059419
v -0.447553 0.026165 0.054326
v -0.442744 0.025251 0.061050
v -0.443669 0.020950 0.051908
v -0.436097 0.019047 0.048488
v -0.438415 0.021700 0.059117
v -0.450795 0.020651 0.042891
v -0.442474 0.015767 0.039188
v -0.434567 0.019895 0.033984
v -0.450333 0.013905 0.028709
v -0.442545 0.017511 0.023733
v -0.449660 0.013563 0.014508
v -0.454145 0.008247 0.007297
v -0.457943 0.002287 0.001862
v -0.426970 0.026758 0.028454
v -0.427767 0.022070 0.044044
v -0.424492 0.023451 0.053252
v -0.420507 0.027857 0.039647
v -0.418087 0.028703 0.050917
v -0.415832 0.037330 0.038043
v -0.414010 0.044304 0.039850
v -0.414134 0.035834 0.050224
v -0.418696 0.036973 0.057932
v -0.414880 0.042519 0.049897
v -0.418827 0.048323 0.048756
v -0.420466 0.042343 0.056623
v -0.423859 0.043255 0.063076
v -0.424534 0.047995 0.054549
v -0.428998 0.047526 0.060291
v -0.432362 0.046990 0.065501
v -0.438647 0.053180 0.060774
v -0.427231 0.042908 0.068814
v -0.435661 0.044954 0.068585
v -0.441929 0.051323 0.064648
v -0.437721 0.041124 0.067029
v -0.430503 0.040185 0.070655
v -0.426194 0.036075 0.070333
v -0.433105 0.036080 0.068936
v -0.436040 0.031784 0.067033
v -0.428878 0.031517 0.069372
v -0.426092 0.028519 0.066412
v -0.432167 0.026956 0.067830
v -0.427909 0.023030 0.067201
v -0.434968 0.023463 0.064566
v -0.430310 0.023548 0.062928
v -0.439277 0.027796 0.064947
v -0.442457 0.032399 0.063444
v -0.440066 0.036804 0.065254
v -0.446243 0.042519 0.061622
v -0.443888 0.047559 0.063303
v -0.425084 0.026357 0.060897
v -0.432226 0.021126 0.056173
v -0.421192 0.031085 0.059271
v -0.423263 0.033229 0.065734
v -0.418008 0.039474 0.064520
v -0.423415 0.039058 0.069781
v -0.412732 0.049740 0.044989
v -0.422225 0.057643 0.038135
v -0.470890 0.086393 0.028587
v -0.484510 0.097975 0.020694
v -0.478121 0.097927 0.017038
v -0.469501 0.096549 0.014686
v -0.415990 0.061078 0.006218
v -0.422785 0.072935 -0.004043
v -0.418253 0.075609 -0.013257
v -0.412790 0.066275 -0.006283
v -0.409801 0.069536 -0.015747
v -0.404260 0.062083 -0.010014
v -0.402077 0.065337 -0.018329
v -0.395484 0.059244 -0.013488
v -0.404803 0.055615 0.000634
v -0.395786 0.054653 -0.004960
v -0.397056 0.046419 -0.004408
v -0.387996 0.054665 -0.007112
v -0.389058 0.046153 -0.009491
v -0.388129 0.056524 -0.016286
v -0.389547 0.046425 -0.022532
v -0.387755 0.059126 -0.022958
v -0.388445 0.061841 -0.028674
v -0.395167 0.061867 -0.020958
v -0.390503 0.037826 -0.008349
vn 0.9611 -0.0590 -0.2696
vn 0.8534 -0.5080 0.1169
vn 0.6192 -0.7851 0.0149
vn 0.7935 -0.3221 -0.5164
vn 0.9973 -0.0041 -0.0734
vn 0.9537 -0.2973 0.0464
vn 0.6205 0.4383 -0.6502
vn 0.6515 0.5328 -0.5401
vn 0.5612 0.2692 -0.7827
vn 0.2110 0.7217 -0.6592
vn 0.2807 0.6642 -0.6929
vn 0.4246 0.5352 -0.7303
vn 0.3974 0.6877 -0.6076
vn 0.3074 0.7084 -0.6353
vn 0.2549 0.7244 -0.6406
vn 0.3365 0.9093 -0.2446
vn 0.6709 0.7081 -0.2201
vn 0.4068 0.8735 -0.2675
vn 0.3683 0.7014 -0.6103
vn 0.3301 0.7132 -0.6184
vn 0.5059 0.8320 -0.2277
vn 0.3524 0.7248 -0.5920
vn 0.3538 0.7210 -0.5958
vn 0.5758 0.8047 -0.1449
vn 0.3175 0.7207 -0.6162
vn 0.4909 0.8270 -0.2741
vn 0.3090 0.7414 -0.5957
vn 0.3844 0.8322 -0.3997
vn 0.2748 0.7252 -0.6313
vn 0.2684 0.7315 -0.6268
vn 0.1849 0.7423 -0.6440
vn 0.2122 0.7740 -0.5966
vn 0.2688 0.8349 -0.4804
vn 0.0895 0.6288 -0.7724
vn -0.0461 0.5259 -0.8493
vn 0.1762 0.6860 -0.7059
vn -0.2845 0.2852 -0.9153
vn -0.3794 0.1401 -0.9145
vn -0.1897 0.3906 -0.9008
vn 0.2765 0.7022 -0.6561
vn -0.0501 0.4516 -0.8908
vn 0.3633 0.7167 -0.5952
vn 0.1174 0.5895 -0.7992
vn 0.3157 0.6145 -0.7230
vn -0.2915 0.1318 -0.9474
vn -0.3534 0.0481 -0.9343
vn -0.1336 0.2498 -0.9590
vn 0.5068 0.3731 -0.7771
vn 0.1540 0.1347 -0.9788
vn -0.4575 -0.1928 -0.8681
vn -0.4318 -0.2093 -0.8773
vn -0.4095 -0.1954 -0.8911
vn 0.0828 -0.1071 -0.9908
vn 0.5364 0.1242 -0.8348
vn -0.5057 -0.3682 -0.7802
vn -0.4572 -0.4827 -0.7470
vn -0.2911 -0.8580 -0.4231
vn -0.2521 -0.8992 -0.3576
vn -0.0049 -0.5173 -0.8558
vn -0.4192 -0.5024 -0.7562
vn -0.2065 -0.8866 -0.4139
vn 0.2374 -0.9693 -0.0644
vn 0.0951 -0.9921 0.0819
vn 0.0921 -0.9958 0.0018
vn 0.3415 -0.9120 0.2270
vn 0.2380 -0.9426 0.2344
vn 0.5225 -0.5475 -0.6537
vn 0.5336 -0.8066 0.2543
vn 0.0722 -0.9949 -0.0708
vn -0.2574 -0.8493 -0.4609
vn 0.2579 -0.9424 0.2129
vn 0.2771 -0.9131 0.2991
vn 0.2783 -0.9053 0.3208
vn 0.6323 -0.7687 0.0966
vn 0.2254 -0.9512 0.2107
vn 0.1903 -0.9327 0.3062
vn 0.6829 -0.6256 0.3772
vn 0.3816 -0.6904 0.6146
vn 0.3118 -0.6378 0.7043
vn 0.5236 -0.5259 0.6703
vn 0.3733 -0.8758 0.3059
vn 0.4243 -0.8603 0.2825
vn 0.4623 -0.1082 0.8801
vn 0.4217 -0.1110 0.8999
vn 0.4088 0.0459 0.9115
vn 0.9133 -0.4055 -0.0368
vn 0.9095 0.4095 0.0717
vn 0.6807 -0.7314 0.0417
vn 0.7386 0.3497 -0.5763
vn 0.8262 -0.0493 -0.5613
vn 0.6891 -0.6125 -0.3873
vn 0.7038 -0.6292 -0.3298
vn 0.7590 -0.6331 -0.1522
vn 0.6862 -0.7209 0.0969
vn 0.8150 -0.5787 -0.0300
vn 0.6319 -0.7748 -0.0167
vn 0.4027 -0.9034 0.1472
vn 0.6542 -0.7373 -0.1683
vn -0.0389 -0.9017 -0.4306
vn 0.1624 -0.9269 -0.3384
vn 0.1415 -0.9670 -0.2118
vn -0.2997 -0.7990 -0.5213
vn -0.3820 -0.7698 -0.5113
vn -0.5215 -0.5394 -0.6612
vn -0.4591 -0.5283 -0.7143
vn -0.5139 -0.6689 -0.5370
vn -0.4854 -0.6520 -0.5825
vn -0.5213 -0.4308 -0.7367
vn -0.4604 -0.2413 -0.8543
vn -0.5185 -0.1994 -0.8315
vn -0.5169 -0.0979 -0.8504
vn -0.5738 -0.2681 -0.7739
vn -0.5508 -0.0345 -0.8339
vn -0.5164 -0.5721 -0.6372
vn -0.8210 -0.2377 -0.5191
vn -0.7990 -0.0087 -0.6012
vn -0.6764 -0.5905 -0.4402
vn -0.5183 -0.7154 -0.4687
vn -0.6347 -0.7707 0.0564
vn -0.7794 -0.6257 0.0320
vn -0.9652 -0.2595 -0.0329
vn -0.5802 -0.6600 0.4772
vn -0.6941 -0.5863 0.4176
vn -0.8616 -0.2792 0.4240
vn -0.5551 -0.6691 0.4940
vn -0.5932 -0.8042 0.0381
vn -0.4946 -0.7135 -0.4962
vn -0.4464 -0.7621 -0.4690
vn -0.5418 -0.8401 0.0276
vn -0.5032 -0.7109 0.4912
vn -0.2394 -0.9655 0.1021
vn -0.1383 -0.8528 0.5036
vn 0.3648 -0.9295 0.0543
vn -0.0561 -0.9307 0.3613
vn -0.5022 -0.7312 0.4616
vn -0.5771 -0.6667 0.4716
vn -0.4959 -0.7454 0.4456
vn -0.0113 -0.9756 0.2193
vn -0.6149 -0.5551 0.5602
vn -0.5810 -0.6418 0.5006
vn -0.5977 -0.4463 0.6660
vn -0.6703 -0.3207 0.6692
vn -0.6070 -0.5883 0.5343
vn -0.6654 -0.0822 0.7420
vn -0.8972 -0.0302 0.4405
vn -0.5709 -0.1641 0.8044
vn -0.8956 0.0909 0.4355
vn -0.6531 -0.0020 0.7573
vn -0.5498 -0.0565 0.8334
vn -0.9961 -0.0047 -0.0877
vn -0.9815 0.1249 -0.1454
vn -0.8864 0.1912 0.4217
vn -0.9523 0.2472 -0.1787
vn -0.6443 0.0356 0.7639
vn -0.8939 0.1665 0.4163
vn -0.9380 0.3404 0.0652
vn -0.6588 0.0044 0.7523
vn -0.5332 -0.0296 0.8455
vn -0.4999 -0.0028 0.8661
vn -0.4660 0.2782 0.8399
vn -0.2552 0.3086 0.9163
vn -0.7711 0.3286 0.5454
vn 0.1768 0.6954 0.6965
vn 0.0571 0.7054 0.7065
vn -0.1896 0.7101 0.6781
vn -0.9049 0.4035 0.1356
vn -0.5464 0.7192 0.4293
vn 0.0767 0.7751 0.6271
vn 0.2490 0.7685 0.5894
vn 0.3231 0.7953 0.5129
vn 0.3315 0.7740 0.5395
vn 0.2762 0.7335 0.6210
vn 0.2392 0.7049 0.6677
vn 0.0696 0.9503 0.3034
vn -0.4411 0.8968 -0.0350
vn 0.2623 0.8646 0.4287
vn 0.2856 0.7133 0.6400
vn 0.3371 0.8000 0.4964
vn 0.2724 0.7152 0.6436
vn 0.3717 0.6850 0.6266
vn 0.4015 0.7300 0.5531
vn 0.4312 0.7597 0.4868
vn 0.4163 0.9074 0.0570
vn 0.3307 0.9378 -0.1060
vn 0.1488 0.9357 -0.3199
vn 0.2098 0.8067 -0.5525
vn -0.0434 0.8358 -0.5473
vn -0.6930 0.6791 -0.2421
vn 0.1835 0.7996 -0.5719
vn -0.1503 0.8747 -0.4607
vn -0.7502 0.6441 -0.1496
vn -0.3268 0.7006 -0.6343
vn -0.8013 0.4279 -0.4181
vn -0.3980 0.3142 -0.8619
vn 0.0615 0.7145 -0.6969
vn -0.6689 0.0888 -0.7381
vn -0.7534 0.0606 -0.6548
vn -0.5176 0.0072 -0.8556
vn -0.4854 0.0411 -0.8733
vn -0.4488 0.0524 -0.8921
vn 0.5188 0.7018 0.4882
vn 0.5188 0.8322 0.1954
vn 0.5858 0.7450 0.3190
vn 0.5694 0.6491 0.5045
vn 0.5226 0.6658 0.5325
vn 0.5093 0.5636 0.6504
vn 0.4372 0.3955 0.8078
vn 0.5002 0.5647 0.6564
vn 0.6200 0.5943 0.5123
vn 0.7168 0.5277 0.4558
vn 0.3911 0.6885 0.6107
vn 0.3974 0.4339 0.8086
vn 0.3520 0.3038 0.8854
vn 0.7872 0.5601 0.2582
vn 0.4507 0.3610 0.8164
vn 0.7183 0.4560 -0.5254
vn 0.7563 0.5637 -0.3321
vn 0.6666 0.7433 -0.0562
vn 0.7002 0.7105 -0.0705
vn 0.6141 0.7891 0.0155
vn 0.7541 0.6536 -0.0643
vn 0.5388 0.7790 0.3206
vn 0.3122 0.7613 0.5682
vn 0.3588 0.7558 0.5477
vn 0.2905 0.7637 0.5765
vn 0.3390 0.7747 0.5339
vn 0.3506 0.7892 0.5042
vn 0.3533 0.7754 0.5235
vn 0.3830 0.7519 0.5365
vn 0.4164 0.7703 0.4829
vn 0.3771 0.7875 0.4875
vn 0.3871 0.8063 0.4472
vn 0.4456 0.7921 0.4172
vn 0.3123 0.8162 0.4862
vn 0.3797 0.7778 0.5008
vn 0.2505 0.7509 0.6110
vn 0.3719 0.7966 0.4767
vn -0.1751 0.4835 0.8576
vn -0.1441 0.6088 0.7801
vn -0.5054 0.1044 0.8565
vn -0.5547 0.1293 0.8219
vn -0.5964 -0.0138 0.8026
vn -0.5689 -0.0005 0.8224
vn -0.5874 -0.0590 0.8071
vn -0.6131 -0.1068 0.7828
vn -0.6249 -0.2515 0.7391
vn -0.6450 -0.3176 0.6951
vn -0.6157 -0.5649 0.5493
vn -0.6310 -0.5909 0.5027
vn -0.6710 -0.3033 0.6765
vn -0.6061 -0.1197 0.7863
vn -0.5894 -0.5549 0.5871
vn -0.6949 -0.2666 0.6679
vn -0.5812 -0.1128 0.8059
vn -0.3699 -0.8482 0.3792
vn -0.2524 -0.8804 0.4016
vn -0.4480 -0.7828 0.4319
vn 0.1265 -0.9800 0.1533
vn 0.2098 -0.9549 0.2100
vn 0.0564 -0.9848 0.1642
vn 0.4838 -0.8722 -0.0721
vn 0.4769 -0.8642 -0.1604
vn 0.5082 -0.8464 -0.1592
vn 0.5786 -0.8155 0.0151
vn 0.5852 -0.7792 0.2247
vn 0.7338 -0.6294 -0.2559
vn 0.5527 -0.8194 0.1518
vn 0.8014 -0.5826 0.1353
vn 0.9123 -0.1775 -0.3691
vn 0.9609 -0.1901 0.2012
vn 0.9378 0.1698 -0.3029
vn 0.9018 0.1962 0.3851
vn 0.9269 -0.0169 0.3750
vn 0.7959 -0.4819 0.3665
vn 0.7259 0.5711 0.3833
vn 0.8602 0.4786 0.1763
vn 0.5834 0.5861 0.5623
vn 0.5264 0.7103 0.4673
vn 0.5780 0.7551 0.3095
vn 0.9040 0.1973 0.3793
vn 0.5003 0.7735 0.3892
vn 0.3242 0.6481 0.6891
vn 0.3400 0.7528 0.5636
vn -0.1384 0.4766 0.8682
vn -0.1878 0.3462 0.9192
vn -0.1071 0.1671 0.9801
vn -0.5336 0.0089 0.8457
vn -0.5041 -0.0634 0.8613
vn -0.3576 -0.1289 0.9249
vn 0.2887 -0.1942 0.9375
vn 0.1158 -0.2558 0.9598
vn 0.5510 0.1843 0.8139
vn -0.5285 -0.0713 0.8460
vn -0.4158 -0.1507 0.8969
vn -0.1679 -0.4069 0.8979
vn 0.7268 -0.4482 0.5205
vn 0.6557 -0.4591 0.5994
vn 0.3851 -0.7357 0.5573
vn -0.2444 -0.7599 0.6023
vn 0.2696 -0.9139 0.3035
vn -0.4770 -0.3415 0.8098
vn -0.5620 -0.0664 0.8244
vn 0.6909 -0.6687 0.2749
vn 0.2831 0.7296 0.6225
vn 0.5551 0.7014 0.4471
vn 0.5720 0.6631 0.4828
vn 0.6120 0.6947 0.3779
vn 0.5919 0.7232 0.3558
vn 0.5289 0.3424 0.7766
vn 0.4945 0.7534 0.4335
vn 0.5104 0.8078 0.2950
vn 0.4308 0.8554 0.2875
vn 0.3917 0.8397 0.3761
vn 0.4784 0.4400 0.7600
vn 0.7518 0.3576 0.5540
vn 0.8663 0.4539 0.2086
vn 0.8778 -0.2339 0.4180
vn 0.8566 0.4889 0.1650
vt 0.183825 0.743388
vt 0.188849 0.743034
vt 0.189252 0.751426
vt 0.186645 0.752165
vt 0.185406 0.732847
vt 0.190990 0.732965
vt 0.178692 0.740358
vt 0.182649 0.730734
vt 0.820505 0.807503
vt 0.817206 0.808839
vt 0.804365 0.804324
vt 0.810289 0.803192
vt 0.181020 0.725079
vt 0.176062 0.736362
vt 0.815189 0.801198
vt 0.824937 0.806373
vt 0.819396 0.798409
vt 0.827290 0.802566
vt 0.836167 0.805315
vt 0.833144 0.808143
vt 0.186013 0.720338
vt 0.184928 0.725167
vt 0.182187 0.717906
vt 0.187946 0.717881
vt 0.831429 0.798023
vt 0.840083 0.801838
vt 0.190970 0.715184
vt 0.184009 0.715305
vt 0.838214 0.792173
vt 0.845171 0.795854
vt 0.851821 0.800158
vt 0.846718 0.803071
vt 0.851292 0.786132
vt 0.856326 0.787327
vt 0.844829 0.783322
vt 0.861393 0.775320
vt 0.857178 0.774146
vt 0.852911 0.772563
vt 0.856582 0.764168
vt 0.860307 0.765410
vt 0.863630 0.766279
vt 0.848035 0.769503
vt 0.852404 0.761614
vt 0.838702 0.779804
vt 0.842714 0.765458
vt 0.848043 0.758129
vt 0.832967 0.775587
vt 0.830908 0.787987
vt 0.824585 0.784405
vt 0.824108 0.793969
vt 0.819438 0.790420
vt 0.815231 0.794641
vt 0.815101 0.787107
vt 0.819245 0.780800
vt 0.811864 0.791495
vt 0.811012 0.797400
vt 0.809383 0.793965
vt 0.808554 0.789073
vt 0.810328 0.784369
vt 0.807630 0.791630
vt 0.805930 0.794409
vt 0.806736 0.798568
vt 0.804920 0.791463
vt 0.804679 0.787702
vt 0.802221 0.792014
vt 0.800956 0.787691
vt 0.803404 0.794025
vt 0.805503 0.782262
vt 0.801169 0.781990
vt 0.799704 0.795077
vt 0.798120 0.790427
vt 0.796285 0.783088
vt 0.800915 0.802676
vt 0.794627 0.795116
vt 0.792192 0.786108
vt 0.802627 0.797633
vt 0.194861 0.742218
vt 0.195372 0.749990
vt 0.798593 0.774113
vt 0.803127 0.773972
vt 0.794002 0.774117
vt 0.202889 0.749471
vt 0.202426 0.742926
vt 0.211205 0.743024
vt 0.210894 0.750280
vt 0.197367 0.735490
vt 0.204606 0.735632
vt 0.212202 0.733983
vt 0.199735 0.730308
vt 0.205030 0.729869
vt 0.212261 0.727260
vt 0.220941 0.724575
vt 0.220277 0.734071
vt 0.219732 0.743156
vt 0.202952 0.726026
vt 0.209380 0.723194
vt 0.217849 0.716932
vt 0.226789 0.723778
vt 0.225947 0.714323
vt 0.227626 0.735187
vt 0.233539 0.710590
vt 0.234336 0.718634
vt 0.238338 0.725111
vt 0.235083 0.730340
vt 0.234342 0.737687
vt 0.227697 0.743397
vt 0.234536 0.744589
vt 0.228053 0.749214
vt 0.219947 0.749906
vt 0.234819 0.749926
vt 0.235986 0.753705
vt 0.228205 0.753261
vt 0.220788 0.754594
vt 0.796799 0.764586
vt 0.800280 0.762830
vt 0.804209 0.763237
vt 0.800783 0.752673
vt 0.804059 0.752566
vt 0.811301 0.762204
vt 0.807666 0.774822
vt 0.808952 0.751096
vt 0.817462 0.745741
vt 0.821976 0.751860
vt 0.813862 0.777511
vt 0.820958 0.767384
vt 0.830540 0.756377
vt 0.830024 0.744909
vt 0.837368 0.749352
vt 0.825046 0.741941
vt 0.834038 0.740376
vt 0.841225 0.744008
vt 0.827159 0.738160
vt 0.816422 0.738833
vt 0.817152 0.733829
vt 0.827997 0.733980
vt 0.837323 0.735889
vt 0.820767 0.728868
vt 0.831797 0.730452
vt 0.840377 0.731307
vt 0.811381 0.728628
vt 0.809501 0.734868
vt 0.808529 0.741528
vt 0.804081 0.742994
vt 0.804575 0.735348
vt 0.806418 0.729735
vt 0.801065 0.743364
vt 0.801410 0.735041
vt 0.802801 0.730211
vt 0.241501 0.751259
vt 0.244229 0.753905
vt 0.804329 0.724319
vt 0.809355 0.722645
vt 0.815749 0.723406
vt 0.254068 0.738669
vt 0.251025 0.744567
vt 0.246199 0.742728
vt 0.247579 0.737496
vt 0.816396 0.718430
vt 0.827842 0.718476
vt 0.825365 0.724968
vt 0.840633 0.721706
vt 0.841451 0.727331
vt 0.833850 0.726789
vt 0.852313 0.726348
vt 0.848544 0.732860
vt 0.852749 0.718663
vt 0.855210 0.735795
vt 0.858801 0.729111
vt 0.862545 0.720732
vt 0.844521 0.738589
vt 0.850992 0.741597
vt 0.860411 0.738504
vt 0.857040 0.745827
vt 0.862829 0.731505
vt 0.863802 0.740388
vt 0.862481 0.746224
vt 0.866160 0.733768
vt 0.866436 0.723770
vt 0.869183 0.726760
vt 0.869092 0.735611
vt 0.872377 0.729479
vt 0.866607 0.741468
vt 0.875098 0.732633
vt 0.871177 0.737823
vt 0.869825 0.743006
vt 0.865807 0.746519
vt 0.868279 0.747171
vt 0.870420 0.748490
vt 0.872170 0.745326
vt 0.874358 0.741148
vt 0.877132 0.749411
vt 0.875403 0.752864
vt 0.872802 0.753102
vt 0.868681 0.751920
vt 0.867306 0.750825
vt 0.869968 0.755057
vt 0.873443 0.758728
vt 0.870531 0.759993
vt 0.875930 0.758234
vt 0.874456 0.765582
vt 0.872295 0.765782
vt 0.869394 0.766902
vt 0.866798 0.766679
vt 0.867830 0.760206
vt 0.867723 0.755009
vt 0.865072 0.759816
vt 0.865643 0.754602
vt 0.865365 0.750369
vt 0.862135 0.758821
vt 0.862829 0.753774
vt 0.862575 0.749988
vt 0.860119 0.752972
vt 0.859542 0.750401
vt 0.855788 0.755001
vt 0.858745 0.757504
vt 0.852673 0.752352
vt 0.847651 0.748077
vt 0.843541 0.754048
vt 0.837244 0.760879
vt 0.827428 0.771412
vt 0.868126 0.775896
vt 0.864483 0.775869
vt 0.860363 0.787769
vt 0.865080 0.787937
vt 0.871502 0.775621
vt 0.870163 0.786865
vt 0.874075 0.785497
vt 0.874322 0.773898
vt 0.876512 0.773449
vt 0.878119 0.782411
vt 0.877945 0.762256
vt 0.870900 0.795002
vt 0.874688 0.793769
vt 0.879247 0.792411
vt 0.875938 0.800849
vt 0.872934 0.801561
vt 0.882005 0.797350
vt 0.232388 0.703120
vt 0.226940 0.706741
vt 0.229522 0.697544
vt 0.233241 0.695429
vt 0.236970 0.700189
vt 0.239190 0.704315
vt 0.237570 0.693307
vt 0.878173 0.773215
vt 0.881309 0.781383
vt 0.235525 0.687967
vt 0.238540 0.684678
vt 0.241467 0.691497
vt 0.241904 0.697763
vt 0.242330 0.682480
vt 0.244594 0.689330
vt 0.244860 0.680372
vt 0.246612 0.695441
vt 0.244160 0.701273
vt 0.248812 0.699171
vt 0.248700 0.688476
vt 0.250619 0.694008
vt 0.253342 0.698650
vt 0.254546 0.692814
vt 0.257284 0.698859
vt 0.251760 0.687842
vt 0.882985 0.732670
vt 0.879024 0.744576
vt 0.877482 0.735594
vt 0.881917 0.730622
vt 0.879460 0.727215
vt 0.876825 0.723826
vt 0.881699 0.717684
vt 0.883196 0.719394
vt 0.269613 0.702369
vt 0.267543 0.703510
vt 0.259501 0.693498
vt 0.270826 0.700942
vt 0.875508 0.722610
vt 0.272574 0.709384
vt 0.275978 0.709131
vt 0.871169 0.717889
vt 0.279604 0.716455
vt 0.273967 0.717243
vt 0.865831 0.712860
vt 0.275669 0.725388
vt 0.269701 0.723964
vt 0.284412 0.721402
vt 0.288550 0.718568
vt 0.836049 0.715454
vt 0.267163 0.738181
vt 0.264913 0.729732
vt 0.263066 0.725478
vt 0.267065 0.721713
vt 0.270262 0.716480
vt 0.262679 0.723008
vt 0.264929 0.721664
vt 0.267433 0.717830
vt 0.258128 0.728468
vt 0.259499 0.724186
vt 0.258711 0.732706
vt 0.253575 0.727768
vt 0.256293 0.724478
vt 0.251055 0.732708
vt 0.249162 0.725798
vt 0.244943 0.729642
vt 0.241603 0.734628
vt 0.240948 0.740920
vt 0.241066 0.746430
vt 0.245046 0.748761
vt 0.244644 0.721287
vt 0.253273 0.721783
vt 0.250573 0.718120
vt 0.241696 0.715832
vt 0.248835 0.713405
vt 0.241919 0.711530
vt 0.247514 0.709769
vt 0.253462 0.711911
vt 0.255265 0.715581
vt 0.252297 0.708166
vt 0.242586 0.707536
vt 0.246318 0.705903
vt 0.251102 0.703854
vt 0.255922 0.706306
vt 0.256746 0.710024
vt 0.255224 0.702087
vt 0.259497 0.706230
vt 0.259839 0.703236
vt 0.260709 0.699604
vt 0.263561 0.705839
vt 0.262410 0.707529
vt 0.265546 0.704931
vt 0.265722 0.708710
vt 0.265659 0.711676
vt 0.261804 0.710648
vt 0.263173 0.713808
vt 0.259642 0.709104
vt 0.268483 0.711257
vt 0.265890 0.716957
vt 0.263880 0.716636
vt 0.259311 0.713636
vt 0.260289 0.715891
vt 0.260766 0.718499
vt 0.261342 0.720875
vt 0.259079 0.720487
vt 0.263709 0.720766
vt 0.270329 0.710280
vt 0.257063 0.718737
vt 0.880372 0.746671
vt 0.880635 0.755620
vt 0.240012 0.679120
vt 0.242968 0.674983
vt 0.878998 0.768980
vt 0.867348 0.803469
vt 0.863813 0.798511
vt 0.857095 0.798997
vt 0.202350 0.716865
vt 0.195023 0.715908
vt 0.195697 0.714002
vt 0.198491 0.711435
vt 0.206854 0.720614
vt 0.198323 0.719078
vt 0.209567 0.712858
vt 0.192788 0.717519
vt 0.190008 0.719861
vt 0.194447 0.721112
vt 0.200420 0.723272
vt 0.195624 0.724230
vt 0.191298 0.724704
vt 0.197408 0.727701
vt 0.187810 0.725842
vt 0.192713 0.712391
s 1
usemtl abyss_chancel_background_pbr
f 1/1/1 2/2/2 58/3/3 4/4/4
f 1/1/1 3/5/5 314/6/6 2/2/2
f 3/5/5 1/1/1 5/7/7 6/8/8
f 5/9/7 1/10/1 4/11/4 7/12/9
f 11/13/10 6/8/8 5/7/7 8/14/11
f 9/15/12 8/16/11 5/9/7 7/12/9
f 37/17/13 10/18/14 8/16/11 9/15/12
f 13/19/15 11/20/10 8/16/11 10/18/14
f 11/13/10 12/21/16 316/22/17 6/8/8
f 12/21/16 11/13/10 13/23/15 14/24/18
f 16/25/19 15/26/20 13/19/15 10/18/14
f 17/27/21 14/24/18 13/23/15 15/28/20
f 15/26/20 16/25/19 20/29/22 18/30/23
f 18/30/23 19/31/24 17/32/21 15/26/20
f 19/31/24 18/30/23 21/33/25 22/34/26
f 21/33/25 18/30/23 20/29/22 23/35/27
f 26/36/28 22/34/26 21/33/25 24/37/29
f 27/38/30 24/37/29 21/33/25 23/35/27
f 27/38/30 28/39/31 25/40/32 24/37/29
f 26/36/28 24/37/29 25/40/32 188/41/33
f 29/42/34 30/43/35 28/39/31 27/38/30
f 29/42/34 27/38/30 23/35/27 32/44/36
f 31/45/37 179/46/38 30/43/35 29/42/34
f 31/45/37 29/42/34 32/44/36 33/47/39
f 32/44/36 23/35/27 20/29/22 34/48/40
f 35/49/41 33/47/39 32/44/36 34/48/40
f 35/49/41 34/48/40 36/50/42 38/51/43
f 20/29/22 16/25/19 36/50/42 34/48/40
f 10/18/14 37/17/13 36/50/42 16/25/19
f 36/50/42 37/17/13 40/52/44 38/51/43
f 38/51/43 39/53/45 183/54/46 35/49/41
f 40/52/44 42/55/47 39/53/45 38/51/43
f 9/15/12 41/56/48 40/52/44 37/17/13
f 44/57/49 42/55/47 40/52/44 41/56/48
f 42/55/47 43/58/50 185/59/51 39/53/45
f 42/55/47 44/57/49 46/60/52 43/58/50
f 45/61/53 44/57/49 41/56/48 60/62/54
f 45/61/53 47/63/55 46/60/52 44/57/49
f 49/64/56 43/58/50 46/60/52 47/63/55
f 47/63/55 48/65/57 51/66/58 49/64/56
f 47/63/55 45/61/53 59/67/59 48/65/57
f 49/64/56 50/68/60 185/59/51 43/58/50
f 51/66/58 52/69/61 50/68/60 49/64/56
f 56/70/62 53/71/63 51/66/58 48/65/57
f 55/72/64 52/69/61 51/66/58 53/71/63
f 56/70/62 58/73/3 54/74/65 53/71/63
f 55/72/64 53/71/63 54/74/65 62/75/66
f 57/76/67 4/11/4 58/73/3 56/70/62
f 56/70/62 48/65/57 59/67/59 57/76/67
f 2/2/2 65/77/68 54/78/65 58/3/3
f 60/62/54 57/76/67 59/67/59 45/61/53
f 60/62/54 7/12/9 4/11/4 57/76/67
f 7/12/9 60/62/54 41/56/48 9/15/12
f 61/79/69 91/80/70 52/69/61 55/72/64
f 63/81/71 61/79/69 55/72/64 62/75/66
f 62/82/66 64/83/72 66/84/73 63/85/71
f 54/78/65 65/77/68 64/83/72 62/82/66
f 68/86/74 67/87/75 64/83/72 65/77/68
f 67/87/75 70/88/76 66/84/73 64/83/72
f 67/87/75 68/86/74 318/89/77 69/90/78
f 69/90/78 72/91/79 70/88/76 67/87/75
f 74/92/80 71/93/81 70/88/76 72/91/79
f 71/93/81 83/94/82 66/84/73 70/88/76
f 310/95/83 73/96/84 72/91/79 69/90/78
f 72/91/79 73/96/84 75/97/85 74/92/80
f 76/98/86 74/92/80 75/97/85 77/99/87
f 71/93/81 74/92/80 76/98/86 80/100/88
f 76/98/86 77/99/87 204/101/89 78/102/90
f 252/103/91 79/104/92 76/98/86 78/102/90
f 81/105/93 80/100/88 76/98/86 79/104/92
f 71/93/81 80/100/88 82/106/94 83/94/82
f 81/105/93 84/107/95 82/106/94 80/100/88
f 82/106/94 85/108/96 88/109/97 83/94/82
f 86/110/98 85/108/96 82/106/94 84/107/95
f 86/110/98 118/111/99 87/112/100 85/108/96
f 88/109/97 85/108/96 87/112/100 89/113/101
f 66/84/73 83/94/82 88/109/97 63/85/71
f 61/79/69 63/81/71 88/114/97 89/115/101
f 90/116/102 91/80/70 61/79/69 89/115/101
f 90/116/102 89/115/101 87/117/100 92/118/103
f 91/80/70 90/116/102 93/119/104 95/120/105
f 92/118/103 94/121/106 93/119/104 90/116/102
f 99/122/107 97/123/108 93/119/104 94/121/106
f 184/124/109 95/120/105 93/119/104 96/125/110
f 98/126/111 96/125/110 93/119/104 97/123/108
f 97/123/108 100/127/112 102/128/113 98/126/111
f 97/123/108 99/122/107 103/129/114 100/127/112
f 101/130/115 186/131/116 102/128/113 100/127/112
f 101/130/115 100/127/112 103/129/114 104/132/117
f 105/133/118 104/132/117 103/129/114 99/122/107
f 105/133/118 109/134/119 106/135/120 104/132/117
f 104/132/117 106/135/120 108/136/121 101/130/115
f 110/137/122 107/138/123 106/135/120 109/134/119
f 107/138/123 129/139/124 108/136/121 106/135/120
f 113/140/125 110/137/122 109/134/119 111/141/126
f 112/142/127 111/141/126 109/134/119 105/133/118
f 112/142/127 117/143/128 114/144/129 111/141/126
f 114/144/129 116/145/130 113/140/125 111/141/126
f 118/146/99 115/147/131 114/144/129 117/143/128
f 115/147/131 119/148/132 116/145/130 114/144/129
f 94/121/106 92/118/103 117/143/128 112/142/127
f 87/117/100 118/146/99 117/143/128 92/118/103
f 118/111/99 86/110/98 251/149/133 115/150/131
f 121/151/134 120/152/135 116/145/130 119/148/132
f 120/152/135 123/153/136 113/140/125 116/145/130
f 122/154/137 120/155/135 121/156/134 247/157/138
f 120/152/135 122/158/137 124/159/139 123/153/136
f 125/160/140 123/153/136 124/159/139 126/161/141
f 125/160/140 110/137/122 113/140/125 123/153/136
f 126/161/141 128/162/142 127/163/143 125/160/140
f 110/137/122 125/160/140 127/163/143 107/138/123
f 129/139/124 107/138/123 127/163/143 128/162/142
f 129/139/124 128/162/142 130/164/144 133/165/145
f 126/161/141 132/166/146 130/164/144 128/162/142
f 135/167/147 133/165/145 130/164/144 131/168/148
f 130/164/144 132/166/146 233/169/149 131/168/148
f 108/136/121 129/139/124 133/165/145 134/170/150
f 136/171/151 134/170/150 133/165/145 135/167/147
f 135/167/147 137/172/152 138/173/153 136/171/151
f 137/172/152 135/167/147 131/168/148 140/174/154
f 139/175/155 173/176/156 138/173/153 137/172/152
f 137/172/152 140/174/154 142/177/157 139/175/155
f 140/174/154 141/178/158 143/179/159 142/177/157
f 140/174/154 131/168/148 233/169/149 141/178/158
f 144/180/160 142/177/157 143/179/159 146/181/161
f 147/182/162 139/175/155 142/177/157 144/180/160
f 223/183/163 145/184/164 144/180/160 146/181/161
f 145/184/164 149/185/165 147/182/162 144/180/160
f 173/176/156 139/175/155 147/182/162 148/186/166
f 150/187/167 148/186/166 147/182/162 149/185/165
f 154/188/168 150/187/167 149/185/165 151/189/169
f 149/185/165 145/184/164 153/190/170 151/189/169
f 153/190/170 297/191/171 152/192/172 151/189/169
f 154/188/168 151/189/169 152/192/172 156/193/173
f 150/187/167 154/188/168 155/194/174 167/195/175
f 156/193/173 157/196/176 155/194/174 154/188/168
f 157/196/176 156/193/173 158/197/177 161/198/178
f 152/192/172 159/199/179 158/197/177 156/193/173
f 159/199/179 197/200/180 160/201/181 158/197/177
f 161/198/178 158/197/177 160/201/181 162/202/182
f 161/198/178 162/202/182 165/203/183 163/204/184
f 157/196/176 161/198/178 163/204/184 166/205/185
f 165/203/183 188/41/33 164/206/186 163/204/184
f 163/204/184 164/206/186 168/207/187 166/205/185
f 166/205/185 167/195/175 155/194/174 157/196/176
f 166/205/185 168/207/187 170/208/188 167/195/175
f 187/209/189 169/210/190 168/207/187 164/206/186
f 169/210/190 171/211/191 170/208/188 168/207/187
f 167/195/175 170/208/188 148/186/166 150/187/167
f 171/211/191 173/176/156 148/186/166 170/208/188
f 171/211/191 169/210/190 174/212/192 172/213/193
f 171/211/191 172/213/193 138/173/153 173/176/156
f 175/214/194 172/213/193 174/212/192 176/215/195
f 175/214/194 177/216/196 138/173/153 172/213/193
f 175/214/194 176/215/195 28/39/31 30/43/35
f 177/216/196 175/214/194 30/43/35 179/46/38
f 178/217/197 136/171/151 138/173/153 177/216/196
f 178/217/197 177/216/196 179/46/38 180/218/198
f 181/219/199 180/218/198 179/46/38 31/45/37
f 98/126/111 102/128/113 180/218/198 181/219/199
f 186/131/116 178/217/197 180/218/198 102/128/113
f 33/47/39 182/220/200 181/219/199 31/45/37
f 96/125/110 98/126/111 181/219/199 182/220/200
f 35/49/41 183/54/46 182/220/200 33/47/39
f 184/124/109 96/125/110 182/220/200 183/54/46
f 185/59/51 184/124/109 183/54/46 39/53/45
f 95/120/105 184/124/109 185/59/51 50/68/60
f 136/171/151 178/217/197 186/131/116 134/170/150
f 186/131/116 101/130/115 108/136/121 134/170/150
f 176/215/195 187/209/189 25/40/32 28/39/31
f 187/209/189 176/215/195 174/212/192 169/210/190
f 25/40/32 187/209/189 164/206/186 188/41/33
f 191/221/201 189/222/202 165/203/183 162/202/182
f 165/203/183 189/222/202 26/36/28 188/41/33
f 190/223/203 22/34/26 26/36/28 189/222/202
f 189/222/202 191/221/201 192/224/204 190/223/203
f 193/225/205 194/226/206 192/224/204 191/221/201
f 162/202/182 160/201/181 193/225/205 191/221/201
f 198/227/207 194/226/206 193/225/205 195/228/208
f 197/200/180 195/228/208 193/225/205 160/201/181
f 196/229/209 199/230/210 198/227/207 195/228/208
f 195/228/208 197/200/180 299/231/211 196/229/209
f 201/232/212 194/226/206 198/227/207 200/233/213
f 202/234/214 200/233/213 198/227/207 199/230/210
f 201/232/212 200/233/213 75/235/85 300/236/215
f 202/234/214 77/237/87 75/235/85 200/233/213
f 203/238/216 202/239/214 199/240/210 206/241/217
f 202/239/214 203/238/216 204/101/89 77/99/87
f 205/242/218 295/243/219 204/101/89 203/238/216
f 205/242/218 203/238/216 206/241/217 208/244/220
f 199/230/210 196/229/209 207/245/221 206/246/217
f 208/244/220 206/241/217 207/247/221 209/248/222
f 205/242/218 208/244/220 210/249/223 213/250/224
f 208/244/220 209/248/222 211/251/225 210/249/223
f 212/252/226 210/249/223 211/251/225 296/253/227
f 215/254/228 213/250/224 210/249/223 212/252/226
f 295/243/219 205/242/218 213/250/224 214/255/229
f 216/256/230 214/255/229 213/250/224 215/254/228
f 215/254/228 212/252/226 220/257/231 217/258/232
f 217/258/232 218/259/233 216/256/230 215/254/228
f 218/259/233 217/258/232 219/260/234 268/261/235
f 219/260/234 217/258/232 220/257/231 222/262/236
f 212/263/226 296/264/227 221/265/237 220/266/231
f 222/267/236 220/266/231 221/265/237 223/183/163
f 222/267/236 223/183/163 146/181/161 224/268/238
f 224/268/238 225/269/239 219/270/234 222/267/236
f 226/271/240 227/272/241 225/273/239 224/274/238
f 146/181/161 143/179/159 226/275/240 224/268/238
f 229/276/242 227/272/241 226/271/240 228/277/243
f 141/178/158 228/278/243 226/275/240 143/179/159
f 228/277/243 230/279/244 231/280/245 229/276/242
f 141/178/158 233/169/149 230/281/244 228/278/243
f 232/282/246 234/283/247 231/280/245 230/279/244
f 132/284/146 232/282/246 230/279/244 233/285/149
f 132/166/146 126/161/141 124/159/139 232/286/246
f 234/283/247 232/282/246 124/287/139 235/288/248
f 239/289/249 236/290/250 234/283/247 235/288/248
f 236/290/250 238/291/251 231/280/245 234/283/247
f 239/289/249 240/292/252 237/293/253 236/290/250
f 238/291/251 236/290/250 237/293/253 284/294/254
f 239/289/249 241/295/255 243/296/256 240/292/252
f 235/288/248 244/297/257 241/295/255 239/289/249
f 241/295/255 242/298/258 289/299/259 243/296/256
f 241/295/255 244/297/257 245/300/260 242/298/258
f 122/154/137 247/157/138 245/300/260 244/297/257
f 244/297/257 235/288/248 124/287/139 122/154/137
f 253/301/261 242/298/258 245/300/260 246/302/262
f 245/300/260 247/157/138 248/303/263 246/302/262
f 248/303/263 247/157/138 121/156/134 249/304/264
f 252/103/91 246/302/262 248/303/263 79/104/92
f 81/105/93 79/104/92 248/303/263 249/304/264
f 84/107/95 81/105/93 249/304/264 250/305/265
f 250/305/265 249/304/264 121/156/134 119/306/132
f 119/306/132 115/150/131 251/149/133 250/305/265
f 84/107/95 250/305/265 251/149/133 86/110/98
f 252/103/91 255/307/266 253/301/261 246/302/262
f 289/299/259 242/298/258 253/301/261 254/308/267
f 256/309/268 254/308/267 253/301/261 255/307/266
f 257/310/269 259/311/270 256/309/268 255/307/266
f 78/102/90 257/310/269 255/307/266 252/103/91
f 258/312/271 261/313/272 259/311/270 257/310/269
f 257/310/269 78/102/90 204/101/89 258/312/271
f 260/314/273 290/315/274 256/309/268 259/311/270
f 263/316/275 260/314/273 259/311/270 261/313/272
f 261/313/272 258/312/271 294/317/276 262/318/277
f 261/313/272 262/318/277 265/319/278 263/316/275
f 263/316/275 264/320/279 292/321/280 260/314/273
f 264/320/279 263/316/275 265/319/278 266/322/281
f 262/318/277 214/255/229 216/256/230 265/319/278
f 266/322/281 265/319/278 216/256/230 218/259/233
f 269/323/282 264/320/279 266/322/281 267/324/283
f 268/261/235 267/324/283 266/322/281 218/259/233
f 271/325/284 270/326/285 267/324/283 268/261/235
f 273/327/286 269/323/282 267/324/283 270/326/285
f 287/328/287 272/329/288 270/326/285 271/325/284
f 275/330/289 273/327/286 270/326/285 272/329/288
f 274/331/290 273/327/286 275/330/289 277/332/291
f 273/327/286 274/331/290 293/333/292 269/323/282
f 285/334/293 276/335/294 275/330/289 272/329/288
f 279/336/295 277/332/291 275/330/289 276/335/294
f 291/337/296 274/331/290 277/332/291 278/338/297
f 277/332/291 279/336/295 280/339/298 278/338/297
f 281/340/299 282/341/300 280/339/298 279/336/295
f 281/340/299 279/336/295 276/335/294 283/342/301
f 281/340/299 243/296/256 289/299/259 282/341/300
f 283/342/301 240/292/252 243/296/256 281/340/299
f 283/342/301 284/294/254 237/293/253 240/292/252
f 284/294/254 283/342/301 276/335/294 285/334/293
f 238/291/251 284/294/254 285/334/293 286/343/302
f 287/328/287 286/343/302 285/334/293 272/329/288
f 227/272/241 229/276/242 286/343/302 287/328/287
f 231/280/245 238/291/251 286/343/302 229/276/242
f 287/328/287 271/325/284 225/273/239 227/272/241
f 288/344/303 278/338/297 280/339/298 282/341/300
f 288/344/303 282/341/300 289/299/259 254/308/267
f 291/337/296 278/338/297 288/344/303 290/315/274
f 288/344/303 254/308/267 256/309/268 290/315/274
f 290/315/274 260/314/273 292/321/280 291/337/296
f 274/331/290 291/337/296 292/321/280 293/333/292
f 269/323/282 293/333/292 292/321/280 264/320/279
f 271/325/284 268/261/235 219/260/234 225/273/239
f 214/255/229 262/318/277 294/317/276 295/243/219
f 204/101/89 295/243/219 294/317/276 258/312/271
f 223/183/163 221/265/237 153/190/170 145/184/164
f 296/264/227 297/191/171 153/190/170 221/265/237
f 297/191/171 296/264/227 211/345/225 298/346/304
f 298/346/304 159/199/179 152/192/172 297/191/171
f 159/199/179 298/346/304 299/231/211 197/200/180
f 211/251/225 209/248/222 299/347/211 298/348/304
f 299/231/211 209/349/222 207/245/221 196/229/209
f 201/232/212 300/236/215 303/350/305 301/351/306
f 201/232/212 301/351/306 192/224/204 194/226/206
f 192/224/204 301/351/306 302/352/307 190/223/203
f 303/353/305 304/354/308 302/355/307 301/356/306
f 308/357/309 305/358/310 303/353/305 300/359/215
f 306/360/311 304/354/308 303/353/305 305/358/310
f 317/361/312 306/360/311 305/358/310 307/362/313
f 309/363/314 307/362/313 305/358/310 308/357/309
f 308/357/309 300/359/215 75/97/85 73/96/84
f 310/95/83 309/363/314 308/357/309 73/96/84
f 307/362/313 309/363/314 311/364/315 313/365/316
f 310/95/83 312/366/317 311/364/315 309/363/314
f 311/364/315 312/366/317 314/6/6 313/365/316
f 315/367/318 313/365/316 314/6/6 3/5/5
f 313/365/316 315/367/318 317/361/312 307/362/313
f 317/361/312 315/367/318 316/22/17 12/21/16
f 3/5/5 6/8/8 316/22/17 315/367/318
f 12/21/16 14/24/18 306/360/311 317/361/312
f 65/77/68 2/2/2 314/6/6 68/86/74
f 318/89/77 68/86/74 314/6/6 312/366/317
f 310/95/83 69/90/78 318/89/77 312/366/317
f 306/360/311 14/24/18 17/27/21 304/354/308
f 302/355/307 304/354/308 17/27/21 19/368/24
f 22/34/26 190/223/203 302/352/307 19/31/24
f 99/122/107 94/121/106 112/142/127 105/133/118
f 91/80/70 95/120/105 50/68/60 52/69/61
