# Blender 5.2.0 LTS
# www.blender.org
mtllib terrain-abyss-chancel-object-040.mtl
o terrain-abyss-chancel-object-040
v -0.548077 0.257221 -0.042078
v -0.544030 0.257710 -0.032280
v -0.554160 0.265082 -0.037047
v -0.556853 0.256281 -0.050367
v -0.546920 0.245878 -0.043628
v -0.541292 0.245980 -0.033414
v -0.549858 0.232426 -0.046544
v -0.553921 0.246661 -0.051333
v -0.561851 0.238132 -0.059044
v -0.569723 0.252156 -0.057750
v -0.564482 0.222777 -0.061926
v -0.579636 0.236362 -0.068316
v -0.579151 0.223424 -0.069527
v -0.584526 0.250052 -0.064458
v -0.593097 0.235218 -0.070923
v -0.602877 0.232260 -0.064933
v -0.591268 0.222625 -0.073853
v -0.596613 0.247483 -0.065423
v -0.604898 0.243646 -0.059798
v -0.600783 0.256833 -0.057458
v -0.609440 0.254533 -0.057465
v -0.605033 0.258055 -0.047484
v -0.590524 0.258300 -0.054750
v -0.577202 0.260729 -0.049901
v -0.595971 0.260875 -0.043713
v -0.602806 0.261950 -0.030309
v -0.583379 0.263409 -0.038545
v -0.590862 0.264140 -0.024796
v -0.570619 0.265527 -0.032095
v -0.563440 0.263470 -0.043755
v -0.561836 0.266889 -0.026471
v -0.579439 0.264903 -0.018022
v -0.571169 0.264600 -0.011935
v -0.589072 0.260377 -0.001681
v -0.579908 0.259447 0.002980
v -0.595709 0.260139 0.012242
v -0.600612 0.261208 -0.007291
v -0.606800 0.259878 0.006368
v -0.611970 0.260715 -0.012699
v -0.621096 0.257944 -0.017005
v -0.617596 0.259293 0.001584
v -0.621502 0.258775 0.013148
v -0.627112 0.256885 -0.001755
v -0.630531 0.256570 0.010238
v -0.632251 0.247974 -0.003809
v -0.626288 0.249487 -0.019728
v -0.631739 0.234929 -0.003498
v -0.636816 0.247143 0.008553
v -0.635885 0.247818 0.020543
v -0.637301 0.235220 0.010003
v -0.637366 0.237986 0.021641
v -0.639109 0.222736 0.013152
v -0.638684 0.209793 0.011701
v -0.631670 0.222569 -0.003048
v -0.639078 0.227212 0.025513
v -0.651926 0.217765 0.022287
v -0.650928 0.208152 0.020201
v -0.661927 0.215267 0.028221
v -0.649109 0.221307 0.033956
v -0.638962 0.222033 0.039089
v -0.651246 0.220056 0.045722
v -0.661586 0.216672 0.036947
v -0.660597 0.216113 0.047460
v -0.665305 0.206480 0.038337
v -0.663296 0.206210 0.027610
v -0.662638 0.206761 0.048612
v -0.663398 0.195757 0.039655
v -0.649225 0.186796 0.040370
v -0.660289 0.196934 0.049777
v -0.661681 0.196511 0.027294
v -0.656456 0.188541 0.028969
v -0.649244 0.198112 0.020320
v -0.645569 0.189477 0.022554
v -0.638728 0.199304 0.011607
v -0.631796 0.199461 -0.003210
v -0.636268 0.190889 0.013125
v -0.629540 0.190727 -0.002453
v -0.628836 0.187806 0.017146
v -0.621791 0.187934 0.000954
v -0.621075 0.187828 0.021134
v -0.638356 0.186923 0.029762
v -0.629158 0.187117 0.034683
v -0.617724 0.192327 0.037320
v -0.636201 0.187633 0.045654
v -0.625405 0.190840 0.047807
v -0.639184 0.190265 0.053611
v -0.649971 0.190528 0.051485
v -0.641600 0.195727 0.060309
v -0.629542 0.193237 0.055160
v -0.624205 0.199765 0.052640
v -0.633153 0.197400 0.061201
v -0.627197 0.201788 0.058876
v -0.635824 0.203527 0.065498
v -0.629984 0.206131 0.063026
v -0.637713 0.210982 0.067456
v -0.643314 0.202083 0.065533
v -0.644810 0.208907 0.068595
v -0.650511 0.200858 0.065779
v -0.651538 0.207432 0.068588
v -0.656218 0.200938 0.065418
v -0.649594 0.194343 0.060022
v -0.657651 0.198639 0.058811
v -0.659059 0.207335 0.057712
v -0.655749 0.207320 0.065140
v -0.657102 0.215385 0.057127
v -0.650293 0.219031 0.055298
v -0.654269 0.214163 0.064490
v -0.648225 0.217896 0.063390
v -0.652540 0.213530 0.070812
v -0.646145 0.215135 0.070332
v -0.638745 0.216962 0.068223
v -0.630101 0.219376 0.066045
v -0.640184 0.219210 0.061964
v -0.630612 0.219729 0.060695
v -0.641327 0.219927 0.054556
v -0.641425 0.220714 0.046557
v -0.632279 0.219610 0.054312
v -0.626899 0.214975 0.054622
v -0.632180 0.220142 0.048063
v -0.629984 0.221557 0.042198
v -0.625349 0.215821 0.048931
v -0.623253 0.208089 0.049699
v -0.623264 0.216697 0.042613
v -0.621946 0.208233 0.042701
v -0.619449 0.218080 0.037090
v -0.624252 0.226147 0.036490
v -0.611432 0.219662 0.040890
v -0.617383 0.208480 0.037964
v -0.617126 0.200435 0.038993
v -0.610596 0.209257 0.040803
v -0.609698 0.200415 0.040409
v -0.602668 0.209100 0.046340
v -0.592981 0.208194 0.051737
v -0.600838 0.198691 0.045087
v -0.602994 0.220116 0.046888
v -0.603032 0.231505 0.047112
v -0.593333 0.219578 0.052449
v -0.593882 0.231609 0.052618
v -0.583342 0.219341 0.054328
v -0.582726 0.207572 0.053179
v -0.584036 0.231573 0.054723
v -0.576881 0.219530 0.046388
v -0.576902 0.208164 0.045397
v -0.576827 0.231311 0.046519
v -0.571827 0.219297 0.036020
v -0.571399 0.230909 0.035785
v -0.566385 0.219111 0.021745
v -0.572219 0.208223 0.035343
v -0.574500 0.198172 0.034416
v -0.566947 0.208344 0.021338
v -0.569079 0.198537 0.020852
v -0.563052 0.209097 0.006757
v -0.563538 0.199777 0.006100
v -0.562632 0.219755 0.007454
v -0.553584 0.208697 -0.007522
v -0.553399 0.220487 -0.007780
v -0.546620 0.206945 -0.021909
v -0.553989 0.199780 -0.007551
v -0.558208 0.193822 -0.010313
v -0.547638 0.198797 -0.022213
v -0.553608 0.194179 -0.023689
v -0.549786 0.198343 -0.037441
v -0.548334 0.206328 -0.037339
v -0.556364 0.193559 -0.035761
v -0.557547 0.198604 -0.051390
v -0.569710 0.200062 -0.061781
v -0.564211 0.192850 -0.046691
v -0.555035 0.207686 -0.051662
v -0.553179 0.219326 -0.049928
v -0.567181 0.210570 -0.063124
v -0.579505 0.211932 -0.069741
v -0.590070 0.211241 -0.072890
v -0.581577 0.202087 -0.067953
v -0.588796 0.204235 -0.070672
v -0.586365 0.195226 -0.062501
v -0.594186 0.201241 -0.066840
v -0.575175 0.193045 -0.055659
v -0.594347 0.192441 -0.053307
v -0.584363 0.190944 -0.046026
v -0.605035 0.190962 -0.040204
v -0.602545 0.197871 -0.058897
v -0.613164 0.194454 -0.044878
v -0.606409 0.207466 -0.059598
v -0.598808 0.210182 -0.068561
v -0.616804 0.203500 -0.045066
v -0.608484 0.217942 -0.058087
v -0.617966 0.213939 -0.043203
v -0.600532 0.220898 -0.067289
v -0.610477 0.229213 -0.055501
v -0.618684 0.226140 -0.041065
v -0.612390 0.241011 -0.053069
v -0.610864 0.252027 -0.050446
v -0.619461 0.238880 -0.039403
v -0.626623 0.236578 -0.020559
v -0.618839 0.250789 -0.037999
v -0.612487 0.259593 -0.034701
v -0.625930 0.223416 -0.021243
v -0.625848 0.210986 -0.022475
v -0.625914 0.200447 -0.023407
v -0.632071 0.210216 -0.003241
v -0.622854 0.191736 -0.022859
v -0.614976 0.188881 -0.019982
v -0.606308 0.188910 -0.016101
v -0.595731 0.189856 -0.033586
v -0.613751 0.188260 0.004476
v -0.595973 0.189715 -0.010960
v -0.604897 0.188654 0.008330
v -0.585081 0.190202 -0.026150
v -0.584780 0.190476 -0.005371
v -0.594383 0.189250 0.011947
v -0.575562 0.191517 -0.000922
v -0.574461 0.191107 -0.019564
v -0.565770 0.191753 -0.014602
v -0.565011 0.191776 -0.030883
v -0.560147 0.192294 -0.023581
v -0.573761 0.191237 -0.038404
v -0.584354 0.189893 0.015196
v -0.567910 0.193929 0.003296
v -0.575461 0.192120 0.018535
v -0.581259 0.191806 0.032083
v -0.590521 0.189392 0.029089
v -0.586022 0.192493 0.041371
v -0.578943 0.198068 0.043356
v -0.590914 0.197701 0.049228
v -0.595779 0.190812 0.039285
v -0.606685 0.191853 0.037155
v -0.600818 0.188415 0.026259
v -0.611301 0.188252 0.024070
v -0.582729 0.199240 0.048909
v -0.547406 0.217728 -0.035783
v -0.543474 0.230823 -0.034637
v -0.546621 0.218971 -0.021727
v -0.545517 0.232777 -0.021797
v -0.553576 0.233643 -0.007261
v -0.545620 0.246219 -0.020180
v -0.554318 0.245094 -0.005739
v -0.547804 0.257804 -0.019334
v -0.553801 0.265484 -0.021589
v -0.557190 0.255262 -0.004511
v -0.565058 0.251950 0.009141
v -0.563621 0.262741 -0.006579
v -0.571608 0.257581 0.006830
v -0.576173 0.258410 0.019376
v -0.581530 0.258348 0.031462
v -0.585545 0.259872 0.016586
v -0.568942 0.252779 0.021195
v -0.565532 0.242297 0.022286
v -0.573896 0.253525 0.033232
v -0.571601 0.242329 0.034847
v -0.573693 0.256379 0.041449
v -0.576692 0.242497 0.045694
v -0.587278 0.258062 0.041251
v -0.585653 0.252746 0.052100
v -0.593807 0.252987 0.050872
v -0.584944 0.242783 0.055480
v -0.594582 0.242930 0.052800
v -0.603554 0.242881 0.047490
v -0.613129 0.241762 0.040828
v -0.602547 0.253647 0.045970
v -0.612678 0.252005 0.039125
v -0.596930 0.259184 0.038307
v -0.591006 0.259792 0.028407
v -0.608440 0.258319 0.032719
v -0.602023 0.259916 0.023503
v -0.618257 0.258178 0.026981
v -0.622690 0.251340 0.033811
v -0.612284 0.259479 0.017479
v -0.626109 0.256382 0.022314
v -0.631649 0.254808 0.018429
v -0.630157 0.249542 0.027878
v -0.631314 0.238187 0.029672
v -0.623080 0.239153 0.035100
v -0.633751 0.226575 0.032186
v -0.612352 0.230154 0.040843
v -0.565920 0.230512 0.022280
v -0.563038 0.242193 0.009044
v -0.562631 0.231465 0.008117
v -0.549141 0.264612 -0.031129
v -0.622033 0.199566 0.045257
v -0.624938 0.207943 0.055959
v -0.627473 0.208771 0.059954
v -0.627627 0.214190 0.060032
v -0.631321 0.213375 0.064202
vn 0.6934 0.4688 -0.5472
vn 0.9001 0.4296 -0.0729
vn 0.9937 0.0498 -0.1006
vn 0.8147 0.0710 -0.5755
vn 0.3098 0.8940 -0.3239
vn 0.5764 0.8158 -0.0469
vn 0.4342 0.5274 -0.7303
vn 0.1124 0.8889 -0.4442
vn 0.6362 0.1490 -0.7570
vn 0.8134 -0.0748 -0.5769
vn 0.9762 -0.1438 -0.1621
vn 0.5598 0.1433 -0.8161
vn 0.2935 0.5417 -0.7877
vn 0.8162 -0.0629 -0.5744
vn 0.5941 0.0133 -0.8043
vn 0.1540 0.5563 -0.8166
vn 0.3067 0.2417 -0.9206
vn 0.3735 0.0639 -0.9254
vn -0.1317 0.0533 -0.9899
vn -0.2066 0.2297 -0.9511
vn -0.2362 0.4259 -0.8734
vn -0.6524 0.1555 -0.7417
vn -0.6685 0.0983 -0.7372
vn -0.6536 -0.0043 -0.7568
vn -0.6693 0.4940 -0.5550
vn -0.2745 0.7778 -0.5655
vn -0.0225 0.8741 -0.4852
vn -0.3629 0.9004 -0.2400
vn -0.7785 0.4656 -0.4210
vn -0.1318 0.9693 -0.2076
vn 0.0371 0.8840 -0.4659
vn -0.0907 0.9803 -0.1754
vn -0.4722 0.8487 -0.2382
vn -0.1728 0.9815 -0.0821
vn -0.1107 0.9939 0.0027
vn -0.0886 0.9913 0.0975
vn -0.0688 0.9912 -0.1135
vn 0.0257 0.9996 0.0075
vn -0.0238 0.9765 0.2142
vn -0.0769 0.9936 0.0822
vn -0.0310 0.9920 0.1227
vn 0.0401 0.9862 0.1606
vn 0.0060 0.9997 0.0246
vn 0.0935 0.9951 0.0319
vn -0.0466 0.9983 0.0356
vn -0.1823 0.9832 0.0098
vn -0.1617 0.9868 0.0046
vn -0.5522 0.8170 -0.1659
vn -0.5697 0.8075 -0.1531
vn -0.5861 0.8093 -0.0396
vn -0.1934 0.9801 0.0438
vn -0.0927 0.9944 0.0498
vn -0.8927 0.3179 -0.3194
vn -0.9100 0.2770 -0.3085
vn -0.9460 0.2811 -0.1613
vn -0.9434 0.0046 -0.3317
vn -0.9386 -0.0121 -0.3448
vn -0.9762 0.0518 -0.2106
vn -0.8840 0.3610 0.2970
vn -0.6340 0.7440 0.2112
vn -0.9410 0.1831 0.2846
vn -0.9352 0.0095 -0.3541
vn -0.8860 0.2130 -0.4119
vn -0.7477 0.6368 0.1883
vn -0.5552 0.0248 -0.8314
vn -0.5913 0.5548 -0.5853
vn -0.7831 0.0162 -0.6217
vn -0.9343 0.0125 -0.3562
vn -0.3378 0.9411 0.0160
vn -0.8426 0.0279 -0.5379
vn -0.7219 0.5339 -0.4402
vn -0.7253 0.6884 -0.0112
vn -0.4345 0.6587 0.6142
vn -0.1348 0.9502 0.2809
vn -0.0405 0.9912 0.1260
vn -0.2447 0.9636 0.1082
vn -0.7338 0.6475 0.2056
vn -0.9976 0.0527 0.0450
vn -0.9556 0.0567 0.2891
vn -0.7595 -0.3969 -0.5153
vn -0.8545 -0.5045 0.1239
vn -0.7884 -0.5251 0.3206
vn -0.4828 -0.8086 -0.3363
vn -0.2688 -0.9573 0.1066
vn -0.3007 -0.8847 0.3561
vn -0.5351 -0.2333 -0.8119
vn -0.3447 -0.7823 -0.5188
vn -0.7742 -0.1875 -0.6046
vn -0.5334 -0.7394 -0.4108
vn -0.9228 -0.1538 -0.3534
vn -0.6550 -0.7075 -0.2652
vn -0.0973 -0.9901 -0.1015
vn -0.0446 -0.9945 -0.0948
vn -0.1297 -0.9887 -0.0748
vn 0.0815 -0.9952 0.0535
vn 0.0437 -0.9990 -0.0133
vn 0.1510 -0.9836 0.0989
vn 0.1064 -0.9670 0.2313
vn 0.3082 -0.7659 0.5643
vn 0.5819 -0.7067 0.4025
vn 0.0550 -0.9905 0.1259
vn 0.4781 -0.6855 0.5490
vn 0.0530 -0.8848 0.4629
vn 0.0670 -0.7242 0.6864
vn -0.1841 -0.8022 0.5679
vn 0.3444 -0.5806 0.7378
vn 0.8730 -0.0876 0.4798
vn 0.8834 -0.2218 0.4128
vn 0.7566 -0.2609 0.5996
vn 0.6304 -0.1458 0.7625
vn 0.2962 -0.3556 0.8865
vn 0.1061 -0.4836 0.8688
vn 0.6599 -0.0619 0.7488
vn 0.3113 -0.1851 0.9321
vn 0.1487 -0.2812 0.9481
vn -0.2951 -0.2508 0.9219
vn -0.1201 -0.5368 0.8351
vn -0.8136 -0.0057 0.5814
vn -0.6343 -0.3883 0.6685
vn -0.7477 -0.5058 0.4302
vn -0.9319 0.0773 0.3544
vn -0.7134 0.5606 0.4206
vn -0.7143 0.6225 0.3197
vn -0.2627 0.9490 0.1743
vn -0.2483 0.9277 0.2788
vn -0.4697 0.3010 0.8300
vn -0.0225 0.4493 0.8931
vn 0.1488 0.5190 0.8418
vn -0.0827 0.9764 0.1996
vn 0.5281 0.5286 0.6646
vn 0.5198 0.8341 0.1847
vn 0.3424 0.9361 0.0803
vn -0.0415 0.9943 0.0979
vn 0.2711 0.9407 0.2040
vn 0.9067 0.2602 0.3318
vn 0.8356 0.5153 0.1904
vn 0.7806 0.5612 0.2753
vn 0.2088 0.8631 0.4597
vn 0.7171 0.4464 0.5353
vn 0.8646 0.1486 0.4799
vn 0.9534 0.1209 0.2763
vn 0.9222 0.0816 0.3780
vn 0.1008 0.1586 0.9822
vn -0.2112 0.3601 0.9087
vn 0.2102 0.0912 0.9734
vn -0.4789 -0.0481 0.8766
vn -0.4846 -0.0189 0.8745
vn -0.4541 -0.0516 0.8895
vn -0.3164 -0.2472 0.9158
vn 0.3531 -0.0810 0.9321
vn -0.3884 -0.4478 0.8053
vn -0.5136 -0.1229 0.8492
vn -0.5364 -0.0440 0.8428
vn -0.1149 -0.5731 0.8114
vn -0.3010 -0.1830 0.9359
vn -0.3450 -0.0532 0.9371
vn -0.3680 -0.0422 0.9289
vn -0.5362 -0.0383 0.8432
vn 0.3431 -0.0436 0.9383
vn 0.3227 -0.0153 0.9464
vn 0.3787 -0.2092 0.9016
vn 0.8443 -0.1526 0.5138
vn 0.8415 -0.0236 0.5397
vn 0.8339 0.0139 0.5517
vn 0.9095 -0.1462 0.3891
vn 0.9155 -0.0410 0.4002
vn 0.9103 -0.0028 0.4139
vn 0.9517 -0.0473 0.3032
vn 0.9517 -0.0184 0.3063
vn 0.9417 -0.1227 0.3133
vn 0.6743 -0.5573 0.4844
vn 0.7835 -0.5163 0.3458
vn 0.8290 -0.4770 0.2919
vn 0.8150 -0.4163 0.4031
vn 0.9062 -0.0754 0.4160
vn 0.9204 -0.0356 0.3892
vn 0.8702 -0.0450 0.4906
vn 0.8000 -0.3917 0.4545
vn 0.8731 -0.0242 0.4869
vn 0.9699 -0.0694 0.2334
vn 0.9828 -0.0701 0.1711
vn 0.8789 -0.4561 0.1395
vn 0.4598 -0.8529 0.2474
vn 0.4738 -0.8788 0.0567
vn 0.4563 -0.8631 0.2163
vn 0.3946 -0.9089 -0.1353
vn 0.8128 -0.5195 -0.2634
vn 0.9546 -0.1137 -0.2753
vn 0.6428 -0.5330 -0.5502
vn 0.7915 -0.1356 -0.5960
vn 0.2942 -0.9172 -0.2687
vn 0.1849 -0.8986 -0.3979
vn 0.4429 -0.5113 -0.7365
vn 0.5611 -0.1247 -0.8183
vn 0.9684 -0.1096 -0.2239
vn 0.2481 -0.4923 -0.8343
vn 0.3804 -0.1178 -0.9173
vn -0.0892 -0.1738 -0.9807
vn -0.0377 -0.4432 -0.8957
vn -0.0067 -0.8347 -0.5506
vn -0.3377 -0.5853 -0.7371
vn -0.1397 -0.9353 -0.3252
vn -0.4934 -0.6370 -0.5922
vn 0.0264 -0.9906 -0.1339
vn 0.0137 -0.9976 -0.0675
vn -0.1534 -0.9649 -0.2132
vn -0.5844 -0.6745 -0.4511
vn -0.8462 -0.1792 -0.5018
vn -0.7369 -0.1965 -0.6468
vn -0.5855 -0.2021 -0.7851
vn -0.8010 -0.0218 -0.5983
vn -0.8917 -0.0036 -0.4526
vn -0.9055 -0.0036 -0.4243
vn -0.8157 0.0186 -0.5782
vn -0.8374 0.0620 -0.5430
vn -0.9072 0.0479 -0.4180
vn -0.8330 0.3870 -0.3954
vn -0.9459 0.0006 -0.3245
vn -0.9441 0.0124 -0.3294
vn -0.9229 -0.1637 -0.3485
vn -0.6464 -0.7015 -0.3001
vn -0.1398 -0.9823 -0.1248
vn 0.0359 -0.9988 -0.0348
vn 0.0644 -0.9979 -0.0087
vn 0.0671 -0.9977 -0.0087
vn 0.0573 -0.9982 -0.0171
vn 0.0804 -0.9968 -0.0048
vn 0.0741 -0.9970 -0.0218
vn 0.0774 -0.9970 0.0095
vn 0.1643 -0.9863 0.0136
vn 0.1592 -0.9864 0.0404
vn 0.1558 -0.9858 0.0633
vn 0.1333 -0.9907 -0.0263
vn 0.1887 -0.9819 0.0157
vn 0.0903 -0.9944 -0.0547
vn 0.4589 -0.8767 0.1441
vn 0.4093 -0.8885 0.2074
vn 0.1083 -0.9882 0.1087
vn 0.2286 -0.8762 0.4244
vn -0.0978 -0.8903 0.4447
vn 0.4097 -0.5262 0.7452
vn -0.1497 -0.7995 0.5817
vn 0.0086 -0.9943 0.1059
vn 0.9424 -0.0892 0.3222
vn 0.8679 -0.0256 0.4960
vn 0.9162 0.0521 0.3973
vn 0.8521 0.0698 0.5187
vn 0.8147 0.4050 0.4151
vn 0.7231 0.4309 0.5398
vn 0.4277 0.8664 0.2579
vn 0.3056 0.8576 0.4137
vn 0.3461 0.8972 0.2745
vn 0.7787 0.4990 0.3803
vn 0.9227 0.1005 0.3723
vn 0.7829 0.5662 0.2579
vn 0.3713 0.9213 0.1151
vn 0.2679 0.9606 0.0745
vn 0.0465 0.9967 0.0664
vn 0.7715 0.5945 0.2265
vn 0.9410 0.1363 0.3098
vn 0.9247 0.0878 0.3704
vn 0.8347 0.0723 0.5459
vn 0.6921 0.6302 0.3519
vn 0.0742 0.9596 0.2714
vn 0.2715 0.1031 0.9569
vn 0.2238 0.5558 0.8006
vn -0.2313 0.5901 0.7735
vn -0.3694 0.0840 0.9255
vn -0.4179 0.5777 0.7012
vn -0.5370 0.0665 0.8410
vn -0.5200 0.0786 0.8505
vn -0.4752 0.5082 0.7183
vn -0.1109 0.9520 0.2853
vn -0.2220 0.9258 0.3058
vn -0.0456 0.9977 0.0496
vn -0.2832 0.9080 0.3089
vn -0.5152 0.4779 0.7114
vn -0.6610 0.4325 0.6131
vn -0.4197 0.8574 0.2978
vn -0.6607 0.2135 0.7197
vn -0.5014 0.1313 0.8552
vn 0.9280 -0.0175 0.3721
vn 0.8417 0.0413 0.5384
vt 0.192864 0.384308
vt 0.195292 0.390735
vt 0.189712 0.391649
vt 0.186753 0.386068
vt 0.172497 0.166974
vt 0.171516 0.160905
vt 0.175190 0.159172
vt 0.177663 0.162078
vt 0.165701 0.168421
vt 0.165984 0.162238
vt 0.183890 0.380863
vt 0.189361 0.378631
vt 0.179381 0.387228
vt 0.182848 0.394028
vt 0.174798 0.378385
vt 0.157187 0.168754
vt 0.165361 0.174004
vt 0.155754 0.176198
vt 0.172023 0.389086
vt 0.165422 0.384011
vt 0.148036 0.166529
vt 0.143158 0.171571
vt 0.156259 0.381638
vt 0.161524 0.376463
vt 0.147187 0.382845
vt 0.152588 0.377136
vt 0.135859 0.167220
vt 0.141633 0.163327
vt 0.137188 0.159349
vt 0.131779 0.161783
vt 0.129440 0.169031
vt 0.126482 0.163998
vt 0.141948 0.156472
vt 0.145884 0.158426
vt 0.151039 0.160735
vt 0.146024 0.153578
vt 0.141192 0.153119
vt 0.151645 0.154287
vt 0.158273 0.161985
vt 0.158578 0.155102
vt 0.146356 0.146333
vt 0.151906 0.146545
vt 0.158588 0.146989
vt 0.164997 0.145937
vt 0.165982 0.154824
vt 0.170924 0.154061
vt 0.169863 0.144594
vt 0.157733 0.136237
vt 0.164101 0.135503
vt 0.169060 0.134767
vt 0.163368 0.127412
vt 0.168711 0.126810
vt 0.157130 0.128493
vt 0.151176 0.136568
vt 0.151061 0.128975
vt 0.145720 0.136596
vt 0.145613 0.128579
vt 0.146550 0.122625
vt 0.151412 0.122717
vt 0.156493 0.122182
vt 0.140328 0.136355
vt 0.140125 0.127853
vt 0.140876 0.121480
vt 0.133681 0.135983
vt 0.133773 0.126936
vt 0.135293 0.119516
vt 0.143297 0.116580
vt 0.146993 0.118577
vt 0.138721 0.114008
vt 0.127771 0.126179
vt 0.129456 0.116715
vt 0.134102 0.110869
vt 0.121220 0.110769
vt 0.125719 0.109492
vt 0.122808 0.117723
vt 0.121905 0.125838
vt 0.130017 0.105617
vt 0.119251 0.104244
vt 0.123386 0.104462
vt 0.124638 0.101353
vt 0.137609 0.107176
vt 0.135036 0.103336
vt 0.133791 0.099687
vt 0.129655 0.099335
vt 0.125918 0.097349
vt 0.119801 0.099125
vt 0.121092 0.094932
vt 0.114612 0.104870
vt 0.114568 0.098493
vt 0.115937 0.093008
vt 0.135831 0.459391
vt 0.138678 0.455922
vt 0.144666 0.458486
vt 0.138736 0.463995
vt 0.140335 0.466802
vt 0.145777 0.463759
vt 0.116478 0.111296
vt 0.112070 0.111918
vt 0.111275 0.106452
vt 0.117778 0.117581
vt 0.113690 0.117509
vt 0.116904 0.125773
vt 0.112690 0.125910
vt 0.141598 0.450703
vt 0.142502 0.444199
vt 0.146824 0.444453
vt 0.146624 0.451841
vt 0.140755 0.435811
vt 0.144829 0.435575
vt 0.151069 0.444379
vt 0.148952 0.435141
vt 0.151774 0.451694
vt 0.151049 0.457347
vt 0.158194 0.450518
vt 0.155584 0.456729
vt 0.155783 0.442966
vt 0.154787 0.461015
vt 0.150576 0.461844
vt 0.151252 0.466029
vt 0.147405 0.467594
vt 0.154953 0.464253
vt 0.159769 0.456278
vt 0.158440 0.459889
vt 0.157809 0.463509
vt 0.157686 0.466720
vt 0.155243 0.468454
vt 0.151951 0.470022
vt 0.159228 0.469145
vt 0.156232 0.471612
vt 0.153230 0.473256
vt 0.150425 0.474747
vt 0.149054 0.471276
vt 0.147821 0.475608
vt 0.146862 0.472397
vt 0.143392 0.469959
vt 0.122993 0.091403
vt 0.119022 0.089066
vt 0.122007 0.086872
vt 0.124673 0.088415
vt 0.127283 0.090263
vt 0.126860 0.093455
vt 0.129919 0.095299
vt 0.129959 0.091765
vt 0.127840 0.087703
vt 0.129924 0.088412
vt 0.125159 0.086326
vt 0.154507 0.476083
vt 0.152065 0.477222
vt 0.157568 0.473940
vt 0.132693 0.089803
vt 0.133024 0.092750
vt 0.160840 0.470790
vt 0.136129 0.090814
vt 0.136490 0.093187
vt 0.137123 0.096064
vt 0.133524 0.096262
vt 0.138101 0.098807
vt 0.161074 0.467271
vt 0.162994 0.465264
vt 0.164725 0.467782
vt 0.162431 0.469654
vt 0.164742 0.463128
vt 0.166849 0.465784
vt 0.139355 0.101259
vt 0.167269 0.461306
vt 0.169435 0.464466
vt 0.163469 0.458702
vt 0.161767 0.461291
vt 0.160333 0.463805
vt 0.170059 0.459597
vt 0.173714 0.462631
vt 0.165680 0.456797
vt 0.174790 0.457874
vt 0.181026 0.460293
vt 0.168980 0.455332
vt 0.164894 0.451618
vt 0.162322 0.453852
vt 0.169392 0.449242
vt 0.173832 0.452916
vt 0.180374 0.455710
vt 0.173552 0.446449
vt 0.178439 0.449785
vt 0.183828 0.451305
vt 0.189928 0.453196
vt 0.186737 0.456846
vt 0.185984 0.447009
vt 0.191340 0.447265
vt 0.180821 0.445184
vt 0.181122 0.440553
vt 0.186778 0.440966
vt 0.191674 0.440824
vt 0.180600 0.435002
vt 0.186151 0.434543
vt 0.191627 0.433997
vt 0.184819 0.426868
vt 0.190413 0.426053
vt 0.179447 0.427675
vt 0.175977 0.440537
vt 0.175177 0.435829
vt 0.174076 0.429017
vt 0.173112 0.421538
vt 0.178076 0.420436
vt 0.183694 0.419291
vt 0.176496 0.412204
vt 0.172032 0.413283
vt 0.182319 0.410288
vt 0.179543 0.402600
vt 0.173795 0.404358
vt 0.169990 0.405768
vt 0.168080 0.413872
vt 0.166339 0.407212
vt 0.168655 0.422001
vt 0.162480 0.402810
vt 0.166024 0.399785
vt 0.169980 0.397885
vt 0.160320 0.395656
vt 0.164999 0.391862
vt 0.156645 0.399813
vt 0.149754 0.398464
vt 0.152662 0.393031
vt 0.157524 0.388361
vt 0.175941 0.395602
vt 0.146482 0.391869
vt 0.150105 0.387020
vt 0.143061 0.388059
vt 0.142087 0.391767
vt 0.144034 0.396920
vt 0.139149 0.395376
vt 0.142383 0.403660
vt 0.137403 0.401834
vt 0.147748 0.404997
vt 0.145843 0.413127
vt 0.140644 0.412441
vt 0.136381 0.411660
vt 0.117282 0.149491
vt 0.119560 0.159011
vt 0.115005 0.160106
vt 0.112973 0.150513
vt 0.121386 0.165026
vt 0.116449 0.166325
vt 0.124326 0.157477
vt 0.121973 0.148266
vt 0.127975 0.147142
vt 0.129493 0.155683
vt 0.135298 0.154147
vt 0.134196 0.146347
vt 0.140405 0.146138
vt 0.127082 0.136123
vt 0.121264 0.136517
vt 0.116504 0.136915
vt 0.112317 0.137137
vt 0.142039 0.424332
vt 0.138167 0.424893
vt 0.146233 0.424036
vt 0.151924 0.414297
vt 0.151844 0.423717
vt 0.153410 0.434567
vt 0.157995 0.423427
vt 0.158790 0.433215
vt 0.158299 0.414630
vt 0.164100 0.431572
vt 0.163591 0.422637
vt 0.163394 0.414467
vt 0.159373 0.407166
vt 0.163402 0.409090
vt 0.153944 0.405830
vt 0.169078 0.430238
vt 0.170362 0.437239
vt 0.165506 0.438846
vt 0.171586 0.442053
vt 0.167101 0.444436
vt 0.176543 0.443790
vt 0.162519 0.447215
vt 0.160636 0.441093
vt 0.122835 0.169880
vt 0.119245 0.169680
vt 0.185967 0.400457
vt 0.188859 0.408859
vt 0.192576 0.399145
vt 0.194429 0.408406
vt 0.198021 0.398453
vt 0.199639 0.408672
vt 0.179808 0.152826
vt 0.175324 0.153228
vt 0.174082 0.143392
vt 0.178662 0.142517
vt 0.173578 0.134487
vt 0.177782 0.134156
vt 0.199694 0.417825
vt 0.195020 0.417873
vt 0.177492 0.127338
vt 0.173252 0.127101
vt 0.172409 0.119889
vt 0.167857 0.119884
vt 0.176694 0.120155
vt 0.200816 0.425075
vt 0.195953 0.425613
vt 0.201100 0.433055
vt 0.196335 0.433525
vt 0.196330 0.440627
vt 0.201953 0.438154
vt 0.171037 0.114007
vt 0.177313 0.115432
vt 0.195794 0.448114
vt 0.199927 0.447944
vt 0.168868 0.107633
vt 0.172730 0.107515
vt 0.195137 0.453508
vt 0.199862 0.452234
vt 0.166577 0.103407
vt 0.163539 0.108502
vt 0.160932 0.104632
vt 0.192804 0.458627
vt 0.187916 0.461961
vt 0.154687 0.106359
vt 0.158114 0.110198
vt 0.166273 0.113796
vt 0.160444 0.114951
vt 0.162149 0.120669
vt 0.154961 0.116432
vt 0.152324 0.112113
vt 0.147577 0.113684
vt 0.150321 0.117684
vt 0.142667 0.110404
vt 0.147898 0.107994
vt 0.142567 0.104273
vt 0.150361 0.102827
vt 0.189579 0.418258
vt 0.159432 0.465990
s 1
usemtl abyss_chancel_background_pbr
f 1/1/1 2/2/2 6/3/3 5/4/4
f 1/5/1 3/6/5 278/7/6 2/8/2
f 1/5/1 4/9/7 30/10/8 3/6/5
f 1/1/1 5/4/4 8/11/9 4/12/7
f 7/13/10 5/4/4 6/3/3 231/14/11
f 7/13/10 9/15/12 8/11/9 5/4/4
f 10/16/13 4/9/7 8/17/9 9/18/12
f 169/19/14 11/20/15 9/15/12 7/13/10
f 14/21/16 10/16/13 9/18/12 12/22/17
f 13/23/18 12/24/17 9/15/12 11/20/15
f 12/24/17 13/23/18 17/25/19 15/26/20
f 14/21/16 12/22/17 15/27/20 18/28/21
f 19/29/22 18/28/21 15/27/20 16/30/23
f 15/27/20 17/31/19 188/32/24 16/30/23
f 18/28/21 19/29/22 21/33/25 20/34/26
f 18/28/21 20/34/26 23/35/27 14/21/16
f 22/36/28 20/34/26 21/33/25 192/37/29
f 20/34/26 22/36/28 25/38/30 23/35/27
f 10/16/13 14/21/16 23/35/27 24/39/31
f 24/39/31 23/35/27 25/38/30 27/40/32
f 25/38/30 22/36/28 196/41/33 26/42/34
f 28/43/35 27/40/32 25/38/30 26/42/34
f 28/43/35 32/44/36 29/45/37 27/40/32
f 29/45/37 30/10/8 24/39/31 27/40/32
f 31/46/38 3/6/5 30/10/8 29/45/37
f 33/47/39 31/46/38 29/45/37 32/44/36
f 32/44/36 28/43/35 37/48/40 34/49/41
f 34/49/41 35/50/42 33/47/39 32/44/36
f 36/51/43 245/52/44 35/50/42 34/49/41
f 36/51/43 34/49/41 37/48/40 38/53/45
f 26/42/34 39/54/46 37/48/40 28/43/35
f 37/48/40 39/54/46 41/55/47 38/53/45
f 40/56/48 43/57/49 41/55/47 39/54/46
f 39/54/46 26/42/34 196/41/33 40/56/48
f 44/58/50 42/59/51 41/55/47 43/57/49
f 41/55/47 42/59/51 267/60/52 38/53/45
f 46/61/53 45/62/54 43/57/49 40/56/48
f 48/63/55 44/58/50 43/57/49 45/62/54
f 194/64/56 47/65/57 45/62/54 46/61/53
f 50/66/58 48/63/55 45/62/54 47/65/57
f 48/63/55 49/67/59 269/68/60 44/58/50
f 48/63/55 50/66/58 51/69/61 49/67/59
f 47/65/57 54/70/62 52/71/63 50/66/58
f 51/69/61 50/66/58 52/71/63 55/72/64
f 57/73/65 56/74/66 52/71/63 53/75/67
f 200/76/68 53/75/67 52/71/63 54/70/62
f 59/77/69 55/72/64 52/71/63 56/74/66
f 57/73/65 65/78/70 58/79/71 56/74/66
f 58/79/71 62/80/72 59/77/69 56/74/66
f 273/81/73 55/72/64 59/77/69 60/82/74
f 116/83/75 60/82/74 59/77/69 61/84/76
f 63/85/77 61/84/76 59/77/69 62/80/72
f 63/85/77 62/80/72 64/86/78 66/87/79
f 64/86/78 62/80/72 58/79/71 65/78/70
f 70/88/80 67/89/81 64/86/78 65/78/70
f 69/90/82 66/87/79 64/86/78 67/89/81
f 70/91/80 71/92/83 68/93/84 67/94/81
f 69/95/82 67/94/81 68/93/84 87/96/85
f 72/97/86 73/98/87 71/99/83 70/88/80
f 72/97/86 70/88/80 65/78/70 57/73/65
f 73/98/87 72/97/86 74/100/88 76/101/89
f 57/73/65 53/75/67 74/100/88 72/97/86
f 53/75/67 200/76/68 75/102/90 74/100/88
f 76/101/89 74/100/88 75/102/90 77/103/91
f 73/104/87 76/105/89 78/106/92 81/107/93
f 76/105/89 77/108/91 79/109/94 78/106/92
f 80/110/95 78/106/92 79/109/94 205/111/96
f 82/112/97 81/107/93 78/106/92 80/110/95
f 73/104/87 81/107/93 68/93/84 71/92/83
f 82/112/97 84/113/98 68/93/84 81/107/93
f 84/113/98 82/112/97 83/114/99 85/115/100
f 80/110/95 228/116/101 83/114/99 82/112/97
f 84/113/98 85/115/100 89/117/102 86/118/103
f 86/118/103 87/96/85 68/93/84 84/113/98
f 87/96/85 86/118/103 88/119/104 101/120/105
f 88/119/104 86/118/103 89/117/102 91/121/106
f 85/115/100 279/122/107 90/123/108 89/117/102
f 91/121/106 89/117/102 90/123/108 92/124/109
f 92/124/109 94/125/110 93/126/111 91/121/106
f 93/126/111 96/127/112 88/119/104 91/121/106
f 283/128/113 95/129/114 93/126/111 94/125/110
f 95/129/114 97/130/115 96/127/112 93/126/111
f 99/131/116 98/132/117 96/127/112 97/130/115
f 98/132/117 101/120/105 88/119/104 96/127/112
f 99/131/116 104/133/118 100/134/119 98/132/117
f 101/120/105 98/132/117 100/134/119 102/135/120
f 69/95/82 87/96/85 101/120/105 102/135/120
f 103/136/121 102/137/120 100/138/119 104/139/118
f 102/137/120 103/136/121 66/87/79 69/90/82
f 104/139/118 107/140/122 105/141/123 103/136/121
f 105/141/123 63/85/77 66/87/79 103/136/121
f 61/84/76 63/85/77 105/141/123 106/142/124
f 108/143/125 106/142/124 105/141/123 107/140/122
f 108/143/125 107/140/122 109/144/126 110/145/127
f 104/139/118 99/146/116 109/144/126 107/140/122
f 97/130/115 110/147/127 109/148/126 99/131/116
f 111/149/128 110/147/127 97/130/115 95/129/114
f 111/150/128 113/151/129 108/143/125 110/145/127
f 95/129/114 283/128/113 112/152/130 111/149/128
f 113/151/129 111/150/128 112/153/130 114/154/131
f 114/154/131 117/155/132 115/156/133 113/151/129
f 113/151/129 115/156/133 106/142/124 108/143/125
f 119/157/134 116/83/75 115/156/133 117/155/132
f 116/83/75 61/84/76 106/142/124 115/156/133
f 282/158/135 118/159/136 117/160/132 114/161/131
f 118/159/136 121/162/137 119/163/134 117/160/132
f 60/82/74 116/83/75 119/157/134 120/164/138
f 123/165/139 120/166/138 119/163/134 121/162/137
f 124/167/140 123/165/139 121/162/137 122/168/141
f 280/169/142 122/168/141 121/162/137 118/159/136
f 123/165/139 125/170/143 126/171/144 120/166/138
f 125/170/143 123/165/139 124/167/140 128/172/145
f 127/173/146 274/174/147 126/171/144 125/170/143
f 127/173/146 125/170/143 128/172/145 130/175/148
f 131/176/149 130/175/148 128/172/145 129/177/150
f 129/177/150 128/172/145 124/167/140 279/122/107
f 134/178/151 132/179/152 130/175/148 131/176/149
f 135/180/153 127/173/146 130/175/148 132/179/152
f 224/181/154 133/182/155 132/179/152 134/178/151
f 133/182/155 137/183/156 135/180/153 132/179/152
f 138/184/157 136/185/158 135/180/153 137/183/156
f 274/174/147 127/173/146 135/180/153 136/185/158
f 139/186/159 141/187/160 138/184/157 137/183/156
f 133/182/155 140/188/161 139/186/159 137/183/156
f 140/188/161 143/189/162 142/190/163 139/186/159
f 142/190/163 144/191/164 141/187/160 139/186/159
f 142/190/163 143/189/162 148/192/165 145/193/166
f 145/193/166 146/194/167 144/191/164 142/190/163
f 147/195/168 275/196/169 146/194/167 145/193/166
f 145/193/166 148/192/165 150/197/170 147/195/168
f 223/198/171 149/199/172 148/192/165 143/189/162
f 149/199/172 151/200/173 150/197/170 148/192/165
f 150/197/170 151/200/173 153/201/174 152/202/175
f 154/203/176 147/195/168 150/197/170 152/202/175
f 155/204/177 152/202/175 153/201/174 158/205/178
f 154/203/176 152/202/175 155/204/177 156/206/179
f 232/207/180 156/206/179 155/204/177 157/208/181
f 160/209/182 157/208/181 155/204/177 158/205/178
f 159/210/183 161/211/184 160/209/182 158/205/178
f 159/210/183 158/205/178 153/201/174 218/212/185
f 164/213/186 162/214/187 160/209/182 161/211/184
f 163/215/188 157/208/181 160/209/182 162/214/187
f 162/214/187 165/216/189 168/217/190 163/215/188
f 162/214/187 164/213/186 167/218/191 165/216/189
f 167/218/191 177/219/192 166/220/193 165/216/189
f 166/220/193 170/221/194 168/217/190 165/216/189
f 11/20/15 169/19/14 168/217/190 170/221/194
f 168/217/190 169/19/14 230/222/195 163/215/188
f 173/223/196 171/224/197 170/221/194 166/220/193
f 13/23/18 11/20/15 170/221/194 171/224/197
f 171/224/197 172/225/198 17/25/19 13/23/18
f 171/224/197 173/223/196 174/226/199 172/225/198
f 175/227/200 176/228/201 174/226/199 173/223/196
f 175/227/200 173/223/196 166/220/193 177/219/192
f 176/228/201 175/227/200 178/229/202 181/230/203
f 178/229/202 175/227/200 177/219/192 179/231/204
f 204/232/205 180/233/206 178/229/202 179/231/204
f 182/234/207 181/230/203 178/229/202 180/233/206
f 185/235/208 183/236/209 181/237/203 182/238/207
f 184/239/210 176/240/201 181/237/203 183/236/209
f 188/32/24 184/239/210 183/236/209 186/241/211
f 187/242/212 186/241/211 183/236/209 185/235/208
f 187/242/212 190/243/213 189/244/214 186/241/211
f 189/244/214 16/30/23 188/32/24 186/241/211
f 191/245/215 19/29/22 16/30/23 189/244/214
f 193/246/216 191/245/215 189/244/214 190/243/213
f 191/245/215 192/37/29 21/33/25 19/29/22
f 192/37/29 191/245/215 193/246/216 195/247/217
f 197/248/218 194/64/56 193/246/216 190/243/213
f 46/61/53 195/247/217 193/246/216 194/64/56
f 40/56/48 196/41/33 195/247/217 46/61/53
f 22/36/28 192/37/29 195/247/217 196/41/33
f 54/70/62 47/65/57 194/64/56 197/248/218
f 187/242/212 198/249/219 197/248/218 190/243/213
f 200/76/68 54/70/62 197/248/218 198/249/219
f 185/235/208 199/250/220 198/249/219 187/242/212
f 75/102/90 200/76/68 198/249/219 199/250/220
f 201/251/221 77/103/91 75/102/90 199/250/220
f 185/235/208 182/238/207 201/251/221 199/250/220
f 180/233/206 202/252/222 201/253/221 182/234/207
f 79/109/94 77/108/91 201/253/221 202/252/222
f 203/254/223 205/111/96 79/109/94 202/252/222
f 180/233/206 204/232/205 203/254/223 202/252/222
f 208/255/224 206/256/225 203/254/223 204/232/205
f 207/257/226 205/111/96 203/254/223 206/256/225
f 207/257/226 206/256/225 209/258/227 210/259/228
f 209/258/227 206/256/225 208/255/224 212/260/229
f 217/261/230 210/259/228 209/258/227 211/262/231
f 213/263/232 211/262/231 209/258/227 212/260/229
f 212/260/229 214/264/233 215/265/234 213/263/232
f 214/264/233 212/260/229 208/255/224 216/266/235
f 164/213/186 161/211/184 215/265/234 214/264/233
f 164/213/186 214/264/233 216/266/235 167/218/191
f 216/266/235 179/231/204 177/219/192 167/218/191
f 179/231/204 216/266/235 208/255/224 204/232/205
f 159/210/183 213/263/232 215/265/234 161/211/184
f 213/263/232 159/210/183 218/212/185 211/262/231
f 211/262/231 218/212/185 219/267/236 217/261/230
f 153/201/174 151/200/173 219/267/236 218/212/185
f 149/199/172 220/268/237 219/267/236 151/200/173
f 219/267/236 220/268/237 221/269/238 217/261/230
f 222/270/239 225/271/240 221/269/238 220/268/237
f 222/270/239 220/268/237 149/199/172 223/198/171
f 222/270/239 223/198/171 229/272/241 224/181/154
f 224/181/154 134/178/151 225/271/240 222/270/239
f 131/176/149 226/273/242 225/271/240 134/178/151
f 226/273/242 227/274/243 221/269/238 225/271/240
f 131/176/149 129/177/150 83/114/99 226/273/242
f 227/274/243 226/273/242 83/114/99 228/116/101
f 221/269/238 227/274/243 210/259/228 217/261/230
f 228/116/101 207/257/226 210/259/228 227/274/243
f 80/110/95 205/111/96 207/257/226 228/116/101
f 133/182/155 224/181/154 229/272/241 140/188/161
f 143/189/162 140/188/161 229/272/241 223/198/171
f 172/275/198 184/239/210 188/32/24 17/31/19
f 184/239/210 172/275/198 174/276/199 176/240/201
f 169/19/14 7/13/10 231/14/11 230/222/195
f 232/207/180 230/222/195 231/14/11 233/277/244
f 157/208/181 163/215/188 230/222/195 232/207/180
f 233/277/244 234/278/245 156/206/179 232/207/180
f 234/278/245 233/277/244 235/279/246 236/280/247
f 231/14/11 6/3/3 235/279/246 233/277/244
f 235/279/246 237/281/248 239/282/249 236/280/247
f 2/2/2 237/281/248 235/279/246 6/3/3
f 237/283/248 2/8/2 278/7/6 238/284/250
f 238/284/250 241/285/251 239/286/249 237/283/248
f 242/287/252 240/288/253 239/286/249 241/285/251
f 239/282/249 240/289/253 276/290/254 236/280/247
f 238/284/250 31/46/38 33/47/39 241/285/251
f 242/287/252 241/285/251 33/47/39 35/50/42
f 246/291/255 240/288/253 242/287/252 243/292/256
f 243/292/256 242/287/252 35/50/42 245/52/44
f 244/293/257 243/292/256 245/52/44 262/294/258
f 243/292/256 244/293/257 248/295/259 246/291/255
f 246/296/255 247/297/260 276/290/254 240/289/253
f 247/297/260 246/296/255 248/298/259 249/299/261
f 251/300/262 249/299/261 248/298/259 250/301/263
f 252/302/264 250/303/263 248/295/259 244/293/257
f 255/304/265 251/300/262 250/301/263 253/305/266
f 254/306/267 253/307/266 250/303/263 252/302/264
f 256/308/268 255/304/265 253/305/266 254/309/267
f 251/300/262 255/304/265 141/187/160 144/191/164
f 255/304/265 256/308/268 138/184/157 141/187/160
f 256/310/268 254/306/267 259/311/269 257/312/270
f 257/313/270 136/185/158 138/184/157 256/308/268
f 274/174/147 136/185/158 257/313/270 258/314/271
f 258/315/271 257/312/270 259/311/269 260/316/272
f 260/316/272 259/311/269 261/317/273 263/318/274
f 254/306/267 252/302/264 261/317/273 259/311/269
f 252/302/264 244/293/257 262/294/258 261/317/273
f 263/318/274 261/317/273 262/294/258 264/319/275
f 264/319/275 267/60/52 265/320/276 263/318/274
f 265/320/276 266/321/277 260/316/272 263/318/274
f 270/322/278 266/321/277 265/320/276 268/323/279
f 42/59/51 268/323/279 265/320/276 267/60/52
f 42/59/51 44/58/50 269/68/60 268/323/279
f 270/322/278 268/323/279 269/68/60 49/67/59
f 270/322/278 49/67/59 51/69/61 271/324/280
f 271/324/280 272/325/281 266/321/277 270/322/278
f 271/324/280 273/81/73 126/326/144 272/325/281
f 273/81/73 271/324/280 51/69/61 55/72/64
f 60/82/74 120/164/138 126/326/144 273/81/73
f 258/315/271 272/325/281 126/326/144 274/327/147
f 272/325/281 258/315/271 260/316/272 266/321/277
f 36/51/43 38/53/45 267/60/52 264/319/275
f 264/319/275 262/294/258 245/52/44 36/51/43
f 249/299/261 251/300/262 144/191/164 146/194/167
f 247/297/260 249/299/261 146/194/167 275/196/169
f 276/290/254 247/297/260 275/196/169 277/328/282
f 234/278/245 236/280/247 276/290/254 277/328/282
f 154/203/176 277/328/282 275/196/169 147/195/168
f 277/328/282 154/203/176 156/206/179 234/278/245
f 31/46/38 238/284/250 278/7/6 3/6/5
f 279/122/107 85/115/100 83/114/99 129/177/150
f 90/123/108 279/122/107 124/167/140 122/168/141
f 280/169/142 92/124/109 90/123/108 122/168/141
f 118/159/136 282/158/135 281/329/283 280/169/142
f 92/124/109 280/169/142 281/329/283 94/125/110
f 283/128/113 94/125/110 281/329/283 282/158/135
f 282/158/135 114/161/131 112/152/130 283/128/113
f 4/9/7 10/16/13 24/39/31 30/10/8
