# Blender 5.2.0 LTS
# www.blender.org
mtllib terrain-abyss-chancel-object-031.mtl
o terrain-abyss-chancel-object-031
v -0.704925 0.030618 0.056988
v -0.704400 0.032850 0.049917
v -0.700501 0.026402 0.055807
v -0.705479 0.027665 0.062499
v -0.711658 0.031869 0.056449
v -0.711237 0.027298 0.061045
v -0.713912 0.026388 0.052228
v -0.710097 0.034346 0.049827
v -0.712635 0.030429 0.047774
v -0.707196 0.029341 0.044557
v -0.706811 0.023854 0.048281
v -0.700775 0.028819 0.051110
v -0.707233 0.021975 0.053300
v -0.710353 0.022264 0.056924
v -0.702609 0.022998 0.060334
vn 0.4241 0.7761 0.4667
vn 0.5601 0.7749 -0.2929
vn -0.3020 0.9366 -0.1779
vn -0.5783 0.6928 0.4308
vn 0.9769 -0.1513 0.1510
vn 0.9675 0.0557 -0.2466
vn 0.2133 0.2282 0.9500
vn 0.5491 -0.5905 0.5914
vn -0.5829 0.0730 0.8093
vn -0.9377 -0.2918 -0.1888
vn -0.4886 -0.8442 0.2205
vn -0.7518 0.2246 -0.6200
vn 0.0844 0.0530 -0.9950
vn 0.1308 -0.7126 -0.6893
vn 0.1136 -0.9467 -0.3016
vt 0.955945 0.021103
vt 0.954873 0.024593
vt 0.951444 0.022562
vt 0.952574 0.019213
vt 0.575421 0.020782
vt 0.572678 0.019098
vt 0.575197 0.017947
vt 0.577026 0.018189
vt 0.572186 0.022290
vt 0.569290 0.020658
vt 0.575299 0.025393
vt 0.571709 0.024767
vt 0.572789 0.028612
vt 0.568924 0.026375
vt 0.577027 0.028880
vt 0.575032 0.030773
vt 0.951543 0.025735
vt 0.948703 0.024349
vt 0.947539 0.027710
vt 0.951449 0.028515
vt 0.955380 0.027672
vt 0.951250 0.031017
vt 0.948873 0.031943
vt 0.955654 0.030321
vt 0.954029 0.033448
s 1
usemtl abyss_chancel_background_pbr
f 1/1/1 2/2/2 8/3/3 5/4/4
f 1/5/1 3/6/5 12/7/6 2/8/2
f 1/5/1 4/9/7 15/10/8 3/6/5
f 5/11/4 6/12/9 4/9/7 1/5/1
f 7/13/10 14/14/11 6/12/9 5/11/4
f 7/13/10 5/11/4 8/15/3 9/16/12
f 8/3/3 2/2/2 10/17/13 9/18/12
f 7/19/10 9/18/12 10/17/13 11/20/14
f 10/17/13 2/2/2 12/21/6 11/20/14
f 7/19/10 11/20/14 13/22/15 14/23/11
f 13/22/15 11/20/14 12/21/6 3/24/5
f 13/22/15 3/24/5 15/25/8 14/23/11
f 6/12/9 14/14/11 15/10/8 4/9/7
