# Blender 5.2.0 LTS
# www.blender.org
mtllib terrain-abyss-chancel-object-045.mtl
o terrain-abyss-chancel-object-045
v -0.508124 1.113788 -0.050003
v -0.500963 1.113342 -0.040956
v -0.510205 1.128106 -0.042211
v -0.516785 1.112803 -0.043771
v -0.508229 1.097825 -0.049948
v -0.508921 1.082574 -0.049070
v -0.516776 1.097415 -0.043639
v -0.501294 1.098290 -0.041512
v -0.502095 1.083205 -0.041902
v -0.501478 1.097910 -0.028528
v -0.501375 1.112969 -0.027903
v -0.502034 1.083367 -0.029890
v -0.510047 1.096994 -0.020811
v -0.511278 1.113667 -0.021152
v -0.509477 1.082870 -0.022593
v -0.517158 1.097216 -0.030247
v -0.517407 1.112795 -0.031084
v -0.516750 1.082944 -0.031341
v -0.516944 1.070365 -0.032245
v -0.516420 1.082626 -0.042912
v -0.516123 1.068797 -0.042206
v -0.509735 1.068683 -0.047900
v -0.516567 1.057067 -0.042024
v -0.519115 1.050517 -0.043485
v -0.517767 1.059375 -0.032541
v -0.508687 1.056264 -0.048147
v -0.495445 1.049157 -0.055885
v -0.502137 1.056150 -0.042869
v -0.512815 1.051037 -0.053364
v -0.496953 1.048882 -0.062753
v -0.514886 1.047546 -0.057199
v -0.497393 1.044908 -0.064103
v -0.524422 1.047941 -0.045735
v -0.513963 1.043493 -0.055318
v -0.509428 1.042903 -0.048517
v -0.497031 1.043410 -0.058285
v -0.524956 1.043482 -0.046926
v -0.520481 1.044492 -0.033865
v -0.518415 1.042779 -0.045144
v -0.513907 1.044117 -0.036583
v -0.510563 1.044095 -0.025830
v -0.506265 1.044450 -0.039408
v -0.504584 1.045791 -0.027697
v -0.496985 1.044420 -0.040281
v -0.501240 1.050106 -0.027679
v -0.485097 1.043871 -0.039252
v -0.496140 1.043381 -0.050311
v -0.482864 1.043231 -0.047437
v -0.472698 1.042861 -0.041302
v -0.481066 1.043636 -0.053970
v -0.470423 1.042520 -0.047817
v -0.479133 1.044654 -0.059818
v -0.468990 1.043560 -0.053889
v -0.478493 1.048385 -0.060104
v -0.467504 1.048023 -0.055205
v -0.479661 1.050292 -0.055173
v -0.465641 1.051560 -0.048762
v -0.482069 1.057529 -0.049456
v -0.493542 1.049909 -0.047259
v -0.479423 1.074955 -0.050496
v -0.486264 1.058047 -0.041636
v -0.468290 1.059576 -0.049438
v -0.464350 1.060985 -0.040230
v -0.471194 1.075834 -0.047801
v -0.470969 1.097561 -0.048310
v -0.469214 1.075920 -0.040656
v -0.468505 1.097718 -0.039316
v -0.470651 1.075180 -0.032995
v -0.469689 1.060106 -0.033365
v -0.475725 1.074585 -0.027296
v -0.470470 1.097293 -0.030071
v -0.476974 1.096817 -0.024826
v -0.469939 1.120742 -0.028518
v -0.468959 1.138147 -0.029346
v -0.477978 1.120852 -0.024154
v -0.467211 1.119952 -0.038598
v -0.466473 1.136250 -0.039314
v -0.469333 1.119426 -0.048525
v -0.468942 1.134804 -0.048811
v -0.476459 1.119214 -0.054109
v -0.475248 1.134627 -0.054897
v -0.484232 1.119457 -0.050600
v -0.477886 1.097317 -0.052918
v -0.485002 1.097354 -0.048143
v -0.486781 1.097384 -0.038860
v -0.484826 1.075102 -0.045061
v -0.485867 1.075273 -0.036830
v -0.485467 1.059256 -0.034406
v -0.482534 1.074760 -0.029522
v -0.481695 1.060468 -0.028481
v -0.484019 1.097008 -0.029827
v -0.485452 1.120467 -0.030464
v -0.487170 1.119985 -0.041078
v -0.486219 1.138380 -0.034033
v -0.478895 1.139870 -0.025141
v -0.484137 1.150009 -0.038807
v -0.486743 1.137075 -0.043873
v -0.482753 1.150599 -0.045664
v -0.483120 1.136126 -0.052076
v -0.479325 1.149051 -0.051789
v -0.473555 1.144065 -0.054813
v -0.474098 1.154015 -0.048752
v -0.474788 1.155650 -0.043517
v -0.468360 1.146658 -0.049079
v -0.467422 1.149451 -0.041164
v -0.469790 1.150275 -0.033650
v -0.477872 1.154186 -0.034007
v -0.483082 1.052471 -0.025695
v -0.475371 1.060619 -0.027294
v -0.475251 1.053445 -0.022990
v -0.466735 1.051641 -0.029088
v -0.475113 1.048703 -0.020518
v -0.475778 1.045919 -0.022504
v -0.466505 1.046727 -0.025477
v -0.484675 1.048501 -0.023122
v -0.481211 1.044943 -0.027245
v -0.490076 1.048767 -0.028032
v -0.488270 1.051748 -0.030744
v -0.488370 1.045678 -0.030391
v -0.500495 1.055300 -0.032573
v -0.502142 1.070316 -0.031158
v -0.491623 1.051228 -0.038804
v -0.510317 1.061165 -0.021952
v -0.509664 1.071368 -0.022972
v -0.506516 1.056056 -0.021592
v -0.517957 1.055424 -0.018839
v -0.520516 1.052157 -0.031237
v -0.521702 1.048158 -0.020300
v -0.510441 1.052621 -0.015875
v -0.505394 1.050235 -0.015929
v -0.516081 1.048185 -0.012356
v -0.514853 1.044353 -0.016659
v -0.511417 1.048705 -0.012377
v -0.510976 1.044427 -0.016800
v -0.506007 1.045154 -0.019132
v -0.516781 1.044331 -0.023467
v -0.522881 1.047840 -0.031592
v -0.503133 1.069023 -0.042171
v -0.476453 1.043391 -0.034414
v -0.470497 1.043675 -0.028934
v -0.465692 1.043077 -0.035944
v -0.460538 1.044891 -0.031966
v -0.461984 1.042897 -0.042654
v -0.457303 1.044214 -0.042927
v -0.458513 1.044299 -0.036540
v -0.461687 1.043572 -0.049875
v -0.457490 1.044543 -0.047333
v -0.462497 1.048161 -0.052014
v -0.459210 1.048362 -0.046863
v -0.456597 1.047406 -0.039025
v -0.460333 1.051638 -0.036880
v -0.516601 1.123846 -0.033596
v -0.511267 1.127379 -0.028527
v -0.515673 1.125957 -0.041879
v -0.503262 1.124237 -0.030422
v -0.503993 1.125724 -0.038901
vn 0.1501 0.1979 -0.9687
vn 0.9285 0.1459 -0.3413
vn 0.9416 -0.0285 -0.3356
vn 0.1200 -0.0297 -0.9923
vn 0.0050 0.8656 -0.5008
vn 0.7443 0.6299 -0.2217
vn -0.8556 0.0942 -0.5090
vn -0.7562 0.5260 -0.3892
vn -0.8854 -0.0206 -0.4643
vn 0.9242 -0.0537 -0.3782
vn 0.0647 -0.0651 -0.9958
vn -0.8938 -0.0286 -0.4475
vn 0.8633 0.1520 0.4813
vn 0.9036 -0.0334 0.4270
vn 0.9239 -0.0600 0.3779
vn -0.1864 0.1968 0.9626
vn -0.1009 -0.0630 0.9929
vn -0.0466 -0.0923 0.9946
vn -0.9566 0.0789 0.2807
vn -0.9510 -0.0380 0.3069
vn -0.9492 -0.0373 0.3124
vn -0.9598 0.0293 0.2792
vn -0.0392 0.0041 0.9992
vn -0.8878 0.0011 -0.4602
vn -0.0142 -0.0143 -0.9998
vn -0.0484 0.6441 -0.7634
vn -0.8515 0.2959 -0.4328
vn -0.9419 0.3186 0.1062
vn -0.6621 0.6998 -0.2682
vn -0.8299 0.5578 0.0122
vn -0.3278 0.7941 -0.5119
vn -0.0313 0.9507 -0.3085
vn 0.0276 0.9378 -0.3459
vn 0.7062 0.6104 -0.3587
vn -0.0239 0.6933 -0.7203
vn 0.8927 0.0221 -0.4500
vn -0.0961 -0.3535 -0.9305
vn -0.5516 0.1829 -0.8138
vn -0.9244 0.2870 -0.2513
vn -0.0418 -0.9721 -0.2310
vn -0.3160 -0.8309 -0.4580
vn -0.6774 -0.6937 -0.2446
vn 0.0027 -0.9996 0.0275
vn 0.0183 -0.9995 0.0267
vn -0.0276 -0.9986 0.0442
vn -0.5032 -0.8512 0.1488
vn -0.9926 0.0027 0.1217
vn 0.0331 -0.9966 0.0752
vn 0.1432 -0.9786 0.1479
vn 0.0919 -0.9957 0.0137
vn -0.3321 -0.9357 0.1190
vn 0.4447 -0.8804 0.1649
vn 0.0115 -0.9810 0.1935
vn 0.6784 -0.2466 0.6921
vn -0.1009 -0.9871 0.1244
vn -0.2234 -0.8695 0.4404
vn -0.0394 -0.9991 0.0162
vn 0.0020 -0.9935 -0.1140
vn 0.0123 -0.9977 -0.0668
vn -0.0331 -0.9988 0.0360
vn -0.0763 -0.9908 0.1115
vn 0.2186 -0.6344 -0.7414
vn 0.2790 -0.7719 -0.5713
vn 0.4472 0.3372 -0.8284
vn 0.2624 0.5218 -0.8117
vn 0.0229 0.8470 -0.5310
vn 0.5318 0.6466 -0.5469
vn -0.3752 0.4626 -0.8033
vn 0.5705 0.2515 -0.7818
vn -0.2119 0.9773 0.0041
vn -0.9009 0.4005 -0.1673
vn -0.9091 -0.0188 -0.4162
vn -0.2557 -0.0327 -0.9662
vn 0.6921 0.0469 -0.7202
vn 0.9465 0.3215 0.0286
vn 0.8172 0.5214 0.2456
vn 0.9955 0.0946 -0.0091
vn -0.0253 -0.0792 -0.9965
vn 0.7984 -0.0600 -0.5991
vn 0.9989 -0.0435 -0.0147
vn 0.8440 -0.0517 0.5339
vn 0.8538 0.0240 0.5200
vn 0.7446 0.3126 0.5897
vn 0.2256 -0.0268 0.9738
vn 0.2688 0.2919 0.9179
vn 0.0473 -0.0642 0.9968
vn -0.1057 0.0103 0.9943
vn 0.7864 -0.0198 0.6174
vn 0.9987 -0.0492 0.0144
vn 0.7418 0.1554 0.6524
vn -0.2170 0.2753 0.9365
vn 0.9995 0.0107 0.0296
vn 0.8455 -0.0612 -0.5304
vn 0.8723 -0.0501 -0.4864
vn 0.1100 -0.0629 -0.9919
vn 0.1733 -0.0229 -0.9846
vn -0.7579 -0.0284 -0.6517
vn -0.6934 0.0795 -0.7162
vn -0.8318 -0.0494 -0.5529
vn -0.9986 -0.0303 0.0423
vn -0.9980 -0.0082 -0.0621
vn -0.9870 -0.0079 0.1604
vn -0.9135 0.2788 0.2963
vn -0.5831 0.2435 0.7751
vn -0.6913 -0.0169 0.7223
vn -0.7991 -0.0425 0.5997
vn -0.8696 0.0026 0.4937
vn -0.9139 0.1785 0.3646
vn -0.9743 0.1143 -0.1938
vn -0.1609 0.8413 0.5161
vn -0.8318 0.5295 0.1664
vn -0.7669 0.5828 -0.2687
vn -0.4054 0.5043 -0.7625
vn 0.2540 0.1742 -0.9514
vn 0.1988 0.8158 -0.5430
vn 0.8029 0.2923 -0.5195
vn 0.1054 0.9849 -0.1376
vn 0.8879 0.4597 0.0134
vn 0.6673 0.5351 0.5181
vn -0.4744 0.7819 0.4044
vn -0.4696 0.5283 0.7074
vn 0.1673 0.5216 0.8366
vn 0.6463 0.4577 0.6106
vn 0.5966 -0.2590 0.7596
vn 0.1214 -0.1083 0.9867
vn -0.5098 -0.1110 0.8531
vn -0.2088 -0.9086 0.3617
vn -0.0272 -0.8423 0.5383
vn 0.0951 -0.9455 0.3113
vn -0.2355 0.3980 0.8867
vn 0.7555 0.5396 0.3714
vn 0.0016 0.4914 0.8710
vn 0.6292 0.5456 0.5536
vn 0.9420 0.0045 0.3355
vn -0.5677 0.6344 0.5247
vn 0.1449 0.6349 0.7589
vn -0.9127 -0.1510 0.3796
vn -0.3732 -0.1746 0.9112
vn 0.7496 0.0559 0.6596
vn 0.2597 -0.0462 0.9646
vn -0.2286 -0.9026 0.3649
vn 0.2183 -0.8801 0.4216
vn 0.5800 -0.7587 0.2966
vn 0.0985 -0.9833 0.1532
vn 0.6935 -0.4160 0.5882
vn 0.2172 -0.9759 0.0203
vn 0.6801 -0.6258 0.3820
vn 0.9758 0.1662 0.1420
vn 0.8403 -0.5362 -0.0798
vn 0.8203 -0.4111 -0.3977
vn 0.4800 -0.7000 -0.5288
vn 0.5900 0.3304 -0.7367
vn 0.7501 0.5227 -0.4051
vn -0.1605 0.8014 0.5761
vn -0.8694 0.4525 0.1983
vn 0.7325 0.5622 0.3838
vt 0.034041 0.474151
vt 0.028736 0.473738
vt 0.030181 0.465682
vt 0.035207 0.466531
vt 0.032448 0.481280
vt 0.028285 0.479933
vt 0.038318 0.475212
vt 0.036203 0.482970
vt 0.039323 0.466440
vt 0.031615 0.457249
vt 0.036839 0.457353
vt 0.041544 0.458735
vt 0.022625 0.473556
vt 0.024141 0.465071
vt 0.025194 0.457049
vt 0.413597 0.325482
vt 0.411357 0.328104
vt 0.406603 0.319343
vt 0.408653 0.316006
vt 0.402514 0.312894
vt 0.405098 0.311599
vt 0.409400 0.330755
vt 0.404390 0.323023
vt 0.399848 0.314688
vt 0.398379 0.318470
vt 0.400276 0.326969
vt 0.406541 0.332836
vt 0.396210 0.309045
vt 0.400893 0.307274
vt 0.393708 0.312290
vt 0.038168 0.450244
vt 0.042783 0.451340
vt 0.039203 0.443648
vt 0.043977 0.445490
vt 0.390838 0.307275
vt 0.386001 0.309084
vt 0.379883 0.308197
vt 0.386397 0.305591
vt 0.046143 0.442478
vt 0.043249 0.440127
vt 0.034494 0.436967
vt 0.037299 0.435578
vt 0.034233 0.442510
vt 0.040582 0.434327
vt 0.033279 0.449439
vt 0.042551 0.432709
vt 0.045748 0.438780
vt 0.050840 0.441691
vt 0.367440 0.290119
vt 0.371436 0.281022
vt 0.373415 0.284458
vt 0.369955 0.291192
vt 0.053057 0.439643
vt 0.047766 0.437234
vt 0.377964 0.286323
vt 0.376760 0.293066
vt 0.050166 0.433311
vt 0.053441 0.436141
vt 0.382044 0.299882
vt 0.385112 0.303562
vt 0.376753 0.303185
vt 0.376462 0.301149
vt 0.375993 0.296677
vt 0.381780 0.295658
vt 0.383937 0.291223
vt 0.387059 0.295303
vt 0.386334 0.298989
vt 0.389358 0.292624
vt 0.385238 0.286945
vt 0.395590 0.289614
vt 0.387698 0.282312
vt 0.395054 0.282360
vt 0.381339 0.280566
vt 0.377941 0.278023
vt 0.380985 0.274123
vt 0.384835 0.276599
vt 0.389417 0.278236
vt 0.375805 0.274181
vt 0.378644 0.272092
vt 0.377119 0.269042
vt 0.374241 0.270018
vt 0.370445 0.276180
vt 0.369454 0.268651
vt 0.372463 0.265072
vt 0.377842 0.264290
vt 0.374854 0.259248
vt 0.382635 0.258940
vt 0.326807 0.933351
vt 0.323167 0.934757
vt 0.314741 0.930843
vt 0.320147 0.929190
vt 0.321001 0.937247
vt 0.316717 0.936470
vt 0.308991 0.935959
vt 0.308594 0.931473
vt 0.384735 0.249589
vt 0.378804 0.248515
vt 0.388875 0.260374
vt 0.384848 0.264853
vt 0.390515 0.251937
vt 0.386390 0.235545
vt 0.390835 0.238652
vt 0.396208 0.241404
vt 0.401501 0.244667
vt 0.396958 0.255111
vt 0.395378 0.262856
vt 0.403057 0.258367
vt 0.401203 0.266478
vt 0.406292 0.245812
vt 0.408936 0.231920
vt 0.405232 0.230848
vt 0.400903 0.230180
vt 0.408049 0.221380
vt 0.412244 0.220884
vt 0.403554 0.220637
vt 0.395492 0.228585
vt 0.398452 0.219808
vt 0.389524 0.226435
vt 0.393054 0.218143
vt 0.288333 0.935752
vt 0.280513 0.935890
vt 0.280629 0.931619
vt 0.287927 0.931546
vt 0.298095 0.930556
vt 0.298496 0.935199
vt 0.299246 0.940433
vt 0.288710 0.941052
vt 0.309403 0.940791
vt 0.316699 0.941268
vt 0.316376 0.945850
vt 0.309757 0.945436
vt 0.299496 0.945909
vt 0.310122 0.949541
vt 0.316584 0.949321
vt 0.299712 0.950837
vt 0.288247 0.951640
vt 0.288601 0.946598
vt 0.280362 0.944643
vt 0.280492 0.940100
vt 0.279081 0.949786
vt 0.271586 0.945692
vt 0.274374 0.942670
vt 0.273926 0.939008
vt 0.274530 0.935316
vt 0.276105 0.931255
vt 0.270816 0.935320
vt 0.272465 0.930763
vt 0.269551 0.939384
vt 0.404906 0.207102
vt 0.404569 0.212986
vt 0.400253 0.212958
vt 0.401328 0.207390
vt 0.396077 0.213456
vt 0.408664 0.213358
vt 0.412372 0.210919
vt 0.320598 0.942609
vt 0.320258 0.946151
vt 0.398632 0.270405
vt 0.403363 0.269843
vt 0.399905 0.274555
vt 0.391579 0.267021
vt 0.392282 0.270605
vt 0.396227 0.272920
vt 0.398109 0.276873
vt 0.394385 0.278646
vt 0.395272 0.274570
vt 0.391293 0.273989
vt 0.398295 0.279598
vt 0.400652 0.278460
vt 0.025002 0.435062
vt 0.029058 0.436362
vt 0.028083 0.440418
vt 0.023449 0.435291
vt 0.021345 0.434762
vt 0.025346 0.440723
vt 0.399405 0.291119
vt 0.399416 0.303190
vt 0.397017 0.298134
vt 0.027141 0.449968
vt 0.404998 0.302978
vt 0.392757 0.302494
vt 0.394652 0.300029
vt 0.389082 0.301407
vt 0.391132 0.299228
vt 0.393804 0.296853
vt 0.391277 0.297652
vt 0.388806 0.298272
vt 0.389682 0.296767
vt 0.391713 0.294660
vt 0.386866 0.272637
vt 0.387643 0.269497
vt 0.383390 0.271129
vt 0.385277 0.268827
vt 0.383625 0.267180
vt 0.382456 0.268436
vt 0.380980 0.268448
vt 0.380224 0.269958
vt 0.378509 0.267733
vt 0.380315 0.266576
vt 0.414649 0.334411
vt 0.412366 0.335303
vt 0.411299 0.339179
vt 0.024918 0.484761
vt 0.032406 0.485019
vt 0.023215 0.480014
vt 0.417195 0.330556
s 1
usemtl abyss_chancel_background_pbr
f 1/1/1 2/2/2 8/3/3 5/4/4
f 1/1/1 3/5/5 156/6/6 2/2/2
f 1/1/1 4/7/7 154/8/8 3/5/5
f 4/7/7 1/1/1 5/4/4 7/9/9
f 8/3/3 9/10/10 6/11/11 5/4/4
f 7/9/9 5/4/4 6/11/11 20/12/12
f 2/2/2 11/13/13 10/14/14 8/3/3
f 10/14/14 12/15/15 9/10/10 8/3/3
f 11/16/13 14/17/16 13/18/17 10/19/14
f 13/18/17 15/20/18 12/21/15 10/19/14
f 14/17/16 17/22/19 16/23/20 13/18/17
f 16/23/20 18/24/21 15/20/18 13/18/17
f 20/25/12 18/24/21 16/23/20 7/26/9
f 4/27/7 7/26/9 16/23/20 17/22/19
f 19/28/22 124/29/23 15/20/18 18/24/21
f 18/24/21 20/25/12 21/30/24 19/28/22
f 6/11/11 22/31/25 21/32/24 20/12/12
f 21/32/24 22/31/25 26/33/26 23/34/27
f 25/35/28 19/28/22 21/30/24 23/36/27
f 25/35/28 23/36/27 24/37/29 127/38/30
f 24/39/29 23/34/27 26/33/26 29/40/31
f 59/41/32 27/42/33 26/33/26 28/43/34
f 30/44/35 29/40/31 26/33/26 27/42/33
f 138/45/36 28/43/34 26/33/26 22/31/25
f 29/40/31 30/44/35 32/46/37 31/47/38
f 24/39/29 29/40/31 31/47/38 33/48/39
f 31/49/38 32/50/37 36/51/40 34/52/41
f 37/53/42 33/48/39 31/47/38 34/54/41
f 36/51/40 47/55/43 35/56/44 34/52/41
f 34/54/41 35/57/44 39/58/45 37/53/42
f 38/59/46 137/60/47 33/61/39 37/62/42
f 38/59/46 37/62/42 39/63/45 40/64/48
f 40/64/48 39/63/45 35/56/44 42/65/49
f 41/66/50 136/67/51 38/59/46 40/64/48
f 43/68/52 41/66/50 40/64/48 42/65/49
f 42/65/49 44/69/53 45/70/54 43/68/52
f 44/69/53 42/65/49 35/56/44 47/55/43
f 46/71/55 119/72/56 45/70/54 44/69/53
f 44/69/53 47/55/43 48/73/57 46/71/55
f 48/73/57 47/55/43 36/51/40 50/74/58
f 51/75/59 49/76/60 48/73/57 50/74/58
f 139/77/61 46/71/55 48/73/57 49/76/60
f 51/75/59 50/74/58 52/78/62 53/79/63
f 52/78/62 50/74/58 36/51/40 32/50/37
f 55/80/64 53/79/63 52/78/62 54/81/65
f 30/82/35 54/81/65 52/78/62 32/50/37
f 27/83/33 56/84/66 54/81/65 30/82/35
f 57/85/67 55/80/64 54/81/65 56/84/66
f 58/86/68 62/87/69 57/85/67 56/84/66
f 27/88/33 59/89/32 58/90/68 56/91/66
f 122/92/70 61/93/71 58/90/68 59/89/32
f 86/94/72 60/95/73 58/90/68 61/93/71
f 64/96/74 62/87/69 58/86/68 60/97/73
f 62/87/69 63/98/75 151/99/76 57/85/67
f 62/87/69 64/96/74 66/100/77 63/98/75
f 64/96/74 60/97/73 83/101/78 65/102/79
f 66/100/77 64/96/74 65/102/79 67/103/80
f 66/100/77 67/103/80 71/104/81 68/105/82
f 69/106/83 63/98/75 66/100/77 68/105/82
f 69/106/83 68/105/82 70/107/84 109/108/85
f 71/104/81 72/109/86 70/107/84 68/105/82
f 75/110/87 72/109/86 71/104/81 73/111/88
f 76/112/89 73/111/88 71/104/81 67/103/80
f 74/113/90 95/114/91 75/110/87 73/111/88
f 74/113/90 73/111/88 76/112/89 77/115/92
f 65/102/79 78/116/93 76/112/89 67/103/80
f 79/117/94 77/115/92 76/112/89 78/116/93
f 78/116/93 65/102/79 83/101/78 80/118/95
f 80/118/95 81/119/96 79/117/94 78/116/93
f 82/120/97 99/121/98 81/122/96 80/123/95
f 80/123/95 83/124/78 84/125/99 82/120/97
f 60/95/73 86/94/72 84/125/99 83/124/78
f 84/125/99 85/126/100 93/127/101 82/120/97
f 86/94/72 87/128/102 85/126/100 84/125/99
f 61/93/71 88/129/103 87/128/102 86/94/72
f 87/128/102 88/129/103 90/130/104 89/131/105
f 89/131/105 91/132/106 85/126/100 87/128/102
f 70/133/84 89/131/105 90/130/104 109/134/85
f 91/132/106 89/131/105 70/133/84 72/135/86
f 72/135/86 75/136/87 92/137/107 91/132/106
f 91/132/106 92/137/107 93/127/101 85/126/100
f 94/138/108 97/139/109 93/127/101 92/137/107
f 95/140/91 94/138/108 92/137/107 75/136/87
f 95/140/91 107/141/110 96/142/111 94/138/108
f 97/139/109 94/138/108 96/142/111 98/143/112
f 98/143/112 100/144/113 99/121/98 97/139/109
f 93/127/101 97/139/109 99/121/98 82/120/97
f 100/144/113 101/145/114 81/122/96 99/121/98
f 101/145/114 100/144/113 102/146/115 104/147/116
f 102/146/115 100/144/113 98/143/112 103/148/117
f 103/149/117 105/150/118 104/151/116 102/152/115
f 105/150/118 77/115/92 79/117/94 104/151/116
f 101/153/114 104/151/116 79/117/94 81/119/96
f 77/115/92 105/150/118 106/154/119 74/113/90
f 103/149/117 107/155/110 106/154/119 105/150/118
f 95/114/91 74/113/90 106/154/119 107/155/110
f 103/148/117 98/143/112 96/142/111 107/141/110
f 90/130/104 88/129/103 118/156/120 108/157/121
f 110/158/122 109/108/85 90/159/104 108/160/121
f 111/161/123 69/106/83 109/108/85 110/158/122
f 114/162/124 111/161/123 110/158/122 112/163/125
f 115/164/126 112/163/125 110/158/122 108/160/121
f 115/164/126 116/165/127 113/166/128 112/163/125
f 114/162/124 112/163/125 113/166/128 140/167/129
f 115/164/126 117/168/130 119/72/56 116/165/127
f 115/164/126 108/160/121 118/169/120 117/168/130
f 118/170/120 122/171/70 120/172/131 117/173/130
f 119/174/56 117/173/130 120/172/131 45/175/54
f 45/70/54 120/176/131 123/177/132 125/178/133
f 138/45/36 121/179/134 120/172/131 28/43/34
f 121/180/134 124/29/23 123/177/132 120/176/131
f 59/41/32 28/43/34 120/172/131 122/171/70
f 127/38/30 126/181/135 123/177/132 25/35/28
f 19/28/22 25/35/28 123/177/132 124/29/23
f 129/182/136 125/178/133 123/177/132 126/181/135
f 126/181/135 127/38/30 137/60/47 128/183/137
f 129/182/136 126/181/135 128/183/137 131/184/138
f 130/185/139 45/70/54 125/178/133 129/182/136
f 130/185/139 129/182/136 131/184/138 133/186/140
f 128/183/137 136/67/51 132/187/141 131/184/138
f 133/186/140 131/184/138 132/187/141 134/188/142
f 135/189/143 130/185/139 133/186/140 134/188/142
f 41/66/50 134/188/142 132/187/141 136/67/51
f 135/189/143 134/188/142 41/66/50 43/68/52
f 135/189/143 43/68/52 45/70/54 130/185/139
f 136/67/51 128/183/137 137/60/47 38/59/46
f 127/38/30 24/37/29 33/61/39 137/60/47
f 124/29/23 121/180/134 12/21/15 15/20/18
f 61/93/71 122/92/70 118/156/120 88/129/103
f 121/179/134 138/45/36 9/10/10 12/15/15
f 138/45/36 22/31/25 6/11/11 9/10/10
f 116/165/127 119/72/56 46/71/55 139/77/61
f 139/77/61 140/167/129 113/166/128 116/165/127
f 49/76/60 141/190/144 140/167/129 139/77/61
f 142/191/145 114/162/124 140/167/129 141/190/144
f 142/191/145 141/190/144 143/192/146 145/193/147
f 49/76/60 51/75/59 143/192/146 141/190/144
f 150/194/148 145/193/147 143/192/146 144/195/149
f 147/196/150 144/195/149 143/192/146 146/197/151
f 53/79/63 146/197/151 143/192/146 51/75/59
f 147/196/150 146/197/151 148/198/152 149/199/153
f 53/79/63 55/80/64 148/198/152 146/197/151
f 148/198/152 55/80/64 57/85/67 149/199/153
f 149/199/153 150/194/148 144/195/149 147/196/150
f 149/199/153 57/85/67 151/99/76 150/194/148
f 145/193/147 150/194/148 151/99/76 142/191/145
f 114/162/124 142/191/145 151/99/76 111/161/123
f 69/106/83 111/161/123 151/99/76 63/98/75
f 14/17/16 153/200/154 152/201/155 17/22/19
f 17/22/19 152/201/155 154/202/8 4/27/7
f 153/203/154 3/5/5 154/8/8 152/204/155
f 153/203/154 155/205/156 156/6/6 3/5/5
f 14/17/16 11/16/13 155/206/156 153/200/154
f 11/13/13 2/2/2 156/6/6 155/205/156
