# Blender 5.2.0 LTS
# www.blender.org
mtllib terrain-abyss-chancel-object-061.mtl
o terrain-abyss-chancel-object-061
v -0.263740 0.122299 -0.029287
v -0.265273 0.123018 -0.037383
v -0.266135 0.116954 -0.028497
v -0.264999 0.122300 -0.016856
v -0.264344 0.129419 -0.030428
v -0.264276 0.129210 -0.017699
v -0.265435 0.137457 -0.031106
v -0.268250 0.128968 -0.036491
v -0.273769 0.126837 -0.038841
v -0.270689 0.136482 -0.036093
v -0.277236 0.134083 -0.037504
v -0.271707 0.149041 -0.036995
v -0.266226 0.156806 -0.037349
v -0.274576 0.161343 -0.037915
v -0.280433 0.144061 -0.037610
v -0.265308 0.147743 -0.032841
v -0.263246 0.147087 -0.018830
v -0.259941 0.157379 -0.038944
v -0.259419 0.156007 -0.018671
v -0.245286 0.156366 -0.040280
v -0.260799 0.165294 -0.050688
v -0.248002 0.156821 -0.062220
v -0.241429 0.163090 -0.074816
v -0.255816 0.163556 -0.067901
v -0.235343 0.157108 -0.058076
v -0.228551 0.163117 -0.068652
v -0.221425 0.156813 -0.049111
v -0.208649 0.157881 -0.038924
v -0.230664 0.156443 -0.035271
v -0.213278 0.162885 -0.056836
v -0.206561 0.165274 -0.038052
v -0.209916 0.175187 -0.057712
v -0.226688 0.175413 -0.070080
v -0.206209 0.177100 -0.038140
v -0.208787 0.189598 -0.056917
v -0.205634 0.190938 -0.036753
v -0.225761 0.189611 -0.069445
v -0.208568 0.204262 -0.056214
v -0.204785 0.205473 -0.037924
v -0.212452 0.216613 -0.054207
v -0.224061 0.203797 -0.069835
v -0.236249 0.203916 -0.075031
v -0.224604 0.215921 -0.066143
v -0.229202 0.221272 -0.056220
v -0.235744 0.216454 -0.070887
v -0.240052 0.221799 -0.060188
v -0.243924 0.217197 -0.074193
v -0.250815 0.214224 -0.073687
v -0.248912 0.221597 -0.063217
v -0.244749 0.204743 -0.078584
v -0.253268 0.204275 -0.074642
v -0.248162 0.190211 -0.079319
v -0.250832 0.175651 -0.078753
v -0.239080 0.189863 -0.075651
v -0.254958 0.189955 -0.072792
v -0.256316 0.175843 -0.069843
v -0.259449 0.189597 -0.060667
v -0.263788 0.190146 -0.044230
v -0.258619 0.203087 -0.063836
v -0.260263 0.176227 -0.056328
v -0.266510 0.176859 -0.038231
v -0.276802 0.173361 -0.035930
v -0.265485 0.164637 -0.038433
v -0.270423 0.181911 -0.025912
v -0.269370 0.191468 -0.029060
v -0.277443 0.178650 -0.024654
v -0.274380 0.183598 -0.009108
v -0.275993 0.183773 0.012247
v -0.273634 0.193062 -0.011530
v -0.279576 0.179100 -0.007675
v -0.282556 0.179054 0.012232
v -0.288596 0.178801 -0.006826
v -0.286635 0.178626 -0.023480
v -0.291575 0.178189 0.011879
v -0.298325 0.179152 -0.005499
v -0.300756 0.178419 0.012364
v -0.308385 0.179867 -0.003986
v -0.297053 0.179226 -0.021991
v -0.307052 0.181070 -0.020315
v -0.296581 0.175358 -0.034970
v -0.285991 0.172322 -0.034998
v -0.297027 0.161298 -0.038556
v -0.306813 0.176867 -0.033617
v -0.306446 0.164401 -0.039251
v -0.315561 0.174470 -0.030061
v -0.315813 0.164693 -0.033020
v -0.315813 0.175644 -0.019034
v -0.315643 0.174612 -0.002080
v -0.316606 0.164592 -0.018327
v -0.315851 0.163667 -0.000747
v -0.316467 0.152719 -0.018003
v -0.314666 0.152397 -0.032928
v -0.315750 0.151529 0.000154
v -0.314776 0.140730 -0.017899
v -0.307215 0.135741 -0.017932
v -0.312920 0.142658 -0.030940
v -0.313880 0.138855 0.000913
v -0.311190 0.134093 0.020755
v -0.306301 0.133685 0.000383
v -0.305539 0.133714 0.018102
v -0.298401 0.133180 0.000261
v -0.300161 0.134218 -0.017688
v -0.297286 0.133188 0.017522
v -0.292053 0.132605 -0.000003
v -0.290510 0.132312 0.017035
v -0.288918 0.128059 -0.000436
v -0.294497 0.133659 -0.017686
v -0.289559 0.129792 -0.017901
v -0.295340 0.136537 -0.030863
v -0.290396 0.132612 -0.030342
v -0.300533 0.138914 -0.031988
v -0.291622 0.144611 -0.036503
v -0.285943 0.156028 -0.037171
v -0.286794 0.138347 -0.036259
v -0.298354 0.149139 -0.037969
v -0.306274 0.151194 -0.038940
v -0.306215 0.139986 -0.033178
v -0.283063 0.130076 -0.036457
v -0.286479 0.125651 -0.030437
v -0.278563 0.122594 -0.038081
v -0.271775 0.118035 -0.038236
v -0.280958 0.118667 -0.030962
v -0.273142 0.116159 -0.029989
v -0.282201 0.117603 -0.018161
v -0.287733 0.122664 -0.018231
v -0.275401 0.116066 -0.017055
v -0.283661 0.117459 -0.001092
v -0.276694 0.115769 -0.001153
v -0.283476 0.117932 0.015634
v -0.288674 0.121949 -0.000908
v -0.288934 0.121186 0.016392
v -0.288635 0.127258 0.016686
v -0.285481 0.122159 0.030759
v -0.281627 0.118278 0.029832
v -0.286382 0.127729 0.030394
v -0.278630 0.125371 0.039871
v -0.269711 0.126761 0.038346
v -0.276604 0.120708 0.040006
v -0.280610 0.130552 0.038249
v -0.283875 0.136287 0.037174
v -0.270557 0.132065 0.037743
v -0.264215 0.131741 0.028765
v -0.271378 0.139847 0.037928
v -0.263808 0.140941 0.029084
v -0.271421 0.148885 0.038507
v -0.258388 0.156580 0.041809
v -0.262690 0.149772 0.029449
v -0.277211 0.157737 0.038971
v -0.289781 0.143287 0.035549
v -0.291335 0.154495 0.035436
v -0.295264 0.135786 0.028896
v -0.303973 0.144556 0.033953
v -0.304777 0.137683 0.029718
v -0.304079 0.155133 0.035333
v -0.312075 0.144458 0.033118
v -0.310103 0.137761 0.029726
v -0.316261 0.143255 0.027391
v -0.312732 0.154860 0.033885
v -0.312188 0.166345 0.034626
v -0.316409 0.153121 0.026993
v -0.316077 0.151071 0.016242
v -0.316689 0.165290 0.027720
v -0.316336 0.163666 0.014782
v -0.316462 0.179025 0.032222
v -0.316707 0.174639 0.014358
v -0.309969 0.177356 0.029188
v -0.310089 0.178599 0.013176
v -0.302321 0.176097 0.027882
v -0.293566 0.175974 0.028326
v -0.303387 0.166404 0.035210
v -0.292751 0.165903 0.034685
v -0.282244 0.167314 0.037832
v -0.270203 0.171064 0.043325
v -0.285369 0.177216 0.030031
v -0.275718 0.183445 0.035082
v -0.275756 0.195325 0.034702
v -0.258782 0.184965 0.050708
v -0.259433 0.197396 0.051220
v -0.255468 0.173180 0.052766
v -0.246508 0.185586 0.057880
v -0.236337 0.185621 0.058690
v -0.244568 0.173208 0.058551
v -0.246879 0.198326 0.059579
v -0.245396 0.212176 0.058632
v -0.235794 0.198037 0.059505
v -0.228025 0.197912 0.052684
v -0.235354 0.212441 0.060352
v -0.232337 0.219449 0.052509
v -0.227094 0.209903 0.053208
v -0.222696 0.209040 0.040341
v -0.225492 0.215952 0.051193
v -0.222334 0.217620 0.040201
v -0.219475 0.217613 0.023180
v -0.228262 0.221376 0.039889
v -0.223103 0.220739 0.021837
v -0.237533 0.222101 0.039275
v -0.233317 0.222026 0.023141
v -0.249465 0.222330 0.036390
v -0.241578 0.220137 0.051568
v -0.255654 0.219274 0.045762
v -0.270888 0.218649 0.031711
v -0.259709 0.209843 0.051260
v -0.277622 0.206435 0.034728
v -0.277139 0.205531 0.010120
v -0.276204 0.194077 0.011200
v -0.274892 0.216355 0.009748
v -0.273458 0.204240 -0.012827
v -0.273400 0.215937 -0.013325
v -0.268808 0.202961 -0.032264
v -0.267801 0.215007 -0.034773
v -0.263847 0.202523 -0.048993
v -0.262195 0.214402 -0.051475
v -0.254895 0.221052 -0.050137
v -0.256203 0.215272 -0.065019
v -0.260743 0.221820 -0.034364
v -0.245488 0.221983 -0.047192
v -0.234244 0.221187 -0.043441
v -0.250493 0.221973 -0.031664
v -0.237374 0.220625 -0.028639
v -0.253840 0.222143 -0.011580
v -0.239334 0.222257 -0.010654
v -0.265497 0.222608 -0.012656
v -0.254827 0.221464 0.008254
v -0.240544 0.221347 0.007832
v -0.254222 0.221668 0.020142
v -0.266263 0.221642 0.009128
v -0.261930 0.221200 0.025974
v -0.243985 0.221920 0.023608
v -0.227097 0.221944 0.005146
v -0.211475 0.219679 -0.003229
v -0.224053 0.222317 -0.010625
v -0.212087 0.217354 -0.015950
v -0.222103 0.221612 -0.026643
v -0.220503 0.221809 -0.039828
v -0.210950 0.217149 -0.025508
v -0.208872 0.217117 -0.038428
v -0.205165 0.206347 -0.024243
v -0.208500 0.192833 -0.020101
v -0.208322 0.205929 -0.009527
v -0.207845 0.191836 -0.003401
v -0.204956 0.205883 -0.011369
v -0.203832 0.193917 -0.011404
v -0.205165 0.206347 -0.024243
v -0.209952 0.214502 -0.009522
v -0.205182 0.217940 -0.017881
v -0.204951 0.230089 -0.017540
v -0.199129 0.216724 -0.037404
v -0.212548 0.220268 0.003873
v -0.209812 0.231304 -0.000399
v -0.214354 0.210722 0.011277
v -0.211899 0.221999 0.014605
v -0.211641 0.234053 0.013584
v -0.209185 0.222556 0.022671
v -0.211741 0.212033 0.014549
v -0.209475 0.211168 0.022358
v -0.212307 0.203190 0.013856
v -0.213886 0.199877 0.011920
v -0.209918 0.201809 0.021880
v -0.211395 0.194325 0.012023
v -0.208369 0.191875 0.019440
v -0.206834 0.188604 0.007314
v -0.211857 0.195321 0.006473
v -0.202436 0.185809 0.012568
v -0.200022 0.185646 0.002143
v -0.196107 0.184119 0.020275
v -0.190738 0.183438 0.010481
v -0.200993 0.191231 0.027802
v -0.183036 0.185345 0.032217
v -0.184831 0.191824 0.038133
v -0.169738 0.185747 0.045409
v -0.178153 0.183668 0.022873
v -0.169803 0.183584 0.008526
v -0.164029 0.185025 0.038995
v -0.156951 0.187702 0.032242
v -0.154921 0.185023 0.052979
v -0.161317 0.187626 0.055198
v -0.147092 0.184427 0.050902
v -0.150609 0.185373 0.066042
v -0.158159 0.188240 0.065181
v -0.142431 0.184199 0.065918
v -0.150350 0.186316 0.076476
v -0.141669 0.185163 0.078089
v -0.152031 0.188468 0.084293
v -0.158442 0.190540 0.073238
v -0.163038 0.196000 0.070811
v -0.159554 0.193285 0.079615
v -0.164293 0.196688 0.077058
v -0.158481 0.199864 0.082407
v -0.158264 0.206523 0.084021
v -0.163788 0.202688 0.076690
v -0.150925 0.196371 0.087942
v -0.141790 0.194509 0.090849
v -0.149293 0.204151 0.089627
v -0.139441 0.203622 0.091609
v -0.145743 0.209851 0.086004
v -0.135942 0.208032 0.086994
v -0.155806 0.211145 0.083942
v -0.142077 0.211410 0.077127
v -0.153995 0.212474 0.076315
v -0.139295 0.212392 0.066550
v -0.131439 0.209542 0.078388
v -0.123375 0.203536 0.079992
v -0.128141 0.210444 0.066136
v -0.129081 0.210206 0.047561
v -0.118913 0.204800 0.067477
v -0.124432 0.203180 0.046781
v -0.118392 0.194366 0.067609
v -0.122440 0.194512 0.079963
v -0.124985 0.195379 0.046453
v -0.123769 0.185919 0.067059
v -0.128485 0.187959 0.047911
v -0.126282 0.187258 0.079281
v -0.133314 0.183279 0.066277
v -0.136742 0.184841 0.048764
v -0.133566 0.185062 0.078657
v -0.135049 0.185853 0.088655
v -0.128646 0.186776 0.088563
v -0.142740 0.186181 0.087718
v -0.132784 0.194668 0.092393
v -0.129395 0.205637 0.093066
v -0.126215 0.194702 0.089647
v -0.127206 0.204586 0.088041
v -0.145120 0.186087 0.027024
v -0.155096 0.183746 0.004276
v -0.136242 0.186402 0.022943
v -0.128017 0.191904 0.017921
v -0.145502 0.185071 0.001515
v -0.141049 0.191906 0.000109
v -0.146564 0.184623 -0.016488
v -0.139599 0.190530 -0.015943
v -0.156708 0.183727 -0.016352
v -0.145069 0.185781 -0.030539
v -0.144774 0.188305 -0.042033
v -0.154396 0.184938 -0.031101
v -0.138035 0.190224 -0.030222
v -0.135355 0.199516 -0.031660
v -0.138110 0.189350 -0.041146
v -0.136366 0.195975 -0.041826
v -0.139432 0.189995 -0.049655
v -0.138275 0.195176 -0.048519
v -0.141180 0.191240 -0.054177
v -0.144967 0.189478 -0.051127
v -0.144014 0.190671 -0.055365
v -0.148924 0.192559 -0.051793
v -0.145925 0.194748 -0.055138
v -0.151125 0.192111 -0.043114
v -0.144303 0.197474 -0.047580
v -0.152260 0.197577 -0.041655
v -0.164656 0.189189 -0.041396
v -0.163202 0.195230 -0.043639
v -0.167680 0.184397 -0.031904
v -0.178101 0.187212 -0.046554
v -0.188088 0.189821 -0.054765
v -0.184145 0.184269 -0.036914
v -0.173824 0.192645 -0.049369
v -0.174396 0.200997 -0.050309
v -0.179990 0.189923 -0.055774
v -0.181438 0.198782 -0.055455
v -0.181241 0.188666 -0.061718
v -0.180926 0.195446 -0.061065
v -0.185727 0.188448 -0.062889
v -0.184609 0.195182 -0.061897
v -0.188377 0.198757 -0.055530
v -0.193943 0.215062 -0.051498
v -0.196855 0.202502 -0.043232
v -0.193311 0.191335 -0.046395
v -0.199163 0.193525 -0.033260
v -0.194076 0.186592 -0.032558
v -0.203099 0.193599 -0.021770
v -0.196627 0.185356 -0.020270
v -0.185007 0.183829 -0.019025
v -0.198352 0.186249 -0.007601
v -0.187050 0.184894 -0.001710
v -0.169374 0.183930 -0.015906
v -0.185688 0.214359 -0.054623
v -0.195222 0.230762 -0.047843
v -0.187249 0.229844 -0.054590
v -0.192882 0.244369 -0.046232
v -0.200039 0.230432 -0.034664
v -0.199467 0.245073 -0.033213
v -0.190747 0.252748 -0.029824
v -0.204527 0.242848 -0.016500
v -0.209018 0.241578 -0.000628
v -0.197940 0.251351 -0.014288
v -0.203913 0.251559 0.000805
v -0.187120 0.252972 -0.011388
v -0.192483 0.252728 0.003497
v -0.180015 0.253550 -0.026204
v -0.173584 0.252980 -0.007232
v -0.166932 0.253594 -0.021729
v -0.160102 0.252722 -0.001914
v -0.179701 0.252646 0.008303
v -0.166600 0.252416 0.015043
v -0.185694 0.251970 0.021140
v -0.172283 0.251757 0.029044
v -0.192445 0.247950 0.031447
v -0.194357 0.252190 0.013786
v -0.202602 0.249168 0.016518
v -0.209253 0.241152 0.018683
v -0.196248 0.235333 0.034131
v -0.197655 0.220926 0.033528
v -0.179924 0.234023 0.043394
v -0.165037 0.234721 0.046606
v -0.180248 0.221802 0.042812
v -0.177203 0.247213 0.040475
v -0.166158 0.245183 0.042564
v -0.160162 0.246568 0.035411
v -0.157591 0.234211 0.037039
v -0.155061 0.247499 0.020983
v -0.148442 0.249274 0.003058
v -0.151219 0.234610 0.022988
v -0.144858 0.237173 0.004201
v -0.151217 0.223602 0.023639
v -0.145168 0.224427 0.004558
v -0.149085 0.214673 0.025780
v -0.157925 0.223856 0.037353
v -0.156780 0.214879 0.038246
v -0.165798 0.223420 0.046779
v -0.165724 0.212676 0.046625
v -0.160406 0.210160 0.050079
v -0.169038 0.201153 0.047949
v -0.181501 0.211004 0.042119
v -0.183634 0.200727 0.040940
v -0.199537 0.210776 0.032221
v -0.201106 0.200711 0.030545
v -0.162663 0.201541 0.052803
v -0.170704 0.192193 0.047557
v -0.163305 0.193745 0.054873
v -0.162449 0.194863 0.063249
v -0.162781 0.202894 0.060561
v -0.163740 0.203491 0.068920
v -0.159324 0.210869 0.057763
v -0.160846 0.211144 0.067490
v -0.149859 0.214343 0.054782
v -0.151182 0.213330 0.066857
v -0.138623 0.213086 0.050393
v -0.152348 0.214090 0.044124
v -0.142776 0.212083 0.034550
v -0.132707 0.211494 0.025735
v -0.125275 0.203360 0.018823
v -0.141859 0.213353 0.008229
v -0.138641 0.212578 -0.013438
v -0.140373 0.201913 0.002776
v -0.138325 0.200218 -0.015333
v -0.134958 0.212648 -0.028266
v -0.138574 0.225430 -0.013159
v -0.138552 0.239267 -0.012547
v -0.135324 0.226977 -0.027149
v -0.142134 0.227778 -0.036907
v -0.135855 0.241436 -0.025983
v -0.143209 0.241903 -0.036441
v -0.141563 0.250259 -0.023310
v -0.148678 0.252490 -0.028449
v -0.142756 0.251144 -0.012859
v -0.154292 0.253466 -0.016814
v -0.160388 0.252484 -0.033978
v -0.173597 0.252162 -0.038769
v -0.155302 0.242709 -0.042352
v -0.168547 0.242614 -0.046903
v -0.153479 0.227687 -0.042102
v -0.166494 0.227604 -0.046870
v -0.152304 0.213598 -0.041710
v -0.164780 0.213558 -0.045950
v -0.152488 0.203629 -0.041897
v -0.141650 0.213692 -0.037319
v -0.142602 0.203134 -0.039269
v -0.143243 0.199363 -0.042647
v -0.163281 0.202604 -0.044913
v -0.176949 0.214089 -0.051276
v -0.178176 0.228162 -0.051967
v -0.179199 0.242595 -0.051798
v -0.186294 0.240818 -0.052626
v -0.184355 0.251824 -0.043396
v -0.162060 0.209635 0.076490
v -0.141638 0.194753 -0.054260
v -0.215840 0.189709 0.008100
v -0.218854 0.198431 0.024198
v -0.218223 0.209340 0.024263
v -0.219681 0.187169 0.022485
v -0.223525 0.198037 0.040124
v -0.224141 0.185459 0.039881
v -0.228778 0.185268 0.052347
v -0.224792 0.173082 0.040460
v -0.229553 0.172332 0.053502
v -0.225111 0.162199 0.039946
v -0.219910 0.176180 0.021905
v -0.215639 0.179607 0.006136
v -0.220289 0.164522 0.022383
v -0.228751 0.157215 0.021241
v -0.215942 0.166528 0.005449
v -0.224932 0.157472 0.002612
v -0.212273 0.167754 -0.008988
v -0.212393 0.181407 -0.005170
v -0.209886 0.167203 -0.023599
v -0.221019 0.157821 -0.013973
v -0.216138 0.158521 -0.027517
v -0.236177 0.156382 -0.018807
v -0.238312 0.156471 0.000655
v -0.249882 0.156175 -0.019758
v -0.250173 0.156210 -0.000128
v -0.260057 0.154463 -0.000562
v -0.251813 0.156223 0.017478
v -0.253873 0.155914 0.031994
v -0.261510 0.153048 0.016219
v -0.240511 0.156286 0.019191
v -0.243224 0.156491 0.035192
v -0.247629 0.156847 0.046281
v -0.232689 0.156772 0.038099
v -0.237574 0.156878 0.050407
v -0.229754 0.160906 0.053698
v -0.243063 0.161254 0.057646
v -0.236186 0.158120 0.064099
v -0.252548 0.162922 0.052529
v -0.265025 0.162054 0.046415
v -0.235527 0.173446 0.060801
v -0.263710 0.142745 0.015538
v -0.263473 0.132912 0.015201
v -0.263612 0.145240 -0.001254
v -0.263749 0.135297 -0.001211
v -0.263747 0.137263 -0.018471
v -0.264277 0.127606 -0.000960
v -0.265084 0.120165 -0.000888
v -0.264365 0.125945 0.015250
v -0.264873 0.125650 0.028834
v -0.265468 0.119955 0.015207
v -0.270048 0.115932 0.015051
v -0.265828 0.120462 0.028893
v -0.269926 0.116631 0.028434
v -0.268683 0.122416 0.039155
v -0.268861 0.118772 0.038299
v -0.274272 0.118246 0.037565
v -0.275966 0.116714 0.028818
v -0.276991 0.116471 0.015123
v -0.269649 0.115076 -0.001031
v -0.268735 0.116356 -0.016446
v -0.209482 0.180088 -0.021759
v -0.219654 0.220811 -0.050508
v -0.288958 0.132869 0.029539
v -0.265083 0.116967 -0.035923
v -0.270197 0.122907 -0.039743
v -0.240393 0.175452 -0.076953
v -0.250394 0.164603 -0.076451
vn 0.7508 0.0241 -0.6601
vn 0.5850 0.2612 -0.7678
vn 0.9570 0.1157 -0.2658
vn 0.9924 -0.1143 -0.0445
vn 0.5972 -0.8021 -0.0033
vn 0.6127 -0.6810 -0.4010
vn 0.9544 -0.2966 0.0340
vn 0.4741 -0.8804 -0.0000
vn 0.9993 -0.0358 -0.0071
vn 0.8979 0.0181 -0.4397
vn 0.9983 -0.0269 -0.0521
vn 0.4403 0.0675 -0.8953
vn 0.1601 0.0106 -0.9870
vn 0.0082 0.1253 -0.9921
vn -0.0089 0.0460 -0.9989
vn -0.0175 -0.0332 -0.9993
vn 0.1911 -0.1238 -0.9737
vn 0.7766 -0.3091 -0.5490
vn -0.0911 -0.3250 -0.9413
vn -0.1425 -0.9015 -0.4087
vn -0.5414 -0.1806 -0.8211
vn -0.0686 0.0237 -0.9974
vn 0.0158 0.0256 -0.9995
vn 0.9686 -0.2407 -0.0626
vn 0.5416 -0.8389 -0.0544
vn 0.0172 -0.9996 -0.0212
vn -0.0122 -0.9997 -0.0223
vn -0.2220 -0.9365 -0.2714
vn 0.1110 -0.9684 -0.2232
vn -0.8626 -0.3803 -0.3337
vn -0.7520 -0.5100 -0.4176
vn 0.1630 -0.6149 -0.7716
vn 0.4097 -0.5932 -0.6930
vn -0.3755 -0.4957 -0.7831
vn 0.0475 -0.9988 0.0073
vn 0.2541 -0.9477 -0.1932
vn 0.6833 -0.5169 -0.5157
vn 0.9289 -0.3699 0.0195
vn 0.5673 -0.8235 0.0018
vn 0.4456 -0.8792 0.1688
vn 0.8363 -0.1065 -0.5379
vn 0.9967 -0.0808 -0.0042
vn 0.5174 -0.0881 -0.8512
vn 0.5183 -0.0174 -0.8550
vn 0.8584 -0.0332 -0.5119
vn 0.9972 -0.0743 0.0028
vn 0.9881 0.1442 -0.0527
vn 0.8575 0.1329 -0.4970
vn 0.5261 0.1178 -0.8422
vn 0.7343 0.6770 -0.0499
vn 0.6647 0.6309 -0.4002
vn 0.4322 0.6143 -0.6602
vn 0.3748 -0.0193 -0.9269
vn 0.3950 0.1127 -0.9117
vn 0.3114 0.6535 -0.6899
vn 0.1468 0.9671 -0.2078
vn 0.2471 0.9536 -0.1719
vn 0.0904 0.9785 -0.1853
vn -0.0109 0.6650 -0.7467
vn -0.2499 0.9287 -0.2740
vn -0.0057 0.1547 -0.9879
vn -0.5653 0.4570 -0.6867
vn -0.7688 0.4939 -0.4063
vn -0.7083 0.1391 -0.6921
vn -0.2055 0.0170 -0.9785
vn -0.8329 0.0273 -0.5527
vn -0.8990 -0.0506 -0.4351
vn -0.3809 -0.0851 -0.9207
vn 0.3253 -0.0897 -0.9414
vn -0.9532 -0.0438 -0.2990
vn -0.9473 -0.0145 -0.3201
vn -0.9222 0.0584 -0.3824
vn -0.9519 -0.0279 -0.3051
vn -0.9496 -0.0023 -0.3135
vn -0.8160 0.1691 -0.5527
vn -0.2999 0.9099 -0.2867
vn -0.8256 0.4509 -0.3393
vn -0.2296 0.5245 -0.8199
vn -0.9602 -0.0107 -0.2791
vn -0.8767 0.4558 -0.1536
vn -0.9840 -0.0073 -0.1780
vn -0.3345 0.9405 -0.0598
vn -0.3587 0.9334 0.0108
vn -0.8907 0.4530 -0.0380
vn -0.9977 -0.0430 -0.0520
vn -0.0357 0.9968 0.0714
vn -0.0022 1.0000 0.0065
vn 0.0184 0.9757 -0.2185
vn 0.1051 0.9820 -0.1569
vn 0.0698 0.9968 0.0397
vn 0.0501 0.9945 0.0921
vn -0.2442 0.9689 0.0391
vn -0.1776 0.9839 0.0215
vn -0.1822 0.9782 -0.0995
vn -0.2045 0.7318 -0.6501
vn 0.1166 0.6753 -0.7283
vn 0.0090 0.5733 -0.8193
vn 0.0972 0.0986 -0.9904
vn -0.2396 0.1607 -0.9575
vn -0.8443 0.0877 -0.5286
vn -0.7724 0.4942 -0.3990
vn -0.8452 0.5323 -0.0478
vn -0.9998 0.0102 -0.0148
vn -0.8775 0.4796 0.0005
vn -1.0000 0.0015 -0.0017
vn -0.8385 -0.1578 -0.5216
vn -0.9951 -0.0912 -0.0374
vn -0.9952 -0.0962 0.0187
vn -0.7390 -0.5066 -0.4441
vn -0.8358 -0.5386 -0.1063
vn -0.8251 -0.5648 -0.0176
vn -0.3478 -0.9224 -0.1679
vn -0.2933 -0.9545 -0.0536
vn -0.2888 -0.7106 -0.6416
vn -0.5857 -0.7940 0.1628
vn -0.9913 -0.1244 -0.0420
vn -0.1647 -0.9793 0.1180
vn -0.1387 -0.9834 0.1172
vn -0.0997 -0.9946 -0.0287
vn -0.1563 -0.9739 -0.1644
vn -0.4284 -0.8969 -0.1099
vn -0.5053 -0.8630 -0.0007
vn -0.6145 -0.7827 0.0990
vn -0.9415 -0.3371 0.0056
vn -0.9686 -0.2278 0.0991
vn -0.8537 -0.5167 -0.0640
vn -0.3608 -0.7407 -0.5667
vn -0.7054 -0.5329 -0.4674
vn -0.1238 -0.7681 -0.6282
vn -0.3234 -0.2267 -0.9187
vn -0.1150 -0.2680 -0.9565
vn 0.0442 -0.2649 -0.9633
vn -0.2454 -0.2203 -0.9441
vn -0.4856 -0.1959 -0.8520
vn -0.7991 -0.4614 -0.3854
vn -0.4458 -0.3838 -0.8087
vn -0.5495 -0.7690 -0.3265
vn -0.0641 -0.6836 -0.7270
vn -0.1385 -0.9776 -0.1587
vn -0.8558 -0.5081 -0.0970
vn -0.4875 -0.8682 -0.0932
vn -0.1122 -0.9927 -0.0442
vn -0.4468 -0.8944 -0.0188
vn -0.8875 -0.4602 -0.0248
vn -0.1441 -0.9896 -0.0011
vn -0.1523 -0.9875 0.0404
vn -0.4263 -0.9030 0.0539
vn -0.8846 -0.4568 0.0935
vn -0.8212 -0.3978 0.4092
vn -0.8801 -0.2044 0.4285
vn -0.4843 -0.8305 0.2750
vn -0.2458 -0.4541 0.8564
vn -0.3671 -0.0700 0.9276
vn -0.4087 -0.0243 0.9124
vn 0.6095 -0.2005 0.7670
vn 0.5639 0.1297 0.8156
vn 0.4777 0.0912 0.8738
vn -0.3733 -0.1675 0.9125
vn 0.3755 -0.0009 0.9268
vn -0.6800 -0.5541 0.4801
vn 0.9690 -0.0561 0.2407
vn 0.9511 -0.0237 0.3078
vn 0.9321 -0.0681 0.3557
vn 0.1788 -0.3211 0.9300
vn -0.2187 -0.2393 0.9460
vn 0.7587 -0.5989 0.2562
vn -0.3639 -0.3258 0.8726
vn -0.2738 -0.1384 0.9518
vn 0.0186 -0.8641 0.5030
vn 0.2310 -0.9700 0.0752
vn -0.1230 -0.0289 0.9920
vn -0.2553 -0.8010 0.5415
vn -0.0743 -0.0369 0.9966
vn -0.0924 -0.3125 0.9454
vn -0.0593 -0.7745 0.6298
vn -0.4959 -0.3106 0.8109
vn -0.3096 -0.7303 0.6090
vn -0.5514 -0.0523 0.8326
vn -0.9193 -0.3180 0.2320
vn -0.9719 -0.0748 0.2232
vn -0.9376 -0.0002 0.3478
vn -0.3294 0.1460 0.9328
vn 0.0021 0.2886 0.9574
vn -0.9996 -0.0143 -0.0257
vn -0.7209 0.5119 0.4671
vn -0.8579 0.5117 -0.0468
vn -0.1160 0.8340 0.5394
vn 0.0608 0.8520 0.5201
vn -0.1332 0.2917 0.9472
vn -0.0990 0.8519 0.5142
vn -0.4336 0.7633 0.4790
vn -0.4003 0.1999 0.8943
vn -0.5416 0.0762 0.8372
vn -0.8003 0.2672 0.5368
vn -0.9141 -0.0605 0.4009
vn -0.6081 -0.0345 0.7931
vn -0.5939 -0.0018 0.8046
vn -0.5184 -0.0304 0.8546
vn -0.3194 -0.0317 0.9471
vn -0.3009 -0.0315 0.9531
vn -0.3965 0.0023 0.9180
vn 0.3177 0.0049 0.9482
vn 0.3202 -0.0624 0.9453
vn 0.2937 0.0902 0.9516
vn -0.2828 0.3844 0.8788
vn -0.5823 0.3023 0.7547
vn 0.2430 0.3168 0.9168
vn 0.8375 -0.0180 0.5461
vn 0.8213 -0.0732 0.5658
vn 0.8021 0.0464 0.5953
vn -0.1281 0.8740 0.4687
vn 0.2790 0.8043 0.5246
vn 0.7754 0.4051 0.4845
vn 0.9508 -0.0722 0.3014
vn 0.9587 -0.0428 0.2813
vn 0.8436 0.4743 0.2518
vn 0.3136 0.9383 0.1460
vn 0.2930 0.9524 0.0842
vn 0.8037 0.5450 0.2388
vn 0.9576 0.0301 0.2866
vn 0.0498 0.9988 -0.0032
vn 0.0215 0.9954 0.0929
vn -0.0155 0.9996 -0.0238
vn -0.0876 0.9920 0.0904
vn -0.3559 0.8194 0.4494
vn -0.1928 0.9796 0.0563
vn -0.6229 0.7379 0.2597
vn -0.9083 0.1726 0.3810
vn -0.8126 0.5826 -0.0141
vn -0.9957 0.0767 -0.0513
vn -0.9830 0.0121 -0.1830
vn -0.8804 0.4483 -0.1546
vn -0.8730 0.4073 -0.2684
vn -0.9617 -0.0144 -0.2736
vn -0.8493 0.4228 -0.3160
vn -0.3660 0.9200 -0.1399
vn -0.3701 0.9170 -0.1484
vn 0.0056 1.0000 0.0012
vn 0.0236 0.9996 -0.0157
vn 0.0113 0.9998 -0.0147
vn 0.0220 0.9997 0.0108
vn -0.3335 0.9413 -0.0524
vn 0.0233 0.9997 0.0062
vn 0.0008 1.0000 -0.0077
vn -0.0151 0.9999 0.0032
vn 0.0039 0.9999 0.0164
vn -0.2722 0.9621 0.0184
vn -0.0197 0.9997 -0.0149
vn 0.0786 0.9968 0.0131
vn 0.1322 0.9909 -0.0258
vn -0.1436 0.9610 -0.2365
vn 0.6814 0.7311 0.0344
vn 0.6760 0.7342 0.0628
vn 0.1693 0.9856 0.0038
vn 0.1874 0.9822 -0.0132
vn 0.9830 0.1600 0.0896
vn 0.9855 -0.1308 0.1083
vn 0.3154 -0.9438 -0.0983
vn 0.4353 -0.0670 -0.8978
vn -0.9316 -0.1624 -0.3251
vn -0.8563 -0.4436 -0.2647
vn -0.9159 0.0967 -0.3897
vn -0.9622 -0.0719 -0.2627
vn -0.9039 -0.3979 -0.1568
vn -0.9528 0.0379 -0.3013
vn -0.5911 0.8009 0.0959
vn -0.9569 0.0500 -0.2861
vn -0.9435 0.0536 -0.3269
vn -0.9348 0.0174 -0.3547
vn -0.9750 0.1068 -0.1947
vn -0.9024 -0.0915 -0.4211
vn -0.9786 0.0807 0.1894
vn -0.9881 0.1274 0.0867
vn 0.1735 0.2030 0.9637
vn -0.9422 0.0561 0.3303
vn -0.8414 0.0483 0.5382
vn -0.8663 0.3349 0.3707
vn -0.8526 0.0118 0.5225
vn -0.8948 -0.0727 0.4405
vn -0.8564 -0.1034 0.5058
vn 0.3507 -0.4574 0.8172
vn -0.1840 -0.8711 0.4554
vn -0.8567 -0.4798 0.1893
vn -0.7640 -0.5226 0.3785
vn -0.6510 -0.7565 -0.0620
vn -0.4617 -0.8842 0.0706
vn 0.9025 -0.2248 0.3673
vn -0.3315 -0.9309 -0.1532
vn -0.0830 -0.9962 -0.0273
vn -0.2982 -0.9201 0.2541
vn -0.5706 -0.5210 0.6348
vn 0.0330 -0.9984 0.0449
vn -0.2618 -0.8875 0.3791
vn -0.5042 -0.4065 0.7619
vn -0.3852 -0.8033 0.4543
vn -0.6132 -0.1941 0.7657
vn 0.0170 -0.9993 0.0340
vn -0.0658 -0.9974 -0.0294
vn 0.0218 -0.9996 0.0205
vn 0.0450 -0.9990 -0.0052
vn -0.0449 -0.9976 -0.0523
vn -0.1254 -0.9911 0.0456
vn -0.5683 -0.7496 0.3392
vn -0.6244 -0.7649 0.1585
vn -0.2526 -0.9619 0.1043
vn -0.0830 -0.9956 0.0428
vn -0.6325 -0.7650 0.1210
vn -0.3361 -0.9315 0.1390
vn -0.1157 -0.9873 0.1085
vn -0.2269 -0.7652 0.6024
vn -0.4983 -0.6757 0.5432
vn -0.7088 -0.5230 0.4735
vn -0.9301 -0.3673 -0.0096
vn -0.9597 -0.2719 0.0704
vn -0.8958 -0.3033 0.3249
vn -0.6724 -0.0932 0.7343
vn -0.9479 0.0707 0.3107
vn -0.4692 -0.1921 0.8619
vn -0.6315 0.3142 0.7089
vn -0.7720 0.5894 0.2380
vn -0.3167 0.2150 0.9238
vn -0.2349 -0.2051 0.9501
vn -0.1268 0.3691 0.9207
vn 0.1441 0.9084 0.3926
vn -0.0127 0.8315 0.5555
vn -0.2876 0.8026 0.5226
vn 0.3324 0.9191 0.2117
vn 0.1196 0.9783 0.1691
vn -0.1603 0.9730 0.1663
vn 0.1488 0.9856 0.0806
vn -0.0840 0.9946 0.0616
vn 0.4307 0.9010 0.0519
vn 0.6471 0.5580 0.5196
vn 0.8020 0.4945 0.3351
vn 0.8935 0.4471 0.0432
vn 0.4899 0.8698 -0.0582
vn 0.1566 0.9876 -0.0103
vn 0.9321 0.3302 -0.1488
vn 0.9710 -0.2387 0.0148
vn 0.9215 -0.3466 -0.1751
vn 0.9285 -0.1844 0.3223
vn 0.6123 -0.7629 0.2077
vn 0.6327 -0.7743 -0.0088
vn 0.5605 -0.8130 -0.1576
vn 0.1309 -0.9914 0.0077
vn 0.1011 -0.9913 -0.0844
vn 0.1026 -0.9892 0.1042
vn 0.0544 -0.7973 0.6011
vn 0.4986 -0.6842 0.5322
vn 0.1354 -0.1897 0.9725
vn 0.7532 -0.1738 0.6344
vn 0.2558 0.4826 0.8376
vn 0.0523 -0.9986 0.0118
vn 0.4282 -0.8978 -0.1027
vn 0.0460 -0.9979 0.0456
vn 0.3841 -0.9218 -0.0515
vn 0.8420 -0.4246 -0.3328
vn 0.8719 -0.4544 -0.1826
vn 0.3885 -0.9214 0.0020
vn 0.8723 -0.4803 0.0916
vn 0.0503 -0.9982 -0.0312
vn 0.8076 -0.5883 0.0412
vn 0.2515 -0.9594 -0.1278
vn 0.0276 -0.9673 -0.2523
vn 0.7153 -0.6912 -0.1027
vn -0.0230 -0.9796 -0.1996
vn -0.4232 -0.4629 -0.7789
vn 0.9896 0.0112 -0.1435
vn 0.9847 -0.0839 0.1525
vn 0.9217 0.2747 -0.2738
vn 0.8079 0.4510 -0.3793
vn 0.6772 -0.6670 -0.3106
vn -0.2433 -0.9216 -0.3024
vn 0.5847 -0.4409 -0.6809
vn 0.5225 0.5169 -0.6781
vn -0.0687 -0.5636 -0.8232
vn -0.9273 -0.0733 -0.3670
vn -0.3861 0.4378 -0.8120
vn -0.1649 0.9047 -0.3929
vn 0.1931 0.7026 -0.6849
vn -0.0365 0.1800 -0.9830
vn 0.2874 -0.1921 -0.9384
vn 0.2137 -0.7312 -0.6478
vn 0.0718 -0.9776 -0.1977
vn 0.1362 -0.9134 -0.3835
vn 0.5195 -0.3847 -0.7630
vn -0.1573 -0.9682 -0.1944
vn -0.7166 -0.5541 -0.4236
vn -0.5990 -0.6996 -0.3896
vn 0.6784 -0.6546 -0.3337
vn 0.4987 0.0107 -0.8667
vn 0.3558 -0.0584 -0.9327
vn 0.4454 0.3227 -0.8351
vn 0.6060 -0.6243 -0.4929
vn 0.6422 0.4539 -0.6177
vn -0.3873 -0.6150 -0.6869
vn -0.3357 0.4422 -0.8317
vn -0.6545 0.1643 -0.7380
vn -0.7192 0.0056 -0.6947
vn 0.0098 0.0687 -0.9976
vn -0.8363 -0.4409 -0.3258
vn -0.4979 -0.8410 -0.2115
vn -0.5018 -0.8611 -0.0820
vn -0.4223 -0.8990 -0.1161
vn -0.0859 -0.9963 -0.0101
vn -0.0063 -0.9999 -0.0158
vn -0.7974 0.1009 -0.5949
vn -0.1893 0.0940 -0.9774
vn -0.6428 0.4928 -0.5864
vn -0.2384 0.3504 -0.9057
vn -0.8328 0.4566 -0.3130
vn -0.8973 0.3574 -0.2591
vn -0.4692 0.8738 -0.1280
vn -0.3598 0.9205 -0.1526
vn -0.1375 0.8711 -0.4715
vn -0.9287 0.3425 -0.1420
vn -0.5660 0.8234 -0.0402
vn -0.0303 0.9989 -0.0352
vn -0.0630 0.9980 0.0054
vn -0.0881 0.9956 0.0311
vn -0.0039 0.9994 0.0332
vn -0.0030 0.9995 0.0301
vn 0.0092 0.9997 -0.0214
vn 0.1147 0.9889 0.0948
vn 0.1117 0.9933 0.0301
vn 0.1463 0.9841 0.1009
vn -0.1489 0.9795 0.1355
vn -0.1036 0.9804 0.1674
vn 0.0779 0.9706 0.2277
vn -0.4247 0.7010 0.5730
vn -0.1885 0.6807 0.7079
vn -0.5697 0.7694 0.2889
vn -0.5955 0.2053 0.7767
vn -0.5935 0.0234 0.8045
vn -0.3521 0.1394 0.9255
vn -0.3662 -0.0130 0.9305
vn 0.2794 0.0057 0.9602
vn 0.3343 0.1501 0.9304
vn 0.2808 0.5929 0.7547
vn 0.6110 0.6616 0.4348
vn 0.8453 0.1310 0.5181
vn 0.9192 0.1436 0.3667
vn 0.6608 0.6908 0.2936
vn 0.9250 0.1526 0.3481
vn 0.6329 0.7179 0.2901
vn 0.9110 0.1515 0.3836
vn 0.9456 0.1157 0.3040
vn 0.8250 0.0718 0.5606
vn 0.6151 0.7442 0.2604
vn 0.8828 0.4686 0.0333
vn 0.5450 0.6898 0.4766
vn -0.1099 0.3354 0.9356
vn -0.4025 0.0139 0.9153
vn 0.0049 0.9959 0.0900
vn -0.5255 0.7638 0.3747
vn -0.8643 0.2367 0.4438
vn -0.5180 0.1257 0.8461
vn -0.4727 -0.0579 0.8793
vn -0.5978 -0.0087 0.8016
vn -0.6170 -0.1266 0.7767
vn -0.8815 -0.1260 0.4550
vn -0.9849 0.1664 -0.0470
vn -0.9868 0.1373 -0.0860
vn -0.6768 0.7359 -0.0215
vn -0.6754 0.7367 -0.0336
vn -0.0945 0.9955 0.0112
vn 0.1728 0.9849 0.0110
vn 0.5146 0.8490 -0.1204
vn 0.8994 0.2663 -0.3466
vn 0.9645 0.1138 -0.2383
vn 0.9788 0.0386 0.2011
vn 0.9648 0.0370 0.2602
vn 0.9823 0.0242 -0.1856
vn 0.9807 0.0374 -0.1921
vn 0.9441 0.1761 0.2786
vn 0.9326 0.3027 -0.1964
vn 0.6153 0.0667 -0.7854
vn 0.6394 0.0540 -0.7669
vn 0.5957 0.3676 -0.7141
vn 0.3267 0.8848 -0.3322
vn 0.6513 0.7488 -0.1225
vn 0.6300 0.7512 0.1971
vn 0.1656 0.9001 -0.4031
vn 0.3543 0.3950 -0.8476
vn 0.3343 0.4052 -0.8509
vn 0.1334 0.9088 -0.3954
vn 0.3751 0.0243 -0.9266
vn 0.3693 0.0145 -0.9292
vn 0.3647 -0.0110 -0.9310
vn 0.3401 0.0196 -0.9402
vn 0.2385 0.0616 -0.9692
vn 0.5155 0.3295 -0.7910
vn 0.4039 0.0284 -0.9143
vn 0.3390 0.0303 -0.9403
vn 0.1930 0.4208 -0.8864
vn 0.9545 -0.0867 0.2852
vn 0.9617 -0.0845 0.2606
vn 0.9535 -0.0506 0.2972
vn 0.8667 0.0226 0.4983
vn 0.9547 -0.0305 0.2959
vn 0.9674 -0.0319 0.2512
vn 0.7473 -0.5412 0.3855
vn 0.8469 -0.4801 0.2288
vn 0.8817 -0.4303 0.1936
vn 0.9523 -0.0945 0.2902
vn 0.8910 -0.4067 0.2016
vn 0.3722 -0.9266 0.0534
vn 0.4019 -0.9133 0.0656
vn 0.3104 -0.9481 0.0690
vn 0.9611 -0.1588 0.2260
vn 0.9050 -0.3789 0.1937
vn 0.4200 -0.9032 0.0885
vn 0.9814 -0.0992 0.1645
vn 0.9101 -0.3379 0.2399
vn 0.0536 -0.9986 0.0048
vn 0.0483 -0.9988 0.0022
vn 0.0919 -0.9957 -0.0132
vn 0.6425 -0.7661 -0.0156
vn 0.1877 -0.9820 -0.0203
vn 0.7404 -0.6720 -0.0161
vn 0.0437 -0.9990 0.0005
vn 0.0273 -0.9994 0.0207
vn 0.0709 -0.9825 0.1722
vn -0.1285 -0.9498 0.2851
vn 0.1830 -0.5426 0.8198
vn -0.3853 -0.5838 0.7146
vn -0.4077 -0.4880 0.7718
vn 0.9934 -0.1137 0.0123
vn 0.9844 -0.1760 0.0014
vn 0.9984 -0.0555 0.0110
vn 0.9989 -0.0460 -0.0055
vn 0.9947 -0.1029 -0.0075
vn 0.9908 -0.1346 0.0157
vn 0.9094 -0.4159 -0.0035
vn 0.8813 -0.4716 0.0289
vn 0.9140 -0.3734 0.1589
vn 0.3348 -0.9414 0.0418
vn 0.3767 -0.9263 -0.0043
vn 0.3888 -0.9138 0.1174
vn 0.4454 -0.7354 0.5106
vn -0.0851 -0.8574 0.5075
vn -0.1494 -0.9785 0.1420
vt 0.721807 0.776240
vt 0.717887 0.774404
vt 0.720050 0.771470
vt 0.725274 0.774884
vt 0.728284 0.777846
vt 0.724906 0.778443
vt 0.730172 0.773023
vt 0.732643 0.778901
vt 0.726310 0.769619
vt 0.714960 0.769067
vt 0.721227 0.765614
vt 0.712905 0.772462
vt 0.720243 0.777866
vt 0.717176 0.777384
vt 0.712226 0.776390
vt 0.706004 0.774185
vt 0.705427 0.767832
vt 0.709612 0.764811
vt 0.703878 0.762909
vt 0.706444 0.756971
vt 0.700431 0.761959
vt 0.698592 0.768297
vt 0.698164 0.775767
vt 0.716671 0.761422
vt 0.715223 0.755630
vt 0.714254 0.749625
vt 0.707491 0.746268
vt 0.700894 0.745985
vt 0.702374 0.739748
vt 0.698454 0.757377
vt 0.421830 0.318208
vt 0.421921 0.305032
vt 0.425873 0.306823
vt 0.425929 0.317288
vt 0.695776 0.737967
vt 0.697355 0.732976
vt 0.427182 0.325042
vt 0.425597 0.329700
vt 0.707885 0.737468
vt 0.702701 0.732165
vt 0.698851 0.725185
vt 0.703826 0.721401
vt 0.704470 0.726472
vt 0.709016 0.729565
vt 0.450348 0.354618
vt 0.456991 0.350792
vt 0.477318 0.350078
vt 0.471037 0.355143
vt 0.436194 0.340517
vt 0.445439 0.344425
vt 0.449641 0.341088
vt 0.466277 0.347234
vt 0.480904 0.343150
vt 0.479493 0.338083
vt 0.469771 0.340760
vt 0.455117 0.338559
vt 0.477959 0.331873
vt 0.468822 0.335637
vt 0.458129 0.333589
vt 0.439487 0.333825
vt 0.446335 0.332848
vt 0.451552 0.330411
vt 0.460986 0.328429
vt 0.467911 0.331190
vt 0.454664 0.325170
vt 0.447577 0.326613
vt 0.449398 0.321550
vt 0.442188 0.328977
vt 0.443628 0.324038
vt 0.444989 0.318965
vt 0.439159 0.322465
vt 0.435336 0.325453
vt 0.434203 0.319021
vt 0.429724 0.317615
vt 0.431077 0.325861
vt 0.431856 0.331075
vt 0.430221 0.307604
vt 0.435019 0.311003
vt 0.439834 0.315597
vt 0.437627 0.300917
vt 0.442245 0.307072
vt 0.432707 0.292983
vt 0.427644 0.296812
vt 0.685070 0.772691
vt 0.684926 0.768698
vt 0.691496 0.764612
vt 0.691462 0.771063
vt 0.441676 0.293429
vt 0.437428 0.289054
vt 0.444223 0.280892
vt 0.447099 0.285298
vt 0.435737 0.285207
vt 0.442277 0.277673
vt 0.449834 0.268719
vt 0.452870 0.271708
vt 0.456346 0.275997
vt 0.446538 0.265424
vt 0.439713 0.273731
vt 0.433452 0.280871
vt 0.430913 0.275933
vt 0.436979 0.269304
vt 0.443437 0.261938
vt 0.434117 0.264845
vt 0.440306 0.258412
vt 0.428020 0.270821
vt 0.680857 0.788114
vt 0.674141 0.787703
vt 0.678607 0.782739
vt 0.685278 0.781985
vt 0.688786 0.776514
vt 0.682513 0.777037
vt 0.692904 0.782381
vt 0.688651 0.788052
vt 0.685566 0.794348
vt 0.679320 0.792284
vt 0.422313 0.269575
vt 0.421881 0.266340
vt 0.425032 0.265060
vt 0.683466 0.803625
vt 0.676820 0.800791
vt 0.431712 0.259575
vt 0.421589 0.258829
vt 0.429015 0.252644
vt 0.692514 0.794643
vt 0.691843 0.804239
vt 0.419507 0.251280
vt 0.428054 0.244988
vt 0.698127 0.793638
vt 0.698392 0.800778
vt 0.419366 0.241170
vt 0.431491 0.235872
vt 0.421855 0.235931
vt 0.434489 0.229878
vt 0.702237 0.796860
vt 0.700913 0.790126
vt 0.444111 0.232347
vt 0.436390 0.241281
vt 0.446248 0.230449
vt 0.451638 0.227811
vt 0.436191 0.226999
vt 0.422837 0.231182
vt 0.425506 0.227248
vt 0.437302 0.224192
vt 0.453575 0.226301
vt 0.442827 0.222436
vt 0.454838 0.224819
vt 0.426515 0.219832
vt 0.707213 0.785182
vt 0.710816 0.784414
vt 0.716386 0.790129
vt 0.713739 0.790946
vt 0.419556 0.226377
vt 0.421236 0.225890
vt 0.707390 0.779226
vt 0.703034 0.781048
vt 0.699073 0.784184
vt 0.704484 0.787977
vt 0.695457 0.787935
vt 0.705800 0.796311
vt 0.713308 0.780397
vt 0.716356 0.784658
vt 0.718550 0.780735
vt 0.722023 0.785237
vt 0.722869 0.780287
vt 0.726645 0.782591
vt 0.721534 0.790829
vt 0.726884 0.789061
vt 0.731768 0.785958
vt 0.452822 0.211894
vt 0.455576 0.217001
vt 0.446521 0.220357
vt 0.447696 0.212873
vt 0.457759 0.209366
vt 0.461339 0.215705
vt 0.464800 0.220150
vt 0.458792 0.221485
vt 0.456942 0.223451
vt 0.725084 0.798185
vt 0.722345 0.798924
vt 0.461380 0.227623
vt 0.460107 0.230074
vt 0.462833 0.225593
vt 0.465811 0.229122
vt 0.464890 0.231062
vt 0.464110 0.233536
vt 0.468320 0.230415
vt 0.468554 0.232533
vt 0.468988 0.235431
vt 0.462774 0.236238
vt 0.468761 0.239192
vt 0.458529 0.231772
vt 0.472273 0.231156
vt 0.473805 0.233875
vt 0.474673 0.238322
vt 0.468608 0.243924
vt 0.459776 0.239203
vt 0.476484 0.241953
vt 0.473068 0.250464
vt 0.464813 0.248146
vt 0.478166 0.247949
vt 0.482196 0.245168
vt 0.458127 0.245058
vt 0.456051 0.232592
vt 0.452375 0.242879
vt 0.453288 0.237240
vt 0.451674 0.231981
vt 0.449544 0.236000
vt 0.448818 0.233574
vt 0.448393 0.241077
vt 0.445628 0.236694
vt 0.442785 0.240389
vt 0.443612 0.245277
vt 0.447571 0.246573
vt 0.451182 0.248742
vt 0.436059 0.248168
vt 0.443959 0.250564
vt 0.437664 0.254452
vt 0.446084 0.252798
vt 0.449012 0.254976
vt 0.455593 0.251340
vt 0.452559 0.257528
vt 0.456405 0.259665
vt 0.460971 0.253058
vt 0.468380 0.254334
vt 0.463130 0.261753
vt 0.467129 0.267479
vt 0.481284 0.266142
vt 0.478385 0.260905
vt 0.478783 0.255857
vt 0.488764 0.262589
vt 0.491439 0.267782
vt 0.488186 0.257934
vt 0.497097 0.264754
vt 0.497920 0.269846
vt 0.497394 0.260837
vt 0.493219 0.274637
vt 0.483708 0.272191
vt 0.498827 0.275901
vt 0.504367 0.267588
vt 0.503331 0.271897
vt 0.503991 0.278453
vt 0.494492 0.280268
vt 0.498641 0.281575
vt 0.502307 0.281497
vt 0.508189 0.279220
vt 0.504977 0.285122
vt 0.501697 0.287559
vt 0.498111 0.287957
vt 0.498000 0.298223
vt 0.501334 0.296535
vt 0.505844 0.293243
vt 0.492215 0.295936
vt 0.493627 0.287035
vt 0.486324 0.292548
vt 0.486940 0.284768
vt 0.486266 0.278121
vt 0.478087 0.285185
vt 0.475247 0.279610
vt 0.470295 0.272812
vt 0.465446 0.285710
vt 0.460627 0.280978
vt 0.452117 0.289887
vt 0.457318 0.294360
vt 0.451707 0.303894
vt 0.446237 0.298545
vt 0.447104 0.311975
vt 0.456026 0.307927
vt 0.452131 0.315700
vt 0.457885 0.318855
vt 0.461894 0.311672
vt 0.469695 0.316662
vt 0.464618 0.322867
vt 0.462471 0.298500
vt 0.468405 0.303265
vt 0.476422 0.308722
vt 0.482870 0.300716
vt 0.475449 0.295081
vt 0.470120 0.290164
vt 0.479985 0.290573
vt 0.489521 0.306085
vt 0.484836 0.314299
vt 0.496205 0.313571
vt 0.488782 0.321122
vt 0.483648 0.325949
vt 0.478347 0.321511
vt 0.472609 0.327184
vt 0.487215 0.331943
vt 0.489172 0.339146
vt 0.497569 0.331473
vt 0.494651 0.324256
vt 0.869404 0.330561
vt 0.875302 0.327904
vt 0.878525 0.332058
vt 0.870035 0.332591
vt 0.863874 0.336432
vt 0.864956 0.333080
vt 0.864868 0.324228
vt 0.871975 0.323020
vt 0.860965 0.329106
vt 0.879058 0.086011
vt 0.874690 0.083917
vt 0.873367 0.080991
vt 0.885758 0.085721
vt 0.888224 0.081423
vt 0.898055 0.082363
vt 0.898021 0.088344
vt 0.878824 0.077859
vt 0.854903 0.320459
vt 0.860255 0.313323
vt 0.868589 0.076414
vt 0.872473 0.073823
vt 0.504509 0.302240
vt 0.498529 0.310537
vt 0.865787 0.078323
vt 0.866565 0.080074
vt 0.865720 0.072747
vt 0.872492 0.069715
vt 0.861166 0.074862
vt 0.861977 0.079448
vt 0.858547 0.076876
vt 0.861993 0.080631
vt 0.880976 0.337450
vt 0.883834 0.338909
vt 0.882448 0.343067
vt 0.881089 0.341152
vt 0.888257 0.340076
vt 0.887272 0.345119
vt 0.884225 0.334721
vt 0.887978 0.334403
vt 0.877748 0.338547
vt 0.884532 0.330124
vt 0.891237 0.328742
vt 0.893135 0.334236
vt 0.894050 0.340099
vt 0.900261 0.327834
vt 0.901894 0.333287
vt 0.903765 0.337711
vt 0.910939 0.333219
vt 0.912228 0.336496
vt 0.911130 0.328430
vt 0.887490 0.323206
vt 0.897976 0.319233
vt 0.911805 0.322917
vt 0.960683 0.238932
vt 0.955582 0.240252
vt 0.956423 0.230013
vt 0.960595 0.230704
vt 0.964731 0.237665
vt 0.964199 0.230965
vt 0.964829 0.225507
vt 0.961158 0.223758
vt 0.957346 0.222254
vt 0.966864 0.221743
vt 0.963388 0.218811
vt 0.959485 0.216439
vt 0.961788 0.212173
vt 0.965693 0.215318
vt 0.968930 0.218656
vt 0.969887 0.223284
vt 0.968411 0.226811
vt 0.971104 0.220456
vt 0.971845 0.216303
vt 0.973741 0.219977
vt 0.968409 0.212065
vt 0.977269 0.575255
vt 0.975552 0.570589
vt 0.978632 0.570432
vt 0.980094 0.575470
vt 0.978068 0.582093
vt 0.974592 0.580292
vt 0.963987 0.208490
vt 0.970442 0.583816
vt 0.973340 0.586731
vt 0.966955 0.581939
vt 0.971236 0.578767
vt 0.975059 0.575127
vt 0.963593 0.579025
vt 0.967945 0.575510
vt 0.972274 0.572213
vt 0.963993 0.571652
vt 0.968902 0.568340
vt 0.959214 0.574639
vt 0.963536 0.584656
vt 0.959659 0.582647
vt 0.955150 0.578206
vt 0.954425 0.566928
vt 0.959458 0.564909
vt 0.950471 0.569013
vt 0.950707 0.581437
vt 0.946778 0.570824
vt 0.955803 0.585789
vt 0.952510 0.212021
vt 0.949303 0.217419
vt 0.944917 0.214498
vt 0.949097 0.209177
vt 0.946772 0.226898
vt 0.942743 0.226174
vt 0.953415 0.219926
vt 0.950973 0.228618
vt 0.955891 0.214250
vt 0.958387 0.210311
vt 0.955645 0.208806
vt 0.959300 0.205702
vt 0.953431 0.205469
vt 0.960769 0.588580
vt 0.965961 0.585840
vt 0.967281 0.589650
vt 0.948352 0.239846
vt 0.943666 0.239274
vt 0.914003 0.316105
vt 0.901750 0.311654
vt 0.904595 0.306790
vt 0.915138 0.311979
vt 0.938334 0.239879
vt 0.937197 0.248690
vt 0.932692 0.247456
vt 0.895784 0.301371
vt 0.898652 0.296603
vt 0.905832 0.302267
vt 0.892408 0.305712
vt 0.893343 0.293234
vt 0.889419 0.297276
vt 0.886054 0.300088
vt 0.889985 0.290558
vt 0.885655 0.292711
vt 0.879559 0.291230
vt 0.892715 0.284541
vt 0.900231 0.291627
vt 0.889282 0.286565
vt 0.886604 0.286977
vt 0.887264 0.289649
vt 0.885295 0.290398
vt 0.885969 0.289031
vt 0.885344 0.288353
vt 0.885147 0.289502
vt 0.883175 0.290087
vt 0.884417 0.288947
vt 0.883636 0.287537
vt 0.884689 0.284998
vt 0.878988 0.289026
vt 0.875362 0.295248
vt 0.877640 0.298894
vt 0.881699 0.304623
vt 0.872236 0.303721
vt 0.871364 0.299552
vt 0.874571 0.309809
vt 0.865457 0.310180
vt 0.866002 0.305730
vt 0.867629 0.301812
vt 0.868598 0.296420
vt 0.873753 0.291929
vt 0.864412 0.299717
vt 0.865535 0.302620
vt 0.864119 0.301378
vt 0.864179 0.303168
vt 0.862833 0.301839
vt 0.858178 0.302213
vt 0.853651 0.311188
vt 0.906260 0.089389
vt 0.911865 0.089387
vt 0.914069 0.095029
vt 0.912075 0.096016
vt 0.868531 0.317206
vt 0.872435 0.314983
vt 0.876735 0.320350
vt 0.880844 0.326204
vt 0.881464 0.316498
vt 0.888050 0.310943
vt 0.906414 0.082638
vt 0.912076 0.081615
vt 0.906190 0.075685
vt 0.911262 0.075143
vt 0.898854 0.076299
vt 0.889979 0.075380
vt 0.891481 0.069712
vt 0.899959 0.069647
vt 0.906940 0.069952
vt 0.881438 0.073585
vt 0.883089 0.068596
vt 0.900597 0.063229
vt 0.892535 0.063431
vt 0.884892 0.062764
vt 0.885074 0.055454
vt 0.893327 0.055508
vt 0.901143 0.055441
vt 0.893538 0.047255
vt 0.901516 0.047882
vt 0.884136 0.047628
vt 0.879647 0.061752
vt 0.878051 0.056022
vt 0.876518 0.048040
vt 0.871901 0.057916
vt 0.869966 0.048790
vt 0.876441 0.065404
vt 0.866108 0.060895
vt 0.860304 0.064097
vt 0.863810 0.050558
vt 0.859452 0.051723
vt 0.862343 0.041248
vt 0.865842 0.042275
vt 0.870485 0.043450
vt 0.874608 0.041520
vt 0.869567 0.037083
vt 0.880466 0.034714
vt 0.882785 0.040784
vt 0.892639 0.034769
vt 0.893206 0.040083
vt 0.877738 0.030513
vt 0.889922 0.030145
vt 0.868464 0.033997
vt 0.871736 0.026838
vt 0.881710 0.024136
vt 0.864855 0.033680
vt 0.859493 0.040069
vt 0.855408 0.054287
vt 0.963129 0.558417
vt 0.963033 0.554720
vt 0.968863 0.555641
vt 0.968478 0.558836
vt 0.972776 0.558697
vt 0.974072 0.555288
vt 0.851700 0.055339
vt 0.852881 0.043732
vt 0.857227 0.066916
vt 0.854718 0.071079
vt 0.906015 0.341815
vt 0.895088 0.345258
vt 0.914021 0.341013
vt 0.971450 0.231924
vt 0.971835 0.235860
vt 0.967734 0.236494
vt 0.967470 0.231142
vt 0.971877 0.228332
vt 0.973201 0.224083
vt 0.973737 0.562378
vt 0.969740 0.562531
vt 0.972723 0.566696
vt 0.976175 0.566620
vt 0.964985 0.563657
vt 0.956694 0.557227
vt 0.956871 0.551517
vt 0.950226 0.557149
vt 0.948285 0.547785
vt 0.943624 0.557743
vt 0.941355 0.546808
vt 0.902072 0.285225
vt 0.911471 0.292635
vt 0.908731 0.298006
vt 0.903899 0.279743
vt 0.911069 0.285945
vt 0.937754 0.559965
vt 0.935680 0.548526
vt 0.893480 0.279936
vt 0.894920 0.274878
vt 0.902281 0.029855
vt 0.903090 0.035822
vt 0.911355 0.031272
vt 0.910626 0.038880
vt 0.885012 0.280027
vt 0.884821 0.275276
vt 0.891563 0.270594
vt 0.882215 0.270485
vt 0.913690 0.046373
vt 0.907369 0.047924
vt 0.906922 0.042890
vt 0.901569 0.041696
vt 0.907874 0.055280
vt 0.914140 0.054334
vt 0.913818 0.063169
vt 0.907384 0.063143
vt 0.876312 0.277793
vt 0.869452 0.281722
vt 0.866872 0.275902
vt 0.873792 0.272335
vt 0.871342 0.287529
vt 0.878174 0.282745
vt 0.878181 0.286796
vt 0.885149 0.283415
vt 0.865135 0.291180
vt 0.863336 0.284761
vt 0.860248 0.292866
vt 0.858756 0.285962
vt 0.860949 0.278514
vt 0.858665 0.280662
vt 0.912808 0.070735
vt 0.509288 0.287359
vt 0.510126 0.294921
vt 0.512864 0.279081
vt 0.514164 0.286735
vt 0.508402 0.272978
vt 0.501773 0.261035
vt 0.509680 0.268360
vt 0.516221 0.274014
vt 0.499990 0.256446
vt 0.507725 0.261532
vt 0.511405 0.260342
vt 0.521102 0.280147
vt 0.519497 0.268488
vt 0.729217 0.731993
vt 0.721336 0.732533
vt 0.721252 0.724727
vt 0.728875 0.725270
vt 0.502458 0.253630
vt 0.510234 0.255141
vt 0.495804 0.339641
vt 0.500015 0.340102
vt 0.499642 0.346402
vt 0.494316 0.346986
vt 0.714319 0.732130
vt 0.714099 0.725068
vt 0.488484 0.345910
vt 0.488398 0.353234
vt 0.709329 0.722673
vt 0.714295 0.741232
vt 0.721898 0.740988
vt 0.722336 0.748731
vt 0.723924 0.754395
vt 0.729927 0.746121
vt 0.731463 0.751710
vt 0.729376 0.739463
vt 0.491371 0.247146
vt 0.488019 0.241132
vt 0.493513 0.240651
vt 0.482201 0.239409
vt 0.734552 0.729432
vt 0.734183 0.734975
vt 0.493864 0.252098
vt 0.486244 0.250113
vt 0.494823 0.256009
vt 0.490239 0.254437
vt 0.481529 0.252616
vt 0.734577 0.757345
vt 0.726434 0.759286
vt 0.480131 0.234156
vt 0.477160 0.230734
vt 0.730401 0.764363
vt 0.737742 0.761879
vt 0.734015 0.768198
vt 0.474612 0.227271
vt 0.476110 0.221103
vt 0.479925 0.221934
vt 0.737822 0.773003
vt 0.472401 0.224472
vt 0.473069 0.219127
vt 0.470725 0.228273
vt 0.469059 0.221048
vt 0.470837 0.215837
vt 0.468803 0.225125
vt 0.468220 0.228221
vt 0.466369 0.227574
vt 0.466075 0.224696
vt 0.738578 0.777700
vt 0.739724 0.783044
vt 0.503441 0.335599
s 1
usemtl abyss_chancel_background_pbr
f 2/1/1 8/2/2 5/3/3 1/4/4
f 1/4/4 3/5/5 539/6/6 2/1/1
f 3/5/5 1/4/4 4/7/7 535/8/8
f 5/3/3 6/9/9 4/7/7 1/4/4
f 5/3/3 7/10/10 520/11/11 6/9/9
f 8/2/2 10/12/12 7/10/10 5/3/3
f 8/2/2 2/1/1 540/13/13 9/14/14
f 9/14/14 11/15/15 10/12/12 8/2/2
f 15/16/16 12/17/17 10/12/12 11/15/15
f 12/17/17 16/18/18 7/10/10 10/12/12
f 12/17/17 13/19/19 18/20/20 16/18/18
f 63/21/21 13/19/19 12/17/17 14/22/22
f 12/17/17 15/16/16 113/23/23 14/22/22
f 16/18/18 17/24/24 520/11/11 7/10/10
f 17/24/24 16/18/18 18/20/20 19/25/25
f 499/26/26 19/25/25 18/20/20 20/27/27
f 18/20/20 22/28/28 25/29/29 20/27/27
f 63/21/21 21/30/30 18/20/20 13/19/19
f 22/31/28 18/32/20 21/33/30 24/34/31
f 22/28/28 23/35/32 26/36/33 25/29/29
f 22/31/28 24/34/31 542/37/34 23/38/32
f 29/39/35 20/27/27 25/29/29 27/40/36
f 27/40/36 25/29/29 26/36/33 30/41/37
f 30/41/37 31/42/38 28/43/39 27/40/36
f 29/39/35 27/40/36 28/43/39 496/44/40
f 30/45/37 32/46/41 34/47/42 31/48/38
f 30/45/37 26/49/33 33/50/43 32/46/41
f 33/50/43 37/51/44 35/52/45 32/46/41
f 34/47/42 32/46/41 35/52/45 36/53/46
f 39/54/47 36/53/46 35/52/45 38/55/48
f 35/52/45 37/51/44 41/56/49 38/55/48
f 236/57/50 39/54/47 38/55/48 40/58/51
f 40/58/51 38/55/48 41/56/49 43/59/52
f 54/60/53 42/61/54 41/56/49 37/51/44
f 41/56/49 42/61/54 45/62/55 43/59/52
f 43/59/52 44/63/56 537/64/57 40/58/51
f 43/59/52 45/62/55 46/65/58 44/63/56
f 47/66/59 49/67/60 46/65/58 45/62/55
f 50/68/61 47/66/59 45/62/55 42/61/54
f 49/67/60 47/66/59 48/69/62 214/70/63
f 50/68/61 51/71/64 48/69/62 47/66/59
f 51/71/64 50/68/61 52/72/65 55/73/66
f 50/68/61 42/61/54 54/60/53 52/72/65
f 56/74/67 55/73/66 52/72/65 53/75/68
f 53/75/68 52/72/65 54/60/53 541/76/69
f 60/77/70 57/78/71 55/73/66 56/74/67
f 59/79/72 51/71/64 55/73/66 57/78/71
f 57/78/71 58/80/73 211/81/74 59/79/72
f 57/78/71 60/77/70 61/82/75 58/80/73
f 21/33/30 63/83/21 61/82/75 60/77/70
f 24/34/31 21/33/30 60/77/70 56/74/67
f 66/84/76 64/85/77 61/86/75 62/87/78
f 14/22/22 62/87/78 61/86/75 63/21/21
f 65/88/79 58/80/73 61/82/75 64/89/77
f 64/89/77 67/90/80 69/91/81 65/88/79
f 66/92/76 70/93/82 67/90/80 64/89/77
f 71/94/83 68/95/84 67/90/80 70/93/82
f 68/95/84 205/96/85 69/91/81 67/90/80
f 74/97/86 71/94/83 70/93/82 72/98/87
f 73/99/88 72/98/87 70/93/82 66/92/76
f 72/98/87 73/99/88 78/100/89 75/101/90
f 75/101/90 76/102/91 74/97/86 72/98/87
f 76/102/91 75/101/90 77/103/92 167/104/93
f 78/100/89 79/105/94 77/103/92 75/101/90
f 83/106/95 79/107/94 78/108/89 80/109/96
f 81/110/97 80/109/96 78/108/89 73/111/88
f 80/109/96 81/110/97 113/23/23 82/112/98
f 80/109/96 82/112/98 84/113/99 83/106/95
f 84/113/99 86/114/100 85/115/101 83/106/95
f 79/105/94 83/116/95 85/117/101 87/118/102
f 89/119/103 87/120/102 85/115/101 86/114/100
f 79/105/94 87/118/102 88/121/104 77/103/92
f 87/118/102 89/122/103 90/123/105 88/121/104
f 89/119/103 86/114/100 92/124/106 91/125/107
f 89/122/103 91/126/107 93/127/108 90/123/105
f 91/125/107 92/124/106 96/128/109 94/129/110
f 94/130/110 97/131/111 93/127/108 91/126/107
f 94/130/110 95/132/112 99/133/113 97/131/111
f 95/134/112 94/129/110 96/128/109 117/135/114
f 97/131/111 98/136/115 161/137/116 93/127/108
f 99/133/113 100/138/117 98/136/115 97/131/111
f 103/139/118 100/138/117 99/133/113 101/140/119
f 102/141/120 101/140/119 99/133/113 95/132/112
f 101/140/119 102/141/120 107/142/121 104/143/122
f 104/143/122 105/144/123 103/139/118 101/140/119
f 106/145/124 132/146/125 105/144/123 104/143/122
f 104/143/122 107/142/121 108/147/126 106/145/124
f 109/148/127 110/149/128 108/150/126 107/151/121
f 102/141/120 111/152/129 109/153/127 107/142/121
f 114/154/130 110/149/128 109/148/127 112/155/131
f 115/156/132 112/155/131 109/148/127 111/157/129
f 115/156/132 82/112/98 113/23/23 112/155/131
f 114/154/130 112/155/131 113/23/23 15/16/16
f 82/112/98 115/156/132 116/158/133 84/113/99
f 116/158/133 115/156/132 111/157/129 117/135/114
f 116/158/133 117/135/114 96/128/109 92/124/106
f 86/114/100 84/113/99 116/158/133 92/124/106
f 95/134/112 117/135/114 111/157/129 102/159/120
f 114/154/130 15/16/16 11/15/15 118/160/134
f 110/149/128 114/154/130 118/160/134 119/161/135
f 120/162/136 118/160/134 11/15/15 9/14/14
f 122/163/137 119/161/135 118/160/134 120/162/136
f 121/164/138 123/165/139 122/163/137 120/162/136
f 120/162/136 9/14/14 540/13/13 121/164/138
f 125/166/140 119/161/135 122/163/137 124/167/141
f 126/168/142 124/167/141 122/163/137 123/165/139
f 124/169/141 127/170/143 130/171/144 125/172/140
f 127/170/143 124/169/141 126/173/142 128/174/145
f 127/170/143 128/174/145 533/175/146 129/176/147
f 130/171/144 127/170/143 129/176/147 131/177/148
f 108/150/126 125/166/140 130/178/144 106/179/124
f 132/146/125 106/145/124 130/171/144 131/177/148
f 131/177/148 133/180/149 135/181/150 132/146/125
f 133/180/149 131/177/148 129/176/147 134/182/151
f 134/182/151 138/183/152 136/184/153 133/180/149
f 136/184/153 139/185/154 135/181/150 133/180/149
f 529/186/155 137/187/156 136/184/153 138/183/152
f 141/188/157 139/185/154 136/184/153 137/187/156
f 140/189/158 139/185/154 141/188/157 143/190/159
f 140/189/158 538/191/160 135/181/150 139/185/154
f 524/192/161 142/193/162 141/188/157 137/187/156
f 144/194/163 143/190/159 141/188/157 142/193/162
f 140/189/158 143/190/159 145/195/164 149/196/165
f 144/194/163 147/197/166 145/195/164 143/190/159
f 514/198/167 148/199/168 145/195/164 146/200/169
f 503/201/170 146/200/169 145/195/164 147/197/166
f 150/202/171 149/196/165 145/195/164 148/199/168
f 538/191/160 140/189/158 149/196/165 151/203/172
f 154/204/173 152/205/174 149/196/165 150/202/171
f 153/206/175 151/203/172 149/196/165 152/205/174
f 153/206/175 152/205/174 155/207/176 156/208/177
f 152/205/174 154/204/173 158/209/178 155/207/176
f 155/207/176 157/210/179 98/136/115 156/208/177
f 157/210/179 155/207/176 158/209/178 160/211/180
f 162/212/181 160/211/180 158/209/178 159/213/182
f 158/209/178 154/204/173 170/214/183 159/213/182
f 98/136/115 157/210/179 160/211/180 161/137/116
f 163/215/184 161/137/116 160/211/180 162/212/181
f 163/215/184 162/212/181 164/216/185 165/217/186
f 159/213/182 166/218/187 164/216/185 162/212/181
f 167/104/93 165/217/186 164/216/185 166/218/187
f 167/104/93 166/218/187 168/219/188 76/102/91
f 159/213/182 170/214/183 168/219/188 166/218/187
f 171/220/189 169/221/190 168/219/188 170/214/183
f 168/219/188 169/221/190 74/97/86 76/102/91
f 154/204/173 150/202/171 171/220/189 170/214/183
f 174/222/191 169/221/190 171/220/189 172/223/192
f 148/199/168 172/223/192 171/220/189 150/202/171
f 173/224/193 172/223/192 148/199/168 514/198/167
f 172/223/192 173/224/193 175/225/194 174/222/191
f 71/94/83 174/222/191 175/225/194 68/95/84
f 174/222/191 71/94/83 74/97/86 169/221/190
f 205/96/85 68/95/84 175/225/194 176/226/195
f 178/227/196 176/226/195 175/225/194 177/228/197
f 179/229/198 177/228/197 175/225/194 173/224/193
f 178/227/196 177/228/197 180/230/199 183/231/200
f 179/229/198 182/232/201 180/230/199 177/228/197
f 183/231/200 180/230/199 181/233/202 185/234/203
f 182/232/201 515/235/204 181/233/202 180/230/199
f 183/231/200 184/236/205 202/237/206 178/227/196
f 183/231/200 185/234/203 187/238/207 184/236/205
f 185/234/203 181/233/202 482/239/208 186/240/209
f 186/240/209 189/241/210 187/238/207 185/234/203
f 199/242/211 184/236/205 187/238/207 188/243/212
f 191/244/213 188/243/212 187/238/207 189/241/210
f 189/241/210 186/240/209 480/245/214 190/246/215
f 191/244/213 189/241/210 190/246/215 192/247/216
f 188/243/212 191/244/213 192/247/216 194/248/217
f 195/249/218 194/248/217 192/247/216 193/250/219
f 193/250/219 192/247/216 190/246/215 478/251/220
f 197/252/221 196/253/222 194/248/217 195/249/218
f 199/242/211 188/243/212 194/248/217 196/253/222
f 228/254/223 198/255/224 196/253/222 197/252/221
f 200/256/225 199/242/211 196/253/222 198/255/224
f 184/236/205 199/242/211 200/256/225 202/237/206
f 227/257/226 201/258/227 200/256/225 198/255/224
f 203/259/228 202/237/206 200/256/225 201/258/227
f 176/226/195 178/227/196 202/237/206 203/259/228
f 206/260/229 204/261/230 203/259/228 201/258/227
f 205/96/85 176/226/195 203/259/228 204/261/230
f 69/91/81 205/96/85 204/261/230 207/262/231
f 208/263/232 207/262/231 204/261/230 206/260/229
f 208/263/232 210/264/233 209/265/234 207/262/231
f 209/265/234 65/88/79 69/91/81 207/262/231
f 58/80/73 65/88/79 209/265/234 211/81/74
f 212/266/235 211/81/74 209/265/234 210/264/233
f 214/70/63 59/79/72 211/81/74 212/266/235
f 215/267/236 213/268/237 212/266/235 210/264/233
f 49/67/60 214/70/63 212/266/235 213/268/237
f 59/79/72 214/70/63 48/69/62 51/71/64
f 46/65/58 49/67/60 213/268/237 216/269/238
f 218/270/239 216/269/238 213/268/237 215/267/236
f 219/271/240 217/272/241 216/269/238 218/270/239
f 217/272/241 44/63/56 46/65/58 216/269/238
f 215/267/236 222/273/242 220/274/243 218/270/239
f 220/274/243 221/275/244 219/271/240 218/270/239
f 224/276/245 221/275/244 220/274/243 223/277/246
f 226/278/247 223/277/246 220/274/243 222/273/242
f 224/276/245 223/277/246 225/279/248 228/254/223
f 226/278/247 227/257/226 225/279/248 223/277/246
f 227/257/226 226/278/247 206/260/229 201/258/227
f 206/260/229 226/278/247 222/273/242 208/263/232
f 198/255/224 228/254/223 225/279/248 227/257/226
f 224/276/245 228/254/223 197/252/221 229/280/249
f 229/280/249 231/281/250 221/275/244 224/276/245
f 230/282/251 229/280/249 197/252/221 195/249/218
f 231/281/250 229/280/249 230/282/251 232/283/252
f 232/283/252 235/284/253 233/285/254 231/281/250
f 231/281/250 233/285/254 219/271/240 221/275/244
f 236/57/50 234/286/255 233/285/254 235/284/253
f 234/286/255 217/272/241 219/271/240 233/285/254
f 236/57/50 235/284/253 237/287/256 39/54/47
f 235/284/253 232/283/252 237/287/256
f 36/53/46 39/54/47 237/287/256 238/288/257
f 240/289/258 238/288/257 237/287/256 239/290/259
f 237/287/256 232/283/252 230/282/251 239/290/259
f 241/291/260 242/292/261 240/293/258 239/294/259
f 241/291/260 239/294/259 230/295/251 244/296/262
f 242/292/261 241/291/260 243/297/263 369/298/264
f 244/296/262 245/299/265 243/297/263 241/291/260
f 244/300/262 230/301/251 248/302/266 245/303/265
f 246/304/267 379/305/268 247/306/269 245/303/265
f 246/304/267 245/303/265 248/302/266 249/307/270
f 247/308/269 365/309/271 243/297/263 245/299/265
f 248/302/266 251/310/272 252/311/273 249/307/270
f 478/251/220 250/312/274 248/313/266 193/250/219
f 254/314/275 251/310/272 248/302/266 250/315/274
f 195/249/218 193/250/219 248/313/266 230/282/251
f 253/316/276 399/317/277 252/311/273 251/310/272
f 251/310/272 254/314/275 255/318/278 253/316/276
f 255/318/278 254/314/275 256/319/279 258/320/280
f 250/315/274 257/321/281 256/319/279 254/314/275
f 262/322/282 259/323/283 256/324/279 257/325/281
f 260/326/284 258/327/280 256/324/279 259/323/283
f 260/326/284 259/323/283 261/328/285 263/329/286
f 262/322/282 240/293/258 261/328/285 259/323/283
f 240/293/258 262/322/282 257/325/281 476/330/287
f 264/331/288 263/329/286 261/328/285 240/293/258
f 264/331/288 266/332/289 265/333/290 263/329/286
f 260/326/284 263/329/286 265/333/290 267/334/291
f 266/332/289 271/335/292 268/336/293 265/333/290
f 265/333/290 268/336/293 269/337/294 267/334/291
f 270/338/295 427/339/296 269/337/294 268/336/293
f 271/335/292 273/340/297 270/338/295 268/336/293
f 266/332/289 373/341/298 272/342/299 271/335/292
f 273/340/297 271/335/292 272/342/299 274/343/300
f 273/344/297 274/345/300 277/346/301 275/347/302
f 270/348/295 273/344/297 275/347/302 276/349/303
f 279/350/304 276/349/303 275/347/302 278/351/305
f 278/351/305 275/347/302 277/346/301 280/352/306
f 284/353/307 279/350/304 278/351/305 281/354/308
f 282/355/309 281/354/308 278/351/305 280/352/306
f 318/356/310 283/357/311 281/354/308 282/355/309
f 286/358/312 284/353/307 281/354/308 283/357/311
f 284/353/307 285/359/313 429/360/314 279/350/304
f 284/353/307 286/358/312 287/361/315 285/359/313
f 288/362/316 290/363/317 287/361/315 286/358/312
f 288/362/316 286/358/312 283/357/311 291/364/318
f 289/365/319 474/366/320 290/367/317 288/368/316
f 289/365/319 288/368/316 291/369/318 293/370/321
f 292/371/322 291/364/318 283/357/311 318/356/310
f 294/372/323 293/370/321 291/369/318 292/373/322
f 294/372/323 296/374/324 295/375/325 293/370/321
f 293/370/321 295/375/325 297/376/326 289/365/319
f 295/375/325 296/374/324 301/377/327 298/378/328
f 298/378/328 299/379/329 297/376/326 295/375/325
f 298/378/328 300/380/330 435/381/331 299/379/329
f 298/378/328 301/377/327 303/382/332 300/380/330
f 296/374/324 322/383/333 302/384/334 301/377/327
f 302/384/334 305/385/335 303/382/332 301/377/327
f 303/382/332 304/386/336 436/387/337 300/380/330
f 306/388/338 304/386/336 303/382/332 305/385/335
f 306/388/338 305/385/335 307/389/339 309/390/340
f 307/389/339 305/385/335 302/384/334 308/391/341
f 312/392/342 310/393/343 307/394/339 308/395/341
f 311/396/344 309/397/340 307/394/339 310/393/343
f 310/393/343 313/398/345 314/399/346 311/396/344
f 312/392/342 315/400/347 313/398/345 310/393/343
f 280/352/306 277/346/301 314/399/346 313/398/345
f 313/398/345 315/400/347 282/355/309 280/352/306
f 315/400/347 316/401/348 318/356/310 282/355/309
f 315/400/347 312/392/342 317/402/349 316/401/348
f 319/403/350 316/401/348 317/402/349 321/404/351
f 319/403/350 292/371/322 318/356/310 316/401/348
f 321/405/351 322/383/333 320/406/352 319/407/350
f 292/373/322 319/407/350 320/406/352 294/372/323
f 321/405/351 308/391/341 302/384/334 322/383/333
f 308/395/341 321/404/351 317/402/349 312/392/342
f 296/374/324 294/372/323 320/406/352 322/383/333
f 274/345/300 323/408/353 314/399/346 277/346/301
f 314/399/346 323/408/353 325/409/354 311/396/344
f 323/410/353 324/411/355 327/412/356 325/413/354
f 323/410/353 274/343/300 272/342/299 324/411/355
f 325/409/354 326/414/357 309/397/340 311/396/344
f 327/415/356 328/416/358 326/414/357 325/409/354
f 329/417/359 330/418/360 328/419/358 327/412/356
f 324/411/355 331/420/361 329/417/359 327/412/356
f 335/421/362 330/418/360 329/417/359 332/422/363
f 334/423/364 332/422/363 329/417/359 331/420/361
f 337/424/365 335/421/362 332/422/363 333/425/366
f 332/422/363 334/423/364 346/426/367 333/425/366
f 330/418/360 335/421/362 336/427/368 444/428/369
f 337/424/365 338/429/370 336/427/368 335/421/362
f 340/430/371 338/429/370 337/424/365 339/431/372
f 339/431/372 337/424/365 333/425/366 342/432/373
f 340/430/371 339/431/372 341/433/374 475/434/375
f 342/432/373 343/435/376 341/433/374 339/431/372
f 344/436/377 345/437/378 343/435/376 342/432/373
f 333/425/366 346/426/367 344/436/377 342/432/373
f 347/438/379 345/437/378 344/436/377 346/426/367
f 467/439/380 347/438/379 346/426/367 348/440/381
f 350/441/382 348/440/381 346/426/367 349/442/383
f 351/443/384 349/442/383 346/426/367 334/423/364
f 350/441/382 349/442/383 352/444/385 355/445/386
f 349/442/383 351/443/384 354/446/387 352/444/385
f 354/446/387 366/447/388 353/448/389 352/444/385
f 355/445/386 352/444/385 353/448/389 357/449/390
f 355/445/386 356/450/391 468/451/392 350/441/382
f 355/445/386 357/449/390 358/452/393 356/450/391
f 359/453/394 360/454/395 358/452/393 357/449/390
f 359/453/394 357/449/390 353/448/389 361/455/396
f 362/456/397 360/454/395 359/453/394 361/455/396
f 361/455/396 353/448/389 363/457/398 362/456/397
f 362/456/397 363/457/398 358/452/393 360/454/395
f 363/457/398 365/309/271 247/308/269 364/458/399
f 364/459/399 375/460/400 358/461/393 363/462/398
f 366/447/388 365/309/271 363/457/398 353/448/389
f 366/447/388 367/463/401 243/297/263 365/309/271
f 366/447/388 354/446/387 368/464/402 367/463/401
f 369/298/264 367/463/401 368/464/402 370/465/403
f 367/463/401 369/298/264 243/297/263
f 369/298/264 370/465/403 372/466/404 242/292/261
f 371/467/405 373/341/298 372/466/404 370/465/403
f 371/467/405 370/465/403 368/464/402 354/446/387
f 372/466/404 264/331/288 240/293/258 242/292/261
f 266/332/289 264/331/288 372/466/404 373/341/298
f 371/467/405 374/468/406 272/342/299 373/341/298
f 374/468/406 371/467/405 354/446/387 351/443/384
f 331/420/361 324/411/355 272/342/299 374/468/406
f 351/443/384 334/423/364 331/420/361 374/468/406
f 375/460/400 364/459/399 376/469/407 377/470/408
f 376/469/407 364/459/399 247/306/269 379/305/268
f 376/469/407 378/471/409 472/472/410 377/470/408
f 376/469/407 379/305/268 380/473/411 378/471/409
f 246/304/267 382/474/412 380/473/411 379/305/268
f 384/475/413 381/476/414 380/473/411 382/474/412
f 473/477/415 378/471/409 380/473/411 381/476/414
f 382/474/412 246/304/267 249/307/270 383/478/416
f 384/475/413 382/474/412 383/478/416 385/479/417
f 388/480/418 381/476/414 384/475/413 386/481/419
f 387/482/420 386/481/419 384/475/413 385/479/417
f 387/482/420 392/483/421 389/484/422 386/481/419
f 389/484/422 390/485/423 388/480/418 386/481/419
f 391/486/424 455/487/425 390/485/423 389/484/422
f 392/483/421 393/488/426 391/486/424 389/484/422
f 392/483/421 387/482/420 397/489/427 394/490/428
f 394/490/428 395/491/429 393/488/426 392/483/421
f 394/490/428 396/492/430 405/493/431 395/491/429
f 396/492/430 394/490/428 397/489/427 398/494/432
f 385/479/417 398/494/432 397/489/427 387/482/420
f 385/479/417 383/478/416 399/317/277 398/494/432
f 396/492/430 398/494/432 399/317/277 400/495/433
f 399/317/277 253/316/276 401/496/434 400/495/433
f 249/307/270 252/311/273 399/317/277 383/478/416
f 402/497/435 400/495/433 401/496/434 404/498/436
f 400/495/433 402/497/435 405/493/431 396/492/430
f 418/499/437 403/500/438 402/497/435 404/498/436
f 402/497/435 403/500/438 406/501/439 405/493/431
f 395/491/429 405/493/431 406/501/439 407/502/440
f 408/503/441 407/502/440 406/501/439 403/500/438
f 407/502/440 408/503/441 411/504/442 409/505/443
f 395/491/429 407/502/440 409/505/443 393/488/426
f 411/504/442 412/506/444 410/507/445 409/505/443
f 409/505/443 410/507/445 391/486/424 393/488/426
f 413/508/446 414/509/447 412/506/444 411/504/442
f 416/510/448 413/508/446 411/504/442 408/503/441
f 413/508/446 415/511/449 441/512/450 414/509/447
f 415/511/449 413/508/446 416/510/448 417/513/451
f 416/510/448 418/499/437 419/514/452 417/513/451
f 418/499/437 416/510/448 408/503/441 403/500/438
f 404/498/436 422/515/453 419/514/452 418/499/437
f 437/516/454 417/517/451 419/518/452 420/519/455
f 426/520/456 420/519/455 419/518/452 421/521/457
f 423/522/458 421/523/457 419/514/452 422/515/453
f 423/522/458 422/515/453 424/524/459 425/525/460
f 422/515/453 404/498/436 401/496/434 424/524/459
f 425/525/460 424/524/459 255/318/278 258/320/280
f 401/496/434 253/316/276 255/318/278 424/524/459
f 269/337/294 423/526/458 425/527/460 267/334/291
f 260/326/284 267/334/291 425/527/460 258/327/280
f 421/528/457 423/526/458 269/337/294 427/339/296
f 426/529/456 421/530/457 427/531/296 428/532/461
f 276/349/303 428/532/461 427/531/296 270/348/295
f 279/350/304 429/360/314 428/532/461 276/349/303
f 430/533/462 426/529/456 428/532/461 429/360/314
f 285/359/313 431/534/463 430/533/462 429/360/314
f 420/519/455 426/520/456 430/535/462 432/536/464
f 433/537/465 432/536/464 430/535/462 431/538/463
f 435/381/331 434/539/466 432/536/464 433/537/465
f 437/516/454 420/519/455 432/536/464 434/539/466
f 436/387/337 434/539/466 435/381/331 300/380/330
f 437/516/454 434/539/466 436/387/337 438/540/467
f 438/540/467 415/541/449 417/517/451 437/516/454
f 439/542/468 438/540/467 436/387/337 304/386/336
f 438/540/467 439/542/468 441/543/450 415/541/449
f 439/542/468 304/386/336 306/388/338 440/544/469
f 440/544/469 443/545/470 441/543/450 439/542/468
f 444/428/369 442/546/471 441/547/450 443/548/470
f 446/549/472 414/550/447 441/547/450 442/546/471
f 443/545/470 440/544/469 326/551/357 328/552/358
f 444/428/369 443/548/470 328/419/358 330/418/360
f 442/546/471 444/428/369 336/427/368 445/553/473
f 442/546/471 445/553/473 448/554/474 446/549/472
f 446/555/472 447/556/475 412/506/444 414/509/447
f 447/556/475 446/555/472 448/557/474 450/558/476
f 445/553/473 465/559/477 449/560/478 448/554/474
f 450/561/476 448/554/474 449/560/478 451/562/479
f 451/563/479 453/564/480 452/565/481 450/558/476
f 447/556/475 450/558/476 452/565/481 454/566/482
f 455/487/425 454/566/482 452/565/481 453/564/480
f 447/556/475 454/566/482 410/507/445 412/506/444
f 454/566/482 455/487/425 391/486/424 410/507/445
f 455/487/425 453/564/480 456/567/483 390/485/423
f 451/563/479 458/568/484 456/567/483 453/564/480
f 459/569/485 457/570/486 456/567/483 458/568/484
f 456/567/483 457/570/486 388/480/418 390/485/423
f 460/571/487 461/572/488 459/573/485 458/574/484
f 451/562/479 449/560/478 460/571/487 458/574/484
f 463/575/489 461/572/488 460/571/487 462/576/490
f 465/559/477 462/576/490 460/571/487 449/560/478
f 464/577/491 468/451/392 463/575/489 462/576/490
f 465/559/477 466/578/492 464/577/491 462/576/490
f 465/559/477 445/553/473 336/427/368 466/578/492
f 467/439/380 348/440/381 464/577/491 466/578/492
f 467/439/380 466/578/492 336/427/368 338/429/370
f 340/430/371 347/438/379 467/439/380 338/429/370
f 350/441/382 468/451/392 464/577/491 348/440/381
f 356/450/391 469/579/493 463/575/489 468/451/392
f 470/580/494 461/572/488 463/575/489 469/579/493
f 469/579/493 356/450/391 358/452/393 375/581/400
f 469/579/493 375/581/400 377/582/408 470/580/494
f 470/580/494 471/583/495 459/573/485 461/572/488
f 470/580/494 377/582/408 472/584/410 471/583/495
f 473/477/415 471/585/495 472/472/410 378/471/409
f 473/477/415 457/570/486 459/569/485 471/585/495
f 473/477/415 381/476/414 388/480/418 457/570/486
f 440/544/469 306/388/338 309/390/340 326/551/357
f 474/366/320 299/379/329 435/381/331 433/537/465
f 290/367/317 474/366/320 433/537/465 431/538/463
f 474/366/320 289/365/319 297/376/326 299/379/329
f 431/534/463 285/359/313 287/361/315 290/363/317
f 347/438/379 340/430/371 475/434/375 345/437/378
f 345/437/378 475/434/375 341/433/374 343/435/376
f 478/251/220 477/586/496 257/587/281 250/312/274
f 479/588/497 476/589/287 257/587/281 477/586/496
f 478/251/220 190/246/215 480/245/214 477/586/496
f 479/588/497 477/586/496 480/245/214 481/590/498
f 480/245/214 186/240/209 482/239/208 481/590/498
f 482/239/208 484/591/499 483/592/500 481/590/498
f 479/588/497 481/590/498 483/592/500 486/593/501
f 484/591/499 510/594/502 485/595/503 483/592/500
f 486/593/501 483/592/500 485/595/503 488/596/504
f 476/589/287 479/588/497 486/593/501 487/597/505
f 490/598/506 487/597/505 486/593/501 488/596/504
f 489/599/507 491/600/508 490/601/506 488/602/504
f 488/596/504 485/595/503 508/603/509 489/604/507
f 493/605/510 487/606/505 490/607/506 492/608/511
f 495/609/512 492/610/511 490/601/506 491/600/508
f 536/611/513 493/605/510 492/608/511 494/612/514
f 496/44/40 494/613/514 492/610/511 495/609/512
f 29/39/35 496/44/40 495/609/512 497/614/515
f 498/615/516 497/614/515 495/609/512 491/600/508
f 20/27/27 29/39/35 497/614/515 499/26/26
f 500/616/517 499/26/26 497/614/515 498/615/516
f 19/25/25 499/26/26 500/616/517 501/617/518
f 500/616/517 502/618/519 504/619/520 501/617/518
f 498/615/516 505/620/521 502/618/519 500/616/517
f 506/621/522 503/201/170 502/622/519 505/623/521
f 503/201/170 147/197/166 504/624/520 502/622/519
f 505/620/521 498/615/516 491/600/508 489/599/507
f 489/599/507 508/625/509 506/626/522 505/620/521
f 509/627/523 507/628/524 506/621/522 508/603/509
f 146/200/169 503/201/170 506/621/522 507/628/524
f 510/594/502 509/627/523 508/603/509 485/595/503
f 509/627/523 510/594/502 512/629/525 511/630/526
f 511/630/526 513/631/527 507/628/524 509/627/523
f 182/232/201 179/229/198 513/631/527 511/630/526
f 182/232/201 511/630/526 512/629/525 515/235/204
f 173/224/193 514/198/167 513/631/527 179/229/198
f 514/198/167 146/200/169 507/628/524 513/631/527
f 484/591/499 515/235/204 512/629/525 510/594/502
f 515/235/204 484/591/499 482/239/208 181/233/202
f 501/617/518 504/619/520 516/632/528 518/633/529
f 147/197/166 144/194/163 516/634/528 504/624/520
f 516/634/528 144/194/163 142/193/162 517/635/530
f 519/636/531 518/633/529 516/632/528 517/637/530
f 520/11/11 17/24/24 518/633/529 519/636/531
f 17/24/24 19/25/25 501/617/518 518/633/529
f 521/638/532 6/9/9 520/11/11 519/636/531
f 517/635/530 523/639/533 521/640/532 519/641/531
f 6/9/9 521/638/532 522/642/534 4/7/7
f 521/640/532 523/639/533 525/643/535 522/644/534
f 524/192/161 527/645/536 525/643/535 523/639/533
f 523/639/533 517/635/530 142/193/162 524/192/161
f 525/643/535 526/646/537 534/647/538 522/644/534
f 528/648/539 526/646/537 525/643/535 527/645/536
f 527/645/536 529/186/155 530/649/540 528/648/539
f 529/186/155 527/645/536 524/192/161 137/187/156
f 138/183/152 531/650/541 530/649/540 529/186/155
f 532/651/542 528/648/539 530/649/540 531/650/541
f 134/182/151 532/651/542 531/650/541 138/183/152
f 528/648/539 532/651/542 533/175/146 526/646/537
f 134/182/151 129/176/147 533/175/146 532/651/542
f 533/175/146 128/174/145 534/647/538 526/646/537
f 534/652/538 128/653/145 126/168/142 535/8/8
f 4/7/7 522/642/534 534/652/538 535/8/8
f 3/5/5 535/8/8 126/168/142 123/165/139
f 494/613/514 496/44/40 28/43/39 31/42/38
f 494/612/514 31/48/38 34/47/42 536/611/513
f 536/611/513 238/288/257 240/289/258 493/605/510
f 238/288/257 536/611/513 34/47/42 36/53/46
f 487/606/505 493/605/510 240/289/258 476/654/287
f 236/57/50 40/58/51 537/64/57 234/286/255
f 217/272/241 234/286/255 537/64/57 44/63/56
f 210/264/233 208/263/232 222/273/242 215/267/236
f 167/104/93 77/103/92 88/121/104 165/217/186
f 165/217/186 88/121/104 90/123/105 163/215/184
f 90/123/105 93/127/108 161/137/116 163/215/184
f 153/206/175 156/208/177 98/136/115 100/138/117
f 153/206/175 100/138/117 103/139/118 151/203/172
f 538/191/160 151/203/172 103/139/118 105/144/123
f 135/181/150 538/191/160 105/144/123 132/146/125
f 119/161/135 125/166/140 108/150/126 110/149/128
f 123/165/139 121/164/138 539/6/6 3/5/5
f 540/13/13 2/1/1 539/6/6 121/164/138
f 62/87/78 14/22/22 113/23/23 81/110/97
f 62/87/78 81/110/97 73/111/88 66/84/76
f 56/74/67 53/75/68 542/37/34 24/34/31
f 54/60/53 37/51/44 33/50/43 541/76/69
f 23/38/32 541/76/69 33/50/43 26/49/33
f 541/76/69 23/38/32 542/37/34 53/75/68
