# Blender 5.2.0 LTS
# www.blender.org
mtllib terrain-abyss-chancel-object-059.mtl
o terrain-abyss-chancel-object-059
v -0.224330 0.861168 0.033061
v -0.221974 0.862287 0.032942
v -0.223688 0.860898 0.031555
v -0.226262 0.861810 0.032306
v -0.224905 0.861705 0.034106
v -0.223156 0.863413 0.033076
v -0.226118 0.863067 0.033050
v -0.224571 0.864170 0.032084
v -0.227429 0.863637 0.031661
v -0.227996 0.862179 0.031870
v -0.228209 0.863971 0.030150
v -0.225811 0.864645 0.030740
v -0.223942 0.864893 0.029773
v -0.226762 0.864526 0.029152
v -0.227724 0.863418 0.027539
v -0.224835 0.864491 0.028053
v -0.226093 0.862623 0.026919
v -0.223018 0.863846 0.027838
v -0.221602 0.863249 0.028115
v -0.224185 0.861682 0.027436
v -0.222335 0.864416 0.029581
v -0.220874 0.863381 0.029575
v -0.222264 0.864163 0.031213
v -0.223442 0.864664 0.031056
v -0.220969 0.863131 0.031375
v -0.220932 0.861301 0.031139
v -0.221650 0.861360 0.032207
v -0.222994 0.860838 0.029968
v -0.220723 0.861390 0.029806
v -0.222302 0.861412 0.028661
v -0.225180 0.860964 0.029122
v -0.225819 0.861159 0.030803
v -0.227296 0.861631 0.028835
v -0.227877 0.862030 0.030501
v -0.228667 0.863682 0.028714
vn 0.6171 -0.1171 0.7781
vn 0.3004 0.5114 0.8051
vn -0.2390 -0.1454 0.9601
vn -0.0636 -0.7594 0.6475
vn 0.0046 -0.9722 0.2340
vn 0.5431 -0.6854 0.4850
vn -0.5092 -0.7139 0.4807
vn -0.2708 -0.9566 0.1081
vn -0.4435 0.3259 0.8349
vn -0.0458 0.8378 0.5441
vn -0.1852 0.9513 0.2463
vn -0.6393 0.5356 0.5518
vn -0.7583 -0.3963 0.5175
vn -0.8357 0.5406 0.0967
vn -0.7845 -0.6009 0.1533
vn -0.2437 0.9466 -0.2112
vn 0.1124 0.9924 -0.0502
vn 0.0527 0.7894 -0.6116
vn 0.1671 0.9399 0.2976
vn -0.2555 -0.1182 -0.9596
vn -0.6042 0.2258 -0.7642
vn -0.9034 0.2456 -0.3515
vn 0.4334 0.8893 -0.1458
vn 0.3713 0.4915 -0.7878
vn 0.1135 -0.5218 -0.8455
vn 0.8715 0.4181 -0.2562
vn 0.6244 0.2207 -0.7492
vn 0.3999 -0.6846 -0.6094
vn 0.4454 0.8302 0.3352
vn 0.8382 0.4022 0.3684
vn 0.7620 -0.6137 0.2069
vn 0.7953 -0.5453 -0.2650
vn 0.0943 -0.9907 -0.0985
vn -0.1539 -0.9607 -0.2312
vn -0.5692 -0.7787 -0.2639
vt 0.024031 0.975837
vt 0.025370 0.975589
vt 0.024945 0.976652
vt 0.024360 0.977060
vt 0.023644 0.977806
vt 0.023333 0.976601
vt 0.025218 0.977545
vt 0.024680 0.978351
vt 0.025868 0.976948
vt 0.026458 0.976197
vt 0.027697 0.977015
vt 0.026849 0.977468
vt 0.025995 0.977763
vt 0.026996 0.978283
vt 0.025824 0.978305
vt 0.027888 0.978629
vt 0.230657 0.017886
vt 0.230386 0.018880
vt 0.229236 0.019018
vt 0.229488 0.017933
vt 0.231715 0.018345
vt 0.231144 0.018876
vt 0.027502 0.979929
vt 0.026165 0.980206
vt 0.026615 0.979378
vt 0.026546 0.978817
vt 0.230522 0.019580
vt 0.229458 0.020026
vt 0.025452 0.981600
vt 0.026972 0.981049
vt 0.230884 0.020294
vt 0.230150 0.020446
vt 0.229134 0.021381
vt 0.230361 0.021423
vt 0.231367 0.019468
vt 0.231701 0.020242
vt 0.232379 0.019218
vt 0.232497 0.020245
vt 0.232530 0.021239
vt 0.231824 0.021140
vt 0.231185 0.021146
vt 0.231117 0.022211
vt 0.232092 0.022122
vt 0.229862 0.022459
vt 0.024763 0.979831
vt 0.023301 0.978706
vt 0.025518 0.979221
s 1
usemtl abyss_chancel_background_pbr
f 2/1/1 6/2/2 5/3/3 1/4/4
f 1/4/4 3/5/5 27/6/6 2/1/1
f 1/4/4 4/7/7 32/8/8 3/5/5
f 4/7/7 1/4/4 5/3/3 7/9/9
f 8/10/10 7/9/9 5/3/3 6/2/2
f 8/10/10 12/11/11 9/12/12 7/9/9
f 7/9/9 9/12/12 10/13/13 4/7/7
f 11/14/14 34/15/15 10/13/13 9/12/12
f 9/12/12 12/11/11 14/16/16 11/14/14
f 12/17/11 13/18/17 16/19/18 14/20/16
f 12/17/11 8/21/10 24/22/19 13/18/17
f 16/23/18 17/24/20 15/25/21 14/16/16
f 11/14/14 14/16/16 15/25/21 35/26/22
f 21/27/23 18/28/24 16/19/18 13/18/17
f 20/29/25 17/24/20 16/23/18 18/30/24
f 21/27/23 22/31/26 19/32/27 18/28/24
f 20/33/25 18/28/24 19/32/27 30/34/28
f 22/31/26 21/27/23 23/35/29 25/36/30
f 21/27/23 13/18/17 24/22/19 23/35/29
f 6/37/2 23/35/29 24/22/19 8/21/10
f 25/36/30 23/35/29 6/37/2 2/38/1
f 25/36/30 2/38/1 27/39/6 26/40/31
f 25/36/30 26/40/31 29/41/32 22/31/26
f 28/42/33 26/40/31 27/39/6 3/43/5
f 28/42/33 30/34/28 29/41/32 26/40/31
f 29/41/32 30/34/28 19/32/27 22/31/26
f 30/34/28 28/42/33 31/44/34 20/33/25
f 3/5/5 32/8/8 31/45/34 28/46/33
f 32/8/8 34/15/15 33/47/35 31/45/34
f 20/29/25 31/45/34 33/47/35 17/24/20
f 34/15/15 11/14/14 35/26/22 33/47/35
f 33/47/35 35/26/22 15/25/21 17/24/20
f 32/8/8 4/7/7 10/13/13 34/15/15
