# Blender 5.2.0 LTS
# www.blender.org
mtllib terrain-abyss-chancel-object-078.mtl
o terrain-abyss-chancel-object-078
v -0.051947 0.851285 0.031061
v -0.053057 0.855981 0.031646
v -0.053899 0.852378 0.026836
v -0.056682 0.849233 0.033495
v -0.057856 0.854645 0.034447
v -0.058462 0.849092 0.027858
v -0.062675 0.848337 0.034463
v -0.063190 0.853621 0.036090
v -0.068440 0.849026 0.035057
v -0.063855 0.847836 0.029520
v -0.065859 0.851956 0.026102
v -0.069303 0.848811 0.031678
v -0.069757 0.850597 0.028745
v -0.072660 0.850841 0.032078
v -0.072441 0.850936 0.035213
v -0.071470 0.853761 0.030761
v -0.070707 0.855364 0.034925
v -0.067033 0.857397 0.028632
v -0.061578 0.859413 0.027333
v -0.065591 0.858490 0.033697
v -0.060131 0.860193 0.032581
v -0.055226 0.860042 0.030633
v -0.055700 0.859665 0.026872
v -0.052205 0.856797 0.027900
v -0.056844 0.855671 0.024854
v -0.060899 0.854154 0.024872
v -0.067533 0.852831 0.036403
vn 0.3208 0.1548 0.9344
vn 0.4570 -0.6959 0.5539
vn 0.8478 -0.4656 0.2540
vn 0.8062 0.2810 0.5206
vn 0.6330 -0.4238 -0.6479
vn 0.8751 0.3040 -0.3765
vn 0.1995 -0.8258 -0.5275
vn 0.1200 0.0938 0.9883
vn 0.1347 -0.7830 0.6073
vn -0.0544 -0.9310 -0.3611
vn -0.0544 0.0468 0.9974
vn -0.2126 -0.7284 0.6513
vn -0.4174 -0.8802 -0.2258
vn -0.1160 -0.0625 -0.9913
vn -0.3527 -0.2279 -0.9076
vn -0.5663 -0.3613 -0.7408
vn -0.7769 -0.2754 0.5662
vn -0.9200 -0.3500 -0.1764
vn -0.8464 0.3381 -0.4113
vn -0.6018 0.5677 0.5618
vn -0.5321 0.6687 -0.5194
vn -0.2683 0.8297 0.4895
vn 0.0262 0.8739 0.4854
vn -0.2524 0.7904 -0.5581
vn 0.4364 0.8319 0.3428
vn 0.3454 0.7539 -0.5589
vn 0.1832 0.0648 -0.9809
vt 0.614798 0.025155
vt 0.612011 0.027436
vt 0.611480 0.025001
vt 0.612247 0.023502
vt 0.609848 0.024081
vt 0.610771 0.022571
vt 0.608877 0.026190
vt 0.617227 0.026717
vt 0.613444 0.029988
vt 0.608363 0.029771
vt 0.618375 0.029191
vt 0.616684 0.031965
vt 0.371635 0.981776
vt 0.368629 0.981323
vt 0.370769 0.979413
vt 0.373518 0.979223
vt 0.606297 0.022745
vt 0.604754 0.026996
vt 0.371158 0.977526
vt 0.372872 0.976040
vt 0.368473 0.979411
vt 0.369604 0.978503
vt 0.369196 0.977211
vt 0.367153 0.977567
vt 0.369137 0.974252
vt 0.364947 0.974617
vt 0.614038 0.020903
vt 0.610263 0.018374
vt 0.614411 0.017740
vt 0.616747 0.021785
vt 0.373199 0.973219
vt 0.370196 0.971472
vt 0.366396 0.980685
vt 0.364908 0.978995
vt 0.612313 0.021537
vt 0.610544 0.021000
vt 0.608375 0.022368
s 1
usemtl abyss_chancel_background_pbr
f 5/1/1 4/2/2 1/3/3 2/4/4
f 1/3/3 3/5/5 24/6/6 2/4/4
f 6/7/7 3/5/5 1/3/3 4/2/2
f 5/1/1 8/8/8 7/9/9 4/2/2
f 4/2/2 7/9/9 10/10/10 6/7/7
f 7/9/9 8/8/8 27/11/11 9/12/12
f 7/13/9 9/14/12 12/15/13 10/16/10
f 26/17/14 6/7/7 10/10/10 11/18/15
f 10/16/10 12/15/13 13/19/16 11/20/15
f 12/15/13 9/14/12 15/21/17 14/22/18
f 14/22/18 16/23/19 13/19/16 12/15/13
f 16/23/19 14/22/18 15/21/17 17/24/20
f 18/25/21 11/20/15 13/19/16 16/23/19
f 17/24/20 20/26/22 18/25/21 16/23/19
f 21/27/23 19/28/24 18/29/21 20/30/22
f 26/31/14 11/20/15 18/25/21 19/32/24
f 5/1/1 21/27/23 20/30/22 8/8/8
f 20/26/22 17/24/20 27/33/11 8/34/8
f 19/28/24 21/27/23 22/35/25 23/36/26
f 5/1/1 2/4/4 22/35/25 21/27/23
f 22/35/25 2/4/4 24/6/6 23/36/26
f 25/37/27 23/36/26 24/6/6 3/5/5
f 19/28/24 23/36/26 25/37/27 26/17/14
f 6/7/7 26/17/14 25/37/27 3/5/5
f 15/21/17 9/14/12 27/33/11 17/24/20
