# split from a merged terrain OBJ by scripts/split-terrain-obj-parts.py
o part-003
v 0.855677 0.112425 -0.079771
v 0.841986 0.107572 -0.082764
v 0.837182 0.104381 -0.080413
v 0.854285 0.111263 -0.076240
v 0.854149 0.106738 -0.073393
v 0.840215 0.101460 -0.077761
v 0.824061 0.096017 -0.072980
v 0.819790 0.096011 -0.074611
v 0.830424 0.100937 -0.087513
v 0.842280 0.104695 -0.086852
v 0.829434 0.026739 -0.078847
v 0.814148 0.028617 -0.072831
v 0.814894 0.038232 -0.071654
v 0.830209 0.034405 -0.079523
v 0.799157 0.030237 -0.060411
v 0.798951 0.038265 -0.060228
v 0.830803 0.042181 -0.079353
v 0.819488 0.043454 -0.075452
v 0.819880 0.052332 -0.076392
v 0.811582 0.050540 -0.070643
v 0.799508 0.046622 -0.058471
v 0.831948 0.052489 -0.079763
v 0.856240 0.110176 0.062868
v 0.843162 0.111690 0.067235
v 0.843728 0.117021 0.068650
v 0.856819 0.115719 0.064250
v 0.834713 0.111209 0.069406
v 0.838769 0.116837 0.070488
v 0.857313 0.118239 0.067574
v 0.858565 0.115570 0.072182
v 0.840362 0.115697 0.076783
v 0.824302 0.115473 0.075375
v 0.824282 0.116383 0.069872
v 0.823593 0.111202 0.068312
v 0.804124 0.042881 -0.001756
v 0.803682 0.048835 -0.001677
v 0.804776 0.054983 0.018549
v 0.805190 0.043707 0.015836
v 0.811334 0.045065 0.030229
v 0.811282 0.056569 0.033195
v 0.802629 0.054320 -0.001878
v 0.802237 0.062062 0.015243
v 0.800578 0.074845 0.027745
v 0.804223 0.072187 0.032412
v 0.787573 0.054501 -0.042900
v 0.782540 0.054792 -0.030937
v 0.782131 0.065013 -0.035673
v 0.787602 0.061774 -0.044033
v 0.794599 0.068307 -0.053667
v 0.790658 0.074507 -0.052094
v 0.789145 0.079025 -0.050675
v 0.780110 0.068583 -0.032484
v 0.789592 0.084329 -0.048777
v 0.785863 0.073327 -0.032491
v 0.780287 0.060640 -0.015250
v 0.780761 0.065054 -0.015732
v 0.783428 0.069270 -0.016798
v 0.780483 0.068870 0.018623
v 0.780981 0.057195 0.002912
v 0.781011 0.053181 0.010455
v 0.781805 0.067976 0.022430
v 0.781400 0.042281 -0.008167
v 0.781682 0.042074 0.012402
v 0.781193 0.048993 -0.011138
v 0.780924 0.054155 -0.013453
v 0.784003 0.098881 0.009258
v 0.784045 0.105943 0.011550
v 0.786085 0.107181 0.012442
v 0.786601 0.099044 0.012334
v 0.787256 0.098532 0.016732
v 0.785589 0.105228 0.016580
v 0.779542 0.098696 0.010301
v 0.779020 0.104878 0.010868
v 0.778500 0.110710 0.013450
v 0.784854 0.110014 0.013887
v 0.783091 0.117259 0.018509
v 0.785184 0.111869 0.018761
v 0.786535 0.112066 0.012777
v 0.778317 0.116489 0.017870
v 0.778891 0.117605 0.023431
v 0.774553 0.113555 0.019635
v 0.774760 0.113713 0.023490
v 0.775186 0.108937 0.022247
v 0.775887 0.109525 0.017401
v 0.796175 0.061228 -0.055075
v 0.788318 0.049054 -0.043151
v 0.798078 0.054505 -0.056980
v 0.805298 0.074371 -0.069292
v 0.807707 0.068457 -0.069718
v 0.809873 0.060632 -0.069773
v 0.822045 0.073238 -0.080647
v 0.821766 0.063693 -0.078447
v 0.834695 0.076002 -0.086275
v 0.833483 0.064919 -0.080975
v 0.849159 0.078231 -0.086641
v 0.847454 0.066086 -0.081144
v 0.846386 0.052903 -0.079780
v 0.845961 0.042461 -0.079224
v 0.861964 0.068171 -0.075125
v 0.861193 0.053946 -0.073622
v 0.861265 0.042826 -0.073136
v 0.845898 0.033601 -0.079850
v 0.861898 0.033744 -0.073356
v 0.875314 0.054844 -0.061293
v 0.875615 0.043339 -0.060448
v 0.876405 0.034744 -0.059860
v 0.862039 0.026571 -0.072132
v 0.876269 0.028234 -0.058615
v 0.887653 0.044304 -0.040902
v 0.888878 0.036300 -0.040879
v 0.888265 0.029642 -0.039917
v 0.874036 0.023113 -0.055959
v 0.885362 0.024338 -0.038287
v 0.895265 0.037237 -0.016412
v 0.894714 0.030479 -0.016465
v 0.891421 0.024950 -0.016291
v 0.880641 0.020510 -0.036085
v 0.886293 0.021347 -0.015784
v 0.894530 0.029732 0.006914
v 0.891861 0.023843 0.006167
v 0.886634 0.020431 0.005467
v 0.880385 0.020309 -0.015068
v 0.880260 0.019736 0.004988
v 0.888159 0.023213 0.023715
v 0.883053 0.019811 0.022464
v 0.877020 0.019262 0.021007
v 0.874403 0.022962 0.004784
v 0.871335 0.022162 0.019663
v 0.876024 0.019152 0.038497
v 0.870258 0.018361 0.035473
v 0.865228 0.021453 0.032534
v 0.867660 0.027713 0.019133
v 0.862034 0.026696 0.030805
v 0.860696 0.018277 0.047002
v 0.856728 0.020938 0.042352
v 0.854260 0.026059 0.039589
v 0.862256 0.033538 0.031041
v 0.853234 0.032780 0.038603
v 0.847429 0.020349 0.048656
v 0.845858 0.025243 0.044920
v 0.845440 0.032071 0.043744
v 0.853400 0.040662 0.038493
v 0.845824 0.040113 0.043874
v 0.837908 0.024828 0.047563
v 0.837966 0.031526 0.046294
v 0.838347 0.039731 0.046430
v 0.846620 0.049817 0.044347
v 0.838809 0.049483 0.046878
v 0.830580 0.031104 0.046092
v 0.831001 0.039092 0.046311
v 0.831486 0.048731 0.047068
v 0.839598 0.060446 0.048660
v 0.831792 0.059669 0.048950
v 0.822958 0.038185 0.044427
v 0.823686 0.047385 0.046010
v 0.824123 0.058577 0.047301
v 0.831624 0.071645 0.053788
v 0.823513 0.070931 0.052685
v 0.817362 0.046225 0.038899
v 0.817736 0.057718 0.041739
v 0.816627 0.071312 0.047657
v 0.822816 0.081648 0.057542
v 0.815224 0.082436 0.052896
v 0.810163 0.071100 0.041164
v 0.807928 0.083091 0.047016
v 0.814137 0.091142 0.056681
v 0.806262 0.092248 0.050419
v 0.801627 0.084672 0.039471
v 0.798985 0.093845 0.042633
v 0.804705 0.099973 0.052581
v 0.797021 0.101242 0.044306
v 0.796905 0.086405 0.033256
v 0.793924 0.095035 0.035929
v 0.791941 0.102165 0.037333
v 0.795176 0.107211 0.045392
v 0.790478 0.108033 0.038240
v 0.790781 0.096128 0.030342
v 0.789071 0.103037 0.031485
v 0.787791 0.108948 0.032348
v 0.788988 0.113533 0.038948
v 0.786274 0.114498 0.033060
v 0.787389 0.103750 0.026577
v 0.786312 0.109966 0.027329
v 0.785098 0.115590 0.027951
v 0.782284 0.116372 0.033994
v 0.780244 0.116877 0.028671
v 0.785462 0.110979 0.022918
v 0.784001 0.116801 0.023377
v 0.786407 0.104364 0.022180
v 0.788922 0.097039 0.025583
v 0.787717 0.097784 0.021263
v 0.791680 0.089520 0.023731
v 0.790091 0.090837 0.019906
v 0.788554 0.091958 0.016151
v 0.793148 0.082806 0.016983
v 0.791363 0.084447 0.013737
v 0.788942 0.085826 0.010866
v 0.787271 0.092798 0.012477
v 0.784669 0.092943 0.009906
v 0.786020 0.086337 0.009022
v 0.780952 0.092517 0.010214
v 0.782755 0.086029 0.009726
v 0.791668 0.079402 0.006051
v 0.788257 0.079669 0.004831
v 0.784787 0.078621 0.005544
v 0.780382 0.085107 0.012887
v 0.781770 0.076403 0.007263
v 0.789818 0.074677 -0.004908
v 0.786127 0.072587 -0.004179
v 0.783319 0.069613 -0.003249
v 0.780174 0.073836 0.010289
v 0.781725 0.065670 -0.001483
v 0.786572 0.071805 -0.016655
v 0.790483 0.074164 -0.016712
v 0.792251 0.079088 -0.029571
v 0.788418 0.076771 -0.030813
v 0.797279 0.088047 -0.046031
v 0.792234 0.087880 -0.047445
v 0.809815 0.090753 -0.063117
v 0.806264 0.091294 -0.065685
v 0.803326 0.088201 -0.068019
v 0.802375 0.083975 -0.069102
v 0.817231 0.091667 -0.079586
v 0.817659 0.087923 -0.081556
v 0.802780 0.078964 -0.069609
v 0.818757 0.083475 -0.082877
v 0.831199 0.095283 -0.087799
v 0.833095 0.090082 -0.086972
v 0.820466 0.079539 -0.082324
v 0.834369 0.084083 -0.088153
v 0.844363 0.099528 -0.087981
v 0.846206 0.093413 -0.087637
v 0.847880 0.087118 -0.086443
v 0.861593 0.096016 -0.081880
v 0.862426 0.089161 -0.080095
v 0.864214 0.080310 -0.080244
v 0.877618 0.090427 -0.066147
v 0.879169 0.082132 -0.066136
v 0.876118 0.069614 -0.062625
v 0.891898 0.082514 -0.044341
v 0.888669 0.069565 -0.042269
v 0.887764 0.055309 -0.041427
v 0.894665 0.069452 -0.017136
v 0.894123 0.055313 -0.016393
v 0.894297 0.044847 -0.016244
v 0.893973 0.055031 0.007544
v 0.893920 0.044376 0.007670
v 0.894828 0.036431 0.007354
v 0.889147 0.043677 0.023560
v 0.890369 0.035331 0.023928
v 0.890615 0.028720 0.024153
v 0.884526 0.034955 0.041328
v 0.884330 0.027935 0.041963
v 0.881104 0.022168 0.040936
v 0.870821 0.028193 0.058176
v 0.868300 0.022852 0.055628
v 0.864739 0.019456 0.051670
v 0.853742 0.022372 0.065100
v 0.851695 0.019426 0.059532
v 0.849730 0.017296 0.053950
v 0.838999 0.017791 0.063431
v 0.838715 0.017414 0.057235
v 0.838271 0.019935 0.051287
v 0.827555 0.016850 0.056324
v 0.829181 0.019595 0.050583
v 0.830135 0.024512 0.047160
v 0.820534 0.019559 0.046743
v 0.822868 0.024105 0.043462
v 0.823019 0.030601 0.043460
v 0.814932 0.024439 0.037389
v 0.816367 0.030535 0.037000
v 0.816917 0.037612 0.037559
v 0.810143 0.030718 0.028141
v 0.810804 0.037213 0.028741
v 0.805135 0.030984 0.014673
v 0.805286 0.037270 0.015258
v 0.804492 0.031060 -0.002677
v 0.804398 0.037079 -0.002127
v 0.804626 0.031660 -0.020447
v 0.804981 0.037352 -0.020064
v 0.804691 0.043086 -0.019682
v 0.804300 0.048903 -0.019156
v 0.809482 0.037779 -0.035732
v 0.809316 0.044563 -0.035940
v 0.808671 0.051248 -0.035713
v 0.803263 0.054092 -0.018778
v 0.807308 0.057320 -0.035110
v 0.817796 0.045494 -0.045750
v 0.817190 0.053462 -0.045943
v 0.815596 0.061148 -0.046388
v 0.805564 0.062179 -0.034069
v 0.813081 0.067013 -0.046586
v 0.825996 0.054511 -0.051480
v 0.824580 0.062928 -0.053322
v 0.822376 0.070163 -0.056107
v 0.810524 0.072120 -0.046451
v 0.820052 0.075406 -0.057938
v 0.833796 0.063673 -0.056929
v 0.833129 0.071561 -0.061087
v 0.832550 0.077982 -0.064671
v 0.817824 0.080606 -0.059632
v 0.831273 0.083214 -0.067282
v 0.844316 0.073170 -0.060783
v 0.844303 0.080050 -0.064971
v 0.843621 0.086175 -0.068078
v 0.829898 0.088454 -0.069790
v 0.843046 0.091822 -0.071387
v 0.855717 0.082722 -0.060705
v 0.855619 0.089452 -0.064067
v 0.855180 0.095682 -0.067245
v 0.841813 0.097161 -0.074693
v 0.854589 0.101349 -0.070344
v 0.865554 0.092123 -0.056507
v 0.865938 0.098510 -0.059493
v 0.866430 0.104471 -0.062035
v 0.866912 0.110134 -0.064252
v 0.876799 0.101293 -0.045047
v 0.877953 0.107333 -0.046811
v 0.878447 0.113176 -0.048440
v 0.868145 0.115531 -0.066406
v 0.881092 0.118410 -0.050112
v 0.885284 0.111666 -0.021471
v 0.887122 0.116983 -0.022358
v 0.889944 0.120205 -0.023080
v 0.887579 0.118905 0.001134
v 0.891340 0.121662 0.000488
v 0.897959 0.119943 -0.000558
v 0.895096 0.118269 -0.023052
v 0.886286 0.115939 -0.049769
v 0.875314 0.109798 -0.070028
v 0.872039 0.114809 -0.068860
v 0.889379 0.110719 -0.048689
v 0.897180 0.112618 -0.022367
v 0.898918 0.113996 -0.000421
v 0.898200 0.108042 -0.000402
v 0.897496 0.106758 -0.021398
v 0.890562 0.104789 -0.046956
v 0.877666 0.097452 -0.067999
v 0.876965 0.103888 -0.069228
v 0.890899 0.098434 -0.045598
v 0.897321 0.100437 -0.020434
v 0.897443 0.101769 -0.000382
v 0.896585 0.094650 -0.000360
v 0.896552 0.093563 -0.019461
v 0.890608 0.091675 -0.044171
v 0.898530 0.083554 -0.018548
v 0.898598 0.084146 0.003174
v 0.894748 0.068883 0.006457
v 0.896220 0.083009 0.023630
v 0.891334 0.068410 0.023054
v 0.889681 0.054726 0.023348
v 0.886428 0.068379 0.040940
v 0.884926 0.054359 0.040726
v 0.884352 0.043402 0.040588
v 0.871339 0.055362 0.058023
v 0.870818 0.043996 0.057830
v 0.871111 0.035395 0.058521
v 0.853207 0.044066 0.067568
v 0.855007 0.035043 0.069394
v 0.855213 0.027889 0.068691
v 0.839020 0.034484 0.073864
v 0.839422 0.027069 0.073034
v 0.839373 0.021522 0.068965
v 0.823671 0.026186 0.071871
v 0.824589 0.020856 0.068143
v 0.826024 0.017204 0.062664
v 0.811305 0.020750 0.062214
v 0.814359 0.018407 0.057306
v 0.817413 0.017444 0.051882
v 0.802614 0.018906 0.047099
v 0.807463 0.017712 0.043090
v 0.811948 0.019697 0.039413
v 0.799114 0.018690 0.031085
v 0.804572 0.020744 0.029197
v 0.808347 0.025126 0.028118
v 0.799785 0.021448 0.014466
v 0.803308 0.025720 0.014403
v 0.799105 0.021170 -0.004027
v 0.803271 0.025266 -0.003331
v 0.799704 0.022167 -0.021764
v 0.803104 0.026119 -0.020942
v 0.804378 0.021157 -0.036688
v 0.807402 0.026009 -0.035639
v 0.808692 0.031713 -0.035633
v 0.815809 0.025023 -0.045974
v 0.817160 0.031038 -0.045407
v 0.817786 0.037755 -0.045353
v 0.826321 0.030623 -0.050425
v 0.826658 0.037683 -0.050449
v 0.826542 0.045800 -0.050816
v 0.834025 0.037639 -0.053232
v 0.834203 0.045908 -0.053706
v 0.834108 0.054805 -0.054548
v 0.842537 0.046277 -0.052314
v 0.842915 0.055445 -0.053193
v 0.843540 0.064704 -0.056130
v 0.851827 0.056453 -0.049678
v 0.853117 0.066159 -0.052330
v 0.854818 0.075185 -0.056671
v 0.861829 0.067961 -0.045621
v 0.863560 0.077204 -0.049411
v 0.864881 0.085088 -0.053156
v 0.872217 0.079969 -0.037679
v 0.873983 0.088047 -0.040767
v 0.875509 0.095204 -0.043386
v 0.880628 0.092535 -0.019143
v 0.882249 0.099542 -0.020055
v 0.883775 0.106079 -0.020919
v 0.884561 0.101377 0.003875
v 0.885678 0.107713 0.002706
v 0.886607 0.113340 0.001952
v 0.884357 0.104573 0.023364
v 0.885176 0.110196 0.023218
v 0.885480 0.115395 0.023677
v 0.878253 0.107799 0.040354
v 0.880363 0.112970 0.040896
v 0.884419 0.114571 0.041977
v 0.889200 0.118486 0.023504
v 0.887533 0.112036 0.043341
v 0.893414 0.115490 0.022526
v 0.889314 0.107096 0.043634
v 0.895653 0.110209 0.022741
v 0.889937 0.101820 0.043259
v 0.896221 0.104767 0.022637
v 0.889636 0.095886 0.042604
v 0.896079 0.098984 0.022337
v 0.889060 0.090056 0.041831
v 0.895190 0.092428 0.022268
v 0.890004 0.081511 0.042075
v 0.876358 0.091253 0.059238
v 0.877100 0.082574 0.060716
v 0.873059 0.069851 0.059276
v 0.859165 0.084656 0.074869
v 0.855914 0.071454 0.070003
v 0.854057 0.055706 0.067861
v 0.839274 0.071353 0.075522
v 0.838601 0.054935 0.073553
v 0.838794 0.043672 0.073269
v 0.822799 0.054361 0.072302
v 0.822801 0.043122 0.071928
v 0.822975 0.034046 0.072559
v 0.809773 0.042476 0.064831
v 0.808755 0.033608 0.066685
v 0.809331 0.026511 0.065308
v 0.795233 0.034177 0.053834
v 0.796197 0.027554 0.052838
v 0.798805 0.022492 0.050409
v 0.785770 0.028333 0.035635
v 0.788994 0.022965 0.034544
v 0.793754 0.019915 0.032889
v 0.784925 0.023921 0.014794
v 0.789093 0.020106 0.014838
v 0.794583 0.019358 0.014744
v 0.788301 0.021065 -0.005368
v 0.793775 0.019667 -0.004664
v 0.789923 0.021819 -0.024200
v 0.794572 0.020683 -0.022817
v 0.794938 0.020722 -0.041045
v 0.799680 0.019123 -0.038832
v 0.804197 0.019949 -0.055938
v 0.808743 0.018532 -0.052140
v 0.812803 0.020159 -0.048458
v 0.820403 0.017514 -0.060756
v 0.823320 0.019630 -0.055249
v 0.825268 0.024331 -0.051702
v 0.833006 0.019777 -0.058094
v 0.833807 0.024232 -0.053839
v 0.834001 0.030582 -0.052816
v 0.841732 0.024247 -0.053347
v 0.841649 0.030665 -0.052056
v 0.842016 0.037848 -0.051829
v 0.850613 0.031040 -0.049463
v 0.850982 0.038293 -0.049425
v 0.851578 0.047034 -0.049373
v 0.859341 0.039445 -0.042717
v 0.860235 0.048467 -0.042484
v 0.860500 0.058108 -0.043034
v 0.865985 0.050339 -0.031810
v 0.866878 0.060503 -0.032223
v 0.869888 0.070586 -0.034353
v 0.871710 0.063191 -0.015159
v 0.874956 0.074484 -0.016421
v 0.878195 0.084436 -0.017905
v 0.875841 0.076020 0.006401
v 0.879811 0.086073 0.005788
v 0.882261 0.093895 0.005016
v 0.877520 0.083476 0.024445
v 0.880872 0.091252 0.024614
v 0.883420 0.098366 0.023644
v 0.874093 0.089941 0.037577
v 0.875608 0.096537 0.039054
v 0.876940 0.102294 0.039766
v 0.866713 0.096692 0.049940
v 0.867700 0.102839 0.051565
v 0.868832 0.108408 0.052832
v 0.855872 0.104359 0.061086
v 0.870496 0.113824 0.054206
v 0.873691 0.115944 0.056964
v 0.876389 0.112822 0.059485
v 0.859156 0.110661 0.074092
v 0.877350 0.108112 0.060342
v 0.859163 0.105275 0.074369
v 0.877216 0.102809 0.059968
v 0.858937 0.099814 0.073947
v 0.876851 0.097176 0.059498
v 0.858770 0.093849 0.073357
v 0.840528 0.100235 0.079639
v 0.840479 0.093672 0.078672
v 0.840465 0.085108 0.079915
v 0.823452 0.092336 0.077907
v 0.822891 0.084470 0.079050
v 0.823037 0.070675 0.073985
v 0.806234 0.082994 0.072218
v 0.808878 0.069532 0.067489
v 0.809855 0.053614 0.065036
v 0.796350 0.068654 0.055265
v 0.797135 0.053381 0.053954
v 0.797183 0.042176 0.053017
v 0.786246 0.052993 0.034508
v 0.786327 0.042013 0.034230
v 0.784904 0.034452 0.035953
v 0.781928 0.035216 0.013909
v 0.782285 0.029264 0.014489
v 0.780780 0.036267 -0.007922
v 0.781778 0.030555 -0.006988
v 0.784442 0.025025 -0.006102
v 0.784041 0.030980 -0.026500
v 0.786005 0.025604 -0.025521
v 0.788597 0.030526 -0.044344
v 0.790892 0.025010 -0.043027
v 0.800748 0.024011 -0.058947
v 0.815111 0.022559 -0.070639
v 0.817510 0.018706 -0.066260
v 0.829735 0.021426 -0.075828
v 0.830929 0.018272 -0.070412
v 0.832059 0.017450 -0.064222
v 0.844329 0.017798 -0.069946
v 0.843424 0.017227 -0.063618
v 0.842364 0.019573 -0.057395
v 0.855013 0.017510 -0.058749
v 0.852343 0.019707 -0.053599
v 0.850479 0.024408 -0.049993
v 0.862328 0.020807 -0.044887
v 0.859465 0.025580 -0.042412
v 0.858998 0.032088 -0.042262
v 0.867108 0.027541 -0.030956
v 0.865863 0.033946 -0.030884
v 0.865819 0.041420 -0.031406
v 0.870387 0.035680 -0.014234
v 0.870315 0.043364 -0.014321
v 0.870478 0.052507 -0.014621
v 0.869386 0.043754 0.005834
v 0.869499 0.053322 0.006188
v 0.871132 0.064202 0.006505
v 0.867081 0.051982 0.021312
v 0.868526 0.063041 0.022064
v 0.873097 0.074167 0.023464
v 0.864725 0.061643 0.032076
v 0.868578 0.072917 0.034151
v 0.871833 0.082350 0.036099
v 0.860133 0.073009 0.041911
v 0.863584 0.082261 0.045119
v 0.865475 0.089847 0.047652
v 0.853599 0.081924 0.053208
v 0.854961 0.089979 0.055945
v 0.855972 0.097383 0.058492
v 0.842232 0.090522 0.060316
v 0.842791 0.098325 0.063073
v 0.843247 0.105387 0.065365
v 0.832585 0.098121 0.064673
v 0.833630 0.105237 0.067141
v 0.822599 0.097974 0.064195
v 0.823126 0.104946 0.066383
v 0.813345 0.098930 0.059454
v 0.812767 0.105671 0.061521
v 0.812236 0.112051 0.063271
v 0.802952 0.106510 0.054183
v 0.801132 0.112413 0.055560
v 0.798079 0.116932 0.057702
v 0.810445 0.116694 0.066107
v 0.794601 0.114129 0.060644
v 0.808290 0.114399 0.069453
v 0.793058 0.108808 0.061490
v 0.807281 0.109577 0.071081
v 0.823309 0.110384 0.078498
v 0.840836 0.110989 0.078806
v 0.807255 0.104031 0.070968
v 0.822973 0.105178 0.079438
v 0.840804 0.105784 0.079488
v 0.823152 0.099258 0.079019
v 0.807493 0.098199 0.070339
v 0.807546 0.091662 0.069972
v 0.793468 0.097185 0.059971
v 0.794078 0.091174 0.058885
v 0.792887 0.081561 0.058465
v 0.785837 0.090949 0.045502
v 0.783658 0.081456 0.043301
v 0.786104 0.067786 0.037826
v 0.779473 0.081863 0.031733
v 0.781055 0.091231 0.035606
v 0.779306 0.091160 0.028794
v 0.778789 0.082281 0.026039
v 0.778510 0.091309 0.023694
v 0.778616 0.083242 0.021073
v 0.780135 0.071333 0.014197
v 0.779329 0.084078 0.016819
v 0.781105 0.061525 0.000448
v 0.778204 0.091620 0.018904
v 0.778802 0.091923 0.014299
v 0.777241 0.097983 0.019652
v 0.777288 0.098266 0.014659
v 0.776273 0.103657 0.020815
v 0.776595 0.104123 0.015563
v 0.776189 0.108570 0.027430
v 0.776927 0.103398 0.026014
v 0.777752 0.097774 0.024841
v 0.778269 0.103069 0.031684
v 0.778770 0.097511 0.030185
v 0.780428 0.107893 0.040240
v 0.778224 0.108121 0.033058
v 0.780428 0.102463 0.038990
v 0.780685 0.096865 0.037496
v 0.784656 0.102516 0.048415
v 0.785256 0.096674 0.047171
v 0.784890 0.108066 0.049228
v 0.792915 0.103361 0.061091
v 0.785875 0.113504 0.049545
v 0.781396 0.113245 0.040823
v 0.789557 0.116418 0.047941
v 0.785103 0.116120 0.039942
v 0.779268 0.112947 0.033887
v 0.776793 0.113308 0.028582
v 0.793043 0.112821 0.046341
v 0.822522 0.090158 0.061234
v 0.831555 0.082006 0.058334
v 0.831910 0.090368 0.061663
v 0.840654 0.072154 0.052823
v 0.841615 0.082230 0.057086
v 0.851357 0.072111 0.049795
v 0.848155 0.060828 0.045568
v 0.856381 0.061447 0.039308
v 0.854226 0.050279 0.038358
v 0.862989 0.050871 0.031410
v 0.862523 0.041388 0.031220
v 0.866852 0.042630 0.020536
v 0.866769 0.034687 0.019733
v 0.869412 0.035817 0.005341
v 0.870595 0.028799 0.004946
v 0.871060 0.028995 -0.014181
v 0.874592 0.023161 -0.014445
v 0.870341 0.022314 -0.031820
v 0.875377 0.019524 -0.033772
v 0.866353 0.018204 -0.048463
v 0.870614 0.019188 -0.052417
v 0.857959 0.018156 -0.064113
v 0.860638 0.021141 -0.068929
v 0.845264 0.020769 -0.075621
v 0.845776 0.025719 -0.079454
v 0.783236 0.036516 -0.027192
v 0.787710 0.037476 -0.044746
v 0.783373 0.042284 -0.027741
v 0.789103 0.043187 -0.043728
v 0.783201 0.048314 -0.028987
v 0.860267 0.102022 -0.083289
v 0.858127 0.107562 -0.082971
v 0.827542 0.092666 -0.071700
v 0.812837 0.088111 -0.061551
v 0.815111 0.084988 -0.060820
v 0.801583 0.085217 -0.045730
v 0.804803 0.081416 -0.046111
v 0.807756 0.077075 -0.046360
v 0.798622 0.074074 -0.031355
v 0.801020 0.070893 -0.032269
v 0.803280 0.066591 -0.033193
v 0.798797 0.066646 -0.017732
v 0.800447 0.062718 -0.018185
v 0.802109 0.058452 -0.018469
v 0.799733 0.063467 -0.002523
v 0.801461 0.059080 -0.002062
v 0.798313 0.070190 0.011919
v 0.800299 0.066135 0.013492
v 0.795220 0.080613 0.020594
v 0.797412 0.078059 0.023993
v 0.793700 0.087998 0.028165
v 0.796186 0.073994 0.010069
v 0.793939 0.076949 0.008164
v 0.798147 0.067085 -0.002890
v 0.796160 0.071028 -0.003842
v 0.793732 0.074209 -0.004517
v 0.796600 0.070142 -0.017230
v 0.794064 0.073471 -0.016837
v 0.795806 0.077323 -0.030263
vt 0.379457 0.218695
vt 0.380085 0.226150
vt 0.377924 0.227949
vt 0.377110 0.218069
vt 0.375115 0.217898
vt 0.375258 0.226948
vt 0.367262 0.460816
vt 0.374323 0.467835
vt 0.372271 0.468710
vt 0.364673 0.462552
vt 0.385252 0.232078
vt 0.383524 0.226624
vt 0.434277 0.230202
vt 0.437377 0.237043
vt 0.429461 0.238401
vt 0.428876 0.230451
vt 0.318907 0.449446
vt 0.324478 0.450255
vt 0.319397 0.458741
vt 0.313073 0.458607
vt 0.423848 0.231070
vt 0.424792 0.236516
vt 0.419809 0.237540
vt 0.421855 0.241207
vt 0.428091 0.248302
vt 0.431601 0.247647
vt 0.417478 0.231161
vt 0.946265 0.360585
vt 0.948854 0.354731
vt 0.951686 0.355450
vt 0.948577 0.360813
vt 0.950086 0.350799
vt 0.952956 0.353305
vt 0.379259 0.127902
vt 0.377291 0.129113
vt 0.374566 0.123117
vt 0.373165 0.120999
vt 0.958206 0.361899
vt 0.956196 0.361694
vt 0.956467 0.354370
vt 0.956015 0.346280
vt 0.952984 0.345386
vt 0.950071 0.344895
vt 0.290193 0.417752
vt 0.286771 0.418454
vt 0.281559 0.407653
vt 0.287909 0.407431
vt 0.283457 0.399446
vt 0.277152 0.399760
vt 0.365286 0.414006
vt 0.366483 0.406733
vt 0.371749 0.403694
vt 0.368015 0.414426
vt 0.367759 0.400429
vt 0.372363 0.399122
vt 0.336091 0.437164
vt 0.336372 0.428920
vt 0.342827 0.431223
vt 0.340409 0.437750
vt 0.343756 0.445380
vt 0.347655 0.443076
vt 0.350305 0.441792
vt 0.345143 0.428765
vt 0.353178 0.439791
vt 0.349464 0.428329
vt 0.340630 0.418529
vt 0.343433 0.418289
vt 0.346492 0.418786
vt 0.342247 0.397026
vt 0.337854 0.407316
vt 0.333783 0.403851
vt 0.340702 0.394971
vt 0.327974 0.416137
vt 0.325881 0.404087
vt 0.332658 0.417158
vt 0.336348 0.417873
vt 0.359457 0.394888
vt 0.363281 0.392437
vt 0.362974 0.393438
vt 0.360702 0.395466
vt 0.362428 0.395816
vt 0.364488 0.393484
vt 0.359073 0.393616
vt 0.361439 0.391558
vt 0.363023 0.388984
vt 0.364789 0.389681
vt 0.368538 0.387082
vt 0.366900 0.390947
vt 0.365547 0.390008
vt 0.365027 0.386432
vt 0.949530 0.308008
vt 0.949427 0.305253
vt 0.951990 0.303684
vt 0.951769 0.306226
vt 0.361318 0.386144
vt 0.363311 0.384681
vt 0.363536 0.385932
vt 0.361996 0.387778
vt 0.339426 0.446600
vt 0.332692 0.437645
vt 0.335213 0.448264
vt 0.347509 0.456875
vt 0.343761 0.458224
vt 0.338955 0.458863
vt 0.330292 0.449620
vt 0.333726 0.459451
vt 0.406649 0.237879
vt 0.412055 0.236706
vt 0.415538 0.243377
vt 0.411829 0.245455
vt 0.402692 0.231768
vt 0.410024 0.230794
vt 0.401115 0.225098
vt 0.408319 0.223963
vt 0.415964 0.223773
vt 0.422399 0.223485
vt 0.406761 0.215877
vt 0.414844 0.215587
vt 0.421082 0.215278
vt 0.427784 0.223158
vt 0.426495 0.214774
vt 0.414030 0.205925
vt 0.420308 0.205183
vt 0.425158 0.204924
vt 0.430531 0.213929
vt 0.429008 0.204348
vt 0.419644 0.193591
vt 0.423976 0.193355
vt 0.427601 0.193070
vt 0.432337 0.203648
vt 0.431091 0.192965
vt 0.423665 0.180521
vt 0.427145 0.180543
vt 0.430802 0.180918
vt 0.434395 0.192463
vt 0.434250 0.181392
vt 0.428573 0.168879
vt 0.431939 0.169313
vt 0.435205 0.169921
vt 0.437290 0.181537
vt 0.438508 0.170398
vt 0.433331 0.160338
vt 0.436645 0.160735
vt 0.439635 0.161774
vt 0.091877 0.078391
vt 0.088648 0.078842
vt 0.088128 0.070216
vt 0.091129 0.070158
vt 0.438504 0.151861
vt 0.441590 0.152622
vt 0.090732 0.062580
vt 0.087637 0.062030
vt 0.094448 0.069962
vt 0.093619 0.062489
vt 0.086443 0.055322
vt 0.089480 0.055931
vt 0.092406 0.056172
vt 0.097070 0.062406
vt 0.095872 0.056053
vt 0.088340 0.050438
vt 0.091327 0.051085
vt 0.094541 0.051074
vt 0.099750 0.055809
vt 0.098597 0.050834
vt 0.090250 0.046705
vt 0.093231 0.046747
vt 0.097221 0.046668
vt 0.103566 0.050404
vt 0.102146 0.046116
vt 0.092404 0.043256
vt 0.096125 0.042886
vt 0.100651 0.042399
vt 0.107499 0.044882
vt 0.106471 0.041053
vt 0.094104 0.038616
vt 0.098521 0.038455
vt 0.104337 0.037593
vt 0.111229 0.038153
vt 0.109098 0.034366
vt 0.279917 0.394829
vt 0.273472 0.395286
vt 0.271095 0.391679
vt 0.276516 0.390754
vt 0.928168 0.341339
vt 0.928607 0.345478
vt 0.922159 0.346397
vt 0.920983 0.343292
vt 0.934398 0.344150
vt 0.934152 0.339449
vt 0.376590 0.403303
vt 0.377105 0.398525
vt 0.381515 0.397198
vt 0.382101 0.403874
vt 0.378797 0.394485
vt 0.381429 0.392432
vt 0.938919 0.338463
vt 0.933813 0.334230
vt 0.938614 0.332842
vt 0.373750 0.395829
vt 0.374100 0.393750
vt 0.378546 0.391085
vt 0.942725 0.331836
vt 0.938440 0.326814
vt 0.942320 0.325604
vt 0.369067 0.396847
vt 0.370488 0.394772
vt 0.371806 0.393029
vt 0.374615 0.390770
vt 0.945437 0.324539
vt 0.942125 0.320650
vt 0.944970 0.319598
vt 0.368007 0.395287
vt 0.369367 0.393502
vt 0.370908 0.391776
vt 0.372874 0.391413
vt 0.948001 0.318762
vt 0.945001 0.315877
vt 0.947978 0.315504
vt 0.367750 0.393354
vt 0.369537 0.391236
vt 0.370576 0.388975
vt 0.372939 0.389447
vt 0.950268 0.313982
vt 0.947497 0.311885
vt 0.950035 0.310839
vt 0.367808 0.391435
vt 0.369657 0.387630
vt 0.947267 0.309186
vt 0.947034 0.306460
vt 0.365608 0.394057
vt 0.366126 0.395383
vt 0.363886 0.396054
vt 0.363835 0.398158
vt 0.362185 0.398135
vt 0.360699 0.397807
vt 0.360790 0.401032
vt 0.358830 0.400808
vt 0.357018 0.400436
vt 0.359015 0.397504
vt 0.357772 0.396787
vt 0.355272 0.399938
vt 0.356542 0.395905
vt 0.353913 0.398954
vt 0.355009 0.404791
vt 0.353105 0.404597
vt 0.351317 0.403825
vt 0.352348 0.397725
vt 0.349133 0.402625
vt 0.351402 0.411328
vt 0.348863 0.410690
vt 0.346352 0.410157
vt 0.346946 0.401202
vt 0.343503 0.409437
vt 0.348952 0.418530
vt 0.351488 0.418842
vt 0.353955 0.427273
vt 0.351806 0.427702
vt 0.357879 0.438627
vt 0.355568 0.439938
vt 0.362772 0.450844
vt 0.360359 0.453063
vt 0.357144 0.454408
vt 0.354148 0.455039
vt 0.360213 0.465084
vt 0.357488 0.466586
vt 0.350783 0.455979
vt 0.354301 0.467961
vt 0.389193 0.232332
vt 0.388141 0.238998
vt 0.384264 0.238823
vt 0.393826 0.232721
vt 0.389968 0.239587
vt 0.351251 0.468804
vt 0.356266 0.476760
vt 0.354175 0.476843
vt 0.387668 0.226696
vt 0.391655 0.226172
vt 0.395786 0.225534
vt 0.397691 0.232186
vt 0.390294 0.218105
vt 0.394414 0.217365
vt 0.399555 0.216743
vt 0.393854 0.206768
vt 0.398528 0.206487
vt 0.405976 0.206092
vt 0.398963 0.193809
vt 0.406150 0.193574
vt 0.413717 0.193647
vt 0.406743 0.180199
vt 0.414126 0.179994
vt 0.419597 0.180288
vt 0.415200 0.167448
vt 0.420783 0.167782
vt 0.424942 0.168273
vt 0.421913 0.159241
vt 0.426471 0.159635
vt 0.430059 0.160029
vt 0.427696 0.150419
vt 0.431548 0.150690
vt 0.435331 0.150943
vt 0.433792 0.140641
vt 0.437335 0.141404
vt 0.440783 0.142930
vt 0.443665 0.144546
vt 0.440266 0.133763
vt 0.443902 0.135383
vt 0.446135 0.137897
vt 0.085604 0.049300
vt 0.285969 0.366835
vt 0.283528 0.370454
vt 0.278967 0.366053
vt 0.279407 0.363087
vt 0.087609 0.045830
vt 0.084321 0.045158
vt 0.082836 0.041147
vt 0.085669 0.042114
vt 0.089418 0.042695
vt 0.289370 0.384229
vt 0.286972 0.386703
vt 0.283773 0.384020
vt 0.285039 0.382208
vt 0.091261 0.039653
vt 0.087689 0.038579
vt 0.291171 0.391414
vt 0.288138 0.392966
vt 0.284735 0.388640
vt 0.284519 0.393953
vt 0.280959 0.389873
vt 0.291687 0.398461
vt 0.288054 0.399226
vt 0.295377 0.406165
vt 0.291738 0.406971
vt 0.297143 0.417042
vt 0.293573 0.417421
vt 0.298521 0.427661
vt 0.295102 0.427919
vt 0.291703 0.428180
vt 0.288283 0.428515
vt 0.294357 0.437458
vt 0.290441 0.437750
vt 0.286693 0.437956
vt 0.364288 0.421288
vt 0.366619 0.421887
vt 0.369771 0.429244
vt 0.367011 0.428372
vt 0.288812 0.444539
vt 0.284606 0.445277
vt 0.370000 0.435400
vt 0.373084 0.435507
vt 0.365121 0.428863
vt 0.367987 0.436038
vt 0.376070 0.440272
vt 0.373919 0.441698
vt 0.371429 0.443459
vt 0.366065 0.436659
vt 0.369764 0.444546
vt 0.376590 0.446437
vt 0.375880 0.450026
vt 0.374803 0.452120
vt 0.368136 0.446685
vt 0.373768 0.454401
vt 0.117210 0.118547
vt 0.121134 0.120466
vt 0.117578 0.125473
vt 0.114060 0.123443
vt 0.124342 0.122532
vt 0.120151 0.127481
vt 0.122746 0.129456
vt 0.127530 0.124543
vt 0.124234 0.115071
vt 0.127907 0.117005
vt 0.131483 0.119107
vt 0.130496 0.126675
vt 0.134745 0.121052
vt 0.130902 0.111171
vt 0.134662 0.112901
vt 0.138219 0.114381
vt 0.137785 0.122994
vt 0.141589 0.115723
vt 0.137550 0.103811
vt 0.141126 0.104607
vt 0.144391 0.105799
vt 0.144755 0.116715
vt 0.147711 0.106551
vt 0.143921 0.090711
vt 0.147148 0.090976
vt 0.149332 0.091774
vt 0.374035 0.168838
vt 0.376285 0.169357
vt 0.376290 0.182226
vt 0.374454 0.181067
vt 0.379527 0.170233
vt 0.379416 0.181785
vt 0.379619 0.196040
vt 0.376706 0.197013
vt 0.382359 0.208040
vt 0.378954 0.208467
vt 0.382979 0.195251
vt 0.376289 0.208722
vt 0.382871 0.181440
vt 0.382789 0.170158
vt 0.386043 0.170321
vt 0.386174 0.181058
vt 0.386500 0.194611
vt 0.389776 0.207268
vt 0.385961 0.207763
vt 0.390085 0.194099
vt 0.389737 0.180728
vt 0.389513 0.170427
vt 0.393441 0.170581
vt 0.393518 0.180449
vt 0.393943 0.193715
vt 0.399074 0.180130
vt 0.399342 0.169041
vt 0.407899 0.167765
vt 0.400770 0.158617
vt 0.408904 0.158868
vt 0.416017 0.158965
vt 0.409447 0.149242
vt 0.416986 0.149628
vt 0.422934 0.150142
vt 0.418369 0.138445
vt 0.424696 0.139097
vt 0.429526 0.139592
vt 0.427039 0.129242
vt 0.432236 0.130581
vt 0.436523 0.131827
vt 0.435927 0.123008
vt 0.440248 0.125236
vt 0.443813 0.128197
vt 0.446110 0.130188
vt 0.297642 0.366109
vt 0.293950 0.368829
vt 0.287253 0.362857
vt 0.292745 0.359177
vt 0.290618 0.372263
vt 0.287848 0.375573
vt 0.298600 0.375594
vt 0.295174 0.378225
vt 0.291655 0.381176
vt 0.082942 0.035233
vt 0.086126 0.036557
vt 0.300619 0.385600
vt 0.297142 0.387642
vt 0.293907 0.389702
vt 0.301835 0.395485
vt 0.298279 0.396765
vt 0.295000 0.397672
vt 0.302246 0.405486
vt 0.298828 0.405933
vt 0.304375 0.416863
vt 0.300656 0.417031
vt 0.305508 0.427644
vt 0.302085 0.427739
vt 0.304906 0.437383
vt 0.301430 0.437276
vt 0.297886 0.437210
vt 0.299735 0.445035
vt 0.296146 0.445012
vt 0.292878 0.444624
vt 0.293791 0.449855
vt 0.290612 0.449469
vt 0.286985 0.449374
vt 0.282921 0.449790
vt 0.288715 0.453258
vt 0.285425 0.453108
vt 0.281890 0.453340
vt 0.379117 0.444329
vt 0.102873 0.115510
vt 0.107670 0.115749
vt 0.106235 0.120292
vt 0.101665 0.119889
vt 0.112598 0.116651
vt 0.111028 0.121462
vt 0.109254 0.110686
vt 0.114593 0.111546
vt 0.119737 0.113117
vt 0.116536 0.106072
vt 0.122028 0.107473
vt 0.126702 0.109351
vt 0.124612 0.100086
vt 0.129519 0.101557
vt 0.133892 0.102906
vt 0.132109 0.089608
vt 0.136439 0.089993
vt 0.140510 0.090423
vt 0.137309 0.077017
vt 0.141157 0.077461
vt 0.144560 0.077728
vt 0.138988 0.066483
vt 0.142307 0.066325
vt 0.145395 0.065897
vt 0.147888 0.078034
vt 0.139848 0.056973
vt 0.143103 0.056567
vt 0.381634 0.147233
vt 0.379332 0.157149
vt 0.376851 0.156212
vt 0.379148 0.146821
vt 0.384204 0.147167
vt 0.382101 0.158130
vt 0.387382 0.147325
vt 0.385445 0.158364
vt 0.390553 0.147559
vt 0.388548 0.158558
vt 0.394025 0.147935
vt 0.391782 0.158803
vt 0.397341 0.148372
vt 0.395439 0.158904
vt 0.402177 0.148794
vt 0.397670 0.137417
vt 0.402745 0.137386
vt 0.410419 0.137560
vt 0.403441 0.125815
vt 0.411481 0.127374
vt 0.420182 0.128484
vt 0.414509 0.119052
vt 0.423483 0.120843
vt 0.429687 0.121961
vt 0.316168 0.359556
vt 0.309891 0.362056
vt 0.304463 0.354216
vt 0.311268 0.351709
vt 0.303431 0.363722
vt 0.297734 0.356726
vt 0.313418 0.369737
vt 0.307692 0.371514
vt 0.302864 0.373128
vt 0.312532 0.380858
vt 0.308184 0.382267
vt 0.304261 0.383763
vt 0.312988 0.392634
vt 0.309116 0.393706
vt 0.305354 0.394552
vt 0.313152 0.404575
vt 0.309452 0.404927
vt 0.305820 0.405227
vt 0.311787 0.416654
vt 0.308018 0.416760
vt 0.312476 0.427798
vt 0.309141 0.427667
vt 0.311874 0.438241
vt 0.308262 0.438015
vt 0.310128 0.448399
vt 0.306440 0.447228
vt 0.303113 0.446091
vt 0.301817 0.454121
vt 0.299339 0.452275
vt 0.296937 0.450613
vt 0.295273 0.456143
vt 0.293982 0.454012
vt 0.291628 0.453216
vt 0.091827 0.116540
vt 0.094998 0.116064
vt 0.094100 0.119992
vt 0.091620 0.120260
vt 0.098446 0.115650
vt 0.097517 0.119905
vt 0.096143 0.111168
vt 0.099737 0.110812
vt 0.104217 0.110509
vt 0.100940 0.105246
vt 0.105718 0.104789
vt 0.111114 0.104819
vt 0.107349 0.098086
vt 0.112965 0.097928
vt 0.118881 0.098629
vt 0.114527 0.088205
vt 0.121137 0.088424
vt 0.127140 0.089022
vt 0.121516 0.076026
vt 0.127637 0.076142
vt 0.132571 0.076431
vt 0.125747 0.066297
vt 0.130761 0.066174
vt 0.135214 0.066486
vt 0.128796 0.058821
vt 0.132865 0.057869
vt 0.136440 0.057362
vt 0.131490 0.050903
vt 0.135186 0.049895
vt 0.138586 0.049158
vt 0.134121 0.042273
vt 0.137542 0.041050
vt 0.140138 0.040098
vt 0.141959 0.048365
vt 0.381537 0.137602
vt 0.378825 0.138156
vt 0.382371 0.126499
vt 0.384342 0.137230
vt 0.385992 0.125837
vt 0.387392 0.137062
vt 0.389583 0.125733
vt 0.390713 0.137115
vt 0.393213 0.125752
vt 0.394174 0.137280
vt 0.397016 0.125884
vt 0.966785 0.355514
vt 0.970494 0.355210
vt 0.972501 0.364758
vt 0.968603 0.364486
vt 0.975566 0.354977
vt 0.978003 0.364618
vt 0.970365 0.345687
vt 0.974823 0.344812
vt 0.324973 0.355383
vt 0.320370 0.347193
vt 0.325097 0.342113
vt 0.331065 0.349760
vt 0.406983 0.117079
vt 0.335780 0.359277
vt 0.328834 0.363688
vt 0.320129 0.367522
vt 0.332819 0.373621
vt 0.324813 0.377235
vt 0.318067 0.378967
vt 0.328825 0.389677
vt 0.322295 0.391556
vt 0.317003 0.391825
vt 0.321152 0.404093
vt 0.317159 0.404369
vt 0.323858 0.416629
vt 0.319810 0.416598
vt 0.315552 0.416664
vt 0.320256 0.427844
vt 0.316241 0.427951
vt 0.320434 0.438562
vt 0.316045 0.438674
vt 0.313869 0.449638
vt 0.308815 0.457709
vt 0.305028 0.456280
vt 0.438497 0.228720
vt 0.441393 0.226209
vt 0.444980 0.231793
vt 0.442188 0.235080
vt 0.444070 0.223462
vt 0.446305 0.229352
vt 0.296936 0.458424
vt 0.439213 0.219520
vt 0.442204 0.217476
vt 0.088496 0.118220
vt 0.088830 0.122409
vt 0.086233 0.124121
vt 0.085169 0.119654
vt 0.086207 0.113685
vt 0.089620 0.113014
vt 0.093169 0.111538
vt 0.090811 0.106636
vt 0.093870 0.105721
vt 0.097142 0.105188
vt 0.095068 0.098331
vt 0.098483 0.098124
vt 0.102523 0.098088
vt 0.099351 0.088591
vt 0.103535 0.088300
vt 0.108534 0.088257
vt 0.103098 0.076939
vt 0.108291 0.076439
vt 0.114240 0.076137
vt 0.107220 0.067870
vt 0.113210 0.067259
vt 0.119680 0.066853
vt 0.112069 0.061224
vt 0.118586 0.060507
vt 0.124053 0.059724
vt 0.117387 0.054297
vt 0.122916 0.053209
vt 0.127288 0.052137
vt 0.121323 0.046572
vt 0.125834 0.045135
vt 0.130062 0.044087
vt 0.937799 0.353542
vt 0.941798 0.353995
vt 0.939621 0.359965
vt 0.936093 0.359167
vt 0.945374 0.354449
vt 0.943278 0.360073
vt 0.942759 0.349066
vt 0.946678 0.349927
vt 0.943163 0.343845
vt 0.946764 0.344218
vt 0.943179 0.337999
vt 0.946826 0.337899
vt 0.950295 0.337839
vt 0.946136 0.331039
vt 0.949401 0.330221
vt 0.952345 0.329430
vt 0.953435 0.337574
vt 0.955032 0.328505
vt 0.956000 0.337298
vt 0.958368 0.327927
vt 0.959092 0.337066
vt 0.959533 0.346405
vt 0.959996 0.354674
vt 0.962357 0.336949
vt 0.962749 0.346265
vt 0.963322 0.355441
vt 0.961895 0.363291
vt 0.965120 0.363960
vt 0.966363 0.346246
vt 0.965747 0.336375
vt 0.969507 0.335891
vt 0.965442 0.326504
vt 0.968914 0.325833
vt 0.973906 0.324523
vt 0.974558 0.335457
vt 0.968024 0.317106
vt 0.973234 0.315043
vt 0.337261 0.385765
vt 0.339625 0.370926
vt 0.344268 0.380009
vt 0.346819 0.387179
vt 0.348606 0.377751
vt 0.351031 0.383471
vt 0.352007 0.387214
vt 0.348241 0.390525
vt 0.353215 0.389851
vt 0.349828 0.393102
vt 0.344729 0.399264
vt 0.351175 0.395415
vt 0.340654 0.408798
vt 0.354210 0.392144
vt 0.355205 0.394278
vt 0.356933 0.390275
vt 0.358080 0.392082
vt 0.359148 0.388143
vt 0.360097 0.390099
vt 0.360576 0.384443
vt 0.358387 0.386158
vt 0.355850 0.387923
vt 0.357602 0.383940
vt 0.355034 0.385333
vt 0.956638 0.314937
vt 0.955775 0.311017
vt 0.958950 0.309743
vt 0.959982 0.313736
vt 0.359669 0.382467
vt 0.963458 0.312518
vt 0.962274 0.308611
vt 0.960918 0.319165
vt 0.964607 0.318263
vt 0.353638 0.382106
vt 0.966708 0.311343
vt 0.957423 0.320051
vt 0.961683 0.327395
vt 0.954181 0.321156
vt 0.953134 0.316073
vt 0.951203 0.322276
vt 0.950598 0.317538
vt 0.952866 0.312291
vt 0.952297 0.309178
vt 0.954872 0.308050
vt 0.362522 0.383043
vt 0.948376 0.323447
vt 0.938978 0.343872
vt 0.934122 0.348615
vt 0.938509 0.349011
vt 0.113631 0.042652
vt 0.116016 0.035566
vt 0.118873 0.040309
vt 0.928859 0.349304
vt 0.123179 0.038371
vt 0.120473 0.033545
vt 0.115810 0.048140
vt 0.109289 0.049590
vt 0.110801 0.055139
vt 0.104803 0.055704
vt 0.106205 0.061783
vt 0.101159 0.062136
vt 0.102217 0.068585
vt 0.097986 0.069268
vt 0.098905 0.077511
vt 0.095266 0.078014
vt 0.095889 0.088769
vt 0.092417 0.089065
vt 0.091884 0.098632
vt 0.088920 0.099042
vt 0.089406 0.089374
vt 0.087970 0.107641
vt 0.435731 0.203017
vt 0.437440 0.192397
vt 0.438532 0.202066
vt 0.440226 0.210687
vt 0.437228 0.212002
vt 0.434125 0.213147
vt 0.435922 0.221228
vt 0.432725 0.222662
vt 0.324168 0.427893
vt 0.325109 0.438534
vt 0.328133 0.427912
vt 0.328994 0.438326
vt 0.332198 0.428192
vt 0.386559 0.218652
vt 0.382935 0.219198
vt 0.373230 0.209578
vt 0.369867 0.458926
vt 0.375515 0.465726
vt 0.372256 0.457134
vt 0.376672 0.463325
vt 0.132751 0.128785
vt 0.364720 0.449493
vt 0.366512 0.448282
vt 0.360224 0.438075
vt 0.361885 0.437202
vt 0.363984 0.436983
vt 0.358168 0.427377
vt 0.360149 0.427761
vt 0.362701 0.428353
vt 0.357896 0.419729
vt 0.359945 0.420209
vt 0.362092 0.420818
vt 0.360034 0.412660
vt 0.362578 0.413080
vt 0.361455 0.406036
vt 0.364005 0.406338
vt 0.362919 0.401200
vt 0.365179 0.400766
vt 0.366369 0.397414
vt 0.358859 0.405243
vt 0.356972 0.404970
vt 0.358017 0.412240
vt 0.355571 0.411902
vt 0.353475 0.411520
vt 0.355855 0.419398
vt 0.353566 0.419044
vt 0.356075 0.427336
vt 0.348292 0.468480
vt 0.402434 0.238949
vt 0.379581 0.237678
vn -0.0156 0.9091 -0.4164
vn -0.3082 0.9243 -0.2251
vn -0.3912 0.8804 0.2681
vn -0.4289 0.7972 0.4249
vn -0.5048 0.4137 0.7576
vn -0.2402 0.5337 0.8108
vn 0.0340 0.7266 0.6862
vn -0.3679 0.9269 0.0736
vn -0.4344 0.5752 -0.6932
vn -0.0778 0.5532 -0.8294
vn -0.2217 -0.2532 -0.9417
vn -0.5131 -0.1554 -0.8441
vn -0.5395 0.0104 -0.8419
vn -0.2161 -0.0087 -0.9763
vn -0.7289 -0.1729 -0.6624
vn -0.7300 0.0602 -0.6808
vn -0.1854 -0.0316 -0.9822
vn -0.4470 -0.0716 -0.8916
vn -0.4332 -0.0619 -0.8992
vn -0.6292 -0.0326 -0.7765
vn -0.7501 0.0390 -0.6601
vn -0.1327 -0.0730 -0.9885
vn -0.4238 0.2894 -0.8583
vn -0.2647 0.3016 -0.9160
vn -0.2145 0.6215 -0.7534
vn -0.3091 0.6256 -0.7163
vn -0.0647 0.2874 -0.9556
vn -0.1213 0.8922 -0.4350
vn 0.0647 0.9979 -0.0091
vn 0.3447 0.6627 0.6648
vn 0.0511 0.7502 0.6592
vn -0.1559 0.7725 0.6156
vn 0.0572 0.8973 -0.4377
vn 0.2218 0.3110 -0.9241
vn 0.9985 0.0524 -0.0152
vn 0.9906 0.1341 -0.0265
vn 0.9379 0.2109 -0.2753
vn 0.9725 0.0586 -0.2256
vn 0.8662 0.0847 -0.4925
vn 0.8173 0.2478 -0.5202
vn 0.9688 0.2451 -0.0358
vn 0.9273 0.3199 -0.1945
vn 0.8503 0.4013 -0.3404
vn 0.8229 0.3798 -0.4226
vn -0.8609 -0.1204 -0.4943
vn -0.9610 -0.1348 -0.2416
vn -0.9196 -0.1397 -0.3672
vn -0.8223 -0.1381 -0.5520
vn -0.7675 -0.1989 -0.6094
vn -0.8073 -0.1565 -0.5689
vn -0.8935 0.2000 -0.4021
vn -0.9688 0.2258 -0.1023
vn -0.8286 0.5384 -0.1538
vn -0.7949 0.6001 0.0901
vn -0.9989 -0.0383 -0.0273
vn -0.9661 0.2573 0.0198
vn -0.7561 0.6524 0.0523
vn -0.9904 -0.1215 0.0655
vn -0.9989 -0.0437 0.0190
vn -0.9928 -0.0551 0.1061
vn -0.9649 -0.1745 0.1961
vn -0.9993 -0.0042 -0.0378
vn -0.9940 0.0199 0.1077
vn -0.9969 -0.0607 -0.0495
vn -0.9963 -0.0739 -0.0449
vn 0.2848 0.0828 -0.9550
vn 0.3448 0.3997 -0.8493
vn 0.4948 0.8438 -0.2078
vn 0.8892 0.1279 -0.4393
vn 0.9728 0.2027 -0.1120
vn 0.9896 0.1427 -0.0173
vn -0.5692 -0.0197 -0.8220
vn -0.4959 0.2076 -0.8432
vn -0.4226 0.4070 -0.8098
vn -0.1440 0.6489 -0.7471
vn 0.4078 0.8270 -0.3870
vn 0.9452 0.2936 -0.1428
vn 0.8569 0.3906 -0.3363
vn -0.3702 0.7853 -0.4963
vn -0.3210 0.9425 0.0930
vn -0.9155 0.3129 -0.2528
vn -0.9270 0.3495 0.1363
vn -0.9873 -0.1474 0.0597
vn -0.9326 0.0456 -0.3581
vn -0.7723 -0.0994 -0.6275
vn -0.8761 -0.0913 -0.4733
vn -0.7639 -0.0645 -0.6421
vn -0.6505 -0.2835 -0.7046
vn -0.6550 -0.1750 -0.7351
vn -0.6486 -0.0896 -0.7558
vn -0.4151 -0.2635 -0.8708
vn -0.4068 -0.1582 -0.8997
vn -0.1169 -0.2874 -0.9507
vn -0.1184 -0.2379 -0.9640
vn 0.2413 -0.2151 -0.9463
vn 0.2155 -0.2796 -0.9356
vn 0.1954 -0.0811 -0.9774
vn 0.1905 0.0016 -0.9817
vn 0.5404 -0.2681 -0.7975
vn 0.5297 -0.0802 -0.8444
vn 0.5277 0.0027 -0.8494
vn 0.1853 -0.0170 -0.9825
vn 0.5379 -0.0343 -0.8423
vn 0.7617 -0.0652 -0.6447
vn 0.7621 0.0155 -0.6473
vn 0.7669 -0.0365 -0.6407
vn 0.5368 -0.3416 -0.7715
vn 0.7412 -0.3366 -0.5808
vn 0.9150 0.0475 -0.4006
vn 0.9145 -0.0037 -0.4045
vn 0.8716 -0.3230 -0.3687
vn 0.6015 -0.6756 -0.4263
vn 0.6944 -0.6655 -0.2738
vn 0.9923 0.0256 -0.1215
vn 0.9511 -0.2832 -0.1232
vn 0.7441 -0.6591 -0.1087
vn 0.3978 -0.9089 -0.1250
vn 0.3896 -0.9190 -0.0608
vn 0.9652 -0.2398 0.1045
vn 0.7553 -0.6536 0.0487
vn 0.3589 -0.9334 -0.0024
vn -0.1275 -0.9917 0.0186
vn -0.1594 -0.9860 -0.0494
vn 0.7239 -0.6634 0.1893
vn 0.3288 -0.9422 0.0644
vn -0.1471 -0.9849 -0.0916
vn -0.6619 -0.7435 -0.0953
vn -0.6129 -0.7510 -0.2457
vn 0.2897 -0.9419 0.1697
vn -0.1098 -0.9891 -0.0981
vn -0.5231 -0.7633 -0.3790
vn -0.8913 -0.3296 -0.3113
vn -0.7697 -0.3296 -0.5467
vn -0.0401 -0.9963 -0.0762
vn -0.3844 -0.7798 -0.4942
vn -0.5738 -0.3827 -0.7241
vn -0.8123 -0.0090 -0.5832
vn -0.6072 -0.0567 -0.7926
vn -0.2257 -0.7901 -0.5699
vn -0.3680 -0.4208 -0.8292
vn -0.4337 -0.0805 -0.8974
vn -0.6070 0.0380 -0.7938
vn -0.4562 0.0457 -0.8887
vn -0.0969 -0.4178 -0.9033
vn -0.1427 -0.0782 -0.9867
vn -0.1614 0.0460 -0.9858
vn -0.4698 0.1192 -0.8747
vn -0.1788 0.1173 -0.9769
vn 0.1867 -0.0466 -0.9813
vn 0.1106 0.0661 -0.9917
vn 0.0643 0.1182 -0.9909
vn -0.1943 0.2726 -0.9423
vn 0.0291 0.2701 -0.9624
vn 0.5102 0.0734 -0.8569
vn 0.4550 0.1098 -0.8837
vn 0.4014 0.2619 -0.8777
vn -0.0070 0.3902 -0.9207
vn 0.3333 0.4008 -0.8534
vn 0.7665 0.0909 -0.6358
vn 0.6962 0.2451 -0.6747
vn 0.6023 0.3867 -0.6984
vn 0.2973 0.4035 -0.8653
vn 0.5623 0.3928 -0.7277
vn 0.7255 0.3893 -0.5675
vn 0.6798 0.3983 -0.6159
vn 0.5469 0.3510 -0.7600
vn 0.6693 0.3505 -0.6551
vn 0.7631 0.4071 -0.5020
vn 0.7519 0.3577 -0.5538
vn 0.6637 0.3236 -0.6743
vn 0.7551 0.3252 -0.5692
vn 0.8034 0.4218 -0.4203
vn 0.8133 0.3601 -0.4571
vn 0.8358 0.3012 -0.4590
vn 0.7630 0.3388 -0.5504
vn 0.8514 0.3007 -0.4298
vn 0.8763 0.3407 -0.3407
vn 0.9050 0.2622 -0.3350
vn 0.9181 0.2567 -0.3021
vn 0.7287 0.5992 -0.3316
vn 0.7301 0.6602 -0.1763
vn 0.9470 0.2222 -0.2320
vn 0.9560 0.2205 -0.1934
vn 0.7219 0.6900 -0.0515
vn -0.1793 0.9708 0.1594
vn -0.2595 0.9335 0.2477
vn 0.9706 0.2071 -0.1226
vn 0.6326 0.7738 -0.0327
vn 0.9725 0.1880 -0.1375
vn 0.9167 0.3142 -0.2469
vn 0.9463 0.2759 -0.1688
vn 0.8825 0.4034 -0.2418
vn 0.9008 0.3756 -0.2181
vn 0.9187 0.3089 -0.2461
vn 0.8695 0.4381 -0.2283
vn 0.8434 0.4530 -0.2888
vn 0.7015 0.4715 -0.5344
vn 0.8364 0.2169 -0.5034
vn 0.2977 0.0809 -0.9512
vn 0.1695 0.3908 -0.9047
vn -0.5608 -0.0941 -0.8226
vn -0.5471 0.1546 -0.8226
vn 0.6031 0.6917 -0.3972
vn -0.0234 0.7511 -0.6598
vn -0.5644 0.5132 -0.6466
vn -0.9049 0.0079 -0.4256
vn -0.8609 0.2797 -0.4251
vn -0.1655 0.9484 -0.2703
vn -0.6086 0.7442 -0.2752
vn -0.8431 0.5026 -0.1913
vn -0.9790 0.0631 -0.1940
vn -0.9777 0.1952 -0.0774
vn -0.6321 0.7735 0.0463
vn -0.1705 0.9772 0.1265
vn -0.0437 0.9082 0.4163
vn -0.6471 0.7281 0.2260
vn 0.1060 0.9113 0.3979
vn -0.5278 0.8450 0.0854
vn 0.1427 0.8933 0.4262
vn -0.3726 0.9221 -0.1045
vn -0.6824 0.5234 -0.5102
vn -0.7450 0.1494 -0.6501
vn -0.6130 0.5208 -0.5942
vn -0.5433 0.0998 -0.8336
vn -0.6992 -0.1787 -0.6923
vn -0.4649 -0.1044 -0.8792
vn -0.2464 0.0325 -0.9686
vn -0.1501 -0.0477 -0.9875
vn -0.4324 -0.2303 -0.8717
vn -0.1234 -0.0896 -0.9883
vn 0.1328 0.0533 -0.9897
vn 0.1896 -0.0690 -0.9794
vn 0.2320 -0.0361 -0.9721
vn 0.5195 -0.0976 -0.8489
vn 0.5417 -0.0208 -0.8403
vn 0.5548 -0.1419 -0.8198
vn 0.7787 -0.0042 -0.6274
vn 0.7784 -0.0964 -0.6203
vn 0.7561 -0.2285 -0.6132
vn 0.9217 -0.0745 -0.3807
vn 0.9075 -0.1888 -0.3752
vn 0.9192 -0.0464 -0.3912
vn 0.9795 -0.1634 -0.1180
vn 0.9924 -0.0275 -0.1200
vn 0.9906 0.0645 -0.1204
vn 0.9906 -0.0349 0.1323
vn 0.9870 0.0575 0.1503
vn 0.9893 0.0445 0.1389
vn 0.9594 0.0392 0.2792
vn 0.9568 0.0589 0.2847
vn 0.9384 -0.2206 0.2660
vn 0.8801 0.0458 0.4726
vn 0.8430 -0.2501 0.4763
vn 0.6182 -0.6951 0.3670
vn 0.6433 -0.2912 0.7080
vn 0.4634 -0.7097 0.5306
vn 0.2458 -0.9261 0.2861
vn 0.3126 -0.7225 0.6167
vn 0.2010 -0.9211 0.3334
vn 0.0111 -0.9963 -0.0852
vn 0.0982 -0.9334 0.3453
vn 0.0400 -0.9921 -0.1185
vn -0.0404 -0.7970 -0.6026
vn 0.0270 -0.9901 -0.1377
vn 0.1592 -0.8050 -0.5715
vn 0.2297 -0.3979 -0.8882
vn 0.2944 -0.8216 -0.4883
vn 0.4895 -0.3903 -0.7797
vn 0.5275 -0.0224 -0.8493
vn 0.6524 -0.4242 -0.6280
vn 0.7516 -0.0807 -0.6546
vn 0.7783 0.0348 -0.6269
vn 0.8710 -0.1464 -0.4689
vn 0.8797 0.0059 -0.4755
vn 0.9690 -0.1500 -0.1961
vn 0.9762 0.0091 -0.2165
vn 0.9909 -0.1337 -0.0122
vn 0.9998 0.0145 -0.0122
vn 0.9788 -0.1535 0.1358
vn 0.9886 -0.0115 0.1503
vn 0.9864 0.0526 0.1555
vn 0.9801 0.1245 0.1543
vn 0.8777 -0.0288 0.4783
vn 0.8760 0.0496 0.4798
vn 0.8720 0.1179 0.4752
vn 0.9639 0.2170 0.1542
vn 0.8610 0.2141 0.4614
vn 0.6359 0.0568 0.7697
vn 0.6462 0.1322 0.7516
vn 0.6576 0.2581 0.7078
vn 0.8470 0.3044 0.4357
vn 0.6784 0.3435 0.6494
vn 0.4360 0.1645 0.8848
vn 0.4418 0.3307 0.8339
vn 0.4597 0.4282 0.7780
vn 0.7005 0.3781 0.6053
vn 0.4989 0.4426 0.7451
vn 0.1029 0.3790 0.9197
vn 0.1185 0.4817 0.8683
vn 0.1354 0.4766 0.8686
vn 0.5083 0.4651 0.7247
vn 0.1645 0.4684 0.8681
vn -0.2519 0.4837 0.8382
vn -0.2388 0.4574 0.8566
vn -0.2227 0.4368 0.8715
vn 0.1679 0.4911 0.8548
vn -0.2186 0.4507 0.8655
vn -0.5257 0.4133 0.7435
vn -0.5170 0.3806 0.7667
vn -0.5114 0.3793 0.7711
vn -0.2036 0.4692 0.8593
vn -0.5097 0.3824 0.7707
vn -0.7139 0.3381 0.6133
vn -0.7038 0.3261 0.6311
vn -0.7041 0.3125 0.6377
vn -0.6933 0.3750 0.6154
vn -0.8787 0.2840 0.3837
vn -0.8788 0.2694 0.3939
vn -0.8347 0.3929 0.3858
vn -0.3832 0.8972 0.2193
vn -0.2540 0.9670 0.0202
vn -0.9596 0.2468 0.1353
vn -0.8683 0.4825 0.1146
vn -0.1972 0.9792 -0.0473
vn -0.8459 0.5333 0.0035
vn -0.1352 0.9895 0.0512
vn 0.7413 0.6697 0.0445
vn 0.7077 0.6778 -0.1991
vn 0.6216 0.6918 -0.3675
vn 0.6720 0.3250 -0.6654
vn 0.3721 0.7943 -0.4802
vn 0.8751 0.2387 -0.4211
vn 0.9685 0.1592 -0.1917
vn 0.9908 0.1290 0.0402
vn 0.9984 -0.0490 0.0268
vn 0.9884 -0.0233 -0.1502
vn 0.9189 0.0174 -0.3941
vn 0.7683 -0.0957 -0.6329
vn 0.7537 0.0395 -0.6561
vn 0.9228 -0.0825 -0.3764
vn 0.9886 -0.0858 -0.1239
vn 0.9950 -0.0968 0.0244
vn 0.9993 0.0241 0.0289
vn 0.9920 0.0276 -0.1228
vn 0.9282 0.0122 -0.3720
vn 0.9912 -0.0461 -0.1237
vn 0.9977 -0.0350 0.0575
vn 0.9822 -0.1632 0.0934
vn 0.9742 -0.0641 0.2163
vn 0.9559 -0.1871 0.2263
vn 0.9640 -0.0632 0.2584
vn 0.8766 -0.2065 0.4347
vn 0.8904 -0.0822 0.4476
vn 0.8903 0.0207 0.4549
vn 0.6527 -0.0953 0.7516
vn 0.6575 0.0399 0.7524
vn 0.6695 0.0463 0.7414
vn 0.4169 0.0646 0.9067
vn 0.4199 0.0470 0.9063
vn 0.4065 -0.3252 0.8538
vn 0.1053 0.0076 0.9944
vn 0.1097 -0.3440 0.9325
vn 0.1136 -0.7215 0.6830
vn -0.2151 -0.3616 0.9072
vn -0.1565 -0.7272 0.6684
vn -0.0772 -0.9491 0.3055
vn -0.4057 -0.7329 0.5461
vn -0.2219 -0.9439 0.2446
vn 0.0086 -0.9956 -0.0937
vn -0.3150 -0.9277 0.2003
vn 0.0144 -0.9970 -0.0757
vn 0.3886 -0.8251 -0.4101
vn 0.0271 -0.9974 -0.0674
vn 0.4799 -0.8261 -0.2954
vn 0.7724 -0.4668 -0.4308
vn 0.5359 -0.8372 -0.1086
vn 0.8559 -0.4909 -0.1626
vn 0.5296 -0.8480 -0.0219
vn 0.8758 -0.4826 -0.0134
vn 0.5268 -0.8450 0.0917
vn 0.8769 -0.4648 0.1224
vn 0.4850 -0.8210 0.3012
vn 0.7927 -0.4281 0.4340
vn 0.8688 -0.1602 0.4686
vn 0.5754 -0.4312 0.6950
vn 0.6243 -0.1384 0.7689
vn 0.6322 -0.0089 0.7747
vn 0.3911 -0.1115 0.9136
vn 0.4169 0.0196 0.9087
vn 0.4290 0.0663 0.9009
vn 0.0971 0.0382 0.9945
vn 0.0931 0.0776 0.9926
vn 0.0990 0.1891 0.9770
vn -0.2415 0.0685 0.9680
vn -0.2603 0.1884 0.9470
vn -0.2595 0.3868 0.8849
vn -0.5031 0.1778 0.8457
vn -0.5137 0.3700 0.7741
vn -0.5215 0.4456 0.7277
vn -0.7268 0.3420 0.5956
vn -0.7168 0.3913 0.5771
vn -0.7192 0.3718 0.5870
vn -0.8713 0.3393 0.3547
vn -0.8728 0.3203 0.3682
vn -0.8757 0.2948 0.3824
vn -0.9490 0.2829 0.1393
vn -0.9571 0.2503 0.1460
vn -0.9608 0.2371 0.1438
vn -0.9728 0.2309 0.0183
vn -0.9828 0.1845 0.0117
vn -0.9832 0.1823 -0.0098
vn -0.9617 0.1733 -0.2125
vn -0.9669 0.1767 -0.1841
vn -0.8263 0.5581 -0.0754
vn -0.8422 0.2711 -0.4660
vn -0.6764 0.6649 -0.3168
vn 0.1386 0.9804 0.1401
vn -0.0159 0.9828 0.1839
vn 0.7389 0.5471 0.3934
vn 0.7477 0.6076 0.2679
vn 0.8757 0.1764 0.4496
vn 0.9556 0.1780 0.2350
vn 0.8908 -0.0223 0.4538
vn 0.9813 -0.0132 0.1922
vn 0.8863 -0.1077 0.4505
vn 0.9807 -0.0984 0.1689
vn 0.8936 0.0098 0.4488
vn 0.9824 0.0127 0.1862
vn 0.8923 -0.0881 0.4427
vn 0.7256 0.0252 0.6877
vn 0.7135 -0.0842 0.6955
vn 0.6536 -0.2315 0.7206
vn 0.4441 -0.0871 0.8918
vn 0.4077 -0.2551 0.8767
vn 0.4207 -0.0973 0.9020
vn 0.1166 -0.2417 0.9633
vn 0.1317 -0.0812 0.9880
vn 0.1290 0.0414 0.9908
vn -0.2792 -0.0732 0.9574
vn -0.2785 0.0403 0.9596
vn -0.2525 -0.0139 0.9675
vn -0.5725 0.0818 0.8158
vn -0.5578 0.0004 0.8300
vn -0.5268 -0.3733 0.7636
vn -0.7858 0.0315 0.6177
vn -0.7355 -0.3699 0.5676
vn -0.5718 -0.7079 0.4146
vn -0.8910 -0.3293 0.3124
vn -0.6971 -0.6735 0.2458
vn -0.3892 -0.9126 0.1254
vn -0.7844 -0.6173 0.0603
vn -0.4396 -0.8977 0.0283
vn 0.0574 -0.9977 -0.0349
vn -0.4797 -0.8762 -0.0466
vn 0.0404 -0.9985 -0.0365
vn -0.4995 -0.8625 -0.0810
vn -0.0066 -0.9999 0.0107
vn -0.4743 -0.8652 -0.1628
vn -0.0219 -0.9979 0.0605
vn -0.3942 -0.8748 -0.2818
vn -0.0336 -0.9981 0.0519
vn 0.3477 -0.8313 0.4337
vn -0.0170 -0.9979 0.0624
vn 0.2052 -0.8391 0.5038
vn 0.3411 -0.4579 0.8210
vn 0.0506 -0.8435 0.5348
vn 0.0825 -0.4620 0.8830
vn 0.0955 -0.0876 0.9916
vn -0.1853 -0.4392 0.8790
vn -0.2006 -0.0748 0.9768
vn -0.2166 0.0297 0.9758
vn -0.4770 -0.0358 0.8782
vn -0.4658 0.0348 0.8842
vn -0.4811 0.0525 0.8751
vn -0.7613 0.0503 0.6464
vn -0.7690 0.0570 0.6367
vn -0.7572 0.1801 0.6279
vn -0.9276 0.0666 0.3676
vn -0.9130 0.2022 0.3543
vn -0.8823 0.3236 0.3418
vn -0.9692 0.2256 0.0987
vn -0.9401 0.3241 0.1053
vn -0.9411 0.3145 0.1241
vn -0.9310 0.3624 -0.0445
vn -0.9386 0.3449 -0.0113
vn -0.9519 0.3063 0.0125
vn -0.8979 0.3790 -0.2240
vn -0.9172 0.3243 -0.2314
vn -0.9471 0.2392 -0.2141
vn -0.7945 0.3276 -0.5114
vn -0.8147 0.2642 -0.5162
vn -0.8360 0.2288 -0.4988
vn -0.6621 0.3047 -0.6846
vn -0.6700 0.2767 -0.6889
vn -0.6597 0.3091 -0.6850
vn -0.4327 0.2977 -0.8510
vn -0.4804 0.6635 -0.5736
vn 0.1640 0.9858 0.0367
vn 0.6232 0.5550 0.5509
vn 0.4363 0.2007 0.8771
vn 0.7153 0.1430 0.6840
vn 0.4501 -0.0140 0.8929
vn 0.7126 -0.0556 0.6994
vn 0.4562 -0.0882 0.8855
vn 0.7097 -0.1044 0.6967
vn 0.4650 0.0232 0.8850
vn 0.1282 -0.0831 0.9883
vn 0.1215 0.0026 0.9926
vn 0.1124 -0.0916 0.9894
vn -0.2465 0.0300 0.9687
vn -0.2297 -0.0698 0.9707
vn -0.2361 -0.2346 0.9430
vn -0.5479 -0.0812 0.8326
vn -0.5374 -0.2453 0.8068
vn -0.5727 -0.0773 0.8161
vn -0.7569 -0.2361 0.6094
vn -0.7766 -0.0758 0.6254
vn -0.7769 0.1088 0.6201
vn -0.9326 -0.0635 0.3554
vn -0.9371 0.0825 0.3391
vn -0.9390 0.0302 0.3427
vn -0.9950 -0.0112 0.0994
vn -0.9551 -0.2858 0.0785
vn -0.9977 -0.0501 -0.0451
vn -0.9591 -0.2791 -0.0467
vn -0.8154 -0.5768 -0.0501
vn -0.9435 -0.2810 -0.1757
vn -0.8128 -0.5643 -0.1447
vn -0.8845 -0.2496 -0.3941
vn -0.7646 -0.5640 -0.3120
vn -0.6410 -0.5604 -0.5245
vn -0.4331 -0.6028 -0.6701
vn -0.2437 -0.9078 -0.3413
vn -0.1701 -0.6858 -0.7076
vn -0.0854 -0.9366 -0.3398
vn -0.0103 -0.9964 0.0837
vn 0.0616 -0.9513 -0.3020
vn -0.0238 -0.9944 0.1032
vn -0.1194 -0.8351 0.5369
vn -0.0200 -0.9936 0.1114
vn -0.2625 -0.8241 0.5020
vn -0.4370 -0.4071 0.8021
vn -0.4229 -0.7884 0.4467
vn -0.6754 -0.3695 0.6382
vn -0.7552 -0.0200 0.6552
vn -0.8449 -0.3557 0.3995
vn -0.9171 -0.0517 0.3952
vn -0.9262 0.0346 0.3755
vn -0.9917 -0.0682 0.1091
vn -0.9946 0.0105 0.1037
vn -0.9920 0.0730 0.1029
vn -0.9940 0.0141 -0.1082
vn -0.9916 0.0823 -0.1002
vn -0.9643 0.2522 -0.0804
vn -0.9610 0.0969 -0.2589
vn -0.9347 0.2709 -0.2303
vn -0.8946 0.3917 -0.2149
vn -0.7938 0.2728 -0.5436
vn -0.7670 0.3941 -0.5064
vn -0.7726 0.3843 -0.5054
vn -0.6218 0.3923 -0.6779
vn -0.6368 0.3868 -0.6670
vn -0.6512 0.3467 -0.6751
vn -0.4442 0.3877 -0.8077
vn -0.4404 0.3569 -0.8238
vn -0.4458 0.3250 -0.8340
vn -0.2099 0.3569 -0.9102
vn -0.2201 0.3370 -0.9154
vn -0.2368 0.3146 -0.9192
vn -0.0517 0.3378 -0.9398
vn -0.0601 0.3228 -0.9445
vn 0.2581 0.3207 -0.9113
vn 0.2499 0.2916 -0.9233
vn 0.5334 0.3067 -0.7883
vn 0.5085 0.2853 -0.8124
vn 0.4448 0.4028 -0.7999
vn 0.6505 0.3299 -0.6841
vn 0.5832 0.4999 -0.6403
vn 0.0631 0.9949 -0.0788
vn 0.1004 0.9750 -0.1982
vn -0.5648 0.5850 0.5820
vn -0.3584 0.6776 0.6422
vn -0.7017 0.1182 0.7026
vn -0.4878 0.2127 0.8467
vn -0.2298 0.2948 0.9275
vn 0.1108 0.2792 0.9538
vn -0.5161 -0.0503 0.8551
vn -0.2485 0.0307 0.9681
vn 0.1301 0.0471 0.9904
vn -0.2509 -0.0979 0.9630
vn -0.5271 -0.1215 0.8411
vn -0.5511 0.0427 0.8334
vn -0.7176 -0.1695 0.6755
vn -0.7571 -0.0219 0.6529
vn -0.7748 -0.1215 0.6204
vn -0.8797 -0.0669 0.4708
vn -0.8920 -0.1336 0.4318
vn -0.9000 -0.2139 0.3797
vn -0.9585 -0.1209 0.2582
vn -0.9460 -0.0591 0.3189
vn -0.9827 -0.0553 0.1765
vn -0.9878 -0.0967 0.1223
vn -0.9937 -0.0836 0.0745
vn -0.9978 -0.0659 -0.0112
vn -0.9972 -0.0562 -0.0488
vn -0.9857 -0.0437 -0.1629
vn -1.0000 0.0046 -0.0069
vn -0.9896 -0.1296 -0.0622
vn -0.9317 -0.1616 -0.3252
vn -0.9873 -0.1587 0.0113
vn -0.9518 -0.1351 -0.2752
vn -0.9867 -0.1619 0.0168
vn -0.9549 -0.0449 -0.2936
vn -0.9583 -0.0850 0.2727
vn -0.9683 -0.1753 0.1777
vn -0.9789 -0.1537 0.1344
vn -0.9582 -0.1309 0.2545
vn -0.9660 -0.1427 0.2158
vn -0.9305 0.0332 0.3648
vn -0.9498 -0.0004 0.3129
vn -0.9315 -0.1116 0.3463
vn -0.9278 -0.1632 0.3356
vn -0.8673 -0.1135 0.4846
vn -0.8588 -0.1909 0.4755
vn -0.8633 0.0588 0.5013
vn -0.7112 -0.1008 0.6957
vn -0.7305 0.5233 0.4389
vn -0.8146 0.4703 0.3395
vn 0.0069 0.9995 -0.0302
vn -0.0633 0.9972 0.0409
vn -0.8483 0.4106 0.3343
vn -0.8646 0.3606 0.3499
vn 0.6811 0.5575 -0.4748
vn 0.2710 0.3699 -0.8887
vn -0.0287 0.3913 -0.9198
vn -0.0431 0.3670 -0.9292
vn -0.1931 0.3803 -0.9045
vn -0.1993 0.3782 -0.9040
vn -0.4508 0.3996 -0.7982
vn -0.4678 0.2850 -0.8367
vn -0.6231 0.2760 -0.7318
vn -0.6182 0.1134 -0.7778
vn -0.8040 0.1099 -0.5843
vn -0.8040 0.0420 -0.5931
vn -0.9620 0.0358 -0.2706
vn -0.9569 -0.0215 -0.2898
vn -0.9914 -0.0614 -0.1156
vn -0.9314 -0.3441 -0.1189
vn -0.9327 -0.3429 0.1115
vn -0.6585 -0.7475 0.0879
vn -0.5760 -0.7590 0.3036
vn -0.0839 -0.9916 0.0987
vn -0.0432 -0.9912 0.1248
vn 0.3493 -0.9149 -0.2023
vn 0.2276 -0.9390 -0.2579
vn 0.4243 -0.7164 -0.5538
vn 0.1340 -0.7370 -0.6625
vn 0.1757 -0.3363 -0.9252
vn -0.9808 -0.0357 -0.1917
vn -0.9050 0.0355 -0.4240
vn -0.9783 0.0129 -0.2070
vn -0.8906 0.0639 -0.4502
vn -0.9683 -0.1081 -0.2252
vn 0.4634 0.0710 -0.8833
vn 0.3227 0.4237 -0.8464
vn 0.1669 0.5416 0.8239
vn 0.4411 0.6280 0.6411
vn 0.5085 0.5070 0.6960
vn 0.5547 0.6496 0.5199
vn 0.6759 0.4886 0.5518
vn 0.6970 0.4279 0.5754
vn 0.7632 0.5053 0.4027
vn 0.8085 0.4242 0.4079
vn 0.8349 0.3615 0.4151
vn 0.8849 0.4433 0.1428
vn 0.9137 0.3784 0.1481
vn 0.9395 0.3069 0.1524
vn 0.9206 0.3889 -0.0361
vn 0.9457 0.3232 -0.0356
vn 0.8989 0.4119 -0.1496
vn 0.9092 0.3800 -0.1703
vn 0.8778 0.4259 -0.2192
vn 0.8627 0.4250 -0.2742
vn 0.8515 0.4174 -0.3174
vn 0.8767 0.4542 -0.1583
vn 0.8303 0.5202 -0.2001
vn 0.8946 0.4447 -0.0437
vn 0.8398 0.5396 -0.0601
vn 0.5534 0.8176 -0.1590
vn 0.8270 0.5460 0.1339
vn 0.5661 0.8106 0.1496
vn 0.5878 0.6845 0.4311
f 1/1/1 2/2/2 3/3/3 4/4/4
f 5/5/5 4/4/4 3/3/3 6/6/6
f 7/7/7 6/8/6 3/9/3 8/10/8
f 9/11/9 3/3/3 2/2/2 10/12/10
f 11/13/11 12/14/12 13/15/13 14/16/14
f 15/17/15 16/18/16 13/19/13 12/20/12
f 17/21/17 14/16/14 13/15/13 18/22/18
f 19/23/19 18/22/18 13/15/13 20/24/20
f 21/25/21 20/24/20 13/15/13 16/26/16
f 22/27/22 17/21/17 18/22/18 19/23/19
f 23/28/23 24/29/24 25/30/25 26/31/26
f 27/32/27 28/33/28 25/30/25 24/29/24
f 29/34/29 26/35/26 25/36/25 28/37/28
f 30/38/30 29/39/29 28/33/28 31/40/31
f 32/41/32 31/40/31 28/33/28 33/42/33
f 34/43/34 33/42/33 28/33/28 27/32/27
f 35/44/35 36/45/36 37/46/37 38/47/38
f 39/48/39 38/47/38 37/46/37 40/49/40
f 41/50/41 42/51/42 37/52/37 36/53/36
f 43/54/43 44/55/44 37/52/37 42/51/42
f 45/56/45 46/57/46 47/58/47 48/59/48
f 49/60/49 48/59/48 47/58/47 50/61/50
f 51/62/51 50/61/50 47/58/47 52/63/52
f 53/64/53 51/62/51 52/63/52 54/65/54
f 55/66/55 56/67/56 52/63/52 47/58/47
f 57/68/57 54/65/54 52/63/52 56/67/56
f 58/69/58 59/70/59 60/71/60 61/72/61
f 62/73/62 63/74/63 60/71/60 64/75/64
f 65/76/65 64/75/64 60/71/60 59/70/59
f 66/77/66 67/78/67 68/79/68 69/80/69
f 70/81/70 69/80/69 68/79/68 71/82/71
f 72/83/72 73/84/73 67/78/67 66/77/66
f 74/85/74 75/86/75 67/78/67 73/84/73
f 76/87/76 77/88/77 78/89/78 75/86/75
f 77/88/77 71/82/71 67/78/67 78/89/78
f 79/90/79 76/87/76 75/86/75 74/85/74
f 80/91/80 79/92/79 81/93/81 82/94/82
f 83/95/83 82/96/82 81/97/81 84/98/84
f 74/85/74 84/98/84 81/97/81 79/90/79
f 85/99/85 45/56/45 48/59/48 49/60/49
f 86/100/86 45/56/45 85/99/85 87/101/87
f 88/102/88 89/103/89 85/99/85 49/60/49
f 90/104/90 87/101/87 85/99/85 89/103/89
f 21/105/21 87/101/87 90/104/90 20/106/20
f 91/107/91 92/108/92 90/109/90 89/110/89
f 19/23/19 20/24/20 90/109/90 92/108/92
f 93/111/93 94/112/94 92/108/92 91/107/91
f 22/27/22 19/23/19 92/108/92 94/112/94
f 95/113/95 96/114/96 94/112/94 93/111/93
f 97/115/97 22/27/22 94/112/94 96/114/96
f 17/21/17 22/27/22 97/115/97 98/116/98
f 99/117/99 100/118/100 97/115/97 96/114/96
f 101/119/101 98/116/98 97/115/97 100/118/100
f 102/120/102 98/116/98 101/119/101 103/121/103
f 104/122/104 105/123/105 101/119/101 100/118/100
f 106/124/106 103/121/103 101/119/101 105/123/105
f 107/125/107 103/121/103 106/124/106 108/126/108
f 109/127/109 110/128/110 106/124/106 105/123/105
f 111/129/111 108/126/108 106/124/106 110/128/110
f 112/130/112 108/126/108 111/129/111 113/131/113
f 114/132/114 115/133/115 111/129/111 110/128/110
f 116/134/116 113/131/113 111/129/111 115/133/115
f 117/135/117 113/131/113 116/134/116 118/136/118
f 119/137/119 120/138/120 116/134/116 115/133/115
f 121/139/121 118/136/118 116/134/116 120/138/120
f 122/140/122 118/136/118 121/139/121 123/141/123
f 124/142/124 125/143/125 121/139/121 120/138/120
f 126/144/126 123/141/123 121/139/121 125/143/125
f 127/145/127 123/146/123 126/147/126 128/148/128
f 129/149/129 130/150/130 126/144/126 125/143/125
f 131/151/131 128/148/128 126/147/126 130/152/130
f 132/153/132 128/148/128 131/151/131 133/154/133
f 134/155/134 135/156/135 131/151/131 130/152/130
f 136/157/136 133/154/133 131/151/131 135/156/135
f 137/158/137 133/154/133 136/157/136 138/159/138
f 139/160/139 140/161/140 136/157/136 135/156/135
f 141/162/141 138/159/138 136/157/136 140/161/140
f 142/163/142 138/159/138 141/162/141 143/164/143
f 144/165/144 145/166/145 141/162/141 140/161/140
f 146/167/146 143/164/143 141/162/141 145/166/145
f 147/168/147 143/164/143 146/167/146 148/169/148
f 149/170/149 150/171/150 146/167/146 145/166/145
f 151/172/151 148/169/148 146/167/146 150/171/150
f 152/173/152 148/169/148 151/172/151 153/174/153
f 154/175/154 155/176/155 151/172/151 150/171/150
f 156/177/156 153/174/153 151/172/151 155/176/155
f 157/178/157 153/174/153 156/177/156 158/179/158
f 159/180/159 160/181/160 156/182/156 155/183/155
f 161/184/161 158/185/158 156/186/156 160/187/160
f 162/188/162 158/185/158 161/184/161 163/189/163
f 40/190/40 164/191/164 161/192/161 160/193/160
f 165/194/165 163/195/163 161/192/161 164/191/164
f 166/196/166 163/189/163 165/197/165 167/198/167
f 44/55/44 168/199/168 165/194/165 164/191/164
f 169/200/169 167/201/167 165/194/165 168/199/168
f 170/202/170 167/198/167 169/203/169 171/204/171
f 172/205/172 173/206/173 169/200/169 168/199/168
f 174/207/174 171/208/171 169/200/169 173/206/173
f 175/209/175 171/204/171 174/210/174 176/211/176
f 177/212/177 178/213/178 174/207/174 173/206/173
f 179/214/179 176/215/176 174/207/174 178/213/178
f 180/216/180 176/211/176 179/217/179 181/218/181
f 182/219/182 183/220/183 179/214/179 178/213/178
f 184/221/184 181/222/181 179/214/179 183/220/183
f 185/223/185 181/218/181 184/224/184 186/225/186
f 187/226/187 188/227/188 184/221/184 183/220/183
f 80/91/80 186/225/186 184/224/184 188/228/188
f 77/88/77 76/87/76 188/227/188 187/226/187
f 79/92/79 80/91/80 188/228/188 76/229/76
f 182/219/182 189/230/189 187/226/187 183/220/183
f 71/82/71 77/88/77 187/226/187 189/230/189
f 190/231/190 191/232/191 189/230/189 182/219/182
f 70/81/70 71/82/71 189/230/189 191/232/191
f 192/233/192 193/234/193 191/232/191 190/231/190
f 194/235/194 70/81/70 191/232/191 193/234/193
f 195/236/195 196/237/196 194/235/194 193/234/193
f 197/238/197 198/239/198 194/235/194 196/237/196
f 69/80/69 70/81/70 194/235/194 198/239/198
f 66/77/66 69/80/69 198/239/198 199/240/199
f 200/241/200 199/240/199 198/239/198 197/238/197
f 201/242/201 199/240/199 200/241/200 202/243/202
f 203/244/203 204/245/204 200/241/200 197/238/197
f 205/246/205 202/243/202 200/241/200 204/245/204
f 206/247/206 202/243/202 205/246/205 207/248/207
f 208/249/208 209/250/209 205/246/205 204/245/204
f 210/251/210 207/248/207 205/246/205 209/250/209
f 211/252/211 207/248/207 210/251/210 212/253/212
f 213/254/213 57/68/57 210/251/210 209/250/209
f 56/67/56 212/253/212 210/251/210 57/68/57
f 208/249/208 214/255/214 213/254/213 209/250/209
f 215/256/215 216/257/216 213/254/213 214/255/214
f 54/65/54 57/68/57 213/254/213 216/257/216
f 217/258/217 218/259/218 216/257/216 215/256/215
f 53/64/53 54/65/54 216/257/216 218/259/218
f 219/260/219 220/261/220 218/259/218 217/258/217
f 221/262/221 53/64/53 218/259/218 220/261/220
f 51/62/51 53/64/53 221/262/221 222/263/222
f 8/10/8 223/264/223 221/262/221 220/261/220
f 224/265/224 222/263/222 221/262/221 223/264/223
f 225/266/225 222/263/222 224/265/224 226/267/226
f 9/11/9 227/268/227 224/269/224 223/270/223
f 228/271/228 226/272/226 224/269/224 227/268/227
f 229/273/229 226/267/226 228/274/228 230/275/230
f 231/276/231 232/277/232 228/271/228 227/268/227
f 233/278/233 230/279/230 228/271/228 232/277/232
f 93/111/93 230/279/230 233/278/233 95/113/95
f 234/280/234 235/281/235 233/278/233 232/277/232
f 236/282/236 95/113/95 233/278/233 235/281/235
f 96/114/96 95/113/95 236/282/236 99/117/99
f 237/283/237 238/284/238 236/282/236 235/281/235
f 239/285/239 99/117/99 236/282/236 238/284/238
f 100/118/100 99/117/99 239/285/239 104/122/104
f 240/286/240 241/287/241 239/285/239 238/284/238
f 242/288/242 104/122/104 239/285/239 241/287/241
f 105/123/105 104/122/104 242/288/242 109/127/109
f 243/289/243 244/290/244 242/288/242 241/287/241
f 245/291/245 109/127/109 242/288/242 244/290/244
f 246/292/246 247/293/247 245/291/245 244/290/244
f 248/294/248 114/132/114 245/291/245 247/293/247
f 110/128/110 109/127/109 245/291/245 114/132/114
f 249/295/249 250/296/250 248/294/248 247/293/247
f 251/297/251 119/137/119 248/294/248 250/296/250
f 115/133/115 114/132/114 248/294/248 119/137/119
f 120/138/120 119/137/119 251/297/251 124/142/124
f 252/298/252 253/299/253 251/297/251 250/296/250
f 254/300/254 124/142/124 251/297/251 253/299/253
f 125/143/125 124/142/124 254/300/254 129/149/129
f 255/301/255 256/302/256 254/300/254 253/299/253
f 257/303/257 129/149/129 254/300/254 256/302/256
f 130/150/130 129/149/129 257/303/257 134/304/134
f 258/305/258 259/306/259 257/303/257 256/302/256
f 260/307/260 134/304/134 257/303/257 259/306/259
f 135/156/135 134/155/134 260/308/260 139/160/139
f 261/309/261 262/310/262 260/311/260 259/312/259
f 263/313/263 139/160/139 260/308/260 262/314/262
f 140/161/140 139/160/139 263/313/263 144/165/144
f 264/315/264 265/316/265 263/313/263 262/314/262
f 266/317/266 144/165/144 263/313/263 265/316/265
f 145/166/145 144/165/144 266/317/266 149/170/149
f 267/318/267 268/319/268 266/320/266 265/321/265
f 269/322/269 149/170/149 266/317/266 268/323/268
f 150/171/150 149/170/149 269/322/269 154/175/154
f 270/324/270 271/325/271 269/326/269 268/319/268
f 272/327/272 154/328/154 269/326/269 271/325/271
f 155/183/155 154/328/154 272/327/272 159/180/159
f 273/329/273 274/330/274 272/327/272 271/325/271
f 39/48/39 159/180/159 272/327/272 274/330/274
f 275/331/275 276/332/276 274/330/274 273/329/273
f 38/47/38 39/48/39 274/330/274 276/332/276
f 277/333/277 278/334/278 276/332/276 275/331/275
f 35/44/35 38/47/38 276/332/276 278/334/278
f 279/335/279 280/336/280 278/334/278 277/333/277
f 281/337/281 35/44/35 278/334/278 280/336/280
f 36/45/36 35/44/35 281/337/281 282/338/282
f 283/339/283 284/340/284 281/337/281 280/336/280
f 285/341/285 282/338/282 281/337/281 284/340/284
f 286/342/286 282/343/282 285/344/285 287/345/287
f 288/346/288 289/347/289 285/341/285 284/340/284
f 290/348/290 287/345/287 285/344/285 289/349/289
f 291/350/291 287/345/287 290/348/290 292/351/292
f 293/352/293 294/353/294 290/348/290 289/349/289
f 295/354/295 292/351/292 290/348/290 294/353/294
f 296/355/296 292/351/292 295/354/295 297/356/297
f 298/357/298 299/358/299 295/354/295 294/353/294
f 300/359/300 297/356/297 295/354/295 299/358/299
f 301/360/301 297/356/297 300/359/300 302/361/302
f 303/362/303 304/363/304 300/364/300 299/365/299
f 305/366/305 302/367/302 300/364/300 304/363/304
f 306/368/306 302/367/302 305/366/305 307/369/307
f 308/370/308 309/371/309 305/366/305 304/363/304
f 310/372/310 307/369/307 305/366/305 309/371/309
f 311/373/311 307/369/307 310/372/310 312/374/312
f 313/375/313 314/376/314 310/372/310 309/371/309
f 315/377/315 312/374/312 310/372/310 314/376/314
f 5/378/5 312/374/312 315/377/315 316/379/316
f 317/380/317 318/381/318 315/377/315 314/376/314
f 319/382/319 316/379/316 315/377/315 318/381/318
f 320/383/320 316/379/316 319/382/319 321/384/321
f 322/385/322 323/386/323 319/382/319 318/381/318
f 324/387/324 321/384/321 319/382/319 323/386/323
f 325/388/325 326/389/326 324/390/324 323/391/323
f 327/392/327 328/393/328 324/390/324 326/389/326
f 329/394/329 321/395/321 324/390/324 328/393/328
f 330/396/330 331/397/331 329/394/329 332/398/332
f 320/399/320 321/395/321 329/394/329 331/397/331
f 333/400/333 332/398/332 329/394/329 328/393/328
f 327/392/327 334/401/334 333/400/333 328/393/328
f 335/402/335 336/403/336 333/400/333 334/401/334
f 337/404/337 332/398/332 333/400/333 336/403/336
f 338/405/338 339/406/339 337/404/337 340/407/340
f 330/396/330 332/398/332 337/404/337 339/406/339
f 341/408/341 340/407/340 337/404/337 336/403/336
f 335/402/335 342/409/342 341/408/341 336/403/336
f 343/410/343 344/411/344 341/408/341 342/409/342
f 345/412/345 340/407/340 341/408/341 344/411/344
f 238/284/238 237/283/237 345/412/345 240/286/240
f 338/405/338 340/407/340 345/412/345 237/283/237
f 346/413/346 240/286/240 345/412/345 344/411/344
f 343/410/343 347/414/347 346/413/346 344/411/344
f 348/415/348 243/289/243 346/413/346 347/414/347
f 241/287/241 240/286/240 346/413/346 243/289/243
f 349/416/349 350/417/350 348/415/348 347/414/347
f 351/418/351 246/292/246 348/415/348 350/417/350
f 244/290/244 243/289/243 348/415/348 246/292/246
f 352/419/352 353/420/353 351/418/351 350/417/350
f 354/421/354 249/295/249 351/418/351 353/420/353
f 247/293/247 246/292/246 351/418/351 249/295/249
f 250/296/250 249/295/249 354/421/354 252/298/252
f 355/422/355 356/423/356 354/421/354 353/420/353
f 357/424/357 252/298/252 354/421/354 356/423/356
f 253/299/253 252/298/252 357/424/357 255/301/255
f 358/425/358 359/426/359 357/424/357 356/423/356
f 360/427/360 255/301/255 357/424/357 359/426/359
f 256/302/256 255/301/255 360/427/360 258/305/258
f 361/428/361 362/429/362 360/427/360 359/426/359
f 363/430/363 258/305/258 360/427/360 362/429/362
f 259/306/259 258/305/258 363/430/363 261/431/261
f 364/432/364 365/433/365 363/434/363 362/435/362
f 366/436/366 261/309/261 363/434/363 365/433/365
f 262/310/262 261/309/261 366/436/366 264/437/264
f 367/438/367 368/439/368 366/436/366 365/433/365
f 369/440/369 264/437/264 366/436/366 368/439/368
f 265/316/265 264/315/264 369/441/369 267/442/267
f 370/443/370 371/444/371 369/440/369 368/439/368
f 372/445/372 267/318/267 369/440/369 371/444/371
f 268/319/268 267/318/267 372/445/372 270/324/270
f 373/446/373 374/447/374 372/445/372 371/444/371
f 375/448/375 270/324/270 372/445/372 374/447/374
f 271/325/271 270/324/270 375/448/375 273/329/273
f 376/449/376 377/450/377 375/448/375 374/447/374
f 275/331/275 273/329/273 375/448/375 377/450/377
f 378/451/378 379/452/379 377/450/377 376/449/376
f 277/333/277 275/331/275 377/450/377 379/452/379
f 380/453/380 381/454/381 379/452/379 378/451/378
f 279/335/279 277/333/277 379/452/379 381/454/381
f 382/455/382 383/456/383 381/454/381 380/453/380
f 384/457/384 279/335/279 381/454/381 383/456/383
f 280/336/280 279/335/279 384/457/384 283/339/283
f 385/458/385 386/459/386 384/457/384 383/456/383
f 387/460/387 283/339/283 384/457/384 386/459/386
f 284/340/284 283/339/283 387/460/387 288/346/288
f 388/461/388 389/462/389 387/460/387 386/459/386
f 390/463/390 288/346/288 387/460/387 389/462/389
f 289/347/289 288/346/288 390/463/390 293/464/293
f 391/465/391 392/466/392 390/463/390 389/462/389
f 393/467/393 293/464/293 390/463/390 392/466/392
f 294/353/294 293/352/293 393/468/393 298/357/298
f 394/469/394 395/470/395 393/471/393 392/472/392
f 396/473/396 298/474/298 393/471/393 395/470/395
f 299/365/299 298/474/298 396/473/396 303/362/303
f 397/475/397 398/476/398 396/473/396 395/470/395
f 399/477/399 303/362/303 396/473/396 398/476/398
f 304/363/304 303/362/303 399/477/399 308/370/308
f 400/478/400 401/479/401 399/477/399 398/476/398
f 402/480/402 308/370/308 399/477/399 401/479/401
f 309/371/309 308/370/308 402/480/402 313/375/313
f 403/481/403 404/482/404 402/480/402 401/479/401
f 405/483/405 313/375/313 402/480/402 404/482/404
f 314/376/314 313/375/313 405/483/405 317/380/317
f 406/484/406 407/485/407 405/483/405 404/482/404
f 408/486/408 317/380/317 405/483/405 407/485/407
f 409/487/409 410/488/410 408/486/408 407/485/407
f 411/489/411 322/385/322 408/486/408 410/488/410
f 318/381/318 317/380/317 408/486/408 322/385/322
f 412/490/412 413/491/413 411/489/411 410/488/410
f 414/492/414 325/493/325 411/489/411 413/491/413
f 323/386/323 322/385/322 411/489/411 325/493/325
f 415/494/415 416/495/416 414/492/414 413/491/413
f 417/496/417 418/497/418 414/498/414 416/499/416
f 326/389/326 325/388/325 414/498/414 418/497/418
f 419/500/419 420/501/420 418/497/418 417/496/417
f 327/392/327 326/389/326 418/497/418 420/501/420
f 421/502/421 422/503/422 420/501/420 419/500/419
f 334/401/334 327/392/327 420/501/420 422/503/422
f 423/504/423 424/505/424 422/503/422 421/502/421
f 335/402/335 334/401/334 422/503/422 424/505/424
f 425/506/425 426/507/426 424/505/424 423/504/423
f 342/409/342 335/402/335 424/505/424 426/507/426
f 427/508/427 428/509/428 426/507/426 425/506/425
f 343/410/343 342/409/342 426/507/426 428/509/428
f 429/510/429 349/416/349 428/509/428 427/508/427
f 347/414/347 343/410/343 428/509/428 349/416/349
f 430/511/430 431/512/431 429/510/429 427/508/427
f 432/513/432 352/419/352 429/510/429 431/512/431
f 350/417/350 349/416/349 429/510/429 352/419/352
f 433/514/433 434/515/434 432/513/432 431/512/431
f 435/516/435 355/422/355 432/513/432 434/515/434
f 353/420/353 352/419/352 432/513/432 355/422/355
f 436/517/436 437/518/437 435/516/435 434/515/434
f 438/519/438 358/425/358 435/516/435 437/518/437
f 356/423/356 355/422/355 435/516/435 358/425/358
f 359/426/359 358/425/358 438/519/438 361/428/361
f 439/520/439 440/521/440 438/522/438 437/523/437
f 441/524/441 361/525/361 438/522/438 440/521/440
f 362/435/362 361/525/361 441/524/441 364/432/364
f 442/526/442 443/527/443 441/524/441 440/521/440
f 444/528/444 364/432/364 441/524/441 443/527/443
f 365/433/365 364/432/364 444/528/444 367/438/367
f 445/529/445 446/530/446 444/528/444 443/527/443
f 447/531/447 367/438/367 444/528/444 446/530/446
f 368/439/368 367/438/367 447/531/447 370/443/370
f 448/532/448 449/533/449 447/531/447 446/530/446
f 450/534/450 370/443/370 447/531/447 449/533/449
f 371/444/371 370/443/370 450/534/450 373/446/373
f 451/535/451 452/536/452 450/534/450 449/533/449
f 453/537/453 373/446/373 450/534/450 452/536/452
f 374/447/374 373/446/373 453/537/453 376/449/376
f 454/538/454 455/539/455 453/537/453 452/536/452
f 378/451/378 376/449/376 453/537/453 455/539/455
f 456/540/456 457/541/457 455/539/455 454/538/454
f 380/453/380 378/451/378 455/539/455 457/541/457
f 458/542/458 459/543/459 457/541/457 456/540/456
f 382/455/382 380/453/380 457/541/457 459/543/459
f 460/544/460 461/545/461 459/543/459 458/542/458
f 462/546/462 382/455/382 459/543/459 461/545/461
f 383/456/383 382/455/382 462/546/462 385/458/385
f 463/547/463 464/548/464 462/546/462 461/545/461
f 465/549/465 385/458/385 462/546/462 464/548/464
f 386/459/386 385/458/385 465/549/465 388/461/388
f 466/550/466 467/551/467 465/549/465 464/548/464
f 468/552/468 388/461/388 465/549/465 467/551/467
f 389/462/389 388/461/388 468/552/468 391/465/391
f 469/553/469 470/554/470 468/555/468 467/556/467
f 471/557/471 391/558/391 468/555/468 470/554/470
f 392/472/392 391/558/391 471/557/471 394/469/394
f 472/559/472 473/560/473 471/557/471 470/554/470
f 474/561/474 394/469/394 471/557/471 473/560/473
f 395/470/395 394/469/394 474/561/474 397/475/397
f 475/562/475 476/563/476 474/561/474 473/560/473
f 477/564/477 397/475/397 474/561/474 476/563/476
f 398/476/398 397/475/397 477/564/477 400/478/400
f 478/565/478 479/566/479 477/564/477 476/563/476
f 480/567/480 400/478/400 477/564/477 479/566/479
f 401/479/401 400/478/400 480/567/480 403/481/403
f 481/568/481 482/569/482 480/567/480 479/566/479
f 483/570/483 403/481/403 480/567/480 482/569/482
f 404/482/404 403/481/403 483/570/483 406/484/406
f 484/571/484 485/572/485 483/570/483 482/569/482
f 486/573/486 406/484/406 483/570/483 485/572/485
f 487/574/487 488/575/488 486/573/486 485/572/485
f 489/576/489 409/487/409 486/573/486 488/575/488
f 407/485/407 406/484/406 486/573/486 409/487/409
f 490/577/490 491/578/491 489/576/489 488/575/488
f 492/579/492 412/490/412 489/576/489 491/578/491
f 410/488/410 409/487/409 489/576/489 412/490/412
f 493/580/493 494/581/494 492/579/492 491/578/491
f 495/582/495 415/494/415 492/579/492 494/581/494
f 413/491/413 412/490/412 492/579/492 415/494/415
f 496/583/496 23/584/23 495/582/495 494/581/494
f 26/585/26 497/586/497 495/582/495 23/584/23
f 416/495/416 415/494/415 495/582/495 497/586/497
f 29/34/29 498/587/498 497/588/497 26/35/26
f 417/496/417 416/499/416 497/588/497 498/587/498
f 30/589/30 499/590/499 498/587/498 29/34/29
f 419/500/419 417/496/417 498/587/498 499/590/499
f 500/591/500 501/592/501 499/590/499 30/589/30
f 421/502/421 419/500/419 499/590/499 501/592/501
f 502/593/502 503/594/503 501/592/501 500/591/500
f 423/504/423 421/502/421 501/592/501 503/594/503
f 504/595/504 505/596/505 503/594/503 502/593/502
f 425/506/425 423/504/423 503/594/503 505/596/505
f 506/597/506 430/511/430 505/596/505 504/595/504
f 427/508/427 425/506/425 505/596/505 430/511/430
f 507/598/507 508/599/508 506/600/506 504/601/504
f 509/602/509 433/603/433 506/600/506 508/599/508
f 431/512/431 430/511/430 506/597/506 433/514/433
f 510/604/510 511/605/511 509/602/509 508/599/508
f 512/606/512 436/607/436 509/608/509 511/609/511
f 434/515/434 433/514/433 509/610/509 436/517/436
f 513/611/513 514/612/514 512/606/512 511/609/511
f 515/613/515 439/520/439 512/606/512 514/612/514
f 437/523/437 436/607/436 512/606/512 439/520/439
f 440/521/440 439/520/439 515/613/515 442/526/442
f 516/614/516 517/615/517 515/613/515 514/612/514
f 518/616/518 442/526/442 515/613/515 517/615/517
f 443/527/443 442/526/442 518/616/518 445/529/445
f 519/617/519 520/618/520 518/616/518 517/615/517
f 521/619/521 445/529/445 518/616/518 520/618/520
f 446/530/446 445/529/445 521/619/521 448/532/448
f 63/74/63 522/620/522 521/619/521 520/618/520
f 523/621/523 448/532/448 521/619/521 522/620/522
f 449/533/449 448/532/448 523/621/523 451/535/451
f 524/622/524 525/623/525 523/621/523 522/620/522
f 526/624/526 451/535/451 523/621/523 525/623/525
f 452/536/452 451/535/451 526/624/526 454/538/454
f 527/625/527 528/626/528 526/624/526 525/623/525
f 456/540/456 454/538/454 526/624/526 528/626/528
f 529/627/529 530/628/530 528/626/528 527/625/527
f 458/542/458 456/540/456 528/626/528 530/628/530
f 15/17/15 531/629/531 530/628/530 529/627/529
f 460/544/460 458/542/458 530/628/530 531/629/531
f 12/20/12 532/630/532 531/629/531 15/17/15
f 533/631/533 460/544/460 531/629/531 532/630/532
f 461/545/461 460/544/460 533/631/533 463/547/463
f 534/632/534 535/633/535 533/634/533 532/635/532
f 536/636/536 463/637/463 533/634/533 535/633/535
f 464/548/464 463/547/463 536/638/536 466/550/466
f 537/639/537 538/640/538 536/636/536 535/633/535
f 539/641/539 466/642/466 536/643/536 538/644/538
f 467/556/467 466/642/466 539/641/539 469/553/469
f 540/645/540 541/646/541 539/641/539 538/644/538
f 542/647/542 469/553/469 539/641/539 541/646/541
f 470/554/470 469/553/469 542/647/542 472/559/472
f 543/648/543 544/649/544 542/647/542 541/646/541
f 545/650/545 472/559/472 542/647/542 544/649/544
f 473/560/473 472/559/472 545/650/545 475/562/475
f 546/651/546 547/652/547 545/650/545 544/649/544
f 548/653/548 475/562/475 545/650/545 547/652/547
f 476/563/476 475/562/475 548/653/548 478/565/478
f 549/654/549 550/655/550 548/653/548 547/652/547
f 551/656/551 478/565/478 548/653/548 550/655/550
f 479/566/479 478/565/478 551/656/551 481/568/481
f 552/657/552 553/658/553 551/656/551 550/655/550
f 554/659/554 481/568/481 551/656/551 553/658/553
f 482/569/482 481/568/481 554/659/554 484/571/484
f 555/660/555 556/661/556 554/659/554 553/658/553
f 557/662/557 484/571/484 554/659/554 556/661/556
f 558/663/558 559/664/559 557/662/557 556/661/556
f 560/665/560 487/574/487 557/662/557 559/664/559
f 485/572/485 484/571/484 557/662/557 487/574/487
f 561/666/561 562/667/562 560/665/560 559/664/559
f 563/668/563 490/577/490 560/665/560 562/667/562
f 488/575/488 487/574/487 560/665/560 490/577/490
f 564/669/564 565/670/565 563/668/563 562/667/562
f 566/671/566 493/580/493 563/668/563 565/670/565
f 491/578/491 490/577/490 563/668/563 493/580/493
f 567/672/567 568/673/568 566/674/566 565/675/565
f 569/676/569 496/677/496 566/674/566 568/673/568
f 494/581/494 493/580/493 566/671/566 496/583/496
f 570/678/570 571/679/571 569/676/569 568/673/568
f 27/32/27 24/29/24 569/676/569 571/679/571
f 23/28/23 496/677/496 569/676/569 24/29/24
f 572/680/572 573/681/573 571/679/571 570/678/570
f 34/43/34 27/32/27 571/679/571 573/681/573
f 574/682/574 575/683/575 573/681/573 572/680/572
f 576/684/576 34/43/34 573/681/573 575/683/575
f 577/685/577 578/686/578 576/684/576 575/683/575
f 579/687/579 580/688/580 576/684/576 578/686/578
f 33/42/33 34/43/34 576/684/576 580/688/580
f 581/689/581 582/690/582 580/688/580 579/687/579
f 32/41/32 33/42/33 580/688/580 582/690/582
f 583/691/583 584/692/584 582/690/582 581/689/581
f 585/693/585 32/41/32 582/690/582 584/692/584
f 31/40/31 32/41/32 585/693/585 586/694/586
f 587/695/587 588/696/588 585/693/585 584/692/584
f 589/697/589 586/694/586 585/693/585 588/696/588
f 500/698/500 586/694/586 589/697/589 502/699/502
f 590/700/590 507/598/507 589/697/589 588/696/588
f 504/601/504 502/699/502 589/697/589 507/598/507
f 587/695/587 591/701/591 590/700/590 588/696/588
f 592/702/592 510/604/510 590/700/590 591/701/591
f 508/599/508 507/598/507 590/700/590 510/604/510
f 593/703/593 594/704/594 592/702/592 591/701/591
f 595/705/595 513/706/513 592/702/592 594/704/594
f 511/605/511 510/604/510 592/702/592 513/706/513
f 596/707/596 597/708/597 595/705/595 594/704/594
f 598/709/598 516/614/516 595/710/595 597/711/597
f 514/612/514 513/611/513 595/710/595 516/614/516
f 517/615/517 516/614/516 598/709/598 519/617/519
f 599/712/599 61/72/61 598/709/598 597/711/597
f 60/71/60 519/617/519 598/709/598 61/72/61
f 596/713/596 600/714/600 599/712/599 597/711/597
f 601/715/601 602/716/602 599/712/599 600/714/600
f 58/69/58 61/72/61 599/712/599 602/716/602
f 603/717/603 604/718/604 602/716/602 601/715/601
f 605/719/605 58/69/58 602/716/602 604/718/604
f 606/720/606 211/252/211 605/719/605 604/718/604
f 212/253/212 607/721/607 605/719/605 211/252/211
f 59/70/59 58/69/58 605/719/605 607/721/607
f 56/67/56 55/66/55 607/721/607 212/253/212
f 65/76/65 59/70/59 607/721/607 55/66/55
f 603/717/603 608/722/608 606/720/606 604/718/604
f 609/723/609 206/247/206 606/720/606 608/722/608
f 207/248/207 211/252/211 606/720/606 206/247/206
f 610/724/610 611/725/611 609/723/609 608/722/608
f 72/83/72 201/242/201 609/723/609 611/725/611
f 202/243/202 206/247/206 609/723/609 201/242/201
f 612/726/612 613/727/613 611/725/611 610/724/610
f 73/84/73 72/83/72 611/725/611 613/727/613
f 83/95/83 84/98/84 613/727/613 612/726/612
f 74/85/74 73/84/73 613/727/613 84/98/84
f 614/728/614 83/95/83 612/726/612 615/729/615
f 616/730/616 615/729/615 612/726/612 610/724/610
f 617/731/617 615/729/615 616/730/616 618/732/618
f 608/722/608 603/717/603 616/730/616 610/724/610
f 601/715/601 618/732/618 616/730/616 603/717/603
f 619/733/619 620/734/620 617/735/617 621/736/621
f 614/728/614 615/729/615 617/731/617 620/737/620
f 622/738/622 621/736/621 617/735/617 618/739/618
f 623/740/623 621/736/621 622/738/622 624/741/624
f 601/715/601 600/714/600 622/742/622 618/732/618
f 596/707/596 624/741/624 622/738/622 600/743/600
f 583/691/583 625/744/625 623/740/623 626/745/626
f 619/733/619 621/736/621 623/740/623 625/744/625
f 593/703/593 626/745/626 623/740/623 624/741/624
f 581/689/581 627/746/627 625/744/625 583/691/583
f 628/747/628 619/733/619 625/744/625 627/746/627
f 629/748/629 630/749/630 628/747/628 627/746/627
f 185/223/185 631/750/631 628/747/628 630/749/630
f 620/734/620 619/733/619 628/747/628 631/750/631
f 186/225/186 632/751/632 631/750/631 185/223/185
f 614/752/614 620/734/620 631/750/631 632/751/632
f 80/91/80 82/94/82 632/751/632 186/225/186
f 83/95/83 614/728/614 632/753/632 82/96/82
f 633/754/633 180/216/180 630/749/630 629/748/629
f 181/218/181 185/223/185 630/749/630 180/216/180
f 577/685/577 175/209/175 633/754/633 578/686/578
f 176/211/176 180/216/180 633/754/633 175/209/175
f 579/687/579 578/686/578 633/754/633 629/748/629
f 581/689/581 579/687/579 629/748/629 627/746/627
f 584/692/584 583/691/583 626/745/626 587/695/587
f 591/701/591 587/695/587 626/745/626 593/703/593
f 594/704/594 593/703/593 624/741/624 596/707/596
f 30/38/30 31/40/31 586/694/586 500/698/500
f 574/682/574 170/202/170 577/685/577 575/683/575
f 171/204/171 175/209/175 577/685/577 170/202/170
f 634/755/634 166/196/166 574/682/574 572/680/572
f 167/198/167 170/202/170 574/682/574 166/196/166
f 635/756/635 162/188/162 634/755/634 636/757/636
f 163/189/163 166/196/166 634/755/634 162/188/162
f 570/678/570 636/757/636 634/755/634 572/680/572
f 637/758/637 157/178/157 635/759/635 638/760/638
f 158/185/158 162/188/162 635/756/635 157/761/157
f 567/762/567 638/760/638 635/759/635 636/763/636
f 564/669/564 639/764/639 637/758/637 638/760/638
f 640/765/640 152/173/152 637/758/637 639/764/639
f 153/174/153 157/178/157 637/758/637 152/173/152
f 561/666/561 641/766/641 640/765/640 639/764/639
f 642/767/642 147/168/147 640/765/640 641/766/641
f 148/169/148 152/173/152 640/765/640 147/168/147
f 558/663/558 643/768/643 642/767/642 641/766/641
f 644/769/644 142/163/142 642/767/642 643/768/643
f 143/164/143 147/168/147 642/767/642 142/163/142
f 555/660/555 645/770/645 644/769/644 643/768/643
f 646/771/646 137/158/137 644/769/644 645/770/645
f 138/159/138 142/163/142 644/769/644 137/158/137
f 552/657/552 647/772/647 646/771/646 645/770/645
f 648/773/648 132/153/132 646/771/646 647/772/647
f 133/154/133 137/158/137 646/771/646 132/153/132
f 549/654/549 649/774/649 648/773/648 647/772/647
f 650/775/650 127/145/127 648/773/648 649/774/649
f 128/148/128 132/153/132 648/773/648 127/145/127
f 546/651/546 651/776/651 650/775/650 649/774/649
f 652/777/652 122/778/122 650/775/650 651/776/651
f 123/146/123 127/145/127 650/775/650 122/778/122
f 543/648/543 653/779/653 652/777/652 651/776/651
f 654/780/654 117/135/117 652/781/652 653/782/653
f 118/136/118 122/140/122 652/781/652 117/135/117
f 540/783/540 655/784/655 654/780/654 653/782/653
f 656/785/656 112/130/112 654/780/654 655/784/655
f 113/131/113 117/135/117 654/780/654 112/130/112
f 537/639/537 657/786/657 656/785/656 655/784/655
f 658/787/658 107/125/107 656/785/656 657/786/657
f 108/126/108 112/130/112 656/785/656 107/125/107
f 534/632/534 11/13/11 658/787/658 657/786/657
f 14/16/14 102/120/102 658/787/658 11/13/11
f 103/121/103 107/125/107 658/787/658 102/120/102
f 535/633/535 534/632/534 657/786/657 537/639/537
f 538/640/538 537/639/537 655/784/655 540/783/540
f 541/646/541 540/645/540 653/779/653 543/648/543
f 544/649/544 543/648/543 651/776/651 546/651/546
f 547/652/547 546/651/546 649/774/649 549/654/549
f 550/655/550 549/654/549 647/772/647 552/657/552
f 553/658/553 552/657/552 645/770/645 555/660/555
f 556/661/556 555/660/555 643/768/643 558/663/558
f 559/664/559 558/663/558 641/766/641 561/666/561
f 562/667/562 561/666/561 639/764/639 564/669/564
f 565/670/565 564/669/564 638/760/638 567/762/567
f 568/673/568 567/672/567 636/757/636 570/678/570
f 12/14/12 11/13/11 534/632/534 532/635/532
f 659/788/659 660/789/660 529/627/529 527/625/527
f 16/18/16 15/17/15 529/627/529 660/789/660
f 661/790/661 662/791/662 660/789/660 659/788/659
f 21/105/21 16/18/16 660/789/660 662/791/662
f 663/792/663 86/100/86 662/791/662 661/790/661
f 87/101/87 21/105/21 662/791/662 86/100/86
f 62/73/62 64/75/64 663/792/663 661/790/661
f 65/76/65 46/57/46 663/792/663 64/75/64
f 45/56/45 86/100/86 663/792/663 46/57/46
f 524/622/524 62/73/62 661/790/661 659/788/659
f 525/623/525 524/622/524 659/788/659 527/625/527
f 63/74/63 62/73/62 524/622/524 522/620/522
f 60/71/60 63/74/63 520/618/520 519/617/519
f 234/280/234 664/793/664 339/406/339 338/405/338
f 665/794/665 330/396/330 339/406/339 664/793/664
f 231/276/231 10/12/10 665/794/665 664/793/664
f 2/2/2 1/1/1 665/794/665 10/12/10
f 331/397/331 330/396/330 665/794/665 1/1/1
f 232/277/232 231/276/231 664/793/664 234/280/234
f 235/281/235 234/280/234 338/405/338 237/283/237
f 4/4/4 320/399/320 331/397/331 1/1/1
f 5/5/5 316/795/316 320/399/320 4/4/4
f 7/7/7 666/796/666 311/797/311 6/8/6
f 306/798/306 307/799/307 311/797/311 666/796/666
f 5/378/5 6/800/6 311/373/311 312/374/312
f 219/260/219 667/801/667 666/796/666 7/7/7
f 668/802/668 306/798/306 666/796/666 667/801/667
f 669/803/669 670/804/670 668/802/668 667/801/667
f 671/805/671 301/360/301 668/802/668 670/804/670
f 302/361/302 306/798/306 668/802/668 301/360/301
f 672/806/672 673/807/673 671/805/671 670/804/670
f 674/808/674 296/355/296 671/805/671 673/807/673
f 297/356/297 301/360/301 671/805/671 296/355/296
f 675/809/675 676/810/676 674/808/674 673/807/673
f 677/811/677 291/350/291 674/808/674 676/810/676
f 292/351/292 296/355/296 674/808/674 291/350/291
f 678/812/678 679/813/679 677/811/677 676/810/676
f 41/50/41 286/342/286 677/811/677 679/813/679
f 287/345/287 291/350/291 677/811/677 286/342/286
f 680/814/680 681/815/681 679/813/679 678/812/678
f 42/51/42 41/50/41 679/813/679 681/815/681
f 682/816/682 683/817/683 681/815/681 680/814/680
f 43/54/43 42/51/42 681/815/681 683/817/683
f 172/205/172 43/54/43 683/817/683 684/818/684
f 192/233/192 684/818/684 683/817/683 682/816/682
f 173/206/173 172/205/172 684/818/684 177/212/177
f 190/231/190 177/212/177 684/818/684 192/233/192
f 685/819/685 195/236/195 682/816/682 680/814/680
f 193/234/193 192/233/192 682/816/682 195/236/195
f 196/237/196 195/236/195 685/819/685 686/820/686
f 678/812/678 687/821/687 685/819/685 680/814/680
f 688/822/688 686/820/686 685/819/685 687/821/687
f 203/244/203 686/820/686 688/822/688 689/823/689
f 675/809/675 690/824/690 688/822/688 687/821/687
f 691/825/691 689/823/689 688/822/688 690/824/690
f 208/249/208 689/823/689 691/825/691 214/255/214
f 672/806/672 692/826/692 691/825/691 690/824/690
f 215/256/215 214/255/214 691/825/691 692/826/692
f 670/804/670 669/803/669 692/826/692 672/806/672
f 217/258/217 215/256/215 692/826/692 669/803/669
f 673/807/673 672/806/672 690/824/690 675/809/675
f 204/245/204 203/244/203 689/823/689 208/249/208
f 676/810/676 675/809/675 687/821/687 678/812/678
f 197/238/197 196/237/196 686/820/686 203/244/203
f 219/260/219 217/258/217 669/803/669 667/801/667
f 36/53/36 282/343/282 286/342/286 41/50/41
f 9/11/9 10/12/10 231/276/231 227/268/227
f 89/103/89 88/102/88 229/273/229 91/827/91
f 225/266/225 226/267/226 229/273/229 88/102/88
f 93/111/93 91/107/91 229/828/229 230/279/230
f 49/60/49 50/61/50 225/266/225 88/102/88
f 51/62/51 222/263/222 225/266/225 50/61/50
f 3/3/3 9/11/9 223/270/223 8/829/8
f 7/7/7 8/10/8 220/261/220 219/260/219
f 66/77/66 199/240/199 201/242/201 72/83/72
f 178/213/178 177/212/177 190/231/190 182/219/182
f 44/55/44 43/54/43 172/205/172 168/199/168
f 37/52/37 44/55/44 164/191/164 40/190/40
f 39/48/39 40/49/40 160/181/160 159/180/159
f 17/21/17 98/116/98 102/120/102 14/16/14
f 47/58/47 46/57/46 65/76/65 55/66/55
f 71/82/71 68/79/68 67/78/67
f 78/89/78 67/78/67 75/86/75
