# split from a merged terrain OBJ by scripts/split-terrain-obj-parts.py
o part-043
v -0.125216 0.298717 -0.004856
v -0.120922 0.296777 -0.007346
v -0.117982 0.274544 -0.003442
v -0.124462 0.284522 -0.005320
v -0.099287 0.206418 0.006631
v -0.103655 0.206929 0.005079
v -0.104274 0.196672 0.000621
v -0.100156 0.198678 0.003987
v -0.106547 0.207980 0.002267
v -0.103439 0.197241 -0.002566
v -0.102735 0.208363 -0.003418
v -0.099458 0.207457 -0.002204
v -0.095286 0.206773 -0.000662
v -0.098189 0.199069 -0.001078
v -0.106184 0.209657 -0.005866
v -0.105992 0.201716 -0.005348
v -0.113218 0.287912 0.003586
v -0.118365 0.286022 -0.000104
v -0.111668 0.267785 0.003489
v -0.115575 0.295397 -0.007483
v -0.113694 0.269117 -0.007060
v -0.111631 0.243428 -0.005369
v -0.112153 0.244053 -0.001419
v -0.117665 0.341694 0.004139
v -0.113531 0.345453 0.002362
v -0.115579 0.350711 0.002058
v -0.120323 0.348111 0.003859
v -0.111673 0.357574 0.003325
v -0.117173 0.356739 0.003000
v -0.110669 0.353574 0.001822
v -0.122401 0.355451 0.002641
v -0.111325 0.356804 -0.000453
v -0.116796 0.355560 -0.000751
v -0.105762 0.337000 -0.000194
v -0.099892 0.337089 0.000633
v -0.097734 0.327504 -0.002406
v -0.107122 0.328491 -0.002838
v -0.094323 0.339705 0.000921
v -0.091221 0.335117 -0.001869
v -0.108927 0.315870 -0.004742
v -0.099908 0.313309 -0.004016
v -0.091194 0.311156 -0.004079
v -0.088915 0.323350 -0.003552
v -0.085787 0.331773 -0.003146
v -0.081578 0.343844 0.005592
v -0.086956 0.344425 0.005868
v -0.092699 0.337405 0.006498
v -0.083930 0.337041 0.006223
v -0.089610 0.344718 0.002250
v -0.085426 0.329397 0.006538
v -0.094245 0.329619 0.006505
v -0.102159 0.329972 0.006243
v -0.101079 0.337331 0.005754
v -0.078155 0.361271 0.000566
v -0.083007 0.362274 -0.000940
v -0.080416 0.367245 0.001365
v -0.077166 0.364580 0.001444
v -0.088495 0.363842 0.001121
v -0.084645 0.365253 0.002664
v -0.075842 0.361923 0.004260
v -0.080100 0.362724 0.004905
v -0.084226 0.362056 0.004721
v -0.082199 0.345890 -0.001414
v -0.086397 0.347857 -0.000990
v -0.087734 0.354843 0.000046
v -0.081005 0.351889 -0.000593
v -0.086672 0.349755 0.002688
v -0.084776 0.355902 0.003783
v -0.079772 0.356726 -0.000326
v -0.085584 0.357926 -0.001095
v -0.092516 0.360006 -0.000155
v -0.093509 0.356905 0.002239
v -0.088586 0.361693 0.004317
v -0.093682 0.360003 0.004318
v -0.099704 0.359380 0.003880
v -0.099541 0.359264 -0.000052
v -0.099137 0.356195 0.002129
v -0.121574 0.352786 -0.001528
v -0.124014 0.346127 0.001934
v -0.124755 0.350594 0.002103
v -0.117878 0.340905 -0.003544
v -0.120418 0.347502 -0.002711
v -0.124529 0.330445 -0.003514
v -0.124622 0.339637 -0.002715
v -0.119630 0.330739 -0.004805
v -0.110550 0.341077 0.004472
v -0.111240 0.338905 -0.001813
v -0.113905 0.330008 -0.004256
v -0.124879 0.345941 -0.002337
v -0.123010 0.317776 -0.000167
v -0.117483 0.318525 0.003216
v -0.115106 0.333280 0.004576
v -0.121902 0.331013 0.001485
v -0.111919 0.320047 0.005217
v -0.109076 0.331069 0.005517
v -0.122838 0.339130 0.001783
v -0.106276 0.338505 0.005202
v -0.103544 0.321025 0.006063
v -0.094702 0.321323 0.006468
v -0.113478 0.306123 0.004272
v -0.104518 0.309093 0.006304
v -0.094550 0.310023 0.006792
v -0.086134 0.320938 0.006574
v -0.086707 0.309541 0.006756
v -0.104601 0.291367 0.007609
v -0.094982 0.292442 0.008242
v -0.087381 0.291947 0.006334
v -0.084817 0.309726 0.000460
v -0.086620 0.292295 -0.000239
v -0.096608 0.267747 0.010129
v -0.089879 0.267033 0.007083
v -0.088964 0.266817 0.000279
v -0.092377 0.293458 -0.004272
v -0.094252 0.267661 -0.003587
v -0.092590 0.241201 0.006674
v -0.092086 0.241117 0.000526
v -0.096622 0.241652 -0.002895
v -0.101877 0.268640 -0.004049
v -0.102307 0.242274 -0.003227
v -0.093842 0.221771 0.000024
v -0.097698 0.221986 -0.002556
v -0.102190 0.222366 -0.003484
v -0.106504 0.242699 -0.005722
v -0.106216 0.223045 -0.005895
v -0.108193 0.268105 -0.005828
v -0.110282 0.223425 -0.005030
v -0.110457 0.222929 -0.000363
v -0.110329 0.209694 -0.005319
v -0.109636 0.209193 -0.000834
v -0.107253 0.221985 0.003887
v -0.110235 0.202728 -0.004805
v -0.109537 0.201189 -0.001656
v -0.104172 0.241803 0.009634
v -0.108977 0.242453 0.004441
v -0.103800 0.221298 0.008247
v -0.104897 0.267761 0.009472
v -0.097686 0.241577 0.010458
v -0.098373 0.221265 0.009242
v -0.094434 0.221540 0.005351
v -0.096032 0.206645 0.003654
v -0.096980 0.199288 0.002844
v -0.109801 0.295346 -0.005224
v -0.101405 0.294913 -0.004381
v -0.115404 0.316340 -0.005818
v -0.120658 0.317011 -0.006427
v -0.125185 0.317489 -0.005022
v -0.123252 0.300539 -0.000694
v -0.118191 0.302226 0.001543
v -0.122426 0.287911 -0.000567
v -0.083051 0.321237 0.000975
v -0.081566 0.330127 0.001514
v -0.083643 0.339647 -0.002030
v -0.080451 0.337893 0.001890
v -0.079383 0.344494 0.001897
v -0.078118 0.350377 0.001968
v -0.079821 0.350177 0.004798
v -0.076451 0.355571 0.001497
v -0.078175 0.356007 0.003988
v -0.081250 0.356332 0.004415
v -0.083540 0.350231 0.005123
v -0.075672 0.359333 0.000927
v -0.087558 0.341743 -0.001559
v -0.124480 0.350351 -0.001761
v -0.105816 0.358432 0.003621
v -0.104939 0.355052 0.001798
v -0.105563 0.358231 -0.000136
vt 0.081837 0.591884
vt 0.084011 0.590075
vt 0.093956 0.597034
vt 0.087572 0.595730
vt 0.288019 0.019973
vt 0.285390 0.020097
vt 0.282633 0.012873
vt 0.285929 0.015768
vt 0.125248 0.612814
vt 0.132922 0.608843
vt 0.134493 0.609534
vt 0.126652 0.613798
vt 0.130017 0.603119
vt 0.131868 0.602594
vt 0.293287 0.015212
vt 0.288499 0.015167
vt 0.293729 0.012655
vt 0.127440 0.603449
vt 0.128968 0.606115
vt 0.085759 0.602728
vt 0.086951 0.599497
vt 0.096057 0.603503
vt 0.086134 0.587978
vt 0.097835 0.594980
vt 0.109794 0.600581
vt 0.108614 0.602900
vt 0.058827 0.590423
vt 0.056259 0.592113
vt 0.054173 0.589565
vt 0.056073 0.587649
vt 0.914454 0.978316
vt 0.917888 0.977750
vt 0.917882 0.980730
vt 0.914732 0.980900
vt 0.052929 0.584241
vt 0.051403 0.587108
vt 0.914268 0.976150
vt 0.914275 0.973943
vt 0.917211 0.973147
vt 0.917560 0.975360
vt 0.067535 0.574958
vt 0.068824 0.571947
vt 0.074176 0.573229
vt 0.071528 0.577541
vt 0.854773 0.792113
vt 0.857501 0.789107
vt 0.861284 0.792358
vt 0.855925 0.795427
vt 0.077783 0.580168
vt 0.081105 0.576202
vt 0.083957 0.572092
vt 0.078250 0.569501
vt 0.859763 0.785322
vt 0.865019 0.786185
vt 0.852157 0.779152
vt 0.850424 0.776314
vt 0.852736 0.773343
vt 0.856162 0.778097
vt 0.848175 0.774303
vt 0.848217 0.772029
vt 0.060904 0.608312
vt 0.056423 0.608121
vt 0.057953 0.603703
vt 0.061984 0.604153
vt 0.062652 0.600426
vt 0.058734 0.599939
vt 0.056469 0.600860
vt 0.055086 0.603555
vt 0.895759 0.976498
vt 0.898333 0.975351
vt 0.897808 0.977852
vt 0.896133 0.977820
vt 0.901006 0.977333
vt 0.899541 0.978563
vt 0.895365 0.979171
vt 0.897116 0.980007
vt 0.899212 0.980754
vt 0.851461 0.784458
vt 0.850565 0.787358
vt 0.846631 0.787986
vt 0.848055 0.783813
vt 0.898961 0.986415
vt 0.898323 0.983325
vt 0.901775 0.984254
vt 0.899251 0.987829
vt 0.895506 0.974632
vt 0.894113 0.973526
vt 0.897508 0.970149
vt 0.898102 0.972789
vt 0.903423 0.975848
vt 0.902854 0.973370
vt 0.901789 0.979601
vt 0.904567 0.979412
vt 0.904678 0.981899
vt 0.907705 0.978992
vt 0.907473 0.976452
vt 0.907515 0.974134
vt 0.920552 0.974689
vt 0.920665 0.977284
vt 0.057504 0.585899
vt 0.055736 0.584564
vt 0.062734 0.580919
vt 0.058706 0.581400
vt 0.057529 0.577988
vt 0.060444 0.577009
vt 0.055620 0.581287
vt 0.054433 0.578794
vt 0.066231 0.586368
vt 0.061686 0.584880
vt 0.067372 0.583618
vt 0.062871 0.575452
vt 0.065262 0.577739
vt 0.069038 0.580708
vt 0.058559 0.583721
vt 0.071600 0.591330
vt 0.070428 0.594653
vt 0.062750 0.593037
vt 0.064938 0.589240
vt 0.068948 0.597496
vt 0.063164 0.596712
vt 0.060754 0.587576
vt 0.059054 0.596674
vt 0.058238 0.594271
vt 0.065121 0.573451
vt 0.066478 0.570421
vt 0.067505 0.601640
vt 0.066072 0.605719
vt 0.076326 0.599491
vt 0.073547 0.603522
vt 0.071623 0.608266
vt 0.064832 0.609730
vt 0.070460 0.611959
vt 0.082471 0.607431
vt 0.080999 0.611954
vt 0.079509 0.615631
vt 0.872099 0.781630
vt 0.872320 0.777761
vt 0.882506 0.778373
vt 0.882534 0.780782
vt 0.093570 0.613892
vt 0.092551 0.618015
vt 0.897420 0.778988
vt 0.896983 0.776072
vt 0.882269 0.783466
vt 0.896725 0.783027
vt 0.912236 0.774569
vt 0.912170 0.777216
vt 0.115363 0.592440
vt 0.103870 0.584770
vt 0.106307 0.583774
vt 0.116772 0.590817
vt 0.101553 0.588560
vt 0.113359 0.595334
vt 0.300391 0.021552
vt 0.300246 0.018564
vt 0.312659 0.014903
vt 0.313103 0.017067
vt 0.121906 0.599014
vt 0.124049 0.597700
vt 0.111839 0.597957
vt 0.120438 0.601678
vt 0.099808 0.591993
vt 0.119030 0.604164
vt 0.118517 0.606196
vt 0.125271 0.606599
vt 0.124731 0.610321
vt 0.118340 0.608605
vt 0.128649 0.607485
vt 0.129044 0.608504
vt 0.108242 0.611898
vt 0.108644 0.607222
vt 0.118370 0.613463
vt 0.291731 0.027253
vt 0.289880 0.028271
vt 0.283219 0.021198
vt 0.094838 0.609206
vt 0.106762 0.615867
vt 0.106092 0.619128
vt 0.293806 0.026594
vt 0.297235 0.040237
vt 0.294139 0.042038
vt 0.295744 0.025144
vt 0.299420 0.038496
vt 0.923468 0.774076
vt 0.923727 0.775882
vt 0.290462 0.019190
vt 0.287252 0.015788
vt 0.087616 0.584761
vt 0.090011 0.580523
vt 0.092637 0.576353
vt 0.075796 0.583573
vt 0.074033 0.586229
vt 0.072839 0.588642
vt 0.080175 0.594469
vt 0.078806 0.597238
vt 0.086443 0.597593
vt 0.872322 0.786321
vt 0.865421 0.781734
vt 0.865707 0.778110
vt 0.860014 0.781604
vt 0.860695 0.777972
vt 0.854997 0.784837
vt 0.855585 0.781500
vt 0.851847 0.781671
vt 0.848527 0.781229
vt 0.848570 0.779522
vt 0.845585 0.780540
vt 0.845358 0.779205
vt 0.845086 0.777776
vt 0.847701 0.777311
vt 0.896722 0.985748
vt 0.895205 0.982381
vt 0.846468 0.775334
vt 0.893341 0.980155
vt 0.894191 0.977787
vt 0.892758 0.977448
vt 0.891878 0.974220
vt 0.853726 0.787721
vt 0.849083 0.789881
vt 0.851779 0.790740
vt 0.056334 0.582947
vt 0.907952 0.981400
vt 0.911166 0.978694
vt 0.911397 0.981134
vt 0.910871 0.976338
vt 0.910858 0.973984
vn -0.9270 -0.0476 -0.3719
vn -0.2063 -0.0377 -0.9778
vn -0.9669 -0.2324 -0.1051
vn -0.8814 -0.3605 -0.3053
vn 0.1608 -0.2542 0.9537
vn -0.6337 -0.2282 0.7391
vn -0.4339 -0.9009 -0.0121
vn 0.1118 -0.6926 0.7127
vn -0.7374 -0.2074 0.6429
vn 0.0319 -0.8693 -0.4932
vn 0.5573 -0.0999 -0.8243
vn 0.3943 -0.1328 -0.9093
vn 0.8101 -0.1709 -0.5609
vn 0.5149 -0.5965 -0.6157
vn 0.2212 -0.0366 -0.9746
vn 0.0923 -0.3896 -0.9164
vn -0.5365 -0.0353 0.8432
vn -0.5584 -0.1716 0.8116
vn -0.7166 -0.0557 0.6953
vn 0.0173 -0.0085 -0.9998
vn -0.3478 -0.0887 -0.9334
vn -0.6124 -0.0847 -0.7860
vn -0.9820 -0.1116 0.1526
vn -0.1521 0.0476 0.9872
vn 0.7714 0.5861 0.2479
vn 0.9386 -0.0869 0.3339
vn -0.1016 0.0291 0.9944
vn -0.1102 0.6576 0.7452
vn -0.1280 0.7966 0.5908
vn 0.2865 -0.9507 0.1190
vn -0.5023 0.7490 0.4321
vn 0.0021 0.3962 -0.9181
vn 0.0565 0.5079 -0.8596
vn 0.2788 0.6681 -0.6898
vn -0.0686 0.7931 -0.6053
vn -0.0192 0.1796 -0.9835
vn 0.1688 0.1812 -0.9688
vn -0.4996 0.7620 -0.4121
vn -0.1914 0.2370 -0.9525
vn 0.1627 0.0735 -0.9839
vn 0.0370 0.0581 -0.9976
vn 0.2852 0.0028 -0.9585
vn 0.2755 0.0078 -0.9613
vn 0.3318 0.0081 -0.9433
vn 0.5102 -0.0587 0.8581
vn -0.3332 0.3025 0.8930
vn -0.2200 0.3857 0.8960
vn 0.4482 -0.0565 0.8922
vn -0.8339 0.5510 -0.0316
vn 0.4492 -0.0641 0.8911
vn -0.0254 0.0139 0.9996
vn -0.0729 0.0266 0.9970
vn -0.0733 0.6905 0.7196
vn 0.4566 0.1483 -0.8772
vn 0.0219 0.3171 -0.9481
vn 0.1812 0.9708 -0.1570
vn 0.6821 0.6765 -0.2775
vn -0.4334 0.8399 -0.3266
vn -0.3085 0.9224 0.2325
vn 0.7927 0.2567 0.5529
vn 0.1024 0.3236 0.9406
vn -0.2350 0.2193 0.9469
vn 0.3709 0.0112 -0.9286
vn -0.5369 0.2261 -0.8128
vn -0.7550 -0.4463 -0.4804
vn 0.3028 -0.0510 -0.9517
vn -0.8594 0.2402 0.4513
vn -0.4707 -0.1015 0.8765
vn 0.2625 -0.0761 -0.9619
vn -0.0756 -0.0128 -0.9971
vn -0.3920 0.3990 -0.8290
vn 0.0062 -0.9937 0.1121
vn -0.4152 0.2773 0.8664
vn -0.1822 0.3594 0.9152
vn -0.1065 0.5245 0.8447
vn -0.0367 0.4615 -0.8864
vn 0.1187 -0.9913 0.0573
vn -0.2007 0.5043 -0.8398
vn -0.7764 -0.0813 0.6250
vn -0.8657 0.2117 0.4535
vn 0.2200 0.2377 -0.9461
vn 0.2302 0.1495 -0.9616
vn -0.9026 0.0746 -0.4239
vn -0.8663 -0.0017 -0.4995
vn -0.0392 0.1255 -0.9913
vn 0.3588 0.7152 0.5998
vn 0.4354 0.4748 -0.7649
vn 0.2028 0.1379 -0.9695
vn -0.8099 0.0166 -0.5863
vn -0.7275 -0.0186 0.6858
vn -0.4025 -0.0388 0.9146
vn -0.2665 0.0151 0.9637
vn -0.6913 -0.0505 0.7208
vn -0.2240 -0.0173 0.9744
vn -0.1430 0.0346 0.9891
vn -0.7104 -0.0985 0.6969
vn 0.1314 0.7483 0.6503
vn -0.0873 0.0021 0.9962
vn -0.0254 0.0097 0.9996
vn -0.3551 -0.0251 0.9345
vn -0.1460 0.0262 0.9889
vn 0.0021 0.0371 0.9993
vn 0.5116 -0.0575 0.8573
vn 0.6140 -0.0382 0.7884
vn -0.2486 0.0488 0.9674
vn 0.0817 0.0520 0.9953
vn 0.7408 -0.0377 0.6706
vn 0.9412 -0.0819 -0.3276
vn 0.9145 -0.0773 -0.3971
vn 0.1650 0.0207 0.9861
vn 0.8030 -0.0624 0.5927
vn 0.9110 -0.1009 -0.3999
vn 0.3089 -0.0259 -0.9507
vn 0.3265 -0.0512 -0.9438
vn 0.8555 -0.0919 0.5096
vn 0.9091 -0.0935 -0.4060
vn 0.3466 -0.0395 -0.9372
vn 0.1581 -0.0125 -0.9873
vn 0.2738 -0.0077 -0.9617
vn 0.8962 -0.0846 -0.4356
vn 0.3628 -0.0302 -0.9314
vn 0.3637 -0.0102 -0.9315
vn 0.2114 -0.0079 -0.9774
vn 0.2010 0.0014 -0.9796
vn 0.2258 -0.0034 -0.9742
vn -0.7486 -0.0361 -0.6621
vn -0.9507 -0.0667 0.3028
vn -0.7843 -0.0375 -0.6193
vn -0.8731 -0.1192 0.4727
vn -0.7835 -0.0886 0.6151
vn -0.7643 -0.3143 -0.5631
vn -0.7662 -0.5676 0.3012
vn -0.4505 -0.0402 0.8919
vn -0.7862 -0.0628 0.6147
vn -0.5023 -0.1178 0.8566
vn -0.3734 0.0201 0.9274
vn 0.2352 -0.0473 0.9708
vn 0.2591 -0.1369 0.9561
vn 0.8815 -0.1213 0.4564
vn 0.8762 -0.2070 0.4352
vn 0.7540 -0.5616 0.3407
vn 0.2097 0.0231 -0.9775
vn 0.0771 0.0055 -0.9970
vn 0.1568 0.0782 -0.9845
vn -0.1319 0.0799 -0.9880
vn -0.9138 0.0631 -0.4013
vn -0.6889 -0.0389 0.7238
vn -0.4405 -0.0533 0.8962
vn -0.6272 -0.1525 0.7638
vn 0.9674 -0.1336 -0.2150
vn 0.9829 -0.1579 -0.0943
vn 0.3741 0.0115 -0.9273
vn 0.9843 -0.1677 -0.0554
vn 0.9773 -0.1788 -0.1136
vn 0.9668 -0.2047 -0.1528
vn 0.5289 -0.0517 0.8471
vn 0.9270 -0.2502 -0.2793
vn 0.5449 -0.1358 0.8274
vn -0.0400 -0.0067 0.9992
vn -0.2152 0.1675 0.9621
vn 0.8893 -0.0818 -0.4500
vn -0.3153 0.2610 -0.9124
vn -0.7350 0.2792 -0.6179
vn -0.1246 0.5552 0.8223
vn 0.1935 -0.9801 0.0448
vn -0.0344 0.4570 -0.8888
f 1/1/1 2/2/2 3/3/3 4/4/4
f 5/5/5 6/6/6 7/7/7 8/8/8
f 9/9/9 10/10/10 7/11/7 6/12/6
f 11/13/11 12/14/12 7/11/7 10/10/10
f 13/15/13 14/16/14 7/7/7 12/17/12
f 15/18/15 11/13/11 10/10/10 16/19/16
f 17/20/17 18/21/18 3/3/3 19/22/19
f 20/23/20 21/24/21 3/3/3 2/2/2
f 22/25/22 23/26/23 3/3/3 21/24/21
f 24/27/24 25/28/25 26/29/26 27/30/27
f 28/31/28 29/32/29 26/33/26 30/34/30
f 31/35/31 27/30/27 26/29/26 29/36/29
f 32/37/32 30/38/30 26/39/26 33/40/33
f 34/41/34 35/42/35 36/43/36 37/44/37
f 38/45/38 39/46/39 36/47/36 35/48/35
f 40/49/40 37/44/37 36/43/36 41/50/41
f 42/51/42 41/50/41 36/43/36 43/52/43
f 44/53/44 43/54/43 36/47/36 39/46/39
f 45/55/45 46/56/46 47/57/47 48/58/48
f 49/59/49 38/60/38 47/57/47 46/56/46
f 50/61/50 48/62/48 47/63/47 51/64/51
f 52/65/52 51/64/51 47/63/47 53/66/53
f 35/67/35 53/66/53 47/63/47 38/68/38
f 54/69/54 55/70/55 56/71/56 57/72/57
f 58/73/58 59/74/59 56/71/56 55/70/55
f 60/75/60 57/72/57 56/71/56 61/76/61
f 62/77/62 61/76/61 56/71/56 59/74/59
f 63/78/63 64/79/64 65/80/65 66/81/66
f 67/82/67 68/83/68 65/84/65 64/85/64
f 69/86/69 66/87/66 65/88/65 70/89/70
f 71/90/71 70/89/70 65/88/65 72/91/72
f 62/77/62 73/92/73 65/84/65 68/83/68
f 74/93/74 72/94/72 65/84/65 73/92/73
f 55/70/55 70/89/70 71/90/71 58/73/58
f 73/92/73 58/73/58 71/90/71 74/93/74
f 75/95/75 74/93/74 71/90/71 76/96/76
f 77/97/77 76/96/76 71/90/71 72/91/72
f 33/40/33 78/98/78 31/99/31 29/32/29
f 79/100/79 27/30/27 31/35/31 80/101/80
f 81/102/81 82/103/82 26/104/26 25/105/25
f 78/106/78 33/107/33 26/104/26 82/103/82
f 83/108/83 84/109/84 81/102/81 85/110/85
f 86/111/86 87/112/87 81/102/81 25/105/25
f 88/113/88 85/110/85 81/102/81 87/112/87
f 89/114/89 82/103/82 81/102/81 84/109/84
f 90/115/90 91/116/91 92/117/92 93/118/93
f 94/119/94 95/120/95 92/117/92 91/116/91
f 96/121/96 93/118/93 92/117/92 24/27/24
f 97/122/97 86/123/86 92/117/92 95/120/95
f 25/28/25 24/27/24 92/117/92 86/123/86
f 35/42/35 34/41/34 97/124/97 53/125/53
f 87/112/87 86/111/86 97/124/97 34/41/34
f 52/65/52 53/66/53 97/122/97 95/120/95
f 27/30/27 79/100/79 96/121/96 24/27/24
f 89/114/89 84/109/84 96/121/96 79/100/79
f 83/108/83 93/118/93 96/121/96 84/109/84
f 98/126/98 52/65/52 95/120/95 94/119/94
f 51/64/51 52/65/52 98/126/98 99/127/99
f 100/128/100 101/129/101 98/126/98 94/119/94
f 102/130/102 99/127/99 98/126/98 101/129/101
f 103/131/103 99/127/99 102/130/102 104/132/104
f 105/133/105 106/134/106 102/130/102 101/129/101
f 107/135/107 104/132/104 102/130/102 106/134/106
f 108/136/108 104/137/104 107/138/107 109/139/109
f 110/140/110 111/141/111 107/135/107 106/134/106
f 112/142/112 109/139/109 107/138/107 111/143/111
f 113/144/113 109/139/109 112/142/112 114/145/114
f 115/146/115 116/147/116 112/142/112 111/143/111
f 117/148/117 114/149/114 112/150/112 116/151/116
f 118/152/118 114/149/114 117/148/117 119/153/119
f 120/154/120 121/155/121 117/156/117 116/157/116
f 122/158/122 119/153/119 117/148/117 121/159/121
f 123/160/123 119/153/119 122/158/122 124/161/124
f 12/14/12 11/13/11 122/158/122 121/159/121
f 15/18/15 124/161/124 122/158/122 11/13/11
f 21/24/21 125/162/125 123/160/123 22/25/22
f 118/152/118 119/153/119 123/160/123 125/162/125
f 126/163/126 22/25/22 123/160/123 124/161/124
f 23/26/23 22/25/22 126/163/126 127/164/127
f 15/18/15 128/165/128 126/163/126 124/161/124
f 129/166/129 127/164/127 126/163/126 128/165/128
f 130/167/130 127/164/127 129/166/129 9/9/9
f 131/168/131 132/169/132 129/166/129 128/165/128
f 10/10/10 9/9/9 129/166/129 132/169/132
f 133/170/133 134/171/134 130/167/130 135/172/135
f 23/26/23 127/164/127 130/167/130 134/171/134
f 6/6/6 135/173/135 130/174/130 9/175/9
f 136/176/136 19/22/19 134/171/134 133/170/133
f 3/3/3 23/26/23 134/171/134 19/22/19
f 106/134/106 105/133/105 136/176/136 110/140/110
f 17/20/17 19/22/19 136/176/136 105/133/105
f 137/177/137 110/140/110 136/176/136 133/170/133
f 111/141/111 110/140/110 137/177/137 115/178/115
f 135/173/135 138/179/138 137/180/137 133/181/133
f 139/182/139 115/183/115 137/180/137 138/179/138
f 116/147/116 115/146/115 139/184/139 120/185/120
f 5/5/5 140/186/140 139/182/139 138/179/138
f 13/15/13 120/154/120 139/182/139 140/186/140
f 8/8/8 141/187/141 140/186/140 5/5/5
f 14/16/14 13/15/13 140/186/140 141/187/141
f 6/6/6 5/5/5 138/179/138 135/173/135
f 16/19/16 131/168/131 128/165/128 15/18/15
f 20/23/20 142/188/142 125/162/125 21/24/21
f 143/189/143 118/152/118 125/162/125 142/188/142
f 40/49/40 41/50/41 143/189/143 142/188/142
f 42/51/42 113/190/113 143/189/143 41/50/41
f 114/149/114 118/152/118 143/189/143 113/190/113
f 144/191/144 40/49/40 142/188/142 20/23/20
f 2/2/2 145/192/145 144/191/144 20/23/20
f 85/110/85 88/113/88 144/191/144 145/192/145
f 37/44/37 40/49/40 144/191/144 88/113/88
f 1/1/1 146/193/146 145/192/145 2/2/2
f 83/108/83 85/110/85 145/192/145 146/193/146
f 93/118/93 83/108/83 146/193/146 90/115/90
f 147/194/147 90/115/90 146/193/146 1/1/1
f 91/116/91 90/115/90 147/194/147 148/195/148
f 4/4/4 149/196/149 147/194/147 1/1/1
f 18/21/18 148/195/148 147/194/147 149/196/149
f 94/119/94 91/116/91 148/195/148 100/128/100
f 17/20/17 100/128/100 148/195/148 18/21/18
f 13/15/13 12/17/12 121/155/121 120/154/120
f 108/136/108 109/139/109 113/144/113 42/197/42
f 43/54/43 150/198/150 108/136/108 42/197/42
f 103/199/103 104/137/104 108/136/108 150/198/150
f 44/53/44 151/200/151 150/198/150 43/54/43
f 50/201/50 103/199/103 150/198/150 151/200/151
f 152/202/152 153/203/153 151/200/151 44/53/44
f 48/58/48 50/201/50 151/200/151 153/203/153
f 63/78/63 154/204/154 153/203/153 152/202/152
f 45/55/45 48/58/48 153/203/153 154/204/154
f 66/81/66 155/205/155 154/204/154 63/78/63
f 156/206/156 45/55/45 154/204/154 155/205/155
f 157/207/157 158/208/158 156/206/156 155/205/155
f 159/209/159 160/210/160 156/206/156 158/208/158
f 46/56/46 45/55/45 156/206/156 160/210/160
f 68/83/68 67/82/67 160/211/160 159/212/159
f 49/59/49 46/56/46 160/210/160 67/213/67
f 60/75/60 61/76/61 159/212/159 158/214/158
f 62/77/62 68/83/68 159/212/159 61/76/61
f 161/215/161 60/75/60 158/214/158 157/216/157
f 54/69/54 161/215/161 157/216/157 69/86/69
f 66/87/66 69/86/69 157/216/157 155/217/155
f 64/79/64 63/78/63 152/202/152 162/218/162
f 39/46/39 162/218/162 152/202/152 44/53/44
f 67/219/67 64/79/64 162/218/162 49/220/49
f 38/45/38 49/220/49 162/218/162 39/46/39
f 100/128/100 17/20/17 105/133/105 101/129/101
f 51/64/51 99/127/99 103/131/103 50/61/50
f 80/101/80 163/221/163 89/114/89 79/100/79
f 78/106/78 82/103/82 89/114/89 163/221/163
f 34/41/34 37/44/37 88/113/88 87/112/87
f 74/93/74 75/95/75 77/222/77 72/94/72
f 164/223/164 165/224/165 77/222/77 75/95/75
f 166/225/166 76/96/76 77/97/77 165/226/165
f 30/38/30 32/37/32 166/225/166 165/226/165
f 28/31/28 164/223/164 166/225/166 32/37/32
f 75/95/75 76/96/76 166/225/166 164/223/164
f 28/31/28 30/34/30 165/224/165 164/223/164
f 59/74/59 58/73/58 73/92/73 62/77/62
f 55/70/55 54/69/54 69/86/69 70/89/70
f 29/32/29 28/31/28 32/37/32 33/40/33
f 161/215/161 54/69/54 57/72/57 60/75/60
f 141/187/141 8/8/8 7/7/7 14/16/14
f 131/168/131 16/19/16 10/10/10 132/169/132
f 149/196/149 4/4/4 3/3/3 18/21/18
f 163/221/163 80/101/80 31/35/31 78/106/78
