# split from a merged terrain OBJ by scripts/split-terrain-obj-parts.py
o part-081
v 0.500749 0.945083 0.054994
v 0.501329 0.946834 0.049886
v 0.503109 0.950301 0.051246
v 0.503809 0.952248 0.055439
v 0.499352 0.951528 0.047424
v 0.501365 0.953233 0.050165
v 0.494612 0.948585 0.064551
v 0.498682 0.946750 0.062764
v 0.498877 0.957389 0.065825
v 0.495918 0.954875 0.061089
v 0.498952 0.955453 0.054279
v 0.489253 0.950012 0.059776
v 0.487877 0.942785 0.060814
v 0.493504 0.939891 0.065302
v 0.488228 0.939072 0.058037
v 0.495244 0.940301 0.060428
v 0.491175 0.954093 0.056076
v 0.485892 0.951352 0.051633
v 0.484820 0.949535 0.055295
v 0.483596 0.945456 0.049664
v 0.482666 0.945020 0.054942
v 0.481010 0.940132 0.055646
v 0.489990 0.938958 0.052318
v 0.484210 0.939419 0.049864
v 0.496657 0.940839 0.054110
v 0.486713 0.939612 0.046323
v 0.491935 0.939962 0.046673
v 0.498664 0.942525 0.047844
v 0.492758 0.944109 0.042553
v 0.496354 0.948114 0.043475
v 0.486444 0.946422 0.044870
v 0.490280 0.952070 0.046494
v 0.494842 0.954525 0.050921
vt 0.987740 0.525550
vt 0.989183 0.522879
vt 0.991666 0.523257
vt 0.992153 0.525514
vt 0.991181 0.520330
vt 0.993024 0.521211
vt 0.981263 0.197321
vt 0.977850 0.197978
vt 0.979524 0.194051
vt 0.982636 0.193731
vt 0.974065 0.196195
vt 0.973872 0.189099
vt 0.980368 0.190548
vt 0.985312 0.197747
vt 0.983564 0.201460
vt 0.980351 0.200921
vt 0.981049 0.204461
vt 0.978031 0.201979
vt 0.986685 0.194883
vt 0.990708 0.198336
vt 0.988415 0.199378
vt 0.989472 0.203591
vt 0.987159 0.202478
vt 0.984864 0.204851
vt 0.979080 0.207799
vt 0.984883 0.207801
vt 0.974781 0.202167
vt 0.982170 0.516987
vt 0.982967 0.519401
vt 0.979353 0.520092
vt 0.980840 0.515490
vt 0.986143 0.522380
vt 0.983856 0.524413
vt 0.985638 0.518503
vt 0.988250 0.519074
vt 0.985235 0.514996
vt 0.988943 0.515406
vt 0.993042 0.516856
vt 0.994889 0.518972
vt 0.989119 0.512057
vt 0.993211 0.513700
vt 0.985225 0.189550
vt 0.984273 0.512187
vt 0.976073 0.187303
vt 0.979199 0.187073
vn 0.8500 -0.4997 0.1665
vn 0.8814 -0.3147 -0.3522
vn 0.9401 0.0303 -0.3396
vn 0.9468 0.3134 0.0729
vn 0.4986 0.4721 -0.7270
vn 0.5636 0.6411 -0.5209
vn -0.2939 0.1585 0.9426
vn 0.6834 -0.3264 0.6530
vn 0.4376 0.4929 0.7520
vn -0.2717 0.8564 0.4390
vn 0.1726 0.9618 -0.2124
vn -0.6202 0.4641 0.6324
vn -0.6229 -0.1718 0.7632
vn -0.0535 -0.4893 0.8705
vn -0.2280 -0.9061 0.3562
vn 0.4251 -0.8266 0.3689
vn -0.4268 0.8836 0.1924
vn -0.6925 0.7122 -0.1146
vn -0.7913 0.5072 0.3415
vn -0.8950 0.2135 -0.3916
vn -0.9468 0.1803 0.2665
vn -0.8206 -0.5124 0.2530
vn 0.1074 -0.9933 -0.0424
vn -0.6303 -0.7009 -0.3340
vn 0.5417 -0.8396 0.0410
vn -0.4062 -0.6931 -0.5955
vn 0.1649 -0.8371 -0.5216
vn 0.6781 -0.6197 -0.3952
vn 0.0703 -0.2247 -0.9719
vn 0.3664 0.1851 -0.9119
vn -0.5902 0.1582 -0.7916
vn -0.3085 0.7372 -0.6011
vn -0.0868 0.9371 -0.3381
f 1/1/1 2/2/2 3/3/3 4/4/4
f 5/5/5 6/6/6 3/3/3 2/2/2
f 7/7/7 8/8/8 9/9/9 10/10/10
f 1/11/1 4/12/4 9/9/9 8/8/8
f 11/13/11 10/10/10 9/9/9 4/12/4
f 12/14/12 13/15/13 14/16/14 7/7/7
f 15/17/15 16/18/16 14/16/14 13/15/13
f 8/8/8 7/7/7 14/16/14 16/18/16
f 17/19/17 18/20/18 19/21/19 12/14/12
f 20/22/20 21/23/21 19/21/19 18/20/18
f 13/15/13 12/14/12 19/21/19 21/23/21
f 13/15/13 21/23/21 22/24/22 15/17/15
f 23/25/23 15/17/15 22/24/22 24/26/24
f 20/22/20 24/26/24 22/24/22 21/23/21
f 16/18/16 15/17/15 23/25/23 25/27/25
f 26/28/26 27/29/27 23/30/23 24/31/24
f 28/32/28 25/33/25 23/30/23 27/29/27
f 1/1/1 25/33/25 28/32/28 2/2/2
f 29/34/29 30/35/30 28/32/28 27/29/27
f 5/5/5 2/2/2 28/32/28 30/35/30
f 31/36/31 32/37/32 30/35/30 29/34/29
f 33/38/33 5/5/5 30/35/30 32/37/32
f 6/6/6 5/5/5 33/38/33 11/39/11
f 18/40/18 17/41/17 33/38/33 32/37/32
f 10/10/10 11/13/11 33/42/33 17/19/17
f 20/43/20 18/40/18 32/37/32 31/36/31
f 8/8/8 16/18/16 25/27/25 1/11/1
f 31/36/31 26/28/26 24/31/24 20/43/20
f 7/7/7 10/10/10 17/19/17 12/14/12
f 11/13/11 4/12/4 3/44/3 6/45/6
f 26/28/26 31/36/31 29/34/29 27/29/27
