# split from a merged terrain OBJ by scripts/split-terrain-obj-parts.py
o part-023
v 0.235962 0.500819 -0.043695
v 0.234167 0.504974 -0.036510
v 0.236699 0.511634 -0.035535
v 0.242926 0.508888 -0.037187
v 0.229160 0.486005 -0.081891
v 0.226192 0.484962 -0.086340
v 0.224940 0.486285 -0.086173
v 0.226915 0.488707 -0.081642
v 0.223872 0.486767 -0.080285
v 0.223404 0.485639 -0.085517
v 0.224811 0.484085 -0.085397
v 0.226248 0.483668 -0.080459
v 0.318048 0.519899 -0.024189
v 0.317574 0.515147 -0.028002
v 0.307883 0.519597 -0.031229
v 0.311280 0.525300 -0.033308
v 0.290279 0.518402 -0.033018
v 0.300230 0.522400 -0.036006
v 0.299634 0.510466 -0.029991
v 0.314804 0.508870 -0.030395
v 0.419476 0.568778 -0.015229
v 0.429602 0.572513 -0.022912
v 0.431249 0.573244 -0.031441
v 0.416327 0.572148 -0.020876
v 0.418790 0.557266 -0.025764
v 0.415570 0.563122 -0.027748
v 0.428862 0.565278 -0.030244
v 0.334258 0.533859 -0.011763
v 0.328498 0.539450 -0.016382
v 0.342980 0.540443 -0.012997
v 0.347943 0.543911 -0.009077
v 0.336817 0.551921 -0.010174
v 0.348731 0.551197 -0.008292
v 0.358568 0.556280 -0.003932
v 0.361689 0.550645 -0.005186
v 0.340518 0.554412 -0.001943
v 0.363307 0.545060 0.000549
v 0.347621 0.539317 -0.000248
v 0.332112 0.527791 -0.004404
v 0.366731 0.487866 -0.078842
v 0.367703 0.488948 -0.084022
v 0.369540 0.488614 -0.087284
v 0.369792 0.487129 -0.078810
v 0.370026 0.489756 -0.078559
v 0.369636 0.490268 -0.084047
v 0.368984 0.484673 -0.052324
v 0.371194 0.490260 -0.054004
v 0.373980 0.491843 -0.050065
v 0.371496 0.485886 -0.046173
v 0.362899 0.493126 -0.052560
v 0.365163 0.494834 -0.047156
v 0.366698 0.495422 -0.042123
v 0.372877 0.494312 -0.043744
v 0.364022 0.486899 -0.043100
v 0.361279 0.486006 -0.050580
v 0.369245 0.483961 -0.060764
v 0.363379 0.485623 -0.061290
v 0.364479 0.491303 -0.061605
v 0.354353 0.490212 -0.040404
v 0.351764 0.490353 -0.045666
v 0.352243 0.495497 -0.048355
v 0.370226 0.489310 -0.060982
v 0.355556 0.498000 -0.044561
v 0.335185 0.509453 -0.030822
v 0.327238 0.511528 -0.017094
v 0.336036 0.504799 -0.027567
v 0.335540 0.516032 -0.005817
v 0.330398 0.509886 -0.005527
v 0.330504 0.520285 -0.011711
v 0.319456 0.504634 -0.008104
v 0.321066 0.501931 -0.018976
v 0.325494 0.526929 -0.016279
v 0.333008 0.500102 -0.029598
v 0.332764 0.509602 -0.035725
v 0.301753 0.501578 -0.026050
v 0.315045 0.503082 -0.028931
v 0.305026 0.494973 -0.018836
v 0.329639 0.500418 -0.035144
v 0.306329 0.497165 -0.008854
v 0.398465 0.500830 0.023537
v 0.399346 0.495235 0.028012
v 0.393826 0.491668 0.030445
v 0.392188 0.494781 0.020928
v 0.400385 0.499115 0.032538
v 0.391194 0.496859 0.035222
v 0.383951 0.499582 0.031714
v 0.385133 0.492825 0.028424
v 0.386963 0.506304 0.030169
v 0.393364 0.505655 0.033326
v 0.381689 0.492589 0.018880
v 0.384354 0.498001 0.016852
v 0.386055 0.490428 0.022563
v 0.383754 0.504790 0.020212
v 0.391254 0.504039 0.025267
v 0.397127 0.503001 0.029266
v 0.317182 0.535921 -0.016648
v 0.302954 0.534777 -0.022929
v 0.335785 0.520277 -0.001119
v 0.330992 0.518493 0.006280
v 0.329834 0.532368 0.007072
v 0.347542 0.511869 0.000191
v 0.346203 0.507771 0.001076
v 0.344604 0.507365 0.005651
v 0.329157 0.507672 0.001884
v 0.318636 0.505152 -0.000338
v 0.346890 0.539717 0.009101
v 0.344513 0.549019 0.015018
v 0.326442 0.544433 0.016918
v 0.308694 0.537519 0.017134
v 0.314546 0.525724 0.012067
v 0.317157 0.515220 0.009463
v 0.324915 0.548178 -0.010742
v 0.324149 0.551941 -0.001870
v 0.288548 0.495425 -0.026768
v 0.280510 0.501150 -0.029967
v 0.274398 0.512081 -0.030345
v 0.347616 0.515871 0.003501
v 0.345646 0.516208 0.009252
v 0.344154 0.510664 0.009886
v 0.329379 0.510167 0.007637
v 0.317847 0.507724 0.006725
v 0.305112 0.529909 -0.035005
v 0.305273 0.526782 -0.037422
v 0.297350 0.529045 -0.032445
v 0.311146 0.543911 -0.010560
v 0.299367 0.541988 -0.012201
v 0.286370 0.527807 -0.029109
v 0.286729 0.536121 -0.019395
v 0.269622 0.522177 -0.026957
v 0.265019 0.532071 -0.016433
v 0.273017 0.535296 -0.005936
v 0.288956 0.543075 -0.004383
v 0.286844 0.491890 -0.028713
v 0.276818 0.494625 -0.032781
v 0.275051 0.482536 -0.022115
v 0.265629 0.490675 -0.029086
v 0.259714 0.506329 -0.033061
v 0.307151 0.545989 -0.002095
v 0.292944 0.489557 -0.019278
v 0.285448 0.483831 -0.019398
v 0.276408 0.534287 0.007892
v 0.290033 0.539642 0.007344
v 0.247679 0.579809 -0.025105
v 0.250107 0.578552 -0.021005
v 0.253189 0.577057 -0.023433
v 0.252112 0.577744 -0.027573
v 0.253985 0.564465 -0.022954
v 0.255444 0.564696 -0.017015
v 0.249735 0.569563 -0.013007
v 0.247293 0.574841 -0.028874
v 0.246820 0.577373 -0.028819
v 0.248071 0.563363 -0.026019
v 0.243202 0.565018 -0.022613
v 0.243692 0.568518 -0.016351
v 0.260434 0.541883 -0.006329
v 0.257302 0.545018 -0.017680
v 0.252211 0.516481 -0.028393
v 0.250817 0.529557 -0.021646
v 0.249097 0.545710 -0.022425
v 0.297820 0.503497 0.015636
v 0.288363 0.494529 0.018495
v 0.293080 0.491741 0.009765
v 0.297501 0.498154 0.008653
v 0.295145 0.494067 0.001061
v 0.288488 0.487953 0.003391
v 0.281653 0.487460 0.007409
v 0.249453 0.503947 -0.038804
v 0.252864 0.492950 -0.037196
v 0.275342 0.481589 -0.004149
v 0.259720 0.481543 -0.013145
v 0.247522 0.485230 -0.032491
v 0.305309 0.510722 0.011693
v 0.301986 0.518386 0.016236
v 0.289933 0.508807 0.021011
v 0.294707 0.530874 0.018626
v 0.283134 0.524538 0.020563
v 0.272213 0.518565 0.024259
v 0.276535 0.504067 0.023244
v 0.281692 0.496784 0.016467
v 0.249378 0.527316 0.007490
v 0.261470 0.526534 0.011404
v 0.249418 0.549546 -0.001177
v 0.239676 0.515061 -0.019753
v 0.241833 0.527401 -0.015791
v 0.242809 0.500628 -0.047653
v 0.233887 0.498811 -0.027611
v 0.236453 0.487534 -0.027627
v 0.275254 0.489284 0.012825
v 0.236485 0.494999 -0.060265
v 0.230774 0.492556 -0.057919
v 0.243543 0.482224 -0.013359
v 0.246164 0.482126 0.007162
v 0.261650 0.482066 0.013675
v 0.270168 0.485120 0.011874
v 0.285200 0.485250 -0.006619
v 0.246010 0.511459 0.013531
v 0.251310 0.513100 0.025590
v 0.261714 0.512717 0.029010
v 0.240820 0.526546 -0.001372
v 0.239445 0.512755 0.000925
v 0.237127 0.501565 0.003057
v 0.235727 0.503528 -0.015584
v 0.234438 0.505311 -0.027191
v 0.269847 0.487960 0.018946
v 0.267439 0.485891 0.022167
v 0.266823 0.489794 0.023366
v 0.273173 0.493983 0.020245
v 0.261364 0.489361 0.031482
v 0.255252 0.483267 0.026154
v 0.240945 0.483250 0.021892
v 0.245859 0.522863 0.037515
v 0.253874 0.516424 0.038025
v 0.267608 0.501397 0.028158
v 0.262496 0.500714 0.035287
v 0.257129 0.501804 0.049280
v 0.254182 0.519992 0.052000
v 0.240702 0.501933 0.017710
v 0.235404 0.511627 0.034615
v 0.237682 0.524235 0.042023
v 0.247039 0.557882 0.047414
v 0.247657 0.556803 0.042847
v 0.246014 0.564650 0.041280
v 0.245392 0.567243 0.043146
v 0.244495 0.567623 0.039723
v 0.244267 0.565730 0.039558
v 0.244680 0.556006 0.040253
v 0.241933 0.563725 0.040069
v 0.241171 0.566209 0.041709
v 0.239372 0.557097 0.045640
v 0.240599 0.556099 0.041395
v 0.244453 0.521739 0.058501
v 0.244292 0.502632 0.059810
v 0.235998 0.523076 0.051282
v 0.232673 0.505466 0.051744
v 0.253725 0.489137 0.045824
v 0.243401 0.488989 0.057941
v 0.232319 0.487006 0.066785
v 0.232071 0.493105 0.065005
v 0.228146 0.493875 0.060054
v 0.236086 0.482211 0.055398
v 0.228090 0.488444 0.055355
v 0.230391 0.490908 0.042161
v 0.245482 0.481917 0.043150
v 0.224404 0.487706 0.064441
v 0.220976 0.486736 0.069513
v 0.220635 0.487767 0.069490
v 0.223226 0.490026 0.066617
v 0.222621 0.485957 0.069717
v 0.221784 0.487688 0.070417
v 0.224287 0.488994 0.069046
v 0.366877 0.490983 -0.078598
v 0.367262 0.490918 -0.083589
v 0.365130 0.486489 -0.070480
v 0.366019 0.490856 -0.070288
v 0.370406 0.489125 -0.069885
v 0.369992 0.485088 -0.070035
v 0.228133 0.484577 0.064638
v 0.225992 0.487213 0.069518
v 0.236919 0.492269 0.019603
v 0.230920 0.498947 0.033682
v 0.236508 0.490143 0.003815
v 0.235599 0.492913 -0.013702
v 0.243349 0.542986 0.054535
v 0.237806 0.542345 0.049895
v 0.239081 0.541600 0.043049
v 0.245407 0.541493 0.039864
v 0.249843 0.540801 0.043061
v 0.249990 0.542505 0.051513
v 0.242756 0.558126 0.049011
v 0.242650 0.565317 0.045003
v 0.241991 0.549438 -0.007367
v 0.241639 0.547121 -0.016811
v 0.293900 0.490507 -0.008038
v 0.306753 0.499990 -0.000525
v 0.306863 0.503769 0.006989
v 0.230509 0.491726 -0.073190
v 0.225403 0.489127 -0.070919
v 0.229259 0.484739 -0.071363
v 0.235333 0.485888 -0.058607
v 0.241830 0.486613 -0.045354
v 0.240564 0.489551 -0.061401
v 0.246828 0.492214 -0.047421
v 0.234009 0.487555 -0.073631
v 0.305220 0.546095 0.008950
v 0.323298 0.553604 0.009929
v 0.341605 0.556713 0.008559
v 0.363740 0.554002 0.011600
v 0.360216 0.559423 0.005371
v 0.384927 0.559073 0.003337
v 0.381675 0.563666 -0.001620
v 0.379226 0.561670 -0.008255
v 0.402100 0.568208 -0.012348
v 0.399173 0.564859 -0.018069
v 0.399696 0.557915 -0.019731
v 0.380099 0.555103 -0.009887
v 0.401965 0.552904 -0.015838
v 0.383023 0.550846 -0.004789
v 0.405011 0.556054 -0.009444
v 0.385469 0.552604 0.001162
v 0.364927 0.546204 0.008231
v 0.405110 0.563938 -0.006986
v 0.419920 0.560336 -0.017892
v 0.428154 0.563008 -0.021107
v 0.410518 0.567554 -0.023699
v 0.359080 0.502834 0.010236
v 0.358798 0.506850 0.014425
v 0.360936 0.512483 0.014228
v 0.370213 0.503089 0.020727
v 0.372411 0.509075 0.020042
v 0.375224 0.507001 0.014755
v 0.363045 0.511639 0.008507
v 0.375602 0.501047 0.011175
v 0.362777 0.506686 0.005104
v 0.373236 0.494485 0.011699
v 0.360775 0.502083 0.005544
v 0.370478 0.497325 0.017084
v 0.378730 0.494316 0.023832
v 0.377958 0.500854 0.027087
v 0.380371 0.507111 0.025402
v 0.329341 0.504798 -0.038224
v 0.342448 0.499501 -0.044413
v 0.342031 0.495341 -0.041231
v 0.344377 0.494918 -0.036607
v 0.357038 0.493980 -0.036763
v 0.346988 0.498552 -0.033729
v 0.357545 0.497937 -0.039581
v 0.347540 0.502604 -0.036373
v 0.345486 0.502871 -0.041546
v 0.366154 0.491243 -0.039671
v 0.372147 0.489845 -0.041817
vt 0.076492 0.334292
vt 0.072423 0.330484
vt 0.072823 0.326698
vt 0.076169 0.326229
vt 0.582897 0.570960
vt 0.585750 0.569238
vt 0.586477 0.569899
vt 0.583184 0.571545
vt 0.585658 0.571166
vt 0.587128 0.569899
vt 0.096226 0.357312
vt 0.096716 0.356829
vt 0.097005 0.357826
vt 0.096316 0.358332
vt 0.094305 0.355265
vt 0.094511 0.354413
vt 0.094661 0.357972
vt 0.866932 0.957037
vt 0.868156 0.960298
vt 0.861910 0.961219
vt 0.859894 0.958031
vt 0.241320 0.867841
vt 0.240485 0.873507
vt 0.234618 0.877077
vt 0.233738 0.870357
vt 0.868171 0.964741
vt 0.859819 0.967363
vt 0.788122 0.953757
vt 0.795459 0.955424
vt 0.794459 0.959641
vt 0.786798 0.957867
vt 0.793591 0.966550
vt 0.787669 0.964998
vt 0.797570 0.962395
vt 0.247859 0.898246
vt 0.253163 0.894194
vt 0.249233 0.902352
vt 0.246792 0.905853
vt 0.745951 0.969374
vt 0.743880 0.963940
vt 0.749876 0.964216
vt 0.749528 0.968242
vt 0.754884 0.960984
vt 0.756664 0.963979
vt 0.745511 0.959496
vt 0.075504 0.088701
vt 0.083585 0.089918
vt 0.082236 0.094951
vt 0.074447 0.093130
vt 0.242491 0.900480
vt 0.242081 0.908429
vt 0.094023 0.988358
vt 0.096220 0.988278
vt 0.097314 0.989389
vt 0.093722 0.990534
vt 0.094189 0.992304
vt 0.096719 0.991420
vt 0.907464 0.962071
vt 0.904558 0.962360
vt 0.904467 0.959837
vt 0.907948 0.958018
vt 0.900005 0.964033
vt 0.899357 0.960530
vt 0.512617 0.653777
vt 0.513493 0.656044
vt 0.512846 0.660875
vt 0.511360 0.655512
vt 0.515741 0.656899
vt 0.517029 0.652602
vt 0.519793 0.653512
vt 0.517937 0.658386
vt 0.084006 0.991260
vt 0.079662 0.991710
vt 0.078413 0.987516
vt 0.084201 0.988198
vt 0.905319 0.966796
vt 0.905211 0.968946
vt 0.899386 0.967813
vt 0.518371 0.647218
vt 0.520306 0.646391
vt 0.893081 0.964660
vt 0.892888 0.968140
vt 0.906881 0.965164
vt 0.893660 0.961138
vt 0.879167 0.956116
vt 0.871781 0.950809
vt 0.877874 0.952045
vt 0.237656 0.901102
vt 0.233319 0.900864
vt 0.236563 0.894743
vt 0.240605 0.896680
vt 0.515992 0.614861
vt 0.522361 0.620147
vt 0.517481 0.622959
vt 0.510615 0.618338
vt 0.245826 0.893006
vt 0.241736 0.887530
vt 0.522434 0.630770
vt 0.518256 0.631295
vt 0.878616 0.959453
vt 0.532768 0.614385
vt 0.528414 0.621828
vt 0.527365 0.611308
vt 0.526845 0.630730
vt 0.521240 0.609102
vt 0.152261 0.969749
vt 0.150501 0.965454
vt 0.152715 0.962178
vt 0.156379 0.967268
vt 0.253349 0.979590
vt 0.250766 0.975179
vt 0.255369 0.975095
vt 0.256058 0.980138
vt 0.158133 0.956531
vt 0.157528 0.960334
vt 0.153414 0.957277
vt 0.245608 0.979438
vt 0.245839 0.974702
vt 0.249323 0.980047
vt 0.161281 0.963983
vt 0.161305 0.967890
vt 0.158262 0.963532
vt 0.161693 0.972646
vt 0.156957 0.973686
vt 0.153181 0.973482
vt 0.252471 0.887643
vt 0.251745 0.878232
vt 0.238739 0.903647
vt 0.297440 0.895488
vt 0.300547 0.900965
vt 0.297293 0.901276
vt 0.289911 0.898324
vt 0.184095 0.968082
vt 0.183878 0.965166
vt 0.192594 0.964836
vt 0.191305 0.969347
vt 0.183744 0.961924
vt 0.191829 0.960041
vt 0.511168 0.611718
vt 0.507123 0.615092
vt 0.298027 0.905968
vt 0.290949 0.905563
vt 0.287758 0.906018
vt 0.281118 0.893861
vt 0.283733 0.885663
vt 0.289973 0.887279
vt 0.295043 0.891072
vt 0.260224 0.894185
vt 0.256933 0.899856
vt 0.737594 0.961083
vt 0.737342 0.964741
vt 0.868861 0.968241
vt 0.861507 0.971573
vt 0.228980 0.860741
vt 0.233851 0.857853
vt 0.228923 0.869069
vt 0.240488 0.858852
vt 0.184346 0.971608
vt 0.191029 0.972865
vt 0.191459 0.977022
vt 0.184399 0.974942
vt 0.183491 0.958717
vt 0.183582 0.955579
vt 0.190520 0.954137
vt 0.191317 0.957432
vt 0.196885 0.955725
vt 0.197603 0.952480
vt 0.240274 0.878054
vt 0.237716 0.882111
vt 0.238763 0.877547
vt 0.245403 0.874361
vt 0.259964 0.885154
vt 0.260128 0.877411
vt 0.248420 0.867134
vt 0.256489 0.867818
vt 0.249335 0.855739
vt 0.259065 0.854030
vt 0.266061 0.859429
vt 0.266159 0.871208
vt 0.537862 0.604984
vt 0.541843 0.601828
vt 0.545855 0.603318
vt 0.537618 0.607244
vt 0.538481 0.594964
vt 0.546435 0.589489
vt 0.238711 0.852257
vt 0.229724 0.852384
vt 0.265756 0.883104
vt 0.531539 0.604789
vt 0.533957 0.599598
vt 0.274971 0.862522
vt 0.274084 0.872059
vt 0.069883 0.279339
vt 0.067825 0.278369
vt 0.071190 0.276550
vt 0.074111 0.278075
vt 0.261981 0.834158
vt 0.259476 0.826320
vt 0.261384 0.827314
vt 0.263542 0.835175
vt 0.264506 0.831459
vt 0.262936 0.826330
vt 0.071154 0.282366
vt 0.071214 0.280960
vt 0.068902 0.289307
vt 0.067364 0.288179
vt 0.065858 0.286101
vt 0.063765 0.282857
vt 0.073656 0.287168
vt 0.266240 0.849727
vt 0.263412 0.845436
vt 0.073238 0.317527
vt 0.069648 0.309483
vt 0.075951 0.305719
vt 0.077915 0.312121
vt 0.067956 0.299561
vt 0.073581 0.298972
vt 0.508716 0.595525
vt 0.512854 0.589816
vt 0.516639 0.594998
vt 0.513935 0.598151
vt 0.519537 0.599750
vt 0.521578 0.594518
vt 0.521298 0.589824
vt 0.560090 0.588771
vt 0.556435 0.591915
vt 0.555823 0.586146
vt 0.530333 0.590033
vt 0.540478 0.583306
vt 0.554885 0.582013
vt 0.505060 0.599627
vt 0.499414 0.596019
vt 0.504393 0.589873
vt 0.283862 0.874802
vt 0.285879 0.866836
vt 0.295363 0.870129
vt 0.292373 0.878658
vt 0.290578 0.860262
vt 0.299604 0.862963
vt 0.512486 0.585855
vt 0.279467 0.846112
vt 0.281312 0.853805
vt 0.269729 0.841494
vt 0.243496 0.850649
vt 0.080413 0.325680
vt 0.081063 0.318861
vt 0.064749 0.319561
vt 0.063677 0.311468
vt 0.080516 0.333206
vt 0.066357 0.331413
vt 0.064621 0.337435
vt 0.519086 0.584733
vt 0.084879 0.341020
vt 0.083814 0.343706
vt 0.066337 0.344513
vt 0.052616 0.347821
vt 0.054912 0.338994
vt 0.042173 0.336656
vt 0.037013 0.344132
vt 0.522321 0.582457
vt 0.522899 0.577039
vt 0.527706 0.596202
vt 0.044030 0.318129
vt 0.035961 0.317445
vt 0.042056 0.310528
vt 0.049136 0.310885
vt 0.294549 0.854555
vt 0.292697 0.849850
vt 0.055673 0.311273
vt 0.052183 0.318827
vt 0.048931 0.324985
vt 0.060107 0.326137
vt 0.066814 0.327563
vt 0.517401 0.580280
vt 0.518131 0.578529
vt 0.515039 0.576798
vt 0.512836 0.580494
vt 0.894932 0.336143
vt 0.899132 0.340738
vt 0.896058 0.349556
vt 0.892471 0.342512
vt 0.906723 0.343890
vt 0.904764 0.354766
vt 0.041175 0.008877
vt 0.046798 0.025350
vt 0.036664 0.018490
vt 0.029541 0.005133
vt 0.301152 0.858108
vt 0.300110 0.851489
vt 0.305286 0.855605
vt 0.887498 0.325469
vt 0.889087 0.332691
vt 0.879900 0.325330
vt 0.879101 0.318453
vt 0.040405 0.323130
vt 0.028416 0.323904
vt 0.056983 0.029780
vt 0.061206 0.015748
vt 0.031594 0.063776
vt 0.037566 0.060650
vt 0.036496 0.067558
vt 0.035390 0.072021
vt 0.037660 0.070596
vt 0.037985 0.068803
vt 0.041034 0.059794
vt 0.040151 0.068253
vt 0.040151 0.072714
vt 0.046023 0.063115
vt 0.043723 0.060871
vt 0.877282 0.312671
vt 0.888770 0.315090
vt 0.067236 0.031918
vt 0.079314 0.014555
vt 0.092492 0.021942
vt 0.078237 0.035268
vt 0.110274 0.017800
vt 0.103799 0.020320
vt 0.105319 0.018208
vt 0.108342 0.012174
vt 0.100919 0.011011
vt 0.094370 0.009916
vt 0.912172 0.325388
vt 0.918882 0.326088
vt 0.915042 0.331948
vt 0.904781 0.329737
vt 0.925351 0.324883
vt 0.926397 0.329729
vt 0.923029 0.321798
vt 0.925898 0.319460
vt 0.926522 0.319403
vt 0.925165 0.321403
vt 0.111754 0.007308
vt 0.111158 0.006953
vt 0.112440 0.006492
vt 0.112626 0.006692
vt 0.926557 0.320914
vt 0.927222 0.319693
vt 0.094420 0.987389
vt 0.096266 0.987408
vt 0.915087 0.968419
vt 0.917680 0.969421
vt 0.916981 0.970077
vt 0.914473 0.969429
vt 0.909995 0.969716
vt 0.910095 0.968291
vt 0.914026 0.970552
vt 0.911174 0.967074
vt 0.090096 0.993470
vt 0.088941 0.991106
vt 0.909590 0.964190
vt 0.912553 0.966028
vt 0.089072 0.987950
vt 0.111103 0.008916
vt 0.108157 0.009468
vt 0.108572 0.008532
vt 0.920055 0.320942
vt 0.925010 0.319273
vt 0.909102 0.321820
vt 0.918320 0.319553
vt 0.927878 0.323788
vt 0.898918 0.325414
vt 0.912330 0.346122
vt 0.918556 0.337554
vt 0.037863 0.328195
vt 0.028381 0.329030
vt 0.045921 0.331135
vt 0.911631 0.357677
vt 0.057335 0.331736
vt 0.867180 0.307785
vt 0.865603 0.304109
vt 0.873253 0.303894
vt 0.051676 0.046696
vt 0.057568 0.050283
vt 0.044462 0.045075
vt 0.038554 0.044784
vt 0.867435 0.315207
vt 0.867352 0.311385
vt 0.858686 0.309000
vt 0.858548 0.310997
vt 0.858707 0.306827
vt 0.857157 0.304083
vt 0.853322 0.306368
vt 0.854449 0.304889
vt 0.853139 0.303138
vt 0.888467 0.336985
vt 0.506530 0.580807
vt 0.507441 0.574801
vt 0.270319 0.836773
vt 0.279963 0.839284
vt 0.063783 0.299740
vt 0.060224 0.297281
vt 0.266988 0.828845
vt 0.525281 0.601915
vt 0.516065 0.606302
vt 0.507877 0.608166
vt 0.510715 0.603076
vt 0.502279 0.605228
vt 0.092032 0.348386
vt 0.090366 0.349692
vt 0.088656 0.351728
vt 0.082326 0.347008
vt 0.074809 0.342732
vt 0.569558 0.578574
vt 0.563048 0.584319
vt 0.561532 0.582176
vt 0.568270 0.576298
vt 0.570500 0.580935
vt 0.565412 0.587102
vt 0.575339 0.572199
vt 0.577475 0.573636
vt 0.579258 0.575167
vt 0.581900 0.568433
vt 0.582990 0.573599
vt 0.273848 0.882518
vt 0.273792 0.894608
vt 0.266542 0.893895
vt 0.745236 0.947855
vt 0.745522 0.953782
vt 0.736162 0.954359
vt 0.735815 0.946907
vt 0.755506 0.949555
vt 0.755196 0.954899
vt 0.767417 0.950163
vt 0.766884 0.955008
vt 0.766589 0.959910
vt 0.778716 0.956800
vt 0.778167 0.961050
vt 0.778064 0.965192
vt 0.766603 0.964430
vt 0.053551 0.089416
vt 0.064650 0.087065
vt 0.064549 0.091698
vt 0.053472 0.093227
vt 0.053045 0.084798
vt 0.064275 0.082977
vt 0.075407 0.083805
vt 0.085220 0.085307
vt 0.064374 0.078772
vt 0.076156 0.078729
vt 0.086111 0.080521
vt 0.052364 0.079881
vt 0.044081 0.085427
vt 0.043871 0.079838
vt 0.779192 0.952253
vt 0.043419 0.089988
vt 0.036618 0.088111
vt 0.039561 0.085153
vt 0.791560 0.950213
vt 0.795968 0.952362
vt 0.044204 0.093579
vt 0.784602 0.961595
vt 0.495230 0.601229
vt 0.258826 0.840307
vt 0.259281 0.832515
vt 0.196318 0.958789
vt 0.175375 0.961815
vt 0.175001 0.958440
vt 0.174800 0.955313
vt 0.167819 0.957856
vt 0.167665 0.954624
vt 0.167580 0.972340
vt 0.175520 0.971560
vt 0.175511 0.975100
vt 0.167917 0.975656
vt 0.167205 0.968674
vt 0.175464 0.967764
vt 0.167036 0.964859
vt 0.175342 0.964645
vt 0.167502 0.961206
vt 0.161706 0.960786
vt 0.162142 0.956965
vt 0.158009 0.952839
vt 0.162445 0.953637
vt 0.162473 0.976144
vt 0.158143 0.977000
vt 0.251834 0.982584
vt 0.247447 0.983506
vt 0.254922 0.983784
vt 0.878115 0.963263
vt 0.878009 0.966359
vt 0.886753 0.964478
vt 0.886459 0.967540
vt 0.520831 0.638781
vt 0.523205 0.639855
vt 0.516468 0.646829
vt 0.518177 0.639406
vt 0.514659 0.647128
vt 0.515847 0.639782
vt 0.515484 0.632173
vt 0.887216 0.961395
vt 0.887640 0.957698
vt 0.893815 0.957514
vt 0.514988 0.652067
vt 0.898851 0.957118
vt 0.514596 0.655918
vt 0.919164 0.970085
vt 0.917637 0.970566
vt 0.036235 0.076509
vt 0.926264 0.338912
vt 0.034700 0.085202
vn -0.8380 0.3352 -0.4305
vn -0.8996 0.2496 -0.3583
vn -0.5943 0.7149 -0.3685
vn -0.0354 0.7675 -0.6400
vn 0.8508 -0.1818 -0.4930
vn 0.4841 -0.2610 -0.8352
vn -0.1568 0.5229 -0.8379
vn 0.0577 0.9085 -0.4138
vn -0.9839 0.1550 0.0893
vn -0.9164 0.0312 -0.3990
vn -0.2730 -0.8712 -0.4080
vn -0.1504 -0.9863 0.0679
vn 0.5873 0.4881 -0.6457
vn 0.1828 0.4197 -0.8891
vn 0.2976 -0.2637 -0.9175
vn 0.6984 0.2774 -0.6598
vn -0.1283 -0.0088 -0.9917
vn -0.0743 -0.1323 -0.9884
vn 0.0649 -0.2943 -0.9535
vn -0.1789 -0.0577 -0.9822
vn 0.3708 0.4619 0.8057
vn 0.6884 0.5290 0.4961
vn 0.6995 0.4642 -0.5433
vn -0.2281 0.9682 -0.1032
vn 0.1705 -0.8567 -0.4868
vn -0.3566 -0.0045 -0.9343
vn 0.5866 -0.5222 -0.6190
vn 0.5791 -0.5062 -0.6390
vn 0.1356 0.1461 -0.9799
vn 0.3334 -0.1805 -0.9253
vn 0.4505 -0.2984 -0.8414
vn -0.0086 0.7178 -0.6962
vn 0.1474 0.5387 -0.8295
vn -0.1205 0.7273 -0.6757
vn 0.1005 -0.3310 -0.9383
vn -0.1301 0.9412 -0.3119
vn 0.3037 -0.9175 -0.2567
vn 0.4823 -0.8651 -0.1379
vn 0.9477 -0.2798 -0.1533
vn -0.7992 -0.5623 -0.2123
vn -0.8019 -0.3343 -0.4952
vn 0.2726 -0.2893 -0.9176
vn 0.5755 -0.7935 -0.1978
vn 0.8414 0.5404 -0.0023
vn 0.6343 0.6862 -0.3561
vn 0.4039 -0.9146 -0.0208
vn 0.8540 0.3924 -0.3415
vn 0.8808 0.3480 -0.3211
vn 0.5741 -0.7841 0.2360
vn -0.2999 0.7322 -0.6115
vn 0.1816 0.9294 -0.3214
vn 0.3552 0.8483 0.3927
vn 0.7163 0.6321 0.2954
vn -0.0628 -0.8724 0.4847
vn -0.5550 -0.8085 -0.1957
vn 0.4991 -0.8660 -0.0296
vn -0.8115 -0.5621 -0.1601
vn -0.5000 0.8416 -0.2040
vn -0.1969 -0.8528 0.4837
vn -0.5089 -0.7716 -0.3816
vn -0.2836 0.2732 -0.9192
vn 0.8759 0.4804 -0.0448
vn 0.2106 0.9061 -0.3670
vn 0.5356 0.8418 0.0669
vn 0.9852 -0.1684 -0.0314
vn 0.6227 0.0210 0.7822
vn 0.7105 0.0531 -0.7017
vn 0.5205 -0.7700 -0.3690
vn 0.8355 -0.0404 -0.5480
vn 0.4846 -0.8705 0.0857
vn 0.3738 -0.9191 0.1247
vn 0.5894 0.0663 -0.8051
vn 0.0485 -0.8833 0.4663
vn 0.0705 0.7801 -0.6217
vn 0.1551 -0.5621 -0.8124
vn -0.1449 -0.7359 -0.6614
vn 0.3798 -0.8923 -0.2441
vn -0.4334 -0.8076 -0.3999
vn 0.4452 -0.8741 0.1943
vn 0.6714 0.2455 -0.6992
vn 0.8654 -0.4999 -0.0346
vn 0.2915 -0.8991 0.3266
vn 0.5045 -0.3953 -0.7676
vn 0.8367 0.0555 0.5449
vn -0.0833 -0.2735 0.9583
vn -0.5207 -0.0575 0.8518
vn -0.3413 -0.8222 0.4555
vn -0.1253 0.8887 0.4410
vn 0.1936 0.7978 0.5710
vn -0.0268 -0.9043 -0.4260
vn 0.5298 -0.0134 -0.8480
vn 0.0030 -0.9629 -0.2699
vn 0.4733 0.7198 -0.5079
vn 0.3186 0.7917 -0.5212
vn 0.6375 0.7347 -0.2318
vn 0.1639 0.4585 -0.8734
vn 0.1553 0.8098 -0.5658
vn 0.7624 0.6269 -0.1603
vn 0.3506 0.2830 0.8927
vn 0.4858 -0.4477 0.7507
vn 0.4087 0.1696 -0.8968
vn 0.0780 -0.7464 -0.6609
vn -0.2125 -0.9530 0.2158
vn 0.1182 -0.9816 0.1499
vn 0.3345 -0.9162 0.2206
vn 0.3245 -0.7527 0.5728
vn 0.1060 0.0968 0.9896
vn 0.0483 0.0879 0.9950
vn 0.0037 0.2145 0.9767
vn 0.3099 -0.2261 0.9235
vn 0.2560 -0.2029 0.9452
vn -0.1590 0.7325 -0.6620
vn -0.2528 0.9367 -0.2421
vn 0.4150 -0.3445 -0.8421
vn 0.1554 -0.1166 -0.9809
vn -0.0311 0.0888 -0.9956
vn 0.3775 0.8647 -0.3313
vn 0.0116 0.7450 0.6669
vn -0.2663 -0.3358 0.9035
vn 0.0073 -0.5050 0.8631
vn 0.2411 -0.6411 0.7286
vn 0.2700 0.8072 -0.5249
vn 0.2057 0.2127 -0.9552
vn -0.1398 0.6547 -0.7429
vn -0.1168 0.8246 -0.5535
vn -0.0684 0.8883 -0.4540
vn -0.2473 0.5537 -0.7951
vn -0.2124 0.8435 -0.4934
vn -0.1268 0.4998 -0.8568
vn 0.1743 0.6924 -0.7001
vn -0.0785 0.9965 0.0302
vn -0.2799 0.9561 -0.0869
vn 0.4686 -0.3906 -0.7924
vn 0.0945 -0.3301 -0.9392
vn 0.0353 -0.8848 -0.4646
vn 0.1593 -0.5504 -0.8196
vn 0.2433 0.2112 -0.9467
vn -0.2605 0.9518 -0.1617
vn 0.5383 -0.7812 -0.3162
vn 0.4170 -0.8632 -0.2845
vn -0.2239 0.8344 0.5036
vn -0.3237 0.8376 0.4400
vn -0.3746 0.9215 -0.1024
vn 0.1546 0.8189 0.5528
vn 0.8518 0.5156 0.0925
vn 0.6387 0.4660 -0.6124
vn 0.7915 -0.0591 -0.6083
vn 0.9337 0.2868 0.2144
vn 0.0888 0.5898 0.8026
vn -0.1636 -0.0597 -0.9847
vn -0.5421 0.4909 -0.6820
vn -0.0971 -0.2279 -0.9688
vn -0.9144 0.0031 -0.4048
vn -0.8388 0.3943 0.3755
vn 0.6134 0.7220 0.3201
vn 0.7268 0.1568 -0.6687
vn -0.0893 0.6144 -0.7839
vn -0.2221 0.2767 -0.9349
vn -0.0925 -0.1086 -0.9898
vn 0.5314 -0.3658 0.7641
vn 0.2871 -0.5605 0.7768
vn 0.6008 -0.7451 0.2896
vn 0.6517 -0.6519 0.3877
vn 0.5995 -0.7824 0.1684
vn 0.4699 -0.8583 0.2064
vn 0.2367 -0.8712 0.4302
vn 0.4386 0.4546 -0.7752
vn 0.6443 -0.3658 -0.6717
vn 0.1709 -0.9821 0.0796
vn 0.0044 -0.9856 -0.1688
vn 0.0143 -0.9354 -0.3532
vn 0.4363 -0.3357 0.8348
vn 0.3498 -0.1256 0.9284
vn 0.2865 -0.1133 0.9514
vn -0.0163 0.3691 0.9293
vn -0.0071 0.4346 0.9006
vn 0.0604 0.4682 0.8815
vn 0.3980 -0.1988 0.8956
vn 0.2404 -0.5345 0.8102
vn -0.4667 0.4944 0.7333
vn -0.1482 0.7487 0.6462
vn -0.0807 0.4842 0.8712
vn -0.8495 0.4751 -0.2294
vn -0.8938 0.1299 -0.4293
vn 0.3455 0.7221 -0.5994
vn -0.9949 -0.1002 0.0124
vn -0.7481 -0.6581 -0.0855
vn 0.3886 -0.7572 0.5251
vn 0.2077 0.8837 -0.4196
vn -0.9303 0.2717 0.2464
vn -0.4406 -0.8969 -0.0385
vn -0.3701 -0.9289 0.0126
vn 0.1090 -0.9785 0.1751
vn 0.3002 -0.9083 0.2912
vn 0.4210 -0.9008 0.1065
vn -0.7513 0.5822 0.3108
vn -0.2968 0.9544 -0.0322
vn 0.4229 0.6424 0.6391
vn -0.9221 0.1915 0.3362
vn -0.9236 0.2909 0.2499
vn -0.9596 0.2383 0.1495
vn -0.9780 0.1859 0.0946
vn -0.9622 0.2578 0.0881
vn 0.6723 -0.5685 0.4742
vn 0.4150 -0.7558 0.5066
vn 0.6135 -0.5594 0.5575
vn 0.5556 -0.4787 0.6798
vn 0.7197 -0.5619 0.4079
vn 0.2279 -0.9542 0.1936
vn -0.5299 -0.8459 -0.0603
vn -0.0617 0.4602 -0.8857
vn 0.8230 0.5520 -0.1339
vn 0.6681 -0.0796 0.7398
vn 0.8913 0.0118 0.4532
vn 0.8524 -0.0374 0.5215
vn 0.8587 0.1638 0.4857
vn -0.8839 0.4536 -0.1140
vn -0.8220 0.4387 -0.3630
vn -0.8265 0.2488 -0.5049
vn 0.7695 0.3381 0.5418
vn 0.9158 0.1201 -0.3831
vn 0.9160 0.1481 -0.3728
vn 0.5121 0.8034 0.3040
vn 0.1738 0.8295 -0.5307
vn 0.2068 0.2208 -0.9531
vn 0.1947 -0.0210 -0.9806
vn -0.6180 0.0466 -0.7848
vn -0.7848 0.6102 -0.1079
vn -0.9551 0.2083 0.2109
vn -0.7245 0.0005 -0.6893
vn -0.0226 0.1156 0.9930
vn 0.2327 0.1214 0.9649
vn -0.9127 0.1465 0.3814
vn -0.8849 0.3352 0.3235
vn 0.7018 -0.5339 0.4717
vn 0.5886 -0.4568 0.6670
vn 0.4663 -0.3681 0.8044
vn 0.1033 0.5262 0.8441
vn -0.7844 0.6068 0.1285
vn -0.0355 -0.9945 0.0988
vn -0.8777 -0.3495 -0.3277
vn -0.8966 -0.4008 -0.1882
vn 0.1183 -0.9799 0.1603
vn -0.8098 -0.3304 -0.4848
vn -0.8476 -0.5166 0.1212
vn -0.9170 0.3359 0.2150
vn -0.7204 0.6902 -0.0682
vn -0.2909 -0.7833 0.5493
vn -0.2307 0.2852 0.9303
vn 0.0165 0.6260 0.7796
vn -0.5328 0.8431 -0.0728
vn -0.5563 0.7785 -0.2907
vn -0.8153 -0.5359 -0.2192
vn -0.4813 0.8709 -0.0998
vn 0.8666 0.4988 0.0136
vn 0.5665 -0.8140 -0.1281
vn -0.1355 -0.9831 0.1233
vn 0.3309 -0.2555 0.9084
vn -0.9670 -0.1675 -0.1921
vn -0.9669 0.0684 -0.2457
vn -0.9440 -0.3277 0.0384
vn -0.9561 -0.2806 0.0849
vn -0.1223 0.2472 0.9612
vn -0.9311 0.1474 0.3336
vn -0.7967 0.0605 -0.6013
vn 0.0515 0.0919 -0.9944
vn 0.8557 0.1780 -0.4859
vn 0.8272 0.2322 0.5117
vn -0.2170 0.4053 0.8880
vn -0.2970 0.6172 0.7286
vn -0.8832 0.2254 0.4113
vn -0.9092 -0.0354 -0.4148
vn 0.5273 -0.8402 0.1265
vn 0.4408 -0.8488 0.2921
vn 0.4471 -0.6827 0.5779
vn 0.1042 0.9343 -0.3410
vn -0.9507 0.2084 0.2296
vn -0.1656 -0.9717 0.1683
vn -0.1429 -0.9677 0.2078
vn -0.0874 -0.9900 -0.1104
vn 0.8724 -0.2020 -0.4451
vn 0.8431 -0.2118 -0.4942
vn 0.8727 -0.1923 -0.4488
vn -0.3216 0.8498 0.4177
vn -0.2410 0.8939 0.3779
vn -0.1126 0.9359 0.3338
vn 0.2093 0.2222 0.9523
vn -0.1048 0.9542 0.2801
vn 0.3298 0.3018 0.8945
vn -0.1017 0.9660 0.2378
vn -0.3761 0.6587 -0.6517
vn -0.1521 0.9756 0.1582
vn -0.4666 0.5877 -0.6610
vn -0.4001 -0.2797 -0.8728
vn -0.2716 -0.3347 -0.9023
vn 0.0517 -0.9625 -0.2662
vn 0.1194 -0.9628 -0.2425
vn 0.4715 -0.6490 0.5971
vn 0.4273 -0.6673 0.6100
vn 0.3670 -0.7251 0.5826
vn 0.3835 0.3324 0.8617
vn 0.5641 -0.6101 0.5564
vn 0.7611 -0.4838 0.4320
vn -0.4728 0.5621 -0.6786
vn -0.4769 -0.8220 0.3111
vn -0.4571 -0.2455 0.8549
vn -0.0067 0.8097 0.5869
vn -0.5867 -0.1124 0.8020
vn -0.0598 0.8671 0.4945
vn 0.4994 0.7299 -0.4667
vn 0.4311 0.7909 -0.4344
vn 0.5218 0.0696 -0.8502
vn 0.4082 0.1569 -0.8993
vn -0.0223 -0.8436 -0.5365
vn -0.0708 -0.7429 -0.6656
vn -0.5673 -0.7275 0.3859
vn -0.5602 -0.6991 0.4443
vn -0.6191 -0.0307 0.7847
vn -0.1379 0.9047 0.4032
vn -0.3968 0.0838 -0.9141
vn -0.3404 0.1240 -0.9321
vn -0.5097 -0.7881 -0.3451
vn -0.1767 -0.8553 0.4870
vn 0.2402 -0.1393 0.9607
vn 0.3599 -0.1057 0.9270
vn 0.4287 0.8169 0.3859
vn 0.5308 0.7855 0.3182
vn 0.2090 0.8443 -0.4934
vn 0.2645 -0.1655 0.9501
vn 0.6417 -0.2562 0.7229
f 1/1/1 2/2/2 3/3/3 4/4/4
f 5/5/5 6/6/6 7/7/7 8/8/8
f 9/9/9 8/8/8 7/7/7 10/10/10
f 11/11/11 10/12/10 7/13/7 6/14/6
f 12/15/12 9/16/9 10/12/10 11/11/11
f 5/17/5 12/15/12 11/11/11 6/14/6
f 13/18/13 14/19/14 15/20/15 16/21/16
f 17/22/17 18/23/18 15/24/15 19/25/19
f 20/26/20 19/27/19 15/20/15 14/19/14
f 21/28/21 22/29/22 23/30/23 24/31/24
f 25/32/25 26/33/26 23/30/23 27/34/27
f 28/35/28 29/36/29 30/37/30 31/38/31
f 30/39/30 32/40/32 33/41/33 31/42/31
f 31/42/31 33/41/33 34/43/34 35/44/35
f 34/43/34 33/41/33 32/40/32 36/45/36
f 37/46/37 38/47/38 31/48/31 35/49/35
f 39/50/39 28/35/28 31/38/31 38/51/38
f 40/52/40 41/53/41 42/54/42 43/55/43
f 44/56/44 43/55/43 42/54/42 45/57/45
f 46/58/46 47/59/47 48/60/48 49/61/49
f 50/62/50 51/63/51 48/60/48 47/59/47
f 52/64/52 53/65/53 48/66/48 51/67/51
f 49/68/49 54/69/54 55/70/55 46/71/46
f 56/72/56 46/73/46 55/74/55 57/75/57
f 58/76/58 57/77/57 55/78/55 50/62/50
f 59/79/59 60/80/60 55/70/55 54/69/54
f 61/81/61 50/62/50 55/78/55 60/82/60
f 62/83/62 58/76/58 50/62/50 47/59/47
f 63/84/63 51/63/51 50/62/50 61/81/61
f 64/85/64 13/18/13 65/86/65 66/87/66
f 67/88/67 68/89/68 65/90/65 69/91/69
f 70/92/70 71/93/71 65/94/65 68/95/68
f 72/96/72 69/91/69 65/90/65 13/97/13
f 73/98/73 66/99/66 65/94/65 71/93/71
f 74/100/74 14/19/14 13/18/13 64/85/64
f 75/101/75 76/102/76 71/93/71 77/103/77
f 78/104/78 73/98/73 71/93/71 76/102/76
f 79/105/79 77/103/77 71/93/71 70/92/70
f 80/106/80 81/107/81 82/108/82 83/109/83
f 84/110/84 85/111/85 82/112/82 81/113/81
f 86/114/86 87/115/87 82/108/82 85/116/85
f 88/117/88 86/118/86 85/111/85 89/119/89
f 90/120/90 91/121/91 83/109/83 92/122/92
f 93/123/93 94/124/94 83/109/83 91/121/91
f 95/125/95 80/106/80 83/109/83 94/124/94
f 96/126/96 72/96/72 13/97/13 97/127/97
f 72/96/72 28/35/28 39/50/39 69/91/69
f 67/88/67 69/91/69 39/50/39 98/128/98
f 99/129/99 98/130/98 39/131/39 100/132/100
f 101/133/101 102/134/102 68/135/68 67/136/67
f 103/137/103 104/138/104 68/135/68 102/134/102
f 105/139/105 70/92/70 68/95/68 104/140/104
f 38/141/38 106/142/106 100/132/100 39/131/39
f 107/143/107 108/144/108 100/132/100 106/142/106
f 109/145/109 110/146/110 100/132/100 108/144/108
f 111/147/111 99/129/99 100/132/100 110/146/110
f 29/36/29 112/148/112 32/149/32 30/37/30
f 113/150/113 36/45/36 32/40/32 112/151/112
f 76/152/76 75/153/75 19/27/19 20/26/20
f 114/154/114 115/155/115 19/25/19 75/156/75
f 116/157/116 17/22/17 19/25/19 115/155/115
f 117/158/117 98/159/98 99/160/99 118/161/118
f 119/162/119 118/163/118 99/164/99 120/165/120
f 121/166/121 120/165/120 99/164/99 111/167/111
f 122/168/122 13/97/13 16/169/16 123/170/123
f 124/171/124 97/127/97 13/97/13 122/168/122
f 18/23/18 124/171/124 122/168/122 123/170/123
f 125/172/125 96/126/96 97/127/97 126/173/126
f 127/174/127 128/175/128 97/127/97 124/171/124
f 129/176/129 130/177/130 128/175/128 127/174/127
f 131/178/131 132/179/132 128/175/128 130/177/130
f 133/180/133 134/181/134 115/182/115 114/183/114
f 135/184/135 136/185/136 115/182/115 134/181/134
f 137/186/137 116/157/116 115/155/115 136/187/136
f 138/188/138 125/172/125 126/173/126 132/179/132
f 139/189/139 140/190/140 133/180/133 114/183/114
f 135/184/135 134/181/134 133/180/133 140/190/140
f 141/191/141 142/192/142 132/179/132 131/178/131
f 143/193/143 144/194/144 145/195/145 146/196/146
f 147/197/147 146/198/146 145/199/145 148/200/148
f 149/201/149 148/200/148 145/199/145 144/202/144
f 146/196/146 150/203/150 151/204/151 143/193/143
f 152/205/152 153/206/153 151/204/151 150/203/150
f 154/207/154 143/193/143 151/204/151 153/206/153
f 154/207/154 149/208/149 144/194/144 143/193/143
f 147/209/147 152/205/152 150/203/150 146/196/146
f 155/210/155 131/178/131 130/177/130 156/211/156
f 157/212/157 158/213/158 130/214/130 129/215/129
f 159/216/159 156/217/156 130/214/130 158/213/158
f 160/218/160 161/219/161 162/220/162 163/221/163
f 164/222/164 163/221/163 162/220/162 165/223/165
f 166/224/166 165/223/165 162/220/162 161/219/161
f 167/225/167 137/226/137 136/185/136 168/227/168
f 169/228/169 170/229/170 136/185/136 135/184/135
f 171/230/171 168/227/168 136/185/136 170/229/170
f 172/231/172 173/232/173 174/233/174 160/218/160
f 175/234/175 176/235/176 174/236/174 173/237/173
f 177/238/177 178/239/178 174/236/174 176/235/176
f 161/219/161 160/218/160 174/233/174 179/240/179
f 180/241/180 181/242/181 155/210/155 182/243/182
f 141/191/141 131/178/131 155/210/155 181/242/181
f 116/157/116 137/186/137 157/244/157 129/176/129
f 167/245/167 4/4/4 157/212/157 137/246/137
f 3/3/3 183/247/183 157/212/157 4/4/4
f 184/248/184 158/213/158 157/212/157 183/247/183
f 167/245/167 185/249/185 1/1/1 4/4/4
f 186/250/186 2/2/2 1/1/1 187/251/187
f 188/252/188 166/224/166 161/219/161 179/240/179
f 189/253/189 190/254/190 1/1/1 185/249/185
f 187/251/187 171/255/171 170/256/170 191/257/191
f 192/258/192 191/257/191 170/256/170 193/259/193
f 194/260/194 193/261/193 170/229/170 169/228/169
f 165/223/165 166/224/166 169/228/169 195/262/195
f 140/190/140 195/262/195 169/228/169 135/184/135
f 188/252/188 194/260/194 169/228/169 166/224/166
f 176/235/176 141/191/141 181/242/181 177/238/177
f 196/263/196 197/264/197 181/265/181 180/266/180
f 198/267/198 177/238/177 181/242/181 197/268/197
f 199/269/199 184/248/184 183/247/183 200/270/200
f 201/271/201 200/270/200 183/247/183 202/272/202
f 203/273/203 202/272/202 183/247/183 3/3/3
f 194/260/194 188/252/188 204/274/204 205/275/205
f 206/276/206 205/275/205 204/274/204 207/277/207
f 193/261/193 194/260/194 205/275/205 206/276/206
f 179/240/179 207/277/207 204/274/204 188/252/188
f 208/278/208 209/279/209 193/280/193 206/281/206
f 210/282/210 192/283/192 193/280/193 209/279/209
f 197/284/197 211/285/211 212/286/212 198/287/198
f 213/288/213 198/267/198 212/289/212 214/290/214
f 215/291/215 214/292/214 212/293/212 216/294/216
f 217/295/217 218/296/218 197/264/197 196/263/196
f 219/297/219 211/285/211 197/284/197 218/298/218
f 220/299/220 221/300/221 222/301/222 223/302/223
f 224/303/224 223/302/223 222/301/222 225/304/225
f 226/305/226 225/304/225 222/301/222 221/300/221
f 224/303/224 225/304/225 227/306/227 228/307/228
f 229/308/229 228/307/228 227/306/227 230/309/230
f 226/305/226 230/309/230 227/306/227 225/304/225
f 216/294/216 231/310/231 232/311/232 215/291/215
f 233/312/233 234/313/234 232/314/232 231/315/231
f 235/316/235 215/317/215 232/314/232 236/318/236
f 237/319/237 236/318/236 232/314/232 238/320/238
f 239/321/239 238/320/238 232/314/232 234/313/234
f 240/322/240 241/323/241 242/324/242 243/325/243
f 239/326/239 234/327/234 242/324/242 241/323/241
f 244/328/244 245/329/245 246/330/246 247/331/247
f 248/332/248 249/333/249 246/334/246 245/335/245
f 250/336/250 247/331/247 246/330/246 249/337/249
f 40/52/40 251/338/251 252/339/252 41/53/41
f 44/340/44 45/341/45 252/342/252 251/343/251
f 253/344/253 254/345/254 251/343/251 40/346/40
f 255/347/255 44/340/44 251/343/251 254/345/254
f 43/55/43 44/56/44 255/348/255 256/349/256
f 58/76/58 62/83/62 255/347/255 254/345/254
f 56/350/56 256/351/256 255/347/255 62/83/62
f 40/52/40 43/55/43 256/349/256 253/352/253
f 57/75/57 253/352/253 256/349/256 56/72/56
f 57/77/57 58/76/58 254/345/254 253/344/253
f 257/353/257 237/319/237 258/354/258 248/332/248
f 238/320/238 250/355/250 258/354/258 237/319/237
f 245/329/245 244/328/244 257/356/257 248/357/248
f 241/323/241 240/322/240 257/356/257 244/328/244
f 236/358/236 237/359/237 257/356/257 240/322/240
f 239/326/239 247/331/247 250/336/250 238/360/238
f 239/326/239 241/323/241 244/328/244 247/331/247
f 235/361/235 236/358/236 240/322/240 243/325/243
f 210/282/210 209/279/209 243/325/243 242/324/242
f 208/278/208 235/361/235 243/325/243 209/279/209
f 259/362/259 210/282/210 242/324/242 260/363/260
f 218/296/218 217/295/217 259/364/259 260/365/260
f 201/271/201 261/366/261 259/364/259 217/295/217
f 192/283/192 210/282/210 259/362/259 261/367/261
f 202/272/202 262/368/262 261/366/261 201/271/201
f 191/257/191 192/258/192 261/366/261 262/368/262
f 203/273/203 186/250/186 262/368/262 202/272/202
f 187/251/187 191/257/191 262/368/262 186/250/186
f 214/292/214 215/291/215 235/361/235 208/278/208
f 263/369/263 264/370/264 233/371/233 231/310/231
f 265/372/265 219/297/219 233/312/233 264/373/264
f 211/285/211 219/297/219 265/372/265 266/374/266
f 229/308/229 230/309/230 265/372/265 264/373/264
f 226/305/226 266/374/266 265/372/265 230/309/230
f 212/286/212 211/285/211 266/374/266 267/375/267
f 221/300/221 267/375/267 266/374/266 226/305/226
f 216/294/216 212/293/212 267/376/267 268/377/268
f 220/378/220 268/377/268 267/376/267 221/379/221
f 231/310/231 216/294/216 268/377/268 263/369/263
f 269/380/269 263/369/263 268/377/268 220/378/220
f 264/370/264 263/369/263 269/380/269 229/381/229
f 223/382/223 270/383/270 269/380/269 220/378/220
f 228/384/228 229/381/229 269/380/269 270/383/270
f 200/270/200 201/271/201 217/295/217 196/263/196
f 208/278/208 206/281/206 213/385/213 214/292/214
f 207/277/207 178/386/178 213/387/213 206/276/206
f 177/238/177 198/267/198 213/288/213 178/239/178
f 174/233/174 178/386/178 207/277/207 179/240/179
f 182/243/182 271/388/271 199/389/199 180/241/180
f 272/390/272 184/248/184 199/269/199 271/391/271
f 196/263/196 180/266/180 199/269/199 200/270/200
f 154/207/154 153/206/153 272/390/272 271/391/271
f 152/205/152 159/216/159 272/390/272 153/206/153
f 158/213/158 184/248/184 272/390/272 159/216/159
f 149/201/149 154/392/154 271/388/271 182/243/182
f 139/189/139 273/393/273 195/262/195 140/190/140
f 164/222/164 165/223/165 195/262/195 273/393/273
f 77/103/77 79/105/79 273/393/273 139/189/139
f 274/394/274 164/222/164 273/393/273 79/105/79
f 70/92/70 105/139/105 274/394/274 79/105/79
f 121/395/121 275/396/275 274/394/274 105/139/105
f 163/221/163 164/222/164 274/394/274 275/396/275
f 111/397/111 172/231/172 275/396/275 121/395/121
f 160/218/160 163/221/163 275/396/275 172/231/172
f 276/398/276 277/399/277 190/254/190 189/253/189
f 278/400/278 279/401/279 190/254/190 277/399/277
f 280/402/280 1/1/1 190/254/190 279/401/279
f 187/251/187 1/1/1 280/402/280 171/255/171
f 281/403/281 282/404/282 280/405/280 279/406/279
f 168/227/168 171/230/171 280/405/280 282/404/282
f 189/407/189 185/408/185 282/404/282 281/403/281
f 167/225/167 168/227/168 282/404/282 185/408/185
f 278/409/278 283/410/283 281/403/281 279/406/279
f 276/411/276 189/407/189 281/403/281 283/410/283
f 12/412/12 5/5/5 283/410/283 278/409/278
f 8/8/8 276/411/276 283/410/283 5/5/5
f 9/16/9 12/15/12 278/400/278 277/399/277
f 8/8/8 9/9/9 277/413/277 276/411/276
f 148/200/148 149/201/149 182/243/182 155/210/155
f 142/192/142 141/191/141 176/235/176 175/234/175
f 110/146/110 109/145/109 175/234/175 173/237/173
f 284/414/284 142/192/142 175/234/175 109/145/109
f 108/144/108 285/415/285 284/414/284 109/145/109
f 113/416/113 138/188/138 284/414/284 285/415/285
f 132/179/132 142/192/142 284/414/284 138/188/138
f 107/417/107 286/418/286 285/419/285 108/420/108
f 36/45/36 113/150/113 285/419/285 286/418/286
f 287/421/287 288/422/288 286/418/286 107/417/107
f 34/43/34 36/45/36 286/418/286 288/422/288
f 289/423/289 290/424/290 288/422/288 287/421/287
f 291/425/291 34/43/34 288/422/288 290/424/290
f 292/426/292 293/427/293 291/425/291 290/424/290
f 294/428/294 295/429/295 291/425/291 293/427/293
f 35/44/35 34/43/34 291/425/291 295/429/295
f 296/430/296 297/431/297 295/432/295 294/433/294
f 37/46/37 35/49/35 295/432/295 297/431/297
f 298/434/298 299/435/299 297/431/297 296/430/296
f 300/436/300 37/46/37 297/431/297 299/435/299
f 38/47/38 37/46/37 300/436/300 106/437/106
f 289/438/289 287/439/287 300/436/300 299/435/299
f 107/440/107 106/437/106 300/436/300 287/439/287
f 301/441/301 289/438/289 299/435/299 298/434/298
f 302/442/302 21/443/21 301/441/301 298/434/298
f 24/31/24 292/426/292 301/444/301 21/28/21
f 290/424/290 289/423/289 301/444/301 292/426/292
f 296/430/296 25/445/25 302/442/302 298/434/298
f 27/446/27 303/447/303 302/442/302 25/445/25
f 22/29/22 21/28/21 302/448/302 303/449/303
f 26/450/26 25/445/25 296/430/296 294/433/294
f 304/451/304 26/33/26 294/428/294 293/427/293
f 24/31/24 304/451/304 293/427/293 292/426/292
f 111/397/111 110/452/110 173/232/173 172/231/172
f 147/197/147 156/211/156 159/453/159 152/454/152
f 147/197/147 148/200/148 155/210/155 156/211/156
f 75/101/75 77/103/77 139/189/139 114/183/114
f 112/148/112 125/172/125 138/188/138 113/416/113
f 17/22/17 116/157/116 129/176/129 127/174/127
f 18/23/18 17/22/17 127/174/127 124/171/124
f 29/36/29 96/126/96 125/172/125 112/148/112
f 104/138/104 120/165/120 121/166/121 105/455/105
f 104/138/104 103/137/103 119/162/119 120/165/120
f 305/456/305 306/457/306 119/162/119 103/137/103
f 307/458/307 118/163/118 119/162/119 306/457/306
f 308/459/308 309/460/309 307/458/307 306/457/306
f 310/461/310 311/462/311 307/463/307 309/464/309
f 117/158/117 118/161/118 307/463/307 311/462/311
f 312/465/312 313/466/313 311/462/311 310/461/310
f 101/133/101 117/158/117 311/462/311 313/466/313
f 314/467/314 315/468/315 313/466/313 312/465/312
f 102/134/102 101/133/101 313/466/313 315/468/315
f 316/469/316 305/456/305 315/468/315 314/467/314
f 103/137/103 102/134/102 315/468/315 305/456/305
f 90/120/90 317/470/317 316/469/316 314/467/314
f 318/471/318 308/459/308 316/469/316 317/470/317
f 306/457/306 305/456/305 316/469/316 308/459/308
f 87/115/87 86/114/86 318/471/318 317/470/317
f 88/472/88 319/473/319 318/471/318 86/114/86
f 309/460/309 308/459/308 318/471/318 319/473/319
f 94/124/94 93/123/93 319/474/319 88/475/88
f 310/461/310 309/464/309 319/474/319 93/123/93
f 92/122/92 87/115/87 317/470/317 90/120/90
f 91/121/91 90/120/90 314/467/314 312/465/312
f 93/123/93 91/121/91 312/465/312 310/461/310
f 67/136/67 98/159/98 117/158/117 101/133/101
f 28/35/28 72/96/72 96/126/96 29/36/29
f 89/119/89 95/476/95 94/477/94 88/117/88
f 81/113/81 80/478/80 95/476/95 84/110/84
f 20/26/20 320/479/320 78/480/78 76/152/76
f 321/481/321 322/482/322 78/480/78 320/479/320
f 323/483/323 73/98/73 78/104/78 322/484/322
f 60/80/60 59/79/59 323/483/323 322/484/322
f 324/485/324 325/486/325 323/483/323 59/79/59
f 66/99/66 73/98/73 323/483/323 325/486/325
f 326/487/326 327/488/327 325/486/325 324/485/324
f 64/489/64 66/99/66 325/486/325 327/488/327
f 63/84/63 328/490/328 327/491/327 326/492/326
f 74/100/74 64/85/64 327/491/327 328/490/328
f 61/81/61 321/481/321 328/490/328 63/84/63
f 320/479/320 74/100/74 328/490/328 321/481/321
f 329/493/329 52/64/52 326/487/326 324/485/324
f 51/63/51 63/84/63 326/492/326 52/494/52
f 59/79/59 54/69/54 329/493/329 324/485/324
f 49/68/49 330/495/330 329/493/329 54/69/54
f 53/65/53 52/64/52 329/493/329 330/495/330
f 61/81/61 60/82/60 322/482/322 321/481/321
f 14/19/14 74/100/74 320/479/320 20/26/20
f 46/58/46 56/350/56 62/83/62 47/59/47
f 123/170/123 16/169/16 15/24/15 18/23/18
f 304/451/304 24/31/24 23/30/23 26/33/26
f 252/342/252 45/341/45 42/496/42 41/497/41
f 92/122/92 83/109/83 82/108/82 87/115/87
f 132/179/132 126/173/126 97/127/97 128/175/128
f 224/303/224 228/307/228 270/498/270 223/302/223
f 250/355/250 249/333/249 248/332/248 258/354/258
f 330/495/330 49/68/49 48/66/48 53/65/53
f 186/250/186 203/273/203 3/3/3 2/2/2
f 234/327/234 218/499/218 260/363/260 242/324/242
f 233/312/233 219/297/219 218/298/218 234/313/234
f 22/29/22 27/34/27 23/30/23
f 84/110/84 95/476/95 89/119/89
f 22/500/22 303/447/303 27/446/27
f 89/119/89 85/111/85 84/110/84
