# split from a merged terrain OBJ by scripts/split-terrain-obj-parts.py
o part-050
v -0.603428 1.147215 0.141178
v -0.603094 1.149129 0.140762
v -0.604128 1.148729 0.142722
v -0.604524 1.147724 0.143788
v -0.606829 1.147242 0.143395
v -0.606469 1.149225 0.142574
v -0.605392 1.150138 0.140180
v -0.606073 1.146299 0.141296
v -0.602693 1.149553 0.137727
v -0.604473 1.150382 0.137836
v -0.603666 1.149436 0.134992
v -0.606010 1.150394 0.136459
v -0.608725 1.150452 0.139339
v -0.605444 1.146194 0.139457
v -0.607932 1.146282 0.139276
v -0.607368 1.146026 0.137782
v -0.605680 1.146050 0.137130
v -0.606915 1.146032 0.134921
v -0.608668 1.146046 0.136303
v -0.609940 1.146628 0.137610
v -0.609134 1.147709 0.142341
v -0.611282 1.148265 0.141297
v -0.611253 1.147366 0.139067
v -0.608723 1.146591 0.140633
v -0.612756 1.148569 0.140424
v -0.613225 1.148549 0.138975
v -0.613904 1.148407 0.137092
v -0.612690 1.147354 0.136720
v -0.611463 1.146628 0.135704
v -0.613616 1.146931 0.127862
v -0.615029 1.147059 0.128028
v -0.614870 1.147454 0.126845
v -0.613575 1.148113 0.127500
v -0.615950 1.147372 0.128580
v -0.615812 1.148057 0.127599
v -0.614266 1.148714 0.128574
v -0.613402 1.146504 0.131233
v -0.614759 1.146772 0.129514
v -0.613785 1.146518 0.129006
v -0.612316 1.146349 0.129857
v -0.611624 1.146910 0.128616
v -0.609129 1.149593 0.142030
v -0.610882 1.149780 0.141631
v -0.611743 1.149896 0.140231
v -0.607541 1.150127 0.134833
v -0.609849 1.150198 0.136900
v -0.612289 1.149802 0.138339
v -0.616275 1.147576 0.131032
v -0.617057 1.148526 0.131494
v -0.617371 1.148287 0.129946
v -0.616695 1.147809 0.129227
v -0.616632 1.148494 0.128275
v -0.617148 1.148912 0.129324
v -0.616154 1.149296 0.130992
v -0.615068 1.149089 0.129794
v -0.612523 1.149021 0.129912
v -0.613617 1.149264 0.131464
v -0.614917 1.149453 0.132818
v -0.612113 1.149494 0.133157
v -0.613752 1.149578 0.134687
v -0.616167 1.148772 0.133468
v -0.614955 1.148503 0.135260
v -0.612879 1.149700 0.136413
v -0.615360 1.147533 0.132891
v -0.614044 1.147402 0.134696
v -0.614297 1.146830 0.132037
v -0.612906 1.146619 0.133851
v -0.611678 1.146262 0.132720
v -0.610159 1.146073 0.134394
v -0.610256 1.146235 0.131215
v -0.608494 1.146098 0.132976
v -0.609459 1.146926 0.130065
v -0.607421 1.147063 0.131636
v -0.605338 1.146984 0.133464
v -0.603774 1.146990 0.135746
v -0.607585 1.148865 0.131493
v -0.605523 1.149135 0.133082
v -0.609130 1.149770 0.133086
v -0.609646 1.148522 0.130083
v -0.610796 1.149384 0.131441
v -0.610789 1.149904 0.134888
v -0.611649 1.148190 0.128699
v -0.602992 1.147171 0.138484
v -0.615474 1.147090 0.130259
vt 0.040673 0.989989
vt 0.041479 0.989170
vt 0.041967 0.991076
vt 0.041106 0.991238
vt 0.040444 0.992346
vt 0.041675 0.992432
vt 0.249373 0.963490
vt 0.248155 0.962563
vt 0.249266 0.961764
vt 0.250395 0.962645
vt 0.039581 0.991260
vt 0.251447 0.964029
vt 0.250426 0.964399
vt 0.251585 0.965573
vt 0.250027 0.965434
vt 0.248026 0.964712
vt 0.038948 0.990478
vt 0.038166 0.991593
vt 0.037632 0.990944
vt 0.037785 0.990005
vt 0.036440 0.989957
vt 0.036602 0.991128
vt 0.036855 0.992114
vt 0.039291 0.993182
vt 0.038261 0.993935
vt 0.037217 0.993167
vt 0.038579 0.992327
vt 0.037534 0.994376
vt 0.036752 0.994262
vt 0.035678 0.994097
vt 0.035758 0.993241
vt 0.035601 0.992325
vt 0.031424 0.991066
vt 0.031161 0.991831
vt 0.030537 0.991367
vt 0.031009 0.990529
vt 0.031209 0.992512
vt 0.030609 0.992260
vt 0.248042 0.971222
vt 0.248743 0.971667
vt 0.248292 0.972407
vt 0.247496 0.971995
vt 0.033052 0.991954
vt 0.031946 0.992135
vt 0.031954 0.991502
vt 0.032736 0.991044
vt 0.032328 0.990343
vt 0.247103 0.963465
vt 0.246351 0.964134
vt 0.246394 0.965018
vt 0.249646 0.966580
vt 0.248062 0.966164
vt 0.246577 0.966078
vt 0.032269 0.993426
vt 0.032264 0.994163
vt 0.031492 0.993804
vt 0.031339 0.993155
vt 0.030748 0.993054
vt 0.031009 0.993765
vt 0.246407 0.970505
vt 0.246255 0.971460
vt 0.245728 0.971315
vt 0.245704 0.970495
vt 0.247242 0.970802
vt 0.246820 0.971837
vt 0.248520 0.970189
vt 0.247569 0.969696
vt 0.246593 0.969367
vt 0.247846 0.968525
vt 0.246675 0.968206
vt 0.245742 0.969421
vt 0.245751 0.968286
vt 0.246683 0.967162
vt 0.245722 0.967175
vt 0.033333 0.993500
vt 0.034482 0.993328
vt 0.034514 0.994161
vt 0.033385 0.994388
vt 0.033205 0.992656
vt 0.034378 0.992461
vt 0.034189 0.991562
vt 0.035339 0.991305
vt 0.033894 0.990493
vt 0.035138 0.990113
vt 0.033551 0.989740
vt 0.034781 0.989090
vt 0.036248 0.988736
vt 0.037809 0.988721
vt 0.250542 0.968294
vt 0.251067 0.967047
vt 0.252051 0.967486
vt 0.251346 0.968477
vt 0.037495 0.987466
vt 0.036540 0.987733
vt 0.249273 0.967827
vt 0.249925 0.969444
vt 0.248926 0.969028
vt 0.248026 0.967366
vt 0.249374 0.970650
vt 0.032001 0.989723
vt 0.033119 0.989025
vt 0.034147 0.988541
vt 0.039408 0.989051
vt 0.039257 0.987657
vt 0.032117 0.992744
vt 0.245726 0.966080
vt 0.245597 0.965275
vt 0.039571 0.994075
vt 0.038843 0.994410
vt 0.247445 0.961671
vt 0.246802 0.962589
vt 0.245547 0.964331
vn 0.7543 -0.5793 0.3090
vn 0.8039 0.4924 0.3336
vn 0.5539 0.5282 0.6436
vn 0.3720 -0.2041 0.9055
vn -0.1393 -0.4097 0.9015
vn -0.0338 0.7311 0.6814
vn 0.1716 0.9537 0.2470
vn 0.0571 -0.9644 0.2583
vn 0.8675 0.4906 -0.0827
vn 0.2568 0.9665 0.0038
vn 0.7300 0.4765 -0.4899
vn 0.1116 0.9833 -0.1435
vn -0.0481 0.9923 0.1138
vn 0.1992 -0.9766 0.0809
vn -0.1632 -0.9805 0.1093
vn -0.0781 -0.9936 0.0820
vn 0.2114 -0.9768 -0.0338
vn 0.1696 -0.9749 -0.1444
vn -0.1235 -0.9893 0.0773
vn -0.2790 -0.9461 0.1644
vn -0.3986 -0.4197 0.8155
vn -0.5812 -0.3929 0.7126
vn -0.4078 -0.8775 0.2523
vn -0.2963 -0.9198 0.2574
vn -0.8432 -0.1764 0.5078
vn -0.9243 -0.1186 0.3629
vn -0.9022 -0.0772 0.4243
vn -0.4515 -0.8476 0.2787
vn -0.2867 -0.9369 0.2003
vn 0.1916 -0.7399 -0.6449
vn -0.3140 -0.8641 -0.3933
vn -0.1560 -0.1195 -0.9805
vn 0.2809 0.3964 -0.8741
vn -0.5835 -0.7708 -0.2557
vn -0.5765 0.2267 -0.7850
vn 0.0439 0.9117 -0.4085
vn -0.2016 -0.9784 0.0460
vn -0.2953 -0.9540 -0.0514
vn -0.1019 -0.9772 -0.1860
vn 0.0202 -0.9839 -0.1778
vn 0.4025 -0.5494 -0.7322
vn -0.1827 0.6610 0.7278
vn -0.3531 0.6101 0.7093
vn -0.4837 0.8038 0.3463
vn 0.0525 0.9734 -0.2231
vn -0.1153 0.9913 -0.0643
vn -0.4801 0.8720 0.0950
vn -0.5661 -0.8048 0.1783
vn -0.9432 0.0666 0.3255
vn -0.9882 -0.1513 0.0252
vn -0.7234 -0.6582 -0.2087
vn -0.6571 0.3561 -0.6644
vn -0.7098 0.6177 -0.3386
vn -0.3110 0.9504 -0.0091
vn 0.0070 0.9686 -0.2486
vn 0.0964 0.9469 -0.3067
vn 0.0036 0.9907 -0.1361
vn -0.2320 0.9698 0.0750
vn -0.0620 0.9910 -0.1190
vn -0.3049 0.9453 0.1157
vn -0.8600 0.1951 0.4715
vn -0.8571 0.0522 0.5125
vn -0.4089 0.9070 0.1005
vn -0.5547 -0.7790 0.2923
vn -0.5099 -0.8045 0.3046
vn -0.3465 -0.9272 0.1423
vn -0.3101 -0.9339 0.1780
vn -0.1435 -0.9889 0.0380
vn -0.1268 -0.9901 0.0600
vn 0.1121 -0.9719 -0.2069
vn 0.1475 -0.9695 -0.1958
vn 0.4985 -0.5101 -0.7009
vn 0.5420 -0.5108 -0.6673
vn 0.6044 -0.5676 -0.5590
vn 0.7249 -0.6046 -0.3300
vn 0.4623 0.5439 -0.7003
vn 0.5561 0.5116 -0.6550
vn 0.0398 0.9644 -0.2616
vn 0.4279 0.5473 -0.7193
vn 0.0516 0.9561 -0.2885
vn -0.1028 0.9895 -0.1016
vn 0.4128 0.4963 -0.7637
vn 0.8181 -0.5749 -0.0103
vn -0.4165 -0.9077 0.0500
f 1/1/1 2/2/2 3/3/3 4/4/4
f 5/5/5 4/4/4 3/3/3 6/6/6
f 7/7/7 6/8/6 3/9/3 2/10/2
f 8/11/8 1/1/1 4/4/4 5/5/5
f 2/10/2 9/12/9 10/13/10 7/7/7
f 11/14/11 12/15/12 10/13/10 9/12/9
f 13/16/13 7/7/7 10/13/10 12/15/12
f 14/17/14 15/18/15 16/19/16 17/20/17
f 18/21/18 17/20/17 16/19/16 19/22/19
f 20/23/20 19/22/19 16/19/16 15/18/15
f 21/24/21 22/25/22 23/26/23 24/27/24
f 25/28/25 26/29/26 23/26/23 22/25/22
f 15/18/15 24/27/24 23/26/23 20/23/20
f 27/30/27 28/31/28 23/26/23 26/29/26
f 29/32/29 20/23/20 23/26/23 28/31/28
f 30/33/30 31/34/31 32/35/32 33/36/33
f 34/37/34 35/38/35 32/35/32 31/34/31
f 36/39/36 33/40/33 32/41/32 35/42/35
f 37/43/37 38/44/38 39/45/39 40/46/40
f 41/47/41 40/46/40 39/45/39 30/33/30
f 31/34/31 30/33/30 39/45/39 38/44/38
f 6/8/6 7/7/7 13/16/13 42/48/42
f 43/49/43 42/48/42 13/16/13 44/50/44
f 45/51/45 46/52/46 13/16/13 12/15/12
f 47/53/47 44/50/44 13/16/13 46/52/46
f 48/54/48 49/55/49 50/56/50 51/57/51
f 52/58/52 51/57/51 50/56/50 53/59/53
f 54/60/54 53/61/53 50/62/50 49/63/49
f 55/64/55 52/65/52 53/61/53 54/60/54
f 56/66/56 36/39/36 55/64/55 57/67/57
f 35/42/35 52/65/52 55/64/55 36/39/36
f 58/68/58 57/67/57 55/64/55 54/60/54
f 59/69/59 57/67/57 58/68/58 60/70/60
f 49/63/49 61/71/61 58/68/58 54/60/54
f 62/72/62 60/70/60 58/68/58 61/71/61
f 63/73/63 60/70/60 62/72/62 27/74/27
f 64/75/64 65/76/65 62/77/62 61/78/61
f 28/31/28 27/30/27 62/77/62 65/76/65
f 66/79/66 67/80/67 65/76/65 64/75/64
f 29/32/29 28/31/28 65/76/65 67/80/67
f 37/43/37 68/81/68 67/80/67 66/79/66
f 69/82/69 29/32/29 67/80/67 68/81/68
f 20/23/20 29/32/29 69/82/69 19/22/19
f 70/83/70 71/84/71 69/82/69 68/81/68
f 18/21/18 19/22/19 69/82/69 71/84/71
f 72/85/72 73/86/73 71/84/71 70/83/70
f 74/87/74 18/21/18 71/84/71 73/86/73
f 17/20/17 18/21/18 74/87/74 75/88/75
f 76/89/76 77/90/77 74/91/74 73/92/73
f 11/93/11 75/88/75 74/87/74 77/94/77
f 78/95/78 45/51/45 77/90/77 76/89/76
f 12/15/12 11/14/11 77/90/77 45/51/45
f 79/96/79 80/97/80 78/95/78 76/89/76
f 59/69/59 81/98/81 78/95/78 80/97/80
f 46/52/46 45/51/45 78/95/78 81/98/81
f 60/70/60 63/73/63 81/98/81 59/69/59
f 47/53/47 46/52/46 81/98/81 63/73/63
f 82/99/82 56/66/56 80/97/80 79/96/79
f 57/67/57 59/69/59 80/97/80 56/66/56
f 72/85/72 41/47/41 82/100/82 79/101/79
f 30/33/30 33/36/33 82/100/82 41/47/41
f 36/39/36 56/66/56 82/99/82 33/40/33
f 73/86/73 72/85/72 79/101/79 76/102/76
f 14/17/14 17/20/17 75/88/75 83/103/83
f 9/104/9 83/103/83 75/88/75 11/93/11
f 8/11/8 14/17/14 83/103/83 1/1/1
f 2/2/2 1/1/1 83/103/83 9/104/9
f 40/46/40 41/47/41 72/85/72 70/83/70
f 37/43/37 40/46/40 70/83/70 68/81/68
f 48/54/48 84/105/84 66/79/66 64/75/64
f 38/44/38 37/43/37 66/79/66 84/105/84
f 51/57/51 34/37/34 84/105/84 48/54/48
f 31/34/31 38/44/38 84/105/84 34/37/34
f 49/55/49 48/54/48 64/75/64 61/78/61
f 26/106/26 47/53/47 63/73/63 27/74/27
f 34/37/34 51/57/51 52/58/52 35/38/35
f 25/107/25 44/50/44 47/53/47 26/106/26
f 22/25/22 21/24/21 42/108/42 43/109/43
f 5/110/5 6/8/6 42/48/42 21/111/21
f 8/11/8 5/5/5 21/24/21 24/27/24
f 14/17/14 8/11/8 24/27/24 15/18/15
f 44/50/44 25/107/25 22/112/22 43/49/43
