# split from a merged terrain OBJ by scripts/split-terrain-obj-parts.py
o part-056
v -0.909462 0.936324 0.070586
v -0.909127 0.937368 0.067074
v -0.907656 0.938062 0.067957
v -0.907857 0.938318 0.071278
v -0.908733 0.940308 0.071185
v -0.908431 0.940156 0.067339
v -0.909834 0.939916 0.065492
v -0.909007 0.938654 0.075529
v -0.910887 0.935815 0.075189
v -0.912653 0.936369 0.080453
v -0.914360 0.935233 0.077454
v -0.910326 0.937193 0.079391
v -0.912377 0.935379 0.068905
v -0.913911 0.934208 0.071916
v -0.916465 0.934448 0.074536
v -0.910090 0.938779 0.078860
v -0.910908 0.937123 0.083922
v -0.909456 0.937990 0.083137
v -0.908556 0.938785 0.085524
v -0.909944 0.937359 0.086509
v -0.911487 0.937627 0.087863
v -0.909926 0.939395 0.085575
v -0.909825 0.939440 0.082458
v -0.914770 0.938588 0.085358
v -0.913176 0.936935 0.085221
v -0.913346 0.938490 0.087396
v -0.911933 0.939678 0.085080
v -0.912084 0.939657 0.087289
v -0.911616 0.940985 0.067104
v -0.910202 0.940930 0.068109
v -0.911421 0.940976 0.070432
v -0.913584 0.941249 0.069419
v -0.920162 0.938649 0.076538
v -0.921365 0.938426 0.074318
v -0.920696 0.935246 0.074764
v -0.919412 0.935144 0.076936
v -0.919041 0.935091 0.071744
v -0.919529 0.938645 0.071798
v -0.917470 0.939843 0.074142
v -0.915521 0.940898 0.071793
v -0.915113 0.940147 0.077120
v -0.913123 0.940877 0.073312
v -0.910513 0.940248 0.074703
v -0.911846 0.939838 0.077944
v -0.918729 0.939107 0.079418
v -0.916791 0.938412 0.082533
v -0.914588 0.939689 0.081921
v -0.911973 0.939708 0.081946
v -0.914233 0.939763 0.085008
v -0.913446 0.939792 0.087104
v -0.917576 0.935821 0.079300
v -0.915283 0.936771 0.081986
v -0.917620 0.939192 0.069789
v -0.915739 0.940274 0.067978
v -0.916979 0.935656 0.069486
v -0.915380 0.936790 0.067374
v -0.913703 0.940674 0.065983
v -0.914077 0.937332 0.065694
v -0.911530 0.936800 0.066256
v -0.911388 0.940091 0.064529
vt 0.130434 0.026955
vt 0.131146 0.025223
vt 0.132081 0.025783
vt 0.131724 0.027553
vt 0.754282 0.977587
vt 0.755304 0.978153
vt 0.754357 0.979745
vt 0.753010 0.979192
vt 0.131495 0.023654
vt 0.132553 0.024660
vt 0.130899 0.029741
vt 0.129185 0.029228
vt 0.127880 0.031882
vt 0.127140 0.030148
vt 0.129391 0.031541
vt 0.128947 0.025777
vt 0.127753 0.027212
vt 0.126263 0.028392
vt 0.130368 0.031440
vt 0.128328 0.033823
vt 0.129430 0.033575
vt 0.129517 0.034933
vt 0.128511 0.035288
vt 0.760274 0.969667
vt 0.760589 0.970653
vt 0.760155 0.971586
vt 0.759311 0.971643
vt 0.758425 0.972969
vt 0.759469 0.972856
vt 0.757639 0.969093
vt 0.758764 0.968571
vt 0.758756 0.969650
vt 0.127641 0.035851
vt 0.126922 0.034456
vt 0.758621 0.971323
vt 0.758995 0.970379
vt 0.751658 0.979314
vt 0.751546 0.977921
vt 0.752483 0.978136
vt 0.752964 0.976788
vt 0.751763 0.976307
vt 0.122812 0.029740
vt 0.122498 0.028251
vt 0.124147 0.028205
vt 0.124610 0.029357
vt 0.125107 0.026609
vt 0.123011 0.026382
vt 0.752214 0.972961
vt 0.750410 0.972937
vt 0.750692 0.971153
vt 0.752139 0.970951
vt 0.751983 0.974674
vt 0.754367 0.972850
vt 0.753485 0.975058
vt 0.755036 0.975584
vt 0.755878 0.973879
vt 0.753898 0.970562
vt 0.755749 0.969307
vt 0.756299 0.971101
vt 0.757340 0.972391
vt 0.757042 0.974270
vt 0.757608 0.970327
vt 0.758688 0.970074
vt 0.125236 0.030889
vt 0.126218 0.032561
vt 0.125009 0.032995
vt 0.123509 0.031519
vt 0.125724 0.034639
vt 0.756278 0.975953
vt 0.750254 0.974417
vt 0.750333 0.975875
vt 0.748388 0.974313
vt 0.748421 0.975685
vt 0.750286 0.977581
vt 0.128852 0.023748
vt 0.127492 0.024311
vt 0.127679 0.022556
vt 0.128847 0.021892
vt 0.126382 0.025500
vt 0.748567 0.972754
vt 0.129902 0.024492
vt 0.750628 0.979122
vt 0.130365 0.022651
vt 0.130350 0.033335
vn 0.5855 -0.8104 -0.0224
vn 0.6047 -0.6002 -0.5235
vn 0.9398 -0.2370 -0.2461
vn 0.9809 -0.1106 0.1597
vn 0.6215 0.7711 0.1385
vn 0.7271 0.5802 -0.3670
vn 0.5130 0.3496 -0.7840
vn 0.9518 0.1308 0.2773
vn 0.5606 -0.8122 0.1614
vn 0.2120 -0.9598 0.1839
vn 0.1488 -0.9560 0.2530
vn 0.7619 -0.6435 0.0736
vn 0.1605 -0.9336 -0.3202
vn 0.1219 -0.9853 -0.1200
vn -0.0269 -0.9973 0.0684
vn 0.9010 0.4309 0.0504
vn 0.3025 -0.9514 0.0581
vn 0.9183 -0.3775 -0.1195
vn 0.9742 0.0170 0.2250
vn 0.5813 -0.6034 0.5459
vn 0.1075 -0.3295 0.9380
vn 0.5548 0.7556 0.3481
vn 0.6775 0.7267 -0.1135
vn -0.8564 -0.0832 0.5096
vn -0.2762 -0.9095 0.3108
vn -0.5754 -0.1758 0.7987
vn 0.1661 0.9800 0.1092
vn 0.1595 0.7579 0.6326
vn 0.0819 0.9762 -0.2006
vn 0.2368 0.9672 -0.0917
vn 0.1489 0.9865 0.0682
vn -0.1412 0.9890 -0.0432
vn -0.7733 0.5218 0.3602
vn -0.9154 0.3968 -0.0677
vn -0.7892 -0.6140 0.0134
vn -0.5619 -0.7199 0.4075
vn -0.5818 -0.6765 -0.4516
vn -0.7644 0.4599 -0.4519
vn -0.3304 0.9437 0.0192
vn -0.2927 0.9562 0.0073
vn -0.1276 0.9821 0.1384
vn 0.0159 0.9895 0.1438
vn 0.4093 0.8860 0.2179
vn 0.2476 0.9609 0.1240
vn -0.7243 0.4995 0.4753
vn -0.8150 0.1896 0.5476
vn -0.2074 0.9696 0.1302
vn 0.1394 0.9902 -0.0031
vn -0.4254 0.8837 0.1953
vn -0.4034 0.7334 0.5471
vn -0.4424 -0.7489 0.4934
vn -0.3459 -0.8494 0.3985
vn -0.7329 0.4671 -0.4947
vn -0.6490 0.6040 -0.4625
vn -0.4992 -0.6189 -0.6065
vn -0.5370 -0.4921 -0.6851
vn -0.3696 0.6331 -0.6802
vn -0.4338 -0.4061 -0.8043
vn 0.1394 -0.7047 -0.6957
vn 0.1467 0.3305 -0.9323
f 1/1/1 2/2/2 3/3/3 4/4/4
f 5/5/5 4/6/4 3/7/3 6/8/6
f 7/9/7 6/10/6 3/3/3 2/2/2
f 4/4/4 8/11/8 9/12/9 1/1/1
f 10/13/10 11/14/11 9/12/9 12/15/12
f 13/16/13 1/1/1 9/12/9 14/17/14
f 15/18/15 14/17/14 9/12/9 11/14/11
f 16/19/16 12/15/12 9/12/9 8/11/8
f 17/20/17 18/21/18 19/22/19 20/23/20
f 21/24/21 20/25/20 19/26/19 22/27/22
f 23/28/23 22/27/22 19/26/19 18/29/18
f 24/30/24 25/31/25 21/24/21 26/32/26
f 17/20/17 20/23/20 21/33/21 25/34/25
f 27/35/27 28/36/28 21/24/21 22/27/22
f 7/37/7 29/38/29 30/39/30 6/8/6
f 5/5/5 6/8/6 30/39/30 31/40/31
f 32/41/32 31/40/31 30/39/30 29/38/29
f 33/42/33 34/43/34 35/44/35 36/45/36
f 15/18/15 36/45/36 35/44/35 37/46/37
f 38/47/38 37/46/37 35/44/35 34/43/34
f 39/48/39 38/49/38 34/50/34 33/51/33
f 40/52/40 39/48/39 41/53/41 42/54/42
f 43/55/43 42/54/42 41/53/41 44/56/44
f 33/51/33 45/57/45 41/53/41 39/48/39
f 46/58/46 47/59/47 41/53/41 45/57/45
f 48/60/48 44/56/44 41/53/41 47/59/47
f 22/27/22 23/28/23 48/60/48 27/35/27
f 16/61/16 44/56/44 48/60/48 23/28/23
f 49/62/49 27/35/27 48/60/48 47/59/47
f 28/36/28 27/35/27 49/62/49 50/63/50
f 46/58/46 24/30/24 49/62/49 47/59/47
f 26/32/26 50/63/50 49/62/49 24/30/24
f 51/64/51 52/65/52 46/66/46 45/67/45
f 25/34/25 24/68/24 46/66/46 52/65/52
f 11/14/11 10/13/10 52/65/52 51/64/51
f 17/20/17 25/34/25 52/65/52 10/13/10
f 33/42/33 36/45/36 51/64/51 45/67/45
f 15/18/15 11/14/11 51/64/51 36/45/36
f 16/61/16 8/69/8 43/55/43 44/56/44
f 4/6/4 5/5/5 43/55/43 8/69/8
f 31/40/31 42/54/42 43/55/43 5/5/5
f 38/49/38 39/48/39 40/52/40 53/70/53
f 31/40/31 32/41/32 40/52/40 42/54/42
f 54/71/54 53/70/53 40/52/40 32/41/32
f 55/72/55 53/70/53 54/71/54 56/73/56
f 29/38/29 57/74/57 54/71/54 32/41/32
f 58/75/58 56/76/56 54/77/54 57/78/57
f 15/18/15 37/46/37 55/79/55 14/17/14
f 38/49/38 53/70/53 55/72/55 37/80/37
f 13/16/13 14/17/14 55/79/55 56/76/56
f 59/81/59 13/16/13 56/76/56 58/75/58
f 7/37/7 60/82/60 57/74/57 29/38/29
f 1/1/1 13/16/13 59/81/59 2/2/2
f 7/9/7 2/2/2 59/81/59 60/83/60
f 12/15/12 16/19/16 23/84/23 18/21/18
f 10/13/10 12/15/12 18/21/18 17/20/17
f 58/75/58 57/78/57 60/83/60 59/81/59
f 50/63/50 26/32/26 21/24/21 28/36/28
