# split from a merged terrain OBJ by scripts/split-terrain-obj-parts.py
o part-077
v 0.933862 0.022975 0.032893
v 0.924062 0.016685 0.031596
v 0.923334 0.018561 0.021023
v 0.929664 0.023593 0.016691
v 0.911879 0.014590 0.031021
v 0.915125 0.017558 0.017804
v 0.919345 0.023486 0.009307
v 0.929147 0.019863 0.047886
v 0.922742 0.015401 0.041696
v 0.918674 0.020347 0.055089
v 0.912902 0.016300 0.044975
v 0.934037 0.026986 0.052804
v 0.929253 0.033769 0.051773
v 0.922146 0.032283 0.058468
v 0.922009 0.024279 0.060933
v 0.921095 0.035582 0.048699
v 0.914566 0.033899 0.054380
v 0.910223 0.028212 0.058213
v 0.910874 0.025171 0.010311
v 0.912056 0.031421 0.009099
v 0.919874 0.033596 0.008341
v 0.913984 0.039264 0.015903
v 0.905405 0.033172 0.015074
v 0.905656 0.023192 0.016484
v 0.931179 0.036734 0.037395
v 0.919545 0.038274 0.039963
v 0.908518 0.036985 0.043754
v 0.907769 0.040458 0.028402
v 0.917164 0.039869 0.028657
v 0.924340 0.039098 0.022154
v 0.910719 0.022382 0.055188
v 0.901737 0.030307 0.046905
v 0.904792 0.021673 0.046222
v 0.899740 0.032740 0.029346
v 0.901824 0.021640 0.030492
v 0.939603 0.031104 0.034909
v 0.932422 0.033831 0.015681
vt 0.282340 0.977239
vt 0.276627 0.978881
vt 0.274946 0.972191
vt 0.278653 0.969334
vt 0.030847 0.107307
vt 0.037218 0.103197
vt 0.038548 0.107679
vt 0.034164 0.112160
vt 0.275787 0.963619
vt 0.272470 0.968334
vt 0.285054 0.984953
vt 0.278727 0.984843
vt 0.286150 0.990800
vt 0.278883 0.990042
vt 0.028523 0.114763
vt 0.023899 0.111730
vt 0.290735 0.983966
vt 0.295148 0.981287
vt 0.298440 0.984829
vt 0.293019 0.988956
vt 0.299884 0.978667
vt 0.302418 0.982505
vt 0.014035 0.107984
vt 0.012852 0.114069
vt 0.008766 0.108455
vt 0.010765 0.103984
vt 0.040920 0.098637
vt 0.037083 0.096660
vt 0.036426 0.091989
vt 0.040179 0.091931
vt 0.291163 0.959803
vt 0.282790 0.960242
vt 0.285461 0.957035
vt 0.290319 0.954973
vt 0.033785 0.097419
vt 0.031418 0.091942
vt 0.292707 0.974211
vt 0.298849 0.972965
vt 0.015509 0.098899
vt 0.008702 0.099345
vt 0.011006 0.094872
vt 0.297950 0.961762
vt 0.296414 0.965963
vt 0.289967 0.965116
vt 0.016181 0.090025
vt 0.020892 0.091826
vt 0.017174 0.110575
vt 0.017737 0.114465
vt 0.018027 0.103604
vt 0.021095 0.107165
vt 0.024469 0.096691
vt 0.027759 0.101684
vt 0.027557 0.087392
vt 0.287688 0.975983
vt 0.283981 0.966911
vn 0.7451 -0.6582 -0.1076
vn 0.3567 -0.9298 -0.0905
vn 0.3560 -0.8919 -0.2789
vn 0.6428 -0.5656 -0.5166
vn -0.2484 -0.9653 -0.0800
vn -0.0984 -0.9094 -0.4042
vn 0.1608 -0.5202 -0.8388
vn 0.5137 -0.8157 0.2660
vn 0.2641 -0.9556 0.1306
vn -0.0118 -0.8245 0.5657
vn -0.2214 -0.9407 0.2571
vn 0.8210 -0.1043 0.5613
vn 0.4388 0.7635 0.4738
vn 0.1603 0.6543 0.7391
vn 0.1947 -0.2474 0.9492
vn 0.0716 0.9574 0.2796
vn -0.2008 0.8059 0.5569
vn -0.5457 0.0931 0.8328
vn -0.4342 -0.3838 -0.8149
vn -0.3949 0.2321 -0.8889
vn 0.1727 0.4012 -0.8995
vn -0.1684 0.8959 -0.4110
vn -0.7612 0.3503 -0.5458
vn -0.7133 -0.4942 -0.4970
vn 0.4303 0.8919 0.1390
vn 0.0794 0.9768 0.1987
vn -0.3538 0.8855 0.3013
vn -0.3733 0.9275 -0.0183
vn 0.0767 0.9952 0.0607
vn 0.2776 0.9482 -0.1544
vn -0.4999 -0.6284 0.5960
vn -0.8837 0.2463 0.3980
vn -0.7403 -0.5901 0.3220
vn -0.9453 0.3156 -0.0825
vn -0.8314 -0.5489 -0.0869
vn 0.9833 0.1818 0.0015
vn 0.7469 0.3617 -0.5580
f 1/1/1 2/2/2 3/3/3 4/4/4
f 5/5/5 6/6/6 3/7/3 2/8/2
f 7/9/7 4/4/4 3/3/3 6/10/6
f 1/1/1 8/11/8 9/12/9 2/2/2
f 10/13/10 11/14/11 9/12/9 8/11/8
f 5/5/5 2/8/2 9/15/9 11/16/11
f 12/17/12 13/18/13 14/19/14 15/20/15
f 16/21/16 17/22/17 14/19/14 13/18/13
f 18/23/18 15/24/15 14/25/14 17/26/17
f 7/27/7 19/28/19 20/29/20 21/30/21
f 22/31/22 21/32/21 20/33/20 23/34/23
f 24/35/24 23/36/23 20/29/20 19/28/19
f 25/37/25 26/38/26 16/21/16 13/18/13
f 27/39/27 17/26/17 16/40/16 26/41/26
f 22/31/22 28/42/28 29/43/29 30/44/30
f 25/37/25 30/44/30 29/43/29 26/38/26
f 27/39/27 26/41/26 29/45/29 28/46/28
f 6/6/6 24/35/24 19/28/19 7/27/7
f 15/24/15 18/23/18 31/47/31 10/48/10
f 32/49/32 33/50/33 31/47/31 18/23/18
f 11/16/11 10/48/10 31/47/31 33/50/33
f 34/51/34 35/52/35 33/50/33 32/49/32
f 5/5/5 11/16/11 33/50/33 35/52/35
f 23/36/23 24/35/24 35/52/35 34/51/34
f 6/6/6 5/5/5 35/52/35 24/35/24
f 27/39/27 28/46/28 34/51/34 32/49/32
f 22/53/22 23/36/23 34/51/34 28/46/28
f 17/26/17 27/39/27 32/49/32 18/23/18
f 36/54/36 37/55/37 30/44/30 25/37/25
f 21/32/21 22/31/22 30/44/30 37/55/37
f 1/1/1 4/4/4 37/55/37 36/54/36
f 7/9/7 21/32/21 37/55/37 4/4/4
f 8/11/8 1/1/1 36/54/36 12/17/12
f 13/18/13 12/17/12 36/54/36 25/37/25
f 10/13/10 8/11/8 12/17/12 15/20/15
