# split from a merged terrain OBJ by scripts/split-terrain-obj-parts.py
o part-071
v -0.687252 0.936166 0.025554
v -0.689319 0.939807 0.020351
v -0.688134 0.944961 0.021780
v -0.687303 0.941224 0.027837
v -0.693358 0.939404 0.018073
v -0.694052 0.945699 0.019604
v -0.694049 0.944058 0.028471
v -0.687019 0.938346 0.037016
v -0.694087 0.941129 0.037967
v -0.694041 0.940516 0.044049
v -0.689485 0.937968 0.046169
v -0.703123 0.942329 0.040931
v -0.699352 0.939589 0.049412
v -0.695383 0.936032 0.053087
v -0.701049 0.930125 0.049573
v -0.695133 0.929390 0.051864
v -0.690161 0.930214 0.045089
v -0.692334 0.933374 0.024047
v -0.698818 0.927745 0.030622
v -0.705154 0.928891 0.026911
v -0.702785 0.931672 0.022935
v -0.697850 0.932311 0.023415
v -0.711512 0.932982 0.023345
v -0.706265 0.936420 0.020633
v -0.699802 0.938629 0.017599
v -0.695883 0.925407 0.042279
v -0.707742 0.931228 0.046116
v -0.714916 0.933719 0.039130
v -0.710531 0.942019 0.034168
v -0.700854 0.945109 0.028974
v -0.707269 0.944851 0.028285
v -0.701116 0.946270 0.019370
v -0.708882 0.942675 0.022475
v -0.714350 0.939708 0.027675
v -0.717174 0.935552 0.032107
v -0.714536 0.929965 0.027558
v -0.709940 0.927505 0.033108
v -0.703102 0.925883 0.038735
v -0.692979 0.929144 0.032877
v -0.687650 0.932520 0.035140
vt 0.011996 0.502360
vt 0.014639 0.504300
vt 0.013410 0.506221
vt 0.010415 0.505807
vt 0.016929 0.504931
vt 0.015693 0.507764
vt 0.011628 0.510106
vt 0.817282 0.012889
vt 0.817344 0.022565
vt 0.815673 0.021028
vt 0.815548 0.014160
vt 0.809985 0.027203
vt 0.812575 0.020322
vt 0.813678 0.016430
vt 0.809942 0.016555
vt 0.811800 0.014377
vt 0.813883 0.011019
vt 0.015421 0.500812
vt 0.802388 0.005120
vt 0.797214 0.010014
vt 0.794887 0.008842
vt 0.796811 0.006390
vt 0.792119 0.014500
vt 0.789771 0.013714
vt 0.019991 0.505131
vt 0.018602 0.500116
vt 0.022878 0.502430
vt 0.023082 0.506845
vt 0.808914 0.010262
vt 0.806260 0.018138
vt 0.801041 0.019819
vt 0.799889 0.025627
vt 0.014538 0.512856
vt 0.009273 0.516638
vt 0.006243 0.510896
vt 0.018265 0.515145
vt 0.016402 0.518472
vt 0.018320 0.509941
vt 0.022073 0.511686
vt 0.793544 0.021204
vt 0.793872 0.027708
vt 0.790132 0.021502
vt 0.796920 0.019868
vt 0.795338 0.015403
vt 0.799308 0.013226
vt 0.804098 0.010875
vt 0.809164 0.005298
vt 0.010739 0.496429
vt 0.014505 0.496253
vt 0.007263 0.501669
vt 0.816653 0.009216
vt 0.005692 0.505700
vn 0.8478 -0.4121 -0.3338
vn 0.6913 -0.1768 -0.7006
vn 0.6982 0.6587 -0.2804
vn 0.8543 0.5133 0.0819
vn 0.2916 -0.2129 -0.9326
vn 0.2610 0.7952 -0.5473
vn 0.2308 0.9396 0.2528
vn 0.8818 0.4298 0.1941
vn 0.2861 0.9331 0.2178
vn 0.2701 0.9292 0.2521
vn 0.7722 0.4558 0.4426
vn -0.2308 0.8555 0.4635
vn -0.2409 0.6891 0.6835
vn 0.1743 0.2747 0.9456
vn -0.4540 -0.4617 0.7620
vn 0.2271 -0.5254 0.8200
vn 0.7555 -0.5637 0.3338
vn 0.3916 -0.7433 -0.5423
vn 0.1489 -0.9258 -0.3475
vn -0.0308 -0.8688 -0.4942
vn -0.0032 -0.7116 -0.7026
vn 0.1592 -0.7597 -0.6305
vn -0.5245 -0.3900 -0.7568
vn -0.3552 -0.2599 -0.8979
vn -0.0822 -0.2164 -0.9728
vn 0.1858 -0.9748 0.1236
vn -0.6764 -0.2568 0.6903
vn -0.8416 -0.0813 0.5340
vn -0.5108 0.7965 0.3237
vn -0.0186 0.9853 0.1697
vn -0.3565 0.9324 0.0594
vn -0.1735 0.7824 -0.5981
vn -0.5865 0.5843 -0.5608
vn -0.8221 0.4837 -0.3004
vn -0.9966 0.0669 0.0472
vn -0.6845 -0.6255 -0.3744
vn -0.4027 -0.9146 -0.0357
vn -0.1949 -0.9771 0.0853
vn 0.4316 -0.8635 -0.2608
vn 0.8723 -0.4873 -0.0401
f 1/1/1 2/2/2 3/3/3 4/4/4
f 5/5/5 6/6/6 3/3/3 2/2/2
f 7/7/7 4/4/4 3/3/3 6/6/6
f 8/8/8 9/9/9 10/10/10 11/11/11
f 12/12/12 13/13/13 10/10/10 9/9/9
f 14/14/14 11/11/11 10/10/10 13/13/13
f 15/15/15 16/16/16 14/14/14 13/13/13
f 17/17/17 11/11/11 14/14/14 16/16/16
f 18/18/18 5/5/5 2/2/2 1/1/1
f 19/19/19 20/20/20 21/21/21 22/22/22
f 23/23/23 24/24/24 21/21/21 20/20/20
f 25/25/25 22/26/22 21/27/21 24/28/24
f 26/29/26 17/17/17 16/16/16 15/15/15
f 15/15/15 13/13/13 12/12/12 27/30/27
f 28/31/28 27/30/27 12/12/12 29/32/29
f 7/7/7 30/33/30 12/34/12 9/35/9
f 31/36/31 29/37/29 12/34/12 30/33/30
f 32/38/32 33/39/33 31/36/31 30/33/30
f 34/40/34 29/32/29 31/41/31 33/42/33
f 28/31/28 35/43/35 36/44/36 37/45/37
f 20/20/20 37/45/37 36/44/36 23/23/23
f 34/40/34 23/23/23 36/44/36 35/43/35
f 29/32/29 34/40/34 35/43/35 28/31/28
f 19/19/19 38/46/38 37/45/37 20/20/20
f 27/30/27 28/31/28 37/45/37 38/46/38
f 39/47/39 26/29/26 38/46/38 19/19/19
f 15/15/15 27/30/27 38/46/38 26/29/26
f 22/26/22 18/18/18 39/48/39 19/49/19
f 1/1/1 40/50/40 39/48/39 18/18/18
f 17/17/17 26/29/26 39/47/39 40/51/40
f 4/4/4 8/52/8 40/50/40 1/1/1
f 11/11/11 17/17/17 40/51/40 8/8/8
f 24/24/24 23/23/23 34/40/34 33/42/33
f 25/25/25 24/28/24 33/39/33 32/38/32
f 7/7/7 6/6/6 32/38/32 30/33/30
f 5/5/5 25/25/25 32/38/32 6/6/6
f 18/18/18 22/26/22 25/25/25 5/5/5
f 4/4/4 7/7/7 9/35/9 8/52/8
