# split from a merged terrain OBJ by scripts/split-terrain-obj-parts.py
o part-025
v 0.409626 0.203961 0.015335
v 0.405832 0.208777 0.014587
v 0.396505 0.208695 0.027712
v 0.403184 0.204462 0.026650
v 0.402613 0.221861 0.013262
v 0.393430 0.221250 0.024607
v 0.380081 0.220311 0.027042
v 0.381443 0.205693 0.030301
v 0.398641 0.197849 0.030393
v 0.392813 0.197230 0.032151
v 0.381489 0.195764 0.032804
v 0.395898 0.191269 -0.027622
v 0.396550 0.191786 -0.036904
v 0.404454 0.193572 -0.036153
v 0.405956 0.192341 -0.027701
v 0.397040 0.197283 -0.041743
v 0.407309 0.197996 -0.038963
v 0.412197 0.196799 -0.028307
v 0.370527 0.195557 0.032468
v 0.370010 0.205203 0.031375
v 0.358303 0.205343 0.032897
v 0.360103 0.196631 0.031686
v 0.368553 0.219314 0.027100
v 0.357944 0.219384 0.023706
v 0.355947 0.212216 0.027808
v 0.354660 0.204674 0.030975
v 0.353399 0.207286 0.026067
v 0.350058 0.201730 0.026210
v 0.348704 0.211732 0.010970
v 0.348081 0.205207 0.011654
v 0.345659 0.199803 -0.027591
v 0.346255 0.206082 -0.027535
v 0.349243 0.206622 -0.037832
v 0.346611 0.200154 -0.034158
v 0.360482 0.198147 -0.041364
v 0.353199 0.199840 -0.039441
v 0.361866 0.205453 -0.040392
v 0.363137 0.212580 -0.036807
v 0.351939 0.214582 -0.035262
v 0.348516 0.213808 -0.027169
v 0.366477 0.246298 0.026352
v 0.356831 0.246827 0.019455
v 0.351885 0.247627 0.005790
v 0.351867 0.221796 0.008261
v 0.405860 0.301866 0.030251
v 0.403754 0.301765 0.036377
v 0.403680 0.298894 0.036076
v 0.406015 0.298762 0.030388
v 0.401885 0.295968 0.030719
v 0.399722 0.298199 0.036885
v 0.399703 0.301859 0.037067
v 0.401893 0.303573 0.030489
v 0.395151 0.293806 0.031187
v 0.398942 0.286788 0.021515
v 0.405813 0.294314 0.020397
v 0.406600 0.273576 0.000795
v 0.407351 0.287393 0.003887
v 0.400111 0.272514 0.017536
v 0.386939 0.293218 0.031443
v 0.387397 0.286650 0.027177
v 0.389243 0.271974 0.025894
v 0.408093 0.274519 -0.024242
v 0.406408 0.275168 -0.033478
v 0.407255 0.292260 -0.035066
v 0.409967 0.289650 -0.024114
v 0.411687 0.303154 -0.038763
v 0.413987 0.301713 -0.037671
v 0.410096 0.298536 -0.043992
v 0.413246 0.296972 -0.024533
v 0.401231 0.298670 -0.045356
v 0.399630 0.291256 -0.038049
v 0.398560 0.275053 -0.035070
v 0.404368 0.304635 0.020845
v 0.405244 0.306719 0.007532
v 0.397551 0.313321 0.010297
v 0.398888 0.307503 0.022909
v 0.405654 0.307944 -0.007371
v 0.399616 0.314744 -0.005775
v 0.390204 0.328603 -0.004426
v 0.390507 0.324827 0.007066
v 0.388581 0.319279 0.014692
v 0.391214 0.314312 0.020232
v 0.391539 0.308987 0.027738
v 0.380132 0.350410 -0.008891
v 0.379963 0.355387 -0.009449
v 0.379178 0.354912 -0.005670
v 0.379339 0.350316 -0.005879
v 0.377589 0.350473 -0.009864
v 0.377078 0.350318 -0.006375
v 0.377629 0.355549 -0.009774
v 0.379712 0.345754 -0.004786
v 0.381669 0.344125 -0.009440
v 0.382756 0.341337 -0.001224
v 0.385554 0.340839 -0.005781
v 0.387298 0.335530 -0.010563
v 0.382319 0.338089 -0.017451
v 0.377952 0.345702 -0.011095
v 0.376358 0.341939 -0.014292
v 0.376652 0.346247 -0.005973
v 0.375878 0.339775 0.000660
v 0.369592 0.332859 -0.002036
v 0.372297 0.332696 0.003843
v 0.370683 0.336433 -0.012351
v 0.373552 0.337428 -0.021104
v 0.386674 0.329752 -0.017689
v 0.393984 0.325629 -0.016156
v 0.378993 0.333789 -0.021081
v 0.399272 0.315777 -0.018539
v 0.396002 0.317116 -0.026737
v 0.395339 0.324892 -0.024946
v 0.386289 0.317203 -0.029543
v 0.385776 0.325624 -0.023978
v 0.413427 0.302442 -0.024405
v 0.380004 0.314076 0.024453
v 0.379511 0.321791 0.014671
v 0.371932 0.321513 0.013465
v 0.366157 0.320702 0.008930
v 0.403154 0.306784 -0.037465
v 0.373539 0.328834 -0.020177
v 0.408615 0.305610 -0.023506
v 0.404924 0.309925 -0.021782
v 0.399293 0.311336 -0.031517
v 0.388061 0.310273 -0.035536
v 0.389290 0.305144 -0.041120
v 0.388971 0.299038 -0.045819
v 0.365910 0.325932 -0.008541
v 0.359549 0.317755 -0.012723
v 0.362905 0.323803 -0.023867
v 0.360420 0.314114 -0.026912
v 0.374262 0.317571 -0.029112
v 0.359017 0.295083 0.031319
v 0.354766 0.293090 0.024738
v 0.362656 0.285709 0.026098
v 0.366670 0.293586 0.031171
v 0.376762 0.293101 0.031409
v 0.376137 0.286208 0.027951
v 0.376780 0.271301 0.026937
v 0.364329 0.271110 0.025962
v 0.355063 0.271671 0.017040
v 0.353589 0.285867 0.015010
v 0.349337 0.293038 0.014371
v 0.353012 0.310246 -0.012899
v 0.374471 0.309739 -0.036180
v 0.359459 0.308194 -0.036440
v 0.345844 0.303819 -0.012290
v 0.348456 0.305315 -0.024672
v 0.348281 0.303751 -0.033698
v 0.368802 0.304186 0.034166
v 0.368438 0.308229 0.030129
v 0.359439 0.307519 0.027846
v 0.361705 0.303062 0.034838
v 0.369603 0.314252 0.023569
v 0.362365 0.313208 0.018695
v 0.356296 0.310593 0.013071
v 0.355193 0.307507 0.020749
v 0.356822 0.301816 0.035335
v 0.354015 0.303321 0.030001
v 0.351671 0.304907 0.021539
v 0.351817 0.307039 0.011530
v 0.375519 0.291522 -0.039366
v 0.360947 0.292503 -0.040131
v 0.360845 0.298858 -0.045876
v 0.374800 0.298959 -0.045817
v 0.374895 0.304331 -0.042028
v 0.358579 0.302845 -0.042949
v 0.351466 0.295652 -0.041113
v 0.364453 0.274252 -0.035291
v 0.355264 0.274136 -0.034515
v 0.350576 0.273842 -0.027988
v 0.348299 0.291012 -0.029861
v 0.360769 0.317022 0.003085
v 0.354483 0.311330 0.000529
v 0.348657 0.305852 0.000457
v 0.346772 0.303251 0.012702
v 0.342881 0.300133 0.001014
v 0.345019 0.298024 0.014020
v 0.349797 0.297306 0.023876
v 0.348452 0.301798 0.022918
v 0.353174 0.297263 0.031129
v 0.350976 0.300713 0.030774
v 0.356512 0.297692 0.036037
v 0.353522 0.300787 0.034956
v 0.361919 0.297796 0.035489
v 0.359576 0.300084 0.039093
v 0.363411 0.300312 0.038033
v 0.368958 0.297224 0.035220
v 0.369681 0.300758 0.037004
v 0.377754 0.297117 0.034964
v 0.378554 0.301096 0.037000
v 0.378954 0.305019 0.033191
v 0.379480 0.308707 0.029843
v 0.387407 0.301876 0.036758
v 0.389295 0.305160 0.032747
v 0.394435 0.301806 0.036930
v 0.396869 0.304344 0.031484
v 0.386832 0.297311 0.035390
v 0.393932 0.297677 0.036341
v 0.346225 0.294662 0.001656
v 0.348440 0.288282 -0.010568
v 0.349808 0.286772 0.002458
v 0.345145 0.296077 -0.011322
v 0.350518 0.273138 -0.009059
v 0.351308 0.272361 0.003674
v 0.350776 0.248438 -0.006911
v 0.350320 0.225819 -0.016721
v 0.350671 0.224141 -0.005256
v 0.350508 0.249172 -0.017204
v 0.350263 0.273422 -0.019124
v 0.350839 0.249724 -0.026442
v 0.348106 0.289634 -0.021323
v 0.344453 0.297502 -0.022606
v 0.344860 0.297099 -0.029785
v 0.354972 0.228623 -0.033560
v 0.350652 0.227540 -0.026308
v 0.356034 0.249867 -0.033548
v 0.347752 0.212369 -0.016587
v 0.345526 0.205106 -0.016610
v 0.345522 0.204451 -0.003844
v 0.347527 0.211097 -0.004283
v 0.345251 0.198496 -0.016646
v 0.344886 0.198489 -0.003411
v 0.345823 0.199529 0.011924
v 0.349227 0.192675 -0.002915
v 0.350454 0.194076 0.011597
v 0.352614 0.196084 0.024363
v 0.354570 0.198191 0.030510
v 0.359277 0.191686 0.010777
v 0.360015 0.192430 0.023078
v 0.370547 0.191188 0.010898
v 0.370382 0.191287 0.022794
v 0.382335 0.191201 0.011217
v 0.381698 0.191469 0.023725
v 0.393550 0.191461 0.011964
v 0.392212 0.191889 0.023889
v 0.403731 0.192519 0.014169
v 0.400907 0.193892 0.025354
v 0.395746 0.191323 -0.001452
v 0.406275 0.192029 0.000001
v 0.412269 0.196777 0.000548
v 0.408962 0.197944 0.015029
v 0.405336 0.198536 0.023652
v 0.413372 0.203193 0.000279
v 0.412893 0.196315 -0.015266
v 0.413738 0.202842 -0.015305
v 0.410840 0.209009 -0.015313
v 0.410188 0.208672 -0.000969
v 0.407669 0.224525 -0.015446
v 0.406740 0.223223 -0.002095
v 0.407648 0.249974 -0.014695
v 0.406836 0.249094 -0.001698
v 0.401963 0.247855 0.014590
v 0.391596 0.246804 0.025303
v 0.378611 0.246421 0.026837
v 0.407642 0.274163 -0.012901
v 0.407947 0.250489 -0.025269
v 0.409031 0.288207 -0.011346
v 0.411741 0.294845 -0.010406
v 0.410438 0.294109 0.005034
v 0.414588 0.300458 -0.009682
v 0.414066 0.298449 0.005887
v 0.410271 0.298567 0.020359
v 0.411041 0.303220 0.006600
v 0.409084 0.302115 0.020318
v 0.410382 0.304259 -0.008616
v 0.407989 0.225644 -0.026285
v 0.405515 0.226746 -0.034732
v 0.405987 0.250788 -0.034091
v 0.396746 0.227305 -0.035360
v 0.397640 0.250222 -0.035227
v 0.386846 0.227986 -0.035419
v 0.387757 0.249841 -0.035319
v 0.388259 0.274966 -0.035431
v 0.376808 0.249594 -0.035278
v 0.376417 0.274817 -0.035466
v 0.388615 0.291375 -0.038945
v 0.365968 0.249511 -0.034933
v 0.375597 0.228131 -0.035365
v 0.364657 0.228416 -0.035164
v 0.374394 0.212292 -0.037221
v 0.385550 0.203603 -0.041428
v 0.373445 0.203959 -0.041147
v 0.385895 0.211836 -0.037852
v 0.385242 0.196547 -0.042049
v 0.372528 0.196551 -0.042339
v 0.360250 0.192899 -0.036209
v 0.372159 0.191643 -0.036856
v 0.384824 0.191482 -0.037070
v 0.372184 0.191199 -0.027429
v 0.384394 0.191210 -0.027782
v 0.359499 0.191332 -0.015942
v 0.360318 0.191485 -0.027328
v 0.371754 0.191179 -0.015883
v 0.384162 0.191173 -0.015687
v 0.371026 0.191186 -0.002835
v 0.383665 0.191183 -0.002750
v 0.396189 0.191237 -0.015498
v 0.406581 0.191505 -0.015498
v 0.358813 0.191376 -0.002760
v 0.350033 0.192834 -0.016458
v 0.350373 0.193772 -0.027671
v 0.351118 0.196758 -0.035435
v 0.397026 0.203831 -0.040869
v 0.407096 0.203606 -0.037638
v 0.397027 0.211366 -0.038528
v 0.406927 0.211435 -0.036252
v 0.412415 0.203049 -0.027897
v 0.410143 0.209777 -0.027166
vt 0.375836 0.289684
vt 0.374751 0.293560
vt 0.364814 0.291955
vt 0.368837 0.288297
vt 0.372684 0.301525
vt 0.364416 0.299783
vt 0.357006 0.296055
vt 0.359033 0.287361
vt 0.366562 0.284130
vt 0.364280 0.282925
vt 0.360603 0.280496
vt 0.401719 0.274767
vt 0.406974 0.278220
vt 0.406133 0.281611
vt 0.401365 0.280516
vt 0.410103 0.281484
vt 0.407298 0.285411
vt 0.401727 0.285675
vt 0.358105 0.277246
vt 0.355170 0.283509
vt 0.351919 0.279761
vt 0.355492 0.274948
vt 0.350694 0.292309
vt 0.344807 0.286552
vt 0.349517 0.279798
vt 0.351782 0.276459
vt 0.351117 0.274712
vt 0.353400 0.271897
vt 0.349365 0.272415
vt 0.353380 0.265887
vt 0.386345 0.253706
vt 0.385711 0.252282
vt 0.399398 0.253860
vt 0.394720 0.255451
vt 0.326341 0.494396
vt 0.332057 0.490916
vt 0.337439 0.493130
vt 0.329936 0.498514
vt 0.334263 0.502488
vt 0.341702 0.497256
vt 0.346267 0.491910
vt 0.341718 0.488696
vt 0.348205 0.306323
vt 0.344377 0.305597
vt 0.384699 0.493556
vt 0.373226 0.478774
vt 0.383877 0.468362
vt 0.394260 0.486091
vt 0.345340 0.277553
vt 0.361770 0.352003
vt 0.358829 0.351870
vt 0.358418 0.350788
vt 0.361533 0.350228
vt 0.359728 0.347711
vt 0.356694 0.350109
vt 0.357233 0.352515
vt 0.360788 0.354054
vt 0.357646 0.344774
vt 0.363582 0.340404
vt 0.366571 0.346325
vt 0.380454 0.333367
vt 0.378469 0.341529
vt 0.367872 0.331912
vt 0.354691 0.341875
vt 0.356726 0.337619
vt 0.359134 0.329086
vt 0.400413 0.332854
vt 0.407462 0.332460
vt 0.408469 0.341956
vt 0.399996 0.341836
vt 0.410102 0.349751
vt 0.408119 0.348541
vt 0.411871 0.347601
vt 0.400298 0.346964
vt 0.415929 0.347191
vt 0.413970 0.341248
vt 0.413053 0.331725
vt 0.365620 0.356699
vt 0.375110 0.356708
vt 0.370021 0.362930
vt 0.360585 0.358363
vt 0.386541 0.356629
vt 0.384977 0.361976
vt 0.384622 0.369482
vt 0.371676 0.369340
vt 0.364477 0.366497
vt 0.358945 0.363322
vt 0.356521 0.359383
vt 0.978371 0.762432
vt 0.975672 0.761473
vt 0.975405 0.759262
vt 0.978703 0.761148
vt 0.424655 0.571330
vt 0.426088 0.570116
vt 0.428402 0.572745
vt 0.426743 0.573940
vt 0.981248 0.761517
vt 0.981914 0.764133
vt 0.984705 0.759617
vt 0.985146 0.762272
vt 0.987390 0.764903
vt 0.984673 0.769065
vt 0.977746 0.763468
vt 0.979912 0.765222
vt 0.980605 0.768126
vt 0.426917 0.567461
vt 0.424873 0.567497
vt 0.426352 0.560626
vt 0.428518 0.564744
vt 0.435373 0.569356
vt 0.436977 0.570411
vt 0.420390 0.556854
vt 0.424931 0.554915
vt 0.415308 0.563164
vt 0.421699 0.569489
vt 0.417334 0.569260
vt 0.410609 0.568323
vt 0.393233 0.373598
vt 0.386974 0.376185
vt 0.394138 0.368887
vt 0.404150 0.572509
vt 0.407842 0.568894
vt 0.408394 0.573188
vt 0.406050 0.577879
vt 0.395878 0.362173
vt 0.402012 0.363170
vt 0.400383 0.367683
vt 0.390549 0.571124
vt 0.398775 0.571287
vt 0.395063 0.577174
vt 0.388050 0.577171
vt 0.401261 0.578322
vt 0.400373 0.350701
vt 0.438340 0.538198
vt 0.444737 0.542941
vt 0.440203 0.547389
vt 0.433667 0.547098
vt 0.367237 0.381115
vt 0.362791 0.371550
vt 0.428565 0.544904
vt 0.423109 0.544554
vt 0.412708 0.354277
vt 0.406318 0.563358
vt 0.399985 0.353939
vt 0.398471 0.357219
vt 0.406203 0.359289
vt 0.381854 0.570774
vt 0.382202 0.578593
vt 0.375982 0.578906
vt 0.374948 0.569966
vt 0.421811 0.347514
vt 0.420633 0.352339
vt 0.413187 0.554305
vt 0.407369 0.548642
vt 0.401822 0.555590
vt 0.395074 0.553396
vt 0.393819 0.563168
vt 0.423271 0.512357
vt 0.417181 0.513858
vt 0.416082 0.506164
vt 0.423738 0.507223
vt 0.350420 0.339960
vt 0.346724 0.337908
vt 0.346470 0.332087
vt 0.351495 0.335504
vt 0.352814 0.326092
vt 0.347326 0.322961
vt 0.402777 0.502834
vt 0.410827 0.497048
vt 0.407712 0.512492
vt 0.409996 0.518286
vt 0.401970 0.542609
vt 0.385235 0.562785
vt 0.385821 0.553419
vt 0.398627 0.536171
vt 0.391860 0.542510
vt 0.385859 0.544707
vt 0.434363 0.524134
vt 0.433377 0.528848
vt 0.427589 0.527526
vt 0.430315 0.521824
vt 0.431914 0.535889
vt 0.425559 0.535296
vt 0.419442 0.534045
vt 0.422149 0.528811
vt 0.427829 0.519837
vt 0.424878 0.522339
vt 0.420387 0.525831
vt 0.416043 0.531344
vt 0.365646 0.555799
vt 0.371588 0.546918
vt 0.375819 0.551660
vt 0.371974 0.559842
vt 0.378057 0.561978
vt 0.379670 0.551444
vt 0.377737 0.544446
vt 0.363684 0.535421
vt 0.369380 0.529502
vt 0.374539 0.525119
vt 0.382048 0.535111
vt 0.416809 0.543070
vt 0.411629 0.538685
vt 0.408045 0.533928
vt 0.413724 0.526858
vt 0.405166 0.528683
vt 0.411722 0.522925
vt 0.417613 0.518885
vt 0.418930 0.522333
vt 0.422236 0.516120
vt 0.423250 0.519518
vt 0.425986 0.516291
vt 0.425800 0.518761
vt 0.428738 0.513994
vt 0.428633 0.517056
vt 0.430616 0.517275
vt 0.346314 0.342268
vt 0.343458 0.342348
vt 0.341847 0.340312
vt 0.346019 0.345062
vt 0.343361 0.344548
vt 0.433807 0.519970
vt 0.349505 0.343446
vt 0.349220 0.346971
vt 0.348514 0.351956
vt 0.345382 0.347763
vt 0.440439 0.528336
vt 0.440294 0.532727
vt 0.351856 0.349958
vt 0.353258 0.354251
vt 0.348177 0.354049
vt 0.354328 0.351496
vt 0.357629 0.354918
vt 0.352767 0.345638
vt 0.355094 0.347872
vt 0.446142 0.535607
vt 0.402578 0.524327
vt 0.392521 0.524969
vt 0.399729 0.518398
vt 0.395722 0.530720
vt 0.386562 0.515219
vt 0.394256 0.508825
vt 0.376576 0.500263
vt 0.359028 0.493276
vt 0.365430 0.486374
vt 0.369992 0.506021
vt 0.380299 0.519933
vt 0.364109 0.511224
vt 0.386716 0.530361
vt 0.389856 0.536220
vt 0.385484 0.538673
vt 0.348545 0.504562
vt 0.353546 0.499384
vt 0.358148 0.516522
vt 0.352354 0.485873
vt 0.369263 0.254583
vt 0.361862 0.253891
vt 0.377352 0.251224
vt 0.356342 0.257144
vt 0.355195 0.256830
vt 0.358714 0.480198
vt 0.346675 0.265106
vt 0.374152 0.255355
vt 0.359799 0.257786
vt 0.355614 0.263381
vt 0.364206 0.258344
vt 0.361844 0.261955
vt 0.356247 0.268266
vt 0.353938 0.274726
vt 0.363935 0.263132
vt 0.358927 0.268626
vt 0.367254 0.265970
vt 0.361873 0.270928
vt 0.371509 0.269634
vt 0.364757 0.274330
vt 0.375470 0.274197
vt 0.368417 0.277586
vt 0.376796 0.280653
vt 0.369966 0.281922
vt 0.384669 0.274544
vt 0.385395 0.281293
vt 0.385578 0.286123
vt 0.376559 0.285763
vt 0.371556 0.285197
vt 0.385251 0.290494
vt 0.394775 0.286132
vt 0.394706 0.290337
vt 0.394777 0.294664
vt 0.385027 0.294613
vt 0.394046 0.304284
vt 0.383683 0.303908
vt 0.393448 0.319048
vt 0.383414 0.318958
vt 0.370629 0.317661
vt 0.361791 0.313728
vt 0.354429 0.310350
vt 0.391791 0.333339
vt 0.401664 0.318801
vt 0.390484 0.341637
vt 0.389943 0.345931
vt 0.377998 0.345925
vt 0.389789 0.349698
vt 0.377857 0.349296
vt 0.367842 0.350108
vt 0.376720 0.352608
vt 0.367666 0.352835
vt 0.388972 0.353053
vt 0.401564 0.304098
vt 0.407422 0.303954
vt 0.407913 0.317979
vt 0.412432 0.303400
vt 0.413534 0.317002
vt 0.417148 0.300823
vt 0.418828 0.314529
vt 0.419721 0.330672
vt 0.345356 0.530003
vt 0.357382 0.543754
vt 0.352162 0.551824
vt 0.340850 0.537434
vt 0.360244 0.563422
vt 0.420919 0.340951
vt 0.368370 0.567577
vt 0.351312 0.522436
vt 0.335521 0.516760
vt 0.342612 0.510355
vt 0.328289 0.508321
vt 0.414700 0.282314
vt 0.417684 0.278801
vt 0.420295 0.284420
vt 0.416425 0.288272
vt 0.323391 0.504122
vt 0.421042 0.296367
vt 0.412569 0.277201
vt 0.415394 0.270880
vt 0.319937 0.500592
vt 0.403929 0.263980
vt 0.409316 0.261317
vt 0.408758 0.269444
vt 0.409327 0.273957
vt 0.400326 0.265635
vt 0.400304 0.269350
vt 0.384442 0.258860
vt 0.392950 0.260619
vt 0.389541 0.263314
vt 0.391745 0.266996
vt 0.378319 0.262873
vt 0.383204 0.267790
vt 0.393541 0.274040
vt 0.394872 0.280646
vt 0.371537 0.259528
vt 0.379924 0.255803
vt 0.390644 0.257959
vt 0.398065 0.258289
vt 0.402442 0.257779
vt 0.412126 0.286249
vt 0.407561 0.289088
vt 0.412327 0.292199
vt 0.408432 0.294514
vt 0.402387 0.290180
vt 0.402256 0.294519
vt 0.422198 0.310599
vt 0.401521 0.481272
vt 0.427246 0.569783
vt 0.974668 0.762138
vt 0.992455 0.761894
vt 0.981805 0.773108
vt 0.984806 0.773042
vn 0.8925 0.2945 0.3416
vn 0.7957 0.4793 0.3704
vn 0.4031 0.3648 0.8393
vn 0.6757 0.3085 0.6696
vn 0.8771 0.1447 0.4579
vn 0.4832 0.1507 0.8625
vn 0.0744 0.1315 0.9885
vn 0.0641 0.2484 0.9665
vn 0.4123 -0.2698 0.8702
vn 0.1673 -0.3235 0.9313
vn 0.0542 -0.4295 0.9014
vn 0.0598 -0.9972 -0.0458
vn 0.1183 -0.8937 -0.4328
vn 0.3623 -0.8295 -0.4250
vn 0.3773 -0.9165 -0.1326
vn 0.1589 -0.2806 -0.9466
vn 0.6067 -0.2791 -0.7443
vn 0.8717 -0.4223 -0.2485
vn -0.0170 -0.5120 0.8588
vn 0.0062 0.2145 0.9767
vn -0.1937 0.2026 0.9599
vn -0.1904 -0.5541 0.8104
vn -0.1261 0.2045 0.9707
vn -0.6537 0.2812 0.7026
vn -0.6488 0.4316 0.6267
vn -0.6184 0.1573 0.7700
vn -0.8670 0.3473 0.3574
vn -0.9057 -0.0145 0.4236
vn -0.9302 0.2793 0.2381
vn -0.9373 0.2876 0.1969
vn -0.9482 -0.2754 -0.1581
vn -0.9640 0.2220 -0.1464
vn -0.6469 0.2057 -0.7343
vn -0.8671 -0.2636 -0.4226
vn -0.2000 -0.3059 -0.9308
vn -0.3902 -0.2666 -0.8813
vn -0.0913 0.2865 -0.9537
vn -0.0683 0.2818 -0.9570
vn -0.5855 0.3120 -0.7482
vn -0.9469 0.2553 -0.1955
vn -0.3007 0.0182 0.9535
vn -0.7931 0.0146 0.6089
vn -0.9784 0.0015 0.2069
vn -0.9565 0.1800 0.2297
vn 0.7494 0.5810 0.3175
vn 0.5737 0.4836 0.6611
vn 0.6146 -0.4300 0.6613
vn 0.8385 -0.3888 0.3817
vn 0.4526 -0.7847 0.4236
vn 0.1846 -0.5249 0.8309
vn 0.1351 0.5285 0.8381
vn 0.3073 0.9139 0.2652
vn 0.2463 -0.7483 0.6160
vn 0.6691 -0.4138 0.6173
vn 0.6739 -0.6609 0.3302
vn 0.9752 -0.0444 0.2166
vn 0.9276 -0.2964 0.2272
vn 0.8055 -0.0454 0.5909
vn 0.0733 -0.6529 0.7539
vn 0.2295 -0.3663 0.9018
vn 0.3617 -0.0451 0.9312
vn 0.9949 -0.0541 -0.0850
vn 0.7199 -0.0713 -0.6904
vn 0.6864 -0.4806 -0.5458
vn 0.9538 -0.2849 -0.0958
vn 0.7744 0.4859 -0.4053
vn 0.9762 -0.1518 -0.1549
vn 0.5516 -0.1383 -0.8225
vn 0.9580 -0.2777 -0.0710
vn 0.1640 -0.0490 -0.9852
vn 0.1546 -0.4806 -0.8632
vn 0.1345 -0.0846 -0.9873
vn 0.5051 0.8373 0.2090
vn 0.6092 0.7814 0.1353
vn 0.6858 0.6783 0.2638
vn 0.4896 0.8046 0.3361
vn 0.6792 0.7315 0.0596
vn 0.7849 0.6115 0.1000
vn 0.8102 0.5526 0.1955
vn 0.6157 0.6307 0.4725
vn 0.4192 0.6984 0.5801
vn 0.4096 0.7548 0.5123
vn 0.2842 0.7807 0.5565
vn 0.8920 0.1422 -0.4291
vn 0.6989 0.5713 -0.4303
vn 0.0984 0.6144 0.7828
vn 0.5131 0.1252 0.8491
vn -0.5831 0.1679 -0.7948
vn -0.8343 0.1233 0.5373
vn -0.4942 0.6614 -0.5642
vn 0.4098 0.6125 0.6760
vn 0.7218 0.6083 -0.3301
vn 0.5773 0.6613 0.4789
vn 0.8305 0.5558 0.0370
vn 0.8382 0.5098 -0.1937
vn 0.5420 0.5696 -0.6179
vn -0.4563 0.4948 -0.7396
vn -0.3571 0.8222 -0.4433
vn -0.8506 0.3317 0.4080
vn -0.3086 0.7716 0.5562
vn -0.8240 0.5426 0.1633
vn -0.5382 0.6118 0.5797
vn -0.8508 0.4955 -0.1753
vn -0.4852 0.4982 -0.7186
vn 0.5435 0.6543 -0.5257
vn 0.7576 0.6445 -0.1033
vn 0.1059 0.4497 -0.8869
vn 0.8162 0.5756 -0.0495
vn 0.5509 0.6248 -0.5533
vn 0.5684 0.6334 -0.5252
vn 0.0622 0.6000 -0.7976
vn 0.1105 0.6395 -0.7608
vn 0.8591 0.5118 -0.0079
vn 0.0675 0.7693 0.6352
vn 0.0640 0.7288 0.6818
vn -0.3537 0.7186 0.5988
vn -0.6673 0.6575 0.3499
vn 0.2979 0.8096 -0.5058
vn -0.4922 0.5116 -0.7043
vn 0.5986 0.7989 -0.0578
vn 0.6938 0.7130 -0.1012
vn 0.4320 0.7720 -0.4663
vn 0.0759 0.7229 -0.6868
vn 0.0523 0.6938 -0.7182
vn 0.0428 -0.0261 -0.9987
vn -0.8125 0.5829 -0.0122
vn -0.7667 0.6414 -0.0284
vn -0.5431 0.6896 -0.4791
vn -0.5122 0.7261 -0.4587
vn -0.0875 0.6324 -0.7697
vn -0.2855 -0.7647 0.5778
vn -0.5883 -0.6464 0.4858
vn -0.4447 -0.3214 0.8360
vn -0.1363 -0.6316 0.7632
vn -0.0148 -0.5940 0.8043
vn -0.0186 -0.2851 0.9583
vn 0.0030 -0.0303 0.9995
vn -0.4074 -0.0239 0.9130
vn -0.8509 -0.0325 0.5243
vn -0.8578 -0.2881 0.4256
vn -0.7840 -0.5579 0.2721
vn -0.7154 0.6973 -0.0455
vn -0.0564 0.7326 -0.6783
vn -0.3222 0.7561 -0.5697
vn -0.8805 0.4721 -0.0426
vn -0.7662 0.6299 -0.1273
vn -0.7677 0.4845 -0.4193
vn -0.0389 0.7113 0.7019
vn -0.1281 0.7550 0.6430
vn -0.3688 0.8095 0.4569
vn -0.1219 0.7867 0.6052
vn -0.2127 0.7905 0.5743
vn -0.4941 0.7854 0.3728
vn -0.6290 0.7499 0.2048
vn -0.5591 0.7891 0.2545
vn -0.3856 0.6534 0.6514
vn -0.4630 0.8024 0.3765
vn -0.5764 0.7814 0.2391
vn -0.6329 0.7604 0.1458
vn 0.0123 -0.4557 -0.8900
vn -0.0774 -0.3921 -0.9167
vn -0.1373 -0.0987 -0.9856
vn 0.0043 -0.0469 -0.9989
vn -0.0111 0.6715 -0.7410
vn -0.2993 0.4561 -0.8381
vn -0.6068 -0.0562 -0.7929
vn -0.0379 -0.1411 -0.9893
vn -0.5145 -0.1749 -0.8395
vn -0.9502 -0.1126 -0.2906
vn -0.9239 -0.2619 -0.2791
vn -0.7409 0.6531 0.1565
vn -0.7041 0.7052 0.0832
vn -0.7062 0.7048 0.0680
vn -0.7799 0.5993 0.1805
vn -0.9897 0.1408 0.0271
vn -0.9546 -0.1822 0.2356
vn -0.8121 -0.4636 0.3544
vn -0.8601 0.3958 0.3219
vn -0.6241 -0.6494 0.4345
vn -0.8623 0.2126 0.4597
vn -0.3963 -0.5789 0.7126
vn -0.7277 0.2281 0.6469
vn -0.0014 -0.7770 0.6295
vn -0.0930 0.0302 0.9952
vn 0.0615 0.0546 0.9966
vn -0.0009 -0.6373 0.7707
vn 0.0279 0.1142 0.9931
vn 0.0009 -0.5644 0.8255
vn 0.0047 0.1685 0.9857
vn 0.0108 0.7088 0.7053
vn 0.0443 0.7290 0.6831
vn -0.0033 0.3137 0.9495
vn 0.1092 0.7822 0.6133
vn 0.0173 0.4375 0.8991
vn 0.2269 0.8714 0.4350
vn -0.0103 -0.5305 0.8476
vn 0.0159 -0.5215 0.8531
vn -0.9019 -0.4286 0.0529
vn -0.9635 -0.2660 0.0310
vn -0.9534 -0.2623 0.1490
vn -0.9771 -0.2100 -0.0355
vn -0.9967 -0.0662 0.0478
vn -0.9818 -0.0514 0.1827
vn -0.9985 -0.0004 0.0542
vn -0.9950 0.1001 0.0003
vn -0.9903 0.1245 0.0616
vn -1.0000 -0.0014 -0.0035
vn -0.9973 -0.0723 -0.0086
vn -0.9505 -0.0077 -0.3107
vn -0.9587 -0.2835 -0.0246
vn -0.9984 -0.0264 -0.0500
vn -0.9709 -0.0347 -0.2369
vn -0.5499 0.1005 -0.8292
vn -0.9593 0.1048 -0.2624
vn -0.5153 -0.0125 -0.8569
vn -0.9702 0.2424 -0.0037
vn -0.9836 0.1791 -0.0194
vn -0.9785 0.1999 0.0507
vn -0.9667 0.2484 0.0621
vn -0.9491 -0.3108 -0.0504
vn -0.9653 -0.2581 0.0410
vn -0.9688 -0.1508 0.1966
vn -0.5153 -0.8563 0.0351
vn -0.5553 -0.8170 0.1555
vn -0.5948 -0.7199 0.3577
vn -0.5334 -0.4702 0.7031
vn -0.1573 -0.9854 0.0649
vn -0.2112 -0.9457 0.2472
vn -0.0243 -0.9996 0.0160
vn -0.0461 -0.9748 0.2181
vn 0.0134 -0.9998 0.0135
vn 0.0294 -0.9689 0.2458
vn 0.0647 -0.9970 0.0428
vn 0.1025 -0.9515 0.2902
vn 0.4188 -0.8936 0.1613
vn 0.4627 -0.7538 0.4666
vn 0.0379 -0.9991 0.0178
vn 0.3779 -0.9229 0.0744
vn 0.8656 -0.4828 0.1328
vn 0.8609 -0.4056 0.3071
vn 0.8133 -0.3108 0.4919
vn 0.9711 0.1967 0.1351
vn 0.8671 -0.4978 -0.0197
vn 0.9878 0.1544 -0.0198
vn 0.9503 0.3112 0.0081
vn 0.9116 0.3868 0.1393
vn 0.9946 0.0955 0.0397
vn 0.9785 0.1181 0.1691
vn 0.9988 -0.0022 0.0492
vn 0.9833 0.0003 0.1818
vn 0.8594 0.0048 0.5113
vn 0.4428 0.0023 0.8966
vn 0.0437 0.0032 0.9990
vn 0.9968 -0.0532 0.0601
vn 0.9953 -0.0024 -0.0968
vn 0.9658 -0.2522 0.0600
vn 0.9139 -0.4054 0.0198
vn 0.8186 -0.5552 0.1472
vn 0.9820 0.1881 0.0187
vn 0.9880 -0.0661 0.1392
vn 0.9262 -0.2213 0.3053
vn 0.7104 0.6936 0.1197
vn 0.7516 0.6155 0.2374
vn 0.6699 0.7413 0.0420
vn 0.9886 0.0762 -0.1295
vn 0.6488 0.0904 -0.7556
vn 0.6754 0.0059 -0.7374
vn 0.0603 0.0874 -0.9943
vn 0.0739 0.0074 -0.9972
vn -0.0104 0.0781 -0.9969
vn 0.0064 0.0009 -1.0000
vn 0.0245 -0.1062 -0.9940
vn -0.0127 -0.0011 -0.9999
vn 0.0035 -0.1210 -0.9926
vn 0.0293 -0.4587 -0.8881
vn -0.0758 -0.0048 -0.9971
vn -0.0202 0.0656 -0.9976
vn -0.0835 0.0665 -0.9943
vn -0.0213 0.2769 -0.9607
vn 0.0035 0.2495 -0.9684
vn -0.0207 0.2807 -0.9596
vn -0.0172 0.2701 -0.9627
vn 0.0215 -0.3325 -0.9429
vn -0.0523 -0.3381 -0.9397
vn -0.2145 -0.8698 -0.4443
vn -0.0561 -0.9132 -0.4037
vn 0.0135 -0.9147 -0.4040
vn -0.0230 -0.9990 -0.0374
vn 0.0035 -0.9998 -0.0215
vn -0.0923 -0.9955 -0.0193
vn -0.1418 -0.9845 -0.1036
vn -0.0081 -1.0000 -0.0023
vn 0.0034 -1.0000 -0.0002
vn -0.0108 -0.9999 0.0034
vn 0.0062 -1.0000 0.0033
vn 0.0314 -0.9995 -0.0039
vn 0.3460 -0.9381 -0.0126
vn -0.0979 -0.9950 0.0184
vn -0.4991 -0.8650 -0.0523
vn -0.5131 -0.8422 -0.1657
vn -0.5302 -0.6730 -0.5157
vn 0.1422 0.2202 -0.9650
vn 0.6429 0.1833 -0.7437
vn 0.1019 0.2317 -0.9674
vn 0.6578 0.2048 -0.7249
vn 0.9589 0.1408 -0.2464
vn 0.9556 0.2261 -0.1889
f 1/1/1 2/2/2 3/3/3 4/4/4
f 5/5/5 6/6/6 3/3/3 2/2/2
f 7/7/7 8/8/8 3/3/3 6/6/6
f 9/9/9 4/4/4 3/3/3 10/10/10
f 11/11/11 10/10/10 3/3/3 8/8/8
f 12/12/12 13/13/13 14/14/14 15/15/15
f 16/16/16 17/17/17 14/14/14 13/13/13
f 18/18/18 15/15/15 14/14/14 17/17/17
f 19/19/19 20/20/20 21/21/21 22/22/22
f 23/23/23 24/24/24 21/21/21 20/20/20
f 25/25/25 26/26/26 21/21/21 24/24/24
f 26/26/26 25/25/25 27/27/27 28/28/28
f 29/29/29 30/30/30 27/27/27 25/25/25
f 31/31/31 32/32/32 33/33/33 34/34/34
f 35/35/35 36/36/36 33/37/33 37/38/37
f 38/39/38 37/38/37 33/37/33 39/40/39
f 40/41/40 39/40/39 33/37/33 32/42/32
f 41/43/41 42/44/42 24/24/24 23/23/23
f 43/45/43 44/46/44 24/47/24 42/48/42
f 29/29/29 25/25/25 24/24/24 44/49/44
f 45/50/45 46/51/46 47/52/47 48/53/48
f 49/54/49 48/53/48 47/52/47 50/55/50
f 51/56/51 50/55/50 47/52/47 46/51/46
f 52/57/52 51/56/51 46/51/46 45/50/45
f 49/54/49 53/58/53 54/59/54 55/60/55
f 56/61/56 57/62/57 54/59/54 58/63/58
f 59/64/59 60/65/60 54/59/54 53/58/53
f 61/66/61 58/63/58 54/59/54 60/65/60
f 62/67/62 63/68/63 64/69/64 65/70/65
f 66/71/66 67/72/67 64/69/64 68/73/68
f 69/74/69 65/70/65 64/69/64 67/72/67
f 70/75/70 68/73/68 64/69/64 71/76/71
f 72/77/72 71/76/71 64/69/64 63/68/63
f 73/78/73 74/79/74 75/80/75 76/81/76
f 77/82/77 78/83/78 75/80/75 74/79/74
f 79/84/79 80/85/80 75/80/75 78/83/78
f 81/86/81 82/87/82 75/80/75 80/85/80
f 83/88/83 76/81/76 75/80/75 82/87/82
f 84/89/84 85/90/85 86/91/86 87/92/87
f 88/93/88 89/94/89 86/95/86 90/96/90
f 87/92/87 91/97/91 92/98/92 84/89/84
f 93/99/93 94/100/94 92/98/92 91/97/91
f 95/101/95 96/102/96 92/98/92 94/100/94
f 88/103/88 84/89/84 92/98/92 97/104/97
f 98/105/98 97/104/97 92/98/92 96/102/96
f 91/106/91 99/107/99 100/108/100 93/109/93
f 79/110/79 93/109/93 100/108/100 80/111/80
f 101/112/101 102/113/102 100/108/100 103/114/103
f 97/115/97 98/116/98 100/108/100 99/107/99
f 104/117/104 103/114/103 100/108/100 98/116/98
f 105/118/105 95/119/95 79/84/79 106/120/106
f 105/121/105 107/122/107 96/123/96 95/124/95
f 108/125/108 109/126/109 110/127/110 106/120/106
f 111/128/111 112/129/112 110/130/110 109/131/109
f 105/121/105 106/132/106 110/130/110 112/129/112
f 113/133/113 69/74/69 67/72/67 66/71/66
f 114/134/114 82/135/82 81/136/81 115/137/115
f 100/138/100 115/139/115 81/86/81 80/85/80
f 115/137/115 100/108/100 102/113/102 116/140/116
f 117/141/117 116/140/116 102/113/102 101/112/101
f 118/142/118 66/71/66 68/73/68 70/75/70
f 119/143/119 103/114/103 104/117/104 107/122/107
f 113/133/113 66/71/66 118/142/118 120/144/120
f 121/145/121 120/144/120 118/142/118 122/146/122
f 123/147/123 122/148/122 118/149/118 124/150/124
f 125/151/125 124/152/124 118/142/118 70/75/70
f 105/121/105 112/129/112 119/143/119 107/122/107
f 101/112/101 103/114/103 119/143/119 126/153/126
f 127/154/127 126/153/126 119/143/119 128/155/128
f 129/156/129 128/155/128 119/143/119 130/157/130
f 111/128/111 130/157/130 119/143/119 112/129/112
f 131/158/131 132/159/132 133/160/133 134/161/134
f 135/162/135 134/163/134 133/164/133 136/165/136
f 137/166/137 136/165/136 133/164/133 138/167/138
f 139/168/139 138/169/138 133/160/133 140/170/140
f 141/171/141 140/170/140 133/160/133 132/159/132
f 142/172/142 127/154/127 128/155/128 129/156/129
f 143/173/143 144/174/144 129/156/129 130/157/130
f 145/175/145 142/172/142 129/156/129 146/176/146
f 147/177/147 146/176/146 129/156/129 144/174/144
f 148/178/148 149/179/149 150/180/150 151/181/151
f 152/182/152 153/183/153 150/180/150 149/179/149
f 154/184/154 155/185/155 150/180/150 153/183/153
f 156/186/156 151/181/151 150/180/150 157/187/157
f 158/188/158 157/187/157 150/180/150 155/185/155
f 159/189/159 158/188/158 155/185/155 154/184/154
f 160/190/160 161/191/161 162/192/162 163/193/163
f 164/194/164 163/193/163 162/192/162 165/195/165
f 166/196/166 165/195/165 162/192/162 161/191/161
f 144/174/144 165/195/165 166/196/166 147/177/147
f 167/197/167 168/198/168 166/196/166 161/191/161
f 169/199/169 170/200/170 166/196/166 168/198/168
f 171/201/171 117/141/117 101/112/101 126/153/126
f 127/154/127 172/202/172 171/201/171 126/153/126
f 159/189/159 154/184/154 171/201/171 172/202/172
f 153/183/153 117/141/117 171/201/171 154/184/154
f 142/172/142 173/203/173 172/202/172 127/154/127
f 174/204/174 159/189/159 172/202/172 173/203/173
f 175/205/175 176/206/176 174/204/174 173/203/173
f 177/207/177 178/208/178 174/204/174 176/206/176
f 158/188/158 159/189/159 174/204/174 178/208/178
f 179/209/179 180/210/180 178/208/178 177/207/177
f 157/187/157 158/188/158 178/208/178 180/210/180
f 181/211/181 182/212/182 180/210/180 179/209/179
f 156/186/156 157/187/157 180/210/180 182/212/182
f 132/159/132 131/158/131 179/209/179 177/207/177
f 183/213/183 181/211/181 179/209/179 131/158/131
f 184/214/184 181/211/181 183/213/183 185/215/185
f 134/163/134 186/216/186 183/217/183 131/218/131
f 187/219/187 185/220/185 183/217/183 186/216/186
f 151/181/151 185/215/185 187/221/187 148/178/148
f 188/222/188 189/223/189 187/219/187 186/216/186
f 190/224/190 148/225/148 187/219/187 189/223/189
f 149/179/149 148/178/148 190/226/190 191/227/191
f 192/228/192 193/229/193 190/224/190 189/223/189
f 83/88/83 191/230/191 190/224/190 193/229/193
f 194/231/194 195/232/195 193/229/193 192/228/192
f 76/81/76 83/88/83 193/229/193 195/232/195
f 51/56/51 52/57/52 195/232/195 194/231/194
f 73/78/73 76/81/76 195/232/195 52/57/52
f 196/233/196 197/234/197 194/231/194 192/228/192
f 50/55/50 51/56/51 194/231/194 197/234/197
f 59/64/59 53/58/53 197/234/197 196/233/196
f 49/54/49 50/55/50 197/234/197 53/58/53
f 189/223/189 188/222/188 196/233/196 192/228/192
f 135/162/135 59/64/59 196/233/196 188/222/188
f 152/182/152 149/179/149 191/227/191 114/134/114
f 82/135/82 114/134/114 191/227/191 83/235/83
f 134/163/134 135/162/135 188/222/188 186/216/186
f 156/186/156 184/214/184 185/215/185 151/181/151
f 141/171/141 132/159/132 177/207/177 176/206/176
f 198/236/198 141/171/141 176/206/176 175/205/175
f 199/237/199 200/238/200 198/236/198 201/239/201
f 140/170/140 141/171/141 198/236/198 200/238/200
f 145/175/145 201/239/201 198/236/198 175/205/175
f 202/240/202 203/241/203 200/238/200 199/237/199
f 139/168/139 140/170/140 200/238/200 203/241/203
f 204/242/204 43/45/43 203/241/203 202/240/202
f 42/48/42 139/168/139 203/241/203 43/45/43
f 205/243/205 206/244/206 204/242/204 207/245/207
f 44/46/44 43/45/43 204/242/204 206/244/206
f 208/246/208 207/245/207 204/242/204 202/240/202
f 209/247/209 207/245/207 208/246/208 169/199/169
f 199/237/199 210/248/210 208/246/208 202/240/202
f 170/200/170 169/199/169 208/246/208 210/248/210
f 201/239/201 211/249/211 210/248/210 199/237/199
f 212/250/212 170/200/170 210/248/210 211/249/211
f 145/175/145 146/176/146 211/249/211 201/239/201
f 147/177/147 212/250/212 211/249/211 146/176/146
f 213/251/213 214/252/214 209/247/209 215/253/215
f 205/243/205 207/245/207 209/247/209 214/252/214
f 168/198/168 215/253/215 209/247/209 169/199/169
f 39/40/39 40/41/40 214/252/214 213/251/213
f 216/254/216 205/243/205 214/252/214 40/41/40
f 32/32/32 217/255/217 216/256/216 40/257/40
f 218/258/218 219/259/219 216/256/216 217/255/217
f 206/244/206 205/243/205 216/254/216 219/260/219
f 44/49/44 206/261/206 219/259/219 29/29/29
f 30/30/30 29/29/29 219/259/219 218/258/218
f 220/262/220 221/263/221 218/258/218 217/255/217
f 222/264/222 30/30/30 218/258/218 221/263/221
f 27/27/27 30/30/30 222/264/222 28/28/28
f 223/265/223 224/266/224 222/264/222 221/263/221
f 225/267/225 28/28/28 222/264/222 224/266/224
f 26/26/26 28/28/28 225/267/225 226/268/226
f 227/269/227 228/270/228 225/267/225 224/266/224
f 22/22/22 226/268/226 225/267/225 228/270/228
f 229/271/229 230/272/230 228/270/228 227/269/227
f 19/19/19 22/22/22 228/270/228 230/272/230
f 231/273/231 232/274/232 230/272/230 229/271/229
f 11/11/11 19/19/19 230/272/230 232/274/232
f 233/275/233 234/276/234 232/274/232 231/273/231
f 10/10/10 11/11/11 232/274/232 234/276/234
f 235/277/235 236/278/236 234/276/234 233/275/233
f 9/9/9 10/10/10 234/276/234 236/278/236
f 237/279/237 238/280/238 235/277/235 233/275/233
f 239/281/239 240/282/240 235/277/235 238/280/238
f 241/283/241 236/278/236 235/277/235 240/282/240
f 242/284/242 1/1/1 240/282/240 239/281/239
f 4/4/4 241/283/241 240/282/240 1/1/1
f 243/285/243 244/286/244 242/284/242 239/281/239
f 245/287/245 246/288/246 242/284/242 244/286/244
f 2/2/2 1/1/1 242/284/242 246/288/246
f 247/289/247 248/290/248 246/288/246 245/287/245
f 5/5/5 2/2/2 246/288/246 248/290/248
f 249/291/249 250/292/250 248/290/248 247/289/247
f 251/293/251 5/5/5 248/290/248 250/292/250
f 6/6/6 5/5/5 251/293/251 252/294/252
f 56/61/56 58/63/58 251/293/251 250/292/250
f 61/66/61 252/294/252 251/293/251 58/63/58
f 7/7/7 6/6/6 252/294/252 253/295/253
f 137/166/137 253/295/253 252/294/252 61/66/61
f 23/23/23 7/7/7 253/295/253 41/43/41
f 138/167/138 41/43/41 253/295/253 137/166/137
f 254/296/254 56/61/56 250/292/250 249/291/249
f 255/297/255 62/67/62 254/296/254 249/291/249
f 65/70/65 256/298/256 254/296/254 62/67/62
f 57/62/57 56/61/56 254/296/254 256/298/256
f 69/74/69 257/299/257 256/298/256 65/70/65
f 258/300/258 57/62/57 256/298/256 257/299/257
f 54/59/54 57/62/57 258/300/258 55/60/55
f 259/301/259 260/302/260 258/300/258 257/299/257
f 261/303/261 55/60/55 258/300/258 260/302/260
f 49/54/49 55/60/55 261/303/261 48/53/48
f 262/304/262 263/305/263 261/303/261 260/302/260
f 45/50/45 48/53/48 261/303/261 263/305/263
f 74/79/74 73/78/73 263/305/263 262/304/262
f 52/57/52 45/50/45 263/305/263 73/78/73
f 259/301/259 264/306/264 262/304/262 260/302/260
f 77/82/77 74/79/74 262/304/262 264/306/264
f 113/133/113 120/144/120 264/306/264 259/301/259
f 121/145/121 77/82/77 264/306/264 120/144/120
f 69/74/69 113/133/113 259/301/259 257/299/257
f 247/289/247 265/307/265 255/297/255 249/291/249
f 266/308/266 267/309/267 255/297/255 265/307/265
f 63/68/63 62/67/62 255/297/255 267/309/267
f 268/310/268 269/311/269 267/309/267 266/308/266
f 72/77/72 63/68/63 267/309/267 269/311/269
f 270/312/270 271/313/271 269/311/269 268/310/268
f 272/314/272 72/77/72 269/311/269 271/313/271
f 273/315/273 274/316/274 272/317/272 271/318/271
f 160/190/160 275/319/275 272/317/272 274/316/274
f 71/76/71 72/77/72 272/314/272 275/320/275
f 163/193/163 125/321/125 275/319/275 160/190/160
f 70/75/70 71/76/71 275/320/275 125/151/125
f 276/322/276 167/197/167 274/316/274 273/315/273
f 161/191/161 160/190/160 274/316/274 167/197/167
f 277/323/277 278/324/278 276/322/276 273/315/273
f 213/251/213 215/253/215 276/322/276 278/324/278
f 168/198/168 167/197/167 276/322/276 215/253/215
f 279/325/279 38/39/38 278/324/278 277/323/277
f 39/40/39 213/251/213 278/324/278 38/39/38
f 280/326/280 281/327/281 279/328/279 282/329/282
f 37/38/37 38/39/38 279/325/279 281/330/281
f 270/312/270 282/329/282 279/328/279 277/331/277
f 283/332/283 284/333/284 281/327/281 280/326/280
f 35/35/35 37/38/37 281/330/281 284/334/284
f 285/335/285 35/336/35 284/333/284 286/337/286
f 287/338/287 286/337/286 284/333/284 283/332/283
f 288/339/288 286/337/286 287/338/287 289/340/289
f 16/16/16 13/13/13 287/338/287 283/332/283
f 12/12/12 289/340/289 287/338/287 13/13/13
f 290/341/290 291/342/291 288/339/288 292/343/292
f 285/335/285 286/337/286 288/339/288 291/342/291
f 293/344/293 292/343/292 288/339/288 289/340/289
f 294/345/294 292/343/292 293/344/293 295/346/295
f 12/12/12 296/347/296 293/344/293 289/340/289
f 237/279/237 295/346/295 293/344/293 296/347/296
f 15/15/15 297/348/297 296/347/296 12/12/12
f 238/280/238 237/279/237 296/347/296 297/348/297
f 18/18/18 243/285/243 297/348/297 15/15/15
f 239/281/239 238/280/238 297/348/297 243/285/243
f 227/269/227 298/349/298 294/345/294 229/271/229
f 290/341/290 292/343/292 294/345/294 298/349/298
f 231/273/231 229/271/229 294/345/294 295/346/295
f 224/266/224 223/265/223 298/349/298 227/269/227
f 299/350/299 290/341/290 298/349/298 223/265/223
f 221/263/221 220/262/220 299/350/299 223/265/223
f 31/31/31 300/351/300 299/350/299 220/262/220
f 291/342/291 290/341/290 299/350/299 300/351/300
f 34/34/34 301/352/301 300/351/300 31/31/31
f 285/335/285 291/342/291 300/351/300 301/352/301
f 233/275/233 231/273/231 295/346/295 237/279/237
f 36/353/36 35/336/35 285/335/285 301/352/301
f 302/354/302 16/16/16 283/332/283 280/326/280
f 17/17/17 16/16/16 302/354/302 303/355/303
f 282/329/282 304/356/304 302/354/302 280/326/280
f 305/357/305 303/355/303 302/354/302 304/356/304
f 306/358/306 303/355/303 305/357/305 307/359/307
f 268/310/268 266/308/266 305/357/305 304/356/304
f 265/307/265 307/359/307 305/357/305 266/308/266
f 243/285/243 18/18/18 306/358/306 244/286/244
f 17/17/17 303/355/303 306/358/306 18/18/18
f 245/287/245 244/286/244 306/358/306 307/359/307
f 247/289/247 245/287/245 307/359/307 265/307/265
f 270/312/270 268/310/268 304/356/304 282/329/282
f 271/313/271 270/312/270 277/331/277 273/360/273
f 32/32/32 31/31/31 220/262/220 217/255/217
f 142/172/142 145/175/145 175/205/175 173/203/173
f 144/174/144 143/173/143 164/194/164 165/195/165
f 123/147/123 124/150/124 164/194/164 143/173/143
f 125/321/125 163/193/163 164/194/164 124/150/124
f 116/140/116 117/141/117 153/183/153 152/182/152
f 115/137/115 116/140/116 152/182/152 114/134/114
f 111/128/111 123/147/123 143/173/143 130/157/130
f 41/361/41 138/169/138 139/168/139 42/48/42
f 60/65/60 136/165/136 137/166/137 61/66/61
f 60/65/60 59/64/59 135/162/135 136/165/136
f 109/131/109 122/148/122 123/147/123 111/128/111
f 109/126/109 108/125/108 121/145/121 122/146/122
f 78/83/78 77/82/77 121/145/121 108/125/108
f 79/84/79 78/83/78 108/125/108 106/120/106
f 87/362/87 89/94/89 99/107/99 91/106/91
f 88/93/88 97/115/97 99/107/99 89/94/89
f 85/90/85 84/89/84 88/103/88 90/363/90
f 8/8/8 7/7/7 23/23/23 20/20/20
f 11/11/11 8/8/8 20/20/20 19/19/19
f 9/9/9 236/278/236 241/283/241 4/4/4
f 226/268/226 22/22/22 21/21/21 26/26/26
f 301/352/301 34/34/34 33/33/33 36/353/36
f 94/100/94 93/99/93 79/364/79 95/101/95
f 104/365/104 98/105/98 96/102/96 107/366/107
f 182/212/182 181/211/181 184/214/184 156/186/156
f 212/250/212 147/177/147 166/196/166 170/200/170
f 86/95/86 89/94/89 87/362/87
f 85/90/85 90/363/90 86/91/86
