# split from a merged terrain OBJ by scripts/split-terrain-obj-parts.py
o part-019
v 0.164551 0.931472 0.027584
v 0.160374 0.930385 0.019360
v 0.175360 0.926954 0.016857
v 0.173143 0.931799 0.029801
v 0.178971 0.939406 0.032767
v 0.180791 0.938739 0.018413
v 0.167585 0.930933 0.007582
v 0.177557 0.932012 0.012281
v 0.182411 0.938819 0.012809
v 0.203910 0.936450 -0.013202
v 0.193537 0.937299 -0.022440
v 0.193289 0.947071 -0.017659
v 0.199486 0.948853 -0.009113
v 0.184241 0.936783 -0.034009
v 0.182047 0.945130 -0.025085
v 0.189187 0.953043 -0.007543
v 0.194919 0.947639 0.004055
v 0.202228 0.945360 -0.001419
v 0.204449 0.935912 -0.002843
v 0.196612 0.936584 0.007558
v 0.201137 0.927794 -0.004307
v 0.197824 0.925360 -0.012756
v 0.191709 0.926498 0.003889
v 0.185221 0.922625 -0.005392
v 0.176934 0.952495 -0.028442
v 0.179827 0.951981 -0.009336
v 0.186643 0.947116 0.006664
v 0.182287 0.946552 0.008736
v 0.175786 0.955225 -0.005903
v 0.152779 0.988871 0.043868
v 0.147835 0.994404 0.048787
v 0.155457 0.990500 0.057956
v 0.161403 0.986347 0.050758
v 0.144268 1.001573 0.051838
v 0.151240 1.001499 0.061772
v 0.164363 0.979625 0.054187
v 0.158054 0.980473 0.060815
v 0.158844 0.981458 0.067789
v 0.157113 0.990757 0.066746
v 0.154398 1.001448 0.065747
v 0.151961 1.001428 0.004358
v 0.148220 0.998495 0.007339
v 0.155651 0.999578 0.016584
v 0.162193 1.000825 0.017882
v 0.162326 0.990687 0.029495
v 0.153266 0.992232 0.022558
v 0.144292 0.993115 0.011066
v 0.173269 0.972333 0.041390
v 0.174512 0.963358 0.037902
v 0.177025 0.973264 0.022385
v 0.175908 0.978866 0.028704
v 0.176652 0.949349 0.033566
v 0.181561 0.952702 0.016164
v 0.171095 0.990113 0.012401
v 0.169858 0.983105 0.008838
v 0.145718 1.001503 0.069885
v 0.145002 0.997105 0.070528
v 0.145565 0.989857 0.070898
v 0.135118 0.997041 0.060901
v 0.137884 1.001521 0.057539
v 0.168730 0.960325 0.051337
v 0.161026 0.959752 0.058718
v 0.164198 0.948348 0.059903
v 0.172355 0.949623 0.048753
v 0.174158 0.939572 0.047427
v 0.167054 0.938748 0.060460
v 0.159070 0.937966 0.070011
v 0.158581 0.948103 0.068529
v 0.159744 0.959268 0.067845
v 0.169526 0.971101 0.004366
v 0.173139 0.962574 -0.000593
v 0.172691 0.958108 -0.026871
v 0.168984 0.968375 -0.021290
v 0.160731 0.970935 -0.038607
v 0.163920 0.962744 -0.043579
v 0.171762 0.955889 -0.043170
v 0.137861 0.950401 0.063142
v 0.134673 0.946342 0.065383
v 0.147546 0.946649 0.078105
v 0.148976 0.948788 0.073593
v 0.135623 0.936592 0.064359
v 0.145372 0.936417 0.074427
v 0.150137 0.937355 0.077140
v 0.147665 0.959594 0.072939
v 0.137442 0.960028 0.063893
v 0.152394 0.932232 0.065877
v 0.180657 0.929896 -0.035316
v 0.173133 0.924975 -0.035686
v 0.170240 0.926759 -0.047956
v 0.174549 0.931610 -0.050403
v 0.155317 0.933271 -0.047744
v 0.161372 0.934311 -0.053547
v 0.165195 0.938753 -0.055367
v 0.150001 0.931606 0.032118
v 0.158686 0.931678 0.038737
v 0.155772 0.931275 -0.004171
v 0.162725 0.929991 -0.021155
v 0.173997 0.928167 -0.001420
v 0.178787 0.928804 -0.018954
v 0.147316 0.934766 -0.048511
v 0.147181 0.931295 -0.033699
v 0.141483 0.931509 -0.017292
v 0.164588 0.953561 -0.047801
v 0.158772 0.956973 -0.047081
v 0.150111 0.960612 -0.051685
v 0.145742 0.963432 -0.052562
v 0.148621 0.969983 -0.048211
v 0.177724 0.950270 -0.045886
v 0.169307 0.950873 -0.050018
v 0.160436 0.950901 -0.050677
v 0.166956 0.946751 -0.053759
v 0.178796 0.940432 -0.050271
v 0.146610 0.931633 0.010709
v 0.137619 0.931639 0.022118
v 0.152704 0.945024 -0.053437
v 0.150480 0.945820 -0.057721
v 0.152303 0.941884 -0.059556
v 0.154142 0.940104 -0.056201
v 0.157388 0.938423 -0.059225
v 0.154628 0.942715 -0.062729
v 0.152652 0.947860 -0.062018
v 0.156324 0.953922 -0.048108
v 0.153647 0.951139 -0.049180
v 0.157153 0.947949 -0.048478
v 0.161813 0.948493 -0.058300
v 0.160326 0.954214 -0.055718
v 0.156677 0.959867 -0.052215
v 0.155300 0.955562 -0.050761
v 0.153875 0.949993 -0.051883
v 0.161005 0.942483 -0.060067
v 0.151912 0.945002 -0.049521
v 0.146093 0.944684 -0.052014
v 0.122886 0.993709 -0.059458
v 0.115214 0.993108 -0.065901
v 0.112601 1.001641 -0.066919
v 0.122261 1.000346 -0.059465
v 0.108277 0.992374 -0.064486
v 0.109344 0.999378 -0.062469
v 0.116745 1.001359 -0.056173
v 0.156362 0.954695 -0.060117
v 0.151484 0.960960 -0.055630
v 0.149520 0.949451 -0.055131
v 0.149058 0.950787 -0.052651
v 0.144105 0.955885 -0.052443
v 0.103757 1.000633 -0.058375
v 0.111128 1.001336 -0.052384
v 0.109006 0.995075 -0.050331
v 0.103073 0.993113 -0.057426
v 0.145249 0.975365 -0.044749
v 0.141753 0.964074 -0.053449
v 0.136461 0.972803 -0.051834
v 0.128962 0.970399 -0.056766
v 0.133561 0.961263 -0.055132
v 0.135828 0.952543 -0.053315
v 0.150633 0.952227 -0.060379
v 0.147279 0.956007 -0.057455
v 0.144013 0.960158 -0.054077
v 0.145742 0.963432 -0.052562
v 0.146024 0.961473 -0.052637
v 0.138099 0.943410 -0.055460
v 0.108539 0.984701 -0.066175
v 0.101274 0.985592 -0.058386
v 0.107143 0.989255 -0.047341
v 0.098230 0.973929 -0.053909
v 0.096932 0.983633 -0.050183
v 0.103747 0.974643 -0.061828
v 0.111733 0.974968 -0.067219
v 0.101260 0.989646 -0.043021
v 0.094410 0.989356 -0.036203
v 0.090069 0.983686 -0.040624
v 0.085658 0.992036 -0.039645
v 0.088735 0.994993 -0.033729
v 0.083760 0.982157 -0.039517
v 0.082358 0.991136 -0.037013
v 0.083759 0.997436 -0.032246
v 0.091147 0.972799 -0.045296
v 0.086061 0.972040 -0.041626
v 0.079002 0.988331 -0.033592
v 0.076430 0.986873 -0.027201
v 0.075039 0.992514 -0.027300
v 0.079175 0.994892 -0.030139
v 0.079998 0.988844 -0.016742
v 0.079694 0.995784 -0.017801
v 0.083019 1.000470 -0.021291
v 0.105825 0.932075 -0.045110
v 0.099596 0.934086 -0.051043
v 0.106377 0.934006 -0.056761
v 0.113585 0.932545 -0.053871
v 0.116373 0.936573 -0.060923
v 0.104740 0.938015 -0.060026
v 0.095636 0.939381 -0.053654
v 0.114080 0.955948 -0.063332
v 0.112134 0.947270 -0.063030
v 0.107996 0.948273 -0.062015
v 0.108058 0.954394 -0.062691
v 0.102668 0.954276 -0.057131
v 0.104670 0.947339 -0.059483
v 0.116833 0.942618 -0.063114
v 0.128632 0.942631 -0.059458
v 0.126342 0.949802 -0.057352
v 0.083233 0.935396 -0.015794
v 0.079101 0.935344 -0.028655
v 0.083797 0.932487 -0.027326
v 0.089157 0.932052 -0.018536
v 0.096586 0.931749 -0.022994
v 0.088500 0.931976 -0.032614
v 0.083046 0.934316 -0.037338
v 0.158122 0.944890 -0.062912
v 0.157653 0.949265 -0.061931
v 0.096558 0.932023 -0.038323
v 0.090658 0.934323 -0.043727
v 0.076497 0.940145 -0.028536
v 0.080119 0.939548 -0.039120
v 0.087289 0.939780 -0.046503
v 0.078670 0.944639 -0.039934
v 0.086957 0.946637 -0.046030
v 0.095106 0.946866 -0.052501
v 0.088897 0.951191 -0.042159
v 0.095844 0.952777 -0.049395
v 0.087565 0.961191 -0.041747
v 0.093420 0.962492 -0.047998
v 0.100757 0.964162 -0.055752
v 0.106031 0.964390 -0.063312
v 0.112962 0.964821 -0.065765
v 0.118288 0.976293 -0.063991
v 0.121570 0.967381 -0.061958
v 0.124942 0.958556 -0.059078
v 0.125339 0.978429 -0.058144
v 0.131303 0.986245 -0.050134
v 0.132935 0.979586 -0.050611
v 0.123726 0.986117 -0.059090
v 0.116282 0.985052 -0.065197
v 0.139575 0.986030 -0.040333
v 0.141667 0.980120 -0.042190
v 0.148528 0.985758 -0.025266
v 0.148745 0.978469 -0.026756
v 0.154243 0.973872 -0.031794
v 0.159679 0.978689 -0.009644
v 0.162710 0.973137 -0.014059
v 0.166862 0.977297 0.002905
v 0.160067 0.986778 -0.007008
v 0.160277 0.994443 -0.004971
v 0.148182 0.992919 -0.023830
v 0.160590 1.000099 -0.003213
v 0.148010 0.999255 -0.022389
v 0.138493 0.992636 -0.039342
v 0.137648 0.999256 -0.038659
v 0.144587 1.001421 -0.018635
v 0.133334 1.001488 -0.035464
v 0.130490 0.993175 -0.049952
v 0.129812 0.999697 -0.049880
v 0.125000 1.001459 -0.046792
v 0.127569 1.001355 -0.031121
v 0.118865 1.001401 -0.043139
v 0.135998 0.997986 -0.009949
v 0.139370 1.001312 -0.013732
v 0.124489 0.997892 -0.028406
v 0.115396 0.997754 -0.041227
v 0.120001 0.994069 -0.024836
v 0.111585 0.993893 -0.038896
v 0.126027 0.993386 -0.000720
v 0.132199 0.994036 -0.005911
v 0.113796 0.993763 -0.020411
v 0.105237 0.993723 -0.035405
v 0.106936 0.993597 -0.016203
v 0.097762 0.992417 -0.030651
v 0.116663 0.997748 0.007224
v 0.119896 0.993458 0.004282
v 0.103505 0.997856 -0.013360
v 0.093304 0.996782 -0.026197
v 0.099454 1.001367 -0.009634
v 0.089239 1.000722 -0.024284
v 0.107361 1.001396 0.015863
v 0.113138 1.001379 0.010433
v 0.093517 1.001331 -0.004581
v 0.118816 1.001394 0.031775
v 0.124944 1.001377 0.027050
v 0.128514 0.997188 0.024324
v 0.135514 1.001422 0.040486
v 0.139125 0.996178 0.037861
v 0.142730 0.991330 0.034364
v 0.132087 0.992896 0.021432
v 0.147804 0.990312 0.028797
v 0.138050 0.992838 0.016475
v 0.157667 0.986749 0.037347
v 0.165486 0.983580 0.041706
v 0.169520 0.988937 0.031951
v 0.171808 0.978824 0.043269
v 0.174397 0.984174 0.031147
v 0.171415 0.996551 0.014061
v 0.167402 1.000486 0.016911
v 0.157235 1.001413 0.000556
v 0.166447 0.970612 0.053983
v 0.159201 0.970612 0.060471
v 0.159657 0.970430 0.068408
v 0.146875 0.970663 0.073284
v 0.146262 0.981210 0.072507
v 0.135063 0.989326 0.061817
v 0.135466 0.980565 0.063174
v 0.136366 0.970552 0.063924
v 0.124590 0.980583 0.050097
v 0.124976 0.970712 0.050652
v 0.126131 0.960110 0.050709
v 0.127284 0.949939 0.050446
v 0.115132 0.971216 0.038074
v 0.116625 0.959751 0.037345
v 0.117619 0.948585 0.036180
v 0.125152 0.946132 0.052730
v 0.114951 0.945948 0.038637
v 0.106033 0.961258 0.019606
v 0.106038 0.947398 0.018438
v 0.102297 0.946421 0.020477
v 0.090442 0.940160 0.000309
v 0.102821 0.939063 0.019667
v 0.089757 0.946406 0.000830
v 0.116222 0.938262 0.038473
v 0.105620 0.932655 0.017452
v 0.120974 0.932447 0.035582
v 0.132832 0.932429 0.048246
v 0.126907 0.937662 0.052222
v 0.142929 0.931958 0.058434
v 0.141061 0.931717 0.041698
v 0.151299 0.931644 0.050104
v 0.161006 0.932291 0.056263
v 0.168333 0.932629 0.044130
v 0.128841 0.931743 0.029848
v 0.121258 0.931685 0.006375
v 0.112769 0.931723 0.012449
v 0.116471 0.931729 -0.016927
v 0.131254 0.931816 -0.002346
v 0.106864 0.931722 -0.010032
v 0.098792 0.931932 -0.005008
v 0.092524 0.934229 -0.001102
v 0.081500 0.940787 -0.015045
v 0.080485 0.946490 -0.015173
v 0.075503 0.945346 -0.029064
v 0.083857 0.947260 -0.017066
v 0.077861 0.947370 -0.029081
v 0.081459 0.949978 -0.036922
v 0.078184 0.960916 -0.027119
v 0.081352 0.961055 -0.036612
v 0.078303 0.971461 -0.026657
v 0.080617 0.971500 -0.036046
v 0.077613 0.980114 -0.026467
v 0.080075 0.980782 -0.034473
v 0.080572 0.972066 -0.015690
v 0.080287 0.981066 -0.016063
v 0.090408 0.972936 -0.000438
v 0.089884 0.982282 -0.000537
v 0.090097 0.990593 -0.001097
v 0.104721 0.982266 0.020618
v 0.104690 0.990645 0.020564
v 0.104181 0.997958 0.019525
v 0.090299 0.998024 -0.001809
v 0.114781 0.989924 0.036608
v 0.115095 0.997910 0.035508
v 0.124924 0.989300 0.049292
v 0.125217 0.997593 0.048387
v 0.128839 1.001459 0.045413
v 0.114358 0.981396 0.037248
v 0.104908 0.972693 0.020271
v 0.091334 0.961088 -0.000582
v 0.092581 0.947213 -0.000824
v 0.082027 0.960628 -0.016086
v 0.126064 0.931698 -0.028711
v 0.122361 0.931952 -0.048172
v 0.133434 0.931764 -0.041320
v 0.114277 0.931730 -0.037150
v 0.104997 0.931686 -0.029398
v 0.127039 0.934831 -0.056930
v 0.137685 0.933987 -0.052358
v 0.187594 0.930066 -0.021266
v 0.182095 0.930735 0.007794
v 0.187251 0.937742 0.009891
vt 0.841008 0.658018
vt 0.837950 0.662043
vt 0.830892 0.654159
vt 0.839381 0.652067
vt 0.839669 0.645437
vt 0.830464 0.645391
vt 0.880233 0.528366
vt 0.877543 0.522281
vt 0.880895 0.520625
vt 0.889306 0.523313
vt 0.826914 0.645551
vt 0.826766 0.651153
vt 0.806157 0.650192
vt 0.800951 0.650175
vt 0.804499 0.645329
vt 0.809599 0.645656
vt 0.795197 0.649488
vt 0.800052 0.643830
vt 0.811209 0.642003
vt 0.818266 0.643578
vt 0.813383 0.646346
vt 0.811617 0.649665
vt 0.819131 0.648369
vt 0.810677 0.652654
vt 0.804869 0.655067
vt 0.816527 0.653734
vt 0.810579 0.657726
vt 0.800175 0.640966
vt 0.811647 0.639126
vt 0.821349 0.640607
vt 0.824029 0.638534
vt 0.813773 0.636885
vt 0.861724 0.612493
vt 0.867397 0.611906
vt 0.866765 0.617422
vt 0.860273 0.618072
vt 0.872379 0.609641
vt 0.873738 0.613926
vt 0.859878 0.622788
vt 0.865901 0.623780
vt 0.870307 0.625278
vt 0.872927 0.620985
vt 0.874672 0.615904
vt 0.534631 0.520179
vt 0.531698 0.520721
vt 0.533681 0.514880
vt 0.537188 0.512593
vt 0.533239 0.508702
vt 0.529555 0.513430
vt 0.527641 0.520236
vt 0.849211 0.624601
vt 0.845688 0.630030
vt 0.837214 0.623427
vt 0.841511 0.619755
vt 0.840594 0.638572
vt 0.827708 0.635371
vt 0.549231 0.511488
vt 0.555898 0.503448
vt 0.558592 0.505309
vt 0.552097 0.513556
vt 0.879107 0.615402
vt 0.880490 0.617921
vt 0.880460 0.622028
vt 0.885359 0.613388
vt 0.879131 0.610432
vt 0.854297 0.633798
vt 0.861077 0.635056
vt 0.859631 0.642767
vt 0.850908 0.640694
vt 0.849443 0.647435
vt 0.858639 0.649700
vt 0.866134 0.651959
vt 0.865945 0.644894
vt 0.866753 0.637362
vt 0.559157 0.514402
vt 0.570330 0.505566
vt 0.564155 0.515822
vt 0.817868 0.633452
vt 0.569127 0.517179
vt 0.568780 0.528891
vt 0.562441 0.527854
vt 0.563032 0.540222
vt 0.567490 0.543069
vt 0.792092 0.641892
vt 0.790558 0.637719
vt 0.803779 0.637424
vt 0.466262 0.512271
vt 0.463767 0.513448
vt 0.459015 0.507238
vt 0.461125 0.506145
vt 0.458952 0.514850
vt 0.454336 0.509885
vt 0.455426 0.504398
vt 0.872320 0.646559
vt 0.873338 0.654741
vt 0.875082 0.639734
vt 0.471316 0.511508
vt 0.466190 0.505399
vt 0.866328 0.658511
vt 0.874539 0.658941
vt 0.792172 0.657863
vt 0.791262 0.664793
vt 0.785136 0.661536
vt 0.783557 0.654901
vt 0.866871 0.563833
vt 0.860396 0.566100
vt 0.857435 0.564428
vt 0.854387 0.563815
vt 0.857362 0.566148
vt 0.853678 0.564566
vt 0.847935 0.666505
vt 0.849183 0.661406
vt 0.882736 0.538087
vt 0.872407 0.546700
vt 0.873462 0.532298
vt 0.818345 0.660237
vt 0.807566 0.666144
vt 0.800833 0.660930
vt 0.871082 0.566776
vt 0.876683 0.557614
vt 0.792974 0.673975
vt 0.885954 0.549172
vt 0.984839 0.979676
vt 0.989014 0.979250
vt 0.988148 0.984813
vt 0.981689 0.984589
vt 0.565832 0.554406
vt 0.563786 0.555477
vt 0.569400 0.549424
vt 0.561241 0.550130
vt 0.977501 0.985162
vt 0.981280 0.979519
vt 0.985742 0.976027
vt 0.980478 0.976080
vt 0.973254 0.982008
vt 0.893853 0.532110
vt 0.903425 0.528259
vt 0.900546 0.519156
vt 0.863529 0.570389
vt 0.860327 0.572209
vt 0.859695 0.570467
vt 0.861969 0.568704
vt 0.859664 0.568372
vt 0.857090 0.570076
vt 0.856340 0.571872
vt 0.989611 0.977591
vt 0.991273 0.976235
vt 0.989572 0.975132
vt 0.981683 0.972192
vt 0.984971 0.971838
vt 0.986874 0.970483
vt 0.987438 0.972891
vt 0.989059 0.973604
vt 0.978366 0.970320
vt 0.976713 0.972824
vt 0.853195 0.566399
vt 0.848258 0.563802
vt 0.865215 0.571524
vt 0.868520 0.573516
vt 0.547789 0.563124
vt 0.545028 0.568662
vt 0.543082 0.567092
vt 0.544337 0.562110
vt 0.539994 0.571151
vt 0.540687 0.567520
vt 0.541204 0.562997
vt 0.020524 0.730828
vt 0.021091 0.726128
vt 0.024679 0.726143
vt 0.024049 0.731417
vt 0.992658 0.973538
vt 0.992864 0.971731
vt 0.013984 0.731832
vt 0.011917 0.732257
vt 0.011803 0.729238
vt 0.014098 0.728878
vt 0.992583 0.976386
vt 0.991530 0.978024
vt 0.013196 0.726566
vt 0.011184 0.728469
vt 0.994886 0.980350
vt 0.994162 0.975798
vt 0.015102 0.723001
vt 0.010197 0.726177
vt 0.010800 0.721911
vt 0.538064 0.567308
vt 0.537761 0.562881
vt 0.534344 0.563743
vt 0.535548 0.569274
vt 0.557666 0.548904
vt 0.562721 0.557566
vt 0.558043 0.557637
vt 0.557968 0.564338
vt 0.562881 0.563871
vt 0.566870 0.563769
vt 0.566964 0.559045
vt 0.017144 0.729981
vt 0.017056 0.727039
vt 0.017039 0.724025
vt 0.019024 0.723748
vt 0.019435 0.723050
vt 0.020858 0.721491
vt 0.873394 0.576355
vt 0.872097 0.582347
vt 0.867273 0.580002
vt 0.539682 0.573720
vt 0.533214 0.572207
vt 0.531060 0.563889
vt 0.898083 0.605831
vt 0.899364 0.611894
vt 0.893851 0.611064
vt 0.892284 0.604441
vt 0.886609 0.602836
vt 0.888817 0.608571
vt 0.527444 0.563633
vt 0.526703 0.568770
vt 0.522907 0.562540
vt 0.519332 0.567524
vt 0.517465 0.565304
vt 0.518506 0.561650
vt 0.513710 0.568633
vt 0.514951 0.565533
vt 0.515626 0.562210
vt 0.904506 0.605394
vt 0.905717 0.612522
vt 0.511435 0.571886
vt 0.515835 0.573239
vt 0.511581 0.566221
vt 0.506558 0.565217
vt 0.508972 0.563295
vt 0.512302 0.562778
vt 0.503901 0.559316
vt 0.507704 0.558015
vt 0.511476 0.557601
vt 0.896309 0.574850
vt 0.898010 0.580191
vt 0.892769 0.581092
vt 0.889548 0.577475
vt 0.886072 0.581427
vt 0.892656 0.584364
vt 0.899399 0.584494
vt 0.885575 0.592374
vt 0.886481 0.588610
vt 0.889274 0.590182
vt 0.889590 0.593290
vt 0.894349 0.593533
vt 0.891785 0.589965
vt 0.884774 0.584617
vt 0.878247 0.580323
vt 0.878097 0.584468
vt 0.917728 0.569614
vt 0.915645 0.576979
vt 0.913345 0.574468
vt 0.913422 0.568111
vt 0.908370 0.566893
vt 0.909262 0.574844
vt 0.910866 0.579503
vt 0.854591 0.569342
vt 0.857015 0.567726
vt 0.853769 0.570811
vt 0.978967 0.968692
vt 0.980606 0.968456
vt 0.983536 0.968239
vt 0.019481 0.733588
vt 0.016741 0.732683
vt 0.903533 0.574688
vt 0.904973 0.579860
vt 0.917660 0.579786
vt 0.912173 0.583105
vt 0.906249 0.584172
vt 0.912906 0.586396
vt 0.906908 0.588419
vt 0.900270 0.589134
vt 0.907824 0.592097
vt 0.901275 0.593012
vt 0.908546 0.598235
vt 0.902965 0.598979
vt 0.896167 0.599571
vt 0.890270 0.598528
vt 0.885503 0.596886
vt 0.551373 0.570053
vt 0.556087 0.570946
vt 0.551143 0.575117
vt 0.545042 0.574810
vt 0.878374 0.589412
vt 0.880128 0.594632
vt 0.561277 0.570599
vt 0.873177 0.587047
vt 0.553972 0.564413
vt 0.551217 0.556318
vt 0.554489 0.556848
vt 0.550664 0.563588
vt 0.546728 0.570272
vt 0.551046 0.547627
vt 0.554397 0.548231
vt 0.550008 0.536216
vt 0.553854 0.537043
vt 0.558419 0.538277
vt 0.553293 0.524351
vt 0.557146 0.525591
vt 0.555180 0.516616
vt 0.548625 0.523111
vt 0.544552 0.522230
vt 0.545991 0.535704
vt 0.541529 0.521207
vt 0.542404 0.535093
vt 0.547381 0.547288
vt 0.543789 0.547338
vt 0.539342 0.534559
vt 0.540585 0.547259
vt 0.547807 0.555618
vt 0.544418 0.555629
vt 0.541079 0.556002
vt 0.536609 0.547152
vt 0.537170 0.556220
vt 0.532052 0.533191
vt 0.535398 0.533782
vt 0.533672 0.546871
vt 0.534223 0.556736
vt 0.529909 0.546653
vt 0.531090 0.557169
vt 0.523783 0.532005
vt 0.528276 0.532277
vt 0.525778 0.546543
vt 0.527171 0.557411
vt 0.521469 0.546754
vt 0.522531 0.557888
vt 0.515697 0.531858
vt 0.519218 0.531891
vt 0.517985 0.546580
vt 0.518645 0.556663
vt 0.514292 0.546356
vt 0.515231 0.556775
vt 0.507449 0.531919
vt 0.512126 0.531871
vt 0.509632 0.546538
vt 0.505744 0.520330
vt 0.510460 0.519827
vt 0.514197 0.519535
vt 0.873872 0.604472
vt 0.869010 0.605633
vt 0.872362 0.597539
vt 0.875286 0.597796
vt 0.865371 0.606561
vt 0.868804 0.597613
vt 0.518057 0.519086
vt 0.525087 0.513483
vt 0.523132 0.519911
vt 0.523190 0.512431
vt 0.856806 0.612084
vt 0.861022 0.605777
vt 0.530203 0.506874
vt 0.853556 0.616293
vt 0.536694 0.504870
vt 0.531470 0.502007
vt 0.851251 0.620774
vt 0.842649 0.616446
vt 0.846811 0.613501
vt 0.845662 0.606107
vt 0.848532 0.604928
vt 0.540538 0.511035
vt 0.538282 0.520614
vt 0.544708 0.511813
vt 0.553735 0.502105
vt 0.857736 0.627564
vt 0.863885 0.629205
vt 0.868799 0.631046
vt 0.877026 0.633097
vt 0.878962 0.627003
vt 0.889153 0.621166
vt 0.887734 0.627333
vt 0.885721 0.634262
vt 0.883133 0.639465
vt 0.487358 0.516629
vt 0.481773 0.517033
vt 0.477279 0.510745
vt 0.482481 0.510825
vt 0.475781 0.518327
vt 0.470354 0.519464
vt 0.485844 0.523873
vt 0.480051 0.526682
vt 0.473709 0.527521
vt 0.467653 0.519726
vt 0.471631 0.528115
vt 0.483132 0.538073
vt 0.476133 0.541912
vt 0.473953 0.543030
vt 0.921323 0.560765
vt 0.923216 0.546069
vt 0.927675 0.547742
vt 0.925040 0.562781
vt 0.467995 0.528546
vt 0.470239 0.543011
vt 0.466529 0.542930
vt 0.464553 0.528610
vt 0.458909 0.521376
vt 0.462917 0.520343
vt 0.454110 0.516253
vt 0.453169 0.522136
vt 0.448362 0.518191
vt 0.443691 0.514245
vt 0.449216 0.512391
vt 0.849312 0.653808
vt 0.858520 0.656744
vt 0.857605 0.663682
vt 0.445120 0.524354
vt 0.443382 0.519374
vt 0.452247 0.529967
vt 0.458358 0.527914
vt 0.905869 0.542858
vt 0.911362 0.528114
vt 0.912820 0.543561
vt 0.918707 0.544498
vt 0.918139 0.529002
vt 0.899148 0.556840
vt 0.897028 0.544061
vt 0.906659 0.556734
vt 0.912597 0.557538
vt 0.917379 0.559149
vt 0.921383 0.572013
vt 0.924117 0.574391
vt 0.919688 0.583336
vt 0.486182 0.568408
vt 0.489804 0.576699
vt 0.488094 0.576349
vt 0.484259 0.568930
vt 0.913833 0.590631
vt 0.919905 0.585596
vt 0.495122 0.571354
vt 0.500731 0.574719
vt 0.495207 0.576788
vt 0.913767 0.597871
vt 0.500124 0.569812
vt 0.506507 0.571621
vt 0.908823 0.605011
vt 0.913910 0.604496
vt 0.503384 0.567251
vt 0.509441 0.568627
vt 0.496421 0.563517
vt 0.500056 0.560947
vt 0.493057 0.551645
vt 0.497732 0.549544
vt 0.501981 0.547831
vt 0.494689 0.533629
vt 0.499406 0.532112
vt 0.503891 0.531753
vt 0.506427 0.546951
vt 0.496898 0.522130
vt 0.500986 0.520354
vt 0.492003 0.515862
vt 0.496433 0.515433
vt 0.500883 0.513506
vt 0.879237 0.605666
vt 0.884096 0.606753
vt 0.880399 0.598243
vt 0.486208 0.510456
vt 0.490027 0.508289
vt 0.492227 0.523063
vt 0.489199 0.535131
vt 0.487335 0.553962
vt 0.481663 0.557843
vt 0.491980 0.566547
vt 0.480381 0.559041
vt 0.890024 0.560075
vt 0.886224 0.571935
vt 0.881529 0.565508
vt 0.894041 0.568140
vt 0.901813 0.567093
vt 0.881132 0.576128
vt 0.876116 0.571115
vt 0.788671 0.648482
vt 0.788853 0.645076
vt 0.799136 0.654778
vt 0.822816 0.652591
vt 0.826069 0.657328
vt 0.823836 0.646014
vt 0.024273 0.723080
vn -0.0277 -0.9893 0.1434
vn -0.0535 -0.9985 0.0144
vn 0.3507 -0.9365 0.0066
vn 0.4461 -0.8643 0.2325
vn 0.9295 -0.2568 0.2646
vn 0.9514 -0.2485 0.1816
vn -0.0714 -0.9971 -0.0277
vn 0.4455 -0.8711 0.2068
vn 0.8313 -0.1751 0.5275
vn 0.8848 -0.0376 -0.4645
vn 0.6843 0.0367 -0.7283
vn 0.4509 0.6833 -0.5743
vn 0.6431 0.7333 -0.2207
vn 0.8986 -0.0606 -0.4345
vn 0.6229 0.6807 -0.3855
vn 0.2144 0.9767 0.0091
vn 0.3829 0.6774 0.6281
vn 0.8023 0.5090 0.3116
vn 0.9554 -0.1096 0.2742
vn 0.5235 -0.0975 0.8465
vn 0.7022 -0.6784 0.2161
vn 0.4919 -0.7955 -0.3539
vn 0.2464 -0.7596 0.6019
vn -0.0571 -0.9969 0.0543
vn 0.6944 0.7107 -0.1127
vn 0.4811 0.8766 0.0058
vn 0.2935 0.7140 0.6357
vn 0.8298 0.4710 0.2992
vn 0.7979 0.6018 -0.0331
vn 0.4465 0.8803 -0.1603
vn 0.6364 0.6690 -0.3841
vn 0.8422 0.5164 -0.1553
vn 0.6401 0.7504 0.1649
vn 0.3999 0.8764 -0.2685
vn 0.5672 0.8179 -0.0967
vn 0.7721 0.3394 0.5373
vn 0.9464 0.2251 0.2316
vn 0.8436 0.1716 0.5089
vn 0.8535 0.2741 0.4432
vn 0.7266 0.5372 0.4283
vn -0.1961 0.9694 0.1474
vn -0.4859 0.7990 0.3541
vn -0.4226 0.7914 0.4416
vn -0.1054 0.9072 0.4072
vn -0.0291 0.8467 0.5312
vn -0.2347 0.8721 0.4294
vn -0.3123 0.9063 0.2849
vn 0.9312 0.0741 0.3569
vn 0.9484 0.0755 0.3081
vn 0.9802 0.1766 -0.0899
vn 0.9917 0.1192 0.0475
vn 0.9554 0.1177 0.2708
vn 0.9776 0.2088 0.0260
vn 0.9312 0.1376 -0.3377
vn 0.8976 0.1368 -0.4191
vn -0.1481 0.8579 0.4921
vn -0.2474 0.3787 0.8918
vn -0.1906 0.1305 0.9729
vn -0.7066 0.3486 0.6158
vn -0.3239 0.9102 0.2581
vn 0.8294 0.0879 0.5516
vn 0.8680 0.0895 0.4884
vn 0.8230 0.1687 0.5425
vn 0.8779 0.1610 0.4510
vn 0.8773 -0.2805 0.3895
vn 0.7854 -0.3170 0.5317
vn 0.6324 -0.3544 0.6888
vn 0.6899 0.1566 0.7067
vn 0.7808 0.0665 0.6213
vn 0.8671 0.3894 -0.3107
vn 0.8697 0.4614 -0.1754
vn 0.7947 0.5884 -0.1492
vn 0.7509 0.6430 -0.1509
vn 0.5725 0.7117 -0.4071
vn 0.5839 0.5043 -0.6362
vn 0.5758 0.7055 -0.4133
vn -0.6789 0.3550 0.6427
vn -0.7119 0.3230 0.6235
vn -0.2484 0.2325 0.9403
vn 0.0194 0.3323 0.9430
vn -0.6202 -0.5777 0.5308
vn -0.2367 -0.6210 0.7472
vn 0.4069 -0.3421 0.8470
vn -0.1735 -0.0310 0.9843
vn -0.7141 -0.0759 0.6960
vn 0.1173 -0.9467 0.2999
vn 0.6548 -0.7026 -0.2787
vn 0.0764 -0.9935 -0.0839
vn 0.0708 -0.8774 -0.4744
vn 0.5236 -0.4771 -0.7058
vn -0.3097 -0.8785 -0.3637
vn -0.1403 -0.7757 -0.6153
vn 0.4034 -0.2873 -0.8687
vn -0.0128 -0.9997 0.0203
vn 0.0311 -0.9988 0.0376
vn -0.0827 -0.9964 0.0190
vn -0.1834 -0.9829 0.0179
vn -0.1772 -0.9728 0.1495
vn -0.0531 -0.9908 -0.1246
vn 0.2015 -0.7275 -0.6559
vn -0.0105 -0.9962 -0.0870
vn -0.0325 -0.9994 0.0087
vn 0.1810 0.5779 -0.7958
vn 0.3688 0.3579 -0.8578
vn 0.5769 0.7617 -0.2948
vn 0.2913 0.2224 -0.9304
vn 0.4052 0.6054 -0.6851
vn 0.7155 0.5535 -0.4263
vn 0.2765 0.6162 -0.7375
vn 0.3701 0.8505 -0.3737
vn 0.5266 0.3729 -0.7640
vn 0.7501 0.0553 -0.6590
vn -0.0290 -0.9996 -0.0056
vn -0.0170 -0.9999 0.0026
vn -0.9349 -0.1803 0.3056
vn -0.9526 -0.3016 -0.0394
vn -0.8019 -0.5426 -0.2501
vn -0.7595 -0.6249 -0.1807
vn -0.0750 -0.7494 -0.6578
vn -0.3122 -0.3993 -0.8620
vn -0.5279 0.0546 -0.8475
vn 0.4413 0.1396 -0.8864
vn 0.5073 -0.4102 -0.7579
vn -0.6230 0.5525 -0.5538
vn 0.7650 0.3468 -0.5428
vn 0.7679 0.6221 -0.1528
vn 0.5469 0.7969 0.2566
vn 0.8827 0.4020 0.2433
vn -0.4361 -0.3418 0.8324
vn 0.5704 -0.2349 -0.7870
vn -0.3819 -0.0771 -0.9210
vn 0.2453 -0.1325 -0.9604
vn 0.7075 0.0665 -0.7036
vn 0.2389 0.0520 -0.9697
vn -0.0189 0.6403 -0.7679
vn 0.5295 0.6707 -0.5195
vn -0.5249 0.1085 -0.8442
vn -0.4470 0.6769 -0.5849
vn 0.0078 0.9987 -0.0500
vn 0.2909 0.5362 -0.7924
vn 0.1490 0.9185 -0.3664
vn -0.8771 -0.4716 0.0915
vn -0.3018 -0.6595 -0.6885
vn -0.2266 -0.2143 -0.9501
vn -0.7476 0.6586 -0.0857
vn -0.4094 0.8783 0.2468
vn -0.7700 0.4384 0.4636
vn -0.9551 0.2937 -0.0394
vn 0.4787 0.7030 -0.5260
vn 0.2758 0.1799 -0.9442
vn 0.4489 0.3760 -0.8106
vn 0.5094 0.1341 -0.8500
vn 0.3600 -0.0016 -0.9330
vn 0.2932 0.0637 -0.9539
vn -0.6018 0.1256 -0.7887
vn -0.6313 0.0306 -0.7750
vn -0.9399 0.3256 -0.1032
vn -0.2092 0.9773 -0.0324
vn -0.2301 0.3021 0.9251
vn 0.3406 -0.0482 -0.9390
vn -0.3533 0.0726 -0.9327
vn -0.8458 0.2842 -0.4516
vn -0.6453 0.7636 0.0221
vn -0.8068 0.0093 -0.5907
vn -0.7127 0.5047 -0.4871
vn -0.7133 -0.0454 -0.6994
vn -0.0797 -0.0237 -0.9965
vn -0.3725 0.8652 -0.3356
vn -0.0054 0.8275 -0.5615
vn -0.4041 0.4199 -0.8127
vn -0.0228 0.4857 -0.8738
vn 0.2689 0.7470 -0.6081
vn -0.5993 0.0784 -0.7967
vn -0.5421 0.3825 -0.7482
vn -0.2341 0.8250 -0.5144
vn -0.6793 0.0818 -0.7292
vn -0.6304 0.0472 -0.7748
vn -0.8300 0.0890 -0.5506
vn -0.9956 -0.0674 -0.0655
vn -0.9631 0.2553 -0.0853
vn -0.7128 0.5810 -0.3929
vn -0.8940 -0.0131 0.4479
vn -0.8432 0.4148 0.3421
vn -0.4495 0.8933 -0.0069
vn -0.0790 -0.9914 -0.1043
vn -0.3417 -0.8520 -0.3967
vn -0.2202 -0.8530 -0.4731
vn -0.0259 -0.9507 -0.3089
vn 0.0381 -0.5791 -0.8143
vn -0.3799 -0.3897 -0.8389
vn -0.5972 -0.3046 -0.7420
vn 0.1473 -0.1422 -0.9788
vn -0.0831 -0.1779 -0.9805
vn -0.4309 -0.2090 -0.8778
vn -0.4582 -0.0949 -0.8838
vn -0.7214 0.0163 -0.6923
vn -0.5550 -0.0086 -0.8318
vn 0.0975 -0.0258 -0.9949
vn 0.3356 -0.0121 -0.9419
vn 0.3626 0.1212 -0.9240
vn -0.6793 -0.6620 0.3167
vn -0.7301 -0.6833 0.0024
vn -0.3290 -0.9438 0.0304
vn -0.2284 -0.9682 0.1022
vn -0.0244 -0.9997 0.0013
vn -0.1660 -0.9804 -0.1059
vn -0.5301 -0.7705 -0.3540
vn 0.3573 -0.0504 -0.9326
vn 0.3475 0.2929 -0.8907
vn -0.0921 -0.9888 -0.1178
vn -0.3690 -0.8260 -0.4261
vn -0.9422 -0.3328 0.0386
vn -0.7760 -0.3746 -0.5075
vn -0.6172 -0.3273 -0.7155
vn -0.8219 0.2024 -0.5325
vn -0.6377 0.3133 -0.7037
vn -0.6367 0.2178 -0.7397
vn -0.6510 0.2892 -0.7018
vn -0.7024 0.1723 -0.6907
vn -0.6661 -0.0383 -0.7449
vn -0.7183 -0.0471 -0.6941
vn -0.7683 -0.0811 -0.6350
vn -0.5822 -0.1278 -0.8030
vn 0.0485 -0.1351 -0.9896
vn 0.4869 0.0256 -0.8731
vn 0.4865 -0.0394 -0.8728
vn 0.4338 -0.0887 -0.8966
vn 0.6363 0.1241 -0.7614
vn 0.7437 0.1748 -0.6453
vn 0.6351 0.3151 -0.7053
vn 0.6927 0.0683 -0.7180
vn 0.3932 0.0504 -0.9181
vn 0.7980 0.2337 -0.5555
vn 0.6876 0.4996 -0.5268
vn 0.8432 0.1751 -0.5082
vn 0.7558 0.5158 -0.4034
vn 0.4903 0.8375 -0.2413
vn 0.8197 0.3687 -0.4384
vn 0.6665 0.7159 -0.2080
vn 0.8720 0.2378 -0.4278
vn 0.8465 0.1180 -0.5191
vn 0.8422 0.1198 -0.5257
vn 0.8339 0.1492 -0.5314
vn 0.6789 0.6129 -0.4043
vn 0.6577 0.6175 -0.4314
vn 0.8150 0.1550 -0.5583
vn 0.6569 0.6129 -0.4392
vn 0.1450 0.9843 -0.1003
vn 0.1531 0.9833 -0.0985
vn 0.7845 0.1117 -0.6101
vn 0.6253 0.6309 -0.4593
vn 0.1153 0.9903 -0.0781
vn -0.2819 0.9397 0.1936
vn -0.3327 0.9162 0.2235
vn -0.4912 0.8069 0.3280
vn -0.2591 0.9508 0.1701
vn -0.5112 0.7913 0.3356
vn -0.6359 0.6832 0.3589
vn -0.2774 0.9445 0.1756
vn -0.4381 0.8969 0.0610
vn -0.0108 0.9994 0.0318
vn -0.2840 0.9360 0.2081
vn -0.0427 0.9989 0.0197
vn -0.1766 0.9701 -0.1665
vn 0.2643 0.9424 -0.2047
vn 0.1246 0.9316 -0.3415
vn 0.5468 0.7566 -0.3586
vn 0.3286 0.9231 -0.1997
vn 0.5058 0.7777 -0.3733
vn 0.4291 0.7838 -0.4489
vn 0.2371 0.9525 -0.1912
vn 0.1143 0.9448 -0.3070
vn -0.2590 0.9498 0.1758
vn 0.2684 0.9464 -0.1799
vn -0.3058 0.9372 0.1679
vn -0.2469 0.9520 0.1809
vn 0.2978 0.9306 -0.2131
vn 0.5678 0.7234 -0.3927
vn 0.3410 0.9055 -0.2525
vn 0.5953 0.6882 -0.4148
vn 0.4186 0.8872 -0.1937
vn 0.3594 0.9125 -0.1955
vn 0.0999 0.9850 0.1406
vn 0.0290 0.9970 0.0712
vn 0.1942 0.9625 0.1894
vn 0.4732 0.8239 0.3119
vn 0.4179 0.7632 0.4929
vn 0.8244 0.3777 0.4215
vn 0.8836 0.3993 0.2444
vn 0.8502 0.5121 -0.1226
vn 0.3722 0.8971 0.2381
vn 0.2056 0.9746 -0.0887
vn 0.7845 0.0533 0.6178
vn 0.9260 0.0730 0.3704
vn 0.8220 0.0695 0.5652
vn -0.1748 -0.0001 0.9846
vn -0.1767 0.1037 0.9788
vn -0.7231 0.0722 0.6869
vn -0.7143 0.0400 0.6987
vn -0.7122 -0.0374 0.7009
vn -0.7750 0.0373 0.6309
vn -0.7771 -0.0516 0.6273
vn -0.7820 -0.1014 0.6150
vn -0.7616 0.3197 0.5637
vn -0.8289 -0.0689 0.5551
vn -0.8292 -0.1111 0.5478
vn -0.7593 0.4246 0.4931
vn -0.7757 0.2888 0.5611
vn -0.7616 0.3812 0.5240
vn -0.8336 -0.0931 0.5444
vn -0.6976 0.5485 0.4610
vn -0.7106 0.5256 0.4678
vn -0.8241 -0.2682 0.4989
vn -0.7814 -0.3325 0.5280
vn -0.7054 0.5650 0.4280
vn -0.7228 -0.4305 0.5405
vn -0.4603 -0.8325 0.3083
vn -0.3422 -0.8997 0.2711
vn -0.2676 -0.9420 0.2026
vn -0.6816 -0.5244 0.5102
vn -0.1840 -0.9681 0.1702
vn -0.0265 -0.9995 0.0184
vn 0.0122 -0.9997 0.0217
vn 0.3295 -0.9198 0.2131
vn 0.4051 -0.8955 0.1844
vn -0.0330 -0.9990 0.0285
vn -0.0034 -1.0000 -0.0004
vn -0.0662 -0.9971 0.0376
vn -0.0012 -1.0000 0.0013
vn -0.0067 -1.0000 0.0010
vn -0.0086 -1.0000 0.0038
vn -0.1385 -0.9878 0.0712
vn -0.5766 -0.7441 0.3375
vn -0.8734 -0.2592 0.4122
vn -0.7781 0.5183 0.3548
vn -0.9533 0.3019 -0.0088
vn -0.7603 0.5406 0.3602
vn -0.8604 0.5091 -0.0224
vn -0.7792 0.3544 -0.5170
vn -0.9991 -0.0385 0.0182
vn -0.8226 -0.0092 -0.5685
vn -0.9989 -0.0457 -0.0103
vn -0.8633 -0.0219 -0.5042
vn -0.9970 -0.0767 -0.0108
vn -0.8748 -0.0386 -0.4830
vn -0.9161 -0.0612 0.3963
vn -0.9142 -0.0263 0.4043
vn -0.8299 -0.0624 0.5544
vn -0.8340 0.0019 0.5518
vn -0.8355 0.0442 0.5477
vn -0.8421 0.0012 0.5394
vn -0.8363 0.0469 0.5463
vn -0.7297 0.4782 0.4887
vn -0.7510 0.4615 0.4722
vn -0.8118 0.0751 0.5791
vn -0.7042 0.4905 0.5134
vn -0.7754 0.0885 0.6252
vn -0.6917 0.4683 0.5498
vn -0.2686 0.9406 0.2077
vn -0.8246 0.0236 0.5653
vn -0.8405 -0.0712 0.5371
vn -0.8329 -0.0941 0.5453
vn -0.6753 0.5997 0.4293
vn -0.9009 -0.0960 0.4233
vn -0.0077 -1.0000 -0.0025
vn 0.0314 -0.9865 -0.1609
vn 0.0399 -0.9935 -0.1067
vn -0.0073 -0.9998 -0.0202
vn -0.0074 -0.9999 -0.0103
vn 0.2210 -0.7225 -0.6551
vn 0.2658 -0.7473 -0.6090
vn 0.4177 -0.7781 -0.4691
vn 0.1018 -0.7583 0.6439
vn 0.3583 -0.0608 0.9316
f 1/1/1 2/2/2 3/3/3 4/4/4
f 5/5/5 4/4/4 3/3/3 6/6/6
f 7/7/7 8/8/8 3/9/3 2/10/2
f 9/11/9 6/6/6 3/3/3 8/12/8
f 10/13/10 11/14/11 12/15/12 13/16/13
f 14/17/14 15/18/15 12/15/12 11/14/11
f 16/19/16 13/16/13 12/15/12 15/18/15
f 16/19/16 17/20/17 18/21/18 13/16/13
f 10/13/10 13/16/13 18/21/18 19/22/19
f 20/23/20 19/22/19 18/21/18 17/20/17
f 10/13/10 19/22/19 21/24/21 22/25/22
f 20/23/20 23/26/23 21/24/21 19/22/19
f 24/27/24 22/25/22 21/24/21 23/26/23
f 15/18/15 25/28/25 26/29/26 16/19/16
f 17/20/17 16/19/16 26/29/26 27/30/27
f 28/31/28 27/30/27 26/29/26 29/32/29
f 30/33/30 31/34/31 32/35/32 33/36/33
f 34/37/34 35/38/35 32/35/32 31/34/31
f 36/39/36 33/36/33 32/35/32 37/40/37
f 38/41/38 37/40/37 32/35/32 39/42/39
f 40/43/40 39/42/39 32/35/32 35/38/35
f 41/44/41 42/45/42 43/46/43 44/47/44
f 45/48/45 44/47/44 43/46/43 46/49/46
f 47/50/47 46/49/46 43/46/43 42/45/42
f 48/51/48 49/52/49 50/53/50 51/54/51
f 52/55/52 53/56/53 50/53/50 49/52/49
f 54/57/54 51/58/51 50/59/50 55/60/55
f 56/61/56 57/62/57 40/43/40 35/38/35
f 58/63/58 39/42/39 40/43/40 57/62/57
f 59/64/59 57/62/57 56/61/56 60/65/60
f 61/66/61 62/67/62 63/68/63 64/69/64
f 65/70/65 64/69/64 63/68/63 66/71/66
f 67/72/67 66/71/66 63/68/63 68/73/68
f 69/74/69 68/73/68 63/68/63 62/67/62
f 70/75/70 50/59/50 53/76/53 71/77/71
f 29/32/29 71/78/71 53/56/53 28/31/28
f 5/5/5 6/6/6 53/56/53 52/55/52
f 9/11/9 28/31/28 53/56/53 6/6/6
f 71/77/71 29/79/29 72/80/72 73/81/73
f 74/82/74 73/81/73 72/80/72 75/83/75
f 76/84/76 75/85/75 72/86/72 25/28/25
f 77/87/77 78/88/78 79/89/79 80/90/80
f 81/91/81 82/92/82 79/89/79 78/88/78
f 83/93/83 80/90/80 79/89/79 82/92/82
f 67/72/67 68/73/68 80/94/80 83/95/83
f 69/74/69 84/96/84 80/94/80 68/73/68
f 85/97/85 77/87/77 80/90/80 84/98/84
f 86/99/86 67/72/67 83/95/83 82/100/82
f 87/101/87 88/102/88 89/103/89 90/104/90
f 91/105/91 92/106/92 89/107/89 88/108/88
f 93/109/93 90/110/90 89/107/89 92/106/92
f 94/111/94 2/2/2 1/1/1 95/112/95
f 7/7/7 96/113/96 97/114/97 98/115/98
f 24/27/24 98/116/98 97/117/97 99/118/99
f 100/119/100 91/105/91 97/114/97 101/120/101
f 88/102/88 99/118/99 97/117/97 91/121/91
f 102/122/102 101/120/101 97/114/97 96/113/96
f 103/123/103 104/124/104 75/125/75 76/126/76
f 105/127/105 106/128/106 75/83/75 104/129/104
f 107/130/107 74/82/74 75/83/75 106/128/106
f 76/126/76 108/131/108 109/132/109 103/123/103
f 110/133/110 103/123/103 109/132/109 111/134/111
f 112/135/112 111/134/111 109/132/109 108/131/108
f 96/113/96 7/7/7 2/10/2 113/136/113
f 114/137/114 113/136/113 2/10/2 94/138/94
f 115/139/115 116/140/116 117/141/117 118/142/118
f 119/143/119 118/142/118 117/141/117 120/144/120
f 121/145/121 120/144/120 117/141/117 116/140/116
f 104/124/104 103/123/103 110/133/110 122/146/122
f 123/147/123 122/146/122 110/133/110 124/148/124
f 125/149/125 126/150/126 110/133/110 111/134/111
f 127/151/127 128/152/128 110/133/110 126/150/126
f 129/153/129 124/148/124 110/133/110 128/152/128
f 130/154/130 125/149/125 111/134/111 93/155/93
f 90/110/90 93/109/93 111/156/111 112/157/112
f 119/143/119 92/106/92 91/105/91 118/142/118
f 115/139/115 118/142/118 91/105/91 131/158/131
f 132/159/132 131/158/131 91/105/91 100/119/100
f 133/160/133 134/161/134 135/162/135 136/163/136
f 137/164/137 138/165/138 135/162/135 134/161/134
f 139/166/139 136/163/136 135/162/135 138/165/138
f 140/167/140 141/168/141 127/169/127 126/170/126
f 131/171/131 124/148/124 129/153/129 115/172/115
f 116/173/116 115/174/115 129/175/129 142/176/142
f 122/146/122 123/147/123 129/177/129 128/178/128
f 143/179/143 142/176/142 129/175/129 123/180/123
f 104/124/104 122/146/122 128/178/128 105/181/105
f 123/147/123 124/148/124 131/171/131 143/182/143
f 144/183/144 143/179/143 131/184/131 132/185/132
f 139/166/139 138/165/138 145/186/145 146/187/146
f 147/188/147 146/187/146 145/186/145 148/189/148
f 137/164/137 148/189/148 145/186/145 138/165/138
f 149/190/149 107/130/107 150/191/150 151/192/151
f 152/193/152 151/192/151 150/191/150 153/194/153
f 154/195/154 153/194/153 150/191/150 144/196/144
f 105/127/105 144/196/144 150/191/150 106/128/106
f 155/197/155 156/198/156 141/168/141 140/167/140
f 157/199/157 158/200/158 141/168/141 156/198/156
f 159/201/159 105/202/105 141/168/141 158/200/158
f 157/199/157 144/183/144 105/202/105 159/201/159
f 143/179/143 144/183/144 157/199/157 156/198/156
f 160/203/160 154/204/154 144/205/144 132/159/132
f 137/164/137 161/206/161 162/207/162 148/189/148
f 147/188/147 148/189/148 162/207/162 163/208/163
f 164/209/164 165/210/165 162/211/162 166/212/166
f 167/213/167 166/212/166 162/211/162 161/214/161
f 168/215/168 163/208/163 162/207/162 165/216/165
f 169/217/169 170/218/170 171/219/171 172/220/172
f 173/221/173 174/222/174 171/219/171 170/218/170
f 175/223/175 172/220/172 171/219/171 174/222/174
f 168/215/168 165/216/165 170/218/170 169/217/169
f 164/209/164 176/224/176 170/225/170 165/210/165
f 177/226/177 173/221/173 170/218/170 176/227/176
f 178/228/178 179/229/179 180/230/180 181/231/181
f 182/232/182 183/233/183 180/230/180 179/229/179
f 184/234/184 181/231/181 180/230/180 183/233/183
f 185/235/185 186/236/186 187/237/187 188/238/188
f 189/239/189 188/238/188 187/237/187 190/240/190
f 191/241/191 190/240/190 187/237/187 186/236/186
f 192/242/192 193/243/193 194/244/194 195/245/195
f 196/246/196 195/245/195 194/244/194 197/247/197
f 198/248/198 197/247/197 194/244/194 193/243/193
f 199/249/199 198/248/198 193/243/193 200/250/200
f 201/251/201 202/252/202 203/253/203 204/254/204
f 205/255/205 204/254/204 203/253/203 206/256/206
f 207/257/207 206/256/206 203/253/203 202/252/202
f 119/143/119 120/144/120 208/258/208 130/259/130
f 121/145/121 209/260/209 208/258/208 120/144/120
f 125/149/125 130/154/130 208/261/208 209/262/209
f 126/150/126 125/149/125 209/262/209 140/263/140
f 155/197/155 140/167/140 209/264/209 121/265/121
f 210/266/210 206/256/206 207/257/207 211/267/211
f 212/268/212 213/269/213 207/257/207 202/252/202
f 214/270/214 211/267/211 207/257/207 213/269/213
f 186/236/186 211/267/211 214/270/214 191/241/191
f 215/271/215 216/272/216 214/270/214 213/269/213
f 217/273/217 191/241/191 214/270/214 216/272/216
f 190/240/190 191/241/191 217/273/217 197/247/197
f 218/274/218 219/275/219 217/273/217 216/272/216
f 196/246/196 197/247/197 217/273/217 219/275/219
f 220/276/220 221/277/221 219/275/219 218/274/218
f 222/278/222 196/246/196 219/275/219 221/277/221
f 195/245/195 196/246/196 222/278/222 223/279/223
f 176/224/176 164/209/164 222/278/222 221/277/221
f 166/212/166 223/279/223 222/278/222 164/209/164
f 167/213/167 224/280/224 223/279/223 166/212/166
f 192/242/192 195/245/195 223/279/223 224/280/224
f 225/281/225 226/282/226 224/283/224 167/284/167
f 227/285/227 192/242/192 224/280/224 226/286/226
f 152/193/152 153/194/153 227/287/227 226/282/226
f 154/204/154 200/250/200 227/285/227 153/288/153
f 193/243/193 192/242/192 227/285/227 200/250/200
f 228/289/228 152/193/152 226/282/226 225/281/225
f 229/290/229 230/291/230 228/289/228 231/292/231
f 151/192/151 152/193/152 228/289/228 230/291/230
f 232/293/232 231/292/231 228/289/228 225/281/225
f 133/160/133 231/292/231 232/293/232 134/161/134
f 167/284/167 161/206/161 232/293/232 225/281/225
f 137/164/137 134/161/134 232/293/232 161/206/161
f 233/294/233 234/295/234 230/291/230 229/290/229
f 149/190/149 151/192/151 230/291/230 234/295/234
f 235/296/235 236/297/236 234/295/234 233/294/233
f 237/298/237 149/190/149 234/295/234 236/297/236
f 238/299/238 239/300/239 237/298/237 236/297/236
f 73/81/73 74/82/74 237/298/237 239/300/239
f 107/130/107 149/190/149 237/298/237 74/82/74
f 240/301/240 70/75/70 239/300/239 238/299/238
f 71/77/71 73/81/73 239/300/239 70/75/70
f 55/60/55 240/301/240 238/299/238 241/302/241
f 235/296/235 241/302/241 238/299/238 236/297/236
f 54/57/54 55/60/55 241/302/241 242/303/242
f 243/304/243 242/303/242 241/302/241 235/296/235
f 244/305/244 242/303/242 243/304/243 245/306/245
f 233/294/233 246/307/246 243/304/243 235/296/235
f 247/308/247 245/306/245 243/304/243 246/307/246
f 248/309/248 245/306/245 247/308/247 249/310/249
f 250/311/250 251/312/251 247/308/247 246/307/246
f 252/313/252 249/310/249 247/308/247 251/312/251
f 253/314/253 249/310/249 252/313/252 254/315/254
f 136/163/136 139/166/139 252/313/252 251/312/251
f 146/187/146 254/315/254 252/313/252 139/166/139
f 255/316/255 256/317/256 253/314/253 257/318/257
f 248/309/248 249/310/249 253/314/253 256/317/256
f 258/319/258 257/318/257 253/314/253 254/315/254
f 259/320/259 257/318/257 258/319/258 260/321/260
f 146/187/146 147/188/147 258/319/258 254/315/254
f 163/208/163 260/321/260 258/319/258 147/188/147
f 261/322/261 262/323/262 259/320/259 263/324/263
f 255/316/255 257/318/257 259/320/259 262/323/262
f 264/325/264 263/324/263 259/320/259 260/321/260
f 265/326/265 263/324/263 264/325/264 266/327/266
f 163/208/163 168/215/168 264/325/264 260/321/260
f 169/217/169 266/327/266 264/325/264 168/215/168
f 267/328/267 268/329/268 265/326/265 269/330/269
f 261/322/261 263/324/263 265/326/265 268/329/268
f 270/331/270 269/330/269 265/326/265 266/327/266
f 271/332/271 269/330/269 270/331/270 272/333/272
f 169/217/169 172/220/172 270/331/270 266/327/266
f 175/223/175 272/333/272 270/331/270 172/220/172
f 273/334/273 274/335/274 271/332/271 275/336/275
f 267/328/267 269/330/269 271/332/271 274/335/274
f 184/234/184 275/336/275 271/332/271 272/333/272
f 276/337/276 277/338/277 274/335/274 273/334/273
f 278/339/278 267/328/267 274/335/274 277/338/277
f 279/340/279 280/341/280 278/342/278 277/343/277
f 281/344/281 282/345/282 278/342/278 280/341/280
f 268/329/268 267/328/267 278/339/278 282/346/282
f 283/347/283 284/348/284 282/346/282 281/349/281
f 261/322/261 268/329/268 282/346/282 284/348/284
f 46/49/46 47/50/47 284/348/284 283/347/283
f 262/323/262 261/322/261 284/348/284 47/50/47
f 30/33/30 285/350/285 283/351/283 281/344/281
f 45/48/45 46/49/46 283/347/283 285/352/285
f 33/36/33 286/353/286 285/350/285 30/33/30
f 287/354/287 45/48/45 285/352/285 286/355/286
f 288/356/288 289/357/289 287/358/287 286/353/286
f 290/359/290 291/360/291 287/358/287 289/357/289
f 44/47/44 45/48/45 287/354/287 291/361/291
f 244/305/244 292/362/292 291/361/291 290/363/290
f 41/44/41 44/47/44 291/361/291 292/362/292
f 245/306/245 248/309/248 292/362/292 244/305/244
f 256/317/256 41/44/41 292/362/292 248/309/248
f 51/58/51 54/57/54 290/363/290 289/364/289
f 242/303/242 244/305/244 290/363/290 54/57/54
f 48/51/48 51/54/51 289/357/289 288/356/288
f 293/365/293 48/51/48 288/356/288 36/39/36
f 33/36/33 36/39/36 288/356/288 286/353/286
f 62/67/62 61/66/61 293/365/293 294/366/294
f 49/52/49 48/51/48 293/365/293 61/66/61
f 37/40/37 294/366/294 293/365/293 36/39/36
f 69/74/69 62/67/62 294/366/294 295/367/295
f 38/41/38 295/367/295 294/366/294 37/40/37
f 84/96/84 69/74/69 295/367/295 296/368/296
f 297/369/297 296/368/296 295/367/295 38/41/38
f 39/42/39 58/63/58 297/369/297 38/41/38
f 298/370/298 299/371/299 297/369/297 58/63/58
f 300/372/300 296/368/296 297/369/297 299/371/299
f 84/96/84 296/368/296 300/372/300 85/373/85
f 301/374/301 302/375/302 300/376/300 299/377/299
f 303/378/303 85/97/85 300/376/300 302/375/302
f 77/87/77 85/97/85 303/378/303 304/379/304
f 305/380/305 306/381/306 303/378/303 302/375/302
f 307/382/307 304/379/304 303/378/303 306/381/306
f 308/383/308 304/379/304 307/382/307 309/384/309
f 310/385/310 311/386/311 307/382/307 306/381/306
f 312/387/312 309/384/309 307/382/307 311/386/311
f 313/388/313 314/389/314 312/390/312 315/391/315
f 316/392/316 309/384/309 312/387/312 314/393/314
f 317/394/317 318/395/318 316/392/316 314/393/314
f 319/396/319 320/397/320 316/392/316 318/395/318
f 308/383/308 309/384/309 316/392/316 320/397/320
f 321/398/321 81/91/81 320/397/320 319/396/319
f 78/88/78 308/383/308 320/397/320 81/91/81
f 322/399/322 323/400/323 321/398/321 319/396/319
f 324/401/324 86/402/86 321/398/321 323/400/323
f 82/92/82 81/91/81 321/398/321 86/402/86
f 95/112/95 325/403/325 324/404/324 323/405/323
f 65/70/65 66/71/66 324/404/324 325/403/325
f 67/72/67 86/99/86 324/404/324 66/71/66
f 1/1/1 4/4/4 325/403/325 95/112/95
f 5/5/5 65/70/65 325/403/325 4/4/4
f 94/406/94 95/407/95 323/400/323 322/399/322
f 114/408/114 94/406/94 322/399/322 326/409/326
f 318/395/318 326/409/326 322/399/322 319/396/319
f 327/410/327 114/137/114 326/411/326 328/412/328
f 317/413/317 328/412/328 326/411/326 318/414/318
f 329/415/329 330/416/330 327/410/327 331/417/331
f 113/136/113 114/137/114 327/410/327 330/416/330
f 332/418/332 331/417/331 327/410/327 328/412/328
f 205/255/205 331/417/331 332/418/332 204/254/204
f 317/413/317 333/419/333 332/418/332 328/412/328
f 201/251/201 204/254/204 332/418/332 333/419/333
f 314/389/314 313/388/313 333/419/333 317/413/317
f 334/420/334 201/251/201 333/419/333 313/388/313
f 202/252/202 201/251/201 334/420/334 212/268/212
f 315/391/315 335/421/335 334/420/334 313/388/313
f 336/422/336 212/268/212 334/420/334 335/421/335
f 213/269/213 212/268/212 336/422/336 215/271/215
f 337/423/337 338/424/338 336/425/336 335/426/335
f 339/427/339 215/271/215 336/422/336 338/428/338
f 216/272/216 215/271/215 339/427/339 218/274/218
f 340/429/340 341/430/341 339/431/339 338/424/338
f 220/276/220 218/274/218 339/427/339 341/432/341
f 342/433/342 343/434/343 341/430/341 340/429/340
f 177/435/177 220/276/220 341/432/341 343/436/343
f 344/437/344 345/438/345 343/434/343 342/433/342
f 173/221/173 177/226/177 343/434/343 345/438/345
f 179/229/179 178/228/178 345/438/345 344/437/344
f 174/222/174 173/221/173 345/438/345 178/228/178
f 346/439/346 347/440/347 344/437/344 342/433/342
f 182/232/182 179/229/179 344/437/344 347/440/347
f 348/441/348 349/442/349 347/440/347 346/439/346
f 350/443/350 182/232/182 347/440/347 349/442/349
f 351/444/351 352/445/352 350/443/350 349/442/349
f 353/446/353 354/447/354 350/443/350 352/445/352
f 183/233/183 182/232/182 350/443/350 354/447/354
f 273/334/273 275/336/275 354/447/354 353/446/353
f 184/234/184 183/233/183 354/447/354 275/336/275
f 355/448/355 356/449/356 353/446/353 352/445/352
f 276/337/276 273/334/273 353/446/353 356/449/356
f 357/450/357 358/451/358 356/449/356 355/448/355
f 359/452/359 276/337/276 356/449/356 358/451/358
f 59/64/59 60/65/60 359/453/359 358/454/358
f 34/37/34 279/340/279 359/453/359 60/65/60
f 277/343/277 276/455/276 359/453/359 279/340/279
f 298/456/298 59/457/59 358/451/358 357/450/357
f 299/377/299 298/456/298 357/450/357 301/374/301
f 360/458/360 301/374/301 357/450/357 355/448/355
f 302/375/302 301/374/301 360/458/360 305/380/305
f 352/445/352 351/444/351 360/458/360 355/448/355
f 361/459/361 305/380/305 360/458/360 351/444/351
f 306/381/306 305/380/305 361/459/361 310/385/310
f 349/442/349 348/441/348 361/459/361 351/444/351
f 362/460/362 310/385/310 361/459/361 348/441/348
f 311/386/311 310/385/310 362/460/362 363/461/363
f 346/439/346 364/462/364 362/460/362 348/441/348
f 337/423/337 363/461/363 362/460/362 364/462/364
f 338/424/338 337/423/337 364/462/364 340/429/340
f 342/433/342 340/429/340 364/462/364 346/439/346
f 335/426/335 315/463/315 363/461/363 337/423/337
f 312/387/312 311/386/311 363/461/363 315/463/315
f 365/464/365 102/122/102 330/416/330 329/415/329
f 96/113/96 113/136/113 330/416/330 102/122/102
f 366/465/366 367/466/367 365/464/365 368/467/368
f 101/120/101 102/122/102 365/464/365 367/466/367
f 369/468/369 368/467/368 365/464/365 329/415/329
f 185/235/185 368/467/368 369/468/369 210/266/210
f 331/417/331 205/255/205 369/468/369 329/415/329
f 206/256/206 210/266/210 369/468/369 205/255/205
f 370/469/370 371/470/371 367/466/367 366/465/366
f 100/119/100 101/120/101 367/466/367 371/470/371
f 199/249/199 160/203/160 371/470/371 370/469/370
f 132/159/132 100/119/100 371/470/371 160/203/160
f 198/248/198 199/249/199 370/469/370 189/239/189
f 188/238/188 189/239/189 370/469/370 366/465/366
f 185/235/185 188/238/188 366/465/366 368/467/368
f 77/87/77 304/379/304 308/383/308 78/88/78
f 57/62/57 59/64/59 298/370/298 58/63/58
f 31/34/31 30/33/30 281/344/281 280/341/280
f 34/37/34 31/34/31 280/341/280 279/340/279
f 181/231/181 184/234/184 272/333/272 175/223/175
f 42/45/42 255/316/255 262/323/262 47/50/47
f 42/45/42 41/44/41 256/317/256 255/316/255
f 133/160/133 136/163/136 251/312/251 250/311/250
f 233/294/233 229/290/229 250/311/250 246/307/246
f 231/292/231 133/160/133 250/311/250 229/290/229
f 177/435/177 176/224/176 221/277/221 220/276/220
f 186/236/186 185/235/185 210/266/210 211/267/211
f 154/204/154 160/203/160 199/249/199 200/250/200
f 189/239/189 190/240/190 197/247/197 198/248/198
f 175/223/175 174/222/174 178/228/178 181/231/181
f 142/176/142 143/179/143 156/198/156 155/197/155
f 116/173/116 142/176/142 155/197/155 121/265/121
f 92/106/92 119/143/119 130/259/130 93/109/93
f 15/18/15 14/17/14 112/471/112 108/472/108
f 87/101/87 90/104/90 112/471/112 14/17/14
f 25/28/25 15/18/15 108/472/108 76/84/76
f 87/101/87 372/473/372 99/118/99 88/102/88
f 22/25/22 24/27/24 99/118/99 372/473/372
f 14/17/14 11/14/11 372/473/372 87/101/87
f 10/13/10 22/25/22 372/473/372 11/14/11
f 23/26/23 373/474/373 98/116/98 24/27/24
f 8/12/8 7/475/7 98/116/98 373/474/373
f 20/23/20 374/476/374 373/474/373 23/26/23
f 9/11/9 8/12/8 373/474/373 374/476/374
f 17/20/17 27/30/27 374/476/374 20/23/20
f 28/31/28 9/11/9 374/476/374 27/30/27
f 52/55/52 64/69/64 65/70/65 5/5/5
f 52/55/52 49/52/49 61/66/61 64/69/64
f 35/38/35 34/37/34 60/65/60 56/61/56
f 50/59/50 70/75/70 240/301/240 55/60/55
f 72/86/72 29/32/29 26/29/26 25/28/25
f 128/477/128 127/169/127 141/168/141 105/202/105
f 150/191/150 107/130/107 106/128/106
f 157/199/157 159/201/159 158/200/158
