# split from a merged terrain OBJ by scripts/split-terrain-obj-parts.py
o part-006
v 0.495444 0.064434 -0.020402
v 0.493169 0.070572 -0.019776
v 0.498367 0.069447 -0.011876
v 0.499925 0.063701 -0.011180
v 0.494470 0.064027 -0.003739
v 0.491378 0.070440 -0.007398
v 0.486648 0.072641 -0.015214
v 0.487215 0.058203 -0.000854
v 0.481486 0.055279 0.002036
v 0.486269 0.047953 -0.000387
v 0.493053 0.057050 -0.003902
v 0.498032 0.055959 -0.010881
v 0.495946 0.047175 -0.009801
v 0.470829 0.051146 0.012390
v 0.473269 0.043484 0.012137
v 0.495357 0.036275 -0.008460
v 0.486111 0.035781 -0.000216
v 0.474690 0.033649 0.011081
v 0.494446 0.025298 -0.007461
v 0.491071 0.014703 -0.010839
v 0.495107 0.017345 -0.019057
v 0.496877 0.025864 -0.018558
v 0.481308 0.011376 -0.018746
v 0.486688 0.015873 -0.026280
v 0.488637 0.026282 -0.028715
v 0.472883 0.069331 -0.032886
v 0.469715 0.066052 -0.030051
v 0.475155 0.065253 -0.019525
v 0.480497 0.070245 -0.024121
v 0.467771 0.060707 -0.029893
v 0.473568 0.058398 -0.020642
v 0.479416 0.070028 -0.011144
v 0.470473 0.066180 -0.003629
v 0.468460 0.063265 -0.007271
v 0.467801 0.057179 -0.008381
v 0.485979 0.062776 -0.001360
v 0.478118 0.060389 0.002504
v 0.452552 0.069500 -0.049868
v 0.449408 0.067853 -0.046411
v 0.460706 0.068242 -0.037315
v 0.463684 0.069299 -0.041344
v 0.447873 0.063099 -0.046206
v 0.458617 0.062559 -0.037737
v 0.468755 0.027683 -0.057524
v 0.467093 0.034514 -0.059514
v 0.467897 0.038025 -0.048201
v 0.469255 0.028314 -0.047371
v 0.476147 0.027775 -0.036384
v 0.477723 0.037373 -0.036466
v 0.477674 0.047084 -0.035639
v 0.465874 0.047357 -0.043945
v 0.461318 0.036358 -0.063876
v 0.456990 0.040212 -0.055423
v 0.454644 0.046656 -0.052027
v 0.475214 0.017676 -0.093404
v 0.474080 0.018802 -0.097197
v 0.480481 0.018112 -0.094940
v 0.479945 0.019224 -0.091500
v 0.479608 0.024184 -0.093040
v 0.480019 0.021351 -0.097713
v 0.474398 0.023622 -0.097962
v 0.466882 0.021938 -0.092509
v 0.471090 0.018679 -0.089324
v 0.476777 0.020649 -0.087732
v 0.476170 0.026123 -0.094470
v 0.468487 0.027060 -0.093178
v 0.473493 0.028250 -0.090951
v 0.477692 0.025585 -0.088525
v 0.476633 0.027138 -0.084333
v 0.475805 0.021269 -0.082853
v 0.477823 0.028496 -0.080277
v 0.480604 0.023275 -0.079732
v 0.468156 0.020395 -0.083704
v 0.480130 0.019634 -0.075850
v 0.472937 0.019188 -0.077268
v 0.466391 0.022095 -0.077590
v 0.493120 0.021253 -0.075134
v 0.491609 0.022344 -0.077913
v 0.498409 0.021823 -0.081562
v 0.498544 0.021309 -0.079661
v 0.498306 0.026100 -0.081105
v 0.495533 0.025529 -0.082904
v 0.490916 0.026116 -0.080058
v 0.498598 0.025738 -0.078188
v 0.499807 0.022988 -0.076236
v 0.494848 0.027470 -0.074049
v 0.494934 0.023513 -0.072911
v 0.493168 0.029493 -0.077284
v 0.485054 0.025730 -0.077887
v 0.485731 0.021698 -0.075504
v 0.479879 0.029925 -0.075863
v 0.487140 0.030000 -0.072933
v 0.480976 0.030745 -0.070279
v 0.463783 0.024613 -0.084871
v 0.463666 0.026338 -0.077147
v 0.465310 0.029943 -0.075442
v 0.465429 0.029543 -0.085061
v 0.457862 0.027266 -0.072291
v 0.456827 0.033598 -0.069762
v 0.473601 0.031769 -0.073106
v 0.472048 0.031332 -0.078305
v 0.467288 0.032521 -0.069920
v 0.471439 0.030368 -0.084938
v 0.473077 0.023300 -0.066000
v 0.467324 0.024251 -0.064906
v 0.463767 0.024013 -0.069728
v 0.471500 0.020376 -0.071024
v 0.462001 0.022201 -0.057392
v 0.452738 0.021633 -0.059881
v 0.445254 0.028341 -0.061881
v 0.459776 0.021070 -0.046727
v 0.472980 0.018123 -0.034859
v 0.445278 0.020445 -0.054259
v 0.459952 0.050059 -0.028433
v 0.457441 0.053610 -0.024686
v 0.459911 0.049607 -0.019703
v 0.461510 0.045717 -0.020431
v 0.457829 0.044647 -0.014021
v 0.456928 0.049638 -0.015790
v 0.453933 0.053752 -0.020137
v 0.449163 0.053543 -0.017256
v 0.450245 0.050472 -0.012810
v 0.444811 0.058016 -0.027687
v 0.440913 0.056667 -0.021338
v 0.437790 0.054086 -0.014371
v 0.445801 0.036951 -0.061294
v 0.442869 0.047309 -0.061258
v 0.429863 0.049482 -0.071583
v 0.428486 0.039739 -0.070744
v 0.426828 0.027273 -0.070882
v 0.437632 0.047833 -0.048342
v 0.431772 0.044637 -0.052590
v 0.426886 0.046488 -0.049396
v 0.434038 0.048869 -0.045284
v 0.426854 0.041205 -0.054426
v 0.423479 0.042517 -0.049584
v 0.420010 0.043413 -0.051959
v 0.421815 0.047314 -0.054526
v 0.429608 0.051746 -0.044249
v 0.423932 0.050620 -0.048520
v 0.419050 0.051604 -0.052674
v 0.415079 0.036684 -0.056903
v 0.421390 0.039581 -0.056371
v 0.419306 0.048060 -0.057894
v 0.414112 0.042523 -0.054724
v 0.424845 0.047506 -0.058361
v 0.422066 0.056870 -0.061417
v 0.415776 0.056607 -0.060077
v 0.435508 0.019973 -0.058288
v 0.414503 0.053062 -0.054737
v 0.406544 0.056592 -0.056801
v 0.420362 0.050246 -0.047425
v 0.425003 0.052258 -0.041171
v 0.418643 0.044529 -0.048171
v 0.420853 0.045473 -0.042340
v 0.438155 0.056132 -0.039893
v 0.434457 0.058624 -0.035406
v 0.419412 0.046345 -0.036589
v 0.423123 0.052403 -0.033947
v 0.430485 0.059271 -0.027994
v 0.413216 0.045852 -0.052270
v 0.407750 0.046057 -0.055353
v 0.408185 0.041455 -0.056065
v 0.410314 0.035425 -0.056121
v 0.415435 0.050066 -0.051321
v 0.420937 0.041252 -0.048185
v 0.417591 0.042096 -0.043368
v 0.454604 0.051136 0.000666
v 0.435428 0.052218 0.005914
v 0.438058 0.058363 0.006321
v 0.454868 0.056648 0.001993
v 0.425625 0.053799 0.010947
v 0.435784 0.060673 0.011987
v 0.455177 0.061290 0.003635
v 0.447472 0.003952 0.018282
v 0.439541 0.009244 0.012070
v 0.444155 0.012919 -0.004568
v 0.456971 0.010980 -0.000943
v 0.461965 0.011696 -0.015336
v 0.443338 0.010287 -0.018156
v 0.416745 0.006507 -0.014627
v 0.425457 0.016285 -0.000644
v 0.416730 0.008724 0.014249
v 0.413934 0.063848 -0.060426
v 0.405448 0.064710 -0.057623
v 0.410306 0.050765 -0.054723
v 0.401098 0.051179 -0.055750
v 0.445587 0.015243 -0.034358
v 0.436659 0.017822 -0.044485
v 0.418217 0.009150 -0.035033
v 0.423336 0.015357 -0.043562
v 0.413269 0.062458 0.081310
v 0.407055 0.059797 0.086796
v 0.412847 0.057995 0.093464
v 0.419906 0.059248 0.090227
v 0.419336 0.048185 0.093981
v 0.409920 0.050474 0.098018
v 0.401233 0.051042 0.090839
v 0.414315 0.037360 -0.050375
v 0.411837 0.039955 -0.045521
v 0.409927 0.035354 -0.051281
v 0.406872 0.034481 -0.055666
v 0.406567 0.034699 -0.052310
v 0.402620 0.038877 -0.055273
v 0.403428 0.037245 -0.050885
v 0.424369 0.006584 0.032122
v 0.423967 0.053114 0.018693
v 0.418890 0.046496 0.020646
v 0.422264 0.048039 0.031607
v 0.426767 0.050637 0.036319
v 0.418970 0.046501 0.048847
v 0.411961 0.045637 0.037076
v 0.407159 0.038568 -0.048105
v 0.438586 0.061259 0.021758
v 0.423462 0.050484 0.005684
v 0.417806 0.050014 0.007235
v 0.413170 0.047581 0.009000
v 0.398475 0.044582 -0.053935
v 0.399253 0.040415 -0.047294
v 0.391607 0.051878 -0.048573
v 0.390656 0.045965 -0.045813
v 0.394228 0.043129 -0.041103
v 0.412857 0.005460 -0.049824
v 0.416280 0.013534 -0.059224
v 0.407586 0.049735 0.055196
v 0.403902 0.044633 0.045764
v 0.411598 0.044558 0.024172
v 0.406076 0.046288 0.025679
v 0.403589 0.046158 0.034283
v 0.409994 0.057604 0.059583
v 0.421117 0.055666 0.053977
v 0.399756 0.057229 0.049149
v 0.396507 0.062696 0.054591
v 0.427852 0.057191 0.063076
v 0.418958 0.058143 0.072452
v 0.394471 0.002797 -0.035056
v 0.400869 0.004527 -0.054530
v 0.407213 0.010116 -0.068648
v 0.390053 0.007897 -0.021480
v 0.376772 0.006459 -0.006006
v 0.396410 0.004691 0.002718
v 0.415215 0.027652 -0.080433
v 0.413768 0.014668 -0.077449
v 0.404082 0.016272 -0.081449
v 0.403798 0.028323 -0.082592
v 0.398168 0.012722 -0.073532
v 0.395594 0.025675 -0.074786
v 0.395308 0.023368 0.090677
v 0.396270 0.011874 0.088739
v 0.403193 0.013297 0.095323
v 0.403619 0.023033 0.097487
v 0.412677 0.022722 0.094854
v 0.410308 0.011339 0.092823
v 0.403368 0.005306 0.084570
v 0.400985 0.043909 -0.022344
v 0.394023 0.044125 -0.027411
v 0.387724 0.043907 -0.013619
v 0.399337 0.045746 -0.003433
v 0.380509 0.033010 -0.007519
v 0.382070 0.038400 -0.004679
v 0.385639 0.038111 -0.021443
v 0.384531 0.043633 0.000733
v 0.388542 0.048029 0.000711
v 0.389618 0.043661 -0.031680
v 0.401659 0.008508 0.040246
v 0.393756 0.009528 0.024229
v 0.406915 0.043447 -0.020375
v 0.405845 0.045892 -0.003893
v 0.396236 0.050369 0.007927
v 0.408679 0.044659 0.010748
v 0.404406 0.045134 0.013021
v 0.401746 0.050727 0.015760
v 0.379028 0.039779 0.008744
v 0.379546 0.048620 0.010708
v 0.386736 0.054591 0.016023
v 0.403033 0.052791 0.025501
v 0.398979 0.051352 0.039357
v 0.391228 0.062568 0.041624
v 0.393233 0.058692 0.034928
v 0.395386 0.055594 0.021292
v 0.394593 0.050519 0.080165
v 0.391918 0.037804 0.079652
v 0.397669 0.037212 0.090878
v 0.380108 0.053788 0.068870
v 0.381010 0.041403 0.065899
v 0.379386 0.026414 0.063409
v 0.389754 0.023573 0.076899
v 0.374453 0.029941 0.006531
v 0.374975 0.033896 0.017387
v 0.379535 0.035877 0.015732
v 0.378311 0.033555 0.007533
v 0.373610 0.040658 0.022731
v 0.375974 0.041798 0.017806
v 0.384443 0.057767 0.030920
v 0.385667 0.063255 0.036302
v 0.385300 0.064148 0.043998
v 0.381364 0.064612 0.037413
v 0.378820 0.057931 0.035965
v 0.374877 0.061956 0.042481
v 0.360870 0.039282 0.007241
v 0.364792 0.040314 0.015896
v 0.366433 0.034218 0.015005
v 0.364226 0.032553 0.006862
v 0.368580 0.039932 0.021697
v 0.370534 0.032340 0.018019
v 0.369615 0.029950 0.006020
v 0.374739 0.051414 0.021339
v 0.372118 0.051169 0.025372
v 0.363700 0.055104 0.035417
v 0.371365 0.057052 0.049334
v 0.368225 0.055575 0.031039
v 0.390457 0.003711 0.045589
v 0.380297 0.001336 0.021531
v 0.367085 0.048951 0.021399
v 0.364589 0.054794 0.022543
v 0.359265 0.046298 0.006293
v 0.357431 0.050960 0.004699
v 0.360304 0.055818 0.013495
v 0.363735 0.048655 0.014812
v 0.351785 0.066850 0.016226
v 0.358252 0.060867 0.018859
v 0.352690 0.060868 0.008306
v 0.352800 0.053931 0.002435
v 0.358048 0.056938 0.026189
v 0.342460 0.066762 0.015507
v 0.342832 0.063770 0.022532
v 0.349917 0.063504 0.025322
v 0.339472 0.055787 0.023286
v 0.345430 0.054195 0.028674
v 0.352133 0.051050 0.031115
v 0.363922 0.008291 0.036935
v 0.370326 0.003751 0.035237
v 0.372175 0.008408 0.050219
v 0.370080 0.010922 0.046513
v 0.376642 0.013300 0.060757
v 0.370906 0.016532 0.050035
v 0.382401 0.004990 0.053667
v 0.358806 0.049441 0.039471
v 0.337223 0.056117 0.016664
v 0.360677 0.001665 0.008816
v 0.356077 0.002113 0.022034
v 0.362334 0.017987 0.038182
v 0.361308 0.009318 -0.012657
v 0.350180 0.008501 0.001105
v 0.340808 0.007901 0.007568
v 0.347182 0.002544 0.010390
v 0.344541 0.003068 0.018470
v 0.336357 0.007194 0.016249
v 0.342985 0.018438 0.028835
v 0.337036 0.018931 0.023247
v 0.337536 0.009578 0.023224
v 0.343537 0.007549 0.026768
v 0.334530 0.018894 0.015393
v 0.457288 0.062680 0.007087
v 0.462718 0.061474 0.010044
v 0.448918 0.060092 0.027018
v 0.439003 0.057195 0.046375
v 0.432445 0.055681 0.041219
v 0.434195 0.053645 0.069702
v 0.445161 0.053105 0.050097
v 0.456100 0.056084 0.030641
v 0.467551 0.057638 0.012101
v 0.447373 0.045038 0.051957
v 0.460869 0.047759 0.032746
v 0.447639 0.035735 0.052922
v 0.462808 0.038542 0.032994
v 0.446269 0.024880 0.053403
v 0.464056 0.028221 0.032094
v 0.445415 0.014966 0.053687
v 0.465832 0.017892 0.032180
v 0.473364 0.023630 0.008415
v 0.484110 0.024895 -0.001232
v 0.463384 0.008083 0.029720
v 0.471122 0.015645 0.005851
v 0.480852 0.015440 -0.003182
v 0.465540 0.010163 0.002321
v 0.473537 0.011166 -0.009602
v 0.467005 0.012031 -0.026781
v 0.454583 0.002552 0.023443
v 0.441368 0.007099 0.050613
v 0.432759 0.005224 0.043630
v 0.422504 0.008570 0.068890
v 0.412845 0.008096 0.057413
v 0.411799 0.005018 0.078104
v 0.401767 0.003635 0.065224
v 0.393380 0.004507 0.071016
v 0.388353 0.011948 0.075851
v 0.429479 0.014068 0.075055
v 0.417913 0.012440 0.085409
v 0.432213 0.025159 0.075302
v 0.420324 0.023456 0.087532
v 0.433028 0.036409 0.073117
v 0.421960 0.035954 0.085953
v 0.414940 0.035711 0.094452
v 0.426012 0.046979 0.084895
v 0.405939 0.036518 0.097358
v 0.425569 0.055212 0.080936
v 0.434986 0.045186 0.072203
v 0.474458 0.064504 0.000199
v 0.483355 0.067659 -0.004999
v 0.339085 0.031321 0.009652
v 0.338203 0.018853 0.008135
v 0.336034 0.031790 0.016030
v 0.338167 0.031765 0.022622
v 0.335517 0.043897 0.016463
v 0.337938 0.044135 0.022988
v 0.343156 0.031469 0.027891
v 0.343424 0.043527 0.027914
v 0.350322 0.031070 0.030192
v 0.350306 0.042290 0.031144
v 0.360928 0.030160 0.039326
v 0.360885 0.042346 0.038797
v 0.371361 0.028768 0.051606
v 0.371929 0.042258 0.052126
v 0.368930 0.052148 0.052895
v 0.381973 0.062865 0.067288
v 0.387664 0.063223 0.061044
v 0.398077 0.059120 0.077492
v 0.402781 0.062246 0.070876
v 0.351624 0.018193 0.029950
v 0.353492 0.007709 0.028990
v 0.340421 0.052580 0.009735
v 0.338991 0.042746 0.010096
v 0.344999 0.047502 0.001493
v 0.343793 0.040635 0.002173
v 0.344902 0.030955 0.002794
v 0.349513 0.039818 -0.011945
v 0.351784 0.031387 -0.011782
v 0.354137 0.021296 -0.012706
v 0.346031 0.019026 0.000995
v 0.363501 0.035948 -0.032337
v 0.365879 0.023989 -0.032582
v 0.372718 0.011911 -0.029485
v 0.377739 0.023525 -0.049334
v 0.381034 0.010336 -0.043379
v 0.388689 0.023541 -0.062707
v 0.391470 0.010002 -0.060312
v 0.395913 0.041125 -0.074421
v 0.386426 0.039931 -0.064418
v 0.375153 0.039005 -0.050553
v 0.386901 0.056016 -0.062179
v 0.374100 0.053232 -0.047823
v 0.361552 0.046051 -0.030621
v 0.371820 0.062511 -0.046188
v 0.361342 0.052260 -0.028129
v 0.349416 0.045929 -0.011811
v 0.360736 0.057787 -0.024559
v 0.353008 0.051779 -0.010536
v 0.348199 0.052837 0.000974
v 0.357075 0.052268 -0.008579
v 0.344618 0.059602 0.008048
v 0.367341 0.060546 -0.018130
v 0.362741 0.060724 -0.020039
v 0.360616 0.050107 -0.007542
v 0.378962 0.075064 -0.034516
v 0.374172 0.074480 -0.038937
v 0.371190 0.070364 -0.043341
v 0.387951 0.077482 -0.056068
v 0.384503 0.072691 -0.060438
v 0.384107 0.064995 -0.062589
v 0.395289 0.074133 -0.072237
v 0.395073 0.065989 -0.074139
v 0.396467 0.055446 -0.074256
v 0.406880 0.065380 -0.081546
v 0.405694 0.054280 -0.081889
v 0.404614 0.041893 -0.081100
v 0.417976 0.052105 -0.078651
v 0.416241 0.041299 -0.077563
v 0.431248 0.057693 -0.071456
v 0.419497 0.061786 -0.078311
v 0.444281 0.061117 -0.062931
v 0.443651 0.054369 -0.062799
v 0.432065 0.063866 -0.070668
v 0.420839 0.068252 -0.076014
v 0.431745 0.068981 -0.067742
v 0.421112 0.072213 -0.071555
v 0.408633 0.073354 -0.078895
v 0.410995 0.077838 -0.073492
v 0.420557 0.073040 -0.066434
v 0.412492 0.077158 -0.066235
v 0.398649 0.078651 -0.068124
v 0.402968 0.078308 -0.062478
v 0.413086 0.071511 -0.061154
v 0.404532 0.072300 -0.058761
v 0.391919 0.077295 -0.052086
v 0.393520 0.072583 -0.050216
v 0.392773 0.065612 -0.050378
v 0.381555 0.071032 -0.034725
v 0.381756 0.064267 -0.036709
v 0.392397 0.057999 -0.050120
v 0.383080 0.056361 -0.038210
v 0.370319 0.057927 -0.020383
v 0.373263 0.053539 -0.023206
v 0.375206 0.047489 -0.024795
v 0.383760 0.050086 -0.037342
v 0.377314 0.041765 -0.025076
v 0.364971 0.042058 -0.008845
v 0.366931 0.037029 -0.009748
v 0.371171 0.032343 -0.009661
v 0.381247 0.037462 -0.025348
v 0.376148 0.030186 -0.009048
v 0.385916 0.045053 -0.035506
v 0.362791 0.046933 -0.007906
v 0.420891 0.063075 -0.062711
v 0.420340 0.069154 -0.062856
v 0.428504 0.063120 -0.059582
v 0.428817 0.068382 -0.059942
v 0.430237 0.070839 -0.063118
v 0.438732 0.067809 -0.053923
v 0.441216 0.069850 -0.057598
v 0.443695 0.067118 -0.061741
v 0.455122 0.065929 -0.053232
v 0.455851 0.059757 -0.054045
v 0.465902 0.066065 -0.044811
v 0.466695 0.060198 -0.045948
v 0.466952 0.053571 -0.045386
v 0.455646 0.052902 -0.053608
v 0.478213 0.061471 -0.037174
v 0.478427 0.055137 -0.036884
v 0.487598 0.062981 -0.027992
v 0.488393 0.056639 -0.027808
v 0.488222 0.047697 -0.027543
v 0.495668 0.056951 -0.019682
v 0.495538 0.047548 -0.019596
v 0.496326 0.036706 -0.019226
v 0.488353 0.036898 -0.028002
v 0.485083 0.068471 -0.026976
v 0.476850 0.067615 -0.036298
v 0.437586 0.063069 -0.053569
v 0.446669 0.058696 -0.046219
v 0.437228 0.057767 -0.053153
v 0.429269 0.056628 -0.058402
v 0.437362 0.052616 -0.051587
v 0.430755 0.049930 -0.055674
v 0.444473 0.050545 -0.044689
v 0.445550 0.054434 -0.046093
v 0.453642 0.050797 -0.038592
v 0.455355 0.053944 -0.038653
v 0.456816 0.057955 -0.038368
v 0.463693 0.050740 -0.030154
v 0.465894 0.055432 -0.029984
v 0.468933 0.047283 -0.020791
v 0.470698 0.052215 -0.020565
v 0.464771 0.045518 -0.009186
v 0.466829 0.051444 -0.008721
v 0.453375 0.045705 -0.000713
v 0.461135 0.042088 -0.010754
v 0.450758 0.043883 -0.004880
v 0.435071 0.047423 -0.002339
v 0.435421 0.047202 0.004349
v 0.422636 0.049471 -0.003853
v 0.436099 0.050818 -0.008665
v 0.423595 0.052298 -0.013167
v 0.418049 0.049128 -0.017071
v 0.416269 0.048754 -0.004342
v 0.413079 0.044496 -0.019169
v 0.411464 0.047085 -0.004264
v 0.420213 0.051655 -0.026596
v 0.416184 0.045314 -0.029700
v 0.410804 0.043439 -0.032246
v 0.414170 0.043733 -0.038622
v 0.408497 0.042647 -0.040930
v 0.404733 0.044685 -0.034722
v 0.403370 0.041834 -0.043836
v 0.399113 0.044479 -0.037742
v 0.426583 0.056162 -0.020687
v 0.449793 0.046719 -0.009090
v 0.465015 0.043409 -0.020939
v 0.461647 0.048057 -0.030182
v 0.451060 0.052922 -0.036065
v 0.448505 0.056812 -0.032651
v 0.441684 0.052580 -0.042117
v 0.423735 0.018665 -0.067954
v 0.469868 0.028225 -0.063303
v 0.474931 0.028207 -0.064217
v 0.474770 0.031610 -0.068050
v 0.469538 0.032213 -0.065609
v 0.481211 0.028286 -0.065511
v 0.479888 0.023422 -0.066405
v 0.488058 0.023845 -0.068409
v 0.488396 0.028101 -0.069033
v 0.479201 0.020249 -0.070677
v 0.486465 0.021365 -0.071162
vt 0.130618 0.536676
vt 0.132745 0.533669
vt 0.135220 0.538203
vt 0.134373 0.540800
vt 0.139270 0.541921
vt 0.138502 0.537066
vt 0.135924 0.531472
vt 0.143123 0.544346
vt 0.145838 0.546051
vt 0.142608 0.551082
vt 0.139392 0.545284
vt 0.134121 0.544579
vt 0.133473 0.548760
vt 0.152878 0.548975
vt 0.151906 0.553867
vt 0.132905 0.554134
vt 0.140295 0.557347
vt 0.150217 0.559693
vt 0.130946 0.558970
vt 0.127068 0.562377
vt 0.122444 0.558613
vt 0.124179 0.555146
vt 0.120352 0.563538
vt 0.116451 0.557314
vt 0.117028 0.551670
vt 0.127104 0.523605
vt 0.129915 0.521905
vt 0.137542 0.525499
vt 0.131966 0.527620
vt 0.131940 0.519541
vt 0.138575 0.522632
vt 0.139507 0.531826
vt 0.145297 0.534055
vt 0.145315 0.531117
vt 0.146067 0.527890
vt 0.142771 0.541275
vt 0.146940 0.542521
vt 0.117973 0.513783
vt 0.120428 0.511530
vt 0.124596 0.517536
vt 0.122153 0.519519
vt 0.122742 0.509020
vt 0.127071 0.514831
vt 0.990156 0.084279
vt 0.985960 0.085564
vt 0.988550 0.077643
vt 0.993263 0.077257
vt 0.109733 0.547568
vt 0.105384 0.543316
vt 0.107614 0.537222
vt 0.113058 0.542335
vt 0.116216 0.536882
vt 0.111801 0.532081
vt 0.982016 0.087991
vt 0.981981 0.081206
vt 0.107773 0.527292
vt 0.105054 0.530534
vt 0.986158 0.111541
vt 0.988298 0.112644
vt 0.986534 0.113448
vt 0.985358 0.113499
vt 0.986307 0.115354
vt 0.987472 0.114557
vt 0.989211 0.114390
vt 0.989219 0.109915
vt 0.984695 0.109112
vt 0.983360 0.112372
vt 0.988159 0.115977
vt 0.992348 0.115012
vt 0.988023 0.117053
vt 0.985159 0.116344
vt 0.983446 0.115867
vt 0.980905 0.111607
vt 0.982695 0.117060
vt 0.979864 0.115768
vt 0.981650 0.106696
vt 0.977656 0.113596
vt 0.977483 0.108698
vt 0.978226 0.103715
vt 0.013205 0.405498
vt 0.012009 0.406308
vt 0.009148 0.402246
vt 0.010361 0.402500
vt 0.011076 0.398606
vt 0.009725 0.398746
vt 0.978075 0.123450
vt 0.977926 0.126777
vt 0.976156 0.127592
vt 0.976418 0.122607
vt 0.012305 0.400318
vt 0.012004 0.402077
vt 0.015087 0.402075
vt 0.014350 0.403974
vt 0.016057 0.400135
vt 0.979755 0.125073
vt 0.979686 0.127949
vt 0.978723 0.119593
vt 0.977361 0.117747
vt 0.982803 0.120248
vt 0.980516 0.122515
vt 0.984823 0.123067
vt 0.983144 0.103702
vt 0.979178 0.100226
vt 0.981470 0.097746
vt 0.984940 0.101260
vt 0.975845 0.095899
vt 0.977953 0.091671
vt 0.028884 0.404610
vt 0.031313 0.403116
vt 0.033666 0.406466
vt 0.030946 0.407626
vt 0.034112 0.401333
vt 0.036839 0.402692
vt 0.984257 0.093518
vt 0.970278 0.105894
vt 0.969656 0.102018
vt 0.973443 0.099904
vt 0.973804 0.107197
vt 0.963381 0.098745
vt 0.963109 0.095305
vt 0.968711 0.088580
vt 0.963014 0.101613
vt 0.955555 0.100311
vt 0.955758 0.095654
vt 0.108173 0.553849
vt 0.098242 0.549238
vt 0.959298 0.089402
vt 0.139020 0.511899
vt 0.141672 0.510173
vt 0.144837 0.512542
vt 0.144283 0.514379
vt 0.148586 0.516143
vt 0.148006 0.513145
vt 0.145901 0.509905
vt 0.149578 0.510026
vt 0.151762 0.513457
vt 0.143659 0.505201
vt 0.149094 0.505974
vt 0.154528 0.508861
vt 0.100417 0.526838
vt 0.103337 0.522036
vt 0.097802 0.516637
vt 0.094070 0.520055
vt 0.973688 0.083909
vt 0.402297 0.813318
vt 0.398921 0.820978
vt 0.394154 0.808361
vt 0.396888 0.802347
vt 0.131068 0.499736
vt 0.132087 0.495823
vt 0.135279 0.494972
vt 0.134138 0.498536
vt 0.132740 0.492760
vt 0.134724 0.491532
vt 0.012465 0.392713
vt 0.014864 0.390560
vt 0.017012 0.394176
vt 0.013787 0.394983
vt 0.137685 0.496347
vt 0.138097 0.493222
vt 0.017825 0.388301
vt 0.019595 0.392184
vt 0.007237 0.392424
vt 0.008831 0.389734
vt 0.013373 0.388592
vt 0.009969 0.392076
vt 0.129803 0.492954
vt 0.129331 0.490327
vt 0.132176 0.488552
vt 0.009622 0.383623
vt 0.011383 0.382695
vt 0.011471 0.388867
vt 0.403004 0.798981
vt 0.405237 0.802805
vt 0.396984 0.798146
vt 0.016890 0.385081
vt 0.016759 0.379283
vt 0.139749 0.492164
vt 0.141230 0.495895
vt 0.023880 0.389142
vt 0.027419 0.392512
vt 0.025126 0.394418
vt 0.021569 0.390833
vt 0.136837 0.500170
vt 0.141228 0.500495
vt 0.147973 0.493757
vt 0.147439 0.496330
vt 0.144487 0.492393
vt 0.147756 0.500462
vt 0.022338 0.385058
vt 0.024684 0.384788
vt 0.026896 0.387792
vt 0.730980 0.218768
vt 0.732883 0.217814
vt 0.735285 0.220446
vt 0.732743 0.221792
vt 0.735672 0.216076
vt 0.737799 0.216755
vt 0.019939 0.386816
vt 0.028147 0.388762
vt 0.026876 0.389462
vt 0.027253 0.390785
vt 0.155622 0.527538
vt 0.164835 0.523817
vt 0.164850 0.528196
vt 0.155089 0.531061
vt 0.169792 0.522313
vt 0.167467 0.529966
vt 0.154939 0.534286
vt 0.727614 0.076365
vt 0.713717 0.070439
vt 0.708184 0.063240
vt 0.717946 0.060943
vt 0.118610 0.569404
vt 0.130509 0.576893
vt 0.123254 0.578229
vt 0.111472 0.572417
vt 0.108198 0.580687
vt 0.119025 0.586084
vt 0.695648 0.074803
vt 0.695719 0.066990
vt 0.723355 0.229061
vt 0.720920 0.224215
vt 0.726340 0.222594
vt 0.726800 0.228720
vt 0.019157 0.382994
vt 0.019147 0.376683
vt 0.397402 0.792060
vt 0.411594 0.793107
vt 0.410293 0.797453
vt 0.425223 0.798092
vt 0.417153 0.800154
vt 0.742329 0.126029
vt 0.737396 0.123715
vt 0.739967 0.119118
vt 0.744387 0.118946
vt 0.741589 0.113288
vt 0.736501 0.114656
vt 0.731988 0.119344
vt 0.135066 0.490189
vt 0.133351 0.486101
vt 0.135183 0.486890
vt 0.736166 0.209137
vt 0.738703 0.207798
vt 0.739463 0.211610
vt 0.737190 0.212523
vt 0.735653 0.213362
vt 0.734361 0.215119
vt 0.734391 0.213417
vt 0.732152 0.214357
vt 0.732984 0.211899
vt 0.715101 0.078807
vt 0.754327 0.159250
vt 0.749924 0.160186
vt 0.753435 0.152497
vt 0.756665 0.148211
vt 0.751024 0.145200
vt 0.747663 0.153865
vt 0.734353 0.210361
vt 0.173633 0.524881
vt 0.169066 0.535073
vt 0.168106 0.517678
vt 0.170232 0.516077
vt 0.747782 0.165868
vt 0.749899 0.165594
vt 0.729443 0.213897
vt 0.730798 0.209191
vt 0.729427 0.221096
vt 0.727506 0.217790
vt 0.723094 0.211261
vt 0.725490 0.207921
vt 0.728407 0.204939
vt 0.422239 0.805417
vt 0.414966 0.807870
vt 0.744557 0.144630
vt 0.743119 0.150679
vt 0.745640 0.160094
vt 0.741347 0.161871
vt 0.741195 0.156981
vt 0.743628 0.138772
vt 0.750430 0.139172
vt 0.735998 0.147852
vt 0.732847 0.144083
vt 0.752358 0.132413
vt 0.747013 0.129754
vt 0.435686 0.807199
vt 0.425693 0.811348
vt 0.416544 0.813801
vt 0.098531 0.563919
vt 0.096423 0.573418
vt 0.435805 0.793007
vt 0.443505 0.805710
vt 0.454601 0.805486
vt 0.450574 0.794586
vt 0.447059 0.782488
vt 0.437537 0.782763
vt 0.406627 0.822896
vt 0.410471 0.816071
vt 0.413666 0.821036
vt 0.412097 0.826723
vt 0.418504 0.819506
vt 0.418272 0.826777
vt 0.718792 0.107713
vt 0.716286 0.103071
vt 0.721392 0.099626
vt 0.725157 0.103683
vt 0.730695 0.100810
vt 0.724209 0.096744
vt 0.715940 0.097598
vt 0.732686 0.194552
vt 0.728518 0.196015
vt 0.727010 0.186227
vt 0.734269 0.180082
vt 0.716929 0.185628
vt 0.719085 0.182056
vt 0.722772 0.191799
vt 0.720915 0.177897
vt 0.725328 0.177240
vt 0.726019 0.198318
vt 0.703742 0.084748
vt 0.695775 0.091258
vt 0.163188 0.495893
vt 0.165336 0.493462
vt 0.171033 0.501239
vt 0.170909 0.505339
vt 0.731362 0.172705
vt 0.176338 0.500370
vt 0.176743 0.497169
vt 0.735709 0.167691
vt 0.740137 0.167917
vt 0.713696 0.174732
vt 0.716752 0.170582
vt 0.723497 0.167623
vt 0.736764 0.162105
vt 0.737069 0.154626
vt 0.727651 0.152184
vt 0.728976 0.156762
vt 0.730428 0.164670
vt 0.725656 0.124586
vt 0.718378 0.119735
vt 0.724733 0.113934
vt 0.716276 0.133397
vt 0.709990 0.128807
vt 0.703752 0.122720
vt 0.711980 0.114236
vt 0.709204 0.179075
vt 0.706863 0.173191
vt 0.709405 0.173194
vt 0.711606 0.177424
vt 0.706625 0.167971
vt 0.710147 0.169252
vt 0.720495 0.159196
vt 0.722008 0.154851
vt 0.722832 0.150271
vt 0.719009 0.153434
vt 0.715127 0.156002
vt 0.713306 0.150795
vt 0.700572 0.178273
vt 0.701418 0.171967
vt 0.703140 0.174072
vt 0.703837 0.180394
vt 0.704195 0.168342
vt 0.704864 0.172896
vt 0.706685 0.179741
vt 0.712440 0.164371
vt 0.707700 0.161698
vt 0.703176 0.153757
vt 0.710262 0.146004
vt 0.705886 0.156892
vt 0.699472 0.097829
vt 0.685796 0.107461
vt 0.460335 0.787239
vt 0.464180 0.794761
vt 0.703269 0.164403
vt 0.701744 0.161424
vt 0.697640 0.176185
vt 0.696234 0.175943
vt 0.697984 0.164794
vt 0.699847 0.168801
vt 0.474324 0.849509
vt 0.471764 0.852021
vt 0.469058 0.848730
vt 0.470949 0.846300
vt 0.467901 0.844983
vt 0.466473 0.847040
vt 0.697921 0.158977
vt 0.695762 0.163926
vt 0.476090 0.846585
vt 0.479440 0.846475
vt 0.482167 0.851425
vt 0.480698 0.842658
vt 0.484719 0.842265
vt 0.695297 0.152434
vt 0.693220 0.157975
vt 0.691446 0.153418
vt 0.686582 0.125173
vt 0.687284 0.119473
vt 0.693143 0.118936
vt 0.692000 0.122258
vt 0.698416 0.116635
vt 0.694741 0.124357
vt 0.697603 0.107756
vt 0.700079 0.149027
vt 0.476802 0.841896
vt 0.466214 0.807514
vt 0.473280 0.804740
vt 0.473338 0.793901
vt 0.689303 0.130299
vt 0.456775 0.815495
vt 0.466105 0.815866
vt 0.471924 0.816839
vt 0.471500 0.812078
vt 0.475641 0.810206
vt 0.476480 0.816161
vt 0.484809 0.820391
vt 0.480859 0.821922
vt 0.479983 0.816223
vt 0.481622 0.812675
vt 0.476981 0.822950
vt 0.154662 0.536841
vt 0.154215 0.540482
vt 0.166378 0.541686
vt 0.177198 0.543796
vt 0.178269 0.539991
vt 0.758816 0.141607
vt 0.764126 0.149833
vt 0.759005 0.135831
vt 0.753289 0.125400
vt 0.760008 0.131819
vt 0.165394 0.547088
vt 0.176759 0.547019
vt 0.153845 0.544473
vt 0.759965 0.120059
vt 0.768089 0.113386
vt 0.766830 0.123463
vt 0.164884 0.553230
vt 0.759138 0.112988
vt 0.766743 0.109992
vt 0.163812 0.559123
vt 0.754893 0.103835
vt 0.763549 0.101143
vt 0.162363 0.565599
vt 0.751358 0.095784
vt 0.762697 0.092595
vt 0.146190 0.565789
vt 0.160078 0.571631
vt 0.137365 0.562906
vt 0.154108 0.576488
vt 0.141641 0.570371
vt 0.134013 0.568314
vt 0.136053 0.574800
vt 0.126871 0.569454
vt 0.109598 0.562353
vt 0.147104 0.581539
vt 0.140585 0.584424
vt 0.743516 0.089126
vt 0.721954 0.083282
vt 0.738283 0.081488
vt 0.754452 0.083708
vt 0.727328 0.089731
vt 0.709836 0.088575
vt 0.720672 0.092592
vt 0.709135 0.094490
vt 0.707285 0.102413
vt 0.708118 0.108716
vt 0.739289 0.093814
vt 0.734539 0.096134
vt 0.745025 0.100765
vt 0.739796 0.101292
vt 0.750254 0.110651
vt 0.742883 0.108188
vt 0.736912 0.105584
vt 0.747298 0.115131
vt 0.730150 0.109482
vt 0.748100 0.121693
vt 0.752892 0.117494
vt 0.146570 0.538504
vt 0.141558 0.536537
vt 0.472626 0.829819
vt 0.472539 0.822841
vt 0.476659 0.829882
vt 0.480584 0.830162
vt 0.476619 0.836153
vt 0.480386 0.836547
vt 0.484189 0.829296
vt 0.484386 0.836510
vt 0.687678 0.141241
vt 0.691932 0.147639
vt 0.688552 0.149399
vt 0.684407 0.142778
vt 0.693186 0.137647
vt 0.697279 0.144547
vt 0.698956 0.130461
vt 0.703959 0.137183
vt 0.707384 0.142953
vt 0.721022 0.137016
vt 0.725617 0.140669
vt 0.730955 0.129253
vt 0.735611 0.133679
vt 0.683752 0.133957
vt 0.680098 0.135739
vt 0.676428 0.130082
vt 0.680370 0.127927
vt 0.672751 0.126406
vt 0.676046 0.124447
vt 0.472232 0.840328
vt 0.472528 0.835430
vt 0.467283 0.838663
vt 0.467730 0.834916
vt 0.467819 0.829353
vt 0.459874 0.834771
vt 0.459455 0.829700
vt 0.458459 0.823575
vt 0.466776 0.822387
vt 0.446913 0.831905
vt 0.446410 0.824704
vt 0.445868 0.816234
vt 0.435808 0.824751
vt 0.436858 0.816640
vt 0.426165 0.825480
vt 0.426072 0.817842
vt 0.417501 0.834786
vt 0.425332 0.834235
vt 0.435509 0.833750
vt 0.425000 0.842687
vt 0.435851 0.841604
vt 0.447953 0.837875
vt 0.436908 0.846375
vt 0.448961 0.841424
vt 0.459953 0.838319
vt 0.450655 0.844501
vt 0.459868 0.842253
vt 0.467045 0.842117
vt 0.460185 0.844926
vt 0.472183 0.844088
vt 0.695327 0.194761
vt 0.692630 0.194190
vt 0.693576 0.183882
vt 0.695498 0.185092
vt 0.452010 0.847093
vt 0.693103 0.176462
vt 0.698442 0.209095
vt 0.695243 0.210022
vt 0.437677 0.850590
vt 0.438470 0.853806
vt 0.425615 0.855497
vt 0.425305 0.851766
vt 0.425089 0.847633
vt 0.416037 0.852086
vt 0.415824 0.847589
vt 0.416276 0.842141
vt 0.407852 0.844816
vt 0.409172 0.839620
vt 0.410152 0.833894
vt 0.402118 0.834883
vt 0.402712 0.828716
vt 0.396289 0.826928
vt 0.394491 0.831567
vt 0.401289 0.839714
vt 0.108238 0.515758
vt 0.105777 0.518782
vt 0.100952 0.513668
vt 0.103397 0.511132
vt 0.097524 0.508196
vt 0.095386 0.509740
vt 0.722228 0.244776
vt 0.722329 0.247641
vt 0.717351 0.244025
vt 0.718560 0.240004
vt 0.407179 0.849868
vt 0.400721 0.843433
vt 0.713245 0.237799
vt 0.712879 0.242317
vt 0.720673 0.237114
vt 0.716317 0.234285
vt 0.415990 0.855648
vt 0.407708 0.854371
vt 0.712309 0.229799
vt 0.708301 0.231890
vt 0.720097 0.230954
vt 0.716157 0.226799
vt 0.703786 0.222687
vt 0.707353 0.221227
vt 0.710695 0.219443
vt 0.715007 0.216849
vt 0.702433 0.209050
vt 0.707814 0.207976
vt 0.719913 0.214127
vt 0.714486 0.206376
vt 0.698960 0.197447
vt 0.704320 0.198177
vt 0.709694 0.197504
vt 0.719051 0.203902
vt 0.715036 0.196161
vt 0.699780 0.188208
vt 0.703124 0.187912
vt 0.709098 0.188200
vt 0.719985 0.194558
vt 0.713210 0.186784
vt 0.722586 0.201523
vt 0.697199 0.186807
vt 0.725795 0.233607
vt 0.723654 0.235340
vt 0.726079 0.238153
vt 0.724569 0.240666
vt 0.723253 0.242335
vt 0.726766 0.246671
vt 0.725185 0.247298
vt 0.724555 0.249354
vt 0.115567 0.516879
vt 0.110536 0.512978
vt 0.111868 0.511088
vt 0.113116 0.520161
vt 0.104655 0.509640
vt 0.119498 0.521646
vt 0.116995 0.524755
vt 0.114232 0.528472
vt 0.110326 0.523880
vt 0.121806 0.529187
vt 0.119300 0.532604
vt 0.126440 0.532805
vt 0.124502 0.536495
vt 0.121212 0.541000
vt 0.128370 0.540446
vt 0.127188 0.545122
vt 0.125295 0.550253
vt 0.118711 0.546107
vt 0.129140 0.529603
vt 0.124422 0.525878
vt 0.727437 0.254534
vt 0.725517 0.255623
vt 0.729682 0.252344
vt 0.728067 0.245488
vt 0.125438 0.506937
vt 0.123398 0.502645
vt 0.125909 0.501329
vt 0.126123 0.496741
vt 0.123549 0.497435
vt 0.128539 0.500466
vt 0.129247 0.496366
vt 0.728350 0.232921
vt 0.728263 0.239025
vt 0.126133 0.493060
vt 0.130672 0.504122
vt 0.128026 0.505465
vt 0.132575 0.508902
vt 0.131000 0.510604
vt 0.128860 0.512448
vt 0.136120 0.514661
vt 0.134223 0.516995
vt 0.141962 0.518145
vt 0.140762 0.520367
vt 0.148404 0.521746
vt 0.147329 0.524980
vt 0.156092 0.523930
vt 0.149253 0.519209
vt 0.155279 0.520362
vt 0.161165 0.516332
vt 0.163631 0.520503
vt 0.164384 0.511003
vt 0.158103 0.511937
vt 0.159612 0.505213
vt 0.160434 0.501688
vt 0.166289 0.508691
vt 0.161635 0.498419
vt 0.167886 0.506552
vt 0.751190 0.168915
vt 0.748805 0.169719
vt 0.743824 0.166107
vt 0.746809 0.170440
vt 0.154193 0.497834
vt 0.153897 0.494601
vt 0.154528 0.492246
vt 0.149405 0.491764
vt 0.734760 0.205329
vt 0.732755 0.201283
vt 0.735759 0.200724
vt 0.737407 0.203504
vt 0.736290 0.194671
vt 0.732456 0.206822
vt 0.730356 0.202694
vt 0.146192 0.490554
vt 0.154259 0.502072
vt 0.153721 0.516762
vt 0.143206 0.515887
vt 0.137396 0.513018
vt 0.134795 0.507118
vt 0.138614 0.505514
vt 0.133179 0.502369
vt 0.406795 0.809760
vt 0.021730 0.381616
vt 0.966579 0.102765
vt 0.024087 0.412191
vt 0.025183 0.409203
vt 0.027160 0.411446
vt 0.026425 0.414487
vt 0.026562 0.406486
vt 0.028493 0.408921
vt 0.988301 0.088381
vt 0.986364 0.090674
vt 0.022652 0.406617
vt 0.023902 0.403215
vt 0.026828 0.401643
vt 0.021371 0.409365
vt 0.017901 0.406366
vt 0.019007 0.404129
vt 0.020088 0.401868
vt 0.019093 0.411506
vt 0.016479 0.407959
vt 0.974661 0.117468
vt 0.974187 0.112612
vt 0.014153 0.408183
vt 0.021955 0.414627
vt 0.029455 0.399870
vt 0.031732 0.398536
vt 0.984121 0.119141
vt 0.039553 0.397911
vt 0.036215 0.397718
vt 0.041491 0.398356
vt 0.040066 0.401497
vt 0.478415 0.854409
vn 0.8021 0.1395 -0.5806
vn 0.5173 0.7410 -0.4282
vn 0.7422 0.6657 0.0774
vn 0.9837 0.1256 0.1289
vn 0.5392 0.2403 0.8072
vn 0.2303 0.8225 0.5201
vn -0.0823 0.9964 0.0201
vn 0.4047 0.0593 0.9125
vn 0.5302 0.1762 0.8294
vn 0.6461 0.0145 0.7631
vn 0.6229 -0.1033 0.7754
vn 0.9647 -0.1718 0.1994
vn 0.9296 -0.0780 0.3602
vn 0.7232 0.3070 0.6187
vn 0.7834 0.1234 0.6091
vn 0.8846 -0.0103 0.4662
vn 0.6682 -0.0630 0.7413
vn 0.8165 -0.0442 0.5757
vn 0.8066 -0.2000 0.5562
vn 0.6002 -0.7252 0.3373
vn 0.8036 -0.5469 -0.2348
vn 0.9633 -0.1338 -0.2329
vn 0.2025 -0.9724 -0.1160
vn 0.4841 -0.6457 -0.5906
vn 0.6400 -0.1228 -0.7585
vn -0.0650 0.9979 0.0013
vn -0.5948 0.5958 0.5396
vn -0.7634 0.6445 0.0425
vn -0.1946 0.9765 -0.0928
vn -0.7223 0.2296 0.6523
vn -0.9513 0.2910 0.1015
vn -0.3649 0.9210 0.1366
vn -0.2733 0.9593 0.0710
vn -0.6765 0.5934 -0.4361
vn -0.7812 0.2463 -0.5737
vn 0.2606 0.3841 0.8857
vn 0.3983 0.4905 0.7750
vn 0.1130 0.9856 -0.1254
vn -0.4486 0.6622 0.6002
vn -0.4476 0.6641 0.5988
vn 0.0805 0.9918 -0.0989
vn -0.5912 0.1705 0.7883
vn -0.6123 0.1823 0.7693
vn 0.9335 -0.3452 0.0971
vn 0.7465 0.6575 -0.1019
vn 0.7599 0.3600 -0.5412
vn 0.8533 -0.3461 -0.3901
vn 0.6344 -0.2237 -0.7399
vn 0.6705 0.0680 -0.7388
vn 0.6360 -0.0013 -0.7717
vn 0.6192 0.0530 -0.7835
vn 0.1955 0.9187 -0.3432
vn 0.3891 0.6926 -0.6074
vn 0.5760 0.0802 -0.8135
vn -0.0811 -0.9939 0.0746
vn -0.2898 -0.6682 -0.6852
vn 0.7080 -0.6305 -0.3182
vn 0.7740 -0.5327 0.3423
vn 0.8451 0.5345 -0.0139
vn 0.6568 0.1050 -0.7467
vn -0.0820 0.3425 -0.9359
vn -0.7990 -0.3756 -0.4696
vn -0.2509 -0.9632 0.0964
vn 0.6492 -0.6120 0.4516
vn 0.3348 0.8482 -0.4104
vn -0.5021 0.5849 -0.6370
vn 0.2394 0.9211 -0.3070
vn 0.8640 0.4775 0.1594
vn 0.8161 0.5192 -0.2537
vn 0.5672 -0.8103 -0.1477
vn 0.5299 0.6570 -0.5362
vn 0.5760 -0.3005 -0.7602
vn -0.4077 -0.9125 0.0327
vn 0.2583 -0.9401 -0.2226
vn -0.0644 -0.9964 -0.0549
vn -0.5280 -0.8491 -0.0166
vn 0.1091 -0.9799 0.1671
vn -0.2620 -0.8066 -0.5299
vn 0.3001 -0.5210 -0.7991
vn 0.5602 -0.7857 -0.2624
vn 0.7043 0.5366 -0.4648
vn -0.0809 0.1713 -0.9819
vn -0.3807 0.2060 -0.9015
vn 0.8585 0.4941 0.1372
vn 0.8623 -0.2535 0.4385
vn 0.5815 0.6262 0.5194
vn 0.5740 -0.3268 0.7508
vn 0.1559 0.9670 -0.2013
vn 0.0987 0.2244 -0.9695
vn 0.1105 -0.8860 -0.4503
vn 0.2720 0.8614 -0.4289
vn 0.1600 0.9854 -0.0575
vn 0.2213 0.9681 0.1173
vn -0.9664 -0.2045 -0.1556
vn -0.9233 -0.2068 -0.3237
vn -0.3826 0.8209 -0.4239
vn -0.6296 0.7347 -0.2525
vn -0.6061 -0.2834 -0.7432
vn -0.3041 0.6400 -0.7056
vn 0.0911 0.9839 -0.1536
vn 0.0701 0.9754 -0.2092
vn 0.1132 0.9635 -0.2425
vn 0.1434 0.9648 -0.2203
vn 0.0046 -0.6747 0.7381
vn 0.1991 -0.9154 0.3499
vn -0.3278 -0.9386 -0.1077
vn -0.1949 -0.9391 0.2830
vn 0.3607 -0.9324 -0.0241
vn -0.0707 -0.9289 -0.3636
vn -0.0317 -0.4107 -0.9112
vn 0.3041 -0.9072 -0.2906
vn 0.3507 -0.7019 -0.6200
vn 0.0801 -0.9217 -0.3796
vn 0.6790 0.7255 -0.1119
vn 0.6101 0.7922 0.0128
vn 0.7777 0.5390 0.3234
vn 0.7063 0.6464 0.2887
vn 0.5368 0.6831 0.4952
vn 0.5646 0.5893 0.5779
vn 0.3466 0.8748 0.3385
vn 0.2100 0.8764 0.4333
vn 0.3108 0.7271 0.6121
vn 0.1877 0.9801 0.0639
vn 0.0972 0.9438 0.3159
vn 0.0608 0.8747 0.4809
vn 0.2304 0.3131 -0.9214
vn 0.5619 -0.0341 -0.8265
vn 0.5217 -0.0919 -0.8481
vn 0.5140 -0.0306 -0.8572
vn 0.5574 -0.2502 -0.7917
vn -0.4697 0.8768 0.1028
vn -0.5759 0.7962 0.1854
vn 0.1870 0.5746 -0.7968
vn 0.0593 0.7283 -0.6826
vn -0.5228 0.8169 0.2436
vn -0.2373 0.2610 -0.9357
vn 0.0946 -0.9201 -0.3800
vn 0.6810 -0.0026 -0.7323
vn 0.0548 0.7704 -0.6352
vn 0.2336 0.8881 -0.3959
vn 0.2855 0.9552 -0.0779
vn -0.2411 0.6688 0.7033
vn -0.2336 0.7544 0.6134
vn 0.5820 0.4274 0.6918
vn -0.0110 -0.5004 0.8657
vn -0.2551 0.3021 0.9185
vn -0.0905 0.2182 0.9717
vn 0.3389 0.3597 0.8693
vn 0.2843 -0.8618 -0.4201
vn 0.2046 0.7595 0.6175
vn 0.2889 0.2030 0.9356
vn -0.5401 0.7419 0.3974
vn -0.5168 0.8253 -0.2277
vn -0.8954 -0.2458 0.3712
vn -0.8312 0.5524 -0.0633
vn 0.1073 0.8094 -0.5774
vn -0.1262 0.9602 -0.2491
vn -0.6283 0.7357 -0.2531
vn -0.6622 0.7187 -0.2119
vn -0.2662 0.9629 0.0443
vn -0.4822 -0.2660 0.8347
vn -0.1218 -0.0725 0.9899
vn 0.0094 -0.1675 0.9858
vn -0.1820 0.6777 0.7125
vn -0.4320 0.4894 0.7576
vn -0.7302 0.5021 -0.4634
vn -0.4811 0.7743 -0.4112
vn -0.4336 0.2450 -0.8672
vn -0.2614 0.4574 -0.8500
vn -0.3119 0.4967 -0.8100
vn -0.4464 0.3319 -0.8310
vn -0.3873 0.8514 -0.3538
vn -0.3859 0.8600 -0.3339
vn -0.3743 0.7833 -0.4964
vn -0.0908 -0.9721 -0.2164
vn -0.1339 -0.9416 -0.3090
vn -0.0527 -0.9982 -0.0268
vn -0.0430 -0.9848 -0.1685
vn -0.0186 -0.9974 -0.0699
vn 0.0638 -0.9979 0.0072
vn 0.1565 -0.9865 0.0484
vn 0.1012 -0.9949 0.0011
vn 0.0731 -0.9952 -0.0645
vn 0.2986 0.1336 0.9450
vn 0.4140 0.1081 0.9038
vn -0.2336 0.2633 0.9360
vn 0.3162 0.0593 0.9468
vn 0.1075 -0.9517 -0.2877
vn 0.1498 -0.9454 -0.2894
vn 0.2700 -0.9547 -0.1248
vn 0.4024 -0.8730 -0.2756
vn 0.1407 0.9884 0.0577
vn -0.3799 0.8154 0.4368
vn -0.0290 0.6868 0.7263
vn 0.5235 0.6970 0.4901
vn 0.6262 0.0329 0.7789
vn -0.1123 0.2713 0.9559
vn -0.6819 0.3820 0.6238
vn -0.2850 0.8967 -0.3387
vn -0.0762 0.8567 -0.5101
vn -0.1309 0.9166 -0.3778
vn 0.2301 0.7757 0.5877
vn 0.2671 0.9281 -0.2594
vn 0.5711 0.3820 0.7266
vn 0.5291 0.8167 -0.2304
vn -0.1124 -0.9913 -0.0686
vn -0.5806 0.8074 0.1054
vn -0.4922 0.8599 0.1354
vn -0.4863 0.8713 0.0657
vn -0.5677 0.8227 -0.0307
vn -0.3774 0.8385 -0.3930
vn -0.0335 0.9986 -0.0415
vn 0.0837 0.8065 -0.5853
vn -0.2679 0.9599 0.0829
vn -0.0998 0.9550 -0.2794
vn -0.3971 0.9177 0.0090
vn -0.4243 0.8973 0.1217
vn 0.5677 0.3251 0.7564
vn 0.4293 0.8972 -0.1040
vn 0.7058 0.0933 0.7023
vn 0.6867 0.5481 0.4775
vn 0.2206 0.9753 0.0061
vn 0.4547 -0.8806 -0.1332
vn 0.4543 -0.8700 -0.1917
vn 0.2639 0.7113 -0.6514
vn 0.4549 0.8562 -0.2450
vn -0.0708 0.9974 -0.0121
vn 0.5606 0.8281 -0.0049
vn 0.5684 0.8085 0.1521
vn 0.1906 0.8778 -0.4395
vn -0.2620 0.8835 -0.3883
vn 0.6960 0.5837 -0.4183
vn 0.3256 0.9257 -0.1925
vn 0.1743 0.9837 0.0431
vn 0.2858 0.9546 -0.0840
vn -0.1269 -0.9919 0.0060
vn -0.0087 -0.9753 -0.2205
vn 0.1595 -0.9314 -0.3271
vn -0.1034 -0.9933 -0.0507
vn -0.0535 -0.9762 -0.2103
vn 0.1466 -0.9892 0.0034
vn 0.4415 -0.0809 -0.8936
vn 0.4024 -0.6707 -0.6231
vn -0.2068 -0.4829 -0.8509
vn -0.2492 -0.0182 -0.9683
vn -0.5086 -0.6447 -0.5706
vn -0.7598 -0.1013 -0.6422
vn -0.7900 0.0008 0.6131
vn -0.6483 -0.4757 0.5946
vn -0.2254 -0.4552 0.8614
vn -0.2127 -0.0826 0.9736
vn 0.5079 -0.1528 0.8478
vn 0.3288 -0.6008 0.7286
vn -0.0963 -0.9153 0.3912
vn 0.0201 0.9996 -0.0197
vn -0.2388 0.9702 -0.0411
vn -0.5107 0.8438 -0.1651
vn 0.1083 0.9815 -0.1578
vn -0.7370 0.6736 -0.0556
vn -0.8779 0.4284 -0.2138
vn -0.5823 0.8075 0.0943
vn -0.7458 0.5764 -0.3340
vn -0.2709 0.8915 -0.3632
vn -0.2117 0.9671 0.1411
vn 0.1476 -0.9831 -0.1085
vn 0.2386 -0.9709 0.0212
vn -0.0537 0.9964 -0.0654
vn -0.1038 0.9938 -0.0398
vn 0.3326 0.8845 -0.3272
vn -0.1172 0.9912 0.0614
vn 0.4458 0.8853 -0.1327
vn 0.6480 0.7184 -0.2530
vn -0.9593 0.1210 -0.2550
vn -0.7141 0.5491 -0.4342
vn -0.1692 0.9227 -0.3463
vn 0.7374 0.6754 0.0040
vn 0.7290 0.6784 -0.0911
vn 0.5084 0.8109 -0.2898
vn 0.4849 0.8327 -0.2673
vn 0.2738 0.9392 -0.2074
vn -0.7170 0.2690 0.6431
vn -0.8284 0.0612 0.5567
vn -0.7670 0.1404 0.6261
vn -0.7346 0.1472 0.6624
vn -0.7868 -0.0757 0.6126
vn -0.8148 0.0148 0.5796
vn -0.8474 0.0193 0.5306
vn -0.2781 0.9536 -0.1155
vn -0.4340 0.6807 -0.5902
vn -0.9097 0.2527 -0.3296
vn -0.8315 0.5298 -0.1673
vn -0.3583 0.2576 -0.8973
vn -0.8859 0.0401 -0.4621
vn -0.1539 0.8889 -0.4316
vn 0.1063 0.8542 -0.5089
vn 0.0542 0.9955 -0.0775
vn -0.2977 0.8616 -0.4112
vn -0.2546 0.8243 -0.5056
vn -0.3664 0.9242 -0.1081
vn 0.9497 0.2977 -0.0970
vn 0.8480 0.2273 -0.4788
vn 0.7034 0.5828 -0.4069
vn 0.7610 0.6478 -0.0353
vn 0.5118 0.3234 -0.7959
vn 0.2242 0.7835 -0.5796
vn 0.3130 0.9495 -0.0208
vn -0.6933 0.5792 -0.4288
vn -0.0622 0.7239 -0.6871
vn -0.4271 0.8772 0.2191
vn -0.6235 0.7474 0.2293
vn 0.0371 0.9556 -0.2924
vn 0.1429 -0.9888 -0.0425
vn 0.1116 -0.9937 0.0028
vn 0.7002 0.3365 -0.6296
vn 0.6109 0.7510 -0.2507
vn 0.9461 0.2926 -0.1391
vn 0.7960 0.5656 -0.2156
vn 0.7749 0.5159 -0.3652
vn 0.8651 0.2179 -0.4518
vn 0.3182 0.9410 -0.1155
vn 0.6697 0.7416 0.0394
vn 0.3549 0.7009 -0.6188
vn 0.2877 0.8615 -0.4184
vn 0.2169 0.8720 0.4389
vn -0.5070 0.8435 -0.1776
vn -0.5231 0.6647 0.5335
vn 0.0697 0.7275 0.6825
vn -0.7765 0.2706 0.5691
vn -0.3639 0.2566 0.8954
vn -0.3911 0.3415 0.8546
vn -0.6109 -0.5174 0.5992
vn -0.2725 -0.9202 0.2811
vn -0.6749 -0.5843 0.4507
vn -0.7895 -0.3744 0.4864
vn -0.7779 -0.3448 0.5254
vn -0.8432 -0.0974 0.5288
vn -0.3007 -0.9211 0.2473
vn -0.7289 0.2911 0.6196
vn -0.9531 0.2866 -0.0968
vn -0.0819 -0.9788 -0.1877
vn -0.1460 -0.9533 0.2643
vn -0.7096 -0.1533 0.6877
vn -0.4622 -0.7686 -0.4424
vn -0.4647 -0.6426 -0.6092
vn -0.6291 -0.5304 -0.5683
vn -0.2510 -0.9225 -0.2934
vn -0.3273 -0.9299 0.1681
vn -0.8282 -0.5595 -0.0316
vn -0.4391 -0.0458 0.8973
vn -0.8466 -0.0070 0.5322
vn -0.7630 -0.3898 0.5156
vn -0.3897 -0.5451 0.7423
vn -0.9946 -0.0148 -0.1031
vn -0.1049 0.9943 0.0209
vn 0.2130 0.9040 0.3708
vn 0.1664 0.9543 0.2484
vn 0.1362 0.9778 0.1593
vn -0.3759 0.9254 -0.0480
vn 0.6511 0.6509 0.3903
vn 0.6203 0.6631 0.4190
vn 0.5744 0.6949 0.4327
vn 0.5406 0.6224 0.5660
vn 0.8092 0.2062 0.5501
vn 0.7912 0.3185 0.5220
vn 0.8092 0.0164 0.5873
vn 0.8338 0.0998 0.5430
vn 0.7936 -0.0276 0.6078
vn 0.8456 0.0171 0.5335
vn 0.7184 -0.3409 0.6064
vn 0.8523 -0.1913 0.4868
vn 0.8254 -0.2449 0.5087
vn 0.6128 -0.2716 0.7421
vn 0.6707 -0.6747 0.3083
vn 0.6989 -0.6374 0.3244
vn 0.4740 -0.6964 0.5389
vn 0.2742 -0.9613 -0.0287
vn 0.1384 -0.9843 0.1098
vn 0.0643 -0.9538 -0.2934
vn 0.2072 -0.9782 -0.0120
vn 0.3665 -0.8440 0.3916
vn -0.0129 -0.9955 0.0938
vn 0.3326 -0.9196 0.2092
vn 0.1140 -0.9923 -0.0494
vn 0.2845 -0.9425 0.1751
vn 0.1027 -0.9938 -0.0423
vn -0.3380 -0.9094 0.2423
vn -0.7659 -0.4013 0.5024
vn 0.6668 -0.5000 0.5525
vn 0.5973 -0.5797 0.5542
vn 0.7742 -0.0811 0.6277
vn 0.7168 -0.1387 0.6833
vn 0.7958 -0.0516 0.6034
vn 0.7546 -0.1095 0.6470
vn 0.5417 -0.1083 0.8336
vn 0.8134 0.0150 0.5815
vn -0.1910 0.0376 0.9809
vn 0.7071 0.6320 0.3172
vn 0.8229 0.0874 0.5614
vn 0.1330 0.8284 0.5441
vn 0.0109 0.7940 0.6078
vn -0.8370 0.0391 -0.5457
vn -0.7981 -0.0377 -0.6014
vn -0.9963 0.0460 -0.0721
vn -0.8476 0.0320 0.5296
vn -0.9960 0.0546 -0.0710
vn -0.8386 0.0385 0.5434
vn -0.5144 0.0137 0.8574
vn -0.5435 0.0177 0.8392
vn -0.4596 -0.0340 0.8875
vn -0.5120 -0.0128 0.8589
vn -0.7067 -0.0520 0.7056
vn -0.7108 -0.0844 0.6984
vn -0.8114 -0.0139 0.5843
vn -0.7941 -0.1231 0.5952
vn -0.8340 0.1648 0.5266
vn -0.4861 0.7439 0.4586
vn -0.0938 0.9907 0.0989
vn -0.4015 0.7772 0.4846
vn 0.0742 0.9969 0.0248
vn -0.4127 -0.1159 0.9035
vn -0.3637 -0.5588 0.7453
vn -0.8088 0.2209 -0.5451
vn -0.8597 0.0435 -0.5089
vn -0.8458 0.2365 -0.4783
vn -0.8800 -0.0207 -0.4746
vn -0.8334 -0.0519 -0.5502
vn -0.8860 -0.0551 -0.4603
vn -0.8650 -0.1389 -0.4822
vn -0.8053 -0.2738 -0.5258
vn -0.7491 -0.1442 -0.6466
vn -0.8293 -0.1135 -0.5472
vn -0.7921 -0.3141 -0.5234
vn -0.5375 -0.7788 -0.3233
vn -0.7809 -0.2871 -0.5548
vn -0.6157 -0.7246 -0.3097
vn -0.7966 -0.2127 -0.5659
vn -0.5802 -0.6846 -0.4413
vn -0.7132 0.0271 -0.7004
vn -0.7739 -0.0203 -0.6329
vn -0.7951 -0.0580 -0.6036
vn -0.7586 -0.0491 -0.6497
vn -0.7986 -0.0205 -0.6015
vn -0.8356 -0.0099 -0.5492
vn -0.8318 0.0486 -0.5529
vn -0.8629 0.1437 -0.4845
vn -0.8730 0.2433 -0.4227
vn -0.8435 0.4949 -0.2089
vn -0.6670 0.7091 -0.2288
vn -0.5017 0.6786 -0.5364
vn -0.0538 0.9777 0.2033
vn -0.4436 0.5695 -0.6920
vn 0.2651 0.6392 0.7219
vn -0.4690 0.8199 0.3283
vn 0.6088 0.6512 0.4530
vn 0.2290 0.8056 0.5464
vn -0.4883 0.8718 0.0393
vn -0.8057 0.4712 -0.3589
vn -0.3312 0.9300 -0.1591
vn -0.6962 0.4917 -0.5231
vn -0.7656 0.0131 -0.6432
vn -0.5283 0.5303 -0.6630
vn -0.6408 0.0891 -0.7625
vn -0.6789 -0.0113 -0.7342
vn -0.1380 0.1560 -0.9781
vn -0.1932 -0.0203 -0.9810
vn -0.2268 0.0348 -0.9733
vn 0.3715 -0.0800 -0.9250
vn 0.3954 -0.0255 -0.9182
vn 0.5312 -0.0294 -0.8467
vn 0.3894 0.0808 -0.9175
vn 0.5770 0.1041 -0.8101
vn 0.5777 -0.1271 -0.8063
vn 0.5246 0.2447 -0.8154
vn 0.4433 0.3921 -0.8061
vn 0.4316 0.7159 -0.5488
vn 0.4563 0.7779 -0.4321
vn -0.0010 0.5366 -0.8438
vn 0.2048 0.8967 -0.3925
vn 0.3270 0.9003 0.2874
vn 0.3394 0.8802 0.3317
vn -0.2082 0.9389 -0.2739
vn 0.2364 0.8961 0.3757
vn 0.3294 0.4067 0.8521
vn 0.4524 0.3600 0.8160
vn 0.3007 0.8713 0.3878
vn 0.6729 0.2449 0.6980
vn 0.6613 0.0013 0.7501
vn 0.7459 0.1831 0.6404
vn 0.8065 -0.0258 0.5906
vn 0.6397 0.0215 0.7683
vn 0.8013 0.0844 0.5922
vn 0.7318 0.1872 0.6554
vn 0.8119 0.0916 0.5766
vn 0.7888 0.2053 0.5793
vn 0.7702 0.2615 0.5818
vn 0.6475 0.4671 0.6022
vn 0.8632 0.2549 0.4358
vn 0.7792 0.4482 0.4380
vn 0.5232 0.7591 0.3872
vn 0.0958 0.8430 0.5294
vn -0.0779 0.9705 0.2282
vn 0.4625 0.7314 0.5011
vn 0.8354 0.3076 0.4555
vn -0.0361 0.1125 0.9930
vn 0.0704 0.4225 0.9036
vn -0.4490 0.0972 0.8883
vn -0.3227 0.5025 0.8021
vn 0.0951 0.9829 0.1575
vn -0.4200 0.6029 0.6783
vn 0.0833 0.9964 -0.0179
vn 0.4832 0.5937 -0.6435
vn 0.5260 0.5224 -0.6712
vn 0.6033 0.0620 -0.7951
vn 0.4955 0.5534 -0.6695
vn 0.5961 0.0850 -0.7984
vn 0.5906 -0.1500 -0.7929
vn 0.5894 -0.1727 -0.7892
vn 0.6394 0.1403 -0.7559
vn 0.6311 -0.0811 -0.7715
vn 0.6746 0.1801 -0.7159
vn 0.7002 -0.0215 -0.7136
vn 0.6884 -0.0109 -0.7253
vn 0.8712 -0.0721 -0.4857
vn 0.9165 -0.0293 -0.3989
vn 0.9490 0.0198 -0.3148
vn 0.6752 0.0272 -0.7371
vn 0.4270 0.7110 -0.5588
vn 0.4746 0.6537 -0.5895
vn -0.5579 0.1396 0.8181
vn -0.5919 0.1586 0.7903
vn -0.5726 0.1576 0.8046
vn -0.4790 0.1600 0.8631
vn -0.5895 0.2956 0.7518
vn -0.5347 0.2794 0.7975
vn -0.3530 0.9120 0.2089
vn -0.5733 0.2882 0.7670
vn -0.1669 0.9199 0.3549
vn -0.5957 0.2823 0.7520
vn -0.6168 0.1807 0.7661
vn -0.6763 0.3743 0.6345
vn -0.7182 0.2622 0.6446
vn -0.8417 0.5141 0.1651
vn -0.9306 0.3458 0.1204
vn -0.6702 0.5766 -0.4673
vn -0.7837 0.2860 -0.5514
vn -0.2872 0.6587 -0.6954
vn -0.1004 0.9927 -0.0676
vn 0.1337 0.9908 0.0218
vn 0.1627 0.9764 0.1420
vn -0.0040 0.8232 -0.5677
vn -0.0611 0.9947 0.0832
vn 0.1090 0.8681 0.4844
vn -0.2714 0.9272 0.2581
vn -0.5801 0.8145 -0.0091
vn -0.3606 0.9319 -0.0379
vn -0.4239 0.8990 -0.1096
vn -0.3618 0.9303 -0.0596
vn -0.6884 0.7207 -0.0823
vn -0.5389 0.8336 -0.1213
vn -0.0973 0.9944 -0.0403
vn -0.2074 0.9392 -0.2735
vn 0.0430 0.9376 -0.3450
vn 0.0543 0.9956 -0.0769
vn 0.0781 0.8976 -0.4338
vn -0.0206 0.9832 -0.1814
vn -0.3512 0.9089 0.2249
vn 0.3381 0.7636 0.5500
vn -0.2016 0.9424 0.2668
vn -0.0804 0.8805 0.4672
vn 0.4274 0.7999 -0.4214
vn 0.3644 0.8864 -0.2855
vn 0.1615 0.7680 -0.6197
vn 0.5225 -0.7312 -0.4386
vn 0.7100 -0.0893 0.6985
vn 0.2240 0.2180 0.9499
vn 0.2036 0.9300 0.3060
vn 0.4937 0.8461 0.2010
vn 0.2858 0.3913 0.8747
vn 0.1660 -0.5484 0.8196
vn 0.4012 -0.4055 0.8214
vn 0.4409 0.5254 0.7277
vn 0.0966 -0.9322 0.3488
vn 0.1932 -0.9288 0.3162
f 1/1/1 2/2/2 3/3/3 4/4/4
f 5/5/5 4/4/4 3/3/3 6/6/6
f 7/7/7 6/6/6 3/3/3 2/2/2
f 8/8/8 9/9/9 10/10/10 11/11/11
f 12/12/12 11/11/11 10/10/10 13/13/13
f 14/14/14 15/15/15 10/10/10 9/9/9
f 16/16/16 13/13/13 10/10/10 17/17/17
f 18/18/18 17/17/17 10/10/10 15/15/15
f 19/19/19 20/20/20 21/21/21 22/22/22
f 23/23/23 24/24/24 21/21/21 20/20/20
f 25/25/25 22/22/22 21/21/21 24/24/24
f 26/26/26 27/27/27 28/28/28 29/29/29
f 30/30/30 31/31/31 28/28/28 27/27/27
f 7/7/7 29/29/29 28/28/28 32/32/32
f 33/33/33 32/32/32 28/28/28 34/34/34
f 35/35/35 34/34/34 28/28/28 31/31/31
f 5/5/5 36/36/36 8/8/8 11/11/11
f 37/37/37 9/9/9 8/8/8 36/36/36
f 38/38/38 39/39/39 40/40/40 41/41/41
f 26/26/26 41/41/41 40/40/40 27/27/27
f 42/42/42 43/43/43 40/40/40 39/39/39
f 30/30/30 27/27/27 40/40/40 43/43/43
f 44/44/44 45/45/45 46/46/46 47/47/47
f 48/48/48 47/49/47 46/50/46 49/51/49
f 50/52/50 49/51/49 46/50/46 51/53/51
f 52/54/52 53/55/53 46/46/46 45/45/45
f 54/56/54 51/53/51 46/50/46 53/57/53
f 55/58/55 56/59/56 57/60/57 58/61/58
f 59/62/59 58/61/58 57/60/57 60/63/60
f 61/64/61 60/63/60 57/60/57 56/59/56
f 62/65/62 56/59/56 55/58/55 63/66/63
f 64/67/64 63/66/63 55/58/55 58/61/58
f 65/68/65 59/62/59 60/63/60 61/64/61
f 66/69/66 67/70/67 65/68/65 61/64/61
f 68/71/68 59/62/59 65/68/65 67/70/67
f 68/71/68 69/72/69 70/73/70 64/67/64
f 71/74/71 72/75/72 70/73/70 69/72/69
f 63/66/63 64/67/64 70/73/70 73/76/73
f 74/77/74 75/78/75 70/73/70 72/75/72
f 76/79/76 73/76/73 70/73/70 75/78/75
f 77/80/77 78/81/78 79/82/79 80/83/80
f 81/84/81 80/83/80 79/82/79 82/85/82
f 83/86/83 82/87/82 79/88/79 78/89/78
f 81/84/81 84/90/84 85/91/85 80/83/80
f 86/92/86 87/93/87 85/91/85 84/90/84
f 77/80/77 80/83/80 85/91/85 87/93/87
f 88/94/88 86/92/86 84/90/84 81/84/81
f 88/95/88 81/96/81 82/87/82 83/86/83
f 74/77/74 72/75/72 89/97/89 90/98/90
f 71/74/71 91/99/91 89/97/89 72/75/72
f 78/89/78 90/98/90 89/97/89 83/86/83
f 88/95/88 83/86/83 89/97/89 92/100/92
f 93/101/93 92/100/92 89/97/89 91/99/91
f 94/102/94 95/103/95 96/104/96 97/105/97
f 98/106/98 99/107/99 96/104/96 95/103/95
f 100/108/100 101/109/101 96/110/96 102/111/102
f 103/112/103 97/113/97 96/110/96 101/109/101
f 52/54/52 102/114/102 96/104/96 99/107/99
f 104/115/104 105/116/105 106/117/106 107/118/107
f 75/78/75 107/118/107 106/117/106 76/79/76
f 108/119/108 109/120/109 106/117/106 105/116/105
f 110/121/110 98/106/98 106/117/106 109/120/109
f 95/103/95 76/79/76 106/117/106 98/106/98
f 44/122/44 47/123/47 111/124/111 108/119/108
f 48/48/48 112/125/112 111/126/111 47/49/47
f 109/120/109 108/119/108 111/124/111 113/127/113
f 114/128/114 115/129/115 116/130/116 117/131/117
f 118/132/118 117/131/117 116/130/116 119/133/119
f 120/134/120 119/133/119 116/130/116 115/129/115
f 119/133/119 120/134/120 121/135/121 122/136/122
f 123/137/123 124/138/124 121/135/121 120/134/120
f 125/139/125 122/136/122 121/135/121 124/138/124
f 54/56/54 53/57/53 126/140/126 127/141/127
f 128/142/128 127/141/127 126/140/126 129/143/129
f 52/54/52 99/107/99 126/144/126 53/55/53
f 98/106/98 110/121/110 126/144/126 99/107/99
f 130/145/130 129/146/129 126/147/126 110/148/110
f 131/149/131 132/150/132 133/151/133 134/152/134
f 135/153/135 136/154/136 133/151/133 132/150/132
f 137/155/137 138/156/138 133/157/133 136/158/136
f 139/159/139 134/152/134 133/151/133 140/160/140
f 141/161/141 140/162/140 133/157/133 138/156/138
f 142/163/142 143/164/143 144/165/144 145/166/145
f 135/153/135 146/167/146 144/168/144 143/169/143
f 147/170/147 148/171/148 144/165/144 146/172/146
f 137/155/137 145/166/145 144/165/144 138/156/138
f 113/173/113 149/174/149 110/148/110 109/175/109
f 141/161/141 138/156/138 144/165/144 150/176/150
f 151/177/151 150/176/150 144/165/144 148/171/148
f 140/160/140 152/178/152 153/179/153 139/159/139
f 154/180/154 155/181/155 153/182/153 152/183/152
f 156/184/156 139/159/139 153/179/153 157/185/157
f 158/186/158 159/187/159 153/179/153 155/188/155
f 160/189/160 157/185/157 153/179/153 159/187/159
f 154/180/154 161/190/161 145/191/145 137/192/137
f 162/193/162 163/194/163 145/195/145 161/196/161
f 164/197/164 142/198/142 145/195/145 163/194/163
f 165/199/165 161/190/161 154/180/154 152/183/152
f 136/200/136 166/201/166 154/180/154 137/192/137
f 167/202/167 155/181/155 154/180/154 166/201/166
f 168/203/168 169/204/169 170/205/170 171/206/171
f 172/207/172 173/208/173 170/205/170 169/204/169
f 174/209/174 171/206/171 170/205/170 173/208/173
f 175/210/175 176/211/176 177/212/177 178/213/178
f 179/214/179 178/215/178 177/216/177 180/217/180
f 181/218/181 180/217/180 177/216/177 182/219/182
f 183/220/183 182/221/182 177/212/177 176/211/176
f 184/222/184 185/223/185 151/224/151 148/225/148
f 186/226/186 150/176/150 151/177/151 187/227/187
f 111/228/111 188/229/188 189/230/189 113/173/113
f 190/231/190 191/232/191 189/230/189 188/229/188
f 149/174/149 113/173/113 189/230/189 191/232/191
f 192/233/192 193/234/193 194/235/194 195/236/195
f 196/237/196 195/236/195 194/235/194 197/238/197
f 198/239/198 197/238/197 194/235/194 193/234/193
f 135/153/135 143/169/143 166/240/166 136/154/136
f 142/241/142 199/242/199 166/240/166 143/169/143
f 200/243/200 167/244/167 166/245/166 199/246/199
f 201/247/201 164/197/164 202/248/202 203/249/203
f 163/194/163 204/250/204 202/248/202 164/197/164
f 205/251/205 203/249/203 202/248/202 204/250/204
f 206/252/206 183/220/183 176/211/176 175/210/175
f 207/253/207 208/254/208 209/255/209 210/256/210
f 211/257/211 210/256/210 209/255/209 212/258/212
f 213/259/213 201/247/201 203/249/203 205/251/205
f 173/208/173 172/207/172 207/260/207 214/261/214
f 215/262/215 216/263/216 207/260/207 172/207/172
f 217/264/217 208/254/208 207/253/207 216/265/216
f 163/194/163 162/193/162 218/266/218 204/250/204
f 205/251/205 204/250/204 218/266/218 219/267/219
f 186/268/186 187/269/187 218/266/218 162/193/162
f 220/270/220 221/271/221 218/266/218 187/269/187
f 222/272/222 219/267/219 218/266/218 221/271/221
f 223/273/223 224/274/224 191/232/191 190/231/190
f 225/275/225 211/257/211 212/258/212 226/276/226
f 208/254/208 227/277/227 212/258/212 209/255/209
f 228/278/228 229/279/229 212/258/212 227/277/227
f 211/257/211 225/275/225 230/280/230 231/281/231
f 232/282/232 233/283/233 230/280/230 225/275/225
f 234/284/234 231/281/231 230/280/230 235/285/235
f 236/286/236 237/287/237 223/273/223 190/231/190
f 238/288/238 224/274/224 223/273/223 237/287/237
f 188/289/188 180/217/180 181/218/181 190/290/190
f 236/286/236 190/231/190 181/291/181 239/292/239
f 240/293/240 239/292/239 181/291/181 241/294/241
f 183/295/183 241/294/241 181/291/181 182/296/182
f 242/297/242 243/298/243 244/299/244 245/300/245
f 238/288/238 246/301/246 244/299/244 243/298/243
f 247/302/247 245/300/245 244/299/244 246/301/246
f 248/303/248 249/304/249 250/305/250 251/306/251
f 252/307/252 251/306/251 250/305/250 253/308/253
f 254/309/254 253/308/253 250/305/250 249/304/249
f 255/310/255 256/311/256 257/312/257 258/313/258
f 259/314/259 260/315/260 257/312/257 261/316/261
f 262/317/262 263/318/263 257/312/257 260/315/260
f 264/319/264 261/316/261 257/312/257 256/311/256
f 265/320/265 266/321/266 183/220/183 206/252/206
f 267/322/267 255/323/255 258/324/258 268/325/268
f 263/318/263 269/326/269 258/313/258 257/312/257
f 270/327/270 268/325/268 258/324/258 271/328/271
f 272/329/272 271/330/271 258/313/258 269/326/269
f 273/331/273 274/332/274 262/317/262 260/315/260
f 275/333/275 263/318/263 262/317/262 274/332/274
f 228/278/228 276/334/276 277/335/277 229/279/229
f 278/336/278 232/282/232 277/335/277 279/337/279
f 280/338/280 279/337/279 277/335/277 276/334/276
f 225/275/225 226/276/226 277/335/277 232/282/232
f 280/338/280 276/334/276 272/329/272 269/326/269
f 228/278/228 271/330/271 272/329/272 276/334/276
f 198/239/198 281/339/281 282/340/282 283/341/283
f 284/342/284 285/343/285 282/340/282 281/339/281
f 286/344/286 287/345/287 282/340/282 285/343/285
f 248/303/248 283/341/283 282/340/282 287/345/287
f 288/346/288 289/347/289 290/348/290 291/349/291
f 292/350/292 293/351/293 290/348/290 289/347/289
f 273/331/273 291/349/291 290/348/290 293/351/293
f 279/337/279 294/352/294 295/353/295 278/336/278
f 296/354/296 278/336/278 295/353/295 297/355/297
f 298/356/298 297/355/297 295/353/295 294/352/294
f 299/357/299 296/354/296 297/355/297 298/356/298
f 300/358/300 301/359/301 302/360/302 303/361/303
f 304/362/304 305/363/305 302/360/302 301/359/301
f 306/364/306 303/361/303 302/360/302 305/363/305
f 274/332/274 307/365/307 294/352/294 275/333/275
f 280/338/280 275/333/275 294/352/294 279/337/279
f 308/366/308 298/356/298 294/352/294 307/365/307
f 309/367/309 310/368/310 299/357/299 311/369/311
f 308/366/308 311/369/311 299/357/299 298/356/298
f 312/370/312 313/371/313 266/321/266 265/320/265
f 241/294/241 183/295/183 266/372/266 313/373/313
f 293/351/293 292/350/292 308/366/308 307/365/307
f 304/362/304 314/374/314 308/366/308 292/350/292
f 315/375/315 311/369/311 308/366/308 314/374/314
f 316/376/316 317/377/317 318/378/318 319/379/319
f 320/380/320 321/381/321 318/382/318 322/383/322
f 323/384/323 322/383/322 318/382/318 317/385/317
f 314/374/314 319/379/319 318/378/318 315/375/315
f 324/386/324 315/375/315 318/378/318 321/387/321
f 325/388/325 326/389/326 327/390/327 320/380/320
f 328/391/328 329/392/329 327/390/327 326/389/326
f 330/393/330 324/386/324 327/394/327 329/395/329
f 331/396/331 332/397/332 333/398/333 334/399/334
f 334/399/334 333/398/333 335/400/335 336/401/336
f 337/402/337 335/400/335 333/398/333 332/397/332
f 338/403/338 309/367/309 324/386/324 330/393/330
f 311/369/311 315/375/315 324/386/324 309/367/309
f 339/404/339 328/391/328 326/389/326 325/388/325
f 240/293/240 241/294/241 313/373/313 340/405/340
f 337/402/337 332/397/332 313/371/313 312/370/312
f 341/406/341 340/405/340 313/373/313 332/407/332
f 342/408/342 331/396/331 334/399/334 336/401/336
f 343/409/343 240/293/240 340/405/340 344/410/344
f 345/411/345 344/410/344 340/405/340 346/412/346
f 347/413/347 346/412/346 340/405/340 341/406/341
f 348/414/348 345/411/345 346/412/346 347/413/347
f 349/415/349 350/416/350 351/417/351 352/418/352
f 353/419/353 348/414/348 351/417/351 350/416/350
f 347/413/347 352/418/352 351/417/351 348/414/348
f 174/209/174 173/208/173 214/261/214 354/420/354
f 355/421/355 354/420/354 214/261/214 356/422/356
f 357/423/357 356/422/356 214/261/214 358/424/358
f 210/256/210 358/425/358 214/426/214 207/253/207
f 231/281/231 234/284/234 357/427/357 358/425/358
f 359/428/359 360/429/360 357/427/357 234/284/234
f 361/430/361 356/422/356 357/423/357 360/431/360
f 355/421/355 356/422/356 361/430/361 362/432/362
f 363/433/363 364/434/364 361/435/361 360/429/360
f 14/14/14 362/432/362 361/430/361 364/436/364
f 365/437/365 366/438/366 364/434/364 363/433/363
f 15/15/15 14/14/14 364/436/364 366/439/366
f 367/440/367 368/441/368 366/438/366 365/437/365
f 18/18/18 15/15/15 366/439/366 368/442/368
f 369/443/369 370/444/370 368/441/368 367/440/367
f 371/445/371 18/18/18 368/442/368 370/446/370
f 17/17/17 18/18/18 371/445/371 372/447/372
f 373/448/373 374/449/374 371/445/371 370/446/370
f 375/450/375 372/447/372 371/445/371 374/449/374
f 19/19/19 372/447/372 375/450/375 20/20/20
f 376/451/376 377/452/377 375/450/375 374/449/374
f 23/23/23 20/20/20 375/450/375 377/452/377
f 178/215/178 179/214/179 377/452/377 376/451/376
f 378/453/378 23/23/23 377/452/377 179/214/179
f 24/24/24 23/23/23 378/453/378 112/125/112
f 180/217/180 188/289/188 378/453/378 179/214/179
f 111/126/111 112/125/112 378/453/378 188/289/188
f 373/448/373 379/454/379 376/451/376 374/449/374
f 175/455/175 178/215/178 376/451/376 379/454/379
f 380/456/380 381/457/381 379/458/379 373/459/373
f 206/252/206 175/210/175 379/458/379 381/457/381
f 382/460/382 383/461/383 381/457/381 380/456/380
f 265/320/265 206/252/206 381/457/381 383/461/383
f 384/462/384 385/463/385 383/461/383 382/460/382
f 312/370/312 265/320/265 383/461/383 385/463/385
f 254/309/254 386/464/386 385/463/385 384/462/384
f 337/402/337 312/370/312 385/463/385 386/464/386
f 249/304/249 387/465/387 386/464/386 254/309/254
f 335/400/335 337/402/337 386/464/386 387/465/387
f 248/303/248 287/345/287 387/465/387 249/304/249
f 286/344/286 335/400/335 387/465/387 287/345/287
f 388/466/388 389/467/389 384/462/384 382/460/382
f 253/308/253 254/309/254 384/462/384 389/467/389
f 390/468/390 391/469/391 389/467/389 388/466/388
f 252/307/252 253/308/253 389/467/389 391/469/391
f 392/470/392 393/471/393 391/469/391 390/468/390
f 394/472/394 252/307/252 391/469/391 393/471/393
f 395/473/395 196/237/196 394/472/394 393/471/393
f 197/238/197 396/474/396 394/472/394 196/237/196
f 251/306/251 252/307/252 394/472/394 396/474/396
f 198/239/198 283/341/283 396/474/396 197/238/197
f 248/303/248 251/306/251 396/474/396 283/341/283
f 359/428/359 397/475/397 395/473/395 398/476/398
f 195/236/195 196/237/196 395/473/395 397/475/397
f 392/470/392 398/476/398 395/473/395 393/471/393
f 234/284/234 235/285/235 397/475/397 359/428/359
f 192/233/192 195/236/195 397/475/397 235/285/235
f 360/429/360 359/428/359 398/476/398 363/433/363
f 365/437/365 363/433/363 398/476/398 392/470/392
f 367/440/367 365/437/365 392/470/392 390/468/390
f 369/443/369 367/440/367 390/468/390 388/466/388
f 380/456/380 369/443/369 388/466/388 382/460/382
f 370/444/370 369/443/369 380/456/380 373/459/373
f 16/16/16 17/17/17 372/447/372 19/19/19
f 399/477/399 355/421/355 362/432/362 37/37/37
f 9/9/9 37/37/37 362/432/362 14/14/14
f 32/32/32 33/33/33 399/477/399 400/478/400
f 354/420/354 355/421/355 399/477/399 33/33/33
f 36/36/36 400/478/400 399/477/399 37/37/37
f 7/7/7 32/32/32 400/478/400 6/6/6
f 5/5/5 6/6/6 400/478/400 36/36/36
f 211/257/211 231/281/231 358/425/358 210/256/210
f 34/34/34 174/209/174 354/420/354 33/33/33
f 401/479/401 402/480/402 353/419/353 403/481/403
f 345/411/345 348/414/348 353/419/353 402/480/402
f 404/482/404 403/481/403 353/419/353 350/416/350
f 405/483/405 403/481/403 404/482/404 406/484/406
f 349/415/349 407/485/407 404/482/404 350/416/350
f 408/486/408 406/484/406 404/482/404 407/485/407
f 328/391/328 406/484/406 408/486/408 329/392/329
f 409/487/409 410/488/410 408/489/408 407/490/407
f 330/393/330 329/395/329 408/489/408 410/488/410
f 411/491/411 412/492/412 410/488/410 409/487/409
f 338/403/338 330/393/330 410/488/410 412/492/412
f 413/493/413 414/494/414 412/492/412 411/491/411
f 415/495/415 338/403/338 412/492/412 414/494/414
f 309/367/309 338/403/338 415/495/415 310/368/310
f 285/343/285 284/342/284 415/495/415 414/494/414
f 416/496/416 310/368/310 415/495/415 284/342/284
f 299/357/299 310/368/310 416/496/416 417/497/417
f 281/339/281 418/498/418 416/496/416 284/342/284
f 419/499/419 417/497/417 416/496/416 418/498/418
f 233/283/233 417/497/417 419/499/419 230/280/230
f 193/234/193 192/233/192 419/499/419 418/498/418
f 235/285/235 230/280/230 419/499/419 192/233/192
f 198/239/198 193/234/193 418/498/418 281/339/281
f 296/354/296 299/357/299 417/497/417 233/283/233
f 286/344/286 285/343/285 414/494/414 413/493/413
f 342/408/342 336/401/336 413/493/413 411/491/411
f 335/400/335 286/344/286 413/493/413 336/401/336
f 420/500/420 342/408/342 411/491/411 409/487/409
f 407/490/407 349/501/349 420/500/420 409/487/409
f 352/502/352 421/503/421 420/500/420 349/501/349
f 331/396/331 342/408/342 420/500/420 421/503/421
f 347/504/347 341/505/341 421/503/421 352/502/352
f 332/397/332 331/396/331 421/503/421 341/505/341
f 422/506/422 423/507/423 405/483/405 339/404/339
f 401/479/401 403/481/403 405/483/405 423/507/423
f 328/391/328 339/404/339 405/483/405 406/484/406
f 424/508/424 425/509/425 423/507/423 422/506/422
f 426/510/426 401/479/401 423/507/423 425/509/425
f 427/511/427 428/512/428 426/510/426 425/509/425
f 429/513/429 430/514/430 426/510/426 428/512/428
f 402/480/402 401/479/401 426/510/426 430/514/430
f 343/409/343 344/410/344 430/514/430 429/513/429
f 345/411/345 402/480/402 430/514/430 344/410/344
f 431/515/431 432/516/432 429/513/429 428/512/428
f 433/517/433 343/409/343 429/513/429 432/516/432
f 434/518/434 435/519/435 433/517/433 432/516/432
f 236/286/236 239/292/239 433/517/433 435/519/435
f 240/293/240 343/409/343 433/517/433 239/292/239
f 436/520/436 437/521/437 435/519/435 434/518/434
f 237/287/237 236/286/236 435/519/435 437/521/437
f 247/302/247 246/301/246 437/521/437 436/520/436
f 238/288/238 237/287/237 437/521/437 246/301/246
f 438/522/438 247/302/247 436/520/436 439/523/439
f 440/524/440 439/523/439 436/520/436 434/518/434
f 441/525/441 439/523/439 440/524/440 442/526/442
f 432/516/432 431/515/431 440/524/440 434/518/434
f 443/527/443 442/526/442 440/524/440 431/515/431
f 444/528/444 442/526/442 443/527/443 445/529/445
f 428/512/428 427/511/427 443/527/443 431/515/431
f 446/530/446 445/529/445 443/527/443 427/511/427
f 447/531/447 445/529/445 446/530/446 448/532/448
f 425/509/425 424/508/424 446/530/446 427/511/427
f 449/533/449 448/532/448 446/530/446 424/508/424
f 450/534/450 448/532/448 449/533/449 323/384/323
f 422/506/422 451/535/451 449/533/449 424/508/424
f 322/383/322 323/384/323 449/533/449 451/535/451
f 339/404/339 325/388/325 451/535/451 422/506/422
f 320/380/320 322/383/322 451/535/451 325/388/325
f 452/536/452 453/537/453 450/538/450 454/539/454
f 447/531/447 448/532/448 450/534/450 453/540/453
f 317/377/317 454/539/454 450/538/450 323/541/323
f 455/542/455 456/543/456 453/537/453 452/536/452
f 457/544/457 447/531/447 453/540/453 456/545/456
f 458/546/458 459/547/459 457/544/457 456/545/456
f 460/548/460 444/528/444 457/544/457 459/547/459
f 445/529/445 447/531/447 457/544/457 444/528/444
f 461/549/461 462/550/462 460/548/460 459/547/459
f 463/551/463 441/525/441 460/548/460 462/550/462
f 442/526/442 444/528/444 460/548/460 441/525/441
f 464/552/464 465/553/465 463/551/463 462/550/462
f 466/554/466 438/522/438 463/551/463 465/553/465
f 439/523/439 441/525/441 463/551/463 438/522/438
f 467/555/467 468/556/468 466/554/466 465/553/465
f 242/297/242 245/300/245 466/554/466 468/556/468
f 247/302/247 438/522/438 466/554/466 245/300/245
f 128/557/128 129/146/129 468/556/468 467/555/467
f 130/145/130 242/297/242 468/556/468 129/146/129
f 469/558/469 128/557/128 467/555/467 470/559/470
f 464/552/464 470/559/470 467/555/467 465/553/465
f 471/560/471 472/561/472 469/562/469 473/563/473
f 127/141/127 128/142/128 469/562/469 472/561/472
f 474/564/474 473/563/473 469/562/469 470/565/470
f 475/566/475 473/567/473 474/568/474 476/569/476
f 464/552/464 477/570/477 474/571/474 470/559/470
f 478/572/478 476/569/476 474/568/474 477/573/477
f 479/574/479 476/569/476 478/572/478 480/575/480
f 461/549/461 481/576/481 478/577/478 477/570/477
f 482/578/482 480/575/480 478/572/478 481/579/481
f 483/580/483 480/575/480 482/578/482 484/581/484
f 458/582/458 485/583/485 482/578/482 481/579/481
f 486/584/486 484/581/484 482/578/482 485/583/485
f 185/223/185 484/581/484 486/584/486 487/585/487
f 455/542/455 488/586/488 486/584/486 485/583/485
f 489/587/489 487/585/487 486/584/486 488/586/488
f 490/588/490 487/585/487 489/587/489 491/589/491
f 492/590/492 493/591/493 489/587/489 488/586/488
f 494/592/494 491/589/491 489/587/489 493/591/493
f 495/593/495 491/589/491 494/592/494 496/594/496
f 497/595/497 498/596/498 494/592/494 493/591/493
f 499/597/499 496/594/496 494/592/494 498/596/498
f 500/598/500 496/594/496 499/597/499 501/599/501
f 303/361/303 306/364/306 499/597/499 498/596/498
f 288/346/288 501/599/501 499/597/499 306/364/306
f 264/319/264 502/600/502 500/598/500 261/316/261
f 495/593/495 496/594/496 500/598/500 502/600/502
f 259/314/259 261/316/261 500/598/500 501/599/501
f 222/272/222 221/271/221 502/600/502 264/319/264
f 220/270/220 495/593/495 502/600/502 221/271/221
f 291/349/291 259/314/259 501/599/501 288/346/288
f 300/358/300 303/361/303 498/596/498 497/595/497
f 492/590/492 503/601/503 497/595/497 493/591/493
f 316/376/316 300/358/300 497/595/497 503/601/503
f 452/536/452 454/539/454 503/601/503 492/590/492
f 317/377/317 316/376/316 503/601/503 454/539/454
f 490/588/490 491/589/491 495/593/495 220/270/220
f 455/542/455 452/536/452 492/590/492 488/586/488
f 187/269/187 151/224/151 490/588/490 220/270/220
f 185/223/185 487/585/487 490/588/490 151/224/151
f 456/543/456 455/542/455 485/583/485 458/582/458
f 504/602/504 505/603/505 483/580/483 184/222/184
f 479/574/479 480/575/480 483/580/483 505/603/505
f 185/223/185 184/222/184 483/580/483 484/581/484
f 506/604/506 507/605/507 505/603/505 504/602/504
f 508/606/508 479/574/479 505/603/505 507/605/507
f 509/607/509 510/608/510 508/606/508 507/605/507
f 511/609/511 475/566/475 508/606/508 510/608/510
f 476/569/476 479/574/479 508/606/508 475/566/475
f 38/38/38 512/610/512 511/611/511 510/612/510
f 513/613/513 471/560/471 511/611/511 512/610/512
f 473/563/473 475/614/475 511/611/511 471/560/471
f 514/615/514 515/616/515 513/613/513 512/610/512
f 516/617/516 517/618/517 513/613/513 515/616/515
f 472/561/472 471/560/471 513/613/513 517/618/517
f 51/53/51 54/56/54 517/618/517 516/617/516
f 127/141/127 472/561/472 517/618/517 54/56/54
f 518/619/518 519/620/519 516/617/516 515/616/515
f 50/52/50 51/53/51 516/617/516 519/620/519
f 520/621/520 521/622/521 519/620/519 518/619/518
f 522/623/522 50/52/50 519/620/519 521/622/521
f 523/624/523 524/625/524 522/623/522 521/622/521
f 525/626/525 526/627/526 522/623/522 524/625/524
f 49/51/49 50/52/50 522/623/522 526/627/526
f 22/22/22 25/25/25 526/627/526 525/626/525
f 48/48/48 49/51/49 526/627/526 25/25/25
f 13/13/13 16/16/16 525/626/525 524/625/524
f 19/19/19 22/22/22 525/626/525 16/16/16
f 12/12/12 13/13/13 524/625/524 523/624/523
f 4/4/4 12/12/12 523/624/523 1/1/1
f 520/621/520 1/1/1 523/624/523 521/622/521
f 2/2/2 1/1/1 520/621/520 527/628/527
f 528/629/528 527/628/527 520/621/520 518/619/518
f 29/29/29 527/628/527 528/629/528 26/26/26
f 515/616/515 514/615/514 528/629/528 518/619/518
f 41/41/41 26/26/26 528/629/528 514/615/514
f 7/7/7 2/2/2 527/628/527 29/29/29
f 38/38/38 41/41/41 514/615/514 512/610/512
f 39/630/39 38/631/38 510/608/510 509/607/509
f 42/632/42 39/630/39 509/607/509 529/633/529
f 506/604/506 529/633/529 509/607/509 507/605/507
f 530/634/530 42/42/42 529/635/529 531/636/531
f 532/637/532 531/636/531 529/635/529 506/638/506
f 533/639/533 531/636/531 532/637/532 534/640/534
f 504/602/504 147/641/147 532/642/532 506/604/506
f 146/167/146 534/640/534 532/637/532 147/643/147
f 535/644/535 536/645/536 533/639/533 131/149/131
f 530/634/530 531/636/531 533/639/533 536/645/536
f 132/150/132 131/149/131 533/639/533 534/640/534
f 537/646/537 538/647/538 536/645/536 535/644/535
f 539/648/539 530/634/530 536/645/536 538/647/538
f 540/649/540 541/650/541 539/648/539 538/647/538
f 30/30/30 43/43/43 539/648/539 541/650/541
f 42/42/42 530/634/530 539/648/539 43/43/43
f 542/651/542 543/652/543 541/650/541 540/649/540
f 31/31/31 30/30/30 541/650/541 543/652/543
f 544/653/544 545/654/545 543/652/543 542/651/542
f 35/35/35 31/31/31 543/652/543 545/654/545
f 546/655/546 168/203/168 545/654/545 544/653/544
f 171/206/171 35/35/35 545/654/545 168/203/168
f 547/656/547 548/657/548 546/655/546 544/653/544
f 549/658/549 550/659/550 546/655/546 548/657/548
f 169/204/169 168/203/168 546/655/546 550/659/550
f 551/660/551 215/262/215 550/659/550 549/658/549
f 172/207/172 169/204/169 550/659/550 215/262/215
f 552/661/552 553/662/553 551/660/551 549/658/549
f 554/663/554 555/664/555 551/660/551 553/662/553
f 216/263/216 215/262/215 551/660/551 555/664/555
f 556/665/556 557/666/557 555/664/555 554/663/554
f 217/264/217 216/265/216 555/667/555 557/668/557
f 267/322/267 268/325/268 557/666/557 556/665/556
f 270/669/270 217/264/217 557/668/557 268/670/268
f 558/671/558 559/672/559 556/665/556 554/663/554
f 560/673/560 267/322/267 556/665/556 559/672/559
f 158/186/158 561/674/561 560/673/560 559/672/559
f 562/675/562 563/676/563 560/677/560 561/678/561
f 255/310/255 267/679/267 560/677/560 563/676/563
f 564/680/564 565/681/565 563/676/563 562/675/562
f 256/311/256 255/310/255 563/676/563 565/681/565
f 219/267/219 222/272/222 565/681/565 564/680/564
f 264/319/264 256/311/256 565/681/565 222/272/222
f 200/243/200 213/259/213 564/680/564 562/675/562
f 205/251/205 219/267/219 564/680/564 213/259/213
f 167/244/167 200/243/200 562/675/562 561/678/561
f 155/188/155 167/682/167 561/674/561 158/186/158
f 159/187/159 158/186/158 559/672/559 558/671/558
f 553/662/553 566/683/566 558/671/558 554/663/554
f 160/189/160 159/187/159 558/671/558 566/683/566
f 552/661/552 125/139/125 566/683/566 553/662/553
f 124/138/124 160/189/160 566/683/566 125/139/125
f 548/657/548 567/684/567 552/661/552 549/658/549
f 122/136/122 125/139/125 552/661/552 567/684/567
f 119/133/119 122/136/122 567/684/567 118/132/118
f 547/656/547 118/132/118 567/684/567 548/657/548
f 117/131/117 118/132/118 547/656/547 568/685/568
f 542/651/542 568/685/568 547/656/547 544/653/544
f 114/128/114 117/131/117 568/685/568 569/686/569
f 540/649/540 569/686/569 568/685/568 542/651/542
f 570/687/570 114/128/114 569/686/569 537/646/537
f 538/647/538 537/646/537 569/686/569 540/649/540
f 115/129/115 114/128/114 570/687/570 571/688/571
f 535/644/535 572/689/572 570/687/570 537/646/537
f 156/184/156 571/688/571 570/687/570 572/689/572
f 131/149/131 134/152/134 572/689/572 535/644/535
f 139/159/139 156/184/156 572/689/572 134/152/134
f 120/134/120 115/129/115 571/688/571 123/137/123
f 157/185/157 123/137/123 571/688/571 156/184/156
f 135/153/135 132/150/132 534/640/534 146/167/146
f 148/225/148 147/641/147 504/602/504 184/222/184
f 459/547/459 458/546/458 481/576/481 461/549/461
f 462/550/462 461/549/461 477/570/477 464/552/464
f 301/359/301 300/358/300 316/376/316 319/379/319
f 304/362/304 301/359/301 319/379/319 314/374/314
f 273/331/273 293/351/293 307/365/307 274/332/274
f 289/347/289 288/346/288 306/364/306 305/363/305
f 292/350/292 289/347/289 305/363/305 304/362/304
f 232/282/232 278/336/278 296/354/296 233/283/233
f 260/315/260 259/314/259 291/349/291 273/331/273
f 263/318/263 275/333/275 280/338/280 269/326/269
f 208/254/208 217/264/217 270/669/270 227/277/227
f 228/278/228 227/277/227 270/669/270 271/330/271
f 130/145/130 573/690/573 243/298/243 242/297/242
f 224/274/224 238/288/238 243/298/243 573/690/573
f 110/148/110 149/174/149 573/690/573 130/145/130
f 191/232/191 224/274/224 573/690/573 149/174/149
f 199/246/199 201/247/201 213/259/213 200/243/200
f 142/198/142 164/197/164 201/247/201 199/246/199
f 161/190/161 165/199/165 186/226/186 162/691/162
f 141/161/141 150/176/150 186/226/186 165/199/165
f 35/35/35 171/206/171 174/209/174 34/34/34
f 140/162/140 141/161/141 165/199/165 152/183/152
f 123/137/123 157/185/157 160/189/160 124/138/124
f 25/25/25 24/24/24 112/125/112 48/48/48
f 574/692/574 44/122/44 108/119/108 105/116/105
f 104/693/104 575/694/575 574/695/574 105/696/105
f 576/697/576 577/698/577 574/695/574 575/694/575
f 45/45/45 44/44/44 574/699/574 577/700/577
f 100/108/100 102/111/102 577/698/577 576/697/576
f 52/54/52 45/45/45 577/700/577 102/114/102
f 578/701/578 93/702/93 576/697/576 575/694/575
f 91/703/91 100/108/100 576/697/576 93/702/93
f 104/693/104 579/704/579 578/701/578 575/694/575
f 580/705/580 581/706/581 578/701/578 579/704/579
f 92/707/92 93/702/93 578/701/578 581/706/581
f 87/93/87 86/92/86 581/706/581 580/705/580
f 88/94/88 92/707/92 581/706/581 86/92/86
f 582/708/582 583/709/583 580/705/580 579/704/579
f 77/80/77 87/93/87 580/705/580 583/709/583
f 74/77/74 90/98/90 583/710/583 582/711/582
f 78/81/78 77/80/77 583/709/583 90/712/90
f 75/78/75 74/77/74 582/711/582 107/118/107
f 104/693/104 107/713/107 582/708/582 579/704/579
f 71/714/71 69/715/69 103/112/103 101/109/101
f 68/71/68 67/70/67 103/716/103 69/72/69
f 66/717/66 97/113/97 103/112/103 67/718/67
f 91/703/91 71/714/71 101/109/101 100/108/100
f 73/76/73 76/79/76 95/103/95 94/102/94
f 66/717/66 62/719/62 94/720/94 97/113/97
f 63/66/63 73/76/73 94/102/94 62/65/62
f 58/61/58 59/62/59 68/71/68 64/67/64
f 56/59/56 62/65/62 66/69/66 61/64/61
f 5/5/5 11/11/11 12/12/12 4/4/4
f 277/335/277 226/276/226 212/258/212 229/279/229
f 321/381/321 320/380/320 327/390/327 324/721/324
