# split from a merged terrain OBJ by scripts/split-terrain-obj-parts.py
o part-033
v 0.895115 0.324242 -0.005159
v 0.895740 0.327882 -0.005421
v 0.894156 0.329438 -0.006653
v 0.893020 0.324505 -0.005060
v 0.891235 0.324587 -0.006090
v 0.893056 0.329965 -0.007289
v 0.896329 0.324071 -0.006941
v 0.895790 0.323990 -0.009185
v 0.896724 0.327549 -0.006628
v 0.893704 0.324187 -0.010479
v 0.891650 0.328622 -0.006870
v 0.890253 0.324500 -0.008012
v 0.891270 0.324275 -0.010019
v 0.911531 0.219725 -0.042805
v 0.911798 0.226596 -0.039053
v 0.921702 0.226350 -0.035992
v 0.918405 0.219921 -0.042135
v 0.914583 0.236131 -0.034792
v 0.921692 0.236018 -0.033758
v 0.926716 0.217479 -0.024194
v 0.927730 0.218787 -0.032349
v 0.923666 0.225574 -0.024251
v 0.921785 0.235404 -0.024495
v 0.900271 0.220304 -0.044712
v 0.887314 0.223738 -0.046892
v 0.886077 0.231194 -0.039864
v 0.900551 0.226986 -0.040631
v 0.879592 0.226504 -0.046353
v 0.879099 0.235384 -0.044308
v 0.902230 0.235510 -0.035126
v 0.891777 0.237173 -0.036333
v 0.891854 0.249993 -0.036125
v 0.882020 0.250745 -0.038771
v 0.913741 0.223660 0.032353
v 0.911318 0.225281 0.030657
v 0.908844 0.213915 0.033497
v 0.911824 0.212783 0.028108
v 0.899405 0.210633 0.022076
v 0.897122 0.213256 0.029248
v 0.896248 0.221717 0.030851
v 0.873713 0.213803 -0.039081
v 0.869906 0.221493 -0.039592
v 0.872775 0.223593 -0.047104
v 0.877968 0.219463 -0.046443
v 0.870434 0.228336 -0.038576
v 0.873949 0.228765 -0.045069
v 0.913321 0.212136 0.015061
v 0.918744 0.219294 0.017537
v 0.917185 0.224402 0.016772
v 0.915017 0.232329 0.016130
v 0.910415 0.231666 0.027842
v 0.896766 0.228458 0.026159
v 0.926545 0.280367 -0.036471
v 0.920757 0.278500 -0.043395
v 0.920101 0.283332 -0.044634
v 0.922010 0.286451 -0.038238
v 0.910084 0.278930 -0.045207
v 0.911081 0.283904 -0.044997
v 0.911982 0.287695 -0.039691
v 0.878844 0.265044 -0.044540
v 0.874303 0.265335 -0.044449
v 0.873736 0.274943 -0.047342
v 0.880480 0.273874 -0.047077
v 0.881812 0.279248 -0.049698
v 0.877060 0.279541 -0.050906
v 0.871597 0.266512 -0.039470
v 0.869593 0.275872 -0.041654
v 0.866458 0.282982 -0.043435
v 0.868161 0.280931 -0.047963
v 0.871863 0.241049 0.019148
v 0.864015 0.240753 0.017549
v 0.862519 0.228813 0.021569
v 0.871923 0.228147 0.023646
v 0.857442 0.221064 0.012129
v 0.856706 0.222018 0.019360
v 0.860512 0.227161 0.011380
v 0.863147 0.239770 0.009202
v 0.871452 0.220844 0.026727
v 0.864297 0.221642 0.026054
v 0.897010 0.296656 -0.027532
v 0.895698 0.303950 -0.019514
v 0.905860 0.304303 -0.009121
v 0.908961 0.296159 -0.021667
v 0.917552 0.291284 -0.014146
v 0.912225 0.295013 0.004742
v 0.897133 0.317545 -0.004377
v 0.900751 0.306080 0.003592
v 0.898404 0.316657 -0.010057
v 0.902635 0.298295 0.013660
v 0.894445 0.316608 -0.013915
v 0.918190 0.283835 0.022167
v 0.912651 0.290315 0.022823
v 0.910311 0.286331 0.033538
v 0.911486 0.280489 0.033737
v 0.903639 0.293303 0.025897
v 0.901073 0.287488 0.032987
v 0.899210 0.280765 0.033545
v 0.924626 0.285268 -0.011623
v 0.921947 0.286379 0.006204
v 0.885952 0.295434 -0.030308
v 0.884443 0.302177 -0.018138
v 0.876019 0.292239 -0.030208
v 0.873307 0.294291 -0.018173
v 0.889340 0.316619 -0.012962
v 0.887118 0.317408 -0.008427
v 0.879089 0.304318 -0.007124
v 0.870467 0.295682 -0.004925
v 0.904999 0.249540 -0.034017
v 0.894577 0.265247 -0.037173
v 0.907132 0.264520 -0.034995
v 0.917478 0.263519 -0.036055
v 0.916417 0.249258 -0.035011
v 0.922415 0.263152 -0.032782
v 0.922220 0.248863 -0.032881
v 0.921751 0.263537 -0.024085
v 0.921520 0.248419 -0.024194
v 0.919943 0.264302 -0.012405
v 0.919697 0.247921 -0.012767
v 0.920148 0.234242 -0.012674
v 0.922414 0.223906 -0.011958
v 0.917299 0.247240 0.001324
v 0.917866 0.233362 0.001497
v 0.920400 0.223833 0.002407
v 0.924544 0.217052 -0.011473
v 0.921512 0.217666 0.002796
v 0.920352 0.211205 -0.026636
v 0.918324 0.210803 -0.013146
v 0.915235 0.212006 0.001344
v 0.907302 0.209883 -0.016304
v 0.904276 0.210341 -0.001614
v 0.901554 0.210373 0.011859
v 0.890802 0.210335 -0.005431
v 0.887674 0.210588 0.008024
v 0.885385 0.210747 0.017829
v 0.874062 0.211079 0.004052
v 0.872077 0.211235 0.015007
v 0.883637 0.212795 0.025743
v 0.870877 0.213053 0.023935
v 0.861168 0.214591 0.013734
v 0.861491 0.217846 0.021986
v 0.882997 0.220512 0.028527
v 0.883089 0.228284 0.024209
v 0.883324 0.241642 0.021057
v 0.897015 0.243034 0.023277
v 0.883914 0.259243 0.021348
v 0.897915 0.260234 0.023484
v 0.909566 0.244932 0.028425
v 0.909448 0.261225 0.028378
v 0.898761 0.275548 0.026990
v 0.909582 0.273534 0.029808
v 0.914523 0.246179 0.016140
v 0.914668 0.263297 0.016855
v 0.916492 0.275534 0.019457
v 0.917521 0.264436 0.002177
v 0.920792 0.277491 0.004526
v 0.923472 0.276782 -0.011696
v 0.924648 0.275183 -0.024694
v 0.926372 0.283429 -0.025684
v 0.924450 0.273427 -0.034562
v 0.920817 0.288426 -0.027669
v 0.911971 0.291933 -0.032252
v 0.899569 0.288522 -0.040916
v 0.899139 0.292303 -0.036025
v 0.889083 0.288445 -0.042641
v 0.887968 0.291974 -0.038088
v 0.879868 0.287371 -0.043857
v 0.878264 0.290083 -0.038054
v 0.871798 0.286731 -0.043950
v 0.870270 0.287670 -0.036835
v 0.868342 0.288878 -0.028390
v 0.864859 0.283669 -0.036245
v 0.862580 0.284605 -0.027642
v 0.860606 0.285744 -0.016378
v 0.866089 0.289855 -0.017089
v 0.858564 0.287199 -0.002163
v 0.863914 0.290815 -0.003260
v 0.859188 0.287539 0.014941
v 0.865052 0.293136 0.011934
v 0.871972 0.297964 0.006619
v 0.880285 0.305484 0.000350
v 0.875077 0.293683 0.022363
v 0.879626 0.298292 0.014630
v 0.885658 0.306335 0.005431
v 0.887462 0.318087 -0.004193
v 0.889824 0.318073 -0.000986
v 0.891954 0.298411 0.017455
v 0.892648 0.306253 0.006718
v 0.893955 0.317761 -0.001252
v 0.890240 0.293142 0.025682
v 0.871909 0.287453 0.027463
v 0.887545 0.287951 0.030603
v 0.870912 0.279405 0.026765
v 0.885712 0.280909 0.030525
v 0.871397 0.273350 0.022016
v 0.884682 0.274695 0.025027
v 0.871355 0.258432 0.019149
v 0.863009 0.272664 0.015219
v 0.863488 0.258002 0.015188
v 0.862605 0.272415 0.002554
v 0.863574 0.257273 0.006267
v 0.865054 0.271391 -0.010876
v 0.865549 0.256084 -0.006123
v 0.864722 0.238874 -0.002174
v 0.868015 0.254821 -0.019845
v 0.867064 0.238542 -0.016765
v 0.865014 0.226362 -0.015322
v 0.862392 0.226436 -0.000969
v 0.862409 0.219581 -0.014664
v 0.859342 0.219776 -0.000461
v 0.866844 0.213477 -0.012648
v 0.862821 0.213155 0.001255
v 0.877179 0.210799 -0.009401
v 0.869929 0.212880 -0.026808
v 0.880922 0.210529 -0.023510
v 0.894239 0.210067 -0.020042
v 0.884120 0.210972 -0.035963
v 0.897048 0.210152 -0.032496
v 0.909692 0.210040 -0.029194
v 0.899230 0.213290 -0.041640
v 0.911206 0.212721 -0.038795
v 0.920711 0.214254 -0.036384
v 0.886209 0.215343 -0.045390
v 0.865328 0.219752 -0.028693
v 0.867913 0.227299 -0.028422
v 0.871281 0.238048 -0.036969
v 0.869451 0.238417 -0.028833
v 0.873592 0.252048 -0.043169
v 0.873996 0.237284 -0.043150
v 0.871621 0.252831 -0.037680
v 0.870054 0.253692 -0.030612
v 0.869748 0.267944 -0.033028
v 0.867630 0.269929 -0.022932
v 0.866907 0.276986 -0.034876
v 0.864385 0.278271 -0.025560
v 0.861850 0.279602 -0.014088
v 0.859557 0.280335 0.000032
v 0.859241 0.279821 0.015549
v 0.878040 0.251150 -0.043992
v 0.883854 0.265534 -0.040413
v 0.887150 0.274163 -0.044689
v 0.897185 0.274656 -0.042494
v 0.889213 0.278877 -0.048025
v 0.898687 0.279038 -0.046553
v 0.908781 0.274439 -0.040818
v 0.919126 0.273665 -0.039122
v 0.889925 0.284594 -0.047003
v 0.899443 0.284415 -0.045679
v 0.881575 0.284622 -0.048375
v 0.874170 0.285363 -0.049097
vt 0.595077 0.964486
vt 0.596071 0.964671
vt 0.596659 0.965514
vt 0.595085 0.965745
vt 0.595687 0.967049
vt 0.596895 0.966015
vt 0.596498 0.963931
vt 0.598089 0.964367
vt 0.596323 0.964667
vt 0.598813 0.965806
vt 0.596961 0.966612
vt 0.597123 0.967790
vt 0.598442 0.967144
vt 0.048386 0.810496
vt 0.044047 0.809982
vt 0.043507 0.804688
vt 0.048612 0.807579
vt 0.037992 0.808026
vt 0.038250 0.804164
vt 0.952298 0.485211
vt 0.956487 0.484520
vt 0.958318 0.490365
vt 0.952491 0.490560
vt 0.952548 0.496417
vt 0.957368 0.496104
vt 0.047866 0.816669
vt 0.045878 0.823574
vt 0.040182 0.823397
vt 0.043614 0.816019
vt 0.043501 0.827197
vt 0.038523 0.828304
vt 0.038305 0.814455
vt 0.036985 0.820003
vt 0.030192 0.820393
vt 0.029826 0.825890
vt 0.924755 0.491477
vt 0.923459 0.493115
vt 0.922807 0.486661
vt 0.925550 0.486008
vt 0.922960 0.480229
vt 0.918946 0.482797
vt 0.916576 0.487766
vt 0.051378 0.832548
vt 0.046856 0.834227
vt 0.045388 0.830372
vt 0.047577 0.828401
vt 0.042925 0.834647
vt 0.042507 0.830607
vt 0.931805 0.484550
vt 0.931945 0.489830
vt 0.931515 0.492818
vt 0.930286 0.497149
vt 0.922833 0.496752
vt 0.915598 0.492399
vt 0.014057 0.801292
vt 0.013604 0.806065
vt 0.011351 0.806349
vt 0.010274 0.802594
vt 0.013385 0.811612
vt 0.010910 0.811033
vt 0.620416 0.956332
vt 0.620420 0.950068
vt 0.624105 0.951823
vt 0.623836 0.957277
vt 0.021911 0.829076
vt 0.021761 0.831527
vt 0.016457 0.831174
vt 0.016926 0.827723
vt 0.013985 0.826724
vt 0.013732 0.828828
vt 0.021332 0.834623
vt 0.016447 0.834778
vt 0.012749 0.835426
vt 0.012761 0.832608
vt 0.902176 0.490834
vt 0.898861 0.488080
vt 0.901782 0.480443
vt 0.905451 0.483869
vt 0.049003 0.861793
vt 0.049331 0.865747
vt 0.044508 0.866845
vt 0.045075 0.861319
vt 0.037806 0.860509
vt 0.038014 0.865003
vt 0.907371 0.479368
vt 0.905077 0.477169
vt 0.611641 0.963684
vt 0.607080 0.964407
vt 0.600902 0.956460
vt 0.609318 0.956118
vt 0.605956 0.949375
vt 0.592925 0.950924
vt 0.595752 0.961968
vt 0.591157 0.958443
vt 0.599339 0.962053
vt 0.586165 0.955782
vt 0.601797 0.965486
vt 0.582712 0.945770
vt 0.582012 0.950032
vt 0.575015 0.950331
vt 0.572832 0.948010
vt 0.579119 0.954761
vt 0.574208 0.956168
vt 0.570627 0.956904
vt 0.605022 0.944684
vt 0.593064 0.944752
vt 0.612593 0.972217
vt 0.605985 0.973576
vt 0.611881 0.979172
vt 0.604551 0.980380
vt 0.600848 0.968864
vt 0.597926 0.970159
vt 0.597195 0.975752
vt 0.596367 0.980841
vt 0.030248 0.813058
vt 0.022212 0.819307
vt 0.022245 0.812427
vt 0.022274 0.806881
vt 0.030358 0.807006
vt 0.022441 0.803839
vt 0.030551 0.803684
vt 0.950917 0.511812
vt 0.951846 0.503684
vt 0.956575 0.503531
vt 0.955620 0.511544
vt 0.944250 0.512496
vt 0.945334 0.504047
vt 0.946274 0.496829
vt 0.946314 0.490637
vt 0.937330 0.504227
vt 0.938427 0.497271
vt 0.939221 0.491990
vt 0.946143 0.486440
vt 0.938949 0.487942
vt 0.951712 0.479656
vt 0.945340 0.481089
vt 0.938311 0.482548
vt 0.943245 0.474527
vt 0.935713 0.476296
vt 0.928540 0.477675
vt 0.930754 0.469315
vt 0.923299 0.471919
vt 0.918185 0.474444
vt 0.918424 0.466713
vt 0.913402 0.470560
vt 0.914367 0.478565
vt 0.909624 0.474810
vt 0.908074 0.468879
vt 0.904780 0.473071
vt 0.911207 0.483396
vt 0.909605 0.488610
vt 0.907058 0.495349
vt 0.913690 0.500100
vt 0.905351 0.504961
vt 0.912781 0.508832
vt 0.921257 0.502997
vt 0.919684 0.511245
vt 0.911742 0.516515
vt 0.918134 0.517586
vt 0.928819 0.503889
vt 0.927010 0.512348
vt 0.925138 0.518514
vt 0.935627 0.512919
vt 0.934053 0.519305
vt 0.932518 0.523476
vt 0.924180 0.523049
vt 0.917536 0.521822
vt 0.943533 0.518925
vt 0.943112 0.523148
vt 0.950943 0.517846
vt 0.951395 0.522018
vt 0.956490 0.516799
vt 0.957449 0.520429
vt 0.614285 0.949613
vt 0.614023 0.945208
vt 0.620262 0.945672
vt 0.615802 0.955873
vt 0.620003 0.964370
vt 0.616784 0.964312
vt 0.619942 0.971631
vt 0.616976 0.971995
vt 0.619848 0.977863
vt 0.616399 0.978376
vt 0.619133 0.982868
vt 0.615110 0.983232
vt 0.610267 0.983902
vt 0.614703 0.987148
vt 0.609412 0.987595
vt 0.602186 0.987868
vt 0.603116 0.984569
vt 0.593117 0.987288
vt 0.594308 0.984328
vt 0.582687 0.985382
vt 0.585030 0.981704
vt 0.588389 0.978273
vt 0.591600 0.973997
vt 0.579643 0.974629
vt 0.583381 0.972394
vt 0.588030 0.969030
vt 0.594344 0.969128
vt 0.592723 0.966902
vt 0.582040 0.962756
vt 0.587595 0.963549
vt 0.592914 0.963476
vt 0.577585 0.963849
vt 0.575837 0.976802
vt 0.574240 0.965593
vt 0.571964 0.978932
vt 0.571125 0.967324
vt 0.897231 0.508748
vt 0.904201 0.513318
vt 0.903925 0.517662
vt 0.895978 0.512286
vt 0.910929 0.521168
vt 0.898853 0.500692
vt 0.892087 0.504999
vt 0.895105 0.497406
vt 0.019667 0.858429
vt 0.027923 0.859565
vt 0.027796 0.864428
vt 0.019211 0.864975
vt 0.020197 0.850953
vt 0.028293 0.852635
vt 0.037907 0.854325
vt 0.028727 0.845055
vt 0.037632 0.846172
vt 0.044519 0.847185
vt 0.045200 0.854868
vt 0.048833 0.847492
vt 0.049425 0.855190
vt 0.053352 0.847506
vt 0.053853 0.855341
vt 0.053430 0.862230
vt 0.925794 0.462807
vt 0.913857 0.462779
vt 0.921419 0.458727
vt 0.929149 0.455158
vt 0.933567 0.460707
vt 0.938894 0.467098
vt 0.940588 0.458984
vt 0.945497 0.465860
vt 0.949958 0.472792
vt 0.950996 0.464975
vt 0.955075 0.472050
vt 0.956418 0.478167
vt 0.052564 0.810996
vt 0.052315 0.817082
vt 0.051893 0.804927
vt 0.050313 0.824965
vt 0.946097 0.457846
vt 0.054603 0.828009
vt 0.936357 0.453621
vt 0.053127 0.839739
vt 0.047672 0.840269
vt 0.043374 0.840054
vt 0.037476 0.835012
vt 0.037357 0.839550
vt 0.029320 0.831979
vt 0.037845 0.831401
vt 0.029126 0.835111
vt 0.028962 0.838989
vt 0.021264 0.838310
vt 0.020506 0.844024
vt 0.016131 0.838564
vt 0.015920 0.843726
vt 0.015562 0.849911
vt 0.012661 0.843338
vt 0.012559 0.849513
vt 0.015673 0.857725
vt 0.012509 0.857055
vt 0.015452 0.865947
vt 0.011943 0.866151
vt 0.889310 0.507760
vt 0.578487 0.986809
vt 0.012633 0.838852
vt 0.029789 0.829570
vt 0.021913 0.825454
vt 0.016903 0.823979
vt 0.016564 0.818481
vt 0.013827 0.822911
vt 0.013640 0.817744
vt 0.016433 0.811909
vt 0.016657 0.806249
vt 0.016846 0.802436
vt 0.011136 0.822171
vt 0.011050 0.817140
vt 0.623285 0.964949
vt 0.622900 0.971648
vt 0.011278 0.826134
vt 0.622686 0.977459
vt 0.011251 0.829994
vt 0.622133 0.982213
vt 0.618854 0.986520
vt 0.621765 0.986427
vt 0.053192 0.866747
vt 0.048410 0.801340
vt 0.902185 0.474813
vn 0.4322 0.2678 0.8611
vn 0.4334 0.4007 0.8072
vn 0.3284 0.9013 0.2824
vn -0.2617 0.4457 0.8561
vn -0.6600 0.4335 0.6136
vn -0.2692 0.9429 -0.1962
vn 0.9640 0.2293 0.1345
vn 0.7564 0.3688 -0.5403
vn 0.9452 0.3248 -0.0318
vn 0.1837 0.4631 -0.8670
vn -0.8318 0.5549 0.0167
vn -0.9000 0.4301 -0.0713
vn -0.5397 0.4436 -0.7155
vn 0.2051 -0.0104 -0.9787
vn 0.1520 0.4623 -0.8736
vn 0.7147 0.2992 -0.6322
vn 0.4039 -0.0066 -0.9148
vn 0.1311 0.1902 -0.9730
vn 0.7854 0.1185 -0.6075
vn 0.9750 -0.2180 0.0422
vn 0.9547 -0.1014 -0.2799
vn 0.9534 0.2962 0.0574
vn 0.9952 0.0804 0.0564
vn 0.1895 0.0691 -0.9794
vn 0.1931 0.1881 -0.9630
vn 0.3687 0.3971 -0.8404
vn 0.1457 0.5183 -0.8427
vn 0.1270 0.2230 -0.9665
vn 0.2464 0.2178 -0.9444
vn 0.0830 0.2709 -0.9590
vn 0.2185 0.2115 -0.9526
vn 0.2336 -0.0253 -0.9720
vn 0.5310 -0.0084 -0.8474
vn 0.8181 0.0248 0.5745
vn 0.4882 0.3716 0.7897
vn 0.1116 -0.4503 0.8859
vn 0.4899 -0.7656 0.4169
vn 0.0175 -0.9877 0.1555
vn -0.1270 -0.6531 0.7466
vn -0.1771 0.2037 0.9629
vn -0.4752 -0.7757 -0.4153
vn -0.8829 -0.1768 -0.4349
vn -0.5605 -0.0451 -0.8269
vn -0.2396 -0.4032 -0.8832
vn -0.9264 0.1761 -0.3329
vn -0.5467 0.2179 -0.8085
vn 0.4890 -0.8612 0.1387
vn 0.9633 -0.1157 0.2422
vn 0.9093 0.3422 0.2368
vn 0.9453 0.1599 0.2845
vn 0.4824 0.2856 0.8281
vn -0.1859 0.3447 0.9201
vn 0.9481 0.0454 -0.3148
vn 0.4971 -0.2957 -0.8158
vn 0.4067 0.3934 -0.8245
vn 0.5774 0.7126 -0.3984
vn 0.0962 -0.3704 -0.9239
vn 0.1172 0.4493 -0.8857
vn 0.1734 0.8491 -0.4989
vn 0.2852 -0.2408 -0.9277
vn -0.5439 -0.1770 -0.8203
vn -0.4450 -0.3888 -0.8067
vn 0.1868 -0.4632 -0.8663
vn 0.1770 -0.1636 -0.9705
vn -0.0330 -0.1285 -0.9912
vn -0.9226 -0.1562 -0.3526
vn -0.8669 -0.3860 -0.3153
vn -0.8974 0.2261 -0.3790
vn -0.7382 -0.0449 -0.6731
vn -0.2049 0.1668 0.9645
vn -0.7653 0.1824 0.6173
vn -0.6470 0.3813 0.6603
vn -0.1233 0.3794 0.9170
vn -0.9989 -0.0308 -0.0368
vn -0.9478 0.0314 0.3173
vn -0.9330 0.3553 -0.0577
vn -0.9947 0.0970 -0.0346
vn -0.1721 0.0263 0.9847
vn -0.3684 0.0305 0.9292
vn 0.1190 0.8717 -0.4753
vn 0.2073 0.6685 -0.7142
vn 0.7367 0.6603 -0.1456
vn 0.4626 0.8422 -0.2770
vn 0.6516 0.7578 -0.0336
vn 0.6481 0.7447 0.1593
vn 0.7984 0.4200 0.4315
vn 0.5701 0.6770 0.4656
vn 0.8527 0.4084 -0.3256
vn 0.3637 0.8422 0.3981
vn 0.2597 0.4058 -0.8763
vn 0.9167 0.1616 0.3655
vn 0.5842 0.7278 0.3591
vn 0.4011 0.4854 0.7769
vn 0.4873 -0.1751 0.8555
vn 0.1961 0.8537 0.4824
vn -0.0075 0.4760 0.8794
vn -0.1421 -0.3118 0.9395
vn 0.9313 0.3523 0.0923
vn 0.9234 0.3384 0.1813
vn -0.1850 0.8767 -0.4441
vn -0.4470 0.6974 -0.5601
vn -0.3852 0.8663 -0.3179
vn -0.5339 0.8003 -0.2729
vn -0.5097 0.4314 -0.7444
vn -0.8598 0.4642 -0.2130
vn -0.7541 0.6245 -0.2035
vn -0.6288 0.7637 -0.1461
vn 0.0444 -0.0201 -0.9988
vn 0.1955 -0.3183 -0.9276
vn 0.0424 -0.2726 -0.9612
vn 0.2414 -0.2164 -0.9460
vn 0.1463 -0.0184 -0.9891
vn 0.8823 -0.1656 -0.4405
vn 0.8429 -0.0224 -0.5376
vn 0.9862 -0.1262 0.1076
vn 0.9946 -0.0048 0.1041
vn 0.9769 -0.1443 0.1574
vn 0.9873 0.0064 0.1587
vn 0.9798 0.1296 0.1523
vn 0.9533 0.2603 0.1533
vn 0.9842 0.0093 0.1766
vn 0.9728 0.1484 0.1778
vn 0.9520 0.2521 0.1738
vn 0.9472 -0.2688 0.1750
vn 0.9397 -0.2793 0.1972
vn 0.4279 -0.9003 -0.0796
vn 0.4067 -0.9090 0.0913
vn 0.4176 -0.9010 0.1178
vn 0.0431 -0.9989 0.0200
vn 0.0531 -0.9980 0.0346
vn 0.0632 -0.9976 0.0288
vn -0.0246 -0.9996 0.0128
vn -0.0257 -0.9996 0.0109
vn -0.0465 -0.9909 0.1264
vn -0.1323 -0.9912 -0.0015
vn -0.1871 -0.9749 0.1205
vn -0.1314 -0.7382 0.6616
vn -0.2478 -0.7572 0.6044
vn -0.6124 -0.7853 0.0903
vn -0.6316 -0.5098 0.5841
vn -0.1605 0.0841 0.9834
vn -0.1312 0.3662 0.9212
vn -0.1505 0.1210 0.9812
vn -0.2378 0.0693 0.9688
vn -0.1586 -0.1094 0.9813
vn -0.2507 -0.0960 0.9633
vn 0.3958 0.0362 0.9176
vn 0.3770 -0.1041 0.9204
vn -0.1864 -0.4609 0.8677
vn 0.3744 -0.4217 0.8259
vn 0.9581 0.0122 0.2862
vn 0.9444 -0.1061 0.3111
vn 0.9127 -0.2455 0.3266
vn 0.9734 -0.1405 0.1812
vn 0.9591 -0.2123 0.1871
vn 0.9669 -0.2079 0.1482
vn 0.9717 -0.2169 0.0933
vn 0.9522 0.3048 0.0185
vn 0.8787 -0.3408 -0.3344
vn 0.5816 0.8037 -0.1259
vn 0.2947 0.8977 -0.3276
vn 0.1079 0.7919 -0.6010
vn 0.1120 0.8671 -0.4854
vn 0.0341 0.8026 -0.5955
vn -0.0497 0.8681 -0.4939
vn -0.0533 0.8870 -0.4586
vn -0.2243 0.8978 -0.3789
vn -0.3652 0.8554 -0.3674
vn -0.4548 0.8505 -0.2642
vn -0.5242 0.8200 -0.2298
vn -0.9263 0.2559 -0.2764
vn -0.9305 0.2775 -0.2391
vn -0.9298 0.3158 -0.1890
vn -0.5682 0.8023 -0.1826
vn -0.9270 0.3637 -0.0914
vn -0.6055 0.7884 -0.1085
vn -0.8545 0.3831 0.3508
vn -0.5497 0.8111 0.1998
vn -0.5446 0.8259 0.1458
vn -0.6881 0.6893 0.2267
vn -0.2921 0.7980 0.5271
vn -0.2650 0.8552 0.4455
vn -0.3380 0.7166 0.6101
vn -0.7713 0.5454 0.3280
vn -0.3315 0.5757 0.7474
vn 0.0119 0.8510 0.5250
vn 0.1080 0.7054 0.7005
vn 0.2886 0.5098 0.8104
vn -0.0597 0.8057 0.5893
vn -0.4333 0.3714 0.8212
vn -0.1676 0.4167 0.8935
vn -0.4386 -0.2906 0.8504
vn -0.1758 -0.3406 0.9236
vn -0.3897 -0.3658 0.8452
vn -0.1362 -0.4599 0.8774
vn -0.3186 -0.0613 0.9459
vn -0.8485 -0.2907 0.4422
vn -0.8530 -0.0233 0.5214
vn -0.9659 -0.2489 -0.0709
vn -0.9977 -0.0313 -0.0605
vn -0.9559 -0.2477 -0.1579
vn -0.9856 -0.0363 -0.1651
vn -0.9831 0.0888 -0.1599
vn -0.9828 -0.0249 -0.1830
vn -0.9799 0.0811 -0.1824
vn -0.9504 0.2501 -0.1849
vn -0.9446 0.2804 -0.1706
vn -0.9693 -0.1333 -0.2067
vn -0.9797 -0.0902 -0.1788
vn -0.5384 -0.8344 -0.1184
vn -0.5790 -0.8114 -0.0807
vn -0.1257 -0.9920 -0.0149
vn -0.5400 -0.8244 -0.1696
vn -0.1259 -0.9913 -0.0386
vn -0.0246 -0.9997 -0.0028
vn -0.1058 -0.9577 -0.2675
vn -0.0006 -0.9841 -0.1775
vn 0.0825 -0.9865 -0.1414
vn 0.0948 -0.7357 -0.6707
vn 0.1590 -0.7961 -0.5839
vn 0.5262 -0.6546 -0.5428
vn -0.0109 -0.6161 -0.7876
vn -0.9489 -0.1621 -0.2708
vn -0.9526 0.2035 -0.2259
vn -0.9489 0.0625 -0.3094
vn -0.9753 0.0717 -0.2089
vn -0.6300 -0.0287 -0.7760
vn -0.6266 0.0847 -0.7747
vn -0.9514 -0.0170 -0.3075
vn -0.9779 -0.0188 -0.2084
vn -0.9574 -0.1945 -0.2132
vn -0.9576 -0.2319 -0.1712
vn -0.9143 -0.3455 -0.2115
vn -0.9241 -0.3437 -0.1670
vn -0.9360 -0.3220 -0.1421
vn -0.9622 -0.2648 -0.0632
vn -0.8951 -0.2318 0.3808
vn 0.2925 -0.0160 -0.9561
vn 0.4331 -0.3061 -0.8478
vn 0.2656 -0.5420 -0.7973
vn 0.1450 -0.6006 -0.7863
vn 0.1973 -0.2507 -0.9477
vn 0.1313 -0.3081 -0.9423
vn 0.0687 -0.5872 -0.8065
vn 0.3557 -0.5112 -0.7824
vn 0.1265 0.5109 -0.8503
vn 0.1143 0.4809 -0.8693
vn 0.1201 0.5933 -0.7959
vn -0.2006 0.5864 -0.7848
f 1/1/1 2/2/2 3/3/3 4/4/4
f 5/5/5 4/4/4 3/3/3 6/6/6
f 7/7/7 8/8/8 3/3/3 9/9/9
f 10/10/10 6/6/6 3/3/3 8/8/8
f 5/5/5 6/6/6 11/11/11 12/12/12
f 10/10/10 13/13/13 11/11/11 6/6/6
f 14/14/14 15/15/15 16/16/16 17/17/17
f 18/18/18 19/19/19 16/16/16 15/15/15
f 20/20/20 21/21/21 16/22/16 22/23/22
f 23/24/23 22/23/22 16/22/16 19/25/19
f 24/26/24 25/27/25 26/28/26 27/29/27
f 28/30/28 29/31/29 26/28/26 25/27/25
f 30/32/30 27/29/27 26/28/26 31/33/31
f 32/34/32 31/33/31 26/28/26 33/35/33
f 34/36/34 35/37/35 36/38/36 37/39/37
f 38/40/38 37/39/37 36/38/36 39/41/39
f 40/42/40 39/41/39 36/38/36 35/37/35
f 41/43/41 42/44/42 43/45/43 44/46/44
f 45/47/45 46/48/46 43/45/43 42/44/42
f 28/30/28 44/46/44 43/45/43 46/48/46
f 47/49/47 48/50/48 34/36/34 37/39/37
f 49/51/49 35/37/35 34/36/34 48/50/48
f 50/52/50 51/53/51 35/37/35 49/51/49
f 52/54/52 40/42/40 35/37/35 51/53/51
f 53/55/53 54/56/54 55/57/55 56/58/56
f 57/59/57 58/60/58 55/57/55 54/56/54
f 59/61/59 56/62/56 55/63/55 58/64/58
f 60/65/60 61/66/61 62/67/62 63/68/63
f 64/69/64 63/68/63 62/67/62 65/70/65
f 66/71/66 67/72/67 62/67/62 61/66/61
f 68/73/68 69/74/69 62/67/62 67/72/67
f 70/75/70 71/76/71 72/77/72 73/78/73
f 74/79/74 75/80/75 72/81/72 76/82/76
f 77/83/77 76/82/76 72/81/72 71/84/71
f 78/85/78 73/78/73 72/77/72 79/86/79
f 80/87/80 81/88/81 82/89/82 83/90/83
f 84/91/84 83/90/83 82/89/82 85/92/85
f 86/93/86 87/94/87 82/89/82 88/95/88
f 89/96/89 85/92/85 82/89/82 87/94/87
f 90/97/90 88/95/88 82/89/82 81/88/81
f 91/98/91 92/99/92 93/100/93 94/101/94
f 95/102/95 96/103/96 93/100/93 92/99/92
f 97/104/97 94/101/94 93/100/93 96/103/96
f 98/105/98 84/91/84 85/92/85 99/106/99
f 91/98/91 99/106/99 85/92/85 92/99/92
f 95/102/95 92/99/92 85/92/85 89/96/89
f 80/87/80 100/107/100 101/108/101 81/88/81
f 102/109/102 103/110/103 101/108/101 100/107/100
f 90/97/90 81/88/81 101/108/101 104/111/104
f 105/112/105 104/111/104 101/108/101 106/113/106
f 107/114/107 106/113/106 101/108/101 103/110/103
f 108/115/108 30/32/30 31/33/31 32/34/32
f 109/116/109 110/117/110 108/115/108 32/34/32
f 111/118/111 112/119/112 108/115/108 110/117/110
f 18/18/18 30/32/30 108/115/108 112/119/112
f 113/120/113 114/121/114 112/119/112 111/118/111
f 19/19/19 18/18/18 112/119/112 114/121/114
f 115/122/115 116/123/116 114/124/114 113/125/113
f 23/24/23 19/25/19 114/124/114 116/123/116
f 117/126/117 118/127/118 116/123/116 115/122/115
f 119/128/119 23/24/23 116/123/116 118/127/118
f 22/23/22 23/24/23 119/128/119 120/129/120
f 121/130/121 122/131/122 119/128/119 118/127/118
f 123/132/123 120/129/120 119/128/119 122/131/122
f 124/133/124 120/129/120 123/132/123 125/134/125
f 50/52/50 49/51/49 123/132/123 122/131/122
f 48/50/48 125/134/125 123/132/123 49/51/49
f 126/135/126 20/20/20 124/133/124 127/136/127
f 22/23/22 120/129/120 124/133/124 20/20/20
f 128/137/128 127/136/127 124/133/124 125/134/125
f 129/138/129 127/136/127 128/137/128 130/139/130
f 48/50/48 47/49/47 128/137/128 125/134/125
f 131/140/131 130/139/130 128/137/128 47/49/47
f 132/141/132 130/139/130 131/140/131 133/142/133
f 37/39/37 38/40/38 131/140/131 47/49/47
f 134/143/134 133/142/133 131/140/131 38/40/38
f 135/144/135 133/142/133 134/143/134 136/145/136
f 39/41/39 137/146/137 134/143/134 38/40/38
f 138/147/138 136/145/136 134/143/134 137/146/137
f 139/148/139 136/145/136 138/147/138 140/149/140
f 141/150/141 78/85/78 138/147/138 137/146/137
f 79/86/79 140/149/140 138/147/138 78/85/78
f 39/41/39 40/42/40 141/150/141 137/146/137
f 52/54/52 142/151/142 141/150/141 40/42/40
f 73/78/73 78/85/78 141/150/141 142/151/142
f 70/75/70 73/78/73 142/151/142 143/152/143
f 144/153/144 143/152/143 142/151/142 52/54/52
f 145/154/145 143/152/143 144/153/144 146/155/146
f 51/53/51 147/156/147 144/153/144 52/54/52
f 148/157/148 146/155/146 144/153/144 147/156/147
f 149/158/149 146/155/146 148/157/148 150/159/150
f 151/160/151 152/161/152 148/157/148 147/156/147
f 153/162/153 150/159/150 148/157/148 152/161/152
f 154/163/154 155/164/155 153/162/153 152/161/152
f 99/165/99 91/166/91 153/162/153 155/164/155
f 94/167/94 150/159/150 153/162/153 91/166/91
f 117/126/117 156/168/156 155/164/155 154/163/154
f 98/169/98 99/165/99 155/164/155 156/168/156
f 115/122/115 157/170/157 156/168/156 117/126/117
f 158/171/158 98/169/98 156/168/156 157/170/157
f 159/172/159 53/173/53 158/171/158 157/170/157
f 56/62/56 160/174/160 158/175/158 53/176/53
f 84/91/84 98/105/98 158/175/158 160/174/160
f 59/61/59 161/177/161 160/174/160 56/62/56
f 83/90/83 84/91/84 160/174/160 161/177/161
f 162/178/162 163/179/163 161/177/161 59/61/59
f 80/87/80 83/90/83 161/177/161 163/179/163
f 164/180/164 165/181/165 163/179/163 162/178/162
f 100/107/100 80/87/80 163/179/163 165/181/165
f 166/182/166 167/183/167 165/181/165 164/180/164
f 102/109/102 100/107/100 165/181/165 167/183/167
f 168/184/168 169/185/169 167/183/167 166/182/166
f 170/186/170 102/109/102 167/183/167 169/185/169
f 171/187/171 172/188/172 170/186/170 169/185/169
f 173/189/173 174/190/174 170/186/170 172/188/172
f 103/110/103 102/109/102 170/186/170 174/190/174
f 175/191/175 176/192/176 174/190/174 173/189/173
f 107/114/107 103/110/103 174/190/174 176/192/176
f 177/193/177 178/194/178 176/192/176 175/191/175
f 179/195/179 107/114/107 176/192/176 178/194/178
f 106/113/106 107/114/107 179/195/179 180/196/180
f 181/197/181 182/198/182 179/195/179 178/194/178
f 183/199/183 180/196/180 179/195/179 182/198/182
f 184/200/184 180/196/180 183/199/183 185/201/185
f 186/202/186 187/203/187 183/199/183 182/198/182
f 188/204/188 185/201/185 183/199/183 187/203/187
f 4/4/4 185/201/185 188/204/188 1/1/1
f 87/94/87 86/93/86 188/204/188 187/203/187
f 7/7/7 1/1/1 188/204/188 86/93/86
f 89/96/89 87/94/87 187/203/187 186/202/186
f 181/197/181 189/205/189 186/202/186 182/198/182
f 95/102/95 89/96/89 186/202/186 189/205/189
f 190/206/190 191/207/191 189/205/189 181/197/181
f 96/103/96 95/102/95 189/205/189 191/207/191
f 192/208/192 193/209/193 191/207/191 190/206/190
f 97/104/97 96/103/96 191/207/191 193/209/193
f 194/210/194 195/211/195 193/212/193 192/213/192
f 149/158/149 97/214/97 193/212/193 195/211/195
f 196/215/196 145/154/145 195/211/195 194/210/194
f 146/155/146 149/158/149 195/211/195 145/154/145
f 197/216/197 198/217/198 196/215/196 194/210/194
f 71/76/71 70/75/70 196/215/196 198/217/198
f 143/152/143 145/154/145 196/215/196 70/75/70
f 199/218/199 200/219/200 198/220/198 197/221/197
f 77/83/77 71/84/71 198/220/198 200/219/200
f 201/222/201 202/223/202 200/219/200 199/218/199
f 203/224/203 77/83/77 200/219/200 202/223/202
f 204/225/204 205/226/205 203/224/203 202/223/202
f 206/227/206 207/228/207 203/224/203 205/226/205
f 76/82/76 77/83/77 203/224/203 207/228/207
f 208/229/208 209/230/209 207/228/207 206/227/206
f 74/79/74 76/82/76 207/228/207 209/230/209
f 210/231/210 211/232/211 209/230/209 208/229/208
f 139/233/139 74/79/74 209/230/209 211/232/211
f 212/234/212 135/144/135 211/235/211 210/236/210
f 136/145/136 139/148/139 211/235/211 135/144/135
f 213/237/213 214/238/214 212/234/212 210/236/210
f 215/239/215 132/141/132 212/234/212 214/238/214
f 133/142/133 135/144/135 212/234/212 132/141/132
f 216/240/216 217/241/217 215/239/215 214/238/214
f 218/242/218 129/138/129 215/239/215 217/241/217
f 130/139/130 132/141/132 215/239/215 129/138/129
f 219/243/219 220/244/220 218/242/218 217/241/217
f 221/245/221 126/135/126 218/242/218 220/244/220
f 127/136/127 129/138/129 218/242/218 126/135/126
f 24/26/24 14/14/14 220/246/220 219/247/219
f 17/17/17 221/248/221 220/246/220 14/14/14
f 25/27/25 24/26/24 219/247/219 222/249/222
f 216/240/216 222/250/222 219/243/219 217/241/217
f 28/30/28 25/27/25 222/249/222 44/46/44
f 41/43/41 44/46/44 222/249/222 216/251/216
f 213/237/213 41/252/41 216/240/216 214/238/214
f 42/44/42 41/43/41 213/253/213 223/254/223
f 208/229/208 223/254/223 213/253/213 210/231/210
f 45/47/45 42/44/42 223/254/223 224/255/224
f 206/227/206 224/255/224 223/254/223 208/229/208
f 225/256/225 45/47/45 224/255/224 226/257/226
f 205/226/205 226/257/226 224/255/224 206/227/206
f 227/258/227 228/259/228 225/256/225 229/260/229
f 46/48/46 45/47/45 225/256/225 228/259/228
f 230/261/230 229/260/229 225/256/225 226/257/226
f 66/71/66 229/260/229 230/261/230 231/262/231
f 205/226/205 204/225/204 230/261/230 226/257/226
f 232/263/232 231/262/231 230/261/230 204/225/204
f 233/264/233 231/262/231 232/263/232 234/265/234
f 202/223/202 201/222/201 232/263/232 204/225/204
f 235/266/235 234/265/234 232/263/232 201/222/201
f 172/267/172 234/265/234 235/266/235 173/268/173
f 199/218/199 236/269/236 235/266/235 201/222/201
f 175/270/175 173/268/173 235/266/235 236/269/236
f 197/221/197 237/271/237 236/269/236 199/218/199
f 177/272/177 175/270/175 236/269/236 237/271/237
f 194/210/194 192/213/192 237/273/237 197/216/197
f 190/206/190 177/193/177 237/274/237 192/208/192
f 68/73/68 67/72/67 233/264/233 171/275/171
f 66/71/66 231/262/231 233/264/233 67/72/67
f 172/267/172 171/275/171 233/264/233 234/265/234
f 238/276/238 29/31/29 228/259/228 227/258/227
f 28/30/28 46/48/46 228/259/228 29/31/29
f 239/277/239 33/35/33 238/276/238 60/65/60
f 26/28/26 29/31/29 238/276/238 33/35/33
f 61/66/61 60/65/60 238/276/238 227/258/227
f 63/68/63 240/278/240 239/277/239 60/65/60
f 241/279/241 109/116/109 239/277/239 240/278/240
f 32/34/32 33/35/33 239/277/239 109/116/109
f 242/280/242 243/281/243 241/279/241 240/278/240
f 57/59/57 244/282/244 241/279/241 243/281/243
f 110/117/110 109/116/109 241/279/241 244/282/244
f 54/56/54 245/283/245 244/282/244 57/59/57
f 111/118/111 110/117/110 244/282/244 245/283/245
f 53/55/53 159/284/159 245/283/245 54/56/54
f 113/120/113 111/118/111 245/283/245 159/284/159
f 246/285/246 247/286/247 243/281/243 242/280/242
f 58/60/58 57/59/57 243/281/243 247/286/247
f 164/180/164 162/178/162 247/287/247 246/288/246
f 59/61/59 58/64/58 247/287/247 162/178/162
f 64/69/64 248/289/248 246/285/246 242/280/242
f 166/182/166 164/180/164 246/288/246 248/290/248
f 65/70/65 249/291/249 248/289/248 64/69/64
f 168/184/168 166/182/166 248/290/248 249/292/249
f 63/68/63 64/69/64 242/280/242 240/278/240
f 66/71/66 61/66/61 227/258/227 229/260/229
f 178/194/178 177/193/177 190/206/190 181/197/181
f 12/12/12 105/112/105 184/200/184 5/5/5
f 106/113/106 180/196/180 184/200/184 105/112/105
f 4/4/4 5/5/5 184/200/184 185/201/185
f 168/184/168 68/293/68 171/187/171 169/185/169
f 69/294/69 68/293/68 168/184/168 249/292/249
f 115/122/115 113/125/113 159/172/159 157/170/157
f 118/127/118 117/126/117 154/163/154 121/130/121
f 151/160/151 121/130/121 154/163/154 152/161/152
f 122/131/122 121/130/121 151/160/151 50/52/50
f 51/53/51 50/52/50 151/160/151 147/156/147
f 94/167/94 97/214/97 149/158/149 150/159/150
f 75/80/75 74/79/74 139/233/139 140/295/140
f 21/21/21 20/20/20 126/135/126 221/245/221
f 13/13/13 104/111/104 105/112/105 12/12/12
f 10/10/10 90/97/90 104/111/104 13/13/13
f 8/8/8 88/95/88 90/97/90 10/10/10
f 8/8/8 7/7/7 86/93/86 88/95/88
f 15/15/15 27/29/27 30/32/30 18/18/18
f 15/15/15 14/14/14 24/26/24 27/29/27
f 2/2/2 1/1/1 7/7/7 9/9/9
f 221/248/221 17/17/17 16/16/16 21/296/21
f 140/149/140 79/86/79 72/77/72 75/297/75
f 249/291/249 65/70/65 62/67/62 69/74/69
f 11/11/11 13/13/13 12/12/12
f 3/3/3 2/2/2 9/9/9
