# split from a merged terrain OBJ by scripts/split-terrain-obj-parts.py
o part-015
v 0.819914 0.954199 0.006500
v 0.812464 0.946254 0.003780
v 0.815934 0.948108 -0.004424
v 0.821986 0.953796 -0.004839
v 0.802194 0.939101 -0.002428
v 0.811180 0.943193 -0.012188
v 0.816999 0.951442 -0.017600
v 0.828076 1.025285 -0.003793
v 0.821722 1.027615 -0.000741
v 0.827331 1.026959 0.007294
v 0.827991 1.023007 0.007082
v 0.821894 1.021987 0.014878
v 0.820244 1.026409 0.012325
v 0.814860 1.027144 0.004674
v 0.815877 1.018884 0.020525
v 0.815633 1.013918 0.019716
v 0.819600 1.014707 0.015871
v 0.813636 1.007743 0.020385
v 0.810704 1.011006 0.023271
v 0.811186 1.016522 0.023849
v 0.791309 0.949648 0.041033
v 0.794394 0.942524 0.040200
v 0.798943 0.951116 0.023657
v 0.804477 0.952776 0.027572
v 0.812976 0.952814 0.018839
v 0.800332 0.944711 0.018044
v 0.791276 0.933994 0.036169
v 0.813698 1.024841 0.018620
v 0.807496 1.022093 0.023802
v 0.803277 1.014918 0.026451
v 0.781225 0.932039 0.031067
v 0.791842 0.935883 0.012421
v 0.801206 1.007337 0.026046
v 0.798626 0.996208 0.027656
v 0.813393 0.999518 0.019942
v 0.806734 1.022724 -0.036854
v 0.798416 1.021013 -0.042576
v 0.799859 1.026387 -0.044448
v 0.805415 1.028089 -0.034540
v 0.800859 1.028089 -0.028829
v 0.794811 1.027369 -0.035090
v 0.792204 1.021287 -0.036859
v 0.783236 1.017606 0.005373
v 0.781599 1.004150 0.013314
v 0.788142 1.010862 0.018553
v 0.790008 1.020054 0.014762
v 0.797362 1.018794 0.022832
v 0.794428 1.008752 0.023227
v 0.791542 0.998030 0.022703
v 0.814115 0.992762 0.019338
v 0.803132 0.989470 0.031837
v 0.792586 0.988211 0.045922
v 0.786753 0.989497 0.040844
v 0.780197 0.990451 0.032893
v 0.785221 1.013592 -0.029711
v 0.778437 1.014183 -0.022787
v 0.780945 1.019119 -0.024997
v 0.786005 1.020466 -0.030251
v 0.789319 1.026326 -0.027727
v 0.782633 1.025431 -0.021087
v 0.775847 1.021762 -0.015954
v 0.812148 1.011958 -0.028080
v 0.810894 1.005355 -0.028819
v 0.800853 1.000248 -0.039865
v 0.804045 1.009570 -0.037629
v 0.810549 0.997260 -0.030347
v 0.803613 0.992309 -0.045482
v 0.796529 1.007432 -0.039206
v 0.794625 0.998610 -0.038640
v 0.778039 0.972378 0.073706
v 0.776535 0.980155 0.074830
v 0.768346 0.976757 0.080520
v 0.768132 0.969804 0.081858
v 0.771867 0.986175 0.072021
v 0.762573 0.980848 0.079490
v 0.758485 0.971757 0.081052
v 0.777344 1.015767 -0.003405
v 0.772640 1.005451 0.001399
v 0.765003 0.998110 0.007813
v 0.772776 0.991420 0.021611
v 0.772267 0.943286 -0.085883
v 0.770567 0.933229 -0.085084
v 0.766326 0.936890 -0.085280
v 0.765100 0.944051 -0.080801
v 0.756446 0.933666 -0.075060
v 0.754947 0.939361 -0.074006
v 0.767809 0.929634 0.072820
v 0.763016 0.940592 0.071957
v 0.762199 0.936270 0.077124
v 0.760918 0.927409 0.074924
v 0.757818 0.942759 0.066692
v 0.755994 0.937135 0.072367
v 0.756682 0.930826 0.075612
v 0.749297 0.938659 0.062088
v 0.749338 0.931810 0.065340
v 0.752174 0.926273 0.065787
v 0.765655 0.950131 0.069127
v 0.761109 0.949256 0.071107
v 0.768259 0.941686 0.067390
v 0.772444 0.932130 0.068089
v 0.756368 0.950339 0.066811
v 0.766744 0.980623 -0.088160
v 0.767966 0.988112 -0.086633
v 0.775068 0.987387 -0.090634
v 0.774641 0.980600 -0.092674
v 0.780574 0.981264 -0.087486
v 0.778761 0.989076 -0.085745
v 0.772078 0.991480 -0.080920
v 0.769427 1.004467 -0.009629
v 0.758914 0.997897 -0.008540
v 0.773932 0.999429 -0.020868
v 0.767668 0.993598 -0.027087
v 0.760388 0.992673 -0.038592
v 0.746075 0.993541 -0.021952
v 0.731481 0.993652 -0.009641
v 0.742581 0.999295 0.004071
v 0.753218 0.999287 0.019883
v 0.742618 0.928924 -0.007649
v 0.735555 0.927790 -0.000099
v 0.731000 0.927392 -0.008218
v 0.735266 0.927886 -0.016351
v 0.728149 0.926787 0.004543
v 0.723558 0.926686 -0.008435
v 0.727833 0.927013 -0.022142
v 0.715597 0.946851 0.006481
v 0.714900 0.952871 0.007231
v 0.705904 0.954342 -0.010378
v 0.706635 0.948350 -0.009790
v 0.697113 0.959950 -0.013414
v 0.702670 0.961317 -0.019971
v 0.703649 0.959656 -0.004348
v 0.712666 0.958684 0.009362
v 0.717588 0.950829 -0.026896
v 0.716337 0.957624 -0.028346
v 0.713182 0.963915 -0.031791
v 0.702759 0.969546 -0.021112
v 0.697463 0.968222 -0.012361
v 0.701751 0.967242 -0.000856
v 0.711836 0.988724 -0.009257
v 0.705247 0.986238 -0.016973
v 0.699847 0.982295 -0.010011
v 0.703029 0.984515 -0.001946
v 0.702384 0.978043 -0.020570
v 0.697130 0.975523 -0.011147
v 0.701065 0.975703 0.000288
v 0.709888 0.967169 0.011869
v 0.709285 0.977557 0.011976
v 0.711049 0.987062 0.009051
v 0.720258 0.978162 0.026535
v 0.723685 0.989153 0.023348
v 0.731321 0.995596 0.014270
v 0.719332 0.991326 0.001196
v 0.722794 0.990257 -0.019169
v 0.729494 0.989979 -0.039478
v 0.715511 0.988027 -0.026690
v 0.736643 0.991740 -0.031851
v 0.725565 0.983510 -0.044888
v 0.712172 0.980964 -0.031091
v 0.725869 0.974579 -0.045928
v 0.712605 0.972272 -0.031814
v 0.726599 0.965930 -0.046112
v 0.741817 0.959915 -0.061086
v 0.728062 0.957862 -0.045670
v 0.741846 0.968499 -0.061862
v 0.741798 0.977208 -0.061904
v 0.751734 0.970714 -0.072665
v 0.751220 0.979471 -0.072366
v 0.742442 0.985702 -0.060487
v 0.751664 0.987482 -0.070483
v 0.759138 0.980601 -0.081181
v 0.760000 0.988286 -0.079437
v 0.746738 0.990597 -0.055307
v 0.756220 0.991614 -0.064999
v 0.764353 0.991585 -0.073899
v 0.762381 0.992491 -0.057777
v 0.770028 0.992381 -0.066785
v 0.776414 0.992013 -0.073323
v 0.782155 0.990076 -0.077963
v 0.776174 0.992762 -0.057230
v 0.781972 0.992483 -0.063533
v 0.787145 0.991478 -0.068495
v 0.785132 0.982935 -0.080554
v 0.790195 0.985417 -0.071943
v 0.787927 0.992865 -0.051996
v 0.793704 0.992574 -0.056256
v 0.797879 0.988615 -0.061414
v 0.805933 0.985433 -0.048965
v 0.797360 0.980711 -0.062798
v 0.790479 0.976991 -0.072985
v 0.796631 0.972007 -0.063613
v 0.789767 0.967457 -0.073052
v 0.784560 0.964524 -0.079939
v 0.785030 0.974408 -0.080907
v 0.780253 0.962957 -0.085072
v 0.780443 0.972622 -0.087211
v 0.774190 0.961631 -0.089070
v 0.773930 0.971528 -0.092008
v 0.766562 0.962156 -0.086673
v 0.766350 0.971917 -0.088140
v 0.759859 0.962270 -0.080758
v 0.759489 0.971963 -0.081310
v 0.752295 0.961512 -0.072129
v 0.762296 0.952275 -0.078952
v 0.754516 0.952802 -0.070423
v 0.744687 0.953146 -0.058644
v 0.755930 0.945409 -0.070170
v 0.745551 0.946086 -0.058290
v 0.731961 0.945846 -0.043109
v 0.731323 0.952572 -0.043309
v 0.717684 0.944684 -0.026595
v 0.730421 0.941415 -0.045538
v 0.715732 0.939884 -0.028666
v 0.703709 0.939389 -0.009699
v 0.705379 0.944107 -0.009349
v 0.711623 0.937580 0.009807
v 0.714528 0.941231 0.007467
v 0.723097 0.936359 0.025872
v 0.725029 0.940870 0.023401
v 0.726315 0.945925 0.021580
v 0.735219 0.939909 0.038884
v 0.736404 0.945467 0.036931
v 0.735033 0.952022 0.036844
v 0.724836 0.952351 0.021860
v 0.732118 0.957842 0.037905
v 0.722314 0.958262 0.023311
v 0.729921 0.964951 0.038027
v 0.720070 0.966320 0.025456
v 0.731495 0.975619 0.035302
v 0.737637 0.966252 0.050600
v 0.737016 0.975977 0.048087
v 0.741681 0.984742 0.045188
v 0.735376 0.986425 0.033266
v 0.750444 0.989830 0.041183
v 0.742366 0.995527 0.028536
v 0.761133 0.990901 0.033695
v 0.757008 0.988774 0.054628
v 0.768293 0.989851 0.045737
v 0.765506 0.987351 0.065143
v 0.776034 0.988577 0.055073
v 0.782418 0.987784 0.060715
v 0.786797 0.983273 0.063601
v 0.797754 0.984698 0.050392
v 0.787715 0.975281 0.063217
v 0.798710 0.977435 0.051016
v 0.810450 0.980231 0.037203
v 0.808048 0.986958 0.036421
v 0.820904 0.983635 0.022940
v 0.817272 0.988658 0.021275
v 0.827261 0.986175 0.008366
v 0.824683 0.992143 0.007797
v 0.824070 0.997831 0.008534
v 0.824320 1.003976 0.008731
v 0.826694 0.996020 -0.004488
v 0.826061 1.002661 -0.004143
v 0.827083 1.008334 -0.004402
v 0.825110 1.010522 0.008800
v 0.827600 1.014240 -0.004345
v 0.819551 1.005524 -0.016639
v 0.820278 1.011400 -0.016305
v 0.820886 1.016901 -0.015804
v 0.827845 1.020319 -0.004337
v 0.821490 1.023045 -0.015202
v 0.813163 1.017743 -0.027206
v 0.813825 1.023844 -0.026460
v 0.820609 1.028144 -0.013921
v 0.812584 1.028536 -0.024488
v 0.805720 1.016495 -0.037099
v 0.798057 1.014876 -0.040850
v 0.791647 1.014622 -0.036113
v 0.790510 1.006674 -0.034926
v 0.788509 0.996922 -0.035549
v 0.781607 0.997299 -0.030244
v 0.783974 1.006192 -0.028961
v 0.776758 1.008340 -0.021307
v 0.772541 1.013527 -0.012222
v 0.782607 1.024412 -0.009266
v 0.789693 1.024764 -0.001449
v 0.796663 1.027499 -0.008203
v 0.789568 1.027642 -0.015907
v 0.802672 1.028130 -0.014119
v 0.795631 1.027871 -0.022383
v 0.808024 1.028407 -0.019580
v 0.809464 1.027784 -0.004503
v 0.815313 1.028157 -0.009681
v 0.809163 1.026257 0.010977
v 0.802951 1.027098 0.001700
v 0.803088 1.024658 0.017395
v 0.796468 1.024981 0.008250
v 0.782317 0.992993 -0.045874
v 0.775515 0.993229 -0.038536
v 0.768818 0.992799 -0.048701
v 0.753045 0.991950 -0.047700
v 0.827094 1.017393 0.007387
v 0.819256 0.998226 -0.016828
v 0.827587 0.988730 -0.005126
v 0.822069 0.990382 -0.018623
v 0.814007 0.989530 -0.033787
v 0.824118 0.981343 -0.020384
v 0.815061 0.980558 -0.034990
v 0.805175 0.976954 -0.050057
v 0.814249 0.970460 -0.035378
v 0.804000 0.967617 -0.050604
v 0.795494 0.961945 -0.063002
v 0.800213 0.956444 -0.048825
v 0.791258 0.952435 -0.058800
v 0.785833 0.946637 -0.066899
v 0.787701 0.956729 -0.071141
v 0.782002 0.944130 -0.073084
v 0.782269 0.954459 -0.075993
v 0.779190 0.943428 -0.078555
v 0.777876 0.953577 -0.080469
v 0.775994 0.942971 -0.083210
v 0.773576 0.952707 -0.084561
v 0.767803 0.952356 -0.085060
v 0.777265 0.933246 -0.075646
v 0.773484 0.932483 -0.080341
v 0.764995 0.930099 -0.068742
v 0.760257 0.930327 -0.072738
v 0.751128 0.928659 -0.058687
v 0.746092 0.930098 -0.062117
v 0.743673 0.935664 -0.062738
v 0.731150 0.929872 -0.046304
v 0.729440 0.935695 -0.047180
v 0.743576 0.941751 -0.061017
v 0.716675 0.928982 -0.029539
v 0.714272 0.934259 -0.030217
v 0.708928 0.926340 -0.009371
v 0.703666 0.932446 -0.009824
v 0.716696 0.927135 0.009655
v 0.712371 0.931512 0.010393
v 0.727841 0.926141 0.024904
v 0.724074 0.930208 0.026348
v 0.739476 0.926048 0.039826
v 0.734780 0.928805 0.041182
v 0.733570 0.934595 0.041030
v 0.743629 0.927467 0.053947
v 0.742203 0.933177 0.053596
v 0.743543 0.939325 0.051726
v 0.752081 0.943997 0.058688
v 0.745870 0.944915 0.049297
v 0.751438 0.951836 0.058673
v 0.744689 0.952438 0.049368
v 0.746015 0.958010 0.062212
v 0.740726 0.958383 0.050942
v 0.744179 0.967577 0.062826
v 0.752713 0.957589 0.070556
v 0.751811 0.966572 0.072591
v 0.752562 0.975320 0.073660
v 0.743363 0.977363 0.062508
v 0.756332 0.984116 0.072422
v 0.746738 0.987020 0.060393
v 0.757520 0.963258 0.079558
v 0.767424 0.954964 0.075599
v 0.768071 0.961717 0.080130
v 0.758779 0.955812 0.075366
v 0.777538 0.955748 0.068911
v 0.778194 0.964000 0.071650
v 0.786394 0.957858 0.059776
v 0.787526 0.966660 0.061848
v 0.797509 0.961105 0.048649
v 0.798317 0.969463 0.050125
v 0.810216 0.965151 0.034717
v 0.810690 0.972928 0.036172
v 0.820214 0.968439 0.021079
v 0.820698 0.976322 0.021916
v 0.825907 0.970573 0.007768
v 0.826697 0.978536 0.008197
v 0.827585 0.971239 -0.005721
v 0.828201 0.980360 -0.005515
v 0.823462 0.971220 -0.020754
v 0.825818 0.961808 -0.005510
v 0.821885 0.960802 -0.020465
v 0.811583 0.959458 -0.034678
v 0.806949 0.948214 -0.031336
v 0.792842 0.946465 -0.042997
v 0.799784 0.938787 -0.023461
v 0.786539 0.937248 -0.036649
v 0.779044 0.934690 -0.047700
v 0.787087 0.941702 -0.053395
v 0.774130 0.932648 -0.056871
v 0.783443 0.937430 -0.061785
v 0.769713 0.931307 -0.063687
v 0.780198 0.934828 -0.069299
v 0.760614 0.930414 -0.047758
v 0.755801 0.929264 -0.054241
v 0.746119 0.928837 -0.031393
v 0.740584 0.927825 -0.037527
v 0.735480 0.927492 -0.042451
v 0.722231 0.926905 -0.025898
v 0.716344 0.926148 -0.009218
v 0.721740 0.926335 0.007430
v 0.739336 0.927074 0.019308
v 0.733552 0.926326 0.022242
v 0.751804 0.927262 0.035142
v 0.745475 0.926456 0.037565
v 0.762561 0.927870 0.046760
v 0.755083 0.926651 0.050170
v 0.748793 0.925891 0.052246
v 0.764481 0.927196 0.060000
v 0.758331 0.926171 0.063228
v 0.778087 0.934585 0.061793
v 0.771995 0.928826 0.055339
v 0.781593 0.945950 0.052093
v 0.774138 0.942969 0.060726
v 0.785701 0.937106 0.053507
v 0.780906 0.930613 0.048168
v 0.771664 0.929631 0.040884
v 0.760118 0.928694 0.030616
v 0.768507 0.930277 0.022282
v 0.778991 0.933159 0.003827
v 0.746268 0.928414 0.014600
v 0.753493 0.931100 0.007472
v 0.765001 0.931378 -0.009227
v 0.790127 0.936282 -0.012451
v 0.776841 0.934175 -0.026398
v 0.753540 0.930437 -0.022332
v 0.767252 0.932211 -0.038578
v 0.773206 0.952218 0.062679
v 0.782691 0.952499 0.055113
v 0.795163 0.954158 0.045364
v 0.809025 0.957495 0.032542
v 0.818776 0.960304 0.020342
v 0.824406 0.961974 0.007431
vt 0.772436 0.697868
vt 0.776693 0.700962
vt 0.773719 0.705166
vt 0.769633 0.704097
vt 0.781097 0.705564
vt 0.775376 0.710789
vt 0.769612 0.711403
vt 0.958257 0.841379
vt 0.953163 0.842144
vt 0.953666 0.836198
vt 0.955856 0.834533
vt 0.949367 0.831584
vt 0.948590 0.835057
vt 0.947333 0.840969
vt 0.945128 0.828776
vt 0.946040 0.826145
vt 0.949928 0.828214
vt 0.947022 0.823873
vt 0.942721 0.825782
vt 0.941623 0.827786
vt 0.491185 0.880350
vt 0.486963 0.879840
vt 0.491429 0.870674
vt 0.495559 0.869835
vt 0.492447 0.864927
vt 0.488189 0.867305
vt 0.482272 0.878754
vt 0.944117 0.832181
vt 0.939430 0.831016
vt 0.936913 0.827173
vt 0.777492 0.690998
vt 0.783278 0.694301
vt 0.186586 0.252855
vt 0.197247 0.260821
vt 0.193263 0.266070
vt 0.183279 0.257220
vt 0.788022 0.698079
vt 0.935817 0.825447
vt 0.933471 0.820566
vt 0.949896 0.822070
vt 0.960341 0.863776
vt 0.957763 0.868689
vt 0.956368 0.866758
vt 0.956690 0.862280
vt 0.950651 0.862536
vt 0.950370 0.867350
vt 0.951905 0.870690
vt 0.929775 0.848849
vt 0.925192 0.840259
vt 0.929518 0.836749
vt 0.932637 0.840965
vt 0.933898 0.833467
vt 0.932134 0.829983
vt 0.929040 0.828416
vt 0.950313 0.819571
vt 0.938360 0.817547
vt 0.519791 0.887241
vt 0.523489 0.878843
vt 0.528873 0.881303
vt 0.524135 0.889909
vt 0.530121 0.892297
vt 0.533997 0.883540
vt 0.943017 0.873787
vt 0.935867 0.870986
vt 0.938447 0.869736
vt 0.944815 0.871471
vt 0.944633 0.868441
vt 0.938215 0.865838
vt 0.934120 0.865127
vt 0.967656 0.858136
vt 0.970635 0.858983
vt 0.968402 0.870458
vt 0.965603 0.866987
vt 0.739595 0.715900
vt 0.741120 0.724940
vt 0.735793 0.723057
vt 0.736094 0.715455
vt 0.962908 0.870832
vt 0.961518 0.872881
vt 0.501990 0.899351
vt 0.506339 0.901084
vt 0.503618 0.906339
vt 0.499624 0.906502
vt 0.510443 0.903388
vt 0.506483 0.908940
vt 0.501779 0.911981
vt 0.927953 0.855811
vt 0.922986 0.854652
vt 0.544330 0.898881
vt 0.536227 0.895951
vt 0.542283 0.886747
vt 0.549240 0.891526
vt 0.765919 0.758546
vt 0.771110 0.759721
vt 0.768278 0.761916
vt 0.763344 0.763041
vt 0.245198 0.228889
vt 0.245518 0.224848
vt 0.251480 0.229655
vt 0.251489 0.233465
vt 0.479045 0.907218
vt 0.484514 0.907821
vt 0.482308 0.910123
vt 0.478650 0.911270
vt 0.486783 0.913340
vt 0.483168 0.913733
vt 0.479783 0.913835
vt 0.485394 0.918624
vt 0.480152 0.919516
vt 0.475943 0.915655
vt 0.487644 0.904541
vt 0.488490 0.909036
vt 0.483697 0.903382
vt 0.478648 0.903447
vt 0.490404 0.913830
vt 0.743817 0.759745
vt 0.740184 0.756558
vt 0.743289 0.754360
vt 0.746756 0.755533
vt 0.746499 0.751423
vt 0.742461 0.751051
vt 0.738532 0.751921
vt 0.554950 0.892103
vt 0.553493 0.898737
vt 0.716372 0.727561
vt 0.717549 0.732286
vt 0.706209 0.732721
vt 0.709210 0.727011
vt 0.227253 0.165080
vt 0.219635 0.170028
vt 0.210765 0.165850
vt 0.220570 0.161273
vt 0.210017 0.173791
vt 0.199064 0.170650
vt 0.192324 0.165888
vt 0.203211 0.161585
vt 0.207153 0.236802
vt 0.201961 0.232358
vt 0.206872 0.230963
vt 0.212110 0.232289
vt 0.199234 0.227963
vt 0.206623 0.226902
vt 0.214569 0.227372
vt 0.195486 0.207429
vt 0.195206 0.204274
vt 0.208126 0.202489
vt 0.207535 0.205615
vt 0.208795 0.196601
vt 0.212795 0.197104
vt 0.203704 0.198799
vt 0.194569 0.200914
vt 0.219210 0.205880
vt 0.220175 0.202031
vt 0.220978 0.197772
vt 0.213664 0.192822
vt 0.208157 0.192775
vt 0.201860 0.194564
vt 0.206765 0.180692
vt 0.212159 0.183442
vt 0.207379 0.185840
vt 0.202189 0.185687
vt 0.213802 0.188212
vt 0.207862 0.189226
vt 0.200930 0.189919
vt 0.193508 0.196073
vt 0.193004 0.190354
vt 0.194304 0.184668
vt 0.181759 0.191761
vt 0.180686 0.185527
vt 0.190689 0.178075
vt 0.201435 0.178270
vt 0.216226 0.177329
vt 0.227461 0.180777
vt 0.219806 0.182664
vt 0.223962 0.175651
vt 0.229896 0.187994
vt 0.220903 0.187768
vt 0.230631 0.193558
vt 0.221287 0.192967
vt 0.230965 0.198890
vt 0.740412 0.774712
vt 0.733312 0.782218
vt 0.728579 0.779524
vt 0.735306 0.772656
vt 0.231161 0.203743
vt 0.731211 0.769093
vt 0.724258 0.774807
vt 0.740808 0.768555
vt 0.735956 0.765710
vt 0.721417 0.768664
vt 0.727128 0.763408
vt 0.731683 0.760189
vt 0.739999 0.763291
vt 0.736342 0.758200
vt 0.724199 0.755686
vt 0.729343 0.753944
vt 0.733934 0.752628
vt 0.727778 0.747373
vt 0.732877 0.746660
vt 0.737112 0.746609
vt 0.741231 0.746641
vt 0.731490 0.740166
vt 0.735945 0.740281
vt 0.739954 0.740817
vt 0.745689 0.746974
vt 0.744341 0.741510
vt 0.734437 0.733369
vt 0.738561 0.733123
vt 0.743001 0.734312
vt 0.745683 0.726348
vt 0.747504 0.735375
vt 0.749240 0.742206
vt 0.752376 0.736578
vt 0.754419 0.743525
vt 0.755577 0.748834
vt 0.750277 0.747905
vt 0.755867 0.752674
vt 0.750841 0.752525
vt 0.755829 0.756718
vt 0.750729 0.757421
vt 0.754656 0.760851
vt 0.748125 0.761780
vt 0.751581 0.765154
vt 0.745100 0.765300
vt 0.748163 0.770079
vt 0.757751 0.764252
vt 0.754000 0.770110
vt 0.746099 0.775993
vt 0.246182 0.220218
vt 0.239267 0.215926
vt 0.240383 0.211726
vt 0.247089 0.216435
vt 0.229737 0.211590
vt 0.230448 0.207631
vt 0.241251 0.208397
vt 0.218622 0.209254
vt 0.229321 0.214831
vt 0.218274 0.212502
vt 0.206764 0.210886
vt 0.206683 0.208182
vt 0.195242 0.213342
vt 0.194906 0.210588
vt 0.185588 0.216191
vt 0.184839 0.213151
vt 0.184532 0.209767
vt 0.176396 0.216721
vt 0.175498 0.213150
vt 0.174441 0.209189
vt 0.184563 0.206179
vt 0.174047 0.205436
vt 0.184304 0.202650
vt 0.174181 0.201347
vt 0.183436 0.198089
vt 0.173690 0.195415
vt 0.510838 0.926828
vt 0.516952 0.925542
vt 0.521249 0.929202
vt 0.514158 0.931806
vt 0.522483 0.921789
vt 0.528043 0.924585
vt 0.171904 0.189606
vt 0.527155 0.914264
vt 0.533557 0.917589
vt 0.536581 0.925977
vt 0.532727 0.931201
vt 0.531316 0.905076
vt 0.538883 0.909243
vt 0.184506 0.170292
vt 0.521147 0.909987
vt 0.524908 0.901765
vt 0.515099 0.906190
vt 0.519033 0.898219
vt 0.514404 0.895636
vt 0.510484 0.893760
vt 0.514812 0.885279
vt 0.505829 0.891894
vt 0.510139 0.883940
vt 0.514605 0.875280
vt 0.519030 0.877071
vt 0.957036 0.816214
vt 0.954984 0.818680
vt 0.941195 0.814156
vt 0.943447 0.811582
vt 0.968213 0.823336
vt 0.966354 0.825657
vt 0.964218 0.827251
vt 0.961998 0.828665
vt 0.972354 0.834402
vt 0.969809 0.836035
vt 0.967785 0.837542
vt 0.959384 0.829849
vt 0.964635 0.838925
vt 0.971628 0.846932
vt 0.968687 0.847677
vt 0.965901 0.848430
vt 0.961688 0.840543
vt 0.961539 0.848730
vt 0.964477 0.857371
vt 0.961154 0.856877
vt 0.957872 0.849442
vt 0.956862 0.856345
vt 0.963326 0.865584
vt 0.958862 0.870998
vt 0.952267 0.872715
vt 0.953157 0.875506
vt 0.956139 0.877423
vt 0.943265 0.878420
vt 0.941449 0.875444
vt 0.933011 0.872158
vt 0.933390 0.870531
vt 0.923522 0.865760
vt 0.928329 0.864023
vt 0.933292 0.858909
vt 0.935236 0.851900
vt 0.940160 0.853970
vt 0.939323 0.860764
vt 0.945814 0.855595
vt 0.944930 0.862410
vt 0.951098 0.856572
vt 0.946525 0.848235
vt 0.952454 0.849038
vt 0.942199 0.838529
vt 0.941474 0.846264
vt 0.937569 0.835963
vt 0.936324 0.844264
vt 0.729768 0.732917
vt 0.724448 0.733102
vt 0.723429 0.727152
vt 0.728143 0.725817
vt 0.725994 0.740130
vt 0.720209 0.740395
vt 0.722079 0.748402
vt 0.231128 0.170229
vt 0.234479 0.172638
vt 0.732065 0.724579
vt 0.957083 0.831766
vt 0.974465 0.845362
vt 0.974983 0.856959
vt 0.749502 0.700120
vt 0.747293 0.707890
vt 0.742885 0.707572
vt 0.745730 0.699903
vt 0.745032 0.717070
vt 0.752100 0.708780
vt 0.750367 0.717761
vt 0.750762 0.727459
vt 0.756248 0.718933
vt 0.756031 0.728762
vt 0.758072 0.737719
vt 0.762511 0.730430
vt 0.764143 0.738396
vt 0.766179 0.744826
vt 0.760356 0.744887
vt 0.766917 0.749356
vt 0.761335 0.749423
vt 0.766896 0.752936
vt 0.761481 0.753184
vt 0.766999 0.756205
vt 0.761241 0.756672
vt 0.760402 0.759984
vt 0.772524 0.753447
vt 0.772733 0.757188
vt 0.243499 0.236367
vt 0.244150 0.232009
vt 0.250721 0.236352
vt 0.248722 0.239991
vt 0.236604 0.231106
vt 0.237191 0.227050
vt 0.238202 0.223193
vt 0.227724 0.222324
vt 0.228659 0.218501
vt 0.238629 0.219193
vt 0.217400 0.219465
vt 0.217758 0.215873
vt 0.206507 0.219166
vt 0.206358 0.214552
vt 0.196223 0.220564
vt 0.195404 0.216913
vt 0.187744 0.223404
vt 0.186628 0.219983
vt 0.179809 0.227265
vt 0.178911 0.223877
vt 0.177611 0.220303
vt 0.173030 0.228365
vt 0.171796 0.225192
vt 0.170484 0.221767
vt 0.492462 0.924129
vt 0.488687 0.925511
vt 0.490004 0.918511
vt 0.496483 0.925334
vt 0.501620 0.932220
vt 0.498220 0.931388
vt 0.493414 0.918900
vt 0.500902 0.926314
vt 0.505837 0.933403
vt 0.499906 0.921085
vt 0.505101 0.926775
vt 0.508640 0.932392
vt 0.505946 0.922484
vt 0.495530 0.915763
vt 0.500894 0.916400
vt 0.505251 0.916326
vt 0.511875 0.920631
vt 0.510385 0.912488
vt 0.517711 0.916497
vt 0.496840 0.912214
vt 0.490966 0.905738
vt 0.495083 0.905782
vt 0.492697 0.910896
vt 0.492876 0.897667
vt 0.497248 0.897611
vt 0.495439 0.889982
vt 0.500730 0.890505
vt 0.499739 0.881623
vt 0.505207 0.882463
vt 0.504701 0.872624
vt 0.509503 0.873990
vt 0.506271 0.864639
vt 0.510054 0.865455
vt 0.513587 0.866337
vt 0.506401 0.857788
vt 0.509613 0.858119
vt 0.512672 0.858395
vt 0.759760 0.700984
vt 0.754513 0.700733
vt 0.757400 0.693643
vt 0.762573 0.694549
vt 0.752864 0.693359
vt 0.757671 0.709806
vt 0.764780 0.702667
vt 0.763741 0.710573
vt 0.762704 0.720171
vt 0.769346 0.720925
vt 0.769665 0.731072
vt 0.777075 0.720446
vt 0.776286 0.730347
vt 0.776831 0.738029
vt 0.770868 0.738644
vt 0.777268 0.743575
vt 0.771937 0.744621
vt 0.241766 0.240468
vt 0.247827 0.243578
vt 0.244808 0.247359
vt 0.237432 0.245029
vt 0.772325 0.749576
vt 0.232170 0.239194
vt 0.235301 0.234900
vt 0.221985 0.234651
vt 0.224673 0.230269
vt 0.226550 0.226123
vt 0.216065 0.223659
vt 0.206549 0.223160
vt 0.197370 0.223802
vt 0.190837 0.230869
vt 0.189053 0.227101
vt 0.182460 0.235197
vt 0.181072 0.231148
vt 0.177252 0.240301
vt 0.175241 0.235529
vt 0.173954 0.231603
vt 0.170793 0.240092
vt 0.169046 0.236479
vt 0.167749 0.232601
vt 0.473498 0.912501
vt 0.472999 0.905867
vt 0.480284 0.897119
vt 0.475695 0.897702
vt 0.173083 0.244942
vt 0.487439 0.889515
vt 0.484528 0.897521
vt 0.482646 0.889887
vt 0.478144 0.889530
vt 0.180884 0.246076
vt 0.177331 0.250485
vt 0.185615 0.240800
vt 0.190841 0.246866
vt 0.201855 0.254411
vt 0.193656 0.235559
vt 0.198250 0.240703
vt 0.209265 0.248220
vt 0.212188 0.261022
vt 0.220123 0.252207
vt 0.216846 0.240423
vt 0.227123 0.245234
vt 0.226941 0.256353
vt 0.233563 0.250014
vt 0.212768 0.271738
vt 0.206297 0.267778
vt 0.219263 0.265370
vt 0.488866 0.897897
vt 0.490995 0.889261
vt 0.495366 0.880439
vt 0.500446 0.870924
vt 0.771935 0.690034
vt 0.777553 0.683539
vt 0.780837 0.685258
vt 0.501851 0.863904
vt 0.767462 0.696262
vt 0.767772 0.688121
vt 0.166907 0.229854
vt 0.974764 0.831298
vt 0.251876 0.224721
vt 0.757400 0.769373
vt 0.718983 0.765474
vn 0.7430 -0.6275 0.2328
vn 0.5827 -0.7831 0.2174
vn 0.6712 -0.7400 0.0437
vn 0.8164 -0.5772 -0.0161
vn 0.4072 -0.9094 0.0840
vn 0.5739 -0.8128 -0.1000
vn 0.7533 -0.5883 -0.2938
vn 0.8463 0.4960 -0.1943
vn 0.2078 0.9777 0.0315
vn 0.5032 0.8184 0.2776
vn 0.9066 0.2438 0.3444
vn 0.6794 0.1823 0.7107
vn 0.3003 0.8345 0.4620
vn -0.0184 0.9945 0.1032
vn 0.6041 0.1481 0.7830
vn 0.6651 -0.1391 0.7337
vn 0.7291 -0.1377 0.6705
vn 0.6074 -0.1045 0.7875
vn 0.4623 -0.1559 0.8729
vn 0.4659 0.0741 0.8817
vn 0.7495 -0.4054 0.5233
vn 0.8744 -0.2394 0.4220
vn 0.7259 -0.5499 0.4131
vn 0.5578 -0.7135 0.4241
vn 0.5746 -0.7216 0.3862
vn 0.6069 -0.7464 0.2730
vn 0.6645 -0.7367 0.1253
vn 0.2426 0.7930 0.5589
vn 0.0857 0.6130 0.7855
vn -0.0421 0.1606 0.9861
vn 0.2734 -0.9597 -0.0645
vn 0.3791 -0.9250 0.0248
vn -0.0185 0.0174 0.9997
vn 0.1100 0.5799 0.8072
vn 0.6109 0.0749 0.7882
vn 0.7417 0.0440 -0.6692
vn -0.1014 0.0313 -0.9943
vn 0.0597 0.5833 -0.8101
vn 0.4157 0.8139 -0.4059
vn -0.0744 0.9966 -0.0358
vn -0.4538 0.8236 -0.3404
vn -0.7252 0.1884 -0.6622
vn -0.6713 0.6147 0.4141
vn -0.5932 0.5508 0.5871
vn -0.6902 0.2562 0.6767
vn -0.6019 0.6393 0.4785
vn -0.4434 0.5317 0.7216
vn -0.5306 0.1676 0.8309
vn -0.4236 0.5719 0.7025
vn 0.6096 0.4297 0.6661
vn 0.3531 0.7903 0.5008
vn 0.2517 0.9173 0.3086
vn 0.0583 0.9642 0.2587
vn -0.1005 0.9583 0.2676
vn -0.7098 0.0253 -0.7040
vn -0.7876 0.1400 -0.6000
vn -0.7331 0.2968 -0.6119
vn -0.7177 0.2960 -0.6303
vn -0.4510 0.8362 -0.3120
vn -0.5403 0.7969 -0.2701
vn -0.8003 0.5884 -0.1155
vn 0.7989 -0.0820 -0.5959
vn 0.7953 0.0234 -0.6058
vn 0.3857 0.4589 -0.8004
vn 0.5542 -0.0917 -0.8273
vn 0.7572 0.3563 -0.5474
vn 0.6760 0.5337 -0.5081
vn -0.2365 0.0103 -0.9716
vn -0.3637 0.6378 -0.6789
vn 0.6863 -0.0476 0.7258
vn 0.5477 0.3736 0.7486
vn 0.2891 0.2908 0.9121
vn 0.2854 -0.0457 0.9573
vn 0.1678 0.8515 0.4967
vn -0.1753 0.5833 0.7931
vn -0.4421 0.0877 0.8927
vn -0.7326 0.5628 0.3829
vn -0.6641 0.6489 0.3714
vn -0.1704 0.9517 0.2553
vn -0.0670 0.9222 0.3809
vn 0.1101 -0.0223 -0.9937
vn 0.0038 -0.5042 -0.8636
vn -0.5328 0.0264 -0.8458
vn -0.6380 0.1016 -0.7633
vn -0.5769 -0.4855 -0.6569
vn -0.6841 0.2016 -0.7010
vn 0.6425 -0.4874 0.5913
vn 0.1429 0.3881 0.9105
vn 0.1318 0.2864 0.9490
vn 0.0178 -0.6816 0.7315
vn -0.7032 0.3002 0.6446
vn -0.5708 0.4620 0.6787
vn -0.6025 -0.1327 0.7870
vn -0.7299 0.4517 0.5130
vn -0.8221 -0.0633 0.5658
vn -0.4237 -0.8353 0.3505
vn 0.4991 -0.4266 0.7543
vn -0.2345 -0.4070 0.8828
vn 0.6315 0.1900 0.7517
vn 0.7071 -0.3704 0.6024
vn -0.7351 -0.3900 0.5546
vn -0.5794 0.1286 -0.8048
vn -0.4108 0.6428 -0.6466
vn 0.1174 0.5664 -0.8157
vn 0.1053 0.1203 -0.9871
vn 0.7467 0.1317 -0.6520
vn 0.4635 0.7231 -0.5121
vn -0.0432 0.9657 -0.2561
vn -0.7547 0.6427 -0.1318
vn -0.2412 0.9586 -0.1512
vn -0.6097 0.5983 -0.5198
vn -0.1982 0.9472 -0.2521
vn -0.0490 0.9962 -0.0719
vn -0.0992 0.9831 -0.1538
vn -0.2128 0.9682 -0.1318
vn -0.1479 0.9875 -0.0554
vn 0.0823 0.9730 0.2155
vn 0.1445 -0.9895 -0.0025
vn 0.1433 -0.9889 -0.0390
vn 0.1145 -0.9934 -0.0095
vn 0.1241 -0.9922 0.0144
vn 0.0919 -0.9951 -0.0369
vn 0.0805 -0.9967 -0.0129
vn 0.0773 -0.9970 0.0018
vn -0.8480 0.0739 0.5249
vn -0.8094 -0.3386 0.4799
vn -0.8244 -0.5607 -0.0772
vn -0.9989 0.0018 -0.0464
vn -0.8803 -0.4679 -0.0782
vn -0.7199 -0.4358 -0.5401
vn -0.7808 -0.5115 0.3588
vn -0.7548 -0.4537 0.4737
vn -0.7925 -0.1695 -0.5858
vn -0.6841 -0.4749 -0.5536
vn -0.7020 -0.3064 -0.6430
vn -0.7898 -0.0088 -0.6133
vn -0.9925 -0.0815 -0.0908
vn -0.8601 -0.2164 0.4618
vn -0.3360 0.9416 -0.0226
vn -0.5815 0.7714 -0.2585
vn -0.8170 0.5765 -0.0151
vn -0.7147 0.6490 0.2610
vn -0.8008 0.2561 -0.5413
vn -0.9874 0.1446 -0.0650
vn -0.8901 0.0939 0.4460
vn -0.8006 -0.2313 0.5527
vn -0.8068 0.1408 0.5737
vn -0.6433 0.6746 0.3620
vn -0.7048 0.2083 0.6782
vn -0.5543 0.6481 0.5223
vn -0.3378 0.9260 0.1686
vn -0.3490 0.9369 0.0205
vn -0.2052 0.9742 -0.0940
vn -0.3552 0.8894 -0.2876
vn -0.4422 0.8407 -0.3125
vn -0.1304 0.9870 -0.0935
vn -0.6609 0.4216 -0.6208
vn -0.7079 0.3349 -0.6219
vn -0.7162 0.0192 -0.6976
vn -0.7303 -0.0152 -0.6829
vn -0.7240 -0.1449 -0.6744
vn -0.6968 -0.2838 -0.6587
vn -0.6947 -0.3763 -0.6131
vn -0.7231 -0.0555 -0.6885
vn -0.7261 0.0616 -0.6848
vn -0.7373 -0.0450 -0.6740
vn -0.7440 0.0911 -0.6620
vn -0.6428 0.5101 -0.5715
vn -0.6270 0.5802 -0.5198
vn -0.7093 0.1144 -0.6956
vn -0.5597 0.6203 -0.5495
vn -0.3033 0.9239 -0.2332
vn -0.2579 0.9485 -0.1841
vn -0.1935 0.9613 -0.1959
vn -0.0656 0.9972 -0.0361
vn -0.0279 0.9983 -0.0518
vn 0.0679 0.9907 -0.1179
vn 0.4805 0.7968 -0.3664
vn -0.0052 0.9995 -0.0305
vn 0.0411 0.9960 -0.0791
vn 0.3507 0.8808 -0.3181
vn 0.8066 0.2426 -0.5391
vn 0.7494 0.3644 -0.5528
vn -0.1150 0.9808 -0.1573
vn 0.2460 0.9039 -0.3500
vn 0.7096 0.4803 -0.5156
vn 0.8335 0.2033 -0.5138
vn 0.8341 0.0591 -0.5485
vn 0.8254 0.0041 -0.5645
vn 0.8354 -0.0826 -0.5434
vn 0.8108 -0.1543 -0.5647
vn 0.7860 -0.2383 -0.5705
vn 0.8222 -0.0401 -0.5677
vn 0.6911 -0.2959 -0.6594
vn 0.7153 -0.1040 -0.6911
vn 0.1962 -0.3242 -0.9254
vn 0.0833 -0.1420 -0.9863
vn -0.4968 -0.2202 -0.8395
vn -0.5660 -0.0767 -0.8208
vn -0.7081 -0.1762 -0.6838
vn -0.7150 -0.0451 -0.6977
vn -0.7205 -0.2084 -0.6614
vn -0.7071 -0.2079 -0.6758
vn -0.7273 -0.2441 -0.6414
vn -0.7081 -0.3035 -0.6376
vn -0.7220 0.1802 -0.6680
vn -0.7294 0.2228 -0.6467
vn -0.7399 0.2344 -0.6305
vn -0.7194 -0.2997 -0.6266
vn -0.7799 0.2408 -0.5778
vn -0.6927 0.4199 -0.5864
vn -0.7626 0.3572 -0.5393
vn -0.9525 0.2995 -0.0558
vn -0.9239 0.3823 -0.0148
vn -0.8306 0.2734 0.4852
vn -0.7552 0.4432 0.4830
vn -0.7850 0.2530 0.5655
vn -0.7221 0.4637 0.5134
vn -0.8237 0.0793 0.5614
vn -0.7350 0.4274 0.5265
vn -0.8089 0.1222 0.5752
vn -0.7708 -0.3302 0.5448
vn -0.7869 -0.3223 0.5262
vn -0.7588 -0.3901 0.5216
vn -0.7580 -0.3993 0.5158
vn -0.8167 -0.0944 0.5692
vn -0.7764 -0.1593 0.6097
vn -0.7463 0.2744 0.6064
vn -0.8746 -0.0999 0.4744
vn -0.8760 0.2696 0.4000
vn -0.6377 0.6950 0.3320
vn -0.5527 0.6249 0.5513
vn -0.1693 0.9461 0.2760
vn -0.2168 0.8959 0.3878
vn 0.1015 0.9702 0.2200
vn -0.1050 0.9840 0.1438
vn 0.0121 0.9951 0.0980
vn -0.0443 0.9717 0.2322
vn 0.0351 0.9924 0.1180
vn 0.2570 0.9135 0.3153
vn 0.6345 0.4663 0.6163
vn 0.6079 0.5724 0.5503
vn 0.7443 -0.0234 0.6674
vn 0.7563 0.0318 0.6535
vn 0.7771 0.1354 0.6146
vn 0.5514 0.6616 0.5083
vn 0.8304 0.2116 0.5154
vn 0.6364 0.5673 0.5227
vn 0.9431 0.1807 0.2790
vn 0.8780 0.3088 0.3658
vn 0.8903 0.0790 0.4486
vn 0.8926 -0.0812 0.4435
vn 0.9754 0.1718 -0.1378
vn 0.9847 -0.0352 -0.1706
vn 0.9762 -0.1070 -0.1886
vn 0.8876 -0.1255 0.4431
vn 0.9736 -0.0983 -0.2062
vn 0.8458 -0.0396 -0.5320
vn 0.8394 -0.0775 -0.5380
vn 0.8420 -0.0411 -0.5379
vn 0.9658 -0.0395 -0.2561
vn 0.8350 0.1162 -0.5379
vn 0.8145 -0.0576 -0.5773
vn 0.8026 0.1858 -0.5668
vn 0.5529 0.7768 -0.3014
vn 0.4400 0.8393 -0.3194
vn 0.6530 -0.1226 -0.7473
vn -0.0833 -0.1404 -0.9866
vn -0.6579 -0.0321 -0.7524
vn -0.6149 0.0783 -0.7847
vn -0.4656 0.6821 -0.5639
vn -0.5029 0.6646 -0.5526
vn -0.6870 0.1389 -0.7133
vn -0.7980 0.1614 -0.5806
vn -0.9206 0.3840 -0.0709
vn -0.4922 0.8335 0.2511
vn -0.3854 0.8906 0.2414
vn -0.1241 0.9865 0.1070
vn -0.2066 0.9774 0.0447
vn -0.0351 0.9988 0.0350
vn -0.1069 0.9940 -0.0250
vn -0.0201 0.9997 0.0135
vn -0.0235 0.9974 0.0685
vn 0.0507 0.9979 0.0392
vn -0.0642 0.9826 0.1745
vn -0.1044 0.9876 0.1169
vn -0.2120 0.8977 0.3864
vn -0.3129 0.9206 0.2337
vn -0.1334 0.9818 -0.1352
vn -0.1350 0.9774 -0.1625
vn -0.0300 0.9992 -0.0249
vn -0.0892 0.9943 -0.0582
vn 0.9269 -0.1438 0.3466
vn 0.8493 0.1961 -0.4901
vn 0.9744 0.1874 -0.1239
vn 0.8592 0.2930 -0.4195
vn 0.7921 0.3425 -0.5052
vn 0.9110 0.0820 -0.4041
vn 0.8489 0.0540 -0.5258
vn 0.8474 -0.0256 -0.5303
vn 0.8307 -0.1399 -0.5389
vn 0.8308 -0.2107 -0.5152
vn 0.8230 -0.2918 -0.4874
vn 0.7520 -0.4796 -0.4521
vn 0.8148 -0.4688 -0.3410
vn 0.8529 -0.3669 -0.3715
vn 0.8008 -0.3166 -0.5084
vn 0.8533 -0.2623 -0.4506
vn 0.7810 -0.2752 -0.5606
vn 0.8214 -0.1746 -0.5429
vn 0.7440 -0.2314 -0.6269
vn 0.6873 -0.1272 -0.7151
vn 0.4156 -0.1756 -0.8924
vn -0.3850 -0.1943 -0.9022
vn 0.6243 -0.7265 -0.2872
vn 0.4127 -0.7771 -0.4751
vn 0.1404 -0.9892 -0.0426
vn -0.1610 -0.9357 -0.3140
vn -0.0061 -0.9959 -0.0904
vn -0.4215 -0.7824 -0.4584
vn -0.7143 -0.1467 -0.6843
vn -0.5102 -0.7072 -0.4895
vn -0.7464 -0.0250 -0.6650
vn -0.6810 0.3776 -0.6274
vn -0.5266 -0.7458 -0.4079
vn -0.8151 -0.1051 -0.5697
vn -0.5270 -0.8488 -0.0431
vn -0.9587 -0.2775 -0.0630
vn -0.4084 -0.8858 0.2203
vn -0.8155 -0.3705 0.4446
vn -0.3064 -0.9319 0.1938
vn -0.7410 -0.4400 0.5072
vn -0.1866 -0.9761 0.1119
vn -0.6996 -0.5426 0.4650
vn -0.8098 0.1532 0.5663
vn -0.6227 -0.6801 0.3869
vn -0.8360 0.0611 0.5454
vn -0.7470 0.4274 0.5092
vn -0.7934 0.2615 0.5497
vn -0.7985 0.1929 0.5702
vn -0.7775 -0.4055 0.4807
vn -0.7647 -0.3778 0.5220
vn -0.7644 -0.4463 0.4654
vn -0.7705 -0.4323 0.4684
vn -0.8386 -0.1156 0.5324
vn -0.7157 -0.4356 0.5459
vn -0.7761 -0.1301 0.6170
vn -0.7245 0.1959 0.6609
vn -0.8339 0.2187 0.5067
vn -0.4069 0.7355 0.5418
vn -0.5444 0.7634 0.3476
vn -0.4754 -0.2812 0.8336
vn 0.2752 -0.6368 0.7203
vn 0.2807 -0.3490 0.8941
vn -0.3852 -0.5600 0.7335
vn 0.5740 -0.6083 0.5481
vn 0.6837 -0.2387 0.6897
vn 0.6507 -0.5075 0.5649
vn 0.7385 -0.1799 0.6498
vn 0.7091 -0.3553 0.6091
vn 0.7500 -0.1488 0.6445
vn 0.7746 -0.2324 0.5881
vn 0.7907 -0.1180 0.6007
vn 0.8698 -0.1627 0.4658
vn 0.8745 -0.0977 0.4750
vn 0.9602 -0.1376 0.2432
vn 0.9681 -0.0687 0.2410
vn 0.9894 -0.1221 -0.0780
vn 0.9948 0.0106 -0.1012
vn 0.9084 -0.1127 -0.4026
vn 0.9449 -0.3219 -0.0598
vn 0.8632 -0.3292 -0.3828
vn 0.7620 -0.3878 -0.5187
vn 0.6338 -0.6301 -0.4486
vn 0.6533 -0.6632 -0.3653
vn 0.4245 -0.8766 -0.2266
vn 0.4234 -0.8888 -0.1757
vn 0.4357 -0.8999 -0.0185
vn 0.7425 -0.6463 -0.1762
vn 0.3511 -0.9354 0.0427
vn 0.7265 -0.6749 -0.1292
vn 0.2634 -0.9638 0.0404
vn 0.6845 -0.7086 -0.1714
vn 0.1837 -0.9816 0.0521
vn 0.1448 -0.9888 0.0354
vn 0.1461 -0.9885 0.0384
vn 0.1005 -0.9948 0.0191
vn -0.0823 -0.9887 -0.1250
vn -0.0795 -0.9907 -0.1103
vn -0.0361 -0.9988 -0.0319
vn -0.0023 -1.0000 0.0029
vn 0.1058 -0.9922 -0.0665
vn 0.0423 -0.9985 -0.0350
vn 0.1202 -0.9900 -0.0737
vn 0.0832 -0.9950 -0.0555
vn 0.1404 -0.9878 -0.0677
vn 0.1144 -0.9913 -0.0647
vn -0.0647 -0.9975 0.0288
vn 0.2726 -0.9615 0.0351
vn 0.1396 -0.9898 0.0297
vn 0.7279 -0.2839 0.6241
vn 0.3309 -0.9372 0.1103
vn 0.7227 -0.0306 0.6905
vn 0.6876 0.1415 0.7121
vn 0.7718 -0.2084 0.6008
vn 0.4340 -0.8878 0.1531
vn 0.1615 -0.9847 -0.0662
vn 0.1384 -0.9864 -0.0891
vn 0.1475 -0.9861 -0.0760
vn 0.1735 -0.9838 -0.0447
vn 0.1441 -0.9857 -0.0877
vn 0.1310 -0.9897 -0.0581
vn 0.1324 -0.9910 -0.0193
vn 0.2341 -0.9713 -0.0425
vn 0.1975 -0.9798 -0.0319
vn 0.1473 -0.9889 0.0187
vn 0.2022 -0.9790 0.0266
vn 0.6129 -0.5377 0.5790
vn 0.6072 -0.5853 0.5373
vn 0.6120 -0.6214 0.4893
vn 0.6753 -0.5487 0.4929
vn 0.8005 -0.4201 0.4275
vn 0.9089 -0.3425 0.2381
f 1/1/1 2/2/2 3/3/3 4/4/4
f 5/5/5 6/6/6 3/3/3 2/2/2
f 7/7/7 4/4/4 3/3/3 6/6/6
f 8/8/8 9/9/9 10/10/10 11/11/11
f 12/12/12 11/11/11 10/10/10 13/13/13
f 14/14/14 13/13/13 10/10/10 9/9/9
f 12/12/12 15/15/15 16/16/16 17/17/17
f 18/18/18 17/17/17 16/16/16 19/19/19
f 20/20/20 19/19/19 16/16/16 15/15/15
f 21/21/21 22/22/22 23/23/23 24/24/24
f 25/25/25 24/24/24 23/23/23 26/26/26
f 27/27/27 26/26/26 23/23/23 22/22/22
f 28/28/28 29/29/29 20/20/20 15/15/15
f 30/30/30 19/19/19 20/20/20 29/29/29
f 1/1/1 25/31/25 26/32/26 2/2/2
f 31/33/31 32/34/32 26/35/26 27/36/27
f 5/5/5 2/2/2 26/32/26 32/37/32
f 30/30/30 33/38/33 18/18/18 19/19/19
f 34/39/34 35/40/35 18/18/18 33/38/33
f 36/41/36 37/42/37 38/43/38 39/44/39
f 40/45/40 39/44/39 38/43/38 41/46/41
f 42/47/42 41/46/41 38/43/38 37/42/37
f 43/48/43 44/49/44 45/50/45 46/51/46
f 47/52/47 46/51/46 45/50/45 48/53/48
f 49/54/49 48/53/48 45/50/45 44/49/44
f 50/55/50 35/40/35 34/39/34 51/56/51
f 48/53/48 49/54/49 34/39/34 33/38/33
f 52/57/52 51/58/51 34/59/34 53/60/53
f 54/61/54 53/60/53 34/59/34 49/62/49
f 55/63/55 56/64/56 57/65/57 58/66/58
f 59/67/59 58/66/58 57/65/57 60/68/60
f 61/69/61 60/68/60 57/65/57 56/64/56
f 62/70/62 63/71/63 64/72/64 65/73/65
f 66/74/66 67/75/67 64/76/64 63/77/63
f 68/78/68 65/73/65 64/72/64 69/79/69
f 70/80/70 71/81/71 72/82/72 73/83/73
f 74/84/74 75/85/75 72/82/72 71/81/71
f 76/86/76 73/83/73 72/82/72 75/85/75
f 77/87/77 78/88/78 44/49/44 43/48/43
f 79/89/79 80/90/80 44/91/44 78/92/78
f 54/61/54 49/62/49 44/91/44 80/90/80
f 81/93/81 82/94/82 83/95/83 84/96/84
f 85/97/85 86/98/86 83/99/83 82/100/82
f 87/101/87 88/102/88 89/103/89 90/104/90
f 91/105/91 92/106/92 89/103/89 88/102/88
f 93/107/93 90/104/90 89/103/89 92/106/92
f 94/108/94 95/109/95 93/107/93 92/106/92
f 96/110/96 90/104/90 93/107/93 95/109/95
f 97/111/97 98/112/98 88/102/88 99/113/99
f 100/114/100 99/113/99 88/102/88 87/101/87
f 101/115/101 91/105/91 88/102/88 98/112/98
f 102/116/102 103/117/103 104/118/104 105/119/105
f 106/120/106 105/119/105 104/118/104 107/121/107
f 108/122/108 107/121/107 104/118/104 103/117/103
f 78/92/78 109/123/109 110/124/110 79/89/79
f 111/125/111 112/126/112 110/127/110 109/128/109
f 113/129/113 114/130/114 110/131/110 112/132/112
f 115/133/115 116/134/116 110/131/110 114/130/114
f 117/135/117 79/136/79 110/131/110 116/134/116
f 118/137/118 119/138/119 120/139/120 121/140/121
f 122/141/122 123/142/123 120/139/120 119/138/119
f 124/143/124 121/140/121 120/139/120 123/142/123
f 125/144/125 126/145/126 127/146/127 128/147/128
f 129/148/129 130/149/130 127/146/127 131/150/131
f 132/151/132 131/150/131 127/146/127 126/145/126
f 133/152/133 128/147/128 127/146/127 134/153/134
f 135/154/135 134/153/134 127/146/127 130/149/130
f 136/155/136 130/149/130 129/148/129 137/156/137
f 138/157/138 137/156/137 129/148/129 131/150/131
f 139/158/139 140/159/140 141/160/141 142/161/142
f 143/162/143 144/163/144 141/160/141 140/159/140
f 145/164/145 142/161/142 141/160/141 144/163/144
f 146/165/146 147/166/147 145/164/145 138/157/138
f 148/167/148 142/161/142 145/164/145 147/166/147
f 137/156/137 138/157/138 145/164/145 144/163/144
f 149/168/149 150/169/150 148/167/148 147/166/147
f 151/170/151 152/171/152 148/167/148 150/169/150
f 139/158/139 142/161/142 148/167/148 152/171/152
f 116/134/116 115/133/115 152/171/152 151/170/151
f 153/172/153 139/158/139 152/171/152 115/133/115
f 154/173/154 155/174/155 153/172/153 156/175/156
f 140/159/140 139/158/139 153/172/153 155/174/155
f 114/130/114 156/175/156 153/172/153 115/133/115
f 157/176/157 158/177/158 155/174/155 154/173/154
f 143/162/143 140/159/140 155/174/155 158/177/158
f 159/178/159 160/179/160 158/177/158 157/176/157
f 136/155/136 143/162/143 158/177/158 160/179/160
f 161/180/161 135/154/135 160/179/160 159/178/159
f 130/149/130 136/155/136 160/179/160 135/154/135
f 162/181/162 163/182/163 161/183/161 164/184/164
f 134/153/134 135/154/135 161/180/161 163/185/163
f 165/186/165 164/184/164 161/183/161 159/187/159
f 166/188/166 164/184/164 165/186/165 167/189/167
f 157/190/157 168/191/168 165/186/165 159/187/159
f 169/192/169 167/189/167 165/186/165 168/191/168
f 170/193/170 167/189/167 169/192/169 171/194/171
f 172/195/172 173/196/173 169/192/169 168/191/168
f 174/197/174 171/194/171 169/192/169 173/196/173
f 103/117/103 171/194/171 174/197/174 108/122/108
f 175/198/175 176/199/176 174/197/174 173/196/173
f 177/200/177 108/122/108 174/197/174 176/199/176
f 107/121/107 108/122/108 177/200/177 178/201/178
f 179/202/179 180/203/180 177/200/177 176/199/176
f 181/204/181 178/201/178 177/200/177 180/203/180
f 182/205/182 178/201/178 181/204/181 183/206/183
f 184/207/184 185/208/185 181/204/181 180/203/180
f 186/209/186 183/206/183 181/204/181 185/208/185
f 64/76/64 67/75/67 186/209/186 185/208/185
f 187/210/187 188/211/188 186/209/186 67/75/67
f 189/212/189 183/206/183 186/209/186 188/211/188
f 190/213/190 191/214/191 189/212/189 188/211/188
f 192/215/192 193/216/193 189/212/189 191/214/191
f 182/205/182 183/206/183 189/212/189 193/216/193
f 194/217/194 195/218/195 193/216/193 192/215/192
f 106/120/106 182/205/182 193/216/193 195/218/195
f 196/219/196 197/220/197 195/218/195 194/217/194
f 105/119/105 106/120/106 195/218/195 197/220/197
f 198/221/198 199/222/199 197/220/197 196/219/196
f 102/116/102 105/119/105 197/220/197 199/222/199
f 200/223/200 201/224/201 199/222/199 198/221/198
f 170/193/170 102/116/102 199/222/199 201/224/201
f 202/225/202 166/188/166 201/224/201 200/223/200
f 167/189/167 170/193/170 201/224/201 166/188/166
f 203/226/203 204/227/204 202/225/202 200/223/200
f 205/228/205 162/181/162 202/225/202 204/227/204
f 164/184/164 166/188/166 202/225/202 162/181/162
f 206/229/206 207/230/207 205/231/205 204/232/204
f 208/233/208 209/234/209 205/231/205 207/230/207
f 163/185/163 162/235/162 205/231/205 209/234/209
f 210/236/210 133/152/133 209/234/209 208/233/208
f 134/153/134 163/185/163 209/234/209 133/152/133
f 211/237/211 212/238/212 210/236/210 208/233/208
f 213/239/213 214/240/214 210/236/210 212/238/212
f 128/147/128 133/152/133 210/236/210 214/240/214
f 215/241/215 216/242/216 214/240/214 213/239/213
f 125/144/125 128/147/128 214/240/214 216/242/216
f 217/243/217 218/244/218 216/242/216 215/241/215
f 219/245/219 125/144/125 216/242/216 218/244/218
f 220/246/220 221/247/221 219/245/219 218/244/218
f 222/248/222 223/249/223 219/245/219 221/247/221
f 126/145/126 125/144/125 219/245/219 223/249/223
f 224/250/224 225/251/225 223/249/223 222/248/222
f 132/151/132 126/145/126 223/249/223 225/251/225
f 226/252/226 227/253/227 225/251/225 224/250/224
f 146/165/146 132/151/132 225/251/225 227/253/227
f 228/254/228 149/168/149 227/253/227 226/252/226
f 147/166/147 146/165/146 227/253/227 149/168/149
f 229/255/229 230/256/230 228/257/228 226/258/226
f 231/259/231 232/260/232 228/257/228 230/256/230
f 150/169/150 149/168/149 228/254/228 232/261/232
f 233/262/233 234/263/234 232/260/232 231/259/231
f 151/264/151 150/265/150 232/260/232 234/263/234
f 235/266/235 117/267/117 234/263/234 233/262/233
f 116/134/116 151/170/151 234/268/234 117/135/117
f 236/269/236 237/270/237 235/266/235 233/262/233
f 54/61/54 80/90/80 235/266/235 237/270/237
f 79/89/79 117/267/117 235/266/235 80/90/80
f 238/271/238 239/272/239 237/270/237 236/269/236
f 53/60/53 54/61/54 237/270/237 239/272/239
f 74/84/74 240/273/240 239/272/239 238/271/238
f 52/57/52 53/60/53 239/272/239 240/273/240
f 71/81/71 241/274/241 240/273/240 74/84/74
f 242/275/242 52/57/52 240/273/240 241/274/241
f 243/276/243 244/277/244 242/275/242 241/274/241
f 245/278/245 246/279/246 242/275/242 244/277/244
f 51/58/51 52/57/52 242/275/242 246/279/246
f 247/280/247 248/281/248 246/282/246 245/283/245
f 50/55/50 51/56/51 246/282/246 248/281/248
f 249/284/249 250/285/250 248/281/248 247/280/247
f 251/286/251 50/55/50 248/281/248 250/285/250
f 35/40/35 50/55/50 251/286/251 252/287/252
f 253/288/253 254/289/254 251/286/251 250/285/250
f 255/290/255 252/287/252 251/286/251 254/289/254
f 256/291/256 252/287/252 255/290/255 257/292/257
f 258/293/258 259/294/259 255/290/255 254/289/254
f 260/295/260 257/292/257 255/290/255 259/294/259
f 261/296/261 257/292/257 260/295/260 262/297/262
f 62/70/62 263/298/263 260/295/260 259/294/259
f 264/299/264 262/297/262 260/295/260 263/298/263
f 265/300/265 262/297/262 264/299/264 266/301/266
f 267/302/267 36/41/36 264/299/264 263/298/263
f 39/44/39 266/301/266 264/299/264 36/41/36
f 62/70/62 65/73/65 267/302/267 263/298/263
f 68/78/68 268/303/268 267/302/267 65/73/65
f 37/42/37 36/41/36 267/302/267 268/303/268
f 42/47/42 37/42/37 268/303/268 269/304/269
f 270/305/270 269/304/269 268/303/268 68/78/68
f 69/79/69 271/306/271 270/305/270 68/78/68
f 272/307/272 273/308/273 270/305/270 271/306/271
f 55/63/55 269/304/269 270/305/270 273/308/273
f 111/309/111 274/310/274 273/308/273 272/307/272
f 56/64/56 55/63/55 273/308/273 274/310/274
f 109/311/109 275/312/275 274/310/274 111/309/111
f 61/69/61 56/64/56 274/310/274 275/312/275
f 78/88/78 77/87/77 275/312/275 109/311/109
f 276/313/276 61/69/61 275/312/275 77/87/77
f 43/48/43 277/314/277 276/313/276 77/87/77
f 278/315/278 279/316/279 276/313/276 277/314/277
f 60/68/60 61/69/61 276/313/276 279/316/279
f 280/317/280 281/318/281 279/316/279 278/315/278
f 59/67/59 60/68/60 279/316/279 281/318/281
f 282/319/282 40/45/40 281/318/281 280/317/280
f 41/46/41 59/67/59 281/318/281 40/45/40
f 283/320/283 284/321/284 282/319/282 280/317/280
f 265/300/265 266/301/266 282/319/282 284/321/284
f 39/44/39 40/45/40 282/319/282 266/301/266
f 14/14/14 9/9/9 284/321/284 283/320/283
f 8/8/8 265/300/265 284/321/284 9/9/9
f 285/322/285 14/14/14 283/320/283 286/323/286
f 278/315/278 286/323/286 283/320/283 280/317/280
f 29/29/29 28/28/28 285/322/285 287/324/287
f 13/13/13 14/14/14 285/322/285 28/28/28
f 288/325/288 287/324/287 285/322/285 286/323/286
f 47/52/47 287/324/287 288/325/288 46/51/46
f 278/315/278 277/314/277 288/325/288 286/323/286
f 43/48/43 46/51/46 288/325/288 277/314/277
f 30/30/30 29/29/29 287/324/287 47/52/47
f 289/326/289 290/327/290 272/328/272 271/329/271
f 112/126/112 111/125/111 272/328/272 290/327/290
f 179/202/179 291/330/291 290/327/290 289/326/289
f 113/331/113 112/126/112 290/327/290 291/330/291
f 176/199/176 175/198/175 291/330/291 179/202/179
f 292/332/292 113/331/113 291/330/291 175/198/175
f 173/196/173 172/195/172 292/332/292 175/198/175
f 154/173/154 156/175/156 292/333/292 172/334/172
f 114/130/114 113/129/113 292/333/292 156/175/156
f 180/203/180 179/202/179 289/326/289 184/207/184
f 69/335/69 184/207/184 289/326/289 271/329/271
f 58/66/58 42/47/42 269/304/269 55/63/55
f 261/296/261 262/297/262 265/300/265 8/8/8
f 11/11/11 293/336/293 261/296/261 8/8/8
f 256/291/256 257/292/257 261/296/261 293/336/293
f 12/12/12 17/17/17 293/336/293 11/11/11
f 18/18/18 256/291/256 293/336/293 17/17/17
f 63/71/63 62/70/62 259/294/259 258/293/258
f 253/288/253 294/337/294 258/293/258 254/289/254
f 66/338/66 63/71/63 258/293/258 294/337/294
f 295/339/295 296/340/296 294/341/294 253/342/253
f 297/343/297 66/74/66 294/341/294 296/340/296
f 298/344/298 299/345/299 297/343/297 296/340/296
f 300/346/300 187/210/187 297/343/297 299/345/299
f 67/75/67 66/74/66 297/343/297 187/210/187
f 301/347/301 302/348/302 300/346/300 299/345/299
f 303/349/303 190/213/190 300/346/300 302/348/302
f 188/211/188 187/210/187 300/346/300 190/213/190
f 304/350/304 305/351/305 303/349/303 302/348/302
f 306/352/306 307/353/307 303/349/303 305/351/305
f 191/214/191 190/213/190 303/349/303 307/353/307
f 308/354/308 309/355/309 307/353/307 306/352/306
f 192/215/192 191/214/191 307/353/307 309/355/309
f 310/356/310 311/357/311 309/355/309 308/354/308
f 194/217/194 192/215/192 309/355/309 311/357/311
f 312/358/312 313/359/313 311/357/311 310/356/310
f 196/219/196 194/217/194 311/357/311 313/359/313
f 81/93/81 314/360/314 313/359/313 312/358/312
f 198/221/198 196/219/196 313/359/313 314/360/314
f 84/96/84 203/226/203 314/360/314 81/93/81
f 200/223/200 198/221/198 314/360/314 203/226/203
f 315/361/315 316/362/316 312/358/312 310/356/310
f 82/94/82 81/93/81 312/358/312 316/362/316
f 317/363/317 318/364/318 316/365/316 315/366/315
f 85/97/85 82/100/82 316/365/316 318/364/318
f 319/367/319 320/368/320 318/364/318 317/363/317
f 321/369/321 85/97/85 318/364/318 320/368/320
f 322/370/322 323/371/323 321/369/321 320/368/320
f 211/237/211 324/372/324 321/369/321 323/371/323
f 86/98/86 85/97/85 321/369/321 324/372/324
f 208/233/208 207/230/207 324/372/324 211/237/211
f 206/229/206 86/98/86 324/372/324 207/230/207
f 325/373/325 326/374/326 323/371/323 322/370/322
f 212/238/212 211/237/211 323/371/323 326/374/326
f 327/375/327 328/376/328 326/374/326 325/373/325
f 213/239/213 212/238/212 326/374/326 328/376/328
f 329/377/329 330/378/330 328/376/328 327/375/327
f 215/241/215 213/239/213 328/376/328 330/378/330
f 331/379/331 332/380/332 330/378/330 329/377/329
f 217/243/217 215/241/215 330/378/330 332/380/332
f 333/381/333 334/382/334 332/380/332 331/379/331
f 335/383/335 217/243/217 332/380/332 334/382/334
f 336/384/336 337/385/337 335/383/335 334/382/334
f 338/386/338 220/246/220 335/383/335 337/385/337
f 218/244/218 217/243/217 335/383/335 220/246/220
f 95/109/95 94/108/94 338/387/338 337/388/337
f 339/389/339 340/390/340 338/387/338 94/108/94
f 221/391/221 220/392/220 338/387/338 340/390/340
f 341/393/341 342/394/342 340/390/340 339/389/339
f 222/395/222 221/391/221 340/390/340 342/394/342
f 343/396/343 344/397/344 342/394/342 341/393/341
f 224/398/224 222/395/222 342/394/342 344/397/344
f 345/399/345 229/255/229 344/397/344 343/396/343
f 226/258/226 224/398/224 344/397/344 229/255/229
f 346/400/346 347/401/347 345/399/345 343/396/343
f 348/402/348 349/403/349 345/399/345 347/401/347
f 230/256/230 229/255/229 345/399/345 349/403/349
f 350/404/350 351/405/351 349/403/349 348/402/348
f 231/259/231 230/256/230 349/403/349 351/405/351
f 238/271/238 236/269/236 351/405/351 350/404/350
f 233/262/233 231/259/231 351/405/351 236/269/236
f 76/86/76 75/85/75 350/404/350 348/402/348
f 74/84/74 238/271/238 350/404/350 75/85/75
f 352/406/352 76/86/76 348/402/348 347/401/347
f 353/407/353 354/408/354 352/406/352 355/409/355
f 73/83/73 76/86/76 352/406/352 354/408/354
f 346/400/346 355/409/355 352/406/352 347/401/347
f 356/410/356 357/411/357 354/408/354 353/407/353
f 70/80/70 73/83/73 354/408/354 357/411/357
f 358/412/358 359/413/359 357/411/357 356/410/356
f 243/276/243 70/80/70 357/411/357 359/413/359
f 360/414/360 361/415/361 359/413/359 358/412/358
f 244/277/244 243/276/243 359/413/359 361/415/361
f 362/416/362 363/417/363 361/415/361 360/414/360
f 245/278/245 244/277/244 361/415/361 363/417/363
f 364/418/364 365/419/365 363/417/363 362/416/362
f 247/420/247 245/278/245 363/417/363 365/419/365
f 366/421/366 367/422/367 365/419/365 364/418/364
f 249/423/249 247/420/247 365/419/365 367/422/367
f 368/424/368 369/425/369 367/426/367 366/427/366
f 295/339/295 249/428/249 367/426/367 369/425/369
f 370/429/370 298/344/298 369/425/369 368/424/368
f 296/340/296 295/339/295 369/425/369 298/344/298
f 371/430/371 372/431/372 370/429/370 368/424/368
f 373/432/373 301/347/301 370/429/370 372/431/372
f 299/345/299 298/344/298 370/429/370 301/347/301
f 7/7/7 374/433/374 373/432/373 372/431/372
f 375/434/375 304/350/304 373/432/373 374/433/374
f 302/348/302 301/347/301 373/432/373 304/350/304
f 376/435/376 377/436/377 375/434/375 374/433/374
f 378/437/378 379/438/379 375/434/375 377/436/377
f 305/351/305 304/350/304 375/434/375 379/438/379
f 380/439/380 381/440/381 379/438/379 378/437/378
f 306/352/306 305/351/305 379/438/379 381/440/381
f 382/441/382 383/442/383 381/443/381 380/444/380
f 308/354/308 306/352/306 381/440/381 383/445/383
f 317/363/317 315/366/315 383/442/383 382/441/382
f 310/356/310 308/354/308 383/445/383 315/361/315
f 384/446/384 385/447/385 382/441/382 380/444/380
f 319/367/319 317/363/317 382/441/382 385/447/385
f 386/448/386 387/449/387 385/447/385 384/446/384
f 388/450/388 319/367/319 385/447/385 387/449/387
f 124/143/124 389/451/389 388/450/388 387/449/387
f 325/373/325 322/370/322 388/450/388 389/451/389
f 320/368/320 319/367/319 388/450/388 322/370/322
f 123/142/123 390/452/390 389/451/389 124/143/124
f 327/375/327 325/373/325 389/451/389 390/452/390
f 122/141/122 391/453/391 390/452/390 123/142/123
f 329/377/329 327/375/327 390/452/390 391/453/391
f 392/454/392 393/455/393 391/453/391 122/141/122
f 331/379/331 329/377/329 391/453/391 393/455/393
f 394/456/394 395/457/395 393/455/393 392/454/392
f 333/381/333 331/379/331 393/455/393 395/457/395
f 396/458/396 397/459/397 395/457/395 394/456/394
f 398/460/398 333/381/333 395/457/395 397/459/397
f 399/461/399 400/462/400 398/460/398 397/459/397
f 96/463/96 336/384/336 398/460/398 400/462/400
f 334/382/334 333/381/333 398/460/398 336/384/336
f 100/114/100 87/101/87 400/464/400 399/465/399
f 90/104/90 96/110/96 400/464/400 87/101/87
f 401/466/401 100/114/100 399/465/399 402/467/402
f 396/458/396 402/468/402 399/461/399 397/459/397
f 403/469/403 404/470/404 401/466/401 405/471/405
f 99/113/99 100/114/100 401/466/401 404/470/404
f 406/472/406 405/471/405 401/466/401 402/467/402
f 22/22/22 405/471/405 406/472/406 27/27/27
f 396/458/396 407/473/407 406/474/406 402/468/402
f 31/33/31 27/36/27 406/474/406 407/473/407
f 394/456/394 408/475/408 407/473/407 396/458/396
f 409/476/409 31/33/31 407/473/407 408/475/408
f 32/34/32 31/33/31 409/476/409 410/477/410
f 411/478/411 412/479/412 409/476/409 408/475/408
f 413/480/413 410/477/410 409/476/409 412/479/412
f 414/481/414 410/477/410 413/480/413 415/482/415
f 118/137/118 416/483/416 413/480/413 412/479/412
f 417/484/417 415/482/415 413/480/413 416/483/416
f 377/485/377 415/482/415 417/484/417 378/486/378
f 386/448/386 384/446/384 417/484/417 416/483/416
f 380/444/380 378/486/378 417/484/417 384/446/384
f 121/140/121 386/448/386 416/483/416 118/137/118
f 6/487/6 5/488/5 414/481/414 376/489/376
f 32/34/32 410/477/410 414/481/414 5/488/5
f 377/485/377 376/489/376 414/481/414 415/482/415
f 119/138/119 118/137/118 412/479/412 411/478/411
f 394/456/394 392/454/392 411/478/411 408/475/408
f 122/141/122 119/138/119 411/478/411 392/454/392
f 97/111/97 99/113/99 404/470/404 418/490/418
f 419/491/419 418/490/418 404/470/404 403/469/403
f 356/410/356 418/490/418 419/491/419 358/412/358
f 21/21/21 420/492/420 419/491/419 403/469/403
f 360/414/360 358/412/358 419/491/419 420/492/420
f 24/24/24 421/493/421 420/492/420 21/21/21
f 362/416/362 360/414/360 420/492/420 421/493/421
f 25/31/25 422/494/422 421/495/421 24/496/24
f 364/418/364 362/416/362 421/493/421 422/497/422
f 1/1/1 423/498/423 422/494/422 25/31/25
f 366/427/366 364/499/364 422/494/422 423/498/423
f 4/4/4 371/430/371 423/498/423 1/1/1
f 368/424/368 366/427/366 423/498/423 371/430/371
f 353/407/353 97/111/97 418/490/418 356/410/356
f 22/22/22 21/21/21 403/469/403 405/471/405
f 121/140/121 124/143/124 387/449/387 386/448/386
f 7/7/7 6/6/6 376/435/376 374/433/374
f 4/4/4 7/7/7 372/431/372 371/430/371
f 98/112/98 97/111/97 353/407/353 355/409/355
f 101/115/101 98/112/98 355/409/355 346/400/346
f 341/393/341 101/115/101 346/400/346 343/396/343
f 91/105/91 101/115/101 341/393/341 339/389/339
f 92/106/92 91/105/91 339/389/339 94/108/94
f 96/463/96 95/500/95 337/385/337 336/384/336
f 250/285/250 249/284/249 295/501/295 253/288/253
f 35/40/35 252/287/252 256/291/256 18/18/18
f 71/81/71 70/80/70 243/276/243 241/274/241
f 83/99/83 86/98/86 206/229/206 84/502/84
f 203/226/203 84/96/84 206/503/206 204/227/204
f 69/335/69 64/76/64 185/208/185 184/207/184
f 107/121/107 178/201/178 182/205/182 106/120/106
f 157/190/157 154/504/154 172/195/172 168/191/168
f 103/117/103 102/116/102 170/193/170 171/194/171
f 131/150/131 132/151/132 146/165/146 138/157/138
f 136/155/136 137/156/137 144/163/144 143/162/143
f 42/47/42 58/66/58 59/67/59 41/46/41
f 33/38/33 30/30/30 47/52/47 48/53/48
f 12/12/12 13/13/13 28/28/28 15/15/15
