# split from a merged terrain OBJ by scripts/split-terrain-obj-parts.py
o part-057
v -0.586398 0.490464 -0.028295
v -0.585927 0.490413 -0.028495
v -0.585908 0.490411 -0.028368
v -0.586341 0.490737 -0.028047
v -0.586359 0.491031 -0.028407
v -0.585914 0.490661 -0.028443
v -0.586536 0.490722 -0.028679
v -0.585997 0.490488 -0.028703
v -0.597483 0.493690 -0.020618
v -0.598235 0.495025 -0.020336
v -0.597937 0.495896 -0.021329
v -0.597380 0.495147 -0.021927
v -0.596718 0.495968 -0.021383
v -0.597606 0.496066 -0.020754
v -0.597500 0.495398 -0.020169
v -0.595616 0.494345 -0.021016
v -0.596650 0.494829 -0.020487
v -0.596348 0.493036 -0.021221
v -0.596559 0.494500 -0.022549
v -0.595429 0.492744 -0.022019
v -0.595743 0.494051 -0.023248
v -0.595568 0.495663 -0.022053
v -0.594692 0.495312 -0.022669
v -0.594888 0.493662 -0.023991
v -0.593862 0.494950 -0.023373
v -0.594649 0.493935 -0.021629
v -0.593688 0.493553 -0.022243
v -0.593021 0.494513 -0.024074
v -0.592753 0.493240 -0.022936
v -0.594501 0.492463 -0.022822
v -0.593592 0.492193 -0.023599
v -0.591880 0.492933 -0.023680
v -0.592681 0.491958 -0.024315
v -0.594042 0.493298 -0.024738
v -0.593185 0.492940 -0.025477
v -0.591801 0.491692 -0.025035
v -0.592289 0.492636 -0.026203
v -0.592211 0.494093 -0.024778
v -0.591369 0.493668 -0.025480
v -0.591326 0.492407 -0.026844
v -0.590504 0.493235 -0.026137
v -0.591023 0.492611 -0.024418
v -0.590174 0.492286 -0.025144
v -0.589619 0.492790 -0.026722
v -0.589329 0.491931 -0.025786
v -0.590961 0.491411 -0.025810
v -0.590091 0.491183 -0.026531
v -0.588485 0.491683 -0.026405
v -0.589124 0.490957 -0.027064
v -0.590331 0.492063 -0.027419
v -0.589318 0.491703 -0.027950
v -0.588129 0.490788 -0.027511
v -0.588325 0.491377 -0.028295
v -0.588716 0.492338 -0.027267
v -0.587884 0.491898 -0.027791
v -0.587346 0.490999 -0.028564
v -0.587042 0.491436 -0.028224
v -0.587680 0.491474 -0.027110
v -0.586909 0.491055 -0.027660
v -0.587233 0.490627 -0.027970
vt 0.625943 0.973721
vt 0.626036 0.973901
vt 0.625985 0.973940
vt 0.625808 0.973711
vt 0.905942 0.994426
vt 0.905923 0.994270
vt 0.906269 0.994369
vt 0.906283 0.994517
vt 0.626195 0.973597
vt 0.626139 0.973857
vt 0.626432 0.973755
vt 0.626214 0.974002
vt 0.686769 0.033346
vt 0.686867 0.032645
vt 0.687449 0.032460
vt 0.687885 0.032939
vt 0.687886 0.032242
vt 0.687178 0.032166
vt 0.686502 0.032331
vt 0.685900 0.033645
vt 0.686074 0.032820
vt 0.686744 0.034044
vt 0.687926 0.033761
vt 0.630138 0.974452
vt 0.630698 0.974488
vt 0.630887 0.974933
vt 0.630442 0.975219
vt 0.686866 0.034702
vt 0.687993 0.034377
vt 0.629455 0.974765
vt 0.629413 0.973935
vt 0.630010 0.973847
vt 0.688836 0.034730
vt 0.688724 0.034129
vt 0.900410 0.992040
vt 0.899717 0.992033
vt 0.899737 0.990985
vt 0.900425 0.990995
vt 0.629823 0.975590
vt 0.629344 0.975994
vt 0.628932 0.975121
vt 0.900411 0.993922
vt 0.900442 0.994960
vt 0.899799 0.994893
vt 0.899740 0.994033
vt 0.901121 0.994839
vt 0.901081 0.993861
vt 0.899650 0.993166
vt 0.900359 0.993062
vt 0.901062 0.993004
vt 0.901756 0.993783
vt 0.901747 0.992988
vt 0.901101 0.992049
vt 0.901787 0.992070
vt 0.902436 0.992949
vt 0.902479 0.992076
vt 0.901144 0.991057
vt 0.901834 0.991111
vt 0.902504 0.991223
vt 0.903134 0.991999
vt 0.903199 0.991157
vt 0.902439 0.993693
vt 0.902510 0.994504
vt 0.901810 0.994685
vt 0.903131 0.993658
vt 0.903187 0.994443
vt 0.903827 0.994304
vt 0.903769 0.993621
vt 0.903114 0.992877
vt 0.903771 0.992843
vt 0.904373 0.993763
vt 0.904362 0.992861
vt 0.903754 0.992015
vt 0.904358 0.992097
vt 0.626091 0.972468
vt 0.626006 0.971870
vt 0.626758 0.971936
vt 0.626691 0.972568
vt 0.903829 0.991207
vt 0.904405 0.991309
vt 0.627150 0.972332
vt 0.627341 0.971798
vt 0.905670 0.994590
vt 0.905205 0.994518
vt 0.905201 0.994114
vt 0.905630 0.994391
vt 0.905278 0.993746
vt 0.904492 0.994367
vt 0.905551 0.994110
vt 0.626060 0.973061
vt 0.625669 0.972935
vt 0.625542 0.972360
vt 0.906054 0.994295
vt 0.905854 0.994178
vt 0.626342 0.973226
vt 0.625359 0.971772
vt 0.626580 0.973469
vt 0.685902 0.034504
vn -0.1649 -0.9747 0.1510
vn 0.6512 -0.7413 -0.1625
vn 0.7336 -0.3703 0.5698
vn 0.5228 -0.0524 0.8508
vn 0.5389 0.8144 -0.2153
vn 0.8262 0.5587 -0.0724
vn -0.0901 -0.1768 -0.9801
vn 0.3205 -0.3155 -0.8932
vn -0.5390 -0.7286 0.4226
vn -0.8715 -0.1077 0.4785
vn -0.7186 0.5395 -0.4388
vn -0.6128 0.1274 -0.7799
vn 0.2982 0.9517 -0.0728
vn -0.1159 0.9351 0.3348
vn 0.0194 0.3645 0.9310
vn 0.5340 0.0592 0.8434
vn 0.4099 0.1193 0.9043
vn -0.2654 -0.8921 0.3656
vn -0.6014 0.0026 -0.7989
vn -0.2210 -0.9426 0.2502
vn -0.6307 -0.0097 -0.7760
vn 0.2886 0.9532 -0.0898
vn 0.2793 0.9555 -0.0948
vn -0.6347 -0.0178 -0.7726
vn 0.2592 0.9561 -0.1365
vn 0.5957 -0.0112 0.8031
vn 0.6121 -0.0611 0.7884
vn 0.2727 0.9486 -0.1606
vn 0.6437 -0.0632 0.7627
vn -0.2144 -0.9562 0.1992
vn -0.1952 -0.9663 0.1677
vn 0.6601 -0.0512 0.7495
vn -0.1633 -0.9700 0.1799
vn -0.6249 -0.0334 -0.7800
vn -0.6177 -0.0552 -0.7844
vn -0.1528 -0.9734 0.1705
vn -0.5933 -0.0412 -0.8039
vn 0.2684 0.9465 -0.1789
vn 0.2725 0.9454 -0.1788
vn -0.5268 0.0351 -0.8493
vn 0.3017 0.9367 -0.1779
vn 0.6611 -0.0453 0.7490
vn 0.6479 -0.0477 0.7602
vn 0.3249 0.9306 -0.1687
vn 0.6031 -0.0784 0.7938
vn -0.1948 -0.9754 0.1037
vn -0.2290 -0.9726 0.0405
vn 0.6083 -0.0204 0.7935
vn -0.1536 -0.9862 0.0622
vn -0.4570 0.0356 -0.8887
vn -0.3768 0.0015 -0.9263
vn -0.0954 -0.9841 0.1499
vn -0.3140 -0.0488 -0.9482
vn 0.3336 0.9259 -0.1774
vn 0.3530 0.9010 -0.2521
vn -0.2498 -0.1440 -0.9575
vn 0.4039 0.8635 -0.3020
vn 0.6362 0.1053 0.7643
vn 0.5806 0.0567 0.8122
vn -0.1323 -0.9762 0.1719
f 1/1/1 2/2/2 3/3/3 4/4/4
f 5/5/5 4/6/4 3/7/3 6/8/6
f 1/1/1 7/9/7 8/10/8 2/2/2
f 5/11/5 6/12/6 8/10/8 7/9/7
f 9/13/9 10/14/10 11/15/11 12/16/12
f 13/17/13 12/16/12 11/15/11 14/18/14
f 15/19/15 14/18/14 11/15/11 10/14/10
f 16/20/16 17/21/17 9/13/9 18/22/18
f 19/23/19 18/22/18 9/13/9 12/16/12
f 13/24/13 14/25/14 15/26/15 17/27/17
f 9/13/9 17/21/17 15/19/15 10/14/10
f 20/28/20 18/22/18 19/23/19 21/29/21
f 13/24/13 22/30/22 19/31/19 12/32/12
f 23/33/23 21/29/21 19/23/19 22/34/22
f 24/35/24 21/36/21 23/37/23 25/38/25
f 16/39/16 26/40/26 23/41/23 22/30/22
f 27/42/27 25/43/25 23/44/23 26/45/26
f 28/46/28 25/43/25 27/42/27 29/47/29
f 20/48/20 30/49/30 27/42/27 26/45/26
f 31/50/31 29/47/29 27/42/27 30/49/30
f 32/51/32 29/47/29 31/50/31 33/52/33
f 24/35/24 34/53/34 31/50/31 30/49/30
f 35/54/35 33/52/33 31/50/31 34/53/34
f 36/55/36 33/52/33 35/54/35 37/56/37
f 28/57/28 38/58/38 35/54/35 34/53/34
f 39/59/39 37/56/37 35/54/35 38/58/38
f 40/60/40 37/56/37 39/59/39 41/61/41
f 32/51/32 42/62/42 39/63/39 38/64/38
f 43/65/43 41/66/41 39/63/39 42/62/42
f 44/67/44 41/66/41 43/65/43 45/68/45
f 36/55/36 46/69/46 43/65/43 42/62/42
f 47/70/47 45/68/45 43/65/43 46/69/46
f 48/71/48 45/68/45 47/70/47 49/72/49
f 40/60/40 50/73/50 47/70/47 46/69/46
f 51/74/51 49/72/49 47/70/47 50/73/50
f 52/75/52 49/76/49 51/77/51 53/78/53
f 44/79/44 54/80/54 51/74/51 50/73/50
f 55/81/55 53/78/53 51/77/51 54/82/54
f 56/83/56 53/84/53 55/85/55 57/86/57
f 48/71/48 58/87/58 55/85/55 54/88/54
f 59/89/59 57/86/57 55/85/55 58/87/58
f 5/5/5 57/86/57 59/89/59 4/6/4
f 52/75/52 60/90/60 59/91/59 58/92/58
f 1/93/1 4/6/4 59/89/59 60/94/60
f 53/78/53 56/95/56 60/90/60 52/75/52
f 7/9/7 1/1/1 60/90/60 56/95/56
f 49/76/49 52/75/52 58/92/58 48/96/48
f 5/11/5 7/9/7 56/95/56 57/97/57
f 45/68/45 48/71/48 54/88/54 44/67/44
f 41/61/41 44/79/44 50/73/50 40/60/40
f 37/56/37 40/60/40 46/69/46 36/55/36
f 33/52/33 36/55/36 42/62/42 32/51/32
f 29/47/29 32/51/32 38/64/38 28/46/28
f 25/38/25 28/57/28 34/53/34 24/35/24
f 21/36/21 24/35/24 30/49/30 20/48/20
f 18/22/18 20/28/20 26/98/26 16/20/16
f 17/27/17 16/39/16 22/30/22 13/24/13
f 8/10/8 6/12/6 3/3/3 2/2/2
