# split from a merged terrain OBJ by scripts/split-terrain-obj-parts.py
o part-070
v 0.498087 1.170364 0.007642
v 0.499588 1.172200 0.007135
v 0.500457 1.172095 0.009006
v 0.499378 1.170751 0.009696
v 0.500043 1.171285 0.011462
v 0.500034 1.172995 0.010393
v 0.498844 1.173725 0.008314
v 0.498339 1.173297 0.012009
v 0.498386 1.170919 0.012865
v 0.497374 1.170315 0.010471
v 0.497440 1.173845 0.006350
v 0.497867 1.172006 0.005308
v 0.496445 1.172149 0.003538
v 0.495923 1.174071 0.004462
v 0.496591 1.170380 0.005906
v 0.495148 1.171045 0.004113
v 0.494030 1.172759 0.003632
v 0.495982 1.171068 0.012860
v 0.495882 1.170216 0.011211
v 0.496144 1.169781 0.008728
v 0.494670 1.170314 0.010249
v 0.494067 1.171310 0.012453
v 0.492600 1.171820 0.011352
v 0.494276 1.172895 0.013648
v 0.493577 1.173663 0.011951
v 0.495453 1.174171 0.011282
v 0.496204 1.172866 0.013122
v 0.493029 1.173230 0.005455
v 0.492194 1.173883 0.007792
v 0.493551 1.174776 0.008023
v 0.494591 1.174961 0.006523
v 0.496063 1.174735 0.008094
v 0.494344 1.174703 0.009572
v 0.492607 1.174020 0.010211
v 0.493494 1.171084 0.006079
v 0.492286 1.171774 0.008249
v 0.491697 1.172421 0.010158
v 0.493482 1.170539 0.009319
v 0.494867 1.169946 0.007434
v 0.497268 1.174087 0.009937
vt 0.690221 0.084103
vt 0.689764 0.085427
vt 0.688904 0.085111
vt 0.689038 0.084145
vt 0.688160 0.084289
vt 0.688011 0.085334
vt 0.688557 0.086534
vt 0.686966 0.084754
vt 0.687446 0.083470
vt 0.688806 0.083039
vt 0.279571 0.019424
vt 0.279890 0.021227
vt 0.279118 0.021295
vt 0.278773 0.020142
vt 0.279377 0.023127
vt 0.278542 0.022060
vt 0.278220 0.021109
vt 0.686929 0.082424
vt 0.688338 0.082261
vt 0.689968 0.082683
vt 0.689006 0.081895
vt 0.273745 0.020538
vt 0.274405 0.022510
vt 0.273322 0.021471
vt 0.272625 0.019926
vt 0.274576 0.020492
vt 0.273768 0.019311
vt 0.274710 0.019154
vt 0.275116 0.017673
vt 0.273243 0.018596
vt 0.277359 0.020725
vt 0.276408 0.020153
vt 0.276768 0.019297
vt 0.277658 0.019528
vt 0.277854 0.018377
vt 0.276187 0.018601
vt 0.275554 0.019455
vt 0.277140 0.021928
vt 0.275950 0.021335
vt 0.275252 0.020528
vt 0.275261 0.022358
vt 0.276982 0.022940
vt 0.275716 0.024122
vt 0.690965 0.082745
vt 0.691369 0.084222
vt 0.278775 0.017456
vt 0.276759 0.017350
vt 0.686668 0.086521
vt 0.685927 0.083432
vt 0.685910 0.085205
vt 0.690862 0.085701
vt 0.689982 0.086699
vn 0.4473 -0.8562 -0.2586
vn 0.8486 -0.0125 -0.5289
vn 0.9712 -0.0452 -0.2339
vn 0.6123 -0.7902 -0.0266
vn 0.8020 -0.3739 0.4658
vn 0.8282 0.5154 0.2203
vn 0.5472 0.8183 -0.1760
vn 0.4004 0.6660 0.6294
vn 0.4150 -0.4798 0.7730
vn 0.1611 -0.9724 0.1690
vn 0.5418 0.7637 -0.3510
vn 0.7516 -0.1222 -0.6482
vn 0.4667 -0.0808 -0.8807
vn 0.2142 0.7198 -0.6603
vn 0.2451 -0.8766 -0.4141
vn -0.1457 -0.6382 -0.7559
vn -0.5307 0.1435 -0.8353
vn 0.0106 -0.6229 0.7822
vn -0.0854 -0.9496 0.3017
vn 0.0376 -0.9990 0.0233
vn -0.2649 -0.9346 0.2375
vn -0.4712 -0.5947 0.6514
vn -0.8016 -0.3704 0.4693
vn -0.3006 0.2524 0.9197
vn -0.4827 0.6374 0.6006
vn 0.0632 0.9279 0.3674
vn 0.1441 0.4372 0.8878
vn -0.8065 0.2617 -0.5302
vn -0.8529 0.4756 -0.2152
vn -0.3360 0.9406 -0.0491
vn -0.1283 0.9565 -0.2618
vn 0.2295 0.9732 0.0125
vn -0.1044 0.9735 0.2033
vn -0.6836 0.6654 0.3000
vn -0.6702 -0.6544 -0.3501
vn -0.8953 -0.4213 -0.1450
vn -0.9683 -0.1256 0.2161
vn -0.5186 -0.8511 0.0818
vn -0.2491 -0.9576 -0.1446
vn 0.2648 0.9471 0.1813
f 1/1/1 2/2/2 3/3/3 4/4/4
f 5/5/5 4/4/4 3/3/3 6/6/6
f 7/7/7 6/6/6 3/3/3 2/2/2
f 8/8/8 9/9/9 5/5/5 6/6/6
f 10/10/10 4/4/4 5/5/5 9/9/9
f 11/11/11 12/12/12 13/13/13 14/14/14
f 15/15/15 16/16/16 13/13/13 12/12/12
f 17/17/17 14/14/14 13/13/13 16/16/16
f 9/9/9 18/18/18 19/19/19 10/10/10
f 20/20/20 10/10/10 19/19/19 21/21/21
f 22/22/22 21/23/21 19/24/19 18/25/18
f 23/26/23 22/22/22 24/27/24 25/28/25
f 26/29/26 25/28/25 24/27/24 27/30/27
f 18/25/18 27/30/27 24/27/24 22/22/22
f 28/31/28 29/32/29 30/33/30 31/34/31
f 32/35/32 31/34/31 30/33/30 33/36/33
f 34/37/34 33/36/33 30/33/30 29/32/29
f 35/38/35 28/31/28 17/17/17 16/16/16
f 31/34/31 14/14/14 17/17/17 28/31/28
f 29/32/29 36/39/36 37/40/37 34/37/34
f 25/28/25 34/37/34 37/40/37 23/26/23
f 38/41/38 23/26/23 37/40/37 36/39/36
f 22/22/22 23/26/23 38/41/38 21/23/21
f 35/38/35 39/42/39 38/41/38 36/39/36
f 20/43/20 21/23/21 38/41/38 39/42/39
f 16/16/16 15/15/15 39/42/39 35/38/35
f 1/1/1 20/20/20 39/44/39 15/45/15
f 28/31/28 35/38/35 36/39/36 29/32/29
f 26/29/26 33/36/33 34/37/34 25/28/25
f 7/46/7 11/11/11 32/35/32 40/47/40
f 14/14/14 31/34/31 32/35/32 11/11/11
f 26/29/26 40/47/40 32/35/32 33/36/33
f 6/6/6 7/7/7 40/48/40 8/8/8
f 27/49/27 8/8/8 40/48/40 26/50/26
f 9/9/9 8/8/8 27/49/27 18/18/18
f 4/4/4 10/10/10 20/20/20 1/1/1
f 2/2/2 1/1/1 15/45/15 12/51/12
f 7/7/7 2/2/2 12/51/12 11/52/11
