# split from a merged terrain OBJ by scripts/split-terrain-obj-parts.py
o part-028
v 0.589766 0.943904 0.090998
v 0.586070 0.941890 0.094098
v 0.584597 0.938695 0.092673
v 0.587698 0.938239 0.089237
v 0.584200 0.934841 0.087390
v 0.583197 0.938306 0.089030
v 0.584868 0.942828 0.089527
v 0.588155 0.946284 0.088257
v 0.591690 0.937835 0.084047
v 0.586243 0.935274 0.080754
v 0.581094 0.938570 0.084303
v 0.576693 0.938713 0.079230
v 0.581290 0.935404 0.073472
v 0.587399 0.935531 0.065936
v 0.592217 0.935295 0.072259
v 0.596979 0.937178 0.077741
v 0.657359 0.944365 0.034217
v 0.650296 0.936124 0.027141
v 0.659155 0.938017 0.016874
v 0.666937 0.944892 0.017458
v 0.663432 0.944814 -0.000256
v 0.655553 0.935970 0.005600
v 0.641782 0.934616 0.014740
v 0.655966 0.971667 0.002057
v 0.645325 0.972719 0.007466
v 0.649952 0.971203 0.017404
v 0.658886 0.970307 0.017079
v 0.634910 0.972353 0.016986
v 0.643190 0.970625 0.025410
v 0.652020 0.968170 0.032114
v 0.644364 0.985079 -0.018520
v 0.643679 0.975839 -0.017043
v 0.650773 0.973194 -0.025379
v 0.649113 0.985173 -0.028872
v 0.644052 0.985529 -0.040244
v 0.643881 0.972868 -0.040346
v 0.656820 0.957322 -0.016753
v 0.647228 0.959046 -0.029285
v 0.656672 0.968981 -0.013915
v 0.649318 0.973204 -0.009008
v 0.646788 0.996109 -0.030450
v 0.639552 1.002804 -0.026787
v 0.644508 1.003785 -0.020804
v 0.644858 0.995023 -0.020559
v 0.627749 1.003973 -0.016377
v 0.632328 1.004102 -0.010545
v 0.633852 0.995286 -0.008705
v 0.616454 0.966837 0.063526
v 0.609498 0.959696 0.066907
v 0.614013 0.956538 0.070885
v 0.620715 0.960317 0.069264
v 0.604954 0.949815 0.066654
v 0.610438 0.947839 0.070500
v 0.620547 0.949303 0.068414
v 0.601553 0.949342 0.073806
v 0.604288 0.944489 0.075641
v 0.601622 0.938278 0.070841
v 0.603861 0.945026 0.064085
v 0.615950 0.941184 0.063146
v 0.634129 0.985619 -0.008138
v 0.622356 0.986292 0.002080
v 0.622677 0.976073 0.002742
v 0.633893 0.976653 -0.007374
v 0.612038 0.988801 0.014327
v 0.613037 0.980594 0.015977
v 0.639040 0.973947 -0.001267
v 0.628353 0.973571 0.009612
v 0.631711 0.935038 -0.002236
v 0.617406 0.935264 0.008170
v 0.612966 0.935475 -0.010402
v 0.620628 0.935308 -0.020063
v 0.603771 0.935835 0.015474
v 0.602918 0.935808 -0.012992
v 0.612957 0.935542 -0.029268
v 0.616668 0.975058 0.020722
v 0.598584 0.940811 -0.039753
v 0.598100 0.947618 -0.036936
v 0.609262 0.946647 -0.049631
v 0.613070 0.941228 -0.052746
v 0.620763 0.948414 -0.054468
v 0.614149 0.950695 -0.047784
v 0.602575 0.950391 -0.036453
v 0.597471 0.949355 0.068966
v 0.603861 0.945026 0.064085
v 0.603492 0.963843 0.060309
v 0.600007 0.953262 0.060130
v 0.630957 0.984091 -0.056355
v 0.621957 0.983691 -0.060230
v 0.622447 0.994045 -0.057399
v 0.628191 0.995545 -0.053405
v 0.612124 0.983093 -0.053904
v 0.613880 0.995543 -0.052851
v 0.619971 1.000686 -0.046692
v 0.608884 0.938375 0.054704
v 0.597622 0.942388 0.057812
v 0.597311 0.937310 0.065370
v 0.600833 0.942495 0.062986
v 0.572333 0.945895 0.077284
v 0.567936 0.946017 0.070858
v 0.568638 0.940787 0.068745
v 0.572018 0.939223 0.074412
v 0.567067 0.943518 0.061315
v 0.570489 0.937971 0.063302
v 0.576261 0.935671 0.068200
v 0.592934 0.937315 0.059291
v 0.587666 0.938600 0.051683
v 0.592804 0.943432 0.045817
v 0.601287 0.937449 0.042226
v 0.593109 0.951612 0.064710
v 0.579838 0.952039 0.062589
v 0.575647 0.950487 0.058449
v 0.572693 0.951329 0.064707
v 0.575227 0.952273 0.069657
v 0.570384 0.951339 0.072001
v 0.568238 0.949551 0.062244
v 0.571605 0.946842 0.054884
v 0.588299 0.953172 0.059797
v 0.591784 0.960470 0.050461
v 0.595712 0.969700 0.049550
v 0.583685 0.953008 0.054936
v 0.586039 0.960767 0.042412
v 0.577455 0.943835 0.043754
v 0.584016 0.948755 0.024679
v 0.587697 0.943776 0.028478
v 0.581636 0.940866 0.045712
v 0.595118 0.937376 0.021377
v 0.583666 1.002627 0.030657
v 0.577475 1.000700 0.034385
v 0.581159 0.999994 0.040642
v 0.588126 1.000823 0.036267
v 0.588685 0.994069 0.036576
v 0.582077 0.994321 0.040130
v 0.577133 0.995231 0.034352
v 0.583012 0.940316 -0.010534
v 0.579435 0.949794 -0.007704
v 0.583647 0.953560 -0.019544
v 0.576554 0.958967 0.022910
v 0.570298 0.962054 -0.004948
v 0.571315 0.959533 0.002430
v 0.576315 0.947936 0.044705
v 0.574593 0.978678 0.029280
v 0.569313 0.977998 0.021866
v 0.580720 0.961507 0.036310
v 0.561687 0.997516 0.002343
v 0.560888 0.995028 0.011077
v 0.558765 0.999586 0.008591
v 0.566905 1.000221 0.008510
v 0.573245 1.001445 0.016612
v 0.567407 1.001196 0.019015
v 0.566711 0.995135 0.020030
v 0.572872 0.968092 -0.011578
v 0.566022 0.976988 -0.004898
v 0.570244 0.979708 -0.009912
v 0.576598 0.976126 -0.016267
v 0.578383 0.984454 -0.018148
v 0.569925 0.985765 -0.009412
v 0.563768 0.984535 -0.003129
v 0.563733 0.979384 0.013211
v 0.565527 0.968370 0.012191
v 0.567435 0.988179 0.020461
v 0.562169 0.988196 0.012168
v 0.560773 0.990013 0.003149
v 0.560395 0.981751 0.003921
v 0.562482 0.972976 0.001391
v 0.564365 0.991661 -0.002496
v 0.567479 0.998030 -0.000435
v 0.574826 0.998985 -0.006107
v 0.571108 0.992763 -0.009037
v 0.583858 0.999474 -0.013079
v 0.579161 0.993444 -0.017849
v 0.595809 1.000200 -0.023839
v 0.590663 0.993598 -0.028462
v 0.589722 0.983215 -0.029352
v 0.588747 0.971307 -0.027917
v 0.602322 0.994785 -0.042278
v 0.601279 0.983167 -0.042951
v 0.601420 0.969109 -0.042404
v 0.611623 0.968912 -0.052689
v 0.613076 0.956909 -0.049384
v 0.602396 0.957209 -0.038877
v 0.586894 0.959138 -0.024118
v 0.620450 0.969446 -0.058764
v 0.621464 0.957072 -0.055217
v 0.629546 0.970698 -0.056525
v 0.628987 0.957765 -0.054833
v 0.626141 0.945819 -0.054467
v 0.616452 0.937686 -0.050720
v 0.633865 0.958282 -0.049778
v 0.630199 0.944996 -0.049333
v 0.620530 0.936380 -0.044595
v 0.602089 0.937208 -0.037662
v 0.607524 0.935896 -0.034129
v 0.636259 0.944948 -0.041418
v 0.625786 0.936220 -0.037392
v 0.641955 0.946001 -0.031057
v 0.632446 0.936299 -0.027217
v 0.653881 0.944500 -0.017874
v 0.644928 0.935671 -0.012609
v 0.664649 0.956054 -0.002083
v 0.663668 0.967246 -0.001923
v 0.668526 0.965544 0.016516
v 0.669745 0.955012 0.016811
v 0.658255 0.963331 0.036055
v 0.659548 0.954287 0.036548
v 0.641806 0.943090 0.047594
v 0.643939 0.953121 0.051099
v 0.643336 0.962877 0.051100
v 0.631475 0.951209 0.062504
v 0.631504 0.962469 0.062244
v 0.638301 0.968455 0.045466
v 0.626504 0.968601 0.055331
v 0.631186 0.970433 0.036894
v 0.619919 0.970632 0.046899
v 0.610887 0.970286 0.055397
v 0.612126 0.973256 0.036977
v 0.603132 0.973304 0.044053
v 0.605532 0.974766 0.027917
v 0.596220 0.974993 0.033475
v 0.589500 0.976925 0.037043
v 0.585828 0.976231 0.038594
v 0.595838 0.984096 0.030791
v 0.588927 0.985948 0.036927
v 0.582534 0.986832 0.038873
v 0.577656 0.988242 0.034288
v 0.579519 0.977644 0.035187
v 0.572700 0.988740 0.027776
v 0.572142 0.995719 0.027540
v 0.573204 1.001568 0.026944
v 0.578866 1.002157 0.023898
v 0.591498 1.002898 0.025630
v 0.585924 1.002552 0.019511
v 0.580100 1.001896 0.012970
v 0.573655 1.000658 0.005799
v 0.594007 1.002923 0.013308
v 0.588100 1.002279 0.007468
v 0.581556 1.001229 0.000593
v 0.596907 1.002378 0.000031
v 0.590516 1.001439 -0.006350
v 0.609382 1.002583 -0.011237
v 0.603126 1.001825 -0.017347
v 0.622203 1.003256 -0.022658
v 0.615963 1.002486 -0.029468
v 0.608442 1.001057 -0.036652
v 0.626581 1.001747 -0.039833
v 0.633338 1.002248 -0.033014
v 0.641747 0.995832 -0.038930
v 0.635014 0.996217 -0.047119
v 0.637345 0.985020 -0.049324
v 0.635874 0.972054 -0.049609
v 0.640236 0.958925 -0.041428
v 0.614760 1.002822 -0.005491
v 0.608610 1.002326 0.010461
v 0.619008 1.002045 -0.000394
v 0.602567 1.002789 0.005537
v 0.611654 0.997022 0.013487
v 0.621785 0.995134 0.001743
v 0.602987 0.991490 0.023682
v 0.603043 0.999787 0.022707
v 0.599929 1.003376 0.019094
v 0.595182 1.000615 0.030088
v 0.595617 0.993137 0.030580
v 0.602928 0.982251 0.024481
v 0.623248 0.972903 0.028102
v 0.627817 0.941352 0.058570
v 0.620686 0.935943 0.050374
v 0.635982 0.936241 0.039835
v 0.612033 0.935245 0.037562
v 0.626564 0.934680 0.027771
v 0.589034 0.936988 -0.010043
v 0.595166 0.936250 -0.012309
v 0.579789 0.950959 0.050362
v 0.570597 0.941519 0.053563
v 0.576066 0.937644 0.055844
v 0.582034 0.935894 0.060122
v 0.583885 0.952347 0.066580
v 0.583727 0.951713 0.076649
v 0.588137 0.951630 0.070715
v 0.578995 0.952437 0.072918
v 0.588300 0.949592 0.080410
v 0.592565 0.950035 0.074854
v 0.592541 0.948202 0.084358
v 0.597196 0.948828 0.079111
v 0.594503 0.944061 0.086035
v 0.599372 0.943854 0.080849
v 0.584526 0.947459 0.084121
v 0.581608 0.943486 0.085092
v 0.579758 0.950125 0.081161
v 0.577150 0.945034 0.081625
v 0.574735 0.951586 0.077294
vt 0.297296 0.844678
vt 0.297108 0.842616
vt 0.298419 0.841575
vt 0.299574 0.843046
vt 0.300667 0.840551
vt 0.299298 0.839929
vt 0.296435 0.840882
vt 0.293951 0.843956
vt 0.301972 0.844408
vt 0.303801 0.840307
vt 0.301275 0.837840
vt 0.303910 0.835248
vt 0.307544 0.837297
vt 0.311711 0.839720
vt 0.308492 0.842528
vt 0.305714 0.845566
vt 0.334799 0.878096
vt 0.338275 0.872882
vt 0.344876 0.877851
vt 0.345777 0.882733
vt 0.355200 0.880172
vt 0.350203 0.874703
vt 0.343693 0.867880
vt 0.076136 0.876871
vt 0.082463 0.875286
vt 0.084302 0.880881
vt 0.080455 0.883868
vt 0.090256 0.875433
vt 0.090128 0.881618
vt 0.088937 0.887521
vt 0.072997 0.859752
vt 0.073683 0.864565
vt 0.067444 0.863992
vt 0.066859 0.857166
vt 0.061254 0.853249
vt 0.059786 0.859599
vt 0.367496 0.879413
vt 0.375094 0.872596
vt 0.378541 0.879516
vt 0.369892 0.885222
vt 0.074631 0.869915
vt 0.069411 0.870651
vt 0.068417 0.851520
vt 0.072098 0.847240
vt 0.073677 0.850669
vt 0.073204 0.854730
vt 0.080444 0.846171
vt 0.081231 0.850202
vt 0.081547 0.855176
vt 0.115693 0.885613
vt 0.121401 0.885305
vt 0.121738 0.888791
vt 0.116959 0.890586
vt 0.127582 0.885911
vt 0.126969 0.888922
vt 0.311744 0.860446
vt 0.307904 0.864668
vt 0.307606 0.858762
vt 0.310117 0.853949
vt 0.131513 0.887648
vt 0.131090 0.890485
vt 0.309317 0.847258
vt 0.313570 0.849450
vt 0.306527 0.851088
vt 0.315162 0.856386
vt 0.081292 0.860326
vt 0.089669 0.860009
vt 0.089628 0.865484
vt 0.081408 0.865078
vt 0.098220 0.859609
vt 0.098445 0.864462
vt 0.081643 0.869590
vt 0.090156 0.870242
vt 0.351595 0.861061
vt 0.344702 0.853900
vt 0.354424 0.850347
vt 0.360501 0.854043
vt 0.339550 0.846863
vt 0.354969 0.844536
vt 0.364552 0.849096
vt 0.099040 0.869175
vt 0.369833 0.839529
vt 0.370348 0.835713
vt 0.377709 0.841715
vt 0.377972 0.846137
vt 0.382713 0.848303
vt 0.380988 0.841266
vt 0.372617 0.833992
vt 0.132104 0.884589
vt 0.128859 0.883769
vt 0.120546 0.880062
vt 0.126155 0.880223
vt 0.055376 0.841493
vt 0.056873 0.832789
vt 0.061994 0.833366
vt 0.062553 0.837128
vt 0.065491 0.824752
vt 0.068898 0.829135
vt 0.069524 0.833805
vt 0.319363 0.851416
vt 0.317097 0.845220
vt 0.312238 0.844535
vt 0.313944 0.847225
vt 0.303999 0.830632
vt 0.308874 0.828766
vt 0.310226 0.830532
vt 0.306916 0.832835
vt 0.314122 0.828788
vt 0.313110 0.831631
vt 0.310379 0.834468
vt 0.315486 0.842006
vt 0.319704 0.838622
vt 0.323470 0.841313
vt 0.326004 0.846332
vt 0.130778 0.879585
vt 0.135104 0.876192
vt 0.136582 0.874337
vt 0.138850 0.876530
vt 0.138672 0.878510
vt 0.141198 0.878651
vt 0.140888 0.875672
vt 0.138756 0.873005
vt 0.130518 0.876244
vt 0.124601 0.872332
vt 0.119232 0.872529
vt 0.131453 0.873282
vt 0.127535 0.867576
vt 0.324697 0.832020
vt 0.335033 0.832244
vt 0.332576 0.836448
vt 0.323225 0.834827
vt 0.336274 0.842345
vt 0.113779 0.848155
vt 0.117468 0.848378
vt 0.117032 0.851600
vt 0.113698 0.852138
vt 0.114485 0.855964
vt 0.117645 0.854249
vt 0.120125 0.850289
vt 0.353666 0.832799
vt 0.353345 0.827099
vt 0.360637 0.826454
vt 0.336247 0.824499
vt 0.352497 0.819531
vt 0.348463 0.821654
vt 0.324233 0.829757
vt 0.125259 0.854449
vt 0.128629 0.848545
vt 0.133743 0.856369
vt 0.129541 0.863424
vt 0.115814 0.830426
vt 0.120572 0.833750
vt 0.117922 0.833681
vt 0.114038 0.834463
vt 0.113898 0.839278
vt 0.117686 0.839426
vt 0.121213 0.839870
vt 0.357461 0.817337
vt 0.354743 0.812591
vt 0.358798 0.811891
vt 0.362605 0.814796
vt 0.365771 0.812146
vt 0.359883 0.809294
vt 0.354847 0.809030
vt 0.344174 0.812281
vt 0.344265 0.817123
vt 0.339022 0.813067
vt 0.124153 0.842930
vt 0.124199 0.834589
vt 0.127379 0.838957
vt 0.351505 0.806723
vt 0.350109 0.810262
vt 0.346573 0.808635
vt 0.350185 0.813931
vt 0.355968 0.805772
vt 0.353805 0.803948
vt 0.356399 0.802397
vt 0.105198 0.829965
vt 0.105807 0.825869
vt 0.111532 0.825959
vt 0.111616 0.829906
vt 0.361557 0.806417
vt 0.097927 0.830451
vt 0.098123 0.825513
vt 0.368282 0.808708
vt 0.088730 0.831180
vt 0.088629 0.825953
vt 0.373971 0.816979
vt 0.375784 0.812338
vt 0.370098 0.821293
vt 0.077841 0.826622
vt 0.076881 0.820597
vt 0.086513 0.821066
vt 0.378982 0.829148
vt 0.383026 0.826097
vt 0.393341 0.835758
vt 0.387311 0.837833
vt 0.383006 0.840259
vt 0.375268 0.832410
vt 0.364394 0.824265
vt 0.390186 0.844658
vt 0.386554 0.848494
vt 0.392323 0.854947
vt 0.386708 0.854393
vt 0.382021 0.852709
vt 0.376434 0.848621
vt 0.384933 0.859110
vt 0.379440 0.855957
vt 0.373847 0.851860
vt 0.368198 0.842306
vt 0.366705 0.845685
vt 0.375647 0.860800
vt 0.370382 0.855607
vt 0.371061 0.866340
vt 0.365830 0.860161
vt 0.364195 0.873537
vt 0.358874 0.867801
vt 0.358652 0.885375
vt 0.360498 0.890515
vt 0.347539 0.892690
vt 0.346126 0.887792
vt 0.333146 0.886816
vt 0.332494 0.882033
vt 0.325385 0.870724
vt 0.322798 0.874697
vt 0.321047 0.878850
vt 0.314718 0.866829
vt 0.313149 0.871595
vt 0.099845 0.887280
vt 0.099936 0.892287
vt 0.087601 0.891972
vt 0.108579 0.886253
vt 0.109544 0.891647
vt 0.099474 0.881304
vt 0.107890 0.880528
vt 0.114759 0.880065
vt 0.107327 0.873722
vt 0.113810 0.872712
vt 0.106371 0.867912
vt 0.112447 0.866287
vt 0.117034 0.864450
vt 0.119912 0.863481
vt 0.110761 0.861753
vt 0.115662 0.859909
vt 0.119040 0.858019
vt 0.121141 0.854019
vt 0.122868 0.859953
vt 0.123449 0.848403
vt 0.120290 0.844979
vt 0.116876 0.843889
vt 0.113376 0.843810
vt 0.109144 0.849268
vt 0.109134 0.844535
vt 0.109214 0.839438
vt 0.109947 0.834494
vt 0.103837 0.845211
vt 0.103914 0.840403
vt 0.103768 0.834894
vt 0.097653 0.841258
vt 0.097377 0.836010
vt 0.088907 0.841909
vt 0.088618 0.836827
vt 0.079892 0.841779
vt 0.078966 0.837152
vt 0.078780 0.831755
vt 0.070321 0.838162
vt 0.071318 0.842935
vt 0.064698 0.847559
vt 0.062665 0.842216
vt 0.057604 0.847227
vt 0.397380 0.854895
vt 0.396201 0.864104
vt 0.390609 0.862143
vt 0.385978 0.870183
vt 0.392881 0.869601
vt 0.381189 0.865809
vt 0.089411 0.846587
vt 0.097600 0.850599
vt 0.089814 0.850614
vt 0.097764 0.845934
vt 0.097847 0.854702
vt 0.089905 0.855178
vt 0.104903 0.858200
vt 0.104202 0.853458
vt 0.103826 0.849995
vt 0.109498 0.852833
vt 0.109897 0.857129
vt 0.105499 0.863410
vt 0.099304 0.874814
vt 0.318502 0.862689
vt 0.322761 0.858028
vt 0.329173 0.866235
vt 0.328526 0.852625
vt 0.334908 0.860261
vt 0.075834 0.887502
vt 0.071078 0.878274
vt 0.352761 0.836768
vt 0.353912 0.840181
vt 0.395158 0.845638
vt 0.120923 0.829098
vt 0.133686 0.870773
vt 0.136236 0.868195
vt 0.318280 0.830510
vt 0.318574 0.827953
vt 0.314510 0.826407
vt 0.316984 0.833671
vt 0.314670 0.836772
vt 0.134457 0.878447
vt 0.137794 0.882745
vt 0.134428 0.881461
vt 0.138156 0.880340
vt 0.137975 0.885757
vt 0.135076 0.884977
vt 0.137793 0.888592
vt 0.134683 0.888255
vt 0.137855 0.891376
vt 0.134467 0.891155
vt 0.303438 0.849283
vt 0.299117 0.848301
vt 0.297588 0.848743
vt 0.140503 0.886147
vt 0.140634 0.889062
vt 0.294923 0.839141
vt 0.298402 0.837677
vt 0.140597 0.883560
vt 0.300471 0.834174
vt 0.298265 0.833511
vt 0.302256 0.827782
vt 0.140834 0.881107
vt 0.308583 0.826598
vn 0.4516 0.2889 0.8442
vn -0.1011 0.1571 0.9824
vn -0.3396 -0.3891 0.8563
vn 0.4792 -0.7014 0.5277
vn -0.2122 -0.9480 0.2374
vn -0.7744 -0.3896 0.4986
vn -0.6859 0.5229 0.5061
vn -0.0890 0.8155 0.5718
vn 0.5206 -0.7376 0.4300
vn -0.0452 -0.9849 0.1669
vn -0.7742 -0.4794 0.4134
vn -0.5833 -0.6200 0.5248
vn -0.1803 -0.9773 0.1117
vn 0.0654 -0.9925 -0.1030
vn 0.1660 -0.9861 0.0107
vn 0.4943 -0.7981 0.3445
vn 0.6653 -0.5431 0.5123
vn 0.3253 -0.9143 0.2414
vn 0.5063 -0.8565 0.1002
vn 0.8612 -0.4915 0.1295
vn 0.8237 -0.4772 -0.3063
vn 0.4060 -0.9070 -0.1121
vn 0.0665 -0.9976 0.0191
vn 0.3083 0.9512 -0.0128
vn 0.0958 0.9915 0.0880
vn 0.1044 0.9858 0.1317
vn 0.3230 0.9347 0.1484
vn 0.1071 0.9886 0.1060
vn 0.1156 0.9831 0.1420
vn 0.2989 0.9113 0.2831
vn 0.8132 0.1105 0.5715
vn 0.6778 0.5961 0.4304
vn 0.9551 0.2197 -0.1987
vn 0.9922 0.1214 -0.0298
vn 0.8442 0.1046 -0.5258
vn 0.8467 -0.0798 -0.5260
vn 0.8426 -0.0513 -0.5361
vn 0.8358 -0.1386 -0.5312
vn 0.7714 0.5428 -0.3321
vn 0.3231 0.9456 0.0389
vn 0.8702 0.4418 -0.2180
vn 0.3627 0.9073 -0.2127
vn 0.6702 0.7101 0.2158
vn 0.8800 0.2224 0.4197
vn -0.0328 0.9991 -0.0264
vn 0.3797 0.8007 0.4633
vn 0.6634 0.1651 0.7298
vn -0.0284 0.8142 0.5799
vn -0.4516 0.4621 0.7632
vn -0.1272 0.2202 0.9671
vn 0.2375 0.3830 0.8927
vn -0.5469 0.6202 0.5623
vn 0.1883 -0.2433 0.9515
vn 0.3299 -0.3617 0.8720
vn 0.2692 0.9276 0.2590
vn 0.8565 -0.0443 0.5142
vn 0.6183 -0.7859 0.0073
vn 0.3567 -0.9142 0.1924
vn 0.0763 -0.8026 0.5916
vn 0.6877 0.0649 0.7231
vn 0.7234 0.0870 0.6849
vn 0.6066 0.6036 0.5173
vn 0.5478 0.6090 0.5736
vn 0.7479 0.1115 0.6544
vn 0.6703 0.4710 0.5735
vn 0.1541 0.9770 0.1472
vn 0.2254 0.9616 0.1566
vn 0.0096 -0.9996 -0.0252
vn -0.0324 -0.9994 -0.0072
vn -0.0295 -0.9996 -0.0024
vn 0.0066 -0.9997 -0.0250
vn -0.0927 -0.9956 0.0138
vn -0.0602 -0.9982 -0.0015
vn -0.0088 -0.9995 -0.0291
vn 0.3174 0.9099 0.2671
vn -0.7120 -0.3996 -0.5774
vn -0.7823 0.1323 -0.6087
vn -0.5719 0.4375 -0.6939
vn -0.4189 -0.2167 -0.8818
vn -0.2306 -0.0725 -0.9703
vn -0.6134 0.1856 -0.7676
vn -0.7081 0.1598 -0.6878
vn 0.1980 0.9758 0.0930
vn -0.3085 0.8743 0.3747
vn -0.5027 0.5452 0.6708
vn -0.3358 0.5860 0.7375
vn 0.5696 0.1048 -0.8152
vn -0.0713 0.0927 -0.9931
vn -0.0183 0.5150 -0.8570
vn 0.3723 0.6418 -0.6704
vn -0.6180 0.0601 -0.7839
vn -0.4472 0.5624 -0.6955
vn -0.0531 0.9289 -0.3666
vn -0.1732 -0.9307 0.3221
vn 0.2334 -0.9677 -0.0957
vn 0.4499 -0.8558 -0.2552
vn 0.6560 -0.6357 -0.4069
vn -0.7478 0.0360 0.6630
vn -0.9445 0.0273 0.3275
vn -0.8246 -0.5186 0.2258
vn -0.6609 -0.6066 0.4419
vn -0.9670 -0.1477 -0.2075
vn -0.6099 -0.7896 -0.0681
vn -0.2797 -0.9585 0.0559
vn 0.3585 -0.8870 -0.2912
vn 0.2188 -0.9297 -0.2964
vn -0.0671 -0.9961 -0.0573
vn -0.3258 -0.9349 0.1410
vn 0.2023 0.9192 0.3380
vn -0.1487 0.9874 -0.0539
vn -0.3326 0.9201 -0.2066
vn -0.2376 0.9541 -0.1823
vn -0.1418 0.9893 -0.0348
vn -0.6507 0.7162 0.2522
vn -0.7301 0.6454 -0.2247
vn -0.7337 0.5388 -0.4139
vn -0.1154 0.9452 0.3055
vn -0.5300 0.5673 0.6303
vn -0.3539 0.6993 0.6210
vn -0.4059 0.8908 0.2042
vn -0.6673 0.4494 0.5939
vn -0.6944 -0.5696 -0.4398
vn -0.7658 -0.6381 -0.0792
vn -0.5016 -0.8638 -0.0471
vn -0.1595 -0.9239 -0.3477
vn -0.3212 -0.9437 0.0789
vn -0.0202 0.9890 0.1466
vn -0.5918 0.6484 0.4790
vn -0.2273 0.4684 0.8538
vn 0.4026 0.6399 0.6545
vn 0.5588 0.0358 0.8285
vn -0.1845 -0.0512 0.9815
vn -0.8006 -0.0259 0.5987
vn -0.8306 -0.5249 -0.1860
vn -0.8751 -0.4457 -0.1887
vn -0.7715 -0.1977 -0.6048
vn -0.9039 -0.3765 0.2029
vn -0.8292 -0.4150 -0.3744
vn -0.7775 -0.6288 0.0084
vn -0.9586 0.1933 -0.2093
vn -0.8213 -0.1112 0.5595
vn -0.8310 -0.1599 0.5328
vn -0.8609 0.2081 0.4643
vn -0.7406 0.4969 -0.4523
vn -0.9545 0.0967 0.2822
vn -0.7324 0.6802 -0.0294
vn -0.2072 0.9578 -0.1993
vn -0.0848 0.9951 -0.0503
vn -0.5633 0.7567 0.3319
vn -0.8176 0.0422 0.5743
vn -0.7524 -0.1608 -0.6388
vn -0.7944 -0.1140 -0.5966
vn -0.7265 -0.0316 -0.6864
vn -0.7118 -0.0495 -0.7006
vn -0.7053 0.0500 -0.7071
vn -0.7208 0.0646 -0.6901
vn -0.8149 0.0178 -0.5794
vn -0.9025 -0.1546 0.4021
vn -0.8567 -0.4298 0.2853
vn -0.8258 -0.0654 0.5602
vn -0.9319 -0.0545 0.3587
vn -0.9711 0.0537 -0.2326
vn -0.9917 -0.0917 -0.0901
vn -0.9327 -0.3003 -0.1995
vn -0.7313 0.2518 -0.6339
vn -0.4390 0.7781 -0.4494
vn -0.3868 0.8456 -0.3680
vn -0.6602 0.3898 -0.6421
vn -0.3338 0.8840 -0.3273
vn -0.6357 0.4338 -0.6385
vn -0.3248 0.9041 -0.2777
vn -0.6502 0.4604 -0.6043
vn -0.7297 0.0417 -0.6825
vn -0.7230 -0.0863 -0.6854
vn -0.6372 0.4940 -0.5916
vn -0.7323 0.0463 -0.6795
vn -0.7210 -0.1302 -0.6806
vn -0.6286 -0.1573 -0.7616
vn -0.6398 -0.2388 -0.7305
vn -0.6896 -0.2370 -0.6843
vn -0.7094 -0.1867 -0.6797
vn -0.1849 -0.1584 -0.9699
vn -0.2549 -0.1794 -0.9502
vn 0.5109 -0.1166 -0.8517
vn 0.4728 -0.1617 -0.8662
vn 0.3778 -0.4072 -0.8315
vn -0.0186 -0.7940 -0.6077
vn 0.7564 -0.1689 -0.6320
vn 0.6468 -0.5298 -0.5485
vn 0.2168 -0.9351 -0.2803
vn -0.3390 -0.8965 -0.2853
vn -0.0846 -0.9928 -0.0850
vn 0.7122 -0.5302 -0.4600
vn 0.2992 -0.9307 -0.2104
vn 0.7059 -0.5042 -0.4975
vn 0.2971 -0.9284 -0.2229
vn 0.7122 -0.4780 -0.5141
vn 0.3164 -0.9165 -0.2448
vn 0.9295 -0.0424 -0.3664
vn 0.7954 0.5442 -0.2667
vn 0.8451 0.5199 0.1246
vn 0.9920 -0.0591 0.1118
vn 0.6825 0.4934 0.5392
vn 0.7928 -0.0931 0.6024
vn 0.5296 -0.6280 0.5702
vn 0.6755 -0.1633 0.7191
vn 0.5990 0.4804 0.6407
vn 0.5767 -0.2451 0.7793
vn 0.5186 0.4486 0.7279
vn 0.2730 0.9167 0.2916
vn 0.2287 0.9072 0.3531
vn 0.1349 0.9818 0.1333
vn 0.1265 0.9774 0.1694
vn -0.0767 0.9160 0.3938
vn 0.1152 0.9838 0.1375
vn 0.0263 0.9616 0.2732
vn 0.3444 0.8325 0.4339
vn 0.3806 0.7420 0.5519
vn 0.2049 0.4776 0.8543
vn -0.4009 0.2039 0.8931
vn 0.6366 0.1543 0.7556
vn 0.5017 0.0530 0.8634
vn -0.2138 -0.0740 0.9741
vn -0.7428 -0.0889 0.6636
vn -0.7091 -0.0324 0.7044
vn -0.8020 -0.0593 0.5943
vn -0.8139 0.0607 0.5778
vn -0.5567 0.7453 0.3669
vn -0.0906 0.9958 0.0161
vn 0.1034 0.9830 0.1515
vn -0.0663 0.9975 -0.0241
vn -0.0889 0.9947 -0.0515
vn -0.1468 0.9808 -0.1283
vn -0.0354 0.9988 -0.0327
vn -0.0736 0.9957 -0.0558
vn -0.1342 0.9848 -0.1106
vn -0.0567 0.9970 -0.0521
vn -0.1126 0.9887 -0.0986
vn -0.0677 0.9972 -0.0320
vn -0.1091 0.9915 -0.0704
vn -0.0412 0.9974 -0.0592
vn -0.0693 0.9944 -0.0799
vn -0.2803 0.9235 -0.2620
vn 0.1395 0.9624 -0.2332
vn 0.2053 0.9505 -0.2333
vn 0.6714 0.5641 -0.4807
vn 0.5540 0.6328 -0.5410
vn 0.7470 0.1195 -0.6540
vn 0.7588 -0.0881 -0.6453
vn 0.8225 -0.1908 -0.5358
vn -0.0237 0.9993 0.0292
vn 0.3698 0.8888 0.2706
vn 0.3577 0.8389 0.4102
vn 0.0054 0.9999 -0.0161
vn 0.7171 0.3599 0.5968
vn 0.6788 0.2573 0.6878
vn 0.7001 0.0873 0.7087
vn 0.6384 0.4921 0.5919
vn 0.2413 0.9501 0.1975
vn 0.5389 0.5877 0.6035
vn 0.6730 0.0653 0.7367
vn 0.6276 0.3033 0.7170
vn 0.1350 0.9835 0.1206
vn 0.3824 -0.7172 0.5826
vn 0.0796 -0.9613 0.2638
vn 0.2282 -0.9389 0.2577
vn -0.0832 -0.9942 0.0686
vn 0.0081 -0.9995 0.0316
vn -0.4955 -0.8681 -0.0287
vn -0.1841 -0.9828 -0.0116
vn -0.6079 0.7876 0.1010
vn -0.7834 -0.3943 -0.4805
vn -0.3058 -0.8999 -0.3111
vn -0.0363 -0.9819 -0.1861
vn 0.0232 0.9981 0.0567
vn 0.1097 0.9604 0.2561
vn 0.1735 0.9750 0.1391
vn -0.0105 0.9951 0.0981
vn 0.0853 0.9443 0.3179
vn 0.1712 0.9736 0.1507
vn 0.2943 0.8268 0.4793
vn 0.3975 0.8268 0.3981
vn 0.7031 0.0706 0.7076
vn 0.7510 -0.0247 0.6599
vn -0.2522 0.7554 0.6048
vn -0.6672 0.2542 0.7001
vn -0.2387 0.7153 0.6568
vn -0.6184 0.0901 0.7807
vn -0.4264 0.7488 0.5074
f 1/1/1 2/2/2 3/3/3 4/4/4
f 5/5/5 4/4/4 3/3/3 6/6/6
f 7/7/7 6/6/6 3/3/3 2/2/2
f 8/8/8 7/7/7 2/2/2 1/1/1
f 9/9/9 4/4/4 5/5/5 10/10/10
f 11/11/11 10/10/10 5/5/5 6/6/6
f 12/12/12 13/13/13 10/10/10 11/11/11
f 14/14/14 15/15/15 10/10/10 13/13/13
f 16/16/16 9/9/9 10/10/10 15/15/15
f 17/17/17 18/18/18 19/19/19 20/20/20
f 21/21/21 20/20/20 19/19/19 22/22/22
f 23/23/23 22/22/22 19/19/19 18/18/18
f 24/24/24 25/25/25 26/26/26 27/27/27
f 28/28/28 29/29/29 26/26/26 25/25/25
f 30/30/30 27/27/27 26/26/26 29/29/29
f 31/31/31 32/32/32 33/33/33 34/34/34
f 35/35/35 34/34/34 33/33/33 36/36/36
f 37/37/37 38/38/38 33/39/33 39/40/39
f 40/41/40 39/42/39 33/33/33 32/32/32
f 41/43/41 42/44/42 43/45/43 44/46/44
f 45/47/45 46/48/46 43/45/43 42/44/42
f 47/49/47 44/46/44 43/45/43 46/48/46
f 48/50/48 49/51/49 50/52/50 51/53/51
f 52/54/52 53/55/53 50/52/50 49/51/49
f 54/56/54 51/57/51 50/58/50 53/59/53
f 55/60/55 56/61/56 53/55/53 52/54/52
f 57/62/57 58/63/58 53/59/53 56/64/56
f 59/65/59 54/56/54 53/59/53 58/63/58
f 60/66/60 61/67/61 62/68/62 63/69/63
f 64/70/64 65/71/65 62/68/62 61/67/61
f 66/72/66 63/69/63 62/68/62 67/73/67
f 68/74/68 69/75/69 70/76/70 71/77/71
f 72/78/72 73/79/73 70/76/70 69/75/69
f 74/80/74 71/77/71 70/76/70 73/79/73
f 75/81/75 67/73/67 62/68/62 65/71/65
f 76/82/76 77/83/77 78/84/78 79/85/79
f 80/86/80 79/85/79 78/84/78 81/87/81
f 82/88/82 81/87/81 78/84/78 77/83/77
f 83/89/83 55/60/55 52/54/52 84/90/84
f 85/91/85 86/92/86 52/54/52 49/51/49
f 87/93/87 88/94/88 89/95/89 90/96/90
f 91/97/91 92/98/92 89/95/89 88/94/88
f 93/99/93 90/96/90 89/95/89 92/98/92
f 94/100/94 59/65/59 58/63/58 95/101/95
f 96/102/96 97/103/97 58/63/58 57/62/57
f 98/104/98 99/105/99 100/106/100 101/107/101
f 102/108/102 103/109/103 100/106/100 99/105/99
f 104/110/104 101/107/101 100/106/100 103/109/103
f 96/102/96 105/111/105 95/101/95 97/103/97
f 106/112/106 107/113/107 95/101/95 105/111/105
f 108/114/108 94/100/94 95/101/95 107/113/107
f 109/115/109 83/89/83 84/90/84 86/92/86
f 110/116/110 111/117/111 112/118/112 113/119/113
f 114/120/114 113/119/113 112/118/112 115/121/115
f 116/122/116 115/121/115 112/118/112 111/117/111
f 117/123/117 109/115/109 86/92/86 118/124/118
f 119/125/119 118/124/118 86/92/86 85/91/85
f 120/126/120 117/123/117 118/124/118 121/127/121
f 122/128/122 123/129/123 124/130/124 125/131/125
f 106/112/106 125/131/125 124/130/124 107/113/107
f 108/114/108 107/113/107 124/130/124 126/132/126
f 127/133/127 128/134/128 129/135/129 130/136/130
f 131/137/131 130/136/130 129/135/129 132/138/132
f 133/139/133 132/138/132 129/135/129 128/134/128
f 76/82/76 134/140/134 135/141/135 77/83/77
f 82/88/82 77/83/77 135/141/135 136/142/136
f 123/129/123 137/143/137 135/141/135 134/140/134
f 138/144/138 136/142/136 135/141/135 139/145/139
f 122/128/122 140/146/140 137/143/137 123/129/123
f 141/147/141 142/148/142 137/149/137 143/150/143
f 144/151/144 145/152/145 146/153/146 147/154/147
f 148/155/148 147/154/147 146/153/146 149/156/149
f 150/157/150 149/156/149 146/153/146 145/152/145
f 151/158/151 152/159/152 153/160/153 154/161/154
f 155/162/155 154/161/154 153/160/153 156/163/156
f 157/164/157 156/163/156 153/160/153 152/159/152
f 158/165/158 159/166/159 137/143/137 142/167/142
f 160/168/160 161/169/161 158/170/158 142/148/142
f 162/171/162 163/172/163 158/165/158 161/173/161
f 164/174/164 159/166/159 158/165/158 163/172/163
f 157/164/157 152/159/152 164/174/164 163/172/163
f 151/158/151 138/144/138 164/174/164 152/159/152
f 139/145/139 159/166/159 164/174/164 138/144/138
f 165/175/165 157/164/157 163/172/163 162/171/162
f 144/176/144 166/177/166 165/175/165 162/171/162
f 167/178/167 168/179/168 165/180/165 166/181/166
f 156/163/156 157/164/157 165/175/165 168/182/168
f 169/183/169 170/184/170 168/179/168 167/178/167
f 155/162/155 156/163/156 168/182/168 170/185/170
f 171/186/171 172/187/172 170/184/170 169/183/169
f 173/188/173 155/162/155 170/185/170 172/189/172
f 154/161/154 155/162/155 173/188/173 174/190/174
f 175/191/175 176/192/176 173/193/173 172/187/172
f 177/194/177 174/190/174 173/188/173 176/195/176
f 91/196/91 178/197/178 177/194/177 176/195/176
f 179/198/179 180/199/180 177/194/177 178/197/178
f 181/200/181 174/190/174 177/194/177 180/199/180
f 138/144/138 151/158/151 181/200/181 136/142/136
f 154/161/154 174/190/174 181/200/181 151/158/151
f 82/88/82 136/142/136 181/200/181 180/199/180
f 81/87/81 82/88/82 180/199/180 179/198/179
f 182/201/182 183/202/183 179/198/179 178/197/178
f 80/86/80 81/87/81 179/198/179 183/202/183
f 184/203/184 185/204/185 183/202/183 182/201/182
f 186/205/186 80/86/80 183/202/183 185/204/185
f 79/85/79 80/86/80 186/205/186 187/206/187
f 188/207/188 189/208/189 186/205/186 185/204/185
f 190/209/190 187/206/187 186/205/186 189/208/189
f 191/210/191 187/206/187 190/209/190 192/211/192
f 193/212/193 194/213/194 190/209/190 189/208/189
f 74/80/74 192/211/192 190/209/190 194/213/194
f 195/214/195 196/215/196 194/213/194 193/212/193
f 71/77/71 74/80/74 194/213/194 196/215/196
f 197/216/197 198/217/198 196/215/196 195/214/195
f 68/74/68 71/77/71 196/215/196 198/217/198
f 21/21/21 22/22/22 198/217/198 197/216/197
f 23/23/23 68/74/68 198/217/198 22/22/22
f 38/38/38 37/37/37 197/216/197 195/214/195
f 199/218/199 21/21/21 197/216/197 37/37/37
f 39/40/39 200/219/200 199/218/199 37/37/37
f 201/220/201 202/221/202 199/218/199 200/219/200
f 20/20/20 21/21/21 199/218/199 202/221/202
f 203/222/203 204/223/204 202/221/202 201/220/201
f 17/17/17 20/20/20 202/221/202 204/223/204
f 205/224/205 17/17/17 204/223/204 206/225/206
f 207/226/207 206/225/206 204/223/204 203/222/203
f 208/227/208 206/225/206 207/226/207 209/228/209
f 30/30/30 210/229/210 207/230/207 203/231/203
f 211/232/211 209/233/209 207/230/207 210/229/210
f 51/53/51 209/233/209 211/232/211 48/50/48
f 212/234/212 213/235/213 211/232/211 210/229/210
f 214/236/214 48/50/48 211/232/211 213/235/213
f 49/51/49 48/50/48 214/236/214 85/91/85
f 215/237/215 216/238/216 214/236/214 213/235/213
f 119/125/119 85/91/85 214/236/214 216/238/216
f 217/239/217 218/240/218 216/238/216 215/237/215
f 219/241/219 119/125/119 216/238/216 218/240/218
f 118/124/118 119/125/119 219/241/219 220/242/220
f 221/243/221 222/244/222 219/241/219 218/240/218
f 223/245/223 220/242/220 219/241/219 222/244/222
f 133/139/133 224/246/224 223/245/223 132/138/132
f 225/247/225 220/242/220 223/245/223 224/246/224
f 131/137/131 132/138/132 223/245/223 222/244/222
f 226/248/226 141/147/141 225/247/225 224/246/224
f 143/150/143 121/127/121 225/247/225 141/147/141
f 118/124/118 220/242/220 225/247/225 121/127/121
f 142/148/142 141/147/141 226/248/226 160/168/160
f 133/139/133 227/249/227 226/248/226 224/246/224
f 150/157/150 160/168/160 226/248/226 227/249/227
f 128/134/128 228/250/228 227/249/227 133/139/133
f 149/156/149 150/157/150 227/249/227 228/250/228
f 127/133/127 229/251/229 228/250/228 128/134/128
f 148/155/148 149/156/149 228/250/228 229/251/229
f 230/252/230 231/253/231 229/251/229 127/133/127
f 232/254/232 148/155/148 229/251/229 231/253/231
f 147/154/147 148/155/148 232/254/232 233/255/233
f 234/256/234 235/257/235 232/254/232 231/253/231
f 236/258/236 233/255/233 232/254/232 235/257/235
f 237/259/237 238/260/238 236/258/236 235/257/235
f 169/183/169 167/178/167 236/258/236 238/260/238
f 166/181/166 233/255/233 236/258/236 167/178/167
f 239/261/239 240/262/240 238/260/238 237/259/237
f 171/186/171 169/183/169 238/260/238 240/262/240
f 241/263/241 242/264/242 240/262/240 239/261/239
f 243/265/243 171/186/171 240/262/240 242/264/242
f 244/266/244 93/99/93 243/265/243 242/264/242
f 92/98/92 175/191/175 243/265/243 93/99/93
f 172/187/172 171/186/171 243/265/243 175/191/175
f 241/263/241 245/267/245 244/266/244 242/264/242
f 246/268/246 247/269/247 244/266/244 245/267/245
f 90/96/90 93/99/93 244/266/244 247/269/247
f 87/93/87 90/96/90 247/269/247 248/270/248
f 35/35/35 248/270/248 247/269/247 246/268/246
f 184/203/184 87/271/87 248/272/248 249/273/249
f 36/274/36 249/273/249 248/272/248 35/275/35
f 185/204/185 184/203/184 249/273/249 188/207/188
f 250/276/250 188/207/188 249/273/249 36/274/36
f 189/208/189 188/207/188 250/276/250 193/212/193
f 33/39/33 38/38/38 250/276/250 36/274/36
f 195/214/195 193/212/193 250/276/250 38/38/38
f 42/44/42 41/43/41 246/268/246 245/267/245
f 34/34/34 35/35/35 246/268/246 41/43/41
f 45/47/45 42/44/42 245/267/245 241/263/241
f 251/277/251 45/47/45 241/263/241 239/261/239
f 252/278/252 253/279/253 251/277/251 254/280/254
f 46/48/46 45/47/45 251/277/251 253/279/253
f 237/259/237 254/280/254 251/277/251 239/261/239
f 255/281/255 256/282/256 253/279/253 252/278/252
f 47/49/47 46/48/46 253/279/253 256/282/256
f 64/70/64 61/67/61 256/282/256 255/281/255
f 60/66/60 47/49/47 256/282/256 61/67/61
f 257/283/257 64/70/64 255/281/255 258/284/258
f 259/285/259 258/284/258 255/281/255 252/278/252
f 260/286/260 258/284/258 259/285/259 230/252/230
f 254/280/254 234/256/234 259/285/259 252/278/252
f 231/253/231 230/252/230 259/285/259 234/256/234
f 131/137/131 261/287/261 260/286/260 130/136/130
f 257/283/257 258/284/258 260/286/260 261/287/261
f 127/133/127 130/136/130 260/286/260 230/252/230
f 222/244/222 221/243/221 261/287/261 131/137/131
f 262/288/262 257/283/257 261/287/261 221/243/221
f 218/240/218 217/239/217 262/288/262 221/243/221
f 75/81/75 65/71/65 262/288/262 217/239/217
f 64/70/64 257/283/257 262/288/262 65/71/65
f 235/257/235 234/256/234 254/280/254 237/259/237
f 144/151/144 147/154/147 233/255/233 166/181/166
f 263/289/263 75/81/75 217/239/217 215/237/215
f 213/235/213 212/234/212 263/289/263 215/237/215
f 29/29/29 28/28/28 263/289/263 212/234/212
f 67/73/67 75/81/75 263/289/263 28/28/28
f 30/30/30 29/29/29 212/234/212 210/229/210
f 59/65/59 264/290/264 208/227/208 54/56/54
f 205/224/205 206/225/206 208/227/208 264/290/264
f 51/57/51 54/56/54 208/227/208 209/228/209
f 94/100/94 265/291/265 264/290/264 59/65/59
f 266/292/266 205/224/205 264/290/264 265/291/265
f 267/293/267 268/294/268 266/292/266 265/291/265
f 23/23/23 18/18/18 266/292/266 268/294/268
f 17/17/17 205/224/205 266/292/266 18/18/18
f 72/78/72 69/75/69 268/294/268 267/293/267
f 68/74/68 23/23/23 268/294/268 69/75/69
f 126/132/126 72/78/72 267/293/267 108/114/108
f 94/100/94 108/114/108 267/293/267 265/291/265
f 27/27/27 30/30/30 203/231/203 201/295/201
f 24/24/24 27/27/27 201/295/201 200/296/200
f 40/41/40 24/24/24 200/296/200 39/42/39
f 134/140/134 76/82/76 191/210/191 269/297/269
f 79/85/79 187/206/187 191/210/191 76/82/76
f 270/298/270 269/297/269 191/210/191 192/211/192
f 124/130/124 269/297/269 270/298/270 126/132/126
f 74/80/74 73/79/73 270/298/270 192/211/192
f 72/78/72 126/132/126 270/298/270 73/79/73
f 123/129/123 134/140/134 269/297/269 124/130/124
f 88/299/88 87/271/87 184/203/184 182/201/182
f 91/196/91 88/299/88 182/201/182 178/197/178
f 92/98/92 91/97/91 176/192/176 175/191/175
f 145/152/145 144/151/144 162/300/162 161/169/161
f 150/157/150 145/152/145 161/169/161 160/168/160
f 120/126/120 121/127/121 143/150/143 271/301/271
f 140/302/140 271/301/271 143/150/143 137/149/137
f 110/116/110 120/126/120 271/301/271 111/117/111
f 116/122/116 111/117/111 271/301/271 140/302/140
f 272/303/272 116/304/116 140/146/140 122/128/122
f 115/305/115 116/304/116 272/303/272 102/108/102
f 125/131/125 273/306/273 272/303/272 122/128/122
f 103/109/103 102/108/102 272/303/272 273/306/273
f 106/112/106 274/307/274 273/306/273 125/131/125
f 104/110/104 103/109/103 273/306/273 274/307/274
f 105/111/105 14/14/14 274/307/274 106/112/106
f 13/13/13 104/110/104 274/307/274 14/14/14
f 137/143/137 159/166/159 139/145/139 135/141/135
f 275/308/275 117/123/117 120/126/120 110/116/110
f 276/309/276 277/310/277 275/308/275 278/311/278
f 109/115/109 117/123/117 275/308/275 277/310/277
f 113/119/113 278/311/278 275/308/275 110/116/110
f 279/312/279 280/313/280 277/310/277 276/309/276
f 83/89/83 109/115/109 277/310/277 280/313/280
f 281/314/281 282/315/282 280/313/280 279/312/279
f 55/60/55 83/89/83 280/313/280 282/315/282
f 283/316/283 284/317/284 282/315/282 281/314/281
f 56/61/56 55/60/55 282/315/282 284/317/284
f 9/9/9 16/16/16 284/318/284 283/319/283
f 57/62/57 56/64/56 284/318/284 16/16/16
f 4/4/4 9/9/9 283/319/283 1/1/1
f 8/8/8 1/1/1 283/319/283 281/320/281
f 285/321/285 8/322/8 281/314/281 279/312/279
f 7/7/7 8/8/8 285/323/285 286/324/286
f 276/309/276 287/325/287 285/321/285 279/312/279
f 288/326/288 286/324/286 285/323/285 287/327/287
f 11/11/11 286/324/286 288/326/288 12/12/12
f 289/328/289 98/104/98 288/326/288 287/327/287
f 101/107/101 12/12/12 288/326/288 98/104/98
f 276/309/276 278/311/278 289/329/289 287/325/287
f 113/119/113 114/120/114 289/329/289 278/311/278
f 99/105/99 98/104/98 289/328/289 114/330/114
f 6/6/6 7/7/7 286/324/286 11/11/11
f 102/108/102 99/105/99 114/330/114 115/305/115
f 15/15/15 14/14/14 105/111/105 96/102/96
f 12/12/12 101/107/101 104/110/104 13/13/13
f 16/16/16 15/15/15 96/102/96 57/62/57
f 32/32/32 63/69/63 66/72/66 40/41/40
f 28/28/28 25/25/25 66/72/66 67/73/67
f 24/24/24 40/41/40 66/72/66 25/25/25
f 32/32/32 31/31/31 60/66/60 63/69/63
f 44/46/44 47/49/47 60/66/60 31/31/31
f 31/31/31 34/34/34 41/43/41 44/46/44
f 52/54/52 86/92/86 84/90/84
f 97/103/97 95/101/95 58/63/58
