# split from a merged terrain OBJ by scripts/split-terrain-obj-parts.py
o part-085
v 0.660190 0.940289 -0.025753
v 0.660154 0.940914 -0.025756
v 0.660676 0.940712 -0.025312
v 0.660411 0.940392 -0.025059
v 0.660598 0.940622 -0.024502
v 0.660605 0.940993 -0.024980
v 0.659900 0.941297 -0.025413
v 0.660323 0.941225 -0.024680
v 0.660073 0.940667 -0.024336
v 0.659878 0.940216 -0.024845
v 0.659795 0.940476 -0.026382
v 0.659512 0.939914 -0.026004
v 0.659221 0.939987 -0.026395
v 0.659223 0.940420 -0.026666
v 0.659085 0.939859 -0.025806
v 0.658822 0.940166 -0.026099
v 0.658765 0.940710 -0.026385
v 0.659489 0.941323 -0.024774
v 0.659317 0.940756 -0.024462
v 0.659456 0.941039 -0.026201
v 0.659758 0.939949 -0.025482
v 0.659053 0.940096 -0.025363
v 0.658621 0.940535 -0.025555
v 0.659091 0.940431 -0.024844
v 0.658743 0.941046 -0.025075
v 0.658426 0.941056 -0.025853
v 0.659083 0.941431 -0.025711
vt 0.976526 0.992326
vt 0.976200 0.992316
vt 0.976331 0.991968
vt 0.976613 0.991963
vt 0.009447 0.975515
vt 0.009342 0.975857
vt 0.009168 0.975685
vt 0.009188 0.975448
vt 0.975899 0.992252
vt 0.976064 0.991838
vt 0.975756 0.991820
vt 0.975701 0.991482
vt 0.975922 0.991558
vt 0.009651 0.975916
vt 0.009774 0.975554
vt 0.009171 0.976663
vt 0.009534 0.976580
vt 0.009594 0.976848
vt 0.009356 0.976979
vt 0.009770 0.976606
vt 0.009913 0.976828
vt 0.976015 0.993167
vt 0.976341 0.993088
vt 0.976399 0.993339
vt 0.976168 0.993445
vt 0.975490 0.992192
vt 0.010098 0.975837
vt 0.010100 0.975317
vt 0.010453 0.975695
vt 0.976097 0.992753
vt 0.976449 0.992751
vt 0.009542 0.976272
vt 0.009916 0.976408
vt 0.010220 0.976578
vt 0.010020 0.976111
vt 0.010416 0.976192
vt 0.975617 0.993060
vt 0.975728 0.992669
vt 0.010390 0.976855
vt 0.010101 0.977066
vt 0.975320 0.992663
vt 0.975255 0.993029
vt 0.009223 0.976247
vn 0.7463 -0.5112 -0.4263
vn 0.6813 0.4545 -0.5738
vn 0.9250 0.0465 -0.3772
vn 0.7175 -0.6946 0.0521
vn 0.7445 -0.2686 0.6112
vn 0.8421 0.5341 0.0756
vn 0.2936 0.9293 -0.2241
vn 0.3290 0.8043 0.4949
vn 0.1778 -0.1938 0.9648
vn 0.0998 -0.8760 0.4719
vn 0.6123 -0.0678 -0.7877
vn 0.2352 -0.9280 -0.2889
vn -0.1006 -0.7571 -0.6455
vn -0.0431 -0.0995 -0.9941
vn -0.3842 -0.9197 0.0804
vn -0.7440 -0.6113 -0.2696
vn -0.6080 0.1736 -0.7747
vn -0.1826 0.8227 0.5383
vn -0.3862 -0.0459 0.9213
vn 0.2437 0.6751 -0.6963
vn 0.2653 -0.9566 0.1207
vn -0.4971 -0.7752 0.3897
vn -0.9429 -0.2615 0.2063
vn -0.5497 -0.4910 0.6759
vn -0.7475 0.4114 0.5216
vn -0.8736 0.4236 -0.2394
vn -0.2338 0.9470 -0.2205
f 1/1/1 2/2/2 3/3/3 4/4/4
f 5/5/5 4/6/4 3/7/3 6/8/6
f 7/9/7 6/10/6 3/3/3 2/2/2
f 8/11/8 9/12/9 5/13/5 6/10/6
f 10/14/10 4/6/4 5/5/5 9/15/9
f 11/16/11 12/17/12 13/18/13 14/19/14
f 15/20/15 16/21/16 13/18/13 12/17/12
f 17/22/17 14/23/14 13/24/13 16/25/16
f 7/9/7 18/26/18 8/11/8 6/10/6
f 19/27/19 9/15/9 8/28/8 18/29/18
f 20/30/20 11/31/11 14/23/14 17/22/17
f 21/32/21 22/33/22 15/20/15 12/17/12
f 23/34/23 16/21/16 15/20/15 22/33/22
f 10/14/10 9/15/9 19/27/19 24/35/24
f 25/36/25 24/35/24 19/27/19 18/29/18
f 20/30/20 17/22/17 26/37/26 27/38/27
f 16/21/16 23/34/23 26/39/26 17/40/17
f 25/41/25 27/38/27 26/37/26 23/42/23
f 2/2/2 20/30/20 27/38/27 7/9/7
f 18/26/18 7/9/7 27/38/27 25/41/25
f 22/33/22 24/35/24 25/36/25 23/34/23
f 21/32/21 10/14/10 24/35/24 22/33/22
f 11/16/11 1/43/1 21/32/21 12/17/12
f 4/6/4 10/14/10 21/32/21 1/43/1
f 1/1/1 11/31/11 20/30/20 2/2/2
