# split from a merged terrain OBJ by scripts/split-terrain-obj-parts.py
o part-075
v -0.046924 0.940004 0.005851
v -0.050613 0.939964 0.010131
v -0.047041 0.938364 0.012214
v -0.048169 0.935657 0.008826
v -0.050054 0.931468 0.014811
v -0.049231 0.937028 0.017430
v -0.054155 0.938940 0.015486
v -0.052143 0.932977 0.004653
v -0.052565 0.939132 0.002997
v -0.055702 0.940171 0.006902
v -0.065707 0.926419 -0.000385
v -0.071137 0.924692 0.005746
v -0.074909 0.926386 0.003394
v -0.072688 0.930183 -0.003549
v -0.075838 0.930639 0.009159
v -0.075013 0.934535 0.006382
v -0.071173 0.936809 0.002238
v -0.065519 0.923929 0.010672
v -0.070854 0.929848 0.014806
v -0.070187 0.936602 0.012224
v -0.065680 0.938847 0.007731
v -0.065335 0.929551 0.019852
v -0.064467 0.937173 0.017134
v -0.060084 0.939043 0.012057
v -0.061168 0.939949 0.003338
v -0.058563 0.937549 0.020315
v -0.061576 0.937794 -0.003368
v -0.066537 0.938931 -0.000959
v -0.057545 0.938959 -0.000596
v -0.063147 0.933106 -0.003041
v -0.057563 0.932334 0.000531
v -0.059675 0.925747 0.004765
v -0.053903 0.926691 0.009928
v -0.058857 0.923909 0.015804
v -0.053675 0.929034 0.020821
v -0.060626 0.930778 0.023694
v -0.068880 0.935176 -0.004698
v -0.051613 0.935273 0.021844
vt 0.984409 0.290280
vt 0.981712 0.289436
vt 0.983686 0.287956
vt 0.986157 0.288469
vt 0.986679 0.284943
vt 0.983058 0.285624
vt 0.979930 0.286566
vt 0.988701 0.290316
vt 0.984720 0.292829
vt 0.980711 0.292189
vt 0.011712 0.155759
vt 0.009599 0.150938
vt 0.012072 0.150747
vt 0.014888 0.153233
vt 0.013323 0.147563
vt 0.015722 0.148554
vt 0.018431 0.150613
vt 0.005615 0.149799
vt 0.012329 0.144617
vt 0.017439 0.145177
vt 0.021296 0.148366
vt 0.012829 0.140927
vt 0.018462 0.141529
vt 0.022335 0.144124
vt 0.977347 0.292508
vt 0.973800 0.291054
vt 0.975570 0.288280
vt 0.979571 0.282994
vt 0.977068 0.281221
vt 0.019716 0.156654
vt 0.019765 0.153840
vt 0.023703 0.154554
vt 0.021364 0.157987
vt 0.025012 0.157553
vt 0.025702 0.154599
vt 0.016243 0.157670
vt 0.015565 0.160892
vt 0.991470 0.292057
vt 0.987785 0.295215
vt 0.008280 0.157304
vt 0.990735 0.285170
vt 0.994340 0.286810
vt 0.993756 0.278335
vt 0.991257 0.276614
vt 0.986971 0.281144
vt 0.005651 0.144304
vt 0.983150 0.279608
vt 0.982252 0.277565
vt 0.017125 0.154993
vt 0.983532 0.283358
vn 0.7432 0.5064 -0.4373
vn 0.2676 0.9544 0.1323
vn 0.8757 0.3908 0.2836
vn 0.9425 -0.2517 -0.2198
vn 0.8469 -0.5190 0.1160
vn 0.7796 0.4153 0.4688
vn 0.0602 0.9548 0.2912
vn 0.6770 -0.4410 -0.5893
vn 0.4942 0.5561 -0.6682
vn -0.0218 0.9997 -0.0063
vn 0.1519 -0.7647 -0.6262
vn -0.4159 -0.9083 -0.0446
vn -0.8235 -0.4820 -0.2993
vn -0.5599 -0.1957 -0.8051
vn -0.8702 -0.2117 0.4449
vn -0.8854 0.4527 0.1054
vn -0.6527 0.7366 -0.1770
vn -0.1907 -0.9701 0.1504
vn -0.7004 -0.2461 0.6700
vn -0.5573 0.7148 0.4225
vn -0.2722 0.9563 0.1067
vn -0.5323 -0.2884 0.7959
vn -0.4409 0.7300 0.5222
vn -0.1381 0.9760 0.1685
vn -0.0842 0.9933 -0.0791
vn -0.1300 0.7228 0.6787
vn 0.2734 0.4759 -0.8360
vn -0.2898 0.8504 -0.4391
vn 0.4148 0.5791 -0.7018
vn 0.3284 -0.2089 -0.9211
vn 0.5547 -0.3836 -0.7384
vn 0.3505 -0.8270 -0.4396
vn 0.5966 -0.7736 -0.2136
vn 0.1266 -0.9481 0.2919
vn 0.4860 -0.5347 0.6913
vn -0.2258 -0.1575 0.9614
vn -0.3074 0.2768 -0.9104
vn 0.5670 0.2876 0.7719
f 1/1/1 2/2/2 3/3/3 4/4/4
f 5/5/5 4/4/4 3/3/3 6/6/6
f 7/7/7 6/6/6 3/3/3 2/2/2
f 8/8/8 9/9/9 1/1/1 4/4/4
f 10/10/10 2/2/2 1/1/1 9/9/9
f 11/11/11 12/12/12 13/13/13 14/14/14
f 15/15/15 16/16/16 13/13/13 12/12/12
f 17/17/17 14/14/14 13/13/13 16/16/16
f 18/18/18 19/19/19 15/15/15 12/12/12
f 20/20/20 16/16/16 15/15/15 19/19/19
f 17/17/17 16/16/16 20/20/20 21/21/21
f 22/22/22 23/23/23 20/20/20 19/19/19
f 24/24/24 21/21/21 20/20/20 23/23/23
f 25/25/25 21/26/21 24/27/24 10/10/10
f 26/28/26 7/7/7 24/27/24 23/29/23
f 2/2/2 10/10/10 24/27/24 7/7/7
f 27/30/27 28/31/28 25/32/25 29/33/29
f 17/17/17 21/21/21 25/32/25 28/31/28
f 9/34/9 29/33/29 25/32/25 10/35/10
f 30/36/30 27/30/27 29/33/29 31/37/31
f 8/8/8 31/38/31 29/39/29 9/9/9
f 11/11/11 30/36/30 31/37/31 32/40/32
f 33/41/33 32/42/32 31/38/31 8/8/8
f 18/43/18 32/42/32 33/41/33 34/44/34
f 4/4/4 5/5/5 33/41/33 8/8/8
f 35/45/35 34/44/34 33/41/33 5/5/5
f 19/19/19 18/18/18 34/46/34 22/22/22
f 36/47/36 22/48/22 34/44/34 35/45/35
f 12/12/12 11/11/11 32/40/32 18/18/18
f 36/47/36 26/28/26 23/29/23 22/48/22
f 37/49/37 14/14/14 17/17/17 28/31/28
f 37/49/37 30/36/30 11/11/11 14/14/14
f 6/6/6 7/7/7 26/28/26 38/50/38
f 5/5/5 6/6/6 38/50/38 35/45/35
f 38/50/38 26/28/26 36/47/36 35/45/35
f 37/49/37 28/31/28 27/30/27 30/36/30
