# split from a merged terrain OBJ by scripts/split-terrain-obj-parts.py
o part-073
v 0.468112 0.962228 -0.092567
v 0.468583 0.964046 -0.093300
v 0.469156 0.964208 -0.091825
v 0.468663 0.963231 -0.091223
v 0.468231 0.964591 -0.090367
v 0.467755 0.964840 -0.091304
v 0.466980 0.964875 -0.092738
v 0.466288 0.964837 -0.090382
v 0.467187 0.963782 -0.089677
v 0.467192 0.962512 -0.090559
v 0.467169 0.961897 -0.093997
v 0.466116 0.961994 -0.095063
v 0.466840 0.963197 -0.095730
v 0.467707 0.963643 -0.094684
v 0.465153 0.962078 -0.095920
v 0.465544 0.963657 -0.095445
v 0.466212 0.964596 -0.094123
v 0.464987 0.964034 -0.089691
v 0.466067 0.962998 -0.089156
v 0.465461 0.962417 -0.089864
v 0.464082 0.963158 -0.089193
v 0.464438 0.961671 -0.094098
v 0.463559 0.962029 -0.095045
v 0.463588 0.964036 -0.094789
v 0.464006 0.964505 -0.090867
v 0.463199 0.963327 -0.090244
v 0.464618 0.961974 -0.090880
v 0.461824 0.962370 -0.093937
v 0.462006 0.963949 -0.093418
v 0.462578 0.962210 -0.092984
v 0.461351 0.963571 -0.092482
v 0.463057 0.964555 -0.092186
v 0.462337 0.963418 -0.091356
v 0.463518 0.962079 -0.091941
v 0.465452 0.961653 -0.092927
v 0.466384 0.961916 -0.091757
v 0.465317 0.965030 -0.091789
v 0.464479 0.964880 -0.093300
vt 0.008408 0.044181
vt 0.007577 0.044957
vt 0.007152 0.044367
vt 0.007429 0.043703
vt 0.006314 0.044235
vt 0.006388 0.044737
vt 0.006706 0.045506
vt 0.005407 0.044868
vt 0.005586 0.043981
vt 0.006537 0.043339
vt 0.008891 0.045232
vt 0.009028 0.046189
vt 0.008255 0.046346
vt 0.007966 0.045694
vt 0.008736 0.047050
vt 0.007756 0.047049
vt 0.007178 0.046234
vt 0.686748 0.067902
vt 0.687602 0.068327
vt 0.686980 0.069133
vt 0.686334 0.069263
vt 0.686562 0.070247
vt 0.687314 0.069607
vt 0.687871 0.068927
vt 0.688911 0.071516
vt 0.689640 0.071461
vt 0.689567 0.072423
vt 0.688470 0.072443
vt 0.690773 0.071056
vt 0.690252 0.072316
vt 0.688765 0.068318
vt 0.688553 0.069077
vt 0.687903 0.069962
vt 0.689931 0.070461
vt 0.690573 0.069582
vt 0.689330 0.070383
vt 0.689891 0.069604
vt 0.689789 0.068694
vt 0.689209 0.069354
vt 0.688666 0.070199
vt 0.688103 0.071209
vt 0.687315 0.070805
vt 0.687572 0.072123
vt 0.686745 0.071647
vt 0.685998 0.070958
vt 0.005710 0.045827
vt 0.006275 0.046686
vt 0.005389 0.047018
vt 0.005000 0.046324
vt 0.006770 0.047660
vt 0.005733 0.047965
vt 0.688084 0.067167
vn 0.6541 -0.7543 -0.0558
vn 0.8335 0.3466 -0.4303
vn 0.9220 0.3849 -0.0425
vn 0.8576 -0.3833 0.3430
vn 0.5894 0.4104 0.6958
vn 0.3595 0.9128 0.1937
vn 0.2064 0.9588 -0.1954
vn 0.0011 0.8780 0.4787
vn 0.4096 0.1134 0.9052
vn 0.4354 -0.7488 0.4998
vn 0.5069 -0.8162 -0.2772
vn 0.2935 -0.7821 -0.5498
vn 0.4901 0.0862 -0.8674
vn 0.7036 0.2540 -0.6637
vn -0.1047 -0.4664 -0.8783
vn -0.0093 0.5118 -0.8591
vn 0.1326 0.8945 -0.4269
vn -0.1885 0.5887 0.7861
vn 0.2463 -0.1537 0.9569
vn 0.0430 -0.7462 0.6644
vn -0.4551 -0.1496 0.8778
vn -0.0956 -0.9928 -0.0728
vn -0.4432 -0.5733 -0.6892
vn -0.3793 0.6134 -0.6927
vn -0.3766 0.8389 0.3929
vn -0.7203 -0.0413 0.6925
vn -0.2093 -0.9208 0.3291
vn -0.7874 -0.4264 -0.4453
vn -0.7901 0.5493 -0.2720
vn -0.5339 -0.8330 0.1452
vn -0.9392 0.0671 0.3367
vn -0.4229 0.8951 0.1412
vn -0.8069 0.0112 0.5905
vn -0.3709 -0.8836 0.2858
vn 0.0116 -0.9991 0.0404
vn 0.1817 -0.9605 0.2109
vn -0.0875 0.9917 0.0942
vn -0.1471 0.9636 -0.2230
f 1/1/1 2/2/2 3/3/3 4/4/4
f 5/5/5 4/4/4 3/3/3 6/6/6
f 7/7/7 6/6/6 3/3/3 2/2/2
f 8/8/8 9/9/9 5/5/5 6/6/6
f 10/10/10 4/4/4 5/5/5 9/9/9
f 11/11/11 12/12/12 13/13/13 14/14/14
f 15/15/15 16/16/16 13/13/13 12/12/12
f 17/17/17 14/14/14 13/13/13 16/16/16
f 8/18/8 18/19/18 19/20/19 9/21/9
f 10/22/10 9/21/9 19/20/19 20/23/20
f 21/24/21 20/23/20 19/20/19 18/19/18
f 22/25/22 23/26/23 15/27/15 12/28/12
f 24/29/24 16/30/16 15/27/15 23/26/23
f 25/31/25 26/32/26 21/24/21 18/19/18
f 27/33/27 20/23/20 21/24/21 26/32/26
f 24/29/24 23/26/23 28/34/28 29/35/29
f 22/25/22 30/36/30 28/34/28 23/26/23
f 31/37/31 29/35/29 28/34/28 30/36/30
f 32/38/32 29/35/29 31/37/31 33/39/33
f 34/40/34 33/39/33 31/37/31 30/36/30
f 26/32/26 33/39/33 34/40/34 27/33/27
f 22/25/22 35/41/35 34/40/34 30/36/30
f 36/42/36 27/33/27 34/40/34 35/41/35
f 20/23/20 27/33/27 36/42/36 10/22/10
f 11/43/11 1/44/1 36/42/36 35/41/35
f 4/45/4 10/22/10 36/42/36 1/44/1
f 12/28/12 11/43/11 35/41/35 22/25/22
f 37/46/37 38/47/38 32/48/32 25/49/25
f 24/50/24 29/51/29 32/48/32 38/47/38
f 26/32/26 25/31/25 32/38/32 33/39/33
f 7/7/7 17/17/17 38/47/38 37/46/37
f 16/16/16 24/50/24 38/47/38 17/17/17
f 6/6/6 7/7/7 37/46/37 8/8/8
f 18/19/18 8/18/8 37/52/37 25/31/25
f 2/2/2 14/14/14 17/17/17 7/7/7
f 2/2/2 1/1/1 11/11/11 14/14/14
