# split from a merged terrain OBJ by scripts/split-terrain-obj-parts.py
o part-010
v 0.761703 0.488362 0.050958
v 0.762962 0.492853 0.046106
v 0.766072 0.491741 0.044342
v 0.766463 0.489811 0.047828
v 0.826994 0.489450 -0.111956
v 0.830589 0.488498 -0.114753
v 0.830500 0.488452 -0.114585
v 0.827585 0.488932 -0.111326
v 0.828397 0.488635 -0.110882
v 0.830598 0.488621 -0.114405
v 0.829474 0.491860 -0.111263
v 0.830144 0.491020 -0.110531
v 0.829893 0.490057 -0.110171
v 0.899139 0.487216 0.088904
v 0.898483 0.490107 0.089490
v 0.900717 0.488128 0.097458
v 0.900304 0.487512 0.096602
v 0.895320 0.488571 0.090078
v 0.898260 0.488030 0.096363
v 0.898806 0.486758 0.097662
v 0.895823 0.484898 0.089465
v 0.892031 0.502707 0.045679
v 0.888505 0.507016 0.050684
v 0.894656 0.499754 0.058063
v 0.895941 0.495612 0.049836
v 0.890859 0.487389 0.068639
v 0.886411 0.489954 0.058817
v 0.897371 0.492211 0.068241
v 0.890059 0.488342 0.051505
v 0.893264 0.496995 0.070792
v 0.888656 0.502337 0.062314
v 0.882262 0.508486 0.055255
v 0.887673 0.493023 0.071284
v 0.883289 0.497698 0.063449
v 0.880373 0.491702 0.049217
v 0.877003 0.496373 0.053154
v 0.876714 0.503179 0.056622
v 0.883914 0.489391 0.044175
v 0.885634 0.489090 0.039181
v 0.890898 0.486700 0.041251
v 0.891453 0.487706 0.045977
v 0.894850 0.492283 0.043639
v 0.892619 0.488853 0.038470
v 0.888480 0.492158 0.036881
v 0.891512 0.497524 0.040097
v 0.918597 0.492903 -0.059534
v 0.919963 0.491371 -0.056547
v 0.917013 0.490236 -0.055587
v 0.915467 0.491753 -0.057795
v 0.915285 0.495870 -0.056049
v 0.920855 0.494286 -0.054608
v 0.920001 0.495372 -0.048599
v 0.918090 0.501981 -0.049905
v 0.911453 0.502825 -0.048584
v 0.910807 0.493181 -0.053587
v 0.914805 0.492004 -0.049441
v 0.932183 0.487295 -0.000250
v 0.930996 0.489349 -0.004182
v 0.932456 0.491259 -0.003791
v 0.932104 0.490453 0.000129
v 0.929160 0.496176 -0.003997
v 0.931177 0.495510 -0.008123
v 0.928696 0.493740 -0.011295
v 0.927867 0.490006 -0.003742
v 0.930685 0.487908 0.000942
v 0.929872 0.489907 0.000538
v 0.926463 0.493197 -0.002577
v 0.920418 0.498255 -0.022521
v 0.916060 0.501161 -0.031103
v 0.926313 0.505169 -0.033851
v 0.927126 0.499128 -0.021855
v 0.915107 0.496768 -0.040291
v 0.922480 0.501076 -0.041426
v 0.929042 0.502545 -0.016758
v 0.925872 0.511175 -0.025343
v 0.915154 0.520602 -0.027251
v 0.915386 0.518795 -0.037312
v 0.911992 0.510763 -0.042594
v 0.908763 0.498987 -0.043475
v 0.906931 0.505385 -0.032794
v 0.918284 0.504270 -0.020248
v 0.913096 0.507343 -0.024455
v 0.904338 0.508525 -0.022335
v 0.907036 0.507582 -0.039565
v 0.895771 0.521275 -0.033886
v 0.893494 0.514105 -0.037175
v 0.891421 0.506537 -0.033588
v 0.892370 0.506862 -0.015351
v 0.891317 0.502669 -0.023188
v 0.879924 0.527631 -0.036715
v 0.884603 0.531495 -0.026777
v 0.895293 0.522632 -0.024178
v 0.890777 0.515112 -0.012410
v 0.901360 0.516438 -0.018368
v 0.887526 0.523869 -0.014255
v 0.884837 0.534516 -0.017316
v 0.876535 0.610307 -0.051660
v 0.874647 0.611930 -0.044844
v 0.881060 0.597125 -0.039071
v 0.879308 0.595121 -0.048028
v 0.880743 0.580333 -0.047214
v 0.882221 0.582010 -0.037825
v 0.884066 0.583066 -0.028742
v 0.884455 0.595519 -0.029108
v 0.869279 0.612671 -0.041056
v 0.875048 0.604554 -0.034469
v 0.878596 0.601791 -0.026421
v 0.888801 0.596206 -0.016316
v 0.886852 0.592087 -0.016546
v 0.887582 0.594556 -0.021946
v 0.889622 0.598974 -0.018756
v 0.884349 0.601303 -0.015271
v 0.881613 0.601555 -0.019646
v 0.884656 0.582605 -0.021472
v 0.882969 0.583099 -0.015860
v 0.859712 0.614975 -0.045775
v 0.863493 0.618486 -0.044912
v 0.859890 0.621928 -0.046552
v 0.857530 0.618743 -0.047779
v 0.856521 0.619421 -0.052105
v 0.860619 0.623747 -0.050904
v 0.866777 0.620629 -0.048559
v 0.873442 0.607364 -0.057738
v 0.869866 0.618329 -0.058185
v 0.868977 0.621261 -0.053944
v 0.861864 0.623116 -0.057182
v 0.863794 0.616558 -0.061070
v 0.866536 0.605232 -0.059218
v 0.857960 0.613219 -0.050430
v 0.858161 0.619631 -0.056672
v 0.858938 0.613366 -0.056825
v 0.883714 0.592461 -0.013161
v 0.886283 0.596702 -0.012876
v 0.882839 0.547877 -0.032145
v 0.877727 0.544797 -0.041656
v 0.876421 0.513440 -0.037770
v 0.864378 0.544672 -0.047746
v 0.859276 0.527208 -0.045507
v 0.869260 0.602192 -0.035538
v 0.865413 0.598482 -0.039670
v 0.867270 0.589799 -0.027453
v 0.873319 0.597607 -0.024795
v 0.855898 0.571604 -0.035986
v 0.858964 0.576811 -0.021221
v 0.863008 0.584737 -0.041077
v 0.863503 0.579435 -0.011591
v 0.871849 0.589744 -0.017207
v 0.876751 0.597449 -0.018041
v 0.878538 0.537931 -0.003302
v 0.875272 0.525249 0.003128
v 0.870219 0.543802 0.009962
v 0.869517 0.532894 0.018875
v 0.870018 0.522940 0.026110
v 0.874457 0.516770 0.018990
v 0.877733 0.514019 -0.000383
v 0.875030 0.510018 0.014641
v 0.849976 0.561624 0.027405
v 0.847732 0.547203 0.030131
v 0.861783 0.549891 0.020001
v 0.856427 0.561975 0.016143
v 0.857245 0.533355 0.029062
v 0.842281 0.532988 0.033290
v 0.864070 0.498348 0.046144
v 0.867113 0.492191 0.043534
v 0.854987 0.501420 0.035414
v 0.857411 0.494057 0.029768
v 0.848663 0.503261 -0.060583
v 0.845041 0.511474 -0.062634
v 0.859963 0.512412 -0.040907
v 0.837792 0.516460 -0.062435
v 0.845094 0.535152 -0.047506
v 0.851205 0.552001 -0.044281
v 0.864175 0.494521 0.027250
v 0.873277 0.492786 0.038368
v 0.836967 0.572415 0.009644
v 0.840010 0.575350 0.020136
v 0.850356 0.571064 0.021404
v 0.850716 0.570627 0.010914
v 0.838974 0.563637 0.028579
v 0.873208 0.501920 -0.029690
v 0.856118 0.499268 -0.031280
v 0.846140 0.494774 -0.057999
v 0.872791 0.499952 -0.009102
v 0.857635 0.496615 -0.005566
v 0.846700 0.495926 -0.001576
v 0.839428 0.492603 -0.022699
v 0.837025 0.492560 -0.054172
v 0.876640 0.506013 -0.003166
v 0.872837 0.503267 0.012179
v 0.868088 0.499183 0.011477
v 0.859671 0.497373 0.012272
v 0.861737 0.524222 0.032951
v 0.853880 0.517014 0.031497
v 0.849378 0.520939 0.026521
v 0.842565 0.518922 0.031153
v 0.818233 0.560082 -0.021195
v 0.823473 0.568789 -0.019700
v 0.827044 0.573970 -0.022907
v 0.823991 0.558454 -0.030509
v 0.840094 0.562667 -0.033802
v 0.832315 0.572756 -0.027476
v 0.823013 0.572202 -0.015679
v 0.826385 0.573750 -0.012092
v 0.835069 0.570683 -0.014672
v 0.845585 0.569596 -0.016726
v 0.858734 0.565613 -0.047538
v 0.869335 0.579188 -0.007735
v 0.851409 0.570629 -0.002261
v 0.861043 0.567713 0.002569
v 0.837870 0.570476 -0.001066
v 0.830047 0.562809 0.019109
v 0.834458 0.536970 -0.043383
v 0.822639 0.531718 -0.038286
v 0.803833 0.616521 -0.022590
v 0.806529 0.616208 -0.021631
v 0.806871 0.614037 -0.022604
v 0.804953 0.614400 -0.024053
v 0.807620 0.608075 -0.021761
v 0.809813 0.609691 -0.019674
v 0.810657 0.612268 -0.016483
v 0.806272 0.616707 -0.019324
v 0.808633 0.614144 -0.013667
v 0.804048 0.615545 -0.020499
v 0.805084 0.612439 -0.013988
v 0.803184 0.613469 -0.021897
v 0.805695 0.596669 -0.017223
v 0.802514 0.598324 -0.012911
v 0.802832 0.606351 -0.017817
v 0.804761 0.607650 -0.021621
v 0.802995 0.610347 -0.015915
v 0.803383 0.600618 -0.007320
v 0.815423 0.583624 -0.015179
v 0.809917 0.563417 -0.014732
v 0.806725 0.581450 -0.014202
v 0.835187 0.548635 0.030809
v 0.828668 0.538117 0.034599
v 0.823855 0.529935 0.041703
v 0.835441 0.525544 0.043335
v 0.839314 0.513993 0.039853
v 0.820179 0.585854 -0.011233
v 0.829699 0.493268 0.004962
v 0.820796 0.490482 -0.005943
v 0.828919 0.495303 -0.053964
v 0.824136 0.495763 -0.029967
v 0.810279 0.494836 -0.015886
v 0.829145 0.575574 -0.002178
v 0.827105 0.574444 0.005816
v 0.819648 0.566028 0.009826
v 0.850620 0.507248 0.024921
v 0.850855 0.500470 0.014826
v 0.844739 0.508571 0.022357
v 0.836935 0.497265 0.017106
v 0.783362 0.490228 0.085818
v 0.784718 0.486591 0.086026
v 0.781221 0.486259 0.091663
v 0.779419 0.488402 0.092663
v 0.778269 0.486440 0.096975
v 0.782097 0.485520 0.094435
v 0.787492 0.485406 0.088350
v 0.780922 0.487628 0.099995
v 0.780662 0.489722 0.099787
v 0.778691 0.488966 0.101617
v 0.778689 0.487571 0.101397
v 0.778790 0.490431 0.098511
v 0.777048 0.489305 0.100448
v 0.820670 0.508725 -0.057355
v 0.814824 0.517133 -0.037039
v 0.825199 0.514322 -0.059196
v 0.830875 0.516824 -0.060889
v 0.813166 0.538867 -0.024421
v 0.806318 0.521981 -0.023800
v 0.818801 0.588361 0.002430
v 0.812260 0.585991 0.003240
v 0.805037 0.583885 -0.000564
v 0.809749 0.563397 0.004683
v 0.809452 0.546826 0.008964
v 0.818128 0.547186 0.012609
v 0.826201 0.548226 0.021889
v 0.841864 0.505386 0.028281
v 0.832829 0.495550 0.024234
v 0.817689 0.499623 0.026165
v 0.814623 0.498451 0.023678
v 0.811190 0.491105 0.015240
v 0.814356 0.505098 -0.035017
v 0.801577 0.507383 -0.020656
v 0.799719 0.525649 -0.011989
v 0.795809 0.514535 -0.007312
v 0.791302 0.507398 0.004203
v 0.791952 0.498227 -0.005736
v 0.796842 0.491900 -0.000493
v 0.797898 0.491103 0.026106
v 0.800857 0.497910 0.030767
v 0.811083 0.510748 0.025998
v 0.804697 0.511525 0.024480
v 0.796743 0.506958 0.030024
v 0.785300 0.492552 0.016530
v 0.780169 0.496765 0.016581
v 0.784222 0.505880 0.019047
v 0.797387 0.519808 0.007130
v 0.794207 0.513954 0.014917
v 0.805319 0.521422 0.017651
v 0.789678 0.510857 0.024421
v 0.812568 0.520319 0.021642
v 0.791831 0.490168 0.020409
v 0.783363 0.492011 0.029994
v 0.777800 0.495337 0.024997
v 0.769474 0.498691 0.037533
v 0.776459 0.500100 0.026194
v 0.771447 0.494064 0.037691
v 0.774803 0.491778 0.039989
v 0.758246 0.488842 0.052386
v 0.763258 0.495292 0.047933
v 0.765354 0.496738 0.050729
v 0.759324 0.491781 0.054920
v 0.763022 0.488118 0.054127
v 0.758677 0.486361 0.056789
v 0.752973 0.484259 0.059612
v 0.754418 0.486202 0.056549
v 0.754022 0.487515 0.057888
v 0.755674 0.488491 0.059051
v 0.752114 0.485962 0.060197
v 0.753180 0.484984 0.060624
v 0.758054 0.486957 0.059253
v 0.751783 0.485628 0.059511
v 0.814720 0.531567 0.016426
v 0.814473 0.522738 0.032275
v 0.819743 0.534818 0.025613
v 0.819392 0.523347 0.050598
v 0.811546 0.517349 0.043891
v 0.812253 0.510337 0.031449
v 0.810160 0.507783 0.040042
v 0.817953 0.498844 0.031552
v 0.814825 0.497289 0.039716
v 0.808236 0.495149 0.050362
v 0.804565 0.503524 0.050625
v 0.806057 0.511378 0.055216
v 0.796521 0.497648 0.063820
v 0.797628 0.503729 0.067642
v 0.801699 0.506266 0.073096
v 0.811637 0.515827 0.061564
v 0.806798 0.503324 0.076370
v 0.819396 0.511741 0.064600
v 0.829341 0.518815 0.052921
v 0.822727 0.503389 0.062406
v 0.833366 0.508470 0.049807
v 0.820636 0.496091 0.058615
v 0.831932 0.497111 0.046622
v 0.837815 0.500895 0.036030
v 0.823419 0.489932 0.042368
v 0.829206 0.492669 0.032241
v 0.814920 0.492074 0.053943
v 0.809135 0.491145 0.072058
v 0.804395 0.488404 0.067158
v 0.798954 0.491086 0.063421
v 0.795244 0.485878 0.079261
v 0.791172 0.488327 0.076668
v 0.788894 0.493110 0.076479
v 0.783997 0.493669 0.087317
v 0.789857 0.497600 0.078906
v 0.786551 0.494930 0.089901
v 0.793072 0.499227 0.082558
v 0.789567 0.493502 0.091990
v 0.797140 0.497382 0.085298
v 0.791274 0.489973 0.092535
v 0.799361 0.492441 0.085078
v 0.809616 0.497086 0.075304
v 0.798534 0.487790 0.082746
v 0.790108 0.486407 0.090980
v 0.785458 0.488367 0.097148
v 0.784170 0.486159 0.095542
v 0.779432 0.486365 0.098827
v 0.776540 0.487098 0.100145
v 0.777322 0.488820 0.097427
v 0.779790 0.490955 0.093434
v 0.781871 0.492346 0.095199
v 0.784294 0.491074 0.096722
v 0.806794 0.531625 0.012643
v 0.804226 0.544583 -0.001145
v 0.799656 0.529447 0.001945
v 0.805482 0.542331 -0.013485
v 0.804758 0.562260 -0.003540
v 0.800577 0.581237 -0.007498
v 0.761479 0.491767 0.056758
v 0.763523 0.489505 0.056772
v 0.768128 0.495797 0.052984
v 0.769929 0.492247 0.053147
v 0.768838 0.490029 0.050684
v 0.779840 0.495975 0.046655
v 0.778464 0.492301 0.043808
v 0.788178 0.504976 0.037670
v 0.777576 0.501292 0.046424
v 0.790715 0.497928 0.038800
v 0.788128 0.492735 0.035002
v 0.782532 0.508961 0.033543
v 0.773368 0.503792 0.043573
v 0.777829 0.506473 0.028626
v 0.769832 0.502561 0.039806
v 0.804814 0.490109 0.006585
v 0.821812 0.501136 -0.055484
v 0.824820 0.494268 -0.076143
v 0.820738 0.497346 -0.075773
v 0.819615 0.502368 -0.076845
v 0.817157 0.493007 -0.093343
v 0.816509 0.497077 -0.094471
v 0.822248 0.506365 -0.078602
v 0.819346 0.500717 -0.095802
v 0.821010 0.492965 -0.107174
v 0.822749 0.495168 -0.107137
v 0.826466 0.507952 -0.080122
v 0.823004 0.501431 -0.096262
v 0.824809 0.496353 -0.106857
v 0.826216 0.492329 -0.111114
v 0.828310 0.492060 -0.111781
v 0.826756 0.500627 -0.096232
v 0.827411 0.495703 -0.105963
v 0.829239 0.498536 -0.095742
v 0.828624 0.494228 -0.104956
v 0.829592 0.495451 -0.094833
v 0.828629 0.492255 -0.104105
v 0.827773 0.492603 -0.093913
v 0.827451 0.490390 -0.103842
v 0.828883 0.489487 -0.108769
v 0.824381 0.490978 -0.093251
v 0.825535 0.489362 -0.104157
v 0.820788 0.491110 -0.093072
v 0.823226 0.489293 -0.104968
v 0.821290 0.490534 -0.106271
v 0.826815 0.490213 -0.112377
v 0.829009 0.493353 -0.077663
v 0.833596 0.494870 -0.079609
v 0.836243 0.498776 -0.081237
v 0.835426 0.503926 -0.081892
v 0.831280 0.507419 -0.081327
v 0.807916 0.602869 -0.003995
v 0.813966 0.604935 -0.004034
v 0.822328 0.588122 -0.004218
v 0.816608 0.602825 -0.009407
v 0.815146 0.599895 -0.014468
v 0.811269 0.597349 -0.017953
v 0.858636 0.511151 0.039436
v 0.873349 0.513306 0.048074
v 0.866930 0.517251 0.040283
v 0.866639 0.506742 0.047624
v 0.880630 0.511747 0.043190
v 0.874479 0.516033 0.035320
v 0.883953 0.507014 0.038595
v 0.878041 0.510929 0.030346
v 0.884337 0.501903 0.035018
v 0.878718 0.505360 0.026867
v 0.882211 0.496449 0.032875
v 0.876684 0.499537 0.024792
v 0.878004 0.492988 0.034650
v 0.871133 0.495418 0.025326
v 0.868688 0.563262 0.002305
v 0.875260 0.575955 -0.008000
v 0.879529 0.585335 -0.012666
v 0.875142 0.588243 -0.013403
v 0.880074 0.595666 -0.014221
v 0.879556 0.572349 -0.011674
v 0.880691 0.552953 -0.010345
v 0.882261 0.569816 -0.017691
v 0.875635 0.557518 -0.001495
v 0.883906 0.550676 -0.021621
v 0.883347 0.568100 -0.026385
v 0.882500 0.565966 -0.035855
v 0.878518 0.562739 -0.045485
v 0.869201 0.561851 -0.050813
v 0.873689 0.579709 -0.054032
v 0.864960 0.581142 -0.052345
v 0.866695 0.594368 -0.055811
v 0.874470 0.594315 -0.055301
v 0.862881 0.595625 -0.048385
v 0.861217 0.604597 -0.053742
v 0.861324 0.606357 -0.046829
v 0.864293 0.609295 -0.042404
v 0.913887 0.514954 -0.022180
v 0.921204 0.510003 -0.019768
v 0.921316 0.499045 -0.010543
v 0.925247 0.503542 -0.011609
v 0.923718 0.493968 -0.011986
v 0.895995 0.492756 0.080380
v 0.891505 0.490267 0.081057
v 0.893541 0.485701 0.079513
v 0.898170 0.488606 0.078933
v 0.830531 0.488541 -0.114420
vt 0.055065 0.287446
vt 0.050555 0.289971
vt 0.050504 0.288509
vt 0.052489 0.287216
vt 0.303119 0.101270
vt 0.303232 0.100365
vt 0.303276 0.100780
vt 0.303254 0.102650
vt 0.303387 0.102829
vt 0.303333 0.101186
vt 0.477685 0.973645
vt 0.478350 0.974091
vt 0.476203 0.975652
vt 0.476010 0.975658
vt 0.303824 0.103559
vt 0.303988 0.102896
vt 0.369405 0.221012
vt 0.367755 0.220959
vt 0.371309 0.216230
vt 0.371585 0.216972
vt 0.946134 0.145721
vt 0.947173 0.148699
vt 0.947138 0.150199
vt 0.944899 0.145843
vt 0.947660 0.149128
vt 0.948598 0.149963
vt 0.947437 0.145866
vt 0.948741 0.146507
vt 0.349150 0.246553
vt 0.347250 0.243772
vt 0.354803 0.239858
vt 0.354495 0.244570
vt 0.946915 0.133721
vt 0.945908 0.128893
vt 0.952220 0.131557
vt 0.948713 0.135707
vt 0.359816 0.244214
vt 0.361899 0.239099
vt 0.359007 0.231345
vt 0.362430 0.233103
vt 0.353226 0.236499
vt 0.345509 0.240559
vt 0.945174 0.134052
vt 0.941105 0.128947
vt 0.946612 0.120739
vt 0.951192 0.123776
vt 0.942343 0.122073
vt 0.937822 0.123848
vt 0.950268 0.118557
vt 0.953311 0.116719
vt 0.954192 0.119330
vt 0.953285 0.121632
vt 0.354388 0.247945
vt 0.357377 0.247832
vt 0.356060 0.251296
vt 0.353981 0.250813
vt 0.351171 0.252627
vt 0.352916 0.253942
vt 0.349949 0.249872
vt 0.742717 0.990359
vt 0.740507 0.988206
vt 0.741120 0.987468
vt 0.742506 0.988540
vt 0.741534 0.991929
vt 0.739766 0.988880
vt 0.736086 0.986473
vt 0.738308 0.990173
vt 0.311002 0.313393
vt 0.308933 0.316965
vt 0.305264 0.320091
vt 0.306645 0.317130
vt 0.306808 0.315489
vt 0.303911 0.318765
vt 0.304257 0.317640
vt 0.304301 0.316942
vt 0.303082 0.318100
vt 0.705553 0.970947
vt 0.706737 0.972699
vt 0.704480 0.972905
vt 0.704225 0.970821
vt 0.085644 0.943699
vt 0.084998 0.939722
vt 0.086094 0.941322
vt 0.086891 0.943673
vt 0.088988 0.942658
vt 0.086971 0.940078
vt 0.708481 0.970965
vt 0.705873 0.970016
vt 0.705405 0.968977
vt 0.707829 0.968320
vt 0.084476 0.943396
vt 0.084333 0.940386
vt 0.722274 0.974034
vt 0.728817 0.975921
vt 0.728152 0.982454
vt 0.719934 0.977135
vt 0.733971 0.981373
vt 0.730835 0.985111
vt 0.716110 0.978674
vt 0.720366 0.984307
vt 0.092470 0.964715
vt 0.093898 0.956868
vt 0.101563 0.958656
vt 0.097791 0.967893
vt 0.729135 0.990877
vt 0.724435 0.990111
vt 0.736303 0.979068
vt 0.733818 0.972833
vt 0.724592 0.970940
vt 0.728619 0.969897
vt 0.732532 0.966277
vt 0.315431 0.308155
vt 0.313772 0.313097
vt 0.307224 0.320465
vt 0.310955 0.321407
vt 0.322258 0.316101
vt 0.313541 0.319436
vt 0.322462 0.310317
vt 0.322081 0.303837
vt 0.311404 0.310214
vt 0.316553 0.302003
vt 0.319514 0.289023
vt 0.321915 0.294661
vt 0.315069 0.295797
vt 0.328924 0.318021
vt 0.328114 0.326235
vt 0.322011 0.322140
vt 0.317413 0.284017
vt 0.313173 0.289854
vt 0.308951 0.285599
vt 0.312924 0.280577
vt 0.326456 0.332208
vt 0.321748 0.330399
vt 0.357557 0.915704
vt 0.361311 0.915267
vt 0.362979 0.924494
vt 0.357651 0.923798
vt 0.355939 0.931261
vt 0.361215 0.932398
vt 0.366316 0.933580
vt 0.368245 0.926494
vt 0.364444 0.913929
vt 0.366444 0.919902
vt 0.371947 0.921898
vt 0.375812 0.929584
vt 0.374677 0.931169
vt 0.371825 0.927935
vt 0.374759 0.928310
vt 0.376056 0.926793
vt 0.375886 0.924218
vt 0.370072 0.934989
vt 0.373076 0.935684
vt 0.314634 0.217268
vt 0.315225 0.220197
vt 0.312758 0.222653
vt 0.312693 0.219893
vt 0.310868 0.220405
vt 0.310491 0.224922
vt 0.360679 0.908623
vt 0.359843 0.905260
vt 0.362959 0.906271
vt 0.363573 0.909079
vt 0.353696 0.915524
vt 0.354747 0.909745
vt 0.357384 0.908948
vt 0.355031 0.905222
vt 0.350674 0.908830
vt 0.349728 0.914929
vt 0.312687 0.216152
vt 0.306606 0.223476
vt 0.308873 0.220485
vt 0.306855 0.217499
vt 0.310020 0.216213
vt 0.378241 0.932049
vt 0.377212 0.929202
vt 0.357240 0.950330
vt 0.357437 0.959726
vt 0.350635 0.959373
vt 0.350641 0.949776
vt 0.331376 0.311038
vt 0.342267 0.947983
vt 0.338093 0.956880
vt 0.323345 0.208566
vt 0.320820 0.205349
vt 0.329032 0.199337
vt 0.330525 0.205872
vt 0.324545 0.184288
vt 0.334383 0.190261
vt 0.320535 0.194866
vt 0.340841 0.194574
vt 0.336476 0.202129
vt 0.334926 0.207260
vt 0.362698 0.960189
vt 0.371053 0.961079
vt 0.371837 0.967838
vt 0.363695 0.965299
vt 0.310166 0.257973
vt 0.318301 0.256375
vt 0.319800 0.269043
vt 0.309885 0.269442
vt 0.326157 0.254943
vt 0.328894 0.261703
vt 0.324238 0.274751
vt 0.331706 0.266671
vt 0.560597 0.881394
vt 0.552336 0.888829
vt 0.553040 0.878845
vt 0.560969 0.874669
vt 0.306208 0.248912
vt 0.315596 0.246184
vt 0.307796 0.238356
vt 0.301950 0.238475
vt 0.938952 0.114050
vt 0.943313 0.113335
vt 0.936451 0.106441
vt 0.941642 0.104365
vt 0.302696 0.135532
vt 0.306749 0.138575
vt 0.305742 0.154758
vt 0.299175 0.147522
vt 0.339275 0.310377
vt 0.336317 0.322368
vt 0.310983 0.140488
vt 0.314964 0.156620
vt 0.318004 0.168244
vt 0.309489 0.165665
vt 0.946054 0.104259
vt 0.947965 0.112194
vt 0.578329 0.872057
vt 0.571743 0.877349
vt 0.566304 0.877274
vt 0.570882 0.872863
vt 0.565828 0.883030
vt 0.329187 0.301375
vt 0.335786 0.301829
vt 0.291749 0.140600
vt 0.298712 0.130842
vt 0.329671 0.284133
vt 0.337770 0.285869
vt 0.278280 0.129501
vt 0.286199 0.129343
vt 0.279051 0.134354
vt 0.295089 0.123999
vt 0.327455 0.278975
vt 0.334523 0.270906
vt 0.337898 0.272499
vt 0.945758 0.095648
vt 0.946911 0.086025
vt 0.955195 0.086103
vt 0.950429 0.096447
vt 0.323777 0.247993
vt 0.927862 0.104900
vt 0.923199 0.108578
vt 0.917858 0.105388
vt 0.924844 0.101644
vt 0.105298 0.460939
vt 0.100498 0.460446
vt 0.101145 0.455782
vt 0.106421 0.450219
vt 0.597654 0.849150
vt 0.595012 0.855815
vt 0.591857 0.857219
vt 0.592914 0.846796
vt 0.583986 0.850178
vt 0.588608 0.856126
vt 0.595172 0.860621
vt 0.591867 0.863483
vt 0.585719 0.863287
vt 0.328550 0.173201
vt 0.339389 0.181689
vt 0.316426 0.179496
vt 0.580292 0.862085
vt 0.344412 0.197715
vt 0.348791 0.187334
vt 0.353448 0.193117
vt 0.362559 0.191960
vt 0.358410 0.187381
vt 0.581682 0.868112
vt 0.575648 0.866005
vt 0.574847 0.881443
vt 0.321337 0.156432
vt 0.596394 0.828521
vt 0.587360 0.830526
vt 0.621426 0.887582
vt 0.619962 0.887980
vt 0.619502 0.887088
vt 0.620505 0.886520
vt 0.616475 0.883031
vt 0.615302 0.884182
vt 0.616100 0.887410
vt 0.620302 0.888985
vt 0.616398 0.888620
vt 0.622598 0.888382
vt 0.100887 0.387739
vt 0.099946 0.388049
vt 0.099005 0.384440
vt 0.099914 0.383944
vt 0.621748 0.885733
vt 0.613546 0.874764
vt 0.617436 0.875550
vt 0.620192 0.881367
vt 0.618177 0.882710
vt 0.623687 0.882779
vt 0.621895 0.877246
vt 0.602078 0.866882
vt 0.602549 0.853725
vt 0.607612 0.865175
vt 0.106984 0.440161
vt 0.113336 0.444504
vt 0.102383 0.444904
vt 0.118677 0.449619
vt 0.113103 0.454953
vt 0.109849 0.462000
vt 0.598917 0.869561
vt 0.933701 0.589926
vt 0.941701 0.590170
vt 0.942458 0.603642
vt 0.930605 0.599520
vt 0.477973 0.939378
vt 0.473873 0.938532
vt 0.473262 0.922317
vt 0.480237 0.926975
vt 0.950041 0.589797
vt 0.952411 0.600146
vt 0.587621 0.869104
vt 0.584180 0.872095
vt 0.580214 0.879848
vt 0.933306 0.099807
vt 0.938906 0.094767
vt 0.931225 0.096588
vt 0.932653 0.089177
vt 0.922620 0.595837
vt 0.926196 0.588736
vt 0.926223 0.604472
vt 0.918930 0.599931
vt 0.040136 0.414473
vt 0.037937 0.414036
vt 0.038988 0.410631
vt 0.040703 0.410229
vt 0.039892 0.407606
vt 0.037794 0.409232
vt 0.035882 0.412905
vt 0.031208 0.217227
vt 0.029979 0.216622
vt 0.030878 0.216099
vt 0.031417 0.216099
vt 0.029670 0.215405
vt 0.030665 0.215315
vt 0.487279 0.943450
vt 0.492886 0.933227
vt 0.501446 0.935643
vt 0.490897 0.945759
vt 0.493905 0.947793
vt 0.506826 0.940287
vt 0.601624 0.835263
vt 0.605532 0.823943
vt 0.600762 0.818004
vt 0.104274 0.406093
vt 0.107138 0.406041
vt 0.110407 0.419329
vt 0.105924 0.416639
vt 0.110115 0.404606
vt 0.115265 0.415959
vt 0.120527 0.424436
vt 0.116821 0.428313
vt 0.111975 0.433911
vt 0.106054 0.427350
vt 0.012985 0.451012
vt 0.020339 0.452022
vt 0.017284 0.455264
vt 0.010189 0.453809
vt 0.023432 0.319530
vt 0.025077 0.318130
vt 0.021462 0.332925
vt 0.019151 0.328950
vt 0.936124 0.578524
vt 0.929831 0.576689
vt 0.602989 0.809793
vt 0.609358 0.814134
vt 0.610140 0.827273
vt 0.613307 0.820203
vt 0.619225 0.813687
vt 0.617371 0.806957
vt 0.958486 0.587835
vt 0.960225 0.598310
vt 0.948378 0.578533
vt 0.954158 0.578100
vt 0.936278 0.569324
vt 0.931360 0.568432
vt 0.023349 0.311830
vt 0.025100 0.307942
vt 0.030869 0.305941
vt 0.030382 0.312873
vt 0.945844 0.568296
vt 0.948686 0.565740
vt 0.026924 0.294632
vt 0.017598 0.292893
vt 0.010685 0.285685
vt 0.025719 0.289345
vt 0.136888 0.430254
vt 0.142269 0.432346
vt 0.137470 0.437074
vt 0.131853 0.434917
vt 0.028528 0.300182
vt 0.022083 0.299960
vt 0.130516 0.439109
vt 0.136324 0.439348
vt 0.941271 0.569289
vt 0.940585 0.562579
vt 0.945305 0.562298
vt 0.945040 0.554371
vt 0.947565 0.560734
vt 0.942726 0.555184
vt 0.939908 0.555654
vt 0.055895 0.288073
vt 0.050119 0.291433
vt 0.050564 0.292803
vt 0.055830 0.290055
vt 0.938272 0.545528
vt 0.938730 0.542767
vt 0.940143 0.544808
vt 0.939492 0.546296
vt 0.061649 0.286166
vt 0.059438 0.287230
vt 0.058341 0.286285
vt 0.059906 0.287868
vt 0.936441 0.540666
vt 0.937413 0.539020
vt 0.937842 0.539892
vt 0.937569 0.542133
vt 0.938283 0.539384
vt 0.937520 0.538393
vt 0.935881 0.538725
vt 0.123950 0.434622
vt 0.126226 0.444879
vt 0.119295 0.439255
vt 0.123177 0.455297
vt 0.128922 0.451703
vt 0.035763 0.451208
vt 0.035880 0.448383
vt 0.041930 0.451529
vt 0.040809 0.455997
vt 0.035955 0.443604
vt 0.041152 0.444869
vt 0.029316 0.446984
vt 0.030033 0.442471
vt 0.031673 0.435787
vt 0.036586 0.436956
vt 0.041469 0.437685
vt 0.038273 0.428446
vt 0.041976 0.429854
vt 0.135106 0.469024
vt 0.128643 0.461949
vt 0.132838 0.458351
vt 0.137491 0.466127
vt 0.132199 0.472485
vt 0.124826 0.465938
vt 0.118630 0.459833
vt 0.121273 0.470184
vt 0.114311 0.465732
vt 0.118974 0.475201
vt 0.112408 0.472668
vt 0.106138 0.469565
vt 0.101140 0.466315
vt 0.023927 0.441345
vt 0.022314 0.447128
vt 0.015734 0.446601
vt 0.017520 0.439886
vt 0.028999 0.449813
vt 0.022431 0.432764
vt 0.027023 0.434474
vt 0.026271 0.424011
vt 0.030241 0.425868
vt 0.034112 0.427549
vt 0.033435 0.418692
vt 0.036236 0.419605
vt 0.039045 0.420303
vt 0.023789 0.215247
vt 0.018240 0.217049
vt 0.017779 0.214359
vt 0.023802 0.212986
vt 0.009987 0.215947
vt 0.009584 0.212476
vt 0.024186 0.217525
vt 0.018771 0.219964
vt 0.011041 0.219281
vt 0.025076 0.219736
vt 0.020170 0.222711
vt 0.139011 0.476064
vt 0.136830 0.478403
vt 0.027032 0.221677
vt 0.021755 0.225255
vt 0.129384 0.476132
vt 0.135166 0.481110
vt 0.133500 0.483827
vt 0.127138 0.479985
vt 0.030061 0.222997
vt 0.023874 0.227075
vt 0.030301 0.416987
vt 0.033522 0.411743
vt 0.029685 0.219041
vt 0.031744 0.219511
vt 0.036211 0.408754
vt 0.032919 0.215404
vt 0.038580 0.406689
vt 0.031418 0.215224
vt 0.030573 0.213920
vt 0.032033 0.213863
vt 0.029416 0.211529
vt 0.028068 0.213648
vt 0.027467 0.215726
vt 0.028135 0.217829
vt 0.127356 0.430901
vt 0.125088 0.420220
vt 0.132332 0.425753
vt 0.606332 0.839099
vt 0.615381 0.830239
vt 0.612186 0.840460
vt 0.617369 0.823867
vt 0.608863 0.852321
vt 0.613301 0.864538
vt 0.118929 0.412361
vt 0.113313 0.402926
vt 0.617887 0.864577
vt 0.059499 0.288893
vt 0.056051 0.291411
vt 0.937195 0.544964
vt 0.936242 0.543959
vt 0.934521 0.547898
vt 0.936271 0.548832
vt 0.937859 0.549372
vt 0.935015 0.555023
vt 0.937296 0.555577
vt 0.939682 0.549465
vt 0.930664 0.558328
vt 0.932513 0.553380
vt 0.933471 0.561338
vt 0.936507 0.562508
vt 0.035312 0.298623
vt 0.043391 0.295678
vt 0.044734 0.297875
vt 0.037345 0.302686
vt 0.051450 0.294058
vt 0.034336 0.294525
vt 0.043043 0.293324
vt 0.945916 0.553394
vt 0.948913 0.558419
vt 0.044689 0.290786
vt 0.031400 0.290680
vt 0.927743 0.563993
vt 0.941063 0.550769
vt 0.045649 0.288412
vt 0.942151 0.579219
vt 0.622194 0.818420
vt 0.486953 0.931168
vt 0.482923 0.941599
vt 0.476002 0.951106
vt 0.478866 0.952031
vt 0.481806 0.953225
vt 0.475628 0.961231
vt 0.477780 0.962244
vt 0.484475 0.954889
vt 0.480161 0.963561
vt 0.474859 0.968607
vt 0.476775 0.969145
vt 0.486636 0.956677
vt 0.481931 0.964629
vt 0.478405 0.969706
vt 0.476153 0.972127
vt 0.476929 0.973186
vt 0.483346 0.965980
vt 0.479865 0.970399
vt 0.484256 0.968364
vt 0.480385 0.971239
vt 0.484579 0.969774
vt 0.480541 0.972268
vt 0.478569 0.974468
vt 0.303510 0.111883
vt 0.304072 0.106396
vt 0.305318 0.107082
vt 0.304983 0.113940
vt 0.303772 0.104101
vt 0.301675 0.110358
vt 0.303096 0.104196
vt 0.473503 0.960314
vt 0.471047 0.966589
vt 0.469766 0.965825
vt 0.471466 0.959898
vt 0.302800 0.103983
vt 0.472808 0.967687
vt 0.302116 0.102553
vt 0.303062 0.100985
vt 0.302158 0.100629
vt 0.473143 0.951177
vt 0.302325 0.120645
vt 0.300206 0.116983
vt 0.304447 0.123608
vt 0.305852 0.114919
vt 0.306593 0.125757
vt 0.307005 0.115187
vt 0.308500 0.126235
vt 0.488606 0.958791
vt 0.495614 0.950230
vt 0.475048 0.972993
vt 0.097527 0.465955
vt 0.102131 0.433677
vt 0.103401 0.396271
vt 0.105026 0.395196
vt 0.102399 0.387258
vt 0.101373 0.396423
vt 0.100152 0.404793
vt 0.099296 0.395607
vt 0.098609 0.387265
vt 0.608583 0.877769
vt 0.607417 0.880759
vt 0.595857 0.873001
vt 0.610620 0.875669
vt 0.593805 0.876521
vt 0.313693 0.140572
vt 0.931270 0.110112
vt 0.929900 0.119931
vt 0.927095 0.114108
vt 0.934356 0.116516
vt 0.340036 0.247530
vt 0.333700 0.251720
vt 0.331088 0.246260
vt 0.337817 0.243057
vt 0.342075 0.250968
vt 0.336060 0.256255
vt 0.343791 0.253745
vt 0.338514 0.259779
vt 0.345993 0.256065
vt 0.340922 0.262742
vt 0.951610 0.111713
vt 0.950745 0.104791
vt 0.953480 0.106070
vt 0.953436 0.110597
vt 0.342932 0.264792
vt 0.349784 0.256879
vt 0.933507 0.124721
vt 0.561137 0.889656
vt 0.625108 0.885433
vt 0.357312 0.197553
vt 0.347829 0.200881
vt 0.343092 0.205384
vt 0.339888 0.203490
vt 0.341054 0.209283
vt 0.338144 0.208534
vt 0.379093 0.927930
vt 0.379172 0.925648
vt 0.373040 0.942050
vt 0.375869 0.935755
vt 0.376337 0.941277
vt 0.370169 0.951614
vt 0.369066 0.942038
vt 0.376091 0.951285
vt 0.362711 0.203072
vt 0.349471 0.204074
vt 0.363668 0.950975
vt 0.364059 0.941344
vt 0.358514 0.940621
vt 0.352049 0.940004
vt 0.345854 0.938741
vt 0.350822 0.929467
vt 0.341941 0.934671
vt 0.346354 0.927221
vt 0.348976 0.920810
vt 0.352967 0.922183
vt 0.315959 0.202971
vt 0.310967 0.202103
vt 0.313260 0.192336
vt 0.312290 0.209552
vt 0.308266 0.209935
vt 0.315726 0.211230
vt 0.318120 0.213394
vt 0.325165 0.212107
vt 0.319376 0.216751
vt 0.311725 0.177890
vt 0.378074 0.960545
vt 0.370390 0.198985
vt 0.372881 0.205520
vt 0.330213 0.210207
vt 0.334200 0.211279
vt 0.728834 0.965169
vt 0.734498 0.959946
vt 0.085575 0.974374
vt 0.084391 0.969143
vt 0.088330 0.961661
vt 0.725430 0.967144
vt 0.089995 0.957353
vt 0.085842 0.949419
vt 0.087777 0.948987
vt 0.086118 0.955356
vt 0.090812 0.949701
vt 0.714148 0.967636
vt 0.714124 0.971730
vt 0.712699 0.974627
vt 0.091479 0.977576
vt 0.738790 0.984565
vt 0.741066 0.983914
vt 0.710794 0.975251
vt 0.347727 0.236393
vt 0.350306 0.232231
vt 0.357443 0.227703
vt 0.363722 0.225487
vt 0.363169 0.223978
vt 0.947441 0.140460
vt 0.946070 0.140198
vt 0.364913 0.226446
vt 0.366916 0.224953
vt 0.366019 0.230857
vt 0.950187 0.141622
vt 0.944520 0.142041
vt 0.475991 0.975461
vt 0.061819 0.287161
vt 0.303195 0.100288
vn -0.2829 -0.8136 -0.5079
vn -0.7192 -0.2521 -0.6474
vn -0.4326 -0.6617 -0.6123
vn -0.0432 -0.9389 -0.3416
vn -0.5903 -0.6133 -0.5248
vn 0.2351 0.1227 -0.9642
vn 0.3584 -0.8565 -0.3714
vn -0.2871 -0.9475 -0.1408
vn 0.2185 -0.9640 0.1518
vn 0.6928 -0.7069 0.1424
vn 0.6183 0.6888 -0.3784
vn 0.9669 0.2530 0.0341
vn 0.8780 -0.3938 0.2723
vn 0.9104 -0.3861 -0.1486
vn 0.4550 0.8811 0.1287
vn 0.3158 0.7439 0.5889
vn 0.9239 -0.2527 0.2872
vn -0.8244 0.3961 0.4043
vn -0.6706 0.4660 0.5772
vn -0.0978 -0.5885 0.8025
vn -0.3250 -0.9304 0.1695
vn 0.7965 0.5375 -0.2768
vn 0.6084 0.7913 0.0600
vn 0.9471 0.2900 0.1372
vn 0.9947 -0.0606 0.0832
vn -0.1807 -0.9637 -0.1964
vn -0.2102 -0.9562 0.2034
vn 0.9662 -0.1171 -0.2296
vn 0.2652 -0.9133 0.3090
vn 0.2327 0.8700 0.4347
vn 0.1473 0.8103 0.5672
vn 0.0457 0.8201 0.5705
vn -0.8730 0.1029 0.4768
vn -0.7299 0.0756 0.6794
vn -0.3661 -0.9020 0.2287
vn -0.5943 -0.5332 0.6021
vn -0.5732 0.1587 0.8039
vn -0.2738 -0.9616 0.0181
vn -0.1649 -0.8813 -0.4430
vn 0.2230 -0.9522 -0.2089
vn 0.3712 -0.9159 0.1526
vn 0.9604 -0.1671 -0.2229
vn 0.6031 -0.4402 -0.6653
vn 0.3975 -0.2675 -0.8777
vn 0.7523 0.2949 -0.5891
vn 0.2177 0.0548 -0.9745
vn 0.8210 -0.4495 -0.3520
vn 0.0451 -0.9988 -0.0165
vn -0.5000 -0.5030 -0.7050
vn -0.2628 0.5679 -0.7800
vn 0.8372 0.4685 -0.2821
vn 0.8892 -0.3838 0.2490
vn 0.4960 0.6480 -0.5780
vn -0.6013 0.4543 -0.6573
vn -0.8700 -0.3991 -0.2895
vn -0.0702 -0.9296 0.3618
vn 0.4916 -0.8528 0.1760
vn 0.4222 -0.7842 -0.4548
vn 0.9894 0.0723 -0.1257
vn 0.7169 0.2804 0.6382
vn 0.2712 0.7195 0.6394
vn 0.9755 0.2038 -0.0835
vn 0.5025 -0.7066 -0.4982
vn -0.6139 -0.7883 -0.0407
vn -0.1852 -0.6636 0.7248
vn -0.4174 0.0345 0.9081
vn -0.7109 0.0951 0.6968
vn -0.4264 -0.8896 -0.1634
vn -0.1649 -0.9604 0.2248
vn 0.8966 -0.1636 -0.4116
vn 0.6929 -0.5943 -0.4083
vn -0.0153 -0.9025 0.4305
vn 0.9516 -0.2554 -0.1710
vn 0.9393 0.3368 0.0662
vn 0.8090 0.5763 0.1156
vn 0.4072 0.8915 0.1985
vn 0.3780 0.7391 -0.5575
vn 0.0855 0.4919 -0.8665
vn -0.8900 -0.4551 0.0279
vn -0.2951 -0.9491 0.1103
vn -0.8227 -0.1497 0.5484
vn -0.3860 -0.5698 0.7255
vn 0.2684 -0.6512 0.7098
vn -0.6219 -0.2760 -0.7328
vn 0.1779 0.7338 -0.6557
vn -0.0850 -0.0252 -0.9961
vn -0.0562 -0.7766 -0.6275
vn 0.5111 -0.5724 0.6412
vn 0.2320 -0.9693 0.0820
vn 0.5326 0.1083 -0.8394
vn 0.8885 0.4153 -0.1952
vn 0.4929 0.8490 0.1906
vn 0.6508 0.0920 0.7536
vn 0.4278 0.2785 0.8599
vn 0.7713 0.3979 0.4968
vn 0.9419 0.2356 0.2393
vn 0.9154 0.3453 -0.2070
vn 0.7710 0.5731 0.2776
vn 0.9398 0.3301 -0.0887
vn 0.9315 0.0885 -0.3527
vn 0.8720 -0.0693 -0.4845
vn 0.9774 -0.0067 -0.2111
vn 0.9838 -0.0649 -0.1671
vn 0.9067 0.3465 -0.2406
vn 0.1069 0.5932 0.7979
vn 0.2338 0.8319 0.5033
vn 0.1430 0.9799 0.1388
vn 0.9185 -0.1002 0.3826
vn 0.8516 -0.3600 0.3810
vn 0.9593 0.1272 -0.2522
vn 0.8613 0.4845 -0.1532
vn 0.0925 0.8834 0.4595
vn -0.0471 0.9983 0.0334
vn 0.9839 -0.1647 0.0699
vn 0.8428 -0.1521 0.5164
vn -0.6948 -0.0374 0.7182
vn -0.0218 0.5273 0.8494
vn -0.3231 0.6628 0.6755
vn -0.8370 0.1619 0.5226
vn -0.9671 0.2532 -0.0235
vn -0.2475 0.9533 0.1733
vn 0.4733 0.8015 0.3654
vn 0.6227 0.0355 -0.7816
vn 0.5712 0.4054 -0.7137
vn 0.6017 0.7737 -0.1984
vn -0.1941 0.8342 -0.5162
vn -0.1325 0.1562 -0.9788
vn -0.2168 -0.2500 -0.9437
vn -0.9529 -0.2671 0.1437
vn -0.8145 0.2703 -0.5134
vn -0.8220 -0.2249 -0.5232
vn 0.2841 -0.0761 0.9558
vn 0.3950 0.1237 0.9103
vn 0.9637 -0.0186 -0.2662
vn 0.6911 -0.1590 -0.7051
vn 0.1641 -0.3075 -0.9373
vn 0.1413 -0.1265 -0.9818
vn 0.3965 0.0328 -0.9174
vn -0.6511 0.4427 0.6165
vn -0.9125 0.1291 0.3881
vn -0.8364 0.4780 0.2683
vn -0.6707 0.6232 0.4022
vn -0.7539 0.5757 -0.3165
vn -0.6638 0.7464 0.0477
vn -0.9643 0.2562 -0.0669
vn -0.4709 0.7813 0.4096
vn -0.6491 0.5818 0.4901
vn -0.6197 0.6170 0.4851
vn 0.8939 0.1158 0.4331
vn 0.9094 0.1566 0.3854
vn 0.8234 0.1982 0.5317
vn 0.8144 0.3028 0.4951
vn 0.7412 0.5672 0.3590
vn 0.9540 0.2930 0.0641
vn 0.8874 -0.0562 0.4575
vn 0.9980 -0.0348 -0.0521
vn 0.4719 0.3631 0.8034
vn 0.3331 0.2100 0.9192
vn 0.6594 0.3164 0.6820
vn 0.6958 0.5257 0.4894
vn 0.3854 0.2478 0.8889
vn 0.4239 0.1653 0.8905
vn -0.6604 -0.3371 0.6710
vn -0.3768 -0.8680 0.3233
vn -0.8538 -0.2407 0.4615
vn -0.5558 -0.8278 0.0759
vn 0.8671 -0.2051 -0.4540
vn 0.6831 0.3497 -0.6412
vn 0.6080 -0.3342 -0.7202
vn 0.1813 0.7269 -0.6624
vn -0.0593 0.4119 -0.9093
vn -0.3454 0.2139 -0.9138
vn -0.0306 -0.9794 -0.1994
vn -0.1038 -0.9873 -0.1199
vn -0.0756 0.9792 0.1883
vn -0.1947 0.9158 0.3512
vn 0.5456 0.7332 0.4060
vn 0.4195 0.9046 0.0759
vn -0.2995 0.4400 0.8466
vn 0.1380 -0.8643 -0.4838
vn 0.3915 -0.8856 -0.2498
vn 0.6064 -0.7644 -0.2188
vn 0.3394 -0.9376 0.0755
vn 0.1569 -0.9876 0.0071
vn 0.1487 -0.9833 0.1047
vn 0.0994 -0.9944 -0.0356
vn 0.0321 -0.9994 -0.0118
vn 0.7428 -0.5521 0.3787
vn 0.8492 -0.5163 -0.1111
vn 0.4176 -0.9001 -0.1241
vn 0.0052 -0.9980 -0.0632
vn 0.0023 0.6014 0.7989
vn -0.6581 0.1639 0.7348
vn 0.0116 -0.1600 0.9871
vn 0.7859 -0.1752 0.5930
vn -0.6864 0.3500 -0.6375
vn -0.6651 0.5476 -0.5077
vn -0.2751 0.8895 -0.3649
vn -0.5930 0.3489 -0.7257
vn -0.3576 0.6196 -0.6987
vn 0.0397 0.8183 -0.5735
vn -0.2656 0.5441 -0.7958
vn 0.4634 0.8038 -0.3731
vn 0.3010 0.9484 -0.0996
vn -0.1585 0.9812 -0.1097
vn -0.5628 0.1470 -0.8134
vn -0.0229 0.6213 0.7832
vn -0.0432 0.9826 0.1806
vn 0.3274 0.7346 0.5943
vn 0.1995 0.9779 -0.0620
vn -0.6415 0.4532 0.6189
vn -0.3648 0.4850 -0.7948
vn -0.6466 0.4059 -0.6459
vn -0.4663 0.7502 -0.4689
vn 0.4796 0.8103 -0.3369
vn 0.7047 0.2445 -0.6660
vn -0.0605 0.1975 -0.9784
vn 0.2872 -0.2018 -0.9364
vn 0.7931 0.1341 -0.5942
vn 0.8499 0.5000 -0.1666
vn 0.0963 0.9645 0.2459
vn 0.2294 0.8602 0.4555
vn -0.7194 0.6761 0.1589
vn -0.6001 0.5835 0.5471
vn -0.9190 0.0347 -0.3927
vn -0.4796 -0.2667 -0.8360
vn -0.9839 -0.0497 -0.1716
vn -0.9635 -0.1145 -0.2418
vn -0.5987 -0.2928 -0.7455
vn -0.9542 0.2324 0.1885
vn -0.8343 0.2351 0.4987
vn 0.2540 0.0476 -0.9660
vn -0.7057 0.1045 -0.7007
vn -0.5036 -0.1522 -0.8504
vn -0.2902 0.3201 0.9019
vn -0.3122 0.5895 0.7450
vn -0.3010 0.7786 0.5507
vn 0.5912 0.4242 0.6859
vn 0.8899 -0.0560 0.4527
vn 0.7661 0.2834 -0.5769
vn 0.1878 -0.9629 0.1936
vn 0.0244 -0.9974 -0.0683
vn -0.4403 -0.8974 0.0294
vn -0.3775 -0.9038 -0.2017
vn -0.3331 -0.8496 -0.4090
vn 0.6411 0.7668 -0.0334
vn 0.2408 0.7434 0.6240
vn -0.3968 0.3387 0.8531
vn -0.7202 -0.3276 0.6116
vn -0.1603 -0.9477 0.2761
vn 0.3280 -0.5848 0.7419
vn 0.3065 -0.9068 0.2896
vn -0.8582 -0.0112 -0.5132
vn -0.5520 -0.7085 -0.4397
vn -0.5668 -0.7363 -0.3697
vn -0.8667 -0.2211 -0.4472
vn -0.6440 -0.7382 -0.2007
vn -0.1865 -0.9822 -0.0220
vn -0.0017 -0.9993 -0.0382
vn 0.4992 -0.4014 0.7679
vn 0.3287 0.6020 0.7277
vn 0.0318 0.4049 0.9138
vn 0.0597 -0.4358 0.8981
vn -0.4010 0.8901 0.2165
vn -0.6754 0.5895 0.4431
vn -0.9568 0.2012 -0.2099
vn -0.8386 0.1857 -0.5121
vn -0.6698 0.6364 -0.3826
vn -0.3020 0.7852 -0.5406
vn -0.7459 0.2475 -0.6184
vn -0.7944 0.1856 -0.5783
vn 0.4408 0.4623 0.7694
vn -0.2727 0.2599 0.9263
vn -0.7377 0.1058 0.6668
vn -0.6808 0.1008 0.7255
vn -0.6667 0.2374 0.7065
vn -0.5993 0.2844 0.7483
vn -0.7090 0.3645 0.6037
vn 0.8405 -0.4678 0.2734
vn 0.2812 -0.9581 -0.0545
vn -0.5223 -0.8438 0.1231
vn 0.1052 -0.6911 0.7150
vn 0.1925 -0.9410 0.2783
vn -0.8041 -0.4233 -0.4175
vn -0.7840 -0.2296 -0.5767
vn -0.9125 0.2424 -0.3297
vn -0.9313 0.2414 -0.2726
vn -0.8623 0.4345 -0.2602
vn -0.7907 -0.3055 -0.5306
vn -0.3536 -0.8704 -0.3426
vn 0.2367 -0.8978 0.3713
vn 0.5367 -0.2331 0.8110
vn -0.7705 -0.0222 0.6371
vn -0.1185 0.5351 0.8364
vn 0.3380 0.6479 0.6826
vn -0.4718 -0.8520 -0.2270
vn -0.8826 -0.1614 -0.4415
vn -0.7010 0.6305 -0.3332
vn -0.8637 0.4550 0.2169
vn -0.6240 0.7569 0.1941
vn -0.5169 0.5199 0.6801
vn -0.2371 0.9614 0.1399
vn -0.6989 0.4387 0.5649
vn -0.1228 -0.9924 0.0050
vn -0.1679 -0.9851 -0.0382
vn -0.6553 -0.6870 -0.3140
vn -0.8447 0.0657 -0.5312
vn -0.8659 0.0812 -0.4937
vn -0.5578 -0.6447 -0.5227
vn -0.0738 -0.9789 -0.1904
vn -0.7454 -0.2040 -0.6346
vn -0.8274 0.5065 -0.2425
vn -0.4387 0.8292 0.3464
vn -0.6035 0.7921 0.0911
vn 0.3277 -0.9429 0.0588
vn 0.3054 -0.9508 -0.0528
vn -0.3824 -0.9240 0.0019
vn -0.5185 -0.3991 -0.7563
vn -0.7616 0.5908 -0.2664
vn -0.2022 0.7005 0.6844
vn -0.6368 0.3179 0.7025
vn -0.0302 -0.4313 0.9017
vn 0.4357 -0.3124 0.8441
vn -0.9971 0.0608 -0.0462
vn -0.6514 0.4065 0.6406
vn -0.8838 0.4408 0.1567
vn -0.7815 0.4815 0.3967
vn -0.2660 0.8542 0.4467
vn -0.8492 0.5251 -0.0554
vn -0.9902 -0.1199 -0.0722
vn -0.9302 -0.0569 -0.3625
vn -0.6612 -0.6912 -0.2917
vn -0.6588 -0.6234 -0.4212
vn -0.5866 -0.6351 -0.5026
vn -0.8764 0.0197 -0.4811
vn -0.7996 0.5854 -0.1340
vn -0.8625 0.0380 -0.5047
vn -0.7702 0.6181 -0.1570
vn -0.2981 0.8709 0.3906
vn -0.2833 0.8653 0.4135
vn 0.3872 0.5100 0.7681
vn 0.4637 0.4714 0.7501
vn 0.5467 0.4613 0.6988
vn 0.7459 -0.1419 0.6508
vn 0.8212 -0.0963 0.5625
vn 0.6308 -0.6464 0.4293
vn 0.7178 -0.5820 0.3822
vn 0.8369 -0.5009 0.2208
vn 0.0544 -0.9972 -0.0520
vn 0.1777 -0.9688 -0.1727
vn 0.0724 -0.9959 -0.0548
vn 0.6273 -0.6945 0.3524
vn 0.1188 -0.9817 -0.1488
vn -0.5385 -0.6578 -0.5266
vn 0.0574 -0.9934 -0.0995
vn -0.5495 -0.6813 -0.4836
vn -0.8617 0.0208 -0.5070
vn -0.7308 0.6509 -0.2055
vn -0.7394 0.6509 -0.1721
vn -0.2382 0.9241 0.2989
vn -0.2716 0.9005 0.3395
vn 0.3292 0.6354 0.6985
vn 0.3500 0.5823 0.7338
vn 0.6462 -0.0963 0.7571
vn 0.6888 -0.1045 0.7174
vn 0.7178 -0.1369 0.6827
vn 0.5605 -0.7307 0.3897
vn 0.4617 -0.7812 0.4202
vn 0.5828 -0.2010 0.7874
vn 0.3154 -0.8605 0.4000
vn -0.0395 -0.9584 0.2826
vn -0.8130 -0.4519 0.3672
vn -0.9467 0.1929 -0.2582
vn -0.7992 0.5516 -0.2388
vn -0.2622 0.9251 0.2746
vn 0.3268 0.6276 0.7067
vn -0.6394 0.3749 0.6713
vn -0.9664 0.2171 0.1377
vn -0.9291 0.3245 0.1776
vn -0.8738 0.2190 -0.4342
vn -0.9967 -0.0088 0.0805
vn -0.9948 -0.0854 -0.0548
vn -0.0152 0.6377 0.7701
vn 0.5192 -0.3004 0.8001
vn 0.1447 0.5823 0.8000
vn 0.5598 -0.2630 0.7858
vn 0.3945 -0.8987 0.1917
vn 0.5921 -0.1980 0.7812
vn 0.3716 -0.8792 0.2980
vn 0.4015 0.6293 0.6654
vn 0.2881 0.5891 0.7550
vn 0.6074 -0.1681 0.7764
vn 0.2902 -0.8783 0.3800
vn -0.1232 0.9687 0.2155
vn -0.2459 0.8932 0.3766
vn -0.6392 0.7072 -0.3022
vn -0.7217 0.6744 -0.1560
vn -0.0282 -0.9980 -0.0567
vn -0.8643 -0.5016 -0.0366
vn -0.3931 -0.9013 0.1820
vn -0.8375 -0.5066 0.2050
vn -0.9728 0.2284 0.0392
vn -0.8387 -0.5392 0.0759
vn -0.9733 0.1882 -0.1318
vn -0.6325 0.7519 -0.1858
vn -0.6058 0.7302 -0.3159
vn -0.8186 0.0808 -0.5686
vn -0.4891 0.6133 -0.6202
vn -0.1873 0.9161 -0.3545
vn -0.1007 0.9109 -0.4002
vn -0.0058 0.8412 -0.5408
vn -0.3609 0.5218 -0.7730
vn 0.0402 0.6894 -0.7233
vn 0.3979 0.8152 -0.4208
vn 0.5398 0.7685 -0.3435
vn 0.8430 0.3911 -0.3693
vn 0.9324 0.3505 -0.0881
vn 0.9421 -0.2776 -0.1881
vn 0.9557 -0.2600 0.1382
vn 0.6266 -0.7791 0.0183
vn 0.6398 -0.7344 0.2265
vn 0.6190 -0.7208 0.3119
vn 0.1526 -0.9783 0.1402
vn 0.1707 -0.9725 0.1582
vn -0.3216 -0.9322 0.1659
vn -0.2901 -0.9568 -0.0177
vn -0.7270 -0.6116 -0.3123
vn -0.5339 0.0796 -0.8418
vn 0.0548 -0.9976 0.0434
vn 0.5698 -0.7972 -0.1994
vn 0.8767 -0.2214 -0.4270
vn 0.7375 0.4287 -0.5218
vn 0.2835 0.8316 -0.4775
vn -0.4091 0.4305 0.8046
vn 0.3881 0.6222 0.6799
vn 0.9016 0.4324 0.0108
vn 0.9101 0.4120 -0.0445
vn 0.8080 0.1399 -0.5723
vn 0.3343 -0.1424 -0.9317
vn -0.6919 0.2647 0.6717
vn -0.0898 0.8185 0.5675
vn -0.0882 0.7788 0.6211
vn -0.5970 0.2210 0.7712
vn 0.5219 0.8530 0.0087
vn 0.6031 0.7866 0.1323
vn 0.7323 0.5835 -0.3512
vn 0.8577 0.4744 -0.1984
vn 0.7613 0.2378 -0.6033
vn 0.9127 0.0824 -0.4002
vn 0.5522 -0.3620 -0.7510
vn 0.7331 -0.4743 -0.4874
vn 0.0588 -0.8972 -0.4377
vn 0.2707 -0.9029 -0.3340
vn 0.6021 0.4170 0.6809
vn 0.4945 0.3136 0.8106
vn 0.3936 0.1038 0.9134
vn -0.2529 0.4570 0.8527
vn -0.3869 0.3964 0.8326
vn 0.8218 0.0789 0.5644
vn 0.9262 0.0754 0.3694
vn 0.9639 -0.0166 0.2656
vn 0.8127 0.1779 0.5549
vn 0.9947 0.0476 0.0907
vn 0.9997 -0.0233 -0.0028
vn 0.9733 -0.0533 -0.2232
vn 0.7636 -0.1729 -0.6221
vn 0.1221 -0.1856 -0.9750
vn 0.3001 -0.1564 -0.9410
vn -0.6405 -0.0232 -0.7676
vn -0.4827 -0.2330 -0.8442
vn 0.4977 -0.1098 -0.8603
vn -0.9897 -0.1094 -0.0926
vn -0.8905 -0.3226 -0.3209
vn -0.9235 -0.1807 0.3385
vn -0.6443 0.1337 0.7530
vn 0.1685 0.3652 0.9156
vn 0.0152 0.6058 0.7955
vn -0.8624 0.0786 0.5001
vn 0.0443 0.7695 0.6371
vn -0.5490 -0.8209 -0.1571
vn 0.3231 0.9070 0.2703
vn -0.8842 0.2456 0.3973
vn -0.2627 -0.9645 -0.0257
vn 0.9475 -0.2707 -0.1701
vn -0.2234 0.3268 -0.9183
f 1/1/1 2/2/2 3/3/3 4/4/4
f 5/5/5 6/6/6 7/7/7 8/8/8
f 9/9/9 8/8/8 7/7/7 10/10/10
f 11/11/11 12/12/12 7/13/7 6/14/6
f 13/15/13 10/10/10 7/7/7 12/16/12
f 14/17/14 15/18/15 16/19/16 17/20/17
f 18/21/18 19/22/19 16/23/16 15/24/15
f 20/25/20 17/26/17 16/23/16 19/22/19
f 21/27/21 14/28/14 17/26/17 20/25/20
f 21/27/21 20/25/20 19/22/19 18/21/18
f 22/29/22 23/30/23 24/31/24 25/32/25
f 26/33/26 27/34/27 24/35/24 28/36/28
f 29/37/29 25/32/25 24/31/24 27/38/27
f 30/39/30 28/40/28 24/31/24 31/41/31
f 32/42/32 31/41/31 24/31/24 23/30/23
f 33/43/33 34/44/34 27/34/27 26/33/26
f 35/45/35 29/46/29 27/34/27 36/47/36
f 37/48/37 36/47/36 27/34/27 34/44/34
f 38/49/38 39/50/39 40/51/40 41/52/41
f 42/53/42 41/54/41 40/55/40 43/56/43
f 44/57/44 43/56/43 40/55/40 39/58/39
f 45/59/45 42/53/42 43/56/43 44/57/44
f 46/60/46 47/61/47 48/62/48 49/63/49
f 46/60/46 50/64/50 51/65/51 47/61/47
f 52/66/52 47/61/47 51/65/51 53/67/53
f 54/68/54 53/69/53 51/70/51 50/71/50
f 55/72/55 50/71/50 46/73/46 49/74/49
f 56/75/56 55/72/55 49/74/49 48/76/48
f 57/77/57 58/78/58 59/79/59 60/80/60
f 61/81/61 60/82/60 59/83/59 62/84/62
f 63/85/63 62/84/62 59/83/59 58/86/58
f 64/87/64 58/78/58 57/77/57 65/88/65
f 66/89/66 65/88/65 57/77/57 60/80/60
f 67/90/67 64/87/64 65/88/65 66/89/66
f 61/81/61 67/91/67 66/92/66 60/82/60
f 68/93/68 69/94/69 70/95/70 71/96/71
f 72/97/72 73/98/73 70/95/70 69/94/69
f 74/99/74 71/96/71 70/95/70 75/100/75
f 76/101/76 75/102/75 70/103/70 77/104/77
f 78/105/78 77/106/77 70/95/70 73/98/73
f 79/107/79 72/97/72 69/94/69 80/108/80
f 81/109/81 82/110/82 69/94/69 68/93/68
f 83/111/83 80/108/80 69/94/69 82/110/82
f 54/68/54 84/112/84 78/113/78 53/69/53
f 52/114/52 53/69/53 78/113/78 73/115/73
f 85/116/85 77/117/77 78/113/78 86/118/86
f 87/119/87 86/118/86 78/113/78 84/112/84
f 54/68/54 79/120/79 80/121/80 84/112/84
f 88/122/88 89/123/89 80/121/80 83/124/83
f 87/119/87 84/112/84 80/121/80 89/123/89
f 90/125/90 91/126/91 92/127/92 85/116/85
f 93/128/93 94/129/94 92/130/92 95/131/95
f 96/132/96 95/133/95 92/127/92 91/126/91
f 97/134/97 98/135/98 99/136/99 100/137/100
f 101/138/101 100/137/100 99/136/99 102/139/102
f 103/140/103 102/139/102 99/136/99 104/141/104
f 105/142/105 106/143/106 99/136/99 98/135/98
f 107/144/107 104/141/104 99/136/99 106/143/106
f 108/145/108 109/146/109 110/147/110 111/148/111
f 112/149/112 111/148/111 110/147/110 113/150/113
f 107/144/107 113/150/113 110/147/110 104/141/104
f 103/140/103 104/141/104 110/147/110 114/151/114
f 115/152/115 114/151/114 110/147/110 109/146/109
f 116/153/116 117/154/117 118/155/118 119/156/119
f 120/157/120 119/156/119 118/155/118 121/158/121
f 122/159/122 121/160/121 118/161/118 117/162/117
f 97/134/97 123/163/123 124/164/124 125/165/125
f 126/166/126 125/165/125 124/164/124 127/167/127
f 128/168/128 127/167/127 124/164/124 123/163/123
f 129/169/129 116/153/116 119/156/119 120/157/120
f 121/158/121 126/170/126 130/171/130 120/157/120
f 127/172/127 131/173/131 130/171/130 126/170/126
f 129/169/129 120/157/120 130/171/130 131/173/131
f 132/174/132 109/146/109 108/145/108 133/175/133
f 134/176/134 91/177/91 90/178/90 135/179/135
f 86/118/86 136/180/136 90/125/90 85/116/85
f 137/181/137 135/179/135 90/178/90 138/182/138
f 139/183/139 140/184/140 141/185/141 142/186/142
f 143/187/143 144/188/144 141/185/141 145/189/145
f 146/190/146 147/191/147 141/185/141 144/188/144
f 148/192/148 142/186/142 141/185/141 147/191/147
f 96/193/96 149/194/149 150/195/150 95/196/95
f 151/197/151 152/198/152 150/199/150 149/200/149
f 153/201/153 154/202/154 150/199/150 152/198/152
f 93/128/93 95/131/95 150/199/150 155/203/155
f 156/204/156 155/203/155 150/199/150 154/202/154
f 157/205/157 158/206/158 159/207/159 160/208/160
f 152/198/152 151/197/151 159/209/159 161/210/161
f 162/211/162 161/210/161 159/209/159 158/212/158
f 36/47/36 163/213/163 164/214/164 35/45/35
f 165/215/165 166/216/166 164/214/164 163/213/163
f 167/217/167 168/218/168 138/219/138 169/220/169
f 136/180/136 169/221/169 138/222/138 90/125/90
f 170/223/170 171/224/171 138/219/138 168/218/168
f 172/225/172 137/226/137 138/219/138 171/224/171
f 173/227/173 174/228/174 164/214/164 166/216/166
f 38/49/38 35/45/35 164/214/164 174/228/174
f 175/229/175 176/230/176 177/231/177 178/232/178
f 179/233/179 157/205/157 177/231/177 176/230/176
f 160/208/160 178/232/178 177/231/177 157/205/157
f 136/180/136 180/234/180 181/235/181 169/221/169
f 167/217/167 169/220/169 181/236/181 182/237/182
f 183/238/183 184/239/184 181/235/181 180/234/180
f 185/240/185 186/241/186 181/236/181 184/242/184
f 187/243/187 182/237/182 181/236/181 186/241/186
f 88/122/88 188/244/188 183/238/183 89/123/89
f 87/119/87 89/123/89 183/238/183 180/234/180
f 189/245/189 190/246/190 183/238/183 188/244/188
f 191/247/191 184/248/184 183/249/183 190/250/190
f 153/201/153 152/198/152 161/210/161 192/251/192
f 193/252/193 192/253/192 161/254/161 194/255/194
f 195/256/195 194/257/194 161/258/161 162/259/162
f 196/260/196 197/261/197 198/262/198 199/263/199
f 200/264/200 199/263/199 198/262/198 201/265/201
f 202/266/202 203/267/203 198/262/198 197/261/197
f 204/268/204 201/265/201 198/262/198 203/267/203
f 144/188/144 143/187/143 200/269/200 205/270/205
f 206/271/206 172/225/172 200/269/200 143/187/143
f 204/268/204 205/272/205 200/264/200 201/265/201
f 207/273/207 146/190/146 208/274/208 209/275/209
f 160/276/160 209/275/209 208/274/208 178/277/178
f 144/188/144 205/270/205 208/274/208 146/190/146
f 204/268/204 210/278/210 208/279/208 205/272/205
f 175/229/175 178/232/178 208/279/208 210/278/210
f 211/280/211 179/233/179 176/230/176 175/229/175
f 171/224/171 212/281/212 200/269/200 172/225/172
f 213/282/213 199/263/199 200/264/200 212/283/212
f 214/284/214 215/285/215 216/286/216 217/287/217
f 218/288/218 217/287/217 216/286/216 219/289/219
f 220/290/220 219/289/219 216/286/216 215/285/215
f 220/290/220 215/285/215 221/291/221 222/292/222
f 214/284/214 223/293/223 221/291/221 215/285/215
f 224/294/224 222/295/222 221/296/221 223/297/223
f 225/298/225 223/293/223 214/284/214 217/287/217
f 226/299/226 227/300/227 228/301/228 229/302/229
f 225/298/225 229/302/229 228/301/228 230/303/230
f 231/304/231 230/303/230 228/301/228 227/300/227
f 232/305/232 202/266/202 233/306/233 234/307/234
f 233/306/233 202/266/202 197/261/197 196/260/196
f 235/308/235 236/309/236 162/259/162 158/310/158
f 237/311/237 238/312/238 162/259/162 236/309/236
f 239/313/239 195/256/195 162/259/162 238/312/238
f 240/314/240 203/267/203 202/266/202 232/305/232
f 241/315/241 242/316/242 186/317/186 185/318/185
f 243/319/243 187/320/187 186/321/186 244/322/244
f 245/323/245 244/324/244 186/317/186 242/316/242
f 246/325/246 247/326/247 175/229/175 210/278/210
f 248/327/248 211/280/211 175/229/175 247/326/247
f 165/215/165 249/328/249 250/329/250 166/216/166
f 173/227/173 166/216/166 250/329/250 191/247/191
f 251/330/251 252/331/252 250/329/250 249/328/249
f 241/315/241 185/318/185 250/332/250 252/333/252
f 184/334/184 191/335/191 250/332/250 185/318/185
f 253/336/253 254/337/254 255/338/255 256/339/256
f 257/340/257 256/339/256 255/338/255 258/341/258
f 259/342/259 258/341/258 255/338/255 254/337/254
f 260/343/260 261/344/261 262/345/262 263/346/263
f 264/347/264 265/348/265 262/345/262 261/344/261
f 266/349/266 267/350/267 213/351/213 268/352/268
f 269/353/269 268/352/268 213/351/213 212/354/212
f 196/260/196 199/263/199 213/282/213 270/355/270
f 271/356/271 270/355/270 213/282/213 267/357/267
f 272/358/272 273/359/273 248/360/248 247/361/247
f 274/362/274 275/363/275 248/360/248 273/359/273
f 276/364/276 277/365/277 248/360/248 275/363/275
f 278/366/278 211/367/211 248/360/248 277/365/277
f 279/368/279 280/369/280 252/370/252 251/371/251
f 281/372/281 282/373/282 252/374/252 280/375/280
f 283/376/283 241/315/241 252/333/252 282/377/282
f 267/357/267 284/378/284 285/379/285 271/356/271
f 286/380/286 271/356/271 285/379/285 287/381/287
f 288/382/288 287/381/287 285/379/285 289/383/289
f 244/324/244 245/323/245 285/384/285 284/385/284
f 290/386/290 289/387/289 285/384/285 245/323/245
f 291/388/291 283/376/283 282/377/282 292/389/292
f 293/390/293 294/391/294 282/373/282 281/372/281
f 295/392/295 292/393/292 282/373/282 294/391/294
f 296/394/296 297/395/297 289/387/289 290/386/290
f 298/396/298 288/397/288 289/398/289 297/399/297
f 299/400/299 300/401/300 294/402/294 301/403/301
f 302/404/302 295/392/295 294/391/294 300/405/300
f 303/406/303 301/403/301 294/402/294 293/407/293
f 304/408/304 305/409/305 306/410/306 296/394/296
f 307/411/307 308/412/308 306/410/306 309/413/309
f 310/414/310 309/413/309 306/410/306 305/409/305
f 2/2/2 1/1/1 311/415/311 312/416/312
f 313/417/313 312/416/312 311/415/311 314/418/314
f 315/419/315 316/420/316 311/421/311 1/422/1
f 317/423/317 318/424/318 311/415/311 316/425/316
f 319/426/319 314/418/314 311/415/311 318/424/318
f 320/427/320 321/428/321 322/429/322 323/430/323
f 316/420/316 323/430/323 322/429/322 317/431/317
f 324/432/324 317/431/317 322/429/322 321/428/321
f 319/433/319 324/432/324 321/428/321 320/427/320
f 325/434/325 303/406/303 326/435/326 327/436/327
f 328/437/328 237/311/237 326/435/326 329/438/329
f 236/309/236 327/436/327 326/435/326 237/311/237
f 293/439/293 330/440/330 326/441/326 303/442/303
f 331/443/331 329/444/329 326/441/326 330/440/330
f 332/445/332 333/446/333 331/443/331 330/440/330
f 334/447/334 335/448/335 331/443/331 333/446/333
f 336/449/336 329/444/329 331/443/331 335/448/335
f 337/450/337 338/451/338 336/449/336 335/448/335
f 339/452/339 340/453/340 336/454/336 338/455/338
f 328/437/328 329/438/329 336/454/336 340/453/340
f 341/456/341 342/457/342 340/453/340 339/452/339
f 343/458/343 328/437/328 340/453/340 342/457/342
f 237/311/237 328/437/328 343/458/343 238/312/238
f 344/459/344 345/460/345 343/458/343 342/457/342
f 239/313/239 238/312/238 343/458/343 345/460/345
f 346/461/346 347/462/347 345/460/345 344/459/344
f 348/463/348 239/313/239 345/460/345 347/462/347
f 195/256/195 239/313/239 348/463/348 279/464/279
f 349/465/349 350/466/350 348/467/348 347/468/347
f 280/369/280 279/368/279 348/467/348 350/466/350
f 333/446/333 332/445/332 350/466/350 349/465/349
f 281/469/281 280/369/280 350/466/350 332/445/332
f 346/470/346 351/471/351 349/465/349 347/468/347
f 334/447/334 333/446/333 349/465/349 351/471/351
f 352/472/352 353/473/353 351/471/351 346/470/346
f 354/474/354 334/447/334 351/471/351 353/473/353
f 355/475/355 356/476/356 354/474/354 353/473/353
f 357/477/357 337/450/337 354/474/354 356/476/356
f 335/448/335 334/447/334 354/474/354 337/450/337
f 254/337/254 253/336/253 357/477/357 356/476/356
f 358/478/358 359/479/359 357/480/357 253/481/253
f 338/482/338 337/483/337 357/480/357 359/479/359
f 360/484/360 361/485/361 359/479/359 358/478/358
f 339/486/339 338/482/338 359/479/359 361/485/361
f 362/487/362 363/488/363 361/485/361 360/484/360
f 341/456/341 339/452/339 361/489/361 363/490/363
f 364/491/364 365/492/365 363/488/363 362/487/362
f 366/493/366 341/456/341 363/490/363 365/494/365
f 342/457/342 341/456/341 366/493/366 344/459/344
f 367/495/367 352/496/352 366/493/366 365/494/365
f 346/461/346 344/459/344 366/493/366 352/496/352
f 364/491/364 368/497/368 367/498/367 365/492/365
f 259/342/259 355/475/355 367/499/367 368/500/368
f 353/473/353 352/472/352 367/499/367 355/475/355
f 369/501/369 370/502/370 368/497/368 364/491/364
f 258/341/258 259/342/259 368/500/368 370/503/370
f 260/343/260 371/504/371 370/502/370 369/501/369
f 257/340/257 258/341/258 370/503/370 371/505/371
f 263/346/263 372/506/372 371/504/371 260/343/260
f 373/507/373 257/508/257 371/504/371 372/506/372
f 256/509/256 257/508/257 373/507/373 374/510/374
f 265/348/265 264/347/264 373/507/373 372/506/372
f 375/511/375 374/510/374 373/507/373 264/347/264
f 358/478/358 374/510/374 375/511/375 360/484/360
f 261/344/261 376/512/376 375/511/375 264/347/264
f 362/487/362 360/484/360 375/511/375 376/512/376
f 260/343/260 369/501/369 376/512/376 261/344/261
f 364/491/364 362/487/362 376/512/376 369/501/369
f 253/481/253 256/509/256 374/510/374 358/478/358
f 259/342/259 254/337/254 356/476/356 355/475/355
f 293/439/293 281/469/281 332/445/332 330/440/330
f 276/364/276 377/513/377 325/434/325 277/365/277
f 301/403/301 303/406/303 325/434/325 377/513/377
f 278/366/278 277/365/277 325/434/325 327/436/327
f 378/514/378 379/515/379 377/513/377 276/364/276
f 299/400/299 301/403/301 377/513/377 379/515/379
f 380/516/380 286/380/286 379/517/379 378/518/378
f 287/381/287 299/519/299 379/517/379 286/380/286
f 196/260/196 270/355/270 380/516/380 233/306/233
f 271/356/271 286/380/286 380/516/380 270/355/270
f 381/520/381 233/306/233 380/516/380 378/518/378
f 234/307/234 233/306/233 381/520/381 382/521/382
f 276/364/276 275/363/275 381/522/381 378/514/378
f 274/362/274 382/523/382 381/522/381 275/363/275
f 226/299/226 234/307/234 382/521/382 227/300/227
f 231/304/231 227/300/227 382/521/382 274/524/274
f 235/308/235 278/366/278 327/436/327 236/309/236
f 314/418/314 319/426/319 320/525/320 383/526/383
f 384/527/384 383/528/383 320/427/320 323/430/323
f 385/529/385 383/528/383 384/527/384 386/530/386
f 316/420/316 315/419/315 384/527/384 323/430/323
f 387/531/387 386/530/386 384/527/384 315/419/315
f 388/532/388 386/530/386 387/531/387 389/533/389
f 1/422/1 4/534/4 387/531/387 315/419/315
f 310/414/310 389/533/389 387/531/387 4/534/4
f 390/535/390 391/536/391 388/532/388 392/537/392
f 385/529/385 386/530/386 388/532/388 391/536/391
f 393/538/393 392/537/392 388/532/388 389/533/389
f 292/389/292 392/537/392 393/538/393 291/388/291
f 310/414/310 305/409/305 393/538/393 389/533/389
f 304/408/304 291/388/291 393/538/393 305/409/305
f 394/539/394 395/540/395 391/541/391 390/542/390
f 313/417/313 385/543/385 391/541/391 395/540/395
f 396/544/396 397/545/397 395/540/395 394/539/394
f 312/416/312 313/417/313 395/540/395 397/545/397
f 308/412/308 307/411/307 397/546/397 396/547/396
f 2/2/2 312/416/312 397/545/397 307/548/307
f 297/399/297 308/549/308 396/544/396 298/396/298
f 302/404/302 298/396/298 396/544/396 394/539/394
f 295/392/295 302/404/302 394/539/394 390/542/390
f 292/389/292 295/550/295 390/535/390 392/537/392
f 314/418/314 383/526/383 385/543/385 313/417/313
f 3/551/3 309/413/309 310/414/310 4/534/4
f 3/3/3 2/2/2 307/548/307 309/552/309
f 283/376/283 291/388/291 304/408/304 398/553/398
f 290/386/290 398/553/398 304/408/304 296/394/296
f 241/315/241 283/376/283 398/553/398 242/316/242
f 245/323/245 242/316/242 398/553/398 290/386/290
f 288/397/288 298/396/298 302/404/302 300/405/300
f 287/381/287 288/382/288 300/554/300 299/519/299
f 243/319/243 244/322/244 284/555/284 399/556/399
f 266/349/266 399/556/399 284/555/284 267/350/267
f 400/557/400 243/319/243 399/556/399 401/558/401
f 402/559/402 401/558/401 399/556/399 266/349/266
f 403/560/403 401/558/401 402/559/402 404/561/404
f 268/352/268 405/562/405 402/559/402 266/349/266
f 406/563/406 404/561/404 402/559/402 405/562/405
f 407/564/407 404/561/404 406/563/406 408/565/408
f 409/566/409 410/567/410 406/563/406 405/562/405
f 411/568/411 408/565/408 406/563/406 410/567/410
f 412/569/412 408/565/408 411/568/411 413/570/413
f 414/571/414 415/572/415 411/568/411 410/567/410
f 11/11/11 413/570/413 411/568/411 415/572/415
f 416/573/416 417/574/417 415/572/415 414/571/414
f 12/12/12 11/11/11 415/572/415 417/574/417
f 418/575/418 419/576/419 417/574/417 416/573/416
f 13/577/13 12/12/12 417/574/417 419/576/419
f 420/578/420 421/579/421 419/580/419 418/581/418
f 422/582/422 13/15/13 419/580/419 421/579/421
f 423/583/423 424/584/424 421/579/421 420/578/420
f 9/9/9 422/582/422 421/579/421 424/584/424
f 425/585/425 426/586/426 424/587/424 423/588/423
f 8/8/8 9/9/9 424/584/424 426/589/426
f 403/560/403 427/590/427 426/586/426 425/585/425
f 5/5/5 8/8/8 426/589/426 427/591/427
f 404/561/404 407/564/407 427/590/427 403/560/403
f 428/592/428 5/5/5 427/591/427 407/593/407
f 429/594/429 400/557/400 425/585/425 423/588/423
f 401/558/401 403/560/403 425/585/425 400/557/400
f 420/578/420 430/595/430 429/596/429 423/583/423
f 182/237/182 187/243/187 429/596/429 430/595/430
f 243/319/243 400/557/400 429/594/429 187/320/187
f 418/581/418 431/597/431 430/595/430 420/578/420
f 167/217/167 182/237/182 430/595/430 431/597/431
f 416/598/416 432/599/432 431/597/431 418/581/418
f 168/218/168 167/217/167 431/597/431 432/599/432
f 414/600/414 433/601/433 432/599/432 416/598/416
f 170/223/170 168/218/168 432/599/432 433/601/433
f 410/567/410 409/566/409 433/602/433 414/571/414
f 269/353/269 170/603/170 433/602/433 409/566/409
f 268/352/268 269/353/269 409/566/409 405/562/405
f 412/569/412 428/604/428 407/564/407 408/565/408
f 194/257/194 195/256/195 279/464/279 251/605/251
f 179/606/179 211/367/211 278/366/278 235/308/235
f 434/607/434 231/608/231 274/362/274 273/359/273
f 230/609/230 231/608/231 434/607/434 224/294/224
f 272/358/272 435/610/435 434/607/434 273/359/273
f 222/295/222 224/294/224 434/607/434 435/610/435
f 436/611/436 437/612/437 435/610/435 272/358/272
f 220/613/220 222/295/222 435/610/435 437/612/437
f 240/314/240 438/614/438 437/615/437 436/616/436
f 219/289/219 220/290/220 437/615/437 438/614/438
f 232/305/232 439/617/439 438/614/438 240/314/240
f 218/288/218 219/289/219 438/614/438 439/617/439
f 234/307/234 226/299/226 439/617/439 232/305/232
f 229/302/229 218/288/218 439/617/439 226/299/226
f 247/326/247 246/325/246 436/616/436 272/618/272
f 203/267/203 240/314/240 436/616/436 246/325/246
f 171/224/171 170/223/170 269/619/269 212/281/212
f 193/252/193 194/255/194 251/330/251 249/328/249
f 440/620/440 193/252/193 249/328/249 165/215/165
f 441/621/441 442/622/442 440/620/440 443/623/443
f 192/253/192 193/252/193 440/620/440 442/622/442
f 163/213/163 443/623/443 440/620/440 165/215/165
f 444/624/444 445/625/445 442/626/442 441/627/441
f 153/201/153 192/251/192 442/626/442 445/625/445
f 446/628/446 447/629/447 445/625/445 444/624/444
f 154/202/154 153/201/153 445/625/445 447/629/447
f 448/630/448 449/631/449 447/629/447 446/628/446
f 156/204/156 154/202/154 447/629/447 449/631/449
f 450/632/450 451/633/451 449/631/449 448/630/448
f 189/245/189 156/204/156 449/631/449 451/633/451
f 452/634/452 453/635/453 451/636/451 450/637/450
f 190/246/190 189/245/189 451/633/451 453/638/453
f 174/228/174 173/227/173 453/635/453 452/634/452
f 191/247/191 190/250/190 453/635/453 173/227/173
f 38/49/38 174/228/174 452/634/452 39/50/39
f 44/57/44 39/58/39 452/639/452 450/632/450
f 45/59/45 44/57/44 450/632/450 448/630/448
f 22/29/22 45/59/45 448/630/448 446/628/446
f 23/30/23 22/29/22 446/628/446 444/624/444
f 32/42/32 23/30/23 444/624/444 441/627/441
f 37/48/37 32/640/32 441/621/441 443/623/443
f 36/47/36 37/48/37 443/623/443 163/213/163
f 204/268/204 203/267/203 246/325/246 210/278/210
f 157/205/157 179/233/179 235/641/235 158/206/158
f 223/293/223 225/298/225 230/303/230 224/642/224
f 217/287/217 218/288/218 229/302/229 225/298/225
f 454/643/454 455/644/455 207/273/207 209/275/209
f 456/645/456 457/646/457 207/273/207 455/644/455
f 147/191/147 146/190/146 207/273/207 457/646/457
f 132/647/132 458/648/458 457/646/457 456/645/456
f 148/192/148 147/191/147 457/646/457 458/648/458
f 133/175/133 112/149/112 458/649/458 132/174/132
f 113/150/113 148/650/148 458/649/458 112/149/112
f 459/651/459 115/152/115 456/652/456 455/653/455
f 109/146/109 132/174/132 456/652/456 115/152/115
f 460/654/460 461/655/461 459/651/459 462/656/462
f 114/151/114 115/152/115 459/651/459 461/655/461
f 454/643/454 462/657/462 459/658/459 455/644/455
f 463/659/463 464/660/464 461/655/461 460/654/460
f 103/140/103 114/151/114 461/655/461 464/660/464
f 134/176/134 465/661/465 464/660/464 463/659/463
f 102/139/102 103/140/103 464/660/464 465/661/465
f 135/179/135 466/662/466 465/661/465 134/176/134
f 101/138/101 102/139/102 465/661/465 466/662/466
f 137/181/137 467/663/467 466/662/466 135/179/135
f 468/664/468 101/138/101 466/662/466 467/663/467
f 206/665/206 469/666/469 468/664/468 467/663/467
f 470/667/470 471/668/471 468/664/468 469/666/469
f 100/137/100 101/138/101 468/664/468 471/668/471
f 128/168/128 123/163/123 471/668/471 470/667/470
f 97/134/97 100/137/100 471/668/471 123/163/123
f 145/189/145 472/669/472 470/670/470 469/671/469
f 473/672/473 128/673/128 470/670/470 472/669/472
f 140/184/140 474/674/474 473/672/473 472/669/472
f 129/169/129 131/173/131 473/672/473 474/674/474
f 127/172/127 128/673/128 473/672/473 131/173/131
f 139/183/139 475/675/475 474/674/474 140/184/140
f 116/153/116 129/169/129 474/674/474 475/675/475
f 106/676/106 105/677/105 475/675/475 139/183/139
f 117/154/117 116/153/116 475/675/475 105/677/105
f 141/185/141 140/184/140 472/669/472 145/189/145
f 143/187/143 145/189/145 469/671/469 206/271/206
f 172/225/172 206/271/206 467/678/467 137/226/137
f 91/177/91 134/176/134 463/659/463 96/193/96
f 149/194/149 96/193/96 463/659/463 460/654/460
f 151/679/151 149/194/149 460/654/460 462/656/462
f 159/680/159 151/681/151 462/657/462 454/643/454
f 160/276/160 159/680/159 454/643/454 209/275/209
f 155/203/155 156/204/156 189/245/189 188/244/188
f 93/128/93 155/203/155 188/244/188 88/122/88
f 86/118/86 87/119/87 180/234/180 136/180/136
f 107/682/107 142/186/142 148/192/148 113/683/113
f 107/682/107 106/676/106 139/183/139 142/186/142
f 122/159/122 125/165/125 126/166/126 121/160/121
f 98/135/98 97/134/97 125/165/125 122/159/122
f 105/142/105 98/135/98 122/159/122 117/162/117
f 82/110/82 476/684/476 94/685/94 83/111/83
f 76/101/76 92/686/92 94/687/94 476/688/476
f 88/122/88 83/124/83 94/129/94 93/128/93
f 81/109/81 477/689/477 476/684/476 82/110/82
f 75/102/75 76/101/76 476/688/476 477/690/477
f 478/691/478 479/692/479 477/690/477 81/693/81
f 74/694/74 75/102/75 477/690/477 479/692/479
f 67/91/67 61/81/61 479/692/479 478/691/478
f 62/84/62 74/694/74 479/692/479 61/81/61
f 64/87/64 67/90/67 478/695/478 480/696/480
f 68/93/68 480/696/480 478/695/478 81/109/81
f 58/78/58 64/87/64 480/696/480 63/697/63
f 71/96/71 63/697/63 480/696/480 68/93/68
f 77/104/77 85/698/85 92/686/92 76/101/76
f 50/71/50 55/72/55 79/120/79 54/68/54
f 56/699/56 72/97/72 79/107/79 55/700/55
f 63/697/63 71/96/71 74/99/74 62/701/62
f 56/699/56 52/66/52 73/98/73 72/97/72
f 47/61/47 52/66/52 56/699/56 48/62/48
f 25/32/25 42/53/42 45/59/45 22/29/22
f 29/37/29 41/54/41 42/53/42 25/32/25
f 29/46/29 35/45/35 38/49/38 41/52/41
f 31/41/31 32/42/32 37/702/37 34/703/34
f 30/39/30 31/41/31 34/703/34 33/704/33
f 481/705/481 30/39/30 33/704/33 482/706/482
f 483/707/483 482/708/482 33/43/33 26/33/26
f 18/21/18 482/708/482 483/707/483 21/27/21
f 28/40/28 484/709/484 483/710/483 26/711/26
f 14/28/14 21/27/21 483/707/483 484/712/484
f 30/39/30 481/705/481 484/709/484 28/40/28
f 15/18/15 14/17/14 484/709/484 481/705/481
f 18/21/18 15/24/15 481/713/481 482/708/482
f 485/714/485 413/570/413 11/11/11 6/14/6
f 412/569/412 413/570/413 485/714/485 428/604/428
f 422/582/422 9/9/9 10/10/10 13/15/13
f 112/149/112 133/175/133 108/145/108 111/148/111
f 372/506/372 263/346/263 262/345/262 265/348/265
f 306/410/306 308/412/308 297/395/297 296/394/296
f 319/426/319 318/424/318 317/423/317 324/715/324
f 485/716/485 6/6/6 5/5/5 428/592/428
