# split from a merged terrain OBJ by scripts/split-terrain-obj-parts.py
o part-014
v 0.688894 1.173582 -0.036231
v 0.686321 1.170069 -0.038506
v 0.689696 1.169634 -0.040060
v 0.692274 1.172326 -0.039626
v 0.693864 1.169266 -0.045578
v 0.689661 1.166525 -0.044106
v 0.684700 1.165707 -0.043018
v 0.685297 1.180148 -0.043435
v 0.685550 1.180166 -0.038218
v 0.688947 1.179368 -0.039519
v 0.690186 1.178838 -0.043524
v 0.693288 1.176218 -0.041316
v 0.690007 1.177303 -0.037111
v 0.686045 1.178201 -0.034315
v 0.681790 1.178853 -0.032874
v 0.676696 1.178443 -0.032983
v 0.676906 1.174197 -0.033275
v 0.680544 1.173830 -0.033553
v 0.672164 1.177513 -0.036370
v 0.673884 1.172483 -0.035174
v 0.678056 1.170414 -0.036495
v 0.680771 1.180457 -0.042399
v 0.676323 1.180145 -0.040456
v 0.677880 1.180380 -0.036627
v 0.681426 1.180599 -0.037082
v 0.679922 1.165957 -0.041913
v 0.674883 1.167105 -0.040053
v 0.670467 1.163460 -0.047147
v 0.677562 1.161793 -0.048471
v 0.670453 1.171151 -0.038560
v 0.667399 1.169795 -0.040982
v 0.675920 1.158781 -0.059114
v 0.669441 1.160271 -0.059033
v 0.663854 1.165260 -0.060736
v 0.663912 1.165878 -0.054534
v 0.661021 1.163170 -0.049179
v 0.669763 1.177567 -0.041587
v 0.667233 1.175781 -0.040386
v 0.664344 1.163645 -0.027731
v 0.667188 1.171764 -0.025671
v 0.667557 1.178178 -0.026138
v 0.662501 1.173186 -0.061417
v 0.664906 1.178217 -0.050587
v 0.674838 1.179569 -0.046250
v 0.668797 1.178306 -0.052856
v 0.655866 1.167964 -0.070718
v 0.653431 1.162002 -0.069109
v 0.647754 1.155452 -0.069426
v 0.655072 1.154956 -0.050741
v 0.659711 1.154613 -0.028536
v 0.666265 1.183667 -0.028725
v 0.650660 1.183950 -0.075430
v 0.657156 1.184367 -0.052938
v 0.655749 1.176599 -0.072263
v 0.659320 1.185671 -0.030327
v 0.667176 1.177209 -0.063237
v 0.681292 1.181339 -0.102386
v 0.680937 1.182534 -0.097205
v 0.688117 1.182384 -0.099693
v 0.689388 1.179608 -0.101690
v 0.680828 1.181199 -0.089271
v 0.688214 1.181046 -0.090997
v 0.693015 1.178839 -0.092545
v 0.690304 1.168588 -0.093790
v 0.686663 1.164102 -0.093952
v 0.684799 1.165234 -0.100688
v 0.686979 1.169800 -0.101963
v 0.680214 1.162328 -0.093394
v 0.679067 1.165272 -0.100387
v 0.680176 1.171367 -0.103187
v 0.673376 1.162156 -0.091767
v 0.671309 1.165399 -0.099665
v 0.666040 1.162919 -0.088676
v 0.664026 1.165402 -0.095131
v 0.660904 1.167496 -0.101625
v 0.664685 1.168698 -0.104682
v 0.673414 1.172581 -0.103306
v 0.666125 1.174175 -0.105080
v 0.666365 1.178753 -0.102679
v 0.659691 1.181232 -0.105495
v 0.658471 1.177763 -0.098332
v 0.665218 1.181912 -0.099553
v 0.648787 1.172935 -0.095189
v 0.655645 1.171246 -0.096932
v 0.645912 1.181191 -0.099602
v 0.646960 1.182711 -0.108581
v 0.665192 1.182356 -0.092951
v 0.659602 1.177311 -0.091942
v 0.659456 1.170177 -0.092194
v 0.628971 1.166133 -0.137905
v 0.628454 1.160634 -0.136764
v 0.624854 1.160230 -0.141702
v 0.624037 1.163584 -0.144068
v 0.618688 1.160740 -0.145062
v 0.621643 1.157123 -0.141803
v 0.625917 1.155429 -0.135541
v 0.612320 1.164486 -0.142777
v 0.612830 1.170540 -0.142961
v 0.616362 1.169521 -0.145464
v 0.617083 1.165217 -0.145731
v 0.622921 1.168379 -0.144924
v 0.620380 1.173376 -0.145065
v 0.615586 1.176915 -0.142125
v 0.655343 1.167686 -0.107155
v 0.651238 1.167909 -0.100942
v 0.647577 1.168629 -0.095573
v 0.637966 1.162469 -0.118703
v 0.645321 1.165632 -0.106668
v 0.643777 1.160961 -0.099969
v 0.636490 1.157043 -0.116880
v 0.631043 1.152905 -0.116354
v 0.637610 1.153161 -0.101200
v 0.649385 1.168080 -0.085407
v 0.647200 1.161950 -0.084555
v 0.641165 1.155972 -0.085252
v 0.628745 1.150547 -0.103083
v 0.619455 1.150443 -0.104884
v 0.618498 1.150690 -0.113798
v 0.623946 1.151388 -0.115709
v 0.619393 1.151499 -0.123413
v 0.613722 1.150830 -0.118604
v 0.610400 1.151075 -0.107646
v 0.635189 1.185072 -0.118741
v 0.631583 1.185759 -0.113673
v 0.626467 1.185904 -0.108725
v 0.640591 1.180298 -0.093094
v 0.648539 1.174067 -0.088074
v 0.640987 1.185285 -0.075838
v 0.630386 1.184857 -0.091654
v 0.652160 1.182879 0.039656
v 0.651816 1.177420 0.040598
v 0.666347 1.178728 0.022350
v 0.662216 1.186516 0.020794
v 0.669329 1.182334 -0.002992
v 0.669162 1.174774 -0.002787
v 0.666961 1.166080 -0.002565
v 0.664746 1.168698 0.024011
v 0.649691 1.170770 0.041824
v 0.637648 1.185871 -0.052996
v 0.629094 1.185877 -0.074996
v 0.618749 1.185662 -0.067949
v 0.623857 1.185446 -0.050361
v 0.618067 1.185728 -0.086663
v 0.608112 1.185909 -0.071674
v 0.608138 1.185743 -0.047536
v 0.634451 1.186358 0.061056
v 0.630760 1.186386 0.056991
v 0.625882 1.186377 0.061677
v 0.626781 1.186104 0.066328
v 0.626054 1.186462 0.053098
v 0.621039 1.186528 0.059545
v 0.618561 1.185588 0.065385
v 0.618931 1.178221 0.068742
v 0.622067 1.173482 0.066132
v 0.628311 1.175657 0.067004
v 0.628850 1.179675 0.069590
v 0.635070 1.180041 0.063742
v 0.632565 1.174652 0.063437
v 0.627385 1.169192 0.062018
v 0.609852 1.186187 0.014840
v 0.614861 1.186284 0.025618
v 0.620971 1.185990 0.021543
v 0.620692 1.185554 0.012582
v 0.632471 1.185595 0.013861
v 0.627137 1.186074 0.027643
v 0.621589 1.186383 0.035569
v 0.571273 1.178091 -0.013210
v 0.571739 1.171067 -0.014404
v 0.573858 1.170888 0.005685
v 0.576505 1.177476 0.006199
v 0.576028 1.164425 -0.015850
v 0.578102 1.164442 0.000077
v 0.573364 1.163224 0.006863
v 0.572399 1.169145 0.017318
v 0.580021 1.179076 0.022391
v 0.579232 1.172837 0.023922
v 0.581289 1.167701 0.026767
v 0.584261 1.157560 -0.003129
v 0.581948 1.159095 0.005547
v 0.580072 1.160809 0.010794
v 0.572198 1.161657 0.010248
v 0.565941 1.166983 0.016320
v 0.564901 1.165558 0.006706
v 0.565062 1.160658 0.010101
v 0.561036 1.165780 0.016064
v 0.562574 1.161904 0.020082
v 0.568787 1.162067 0.019862
v 0.570722 1.161062 0.015843
v 0.564230 1.160334 0.015914
v 0.557864 1.163461 0.015452
v 0.560754 1.166056 0.009297
v 0.560530 1.161166 0.010687
v 0.583556 1.162065 0.024924
v 0.575567 1.163253 0.019319
v 0.577978 1.162094 0.016264
v 0.586695 1.158188 0.019708
v 0.600725 1.156211 0.029818
v 0.595607 1.161274 0.034840
v 0.592326 1.167287 0.037473
v 0.590053 1.174229 0.037966
v 0.607782 1.161985 0.048972
v 0.602895 1.168625 0.050471
v 0.600682 1.175724 0.050209
v 0.590633 1.181037 0.037248
v 0.600065 1.182146 0.049464
v 0.613027 1.170821 0.061766
v 0.609445 1.177202 0.063235
v 0.607449 1.183100 0.063155
v 0.602771 1.186198 0.047831
v 0.610213 1.186848 0.059563
v 0.617858 1.183044 0.068792
v 0.627836 1.184350 0.070280
v 0.635680 1.184371 0.063560
v 0.642894 1.178431 0.056142
v 0.644337 1.183671 0.055508
v 0.642168 1.186215 0.052777
v 0.650265 1.185424 0.038382
v 0.645198 1.185801 0.036280
v 0.637711 1.186171 0.048901
v 0.639587 1.185914 0.034433
v 0.632531 1.186233 0.045391
v 0.633748 1.185977 0.031938
v 0.627184 1.186320 0.041461
v 0.620812 1.186528 0.048289
v 0.615099 1.186521 0.041051
v 0.608734 1.186509 0.045053
v 0.615042 1.186684 0.054251
v 0.607816 1.186073 0.029851
v 0.601418 1.185956 0.032827
v 0.595102 1.184839 0.035238
v 0.592868 1.186059 0.019141
v 0.585140 1.184061 0.020808
v 0.587964 1.185416 0.003484
v 0.580827 1.183789 0.005141
v 0.581148 1.185966 -0.016182
v 0.574519 1.184409 -0.013972
v 0.573989 1.186216 -0.043515
v 0.566882 1.184538 -0.042601
v 0.563070 1.177673 -0.041913
v 0.572073 1.183683 -0.076050
v 0.569266 1.176724 -0.076183
v 0.569637 1.168750 -0.075577
v 0.564470 1.170124 -0.041339
v 0.572438 1.160709 -0.074690
v 0.569182 1.162818 -0.041000
v 0.579740 1.153934 -0.072060
v 0.577704 1.155659 -0.040666
v 0.583212 1.158099 -0.018123
v 0.591406 1.152671 -0.042217
v 0.595870 1.153696 -0.020774
v 0.596635 1.152501 -0.004863
v 0.593144 1.153337 0.006913
v 0.615629 1.150594 -0.023285
v 0.616454 1.150815 -0.003489
v 0.612212 1.151435 0.012832
v 0.589742 1.155828 0.014311
v 0.606293 1.152540 0.023503
v 0.637278 1.149607 -0.001417
v 0.632083 1.152371 0.019174
v 0.622893 1.153402 0.033776
v 0.614977 1.156311 0.043487
v 0.645762 1.155117 0.023675
v 0.635643 1.156602 0.040441
v 0.626509 1.160283 0.051469
v 0.618521 1.165030 0.058136
v 0.643848 1.164166 0.042336
v 0.634823 1.166209 0.055091
v 0.640303 1.172502 0.056541
v 0.657106 1.159426 0.024980
v 0.652317 1.151010 -0.000735
v 0.662535 1.156522 -0.002093
v 0.650119 1.149811 -0.027839
v 0.636307 1.149632 -0.025415
v 0.631831 1.149947 -0.047471
v 0.645100 1.150533 -0.049832
v 0.626039 1.150075 -0.068242
v 0.638007 1.150945 -0.069593
v 0.621785 1.150499 -0.087539
v 0.632424 1.151926 -0.086930
v 0.608390 1.150521 -0.067014
v 0.608924 1.150646 -0.089526
v 0.591343 1.151697 -0.068932
v 0.597936 1.151784 -0.093759
v 0.603230 1.151872 -0.111419
v 0.589776 1.155783 -0.097738
v 0.596638 1.153680 -0.115961
v 0.603715 1.153050 -0.127211
v 0.608678 1.150974 -0.122799
v 0.610608 1.154196 -0.133747
v 0.614914 1.152057 -0.129195
v 0.616175 1.154218 -0.138886
v 0.620724 1.152504 -0.133255
v 0.625459 1.152844 -0.125973
v 0.629975 1.156162 -0.127297
v 0.632524 1.161511 -0.128483
v 0.633407 1.167626 -0.129674
v 0.638593 1.168506 -0.120425
v 0.646886 1.168908 -0.111967
v 0.633174 1.173914 -0.130857
v 0.638649 1.174783 -0.121490
v 0.648120 1.173792 -0.115142
v 0.659256 1.171005 -0.112006
v 0.638127 1.180698 -0.121281
v 0.647987 1.179096 -0.114431
v 0.659605 1.177206 -0.110712
v 0.631221 1.180224 -0.131178
v 0.627163 1.184351 -0.129120
v 0.622240 1.185527 -0.124856
v 0.625723 1.177006 -0.139212
v 0.621080 1.181270 -0.137281
v 0.615548 1.183698 -0.132634
v 0.615855 1.186148 -0.118751
v 0.608598 1.185434 -0.125678
v 0.609586 1.179469 -0.137725
v 0.603217 1.181238 -0.130782
v 0.600539 1.185755 -0.116547
v 0.594606 1.182711 -0.121297
v 0.607572 1.172107 -0.138246
v 0.600225 1.173845 -0.132720
v 0.591563 1.175348 -0.123277
v 0.584126 1.182638 -0.103378
v 0.580672 1.176483 -0.104109
v 0.599638 1.165812 -0.132133
v 0.591550 1.167202 -0.122196
v 0.580959 1.168683 -0.102997
v 0.592665 1.159577 -0.119810
v 0.584275 1.161912 -0.100838
v 0.600536 1.158471 -0.130470
v 0.606888 1.164951 -0.137910
v 0.607843 1.158975 -0.136593
v 0.613230 1.159046 -0.141856
v 0.579102 1.186001 -0.075232
v 0.590804 1.185604 -0.101128
v 0.586554 1.185966 -0.073896
v 0.598467 1.185998 -0.098094
v 0.607805 1.186155 -0.110515
v 0.607428 1.185997 -0.093648
v 0.617558 1.186059 -0.103045
v 0.595950 1.186021 -0.072704
v 0.593391 1.185621 -0.045577
v 0.582412 1.186034 -0.044327
v 0.599027 1.186114 -0.021964
v 0.588766 1.186260 -0.019024
v 0.618441 1.184691 -0.003698
v 0.613840 1.185575 -0.025057
v 0.604792 1.185956 -0.001074
v 0.595148 1.185902 0.001343
v 0.600623 1.186323 0.017517
v 0.633465 1.184918 -0.004974
v 0.629969 1.185566 -0.027845
v 0.643869 1.185679 -0.005258
v 0.642677 1.185521 -0.030097
v 0.652316 1.185704 -0.005788
v 0.651541 1.185524 -0.030685
v 0.648093 1.185306 -0.053715
v 0.659278 1.185915 -0.004988
v 0.658920 1.186353 0.019771
v 0.665520 1.186093 -0.003960
v 0.653385 1.186122 0.018263
v 0.647416 1.185891 0.016599
v 0.640551 1.185718 0.015427
v 0.628181 1.171655 -0.138912
v 0.610956 1.151224 -0.044640
v 0.660638 1.167827 -0.085766
v 0.660378 1.175732 -0.085129
v 0.665825 1.180822 -0.086015
v 0.661716 1.165943 -0.078848
v 0.661125 1.173801 -0.078061
v 0.666103 1.179009 -0.078651
v 0.673202 1.181186 -0.087555
v 0.673398 1.179864 -0.079969
v 0.661669 1.172571 -0.070449
v 0.666361 1.177973 -0.071078
v 0.673412 1.178622 -0.072252
v 0.680829 1.179837 -0.081063
v 0.680362 1.178533 -0.072964
v 0.673696 1.177715 -0.064148
v 0.680069 1.177545 -0.064369
v 0.687162 1.178118 -0.073198
v 0.686262 1.177081 -0.064244
v 0.674206 1.178373 -0.055347
v 0.679945 1.178157 -0.055897
v 0.685846 1.177689 -0.055794
v 0.691697 1.175495 -0.063771
v 0.691652 1.176245 -0.055423
v 0.680190 1.179604 -0.048329
v 0.685494 1.179171 -0.049078
v 0.691233 1.177839 -0.049043
v 0.693768 1.171511 -0.054750
v 0.694726 1.173905 -0.047410
v 0.690932 1.165588 -0.062728
v 0.693143 1.171131 -0.063345
v 0.692240 1.166661 -0.053466
v 0.691970 1.165567 -0.073607
v 0.694302 1.171646 -0.073392
v 0.693257 1.176887 -0.073128
v 0.694568 1.172829 -0.083544
v 0.693844 1.178860 -0.082787
v 0.687946 1.179620 -0.082184
v 0.692169 1.173717 -0.093350
v 0.688484 1.174842 -0.102202
v 0.692122 1.166883 -0.084032
v 0.688008 1.161655 -0.084319
v 0.687880 1.160540 -0.073420
v 0.681482 1.159607 -0.083816
v 0.681875 1.157964 -0.072661
v 0.687170 1.161286 -0.061496
v 0.681993 1.158765 -0.060038
v 0.675211 1.157600 -0.071810
v 0.688585 1.163003 -0.051493
v 0.683226 1.161799 -0.049867
v 0.667421 1.160479 -0.080818
v 0.674709 1.159581 -0.082493
v 0.668224 1.159140 -0.070990
v 0.662782 1.164774 -0.070392
v 0.681127 1.176773 -0.103071
v 0.673397 1.178689 -0.102832
v 0.672970 1.183182 -0.100517
v 0.673008 1.182403 -0.094807
v 0.682260 1.169921 -0.037531
v 0.684805 1.173819 -0.034359
vt 0.010930 0.774958
vt 0.011462 0.772287
vt 0.013407 0.772843
vt 0.013708 0.774687
vt 0.017436 0.773737
vt 0.016078 0.771652
vt 0.014082 0.769754
vt 0.013986 0.781715
vt 0.011381 0.780385
vt 0.012508 0.778974
vt 0.014725 0.779148
vt 0.014234 0.776773
vt 0.011654 0.777274
vt 0.009448 0.778623
vt 0.948231 0.385722
vt 0.948494 0.383314
vt 0.950793 0.384078
vt 0.950920 0.385651
vt 0.949230 0.381584
vt 0.952088 0.382905
vt 0.953448 0.384734
vt 0.012775 0.783838
vt 0.011141 0.785689
vt 0.009390 0.783664
vt 0.010113 0.781984
vt 0.007942 0.780473
vt 0.007163 0.783098
vt 0.008275 0.786588
vt 0.957199 0.386302
vt 0.956170 0.383762
vt 0.960384 0.381551
vt 0.961289 0.385741
vt 0.954133 0.381444
vt 0.955439 0.380073
vt 0.967092 0.385060
vt 0.966827 0.381217
vt 0.967125 0.376794
vt 0.963620 0.376547
vt 0.959405 0.376797
vt 0.950790 0.379613
vt 0.952344 0.378620
vt 0.245036 0.190191
vt 0.250373 0.200756
vt 0.244547 0.197683
vt 0.242306 0.191483
vt 0.606085 0.024059
vt 0.605542 0.021429
vt 0.615071 0.021555
vt 0.615751 0.024160
vt 0.676040 0.018256
vt 0.674477 0.017301
vt 0.678472 0.015272
vt 0.682130 0.014150
vt 0.013959 0.787383
vt 0.010820 0.789428
vt 0.621329 0.029231
vt 0.617639 0.023707
vt 0.622090 0.027119
vt 0.959923 0.370302
vt 0.957422 0.370911
vt 0.261975 0.208194
vt 0.257462 0.209919
vt 0.255905 0.199406
vt 0.250531 0.188760
vt 0.606254 0.027227
vt 0.636444 0.039099
vt 0.622035 0.034873
vt 0.636802 0.034429
vt 0.607442 0.031035
vt 0.678673 0.017591
vt 0.682107 0.014747
vt 0.637982 0.030223
vt 0.628271 0.025651
vt 0.673265 0.027776
vt 0.672942 0.026958
vt 0.676160 0.024932
vt 0.676708 0.025061
vt 0.674131 0.024787
vt 0.677474 0.023039
vt 0.679937 0.022173
vt 0.987143 0.393095
vt 0.986361 0.390140
vt 0.990005 0.388674
vt 0.991870 0.391459
vt 0.985848 0.386300
vt 0.990078 0.385356
vt 0.675158 0.029570
vt 0.677867 0.026387
vt 0.678509 0.027589
vt 0.676783 0.030674
vt 0.984799 0.382386
vt 0.989356 0.380819
vt 0.982985 0.378169
vt 0.986633 0.376701
vt 0.990342 0.374634
vt 0.992223 0.376583
vt 0.675079 0.033214
vt 0.672709 0.032055
vt 0.669206 0.035697
vt 0.671566 0.036660
vt 0.666387 0.034666
vt 0.663360 0.037951
vt 0.660022 0.035193
vt 0.664827 0.033239
vt 0.653432 0.037751
vt 0.657445 0.033669
vt 0.654208 0.043504
vt 0.659549 0.044843
vt 0.665046 0.031612
vt 0.662012 0.031904
vt 0.660104 0.030904
vt 0.278368 0.242699
vt 0.280502 0.240318
vt 0.283538 0.241880
vt 0.283140 0.243864
vt 0.288270 0.242511
vt 0.286185 0.240588
vt 0.282989 0.238137
vt 0.679180 0.084733
vt 0.676997 0.080816
vt 0.678877 0.078440
vt 0.680963 0.079627
vt 0.680400 0.072980
vt 0.677692 0.074019
vt 0.674848 0.076098
vt 0.984926 0.372885
vt 0.987759 0.371115
vt 0.263203 0.231171
vt 0.260406 0.231467
vt 0.260981 0.228043
vt 0.264130 0.227922
vt 0.263595 0.225268
vt 0.261434 0.224777
vt 0.272530 0.233237
vt 0.267687 0.228959
vt 0.268073 0.224356
vt 0.274631 0.230982
vt 0.277711 0.229392
vt 0.272639 0.222612
vt 0.260390 0.219104
vt 0.263408 0.217010
vt 0.267625 0.215443
vt 0.277413 0.222273
vt 0.282207 0.221473
vt 0.284009 0.225892
vt 0.281448 0.227846
vt 0.284980 0.230883
vt 0.287246 0.227443
vt 0.287314 0.221405
vt 0.663022 0.055818
vt 0.659684 0.056912
vt 0.655580 0.058359
vt 0.648431 0.045134
vt 0.647700 0.038729
vt 0.636334 0.044860
vt 0.645647 0.052471
vt 0.560235 0.028116
vt 0.558145 0.025063
vt 0.572617 0.020054
vt 0.573935 0.024677
vt 0.589864 0.022401
vt 0.589708 0.019287
vt 0.589493 0.015550
vt 0.571455 0.014459
vt 0.555303 0.021663
vt 0.620394 0.045879
vt 0.634324 0.051807
vt 0.629051 0.057642
vt 0.617523 0.053781
vt 0.641125 0.059880
vt 0.630753 0.065049
vt 0.614587 0.062999
vt 0.544835 0.038441
vt 0.547084 0.041115
vt 0.543631 0.044048
vt 0.540987 0.043070
vt 0.549408 0.044420
vt 0.544639 0.047362
vt 0.540498 0.048652
vt 0.255874 0.128636
vt 0.255402 0.132081
vt 0.251543 0.132443
vt 0.250608 0.130017
vt 0.247271 0.132342
vt 0.248713 0.134983
vt 0.253233 0.135992
vt 0.572883 0.057670
vt 0.566251 0.053796
vt 0.569573 0.050126
vt 0.575463 0.050947
vt 0.575698 0.043419
vt 0.566151 0.045678
vt 0.560463 0.048665
vt 0.587543 0.088003
vt 0.586418 0.093361
vt 0.574146 0.087127
vt 0.575181 0.082447
vt 0.294391 0.169263
vt 0.291114 0.160783
vt 0.294136 0.158755
vt 0.298029 0.167090
vt 0.983992 0.778694
vt 0.983694 0.788516
vt 0.978853 0.779622
vt 0.979446 0.775935
vt 0.565400 0.078164
vt 0.562444 0.082210
vt 0.559137 0.084973
vt 0.566439 0.089535
vt 0.286867 0.164046
vt 0.286283 0.159194
vt 0.290166 0.157163
vt 0.286714 0.155942
vt 0.290907 0.154273
vt 0.988948 0.788053
vt 0.987796 0.781313
vt 0.989681 0.778437
vt 0.985965 0.776044
vt 0.990777 0.784794
vt 0.992971 0.785280
vt 0.990990 0.789039
vt 0.291624 0.151254
vt 0.291173 0.149402
vt 0.292445 0.147943
vt 0.293694 0.149464
vt 0.991803 0.782856
vt 0.994372 0.780327
vt 0.989475 0.782146
vt 0.990973 0.780555
vt 0.282864 0.148906
vt 0.284797 0.145710
vt 0.288806 0.148176
vt 0.287665 0.150879
vt 0.292690 0.146251
vt 0.287050 0.152764
vt 0.281755 0.152532
vt 0.273207 0.149311
vt 0.275699 0.145209
vt 0.278255 0.141990
vt 0.550052 0.078723
vt 0.553438 0.074579
vt 0.267059 0.140007
vt 0.270549 0.136721
vt 0.545496 0.067196
vt 0.541745 0.070568
vt 0.556199 0.070358
vt 0.548680 0.063709
vt 0.535300 0.061222
vt 0.536955 0.059533
vt 0.540682 0.057094
vt 0.550544 0.060465
vt 0.543818 0.054636
vt 0.534395 0.048986
vt 0.537589 0.048951
vt 0.536441 0.040436
vt 0.538679 0.041791
vt 0.541081 0.034981
vt 0.543087 0.037018
vt 0.547143 0.030549
vt 0.549507 0.032789
vt 0.551089 0.034737
vt 0.561195 0.030050
vt 0.562184 0.033299
vt 0.553230 0.037514
vt 0.562854 0.037024
vt 0.555184 0.040934
vt 0.564039 0.040947
vt 0.557201 0.044627
vt 0.552030 0.048243
vt 0.556168 0.052585
vt 0.552906 0.056594
vt 0.547601 0.051725
vt 0.562793 0.058095
vt 0.560299 0.062178
vt 0.558299 0.066491
vt 0.568901 0.067789
vt 0.568300 0.073190
vt 0.578777 0.072530
vt 0.577002 0.077483
vt 0.591101 0.077922
vt 0.589038 0.082789
vt 0.608341 0.084534
vt 0.607717 0.089393
vt 0.606382 0.095394
vt 0.629252 0.090679
vt 0.629606 0.096221
vt 0.629044 0.102425
vt 0.604552 0.101208
vt 0.305165 0.198834
vt 0.301351 0.181091
vt 0.305819 0.179540
vt 0.308854 0.197555
vt 0.299490 0.198852
vt 0.295599 0.182805
vt 0.289811 0.171830
vt 0.288608 0.185589
vt 0.283300 0.175121
vt 0.280392 0.167010
vt 0.280050 0.160400
vt 0.273431 0.179261
vt 0.269973 0.169185
vt 0.269553 0.160167
vt 0.280872 0.155905
vt 0.271024 0.153814
vt 0.258918 0.171297
vt 0.258157 0.159996
vt 0.260910 0.151137
vt 0.263689 0.144813
vt 0.249874 0.159925
vt 0.252958 0.149795
vt 0.256089 0.142209
vt 0.259534 0.136802
vt 0.246528 0.149488
vt 0.250135 0.141172
vt 0.241484 0.150173
vt 0.245627 0.140476
vt 0.544578 0.027517
vt 0.538652 0.031914
vt 0.243031 0.161611
vt 0.236034 0.163305
vt 0.250928 0.173258
vt 0.244904 0.175991
vt 0.239109 0.177628
vt 0.256173 0.186653
vt 0.263218 0.183279
vt 0.268245 0.194117
vt 0.261562 0.197307
vt 0.274026 0.204000
vt 0.267756 0.206502
vt 0.278865 0.213175
vt 0.273005 0.214502
vt 0.283298 0.200737
vt 0.286125 0.212181
vt 0.292709 0.199133
vt 0.292788 0.212565
vt 0.291889 0.222113
vt 0.298362 0.213333
vt 0.296265 0.223380
vt 0.294047 0.229882
vt 0.290546 0.228660
vt 0.291665 0.234636
vt 0.288372 0.232941
vt 0.289209 0.237951
vt 0.285783 0.235894
vt 0.281985 0.233322
vt 0.279211 0.235186
vt 0.276634 0.237278
vt 0.274190 0.239514
vt 0.269585 0.235365
vt 0.266665 0.231822
vt 0.673326 0.060522
vt 0.668991 0.053720
vt 0.673976 0.054871
vt 0.677394 0.058695
vt 0.265743 0.234386
vt 0.268719 0.238170
vt 0.262452 0.234450
vt 0.665892 0.054468
vt 0.663579 0.046293
vt 0.666575 0.046164
vt 0.666188 0.039737
vt 0.669761 0.040502
vt 0.670343 0.062373
vt 0.667707 0.064271
vt 0.664649 0.066064
vt 0.674605 0.067699
vt 0.671974 0.070319
vt 0.668367 0.072485
vt 0.660358 0.068182
vt 0.663124 0.074896
vt 0.670860 0.078332
vt 0.665865 0.080506
vt 0.656812 0.077883
vt 0.659032 0.083624
vt 0.673229 0.083669
vt 0.668161 0.086287
vt 0.661087 0.089551
vt 0.647435 0.087092
vt 0.647949 0.092417
vt 0.669994 0.092269
vt 0.662151 0.095493
vt 0.648692 0.098321
vt 0.662686 0.101744
vt 0.649625 0.103959
vt 0.631433 0.108172
vt 0.303321 0.214341
vt 0.300420 0.225009
vt 0.671390 0.097809
vt 0.297405 0.231451
vt 0.675356 0.088907
vt 0.677301 0.092977
vt 0.294795 0.236218
vt 0.682008 0.086508
vt 0.292190 0.239873
vt 0.683321 0.079249
vt 0.629596 0.085174
vt 0.646625 0.081250
vt 0.629719 0.079536
vt 0.645585 0.075270
vt 0.654119 0.071314
vt 0.643855 0.068286
vt 0.650585 0.062690
vt 0.629666 0.072915
vt 0.611347 0.071824
vt 0.609925 0.079188
vt 0.596610 0.066700
vt 0.593697 0.073172
vt 0.586139 0.053559
vt 0.599975 0.057759
vt 0.583119 0.061905
vt 0.580584 0.067839
vt 0.570382 0.063097
vt 0.588132 0.044341
vt 0.603252 0.047898
vt 0.589325 0.038076
vt 0.605802 0.040659
vt 0.590377 0.033054
vt 0.606915 0.035558
vt 0.621901 0.039934
vt 0.590418 0.028824
vt 0.574192 0.026685
vt 0.590250 0.025379
vt 0.574671 0.030077
vt 0.575226 0.033734
vt 0.575479 0.038133
vt 0.677117 0.066020
vt 0.679141 0.065890
vt 0.682588 0.072280
vt 0.259791 0.233140
vt 0.278851 0.189724
vt 0.262361 0.132756
vt 0.261737 0.129115
vt 0.991313 0.775874
vt 0.606828 0.016081
vt 0.647601 0.034855
vt 0.653152 0.035847
vt 0.255982 0.212694
vt 0.981435 0.373878
vt 0.664863 0.028718
vt 0.662320 0.026885
vt 0.667309 0.028625
vt 0.665277 0.025265
vt 0.667762 0.025457
vt 0.669851 0.025766
vt 0.670730 0.026824
vt 0.672685 0.024368
vt 0.672206 0.021411
vt 0.675180 0.020783
vt 0.676688 0.020616
vt 0.675886 0.022544
vt 0.678503 0.019853
vt 0.678601 0.018350
vt 0.680378 0.017232
vt 0.680883 0.018168
vt 0.683602 0.015853
vt 0.018706 0.788839
vt 0.019816 0.785889
vt 0.024180 0.786824
vt 0.023467 0.790305
vt 0.020562 0.782709
vt 0.024895 0.783456
vt 0.025215 0.780145
vt 0.021146 0.779353
vt 0.015835 0.785129
vt 0.016990 0.782386
vt 0.017797 0.779239
vt 0.021847 0.776444
vt 0.017687 0.776400
vt 0.026676 0.774122
vt 0.026083 0.777558
vt 0.021722 0.773566
vt 0.975953 0.394896
vt 0.976760 0.398410
vt 0.971291 0.398634
vt 0.970010 0.395365
vt 0.977280 0.401364
vt 0.972169 0.401182
vt 0.982312 0.397667
vt 0.983033 0.400713
vt 0.679632 0.020420
vt 0.683728 0.016010
vt 0.682128 0.018670
vt 0.029747 0.781834
vt 0.028859 0.784573
vt 0.987791 0.395923
vt 0.988341 0.398686
vt 0.992959 0.394264
vt 0.992903 0.396841
vt 0.981601 0.394455
vt 0.980987 0.390897
vt 0.975011 0.391443
vt 0.980436 0.387236
vt 0.974406 0.387799
vt 0.968532 0.392165
vt 0.967698 0.388616
vt 0.973762 0.384082
vt 0.962990 0.391813
vt 0.961698 0.389001
vt 0.019195 0.768273
vt 0.021151 0.770554
vt 0.957387 0.388831
vt 0.027027 0.770988
vt 0.978625 0.379373
vt 0.979664 0.383462
vt 0.973279 0.380119
vt 0.977500 0.374959
vt 0.972692 0.375697
vt 0.670358 0.020873
vt 0.673527 0.028856
vt 0.676184 0.026378
vt 0.670760 0.031479
vt 0.669656 0.030354
vt 0.669338 0.028875
vt 0.682274 0.014958
vt 0.017014 0.791555
vt 0.953952 0.386785
vt 0.953929 0.388810
vt 0.951370 0.389002
vt 0.950925 0.387463
vt 0.008686 0.775861
vt 0.948496 0.387434
vn 0.5061 -0.3270 0.7981
vn 0.2419 -0.7011 0.6707
vn 0.4057 -0.6790 0.6118
vn 0.7452 -0.3262 0.5816
vn 0.8596 -0.4588 0.2248
vn 0.4597 -0.7774 0.4293
vn 0.1871 -0.8207 0.5399
vn 0.1480 0.9846 -0.0935
vn 0.2491 0.9481 0.1978
vn 0.4405 0.8793 0.1812
vn 0.4841 0.8749 -0.0179
vn 0.8761 0.3784 0.2986
vn 0.6610 0.4251 0.6184
vn 0.4137 0.4449 0.7943
vn 0.1456 0.4907 0.8591
vn -0.3200 0.4821 0.8156
vn -0.2193 -0.3201 0.9217
vn 0.0902 -0.4221 0.9020
vn -0.6971 0.4833 0.5297
vn -0.4794 -0.3832 0.7895
vn -0.0290 -0.7056 0.7081
vn -0.0067 0.9969 -0.0790
vn -0.2478 0.9678 0.0433
vn -0.2054 0.9537 0.2198
vn 0.0535 0.9778 0.2028
vn 0.0580 -0.8161 0.5749
vn -0.1526 -0.7624 0.6288
vn -0.2022 -0.8996 0.3872
vn -0.0310 -0.9179 0.3956
vn -0.4992 -0.3355 0.7989
vn 0.4973 -0.6872 0.5296
vn -0.0811 -0.9785 0.1897
vn -0.4338 -0.8816 0.1861
vn -0.8776 -0.4533 0.1562
vn -0.0786 -0.9946 -0.0677
vn 0.6579 -0.7484 -0.0839
vn -0.4366 0.8251 0.3587
vn 0.7710 0.4895 0.4073
vn 0.8922 -0.4454 -0.0744
vn 0.9779 -0.2040 -0.0451
vn 0.9815 0.1791 -0.0672
vn -0.9351 0.3485 0.0645
vn 0.2675 0.9490 -0.1667
vn -0.1641 0.9853 -0.0471
vn -0.2650 0.9635 -0.0371
vn 0.8789 -0.2741 -0.3904
vn 0.7575 -0.5718 -0.3150
vn 0.5886 -0.7705 -0.2446
vn 0.6388 -0.7442 -0.1953
vn 0.6909 -0.7180 -0.0843
vn 0.6883 0.7169 -0.1105
vn 0.5194 0.8001 -0.3002
vn 0.4130 0.8965 -0.1601
vn 0.8726 0.2767 -0.4024
vn 0.1951 0.9780 -0.0742
vn -0.3659 0.9306 -0.0090
vn 0.0564 0.6535 -0.7548
vn 0.0683 0.9975 -0.0186
vn 0.2899 0.9404 -0.1775
vn 0.6029 0.4572 -0.6538
vn 0.0472 0.9854 0.1634
vn 0.2538 0.9628 0.0923
vn 0.8700 0.4659 -0.1614
vn 0.8418 -0.4387 -0.3145
vn 0.5207 -0.7923 -0.3179
vn 0.3400 -0.6991 -0.6290
vn 0.5261 -0.3423 -0.7785
vn 0.0672 -0.9482 -0.3106
vn -0.0054 -0.7248 -0.6889
vn 0.0224 -0.1947 -0.9806
vn -0.1231 -0.9454 -0.3017
vn -0.0426 -0.7935 -0.6070
vn -0.4649 -0.8638 -0.1941
vn -0.4303 -0.8880 -0.1622
vn -0.1350 -0.9874 -0.0821
vn 0.2985 -0.6903 -0.6590
vn 0.0912 -0.1394 -0.9860
vn 0.4950 0.0923 -0.8640
vn 0.1532 0.6632 -0.7326
vn 0.2797 0.9287 -0.2434
vn -0.3456 0.8272 0.4431
vn -0.2462 0.9517 -0.1835
vn 0.7504 0.1730 0.6380
vn -0.3637 -0.4810 0.7977
vn 0.2705 0.8893 0.3689
vn 0.2616 0.9576 -0.1207
vn -0.3359 0.9325 0.1326
vn -0.8341 0.4986 0.2359
vn -0.9091 -0.3813 0.1679
vn 0.8370 -0.0911 -0.5396
vn 0.8083 -0.3512 -0.4726
vn 0.6478 -0.3970 -0.6502
vn 0.5535 -0.1793 -0.8133
vn -0.0215 -0.3916 -0.9199
vn 0.2911 -0.6716 -0.6814
vn 0.5734 -0.7181 -0.3943
vn -0.5936 -0.1268 -0.7947
vn -0.5457 0.1639 -0.8218
vn -0.2796 0.1336 -0.9508
vn -0.1970 -0.0941 -0.9759
vn 0.4638 0.0694 -0.8832
vn 0.1733 0.3859 -0.9061
vn -0.2145 0.5760 -0.7888
vn 0.1361 -0.9570 -0.2560
vn 0.3350 -0.9085 0.2500
vn 0.8582 -0.4987 0.1216
vn 0.8076 -0.4197 -0.4142
vn 0.6367 -0.7365 -0.2283
vn 0.7796 -0.6135 -0.1260
vn 0.7389 -0.5990 -0.3085
vn 0.4376 -0.8771 -0.1979
vn 0.5446 -0.8333 -0.0948
vn 0.9317 -0.2236 -0.2862
vn 0.8179 -0.5200 -0.2463
vn 0.5831 -0.7993 -0.1457
vn 0.1833 -0.9824 -0.0357
vn 0.0101 -0.9998 -0.0177
vn 0.0192 -0.9988 -0.0457
vn 0.1437 -0.9850 -0.0952
vn 0.0997 -0.9903 -0.0966
vn -0.0066 -0.9990 -0.0448
vn -0.0685 -0.9976 -0.0100
vn 0.3266 0.9164 -0.2313
vn 0.1086 0.9930 0.0473
vn 0.1161 0.9923 0.0436
vn 0.4368 0.8986 -0.0404
vn 0.9303 0.2797 -0.2371
vn 0.1389 0.9829 -0.1211
vn 0.1574 0.9855 -0.0630
vn 0.7286 0.5165 0.4499
vn 0.8274 -0.0220 0.5612
vn 0.9259 0.0919 0.3665
vn 0.6903 0.6676 0.2789
vn 0.9047 0.4258 0.0167
vn 0.9972 -0.0669 0.0333
vn 0.9314 -0.3614 0.0435
vn 0.8614 -0.3174 0.3965
vn 0.7323 -0.3559 0.5805
vn 0.0136 0.9999 -0.0010
vn 0.0228 0.9995 -0.0208
vn 0.0014 1.0000 0.0074
vn -0.0015 1.0000 0.0066
vn 0.0298 0.9996 -0.0029
vn 0.0095 0.9999 0.0061
vn 0.0101 0.9999 0.0014
vn 0.2131 0.9503 0.2271
vn 0.0133 0.9999 0.0044
vn -0.0114 0.9986 0.0512
vn 0.0345 0.9486 0.3147
vn 0.0204 0.9998 -0.0025
vn 0.0043 0.9985 0.0553
vn -0.1401 0.9209 0.3638
vn -0.2439 -0.3141 0.9175
vn -0.0513 -0.5831 0.8108
vn 0.3000 -0.5290 0.7939
vn 0.3441 -0.2533 0.9041
vn 0.6513 -0.1816 0.7368
vn 0.4967 -0.4729 0.7278
vn 0.2002 -0.6716 0.7134
vn 0.0259 0.9994 -0.0241
vn 0.0100 0.9998 -0.0177
vn 0.0232 0.9991 -0.0355
vn 0.0257 0.9988 -0.0425
vn -0.0112 0.9995 -0.0308
vn 0.0168 0.9995 -0.0258
vn 0.0122 0.9998 -0.0173
vn -0.9316 0.2700 0.2435
vn -0.9303 -0.3027 0.2072
vn -0.9981 0.0543 0.0275
vn -0.8913 0.4032 0.2073
vn -0.7393 -0.6551 0.1557
vn -0.7876 -0.6087 -0.0959
vn -0.7073 -0.4448 -0.5494
vn -0.5986 0.6467 0.4726
vn -0.8180 0.4722 0.3286
vn -0.8324 0.3226 0.4507
vn -0.7270 -0.1768 0.6635
vn -0.5246 -0.8506 -0.0362
vn -0.4922 -0.8671 -0.0770
vn -0.3248 -0.9453 0.0311
vn -0.0530 -0.9700 -0.2371
vn -0.0732 0.9270 0.3679
vn -0.2074 0.3442 -0.9157
vn -0.1552 -0.8830 -0.4429
vn -0.6654 0.6353 0.3920
vn -0.3464 -0.1971 0.9171
vn -0.0046 -0.3755 0.9268
vn 0.0994 -0.9795 0.1751
vn -0.1836 -0.9527 0.2422
vn -0.9425 -0.3140 0.1144
vn -0.5847 0.5804 -0.5668
vn -0.6885 -0.5910 -0.4203
vn -0.5314 -0.6753 0.5114
vn -0.3457 -0.6235 0.7012
vn -0.2158 -0.9585 0.1864
vn -0.3981 -0.8852 0.2406
vn -0.3151 -0.8931 0.3212
vn -0.4988 -0.7102 0.4968
vn -0.6748 -0.3855 0.6293
vn -0.7727 -0.0314 0.6339
vn -0.4050 -0.7384 0.5392
vn -0.6386 -0.4636 0.6142
vn -0.7755 -0.1725 0.6073
vn -0.7327 0.4611 0.5006
vn -0.7820 0.3716 0.5004
vn -0.4164 -0.5547 0.7204
vn -0.6180 -0.2842 0.7330
vn -0.6733 0.3284 0.6624
vn -0.3785 0.9087 0.1763
vn -0.2859 0.9171 0.2778
vn -0.3130 0.3689 0.8752
vn 0.2031 0.4472 0.8711
vn 0.5960 0.4620 0.6567
vn 0.7630 -0.1713 0.6233
vn 0.7554 0.3708 0.5403
vn 0.3223 0.9282 0.1859
vn 0.2582 0.9536 0.1547
vn 0.0149 0.9999 0.0017
vn 0.0258 0.9996 -0.0136
vn 0.0079 0.9999 -0.0099
vn 0.0227 0.9997 -0.0128
vn 0.0135 0.9998 -0.0166
vn 0.0225 0.9997 -0.0136
vn 0.0151 0.9999 -0.0083
vn -0.0051 0.9999 -0.0161
vn -0.0412 0.9990 -0.0166
vn 0.0044 0.9999 0.0137
vn -0.0156 0.9999 -0.0034
vn -0.0851 0.9962 0.0209
vn -0.3881 0.8987 0.2041
vn -0.1294 0.9908 0.0404
vn -0.4714 0.8655 0.1695
vn -0.1308 0.9907 0.0383
vn -0.5276 0.8372 0.1440
vn -0.1183 0.9917 0.0507
vn -0.5680 0.8033 0.1788
vn -0.1382 0.9904 -0.0002
vn -0.6504 0.7593 0.0204
vn -0.9849 0.1666 0.0470
vn -0.6480 0.7324 -0.2089
vn -0.9473 0.1625 -0.2760
vn -0.9285 -0.2724 -0.2524
vn -0.9473 -0.3125 0.0701
vn -0.7740 -0.6005 -0.2008
vn -0.7719 -0.6288 0.0939
vn -0.4644 -0.8797 -0.1022
vn -0.4637 -0.8800 0.1027
vn -0.4870 -0.8678 0.0992
vn -0.1634 -0.9846 0.0618
vn -0.2061 -0.9781 0.0291
vn -0.2323 -0.9726 -0.0093
vn -0.2859 -0.9570 0.0485
vn -0.0830 -0.9965 0.0016
vn -0.0703 -0.9972 0.0257
vn -0.0676 -0.9949 0.0750
vn -0.3583 -0.9241 0.1329
vn -0.1573 -0.9727 0.1705
vn 0.0281 -0.9967 0.0762
vn 0.0674 -0.9885 0.1350
vn 0.0171 -0.9753 0.2204
vn -0.1577 -0.9055 0.3939
vn 0.2882 -0.9192 0.2683
vn 0.2770 -0.8842 0.3760
vn 0.1370 -0.8421 0.5217
vn -0.1394 -0.7453 0.6520
vn 0.5376 -0.6689 0.5134
vn 0.4306 -0.6765 0.5975
vn 0.6460 -0.4298 0.6308
vn 0.6090 -0.6943 0.3835
vn 0.2786 -0.9538 0.1121
vn 0.7004 -0.7089 0.0829
vn 0.2522 -0.9672 -0.0316
vn -0.0044 -1.0000 -0.0028
vn -0.0042 -0.9999 -0.0128
vn 0.2342 -0.9679 -0.0913
vn 0.0220 -0.9995 -0.0206
vn 0.2475 -0.9618 -0.1172
vn 0.0282 -0.9995 -0.0106
vn 0.2338 -0.9716 -0.0359
vn -0.0537 -0.9985 0.0095
vn -0.0559 -0.9983 -0.0166
vn -0.1592 -0.9871 -0.0142
vn -0.1916 -0.9796 -0.0602
vn -0.2034 -0.9783 -0.0393
vn -0.4954 -0.8496 -0.1808
vn -0.5154 -0.8349 -0.1931
vn -0.4076 -0.8359 -0.3675
vn -0.1213 -0.9848 -0.1246
vn -0.3374 -0.8281 -0.4477
vn -0.0425 -0.9809 -0.1900
vn -0.1528 -0.8370 -0.5254
vn 0.1734 -0.9508 -0.2566
vn 0.3351 -0.9254 -0.1770
vn 0.6763 -0.6577 -0.3317
vn 0.8448 -0.3272 -0.4234
vn 0.8731 -0.1248 -0.4713
vn 0.7806 -0.2944 -0.5513
vn 0.4599 -0.6888 -0.5604
vn 0.8393 0.0886 -0.5365
vn 0.7445 -0.0275 -0.6670
vn 0.4480 -0.2053 -0.8701
vn 0.4273 -0.4192 -0.8011
vn 0.6476 0.4808 -0.5912
vn 0.4567 0.5027 -0.7339
vn 0.5020 0.4059 -0.7637
vn 0.6590 0.4989 -0.5628
vn 0.2813 0.8801 -0.3825
vn 0.0437 0.9855 -0.1640
vn 0.5279 0.5062 -0.6820
vn 0.1445 0.8088 -0.5701
vn -0.0756 0.9168 -0.3921
vn 0.0047 0.9980 -0.0638
vn -0.1410 0.9560 -0.2573
vn -0.3975 0.6088 -0.6866
vn -0.4613 0.6746 -0.5763
vn -0.1817 0.9706 -0.1578
vn -0.5407 0.7174 -0.4392
vn -0.6080 0.1591 -0.7778
vn -0.6653 0.1850 -0.7233
vn -0.7867 0.2017 -0.5835
vn -0.6094 0.7248 -0.3214
vn -0.8805 0.1872 -0.4355
vn -0.7019 -0.1385 -0.6987
vn -0.8252 -0.1883 -0.5325
vn -0.8813 -0.2383 -0.4081
vn -0.7658 -0.5030 -0.4006
vn -0.7651 -0.5576 -0.3220
vn -0.6507 -0.4679 -0.5980
vn -0.6454 -0.1192 -0.7545
vn -0.5832 -0.4577 -0.6711
vn -0.4664 -0.4782 -0.7442
vn -0.1647 0.9839 -0.0694
vn -0.1878 0.9765 -0.1053
vn 0.0018 1.0000 -0.0037
vn -0.0177 0.9998 -0.0073
vn -0.0167 0.9998 -0.0142
vn 0.0130 0.9999 0.0074
vn 0.0664 0.9977 0.0093
vn 0.0065 1.0000 0.0051
vn 0.0139 0.9999 -0.0032
vn 0.0110 0.9999 -0.0031
vn 0.0263 0.9996 -0.0031
vn -0.0042 1.0000 0.0069
vn 0.0292 0.9995 -0.0108
vn 0.0212 0.9997 0.0079
vn 0.0342 0.9993 -0.0118
vn -0.0222 0.9997 0.0028
vn -0.0187 0.9998 0.0003
vn -0.0229 0.9997 -0.0040
vn -0.0093 0.9999 0.0138
vn -0.0216 0.9998 -0.0057
vn -0.0025 1.0000 0.0027
vn -0.0179 0.9998 -0.0098
vn 0.0147 0.9998 -0.0152
vn 0.0675 0.9973 -0.0277
vn 0.0198 0.9995 -0.0243
vn 0.1930 0.9772 0.0883
vn 0.4189 0.9075 -0.0295
vn -0.0175 0.9998 0.0019
vn -0.0155 0.9999 -0.0074
vn -0.0146 0.9998 -0.0153
vn 0.7680 0.1420 -0.6245
vn -0.0707 -0.9973 0.0211
vn -0.9123 -0.4092 0.0180
vn -0.9030 0.3808 0.1988
vn -0.3479 0.9092 0.2287
vn -0.8991 -0.4373 0.0177
vn -0.9344 0.3220 0.1521
vn -0.4062 0.8928 0.1949
vn 0.0120 0.9833 0.1817
vn -0.0133 0.9850 0.1720
vn -0.9522 0.2845 0.1110
vn -0.4272 0.8953 0.1262
vn -0.0234 0.9909 0.1329
vn 0.0450 0.9854 0.1641
vn 0.0460 0.9891 0.1399
vn -0.0217 0.9996 0.0194
vn 0.0502 0.9985 0.0239
vn 0.1325 0.9782 0.1601
vn 0.1603 0.9864 0.0368
vn -0.0592 0.9946 -0.0849
vn 0.0382 0.9916 -0.1233
vn 0.1630 0.9770 -0.1377
vn 0.6900 0.7215 0.0578
vn 0.6426 0.7530 -0.1418
vn 0.0047 0.9877 -0.1565
vn 0.1473 0.9728 -0.1788
vn 0.5500 0.8205 -0.1559
vn 0.9943 0.0336 -0.1016
vn 0.9766 0.2152 -0.0026
vn 0.8506 -0.5252 0.0255
vn 0.9989 -0.0358 0.0309
vn 0.8444 -0.5357 0.0077
vn 0.8622 -0.5062 0.0190
vn 0.9931 -0.0909 0.0735
vn 0.7129 0.6804 0.1696
vn 0.9864 -0.1360 -0.0925
vn 0.7516 0.6577 0.0505
vn 0.1410 0.9787 0.1494
vn 0.9354 -0.1840 -0.3020
vn 0.5933 -0.0941 -0.7995
vn 0.8614 -0.4863 -0.1467
vn 0.5600 -0.8069 -0.1879
vn 0.5913 -0.8063 -0.0126
vn 0.1412 -0.9671 -0.2116
vn 0.2042 -0.9782 -0.0369
vn 0.5771 -0.8129 0.0782
vn 0.2161 -0.9649 0.1490
vn -0.0908 -0.9954 -0.0308
vn 0.5215 -0.8308 0.1943
vn 0.1977 -0.9193 0.3403
vn -0.4560 -0.8796 -0.1353
vn -0.1024 -0.9730 -0.2069
vn -0.4661 -0.8846 0.0169
vn -0.8850 -0.4594 0.0758
vn 0.0582 0.1037 -0.9929
vn -0.0054 0.3075 -0.9515
vn -0.0350 0.8748 -0.4833
vn 0.0105 0.9958 0.0907
vn 0.1366 -0.7214 0.6789
vn 0.2890 -0.4009 0.8693
f 1/1/1 2/2/2 3/3/3 4/4/4
f 5/5/5 4/4/4 3/3/3 6/6/6
f 7/7/7 6/6/6 3/3/3 2/2/2
f 8/8/8 9/9/9 10/10/10 11/11/11
f 12/12/12 11/11/11 10/10/10 13/13/13
f 14/14/14 13/13/13 10/10/10 9/9/9
f 15/15/15 16/16/16 17/17/17 18/18/18
f 19/19/19 20/20/20 17/17/17 16/16/16
f 21/21/21 18/18/18 17/17/17 20/20/20
f 22/22/22 23/23/23 24/24/24 25/25/25
f 15/26/15 25/25/25 24/24/24 16/27/16
f 19/28/19 16/27/16 24/24/24 23/23/23
f 26/29/26 27/30/27 28/31/28 29/32/29
f 30/33/30 31/34/31 28/31/28 27/30/27
f 32/35/32 29/32/29 28/31/28 33/36/33
f 34/37/34 33/36/33 28/31/28 35/38/35
f 36/39/36 35/38/35 28/31/28 31/34/31
f 37/40/37 38/41/38 31/34/31 30/33/30
f 39/42/39 36/43/36 31/44/31 40/45/40
f 41/46/41 40/47/40 31/48/31 38/49/38
f 42/50/42 34/51/34 35/52/35 43/53/43
f 20/20/20 19/19/19 37/40/37 30/33/30
f 23/23/23 44/54/44 37/55/37 19/28/19
f 43/56/43 38/49/38 37/57/37 45/58/45
f 46/59/46 35/38/35 36/39/36 47/60/47
f 48/61/48 47/62/47 36/43/36 49/63/49
f 50/64/50 49/63/49 36/43/36 39/42/39
f 41/46/41 38/49/38 43/56/43 51/65/51
f 52/66/52 53/67/53 43/56/43 54/68/54
f 55/69/55 51/65/51 43/56/43 53/67/53
f 56/70/56 42/50/42 43/53/43 45/71/45
f 46/72/46 54/68/54 43/56/43 35/73/35
f 57/74/57 58/75/58 59/76/59 60/77/60
f 61/78/61 62/79/62 59/76/59 58/75/58
f 63/80/63 60/77/60 59/76/59 62/79/62
f 64/81/64 65/82/65 66/83/66 67/84/67
f 68/85/68 69/86/69 66/83/66 65/82/65
f 70/87/70 67/88/67 66/89/66 69/90/69
f 68/85/68 71/91/71 72/92/72 69/86/69
f 73/93/73 74/94/74 72/92/72 71/91/71
f 75/95/75 76/96/76 72/92/72 74/94/74
f 70/87/70 69/90/69 72/97/72 77/98/77
f 78/99/78 77/98/77 72/97/72 76/100/76
f 79/101/79 80/102/80 81/103/81 82/104/82
f 83/105/83 84/106/84 81/103/81 85/107/85
f 86/108/86 85/107/85 81/103/81 80/102/80
f 87/109/87 82/104/82 81/103/81 88/110/88
f 89/111/89 88/110/88 81/103/81 84/106/84
f 90/112/90 91/113/91 92/114/92 93/115/93
f 94/116/94 93/115/93 92/114/92 95/117/95
f 96/118/96 95/117/95 92/114/92 91/113/91
f 97/119/97 98/120/98 99/121/99 100/122/100
f 101/123/101 100/122/100 99/121/99 102/124/102
f 103/125/103 102/124/102 99/121/99 98/120/98
f 74/94/74 89/126/89 84/127/84 75/95/75
f 104/128/104 75/129/75 84/130/84 105/131/105
f 106/132/106 105/131/105 84/130/84 83/133/83
f 107/134/107 108/135/108 109/136/109 110/137/110
f 111/138/111 110/137/110 109/136/109 112/139/112
f 105/131/105 106/132/106 109/136/109 108/135/108
f 113/140/113 114/141/114 109/136/109 106/132/106
f 115/142/115 112/139/112 109/136/109 114/141/114
f 116/143/116 117/144/117 118/145/118 119/146/119
f 120/147/120 119/146/119 118/145/118 121/148/121
f 122/149/122 121/148/121 118/145/118 117/144/117
f 123/150/123 124/151/124 85/107/85 86/108/86
f 125/152/125 126/153/126 85/107/85 124/151/124
f 127/154/127 83/105/83 85/107/85 126/153/126
f 54/68/54 127/154/127 126/153/126 52/66/52
f 128/155/128 52/66/52 126/153/126 129/156/129
f 130/157/130 131/158/131 132/159/132 133/160/133
f 134/161/134 133/160/133 132/159/132 135/162/135
f 136/163/136 135/162/135 132/159/132 137/164/137
f 138/165/138 137/164/137 132/159/132 131/158/131
f 139/166/139 140/167/140 141/168/141 142/169/142
f 143/170/143 144/171/144 141/168/141 140/167/140
f 145/172/145 142/169/142 141/168/141 144/171/144
f 146/173/146 147/174/147 148/175/148 149/176/149
f 150/177/150 151/178/151 148/175/148 147/174/147
f 152/179/152 149/176/149 148/175/148 151/178/151
f 153/180/153 154/181/154 155/182/155 156/183/156
f 157/184/157 156/183/156 155/182/155 158/185/158
f 159/186/159 158/185/158 155/182/155 154/181/154
f 160/187/160 161/188/161 162/189/162 163/190/163
f 164/191/164 163/190/163 162/189/162 165/192/165
f 166/193/166 165/192/165 162/189/162 161/188/161
f 167/194/167 168/195/168 169/196/169 170/197/170
f 171/198/171 172/199/172 169/200/169 168/201/168
f 173/202/173 174/203/174 169/204/169 172/205/172
f 175/206/175 170/197/170 169/196/169 176/207/176
f 177/208/177 176/207/176 169/196/169 174/209/174
f 178/210/178 179/211/179 173/212/173 172/199/172
f 180/213/180 181/214/181 173/212/173 179/211/179
f 182/215/182 174/203/174 173/202/173 183/216/183
f 184/217/184 183/216/183 173/202/173 181/218/181
f 182/215/182 185/219/185 186/220/186 187/221/187
f 188/222/188 187/223/187 186/224/186 189/225/189
f 190/226/190 189/227/189 186/220/186 185/219/185
f 182/215/182 183/216/183 191/228/191 185/219/185
f 184/217/184 192/229/192 191/228/191 183/216/183
f 190/226/190 185/219/185 191/228/191 192/229/192
f 189/227/189 190/226/190 192/229/192 184/217/184
f 193/230/193 177/231/177 174/232/174 194/233/194
f 187/223/187 194/233/194 174/232/174 182/234/182
f 195/235/195 196/236/196 193/230/193 194/233/194
f 197/237/197 198/238/198 193/230/193 196/236/196
f 199/239/199 177/231/177 193/230/193 198/238/198
f 176/207/176 177/208/177 199/240/199 200/241/200
f 201/242/201 202/243/202 199/239/199 198/238/198
f 203/244/203 200/241/200 199/240/199 202/245/202
f 204/246/204 200/241/200 203/244/203 205/247/205
f 206/248/206 207/249/207 203/244/203 202/245/202
f 208/250/208 205/247/205 203/244/203 207/249/207
f 209/251/209 205/247/205 208/250/208 210/252/210
f 153/253/153 211/254/211 208/250/208 207/249/207
f 152/179/152 210/252/210 208/250/208 211/254/211
f 156/255/156 212/256/212 211/254/211 153/253/153
f 149/176/149 152/179/152 211/254/211 212/256/212
f 157/257/157 213/258/213 212/256/212 156/255/156
f 146/173/146 149/176/149 212/256/212 213/258/213
f 214/259/214 215/260/215 213/258/213 157/257/157
f 216/261/216 146/173/146 213/258/213 215/260/215
f 130/157/130 217/262/217 216/261/216 215/260/215
f 218/263/218 219/264/219 216/261/216 217/262/217
f 147/174/147 146/173/146 216/261/216 219/264/219
f 220/265/220 221/266/221 219/264/219 218/263/218
f 150/177/150 147/174/147 219/264/219 221/266/221
f 222/267/222 223/268/223 221/266/221 220/265/220
f 224/269/224 150/177/150 221/266/221 223/268/223
f 166/193/166 225/270/225 224/269/224 223/268/223
f 226/271/226 227/272/227 224/269/224 225/270/225
f 151/178/151 150/177/150 224/269/224 227/272/227
f 209/251/209 210/252/210 227/272/227 226/271/226
f 152/179/152 151/178/151 227/272/227 210/252/210
f 228/273/228 229/274/229 226/271/226 225/270/225
f 230/275/230 209/251/209 226/271/226 229/274/229
f 231/276/231 232/277/232 230/275/230 229/274/229
f 175/206/175 204/246/204 230/275/230 232/277/232
f 205/247/205 209/251/209 230/275/230 204/246/204
f 233/278/233 234/279/234 232/277/232 231/276/231
f 170/197/170 175/206/175 232/277/232 234/279/234
f 235/280/235 236/281/236 234/279/234 233/278/233
f 167/194/167 170/197/170 234/279/234 236/281/236
f 237/282/237 238/283/238 236/281/236 235/280/235
f 239/284/239 167/194/167 236/281/236 238/283/238
f 240/285/240 241/286/241 239/284/239 238/283/238
f 242/287/242 243/288/243 239/284/239 241/286/241
f 168/195/168 167/194/167 239/284/239 243/288/243
f 244/289/244 245/290/245 243/291/243 242/292/242
f 171/198/171 168/201/168 243/291/243 245/290/245
f 246/293/246 247/294/247 245/290/245 244/289/244
f 248/295/248 171/198/171 245/290/245 247/294/247
f 172/199/172 171/198/171 248/295/248 178/210/178
f 249/296/249 250/297/250 248/295/248 247/294/247
f 251/298/251 178/210/178 248/295/248 250/297/250
f 179/211/179 178/210/178 251/298/251 252/299/252
f 253/300/253 254/301/254 251/298/251 250/297/250
f 255/302/255 252/299/252 251/298/251 254/301/254
f 256/303/256 252/299/252 255/302/255 257/304/257
f 258/305/258 259/306/259 255/302/255 254/301/254
f 260/307/260 257/304/257 255/302/255 259/306/259
f 197/237/197 257/304/257 260/307/260 261/308/261
f 262/309/262 263/310/263 260/307/260 259/306/259
f 264/311/264 261/308/261 260/307/260 263/310/263
f 201/242/201 261/308/261 264/311/264 265/312/265
f 266/313/266 267/314/267 264/311/264 263/310/263
f 159/186/159 265/312/265 264/311/264 267/314/267
f 138/315/138 268/316/268 267/314/267 266/313/266
f 158/185/158 159/186/159 267/314/267 268/316/268
f 131/158/131 214/259/214 268/317/268 138/165/138
f 157/257/157 158/318/158 268/317/268 214/259/214
f 262/309/262 269/319/269 266/313/266 263/310/263
f 137/320/137 138/315/138 266/313/266 269/319/269
f 270/321/270 271/322/271 269/319/269 262/309/262
f 136/323/136 137/320/137 269/319/269 271/322/271
f 272/324/272 50/64/50 271/322/271 270/321/270
f 39/42/39 136/323/136 271/322/271 50/64/50
f 258/305/258 273/325/273 272/324/272 270/321/270
f 274/326/274 275/327/275 272/324/272 273/325/273
f 49/63/49 50/64/50 272/324/272 275/327/275
f 276/328/276 277/329/277 275/327/275 274/326/274
f 48/61/48 49/63/49 275/327/275 277/329/277
f 278/330/278 279/331/279 277/329/277 276/328/276
f 115/142/115 48/61/48 277/329/277 279/331/279
f 117/144/117 116/143/116 279/331/279 278/330/278
f 112/139/112 115/142/115 279/331/279 116/143/116
f 280/332/280 281/333/281 278/330/278 276/328/276
f 122/149/122 117/144/117 278/330/278 281/333/281
f 282/334/282 283/335/283 281/333/281 280/332/280
f 284/336/284 122/149/122 281/333/281 283/335/283
f 285/337/285 286/338/286 284/336/284 283/335/283
f 287/339/287 288/340/288 284/336/284 286/338/286
f 121/148/121 122/149/122 284/336/284 288/340/288
f 289/341/289 290/342/290 288/340/288 287/339/287
f 120/147/120 121/148/121 288/340/288 290/342/290
f 291/343/291 292/344/292 290/342/290 289/341/289
f 293/345/293 120/147/120 290/342/290 292/344/292
f 119/146/119 120/147/120 293/345/293 111/138/111
f 96/118/96 294/346/294 293/345/293 292/344/292
f 110/137/110 111/138/111 293/345/293 294/346/294
f 91/113/91 295/347/295 294/346/294 96/118/96
f 107/134/107 110/137/110 294/346/294 295/347/295
f 90/112/90 296/348/296 295/347/295 91/113/91
f 297/349/297 107/134/107 295/347/295 296/348/296
f 108/135/108 107/134/107 297/349/297 298/350/298
f 299/351/299 300/352/300 297/353/297 296/354/296
f 301/355/301 298/350/298 297/349/297 300/356/300
f 104/128/104 298/350/298 301/355/301 302/357/302
f 303/358/303 304/359/304 301/360/301 300/352/300
f 305/361/305 302/362/302 301/360/301 304/359/304
f 76/100/76 302/362/302 305/361/305 78/99/78
f 86/108/86 80/102/80 305/361/305 304/359/304
f 79/101/79 78/99/78 305/361/305 80/102/80
f 123/150/123 86/108/86 304/359/304 303/358/303
f 299/351/299 306/363/306 303/358/303 300/352/300
f 307/364/307 123/150/123 303/358/303 306/363/306
f 124/151/124 123/150/123 307/364/307 308/365/308
f 309/366/309 310/367/310 307/364/307 306/363/306
f 311/368/311 308/365/308 307/364/307 310/367/310
f 312/369/312 308/365/308 311/368/311 313/370/313
f 103/125/103 314/371/314 311/368/311 310/367/310
f 315/372/315 313/370/313 311/368/311 314/371/314
f 316/373/316 313/370/313 315/372/315 317/374/317
f 318/375/318 319/376/319 315/372/315 314/371/314
f 320/377/320 317/374/317 315/372/315 319/376/319
f 321/378/321 317/374/317 320/377/320 322/379/322
f 323/380/323 324/381/324 320/377/320 319/376/319
f 325/382/325 322/379/322 320/377/320 324/381/324
f 241/286/241 322/379/322 325/382/325 242/287/242
f 326/383/326 327/384/327 325/382/325 324/381/324
f 244/385/244 242/287/242 325/382/325 327/384/327
f 286/338/286 285/337/285 327/386/327 326/387/326
f 246/293/246 244/289/244 327/386/327 285/337/285
f 323/380/323 328/388/328 326/383/326 324/381/324
f 287/339/287 286/338/286 326/387/326 328/389/328
f 329/390/329 330/391/330 328/388/328 323/380/323
f 289/341/289 287/339/287 328/389/328 330/392/330
f 97/119/97 331/393/331 330/391/330 329/390/329
f 291/343/291 289/341/289 330/392/330 331/394/331
f 100/122/100 94/395/94 331/393/331 97/119/97
f 95/117/95 291/343/291 331/394/331 94/116/94
f 319/376/319 318/375/318 329/390/329 323/380/323
f 98/120/98 97/119/97 329/390/329 318/375/318
f 332/396/332 333/397/333 321/378/321 240/285/240
f 316/373/316 317/374/317 321/378/321 333/397/333
f 241/286/241 240/285/240 321/378/321 322/379/322
f 334/398/334 335/399/335 333/397/333 332/396/332
f 336/400/336 316/373/316 333/397/333 335/399/335
f 337/401/337 338/402/338 336/400/336 335/399/335
f 125/152/125 312/369/312 336/400/336 338/402/338
f 313/370/313 316/373/316 336/400/336 312/369/312
f 143/170/143 129/156/129 338/402/338 337/401/337
f 126/153/126 125/152/125 338/402/338 129/156/129
f 144/171/144 143/170/143 337/401/337 339/403/339
f 334/398/334 339/403/339 337/401/337 335/399/335
f 145/172/145 144/171/144 339/403/339 340/404/340
f 341/405/341 340/404/340 339/403/339 334/398/334
f 342/406/342 340/404/340 341/405/341 343/407/343
f 332/396/332 237/282/237 341/405/341 334/398/334
f 235/280/235 343/407/343 341/405/341 237/282/237
f 344/408/344 345/409/345 342/406/342 346/410/346
f 145/172/145 340/404/340 342/406/342 345/409/345
f 347/411/347 346/410/346 342/406/342 343/407/343
f 160/187/160 346/410/346 347/411/347 348/412/348
f 235/280/235 233/278/233 347/411/347 343/407/343
f 231/276/231 348/412/348 347/411/347 233/278/233
f 161/188/161 160/187/160 348/412/348 228/273/228
f 229/274/229 228/273/228 348/412/348 231/276/231
f 349/413/349 350/414/350 345/409/345 344/408/344
f 142/169/142 145/172/145 345/409/345 350/414/350
f 351/415/351 352/416/352 350/414/350 349/413/349
f 139/166/139 142/169/142 350/414/350 352/416/352
f 353/417/353 354/418/354 352/416/352 351/415/351
f 355/419/355 139/166/139 352/416/352 354/418/354
f 55/69/55 53/67/53 355/419/355 354/418/354
f 52/66/52 128/155/128 355/419/355 53/67/53
f 140/167/140 139/166/139 355/419/355 128/155/128
f 356/420/356 55/69/55 354/418/354 353/417/353
f 357/421/357 358/422/358 356/420/356 359/423/359
f 51/65/51 55/69/55 356/420/356 358/422/358
f 360/424/360 359/423/359 356/420/356 353/417/353
f 218/263/218 359/423/359 360/424/360 220/265/220
f 351/415/351 361/425/361 360/424/360 353/417/353
f 222/267/222 220/265/220 360/424/360 361/425/361
f 349/413/349 164/191/164 361/425/361 351/415/351
f 165/192/165 222/267/222 361/425/361 164/191/164
f 133/160/133 134/161/134 358/422/358 357/421/357
f 41/46/41 51/65/51 358/422/358 134/161/134
f 130/157/130 133/160/133 357/421/357 217/262/217
f 218/263/218 217/262/217 357/421/357 359/423/359
f 163/190/163 164/191/164 349/413/349 344/408/344
f 160/187/160 163/190/163 344/408/344 346/410/346
f 238/283/238 237/282/237 332/396/332 240/285/240
f 103/125/103 98/120/98 318/375/318 314/371/314
f 124/151/124 308/365/308 312/369/312 125/152/125
f 102/124/102 103/125/103 310/367/310 309/366/309
f 299/351/299 362/426/362 309/366/309 306/363/306
f 101/123/101 102/124/102 309/366/309 362/426/362
f 296/354/296 90/427/90 362/426/362 299/351/299
f 93/428/93 101/123/101 362/426/362 90/427/90
f 75/129/75 104/128/104 302/357/302 76/429/76
f 105/131/105 108/135/108 298/350/298 104/128/104
f 95/117/95 96/118/96 292/344/292 291/343/291
f 282/334/282 246/293/246 285/337/285 283/335/283
f 247/294/247 246/293/246 282/334/282 249/296/249
f 363/430/363 249/296/249 282/334/282 280/332/280
f 250/297/250 249/296/249 363/430/363 253/300/253
f 276/328/276 274/326/274 363/430/363 280/332/280
f 273/325/273 253/300/253 363/430/363 274/326/274
f 254/301/254 253/300/253 273/325/273 258/305/258
f 259/306/259 258/305/258 270/321/270 262/309/262
f 202/243/202 201/242/201 265/312/265 206/431/206
f 154/181/154 206/431/206 265/312/265 159/186/159
f 198/238/198 197/237/197 261/308/261 201/242/201
f 195/235/195 180/213/180 256/303/256 196/236/196
f 179/211/179 252/299/252 256/303/256 180/213/180
f 197/237/197 196/236/196 256/303/256 257/304/257
f 166/193/166 161/188/161 228/273/228 225/270/225
f 165/192/165 166/193/166 223/268/223 222/267/222
f 131/158/131 130/157/130 215/260/215 214/259/214
f 154/181/154 153/180/153 207/432/207 206/431/206
f 176/207/176 200/241/200 204/246/204 175/206/175
f 187/223/187 188/222/188 195/235/195 194/233/194
f 181/214/181 180/213/180 195/235/195 188/222/188
f 184/217/184 181/218/181 188/433/188 189/227/189
f 128/155/128 129/156/129 143/170/143 140/167/140
f 40/47/40 135/162/135 136/163/136 39/434/39
f 40/47/40 41/46/41 134/161/134 135/162/135
f 46/72/46 113/435/113 127/154/127 54/68/54
f 106/436/106 83/105/83 127/154/127 113/435/113
f 111/138/111 112/139/112 116/143/116 119/146/119
f 47/62/47 48/61/48 115/142/115 114/141/114
f 46/437/46 47/62/47 114/141/114 113/140/113
f 94/395/94 100/122/100 101/123/101 93/428/93
f 73/93/73 364/438/364 89/126/89 74/94/74
f 365/439/365 88/110/88 89/111/89 364/440/364
f 87/109/87 88/110/88 365/439/365 366/441/366
f 367/442/367 368/443/368 365/439/365 364/440/364
f 369/444/369 366/441/366 365/439/365 368/443/368
f 370/445/370 366/441/366 369/444/369 371/446/371
f 372/447/372 373/448/373 369/444/369 368/443/368
f 374/449/374 371/446/371 369/444/369 373/448/373
f 375/450/375 371/446/371 374/449/374 376/451/376
f 56/70/56 377/452/377 374/449/374 373/448/373
f 378/453/378 376/451/376 374/449/374 377/452/377
f 379/454/379 376/451/376 378/453/378 380/455/380
f 381/456/381 382/457/382 378/458/378 377/459/377
f 383/460/383 380/461/380 378/458/378 382/457/382
f 384/462/384 380/461/380 383/460/383 385/463/385
f 386/464/386 387/465/387 383/460/383 382/457/382
f 388/466/388 385/463/385 383/460/383 387/465/387
f 389/467/389 385/463/385 388/466/388 390/468/390
f 8/8/8 11/11/11 388/466/388 387/465/387
f 12/12/12 390/468/390 388/466/388 11/11/11
f 391/469/391 392/470/392 389/467/389 393/471/393
f 384/462/384 385/463/385 389/467/389 392/470/392
f 5/5/5 393/471/393 389/467/389 390/468/390
f 394/472/394 395/473/395 392/474/392 391/475/391
f 396/476/396 384/477/384 392/474/392 395/473/395
f 397/478/397 398/479/398 396/476/396 395/473/395
f 399/480/399 379/454/379 396/481/396 398/482/398
f 380/461/380 384/462/384 396/483/396 379/484/379
f 63/80/63 62/79/62 399/480/399 398/482/398
f 61/78/61 375/450/375 399/480/399 62/79/62
f 376/451/376 379/454/379 399/480/399 375/450/375
f 400/485/400 63/486/63 398/479/398 397/478/397
f 67/84/67 401/487/401 400/485/400 64/81/64
f 60/488/60 63/486/63 400/485/400 401/487/401
f 402/489/402 64/81/64 400/485/400 397/478/397
f 65/82/65 64/81/64 402/489/402 403/490/403
f 395/473/395 394/472/394 402/489/402 397/478/397
f 404/491/404 403/490/403 402/489/402 394/472/394
f 405/492/405 403/490/403 404/491/404 406/493/406
f 391/475/391 407/494/407 404/491/404 394/472/394
f 408/495/408 406/493/406 404/491/404 407/494/407
f 409/496/409 406/493/406 408/495/408 32/35/32
f 410/497/410 411/498/411 408/495/408 407/494/407
f 29/32/29 32/35/32 408/495/408 411/498/411
f 6/6/6 7/7/7 411/499/411 410/500/410
f 26/29/26 29/32/29 411/498/411 7/501/7
f 391/469/391 393/471/393 410/500/410 407/502/407
f 5/5/5 6/6/6 410/500/410 393/471/393
f 412/503/412 413/504/413 409/496/409 414/505/414
f 405/492/405 406/493/406 409/496/409 413/504/413
f 33/36/33 414/505/414 409/496/409 32/35/32
f 73/93/73 71/91/71 413/504/413 412/503/412
f 68/85/68 405/492/405 413/504/413 71/91/71
f 364/438/364 73/93/73 412/503/412 367/506/367
f 415/507/415 367/506/367 412/503/412 414/505/414
f 368/443/368 367/442/367 415/508/415 372/447/372
f 33/36/33 34/37/34 415/507/415 414/505/414
f 42/50/42 372/447/372 415/508/415 34/51/34
f 65/82/65 403/490/403 405/492/405 68/85/68
f 70/87/70 416/509/416 401/510/401 67/88/67
f 57/74/57 60/77/60 401/510/401 416/509/416
f 77/98/77 417/511/417 416/509/416 70/87/70
f 418/512/418 57/74/57 416/509/416 417/511/417
f 79/101/79 82/104/82 418/512/418 417/511/417
f 87/109/87 419/513/419 418/512/418 82/104/82
f 58/75/58 57/74/57 418/512/418 419/513/419
f 366/441/366 370/445/370 419/513/419 87/109/87
f 61/78/61 58/75/58 419/513/419 370/445/370
f 78/99/78 79/101/79 417/511/417 77/98/77
f 4/4/4 5/5/5 390/468/390 12/12/12
f 22/22/22 8/8/8 387/465/387 386/464/386
f 381/456/381 44/54/44 386/464/386 382/457/382
f 23/23/23 22/22/22 386/464/386 44/54/44
f 56/70/56 45/71/45 381/514/381 377/452/377
f 37/55/37 44/54/44 381/456/381 45/515/45
f 370/445/370 371/446/371 375/450/375 61/78/61
f 42/50/42 56/70/56 373/448/373 372/447/372
f 21/21/21 20/20/20 30/33/30 27/30/27
f 420/516/420 21/21/21 27/30/27 26/29/26
f 7/501/7 2/517/2 420/516/420 26/29/26
f 1/518/1 421/519/421 420/516/420 2/517/2
f 18/18/18 21/21/21 420/516/420 421/519/421
f 13/13/13 14/14/14 421/520/421 1/1/1
f 15/15/15 18/18/18 421/519/421 14/521/14
f 9/9/9 8/8/8 22/22/22 25/25/25
f 14/14/14 9/9/9 25/25/25 15/26/15
f 1/1/1 4/4/4 12/12/12 13/13/13
