# split from a merged terrain OBJ by scripts/split-terrain-obj-parts.py
o part-080
v -0.509629 0.941176 0.001581
v -0.510212 0.941112 0.000874
v -0.509660 0.941645 0.000449
v -0.509795 0.941917 0.001241
v -0.510411 0.942516 0.000575
v -0.510346 0.941766 -0.000099
v -0.510953 0.941171 0.000218
v -0.510163 0.941867 0.002060
v -0.510321 0.941003 0.002070
v -0.511106 0.940926 0.001402
v -0.511024 0.942576 0.001439
v -0.511815 0.942394 0.002261
v -0.510844 0.941702 0.002671
v -0.512046 0.941321 0.001997
v -0.511257 0.941160 0.002384
v -0.511708 0.942892 0.000813
v -0.511064 0.942794 -0.000144
v -0.511650 0.942913 -0.000653
v -0.512361 0.942916 0.000107
v -0.511025 0.941924 -0.000652
v -0.511960 0.942333 -0.000854
v -0.512825 0.942703 -0.000427
v -0.512472 0.941370 0.000272
v -0.512942 0.941755 -0.000343
v -0.512289 0.941633 -0.000595
v -0.511684 0.941397 -0.000207
v -0.513514 0.942724 0.000156
v -0.513054 0.942787 0.000838
v -0.513111 0.941775 0.000768
v -0.513481 0.941965 0.000052
v -0.512507 0.942723 0.001675
v -0.512623 0.941559 0.001476
v -0.511824 0.941072 0.000836
vt 0.376728 0.968690
vt 0.376958 0.968998
vt 0.376547 0.969104
vt 0.376345 0.968742
vt 0.376006 0.969038
vt 0.376513 0.969494
vt 0.377061 0.969456
vt 0.376469 0.968379
vt 0.376966 0.968429
vt 0.377387 0.968604
vt 0.375621 0.968145
vt 0.376587 0.967747
vt 0.376833 0.968092
vt 0.377789 0.967707
vt 0.377290 0.968084
vt 0.375246 0.968953
vt 0.375786 0.969448
vt 0.375773 0.969941
vt 0.375257 0.969776
vt 0.376414 0.969910
vt 0.376168 0.970379
vt 0.375449 0.970351
vt 0.974550 0.368487
vt 0.974614 0.367969
vt 0.974913 0.367981
vt 0.974995 0.368377
vt 0.974441 0.367329
vt 0.974954 0.367468
vt 0.377162 0.969895
vt 0.376947 0.970439
vt 0.973964 0.367182
vt 0.974172 0.367690
vt 0.973805 0.367787
vt 0.974014 0.368285
vt 0.974311 0.368004
vt 0.973309 0.367955
vt 0.973658 0.368591
vt 0.974257 0.368890
vt 0.378121 0.968315
vt 0.377701 0.968878
vt 0.377876 0.969627
vt 0.972836 0.367399
vt 0.973413 0.367246
vt 0.972805 0.368141
vt 0.973219 0.368745
vn 0.8257 -0.5033 0.2548
vn 0.4188 -0.8619 -0.2860
vn 0.8625 -0.0810 -0.4995
vn 0.9003 0.4174 0.1232
vn 0.5789 0.8060 -0.1235
vn 0.6760 -0.1452 -0.7225
vn 0.1436 -0.8824 -0.4481
vn 0.6126 0.4317 0.6621
vn 0.4216 -0.7528 0.5056
vn -0.0876 -0.9961 0.0081
vn 0.3168 0.8916 0.3234
vn -0.2296 0.5328 0.8145
vn 0.2078 0.1650 0.9641
vn -0.5360 -0.6036 0.5902
vn -0.1777 -0.6497 0.7391
vn 0.1193 0.9812 0.1520
vn 0.4656 0.8057 -0.3662
vn 0.1786 0.7962 -0.5781
vn -0.0998 0.9859 -0.1346
vn 0.4661 -0.1869 -0.8648
vn -0.0306 0.1476 -0.9886
vn -0.4421 0.5554 -0.7043
vn -0.3547 -0.9236 -0.1457
vn -0.5516 -0.5505 -0.6267
vn -0.2305 -0.6106 -0.7577
vn -0.0069 -0.8283 -0.5602
vn -0.8441 0.5209 -0.1271
vn -0.6378 0.6759 0.3691
vn -0.7927 -0.5145 0.3271
vn -0.9080 -0.3647 -0.2063
vn -0.4775 0.6430 0.5989
vn -0.7132 -0.5253 0.4641
vn -0.2530 -0.9641 -0.0807
f 1/1/1 2/2/2 3/3/3 4/4/4
f 5/5/5 4/4/4 3/3/3 6/6/6
f 7/7/7 6/6/6 3/3/3 2/2/2
f 8/8/8 9/9/9 1/1/1 4/4/4
f 10/10/10 2/2/2 1/1/1 9/9/9
f 11/11/11 12/12/12 13/13/13 8/8/8
f 14/14/14 15/15/15 13/13/13 12/12/12
f 9/9/9 8/8/8 13/13/13 15/15/15
f 10/10/10 9/9/9 15/15/15 14/14/14
f 16/16/16 17/17/17 18/18/18 19/19/19
f 20/20/20 21/21/21 18/18/18 17/17/17
f 22/22/22 19/19/19 18/18/18 21/21/21
f 23/23/23 24/24/24 25/25/25 26/26/26
f 22/27/22 21/28/21 25/25/25 24/24/24
f 20/20/20 26/29/26 25/30/25 21/21/21
f 19/31/19 22/27/22 27/32/27 28/33/28
f 29/34/29 28/33/28 27/32/27 30/35/30
f 23/23/23 29/34/29 30/35/30 24/24/24
f 31/36/31 28/33/28 29/34/29 32/37/32
f 33/38/33 32/37/32 29/34/29 23/23/23
f 14/14/14 32/39/32 33/40/33 10/10/10
f 26/29/26 7/7/7 33/40/33 23/41/23
f 2/2/2 10/10/10 33/40/33 7/7/7
f 11/42/11 16/43/16 31/36/31 12/44/12
f 19/31/19 28/33/28 31/36/31 16/43/16
f 14/45/14 12/44/12 31/36/31 32/37/32
f 6/6/6 7/7/7 26/29/26 20/20/20
f 5/5/5 6/6/6 20/20/20 17/17/17
f 11/11/11 5/5/5 17/17/17 16/16/16
f 4/4/4 5/5/5 11/11/11 8/8/8
f 27/32/27 22/27/22 24/24/24 30/35/30
