# split from a merged terrain OBJ by scripts/split-terrain-obj-parts.py
o part-064
v -0.788818 1.152322 0.010653
v -0.789715 1.151221 0.011287
v -0.789502 1.150850 0.010203
v -0.788977 1.151664 0.009343
v -0.790867 1.150354 0.011304
v -0.790352 1.150400 0.009840
v -0.789459 1.150935 0.008546
v -0.791475 1.150615 0.009464
v -0.790559 1.151211 0.008226
v -0.789456 1.152495 0.008608
v -0.791281 1.155163 0.013796
v -0.791496 1.155231 0.014846
v -0.790601 1.155097 0.015065
v -0.790054 1.154963 0.014044
v -0.790017 1.153999 0.014531
v -0.791010 1.154605 0.015488
v -0.791859 1.154544 0.015020
v -0.791581 1.151727 0.008279
v -0.791998 1.151708 0.009212
v -0.791646 1.152830 0.008687
v -0.790744 1.152918 0.008417
v -0.792315 1.151974 0.010467
v -0.791743 1.153313 0.009875
v -0.790456 1.153864 0.009542
v -0.791406 1.151681 0.013968
v -0.791643 1.152660 0.015211
v -0.792402 1.152507 0.014991
v -0.792678 1.151853 0.013821
v -0.792641 1.152900 0.013280
v -0.792437 1.153512 0.014517
v -0.792017 1.153878 0.015232
v -0.791487 1.154043 0.015750
v -0.790702 1.153112 0.015015
v -0.792121 1.154323 0.014103
v -0.790946 1.154992 0.012444
v -0.792078 1.154103 0.012745
v -0.790658 1.154562 0.010985
v -0.792024 1.153779 0.011317
v -0.792505 1.152380 0.011849
v -0.792024 1.150570 0.010924
v -0.792529 1.151015 0.012386
v -0.791181 1.150819 0.012657
v -0.789931 1.151744 0.012523
v -0.790303 1.152361 0.013756
v -0.789013 1.152980 0.012034
v -0.789454 1.153539 0.013326
v -0.789319 1.154269 0.011251
v -0.789654 1.154753 0.012725
v -0.789102 1.153526 0.009751
vt 0.687118 0.061857
vt 0.687508 0.062553
vt 0.686888 0.062715
vt 0.686362 0.062246
vt 0.687614 0.063311
vt 0.686861 0.063312
vt 0.686067 0.062942
vt 0.686872 0.064040
vt 0.686096 0.063839
vt 0.006866 0.089594
vt 0.006083 0.089578
vt 0.006597 0.088992
vt 0.007639 0.088930
vt 0.007288 0.092692
vt 0.007312 0.093137
vt 0.006758 0.093161
vt 0.006481 0.092767
vt 0.005781 0.093411
vt 0.006877 0.093409
vt 0.007597 0.093431
vt 0.008315 0.089348
vt 0.008732 0.089845
vt 0.008099 0.089940
vt 0.007616 0.089832
vt 0.008893 0.090607
vt 0.008099 0.090619
vt 0.007370 0.090513
vt 0.687039 0.064791
vt 0.686492 0.064701
vt 0.689155 0.063066
vt 0.689908 0.062980
vt 0.689839 0.063436
vt 0.689263 0.063786
vt 0.689458 0.064423
vt 0.690097 0.063940
vt 0.690456 0.063478
vt 0.007055 0.093663
vt 0.006251 0.093902
vt 0.007564 0.093763
vt 0.689896 0.062316
vt 0.690533 0.062909
vt 0.008017 0.093000
vt 0.007310 0.092062
vt 0.008168 0.092253
vt 0.690375 0.064347
vt 0.690051 0.064803
vt 0.690704 0.063732
vt 0.007298 0.091326
vt 0.008121 0.091441
vt 0.008903 0.091491
vt 0.008890 0.092214
vt 0.687641 0.063990
vt 0.688455 0.063867
vt 0.688599 0.064666
vt 0.687790 0.064809
vt 0.688354 0.063173
vt 0.688255 0.062435
vt 0.689073 0.062339
vt 0.688084 0.061674
vt 0.688944 0.061581
vt 0.689732 0.061699
vt 0.006531 0.091244
vt 0.006484 0.092115
vt 0.005634 0.092594
vt 0.005785 0.091293
vt 0.005839 0.090423
vt 0.006639 0.090359
vn 0.9860 -0.1435 0.0844
vn 0.6995 -0.6415 0.3148
vn 0.7045 -0.6927 0.1545
vn 0.9181 -0.2774 -0.2831
vn 0.1691 -0.9618 0.2154
vn 0.2294 -0.9678 -0.1032
vn 0.5406 -0.5893 -0.6003
vn -0.4872 -0.7985 -0.3536
vn 0.0018 -0.4578 -0.8891
vn 0.5661 0.2988 -0.7682
vn -0.3164 0.9411 -0.1192
vn -0.3974 0.8715 0.2873
vn 0.4409 0.7108 0.5481
vn 0.6632 0.7160 0.2179
vn 0.8378 -0.0440 0.5441
vn 0.2091 0.3464 0.9145
vn -0.7132 0.5725 0.4045
vn -0.4960 -0.1540 -0.8546
vn -0.8801 -0.1646 -0.4453
vn -0.6967 0.4712 -0.5409
vn -0.1103 0.5359 -0.8370
vn -0.9711 -0.0117 -0.2383
vn -0.7328 0.5756 -0.3627
vn -0.0374 0.8480 -0.5287
vn 0.1861 -0.7999 0.5706
vn -0.0843 -0.5308 0.8433
vn -0.6781 -0.3725 0.6336
vn -0.7884 -0.5052 0.3510
vn -0.9825 0.1821 -0.0384
vn -0.9256 0.2338 0.2976
vn -0.6430 0.1832 0.7436
vn -0.0448 0.0880 0.9951
vn 0.5269 -0.4162 0.7411
vn -0.8534 0.5207 -0.0263
vn -0.2156 0.9508 -0.2226
vn -0.8093 0.5592 -0.1799
vn -0.1393 0.9236 -0.3572
vn -0.7824 0.5577 -0.2772
vn -0.9805 0.0968 -0.1709
vn -0.6516 -0.7550 -0.0732
vn -0.7575 -0.6345 0.1534
vn 0.1720 -0.8785 0.4456
vn 0.6913 -0.5784 0.4330
vn 0.6623 -0.5412 0.5181
vn 0.9613 -0.0900 0.2602
vn 0.9277 -0.0634 0.3679
vn 0.7096 0.6904 -0.1408
vn 0.6794 0.7333 0.0249
vn 0.7327 0.5592 -0.3878
f 1/1/1 2/2/2 3/3/3 4/4/4
f 5/5/5 6/6/6 3/3/3 2/2/2
f 7/7/7 4/4/4 3/3/3 6/6/6
f 8/8/8 9/9/9 7/7/7 6/6/6
f 10/10/10 4/11/4 7/12/7 9/13/9
f 11/14/11 12/15/12 13/16/13 14/17/14
f 15/18/15 14/17/14 13/16/13 16/19/16
f 17/20/17 16/19/16 13/16/13 12/15/12
f 18/21/18 19/22/19 20/23/20 21/24/21
f 22/25/22 23/26/23 20/23/20 19/22/19
f 24/27/24 21/24/21 20/23/20 23/26/23
f 10/10/10 9/13/9 18/21/18 21/24/21
f 8/8/8 19/28/19 18/29/18 9/9/9
f 25/30/25 26/31/26 27/32/27 28/33/28
f 29/34/29 28/33/28 27/32/27 30/35/30
f 31/36/31 30/35/30 27/32/27 26/31/26
f 15/18/15 16/19/16 32/37/32 33/38/33
f 17/20/17 31/39/31 32/37/32 16/19/16
f 26/31/26 33/40/33 32/41/32 31/36/31
f 34/42/34 17/20/17 12/15/12 11/14/11
f 35/43/35 36/44/36 34/42/34 11/14/11
f 29/34/29 30/35/30 34/45/34 36/46/36
f 31/36/31 17/47/17 34/45/34 30/35/30
f 37/48/37 38/49/38 36/44/36 35/43/35
f 39/50/39 29/51/29 36/44/36 38/49/38
f 23/26/23 22/25/22 39/50/39 38/49/38
f 40/52/40 41/53/41 39/54/39 22/55/22
f 28/33/28 29/34/29 39/54/39 41/53/41
f 5/5/5 42/56/42 41/53/41 40/52/40
f 25/30/25 28/33/28 41/53/41 42/56/42
f 2/2/2 43/57/43 42/56/42 5/5/5
f 44/58/44 25/30/25 42/56/42 43/57/43
f 26/31/26 25/30/25 44/58/44 33/40/33
f 45/59/45 46/60/46 44/58/44 43/57/43
f 15/61/15 33/40/33 44/58/44 46/60/46
f 47/62/47 48/63/48 46/64/46 45/65/45
f 14/17/14 15/18/15 46/64/46 48/63/48
f 37/48/37 35/43/35 48/63/48 47/62/47
f 11/14/11 14/17/14 48/63/48 35/43/35
f 1/66/1 49/67/49 47/62/47 45/65/45
f 24/27/24 37/48/37 47/62/47 49/67/49
f 4/11/4 10/10/10 49/67/49 1/66/1
f 21/24/21 24/27/24 49/67/49 10/10/10
f 2/2/2 1/1/1 45/59/45 43/57/43
f 19/28/19 8/8/8 40/52/40 22/55/22
f 6/6/6 5/5/5 40/52/40 8/8/8
f 24/27/24 23/26/23 38/49/38 37/48/37
