# split from a merged terrain OBJ by scripts/split-terrain-obj-parts.py
o part-058
v -0.852495 0.039328 -0.031979
v -0.851978 0.039322 -0.031642
v -0.851685 0.038690 -0.031878
v -0.851971 0.038962 -0.032430
v -0.852679 0.038191 -0.031553
v -0.852053 0.037901 -0.031973
v -0.851754 0.038099 -0.032783
v -0.853168 0.038488 -0.031913
v -0.853262 0.039261 -0.033371
v -0.853498 0.038876 -0.032515
v -0.852913 0.039268 -0.032380
v -0.852497 0.039292 -0.032909
v -0.853013 0.037958 -0.034290
v -0.853830 0.038162 -0.034609
v -0.853619 0.038777 -0.034420
v -0.852964 0.038682 -0.033950
v -0.854542 0.038136 -0.033942
v -0.854027 0.038825 -0.033688
v -0.853379 0.036330 -0.034092
v -0.853961 0.035837 -0.034199
v -0.854198 0.036139 -0.034500
v -0.853837 0.036663 -0.034462
v -0.854523 0.035750 -0.033908
v -0.854598 0.036215 -0.034196
v -0.854500 0.036798 -0.034513
v -0.854952 0.036417 -0.033821
v -0.854942 0.036862 -0.034214
v -0.854101 0.037514 -0.034741
v -0.854777 0.037450 -0.034114
v -0.854868 0.037035 -0.033387
v -0.854525 0.037715 -0.033050
v -0.854818 0.035964 -0.033344
v -0.854604 0.036540 -0.032858
v -0.854158 0.037161 -0.032471
v -0.854050 0.038376 -0.032769
v -0.853735 0.037823 -0.032102
v -0.853968 0.036040 -0.032675
v -0.853573 0.036668 -0.032204
v -0.853134 0.037370 -0.031863
v -0.852866 0.036407 -0.032537
v -0.852471 0.037129 -0.032190
v -0.852608 0.036581 -0.033303
v -0.852214 0.037274 -0.033035
v -0.852889 0.036949 -0.033936
v -0.852492 0.037633 -0.033700
v -0.852219 0.038530 -0.033458
v -0.853380 0.037291 -0.034396
v -0.853093 0.035931 -0.033575
v -0.853329 0.035762 -0.032912
v -0.853657 0.035415 -0.033300
v -0.853730 0.035530 -0.033889
v -0.854274 0.035589 -0.033232
v -0.854409 0.035447 -0.033839
vt 0.965538 0.228389
vt 0.965626 0.228029
vt 0.965994 0.227759
vt 0.966002 0.228178
vt 0.965395 0.227590
vt 0.965727 0.227336
vt 0.966983 0.988315
vt 0.966476 0.988355
vt 0.966610 0.987919
vt 0.967126 0.987851
vt 0.965046 0.227840
vt 0.964558 0.228556
vt 0.964769 0.228130
vt 0.965108 0.228410
vt 0.964991 0.228659
vt 0.966366 0.988800
vt 0.966074 0.988628
vt 0.966102 0.988327
vt 0.967322 0.989307
vt 0.967386 0.989756
vt 0.966983 0.989709
vt 0.966904 0.989279
vt 0.963723 0.228028
vt 0.964081 0.228380
vt 0.963698 0.228633
vt 0.963385 0.228367
vt 0.966442 0.989311
vt 0.966551 0.989825
vt 0.968188 0.989102
vt 0.968544 0.989249
vt 0.968448 0.989507
vt 0.968126 0.989462
vt 0.968816 0.989407
vt 0.968597 0.989728
vt 0.968206 0.989825
vt 0.963010 0.227116
vt 0.963327 0.227154
vt 0.963233 0.227445
vt 0.962985 0.227532
vt 0.963137 0.228049
vt 0.963447 0.227717
vt 0.963663 0.227364
vt 0.964024 0.227614
vt 0.963499 0.226827
vt 0.963870 0.227026
vt 0.964280 0.227222
vt 0.964378 0.227902
vt 0.964663 0.227502
vt 0.964087 0.226650
vt 0.964534 0.226851
vt 0.964910 0.227152
vt 0.968102 0.988153
vt 0.967609 0.988008
vt 0.967735 0.987650
vt 0.968167 0.987757
vt 0.967230 0.987475
vt 0.967913 0.988567
vt 0.967479 0.988459
vt 0.967796 0.988975
vt 0.967380 0.988866
vt 0.966876 0.988800
vt 0.967727 0.989372
vt 0.967764 0.989809
vt 0.968322 0.988739
vt 0.968508 0.988379
vt 0.968726 0.988630
vt 0.968636 0.988989
vt 0.964217 0.226297
vt 0.964535 0.226440
vt 0.963694 0.226489
vt 0.963862 0.226216
vt 0.963155 0.226772
vt 0.963243 0.226556
vt 0.968922 0.989182
vt 0.969015 0.988795
vn -0.0567 0.9007 0.4306
vn 0.4411 0.6673 0.6000
vn 0.9064 0.0786 0.4151
vn 0.7859 0.5690 -0.2420
vn -0.0671 -0.0718 0.9952
vn 0.7274 -0.3888 0.5654
vn 0.9681 -0.1099 -0.2252
vn -0.5517 0.3284 0.7667
vn -0.1389 0.9680 -0.2089
vn -0.5980 0.6737 0.4343
vn -0.2965 0.9023 0.3129
vn 0.3491 0.8983 -0.2669
vn 0.5733 0.0421 -0.8182
vn -0.1159 0.3488 -0.9300
vn -0.0385 0.6555 -0.7542
vn 0.4482 0.5441 -0.7093
vn -0.8405 0.4933 -0.2240
vn -0.6080 0.7814 -0.1404
vn 0.5822 -0.3446 -0.7364
vn 0.1440 -0.5479 -0.8240
vn -0.0592 -0.4098 -0.9103
vn 0.2810 -0.2611 -0.9235
vn -0.6061 -0.6678 -0.4320
vn -0.5817 -0.4531 -0.6755
vn -0.4049 -0.1098 -0.9078
vn -0.9656 -0.2093 -0.1541
vn -0.8896 0.0019 -0.4567
vn -0.1752 0.0936 -0.9801
vn -0.8827 0.3161 -0.3477
vn -0.9393 0.1662 0.3003
vn -0.8558 0.3162 0.4093
vn -0.8496 -0.4449 0.2834
vn -0.7362 -0.1477 0.6604
vn -0.6558 -0.0073 0.7549
vn -0.7515 0.4860 0.4461
vn -0.6175 0.1243 0.7767
vn -0.2661 -0.5316 0.8041
vn -0.1827 -0.4031 0.8967
vn -0.1164 -0.3037 0.9456
vn 0.5457 -0.6439 0.5363
vn 0.5977 -0.5609 0.5728
vn 0.8480 -0.4831 -0.2180
vn 0.8912 -0.4116 -0.1905
vn 0.6912 -0.2708 -0.6700
vn 0.7555 -0.1327 -0.6415
vn 0.7361 0.3066 -0.6034
vn 0.4643 -0.1709 -0.8690
vn 0.7405 -0.5913 -0.3194
vn 0.4073 -0.7863 0.4645
vn 0.2369 -0.9424 0.2362
vn 0.3144 -0.8167 -0.4839
vn -0.3930 -0.8070 0.4408
vn -0.3799 -0.8752 -0.2995
f 1/1/1 2/2/2 3/3/3 4/4/4
f 5/5/5 6/6/6 3/3/3 2/2/2
f 7/7/7 4/8/4 3/9/3 6/10/6
f 8/11/8 5/5/5 2/2/2 1/1/1
f 9/12/9 10/13/10 11/14/11 12/15/12
f 4/8/4 12/16/12 11/17/11 1/18/1
f 8/11/8 1/1/1 11/14/11 10/13/10
f 13/19/13 14/20/14 15/21/15 16/22/16
f 17/23/17 18/24/18 15/25/15 14/26/14
f 9/27/9 16/22/16 15/21/15 18/28/18
f 19/29/19 20/30/20 21/31/21 22/32/22
f 23/33/23 24/34/24 21/31/21 20/30/20
f 25/35/25 22/32/22 21/31/21 24/34/24
f 24/36/24 26/37/26 27/38/27 25/39/25
f 28/40/28 25/39/25 27/38/27 29/41/29
f 30/42/30 29/41/29 27/38/27 26/37/26
f 17/23/17 29/41/29 30/42/30 31/43/31
f 32/44/32 33/45/33 30/42/30 26/37/26
f 34/46/34 31/43/31 30/42/30 33/45/33
f 35/47/35 31/43/31 34/46/34 36/48/36
f 37/49/37 38/50/38 34/46/34 33/45/33
f 39/51/39 36/48/36 34/46/34 38/50/38
f 8/11/8 36/48/36 39/51/39 5/5/5
f 40/52/40 41/53/41 39/54/39 38/55/38
f 6/10/6 5/56/5 39/54/39 41/53/41
f 42/57/42 43/58/43 41/53/41 40/52/40
f 7/7/7 6/10/6 41/53/41 43/58/43
f 44/59/44 45/60/45 43/58/43 42/57/42
f 46/61/46 7/7/7 43/58/43 45/60/45
f 4/8/4 7/7/7 46/61/46 12/16/12
f 13/19/13 16/22/16 46/61/46 45/60/45
f 9/27/9 12/16/12 46/61/46 16/22/16
f 47/62/47 13/19/13 45/60/45 44/59/44
f 19/29/19 22/32/22 47/62/47 44/59/44
f 25/35/25 28/63/28 47/62/47 22/32/22
f 14/20/14 13/19/13 47/62/47 28/63/28
f 48/64/48 19/29/19 44/59/44 42/57/42
f 40/52/40 49/65/49 48/64/48 42/57/42
f 50/66/50 51/67/51 48/64/48 49/65/49
f 20/30/20 19/29/19 48/64/48 51/67/51
f 38/50/38 37/49/37 49/68/49 40/69/40
f 52/70/52 50/71/50 49/68/49 37/49/37
f 32/44/32 52/70/52 37/49/37 33/45/33
f 9/12/9 18/24/18 35/47/35 10/13/10
f 17/23/17 31/43/31 35/47/35 18/24/18
f 8/11/8 10/13/10 35/47/35 36/48/36
f 24/36/24 23/72/23 32/44/32 26/37/26
f 53/73/53 52/70/52 32/44/32 23/72/23
f 17/23/17 14/26/14 28/40/28 29/41/29
f 23/33/23 20/30/20 51/67/51 53/74/53
f 53/74/53 51/67/51 50/66/50 52/75/52
