# split from a merged terrain OBJ by scripts/split-terrain-obj-parts.py
o part-024
v 0.124299 0.335514 -0.000970
v 0.126013 0.327844 0.001764
v 0.129340 0.328206 -0.003450
v 0.124349 0.334228 -0.006877
v 0.133208 0.316004 0.007286
v 0.137294 0.316204 -0.003535
v 0.113249 0.342765 -0.000605
v 0.118991 0.341731 -0.001115
v 0.118264 0.344369 -0.006088
v 0.113007 0.344915 -0.003836
v 0.122767 0.339904 -0.003121
v 0.122986 0.339442 -0.007903
v 0.121010 0.337545 -0.013682
v 0.116284 0.343205 -0.012365
v 0.115844 0.339663 -0.016285
v 0.111732 0.339910 -0.015871
v 0.110633 0.342918 -0.009846
v 0.112145 0.336126 -0.016811
v 0.107225 0.335988 -0.009401
v 0.120462 0.337340 0.004729
v 0.109337 0.341441 -0.004272
v 0.107271 0.336176 -0.002344
v 0.117745 0.335481 -0.017228
v 0.112669 0.337408 0.004123
v 0.135566 0.316066 -0.015256
v 0.128144 0.325292 -0.014002
v 0.118069 0.330742 -0.015126
v 0.138561 0.195917 0.025754
v 0.126367 0.196401 0.032386
v 0.125299 0.192835 0.027467
v 0.131625 0.191941 0.020307
v 0.110579 0.196578 0.031000
v 0.113998 0.192343 0.026176
v 0.119199 0.191249 0.017849
v 0.149433 0.198731 -0.027880
v 0.147420 0.199390 -0.034118
v 0.145067 0.206002 -0.036631
v 0.148510 0.204702 -0.027174
v 0.146239 0.212604 -0.027140
v 0.142578 0.213236 -0.034560
v 0.133312 0.199250 -0.040782
v 0.133298 0.205086 -0.039315
v 0.140713 0.199935 -0.039004
v 0.133391 0.212580 -0.036544
v 0.097567 0.198507 -0.041521
v 0.089490 0.199288 -0.041506
v 0.086092 0.205557 -0.038072
v 0.098104 0.205011 -0.039630
v 0.098973 0.212774 -0.036433
v 0.087242 0.211903 -0.036600
v 0.085753 0.213727 -0.028844
v 0.082579 0.206031 -0.028786
v 0.080142 0.198904 -0.029595
v 0.080685 0.199823 -0.035613
v 0.087905 0.232702 -0.030539
v 0.093051 0.232259 -0.034215
v 0.102268 0.232301 -0.034800
v 0.143622 0.274563 -0.027414
v 0.140158 0.274183 -0.034384
v 0.140096 0.288731 -0.034074
v 0.145110 0.288307 -0.027503
v 0.145188 0.297381 -0.040200
v 0.146614 0.295631 -0.034977
v 0.138787 0.296032 -0.040437
v 0.149230 0.294967 -0.028308
v 0.132984 0.273806 -0.034823
v 0.132515 0.287892 -0.036049
v 0.132142 0.295165 -0.040480
v 0.148501 0.294466 0.015222
v 0.139127 0.295483 0.029057
v 0.128273 0.290234 0.028593
v 0.144435 0.289212 0.014286
v 0.132402 0.297395 0.036227
v 0.120566 0.295938 0.034991
v 0.142849 0.277794 0.012893
v 0.128122 0.279917 0.025902
v 0.109359 0.280414 0.027004
v 0.106183 0.290556 0.029337
v 0.102478 0.294903 0.032394
v 0.136219 0.305094 0.029382
v 0.136423 0.301448 0.037280
v 0.141424 0.300465 0.037424
v 0.144358 0.301593 0.030549
v 0.144650 0.297872 0.029936
v 0.139074 0.299094 0.037376
v 0.138125 0.299048 0.039628
v 0.141207 0.310163 0.012555
v 0.131404 0.310515 0.024818
v 0.145503 0.306285 0.014805
v 0.150604 0.302557 0.016190
v 0.118467 0.308474 0.029441
v 0.123204 0.304342 0.034302
v 0.126123 0.301610 0.038116
v 0.129032 0.298690 0.039481
v 0.106447 0.330807 -0.008246
v 0.129120 0.323972 -0.024529
v 0.114374 0.324449 -0.023874
v 0.100125 0.324497 -0.023830
v 0.098784 0.324627 -0.016318
v 0.135296 0.307620 -0.034309
v 0.126079 0.309895 -0.032787
v 0.129454 0.316800 -0.025791
v 0.139370 0.310462 -0.028009
v 0.143509 0.309722 -0.017368
v 0.114029 0.310609 -0.032271
v 0.114118 0.316186 -0.026387
v 0.111483 0.326802 0.008977
v 0.120784 0.327966 0.007159
v 0.100654 0.315478 0.012365
v 0.109568 0.316373 0.019098
v 0.108040 0.324832 0.017313
v 0.125547 0.318217 0.015770
v 0.105997 0.329116 -0.001039
v 0.098705 0.324842 0.002521
v 0.094496 0.315780 0.001715
v 0.092496 0.309421 0.015042
v 0.100332 0.308156 0.025968
v 0.097257 0.324775 -0.007770
v 0.108081 0.305263 0.032213
v 0.109784 0.302299 0.036612
v 0.096949 0.303762 0.031181
v 0.101244 0.317790 -0.024250
v 0.096316 0.315846 -0.018617
v 0.114189 0.304941 -0.037545
v 0.102455 0.304661 -0.037860
v 0.099435 0.311274 -0.031016
v 0.095104 0.303142 -0.038940
v 0.091150 0.306663 -0.033592
v 0.090411 0.311127 -0.021959
v 0.085505 0.306369 -0.023612
v 0.090672 0.273828 -0.033624
v 0.087312 0.274899 -0.028398
v 0.085985 0.288536 -0.031257
v 0.091331 0.286858 -0.034986
v 0.086158 0.276044 -0.019593
v 0.083523 0.288268 -0.021219
v 0.090670 0.293748 -0.039558
v 0.084727 0.295099 -0.038751
v 0.080594 0.296774 -0.037064
v 0.079909 0.296118 -0.031969
v 0.079144 0.295343 -0.021980
v 0.116149 0.191103 -0.009228
v 0.110863 0.191108 0.003048
v 0.102832 0.191101 -0.002032
v 0.103914 0.191111 -0.011287
v 0.103521 0.191287 0.012540
v 0.095011 0.191140 0.000388
v 0.094063 0.191208 -0.011574
v 0.105860 0.191192 -0.022118
v 0.094745 0.191175 -0.022100
v 0.087315 0.192083 0.002157
v 0.086123 0.192104 -0.011188
v 0.085829 0.191955 -0.021885
v 0.095682 0.191275 -0.030899
v 0.085843 0.192885 -0.031007
v 0.081022 0.197000 -0.011047
v 0.080281 0.197535 -0.021324
v 0.081668 0.204338 -0.011400
v 0.081775 0.205274 -0.021193
v 0.084272 0.212738 -0.012300
v 0.084772 0.213541 -0.021781
v 0.086672 0.230974 -0.014575
v 0.086989 0.231853 -0.023268
v 0.086788 0.256084 -0.017223
v 0.087220 0.255411 -0.025721
v 0.089350 0.254989 -0.032853
v 0.097444 0.273445 -0.034808
v 0.096377 0.254836 -0.034518
v 0.105615 0.273047 -0.035033
v 0.104866 0.254773 -0.034755
v 0.115120 0.273022 -0.035113
v 0.114366 0.254853 -0.034810
v 0.112375 0.231989 -0.034879
v 0.124214 0.254658 -0.034784
v 0.123361 0.231578 -0.034863
v 0.122343 0.212470 -0.036842
v 0.110678 0.212596 -0.036807
v 0.122080 0.204423 -0.039999
v 0.109981 0.204316 -0.040012
v 0.121867 0.198472 -0.041264
v 0.109366 0.198407 -0.041476
v 0.121493 0.193624 -0.036447
v 0.108503 0.193138 -0.037474
v 0.096605 0.193046 -0.037980
v 0.107313 0.191439 -0.030388
v 0.086809 0.195572 -0.037677
v 0.120482 0.191658 -0.029233
v 0.119006 0.191232 -0.020894
v 0.133255 0.191924 -0.028483
v 0.132660 0.191302 -0.018677
v 0.130264 0.191131 -0.006453
v 0.143828 0.191654 -0.018040
v 0.143078 0.191164 -0.004763
v 0.138065 0.191487 0.009353
v 0.124875 0.191114 0.006249
v 0.151552 0.195633 -0.004027
v 0.146985 0.194813 0.013195
v 0.152993 0.203643 -0.004014
v 0.150053 0.202022 0.013804
v 0.139530 0.202876 0.027331
v 0.147200 0.211573 0.011727
v 0.137126 0.212599 0.025278
v 0.122489 0.211953 0.030374
v 0.125069 0.203259 0.033158
v 0.106066 0.211717 0.028923
v 0.107875 0.202954 0.031277
v 0.090906 0.212423 0.018699
v 0.089623 0.203308 0.021663
v 0.091008 0.196029 0.022107
v 0.082007 0.203671 0.002808
v 0.081692 0.196107 0.002968
v 0.096963 0.192453 0.018048
v 0.084089 0.212149 0.001503
v 0.092350 0.229708 0.014087
v 0.086551 0.230417 -0.001697
v 0.089663 0.256738 0.010595
v 0.086434 0.256482 -0.005247
v 0.087323 0.279362 0.006417
v 0.085810 0.277628 -0.008088
v 0.084073 0.289948 0.005319
v 0.082937 0.289002 -0.009156
v 0.079600 0.294725 0.005293
v 0.078557 0.294877 -0.009841
v 0.075125 0.298377 0.005550
v 0.074609 0.298820 -0.010624
v 0.076758 0.300450 -0.022637
v 0.077448 0.302702 -0.011003
v 0.080795 0.303123 -0.023122
v 0.084972 0.303077 -0.033233
v 0.079066 0.300671 -0.032242
v 0.088474 0.301154 -0.039852
v 0.082052 0.300817 -0.038923
v 0.096943 0.299749 -0.043706
v 0.090128 0.297773 -0.043348
v 0.085069 0.297243 -0.042025
v 0.097261 0.293675 -0.040049
v 0.104511 0.300249 -0.043256
v 0.105131 0.293898 -0.040295
v 0.105287 0.286109 -0.036783
v 0.097409 0.286177 -0.036417
v 0.114412 0.294170 -0.040386
v 0.114622 0.286448 -0.036557
v 0.123835 0.294536 -0.040478
v 0.124169 0.287295 -0.036239
v 0.124700 0.273378 -0.034995
v 0.132767 0.254476 -0.034667
v 0.140222 0.254399 -0.034305
v 0.140596 0.231561 -0.034267
v 0.132394 0.231396 -0.034759
v 0.143620 0.254445 -0.027283
v 0.143726 0.230939 -0.026954
v 0.144805 0.254648 -0.018863
v 0.145059 0.230391 -0.018430
v 0.148483 0.211903 -0.017351
v 0.146513 0.229411 -0.006252
v 0.149895 0.210926 -0.004737
v 0.151105 0.203777 -0.017379
v 0.151257 0.196724 -0.017954
v 0.143238 0.193635 -0.028255
v 0.142348 0.197071 -0.035356
v 0.133499 0.194361 -0.035954
v 0.144096 0.229466 0.009825
v 0.146449 0.255137 -0.006135
v 0.143635 0.255778 0.011494
v 0.130646 0.256170 0.024875
v 0.133431 0.229726 0.023422
v 0.113793 0.256637 0.026671
v 0.118171 0.229605 0.026686
v 0.099155 0.256880 0.022708
v 0.103544 0.229697 0.025978
v 0.095757 0.280133 0.019312
v 0.092010 0.290896 0.019732
v 0.087462 0.295558 0.021405
v 0.097513 0.297620 0.035448
v 0.083920 0.298488 0.022365
v 0.095595 0.301230 0.035272
v 0.084236 0.302016 0.021527
v 0.077350 0.303066 0.004749
v 0.087563 0.305119 0.018105
v 0.081974 0.306038 0.003634
v 0.082425 0.305921 -0.011127
v 0.087019 0.310254 0.002653
v 0.086667 0.309443 -0.010618
v 0.093706 0.315328 -0.009081
v 0.112274 0.300739 0.039226
v 0.115757 0.298401 0.039021
v 0.146918 0.275940 -0.005103
v 0.147670 0.288640 -0.017626
v 0.149364 0.288358 -0.003779
v 0.145123 0.275116 -0.018427
v 0.152088 0.294869 -0.017838
v 0.153231 0.294420 -0.003063
v 0.155796 0.298431 -0.018367
v 0.156482 0.298599 -0.002186
v 0.151875 0.298301 0.016040
v 0.154437 0.303326 -0.002251
v 0.148371 0.305709 -0.017849
v 0.149633 0.306688 -0.002776
v 0.153443 0.302613 -0.018065
v 0.145371 0.310377 -0.003135
v 0.145300 0.305500 -0.028381
v 0.150416 0.302560 -0.028908
v 0.142558 0.304483 -0.035217
v 0.147704 0.302294 -0.035750
v 0.152694 0.298346 -0.029162
v 0.150345 0.298816 -0.035799
v 0.145647 0.301292 -0.040202
v 0.148570 0.298200 -0.039279
v 0.140296 0.302470 -0.040011
v 0.133080 0.303505 -0.038795
v 0.124241 0.304576 -0.037759
v 0.138940 0.300096 -0.043588
v 0.132113 0.300249 -0.043334
v 0.123777 0.300509 -0.043262
v 0.114251 0.300503 -0.043175
v 0.143529 0.300492 -0.042944
vt 0.745969 0.812722
vt 0.747726 0.815691
vt 0.744038 0.817650
vt 0.741123 0.813789
vt 0.750559 0.821795
vt 0.744178 0.825159
vt 0.741816 0.805712
vt 0.744470 0.808309
vt 0.742247 0.808309
vt 0.740984 0.806205
vt 0.744278 0.811058
vt 0.741152 0.811495
vt 0.737753 0.810620
vt 0.739690 0.807920
vt 0.738224 0.808029
vt 0.737231 0.807374
vt 0.738439 0.805453
vt 0.735541 0.808225
vt 0.735447 0.804460
vt 0.747917 0.807725
vt 0.739590 0.804657
vt 0.738532 0.803049
vt 0.737347 0.809086
vt 0.743248 0.804981
vt 0.737102 0.825540
vt 0.737486 0.819305
vt 0.733514 0.812791
vt 0.424035 0.768458
vt 0.422811 0.761684
vt 0.426083 0.761193
vt 0.428863 0.765857
vt 0.422454 0.754022
vt 0.426092 0.754837
vt 0.430831 0.756610
vt 0.275304 0.712930
vt 0.278171 0.715188
vt 0.278583 0.719502
vt 0.274060 0.715569
vt 0.274086 0.720620
vt 0.279491 0.723606
vt 0.286200 0.718398
vt 0.285998 0.721515
vt 0.282136 0.717291
vt 0.284760 0.725396
vt 0.306361 0.719271
vt 0.310389 0.718611
vt 0.313543 0.722239
vt 0.306166 0.723731
vt 0.306209 0.728426
vt 0.313861 0.725534
vt 0.320074 0.725824
vt 0.318456 0.719796
vt 0.317036 0.715148
vt 0.314939 0.716543
vt 0.676591 0.841979
vt 0.679260 0.845100
vt 0.669321 0.852902
vt 0.667687 0.848857
vt 0.682714 0.849612
vt 0.674809 0.857273
vt 0.718722 0.852530
vt 0.713849 0.850570
vt 0.719035 0.844763
vt 0.724129 0.847288
vt 0.723404 0.840568
vt 0.724812 0.842469
vt 0.720360 0.838794
vt 0.727461 0.844473
vt 0.710574 0.847488
vt 0.715133 0.841308
vt 0.717342 0.836621
vt 0.368495 0.780185
vt 0.366662 0.772468
vt 0.371482 0.766592
vt 0.371948 0.778152
vt 0.365494 0.768259
vt 0.366655 0.762697
vt 0.378363 0.776533
vt 0.377307 0.765703
vt 0.376460 0.755034
vt 0.370781 0.754119
vt 0.367729 0.752780
vt 0.357036 0.772149
vt 0.361166 0.770639
vt 0.362164 0.772516
vt 0.362107 0.775375
vt 0.364266 0.774898
vt 0.363198 0.771706
vt 0.362726 0.770808
vt 0.355398 0.780033
vt 0.352852 0.769757
vt 0.359356 0.781523
vt 0.362398 0.781463
vt 0.355280 0.761786
vt 0.358748 0.764484
vt 0.361545 0.765671
vt 0.363406 0.766866
vt 0.732188 0.804969
vt 0.731927 0.820606
vt 0.727219 0.815024
vt 0.722547 0.809244
vt 0.724768 0.805709
vt 0.726016 0.830941
vt 0.723800 0.826073
vt 0.729805 0.824741
vt 0.730744 0.830956
vt 0.737123 0.831214
vt 0.719601 0.820354
vt 0.723243 0.817796
vt 0.742872 0.802268
vt 0.751746 0.806392
vt 0.349402 0.747049
vt 0.349168 0.754219
vt 0.342076 0.754152
vt 0.342628 0.748966
vt 0.346351 0.764285
vt 0.340316 0.760074
vt 0.734505 0.800813
vt 0.732055 0.798111
vt 0.739730 0.795908
vt 0.726457 0.796187
vt 0.732801 0.794083
vt 0.355028 0.742566
vt 0.356250 0.750467
vt 0.728100 0.802030
vt 0.357990 0.756323
vt 0.360895 0.757863
vt 0.360197 0.750327
vt 0.719364 0.810883
vt 0.718648 0.805873
vt 0.716129 0.823037
vt 0.711396 0.818093
vt 0.714478 0.813336
vt 0.707902 0.815550
vt 0.709193 0.811571
vt 0.713936 0.805791
vt 0.710058 0.805020
vt 0.693270 0.828435
vt 0.690852 0.825732
vt 0.696028 0.820264
vt 0.698354 0.823199
vt 0.376274 0.723471
vt 0.371127 0.721727
vt 0.370947 0.717180
vt 0.375996 0.719120
vt 0.701066 0.819008
vt 0.699645 0.815198
vt 0.366874 0.711854
vt 0.368464 0.711353
vt 0.366806 0.714755
vt 0.367182 0.720045
vt 0.296309 0.699314
vt 0.300645 0.695793
vt 0.305288 0.697363
vt 0.303800 0.700629
vt 0.432520 0.747046
vt 0.434035 0.737387
vt 0.437978 0.741771
vt 0.437896 0.750239
vt 0.310532 0.700395
vt 0.308831 0.695237
vt 0.302670 0.705278
vt 0.309323 0.705336
vt 0.428630 0.736548
vt 0.433091 0.731914
vt 0.437548 0.733288
vt 0.315218 0.706615
vt 0.315656 0.700696
vt 0.308563 0.709898
vt 0.313261 0.711335
vt 0.320191 0.701437
vt 0.319196 0.709219
vt 0.324010 0.706424
vt 0.320818 0.714604
vt 0.325478 0.714506
vt 0.322694 0.720740
vt 0.331318 0.724444
vt 0.328418 0.729563
vt 0.325549 0.734055
vt 0.342110 0.733119
vt 0.340494 0.737030
vt 0.338802 0.739859
vt 0.685731 0.835442
vt 0.683052 0.832446
vt 0.695866 0.831341
vt 0.688766 0.838586
vt 0.699090 0.834866
vt 0.692357 0.842147
vt 0.703007 0.839098
vt 0.696234 0.846473
vt 0.686932 0.854719
vt 0.700058 0.851342
vt 0.691446 0.860888
vt 0.291570 0.727682
vt 0.298925 0.728483
vt 0.291132 0.737596
vt 0.285723 0.732857
vt 0.678794 0.860482
vt 0.292496 0.722798
vt 0.299269 0.722884
vt 0.292886 0.718688
vt 0.299970 0.718843
vt 0.293178 0.714245
vt 0.300362 0.714292
vt 0.306834 0.714621
vt 0.301177 0.709396
vt 0.311818 0.715410
vt 0.293178 0.709545
vt 0.294254 0.704628
vt 0.286223 0.709475
vt 0.285735 0.704442
vt 0.287094 0.698749
vt 0.278923 0.705262
vt 0.278625 0.699559
vt 0.431637 0.772490
vt 0.436244 0.761863
vt 0.440371 0.768639
vt 0.433699 0.779893
vt 0.443052 0.756676
vt 0.427642 0.783208
vt 0.425733 0.775692
vt 0.422128 0.783876
vt 0.421330 0.776851
vt 0.419987 0.769004
vt 0.415590 0.776474
vt 0.414034 0.768264
vt 0.414103 0.760388
vt 0.419187 0.761156
vt 0.413662 0.751711
vt 0.418682 0.752501
vt 0.413512 0.742074
vt 0.418802 0.742924
vt 0.423278 0.743722
vt 0.419735 0.733397
vt 0.424689 0.735158
vt 0.427943 0.745316
vt 0.326209 0.697161
vt 0.328803 0.700213
vt 0.430497 0.730185
vt 0.414288 0.732932
vt 0.330003 0.707850
vt 0.403909 0.740865
vt 0.403146 0.732049
vt 0.335664 0.718204
vt 0.388926 0.739267
vt 0.388322 0.730268
vt 0.346027 0.727722
vt 0.376709 0.737257
vt 0.376830 0.729525
vt 0.386959 0.724605
vt 0.371010 0.735408
vt 0.371175 0.727753
vt 0.367888 0.733927
vt 0.367649 0.726004
vt 0.364880 0.732983
vt 0.364903 0.724560
vt 0.364631 0.719359
vt 0.709384 0.795856
vt 0.707585 0.803174
vt 0.705446 0.801787
vt 0.707204 0.794397
vt 0.705860 0.809393
vt 0.703178 0.807169
vt 0.364908 0.713982
vt 0.704527 0.813669
vt 0.701882 0.811480
vt 0.364776 0.710901
vt 0.705897 0.818409
vt 0.703068 0.816461
vt 0.701789 0.814542
vt 0.703512 0.821809
vt 0.709159 0.821625
vt 0.706827 0.825053
vt 0.704035 0.829255
vt 0.700780 0.825956
vt 0.710582 0.828897
vt 0.707826 0.833336
vt 0.714230 0.833065
vt 0.711756 0.837496
vt 0.706893 0.843640
vt 0.703557 0.855549
vt 0.707199 0.859010
vt 0.274977 0.730564
vt 0.280857 0.731926
vt 0.271463 0.739360
vt 0.267839 0.736156
vt 0.694100 0.864288
vt 0.265243 0.735014
vt 0.270408 0.728661
vt 0.260482 0.734138
vt 0.266113 0.726714
vt 0.269484 0.717353
vt 0.260332 0.723681
vt 0.265069 0.711973
vt 0.265259 0.706018
vt 0.270357 0.709966
vt 0.272051 0.701012
vt 0.274488 0.707021
vt 0.279883 0.710697
vt 0.280877 0.714912
vt 0.286477 0.714227
vt 0.405014 0.776663
vt 0.417328 0.783643
vt 0.407175 0.784426
vt 0.392209 0.785946
vt 0.390401 0.776710
vt 0.390271 0.766924
vt 0.404519 0.767023
vt 0.389517 0.756977
vt 0.404146 0.758176
vt 0.388912 0.748187
vt 0.403883 0.749721
vt 0.376280 0.745959
vt 0.370352 0.744135
vt 0.367099 0.742973
vt 0.364664 0.751385
vt 0.364581 0.742015
vt 0.362672 0.750706
vt 0.362498 0.741856
vt 0.362064 0.732765
vt 0.359210 0.741602
vt 0.358777 0.733072
vt 0.358618 0.725094
vt 0.362190 0.724577
vt 0.720366 0.794199
vt 0.715575 0.799039
vt 0.712352 0.797609
vt 0.717373 0.792073
vt 0.720780 0.800516
vt 0.726682 0.791645
vt 0.354825 0.734624
vt 0.362329 0.759438
vt 0.363851 0.760899
vt 0.379953 0.785826
vt 0.730235 0.848756
vt 0.739350 0.850221
vt 0.733095 0.854872
vt 0.724185 0.854202
vt 0.373437 0.787493
vt 0.252578 0.740682
vt 0.247750 0.735781
vt 0.253673 0.730542
vt 0.733453 0.845532
vt 0.741572 0.844960
vt 0.370228 0.788992
vt 0.735833 0.841917
vt 0.743773 0.841273
vt 0.750027 0.848887
vt 0.749167 0.851131
vt 0.358611 0.788771
vt 0.366315 0.781752
vt 0.360203 0.789941
vt 0.737191 0.835099
vt 0.745102 0.834258
vt 0.744546 0.837920
vt 0.736730 0.838672
vt 0.355893 0.788694
vt 0.744854 0.830515
vt 0.753079 0.827039
vt 0.754116 0.829958
vt 0.731417 0.835144
vt 0.731388 0.838680
vt 0.727425 0.835086
vt 0.727793 0.838439
vt 0.730331 0.841737
vt 0.727243 0.841194
vt 0.725517 0.838205
vt 0.725438 0.840252
vt 0.724307 0.835565
vt 0.722444 0.831899
vt 0.719766 0.827635
vt 0.722050 0.836363
vt 0.719527 0.833766
vt 0.716638 0.830033
vt 0.713027 0.825777
vt 0.723779 0.838085
vt 0.711830 0.861669
vt 0.716663 0.862896
vt 0.351546 0.739670
vt 0.350150 0.742044
vt 0.754469 0.809919
vt 0.759423 0.819931
vt 0.699631 0.812278
vn 0.8427 0.4342 0.3182
vn 0.7531 0.5038 0.4231
vn 0.7997 0.5999 0.0259
vn 0.8928 0.3783 -0.2446
vn 0.5936 0.7373 0.3225
vn 0.6810 0.7298 0.0596
vn -0.2793 0.7841 0.5542
vn 0.4211 0.7814 0.4605
vn 0.3843 0.9231 -0.0146
vn -0.2505 0.9475 0.1990
vn 0.7978 0.5755 0.1797
vn 0.8657 0.4408 -0.2373
vn 0.7448 0.2434 -0.6213
vn 0.2208 0.8475 -0.4827
vn 0.1665 0.5437 -0.8226
vn -0.4956 0.5037 -0.7075
vn -0.6015 0.7494 -0.2766
vn -0.4421 -0.0743 -0.8939
vn -0.9329 0.0639 -0.3544
vn 0.4201 0.5205 0.7433
vn -0.8066 0.5510 0.2140
vn -0.8970 0.3479 0.2728
vn 0.3590 0.0380 -0.9326
vn -0.3766 0.5216 0.7656
vn 0.6962 0.6947 -0.1807
vn 0.6522 0.6818 -0.3315
vn 0.2612 0.5480 -0.7947
vn 0.5099 -0.5983 0.6181
vn 0.1719 -0.5011 0.8481
vn 0.0851 -0.9129 0.3992
vn 0.1605 -0.9627 0.2176
vn -0.2148 -0.4905 0.8445
vn -0.0798 -0.9213 0.3806
vn 0.0023 -0.9966 0.0824
vn 0.8895 -0.3388 -0.3065
vn 0.7941 -0.3134 -0.5207
vn 0.6481 0.2011 -0.7345
vn 0.9386 0.2273 -0.2595
vn 0.9321 0.2249 -0.2840
vn 0.6025 0.2441 -0.7599
vn 0.1538 -0.2635 -0.9523
vn 0.1122 0.2878 -0.9511
vn 0.3451 -0.2443 -0.9062
vn 0.0957 0.2199 -0.9708
vn -0.0423 -0.1617 -0.9859
vn -0.2459 -0.0983 -0.9643
vn -0.5649 0.3121 -0.7638
vn -0.0322 0.3325 -0.9425
vn -0.0290 0.2226 -0.9745
vn -0.5560 0.2878 -0.7798
vn -0.9339 0.2352 -0.2691
vn -0.9219 0.3567 -0.1513
vn -0.9684 -0.1844 -0.1679
vn -0.8728 -0.0814 -0.4813
vn -0.8739 0.0765 -0.4801
vn -0.3406 0.0752 -0.9372
vn -0.0246 0.0499 -0.9985
vn 0.9398 -0.0456 -0.3387
vn 0.5531 -0.0207 -0.8328
vn 0.5142 -0.3900 -0.7639
vn 0.8628 -0.3499 -0.3649
vn 0.4486 -0.5436 -0.7093
vn 0.5508 -0.7175 -0.4264
vn 0.1888 -0.6077 -0.7714
vn 0.6975 -0.6580 -0.2837
vn 0.0659 -0.0331 -0.9973
vn 0.1109 -0.3134 -0.9431
vn 0.0646 -0.5229 -0.8499
vn 0.6372 -0.7086 0.3030
vn 0.3589 -0.8169 0.4515
vn 0.2792 -0.5504 0.7868
vn 0.7460 -0.4772 0.4645
vn 0.1416 -0.8774 0.4583
vn 0.0241 -0.7996 0.6000
vn 0.8562 -0.0990 0.5071
vn 0.3811 -0.1195 0.9168
vn -0.1952 -0.1415 0.9705
vn -0.2366 -0.5308 0.8138
vn -0.2174 -0.7945 0.5671
vn 0.2960 0.8538 0.4283
vn 0.1676 0.7632 0.6241
vn 0.6809 0.3696 0.6323
vn 0.7390 0.4769 0.4759
vn 0.7124 -0.5344 0.4548
vn 0.4601 -0.5583 0.6904
vn 0.2439 -0.2683 0.9320
vn 0.5426 0.7972 0.2647
vn 0.2991 0.8107 0.5033
vn 0.5225 0.8145 0.2521
vn 0.7630 0.5722 0.3006
vn 0.0068 0.7828 0.6222
vn 0.0517 0.8166 0.5749
vn 0.0374 0.6474 0.7612
vn 0.0501 -0.3023 0.9519
vn -0.7916 0.5414 -0.2832
vn 0.4738 0.6140 -0.6313
vn -0.0214 0.6505 -0.7592
vn -0.4820 0.5487 -0.6831
vn -0.6668 0.6559 -0.3536
vn 0.1980 0.7610 -0.6178
vn 0.0598 0.7119 -0.6997
vn 0.3810 0.6628 -0.6446
vn 0.4588 0.7998 -0.3872
vn 0.6003 0.7848 -0.1543
vn -0.0067 0.7063 -0.7079
vn -0.0228 0.5083 -0.8609
vn -0.1949 0.6930 0.6941
vn 0.3933 0.5408 0.7435
vn -0.5662 0.6342 0.5265
vn -0.0806 0.6933 0.7161
vn -0.2984 0.5486 0.7810
vn 0.3140 0.7777 0.5446
vn -0.6898 0.6724 0.2684
vn -0.6958 0.6619 0.2789
vn -0.7476 0.6271 0.2188
vn -0.4908 0.7985 0.3485
vn -0.3078 0.8041 0.5086
vn -0.7552 0.6509 -0.0770
vn -0.1208 0.7829 0.6103
vn -0.0837 0.8171 0.5703
vn -0.2897 0.8325 0.4723
vn -0.4463 0.5170 -0.7305
vn -0.7644 0.5728 -0.2960
vn -0.0021 0.7395 -0.6731
vn -0.0476 0.7465 -0.6637
vn -0.2315 0.7680 -0.5971
vn -0.1608 0.7531 -0.6379
vn -0.3576 0.8003 -0.4812
vn -0.5671 0.7853 -0.2486
vn -0.5541 0.8048 -0.2129
vn -0.5651 -0.0662 -0.8224
vn -0.9332 -0.0879 -0.3484
vn -0.7751 -0.4606 -0.4326
vn -0.4155 -0.3629 -0.8340
vn -0.9900 -0.1174 -0.0781
vn -0.9123 -0.3969 -0.1009
vn -0.1938 -0.6291 -0.7528
vn -0.5185 -0.6147 -0.5944
vn -0.8261 -0.3540 -0.4385
vn -0.8675 -0.4268 -0.2555
vn -0.8417 -0.5248 -0.1266
vn 0.0023 -1.0000 -0.0051
vn -0.0022 -1.0000 0.0069
vn -0.0041 -1.0000 0.0034
vn -0.0024 -1.0000 -0.0039
vn -0.0468 -0.9967 0.0670
vn -0.0665 -0.9973 0.0300
vn -0.0589 -0.9983 0.0019
vn 0.0053 -0.9998 -0.0173
vn -0.0567 -0.9982 -0.0208
vn -0.3656 -0.9249 0.1041
vn -0.4138 -0.9103 0.0138
vn -0.4355 -0.8996 -0.0326
vn -0.0760 -0.9835 -0.1642
vn -0.4532 -0.8689 -0.1989
vn -0.9331 -0.3581 0.0337
vn -0.9542 -0.2989 -0.0089
vn -0.9798 0.1982 0.0252
vn -0.9631 0.2690 -0.0120
vn -0.9768 0.2141 -0.0051
vn -0.9719 0.2271 -0.0627
vn -0.9976 0.0642 -0.0255
vn -0.9932 0.0606 -0.0991
vn -0.9989 -0.0149 -0.0444
vn -0.9827 -0.0028 -0.1852
vn -0.7025 -0.0041 -0.7116
vn -0.1188 -0.0669 -0.9907
vn -0.1658 -0.0096 -0.9861
vn -0.0160 -0.0689 -0.9975
vn -0.0215 -0.0064 -0.9997
vn 0.0098 -0.0609 -0.9981
vn -0.0010 -0.0060 -1.0000
vn -0.0053 0.0502 -0.9987
vn 0.0099 -0.0044 -0.9999
vn 0.0092 0.0518 -0.9986
vn 0.0127 0.2328 -0.9724
vn -0.0086 0.2349 -0.9720
vn 0.0180 0.2914 -0.9564
vn -0.0034 0.3039 -0.9527
vn 0.0480 -0.2669 -0.9625
vn 0.0206 -0.2125 -0.9769
vn 0.0582 -0.8566 -0.5127
vn 0.0360 -0.8388 -0.5433
vn -0.0730 -0.8199 -0.5679
vn 0.0221 -0.9905 -0.1358
vn -0.4523 -0.6282 -0.6331
vn 0.0329 -0.9875 -0.1542
vn 0.0102 -0.9995 -0.0288
vn 0.1003 -0.9726 -0.2098
vn 0.0361 -0.9979 -0.0542
vn 0.0097 -0.9999 -0.0037
vn 0.3215 -0.9409 -0.1065
vn 0.2554 -0.9667 0.0174
vn 0.1901 -0.9760 0.1067
vn 0.0113 -0.9998 0.0186
vn 0.8080 -0.5872 0.0478
vn 0.6751 -0.6652 0.3190
vn 0.9948 0.0917 0.0446
vn 0.9169 0.0104 0.3990
vn 0.6164 0.0576 0.7853
vn 0.8850 0.2818 0.3707
vn 0.5631 0.2825 0.7766
vn 0.1028 0.2463 0.9637
vn 0.1442 0.0892 0.9855
vn -0.3336 0.2103 0.9190
vn -0.2944 0.0666 0.9534
vn -0.7693 0.2142 0.6019
vn -0.7389 0.0846 0.6685
vn -0.6052 -0.4962 0.6225
vn -0.9668 0.1369 0.2160
vn -0.8727 -0.4429 0.2055
vn -0.2314 -0.9320 0.2791
vn -0.9580 0.2171 0.1875
vn -0.8467 0.0782 0.5263
vn -0.9858 0.0737 0.1512
vn -0.9018 -0.0191 0.4317
vn -0.9952 -0.0233 0.0949
vn -0.9253 -0.1494 0.3486
vn -0.9882 -0.1426 0.0560
vn -0.8274 -0.4896 0.2752
vn -0.9005 -0.4335 0.0346
vn -0.6712 -0.7156 0.1935
vn -0.7694 -0.6385 -0.0192
vn -0.9521 -0.1962 0.2345
vn -0.9962 -0.0544 -0.0682
vn -0.9564 0.2336 -0.1751
vn -0.6788 0.7321 -0.0568
vn -0.5530 0.8200 -0.1474
vn -0.3917 0.8714 -0.2955
vn -0.8543 0.4491 -0.2617
vn -0.2412 0.7505 -0.6152
vn -0.6346 0.4980 -0.5910
vn -0.0519 0.1930 -0.9798
vn -0.1692 -0.0303 -0.9851
vn -0.4079 -0.1364 -0.9028
vn -0.0311 -0.4970 -0.8672
vn -0.0004 0.2283 -0.9736
vn 0.0085 -0.4326 -0.9016
vn -0.0105 -0.2774 -0.9607
vn -0.1126 -0.2921 -0.9497
vn 0.0180 -0.4316 -0.9019
vn 0.0253 -0.2809 -0.9594
vn 0.0236 -0.4631 -0.8860
vn 0.0368 -0.2992 -0.9535
vn 0.0203 -0.0518 -0.9985
vn 0.0348 -0.0029 -0.9994
vn 0.5567 0.0001 -0.8307
vn 0.5731 0.0532 -0.8178
vn 0.0556 0.0433 -0.9975
vn 0.9565 0.0010 -0.2919
vn 0.9544 0.0708 -0.2901
vn 0.9904 -0.0025 -0.1383
vn 0.9867 0.0836 -0.1394
vn 0.9595 0.2395 -0.1482
vn 0.9952 0.0966 0.0171
vn 0.9619 0.2721 0.0266
vn 0.9758 0.1597 -0.1494
vn 0.8710 -0.4661 -0.1551
vn 0.3744 -0.8859 -0.2738
vn 0.4255 -0.6843 -0.5922
vn 0.1531 -0.8396 -0.5211
vn 0.9121 0.1094 0.3950
vn 0.9998 -0.0021 0.0201
vn 0.8929 0.0050 0.4502
vn 0.4455 -0.0006 0.8953
vn 0.5201 0.1153 0.8463
vn -0.0717 0.0029 0.9974
vn 0.0450 0.1027 0.9937
vn -0.5604 0.0005 0.8282
vn -0.4265 0.0893 0.9001
vn -0.6612 -0.1447 0.7361
vn -0.6228 -0.5182 0.5862
vn -0.5040 -0.7625 0.4057
vn -0.3848 -0.5283 0.7569
vn -0.7599 -0.3720 0.5331
vn -0.4910 0.3993 0.7743
vn -0.6980 0.5339 0.4773
vn -0.7362 0.6551 0.1700
vn -0.4752 0.8182 0.3235
vn -0.5619 0.8185 0.1192
vn -0.5969 0.7989 -0.0734
vn -0.5935 0.7936 0.1340
vn -0.6320 0.7720 -0.0673
vn -0.7854 0.6159 -0.0623
vn -0.1222 0.3961 0.9100
vn -0.0373 -0.4067 0.9128
vn 0.9942 -0.0976 0.0444
vn 0.9146 -0.3708 -0.1612
vn 0.9161 -0.3951 0.0688
vn 0.9846 -0.0838 -0.1537
vn 0.7636 -0.6314 -0.1347
vn 0.7800 -0.6225 0.0643
vn 0.9764 -0.1383 -0.1659
vn 0.9848 -0.1478 0.0916
vn 0.9033 -0.2709 0.3327
vn 0.7729 0.6315 0.0622
vn 0.5734 0.8081 -0.1349
vn 0.5950 0.8031 0.0302
vn 0.7321 0.6667 -0.1395
vn 0.6082 0.7931 0.0319
vn 0.4980 0.8274 -0.2597
vn 0.6661 0.7061 -0.2402
vn 0.3177 0.8433 -0.4335
vn 0.5675 0.7397 -0.3617
vn 0.9331 -0.1610 -0.3215
vn 0.8898 -0.1181 -0.4408
vn 0.4847 0.5842 -0.6510
vn 0.7673 -0.2370 -0.5959
vn 0.1201 0.8436 -0.5233
vn 0.0492 0.7806 -0.6231
vn 0.0165 0.7458 -0.6660
vn 0.0942 0.1578 -0.9830
vn 0.0193 0.2101 -0.9775
vn 0.0112 0.2436 -0.9698
vn 0.0025 0.2435 -0.9699
vn 0.2912 0.2103 -0.9333
f 1/1/1 2/2/2 3/3/3 4/4/4
f 5/5/5 6/6/6 3/3/3 2/2/2
f 7/7/7 8/8/8 9/9/9 10/10/10
f 11/11/11 12/12/12 9/9/9 8/8/8
f 13/13/13 14/14/14 9/9/9 12/12/12
f 15/15/15 16/16/16 17/17/17 14/14/14
f 18/18/18 19/19/19 17/17/17 16/16/16
f 20/20/20 1/1/1 11/11/11 8/8/8
f 4/4/4 12/12/12 11/11/11 1/1/1
f 7/7/7 10/10/10 17/17/17 21/21/21
f 22/22/22 21/21/21 17/17/17 19/19/19
f 23/23/23 15/15/15 14/14/14 13/13/13
f 24/24/24 7/7/7 21/21/21 22/22/22
f 25/25/25 26/26/26 3/3/3 6/6/6
f 27/27/27 4/4/4 3/3/3 26/26/26
f 28/28/28 29/29/29 30/30/30 31/31/31
f 32/32/32 33/33/33 30/30/30 29/29/29
f 34/34/34 31/31/31 30/30/30 33/33/33
f 35/35/35 36/36/36 37/37/37 38/38/38
f 39/39/39 38/38/38 37/37/37 40/40/40
f 41/41/41 42/42/42 37/37/37 43/43/43
f 44/44/44 40/40/40 37/37/37 42/42/42
f 45/45/45 46/46/46 47/47/47 48/48/48
f 49/49/49 48/48/48 47/47/47 50/50/50
f 51/51/51 50/50/50 47/47/47 52/52/52
f 53/53/53 52/52/52 47/47/47 54/54/54
f 55/55/55 56/56/56 50/57/50 51/58/51
f 57/59/57 49/60/49 50/57/50 56/56/56
f 58/61/58 59/62/59 60/63/60 61/64/61
f 62/65/62 63/66/63 60/63/60 64/67/64
f 65/68/65 61/64/61 60/63/60 63/66/63
f 66/69/66 67/70/67 60/63/60 59/62/59
f 68/71/68 64/67/64 60/63/60 67/70/67
f 69/72/69 70/73/70 71/74/71 72/75/72
f 73/76/73 74/77/74 71/74/71 70/73/70
f 75/78/75 72/75/72 71/74/71 76/79/76
f 77/80/77 76/79/76 71/74/71 78/81/78
f 79/82/79 78/81/78 71/74/71 74/77/74
f 80/83/80 81/84/81 82/85/82 83/86/83
f 84/87/84 83/86/83 82/85/82 85/88/85
f 86/89/86 85/88/85 82/85/82 81/84/81
f 87/90/87 88/91/88 80/83/80 89/92/89
f 90/93/90 89/92/89 80/83/80 83/86/83
f 91/94/91 92/95/92 80/83/80 88/91/88
f 93/96/93 81/84/81 80/83/80 92/95/92
f 93/96/93 94/97/94 86/89/86 81/84/81
f 73/76/73 85/88/85 86/89/86 94/97/94
f 13/13/13 27/27/27 18/18/18 23/23/23
f 95/98/95 19/19/19 18/18/18 27/27/27
f 12/12/12 4/4/4 27/27/27 13/13/13
f 96/99/96 97/100/97 27/27/27 26/26/26
f 98/101/98 99/102/99 27/27/27 97/100/97
f 100/103/100 101/104/101 102/105/102 103/106/103
f 104/107/104 103/106/103 102/105/102 25/25/25
f 105/108/105 106/109/106 102/105/102 101/104/101
f 26/26/26 25/25/25 102/105/102 96/99/96
f 20/20/20 24/24/24 107/110/107 108/111/108
f 109/112/109 110/113/110 107/114/107 111/115/111
f 112/116/112 108/117/108 107/114/107 110/113/110
f 22/22/22 113/118/113 107/110/107 24/24/24
f 114/119/114 111/120/111 107/110/107 113/118/113
f 115/121/115 109/122/109 111/120/111 114/119/114
f 116/123/116 117/124/117 110/113/110 109/112/109
f 118/125/118 95/98/95 27/27/27 99/102/99
f 92/95/92 91/94/91 119/126/119 120/127/120
f 110/113/110 117/124/117 119/126/119 91/94/91
f 121/128/121 120/127/120 119/126/119 117/124/117
f 106/109/106 122/129/122 98/101/98 97/100/97
f 123/130/123 99/102/99 98/101/98 122/129/122
f 124/131/124 125/132/125 126/133/126 105/108/105
f 127/134/127 128/135/128 126/133/126 125/132/125
f 106/109/106 105/108/105 126/133/126 122/129/122
f 123/130/123 122/129/122 126/133/126 129/136/129
f 130/137/130 129/136/129 126/133/126 128/135/128
f 131/138/131 132/139/132 133/140/133 134/141/134
f 135/142/135 136/143/136 133/144/133 132/145/132
f 137/146/137 134/141/134 133/140/133 138/147/138
f 139/148/139 138/149/138 133/144/133 140/150/140
f 141/151/141 140/150/140 133/144/133 136/143/136
f 142/152/142 143/153/143 144/154/144 145/155/145
f 146/156/146 147/157/147 144/158/144 143/159/143
f 148/160/148 145/155/145 144/154/144 147/161/147
f 149/162/149 145/155/145 148/160/148 150/163/150
f 151/164/151 152/165/152 148/166/148 147/157/147
f 153/167/153 150/163/150 148/160/148 152/168/152
f 154/169/154 150/163/150 153/167/153 155/170/155
f 156/171/156 157/172/157 153/167/153 152/168/152
f 53/53/53 155/170/155 153/167/153 157/172/157
f 158/173/158 159/174/159 157/172/157 156/171/156
f 52/52/52 53/53/53 157/172/157 159/174/159
f 160/175/160 161/176/161 159/174/159 158/173/158
f 51/51/51 52/52/52 159/174/159 161/176/161
f 162/177/162 163/178/163 161/176/161 160/175/160
f 55/179/55 51/51/51 161/176/161 163/178/163
f 164/180/164 165/181/165 163/178/163 162/177/162
f 166/182/166 55/179/55 163/178/163 165/181/165
f 132/139/132 131/138/131 166/183/166 165/184/165
f 167/185/167 168/186/168 166/183/166 131/138/131
f 56/56/56 55/55/55 166/183/166 168/186/168
f 169/187/169 170/188/170 168/186/168 167/185/167
f 57/59/57 56/56/56 168/186/168 170/188/170
f 171/189/171 172/190/172 170/188/170 169/187/169
f 173/191/173 57/59/57 170/188/170 172/190/172
f 174/192/174 175/193/175 173/191/173 172/190/172
f 176/194/176 177/195/177 173/196/173 175/197/175
f 49/60/49 57/59/57 173/191/173 177/198/177
f 178/199/178 179/200/179 177/195/177 176/194/176
f 48/48/48 49/49/49 177/195/177 179/200/179
f 180/201/180 181/202/181 179/200/179 178/199/178
f 45/45/45 48/48/48 179/200/179 181/202/181
f 182/203/182 183/204/183 181/202/181 180/201/180
f 184/205/184 45/45/45 181/202/181 183/204/183
f 185/206/185 154/169/154 184/205/184 183/204/183
f 155/170/155 186/207/186 184/205/184 154/169/154
f 46/46/46 45/45/45 184/205/184 186/207/186
f 182/203/182 187/208/187 185/206/185 183/204/183
f 188/209/188 149/162/149 185/206/185 187/208/187
f 150/163/150 154/169/154 185/206/185 149/162/149
f 189/210/189 190/211/190 188/209/188 187/208/187
f 191/212/191 142/152/142 188/209/188 190/211/190
f 145/155/145 149/162/149 188/209/188 142/152/142
f 192/213/192 193/214/193 191/212/191 190/211/190
f 194/215/194 195/216/195 191/217/191 193/218/193
f 143/159/143 142/219/142 191/217/191 195/216/195
f 31/31/31 34/34/34 195/216/195 194/215/194
f 146/156/146 143/159/143 195/216/195 34/34/34
f 196/220/196 197/221/197 194/215/194 193/218/193
f 28/28/28 31/31/31 194/215/194 197/221/197
f 198/222/198 199/223/199 197/221/197 196/220/196
f 200/224/200 28/28/28 197/221/197 199/223/199
f 201/225/201 202/226/202 200/224/200 199/223/199
f 203/227/203 204/228/204 200/224/200 202/226/202
f 29/29/29 28/28/28 200/224/200 204/228/204
f 205/229/205 206/230/206 204/228/204 203/227/203
f 32/32/32 29/29/29 204/228/204 206/230/206
f 207/231/207 208/232/208 206/230/206 205/229/205
f 209/233/209 32/32/32 206/230/206 208/232/208
f 210/234/210 211/235/211 209/233/209 208/232/208
f 151/164/151 212/236/212 209/233/209 211/235/211
f 33/33/33 32/32/32 209/233/209 212/236/212
f 147/157/147 146/156/146 212/236/212 151/164/151
f 34/34/34 33/33/33 212/236/212 146/156/146
f 158/173/158 156/171/156 211/237/211 210/238/210
f 152/165/152 151/164/151 211/235/211 156/239/156
f 207/231/207 213/240/213 210/234/210 208/232/208
f 160/175/160 158/173/158 210/238/210 213/241/213
f 214/242/214 215/243/215 213/240/213 207/231/207
f 162/177/162 160/175/160 213/241/213 215/244/215
f 216/245/216 217/246/217 215/243/215 214/242/214
f 164/180/164 162/177/162 215/244/215 217/247/217
f 218/248/218 219/249/219 217/246/217 216/245/216
f 135/142/135 164/250/164 217/246/217 219/249/219
f 220/251/220 221/252/221 219/249/219 218/248/218
f 136/143/136 135/142/135 219/249/219 221/252/221
f 222/253/222 223/254/223 221/252/221 220/251/220
f 141/151/141 136/143/136 221/252/221 223/254/223
f 224/255/224 225/256/225 223/254/223 222/253/222
f 226/257/226 141/151/141 223/254/223 225/256/225
f 227/258/227 228/259/228 226/260/226 225/261/225
f 229/262/229 230/263/230 226/260/226 228/259/228
f 140/150/140 141/151/141 226/257/226 230/264/230
f 231/265/231 232/266/232 230/263/230 229/262/229
f 139/148/139 140/150/140 230/264/230 232/267/232
f 128/135/128 127/134/127 231/265/231 229/262/229
f 233/268/233 234/269/234 231/265/231 127/134/127
f 235/270/235 232/266/232 231/265/231 234/269/234
f 236/271/236 137/146/137 234/269/234 233/268/233
f 138/147/138 235/270/235 234/269/234 137/146/137
f 237/272/237 238/273/238 236/271/236 233/268/233
f 239/274/239 240/275/240 236/271/236 238/273/238
f 134/141/134 137/146/137 236/271/236 240/275/240
f 169/187/169 167/185/167 240/275/240 239/274/239
f 131/138/131 134/141/134 240/275/240 167/185/167
f 241/276/241 242/277/242 239/274/239 238/273/238
f 171/189/171 169/187/169 239/274/239 242/277/242
f 243/278/243 244/279/244 242/277/242 241/276/241
f 245/280/245 171/189/171 242/277/242 244/279/244
f 67/70/67 66/69/66 245/280/245 244/279/244
f 246/281/246 174/192/174 245/280/245 66/69/66
f 172/190/172 171/189/171 245/280/245 174/192/174
f 59/62/59 247/282/247 246/281/246 66/69/66
f 248/283/248 249/284/249 246/285/246 247/286/247
f 175/193/175 174/192/174 246/281/246 249/287/249
f 40/40/40 44/44/44 249/284/249 248/283/248
f 176/194/176 175/197/175 249/284/249 44/44/44
f 250/288/250 251/289/251 248/283/248 247/286/247
f 39/39/39 40/40/40 248/283/248 251/289/251
f 252/290/252 253/291/253 251/289/251 250/288/250
f 254/292/254 39/39/39 251/289/251 253/291/253
f 255/293/255 256/294/256 254/292/254 253/291/253
f 198/295/198 257/296/257 254/292/254 256/294/256
f 38/38/38 39/39/39 254/292/254 257/296/257
f 196/297/196 258/298/258 257/296/257 198/295/198
f 35/35/35 38/38/38 257/296/257 258/298/258
f 193/214/193 192/213/192 258/298/258 196/297/196
f 259/299/259 35/35/35 258/298/258 192/213/192
f 36/36/36 35/35/35 259/299/259 260/300/260
f 190/211/190 189/210/189 259/299/259 192/213/192
f 261/301/261 260/300/260 259/299/259 189/210/189
f 43/43/43 260/300/260 261/301/261 41/41/41
f 187/208/187 182/203/182 261/301/261 189/210/189
f 180/201/180 41/41/41 261/301/261 182/203/182
f 262/302/262 201/225/201 256/303/256 255/304/255
f 199/223/199 198/222/198 256/303/256 201/225/201
f 263/305/263 264/306/264 262/302/262 255/304/255
f 265/307/265 266/308/266 262/302/262 264/306/264
f 202/226/202 201/225/201 262/302/262 266/308/266
f 267/309/267 268/310/268 266/308/266 265/307/265
f 203/227/203 202/226/202 266/308/266 268/310/268
f 269/311/269 270/312/270 268/310/268 267/309/267
f 205/229/205 203/227/203 268/310/268 270/312/270
f 216/245/216 214/242/214 270/312/270 269/311/269
f 207/231/207 205/229/205 270/312/270 214/242/214
f 77/80/77 271/313/271 269/311/269 267/309/267
f 218/248/218 216/245/216 269/311/269 271/313/271
f 78/81/78 272/314/272 271/313/271 77/80/77
f 220/251/220 218/248/218 271/313/271 272/314/272
f 79/82/79 273/315/273 272/314/272 78/81/78
f 222/253/222 220/251/220 272/314/272 273/315/273
f 274/316/274 275/317/275 273/315/273 79/82/79
f 224/255/224 222/253/222 273/315/273 275/317/275
f 276/318/276 277/319/277 275/317/275 274/316/274
f 278/320/278 224/255/224 275/317/275 277/319/277
f 279/321/279 280/322/280 278/320/278 277/319/277
f 281/323/281 227/324/227 278/320/278 280/322/280
f 225/256/225 224/255/224 278/320/278 227/324/227
f 282/325/282 283/326/283 281/327/281 280/328/280
f 129/136/129 130/137/130 281/327/281 283/326/283
f 228/259/228 227/258/227 281/327/281 130/137/130
f 115/121/115 284/329/284 283/326/283 282/325/282
f 123/130/123 129/136/129 283/326/283 284/329/284
f 114/119/114 118/125/118 284/329/284 115/121/115
f 99/102/99 123/130/123 284/329/284 118/125/118
f 109/122/109 115/121/115 282/325/282 116/330/116
f 279/321/279 116/123/116 282/331/282 280/322/280
f 117/124/117 116/123/116 279/321/279 121/128/121
f 276/318/276 121/128/121 279/321/279 277/319/277
f 120/127/120 121/128/121 276/318/276 285/332/285
f 286/333/286 285/332/285 276/318/276 274/316/274
f 93/96/93 285/332/285 286/333/286 94/97/94
f 79/82/79 74/77/74 286/333/286 274/316/274
f 73/76/73 94/97/94 286/333/286 74/77/74
f 92/95/92 120/127/120 285/332/285 93/96/93
f 76/79/76 77/80/77 267/309/267 265/307/265
f 75/78/75 76/79/76 265/307/265 264/306/264
f 287/334/287 75/78/75 264/306/264 263/305/263
f 288/335/288 289/336/289 287/337/287 290/338/290
f 72/75/72 75/78/75 287/334/287 289/339/289
f 252/290/252 290/340/290 287/341/287 263/342/263
f 291/343/291 292/344/292 289/336/289 288/335/288
f 69/72/69 72/75/72 289/339/289 292/345/292
f 293/346/293 294/347/294 292/344/292 291/343/291
f 295/348/295 69/349/69 292/344/292 294/347/294
f 296/350/296 90/93/90 295/351/295 294/352/294
f 83/86/83 84/87/84 295/351/295 90/93/90
f 70/73/70 69/72/69 295/351/295 84/87/84
f 297/353/297 298/354/298 296/355/296 299/356/299
f 89/92/89 90/93/90 296/350/296 298/357/298
f 293/346/293 299/356/299 296/355/296 294/347/294
f 104/107/104 300/358/300 298/354/298 297/353/297
f 87/359/87 89/360/89 298/354/298 300/358/300
f 25/25/25 6/6/6 300/358/300 104/107/104
f 5/5/5 87/359/87 300/358/300 6/6/6
f 103/106/103 104/107/104 297/353/297 301/361/301
f 302/362/302 301/361/301 297/353/297 299/356/299
f 303/363/303 301/361/301 302/362/302 304/364/304
f 293/346/293 305/365/305 302/362/302 299/356/299
f 306/366/306 304/364/304 302/362/302 305/365/305
f 307/367/307 304/364/304 306/366/306 308/368/308
f 65/68/65 63/66/63 306/366/306 305/365/305
f 62/65/62 308/368/308 306/366/306 63/66/63
f 291/343/291 65/68/65 305/365/305 293/346/293
f 103/106/103 301/361/301 303/363/303 100/103/100
f 307/367/307 309/369/309 303/363/303 304/364/304
f 310/370/310 100/103/100 303/363/303 309/369/309
f 101/104/101 100/103/100 310/370/310 311/371/311
f 312/372/312 313/373/313 310/370/310 309/369/309
f 314/374/314 311/371/311 310/370/310 313/373/313
f 124/131/124 311/371/311 314/374/314 315/375/315
f 68/71/68 243/278/243 314/374/314 313/373/313
f 241/276/241 315/375/315 314/374/314 243/278/243
f 125/132/125 124/131/124 315/375/315 237/272/237
f 238/273/238 237/272/237 315/375/315 241/276/241
f 64/67/64 68/71/68 313/373/313 312/372/312
f 307/367/307 316/376/316 312/372/312 309/369/309
f 62/65/62 64/67/64 312/372/312 316/376/316
f 105/108/105 101/104/101 311/371/311 124/131/124
f 61/64/61 65/68/65 291/343/291 288/335/288
f 58/61/58 61/64/61 288/335/288 290/338/290
f 250/377/250 58/61/58 290/338/290 252/378/252
f 253/291/253 252/290/252 263/342/263 255/293/255
f 59/62/59 58/61/58 250/377/250 247/282/247
f 68/71/68 67/70/67 244/279/244 243/278/243
f 127/134/127 125/132/125 237/272/237 233/268/233
f 130/137/130 128/135/128 229/262/229 228/259/228
f 42/42/42 41/41/41 180/201/180 178/199/178
f 44/44/44 42/42/42 178/199/178 176/194/176
f 135/379/135 132/380/132 165/181/165 164/180/164
f 54/54/54 186/207/186 155/170/155 53/53/53
f 113/118/113 95/98/95 118/125/118 114/119/114
f 19/19/19 95/98/95 113/118/113 22/22/22
f 2/2/2 108/111/108 112/381/112 5/5/5
f 91/94/91 88/91/88 112/116/112 110/113/110
f 87/359/87 5/5/5 112/381/112 88/382/88
f 1/1/1 20/20/20 108/111/108 2/2/2
f 73/76/73 70/73/70 84/87/84 85/88/85
f 8/8/8 7/7/7 24/24/24 20/20/20
f 18/18/18 16/16/16 15/15/15 23/23/23
f 260/300/260 43/43/43 37/37/37 36/36/36
f 186/207/186 54/54/54 47/47/47 46/46/46
f 307/367/307 308/368/308 62/65/62 316/376/316
f 232/266/232 235/270/235 138/147/138 139/383/139
f 17/17/17 10/10/10 9/9/9 14/14/14
f 102/105/102 106/109/106 97/100/97 96/99/96
