# split from a merged terrain OBJ by scripts/split-terrain-obj-parts.py
o part-035
v -0.899291 0.257679 -0.016635
v -0.905824 0.263881 -0.012756
v -0.907927 0.273409 -0.016066
v -0.900573 0.275616 -0.018687
v -0.899256 0.294549 -0.019564
v -0.906786 0.291378 -0.018192
v -0.907910 0.288129 -0.012938
v -0.897742 0.235799 -0.013839
v -0.904614 0.242289 -0.010313
v -0.897855 0.235147 -0.002691
v -0.901659 0.260514 -0.004712
v -0.903113 0.286291 -0.007582
v -0.891130 0.233310 -0.013797
v -0.887676 0.217505 -0.009782
v -0.892431 0.223108 -0.011029
v -0.888435 0.227243 -0.001574
v -0.853383 0.188227 -0.000899
v -0.857771 0.182092 -0.003744
v -0.854196 0.182797 -0.007580
v -0.850525 0.188944 -0.004429
v -0.859484 0.191642 -0.005321
v -0.855352 0.190966 -0.007632
v -0.863071 0.184645 0.005763
v -0.867388 0.185084 0.005350
v -0.868306 0.183328 0.002459
v -0.864764 0.181629 0.000428
v -0.866033 0.195895 0.008633
v -0.870738 0.193844 0.005611
v -0.872511 0.190977 0.001249
v -0.856409 0.187489 0.001912
v -0.859320 0.183549 -0.001222
v -0.863057 0.191608 -0.003310
v -0.879827 0.200436 -0.006050
v -0.879485 0.205370 -0.000479
v -0.875111 0.208343 0.005045
v -0.880108 0.229929 0.004462
v -0.884190 0.260896 0.003811
v -0.893753 0.257987 -0.002931
v -0.873253 0.200887 -0.006971
v -0.880153 0.215978 -0.011836
v -0.883957 0.233049 -0.013474
v -0.876399 0.331904 -0.012257
v -0.877967 0.334240 -0.008733
v -0.884418 0.334053 -0.008925
v -0.881265 0.332307 -0.012634
v -0.884998 0.328976 -0.011866
v -0.882518 0.327776 -0.005329
v -0.878682 0.339796 -0.012111
v -0.885348 0.339818 -0.014740
v -0.896503 0.339735 -0.006797
v -0.891283 0.331663 -0.003725
v -0.892297 0.343616 -0.010212
v -0.899813 0.345965 -0.013424
v -0.900688 0.347146 -0.008067
v -0.901845 0.337381 -0.006131
v -0.905800 0.345468 -0.007987
v -0.880167 0.336128 -0.014925
v -0.886108 0.336188 -0.015554
v -0.894096 0.336409 -0.016455
v -0.894371 0.329151 -0.016305
v -0.895478 0.319986 -0.017075
v -0.886336 0.320188 -0.014365
v -0.886599 0.324725 -0.001164
v -0.876324 0.317039 -0.011266
v -0.875090 0.321825 -0.007395
v -0.875059 0.322452 -0.001781
v -0.822368 0.320287 -0.009243
v -0.816140 0.320128 -0.006863
v -0.815758 0.318355 -0.004930
v -0.822868 0.318390 -0.005388
v -0.822939 0.322253 -0.004359
v -0.816693 0.321119 -0.003588
v -0.816058 0.321755 -0.005272
v -0.822345 0.324135 -0.007005
v -0.829965 0.323940 -0.004941
v -0.830544 0.318095 -0.003828
v -0.829767 0.321894 -0.011176
v -0.837323 0.313873 0.000246
v -0.834104 0.310387 -0.005680
v -0.837191 0.320542 -0.001684
v -0.837705 0.324762 -0.004120
v -0.840223 0.311454 -0.011451
v -0.839192 0.318706 -0.011693
v -0.837630 0.323693 -0.012346
v -0.863184 0.332308 -0.014318
v -0.857600 0.330693 -0.013789
v -0.861203 0.326794 -0.009369
v -0.865853 0.328987 -0.010836
v -0.851555 0.329230 -0.013389
v -0.854755 0.325441 -0.007707
v -0.867610 0.334358 -0.007311
v -0.863480 0.335177 -0.006422
v -0.862276 0.335226 -0.009372
v -0.856789 0.333800 -0.007568
v -0.852455 0.328532 -0.006130
v -0.850280 0.331481 -0.008503
v -0.856942 0.332076 -0.005642
v -0.859907 0.337524 -0.005631
v -0.860240 0.337864 -0.004000
v -0.846500 0.325194 -0.004753
v -0.848980 0.321386 -0.009947
v -0.845187 0.326715 -0.013224
v -0.858209 0.328725 -0.004875
v -0.836946 0.327989 -0.008840
v -0.844205 0.329932 -0.008919
v -0.845706 0.321295 -0.001713
v -0.853858 0.321070 -0.004135
v -0.848753 0.313731 -0.011188
v -0.856483 0.314575 -0.009569
v -0.845377 0.315823 0.000545
v -0.854047 0.316491 0.000700
v -0.864812 0.317489 -0.000007
v -0.862740 0.320609 -0.005252
v -0.865807 0.314825 -0.009262
v -0.867679 0.336754 -0.010572
v -0.906543 0.346755 -0.014930
v -0.906810 0.348818 -0.011116
v -0.901239 0.335697 -0.017964
v -0.907835 0.333559 -0.018284
v -0.908164 0.341472 -0.017896
v -0.900578 0.341817 -0.016528
v -0.909441 0.333351 -0.012332
v -0.912911 0.339462 -0.012807
v -0.918427 0.343987 -0.013663
v -0.916057 0.344514 -0.017127
v -0.913316 0.347528 -0.016072
v -0.911297 0.344029 -0.009506
v -0.906181 0.335634 -0.008123
v -0.912122 0.349055 -0.012722
v -0.917949 0.347008 -0.011647
v -0.919515 0.349047 -0.013971
v -0.921448 0.347567 -0.014487
v -0.919936 0.346866 -0.016123
v -0.918755 0.348383 -0.015753
v -0.866374 0.312042 0.000876
v -0.878857 0.317314 0.000092
v -0.884914 0.307655 0.000208
v -0.868135 0.303470 0.000157
v -0.892819 0.320466 -0.001878
v -0.869411 0.289031 0.001698
v -0.885172 0.288722 0.002074
v -0.900191 0.317871 -0.004922
v -0.898004 0.306172 -0.004229
v -0.896215 0.286769 -0.004117
v -0.904446 0.305299 -0.008952
v -0.908375 0.306376 -0.014316
v -0.906230 0.317145 -0.010239
v -0.908928 0.317372 -0.016524
v -0.904874 0.307486 -0.018465
v -0.903115 0.318434 -0.018639
v -0.907668 0.325894 -0.011258
v -0.908698 0.326118 -0.017703
v -0.901941 0.327677 -0.018373
v -0.902708 0.326988 -0.006442
v -0.897471 0.328846 -0.003842
v -0.897442 0.309233 -0.018056
v -0.891695 0.297588 -0.017299
v -0.889373 0.310626 -0.015890
v -0.885001 0.280917 -0.014849
v -0.893402 0.278675 -0.017790
v -0.883164 0.299259 -0.014640
v -0.879261 0.309936 -0.013988
v -0.868142 0.308246 -0.012104
v -0.870962 0.298489 -0.013637
v -0.858328 0.306891 -0.011844
v -0.860050 0.296753 -0.013090
v -0.861766 0.282540 -0.013047
v -0.873660 0.282530 -0.013253
v -0.863032 0.260010 -0.011591
v -0.875124 0.259550 -0.012006
v -0.885354 0.258088 -0.014974
v -0.874879 0.234561 -0.011065
v -0.892702 0.256868 -0.016344
v -0.865270 0.216848 -0.007151
v -0.872910 0.216646 -0.008979
v -0.865395 0.235217 -0.009723
v -0.862735 0.204135 -0.005818
v -0.867844 0.203397 -0.005270
v -0.866996 0.190679 -0.002765
v -0.861423 0.182832 -0.000561
v -0.870712 0.189353 -0.001915
v -0.859603 0.186064 0.004592
v -0.855381 0.198269 0.004887
v -0.860280 0.196994 0.008016
v -0.854108 0.211755 0.007226
v -0.860745 0.211084 0.010251
v -0.867569 0.210624 0.009331
v -0.859635 0.234962 0.010515
v -0.868911 0.234404 0.010576
v -0.857046 0.263559 0.005654
v -0.870094 0.264059 0.006332
v -0.855587 0.286729 0.001793
v -0.845147 0.298451 0.002035
v -0.854668 0.300542 0.000763
v -0.845358 0.284471 0.003461
v -0.847540 0.261187 0.005429
v -0.838410 0.282646 0.001571
v -0.841626 0.259319 0.001659
v -0.851258 0.233396 0.008024
v -0.847189 0.232753 0.002063
v -0.843321 0.259275 -0.005300
v -0.845334 0.232723 -0.004396
v -0.850350 0.212511 0.001574
v -0.847382 0.213232 -0.003989
v -0.849443 0.233332 -0.008591
v -0.850838 0.214492 -0.008500
v -0.851485 0.199437 0.000713
v -0.848651 0.200392 -0.004363
v -0.851190 0.201823 -0.008976
v -0.857905 0.215781 -0.008327
v -0.856793 0.203116 -0.008145
v -0.851803 0.192633 -0.008299
v -0.856823 0.234347 -0.009407
v -0.853782 0.259651 -0.011417
v -0.845939 0.259185 -0.010620
v -0.852299 0.282234 -0.012562
v -0.844004 0.282014 -0.011486
v -0.840331 0.282135 -0.004934
v -0.843258 0.294430 -0.011430
v -0.838363 0.295058 -0.004795
v -0.837241 0.296399 0.001889
v -0.836861 0.304459 -0.005196
v -0.837747 0.306012 0.001223
v -0.845228 0.308103 0.001104
v -0.854598 0.309895 0.000821
v -0.841879 0.304041 -0.011508
v -0.849882 0.305493 -0.012322
v -0.851399 0.295238 -0.012762
v -0.893144 0.341839 -0.015420
v -0.868942 0.333918 -0.014475
v -0.874584 0.335161 -0.014718
v -0.873176 0.338266 -0.011345
v -0.872584 0.334004 -0.008153
v -0.871084 0.330889 -0.011678
v -0.829553 0.326297 -0.009047
vt 0.898515 0.137168
vt 0.896370 0.132123
vt 0.899939 0.127816
vt 0.903837 0.129281
vt 0.909533 0.121383
vt 0.904967 0.120424
vt 0.901416 0.119993
vt 0.892315 0.146849
vt 0.889853 0.142372
vt 0.586299 0.767979
vt 0.575806 0.776458
vt 0.571384 0.774200
vt 0.580097 0.766195
vt 0.565054 0.784850
vt 0.561673 0.782950
vt 0.894558 0.149934
vt 0.890810 0.157833
vt 0.890143 0.153271
vt 0.884376 0.153280
vt 0.885333 0.147077
vt 0.900405 0.185885
vt 0.893430 0.183595
vt 0.896683 0.182420
vt 0.900831 0.182824
vt 0.895993 0.177871
vt 0.898281 0.179501
vt 0.620074 0.766713
vt 0.617762 0.765350
vt 0.617910 0.763856
vt 0.620149 0.763239
vt 0.614897 0.769699
vt 0.613471 0.766515
vt 0.613039 0.763320
vt 0.623024 0.770733
vt 0.624301 0.767529
vt 0.626219 0.767911
vt 0.624655 0.772898
vt 0.894098 0.177034
vt 0.892385 0.181504
vt 0.605210 0.761252
vt 0.604643 0.765074
vt 0.592937 0.769229
vt 0.596370 0.763506
vt 0.605977 0.769024
vt 0.595790 0.774553
vt 0.582806 0.784655
vt 0.579676 0.778640
vt 0.892439 0.169583
vt 0.889125 0.167642
vt 0.894167 0.160782
vt 0.897761 0.152587
vt 0.981383 0.421573
vt 0.983866 0.421867
vt 0.984895 0.425234
vt 0.981607 0.424632
vt 0.984653 0.427274
vt 0.987620 0.426597
vt 0.976227 0.421966
vt 0.975523 0.426456
vt 0.971605 0.423099
vt 0.973044 0.419309
vt 0.546671 0.806379
vt 0.552179 0.805830
vt 0.552828 0.810281
vt 0.546304 0.809684
vt 0.969579 0.430670
vt 0.969185 0.435062
vt 0.966065 0.435003
vt 0.966285 0.431844
vt 0.546368 0.803770
vt 0.541945 0.806527
vt 0.541315 0.804721
vt 0.978641 0.423897
vt 0.978057 0.427440
vt 0.976777 0.432385
vt 0.980709 0.433674
vt 0.985126 0.436012
vt 0.988024 0.431800
vt 0.556883 0.805617
vt 0.556437 0.808854
vt 0.992401 0.431357
vt 0.991261 0.428658
vt 0.992876 0.428106
vt 0.141762 0.920076
vt 0.139575 0.913860
vt 0.139842 0.911633
vt 0.142977 0.917268
vt 0.027869 0.235393
vt 0.027009 0.234313
vt 0.028866 0.230235
vt 0.029709 0.231442
vt 0.138515 0.913392
vt 0.137222 0.913059
vt 0.138941 0.917940
vt 0.140271 0.919250
vt 0.026714 0.238894
vt 0.025072 0.237864
vt 0.026624 0.231806
vt 0.023301 0.233320
vt 0.019538 0.240486
vt 0.018681 0.236324
vt 0.023089 0.242171
vt 0.025485 0.243542
vt 0.154857 0.935546
vt 0.150833 0.935167
vt 0.147227 0.925336
vt 0.152243 0.928302
vt 0.147848 0.934107
vt 0.144380 0.925992
vt 0.136233 0.956753
vt 0.139798 0.952045
vt 0.140505 0.956151
vt 0.136764 0.960441
vt 0.144276 0.947466
vt 0.147369 0.951123
vt 0.135973 0.964894
vt 0.138235 0.962208
vt 0.133623 0.955377
vt 0.136528 0.950302
vt 0.026462 0.252775
vt 0.028074 0.252491
vt 0.029559 0.255551
vt 0.028201 0.255659
vt 0.975604 0.410761
vt 0.975758 0.408394
vt 0.977600 0.406955
vt 0.977468 0.411207
vt 0.975226 0.408211
vt 0.975167 0.405774
vt 0.155078 0.950872
vt 0.148441 0.953511
vt 0.153401 0.945678
vt 0.148285 0.941723
vt 0.143953 0.957083
vt 0.142515 0.956641
vt 0.027280 0.245683
vt 0.027781 0.249688
vt 0.024533 0.248188
vt 0.021705 0.246817
vt 0.019123 0.251214
vt 0.023153 0.251815
vt 0.157095 0.941715
vt 0.161586 0.944581
vt 0.161138 0.947073
vt 0.018484 0.245324
vt 0.015296 0.249445
vt 0.011743 0.254484
vt 0.015475 0.254704
vt 0.172971 0.947998
vt 0.170174 0.949061
vt 0.179868 0.952745
vt 0.172013 0.951569
vt 0.181010 0.952125
vt 0.183988 0.952063
vt 0.977022 0.414865
vt 0.975090 0.413523
vt 0.140484 0.962463
vt 0.537403 0.806699
vt 0.539060 0.805389
vt 0.540213 0.808692
vt 0.974928 0.436779
vt 0.974233 0.441155
vt 0.970446 0.440751
vt 0.971715 0.435982
vt 0.543150 0.800350
vt 0.540214 0.800894
vt 0.539123 0.798319
vt 0.541368 0.797466
vt 0.967829 0.440107
vt 0.537177 0.800621
vt 0.536396 0.799102
vt 0.965126 0.442926
vt 0.965825 0.444016
vt 0.539860 0.802948
vt 0.545135 0.801967
vt 0.537306 0.804233
vt 0.536628 0.802008
vt 0.534843 0.802223
vt 0.535217 0.801307
vt 0.535236 0.800565
vt 0.533937 0.800551
vt 0.534016 0.798185
vt 0.963966 0.441976
vt 0.962503 0.445208
vt 0.961535 0.445461
vt 0.569499 0.810975
vt 0.562599 0.806735
vt 0.564152 0.800816
vt 0.572018 0.806988
vt 0.556142 0.801691
vt 0.577189 0.801191
vt 0.571623 0.794019
vt 0.554266 0.797496
vt 0.559843 0.794579
vt 0.567589 0.788015
vt 0.557553 0.790955
vt 0.554448 0.789061
vt 0.552158 0.794560
vt 0.550107 0.792400
vt 0.910774 0.114313
vt 0.907899 0.112474
vt 0.909444 0.108307
vt 0.911217 0.108368
vt 0.547649 0.796561
vt 0.545806 0.794453
vt 0.979203 0.438737
vt 0.983738 0.441073
vt 0.982518 0.444881
vt 0.978300 0.443031
vt 0.973745 0.444244
vt 0.977287 0.446233
vt 0.549872 0.799566
vt 0.551361 0.802473
vt 0.914877 0.116109
vt 0.988803 0.440104
vt 0.988360 0.443692
vt 0.914002 0.122776
vt 0.919184 0.118294
vt 0.923401 0.115359
vt 0.918645 0.112380
vt 0.912684 0.132588
vt 0.907950 0.130640
vt 0.918692 0.125070
vt 0.924023 0.121941
vt 0.925720 0.118815
vt 0.176831 0.947062
vt 0.187525 0.951056
vt 0.923886 0.129572
vt 0.927379 0.125891
vt 0.933008 0.129921
vt 0.928791 0.133721
vt 0.923484 0.139191
vt 0.918362 0.135651
vt 0.916185 0.149005
vt 0.910571 0.145070
vt 0.905323 0.141992
vt 0.902633 0.155300
vt 0.901482 0.139755
vt 0.901270 0.165838
vt 0.897664 0.163434
vt 0.907064 0.158389
vt 0.898485 0.171961
vt 0.895786 0.170649
vt 0.892054 0.176312
vt 0.891387 0.181373
vt 0.889843 0.180701
vt 0.889866 0.175703
vt 0.613416 0.761142
vt 0.621277 0.768705
vt 0.623404 0.765363
vt 0.618980 0.775152
vt 0.616730 0.772678
vt 0.613878 0.780243
vt 0.611042 0.776928
vt 0.608505 0.773660
vt 0.602312 0.785587
vt 0.598858 0.781479
vt 0.592194 0.797305
vt 0.587022 0.791968
vt 0.583270 0.806206
vt 0.582697 0.814629
vt 0.578317 0.811638
vt 0.588132 0.809399
vt 0.596732 0.800521
vt 0.591442 0.811848
vt 0.599777 0.802666
vt 0.606263 0.788551
vt 0.609183 0.791355
vt 0.602919 0.804534
vt 0.611906 0.793938
vt 0.616459 0.783342
vt 0.618500 0.786292
vt 0.913799 0.164515
vt 0.915823 0.166862
vt 0.907340 0.175389
vt 0.906371 0.172030
vt 0.906358 0.182035
vt 0.904656 0.179804
vt 0.908800 0.177360
vt 0.902919 0.176895
vt 0.904205 0.168903
vt 0.900900 0.174303
vt 0.900244 0.180300
vt 0.910606 0.161680
vt 0.920254 0.151743
vt 0.923499 0.154376
vt 0.927678 0.142728
vt 0.931730 0.145219
vt 0.935239 0.147635
vt 0.925492 0.156317
vt 0.935829 0.140163
vt 0.940009 0.142378
vt 0.586320 0.816923
vt 0.594376 0.814206
vt 0.589530 0.819389
vt 0.585328 0.821568
vt 0.582650 0.820858
vt 0.579198 0.818468
vt 0.014712 0.243242
vt 0.014785 0.239133
vt 0.011374 0.247844
vt 0.574933 0.815281
vt 0.007709 0.253792
vt 0.014812 0.235440
vt 0.155707 0.930173
vt 0.158933 0.935880
vt 0.939691 0.136262
vt 0.941896 0.138526
vt 0.163556 0.939590
vt 0.932431 0.137259
vt 0.936528 0.133228
vt 0.167820 0.944646
vt 0.621025 0.777975
vt 0.567500 0.812780
vt 0.561499 0.809700
vt 0.964547 0.439748
vt 0.973175 0.431279
vt 0.133038 0.961823
vt 0.131595 0.960321
vt 0.979137 0.420237
vt 0.976725 0.418507
vt 0.979392 0.416803
vt 0.974245 0.416220
vt 0.981609 0.418415
vt 0.982974 0.419307
vt 0.133442 0.967019
vt 0.133703 0.963823
vt 0.144964 0.940201
vt 0.142165 0.932205
vt 0.141191 0.945263
vt 0.142133 0.924878
vt 0.140979 0.925167
vt 0.140234 0.930022
vn -0.2572 -0.1355 -0.9568
vn -0.9681 -0.1552 -0.1965
vn -0.8445 -0.1122 -0.5237
vn -0.1069 -0.1005 -0.9892
vn 0.0464 0.0074 -0.9989
vn -0.6581 -0.0107 -0.7528
vn -0.9571 -0.0061 0.2896
vn -0.5454 -0.3870 -0.7435
vn -0.9653 -0.2205 -0.1399
vn -0.6666 -0.3002 0.6823
vn -0.5905 0.0050 0.8070
vn -0.6432 0.0029 0.7657
vn -0.0217 -0.1700 -0.9852
vn -0.7251 -0.5111 -0.4616
vn -0.6254 -0.6628 -0.4119
vn -0.6338 -0.2898 0.7171
vn 0.7059 -0.4404 0.5548
vn -0.0793 -0.9607 -0.2659
vn 0.2458 -0.7636 -0.5970
vn 0.9239 -0.3771 -0.0654
vn -0.5088 -0.2075 -0.8355
vn -0.1770 -0.1585 -0.9714
vn 0.1158 -0.6285 0.7692
vn -0.4561 -0.5131 0.7272
vn -0.6490 -0.7383 0.1836
vn -0.1056 -0.9620 -0.2518
vn -0.1631 -0.1694 0.9720
vn -0.6018 -0.2359 0.7630
vn -0.8483 -0.4362 0.3002
vn 0.6237 -0.4851 0.6130
vn 0.1560 -0.9653 -0.2094
vn -0.2151 -0.2664 -0.9396
vn -0.7116 -0.5486 -0.4389
vn -0.8072 -0.3101 0.5022
vn -0.5851 -0.1495 0.7970
vn -0.5070 -0.0687 0.8592
vn -0.3972 0.0290 0.9173
vn -0.3849 0.0075 0.9229
vn 0.0676 -0.2822 -0.9570
vn 0.0586 -0.2003 -0.9780
vn 0.1294 -0.0977 -0.9868
vn -0.1054 -0.9722 -0.2092
vn -0.1280 -0.1912 0.9732
vn 0.4937 0.3709 0.7866
vn 0.2969 -0.8361 -0.4613
vn 0.6468 0.0350 -0.7619
vn 0.5796 0.6453 0.4977
vn 0.0806 0.9958 0.0436
vn 0.3729 0.7998 -0.4704
vn 0.1882 0.4370 0.8796
vn 0.1259 0.3791 0.9167
vn 0.4961 0.8103 0.3120
vn 0.3466 0.8596 -0.3755
vn 0.2071 0.7531 0.6244
vn -0.2214 0.1200 0.9678
vn -0.2246 0.3409 0.9129
vn 0.1648 0.0006 -0.9863
vn 0.2086 -0.0407 -0.9772
vn 0.2043 0.0372 -0.9782
vn 0.2811 -0.0195 -0.9595
vn 0.2500 0.0531 -0.9668
vn 0.3488 0.1626 -0.9230
vn 0.0408 0.3188 0.9470
vn 0.3038 0.3192 -0.8977
vn 0.4640 0.7515 -0.4690
vn 0.2588 0.7231 0.6404
vn 0.2465 -0.3083 -0.9188
vn 0.7140 -0.1646 -0.6805
vn 0.6020 -0.7320 0.3189
vn -0.0138 -0.9340 0.3570
vn 0.0682 0.4080 0.9104
vn 0.4077 0.2698 0.8723
vn 0.7482 0.6626 -0.0352
vn 0.3339 0.9242 -0.1852
vn 0.1733 0.5677 0.8048
vn 0.6767 -0.5093 0.5318
vn 0.2551 -0.1957 -0.9469
vn 0.4231 0.0280 0.9057
vn 0.9607 -0.2258 -0.1616
vn 0.2336 0.2900 0.9281
vn 0.1253 0.6279 0.7681
vn 0.3757 -0.0695 -0.9241
vn 0.1891 -0.2735 -0.9431
vn 0.1704 0.0359 -0.9847
vn 0.1409 0.0946 -0.9855
vn 0.1664 0.0724 -0.9834
vn -0.3923 -0.9198 0.0093
vn -0.3070 -0.9517 0.0041
vn 0.0026 0.2141 -0.9768
vn -0.2751 -0.9346 0.2256
vn -0.2105 0.1526 0.9656
vn -0.3415 0.5118 0.7883
vn 0.1926 0.9116 -0.3632
vn 0.5273 0.8494 -0.0234
vn 0.1237 0.0693 0.9899
vn 0.3315 0.9256 0.1828
vn 0.2919 0.1725 0.9408
vn 0.2939 0.9396 -0.1756
vn 0.0689 0.6876 0.7228
vn -0.1489 0.5691 0.8087
vn -0.5777 0.0031 -0.8162
vn 0.0040 0.2345 -0.9721
vn -0.2323 -0.4327 0.8711
vn 0.2437 0.9648 -0.0990
vn 0.2629 0.9628 0.0620
vn -0.1114 0.6165 0.7794
vn -0.2806 0.9561 0.0846
vn -0.1421 0.1980 -0.9699
vn -0.1180 0.4216 -0.8990
vn 0.0059 0.2681 0.9634
vn -0.0392 0.3964 0.9172
vn 0.0458 0.5547 0.8308
vn 0.1171 0.9639 -0.2391
vn 0.1311 0.4375 -0.8896
vn 0.1580 0.9868 -0.0357
vn 0.2047 0.7124 -0.6712
vn -0.0021 0.9719 0.2355
vn 0.1285 0.0786 -0.9886
vn -0.5339 -0.0608 -0.8434
vn -0.1821 0.0654 -0.9811
vn 0.1900 0.4022 -0.8956
vn -0.9474 -0.2050 0.2456
vn -0.8036 -0.5774 0.1445
vn -0.7036 -0.6803 0.2052
vn -0.2832 -0.2547 -0.9246
vn 0.1063 0.6629 -0.7411
vn -0.4143 0.0842 0.9062
vn -0.5419 -0.0993 0.8346
vn -0.0000 0.9773 0.2117
vn -0.3866 0.1495 0.9100
vn -0.5348 0.8174 0.2140
vn -0.9980 0.0402 -0.0483
vn -0.5578 -0.0506 -0.8284
vn -0.1315 0.6933 -0.7085
vn -0.0196 0.0625 0.9979
vn -0.0110 0.1840 0.9829
vn -0.1811 0.0315 0.9830
vn -0.0102 0.0337 0.9994
vn -0.2614 0.0549 0.9637
vn -0.0070 0.1190 0.9929
vn -0.2581 0.0671 0.9638
vn -0.5111 -0.0259 0.8591
vn -0.4722 -0.0126 0.8814
vn -0.4501 0.0199 0.8928
vn -0.7024 -0.0129 0.7117
vn -0.9999 -0.0117 -0.0086
vn -0.8016 -0.0325 0.5969
vn -0.9265 -0.0508 -0.3727
vn -0.3872 0.0037 -0.9220
vn -0.0908 -0.0125 -0.9958
vn -0.8866 -0.0680 0.4575
vn -0.7839 -0.0517 -0.6188
vn 0.0699 -0.0008 -0.9976
vn -0.5613 -0.0309 0.8270
vn -0.2773 0.1204 0.9532
vn 0.1536 0.0439 -0.9872
vn 0.2641 0.0173 -0.9643
vn 0.2566 0.0665 -0.9642
vn 0.2348 -0.0224 -0.9718
vn 0.2304 -0.0349 -0.9725
vn 0.1995 0.0129 -0.9798
vn 0.2129 0.1290 -0.9685
vn 0.1142 0.2061 -0.9718
vn 0.0840 0.0376 -0.9958
vn -0.0008 0.1944 -0.9809
vn 0.0344 0.0442 -0.9984
vn 0.0337 -0.0379 -0.9987
vn 0.0935 -0.0330 -0.9951
vn 0.0403 -0.0651 -0.9971
vn 0.1509 -0.0475 -0.9874
vn 0.2228 -0.0423 -0.9740
vn 0.2174 -0.0647 -0.9739
vn 0.1157 -0.0777 -0.9902
vn 0.0062 -0.1199 -0.9928
vn 0.2578 -0.1111 -0.9598
vn 0.0589 -0.0869 -0.9945
vn -0.2094 -0.1414 -0.9676
vn 0.1148 -0.1644 -0.9797
vn -0.0186 -0.3140 -0.9492
vn 0.2786 -0.8552 -0.4371
vn -0.5250 -0.5586 -0.6422
vn 0.4904 -0.5408 0.6834
vn 0.6565 -0.1930 0.7292
vn 0.3375 -0.1842 0.9231
vn 0.6230 -0.1232 0.7724
vn 0.1908 -0.0877 0.9777
vn -0.2616 -0.0797 0.9619
vn 0.1221 0.0523 0.9911
vn -0.2016 0.0290 0.9790
vn 0.0453 0.1417 0.9889
vn -0.0834 0.1257 0.9886
vn -0.0359 0.1215 0.9919
vn -0.0138 0.0674 0.9976
vn -0.0579 0.0501 0.9971
vn 0.0957 0.0638 0.9934
vn 0.3206 0.0404 0.9464
vn 0.8693 -0.0750 0.4886
vn 0.9087 -0.1062 0.4038
vn 0.5297 -0.0402 0.8472
vn 0.8904 -0.1235 0.4381
vn 0.9350 -0.1245 -0.3321
vn 0.9622 -0.1262 -0.2413
vn 0.8579 -0.1263 0.4981
vn 0.9895 -0.0976 -0.1064
vn 0.4592 -0.0867 -0.8841
vn 0.4225 -0.0378 -0.9056
vn 0.8133 -0.1637 0.5584
vn 0.9920 -0.1255 -0.0142
vn 0.4311 -0.0593 -0.9003
vn -0.0982 -0.0579 -0.9935
vn -0.2397 -0.0650 -0.9687
vn 0.4820 -0.1319 -0.8662
vn 0.0225 -0.0760 -0.9969
vn 0.0667 -0.0706 -0.9953
vn 0.5305 -0.1002 -0.8417
vn 0.0833 -0.0350 -0.9959
vn 0.5505 -0.0703 -0.8319
vn 0.9217 -0.1072 -0.3727
vn 0.5151 -0.0625 -0.8548
vn 0.9298 -0.1022 -0.3537
vn 0.7718 -0.0178 0.6356
vn 0.9493 -0.1726 -0.2629
vn 0.6171 -0.0144 0.7868
vn -0.0047 0.0692 0.9976
vn -0.0285 0.0318 0.9991
vn 0.4520 -0.0821 -0.8882
vn 0.0230 0.0934 -0.9954
vn 0.0802 0.0127 -0.9967
vn 0.3471 0.6052 -0.7165
vn 0.1107 0.0878 -0.9900
vn 0.1115 0.0521 -0.9924
vn 0.1562 0.9857 0.0630
vn -0.1503 -0.1108 0.9824
vn -0.2096 -0.9725 -0.1018
vn 0.2900 0.9188 -0.2676
f 1/1/1 2/2/2 3/3/3 4/4/4
f 5/5/5 4/4/4 3/3/3 6/6/6
f 7/7/7 6/6/6 3/3/3 2/2/2
f 8/8/8 9/9/9 2/2/2 1/1/1
f 10/10/10 11/11/11 2/12/2 9/13/9
f 12/14/12 7/15/7 2/12/2 11/11/11
f 13/16/13 14/17/14 15/18/15 8/8/8
f 16/19/16 10/20/10 15/18/15 14/17/14
f 17/21/17 18/22/18 19/23/19 20/24/20
f 21/25/21 22/26/22 19/23/19 18/22/18
f 23/27/23 24/28/24 25/29/25 26/30/26
f 27/31/27 28/32/28 24/28/24 23/27/23
f 29/33/29 25/29/25 24/28/24 28/32/28
f 30/34/30 31/35/31 18/36/18 17/37/17
f 32/38/32 21/25/21 18/22/18 31/39/31
f 33/40/33 34/41/34 16/42/16 14/43/14
f 35/44/35 36/45/36 16/42/16 34/41/34
f 37/46/37 38/47/38 16/42/16 36/45/36
f 39/48/39 33/49/33 14/17/14 40/50/40
f 41/51/41 40/50/40 14/17/14 13/16/13
f 42/52/42 43/53/43 44/54/44 45/55/45
f 46/56/46 45/55/45 44/54/44 47/57/47
f 48/58/48 49/59/49 44/60/44 43/61/43
f 50/62/50 51/63/51 44/64/44 52/65/52
f 52/66/52 53/67/53 54/68/54 50/69/50
f 55/70/55 50/62/50 54/71/54 56/72/56
f 57/73/57 45/55/45 46/56/46 58/74/58
f 59/75/59 58/74/58 46/56/46 60/76/60
f 61/77/61 60/76/60 46/56/46 62/78/62
f 63/79/63 47/80/47 44/64/44 51/63/51
f 64/81/64 62/78/62 46/56/46 65/82/65
f 66/83/66 65/82/65 46/56/46 47/57/47
f 67/84/67 68/85/68 69/86/69 70/87/70
f 71/88/71 70/89/70 69/90/69 72/91/72
f 73/92/73 72/93/72 69/86/69 68/85/68
f 71/94/71 72/93/72 73/92/73 74/95/74
f 67/84/67 74/95/74 73/92/73 68/85/68
f 71/88/71 75/96/75 76/97/76 70/89/70
f 67/98/67 70/89/70 76/97/76 77/99/77
f 78/100/78 79/101/79 76/97/76 80/102/80
f 81/103/81 80/102/80 76/97/76 75/96/75
f 82/104/82 83/105/83 76/106/76 79/107/79
f 84/108/84 77/109/77 76/106/76 83/105/83
f 85/110/85 86/111/86 87/112/87 88/113/88
f 89/114/89 90/115/90 87/112/87 86/111/86
f 91/116/91 88/113/88 87/112/87 92/117/92
f 85/110/85 93/118/93 94/119/94 86/111/86
f 95/120/95 96/121/96 94/122/94 97/123/97
f 92/124/92 98/125/98 94/126/94 93/127/93
f 99/128/99 97/129/97 94/126/94 98/125/98
f 100/130/100 95/131/95 90/115/90 101/132/101
f 102/133/102 101/132/101 90/115/90 89/114/89
f 97/134/97 103/135/103 90/115/90 95/131/95
f 104/136/104 105/137/105 100/138/100 81/103/81
f 80/102/80 81/103/81 100/138/100 106/139/106
f 96/121/96 95/120/95 100/138/100 105/137/105
f 107/140/107 106/139/106 100/138/100 101/141/101
f 84/108/84 83/105/83 101/132/101 102/133/102
f 82/104/82 108/142/108 101/132/101 83/105/83
f 109/143/109 107/144/107 101/132/101 108/142/108
f 110/145/110 106/139/106 107/140/107 111/146/111
f 112/147/112 111/146/111 107/140/107 113/148/113
f 114/149/114 113/150/113 107/144/107 109/143/109
f 66/151/66 112/152/112 113/150/113 65/153/65
f 64/154/64 65/153/65 113/150/113 114/149/114
f 115/155/115 91/156/91 92/124/92 93/127/93
f 97/134/97 99/157/99 92/117/92 103/135/103
f 116/158/116 117/159/117 54/71/54 53/160/53
f 118/161/118 119/162/119 120/163/120 121/164/121
f 122/165/122 123/166/123 120/167/120 119/168/119
f 53/67/53 121/164/121 120/163/120 116/169/116
f 124/170/124 125/171/125 120/167/120 123/166/123
f 126/172/126 116/169/116 120/163/120 125/173/125
f 55/70/55 56/72/56 127/174/127 128/175/128
f 117/159/117 129/176/129 127/174/127 56/72/56
f 122/165/122 128/175/128 127/174/127 123/166/123
f 124/170/124 123/166/123 127/174/127 130/177/130
f 131/178/131 130/177/130 127/174/127 129/176/129
f 132/179/132 124/170/124 130/177/130 131/178/131
f 125/171/125 133/180/133 134/181/134 126/182/126
f 129/183/129 126/172/126 134/184/134 131/185/131
f 132/179/132 131/178/131 134/181/134 133/180/133
f 124/170/124 132/179/132 133/180/133 125/171/125
f 135/186/135 136/187/136 137/188/137 138/189/138
f 63/79/63 139/190/139 137/188/137 136/187/136
f 140/191/140 138/189/138 137/188/137 141/192/141
f 142/193/142 143/194/143 137/188/137 139/190/139
f 144/195/144 141/192/141 137/188/137 143/194/143
f 145/196/145 12/14/12 144/195/144 143/194/143
f 11/11/11 38/47/38 144/195/144 12/14/12
f 37/46/37 141/192/141 144/195/144 38/47/38
f 7/15/7 12/14/12 145/196/145 146/197/146
f 142/193/142 147/198/147 145/196/145 143/194/143
f 148/199/148 146/197/146 145/196/145 147/198/147
f 149/200/149 146/201/146 148/202/148 150/203/150
f 151/204/151 152/205/152 148/199/148 147/198/147
f 153/206/153 150/207/150 148/208/148 152/209/152
f 61/77/61 150/207/150 153/206/153 60/76/60
f 119/162/119 118/161/118 153/206/153 152/209/152
f 59/75/59 60/76/60 153/206/153 118/161/118
f 122/210/122 119/162/119 152/209/152 151/211/151
f 142/193/142 154/212/154 151/204/151 147/198/147
f 128/175/128 122/165/122 151/204/151 154/212/154
f 139/190/139 155/213/155 154/212/154 142/193/142
f 55/70/55 128/175/128 154/212/154 155/213/155
f 63/79/63 51/63/51 155/213/155 139/190/139
f 50/62/50 55/70/55 155/213/155 51/63/51
f 5/5/5 6/6/6 149/200/149 156/214/156
f 7/7/7 146/201/146 149/200/149 6/6/6
f 61/77/61 156/215/156 149/216/149 150/207/150
f 157/217/157 5/5/5 156/214/156 158/218/158
f 62/219/62 158/218/158 156/214/156 61/220/61
f 159/221/159 160/222/160 157/217/157 161/223/161
f 4/4/4 5/5/5 157/217/157 160/222/160
f 162/224/162 161/223/161 157/217/157 158/218/158
f 62/219/62 64/225/64 162/224/162 158/218/158
f 114/149/114 163/226/163 162/227/162 64/154/64
f 164/228/164 161/223/161 162/224/162 163/229/163
f 165/230/165 166/231/166 164/228/164 163/229/163
f 167/232/167 168/233/168 164/228/164 166/231/166
f 159/221/159 161/223/161 164/228/164 168/233/168
f 169/234/169 170/235/170 168/233/168 167/232/167
f 171/236/171 159/221/159 168/233/168 170/235/170
f 172/237/172 41/51/41 171/236/171 170/235/170
f 13/16/13 173/238/173 171/236/171 41/51/41
f 160/222/160 159/221/159 171/236/171 173/238/173
f 8/8/8 1/1/1 173/238/173 13/16/13
f 4/4/4 160/222/160 173/238/173 1/1/1
f 174/239/174 175/240/175 172/237/172 176/241/176
f 40/50/40 41/51/41 172/237/172 175/240/175
f 169/234/169 176/241/176 172/237/172 170/235/170
f 177/242/177 178/243/178 175/240/175 174/239/174
f 39/48/39 40/50/40 175/240/175 178/243/178
f 21/25/21 32/38/32 178/243/178 177/242/177
f 179/244/179 39/48/39 178/243/178 32/38/32
f 31/39/31 180/245/180 179/244/179 32/38/32
f 26/246/26 181/247/181 179/244/179 180/245/180
f 33/49/33 39/48/39 179/244/179 181/247/181
f 25/29/25 29/33/29 181/248/181 26/30/26
f 34/41/34 33/40/33 181/248/181 29/33/29
f 30/34/30 182/249/182 180/250/180 31/35/31
f 23/27/23 26/30/26 180/250/180 182/249/182
f 183/251/183 184/252/184 182/249/182 30/34/30
f 27/31/27 23/27/23 182/249/182 184/252/184
f 185/253/185 186/254/186 184/252/184 183/251/183
f 187/255/187 27/31/27 184/252/184 186/254/186
f 188/256/188 189/257/189 187/255/187 186/254/186
f 36/45/36 35/44/35 187/255/187 189/257/189
f 28/32/28 27/31/27 187/255/187 35/44/35
f 190/258/190 191/259/191 189/257/189 188/256/188
f 37/46/37 36/45/36 189/257/189 191/259/191
f 192/260/192 140/191/140 191/259/191 190/258/190
f 141/192/141 37/46/37 191/259/191 140/191/140
f 193/261/193 194/262/194 192/260/192 195/263/195
f 138/189/138 140/191/140 192/260/192 194/262/194
f 196/264/196 195/263/195 192/260/192 190/258/190
f 197/265/197 195/263/195 196/264/196 198/266/198
f 188/256/188 199/267/199 196/264/196 190/258/190
f 200/268/200 198/266/198 196/264/196 199/267/199
f 201/269/201 198/266/198 200/268/200 202/270/202
f 185/253/185 203/271/203 200/268/200 199/267/199
f 204/272/204 202/270/202 200/268/200 203/271/203
f 205/273/205 202/274/202 204/275/204 206/276/206
f 207/277/207 208/278/208 204/275/204 203/279/203
f 209/280/209 206/276/206 204/275/204 208/278/208
f 210/281/210 206/276/206 209/280/209 211/282/211
f 20/24/20 212/283/212 209/280/209 208/278/208
f 22/26/22 211/282/211 209/280/209 212/283/212
f 176/241/176 213/284/213 210/281/210 174/239/174
f 205/273/205 206/276/206 210/281/210 213/284/213
f 177/242/177 174/239/174 210/281/210 211/282/211
f 169/234/169 214/285/214 213/284/213 176/241/176
f 215/286/215 205/273/205 213/284/213 214/285/214
f 216/287/216 217/288/217 215/286/215 214/285/214
f 218/289/218 201/290/201 215/286/215 217/288/217
f 202/274/202 205/273/205 215/286/215 201/290/201
f 219/291/219 220/292/220 218/289/218 217/288/217
f 221/293/221 197/265/197 218/294/218 220/295/220
f 198/266/198 201/269/201 218/294/218 197/265/197
f 222/296/222 223/297/223 221/293/221 220/295/220
f 224/298/224 193/261/193 221/293/221 223/297/223
f 195/263/195 197/265/197 221/293/221 193/261/193
f 78/100/78 110/145/110 224/299/224 223/300/223
f 111/146/111 225/301/225 224/299/224 110/145/110
f 194/262/194 193/261/193 224/298/224 225/302/225
f 112/147/112 135/303/135 225/301/225 111/146/111
f 138/189/138 194/262/194 225/302/225 135/186/135
f 79/101/79 78/100/78 223/300/223 222/304/222
f 82/104/82 79/107/79 222/305/222 226/306/226
f 219/291/219 226/307/226 222/308/222 220/292/220
f 108/142/108 82/104/82 226/306/226 227/309/227
f 228/310/228 227/311/227 226/307/226 219/291/219
f 165/230/165 227/311/227 228/310/228 166/231/166
f 217/288/217 216/287/216 228/310/228 219/291/219
f 167/232/167 166/231/166 228/310/228 216/287/216
f 109/143/109 108/142/108 227/309/227 165/312/165
f 169/234/169 167/232/167 216/287/216 214/285/214
f 21/25/21 177/242/177 211/282/211 22/26/22
f 17/21/17 20/24/20 208/278/208 207/277/207
f 185/253/185 183/251/183 207/313/207 203/271/203
f 30/34/30 17/37/17 207/313/207 183/251/183
f 186/254/186 185/253/185 199/267/199 188/256/188
f 114/149/114 109/143/109 165/312/165 163/226/163
f 112/314/112 66/315/66 136/187/136 135/186/135
f 47/80/47 63/79/63 136/187/136 66/315/66
f 116/169/116 126/172/126 129/183/129 117/316/117
f 229/317/229 59/75/59 118/161/118 121/164/121
f 58/74/58 59/75/59 229/317/229 49/59/49
f 53/67/53 52/66/52 229/317/229 121/164/121
f 44/60/44 49/59/49 229/317/229 52/66/52
f 85/110/85 230/318/230 115/319/115 93/118/93
f 231/320/231 232/321/232 115/155/115 230/322/230
f 233/323/233 91/156/91 115/155/115 232/321/232
f 48/58/48 43/61/43 233/323/233 232/321/232
f 42/52/42 234/324/234 233/325/233 43/53/43
f 88/113/88 91/116/91 233/326/233 234/327/234
f 231/320/231 230/322/230 234/324/234 42/52/42
f 85/110/85 88/113/88 234/327/234 230/318/230
f 57/73/57 48/58/48 232/321/232 231/320/231
f 45/55/45 57/73/57 231/320/231 42/52/42
f 80/102/80 106/139/106 110/145/110 78/100/78
f 84/108/84 102/133/102 105/328/105 104/329/104
f 89/114/89 96/330/96 105/328/105 102/133/102
f 77/109/77 84/108/84 104/329/104 235/331/235
f 75/332/75 235/331/235 104/329/104 81/333/81
f 67/84/67 77/109/77 235/331/235 74/95/74
f 71/94/71 74/95/74 235/331/235 75/332/75
f 86/111/86 94/119/94 96/330/96 89/114/89
f 49/59/49 48/58/48 57/73/57 58/74/58
f 10/10/10 16/42/16 38/47/38 11/11/11
f 29/33/29 28/32/28 35/44/35 34/41/34
f 19/23/19 22/26/22 212/283/212 20/24/20
f 9/9/9 8/8/8 15/18/15 10/20/10
f 54/71/54 117/159/117 56/72/56
f 87/112/87 90/115/90 103/135/103
f 87/112/87 103/135/103 92/117/92
f 99/128/99 98/125/98 92/124/92
