# split from a merged terrain OBJ by scripts/split-terrain-obj-parts.py
o part-069
v -0.697573 1.146068 0.037741
v -0.697812 1.146897 0.039054
v -0.697760 1.145875 0.039868
v -0.697382 1.145056 0.038664
v -0.698856 1.147201 0.040187
v -0.699077 1.145800 0.039580
v -0.698728 1.145105 0.038125
v -0.698096 1.145362 0.037006
v -0.701539 1.150121 0.037062
v -0.702333 1.149614 0.038810
v -0.700844 1.149371 0.039327
v -0.700129 1.149263 0.038097
v -0.702886 1.148380 0.040024
v -0.700762 1.148357 0.040214
v -0.699168 1.148446 0.039250
v -0.700257 1.145338 0.037426
v -0.699165 1.145810 0.036034
v -0.698200 1.146959 0.036419
v -0.702096 1.146663 0.034466
v -0.703353 1.147706 0.034290
v -0.702369 1.148913 0.033578
v -0.701045 1.148244 0.034136
v -0.701094 1.149407 0.035540
v -0.702692 1.149485 0.034847
v -0.703906 1.148691 0.034559
v -0.704602 1.147978 0.038873
v -0.704337 1.146462 0.039228
v -0.702878 1.146650 0.040068
v -0.705351 1.147313 0.037138
v -0.704173 1.145694 0.037801
v -0.702505 1.145254 0.038537
v -0.703239 1.150114 0.036275
v -0.704569 1.148674 0.035678
v -0.704551 1.147068 0.035465
v -0.705155 1.148706 0.036922
v -0.704009 1.149355 0.037868
v -0.703379 1.145872 0.036015
v -0.701814 1.145416 0.036729
v -0.700652 1.146067 0.035126
v -0.699553 1.147595 0.035166
v -0.699580 1.148777 0.036473
v -0.698507 1.147954 0.037805
v -0.700797 1.145565 0.039262
v -0.700868 1.146986 0.040624
vt 0.918880 0.994417
vt 0.919130 0.993548
vt 0.919795 0.993522
vt 0.919582 0.994472
vt 0.919369 0.992705
vt 0.920122 0.992931
vt 0.686852 0.077682
vt 0.686201 0.077981
vt 0.685952 0.077094
vt 0.686554 0.076761
vt 0.686948 0.078446
vt 0.686511 0.078807
vt 0.916725 0.992321
vt 0.917212 0.991456
vt 0.917936 0.991882
vt 0.917685 0.992586
vt 0.917744 0.990689
vt 0.918577 0.991540
vt 0.918555 0.992633
vt 0.687701 0.077618
vt 0.687662 0.078619
vt 0.687292 0.079355
vt 0.689497 0.078581
vt 0.690370 0.078405
vt 0.690428 0.079369
vt 0.689423 0.079587
vt 0.916305 0.993102
vt 0.915923 0.993957
vt 0.915169 0.993474
vt 0.915443 0.992736
vt 0.691010 0.078299
vt 0.691197 0.079073
vt 0.688664 0.074770
vt 0.690018 0.075218
vt 0.689351 0.075744
vt 0.688415 0.075609
vt 0.690588 0.076250
vt 0.689481 0.076522
vt 0.688492 0.076584
vt 0.915835 0.991916
vt 0.914794 0.992267
vt 0.914943 0.991387
vt 0.690456 0.077411
vt 0.691227 0.077485
vt 0.915413 0.990577
vt 0.916259 0.990984
vt 0.691327 0.076505
vt 0.916639 0.990151
vt 0.915511 0.989947
vt 0.689508 0.077478
vt 0.688580 0.077552
vt 0.688582 0.078618
vt 0.688349 0.079565
vt 0.917258 0.993411
vt 0.916908 0.994254
vt 0.918242 0.993526
vt 0.917986 0.994443
vt 0.687466 0.076559
vt 0.686246 0.076004
vt 0.687189 0.075523
vt 0.919351 0.991537
vt 0.687388 0.074850
vn 0.9538 -0.0690 -0.2923
vn 0.8599 0.3895 0.3300
vn 0.5750 -0.3382 0.7449
vn 0.7043 -0.6883 0.1738
vn 0.4451 0.1828 0.8766
vn 0.0524 -0.7084 0.7039
vn 0.0621 -0.9980 0.0104
vn 0.4760 -0.6963 -0.5372
vn 0.2002 0.9797 -0.0084
vn -0.1463 0.8679 0.4747
vn 0.2084 0.8366 0.5067
vn 0.4818 0.8666 0.1297
vn -0.3529 0.4257 0.8332
vn 0.1194 0.5405 0.8328
vn 0.5755 0.6972 0.4274
vn 0.0033 -0.9958 -0.0918
vn 0.3760 -0.6727 -0.6372
vn 0.8198 0.1815 -0.5431
vn -0.0239 -0.6107 -0.7915
vn -0.4547 -0.2282 -0.8609
vn -0.0097 0.3666 -0.9303
vn 0.4283 0.2051 -0.8801
vn 0.4394 0.8116 -0.3851
vn -0.1118 0.8290 -0.5480
vn -0.6596 0.3882 -0.6436
vn -0.7742 0.2292 0.5900
vn -0.6608 -0.4185 0.6230
vn -0.3332 -0.3644 0.8696
vn -0.9836 -0.1767 -0.0361
vn -0.5897 -0.8020 0.0950
vn -0.1542 -0.9487 0.2760
vn -0.2788 0.9475 -0.1566
vn -0.7903 0.4257 -0.4406
vn -0.7305 -0.3987 -0.5544
vn -0.8801 0.4739 -0.0307
vn -0.5592 0.7710 0.3047
vn -0.3617 -0.8320 -0.4207
vn -0.0498 -0.9699 -0.2384
vn 0.2255 -0.6927 -0.6851
vn 0.6426 0.1659 -0.7480
vn 0.6424 0.7141 -0.2782
vn 0.7762 0.6281 -0.0541
vn -0.0202 -0.8692 0.4940
vn 0.0122 -0.1843 0.9828
f 1/1/1 2/2/2 3/3/3 4/4/4
f 5/5/5 6/6/6 3/3/3 2/2/2
f 7/7/7 4/8/4 3/9/3 6/10/6
f 8/11/8 1/12/1 4/8/4 7/7/7
f 9/13/9 10/14/10 11/15/11 12/16/12
f 13/17/13 14/18/14 11/15/11 10/14/10
f 15/19/15 12/16/12 11/15/11 14/18/14
f 16/20/16 17/21/17 8/11/8 7/7/7
f 18/22/18 1/12/1 8/11/8 17/21/17
f 19/23/19 20/24/20 21/25/21 22/26/22
f 23/27/23 22/28/22 21/29/21 24/30/24
f 25/31/25 24/32/24 21/25/21 20/24/20
f 13/33/13 26/34/26 27/35/27 28/36/28
f 29/37/29 30/38/30 27/35/27 26/34/26
f 31/39/31 28/36/28 27/35/27 30/38/30
f 32/40/32 24/30/24 25/41/25 33/42/33
f 34/43/34 33/44/33 25/31/25 20/24/20
f 32/40/32 33/42/33 35/45/35 36/46/36
f 34/43/34 29/37/29 35/47/35 33/44/33
f 26/48/26 36/46/36 35/45/35 29/49/29
f 9/13/9 32/40/32 36/46/36 10/14/10
f 13/17/13 10/14/10 36/46/36 26/48/26
f 30/38/30 29/37/29 34/43/34 37/50/37
f 19/23/19 37/50/37 34/43/34 20/24/20
f 31/39/31 30/38/30 37/50/37 38/51/38
f 39/52/39 38/51/38 37/50/37 19/23/19
f 16/20/16 38/51/38 39/52/39 17/21/17
f 22/26/22 40/53/40 39/52/39 19/23/19
f 18/22/18 17/21/17 39/52/39 40/53/40
f 23/27/23 41/54/41 40/55/40 22/28/22
f 42/56/42 18/57/18 40/55/40 41/54/41
f 1/1/1 18/57/18 42/56/42 2/2/2
f 12/16/12 15/19/15 42/56/42 41/54/41
f 5/5/5 2/2/2 42/56/42 15/19/15
f 9/13/9 12/16/12 41/54/41 23/27/23
f 43/58/43 31/39/31 38/51/38 16/20/16
f 5/59/5 44/60/44 43/58/43 6/10/6
f 28/36/28 31/39/31 43/58/43 44/60/44
f 7/7/7 6/10/6 43/58/43 16/20/16
f 15/19/15 14/18/14 44/61/44 5/5/5
f 13/33/13 28/36/28 44/60/44 14/62/14
f 23/27/23 24/30/24 32/40/32 9/13/9
