# split from a merged terrain OBJ by scripts/split-terrain-obj-parts.py
o part-087
v -0.564993 1.143531 0.079450
v -0.563810 1.144760 0.079968
v -0.563678 1.145087 0.081785
v -0.564583 1.142862 0.082192
v -0.565775 1.146404 0.080858
v -0.564861 1.145752 0.083304
v -0.565532 1.143252 0.084100
v -0.566554 1.145594 0.079115
v -0.567681 1.141877 0.083053
v -0.566071 1.141729 0.081962
v -0.569772 1.143164 0.081227
v -0.567509 1.143053 0.080192
v -0.567723 1.146869 0.082604
v -0.568357 1.145466 0.080655
v -0.569825 1.146629 0.084310
v -0.568697 1.146018 0.086688
v -0.566599 1.146054 0.085187
v -0.571841 1.145380 0.085725
v -0.570105 1.144318 0.086182
v -0.567700 1.143784 0.085459
v -0.571233 1.143414 0.084669
v -0.569796 1.142548 0.084046
v -0.572111 1.144585 0.083419
v -0.571356 1.143359 0.082430
v -0.570412 1.145646 0.082034
vt 0.931400 0.992197
vt 0.932284 0.992540
vt 0.932653 0.993371
vt 0.931376 0.993566
vt 0.933430 0.992113
vt 0.933611 0.993918
vt 0.931941 0.994829
vt 0.932397 0.991452
vt 0.930224 0.994212
vt 0.929983 0.993167
vt 0.022978 0.796528
vt 0.023910 0.796080
vt 0.024120 0.798877
vt 0.022880 0.798928
vt 0.930809 0.990610
vt 0.934573 0.991329
vt 0.932769 0.990607
vt 0.019740 0.793792
vt 0.020243 0.795043
vt 0.019216 0.796150
vt 0.018026 0.796098
vt 0.020600 0.796127
vt 0.020171 0.796808
vt 0.019600 0.797765
vt 0.021249 0.797019
vt 0.021760 0.797786
vt 0.021521 0.796154
vt 0.022173 0.796558
vt 0.021811 0.794945
vt 0.022650 0.793975
vt 0.020525 0.799088
vt 0.017875 0.798487
vt 0.934935 0.993498
vn 0.4324 -0.3752 -0.8199
vn 0.8618 0.2074 -0.4629
vn 0.9619 0.2495 0.1119
vn 0.7176 -0.6789 0.1553
vn 0.2335 0.9110 -0.3398
vn 0.7254 0.5293 0.4400
vn 0.5645 -0.4641 0.6826
vn -0.1577 0.3987 -0.9034
vn -0.0334 -0.9860 0.1636
vn 0.2000 -0.9758 -0.0884
vn -0.5276 -0.4925 -0.6922
vn -0.2821 -0.5862 -0.7595
vn -0.0245 0.9929 -0.1164
vn -0.4456 0.4803 -0.7554
vn -0.3181 0.9420 0.1071
vn 0.1472 0.4611 0.8751
vn 0.4990 0.5437 0.6748
vn -0.8112 0.3199 0.4896
vn -0.2533 -0.2849 0.9245
vn 0.3082 -0.5205 0.7963
vn -0.5656 -0.7179 0.4059
vn -0.2517 -0.9237 0.2887
vn -0.9815 0.0307 -0.1890
vn -0.7194 -0.5160 -0.4650
vn -0.5605 0.5720 -0.5989
f 1/1/1 2/2/2 3/3/3 4/4/4
f 5/5/5 6/6/6 3/3/3 2/2/2
f 7/7/7 4/4/4 3/3/3 6/6/6
f 8/8/8 5/5/5 2/2/2 1/1/1
f 7/7/7 9/9/9 10/10/10 4/4/4
f 11/11/11 12/12/12 10/13/10 9/14/9
f 1/1/1 4/4/4 10/10/10 12/15/12
f 13/16/13 5/5/5 8/8/8 14/17/14
f 12/15/12 14/17/14 8/8/8 1/1/1
f 13/18/13 15/19/15 16/20/16 17/21/17
f 18/22/18 19/23/19 16/20/16 15/19/15
f 20/24/20 17/21/17 16/20/16 19/23/19
f 20/24/20 19/23/19 21/25/21 22/26/22
f 18/22/18 23/27/23 21/25/21 19/23/19
f 24/28/24 22/26/22 21/25/21 23/27/23
f 25/29/25 23/27/23 18/22/18 15/19/15
f 25/29/25 11/11/11 24/28/24 23/27/23
f 9/14/9 22/26/22 24/28/24 11/11/11
f 12/12/12 11/11/11 25/29/25 14/30/14
f 13/18/13 14/30/14 25/29/25 15/19/15
f 7/31/7 20/24/20 22/26/22 9/14/9
f 6/32/6 17/21/17 20/24/20 7/31/7
f 5/5/5 13/16/13 17/33/17 6/6/6
