# split from a merged terrain OBJ by scripts/split-terrain-obj-parts.py
o part-026
v -0.747080 0.388448 -0.004731
v -0.743701 0.388458 -0.005503
v -0.744719 0.395677 -0.006461
v -0.746921 0.395308 -0.006006
v -0.747522 0.394529 -0.007803
v -0.745749 0.394641 -0.008134
v -0.745987 0.387708 -0.008990
v -0.748949 0.388116 -0.007496
v -0.725767 0.353387 -0.010487
v -0.728503 0.360207 -0.009309
v -0.711820 0.362283 -0.002536
v -0.711858 0.355645 -0.007657
v -0.691190 0.358329 0.005318
v -0.695966 0.360047 -0.000124
v -0.704700 0.357717 0.004735
v -0.713713 0.359784 0.004043
v -0.712770 0.367420 0.000274
v -0.697715 0.354802 -0.005414
v -0.670856 0.284051 -0.005786
v -0.679578 0.285571 -0.002886
v -0.676313 0.265494 -0.008026
v -0.669982 0.267303 -0.006294
v -0.681141 0.251583 -0.009230
v -0.675147 0.261467 -0.013163
v -0.684101 0.251022 -0.002224
v -0.665637 0.266249 -0.011418
v -0.666330 0.261507 -0.011538
v -0.710999 0.257808 -0.008545
v -0.714931 0.250292 -0.006495
v -0.724118 0.250121 -0.005263
v -0.720854 0.258460 -0.008451
v -0.716449 0.251169 -0.001436
v -0.723677 0.254495 -0.003788
v -0.726378 0.258692 -0.006883
v -0.697274 0.208968 0.005959
v -0.702754 0.208132 0.005648
v -0.699775 0.199870 0.004610
v -0.696242 0.198619 0.003528
v -0.699070 0.193289 -0.000858
v -0.700910 0.198286 -0.000270
v -0.703810 0.208478 0.000245
v -0.696367 0.193491 -0.000839
v -0.694321 0.199935 0.000709
v -0.699170 0.199282 -0.002990
v -0.692735 0.201942 -0.002121
v -0.690027 0.210737 -0.001094
v -0.690538 0.204341 -0.002319
v -0.685796 0.211704 -0.004469
v -0.693328 0.209777 0.002569
v -0.696381 0.211055 -0.007591
v -0.691916 0.211893 -0.010571
v -0.725856 0.269389 -0.002284
v -0.718188 0.268597 0.001545
v -0.713344 0.268235 0.009969
v -0.711228 0.250152 0.009459
v -0.708896 0.234179 0.007890
v -0.711290 0.235637 -0.000548
v -0.706609 0.240365 -0.006955
v -0.726117 0.270330 -0.008430
v -0.718386 0.271117 -0.009888
v -0.681300 0.254226 -0.013078
v -0.678090 0.262673 -0.014102
v -0.706756 0.269971 -0.009263
v -0.694429 0.266480 -0.011332
v -0.699335 0.249154 -0.009105
v -0.686473 0.261398 -0.014426
v -0.690283 0.245314 -0.013132
v -0.702820 0.223055 -0.005647
v -0.697290 0.226280 -0.008830
v -0.691395 0.225502 -0.012072
v -0.722229 0.371654 0.002274
v -0.722557 0.366375 0.002539
v -0.712666 0.372857 0.002730
v -0.700942 0.375012 0.002915
v -0.700493 0.371809 0.000127
v -0.700539 0.374240 -0.003607
v -0.710976 0.371837 -0.004169
v -0.718597 0.369136 -0.005481
v -0.722516 0.360046 0.003185
v -0.694276 0.331177 0.003348
v -0.678385 0.330327 0.001948
v -0.678281 0.345774 0.002242
v -0.697010 0.343082 0.003888
v -0.667754 0.329193 -0.003105
v -0.664821 0.345480 -0.002932
v -0.700821 0.350628 0.005008
v -0.685316 0.352409 0.004625
v -0.674360 0.359135 0.003880
v -0.668426 0.357650 0.001218
v -0.661476 0.357448 -0.003542
v -0.688048 0.356919 -0.005485
v -0.680483 0.361214 -0.005057
v -0.678879 0.351249 -0.010085
v -0.688579 0.347923 -0.008878
v -0.665286 0.361014 -0.011336
v -0.668611 0.348404 -0.012686
v -0.671569 0.363800 -0.008099
v -0.688784 0.332289 -0.011750
v -0.678874 0.331541 -0.013131
v -0.669264 0.330755 -0.014543
v -0.673544 0.368635 -0.003756
v -0.672844 0.367043 0.004044
v -0.668187 0.373893 0.003755
v -0.673779 0.372739 0.001021
v -0.678462 0.366616 0.000716
v -0.667108 0.379916 0.003885
v -0.673152 0.379343 0.003973
v -0.671696 0.373910 -0.003293
v -0.678352 0.375164 0.000577
v -0.679312 0.378662 0.003714
v -0.689797 0.377119 0.003445
v -0.689128 0.374182 0.000525
v -0.671967 0.378474 -0.004161
v -0.679347 0.377793 -0.003593
v -0.689523 0.376112 -0.003452
v -0.731999 0.366166 -0.007225
v -0.733518 0.357721 -0.003450
v -0.736691 0.363769 -0.000193
v -0.740843 0.359919 -0.004613
v -0.738522 0.366943 -0.006689
v -0.720473 0.374277 -0.004948
v -0.730339 0.372831 -0.005537
v -0.736504 0.373065 -0.006114
v -0.729626 0.358789 0.001007
v -0.730341 0.365668 0.001743
v -0.730241 0.371295 0.001771
v -0.736459 0.370958 0.001461
v -0.743335 0.370189 0.001266
v -0.744290 0.363837 0.000228
v -0.744976 0.357551 -0.001662
v -0.744977 0.348539 -0.009139
v -0.745398 0.358372 -0.009684
v -0.741959 0.349033 -0.005592
v -0.745701 0.365855 -0.010200
v -0.744479 0.348274 -0.002098
v -0.735392 0.376001 -0.001684
v -0.742809 0.373189 -0.009414
v -0.741316 0.377026 -0.001848
v -0.742239 0.381928 -0.003896
v -0.748785 0.378713 -0.008871
v -0.755145 0.374037 -0.006246
v -0.753466 0.370584 -0.007920
v -0.747752 0.380695 -0.003123
v -0.750491 0.373778 -0.000584
v -0.750799 0.367104 0.001289
v -0.750725 0.379741 -0.005214
v -0.754137 0.374807 -0.002804
v -0.756777 0.362799 0.000311
v -0.758253 0.366285 0.001352
v -0.760418 0.370753 0.000326
v -0.758828 0.364902 -0.006373
v -0.751146 0.361855 -0.001535
v -0.749284 0.356580 -0.004381
v -0.760589 0.370100 -0.006359
v -0.759798 0.360182 -0.003197
v -0.763759 0.362183 -0.005043
v -0.766308 0.366298 0.000880
v -0.773775 0.366069 -0.003090
v -0.768540 0.370499 -0.001101
v -0.766423 0.369415 -0.005433
v -0.766432 0.366306 -0.005975
v -0.770617 0.362330 -0.002209
v -0.761409 0.372484 -0.003431
v -0.747956 0.348108 -0.005204
v -0.744400 0.336620 -0.001940
v -0.747590 0.336408 -0.005081
v -0.744950 0.336425 -0.008724
v -0.746449 0.321495 -0.004568
v -0.744040 0.321640 -0.008036
v -0.741615 0.336745 -0.005651
v -0.740928 0.321778 -0.005060
v -0.743031 0.303376 -0.008183
v -0.739962 0.303546 -0.004879
v -0.743787 0.321658 -0.001360
v -0.742965 0.303461 -0.001060
v -0.738584 0.283838 -0.004707
v -0.742013 0.283676 -0.001035
v -0.745950 0.303315 -0.004622
v -0.745329 0.283450 -0.004381
v -0.740724 0.263495 -0.000673
v -0.744515 0.263133 -0.003899
v -0.742004 0.283604 -0.008197
v -0.740647 0.263371 -0.007458
v -0.741951 0.242843 -0.003831
v -0.738593 0.243094 -0.006960
v -0.737236 0.263697 -0.004205
v -0.735738 0.243419 -0.003533
v -0.736772 0.222708 -0.006139
v -0.734110 0.223028 -0.003159
v -0.739079 0.243155 -0.000482
v -0.737182 0.222837 -0.000419
v -0.732405 0.202788 -0.002112
v -0.735484 0.202657 0.000150
v -0.739922 0.222509 -0.003575
v -0.737873 0.202232 -0.002634
v -0.733774 0.183119 0.002293
v -0.736130 0.182621 -0.001244
v -0.735043 0.202323 -0.005081
v -0.732857 0.182710 -0.003766
v -0.734928 0.171312 -0.000232
v -0.732072 0.171316 -0.002842
v -0.730166 0.183220 -0.000509
v -0.729279 0.171798 0.000044
v -0.732935 0.171697 0.002796
v -0.729712 0.375694 -0.001460
v -0.721861 0.376377 -0.000400
v -0.712563 0.377262 0.000542
v -0.711711 0.376399 -0.003761
v -0.701595 0.378880 0.001179
v -0.701345 0.378448 -0.003101
v -0.690405 0.380737 0.001308
v -0.690237 0.379953 -0.002787
v -0.680365 0.382322 0.001497
v -0.680155 0.381638 -0.002664
v -0.672761 0.383373 0.001341
v -0.672617 0.382728 -0.003114
v -0.666908 0.384354 0.001484
v -0.666064 0.383088 -0.003196
v -0.666158 0.378306 -0.005436
v -0.660504 0.383510 -0.003309
v -0.661032 0.377751 -0.006675
v -0.662710 0.370478 -0.009092
v -0.667590 0.372300 -0.006494
v -0.656579 0.376366 -0.006764
v -0.657868 0.368324 -0.008792
v -0.659587 0.358601 -0.009670
v -0.658613 0.366535 -0.003616
v -0.661291 0.346216 -0.010408
v -0.663483 0.329526 -0.010333
v -0.670296 0.306771 -0.004712
v -0.664935 0.306405 -0.010998
v -0.669433 0.306705 -0.016423
v -0.665748 0.283662 -0.011500
v -0.671957 0.281497 -0.015062
v -0.680917 0.280141 -0.016006
v -0.678336 0.307512 -0.015940
v -0.690663 0.284260 -0.012554
v -0.689215 0.308623 -0.012807
v -0.704415 0.286149 -0.010094
v -0.703450 0.309739 -0.011195
v -0.701460 0.332670 -0.010982
v -0.699131 0.346111 -0.008505
v -0.715184 0.310007 -0.010381
v -0.714579 0.332935 -0.010772
v -0.712752 0.346670 -0.010028
v -0.724197 0.331052 -0.010250
v -0.724812 0.344400 -0.010503
v -0.730482 0.329884 -0.005252
v -0.731471 0.342300 -0.005423
v -0.732770 0.350834 -0.005469
v -0.728811 0.342660 0.001693
v -0.728855 0.351292 0.000943
v -0.721173 0.343003 0.004817
v -0.721926 0.352467 0.003741
v -0.711755 0.342857 0.004221
v -0.713261 0.352461 0.004175
v -0.720548 0.330816 0.006523
v -0.709597 0.331244 0.005042
v -0.718629 0.312528 0.008348
v -0.707011 0.313596 0.006616
v -0.691496 0.312116 0.004122
v -0.704494 0.291203 0.008657
v -0.691199 0.289225 0.005331
v -0.678939 0.308859 0.000274
v -0.702766 0.269227 0.010036
v -0.690638 0.268026 0.005723
v -0.701513 0.250813 0.010271
v -0.692080 0.251378 0.006158
v -0.700431 0.234521 0.008862
v -0.692531 0.235518 0.005811
v -0.686975 0.236996 0.000118
v -0.692560 0.221912 0.004716
v -0.688505 0.223123 -0.000152
v -0.684521 0.224384 -0.005438
v -0.683213 0.239174 -0.006724
v -0.685149 0.225083 -0.012090
v -0.683963 0.241855 -0.012915
v -0.685449 0.214718 -0.011679
v -0.698877 0.220952 0.007479
v -0.705805 0.220131 0.006593
v -0.707290 0.220865 0.000071
v -0.700755 0.209683 -0.004369
v -0.715952 0.289055 0.009797
v -0.725151 0.310862 0.002966
v -0.721574 0.287121 0.002747
v -0.728807 0.309943 -0.003794
v -0.727720 0.286990 -0.003047
v -0.724153 0.309843 -0.009541
v -0.725187 0.287542 -0.009202
v -0.716593 0.287138 -0.010035
v -0.727869 0.330116 0.002307
v -0.658684 0.374181 0.000893
v -0.663052 0.366245 0.000555
v -0.655786 0.374065 -0.002715
v -0.662548 0.374581 0.002905
v -0.667325 0.366662 0.002672
v -0.680569 0.361783 0.004912
v -0.685851 0.362540 0.000400
v -0.661209 0.380879 0.003597
v -0.656136 0.380527 0.002358
v -0.657112 0.386111 0.001035
v -0.661099 0.385293 0.001485
v -0.655294 0.383531 -0.003925
v -0.653254 0.378305 -0.001023
vt 0.106965 0.966410
vt 0.104908 0.965513
vt 0.108100 0.961155
vt 0.108641 0.963057
vt 0.109483 0.963013
vt 0.109953 0.962341
vt 0.032926 0.277423
vt 0.036782 0.279905
vt 0.036860 0.281058
vt 0.032616 0.279562
vt 0.110979 0.966376
vt 0.112290 0.964222
vt 0.265329 0.644535
vt 0.267492 0.647951
vt 0.257581 0.650372
vt 0.257364 0.645886
vt 0.246898 0.653539
vt 0.248376 0.649857
vt 0.253161 0.654636
vt 0.077160 0.716492
vt 0.082103 0.715178
vt 0.077909 0.719681
vt 0.075302 0.721301
vt 0.249503 0.645581
vt 0.097507 0.673765
vt 0.092493 0.674486
vt 0.094532 0.662017
vt 0.098607 0.665831
vt 0.091989 0.655736
vt 0.096680 0.658783
vt 0.088036 0.656549
vt 0.102368 0.661578
vt 0.099223 0.663174
vt 0.257571 0.592018
vt 0.260773 0.586966
vt 0.263996 0.589395
vt 0.262657 0.593678
vt 0.265880 0.584838
vt 0.265814 0.590666
vt 0.265928 0.594198
vt 0.075082 0.634324
vt 0.071511 0.634286
vt 0.072832 0.629701
vt 0.075190 0.628636
vt 0.253431 0.558994
vt 0.252903 0.557015
vt 0.257347 0.555831
vt 0.254107 0.560641
vt 0.255689 0.564848
vt 0.258278 0.563357
vt 0.252245 0.558967
vt 0.249969 0.557823
vt 0.252201 0.561426
vt 0.247997 0.560099
vt 0.081633 0.633944
vt 0.079697 0.629246
vt 0.081496 0.630427
vt 0.085017 0.633915
vt 0.078468 0.634044
vt 0.077477 0.628717
vt 0.248544 0.567039
vt 0.246009 0.567512
vt 0.246332 0.561844
vt 0.271378 0.597243
vt 0.272568 0.594665
vt 0.071309 0.667460
vt 0.066295 0.668301
vt 0.064174 0.658645
vt 0.070576 0.657486
vt 0.069583 0.648843
vt 0.064678 0.649902
vt 0.255211 0.582267
vt 0.258664 0.578252
vt 0.266403 0.599581
vt 0.261439 0.600357
vt 0.094750 0.655566
vt 0.096905 0.657746
vt 0.254567 0.598911
vt 0.247186 0.596771
vt 0.250740 0.587660
vt 0.242158 0.593731
vt 0.245438 0.584918
vt 0.252809 0.573384
vt 0.249297 0.574971
vt 0.245538 0.574484
vt 0.070338 0.723191
vt 0.071232 0.720998
vt 0.073628 0.723999
vt 0.287733 0.047296
vt 0.288253 0.040470
vt 0.291222 0.040549
vt 0.290471 0.047420
vt 0.279441 0.047210
vt 0.276558 0.047137
vt 0.276004 0.039994
vt 0.279631 0.041211
vt 0.278990 0.036630
vt 0.274777 0.037374
vt 0.072410 0.717676
vt 0.088479 0.700401
vt 0.097276 0.698664
vt 0.098701 0.706739
vt 0.087738 0.706990
vt 0.103821 0.697135
vt 0.107659 0.706231
vt 0.251161 0.658125
vt 0.250002 0.662403
vt 0.243161 0.662344
vt 0.245110 0.657848
vt 0.239807 0.658801
vt 0.237818 0.661622
vt 0.235553 0.664876
vt 0.238097 0.667884
vt 0.243880 0.646498
vt 0.239617 0.649319
vt 0.238420 0.642941
vt 0.243825 0.641311
vt 0.118742 0.709893
vt 0.115732 0.704610
vt 0.121008 0.705725
vt 0.122884 0.710890
vt 0.243456 0.632684
vt 0.237772 0.632047
vt 0.112115 0.696429
vt 0.116993 0.696647
vt 0.235588 0.652727
vt 0.235123 0.649792
vt 0.237033 0.657061
vt 0.233399 0.657796
vt 0.235435 0.654995
vt 0.238600 0.653241
vt 0.287451 0.065708
vt 0.287148 0.062470
vt 0.290671 0.062894
vt 0.290068 0.066505
vt 0.277116 0.064363
vt 0.274203 0.065567
vt 0.275629 0.062270
vt 0.277000 0.059684
vt 0.287446 0.059148
vt 0.290152 0.059933
vt 0.287617 0.053411
vt 0.290269 0.053710
vt 0.279607 0.063390
vt 0.279860 0.059092
vt 0.279469 0.053369
vt 0.276596 0.053636
vt 0.269597 0.651323
vt 0.262674 0.653725
vt 0.272225 0.646738
vt 0.274396 0.649943
vt 0.013519 0.276848
vt 0.017817 0.276961
vt 0.016445 0.280648
vt 0.010728 0.279729
vt 0.281829 0.036213
vt 0.279090 0.029103
vt 0.282053 0.030664
vt 0.282149 0.027368
vt 0.279147 0.025446
vt 0.068761 0.717887
vt 0.068293 0.721223
vt 0.065721 0.721618
vt 0.065968 0.718392
vt 0.949797 0.702626
vt 0.947077 0.704034
vt 0.943890 0.701687
vt 0.947616 0.701068
vt 0.943887 0.705607
vt 0.940379 0.704174
vt 0.937814 0.701151
vt 0.940491 0.699999
vt 0.929688 0.698187
vt 0.930825 0.703648
vt 0.927011 0.703366
vt 0.927049 0.697537
vt 0.019477 0.273894
vt 0.014436 0.274556
vt 0.052793 0.446593
vt 0.054961 0.446936
vt 0.056190 0.451768
vt 0.053811 0.450999
vt 0.022795 0.280479
vt 0.020945 0.277978
vt 0.023455 0.274786
vt 0.025499 0.278832
vt 0.028594 0.277976
vt 0.027901 0.273545
vt 0.027005 0.267885
vt 0.024404 0.267860
vt 0.102607 0.968839
vt 0.105496 0.970949
vt 0.104860 0.976145
vt 0.100791 0.971312
vt 0.097231 0.975473
vt 0.101403 0.979871
vt 0.107888 0.971374
vt 0.107204 0.976829
vt 0.099583 0.986981
vt 0.103320 0.983485
vt 0.106432 0.983154
vt 0.950450 0.705536
vt 0.948040 0.707321
vt 0.033202 0.276446
vt 0.029522 0.272249
vt 0.029262 0.267887
vt 0.019770 0.262275
vt 0.022635 0.262057
vt 0.017478 0.266273
vt 0.017256 0.261558
vt 0.015530 0.261229
vt 0.014962 0.264134
vt 0.936044 0.705148
vt 0.934520 0.701955
vt 0.930095 0.708054
vt 0.025090 0.263321
vt 0.102361 0.986918
vt 0.103930 0.988902
vt 0.106526 0.986639
vt 0.107857 0.989901
vt 0.109207 0.987530
vt 0.110563 0.990478
vt 0.106734 0.992246
vt 0.106376 0.988767
vt 0.109703 0.984539
vt 0.112564 0.986904
vt 0.028219 0.263644
vt 0.030190 0.263075
vt 0.025820 0.259244
vt 0.026660 0.259951
vt 0.101882 0.991423
vt 0.934464 0.696176
vt 0.931966 0.697166
vt 0.052726 0.441230
vt 0.049479 0.446610
vt 0.049883 0.440999
vt 0.047071 0.440805
vt 0.046735 0.446720
vt 0.049845 0.433671
vt 0.047442 0.433372
vt 0.044395 0.446782
vt 0.044287 0.440802
vt 0.045048 0.433586
vt 0.046708 0.424639
vt 0.043773 0.424620
vt 0.052598 0.433794
vt 0.054601 0.433709
vt 0.055377 0.441000
vt 0.052665 0.424851
vt 0.055828 0.424894
vt 0.055220 0.415367
vt 0.052730 0.415145
vt 0.049689 0.424797
vt 0.049818 0.415240
vt 0.053252 0.405519
vt 0.050241 0.405405
vt 0.046889 0.415293
vt 0.047063 0.405327
vt 0.050209 0.395510
vt 0.047342 0.395479
vt 0.044095 0.414957
vt 0.044024 0.405245
vt 0.044546 0.395449
vt 0.047562 0.385602
vt 0.045325 0.385523
vt 0.052868 0.395615
vt 0.055591 0.395640
vt 0.056157 0.405548
vt 0.052591 0.385764
vt 0.055141 0.385777
vt 0.055046 0.375955
vt 0.052725 0.375749
vt 0.050035 0.385708
vt 0.050503 0.375895
vt 0.053523 0.366340
vt 0.051005 0.366245
vt 0.047776 0.375665
vt 0.048568 0.366124
vt 0.051372 0.360698
vt 0.049043 0.360577
vt 0.058708 0.991248
vt 0.068909 0.990092
vt 0.068592 0.992560
vt 0.058528 0.993872
vt 0.074009 0.992638
vt 0.074451 0.994787
vt 0.055324 0.366410
vt 0.075236 0.990654
vt 0.070384 0.987598
vt 0.045139 0.375815
vt 0.053529 0.360786
vt 0.952652 0.703798
vt 0.284704 0.028421
vt 0.284343 0.031252
vt 0.070401 0.726436
vt 0.066370 0.726779
vt 0.066862 0.723774
vt 0.284523 0.035577
vt 0.285187 0.040862
vt 0.288102 0.035455
vt 0.282449 0.041344
vt 0.285065 0.047007
vt 0.282263 0.047106
vt 0.284819 0.053256
vt 0.282054 0.053187
vt 0.284808 0.058613
vt 0.282220 0.058704
vt 0.284565 0.062521
vt 0.282066 0.062799
vt 0.284873 0.065395
vt 0.282222 0.065957
vt 0.279497 0.066746
vt 0.282378 0.068584
vt 0.280015 0.070082
vt 0.276868 0.071833
vt 0.276721 0.068078
vt 0.272485 0.073000
vt 0.271971 0.069032
vt 0.280941 0.072522
vt 0.279582 0.075344
vt 0.277185 0.078207
vt 0.283826 0.078667
vt 0.278717 0.081112
vt 0.111310 0.704527
vt 0.115467 0.709116
vt 0.112225 0.710347
vt 0.108006 0.695986
vt 0.101125 0.684910
vt 0.105607 0.683823
vt 0.109278 0.684769
vt 0.232045 0.604810
vt 0.235255 0.604109
vt 0.234757 0.617316
vt 0.232365 0.616259
vt 0.239340 0.603518
vt 0.237703 0.618856
vt 0.113829 0.685474
vt 0.244927 0.606680
vt 0.244322 0.619776
vt 0.252656 0.607615
vt 0.252196 0.620638
vt 0.250789 0.633205
vt 0.249862 0.640665
vt 0.259081 0.621172
vt 0.258648 0.633653
vt 0.257572 0.641121
vt 0.264276 0.632895
vt 0.264879 0.639858
vt 0.269139 0.631850
vt 0.269938 0.638535
vt 0.270902 0.642923
vt 0.069933 0.709631
vt 0.069747 0.714095
vt 0.065965 0.714567
vt 0.066096 0.710485
vt 0.074177 0.708951
vt 0.073675 0.713698
vt 0.079457 0.707989
vt 0.078502 0.712771
vt 0.085063 0.711317
vt 0.073854 0.702403
vt 0.079863 0.701513
vt 0.073119 0.692359
vt 0.079678 0.691922
vt 0.088541 0.689952
vt 0.079139 0.679591
vt 0.086240 0.677475
vt 0.096040 0.687342
vt 0.077160 0.667333
vt 0.084113 0.665917
vt 0.075834 0.657169
vt 0.081704 0.656645
vt 0.075099 0.648228
vt 0.080159 0.648158
vt 0.084950 0.648362
vt 0.079280 0.640634
vt 0.083127 0.640657
vt 0.087218 0.640465
vt 0.089387 0.649504
vt 0.241668 0.573541
vt 0.242094 0.581680
vt 0.238123 0.578863
vt 0.239081 0.572769
vt 0.092158 0.647969
vt 0.239279 0.589834
vt 0.240339 0.566071
vt 0.242852 0.568091
vt 0.074793 0.640875
vt 0.070267 0.641022
vt 0.256717 0.570808
vt 0.260517 0.569730
vt 0.262214 0.575272
vt 0.251815 0.566077
vt 0.072489 0.679214
vt 0.068528 0.692038
vt 0.067630 0.678985
vt 0.064406 0.692269
vt 0.063177 0.679819
vt 0.062504 0.670106
vt 0.264514 0.621117
vt 0.264779 0.608874
vt 0.268844 0.608320
vt 0.269016 0.620845
vt 0.259661 0.608800
vt 0.069303 0.703046
vt 0.065176 0.703608
vt 0.103455 0.671556
vt 0.234230 0.594122
vt 0.230829 0.596051
vt 0.286737 0.073822
vt 0.288888 0.075348
vt 0.283690 0.074678
vt 0.232345 0.664428
vt 0.234027 0.661501
vt 0.290504 0.070618
vt 0.290841 0.076088
vt 0.235726 0.659510
vt 0.232510 0.661707
vt 0.241092 0.655330
vt 0.242848 0.651542
vt 0.287388 0.068765
vt 0.286527 0.071118
vt 0.285061 0.069538
vt 0.284713 0.067866
vt 0.283303 0.070786
vt 0.284722 0.072695
vt 0.076520 0.992740
vt 0.235940 0.594031
vn -0.3672 0.2424 0.8980
vn 0.9363 0.1409 0.3217
vn 0.6294 0.7582 0.1703
vn -0.3987 0.7188 0.5695
vn -0.7650 0.5016 -0.4039
vn 0.2336 0.4914 -0.8390
vn 0.2063 0.0085 -0.9785
vn -0.9509 0.2109 -0.2263
vn -0.2229 0.1625 -0.9612
vn -0.2596 0.1315 -0.9567
vn 0.4927 0.6656 -0.5606
vn 0.1669 0.3912 -0.9050
vn -0.0804 0.4496 0.8896
vn -0.0532 0.9867 -0.1539
vn 0.0490 0.4691 0.8818
vn 0.1588 0.3099 0.9374
vn 0.6954 -0.2938 0.6558
vn 0.0299 0.5052 -0.8625
vn 0.5101 -0.0745 0.8569
vn 0.4366 -0.0726 0.8967
vn 0.5192 -0.4109 0.7494
vn 0.3732 -0.2746 0.8862
vn 0.9574 -0.2829 0.0574
vn 0.5881 -0.5716 -0.5722
vn 0.8056 -0.1106 0.5821
vn 0.9188 -0.3946 -0.0008
vn 0.3211 -0.8548 0.4077
vn -0.0890 -0.1263 -0.9880
vn -0.3976 -0.4695 -0.7884
vn -0.4201 -0.8415 -0.3398
vn -0.2160 -0.1982 -0.9561
vn -0.7841 -0.4535 0.4238
vn -0.7832 -0.5060 0.3615
vn -0.8890 -0.1749 -0.4232
vn 0.3353 -0.1418 0.9314
vn -0.6036 -0.2709 0.7498
vn -0.4903 -0.3919 0.7785
vn 0.2623 -0.4596 0.8485
vn -0.3349 -0.9313 -0.1431
vn -0.8558 -0.4968 -0.1442
vn -0.9414 -0.2657 -0.2077
vn 0.5182 -0.8261 -0.2215
vn 0.8825 -0.4091 0.2321
vn -0.2545 -0.3552 -0.8995
vn 0.6686 -0.6100 -0.4254
vn 0.7167 -0.1711 0.6761
vn 0.6060 -0.7880 0.1085
vn 0.8880 -0.4273 0.1698
vn 0.7248 -0.1642 0.6691
vn -0.3056 -0.3224 -0.8959
vn -0.0335 -0.4538 -0.8905
vn -0.8385 -0.1056 0.5345
vn -0.6994 -0.1439 0.7001
vn -0.4872 -0.0713 0.8704
vn -0.5648 -0.1402 0.8132
vn -0.6297 -0.2054 0.7492
vn -0.9376 -0.2919 -0.1888
vn -0.4900 -0.2094 -0.8462
vn -0.7563 -0.0716 -0.6503
vn -0.0741 -0.0563 -0.9957
vn 0.4075 -0.2586 -0.8758
vn 0.2125 -0.2000 -0.9565
vn -0.0747 -0.0502 -0.9959
vn -0.2617 -0.0156 -0.9650
vn -0.2909 -0.0597 -0.9549
vn -0.1606 -0.0465 -0.9859
vn -0.2060 -0.0407 -0.9777
vn -0.5915 -0.1616 -0.7899
vn -0.4315 -0.0797 -0.8986
vn -0.2659 -0.0655 -0.9618
vn -0.0476 0.2114 0.9762
vn -0.0281 0.0382 0.9989
vn 0.0116 0.0345 0.9993
vn 0.0096 -0.0956 0.9954
vn 0.2285 -0.9590 0.1675
vn 0.1306 -0.3999 -0.9072
vn 0.2690 -0.2382 -0.9332
vn 0.2538 0.0917 -0.9629
vn -0.1366 0.0830 0.9871
vn 0.1178 0.0192 0.9929
vn 0.2789 -0.0454 0.9592
vn 0.2529 -0.1159 0.9605
vn 0.0609 -0.0649 0.9960
vn 0.6529 -0.0998 0.7508
vn 0.6905 -0.1504 0.7075
vn -0.0034 -0.0691 0.9976
vn 0.1068 -0.1316 0.9855
vn 0.2306 -0.1323 0.9640
vn 0.4164 -0.1975 0.8875
vn 0.7834 -0.2296 0.5775
vn -0.2007 0.5569 -0.8059
vn -0.4009 0.5628 -0.7229
vn -0.2243 0.2633 -0.9383
vn -0.1259 0.2676 -0.9553
vn -0.0151 0.1742 -0.9846
vn 0.0617 0.1067 -0.9924
vn -0.3720 0.3369 -0.8649
vn -0.1254 0.1159 -0.9853
vn -0.1580 0.1168 -0.9805
vn 0.2260 0.0680 -0.9717
vn -0.6377 0.3902 -0.6642
vn -0.1184 0.1779 0.9769
vn -0.0325 -0.0800 0.9963
vn -0.8088 0.0039 0.5880
vn -0.6209 0.7746 0.1207
vn -0.0381 0.1788 0.9832
vn -0.1331 0.1010 0.9859
vn -0.5649 -0.1160 -0.8170
vn -0.2180 -0.9637 0.1542
vn -0.0683 -0.0462 0.9966
vn -0.0098 -0.1163 0.9932
vn 0.1435 -0.9760 0.1635
vn -0.2307 0.0223 -0.9728
vn -0.0789 -0.3022 -0.9500
vn 0.0756 -0.4204 -0.9042
vn -0.1042 -0.0627 -0.9926
vn -0.9714 -0.2361 -0.0258
vn -0.1683 -0.6747 0.7187
vn 0.8364 -0.5365 -0.1123
vn 0.4211 -0.2730 -0.8649
vn 0.0020 0.5896 -0.8077
vn 0.0350 0.5401 -0.8409
vn 0.2035 0.5264 -0.8255
vn -0.4476 -0.1555 0.8806
vn -0.2066 -0.1208 0.9709
vn -0.1014 0.2701 0.9575
vn -0.0510 0.1939 0.9797
vn -0.0193 0.1112 0.9936
vn 0.0467 -0.3926 0.9185
vn 0.0833 -0.3336 0.9390
vn -0.0381 -0.0412 -0.9984
vn -0.0962 -0.1190 -0.9882
vn 0.9991 -0.0247 -0.0342
vn -0.0730 -0.2247 -0.9717
vn 0.1018 -0.0595 0.9930
vn 0.0828 0.9709 0.2246
vn 0.2624 0.1746 -0.9490
vn 0.3164 0.8267 0.4652
vn 0.8596 0.4270 0.2806
vn -0.1462 0.2497 -0.9572
vn -0.5002 0.6259 -0.5983
vn -0.2288 -0.0808 -0.9701
vn -0.2746 0.3703 0.8874
vn -0.1414 0.3985 0.9062
vn -0.0233 -0.1630 0.9864
vn -0.8368 0.5297 0.1386
vn -0.4430 0.7493 0.4923
vn 0.4937 -0.8518 0.1755
vn 0.0723 0.0120 0.9973
vn -0.1584 0.5011 0.8508
vn 0.1066 -0.5470 -0.8303
vn -0.5110 -0.8314 0.2181
vn -0.9690 -0.2138 0.1235
vn -0.1850 0.2873 -0.9398
vn 0.7145 -0.6759 0.1807
vn 0.0446 -0.9278 -0.3703
vn -0.2545 -0.1575 0.9542
vn -0.9936 0.0388 -0.1064
vn -0.5744 0.7680 0.2833
vn -0.3233 0.5487 -0.7710
vn -0.2645 -0.0990 -0.9593
vn -0.6418 -0.7600 0.1026
vn -0.3463 0.9336 -0.0917
vn -0.9928 -0.0742 0.0945
vn 0.0608 0.0201 0.9979
vn -0.9966 -0.0424 0.0710
vn -0.0943 -0.0386 -0.9948
vn -0.9975 -0.0480 0.0517
vn -0.0811 -0.0255 -0.9964
vn 0.9962 0.0265 -0.0827
vn 0.9967 0.0499 -0.0643
vn -0.0465 0.0053 -0.9989
vn 0.9974 0.0582 -0.0422
vn 0.0297 0.0247 0.9993
vn 0.0145 0.0179 0.9997
vn 0.9979 0.0605 -0.0240
vn 0.0180 0.0234 0.9996
vn -0.9992 -0.0370 0.0181
vn -0.9986 -0.0483 0.0195
vn 0.0077 0.0148 0.9999
vn -0.9964 -0.0842 0.0099
vn -0.0224 -0.0104 -0.9997
vn 0.0066 -0.0279 -0.9996
vn -0.9931 -0.1087 -0.0444
vn 0.0569 -0.0281 -0.9980
vn 0.9975 0.0701 0.0035
vn 0.9958 0.0783 0.0466
vn 0.0744 -0.0368 -0.9965
vn 0.9949 0.0790 0.0625
vn -0.0354 -0.0005 0.9994
vn -0.0734 0.0130 0.9972
vn 0.9911 0.1034 0.0841
vn -0.1187 0.0553 0.9914
vn -0.9914 -0.1035 -0.0806
vn -0.9899 -0.0967 -0.1039
vn -0.1493 0.0597 0.9870
vn -0.9863 -0.0993 -0.1319
vn 0.0774 -0.0520 -0.9956
vn 0.0925 -0.0647 -0.9936
vn -0.7432 -0.6661 -0.0626
vn 0.1042 -0.6370 -0.7638
vn 0.9897 0.0980 0.1040
vn 0.8628 -0.4937 0.1086
vn -0.0933 -0.5322 0.8415
vn -0.0538 0.9802 0.1906
vn -0.1360 0.9461 0.2938
vn -0.1572 0.8952 0.4169
vn -0.0417 0.6629 -0.7475
vn -0.1578 0.8703 0.4666
vn -0.0854 0.6985 -0.7105
vn -0.1533 0.8869 0.4358
vn -0.1020 0.7005 -0.7063
vn -0.1415 0.8963 0.4204
vn -0.1285 0.7210 -0.6809
vn -0.1193 0.9089 0.3995
vn -0.1310 0.7348 -0.6656
vn -0.1080 0.9135 0.3922
vn -0.1197 0.7499 -0.6507
vn -0.2217 0.3087 -0.9250
vn -0.0956 0.7377 -0.6683
vn -0.0663 0.3731 -0.9254
vn -0.0699 0.2562 -0.9641
vn -0.3970 0.2691 -0.8775
vn 0.6013 0.1168 -0.7905
vn 0.7530 -0.0381 -0.6569
vn 0.8487 -0.1119 -0.5169
vn 0.8715 -0.2982 0.3893
vn 0.9137 -0.1083 -0.3917
vn 0.9774 -0.0741 -0.1981
vn 0.6142 -0.0874 0.7843
vn 0.9941 -0.0641 -0.0874
vn 0.3463 0.0059 -0.9381
vn 0.9880 -0.0633 -0.1407
vn 0.2831 -0.0662 -0.9568
vn -0.1052 -0.0317 -0.9939
vn -0.1417 0.0423 -0.9890
vn -0.2439 -0.0022 -0.9698
vn -0.1854 0.0281 -0.9823
vn -0.0877 -0.0276 -0.9958
vn -0.0774 -0.0048 -0.9970
vn -0.0317 0.0806 -0.9962
vn 0.0150 0.2282 -0.9735
vn -0.0607 -0.0164 -0.9980
vn -0.0151 0.0255 -0.9996
vn 0.0775 0.1379 -0.9874
vn -0.3600 -0.0330 -0.9324
vn -0.2832 0.0048 -0.9591
vn -0.9666 -0.0798 -0.2434
vn -0.9602 -0.0750 -0.2689
vn -0.9673 -0.0929 -0.2362
vn -0.7179 0.0050 0.6961
vn -0.6381 -0.0363 0.7691
vn -0.1846 0.0786 0.9797
vn -0.1992 0.0442 0.9790
vn 0.0390 0.0331 0.9987
vn -0.0393 0.0143 0.9991
vn -0.2115 0.0693 0.9749
vn 0.1082 0.0820 0.9907
vn -0.2791 0.0300 0.9598
vn 0.1453 0.0909 0.9852
vn 0.2344 0.0276 0.9717
vn 0.1631 0.0685 0.9842
vn 0.3941 0.0164 0.9189
vn 0.3789 -0.0629 0.9233
vn 0.1657 0.0264 0.9858
vn 0.5158 -0.0069 0.8567
vn 0.1569 -0.0357 0.9870
vn 0.5498 -0.0306 0.8347
vn 0.1426 -0.0833 0.9863
vn 0.5708 -0.0556 0.8192
vn 0.8023 -0.0625 0.5936
vn 0.6169 -0.1021 0.7804
vn 0.7716 -0.0914 0.6294
vn 0.9593 -0.0799 0.2709
vn 0.9789 -0.1085 0.1732
vn 0.6534 -0.0988 -0.7505
vn 0.6235 -0.1390 -0.7694
vn 0.6399 -0.3025 -0.7064
vn 0.1854 -0.1054 0.9770
vn -0.6495 -0.2262 0.7259
vn -0.9373 -0.2514 -0.2414
vn -0.5483 -0.2391 -0.8014
vn -0.3819 -0.0230 0.9239
vn -0.7576 -0.0623 0.6497
vn -0.7249 -0.0971 0.6820
vn -0.9958 -0.0714 -0.0565
vn -0.9733 -0.0642 0.2204
vn -0.4654 -0.0311 -0.8846
vn -0.6013 -0.0211 -0.7988
vn -0.0616 -0.0222 -0.9979
vn -0.7587 -0.0272 0.6509
vn 0.5189 -0.3521 0.7790
vn 0.5270 -0.2707 0.8056
vn 0.9201 -0.3438 0.1875
vn 0.2696 -0.1917 0.9437
vn 0.3054 -0.1669 0.9375
vn -0.1223 0.3579 0.9257
vn -0.3601 0.9311 -0.0572
vn 0.1379 0.1331 0.9815
vn 0.6220 0.0502 0.7814
vn 0.3714 0.8715 0.3202
vn -0.0370 0.9126 0.4071
vn 0.6143 0.6053 -0.5063
vn 0.9739 -0.1527 0.1679
f 1/1/1 2/2/2 3/3/3 4/4/4
f 5/5/5 4/4/4 3/3/3 6/6/6
f 7/7/7 6/8/6 3/9/3 2/10/2
f 8/11/8 1/1/1 4/4/4 5/5/5
f 8/11/8 5/5/5 6/6/6 7/12/7
f 9/13/9 10/14/10 11/15/11 12/16/12
f 13/17/13 14/18/14 11/15/11 15/19/15
f 16/20/16 15/21/15 11/22/11 17/23/17
f 18/24/18 12/16/12 11/15/11 14/18/14
f 19/25/19 20/26/20 21/27/21 22/28/22
f 23/29/23 24/30/24 21/27/21 25/31/25
f 26/32/26 27/33/27 21/27/21 24/30/24
f 28/34/28 29/35/29 30/36/30 31/37/31
f 32/38/32 33/39/33 30/36/30 29/35/29
f 34/40/34 31/37/31 30/36/30 33/39/33
f 35/41/35 36/42/36 37/43/37 38/44/38
f 39/45/39 38/46/38 37/47/37 40/48/40
f 41/49/41 40/48/40 37/47/37 36/50/36
f 38/46/38 39/45/39 42/51/42 43/52/43
f 40/48/40 44/53/44 42/51/42 39/45/39
f 45/54/45 43/52/43 42/51/42 44/53/44
f 46/55/46 45/56/45 47/57/47 48/58/48
f 49/59/49 43/60/43 45/56/45 46/55/46
f 50/61/50 51/62/51 47/63/47 45/54/45
f 52/64/52 33/39/33 32/38/32 53/65/53
f 54/66/54 53/67/53 32/68/32 55/69/55
f 56/70/56 55/69/55 32/68/32 57/71/57
f 58/72/58 57/73/57 32/38/32 29/35/29
f 52/64/52 59/74/59 34/40/34 33/39/33
f 60/75/60 31/37/31 34/40/34 59/74/59
f 23/29/23 61/76/61 62/77/62 24/30/24
f 63/78/63 64/79/64 65/80/65 28/34/28
f 66/81/66 67/82/67 65/80/65 64/79/64
f 68/83/68 58/72/58 65/80/65 69/84/69
f 29/35/29 28/34/28 65/80/65 58/72/58
f 70/85/70 69/84/69 65/80/65 67/82/67
f 71/86/71 72/87/72 17/23/17 73/88/73
f 74/89/74 73/90/73 17/91/17 75/92/75
f 76/93/76 75/94/75 17/95/17 77/96/77
f 78/97/78 77/96/77 17/95/17 11/98/11
f 79/99/79 16/20/16 17/23/17 72/87/72
f 80/100/80 81/101/81 82/102/82 83/103/83
f 84/104/84 85/105/85 82/102/82 81/101/81
f 86/106/86 83/107/83 82/108/82 87/109/87
f 88/110/88 87/109/87 82/108/82 89/111/89
f 90/112/90 89/111/89 82/108/82 85/113/85
f 91/114/91 92/115/92 93/116/93 94/117/94
f 95/118/95 96/119/96 93/120/93 97/121/97
f 98/122/98 94/117/94 93/116/93 99/123/99
f 100/124/100 99/125/99 93/120/93 96/119/96
f 101/126/101 97/127/97 93/116/93 92/115/92
f 102/128/102 103/129/103 104/130/104 105/131/105
f 106/132/106 107/133/107 104/134/104 103/135/103
f 92/115/92 105/131/105 104/130/104 101/126/101
f 108/136/108 101/137/101 104/138/104 109/139/109
f 110/140/110 109/141/109 104/134/104 107/133/107
f 111/142/111 112/143/112 109/141/109 110/140/110
f 113/144/113 108/136/108 109/139/109 114/145/114
f 115/146/115 114/145/114 109/139/109 112/147/112
f 116/148/116 78/149/78 11/15/11 10/14/10
f 117/150/117 118/151/118 116/148/116 10/14/10
f 119/152/119 120/153/120 116/154/116 118/155/118
f 121/156/121 78/97/78 116/157/116 122/158/122
f 123/159/123 122/158/122 116/157/116 120/160/120
f 124/161/124 125/162/125 118/163/118 117/164/117
f 126/165/126 127/166/127 118/167/118 125/168/125
f 128/169/128 129/170/129 118/167/118 127/166/127
f 130/171/130 119/172/119 118/167/118 129/170/129
f 131/173/131 132/174/132 119/175/119 133/176/133
f 134/177/134 120/153/120 119/152/119 132/178/132
f 135/179/135 133/180/133 119/181/119 130/182/130
f 136/183/136 123/184/123 137/185/137 138/186/138
f 120/153/120 134/177/134 137/185/137 123/184/123
f 139/187/139 138/186/138 137/185/137 140/188/140
f 141/189/141 140/188/140 137/185/137 142/190/142
f 139/191/139 143/192/143 144/193/144 138/194/138
f 128/195/128 138/194/138 144/193/144 145/196/145
f 146/197/146 147/198/147 144/193/144 143/192/143
f 148/199/148 145/196/145 144/193/144 149/200/149
f 150/201/150 149/200/149 144/193/144 147/198/147
f 127/166/127 136/202/136 138/203/138 128/169/128
f 8/204/8 7/7/7 140/188/140 146/205/146
f 147/206/147 146/205/146 140/188/140 141/189/141
f 148/207/148 151/208/151 152/209/152 145/210/145
f 128/211/128 145/210/145 152/209/152 129/212/129
f 130/171/130 129/170/129 152/213/152 153/214/153
f 137/185/137 134/177/134 152/209/152 142/190/142
f 132/174/132 153/214/153 152/213/152 134/215/134
f 154/216/154 142/190/142 152/209/152 151/208/151
f 148/199/148 149/200/149 155/217/155 156/218/156
f 150/201/150 157/219/157 155/217/155 149/200/149
f 158/220/158 159/221/159 160/222/160 161/223/161
f 157/219/157 159/221/159 158/220/158 162/224/162
f 156/218/156 162/224/162 158/220/158 161/223/161
f 150/201/150 163/225/163 159/221/159 157/219/157
f 154/226/154 160/222/160 159/221/159 163/225/163
f 147/206/147 141/189/141 163/227/163 150/228/150
f 142/190/142 154/216/154 163/227/163 141/189/141
f 154/216/154 151/208/151 161/229/161 160/230/160
f 148/199/148 156/218/156 161/223/161 151/231/151
f 135/232/135 130/171/130 153/214/153 164/233/164
f 131/173/131 164/233/164 153/214/153 132/174/132
f 165/234/165 135/179/135 164/235/164 166/236/166
f 167/237/167 166/236/166 164/235/164 131/238/131
f 168/239/168 166/236/166 167/237/167 169/240/169
f 133/241/133 170/242/170 167/237/167 131/238/131
f 171/243/171 169/240/169 167/237/167 170/242/170
f 172/244/172 169/240/169 171/243/171 173/245/173
f 165/234/165 174/246/174 171/247/171 170/248/170
f 175/249/175 173/250/173 171/247/171 174/246/174
f 176/251/176 173/250/173 175/249/175 177/252/177
f 168/239/168 178/253/178 175/249/175 174/246/174
f 179/254/179 177/252/177 175/249/175 178/253/178
f 180/255/180 177/252/177 179/254/179 181/256/181
f 172/244/172 182/257/182 179/254/179 178/253/178
f 183/258/183 181/256/181 179/254/179 182/257/182
f 184/259/184 181/256/181 183/258/183 185/260/185
f 176/261/176 186/262/186 183/258/183 182/257/182
f 187/263/187 185/260/185 183/258/183 186/262/186
f 188/264/188 185/260/185 187/263/187 189/265/189
f 180/255/180 190/266/190 187/267/187 186/268/186
f 191/269/191 189/270/189 187/267/187 190/266/190
f 192/271/192 189/270/189 191/269/191 193/272/193
f 184/259/184 194/273/194 191/269/191 190/266/190
f 195/274/195 193/272/193 191/269/191 194/273/194
f 196/275/196 193/272/193 195/274/195 197/276/197
f 188/264/188 198/277/198 195/274/195 194/273/194
f 199/278/199 197/276/197 195/274/195 198/277/198
f 200/279/200 197/276/197 199/278/199 201/280/201
f 192/281/192 202/282/202 199/283/199 198/284/198
f 203/285/203 201/286/201 199/283/199 202/282/202
f 193/272/193 196/275/196 202/287/202 192/271/192
f 204/288/204 203/285/203 202/282/202 196/289/196
f 189/265/189 192/290/192 198/277/198 188/264/188
f 200/279/200 204/291/204 196/275/196 197/276/197
f 185/260/185 188/264/188 194/273/194 184/259/184
f 181/256/181 184/259/184 190/266/190 180/255/180
f 177/252/177 180/255/180 186/268/186 176/251/176
f 173/245/173 176/261/176 182/257/182 172/244/172
f 169/240/169 172/244/172 178/253/178 168/239/168
f 166/236/166 168/239/168 174/246/174 165/234/165
f 135/179/135 165/234/165 170/248/170 133/180/133
f 1/1/1 8/11/8 146/197/146 143/192/143
f 2/2/2 1/1/1 143/192/143 139/191/139
f 7/7/7 2/10/2 139/187/139 140/188/140
f 126/165/126 205/292/205 136/202/136 127/166/127
f 122/158/122 123/159/123 136/293/136 205/294/205
f 71/86/71 206/295/206 205/296/205 126/297/126
f 121/156/121 122/158/122 205/294/205 206/298/206
f 73/90/73 207/299/207 206/298/206 71/300/71
f 208/301/208 121/156/121 206/298/206 207/299/207
f 209/302/209 210/303/210 208/301/208 207/299/207
f 76/93/76 77/96/77 208/301/208 210/303/210
f 78/97/78 121/156/121 208/301/208 77/96/77
f 211/304/211 212/305/212 210/303/210 209/302/209
f 115/146/115 76/93/76 210/303/210 212/305/212
f 213/306/213 214/307/214 212/305/212 211/304/211
f 114/145/114 115/146/115 212/305/212 214/307/214
f 215/308/215 216/309/216 214/307/214 213/306/213
f 113/144/113 114/145/114 214/307/214 216/309/216
f 217/310/217 218/311/218 216/309/216 215/308/215
f 219/312/219 113/144/113 216/309/216 218/311/218
f 220/313/220 221/314/221 219/312/219 218/311/218
f 222/315/222 223/316/223 219/312/219 221/314/221
f 108/136/108 113/144/113 219/312/219 223/316/223
f 95/317/95 97/318/97 223/316/223 222/315/222
f 101/137/101 108/136/108 223/316/223 97/318/97
f 224/319/224 225/320/225 222/315/222 221/314/221
f 226/321/226 95/317/95 222/315/222 225/320/225
f 227/322/227 90/323/90 226/321/226 225/320/225
f 85/105/85 228/324/228 226/325/226 90/326/90
f 96/119/96 95/118/95 226/325/226 228/324/228
f 84/104/84 229/327/229 228/324/228 85/105/85
f 100/124/100 96/119/96 228/324/228 229/327/229
f 230/328/230 231/329/231 229/327/229 84/104/84
f 232/330/232 100/124/100 229/327/229 231/329/231
f 233/331/233 234/332/234 232/333/232 231/334/231
f 235/335/235 236/336/236 232/333/232 234/332/234
f 99/125/99 100/124/100 232/330/232 236/337/236
f 237/338/237 238/339/238 236/336/236 235/335/235
f 98/122/98 99/123/99 236/336/236 238/339/238
f 239/340/239 240/341/240 238/339/238 237/338/237
f 241/342/241 98/122/98 238/339/238 240/341/240
f 94/117/94 98/122/98 241/342/241 242/343/242
f 243/344/243 244/345/244 241/342/241 240/341/240
f 245/346/245 242/343/242 241/342/241 244/345/244
f 18/24/18 242/343/242 245/346/245 12/16/12
f 246/347/246 247/348/247 245/346/245 244/345/244
f 9/13/9 12/16/12 245/346/245 247/348/247
f 248/349/248 249/350/249 247/348/247 246/347/246
f 250/351/250 9/13/9 247/348/247 249/350/249
f 10/14/10 9/13/9 250/351/250 117/150/117
f 251/352/251 252/353/252 250/354/250 249/355/249
f 124/161/124 117/164/117 250/354/250 252/353/252
f 253/356/253 254/357/254 252/353/252 251/352/251
f 79/99/79 124/161/124 252/353/252 254/357/254
f 255/358/255 256/359/256 254/357/254 253/356/253
f 16/20/16 79/99/79 254/357/254 256/359/256
f 83/103/83 86/360/86 256/359/256 255/358/255
f 15/21/15 16/20/16 256/359/256 86/360/86
f 257/361/257 258/362/258 255/358/255 253/356/253
f 80/100/80 83/103/83 255/358/255 258/362/258
f 259/363/259 260/364/260 258/362/258 257/361/257
f 261/365/261 80/100/80 258/362/258 260/364/260
f 262/366/262 263/367/263 261/365/261 260/364/260
f 20/26/20 264/368/264 261/365/261 263/367/263
f 81/101/81 80/100/80 261/365/261 264/368/264
f 19/25/19 230/328/230 264/368/264 20/26/20
f 84/104/84 81/101/81 264/368/264 230/328/230
f 265/369/265 266/370/266 263/367/263 262/366/262
f 21/27/21 20/26/20 263/367/263 266/370/266
f 267/371/267 268/372/268 266/370/266 265/369/265
f 25/31/25 21/27/21 266/370/266 268/372/268
f 269/373/269 270/374/270 268/372/268 267/371/267
f 271/375/271 25/31/25 268/372/268 270/374/270
f 272/376/272 273/377/273 271/375/271 270/374/270
f 274/378/274 275/379/275 271/375/271 273/377/273
f 23/29/23 25/31/25 271/375/271 275/379/275
f 276/380/276 277/381/277 275/382/275 274/383/274
f 61/76/61 23/29/23 275/379/275 277/384/277
f 70/85/70 67/82/67 277/381/277 276/380/276
f 66/81/66 61/385/61 277/381/277 67/82/67
f 48/386/48 278/387/278 276/380/276 274/383/274
f 51/62/51 70/85/70 276/380/276 278/387/278
f 46/55/46 48/58/48 274/378/274 273/377/273
f 49/59/49 46/55/46 273/377/273 272/376/272
f 269/373/269 279/388/279 272/376/272 270/374/270
f 35/41/35 49/59/49 272/376/272 279/388/279
f 56/70/56 280/389/280 279/388/279 269/373/269
f 36/42/36 35/41/35 279/388/279 280/389/280
f 57/73/57 281/390/281 280/391/280 56/392/56
f 41/49/41 36/50/36 280/391/280 281/390/281
f 58/72/58 68/83/68 281/390/281 57/73/57
f 282/393/282 41/49/41 281/390/281 68/83/68
f 69/84/69 50/61/50 282/393/282 68/83/68
f 45/54/45 44/53/44 282/393/282 50/61/50
f 40/48/40 41/49/41 282/393/282 44/53/44
f 55/69/55 56/70/56 269/373/269 267/371/267
f 54/66/54 55/69/55 267/371/267 265/369/265
f 283/394/283 54/66/54 265/369/265 262/366/262
f 284/395/284 285/396/285 283/394/283 259/363/259
f 53/67/53 54/66/54 283/394/283 285/396/285
f 260/364/260 259/363/259 283/394/283 262/366/262
f 286/397/286 287/398/287 285/396/285 284/395/284
f 52/399/52 53/67/53 285/396/285 287/398/287
f 288/400/288 289/401/289 287/402/287 286/403/286
f 59/74/59 52/64/52 287/402/287 289/401/289
f 243/344/243 290/404/290 289/401/289 288/400/288
f 60/75/60 59/74/59 289/401/289 290/404/290
f 240/341/240 239/340/239 290/404/290 243/344/243
f 63/78/63 60/75/60 290/404/290 239/340/239
f 244/345/244 243/344/243 288/400/288 246/347/246
f 248/349/248 246/347/246 288/400/288 286/403/286
f 291/405/291 248/406/248 286/397/286 284/395/284
f 249/355/249 248/406/248 291/405/291 251/352/251
f 259/363/259 257/361/257 291/405/291 284/395/284
f 253/356/253 251/352/251 291/405/291 257/361/257
f 91/114/91 94/117/94 242/343/242 18/24/18
f 64/79/64 63/78/63 239/340/239 237/338/237
f 66/81/66 64/79/64 237/338/237 235/335/235
f 230/328/230 19/25/19 233/407/233 231/329/231
f 22/28/22 26/32/26 233/407/233 19/25/19
f 24/408/24 234/332/234 233/331/233 26/409/26
f 292/410/292 293/411/293 227/322/227 294/412/294
f 89/111/89 90/112/90 227/413/227 293/414/293
f 224/319/224 294/412/294 227/322/227 225/320/225
f 295/415/295 296/416/296 293/411/293 292/410/292
f 88/110/88 89/111/89 293/414/293 296/417/296
f 103/129/103 102/128/102 296/417/296 295/418/295
f 297/419/297 88/110/88 296/417/296 102/128/102
f 14/18/14 13/17/13 297/419/297 298/420/298
f 87/109/87 88/110/88 297/419/297 13/17/13
f 105/131/105 298/420/298 297/419/297 102/128/102
f 18/24/18 14/18/14 298/420/298 91/114/91
f 92/115/92 91/114/91 298/420/298 105/131/105
f 106/132/106 103/135/103 295/415/295 299/421/299
f 300/422/300 299/421/299 295/415/295 292/410/292
f 301/423/301 302/424/302 299/421/299 300/422/300
f 217/310/217 106/132/106 299/421/299 302/424/302
f 303/425/303 220/313/220 302/424/302 301/423/301
f 218/311/218 217/310/217 302/424/302 220/313/220
f 304/426/304 300/422/300 292/410/292 294/412/294
f 303/425/303 304/426/304 294/412/294 224/319/224
f 220/313/220 303/425/303 224/319/224 221/314/221
f 107/133/107 106/132/106 217/310/217 215/308/215
f 110/140/110 107/133/107 215/308/215 213/306/213
f 111/142/111 110/140/110 213/306/213 211/304/211
f 74/89/74 111/142/111 211/304/211 209/302/209
f 73/90/73 74/89/74 209/302/209 207/299/207
f 72/87/72 71/86/71 126/297/126 125/162/125
f 79/99/79 72/87/72 125/162/125 124/161/124
f 75/94/75 76/93/76 115/146/115 112/147/112
f 74/89/74 75/92/75 112/143/112 111/142/111
f 13/17/13 15/19/15 86/106/86 87/109/87
f 50/61/50 69/84/69 70/85/70 51/62/51
f 31/37/31 60/75/60 63/78/63 28/34/28
f 38/44/38 43/60/43 49/59/49 35/41/35
f 301/423/301 300/422/300 304/426/304 303/425/303
f 200/427/200 201/286/201 203/285/203 204/288/204
f 235/335/235 62/428/62 61/385/61 66/81/66
f 24/408/24 62/428/62 235/335/235 234/332/234
f 278/387/278 48/386/48 47/63/47 51/62/51
f 157/219/157 162/224/162 156/218/156 155/217/155
f 22/28/22 27/33/27 26/32/26
f 27/33/27 22/28/22 21/27/21
