# split from a merged terrain OBJ by scripts/split-terrain-obj-parts.py
o part-021
v -0.540421 0.360835 -0.005210
v -0.541278 0.366596 -0.004475
v -0.543113 0.366861 -0.003704
v -0.542921 0.360881 -0.003262
v -0.542826 0.366368 -0.006448
v -0.544080 0.367421 -0.004859
v -0.545116 0.360972 -0.005034
v -0.543140 0.360794 -0.007185
v -0.501003 0.345372 0.000636
v -0.502256 0.347661 -0.001571
v -0.502031 0.348018 -0.000370
v -0.503041 0.344471 0.001078
v -0.507089 0.347045 -0.003239
v -0.505026 0.343307 -0.004258
v -0.504697 0.342018 -0.001585
v -0.508441 0.347448 0.000591
v -0.508233 0.343156 0.001315
v -0.508264 0.340394 -0.001786
v -0.509841 0.341596 -0.004930
v -0.513935 0.346292 0.001183
v -0.519213 0.344547 0.001912
v -0.518874 0.336445 0.002082
v -0.513346 0.340722 0.001509
v -0.524470 0.343945 0.001686
v -0.524616 0.336523 0.002585
v -0.526511 0.327890 0.003415
v -0.522618 0.326669 0.002437
v -0.512850 0.337469 -0.001458
v -0.516161 0.332923 -0.001586
v -0.519322 0.324774 -0.001007
v -0.533938 0.339539 -0.006143
v -0.539861 0.338867 -0.007365
v -0.539101 0.345666 -0.007003
v -0.533810 0.345231 -0.005033
v -0.547329 0.337258 -0.006772
v -0.546897 0.343549 -0.006823
v -0.535938 0.344794 0.000705
v -0.543452 0.345574 -0.000044
v -0.542793 0.353674 -0.002036
v -0.539307 0.353479 -0.006065
v -0.544109 0.352574 -0.008079
v -0.541823 0.327763 -0.007501
v -0.540562 0.333487 -0.007295
v -0.534910 0.333549 -0.004673
v -0.537696 0.327252 -0.004369
v -0.528679 0.339250 -0.005690
v -0.528624 0.334620 -0.003313
v -0.541119 0.326920 -0.001744
v -0.537551 0.333976 -0.000341
v -0.530033 0.335453 0.000882
v -0.529872 0.344323 0.001641
v -0.547293 0.332650 -0.001679
v -0.546252 0.326908 -0.004438
v -0.529044 0.326477 -0.003265
v -0.529293 0.327390 0.001034
v -0.522894 0.338916 -0.006122
v -0.523149 0.333269 -0.006486
v -0.524454 0.325700 -0.007113
v -0.515549 0.338475 -0.005410
v -0.523659 0.344945 -0.004344
v -0.518133 0.345476 -0.004080
v -0.512650 0.346300 -0.004017
v -0.517430 0.332113 -0.005653
v -0.535242 0.187536 -0.010372
v -0.534572 0.180503 -0.007164
v -0.536328 0.174423 -0.008863
v -0.539740 0.175995 -0.010943
v -0.537940 0.182177 -0.002716
v -0.540257 0.175176 -0.004768
v -0.529728 0.208745 -0.003172
v -0.534706 0.193859 -0.002932
v -0.530260 0.207042 -0.010417
v -0.555094 0.160796 -0.005455
v -0.555036 0.162770 0.002020
v -0.559779 0.157072 0.003273
v -0.562252 0.158104 -0.001051
v -0.561898 0.164766 0.005603
v -0.564669 0.158306 0.003667
v -0.566889 0.156513 -0.000347
v -0.593673 0.167032 -0.007283
v -0.593429 0.168018 -0.010138
v -0.584790 0.162943 -0.006595
v -0.586031 0.167398 -0.006249
v -0.575999 0.157860 -0.004909
v -0.577864 0.160841 -0.002179
v -0.579745 0.161699 -0.007190
v -0.579021 0.166766 -0.000763
v -0.572082 0.153387 -0.000314
v -0.571989 0.158671 0.002951
v -0.570336 0.160030 -0.005439
v -0.594111 0.176064 -0.011398
v -0.587466 0.174467 -0.011107
v -0.581019 0.173210 -0.011006
v -0.581926 0.166717 -0.009591
v -0.600518 0.176166 -0.005039
v -0.599027 0.170091 -0.005383
v -0.593840 0.175450 -0.005017
v -0.586722 0.174989 -0.005287
v -0.569410 0.169462 -0.007121
v -0.559252 0.167181 -0.005943
v -0.559580 0.162726 -0.004567
v -0.564782 0.162216 -0.003348
v -0.553555 0.160260 -0.006704
v -0.579320 0.182036 -0.011426
v -0.567107 0.179695 -0.007668
v -0.576510 0.164475 -0.008424
v -0.557035 0.177435 -0.008100
v -0.545157 0.174073 -0.008667
v -0.551447 0.174142 -0.010454
v -0.551174 0.173063 0.000554
v -0.547756 0.188583 -0.011579
v -0.541874 0.187672 -0.011918
v -0.549148 0.182090 0.001353
v -0.543446 0.182468 -0.003299
v -0.597684 0.284022 -0.010366
v -0.597002 0.298679 -0.008887
v -0.586695 0.299694 -0.006976
v -0.589011 0.284407 -0.009062
v -0.597733 0.308552 -0.007075
v -0.591183 0.309576 -0.006240
v -0.577462 0.283987 -0.007970
v -0.573244 0.296286 -0.005615
v -0.569458 0.303182 -0.002379
v -0.579702 0.307126 -0.003499
v -0.585161 0.312625 -0.003151
v -0.582273 0.312721 0.006916
v -0.581245 0.315590 0.001959
v -0.586951 0.321984 0.001851
v -0.589102 0.319638 0.006315
v -0.591692 0.328452 0.005617
v -0.585732 0.329977 0.005387
v -0.589815 0.319743 -0.002704
v -0.592383 0.328027 -0.002377
v -0.586249 0.330165 -0.001999
v -0.594693 0.295780 0.004802
v -0.587518 0.295385 0.008179
v -0.586524 0.306108 0.007448
v -0.595640 0.306096 0.005834
v -0.598274 0.316312 0.005055
v -0.592960 0.317165 0.006713
v -0.579937 0.295259 0.006951
v -0.577283 0.302468 0.007175
v -0.575282 0.308992 0.007509
v -0.551277 0.283570 0.006356
v -0.539386 0.282206 0.006975
v -0.539503 0.299118 0.006026
v -0.552465 0.296652 0.005721
v -0.530544 0.280681 0.001536
v -0.528149 0.297161 0.001646
v -0.524997 0.307328 0.001231
v -0.531560 0.309481 0.005648
v -0.536855 0.312532 0.006306
v -0.543562 0.306677 0.007049
v -0.553884 0.302737 0.007719
v -0.545608 0.312296 0.002289
v -0.555092 0.308239 0.006104
v -0.539583 0.315741 0.002654
v -0.555581 0.306978 0.001484
v -0.545510 0.309954 -0.001990
v -0.539137 0.320045 -0.002641
v -0.542888 0.319878 -0.002102
v -0.545550 0.319676 -0.004746
v -0.526012 0.316836 -0.008075
v -0.533471 0.316919 -0.004081
v -0.526005 0.307063 -0.009167
v -0.533322 0.306521 -0.007575
v -0.534068 0.320501 0.001972
v -0.540291 0.305099 -0.008214
v -0.540188 0.313462 -0.007673
v -0.556471 0.302564 -0.002239
v -0.546952 0.303362 -0.005151
v -0.542235 0.320651 -0.007851
v -0.546875 0.353210 -0.005301
v -0.549074 0.346651 -0.004331
v -0.553582 0.341202 0.002149
v -0.553569 0.333711 0.000751
v -0.554360 0.335123 -0.003931
v -0.555364 0.342675 -0.002584
v -0.554883 0.339266 -0.004895
v -0.577039 0.332320 0.004909
v -0.577250 0.330373 0.000988
v -0.577728 0.333391 -0.002992
v -0.598154 0.335504 0.004454
v -0.603616 0.335239 0.004307
v -0.602408 0.325889 0.005034
v -0.596576 0.326986 0.005930
v -0.609004 0.334108 0.004954
v -0.609157 0.329770 0.004939
v -0.601958 0.315656 0.001577
v -0.604832 0.322611 0.001939
v -0.609489 0.327299 0.002680
v -0.601437 0.324738 -0.003051
v -0.604496 0.322652 -0.001553
v -0.608784 0.328528 -0.000858
v -0.603377 0.331260 -0.001627
v -0.614331 0.333888 0.004006
v -0.614400 0.330782 0.000733
v -0.616126 0.329953 0.002459
v -0.614752 0.331576 0.004541
v -0.598793 0.317295 -0.005479
v -0.602575 0.315918 -0.002963
v -0.602454 0.307987 -0.004061
v -0.600610 0.306819 0.001401
v -0.602557 0.298017 -0.005510
v -0.600632 0.296819 0.000380
v -0.603625 0.283088 -0.006984
v -0.600561 0.282001 -0.000917
v -0.594683 0.281201 0.003169
v -0.600466 0.260719 -0.001988
v -0.594550 0.260493 0.001498
v -0.588795 0.260820 0.003428
v -0.589207 0.281225 0.007144
v -0.582970 0.262032 0.007815
v -0.581699 0.282138 0.007863
v -0.569804 0.264140 0.008219
v -0.569350 0.282888 0.006803
v -0.568666 0.294960 0.006133
v -0.567115 0.301117 0.007415
v -0.566293 0.307357 0.007505
v -0.567108 0.308049 0.002267
v -0.575388 0.311460 0.001953
v -0.550829 0.262941 0.007803
v -0.569345 0.237636 0.009332
v -0.552067 0.235865 0.007897
v -0.540924 0.233002 0.005740
v -0.540014 0.260439 0.006328
v -0.534535 0.231286 0.001125
v -0.532495 0.258907 0.001700
v -0.528223 0.231432 -0.003398
v -0.526497 0.258086 -0.003248
v -0.523732 0.279927 -0.003765
v -0.526811 0.258202 -0.009416
v -0.525175 0.280153 -0.009947
v -0.525582 0.296024 -0.010231
v -0.521494 0.296043 -0.004219
v -0.520558 0.306768 -0.004970
v -0.520007 0.316220 -0.006160
v -0.521739 0.316409 -0.000026
v -0.526397 0.317663 0.003903
v -0.519282 0.324803 -0.006016
v -0.530967 0.319735 0.004956
v -0.532161 0.281022 -0.010877
v -0.532699 0.295347 -0.009181
v -0.539126 0.280911 -0.009505
v -0.539752 0.294913 -0.008330
v -0.548423 0.281369 -0.008040
v -0.547436 0.294865 -0.006749
v -0.561732 0.282425 -0.007236
v -0.558779 0.294858 -0.004728
v -0.549723 0.260747 -0.008574
v -0.565448 0.262276 -0.008374
v -0.581692 0.263155 -0.008128
v -0.566145 0.234885 -0.009108
v -0.581563 0.234590 -0.010434
v -0.590600 0.234053 -0.012722
v -0.591104 0.263619 -0.011423
v -0.597814 0.233578 -0.012662
v -0.598844 0.262663 -0.012186
v -0.603112 0.233400 -0.008754
v -0.603894 0.261436 -0.008390
v -0.600508 0.233635 -0.002577
v -0.601657 0.210550 -0.008956
v -0.600220 0.210759 -0.003514
v -0.594370 0.210740 -0.001093
v -0.594520 0.234048 0.000370
v -0.588411 0.210756 0.000101
v -0.588498 0.234524 0.001639
v -0.581474 0.210815 0.006044
v -0.583045 0.235767 0.007540
v -0.568890 0.212338 0.011071
v -0.580825 0.194410 0.004036
v -0.569143 0.194165 0.009907
v -0.556973 0.193640 0.008585
v -0.555163 0.210940 0.009034
v -0.547174 0.192795 0.002568
v -0.544559 0.208535 0.004107
v -0.540900 0.193620 -0.001226
v -0.537185 0.209033 -0.000012
v -0.558021 0.182669 0.007447
v -0.570605 0.173867 0.006922
v -0.559313 0.173615 0.006247
v -0.569764 0.182947 0.008785
v -0.571129 0.165523 0.005358
v -0.579889 0.174270 0.000542
v -0.580502 0.183330 0.002169
v -0.586425 0.183931 -0.003584
v -0.593859 0.184291 -0.003502
v -0.587590 0.195092 -0.001543
v -0.594145 0.195562 -0.002370
v -0.600488 0.185076 -0.004464
v -0.600206 0.196143 -0.004181
v -0.600401 0.176550 -0.010276
v -0.600656 0.185271 -0.010077
v -0.600937 0.196235 -0.009432
v -0.594435 0.184723 -0.011775
v -0.595000 0.195677 -0.012241
v -0.595870 0.209991 -0.012229
v -0.587716 0.194746 -0.012247
v -0.588460 0.209543 -0.012556
v -0.587565 0.183889 -0.011832
v -0.578682 0.193450 -0.011270
v -0.579492 0.209262 -0.011225
v -0.565715 0.192302 -0.008479
v -0.565328 0.209061 -0.009139
v -0.554825 0.190632 -0.009330
v -0.552370 0.208438 -0.009595
v -0.543920 0.207046 -0.012094
v -0.550542 0.233788 -0.008745
v -0.541045 0.232771 -0.011882
v -0.537175 0.206484 -0.012672
v -0.534356 0.231900 -0.012565
v -0.539989 0.259687 -0.010806
v -0.533062 0.258912 -0.012049
v -0.527811 0.231423 -0.010256
v -0.599377 0.170871 -0.010936
v -0.594425 0.318126 -0.005109
v -0.597307 0.326402 -0.002980
v -0.598516 0.333279 -0.001537
v -0.592931 0.334741 -0.001654
v -0.586360 0.336500 -0.001454
v -0.592667 0.335882 0.004404
v -0.585990 0.336396 0.004141
v -0.578408 0.337955 -0.001270
v -0.577971 0.337277 0.003993
v -0.569693 0.335586 -0.003752
v -0.570102 0.339579 -0.001162
v -0.569470 0.338211 0.003711
v -0.562247 0.340815 -0.001440
v -0.561532 0.339359 0.003104
v -0.568641 0.333281 0.004071
v -0.560781 0.334169 0.002936
v -0.568826 0.331858 -0.000716
v -0.561227 0.333488 -0.002095
v -0.562005 0.337356 -0.004311
v -0.528829 0.344844 -0.004364
vt 0.991396 0.038330
vt 0.992830 0.040652
vt 0.992271 0.041493
vt 0.989998 0.038887
vt 0.405546 0.954624
vt 0.404748 0.955589
vt 0.403830 0.955637
vt 0.404185 0.954011
vt 0.406597 0.958781
vt 0.405428 0.958984
vt 0.993390 0.037988
vt 0.994080 0.040894
vt 0.407690 0.958307
vt 0.989278 0.005064
vt 0.989400 0.007117
vt 0.988879 0.006701
vt 0.987782 0.005312
vt 0.991473 0.009221
vt 0.992303 0.007295
vt 0.142838 0.989509
vt 0.143327 0.988715
vt 0.144289 0.992880
vt 0.143385 0.991966
vt 0.987719 0.009511
vt 0.141531 0.989247
vt 0.141802 0.987423
vt 0.142020 0.985585
vt 0.986451 0.012274
vt 0.985058 0.015443
vt 0.980922 0.014474
vt 0.983401 0.011383
vt 0.984365 0.018824
vt 0.980015 0.017908
vt 0.123380 0.980259
vt 0.126644 0.979296
vt 0.130555 0.982015
vt 0.126106 0.982529
vt 0.981047 0.010174
vt 0.979692 0.011624
vt 0.130120 0.978113
vt 0.134507 0.981155
vt 0.990323 0.026036
vt 0.992480 0.028668
vt 0.988031 0.028844
vt 0.987263 0.025459
vt 0.994867 0.031837
vt 0.992474 0.032222
vt 0.983911 0.026092
vt 0.983124 0.030744
vt 0.987811 0.034771
vt 0.989306 0.034113
vt 0.990871 0.033757
vt 0.709222 0.890965
vt 0.713673 0.894791
vt 0.710406 0.897950
vt 0.704272 0.893583
vt 0.147807 0.964537
vt 0.145920 0.968567
vt 0.143638 0.966442
vt 0.146278 0.962555
vt 0.143736 0.971823
vt 0.141104 0.970709
vt 0.700969 0.896257
vt 0.708874 0.901098
vt 0.978996 0.021232
vt 0.977951 0.026134
vt 0.975836 0.024216
vt 0.976391 0.021136
vt 0.984062 0.022159
vt 0.974807 0.031455
vt 0.700829 0.903301
vt 0.705872 0.909008
vt 0.117922 0.980987
vt 0.121254 0.979523
vt 0.121799 0.982844
vt 0.118489 0.984324
vt 0.141569 0.975782
vt 0.138546 0.974683
vt 0.134848 0.972135
vt 0.136908 0.968417
vt 0.137824 0.983496
vt 0.138448 0.981684
vt 0.987903 0.018940
vt 0.988307 0.015382
vt 0.992029 0.014557
vt 0.991488 0.018839
vt 0.989812 0.011679
vt 0.991764 0.011126
vt 0.135979 0.978425
vt 0.074072 0.260729
vt 0.075224 0.265559
vt 0.073790 0.268236
vt 0.072336 0.267678
vt 0.078024 0.268111
vt 0.074572 0.270883
vt 0.421431 0.628119
vt 0.423457 0.636823
vt 0.419489 0.641029
vt 0.417281 0.629645
vt 0.432376 0.658017
vt 0.436237 0.655711
vt 0.438602 0.659434
vt 0.436328 0.661486
vt 0.441037 0.654992
vt 0.442315 0.658964
vt 0.057491 0.279817
vt 0.059336 0.278982
vt 0.059898 0.280965
vt 0.058465 0.281871
vt 0.040356 0.276419
vt 0.041961 0.274033
vt 0.045220 0.277412
vt 0.044199 0.279093
vt 0.051880 0.279014
vt 0.049469 0.280107
vt 0.049367 0.277197
vt 0.453704 0.655165
vt 0.459397 0.655897
vt 0.458293 0.658270
vt 0.453538 0.658699
vt 0.054841 0.281604
vt 0.051867 0.283553
vt 0.054823 0.277360
vt 0.447718 0.659139
vt 0.446899 0.662431
vt 0.442593 0.661804
vt 0.042339 0.269871
vt 0.045460 0.270579
vt 0.048855 0.270872
vt 0.048568 0.274323
vt 0.035575 0.271161
vt 0.038182 0.272685
vt 0.035866 0.275010
vt 0.459461 0.651419
vt 0.463466 0.651620
vt 0.463302 0.656670
vt 0.055761 0.272196
vt 0.061019 0.273490
vt 0.061128 0.276109
vt 0.058140 0.276458
vt 0.064557 0.276895
vt 0.064275 0.275878
vt 0.050024 0.265780
vt 0.056754 0.266900
vt 0.051366 0.275382
vt 0.062119 0.267830
vt 0.069898 0.269862
vt 0.065800 0.269169
vt 0.433552 0.649784
vt 0.427127 0.650018
vt 0.067509 0.261854
vt 0.070558 0.261689
vt 0.432448 0.644435
vt 0.427987 0.644261
vt 0.424717 0.643633
vt 0.423629 0.648308
vt 0.891816 0.898081
vt 0.880847 0.898296
vt 0.878395 0.892565
vt 0.889825 0.892974
vt 0.873296 0.899146
vt 0.871648 0.895390
vt 0.046861 0.212788
vt 0.040488 0.212977
vt 0.041317 0.205088
vt 0.048762 0.206285
vt 0.050476 0.202335
vt 0.044735 0.200615
vt 0.868420 0.891634
vt 0.872361 0.889850
vt 0.460012 0.568193
vt 0.459967 0.565301
vt 0.463691 0.563230
vt 0.464423 0.564158
vt 0.466759 0.559445
vt 0.466381 0.557811
vt 0.460022 0.561571
vt 0.463110 0.560317
vt 0.857936 0.895556
vt 0.854449 0.892123
vt 0.861041 0.889865
vt 0.863221 0.893131
vt 0.464136 0.572524
vt 0.461608 0.575300
vt 0.460640 0.571318
vt 0.463604 0.570616
vt 0.466648 0.564420
vt 0.465509 0.564349
vt 0.457908 0.577079
vt 0.456200 0.574333
vt 0.455711 0.570962
vt 0.439929 0.585007
vt 0.432203 0.585851
vt 0.431626 0.576336
vt 0.440481 0.577422
vt 0.425528 0.586458
vt 0.423621 0.577024
vt 0.657719 0.876464
vt 0.667426 0.883209
vt 0.660051 0.898130
vt 0.646629 0.886633
vt 0.676262 0.886982
vt 0.671392 0.898946
vt 0.669031 0.914031
vt 0.659812 0.915521
vt 0.681819 0.898419
vt 0.675590 0.912693
vt 0.684882 0.887813
vt 0.445272 0.569019
vt 0.442778 0.571248
vt 0.439505 0.567131
vt 0.442403 0.565299
vt 0.695343 0.887155
vt 0.693288 0.894288
vt 0.694356 0.899918
vt 0.682429 0.904368
vt 0.695564 0.866560
vt 0.699091 0.874710
vt 0.695561 0.877073
vt 0.689599 0.867961
vt 0.704866 0.872677
vt 0.704830 0.872897
vt 0.683431 0.867941
vt 0.684479 0.877849
vt 0.711098 0.871785
vt 0.705788 0.878498
vt 0.447586 0.566054
vt 0.444159 0.562478
vt 0.719334 0.867528
vt 0.715295 0.875839
vt 0.705413 0.885817
vt 0.985331 0.036252
vt 0.982723 0.034314
vt 0.714763 0.888326
vt 0.721022 0.890939
vt 0.978334 0.035276
vt 0.972764 0.034354
vt 0.418292 0.977954
vt 0.418795 0.972537
vt 0.423776 0.975309
vt 0.422835 0.979136
vt 0.979497 0.036368
vt 0.409048 0.966325
vt 0.410631 0.964561
vt 0.412896 0.971154
vt 0.409754 0.971055
vt 0.411427 0.978614
vt 0.414097 0.977429
vt 0.717208 0.898131
vt 0.724882 0.895472
vt 0.466381 0.554478
vt 0.464992 0.555336
vt 0.849654 0.887054
vt 0.850834 0.885397
vt 0.469445 0.555990
vt 0.470835 0.555083
vt 0.469144 0.559590
vt 0.467647 0.559902
vt 0.471976 0.554299
vt 0.471930 0.556069
vt 0.866732 0.904566
vt 0.868139 0.906765
vt 0.864678 0.912552
vt 0.863164 0.907633
vt 0.860954 0.911314
vt 0.858002 0.914997
vt 0.860859 0.902265
vt 0.862291 0.904377
vt 0.855625 0.909011
vt 0.855151 0.904697
vt 0.852114 0.909546
vt 0.854771 0.914650
vt 0.856209 0.912893
vt 0.856783 0.911771
vt 0.857656 0.912013
vt 0.857327 0.913387
vt 0.866360 0.899360
vt 0.867431 0.902081
vt 0.874081 0.902315
vt 0.875114 0.905553
vt 0.881586 0.901866
vt 0.882763 0.905285
vt 0.883086 0.909246
vt 0.876075 0.909677
vt 0.892868 0.901943
vt 0.893025 0.906185
vt 0.893111 0.909375
vt 0.468640 0.602653
vt 0.465432 0.602561
vt 0.465489 0.589806
vt 0.468347 0.590667
vt 0.462366 0.601023
vt 0.462792 0.588792
vt 0.885717 0.913071
vt 0.894483 0.912558
vt 0.458461 0.599763
vt 0.459496 0.586863
vt 0.888166 0.916605
vt 0.895868 0.915853
vt 0.451069 0.597191
vt 0.451556 0.585992
vt 0.451335 0.578848
vt 0.442145 0.573964
vt 0.450672 0.575164
vt 0.450675 0.572053
vt 0.451619 0.569334
vt 0.456652 0.567732
vt 0.452299 0.565526
vt 0.457004 0.563141
vt 0.439135 0.597074
vt 0.449319 0.612625
vt 0.438484 0.613023
vt 0.431202 0.614086
vt 0.431871 0.598276
vt 0.426212 0.614909
vt 0.426258 0.599018
vt 0.421466 0.614839
vt 0.421448 0.599492
vt 0.420123 0.586758
vt 0.417718 0.599529
vt 0.416147 0.586831
vt 0.414523 0.578511
vt 0.418191 0.577562
vt 0.641561 0.861289
vt 0.649622 0.867981
vt 0.638855 0.876506
vt 0.630024 0.871498
vt 0.649964 0.852846
vt 0.655934 0.859710
vt 0.663500 0.865506
vt 0.671061 0.871630
vt 0.660356 0.851871
vt 0.666577 0.856584
vt 0.672964 0.860815
vt 0.654493 0.846178
vt 0.132714 0.975606
vt 0.677754 0.875349
vt 0.678758 0.864656
vt 0.072567 0.212960
vt 0.071782 0.205537
vt 0.075558 0.205055
vt 0.076344 0.213255
vt 0.071416 0.199739
vt 0.075359 0.199289
vt 0.068814 0.213147
vt 0.067880 0.206062
vt 0.067675 0.200937
vt 0.063563 0.213222
vt 0.063477 0.206288
vt 0.063710 0.201935
vt 0.055770 0.213370
vt 0.056751 0.206777
vt 0.057639 0.202676
vt 0.063063 0.224026
vt 0.054132 0.223898
vt 0.044765 0.223709
vt 0.054652 0.238425
vt 0.046033 0.239002
vt 0.040842 0.239641
vt 0.039235 0.223971
vt 0.036938 0.240124
vt 0.034935 0.224775
vt 0.035502 0.213441
vt 0.033534 0.240750
vt 0.031617 0.225847
vt 0.906121 0.896172
vt 0.906957 0.899235
vt 0.467817 0.618291
vt 0.471933 0.603466
vt 0.470976 0.618292
vt 0.470921 0.591397
vt 0.036419 0.252589
vt 0.033902 0.253478
vt 0.030582 0.241920
vt 0.463859 0.630688
vt 0.464652 0.616939
vt 0.466765 0.631884
vt 0.461040 0.629587
vt 0.461339 0.615963
vt 0.455576 0.629127
vt 0.457163 0.614555
vt 0.447387 0.627637
vt 0.455016 0.638860
vt 0.446828 0.638201
vt 0.439011 0.637919
vt 0.438577 0.627702
vt 0.431852 0.638070
vt 0.431313 0.628573
vt 0.427404 0.637350
vt 0.426289 0.628072
vt 0.439210 0.644388
vt 0.447051 0.650122
vt 0.439885 0.649755
vt 0.446814 0.644762
vt 0.447161 0.655090
vt 0.454126 0.650853
vt 0.454357 0.645412
vt 0.459236 0.646082
vt 0.463162 0.646432
vt 0.459866 0.639193
vt 0.463556 0.639938
vt 0.466647 0.646623
vt 0.466651 0.640310
vt 0.039647 0.269318
vt 0.033399 0.267003
vt 0.037514 0.265698
vt 0.466376 0.651452
vt 0.037677 0.260199
vt 0.035043 0.260813
vt 0.041580 0.265163
vt 0.040942 0.259922
vt 0.039812 0.252571
vt 0.044662 0.260201
vt 0.043805 0.252460
vt 0.045407 0.265610
vt 0.049591 0.260219
vt 0.048734 0.252250
vt 0.057099 0.260391
vt 0.056757 0.251703
vt 0.063316 0.260792
vt 0.064158 0.251466
vt 0.068980 0.251783
vt 0.063571 0.238237
vt 0.069255 0.238408
vt 0.072773 0.251769
vt 0.072977 0.238582
vt 0.068470 0.224123
vt 0.072287 0.224374
vt 0.076757 0.238652
vt 0.075802 0.224425
vt 0.417277 0.615075
vt 0.076648 0.251727
vt 0.040041 0.272300
vt 0.865420 0.896689
vt 0.860078 0.899280
vt 0.855711 0.901585
vt 0.854055 0.897781
vt 0.851311 0.895183
vt 0.468480 0.555928
vt 0.470398 0.552949
vt 0.471116 0.553008
vt 0.468038 0.554350
vt 0.469913 0.552536
vt 0.469831 0.550062
vt 0.467257 0.552513
vt 0.845093 0.881757
vt 0.845623 0.885123
vt 0.843450 0.881890
vt 0.472030 0.549503
vt 0.469923 0.548063
vt 0.840963 0.880957
vt 0.843045 0.883649
vt 0.839779 0.878315
vt 0.837200 0.876837
vt 0.841518 0.883441
vt 0.838633 0.880474
vt 0.835924 0.876795
vt 0.408634 0.981828
vt 0.407984 0.985335
vt 0.404804 0.988203
vt 0.404697 0.985475
vt 0.846552 0.881008
vt 0.841882 0.877623
vt 0.842498 0.876264
vt 0.847269 0.879404
vt 0.837882 0.874836
vt 0.838024 0.872552
vt 0.841001 0.878580
vt 0.837102 0.875635
vt 0.412443 0.981824
vt 0.410128 0.982774
vt 0.851047 0.882669
vt 0.473593 0.551470
vt 0.405910 0.963187
vt 0.712071 0.884098
vt 0.145268 0.987513
vt 0.144864 0.989439
vt 0.990871 0.022265
vt 0.987612 0.022174
vt 0.985255 0.008592
vt 0.982977 0.007649
vt 0.420831 0.644880
vn 0.9891 0.1419 -0.0395
vn 0.8430 0.5248 0.1185
vn -0.0050 0.6258 0.7800
vn -0.0136 0.0941 0.9955
vn 0.0166 0.5148 -0.8571
vn -0.5958 0.8031 -0.0086
vn -0.9829 0.1762 0.0538
vn -0.0912 0.1734 -0.9806
vn 0.9911 0.0962 0.0918
vn 0.4320 0.8242 -0.3662
vn 0.2243 0.7610 0.6088
vn 0.5716 -0.3219 0.7548
vn 0.1003 0.7344 -0.6713
vn 0.5063 -0.3267 -0.7981
vn 0.5005 -0.8615 0.0857
vn -0.0649 0.8096 0.5834
vn 0.1984 -0.2810 0.9390
vn 0.4490 -0.8900 0.0799
vn 0.2650 -0.3089 -0.9134
vn -0.1024 0.7427 0.6617
vn -0.0549 0.6459 0.7615
vn 0.3112 -0.1346 0.9408
vn 0.2694 -0.2561 0.9284
vn -0.0689 0.6559 0.7517
vn -0.0855 0.0421 0.9954
vn -0.1398 0.1407 0.9801
vn 0.4501 -0.0756 0.8898
vn 0.6783 -0.7147 0.1705
vn 0.8790 -0.3999 0.2597
vn 0.8799 -0.2206 0.4208
vn 0.2233 -0.0513 -0.9734
vn 0.0776 -0.1094 -0.9910
vn 0.4427 0.4237 -0.7902
vn 0.1776 0.8041 -0.5673
vn -0.2227 -0.3241 -0.9194
vn -0.2642 0.0995 -0.9593
vn -0.0446 0.6489 0.7596
vn 0.0267 0.3706 0.9284
vn 0.1345 0.1632 0.9774
vn 0.9646 0.0711 -0.2538
vn -0.2098 0.0869 -0.9739
vn -0.0363 -0.0162 -0.9992
vn -0.0023 -0.1878 -0.9822
vn 0.5273 -0.6778 -0.5124
vn 0.9456 -0.3183 -0.0674
vn -0.0147 -0.0180 -0.9997
vn -0.4752 -0.4146 -0.7760
vn 0.0670 -0.1823 0.9810
vn 0.1133 -0.4005 0.9093
vn -0.4306 -0.3012 0.8508
vn -0.0785 0.6393 0.7649
vn -0.4188 -0.7823 0.4611
vn -0.9999 0.0076 0.0092
vn -0.7766 0.2316 -0.5858
vn -0.8813 0.3172 0.3502
vn -0.0405 0.0901 -0.9951
vn -0.1493 0.0007 -0.9888
vn -0.1713 0.1085 -0.9792
vn 0.3636 -0.1502 -0.9194
vn -0.0185 0.8214 -0.5701
vn -0.0949 0.7980 -0.5952
vn -0.1100 0.7460 -0.6568
vn 0.6374 -0.1876 -0.7474
vn 0.7644 -0.1658 -0.6231
vn 0.9634 -0.2677 -0.0121
vn 0.6883 -0.7142 -0.1272
vn 0.2302 -0.5362 -0.8121
vn 0.4389 -0.2542 0.8618
vn 0.0919 -0.7283 0.6791
vn 0.8340 -0.1529 0.5302
vn 0.7179 -0.2032 0.6659
vn 0.8149 -0.1593 -0.5573
vn 0.2463 -0.6971 -0.6734
vn 0.6635 -0.4764 0.5768
vn 0.3931 -0.7650 0.5102
vn 0.1983 -0.8761 -0.4395
vn 0.1905 -0.1899 0.9631
vn 0.0827 -0.6521 0.7536
vn 0.2587 -0.9480 -0.1857
vn -0.3040 -0.6774 0.6698
vn -0.2440 -0.7102 -0.6604
vn -0.5943 -0.7944 -0.1250
vn -0.4359 -0.3766 0.8174
vn -0.3331 -0.8382 -0.4319
vn -0.6816 -0.5146 0.5202
vn -0.2525 -0.7374 -0.6264
vn -0.6159 -0.2080 0.7598
vn -0.1767 -0.9833 0.0425
vn -0.3793 -0.4895 0.7852
vn 0.2814 -0.4386 -0.8535
vn -0.0359 -0.0881 -0.9955
vn 0.0106 -0.1774 -0.9841
vn 0.0797 -0.1698 -0.9822
vn -0.0458 -0.3232 -0.9452
vn -0.7268 -0.1737 0.6645
vn -0.5584 -0.5683 0.6043
vn -0.0015 -0.1659 0.9861
vn -0.3448 -0.1878 0.9197
vn 0.1847 -0.1874 -0.9648
vn -0.2116 -0.2538 -0.9438
vn -0.2519 -0.4330 -0.8655
vn 0.0991 -0.4376 -0.8937
vn 0.0495 -0.3760 -0.9253
vn 0.1595 -0.0592 -0.9854
vn 0.1100 -0.0901 -0.9898
vn 0.1524 -0.3174 -0.9360
vn -0.2048 -0.0853 -0.9751
vn 0.5266 -0.7476 -0.4047
vn -0.0332 -0.2173 -0.9756
vn 0.7026 -0.3053 0.6427
vn -0.1491 -0.0471 -0.9877
vn 0.0514 -0.0925 -0.9944
vn 0.6073 -0.2448 0.7558
vn 0.3021 -0.3025 0.9040
vn -0.2104 0.1033 -0.9721
vn -0.1856 0.1322 -0.9737
vn 0.1725 0.1806 -0.9683
vn 0.1523 0.0862 -0.9846
vn -0.2265 0.1472 -0.9628
vn 0.2099 0.2111 -0.9547
vn 0.1007 0.0899 -0.9908
vn 0.1147 0.2318 -0.9660
vn 0.1486 0.4757 -0.8670
vn 0.2982 0.4083 -0.8628
vn 0.4133 0.3806 -0.8272
vn 0.2801 0.4082 0.8689
vn 0.6565 0.7431 -0.1297
vn 0.9945 0.0799 -0.0684
vn 0.2948 0.2017 0.9340
vn 0.1489 0.0884 0.9849
vn 0.2512 -0.1207 0.9604
vn 0.4314 0.2340 -0.8713
vn 0.1990 0.0909 -0.9758
vn 0.1856 -0.1435 -0.9721
vn -0.5069 -0.0621 0.8598
vn -0.1690 -0.0160 0.9855
vn -0.0876 0.0145 0.9961
vn -0.4508 -0.0636 0.8904
vn -0.4407 -0.1145 0.8903
vn -0.1029 0.0250 0.9944
vn 0.0600 -0.0078 0.9982
vn 0.0219 -0.0329 0.9992
vn 0.1899 0.4884 0.8517
vn 0.0093 0.0493 0.9987
vn 0.2473 0.0058 0.9689
vn 0.2004 -0.0701 0.9772
vn 0.0199 -0.0825 0.9964
vn 0.5533 -0.0460 0.8317
vn 0.5484 -0.0962 0.8307
vn 0.6546 -0.1392 0.7431
vn 0.3237 -0.0799 0.9428
vn -0.1174 0.2768 0.9537
vn -0.0197 0.1791 0.9836
vn 0.0351 0.0238 0.9991
vn -0.5211 0.6887 0.5041
vn -0.1162 0.8167 0.5653
vn -0.3235 0.6793 0.6588
vn -0.2143 0.8303 -0.5145
vn -0.7165 0.4357 -0.5448
vn 0.5820 0.8026 0.1305
vn -0.4591 0.3118 0.8319
vn -0.9779 -0.0024 -0.2089
vn -0.0596 0.1337 -0.9892
vn -0.2496 0.5354 -0.8068
vn 0.1810 0.0834 -0.9799
vn -0.0798 0.1573 -0.9843
vn -0.6159 0.7115 0.3383
vn -0.2267 0.1662 -0.9597
vn -0.1429 0.1874 -0.9718
vn -0.1361 0.4736 -0.8702
vn -0.3878 0.2987 -0.8720
vn -0.0596 0.0183 -0.9981
vn -0.9662 0.2579 0.0046
vn -0.7626 0.6315 -0.1402
vn 0.0272 0.4307 0.9021
vn 0.1842 -0.8216 0.5395
vn -0.1143 -0.6859 -0.7187
vn -0.3887 0.8863 -0.2517
vn -0.2782 0.1311 -0.9515
vn 0.1823 -0.3405 0.9224
vn 0.3291 -0.9352 -0.1305
vn 0.0156 -0.1849 -0.9826
vn -0.1801 0.8350 0.5200
vn -0.2811 0.8715 0.4019
vn -0.2722 -0.1592 0.9490
vn -0.0758 0.0751 0.9943
vn -0.1654 0.8652 0.4734
vn -0.1620 -0.2652 0.9505
vn -0.8544 -0.2211 0.4702
vn -0.7787 -0.4985 0.3810
vn -0.5427 -0.7920 0.2796
vn -0.2258 0.1392 -0.9642
vn -0.7542 -0.2392 -0.6115
vn -0.5203 -0.0258 -0.8536
vn -0.2357 0.4995 -0.8337
vn -0.4369 0.8850 0.1611
vn -0.5521 0.0738 -0.8305
vn -0.9052 -0.4199 0.0659
vn -0.6754 -0.0344 0.7367
vn -0.2510 0.1625 -0.9542
vn -0.8903 -0.0726 -0.4496
vn -0.9357 0.0241 -0.3520
vn -0.8348 -0.0926 0.5427
vn -0.9403 0.0652 -0.3340
vn -0.8074 -0.0582 0.5871
vn -0.9583 0.0554 -0.2802
vn -0.7648 -0.0436 0.6428
vn -0.5244 -0.0784 0.8479
vn -0.7336 -0.0334 0.6787
vn -0.4350 -0.0652 0.8981
vn -0.4540 -0.0725 0.8880
vn -0.3426 -0.0680 0.9370
vn -0.2773 -0.0190 0.9606
vn -0.0442 0.0011 0.9990
vn 0.0058 0.0368 0.9993
vn 0.0375 0.0540 0.9978
vn 0.0368 -0.0566 0.9977
vn 0.0167 -0.0881 0.9960
vn 0.0850 0.6429 0.7613
vn 0.1706 0.9150 -0.3656
vn 0.4465 0.8609 -0.2438
vn 0.0664 0.0247 0.9975
vn -0.0400 0.0206 0.9990
vn 0.1560 0.0018 0.9878
vn 0.3964 -0.0588 0.9162
vn 0.3282 -0.0224 0.9443
vn 0.5396 -0.0727 0.8387
vn 0.5735 -0.0488 0.8178
vn 0.8788 -0.0709 0.4718
vn 0.9065 -0.0735 0.4158
vn 0.9482 -0.0909 0.3045
vn 0.7903 -0.0445 -0.6111
vn 0.6584 -0.0373 -0.7518
vn 0.4195 0.0265 -0.9074
vn 0.9887 -0.0841 0.1242
vn 0.9863 -0.0887 -0.1393
vn 0.8845 -0.0963 -0.4565
vn 0.8066 -0.1438 0.5734
vn 0.4337 -0.0451 0.8999
vn 0.7582 -0.1336 -0.6382
vn -0.1471 0.2991 0.9428
vn -0.0236 0.0514 -0.9984
vn -0.0947 0.0817 -0.9921
vn -0.1753 0.0746 -0.9817
vn -0.1688 0.0875 -0.9818
vn -0.1243 0.0868 -0.9884
vn -0.2083 0.1538 -0.9659
vn -0.0091 0.1023 -0.9947
vn -0.0467 0.2413 -0.9693
vn -0.1176 0.0365 -0.9924
vn 0.0080 0.0359 -0.9993
vn 0.1437 0.0434 -0.9887
vn 0.0391 0.0278 -0.9988
vn 0.1619 0.0424 -0.9859
vn 0.1239 0.0268 -0.9919
vn 0.1636 0.0549 -0.9850
vn -0.2979 -0.0094 -0.9545
vn -0.2712 0.0525 -0.9611
vn -0.9589 -0.0369 -0.2815
vn -0.9680 0.0075 -0.2507
vn -0.7286 -0.0383 0.6839
vn -0.9266 -0.0423 -0.3736
vn -0.7435 -0.0538 0.6666
vn -0.2789 -0.0697 0.9578
vn -0.3381 -0.0496 0.9398
vn -0.4362 -0.0902 0.8953
vn -0.4703 -0.0576 0.8806
vn -0.5064 -0.0717 0.8593
vn -0.4467 -0.0234 0.8944
vn -0.1004 -0.0209 0.9947
vn -0.5539 -0.1225 0.8235
vn -0.1671 -0.0932 0.9815
vn 0.3081 -0.1112 0.9448
vn 0.2477 -0.0403 0.9680
vn 0.5199 -0.1754 0.8360
vn 0.4507 -0.1186 0.8848
vn 0.3778 -0.1626 0.9115
vn 0.4609 -0.1206 0.8792
vn 0.3287 -0.1637 0.9302
vn -0.2762 -0.1615 0.9474
vn 0.3107 -0.1637 0.9363
vn -0.2147 -0.1434 0.9661
vn -0.3326 -0.2129 0.9187
vn -0.6114 -0.1587 0.7753
vn -0.5958 -0.1461 0.7898
vn -0.3821 -0.1711 0.9082
vn -0.0865 -0.1265 0.9882
vn -0.3980 -0.1395 0.9067
vn -0.1959 -0.0918 0.9763
vn -0.7448 -0.0619 0.6644
vn -0.7553 -0.0483 0.6536
vn -0.7739 -0.0964 -0.6259
vn -0.8131 -0.0123 -0.5820
vn -0.8767 -0.0164 -0.4808
vn -0.1421 -0.0312 -0.9894
vn -0.2120 -0.0166 -0.9771
vn -0.2695 -0.0201 -0.9628
vn 0.0453 -0.0173 -0.9988
vn 0.0709 0.0009 -0.9975
vn 0.0263 -0.0433 -0.9987
vn 0.1566 -0.0200 -0.9875
vn 0.1518 0.0082 -0.9884
vn 0.0703 -0.0386 -0.9968
vn 0.0573 0.0005 -0.9984
vn -0.1927 -0.0161 -0.9811
vn -0.1638 0.0190 -0.9863
vn -0.1842 0.0180 -0.9827
vn -0.1416 0.0283 -0.9895
vn -0.1960 0.0327 -0.9801
vn 0.1143 -0.0331 -0.9929
vn 0.1215 0.0073 -0.9926
vn -0.1941 0.0458 -0.9799
vn 0.0780 0.0268 -0.9966
vn 0.8203 -0.0478 -0.5700
vn -0.6206 -0.4338 -0.6532
vn 0.1592 0.2320 -0.9596
vn 0.0325 0.2111 -0.9769
vn -0.1189 0.6369 -0.7617
vn -0.0969 0.6750 -0.7315
vn -0.1387 0.7556 -0.6402
vn -0.1113 0.8030 0.5855
vn -0.0984 0.7589 0.6438
vn -0.1723 0.8412 -0.5126
vn -0.0744 0.7055 0.7048
vn -0.0674 -0.0769 -0.9948
vn -0.1756 0.9166 -0.3591
vn -0.0339 0.6331 0.7733
vn -0.2203 0.9354 -0.2764
vn 0.0080 0.5521 0.8337
vn 0.1709 -0.5478 0.8189
vn 0.1963 -0.6476 0.7362
vn 0.1350 -0.9461 -0.2944
vn 0.0625 -0.8757 -0.4788
vn -0.1310 0.0561 -0.9898
vn 0.0597 0.8245 -0.5627
f 1/1/1 2/2/2 3/3/3 4/4/4
f 5/5/5 6/6/6 3/7/3 2/8/2
f 7/9/7 4/10/4 3/7/3 6/6/6
f 8/11/8 5/12/5 2/2/2 1/1/1
f 7/9/7 6/6/6 5/5/5 8/13/8
f 9/14/9 10/15/10 11/16/11 12/17/12
f 13/18/13 10/15/10 9/14/9 14/19/14
f 15/20/15 14/21/14 9/22/9 12/23/12
f 16/24/16 11/16/11 10/15/10 13/18/13
f 17/25/17 18/26/18 15/20/15 12/23/12
f 19/27/19 14/21/14 15/20/15 18/26/18
f 20/28/20 21/29/21 22/30/22 23/31/23
f 24/32/24 25/33/25 22/30/22 21/29/21
f 26/34/26 27/35/27 22/36/22 25/37/25
f 28/38/28 23/31/23 22/30/22 29/39/29
f 30/40/30 29/41/29 22/36/22 27/35/27
f 31/42/31 32/43/32 33/44/33 34/45/34
f 35/46/35 36/47/36 33/44/33 32/43/32
f 37/48/37 34/45/34 33/44/33 38/49/38
f 39/50/39 38/49/38 33/44/33 40/51/40
f 41/52/41 40/51/40 33/44/33 36/47/36
f 42/53/42 43/54/43 44/55/44 45/56/45
f 32/57/32 31/58/31 44/59/44 43/60/43
f 46/61/46 47/62/47 44/59/44 31/58/31
f 48/63/48 45/56/45 44/55/44 49/64/49
f 50/65/50 49/66/49 44/67/44 47/68/47
f 51/69/51 37/48/37 49/66/49 50/65/50
f 38/49/38 52/70/52 49/66/49 37/48/37
f 53/71/53 48/63/48 49/64/49 52/72/52
f 24/32/24 51/69/51 50/65/50 25/33/25
f 54/73/54 55/74/55 50/75/50 47/76/47
f 26/34/26 25/37/25 50/75/50 55/74/55
f 56/77/56 57/78/57 47/62/47 46/61/46
f 58/79/58 54/80/54 47/62/47 57/78/57
f 18/26/18 28/81/28 59/82/59 19/27/19
f 60/83/60 61/84/61 59/85/59 56/86/56
f 62/87/62 19/88/19 59/85/59 61/84/61
f 57/78/57 56/77/56 59/82/59 63/89/63
f 29/41/29 63/89/63 59/82/59 28/81/28
f 64/90/64 65/91/65 66/92/66 67/93/67
f 68/94/68 69/95/69 66/92/66 65/91/65
f 70/96/70 71/97/71 64/98/64 72/99/72
f 73/100/73 74/101/74 75/102/75 76/103/76
f 77/104/77 78/105/78 75/102/75 74/101/74
f 79/106/79 76/107/76 75/108/75 78/109/78
f 80/110/80 81/111/81 82/112/82 83/113/83
f 84/114/84 85/115/85 82/112/82 86/116/86
f 87/117/87 83/118/83 82/119/82 85/120/85
f 85/115/85 84/114/84 88/121/88 89/122/89
f 90/123/90 79/106/79 88/121/88 84/114/84
f 78/105/78 89/124/89 88/125/88 79/126/79
f 91/127/91 92/128/92 82/112/82 81/111/81
f 93/129/93 94/130/94 82/112/82 92/128/92
f 95/131/95 96/132/96 80/110/80 97/133/97
f 98/134/98 97/135/97 80/136/80 83/118/83
f 99/137/99 100/138/100 101/139/101 102/140/102
f 76/107/76 102/140/102 101/139/101 73/141/73
f 103/142/103 73/141/73 101/139/101 100/138/100
f 104/143/104 105/144/105 99/137/99 93/129/93
f 94/130/94 93/129/93 99/137/99 106/145/106
f 90/123/90 106/145/106 99/137/99 102/140/102
f 107/146/107 100/138/100 99/137/99 105/144/105
f 108/147/108 73/141/73 103/142/103 109/148/109
f 110/149/110 74/101/74 73/100/73 108/150/108
f 111/151/111 112/152/112 108/147/108 109/148/109
f 64/90/64 67/93/67 108/147/108 112/152/112
f 113/153/113 110/149/110 108/150/108 114/154/114
f 68/155/68 114/154/114 108/150/108 69/156/69
f 115/157/115 116/158/116 117/159/117 118/160/118
f 119/161/119 120/162/120 117/159/117 116/158/116
f 121/163/121 118/164/118 117/165/117 122/166/122
f 123/167/123 122/166/122 117/165/117 124/168/124
f 125/169/125 124/170/124 117/159/117 120/162/120
f 126/171/126 127/172/127 128/173/128 129/174/129
f 130/175/130 129/174/129 128/173/128 131/176/131
f 125/177/125 132/178/132 128/173/128 127/172/127
f 133/179/133 134/180/134 128/181/128 132/182/132
f 135/183/135 136/184/136 137/185/137 138/186/138
f 139/187/139 138/186/138 137/185/137 140/188/140
f 141/189/141 142/190/142 137/185/137 136/184/136
f 143/191/143 126/171/126 137/185/137 142/190/142
f 129/174/129 140/188/140 137/185/137 126/171/126
f 144/192/144 145/193/145 146/194/146 147/195/147
f 148/196/148 149/197/149 146/194/146 145/193/145
f 150/198/150 151/199/151 146/200/146 149/201/149
f 152/202/152 153/203/153 146/200/146 151/199/151
f 154/204/154 147/205/147 146/200/146 153/203/153
f 154/204/154 153/203/153 155/206/155 156/207/156
f 152/202/152 157/208/157 155/206/155 153/203/153
f 158/209/158 156/210/156 155/211/155 159/212/159
f 160/213/160 161/214/161 155/206/155 157/208/157
f 162/215/162 159/216/159 155/206/155 161/214/161
f 58/217/58 163/218/163 164/219/164 54/220/54
f 165/221/165 166/222/166 164/219/164 163/218/163
f 55/223/55 54/220/54 164/219/164 167/224/167
f 157/208/157 167/224/167 164/219/164 160/213/160
f 168/225/168 169/226/169 164/219/164 166/222/166
f 170/227/170 158/209/158 159/212/159 171/228/171
f 168/225/168 171/229/171 159/230/159 169/226/169
f 172/231/172 160/213/160 164/219/164 169/226/169
f 48/63/48 161/214/161 160/213/160 45/56/45
f 173/232/173 174/233/174 38/49/38 39/50/39
f 42/53/42 53/234/53 52/235/52 43/54/43
f 175/236/175 176/237/176 52/70/52 38/49/38
f 177/238/177 35/239/35 52/240/52 176/241/176
f 178/242/178 175/236/175 38/49/38 174/233/174
f 173/243/173 41/244/41 36/245/36 174/246/174
f 178/247/178 174/246/174 36/245/36 179/248/179
f 177/238/177 179/248/179 36/245/36 35/239/35
f 32/249/32 43/54/43 52/235/52 35/250/35
f 180/251/180 131/176/131 128/173/128 181/252/181
f 182/253/182 181/254/181 128/181/128 134/180/134
f 183/255/183 184/256/184 185/257/185 186/258/186
f 140/188/140 186/258/186 185/257/185 139/187/139
f 187/259/187 188/260/188 185/257/185 184/256/184
f 189/261/189 139/262/139 185/263/185 190/264/190
f 191/265/191 190/264/190 185/263/185 188/266/188
f 192/267/192 193/268/193 194/269/194 195/270/195
f 190/264/190 191/265/191 194/269/194 193/268/193
f 184/271/184 195/270/195 194/269/194 187/272/187
f 196/273/196 187/272/187 194/269/194 197/274/197
f 198/275/198 197/274/197 194/269/194 191/265/191
f 187/272/187 196/273/196 199/276/199 188/266/188
f 191/265/191 188/266/188 199/276/199 198/275/198
f 197/274/197 198/275/198 199/276/199 196/273/196
f 200/277/200 201/278/201 193/268/193 192/267/192
f 189/261/189 190/264/190 193/268/193 201/278/201
f 119/161/119 202/279/202 201/278/201 200/277/200
f 203/280/203 189/261/189 201/278/201 202/279/202
f 204/281/204 205/282/205 203/280/203 202/279/202
f 135/283/135 138/284/138 203/280/203 205/282/205
f 139/262/139 189/261/189 203/280/203 138/284/138
f 206/285/206 207/286/207 205/282/205 204/281/204
f 208/287/208 135/283/135 205/282/205 207/286/207
f 209/288/209 210/289/210 208/290/208 207/291/207
f 211/292/211 212/293/212 208/290/208 210/289/210
f 136/294/136 135/283/135 208/287/208 212/295/212
f 213/296/213 214/297/214 212/293/212 211/292/211
f 141/298/141 136/294/136 212/295/212 214/299/214
f 215/300/215 216/301/216 214/297/214 213/296/213
f 217/302/217 141/189/141 214/297/214 216/301/216
f 144/192/144 147/195/147 217/302/217 216/301/216
f 154/303/154 218/304/218 217/302/217 147/195/147
f 142/190/142 141/189/141 217/302/217 218/304/218
f 156/210/156 219/305/219 218/304/218 154/303/154
f 143/191/143 142/190/142 218/304/218 219/305/219
f 158/209/158 220/306/220 219/305/219 156/210/156
f 221/307/221 143/191/143 219/305/219 220/306/220
f 123/308/123 124/309/124 221/307/221 220/306/220
f 125/177/125 127/172/127 221/307/221 124/309/124
f 126/171/126 143/191/143 221/307/221 127/172/127
f 170/227/170 123/308/123 220/306/220 158/209/158
f 222/310/222 144/192/144 216/301/216 215/300/215
f 223/311/223 224/312/224 222/310/222 215/300/215
f 225/313/225 226/314/226 222/310/222 224/312/224
f 145/193/145 144/192/144 222/310/222 226/314/226
f 227/315/227 228/316/228 226/314/226 225/313/225
f 148/196/148 145/193/145 226/314/226 228/316/228
f 229/317/229 230/318/230 228/316/228 227/315/227
f 231/319/231 148/196/148 228/316/228 230/318/230
f 232/320/232 233/321/233 231/319/231 230/318/230
f 234/322/234 235/323/235 231/319/231 233/321/233
f 149/197/149 148/196/148 231/319/231 235/323/235
f 165/324/165 236/325/236 235/326/235 234/327/234
f 150/198/150 149/201/149 235/326/235 236/325/236
f 163/328/163 237/329/237 236/325/236 165/324/165
f 238/330/238 150/198/150 236/325/236 237/329/237
f 151/199/151 150/198/150 238/330/238 239/331/239
f 240/332/240 30/333/30 238/330/238 237/329/237
f 27/334/27 239/331/239 238/330/238 30/333/30
f 163/328/163 58/335/58 240/332/240 237/329/237
f 57/78/57 63/89/63 240/336/240 58/79/58
f 29/41/29 30/40/30 240/336/240 63/89/63
f 152/202/152 151/199/151 239/331/239 241/337/241
f 26/338/26 241/337/241 239/331/239 27/334/27
f 157/208/157 152/202/152 241/337/241 167/224/167
f 55/223/55 167/224/167 241/337/241 26/338/26
f 242/339/242 243/340/243 234/341/234 233/342/233
f 166/343/166 165/344/165 234/341/234 243/340/243
f 244/345/244 245/346/245 243/340/243 242/339/242
f 168/347/168 166/343/166 243/340/243 245/346/245
f 246/348/246 247/349/247 245/346/245 244/345/244
f 171/350/171 168/347/168 245/346/245 247/349/247
f 248/351/248 249/352/249 247/349/247 246/348/246
f 170/353/170 171/350/171 247/349/247 249/352/249
f 121/163/121 122/166/122 249/352/249 248/351/248
f 123/167/123 170/353/170 249/352/249 122/166/122
f 250/354/250 251/355/251 248/351/248 246/348/246
f 252/356/252 121/163/121 248/351/248 251/355/251
f 253/357/253 254/358/254 252/356/252 251/355/251
f 255/359/255 256/360/256 252/356/252 254/358/254
f 118/164/118 121/163/121 252/356/252 256/360/256
f 257/361/257 258/362/258 256/360/256 255/359/255
f 115/363/115 118/164/118 256/360/256 258/362/258
f 259/364/259 260/365/260 258/362/258 257/361/257
f 206/285/206 115/157/115 258/366/258 260/367/260
f 261/368/261 209/288/209 260/369/260 259/370/259
f 207/291/207 206/371/206 260/369/260 209/288/209
f 262/372/262 263/373/263 261/374/261 259/364/259
f 264/375/264 265/376/265 261/368/261 263/377/263
f 210/289/210 209/288/209 261/368/261 265/376/265
f 266/378/266 267/379/267 265/376/265 264/375/264
f 211/292/211 210/289/210 265/376/265 267/379/267
f 268/380/268 269/381/269 267/379/267 266/378/266
f 213/296/213 211/292/211 267/379/267 269/381/269
f 270/382/270 223/311/223 269/381/269 268/380/268
f 215/300/215 213/296/213 269/381/269 223/311/223
f 271/383/271 272/384/272 270/382/270 268/380/268
f 273/385/273 274/386/274 270/382/270 272/384/272
f 224/312/224 223/311/223 270/382/270 274/386/274
f 275/387/275 276/388/276 274/386/274 273/385/273
f 225/313/225 224/312/224 274/386/274 276/388/276
f 277/389/277 278/390/278 276/388/276 275/387/275
f 227/315/227 225/313/225 276/388/276 278/390/278
f 71/97/71 70/96/70 278/390/278 277/389/277
f 229/317/229 227/315/227 278/390/278 70/96/70
f 113/153/113 114/154/114 277/389/277 275/387/275
f 68/155/68 71/97/71 277/389/277 114/154/114
f 279/391/279 113/153/113 275/387/275 273/385/273
f 280/392/280 281/393/281 279/391/279 282/394/282
f 110/149/110 113/153/113 279/391/279 281/393/281
f 272/384/272 282/394/282 279/391/279 273/385/273
f 283/395/283 77/104/77 281/393/281 280/392/280
f 74/101/74 110/149/110 281/393/281 77/104/77
f 85/120/85 89/124/89 283/395/283 87/117/87
f 78/105/78 77/104/77 283/395/283 89/124/89
f 284/396/284 87/117/87 283/395/283 280/392/280
f 83/118/83 87/117/87 284/396/284 98/134/98
f 282/394/282 285/397/285 284/396/284 280/392/280
f 286/398/286 98/134/98 284/396/284 285/397/285
f 97/135/97 98/134/98 286/398/286 287/399/287
f 271/383/271 288/400/288 286/398/286 285/397/285
f 289/401/289 287/399/287 286/398/286 288/400/288
f 290/402/290 287/399/287 289/401/289 291/403/291
f 266/378/266 264/375/264 289/401/289 288/400/288
f 263/377/263 291/403/291 289/401/289 264/375/264
f 292/404/292 95/131/95 290/405/290 293/406/293
f 97/135/97 287/399/287 290/402/290 95/407/95
f 294/408/294 293/406/293 290/405/290 291/409/291
f 295/410/295 293/406/293 294/408/294 296/411/296
f 263/373/263 262/372/262 294/408/294 291/409/291
f 297/412/297 296/411/296 294/408/294 262/372/262
f 298/413/298 296/411/296 297/412/297 299/414/299
f 259/364/259 257/361/257 297/412/297 262/372/262
f 255/359/255 299/414/299 297/412/297 257/361/257
f 104/143/104 300/415/300 298/413/298 301/416/301
f 295/410/295 296/411/296 298/413/298 300/415/300
f 302/417/302 301/416/301 298/413/298 299/414/299
f 303/418/303 301/416/301 302/417/302 304/419/304
f 255/359/255 254/358/254 302/417/302 299/414/299
f 253/357/253 304/419/304 302/417/302 254/358/254
f 107/146/107 105/144/105 303/418/303 305/420/305
f 104/143/104 301/416/301 303/418/303 105/144/105
f 306/421/306 305/420/305 303/418/303 304/419/304
f 111/151/111 305/420/305 306/421/306 307/422/307
f 253/357/253 308/423/308 306/421/306 304/419/304
f 309/424/309 307/422/307 306/421/306 308/423/308
f 310/425/310 307/422/307 309/424/309 311/426/311
f 250/354/250 312/427/312 309/424/309 308/423/308
f 313/428/313 311/426/311 309/424/309 312/427/312
f 314/429/314 311/426/311 313/428/313 232/430/232
f 244/345/244 242/339/242 313/428/313 312/427/312
f 233/342/233 232/430/232 313/428/313 242/339/242
f 70/96/70 72/99/72 314/431/314 229/317/229
f 310/425/310 311/426/311 314/429/314 72/432/72
f 230/318/230 229/317/229 314/431/314 232/320/232
f 246/348/246 244/345/244 312/427/312 250/354/250
f 64/90/64 112/152/112 310/425/310 72/432/72
f 111/151/111 307/422/307 310/425/310 112/152/112
f 251/355/251 250/354/250 308/423/308 253/357/253
f 109/148/109 107/146/107 305/420/305 111/151/111
f 93/129/93 92/128/92 300/415/300 104/143/104
f 91/127/91 295/410/295 300/415/300 92/128/92
f 292/404/292 293/406/293 295/410/295 91/127/91
f 81/111/81 315/433/315 292/404/292 91/127/91
f 96/132/96 95/131/95 292/404/292 315/433/315
f 268/380/268 266/378/266 288/400/288 271/383/271
f 272/384/272 271/383/271 285/397/285 282/394/282
f 116/158/116 115/157/115 206/285/206 204/281/204
f 119/161/119 116/158/116 204/281/204 202/279/202
f 120/162/120 119/161/119 200/277/200 316/434/316
f 317/435/317 316/434/316 200/277/200 192/267/192
f 132/182/132 316/434/316 317/435/317 133/179/133
f 195/270/195 318/436/318 317/435/317 192/267/192
f 319/437/319 133/179/133 317/435/317 318/436/318
f 134/180/134 133/179/133 319/437/319 320/438/320
f 183/255/183 321/439/321 319/440/319 318/441/318
f 322/442/322 320/443/320 319/440/319 321/439/321
f 323/444/323 320/443/320 322/442/322 324/445/324
f 130/175/130 131/176/131 322/442/322 321/439/321
f 180/251/180 324/445/324 322/442/322 131/176/131
f 325/446/325 182/253/182 323/447/323 326/448/326
f 134/449/134 320/443/320 323/444/323 182/450/182
f 327/451/327 326/448/326 323/447/323 324/452/324
f 328/453/328 326/448/326 327/451/327 329/454/329
f 180/455/180 330/456/330 327/451/327 324/452/324
f 331/457/331 329/454/329 327/451/327 330/456/330
f 175/458/175 329/459/329 331/460/331 176/461/176
f 332/462/332 333/463/333 331/464/331 330/465/330
f 177/466/177 176/467/176 331/464/331 333/463/333
f 325/446/325 334/468/334 333/463/333 332/462/332
f 179/469/179 177/466/177 333/463/333 334/468/334
f 326/448/326 328/453/328 334/468/334 325/446/325
f 178/247/178 179/248/179 334/470/334 328/471/328
f 180/472/180 181/254/181 332/462/332 330/465/330
f 182/253/182 325/446/325 332/462/332 181/254/181
f 175/458/175 178/247/178 328/471/328 329/459/329
f 186/258/186 130/175/130 321/439/321 183/255/183
f 184/256/184 183/255/183 318/441/318 195/473/195
f 125/169/125 120/162/120 316/434/316 132/182/132
f 129/174/129 130/175/130 186/258/186 140/188/140
f 8/13/8 41/244/41 173/243/173 7/9/7
f 4/10/4 7/9/7 173/243/173 39/474/39
f 42/53/42 45/56/45 160/213/160 172/231/172
f 159/230/159 162/475/162 172/231/172 169/226/169
f 53/234/53 42/53/42 172/231/172 162/475/162
f 48/63/48 53/71/53 162/215/162 161/214/161
f 100/138/100 107/146/107 109/148/109 103/142/103
f 79/106/79 90/123/90 102/140/102 76/107/76
f 86/116/86 106/145/106 90/123/90 84/114/84
f 14/21/14 19/27/19 62/476/62 13/477/13
f 21/29/21 20/28/20 62/87/62 61/84/61
f 16/24/16 13/18/13 62/87/62 20/28/20
f 24/32/24 21/29/21 61/84/61 60/83/60
f 46/478/46 335/479/335 60/83/60 56/86/56
f 51/69/51 24/32/24 60/83/60 335/479/335
f 31/42/31 34/45/34 335/479/335 46/478/46
f 37/48/37 51/69/51 335/479/335 34/45/34
f 1/1/1 40/51/40 41/52/41 8/11/8
f 1/1/1 4/4/4 39/50/39 40/51/40
f 17/480/17 23/31/23 28/38/28 18/481/18
f 17/480/17 16/24/16 20/28/20 23/31/23
f 11/16/11 16/24/16 17/480/17 12/17/12
f 108/147/108 67/93/67 66/92/66 69/95/69
f 68/155/68 65/482/65 64/98/64 71/97/71
f 106/145/106 86/116/86 82/112/82 94/130/94
f 315/433/315 81/111/81 80/110/80 96/132/96
