# split from a merged terrain OBJ by scripts/split-terrain-obj-parts.py
o part-045
v -0.803915 0.052424 -0.013128
v -0.802537 0.040439 -0.013548
v -0.801144 0.041467 -0.031274
v -0.803571 0.050637 -0.032178
v -0.813895 0.040806 -0.040511
v -0.810881 0.032817 -0.033056
v -0.813241 0.030783 -0.017609
v -0.837276 0.071800 -0.047529
v -0.841344 0.082104 -0.038888
v -0.830895 0.082858 -0.038089
v -0.823984 0.075991 -0.043998
v -0.812707 0.078679 -0.030973
v -0.825871 0.086041 -0.026619
v -0.841505 0.087880 -0.023756
v -0.849663 0.067196 -0.041842
v -0.850272 0.077033 -0.036567
v -0.853385 0.078457 -0.025140
v -0.855858 0.064523 -0.028122
v -0.821646 0.059550 -0.041961
v -0.831976 0.060902 -0.047385
v -0.841813 0.055338 -0.041115
v -0.835018 0.050525 -0.036201
v -0.810207 0.057371 -0.031418
v -0.816954 0.048993 -0.040420
v -0.814402 0.065327 -0.030465
v -0.833146 0.041157 -0.037810
v -0.821527 0.082888 -0.011827
v -0.811763 0.078064 -0.018465
v -0.820502 0.070182 -0.004361
v -0.812975 0.067844 -0.016049
v -0.849445 0.052698 -0.027151
v -0.850915 0.055244 -0.013859
v -0.856436 0.065033 -0.017578
v -0.852513 0.073185 -0.011778
v -0.846152 0.062140 -0.004601
v -0.824576 0.029557 -0.029859
v -0.831038 0.031824 -0.036277
v -0.828039 0.028194 -0.021353
v -0.840072 0.029032 -0.023568
v -0.840777 0.044278 0.000953
v -0.839390 0.033358 0.002132
v -0.830301 0.036819 0.007367
v -0.831182 0.047992 0.005913
v -0.820438 0.031321 -0.005115
v -0.814715 0.039154 0.002450
v -0.829119 0.028310 0.002609
v -0.816754 0.050981 0.003058
v -0.840702 0.024572 0.009531
v -0.837370 0.025401 0.012179
v -0.830544 0.028591 -0.010665
v -0.833589 0.026802 0.000068
v -0.841520 0.030798 -0.010342
v -0.844017 0.039915 -0.009332
v -0.839676 0.021852 0.008339
v -0.845511 0.017679 0.015707
v -0.842716 0.018044 0.018001
v -0.848239 0.015577 0.026169
v -0.850439 0.015940 0.021571
v -0.843981 0.021022 0.017856
v -0.849752 0.022297 0.024793
v -0.855235 0.021787 0.030494
v -0.852672 0.019312 0.029981
v -0.845934 0.071859 0.044179
v -0.835086 0.067625 0.036333
v -0.834978 0.078379 0.033703
v -0.847419 0.084061 0.037497
v -0.851297 0.090620 0.021274
v -0.836513 0.078445 0.017658
v -0.834893 0.063157 0.020517
v -0.859082 0.086803 0.007849
v -0.871695 0.087818 0.016012
v -0.870699 0.089771 0.028564
v -0.867142 0.072670 0.000677
v -0.879720 0.073810 0.013985
v -0.882652 0.074813 0.031109
v -0.878821 0.074103 0.043148
v -0.864656 0.083039 0.043019
v -0.859530 0.071079 0.049037
v -0.872843 0.064663 0.043771
v -0.878641 0.061560 0.031454
v -0.842982 0.060777 0.006763
v -0.853911 0.057762 0.001390
v -0.855430 0.069925 -0.001054
v -0.846908 0.074578 0.004529
v -0.867133 0.057885 0.004629
v -0.840477 0.033635 0.055158
v -0.846629 0.028890 0.047966
v -0.840625 0.028925 0.043221
v -0.833861 0.032416 0.043362
v -0.851301 0.024945 0.039016
v -0.844023 0.026831 0.034201
v -0.835085 0.029294 0.029319
v -0.845921 0.020770 0.016390
v -0.851707 0.020421 0.023733
v -0.856005 0.024601 0.024797
v -0.855139 0.025686 0.019940
v -0.859104 0.026413 0.039534
v -0.861374 0.025614 0.030090
v -0.862196 0.026965 0.023552
v -0.855303 0.036140 0.056369
v -0.868966 0.036649 0.047409
v -0.864372 0.033711 0.044197
v -0.855824 0.032067 0.047854
v -0.875489 0.030790 0.035470
v -0.867727 0.028057 0.037641
v -0.843434 0.027608 0.018896
v -0.853106 0.028086 0.013634
v -0.863228 0.028873 0.013026
v -0.868958 0.034443 0.011311
v -0.854206 0.033751 0.009317
v -0.869640 0.027963 0.014059
v -0.876085 0.030171 0.018193
v -0.854853 0.041808 0.007788
v -0.867374 0.042875 0.010918
v -0.876544 0.044685 0.019040
v -0.877526 0.036429 0.021253
v -0.876220 0.030451 0.025471
v -0.869081 0.027851 0.028430
v -0.869636 0.027874 0.021588
v -0.862240 0.026861 0.017897
v -0.869552 0.027802 0.017180
v -0.879028 0.037518 0.033056
v -0.872352 0.047964 0.048328
v -0.879550 0.045637 0.031680
v -0.871133 0.040658 0.048554
v -0.870024 0.056420 0.044687
v -0.876222 0.054155 0.031240
v -0.873927 0.052753 0.018843
v -0.877981 0.059077 0.016029
v -0.864908 0.050892 0.011267
v -0.854802 0.050209 0.008429
v -0.845722 0.052360 0.012040
v -0.842601 0.043987 0.012234
v -0.839219 0.055150 0.023931
v -0.835005 0.048021 0.024067
v -0.831925 0.038938 0.025661
v -0.841117 0.035254 0.013690
v -0.833708 0.051479 0.039977
v -0.831274 0.042293 0.042145
v -0.839712 0.054610 0.053502
v -0.838687 0.043122 0.055922
v -0.855722 0.052283 0.057254
v -0.855106 0.042404 0.058348
v -0.844529 0.062270 0.047612
v -0.856645 0.060446 0.050993
v -0.838132 0.059059 0.037443
v -0.836272 0.021918 0.011208
v -0.844494 0.038153 -0.023720
v -0.841585 0.052771 -0.002137
v -0.844323 0.048500 -0.011347
v -0.843667 0.047678 -0.024534
v -0.832106 0.057346 0.001109
v -0.834484 0.068240 -0.003070
v -0.819983 0.059522 -0.001886
v -0.838274 0.080441 -0.008361
v -0.810477 0.059581 -0.015002
vt 0.210623 0.970341
vt 0.205021 0.967546
vt 0.209562 0.960366
vt 0.214708 0.961888
vt 0.214960 0.954460
vt 0.207180 0.955278
vt 0.198745 0.962950
vt 0.242718 0.964535
vt 0.242121 0.974209
vt 0.237970 0.971556
vt 0.235266 0.964029
vt 0.228635 0.971007
vt 0.233209 0.977676
vt 0.236500 0.985141
vt 0.954804 0.612882
vt 0.961363 0.616965
vt 0.959004 0.622304
vt 0.953170 0.621086
vt 0.958821 0.632183
vt 0.963803 0.627328
vt 0.967164 0.621278
vt 0.952423 0.605591
vt 0.961908 0.601312
vt 0.960350 0.607625
vt 0.965839 0.611114
vt 0.968998 0.606925
vt 0.219158 0.964081
vt 0.220047 0.956659
vt 0.226383 0.959649
vt 0.223098 0.966928
vt 0.972460 0.603007
vt 0.965505 0.595824
vt 0.225316 0.982269
vt 0.224253 0.976007
vt 0.217943 0.982170
vt 0.219105 0.974440
vt 0.972143 0.616215
vt 0.976847 0.620878
vt 0.971805 0.624592
vt 0.972271 0.629705
vt 0.979740 0.626580
vt 0.969668 0.592328
vt 0.975974 0.589434
vt 0.979958 0.596656
vt 0.976883 0.600145
vt 0.987011 0.592650
vt 0.984984 0.599955
vt 0.983333 0.605472
vt 0.987898 0.620245
vt 0.991594 0.615846
vt 0.994869 0.620893
vt 0.990858 0.625720
vt 0.195078 0.972629
vt 0.200721 0.976194
vt 0.198428 0.984367
vt 0.193862 0.980019
vt 0.206509 0.979879
vt 0.205541 0.987187
vt 0.914867 0.272891
vt 0.916164 0.272005
vt 0.919975 0.279091
vt 0.915665 0.279100
vt 0.925246 0.280864
vt 0.922523 0.276125
vt 0.923700 0.273152
vt 0.928277 0.278812
vt 0.984941 0.614950
vt 0.988601 0.610461
vt 0.918678 0.269614
vt 0.919906 0.268407
vt 0.916385 0.264687
vt 0.914871 0.265867
vt 0.911930 0.262649
vt 0.914169 0.261883
vt 0.913475 0.266779
vt 0.908602 0.264087
vt 0.909313 0.258148
vt 0.910810 0.259727
vt 0.973939 0.929993
vt 0.970506 0.923072
vt 0.976443 0.923061
vt 0.982854 0.927843
vt 0.987057 0.918378
vt 0.978276 0.914884
vt 0.970415 0.914995
vt 0.899197 0.203305
vt 0.912253 0.201395
vt 0.908505 0.208456
vt 0.896625 0.211373
vt 0.919515 0.213659
vt 0.910178 0.216806
vt 0.900761 0.218991
vt 0.892129 0.221420
vt 0.880234 0.213882
vt 0.883343 0.227408
vt 0.893101 0.227864
vt 0.902769 0.225844
vt 0.972103 0.906475
vt 0.971363 0.900299
vt 0.979682 0.900418
vt 0.981501 0.906101
vt 0.920388 0.223039
vt 0.927760 0.214102
vt 0.927981 0.221037
vt 0.926342 0.208621
vt 0.890992 0.254897
vt 0.896333 0.256816
vt 0.896046 0.260260
vt 0.890917 0.260209
vt 0.903138 0.258741
vt 0.900857 0.262547
vt 0.896263 0.266660
vt 0.917477 0.263579
vt 0.914940 0.259745
vt 0.916552 0.258629
vt 0.918183 0.262613
vt 0.914195 0.255990
vt 0.917527 0.254327
vt 0.904477 0.254634
vt 0.910094 0.253878
vt 0.914339 0.252452
vt 0.893391 0.249517
vt 0.900346 0.245376
vt 0.901466 0.249035
vt 0.898248 0.252649
vt 0.907870 0.244998
vt 0.906409 0.249586
vt 0.900801 0.270062
vt 0.922065 0.250493
vt 0.922015 0.255321
vt 0.919980 0.247399
vt 0.920191 0.242156
vt 0.923892 0.246616
vt 0.918352 0.246142
vt 0.915768 0.245183
vt 0.925435 0.239188
vt 0.920237 0.235550
vt 0.914526 0.234308
vt 0.913849 0.239655
vt 0.912703 0.243695
vt 0.911583 0.249359
vt 0.915474 0.248440
vt 0.917955 0.250687
vt 0.917201 0.247604
vt 0.908108 0.239803
vt 0.897207 0.237879
vt 0.907071 0.234586
vt 0.899267 0.242379
vt 0.894569 0.232554
vt 0.904754 0.229925
vt 0.914407 0.228998
vt 0.912328 0.224370
vt 0.922078 0.230430
vt 0.965570 0.902345
vt 0.963687 0.897464
vt 0.967780 0.894523
vt 0.927742 0.234254
vt 0.966270 0.907270
vt 0.928932 0.243767
vt 0.930217 0.238977
vt 0.878751 0.263965
vt 0.882695 0.264392
vt 0.887752 0.272120
vt 0.882677 0.272382
vt 0.887838 0.265626
vt 0.895148 0.272004
vt 0.928500 0.249197
vt 0.880214 0.255468
vt 0.885247 0.257686
vt 0.880327 0.247932
vt 0.885431 0.250838
vt 0.885102 0.240715
vt 0.890681 0.245850
vt 0.872665 0.242090
vt 0.882572 0.235567
vt 0.976032 0.936726
vt 0.967790 0.935392
vt 0.966913 0.929042
vt 0.965179 0.922620
vt 0.876458 0.254385
vt 0.965401 0.914849
vt 0.911955 0.267956
vt 0.989198 0.910226
vt 0.984424 0.936840
vt 0.882331 0.207143
vt 0.916871 0.270488
vt 0.921456 0.277209
vt 0.979630 0.609631
vt 0.984249 0.623033
vt 0.981278 0.618022
vt 0.975450 0.612955
vt 0.986349 0.628517
vt 0.981689 0.632904
vt 0.212046 0.981393
vt 0.218298 0.989913
vt 0.211532 0.988015
vt 0.226892 0.991822
vt 0.971913 0.636824
vt 0.215260 0.972103
vt 0.921969 0.281956
vt 0.991436 0.604548
vt 0.993775 0.599666
vn 0.8567 0.4150 0.3064
vn 0.8939 -0.3300 0.3034
vn 0.8915 -0.2960 -0.3430
vn 0.8235 0.3210 -0.4677
vn 0.2751 -0.2159 -0.9369
vn 0.4681 -0.7635 -0.4448
vn 0.4345 -0.8945 0.1050
vn -0.1428 0.2204 -0.9649
vn -0.2905 0.7599 -0.5815
vn 0.1258 0.8377 -0.5314
vn 0.4593 0.4127 -0.7866
vn 0.8277 0.4566 -0.3261
vn 0.2411 0.9661 -0.0928
vn -0.2884 0.9556 0.0610
vn -0.7096 -0.0458 -0.7031
vn -0.7217 0.4911 -0.4877
vn -0.8194 0.5729 -0.0191
vn -0.9619 -0.1663 -0.2171
vn 0.4310 -0.0750 -0.8992
vn 0.0762 -0.3603 -0.9297
vn -0.3790 -0.6226 -0.6847
vn -0.3696 -0.4783 -0.7967
vn 0.7548 0.4707 -0.4569
vn 0.2121 0.1369 -0.9676
vn 0.9108 0.1365 -0.3895
vn -0.4879 -0.1397 -0.8617
vn 0.3895 0.7457 0.5406
vn 0.8804 0.4262 0.2081
vn 0.4613 0.3485 0.8159
vn 0.9370 0.2036 0.2837
vn -0.7073 -0.6645 -0.2412
vn -0.8334 -0.4608 0.3051
vn -0.9669 -0.1116 0.2293
vn -0.7450 0.3589 0.5623
vn -0.5852 0.0236 0.8106
vn 0.1030 -0.9387 -0.3290
vn -0.2851 -0.6238 -0.7277
vn 0.0384 -0.9984 -0.0409
vn -0.5906 -0.7688 -0.2452
vn -0.7747 0.0629 0.6292
vn -0.9156 -0.1641 0.3670
vn 0.0757 -0.0457 0.9961
vn -0.1621 0.2446 0.9560
vn 0.4107 -0.8576 0.3096
vn 0.5919 -0.3076 0.7450
vn 0.5646 -0.7711 0.2944
vn 0.4664 0.3323 0.8198
vn -0.9038 0.3893 -0.1775
vn 0.2221 0.4814 0.8479
vn -0.0193 -0.9989 0.0436
vn -0.1140 -0.9586 -0.2610
vn -0.7262 -0.6809 0.0948
vn -0.9795 -0.1261 0.1568
vn -0.2811 -0.7365 -0.6153
vn -0.3781 -0.7023 -0.6031
vn 0.7264 -0.6010 0.3333
vn 0.2448 -0.6902 0.6809
vn -0.5872 -0.7112 -0.3866
vn 0.2995 0.8081 0.5072
vn 0.7781 -0.6281 0.0065
vn -0.1900 -0.9694 0.1552
vn -0.0803 -0.4958 0.8647
vn 0.4507 0.3342 0.8277
vn 0.9122 0.0311 0.4086
vn 0.8200 0.4713 0.3248
vn 0.3866 0.7489 0.5382
vn 0.2985 0.9496 -0.0958
vn 0.8271 0.4632 -0.3184
vn 0.9459 -0.2163 -0.2419
vn 0.0017 0.7762 -0.6305
vn -0.5176 0.7786 -0.3548
vn -0.4083 0.9010 0.1466
vn -0.3984 0.1755 -0.9003
vn -0.8803 0.1878 -0.4357
vn -0.9603 0.2116 0.1817
vn -0.7082 0.1919 0.6794
vn -0.1497 0.6717 0.7255
vn -0.0300 0.2730 0.9616
vn -0.6438 -0.1138 0.7567
vn -0.9291 -0.3198 0.1857
vn 0.6985 -0.2772 -0.6598
vn 0.1643 -0.4305 -0.8875
vn 0.1427 0.0976 -0.9850
vn 0.5368 0.3387 -0.7727
vn -0.4656 -0.4471 -0.7638
vn 0.3952 -0.5585 0.7293
vn 0.0565 -0.9004 0.4315
vn 0.3453 -0.9103 0.2282
vn 0.7668 -0.5836 0.2674
vn 0.0214 -0.9378 0.3466
vn 0.3671 -0.9223 0.1205
vn 0.7283 -0.6750 -0.1180
vn -0.7151 0.5505 -0.4309
vn -0.8108 -0.3301 -0.4834
vn -0.4129 -0.8484 -0.3311
vn -0.0822 -0.9117 -0.4024
vn -0.3019 -0.8412 0.4487
vn -0.3098 -0.9507 0.0117
vn -0.2305 -0.9678 -0.1010
vn -0.2319 -0.5581 0.7967
vn -0.5320 -0.5576 0.6372
vn -0.3175 -0.7637 0.5621
vn -0.2546 -0.8123 0.5247
vn -0.6587 -0.6841 0.3131
vn -0.3139 -0.8724 0.3746
vn 0.4667 -0.7528 -0.4643
vn 0.1154 -0.7412 -0.6613
vn -0.1108 -0.7398 -0.6636
vn -0.4613 -0.1922 -0.8662
vn 0.1026 -0.3402 -0.9348
vn -0.2942 -0.7557 -0.5851
vn -0.7416 -0.5412 -0.3964
vn 0.0554 -0.0184 -0.9983
vn -0.4627 0.0480 -0.8852
vn -0.8529 0.1376 -0.5036
vn -0.9263 -0.0666 -0.3709
vn -0.7391 -0.6705 -0.0649
vn -0.2851 -0.9582 0.0221
vn -0.2532 -0.9674 -0.0004
vn -0.1005 -0.9756 -0.1950
vn -0.2044 -0.9759 -0.0766
vn -0.9613 -0.2055 0.1833
vn -0.7443 0.1984 0.6377
vn -0.9843 0.1556 0.0828
vn -0.7042 -0.1788 0.6871
vn -0.7137 0.1881 0.6747
vn -0.9893 0.0024 0.1461
vn -0.8750 -0.1833 -0.4481
vn -0.8537 -0.3785 -0.3577
vn -0.4630 -0.2953 -0.8358
vn 0.0925 -0.3146 -0.9447
vn 0.6644 -0.2187 -0.7146
vn 0.5969 0.1058 -0.7953
vn 0.9579 -0.0147 -0.2867
vn 0.8748 0.3022 -0.3786
vn 0.9426 -0.0970 -0.3194
vn 0.6097 -0.2801 -0.7415
vn 0.9106 0.4020 0.0959
vn 0.9788 0.0199 0.2036
vn 0.5622 0.4625 0.6856
vn 0.5874 0.0178 0.8091
vn -0.1837 0.3430 0.9212
vn -0.1763 -0.0788 0.9812
vn 0.5103 0.4572 0.7284
vn -0.1403 0.4012 0.9052
vn 0.9469 0.2280 0.2266
vn 0.7209 -0.6351 0.2776
vn -0.9337 -0.1857 -0.3061
vn -0.6882 0.0558 0.7233
vn -0.9384 -0.2522 0.2364
vn -0.8405 -0.4473 -0.3057
vn -0.1441 0.3447 0.9276
vn -0.1165 0.3401 0.9331
vn 0.4296 0.4535 0.7809
vn -0.2066 0.6876 0.6961
vn 0.8199 0.5199 0.2399
f 1/1/1 2/2/2 3/3/3 4/4/4
f 5/5/5 4/4/4 3/3/3 6/6/6
f 7/7/7 6/6/6 3/3/3 2/2/2
f 8/8/8 9/9/9 10/10/10 11/11/11
f 12/12/12 11/11/11 10/10/10 13/13/13
f 14/14/14 13/13/13 10/10/10 9/9/9
f 8/15/8 15/16/15 16/17/16 9/18/9
f 14/19/14 9/18/9 16/17/16 17/20/17
f 18/21/18 17/20/17 16/17/16 15/16/15
f 11/22/11 19/23/19 20/24/20 8/15/8
f 15/16/15 8/15/8 20/24/20 21/25/21
f 22/26/22 21/25/21 20/24/20 19/23/19
f 23/27/23 24/28/24 19/29/19 25/30/25
f 12/12/12 25/30/25 19/29/19 11/11/11
f 26/31/26 22/26/22 19/23/19 24/32/24
f 13/13/13 27/33/27 28/34/28 12/12/12
f 29/35/29 30/36/30 28/34/28 27/33/27
f 25/30/25 12/12/12 28/34/28 30/36/30
f 31/37/31 32/38/32 33/39/33 18/21/18
f 17/20/17 18/21/18 33/39/33 34/40/34
f 35/41/35 34/40/34 33/39/33 32/38/32
f 5/42/5 6/43/6 36/44/36 37/45/37
f 7/46/7 38/47/38 36/44/36 6/43/6
f 39/48/39 37/45/37 36/44/36 38/47/38
f 40/49/40 41/50/41 42/51/42 43/52/43
f 44/53/44 45/54/45 42/55/42 46/56/46
f 47/57/47 43/58/43 42/55/42 45/54/45
f 48/59/48 49/60/49 42/61/42 41/62/41
f 50/63/50 51/64/51 41/65/41 52/66/52
f 53/67/53 52/68/52 41/50/41 40/49/40
f 54/69/54 48/70/48 41/65/41 51/64/51
f 55/71/55 56/72/56 57/73/57 58/74/58
f 59/75/59 60/76/60 57/73/57 56/72/56
f 61/77/61 62/78/62 57/73/57 60/76/60
f 63/79/63 64/80/64 65/81/65 66/82/66
f 67/83/67 66/82/66 65/81/65 68/84/68
f 69/85/69 68/84/68 65/81/65 64/80/64
f 67/86/67 70/87/70 71/88/71 72/89/72
f 73/90/73 74/91/74 71/88/71 70/87/70
f 75/92/75 72/89/72 71/88/71 74/91/74
f 72/89/72 75/92/75 76/93/76 77/94/77
f 78/95/78 77/94/77 76/93/76 79/96/79
f 80/97/80 79/96/79 76/93/76 75/92/75
f 81/98/81 82/99/82 83/100/83 84/101/84
f 85/102/85 73/90/73 83/103/83 82/104/82
f 70/87/70 84/105/84 83/103/83 73/90/73
f 86/106/86 87/107/87 88/108/88 89/109/89
f 90/110/90 91/111/91 88/108/88 87/107/87
f 92/112/92 89/109/89 88/108/88 91/111/91
f 90/110/90 61/77/61 60/76/60 91/111/91
f 93/113/93 94/114/94 60/115/60 59/116/59
f 95/117/95 96/118/96 60/115/60 94/114/94
f 61/77/61 95/117/95 94/114/94 62/78/62
f 55/71/55 58/74/58 94/114/94 93/113/93
f 97/119/97 98/120/98 61/77/61 90/110/90
f 99/121/99 95/117/95 61/77/61 98/120/98
f 100/122/100 101/123/101 102/124/102 103/125/103
f 104/126/104 105/127/105 102/124/102 101/123/101
f 97/119/97 103/125/103 102/124/102 105/127/105
f 92/112/92 91/111/91 60/76/60 106/128/106
f 107/129/107 106/130/106 60/115/60 96/118/96
f 107/129/107 108/131/108 109/132/109 110/133/110
f 111/134/111 112/135/112 109/132/109 108/131/108
f 113/136/113 110/133/110 109/132/109 114/137/114
f 115/138/115 114/137/114 109/132/109 116/139/116
f 117/140/117 116/139/116 109/132/109 112/135/112
f 118/141/118 117/140/117 112/135/112 119/142/119
f 104/126/104 117/140/117 118/141/118 105/127/105
f 99/121/99 98/120/98 118/141/118 119/142/119
f 97/119/97 105/127/105 118/141/118 98/120/98
f 120/143/120 99/121/99 119/142/119 121/144/121
f 111/134/111 108/131/108 120/143/120 121/144/121
f 107/129/107 96/118/96 120/143/120 108/131/108
f 95/117/95 99/121/99 120/143/120 96/118/96
f 122/145/122 116/139/116 117/140/117 104/126/104
f 123/146/123 124/147/124 122/145/122 125/148/125
f 115/138/115 116/139/116 122/145/122 124/147/124
f 101/123/101 125/148/125 122/145/122 104/126/104
f 126/149/126 127/150/127 124/147/124 123/146/123
f 128/151/128 115/138/115 124/147/124 127/150/127
f 80/97/80 129/152/129 128/151/128 127/150/127
f 85/102/85 130/153/130 128/151/128 129/152/129
f 114/137/114 115/138/115 128/151/128 130/153/130
f 82/99/82 131/154/131 130/155/130 85/156/85
f 113/136/113 114/137/114 130/153/130 131/157/131
f 81/98/81 132/158/132 131/154/131 82/99/82
f 133/159/133 113/136/113 131/157/131 132/160/132
f 134/161/134 135/162/135 133/163/133 132/164/132
f 136/165/136 137/166/137 133/163/133 135/162/135
f 110/133/110 113/136/113 133/159/133 137/167/137
f 92/112/92 106/128/106 137/166/137 136/165/136
f 107/129/107 110/133/110 137/167/137 106/130/106
f 138/168/138 139/169/139 136/165/136 135/162/135
f 89/109/89 92/112/92 136/165/136 139/169/139
f 140/170/140 141/171/141 139/169/139 138/168/138
f 86/106/86 89/109/89 139/169/139 141/171/141
f 142/172/142 143/173/143 141/171/141 140/170/140
f 100/122/100 86/106/86 141/171/141 143/173/143
f 123/146/123 125/148/125 143/173/143 142/172/142
f 101/123/101 100/122/100 143/173/143 125/148/125
f 144/174/144 145/175/145 142/172/142 140/170/140
f 126/149/126 123/146/123 142/172/142 145/175/145
f 63/79/63 78/176/78 145/177/145 144/178/144
f 79/96/79 126/149/126 145/175/145 78/95/78
f 64/80/64 63/79/63 144/178/144 146/179/146
f 138/168/138 146/180/146 144/174/144 140/170/140
f 69/85/69 64/80/64 146/179/146 134/181/134
f 135/162/135 134/161/134 146/180/146 138/168/138
f 81/98/81 69/85/69 134/181/134 132/158/132
f 75/92/75 74/91/74 129/152/129 80/97/80
f 73/90/73 85/102/85 129/152/129 74/91/74
f 79/96/79 80/97/80 127/150/127 126/149/126
f 87/107/87 86/106/86 100/122/100 103/125/103
f 90/110/90 87/107/87 103/125/103 97/119/97
f 49/60/49 48/59/48 93/182/93 59/75/59
f 54/69/54 55/71/55 93/113/93 48/70/48
f 68/84/68 69/85/69 81/98/81 84/101/84
f 67/83/67 68/84/68 84/101/84 70/183/70
f 66/82/66 77/184/77 78/176/78 63/79/63
f 67/86/67 72/89/72 77/94/77 66/185/66
f 147/186/147 49/60/49 59/75/59 56/72/56
f 55/71/55 54/69/54 147/186/147 56/72/56
f 51/64/51 46/187/46 147/186/147 54/69/54
f 42/61/42 49/60/49 147/186/147 46/187/46
f 39/48/39 52/68/52 53/67/53 148/188/148
f 149/189/149 150/190/150 53/67/53 40/49/40
f 151/191/151 148/188/148 53/67/53 150/190/150
f 26/31/26 148/188/148 151/191/151 22/26/22
f 32/38/32 31/37/31 151/191/151 150/190/150
f 21/25/21 22/26/22 151/191/151 31/37/31
f 35/41/35 32/38/32 150/190/150 149/189/149
f 43/52/43 152/192/152 149/189/149 40/49/40
f 153/193/153 35/41/35 149/189/149 152/192/152
f 154/194/154 29/35/29 153/195/153 152/196/152
f 27/33/27 155/197/155 153/195/153 29/35/29
f 34/40/34 35/41/35 153/193/153 155/198/155
f 13/13/13 14/14/14 155/197/155 27/33/27
f 17/20/17 34/40/34 155/198/155 14/19/14
f 43/58/43 47/57/47 154/194/154 152/196/152
f 1/1/1 156/199/156 154/194/154 47/57/47
f 30/36/30 29/35/29 154/194/154 156/199/156
f 4/4/4 23/27/23 156/199/156 1/1/1
f 25/30/25 30/36/30 156/199/156 23/27/23
f 37/45/37 39/48/39 148/188/148 26/31/26
f 44/200/44 46/187/46 51/64/51 50/63/50
f 39/48/39 38/47/38 50/201/50 52/68/52
f 7/46/7 44/202/44 50/201/50 38/47/38
f 2/2/2 1/1/1 47/57/47 45/54/45
f 7/7/7 2/2/2 45/54/45 44/53/44
f 24/32/24 5/42/5 37/45/37 26/31/26
f 15/16/15 21/25/21 31/37/31 18/21/18
f 4/4/4 5/5/5 24/28/24 23/27/23
f 58/74/58 57/73/57 62/78/62 94/114/94
f 112/135/112 121/144/121 119/142/119
f 112/135/112 111/134/111 121/144/121
