# split from a merged terrain OBJ by scripts/split-terrain-obj-parts.py
o part-046
v -0.183933 0.198123 -0.005367
v -0.187220 0.198617 -0.005538
v -0.187050 0.191979 -0.007008
v -0.185807 0.193104 -0.005902
v -0.185718 0.198888 -0.008058
v -0.186544 0.192204 -0.007084
v -0.188382 0.199112 -0.008147
v -0.188479 0.192589 -0.008960
v -0.181051 0.205576 -0.006289
v -0.187548 0.205671 -0.004132
v -0.185584 0.206106 -0.008731
v -0.186856 0.214318 -0.002692
v -0.182734 0.213907 -0.000377
v -0.178204 0.214149 -0.002278
v -0.177363 0.207408 -0.004975
v -0.185873 0.214795 -0.009150
v -0.181449 0.214676 -0.007979
v -0.177923 0.215052 -0.008277
v -0.175337 0.214482 -0.004155
v -0.175571 0.207516 -0.005531
v -0.174653 0.215085 -0.009526
v -0.175281 0.209005 -0.008935
v -0.171535 0.257599 -0.010571
v -0.169049 0.277684 -0.011066
v -0.165775 0.277455 -0.007887
v -0.169567 0.257564 -0.006875
v -0.173066 0.257417 -0.001581
v -0.170740 0.278952 -0.002779
v -0.166326 0.296894 -0.011528
v -0.164455 0.296216 -0.007392
v -0.169510 0.298235 -0.003225
v -0.186588 0.331802 -0.000349
v -0.179535 0.332826 -0.001018
v -0.181246 0.339794 -0.001318
v -0.188265 0.338073 -0.000382
v -0.190475 0.343584 -0.000412
v -0.186917 0.344340 -0.005103
v -0.171566 0.332710 -0.001886
v -0.172197 0.340284 -0.002093
v -0.170226 0.339808 -0.008156
v -0.177996 0.337645 -0.007051
v -0.185307 0.338376 -0.006771
v -0.164682 0.332218 -0.004875
v -0.165950 0.339650 -0.003452
v -0.165655 0.345116 -0.003642
v -0.170996 0.345732 -0.003247
v -0.167164 0.345230 -0.007511
v -0.175503 0.331305 -0.008917
v -0.167834 0.332177 -0.010249
v -0.166329 0.350376 -0.003720
v -0.171762 0.351087 -0.003246
v -0.168515 0.354088 -0.003457
v -0.172507 0.355284 -0.003162
v -0.166471 0.350556 -0.006503
v -0.177606 0.355461 -0.002543
v -0.177567 0.352355 -0.004063
v -0.168396 0.354416 -0.006309
v -0.172415 0.356790 -0.005797
v -0.177657 0.356677 -0.004977
v -0.182649 0.355613 -0.001698
v -0.187702 0.356543 -0.001217
v -0.187779 0.351394 -0.004860
v -0.182523 0.352723 -0.004071
v -0.182834 0.356218 -0.004252
v -0.187875 0.356241 -0.003791
v -0.191972 0.344656 -0.006491
v -0.192372 0.350566 -0.005454
v -0.192497 0.356133 -0.003471
v -0.192260 0.357215 -0.000740
v -0.191858 0.350134 -0.000944
v -0.191353 0.338438 -0.007342
v -0.197221 0.356293 -0.004194
v -0.196377 0.359695 -0.000796
v -0.195530 0.349959 -0.001257
v -0.195981 0.349974 -0.004613
v -0.195774 0.343885 -0.005254
v -0.194708 0.343209 -0.001324
v -0.195787 0.337618 -0.005831
v -0.193972 0.336978 -0.001220
v -0.195381 0.331105 -0.006600
v -0.193429 0.330840 -0.001420
v -0.194490 0.323366 -0.007297
v -0.192908 0.323329 -0.002041
v -0.185962 0.324272 -0.000197
v -0.178006 0.324688 -0.000999
v -0.192158 0.313701 -0.003463
v -0.185889 0.314356 0.000098
v -0.177186 0.314063 -0.000775
v -0.170297 0.324169 -0.002117
v -0.169571 0.312750 -0.002569
v -0.185827 0.299887 0.000621
v -0.177130 0.299824 -0.000189
v -0.185252 0.279880 0.001787
v -0.177466 0.280108 0.000913
v -0.184254 0.257561 0.002820
v -0.177658 0.257750 0.002557
v -0.183807 0.238012 0.002740
v -0.178087 0.237829 0.002247
v -0.174263 0.237939 -0.001641
v -0.171236 0.238965 -0.006449
v -0.178370 0.224603 0.000370
v -0.174836 0.224983 -0.002531
v -0.172315 0.225108 -0.006396
v -0.172842 0.239019 -0.010162
v -0.173912 0.225320 -0.009989
v -0.173236 0.214793 -0.007017
v -0.173613 0.207121 -0.007299
v -0.176535 0.257026 -0.009592
v -0.177083 0.238836 -0.009125
v -0.177755 0.225512 -0.008863
v -0.181663 0.238973 -0.008614
v -0.181774 0.225451 -0.008391
v -0.186959 0.257255 -0.009812
v -0.181388 0.257451 -0.008892
v -0.186669 0.238457 -0.009306
v -0.186184 0.225372 -0.009309
v -0.189625 0.238356 -0.006323
v -0.189055 0.225204 -0.006434
v -0.189073 0.214812 -0.006951
v -0.187008 0.224762 -0.001690
v -0.188982 0.206279 -0.007687
v -0.187457 0.238386 -0.001514
v -0.183147 0.224295 0.001307
v -0.188825 0.257144 -0.002315
v -0.190905 0.256989 -0.007382
v -0.190178 0.279270 -0.004426
v -0.191867 0.279159 -0.008431
v -0.186786 0.279459 -0.009874
v -0.192823 0.299104 -0.009106
v -0.187195 0.299315 -0.009930
v -0.180515 0.299242 -0.009814
v -0.180647 0.279495 -0.009582
v -0.172956 0.298699 -0.010654
v -0.174556 0.278731 -0.010439
v -0.181036 0.313431 -0.009692
v -0.173384 0.313002 -0.010413
v -0.165885 0.312400 -0.011511
v -0.174305 0.323018 -0.009865
v -0.166531 0.323337 -0.010818
v -0.164098 0.323527 -0.005798
v -0.163918 0.311921 -0.006670
v -0.183229 0.331335 -0.008197
v -0.182077 0.323386 -0.009173
v -0.190050 0.331666 -0.008269
v -0.189116 0.323671 -0.009130
v -0.188022 0.313327 -0.009755
v -0.193806 0.313311 -0.008464
v -0.191359 0.299232 -0.004335
vt 0.073595 0.974349
vt 0.076196 0.973876
vt 0.075967 0.976374
vt 0.074817 0.976473
vt 0.882426 0.136421
vt 0.883993 0.137443
vt 0.881894 0.139564
vt 0.881020 0.139684
vt 0.880989 0.135908
vt 0.879810 0.139159
vt 0.078445 0.974158
vt 0.076961 0.977626
vt 0.073032 0.970566
vt 0.077035 0.970648
vt 0.883454 0.132834
vt 0.886068 0.133879
vt 0.077485 0.966516
vt 0.075027 0.965881
vt 0.072471 0.965693
vt 0.071341 0.969097
vt 0.884769 0.128533
vt 0.887145 0.129228
vt 0.889023 0.129581
vt 0.887999 0.133774
vt 0.070574 0.965439
vt 0.070260 0.968873
vt 0.890921 0.130022
vt 0.890204 0.133003
vt 0.899171 0.109672
vt 0.903417 0.100127
vt 0.906189 0.101103
vt 0.901645 0.110663
vt 0.070793 0.943922
vt 0.067185 0.944284
vt 0.065537 0.934534
vt 0.069311 0.933749
vt 0.906722 0.090687
vt 0.909011 0.091454
vt 0.912768 0.091176
vt 0.910100 0.100521
vt 0.926371 0.076956
vt 0.922607 0.075607
vt 0.923393 0.071879
vt 0.927648 0.073719
vt 0.263715 0.012004
vt 0.262894 0.008904
vt 0.267194 0.008232
vt 0.267742 0.013046
vt 0.918603 0.074486
vt 0.919051 0.070357
vt 0.921469 0.068086
vt 0.925050 0.069292
vt 0.269617 0.009287
vt 0.269508 0.005029
vt 0.914885 0.073506
vt 0.915541 0.069502
vt 0.267613 0.036335
vt 0.269058 0.034914
vt 0.269862 0.037296
vt 0.267591 0.038985
vt 0.272735 0.033870
vt 0.271595 0.038087
vt 0.907249 0.071867
vt 0.906898 0.068184
vt 0.911644 0.068434
vt 0.911453 0.072876
vt 0.915513 0.066565
vt 0.913488 0.065918
vt 0.275884 0.031814
vt 0.273067 0.030152
vt 0.272982 0.026247
vt 0.275768 0.027939
vt 0.271458 0.028526
vt 0.270265 0.026794
vt 0.266924 0.030965
vt 0.271951 0.031472
vt 0.268424 0.024466
vt 0.270382 0.023272
vt 0.270384 0.029686
vt 0.269000 0.027942
vt 0.267010 0.025844
vt 0.265055 0.027492
vt 0.267039 0.022262
vt 0.265049 0.020722
vt 0.267903 0.017320
vt 0.268973 0.020521
vt 0.265036 0.023564
vt 0.263053 0.025101
vt 0.258807 0.023792
vt 0.263209 0.022041
vt 0.256660 0.018865
vt 0.258689 0.020736
vt 0.255944 0.021533
vt 0.261390 0.020942
vt 0.263802 0.019021
vt 0.264053 0.015437
vt 0.254730 0.016689
vt 0.253749 0.019063
vt 0.260581 0.019070
vt 0.261973 0.018760
vt 0.261280 0.015449
vt 0.259001 0.016786
vt 0.257470 0.014995
vt 0.260365 0.012532
vt 0.255529 0.013109
vt 0.258294 0.010094
vt 0.896693 0.068775
vt 0.894057 0.068439
vt 0.894581 0.065014
vt 0.897798 0.065676
vt 0.260992 0.005796
vt 0.256827 0.007196
vt 0.895805 0.072857
vt 0.893114 0.072185
vt 0.889880 0.071071
vt 0.890495 0.066960
vt 0.924353 0.080657
vt 0.920922 0.079426
vt 0.891989 0.077167
vt 0.888498 0.075904
vt 0.919167 0.084479
vt 0.923419 0.084594
vt 0.917449 0.078750
vt 0.915300 0.084255
vt 0.921302 0.090481
vt 0.917136 0.091673
vt 0.079824 0.933579
vt 0.074842 0.933314
vt 0.076739 0.923909
vt 0.082164 0.924350
vt 0.913968 0.100028
vt 0.078756 0.944531
vt 0.074655 0.944209
vt 0.077677 0.954105
vt 0.074176 0.953954
vt 0.070874 0.953806
vt 0.067430 0.953543
vt 0.073220 0.960345
vt 0.070758 0.960298
vt 0.068248 0.960364
vt 0.895499 0.118547
vt 0.897734 0.119479
vt 0.894657 0.125968
vt 0.892702 0.125100
vt 0.068755 0.965487
vt 0.892329 0.130743
vt 0.068776 0.969159
vt 0.890783 0.134422
vt 0.895946 0.109045
vt 0.892874 0.117906
vt 0.890685 0.124359
vt 0.890119 0.117057
vt 0.888329 0.123754
vt 0.889547 0.107117
vt 0.892931 0.107899
vt 0.887027 0.116361
vt 0.885711 0.123076
vt 0.884450 0.115823
vt 0.883298 0.122632
vt 0.882828 0.127957
vt 0.078708 0.961171
vt 0.081149 0.962558
vt 0.079851 0.966653
vt 0.881582 0.132328
vt 0.079247 0.970927
vt 0.081003 0.954416
vt 0.075837 0.960780
vt 0.880330 0.121929
vt 0.881403 0.115094
vt 0.082223 0.945280
vt 0.886757 0.106486
vt 0.883635 0.105694
vt 0.887340 0.094865
vt 0.889844 0.095343
vt 0.892963 0.096231
vt 0.892595 0.085388
vt 0.895565 0.086059
vt 0.899007 0.087237
vt 0.896513 0.097269
vt 0.903114 0.088662
vt 0.900093 0.098724
vt 0.901149 0.080011
vt 0.905182 0.081415
vt 0.909117 0.082939
vt 0.906348 0.076226
vt 0.910501 0.077391
vt 0.913442 0.078099
vt 0.911802 0.083883
vt 0.903125 0.070716
vt 0.902281 0.074832
vt 0.900413 0.066047
vt 0.903457 0.066886
vt 0.899671 0.069507
vt 0.898602 0.073520
vt 0.897564 0.078973
vt 0.894540 0.078080
vt 0.890066 0.084564
vt 0.886504 0.083108
vt 0.883525 0.093018
vt 0.880078 0.103772
vt 0.075407 0.977231
vn 0.8271 -0.3568 0.4343
vn -0.5367 -0.1150 0.8359
vn -0.2484 -0.8697 0.4266
vn 0.6910 -0.5012 0.5209
vn 0.4446 -0.1310 -0.8861
vn 0.5703 -0.5998 -0.5612
vn -0.8235 -0.1302 -0.5522
vn -0.7005 -0.3438 -0.6254
vn 0.7283 -0.6818 -0.0687
vn -0.5344 -0.1858 0.8245
vn 0.1011 -0.0851 -0.9912
vn -0.6606 -0.1667 0.7320
vn -0.0369 -0.3029 0.9523
vn 0.3885 -0.2773 0.8787
vn 0.2578 -0.9417 0.2160
vn -0.1358 -0.0280 -0.9903
vn 0.1884 -0.1131 -0.9756
vn -0.2346 -0.1459 -0.9611
vn 0.6705 -0.1588 0.7247
vn 0.4833 -0.5542 0.6777
vn 0.2606 -0.1272 -0.9570
vn -0.0021 -0.3879 -0.9217
vn 0.3956 -0.0768 -0.9152
vn 0.3806 -0.0730 -0.9219
vn 0.9920 -0.1174 0.0461
vn 0.9926 -0.1110 0.0482
vn 0.7244 -0.0373 0.6884
vn 0.6185 -0.0219 0.7855
vn 0.4621 -0.0299 -0.8863
vn 0.9831 -0.0656 0.1711
vn 0.5117 -0.0190 0.8590
vn -0.0295 -0.0001 0.9996
vn 0.1038 0.0346 0.9940
vn 0.2848 0.7140 0.6396
vn 0.0333 0.1486 0.9883
vn 0.1776 0.1679 0.9697
vn 0.7040 0.6218 -0.3433
vn 0.2426 0.0016 0.9701
vn -0.1707 0.6122 0.7720
vn 0.0693 0.4498 -0.8904
vn -0.0554 0.6070 -0.7927
vn 0.1918 0.3976 -0.8973
vn 0.9448 0.1653 0.2828
vn 0.9027 0.0628 0.4257
vn 0.8783 -0.0418 0.4762
vn -0.8168 0.3250 0.4766
vn 0.2354 0.0410 -0.9710
vn -0.1278 0.1473 -0.9808
vn 0.4001 0.2127 -0.8915
vn 0.7857 0.1941 0.5873
vn -0.7110 -0.5510 0.4369
vn 0.5282 0.4977 0.6880
vn 0.1629 0.5068 0.8465
vn 0.5167 0.1863 -0.8357
vn 0.0334 0.3732 0.9271
vn -0.0900 -0.9874 -0.1303
vn 0.3818 0.5371 -0.7522
vn 0.0876 0.7781 -0.6220
vn -0.0004 0.7803 -0.6254
vn 0.0725 0.3206 0.9444
vn 0.3255 0.5918 0.7374
vn 0.8388 -0.0463 -0.5425
vn -0.0091 -0.9633 -0.2684
vn 0.0289 0.7658 -0.6424
vn 0.0486 0.7410 -0.6698
vn -0.0659 0.1415 -0.9877
vn -0.0240 0.1768 -0.9840
vn 0.0891 0.6205 -0.7791
vn 0.3201 0.7198 0.6160
vn 0.2582 -0.0324 0.9655
vn -0.1112 0.1491 -0.9826
vn -0.7297 0.3559 -0.5838
vn -0.4139 0.8552 0.3121
vn -0.6656 -0.0820 0.7418
vn -0.8266 0.0349 -0.5617
vn -0.8750 0.0182 -0.4838
vn -0.6703 -0.0520 0.7403
vn -0.9048 0.0014 -0.4259
vn -0.6306 -0.0685 0.7731
vn -0.8977 -0.0265 -0.4399
vn -0.6369 -0.0853 0.7662
vn -0.8864 -0.0376 -0.4615
vn -0.6927 -0.0955 0.7149
vn -0.0893 -0.0144 0.9959
vn 0.1263 0.0161 0.9919
vn -0.7756 -0.0762 0.6266
vn -0.1962 -0.0078 0.9805
vn 0.1701 0.0174 0.9853
vn 0.3367 -0.0066 0.9416
vn 0.4217 -0.0179 0.9066
vn -0.3069 0.0146 0.9516
vn 0.2319 0.0280 0.9723
vn -0.3707 0.0305 0.9283
vn 0.2990 0.0403 0.9534
vn -0.3814 0.0096 0.9244
vn 0.3651 0.0104 0.9309
vn -0.3474 -0.0610 0.9357
vn 0.4088 -0.0696 0.9100
vn 0.7682 -0.0658 0.6368
vn 0.9944 -0.0800 0.0691
vn 0.4363 -0.1475 0.8876
vn 0.7440 -0.1141 0.6583
vn 0.9925 -0.0936 0.0780
vn 0.4361 -0.0546 -0.8982
vn 0.4028 -0.0578 -0.9135
vn 0.9931 -0.1107 0.0389
vn 0.6785 -0.7234 -0.1280
vn -0.1602 -0.0178 -0.9869
vn -0.1795 -0.0106 -0.9837
vn -0.1973 -0.0236 -0.9801
vn 0.0199 -0.0150 -0.9997
vn 0.0491 -0.0219 -0.9986
vn -0.1986 -0.0338 -0.9795
vn -0.0040 -0.0210 -0.9998
vn -0.2807 -0.0307 -0.9593
vn -0.2658 -0.0131 -0.9639
vn -0.9776 -0.0521 -0.2039
vn -0.9805 -0.0302 -0.1941
vn -0.9646 -0.0161 -0.2631
vn -0.7893 -0.0687 0.6102
vn -0.9142 -0.0506 -0.4020
vn -0.8320 -0.0443 0.5531
vn -0.2257 -0.1390 0.9642
vn -0.8491 -0.0213 0.5278
vn -0.9500 -0.0516 -0.3080
vn -0.8560 -0.0193 0.5167
vn -0.9005 -0.0445 -0.4327
vn -0.1150 -0.0206 -0.9932
vn -0.8554 -0.0479 -0.5158
vn -0.0852 -0.0009 -0.9964
vn -0.0458 0.0020 -0.9989
vn -0.0341 -0.0141 -0.9993
vn -0.1224 0.0025 -0.9925
vn -0.1354 -0.0126 -0.9907
vn -0.0446 0.0306 -0.9985
vn -0.1154 0.0281 -0.9929
vn 0.4967 0.0314 -0.8673
vn -0.1157 0.0643 -0.9912
vn 0.4769 0.0952 -0.8738
vn 0.9587 0.0559 0.2790
vn 0.9657 -0.0105 0.2595
vn -0.0229 0.1578 -0.9872
vn -0.0425 0.0805 -0.9958
vn -0.1396 0.1129 -0.9838
vn -0.1442 0.0749 -0.9867
vn -0.1073 0.0364 -0.9936
vn -0.8624 -0.0361 -0.5049
vn -0.8339 -0.0422 0.5503
f 1/1/1 2/2/2 3/3/3 4/4/4
f 5/5/5 1/6/1 4/7/4 6/8/6
f 7/9/7 5/5/5 6/8/6 8/10/8
f 7/11/7 8/12/8 3/3/3 2/2/2
f 2/2/2 1/1/1 9/13/9 10/14/10
f 5/5/5 11/15/11 9/16/9 1/6/1
f 12/17/12 10/14/10 9/13/9 13/18/13
f 14/19/14 13/18/13 9/13/9 15/20/15
f 16/21/16 17/22/17 9/16/9 11/15/11
f 18/23/18 15/24/15 9/16/9 17/22/17
f 19/25/19 14/19/14 15/20/15 20/26/20
f 21/27/21 22/28/22 15/24/15 18/23/18
f 23/29/23 24/30/24 25/31/25 26/32/26
f 27/33/27 26/34/26 25/35/25 28/36/28
f 29/37/29 30/38/30 25/31/25 24/30/24
f 31/39/31 28/40/28 25/31/25 30/38/30
f 32/41/32 33/42/33 34/43/34 35/44/35
f 36/45/36 35/46/35 34/47/34 37/48/37
f 38/49/38 39/50/39 34/43/34 33/42/33
f 40/51/40 41/52/41 34/43/34 39/50/39
f 42/53/42 37/48/37 34/47/34 41/54/41
f 43/55/43 44/56/44 39/50/39 38/49/38
f 45/57/45 46/58/46 39/59/39 44/60/44
f 47/61/47 40/62/40 39/59/39 46/58/46
f 48/63/48 41/64/41 40/65/40 49/66/49
f 43/55/43 49/66/49 40/65/40 44/56/44
f 45/67/45 44/56/44 40/65/40 47/68/47
f 45/69/45 50/70/50 51/71/51 46/72/46
f 52/73/52 53/74/53 51/71/51 50/70/50
f 47/61/47 46/58/46 51/75/51 54/76/54
f 55/77/55 56/78/56 51/71/51 53/74/53
f 57/79/57 54/76/54 51/75/51 58/80/58
f 59/81/59 58/80/58 51/75/51 56/82/56
f 55/77/55 53/74/53 58/80/58 59/81/59
f 60/83/60 61/84/61 62/85/62 63/86/63
f 64/87/64 63/88/63 62/89/62 65/90/65
f 66/91/66 67/92/67 62/89/62 37/93/37
f 68/94/68 65/90/65 62/89/62 67/92/67
f 69/95/69 70/96/70 62/85/62 61/84/61
f 36/45/36 37/48/37 62/85/62 70/96/70
f 71/97/71 66/91/66 37/93/37 42/98/42
f 68/94/68 72/99/72 73/100/73 69/95/69
f 70/96/70 69/95/69 73/100/73 74/101/74
f 75/102/75 74/101/74 73/100/73 72/99/72
f 67/92/67 75/102/75 72/99/72 68/94/68
f 66/91/66 76/103/76 75/102/75 67/92/67
f 77/104/77 74/101/74 75/102/75 76/103/76
f 70/96/70 74/101/74 77/104/77 36/45/36
f 78/105/78 79/106/79 77/104/77 76/103/76
f 35/46/35 36/45/36 77/104/77 79/106/79
f 80/107/80 81/108/81 79/109/79 78/110/78
f 32/111/32 35/46/35 79/106/79 81/112/81
f 82/113/82 83/114/83 81/108/81 80/107/80
f 84/115/84 32/116/32 81/108/81 83/114/83
f 33/42/33 32/41/32 84/117/84 85/118/85
f 86/119/86 87/120/87 84/115/84 83/114/83
f 88/121/88 85/118/85 84/117/84 87/122/87
f 89/123/89 85/118/85 88/121/88 90/124/90
f 91/125/91 92/126/92 88/121/88 87/122/87
f 31/39/31 90/124/90 88/121/88 92/126/92
f 93/127/93 94/128/94 92/129/92 91/130/91
f 28/40/28 31/39/31 92/126/92 94/131/94
f 95/132/95 96/133/96 94/128/94 93/127/93
f 27/33/27 28/36/28 94/128/94 96/133/96
f 97/134/97 98/135/98 96/133/96 95/132/95
f 99/136/99 27/33/27 96/133/96 98/135/98
f 26/34/26 27/33/27 99/136/99 100/137/100
f 101/138/101 102/139/102 99/136/99 98/135/98
f 103/140/103 100/137/100 99/136/99 102/139/102
f 104/141/104 100/142/100 103/143/103 105/144/105
f 19/25/19 106/145/106 103/140/103 102/139/102
f 21/27/21 105/144/105 103/143/103 106/146/106
f 20/26/20 107/147/107 106/145/106 19/25/19
f 22/28/22 21/27/21 106/146/106 107/148/107
f 108/149/108 23/29/23 104/141/104 109/150/109
f 26/32/26 100/142/100 104/141/104 23/29/23
f 110/151/110 109/150/109 104/141/104 105/144/105
f 111/152/111 109/150/109 110/151/110 112/153/112
f 21/27/21 18/23/18 110/151/110 105/144/105
f 17/22/17 112/153/112 110/151/110 18/23/18
f 113/154/113 114/155/114 111/152/111 115/156/115
f 108/149/108 109/150/109 111/152/111 114/155/114
f 116/157/116 115/156/115 111/152/111 112/153/112
f 117/158/117 115/156/115 116/157/116 118/159/118
f 17/22/17 16/21/16 116/157/116 112/153/112
f 119/160/119 118/159/118 116/157/116 16/21/16
f 120/161/120 118/162/118 119/163/119 12/17/12
f 11/15/11 121/164/121 119/160/119 16/21/16
f 10/14/10 12/17/12 119/163/119 121/165/121
f 5/5/5 7/9/7 121/164/121 11/15/11
f 2/2/2 10/14/10 121/165/121 7/11/7
f 97/134/97 122/166/122 120/161/120 123/167/123
f 117/158/117 118/159/118 120/168/120 122/169/122
f 13/18/13 123/167/123 120/161/120 12/17/12
f 95/132/95 124/170/124 122/166/122 97/134/97
f 125/171/125 117/158/117 122/169/122 124/172/124
f 126/173/126 127/174/127 125/171/125 124/172/124
f 128/175/128 113/154/113 125/171/125 127/174/127
f 115/156/115 117/158/117 125/171/125 113/154/113
f 129/176/129 130/177/130 128/175/128 127/174/127
f 131/178/131 132/179/132 128/175/128 130/177/130
f 114/155/114 113/154/113 128/175/128 132/179/132
f 133/180/133 134/181/134 132/179/132 131/178/131
f 108/149/108 114/155/114 132/179/132 134/181/134
f 29/37/29 24/30/24 134/181/134 133/180/133
f 23/29/23 108/149/108 134/181/134 24/30/24
f 135/182/135 136/183/136 133/180/133 131/178/131
f 137/184/137 29/37/29 133/180/133 136/183/136
f 138/185/138 139/186/139 137/184/137 136/183/136
f 140/187/140 141/188/141 137/184/137 139/186/139
f 30/38/30 29/37/29 137/184/137 141/188/141
f 89/123/89 90/124/90 141/188/141 140/187/140
f 31/39/31 30/38/30 141/188/141 90/124/90
f 49/66/49 43/55/43 140/187/140 139/186/139
f 38/49/38 89/123/89 140/187/140 43/55/43
f 48/63/48 49/66/49 139/186/139 138/185/138
f 142/189/142 48/63/48 138/185/138 143/190/143
f 135/182/135 143/190/143 138/185/138 136/183/136
f 71/191/71 42/192/42 142/189/142 144/193/144
f 41/64/41 48/63/48 142/189/142 42/192/42
f 145/194/145 144/193/144 142/189/142 143/190/143
f 80/107/80 144/193/144 145/194/145 82/113/82
f 135/182/135 146/195/146 145/194/145 143/190/143
f 147/196/147 82/113/82 145/194/145 146/195/146
f 83/114/83 82/113/82 147/196/147 86/119/86
f 130/177/130 129/176/129 147/196/147 146/195/146
f 148/197/148 86/119/86 147/196/147 129/176/129
f 87/120/87 86/119/86 148/197/148 91/198/91
f 127/174/127 126/173/126 148/197/148 129/176/129
f 93/199/93 91/198/91 148/197/148 126/173/126
f 131/178/131 130/177/130 146/195/146 135/182/135
f 78/110/78 71/191/71 144/193/144 80/107/80
f 95/200/95 93/199/93 126/173/126 124/172/124
f 98/135/98 97/134/97 123/167/123 101/138/101
f 14/19/14 101/138/101 123/167/123 13/18/13
f 14/19/14 19/25/19 102/139/102 101/138/101
f 33/42/33 85/118/85 89/123/89 38/49/38
f 66/91/66 71/97/71 78/105/78 76/103/76
f 65/90/65 68/94/68 69/95/69 61/84/61
f 56/82/56 63/88/63 64/87/64 59/81/59
f 61/84/61 60/83/60 64/87/64 65/90/65
f 55/77/55 59/81/59 64/87/64 60/83/60
f 56/78/56 55/77/55 60/83/60 63/86/63
f 50/70/50 54/76/54 57/79/57 52/73/52
f 45/69/45 47/61/47 54/76/54 50/70/50
f 52/73/52 57/79/57 58/80/58 53/74/53
f 4/4/4 3/3/3 8/12/8 6/201/6
f 22/28/22 107/148/107 15/24/15
f 15/20/15 107/147/107 20/26/20
