# split from a merged terrain OBJ by scripts/split-terrain-obj-parts.py
o part-008
v -0.156893 1.164745 -0.089764
v -0.157151 1.158702 -0.089679
v -0.167352 1.158832 -0.099164
v -0.167650 1.163585 -0.098902
v -0.173631 1.162213 -0.104379
v -0.171712 1.156535 -0.104178
v -0.158876 1.154064 -0.089853
v -0.131454 1.144695 -0.008050
v -0.137540 1.146630 -0.012399
v -0.133821 1.146407 -0.020348
v -0.127519 1.145861 -0.020648
v -0.132945 1.146771 -0.033416
v -0.139016 1.147379 -0.028422
v -0.146243 1.148095 -0.019631
v -0.124787 1.197463 0.030683
v -0.127872 1.202058 0.031107
v -0.135367 1.201591 0.044817
v -0.134430 1.198129 0.045716
v -0.142014 1.201143 0.054013
v -0.141085 1.203380 0.048494
v -0.132741 1.204352 0.030696
v -0.146246 1.204147 0.046428
v -0.148368 1.203714 0.052007
v -0.147135 1.196792 0.068493
v -0.140685 1.195419 0.055639
v -0.148813 1.202546 0.067036
v -0.133028 1.192979 0.044750
v -0.153919 1.203115 0.063398
v -0.169087 1.156226 0.089959
v -0.175124 1.156714 0.092619
v -0.175274 1.150578 0.091212
v -0.171146 1.148636 0.088702
v -0.181286 1.156512 0.090951
v -0.179582 1.148886 0.089878
v -0.175256 1.143804 0.086570
v -0.179091 1.160963 -0.108462
v -0.176907 1.153112 -0.102063
v -0.161357 1.151677 -0.087640
v -0.190519 1.153915 -0.103266
v -0.187536 1.155365 -0.110005
v -0.178974 1.152661 -0.094462
v -0.186419 1.160520 -0.114423
v -0.177766 1.201327 0.078728
v -0.182021 1.200234 0.082439
v -0.177784 1.199488 0.086144
v -0.173501 1.199608 0.083656
v -0.170839 1.197678 0.087771
v -0.177631 1.197603 0.088763
v -0.184349 1.197612 0.084951
v -0.150376 1.210632 -0.050979
v -0.155284 1.209992 -0.041909
v -0.146185 1.208858 -0.034039
v -0.139006 1.208683 -0.037531
v -0.158898 1.209519 -0.029140
v -0.145366 1.208268 -0.025027
v -0.134839 1.207997 -0.024652
v -0.186997 1.167483 -0.115747
v -0.193976 1.160785 -0.118437
v -0.194733 1.166140 -0.120272
v -0.196641 1.157483 -0.115842
v -0.201859 1.163873 -0.118953
v -0.194749 1.203087 0.069544
v -0.200441 1.202955 0.057625
v -0.203227 1.197992 0.058179
v -0.199549 1.199727 0.071444
v -0.202260 1.193816 0.072939
v -0.204045 1.190683 0.062178
v -0.211633 1.191225 0.057995
v -0.210065 1.198653 0.055650
v -0.206338 1.202802 0.051171
v -0.198983 1.161994 0.074287
v -0.200940 1.169818 0.072480
v -0.207371 1.166872 0.070133
v -0.207546 1.159639 0.070776
v -0.203678 1.178890 0.067428
v -0.210895 1.174974 0.060398
v -0.216605 1.164671 0.060087
v -0.200200 1.205175 -0.122001
v -0.201650 1.215680 -0.121475
v -0.197396 1.214954 -0.123854
v -0.194602 1.204917 -0.121258
v -0.187996 1.204303 -0.116980
v -0.191337 1.212462 -0.116781
v -0.195337 1.216734 -0.114971
v -0.222372 1.185407 0.051568
v -0.222724 1.177561 0.049991
v -0.210942 1.184881 0.058435
v -0.204311 1.185306 0.064224
v -0.195016 1.208760 0.003140
v -0.207005 1.209633 0.000277
v -0.202486 1.208216 0.008653
v -0.195945 1.207488 0.014041
v -0.214106 1.207720 0.000879
v -0.205242 1.207275 0.010523
v -0.196832 1.207245 0.017799
v -0.198928 1.218314 -0.093073
v -0.207208 1.220199 -0.103437
v -0.212256 1.219945 -0.095352
v -0.207726 1.218806 -0.087024
v -0.222312 1.218927 -0.077302
v -0.230166 1.220485 -0.086217
v -0.207627 1.210932 -0.011327
v -0.216302 1.210096 -0.011743
v -0.209789 1.208396 0.015083
v -0.218554 1.208850 0.007503
v -0.212773 1.213388 -0.108192
v -0.217292 1.210792 -0.100743
v -0.228412 1.210182 -0.088098
v -0.220849 1.149436 0.007010
v -0.225989 1.149551 0.015068
v -0.230799 1.147310 0.009939
v -0.228833 1.146669 0.001904
v -0.231936 1.149341 0.019121
v -0.236429 1.147476 0.011557
v -0.237390 1.146870 -0.000328
v -0.226852 1.209978 0.000258
v -0.225613 1.208488 0.009446
v -0.214547 1.207953 0.019906
v -0.216091 1.217428 -0.071056
v -0.205202 1.217710 -0.075877
v -0.201500 1.215464 -0.060232
v -0.217086 1.216174 -0.058521
v -0.230689 1.216892 -0.060027
v -0.239868 1.214159 -0.045497
v -0.230683 1.215004 -0.045785
v -0.240585 1.215714 -0.055844
v -0.244620 1.213346 -0.057548
v -0.242578 1.216778 -0.063286
v -0.245956 1.209391 -0.057006
v -0.248642 1.210007 -0.046317
v -0.245345 1.213030 -0.042072
v -0.189494 1.216263 -0.077952
v -0.193697 1.217944 -0.098890
v -0.182817 1.216070 -0.087732
v -0.188330 1.214594 -0.060639
v -0.164456 1.213237 -0.073613
v -0.168193 1.213292 -0.065787
v -0.171672 1.212703 -0.053414
v -0.188772 1.212664 -0.040087
v -0.175079 1.211388 -0.036038
v -0.191793 1.211074 -0.022134
v -0.178348 1.209816 -0.018119
v -0.161750 1.207592 -0.012753
v -0.147095 1.204636 -0.009774
v -0.181491 1.208656 -0.004588
v -0.165365 1.204678 0.002050
v -0.151904 1.202151 0.006763
v -0.136569 1.205746 -0.007683
v -0.142685 1.202673 0.009485
v -0.168786 1.205494 0.015718
v -0.157548 1.205451 0.020426
v -0.149720 1.205333 0.023646
v -0.134851 1.203783 0.011316
v -0.142856 1.205030 0.026352
v -0.164281 1.205574 0.034667
v -0.157386 1.205031 0.039259
v -0.151511 1.204554 0.043268
v -0.137531 1.204770 0.028653
v -0.160318 1.204468 0.045669
v -0.154098 1.204009 0.049483
v -0.165348 1.204086 0.054333
v -0.159045 1.203508 0.059409
v -0.171286 1.203699 0.062017
v -0.165328 1.202957 0.068028
v -0.160614 1.202190 0.072819
v -0.156443 1.201148 0.077154
v -0.171953 1.202281 0.074242
v -0.167491 1.201150 0.079433
v -0.163711 1.199268 0.084209
v -0.154144 1.195754 0.078643
v -0.161067 1.194524 0.086268
v -0.169687 1.194128 0.089124
v -0.160825 1.188840 0.085975
v -0.169023 1.189209 0.089256
v -0.177836 1.194028 0.089996
v -0.177338 1.189179 0.090490
v -0.168502 1.182771 0.089526
v -0.176575 1.182859 0.091348
v -0.185514 1.193958 0.087289
v -0.185555 1.188808 0.088555
v -0.184628 1.181861 0.089604
v -0.175579 1.174524 0.091686
v -0.182580 1.173829 0.089811
v -0.193654 1.188192 0.083162
v -0.192028 1.181001 0.084551
v -0.188935 1.172921 0.085097
v -0.181754 1.164968 0.090512
v -0.187318 1.164221 0.086231
v -0.199188 1.180331 0.076883
v -0.195313 1.171947 0.079281
v -0.193515 1.163327 0.081233
v -0.186152 1.156009 0.086681
v -0.192258 1.155432 0.081769
v -0.198343 1.155137 0.074669
v -0.205194 1.148635 0.067651
v -0.197330 1.148173 0.074658
v -0.206296 1.154178 0.069449
v -0.190323 1.148291 0.081001
v -0.193814 1.142847 0.071752
v -0.186306 1.143120 0.077795
v -0.180420 1.142989 0.082687
v -0.184520 1.148641 0.085821
v -0.181285 1.140864 0.073281
v -0.174856 1.141171 0.077785
v -0.169147 1.142313 0.082117
v -0.169289 1.141649 0.070857
v -0.163955 1.143598 0.074048
v -0.161154 1.148855 0.076360
v -0.166575 1.148183 0.083585
v -0.160024 1.155925 0.077731
v -0.164645 1.155843 0.084719
v -0.158058 1.164556 0.078507
v -0.162802 1.165171 0.085154
v -0.168268 1.165513 0.090443
v -0.161444 1.174530 0.084653
v -0.167994 1.174798 0.090664
v -0.175145 1.165484 0.092395
v -0.160760 1.182283 0.084930
v -0.155973 1.174339 0.077212
v -0.154417 1.182559 0.077175
v -0.153897 1.189350 0.077895
v -0.148610 1.183356 0.068403
v -0.147560 1.190273 0.068521
v -0.141883 1.183178 0.056694
v -0.141029 1.189684 0.056420
v -0.131969 1.181476 0.042859
v -0.132113 1.187359 0.043636
v -0.122045 1.180132 0.025941
v -0.122045 1.186170 0.027384
v -0.122832 1.191953 0.028976
v -0.114823 1.186783 0.010336
v -0.115623 1.192473 0.011670
v -0.116902 1.197780 0.012609
v -0.104552 1.192718 -0.008300
v -0.106171 1.198540 -0.007105
v -0.110106 1.203277 -0.006615
v -0.119191 1.202184 0.013625
v -0.115593 1.205434 -0.006562
v -0.123771 1.203819 0.013023
v -0.121367 1.206237 -0.007016
v -0.129171 1.204234 0.012380
v -0.128238 1.206444 -0.007038
v -0.120653 1.206758 -0.028655
v -0.127210 1.207423 -0.026274
v -0.128305 1.207921 -0.046032
v -0.133069 1.208381 -0.042204
v -0.142431 1.210234 -0.061951
v -0.145943 1.210612 -0.057270
v -0.160658 1.212972 -0.078457
v -0.172905 1.214650 -0.097692
v -0.177713 1.215585 -0.093082
v -0.156886 1.211859 -0.083460
v -0.138906 1.209409 -0.066577
v -0.154280 1.207988 -0.087184
v -0.136387 1.206149 -0.070488
v -0.123668 1.206826 -0.049917
v -0.120503 1.203986 -0.053348
v -0.136468 1.200190 -0.072213
v -0.119198 1.199206 -0.055083
v -0.114535 1.205679 -0.030713
v -0.108815 1.203620 -0.031904
v -0.105101 1.199045 -0.032970
v -0.119380 1.193197 -0.056013
v -0.104243 1.192646 -0.034321
v -0.138441 1.186848 -0.073868
v -0.137384 1.193866 -0.073127
v -0.120524 1.186750 -0.056782
v -0.105290 1.186232 -0.035529
v -0.121695 1.179237 -0.057498
v -0.106717 1.179402 -0.037031
v -0.104452 1.186463 -0.009577
v -0.105093 1.179323 -0.011475
v -0.106779 1.171295 -0.038883
v -0.105571 1.171465 -0.013405
v -0.114363 1.179970 0.008743
v -0.114481 1.171594 0.007351
v -0.106134 1.163876 -0.014743
v -0.115057 1.163188 0.005745
v -0.121892 1.172407 0.024605
v -0.122407 1.162959 0.023800
v -0.116508 1.156850 0.003849
v -0.124503 1.155102 0.022466
v -0.133012 1.174687 0.042146
v -0.134165 1.166185 0.042111
v -0.136988 1.158189 0.041950
v -0.126792 1.149929 0.021054
v -0.141695 1.153414 0.040072
v -0.146978 1.167787 0.056292
v -0.148906 1.160190 0.056170
v -0.152196 1.154054 0.055025
v -0.146659 1.149274 0.037326
v -0.154622 1.148626 0.053223
v -0.156219 1.158388 0.068181
v -0.157290 1.151663 0.066572
v -0.158738 1.145831 0.064784
v -0.158539 1.143623 0.050865
v -0.163629 1.142641 0.062094
v -0.154795 1.145652 0.032060
v -0.150345 1.146959 0.035308
v -0.164561 1.143540 0.048260
v -0.170111 1.142832 0.059146
v -0.170159 1.142378 0.044654
v -0.177091 1.141580 0.055017
v -0.175754 1.141407 0.067262
v -0.183337 1.141173 0.062092
v -0.185971 1.142251 0.047894
v -0.192320 1.142280 0.054727
v -0.188824 1.141002 0.067272
v -0.197576 1.143157 0.059731
v -0.202689 1.143487 0.044671
v -0.208369 1.143745 0.049482
v -0.202350 1.144419 0.064354
v -0.213810 1.145209 0.053922
v -0.218474 1.144490 0.037073
v -0.223367 1.146816 0.041444
v -0.217062 1.150026 0.056771
v -0.225872 1.152679 0.044809
v -0.234581 1.162836 0.035030
v -0.233682 1.155155 0.033607
v -0.225767 1.160228 0.046840
v -0.230804 1.149528 0.030824
v -0.217413 1.156410 0.058468
v -0.224548 1.168506 0.048693
v -0.233473 1.179642 0.036343
v -0.234079 1.171216 0.035706
v -0.242736 1.180896 0.023245
v -0.242118 1.171905 0.023451
v -0.241978 1.163542 0.024179
v -0.249805 1.171680 0.011326
v -0.249710 1.163109 0.012069
v -0.247372 1.155126 0.012483
v -0.240653 1.155781 0.023731
v -0.242737 1.149399 0.012242
v -0.237174 1.150128 0.022306
v -0.226148 1.146563 0.026683
v -0.220515 1.145284 0.022044
v -0.212719 1.143900 0.032328
v -0.214095 1.145693 0.015093
v -0.205911 1.144287 0.025959
v -0.195753 1.144761 0.038297
v -0.198291 1.145663 0.017605
v -0.188221 1.144717 0.029283
v -0.178562 1.142859 0.038375
v -0.175513 1.144451 0.014048
v -0.166438 1.143617 0.022181
v -0.159254 1.143683 0.028468
v -0.149891 1.144241 0.002788
v -0.143445 1.144035 0.008831
v -0.138979 1.143067 0.012943
v -0.127420 1.144020 -0.005043
v -0.123125 1.144178 -0.002196
v -0.134191 1.142847 0.016455
v -0.119052 1.146338 0.001220
v -0.130460 1.144831 0.019097
v -0.117616 1.151125 0.002924
v -0.112877 1.148217 -0.017954
v -0.109341 1.152328 -0.016904
v -0.107293 1.157621 -0.015788
v -0.111037 1.151996 -0.040007
v -0.108888 1.158009 -0.040134
v -0.107772 1.164111 -0.039647
v -0.124198 1.157950 -0.059754
v -0.123381 1.164175 -0.059437
v -0.122687 1.171121 -0.058451
v -0.140805 1.164211 -0.076766
v -0.139986 1.171097 -0.075860
v -0.139606 1.178936 -0.074662
v -0.157009 1.171396 -0.089578
v -0.157175 1.179048 -0.088707
v -0.156388 1.187171 -0.089097
v -0.168968 1.178657 -0.098744
v -0.169029 1.187172 -0.099944
v -0.169205 1.195435 -0.100389
v -0.155471 1.194728 -0.088833
v -0.169677 1.202832 -0.100689
v -0.154652 1.201582 -0.088300
v -0.170244 1.209781 -0.100547
v -0.179712 1.203572 -0.109981
v -0.181460 1.211018 -0.110259
v -0.184610 1.216263 -0.107662
v -0.198919 1.218962 -0.112164
v -0.189144 1.217526 -0.103500
v -0.202975 1.219858 -0.108221
v -0.204900 1.215720 -0.117774
v -0.208554 1.214980 -0.113378
v -0.204467 1.205191 -0.118467
v -0.208133 1.204430 -0.113805
v -0.212331 1.202507 -0.108493
v -0.207321 1.192032 -0.114323
v -0.211931 1.189866 -0.108482
v -0.216927 1.186728 -0.100239
v -0.217034 1.199502 -0.100623
v -0.225686 1.185540 -0.089877
v -0.227033 1.198331 -0.089472
v -0.237505 1.185754 -0.071581
v -0.238719 1.196995 -0.070445
v -0.239650 1.207177 -0.067828
v -0.245520 1.194275 -0.057653
v -0.245782 1.202255 -0.057759
v -0.251433 1.192906 -0.044056
v -0.251043 1.199492 -0.045122
v -0.250359 1.205565 -0.045895
v -0.253005 1.200529 -0.027492
v -0.252716 1.206843 -0.028951
v -0.251913 1.211232 -0.030403
v -0.246503 1.213086 -0.030053
v -0.252985 1.206921 -0.008624
v -0.251191 1.211810 -0.008941
v -0.245358 1.211607 -0.010594
v -0.238222 1.213247 -0.028907
v -0.237229 1.211588 -0.011975
v -0.246029 1.207629 0.007511
v -0.240717 1.209381 0.004610
v -0.234701 1.209931 0.001826
v -0.227570 1.211476 -0.012429
v -0.234031 1.207788 0.017199
v -0.229650 1.208245 0.013184
v -0.223865 1.206663 0.029480
v -0.219207 1.207446 0.024726
v -0.213038 1.205833 0.039375
v -0.208571 1.206804 0.033644
v -0.204269 1.207262 0.028178
v -0.200169 1.207664 0.023000
v -0.198806 1.205759 0.041338
v -0.194421 1.206151 0.036686
v -0.190156 1.206499 0.031774
v -0.186923 1.205640 0.026796
v -0.185061 1.205326 0.047008
v -0.180132 1.205550 0.040975
v -0.175695 1.205776 0.034561
v -0.173201 1.206076 0.029147
v -0.167205 1.205069 0.040865
v -0.185700 1.206910 0.021728
v -0.172156 1.204771 0.048309
v -0.177694 1.204447 0.055613
v -0.190474 1.205108 0.051626
v -0.183644 1.204182 0.061680
v -0.177455 1.203207 0.068461
v -0.189264 1.203953 0.066129
v -0.183121 1.202552 0.073196
v -0.188099 1.201441 0.076812
v -0.191445 1.198563 0.080019
v -0.193798 1.194156 0.081889
v -0.201909 1.187387 0.075212
v -0.195753 1.204704 0.054954
v -0.202806 1.204917 0.046030
v -0.217143 1.203500 0.044701
v -0.228359 1.204639 0.033890
v -0.232135 1.200687 0.037222
v -0.220830 1.199943 0.049504
v -0.233417 1.194112 0.037846
v -0.222500 1.192809 0.051517
v -0.233453 1.187178 0.037253
v -0.243280 1.195284 0.023824
v -0.243439 1.188749 0.023580
v -0.251410 1.197382 0.008408
v -0.251844 1.190649 0.008676
v -0.251010 1.181853 0.009694
v -0.252633 1.192395 -0.007967
v -0.251678 1.183017 -0.006279
v -0.251066 1.172299 -0.004274
v -0.252013 1.184650 -0.024177
v -0.250509 1.174600 -0.022076
v -0.250883 1.164559 -0.020393
v -0.250795 1.162922 -0.003100
v -0.248987 1.155880 -0.019093
v -0.249812 1.154689 -0.002233
v -0.242870 1.150441 -0.016861
v -0.244675 1.148389 -0.001426
v -0.234886 1.148161 -0.013810
v -0.238948 1.151528 -0.034337
v -0.230496 1.149698 -0.030018
v -0.220894 1.148968 -0.024678
v -0.225701 1.147208 -0.009497
v -0.210826 1.149045 -0.018420
v -0.217238 1.149176 -0.003359
v -0.198969 1.146848 -0.008579
v -0.207764 1.147301 0.006233
v -0.186643 1.147149 0.003288
v -0.187428 1.148098 -0.027646
v -0.171085 1.147378 -0.015246
v -0.158411 1.145147 -0.004649
v -0.158528 1.148653 -0.029665
v -0.167614 1.149615 -0.053980
v -0.150085 1.149076 -0.039362
v -0.176553 1.149726 -0.043140
v -0.161427 1.149326 -0.060971
v -0.143750 1.148376 -0.045881
v -0.156227 1.149594 -0.066993
v -0.138507 1.148391 -0.051673
v -0.126782 1.146691 -0.035556
v -0.133793 1.148659 -0.055431
v -0.120778 1.146938 -0.037013
v -0.117770 1.146112 -0.019136
v -0.122961 1.145739 -0.020186
v -0.115557 1.148088 -0.038496
v -0.128960 1.149339 -0.058692
v -0.125458 1.152191 -0.060244
v -0.146398 1.150169 -0.074995
v -0.142890 1.152555 -0.077508
v -0.141478 1.158143 -0.077137
v -0.151378 1.149847 -0.070936
v -0.165983 1.151391 -0.082836
v -0.171258 1.151196 -0.078567
v -0.183665 1.152367 -0.088401
v -0.194934 1.153433 -0.096291
v -0.177752 1.151147 -0.073912
v -0.189692 1.152393 -0.082608
v -0.200209 1.153136 -0.089010
v -0.204068 1.154739 -0.102470
v -0.209148 1.154207 -0.094113
v -0.195746 1.152778 -0.075027
v -0.205615 1.153616 -0.079946
v -0.214565 1.154649 -0.083451
v -0.215946 1.158171 -0.098026
v -0.221008 1.159412 -0.086102
v -0.212121 1.152565 -0.064612
v -0.221089 1.155106 -0.066974
v -0.227862 1.161160 -0.068394
v -0.225612 1.165243 -0.089057
v -0.231642 1.169202 -0.069382
v -0.229796 1.154464 -0.050733
v -0.236479 1.160320 -0.053088
v -0.240657 1.167970 -0.053900
v -0.234722 1.176795 -0.070601
v -0.243988 1.175904 -0.054939
v -0.246120 1.156917 -0.037031
v -0.249704 1.165846 -0.038187
v -0.251108 1.175824 -0.040129
v -0.245492 1.185024 -0.056893
v -0.251456 1.184907 -0.042519
v -0.252742 1.193220 -0.026034
v -0.252973 1.200109 -0.008657
v -0.249839 1.203282 0.008486
v -0.242155 1.201055 0.023299
v -0.238759 1.206027 0.021017
v -0.225645 1.174505 -0.089510
v -0.217548 1.175086 -0.100202
v -0.217583 1.166025 -0.099414
v -0.211396 1.177960 -0.108119
v -0.211811 1.168192 -0.107620
v -0.210464 1.159629 -0.106700
v -0.206730 1.170596 -0.114324
v -0.205843 1.161831 -0.113540
v -0.199860 1.155502 -0.109572
v -0.202349 1.172292 -0.119621
v -0.195839 1.183210 -0.122053
v -0.195327 1.173599 -0.121464
v -0.202031 1.181962 -0.119298
v -0.206675 1.180359 -0.114001
v -0.203239 1.193178 -0.119092
v -0.197629 1.193951 -0.122271
v -0.191368 1.194635 -0.120209
v -0.189962 1.184598 -0.118233
v -0.188324 1.175293 -0.116777
v -0.185721 1.195184 -0.115555
v -0.183887 1.185759 -0.113393
v -0.182223 1.176724 -0.111542
v -0.180505 1.168482 -0.110320
v -0.177079 1.186630 -0.107145
v -0.176093 1.177801 -0.105332
v -0.174472 1.169679 -0.104914
v -0.167927 1.170746 -0.098879
v -0.178453 1.195464 -0.108896
v -0.221564 1.151246 -0.046978
v -0.203064 1.151693 -0.061145
v -0.212692 1.150101 -0.042558
v -0.192341 1.150598 -0.054936
v -0.201781 1.150028 -0.036881
v -0.183519 1.151409 -0.066709
v -0.182963 1.207669 0.008934
v -0.193621 1.209894 -0.009127
v -0.205060 1.212045 -0.024800
v -0.215962 1.214366 -0.042617
v -0.216086 1.212227 -0.026051
v -0.201215 1.213199 -0.041463
v -0.228154 1.212988 -0.027535
v -0.153578 1.165702 0.069039
v -0.143946 1.176113 0.056569
v -0.150666 1.175138 0.068711
vt 0.342236 0.660918
vt 0.342108 0.657683
vt 0.349381 0.657597
vt 0.350168 0.660383
vt 0.354301 0.658532
vt 0.352677 0.655820
vt 0.342665 0.655043
vt 0.302403 0.631960
vt 0.306313 0.631197
vt 0.307751 0.635918
vt 0.305463 0.638376
vt 0.312039 0.641522
vt 0.312664 0.637367
vt 0.312219 0.631242
vt 0.860814 0.448778
vt 0.858017 0.449810
vt 0.852667 0.443540
vt 0.854020 0.442046
vt 0.847871 0.439693
vt 0.849036 0.443049
vt 0.855290 0.450746
vt 0.846455 0.444418
vt 0.844675 0.441790
vt 0.844252 0.431898
vt 0.849992 0.437125
vt 0.842199 0.434305
vt 0.856496 0.440538
vt 0.840434 0.436825
vt 0.278804 0.578115
vt 0.280448 0.573890
vt 0.282764 0.575635
vt 0.281887 0.579033
vt 0.285220 0.571209
vt 0.285498 0.574962
vt 0.285091 0.578616
vt 0.357893 0.656453
vt 0.354151 0.652270
vt 0.342778 0.652751
vt 0.360027 0.647645
vt 0.361333 0.651439
vt 0.352231 0.648629
vt 0.362911 0.654794
vt 0.825916 0.432028
vt 0.823338 0.430766
vt 0.825133 0.428557
vt 0.827743 0.429306
vt 0.828644 0.426600
vt 0.825008 0.426693
vt 0.821673 0.429327
vt 0.855936 0.495608
vt 0.852162 0.491519
vt 0.855878 0.486255
vt 0.860035 0.487241
vt 0.848707 0.485393
vt 0.854924 0.481493
vt 0.860413 0.480055
vt 0.365142 0.657567
vt 0.367317 0.652744
vt 0.369844 0.653923
vt 0.367040 0.649910
vt 0.371278 0.649440
vt 0.818579 0.439044
vt 0.816424 0.445602
vt 0.813466 0.444966
vt 0.815764 0.438156
vt 0.812994 0.436915
vt 0.810648 0.441770
vt 0.807704 0.444702
vt 0.810714 0.447568
vt 0.813950 0.449553
vt 0.300410 0.566741
vt 0.302941 0.562670
vt 0.306211 0.565067
vt 0.305162 0.568489
vt 0.308306 0.558504
vt 0.313989 0.561464
vt 0.313655 0.567307
vt 0.841308 0.542276
vt 0.839047 0.537935
vt 0.842303 0.538253
vt 0.846415 0.539888
vt 0.849082 0.536450
vt 0.844776 0.534928
vt 0.841140 0.534242
vt 0.324313 0.559360
vt 0.323397 0.562910
vt 0.316821 0.557046
vt 0.310847 0.556461
vt 0.826512 0.472595
vt 0.821170 0.475800
vt 0.821985 0.470726
vt 0.824631 0.467084
vt 0.817195 0.475980
vt 0.820292 0.469943
vt 0.823630 0.465256
vt 0.835361 0.523596
vt 0.832542 0.530064
vt 0.828743 0.526719
vt 0.830197 0.521505
vt 0.821606 0.518340
vt 0.818550 0.523556
vt 0.821943 0.481795
vt 0.817584 0.482838
vt 0.817278 0.468225
vt 0.813889 0.473183
vt 0.829521 0.534471
vt 0.825013 0.532401
vt 0.816461 0.528587
vt 0.331501 0.594003
vt 0.330784 0.588988
vt 0.334632 0.589308
vt 0.336672 0.593142
vt 0.331722 0.585278
vt 0.336305 0.586686
vt 0.340747 0.590965
vt 0.810612 0.477945
vt 0.809904 0.473096
vt 0.814137 0.466418
vt 0.824002 0.514147
vt 0.830165 0.515409
vt 0.830074 0.506799
vt 0.822151 0.507675
vt 0.815554 0.510015
vt 0.809318 0.503452
vt 0.814016 0.502554
vt 0.810093 0.508986
vt 0.807804 0.510344
vt 0.810183 0.513053
vt 0.805673 0.510985
vt 0.804111 0.505127
vt 0.806136 0.502342
vt 0.838591 0.514346
vt 0.839023 0.525769
vt 0.843366 0.518632
vt 0.836794 0.505196
vt 0.851074 0.508844
vt 0.848158 0.505268
vt 0.844734 0.499346
vt 0.834470 0.494575
vt 0.841011 0.490856
vt 0.830999 0.485556
vt 0.837218 0.481779
vt 0.845265 0.477131
vt 0.852319 0.473561
vt 0.834356 0.475142
vt 0.841818 0.469557
vt 0.848016 0.465424
vt 0.857469 0.471380
vt 0.852473 0.462937
vt 0.838480 0.462787
vt 0.843636 0.458886
vt 0.847317 0.456252
vt 0.856260 0.461044
vt 0.850599 0.454097
vt 0.838410 0.452508
vt 0.841383 0.449248
vt 0.844009 0.446487
vt 0.853132 0.452335
vt 0.839091 0.446408
vt 0.841927 0.443694
vt 0.835428 0.442735
vt 0.838143 0.439369
vt 0.831379 0.439671
vt 0.833743 0.435866
vt 0.835646 0.432838
vt 0.837433 0.430130
vt 0.829525 0.433544
vt 0.831153 0.430463
vt 0.832796 0.427910
vt 0.839352 0.427382
vt 0.834489 0.424836
vt 0.829019 0.424257
vt 0.835796 0.422184
vt 0.829978 0.421755
vt 0.824399 0.424865
vt 0.823717 0.422298
vt 0.831051 0.418584
vt 0.824542 0.419455
vt 0.820582 0.427362
vt 0.819225 0.425351
vt 0.817954 0.422013
vt 0.825070 0.415769
vt 0.818870 0.418321
vt 0.814879 0.428918
vt 0.813283 0.426244
vt 0.812460 0.421513
vt 0.284671 0.567834
vt 0.284224 0.564794
vt 0.290913 0.562725
vt 0.289891 0.566651
vt 0.809851 0.429833
vt 0.808609 0.425847
vt 0.295381 0.566148
vt 0.297328 0.561965
vt 0.289602 0.570121
vt 0.294083 0.570105
vt 0.299237 0.570381
vt 0.304050 0.574441
vt 0.298334 0.574231
vt 0.304457 0.571363
vt 0.293263 0.573892
vt 0.297483 0.578075
vt 0.292443 0.578003
vt 0.288443 0.578167
vt 0.289096 0.574082
vt 0.291760 0.581820
vt 0.287808 0.582483
vt 0.284137 0.582968
vt 0.288010 0.587105
vt 0.284796 0.587751
vt 0.281583 0.588080
vt 0.281167 0.583248
vt 0.278126 0.588490
vt 0.277968 0.582360
vt 0.274169 0.589532
vt 0.274413 0.582246
vt 0.275598 0.576784
vt 0.271632 0.580737
vt 0.271843 0.575758
vt 0.825429 0.411250
vt 0.829370 0.410752
vt 0.831978 0.414888
vt 0.278749 0.571229
vt 0.279269 0.566346
vt 0.837904 0.419191
vt 0.839534 0.416138
vt 0.846321 0.418737
vt 0.843993 0.422231
vt 0.841863 0.424806
vt 0.848687 0.426563
vt 0.846540 0.429493
vt 0.853993 0.432126
vt 0.851903 0.434705
vt 0.861923 0.437665
vt 0.859384 0.439341
vt 0.869967 0.445517
vt 0.867090 0.446860
vt 0.864128 0.447860
vt 0.873103 0.455216
vt 0.870071 0.456137
vt 0.867207 0.457083
vt 0.877854 0.466369
vt 0.874640 0.466989
vt 0.871444 0.467505
vt 0.864504 0.457913
vt 0.868366 0.468242
vt 0.862011 0.458941
vt 0.865366 0.469174
vt 0.859220 0.459988
vt 0.861782 0.470077
vt 0.868407 0.480287
vt 0.864614 0.480001
vt 0.866828 0.490205
vt 0.863710 0.488987
vt 0.861726 0.500159
vt 0.859121 0.498308
vt 0.853822 0.510868
vt 0.850053 0.522489
vt 0.846788 0.520757
vt 0.856642 0.512949
vt 0.864411 0.501936
vt 0.859448 0.514669
vt 0.866991 0.503664
vt 0.869990 0.491453
vt 0.872719 0.492767
vt 0.869891 0.505440
vt 0.875461 0.493759
vt 0.871967 0.480477
vt 0.875344 0.480255
vt 0.878670 0.480276
vt 0.878601 0.494994
vt 0.881963 0.480593
vt 0.876204 0.509070
vt 0.872791 0.507328
vt 0.881882 0.496235
vt 0.885454 0.481154
vt 0.885825 0.497377
vt 0.888830 0.481650
vt 0.880931 0.465700
vt 0.884807 0.465492
vt 0.299237 0.660582
vt 0.296270 0.663360
vt 0.284290 0.651532
vt 0.287946 0.649960
vt 0.876698 0.454329
vt 0.281354 0.637474
vt 0.278637 0.640676
vt 0.291093 0.647886
vt 0.285385 0.636185
vt 0.873354 0.443516
vt 0.879773 0.451369
vt 0.281737 0.625193
vt 0.278041 0.628192
vt 0.288652 0.635220
vt 0.285733 0.624071
vt 0.864658 0.435586
vt 0.867059 0.432018
vt 0.875548 0.439560
vt 0.283332 0.611284
vt 0.279253 0.612787
vt 0.288569 0.623192
vt 0.286902 0.610017
vt 0.277055 0.602613
vt 0.280796 0.601647
vt 0.284189 0.600690
vt 0.290474 0.608849
vt 0.287374 0.599839
vt 0.279392 0.594374
vt 0.282546 0.593956
vt 0.285651 0.593401
vt 0.290829 0.598844
vt 0.288859 0.592564
vt 0.296027 0.607821
vt 0.293060 0.608499
vt 0.294116 0.597763
vt 0.292355 0.591471
vt 0.297636 0.597115
vt 0.296648 0.590662
vt 0.291719 0.586223
vt 0.296504 0.585813
vt 0.302705 0.590189
vt 0.302764 0.585271
vt 0.296869 0.581738
vt 0.303133 0.581377
vt 0.310413 0.585567
vt 0.311121 0.581834
vt 0.303616 0.577729
vt 0.311853 0.578236
vt 0.319639 0.583078
vt 0.320319 0.579525
vt 0.312806 0.574975
vt 0.320915 0.575759
vt 0.329682 0.573279
vt 0.328332 0.577215
vt 0.321601 0.571793
vt 0.327258 0.580768
vt 0.313209 0.571513
vt 0.322300 0.567389
vt 0.333315 0.565342
vt 0.331400 0.569203
vt 0.342478 0.568136
vt 0.339581 0.571713
vt 0.336654 0.575071
vt 0.347344 0.574901
vt 0.344699 0.578274
vt 0.341278 0.581165
vt 0.334517 0.578926
vt 0.338591 0.584022
vt 0.332814 0.582176
vt 0.326438 0.584423
vt 0.325649 0.588256
vt 0.318868 0.586969
vt 0.325668 0.593285
vt 0.318515 0.591872
vt 0.310060 0.590573
vt 0.318462 0.597882
vt 0.310280 0.596790
vt 0.303196 0.596594
vt 0.310787 0.607253
vt 0.304325 0.607329
vt 0.299237 0.607448
vt 0.305209 0.620877
vt 0.300561 0.620995
vt 0.297345 0.621115
vt 0.299801 0.632368
vt 0.297200 0.632978
vt 0.294230 0.621666
vt 0.294164 0.633486
vt 0.291744 0.622268
vt 0.291443 0.634172
vt 0.298779 0.643027
vt 0.296377 0.644651
vt 0.293778 0.646193
vt 0.305580 0.652685
vt 0.303888 0.655581
vt 0.301839 0.658196
vt 0.317366 0.658405
vt 0.316384 0.661568
vt 0.314887 0.665075
vt 0.330556 0.662005
vt 0.329693 0.665564
vt 0.880096 0.511011
vt 0.889157 0.499955
vt 0.883896 0.512163
vt 0.311683 0.668003
vt 0.342338 0.664365
vt 0.342877 0.668181
vt 0.330966 0.668845
vt 0.869365 0.520733
vt 0.873429 0.522436
vt 0.869092 0.530427
vt 0.864566 0.528965
vt 0.860394 0.527222
vt 0.865733 0.518681
vt 0.856621 0.525687
vt 0.862462 0.516678
vt 0.853100 0.524101
vt 0.852569 0.531837
vt 0.848692 0.530561
vt 0.845225 0.529145
vt 0.838396 0.533167
vt 0.842102 0.527612
vt 0.835394 0.531902
vt 0.836280 0.536972
vt 0.832865 0.536220
vt 0.836340 0.542109
vt 0.831853 0.541062
vt 0.826293 0.539208
vt 0.385573 0.644386
vt 0.384357 0.639467
vt 0.389682 0.640184
vt 0.390868 0.643991
vt 0.383201 0.632496
vt 0.388413 0.635921
vt 0.821894 0.537793
vt 0.807196 0.537200
vt 0.812116 0.532920
vt 0.815702 0.541707
vt 0.798328 0.525525
vt 0.803331 0.522250
vt 0.806976 0.518389
vt 0.798735 0.514975
vt 0.802482 0.513192
vt 0.794793 0.507368
vt 0.798313 0.506662
vt 0.801647 0.505978
vt 0.795443 0.497202
vt 0.798919 0.497032
vt 0.801464 0.497160
vt 0.804333 0.496252
vt 0.796833 0.486376
vt 0.799559 0.486103
vt 0.802706 0.485992
vt 0.808403 0.494545
vt 0.807003 0.485614
vt 0.799442 0.477011
vt 0.802780 0.477647
vt 0.806343 0.478154
vt 0.811944 0.484534
vt 0.804317 0.470429
vt 0.807234 0.471738
vt 0.807837 0.462938
vt 0.811021 0.464659
vt 0.812033 0.456847
vt 0.815364 0.458837
vt 0.818352 0.460900
vt 0.821188 0.463030
vt 0.819463 0.453627
vt 0.822414 0.455404
vt 0.825287 0.457373
vt 0.827746 0.459562
vt 0.826090 0.449082
vt 0.829431 0.451443
vt 0.832513 0.454149
vt 0.834558 0.456543
vt 0.836109 0.449777
vt 0.829161 0.462112
vt 0.832623 0.446683
vt 0.828818 0.443769
vt 0.822608 0.447472
vt 0.824981 0.441575
vt 0.827337 0.437263
vt 0.821489 0.440227
vt 0.823808 0.435635
vt 0.820906 0.434322
vt 0.818591 0.432753
vt 0.816549 0.431221
vt 0.810662 0.433908
vt 0.808961 0.439562
vt 0.807023 0.434978
vt 0.819327 0.446496
vt 0.816636 0.451808
vt 0.809160 0.454474
vt 0.804776 0.461273
vt 0.801779 0.459691
vt 0.806199 0.452289
vt 0.798446 0.458319
vt 0.802965 0.450053
vt 0.335113 0.561913
vt 0.326230 0.556322
vt 0.336862 0.558883
vt 0.318678 0.554308
vt 0.346335 0.562364
vt 0.344919 0.565012
vt 0.357219 0.565582
vt 0.355261 0.568564
vt 0.351584 0.571524
vt 0.363784 0.574380
vt 0.359756 0.577348
vt 0.355033 0.580135
vt 0.366330 0.585593
vt 0.361602 0.588033
vt 0.357118 0.590563
vt 0.350968 0.583365
vt 0.352946 0.593055
vt 0.347445 0.586140
vt 0.348870 0.595154
vt 0.344019 0.588740
vt 0.344438 0.597190
vt 0.353270 0.603445
vt 0.348425 0.605135
vt 0.342694 0.606558
vt 0.339156 0.598821
vt 0.336430 0.607680
vt 0.333359 0.599407
vt 0.328239 0.608073
vt 0.326236 0.599093
vt 0.319127 0.607681
vt 0.330460 0.619824
vt 0.319874 0.620662
vt 0.311188 0.620763
vt 0.320482 0.630983
vt 0.332934 0.637241
vt 0.320888 0.637819
vt 0.332294 0.629793
vt 0.333105 0.642213
vt 0.320759 0.642646
vt 0.333273 0.646455
vt 0.320725 0.646770
vt 0.310380 0.644570
vt 0.320167 0.649913
vt 0.308605 0.647328
vt 0.301225 0.641500
vt 0.303555 0.639852
vt 0.307101 0.649876
vt 0.319399 0.653005
vt 0.318494 0.655451
vt 0.332258 0.653176
vt 0.331848 0.655773
vt 0.331161 0.658844
vt 0.332755 0.649770
vt 0.342883 0.649137
vt 0.343386 0.645522
vt 0.351874 0.644605
vt 0.359124 0.643315
vt 0.344202 0.641333
vt 0.352024 0.640149
vt 0.358442 0.638558
vt 0.364933 0.642065
vt 0.363711 0.637079
vt 0.351553 0.635018
vt 0.357206 0.633121
vt 0.362052 0.631091
vt 0.368184 0.635804
vt 0.366378 0.629363
vt 0.354143 0.624894
vt 0.358708 0.622454
vt 0.363065 0.620074
vt 0.370430 0.628193
vt 0.367685 0.617850
vt 0.355865 0.613324
vt 0.360567 0.611116
vt 0.364954 0.608983
vt 0.371976 0.616078
vt 0.369075 0.606475
vt 0.357906 0.601487
vt 0.362196 0.598918
vt 0.367112 0.596994
vt 0.373784 0.605075
vt 0.371312 0.595456
vt 0.794316 0.516605
vt 0.376518 0.613916
vt 0.791777 0.509941
vt 0.370255 0.583340
vt 0.374152 0.592454
vt 0.791288 0.497297
vt 0.793021 0.486531
vt 0.789655 0.488477
vt 0.365618 0.570804
vt 0.796237 0.476859
vt 0.793044 0.476707
vt 0.795117 0.467245
vt 0.798044 0.468034
vt 0.801149 0.469094
vt 0.380730 0.624847
vt 0.375154 0.626733
vt 0.377100 0.634044
vt 0.372434 0.634681
vt 0.379003 0.639595
vt 0.374196 0.640248
vt 0.369824 0.641024
vt 0.375468 0.645332
vt 0.370903 0.645562
vt 0.365972 0.646319
vt 0.375502 0.649904
vt 0.377986 0.655426
vt 0.373603 0.654926
vt 0.379727 0.650004
vt 0.380364 0.644480
vt 0.385010 0.649691
vt 0.844191 0.545107
vt 0.837319 0.547250
vt 0.382867 0.655519
vt 0.834166 0.548039
vt 0.850690 0.542321
vt 0.373323 0.661190
vt 0.379160 0.659763
vt 0.368624 0.659638
vt 0.853714 0.538327
vt 0.859032 0.539350
vt 0.855928 0.543813
vt 0.363011 0.663523
vt 0.368787 0.664121
vt 0.360335 0.659978
vt 0.861615 0.534517
vt 0.866575 0.535529
vt 0.864279 0.540171
vt 0.355860 0.662350
vt 0.357849 0.666041
vt 0.351807 0.667730
vt 0.350519 0.663900
vt 0.856704 0.533381
vt 0.350905 0.615131
vt 0.349345 0.627051
vt 0.345654 0.616571
vt 0.342710 0.628654
vt 0.339374 0.618269
vt 0.343764 0.636428
vt 0.832103 0.468385
vt 0.828721 0.478911
vt 0.824623 0.488561
vt 0.821041 0.499169
vt 0.819235 0.490404
vt 0.828337 0.496822
vt 0.813328 0.492618
vt 0.275900 0.594730
vt 0.856018 0.429192
vt 0.851002 0.422740
vt 0.853355 0.418354
vt 0.858315 0.425041
vt 0.849028 0.414444
vt 0.270971 0.585896
vt 0.806337 0.429851
vt 0.313215 0.553345
vn 0.6409 0.0115 -0.7675
vn 0.6488 -0.0669 -0.7580
vn 0.6925 0.0040 -0.7214
vn 0.6665 0.0515 -0.7438
vn 0.5884 -0.0574 -0.8065
vn 0.5102 -0.3818 -0.7707
vn 0.5360 -0.5350 -0.6530
vn -0.0838 -0.9894 -0.1183
vn -0.0865 -0.9896 -0.1146
vn -0.1353 -0.9891 -0.0576
vn -0.0744 -0.9941 -0.0792
vn -0.0768 -0.9959 -0.0486
vn -0.1065 -0.9938 -0.0320
vn -0.0472 -0.9944 -0.0945
vn 0.8443 0.2840 0.4544
vn 0.6275 0.7017 0.3374
vn 0.6132 0.6808 0.4007
vn 0.7813 0.3341 0.5272
vn 0.6124 0.6810 0.4015
vn 0.3621 0.8757 0.3195
vn 0.2395 0.9618 0.1329
vn 0.0773 0.9891 0.1255
vn 0.1152 0.9851 0.1280
vn 0.8397 0.1827 0.5115
vn 0.8495 0.1478 0.5064
vn 0.5301 0.7748 0.3446
vn 0.8290 0.0884 0.5522
vn 0.0860 0.9913 0.1001
vn 0.5596 -0.1758 0.8099
vn 0.0588 -0.1084 0.9924
vn 0.0914 -0.3497 0.9324
vn 0.4523 -0.4316 0.7805
vn -0.4563 -0.1060 0.8835
vn -0.3243 -0.4602 0.8265
vn 0.0302 -0.7784 0.6270
vn 0.5446 -0.2768 -0.7917
vn 0.1946 -0.8698 -0.4534
vn 0.1542 -0.9467 -0.2827
vn -0.0440 -0.9871 -0.1539
vn 0.2095 -0.8465 -0.4894
vn -0.0342 -0.9952 -0.0914
vn 0.4967 -0.3870 -0.7769
vn 0.0016 0.9721 0.2344
vn -0.1545 0.9048 0.3969
vn -0.0693 0.8984 0.4336
vn 0.0426 0.9383 0.3431
vn 0.1424 0.6765 0.7226
vn -0.1081 0.6435 0.7578
vn -0.3585 0.6627 0.6575
vn 0.0868 0.9935 0.0734
vn 0.0777 0.9936 0.0817
vn 0.0560 0.9963 0.0659
vn 0.0683 0.9961 0.0557
vn 0.0863 0.9903 0.1092
vn 0.0356 0.9918 0.1225
vn 0.0126 0.9962 0.0860
vn 0.5812 -0.0711 -0.8107
vn 0.2083 -0.4519 -0.8674
vn 0.1838 -0.1989 -0.9626
vn -0.1013 -0.7715 -0.6281
vn -0.4611 -0.3599 -0.8111
vn -0.3312 0.9017 0.2779
vn -0.4021 0.8699 0.2857
vn -0.6145 0.5752 0.5400
vn -0.7008 0.6064 0.3756
vn -0.8731 0.2720 0.4047
vn -0.8023 0.2567 0.5390
vn -0.4755 0.2248 0.8505
vn -0.3681 0.5780 0.7283
vn -0.2561 0.8729 0.4152
vn -0.6234 -0.0312 0.7813
vn -0.7008 0.0780 0.7091
vn -0.6134 0.2414 0.7520
vn -0.6051 -0.0155 0.7960
vn -0.8112 0.0977 0.5766
vn -0.6791 0.2050 0.7049
vn -0.7623 0.0786 0.6424
vn -0.3406 -0.0573 -0.9385
vn -0.2115 0.5669 -0.7961
vn 0.3014 0.4247 -0.8537
vn 0.3846 0.0388 -0.9223
vn 0.6254 0.1094 -0.7726
vn 0.5860 0.4742 -0.6571
vn 0.2757 0.9004 -0.3366
vn -0.6746 -0.0182 0.7379
vn -0.7250 0.0523 0.6868
vn -0.5977 0.0932 0.7963
vn -0.8413 0.0884 0.5333
vn 0.0411 0.9937 0.1041
vn -0.0895 0.9811 0.1714
vn -0.0695 0.9824 0.1732
vn -0.0202 0.9912 0.1306
vn 0.0003 0.9950 0.0997
vn -0.0122 0.9981 0.0609
vn 0.0407 0.9976 0.0561
vn 0.1178 0.9907 0.0687
vn -0.2845 0.9471 -0.1486
vn -0.2638 0.9411 -0.2114
vn 0.0888 0.9918 0.0916
vn 0.0427 0.9918 0.1204
vn -0.5402 0.7490 -0.3835
vn -0.0308 0.9922 0.1209
vn 0.0128 0.9910 0.1335
vn 0.0554 0.9985 0.0014
vn 0.0672 0.9975 0.0200
vn -0.7795 0.3829 -0.4958
vn -0.7659 0.2462 -0.5939
vn -0.7765 0.0930 -0.6232
vn -0.0033 -0.9986 -0.0521
vn -0.0843 -0.9949 -0.0556
vn 0.1145 -0.9823 0.1485
vn 0.1048 -0.9935 0.0442
vn -0.1674 -0.9835 0.0681
vn -0.0927 -0.9833 0.1567
vn -0.1380 -0.9902 -0.0201
vn 0.0736 0.9911 0.1111
vn 0.0287 0.9954 0.0911
vn -0.0107 0.9966 0.0813
vn 0.0556 0.9910 0.1218
vn 0.0749 0.9919 0.1028
vn 0.0631 0.9919 0.1105
vn 0.0487 0.9915 0.1204
vn -0.0019 0.9912 0.1321
vn -0.2221 0.9720 0.0765
vn -0.0359 0.9922 0.1194
vn -0.2700 0.9514 0.1483
vn -0.7049 0.7089 0.0239
vn -0.6998 0.6885 -0.1903
vn -0.9216 0.1701 -0.3489
vn -0.7799 0.6071 -0.1524
vn -0.3169 0.9480 -0.0301
vn 0.1016 0.9921 0.0737
vn 0.1398 0.9893 0.0420
vn 0.1216 0.9915 0.0457
vn 0.0746 0.9926 0.0953
vn 0.1146 0.9926 0.0411
vn 0.0957 0.9931 0.0678
vn 0.0826 0.9928 0.0873
vn 0.0576 0.9937 0.0958
vn 0.0772 0.9924 0.0956
vn 0.0570 0.9938 0.0953
vn 0.0822 0.9893 0.1203
vn 0.1100 0.9793 0.1702
vn 0.0099 0.9851 0.1718
vn 0.1029 0.9893 0.1037
vn 0.1473 0.9859 0.0795
vn 0.0500 0.9987 0.0057
vn -0.0775 0.9892 0.1246
vn -0.0529 0.9983 -0.0234
vn 0.1124 0.9936 -0.0134
vn 0.0629 0.9955 -0.0704
vn 0.0267 0.9974 -0.0662
vn -0.0437 0.9990 0.0096
vn 0.0156 0.9995 -0.0276
vn 0.0256 0.9987 0.0450
vn 0.0269 0.9976 0.0635
vn 0.0269 0.9972 0.0700
vn 0.0495 0.9985 0.0213
vn 0.0279 0.9964 0.0801
vn 0.0238 0.9967 0.0779
vn 0.0364 0.9967 0.0728
vn 0.0299 0.9965 0.0782
vn 0.0327 0.9952 0.0924
vn 0.0281 0.9929 0.1159
vn 0.0387 0.9847 0.1698
vn 0.3960 0.7929 0.4631
vn 0.0146 0.9829 0.1835
vn 0.0235 0.9617 0.2730
vn 0.2617 0.7586 0.5967
vn 0.7411 0.2196 0.6345
vn 0.5263 0.2387 0.8161
vn 0.2231 0.2353 0.9460
vn 0.5908 -0.0397 0.8059
vn 0.2768 0.0421 0.9600
vn -0.1147 0.2707 0.9558
vn -0.0525 0.1133 0.9922
vn 0.3576 0.0528 0.9324
vn -0.0258 0.0787 0.9966
vn -0.4209 0.3422 0.8401
vn -0.4149 0.1216 0.9017
vn -0.4074 -0.0027 0.9133
vn -0.0276 0.0468 0.9985
vn -0.4187 -0.0223 0.9078
vn -0.6395 0.0789 0.7648
vn -0.6335 -0.0801 0.7696
vn -0.6253 -0.0743 0.7768
vn -0.4499 0.0171 0.8929
vn -0.6270 -0.0154 0.7789
vn -0.8037 -0.1011 0.5864
vn -0.7391 -0.0765 0.6692
vn -0.7052 -0.0316 0.7083
vn -0.6230 -0.1345 0.7706
vn -0.6772 -0.1314 0.7240
vn -0.6358 -0.1489 0.7573
vn -0.6020 -0.4851 0.6343
vn -0.5985 -0.4588 0.6568
vn -0.6234 -0.2024 0.7552
vn -0.5784 -0.4602 0.6735
vn -0.3730 -0.8586 0.3515
vn -0.3311 -0.8460 0.4179
vn -0.2793 -0.8544 0.4382
vn -0.5420 -0.4728 0.6948
vn -0.0659 -0.9923 0.1052
vn 0.0267 -0.9902 0.1374
vn 0.4067 -0.8170 0.4087
vn 0.1936 -0.9811 0.0017
vn 0.6031 -0.7612 0.2383
vn 0.8391 -0.3618 0.4063
vn 0.6998 -0.4096 0.5852
vn 0.8616 -0.2432 0.4455
vn 0.7589 -0.2231 0.6118
vn 0.8495 -0.1961 0.4897
vn 0.7547 -0.1203 0.6450
vn 0.5029 -0.0478 0.8630
vn 0.7255 -0.0561 0.6859
vn 0.4297 0.0316 0.9024
vn 0.0028 0.0221 0.9998
vn 0.6668 -0.0595 0.7429
vn 0.8284 -0.1455 0.5409
vn 0.8063 -0.1343 0.5761
vn 0.7962 -0.0776 0.6001
vn 0.8471 -0.1613 0.5063
vn 0.8541 -0.0766 0.5144
vn 0.8289 -0.1548 0.5375
vn 0.8491 -0.0459 0.5262
vn 0.8214 -0.1254 0.5563
vn 0.8325 -0.0353 0.5529
vn 0.8827 -0.0862 0.4619
vn 0.8881 -0.0307 0.4587
vn 0.8832 0.0832 0.4616
vn 0.9028 -0.0477 0.4273
vn 0.8973 0.0770 0.4347
vn 0.8535 0.3083 0.4201
vn 0.9669 0.0588 0.2482
vn 0.8942 0.3660 0.2576
vn 0.6184 0.7613 0.1949
vn 0.6175 0.7205 0.3155
vn 0.2502 0.9626 0.1036
vn 0.2264 0.9643 0.1374
vn 0.0822 0.9937 0.0761
vn 0.0360 0.9981 0.0500
vn -0.0183 0.9959 0.0891
vn 0.1379 0.9904 0.0128
vn 0.0672 0.9968 0.0425
vn 0.1600 0.9871 -0.0035
vn 0.1059 0.9938 0.0348
vn 0.1615 0.9868 -0.0079
vn 0.1135 0.9926 0.0422
vn 0.1574 0.9875 -0.0077
vn 0.3906 0.8692 -0.3032
vn 0.1593 0.9872 -0.0016
vn 0.3631 0.8943 -0.2616
vn 0.3456 0.9144 -0.2106
vn 0.6212 0.4498 -0.6417
vn 0.6217 0.5435 -0.5641
vn 0.3305 0.9325 -0.1459
vn 0.6236 0.6547 -0.4272
vn 0.6871 0.1159 -0.7172
vn 0.7591 0.2512 -0.6006
vn 0.2954 0.9544 -0.0436
vn 0.6285 0.7640 -0.1460
vn 0.8953 0.3821 -0.2291
vn 0.7636 0.0250 -0.6452
vn 0.9566 0.0530 -0.2865
vn 0.6669 -0.0392 -0.7441
vn 0.6742 -0.0079 -0.7385
vn 0.7532 -0.0430 -0.6564
vn 0.9449 -0.0843 -0.3163
vn 0.7497 0.0011 -0.6618
vn 0.9381 -0.0408 -0.3440
vn 0.9701 -0.0947 0.2237
vn 0.9762 -0.1058 0.1892
vn 0.9331 -0.0200 -0.3590
vn 0.9810 -0.0924 0.1709
vn 0.9062 -0.0924 0.4126
vn 0.9120 -0.1076 0.3957
vn 0.9704 -0.1741 0.1672
vn 0.9012 -0.2076 0.3803
vn 0.8797 -0.0988 0.4652
vn 0.8616 -0.2075 0.4632
vn 0.8748 -0.3098 0.3724
vn 0.7930 -0.3990 0.4604
vn 0.8009 -0.1585 0.5774
vn 0.7743 -0.2057 0.5984
vn 0.6923 -0.4322 0.5779
vn 0.6853 -0.5586 0.4672
vn 0.5800 -0.6455 0.4969
vn 0.8015 -0.2541 0.5413
vn 0.7724 -0.3792 0.5096
vn 0.7648 -0.5098 0.3939
vn 0.4956 -0.7737 0.3947
vn 0.7084 -0.6579 0.2556
vn 0.8844 -0.2936 0.3629
vn 0.8829 -0.3503 0.3128
vn 0.7348 -0.6466 0.2049
vn 0.3717 -0.9270 0.0506
vn 0.3019 -0.9532 0.0160
vn 0.1177 -0.9911 0.0624
vn 0.2687 -0.9456 0.1835
vn 0.1537 -0.9881 -0.0104
vn 0.0903 -0.9949 -0.0443
vn 0.1088 -0.9940 -0.0096
vn 0.0619 -0.9975 -0.0348
vn 0.0674 -0.9966 -0.0466
vn -0.0046 -0.9988 -0.0481
vn -0.0505 -0.9937 -0.0997
vn -0.0795 -0.9946 -0.0661
vn -0.1362 -0.9892 0.0534
vn -0.1626 -0.9863 0.0292
vn -0.0366 -0.9984 -0.0424
vn -0.1473 -0.9871 0.0625
vn -0.3871 -0.8676 0.3122
vn -0.4352 -0.8468 0.3059
vn -0.2347 -0.9709 0.0477
vn -0.5477 -0.7950 0.2607
vn -0.7048 -0.4480 0.5501
vn -0.7851 -0.3820 0.4875
vn -0.8199 -0.0817 0.5667
vn -0.7834 -0.3674 0.5013
vn -0.8170 -0.0874 0.5700
vn -0.5751 -0.7744 0.2638
vn -0.7735 -0.1584 0.6137
vn -0.7810 0.0592 0.6217
vn -0.8067 -0.0341 0.5899
vn -0.8136 0.0104 0.5813
vn -0.8388 -0.0475 0.5424
vn -0.8379 0.0024 0.5458
vn -0.8347 -0.0788 0.5451
vn -0.9485 -0.0206 0.3162
vn -0.9427 -0.0915 0.3208
vn -0.8579 -0.4008 0.3216
vn -0.7763 -0.3760 0.5060
vn -0.5278 -0.8116 0.2504
vn -0.5084 -0.7980 0.3234
vn -0.3011 -0.9530 -0.0344
vn -0.1922 -0.9696 -0.1518
vn -0.0553 -0.9976 -0.0428
vn -0.1193 -0.9783 -0.1693
vn 0.0198 -0.9960 -0.0866
vn -0.0151 -0.9957 -0.0917
vn -0.0081 -0.9959 -0.0898
vn -0.0516 -0.9952 -0.0826
vn -0.0442 -0.9957 -0.0809
vn -0.0706 -0.9936 -0.0886
vn -0.0236 -0.9983 -0.0538
vn 0.0770 -0.9969 0.0178
vn -0.0207 -0.9949 -0.0987
vn -0.0287 -0.9985 -0.0458
vn -0.0075 -0.9995 0.0294
vn -0.0010 -0.9960 -0.0889
vn 0.2401 -0.9706 0.0173
vn 0.1687 -0.9687 0.1823
vn 0.6231 -0.7483 0.2275
vn 0.4713 -0.7912 0.3897
vn 0.8282 -0.4349 0.3534
vn 0.6097 -0.7912 0.0482
vn 0.8701 -0.4761 0.1277
vn 0.9465 -0.2798 0.1611
vn 0.7974 -0.5202 -0.3057
vn 0.9123 -0.2076 -0.3530
vn 0.9285 -0.0957 -0.3589
vn 0.7481 -0.1153 -0.6535
vn 0.7459 -0.0311 -0.6654
vn 0.7458 0.0220 -0.6659
vn 0.6675 -0.0068 -0.7446
vn 0.6665 0.0460 -0.7441
vn 0.6642 0.0082 -0.7475
vn 0.6357 0.0642 -0.7693
vn 0.6396 0.0077 -0.7687
vn 0.6447 -0.0580 -0.7622
vn 0.6611 0.0004 -0.7503
vn 0.6607 -0.0645 -0.7479
vn 0.6592 -0.0164 -0.7518
vn 0.6487 -0.0204 -0.7608
vn 0.6582 0.0474 -0.7513
vn 0.6544 0.0531 -0.7543
vn 0.6292 0.3946 -0.6696
vn 0.6559 0.0790 -0.7507
vn 0.5958 0.3986 -0.6972
vn 0.3841 0.8439 -0.3746
vn 0.0125 0.9770 -0.2130
vn 0.1830 0.9818 -0.0505
vn -0.1508 0.9754 -0.1605
vn -0.5451 0.5746 -0.6106
vn -0.6834 0.4871 -0.5438
vn -0.7074 -0.0273 -0.7063
vn -0.7763 -0.0168 -0.6302
vn -0.8173 -0.0212 -0.5758
vn -0.7661 -0.0446 -0.6412
vn -0.8086 -0.0309 -0.5876
vn -0.8012 -0.0162 -0.5982
vn -0.8042 -0.0266 -0.5938
vn -0.8137 -0.0598 -0.5782
vn -0.8034 -0.0290 -0.5947
vn -0.8575 -0.1325 -0.4971
vn -0.8649 -0.0213 -0.5015
vn -0.8688 -0.0128 -0.4949
vn -0.8975 -0.0287 -0.4401
vn -0.8977 0.0073 -0.4406
vn -0.9708 -0.0347 -0.2375
vn -0.9679 0.0123 -0.2511
vn -0.9598 0.1397 -0.2436
vn -0.9985 0.0076 -0.0544
vn -0.9858 0.1511 -0.0731
vn -0.7338 0.6740 -0.0851
vn -0.1779 0.9840 0.0064
vn -0.9584 0.2544 0.1292
vn -0.5815 0.7969 0.1637
vn -0.0543 0.9921 0.1129
vn -0.0279 0.9966 0.0777
vn 0.0060 0.9942 0.1076
vn -0.4753 0.8191 0.3212
vn -0.0612 0.9821 0.1784
vn 0.0117 0.9912 0.1317
vn 0.0616 0.9912 0.1172
vn -0.1077 0.9779 0.1794
vn -0.0053 0.9933 0.1150
vn -0.1097 0.9754 0.1910
vn -0.0248 0.9947 0.0998
vn -0.0920 0.9707 0.2221
vn -0.0114 0.9928 0.1193
vn 0.0116 0.9956 0.0934
vn 0.0746 0.9970 0.0224
vn -0.0094 0.9945 0.1046
vn 0.0193 0.9962 0.0849
vn 0.0634 0.9975 0.0313
vn 0.0354 0.9977 0.0569
vn 0.0225 0.9972 0.0707
vn 0.0366 0.9982 0.0476
vn 0.0155 0.9980 0.0613
vn 0.0196 0.9982 0.0560
vn 0.0287 0.9967 0.0755
vn 0.0130 0.9945 0.1035
vn 0.0378 0.9969 0.0688
vn 0.0342 0.9963 0.0789
vn -0.0050 0.9969 0.0781
vn 0.0244 0.9949 0.0980
vn 0.0254 0.9907 0.1334
vn -0.0454 0.9882 0.1466
vn -0.0056 0.9797 0.2003
vn -0.1772 0.9109 0.3727
vn -0.4309 0.6836 0.5891
vn -0.5975 0.3573 0.7178
vn -0.8689 0.0191 0.4946
vn -0.1164 0.9856 0.1230
vn -0.1011 0.9768 0.1890
vn -0.2289 0.8919 0.3900
vn -0.3250 0.8748 0.3592
vn -0.6386 0.5336 0.5545
vn -0.4755 0.5954 0.6475
vn -0.7857 0.1097 0.6088
vn -0.6348 0.1534 0.7573
vn -0.8017 -0.0536 0.5953
vn -0.8392 0.1088 0.5328
vn -0.8438 -0.0320 0.5357
vn -0.9506 0.0963 0.2952
vn -0.9623 -0.0265 0.2706
vn -0.9562 -0.0675 0.2848
vn -0.9982 -0.0513 0.0297
vn -0.9955 -0.0928 0.0183
vn -0.9987 -0.0448 0.0258
vn -0.9960 -0.0878 -0.0136
vn -0.9977 -0.0669 -0.0143
vn -0.9893 -0.1365 -0.0520
vn -0.9947 -0.0962 0.0356
vn -0.8485 -0.5162 -0.1165
vn -0.8954 -0.4445 0.0241
vn -0.4465 -0.8835 -0.1415
vn -0.5183 -0.8552 -0.0077
vn -0.1169 -0.9862 -0.1173
vn -0.3807 -0.8920 -0.2438
vn -0.1179 -0.9829 -0.1413
vn 0.0116 -0.9974 -0.0704
vn 0.0649 -0.9971 -0.0399
vn -0.0141 -0.9984 -0.0543
vn 0.0218 -0.9994 -0.0286
vn -0.0567 -0.9968 -0.0563
vn -0.0764 -0.9920 -0.1002
vn -0.0436 -0.9964 -0.0720
vn -0.0231 -0.9967 -0.0776
vn -0.0183 -0.9955 -0.0931
vn -0.0317 -0.9919 -0.1227
vn -0.0165 -0.9972 -0.0736
vn -0.0506 -0.9984 -0.0268
vn -0.0668 -0.9976 -0.0176
vn -0.0197 -0.9976 -0.0662
vn -0.0529 -0.9980 -0.0347
vn -0.0645 -0.9974 -0.0313
vn -0.0268 -0.9970 -0.0733
vn -0.0188 -0.9972 -0.0720
vn -0.0046 -0.9972 -0.0747
vn 0.0346 -0.9939 -0.1049
vn 0.1280 -0.9871 -0.0966
vn 0.2383 -0.9703 -0.0422
vn 0.0256 -0.9965 -0.0801
vn 0.4499 -0.8754 -0.1767
vn 0.2740 -0.9197 -0.2813
vn 0.6469 -0.5067 -0.5699
vn 0.1761 -0.9432 -0.2817
vn 0.5439 -0.5257 -0.6541
vn 0.6633 -0.0819 -0.7438
vn -0.0082 -0.9960 -0.0886
vn -0.0285 -0.9960 -0.0850
vn -0.0397 -0.9961 -0.0785
vn -0.0411 -0.9966 -0.0716
vn -0.0546 -0.9942 -0.0927
vn -0.0677 -0.9964 -0.0504
vn -0.0646 -0.9972 -0.0384
vn -0.0753 -0.9962 -0.0440
vn -0.2393 -0.9369 -0.2549
vn -0.2694 -0.9502 -0.1568
vn -0.0646 -0.9965 -0.0536
vn -0.1016 -0.9936 -0.0484
vn -0.3530 -0.9284 -0.1158
vn -0.6372 -0.6600 -0.3978
vn -0.6828 -0.6870 -0.2488
vn -0.1283 -0.9846 -0.1185
vn -0.4026 -0.8927 -0.2027
vn -0.7001 -0.6454 -0.3054
vn -0.8498 -0.3359 -0.4062
vn -0.8363 -0.3943 -0.3810
vn -0.3781 -0.8745 -0.3038
vn -0.6568 -0.6046 -0.4507
vn -0.7850 -0.3863 -0.4842
vn -0.8549 -0.2576 -0.4504
vn -0.8404 -0.2872 -0.4595
vn -0.7374 -0.5937 -0.3220
vn -0.9214 -0.2694 -0.2801
vn -0.9601 -0.1670 -0.2243
vn -0.8848 -0.1436 -0.4433
vn -0.9696 -0.1027 -0.2223
vn -0.9983 -0.0473 -0.0326
vn -0.9979 0.0295 0.0576
vn -0.8558 0.3772 0.3540
vn -0.7371 0.4511 0.5031
vn -0.4114 0.8405 0.3526
vn -0.8516 -0.0995 -0.5146
vn -0.7980 -0.0152 -0.6024
vn -0.7998 -0.1991 -0.5662
vn -0.7985 -0.0135 -0.6019
vn -0.7924 -0.0997 -0.6018
vn -0.6371 -0.5617 -0.5278
vn -0.7772 -0.0545 -0.6268
vn -0.6507 -0.4745 -0.5928
vn -0.2449 -0.9048 -0.3483
vn -0.5353 -0.0552 -0.8429
vn 0.0789 -0.0372 -0.9962
vn 0.1503 -0.0596 -0.9868
vn -0.5770 -0.0293 -0.8162
vn -0.7690 -0.0178 -0.6390
vn -0.6373 -0.0550 -0.7686
vn -0.0843 -0.0319 -0.9959
vn 0.4883 0.0038 -0.8727
vn 0.5702 -0.0345 -0.8208
vn 0.5958 -0.0228 -0.8028
vn 0.6417 -0.0032 -0.7669
vn 0.6620 -0.0401 -0.7485
vn 0.6673 0.0018 -0.7447
vn 0.6532 -0.0072 -0.7571
vn 0.6805 -0.0494 -0.7310
vn 0.6821 0.0065 -0.7312
vn 0.6668 0.0415 -0.7441
vn 0.6577 0.0640 -0.7505
vn 0.6730 -0.0095 -0.7396
vn -0.1365 -0.9780 -0.1578
vn -0.0424 -0.9947 -0.0940
vn -0.0258 -0.9963 -0.0819
vn -0.0326 -0.9964 -0.0786
vn -0.0250 -0.9969 -0.0750
vn -0.0642 -0.9964 -0.0547
vn 0.0932 0.9937 0.0617
vn 0.0579 0.9936 0.0970
vn 0.0261 0.9947 0.0996
vn 0.0421 0.9926 0.1135
vn 0.0300 0.9931 0.1133
vn 0.0501 0.9935 0.1024
vn 0.0237 0.9940 0.1065
vn 0.8710 -0.2608 0.4163
vn 0.8111 -0.2282 0.5386
vn 0.8548 -0.2201 0.4699
f 1/1/1 2/2/2 3/3/3 4/4/4
f 5/5/5 4/4/4 3/3/3 6/6/6
f 7/7/7 6/6/6 3/3/3 2/2/2
f 8/8/8 9/9/9 10/10/10 11/11/11
f 12/12/12 11/11/11 10/10/10 13/13/13
f 14/14/14 13/13/13 10/10/10 9/9/9
f 15/15/15 16/16/16 17/17/17 18/18/18
f 19/19/19 18/18/18 17/17/17 20/20/20
f 21/21/21 20/20/20 17/17/17 16/16/16
f 22/22/22 23/23/23 19/19/19 20/20/20
f 24/24/24 25/25/25 19/19/19 26/26/26
f 27/27/27 18/18/18 19/19/19 25/25/25
f 28/28/28 26/26/26 19/19/19 23/23/23
f 29/29/29 30/30/30 31/31/31 32/32/32
f 33/33/33 34/34/34 31/31/31 30/30/30
f 35/35/35 32/32/32 31/31/31 34/34/34
f 36/36/36 5/5/5 6/6/6 37/37/37
f 38/38/38 37/37/37 6/6/6 7/7/7
f 39/39/39 40/40/40 37/37/37 41/41/41
f 42/42/42 36/36/36 37/37/37 40/40/40
f 43/43/43 44/44/44 45/45/45 46/46/46
f 47/47/47 46/46/46 45/45/45 48/48/48
f 49/49/49 48/48/48 45/45/45 44/44/44
f 50/50/50 51/51/51 52/52/52 53/53/53
f 54/54/54 55/55/55 52/52/52 51/51/51
f 56/56/56 53/53/53 52/52/52 55/55/55
f 57/57/57 42/42/42 58/58/58 59/59/59
f 40/40/40 60/60/60 58/58/58 42/42/42
f 61/61/61 59/59/59 58/58/58 60/60/60
f 62/62/62 63/63/63 64/64/64 65/65/65
f 66/66/66 65/65/65 64/64/64 67/67/67
f 68/68/68 67/67/67 64/64/64 69/69/69
f 70/70/70 69/69/69 64/64/64 63/63/63
f 71/71/71 72/72/72 73/73/73 74/74/74
f 75/75/75 76/76/76 73/73/73 72/72/72
f 77/77/77 74/74/74 73/73/73 76/76/76
f 78/78/78 79/79/79 80/80/80 81/81/81
f 82/82/82 81/81/81 80/80/80 83/83/83
f 84/84/84 83/83/83 80/80/80 79/79/79
f 85/85/85 86/86/86 76/76/76 87/87/87
f 88/88/88 87/87/87 76/76/76 75/75/75
f 89/89/89 90/90/90 91/91/91 92/92/92
f 93/93/93 94/94/94 91/91/91 90/90/90
f 95/95/95 92/92/92 91/91/91 94/94/94
f 96/96/96 97/97/97 98/98/98 99/99/99
f 100/100/100 99/99/99 98/98/98 101/101/101
f 102/102/102 103/103/103 93/93/93 90/90/90
f 104/104/104 94/94/94 93/93/93 105/105/105
f 106/106/106 107/107/107 98/98/98 97/97/97
f 108/108/108 101/101/101 98/98/98 107/107/107
f 109/109/109 110/110/110 111/111/111 112/112/112
f 113/113/113 114/114/114 111/111/111 110/110/110
f 115/115/115 112/112/112 111/111/111 114/114/114
f 116/116/116 117/117/117 105/105/105 93/93/93
f 118/118/118 104/104/104 105/105/105 117/117/117
f 99/99/99 100/100/100 119/119/119 120/120/120
f 121/121/121 120/120/120 119/119/119 122/122/122
f 123/123/123 122/122/122 119/119/119 100/100/100
f 124/124/124 125/125/125 126/126/126 127/127/127
f 127/127/127 126/126/126 128/128/128 129/129/129
f 123/123/123 128/128/128 126/126/126 125/125/125
f 127/127/127 130/130/130 131/131/131 124/124/124
f 99/99/99 120/120/120 132/132/132 96/96/96
f 133/133/133 96/96/96 132/132/132 134/134/134
f 121/121/121 135/135/135 132/132/132 120/120/120
f 136/136/136 134/134/134 132/132/132 137/137/137
f 138/138/138 137/137/137 132/132/132 135/135/135
f 139/139/139 140/140/140 138/138/138 135/135/135
f 54/54/54 51/51/51 138/138/138 140/140/140
f 50/50/50 137/137/137 138/138/138 51/51/51
f 141/141/141 142/142/142 140/140/140 139/139/139
f 143/143/143 54/54/54 140/140/140 142/142/142
f 55/55/55 54/54/54 143/143/143 144/144/144
f 145/145/145 146/146/146 143/143/143 142/142/142
f 147/147/147 144/144/144 143/143/143 146/146/146
f 148/148/148 144/144/144 147/147/147 149/149/149
f 150/150/150 151/151/151 147/147/147 146/146/146
f 152/152/152 149/149/149 147/147/147 151/151/151
f 153/153/153 149/149/149 152/152/152 154/154/154
f 155/155/155 156/156/156 152/152/152 151/151/151
f 157/157/157 154/154/154 152/152/152 156/156/156
f 158/158/158 154/154/154 157/157/157 22/22/22
f 159/159/159 160/160/160 157/157/157 156/156/156
f 23/23/23 22/22/22 157/157/157 160/160/160
f 161/161/161 162/162/162 160/160/160 159/159/159
f 28/28/28 23/23/23 160/160/160 162/162/162
f 163/163/163 164/164/164 162/162/162 161/161/161
f 165/165/165 28/28/28 162/162/162 164/164/164
f 26/26/26 28/28/28 165/165/165 166/166/166
f 167/167/167 168/168/168 165/165/165 164/164/164
f 169/169/169 166/166/166 165/165/165 168/168/168
f 170/170/170 166/166/166 169/169/169 171/171/171
f 46/46/46 47/47/47 169/169/169 168/168/168
f 172/172/172 171/171/171 169/169/169 47/47/47
f 173/173/173 171/171/171 172/172/172 174/174/174
f 48/48/48 175/175/175 172/172/172 47/47/47
f 176/176/176 174/174/174 172/172/172 175/175/175
f 177/177/177 174/174/174 176/176/176 178/178/178
f 179/179/179 180/180/180 176/176/176 175/175/175
f 181/181/181 178/178/178 176/176/176 180/180/180
f 182/182/182 178/178/178 181/181/181 183/183/183
f 184/184/184 185/185/185 181/181/181 180/180/180
f 186/186/186 183/183/183 181/181/181 185/185/185
f 187/187/187 183/188/183 186/189/186 188/190/188
f 189/191/189 190/192/190 186/186/186 185/185/185
f 191/193/191 188/190/188 186/189/186 190/194/190
f 192/195/192 188/190/188 191/193/191 193/196/193
f 72/72/72 71/71/71 191/193/191 190/194/190
f 194/197/194 193/196/193 191/193/191 71/71/71
f 195/198/195 196/199/196 194/197/194 197/200/197
f 198/201/198 193/196/193 194/197/194 196/199/196
f 74/74/74 197/200/197 194/197/194 71/71/71
f 199/202/199 200/203/200 198/201/198 196/199/196
f 201/204/201 202/205/202 198/201/198 200/203/200
f 192/195/192 193/196/193 198/201/198 202/205/202
f 35/35/35 34/34/34 202/205/202 201/204/201
f 33/33/33 192/195/192 202/205/202 34/34/34
f 203/206/203 204/207/204 201/204/201 200/203/200
f 205/208/205 35/35/35 201/204/201 204/207/204
f 206/209/206 207/210/207 205/208/205 204/207/204
f 208/211/208 209/212/209 205/208/205 207/210/207
f 32/32/32 35/35/35 205/208/205 209/212/209
f 210/213/210 211/214/211 209/212/209 208/211/208
f 29/29/29 32/32/32 209/212/209 211/214/211
f 212/215/212 213/216/213 211/214/211 210/213/210
f 214/217/214 29/29/29 211/214/211 213/216/213
f 215/218/215 216/219/216 214/217/214 213/216/213
f 182/182/182 217/220/217 214/221/214 216/222/216
f 30/30/30 29/29/29 214/217/214 217/223/217
f 183/188/183 187/187/187 217/223/217 182/224/182
f 33/33/33 30/30/30 217/223/217 187/187/187
f 218/225/218 177/177/177 216/222/216 215/226/215
f 178/178/178 182/182/182 216/222/216 177/177/177
f 219/227/219 220/228/220 218/225/218 215/226/215
f 221/229/221 173/173/173 218/225/218 220/228/220
f 174/174/174 177/177/177 218/225/218 173/173/173
f 222/230/222 223/231/223 221/229/221 220/228/220
f 24/24/24 170/170/170 221/229/221 223/231/223
f 171/171/171 173/173/173 221/229/221 170/170/170
f 224/232/224 225/233/225 223/231/223 222/230/222
f 25/25/25 24/24/24 223/231/223 225/233/225
f 226/234/226 227/235/227 225/233/225 224/232/224
f 27/27/27 25/25/25 225/233/225 227/235/227
f 228/236/228 229/237/229 227/235/227 226/234/226
f 230/238/230 27/27/27 227/235/227 229/237/229
f 231/239/231 232/240/232 230/238/230 229/237/229
f 233/241/233 15/15/15 230/238/230 232/240/232
f 18/18/18 27/27/27 230/238/230 15/15/15
f 234/242/234 235/243/235 233/241/233 232/240/232
f 236/244/236 237/245/237 233/241/233 235/243/235
f 16/16/16 15/15/15 233/241/233 237/245/237
f 238/246/238 239/247/239 237/245/237 236/244/236
f 21/21/21 16/16/16 237/245/237 239/247/239
f 240/248/240 241/249/241 239/247/239 238/246/238
f 158/158/158 21/21/21 239/247/239 241/249/241
f 242/250/242 153/153/153 241/249/241 240/248/240
f 154/154/154 158/158/158 241/249/241 153/153/153
f 243/251/243 244/252/244 242/250/242 240/248/240
f 56/56/56 148/148/148 242/250/242 244/252/244
f 149/149/149 153/153/153 242/250/242 148/148/148
f 245/253/245 246/254/246 244/252/244 243/251/243
f 53/53/53 56/56/56 244/252/244 246/254/246
f 247/255/247 248/256/248 246/254/246 245/253/245
f 50/50/50 53/53/53 246/254/246 248/256/248
f 249/257/249 136/136/136 248/256/248 247/255/247
f 137/137/137 50/50/50 248/256/248 136/136/136
f 250/258/250 251/259/251 249/257/249 252/260/252
f 134/134/134 136/136/136 249/257/249 251/259/251
f 253/261/253 252/260/252 249/257/249 247/255/247
f 254/262/254 252/260/252 253/261/253 255/263/255
f 245/253/245 256/264/256 253/261/253 247/255/247
f 257/265/257 255/263/255 253/261/253 256/264/256
f 258/266/258 255/263/255 257/265/257 259/267/259
f 260/268/260 261/269/261 257/265/257 256/264/256
f 262/270/262 259/267/259 257/265/257 261/269/261
f 263/271/263 259/267/259 262/270/262 264/272/264
f 236/244/236 235/243/235 262/270/262 261/269/261
f 234/242/234 264/272/264 262/270/262 235/243/235
f 265/273/265 266/274/266 263/271/263 267/275/267
f 258/266/258 259/267/259 263/271/263 266/274/266
f 268/276/268 267/275/267 263/271/263 264/272/264
f 269/277/269 267/275/267 268/276/268 270/278/270
f 234/242/234 271/279/271 268/276/268 264/272/264
f 272/280/272 270/278/270 268/276/268 271/279/271
f 273/281/273 270/282/270 272/283/272 274/284/274
f 231/239/231 275/285/275 272/280/272 271/279/271
f 276/286/276 274/284/274 272/283/272 275/287/275
f 277/288/277 274/284/274 276/286/276 278/289/278
f 228/236/228 279/290/279 276/291/276 275/285/275
f 280/292/280 278/289/278 276/286/276 279/293/279
f 281/294/281 278/289/278 280/292/280 282/295/282
f 283/296/283 284/297/284 280/298/280 279/290/279
f 285/299/285 282/295/282 280/292/280 284/300/284
f 286/301/286 282/295/282 285/299/285 287/302/287
f 288/303/288 289/304/289 285/299/285 284/300/284
f 290/305/290 287/302/287 285/299/285 289/304/289
f 291/306/291 287/302/287 290/305/290 292/307/292
f 293/308/293 294/309/294 290/305/290 289/304/289
f 295/310/295 292/307/292 290/305/290 294/309/294
f 296/311/296 292/307/292 295/310/295 297/312/297
f 208/211/208 207/210/207 295/310/295 294/309/294
f 206/209/206 297/312/297 295/310/295 207/210/207
f 298/313/298 299/314/299 296/311/296 300/315/300
f 291/306/291 292/307/292 296/311/296 299/314/299
f 301/316/301 300/315/300 296/311/296 297/312/297
f 302/317/302 300/315/300 301/316/301 303/318/303
f 206/209/206 304/319/304 301/316/301 297/312/297
f 305/320/305 303/318/303 301/316/301 304/319/304
f 306/321/306 303/318/303 305/320/305 307/322/307
f 203/206/203 308/323/308 305/320/305 304/319/304
f 309/324/309 307/322/307 305/320/305 308/323/308
f 310/325/310 307/322/307 309/324/309 311/326/311
f 199/202/199 312/327/312 309/324/309 308/323/308
f 313/328/313 311/326/311 309/324/309 312/327/312
f 314/329/314 311/326/311 313/328/313 315/330/315
f 195/198/195 316/331/316 313/328/313 312/327/312
f 317/332/317 315/330/315 313/328/313 316/331/316
f 318/333/318 319/334/319 317/332/317 320/335/320
f 321/336/321 315/330/315 317/332/317 319/334/319
f 322/337/322 320/335/320 317/332/317 316/331/316
f 323/338/323 320/335/320 322/337/322 77/77/77
f 195/198/195 197/200/197 322/337/322 316/331/316
f 74/74/74 77/77/77 322/337/322 197/200/197
f 324/339/324 325/340/325 323/338/323 86/86/86
f 318/333/318 320/335/320 323/338/323 325/340/325
f 76/76/76 86/86/86 323/338/323 77/77/77
f 326/341/326 327/342/327 325/340/325 324/339/324
f 328/343/328 318/333/318 325/340/325 327/342/327
f 329/344/329 330/345/330 328/343/328 327/342/327
f 331/346/331 332/347/332 328/343/328 330/345/330
f 319/334/319 318/333/318 328/343/328 332/347/332
f 333/348/333 334/349/334 332/347/332 331/346/331
f 321/336/321 319/334/319 332/347/332 334/349/334
f 114/114/114 113/113/113 334/349/334 333/348/333
f 335/350/335 321/336/321 334/349/334 113/113/113
f 110/110/110 336/351/336 335/350/335 113/113/113
f 337/352/337 314/329/314 335/350/335 336/351/336
f 315/330/315 321/336/321 335/350/335 314/329/314
f 338/353/338 339/354/339 337/352/337 336/351/336
f 340/355/340 310/325/310 337/352/337 339/354/339
f 311/326/311 314/329/314 337/352/337 310/325/310
f 341/356/341 342/357/342 340/355/340 339/354/339
f 343/358/343 306/321/306 340/355/340 342/357/342
f 307/322/307 310/325/310 340/355/340 306/321/306
f 344/359/344 345/360/345 343/358/343 342/357/342
f 346/361/346 302/317/302 343/358/343 345/360/345
f 303/318/303 306/321/306 343/358/343 302/317/302
f 347/362/347 348/363/348 346/361/346 345/360/345
f 349/364/349 298/313/298 346/361/346 348/363/348
f 300/315/300 302/317/302 346/361/346 298/313/298
f 8/8/8 350/365/350 349/364/349 348/363/348
f 351/366/351 352/367/352 349/364/349 350/365/350
f 299/314/299 298/313/298 349/364/349 352/367/352
f 353/368/353 354/369/354 352/367/352 351/366/351
f 291/306/291 299/314/299 352/367/352 354/369/354
f 355/370/355 286/301/286 354/369/354 353/368/353
f 287/302/287 291/306/291 354/369/354 286/301/286
f 356/371/356 357/372/357 355/370/355 353/368/353
f 358/373/358 281/294/281 355/370/355 357/372/357
f 282/295/282 286/301/286 355/370/355 281/294/281
f 359/374/359 360/375/360 358/373/358 357/372/357
f 361/376/361 277/288/277 358/373/358 360/375/360
f 278/289/278 281/294/281 358/373/358 277/288/277
f 362/377/362 363/378/363 361/376/361 360/375/360
f 364/379/364 273/281/273 361/376/361 363/378/363
f 274/284/274 277/288/277 361/376/361 273/281/273
f 365/380/365 366/381/366 364/379/364 363/378/363
f 367/382/367 269/277/269 364/383/364 366/384/366
f 270/282/270 273/281/273 364/379/364 269/385/269
f 368/386/368 369/387/369 367/388/367 366/381/366
f 370/389/370 265/273/265 367/382/367 369/390/369
f 267/275/267 269/277/269 367/382/367 265/273/265
f 371/391/371 372/392/372 370/389/370 369/390/369
f 373/393/373 374/394/374 370/389/370 372/392/372
f 266/274/266 265/273/265 370/389/370 374/394/374
f 375/395/375 376/396/376 374/394/374 373/393/373
f 258/266/258 266/274/266 374/394/374 376/396/376
f 377/397/377 254/262/254 376/396/376 375/395/375
f 255/263/255 258/266/258 376/396/376 254/262/254
f 378/398/378 379/399/379 377/397/377 375/395/375
f 380/400/380 250/258/250 377/397/377 379/399/379
f 252/260/252 254/262/254 377/397/377 250/258/250
f 83/83/83 84/84/84 380/400/380 379/399/379
f 381/401/381 382/402/382 380/400/380 84/84/84
f 251/259/251 250/258/250 380/400/380 382/402/382
f 383/403/383 133/133/133 382/402/382 381/401/381
f 134/134/134 251/259/251 382/402/382 133/133/133
f 384/404/384 385/405/385 383/403/383 381/401/381
f 106/106/106 97/97/97 383/403/383 385/405/385
f 96/96/96 133/133/133 383/403/383 97/97/97
f 386/406/386 387/407/387 385/405/385 384/404/384
f 388/408/388 106/106/106 385/405/385 387/407/387
f 389/409/389 390/410/390 388/411/388 387/412/387
f 391/413/391 392/414/392 388/411/388 390/410/390
f 107/107/107 106/106/106 388/408/388 392/415/392
f 393/416/393 394/417/394 392/415/392 391/418/391
f 108/108/108 107/107/107 392/415/392 394/417/394
f 395/419/395 396/420/396 394/417/394 393/416/393
f 397/421/397 108/108/108 394/417/394 396/420/396
f 101/101/101 108/108/108 397/421/397 128/128/128
f 398/422/398 399/423/399 397/421/397 396/420/396
f 129/129/129 128/128/128 397/421/397 399/423/399
f 400/424/400 401/425/401 399/423/399 398/422/398
f 402/426/402 129/129/129 399/423/399 401/425/401
f 127/127/127 129/129/129 402/426/402 130/130/130
f 403/427/403 404/428/404 402/426/402 401/425/401
f 405/429/405 130/130/130 402/426/402 404/428/404
f 131/131/131 130/130/130 405/429/405 406/430/406
f 407/431/407 408/432/408 405/429/405 404/428/404
f 409/433/409 406/430/406 405/429/405 408/432/408
f 410/434/410 406/430/406 409/433/409 411/435/411
f 412/436/412 413/437/413 409/433/409 408/432/408
f 414/438/414 411/435/411 409/433/409 413/437/413
f 415/439/415 411/435/411 414/438/414 116/116/116
f 416/440/416 417/441/417 414/438/414 413/437/413
f 117/117/117 116/116/116 414/438/414 417/441/417
f 418/442/418 419/443/419 417/441/417 416/440/416
f 118/118/118 117/117/117 417/441/417 419/443/419
f 420/444/420 421/445/421 419/443/419 418/442/418
f 422/446/422 118/118/118 419/443/419 421/445/421
f 104/104/104 118/118/118 422/446/422 423/447/423
f 424/448/424 425/449/425 422/446/422 421/445/421
f 426/450/426 423/447/423 422/446/422 425/449/425
f 95/95/95 423/447/423 426/450/426 427/451/427
f 428/452/428 429/453/429 426/450/426 425/449/425
f 430/454/430 427/451/427 426/450/426 429/453/429
f 155/155/155 431/455/431 430/454/430 432/456/432
f 433/457/433 427/451/427 430/454/430 431/455/431
f 434/458/434 432/456/432 430/454/430 429/453/429
f 159/159/159 432/456/432 434/458/434 161/161/161
f 428/452/428 435/459/435 434/458/434 429/453/429
f 163/163/163 161/161/161 434/458/434 435/459/435
f 436/460/436 437/461/437 435/459/435 428/452/428
f 438/462/438 163/163/163 435/459/435 437/461/437
f 164/164/164 163/163/163 438/462/438 167/167/167
f 439/463/439 440/464/440 438/462/438 437/461/437
f 43/43/43 167/167/167 438/462/438 440/464/440
f 62/62/62 441/465/441 440/464/440 439/463/439
f 44/44/44 43/43/43 440/464/440 441/465/441
f 65/65/65 442/466/442 441/465/441 62/62/62
f 49/49/49 44/44/44 441/465/441 442/466/442
f 179/179/179 49/49/49 442/466/442 443/467/443
f 66/66/66 443/467/443 442/466/442 65/65/65
f 180/180/180 179/179/179 443/467/443 184/184/184
f 444/468/444 184/184/184 443/467/443 66/66/66
f 185/185/185 184/184/184 444/468/444 189/191/189
f 67/67/67 88/469/88 444/468/444 66/66/66
f 75/470/75 189/191/189 444/468/444 88/469/88
f 436/460/436 445/471/445 439/463/439 437/461/437
f 63/63/63 62/62/62 439/463/439 445/471/445
f 424/448/424 446/472/446 445/471/445 436/460/436
f 70/70/70 63/63/63 445/471/445 446/472/446
f 421/445/421 420/444/420 446/472/446 424/448/424
f 447/473/447 70/70/70 446/472/446 420/444/420
f 418/442/418 448/474/448 447/473/447 420/444/420
f 449/475/449 450/476/450 447/473/447 448/474/448
f 69/69/69 70/70/70 447/473/447 450/476/450
f 451/477/451 452/478/452 450/476/450 449/475/449
f 68/68/68 69/69/69 450/476/450 452/478/452
f 453/479/453 85/85/85 452/480/452 451/481/451
f 87/87/87 68/482/68 452/480/452 85/85/85
f 454/483/454 455/484/455 453/479/453 451/481/451
f 326/341/326 324/339/324 453/479/453 455/484/455
f 86/86/86 85/85/85 453/479/453 324/339/324
f 456/485/456 457/486/457 455/484/455 454/483/454
f 458/487/458 326/341/326 455/484/455 457/486/457
f 459/488/459 460/489/460 458/487/458 457/486/457
f 461/490/461 329/344/329 458/487/458 460/489/460
f 327/342/327 326/341/326 458/487/458 329/344/329
f 462/491/462 463/492/463 461/490/461 460/489/460
f 464/493/464 465/494/465 461/490/461 463/492/463
f 330/345/330 329/344/329 461/490/461 465/494/465
f 466/495/466 467/496/467 465/494/465 464/493/464
f 331/346/331 330/345/330 465/494/465 467/496/467
f 468/497/468 469/498/469 467/496/467 466/495/466
f 333/348/333 331/346/331 467/496/467 469/498/469
f 470/499/470 115/115/115 469/498/469 468/497/468
f 114/114/114 333/348/333 469/498/469 115/115/115
f 471/500/471 472/501/472 470/499/470 468/497/468
f 473/502/473 474/503/474 470/499/470 472/501/472
f 112/112/112 115/115/115 470/499/470 474/503/474
f 475/504/475 476/505/476 474/503/474 473/502/473
f 109/109/109 112/112/112 474/503/474 476/505/476
f 477/506/477 478/507/478 476/505/476 475/504/475
f 338/353/338 109/109/109 476/505/476 478/507/478
f 479/508/479 341/356/341 478/507/478 477/506/477
f 339/354/339 338/353/338 478/507/478 341/356/341
f 480/509/480 481/510/481 479/508/479 477/506/477
f 482/511/482 344/359/344 479/508/479 481/510/481
f 342/357/342 341/356/341 479/508/479 344/359/344
f 483/512/483 14/14/14 482/511/482 481/510/481
f 9/9/9 347/362/347 482/511/482 14/14/14
f 345/360/345 344/359/344 482/511/482 347/362/347
f 484/513/484 485/514/485 483/512/483 486/515/486
f 13/13/13 14/14/14 483/512/483 485/514/485
f 480/509/480 486/515/486 483/512/483 481/510/481
f 487/516/487 488/517/488 485/514/485 484/513/484
f 12/12/12 13/13/13 485/514/485 488/517/488
f 489/518/489 490/519/490 488/517/488 487/516/487
f 491/520/491 12/12/12 488/517/488 490/519/490
f 492/521/492 493/522/493 491/520/491 490/519/490
f 494/523/494 495/524/495 491/520/491 493/522/493
f 11/11/11 12/12/12 491/520/491 495/524/495
f 351/366/351 350/365/350 495/524/495 494/523/494
f 8/8/8 11/11/11 495/524/495 350/365/350
f 496/525/496 356/371/356 494/523/494 493/522/493
f 353/368/353 351/366/351 494/523/494 356/371/356
f 492/521/492 497/526/497 496/525/496 493/522/493
f 498/527/498 359/374/359 496/525/496 497/526/497
f 357/372/357 356/371/356 496/525/496 359/374/359
f 499/528/499 500/529/500 498/527/498 497/526/497
f 501/530/501 362/377/362 498/527/498 500/529/500
f 360/375/360 359/374/359 498/527/498 362/377/362
f 7/7/7 2/2/2 501/530/501 500/529/500
f 1/1/1 365/380/365 501/530/501 2/2/2
f 363/378/363 362/377/362 501/530/501 365/380/365
f 38/38/38 7/7/7 500/529/500 499/528/499
f 492/521/492 502/531/502 499/528/499 497/526/497
f 503/532/503 38/38/38 499/528/499 502/531/502
f 37/37/37 38/38/38 503/532/503 41/41/41
f 489/518/489 504/533/504 503/532/503 502/531/502
f 505/534/505 41/41/41 503/532/503 504/533/504
f 39/39/39 41/41/41 505/534/505 506/535/506
f 507/536/507 508/537/508 505/534/505 504/533/504
f 509/538/509 506/535/506 505/534/505 508/537/508
f 510/539/510 506/535/506 509/538/509 511/540/511
f 512/541/512 513/542/513 509/538/509 508/537/508
f 514/543/514 511/540/511 509/538/509 513/542/513
f 515/544/515 511/540/511 514/543/514 516/545/516
f 517/546/517 518/547/518 514/543/514 513/542/513
f 519/548/519 516/545/516 514/543/514 518/547/518
f 520/549/520 516/545/516 519/548/519 521/550/521
f 522/551/522 523/552/523 519/548/519 518/547/518
f 524/553/524 521/550/521 519/548/519 523/552/523
f 525/554/525 521/550/521 524/553/524 526/555/526
f 527/556/527 528/557/528 524/553/524 523/552/523
f 529/558/529 526/555/526 524/553/524 528/557/528
f 530/559/530 526/555/526 529/558/529 531/560/531
f 464/493/464 463/492/463 529/558/529 528/557/528
f 462/491/462 531/560/531 529/558/529 463/492/463
f 396/420/396 395/419/395 530/561/530 398/422/398
f 525/554/525 526/555/526 530/559/530 395/562/395
f 400/424/400 398/422/398 530/561/530 531/563/531
f 532/564/532 400/565/400 531/560/531 462/491/462
f 401/425/401 400/424/400 532/566/532 403/427/403
f 460/489/460 459/488/459 532/564/532 462/491/462
f 533/567/533 403/427/403 532/566/532 459/568/459
f 404/428/404 403/427/403 533/567/533 407/431/407
f 457/486/457 456/485/456 533/569/533 459/488/459
f 534/570/534 407/431/407 533/567/533 456/571/456
f 408/432/408 407/431/407 534/570/534 412/436/412
f 454/572/454 535/573/535 534/570/534 456/571/456
f 536/574/536 412/436/412 534/570/534 535/573/535
f 413/437/413 412/436/412 536/574/536 416/440/416
f 449/475/449 448/474/448 536/574/536 535/573/535
f 418/442/418 416/440/416 536/574/536 448/474/448
f 451/477/451 449/475/449 535/573/535 454/572/454
f 466/495/466 464/493/464 528/557/528 527/556/527
f 522/551/522 471/500/471 527/556/527 523/552/523
f 468/497/468 466/495/466 527/556/527 471/500/471
f 393/575/393 537/576/537 525/554/525 395/562/395
f 520/549/520 521/550/521 525/554/525 537/576/537
f 391/413/391 538/577/538 537/576/537 393/575/393
f 539/578/539 520/549/520 537/576/537 538/577/538
f 540/579/540 541/580/541 539/578/539 538/577/538
f 542/581/542 515/544/515 539/578/539 541/580/541
f 516/545/516 520/549/520 539/578/539 515/544/515
f 543/582/543 544/583/544 542/581/542 541/580/541
f 545/584/545 510/539/510 542/581/542 544/583/544
f 511/540/511 515/544/515 542/581/542 510/539/510
f 61/61/61 60/60/60 545/584/545 544/583/544
f 40/40/40 39/39/39 545/584/545 60/60/60
f 506/535/506 510/539/510 545/584/545 39/39/39
f 546/585/546 61/61/61 544/583/544 543/582/543
f 547/586/547 548/587/548 546/585/546 549/588/549
f 59/59/59 61/61/61 546/585/546 548/587/548
f 550/589/550 549/588/549 546/585/546 543/582/543
f 551/590/551 549/588/549 550/589/550 389/409/389
f 541/580/541 540/579/540 550/589/550 543/582/543
f 390/410/390 389/409/389 550/589/550 540/579/540
f 78/78/78 552/591/552 551/592/551 386/406/386
f 547/586/547 549/588/549 551/590/551 552/593/552
f 387/407/387 386/406/386 551/592/551 389/594/389
f 81/81/81 553/595/553 552/591/552 78/78/78
f 554/596/554 547/586/547 552/593/552 553/597/553
f 548/587/548 547/586/547 554/596/554 555/598/555
f 556/599/556 557/600/557 554/601/554 553/595/553
f 558/602/558 555/598/555 554/596/554 557/603/557
f 57/57/57 555/598/555 558/602/558 559/604/559
f 560/605/560 561/606/561 558/607/558 557/600/557
f 562/608/562 559/604/559 558/602/558 561/609/561
f 36/36/36 559/604/559 562/608/562 5/5/5
f 371/610/371 563/611/563 562/608/562 561/609/561
f 4/4/4 5/5/5 562/608/562 563/611/563
f 369/387/369 368/386/368 563/611/563 371/610/371
f 1/1/1 4/4/4 563/611/563 368/386/368
f 372/392/372 371/391/371 561/606/561 560/605/560
f 556/599/556 564/612/564 560/605/560 557/600/557
f 373/393/373 372/392/372 560/605/560 564/612/564
f 82/82/82 378/398/378 564/612/564 556/599/556
f 375/395/375 373/393/373 564/612/564 378/398/378
f 42/42/42 57/57/57 559/604/559 36/36/36
f 81/81/81 82/82/82 556/599/556 553/595/553
f 59/59/59 548/587/548 555/598/555 57/57/57
f 391/413/391 390/410/390 540/579/540 538/577/538
f 517/546/517 565/613/565 522/551/522 518/547/518
f 472/501/472 471/500/471 522/551/522 565/613/565
f 566/614/566 567/615/567 565/613/565 517/546/517
f 473/502/473 472/501/472 565/613/565 567/615/567
f 568/616/568 569/617/569 567/615/567 566/614/566
f 475/504/475 473/502/473 567/615/567 569/617/569
f 486/515/486 480/509/480 569/617/569 568/616/568
f 477/506/477 475/504/475 569/617/569 480/509/480
f 512/541/512 570/618/570 568/616/568 566/614/566
f 484/513/484 486/515/486 568/616/568 570/618/570
f 508/537/508 507/536/507 570/618/570 512/541/512
f 487/516/487 484/513/484 570/618/570 507/536/507
f 513/542/513 512/541/512 566/614/566 517/546/517
f 489/518/489 487/516/487 507/536/507 504/533/504
f 490/519/490 489/518/489 502/531/502 492/521/492
f 425/449/425 424/448/424 436/460/436 428/452/428
f 89/89/89 92/92/92 433/457/433 571/619/571
f 95/95/95 427/451/427 433/457/433 92/92/92
f 150/150/150 571/619/571 433/457/433 431/455/431
f 146/146/146 145/145/145 571/619/571 150/150/150
f 572/620/572 89/89/89 571/619/571 145/145/145
f 573/621/573 102/102/102 572/620/572 141/141/141
f 90/90/90 89/89/89 572/620/572 102/102/102
f 142/142/142 141/141/141 572/620/572 145/145/145
f 574/622/574 575/623/575 573/621/573 576/624/576
f 103/103/103 102/102/102 573/621/573 575/623/575
f 139/139/139 576/624/576 573/621/573 141/141/141
f 125/125/125 577/625/577 575/623/575 574/622/574
f 415/439/415 103/103/103 575/623/575 577/625/577
f 124/124/124 410/434/410 577/625/577 125/125/125
f 411/435/411 415/439/415 577/625/577 410/434/410
f 121/121/121 122/122/122 574/622/574 576/624/576
f 123/123/123 125/125/125 574/622/574 122/122/122
f 135/135/135 121/121/121 576/624/576 139/139/139
f 151/151/151 150/150/150 431/455/431 155/155/155
f 156/156/156 155/155/155 432/456/432 159/159/159
f 94/94/94 104/104/104 423/447/423 95/95/95
f 93/93/93 103/103/103 415/439/415 116/116/116
f 131/131/131 406/430/406 410/434/410 124/124/124
f 79/79/79 78/78/78 386/406/386 384/404/384
f 84/84/84 79/79/79 384/404/384 381/401/381
f 82/82/82 83/83/83 379/399/379 378/398/378
f 365/380/365 1/1/1 368/386/368 366/381/366
f 9/9/9 8/8/8 348/363/348 347/362/347
f 110/110/110 109/109/109 338/353/338 336/351/336
f 196/199/196 195/198/195 312/327/312 199/202/199
f 200/203/200 199/202/199 308/323/308 203/206/203
f 204/207/204 203/206/203 304/319/304 206/209/206
f 210/213/210 208/211/208 294/309/294 293/308/293
f 288/303/288 578/626/578 293/308/293 289/304/289
f 212/215/212 210/213/210 293/308/293 578/626/578
f 579/627/579 580/628/580 578/629/578 288/630/288
f 219/227/219 212/631/212 578/629/578 580/628/580
f 224/232/224 222/230/222 580/628/580 579/627/579
f 220/228/220 219/227/219 580/628/580 222/230/222
f 284/297/284 283/296/283 579/627/579 288/630/288
f 226/234/226 224/232/224 579/627/579 283/296/283
f 228/236/228 226/234/226 283/296/283 279/290/279
f 229/237/229 228/236/228 275/285/275 231/239/231
f 232/240/232 231/239/231 271/279/271 234/242/234
f 238/246/238 236/244/236 261/269/261 260/268/260
f 245/253/245 243/251/243 260/268/260 256/264/256
f 240/248/240 238/246/238 260/268/260 243/251/243
f 213/216/213 212/215/212 219/632/219 215/218/215
f 187/187/187 188/190/188 192/195/192 33/33/33
f 75/470/75 72/633/72 190/192/190 189/191/189
f 48/48/48 49/49/49 179/179/179 175/175/175
f 26/26/26 166/166/166 170/170/170 24/24/24
f 43/43/43 46/46/46 168/168/168 167/167/167
f 20/20/20 21/21/21 158/158/158 22/22/22
f 55/55/55 144/144/144 148/148/148 56/56/56
f 100/100/100 101/101/101 128/128/128 123/123/123
f 68/482/68 87/87/87 88/88/88 67/634/67
