# split from a merged terrain OBJ by scripts/split-terrain-obj-parts.py
o part-047
v -0.453417 0.229888 -0.013121
v -0.455172 0.230031 -0.013938
v -0.454962 0.227393 -0.014624
v -0.453838 0.227004 -0.014175
v -0.454190 0.230498 -0.015297
v -0.454323 0.227273 -0.015450
v -0.453052 0.224884 -0.014851
v -0.452427 0.230292 -0.014447
v -0.439544 0.277330 -0.005449
v -0.432005 0.279285 -0.006191
v -0.430828 0.268686 -0.005042
v -0.440502 0.271414 -0.001207
v -0.449729 0.362087 -0.007055
v -0.447074 0.353786 -0.004363
v -0.438642 0.356293 -0.001872
v -0.445543 0.364011 -0.005242
v -0.443958 0.343375 -0.001809
v -0.435247 0.344338 -0.000194
v -0.442838 0.366259 -0.005953
v -0.437682 0.361284 -0.003162
v -0.427328 0.362424 -0.002453
v -0.423076 0.357411 -0.001830
v -0.423817 0.344292 -0.000596
v -0.422491 0.371662 -0.009474
v -0.422658 0.365298 -0.009705
v -0.419288 0.366751 -0.004828
v -0.415474 0.367723 -0.006242
v -0.429306 0.361849 -0.006644
v -0.411104 0.368331 -0.012328
v -0.411816 0.355402 -0.006954
v -0.414753 0.342203 -0.004647
v -0.419745 0.377421 -0.013650
v -0.415950 0.366629 -0.013192
v -0.421120 0.373729 -0.013988
v -0.426833 0.374459 -0.013947
v -0.427187 0.373862 -0.010803
v -0.426749 0.377301 -0.012634
v -0.437587 0.373551 -0.010513
v -0.441492 0.371357 -0.010602
v -0.442604 0.372803 -0.012842
v -0.437039 0.373976 -0.013671
v -0.437091 0.377041 -0.013113
v -0.442018 0.378235 -0.011708
v -0.442191 0.367059 -0.009568
v -0.444737 0.367480 -0.011905
v -0.449962 0.368548 -0.011575
v -0.448881 0.374867 -0.012145
v -0.445585 0.379718 -0.011370
v -0.431976 0.377487 -0.012472
v -0.431937 0.373957 -0.010868
v -0.443335 0.375671 -0.009689
v -0.444170 0.371424 -0.008278
v -0.432057 0.374569 -0.013800
v -0.414225 0.355047 -0.012809
v -0.421827 0.356151 -0.011837
v -0.429012 0.356061 -0.010198
v -0.437884 0.361409 -0.008169
v -0.436409 0.355148 -0.010704
v -0.443380 0.353318 -0.011959
v -0.444728 0.360786 -0.011787
v -0.432075 0.291125 -0.007701
v -0.438833 0.291949 -0.007684
v -0.445737 0.292051 -0.011313
v -0.445855 0.277822 -0.010789
v -0.447688 0.264477 -0.011123
v -0.444300 0.264463 -0.005025
v -0.437910 0.288219 0.004001
v -0.444024 0.289620 0.000268
v -0.442259 0.273620 -0.000274
v -0.453206 0.264043 -0.006337
v -0.451590 0.276957 -0.004992
v -0.452047 0.292409 -0.004668
v -0.451954 0.311497 -0.012623
v -0.454542 0.293062 -0.012796
v -0.451775 0.311199 -0.004667
v -0.454187 0.278772 -0.012799
v -0.444218 0.309442 0.000658
v -0.448156 0.329722 -0.006222
v -0.443229 0.329056 -0.000097
v -0.436456 0.308554 0.004800
v -0.434796 0.329340 0.002620
v -0.429188 0.307517 0.003958
v -0.425615 0.328300 0.002318
v -0.423387 0.305956 -0.000694
v -0.418829 0.325660 -0.002275
v -0.422842 0.305089 -0.008127
v -0.417729 0.324468 -0.010134
v -0.414825 0.341549 -0.011642
v -0.425010 0.326037 -0.011878
v -0.422177 0.343126 -0.012413
v -0.432757 0.327080 -0.011392
v -0.429594 0.344371 -0.011797
v -0.439355 0.328682 -0.012120
v -0.436175 0.344263 -0.011946
v -0.446483 0.330025 -0.012589
v -0.443548 0.343329 -0.012057
v -0.447873 0.342777 -0.007325
v -0.449305 0.352444 -0.009950
v -0.449775 0.360918 -0.011249
v -0.451188 0.369325 -0.008789
v -0.450638 0.374415 -0.008921
v -0.448080 0.370537 -0.007330
v -0.447668 0.376339 -0.009025
v -0.444450 0.309671 -0.012135
v -0.437202 0.307884 -0.009438
v -0.429393 0.306493 -0.010215
v -0.426568 0.289882 -0.006080
v -0.426901 0.289696 -0.000753
v -0.428124 0.277402 -0.001227
v -0.426471 0.281408 -0.005597
v -0.431596 0.288718 0.003139
v -0.432198 0.274753 0.000725
v -0.454734 0.265057 -0.013233
v -0.449544 0.252757 -0.011669
v -0.454666 0.253223 -0.013723
v -0.454959 0.252650 -0.009091
v -0.454232 0.243689 -0.014018
v -0.455485 0.243394 -0.011133
v -0.452161 0.243011 -0.009718
v -0.450188 0.252111 -0.007533
v -0.451042 0.243339 -0.012647
v -0.452938 0.235471 -0.011555
v -0.451858 0.235836 -0.013608
v -0.454086 0.236182 -0.014659
v -0.455285 0.235871 -0.012758
vt 0.386154 0.974460
vt 0.386865 0.975102
vt 0.386023 0.975938
vt 0.385476 0.976027
vt 0.387166 0.976041
vt 0.386091 0.976662
vt 0.008008 0.034888
vt 0.006071 0.034912
vt 0.005983 0.034178
vt 0.007950 0.033048
vt 0.006162 0.031961
vt 0.005174 0.033705
vt 0.717889 0.010197
vt 0.719572 0.017190
vt 0.715720 0.015610
vt 0.709152 0.014130
vt 0.697713 0.059452
vt 0.700105 0.055315
vt 0.704731 0.057109
vt 0.699405 0.060575
vt 0.702248 0.049780
vt 0.707168 0.050861
vt 0.025544 0.122414
vt 0.023299 0.120596
vt 0.028084 0.117194
vt 0.029247 0.119641
vt 0.036526 0.608136
vt 0.031435 0.610321
vt 0.029565 0.609137
vt 0.036029 0.605056
vt 0.713535 0.051561
vt 0.713324 0.058592
vt 0.045129 0.607835
vt 0.042242 0.609131
vt 0.041163 0.605955
vt 0.042398 0.603951
vt 0.037900 0.609877
vt 0.044629 0.599885
vt 0.037537 0.596876
vt 0.719291 0.051399
vt 0.720585 0.058637
vt 0.048413 0.605094
vt 0.047939 0.599579
vt 0.052386 0.599158
vt 0.052538 0.602628
vt 0.050078 0.604031
vt 0.051145 0.606986
vt 0.052596 0.606374
vt 0.049685 0.608005
vt 0.047948 0.609063
vt 0.018080 0.133726
vt 0.017656 0.131549
vt 0.018893 0.131185
vt 0.020738 0.133380
vt 0.022971 0.132990
vt 0.022801 0.130887
vt 0.014916 0.129312
vt 0.016097 0.128277
vt 0.018456 0.126863
vt 0.020409 0.128096
vt 0.022268 0.129561
vt 0.024409 0.134593
vt 0.026222 0.131189
vt 0.026477 0.134299
vt 0.024323 0.128981
vt 0.025384 0.126403
vt 0.026766 0.128073
vt 0.022956 0.135329
vt 0.020688 0.135975
vt 0.034433 0.024471
vt 0.030167 0.024780
vt 0.028985 0.020192
vt 0.033103 0.018872
vt 0.026108 0.025350
vt 0.025658 0.021911
vt 0.029697 0.121511
vt 0.027198 0.124920
vt 0.021520 0.025946
vt 0.021292 0.022692
vt 0.010684 0.121660
vt 0.014351 0.124451
vt 0.011599 0.127166
vt 0.008101 0.124881
vt 0.034911 0.117029
vt 0.034255 0.119033
vt 0.724069 0.020676
vt 0.724832 0.016493
vt 0.392102 0.942921
vt 0.396849 0.943043
vt 0.396008 0.950581
vt 0.391712 0.950183
vt 0.390640 0.957233
vt 0.394597 0.957669
vt 0.708830 0.022357
vt 0.705093 0.021753
vt 0.708223 0.013351
vt 0.698489 0.006582
vt 0.702260 0.006891
vt 0.701485 0.013790
vt 0.699875 0.021838
vt 0.694603 0.031277
vt 0.695438 0.021253
vt 0.698759 0.031860
vt 0.697488 0.014216
vt 0.703698 0.031964
vt 0.698660 0.042303
vt 0.703283 0.042288
vt 0.708762 0.032373
vt 0.708453 0.042908
vt 0.713142 0.032341
vt 0.713863 0.043022
vt 0.717617 0.031807
vt 0.718807 0.042335
vt 0.721795 0.030740
vt 0.723319 0.041721
vt 0.723182 0.051216
vt 0.724174 0.058265
vt 0.030826 0.040086
vt 0.030180 0.031277
vt 0.034448 0.031425
vt 0.035239 0.040340
vt 0.026244 0.040188
vt 0.025839 0.031111
vt 0.022522 0.039808
vt 0.022067 0.031750
vt 0.018613 0.039834
vt 0.018432 0.032592
vt 0.018042 0.027378
vt 0.698614 0.049287
vt 0.695246 0.049330
vt 0.694918 0.042633
vt 0.696933 0.054489
vt 0.693612 0.054594
vt 0.013893 0.117118
vt 0.017100 0.124618
vt 0.695395 0.058639
vt 0.020955 0.124542
vt 0.019736 0.121076
vt 0.021463 0.126882
vt 0.023297 0.124765
vt 0.022574 0.127711
vt 0.021555 0.049679
vt 0.016926 0.049660
vt 0.026307 0.050060
vt 0.025934 0.058238
vt 0.021392 0.058703
vt 0.017732 0.058659
vt 0.030815 0.050287
vt 0.030290 0.058227
vt 0.034828 0.050737
vt 0.033861 0.058696
vt 0.715946 0.024148
vt 0.719162 0.022591
vt 0.715714 0.019371
vt 0.717970 0.019540
vt 0.712360 0.023806
vt 0.713344 0.017976
vt 0.387255 0.949309
vt 0.387644 0.942161
vt 0.386601 0.956494
vt 0.382776 0.956231
vt 0.382419 0.949531
vt 0.388815 0.962957
vt 0.385686 0.962537
vt 0.382999 0.962433
vt 0.385116 0.967239
vt 0.383077 0.967328
vt 0.389011 0.968388
vt 0.391201 0.963886
vt 0.393281 0.965627
vt 0.390746 0.969633
vt 0.397390 0.961372
vt 0.387323 0.967733
vt 0.387344 0.971846
vt 0.386085 0.971377
vt 0.384682 0.970986
vt 0.385230 0.973996
vt 0.384088 0.973846
vt 0.383356 0.973935
vt 0.383324 0.971026
vt 0.388636 0.972591
vt 0.725340 0.064382
vt 0.727396 0.063362
vt 0.052654 0.609324
vt 0.051642 0.610038
vt 0.054126 0.608368
vt 0.050053 0.610567
vt 0.005003 0.034935
vn 0.1965 -0.2674 0.9433
vn -0.9638 -0.1139 0.2411
vn -0.9321 -0.3082 0.1901
vn -0.1309 -0.5123 0.8488
vn -0.2457 0.0898 -0.9652
vn -0.4286 -0.2804 -0.8589
vn 0.4380 -0.8569 -0.2717
vn 0.9600 -0.1094 -0.2578
vn 0.3223 -0.2653 -0.9087
vn 0.1893 -0.2244 -0.9560
vn 0.3445 -0.8867 -0.3083
vn 0.1911 -0.8630 0.4677
vn -0.8289 -0.0033 0.5594
vn -0.6713 0.0186 0.7409
vn -0.1551 0.1611 0.9747
vn -0.2499 0.2293 0.9407
vn -0.5556 0.0687 0.8286
vn -0.1045 0.1367 0.9851
vn 0.3948 0.5231 0.7553
vn 0.0610 0.6623 0.7468
vn -0.1395 0.6759 0.7237
vn 0.2443 0.1408 0.9594
vn 0.2509 0.1039 0.9624
vn -0.6701 0.3124 0.6734
vn -0.6948 0.4743 -0.5407
vn -0.1756 0.4889 0.8545
vn 0.3089 0.3922 0.8665
vn -0.2445 0.8368 -0.4899
vn 0.9280 0.3583 -0.1027
vn 0.9408 -0.0278 0.3377
vn 0.8560 -0.0683 0.5124
vn 0.3275 0.8995 -0.2893
vn 0.0593 -0.0844 -0.9947
vn -0.1561 -0.1943 -0.9685
vn -0.1190 -0.4218 -0.8989
vn -0.0906 -0.5652 0.8200
vn 0.0105 0.9989 -0.0464
vn 0.4286 -0.4797 0.7657
vn 0.8688 -0.4666 0.1657
vn 0.1235 -0.2297 -0.9654
vn 0.0428 -0.4785 -0.8770
vn 0.0101 0.9579 -0.2869
vn 0.2552 0.9519 -0.1694
vn 0.9212 0.2097 -0.3276
vn 0.2394 -0.1034 -0.9654
vn -0.6614 -0.0545 -0.7481
vn -0.5922 0.3273 -0.7364
vn -0.0770 0.9835 -0.1637
vn -0.0254 0.9995 -0.0192
vn 0.0108 -0.5795 0.8149
vn 0.2742 0.3223 0.9061
vn 0.3779 0.2393 0.8944
vn 0.0257 -0.4648 -0.8851
vn 0.4577 -0.0901 -0.8845
vn -0.2170 0.1026 -0.9708
vn -0.1134 0.2599 -0.9590
vn 0.4105 0.6743 -0.6139
vn 0.1234 0.2338 -0.9644
vn -0.0867 0.0225 -0.9960
vn 0.1175 0.0454 -0.9920
vn 0.0792 -0.1420 -0.9867
vn 0.2230 -0.1203 -0.9674
vn 0.3196 -0.0617 -0.9455
vn 0.4665 -0.0797 -0.8809
vn 0.6277 -0.1220 -0.7688
vn 0.7051 -0.5110 0.4917
vn -0.1939 -0.1242 0.9731
vn -0.4885 -0.0537 0.8709
vn -0.2693 -0.2301 0.9352
vn -0.7192 -0.0706 0.6912
vn -0.7474 -0.0584 0.6618
vn -0.8112 -0.0043 0.5847
vn -0.6954 0.1042 -0.7111
vn -0.7506 0.0017 -0.6607
vn -0.8804 0.1191 0.4590
vn -0.7265 0.0028 -0.6872
vn -0.5227 0.0479 0.8511
vn -0.9587 0.1483 0.2427
vn -0.5289 0.1066 0.8420
vn -0.1768 0.0292 0.9838
vn -0.1245 0.1270 0.9841
vn 0.3580 -0.0360 0.9330
vn 0.3087 0.0701 0.9486
vn 0.8503 -0.1678 0.4989
vn 0.8353 -0.1153 0.5376
vn 0.7873 -0.2569 -0.5604
vn 0.7896 -0.2204 -0.5727
vn 0.7157 -0.1542 -0.6811
vn 0.0574 -0.0801 -0.9951
vn -0.0200 -0.0091 -0.9998
vn 0.0276 -0.0536 -0.9982
vn -0.0343 0.0496 -0.9982
vn 0.0962 -0.0310 -0.9949
vn 0.0577 0.0459 -0.9973
vn -0.5442 0.1009 -0.8329
vn -0.3323 0.0035 -0.9432
vn -0.9996 -0.0145 -0.0254
vn -0.9111 -0.1507 -0.3837
vn -0.7649 -0.1262 -0.6317
vn -0.9314 0.0889 0.3531
vn -0.8558 0.3701 0.3615
vn -0.1671 0.2356 0.9574
vn -0.3416 0.6216 0.7050
vn 0.1899 -0.0616 -0.9799
vn 0.1245 -0.1034 -0.9868
vn 0.0778 -0.1352 -0.9877
vn 0.7948 -0.1895 -0.5766
vn 0.8529 -0.1411 0.5026
vn 0.9132 -0.2953 0.2807
vn 0.8360 -0.1473 -0.5286
vn 0.3373 -0.1389 0.9311
vn 0.3067 -0.4031 0.8622
vn -0.6781 0.0672 -0.7319
vn 0.7951 -0.1324 -0.5918
vn -0.5525 0.0617 -0.8312
vn -0.8184 -0.0698 0.5704
vn -0.3966 0.0712 -0.9152
vn -0.9147 -0.0925 0.3935
vn 0.3765 -0.2683 0.8867
vn 0.5139 -0.3237 0.7944
vn 0.9022 -0.0900 -0.4217
vn 0.3035 -0.2567 0.9176
vn 0.9403 -0.0657 -0.3341
vn -0.2929 0.1020 -0.9507
vn -0.9566 -0.0907 0.2768
f 1/1/1 2/2/2 3/3/3 4/4/4
f 5/5/5 6/6/6 3/3/3 2/2/2
f 1/7/1 4/8/4 7/9/7 8/10/8
f 5/11/5 8/10/8 7/9/7 6/12/6
f 9/13/9 10/14/10 11/15/11 12/16/12
f 13/17/13 14/18/14 15/19/15 16/20/16
f 17/21/17 18/22/18 15/19/15 14/18/14
f 19/23/19 16/24/16 15/25/15 20/26/20
f 21/27/21 20/28/20 15/29/15 22/30/22
f 23/31/23 22/32/22 15/19/15 18/22/18
f 24/33/24 25/34/25 26/35/26 27/36/27
f 22/30/22 27/36/27 26/35/26 21/27/21
f 28/37/28 21/27/21 26/35/26 25/34/25
f 29/38/29 27/36/27 22/30/22 30/39/30
f 31/40/31 30/41/30 22/32/22 23/31/23
f 29/38/29 32/42/32 24/33/24 27/36/27
f 33/43/33 25/44/25 24/45/24 34/46/34
f 35/47/35 34/46/34 24/45/24 36/48/36
f 37/49/37 36/50/36 24/33/24 32/42/32
f 38/51/38 39/52/39 40/53/40 41/54/41
f 42/55/42 41/54/41 40/53/40 43/56/43
f 44/57/44 45/58/45 40/53/40 39/52/39
f 46/59/46 47/60/47 40/53/40 45/58/45
f 48/61/48 43/56/43 40/53/40 47/60/47
f 49/62/49 42/55/42 38/63/38 50/64/50
f 43/56/43 51/65/51 38/63/38 42/55/42
f 52/66/52 39/67/39 38/63/38 51/65/51
f 53/68/53 50/69/50 38/51/38 41/54/41
f 54/70/54 55/71/55 25/72/25 33/73/33
f 56/74/56 28/75/28 25/72/25 55/71/55
f 19/23/19 20/26/20 57/76/57 44/77/44
f 56/74/56 58/78/58 57/79/57 28/75/28
f 59/80/59 60/81/60 57/82/57 58/83/58
f 45/58/45 44/57/44 57/82/57 60/81/60
f 21/84/21 28/85/28 57/76/57 20/26/20
f 61/86/61 10/14/10 9/13/9 62/87/62
f 63/88/63 62/89/62 9/90/9 64/91/64
f 65/92/65 64/91/64 9/90/9 66/93/66
f 67/94/67 68/95/68 69/96/69 12/16/12
f 70/97/70 66/98/66 69/96/69 71/99/71
f 72/100/72 71/99/71 69/96/69 68/95/68
f 73/101/73 74/102/74 72/100/72 75/103/75
f 76/104/76 71/99/71 72/100/72 74/102/74
f 77/105/77 75/103/75 72/100/72 68/95/68
f 78/106/78 75/103/75 77/105/77 79/107/79
f 67/94/67 80/108/80 77/105/77 68/95/68
f 81/109/81 79/107/79 77/105/77 80/108/80
f 17/21/17 79/107/79 81/109/81 18/22/18
f 82/110/82 83/111/83 81/109/81 80/108/80
f 23/31/23 18/22/18 81/109/81 83/111/83
f 84/112/84 85/113/85 83/111/83 82/110/82
f 31/40/31 23/31/23 83/111/83 85/113/85
f 86/114/86 87/115/87 85/113/85 84/112/84
f 88/116/88 31/40/31 85/113/85 87/115/87
f 30/41/30 31/40/31 88/116/88 54/117/54
f 89/118/89 90/119/90 88/120/88 87/121/87
f 55/71/55 54/70/54 88/120/88 90/119/90
f 91/122/91 92/123/92 90/119/90 89/118/89
f 56/74/56 55/71/55 90/119/90 92/123/92
f 93/124/93 94/125/94 92/123/92 91/122/91
f 58/78/58 56/74/56 92/123/92 94/125/94
f 95/126/95 96/127/96 94/125/94 93/124/93
f 59/128/59 58/78/58 94/125/94 96/127/96
f 78/106/78 97/129/97 96/130/96 95/131/95
f 98/132/98 59/133/59 96/130/96 97/129/97
f 60/81/60 59/80/59 98/134/98 99/135/99
f 17/21/17 14/18/14 98/132/98 97/129/97
f 13/17/13 99/136/99 98/132/98 14/18/14
f 45/58/45 60/81/60 99/135/99 46/59/46
f 100/137/100 46/59/46 99/135/99 13/138/13
f 47/60/47 46/59/46 100/137/100 101/139/101
f 16/24/16 102/140/102 100/137/100 13/138/13
f 103/141/103 101/139/101 100/137/100 102/140/102
f 19/23/19 52/66/52 102/140/102 16/24/16
f 51/65/51 103/141/103 102/140/102 52/66/52
f 79/107/79 17/21/17 97/129/97 78/106/78
f 104/142/104 73/143/73 95/126/95 93/124/93
f 75/103/75 78/106/78 95/131/95 73/101/73
f 91/122/91 105/144/105 104/142/104 93/124/93
f 62/145/62 63/146/63 104/142/104 105/144/105
f 74/147/74 73/143/73 104/142/104 63/146/63
f 89/118/89 106/148/106 105/144/105 91/122/91
f 61/149/61 62/145/62 105/144/105 106/148/106
f 87/121/87 86/150/86 106/148/106 89/118/89
f 107/151/107 61/149/61 106/148/106 86/150/86
f 84/112/84 108/152/108 107/153/107 86/114/86
f 109/154/109 110/155/110 107/153/107 108/152/108
f 10/14/10 61/86/61 107/153/107 110/155/110
f 82/110/82 111/156/111 108/152/108 84/112/84
f 112/157/112 109/154/109 108/152/108 111/156/111
f 80/108/80 67/94/67 111/156/111 82/110/82
f 12/16/12 112/157/112 111/156/111 67/94/67
f 63/88/63 64/91/64 76/158/76 74/159/74
f 65/92/65 113/160/113 76/158/76 64/91/64
f 70/161/70 71/162/71 76/158/76 113/160/113
f 114/163/114 115/164/115 113/160/113 65/92/65
f 116/165/116 70/161/70 113/160/113 115/164/115
f 117/166/117 118/167/118 116/165/116 115/164/115
f 119/168/119 120/169/120 116/170/116 118/171/118
f 66/93/66 70/172/70 116/170/116 120/169/120
f 121/173/121 114/163/114 120/169/120 119/168/119
f 65/92/65 66/93/66 120/169/120 114/163/114
f 122/174/122 123/175/123 121/173/121 119/168/119
f 124/176/124 117/166/117 121/173/121 123/175/123
f 115/164/115 114/163/114 121/173/121 117/166/117
f 8/177/8 5/178/5 124/176/124 123/175/123
f 2/179/2 125/180/125 124/176/124 5/178/5
f 118/167/118 117/166/117 124/176/124 125/180/125
f 1/1/1 122/174/122 125/181/125 2/2/2
f 119/168/119 118/171/118 125/181/125 122/174/122
f 1/1/1 8/177/8 123/175/123 122/174/122
f 29/182/29 30/41/30 54/117/54 33/183/33
f 42/55/42 49/62/49 53/68/53 41/54/41
f 37/49/37 35/47/35 53/184/53 49/185/49
f 36/48/36 50/186/50 53/184/53 35/47/35
f 44/77/44 39/67/39 52/66/52 19/23/19
f 48/61/48 103/141/103 51/65/51 43/56/43
f 36/50/36 37/49/37 49/185/49 50/187/50
f 34/46/34 35/47/35 37/49/37 32/42/32
f 32/42/32 29/38/29 33/43/33 34/46/34
f 7/9/7 4/8/4 3/188/3 6/12/6
f 110/155/110 109/154/109 11/15/11 10/14/10
f 103/141/103 48/61/48 47/60/47 101/139/101
f 9/13/9 12/16/12 69/96/69 66/98/66
f 11/15/11 109/154/109 112/157/112
f 11/15/11 112/157/112 12/16/12
