# split from a merged terrain OBJ by scripts/split-terrain-obj-parts.py
o part-062
v 0.678000 1.161912 -0.021680
v 0.678094 1.161802 -0.020914
v 0.678475 1.161305 -0.021093
v 0.678576 1.161266 -0.021663
v 0.677790 1.161029 -0.021650
v 0.677820 1.161208 -0.020980
v 0.677784 1.161556 -0.020412
v 0.677534 1.162149 -0.020684
v 0.677697 1.162035 -0.019973
v 0.677093 1.161403 -0.020161
v 0.677087 1.162033 -0.019758
v 0.676829 1.162416 -0.020487
v 0.676058 1.162455 -0.020176
v 0.675372 1.162267 -0.019944
v 0.675746 1.162032 -0.019447
v 0.676395 1.162032 -0.019592
v 0.676357 1.161352 -0.019973
v 0.675597 1.161411 -0.019870
v 0.674804 1.161573 -0.019832
v 0.675495 1.160723 -0.021282
v 0.674696 1.160822 -0.021180
v 0.674731 1.160828 -0.022056
v 0.675427 1.160827 -0.022217
v 0.674003 1.161066 -0.021114
v 0.674624 1.161449 -0.021829
v 0.675354 1.161487 -0.022179
v 0.674756 1.161937 -0.021226
v 0.674035 1.161472 -0.020554
v 0.674178 1.161811 -0.020098
v 0.674976 1.162241 -0.020603
v 0.674722 1.161054 -0.020445
v 0.675522 1.160981 -0.020529
v 0.676288 1.161012 -0.020662
v 0.676252 1.160806 -0.021414
v 0.677055 1.161102 -0.020817
v 0.677004 1.160893 -0.021550
v 0.676167 1.160900 -0.022287
v 0.676945 1.160905 -0.022289
v 0.677758 1.160964 -0.022170
v 0.676137 1.161536 -0.022443
v 0.676970 1.161435 -0.022520
v 0.677597 1.161405 -0.022454
v 0.676315 1.161949 -0.021892
v 0.677094 1.161748 -0.022057
v 0.677915 1.161600 -0.022128
v 0.676547 1.162264 -0.021206
v 0.677297 1.162105 -0.021433
v 0.675506 1.162020 -0.021616
v 0.675751 1.162338 -0.020929
v 0.678505 1.161193 -0.022021
vt 0.626279 0.967169
vt 0.625842 0.967236
vt 0.625854 0.966888
vt 0.626228 0.966758
vt 0.686685 0.027827
vt 0.686644 0.027419
vt 0.686983 0.027447
vt 0.687064 0.027779
vt 0.687423 0.027735
vt 0.687355 0.027413
vt 0.625862 0.967602
vt 0.625478 0.967652
vt 0.625484 0.967306
vt 0.687564 0.028095
vt 0.687784 0.027672
vt 0.687937 0.028020
vt 0.625930 0.968001
vt 0.625489 0.968032
vt 0.625959 0.968430
vt 0.625995 0.968834
vt 0.625655 0.968767
vt 0.625537 0.968437
vt 0.687680 0.028489
vt 0.688059 0.028368
vt 0.688148 0.028706
vt 0.687817 0.028896
vt 0.625906 0.969318
vt 0.625548 0.969155
vt 0.686982 0.029028
vt 0.687073 0.029436
vt 0.686608 0.029437
vt 0.686495 0.029093
vt 0.687126 0.029822
vt 0.686412 0.029734
vt 0.686186 0.029261
vt 0.626801 0.968812
vt 0.626760 0.969360
vt 0.626371 0.969371
vt 0.626406 0.968839
vt 0.687487 0.029387
vt 0.687932 0.029312
vt 0.687855 0.029717
vt 0.687528 0.029811
vt 0.627209 0.968708
vt 0.627172 0.969259
vt 0.687400 0.028970
vt 0.687288 0.028571
vt 0.686881 0.028623
vt 0.687186 0.028166
vt 0.686781 0.028235
vt 0.686422 0.028706
vt 0.686389 0.028293
vt 0.686395 0.027852
vt 0.686080 0.028767
vt 0.686082 0.028307
vt 0.686112 0.027963
vt 0.626753 0.967916
vt 0.626655 0.967502
vt 0.626978 0.967423
vt 0.627131 0.967857
vt 0.626582 0.967077
vt 0.626856 0.967107
vt 0.626339 0.967973
vt 0.626273 0.967560
vt 0.626801 0.968361
vt 0.626383 0.968410
vt 0.627222 0.968285
vt 0.626488 0.966741
vt 0.686433 0.027469
vt 0.626898 0.966834
vn 0.4655 0.8373 -0.2867
vn 0.7950 0.5122 0.3250
vn 0.8693 -0.3003 0.3926
vn 0.9674 -0.2424 -0.0731
vn 0.2079 -0.9675 0.1442
vn 0.3538 -0.8260 0.4387
vn 0.6680 -0.3710 0.6451
vn 0.4685 0.8807 0.0693
vn 0.6443 0.3249 0.6923
vn 0.2625 -0.7276 0.6338
vn 0.3798 0.2821 0.8810
vn 0.1691 0.9828 0.0737
vn 0.0002 0.9787 0.2054
vn -0.2710 0.7730 0.5736
vn -0.0663 0.2141 0.9746
vn 0.2031 0.2491 0.9469
vn 0.1516 -0.7283 0.6683
vn -0.0744 -0.6106 0.7884
vn -0.4306 -0.1749 0.8854
vn 0.0183 -0.9937 0.1109
vn -0.3719 -0.9265 0.0573
vn -0.4567 -0.6150 -0.6428
vn -0.1781 -0.6715 -0.7193
vn -0.9477 -0.2968 -0.1170
vn -0.6559 0.3001 -0.6927
vn -0.2990 0.4277 -0.8530
vn -0.5081 0.7715 -0.3830
vn -0.9793 -0.0327 0.1997
vn -0.8083 0.3177 0.4957
vn -0.3969 0.9178 -0.0035
vn -0.2615 -0.8243 0.5022
vn 0.0088 -0.9030 0.4294
vn 0.1307 -0.9222 0.3639
vn 0.1087 -0.9899 0.0906
vn 0.2040 -0.9161 0.3452
vn 0.1314 -0.9846 0.1153
vn -0.0449 -0.7346 -0.6771
vn 0.0647 -0.8150 -0.5759
vn 0.3138 -0.7875 -0.5305
vn -0.1230 0.3612 -0.9244
vn 0.0655 0.2481 -0.9665
vn 0.2296 0.2082 -0.9507
vn -0.0288 0.8507 -0.5249
vn 0.0793 0.8318 -0.5493
vn 0.3832 0.5729 -0.7245
vn 0.0613 0.9454 -0.3202
vn 0.1976 0.9262 -0.3210
vn -0.2191 0.8465 -0.4852
vn -0.1312 0.9633 -0.2342
vn 0.7955 -0.3148 -0.5178
f 1/1/1 2/2/2 3/3/3 4/4/4
f 5/5/5 4/6/4 3/7/3 6/8/6
f 7/9/7 6/8/6 3/7/3 2/10/2
f 2/2/2 8/11/8 9/12/9 7/13/7
f 10/14/10 7/9/7 9/15/9 11/16/11
f 12/17/12 11/18/11 9/12/9 8/11/8
f 13/19/13 14/20/14 15/21/15 16/22/16
f 17/23/17 16/24/16 15/25/15 18/26/18
f 19/27/19 18/28/18 15/21/15 14/20/14
f 20/29/20 21/30/21 22/31/22 23/32/23
f 24/33/24 25/34/25 22/31/22 21/30/21
f 26/35/26 23/32/23 22/31/22 25/34/25
f 27/36/27 28/37/28 29/38/29 30/39/30
f 31/40/31 19/41/19 29/42/29 28/43/28
f 14/20/14 30/39/30 29/38/29 19/27/19
f 31/40/31 28/43/28 24/33/24 21/30/21
f 27/36/27 25/44/25 24/45/24 28/37/28
f 18/26/18 19/41/19 31/40/31 32/46/32
f 20/29/20 32/46/32 31/40/31 21/30/21
f 17/23/17 18/26/18 32/46/32 33/47/33
f 34/48/34 33/47/33 32/46/32 20/29/20
f 35/49/35 33/47/33 34/48/34 36/50/36
f 23/32/23 37/51/37 34/48/34 20/29/20
f 38/52/38 36/50/36 34/48/34 37/51/37
f 5/5/5 36/50/36 38/52/38 39/53/39
f 40/54/40 41/55/41 38/52/38 37/51/37
f 42/56/42 39/53/39 38/52/38 41/55/41
f 43/57/43 44/58/44 41/59/41 40/60/40
f 45/61/45 42/62/42 41/59/41 44/58/44
f 46/63/46 47/64/47 44/58/44 43/57/43
f 1/1/1 45/61/45 44/58/44 47/64/47
f 12/17/12 8/11/8 47/64/47 46/63/46
f 2/2/2 1/1/1 47/64/47 8/11/8
f 48/65/48 49/66/49 46/63/46 43/57/43
f 13/19/13 12/17/12 46/63/46 49/66/49
f 27/36/27 30/39/30 49/66/49 48/65/48
f 14/20/14 13/19/13 49/66/49 30/39/30
f 40/60/40 26/67/26 48/65/48 43/57/43
f 25/44/25 27/36/27 48/65/48 26/67/26
f 23/32/23 26/35/26 40/54/40 37/51/37
f 7/9/7 10/14/10 35/49/35 6/8/6
f 17/23/17 33/47/33 35/49/35 10/14/10
f 5/5/5 6/8/6 35/49/35 36/50/36
f 11/16/11 16/24/16 17/23/17 10/14/10
f 11/18/11 12/17/12 13/19/13 16/22/16
f 4/4/4 50/68/50 45/61/45 1/1/1
f 4/6/4 5/5/5 39/53/39 50/69/50
f 42/62/42 45/61/45 50/68/50 39/70/39
