# split from a merged terrain OBJ by scripts/split-terrain-obj-parts.py
o part-059
v 0.326692 0.935442 0.057466
v 0.326490 0.932305 0.056231
v 0.330786 0.932279 0.055063
v 0.330289 0.935895 0.057244
v 0.324493 0.930553 0.051977
v 0.328524 0.932348 0.050673
v 0.329091 0.936355 0.051303
v 0.324932 0.937050 0.053421
v 0.322021 0.930686 0.047803
v 0.319424 0.932017 0.044061
v 0.323451 0.932499 0.042088
v 0.326132 0.932612 0.046046
v 0.326545 0.936280 0.046211
v 0.322161 0.934892 0.040765
v 0.317450 0.934416 0.041561
v 0.308657 0.932236 0.061207
v 0.308001 0.935818 0.059185
v 0.304040 0.933365 0.054956
v 0.306924 0.930488 0.058362
v 0.312570 0.936600 0.054783
v 0.309683 0.937241 0.049853
v 0.305757 0.929321 0.056281
v 0.304785 0.931424 0.053608
v 0.305963 0.931719 0.049147
v 0.308247 0.930053 0.052999
v 0.310090 0.930057 0.056121
v 0.315776 0.930567 0.056347
v 0.312209 0.930590 0.059165
v 0.313642 0.930004 0.052875
v 0.311397 0.930365 0.049356
v 0.317626 0.930197 0.050130
v 0.315146 0.931203 0.046402
v 0.308884 0.932414 0.045618
v 0.312961 0.933449 0.043108
v 0.307022 0.936951 0.043622
v 0.311477 0.937380 0.041408
v 0.315400 0.936950 0.040244
v 0.314184 0.938015 0.046505
v 0.318128 0.938671 0.043926
v 0.317289 0.937174 0.051416
v 0.322080 0.937849 0.048839
v 0.319958 0.936229 0.055191
v 0.315538 0.935812 0.058439
v 0.318003 0.934366 0.061023
v 0.321916 0.934490 0.058342
v 0.317967 0.932048 0.060048
v 0.321957 0.932243 0.057702
v 0.319988 0.930418 0.053993
v 0.314909 0.934749 0.063049
v 0.314315 0.932222 0.062570
v 0.311396 0.935524 0.062078
v 0.303654 0.935230 0.045847
v 0.310706 0.932755 0.063111
vt 0.021677 0.943612
vt 0.021320 0.945634
vt 0.019378 0.945032
vt 0.019993 0.943564
vt 0.018475 0.947631
vt 0.017328 0.945373
vt 0.017587 0.942848
vt 0.019120 0.941043
vt 0.014947 0.947938
vt 0.011608 0.947590
vt 0.012656 0.945241
vt 0.014945 0.945017
vt 0.015236 0.942719
vt 0.011990 0.943673
vt 0.009545 0.944799
vt 0.990393 0.134937
vt 0.989752 0.137385
vt 0.987163 0.136145
vt 0.988520 0.134241
vt 0.988897 0.140742
vt 0.984816 0.140177
vt 0.987246 0.133651
vt 0.985940 0.134433
vt 0.983410 0.133502
vt 0.985909 0.132314
vt 0.988399 0.132135
vt 0.991166 0.131615
vt 0.991156 0.133309
vt 0.986552 0.130092
vt 0.984192 0.130413
vt 0.985991 0.126599
vt 0.981937 0.130154
vt 0.981212 0.134073
vt 0.978853 0.134063
vt 0.979963 0.130140
vt 0.977725 0.132875
vt 0.981066 0.137688
vt 0.978777 0.139108
vt 0.008972 0.942697
vt 0.006608 0.944236
vt 0.006532 0.941367
vt 0.983571 0.142936
vt 0.981637 0.144981
vt 0.978804 0.141466
vt 0.989322 0.143782
vt 0.987323 0.146745
vt 0.012196 0.939933
vt 0.016082 0.938229
vt 0.022648 0.940991
vt 0.020235 0.938746
vt 0.992280 0.139380
vt 0.993211 0.142016
vt 0.994513 0.136458
vt 0.994991 0.139819
vt 0.023860 0.944387
vt 0.024919 0.946847
vt 0.023340 0.946756
vt 0.025802 0.946470
vt 0.989275 0.129515
vt 0.992691 0.130832
vt 0.993973 0.134363
vt 0.019641 0.949522
vt 0.015233 0.950240
vt 0.993029 0.136069
vt 0.992546 0.134994
vt 0.991651 0.136897
vt 0.983079 0.136034
vt 0.012333 0.950593
vt 0.991393 0.135445
vn 0.1809 0.4422 0.8785
vn 0.2336 -0.7545 0.6133
vn 0.7998 -0.5602 0.2157
vn 0.6905 0.3852 0.6122
vn 0.2043 -0.9783 0.0357
vn 0.7504 -0.5968 -0.2840
vn 0.7271 0.6504 -0.2201
vn 0.0626 0.9780 0.1991
vn 0.1354 -0.9702 -0.2010
vn -0.0305 -0.8741 -0.4848
vn 0.4246 -0.6166 -0.6630
vn 0.6763 -0.5638 -0.4740
vn 0.7033 0.5608 -0.4369
vn 0.3666 0.1262 -0.9218
vn -0.0466 -0.3860 -0.9213
vn -0.5625 -0.3876 0.7304
vn -0.5332 0.7234 0.4387
vn -0.9202 0.2762 0.2775
vn -0.5236 -0.6690 0.5275
vn -0.0963 0.9845 0.1464
vn -0.2398 0.9643 0.1120
vn -0.5032 -0.8478 0.1672
vn -0.7630 -0.6425 -0.0701
vn -0.5279 -0.7740 -0.3495
vn -0.1446 -0.9773 -0.1549
vn 0.0566 -0.9872 0.1490
vn 0.1264 -0.9726 0.1952
vn 0.0373 -0.9492 0.3124
vn 0.0284 -0.9995 -0.0142
vn -0.0948 -0.9603 -0.2623
vn 0.0225 -0.9935 -0.1119
vn -0.0591 -0.9184 -0.3912
vn -0.2789 -0.7521 -0.5971
vn -0.2117 -0.6865 -0.6956
vn -0.6300 0.4490 -0.6336
vn -0.3865 0.4571 -0.8010
vn -0.1363 0.3686 -0.9195
vn -0.0826 0.9958 0.0394
vn 0.1035 0.9467 -0.3051
vn -0.0171 0.9804 0.1961
vn 0.1343 0.9909 0.0009
vn 0.0323 0.9523 0.3035
vn 0.1122 0.9650 0.2370
vn 0.4959 0.4067 0.7673
vn 0.3145 0.4134 0.8545
vn 0.3877 -0.6943 0.6063
vn 0.3029 -0.6975 0.6495
vn 0.1116 -0.9787 0.1724
vn 0.3043 0.4675 0.8300
vn 0.1803 -0.5816 0.7932
vn -0.1861 0.7180 0.6707
vn -0.9045 0.1626 -0.3942
vn -0.3373 -0.3038 0.8910
f 1/1/1 2/2/2 3/3/3 4/4/4
f 5/5/5 6/6/6 3/3/3 2/2/2
f 7/7/7 4/4/4 3/3/3 6/6/6
f 8/8/8 1/1/1 4/4/4 7/7/7
f 9/9/9 10/10/10 11/11/11 12/12/12
f 13/13/13 12/12/12 11/11/11 14/14/14
f 15/15/15 14/14/14 11/11/11 10/10/10
f 16/16/16 17/17/17 18/18/18 19/19/19
f 20/20/20 21/21/21 18/18/18 17/17/17
f 22/22/22 19/19/19 18/18/18 23/23/23
f 24/24/24 25/25/25 22/22/22 23/23/23
f 26/26/26 19/19/19 22/22/22 25/25/25
f 27/27/27 28/28/28 26/26/26 29/29/29
f 16/16/16 19/19/19 26/26/26 28/28/28
f 30/30/30 29/29/29 26/26/26 25/25/25
f 31/31/31 29/29/29 30/30/30 32/32/32
f 24/24/24 33/33/33 30/30/30 25/25/25
f 34/34/34 32/32/32 30/30/30 33/33/33
f 10/35/10 32/32/32 34/34/34 15/36/15
f 35/37/35 36/38/36 34/34/34 33/33/33
f 37/39/37 15/15/15 34/40/34 36/41/36
f 21/21/21 38/42/38 36/38/36 35/37/35
f 39/43/39 37/44/37 36/38/36 38/42/38
f 20/20/20 40/45/40 38/42/38 21/21/21
f 41/46/41 39/43/39 38/42/38 40/45/40
f 14/14/14 39/47/39 41/48/41 13/13/13
f 42/49/42 8/8/8 41/48/41 40/50/40
f 7/7/7 13/13/13 41/48/41 8/8/8
f 20/20/20 43/51/43 42/52/42 40/45/40
f 44/53/44 45/54/45 42/52/42 43/51/43
f 1/1/1 8/8/8 42/49/42 45/55/45
f 46/56/46 47/57/47 45/55/45 44/58/44
f 2/2/2 1/1/1 45/55/45 47/57/47
f 27/27/27 48/59/48 47/60/47 46/61/46
f 5/5/5 2/2/2 47/57/47 48/62/48
f 29/29/29 31/31/31 48/59/48 27/27/27
f 9/9/9 5/5/5 48/62/48 31/63/31
f 49/64/49 50/65/50 46/61/46 44/53/44
f 28/28/28 27/27/27 46/61/46 50/65/50
f 51/66/51 49/64/49 44/53/44 43/51/43
f 17/17/17 51/66/51 43/51/43 20/20/20
f 24/24/24 52/67/52 35/37/35 33/33/33
f 18/18/18 21/21/21 35/37/35 52/67/52
f 10/10/10 9/9/9 31/63/31 32/68/32
f 53/69/53 16/16/16 28/28/28 50/65/50
f 53/69/53 51/66/51 17/17/17 16/16/16
f 6/6/6 12/12/12 13/13/13 7/7/7
f 6/6/6 5/5/5 9/9/9 12/12/12
f 37/39/37 39/47/39 14/14/14 15/15/15
f 53/69/53 50/65/50 49/64/49 51/66/51
f 24/24/24 23/23/23 18/18/18 52/67/52
