# split from a merged terrain OBJ by scripts/split-terrain-obj-parts.py
o part-074
v -0.776345 0.948219 -0.102214
v -0.774827 0.948604 -0.098000
v -0.775824 0.945680 -0.098315
v -0.776524 0.943185 -0.101576
v -0.779856 0.941207 -0.099017
v -0.778420 0.945286 -0.096534
v -0.777091 0.949705 -0.095089
v -0.779526 0.951716 -0.099571
v -0.781637 0.948596 -0.093040
v -0.781365 0.945141 -0.095095
v -0.786527 0.947532 -0.093983
v -0.783848 0.943371 -0.096773
v -0.787389 0.953057 -0.101269
v -0.791392 0.951321 -0.098416
v -0.787184 0.952637 -0.094834
v -0.783306 0.953329 -0.096145
v -0.790516 0.946183 -0.097776
v -0.783322 0.939870 -0.102196
v -0.786935 0.942470 -0.099563
v -0.789212 0.941899 -0.102197
v -0.787049 0.939928 -0.105236
v -0.792515 0.944489 -0.102351
v -0.792033 0.941047 -0.107203
v -0.792357 0.943275 -0.115099
v -0.792954 0.948324 -0.111009
v -0.789334 0.948443 -0.111510
v -0.787697 0.944761 -0.114664
v -0.782930 0.946034 -0.110892
v -0.786791 0.949846 -0.108109
v -0.791296 0.951250 -0.105919
v -0.789199 0.940048 -0.111620
v -0.794290 0.941427 -0.112777
v -0.795972 0.944725 -0.108757
v -0.795050 0.948783 -0.103519
v -0.783313 0.940384 -0.109757
v -0.778897 0.941360 -0.106171
v -0.779260 0.947276 -0.106826
v -0.783134 0.951157 -0.103847
vt 0.009043 0.418942
vt 0.010324 0.417531
vt 0.010825 0.418975
vt 0.010485 0.421155
vt 0.012397 0.421839
vt 0.012221 0.419142
vt 0.011571 0.416375
vt 0.008153 0.415061
vt 0.014089 0.416718
vt 0.013629 0.419044
vt 0.016191 0.418345
vt 0.014485 0.420803
vt 0.015159 0.014735
vt 0.012596 0.016572
vt 0.011257 0.015059
vt 0.012076 0.013642
vt 0.013384 0.413436
vt 0.017110 0.414688
vt 0.018231 0.421415
vt 0.019815 0.419376
vt 0.013205 0.424438
vt 0.015665 0.422950
vt 0.016307 0.424833
vt 0.014214 0.426640
vt 0.018611 0.424415
vt 0.017075 0.427817
vt 0.024406 0.015074
vt 0.021674 0.016254
vt 0.021065 0.014322
vt 0.023555 0.013071
vt 0.022765 0.009944
vt 0.019089 0.013346
vt 0.018568 0.016832
vt 0.026504 0.012858
vt 0.025463 0.015978
vt 0.023531 0.018856
vt 0.027816 0.017005
vt 0.020256 0.019158
vt 0.021390 0.423572
vt 0.020520 0.427818
vt 0.022541 0.418866
vt 0.023659 0.422582
vt 0.029212 0.013687
vt 0.027725 0.009118
vt 0.009581 0.427893
vt 0.010137 0.424193
vt 0.007777 0.421473
vt 0.006640 0.425169
vt 0.016119 0.012182
vt 0.018776 0.009093
vt 0.006735 0.417739
vt 0.013297 0.011146
vn 0.8279 0.4027 -0.3904
vn 0.9519 0.2457 0.1831
vn 0.8555 -0.4102 0.3159
vn 0.8478 -0.5263 -0.0645
vn 0.2968 -0.8455 0.4439
vn 0.4803 -0.5300 0.6989
vn 0.6845 0.3465 0.6414
vn 0.4297 0.8977 -0.0972
vn 0.2343 0.0572 0.9705
vn 0.1725 -0.5621 0.8089
vn -0.3483 -0.2226 0.9105
vn -0.1331 -0.7132 0.6882
vn -0.1044 0.9807 -0.1655
vn -0.7243 0.5328 0.4377
vn -0.3875 0.6314 0.6717
vn 0.1068 0.9132 0.3932
vn -0.6447 -0.3907 0.6570
vn 0.0348 -0.9721 0.2318
vn -0.3492 -0.7747 0.5272
vn -0.4298 -0.7895 0.4381
vn -0.1550 -0.9731 0.1707
vn -0.6906 -0.5339 0.4879
vn -0.4901 -0.8354 0.2489
vn -0.2995 -0.0584 -0.9523
vn -0.4822 0.6849 -0.5462
vn 0.0735 0.7720 -0.6313
vn 0.2690 0.1149 -0.9563
vn 0.5574 0.2829 -0.7805
vn 0.1995 0.8379 -0.5081
vn -0.3316 0.8997 -0.2838
vn 0.0253 -0.9074 -0.4196
vn -0.6750 -0.5509 -0.4907
vn -0.9914 -0.1109 -0.0697
vn -0.9311 0.2963 0.2126
vn 0.4178 -0.7521 -0.5098
vn 0.6797 -0.6171 -0.3965
vn 0.6763 0.3903 -0.6247
vn 0.2870 0.8605 -0.4208
f 1/1/1 2/2/2 3/3/3 4/4/4
f 5/5/5 4/4/4 3/3/3 6/6/6
f 7/7/7 6/6/6 3/3/3 2/2/2
f 8/8/8 7/7/7 2/2/2 1/1/1
f 7/7/7 9/9/9 10/10/10 6/6/6
f 11/11/11 12/12/12 10/10/10 9/9/9
f 5/5/5 6/6/6 10/10/10 12/12/12
f 13/13/13 14/14/14 15/15/15 16/16/16
f 9/9/9 16/17/16 15/18/15 11/11/11
f 17/19/17 11/11/11 15/18/15 14/20/14
f 18/21/18 19/22/19 20/23/20 21/24/21
f 17/19/17 22/25/22 20/23/20 19/22/19
f 23/26/23 21/24/21 20/23/20 22/25/22
f 24/27/24 25/28/25 26/29/26 27/30/27
f 28/31/28 27/30/27 26/29/26 29/32/29
f 30/33/30 29/32/29 26/29/26 25/28/25
f 31/34/31 32/35/32 24/27/24 27/30/27
f 33/36/33 25/28/25 24/27/24 32/35/32
f 23/37/23 33/36/33 32/35/32 31/34/31
f 30/33/30 25/28/25 33/36/33 34/38/34
f 22/25/22 34/39/34 33/40/33 23/26/23
f 13/41/13 30/42/30 34/39/34 14/20/14
f 17/19/17 14/20/14 34/39/34 22/25/22
f 21/43/21 23/37/23 31/34/31 35/44/35
f 28/31/28 35/44/35 31/34/31 27/30/27
f 18/21/18 21/24/21 35/45/35 36/46/36
f 37/47/37 36/46/36 35/45/35 28/48/28
f 4/4/4 36/46/36 37/47/37 1/1/1
f 29/32/29 38/49/38 37/50/37 28/31/28
f 8/8/8 1/1/1 37/47/37 38/51/38
f 30/33/30 13/13/13 38/49/38 29/32/29
f 16/16/16 8/52/8 38/49/38 13/13/13
f 5/5/5 18/21/18 36/46/36 4/4/4
f 11/11/11 17/19/17 19/22/19 12/12/12
f 5/5/5 12/12/12 19/22/19 18/21/18
f 7/7/7 8/8/8 16/17/16 9/9/9
