# split from a merged terrain OBJ by scripts/split-terrain-obj-parts.py
o part-055
v 0.703650 1.167765 -0.128175
v 0.702678 1.169076 -0.122776
v 0.701522 1.166289 -0.123234
v 0.701552 1.165019 -0.126916
v 0.697288 1.164633 -0.124469
v 0.698591 1.166726 -0.120438
v 0.698972 1.169684 -0.119298
v 0.700512 1.170379 -0.123981
v 0.697628 1.171312 -0.122691
v 0.697152 1.172024 -0.127661
v 0.700811 1.170417 -0.128117
v 0.696861 1.162632 -0.136048
v 0.693260 1.163593 -0.140054
v 0.697033 1.164271 -0.142448
v 0.699829 1.164588 -0.138106
v 0.690383 1.164604 -0.142784
v 0.693890 1.166735 -0.141661
v 0.697751 1.168239 -0.137625
v 0.689919 1.164313 -0.137289
v 0.687728 1.166355 -0.140639
v 0.690839 1.169073 -0.140172
v 0.693106 1.165565 -0.122518
v 0.689211 1.167145 -0.122582
v 0.689572 1.165253 -0.125264
v 0.692208 1.164217 -0.126719
v 0.685391 1.168714 -0.124807
v 0.687188 1.165996 -0.127680
v 0.689941 1.164409 -0.130745
v 0.693443 1.173175 -0.127062
v 0.689641 1.173885 -0.126034
v 0.690647 1.173082 -0.122671
v 0.693889 1.172319 -0.122511
v 0.685556 1.174116 -0.123864
v 0.689024 1.172672 -0.119560
v 0.694289 1.171362 -0.118317
v 0.688801 1.174563 -0.129604
v 0.687806 1.174982 -0.133343
v 0.684525 1.175624 -0.131736
v 0.684911 1.175010 -0.127754
v 0.685552 1.173835 -0.136797
v 0.683862 1.175282 -0.135589
v 0.682239 1.173765 -0.127127
v 0.682101 1.174285 -0.130435
v 0.683838 1.171920 -0.122947
v 0.682527 1.172696 -0.132771
v 0.683052 1.170525 -0.128675
v 0.683700 1.170634 -0.135183
v 0.684763 1.167696 -0.131217
v 0.685609 1.168459 -0.137994
v 0.687196 1.165563 -0.134476
v 0.693044 1.163185 -0.133318
v 0.695586 1.163277 -0.128929
v 0.699707 1.163440 -0.131525
v 0.702368 1.165825 -0.133180
v 0.699918 1.169296 -0.132816
v 0.694707 1.171122 -0.136600
v 0.696424 1.172053 -0.132160
v 0.691314 1.173257 -0.135187
v 0.692628 1.173537 -0.131160
v 0.688065 1.171513 -0.138512
v 0.688222 1.170181 -0.118994
v 0.693939 1.168468 -0.118547
vt 0.983052 0.715978
vt 0.986641 0.714512
vt 0.986516 0.715877
vt 0.984611 0.717163
vt 0.986975 0.718150
vt 0.988798 0.716540
vt 0.990098 0.715402
vt 0.977626 0.855211
vt 0.979137 0.852979
vt 0.979970 0.854318
vt 0.979503 0.856107
vt 0.982116 0.856136
vt 0.982090 0.853924
vt 0.981777 0.851798
vt 0.982361 0.722250
vt 0.982197 0.725343
vt 0.979979 0.724870
vt 0.980392 0.721548
vt 0.982296 0.727673
vt 0.980140 0.727168
vt 0.987559 0.854231
vt 0.988045 0.851944
vt 0.990686 0.852979
vt 0.990428 0.855325
vt 0.984393 0.725734
vt 0.984313 0.728226
vt 0.989840 0.857733
vt 0.992252 0.856524
vt 0.991815 0.857886
vt 0.989210 0.719366
vt 0.990746 0.721008
vt 0.989141 0.721661
vt 0.987615 0.721071
vt 0.991360 0.723353
vt 0.989112 0.723476
vt 0.986865 0.723362
vt 0.982057 0.858285
vt 0.981757 0.860350
vt 0.979898 0.860010
vt 0.979645 0.858222
vt 0.980615 0.862472
vt 0.978281 0.860990
vt 0.977414 0.858253
vt 0.983721 0.860703
vt 0.985859 0.860987
vt 0.985200 0.862727
vt 0.982898 0.862732
vt 0.989726 0.731414
vt 0.990577 0.729954
vt 0.992860 0.728982
vt 0.992352 0.731070
vt 0.993061 0.726232
vt 0.994403 0.726845
vt 0.992096 0.727765
vt 0.994771 0.723881
vt 0.993373 0.723557
vt 0.990651 0.728171
vt 0.991089 0.725891
vt 0.988718 0.728664
vt 0.988811 0.725877
vt 0.986606 0.728735
vt 0.986436 0.725966
vt 0.984705 0.722882
vt 0.985587 0.720354
vt 0.983188 0.719512
vt 0.981397 0.718557
vt 0.984701 0.854006
vt 0.984954 0.851678
vt 0.987109 0.856554
vt 0.984530 0.856363
vt 0.986559 0.858792
vt 0.984295 0.858563
vt 0.988997 0.859736
vt 0.988054 0.861496
vt 0.987289 0.731367
vt 0.984692 0.730341
vt 0.994761 0.720283
vt 0.993138 0.720307
vt 0.992931 0.717300
vt 0.991346 0.717843
vn 0.9928 0.0961 -0.0715
vn 0.8653 0.2692 0.4229
vn 0.6028 -0.6629 0.4441
vn 0.5741 -0.7928 0.2044
vn 0.0951 -0.9284 0.3593
vn 0.2971 -0.6438 0.7052
vn 0.5037 0.3341 0.7966
vn 0.4672 0.8771 0.1116
vn 0.3450 0.9207 0.1825
vn 0.3759 0.9266 -0.0034
vn 0.5656 0.8144 -0.1302
vn 0.1530 -0.9838 -0.0938
vn -0.1164 -0.9141 -0.3885
vn 0.5063 -0.3077 -0.8056
vn 0.7885 -0.2912 -0.5416
vn -0.3719 -0.3876 -0.8434
vn 0.2167 0.3505 -0.9111
vn 0.5532 0.6443 -0.5281
vn -0.4397 -0.8951 -0.0746
vn -0.6378 -0.2846 -0.7157
vn -0.0077 0.6115 -0.7912
vn -0.1552 -0.8621 0.4824
vn -0.4328 -0.7593 0.4860
vn -0.3913 -0.8605 0.3263
vn -0.2155 -0.9453 0.2447
vn -0.7059 -0.6278 0.3281
vn -0.5658 -0.8027 0.1886
vn -0.3788 -0.9223 0.0764
vn 0.2732 0.9582 0.0856
vn 0.1970 0.9687 0.1511
vn 0.1875 0.9636 0.1903
vn 0.2573 0.9485 0.1850
vn -0.2342 0.8782 0.4170
vn -0.1439 0.7129 0.6863
vn 0.1830 0.5491 0.8155
vn 0.2330 0.9702 0.0671
vn 0.2550 0.9442 -0.2087
vn -0.2312 0.9716 -0.0502
vn -0.1389 0.9656 0.2197
vn -0.3072 0.6156 -0.7257
vn -0.4970 0.6955 -0.5189
vn -0.8966 0.3432 0.2798
vn -0.8957 0.4437 0.0279
vn -0.8167 0.0307 0.5762
vn -0.9717 -0.0051 -0.2361
vn -0.8873 -0.4531 0.0860
vn -0.8591 -0.2490 -0.4471
vn -0.7632 -0.6461 -0.0030
vn -0.7682 -0.2362 -0.5950
vn -0.6138 -0.7868 -0.0650
vn -0.2032 -0.9784 0.0389
vn -0.0143 -0.9820 0.1885
vn 0.4024 -0.9144 0.0446
vn 0.9340 -0.1521 -0.3232
vn 0.6286 0.6900 -0.3589
vn 0.3785 0.7811 -0.4966
vn 0.4406 0.8706 -0.2190
vn 0.2938 0.8690 -0.3983
vn 0.3190 0.9449 -0.0738
vn -0.1614 0.5886 -0.7922
vn -0.4709 -0.2252 0.8529
vn -0.0532 -0.4739 0.8790
f 1/1/1 2/2/2 3/3/3 4/4/4
f 5/5/5 4/4/4 3/3/3 6/6/6
f 7/7/7 6/6/6 3/3/3 2/2/2
f 7/8/7 2/9/2 8/10/8 9/11/9
f 10/12/10 9/11/9 8/10/8 11/13/11
f 1/14/1 11/13/11 8/10/8 2/9/2
f 12/15/12 13/16/13 14/17/14 15/18/15
f 16/19/16 17/20/17 14/17/14 13/16/13
f 18/21/18 15/22/15 14/23/14 17/24/17
f 19/25/19 20/26/20 16/19/16 13/16/13
f 21/27/21 17/24/17 16/28/16 20/29/20
f 22/30/22 23/31/23 24/32/24 25/33/25
f 26/34/26 27/35/27 24/32/24 23/31/23
f 28/36/28 25/33/25 24/32/24 27/35/27
f 29/37/29 30/38/30 31/39/31 32/40/32
f 33/41/33 34/42/34 31/39/31 30/38/30
f 35/43/35 32/40/32 31/39/31 34/42/34
f 36/44/36 37/45/37 38/46/38 39/47/39
f 40/48/40 41/49/41 38/50/38 37/51/37
f 42/52/42 39/53/39 38/50/38 43/54/43
f 33/55/33 39/53/39 42/52/42 44/56/44
f 45/57/45 46/58/46 42/52/42 43/54/43
f 26/34/26 44/56/44 42/52/42 46/58/46
f 47/59/47 48/60/48 46/58/46 45/57/45
f 27/35/27 26/34/26 46/58/46 48/60/48
f 49/61/49 50/62/50 48/60/48 47/59/47
f 28/36/28 27/35/27 48/60/48 50/62/50
f 20/26/20 19/25/19 50/62/50 49/61/49
f 51/63/51 28/36/28 50/62/50 19/25/19
f 25/33/25 28/36/28 51/63/51 52/64/52
f 13/16/13 12/15/12 51/63/51 19/25/19
f 53/65/53 52/64/52 51/63/51 12/15/12
f 5/5/5 52/64/52 53/65/53 4/4/4
f 15/18/15 54/66/54 53/65/53 12/15/12
f 1/1/1 4/4/4 53/65/53 54/66/54
f 18/21/18 55/67/55 54/68/54 15/22/15
f 11/13/11 1/14/1 54/68/54 55/67/55
f 56/69/56 57/70/57 55/67/55 18/21/18
f 10/12/10 11/13/11 55/67/55 57/70/57
f 58/71/58 59/72/59 57/70/57 56/69/56
f 29/37/29 10/12/10 57/70/57 59/72/59
f 37/45/37 36/44/36 59/72/59 58/71/58
f 30/38/30 29/37/29 59/72/59 36/44/36
f 21/27/21 60/73/60 58/71/58 56/69/56
f 40/74/40 37/45/37 58/71/58 60/73/60
f 20/26/20 49/61/49 60/75/60 21/76/21
f 47/59/47 40/48/40 60/75/60 49/61/49
f 17/24/17 21/27/21 56/69/56 18/21/18
f 22/30/22 25/33/25 52/64/52 5/5/5
f 41/49/41 40/48/40 47/59/47 45/57/45
f 34/77/34 33/55/33 44/56/44 61/78/61
f 23/31/23 61/78/61 44/56/44 26/34/26
f 35/79/35 34/77/34 61/78/61 62/80/62
f 22/30/22 62/80/62 61/78/61 23/31/23
f 7/7/7 35/79/35 62/80/62 6/6/6
f 5/5/5 6/6/6 62/80/62 22/30/22
f 33/41/33 30/38/30 36/44/36 39/47/39
f 9/11/9 32/40/32 35/43/35 7/8/7
f 9/11/9 10/12/10 29/37/29 32/40/32
f 43/54/43 38/50/38 41/49/41 45/57/45
