# split from a merged terrain OBJ by scripts/split-terrain-obj-parts.py
o part-041
v -0.251265 0.359042 0.006234
v -0.250294 0.351900 0.005941
v -0.243583 0.352575 0.005980
v -0.246965 0.360092 0.006135
v -0.249110 0.344592 0.005865
v -0.242546 0.344622 0.006381
v -0.235678 0.343915 0.005656
v -0.236873 0.350546 0.005416
v -0.238329 0.352302 0.003370
v -0.242420 0.354924 0.003197
v -0.244122 0.361851 0.002239
v -0.234435 0.245462 0.000562
v -0.235129 0.254205 0.001926
v -0.238870 0.254813 -0.000410
v -0.237059 0.245399 -0.000825
v -0.232372 0.266756 -0.004405
v -0.232087 0.257612 -0.003921
v -0.237679 0.264019 -0.002916
v -0.234339 0.246328 -0.004265
v -0.241461 0.262481 -0.002419
v -0.242299 0.260995 0.000902
v -0.236039 0.261965 0.003111
v -0.248426 0.274001 0.000168
v -0.247015 0.265878 -0.000067
v -0.243134 0.271849 0.003275
v -0.237578 0.271410 0.005066
v -0.231653 0.263570 0.001366
v -0.231952 0.257130 -0.001169
v -0.229475 0.259054 -0.002637
v -0.227953 0.264490 -0.000625
v -0.228415 0.262639 -0.004822
v -0.232706 0.246512 -0.002546
v -0.237581 0.276005 -0.003221
v -0.242671 0.275236 -0.004017
v -0.248722 0.275311 -0.004835
v -0.246951 0.266888 -0.005325
v -0.228499 0.269002 -0.005288
v -0.251248 0.352444 -0.000624
v -0.251758 0.359267 0.000895
v -0.247157 0.358453 0.000643
v -0.245296 0.353896 0.000304
v -0.251485 0.364907 0.002148
v -0.249690 0.339366 -0.002802
v -0.250158 0.346656 -0.001814
v -0.241950 0.348709 -0.000580
v -0.243020 0.340686 -0.002504
v -0.236169 0.341432 -0.002367
v -0.234080 0.349715 -0.000291
v -0.233218 0.353087 0.003238
v -0.220870 0.342017 0.001115
v -0.220764 0.349036 0.001049
v -0.228938 0.350362 0.004648
v -0.227795 0.343150 0.004119
v -0.220174 0.354453 0.000964
v -0.225969 0.355653 0.003532
v -0.230425 0.356454 0.002056
v -0.228818 0.355622 -0.004097
v -0.228818 0.349183 -0.004161
v -0.231841 0.356173 -0.000792
v -0.229698 0.341569 -0.003958
v -0.233400 0.368118 0.002989
v -0.228089 0.366888 0.002305
v -0.224115 0.365499 -0.003136
v -0.232111 0.365924 -0.002756
v -0.224144 0.360576 0.002866
v -0.230199 0.361592 0.002193
v -0.232641 0.360768 -0.000874
v -0.223233 0.363857 0.002106
v -0.236279 0.365381 -0.000203
v -0.234705 0.364208 0.002583
v -0.230076 0.360986 -0.003801
v -0.239599 0.364419 0.003011
v -0.242518 0.367621 0.001002
v -0.238006 0.366948 0.003940
v -0.243238 0.366854 0.004841
v -0.247401 0.368572 0.002691
v -0.247759 0.365981 0.005596
v -0.251738 0.368252 0.004995
v -0.251674 0.365256 0.005816
v -0.253982 0.364323 0.003970
v -0.254416 0.358936 0.004035
v -0.253495 0.351999 0.002909
v -0.252797 0.345297 0.002060
v -0.252518 0.337894 0.001322
v -0.248504 0.337162 0.005776
v -0.251987 0.329231 0.001035
v -0.248233 0.328496 0.005698
v -0.241428 0.327863 0.006591
v -0.241701 0.336960 0.006250
v -0.233671 0.326663 0.005756
v -0.234392 0.336437 0.005456
v -0.226972 0.324839 0.003286
v -0.227094 0.335079 0.003559
v -0.221733 0.323263 0.000234
v -0.221154 0.333876 0.000389
v -0.224763 0.322463 -0.004145
v -0.224137 0.333450 -0.003967
v -0.223742 0.341683 -0.003640
v -0.223509 0.348799 -0.003579
v -0.230498 0.333197 -0.004168
v -0.231151 0.321604 -0.004885
v -0.237659 0.320682 -0.003632
v -0.237063 0.332676 -0.003509
v -0.244246 0.319664 -0.003510
v -0.243741 0.331782 -0.003235
v -0.250257 0.318345 -0.004153
v -0.250097 0.330559 -0.003651
v -0.251509 0.317048 0.000706
v -0.250079 0.302201 -0.004191
v -0.250503 0.300415 0.000737
v -0.246060 0.298621 0.005417
v -0.247789 0.316195 0.005692
v -0.239909 0.297310 0.008080
v -0.241229 0.315430 0.007500
v -0.233431 0.296008 0.006603
v -0.233567 0.313479 0.006483
v -0.228066 0.294461 0.002962
v -0.227360 0.311070 0.003111
v -0.224235 0.292929 -0.000849
v -0.222761 0.309151 -0.000237
v -0.226791 0.291697 -0.005245
v -0.225785 0.307856 -0.004669
v -0.232433 0.290399 -0.004656
v -0.231735 0.306473 -0.004831
v -0.238012 0.289352 -0.003376
v -0.237915 0.305126 -0.003526
v -0.243611 0.288323 -0.004244
v -0.244164 0.303749 -0.004165
v -0.249470 0.287261 -0.004658
v -0.249496 0.285812 0.000689
v -0.244445 0.283967 0.004673
v -0.238613 0.282461 0.006646
v -0.232332 0.271366 0.003395
v -0.233002 0.281511 0.005177
v -0.227948 0.270929 0.000486
v -0.228114 0.280500 0.002030
v -0.225375 0.270410 -0.003394
v -0.224859 0.279576 -0.002124
v -0.227905 0.278613 -0.005457
v -0.232788 0.276984 -0.004557
v -0.225521 0.265530 -0.003649
v -0.223502 0.355182 -0.003455
v -0.219452 0.359705 0.000736
v -0.223680 0.360765 -0.003316
v -0.218520 0.361980 0.001315
v -0.234204 0.236785 -0.000495
v -0.233086 0.236930 -0.003072
v -0.235101 0.236965 -0.004109
v -0.233387 0.225989 -0.003348
v -0.235931 0.226055 -0.003627
v -0.236411 0.226086 -0.000747
v -0.236345 0.236924 -0.001343
v -0.233893 0.226029 -0.000559
v -0.236516 0.213460 -0.000441
v -0.233695 0.213436 -0.000392
v -0.233814 0.213457 -0.003506
v -0.233770 0.201386 -0.000679
v -0.234122 0.201381 -0.003901
v -0.237036 0.201443 -0.003334
v -0.236551 0.213483 -0.003334
v -0.236770 0.201423 -0.000196
v -0.237549 0.190945 -0.003080
v -0.236748 0.190834 -0.000333
v -0.234041 0.190762 -0.001278
v -0.236849 0.181931 -0.000466
v -0.234176 0.182015 -0.001595
v -0.235158 0.182249 -0.004032
v -0.234765 0.190902 -0.004185
v -0.237793 0.182117 -0.003069
v -0.235600 0.177040 -0.003986
v -0.237523 0.177026 -0.003312
v -0.236306 0.176732 -0.000875
v -0.234884 0.176840 -0.001671
vt 0.026173 0.711380
vt 0.025432 0.715187
vt 0.021708 0.713940
vt 0.024346 0.709845
vt 0.024752 0.719096
vt 0.021258 0.718200
vt 0.017372 0.718078
vt 0.018060 0.714361
vt 0.018785 0.713298
vt 0.020662 0.711995
vt 0.022793 0.707520
vt 0.011882 0.967892
vt 0.015883 0.967303
vt 0.016175 0.971281
vt 0.011905 0.969543
vt 0.020103 0.982422
vt 0.015806 0.976100
vt 0.019873 0.978386
vt 0.011663 0.971662
vt 0.019977 0.976212
vt 0.020388 0.971942
vt 0.019543 0.966348
vt 0.026107 0.972436
vt 0.022782 0.972982
vt 0.025153 0.969036
vt 0.024214 0.965489
vt 0.019831 0.962399
vt 0.016453 0.963038
vt 0.016769 0.960575
vt 0.019819 0.960022
vt 0.015098 0.960266
vt 0.018294 0.957929
vt 0.011659 0.963305
vt 0.011797 0.965149
vt 0.024737 0.980302
vt 0.025086 0.978088
vt 0.025049 0.975703
vt 0.022078 0.974897
vt 0.019857 0.955120
vt 0.018554 0.954145
vt 0.030254 0.716141
vt 0.030277 0.712460
vt 0.032864 0.712376
vt 0.033671 0.714921
vt 0.035719 0.713198
vt 0.034268 0.709333
vt 0.030133 0.709746
vt 0.030661 0.723561
vt 0.030498 0.719444
vt 0.035226 0.717994
vt 0.034736 0.722720
vt 0.037838 0.714760
vt 0.038483 0.721940
vt 0.039404 0.718650
vt 0.040503 0.715635
vt 0.060299 0.951801
vt 0.063406 0.951441
vt 0.064743 0.956218
vt 0.061098 0.955904
vt 0.062026 0.960160
vt 0.064913 0.958800
vt 0.025466 0.597865
vt 0.021226 0.595172
vt 0.022468 0.592739
vt 0.028013 0.596347
vt 0.018305 0.594136
vt 0.019374 0.591852
vt 0.019601 0.588985
vt 0.021322 0.588753
vt 0.024420 0.605416
vt 0.028350 0.603880
vt 0.026099 0.608521
vt 0.022342 0.608295
vt 0.041734 0.723237
vt 0.042420 0.720218
vt 0.016607 0.593452
vt 0.017785 0.589973
vt 0.015507 0.600755
vt 0.017477 0.599150
vt 0.020599 0.601950
vt 0.018854 0.604526
vt 0.020187 0.596984
vt 0.016087 0.596340
vt 0.014498 0.595442
vt 0.019571 0.598185
vt 0.012374 0.598511
vt 0.014070 0.598993
vt 0.021072 0.606495
vt 0.019402 0.607421
vt 0.016056 0.604631
vt 0.012219 0.601348
vt 0.009596 0.600132
vt 0.013729 0.602152
vt 0.011461 0.603994
vt 0.012727 0.605931
vt 0.010194 0.602721
vt 0.006536 0.602221
vt 0.026638 0.706609
vt 0.026637 0.704395
vt 0.028754 0.707944
vt 0.030289 0.706736
vt 0.027368 0.708645
vt 0.028496 0.709801
vt 0.028137 0.712207
vt 0.027931 0.715895
vt 0.027743 0.719938
vt 0.028524 0.723733
vt 0.059192 0.967978
vt 0.062837 0.967767
vt 0.063348 0.970445
vt 0.059912 0.971568
vt 0.055268 0.971586
vt 0.054647 0.968387
vt 0.054057 0.964614
vt 0.058728 0.964112
vt 0.062681 0.964105
vt 0.052930 0.960402
vt 0.058071 0.960095
vt 0.051560 0.956501
vt 0.056926 0.956086
vt 0.050548 0.953383
vt 0.056017 0.952525
vt 0.049627 0.950687
vt 0.055249 0.949895
vt 0.059465 0.948992
vt 0.031779 0.596346
vt 0.032916 0.599137
vt 0.028909 0.600295
vt 0.054361 0.946759
vt 0.058572 0.946342
vt 0.032404 0.603333
vt 0.048162 0.947942
vt 0.049959 0.981606
vt 0.056493 0.981531
vt 0.056595 0.984999
vt 0.049785 0.984769
vt 0.061022 0.981873
vt 0.060671 0.985194
vt 0.049749 0.978240
vt 0.056194 0.977888
vt 0.061148 0.978332
vt 0.049307 0.974932
vt 0.055702 0.974323
vt 0.060464 0.974415
vt 0.048724 0.972139
vt 0.040675 0.975379
vt 0.039722 0.972653
vt 0.038852 0.969065
vt 0.048103 0.968637
vt 0.037835 0.965322
vt 0.047379 0.964778
vt 0.036777 0.961522
vt 0.045919 0.960537
vt 0.035531 0.957961
vt 0.044354 0.956805
vt 0.034166 0.955192
vt 0.042913 0.953999
vt 0.032177 0.951941
vt 0.041445 0.951461
vt 0.029775 0.948335
vt 0.040087 0.948870
vt 0.032157 0.981642
vt 0.041344 0.981904
vt 0.041355 0.984986
vt 0.032129 0.984433
vt 0.032319 0.978773
vt 0.041180 0.978586
vt 0.032269 0.975700
vt 0.031919 0.972464
vt 0.031052 0.968549
vt 0.030008 0.964934
vt 0.023789 0.962088
vt 0.029222 0.961596
vt 0.022935 0.959166
vt 0.027943 0.958130
vt 0.021878 0.956561
vt 0.026782 0.955247
vt 0.025503 0.952940
vt 0.023642 0.951040
vt 0.024745 0.983760
vt 0.019992 0.957986
vt 0.025098 0.602373
vt 0.023069 0.598689
vt 0.022582 0.602608
vt 0.021294 0.599119
vt 0.028406 0.704599
vt 0.294706 0.912854
vt 0.293120 0.912904
vt 0.293196 0.908216
vt 0.295305 0.908669
vt 0.291808 0.912949
vt 0.291826 0.908354
vt 0.293281 0.918095
vt 0.291725 0.918185
vt 0.290033 0.918219
vt 0.290024 0.912970
vt 0.289749 0.908834
vt 0.295010 0.918133
vt 0.295944 0.912822
vt 0.296615 0.918020
vt 0.296542 0.908731
vt 0.297203 0.924129
vt 0.295256 0.924204
vt 0.293226 0.924195
vt 0.295164 0.929984
vt 0.293387 0.930085
vt 0.291752 0.930095
vt 0.291334 0.924270
vt 0.289957 0.930171
vt 0.289380 0.924364
vt 0.291607 0.935238
vt 0.289866 0.935315
vt 0.295248 0.935166
vt 0.296773 0.930046
vt 0.297070 0.935131
vt 0.296413 0.939445
vt 0.295097 0.939451
vt 0.293551 0.939343
vt 0.293412 0.935163
vt 0.291917 0.939504
vt 0.293397 0.941893
vt 0.292143 0.941937
vt 0.955536 0.991648
vt 0.956957 0.989295
vt 0.958141 0.990478
vt 0.956474 0.992872
vt 0.290219 0.939625
vt 0.294820 0.941961
vt 0.954574 0.991720
vt 0.955445 0.988937
vt 0.955301 0.992939
vn -0.3227 -0.0247 0.9462
vn -0.3713 -0.0851 0.9246
vn 0.2326 0.2399 0.9425
vn 0.3371 0.0642 0.9393
vn -0.4128 -0.0575 0.9090
vn 0.0239 0.0134 0.9996
vn 0.1407 0.0073 0.9900
vn 0.1325 0.3521 0.9266
vn 0.2437 0.9695 -0.0247
vn 0.7930 0.5975 -0.1185
vn 0.8709 0.0320 -0.4905
vn 0.2814 -0.1334 0.9503
vn 0.1828 -0.2086 0.9608
vn -0.9435 -0.3304 -0.0259
vn -0.9794 -0.0861 0.1827
vn -0.2316 -0.0557 -0.9712
vn 0.2055 -0.3241 -0.9234
vn -0.2209 -0.1386 -0.9654
vn 0.0083 -0.0172 -0.9998
vn -0.3372 -0.4542 -0.8246
vn -0.7057 -0.6120 0.3571
vn 0.0868 -0.2364 0.9678
vn -0.8771 -0.1598 0.4530
vn -0.8088 -0.4651 0.3599
vn -0.4211 -0.1741 0.8902
vn -0.0133 -0.1812 0.9834
vn 0.5131 -0.2228 0.8289
vn 0.8829 -0.3205 0.3432
vn 0.7587 -0.6415 0.1137
vn 0.7424 -0.3008 0.5986
vn 0.5184 -0.3899 -0.7611
vn 0.9961 -0.0807 -0.0364
vn -0.0761 -0.0278 -0.9967
vn 0.1576 -0.0213 -0.9873
vn -0.6533 -0.1010 -0.7503
vn -0.4912 -0.3575 -0.7943
vn 0.1777 -0.0218 -0.9838
vn -0.4439 0.1108 -0.8892
vn -0.4025 0.1668 -0.9001
vn 0.2253 0.1957 -0.9544
vn 0.2865 0.2591 -0.9224
vn -0.4488 0.3366 -0.8278
vn -0.4530 0.0913 -0.8868
vn -0.4194 0.1191 -0.9000
vn 0.1115 0.3619 -0.9255
vn 0.0192 0.1544 -0.9878
vn -0.1422 0.1626 -0.9764
vn -0.4169 0.4242 -0.8039
vn -0.4090 0.7712 0.4879
vn 0.9499 -0.0341 0.3107
vn 0.9533 -0.0347 0.3002
vn 0.1677 0.1504 0.9743
vn 0.3029 -0.0179 0.9529
vn 0.9653 -0.0544 0.2553
vn 0.1339 0.0885 0.9870
vn -0.5803 0.2477 0.7758
vn -0.2927 0.0162 -0.9561
vn -0.2160 0.0691 -0.9739
vn -0.9546 0.1117 -0.2762
vn -0.1255 0.0775 -0.9891
vn -0.0763 0.8271 0.5569
vn 0.1885 0.7741 0.6043
vn 0.4098 0.6581 -0.6317
vn -0.2895 0.5272 -0.7989
vn 0.1378 0.0220 0.9902
vn -0.3439 -0.1408 0.9284
vn -0.9053 -0.3759 -0.1978
vn 0.3538 0.5226 0.7757
vn -0.6973 0.0792 -0.7124
vn -0.2228 -0.6288 0.7450
vn -0.3276 -0.0324 -0.9443
vn -0.0284 -0.9654 0.2592
vn 0.0488 0.6413 -0.7657
vn 0.1607 0.5951 0.7874
vn 0.3470 0.4681 0.8127
vn 0.0506 0.9178 -0.3938
vn 0.2658 0.3531 0.8970
vn -0.3467 0.9353 0.0712
vn -0.4255 0.3907 0.8163
vn -0.9657 0.2567 0.0381
vn -0.9914 0.0028 0.1307
vn -0.9904 -0.0985 0.0968
vn -0.9944 -0.0720 0.0773
vn -0.9963 -0.0253 0.0819
vn -0.4471 -0.0371 0.8937
vn -0.9894 -0.0201 0.1438
vn -0.4977 -0.0123 0.8673
vn -0.0145 0.0368 0.9992
vn 0.0132 0.0055 0.9999
vn 0.2403 0.0337 0.9701
vn 0.1835 0.0063 0.9830
vn 0.4380 -0.0114 0.8989
vn 0.3611 -0.0245 0.9322
vn 0.9739 -0.0563 0.2197
vn 0.9708 -0.0447 0.2359
vn 0.5017 -0.0077 -0.8650
vn 0.4964 0.0067 -0.8681
vn 0.5161 -0.0022 -0.8565
vn 0.5263 -0.0174 -0.8501
vn -0.0547 0.0525 -0.9971
vn -0.0510 0.0234 -0.9984
vn -0.0885 0.0186 -0.9959
vn -0.0932 0.0677 -0.9933
vn 0.0371 0.0221 -0.9991
vn 0.0140 0.0600 -0.9981
vn -0.5831 0.0060 -0.8124
vn -0.5200 0.0408 -0.8532
vn -0.9772 -0.0399 0.2088
vn -0.6490 -0.0155 -0.7606
vn -0.9491 -0.0651 0.3081
vn -0.5514 -0.0671 0.8315
vn -0.5511 -0.0245 0.8341
vn -0.0859 -0.0457 0.9953
vn -0.0656 0.0260 0.9975
vn 0.3675 -0.0336 0.9294
vn 0.3112 0.0242 0.9500
vn 0.6035 -0.0524 0.7956
vn 0.5265 -0.0261 0.8498
vn 0.9902 -0.0674 0.1223
vn 0.9820 -0.0664 0.1769
vn 0.4341 -0.0101 -0.9008
vn 0.4904 -0.0172 -0.8713
vn -0.1641 0.0031 -0.9864
vn -0.0998 0.0059 -0.9950
vn -0.0439 -0.0054 -0.9990
vn -0.0661 0.0036 -0.9978
vn 0.1030 0.0046 -0.9947
vn 0.0651 0.0141 -0.9978
vn -0.6693 -0.0374 -0.7421
vn -0.9094 -0.0911 0.4059
vn -0.5018 -0.1171 0.8570
vn -0.0598 -0.1233 0.9906
vn 0.4206 -0.1446 0.8957
vn 0.3934 -0.0991 0.9140
vn 0.6752 -0.1206 0.7278
vn 0.6521 -0.0916 0.7526
vn 0.9823 -0.0657 -0.1756
vn 0.9977 -0.0668 -0.0073
vn 0.3086 -0.0013 -0.9512
vn -0.2132 -0.0099 -0.9770
vn 0.9490 -0.2084 -0.2364
vn 0.4857 -0.0053 -0.8741
vn 0.9874 -0.0402 0.1529
vn 0.4094 0.0469 -0.9112
vn 0.9192 0.3074 0.2460
vn 0.4315 -0.0447 0.9010
vn 0.9340 -0.0322 -0.3558
vn -0.3334 -0.0025 -0.9428
vn 0.8129 -0.0155 -0.5821
vn -0.5857 0.0081 -0.8105
vn -0.8051 0.0336 0.5922
vn -0.9268 -0.0195 0.3750
vn 0.5928 0.0092 0.8053
vn -0.7036 0.0265 0.7101
vn 0.7122 -0.0025 0.7019
vn 0.6873 -0.0033 -0.7264
vn 0.7980 -0.0305 0.6018
vn 0.5860 -0.0047 -0.8103
vn -0.8083 0.0313 -0.5879
vn -0.7253 0.0250 -0.6880
vn -0.6038 0.0057 0.7971
vn -0.8804 0.0209 -0.4738
vn -0.4840 -0.0093 0.8750
vn 0.8729 -0.0434 0.4859
vn -0.4095 -0.0582 0.9105
vn 0.9169 -0.0709 0.3928
vn 0.4349 -0.0357 -0.8998
vn 0.4739 -0.0146 -0.8805
vn -0.9153 -0.0179 -0.4023
vn 0.3210 -0.5566 -0.7663
vn -0.7436 -0.5565 -0.3707
vn -0.2561 -0.6525 0.7132
vn 0.7028 -0.6533 0.2815
f 1/1/1 2/2/2 3/3/3 4/4/4
f 5/5/5 6/6/6 3/3/3 2/2/2
f 7/7/7 8/8/8 3/3/3 6/6/6
f 9/9/9 10/10/10 3/3/3 8/8/8
f 11/11/11 4/4/4 3/3/3 10/10/10
f 12/12/12 13/13/13 14/14/14 15/15/15
f 16/16/16 17/17/17 14/14/14 18/18/18
f 19/19/19 15/15/15 14/14/14 17/17/17
f 20/20/20 18/18/18 14/14/14 21/21/21
f 22/22/22 21/21/21 14/14/14 13/13/13
f 23/23/23 24/24/24 21/21/21 25/25/25
f 26/26/26 25/25/25 21/21/21 22/22/22
f 27/27/27 28/28/28 29/29/29 30/30/30
f 17/31/17 31/32/31 29/29/29 28/28/28
f 22/22/22 13/13/13 28/28/28 27/27/27
f 19/33/19 17/31/17 28/28/28 32/34/32
f 12/12/12 32/34/32 28/28/28 13/13/13
f 33/35/33 18/18/18 20/20/20 34/36/34
f 35/37/35 34/36/34 20/20/20 36/38/36
f 37/39/37 31/32/31 17/31/17 16/40/16
f 38/41/38 39/42/39 40/43/40 41/44/41
f 10/45/10 41/44/41 40/43/40 11/46/11
f 42/47/42 11/46/11 40/43/40 39/42/39
f 43/48/43 44/49/44 45/50/45 46/51/46
f 38/41/38 41/44/41 45/50/45 44/49/44
f 10/45/10 9/52/9 45/50/45 41/44/41
f 47/53/47 46/51/46 45/50/45 48/54/48
f 49/55/49 48/54/48 45/50/45 9/52/9
f 50/56/50 51/57/51 52/58/52 53/59/53
f 7/60/7 53/59/53 52/58/52 8/61/8
f 54/62/54 55/63/55 52/64/52 51/65/51
f 56/66/56 49/67/49 52/64/52 55/63/55
f 9/68/9 8/69/8 52/64/52 49/67/49
f 57/70/57 58/71/58 48/72/48 59/73/59
f 60/74/60 47/53/47 48/54/48 58/75/58
f 56/66/56 59/76/59 48/77/48 49/67/49
f 61/78/61 62/79/62 63/80/63 64/81/64
f 55/63/55 65/82/65 66/83/66 56/66/56
f 59/76/59 56/66/56 66/83/66 67/84/67
f 68/85/68 62/79/62 66/83/66 65/82/65
f 69/86/69 67/84/67 66/83/66 70/87/70
f 61/78/61 70/87/70 66/83/66 62/79/62
f 71/88/71 67/89/67 69/90/69 64/81/64
f 72/91/72 73/92/73 69/86/69 70/87/70
f 61/78/61 64/81/64 69/90/69 74/93/74
f 75/94/75 74/93/74 69/90/69 73/95/73
f 74/93/74 75/94/75 11/96/11 72/91/72
f 73/92/73 72/91/72 11/96/11 76/97/76
f 77/98/77 4/4/4 11/11/11 75/99/75
f 78/100/78 76/101/76 11/46/11 42/47/42
f 77/98/77 76/101/76 78/100/78 79/102/79
f 80/103/80 79/102/79 78/100/78 42/47/42
f 39/42/39 81/104/81 80/103/80 42/47/42
f 1/1/1 79/102/79 80/103/80 81/104/81
f 38/41/38 82/105/82 81/104/81 39/42/39
f 2/2/2 1/1/1 81/104/81 82/105/82
f 44/49/44 83/106/83 82/105/82 38/41/38
f 5/5/5 2/2/2 82/105/82 83/106/83
f 43/48/43 84/107/84 83/106/83 44/49/44
f 85/108/85 5/109/5 83/110/83 84/111/84
f 86/112/86 87/113/87 85/108/85 84/111/84
f 88/114/88 89/115/89 85/108/85 87/113/87
f 6/116/6 5/109/5 85/108/85 89/115/89
f 90/117/90 91/118/91 89/115/89 88/114/88
f 7/60/7 6/116/6 89/115/89 91/118/91
f 92/119/92 93/120/93 91/118/91 90/117/90
f 53/59/53 7/60/7 91/118/91 93/120/93
f 94/121/94 95/122/95 93/120/93 92/119/92
f 50/56/50 53/59/53 93/120/93 95/122/95
f 96/123/96 97/124/97 95/122/95 94/121/94
f 98/125/98 50/56/50 95/122/95 97/124/97
f 51/65/51 50/126/50 98/127/98 99/128/99
f 100/129/100 60/130/60 98/125/98 97/124/97
f 58/71/58 99/128/99 98/127/98 60/131/60
f 96/123/96 101/132/101 100/129/100 97/124/97
f 102/133/102 103/134/103 100/135/100 101/136/101
f 47/137/47 60/138/60 100/135/100 103/134/103
f 104/139/104 105/140/105 103/134/103 102/133/102
f 46/141/46 47/137/47 103/134/103 105/140/105
f 106/142/106 107/143/107 105/140/105 104/139/104
f 43/144/43 46/141/46 105/140/105 107/143/107
f 108/145/108 86/112/86 107/143/107 106/142/106
f 84/111/84 43/144/43 107/143/107 86/112/86
f 109/146/109 110/147/110 108/145/108 106/142/106
f 111/148/111 112/149/112 108/145/108 110/147/110
f 87/113/87 86/112/86 108/145/108 112/149/112
f 113/150/113 114/151/114 112/149/112 111/148/111
f 88/114/88 87/113/87 112/149/112 114/151/114
f 115/152/115 116/153/116 114/151/114 113/150/113
f 90/117/90 88/114/88 114/151/114 116/153/116
f 117/154/117 118/155/118 116/153/116 115/152/115
f 92/119/92 90/117/90 116/153/116 118/155/118
f 119/156/119 120/157/120 118/155/118 117/154/117
f 94/121/94 92/119/92 118/155/118 120/157/120
f 121/158/121 122/159/122 120/157/120 119/156/119
f 96/123/96 94/121/94 120/157/120 122/159/122
f 123/160/123 124/161/124 122/159/122 121/158/121
f 101/132/101 96/123/96 122/159/122 124/161/124
f 125/162/125 126/163/126 124/164/124 123/165/123
f 102/133/102 101/136/101 124/164/124 126/163/126
f 127/166/127 128/167/128 126/163/126 125/162/125
f 104/139/104 102/133/102 126/163/126 128/167/128
f 129/168/129 109/146/109 128/167/128 127/166/127
f 106/142/106 104/139/104 128/167/128 109/146/109
f 34/36/34 35/37/35 129/168/129 127/166/127
f 23/23/23 130/169/130 129/168/129 35/37/35
f 110/147/110 109/146/109 129/168/129 130/169/130
f 25/25/25 131/170/131 130/169/130 23/23/23
f 111/148/111 110/147/110 130/169/130 131/170/131
f 26/26/26 132/171/132 131/170/131 25/25/25
f 113/150/113 111/148/111 131/170/131 132/171/132
f 133/172/133 134/173/134 132/171/132 26/26/26
f 115/152/115 113/150/113 132/171/132 134/173/134
f 135/174/135 136/175/136 134/173/134 133/172/133
f 117/154/117 115/152/115 134/173/134 136/175/136
f 137/176/137 138/177/138 136/175/136 135/174/135
f 119/156/119 117/154/117 136/175/136 138/177/138
f 37/39/37 139/178/139 138/177/138 137/176/137
f 121/158/121 119/156/119 138/177/138 139/178/139
f 16/40/16 140/179/140 139/178/139 37/39/37
f 123/160/123 121/158/121 139/178/139 140/179/140
f 18/18/18 33/35/33 140/180/140 16/16/16
f 125/162/125 123/165/123 140/180/140 33/35/33
f 30/30/30 141/181/141 137/176/137 135/174/135
f 31/32/31 37/39/37 137/176/137 141/181/141
f 27/27/27 30/30/30 135/174/135 133/172/133
f 22/22/22 27/27/27 133/172/133 26/26/26
f 33/35/33 34/36/34 127/166/127 125/162/125
f 54/62/54 51/65/51 99/128/99 142/182/142
f 57/70/57 142/182/142 99/128/99 58/71/58
f 143/183/143 54/62/54 142/182/142 144/184/144
f 71/88/71 144/184/144 142/182/142 57/70/57
f 68/85/68 65/82/65 143/183/143 145/185/145
f 55/63/55 54/62/54 143/183/143 65/82/65
f 63/80/63 145/185/145 143/183/143 144/184/144
f 64/81/64 63/80/63 144/184/144 71/88/71
f 4/4/4 77/98/77 79/102/79 1/1/1
f 73/186/73 76/101/76 77/98/77 75/99/75
f 70/87/70 61/78/61 74/93/74 72/91/72
f 59/73/59 67/89/67 71/88/71 57/70/57
f 24/24/24 23/23/23 35/37/35 36/38/36
f 146/187/146 147/188/147 32/189/32 12/190/12
f 148/191/148 19/192/19 32/189/32 147/188/147
f 149/193/149 150/194/150 148/191/148 147/188/147
f 151/195/151 152/196/152 148/191/148 150/194/150
f 15/197/15 19/192/19 148/191/148 152/196/152
f 153/198/153 146/187/146 152/199/152 151/200/151
f 12/190/12 15/201/15 152/199/152 146/187/146
f 154/202/154 155/203/155 153/198/153 151/200/151
f 156/204/156 149/193/149 153/198/153 155/203/155
f 147/188/147 146/187/146 153/198/153 149/193/149
f 157/205/157 158/206/158 156/204/156 155/203/155
f 159/207/159 160/208/160 156/204/156 158/206/158
f 150/194/150 149/193/149 156/204/156 160/208/160
f 161/209/161 154/210/154 160/208/160 159/207/159
f 151/195/151 150/194/150 160/208/160 154/210/154
f 162/211/162 163/212/163 161/209/161 159/207/159
f 164/213/164 157/205/157 161/214/161 163/215/163
f 155/203/155 154/202/154 161/214/161 157/205/157
f 165/216/165 166/217/166 164/213/164 163/215/163
f 167/218/167 168/219/168 164/213/164 166/217/166
f 158/206/158 157/205/157 164/213/164 168/219/168
f 169/220/169 162/211/162 168/219/168 167/218/167
f 159/207/159 158/206/158 168/219/168 162/211/162
f 170/221/170 171/222/171 169/220/169 167/218/167
f 172/223/172 165/224/165 169/225/169 171/226/171
f 163/212/163 162/211/162 169/220/169 165/227/165
f 173/228/173 170/221/170 167/218/167 166/217/166
f 172/223/172 173/229/173 166/230/166 165/224/165
f 171/226/171 170/231/170 173/229/173 172/223/172
f 62/79/62 68/85/68 145/185/145 63/80/63
f 36/38/36 20/20/20 21/21/21 24/24/24
f 31/32/31 141/181/141 30/30/30 29/29/29
