# split from a merged terrain OBJ by scripts/split-terrain-obj-parts.py
o part-086
v -0.230323 1.157295 -0.098544
v -0.226304 1.151412 -0.099548
v -0.222388 1.156277 -0.103268
v -0.227529 1.159643 -0.104663
v -0.229200 1.156010 -0.110257
v -0.225224 1.152956 -0.107314
v -0.228777 1.148748 -0.105784
v -0.234105 1.152078 -0.110286
v -0.237890 1.157045 -0.111189
v -0.233281 1.158800 -0.111703
v -0.237976 1.161854 -0.107712
v -0.233206 1.162262 -0.106633
v -0.236032 1.160371 -0.101057
v -0.241013 1.160016 -0.104080
v -0.243093 1.155694 -0.107817
v -0.238779 1.157791 -0.097246
v -0.235481 1.154198 -0.094700
v -0.243677 1.157121 -0.099208
v -0.242671 1.150944 -0.095084
v -0.238673 1.146096 -0.095317
v -0.231989 1.148121 -0.095915
v -0.233905 1.145681 -0.103892
v -0.238661 1.144486 -0.101745
v -0.243998 1.148497 -0.102726
v -0.239200 1.149881 -0.107472
v -0.246930 1.154337 -0.103475
vt 0.442569 0.983795
vt 0.437205 0.981268
vt 0.440499 0.979431
vt 0.443459 0.978248
vt 0.441084 0.975014
vt 0.439222 0.977110
vt 0.436421 0.977075
vt 0.438349 0.972847
vt 0.441069 0.971131
vt 0.442595 0.972949
vt 0.990521 0.351872
vt 0.993119 0.349774
vt 0.991673 0.355031
vt 0.987205 0.355524
vt 0.445271 0.975236
vt 0.990159 0.347219
vt 0.988568 0.350448
vt 0.985804 0.353468
vt 0.988327 0.341803
vt 0.987397 0.346354
vt 0.984990 0.343717
vt 0.986214 0.349173
vt 0.983704 0.347182
vt 0.981042 0.345468
vt 0.978044 0.340902
vt 0.977945 0.348796
vt 0.979843 0.349025
vt 0.981896 0.350896
vt 0.978439 0.354827
vt 0.984527 0.351669
vt 0.433333 0.976708
vt 0.434883 0.971956
vt 0.983904 0.357244
vt 0.433184 0.981546
vt 0.984165 0.339674
vt 0.993755 0.345084
vn 0.3815 0.5764 0.7227
vn 0.7831 -0.3086 0.5399
vn 0.9683 0.2280 0.1022
vn 0.6086 0.7934 0.0097
vn 0.4757 0.1125 -0.8724
vn 0.7573 -0.2824 -0.5889
vn 0.4881 -0.7792 -0.3931
vn 0.0106 -0.4762 -0.8793
vn -0.3474 0.1641 -0.9233
vn 0.1867 0.4006 -0.8970
vn -0.3616 0.8726 -0.3284
vn 0.1853 0.9707 -0.1529
vn -0.0078 0.8876 0.4605
vn -0.5167 0.8559 -0.0215
vn -0.7225 0.1392 -0.6773
vn -0.1650 0.7041 0.6906
vn 0.1237 0.3168 0.9404
vn -0.7008 0.5586 0.4437
vn -0.5845 -0.1560 0.7963
vn -0.1549 -0.7109 0.6861
vn 0.4686 -0.5134 0.7189
vn 0.2007 -0.9325 -0.3004
vn -0.2299 -0.9660 -0.1183
vn -0.7807 -0.5927 -0.1982
vn -0.3176 -0.5710 -0.7571
vn -0.9795 0.0776 -0.1857
f 1/1/1 2/2/2 3/3/3 4/4/4
f 5/5/5 4/4/4 3/3/3 6/6/6
f 7/7/7 6/6/6 3/3/3 2/2/2
f 8/8/8 5/5/5 6/6/6 7/7/7
f 8/8/8 9/9/9 10/10/10 5/5/5
f 11/11/11 12/12/12 10/13/10 9/14/9
f 4/4/4 5/5/5 10/10/10 12/15/12
f 13/16/13 12/12/12 11/11/11 14/17/14
f 15/18/15 14/17/14 11/11/11 9/14/9
f 1/19/1 13/16/13 16/20/16 17/21/17
f 14/17/14 18/22/18 16/20/16 13/16/13
f 19/23/19 17/21/17 16/20/16 18/22/18
f 17/21/17 19/23/19 20/24/20 21/25/21
f 22/26/22 21/25/21 20/24/20 23/27/23
f 24/28/24 23/27/23 20/24/20 19/23/19
f 25/29/25 22/26/22 23/27/23 24/28/24
f 14/17/14 15/18/15 26/30/26 18/22/18
f 25/29/25 24/28/24 26/30/26 15/18/15
f 19/23/19 18/22/18 26/30/26 24/28/24
f 7/7/7 22/31/22 25/32/25 8/8/8
f 9/14/9 8/33/8 25/29/25 15/18/15
f 2/2/2 21/34/21 22/31/22 7/7/7
f 1/19/1 17/21/17 21/25/21 2/35/2
f 4/36/4 12/12/12 13/16/13 1/19/1
