# split from a merged terrain OBJ by scripts/split-terrain-obj-parts.py
o part-083
v 0.492763 1.171747 -0.032500
v 0.493322 1.169402 -0.031878
v 0.494914 1.169593 -0.033801
v 0.493997 1.171260 -0.034949
v 0.494401 1.170569 -0.037117
v 0.494136 1.168421 -0.035228
v 0.492045 1.167848 -0.033577
v 0.492992 1.168185 -0.036555
v 0.493633 1.169078 -0.038003
v 0.490866 1.167824 -0.035909
v 0.490712 1.169283 -0.038229
v 0.491338 1.171834 -0.038023
v 0.488616 1.172895 -0.035092
v 0.489260 1.173020 -0.032427
v 0.491538 1.172765 -0.033484
v 0.491703 1.172574 -0.035569
v 0.490498 1.171848 -0.030421
v 0.488082 1.171212 -0.029588
v 0.488746 1.169362 -0.029011
v 0.491029 1.169429 -0.029947
v 0.486387 1.171720 -0.031138
v 0.487170 1.168414 -0.031300
v 0.489610 1.167808 -0.032292
v 0.487829 1.169602 -0.037546
v 0.485829 1.169817 -0.036442
v 0.485684 1.172359 -0.036464
v 0.488067 1.172106 -0.037537
v 0.485561 1.172478 -0.033936
v 0.486038 1.168831 -0.034225
v 0.488386 1.167902 -0.035070
vt 0.395964 0.973047
vt 0.394185 0.973123
vt 0.394599 0.971764
vt 0.396377 0.971924
vt 0.396650 0.970809
vt 0.394117 0.970869
vt 0.392349 0.973553
vt 0.912386 0.992875
vt 0.911434 0.992479
vt 0.911469 0.991636
vt 0.912213 0.990862
vt 0.910331 0.993038
vt 0.910058 0.991514
vt 0.910418 0.990081
vt 0.398450 0.975673
vt 0.397241 0.975066
vt 0.397350 0.973639
vt 0.398283 0.973274
vt 0.396045 0.974441
vt 0.911371 0.993929
vt 0.395784 0.975561
vt 0.394944 0.975463
vt 0.394769 0.974393
vt 0.396273 0.976429
vt 0.394419 0.976648
vt 0.393377 0.975251
vt 0.908493 0.991429
vt 0.907391 0.991131
vt 0.907276 0.990010
vt 0.908615 0.989981
vt 0.399557 0.976151
vt 0.398174 0.978311
vt 0.397355 0.977285
vt 0.395118 0.977862
vt 0.395847 0.978646
vt 0.393162 0.978160
vt 0.394460 0.979541
vt 0.908802 0.993181
vt 0.391947 0.975978
vt 0.399474 0.972931
vn 0.6115 0.6634 0.4311
vn 0.7101 -0.2822 0.6451
vn 0.9403 -0.1280 0.3155
vn 0.7959 0.6054 0.0079
vn 0.7979 0.2393 -0.5532
vn 0.7415 -0.6708 -0.0144
vn 0.2586 -0.9438 0.2060
vn 0.3328 -0.8840 -0.3283
vn 0.4593 -0.4295 -0.7775
vn -0.0249 -0.9579 -0.2860
vn -0.0648 -0.4150 -0.9075
vn 0.1610 0.6238 -0.7648
vn -0.0452 0.9934 -0.1053
vn 0.0076 0.9668 0.2555
vn 0.3253 0.9387 0.1141
vn 0.3054 0.9377 -0.1658
vn 0.3173 0.6467 0.6936
vn -0.3139 0.4068 0.8579
vn -0.1216 -0.3589 0.9254
vn 0.4450 -0.3357 0.8302
vn -0.7287 0.4459 0.5198
vn -0.5720 -0.7033 0.4221
vn 0.0218 -0.9693 0.2451
vn -0.3546 -0.4383 -0.8259
vn -0.7712 -0.3857 -0.5065
vn -0.7037 0.5339 -0.4689
vn -0.2205 0.6051 -0.7650
vn -0.7972 0.5923 0.1169
vn -0.7764 -0.6300 -0.0165
vn -0.2393 -0.9440 -0.2272
f 1/1/1 2/2/2 3/3/3 4/4/4
f 5/5/5 4/4/4 3/3/3 6/6/6
f 7/7/7 6/6/6 3/3/3 2/2/2
f 6/8/6 8/9/8 9/10/9 5/11/5
f 10/12/10 11/13/11 9/10/9 8/9/8
f 12/14/12 5/11/5 9/10/9 11/13/11
f 13/15/13 14/16/14 15/17/15 16/18/16
f 17/19/17 1/1/1 15/17/15 14/16/14
f 4/4/4 16/18/16 15/17/15 1/1/1
f 7/20/7 10/12/10 8/9/8 6/8/6
f 17/19/17 18/21/18 19/22/19 20/23/20
f 21/24/21 22/25/22 19/22/19 18/21/18
f 23/26/23 20/23/20 19/22/19 22/25/22
f 14/16/14 21/24/21 18/21/18 17/19/17
f 24/27/24 25/28/25 26/29/26 27/30/27
f 13/15/13 27/31/27 26/32/26 28/33/28
f 29/34/29 28/33/28 26/32/26 25/35/25
f 30/36/30 29/34/29 25/35/25 24/37/24
f 22/25/22 29/34/29 30/36/30 23/26/23
f 11/13/11 10/12/10 30/38/30 24/27/24
f 7/7/7 23/26/23 30/36/30 10/39/10
f 21/24/21 28/33/28 29/34/29 22/25/22
f 14/16/14 13/15/13 28/33/28 21/24/21
f 12/14/12 11/13/11 24/27/24 27/30/27
f 16/18/16 12/40/12 27/31/27 13/15/13
f 2/2/2 20/23/20 23/26/23 7/7/7
f 1/1/1 17/19/17 20/23/20 2/2/2
f 5/5/5 12/40/12 16/18/16 4/4/4
