# split from a merged terrain OBJ by scripts/split-terrain-obj-parts.py
o part-042
v -0.870062 0.701761 -0.075116
v -0.875109 0.696758 -0.069590
v -0.879121 0.706638 -0.069537
v -0.870966 0.709976 -0.074750
v -0.881387 0.711246 -0.051996
v -0.878034 0.717836 -0.065264
v -0.880478 0.702466 -0.054379
v -0.869275 0.722507 -0.070737
v -0.860029 0.752363 -0.035674
v -0.856331 0.759708 -0.037832
v -0.857458 0.764703 -0.032240
v -0.855068 0.753710 -0.031737
v -0.860473 0.755115 -0.026754
v -0.860696 0.759467 -0.030011
v -0.864008 0.753983 -0.031564
v -0.863055 0.757902 -0.033767
v -0.831178 0.711712 -0.063584
v -0.829707 0.721502 -0.055337
v -0.819635 0.715444 -0.049331
v -0.817122 0.707902 -0.051645
v -0.811907 0.708806 -0.035139
v -0.818395 0.718625 -0.037440
v -0.830487 0.726748 -0.039175
v -0.842529 0.716497 0.029630
v -0.845312 0.709688 0.035091
v -0.839562 0.707811 0.034828
v -0.835657 0.710864 0.029761
v -0.831909 0.704650 0.029921
v -0.838861 0.703380 0.036109
v -0.846356 0.704261 0.037562
v -0.847389 0.694581 0.037170
v -0.847165 0.690480 0.032348
v -0.840422 0.691422 0.033408
v -0.838698 0.694555 0.036448
v -0.832833 0.693004 0.028538
v -0.838167 0.689356 0.026387
v -0.846005 0.688069 0.023731
v -0.854688 0.735911 -0.060503
v -0.855810 0.740805 -0.043489
v -0.845180 0.735183 -0.037150
v -0.843602 0.730135 -0.058069
v -0.856942 0.746090 -0.032629
v -0.855106 0.740694 -0.026107
v -0.830218 0.727923 -0.020017
v -0.841779 0.733096 -0.019460
v -0.854391 0.736251 -0.016018
v -0.864830 0.690900 -0.067625
v -0.862451 0.699047 -0.074688
v -0.860634 0.709677 -0.075117
v -0.871456 0.694899 0.032987
v -0.878261 0.695660 0.029725
v -0.877037 0.690987 0.027379
v -0.870964 0.690235 0.028185
v -0.882263 0.696398 0.020711
v -0.878454 0.690208 0.019726
v -0.870579 0.688701 0.019656
v -0.868128 0.722606 0.027069
v -0.875939 0.718559 0.025814
v -0.874363 0.714535 0.031907
v -0.868925 0.714653 0.033019
v -0.870027 0.707497 0.035332
v -0.876839 0.708611 0.032570
v -0.880194 0.711547 0.023522
v -0.861877 0.750322 -0.023775
v -0.863027 0.744908 -0.019750
v -0.864439 0.746236 -0.034674
v -0.865835 0.742819 -0.045478
v -0.866331 0.749364 -0.028374
v -0.870948 0.743984 -0.023306
v -0.874140 0.741165 -0.030562
v -0.876085 0.737181 -0.043400
v -0.876678 0.692886 -0.055204
v -0.880171 0.720189 -0.049407
v -0.875937 0.729900 -0.056789
v -0.880696 0.724227 -0.040447
v -0.882623 0.711849 -0.039781
v -0.880230 0.729158 -0.023287
v -0.874051 0.737114 -0.016104
v -0.885116 0.713176 -0.025892
v -0.874629 0.728603 -0.002618
v -0.879569 0.720647 -0.004194
v -0.882504 0.709897 -0.005941
v -0.845131 0.688223 -0.035894
v -0.842570 0.688224 -0.048887
v -0.834041 0.688415 -0.044340
v -0.833580 0.688331 -0.034329
v -0.823182 0.689364 -0.035245
v -0.827222 0.689468 -0.048806
v -0.837989 0.688932 -0.059047
v -0.854724 0.688374 -0.052628
v -0.852237 0.689587 -0.064562
v -0.850263 0.696513 -0.072289
v -0.833402 0.693892 -0.065957
v -0.819996 0.693029 -0.052370
v -0.816296 0.692893 -0.035885
v -0.831418 0.702350 -0.067197
v -0.816242 0.699982 -0.052976
v -0.812850 0.700087 -0.035756
v -0.818294 0.692576 -0.015506
v -0.816026 0.700139 -0.015016
v -0.817410 0.709215 -0.015641
v -0.821576 0.700439 0.006025
v -0.821232 0.709251 0.006575
v -0.821791 0.719657 -0.017549
v -0.825712 0.718031 0.005736
v -0.828264 0.706556 0.019313
v -0.832202 0.713694 0.019417
v -0.833519 0.725121 0.003314
v -0.838954 0.721007 0.018518
v -0.843275 0.729528 0.000307
v -0.847842 0.726624 0.016471
v -0.851464 0.721153 0.029055
v -0.853699 0.712477 0.034248
v -0.857840 0.728415 0.014604
v -0.860087 0.723156 0.027797
v -0.861788 0.714401 0.033772
v -0.855088 0.705859 0.036412
v -0.863161 0.706819 0.035364
v -0.863822 0.700425 0.035620
v -0.855856 0.699976 0.036703
v -0.847014 0.699406 0.038312
v -0.855839 0.694384 0.035235
v -0.838309 0.698998 0.036681
v -0.831108 0.698699 0.029496
v -0.828923 0.692198 0.017493
v -0.826983 0.699263 0.018726
v -0.824431 0.693025 0.004416
v -0.835369 0.688582 0.014954
v -0.831089 0.689463 0.001477
v -0.825849 0.688602 -0.017045
v -0.839693 0.688440 -0.001745
v -0.835448 0.688288 -0.018929
v -0.849920 0.688213 -0.004474
v -0.847122 0.688238 -0.021157
v -0.860238 0.688199 -0.005816
v -0.858770 0.688213 -0.023272
v -0.857010 0.688225 -0.038598
v -0.869549 0.688353 -0.024570
v -0.868130 0.688607 -0.040443
v -0.866538 0.688411 -0.054582
v -0.877711 0.692601 -0.041127
v -0.882339 0.701167 -0.025906
v -0.881337 0.701470 -0.040472
v -0.878908 0.691659 -0.025539
v -0.882313 0.699564 -0.006680
v -0.879046 0.691056 -0.006524
v -0.882127 0.697961 0.007925
v -0.878313 0.690951 0.007779
v -0.870217 0.688416 -0.006207
v -0.870221 0.688486 0.007988
v -0.861385 0.688169 0.008804
v -0.862336 0.688180 0.020280
v -0.863229 0.689787 0.029004
v -0.852388 0.688077 0.010186
v -0.854055 0.688099 0.021705
v -0.855101 0.690100 0.030204
v -0.864004 0.694153 0.034574
v -0.871083 0.700855 0.034583
v -0.878100 0.701916 0.031174
v -0.882353 0.703950 0.021851
v -0.880691 0.715531 0.011093
v -0.882743 0.706535 0.008939
v -0.876860 0.724008 0.013970
v -0.867359 0.728146 0.014410
v -0.866105 0.732326 -0.001358
v -0.855565 0.731891 -0.001438
v -0.865521 0.738778 -0.013213
v -0.843673 0.688123 0.012090
v -0.848466 0.706827 -0.073571
v -0.846323 0.718037 -0.068712
v -0.858220 0.722140 -0.071368
v -0.867250 0.737680 -0.062284
vt 0.936101 0.380311
vt 0.932407 0.382244
vt 0.930296 0.377188
vt 0.936043 0.375435
vt 0.920357 0.376570
vt 0.926789 0.372002
vt 0.923121 0.380926
vt 0.932953 0.369884
vt 0.933777 0.224036
vt 0.931728 0.228288
vt 0.928760 0.228559
vt 0.931031 0.223058
vt 0.307610 0.882547
vt 0.305194 0.883837
vt 0.303133 0.878537
vt 0.306206 0.880215
vt 0.308242 0.879963
vt 0.306784 0.878226
vt 0.950059 0.185958
vt 0.943506 0.191784
vt 0.937404 0.185020
vt 0.939303 0.179848
vt 0.928081 0.179409
vt 0.929091 0.187051
vt 0.933373 0.196318
vt 0.335882 0.913545
vt 0.340192 0.915195
vt 0.338791 0.918740
vt 0.335234 0.918441
vt 0.335193 0.922574
vt 0.339663 0.921234
vt 0.342267 0.917585
vt 0.886708 0.420827
vt 0.890301 0.420868
vt 0.890955 0.424499
vt 0.888982 0.425782
vt 0.895064 0.427872
vt 0.895334 0.424591
vt 0.895229 0.420388
vt 0.952913 0.208950
vt 0.941564 0.214864
vt 0.934840 0.208035
vt 0.948595 0.201465
vt 0.934576 0.219793
vt 0.931688 0.217110
vt 0.922460 0.197385
vt 0.925571 0.204184
vt 0.313477 0.896505
vt 0.308703 0.903489
vt 0.303359 0.895962
vt 0.308544 0.891955
vt 0.934787 0.387963
vt 0.939278 0.384339
vt 0.940350 0.377392
vt 0.884427 0.406997
vt 0.884913 0.402818
vt 0.887301 0.404557
vt 0.888047 0.408004
vt 0.888373 0.399282
vt 0.890728 0.402645
vt 0.892457 0.406860
vt 0.873154 0.391814
vt 0.879057 0.390865
vt 0.877382 0.395116
vt 0.876028 0.397768
vt 0.878232 0.401986
vt 0.879691 0.397761
vt 0.882751 0.393208
vt 0.310001 0.885189
vt 0.307881 0.887972
vt 0.312146 0.888136
vt 0.938623 0.224405
vt 0.943934 0.221226
vt 0.935228 0.226988
vt 0.935829 0.228653
vt 0.936384 0.231991
vt 0.939686 0.230937
vt 0.944334 0.227930
vt 0.925694 0.385953
vt 0.917299 0.372400
vt 0.921343 0.367287
vt 0.912081 0.365057
vt 0.912059 0.372225
vt 0.914093 0.378302
vt 0.899098 0.365794
vt 0.903854 0.365412
vt 0.901980 0.372944
vt 0.895860 0.370158
vt 0.906880 0.380552
vt 0.890539 0.377489
vt 0.893895 0.381207
vt 0.897360 0.386110
vt 0.925102 0.406307
vt 0.931998 0.403947
vt 0.932157 0.408845
vt 0.927364 0.411862
vt 0.930436 0.415980
vt 0.936116 0.410263
vt 0.938109 0.402653
vt 0.930589 0.397611
vt 0.936461 0.394638
vt 0.941476 0.391574
vt 0.942988 0.401506
vt 0.940118 0.412280
vt 0.933681 0.417648
vt 0.954130 0.180362
vt 0.941211 0.174876
vt 0.943613 0.169868
vt 0.955614 0.174920
vt 0.928953 0.173567
vt 0.931153 0.168255
vt 0.309659 0.934556
vt 0.302784 0.941147
vt 0.302109 0.938462
vt 0.308618 0.929103
vt 0.914762 0.180525
vt 0.915432 0.174234
vt 0.321732 0.928435
vt 0.307973 0.923940
vt 0.321197 0.923243
vt 0.917403 0.188959
vt 0.320855 0.917968
vt 0.306892 0.917422
vt 0.329439 0.923306
vt 0.329284 0.918302
vt 0.306996 0.910489
vt 0.320328 0.911895
vt 0.329543 0.912360
vt 0.320246 0.905593
vt 0.329788 0.906224
vt 0.337127 0.907765
vt 0.341595 0.910383
vt 0.331250 0.900448
vt 0.339051 0.902595
vt 0.343255 0.906248
vt 0.344840 0.912614
vt 0.347018 0.908275
vt 0.874554 0.401808
vt 0.870525 0.395612
vt 0.877958 0.406785
vt 0.881486 0.409413
vt 0.882466 0.414856
vt 0.879054 0.412574
vt 0.343785 0.919912
vt 0.346405 0.915418
vt 0.886199 0.416141
vt 0.883699 0.420096
vt 0.341287 0.925990
vt 0.340323 0.923849
vt 0.344765 0.922570
vt 0.336563 0.929443
vt 0.335360 0.926206
vt 0.331021 0.931907
vt 0.329538 0.927678
vt 0.323106 0.933220
vt 0.901686 0.423349
vt 0.909555 0.422505
vt 0.908299 0.426133
vt 0.901151 0.427289
vt 0.310793 0.937237
vt 0.322420 0.937096
vt 0.909376 0.417710
vt 0.919041 0.415005
vt 0.920365 0.419522
vt 0.304496 0.943984
vt 0.908487 0.412377
vt 0.917347 0.409117
vt 0.906863 0.406815
vt 0.915491 0.402996
vt 0.923371 0.400200
vt 0.913555 0.397347
vt 0.921288 0.394102
vt 0.928273 0.391437
vt 0.918873 0.388672
vt 0.909280 0.386673
vt 0.916457 0.383708
vt 0.911488 0.392030
vt 0.900394 0.391436
vt 0.902570 0.396381
vt 0.894060 0.395639
vt 0.896179 0.399866
vt 0.904727 0.401342
vt 0.898122 0.404515
vt 0.899584 0.409314
vt 0.893946 0.411425
vt 0.889151 0.412114
vt 0.900834 0.414267
vt 0.894739 0.415871
vt 0.890053 0.416787
vt 0.885005 0.411860
vt 0.880985 0.405060
vt 0.882149 0.400034
vt 0.885818 0.395790
vt 0.887793 0.387612
vt 0.891313 0.391438
vt 0.883621 0.384953
vt 0.340293 0.898723
vt 0.333223 0.896271
vt 0.336247 0.891861
vt 0.343255 0.894526
vt 0.323966 0.893899
vt 0.326587 0.890047
vt 0.321623 0.899004
vt 0.316091 0.891047
vt 0.318562 0.887733
vt 0.935559 0.238191
vt 0.934852 0.239331
vt 0.935034 0.235381
vt 0.901617 0.419095
vt 0.945820 0.386648
vt 0.947103 0.398453
vt 0.957878 0.194405
vt 0.962867 0.188897
vt 0.942832 0.370033
vt 0.946043 0.377792
vt 0.961887 0.201451
vt 0.925802 0.362692
vt 0.932813 0.360574
vt 0.916083 0.360745
vt 0.955551 0.216423
vt 0.934506 0.231600
vt 0.310457 0.881902
vt 0.933070 0.230980
vt 0.929620 0.231512
vn -0.2774 -0.2626 -0.9242
vn -0.6184 -0.5653 -0.5459
vn -0.8516 -0.0333 -0.5231
vn -0.3419 0.1498 -0.9277
vn -0.9898 0.0689 -0.1243
vn -0.8480 0.2875 -0.4453
vn -0.9707 -0.2035 -0.1276
vn -0.3320 0.4441 -0.8322
vn -0.0089 -0.0744 -0.9972
vn 0.2437 0.2788 -0.9289
vn 0.1941 0.9009 -0.3881
vn 0.9879 -0.0534 0.1455
vn 0.0222 0.4061 0.9136
vn -0.3511 0.7295 0.5870
vn -0.9168 0.3729 -0.1430
vn -0.8150 0.4705 -0.3382
vn 0.5489 0.3709 -0.7491
vn 0.5713 0.6593 -0.4888
vn 0.7227 0.5654 -0.3976
vn 0.8308 0.2728 -0.4851
vn 0.9670 0.2545 -0.0104
vn 0.7585 0.6459 -0.0860
vn 0.5452 0.8293 -0.1225
vn 0.3873 0.6661 0.6374
vn 0.1644 0.4540 0.8757
vn 0.3933 0.4286 0.8134
vn 0.6186 0.5333 0.5770
vn 0.7901 0.2620 0.5542
vn 0.4341 0.2279 0.8716
vn 0.0549 0.2378 0.9698
vn -0.0508 -0.4871 0.8719
vn -0.0222 -0.8789 0.4766
vn 0.2021 -0.8455 0.4943
vn 0.3858 -0.4800 0.7879
vn 0.6877 -0.5842 0.4311
vn 0.2728 -0.9303 0.2451
vn 0.0292 -0.9893 0.1428
vn 0.3285 0.7756 -0.5390
vn 0.4103 0.8843 -0.2230
vn 0.5251 0.8486 -0.0649
vn 0.4943 0.7231 -0.4825
vn 0.8266 0.5381 -0.1646
vn 0.6183 0.7420 0.2591
vn 0.5373 0.8400 0.0758
vn 0.3892 0.9125 0.1258
vn 0.3422 0.8825 0.3226
vn -0.1622 -0.8582 -0.4870
vn -0.0047 -0.3917 -0.9201
vn 0.0880 0.1334 -0.9872
vn -0.2891 -0.4563 0.8416
vn -0.6917 -0.3544 0.6293
vn -0.4999 -0.7564 0.4219
vn -0.1831 -0.8772 0.4438
vn -0.9478 -0.2771 0.1574
vn -0.5931 -0.8005 0.0863
vn -0.1337 -0.9883 0.0738
vn -0.2319 0.7850 0.5745
vn -0.6608 0.6028 0.4472
vn -0.5139 0.4662 0.7201
vn -0.1822 0.4613 0.8683
vn -0.2023 0.1088 0.9733
vn -0.6567 0.1770 0.7331
vn -0.9160 0.2828 0.2845
vn 0.1526 0.6437 0.7499
vn 0.1491 0.7836 0.6030
vn -0.3579 0.7543 -0.5504
vn -0.2043 0.9324 -0.2982
vn -0.7416 0.6679 0.0626
vn -0.6418 0.7188 0.2673
vn -0.7765 0.6254 -0.0765
vn -0.7859 0.5928 -0.1758
vn -0.7029 -0.6947 -0.1524
vn -0.9633 0.2228 -0.1499
vn -0.8176 0.4684 -0.3349
vn -0.9558 0.2717 -0.1126
vn -0.9938 0.0263 -0.1078
vn -0.9226 0.3764 0.0840
vn -0.6607 0.6587 0.3600
vn -0.9980 0.0632 -0.0084
vn -0.6775 0.6912 0.2513
vn -0.9268 0.3566 0.1180
vn -0.9948 0.0834 0.0580
vn 0.0046 -1.0000 -0.0021
vn 0.0230 -0.9989 -0.0404
vn 0.0692 -0.9972 -0.0293
vn 0.0515 -0.9986 -0.0118
vn 0.2933 -0.9554 -0.0334
vn 0.2610 -0.9523 -0.1582
vn 0.1506 -0.9413 -0.3020
vn -0.0117 -0.9979 -0.0633
vn 0.0449 -0.9117 -0.4083
vn 0.1688 -0.4762 -0.8630
vn 0.3929 -0.5802 -0.7134
vn 0.6383 -0.6628 -0.3915
vn 0.7330 -0.6788 -0.0436
vn 0.5315 -0.0043 -0.8470
vn 0.8599 -0.1454 -0.4894
vn 0.9808 -0.1924 -0.0323
vn 0.7356 -0.6599 0.1530
vn 0.9657 -0.1601 0.2044
vn 0.9456 0.2607 0.1948
vn 0.9371 -0.1506 0.3150
vn 0.9070 0.2488 0.3398
vn 0.7648 0.6303 0.1333
vn 0.7402 0.5868 0.3281
vn 0.8642 0.2637 0.4286
vn 0.6929 0.5694 0.4424
vn 0.5133 0.8122 0.2773
vn 0.4912 0.7657 0.4152
vn 0.2926 0.9267 0.2358
vn 0.2594 0.9002 0.3499
vn 0.1838 0.7300 0.6582
vn 0.0368 0.4273 0.9033
vn 0.0537 0.9503 0.3065
vn 0.0024 0.7844 0.6203
vn -0.0335 0.4255 0.9044
vn -0.0813 0.2031 0.9758
vn -0.0713 0.1416 0.9874
vn -0.1255 -0.0945 0.9876
vn -0.1451 -0.0670 0.9872
vn -0.0074 -0.0354 0.9993
vn -0.1269 -0.5283 0.8395
vn 0.4683 -0.0422 0.8826
vn 0.8451 -0.0853 0.5277
vn 0.7114 -0.6578 0.2474
vn 0.9196 -0.1382 0.3677
vn 0.7194 -0.6584 0.2213
vn 0.2721 -0.9590 0.0798
vn 0.2652 -0.9615 0.0719
vn 0.2648 -0.9626 0.0566
vn 0.0455 -0.9989 0.0068
vn 0.0378 -0.9992 0.0091
vn 0.0068 -1.0000 -0.0029
vn 0.0052 -1.0000 0.0013
vn -0.0116 -0.9999 -0.0015
vn -0.0093 -1.0000 -0.0028
vn -0.0113 -0.9999 -0.0046
vn -0.1802 -0.9833 -0.0244
vn -0.2017 -0.9790 -0.0295
vn -0.2153 -0.9698 -0.1150
vn -0.7114 -0.6990 -0.0726
vn -0.9668 -0.2522 -0.0420
vn -0.9634 -0.2525 -0.0896
vn -0.7014 -0.7108 -0.0525
vn -0.9720 -0.2349 0.0052
vn -0.6774 -0.7355 -0.0091
vn -0.9672 -0.2538 -0.0139
vn -0.6292 -0.7770 -0.0196
vn -0.1641 -0.9864 -0.0034
vn -0.1516 -0.9884 -0.0034
vn -0.0227 -0.9997 0.0003
vn -0.0382 -0.9949 0.0933
vn -0.0763 -0.9050 0.4185
vn 0.0014 -1.0000 -0.0048
vn -0.0169 -0.9939 0.1090
vn -0.0595 -0.8995 0.4329
vn -0.1331 -0.5167 0.8457
vn -0.2900 -0.1279 0.9484
vn -0.7256 -0.0544 0.6860
vn -0.9726 0.0613 0.2244
vn -0.9386 0.3325 0.0917
vn -0.9951 0.0947 0.0270
vn -0.6976 0.6814 0.2213
vn -0.2273 0.9264 0.3001
vn -0.1561 0.9297 0.3337
vn 0.1433 0.9516 0.2720
vn -0.0470 0.8575 0.5124
vn 0.0495 -0.9988 0.0043
vn 0.2802 0.0791 -0.9567
vn 0.3813 0.4184 -0.8244
vn 0.1771 0.4309 -0.8848
vn -0.2559 0.7741 -0.5790
f 1/1/1 2/2/2 3/3/3 4/4/4
f 5/5/5 6/6/6 3/3/3 7/7/7
f 8/8/8 4/4/4 3/3/3 6/6/6
f 9/9/9 10/10/10 11/11/11 12/12/12
f 13/13/13 12/14/12 11/15/11 14/16/14
f 15/17/15 13/13/13 14/16/14 16/18/16
f 17/19/17 18/20/18 19/21/19 20/22/20
f 21/23/21 20/22/20 19/21/19 22/24/22
f 23/25/23 22/24/22 19/21/19 18/20/18
f 24/26/24 25/27/25 26/28/26 27/29/27
f 28/30/28 27/29/27 26/28/26 29/31/29
f 30/32/30 29/31/29 26/28/26 25/27/25
f 31/33/31 32/34/32 33/35/33 34/36/34
f 35/37/35 34/36/34 33/35/33 36/38/36
f 37/39/37 36/38/36 33/35/33 32/34/32
f 38/40/38 39/41/39 40/42/40 41/43/41
f 18/20/18 41/43/41 40/42/40 23/25/23
f 42/44/42 43/45/43 40/42/40 39/41/39
f 44/46/44 23/25/23 40/42/40 45/47/45
f 46/48/46 45/49/45 40/50/40 43/51/43
f 47/52/47 2/2/2 1/1/1 48/53/48
f 49/54/49 48/53/48 1/1/1 4/4/4
f 50/55/50 51/56/51 52/57/52 53/58/53
f 54/59/54 55/60/55 52/57/52 51/56/51
f 56/61/56 53/58/53 52/57/52 55/60/55
f 57/62/57 58/63/58 59/64/59 60/65/60
f 61/66/61 60/65/60 59/64/59 62/67/62
f 63/68/63 62/67/62 59/64/59 58/63/58
f 13/13/13 64/69/64 42/70/42 12/14/12
f 65/71/65 43/51/43 42/70/42 64/69/64
f 9/9/9 12/12/12 42/44/42 66/72/66
f 67/73/67 66/72/66 42/44/42 39/41/39
f 15/74/15 9/9/9 66/72/66 68/75/68
f 69/76/69 68/75/68 66/72/66 70/77/70
f 71/78/71 70/77/70 66/72/66 67/73/67
f 72/79/72 7/7/7 3/3/3 2/2/2
f 6/6/6 5/5/5 73/80/73 74/81/74
f 71/82/71 74/81/74 73/80/73 75/83/75
f 76/84/76 75/83/75 73/80/73 5/5/5
f 69/85/69 70/86/70 77/87/77 78/88/78
f 71/82/71 75/83/75 77/87/77 70/86/70
f 76/84/76 79/89/79 77/87/77 75/83/75
f 80/90/80 78/88/78 77/87/77 81/91/81
f 82/92/82 81/91/81 77/87/77 79/89/79
f 83/93/83 84/94/84 85/95/85 86/96/86
f 87/97/87 86/96/86 85/95/85 88/98/88
f 89/99/89 88/98/88 85/95/85 84/94/84
f 90/100/90 91/101/91 89/99/89 84/94/84
f 92/102/92 93/103/93 89/99/89 91/101/91
f 94/104/94 88/98/88 89/99/89 93/103/93
f 87/97/87 88/98/88 94/104/94 95/105/95
f 96/106/96 97/107/97 94/108/94 93/109/93
f 98/110/98 95/111/95 94/108/94 97/107/97
f 99/112/99 95/113/95 98/114/98 100/115/100
f 20/22/20 21/23/21 98/110/98 97/107/97
f 101/116/101 100/117/100 98/110/98 21/23/21
f 102/118/102 100/115/100 101/119/101 103/120/103
f 22/24/22 104/121/104 101/116/101 21/23/21
f 105/122/105 103/120/103 101/119/101 104/123/104
f 106/124/106 103/120/103 105/122/105 107/125/107
f 44/126/44 108/127/108 105/122/105 104/123/104
f 109/128/109 107/125/107 105/122/105 108/127/108
f 27/29/27 107/125/107 109/128/109 24/26/24
f 110/129/110 111/130/111 109/128/109 108/127/108
f 112/131/112 24/26/24 109/128/109 111/130/111
f 25/27/25 24/26/24 112/131/112 113/132/113
f 114/133/114 115/134/115 112/131/112 111/130/111
f 116/135/116 113/132/113 112/131/112 115/134/115
f 117/136/117 113/132/113 116/135/116 118/137/118
f 57/62/57 60/65/60 116/138/116 115/139/115
f 61/66/61 118/140/118 116/138/116 60/65/60
f 119/141/119 120/142/120 117/143/117 118/140/118
f 121/144/121 30/32/30 117/136/117 120/145/120
f 25/27/25 113/132/113 117/136/117 30/32/30
f 122/146/122 31/33/31 121/147/121 120/142/120
f 34/148/34 123/149/123 121/144/121 31/150/31
f 29/31/29 30/32/30 121/144/121 123/149/123
f 35/151/35 124/152/124 123/149/123 34/148/34
f 28/30/28 29/31/29 123/149/123 124/152/124
f 125/153/125 126/154/126 124/152/124 35/151/35
f 106/124/106 28/30/28 124/152/124 126/154/126
f 127/155/127 102/118/102 126/154/126 125/153/125
f 103/120/103 106/124/106 126/154/126 102/118/102
f 128/156/128 129/157/129 127/158/127 125/159/125
f 130/160/130 99/112/99 127/155/127 129/161/129
f 100/115/100 102/118/102 127/155/127 99/112/99
f 131/162/131 132/163/132 130/164/130 129/157/129
f 86/96/86 87/97/87 130/164/130 132/163/132
f 95/113/95 99/112/99 130/160/130 87/165/87
f 133/166/133 134/167/134 132/163/132 131/162/131
f 83/93/83 86/96/86 132/163/132 134/167/134
f 135/168/135 136/169/136 134/167/134 133/166/133
f 137/170/137 83/93/83 134/167/134 136/169/136
f 138/171/138 139/172/139 137/170/137 136/169/136
f 140/173/140 90/100/90 137/170/137 139/172/139
f 84/94/84 83/93/83 137/170/137 90/100/90
f 141/174/141 72/79/72 140/173/140 139/172/139
f 2/2/2 47/52/47 140/173/140 72/79/72
f 91/101/91 90/100/90 140/173/140 47/52/47
f 142/175/142 143/176/143 141/174/141 144/177/144
f 7/7/7 72/79/72 141/174/141 143/176/143
f 138/171/138 144/177/144 141/174/141 139/172/139
f 79/89/79 76/84/76 143/176/143 142/175/142
f 5/5/5 7/7/7 143/176/143 76/84/76
f 82/92/82 79/89/79 142/175/142 145/178/145
f 146/179/146 145/178/145 142/175/142 144/177/144
f 147/180/147 145/178/145 146/179/146 148/181/148
f 138/171/138 149/182/149 146/179/146 144/177/144
f 150/183/150 148/181/148 146/179/146 149/182/149
f 55/60/55 148/181/148 150/183/150 56/61/56
f 135/168/135 151/184/151 150/183/150 149/182/149
f 152/185/152 56/61/56 150/183/150 151/184/151
f 53/58/53 56/61/56 152/185/152 153/186/153
f 154/187/154 155/188/155 152/185/152 151/184/151
f 156/189/156 153/186/153 152/185/152 155/188/155
f 157/190/157 153/186/153 156/189/156 122/146/122
f 37/39/37 32/34/32 156/189/156 155/188/155
f 31/33/31 122/146/122 156/189/156 32/34/32
f 158/191/158 50/55/50 157/190/157 119/141/119
f 53/58/53 153/186/153 157/190/157 50/55/50
f 120/142/120 119/141/119 157/190/157 122/146/122
f 62/67/62 159/192/159 158/191/158 61/66/61
f 51/56/51 50/55/50 158/191/158 159/192/159
f 118/140/118 61/66/61 158/191/158 119/141/119
f 63/68/63 160/193/160 159/192/159 62/67/62
f 54/59/54 51/56/51 159/192/159 160/193/160
f 161/194/161 162/195/162 160/193/160 63/68/63
f 147/180/147 54/59/54 160/193/160 162/195/162
f 81/91/81 82/92/82 162/195/162 161/194/161
f 145/178/145 147/180/147 162/195/162 82/92/82
f 58/63/58 163/196/163 161/194/161 63/68/63
f 80/90/80 81/91/81 161/194/161 163/196/163
f 57/197/57 164/198/164 163/199/163 58/200/58
f 165/201/165 80/202/80 163/199/163 164/198/164
f 114/133/114 166/203/166 165/201/165 164/198/164
f 46/48/46 167/204/167 165/201/165 166/203/166
f 78/205/78 80/202/80 165/201/165 167/204/167
f 43/51/43 65/71/65 167/204/167 46/48/46
f 69/76/69 78/206/78 167/207/167 65/208/65
f 111/130/111 110/129/110 166/203/166 114/133/114
f 45/49/45 46/48/46 166/203/166 110/129/110
f 115/134/115 114/133/114 164/198/164 57/197/57
f 168/209/168 37/39/37 155/188/155 154/187/154
f 133/166/133 131/162/131 168/209/168 154/187/154
f 129/157/129 128/156/128 168/209/168 131/162/131
f 36/38/36 37/39/37 168/209/168 128/156/128
f 135/168/135 133/166/133 154/187/154 151/184/151
f 136/169/136 135/168/135 149/182/149 138/171/138
f 55/60/55 54/59/54 147/180/147 148/181/148
f 35/37/35 36/38/36 128/156/128 125/159/125
f 44/126/44 45/49/45 110/129/110 108/127/108
f 27/29/27 28/30/28 106/124/106 107/125/107
f 23/25/23 44/46/44 104/121/104 22/24/22
f 17/19/17 20/22/20 97/107/97 96/106/96
f 92/102/92 169/210/169 96/211/96 93/103/93
f 170/212/170 17/19/17 96/106/96 169/213/169
f 49/54/49 171/214/171 170/215/170 169/210/169
f 38/40/38 41/43/41 170/212/170 171/216/171
f 18/20/18 17/19/17 170/212/170 41/43/41
f 4/4/4 8/8/8 171/214/171 49/54/49
f 172/217/172 38/218/38 171/214/171 8/8/8
f 71/82/71 67/219/67 172/217/172 74/81/74
f 39/41/39 38/40/38 172/220/172 67/73/67
f 6/6/6 74/81/74 172/217/172 8/8/8
f 48/53/48 49/54/49 169/210/169 92/102/92
f 47/52/47 48/53/48 92/102/92 91/101/91
f 64/221/64 68/75/68 69/76/69 65/208/65
f 13/13/13 15/17/15 68/222/68 64/69/64
f 10/10/10 9/9/9 15/74/15 16/223/16
f 10/10/10 14/224/14 11/11/11
f 10/10/10 16/223/16 14/224/14
