# split from a merged terrain OBJ by scripts/split-terrain-obj-parts.py
o part-061
v 0.597004 0.034826 0.081290
v 0.596780 0.034205 0.080851
v 0.597441 0.033939 0.080719
v 0.597698 0.034591 0.080902
v 0.598527 0.034172 0.080208
v 0.597626 0.033536 0.079961
v 0.596605 0.033565 0.080080
v 0.597697 0.035497 0.079888
v 0.597215 0.035393 0.081059
v 0.597986 0.035249 0.080981
v 0.598600 0.035041 0.080140
v 0.599283 0.033046 0.077995
v 0.597947 0.032624 0.078139
v 0.598061 0.032200 0.077161
v 0.598976 0.032360 0.076570
v 0.596643 0.032472 0.077669
v 0.597076 0.032128 0.076353
v 0.597777 0.031821 0.075265
v 0.596283 0.035031 0.081666
v 0.596096 0.034509 0.081020
v 0.596499 0.035452 0.081063
v 0.595719 0.035073 0.080950
v 0.596802 0.034249 0.075956
v 0.595754 0.034285 0.077296
v 0.596360 0.034910 0.077658
v 0.597313 0.034795 0.077304
v 0.597094 0.035254 0.078630
v 0.596175 0.035073 0.078739
v 0.595493 0.034631 0.078759
v 0.595951 0.035271 0.080056
v 0.595346 0.034939 0.079922
v 0.595451 0.034476 0.080256
v 0.595245 0.033986 0.078796
v 0.595242 0.033551 0.077101
v 0.595767 0.032799 0.077213
v 0.595774 0.033295 0.078858
v 0.595895 0.033891 0.080262
v 0.596402 0.032875 0.079015
v 0.597790 0.033078 0.079043
v 0.599010 0.033643 0.079289
v 0.599413 0.034056 0.077471
v 0.599245 0.034621 0.078978
v 0.598355 0.034730 0.077162
v 0.598170 0.035241 0.078575
v 0.596780 0.035512 0.079931
v 0.599175 0.033264 0.075796
v 0.598046 0.034092 0.075558
v 0.598678 0.032497 0.074426
v 0.597065 0.033473 0.074301
v 0.595875 0.033501 0.075316
v 0.596054 0.032200 0.074699
v 0.595927 0.032513 0.075517
vt 0.690329 0.048302
vt 0.690354 0.048715
vt 0.689957 0.048740
vt 0.689865 0.048341
vt 0.689340 0.048678
vt 0.689699 0.049155
vt 0.690246 0.049251
vt 0.007367 0.072537
vt 0.007613 0.073077
vt 0.007156 0.073079
vt 0.006817 0.072734
vt 0.006369 0.072973
vt 0.006904 0.073367
vt 0.007472 0.073405
vt 0.688585 0.050385
vt 0.689220 0.050194
vt 0.689144 0.050826
vt 0.688548 0.051053
vt 0.689883 0.050620
vt 0.689544 0.051312
vt 0.688962 0.051804
vt 0.690860 0.048277
vt 0.690795 0.048718
vt 0.008083 0.073047
vt 0.007945 0.073445
vt 0.691189 0.048703
vt 0.691281 0.048253
vt 0.007302 0.070324
vt 0.008091 0.070702
vt 0.007806 0.071154
vt 0.007277 0.071123
vt 0.007624 0.071802
vt 0.008130 0.071726
vt 0.008418 0.071437
vt 0.691669 0.049022
vt 0.691346 0.049258
vt 0.691058 0.049181
vt 0.691027 0.049990
vt 0.691405 0.049923
vt 0.691782 0.049701
vt 0.691412 0.050704
vt 0.690940 0.050943
vt 0.690403 0.050897
vt 0.690544 0.050003
vt 0.690678 0.049222
vt 0.690126 0.049911
vt 0.689394 0.049648
vt 0.005512 0.071765
vt 0.005939 0.072479
vt 0.005273 0.072620
vt 0.005009 0.072202
vt 0.689007 0.049089
vt 0.006080 0.071478
vt 0.006449 0.072175
vt 0.006728 0.071188
vt 0.007065 0.071907
vt 0.007873 0.072473
vt 0.008338 0.072396
vt 0.008510 0.072851
vt 0.005838 0.070566
vt 0.006676 0.070223
vt 0.005902 0.069796
vt 0.006540 0.068707
vt 0.007542 0.069668
vt 0.690098 0.052235
vt 0.690169 0.051777
vt 0.690713 0.051905
vt 0.690739 0.052712
vt 0.008313 0.070273
vt 0.005210 0.070902
vt 0.005146 0.069769
vt 0.005647 0.068758
vn 0.2274 -0.1694 0.9590
vn -0.0154 -0.6931 0.7207
vn 0.1900 -0.6838 0.7045
vn 0.4188 -0.3223 0.8490
vn 0.6536 -0.4091 0.6367
vn 0.2033 -0.7985 0.5666
vn -0.1577 -0.8223 0.5467
vn 0.2142 0.9766 -0.0164
vn 0.2794 0.7411 0.6106
vn 0.5571 0.4822 0.6761
vn 0.7579 0.5074 0.4100
vn 0.7862 -0.5574 0.2668
vn 0.1663 -0.9082 0.3841
vn 0.1262 -0.9475 0.2937
vn 0.6633 -0.7442 0.0785
vn -0.2502 -0.9346 0.2529
vn -0.1868 -0.9651 0.1838
vn 0.1529 -0.9410 -0.3019
vn -0.2422 0.0384 0.9695
vn -0.4424 -0.4995 0.7448
vn -0.1763 0.8634 0.4727
vn -0.7879 0.4165 0.4535
vn -0.2595 0.8783 -0.4015
vn -0.6101 0.7312 -0.3053
vn -0.3207 0.8924 -0.3174
vn -0.0875 0.9305 -0.3557
vn -0.0784 0.9651 -0.2499
vn -0.3685 0.8958 -0.2486
vn -0.7870 0.5885 -0.1851
vn -0.4930 0.8688 -0.0457
vn -0.8382 0.5450 -0.0193
vn -0.9265 -0.1201 0.3566
vn -0.9870 -0.1434 0.0732
vn -0.9847 0.0692 -0.1598
vn -0.6981 -0.7124 0.0720
vn -0.6436 -0.7094 0.2872
vn -0.5264 -0.6718 0.5211
vn -0.2296 -0.8898 0.3943
vn 0.1915 -0.8645 0.4647
vn 0.7255 -0.4954 0.4777
vn 0.9241 0.3504 -0.1526
vn 0.8864 0.4422 0.1368
vn 0.3277 0.8767 -0.3523
vn 0.2883 0.9355 -0.2041
vn -0.1339 0.9881 -0.0760
vn 0.9060 0.1318 -0.4023
vn 0.2760 0.8200 -0.5014
vn 0.6110 -0.2064 -0.7642
vn -0.1275 0.3764 -0.9176
vn -0.7681 0.4225 -0.4811
vn -0.5836 -0.5693 -0.5790
vn -0.7781 -0.6025 -0.1776
f 1/1/1 2/2/2 3/3/3 4/4/4
f 5/5/5 4/4/4 3/3/3 6/6/6
f 7/7/7 6/6/6 3/3/3 2/2/2
f 8/8/8 9/9/9 10/10/10 11/11/11
f 5/12/5 11/11/11 10/10/10 4/13/4
f 1/14/1 4/13/4 10/10/10 9/9/9
f 12/15/12 13/16/13 14/17/14 15/18/15
f 16/19/16 17/20/17 14/17/14 13/16/13
f 18/21/18 15/18/15 14/17/14 17/20/17
f 2/2/2 1/1/1 19/22/19 20/23/20
f 9/9/9 21/24/21 19/25/19 1/14/1
f 22/26/22 20/23/20 19/22/19 21/27/21
f 23/28/23 24/29/24 25/30/25 26/31/26
f 27/32/27 26/31/26 25/30/25 28/33/28
f 29/34/29 28/33/28 25/30/25 24/29/24
f 22/26/22 30/35/30 31/36/31 32/37/32
f 33/38/33 32/37/32 31/36/31 29/39/29
f 28/40/28 29/39/29 31/36/31 30/35/30
f 24/41/24 34/42/34 33/38/33 29/39/29
f 35/43/35 36/44/36 33/38/33 34/42/34
f 37/45/37 32/37/32 33/38/33 36/44/36
f 38/46/38 7/7/7 37/45/37 36/44/36
f 2/2/2 20/23/20 37/45/37 7/7/7
f 22/26/22 32/37/32 37/45/37 20/23/20
f 35/43/35 16/19/16 38/46/38 36/44/36
f 13/16/13 39/47/39 38/46/38 16/19/16
f 6/6/6 7/7/7 38/46/38 39/47/39
f 12/48/12 40/49/40 39/50/39 13/51/13
f 5/5/5 6/6/6 39/47/39 40/52/40
f 41/53/41 42/54/42 40/49/40 12/48/12
f 11/11/11 5/12/5 40/49/40 42/54/42
f 43/55/43 44/56/44 42/54/42 41/53/41
f 8/8/8 11/11/11 42/54/42 44/56/44
f 26/31/26 27/32/27 44/56/44 43/55/43
f 45/57/45 8/8/8 44/56/44 27/32/27
f 9/9/9 8/8/8 45/57/45 21/24/21
f 28/33/28 30/58/30 45/57/45 27/32/27
f 22/59/22 21/24/21 45/57/45 30/58/30
f 46/60/46 47/61/47 43/55/43 41/53/41
f 23/28/23 26/31/26 43/55/43 47/61/47
f 48/62/48 49/63/49 47/61/47 46/60/46
f 50/64/50 23/28/23 47/61/47 49/63/49
f 51/65/51 52/66/52 50/67/50 49/68/49
f 35/43/35 34/42/34 50/67/50 52/66/52
f 24/29/24 23/28/23 50/64/50 34/69/34
f 18/21/18 17/20/17 52/66/52 51/65/51
f 16/19/16 35/43/35 52/66/52 17/20/17
f 12/48/12 15/70/15 46/60/46 41/53/41
f 18/71/18 48/62/48 46/60/46 15/70/15
f 49/63/49 48/62/48 18/71/18 51/72/51
