# split from a merged terrain OBJ by scripts/split-terrain-obj-parts.py
o part-020
v -0.433083 0.931971 0.056707
v -0.430324 0.925417 0.052707
v -0.427381 0.928599 0.051623
v -0.431150 0.934248 0.053229
v -0.428811 0.923905 0.046961
v -0.426394 0.930330 0.047282
v -0.430555 0.936194 0.048416
v -0.418228 0.955784 -0.004895
v -0.419141 0.964208 0.007946
v -0.415298 0.957568 0.007127
v -0.413974 0.951940 0.000789
v -0.414940 0.948143 0.014262
v -0.415972 0.955292 0.019063
v -0.420689 0.962262 0.022513
v -0.419109 0.936619 0.004695
v -0.418417 0.944567 -0.005320
v -0.414663 0.945083 -0.000169
v -0.415401 0.940913 0.009777
v -0.429057 0.941862 -0.048651
v -0.435466 0.931680 -0.046426
v -0.437974 0.933907 -0.054395
v -0.435013 0.940973 -0.059596
v -0.448126 0.941701 -0.064604
v -0.447814 0.931394 -0.057148
v -0.448047 0.926384 -0.045918
v -0.428985 0.968683 0.026352
v -0.433175 0.962825 0.035842
v -0.424662 0.957487 0.031652
v -0.421286 0.949871 0.031177
v -0.431812 0.947780 0.035974
v -0.426873 0.990799 -0.062248
v -0.428654 0.998114 -0.056883
v -0.422661 0.994792 -0.052444
v -0.420754 0.989098 -0.053573
v -0.420386 0.990307 -0.039331
v -0.422964 0.997577 -0.040371
v -0.431911 1.001192 -0.042371
v -0.426463 0.943681 -0.012895
v -0.425152 0.958919 -0.016896
v -0.423243 0.960089 -0.006196
v -0.423143 0.944509 -0.008042
v -0.426551 0.968009 0.010389
v -0.424608 0.973265 -0.020760
v -0.426134 0.973139 -0.006324
v -0.427241 0.976117 0.012895
v -0.423539 0.933859 0.000045
v -0.430406 0.930983 -0.005432
v -0.429075 0.930790 0.017766
v -0.434819 0.927579 0.016484
v -0.427259 0.943320 -0.023229
v -0.433640 0.931141 -0.019803
v -0.447505 0.925504 -0.016911
v -0.446272 0.924954 0.000240
v -0.437638 0.930688 0.057978
v -0.437397 0.925628 0.053390
v -0.440797 0.940991 0.057605
v -0.447114 0.939287 0.058994
v -0.446162 0.929144 0.054255
v -0.434012 0.947274 0.043613
v -0.433810 0.962091 0.045497
v -0.434030 0.972078 0.047246
v -0.433292 0.971992 0.038007
v -0.432747 0.976682 0.031000
v -0.434143 0.979087 0.047444
v -0.428446 0.984495 0.014105
v -0.434132 0.985907 0.032155
v -0.435203 0.987293 0.048422
v -0.440326 1.000711 -0.044355
v -0.443786 1.000709 -0.032478
v -0.439903 1.000977 -0.023395
v -0.450360 0.999978 -0.043908
v -0.451288 1.002626 -0.031349
v -0.450193 1.004059 -0.019410
v -0.429418 0.997407 -0.021397
v -0.449250 1.004826 -0.004722
v -0.441460 1.001255 -0.005250
v -0.433907 0.996831 -0.005060
v -0.434197 0.928695 0.032699
v -0.438602 0.926272 0.030828
v -0.435442 0.924122 0.040154
v -0.444861 0.924721 0.036696
v -0.446323 0.924535 0.019427
v -0.443955 0.953885 0.064969
v -0.451677 0.953573 0.066113
v -0.456756 0.930693 0.055294
v -0.458622 0.939434 0.061822
v -0.462345 0.954134 0.066617
v -0.436832 0.922926 0.047906
v -0.445675 0.925022 0.047340
v -0.459363 0.924975 0.021971
v -0.456562 0.924959 0.036904
v -0.455839 0.926140 0.046914
v -0.476859 0.931957 -0.057667
v -0.490059 0.935832 -0.058360
v -0.484430 0.941556 -0.063959
v -0.474221 0.941117 -0.064546
v -0.498799 0.948178 -0.055490
v -0.488906 0.951813 -0.062910
v -0.473833 0.954451 -0.064566
v -0.447899 0.990057 0.074124
v -0.451647 0.994926 0.071209
v -0.455417 0.994629 0.074367
v -0.454340 0.990448 0.076839
v -0.461288 0.998231 0.066908
v -0.464290 0.996871 0.072027
v -0.465738 0.991606 0.073998
v -0.485681 0.982993 -0.057359
v -0.475220 0.981793 -0.059439
v -0.483456 0.973539 -0.057389
v -0.486232 0.974522 -0.058767
v -0.492704 0.963752 -0.060693
v -0.492801 0.968212 -0.061182
v -0.474347 0.967893 -0.061990
v -0.468465 0.932238 0.051683
v -0.465032 0.927359 0.046330
v -0.476718 0.933638 0.042826
v -0.468822 0.926314 0.038874
v -0.496175 0.980368 -0.059936
v -0.503189 0.962057 -0.051116
v -0.503317 0.976834 -0.057234
v -0.509527 0.973962 -0.050045
v -0.461344 1.004905 -0.042030
v -0.473285 1.004634 -0.039959
v -0.472981 1.009016 -0.030046
v -0.461529 1.006032 -0.030838
v -0.459714 1.006320 -0.018189
v -0.468015 1.005878 -0.018310
v -0.486189 1.005177 -0.037263
v -0.486252 1.013009 -0.031589
v -0.487928 1.017198 -0.023897
v -0.476959 1.015162 -0.025502
v -0.472610 1.010659 -0.017685
v -0.473910 1.007859 -0.005551
v -0.473438 1.012569 -0.005129
v -0.473677 1.007364 0.007400
v -0.473370 1.007183 0.006692
v -0.479823 1.027148 -0.020247
v -0.480034 1.028566 -0.013020
v -0.472695 1.027542 -0.013118
v -0.472724 1.022868 -0.015566
v -0.472477 1.020692 -0.004342
v -0.472768 1.027803 -0.003338
v -0.479510 1.028993 -0.002537
v -0.511669 0.976955 -0.035876
v -0.511224 0.984896 -0.037470
v -0.511302 0.981441 -0.048070
v -0.505561 0.990867 -0.039931
v -0.507051 0.985509 -0.052721
v -0.472543 1.013322 0.014795
v -0.467583 1.008022 0.010269
v -0.467162 1.006190 -0.005182
v -0.474126 1.018776 0.007774
v -0.478337 1.018658 0.019047
v -0.469207 1.007767 0.023706
v -0.473807 1.012845 0.022137
v -0.475842 1.011426 0.026997
v -0.474168 1.006945 0.030664
v -0.480923 1.015925 0.024017
v -0.481910 1.012650 0.029560
v -0.480621 1.006978 0.034544
v -0.473342 1.026054 0.008344
v -0.478829 1.028738 0.008491
v -0.476518 1.026743 0.021371
v -0.477081 1.024645 0.019313
v -0.484959 1.026278 0.022325
v -0.485422 1.029096 0.017738
v -0.485856 1.021548 0.022599
v -0.487348 1.017225 0.025181
v -0.504448 1.022388 -0.009991
v -0.498539 1.029304 -0.009238
v -0.498769 1.026287 -0.016828
v -0.500049 1.022060 -0.019476
v -0.488962 1.022538 -0.023163
v -0.489375 1.027432 -0.019338
v -0.488985 1.029380 -0.011184
v -0.492746 1.028347 0.017692
v -0.492422 1.028708 0.023129
v -0.491817 1.022968 0.021813
v -0.496214 1.023553 0.019232
v -0.497346 1.029787 0.000954
v -0.504707 1.023938 0.001546
v -0.501662 1.021755 0.013136
v -0.494672 1.029199 0.010706
v -0.507276 1.014005 -0.001419
v -0.505203 1.011207 0.008868
v -0.501235 1.018030 0.024404
v -0.508017 1.016442 0.020658
v -0.512280 1.008903 0.015748
v -0.506454 0.969160 0.002050
v -0.511777 0.986907 0.009137
v -0.509138 0.987926 -0.011083
v -0.507910 0.967450 -0.020323
v -0.508378 1.005152 -0.007113
v -0.507062 0.993468 -0.019079
v -0.507803 1.002196 0.002977
v -0.514084 0.998959 0.012575
v -0.513100 0.981105 0.022027
v -0.515624 0.993451 0.024520
v -0.514982 1.003232 0.026791
v -0.512494 0.987632 0.037725
v -0.511782 0.996681 0.038806
v -0.508920 1.003535 0.040495
v -0.511519 1.010865 0.030042
v -0.502304 1.005594 0.039722
v -0.505018 1.013069 0.031925
v -0.495816 1.005373 0.037863
v -0.496802 1.013679 0.032686
v -0.493907 1.017506 0.025368
v -0.488869 1.013201 0.031829
v -0.488203 1.006808 0.035884
v -0.487696 1.002087 0.047971
v -0.482139 1.002748 0.045462
v -0.475771 1.002845 0.042228
v -0.470955 1.000821 0.055473
v -0.465800 1.001285 0.050573
v -0.460762 1.002686 0.042813
v -0.469641 1.003122 0.036703
v -0.455910 1.001228 0.029743
v -0.463948 1.003591 0.026629
v -0.451115 1.003323 0.013109
v -0.459841 1.005180 0.011636
v -0.458773 1.005988 -0.004289
v -0.447466 0.999233 0.031439
v -0.443331 1.000658 0.013768
v -0.439990 0.997719 0.032266
v -0.435744 0.997896 0.014403
v -0.435430 0.992987 0.032588
v -0.430450 0.992341 0.014686
v -0.429241 0.990443 -0.004880
v -0.427110 0.982334 -0.005612
v -0.424539 0.982403 -0.021364
v -0.426132 0.990477 -0.021141
v -0.420576 0.982200 -0.037859
v -0.422475 0.972534 -0.034546
v -0.422535 0.970082 -0.046658
v -0.419634 0.980603 -0.051505
v -0.426076 0.969283 -0.058369
v -0.424402 0.981671 -0.062153
v -0.433875 0.969779 -0.065862
v -0.435842 0.983581 -0.065460
v -0.438176 0.993644 -0.064665
v -0.439424 0.998815 -0.057097
v -0.449146 0.983791 -0.066870
v -0.450053 0.993408 -0.063229
v -0.450308 0.998912 -0.054919
v -0.461999 0.993938 -0.057125
v -0.461693 1.001243 -0.052083
v -0.474548 0.995775 -0.056997
v -0.473994 1.002636 -0.049566
v -0.487407 0.992444 -0.053749
v -0.487807 1.000026 -0.047039
v -0.498693 0.989438 -0.054141
v -0.499070 0.996522 -0.044260
v -0.496847 1.002933 -0.033064
v -0.498289 1.010823 -0.026651
v -0.502568 0.997852 -0.026229
v -0.504521 1.007754 -0.017764
v -0.499436 1.017049 -0.022148
v -0.505224 1.015594 -0.012662
v -0.461680 0.984034 -0.059601
v -0.447136 0.971828 -0.067288
v -0.459758 0.971506 -0.061471
v -0.447889 0.956276 -0.066809
v -0.460181 0.956400 -0.064138
v -0.460653 0.942347 -0.063332
v -0.461642 0.932045 -0.056824
v -0.463082 0.927909 -0.045766
v -0.479308 0.928948 -0.046056
v -0.464004 0.926318 -0.032434
v -0.480869 0.927510 -0.031475
v -0.494406 0.934116 -0.029871
v -0.493731 0.933318 -0.045515
v -0.503112 0.948474 -0.027174
v -0.501765 0.946704 -0.043495
v -0.507352 0.962232 -0.039868
v -0.495266 0.935235 -0.009504
v -0.503913 0.949800 -0.004820
v -0.491561 0.935640 0.012155
v -0.500259 0.948496 0.015588
v -0.504869 0.965524 0.018979
v -0.491765 0.946605 0.032826
v -0.499205 0.962486 0.034249
v -0.509045 0.976431 0.036256
v -0.487359 0.960495 0.049007
v -0.493855 0.972823 0.051773
v -0.495886 0.981930 0.051529
v -0.476600 0.968882 0.063277
v -0.478360 0.978490 0.064887
v -0.479956 0.986451 0.065354
v -0.496377 0.989944 0.051116
v -0.480617 0.993329 0.065967
v -0.495645 0.996482 0.051312
v -0.478639 0.999081 0.063713
v -0.492465 1.000064 0.050087
v -0.475178 1.000307 0.059736
v -0.458281 0.998799 0.061873
v -0.448584 0.996039 0.066229
v -0.445278 0.997488 0.058587
v -0.454620 0.999951 0.055287
v -0.442825 0.998235 0.047174
v -0.450725 1.001137 0.045914
v -0.439216 0.992849 0.060483
v -0.437085 0.993946 0.048134
v -0.436589 0.986176 0.060504
v -0.438948 0.975974 0.068138
v -0.435706 0.978039 0.059209
v -0.440410 0.984413 0.070412
v -0.443068 0.991363 0.069594
v -0.447067 0.983184 0.075058
v -0.455791 0.973728 0.075773
v -0.446357 0.974324 0.073011
v -0.455617 0.982885 0.077750
v -0.454233 0.964149 0.071809
v -0.445284 0.965041 0.069052
v -0.437780 0.966696 0.064938
v -0.436737 0.955886 0.060854
v -0.434723 0.959037 0.053489
v -0.435240 0.969377 0.056714
v -0.437275 0.942848 0.054496
v -0.435107 0.945295 0.050069
v -0.430835 0.938177 0.042567
v -0.427293 0.932792 0.040939
v -0.427615 0.935562 0.034134
v -0.428561 0.940587 0.035466
v -0.420714 0.937863 0.023656
v -0.418867 0.944042 0.027733
v -0.430335 0.932279 0.033657
v -0.424293 0.933748 0.020400
v -0.429004 0.927257 0.039921
v -0.464878 0.965969 0.070123
v -0.465807 0.976193 0.071942
v -0.466025 0.984665 0.073378
v -0.473921 0.956870 0.060537
v -0.481392 0.945124 0.046027
v -0.471404 0.942199 0.056748
v -0.484421 0.934209 0.030003
v -0.478815 0.926908 0.007882
v -0.473888 0.926135 0.026044
v -0.462361 0.925269 0.003880
v -0.463988 0.925428 -0.015721
v -0.481122 0.927425 -0.013088
v -0.448016 0.925219 -0.032683
v -0.434017 0.930066 -0.033915
v -0.427142 0.942682 -0.036386
v -0.424886 0.958241 -0.027978
v -0.425132 0.956891 -0.040581
v -0.427808 0.955247 -0.052988
v -0.434561 0.955097 -0.063743
v -0.486862 1.029576 0.008779
v -0.488135 1.029934 -0.001183
v -0.479031 1.021027 -0.023125
v -0.473378 1.016706 -0.016631
vt 0.182867 0.652144
vt 0.186250 0.649766
vt 0.187385 0.651134
vt 0.184815 0.653227
vt 0.188510 0.648373
vt 0.190444 0.650577
vt 0.188546 0.653548
vt 0.596419 0.929552
vt 0.602997 0.926371
vt 0.602885 0.930240
vt 0.599594 0.932537
vt 0.606536 0.935216
vt 0.609059 0.931312
vt 0.610510 0.926884
vt 0.599955 0.940868
vt 0.595252 0.935298
vt 0.598599 0.935702
vt 0.604049 0.938941
vt 0.570029 0.936468
vt 0.569936 0.942252
vt 0.565543 0.942119
vt 0.563513 0.937989
vt 0.967098 0.526063
vt 0.961094 0.521089
vt 0.964888 0.517547
vt 0.970166 0.520191
vt 0.212202 0.603720
vt 0.216064 0.599182
vt 0.219995 0.604541
vt 0.218193 0.608610
vt 0.613425 0.921761
vt 0.617800 0.925104
vt 0.615460 0.928940
vt 0.616049 0.933462
vt 0.622292 0.930773
vt 0.563016 0.908674
vt 0.566388 0.904398
vt 0.569181 0.907796
vt 0.568586 0.911068
vt 0.576104 0.910751
vt 0.575683 0.906516
vt 0.574596 0.901124
vt 0.589796 0.935067
vt 0.588428 0.927090
vt 0.594507 0.926355
vt 0.592655 0.934953
vt 0.603900 0.922175
vt 0.586536 0.919460
vt 0.594420 0.919033
vt 0.604881 0.917753
vt 0.595945 0.941568
vt 0.591940 0.942242
vt 0.200076 0.638967
vt 0.197865 0.635596
vt 0.206566 0.628352
vt 0.207976 0.633696
vt 0.584199 0.935160
vt 0.584388 0.942624
vt 0.203273 0.616505
vt 0.210348 0.620912
vt 0.198057 0.624166
vt 0.181178 0.650502
vt 0.183389 0.647861
vt 0.178172 0.654056
vt 0.173795 0.649995
vt 0.178668 0.646003
vt 0.190882 0.657297
vt 0.196519 0.657353
vt 0.193510 0.663707
vt 0.188188 0.663833
vt 0.186634 0.668404
vt 0.191001 0.668245
vt 0.194334 0.670241
vt 0.196814 0.666963
vt 0.186196 0.672020
vt 0.605235 0.912844
vt 0.615084 0.911076
vt 0.614469 0.916594
vt 0.186092 0.676175
vt 0.193955 0.674854
vt 0.573609 0.897119
vt 0.580720 0.895844
vt 0.585453 0.898905
vt 0.574372 0.892022
vt 0.581614 0.891656
vt 0.587933 0.893298
vt 0.586049 0.905291
vt 0.595821 0.894808
vt 0.595232 0.899534
vt 0.595066 0.904461
vt 0.193296 0.642700
vt 0.191609 0.639703
vt 0.189328 0.643870
vt 0.186767 0.639279
vt 0.192000 0.632080
vt 0.173772 0.658505
vt 0.169681 0.656553
vt 0.173462 0.643201
vt 0.167124 0.645439
vt 0.164545 0.653694
vt 0.185988 0.645795
vt 0.182132 0.643193
vt 0.185375 0.628654
vt 0.181364 0.635826
vt 0.177835 0.639817
vt 0.984853 0.528881
vt 0.989763 0.534383
vt 0.984720 0.536069
vt 0.979974 0.533223
vt 0.990364 0.542994
vt 0.983657 0.542151
vt 0.976096 0.539336
vt 0.140148 0.694449
vt 0.139213 0.690951
vt 0.141981 0.690088
vt 0.143895 0.692051
vt 0.139705 0.684975
vt 0.143234 0.685197
vt 0.146559 0.685648
vt 0.973713 0.556078
vt 0.969159 0.552450
vt 0.975123 0.551234
vt 0.976241 0.552425
vt 0.982102 0.549270
vt 0.980884 0.551352
vt 0.972331 0.545773
vt 0.169642 0.637488
vt 0.174096 0.636460
vt 0.169124 0.631153
vt 0.175381 0.632283
vt 0.979576 0.557217
vt 0.989675 0.550690
vt 0.983940 0.557669
vt 0.989146 0.558208
vt 0.956140 0.564432
vt 0.960973 0.568184
vt 0.958872 0.572325
vt 0.954044 0.569218
vt 0.588962 0.888154
vt 0.581911 0.886102
vt 0.583555 0.880602
vt 0.589488 0.883807
vt 0.101611 0.628767
vt 0.105095 0.628936
vt 0.096965 0.639527
vt 0.095002 0.637003
vt 0.105149 0.632731
vt 0.101241 0.640110
vt 0.101452 0.650485
vt 0.100079 0.653273
vt 0.105852 0.656724
vt 0.106981 0.655124
vt 0.112238 0.660542
vt 0.111939 0.660676
vt 0.106441 0.639858
vt 0.109508 0.641779
vt 0.107168 0.646047
vt 0.105249 0.646791
vt 0.108573 0.652160
vt 0.110848 0.649159
vt 0.113261 0.645834
vt 0.167706 0.577608
vt 0.164839 0.574723
vt 0.170766 0.570420
vt 0.174821 0.571685
vt 0.982374 0.569627
vt 0.983327 0.562687
vt 0.987449 0.563050
vt 0.987491 0.569094
vt 0.117660 0.661681
vt 0.113851 0.663922
vt 0.104775 0.659109
vt 0.114164 0.657083
vt 0.121319 0.659014
vt 0.121363 0.666720
vt 0.122156 0.663145
vt 0.125179 0.664031
vt 0.126459 0.667000
vt 0.125290 0.659858
vt 0.128482 0.661782
vt 0.130710 0.665371
vt 0.114851 0.653771
vt 0.116894 0.650115
vt 0.120731 0.654952
vt 0.120530 0.656059
vt 0.124722 0.654056
vt 0.123112 0.650917
vt 0.126465 0.655665
vt 0.128575 0.657209
vt 0.122064 0.632610
vt 0.118515 0.635397
vt 0.115928 0.631193
vt 0.116101 0.628989
vt 0.107129 0.633374
vt 0.110016 0.635077
vt 0.113355 0.637558
vt 0.126154 0.648291
vt 0.126823 0.650839
vt 0.128808 0.652512
vt 0.129602 0.648944
vt 0.122115 0.639688
vt 0.126398 0.637677
vt 0.130488 0.644328
vt 0.124580 0.644789
vt 0.129570 0.634021
vt 0.133886 0.638653
vt 0.134121 0.650416
vt 0.135983 0.646149
vt 0.138851 0.641666
vt 0.159078 0.598700
vt 0.148892 0.597636
vt 0.155051 0.587492
vt 0.167163 0.588085
vt 0.131138 0.629502
vt 0.129178 0.621673
vt 0.135700 0.623646
vt 0.136133 0.633908
vt 0.142732 0.637563
vt 0.143455 0.631340
vt 0.147681 0.605110
vt 0.141621 0.602975
vt 0.143459 0.595849
vt 0.144694 0.646020
vt 0.148906 0.643360
vt 0.153702 0.650847
vt 0.149315 0.652745
vt 0.145516 0.654655
vt 0.141257 0.649430
vt 0.142363 0.657479
vt 0.138839 0.652695
vt 0.139128 0.660152
vt 0.135672 0.656209
vt 0.131668 0.654090
vt 0.132202 0.659415
vt 0.134719 0.662567
vt 0.140095 0.667249
vt 0.136468 0.668821
vt 0.132296 0.670486
vt 0.136959 0.676982
vt 0.132966 0.677830
vt 0.127991 0.677446
vt 0.127475 0.671326
vt 0.120747 0.675571
vt 0.120864 0.670464
vt 0.605356 0.894888
vt 0.605207 0.889826
vt 0.612854 0.889371
vt 0.614591 0.893707
vt 0.112958 0.667886
vt 0.596321 0.889993
vt 0.596826 0.886041
vt 0.605154 0.886107
vt 0.614992 0.898411
vt 0.605385 0.899595
vt 0.614755 0.902878
vt 0.605329 0.904191
vt 0.614806 0.906773
vt 0.605416 0.908414
vt 0.594972 0.909034
vt 0.594713 0.913841
vt 0.586180 0.914393
vt 0.586160 0.909739
vt 0.577054 0.915179
vt 0.578820 0.920245
vt 0.572047 0.921864
vt 0.569379 0.915935
vt 0.565051 0.922292
vt 0.563167 0.914421
vt 0.952986 0.534798
vt 0.950367 0.541782
vt 0.945486 0.538043
vt 0.948150 0.532749
vt 0.948707 0.547062
vt 0.944216 0.543187
vt 0.559778 0.900145
vt 0.565982 0.898540
vt 0.956202 0.545362
vt 0.954323 0.550418
vt 0.568100 0.892697
vt 0.561319 0.893521
vt 0.959941 0.554711
vt 0.957847 0.559198
vt 0.953254 0.555543
vt 0.575392 0.886105
vt 0.568623 0.886176
vt 0.965295 0.558556
vt 0.963139 0.563460
vt 0.972138 0.561251
vt 0.970416 0.566287
vt 0.968101 0.571477
vt 0.978246 0.562441
vt 0.976968 0.568295
vt 0.974243 0.574401
vt 0.110198 0.620083
vt 0.113242 0.623860
vt 0.979452 0.577629
vt 0.121912 0.623762
vt 0.120152 0.618776
vt 0.115841 0.626362
vt 0.123316 0.629660
vt 0.983963 0.580063
vt 0.962407 0.549629
vt 0.958554 0.539339
vt 0.964915 0.543117
vt 0.963165 0.532623
vt 0.969208 0.536171
vt 0.973185 0.529681
vt 0.976868 0.524424
vt 0.205630 0.598318
vt 0.209689 0.593639
vt 0.198632 0.592234
vt 0.203196 0.587534
vt 0.201055 0.603732
vt 0.193495 0.598301
vt 0.186574 0.593774
vt 0.191747 0.587195
vt 0.197118 0.582268
vt 0.177925 0.590002
vt 0.184203 0.582834
vt 0.189354 0.577475
vt 0.175782 0.579750
vt 0.181298 0.574715
vt 0.179381 0.602470
vt 0.169943 0.600332
vt 0.173363 0.613053
vt 0.165197 0.611097
vt 0.156133 0.608591
vt 0.162892 0.621016
vt 0.154102 0.617400
vt 0.146188 0.612962
vt 0.153438 0.627223
vt 0.146585 0.624538
vt 0.154594 0.665036
vt 0.159459 0.653064
vt 0.159182 0.666243
vt 0.141329 0.610216
vt 0.161912 0.678001
vt 0.156254 0.677663
vt 0.151820 0.676896
vt 0.150359 0.664659
vt 0.147719 0.676591
vt 0.146482 0.665061
vt 0.143786 0.676403
vt 0.143434 0.666009
vt 0.140388 0.676553
vt 0.136275 0.684756
vt 0.136000 0.690678
vt 0.131586 0.689833
vt 0.132217 0.684225
vt 0.126426 0.687529
vt 0.126535 0.682972
vt 0.621682 0.897653
vt 0.622093 0.902001
vt 0.120207 0.680119
vt 0.627836 0.903682
vt 0.622358 0.905850
vt 0.627271 0.900955
vt 0.179099 0.675134
vt 0.185778 0.679737
vt 0.176978 0.677303
vt 0.622311 0.908611
vt 0.174166 0.670226
vt 0.179841 0.671154
vt 0.172882 0.673376
vt 0.170923 0.676117
vt 0.168302 0.672237
vt 0.168467 0.676064
vt 0.136096 0.694943
vt 0.132110 0.693884
vt 0.164833 0.666585
vt 0.169560 0.668073
vt 0.163972 0.670686
vt 0.165053 0.675510
vt 0.165886 0.661282
vt 0.171376 0.663666
vt 0.176249 0.665988
vt 0.178463 0.661321
vt 0.184055 0.661930
vt 0.181862 0.667018
vt 0.181334 0.656363
vt 0.186302 0.657016
vt 0.192741 0.653503
vt 0.193280 0.649311
vt 0.196676 0.648330
vt 0.196773 0.651494
vt 0.202063 0.646098
vt 0.202719 0.649751
vt 0.620404 0.937687
vt 0.614377 0.937225
vt 0.612198 0.940821
vt 0.195290 0.645599
vt 0.201313 0.642370
vt 0.208545 0.637950
vt 0.209057 0.642040
vt 0.191739 0.646841
vt 0.162448 0.659175
vt 0.156121 0.686106
vt 0.162257 0.686224
vt 0.161840 0.692420
vt 0.155308 0.692157
vt 0.149226 0.692354
vt 0.150882 0.686054
vt 0.167588 0.683691
vt 0.168381 0.688426
vt 0.162362 0.630263
vt 0.163085 0.638802
vt 0.155196 0.636455
vt 0.175303 0.690834
vt 0.174075 0.685719
vt 0.149071 0.634946
vt 0.170336 0.623357
vt 0.181596 0.616081
vt 0.177757 0.625413
vt 0.190183 0.619991
vt 0.195796 0.611072
vt 0.187474 0.606237
vt 0.207970 0.609420
vt 0.214601 0.614468
vt 0.577193 0.942530
vt 0.576684 0.935585
vt 0.582362 0.927721
vt 0.575257 0.928735
vt 0.568321 0.930002
vt 0.562270 0.932186
vt 0.560389 0.924538
vt 0.957007 0.528103
vt 0.154464 0.582485
vt 0.120487 0.646800
vt 0.116874 0.642286
vt 0.103338 0.641426
vt 0.103194 0.648967
vn 0.4581 -0.0539 0.8873
vn 0.5046 -0.6227 0.5980
vn 0.8869 -0.0480 0.4594
vn 0.7424 0.3323 0.5817
vn 0.6047 -0.7964 0.0062
vn 0.9912 0.0774 0.1078
vn 0.8475 0.4569 0.2701
vn 0.6575 0.3529 -0.6657
vn 0.6953 0.7088 -0.1190
vn 0.9272 0.3728 -0.0357
vn 0.9542 0.1497 -0.2590
vn 0.9817 -0.0728 0.1758
vn 0.9253 0.2525 0.2830
vn 0.7448 0.5741 0.3400
vn 0.6726 -0.7173 -0.1820
vn 0.6883 -0.2782 -0.6699
vn 0.9144 -0.2676 -0.3036
vn 0.8923 -0.4499 0.0373
vn 0.8860 -0.3644 -0.2867
vn 0.6072 -0.7548 -0.2484
vn 0.4946 -0.7038 -0.5099
vn 0.5925 -0.4128 -0.6917
vn 0.0808 -0.3720 -0.9247
vn 0.1255 -0.7757 -0.6185
vn 0.1311 -0.9603 -0.2461
vn 0.8583 0.3788 0.3463
vn 0.9044 0.1475 0.4004
vn 0.6338 0.2972 0.7141
vn 0.7037 0.0939 0.7043
vn 0.7993 0.1195 0.5889
vn 0.5345 0.3583 -0.7654
vn 0.3771 0.8216 -0.4275
vn 0.7648 0.5936 -0.2505
vn 0.9270 0.2380 -0.2900
vn 0.9659 0.2246 0.1290
vn 0.7188 0.6919 0.0674
vn 0.2044 0.9780 -0.0427
vn 0.9210 -0.2965 -0.2529
vn 0.9973 -0.0415 -0.0607
vn 0.8996 0.2972 -0.3200
vn 0.7455 -0.2758 -0.6068
vn 0.8625 0.5035 0.0517
vn 0.9940 -0.0042 0.1095
vn 0.9929 0.1022 0.0609
vn 0.9779 0.1378 0.1573
vn 0.6021 -0.7420 -0.2948
vn 0.5727 -0.7983 -0.1865
vn 0.5026 -0.8639 0.0330
vn 0.3739 -0.9273 -0.0182
vn 0.9538 -0.2989 -0.0299
vn 0.6593 -0.7505 -0.0454
vn 0.1663 -0.9858 -0.0215
vn 0.1558 -0.9869 -0.0409
vn 0.0314 -0.3289 0.9438
vn -0.0654 -0.7680 0.6370
vn 0.4230 -0.0752 0.9030
vn 0.1164 -0.3688 0.9222
vn -0.1454 -0.7090 0.6900
vn 0.9677 0.1558 0.1981
vn 0.9928 0.0002 0.1194
vn 0.9946 0.0088 0.1038
vn 0.9875 0.0312 0.1546
vn 0.9707 0.1037 0.2169
vn 0.9927 0.0686 0.0994
vn 0.9722 0.1670 0.1644
vn 0.9719 0.1636 0.1695
vn 0.9742 0.1984 0.1079
vn -0.0050 0.9945 -0.1044
vn 0.0667 0.9950 -0.0746
vn 0.2770 0.9608 0.0086
vn 0.1512 0.9776 -0.1463
vn 0.2387 0.9640 -0.1171
vn 0.2605 0.9632 -0.0661
vn 0.6438 0.7422 0.1861
vn 0.2665 0.9633 0.0309
vn 0.3834 0.9227 0.0406
vn 0.6248 0.7765 0.0816
vn 0.4658 -0.8648 -0.1874
vn 0.3068 -0.9473 -0.0918
vn 0.1914 -0.9434 -0.2708
vn 0.0297 -0.9983 -0.0500
vn 0.1165 -0.9930 -0.0193
vn 0.3920 -0.3447 0.8529
vn 0.1331 -0.3770 0.9166
vn -0.1291 -0.7021 0.7003
vn -0.1378 -0.4521 0.8813
vn -0.2527 -0.3654 0.8959
vn -0.0249 -0.9891 0.1450
vn -0.1465 -0.9587 0.2438
vn -0.0590 -0.9983 0.0028
vn -0.0692 -0.9956 0.0632
vn -0.1202 -0.9431 0.3100
vn -0.0847 -0.8200 -0.5660
vn -0.5019 -0.6304 -0.5923
vn -0.2556 -0.2848 -0.9239
vn -0.0068 -0.3181 -0.9480
vn -0.7860 -0.2480 -0.5663
vn -0.3751 -0.0010 -0.9270
vn -0.0351 0.0842 -0.9958
vn 0.4572 0.4248 0.7813
vn 0.3090 0.8231 0.4765
vn 0.1304 0.7198 0.6819
vn 0.1039 0.3189 0.9421
vn 0.1014 0.9611 0.2571
vn -0.1216 0.7532 0.6465
vn -0.3532 0.2087 0.9120
vn -0.0447 0.2258 -0.9731
vn -0.1110 0.1880 -0.9759
vn -0.0667 0.1385 -0.9881
vn 0.2081 0.0267 -0.9777
vn -0.3481 0.0039 -0.9375
vn 0.0160 -0.0249 -0.9996
vn -0.1048 0.2124 -0.9715
vn -0.4755 -0.6637 0.5775
vn -0.2899 -0.8895 0.3533
vn -0.6467 -0.6326 0.4262
vn -0.3323 -0.9202 0.2069
vn -0.1451 0.2459 -0.9584
vn -0.8237 -0.2403 -0.5136
vn -0.5668 -0.0029 -0.8238
vn -0.8726 -0.2023 -0.4446
vn 0.1745 0.9601 -0.2187
vn 0.0070 0.9309 -0.3653
vn 0.2843 0.9041 -0.3190
vn 0.2035 0.9737 -0.1023
vn 0.1389 0.9902 -0.0135
vn 0.3250 0.9453 0.0288
vn -0.1976 0.8133 -0.5473
vn -0.0807 0.7317 -0.6768
vn -0.1050 0.5210 -0.8471
vn 0.5391 0.6289 -0.5602
vn 0.8446 0.5296 -0.0783
vn 0.8081 0.5882 0.0309
vn 0.9991 -0.0321 0.0266
vn 0.7871 0.5181 -0.3348
vn 0.6798 0.6998 -0.2195
vn 0.2997 0.7041 -0.6437
vn 0.1744 0.9635 -0.2032
vn 0.7120 0.6718 -0.2041
vn 0.8956 0.2528 -0.3662
vn 0.9988 -0.0410 0.0265
vn 0.7725 0.6338 0.0383
vn 0.1660 0.9861 0.0026
vn -0.9946 -0.1039 0.0040
vn -0.9301 0.3588 -0.0786
vn -0.9282 0.2009 -0.3132
vn -0.7251 0.6545 -0.2141
vn -0.6809 0.4451 -0.5815
vn 0.7953 0.6039 0.0536
vn 0.3345 0.9372 -0.0994
vn 0.1796 0.9837 0.0065
vn 0.9907 0.0280 0.1329
vn 0.7575 0.3156 0.5715
vn 0.5464 0.7940 0.2665
vn 0.6247 0.6970 0.3521
vn 0.4777 0.7054 0.5236
vn 0.4046 0.7967 0.4490
vn 0.4255 0.7078 0.5639
vn 0.3093 0.7251 0.6153
vn 0.2339 0.8103 0.5373
vn 0.8913 0.4131 0.1870
vn 0.3219 0.9432 0.0822
vn 0.3398 0.7973 0.4989
vn 0.6992 0.3025 0.6478
vn 0.1605 0.3403 0.9265
vn 0.0943 0.9563 0.2766
vn 0.2255 0.2459 0.9427
vn 0.1910 0.7034 0.6847
vn -0.8742 0.4372 -0.2114
vn -0.4218 0.8915 -0.1651
vn -0.4710 0.7436 -0.4746
vn -0.6166 0.4215 -0.6650
vn -0.1341 0.4159 -0.8995
vn -0.1050 0.8108 -0.5759
vn -0.0109 0.9878 -0.1556
vn -0.4061 0.8560 0.3200
vn -0.3250 0.5809 0.7463
vn -0.2583 0.3683 0.8931
vn -0.5572 0.6692 0.4916
vn -0.3757 0.9242 0.0683
vn -0.8536 0.5064 0.1222
vn -0.7380 0.6528 0.1706
vn -0.3631 0.9112 0.1947
vn -0.9841 0.1723 0.0432
vn -0.9257 0.3498 -0.1441
vn -0.2857 0.8439 0.4542
vn -0.6929 0.7205 0.0269
vn -0.8722 0.4073 -0.2710
vn -0.9739 -0.2270 0.0027
vn -0.9802 -0.1187 -0.1585
vn -0.9993 -0.0005 -0.0375
vn -0.9776 -0.2053 0.0468
vn -0.9857 0.1243 -0.1134
vn -0.9569 0.2620 -0.1250
vn -0.9685 0.1868 -0.1645
vn -0.9539 0.1454 -0.2627
vn -0.9447 -0.3280 0.0024
vn -0.9977 -0.0611 0.0286
vn -0.9655 0.2301 0.1221
vn -0.8689 -0.1368 0.4758
vn -0.8303 0.0777 0.5519
vn -0.6044 0.4248 0.6740
vn -0.7076 0.6123 0.3527
vn -0.1461 0.7346 0.6626
vn -0.2111 0.7916 0.5734
vn 0.0319 0.7928 0.6086
vn 0.0380 0.7445 0.6666
vn -0.0255 0.7606 0.6487
vn 0.1579 0.7153 0.6807
vn 0.1015 0.7749 0.6239
vn -0.0593 0.9485 0.3112
vn 0.0305 0.9642 0.2635
vn 0.0966 0.9657 0.2412
vn 0.0425 0.9860 0.1614
vn 0.0440 0.9864 0.1585
vn 0.1018 0.9917 0.0782
vn 0.1863 0.9616 0.2014
vn 0.2009 0.9772 0.0686
vn 0.2907 0.9424 0.1655
vn 0.2469 0.9607 0.1269
vn 0.2438 0.9651 0.0961
vn 0.1323 0.9912 0.0094
vn 0.2504 0.9671 0.0458
vn 0.3289 0.9394 0.0965
vn 0.4880 0.8690 0.0816
vn 0.5653 0.8205 0.0844
vn 0.8590 0.4906 0.1464
vn 0.8819 0.4527 0.1314
vn 0.9065 0.4081 0.1078
vn 0.9828 0.1554 0.0993
vn 0.9778 0.0744 0.1960
vn 0.9214 0.3088 0.2361
vn 0.9901 -0.0282 0.1372
vn 0.9870 -0.1277 0.0974
vn 0.9657 -0.2334 -0.1140
vn 0.9761 -0.1031 -0.1915
vn 0.8107 -0.2351 -0.5362
vn 0.7010 -0.0440 -0.7118
vn 0.3986 -0.1033 -0.9113
vn 0.2126 0.0706 -0.9746
vn 0.0897 0.5154 -0.8522
vn 0.0152 0.9137 -0.4062
vn -0.2150 0.1292 -0.9680
vn -0.2119 0.5182 -0.8286
vn -0.0334 0.9044 -0.4254
vn -0.1594 0.4849 -0.8599
vn 0.0420 0.8644 -0.5010
vn -0.1391 0.4777 -0.8675
vn -0.1122 0.8478 -0.5182
vn -0.2131 0.5437 -0.8118
vn -0.2720 0.8070 -0.5242
vn -0.3419 0.5962 -0.7264
vn -0.5143 0.7526 -0.4111
vn -0.6188 0.6144 -0.4895
vn -0.6172 0.4654 -0.6344
vn -0.8389 0.4534 -0.3012
vn -0.8922 0.2124 -0.3986
vn -0.6084 0.3698 -0.7022
vn -0.9262 0.2083 -0.3143
vn -0.2403 0.1664 -0.9563
vn -0.1170 0.0147 -0.9930
vn -0.2197 0.1054 -0.9699
vn -0.0192 -0.0809 -0.9965
vn -0.1096 0.0381 -0.9932
vn -0.0243 -0.3227 -0.9462
vn -0.0225 -0.7915 -0.6108
vn -0.0619 -0.9721 -0.2265
vn -0.1871 -0.9640 -0.1887
vn -0.0703 -0.9953 -0.0671
vn -0.2544 -0.9661 -0.0445
vn -0.6683 -0.7438 -0.0127
vn -0.6273 -0.7599 -0.1706
vn -0.9222 -0.3867 0.0033
vn -0.9066 -0.3917 -0.1572
vn -0.9552 -0.2799 -0.0961
vn -0.6969 -0.7154 0.0500
vn -0.9267 -0.3698 0.0678
vn -0.6876 -0.7075 0.1631
vn -0.8779 -0.4274 0.2158
vn -0.9183 -0.3780 0.1179
vn -0.7854 -0.4592 0.4151
vn -0.7951 -0.4619 0.3930
vn -0.8297 -0.4006 0.3888
vn -0.6841 -0.4102 0.6032
vn -0.6570 -0.3356 0.6751
vn -0.6515 -0.1378 0.7460
vn -0.5658 -0.2797 0.7757
vn -0.5638 -0.1600 0.8103
vn -0.5837 -0.0920 0.8067
vn -0.6442 -0.0243 0.7644
vn -0.5609 0.2129 0.8000
vn -0.5601 0.3168 0.7654
vn -0.3143 0.7725 0.5517
vn -0.2672 0.7970 0.5416
vn -0.0314 0.9734 0.2268
vn 0.1159 0.9691 0.2178
vn 0.3220 0.8776 0.3550
vn 0.3809 0.8931 0.2395
vn 0.1352 0.9709 0.1976
vn 0.4468 0.8895 0.0954
vn 0.2038 0.9764 0.0716
vn 0.7511 0.5939 0.2884
vn 0.8187 0.5612 0.1220
vn 0.9390 0.2105 0.2719
vn 0.7887 -0.0901 0.6081
vn 0.9700 0.0397 0.2397
vn 0.7632 0.1265 0.6336
vn 0.6251 0.5525 0.5514
vn 0.4510 -0.0026 0.8925
vn -0.0434 -0.2688 0.9622
vn 0.4275 -0.2331 0.8734
vn -0.0362 -0.0657 0.9972
vn 0.0407 -0.3628 0.9310
vn 0.4023 -0.3015 0.8644
vn 0.7931 -0.1420 0.5923
vn 0.8081 -0.1934 0.5565
vn 0.9793 -0.0464 0.1972
vn 0.9772 -0.0044 0.2122
vn 0.7953 0.0963 0.5985
vn 0.9545 0.1431 0.2617
vn 0.8949 0.3896 0.2175
vn 0.9969 0.0549 -0.0562
vn 0.9126 -0.3287 0.2431
vn 0.8336 0.0800 0.5466
vn 0.7977 -0.5248 0.2971
vn 0.8465 -0.1592 0.5080
vn 0.7115 -0.6904 -0.1308
vn 0.6204 -0.7747 0.1222
vn 0.6959 -0.6237 -0.3559
vn -0.3777 -0.3124 0.8716
vn -0.4394 -0.2088 0.8737
vn -0.4290 -0.0898 0.8988
vn -0.5780 -0.3463 0.7389
vn -0.7199 -0.4186 0.5536
vn -0.5657 -0.4249 0.7067
vn -0.6697 -0.6795 0.2995
vn -0.3330 -0.9416 0.0498
vn -0.3381 -0.9347 0.1098
vn -0.0619 -0.9980 -0.0124
vn -0.0626 -0.9979 -0.0181
vn -0.3060 -0.9520 0.0115
vn 0.1473 -0.9877 -0.0525
vn 0.6442 -0.7632 -0.0494
vn 0.9426 -0.3277 -0.0648
vn 0.9919 -0.1231 0.0316
vn 0.9798 -0.1808 -0.0849
vn 0.9027 -0.2143 -0.3730
vn 0.5374 -0.1983 -0.8196
vn 0.0480 0.9970 0.0608
vn 0.0385 0.9992 -0.0093
vn 0.4059 0.3548 -0.8423
vn 0.9548 0.1254 -0.2695
f 1/1/1 2/2/2 3/3/3 4/4/4
f 5/5/5 6/6/6 3/3/3 2/2/2
f 7/7/7 4/4/4 3/3/3 6/6/6
f 8/8/8 9/9/9 10/10/10 11/11/11
f 12/12/12 11/11/11 10/10/10 13/13/13
f 14/14/14 13/13/13 10/10/10 9/9/9
f 15/15/15 16/16/16 17/17/17 18/18/18
f 12/12/12 18/18/18 17/17/17 11/11/11
f 8/8/8 11/11/11 17/17/17 16/16/16
f 19/19/19 20/20/20 21/21/21 22/22/22
f 23/23/23 22/24/22 21/25/21 24/26/24
f 25/27/25 24/28/24 21/29/21 20/30/20
f 26/31/26 27/32/27 28/33/28 14/14/14
f 13/13/13 14/14/14 28/33/28 29/34/29
f 30/35/30 29/34/29 28/33/28 27/32/27
f 31/36/31 32/37/32 33/38/33 34/39/34
f 35/40/35 34/39/34 33/38/33 36/41/36
f 37/42/37 36/41/36 33/38/33 32/37/32
f 38/43/38 39/44/39 40/45/40 41/46/41
f 16/16/16 41/46/41 40/45/40 8/8/8
f 9/9/9 8/8/8 40/45/40 42/47/42
f 43/48/43 44/49/44 40/45/40 39/44/39
f 45/50/45 42/47/42 40/45/40 44/49/44
f 41/46/41 46/51/46 47/52/47 38/43/38
f 48/53/48 49/54/49 47/55/47 46/56/46
f 50/57/50 38/43/38 47/52/47 51/58/51
f 52/59/52 51/60/51 47/55/47 53/61/53
f 2/2/2 1/1/1 54/62/54 55/63/55
f 56/64/56 57/65/57 54/62/54 1/1/1
f 58/66/58 55/63/55 54/62/54 57/65/57
f 59/67/59 30/68/30 27/69/27 60/70/60
f 61/71/61 60/70/60 27/69/27 62/72/62
f 63/73/63 62/72/62 27/69/27 26/74/26
f 64/75/64 61/71/61 62/72/62 63/73/63
f 65/76/65 66/77/66 63/78/63 45/50/45
f 42/47/42 45/50/45 63/78/63 26/31/26
f 67/79/67 64/75/64 63/73/63 66/80/66
f 37/42/37 68/81/68 69/82/69 70/83/70
f 71/84/71 72/85/72 69/82/69 68/81/68
f 73/86/73 70/83/70 69/82/69 72/85/72
f 36/41/36 37/42/37 70/83/70 74/87/74
f 75/88/75 76/89/76 70/83/70 73/86/73
f 77/90/77 74/87/74 70/83/70 76/89/76
f 48/53/48 78/91/78 79/92/79 49/54/49
f 80/93/80 81/94/81 79/92/79 78/91/78
f 82/95/82 49/54/49 79/92/79 81/94/81
f 83/96/83 84/97/84 57/65/57 56/64/56
f 85/98/85 58/66/58 57/65/57 86/99/86
f 87/100/87 86/99/86 57/65/57 84/97/84
f 88/101/88 89/102/89 81/94/81 80/93/80
f 90/103/90 82/95/82 81/94/81 91/104/91
f 92/105/92 91/104/91 81/94/81 89/102/89
f 93/106/93 94/107/94 95/108/95 96/109/96
f 97/110/97 98/111/98 95/108/95 94/107/94
f 99/112/99 96/109/96 95/108/95 98/111/98
f 100/113/100 101/114/101 102/115/102 103/116/103
f 104/117/104 105/118/105 102/115/102 101/114/101
f 106/119/106 103/116/103 102/115/102 105/118/105
f 107/120/107 108/121/108 109/122/109 110/123/110
f 110/123/110 109/122/109 111/124/111 112/125/112
f 113/126/113 111/124/111 109/122/109 108/121/108
f 85/98/85 114/127/114 115/128/115 92/105/92
f 116/129/116 117/130/117 115/128/115 114/127/114
f 91/104/91 92/105/92 115/128/115 117/130/117
f 118/131/118 107/120/107 110/123/110 112/125/112
f 99/112/99 98/111/98 111/124/111 113/126/113
f 97/110/97 119/132/119 111/124/111 98/111/98
f 118/131/118 112/125/112 111/124/111 120/133/120
f 121/134/121 120/133/120 111/124/111 119/132/119
f 122/135/122 123/136/123 124/137/124 125/138/125
f 126/139/126 125/140/125 124/141/124 127/142/127
f 128/143/128 129/144/129 124/145/124 123/146/123
f 130/147/130 131/148/131 124/145/124 129/144/129
f 132/149/132 127/150/127 124/145/124 131/148/131
f 133/151/133 134/152/134 135/153/135 136/154/136
f 137/155/137 138/156/138 139/157/139 140/158/140
f 141/159/141 140/158/140 139/157/139 142/160/142
f 143/161/143 142/160/142 139/157/139 138/156/138
f 144/162/144 145/163/145 146/164/146 121/165/121
f 147/166/147 148/167/148 146/168/146 145/169/145
f 120/133/120 121/134/121 146/168/146 148/167/148
f 149/170/149 150/171/150 136/154/136 135/153/135
f 151/172/151 133/151/133 136/154/136 150/171/150
f 141/159/141 152/173/152 135/153/135 134/152/134
f 153/174/153 149/170/149 135/153/135 152/173/152
f 154/175/154 155/176/155 156/177/156 157/178/157
f 158/179/158 159/180/159 156/177/156 155/176/155
f 160/181/160 157/178/157 156/177/156 159/180/159
f 161/182/161 162/183/162 163/184/163 164/185/164
f 165/186/165 164/185/164 163/184/163 166/187/166
f 165/186/165 167/188/167 153/174/153 164/185/164
f 155/176/155 149/170/149 153/174/153 158/179/158
f 168/189/168 158/179/158 153/174/153 167/188/167
f 169/190/169 170/191/170 171/192/171 172/193/172
f 173/194/173 172/193/172 171/192/171 174/195/174
f 175/196/175 174/195/174 171/192/171 170/191/170
f 166/187/166 176/197/176 177/198/177 165/186/165
f 167/188/167 165/186/165 177/198/177 178/199/178
f 179/200/179 178/199/178 177/198/177 176/197/176
f 180/201/180 181/202/181 182/203/182 183/204/183
f 184/205/184 185/206/185 182/203/182 181/202/181
f 186/207/186 179/200/179 182/203/182 187/208/187
f 176/197/176 183/204/183 182/203/182 179/200/179
f 188/209/188 187/208/187 182/203/182 185/206/185
f 189/210/189 190/211/190 191/212/191 192/213/192
f 193/214/193 194/215/194 191/216/191 195/217/195
f 196/218/196 195/217/195 191/216/191 190/219/190
f 197/220/197 198/221/198 196/222/196 190/211/190
f 199/223/199 188/209/188 196/218/196 198/224/198
f 185/206/185 195/217/195 196/218/196 188/209/188
f 200/225/200 201/226/201 199/223/199 198/224/198
f 202/227/202 203/228/203 199/223/199 201/226/201
f 187/208/187 188/209/188 199/223/199 203/228/203
f 204/229/204 205/230/205 203/228/203 202/227/202
f 186/207/186 187/208/187 203/228/203 205/230/205
f 206/231/206 207/232/207 205/230/205 204/229/204
f 208/233/208 186/207/186 205/230/205 207/232/207
f 179/200/179 186/207/186 208/233/208 178/199/178
f 209/234/209 168/189/168 208/233/208 207/232/207
f 167/188/167 178/199/178 208/233/208 168/189/168
f 206/231/206 210/235/210 209/234/209 207/232/207
f 160/181/160 159/180/159 209/234/209 210/235/210
f 158/179/158 168/189/168 209/234/209 159/180/159
f 211/236/211 212/237/212 210/235/210 206/231/206
f 213/238/213 160/181/160 210/235/210 212/237/212
f 214/239/214 215/240/215 213/238/213 212/237/212
f 216/241/216 217/242/217 213/238/213 215/240/215
f 157/178/157 160/181/160 213/238/213 217/242/217
f 218/243/218 219/244/219 217/242/217 216/241/216
f 154/175/154 157/178/157 217/242/217 219/244/219
f 220/245/220 221/246/221 219/247/219 218/248/218
f 150/171/150 154/175/154 219/244/219 221/249/221
f 75/88/75 222/250/222 221/246/221 220/245/220
f 151/251/151 150/252/150 221/246/221 222/250/222
f 73/86/73 126/139/126 222/250/222 75/88/75
f 127/142/127 151/251/151 222/250/222 126/139/126
f 223/253/223 224/254/224 220/245/220 218/248/218
f 76/89/76 75/88/75 220/245/220 224/254/224
f 225/255/225 226/256/226 224/254/224 223/253/223
f 77/90/77 76/89/76 224/254/224 226/256/226
f 227/257/227 228/258/228 226/256/226 225/255/225
f 229/259/229 77/90/77 226/256/226 228/258/228
f 65/76/65 230/260/230 229/259/229 228/258/228
f 231/261/231 232/262/232 229/259/229 230/260/230
f 74/87/74 77/90/77 229/259/229 232/262/232
f 233/263/233 35/40/35 232/262/232 231/261/231
f 36/41/36 74/87/74 232/262/232 35/40/35
f 43/48/43 234/264/234 233/263/233 231/261/231
f 235/265/235 236/266/236 233/263/233 234/264/234
f 34/39/34 35/40/35 233/263/233 236/266/236
f 237/267/237 238/268/238 236/266/236 235/265/235
f 31/36/31 34/39/34 236/266/236 238/268/238
f 239/269/239 240/270/240 238/271/238 237/272/237
f 241/273/241 31/274/31 238/271/238 240/270/240
f 32/37/32 31/36/31 241/275/241 242/276/242
f 243/277/243 244/278/244 241/273/241 240/270/240
f 245/279/245 242/276/242 241/275/241 244/280/244
f 68/81/68 242/276/242 245/279/245 71/84/71
f 246/281/246 247/282/247 245/283/245 244/278/244
f 122/284/122 71/84/71 245/279/245 247/285/247
f 248/286/248 249/287/249 247/282/247 246/281/246
f 123/136/123 122/135/122 247/282/247 249/287/249
f 250/288/250 251/289/251 249/287/249 248/286/248
f 128/290/128 123/136/123 249/287/249 251/289/251
f 252/291/252 253/292/253 251/289/251 250/288/250
f 254/293/254 128/290/128 251/289/251 253/292/253
f 129/144/129 128/143/128 254/294/254 255/295/255
f 147/166/147 256/296/256 254/293/254 253/292/253
f 257/297/257 255/295/255 254/294/254 256/298/256
f 258/299/258 255/295/255 257/297/257 259/300/259
f 194/215/194 193/214/193 257/297/257 256/298/256
f 184/205/184 259/300/259 257/297/257 193/214/193
f 173/194/173 130/147/130 258/299/258 172/193/172
f 129/144/129 255/295/255 258/299/258 130/147/130
f 169/190/169 172/193/172 258/299/258 259/300/259
f 181/202/181 169/190/169 259/300/259 184/205/184
f 145/169/145 194/301/194 256/296/256 147/166/147
f 148/167/148 147/166/147 253/292/253 252/291/252
f 107/120/107 118/131/118 252/291/252 250/288/250
f 120/133/120 148/167/148 252/291/252 118/131/118
f 108/121/108 107/120/107 250/288/250 248/286/248
f 260/302/260 108/121/108 248/286/248 246/281/246
f 244/278/244 243/277/243 260/302/260 246/281/246
f 261/303/261 262/304/262 260/302/260 243/277/243
f 113/126/113 108/121/108 260/302/260 262/304/262
f 263/305/263 264/306/264 262/304/262 261/303/261
f 99/112/99 113/126/113 262/304/262 264/306/264
f 23/23/23 265/307/265 264/306/264 263/305/263
f 96/109/96 99/112/99 264/306/264 265/307/265
f 24/26/24 266/308/266 265/307/265 23/23/23
f 93/106/93 96/109/96 265/307/265 266/308/266
f 25/27/25 267/309/267 266/310/266 24/28/24
f 268/311/268 93/312/93 266/310/266 267/309/267
f 269/313/269 270/314/270 268/311/268 267/309/267
f 271/315/271 272/316/272 268/311/268 270/314/270
f 94/317/94 93/312/93 268/311/268 272/316/272
f 273/318/273 274/319/274 272/316/272 271/315/271
f 97/320/97 94/317/94 272/316/272 274/319/274
f 192/213/192 275/321/275 274/319/274 273/318/273
f 119/322/119 97/320/97 274/319/274 275/321/275
f 191/212/191 144/162/144 275/321/275 192/213/192
f 121/165/121 119/322/119 275/321/275 144/162/144
f 276/323/276 277/324/277 273/318/273 271/315/271
f 189/210/189 192/213/192 273/318/273 277/324/277
f 278/325/278 279/326/279 277/324/277 276/323/276
f 280/327/280 189/210/189 277/324/277 279/326/279
f 281/328/281 282/329/282 280/327/280 279/326/279
f 283/330/283 197/220/197 280/327/280 282/329/282
f 190/211/190 189/210/189 280/327/280 197/220/197
f 284/331/284 285/332/285 283/330/283 282/329/282
f 286/333/286 200/225/200 283/334/283 285/335/285
f 198/221/198 197/220/197 283/330/283 200/336/200
f 287/337/287 288/338/288 286/333/286 285/335/285
f 289/339/289 290/340/290 286/333/286 288/338/288
f 201/226/201 200/225/200 286/333/286 290/340/290
f 291/341/291 292/342/292 290/340/290 289/339/289
f 202/227/202 201/226/201 290/340/290 292/342/292
f 293/343/293 294/344/294 292/342/292 291/341/291
f 204/229/204 202/227/202 292/342/292 294/344/294
f 295/345/295 211/236/211 294/344/294 293/343/293
f 206/231/206 204/229/204 294/344/294 211/236/211
f 105/118/105 104/117/104 295/345/295 293/343/293
f 296/346/296 214/239/214 295/345/295 104/117/104
f 212/237/212 211/236/211 295/345/295 214/239/214
f 101/114/101 297/347/297 296/346/296 104/117/104
f 298/348/298 299/349/299 296/346/296 297/347/297
f 215/240/215 214/239/214 296/346/296 299/349/299
f 300/350/300 301/351/301 299/349/299 298/348/298
f 216/241/216 215/240/215 299/349/299 301/351/301
f 225/255/225 223/253/223 301/352/301 300/353/300
f 218/243/218 216/241/216 301/351/301 223/354/223
f 302/355/302 303/356/303 300/353/300 298/357/298
f 227/257/227 225/255/225 300/353/300 303/356/303
f 304/358/304 67/79/67 303/359/303 302/360/302
f 66/77/66 227/257/227 303/356/303 67/361/67
f 305/362/305 306/363/306 304/358/304 307/364/307
f 64/75/64 67/79/67 304/358/304 306/363/306
f 308/365/308 307/364/307 304/358/304 302/360/302
f 309/366/309 307/364/307 308/365/308 100/367/100
f 298/348/298 297/347/297 308/368/308 302/369/302
f 101/114/101 100/113/100 308/368/308 297/347/297
f 310/370/310 311/371/311 309/366/309 312/372/312
f 305/362/305 307/364/307 309/366/309 311/371/311
f 103/373/103 312/372/312 309/366/309 100/367/100
f 313/374/313 314/375/314 311/371/311 310/370/310
f 315/376/315 305/362/305 311/371/311 314/375/314
f 83/96/83 316/377/316 315/376/315 314/375/314
f 317/378/317 318/379/318 315/376/315 316/377/316
f 306/363/306 305/362/305 315/376/315 318/379/318
f 60/70/60 61/71/61 318/379/318 317/378/317
f 64/75/64 306/363/306 318/379/318 61/71/61
f 319/380/319 320/381/320 317/378/317 316/377/316
f 59/67/59 60/70/60 317/378/317 320/381/320
f 4/4/4 7/7/7 320/381/320 319/380/319
f 321/382/321 59/67/59 320/381/320 7/7/7
f 6/6/6 322/383/322 321/382/321 7/7/7
f 323/384/323 324/385/324 321/382/321 322/383/322
f 30/68/30 59/67/59 321/382/321 324/385/324
f 325/386/325 326/387/326 324/385/324 323/384/323
f 29/34/29 30/35/30 324/388/324 326/389/326
f 13/13/13 29/34/29 326/389/326 12/12/12
f 18/18/18 12/12/12 326/389/326 325/390/325
f 327/391/327 328/392/328 325/386/325 323/384/323
f 15/393/15 18/394/18 325/386/325 328/392/328
f 78/91/78 48/53/48 328/392/328 327/391/327
f 46/56/46 15/393/15 328/392/328 48/53/48
f 80/93/80 78/91/78 327/391/327 329/395/329
f 322/383/322 329/395/329 327/391/327 323/384/323
f 88/101/88 80/93/80 329/395/329 5/5/5
f 6/6/6 5/5/5 329/395/329 322/383/322
f 1/1/1 4/4/4 319/380/319 56/64/56
f 83/96/83 56/64/56 319/380/319 316/377/316
f 84/97/84 83/96/83 314/375/314 313/374/313
f 87/100/87 84/97/84 313/374/313 330/396/330
f 331/397/331 330/398/330 313/399/313 310/400/310
f 287/337/287 330/398/330 331/397/331 288/338/288
f 312/401/312 332/402/332 331/397/331 310/400/310
f 289/339/289 288/338/288 331/397/331 332/402/332
f 103/116/103 106/119/106 332/402/332 312/401/312
f 291/341/291 289/339/289 332/402/332 106/119/106
f 333/403/333 87/404/87 330/398/330 287/337/287
f 334/405/334 335/406/335 333/407/333 284/331/284
f 86/408/86 87/404/87 333/403/333 335/409/335
f 285/332/285 284/331/284 333/407/333 287/410/287
f 116/129/116 114/127/114 335/406/335 334/405/334
f 85/98/85 86/99/86 335/406/335 114/127/114
f 336/411/336 116/129/116 334/405/334 281/328/281
f 282/329/282 281/328/281 334/405/334 284/331/284
f 337/412/337 338/413/338 336/411/336 278/325/278
f 117/130/117 116/129/116 336/411/336 338/413/338
f 279/326/279 278/325/278 336/411/336 281/328/281
f 339/414/339 90/103/90 338/413/338 337/412/337
f 91/104/91 117/130/117 338/413/338 90/103/90
f 52/59/52 53/61/53 339/414/339 340/415/340
f 82/95/82 90/103/90 339/414/339 53/61/53
f 341/416/341 340/415/340 339/414/339 337/412/337
f 269/313/269 340/415/340 341/416/341 270/314/270
f 278/325/278 276/323/276 341/416/341 337/412/337
f 271/315/271 270/314/270 341/416/341 276/323/276
f 342/417/342 52/59/52 340/415/340 269/313/269
f 20/30/20 343/418/343 342/417/342 25/27/25
f 51/60/51 52/59/52 342/417/342 343/418/343
f 267/309/267 25/27/25 342/417/342 269/313/269
f 50/57/50 51/58/51 343/419/343 344/420/344
f 19/19/19 344/420/344 343/419/343 20/20/20
f 345/421/345 50/57/50 344/420/344 346/422/346
f 347/423/347 346/422/346 344/420/344 19/19/19
f 235/265/235 346/422/346 347/423/347 237/267/237
f 22/22/22 348/424/348 347/423/347 19/19/19
f 239/425/239 237/267/237 347/423/347 348/424/348
f 23/23/23 263/305/263 348/426/348 22/24/22
f 261/303/261 239/269/239 348/426/348 263/305/263
f 43/48/43 39/44/39 345/421/345 234/264/234
f 38/43/38 50/57/50 345/421/345 39/44/39
f 235/265/235 234/264/234 345/421/345 346/422/346
f 106/119/106 105/118/105 293/343/293 291/341/291
f 240/270/240 239/269/239 261/303/261 243/277/243
f 37/42/37 32/37/32 242/276/242 68/81/68
f 44/49/44 43/48/43 231/261/231 230/260/230
f 45/50/45 44/49/44 230/260/230 65/76/65
f 66/77/66 65/76/65 228/258/228 227/257/227
f 144/162/144 191/212/191 194/427/194 145/163/145
f 185/206/185 184/205/184 193/214/193 195/217/195
f 170/191/170 169/190/169 181/202/181 180/201/180
f 349/428/349 350/429/350 180/201/180 183/204/183
f 175/196/175 170/191/170 180/201/180 350/429/350
f 162/183/162 143/161/143 350/429/350 349/428/349
f 138/156/138 175/196/175 350/429/350 143/161/143
f 176/197/176 166/187/166 349/428/349 183/204/183
f 163/184/163 162/183/162 349/428/349 166/187/166
f 137/155/137 174/195/174 175/196/175 138/156/138
f 137/155/137 351/430/351 173/194/173 174/195/174
f 131/148/131 130/147/130 173/194/173 351/430/351
f 140/158/140 352/431/352 351/430/351 137/155/137
f 132/149/132 131/148/131 351/430/351 352/431/352
f 141/159/141 134/152/134 352/431/352 140/158/140
f 133/151/133 132/149/132 352/431/352 134/152/134
f 142/160/142 143/161/143 162/183/162 161/182/161
f 153/174/153 152/173/152 161/182/161 164/185/164
f 141/159/141 142/160/142 161/182/161 152/173/152
f 150/171/150 149/170/149 155/176/155 154/175/154
f 132/149/132 133/151/133 151/172/151 127/150/127
f 72/85/72 125/140/125 126/139/126 73/86/73
f 72/85/72 71/84/71 122/284/122 125/140/125
f 58/66/58 85/98/85 92/105/92 89/102/89
f 55/63/55 58/66/58 89/102/89 88/101/88
f 2/2/2 55/63/55 88/101/88 5/5/5
f 47/55/47 49/54/49 82/95/82 53/61/53
f 16/16/16 15/15/15 46/51/46 41/46/41
f 14/14/14 9/9/9 42/47/42 26/31/26
