# split from a merged terrain OBJ by scripts/split-terrain-obj-parts.py
o part-005
v -0.885727 0.945898 0.061767
v -0.892636 0.945813 0.061468
v -0.891375 0.941185 0.060256
v -0.886090 0.939715 0.058843
v -0.892388 0.935710 0.052069
v -0.897834 0.939984 0.055238
v -0.900467 0.946100 0.056798
v -0.756723 1.008403 -0.013128
v -0.753332 1.006478 0.009529
v -0.743725 1.007528 -0.002765
v -0.742579 1.007985 -0.018276
v -0.745947 0.993778 -0.017815
v -0.747661 0.992454 -0.005627
v -0.756494 0.989200 0.008236
v -0.748979 0.995053 -0.028429
v -0.743616 1.008220 -0.029227
v -0.756280 0.997040 -0.037285
v -0.752912 1.009308 -0.035836
v -0.776884 0.951772 -0.072945
v -0.783022 0.941410 -0.074270
v -0.783638 0.947457 -0.080748
v -0.783200 0.954641 -0.080401
v -0.797379 0.939256 -0.079154
v -0.794760 0.947778 -0.085347
v -0.795201 0.957012 -0.086614
v -0.767496 0.935169 0.043758
v -0.765984 0.939448 0.035100
v -0.762837 0.940572 0.039226
v -0.764802 0.937495 0.046398
v -0.769501 0.940913 0.046617
v -0.769208 0.942182 0.039421
v -0.770473 0.938328 0.034949
v -0.771347 0.932336 0.051205
v -0.769136 0.936009 0.054490
v -0.775129 0.933067 0.059281
v -0.777837 0.931697 0.056650
v -0.773581 0.938296 0.053360
v -0.779637 0.937168 0.058370
v -0.784060 0.933637 0.060072
v -0.772049 0.932811 0.040912
v -0.781815 0.929817 0.052629
v -0.787242 0.933118 0.056866
v -0.784662 0.938668 0.056052
v -0.786738 0.930047 0.047229
v -0.781460 0.928964 0.042083
v -0.776058 0.929826 0.047067
v -0.776273 0.931235 0.037515
v -0.792933 0.932419 0.042002
v -0.785581 0.932284 0.036677
v -0.778871 0.938201 0.035374
v -0.780413 0.932650 0.035435
v -0.783755 0.939318 0.035157
v -0.802813 0.932721 0.038715
v -0.791370 0.933608 0.029713
v -0.787195 0.940716 0.031573
v -0.788031 0.946414 0.034886
v -0.782713 0.944693 0.037804
v -0.784926 0.945795 0.043252
v -0.790605 0.948651 0.041826
v -0.794480 0.957411 0.043001
v -0.787395 0.958916 0.033159
v -0.785508 0.941901 0.014920
v -0.790717 0.934965 0.011710
v -0.799326 0.936703 0.045207
v -0.809938 0.931734 0.043507
v -0.791555 0.933495 0.051461
v -0.790098 0.939558 0.053543
v -0.795570 0.941170 0.049184
v -0.802262 0.944626 0.047642
v -0.808608 0.939982 0.046631
v -0.761411 1.009871 -0.042824
v -0.768120 1.009254 -0.024433
v -0.768017 0.995718 0.023184
v -0.769898 1.005424 0.013469
v -0.777554 1.007457 0.001830
v -0.804291 0.948807 -0.092579
v -0.807502 0.940088 -0.086529
v -0.812075 0.938735 -0.093781
v -0.810006 0.949264 -0.099713
v -0.815480 0.949125 -0.105082
v -0.809894 0.943939 -0.101423
v -0.815491 0.936326 -0.073730
v -0.823947 0.935018 -0.082542
v -0.819013 0.940364 -0.102696
v -0.823426 0.938658 -0.097494
v -0.819123 0.932771 0.044111
v -0.814508 0.935333 0.046273
v -0.818951 0.937227 0.047206
v -0.771024 1.023800 -0.062871
v -0.779684 1.022626 -0.052649
v -0.777936 1.011969 -0.052723
v -0.771931 1.011811 -0.063439
v -0.772929 0.998798 -0.063788
v -0.777786 0.998748 -0.058176
v -0.774851 0.998884 -0.052750
v -0.775233 1.009513 -0.049992
v -0.782733 1.010614 -0.034755
v -0.788555 1.013673 -0.039143
v -0.790767 1.021209 -0.040666
v -0.814192 0.943679 0.049207
v -0.797786 0.935301 -0.014258
v -0.812179 0.933989 -0.022437
v -0.804984 0.936509 -0.042560
v -0.790878 0.936319 -0.028105
v -0.829712 0.932978 -0.031552
v -0.822776 0.935933 -0.055890
v -0.781199 0.940436 -0.039713
v -0.788448 0.940835 -0.050337
v -0.802193 0.936758 -0.065385
v -0.781601 1.010603 -0.071631
v -0.781869 1.024139 -0.071962
v -0.791111 1.022988 -0.062254
v -0.817222 0.930391 0.038806
v -0.825785 0.933198 0.050396
v -0.829010 0.929967 0.047453
v -0.818260 0.930415 0.021788
v -0.806173 0.931212 0.025567
v -0.826040 0.929418 0.034393
v -0.834968 0.928399 0.042646
v -0.801387 0.954296 0.048018
v -0.804023 0.962017 0.052736
v -0.814151 0.957508 0.057515
v -0.808002 0.949342 0.049983
v -0.801634 0.973248 0.059506
v -0.809066 0.970927 0.065900
v -0.823957 0.946938 0.064831
v -0.818059 0.945883 0.055529
v -0.823702 0.959866 0.068580
v -0.816823 0.971291 0.071779
v -0.792070 0.995008 0.050514
v -0.778306 0.999469 0.036422
v -0.787127 1.002428 0.041149
v -0.794948 1.001445 0.050876
v -0.784863 1.005916 0.024067
v -0.792272 1.004627 0.035769
v -0.801630 1.003847 0.047050
v -0.831691 0.929362 0.029683
v -0.828923 0.930260 0.019695
v -0.838823 0.928754 0.034507
v -0.839619 0.930097 0.021591
v -0.828436 0.968119 -0.107786
v -0.827328 0.979765 -0.104343
v -0.821481 0.979933 -0.110626
v -0.820373 0.968011 -0.109117
v -0.812611 0.967892 -0.102984
v -0.812543 0.977523 -0.102911
v -0.825184 0.988314 -0.100257
v -0.819761 0.987549 -0.102063
v -0.813883 0.985402 -0.098260
v -0.836819 0.943749 0.080872
v -0.845314 0.943424 0.084902
v -0.845588 0.938163 0.081490
v -0.839177 0.937274 0.078295
v -0.852024 0.944861 0.081299
v -0.850937 0.938261 0.078842
v -0.845442 0.935259 0.073547
v -0.822181 1.001777 0.068553
v -0.826272 0.997217 0.071412
v -0.819990 0.995991 0.075372
v -0.815257 0.998444 0.073523
v -0.812945 0.990602 0.074703
v -0.820273 0.989648 0.076513
v -0.827358 0.990158 0.071000
v -0.829634 0.945328 0.072943
v -0.830982 0.954418 0.075692
v -0.833972 0.961562 0.077296
v -0.829225 0.966203 0.071844
v -0.823669 0.973450 0.071601
v -0.851865 0.951403 0.083229
v -0.844061 0.950339 0.087108
v -0.844319 0.955629 0.086132
v -0.850022 0.957997 0.083580
v -0.836787 0.951097 0.082470
v -0.839320 0.958257 0.082925
v -0.844924 0.962924 0.079495
v -0.849012 0.932707 0.041602
v -0.852641 0.931476 0.026001
v -0.839857 0.931002 0.002729
v -0.854614 0.929692 0.006268
v -0.870279 0.928403 0.008733
v -0.867959 0.928412 0.020743
v -0.868292 0.930663 0.031110
v -0.856898 0.937030 0.033777
v -0.860082 0.937127 0.045473
v -0.817331 1.006779 -0.101108
v -0.823915 1.006745 -0.100448
v -0.821533 1.017471 -0.103789
v -0.817608 1.018646 -0.102697
v -0.831116 1.007488 -0.093497
v -0.829267 1.015839 -0.093756
v -0.825680 1.020497 -0.092087
v -0.867682 0.946628 0.048065
v -0.865523 0.941127 0.045190
v -0.867947 0.941301 0.053074
v -0.870429 0.942376 0.043525
v -0.874679 0.938063 0.037110
v -0.845759 0.965896 0.068626
v -0.854548 0.965253 0.064811
v -0.855907 0.963789 0.069372
v -0.851088 0.963572 0.073957
v -0.863767 0.963446 0.064206
v -0.861474 0.961291 0.070362
v -0.856402 0.959615 0.077246
v -0.868789 0.950859 0.045641
v -0.875682 0.940963 0.048288
v -0.881174 0.937257 0.042308
v -0.884723 0.926818 0.024878
v -0.877992 0.927045 0.031796
v -0.883377 0.938489 0.029326
v -0.888965 0.937254 0.034953
v -0.875093 0.928178 0.026041
v -0.878229 0.927699 0.018920
v -0.904376 0.940770 0.047784
v -0.908833 0.942080 0.038726
v -0.904269 0.937596 0.039246
v -0.899470 0.936107 0.044984
v -0.894202 0.936132 0.040347
v -0.901352 0.936563 0.034214
v -0.907016 0.942447 0.031407
v -0.887854 0.950458 0.062289
v -0.892566 0.952716 0.060687
v -0.880112 0.946393 0.056844
v -0.882225 0.952231 0.058633
v -0.887708 0.955672 0.056015
v -0.877306 0.953575 0.053525
v -0.875240 0.947752 0.051137
v -0.872927 0.955966 0.048776
v -0.869754 0.952682 0.051509
v -0.869070 0.956033 0.048074
v -0.870695 0.957190 0.046309
v -0.840511 0.998696 0.058260
v -0.852586 1.004698 0.057052
v -0.857279 0.994010 0.058378
v -0.843696 0.991689 0.057050
v -0.846586 0.984876 0.055606
v -0.860438 0.984180 0.056548
v -0.866964 1.003302 0.050991
v -0.869432 0.994566 0.052142
v -0.870496 0.985963 0.051245
v -0.903383 0.938910 0.007198
v -0.910220 0.938985 -0.001489
v -0.909774 0.926053 -0.001873
v -0.902569 0.926174 0.006364
v -0.893669 0.927148 -0.002865
v -0.902299 0.926890 -0.011079
v -0.903551 0.939626 -0.010694
v -0.869929 0.959842 0.050502
v -0.874389 0.960419 0.045464
v -0.877242 0.959095 0.048003
v -0.852180 0.968624 0.059181
v -0.850034 0.975906 0.055300
v -0.865065 0.972646 0.055081
v -0.863921 0.966076 0.058712
v -0.869565 0.962214 0.057117
v -0.869287 0.964465 0.052535
v -0.872758 0.976247 0.048944
v -0.873852 0.967922 0.047196
v -0.889829 0.926646 0.019630
v -0.889706 0.939005 0.022423
v -0.894851 0.940152 0.016699
v -0.895849 0.926405 0.013475
v -0.896506 0.938031 0.028312
v -0.902100 0.942494 0.024299
v -0.903925 0.951110 0.008306
v -0.896846 0.950930 0.016604
v -0.903287 0.950969 0.024167
v -0.883567 0.959962 0.041348
v -0.881110 0.963790 0.039295
v -0.899975 0.957566 0.041936
v -0.908487 0.958346 0.032596
v -0.910050 0.956476 0.039278
v -0.904862 0.954903 0.047406
v -0.908567 0.950757 0.030918
v -0.910088 0.949647 0.038373
v -0.906815 0.947622 0.048682
v -0.903005 0.959608 0.026394
v -0.895785 0.961683 0.018674
v -0.894870 0.959362 0.036595
v -0.890032 0.960981 0.031720
v -0.888868 0.966659 0.030767
v -0.897085 0.968948 0.021043
v -0.904766 0.970540 0.011886
v -0.902950 0.961793 0.009267
v -0.903373 1.007873 -0.001035
v -0.904773 1.005908 0.005920
v -0.900156 1.007428 0.006100
v -0.897748 1.008462 0.001546
v -0.892579 1.008420 0.006218
v -0.897154 1.007218 0.010914
v -0.902849 1.005412 0.013623
v -0.763673 0.958183 -0.035092
v -0.767907 0.966955 -0.039644
v -0.764185 0.969538 -0.036298
v -0.759430 0.965044 -0.032170
v -0.766559 0.976055 -0.043121
v -0.761196 0.975530 -0.038330
v -0.755430 0.971978 -0.030876
v -0.833841 0.934360 -0.068421
v -0.842970 0.932814 -0.051847
v -0.846273 0.931589 -0.022585
v -0.827224 0.931408 0.001539
v -0.856424 0.930474 -0.038434
v -0.852620 0.932679 -0.062147
v -0.866618 0.930375 -0.047277
v -0.860211 0.929663 -0.013579
v -0.870799 0.929209 -0.025302
v -0.883411 0.928135 -0.034229
v -0.872714 0.939916 -0.049339
v -0.886275 0.939790 -0.032542
v -0.884237 0.927996 -0.012669
v -0.893833 0.927556 -0.021516
v -0.895644 0.939868 -0.020590
v -0.888328 0.952937 -0.030473
v -0.897302 0.952698 -0.019313
v -0.904844 0.952017 -0.009894
v -0.898169 0.966301 -0.017247
v -0.905415 0.964354 -0.007878
v -0.911460 0.951254 -0.001508
v -0.909900 0.963210 0.000699
v -0.908378 0.974555 -0.008394
v -0.911024 0.972295 0.002130
v -0.901696 0.986387 -0.016216
v -0.900568 0.976685 -0.017152
v -0.909311 0.983928 -0.007462
v -0.912934 0.981401 0.003556
v -0.910097 0.992054 -0.006769
v -0.912891 0.989865 0.004315
v -0.906644 0.979457 0.013227
v -0.907512 0.988045 0.014307
v -0.899878 0.993171 0.023430
v -0.907813 0.995040 0.015192
v -0.899315 0.985893 0.022767
v -0.912235 0.996946 0.005235
v -0.898227 0.977434 0.022081
v -0.889724 0.982834 0.031870
v -0.889350 0.974689 0.031588
v -0.880421 0.987851 0.041963
v -0.890019 0.990659 0.031556
v -0.880739 0.979542 0.041261
v -0.881073 0.971341 0.040282
v -0.880039 0.995902 0.042300
v -0.889997 0.997924 0.031406
v -0.899567 0.999784 0.023410
v -0.888486 1.003642 0.029895
v -0.897025 1.004917 0.021503
v -0.906409 1.001432 0.014705
v -0.909231 1.002795 0.005614
v -0.907946 1.004953 -0.003350
v -0.910189 0.999002 -0.005372
v -0.902901 1.007225 -0.011598
v -0.903338 1.001201 -0.013712
v -0.902479 0.994585 -0.015186
v -0.894894 1.003396 -0.022503
v -0.894034 0.996686 -0.024110
v -0.892912 0.988430 -0.025580
v -0.881920 0.997848 -0.037462
v -0.880473 0.989390 -0.039118
v -0.878626 0.979392 -0.040759
v -0.891384 0.978550 -0.026977
v -0.876835 0.966966 -0.043246
v -0.889144 0.967285 -0.027888
v -0.875347 0.952751 -0.046803
v -0.861549 0.965338 -0.064232
v -0.860669 0.952702 -0.066385
v -0.859203 0.941038 -0.066872
v -0.849254 0.952042 -0.082039
v -0.848164 0.941022 -0.082544
v -0.841988 0.933801 -0.077176
v -0.839575 0.942641 -0.093806
v -0.832228 0.935265 -0.089280
v -0.831657 0.944913 -0.101786
v -0.827464 0.956081 -0.108479
v -0.823707 0.946361 -0.106150
v -0.833993 0.955763 -0.101865
v -0.841007 0.953438 -0.092911
v -0.834496 0.967101 -0.100777
v -0.841515 0.965238 -0.091750
v -0.849599 0.964350 -0.080707
v -0.839672 0.977340 -0.088032
v -0.848122 0.977187 -0.076794
v -0.861355 0.978414 -0.060286
v -0.848743 0.989056 -0.074349
v -0.863469 0.989309 -0.058427
v -0.840041 0.998877 -0.084231
v -0.839391 0.988779 -0.085165
v -0.850030 0.998939 -0.072869
v -0.865214 0.998573 -0.056467
v -0.851163 1.007430 -0.071354
v -0.866540 1.006376 -0.054643
v -0.883166 1.004952 -0.035765
v -0.867803 1.013174 -0.052864
v -0.884393 1.011364 -0.034000
v -0.895072 1.009219 -0.020561
v -0.882985 1.014440 -0.031007
v -0.893014 1.011931 -0.017824
v -0.898975 1.009942 -0.008527
v -0.888062 1.011789 -0.013756
v -0.893709 1.009968 -0.005037
v -0.874089 1.013891 -0.020877
v -0.878783 1.014213 -0.026241
v -0.882543 1.011619 -0.009021
v -0.888009 1.009930 -0.000601
v -0.875529 1.011355 -0.002593
v -0.881532 1.009626 0.005864
v -0.887115 1.008116 0.012551
v -0.873825 1.009169 0.013846
v -0.879783 1.007376 0.020801
v -0.892213 1.006768 0.017365
v -0.884499 1.005717 0.025859
v -0.868907 1.006894 0.031452
v -0.873800 1.005339 0.036646
v -0.878398 1.003673 0.041278
v -0.861499 1.005148 0.046627
v -0.842083 1.006404 0.049177
v -0.855711 1.006785 0.041803
v -0.847950 1.006093 0.054008
v -0.835639 1.005881 0.042204
v -0.848767 1.008566 0.034838
v -0.862813 1.008759 0.024130
v -0.840949 1.010638 0.026086
v -0.856031 1.010816 0.015263
v -0.867469 1.011041 0.005125
v -0.848054 1.013145 0.004013
v -0.859759 1.013175 -0.005977
v -0.867609 1.013510 -0.013976
v -0.846647 1.016461 -0.024208
v -0.854107 1.016640 -0.031815
v -0.860045 1.016899 -0.038553
v -0.837646 1.019674 -0.051968
v -0.843475 1.019784 -0.058172
v -0.847787 1.019935 -0.063292
v -0.864093 1.017258 -0.044337
v -0.851413 1.020081 -0.067736
v -0.867415 1.017502 -0.049695
v -0.851728 1.014763 -0.069988
v -0.838061 1.022239 -0.082335
v -0.839892 1.016023 -0.083589
v -0.840187 1.007925 -0.083751
v -0.831845 0.998268 -0.093301
v -0.825158 0.997550 -0.099964
v -0.831527 0.988483 -0.093897
v -0.832863 0.978326 -0.096892
v -0.817777 0.996596 -0.101280
v -0.811905 1.007245 -0.097370
v -0.812351 0.995633 -0.097305
v -0.806708 1.007341 -0.093164
v -0.807068 0.995005 -0.093017
v -0.807449 0.984646 -0.092779
v -0.799660 0.996063 -0.086990
v -0.799100 0.985368 -0.086613
v -0.796593 0.976396 -0.088124
v -0.804847 0.976597 -0.095982
v -0.795912 0.966662 -0.087508
v -0.804668 0.967424 -0.095857
v -0.804258 0.958137 -0.094948
v -0.811656 0.958412 -0.101965
v -0.818996 0.957297 -0.107555
v -0.787662 0.976192 -0.080212
v -0.785010 0.964976 -0.080976
v -0.779011 0.975473 -0.073054
v -0.777028 0.962806 -0.074086
v -0.774796 0.973265 -0.064941
v -0.775096 0.961268 -0.065563
v -0.778570 0.950271 -0.063772
v -0.776539 0.962124 -0.056980
v -0.779547 0.950822 -0.054737
v -0.787012 0.939650 -0.063628
v -0.776009 0.963311 -0.049057
v -0.776664 0.951164 -0.045803
v -0.772139 0.964531 -0.043624
v -0.769291 0.952905 -0.038846
v -0.770086 0.943975 -0.030565
v -0.762008 0.951986 -0.024617
v -0.767613 0.948757 -0.013318
v -0.777609 0.939569 -0.019633
v -0.777007 0.945308 -0.001353
v -0.785492 0.937384 -0.006728
v -0.802093 0.932992 0.007747
v -0.814260 0.931686 0.004267
v -0.761752 0.959403 -0.010111
v -0.771781 0.956312 0.002278
v -0.783648 0.951240 0.017561
v -0.767747 0.966513 0.003241
v -0.780493 0.962473 0.018450
v -0.759705 0.975423 0.006924
v -0.772027 0.971274 0.021780
v -0.783912 0.968247 0.035341
v -0.770035 0.982932 0.023677
v -0.782088 0.978980 0.037080
v -0.794354 0.976093 0.049104
v -0.795415 0.966035 0.045863
v -0.779974 0.989814 0.037480
v -0.792653 0.986031 0.050556
v -0.800200 0.983836 0.061044
v -0.799781 0.993039 0.062185
v -0.806483 0.991859 0.069427
v -0.807007 0.982348 0.068375
v -0.813434 0.981443 0.074015
v -0.821401 0.981603 0.074843
v -0.828561 0.982876 0.069412
v -0.830745 0.975512 0.067554
v -0.836319 0.983963 0.062681
v -0.838864 0.976963 0.061608
v -0.841978 0.970022 0.063610
v -0.834906 0.968724 0.068899
v -0.839477 0.965476 0.073773
v -0.834765 0.990798 0.064425
v -0.833652 0.997555 0.065379
v -0.829902 1.001940 0.062972
v -0.837402 1.002076 0.057466
v -0.824301 1.003159 0.058307
v -0.832441 1.003559 0.053600
v -0.817792 1.003833 0.052073
v -0.826113 1.004375 0.047351
v -0.809913 1.004703 0.043040
v -0.818361 1.005324 0.038422
v -0.827651 1.007202 0.033482
v -0.809861 1.006109 0.025816
v -0.819269 1.008719 0.021238
v -0.832483 1.013445 0.014569
v -0.809041 1.011814 -0.000593
v -0.821770 1.016195 -0.006926
v -0.835904 1.016237 -0.015506
v -0.807859 1.018451 -0.027749
v -0.820117 1.019500 -0.036735
v -0.830186 1.019629 -0.044997
v -0.803616 1.021534 -0.051019
v -0.815391 1.021750 -0.060706
v -0.823136 1.021810 -0.067430
v -0.803062 1.023206 -0.072170
v -0.810982 1.023345 -0.078744
v -0.817159 1.023206 -0.084182
v -0.829122 1.021979 -0.073279
v -0.821500 1.022278 -0.088469
v -0.833825 1.022116 -0.078179
v -0.808155 1.023622 -0.094153
v -0.813132 1.021252 -0.098557
v -0.799949 1.008165 -0.087546
v -0.800756 1.024512 -0.088414
v -0.792574 1.024376 -0.081316
v -0.791624 1.009479 -0.080296
v -0.791030 0.997330 -0.079499
v -0.781452 0.998215 -0.071154
v -0.781405 0.986530 -0.071032
v -0.790168 0.986677 -0.079090
v -0.774074 0.986071 -0.063448
v -0.776743 0.986291 -0.058639
v -0.775504 0.972966 -0.057787
v -0.774681 0.986733 -0.053090
v -0.774628 0.974135 -0.051551
v -0.770213 0.987000 -0.048232
v -0.770903 0.975319 -0.046771
v -0.765216 0.986798 -0.043764
v -0.769460 0.998793 -0.048397
v -0.763424 0.998276 -0.043410
v -0.758830 0.985230 -0.038138
v -0.751797 0.981625 -0.029813
v -0.748072 0.978698 -0.018919
v -0.754218 0.969613 -0.020164
v -0.751002 0.977035 -0.006547
v -0.758183 0.968404 -0.009020
v -0.757631 0.961389 -0.021759
v -0.768279 1.010326 -0.048471
v -0.776029 1.009806 -0.030152
v -0.792095 1.009764 -0.016024
v -0.784829 1.008657 -0.008361
v -0.800755 1.008269 0.005673
v -0.792517 1.006837 0.014103
v -0.800839 1.005476 0.030562
v -0.799532 1.012585 -0.022453
v -0.809753 1.003285 0.056485
v -0.802393 1.001365 0.061199
v -0.816473 1.002796 0.063239
v -0.809432 1.000476 0.068238
v -0.876105 0.928313 -0.003464
v -0.886929 0.927347 0.005095
v -0.881505 0.927514 0.012910
v -0.888324 0.958407 0.045546
v -0.882294 0.957558 0.051781
v -0.893579 0.956585 0.050157
v -0.898795 0.953299 0.054993
v -0.870567 0.957443 0.054347
v -0.870726 0.953404 0.060129
v -0.869005 0.958736 0.062982
v -0.866545 0.949251 0.068002
v -0.865627 0.955425 0.069917
v -0.858448 0.946674 0.075523
v -0.858206 0.953122 0.077000
v -0.866111 0.942945 0.065919
v -0.858009 0.939903 0.073207
v -0.862009 0.936567 0.061825
v -0.852920 0.935088 0.068539
v -0.852233 0.935432 0.056926
v -0.844838 0.935258 0.062825
v -0.838263 0.935748 0.066626
v -0.837101 0.931377 0.055562
v -0.831381 0.934124 0.058584
v -0.826270 0.938245 0.061646
v -0.832174 0.938085 0.070460
v -0.822767 0.939129 0.052867
v -0.843549 0.931853 0.050796
v -0.870337 0.947962 0.057330
v -0.880270 0.939544 0.054274
v -0.886769 0.936169 0.047525
v -0.796081 0.947927 0.046287
v -0.789677 0.944374 0.047499
v -0.783999 0.942595 0.049843
v -0.779882 0.944605 0.044857
v -0.778478 0.943827 0.038757
v -0.778769 0.940716 0.051583
v -0.774877 0.942865 0.045874
v -0.773975 0.943422 0.039260
v -0.774597 0.937749 0.035130
vt 0.526443 0.074925
vt 0.527452 0.072577
vt 0.529554 0.073655
vt 0.528733 0.075903
vt 0.102255 0.477956
vt 0.102542 0.473335
vt 0.105414 0.474959
vt 0.107053 0.479354
vt 0.528782 0.069283
vt 0.531638 0.070659
vt 0.423223 0.095102
vt 0.428996 0.105183
vt 0.421006 0.103691
vt 0.415870 0.098580
vt 0.410900 0.104883
vt 0.418710 0.108901
vt 0.429198 0.113335
vt 0.407376 0.098288
vt 0.412322 0.094561
vt 0.406468 0.089121
vt 0.412802 0.088538
vt 0.202972 0.326856
vt 0.198435 0.322819
vt 0.202621 0.320952
vt 0.205868 0.322568
vt 0.196348 0.314869
vt 0.202773 0.314690
vt 0.208213 0.315844
vt 0.813522 0.986756
vt 0.815003 0.983338
vt 0.816938 0.984289
vt 0.816829 0.987073
vt 0.822931 0.986664
vt 0.817706 0.981681
vt 0.814464 0.981334
vt 0.811043 0.989407
vt 0.815655 0.990416
vt 0.811127 0.992846
vt 0.807810 0.991675
vt 0.036717 0.556427
vt 0.036403 0.551739
vt 0.040546 0.550645
vt 0.040270 0.556171
vt 0.036050 0.548818
vt 0.040312 0.547108
vt 0.810759 0.984069
vt 0.037308 0.544604
vt 0.033700 0.547572
vt 0.032750 0.550482
vt 0.032570 0.542141
vt 0.036942 0.541230
vt 0.040486 0.542821
vt 0.807220 0.986235
vt 0.806738 0.981085
vt 0.810077 0.981076
vt 0.803565 0.976610
vt 0.808179 0.976265
vt 0.803037 0.980753
vt 0.813035 0.976990
vt 0.809920 0.978406
vt 0.812315 0.974017
vt 0.023678 0.537181
vt 0.027382 0.530395
vt 0.029813 0.534568
vt 0.028739 0.539234
vt 0.811360 0.971295
vt 0.806809 0.971848
vt 0.815436 0.970004
vt 0.816396 0.973625
vt 0.820005 0.973395
vt 0.820154 0.969700
vt 0.821286 0.964771
vt 0.816675 0.963606
vt 0.157898 0.351374
vt 0.150574 0.356515
vt 0.149513 0.353081
vt 0.156090 0.346303
vt 0.024535 0.542438
vt 0.019381 0.537667
vt 0.030292 0.545098
vt 0.029247 0.548536
vt 0.025289 0.547082
vt 0.020911 0.546814
vt 0.018791 0.542762
vt 0.413143 0.082542
vt 0.422892 0.086053
vt 0.441353 0.107268
vt 0.439213 0.100657
vt 0.436846 0.092365
vt 0.204037 0.308536
vt 0.196932 0.308005
vt 0.198647 0.303663
vt 0.205279 0.303917
vt 0.206300 0.299965
vt 0.202307 0.300139
vt 0.187838 0.307869
vt 0.189589 0.301355
vt 0.199856 0.297101
vt 0.196677 0.296808
vt 0.014426 0.536375
vt 0.016371 0.539119
vt 0.013653 0.538902
vt 0.410592 0.063486
vt 0.416472 0.065559
vt 0.414126 0.071243
vt 0.406898 0.066067
vt 0.403075 0.069468
vt 0.405878 0.072156
vt 0.407340 0.074806
vt 0.414216 0.073760
vt 0.423984 0.075959
vt 0.424228 0.071618
vt 0.424792 0.067275
vt 0.014748 0.543243
vt 0.166002 0.334809
vt 0.165344 0.325848
vt 0.177393 0.323560
vt 0.174772 0.334132
vt 0.164930 0.314698
vt 0.177876 0.310375
vt 0.183890 0.335422
vt 0.186647 0.329122
vt 0.188328 0.316884
vt 0.403625 0.059695
vt 0.410834 0.056922
vt 0.417299 0.057404
vt 0.016951 0.533584
vt 0.065452 0.450994
vt 0.066406 0.454153
vt 0.058781 0.454066
vt 0.060023 0.450751
vt 0.054063 0.462127
vt 0.050358 0.455916
vt 0.061170 0.459313
vt 0.067347 0.458909
vt 0.469561 0.125383
vt 0.471198 0.122037
vt 0.480607 0.121655
vt 0.474070 0.125898
vt 0.472840 0.117151
vt 0.479140 0.116769
vt 0.069425 0.439422
vt 0.064935 0.442002
vt 0.064282 0.434245
vt 0.071596 0.428055
vt 0.486329 0.114003
vt 0.489512 0.117572
vt 0.061673 0.443568
vt 0.060529 0.438783
vt 0.462424 0.108155
vt 0.451918 0.105967
vt 0.457194 0.103778
vt 0.463904 0.104339
vt 0.449343 0.098050
vt 0.456867 0.099452
vt 0.464865 0.099980
vt 0.062268 0.463479
vt 0.057714 0.466904
vt 0.067090 0.463738
vt 0.063157 0.469757
vt 0.214038 0.291779
vt 0.219719 0.292823
vt 0.219000 0.297469
vt 0.214556 0.297941
vt 0.215414 0.304423
vt 0.219445 0.306403
vt 0.224112 0.297277
vt 0.222634 0.301542
vt 0.222168 0.306769
vt 0.077583 0.437906
vt 0.081493 0.437888
vt 0.080508 0.441167
vt 0.077705 0.442148
vt 0.084239 0.440560
vt 0.082245 0.443465
vt 0.079535 0.445928
vt 0.480607 0.099912
vt 0.483849 0.100042
vt 0.482648 0.104080
vt 0.479758 0.104584
vt 0.480526 0.108488
vt 0.484579 0.106170
vt 0.487018 0.101395
vt 0.073263 0.438100
vt 0.075976 0.431632
vt 0.081749 0.428975
vt 0.080926 0.426585
vt 0.489458 0.110800
vt 0.492281 0.111059
vt 0.086088 0.438353
vt 0.083167 0.435265
vt 0.084328 0.433588
vt 0.087599 0.436572
vt 0.078808 0.434006
vt 0.083046 0.431372
vt 0.088612 0.432795
vt 0.074716 0.464070
vt 0.071053 0.472265
vt 0.055005 0.477938
vt 0.062725 0.481760
vt 0.070250 0.486597
vt 0.074845 0.480656
vt 0.079813 0.476544
vt 0.077190 0.470599
vt 0.082022 0.465783
vt 0.411136 0.026243
vt 0.415966 0.023553
vt 0.415387 0.028728
vt 0.414383 0.030684
vt 0.422714 0.023356
vt 0.421974 0.027832
vt 0.420946 0.031101
vt 0.088643 0.464481
vt 0.086109 0.466621
vt 0.086255 0.461686
vt 0.088833 0.469214
vt 0.087343 0.474406
vt 0.093016 0.434868
vt 0.093839 0.442217
vt 0.092280 0.441212
vt 0.091329 0.435997
vt 0.093742 0.448308
vt 0.091828 0.445133
vt 0.090077 0.440016
vt 0.090981 0.465221
vt 0.092660 0.471223
vt 0.092722 0.475789
vt 0.083637 0.485183
vt 0.082958 0.480896
vt 0.088921 0.481173
vt 0.093464 0.481412
vt 0.079642 0.480954
vt 0.078332 0.485220
vt 0.106578 0.484537
vt 0.104201 0.489155
vt 0.101983 0.486332
vt 0.102185 0.482735
vt 0.098011 0.482031
vt 0.098697 0.486682
vt 0.101079 0.490875
vt 0.524712 0.073883
vt 0.524351 0.071991
vt 0.524126 0.077650
vt 0.522051 0.075300
vt 0.520871 0.072617
vt 0.518898 0.076483
vt 0.520280 0.079050
vt 0.517270 0.080770
vt 0.515883 0.077714
vt 0.094817 0.468102
vt 0.090844 0.461397
vt 0.092962 0.462137
vt 0.514431 0.078542
vt 0.514525 0.079845
vt 0.485703 0.089722
vt 0.487697 0.083045
vt 0.494085 0.083730
vt 0.490421 0.090413
vt 0.494539 0.091071
vt 0.499163 0.083966
vt 0.491376 0.075516
vt 0.496178 0.076175
vt 0.500777 0.077051
vt 0.086109 0.501110
vt 0.083031 0.507546
vt 0.078957 0.504728
vt 0.081186 0.499308
vt 0.073588 0.500190
vt 0.073318 0.506754
vt 0.077696 0.511347
vt 0.512413 0.079854
vt 0.512855 0.076425
vt 0.514988 0.075282
vt 0.095976 0.442789
vt 0.098780 0.441932
vt 0.099463 0.452177
vt 0.096175 0.450206
vt 0.094462 0.454286
vt 0.095039 0.455974
vt 0.505624 0.077080
vt 0.505329 0.084515
vt 0.509409 0.076890
vt 0.509907 0.081910
vt 0.082969 0.489450
vt 0.089450 0.487117
vt 0.089708 0.491603
vt 0.082204 0.494262
vt 0.094027 0.486836
vt 0.095979 0.491252
vt 0.090594 0.501715
vt 0.094088 0.496819
vt 0.098932 0.495189
vt 0.514835 0.069656
vt 0.512600 0.069737
vt 0.112804 0.496616
vt 0.107560 0.497999
vt 0.109382 0.494995
vt 0.113278 0.490591
vt 0.103886 0.494902
vt 0.106596 0.492262
vt 0.110567 0.487106
vt 0.102802 0.499269
vt 0.097498 0.501011
vt 0.111445 0.503738
vt 0.108683 0.504892
vt 0.511994 0.061578
vt 0.510758 0.052547
vt 0.513527 0.051182
vt 0.514456 0.061365
vt 0.509085 0.043200
vt 0.512036 0.041191
vt 0.093341 0.505083
vt 0.486686 0.040504
vt 0.490048 0.042982
vt 0.487925 0.044595
vt 0.485201 0.043567
vt 0.484733 0.047396
vt 0.488325 0.047690
vt 0.491743 0.047118
vt 0.191923 0.347493
vt 0.198247 0.346676
vt 0.198246 0.349529
vt 0.193702 0.351290
vt 0.203911 0.348472
vt 0.201916 0.351713
vt 0.196453 0.354335
vt 0.180082 0.300799
vt 0.170172 0.300740
vt 0.046532 0.491486
vt 0.036011 0.489411
vt 0.049514 0.474073
vt 0.043589 0.502243
vt 0.033663 0.503088
vt 0.174408 0.291308
vt 0.165642 0.292830
vt 0.167390 0.286086
vt 0.056165 0.492459
vt 0.055309 0.502054
vt 0.057019 0.511246
vt 0.044204 0.510765
vt 0.047612 0.518809
vt 0.061347 0.518039
vt 0.066168 0.501110
vt 0.066383 0.508930
vt 0.070221 0.515631
vt 0.068372 0.524389
vt 0.076301 0.519890
vt 0.083096 0.515294
vt 0.083392 0.522866
vt 0.088603 0.516000
vt 0.086765 0.509181
vt 0.090590 0.510622
vt 0.497682 0.028376
vt 0.501953 0.026816
vt 0.507897 0.033007
vt 0.504854 0.034843
vt 0.487532 0.026328
vt 0.490138 0.023584
vt 0.493995 0.029955
vt 0.493644 0.021498
vt 0.501856 0.036454
vt 0.492242 0.032628
vt 0.498239 0.038369
vt 0.505215 0.044223
vt 0.501669 0.045284
vt 0.499587 0.052652
vt 0.498146 0.046056
vt 0.503175 0.052582
vt 0.495430 0.040106
vt 0.507471 0.052879
vt 0.504383 0.060842
vt 0.508219 0.061471
vt 0.501219 0.068661
vt 0.500141 0.059992
vt 0.505226 0.069427
vt 0.509270 0.069717
vt 0.496930 0.067804
vt 0.496024 0.059263
vt 0.495900 0.052336
vt 0.492513 0.058831
vt 0.492485 0.052290
vt 0.494324 0.046261
vt 0.492271 0.041250
vt 0.488332 0.037824
vt 0.490660 0.034967
vt 0.483248 0.036048
vt 0.484230 0.032818
vt 0.485271 0.029397
vt 0.477322 0.031485
vt 0.478117 0.027762
vt 0.479464 0.023388
vt 0.468177 0.024973
vt 0.468650 0.020274
vt 0.470066 0.015456
vt 0.482051 0.019765
vt 0.471106 0.010089
vt 0.484137 0.016511
vt 0.053659 0.528370
vt 0.075740 0.530473
vt 0.061795 0.535765
vt 0.184526 0.273897
vt 0.180725 0.279676
vt 0.172348 0.273166
vt 0.176338 0.265834
vt 0.176878 0.286025
vt 0.168565 0.280086
vt 0.189673 0.282712
vt 0.186063 0.288286
vt 0.182928 0.294044
vt 0.193571 0.289765
vt 0.190681 0.295515
vt 0.199564 0.290669
vt 0.208032 0.292235
vt 0.203407 0.294669
vt 0.204113 0.288380
vt 0.197553 0.283826
vt 0.210794 0.286883
vt 0.204797 0.282415
vt 0.194328 0.277178
vt 0.212003 0.280794
vt 0.203232 0.275622
vt 0.190765 0.268201
vt 0.440126 0.015098
vt 0.439472 0.009794
vt 0.453798 0.011422
vt 0.453764 0.017044
vt 0.457084 0.005577
vt 0.431013 0.019049
vt 0.430436 0.014446
vt 0.440502 0.019956
vt 0.429644 0.009249
vt 0.454238 0.021836
vt 0.441175 0.024516
vt 0.453813 0.026395
vt 0.467767 0.029012
vt 0.453625 0.030443
vt 0.467354 0.032964
vt 0.476760 0.034853
vt 0.467224 0.035580
vt 0.476288 0.037369
vt 0.482076 0.039011
vt 0.475363 0.041006
vt 0.481037 0.042424
vt 0.466849 0.043248
vt 0.466944 0.039189
vt 0.474723 0.045051
vt 0.480227 0.046416
vt 0.474199 0.050368
vt 0.479941 0.051494
vt 0.484826 0.052001
vt 0.479818 0.057665
vt 0.485040 0.058145
vt 0.488775 0.052122
vt 0.489042 0.058408
vt 0.484646 0.066565
vt 0.488739 0.066916
vt 0.492501 0.067239
vt 0.487372 0.075632
vt 0.480810 0.084080
vt 0.483142 0.075832
vt 0.484796 0.083583
vt 0.475553 0.084024
vt 0.477616 0.075803
vt 0.479248 0.066030
vt 0.471042 0.075295
vt 0.472990 0.065079
vt 0.473760 0.056589
vt 0.465348 0.063548
vt 0.466172 0.054973
vt 0.466583 0.048627
vt 0.454004 0.052544
vt 0.454311 0.046365
vt 0.454380 0.041185
vt 0.439983 0.044341
vt 0.440098 0.039298
vt 0.440141 0.035379
vt 0.454066 0.037091
vt 0.440330 0.031961
vt 0.453769 0.033467
vt 0.440515 0.028503
vt 0.429568 0.030977
vt 0.430148 0.027358
vt 0.431117 0.023158
vt 0.422910 0.019111
vt 0.415096 0.020534
vt 0.414365 0.017440
vt 0.421881 0.015344
vt 0.218962 0.286466
vt 0.225032 0.291481
vt 0.423193 0.009556
vt 0.408996 0.023471
vt 0.409791 0.019247
vt 0.408477 0.030755
vt 0.405173 0.028271
vt 0.403537 0.023252
vt 0.406524 0.036220
vt 0.403004 0.035232
vt 0.400845 0.032092
vt 0.400379 0.041454
vt 0.396552 0.041713
vt 0.217505 0.318643
vt 0.219028 0.311913
vt 0.222184 0.312159
vt 0.221281 0.319276
vt 0.213387 0.317443
vt 0.214420 0.310377
vt 0.209408 0.309287
vt 0.210625 0.303771
vt 0.209643 0.297563
vt 0.215672 0.325588
vt 0.210774 0.324105
vt 0.213230 0.331984
vt 0.207696 0.329734
vt 0.210393 0.336475
vt 0.204494 0.333141
vt 0.198286 0.330561
vt 0.201738 0.336597
vt 0.194595 0.333622
vt 0.192613 0.324708
vt 0.199182 0.339752
vt 0.191823 0.337769
vt 0.198353 0.343341
vt 0.190543 0.343000
vt 0.183154 0.342961
vt 0.184839 0.349118
vt 0.177139 0.350194
vt 0.174902 0.342676
vt 0.167231 0.349560
vt 0.165632 0.343183
vt 0.154700 0.339896
vt 0.021469 0.529734
vt 0.021135 0.518608
vt 0.026648 0.520071
vt 0.045891 0.468032
vt 0.042761 0.462132
vt 0.152803 0.332980
vt 0.151260 0.326408
vt 0.180782 0.356107
vt 0.170547 0.356097
vt 0.159172 0.356683
vt 0.173829 0.361132
vt 0.161763 0.362136
vt 0.153183 0.364139
vt 0.150377 0.360057
vt 0.178601 0.366980
vt 0.166332 0.368031
vt 0.453666 0.120386
vt 0.456164 0.123851
vt 0.445680 0.124152
vt 0.442442 0.118742
vt 0.442289 0.113633
vt 0.453548 0.115717
vt 0.463871 0.117050
vt 0.464796 0.120408
vt 0.463608 0.123077
vt 0.452161 0.111168
vt 0.462727 0.112504
vt 0.470632 0.113646
vt 0.470448 0.109220
vt 0.475931 0.109058
vt 0.477534 0.113002
vt 0.484205 0.110784
vt 0.487333 0.108445
vt 0.489519 0.103017
vt 0.492301 0.104170
vt 0.491913 0.096792
vt 0.495066 0.098258
vt 0.496544 0.102156
vt 0.494276 0.107096
vt 0.089978 0.429862
vt 0.091391 0.428104
vt 0.094821 0.435016
vt 0.096806 0.432967
vt 0.498969 0.092098
vt 0.488353 0.095898
vt 0.484757 0.095022
vt 0.481571 0.094814
vt 0.482899 0.089647
vt 0.477745 0.094871
vt 0.479191 0.089823
vt 0.472906 0.095039
vt 0.474143 0.089862
vt 0.466428 0.094920
vt 0.467568 0.089627
vt 0.468902 0.083760
vt 0.459342 0.088262
vt 0.460832 0.082355
vt 0.463052 0.073846
vt 0.448082 0.077782
vt 0.450235 0.069557
vt 0.452774 0.060410
vt 0.436657 0.066737
vt 0.438361 0.057898
vt 0.439512 0.050361
vt 0.426287 0.058081
vt 0.427736 0.049378
vt 0.428259 0.043324
vt 0.418659 0.048851
vt 0.419264 0.042979
vt 0.419985 0.038225
vt 0.428606 0.038322
vt 0.420210 0.034600
vt 0.428973 0.034243
vt 0.412976 0.037216
vt 0.412585 0.033760
vt 0.404152 0.043442
vt 0.411931 0.043133
vt 0.411333 0.048894
vt 0.403921 0.050979
vt 0.398022 0.053156
vt 0.398978 0.062808
vt 0.394324 0.065443
vt 0.393597 0.053453
vt 0.220403 0.326709
vt 0.218328 0.333471
vt 0.398125 0.073040
vt 0.216908 0.339428
vt 0.400327 0.074876
vt 0.208231 0.339810
vt 0.216154 0.341220
vt 0.401234 0.077468
vt 0.396309 0.081015
vt 0.394934 0.077973
vt 0.205225 0.341794
vt 0.401920 0.080973
vt 0.396425 0.084096
vt 0.205042 0.345663
vt 0.401396 0.085116
vt 0.396755 0.087678
vt 0.407610 0.078297
vt 0.407197 0.082844
vt 0.401502 0.091481
vt 0.397529 0.092783
vt 0.402282 0.102136
vt 0.399310 0.101355
vt 0.408013 0.110666
vt 0.190871 0.357924
vt 0.198413 0.360303
vt 0.193034 0.362684
vt 0.188015 0.364926
vt 0.184013 0.360419
vt 0.187509 0.354009
vt 0.418003 0.114950
vt 0.430259 0.118913
vt 0.413339 0.077581
vt 0.423733 0.080550
vt 0.435470 0.079284
vt 0.436132 0.085469
vt 0.447653 0.084105
vt 0.448366 0.091028
vt 0.458074 0.093957
vt 0.435520 0.073375
vt 0.471515 0.100034
vt 0.470638 0.104753
vt 0.476501 0.099961
vt 0.475703 0.104943
vt 0.067139 0.493993
vt 0.075229 0.494343
vt 0.076745 0.488990
vt 0.517667 0.069206
vt 0.517720 0.062326
vt 0.517846 0.073895
vt 0.521245 0.063565
vt 0.521082 0.068691
vt 0.524927 0.064313
vt 0.525051 0.068921
vt 0.111225 0.481539
vt 0.115623 0.484477
vt 0.513996 0.081239
vt 0.512247 0.082348
vt 0.090857 0.455149
vt 0.092620 0.451899
vt 0.091821 0.458595
vt 0.088920 0.450890
vt 0.090488 0.447786
vt 0.086616 0.444949
vt 0.088362 0.442524
vt 0.086793 0.452998
vt 0.084382 0.447620
vt 0.084084 0.455190
vt 0.081712 0.450371
vt 0.080143 0.457184
vt 0.077848 0.452122
vt 0.076073 0.448507
vt 0.073190 0.454068
vt 0.070885 0.450382
vt 0.070152 0.446438
vt 0.073954 0.443599
vt 0.065141 0.446981
vt 0.061359 0.448276
vt 0.074507 0.458261
vt 0.088499 0.458091
vt 0.093728 0.460366
vt 0.097653 0.472070
vt 0.099105 0.469250
vt 0.527209 0.078219
vt 0.097644 0.476875
vt 0.022022 0.550714
vt 0.016477 0.550889
vt 0.016461 0.547718
vt 0.020826 0.554201
vt 0.015292 0.555505
vt 0.026269 0.551135
vt 0.823400 0.968148
vt 0.822587 0.971489
vt 0.029921 0.552726
vt 0.029739 0.556141
vt 0.026866 0.554900
vt 0.820726 0.976805
vt 0.816883 0.976341
vt 0.033188 0.554581
vt 0.032740 0.558150
vt 0.817660 0.979015
vt 0.822159 0.981444
vt 0.813199 0.979405
vt 0.036570 0.559169
vt 0.805002 0.989923
vt 0.820820 0.989925
vn 0.3410 -0.1588 0.9266
vn -0.3342 -0.1428 0.9316
vn -0.2047 -0.5578 0.8044
vn 0.2502 -0.6770 0.6922
vn -0.0953 -0.9484 0.3024
vn -0.5044 -0.6288 0.5917
vn -0.6816 -0.0777 0.7276
vn 0.0306 0.9951 0.0940
vn 0.5600 0.5790 0.5926
vn 0.7814 0.5380 0.3162
vn 0.8242 0.5662 -0.0133
vn 0.9726 -0.2229 -0.0663
vn 0.9185 -0.2316 0.3206
vn 0.7966 -0.2079 0.5677
vn 0.8483 -0.1947 -0.4923
vn 0.7824 0.4848 -0.3910
vn 0.6708 -0.1143 -0.7328
vn 0.5177 0.6688 -0.5335
vn 0.9218 -0.2692 -0.2791
vn 0.6077 -0.7372 -0.2954
vn 0.5646 -0.3483 -0.7483
vn 0.6235 -0.0666 -0.7790
vn 0.2593 -0.8759 -0.4068
vn 0.4619 -0.3910 -0.7961
vn 0.5594 -0.0569 -0.8270
vn 0.5941 -0.7924 -0.1385
vn 0.5712 0.0587 -0.8187
vn 0.9297 0.2855 -0.2327
vn 0.9482 0.0217 0.3169
vn 0.3543 0.8625 0.3613
vn 0.2223 0.9510 -0.2149
vn 0.3790 -0.0002 -0.9254
vn 0.5039 -0.8490 0.1590
vn 0.7718 0.0117 0.6358
vn 0.4582 -0.1902 0.8682
vn 0.1921 -0.8096 0.5546
vn 0.2981 0.7850 0.5431
vn 0.0552 0.5338 0.8438
vn -0.3017 -0.2476 0.9207
vn 0.4524 -0.8267 -0.3346
vn -0.0626 -0.9641 0.2580
vn -0.5265 -0.4246 0.7366
vn -0.2445 0.6737 0.6974
vn -0.2878 -0.9556 0.0638
vn -0.0070 -0.9807 -0.1954
vn 0.2851 -0.9580 0.0293
vn 0.2599 -0.7552 -0.6018
vn -0.2240 -0.9737 0.0426
vn 0.0506 -0.8109 -0.5830
vn 0.0914 0.1678 -0.9816
vn -0.0146 -0.4942 -0.8692
vn 0.4216 0.1148 -0.8995
vn 0.0889 -0.9735 0.2109
vn 0.4430 -0.8812 -0.1649
vn 0.9267 -0.1754 -0.3325
vn 0.9452 0.3259 0.0197
vn 0.4128 0.7767 -0.4758
vn 0.2642 0.9436 0.1995
vn 0.6281 0.5772 0.5218
vn 0.7197 -0.0518 0.6923
vn 0.8610 -0.2290 0.4541
vn 0.8528 -0.4891 0.1832
vn 0.4789 -0.8778 0.0084
vn -0.2045 -0.6323 0.7473
vn 0.0703 -0.8032 0.5915
vn -0.6154 -0.5682 0.5463
vn -0.4230 0.4547 0.7838
vn -0.2981 0.1778 0.9378
vn 0.0804 -0.1444 0.9862
vn 0.0824 -0.3501 0.9331
vn 0.4929 0.6843 -0.5374
vn 0.0323 0.9974 0.0638
vn 0.7574 0.1761 0.6288
vn 0.1806 0.9378 0.2965
vn 0.0526 0.9926 0.1094
vn 0.6558 -0.3533 -0.6672
vn 0.4037 -0.8394 -0.3640
vn 0.4635 -0.8233 -0.3276
vn 0.8245 -0.1164 -0.5537
vn 0.4776 -0.1674 -0.8625
vn 0.7534 -0.3763 -0.5393
vn 0.1312 -0.9900 -0.0520
vn 0.1408 -0.9865 -0.0837
vn 0.0942 -0.7303 -0.6766
vn -0.0701 -0.8840 -0.4622
vn 0.2732 -0.7759 0.5686
vn 0.0511 -0.4674 0.8826
vn 0.3892 -0.5386 0.7473
vn 0.8016 0.5941 -0.0676
vn 0.4990 0.7350 0.4591
vn 0.8827 0.3004 0.3615
vn 0.9886 -0.0562 -0.1396
vn 0.9888 -0.0758 -0.1287
vn 0.9932 0.0089 0.1164
vn 0.7473 0.0920 -0.6580
vn 0.5673 0.7156 -0.4075
vn 0.1871 0.9759 0.1119
vn 0.5320 0.7251 0.4373
vn 0.3556 0.8353 0.4194
vn 0.3792 -0.4526 0.8071
vn 0.1549 -0.9865 -0.0529
vn 0.0934 -0.9930 -0.0729
vn 0.1263 -0.9898 -0.0661
vn 0.1948 -0.9771 -0.0851
vn 0.0914 -0.9941 -0.0582
vn 0.0990 -0.9946 -0.0320
vn 0.4563 -0.8403 -0.2928
vn 0.4569 -0.8846 -0.0930
vn 0.1336 -0.9898 -0.0498
vn 0.6522 -0.0155 -0.7579
vn 0.4509 0.7374 -0.5029
vn -0.0419 0.9959 0.0797
vn 0.1306 -0.9827 0.1315
vn 0.4844 -0.7395 0.4674
vn 0.1882 -0.9407 0.2821
vn 0.0683 -0.9966 -0.0467
vn 0.1358 -0.9907 -0.0080
vn 0.0804 -0.9967 -0.0087
vn -0.0726 -0.9933 0.0898
vn 0.5162 -0.1286 0.8467
vn 0.6290 -0.3817 0.6772
vn 0.6060 -0.4234 0.6735
vn 0.3897 -0.3163 0.8649
vn 0.7237 -0.3435 0.5985
vn 0.6128 -0.4278 0.6644
vn 0.7757 -0.3253 0.5408
vn 0.6659 -0.4564 0.5901
vn 0.6065 -0.2363 0.7591
vn 0.3385 -0.3765 0.8623
vn 0.7516 0.1543 0.6413
vn 0.6474 0.5535 0.5240
vn 0.4463 0.7766 0.4446
vn 0.5030 0.7349 0.4548
vn 0.1353 0.9765 0.1674
vn 0.1543 0.9731 0.1712
vn 0.1150 0.9813 0.1541
vn 0.0303 -0.9966 -0.0762
vn 0.0249 -0.9974 -0.0671
vn -0.1237 -0.9923 -0.0020
vn -0.0375 -0.9990 -0.0256
vn -0.5439 0.0844 -0.8349
vn -0.6249 0.3552 -0.6952
vn 0.0606 0.3399 -0.9385
vn 0.2159 -0.0069 -0.9764
vn 0.6478 -0.0187 -0.7616
vn 0.6577 0.2359 -0.7153
vn -0.5554 0.2847 -0.7813
vn 0.1692 0.3697 -0.9136
vn 0.6340 0.2540 -0.7304
vn 0.6031 -0.3367 0.7231
vn -0.0417 -0.3822 0.9231
vn -0.0561 -0.7130 0.6989
vn 0.3687 -0.7748 0.5135
vn -0.5843 -0.2782 0.7624
vn -0.4255 -0.6900 0.5855
vn -0.0245 -0.9786 0.2041
vn -0.1465 0.8809 0.4501
vn -0.4979 0.4242 0.7564
vn -0.1754 0.3815 0.9076
vn 0.2274 0.6022 0.7652
vn 0.4452 0.0582 0.8936
vn -0.1922 0.0067 0.9813
vn -0.6240 0.0001 0.7814
vn 0.7666 -0.2804 0.5776
vn 0.7345 0.0093 0.6785
vn 0.4614 0.4886 0.7405
vn 0.1353 0.2885 0.9479
vn -0.2069 -0.1022 0.9730
vn -0.5817 -0.0321 0.8128
vn 0.0588 -0.0770 0.9953
vn 0.0467 0.3373 0.9402
vn -0.3853 0.4791 0.7886
vn 0.6331 -0.0285 0.7736
vn 0.4022 0.4684 0.7867
vn -0.0588 0.8353 0.5466
vn -0.3529 -0.9329 0.0713
vn -0.0550 -0.9898 0.1311
vn 0.0418 -0.9986 -0.0310
vn 0.0758 -0.9971 0.0003
vn 0.0878 -0.9961 -0.0063
vn 0.1340 -0.9819 0.1335
vn 0.1703 -0.8827 0.4380
vn -0.1923 -0.9444 0.2668
vn -0.3832 -0.9108 0.1537
vn 0.3136 -0.0763 -0.9465
vn -0.4409 -0.0246 -0.8972
vn -0.4160 0.3032 -0.8573
vn 0.0887 0.4682 -0.8791
vn -0.7222 0.0542 -0.6896
vn -0.6697 0.3478 -0.6562
vn -0.3302 0.8628 -0.3828
vn -0.9417 -0.3195 0.1059
vn -0.7079 -0.5905 0.3875
vn -0.7800 -0.6204 -0.0821
vn -0.0307 -0.6594 0.7512
vn -0.0099 -0.8919 0.4522
vn -0.2179 0.9066 0.3615
vn -0.2296 0.9003 0.3699
vn -0.2587 0.9056 0.3360
vn -0.2513 0.8957 0.3669
vn -0.4813 0.7566 0.4426
vn -0.5329 0.6590 0.5308
vn -0.5456 0.5514 0.6311
vn -0.3491 -0.3258 0.8786
vn 0.6083 -0.6602 0.4406
vn 0.2395 -0.9698 0.0465
vn -0.4071 -0.7970 0.4461
vn -0.1917 -0.7325 0.6532
vn -0.4359 -0.8113 0.3896
vn 0.0708 -0.9891 -0.1295
vn 0.1859 -0.9641 0.1894
vn 0.1011 -0.9949 -0.0040
vn -0.7243 -0.5600 0.4022
vn -0.8791 -0.4755 0.0343
vn -0.5229 -0.8521 0.0236
vn -0.3240 -0.9322 0.1612
vn 0.0130 -0.9964 -0.0835
vn -0.3097 -0.9232 -0.2274
vn -0.7837 -0.4744 -0.4010
vn 0.1548 0.3185 0.9352
vn -0.2614 0.5694 0.7794
vn 0.6999 -0.1366 0.7010
vn 0.4975 0.4401 0.7475
vn 0.0156 0.8827 0.4696
vn 0.5706 0.3798 0.7281
vn 0.7320 -0.1433 0.6660
vn 0.4603 0.3473 0.8170
vn -0.9797 -0.1112 -0.1667
vn -0.8568 -0.2748 0.4362
vn -0.2713 -0.1553 0.9499
vn -0.2896 0.3465 0.8923
vn -0.1599 0.6102 0.7759
vn -0.2095 0.0159 0.9777
vn -0.3173 -0.0269 0.9479
vn -0.2589 -0.0538 0.9644
vn -0.2274 -0.0792 0.9706
vn -0.4039 0.6763 0.6160
vn -0.5574 0.1222 0.8212
vn -0.5933 -0.0031 0.8050
vn -0.7574 -0.0903 0.6466
vn -0.9967 -0.0792 0.0165
vn -0.7730 -0.6344 -0.0063
vn -0.4820 -0.7582 0.4390
vn 0.0653 -0.9974 -0.0310
vn -0.5074 -0.7307 -0.4567
vn -0.7852 -0.0491 -0.6172
vn -0.9604 -0.1290 0.2468
vn -0.4722 0.3015 0.8284
vn 0.0845 0.8106 0.5794
vn -0.2651 0.6828 0.6808
vn -0.2445 0.2213 0.9441
vn -0.4465 0.1931 0.8737
vn -0.4681 0.6515 0.5970
vn -0.8790 0.3844 0.2822
vn -0.8458 0.1398 0.5148
vn -0.6541 -0.0078 0.7563
vn -0.7130 -0.0580 0.6988
vn -0.4425 -0.7809 0.4408
vn -0.5780 -0.7403 0.3434
vn -0.8569 -0.3863 0.3414
vn -0.4568 -0.7685 0.4480
vn -0.1769 -0.9518 -0.2504
vn -0.6573 -0.5208 -0.5448
vn -0.7750 -0.0521 0.6298
vn -0.9989 -0.0299 0.0360
vn -0.7736 0.0214 -0.6333
vn -0.3048 0.8569 0.4157
vn -0.6692 0.2632 0.6949
vn -0.1590 0.9588 0.2355
vn -0.7120 0.6790 -0.1787
vn -0.7872 0.5783 0.2141
vn -0.5882 0.6545 0.4750
vn -0.8995 -0.0228 -0.4364
vn -0.9959 -0.0582 0.0696
vn -0.8599 -0.0419 0.5088
vn -0.5852 0.7445 -0.3212
vn -0.9276 0.1454 0.3440
vn -0.1359 0.9754 0.1737
vn -0.5330 0.7270 0.4328
vn -0.7828 0.0165 0.6220
vn -0.7833 -0.1884 0.5924
vn -0.7857 -0.2609 0.5609
vn -0.7897 -0.1441 0.5963
vn -0.3946 0.9148 0.0860
vn -0.4633 0.8678 0.1798
vn -0.2139 0.9644 0.1557
vn -0.1572 0.9754 0.1544
vn -0.1148 0.9829 0.1442
vn -0.1764 0.9701 0.1668
vn -0.4644 0.8259 0.3197
vn 0.7771 -0.2746 -0.5663
vn 0.6767 -0.2165 -0.7037
vn 0.6352 -0.2764 -0.7212
vn 0.7929 -0.3025 -0.5289
vn 0.6680 -0.2398 -0.7044
vn 0.6586 -0.2620 -0.7054
vn 0.7938 -0.3477 -0.4990
vn 0.0962 -0.9951 -0.0213
vn 0.1062 -0.9930 -0.0511
vn 0.0834 -0.9960 -0.0325
vn 0.0425 -0.9975 -0.0568
vn 0.0921 -0.9949 -0.0417
vn -0.2536 -0.9228 -0.2899
vn -0.2948 -0.8757 -0.3824
vn 0.0860 -0.9960 -0.0261
vn 0.0799 -0.9966 -0.0219
vn -0.4334 -0.7740 -0.4616
vn -0.7251 -0.2514 -0.6411
vn -0.7593 -0.1013 -0.6428
vn 0.0660 -0.9976 -0.0190
vn -0.4970 -0.7442 -0.4463
vn -0.7789 -0.0534 -0.6249
vn -0.7795 0.0178 -0.6261
vn -0.7809 0.0106 -0.6245
vn -0.8019 0.0185 -0.5971
vn -0.7603 -0.0577 -0.6470
vn -0.8327 -0.0493 -0.5515
vn -1.0000 -0.0052 -0.0070
vn -0.9923 -0.0920 0.0833
vn -0.8520 -0.1277 -0.5078
vn -0.9706 -0.2190 0.0995
vn -0.7386 -0.0038 -0.6741
vn -0.7372 -0.0899 -0.6697
vn -0.8722 -0.0356 -0.4879
vn -0.9851 -0.1274 0.1152
vn -0.8852 0.0342 -0.4639
vn -0.9935 -0.0201 0.1118
vn -0.7994 -0.1813 0.5727
vn -0.8136 -0.1002 0.5728
vn -0.6956 -0.0093 0.7184
vn -0.8283 0.0702 0.5558
vn -0.7125 -0.1069 0.6935
vn -0.9703 0.1944 0.1442
vn -0.7403 -0.1547 0.6542
vn -0.7172 -0.0570 0.6945
vn -0.7407 -0.0997 0.6644
vn -0.7098 -0.0055 0.7044
vn -0.6955 -0.0107 0.7184
vn -0.7145 -0.0366 0.6987
vn -0.7229 -0.0765 0.6867
vn -0.6938 0.1379 0.7069
vn -0.6708 0.1903 0.7168
vn -0.6578 0.2963 0.6925
vn -0.4530 0.7270 0.5160
vn -0.4156 0.7779 0.4714
vn -0.7504 0.4528 0.4815
vn -0.7986 0.5762 0.1738
vn -0.7627 0.6287 -0.1520
vn -0.9019 0.2331 -0.3637
vn -0.7016 0.6030 -0.3798
vn -0.7686 0.1825 -0.6132
vn -0.7436 0.0410 -0.6674
vn -0.7499 0.1104 -0.6523
vn -0.7367 0.0354 -0.6752
vn -0.7330 -0.0011 -0.6802
vn -0.7468 0.0207 -0.6648
vn -0.7435 -0.0099 -0.6687
vn -0.7543 -0.0012 -0.6565
vn -0.7384 -0.0505 -0.6725
vn -0.7780 0.0574 -0.6256
vn -0.7626 -0.0078 -0.6468
vn -0.7904 0.0102 -0.6125
vn -0.7888 0.1160 -0.6037
vn -0.8048 -0.0062 -0.5935
vn -0.7256 -0.3845 -0.5707
vn -0.8044 -0.0130 -0.5940
vn -0.7032 -0.4396 -0.5588
vn -0.2464 -0.9334 -0.2609
vn -0.6276 -0.4507 -0.6348
vn -0.1687 -0.9193 -0.3556
vn -0.5205 -0.4700 -0.7129
vn -0.3378 -0.1341 -0.9316
vn -0.1465 -0.4278 -0.8919
vn -0.7175 -0.0776 -0.6922
vn -0.7808 -0.0258 -0.6243
vn -0.7769 0.1539 -0.6105
vn -0.7946 0.1551 -0.5870
vn -0.7944 0.1442 -0.5900
vn -0.7716 0.2355 -0.5909
vn -0.7715 0.1723 -0.6125
vn -0.7646 0.0833 -0.6391
vn -0.7550 0.0407 -0.6545
vn -0.7469 -0.0007 -0.6649
vn -0.7453 0.0192 -0.6664
vn -0.7582 0.0919 -0.6455
vn -0.7431 0.0149 -0.6690
vn -0.7429 0.0147 -0.6692
vn -0.7429 0.0392 -0.6683
vn -0.7428 0.0370 -0.6684
vn -0.7541 0.0504 -0.6548
vn -0.7348 0.2575 -0.6275
vn -0.7365 0.3727 -0.5645
vn -0.7099 0.5068 -0.4891
vn -0.3945 0.9037 -0.1663
vn -0.3534 0.9320 -0.0806
vn -0.3355 0.9420 0.0016
vn -0.0894 0.9867 0.1361
vn -0.1133 0.9824 0.1484
vn -0.0765 0.9895 0.1223
vn -0.0769 0.9899 0.1187
vn -0.0876 0.9870 0.1348
vn -0.1011 0.9847 0.1418
vn -0.0877 0.9871 0.1343
vn -0.0948 0.9849 0.1449
vn -0.1024 0.9815 0.1619
vn -0.0998 0.9836 0.1504
vn -0.1110 0.9787 0.1730
vn -0.1435 0.9669 0.2111
vn -0.1519 0.9642 0.2174
vn -0.1212 0.9787 0.1660
vn -0.1560 0.9687 0.1930
vn -0.4893 0.6968 0.5245
vn -0.1373 0.9752 0.1737
vn 0.0774 0.9735 0.2151
vn -0.0722 0.9877 0.1387
vn -0.0034 0.8944 0.4474
vn 0.0885 0.9781 0.1882
vn -0.0209 0.9853 0.1694
vn -0.1048 0.9830 0.1510
vn 0.0072 0.9776 0.2105
vn -0.1014 0.9847 0.1417
vn -0.0952 0.9863 0.1349
vn -0.0905 0.9884 0.1217
vn -0.0878 0.9888 0.1207
vn -0.0816 0.9892 0.1220
vn -0.0766 0.9915 0.1053
vn -0.0750 0.9919 0.1027
vn -0.0677 0.9924 0.1030
vn -0.0666 0.9941 0.0856
vn -0.0630 0.9941 0.0880
vn -0.0626 0.9942 0.0876
vn -0.0671 0.9929 0.0983
vn -0.4748 0.8217 -0.3154
vn -0.4348 0.8629 -0.2578
vn -0.7379 0.2043 -0.6433
vn -0.4128 0.8178 -0.4009
vn -0.6989 0.2365 -0.6750
vn -0.7366 0.0489 -0.6745
vn -0.7211 0.0299 -0.6922
vn -0.4748 0.0379 -0.8793
vn -0.7396 0.1545 -0.6550
vn -0.7582 0.2900 -0.5840
vn 0.2316 0.0066 -0.9728
vn 0.6224 -0.0225 -0.7824
vn 0.6035 -0.0272 -0.7969
vn 0.6342 -0.0131 -0.7731
vn 0.6288 -0.0255 -0.7772
vn 0.6312 0.2135 -0.7456
vn 0.6393 -0.0110 -0.7689
vn 0.6273 0.1634 -0.7614
vn 0.6334 0.1833 -0.7518
vn 0.6575 0.2114 -0.7232
vn 0.6203 0.0205 -0.7841
vn 0.6795 -0.0125 -0.7336
vn 0.6832 -0.0728 -0.7266
vn 0.6655 -0.0396 -0.7454
vn 0.3453 -0.0818 -0.9349
vn 0.6284 0.1976 -0.7523
vn 0.6066 0.0770 -0.7913
vn 0.7722 0.1699 -0.6122
vn 0.8682 0.0344 -0.4950
vn 0.9899 0.0485 -0.1331
vn 0.9947 -0.1005 -0.0221
vn 0.8978 -0.4269 0.1085
vn 0.9871 -0.1597 0.0135
vn 0.8878 -0.4564 -0.0590
vn 0.5028 -0.8632 0.0468
vn 0.9103 -0.1822 -0.3716
vn 0.7833 -0.4234 -0.4552
vn 0.7361 -0.1958 -0.6480
vn 0.7213 -0.3677 -0.5870
vn 0.6278 -0.7453 -0.2244
vn 0.8262 -0.5582 -0.0762
vn 0.7124 -0.6472 0.2714
vn 0.4461 -0.8930 0.0596
vn 0.7152 -0.6258 0.3113
vn 0.4158 -0.9068 0.0697
vn 0.1552 -0.9856 -0.0668
vn 0.0853 -0.9941 -0.0669
vn 0.8117 -0.4424 0.3813
vn 0.7753 -0.4007 0.4883
vn 0.9040 -0.2488 0.3476
vn 0.7159 -0.5366 0.4466
vn 0.7983 -0.4459 0.4049
vn 0.7498 -0.4675 0.4683
vn 0.7414 -0.4652 0.4836
vn 0.7424 -0.3568 0.5671
vn 0.7676 -0.1858 0.6134
vn 0.7364 -0.2053 0.6446
vn 0.7542 -0.2586 0.6035
vn 0.7132 -0.2832 0.6412
vn 0.7618 -0.0436 0.6464
vn 0.7787 -0.1330 0.6132
vn 0.7786 -0.1585 0.6071
vn 0.7694 0.1058 0.6300
vn 0.6756 0.0981 0.7307
vn 0.6801 -0.1920 0.7075
vn 0.3958 -0.2259 0.8901
vn -0.2590 -0.1706 0.9507
vn -0.6163 -0.0513 0.7858
vn -0.5211 0.1820 0.8339
vn -0.6059 0.0306 0.7949
vn -0.5269 0.2654 0.8074
vn -0.3827 0.6634 0.6430
vn -0.2694 0.6366 0.7226
vn -0.0259 0.8603 0.5092
vn -0.6484 0.0194 0.7611
vn -0.5887 0.3792 0.7139
vn -0.2735 0.8755 0.3984
vn -0.1053 0.8377 0.5359
vn -0.0394 0.9902 0.1342
vn 0.0429 0.9779 0.2045
vn 0.0087 0.9946 0.1033
vn 0.0500 0.9884 0.1434
vn 0.0288 0.9948 0.0982
vn 0.0620 0.9881 0.1406
vn 0.1092 0.9678 0.2269
vn 0.0977 0.9845 0.1455
vn 0.1757 0.9583 0.2252
vn 0.0526 0.9794 0.1949
vn 0.2498 0.9456 0.2085
vn 0.1014 0.9802 0.1699
vn -0.0640 0.9923 0.1058
vn 0.1688 0.9533 0.2506
vn -0.0482 0.9935 0.1029
vn -0.0640 0.9940 0.0882
vn -0.0447 0.9947 0.0928
vn -0.0531 0.9955 0.0783
vn -0.0580 0.9955 0.0746
vn -0.0468 0.9960 0.0756
vn -0.0583 0.9969 0.0531
vn -0.0945 0.9951 -0.0302
vn -0.0630 0.9966 0.0537
vn -0.1297 0.9788 -0.1586
vn -0.0636 0.9980 -0.0002
vn 0.3364 0.7362 -0.5872
vn 0.3020 0.6542 -0.6934
vn 0.6443 -0.0130 -0.7647
vn 0.4231 0.7351 -0.5298
vn 0.4542 0.7341 -0.5049
vn 0.6567 -0.0134 -0.7541
vn 0.6573 -0.0034 -0.7536
vn 0.6652 -0.0204 -0.7464
vn 0.7076 0.0902 -0.7008
vn 0.6505 0.1307 -0.7481
vn 0.9930 0.0288 -0.1146
vn 0.9972 0.0237 0.0705
vn 0.9989 -0.0399 0.0230
vn 0.8575 -0.0046 -0.5145
vn 0.9160 -0.1132 -0.3848
vn 0.6902 -0.0749 -0.7197
vn 0.7367 -0.1943 -0.6477
vn 0.6477 -0.1005 -0.7552
vn 0.5995 -0.0118 -0.8003
vn 0.6392 -0.0733 -0.7655
vn 0.6918 -0.1223 -0.7117
vn 0.8425 -0.2130 -0.4948
vn 0.9342 -0.3492 -0.0730
vn 0.8796 -0.4748 -0.0296
vn 0.8449 -0.4355 0.3106
vn 0.7780 -0.5359 0.3280
vn 0.9048 -0.4258 -0.0065
vn 0.4123 0.6762 -0.6105
vn 0.0379 0.9981 0.0479
vn 0.1651 0.9774 0.1322
vn 0.0489 0.9952 0.0844
vn 0.1382 0.9795 0.1465
vn 0.0330 0.9947 0.0979
vn 0.0303 0.9946 0.0991
vn 0.3401 0.8923 0.2968
vn 0.0900 0.9839 0.1543
vn 0.5057 0.7201 0.4750
vn 0.0457 0.9755 0.2152
vn 0.4111 0.7117 0.5696
vn 0.0693 -0.9973 -0.0248
vn 0.0703 -0.9971 -0.0302
vn 0.0759 -0.9968 -0.0264
vn -0.1255 0.9660 0.2259
vn 0.0985 0.8857 0.4537
vn -0.1764 0.9410 0.2887
vn -0.4954 0.6385 0.5890
vn -0.9970 0.0638 -0.0446
vn -0.9777 -0.0238 0.2089
vn -0.8496 0.3444 0.3995
vn -0.8219 -0.1546 0.5483
vn -0.7727 0.1681 0.6121
vn -0.6918 -0.2195 0.6879
vn -0.6991 0.0382 0.7140
vn -0.7829 -0.4575 0.4217
vn -0.5928 -0.5856 0.5528
vn -0.4913 -0.8587 0.1458
vn -0.2335 -0.9553 0.1814
vn -0.2327 -0.9714 0.0481
vn -0.0563 -0.9886 0.1397
vn 0.1657 -0.9607 0.2226
vn 0.0069 -0.9512 0.3086
vn 0.3416 -0.8665 0.3641
vn 0.6482 -0.6473 0.4012
vn 0.5575 -0.7186 0.4156
vn 0.6457 -0.5916 0.4828
vn -0.2392 -0.9566 0.1667
vn -0.9646 -0.2588 0.0508
vn 0.5677 -0.6733 0.4736
vn 0.1913 -0.9787 0.0752
vn 0.3148 0.3177 0.8944
vn 0.0728 0.7713 0.6323
vn 0.0429 0.8601 0.5084
vn 0.1909 0.9556 0.2243
vn 0.2111 0.8415 -0.4973
vn 0.1510 0.8611 0.4855
vn 0.2374 0.9269 0.2906
vn 0.1844 0.9053 -0.3827
vn 0.2365 0.0542 -0.9701
f 1/1/1 2/2/2 3/3/3 4/4/4
f 5/5/5 4/6/4 3/7/3 6/8/6
f 7/9/7 6/10/6 3/3/3 2/2/2
f 8/11/8 9/12/9 10/13/10 11/14/11
f 12/15/12 11/14/11 10/13/10 13/16/13
f 14/17/14 13/16/13 10/13/10 9/12/9
f 12/15/12 15/18/15 16/19/16 11/14/11
f 17/20/17 18/21/18 16/19/16 15/18/15
f 8/11/8 11/14/11 16/19/16 18/21/18
f 19/22/19 20/23/20 21/24/21 22/25/22
f 23/26/23 24/27/24 21/24/21 20/23/20
f 25/28/25 22/25/22 21/24/21 24/27/24
f 26/29/26 27/30/27 28/31/28 29/32/29
f 30/33/30 29/32/29 28/31/28 31/34/31
f 32/35/32 31/34/31 28/31/28 27/30/27
f 33/36/33 34/37/34 35/38/35 36/39/36
f 37/40/37 38/41/38 35/42/35 34/43/34
f 39/44/39 36/45/36 35/42/35 38/41/38
f 40/46/40 32/35/32 27/30/27 26/29/26
f 41/47/41 36/45/36 39/44/39 42/48/42
f 43/49/43 42/48/42 39/44/39 38/41/38
f 41/47/41 44/50/44 45/51/45 46/52/46
f 40/46/40 46/53/46 45/54/45 47/55/47
f 48/56/48 49/57/49 45/54/45 44/58/44
f 50/59/50 51/60/51 49/57/49 52/61/52
f 53/62/53 54/63/54 49/64/49 48/65/48
f 55/66/55 52/61/52 49/57/49 54/67/54
f 52/61/52 55/66/55 56/68/56 57/69/57
f 58/70/58 57/69/57 56/68/56 59/71/59
f 60/72/60 59/71/59 56/68/56 61/73/61
f 62/74/62 55/75/55 54/76/54 63/77/63
f 53/62/53 48/65/48 64/78/64 65/79/65
f 44/50/44 66/80/66 64/78/64 48/65/48
f 67/81/67 68/82/68 64/78/64 66/80/66
f 69/83/69 70/84/70 64/78/64 68/82/68
f 71/85/71 72/86/72 8/11/8 18/21/18
f 73/87/73 9/12/9 8/11/8 74/88/74
f 75/89/75 74/88/74 8/11/8 72/86/72
f 76/90/76 77/91/77 78/92/78 79/93/79
f 80/94/80 79/93/79 78/92/78 81/95/81
f 82/96/82 83/97/83 78/92/78 77/91/77
f 84/98/84 81/95/81 78/92/78 85/99/85
f 86/100/86 65/79/65 87/101/87 88/102/88
f 89/103/89 90/104/90 91/105/91 92/106/92
f 93/107/93 92/106/92 91/105/91 94/108/94
f 95/109/95 94/108/94 91/105/91 96/110/96
f 97/111/97 96/110/96 91/105/91 98/112/98
f 99/113/99 98/112/98 91/105/91 90/104/90
f 100/114/100 88/102/88 87/101/87 70/84/70
f 101/115/101 102/116/102 103/117/103 104/118/104
f 105/119/105 106/120/106 103/117/103 102/116/102
f 107/121/107 104/118/104 103/117/103 108/122/108
f 82/96/82 109/123/109 103/117/103 106/120/106
f 110/124/110 111/125/111 89/103/89 92/106/92
f 112/126/112 90/104/90 89/103/89 111/125/111
f 65/79/65 86/100/86 113/127/113 53/62/53
f 114/128/114 115/129/115 113/130/113 86/131/86
f 116/132/116 117/133/117 113/130/113 118/134/118
f 119/135/119 118/134/118 113/130/113 115/129/115
f 120/136/120 121/137/121 122/138/122 123/139/123
f 124/140/124 125/141/125 122/138/122 121/137/121
f 126/142/126 127/143/127 122/144/122 128/145/128
f 129/146/129 128/147/128 122/138/122 125/141/125
f 100/148/100 123/149/123 122/144/122 127/143/127
f 130/150/130 131/151/131 132/152/132 133/153/133
f 134/154/134 135/155/135 132/152/132 131/151/131
f 136/156/136 133/153/133 132/152/132 135/155/135
f 116/132/116 118/134/118 137/157/137 138/158/138
f 119/135/119 139/159/139 137/157/137 118/134/118
f 140/160/140 138/158/138 137/157/137 139/159/139
f 141/161/141 142/162/142 143/163/143 144/164/144
f 145/165/145 144/164/144 143/163/143 146/166/146
f 147/167/147 148/168/148 143/163/143 142/162/142
f 149/169/149 146/166/146 143/163/143 148/168/148
f 150/170/150 151/171/151 152/172/152 153/173/153
f 154/174/154 155/175/155 152/172/152 151/171/151
f 156/176/156 153/173/153 152/172/152 155/175/155
f 157/177/157 158/178/158 159/179/159 160/180/160
f 161/181/161 160/180/160 159/179/159 162/182/162
f 163/183/163 162/182/162 159/179/159 158/178/158
f 164/184/164 126/142/126 128/145/128 165/185/165
f 166/186/166 165/185/165 128/145/128 167/187/167
f 168/188/168 167/189/167 128/147/128 129/146/129
f 169/190/169 170/191/170 171/192/171 172/193/172
f 173/194/173 174/195/174 171/192/171 170/191/170
f 175/196/175 172/193/172 171/192/171 174/195/174
f 139/159/139 176/197/176 177/198/177 140/160/140
f 178/199/178 140/160/140 177/198/177 179/200/179
f 180/201/180 179/200/179 177/198/177 181/202/181
f 182/203/182 181/202/181 177/198/177 183/204/183
f 184/205/184 183/204/183 177/198/177 176/197/176
f 185/206/185 186/207/186 187/208/187 188/209/188
f 189/210/189 190/211/190 187/208/187 186/207/186
f 191/212/191 188/209/188 187/208/187 190/211/190
f 192/213/192 193/214/193 184/205/184 194/215/194
f 195/216/195 196/217/196 184/205/184 193/214/193
f 196/217/196 182/203/182 183/204/183 184/205/184
f 197/218/197 198/219/198 199/220/199 200/221/200
f 201/222/201 202/223/202 199/220/199 198/219/198
f 203/224/203 200/221/200 199/220/199 202/223/202
f 204/225/204 195/216/195 193/214/193 192/213/192
f 205/226/205 206/227/206 196/217/196 195/216/195
f 207/228/207 208/229/208 196/217/196 209/230/209
f 210/231/210 209/230/209 196/217/196 206/227/206
f 211/232/211 182/203/182 196/217/196 208/229/208
f 212/233/212 211/232/211 208/229/208 207/228/207
f 213/234/213 214/235/214 215/236/215 216/237/216
f 217/238/217 216/237/216 215/236/215 218/239/218
f 219/240/219 218/239/218 215/236/215 214/235/214
f 2/2/2 1/1/1 220/241/220 221/242/221
f 222/243/222 223/244/223 220/241/220 1/1/1
f 224/245/224 221/242/221 220/241/220 223/244/223
f 225/246/225 226/247/226 204/248/204 227/249/227
f 205/226/205 195/216/195 204/225/204 226/250/226
f 228/251/228 229/252/229 204/225/204 192/213/192
f 230/253/230 227/249/227 204/248/204 229/254/229
f 231/255/231 232/256/232 233/257/233 234/258/234
f 235/259/235 234/258/234 233/257/233 236/260/236
f 237/261/237 238/262/238 233/257/233 232/256/232
f 239/263/239 236/260/236 233/257/233 238/262/238
f 240/264/240 241/265/241 242/266/242 243/267/243
f 244/268/244 243/267/243 242/266/242 245/269/245
f 246/270/246 245/269/245 242/266/242 241/265/241
f 247/271/247 248/272/248 230/253/230 229/254/229
f 249/273/249 227/249/227 230/253/230 248/272/248
f 250/274/250 251/275/251 252/276/252 253/277/253
f 254/278/254 253/277/253 252/276/252 255/279/255
f 239/263/239 256/280/256 252/281/252 236/260/236
f 257/282/257 255/283/255 252/281/252 256/280/256
f 258/284/258 259/285/259 260/286/260 261/287/261
f 262/288/262 263/289/263 260/286/260 259/285/259
f 243/267/243 261/287/261 260/286/260 240/264/240
f 264/290/264 240/264/240 260/286/260 265/291/265
f 266/292/266 265/291/265 260/286/260 263/289/263
f 255/283/255 257/282/257 248/272/248 247/271/247
f 267/293/267 249/273/249 248/272/248 268/294/268
f 269/295/269 270/296/270 271/297/271 272/298/272
f 273/299/273 274/300/274 271/297/271 270/296/270
f 275/301/275 272/298/272 271/297/271 274/300/274
f 266/292/266 276/302/276 277/303/277 265/291/265
f 278/304/278 279/305/279 277/303/277 276/302/276
f 280/306/280 281/307/281 277/308/277 279/309/279
f 282/310/282 283/311/283 277/308/277 281/307/281
f 264/290/264 265/291/265 277/303/277 283/312/283
f 284/313/284 285/314/285 286/315/286 287/316/287
f 288/317/288 287/316/287 286/315/286 289/318/289
f 290/319/290 289/318/289 286/315/286 285/314/285
f 181/202/181 182/203/182 211/232/211 212/233/212
f 291/320/291 292/321/292 293/322/293 294/323/294
f 295/324/295 296/325/296 293/322/293 292/321/292
f 297/326/297 294/323/294 293/322/293 296/325/296
f 298/327/298 106/120/106 105/119/105 299/328/299
f 178/199/178 300/329/300 105/330/105 301/331/301
f 302/332/302 299/333/299 105/330/105 300/329/300
f 303/334/303 299/328/299 302/335/302 304/336/304
f 305/337/305 306/338/306 302/332/302 300/329/300
f 307/339/307 304/340/304 302/332/302 306/338/306
f 308/341/308 304/340/304 307/339/307 309/342/309
f 310/343/310 311/344/311 307/339/307 306/338/306
f 312/345/312 309/342/309 307/339/307 311/344/311
f 313/346/313 309/342/309 312/345/312 314/347/314
f 245/269/245 246/270/246 312/345/312 311/344/311
f 315/348/315 314/347/314 312/345/312 246/270/246
f 316/349/316 314/347/314 315/348/315 317/350/317
f 241/265/241 318/351/318 315/348/315 246/270/246
f 319/352/319 317/350/317 315/348/315 318/351/318
f 320/353/320 317/354/317 319/355/319 321/356/321
f 264/290/264 283/312/283 319/352/319 318/351/318
f 282/310/282 321/356/321 319/355/319 283/311/283
f 322/357/322 323/358/323 320/353/320 324/359/324
f 316/360/316 317/354/317 320/353/320 323/358/323
f 325/361/325 324/359/324 320/353/320 321/356/321
f 326/362/326 324/359/324 325/361/325 327/363/327
f 282/310/282 328/364/328 325/361/325 321/356/321
f 329/365/329 327/363/327 325/361/325 328/364/328
f 330/366/330 331/367/331 329/365/329 332/368/332
f 333/369/333 327/363/327 329/365/329 331/367/331
f 334/370/334 332/368/332 329/365/329 328/364/328
f 335/371/335 332/368/332 334/370/334 336/372/336
f 282/310/282 281/307/281 334/370/334 328/364/328
f 280/306/280 336/372/336 334/370/334 281/307/281
f 337/373/337 338/374/338 335/371/335 339/375/339
f 330/366/330 332/368/332 335/371/335 338/374/338
f 340/376/340 339/375/339 335/371/335 336/372/336
f 256/280/256 339/375/339 340/376/340 257/282/257
f 280/306/280 268/294/268 340/376/340 336/372/336
f 248/272/248 257/282/257 340/376/340 268/294/268
f 341/377/341 342/378/342 338/374/338 337/373/337
f 343/379/343 330/366/330 338/374/338 342/378/342
f 344/380/344 345/381/345 343/379/343 342/378/342
f 290/319/290 346/382/346 343/379/343 345/381/345
f 331/367/331 330/366/330 343/379/343 346/382/346
f 285/314/285 347/383/347 346/382/346 290/319/290
f 333/369/333 331/367/331 346/382/346 347/383/347
f 284/313/284 348/384/348 347/383/347 285/314/285
f 349/385/349 333/369/333 347/383/347 348/384/348
f 350/386/350 351/387/351 349/385/349 348/384/348
f 352/388/352 326/362/326 349/385/349 351/387/351
f 327/363/327 333/369/333 349/385/349 326/362/326
f 353/389/353 354/390/354 352/388/352 351/387/351
f 355/391/355 322/357/322 352/388/352 354/390/354
f 324/359/324 326/362/326 352/388/352 322/357/322
f 356/392/356 357/393/357 355/391/355 354/390/354
f 358/394/358 359/395/359 355/391/355 357/393/357
f 323/358/323 322/357/322 355/391/355 359/395/359
f 360/396/360 361/397/361 359/395/359 358/394/358
f 316/360/316 323/358/323 359/395/359 361/397/361
f 362/398/362 313/346/313 361/399/361 360/400/360
f 314/347/314 316/349/316 361/399/361 313/346/313
f 363/401/363 364/402/364 362/403/362 360/404/360
f 365/405/365 308/406/308 362/403/362 364/402/364
f 309/342/309 313/346/313 362/398/362 308/341/308
f 366/407/366 367/408/367 365/405/365 364/402/364
f 368/409/368 303/334/303 365/405/365 367/408/367
f 304/336/304 308/406/308 365/405/365 303/334/303
f 369/410/369 370/411/370 368/409/368 367/408/367
f 83/97/83 298/327/298 368/409/368 370/411/370
f 299/328/299 303/334/303 368/409/368 298/327/298
f 371/412/371 85/99/85 370/411/370 369/410/369
f 78/92/78 83/97/83 370/411/370 85/99/85
f 372/413/372 373/414/373 371/412/371 374/415/374
f 84/98/84 85/99/85 371/412/371 373/414/373
f 375/416/375 374/415/374 371/412/371 369/410/369
f 376/417/376 374/415/374 375/416/375 377/418/377
f 367/408/367 366/407/366 375/416/375 369/410/369
f 378/419/378 377/418/377 375/416/375 366/407/366
f 379/420/379 377/418/377 378/419/378 380/421/380
f 364/402/364 363/401/363 378/419/378 366/407/366
f 381/422/381 380/421/380 378/419/378 363/401/363
f 382/423/382 380/424/380 381/425/381 383/426/383
f 360/396/360 358/394/358 381/425/381 363/427/363
f 357/393/357 383/426/383 381/425/381 358/394/358
f 384/428/384 385/429/385 382/423/382 386/430/386
f 379/431/379 380/424/380 382/423/382 385/429/385
f 387/432/387 386/430/386 382/423/382 383/426/383
f 388/433/388 386/430/386 387/432/387 389/434/389
f 357/393/357 356/392/356 387/432/387 383/426/383
f 390/435/390 389/434/389 387/432/387 356/392/356
f 391/436/391 389/434/389 390/435/390 392/437/392
f 354/390/354 353/389/353 390/435/390 356/392/356
f 393/438/393 392/437/392 390/435/390 353/389/353
f 394/439/394 392/437/392 393/438/393 395/440/395
f 351/387/351 350/386/350 393/438/393 353/389/353
f 396/441/396 395/440/395 393/438/393 350/386/350
f 397/442/397 395/440/395 396/441/396 398/443/398
f 348/384/348 284/313/284 396/441/396 350/386/350
f 287/316/287 398/443/398 396/441/396 284/313/284
f 399/444/399 400/445/400 397/442/397 401/446/401
f 394/439/394 395/440/395 397/442/397 400/445/400
f 402/447/402 401/446/401 397/442/397 398/443/398
f 403/448/403 401/446/401 402/447/402 404/449/404
f 287/316/287 288/317/288 402/447/402 398/443/398
f 405/450/405 404/449/404 402/447/402 288/317/288
f 406/451/406 404/449/404 405/450/405 407/452/407
f 289/318/289 408/453/408 405/450/405 288/317/288
f 409/454/409 407/452/407 405/450/405 408/453/408
f 410/455/410 407/452/407 409/454/409 411/456/411
f 345/381/345 344/380/344 409/454/409 408/453/408
f 412/457/412 411/456/411 409/454/409 344/380/344
f 413/458/413 411/456/411 412/457/412 237/261/237
f 342/378/342 341/377/341 412/457/412 344/380/344
f 238/262/238 237/261/237 412/457/412 341/377/341
f 414/459/414 415/460/415 413/458/413 416/461/416
f 410/455/410 411/456/411 413/458/413 415/460/415
f 232/256/232 416/461/416 413/458/413 237/261/237
f 417/462/417 418/463/418 415/460/415 414/459/414
f 419/464/419 410/455/410 415/460/415 418/463/418
f 420/465/420 421/466/421 419/464/419 418/463/418
f 422/467/422 406/451/406 419/464/419 421/466/421
f 407/452/407 410/455/410 419/464/419 406/451/406
f 423/468/423 424/469/424 422/467/422 421/466/421
f 425/470/425 403/448/403 422/467/422 424/469/424
f 404/449/404 406/451/406 422/467/422 403/448/403
f 426/471/426 427/472/427 425/470/425 424/469/424
f 428/473/428 399/444/399 425/470/425 427/472/427
f 401/446/401 403/448/403 425/470/425 399/444/399
f 429/474/429 430/475/430 428/473/428 427/472/427
f 431/476/431 432/477/432 428/473/428 430/475/430
f 400/445/400 399/444/399 428/473/428 432/477/432
f 433/478/433 434/479/434 432/477/432 431/476/431
f 394/439/394 400/445/400 432/477/432 434/479/434
f 435/480/435 391/436/391 434/479/434 433/478/433
f 392/437/392 394/439/394 434/479/434 391/436/391
f 436/481/436 437/482/437 435/480/435 433/478/433
f 438/483/438 388/433/388 435/480/435 437/482/437
f 389/434/389 391/436/391 435/480/435 388/433/388
f 190/211/190 189/210/189 438/483/438 437/482/437
f 439/484/439 384/428/384 438/483/438 189/210/189
f 386/430/386 388/433/388 438/483/438 384/428/384
f 186/207/186 440/485/440 439/484/439 189/210/189
f 147/486/147 441/487/441 439/484/439 440/485/440
f 385/429/385 384/428/384 439/484/439 441/487/441
f 142/162/142 442/488/442 441/489/441 147/167/147
f 379/431/379 385/429/385 441/487/441 442/490/442
f 141/161/141 376/417/376 442/488/442 142/162/142
f 377/418/377 379/420/379 442/488/442 376/417/376
f 185/206/185 443/491/443 440/485/440 186/207/186
f 148/492/148 147/486/147 440/485/440 443/491/443
f 444/493/444 445/494/445 443/491/443 185/206/185
f 149/495/149 148/492/148 443/491/443 445/494/445
f 446/496/446 447/497/447 445/494/445 444/493/444
f 448/498/448 149/495/149 445/494/445 447/497/447
f 449/499/449 450/500/450 448/498/448 447/497/447
f 451/501/451 452/502/452 448/503/448 450/504/450
f 146/166/146 149/169/149 448/503/448 452/502/452
f 453/505/453 454/506/454 452/502/452 451/501/451
f 145/165/145 146/166/146 452/502/452 454/506/454
f 25/28/25 455/507/455 454/506/454 453/505/453
f 456/508/456 145/165/145 454/506/454 455/507/455
f 76/90/76 79/93/79 456/508/456 455/507/455
f 80/94/80 457/509/457 456/508/456 79/93/79
f 144/164/144 145/165/145 456/508/456 457/509/457
f 373/414/373 372/413/372 457/509/457 80/94/80
f 141/161/141 144/164/144 457/509/457 372/413/372
f 24/27/24 76/90/76 455/507/455 25/28/25
f 458/510/458 459/511/459 453/505/453 451/501/451
f 22/25/22 25/28/25 453/505/453 459/511/459
f 460/512/460 461/513/461 459/511/459 458/510/458
f 19/22/19 22/25/22 459/511/459 461/513/461
f 462/514/462 463/515/463 461/513/461 460/512/460
f 464/516/464 19/22/19 461/513/461 463/515/463
f 465/517/465 466/518/466 464/516/464 463/515/463
f 108/122/108 467/519/467 464/516/464 466/518/466
f 20/23/20 19/22/19 464/516/464 467/519/467
f 103/117/103 109/123/109 467/519/467 108/122/108
f 23/26/23 20/23/20 467/519/467 109/123/109
f 468/520/468 469/521/469 466/518/466 465/517/465
f 107/121/107 108/122/108 466/518/466 469/521/469
f 470/522/470 471/523/471 469/521/469 468/520/468
f 472/524/472 107/121/107 469/521/469 471/523/471
f 291/320/291 473/525/473 472/524/472 471/523/471
f 474/526/474 475/527/475 472/524/472 473/525/473
f 104/118/104 107/121/107 472/524/472 475/527/475
f 476/528/476 477/529/477 475/527/475 474/526/474
f 101/115/101 104/118/104 475/527/475 477/529/477
f 62/74/62 63/77/63 477/529/477 476/528/476
f 478/530/478 101/115/101 477/529/477 63/77/63
f 54/63/54 117/531/117 478/532/478 63/533/63
f 116/132/116 479/534/479 478/535/478 117/133/117
f 102/116/102 101/115/101 478/530/478 479/536/479
f 138/158/138 301/331/301 479/534/479 116/132/116
f 105/119/105 102/116/102 479/536/479 301/537/301
f 480/538/480 481/539/481 476/528/476 474/526/474
f 482/540/482 62/74/62 476/528/476 481/539/481
f 483/541/483 484/542/484 482/540/482 481/539/481
f 61/543/61 56/544/56 482/540/482 484/542/484
f 55/75/55 62/74/62 482/540/482 56/544/56
f 485/545/485 486/546/486 484/542/484 483/541/483
f 487/547/487 61/548/61 484/549/484 486/550/486
f 488/551/488 489/552/489 487/547/487 486/550/486
f 490/553/490 491/554/491 487/547/487 489/552/489
f 60/555/60 61/548/61 487/547/487 491/554/491
f 124/140/124 121/137/121 491/554/491 490/553/490
f 120/136/120 60/555/60 491/554/491 121/137/121
f 492/556/492 493/557/493 490/553/490 489/552/489
f 494/558/494 124/140/124 490/553/490 493/557/493
f 130/150/130 495/559/495 494/558/494 493/557/493
f 496/560/496 497/561/497 494/558/494 495/559/495
f 125/141/125 124/140/124 494/558/494 497/561/497
f 161/181/161 498/562/498 497/561/497 496/560/496
f 129/146/129 125/141/125 497/561/497 498/562/498
f 162/182/162 499/563/499 498/562/498 161/181/161
f 168/188/168 129/146/129 498/562/498 499/563/499
f 163/183/163 500/564/500 499/563/499 162/182/162
f 501/565/501 168/188/168 499/563/499 500/564/500
f 502/566/502 503/567/503 501/565/501 500/564/500
f 504/568/504 505/569/505 501/565/501 503/567/503
f 167/189/167 168/188/168 501/565/501 505/569/505
f 197/218/197 506/570/506 505/571/505 504/572/504
f 166/186/166 167/187/167 505/571/505 506/570/506
f 200/221/200 175/196/175 506/570/506 197/218/197
f 174/195/174 166/186/166 506/570/506 175/196/175
f 251/275/251 250/274/250 504/572/504 503/573/503
f 198/219/198 197/218/197 504/572/504 250/274/250
f 235/259/235 251/574/251 503/567/503 502/566/502
f 163/183/163 507/575/507 502/566/502 500/564/500
f 234/258/234 235/259/235 502/566/502 507/575/507
f 158/178/158 508/576/508 507/575/507 163/183/163
f 231/255/231 234/258/234 507/575/507 508/576/508
f 157/177/157 509/577/509 508/576/508 158/178/158
f 510/578/510 231/255/231 508/576/508 509/577/509
f 511/579/511 512/580/512 510/578/510 509/577/509
f 414/459/414 416/461/416 510/578/510 512/580/512
f 232/256/232 231/255/231 510/578/510 416/461/416
f 513/581/513 514/582/514 512/580/512 511/579/511
f 417/462/417 414/459/414 512/580/512 514/582/514
f 515/583/515 516/584/516 514/582/514 513/581/513
f 517/585/517 417/462/417 514/582/514 516/584/516
f 518/586/518 519/587/519 517/585/517 516/584/516
f 520/588/520 420/465/420 517/585/517 519/587/519
f 418/463/418 417/462/417 517/585/517 420/465/420
f 521/589/521 522/590/522 520/588/520 519/587/519
f 523/591/523 423/468/423 520/588/520 522/590/522
f 421/466/421 420/465/420 520/588/520 423/468/423
f 524/592/524 525/593/525 523/591/523 522/590/522
f 526/594/526 426/471/426 523/591/523 525/593/525
f 424/469/424 423/468/423 523/591/523 426/471/426
f 527/595/527 528/596/528 526/594/526 525/593/525
f 529/597/529 429/474/429 526/594/526 528/596/528
f 427/472/427 426/471/426 526/594/526 429/474/429
f 530/598/530 531/599/531 529/597/529 528/596/528
f 532/600/532 533/601/533 529/597/529 531/599/531
f 430/475/430 429/474/429 529/597/529 533/601/533
f 534/602/534 535/603/535 533/601/533 532/600/532
f 431/476/431 430/475/430 533/601/533 535/603/535
f 191/212/191 436/481/436 535/603/535 534/602/534
f 433/478/433 431/476/431 535/603/535 436/481/436
f 536/604/536 537/605/537 534/602/534 532/600/532
f 188/209/188 191/212/191 534/602/534 537/605/537
f 446/496/446 444/493/444 537/605/537 536/604/536
f 185/206/185 188/209/188 537/605/537 444/493/444
f 538/606/538 446/496/446 536/604/536 539/607/539
f 531/599/531 539/607/539 536/604/536 532/600/532
f 540/608/540 541/609/541 538/606/538 539/607/539
f 542/610/542 449/499/449 538/606/538 541/609/541
f 447/497/447 446/496/446 538/606/538 449/499/449
f 110/124/110 543/611/543 542/610/542 541/609/541
f 544/612/544 545/613/545 542/610/542 543/611/543
f 450/500/450 449/499/449 542/610/542 545/613/545
f 460/512/460 458/510/458 545/614/545 544/615/544
f 451/501/451 450/504/450 545/614/545 458/510/458
f 93/107/93 546/616/546 544/612/544 543/611/543
f 462/514/462 460/512/460 544/615/544 546/617/546
f 94/108/94 547/618/547 546/616/546 93/107/93
f 548/619/548 462/514/462 546/617/546 547/620/547
f 549/621/549 550/622/550 548/623/548 547/618/547
f 468/520/468 465/517/465 548/619/548 550/624/550
f 463/515/463 462/514/462 548/619/548 465/517/465
f 551/625/551 552/626/552 550/622/550 549/621/549
f 470/522/470 468/520/468 550/624/550 552/627/552
f 553/628/553 295/629/295 552/626/552 551/625/551
f 292/321/292 470/522/470 552/627/552 295/324/295
f 554/630/554 555/631/555 553/628/553 551/625/551
f 17/20/17 556/632/556 553/628/553 555/631/555
f 296/633/296 295/629/295 553/628/553 556/632/556
f 15/18/15 557/634/557 556/632/556 17/20/17
f 297/635/297 296/633/296 556/632/556 557/634/557
f 12/15/12 558/636/558 557/634/557 15/18/15
f 559/637/559 297/326/297 557/638/557 558/639/558
f 560/640/560 561/641/561 559/637/559 558/639/558
f 480/538/480 562/642/562 559/637/559 561/641/561
f 294/323/294 297/326/297 559/637/559 562/642/562
f 474/526/474 473/525/473 562/642/562 480/538/480
f 291/320/291 294/323/294 562/642/562 473/525/473
f 485/545/485 483/541/483 561/641/561 560/640/560
f 481/539/481 480/538/480 561/641/561 483/541/483
f 12/15/12 13/16/13 560/643/560 558/636/558
f 14/17/14 485/644/485 560/643/560 13/16/13
f 563/645/563 71/85/71 555/631/555 554/630/554
f 18/21/18 17/20/17 555/631/555 71/85/71
f 97/111/97 564/646/564 563/645/563 96/110/96
f 72/86/72 71/85/71 563/645/563 564/646/564
f 95/109/95 96/110/96 563/645/563 554/630/554
f 565/647/565 566/648/566 564/646/564 97/111/97
f 75/89/75 72/86/72 564/646/564 566/648/566
f 567/649/567 568/650/568 566/648/566 565/647/565
f 134/154/134 75/89/75 566/648/566 568/650/568
f 518/586/518 569/651/569 568/650/568 567/649/567
f 135/155/135 134/154/134 568/650/568 569/651/569
f 516/584/516 515/583/515 569/651/569 518/586/518
f 136/156/136 135/155/135 569/651/569 515/583/515
f 570/652/570 521/589/521 567/649/567 565/647/565
f 519/587/519 518/586/518 567/649/567 521/589/521
f 97/111/97 98/112/98 570/652/570 565/647/565
f 99/113/99 524/592/524 570/652/570 98/112/98
f 522/590/522 521/589/521 570/652/570 524/592/524
f 549/621/549 95/109/95 554/630/554 551/625/551
f 94/108/94 95/109/95 549/621/549 547/618/547
f 92/106/92 93/107/93 543/611/543 110/124/110
f 111/125/111 110/124/110 541/609/541 540/608/540
f 112/126/112 111/125/111 540/608/540 530/598/530
f 531/599/531 530/598/530 540/608/540 539/607/539
f 527/595/527 112/126/112 530/598/530 528/596/528
f 90/104/90 112/126/112 527/595/527 99/113/99
f 524/592/524 99/113/99 527/595/527 525/593/525
f 571/653/571 136/156/136 515/583/515 513/581/513
f 133/153/133 136/156/136 571/653/571 572/654/572
f 511/579/511 573/655/573 571/653/571 513/581/513
f 574/656/574 572/654/572 571/653/571 573/655/573
f 157/177/157 160/180/160 574/656/574 573/655/573
f 161/181/161 496/560/496 574/656/574 160/180/160
f 495/559/495 572/654/572 574/656/574 496/560/496
f 509/577/509 157/177/157 573/655/573 511/579/511
f 130/150/130 133/153/133 572/654/572 495/559/495
f 131/151/131 130/150/130 493/557/493 492/556/492
f 74/88/74 131/151/131 492/556/492 73/87/73
f 488/551/488 73/87/73 492/556/492 489/552/489
f 9/12/9 73/87/73 488/551/488 14/17/14
f 485/644/485 14/17/14 488/551/488 486/550/486
f 292/321/292 291/320/291 471/523/471 470/522/470
f 191/212/191 190/211/190 437/482/437 436/481/436
f 290/319/290 345/381/345 408/453/408 289/318/289
f 372/413/372 374/415/374 376/417/376 141/161/141
f 81/95/81 84/98/84 373/414/373 80/94/80
f 239/263/239 238/262/238 341/377/341 337/373/337
f 256/280/256 239/263/239 337/373/337 339/375/339
f 240/264/240 264/290/264 318/351/318 241/265/241
f 244/268/244 245/269/245 311/344/311 310/343/310
f 305/337/305 575/657/575 310/343/310 306/338/306
f 576/658/576 244/268/244 310/343/310 575/657/575
f 180/201/180 577/659/577 576/658/576 575/657/575
f 258/284/258 261/287/261 576/658/576 577/659/577
f 243/267/243 244/268/244 576/658/576 261/287/261
f 181/202/181 212/233/212 577/659/577 180/201/180
f 207/228/207 258/284/258 577/659/577 212/233/212
f 179/200/179 180/201/180 575/657/575 305/337/305
f 178/199/178 179/200/179 305/337/305 300/329/300
f 140/160/140 178/199/178 301/331/301 138/158/138
f 82/96/82 106/120/106 298/327/298 83/97/83
f 267/293/267 268/294/268 280/306/280 279/309/279
f 578/660/578 267/293/267 279/309/279 278/661/278
f 249/273/249 267/293/267 578/660/578 579/662/579
f 269/663/269 580/664/580 578/660/578 278/661/278
f 224/245/224 579/662/579 578/660/578 580/664/580
f 272/665/272 581/666/581 580/664/580 269/663/269
f 221/242/221 224/245/224 580/664/580 581/666/581
f 275/301/275 7/667/7 581/668/581 272/298/272
f 2/2/2 221/242/221 581/666/581 7/9/7
f 227/249/227 249/273/249 579/662/579 225/246/225
f 223/244/223 225/246/225 579/662/579 224/245/224
f 270/296/270 269/295/269 278/304/278 276/302/276
f 273/299/273 270/296/270 276/302/276 266/292/266
f 214/235/214 213/234/213 275/301/275 274/300/274
f 6/8/6 7/667/7 275/301/275 213/234/213
f 219/240/219 214/235/214 274/300/274 273/299/273
f 263/289/263 219/240/219 273/299/273 266/292/266
f 218/239/218 219/240/219 263/289/263 262/288/262
f 217/238/217 218/239/218 262/288/262 210/231/210
f 209/230/209 210/231/210 262/288/262 259/285/259
f 207/228/207 209/230/209 259/285/259 258/284/258
f 247/271/247 582/669/582 254/670/254 255/283/255
f 583/671/583 584/672/584 254/278/254 582/673/582
f 201/222/201 253/277/253 254/278/254 584/672/584
f 585/674/585 586/675/586 584/672/584 583/671/583
f 202/223/202 201/222/201 584/672/584 586/675/586
f 587/676/587 588/677/588 586/675/586 585/674/585
f 203/224/203 202/223/202 586/675/586 588/677/588
f 154/174/154 169/190/169 588/677/588 587/676/587
f 172/193/172 203/224/203 588/677/588 169/190/169
f 589/678/589 590/679/590 587/676/587 585/674/585
f 155/175/155 154/174/154 587/676/587 590/679/590
f 591/680/591 592/681/592 590/679/590 589/678/589
f 156/176/156 155/175/155 590/679/590 592/681/592
f 593/682/593 594/683/594 592/681/592 591/680/591
f 595/684/595 156/176/156 592/681/592 594/683/594
f 596/685/596 597/686/597 595/684/595 594/683/594
f 598/687/598 599/688/599 595/684/595 597/686/597
f 153/173/153 156/176/156 595/684/595 599/688/599
f 126/142/126 164/184/164 599/688/599 598/687/598
f 150/170/150 153/173/153 599/688/599 164/184/164
f 114/128/114 600/689/600 598/687/598 597/686/597
f 127/143/127 126/142/126 598/687/598 600/689/600
f 86/131/86 88/690/88 600/689/600 114/128/114
f 100/148/100 127/143/127 600/689/600 88/690/88
f 115/129/115 114/128/114 597/686/597 596/685/596
f 119/135/119 115/129/115 596/685/596 601/691/601
f 593/682/593 601/691/601 596/685/596 594/683/594
f 139/159/139 119/135/119 601/691/601 176/197/176
f 184/205/184 176/197/176 601/691/601 593/682/593
f 194/215/194 184/205/184 593/682/593 591/680/591
f 602/692/602 194/215/194 591/680/591 589/678/589
f 192/213/192 194/215/194 602/692/602 228/251/228
f 585/674/585 583/671/583 602/692/602 589/678/589
f 582/673/582 228/251/228 602/692/602 583/671/583
f 229/252/229 228/251/228 582/673/582 247/693/247
f 235/259/235 236/260/236 252/281/252 251/574/251
f 201/222/201 198/219/198 250/274/250 253/277/253
f 223/244/223 222/243/222 226/247/226 225/246/225
f 603/694/603 205/226/205 226/250/226 222/695/222
f 1/1/1 4/4/4 603/696/603 222/243/222
f 5/5/5 604/697/604 603/694/603 4/6/4
f 206/227/206 205/226/205 603/694/603 604/697/604
f 216/237/216 217/238/217 604/697/604 5/5/5
f 210/231/210 206/227/206 604/697/604 217/238/217
f 5/5/5 6/8/6 213/234/213 216/237/216
f 175/196/175 200/221/200 203/224/203 172/193/172
f 165/185/165 166/186/166 174/195/174 173/194/173
f 164/184/164 165/185/165 173/194/173 150/170/150
f 151/171/151 150/170/150 173/194/173 170/191/170
f 154/174/154 151/171/151 170/191/170 169/190/169
f 74/88/74 75/89/75 134/154/134 131/151/131
f 69/83/69 605/698/605 120/699/120 123/700/123
f 59/701/59 60/702/60 120/699/120 605/698/605
f 68/82/68 606/703/606 605/698/605 69/83/69
f 58/70/58 59/71/59 605/704/605 606/705/606
f 67/81/67 607/706/607 606/703/606 68/82/68
f 608/707/608 58/708/58 606/703/606 607/706/607
f 57/69/57 58/70/58 608/709/608 609/710/609
f 610/711/610 611/712/611 608/707/608 607/706/607
f 612/713/612 609/710/609 608/709/608 611/714/611
f 50/59/50 609/710/609 612/713/612 613/715/613
f 30/33/30 31/34/31 612/713/612 611/714/611
f 32/35/32 613/715/613 612/713/612 31/34/31
f 51/60/51 50/59/50 613/715/613 47/55/47
f 40/46/40 47/55/47 613/715/613 32/35/32
f 37/40/37 30/716/30 611/712/611 610/711/610
f 67/81/67 43/49/43 610/711/610 607/706/607
f 38/41/38 37/40/37 610/711/610 43/49/43
f 52/61/52 57/69/57 609/710/609 50/59/50
f 70/84/70 69/83/69 123/700/123 100/114/100
f 53/62/53 113/127/113 117/531/117 54/63/54
f 77/91/77 23/26/23 109/123/109 82/96/82
f 24/27/24 23/26/23 77/91/77 76/90/76
f 42/48/42 43/49/43 67/81/67 66/80/66
f 41/47/41 42/48/42 66/80/66 44/50/44
f 26/29/26 33/36/33 46/53/46 40/46/40
f 36/39/36 41/717/41 46/53/46 33/36/33
f 29/32/29 30/33/30 37/718/37 34/37/34
f 26/29/26 29/32/29 34/37/34 33/36/33
f 51/60/51 47/55/47 45/54/45 49/57/49
f 87/101/87 65/79/65 64/78/64 70/84/70
