# split from a merged terrain OBJ by scripts/split-terrain-obj-parts.py
o part-078
v 0.733541 1.178360 -0.127496
v 0.734807 1.171710 -0.131210
v 0.738341 1.174781 -0.134692
v 0.738638 1.180246 -0.133258
v 0.732416 1.168311 -0.138822
v 0.737423 1.173211 -0.141298
v 0.740015 1.178596 -0.142488
v 0.735872 1.181826 -0.142421
v 0.733312 1.182126 -0.137295
v 0.734806 1.175930 -0.149736
v 0.733079 1.181484 -0.148054
v 0.728817 1.182172 -0.142970
v 0.722211 1.181669 -0.129101
v 0.716563 1.176540 -0.127504
v 0.721898 1.174307 -0.122208
v 0.727728 1.176033 -0.123704
v 0.728095 1.168923 -0.127296
v 0.721777 1.168574 -0.124239
v 0.717515 1.168779 -0.130014
v 0.724761 1.179073 -0.150615
v 0.724739 1.181129 -0.147358
v 0.723843 1.182199 -0.138613
v 0.721377 1.181007 -0.144292
v 0.718410 1.178875 -0.145551
v 0.728327 1.170019 -0.145785
v 0.733799 1.172746 -0.146694
v 0.725860 1.174480 -0.149936
v 0.725308 1.165589 -0.134632
v 0.717222 1.180859 -0.137348
v 0.714424 1.175433 -0.136610
v 0.716500 1.170025 -0.136031
v 0.717888 1.173106 -0.144976
v 0.721032 1.168092 -0.141612
v 0.728843 1.182124 -0.132356
vt 0.968236 0.456275
vt 0.964597 0.454942
vt 0.965869 0.451897
vt 0.968803 0.452221
vt 0.981918 0.675351
vt 0.985251 0.676639
vt 0.983929 0.680235
vt 0.980550 0.680046
vt 0.988025 0.677624
vt 0.987455 0.682673
vt 0.990939 0.677252
vt 0.990808 0.680156
vt 0.988247 0.672912
vt 0.991121 0.671940
vt 0.976308 0.451475
vt 0.972438 0.452111
vt 0.973843 0.449531
vt 0.976112 0.448456
vt 0.967267 0.677885
vt 0.969405 0.672715
vt 0.971469 0.678061
vt 0.972573 0.683055
vt 0.976203 0.678699
vt 0.973783 0.676411
vt 0.973348 0.672731
vt 0.988037 0.667726
vt 0.990206 0.667612
vt 0.993245 0.669554
vt 0.976543 0.455225
vt 0.979662 0.451627
vt 0.979529 0.454195
vt 0.981262 0.455171
vt 0.981613 0.451238
vt 0.983365 0.671256
vt 0.985952 0.673218
vt 0.985592 0.668484
vt 0.977917 0.673939
vt 0.978477 0.458334
vt 0.971895 0.668274
vt 0.974686 0.669205
vt 0.984199 0.457226
vt 0.986763 0.459543
vt 0.983324 0.462215
vt 0.980419 0.461069
vt 0.978972 0.669358
vt 0.980943 0.666667
vt 0.984027 0.451729
vt 0.973605 0.460251
vt 0.975929 0.463553
vt 0.972468 0.455929
vt 0.968797 0.460066
vt 0.977879 0.683154
vn 0.5482 0.3738 0.7481
vn 0.6861 -0.5709 0.4509
vn 0.8712 -0.4087 0.2718
vn 0.7901 0.4694 0.3941
vn 0.4541 -0.8831 -0.1183
vn 0.7786 -0.6040 -0.1702
vn 0.9414 0.2151 -0.2599
vn 0.4080 0.8909 -0.1997
vn 0.2037 0.9751 0.0873
vn 0.5255 -0.1572 -0.8361
vn 0.2792 0.7340 -0.6191
vn -0.0311 0.9912 -0.1287
vn -0.2455 0.8736 0.4202
vn -0.7968 0.2869 0.5318
vn -0.2391 0.0712 0.9684
vn 0.3121 0.2331 0.9210
vn 0.3844 -0.7259 0.5704
vn -0.2060 -0.6663 0.7167
vn -0.6709 -0.6799 0.2960
vn -0.2770 0.4345 -0.8570
vn -0.2114 0.9169 -0.3385
vn -0.1370 0.9891 -0.0535
vn -0.3024 0.9172 -0.2595
vn -0.6978 0.4534 -0.5545
vn 0.1004 -0.8143 -0.5717
vn 0.4712 -0.6975 -0.5398
vn -0.1618 -0.3507 -0.9224
vn 0.0366 -0.9993 0.0109
vn -0.6460 0.7614 -0.0538
vn -0.9974 0.0530 -0.0480
vn -0.7825 -0.6186 -0.0706
vn -0.7259 -0.3315 -0.6026
vn -0.3700 -0.8387 -0.3995
vn 0.0765 0.9566 0.2810
f 1/1/1 2/2/2 3/3/3 4/4/4
f 5/5/5 6/6/6 3/7/3 2/8/2
f 7/9/7 4/10/4 3/7/3 6/6/6
f 4/10/4 7/9/7 8/11/8 9/12/9
f 10/13/10 11/14/11 8/11/8 7/9/7
f 12/15/12 9/16/9 8/17/8 11/18/11
f 13/19/13 14/20/14 15/21/15 16/22/16
f 17/23/17 16/22/16 15/21/15 18/24/18
f 19/25/19 18/24/18 15/21/15 14/20/14
f 11/14/11 20/26/20 21/27/21 12/28/12
f 22/29/22 12/15/12 21/30/21 23/31/23
f 24/32/24 23/31/23 21/30/21 20/33/20
f 5/5/5 25/34/25 26/35/26 6/6/6
f 7/9/7 6/6/6 26/35/26 10/13/10
f 27/36/27 10/13/10 26/35/26 25/34/25
f 28/37/28 17/23/17 18/24/18 19/25/19
f 29/38/29 22/29/22 23/31/23 24/32/24
f 14/20/14 30/39/30 31/40/31 19/25/19
f 32/41/32 33/42/33 31/43/31 30/44/30
f 28/37/28 19/25/19 31/40/31 33/45/33
f 27/36/27 25/34/25 33/45/33 32/46/32
f 5/5/5 28/37/28 33/45/33 25/34/25
f 29/38/29 24/32/24 32/41/32 30/44/30
f 20/33/20 27/47/27 32/41/32 24/32/24
f 13/48/13 29/38/29 30/44/30 14/49/14
f 34/50/34 22/29/22 29/38/29 13/48/13
f 16/51/16 1/1/1 34/50/34 13/48/13
f 4/4/4 9/16/9 34/50/34 1/1/1
f 12/15/12 22/29/22 34/50/34 9/16/9
f 2/8/2 17/23/17 28/37/28 5/5/5
f 11/14/11 10/13/10 27/36/27 20/26/20
f 1/52/1 16/22/16 17/23/17 2/8/2
