# split from a merged terrain OBJ by scripts/split-terrain-obj-parts.py
o part-068
v -0.001049 0.934330 0.065957
v -0.003031 0.938894 0.066744
v -0.001264 0.935330 0.073691
v -0.003672 0.930731 0.070893
v -0.009598 0.928894 0.073593
v -0.008280 0.934056 0.077460
v -0.009041 0.939125 0.066087
v -0.008209 0.938383 0.072792
v -0.014454 0.937152 0.077109
v -0.022195 0.935654 0.076944
v -0.020510 0.935797 0.079283
v -0.014285 0.934742 0.078553
v -0.015207 0.930492 0.072976
v -0.020552 0.933590 0.072154
v -0.021186 0.937055 0.071573
v -0.001418 0.930159 0.062988
v -0.002043 0.933532 0.056305
v -0.000168 0.936179 0.060984
v -0.005265 0.925555 0.065447
v -0.007189 0.926799 0.056837
v -0.008956 0.928826 0.051505
v -0.006542 0.934603 0.049930
v -0.008222 0.939003 0.053933
v -0.004523 0.938712 0.056402
v -0.014666 0.938051 0.071797
v -0.012808 0.925669 0.057726
v -0.013681 0.929123 0.050750
v -0.012940 0.934947 0.046712
v -0.015268 0.939080 0.058861
v -0.013829 0.939142 0.052013
v -0.019283 0.938793 0.052076
v -0.021054 0.938078 0.058865
v -0.016845 0.934843 0.046474
v -0.021867 0.933015 0.059201
v -0.022035 0.933706 0.053660
v -0.021005 0.937760 0.065354
v -0.021305 0.932750 0.065948
v -0.018603 0.930462 0.051352
v -0.018662 0.927131 0.058922
v -0.016541 0.927593 0.066838
v -0.010834 0.925103 0.066427
v -0.015186 0.938640 0.065581
v -0.009311 0.939462 0.059682
v -0.003542 0.939634 0.060814
v -0.009575 0.937741 0.076691
vt 0.013026 0.637056
vt 0.018519 0.637241
vt 0.017149 0.640842
vt 0.013495 0.642219
vt 0.014206 0.646616
vt 0.017766 0.644800
vt 0.023569 0.642358
vt 0.021800 0.643974
vt 0.020361 0.646780
vt 0.020888 0.649446
vt 0.019868 0.649243
vt 0.018873 0.647148
vt 0.015804 0.649431
vt 0.018529 0.651890
vt 0.021475 0.651553
vt 0.019069 0.077967
vt 0.018952 0.074770
vt 0.022742 0.074397
vt 0.021554 0.077085
vt 0.017167 0.071262
vt 0.022115 0.070091
vt 0.025591 0.070212
vt 0.026692 0.073528
vt 0.026936 0.076739
vt 0.024696 0.077095
vt 0.023173 0.648354
vt 0.023085 0.066952
vt 0.027700 0.068607
vt 0.030115 0.072031
vt 0.009542 0.646322
vt 0.009384 0.640812
vt 0.029939 0.079975
vt 0.030470 0.076135
vt 0.032820 0.077946
vt 0.032497 0.081504
vt 0.794963 0.978214
vt 0.797029 0.977111
vt 0.800330 0.978721
vt 0.798105 0.980676
vt 0.034853 0.082342
vt 0.035295 0.079848
vt 0.022882 0.653574
vt 0.023693 0.656875
vt 0.019212 0.657734
vt 0.018786 0.654587
vt 0.028466 0.065977
vt 0.025179 0.064280
vt 0.027091 0.061445
vt 0.029054 0.063275
vt 0.013356 0.653063
vt 0.013241 0.657848
vt 0.009176 0.655915
vt 0.010002 0.650502
vt 0.016870 0.067763
vt 0.025055 0.648454
vt 0.026209 0.652784
vt 0.026295 0.079861
vt 0.027007 0.083250
vt 0.023531 0.082511
vt 0.020666 0.080774
vt 0.023139 0.078837
vt 0.794820 0.974025
vt 0.797440 0.973742
vt 0.020286 0.644817
vt 0.800599 0.974901
vn 0.9930 -0.0487 0.1079
vn 0.5808 0.7936 0.1812
vn 0.8201 0.2125 0.5313
vn 0.7104 -0.5533 0.4351
vn 0.0915 -0.7790 0.6203
vn 0.3131 -0.1247 0.9415
vn 0.0023 0.9921 0.1252
vn 0.1475 0.9359 0.3200
vn -0.0344 0.8636 0.5030
vn -0.8963 0.3312 0.2950
vn -0.4990 0.0971 0.8611
vn -0.1099 -0.1414 0.9838
vn -0.3453 -0.7908 0.5053
vn -0.7558 -0.6125 0.2315
vn -0.7987 0.5866 0.1342
vn 0.8790 -0.4743 -0.0502
vn 0.8841 -0.0833 -0.4599
vn 0.9584 0.2572 -0.1239
vn 0.5295 -0.8394 0.1227
vn 0.4273 -0.8280 -0.3630
vn 0.3720 -0.6863 -0.6250
vn 0.6040 0.0980 -0.7909
vn 0.2900 0.8812 -0.3733
vn 0.5027 0.7722 -0.3885
vn -0.1226 0.9824 0.1410
vn -0.1152 -0.9686 -0.2202
vn -0.0268 -0.7633 -0.6454
vn 0.1336 0.1507 -0.9795
vn -0.0950 0.9951 0.0284
vn 0.0455 0.9339 -0.3547
vn -0.5708 0.7263 -0.3829
vn -0.7035 0.7107 0.0097
vn -0.3713 0.0869 -0.9244
vn -0.9787 -0.2048 -0.0115
vn -0.9515 -0.0941 -0.2929
vn -0.7318 0.6763 0.0846
vn -0.9278 -0.3393 0.1553
vn -0.5956 -0.5853 -0.5501
vn -0.5948 -0.8001 -0.0781
vn -0.5174 -0.8127 0.2681
vn -0.0377 -0.9689 0.2447
vn -0.1183 0.9895 0.0836
vn -0.0109 0.9999 -0.0069
vn 0.4664 0.8798 -0.0916
vn 0.1621 0.7703 0.6167
f 1/1/1 2/2/2 3/3/3 4/4/4
f 5/5/5 4/4/4 3/3/3 6/6/6
f 7/7/7 8/8/8 3/3/3 2/2/2
f 9/9/9 10/10/10 11/11/11 12/12/12
f 13/13/13 12/12/12 11/11/11 14/14/14
f 15/15/15 14/14/14 11/11/11 10/10/10
f 1/16/1 16/17/16 17/18/17 18/19/18
f 19/20/19 20/21/20 17/18/17 16/17/16
f 21/22/21 22/23/22 17/18/17 20/21/20
f 23/24/23 24/25/24 17/18/17 22/23/22
f 25/26/25 15/15/15 10/10/10 9/9/9
f 26/27/26 27/28/27 21/22/21 20/21/20
f 28/29/28 22/23/22 21/22/21 27/28/27
f 4/4/4 19/30/19 16/31/16 1/1/1
f 29/32/29 30/33/30 31/34/31 32/35/32
f 28/36/28 33/37/33 31/38/31 30/39/30
f 34/40/34 32/35/32 31/34/31 35/41/35
f 36/42/36 32/43/32 34/44/34 37/45/37
f 38/46/38 39/47/39 34/48/34 35/49/35
f 40/50/40 37/45/37 34/44/34 39/51/39
f 14/14/14 37/45/37 40/50/40 13/13/13
f 26/52/26 41/53/41 40/50/40 39/51/39
f 5/5/5 13/13/13 40/50/40 41/53/41
f 20/21/20 19/20/19 41/54/41 26/27/26
f 4/4/4 5/5/5 41/53/41 19/30/19
f 27/28/27 26/27/26 39/47/39 38/46/38
f 25/26/25 42/55/42 36/42/36 15/15/15
f 29/56/29 32/43/32 36/42/36 42/55/42
f 14/14/14 15/15/15 36/42/36 37/45/37
f 8/8/8 7/7/7 42/55/42 25/26/25
f 43/57/43 29/32/29 42/58/42 7/59/7
f 2/60/2 44/61/44 43/57/43 7/59/7
f 24/25/24 23/24/23 43/57/43 44/61/44
f 30/33/30 29/32/29 43/57/43 23/24/23
f 22/23/22 28/29/28 30/33/30 23/24/23
f 28/36/28 27/62/27 38/63/38 33/37/33
f 45/64/45 8/8/8 25/26/25 9/9/9
f 6/6/6 12/12/12 13/13/13 5/5/5
f 6/6/6 45/64/45 9/9/9 12/12/12
f 1/16/1 18/19/18 44/61/44 2/60/2
f 45/64/45 6/6/6 3/3/3 8/8/8
f 44/61/44 18/19/18 17/18/17 24/25/24
f 35/65/35 31/38/31 33/37/33 38/63/38
