# split from a merged terrain OBJ by scripts/split-terrain-obj-parts.py
o part-038
v 0.755228 0.304325 -0.009338
v 0.754821 0.304404 -0.011661
v 0.753792 0.309850 -0.008382
v 0.753462 0.311926 -0.006060
v 0.754804 0.301980 -0.006413
v 0.754331 0.309827 -0.005428
v 0.751296 0.302504 -0.008132
v 0.748795 0.296681 0.000056
v 0.753725 0.297040 0.000387
v 0.758952 0.296567 0.001232
v 0.759945 0.297878 -0.005316
v 0.758747 0.299007 -0.010391
v 0.744935 0.294050 0.009634
v 0.752095 0.294572 0.007927
v 0.744437 0.292070 -0.001743
v 0.742651 0.294335 0.005338
v 0.752260 0.290984 0.007066
v 0.753520 0.300240 -0.014151
v 0.750813 0.296387 -0.017406
v 0.765412 0.294873 -0.004431
v 0.763272 0.295236 0.001176
v 0.760875 0.290180 0.004046
v 0.765171 0.288985 -0.003895
v 0.757556 0.295150 0.005909
v 0.752955 0.287686 0.004591
v 0.759928 0.285935 0.004026
v 0.768352 0.282769 -0.001726
v 0.778388 0.275132 0.008877
v 0.778229 0.275678 -0.002760
v 0.770102 0.280161 0.010376
v 0.764755 0.284864 -0.016790
v 0.772017 0.279577 -0.016769
v 0.779810 0.274383 -0.017004
v 0.761026 0.282168 0.012516
v 0.742387 0.288141 -0.011283
v 0.754920 0.291311 -0.022144
v 0.734751 0.281177 -0.002315
v 0.742549 0.283818 0.006631
v 0.758624 0.283458 -0.023473
v 0.751537 0.282512 -0.025791
v 0.759935 0.290019 -0.019911
v 0.782805 0.271904 0.028699
v 0.778927 0.269217 0.031194
v 0.776709 0.260736 0.021504
v 0.782934 0.269711 0.020079
v 0.767656 0.238044 0.022748
v 0.774569 0.241350 0.020736
v 0.768650 0.256343 0.025434
v 0.776110 0.242799 0.011785
v 0.778465 0.261294 0.010567
v 0.783354 0.268687 0.009373
v 0.770046 0.266685 0.031315
v 0.779065 0.273727 0.020127
v 0.779343 0.273150 0.029784
v 0.780078 0.272491 0.034919
v 0.751680 0.282830 0.011876
v 0.764734 0.294628 -0.012557
v 0.771032 0.273873 0.029661
v 0.770380 0.271755 0.033726
v 0.741248 0.282420 -0.023012
v 0.738786 0.279818 0.015964
v 0.732945 0.278789 0.009359
v 0.732148 0.279016 -0.019828
v 0.727251 0.274388 0.012116
v 0.725576 0.274780 -0.001332
v 0.724967 0.273767 -0.019517
v 0.733805 0.275106 0.023418
v 0.781866 0.266056 -0.030298
v 0.778645 0.263883 -0.040605
v 0.779381 0.270893 -0.041451
v 0.780365 0.273006 -0.031771
v 0.772738 0.263495 -0.045196
v 0.774483 0.271924 -0.043877
v 0.774606 0.275671 -0.032858
v 0.739664 0.277911 -0.036575
v 0.733061 0.277617 -0.032526
v 0.728416 0.273397 -0.036650
v 0.736897 0.272320 -0.043195
v 0.778496 0.215234 0.014162
v 0.773347 0.217305 0.024746
v 0.770870 0.210447 0.023535
v 0.772361 0.207792 0.014343
v 0.763192 0.218032 0.028068
v 0.761314 0.210423 0.025131
v 0.760262 0.207310 0.014063
v 0.731421 0.259065 0.024726
v 0.729797 0.243735 0.021641
v 0.741263 0.242745 0.022013
v 0.743086 0.261780 0.026957
v 0.777699 0.214503 -0.028763
v 0.770437 0.206719 -0.028675
v 0.768366 0.209501 -0.037533
v 0.772019 0.216631 -0.038633
v 0.759408 0.207508 -0.028947
v 0.760580 0.210646 -0.039637
v 0.763310 0.218845 -0.041660
v 0.729149 0.230685 0.022134
v 0.732905 0.230752 0.026395
v 0.765658 0.254746 -0.038664
v 0.767143 0.237133 -0.035213
v 0.757898 0.232931 -0.033495
v 0.756798 0.256361 -0.036129
v 0.770151 0.237607 -0.039579
v 0.766927 0.227688 -0.039482
v 0.752100 0.221770 -0.040427
v 0.771646 0.254094 -0.041300
v 0.724485 0.220368 0.023832
v 0.725658 0.221550 0.032299
v 0.733909 0.213221 0.025050
v 0.737323 0.220770 0.029440
v 0.740170 0.226724 0.025304
v 0.732805 0.209773 -0.030669
v 0.723183 0.218276 -0.030168
v 0.724066 0.220024 -0.043949
v 0.736112 0.215863 -0.042527
v 0.738614 0.225973 -0.039408
v 0.729780 0.229629 -0.039233
v 0.727422 0.228752 -0.030046
v 0.757265 0.251933 0.021397
v 0.751649 0.227906 0.022742
v 0.758820 0.235607 0.020597
v 0.765259 0.226918 0.024303
v 0.749462 0.218764 0.028662
v 0.773367 0.226548 0.022090
v 0.776206 0.225880 0.012850
v 0.776278 0.243524 -0.001057
v 0.776474 0.225276 -0.000253
v 0.779289 0.214029 0.000051
v 0.776348 0.225213 -0.014883
v 0.778997 0.213662 -0.015086
v 0.772407 0.207143 -0.000064
v 0.771757 0.206707 -0.015137
v 0.759881 0.207095 -0.000420
v 0.759466 0.207091 -0.015323
v 0.744806 0.207969 -0.000264
v 0.744803 0.207949 -0.015493
v 0.745964 0.208367 -0.029595
v 0.748255 0.212525 -0.040675
v 0.730646 0.208886 -0.015726
v 0.730572 0.208986 0.000437
v 0.723009 0.216642 0.000320
v 0.722888 0.216776 -0.015656
v 0.727550 0.227673 -0.000630
v 0.727243 0.227473 -0.016064
v 0.728356 0.242849 -0.001423
v 0.728136 0.242125 -0.017176
v 0.728122 0.241424 -0.030967
v 0.730804 0.240004 -0.039404
v 0.727989 0.256597 -0.018197
v 0.728317 0.255762 -0.032567
v 0.733694 0.255188 -0.040255
v 0.739717 0.236983 -0.034455
v 0.743240 0.255624 -0.037094
v 0.727750 0.265504 -0.034987
v 0.735726 0.264674 -0.042424
v 0.745698 0.264342 -0.044810
v 0.756461 0.264989 -0.045810
v 0.747174 0.272376 -0.045611
v 0.757810 0.272523 -0.045326
v 0.765508 0.263979 -0.045678
v 0.766952 0.272499 -0.044705
v 0.749318 0.277762 -0.037570
v 0.759085 0.278332 -0.036875
v 0.767814 0.278853 -0.034133
v 0.724498 0.266513 -0.019168
v 0.728083 0.258175 -0.001803
v 0.724384 0.267847 -0.001684
v 0.728309 0.258528 0.013112
v 0.725139 0.267444 0.013350
v 0.731453 0.268930 0.027421
v 0.744962 0.268981 0.033003
v 0.746678 0.274748 0.029031
v 0.758749 0.270257 0.033620
v 0.760110 0.274221 0.029430
v 0.761597 0.277817 0.022555
v 0.749568 0.278877 0.021108
v 0.771167 0.276199 0.021651
v 0.757967 0.264325 0.029560
v 0.728779 0.243503 0.012678
v 0.728097 0.229253 0.012733
v 0.723807 0.218319 0.013784
v 0.732080 0.210130 0.014817
v 0.745861 0.208230 0.014282
v 0.747238 0.210959 0.025218
v 0.775855 0.241484 -0.027580
v 0.776147 0.243085 -0.015151
v 0.776043 0.225545 -0.027972
v 0.777711 0.257326 -0.028571
v 0.778577 0.259699 -0.016210
v 0.778710 0.261111 -0.002203
v 0.783251 0.267403 -0.017014
v 0.783596 0.268158 -0.002957
v 0.775945 0.255043 -0.037172
v 0.774826 0.239627 -0.035663
v 0.773354 0.225781 -0.036567
vt 0.364218 0.986480
vt 0.362367 0.988718
vt 0.361834 0.987667
vt 0.362118 0.986893
vt 0.359528 0.984700
vt 0.361668 0.986758
vt 0.358988 0.988409
vt 0.354439 0.983572
vt 0.358083 0.981064
vt 0.360630 0.979112
vt 0.363274 0.982352
vt 0.366157 0.985656
vt 0.353470 0.979598
vt 0.355552 0.977560
vt 0.347805 0.982522
vt 0.351758 0.979298
vt 0.353968 0.976085
vt 0.363338 0.990027
vt 0.356347 0.991164
vt 0.365018 0.978028
vt 0.361414 0.977278
vt 0.357635 0.973506
vt 0.363715 0.974634
vt 0.357805 0.976957
vt 0.351338 0.974733
vt 0.355664 0.971620
vt 0.362453 0.970538
vt 0.430454 0.962483
vt 0.436873 0.963168
vt 0.435902 0.969491
vt 0.428982 0.967404
vt 0.372308 0.976679
vt 0.372913 0.971695
vt 0.444817 0.962619
vt 0.444555 0.967512
vt 0.352528 0.967221
vt 0.357047 0.963999
vt 0.349792 0.993371
vt 0.363255 0.993477
vt 0.341049 0.990486
vt 0.344383 0.978152
vt 0.840461 0.925332
vt 0.837276 0.923465
vt 0.840996 0.919816
vt 0.843168 0.922798
vt 0.421240 0.959563
vt 0.419817 0.957809
vt 0.423858 0.952372
vt 0.425288 0.958219
vt 0.421448 0.940013
vt 0.425051 0.942028
vt 0.419529 0.949579
vt 0.430317 0.943386
vt 0.430042 0.953328
vt 0.430626 0.958086
vt 0.416819 0.955485
vt 0.424962 0.961341
vt 0.420193 0.961280
vt 0.418938 0.959773
vt 0.348148 0.971679
vt 0.368565 0.981818
vt 0.369499 0.990934
vt 0.844485 0.925784
vt 0.847379 0.924115
vt 0.415206 0.962686
vt 0.415383 0.960364
vt 0.833940 0.918455
vt 0.836670 0.911104
vt 0.339976 0.977418
vt 0.337741 0.983312
vt 0.829317 0.915343
vt 0.831447 0.905289
vt 0.825306 0.897735
vt 0.829651 0.898510
vt 0.825229 0.904885
vt 0.824742 0.914807
vt 0.826217 0.891315
vt 0.831025 0.893756
vt 0.452152 0.958225
vt 0.457517 0.957462
vt 0.457592 0.960941
vt 0.452787 0.961900
vt 0.461122 0.957208
vt 0.460087 0.962289
vt 0.453711 0.965154
vt 0.829760 0.925870
vt 0.828099 0.922339
vt 0.824453 0.923617
vt 0.824998 0.928614
vt 0.430851 0.927972
vt 0.425148 0.928275
vt 0.425395 0.924142
vt 0.430613 0.922736
vt 0.420161 0.926594
vt 0.422448 0.921342
vt 0.428859 0.916468
vt 0.816617 0.890273
vt 0.807853 0.892074
vt 0.806835 0.885924
vt 0.817988 0.883967
vt 0.453938 0.929660
vt 0.454961 0.924606
vt 0.460086 0.926318
vt 0.459429 0.930851
vt 0.456963 0.919529
vt 0.463889 0.924822
vt 0.464068 0.931804
vt 0.800348 0.892131
vt 0.799760 0.888769
vt 0.463239 0.952687
vt 0.462495 0.943044
vt 0.466573 0.939943
vt 0.467545 0.952904
vt 0.460077 0.942786
vt 0.462161 0.936882
vt 0.791456 0.941808
vt 0.794666 0.937483
vt 0.801990 0.940947
vt 0.796179 0.944644
vt 0.459924 0.952021
vt 0.793855 0.892640
vt 0.794047 0.888900
vt 0.787930 0.890396
vt 0.790841 0.885442
vt 0.796794 0.884472
vt 0.787774 0.922662
vt 0.793854 0.920211
vt 0.795242 0.926259
vt 0.790624 0.929856
vt 0.797392 0.932147
vt 0.800402 0.926795
vt 0.799822 0.921207
vt 0.414212 0.945500
vt 0.407171 0.938620
vt 0.414912 0.932005
vt 0.417281 0.937487
vt 0.421153 0.933227
vt 0.415036 0.923531
vt 0.425616 0.933781
vt 0.430793 0.933897
vt 0.437356 0.944089
vt 0.438097 0.934314
vt 0.438595 0.928068
vt 0.446240 0.935255
vt 0.446642 0.928810
vt 0.438798 0.922720
vt 0.447473 0.922982
vt 0.438714 0.915697
vt 0.448564 0.916741
vt 0.778863 0.904608
vt 0.779882 0.915925
vt 0.772692 0.914259
vt 0.771949 0.903276
vt 0.460810 0.913973
vt 0.453307 0.911128
vt 0.466056 0.919036
vt 0.786189 0.913508
vt 0.782326 0.925890
vt 0.788055 0.933562
vt 0.786425 0.904362
vt 0.792149 0.904413
vt 0.792877 0.912845
vt 0.798915 0.904541
vt 0.799184 0.913262
vt 0.807240 0.904840
vt 0.807091 0.913805
vt 0.806534 0.921596
vt 0.805892 0.926699
vt 0.814986 0.914456
vt 0.814529 0.922437
vt 0.814443 0.927825
vt 0.803346 0.932375
vt 0.814844 0.933179
vt 0.819914 0.923259
vt 0.820318 0.928690
vt 0.821858 0.933965
vt 0.816529 0.940237
vt 0.824785 0.937950
vt 0.827226 0.932412
vt 0.830016 0.936211
vt 0.464746 0.957664
vt 0.467514 0.961544
vt 0.465846 0.965455
vt 0.462680 0.963876
vt 0.832941 0.929075
vt 0.836145 0.932593
vt 0.455425 0.968730
vt 0.460181 0.970035
vt 0.839575 0.933641
vt 0.446430 0.971592
vt 0.824334 0.942102
vt 0.818701 0.944297
vt 0.820713 0.914437
vt 0.815591 0.905164
vt 0.821334 0.904940
vt 0.815822 0.896783
vt 0.821038 0.897108
vt 0.822623 0.889613
vt 0.824046 0.883661
vt 0.828162 0.884277
vt 0.827110 0.877964
vt 0.830927 0.878362
vt 0.834441 0.881044
vt 0.832365 0.887183
vt 0.343759 0.967385
vt 0.349347 0.961958
vt 0.422187 0.965502
vt 0.420244 0.969364
vt 0.415748 0.968613
vt 0.425675 0.970782
vt 0.830757 0.873498
vt 0.832446 0.873654
vt 0.822812 0.878073
vt 0.411826 0.957152
vt 0.412761 0.952955
vt 0.405316 0.949021
vt 0.807360 0.896989
vt 0.799425 0.897274
vt 0.792594 0.897169
vt 0.785873 0.896306
vt 0.779003 0.894923
vt 0.782587 0.887057
vt 0.417345 0.916784
vt 0.422035 0.912385
vt 0.788296 0.880908
vt 0.771939 0.894772
vt 0.786757 0.940370
vt 0.452302 0.944306
vt 0.445333 0.944804
vt 0.453472 0.935696
vt 0.451971 0.952945
vt 0.444991 0.953777
vt 0.437154 0.953734
vt 0.444961 0.958647
vt 0.437189 0.958338
vt 0.456767 0.952340
vt 0.456851 0.943700
vt 0.458361 0.936073
vt 0.796900 0.879761
vn 0.9245 0.3578 -0.1318
vn 0.1628 0.6194 -0.7680
vn 0.2534 0.8899 0.3792
vn 0.2426 -0.7026 0.6689
vn 0.2826 0.7741 0.5665
vn 0.2728 0.0280 0.9617
vn -0.8056 0.5896 0.0588
vn -0.4362 0.8869 0.1519
vn 0.0413 0.9107 0.4109
vn 0.3470 0.8279 0.4407
vn 0.4817 0.8535 0.1987
vn 0.6319 0.7292 -0.2626
vn -0.4925 0.1621 0.8551
vn 0.0679 0.3863 0.9199
vn -0.8218 0.5561 0.1242
vn -0.9338 0.0891 0.3466
vn -0.0636 -0.6127 0.7878
vn -0.0086 0.7392 -0.6735
vn -0.4637 0.6801 -0.5678
vn 0.8720 0.4623 0.1608
vn 0.7347 0.4837 0.4756
vn 0.6030 0.0632 0.7952
vn 0.9418 0.2356 0.2397
vn 0.3317 0.5257 0.7833
vn -0.1188 0.2766 0.9536
vn 0.4448 0.5804 0.6821
vn 0.6427 0.7523 0.1448
vn 0.6544 0.7535 0.0630
vn 0.7021 0.7120 0.0098
vn 0.4084 0.8902 0.2017
vn 0.7235 0.6001 -0.3413
vn 0.5817 0.8082 -0.0917
vn 0.7488 0.6611 -0.0471
vn 0.1919 0.9125 0.3614
vn -0.6830 0.6865 -0.2495
vn -0.0240 0.6252 -0.7801
vn -0.6059 0.7936 0.0559
vn -0.3626 0.8623 0.3534
vn 0.2635 0.7342 -0.6257
vn -0.0951 0.8434 -0.5288
vn 0.5150 0.4385 -0.7365
vn 0.9699 0.1446 0.1959
vn 0.5891 -0.5225 0.6164
vn 0.7702 -0.4511 0.4509
vn 0.9925 0.0724 0.0989
vn 0.0577 0.0244 0.9980
vn 0.7733 -0.0651 0.6307
vn 0.1557 -0.3736 0.9144
vn 0.9927 -0.0644 0.1017
vn 0.9319 -0.3549 0.0746
vn 0.9987 0.0311 0.0404
vn 0.1348 -0.5786 0.8044
vn 0.5232 0.8496 0.0663
vn 0.4977 0.8298 0.2525
vn 0.4156 0.2986 0.8591
vn -0.0229 0.8906 0.4542
vn 0.8035 0.4968 -0.3280
vn 0.0605 0.9336 0.3530
vn 0.0008 0.2641 0.9645
vn -0.3673 0.8725 -0.3223
vn -0.2859 0.9038 0.3184
vn -0.4932 0.8547 0.1620
vn -0.5393 0.8338 -0.1179
vn -0.7753 0.5928 0.2179
vn -0.8403 0.5403 0.0453
vn -0.8765 0.4719 -0.0956
vn -0.4925 0.7139 0.4977
vn 0.9864 -0.1223 -0.1103
vn 0.8237 -0.2275 -0.5193
vn 0.7565 0.3894 -0.5255
vn 0.7934 0.5828 -0.1759
vn 0.2743 -0.2262 -0.9346
vn 0.3956 0.5121 -0.7624
vn 0.4318 0.8703 -0.2371
vn -0.1908 0.8800 -0.4349
vn -0.4217 0.8637 -0.2759
vn -0.7438 0.4320 -0.5101
vn -0.3730 0.3967 -0.8387
vn 0.9515 -0.2156 0.2193
vn 0.6500 -0.0861 0.7550
vn 0.4038 -0.6869 0.6042
vn 0.4438 -0.8725 0.2042
vn 0.1330 0.0244 0.9908
vn 0.0554 -0.7333 0.6776
vn -0.0129 -0.9893 0.1452
vn -0.6406 -0.2479 0.7267
vn -0.7480 0.0368 0.6627
vn 0.0090 -0.0261 0.9996
vn -0.0682 -0.4143 0.9076
vn 0.9246 -0.2777 -0.2608
vn 0.3684 -0.9026 -0.2226
vn 0.3232 -0.7097 -0.6260
vn 0.6337 -0.1819 -0.7519
vn -0.0635 -0.9840 -0.1663
vn 0.0156 -0.6479 -0.7616
vn 0.1123 0.0593 -0.9919
vn -0.8549 0.3707 0.3631
vn -0.1546 0.4212 0.8937
vn -0.3077 -0.3723 -0.8756
vn -0.4575 0.0698 -0.8865
vn -0.1229 0.2078 -0.9704
vn -0.0783 -0.4447 -0.8923
vn 0.0367 -0.0121 -0.9993
vn 0.0927 0.2435 -0.9655
vn 0.0123 0.2404 -0.9706
vn 0.1709 -0.3494 -0.9212
vn -0.9124 -0.1618 0.3761
vn -0.4793 -0.0017 0.8776
vn -0.2971 -0.7924 0.5328
vn 0.0613 -0.0689 0.9957
vn 0.2078 0.3547 0.9116
vn -0.3492 -0.9062 -0.2384
vn -0.9592 -0.2342 -0.1586
vn -0.6605 -0.0858 -0.7459
vn -0.1185 -0.4336 -0.8933
vn 0.1635 0.2823 -0.9453
vn -0.4740 0.3576 -0.8046
vn -0.9656 0.2478 -0.0787
vn -0.0435 -0.2528 0.9665
vn 0.0589 0.3127 0.9480
vn -0.0963 0.1018 0.9901
vn 0.0962 0.2894 0.9524
vn 0.0283 0.0342 0.9990
vn 0.7031 0.1493 0.6952
vn 0.9823 0.1027 0.1567
vn 0.9979 -0.0650 0.0052
vn 0.9924 0.1227 0.0035
vn 0.9631 -0.2685 0.0199
vn 0.9933 0.1127 -0.0253
vn 0.9556 -0.2912 -0.0452
vn 0.3967 -0.9175 0.0287
vn 0.3722 -0.9278 -0.0257
vn -0.0283 -0.9995 0.0164
vn -0.0458 -0.9989 -0.0073
vn -0.0723 -0.9972 0.0205
vn -0.0677 -0.9975 -0.0205
vn -0.0867 -0.9730 -0.2138
vn -0.0444 -0.5590 -0.8280
vn -0.4218 -0.9056 -0.0449
vn -0.4306 -0.9011 0.0515
vn -0.9758 -0.2142 0.0439
vn -0.9759 -0.2166 -0.0266
vn -0.9745 0.2239 0.0147
vn -0.9740 0.2264 0.0117
vn -0.9996 0.0178 0.0200
vn -0.9997 0.0256 0.0025
vn -0.9809 0.0435 -0.1897
vn -0.4283 0.0316 -0.9031
vn -0.9894 -0.1442 -0.0180
vn -0.9481 -0.0720 -0.3098
vn -0.3760 -0.2058 -0.9035
vn 0.2177 0.0860 -0.9722
vn 0.1230 -0.3743 -0.9191
vn -0.8891 -0.0762 -0.4514
vn -0.4111 -0.2009 -0.8892
vn -0.0559 -0.3546 -0.9333
vn -0.0376 -0.3388 -0.9401
vn -0.0996 0.4315 -0.8966
vn 0.0254 0.4889 -0.8720
vn -0.0656 -0.2691 -0.9609
vn 0.1406 0.5400 -0.8298
vn -0.0426 0.8826 -0.4682
vn 0.0381 0.8872 -0.4599
vn 0.2623 0.8965 -0.3571
vn -0.9925 -0.1014 -0.0689
vn -0.9818 -0.1885 0.0238
vn -0.9960 -0.0802 0.0393
vn -0.9772 -0.1450 0.1548
vn -0.9733 0.0192 0.2286
vn -0.6507 0.1033 0.7523
vn -0.1739 0.0350 0.9842
vn -0.1280 0.7656 0.6304
vn -0.0276 0.0992 0.9947
vn 0.0043 0.8331 0.5531
vn 0.1011 0.9129 0.3956
vn -0.0475 0.9055 0.4217
vn 0.2488 0.9325 0.2617
vn 0.0010 -0.5209 0.8536
vn -0.9958 0.0225 0.0886
vn -0.9743 0.2221 0.0365
vn -0.9699 -0.2094 0.1240
vn -0.4186 -0.8878 0.1911
vn -0.0889 -0.9839 0.1550
vn -0.0656 -0.7625 0.6437
vn 0.9932 -0.0647 -0.0966
vn 0.9978 -0.0652 -0.0144
vn 0.9826 0.0618 -0.1752
vn 0.9549 -0.2862 -0.0794
vn 0.9424 -0.3345 -0.0012
vn 0.9338 -0.3574 0.0190
vn 0.9990 -0.0419 -0.0123
vn 0.9998 0.0056 0.0186
vn 0.8585 -0.2762 -0.4321
vn 0.8660 -0.0910 -0.4918
vn 0.7677 0.0254 -0.6403
f 1/1/1 2/2/2 3/3/3 4/4/4
f 5/5/5 6/6/6 3/3/3 7/7/7
f 8/8/8 9/9/9 5/5/5 7/7/7
f 10/10/10 11/11/11 5/5/5 9/9/9
f 4/4/4 6/6/6 5/5/5 1/1/1
f 12/12/12 1/1/1 5/5/5 11/11/11
f 9/9/9 8/8/8 13/13/13 14/14/14
f 15/15/15 16/16/16 13/13/13 8/8/8
f 17/17/17 14/14/14 13/13/13 16/16/16
f 18/18/18 19/19/19 7/7/7 2/2/2
f 15/15/15 8/8/8 7/7/7 19/19/19
f 1/1/1 12/12/12 18/18/18 2/2/2
f 20/20/20 21/21/21 22/22/22 23/23/23
f 14/14/14 17/17/17 22/22/22 24/24/24
f 25/25/25 26/26/26 22/22/22 17/17/17
f 27/27/27 23/23/23 22/22/22 26/26/26
f 25/25/25 17/17/17 16/16/16 15/15/15
f 28/28/28 29/29/29 27/30/27 30/31/30
f 31/32/31 23/23/23 27/27/27 32/33/32
f 33/34/33 32/35/32 27/30/27 29/29/29
f 34/36/34 30/37/30 27/27/27 26/26/26
f 35/38/35 15/15/15 19/19/19 36/39/36
f 37/40/37 38/41/38 15/15/15 35/38/35
f 39/42/39 40/43/40 36/44/36 41/45/41
f 42/46/42 43/47/43 44/48/44 45/49/45
f 46/50/46 47/51/47 44/48/44 48/52/48
f 49/53/49 50/54/50 44/48/44 47/51/47
f 51/55/51 45/49/45 44/48/44 50/54/50
f 52/56/52 48/52/48 44/48/44 43/47/43
f 53/57/53 54/58/54 42/46/42 45/49/45
f 55/59/55 43/47/43 42/46/42 54/58/54
f 56/60/56 25/25/25 15/15/15 38/41/38
f 12/12/12 57/61/57 41/62/41 18/18/18
f 31/63/31 39/42/39 41/45/41 57/64/57
f 20/20/20 23/23/23 31/32/31 57/61/57
f 58/65/58 59/66/59 55/59/55 54/58/54
f 52/56/52 43/47/43 55/59/55 59/66/59
f 60/67/60 35/68/35 36/44/36 40/43/40
f 61/69/61 38/41/38 37/40/37 62/70/62
f 60/67/60 63/71/63 37/72/37 35/68/35
f 64/73/64 62/74/62 37/72/37 65/75/65
f 66/76/66 65/75/65 37/72/37 63/71/63
f 67/77/67 61/78/61 62/74/62 64/73/64
f 68/79/68 69/80/69 70/81/70 71/82/71
f 72/83/72 73/84/73 70/81/70 69/80/69
f 74/85/74 71/82/71 70/81/70 73/84/73
f 60/67/60 75/86/75 76/87/76 63/71/63
f 66/76/66 63/71/63 76/87/76 77/88/77
f 78/89/78 77/88/77 76/87/76 75/86/75
f 79/90/79 80/91/80 81/92/81 82/93/82
f 83/94/83 84/95/84 81/92/81 80/91/80
f 85/96/85 82/93/82 81/92/81 84/95/84
f 86/97/86 87/98/87 88/99/88 89/100/89
f 90/101/90 91/102/91 92/103/92 93/104/93
f 94/105/94 95/106/95 92/103/92 91/102/91
f 96/107/96 93/104/93 92/103/92 95/106/95
f 97/108/97 98/109/98 88/99/88 87/98/87
f 99/110/99 100/111/100 101/112/101 102/113/102
f 103/114/103 104/115/104 101/112/101 100/111/100
f 96/116/96 105/117/105 101/118/101 104/119/104
f 106/120/106 103/114/103 100/111/100 99/110/99
f 97/108/97 107/121/107 108/122/108 98/109/98
f 109/123/109 110/124/110 108/122/108 107/121/107
f 111/125/111 98/109/98 108/122/108 110/124/110
f 112/126/112 113/127/113 114/128/114 115/129/115
f 116/130/116 115/129/115 114/128/114 117/131/117
f 118/132/118 117/131/117 114/128/114 113/127/113
f 119/133/119 88/134/88 120/135/120 121/136/121
f 83/94/83 122/137/122 120/135/120 123/138/123
f 46/50/46 121/136/121 120/135/120 122/137/122
f 47/51/47 46/50/46 122/137/122 124/139/124
f 80/91/80 124/139/124 122/137/122 83/94/83
f 49/53/49 47/51/47 124/139/124 125/140/125
f 79/90/79 125/140/125 124/139/124 80/91/80
f 126/141/126 49/53/49 125/140/125 127/142/127
f 128/143/128 127/142/127 125/140/125 79/90/79
f 129/144/129 127/142/127 128/143/128 130/145/130
f 82/93/82 131/146/131 128/143/128 79/90/79
f 132/147/132 130/145/130 128/143/128 131/146/131
f 90/101/90 130/145/130 132/147/132 91/102/91
f 133/148/133 134/149/134 132/147/132 131/146/131
f 94/105/94 91/102/91 132/147/132 134/149/134
f 135/150/135 136/151/136 134/152/134 133/153/133
f 137/154/137 94/105/94 134/149/134 136/155/136
f 95/106/95 94/105/94 137/154/137 138/156/138
f 139/157/139 112/126/112 137/158/137 136/151/136
f 115/129/115 138/159/138 137/158/137 112/126/112
f 135/150/135 140/160/140 139/157/139 136/151/136
f 141/161/141 142/162/142 139/157/139 140/160/140
f 113/127/113 112/126/112 139/157/139 142/162/142
f 143/163/143 144/164/144 142/162/142 141/161/141
f 118/132/118 113/127/113 142/162/142 144/164/144
f 145/165/145 146/166/146 144/164/144 143/163/143
f 147/167/147 118/132/118 144/164/144 146/166/146
f 117/131/117 118/132/118 147/167/147 148/168/148
f 149/169/149 150/170/150 147/167/147 146/166/146
f 151/171/151 148/168/148 147/167/147 150/170/150
f 152/172/152 148/168/148 151/171/151 153/173/153
f 154/174/154 155/175/155 151/171/151 150/170/150
f 156/176/156 153/173/153 151/171/151 155/175/155
f 102/177/102 153/173/153 156/176/156 157/178/157
f 78/89/78 158/179/158 156/176/156 155/175/155
f 159/180/159 157/178/157 156/176/156 158/179/158
f 160/181/160 157/182/157 159/183/159 161/184/161
f 162/185/162 163/186/163 159/180/159 158/179/158
f 164/187/164 161/184/161 159/183/159 163/188/163
f 73/84/73 161/184/161 164/187/164 74/85/74
f 39/42/39 31/63/31 164/189/164 163/186/163
f 32/35/32 74/85/74 164/187/164 31/190/31
f 40/43/40 39/42/39 163/186/163 162/185/162
f 78/89/78 75/86/75 162/185/162 158/179/158
f 60/67/60 40/43/40 162/185/162 75/86/75
f 106/120/106 99/110/99 160/181/160 72/83/72
f 102/177/102 157/178/157 160/191/160 99/192/99
f 73/84/73 72/83/72 160/181/160 161/184/161
f 77/88/77 78/89/78 155/175/155 154/174/154
f 149/169/149 165/193/165 154/174/154 150/170/150
f 66/76/66 77/88/77 154/174/154 165/193/165
f 166/194/166 167/195/167 165/193/165 149/169/149
f 65/75/65 66/76/66 165/193/165 167/195/167
f 168/196/168 169/197/169 167/195/167 166/194/166
f 64/73/64 65/75/65 167/195/167 169/197/169
f 86/97/86 170/198/170 169/197/169 168/196/168
f 67/77/67 64/73/64 169/197/169 170/198/170
f 89/100/89 171/199/171 170/198/170 86/97/86
f 172/200/172 67/77/67 170/198/170 171/199/171
f 173/201/173 174/202/174 172/200/172 171/199/171
f 175/203/175 176/204/176 172/200/172 174/202/174
f 61/78/61 67/77/67 172/200/172 176/204/176
f 34/36/34 56/60/56 176/205/176 175/206/175
f 38/41/38 61/69/61 176/205/176 56/60/56
f 58/65/58 177/207/177 175/208/175 174/209/174
f 30/31/30 34/210/34 175/208/175 177/207/177
f 54/58/54 53/57/53 177/207/177 58/65/58
f 28/28/28 30/31/30 177/207/177 53/57/53
f 59/211/59 58/212/58 174/202/174 173/201/173
f 89/100/89 178/213/178 173/201/173 171/199/171
f 52/56/52 59/66/59 173/214/173 178/215/178
f 88/134/88 119/133/119 178/215/178 89/216/89
f 48/52/48 52/56/52 178/215/178 119/133/119
f 145/165/145 179/217/179 168/196/168 166/194/166
f 87/98/87 86/97/86 168/196/168 179/217/179
f 143/163/143 180/218/180 179/217/179 145/165/145
f 97/108/97 87/98/87 179/217/179 180/218/180
f 141/161/141 181/219/181 180/218/180 143/163/143
f 107/121/107 97/108/97 180/218/180 181/219/181
f 140/160/140 182/220/182 181/219/181 141/161/141
f 109/123/109 107/121/107 181/219/181 182/220/182
f 135/150/135 183/221/183 182/220/182 140/160/140
f 184/222/184 109/123/109 182/220/182 183/221/183
f 85/96/85 84/95/84 184/223/184 183/224/183
f 83/94/83 123/138/123 184/223/184 84/95/84
f 110/124/110 109/123/109 184/222/184 123/225/123
f 133/153/133 85/226/85 183/221/183 135/150/135
f 146/166/146 145/165/145 166/194/166 149/169/149
f 105/117/105 116/130/116 152/172/152 101/118/101
f 117/131/117 148/168/148 152/172/152 116/130/116
f 102/177/102 101/118/101 152/172/152 153/173/153
f 96/116/96 95/227/95 138/159/138 105/117/105
f 116/130/116 105/117/105 138/159/138 115/129/115
f 82/93/82 85/96/85 133/148/133 131/146/131
f 185/228/185 186/229/186 129/144/129 187/230/187
f 126/141/126 127/142/127 129/144/129 186/229/186
f 90/101/90 187/230/187 129/144/129 130/145/130
f 188/231/188 189/232/189 186/229/186 185/228/185
f 190/233/190 126/141/126 186/229/186 189/232/189
f 191/234/191 192/235/192 190/233/190 189/232/189
f 51/55/51 50/54/50 190/233/190 192/235/192
f 49/53/49 126/141/126 190/233/190 50/54/50
f 33/34/33 29/29/29 192/235/192 191/234/191
f 28/28/28 51/55/51 192/235/192 29/29/29
f 71/82/71 33/34/33 191/234/191 68/79/68
f 188/231/188 68/79/68 191/234/191 189/232/189
f 69/80/69 68/79/68 188/231/188 193/236/193
f 194/237/194 193/236/193 188/231/188 185/228/185
f 106/120/106 193/236/193 194/237/194 103/114/103
f 187/230/187 195/238/195 194/237/194 185/228/185
f 104/115/104 103/114/103 194/237/194 195/238/195
f 90/101/90 93/104/93 195/238/195 187/230/187
f 96/107/96 104/115/104 195/238/195 93/104/93
f 72/83/72 69/80/69 193/236/193 106/120/106
f 111/125/111 110/124/110 123/225/123 120/239/120
f 46/50/46 48/52/48 119/133/119 121/136/121
f 33/34/33 71/82/71 74/85/74 32/35/32
f 11/11/11 20/20/20 57/61/57 12/12/12
f 26/26/26 25/25/25 56/60/56 34/36/34
f 51/55/51 28/28/28 53/57/53 45/49/45
f 10/10/10 21/21/21 20/20/20 11/11/11
f 10/10/10 9/9/9 14/14/14 24/24/24
f 10/10/10 24/24/24 22/22/22 21/21/21
f 111/125/111 120/239/120 88/99/88 98/109/98
f 36/39/36 19/19/19 18/18/18 41/62/41
f 2/2/2 7/7/7 3/3/3
f 4/4/4 3/3/3 6/6/6
