# split from a merged terrain OBJ by scripts/split-terrain-obj-parts.py
o part-011
v -0.353153 0.497329 0.078901
v -0.355929 0.496004 0.079204
v -0.352653 0.493667 0.084886
v -0.351052 0.492799 0.082815
v -0.356281 0.492722 0.078534
v -0.353305 0.491572 0.083319
v -0.352051 0.491387 0.082146
v -0.351498 0.492479 0.077854
v -0.351150 0.495901 0.075001
v -0.358362 0.503227 0.064453
v -0.353849 0.499423 0.062364
v -0.353786 0.494034 0.061645
v -0.353900 0.490991 0.077815
v -0.311785 0.489398 -0.088479
v -0.313398 0.490169 -0.089182
v -0.311279 0.488368 -0.097526
v -0.310026 0.489063 -0.094302
v -0.312521 0.492228 -0.089120
v -0.310956 0.490612 -0.094587
v -0.328360 0.502405 -0.051227
v -0.332933 0.511233 -0.040523
v -0.332696 0.503976 -0.036542
v -0.327781 0.498180 -0.048897
v -0.333078 0.496913 -0.051998
v -0.342376 0.503550 -0.045272
v -0.329043 0.508866 -0.026010
v -0.329692 0.502812 -0.029314
v -0.333104 0.510844 -0.027086
v -0.332910 0.516428 -0.030084
v -0.232183 0.602244 -0.061017
v -0.228151 0.604440 -0.057217
v -0.236443 0.598165 -0.048928
v -0.241105 0.599562 -0.054250
v -0.250073 0.596972 -0.049924
v -0.246355 0.597504 -0.044382
v -0.236331 0.606827 -0.063174
v -0.246183 0.605179 -0.057226
v -0.242438 0.607842 -0.047676
v -0.232461 0.609385 -0.058260
v -0.254195 0.603305 -0.037536
v -0.246047 0.603152 -0.040480
v -0.256188 0.607996 -0.047091
v -0.254939 0.601326 -0.053627
v -0.267904 0.595511 -0.008218
v -0.279179 0.581254 -0.006891
v -0.273798 0.584181 -0.020614
v -0.269869 0.601727 -0.016985
v -0.264906 0.587996 -0.036102
v -0.263419 0.597103 -0.032199
v -0.276007 0.572083 -0.029626
v -0.295754 0.549414 -0.019160
v -0.294463 0.556965 -0.008307
v -0.297476 0.562630 -0.000589
v -0.276358 0.581747 -0.055491
v -0.286613 0.598925 -0.056281
v -0.270451 0.604727 -0.048805
v -0.264594 0.595625 -0.052229
v -0.284815 0.603075 -0.033421
v -0.296631 0.596770 -0.020072
v -0.280794 0.565390 -0.040344
v -0.287331 0.561606 -0.048895
v -0.269870 0.583785 -0.044925
v -0.259250 0.592857 -0.047587
v -0.276549 0.577433 -0.070894
v -0.276040 0.586304 -0.064886
v -0.285420 0.572445 -0.064446
v -0.296703 0.560237 -0.056399
v -0.258285 0.608489 -0.004910
v -0.259643 0.611839 -0.009604
v -0.295758 0.595065 -0.003829
v -0.278555 0.607189 -0.005867
v -0.263207 0.615308 -0.005483
v -0.298566 0.590040 -0.053499
v -0.266834 0.580597 -0.079071
v -0.261712 0.582496 -0.085269
v -0.261641 0.586401 -0.084595
v -0.266442 0.585203 -0.077060
v -0.269605 0.585069 -0.080504
v -0.263660 0.585682 -0.085577
v -0.281055 0.585943 -0.073008
v -0.297218 0.583859 -0.063479
v -0.294076 0.601750 -0.041350
v -0.301443 0.593032 -0.035308
v -0.317117 0.580429 -0.024621
v -0.314494 0.580538 -0.011094
v -0.310964 0.579329 0.001264
v -0.316158 0.575856 -0.039075
v -0.313509 0.571509 -0.051403
v -0.317617 0.511169 -0.026098
v -0.313035 0.509981 -0.027163
v -0.314502 0.504140 -0.030064
v -0.320134 0.506617 -0.030945
v -0.320969 0.501058 -0.028193
v -0.317177 0.500671 -0.024938
v -0.314054 0.508201 -0.021860
v -0.309990 0.507118 -0.028948
v -0.311996 0.509319 -0.024900
v -0.321907 0.511700 -0.023364
v -0.319016 0.505110 -0.019460
v -0.327628 0.503379 -0.013538
v -0.322519 0.500493 -0.019977
v -0.324977 0.509854 -0.013939
v -0.319685 0.498648 -0.022198
v -0.324082 0.496339 -0.025826
v -0.327194 0.512577 -0.019545
v -0.332283 0.513946 -0.017909
v -0.330390 0.511699 -0.007458
v -0.325079 0.504425 -0.001694
v -0.333982 0.518236 0.004217
v -0.335895 0.510400 0.003159
v -0.332670 0.520177 -0.006370
v -0.333761 0.520463 -0.019102
v -0.329029 0.506002 0.005864
v -0.349792 0.512866 -0.044671
v -0.348767 0.502689 -0.040804
v -0.356836 0.504947 -0.044237
v -0.343240 0.499175 -0.031124
v -0.337273 0.498202 -0.023566
v -0.329481 0.522946 -0.031899
v -0.333061 0.521346 -0.040032
v -0.332603 0.501874 -0.053867
v -0.337670 0.509255 -0.046270
v -0.339571 0.522580 -0.044675
v -0.329524 0.498936 -0.019267
v -0.336732 0.501100 -0.014753
v -0.329206 0.496671 -0.025317
v -0.326017 0.501674 -0.028811
v -0.347495 0.504085 -0.003420
v -0.350398 0.501398 -0.013620
v -0.353407 0.499968 -0.024728
v -0.334532 0.500537 -0.008401
v -0.328585 0.497269 0.000968
v -0.316269 0.494664 0.011938
v -0.313920 0.500294 0.010622
v -0.317250 0.502634 0.015137
v -0.325130 0.497239 -0.020683
v -0.324967 0.534399 -0.043719
v -0.330959 0.540216 -0.046747
v -0.321641 0.551838 -0.051617
v -0.339671 0.554445 -0.039693
v -0.329100 0.559884 -0.043006
v -0.348261 0.536681 -0.040069
v -0.354751 0.545004 -0.042016
v -0.347080 0.557770 -0.046540
v -0.336526 0.562672 -0.026792
v -0.344101 0.563313 -0.029000
v -0.342889 0.573558 -0.033400
v -0.339420 0.571540 -0.041675
v -0.343622 0.595194 -0.039191
v -0.338567 0.593028 -0.038978
v -0.337410 0.596842 -0.042827
v -0.341860 0.596674 -0.046519
v -0.339727 0.594989 -0.051099
v -0.336315 0.592944 -0.046394
v -0.336544 0.589943 -0.042157
v -0.338094 0.583168 -0.049304
v -0.342408 0.585045 -0.053092
v -0.346248 0.587915 -0.049716
v -0.337447 0.582823 -0.042451
v -0.340764 0.584332 -0.036106
v -0.359184 0.572158 -0.039432
v -0.357959 0.575190 -0.033800
v -0.353942 0.582634 -0.037299
v -0.353920 0.581742 -0.043079
v -0.354715 0.576576 -0.029987
v -0.350193 0.586360 -0.035152
v -0.348677 0.590231 -0.043401
v -0.341788 0.571614 -0.049096
v -0.332340 0.499638 0.007381
v -0.340760 0.501589 0.000254
v -0.345566 0.522965 0.010412
v -0.347096 0.513268 0.004569
v -0.339170 0.544327 0.015010
v -0.354439 0.534870 0.019122
v -0.332449 0.534225 0.009714
v -0.326625 0.529086 0.003591
v -0.356963 0.511024 0.013307
v -0.359213 0.517521 0.019420
v -0.367928 0.526195 0.023243
v -0.336107 0.567714 -0.016163
v -0.353350 0.556913 -0.006858
v -0.357555 0.557547 -0.015777
v -0.353835 0.565597 -0.023319
v -0.367105 0.495276 -0.055432
v -0.363072 0.500647 -0.057854
v -0.370278 0.495812 -0.034452
v -0.367454 0.504779 -0.058559
v -0.367540 0.513711 -0.045946
v -0.358409 0.523480 -0.041621
v -0.370085 0.499096 -0.074578
v -0.367796 0.495860 -0.074420
v -0.370305 0.493237 -0.084498
v -0.372487 0.496070 -0.087822
v -0.369568 0.492464 -0.073473
v -0.372447 0.489963 -0.085768
v -0.373448 0.490561 -0.093147
v -0.372366 0.502874 -0.057100
v -0.376448 0.508047 -0.043220
v -0.385953 0.513601 -0.038033
v -0.376580 0.522453 -0.038008
v -0.365689 0.533092 -0.038255
v -0.365123 0.498831 0.001723
v -0.358997 0.504804 0.007635
v -0.366491 0.495591 -0.016388
v -0.384681 0.487215 -0.007164
v -0.389920 0.489286 -0.024816
v -0.371412 0.495953 -0.055024
v -0.377759 0.497073 -0.037743
v -0.393550 0.495919 -0.031676
v -0.370611 0.546732 0.002071
v -0.375009 0.545776 -0.005710
v -0.359824 0.566036 -0.024253
v -0.366112 0.555764 -0.017683
v -0.378284 0.546512 -0.009560
v -0.357778 0.502949 0.043398
v -0.360559 0.506454 0.025759
v -0.367984 0.512038 0.029603
v -0.364315 0.506472 0.045666
v -0.370657 0.501480 0.046136
v -0.376803 0.504435 0.029606
v -0.377738 0.518129 0.025023
v -0.385877 0.508960 0.022586
v -0.385683 0.499654 0.012715
v -0.360306 0.498561 0.022772
v -0.365115 0.493656 0.022283
v -0.374687 0.495783 0.025357
v -0.386569 0.525512 0.026093
v -0.395232 0.515978 0.028837
v -0.394060 0.504192 -0.036594
v -0.379204 0.501792 -0.041164
v -0.406239 0.505481 -0.039127
v -0.401937 0.509691 -0.035597
v -0.403009 0.500476 -0.038074
v -0.406390 0.496394 -0.033914
v -0.393232 0.519283 -0.034076
v -0.402428 0.500100 0.037161
v -0.405185 0.492342 0.032923
v -0.402594 0.483447 -0.002007
v -0.411761 0.493776 0.018147
v -0.382885 0.528596 -0.035545
v -0.398713 0.524223 -0.025504
v -0.387099 0.534899 -0.029128
v -0.406946 0.511030 -0.030570
v -0.385014 0.540598 -0.020848
v -0.395236 0.533168 -0.014435
v -0.413369 0.509397 -0.025113
v -0.407687 0.519320 -0.020129
v -0.402819 0.523618 -0.012814
v -0.411770 0.502115 -0.035699
v -0.415242 0.499589 -0.028718
v -0.407750 0.488594 -0.024957
v -0.397882 0.528052 -0.006299
v -0.411337 0.522677 -0.007740
v -0.407691 0.517955 -0.000866
v -0.422902 0.494072 -0.022571
v -0.418051 0.482455 -0.015229
v -0.395926 0.526944 0.011869
v -0.383502 0.537216 0.007235
v -0.387443 0.537013 -0.002432
v -0.395893 0.526597 0.001110
v -0.389803 0.541851 -0.006773
v -0.399715 0.539418 -0.006712
v -0.397833 0.536404 -0.004828
v -0.381824 0.544587 -0.015188
v -0.392145 0.540600 -0.011152
v -0.401954 0.534201 -0.008216
v -0.400992 0.538137 -0.009538
v -0.406981 0.513597 0.007774
v -0.406734 0.534836 -0.005494
v -0.409767 0.531843 -0.009865
v -0.415736 0.526138 -0.005591
v -0.409181 0.535408 -0.007443
v -0.412608 0.525189 -0.011937
v -0.416846 0.527078 -0.009483
v -0.415525 0.517327 -0.016188
v -0.420526 0.515237 -0.010940
v -0.420758 0.513290 -0.005032
v -0.419242 0.510943 0.000629
v -0.416930 0.507546 0.006986
v -0.415302 0.494720 0.032344
v -0.412101 0.510625 0.037860
v -0.404362 0.517820 0.026876
v -0.409048 0.510874 0.020163
v -0.416212 0.504235 0.033930
v -0.393393 0.530183 0.020634
v -0.417327 0.500275 0.013874
v -0.420259 0.506669 -0.019181
v -0.428805 0.500941 -0.009599
v -0.430890 0.500732 -0.001475
v -0.432933 0.488035 -0.012297
v -0.413028 0.481997 0.001974
v -0.429146 0.495141 0.013579
v -0.426889 0.487077 0.016116
v -0.456864 0.480953 0.006264
v -0.462674 0.478880 0.008694
v -0.461838 0.481000 0.008780
v -0.457783 0.483407 0.006325
v -0.456885 0.483777 0.009356
v -0.462503 0.480067 0.010765
v -0.465155 0.477858 0.010341
v -0.454429 0.477836 0.011468
v -0.454004 0.477999 0.014479
v -0.460173 0.476865 0.013562
v -0.461982 0.476406 0.012055
v -0.454734 0.481023 0.014624
v -0.462226 0.477980 0.013531
v -0.464651 0.476290 0.013217
v -0.462254 0.479115 0.012357
v -0.464612 0.477955 0.012351
v -0.462176 0.477203 0.010086
v -0.464453 0.476315 0.010993
v -0.250055 0.621654 -0.003594
v -0.249471 0.619967 -0.000558
v -0.243832 0.624270 -0.000845
v -0.244361 0.624472 -0.002967
v -0.247347 0.617753 -0.002807
v -0.242985 0.622311 -0.002238
v -0.248211 0.619775 -0.005898
v -0.243151 0.622595 -0.004155
v -0.261150 0.611124 -0.000005
v -0.273722 0.599061 0.000526
v -0.287645 0.586706 0.002318
v -0.303808 0.571385 0.004951
v -0.316265 0.547363 0.006943
v -0.321455 0.556725 0.011293
v -0.327838 0.566248 0.007786
v -0.345260 0.554835 0.013386
v -0.332152 0.568775 -0.003762
v -0.349759 0.558519 0.003121
v -0.361485 0.545205 0.019690
v -0.367510 0.548782 0.011561
v -0.376208 0.535388 0.025672
v -0.381670 0.539898 0.017647
v -0.313570 0.540804 0.000139
v -0.326622 0.528011 -0.007781
v -0.315155 0.536678 -0.010960
v -0.328029 0.526689 -0.020717
v -0.318546 0.533565 -0.023465
v -0.300450 0.544682 -0.030011
v -0.320954 0.532490 -0.035014
v -0.305419 0.543285 -0.039909
v -0.312714 0.545462 -0.048844
v -0.307429 0.564660 -0.059288
v -0.294911 0.576350 -0.068625
v -0.280865 0.579994 -0.074733
v -0.269560 0.580970 -0.081669
v -0.263971 0.582816 -0.086347
v -0.319514 0.497170 0.016145
v -0.307535 0.493814 0.021580
v -0.309686 0.495894 0.024119
v -0.305682 0.496920 0.020578
v -0.308173 0.498743 0.023387
v -0.455556 0.478944 0.008413
v -0.447295 0.483167 -0.000937
v -0.444434 0.479115 0.003421
v -0.442141 0.478569 0.009465
v -0.430349 0.479649 -0.005087
v -0.426536 0.479973 0.006025
v -0.441449 0.480156 0.015783
v -0.443154 0.485765 0.015105
v -0.430754 0.498918 0.006627
v -0.444739 0.488797 0.010436
v -0.455624 0.482744 0.012298
v -0.446125 0.490022 0.005162
v -0.446970 0.489747 -0.000159
v -0.405003 0.507459 0.040081
v -0.414133 0.495138 0.054137
v -0.415277 0.501742 0.054809
v -0.420422 0.504838 0.052561
v -0.427438 0.498673 0.069884
v -0.430789 0.500049 0.065969
v -0.423745 0.500148 0.048944
v -0.433230 0.497543 0.062869
v -0.440097 0.497721 0.072358
v -0.444270 0.495150 0.072669
v -0.423110 0.493009 0.048203
v -0.432943 0.493091 0.062776
v -0.444264 0.493618 0.072630
v -0.417611 0.490083 0.051328
v -0.429763 0.491179 0.066058
v -0.439412 0.492289 0.072171
v -0.427049 0.493266 0.069869
v -0.441314 0.493733 0.075849
v -0.441557 0.495352 0.076099
v -0.371147 0.552456 -0.021768
v -0.375398 0.548957 -0.027234
v -0.363766 0.564400 -0.028627
v -0.365939 0.561533 -0.034260
v -0.365604 0.557260 -0.040069
v -0.376385 0.545104 -0.034165
v -0.361647 0.551338 -0.043559
v -0.372363 0.539574 -0.039000
v -0.358064 0.567575 -0.044865
v -0.353775 0.562187 -0.048329
v -0.351894 0.577944 -0.048282
v -0.347294 0.574120 -0.051145
v -0.374206 0.498779 -0.055851
v -0.374242 0.498047 -0.073331
v -0.375996 0.494403 -0.071969
v -0.373150 0.491864 -0.072007
v -0.379129 0.490472 -0.084393
v -0.375392 0.487711 -0.084475
v -0.378730 0.489605 -0.090311
v -0.375582 0.487669 -0.090441
v -0.376563 0.494205 -0.086200
v -0.376942 0.491670 -0.091264
v -0.369735 0.493785 0.045308
v -0.362879 0.491985 0.043729
v -0.362569 0.494690 0.064338
v -0.358392 0.492423 0.062693
v -0.357387 0.495946 0.042716
v -0.363514 0.499971 0.065430
v -0.349536 0.575752 -0.029114
v -0.345750 0.586272 -0.033587
v -0.324546 0.508016 -0.028313
v -0.321710 0.496827 -0.063604
v -0.324268 0.496057 -0.064843
v -0.323585 0.493265 -0.063761
v -0.317531 0.492035 -0.077937
v -0.316069 0.490883 -0.077209
v -0.314542 0.492492 -0.076911
v -0.320576 0.494287 -0.062300
v -0.315944 0.493822 -0.077662
v -0.310583 0.491562 -0.088359
v -0.309199 0.490448 -0.093692
v -0.255436 0.594801 -0.040497
v -0.226834 0.609951 -0.066159
v -0.228763 0.607004 -0.069068
v -0.226052 0.604941 -0.067463
v -0.223579 0.607601 -0.065027
v -0.445412 0.493344 0.077124
v -0.445552 0.494150 0.077469
vt 0.036397 0.463989
vt 0.034375 0.462963
vt 0.037220 0.460168
vt 0.039007 0.461669
vt 0.638631 0.756331
vt 0.641769 0.755021
vt 0.643903 0.754920
vt 0.640978 0.756980
vt 0.641517 0.754659
vt 0.642580 0.754013
vt 0.040028 0.464384
vt 0.038641 0.466482
vt 0.032582 0.472115
vt 0.036093 0.473713
vt 0.631072 0.752961
vt 0.632580 0.750820
vt 0.640318 0.752700
vt 0.639718 0.754186
vt 0.638648 0.755314
vt 0.927750 0.993114
vt 0.925570 0.994169
vt 0.923684 0.991703
vt 0.924451 0.990630
vt 0.922879 0.994988
vt 0.922422 0.991942
vt 0.242906 0.116997
vt 0.247430 0.111838
vt 0.248918 0.116560
vt 0.242938 0.120696
vt 0.643891 0.918741
vt 0.640965 0.918257
vt 0.642839 0.903834
vt 0.647323 0.910413
vt 0.637283 0.894830
vt 0.642400 0.897947
vt 0.635432 0.895080
vt 0.634635 0.895911
vt 0.636889 0.904288
vt 0.874991 0.684890
vt 0.877053 0.683056
vt 0.873538 0.689300
vt 0.870337 0.690237
vt 0.868256 0.695136
vt 0.870927 0.694557
vt 0.988415 0.701135
vt 0.991337 0.706675
vt 0.986527 0.709965
vt 0.984889 0.702542
vt 0.981206 0.702724
vt 0.980259 0.710068
vt 0.875152 0.695767
vt 0.873886 0.693811
vt 0.877252 0.687425
vt 0.879549 0.690008
vt 0.046904 0.357799
vt 0.045771 0.354183
vt 0.054257 0.350569
vt 0.053115 0.354902
vt 0.506682 0.973419
vt 0.517359 0.982275
vt 0.510160 0.982790
vt 0.500047 0.972959
vt 0.869152 0.707381
vt 0.874757 0.701850
vt 0.876612 0.711816
vt 0.870177 0.718963
vt 0.875474 0.738510
vt 0.883066 0.735391
vt 0.889372 0.734633
vt 0.886013 0.716023
vt 0.038042 0.373039
vt 0.029776 0.365732
vt 0.037009 0.358084
vt 0.041877 0.362334
vt 0.883561 0.695037
vt 0.024517 0.354931
vt 0.022419 0.341290
vt 0.033407 0.348809
vt 0.014357 0.351083
vt 0.011637 0.336073
vt 0.862942 0.723224
vt 0.857239 0.727693
vt 0.854038 0.713039
vt 0.862540 0.710721
vt 0.866171 0.702140
vt 0.861871 0.702724
vt 0.846081 0.714829
vt 0.851192 0.710250
vt 0.847759 0.721467
vt 0.850860 0.732159
vt 0.505685 0.962665
vt 0.502532 0.962295
vt 0.480589 0.977255
vt 0.493194 0.969490
vt 0.483102 0.981918
vt 0.499441 0.960631
vt 0.022495 0.370645
vt 0.035593 0.380356
vt 0.843693 0.709936
vt 0.841554 0.707758
vt 0.842097 0.706187
vt 0.844920 0.708036
vt 0.036742 0.389975
vt 0.037858 0.388627
vt 0.038079 0.393944
vt 0.037219 0.394470
vt 0.033392 0.384641
vt 0.021740 0.377989
vt 0.022528 0.360797
vt 0.016059 0.361589
vt 0.818215 0.743206
vt 0.809057 0.743794
vt 0.805305 0.731135
vt 0.816232 0.729826
vt 0.800475 0.743363
vt 0.794728 0.732431
vt 0.828166 0.727061
vt 0.828908 0.742881
vt 0.836818 0.739579
vt 0.835431 0.724706
vt 0.637221 0.885367
vt 0.637720 0.882787
vt 0.641511 0.886518
vt 0.639943 0.889461
vt 0.642680 0.892332
vt 0.644411 0.889149
vt 0.980849 0.330081
vt 0.982800 0.335424
vt 0.979975 0.332505
vt 0.979494 0.331185
vt 0.977826 0.328086
vt 0.978694 0.324497
vt 0.982745 0.326622
vt 0.988935 0.322969
vt 0.986086 0.328038
vt 0.983909 0.321405
vt 0.983885 0.331737
vt 0.985633 0.330671
vt 0.984501 0.334794
vt 0.988443 0.332256
vt 0.979171 0.319981
vt 0.978592 0.315933
vt 0.985436 0.316996
vt 0.990461 0.318651
vt 0.955762 0.673008
vt 0.952394 0.680039
vt 0.949629 0.675256
vt 0.953114 0.670816
vt 0.976991 0.311338
vt 0.986577 0.309097
vt 0.943055 0.679192
vt 0.942624 0.675590
vt 0.256997 0.098833
vt 0.246754 0.099964
vt 0.252944 0.094060
vt 0.263232 0.089961
vt 0.652604 0.909297
vt 0.651222 0.903107
vt 0.649732 0.898748
vt 0.967894 0.303618
vt 0.970073 0.307356
vt 0.962147 0.305781
vt 0.962445 0.302130
vt 0.242275 0.113633
vt 0.247446 0.106768
vt 0.255858 0.108198
vt 0.253971 0.113223
vt 0.990166 0.328705
vt 0.992629 0.327709
vt 0.992812 0.332601
vt 0.990298 0.331649
vt 0.642017 0.895097
vt 0.647353 0.893417
vt 0.234864 0.068021
vt 0.241340 0.073941
vt 0.241379 0.084826
vt 0.236269 0.080014
vt 0.248671 0.080601
vt 0.245661 0.088817
vt 0.939331 0.687682
vt 0.933347 0.691542
vt 0.929457 0.689136
vt 0.935263 0.685538
vt 0.926609 0.683933
vt 0.922476 0.685939
vt 0.934167 0.679789
vt 0.932054 0.678098
vt 0.988131 0.329453
vt 0.993789 0.324126
vt 0.856881 0.757037
vt 0.861019 0.765887
vt 0.857506 0.765984
vt 0.851562 0.757887
vt 0.847540 0.748781
vt 0.842500 0.762878
vt 0.840495 0.753541
vt 0.850494 0.768230
vt 0.847802 0.769532
vt 0.843681 0.768483
vt 0.833307 0.761217
vt 0.836439 0.766346
vt 0.837723 0.772449
vt 0.839901 0.773149
vt 0.837572 0.786005
vt 0.839645 0.784041
vt 0.841637 0.786441
vt 0.839257 0.790021
vt 0.840304 0.194756
vt 0.837671 0.192297
vt 0.842075 0.192188
vt 0.844260 0.194669
vt 0.840802 0.782624
vt 0.842370 0.783725
vt 0.841832 0.200904
vt 0.837936 0.198763
vt 0.834724 0.196035
vt 0.842742 0.780047
vt 0.840736 0.779252
vt 0.838968 0.779723
vt 0.819472 0.197998
vt 0.817011 0.194199
vt 0.822988 0.193133
vt 0.826303 0.195683
vt 0.815768 0.191023
vt 0.824189 0.190770
vt 0.831109 0.192633
vt 0.841603 0.773830
vt 0.940694 0.682228
vt 0.946418 0.685192
vt 0.961784 0.681654
vt 0.959385 0.684197
vt 0.951101 0.688249
vt 0.775645 0.161609
vt 0.766459 0.172837
vt 0.760584 0.164093
vt 0.770652 0.157903
vt 0.966130 0.661027
vt 0.969620 0.664055
vt 0.969537 0.691343
vt 0.976301 0.690942
vt 0.757115 0.179989
vt 0.751388 0.173650
vt 0.797928 0.149970
vt 0.804088 0.154965
vt 0.800025 0.170816
vt 0.794815 0.165858
vt 0.790314 0.180538
vt 0.798357 0.186697
vt 0.834226 0.772420
vt 0.831642 0.774477
vt 0.274910 0.085868
vt 0.275732 0.089971
vt 0.260267 0.074765
vt 0.277521 0.093434
vt 0.270804 0.096691
vt 0.266194 0.101983
vt 0.828645 0.260523
vt 0.830695 0.259588
vt 0.835613 0.264852
vt 0.835742 0.267760
vt 0.292058 0.090154
vt 0.303562 0.091222
vt 0.302661 0.093296
vt 0.292061 0.092058
vt 0.309566 0.092388
vt 0.307775 0.094985
vt 0.819738 0.251085
vt 0.809280 0.244008
vt 0.814234 0.239625
vt 0.822471 0.248467
vt 0.800884 0.238955
vt 0.807448 0.230794
vt 0.273879 0.105666
vt 0.278790 0.100780
vt 0.939894 0.693326
vt 0.236701 0.057072
vt 0.232467 0.056236
vt 0.229131 0.055185
vt 0.228325 0.065251
vt 0.248207 0.066601
vt 0.248567 0.048955
vt 0.260288 0.055405
vt 0.275970 0.083334
vt 0.265859 0.071818
vt 0.266620 0.057725
vt 0.780944 0.191984
vt 0.784431 0.198527
vt 0.806770 0.190805
vt 0.797901 0.195379
vt 0.805492 0.187861
vt 0.786278 0.202738
vt 0.030992 0.483912
vt 0.027040 0.493460
vt 0.022411 0.490934
vt 0.026675 0.481924
vt 0.022371 0.479922
vt 0.016465 0.487959
vt 0.026922 0.500024
vt 0.023514 0.499017
vt 0.749415 0.184307
vt 0.747319 0.178736
vt 0.010103 0.491150
vt 0.015696 0.493694
vt 0.234763 0.036890
vt 0.609550 0.746447
vt 0.606378 0.748813
vt 0.598201 0.739965
vt 0.604242 0.738234
vt 0.602817 0.753258
vt 0.592393 0.751848
vt 0.755220 0.190146
vt 0.747240 0.190718
vt 0.745566 0.186260
vt 0.601389 0.758360
vt 0.593814 0.759445
vt 0.807883 0.252704
vt 0.798102 0.252671
vt 0.796343 0.247262
vt 0.808370 0.248811
vt 0.787853 0.249894
vt 0.789702 0.245211
vt 0.791350 0.252369
vt 0.891896 0.482860
vt 0.892141 0.487346
vt 0.890603 0.492522
vt 0.889997 0.491534
vt 0.794311 0.236471
vt 0.578851 0.762650
vt 0.574978 0.758058
vt 0.249230 0.034138
vt 0.237993 0.015320
vt 0.800582 0.226233
vt 0.786556 0.234551
vt 0.794270 0.222014
vt 0.785074 0.245946
vt 0.790174 0.214719
vt 0.782263 0.221781
vt 0.780586 0.249693
vt 0.779137 0.244976
vt 0.971055 0.702023
vt 0.977303 0.701177
vt 0.978139 0.705587
vt 0.971925 0.707749
vt 0.783568 0.253144
vt 0.780266 0.256298
vt 0.891933 0.473736
vt 0.896482 0.478087
vt 0.895308 0.483869
vt 0.971713 0.698761
vt 0.964985 0.701714
vt 0.965041 0.697158
vt 0.264780 0.042510
vt 0.268845 0.048893
vt 0.897533 0.470095
vt 0.892860 0.462439
vt 0.767044 0.204577
vt 0.769988 0.200373
vt 0.775903 0.204654
vt 0.768403 0.210846
vt 0.778139 0.210368
vt 0.396201 0.875230
vt 0.395655 0.877724
vt 0.391320 0.877244
vt 0.391929 0.874027
vt 0.394028 0.882202
vt 0.388935 0.884000
vt 0.787721 0.208425
vt 0.781128 0.213998
vt 0.777833 0.223305
vt 0.776255 0.220752
vt 0.778298 0.226391
vt 0.776758 0.218954
vt 0.391673 0.891228
vt 0.397437 0.888906
vt 0.774694 0.223589
vt 0.776480 0.226837
vt 0.962017 0.707762
vt 0.955209 0.708845
vt 0.956655 0.706508
vt 0.961984 0.699301
vt 0.955590 0.703280
vt 0.955014 0.701459
vt 0.954915 0.699560
vt 0.957268 0.696215
vt 0.960283 0.697541
vt 0.968630 0.709032
vt 0.965903 0.705017
vt 0.772298 0.257671
vt 0.771910 0.254686
vt 0.773446 0.252450
vt 0.776384 0.250090
vt 0.769495 0.262143
vt 0.766302 0.260067
vt 0.769218 0.258721
vt 0.770504 0.257028
vt 0.877161 0.430558
vt 0.867625 0.424004
vt 0.864379 0.417962
vt 0.875245 0.425426
vt 0.230331 0.006218
vt 0.226612 0.013635
vt 0.387609 0.909553
vt 0.384546 0.900596
vt 0.389799 0.898208
vt 0.392961 0.909490
vt 0.564122 0.758669
vt 0.559832 0.758001
vt 0.558833 0.745561
vt 0.563141 0.747659
vt 0.380171 0.892885
vt 0.385931 0.890020
vt 0.394883 0.896082
vt 0.395880 0.899130
vt 0.776149 0.257032
vt 0.769905 0.265877
vt 0.765827 0.269152
vt 0.775493 0.266080
vt 0.767703 0.272556
vt 0.248911 0.025029
vt 0.238710 0.008086
vt 0.879987 0.438220
vt 0.869087 0.428788
vt 0.888684 0.435352
vt 0.891990 0.439801
vt 0.755253 0.289324
vt 0.752515 0.293646
vt 0.753214 0.291925
vt 0.755490 0.288253
vt 0.754808 0.288536
vt 0.752660 0.292305
vt 0.751533 0.294904
vt 0.912421 0.436487
vt 0.911379 0.434980
vt 0.915533 0.433182
vt 0.917119 0.433340
vt 0.911033 0.432925
vt 0.916514 0.431827
vt 0.918603 0.431759
vt 0.751035 0.293556
vt 0.750976 0.295223
vt 0.752198 0.294930
vt 0.752109 0.296665
vt 0.780846 0.079923
vt 0.780164 0.080390
vt 0.779799 0.075681
vt 0.780239 0.075774
vt 0.779224 0.079554
vt 0.778861 0.074310
vt 0.504954 0.952926
vt 0.506048 0.948920
vt 0.506723 0.948746
vt 0.506715 0.952863
vt 0.780620 0.074826
vt 0.781985 0.077685
vt 0.503493 0.951954
vt 0.781845 0.091416
vt 0.780165 0.089905
vt 0.778200 0.099840
vt 0.781100 0.107362
vt 0.783703 0.091193
vt 0.784624 0.104578
vt 0.774828 0.114134
vt 0.782224 0.119292
vt 0.789166 0.119467
vt 0.773159 0.130267
vt 0.780314 0.136613
vt 0.784657 0.138862
vt 0.774782 0.144651
vt 0.780112 0.149216
vt 0.785048 0.154930
vt 0.779787 0.168478
vt 0.792368 0.145572
vt 0.789899 0.159380
vt 0.784989 0.173328
vt 0.771172 0.179524
vt 0.775730 0.186132
vt 0.762163 0.186648
vt 0.765436 0.194313
vt 0.756490 0.193629
vt 0.374353 0.886642
vt 0.378537 0.883710
vt 0.967909 0.647873
vt 0.971571 0.646831
vt 0.893236 0.751224
vt 0.886994 0.752364
vt 0.976693 0.657026
vt 0.977527 0.641749
vt 0.961935 0.654642
vt 0.963735 0.644220
vt 0.879400 0.753563
vt 0.977520 0.305972
vt 0.975757 0.300467
vt 0.982640 0.295486
vt 0.985823 0.302970
vt 0.868137 0.741832
vt 0.871313 0.755583
vt 0.863862 0.756568
vt 0.861379 0.744093
vt 0.854264 0.746247
vt 0.843865 0.735988
vt 0.841401 0.724314
vt 0.838581 0.715090
vt 0.842373 0.714917
vt 0.036115 0.392125
vt 0.031533 0.387023
vt 0.841558 0.710396
vt 0.036711 0.395422
vt 0.840632 0.707973
vt 0.963496 0.294881
vt 0.966882 0.298796
vt 0.993061 0.304242
vt 0.992721 0.298371
vt 0.561434 0.982092
vt 0.559006 0.980186
vt 0.564276 0.976011
vt 0.566188 0.977376
vt 0.557356 0.977343
vt 0.563424 0.973852
vt 0.931405 0.681314
vt 0.541182 0.023160
vt 0.545641 0.018552
vt 0.547435 0.021242
vt 0.541857 0.025224
vt 0.538990 0.021769
vt 0.543392 0.016247
vt 0.915969 0.438243
vt 0.913671 0.438086
vt 0.917877 0.434441
vt 0.918936 0.434518
vt 0.919180 0.433059
vt 0.912949 0.445354
vt 0.907921 0.444572
vt 0.904975 0.441323
vt 0.899409 0.453376
vt 0.894783 0.446819
vt 0.903086 0.437076
vt 0.902101 0.433322
vt 0.762305 0.271148
vt 0.757936 0.281959
vt 0.756205 0.284057
vt 0.759629 0.274399
vt 0.911439 0.430900
vt 0.905001 0.430487
vt 0.916565 0.430922
vt 0.760092 0.279592
vt 0.753898 0.289262
vt 0.761577 0.278848
vt 0.760351 0.282440
vt 0.761337 0.262691
vt 0.886294 0.451526
vt 0.766569 0.279311
vt 0.760989 0.285888
vt 0.900729 0.460452
vt 0.750493 0.296483
vt 0.750246 0.294279
vt 0.262301 0.029925
vt 0.379163 0.901179
vt 0.376136 0.894849
vt 0.382445 0.910211
vt 0.381033 0.921961
vt 0.377013 0.911938
vt 0.384779 0.920681
vt 0.370676 0.901755
vt 0.388666 0.920007
vt 0.387442 0.931079
vt 0.390763 0.929991
vt 0.392732 0.919567
vt 0.394364 0.930638
vt 0.391504 0.935195
vt 0.393491 0.937029
vt 0.561919 0.767545
vt 0.555424 0.776313
vt 0.553416 0.776006
vt 0.558549 0.766861
vt 0.394386 0.937693
vt 0.396103 0.929317
vt 0.565271 0.768475
vt 0.557226 0.778482
vt 0.550867 0.782316
vt 0.547992 0.783345
vt 0.567200 0.770999
vt 0.558273 0.781129
vt 0.548797 0.784678
vt 0.384337 0.933709
vt 0.391032 0.937708
vt 0.390958 0.938974
vt 0.773999 0.227311
vt 0.773689 0.224514
vt 0.773094 0.226827
vt 0.772413 0.224035
vt 0.775521 0.216720
vt 0.797796 0.201573
vt 0.799722 0.207222
vt 0.808269 0.195741
vt 0.810584 0.200335
vt 0.813191 0.205438
vt 0.803378 0.212935
vt 0.817397 0.210186
vt 0.808545 0.217414
vt 0.822977 0.215082
vt 0.814644 0.221896
vt 0.821783 0.202154
vt 0.825634 0.206172
vt 0.830124 0.209918
vt 0.829032 0.199022
vt 0.832716 0.202068
vt 0.836646 0.204695
vt 0.817811 0.254079
vt 0.817532 0.256332
vt 0.827001 0.261045
vt 0.826430 0.262653
vt 0.826377 0.264711
vt 0.832873 0.269476
vt 0.832528 0.271852
vt 0.291808 0.088252
vt 0.305644 0.088790
vt 0.835173 0.272489
vt 0.835376 0.274537
vt 0.310940 0.091048
vt 0.834187 0.268314
vt 0.835890 0.271916
vt 0.837778 0.273261
vt 0.612836 0.758598
vt 0.615885 0.756548
vt 0.618435 0.753356
vt 0.628607 0.757244
vt 0.630211 0.755056
vt 0.620351 0.750329
vt 0.033331 0.486606
vt 0.030914 0.496897
vt 0.623026 0.747620
vt 0.029386 0.470327
vt 0.026819 0.468343
vt 0.032656 0.461717
vt 0.020815 0.476982
vt 0.031328 0.505233
vt 0.836108 0.775489
vt 0.835004 0.776932
vt 0.832402 0.774757
vt 0.837517 0.780790
vt 0.836848 0.781998
vt 0.826951 0.188400
vt 0.833613 0.189023
vt 0.266521 0.112283
vt 0.272673 0.115471
vt 0.292752 0.093598
vt 0.645121 0.892112
vt 0.638496 0.891628
vt 0.634310 0.888306
vt 0.635987 0.886754
vt 0.241127 0.111335
vt 0.633817 0.930608
vt 0.632191 0.931609
vt 0.634999 0.921806
vt 0.637177 0.920098
vt 0.235282 0.123529
vt 0.236038 0.124396
vt 0.229592 0.135606
vt 0.229229 0.136054
vt 0.633015 0.941884
vt 0.635340 0.929861
vt 0.636910 0.929524
vt 0.634090 0.941738
vt 0.631863 0.941965
vt 0.224093 0.145008
vt 0.223197 0.146218
vt 0.227207 0.138731
vt 0.228318 0.137430
vt 0.224355 0.145098
vt 0.229438 0.136163
vt 0.224339 0.145408
vt 0.235402 0.126315
vt 0.224204 0.145172
vt 0.221858 0.150021
vt 0.221654 0.149835
vt 0.221236 0.150173
vt 0.630097 0.887529
vt 0.632482 0.887227
vt 0.977013 0.331621
vt 0.864904 0.695604
vt 0.870446 0.699791
vt 0.866719 0.689491
vt 0.991755 0.700114
vt 0.995000 0.705339
vt 0.984260 0.697832
vt 0.986169 0.696704
vt 0.877732 0.679673
vt 0.875490 0.681308
vt 0.877072 0.679129
vt 0.981499 0.697966
vt 0.879440 0.678613
vt 0.393622 0.940556
vt 0.393179 0.939446
vt 0.545236 0.786509
vt 0.923061 0.989940
vt 0.879075 0.677262
vt 0.841172 0.706694
vt 0.539409 0.024053
vt 0.894478 0.488871
vn 0.4362 0.8209 0.3687
vn -0.6466 0.4742 0.5975
vn -0.1741 0.2253 0.9586
vn 0.8202 -0.0811 0.5663
vn -0.7736 -0.5422 0.3279
vn -0.3815 -0.6726 0.6341
vn 0.3070 -0.9258 0.2206
vn 0.9114 -0.4059 -0.0686
vn 0.9385 0.3439 -0.0316
vn 0.0778 0.9659 0.2469
vn 0.8880 0.4525 -0.0816
vn 0.8264 -0.5276 -0.1967
vn 0.0066 -0.9999 -0.0138
vn 0.2837 -0.9348 0.2136
vn -0.9067 -0.3383 -0.2519
vn -0.3616 -0.3538 -0.8626
vn 0.6918 -0.6927 -0.2039
vn -0.2590 0.9322 -0.2528
vn -0.0791 0.8159 -0.5727
vn 0.6961 0.7091 -0.1126
vn 0.9367 0.1963 -0.2899
vn 0.8052 -0.5900 -0.0596
vn 0.6382 -0.5438 0.5450
vn -0.5884 -0.7957 -0.1440
vn -0.2602 -0.6521 -0.7120
vn 0.2374 0.7354 -0.6347
vn 0.2591 -0.2798 -0.9244
vn 0.8960 0.3732 -0.2404
vn 0.9853 -0.1707 0.0057
vn 0.0561 -0.9135 -0.4030
vn 0.8364 -0.2387 0.4934
vn 0.6606 -0.6077 0.4409
vn -0.0095 -0.8772 -0.4800
vn 0.1417 -0.8812 -0.4510
vn 0.4800 -0.7450 0.4632
vn -0.5945 0.2351 -0.7689
vn -0.3981 0.2832 -0.8725
vn 0.2653 0.8708 0.4138
vn 0.1611 0.9480 0.2746
vn 0.2086 0.4349 0.8760
vn 0.4415 0.2695 0.8558
vn -0.1900 0.9787 -0.0775
vn -0.1078 0.0507 -0.9929
vn 0.8193 -0.5352 0.2056
vn 0.7309 -0.4672 0.4975
vn 0.9482 -0.1348 0.2875
vn 0.5453 0.5201 -0.6574
vn 0.7872 -0.5681 0.2401
vn 0.4837 0.3458 0.8040
vn 0.8246 -0.5435 0.1567
vn 0.7047 -0.6855 0.1832
vn 0.7333 -0.5421 0.4103
vn 0.6229 -0.3767 0.6856
vn 0.7394 -0.3172 -0.5939
vn -0.1165 0.7490 -0.6522
vn -0.0423 0.9294 -0.3665
vn 0.2789 -0.1246 -0.9522
vn -0.0403 0.9940 0.1015
vn -0.4271 0.9036 -0.0322
vn 0.7597 -0.6285 -0.1671
vn 0.6573 -0.6720 -0.3411
vn 0.7328 -0.6230 -0.2737
vn 0.4731 -0.7952 -0.3791
vn 0.4764 -0.8779 -0.0477
vn 0.7272 0.6641 -0.1738
vn 0.4209 -0.7598 -0.4955
vn 0.3128 -0.6683 -0.6750
vn 0.7359 -0.6713 0.0885
vn 0.3044 0.1654 -0.9381
vn -0.4405 0.7521 0.4902
vn -0.4232 0.8709 0.2498
vn -0.4632 0.8860 -0.0224
vn -0.5622 0.7154 -0.4150
vn 0.5218 -0.8291 0.2007
vn 0.7869 -0.5322 -0.3123
vn 0.7685 0.6320 -0.0993
vn 0.6516 0.5574 0.5145
vn -0.4019 0.7628 -0.5066
vn -0.1240 0.6591 -0.7418
vn -0.3137 0.7521 -0.5797
vn -0.5298 0.6162 -0.5828
vn -0.5126 0.8468 -0.1424
vn -0.6597 0.7463 -0.0887
vn -0.6345 0.7674 -0.0921
vn -0.5753 0.8032 0.1543
vn -0.3550 0.6677 0.6543
vn -0.6880 0.6487 -0.3253
vn -0.6996 0.4319 -0.5693
vn 0.1194 0.9790 -0.1655
vn 0.3384 0.8694 -0.3599
vn 0.6164 -0.3931 -0.6823
vn -0.0439 0.1797 -0.9828
vn 0.1170 -0.5820 -0.8047
vn 0.6895 -0.7242 -0.0120
vn 0.6720 0.2033 0.7121
vn 0.8828 -0.0691 -0.4647
vn 0.7843 0.3451 0.5155
vn 0.1616 0.9865 -0.0277
vn 0.7039 0.0224 0.7100
vn 0.6737 -0.6312 0.3843
vn 0.4666 -0.5708 0.6756
vn 0.7635 0.5124 0.3931
vn 0.6137 -0.7229 0.3176
vn 0.1602 -0.9267 -0.3400
vn 0.3710 0.9256 -0.0748
vn 0.8188 0.5671 -0.0896
vn 0.8915 0.4221 0.1644
vn 0.9565 0.1701 -0.2368
vn 0.6593 -0.3713 0.6538
vn 0.2843 0.0494 0.9575
vn 0.9538 -0.2959 0.0518
vn 0.9611 -0.2760 0.0019
vn 0.0043 0.7829 0.6221
vn -0.0692 0.0192 -0.9974
vn -0.0795 -0.8471 -0.5254
vn 0.4245 -0.5068 -0.7503
vn 0.0217 -0.9836 -0.1788
vn -0.0097 -0.9998 -0.0199
vn 0.8287 -0.5557 -0.0664
vn 0.7620 -0.2793 -0.5843
vn -0.3965 0.5075 -0.7650
vn 0.0427 0.3440 -0.9380
vn 0.1048 0.0374 -0.9938
vn 0.0447 -0.9112 0.4095
vn -0.0062 -0.9749 0.2226
vn -0.1732 -0.9194 -0.3531
vn -0.1548 -0.2456 -0.9569
vn 0.1041 -0.8871 0.4496
vn 0.1498 -0.9703 0.1898
vn 0.1060 -0.9926 -0.0599
vn 0.0285 -0.9980 -0.0555
vn 0.0885 -0.9663 -0.2418
vn 0.1658 -0.9394 -0.3001
vn 0.7554 0.3241 -0.5695
vn -0.0406 0.8931 0.4481
vn 0.1260 -0.8676 0.4811
vn 0.4002 -0.5774 -0.7116
vn -0.1810 -0.1005 -0.9783
vn -0.3335 -0.0988 -0.9375
vn 0.1658 0.2537 -0.9530
vn -0.5801 0.4952 -0.6467
vn -0.1358 0.0342 -0.9901
vn 0.0499 -0.2381 -0.9700
vn 0.3357 -0.3017 -0.8923
vn -0.4261 0.8751 -0.2294
vn 0.5402 0.6668 0.5135
vn 0.7694 0.0838 0.6332
vn 0.9891 -0.1469 -0.0079
vn -0.2875 0.8229 0.4901
vn 0.6293 0.4117 0.6592
vn 0.5903 0.7761 0.2220
vn -0.2076 0.9264 -0.3142
vn 0.1915 0.5289 -0.8268
vn 0.9262 0.2742 -0.2590
vn 0.9669 -0.0391 0.2520
vn 0.8302 -0.1735 -0.5298
vn 0.0472 0.0729 -0.9962
vn -0.6713 0.3978 -0.6254
vn 0.9749 -0.1524 0.1624
vn 0.6946 0.0815 0.7147
vn -0.8732 0.4181 -0.2506
vn -0.8221 0.5379 0.1865
vn -0.8228 0.5509 0.1399
vn -0.8463 0.4509 -0.2837
vn -0.4564 0.5749 0.6791
vn -0.6054 0.6259 0.4917
vn -0.7768 0.6208 -0.1062
vn 0.6216 -0.2717 -0.7347
vn -0.5868 -0.4621 0.6649
vn -0.4086 -0.7622 0.5021
vn 0.4291 -0.3307 0.8406
vn 0.3299 -0.5112 0.7936
vn 0.2621 -0.0257 0.9647
vn 0.3472 -0.0334 0.9372
vn 0.4120 -0.3229 0.8520
vn 0.6545 -0.5644 0.5030
vn 0.8120 -0.3153 0.4912
vn 0.6181 0.0129 0.7860
vn 0.3012 0.0957 0.9487
vn -0.5246 0.8493 -0.0591
vn -0.4666 0.8831 0.0484
vn -0.2941 0.8742 0.3863
vn 0.1233 0.6163 0.7778
vn 0.4114 -0.9097 0.0572
vn 0.9586 -0.0308 -0.2829
vn 0.2273 -0.9583 -0.1733
vn 0.1646 0.8668 -0.4707
vn -0.1034 0.5065 -0.8560
vn -0.1063 0.2003 -0.9739
vn 0.2634 0.9048 -0.3346
vn 0.9725 -0.0075 -0.2327
vn 0.9682 -0.0476 -0.2457
vn 0.3797 0.7652 -0.5199
vn 0.6126 -0.7890 0.0478
vn 0.7973 -0.5935 -0.1096
vn 0.3274 -0.1114 -0.9383
vn -0.7153 0.6293 -0.3040
vn -0.5774 0.3475 -0.7388
vn -0.2991 0.1759 -0.9379
vn -0.2522 0.2222 -0.9418
vn -0.1370 0.0197 -0.9904
vn 0.3513 -0.9273 0.1294
vn 0.7120 -0.6657 0.2235
vn 0.3331 -0.9425 0.0280
vn 0.2787 -0.9486 0.1500
vn 0.1132 -0.9214 -0.3716
vn -0.4173 -0.9068 0.0592
vn -0.3007 -0.8337 -0.4632
vn -0.0136 -0.7052 -0.7088
vn -0.5124 0.8543 0.0878
vn -0.3980 0.8376 0.3742
vn -0.4504 0.6418 0.6207
vn -0.4680 0.7746 0.4253
vn -0.3909 0.8566 0.3368
vn 0.8651 0.4983 -0.0569
vn 0.9529 0.2372 0.1889
vn 0.1529 0.6748 0.7220
vn -0.0152 0.9708 0.2394
vn -0.8810 0.3012 0.3648
vn -0.7841 0.0351 0.6196
vn 0.0493 0.1019 0.9936
vn 0.1014 -0.3089 0.9457
vn 0.1211 -0.9222 0.3672
vn 0.8912 -0.4413 -0.1044
vn 0.2523 -0.9526 -0.1700
vn -0.5527 -0.8253 0.1158
vn -0.0614 0.2403 0.9688
vn 0.2428 0.3294 0.9125
vn -0.1019 -0.1872 -0.9770
vn -0.6698 -0.2701 -0.6917
vn -0.2899 0.2680 -0.9188
vn -0.2820 0.4672 -0.8380
vn 0.0532 -0.3484 -0.9358
vn -0.2147 -0.6495 -0.7295
vn -0.4046 0.3698 -0.8364
vn 0.7683 -0.2651 0.5826
vn 0.3848 -0.9125 0.1389
vn 0.1619 -0.9698 0.1824
vn -0.4848 -0.8264 0.2864
vn -0.4101 0.2450 -0.8785
vn -0.6347 0.6139 -0.4693
vn -0.6680 0.5357 -0.5166
vn -0.6062 0.5892 -0.5343
vn -0.6708 0.6850 -0.2842
vn -0.7158 0.5374 -0.4459
vn -0.6702 0.4927 -0.5550
vn -0.5279 0.6707 -0.5210
vn -0.5394 0.8262 -0.1623
vn -0.6795 -0.0157 -0.7335
vn -0.7034 -0.0900 -0.7050
vn -0.1000 -0.8260 -0.5547
vn -0.7629 0.4706 0.4433
vn 0.1032 0.6391 0.7622
vn -0.4651 0.7616 0.4513
vn -0.6297 -0.1574 -0.7607
vn -0.0720 -0.8834 -0.4630
vn -0.7289 0.6845 -0.0113
vn -0.6136 0.7884 0.0429
vn -0.4889 0.7159 0.4985
vn -0.6811 0.6601 0.3169
vn -0.3044 0.8710 0.3856
vn -0.3194 0.8965 0.3071
vn -0.3675 0.2950 0.8820
vn -0.5593 0.8207 -0.1169
vn -0.4596 0.8034 -0.3787
vn -0.5684 -0.6476 -0.5074
vn -0.3515 0.5924 -0.7249
vn -0.6756 0.6674 0.3132
vn -0.1521 0.2009 0.9677
vn -0.0536 0.3258 -0.9439
vn -0.5056 0.3387 0.7935
vn -0.5930 0.8050 0.0198
vn -0.1771 0.7112 -0.6803
vn -0.8033 0.5467 -0.2364
vn -0.5564 0.5360 -0.6349
vn -0.8496 0.4500 -0.2751
vn -0.7159 0.5757 0.3950
vn -0.4599 0.6927 0.5555
vn -0.4260 0.6919 0.5829
vn -0.6902 -0.6060 -0.3954
vn -0.3892 0.8910 0.2336
vn -0.5249 0.7832 0.3332
vn -0.8672 0.4979 0.0033
vn -0.8924 0.3415 -0.2948
vn -0.5847 0.7152 0.3829
vn -0.4235 0.1910 0.8855
vn -0.7227 0.4066 -0.5589
vn -0.7818 0.4988 -0.3741
vn -0.6483 0.7540 0.1057
vn -0.5869 -0.2374 -0.7740
vn 0.1509 -0.9410 0.3028
vn -0.3046 0.5672 0.7652
vn 0.2206 -0.2795 0.9344
vn -0.3682 -0.4018 -0.8385
vn -0.5165 -0.1337 -0.8458
vn -0.6548 0.6114 -0.4443
vn -0.6467 0.5752 -0.5009
vn -0.4509 0.8553 0.2551
vn -0.5924 0.7910 0.1526
vn -0.9193 0.0742 -0.3866
vn 0.1068 -0.9912 -0.0786
vn 0.0294 -0.6670 0.7445
vn 0.0476 -0.7295 0.6823
vn 0.1182 -0.9872 0.1074
vn -0.2391 0.3703 0.8976
vn -0.2587 0.1039 0.9603
vn -0.6143 -0.5345 0.5805
vn -0.4354 0.7140 0.5484
vn -0.7653 0.4525 0.4578
vn 0.0009 -0.8188 -0.5741
vn -0.4896 -0.7951 -0.3580
vn -0.4300 0.8885 -0.1604
vn -0.0524 0.1515 0.9871
vn 0.3741 0.5335 0.7586
vn 0.1209 0.9716 -0.2035
vn 0.6527 -0.7386 0.1689
vn 0.9464 -0.2407 0.2154
vn 0.3063 0.0330 -0.9514
vn 0.6628 0.1420 -0.7352
vn 0.0512 0.0317 0.9982
vn 0.1804 -0.0201 0.9834
vn 0.1925 0.0354 0.9807
vn 0.2412 0.0784 0.9673
vn 0.5017 -0.3253 0.8015
vn 0.2467 0.0640 0.9670
vn -0.2105 0.6550 0.7257
vn -0.1057 0.6042 0.7898
vn -0.4763 0.8538 0.2102
vn -0.4228 0.8750 0.2360
vn -0.0119 0.5377 0.8431
vn -0.4191 0.8672 0.2689
vn -0.0658 0.3914 0.9179
vn -0.5066 0.7953 0.3328
vn 0.6413 -0.6012 0.4769
vn 0.7122 -0.7010 0.0356
vn 0.6212 -0.7720 0.1348
vn 0.7190 -0.6936 0.0449
vn 0.5947 -0.8037 0.0178
vn 0.6243 -0.7800 -0.0426
vn 0.6072 -0.7643 -0.2172
vn 0.5314 -0.7887 -0.3093
vn 0.2431 -0.6390 -0.7297
vn -0.3820 -0.1714 -0.9081
vn -0.3918 -0.1782 -0.9026
vn -0.3622 -0.3624 -0.8587
vn -0.3978 -0.5421 -0.7402
vn -0.1161 -0.3683 -0.9224
vn -0.6060 -0.3716 0.7033
vn 0.4968 -0.8465 0.1914
vn -0.1345 -0.3352 0.9325
vn 0.9897 0.1250 -0.0702
vn 0.3379 0.6050 0.7210
vn -0.0386 -0.8796 -0.4741
vn -0.4913 -0.3574 -0.7943
vn -0.1285 -0.9243 -0.3593
vn 0.1184 -0.9862 0.1160
vn -0.1063 -0.9261 -0.3620
vn 0.2894 -0.9083 0.3022
vn 0.0934 -0.5388 0.8372
vn -0.2291 0.4477 0.8643
vn -0.5042 0.7606 0.4090
vn -0.4075 0.7954 0.4486
vn -0.3691 0.7650 0.5278
vn -0.4949 0.8563 0.1477
vn -0.6569 0.5926 -0.4660
vn 0.5264 0.4886 0.6958
vn 0.7684 -0.3437 0.5399
vn 0.5990 0.5160 0.6123
vn -0.2699 0.9516 0.1468
vn 0.4420 0.5263 0.7264
vn -0.2244 0.9695 0.0983
vn -0.8465 0.3562 -0.3957
vn -0.7269 0.4363 -0.5303
vn -0.2786 0.9574 0.0760
vn -0.7946 0.5146 -0.3223
vn -0.6805 -0.5879 -0.4373
vn -0.6203 -0.5834 -0.5243
vn -0.7035 -0.6006 -0.3800
vn 0.2017 -0.9750 0.0931
vn 0.0448 -0.9918 0.1194
vn -0.0757 -0.9941 0.0772
vn 0.5427 -0.4576 0.7043
vn 0.2305 -0.6449 0.7287
vn 0.0646 0.5615 0.8249
vn -0.6835 0.7225 0.1044
vn -0.7504 0.6458 -0.1407
vn -0.7779 0.5902 0.2158
vn -0.8449 0.5129 -0.1517
vn -0.7391 0.2959 -0.6051
vn -0.7142 0.4310 -0.5516
vn -0.3370 -0.1027 -0.9359
vn -0.3730 0.0483 -0.9266
vn -0.7170 0.2076 -0.6655
vn -0.2579 -0.1365 -0.9565
vn -0.6798 0.2247 -0.6981
vn -0.1266 -0.0943 -0.9875
vn -0.9794 -0.1695 -0.1099
vn -0.6683 0.7358 -0.1095
vn -0.9688 -0.1514 0.1963
vn -0.2279 -0.9355 0.2701
vn -0.9744 -0.1949 0.1121
vn -0.0418 -0.9870 0.1554
vn -0.8769 -0.2540 -0.4082
vn -0.0194 -0.9115 -0.4109
vn -0.6386 0.7348 -0.2285
vn -0.6163 0.3885 -0.6850
vn -0.6994 -0.6882 0.1929
vn 0.1317 -0.9898 -0.0540
vn -0.7590 -0.5873 0.2810
vn 0.0029 -0.9998 -0.0214
vn 0.8823 -0.4360 -0.1772
vn -0.8090 0.3916 0.4384
vn 0.2303 0.3715 0.8994
vn 0.0402 0.4648 0.8845
vn -0.1956 0.5286 -0.8260
vn 0.4582 0.8862 -0.0692
vn -0.7092 0.3582 -0.6072
vn -0.3714 -0.9276 -0.0395
vn -0.9152 -0.0386 -0.4013
vn -0.0288 -0.9927 0.1170
vn 0.9327 0.0047 0.3606
vn 0.8128 -0.3452 0.4693
vn 0.0519 0.9872 -0.1510
vn 0.9283 0.3079 0.2084
vn 0.9382 0.3306 -0.1021
vn 0.5652 -0.7061 0.4266
vn 0.3290 0.9023 -0.2785
vn -0.1951 0.1341 -0.9716
vn 0.4330 -0.6027 -0.6703
vn 0.9960 0.0805 -0.0399
vn -0.5985 -0.5892 0.5428
vn -0.6152 0.3082 0.7256
f 1/1/1 2/2/2 3/3/3 4/4/4
f 5/5/5 6/6/6 3/7/3 2/8/2
f 7/9/7 4/10/4 3/7/3 6/6/6
f 4/4/4 8/11/8 9/12/9 1/1/1
f 10/13/10 1/1/1 9/12/9 11/14/11
f 12/15/12 11/16/11 9/17/9 8/18/8
f 5/5/5 13/19/13 7/9/7 6/6/6
f 8/18/8 4/10/4 7/9/7 13/19/13
f 14/20/14 15/21/15 16/22/16 17/23/17
f 18/24/18 19/25/19 16/22/16 15/21/15
f 20/26/20 21/27/21 22/28/22 23/29/23
f 24/30/24 23/31/23 22/32/22 25/33/25
f 26/34/26 27/35/27 22/32/22 28/36/28
f 29/37/29 28/36/28 22/32/22 21/38/21
f 30/39/30 31/40/31 32/41/32 33/42/33
f 34/43/34 33/42/33 32/41/32 35/44/35
f 36/45/36 37/46/37 38/47/38 39/48/39
f 31/49/31 39/48/39 38/47/38 32/50/32
f 40/51/40 41/52/41 38/53/38 42/54/42
f 43/55/43 42/56/42 38/57/38 37/58/37
f 44/59/44 45/60/45 46/61/46 47/62/47
f 48/63/48 49/64/49 46/65/46 50/66/50
f 51/67/51 50/66/50 46/65/46 52/68/52
f 53/69/53 52/68/52 46/65/46 45/70/45
f 54/71/54 55/72/55 56/73/56 57/74/57
f 40/51/40 42/54/42 56/75/56 49/64/49
f 43/55/43 57/74/57 56/73/56 42/56/42
f 56/73/56 58/76/58 46/77/46 49/78/49
f 59/79/59 47/80/47 46/77/46 58/76/58
f 60/81/60 61/82/61 54/83/54 62/84/62
f 63/85/63 62/84/62 54/83/54 57/86/57
f 64/87/64 65/88/65 54/83/54 66/89/66
f 67/90/67 66/89/66 54/83/54 61/82/61
f 68/91/68 44/59/44 47/62/47 69/92/69
f 70/93/70 71/94/71 47/62/47 59/95/59
f 72/96/72 69/92/69 47/62/47 71/94/71
f 73/97/73 55/72/55 54/71/54 65/98/65
f 74/99/74 75/100/75 76/101/76 77/102/77
f 78/103/78 77/104/77 76/105/76 79/106/79
f 78/103/78 80/107/80 65/98/65 77/104/77
f 74/99/74 77/102/77 65/88/65 64/87/64
f 81/108/81 73/97/73 65/98/65 80/107/80
f 82/109/82 83/110/83 59/79/59 58/76/58
f 84/111/84 85/112/85 59/113/59 83/114/83
f 86/115/86 70/116/70 59/113/59 85/112/85
f 84/111/84 83/114/83 73/117/73 87/118/87
f 82/109/82 55/72/55 73/97/73 83/110/83
f 88/119/88 87/118/87 73/117/73 81/120/81
f 89/121/89 90/122/90 91/123/91 92/124/92
f 93/125/93 92/124/92 91/123/91 94/126/94
f 95/127/95 91/128/91 96/129/96 97/130/97
f 89/131/89 98/132/98 99/133/99 95/127/95
f 100/134/100 101/135/101 99/133/99 102/136/102
f 91/128/91 95/127/95 99/133/99 94/137/94
f 103/138/103 94/137/94 99/133/99 101/135/101
f 93/139/93 94/137/94 103/138/103 104/140/104
f 105/141/105 106/142/106 107/143/107 102/136/102
f 100/134/100 102/136/102 107/143/107 108/144/108
f 109/145/109 110/146/110 107/147/107 111/148/111
f 112/149/112 111/150/111 107/143/107 106/142/106
f 113/151/113 108/152/108 107/147/107 110/146/110
f 114/153/114 25/154/25 115/155/115 116/156/116
f 115/157/115 25/33/25 22/32/22 117/158/117
f 118/159/118 117/158/117 22/32/22 27/35/27
f 119/160/119 29/161/29 21/162/21 120/163/120
f 121/164/121 122/165/122 21/27/21 20/26/20
f 123/166/123 120/167/120 21/27/21 122/165/122
f 124/168/124 125/169/125 118/170/118 126/171/126
f 127/172/127 126/173/126 118/159/118 27/35/27
f 128/174/128 129/175/129 118/176/118 125/177/125
f 130/178/130 117/179/117 118/176/118 129/175/129
f 131/180/131 100/181/100 108/182/108 132/183/132
f 133/184/133 132/183/132 108/182/108 134/185/134
f 135/186/135 134/187/134 108/152/108 113/151/113
f 136/188/136 101/135/101 100/134/100 124/168/124
f 125/169/125 124/168/124 100/134/100 131/189/131
f 25/154/25 114/153/114 123/166/123 122/165/122
f 137/190/137 120/191/120 123/192/123 138/193/138
f 139/194/139 138/193/138 140/195/140 141/196/141
f 123/192/123 142/197/142 140/195/140 138/193/138
f 143/198/143 144/199/144 140/195/140 142/197/142
f 145/200/145 141/196/141 140/195/140 146/201/146
f 147/202/147 146/201/146 140/195/140 148/203/148
f 149/204/149 150/205/150 151/206/151 152/207/152
f 153/208/153 152/209/152 151/210/151 154/211/154
f 155/212/155 154/213/154 151/206/151 150/205/150
f 156/214/156 157/215/157 153/208/153 154/211/154
f 158/216/158 152/209/152 153/208/153 157/215/157
f 156/217/156 154/213/154 155/212/155 159/218/159
f 160/219/160 159/218/159 155/212/155 150/205/150
f 161/220/161 162/221/162 163/222/163 164/223/164
f 165/224/165 166/225/166 163/222/163 162/221/162
f 167/226/167 164/223/164 163/222/163 166/225/166
f 168/227/168 148/203/148 140/195/140 144/199/144
f 169/228/169 113/151/113 110/146/110 170/229/170
f 171/230/171 172/231/172 110/146/110 109/145/109
f 128/232/128 170/229/170 110/146/110 172/231/172
f 173/233/173 174/234/174 171/235/171 175/236/175
f 176/237/176 175/238/175 171/230/171 109/145/109
f 177/239/177 172/231/172 171/230/171 178/240/178
f 179/241/179 178/242/178 171/235/171 174/234/174
f 130/178/130 116/156/116 115/155/115 117/179/117
f 84/243/84 87/244/87 145/245/145 180/246/180
f 181/247/181 180/246/180 145/245/145 182/248/182
f 183/249/183 182/250/182 145/200/145 146/201/146
f 184/251/184 185/252/185 116/156/116 186/253/186
f 187/254/187 188/255/188 116/156/116 185/252/185
f 189/256/189 114/153/114 116/156/116 188/255/188
f 190/257/190 191/258/191 192/259/192 193/260/193
f 194/261/194 195/262/195 192/263/192 191/264/191
f 196/265/196 193/266/193 192/263/192 195/262/195
f 197/267/197 198/268/198 188/269/188 187/270/187
f 199/271/199 200/272/200 188/269/188 198/268/198
f 201/273/201 189/256/189 188/255/188 200/274/200
f 131/180/131 170/229/170 128/232/128 125/275/125
f 202/276/202 129/175/129 128/174/128 203/277/203
f 177/278/177 203/277/203 128/174/128 172/279/172
f 130/178/130 204/280/204 186/253/186 116/156/116
f 205/281/205 206/282/206 186/253/186 204/280/204
f 207/283/207 184/251/184 186/253/186 208/284/208
f 209/285/209 208/284/208 186/253/186 206/282/206
f 210/286/210 181/247/181 182/248/182 211/287/211
f 212/288/212 213/289/213 182/248/182 183/290/183
f 214/291/214 211/287/211 182/248/182 213/289/213
f 215/292/215 216/293/216 217/294/217 218/295/218
f 219/296/219 218/295/218 217/294/217 220/297/220
f 177/298/177 178/299/178 217/294/217 216/293/216
f 179/241/179 221/300/221 217/301/217 178/242/178
f 222/302/222 220/297/220 217/294/217 221/303/221
f 130/178/130 129/175/129 202/276/202 204/280/204
f 205/281/205 204/280/204 202/276/202 223/304/223
f 224/305/224 225/306/225 202/307/202 203/308/203
f 226/309/226 223/310/223 202/307/202 225/306/225
f 227/311/227 228/312/228 222/313/222 221/300/221
f 226/309/226 220/314/220 222/315/222 223/310/223
f 208/316/208 209/317/209 229/318/229 230/319/230
f 198/268/198 230/319/230 229/318/229 199/271/199
f 231/320/231 232/321/232 229/318/229 233/322/233
f 234/323/234 233/324/233 229/325/229 209/326/209
f 235/327/235 199/271/199 229/318/229 232/321/232
f 236/328/236 237/329/237 223/310/223 222/315/222
f 238/330/238 205/281/205 223/304/223 239/331/239
f 240/332/240 235/327/235 241/333/241 242/334/242
f 232/321/232 243/335/243 241/333/241 235/327/235
f 244/336/244 242/334/242 241/333/241 245/337/245
f 246/338/246 247/339/247 241/333/241 243/335/243
f 248/340/248 245/341/245 241/342/241 247/343/247
f 232/321/232 231/320/231 249/344/249 243/335/243
f 246/338/246 243/335/243 249/344/249 250/345/250
f 251/346/251 250/347/250 249/348/249 234/323/234
f 252/349/252 248/340/248 253/350/253 254/351/254
f 209/285/209 206/282/206 251/352/251 234/353/234
f 255/354/255 250/347/250 251/346/251 256/355/256
f 257/356/257 258/357/258 259/358/259 260/359/260
f 210/286/210 211/287/211 259/358/259 258/357/258
f 214/291/214 261/360/261 259/358/259 211/287/211
f 262/361/262 263/362/263 259/363/259 261/364/261
f 252/365/252 260/366/260 259/363/259 263/362/263
f 264/367/264 244/336/244 245/337/245 265/368/265
f 252/369/252 266/370/266 245/337/245 248/371/248
f 267/372/267 265/368/265 245/337/245 266/370/266
f 268/373/268 260/366/260 252/365/252 254/374/254
f 269/375/269 266/370/266 252/369/252 263/376/263
f 270/377/270 267/378/267 266/379/266 253/350/253
f 271/380/271 253/350/253 266/379/266 269/381/269
f 272/382/272 270/383/270 273/384/273 274/385/274
f 247/343/247 275/386/275 273/387/273 248/340/248
f 276/388/276 274/389/274 273/390/273 275/391/275
f 277/392/277 278/393/278 253/394/253 271/395/271
f 279/396/279 254/397/254 253/398/253 278/399/278
f 280/400/280 239/331/239 223/304/223 237/401/237
f 281/402/281 282/403/282 283/404/283 284/405/284
f 280/406/280 284/407/284 283/408/283 239/409/239
f 285/410/285 257/411/257 283/404/283 282/403/282
f 260/366/260 268/373/268 283/404/283 257/411/257
f 286/412/286 239/413/239 283/404/283 268/373/268
f 275/391/275 287/414/287 288/415/288 276/388/276
f 277/392/277 276/388/276 288/415/288 289/416/289
f 255/417/255 290/418/290 288/415/288 287/414/287
f 291/419/291 238/330/238 239/331/239 286/420/286
f 254/397/254 279/396/279 286/421/286 268/422/268
f 292/423/292 293/424/293 286/421/286 279/396/279
f 294/425/294 295/426/295 296/427/296 297/428/297
f 298/429/298 297/428/297 296/427/296 299/430/299
f 300/431/300 299/430/299 296/427/296 295/426/295
f 301/432/301 302/433/302 303/434/303 304/435/304
f 305/436/305 306/437/306 303/434/303 302/433/302
f 307/438/307 304/435/304 303/434/303 306/437/306
f 308/439/308 299/430/299 300/431/300 309/440/309
f 310/441/310 311/442/311 300/431/300 295/426/295
f 312/443/312 313/444/313 314/445/314 315/446/315
f 316/447/316 317/448/317 314/445/314 313/444/313
f 318/449/318 319/450/319 317/451/317 316/452/316
f 312/443/312 315/446/315 319/453/319 318/454/318
f 72/96/72 312/455/312 318/449/318 69/92/69
f 68/91/68 69/92/69 318/449/318 316/452/316
f 320/456/320 68/457/68 316/447/316 313/444/313
f 44/458/44 68/457/68 320/456/320 321/459/321
f 312/443/312 72/460/72 320/456/320 313/444/313
f 71/461/71 321/459/321 320/456/320 72/460/72
f 45/462/45 44/458/44 321/459/321 322/463/322
f 70/464/70 322/463/322 321/459/321 71/461/71
f 53/465/53 45/462/45 322/463/322 323/466/323
f 86/467/86 323/466/323 322/463/322 70/464/70
f 324/468/324 53/465/53 323/466/323 325/469/325
f 326/470/326 325/469/325 323/466/323 86/467/86
f 173/233/173 325/469/325 326/470/326 327/471/327
f 85/472/85 328/473/328 326/470/326 86/467/86
f 329/474/329 327/471/327 326/470/326 328/473/328
f 330/475/330 327/471/327 329/474/329 331/476/331
f 180/246/180 181/247/181 329/474/329 328/473/328
f 210/286/210 331/476/331 329/474/329 181/247/181
f 179/241/179 174/234/174 330/475/330 332/477/332
f 173/233/173 327/471/327 330/475/330 174/234/174
f 333/478/333 332/477/332 330/475/330 331/476/331
f 227/311/227 332/477/332 333/478/333 285/479/285
f 210/286/210 258/357/258 333/478/333 331/476/331
f 257/411/257 285/410/285 333/480/333 258/481/258
f 221/300/221 179/241/179 332/477/332 227/311/227
f 84/243/84 180/246/180 328/473/328 85/472/85
f 176/237/176 334/482/334 324/483/324 175/238/175
f 52/68/52 53/69/53 324/484/324 334/485/334
f 173/486/173 175/238/175 324/483/324 325/487/325
f 335/488/335 336/489/336 334/482/334 176/237/176
f 51/67/51 52/68/52 334/485/334 336/490/336
f 337/491/337 338/492/338 336/493/336 335/494/335
f 339/495/339 51/67/51 336/490/336 338/496/338
f 340/497/340 341/498/341 339/495/339 338/496/338
f 61/82/61 60/81/60 339/495/339 341/498/341
f 50/66/50 51/67/51 339/495/339 60/81/60
f 137/190/137 342/499/342 341/498/341 340/497/340
f 67/90/67 61/82/61 341/498/341 342/499/342
f 138/193/138 139/194/139 342/499/342 137/190/137
f 343/500/343 67/90/67 342/499/342 139/194/139
f 141/196/141 88/119/88 343/500/343 139/194/139
f 81/120/81 344/501/344 343/500/343 88/119/88
f 66/89/66 67/90/67 343/500/343 344/501/344
f 80/502/80 345/503/345 344/501/344 81/120/81
f 64/87/64 66/89/66 344/501/344 345/503/345
f 78/103/78 346/504/346 345/505/345 80/107/80
f 74/99/74 64/87/64 345/503/345 346/506/346
f 79/106/79 347/507/347 346/504/346 78/103/78
f 75/100/75 74/99/74 346/506/346 347/508/347
f 120/163/120 137/509/137 340/510/340 119/160/119
f 337/491/337 119/160/119 340/510/340 338/492/338
f 29/161/29 119/160/119 337/491/337 112/149/112
f 111/150/111 112/149/112 337/491/337 335/494/335
f 109/511/109 111/150/111 335/494/335 176/512/176
f 348/513/348 133/514/133 349/515/349 350/516/350
f 134/517/134 351/518/351 349/515/349 133/514/133
f 113/151/113 169/228/169 348/519/348 135/186/135
f 132/183/132 133/184/133 348/519/348 169/228/169
f 352/520/352 135/521/135 348/522/348 350/523/350
f 135/521/135 352/520/352 351/524/351 134/525/134
f 294/526/294 353/527/353 310/528/310 295/529/295
f 301/432/301 304/435/304 310/528/310 353/527/353
f 307/438/307 311/530/311 310/528/310 304/435/304
f 354/531/354 355/532/355 353/527/353 294/526/294
f 356/533/356 301/432/301 353/527/353 355/532/355
f 357/534/357 358/535/358 356/533/356 355/532/355
f 293/424/293 359/536/359 356/533/356 358/535/358
f 302/433/302 301/432/301 356/533/356 359/536/359
f 292/423/292 360/537/360 359/536/359 293/424/293
f 305/436/305 302/433/302 359/536/359 360/537/360
f 361/538/361 362/539/362 360/540/360 292/541/292
f 363/542/363 305/436/305 360/537/360 362/543/362
f 306/437/306 305/436/305 363/542/363 308/544/308
f 364/545/364 298/429/298 363/546/363 362/539/362
f 299/430/299 308/439/308 363/546/363 298/429/298
f 361/538/361 289/416/289 364/545/364 362/539/362
f 288/415/288 365/547/365 364/545/364 289/416/289
f 297/428/297 298/429/298 364/545/364 365/547/365
f 290/418/290 354/548/354 365/547/365 288/415/288
f 294/425/294 297/428/297 365/547/365 354/548/354
f 279/549/279 278/393/278 361/538/361 292/541/292
f 277/392/277 289/416/289 361/538/361 278/393/278
f 256/355/256 291/550/291 358/535/358 357/534/357
f 286/421/286 293/424/293 358/535/358 291/550/291
f 354/548/354 290/418/290 357/551/357 355/552/355
f 255/354/255 256/355/256 357/534/357 290/553/290
f 307/554/307 306/555/306 308/439/308 309/440/309
f 251/352/251 238/330/238 291/419/291 256/556/256
f 247/339/247 246/338/246 287/414/287 275/391/275
f 250/345/250 255/417/255 287/414/287 246/338/246
f 228/557/228 227/558/227 285/410/285 282/403/282
f 366/559/366 228/557/228 282/403/282 281/402/281
f 367/560/367 236/561/236 366/559/366 368/562/368
f 222/563/222 228/557/228 366/559/366 236/561/236
f 369/564/369 368/562/368 366/559/366 281/402/281
f 370/565/370 368/562/368 369/564/369 371/566/371
f 284/405/284 372/567/372 369/564/369 281/402/281
f 373/568/373 371/566/371 369/564/369 372/567/372
f 374/569/374 371/566/371 373/568/373 375/570/375
f 376/571/376 377/572/377 373/573/373 372/574/372
f 378/575/378 375/570/375 373/568/373 377/576/377
f 379/577/379 380/578/380 377/572/377 376/571/376
f 381/579/381 378/580/378 377/572/377 380/578/380
f 367/581/367 382/582/382 380/578/380 379/577/379
f 383/583/383 381/579/381 380/578/380 382/582/382
f 368/562/368 370/565/370 382/584/382 367/560/367
f 384/585/384 383/586/383 382/584/382 370/565/370
f 280/406/280 237/329/237 379/577/379 376/571/376
f 236/328/236 367/581/367 379/577/379 237/329/237
f 284/407/284 280/406/280 376/571/376 372/574/372
f 374/569/374 384/585/384 370/565/370 371/566/371
f 274/389/274 276/388/276 277/392/277 271/395/271
f 271/380/271 269/381/269 272/382/272 274/385/274
f 263/376/263 262/587/262 272/588/272 269/375/269
f 267/589/267 270/590/270 272/588/272 262/587/262
f 261/360/261 265/368/265 267/372/267 262/591/262
f 213/289/213 385/592/385 264/367/264 214/291/214
f 386/593/386 244/336/244 264/367/264 385/592/385
f 261/360/261 214/291/214 264/367/264 265/368/265
f 387/594/387 388/595/388 386/593/386 385/592/385
f 389/596/389 390/597/390 386/593/386 388/595/388
f 242/334/242 244/336/244 386/593/386 390/597/390
f 391/598/391 392/599/392 390/597/390 389/596/389
f 240/332/240 242/334/242 390/597/390 392/599/392
f 143/600/143 201/601/201 392/599/392 391/598/391
f 200/272/200 240/332/240 392/599/392 201/601/201
f 393/602/393 394/603/394 391/598/391 389/596/389
f 144/604/144 143/600/143 391/598/391 394/603/394
f 395/605/395 396/606/396 394/603/394 393/602/393
f 168/607/168 144/604/144 394/603/394 396/606/396
f 158/216/158 157/215/157 396/606/396 395/605/395
f 156/214/156 168/607/168 396/606/396 157/215/157
f 167/226/167 158/216/158 395/605/395 164/223/164
f 161/220/161 164/223/164 395/605/395 393/602/393
f 388/595/388 161/220/161 393/602/393 389/596/389
f 162/221/162 161/220/161 388/595/388 387/594/387
f 165/224/165 162/221/162 387/594/387 212/288/212
f 213/289/213 212/288/212 387/594/387 385/592/385
f 205/281/205 238/330/238 251/352/251 206/282/206
f 199/271/199 235/327/235 240/332/240 200/272/200
f 197/267/197 397/608/397 230/319/230 198/268/198
f 207/609/207 208/316/208 230/319/230 397/608/397
f 398/610/398 399/611/399 397/608/397 197/267/197
f 400/612/400 207/609/207 397/608/397 399/611/399
f 401/613/401 402/614/402 400/612/400 399/611/399
f 195/262/195 194/261/194 400/615/400 402/616/402
f 184/251/184 207/283/207 400/615/400 194/261/194
f 403/617/403 404/618/404 402/614/402 401/613/401
f 196/265/196 195/262/195 402/616/402 404/619/404
f 398/610/398 405/620/405 401/613/401 399/611/399
f 406/621/406 403/617/403 401/613/401 405/620/405
f 190/257/190 193/260/193 405/620/405 398/610/398
f 196/622/196 406/621/406 405/620/405 193/260/193
f 187/270/187 190/257/190 398/610/398 197/267/197
f 219/623/219 220/314/220 226/309/226 407/624/407
f 408/625/408 407/624/407 226/309/226 225/306/225
f 409/626/409 407/624/407 408/625/408 410/627/410
f 224/305/224 411/628/411 408/625/408 225/306/225
f 12/15/12 410/627/410 408/625/408 411/628/411
f 216/293/216 215/292/215 411/629/411 224/630/224
f 11/16/11 12/15/12 411/628/411 215/631/215
f 2/2/2 412/632/412 409/633/409 5/634/5
f 219/296/219 407/635/407 409/633/409 412/632/412
f 13/19/13 5/5/5 409/626/409 410/627/410
f 1/1/1 10/13/10 412/632/412 2/2/2
f 218/295/218 219/296/219 412/632/412 10/13/10
f 8/18/8 13/19/13 410/627/410 12/15/12
f 177/298/177 216/293/216 224/630/224 203/636/203
f 10/13/10 11/14/11 215/292/215 218/295/218
f 413/637/413 165/638/165 212/639/212 183/249/183
f 160/219/160 414/640/414 413/637/413 147/202/147
f 166/641/166 165/638/165 413/637/413 414/640/414
f 146/201/146 147/202/147 413/637/413 183/249/183
f 150/205/150 149/204/149 414/640/414 160/219/160
f 167/226/167 166/225/166 414/642/414 149/643/149
f 142/644/142 189/256/189 201/273/201 143/645/143
f 185/252/185 184/251/184 194/261/194 191/264/191
f 187/254/187 185/252/185 191/264/191 190/646/190
f 123/166/123 114/153/114 189/256/189 142/644/142
f 131/180/131 132/183/132 169/228/169 170/229/170
f 159/218/159 148/203/148 168/227/168 156/217/156
f 152/209/152 158/216/158 167/226/167 149/643/149
f 148/203/148 159/218/159 160/219/160 147/202/147
f 88/119/88 141/196/141 145/200/145 87/118/87
f 104/647/104 126/173/126 127/172/127 93/125/93
f 26/34/26 415/648/415 127/172/127 27/35/27
f 92/124/92 93/125/93 127/172/127 415/648/415
f 105/649/105 98/650/98 415/648/415 26/34/26
f 89/121/89 92/124/92 415/648/415 98/650/98
f 104/140/104 136/188/136 124/168/124 126/171/126
f 24/651/24 25/154/25 122/165/122 121/164/121
f 416/652/416 417/653/417 121/654/121 20/655/20
f 418/656/418 24/651/24 121/164/121 417/657/417
f 419/658/419 420/659/420 418/656/418 417/657/417
f 421/660/421 422/661/422 418/662/418 420/663/420
f 23/31/23 24/30/24 418/662/418 422/661/422
f 423/664/423 416/652/416 422/661/422 421/660/421
f 20/655/20 23/31/23 422/661/422 416/652/416
f 424/665/424 18/666/18 423/667/423 421/668/421
f 15/669/15 419/658/419 423/670/423 18/671/18
f 417/657/417 416/672/416 423/670/423 419/658/419
f 420/659/420 14/673/14 424/665/424 421/668/421
f 17/674/17 425/675/425 424/665/424 14/673/14
f 19/676/19 18/666/18 424/665/424 425/675/425
f 15/669/15 14/673/14 420/659/420 419/658/419
f 28/36/28 29/37/29 112/677/112 106/678/106
f 26/34/26 28/36/28 106/678/106 105/649/105
f 99/133/99 98/132/98 105/141/105 102/136/102
f 90/679/90 89/131/89 95/127/95 97/130/97
f 43/680/43 34/43/34 63/85/63 57/86/57
f 35/44/35 426/681/426 63/85/63 34/43/34
f 48/63/48 62/84/62 63/85/63 426/681/426
f 41/52/41 40/51/40 426/681/426 35/44/35
f 49/64/49 48/63/48 426/681/426 40/51/40
f 48/63/48 50/66/50 60/81/60 62/84/62
f 33/42/33 34/43/34 43/680/43 37/682/37
f 30/683/30 33/684/33 37/46/37 36/45/36
f 427/685/427 428/686/428 36/45/36 39/48/39
f 429/687/429 30/39/30 36/688/36 428/689/428
f 430/690/430 427/685/427 39/48/39 31/49/31
f 31/40/31 30/39/30 429/687/429 430/691/430
f 431/692/431 383/586/383 384/585/384 432/693/432
f 378/575/378 431/692/431 432/693/432 375/570/375
f 381/579/381 383/583/383 431/694/431 378/580/378
f 432/693/432 384/585/384 374/569/374 375/570/375
f 425/695/425 17/23/17 16/22/16 19/25/19
f 41/52/41 35/44/35 32/41/32 38/53/38
f 136/188/136 104/140/104 103/138/103 101/135/101
f 253/350/253 248/340/248 273/387/273 270/377/270
f 307/554/307 309/440/309 300/431/300 311/442/311
f 429/687/429 428/689/428 427/696/427 430/691/430
f 82/109/82 58/76/58 56/73/56 55/72/55
f 347/508/347 79/697/79 76/101/76 75/100/75
f 196/622/196 404/618/404 403/617/403 406/621/406
f 319/453/319 315/446/315 314/445/314 317/448/317
f 349/698/349 351/524/351 352/520/352 350/523/350
f 233/324/233 234/323/234 249/348/249 231/699/231
f 96/129/96 90/679/90 97/130/97
f 90/679/90 96/129/96 91/128/91
