# split from a merged terrain OBJ by scripts/split-terrain-obj-parts.py
o part-007
v 0.478655 1.027620 -0.023506
v 0.484569 1.027372 -0.015606
v 0.495520 1.027560 -0.022433
v 0.491332 1.027551 -0.035618
v 0.491606 1.021036 -0.034980
v 0.495239 1.021283 -0.022684
v 0.486811 1.022814 -0.012395
v 0.505316 0.946497 -0.041656
v 0.506012 0.942883 -0.049639
v 0.502052 0.948006 -0.053622
v 0.499522 0.951110 -0.047495
v 0.491193 0.952282 -0.060308
v 0.496254 0.948178 -0.064273
v 0.497799 0.941138 -0.065084
v 0.494762 0.960650 -0.044498
v 0.503416 0.959923 -0.034982
v 0.504615 0.952017 -0.034329
v 0.495060 0.954170 -0.043480
v 0.500437 0.960412 -0.020216
v 0.502391 0.953812 -0.015163
v 0.506227 0.936189 -0.039432
v 0.508212 0.940782 -0.027741
v 0.511245 0.944931 -0.012901
v 0.490218 0.960512 -0.008200
v 0.493912 0.956745 -0.003184
v 0.500930 0.956519 0.006401
v 0.509287 0.954846 -0.000605
v 0.514300 0.945615 -0.003027
v 0.516017 0.938541 0.017254
v 0.521998 0.936723 0.012025
v 0.522169 0.942558 0.010524
v 0.519337 0.946280 0.017271
v 0.515646 0.953126 0.009869
v 0.519681 0.944148 0.004026
v 0.516279 0.935800 0.005147
v 0.458500 1.016554 -0.072065
v 0.451953 1.017153 -0.077328
v 0.452686 1.023563 -0.077877
v 0.458060 1.023922 -0.071133
v 0.443847 1.018580 -0.071443
v 0.446289 1.023688 -0.069247
v 0.451741 1.026435 -0.064444
v 0.506250 0.932730 -0.043439
v 0.502038 0.933477 -0.022325
v 0.496854 0.933447 -0.037062
v 0.498697 0.934373 -0.064306
v 0.493575 0.932985 -0.059060
v 0.510265 0.936298 0.010980
v 0.453671 0.978047 -0.084374
v 0.440105 0.976047 -0.081596
v 0.447086 0.990765 -0.081831
v 0.452673 0.988051 -0.085723
v 0.462129 0.987121 -0.077825
v 0.458043 0.990386 -0.074133
v 0.440557 0.998484 -0.073005
v 0.448052 0.997054 -0.077717
v 0.435116 0.992091 -0.077628
v 0.455962 0.994448 -0.072081
v 0.462939 0.979276 -0.077891
v 0.417051 1.025342 0.059934
v 0.410467 1.023401 0.065792
v 0.415279 1.021261 0.067642
v 0.421412 1.021069 0.063943
v 0.421759 1.013304 0.065021
v 0.414594 1.014909 0.069979
v 0.406930 1.016474 0.069615
v 0.432579 0.981601 -0.080834
v 0.427980 0.990161 -0.069039
v 0.427126 0.979153 -0.073478
v 0.430348 0.971097 -0.074195
v 0.434414 0.963812 -0.073616
v 0.444962 0.965227 -0.081089
v 0.445645 0.945514 -0.089464
v 0.442778 0.948810 -0.082231
v 0.446909 0.956267 -0.082529
v 0.451112 0.950958 -0.090528
v 0.458690 0.954013 -0.087443
v 0.456511 0.959042 -0.082889
v 0.455475 0.967302 -0.082804
v 0.436450 0.951281 -0.072969
v 0.436211 0.957011 -0.073404
v 0.386035 1.024913 0.012587
v 0.382606 1.023940 0.024064
v 0.389876 1.025002 0.024070
v 0.394005 1.025364 0.017285
v 0.400803 1.025259 0.023996
v 0.393119 1.024939 0.030194
v 0.385628 1.022892 0.033954
v 0.440439 0.952097 0.055583
v 0.439672 0.947016 0.057115
v 0.458155 0.950985 0.051882
v 0.455594 0.956010 0.045217
v 0.473833 0.958743 0.028754
v 0.478500 0.955829 0.034438
v 0.481128 0.950397 0.036469
v 0.467930 0.945114 0.050158
v 0.437593 0.939816 0.058025
v 0.449088 0.940776 0.051554
v 0.460462 0.939854 0.057112
v 0.425498 0.963530 0.056916
v 0.418829 0.961679 0.064007
v 0.417473 0.955457 0.063481
v 0.425147 0.955136 0.056412
v 0.415670 0.960346 0.069902
v 0.421617 0.955827 0.066349
v 0.428481 0.954781 0.060832
v 0.468671 0.940392 0.046150
v 0.459562 0.937607 0.052642
v 0.453830 0.936474 0.048481
v 0.419802 0.987610 -0.060243
v 0.419728 0.975407 -0.065410
v 0.414420 0.972844 -0.058319
v 0.412375 0.982202 -0.053707
v 0.422715 0.967718 -0.064840
v 0.415588 0.968777 -0.055035
v 0.413045 0.977080 -0.049046
v 0.465453 0.936750 0.041662
v 0.418311 0.971606 0.063975
v 0.412015 0.970758 0.068800
v 0.422942 0.952302 0.070560
v 0.413674 0.951437 0.073981
v 0.415129 0.989445 -0.043502
v 0.412819 0.979899 -0.038934
v 0.417762 0.966683 -0.051564
v 0.437300 0.945238 -0.073420
v 0.423628 0.946504 -0.066727
v 0.421332 0.954168 -0.062648
v 0.408078 0.947972 -0.058877
v 0.408642 0.954174 -0.060296
v 0.425785 0.957901 -0.062162
v 0.405015 0.955368 -0.048720
v 0.412252 0.955875 -0.047918
v 0.416568 0.960847 -0.048925
v 0.409312 0.992049 -0.024176
v 0.415847 0.997221 -0.037743
v 0.415170 1.006116 -0.037203
v 0.403330 1.002437 -0.021324
v 0.394669 0.983027 -0.001134
v 0.395141 0.990229 -0.001469
v 0.405336 0.986994 -0.021772
v 0.407413 0.982844 -0.029746
v 0.398752 0.950340 -0.047032
v 0.449062 0.935933 0.043856
v 0.441738 0.935738 0.049036
v 0.433974 0.935745 0.056615
v 0.413228 0.969197 -0.035565
v 0.407500 0.976481 -0.028506
v 0.393942 0.975618 -0.000329
v 0.404010 0.979505 -0.020348
v 0.402812 0.982144 -0.028752
v 0.403675 0.987223 -0.028985
v 0.406152 0.983974 -0.031698
v 0.404671 0.979416 -0.031905
v 0.411272 0.940031 0.073323
v 0.413576 0.936670 0.069066
v 0.416123 0.937360 0.078533
v 0.420570 0.941582 0.075451
v 0.420914 0.936170 0.060934
v 0.426094 0.936426 0.065726
v 0.405686 0.969285 -0.025051
v 0.402018 0.971036 -0.014287
v 0.399193 0.937419 -0.031835
v 0.396862 0.943350 -0.026163
v 0.391985 0.937312 -0.038855
v 0.398212 0.941658 -0.042812
v 0.397134 0.952525 -0.032443
v 0.397528 0.951240 -0.025403
v 0.408353 0.964187 -0.035513
v 0.417305 0.936178 -0.043922
v 0.403477 0.936919 -0.025598
v 0.412655 0.936533 -0.049528
v 0.408128 0.940596 -0.056678
v 0.393635 0.960159 -0.014239
v 0.398243 0.958957 -0.024014
v 0.398722 0.956148 -0.022826
v 0.390958 0.955286 -0.015873
v 0.390435 0.949091 -0.016156
v 0.401365 0.964266 -0.024617
v 0.402354 0.961506 -0.035128
v 0.382998 0.972472 0.012392
v 0.380605 0.967046 0.010958
v 0.370415 0.963843 0.019735
v 0.375270 0.971631 0.020888
v 0.376142 0.962266 0.007335
v 0.367479 0.957607 0.015310
v 0.364955 0.951600 0.016661
v 0.368423 0.952756 0.022722
v 0.375489 0.970783 0.028976
v 0.372355 0.963586 0.029522
v 0.372940 0.954166 0.029828
v 0.372046 0.953248 0.002080
v 0.364034 0.951638 0.010839
v 0.362847 0.955206 0.012877
v 0.373875 0.956471 0.004448
v 0.368767 0.941763 0.021377
v 0.363962 0.942603 0.014894
v 0.363967 0.939093 0.014136
v 0.370120 0.938187 0.019247
v 0.366008 0.942443 0.008241
v 0.368450 0.938273 0.009273
v 0.374587 0.937784 0.014206
v 0.375077 0.937829 0.002743
v 0.380456 0.937501 0.007543
v 0.386560 0.937216 0.013569
v 0.381310 0.937452 0.020289
v 0.376721 0.937736 0.025701
v 0.374829 0.941304 0.028397
v 0.388613 0.937173 0.027460
v 0.383814 0.937471 0.033084
v 0.381378 0.941059 0.036412
v 0.374852 0.947662 0.029004
v 0.381506 0.947825 0.037162
v 0.392009 0.937272 0.042116
v 0.388942 0.940486 0.045859
v 0.389147 0.947264 0.046652
v 0.379243 0.954899 0.038589
v 0.387110 0.953837 0.048880
v 0.397271 0.939888 0.055969
v 0.397550 0.946190 0.056692
v 0.395920 0.951585 0.058690
v 0.386180 0.961760 0.050298
v 0.393668 0.959591 0.060775
v 0.404782 0.945247 0.066371
v 0.404022 0.950696 0.067862
v 0.400374 0.958463 0.069740
v 0.398003 0.968783 0.058265
v 0.403825 0.969375 0.066296
v 0.391715 0.977854 0.049143
v 0.391177 0.969296 0.048010
v 0.398656 0.978156 0.059129
v 0.404467 0.978925 0.067027
v 0.399262 0.988045 0.060540
v 0.404819 0.988763 0.068225
v 0.411514 0.980011 0.069216
v 0.411683 0.989294 0.069463
v 0.418101 0.981008 0.063887
v 0.418232 0.989458 0.063978
v 0.418800 0.997267 0.064083
v 0.412820 0.997828 0.070044
v 0.405320 0.998245 0.069326
v 0.399384 1.007848 0.063938
v 0.399267 0.998034 0.062402
v 0.405717 1.007497 0.070093
v 0.413978 1.006362 0.070583
v 0.420430 1.005164 0.064908
v 0.426324 0.996597 0.055642
v 0.428120 1.003529 0.056572
v 0.429060 1.011500 0.056785
v 0.436978 1.001773 0.045672
v 0.437791 1.009598 0.046240
v 0.437873 1.017813 0.046303
v 0.428860 1.019451 0.056240
v 0.435444 1.024282 0.043946
v 0.425622 1.025315 0.053078
v 0.430151 1.026396 0.038759
v 0.420239 1.026373 0.047767
v 0.411871 1.025815 0.054869
v 0.404799 1.024182 0.060649
v 0.414349 1.026272 0.041410
v 0.405648 1.025800 0.047848
v 0.398162 1.024414 0.052792
v 0.398871 1.024823 0.038761
v 0.392037 1.022803 0.042930
v 0.388218 1.016616 0.045027
v 0.394196 1.017176 0.055270
v 0.400299 1.017161 0.064031
v 0.393443 1.007905 0.055131
v 0.386684 1.007866 0.045018
v 0.385756 0.997618 0.043360
v 0.392918 0.997753 0.053602
v 0.384975 0.987140 0.040617
v 0.392516 0.987280 0.051222
v 0.383956 0.977838 0.038367
v 0.377812 0.987722 0.031044
v 0.377034 0.978501 0.029371
v 0.383046 0.969902 0.037141
v 0.378657 0.963158 0.039047
v 0.374879 0.988239 0.021009
v 0.375305 0.979416 0.020762
v 0.382729 0.988740 0.012451
v 0.383043 0.980382 0.012179
v 0.373349 0.998442 0.021992
v 0.379541 0.998175 0.010534
v 0.390275 0.999311 -0.004051
v 0.378931 1.009625 0.009079
v 0.389250 1.010742 -0.004258
v 0.402033 1.012592 -0.020393
v 0.389493 1.020564 -0.003636
v 0.402784 1.021571 -0.019243
v 0.418977 1.022787 -0.037978
v 0.416090 1.014310 -0.038182
v 0.430623 1.022514 -0.049843
v 0.428173 1.016372 -0.051418
v 0.426885 1.009174 -0.051406
v 0.435551 1.018973 -0.062394
v 0.434864 1.011622 -0.062590
v 0.434485 1.004565 -0.062597
v 0.425850 1.001691 -0.050855
v 0.432900 0.996844 -0.064066
v 0.424682 0.994427 -0.052509
v 0.441926 1.005334 -0.071751
v 0.442464 1.012029 -0.071604
v 0.449952 1.010585 -0.076660
v 0.449488 1.003776 -0.076714
v 0.457934 1.009007 -0.072379
v 0.457115 1.001848 -0.072212
v 0.464525 0.993728 -0.063345
v 0.465726 1.000579 -0.064948
v 0.466111 1.007698 -0.065226
v 0.473633 0.999707 -0.054977
v 0.474801 1.005995 -0.056594
v 0.466117 1.015751 -0.065346
v 0.474640 1.014423 -0.057285
v 0.484695 1.003916 -0.046561
v 0.484405 1.013253 -0.046808
v 0.465491 1.023882 -0.065326
v 0.474268 1.022663 -0.056994
v 0.484399 1.021151 -0.046969
v 0.491579 1.014209 -0.034937
v 0.469885 1.026936 -0.051759
v 0.484176 1.027778 -0.046556
v 0.460648 1.027007 -0.042302
v 0.471361 1.027591 -0.032753
v 0.467599 1.027385 -0.010931
v 0.460437 1.027262 -0.020812
v 0.451069 1.026340 -0.032118
v 0.448623 1.026384 -0.008905
v 0.439191 1.025778 -0.019462
v 0.450813 1.027213 -0.050418
v 0.442183 1.026722 -0.040875
v 0.431084 1.026005 -0.027751
v 0.422056 1.025534 -0.000305
v 0.414013 1.026174 -0.008350
v 0.435905 1.025346 -0.046079
v 0.424510 1.025455 -0.033567
v 0.407504 1.025193 -0.014605
v 0.401649 1.025487 0.006708
v 0.394353 1.024841 0.000512
v 0.408991 1.025172 0.014667
v 0.407338 1.025633 0.032694
v 0.416846 1.025599 0.024097
v 0.431009 1.026566 0.009210
v 0.424274 1.026415 0.032669
v 0.438940 1.026997 0.017034
v 0.455991 1.026516 0.000127
v 0.445207 1.026641 0.022803
v 0.461415 1.025957 0.007556
v 0.473830 1.027328 -0.004072
v 0.465052 1.023157 0.012681
v 0.477383 1.023448 -0.000072
v 0.465466 1.015528 0.013607
v 0.476625 1.016170 0.000175
v 0.486175 1.015783 -0.012296
v 0.476155 1.008267 -0.000051
v 0.485584 1.008466 -0.012240
v 0.494628 1.007643 -0.023231
v 0.494944 1.014689 -0.022949
v 0.491664 1.006773 -0.034480
v 0.490071 1.003230 -0.023490
v 0.488039 1.002525 -0.032652
v 0.481387 1.000415 -0.043468
v 0.488158 0.996193 -0.032061
v 0.481492 0.994413 -0.042297
v 0.473091 0.993548 -0.053423
v 0.487230 0.990860 -0.044727
v 0.477854 0.990181 -0.056349
v 0.468026 0.989939 -0.065773
v 0.482562 0.985841 -0.058818
v 0.472351 0.985978 -0.069022
v 0.484222 0.978174 -0.058243
v 0.473909 0.978930 -0.069918
v 0.485210 0.969227 -0.058051
v 0.475998 0.969488 -0.072644
v 0.464076 0.969013 -0.077235
v 0.476511 0.959818 -0.071824
v 0.465212 0.960211 -0.077025
v 0.477356 0.954300 -0.072047
v 0.467517 0.954136 -0.081216
v 0.462528 0.950153 -0.094267
v 0.471628 0.951288 -0.087025
v 0.481422 0.952293 -0.075362
v 0.474727 0.945562 -0.089240
v 0.484876 0.947292 -0.077981
v 0.486894 0.955170 -0.057642
v 0.485611 0.960960 -0.057404
v 0.494503 0.968885 -0.045623
v 0.503223 0.968253 -0.035225
v 0.493675 0.977835 -0.046762
v 0.502296 0.977171 -0.036126
v 0.502159 0.967250 -0.021910
v 0.502395 0.975632 -0.022196
v 0.493151 0.986166 -0.047382
v 0.498982 0.985804 -0.035436
v 0.499814 0.983670 -0.023107
v 0.492738 0.973399 -0.010972
v 0.492900 0.980467 -0.011032
v 0.492923 0.991613 -0.033784
v 0.494578 0.991123 -0.023212
v 0.489728 0.989208 -0.011852
v 0.480410 0.978763 0.002794
v 0.478341 0.987041 0.001105
v 0.490677 0.997298 -0.023008
v 0.484507 0.995613 -0.014017
v 0.473683 0.993512 -0.002714
v 0.466210 0.987468 0.017059
v 0.462436 0.993267 0.013343
v 0.484030 1.002437 -0.013255
v 0.474333 1.001752 -0.001748
v 0.462544 1.001496 0.012505
v 0.449195 0.993349 0.030935
v 0.449444 1.000498 0.030240
v 0.465164 1.007295 0.013677
v 0.451507 1.007637 0.030779
v 0.452182 1.015881 0.030128
v 0.450869 1.024016 0.028033
v 0.438381 0.989633 0.047874
v 0.452104 0.989131 0.034566
v 0.435562 0.995233 0.044725
v 0.437676 0.982018 0.047884
v 0.451196 0.980721 0.035122
v 0.465635 0.978164 0.018800
v 0.450029 0.971260 0.034979
v 0.465432 0.970340 0.018483
v 0.480412 0.973023 0.002582
v 0.466015 0.963885 0.017448
v 0.480385 0.967367 0.002507
v 0.491882 0.966779 -0.010335
v 0.481381 0.960337 0.003791
v 0.470090 0.958024 0.022273
v 0.485896 0.957668 0.008373
v 0.467413 0.957879 0.016901
v 0.491373 0.956952 0.014875
v 0.495770 0.955448 0.023363
v 0.507185 0.955443 0.016801
v 0.496745 0.951135 0.031286
v 0.511513 0.949422 0.024906
v 0.495807 0.942532 0.028844
v 0.508977 0.940271 0.024107
v 0.492662 0.939122 0.020929
v 0.502763 0.936723 0.016702
v 0.488822 0.935308 0.013987
v 0.496370 0.935900 0.007781
v 0.503894 0.936858 0.003387
v 0.490491 0.933416 -0.000628
v 0.498289 0.933484 -0.005741
v 0.506511 0.936023 -0.009612
v 0.510267 0.937062 -0.001488
v 0.493329 0.933072 -0.018032
v 0.477326 0.933586 -0.028017
v 0.488025 0.933284 -0.033574
v 0.483756 0.933382 -0.013068
v 0.468552 0.933941 -0.042937
v 0.479048 0.933527 -0.049782
v 0.487661 0.933188 -0.054976
v 0.468802 0.933994 -0.061701
v 0.475393 0.933729 -0.067910
v 0.480773 0.933533 -0.072696
v 0.465125 0.934237 -0.077179
v 0.470016 0.934080 -0.082526
v 0.474530 0.934203 -0.087576
v 0.485044 0.933316 -0.077248
v 0.475622 0.938936 -0.089411
v 0.485789 0.939885 -0.078437
v 0.465046 0.934263 -0.094592
v 0.466327 0.937388 -0.098065
v 0.465254 0.943492 -0.097239
v 0.458522 0.936317 -0.100420
v 0.457075 0.940751 -0.098727
v 0.454336 0.945938 -0.095853
v 0.450949 0.938699 -0.098570
v 0.448502 0.941915 -0.094921
v 0.447786 0.938187 -0.097816
v 0.445293 0.938943 -0.094658
v 0.441381 0.940903 -0.089166
v 0.439256 0.943189 -0.081727
v 0.447813 0.935788 -0.093005
v 0.444689 0.936520 -0.086960
v 0.441237 0.937731 -0.079888
v 0.438511 0.939855 -0.073202
v 0.450652 0.935248 -0.084980
v 0.446606 0.935821 -0.077826
v 0.441979 0.936405 -0.070828
v 0.425668 0.940279 -0.066019
v 0.429438 0.936186 -0.060889
v 0.452352 0.935016 -0.075058
v 0.446519 0.935383 -0.067282
v 0.433982 0.935585 -0.055829
v 0.451991 0.934798 -0.062162
v 0.439652 0.935209 -0.050899
v 0.423444 0.935802 -0.037401
v 0.408327 0.936461 -0.019516
v 0.448036 0.934789 -0.043741
v 0.431255 0.935427 -0.029349
v 0.415092 0.936084 -0.011716
v 0.398797 0.936777 -0.004715
v 0.405236 0.936461 0.002597
v 0.439703 0.935050 -0.019990
v 0.423153 0.935720 -0.002222
v 0.413742 0.936102 0.011915
v 0.399320 0.936690 0.012508
v 0.407978 0.936347 0.021355
v 0.434630 0.935255 0.011039
v 0.424612 0.935679 0.022660
v 0.418051 0.935973 0.031186
v 0.402307 0.936607 0.029594
v 0.411668 0.936286 0.039366
v 0.434665 0.935317 0.031745
v 0.427660 0.935616 0.039510
v 0.420851 0.935915 0.047551
v 0.406191 0.936612 0.046096
v 0.414472 0.936287 0.054753
v 0.435457 0.935408 0.045494
v 0.428033 0.935611 0.052905
v 0.443062 0.935172 0.038822
v 0.444826 0.934851 0.021687
v 0.453584 0.934681 0.030006
v 0.460153 0.935513 0.036020
v 0.467972 0.934128 0.016892
v 0.473942 0.934982 0.025052
v 0.478610 0.937401 0.030098
v 0.480722 0.943346 0.034154
v 0.481500 0.933627 0.005945
v 0.460301 0.934273 0.006455
v 0.473489 0.933736 -0.005556
v 0.450791 0.934593 -0.006198
v 0.465528 0.934016 -0.019533
v 0.456409 0.934404 -0.034224
v 0.459718 0.934353 -0.053530
v 0.459221 0.934496 -0.070322
v 0.456908 0.934694 -0.082425
v 0.454239 0.934944 -0.091350
v 0.461254 0.934459 -0.088723
v 0.457223 0.934721 -0.097466
v 0.450551 0.935242 -0.098172
v 0.453333 0.936891 -0.100486
v 0.397011 0.936889 0.036447
v 0.400736 0.937043 0.052041
v 0.408244 0.936719 0.061091
v 0.404350 0.939680 0.065489
v 0.412304 0.945602 0.073929
v 0.422291 0.946721 0.073054
v 0.429485 0.940415 0.066483
v 0.430567 0.946403 0.065829
v 0.430624 0.951833 0.064613
v 0.438272 0.954393 0.051515
v 0.452379 0.956807 0.038088
v 0.449129 0.953498 0.033572
v 0.434815 0.954712 0.047424
v 0.449346 0.962184 0.034250
v 0.435812 0.963898 0.047619
v 0.436767 0.973371 0.047822
v 0.425915 0.972744 0.057204
v 0.426575 0.981666 0.057198
v 0.427192 0.989799 0.057292
v 0.393770 0.936925 0.020909
v 0.392456 0.936987 0.005335
v 0.387006 0.937262 -0.000374
v 0.394150 0.937067 -0.010663
v 0.382356 0.937581 -0.005167
v 0.390481 0.938301 -0.015488
v 0.380946 0.942223 -0.006820
v 0.389839 0.943498 -0.015785
v 0.381038 0.948282 -0.007013
v 0.381323 0.954017 -0.006892
v 0.372357 0.947659 0.001563
v 0.372823 0.941946 0.001275
v 0.365253 0.947180 0.009201
v 0.364566 0.946882 0.015912
v 0.368998 0.947008 0.022017
v 0.384207 0.959037 -0.003937
v 0.387325 0.965342 -0.001772
v 0.397558 0.965321 -0.013839
v 0.392783 0.969222 0.001675
v 0.380109 1.020010 0.009659
v 0.376702 1.018784 0.023082
v 0.373888 1.009415 0.022335
v 0.380466 1.017086 0.035645
v 0.378955 1.008256 0.034788
v 0.378380 0.997997 0.033250
v 0.444050 1.026234 -0.055942
v 0.438344 1.024858 -0.060464
v 0.458991 1.027348 -0.058774
v 0.425390 0.963122 -0.063169
vt 0.585788 0.619346
vt 0.581976 0.623118
vt 0.577792 0.618344
vt 0.579861 0.611651
vt 0.577169 0.610490
vt 0.575317 0.618871
vt 0.579064 0.624951
vt 0.074591 0.119638
vt 0.073441 0.123233
vt 0.068743 0.122336
vt 0.067290 0.118613
vt 0.060951 0.123922
vt 0.064264 0.126374
vt 0.068677 0.129568
vt 0.060109 0.114509
vt 0.067135 0.112005
vt 0.073738 0.114463
vt 0.064234 0.116427
vt 0.734892 0.696789
vt 0.735691 0.690895
vt 0.744425 0.685768
vt 0.743442 0.691004
vt 0.082913 0.126386
vt 0.081678 0.118569
vt 0.739101 0.678518
vt 0.741927 0.676001
vt 0.727205 0.698366
vt 0.727091 0.694369
vt 0.726545 0.687821
vt 0.731964 0.684319
vt 0.736858 0.678698
vt 0.727364 0.669748
vt 0.730200 0.668703
vt 0.732030 0.671705
vt 0.729506 0.674195
vt 0.732313 0.677424
vt 0.734437 0.672800
vt 0.732854 0.667759
vt 0.598156 0.590732
vt 0.603412 0.590684
vt 0.602168 0.592990
vt 0.598934 0.594928
vt 0.607466 0.594064
vt 0.605425 0.596439
vt 0.602037 0.598700
vt 0.078724 0.127750
vt 0.740107 0.664765
vt 0.744196 0.665314
vt 0.744699 0.676919
vt 0.072567 0.133954
vt 0.076816 0.136662
vt 0.728930 0.664975
vt 0.036493 0.142883
vt 0.033352 0.149704
vt 0.028533 0.141746
vt 0.032732 0.140435
vt 0.035893 0.134432
vt 0.033365 0.134146
vt 0.613436 0.586939
vt 0.609016 0.583894
vt 0.609945 0.580400
vt 0.616176 0.583492
vt 0.031568 0.133708
vt 0.027629 0.138945
vt 0.038964 0.136282
vt 0.662142 0.724884
vt 0.656131 0.721887
vt 0.659358 0.721112
vt 0.663728 0.721966
vt 0.664460 0.718541
vt 0.659723 0.717681
vt 0.655052 0.717372
vt 0.029097 0.152130
vt 0.024397 0.147804
vt 0.621739 0.586859
vt 0.620282 0.578945
vt 0.624873 0.581764
vt 0.033907 0.157766
vt 0.028683 0.156585
vt 0.037349 0.158407
vt 0.038517 0.150513
vt 0.046104 0.154606
vt 0.045455 0.157248
vt 0.041554 0.153567
vt 0.045645 0.150887
vt 0.046539 0.144973
vt 0.043819 0.145124
vt 0.040849 0.144375
vt 0.045380 0.161645
vt 0.041653 0.160399
vt 0.634570 0.640944
vt 0.636909 0.646929
vt 0.632533 0.647430
vt 0.630201 0.643765
vt 0.626286 0.647650
vt 0.630245 0.650894
vt 0.634455 0.652730
vt 0.683433 0.683386
vt 0.682494 0.679986
vt 0.692927 0.679209
vt 0.693901 0.683980
vt 0.707821 0.686469
vt 0.708130 0.681569
vt 0.708334 0.677428
vt 0.698352 0.674462
vt 0.681147 0.675165
vt 0.687407 0.672714
vt 0.693482 0.672391
vt 0.675170 0.694367
vt 0.669881 0.692272
vt 0.671082 0.689525
vt 0.676401 0.689776
vt 0.666539 0.689400
vt 0.671224 0.686989
vt 0.676374 0.686530
vt 0.699576 0.670764
vt 0.693842 0.670345
vt 0.690996 0.668213
vt 0.627670 0.590633
vt 0.630637 0.584982
vt 0.634749 0.588164
vt 0.633225 0.592929
vt 0.633480 0.581893
vt 0.637425 0.588259
vt 0.636674 0.593572
vt 0.698577 0.666640
vt 0.667998 0.696903
vt 0.663620 0.694779
vt 0.670515 0.684233
vt 0.665336 0.683329
vt 0.633192 0.599436
vt 0.639074 0.598783
vt 0.640035 0.589077
vt 0.049237 0.163453
vt 0.048935 0.170044
vt 0.043984 0.169431
vt 0.047828 0.178024
vt 0.043858 0.176617
vt 0.040795 0.166841
vt 0.650563 0.587907
vt 0.646599 0.587799
vt 0.641197 0.579684
vt 0.647993 0.581392
vt 0.643162 0.588295
vt 0.638416 0.579860
vt 0.639295 0.608927
vt 0.631644 0.604335
vt 0.628440 0.607800
vt 0.636210 0.615197
vt 0.651698 0.618151
vt 0.648512 0.620295
vt 0.643224 0.608884
vt 0.642013 0.603678
vt 0.049120 0.186064
vt 0.043944 0.183312
vt 0.688861 0.665912
vt 0.684604 0.668227
vt 0.679812 0.671489
vt 0.644466 0.596130
vt 0.645808 0.601315
vt 0.655385 0.616495
vt 0.648684 0.607453
vt 0.645513 0.605595
vt 0.643929 0.605721
vt 0.642966 0.604270
vt 0.645062 0.603483
vt 0.664919 0.675988
vt 0.666750 0.672550
vt 0.668302 0.675550
vt 0.669267 0.678345
vt 0.672340 0.669440
vt 0.674326 0.673356
vt 0.649922 0.601454
vt 0.653557 0.607849
vt 0.666534 0.594136
vt 0.663628 0.596942
vt 0.664710 0.591102
vt 0.668696 0.589606
vt 0.055109 0.188337
vt 0.054489 0.192354
vt 0.046063 0.193229
vt 0.659520 0.598179
vt 0.657124 0.595397
vt 0.648022 0.595336
vt 0.065548 0.179800
vt 0.071493 0.189185
vt 0.064282 0.190031
vt 0.059616 0.180118
vt 0.052574 0.179982
vt 0.659725 0.605875
vt 0.656196 0.600600
vt 0.657809 0.600401
vt 0.662027 0.604536
vt 0.664233 0.602743
vt 0.653067 0.600835
vt 0.651430 0.595361
vt 0.661921 0.623492
vt 0.664783 0.621854
vt 0.670430 0.627202
vt 0.665383 0.628820
vt 0.668165 0.619594
vt 0.673419 0.624090
vt 0.677080 0.624226
vt 0.677045 0.627861
vt 0.636135 0.681893
vt 0.632608 0.680852
vt 0.634307 0.673519
vt 0.638009 0.675888
vt 0.641036 0.668604
vt 0.636877 0.667457
vt 0.672459 0.615555
vt 0.676621 0.620540
vt 0.675490 0.622115
vt 0.670724 0.617057
vt 0.683056 0.625101
vt 0.681047 0.620870
vt 0.682315 0.619413
vt 0.684770 0.621566
vt 0.679724 0.617009
vt 0.681587 0.615874
vt 0.685750 0.615721
vt 0.678163 0.610592
vt 0.680596 0.609055
vt 0.655620 0.649709
vt 0.651829 0.653540
vt 0.648516 0.651272
vt 0.652735 0.647387
vt 0.648544 0.656944
vt 0.645436 0.654123
vt 0.643776 0.656527
vt 0.646543 0.659700
vt 0.655655 0.655933
vt 0.652391 0.659410
vt 0.649759 0.662612
vt 0.643718 0.663780
vt 0.647145 0.667107
vt 0.656461 0.662548
vt 0.653947 0.665943
vt 0.651334 0.670444
vt 0.644556 0.672499
vt 0.649315 0.676039
vt 0.658140 0.669397
vt 0.656065 0.673967
vt 0.654470 0.678626
vt 0.647389 0.682409
vt 0.653418 0.684293
vt 0.660535 0.677209
vt 0.659905 0.681108
vt 0.658457 0.686246
vt 0.652778 0.691012
vt 0.658574 0.692703
vt 0.646384 0.693927
vt 0.646732 0.688500
vt 0.652763 0.696106
vt 0.658306 0.697960
vt 0.652186 0.701259
vt 0.657304 0.703225
vt 0.662230 0.699707
vt 0.661112 0.704634
vt 0.666861 0.701718
vt 0.666066 0.706053
vt 0.665416 0.710074
vt 0.660578 0.709197
vt 0.656333 0.708191
vt 0.650413 0.711565
vt 0.651160 0.706419
vt 0.655349 0.712803
vt 0.660022 0.713701
vt 0.664943 0.714415
vt 0.672136 0.711662
vt 0.671650 0.715446
vt 0.670984 0.719625
vt 0.679990 0.716761
vt 0.678930 0.720854
vt 0.677709 0.725108
vt 0.669872 0.723509
vt 0.675501 0.728381
vt 0.667873 0.726829
vt 0.609477 0.655933
vt 0.614291 0.661052
vt 0.611034 0.664166
vt 0.606285 0.659054
vt 0.618462 0.664961
vt 0.616223 0.667249
vt 0.657522 0.726010
vt 0.652116 0.722253
vt 0.617882 0.657428
vt 0.622355 0.660720
vt 0.626628 0.662838
vt 0.622137 0.667844
vt 0.626617 0.655696
vt 0.630451 0.657871
vt 0.637632 0.713993
vt 0.644475 0.715272
vt 0.646336 0.720654
vt 0.638387 0.718743
vt 0.649878 0.716578
vt 0.644401 0.709975
vt 0.637793 0.707934
vt 0.638594 0.702267
vt 0.645146 0.704263
vt 0.639017 0.696305
vt 0.645764 0.698881
vt 0.639286 0.690622
vt 0.633157 0.693704
vt 0.634467 0.687429
vt 0.640578 0.685167
vt 0.642213 0.678839
vt 0.628313 0.691756
vt 0.630578 0.686016
vt 0.654423 0.628677
vt 0.658226 0.625841
vt 0.661820 0.631071
vt 0.657495 0.634200
vt 0.652666 0.638334
vt 0.649510 0.632125
vt 0.643965 0.624082
vt 0.643728 0.635407
vt 0.638657 0.628005
vt 0.632108 0.619220
vt 0.634065 0.631307
vt 0.628018 0.622521
vt 0.620070 0.612379
vt 0.624410 0.610003
vt 0.614258 0.605808
vt 0.617283 0.603514
vt 0.620568 0.601194
vt 0.612027 0.598707
vt 0.614682 0.596275
vt 0.617033 0.593894
vt 0.623622 0.598892
vt 0.619400 0.590912
vt 0.625899 0.595972
vt 0.611734 0.589606
vt 0.609690 0.591941
vt 0.605722 0.588450
vt 0.606988 0.585934
vt 0.600214 0.587166
vt 0.601086 0.584171
vt 0.603328 0.581784
vt 0.595816 0.580430
vt 0.594475 0.584507
vt 0.593660 0.588038
vt 0.586735 0.588201
vt 0.587099 0.591308
vt 0.593650 0.592773
vt 0.588033 0.595550
vt 0.579850 0.596284
vt 0.581385 0.600116
vt 0.594752 0.596772
vt 0.589676 0.599989
vt 0.582811 0.603421
vt 0.575334 0.607526
vt 0.591663 0.604072
vt 0.584300 0.606825
vt 0.596500 0.609807
vt 0.590375 0.614815
vt 0.591222 0.626608
vt 0.595812 0.621546
vt 0.601620 0.615543
vt 0.601836 0.628287
vt 0.607597 0.622558
vt 0.602279 0.605879
vt 0.606971 0.610885
vt 0.612561 0.618037
vt 0.615954 0.633409
vt 0.620799 0.628919
vt 0.610884 0.608114
vt 0.616524 0.614898
vt 0.624754 0.625389
vt 0.626346 0.637710
vt 0.630660 0.634189
vt 0.622153 0.642307
vt 0.622266 0.652460
vt 0.617452 0.647562
vt 0.610617 0.638678
vt 0.613034 0.652479
vt 0.605982 0.642984
vt 0.597105 0.633105
vt 0.602409 0.646166
vt 0.593730 0.636975
vt 0.587257 0.629979
vt 0.590923 0.639582
vt 0.584163 0.631963
vt 0.587137 0.641454
vt 0.580175 0.632959
vt 0.574775 0.625586
vt 0.575146 0.633337
vt 0.570565 0.624264
vt 0.569780 0.616799
vt 0.572177 0.616580
vt 0.573423 0.604749
vt 0.569089 0.611418
vt 0.571748 0.602487
vt 0.578614 0.594214
vt 0.569545 0.599714
vt 0.578032 0.591843
vt 0.586332 0.585346
vt 0.044673 0.110568
vt 0.041230 0.119056
vt 0.038298 0.118327
vt 0.041505 0.110125
vt 0.037467 0.126698
vt 0.034804 0.126298
vt 0.044333 0.119673
vt 0.040381 0.127715
vt 0.047952 0.120311
vt 0.043424 0.128952
vt 0.051607 0.121509
vt 0.047022 0.130983
vt 0.043235 0.138162
vt 0.050380 0.131843
vt 0.047020 0.137989
vt 0.052411 0.132548
vt 0.049743 0.138697
vt 0.050226 0.144891
vt 0.052971 0.139459
vt 0.055314 0.131996
vt 0.056076 0.139981
vt 0.058938 0.133968
vt 0.058147 0.122186
vt 0.055340 0.122049
vt 0.056001 0.112729
vt 0.061954 0.108624
vt 0.051849 0.112210
vt 0.056603 0.105647
vt 0.066128 0.103429
vt 0.061049 0.100823
vt 0.048117 0.111239
vt 0.051883 0.104480
vt 0.054568 0.097858
vt 0.727415 0.706400
vt 0.734793 0.706552
vt 0.733701 0.712703
vt 0.726770 0.710646
vt 0.047671 0.103183
vt 0.049192 0.097188
vt 0.725339 0.716236
vt 0.731650 0.717911
vt 0.717060 0.708584
vt 0.716129 0.713908
vt 0.729928 0.721877
vt 0.723954 0.721068
vt 0.715297 0.719378
vt 0.705004 0.712368
vt 0.704406 0.716897
vt 0.566685 0.622471
vt 0.569523 0.631262
vt 0.559831 0.632502
vt 0.565312 0.619266
vt 0.703730 0.721653
vt 0.714078 0.723421
vt 0.692029 0.714674
vt 0.691448 0.718697
vt 0.582127 0.642185
vt 0.578097 0.643168
vt 0.690982 0.722906
vt 0.703053 0.724804
vt 0.595390 0.651577
vt 0.591387 0.653815
vt 0.689606 0.726827
vt 0.598845 0.648741
vt 0.603065 0.661363
vt 0.681182 0.709508
vt 0.692273 0.711179
vt 0.680563 0.713194
vt 0.681513 0.705383
vt 0.692334 0.706548
vt 0.705088 0.706784
vt 0.692805 0.701399
vt 0.705828 0.702101
vt 0.717703 0.704995
vt 0.707009 0.698295
vt 0.718159 0.701510
vt 0.727583 0.702485
vt 0.718699 0.697041
vt 0.735192 0.701221
vt 0.707956 0.691089
vt 0.719427 0.692854
vt 0.708055 0.694743
vt 0.719830 0.687601
vt 0.718990 0.682071
vt 0.725718 0.681072
vt 0.716361 0.676899
vt 0.723953 0.674446
vt 0.716301 0.670638
vt 0.723288 0.669509
vt 0.717238 0.665248
vt 0.723639 0.664237
vt 0.717527 0.660509
vt 0.724049 0.660158
vt 0.730252 0.661802
vt 0.725168 0.656259
vt 0.732175 0.658518
vt 0.736309 0.664817
vt 0.734829 0.667493
vt 0.735685 0.654977
vt 0.093759 0.144947
vt 0.090789 0.138360
vt 0.097910 0.136462
vt 0.100997 0.142863
vt 0.088023 0.132261
vt 0.096445 0.132577
vt 0.724753 0.650967
vt 0.085849 0.150429
vt 0.082922 0.145511
vt 0.080489 0.139951
vt 0.075785 0.150908
vt 0.073335 0.146776
vt 0.070896 0.143512
vt 0.067405 0.152059
vt 0.065429 0.148624
vt 0.062370 0.145057
vt 0.066928 0.139896
vt 0.059611 0.142477
vt 0.063165 0.136020
vt 0.058203 0.149355
vt 0.055877 0.148067
vt 0.053267 0.145412
vt 0.053505 0.151048
vt 0.051212 0.150121
vt 0.048421 0.149976
vt 0.050141 0.153091
vt 0.048154 0.153958
vt 0.050480 0.154357
vt 0.050149 0.155621
vt 0.049517 0.157684
vt 0.048413 0.159841
vt 0.052415 0.156340
vt 0.053328 0.159222
vt 0.053353 0.162175
vt 0.053743 0.165022
vt 0.057406 0.159009
vt 0.058349 0.161695
vt 0.058741 0.164791
vt 0.053023 0.170672
vt 0.059303 0.171357
vt 0.063287 0.159852
vt 0.063758 0.163742
vt 0.064746 0.170653
vt 0.069399 0.161194
vt 0.070338 0.168267
vt 0.072514 0.177832
vt 0.078275 0.187569
vt 0.077937 0.164030
vt 0.080741 0.173648
vt 0.085719 0.183540
vt 0.664961 0.641135
vt 0.672507 0.635677
vt 0.676492 0.638537
vt 0.668321 0.644006
vt 0.089748 0.168457
vt 0.093392 0.180595
vt 0.673228 0.647455
vt 0.681490 0.642567
vt 0.664088 0.648322
vt 0.668496 0.651784
vt 0.687092 0.648571
vt 0.679085 0.652157
vt 0.674048 0.655961
vt 0.664304 0.655568
vt 0.669368 0.659768
vt 0.683875 0.657116
vt 0.679179 0.660518
vt 0.674488 0.663439
vt 0.664963 0.662673
vt 0.669130 0.666537
vt 0.682385 0.664744
vt 0.677608 0.667663
vt 0.687366 0.662340
vt 0.691782 0.654200
vt 0.694993 0.659118
vt 0.697218 0.662848
vt 0.706262 0.657008
vt 0.707609 0.662292
vt 0.708384 0.666111
vt 0.708220 0.671913
vt 0.716603 0.655850
vt 0.704840 0.650807
vt 0.716249 0.650155
vt 0.100690 0.161964
vt 0.096112 0.153092
vt 0.104998 0.149963
vt 0.109126 0.158292
vt 0.086208 0.158691
vt 0.077481 0.156790
vt 0.069533 0.156223
vt 0.063259 0.156395
vt 0.057556 0.155540
vt 0.060818 0.152741
vt 0.055445 0.152465
vt 0.052239 0.153998
vt 0.051933 0.152460
vt 0.694439 0.637501
vt 0.699938 0.643866
vt 0.660138 0.659148
vt 0.660701 0.666307
vt 0.664235 0.669452
vt 0.661458 0.673398
vt 0.664638 0.679890
vt 0.670206 0.681086
vt 0.675415 0.676672
vt 0.676002 0.680265
vt 0.676233 0.683575
vt 0.683766 0.686608
vt 0.694767 0.688264
vt 0.694355 0.691792
vt 0.683426 0.689980
vt 0.693560 0.696506
vt 0.682803 0.695394
vt 0.682056 0.700638
vt 0.673857 0.699204
vt 0.673163 0.703790
vt 0.672678 0.707999
vt 0.659522 0.652201
vt 0.660121 0.645417
vt 0.657256 0.643195
vt 0.662261 0.638730
vt 0.655810 0.640162
vt 0.661584 0.636731
vt 0.077064 0.196162
vt 0.071132 0.197004
vt 0.080557 0.196357
vt 0.671813 0.606537
vt 0.666871 0.601771
vt 0.668936 0.600218
vt 0.674009 0.605381
vt 0.669506 0.608176
vt 0.667402 0.609882
vt 0.674386 0.613711
vt 0.676387 0.611835
vt 0.678335 0.618705
vt 0.679232 0.622401
vt 0.679415 0.626195
vt 0.641824 0.659607
vt 0.680348 0.629377
vt 0.683261 0.627735
vt 0.665029 0.611828
vt 0.662068 0.613856
vt 0.656750 0.606749
vt 0.658872 0.615740
vt 0.677283 0.604962
vt 0.567730 0.609374
vt 0.044443 0.102709
vt 0.045048 0.097582
vt 0.069110 0.104976
vt 0.638649 0.638613
vt 0.641503 0.645342
vt 0.647092 0.642223
vt 0.631034 0.711892
vt 0.623936 0.711738
vt 0.624023 0.704898
vt 0.631171 0.706294
vt 0.631950 0.700105
vt 0.626176 0.697994
vt 0.626610 0.717393
vt 0.631911 0.717270
vt 0.606153 0.603181
vt 0.609399 0.600877
vt 0.597802 0.601266
vt 0.654820 0.588230
vt 0.636143 0.580992
vt 0.037547 0.165274
vt 0.034264 0.164374
vt 0.628007 0.578245
vn -0.0026 0.9999 0.0097
vn 0.3200 0.8929 0.3166
vn 0.7177 0.6694 0.1920
vn 0.6673 0.6791 -0.3058
vn 0.9149 -0.0040 -0.4037
vn 0.9731 0.0563 0.2233
vn 0.7288 0.2630 0.6323
vn 0.8970 0.4145 -0.1539
vn 0.9446 0.2174 -0.2460
vn 0.7362 0.5975 -0.3177
vn 0.5907 0.7775 -0.2159
vn 0.4468 0.8522 -0.2723
vn 0.6922 0.5425 -0.4760
vn 0.8190 0.0593 -0.5708
vn 0.7848 0.0028 -0.6198
vn 0.9482 0.0372 -0.3154
vn 0.9140 0.3397 -0.2216
vn 0.7388 0.4443 -0.5067
vn 0.9075 0.2166 0.3599
vn 0.7460 0.6656 0.0213
vn 0.8292 -0.5588 -0.0132
vn 0.9711 -0.2175 -0.0979
vn 0.9681 0.0329 -0.2484
vn 0.7060 0.4648 0.5343
vn 0.3185 0.9390 0.1297
vn 0.1348 0.9908 -0.0097
vn 0.4805 0.8474 -0.2260
vn 0.8720 0.1068 -0.4778
vn 0.4554 -0.6899 0.5627
vn 0.7256 -0.6676 0.1667
vn 0.9983 0.0570 -0.0074
vn 0.8255 0.2840 0.4877
vn 0.6236 0.7814 -0.0245
vn 0.8764 0.1121 -0.4684
vn 0.4275 -0.8508 -0.3057
vn 0.6390 -0.0086 -0.7692
vn 0.0412 0.0857 -0.9955
vn 0.0397 0.5731 -0.8186
vn 0.4382 0.6671 -0.6025
vn -0.6548 0.2652 -0.7078
vn -0.4179 0.7717 -0.4795
vn -0.0418 0.9809 -0.1898
vn 0.6458 -0.7631 -0.0253
vn 0.4201 -0.9073 -0.0166
vn 0.1836 -0.9830 -0.0037
vn 0.6091 -0.6914 -0.3885
vn -0.0001 -0.9998 0.0207
vn 0.0242 -0.9925 0.1202
vn 0.1798 -0.0350 -0.9831
vn -0.3573 -0.1266 -0.9254
vn -0.0122 0.4950 -0.8688
vn 0.1852 0.4301 -0.8836
vn 0.5492 0.5285 -0.6474
vn 0.4534 0.7468 -0.4866
vn -0.5519 0.4863 -0.6774
vn 0.1086 0.4037 -0.9084
vn -0.5030 0.5051 -0.7014
vn 0.6131 0.2603 -0.7459
vn 0.5722 0.0768 -0.8165
vn 0.1851 0.9269 0.3266
vn -0.1198 0.7826 0.6109
vn 0.2754 0.5451 0.7918
vn 0.5657 0.4875 0.6651
vn 0.6671 0.0272 0.7445
vn 0.2802 0.1648 0.9457
vn -0.3445 0.3186 0.8831
vn -0.5449 0.0398 -0.8375
vn -0.7079 0.5348 -0.4614
vn -0.7351 -0.0002 -0.6780
vn -0.5938 -0.3498 -0.7246
vn -0.6241 -0.2626 -0.7359
vn -0.3569 -0.1136 -0.9272
vn -0.6382 0.4988 -0.5864
vn -0.7563 0.3418 -0.5578
vn -0.4848 0.2915 -0.8246
vn -0.3909 0.6319 -0.6693
vn 0.0677 0.7982 -0.5985
vn 0.1824 0.4357 -0.8814
vn 0.2292 -0.0072 -0.9733
vn -0.6591 0.2031 -0.7241
vn -0.6710 0.0441 -0.7402
vn -0.3499 0.9288 -0.1225
vn -0.4578 0.8838 0.0964
vn -0.1003 0.9929 0.0643
vn -0.0403 0.9991 0.0090
vn -0.0206 0.9998 0.0084
vn -0.1142 0.9897 0.0859
vn -0.4572 0.8393 0.2942
vn 0.3218 0.7401 0.5906
vn 0.5376 0.0750 0.8399
vn 0.2132 0.5551 0.8040
vn 0.0974 0.9166 0.3877
vn 0.0885 0.9834 0.1584
vn 0.3010 0.8195 0.4876
vn 0.5183 0.2387 0.8212
vn 0.5933 0.0531 0.8032
vn 0.5547 -0.4618 0.6921
vn 0.1768 -0.5197 0.8359
vn 0.1771 -0.2724 0.9458
vn 0.6848 -0.0680 0.7256
vn 0.8099 0.1066 0.5768
vn 0.7677 0.5639 0.3045
vn 0.5479 0.6559 0.5193
vn 0.3873 0.3297 0.8610
vn 0.4915 0.8017 0.3402
vn 0.2403 0.9471 0.2128
vn 0.5954 -0.6421 0.4828
vn 0.1911 -0.8637 0.4663
vn 0.0059 -0.9306 0.3659
vn -0.7264 0.5216 -0.4474
vn -0.7626 -0.0571 -0.6444
vn -0.8840 -0.1891 -0.4276
vn -0.9288 0.2639 -0.2601
vn -0.6782 -0.4866 -0.5507
vn -0.8428 -0.5039 -0.1890
vn -0.9782 -0.1966 0.0664
vn 0.2773 -0.9252 0.2592
vn 0.6719 0.0427 0.7394
vn 0.2244 0.0972 0.9696
vn 0.4777 0.4231 0.7699
vn -0.0583 0.1761 0.9826
vn -0.8909 0.3483 -0.2914
vn -0.9666 0.0187 -0.2557
vn -0.9123 -0.3163 -0.2602
vn -0.7490 -0.0298 -0.6618
vn -0.4556 -0.0357 -0.8895
vn -0.4893 0.4467 -0.7491
vn -0.6451 0.0110 -0.7640
vn -0.4256 0.6656 -0.6130
vn -0.7331 0.1411 -0.6653
vn -0.5340 0.7366 -0.4150
vn -0.3579 0.8338 -0.4203
vn -0.8091 0.3102 -0.4992
vn -0.8528 0.0465 -0.5202
vn -0.8561 0.0830 -0.5101
vn -0.7911 -0.0305 -0.6109
vn -0.7859 -0.1819 -0.5910
vn -0.8262 0.0620 -0.5599
vn -0.7939 -0.1558 -0.5877
vn -0.8774 0.3340 -0.3445
vn -0.0684 0.4536 -0.8886
vn -0.8638 0.2310 -0.4478
vn 0.0568 -0.9739 0.2198
vn 0.1711 -0.9404 0.2938
vn 0.2650 -0.9130 0.3100
vn -0.8653 0.1601 -0.4750
vn -0.8417 -0.2034 -0.5001
vn -0.8227 0.0141 -0.5683
vn -0.9595 -0.0383 -0.2790
vn -0.9678 -0.1126 -0.2250
vn -0.3464 0.8821 -0.3192
vn 0.2532 0.4232 -0.8699
vn -0.2657 -0.4747 -0.8391
vn -0.6025 -0.1452 0.7848
vn -0.2710 -0.9254 0.2648
vn -0.2324 -0.5956 0.7689
vn 0.3030 -0.1187 0.9456
vn -0.0259 -0.9987 0.0431
vn 0.3383 -0.8678 0.3641
vn -0.8162 0.3873 -0.4286
vn -0.8581 0.2841 -0.4278
vn -0.2484 -0.9650 -0.0845
vn -0.9598 -0.0279 -0.2793
vn -0.8379 -0.5444 -0.0391
vn -0.7791 -0.4962 -0.3831
vn -0.9412 0.3257 -0.0895
vn -0.9677 0.1625 -0.1926
vn -0.5711 0.6323 -0.5235
vn -0.0619 -0.9979 -0.0208
vn -0.0899 -0.9956 -0.0258
vn -0.2300 -0.9528 -0.1981
vn -0.5570 -0.5819 -0.5926
vn -0.7079 0.4812 -0.5169
vn -0.8884 0.3671 -0.2757
vn -0.9186 0.2033 -0.3390
vn -0.7137 0.3208 -0.6227
vn -0.7452 0.1085 -0.6579
vn -0.7438 0.5820 -0.3287
vn -0.6339 0.6814 -0.3658
vn -0.7290 0.1582 -0.6660
vn -0.6290 0.5825 -0.5148
vn -0.8749 0.4813 -0.0538
vn -0.9119 0.3020 -0.2779
vn -0.5798 0.6848 -0.4414
vn -0.8317 0.5551 -0.0117
vn -0.9205 0.0426 0.3883
vn -0.8816 0.0254 0.4713
vn -0.8721 0.2999 0.3866
vn -0.8716 0.2575 0.4172
vn -0.8376 -0.1208 0.5328
vn -0.6857 0.3141 -0.6566
vn -0.9462 0.1670 -0.2770
vn -0.8900 0.4544 -0.0389
vn -0.5948 0.6028 -0.5319
vn -0.7392 -0.2878 0.6089
vn -0.9688 -0.1885 0.1606
vn -0.7345 -0.6779 0.0294
vn -0.4120 -0.8550 0.3150
vn -0.8284 -0.1924 -0.5261
vn -0.4708 -0.8275 -0.3061
vn -0.0748 -0.9972 0.0030
vn -0.3847 -0.8582 -0.3399
vn -0.0518 -0.9986 -0.0065
vn -0.0437 -0.9990 -0.0006
vn -0.0513 -0.9987 0.0054
vn -0.3364 -0.9031 0.2669
vn -0.7050 -0.3866 0.5945
vn -0.0455 -0.9989 0.0096
vn -0.2967 -0.9271 0.2292
vn -0.6994 -0.4364 0.5661
vn -0.7664 -0.1701 0.6194
vn -0.7688 -0.2095 0.6042
vn -0.2613 -0.9457 0.1931
vn -0.6830 -0.4859 0.5454
vn -0.7657 -0.2297 0.6008
vn -0.7890 -0.2227 0.5726
vn -0.7690 -0.3044 0.5621
vn -0.6739 -0.5254 0.5194
vn -0.7719 -0.2132 0.5990
vn -0.7424 -0.3673 0.5603
vn -0.7866 0.1913 0.5870
vn -0.7965 0.0670 0.6009
vn -0.7360 -0.1144 0.6673
vn -0.6073 -0.1756 0.7749
vn -0.5612 0.0564 0.8258
vn -0.7786 0.2554 0.5731
vn -0.5284 0.1698 0.8318
vn -0.8154 -0.0307 0.5781
vn -0.7702 0.2792 0.5735
vn -0.8136 -0.0212 0.5811
vn -0.5664 -0.0425 0.8231
vn -0.8012 -0.0670 0.5946
vn -0.5239 -0.0706 0.8488
vn 0.1976 -0.0394 0.9795
vn 0.2502 -0.0757 0.9652
vn 0.6276 -0.0164 0.7784
vn 0.6491 -0.0202 0.7604
vn 0.6820 -0.1075 0.7235
vn 0.3051 -0.1148 0.9454
vn -0.4579 -0.0759 0.8858
vn -0.7628 0.0094 0.6465
vn -0.7840 -0.0755 0.6162
vn -0.4072 0.0100 0.9133
vn 0.3099 -0.0592 0.9489
vn 0.6771 -0.1443 0.7216
vn 0.7191 0.0042 0.6949
vn 0.7294 -0.1841 0.6589
vn 0.7483 -0.0301 0.6627
vn 0.7406 -0.1707 0.6499
vn 0.7535 -0.0737 0.6533
vn 0.7313 0.2329 0.6411
vn 0.6983 0.3573 0.6202
vn 0.4761 0.7737 0.4181
vn 0.3663 0.8672 0.3373
vn 0.0975 0.9909 0.0930
vn 0.0418 0.9971 0.0630
vn -0.0489 0.9924 0.1132
vn -0.3605 0.8444 0.3963
vn -0.0454 0.9989 -0.0088
vn -0.1174 0.9924 0.0372
vn -0.4673 0.8391 0.2783
vn -0.1418 0.9891 0.0407
vn -0.4775 0.8330 0.2795
vn -0.7726 0.3576 0.5247
vn -0.7889 0.3413 0.5111
vn -0.6835 0.3517 0.6396
vn -0.8298 0.0195 0.5577
vn -0.8150 0.0356 0.5783
vn -0.8112 -0.0623 0.5814
vn -0.8150 -0.0725 0.5749
vn -0.8067 -0.0717 0.5866
vn -0.8112 -0.0740 0.5801
vn -0.7956 -0.0176 0.6056
vn -0.8891 -0.0630 0.4534
vn -0.9098 0.0261 0.4143
vn -0.7482 0.2831 0.6000
vn -0.7801 0.2274 0.5829
vn -0.9758 -0.0987 -0.1952
vn -0.9601 0.0170 -0.2793
vn -0.7549 -0.1674 -0.6341
vn -0.7465 -0.0058 -0.6653
vn -0.9948 -0.0863 -0.0537
vn -0.8103 -0.2001 -0.5507
vn -0.7578 -0.2591 -0.5989
vn -0.8742 0.0423 -0.4838
vn -0.7914 0.0063 -0.6112
vn -0.7821 0.0559 -0.6207
vn -0.6884 0.5090 -0.5167
vn -0.6378 0.5791 -0.5077
vn -0.5672 0.6613 -0.4909
vn -0.7609 0.1441 -0.6327
vn -0.5609 0.7306 -0.3893
vn -0.7785 0.2464 -0.5772
vn -0.7968 0.0651 -0.6008
vn -0.7554 0.3234 -0.5699
vn -0.7921 0.0923 -0.6034
vn -0.7935 0.1571 -0.5879
vn -0.8028 0.1666 -0.5724
vn -0.7202 0.5172 -0.4625
vn -0.7425 0.5137 -0.4299
vn -0.6554 0.1516 -0.7399
vn -0.6640 0.0905 -0.7422
vn -0.0654 0.0047 -0.9978
vn 0.0171 0.0566 -0.9983
vn 0.5809 -0.0645 -0.8114
vn 0.5843 -0.0937 -0.8061
vn 0.6837 0.3036 -0.6636
vn 0.6920 -0.1770 -0.6999
vn 0.6805 -0.0733 -0.7291
vn 0.7343 -0.2946 -0.6115
vn 0.7118 -0.1869 -0.6771
vn 0.6724 0.0257 -0.7397
vn 0.7062 0.0066 -0.7080
vn 0.7645 -0.3682 -0.5291
vn 0.7941 -0.0022 -0.6077
vn 0.5308 0.5909 -0.6075
vn 0.6041 0.4266 -0.6731
vn 0.7544 0.1474 -0.6396
vn 0.9181 -0.0119 -0.3963
vn 0.1804 0.9516 -0.2488
vn 0.4556 0.7723 -0.4427
vn -0.0237 0.9997 0.0057
vn -0.0284 0.9996 -0.0076
vn -0.0235 0.9993 0.0290
vn -0.0493 0.9988 0.0020
vn -0.0376 0.9991 0.0172
vn -0.0438 0.9990 -0.0122
vn -0.0237 0.9997 0.0055
vn -0.0555 0.9984 -0.0112
vn -0.0644 0.9979 -0.0053
vn -0.0357 0.9993 -0.0114
vn -0.0176 0.9998 0.0038
vn -0.0277 0.9996 -0.0055
vn -0.2022 0.9728 -0.1129
vn -0.1921 0.9678 -0.1624
vn -0.2292 0.9582 -0.1711
vn -0.0266 0.9996 -0.0019
vn -0.2733 0.9433 -0.1881
vn -0.0160 0.9999 0.0037
vn -0.0532 0.9984 -0.0181
vn -0.0502 0.9984 -0.0256
vn -0.0469 0.9986 -0.0240
vn -0.0286 0.9996 -0.0068
vn -0.0050 1.0000 0.0023
vn -0.0095 0.9997 0.0218
vn 0.1384 0.9829 0.1215
vn 0.1641 0.9692 0.1837
vn 0.2227 0.9450 0.2398
vn 0.6013 0.5812 0.5483
vn 0.6723 0.4467 0.5903
vn 0.7652 0.0448 0.6422
vn 0.7754 -0.0312 0.6307
vn 0.7797 -0.0608 0.6232
vn 0.7674 -0.2064 0.6071
vn 0.7681 -0.2326 0.5965
vn 0.9265 -0.3216 0.1956
vn 0.9772 -0.0440 0.2079
vn 0.8754 -0.3666 -0.3149
vn 0.9178 -0.3439 0.1986
vn 0.8592 -0.4160 -0.2979
vn 0.7775 -0.3911 -0.4926
vn 0.8398 0.4009 -0.3661
vn 0.7267 0.4386 -0.5287
vn 0.7078 0.3932 -0.5869
vn 0.4732 0.8008 -0.3672
vn 0.4250 0.8061 -0.4118
vn 0.4432 0.7816 -0.4389
vn 0.6410 0.4822 -0.5972
vn 0.5909 0.5105 -0.6247
vn 0.7666 0.1175 -0.6313
vn 0.6610 0.1781 -0.7289
vn 0.8118 0.0518 -0.5817
vn 0.6424 0.0924 -0.7607
vn 0.4954 0.0538 -0.8670
vn 0.6778 0.1625 -0.7171
vn 0.4802 0.2782 -0.8319
vn 0.5261 0.6911 -0.4956
vn 0.3479 0.7795 -0.5208
vn 0.1454 0.6984 -0.7008
vn 0.3961 0.7659 -0.5066
vn 0.4275 0.8181 -0.3846
vn 0.6226 0.3612 -0.6942
vn 0.6657 0.4423 -0.6010
vn 0.6987 0.5667 -0.4366
vn 0.8313 0.0538 -0.5532
vn 0.7812 -0.0076 -0.6242
vn 0.9555 -0.0169 -0.2945
vn 0.7910 0.0748 -0.6072
vn 0.9395 0.1501 -0.3080
vn 0.9281 -0.0204 0.3717
vn 0.9299 0.1351 0.3421
vn 0.7115 0.4734 -0.5192
vn 0.8317 0.5067 -0.2270
vn 0.8710 0.4103 0.2701
vn 0.7576 0.0229 0.6523
vn 0.7600 0.2211 0.6112
vn 0.6493 0.7287 -0.2177
vn 0.7777 0.5961 0.1996
vn 0.6742 0.4889 0.5536
vn 0.7367 0.1081 0.6675
vn 0.6568 0.4651 0.5935
vn 0.9115 0.3676 0.1845
vn 0.7322 0.3251 0.5984
vn 0.7136 0.3339 0.6159
vn 0.7135 0.4156 0.5640
vn 0.7460 0.3730 0.5517
vn 0.7783 -0.2135 0.5905
vn 0.7609 -0.2124 0.6131
vn 0.7806 -0.1898 0.5956
vn 0.7202 0.3684 0.5879
vn 0.7654 -0.1422 0.6277
vn 0.7670 -0.2078 0.6070
vn 0.7612 -0.1473 0.6315
vn 0.7529 0.1342 0.6443
vn 0.5458 0.6894 0.4763
vn 0.6725 0.2651 0.6910
vn 0.6993 0.3613 0.6168
vn 0.7243 0.1994 0.6601
vn 0.6661 -0.0622 0.7433
vn 0.7188 -0.0466 0.6936
vn 0.7492 0.0158 0.6622
vn 0.7059 -0.0860 0.7031
vn 0.7278 -0.0578 0.6833
vn 0.7360 -0.0268 0.6764
vn 0.7064 0.0117 0.7077
vn 0.7337 0.0531 0.6774
vn 0.7550 0.0130 0.6556
vn 0.5688 0.6342 0.5237
vn -0.0702 0.9975 -0.0073
vn 0.1461 0.9847 0.0949
vn 0.4340 0.7273 0.5317
vn 0.0952 0.9937 0.0584
vn 0.2173 0.9179 0.3320
vn 0.3021 0.9245 0.2323
vn 0.3662 0.3292 0.8703
vn 0.5570 0.3506 0.7529
vn 0.2486 -0.6048 0.7566
vn 0.3252 -0.6372 0.6987
vn 0.1412 -0.9176 0.3715
vn 0.0428 -0.9669 0.2514
vn 0.1272 -0.9721 0.1968
vn 0.1040 -0.9833 0.1492
vn 0.0952 -0.9938 0.0583
vn 0.0726 -0.9931 0.0917
vn 0.1491 -0.9846 0.0910
vn 0.5628 -0.8251 -0.0502
vn 0.4839 -0.8435 -0.2333
vn 0.0471 -0.9988 0.0121
vn -0.0346 -0.9994 -0.0008
vn -0.0108 -0.9999 -0.0030
vn -0.0231 -0.9997 0.0069
vn -0.0389 -0.9992 -0.0024
vn -0.0312 -0.9995 -0.0003
vn 0.0226 -0.9997 -0.0016
vn -0.0445 -0.9990 -0.0044
vn -0.0424 -0.9991 -0.0051
vn -0.0118 -0.9997 -0.0234
vn -0.0491 -0.9988 -0.0052
vn -0.0367 -0.9993 -0.0119
vn 0.3694 -0.8359 -0.4059
vn 0.4496 -0.7708 -0.4514
vn 0.6854 -0.1482 -0.7129
vn 0.7293 -0.0200 -0.6839
vn 0.2120 -0.9169 -0.3382
vn 0.4566 -0.2666 -0.8488
vn 0.3422 0.3592 -0.8682
vn 0.1109 -0.3366 -0.9351
vn -0.0489 0.4120 -0.9099
vn -0.2566 0.5500 -0.7947
vn -0.3571 0.3099 -0.8811
vn -0.4731 0.5235 -0.7085
vn -0.6837 -0.0180 -0.7295
vn -0.7922 -0.0901 -0.6036
vn -0.8830 -0.0412 -0.4675
vn -0.9313 -0.0252 -0.3634
vn -0.4418 -0.8833 -0.1569
vn -0.5244 -0.8415 -0.1298
vn -0.6764 -0.7239 -0.1357
vn -0.6354 -0.6322 -0.4433
vn -0.1521 -0.9883 -0.0085
vn -0.2461 -0.9686 -0.0368
vn -0.2620 -0.9502 -0.1687
vn -0.4101 -0.5778 -0.7057
vn -0.1863 -0.9475 -0.2600
vn -0.0972 -0.9951 -0.0164
vn -0.0901 -0.9948 -0.0465
vn -0.0606 -0.9971 -0.0465
vn -0.0551 -0.9983 -0.0171
vn -0.0477 -0.9987 -0.0168
vn -0.0505 -0.9987 -0.0098
vn -0.0523 -0.9986 -0.0107
vn -0.0423 -0.9991 -0.0062
vn -0.0435 -0.9990 -0.0041
vn -0.0442 -0.9990 -0.0037
vn -0.0462 -0.9989 -0.0093
vn -0.0423 -0.9991 -0.0030
vn -0.0412 -0.9991 -0.0017
vn -0.0414 -0.9991 -0.0008
vn -0.0408 -0.9992 0.0003
vn -0.0411 -0.9992 -0.0005
vn -0.0406 -0.9992 0.0024
vn -0.0400 -0.9992 0.0012
vn -0.0403 -0.9992 0.0024
vn -0.0406 -0.9992 0.0036
vn -0.0417 -0.9991 0.0060
vn -0.0436 -0.9990 0.0071
vn -0.0353 -0.9993 0.0074
vn -0.0362 -0.9993 0.0039
vn -0.0432 -0.9990 0.0083
vn -0.0506 -0.9986 0.0143
vn -0.0491 -0.9986 0.0169
vn -0.0015 -0.9997 0.0241
vn -0.0200 -0.9994 0.0288
vn 0.0053 -0.9989 0.0456
vn -0.0351 -0.9994 0.0072
vn 0.0032 -0.9985 0.0540
vn 0.0729 -0.9902 0.1194
vn 0.0112 -0.9987 0.0504
vn 0.1311 -0.9778 0.1632
vn 0.3122 -0.8765 0.3664
vn 0.4868 -0.5665 0.6649
vn 0.0359 -0.9973 0.0639
vn -0.0339 -0.9994 0.0055
vn -0.0314 -0.9995 0.0057
vn -0.0392 -0.9992 0.0005
vn -0.0378 -0.9993 -0.0001
vn -0.0402 -0.9992 -0.0028
vn -0.0437 -0.9990 -0.0062
vn -0.0572 -0.9983 -0.0085
vn -0.0731 -0.9973 -0.0044
vn -0.1003 -0.9950 0.0008
vn -0.0504 -0.9987 -0.0041
vn 0.0015 -0.9540 -0.2997
vn -0.3837 -0.7594 -0.5255
vn -0.1576 -0.1938 -0.9683
vn -0.0467 -0.9988 0.0144
vn -0.2332 -0.9588 0.1621
vn -0.2220 -0.9618 0.1599
vn -0.6708 -0.5066 0.5416
vn -0.3506 0.0762 0.9334
vn 0.4156 0.1429 0.8982
vn 0.6726 -0.3062 0.6737
vn 0.6782 0.0686 0.7316
vn 0.5743 0.5243 0.6288
vn 0.0471 0.9907 0.1280
vn -0.1470 0.9890 -0.0189
vn 0.3708 0.8015 0.4692
vn 0.4817 0.7090 0.5150
vn 0.6983 -0.0660 0.7127
vn 0.6789 -0.0819 0.7296
vn 0.6705 -0.0777 0.7379
vn 0.6622 -0.0365 0.7485
vn 0.6356 -0.0422 0.7708
vn 0.6595 0.1086 0.7439
vn -0.0417 -0.9991 0.0029
vn -0.0428 -0.9991 -0.0046
vn -0.0548 -0.9981 -0.0268
vn -0.0789 -0.9959 -0.0438
vn -0.4208 -0.8192 -0.3898
vn -0.5690 -0.7157 -0.4049
vn -0.7018 -0.1977 -0.6843
vn -0.7798 -0.0397 -0.6248
vn -0.7004 0.0249 -0.7133
vn -0.6733 0.3520 -0.6502
vn -0.7163 0.0132 -0.6977
vn -0.6918 -0.2722 -0.6688
vn -0.9009 -0.0015 -0.4339
vn -0.9613 -0.0515 0.2708
vn -0.7938 -0.0999 0.5999
vn -0.6127 0.5683 -0.5491
vn -0.5808 0.6713 -0.4604
vn -0.6903 0.6035 -0.3990
vn -0.7158 0.4406 -0.5418
vn -0.7855 0.5011 -0.3631
vn -0.8719 0.4865 0.0565
vn -0.9947 0.1024 0.0045
vn -0.7905 0.3997 0.4641
vn -0.8672 0.0679 0.4932
vn -0.8715 -0.0508 0.4877
vn -0.1764 0.9788 -0.1038
vn -0.4974 0.7899 -0.3585
vn 0.0963 0.9839 -0.1507
vn -0.7430 -0.3662 -0.5602
f 1/1/1 2/2/2 3/3/3 4/4/4
f 5/5/5 4/4/4 3/3/3 6/6/6
f 7/7/7 6/6/6 3/3/3 2/2/2
f 8/8/8 9/9/9 10/10/10 11/11/11
f 12/12/12 11/11/11 10/10/10 13/13/13
f 14/14/14 13/13/13 10/10/10 9/9/9
f 15/15/15 16/16/16 17/17/17 18/18/18
f 19/19/19 20/20/20 17/21/17 16/22/16
f 11/11/11 18/18/18 17/17/17 8/8/8
f 21/23/21 8/8/8 17/17/17 22/24/22
f 23/25/23 22/26/22 17/21/17 20/20/20
f 24/27/24 25/28/25 20/20/20 19/19/19
f 26/29/26 27/30/27 20/20/20 25/28/25
f 28/31/28 23/25/23 20/20/20 27/30/27
f 29/32/29 30/33/30 31/34/31 32/35/32
f 33/36/33 32/35/32 31/34/31 34/37/34
f 35/38/35 34/37/34 31/34/31 30/33/30
f 36/39/36 37/40/37 38/41/38 39/42/39
f 40/43/40 41/44/41 38/41/38 37/40/37
f 42/45/42 39/42/39 38/41/38 41/44/41
f 9/9/9 8/8/8 21/23/21 43/46/43
f 44/47/44 45/48/45 21/49/21 22/26/22
f 14/14/14 9/9/9 43/46/43 46/50/46
f 47/51/47 46/50/46 43/46/43 21/23/21
f 48/52/48 35/38/35 30/33/30 29/32/29
f 49/53/49 50/54/50 51/55/51 52/56/52
f 53/57/53 52/56/52 51/55/51 54/58/54
f 55/59/55 56/60/56 51/61/51 57/62/57
f 58/63/58 54/58/54 51/55/51 56/64/56
f 59/65/59 49/53/49 52/56/52 53/57/53
f 60/66/60 61/67/61 62/68/62 63/69/63
f 64/70/64 63/69/63 62/68/62 65/71/65
f 66/72/66 65/71/65 62/68/62 61/67/61
f 51/55/51 50/54/50 67/73/67 57/74/57
f 68/75/68 57/62/57 67/76/67 69/77/69
f 70/78/70 69/79/69 67/73/67 50/54/50
f 71/80/71 70/78/70 50/54/50 72/81/72
f 73/82/73 74/83/74 75/84/75 76/85/76
f 77/86/77 76/85/76 75/84/75 78/87/78
f 79/88/79 78/87/78 75/84/75 72/81/72
f 80/89/80 81/90/81 75/84/75 74/83/74
f 71/80/71 72/81/72 75/84/75 81/90/81
f 82/91/82 83/92/83 84/93/84 85/94/85
f 86/95/86 85/94/85 84/93/84 87/96/87
f 88/97/88 87/96/87 84/93/84 83/92/83
f 89/98/89 90/99/90 91/100/91 92/101/92
f 93/102/93 92/101/92 91/100/91 94/103/94
f 95/104/95 94/103/94 91/100/91 96/105/96
f 97/106/97 98/107/98 91/100/91 90/99/90
f 99/108/99 96/105/96 91/100/91 98/107/98
f 100/109/100 101/110/101 102/111/102 103/112/103
f 104/113/104 105/114/105 102/111/102 101/110/101
f 106/115/106 103/112/103 102/111/102 105/114/105
f 107/116/107 96/105/96 99/108/99 108/117/108
f 109/118/109 108/117/108 99/108/99 98/107/98
f 110/119/110 111/120/111 112/121/112 113/122/113
f 114/123/114 115/124/115 112/121/112 111/120/111
f 116/125/116 113/122/113 112/121/112 115/124/115
f 117/126/117 107/116/107 108/117/108 109/118/109
f 118/127/118 119/128/119 104/113/104 101/110/101
f 120/129/120 105/114/105 104/113/104 121/130/121
f 122/131/122 113/122/113 116/125/116 123/132/123
f 124/133/124 123/132/123 116/125/116 115/124/115
f 125/134/125 126/135/126 127/136/127 80/89/80
f 128/137/128 129/138/129 127/136/127 126/135/126
f 81/90/81 80/89/80 127/136/127 130/139/130
f 131/140/131 132/141/132 127/142/127 129/143/129
f 133/144/133 130/145/130 127/142/127 132/141/132
f 122/131/122 123/132/123 134/146/134 135/147/135
f 136/148/136 135/147/135 134/146/134 137/149/137
f 138/150/138 139/151/139 134/146/134 140/152/140
f 141/153/141 140/152/140 134/146/134 123/132/123
f 142/154/142 131/155/131 129/138/129 128/137/128
f 143/156/143 109/118/109 98/107/98 144/157/144
f 145/158/145 144/157/144 98/107/98 97/106/97
f 133/144/133 146/159/146 123/132/123 124/133/124
f 147/160/147 141/153/141 123/132/123 146/159/146
f 148/161/148 138/150/138 140/152/140 149/162/149
f 150/163/150 149/162/149 140/152/140 151/164/151
f 152/165/152 151/164/151 140/152/140 141/153/141
f 141/153/141 147/160/147 153/166/153 152/165/152
f 149/162/149 150/163/150 153/166/153 147/160/147
f 154/167/154 155/168/155 156/169/156 157/170/157
f 158/171/158 159/172/159 156/169/156 155/168/155
f 160/173/160 161/174/161 149/162/149 147/160/147
f 162/175/162 163/176/163 164/177/164 165/178/165
f 142/154/142 165/179/165 164/180/164 166/181/166
f 167/182/167 166/183/166 164/177/164 163/176/163
f 168/184/168 160/173/160 147/160/147 146/159/146
f 169/185/169 170/186/170 162/187/162 171/188/171
f 172/189/172 171/188/171 162/187/162 165/179/165
f 173/190/173 174/191/174 175/192/175 176/193/176
f 166/183/166 167/182/167 175/192/175 174/191/174
f 177/194/177 176/193/176 175/192/175 167/182/167
f 178/195/178 179/196/179 166/183/166 174/191/174
f 180/197/180 181/198/181 182/199/182 183/200/183
f 184/201/184 185/202/185 182/199/182 181/198/181
f 186/203/186 187/204/187 182/199/182 185/202/185
f 188/205/188 183/206/183 182/207/182 189/208/189
f 190/209/190 189/208/189 182/207/182 187/210/187
f 191/211/191 192/212/192 193/213/193 194/214/194
f 184/201/184 194/214/194 193/213/193 185/202/185
f 186/203/186 185/202/185 193/213/193 192/212/192
f 195/215/195 196/216/196 197/217/197 198/218/198
f 199/219/199 200/220/200 197/217/197 196/216/196
f 201/221/201 198/218/198 197/217/197 200/220/200
f 202/222/202 203/223/203 201/221/201 200/220/200
f 204/224/204 205/225/205 201/226/201 203/227/203
f 206/228/206 198/229/198 201/226/201 205/225/205
f 195/230/195 198/229/198 206/228/206 207/231/207
f 208/232/208 209/233/209 206/228/206 205/225/205
f 210/234/210 207/231/207 206/228/206 209/233/209
f 211/235/211 207/231/207 210/234/210 212/236/212
f 213/237/213 214/238/214 210/234/210 209/233/209
f 215/239/215 212/236/212 210/234/210 214/238/214
f 216/240/216 212/236/212 215/239/215 217/241/217
f 218/242/218 219/243/219 215/239/215 214/238/214
f 220/244/220 217/241/217 215/239/215 219/243/219
f 221/245/221 217/241/217 220/244/220 222/246/222
f 223/247/223 224/248/224 220/244/220 219/243/219
f 225/249/225 222/246/222 220/244/220 224/248/224
f 226/250/226 222/246/222 225/249/225 227/251/227
f 121/130/121 104/113/104 225/249/225 224/248/224
f 119/128/119 227/251/227 225/249/225 104/113/104
f 228/252/228 229/253/229 226/250/226 230/254/230
f 221/245/221 222/246/222 226/250/226 229/253/229
f 231/255/231 230/254/230 226/250/226 227/251/227
f 232/256/232 230/254/230 231/255/231 233/257/233
f 119/128/119 234/258/234 231/255/231 227/251/227
f 235/259/235 233/257/233 231/255/231 234/258/234
f 236/260/236 237/261/237 235/259/235 234/258/234
f 238/262/238 239/263/239 235/259/235 237/261/237
f 240/264/240 233/257/233 235/259/235 239/263/239
f 241/265/241 242/266/242 240/264/240 243/267/243
f 232/256/232 233/257/233 240/264/240 242/266/242
f 244/268/244 243/267/243 240/264/240 239/263/239
f 238/262/238 245/269/245 244/268/244 239/263/239
f 64/70/64 65/71/65 244/268/244 245/269/245
f 66/72/66 243/267/243 244/268/244 65/71/65
f 246/270/246 247/271/247 245/269/245 238/262/238
f 248/272/248 64/70/64 245/269/245 247/271/247
f 249/273/249 250/274/250 248/272/248 247/271/247
f 251/275/251 252/276/252 248/272/248 250/274/250
f 63/69/63 64/70/64 248/272/248 252/276/252
f 253/277/253 254/278/254 252/276/252 251/275/251
f 60/66/60 63/69/63 252/276/252 254/278/254
f 255/279/255 256/280/256 254/281/254 253/282/253
f 257/283/257 60/284/60 254/281/254 256/280/256
f 61/67/61 60/66/60 257/285/257 258/286/258
f 259/287/259 260/288/260 257/283/257 256/280/256
f 261/289/261 258/290/258 257/283/257 260/288/260
f 262/291/262 263/292/263 261/289/261 260/288/260
f 264/293/264 265/294/265 261/295/261 263/296/263
f 266/297/266 258/286/258 261/295/261 265/294/265
f 267/298/267 241/265/241 266/297/266 265/294/265
f 243/267/243 66/72/66 266/297/266 241/265/241
f 61/67/61 258/286/258 266/297/266 66/72/66
f 264/293/264 268/299/268 267/298/267 265/294/265
f 269/300/269 270/301/270 267/298/267 268/299/268
f 242/266/242 241/265/241 267/298/267 270/301/270
f 271/302/271 272/303/272 270/301/270 269/300/269
f 232/256/232 242/266/242 270/301/270 272/303/272
f 273/304/273 228/252/228 272/303/272 271/302/271
f 230/254/230 232/256/232 272/303/272 228/252/228
f 274/305/274 275/306/275 273/304/273 271/302/271
f 188/205/188 276/307/276 273/304/273 275/306/275
f 229/253/229 228/252/228 273/304/273 276/307/276
f 189/208/189 277/308/277 276/307/276 188/205/188
f 221/245/221 229/253/229 276/307/276 277/308/277
f 190/209/190 216/240/216 277/308/277 189/208/189
f 217/241/217 221/245/221 277/308/277 216/240/216
f 278/309/278 279/310/279 275/306/275 274/305/274
f 183/206/183 188/205/188 275/306/275 279/310/279
f 280/311/280 281/312/281 279/313/279 278/314/278
f 180/197/180 183/200/183 279/313/279 281/312/281
f 139/151/139 138/150/138 281/312/281 280/311/280
f 148/161/148 180/197/180 281/312/281 138/150/138
f 282/315/282 283/316/283 280/311/280 278/314/278
f 284/317/284 139/151/139 280/311/280 283/316/283
f 285/318/285 286/319/286 284/317/284 283/316/283
f 287/320/287 137/149/137 284/317/284 286/319/286
f 134/146/134 139/151/139 284/317/284 137/149/137
f 288/321/288 289/322/289 287/320/287 286/319/286
f 290/323/290 291/324/291 287/320/287 289/322/289
f 136/148/136 137/149/137 287/320/287 291/324/291
f 292/325/292 293/326/293 291/324/291 290/323/290
f 294/327/294 136/148/136 291/324/291 293/326/293
f 295/328/295 296/329/296 294/327/294 293/326/293
f 297/330/297 298/331/298 294/327/294 296/329/296
f 135/147/135 136/148/136 294/327/294 298/331/298
f 299/332/299 300/333/300 298/331/298 297/330/297
f 122/131/122 135/147/135 298/331/298 300/333/300
f 68/75/68 110/119/110 300/333/300 299/332/299
f 113/122/113 122/131/122 300/333/300 110/119/110
f 301/334/301 55/59/55 299/332/299 297/330/297
f 57/62/57 68/75/68 299/332/299 55/59/55
f 296/329/296 302/335/302 301/334/301 297/330/297
f 303/336/303 304/337/304 301/334/301 302/335/302
f 56/60/56 55/59/55 301/334/301 304/337/304
f 305/338/305 306/339/306 304/337/304 303/336/303
f 58/340/58 56/60/56 304/337/304 306/339/306
f 307/341/307 58/340/58 306/339/306 308/342/308
f 309/343/309 308/342/308 306/339/306 305/338/305
f 310/344/310 308/342/308 309/343/309 311/345/311
f 36/39/36 312/346/312 309/343/309 305/338/305
f 313/347/313 311/345/311 309/343/309 312/346/312
f 314/348/314 311/345/311 313/347/313 315/349/315
f 316/350/316 317/351/317 313/347/313 312/346/312
f 318/352/318 315/349/315 313/347/313 317/351/317
f 319/353/319 315/349/315 318/352/318 5/5/5
f 320/354/320 321/355/321 318/352/318 317/351/317
f 4/4/4 5/5/5 318/352/318 321/355/321
f 322/356/322 323/357/323 321/355/321 320/354/320
f 1/1/1 4/4/4 321/355/321 323/357/323
f 324/358/324 1/1/1 323/357/323 325/359/325
f 326/360/326 325/359/325 323/357/323 322/356/322
f 327/361/327 325/359/325 326/360/326 328/362/328
f 329/363/329 330/364/330 326/360/326 322/356/322
f 331/365/331 328/362/328 326/360/326 330/364/330
f 332/366/332 328/362/328 331/365/331 333/367/333
f 334/368/334 335/369/335 331/365/331 330/364/330
f 336/370/336 333/367/333 331/365/331 335/369/335
f 337/371/337 333/367/333 336/370/336 338/372/338
f 290/323/290 289/322/289 336/370/336 335/369/335
f 288/321/288 338/372/338 336/370/336 289/322/289
f 86/95/86 339/373/339 337/371/337 85/94/85
f 332/366/332 333/367/333 337/371/337 339/373/339
f 82/91/82 85/94/85 337/371/337 338/372/338
f 340/374/340 341/375/341 339/373/339 86/95/86
f 342/376/342 332/366/332 339/373/339 341/375/341
f 343/377/343 344/378/344 342/376/342 341/375/341
f 345/379/345 327/361/327 342/376/342 344/378/344
f 328/362/328 332/366/332 342/376/342 327/361/327
f 346/380/346 347/381/347 345/379/345 344/378/344
f 348/382/348 324/358/324 345/379/345 347/381/347
f 325/359/325 327/361/327 345/379/345 324/358/324
f 349/383/349 350/384/350 348/382/348 347/381/347
f 7/7/7 2/2/2 348/382/348 350/384/350
f 1/1/1 324/358/324 348/382/348 2/2/2
f 351/385/351 352/386/352 350/384/350 349/383/349
f 353/387/353 7/7/7 350/384/350 352/386/352
f 354/388/354 355/389/355 353/387/353 352/386/352
f 356/390/356 357/391/357 353/387/353 355/389/355
f 6/6/6 7/7/7 353/387/353 357/391/357
f 358/392/358 319/353/319 357/391/357 356/390/356
f 5/5/5 6/6/6 357/391/357 319/353/319
f 359/393/359 360/394/360 358/392/358 356/390/356
f 361/395/361 314/348/314 358/392/358 360/394/360
f 315/349/315 319/353/319 358/392/358 314/348/314
f 362/396/362 363/397/363 361/395/361 360/394/360
f 364/398/364 310/344/310 361/395/361 363/397/363
f 311/345/311 314/348/314 361/395/361 310/344/310
f 365/399/365 366/400/366 364/401/364 363/402/363
f 367/403/367 307/404/307 364/401/364 366/400/366
f 308/342/308 310/344/310 364/398/364 307/341/307
f 368/405/368 369/406/369 367/403/367 366/400/366
f 53/57/53 54/58/54 367/403/367 369/406/369
f 58/63/58 307/404/307 367/403/367 54/58/54
f 370/407/370 371/408/371 369/406/369 368/405/368
f 59/65/59 53/57/53 369/406/369 371/408/371
f 372/409/372 373/410/373 371/408/371 370/407/370
f 374/411/374 59/65/59 371/408/371 373/410/373
f 375/412/375 376/413/376 374/411/374 373/410/373
f 78/87/78 79/88/79 374/411/374 376/413/376
f 49/53/49 59/65/59 374/411/374 79/88/79
f 377/414/377 378/415/378 376/413/376 375/412/375
f 77/86/77 78/87/78 376/413/376 378/415/378
f 379/416/379 77/86/77 378/415/378 380/417/380
f 381/418/381 380/417/380 378/415/378 377/414/377
f 382/419/382 380/417/380 381/418/381 383/420/383
f 384/421/384 12/12/12 381/418/381 377/414/377
f 13/13/13 383/420/383 381/418/381 12/12/12
f 11/11/11 12/12/12 384/421/384 18/18/18
f 375/412/375 385/422/385 384/421/384 377/414/377
f 15/15/15 18/18/18 384/421/384 385/422/385
f 373/410/373 372/409/372 385/422/385 375/412/375
f 386/423/386 15/15/15 385/422/385 372/409/372
f 16/16/16 15/15/15 386/423/386 387/424/387
f 370/407/370 388/425/388 386/423/386 372/409/372
f 389/426/389 387/424/387 386/423/386 388/425/388
f 390/427/390 387/424/387 389/426/389 391/428/391
f 392/429/392 393/430/393 389/426/389 388/425/388
f 394/431/394 391/428/391 389/426/389 393/430/393
f 395/432/395 391/433/391 394/434/394 396/435/396
f 397/436/397 398/437/398 394/431/394 393/430/393
f 399/438/399 396/435/396 394/434/394 398/439/398
f 400/440/400 396/435/396 399/438/399 401/441/401
f 402/442/402 403/443/403 399/438/399 398/439/398
f 404/444/404 401/441/401 399/438/399 403/443/403
f 405/445/405 401/441/401 404/444/404 406/446/406
f 407/447/407 408/448/408 404/449/404 403/450/403
f 409/451/409 406/446/406 404/444/404 408/452/408
f 410/453/410 406/446/406 409/451/409 411/454/411
f 354/388/354 412/455/412 409/456/409 408/448/408
f 413/457/413 411/454/411 409/451/409 412/458/412
f 249/273/249 411/454/411 413/457/413 250/274/250
f 351/385/351 414/459/414 413/460/413 412/455/412
f 251/275/251 250/274/250 413/457/413 414/461/414
f 349/383/349 415/462/415 414/459/414 351/385/351
f 253/282/253 251/463/251 414/459/414 415/462/415
f 347/381/347 346/380/346 415/462/415 349/383/349
f 255/279/255 253/282/253 415/462/415 346/380/346
f 352/386/352 351/385/351 412/455/412 354/388/354
f 416/464/416 417/465/417 410/453/410 418/466/418
f 405/445/405 406/446/406 410/453/410 417/465/417
f 249/273/249 418/466/418 410/453/410 411/454/411
f 419/467/419 420/468/420 417/465/417 416/464/416
f 421/469/421 405/445/405 417/465/417 420/468/420
f 422/470/422 423/471/423 421/469/421 420/468/420
f 424/472/424 400/440/400 421/469/421 423/471/423
f 401/441/401 405/445/405 421/469/421 400/440/400
f 425/473/425 426/474/426 424/472/424 423/471/423
f 427/475/427 395/432/395 424/472/424 426/474/426
f 396/435/396 400/440/400 424/472/424 395/432/395
f 428/476/428 24/27/24 427/475/427 426/474/426
f 19/19/19 390/477/390 427/475/427 24/27/24
f 391/433/391 395/432/395 427/475/427 390/477/390
f 429/478/429 430/479/430 428/476/428 431/480/431
f 25/28/25 24/27/24 428/476/428 430/479/430
f 425/473/425 431/480/431 428/476/428 426/474/426
f 93/102/93 432/481/432 430/479/430 429/478/429
f 26/29/26 25/28/25 430/479/430 432/481/432
f 94/103/94 433/482/433 432/481/432 93/102/93
f 434/483/434 26/29/26 432/481/432 433/482/433
f 435/484/435 436/485/436 434/483/434 433/482/433
f 32/35/32 33/36/33 434/483/434 436/485/436
f 27/30/27 26/29/26 434/483/434 33/36/33
f 437/486/437 438/487/438 436/485/436 435/484/435
f 29/32/29 32/35/32 436/485/436 438/487/438
f 439/488/439 440/489/440 438/487/438 437/486/437
f 48/52/48 29/32/29 438/487/438 440/489/440
f 441/490/441 442/491/442 440/489/440 439/488/439
f 443/492/443 48/52/48 440/489/440 442/491/442
f 444/493/444 445/494/445 443/492/443 442/491/442
f 446/495/446 447/496/447 443/492/443 445/494/445
f 35/38/35 48/52/48 443/492/443 447/496/447
f 23/25/23 28/31/28 447/496/447 446/495/446
f 34/37/34 35/38/35 447/496/447 28/31/28
f 448/497/448 44/47/44 446/495/446 445/494/445
f 22/26/22 23/25/23 446/495/446 44/47/44
f 449/498/449 450/499/450 448/500/448 451/501/451
f 45/502/45 44/503/44 448/500/448 450/499/450
f 444/493/444 451/504/451 448/497/448 445/494/445
f 452/505/452 453/506/453 450/499/450 449/498/449
f 454/507/454 45/502/45 450/499/450 453/506/453
f 455/508/455 456/509/456 454/507/454 453/506/453
f 457/510/457 47/51/47 454/507/454 456/509/456
f 21/23/21 45/502/45 454/507/454 47/51/47
f 458/511/458 459/512/459 457/510/457 456/509/456
f 460/513/460 461/514/461 457/510/457 459/512/459
f 46/50/46 47/51/47 457/510/457 461/514/461
f 462/515/462 463/516/463 461/514/461 460/513/460
f 14/14/14 46/50/46 461/514/461 463/516/463
f 382/419/382 383/420/383 463/516/463 462/515/462
f 13/13/13 14/14/14 463/516/463 383/420/383
f 464/517/464 465/518/465 462/515/462 460/513/460
f 466/519/466 382/419/382 462/515/462 465/518/465
f 467/520/467 468/521/468 466/519/466 465/518/465
f 469/522/469 379/416/379 466/519/466 468/521/468
f 380/417/380 382/419/382 466/519/466 379/416/379
f 470/523/470 471/524/471 469/522/469 468/521/468
f 73/82/73 76/85/76 469/522/469 471/524/471
f 77/86/77 379/416/379 469/522/469 76/85/76
f 472/525/472 473/526/473 471/524/471 470/523/470
f 474/527/474 73/82/73 471/524/471 473/526/473
f 74/83/74 73/82/73 474/527/474 475/528/475
f 476/529/476 477/530/477 474/527/474 473/526/473
f 478/531/478 475/528/475 474/527/474 477/530/477
f 125/134/125 475/528/475 478/531/478 479/532/479
f 480/533/480 481/534/481 478/531/478 477/530/477
f 482/535/482 479/532/479 478/531/478 481/534/481
f 483/536/483 479/532/479 482/535/482 484/537/484
f 485/538/485 486/539/486 482/535/482 481/534/481
f 487/540/487 484/537/484 482/535/482 486/539/486
f 171/188/171 484/537/484 487/540/487 169/185/169
f 488/541/488 489/542/489 487/540/487 486/539/486
f 490/543/490 169/185/169 487/540/487 489/542/489
f 170/186/170 169/185/169 490/543/490 491/544/491
f 492/545/492 493/546/493 490/543/490 489/542/489
f 494/547/494 491/544/491 490/543/490 493/546/493
f 495/548/495 491/549/491 494/550/494 496/551/496
f 497/552/497 498/553/498 494/547/494 493/546/493
f 499/554/499 496/551/496 494/550/494 498/555/498
f 500/556/500 496/551/496 499/554/499 501/557/501
f 502/558/502 503/559/503 499/554/499 498/555/498
f 504/560/504 501/557/501 499/554/499 503/559/503
f 505/561/505 501/557/501 504/560/504 506/562/506
f 507/563/507 508/564/508 504/560/504 503/559/503
f 509/565/509 506/562/506 504/560/504 508/564/508
f 510/566/510 506/562/506 509/565/509 511/567/511
f 512/568/512 513/569/513 509/565/509 508/564/508
f 158/171/158 511/567/511 509/565/509 513/569/513
f 144/157/144 145/158/145 513/569/513 512/568/512
f 159/172/159 158/171/158 513/569/513 145/158/145
f 507/563/507 514/570/514 512/568/512 508/564/508
f 143/156/143 144/157/144 512/568/512 514/570/514
f 515/571/515 516/572/516 514/570/514 507/563/507
f 517/573/517 143/156/143 514/570/514 516/572/516
f 518/574/518 519/575/519 517/573/517 516/572/516
f 520/576/520 117/126/117 517/573/517 519/575/519
f 109/118/109 143/156/143 517/573/517 117/126/117
f 441/490/441 439/488/439 520/576/520 519/575/519
f 437/486/437 521/577/521 520/576/520 439/488/439
f 107/116/107 117/126/117 520/576/520 521/577/521
f 435/484/435 95/104/95 521/577/521 437/486/437
f 96/105/96 107/116/107 521/577/521 95/104/95
f 522/578/522 441/490/441 519/575/519 518/574/518
f 523/579/523 524/580/524 522/578/522 518/574/518
f 451/504/451 444/493/444 522/578/522 524/580/524
f 442/491/442 441/490/441 522/578/522 444/493/444
f 525/581/525 526/582/526 524/583/524 523/584/523
f 449/498/449 451/501/451 524/583/524 526/582/526
f 497/552/497 527/585/527 526/582/526 525/581/525
f 452/505/452 449/498/449 526/582/526 527/585/527
f 493/546/493 492/545/492 527/585/527 497/552/497
f 528/586/528 452/505/452 527/585/527 492/545/492
f 489/542/489 488/541/488 528/586/528 492/545/492
f 529/587/529 455/508/455 528/586/528 488/541/488
f 453/506/453 452/505/452 528/586/528 455/508/455
f 486/539/486 485/538/485 529/587/529 488/541/488
f 530/588/530 458/511/458 529/587/529 485/538/485
f 456/509/456 455/508/455 529/587/529 458/511/458
f 481/534/481 480/533/480 530/588/530 485/538/485
f 531/589/531 532/590/532 530/588/530 480/533/480
f 459/512/459 458/511/458 530/588/530 532/590/532
f 533/591/533 464/517/464 532/590/532 531/589/531
f 460/513/460 459/512/459 532/590/532 464/517/464
f 476/529/476 534/592/534 533/591/533 531/589/531
f 535/593/535 467/520/467 533/591/533 534/592/534
f 465/518/465 464/517/464 533/591/533 467/520/467
f 477/530/477 476/529/476 531/589/531 480/533/480
f 498/555/498 497/594/497 525/595/525 502/558/502
f 515/571/515 502/558/502 525/595/525 523/579/523
f 516/572/516 515/571/515 523/579/523 518/574/518
f 503/559/503 502/558/502 515/571/515 507/563/507
f 213/237/213 536/596/536 510/566/510 537/597/537
f 505/561/505 506/562/506 510/566/510 536/596/536
f 538/598/538 537/597/537 510/566/510 511/567/511
f 218/242/218 537/597/537 538/598/538 539/599/539
f 158/171/158 155/168/155 538/598/538 511/567/511
f 154/167/154 539/599/539 538/598/538 155/168/155
f 219/243/219 218/242/218 539/599/539 223/247/223
f 540/600/540 223/247/223 539/599/539 154/167/154
f 224/248/224 223/247/223 540/600/540 121/130/121
f 157/170/157 541/601/541 540/600/540 154/167/154
f 120/129/120 121/130/121 540/600/540 541/601/541
f 542/602/542 543/603/543 541/601/541 157/170/157
f 544/604/544 120/129/120 541/601/541 543/603/543
f 90/99/90 89/98/89 544/604/544 543/603/543
f 545/605/545 106/115/106 544/604/544 89/98/89
f 105/114/105 120/129/120 544/604/544 106/115/106
f 92/101/92 546/606/546 545/605/545 89/98/89
f 547/607/547 548/608/548 545/605/545 546/606/546
f 103/112/103 106/115/106 545/605/545 548/608/548
f 549/609/549 550/610/550 548/608/548 547/607/547
f 100/109/100 103/112/103 548/608/548 550/610/550
f 422/470/422 551/611/551 550/610/550 549/609/549
f 552/612/552 100/109/100 550/610/550 551/611/551
f 101/110/101 100/109/100 552/612/552 118/127/118
f 419/467/419 553/613/553 552/612/552 551/611/551
f 236/260/236 118/127/118 552/612/552 553/613/553
f 416/464/416 554/614/554 553/613/553 419/467/419
f 237/261/237 236/260/236 553/613/553 554/614/554
f 418/466/418 246/270/246 554/614/554 416/464/416
f 238/262/238 237/261/237 554/614/554 246/270/246
f 420/468/420 419/467/419 551/611/551 422/470/422
f 431/480/431 425/473/425 549/609/549 547/607/547
f 423/471/423 422/470/422 549/609/549 425/473/425
f 429/478/429 431/480/431 547/607/547 546/606/546
f 93/102/93 429/478/429 546/606/546 92/101/92
f 97/106/97 90/99/90 543/603/543 542/602/542
f 156/169/156 159/172/159 542/602/542 157/170/157
f 145/158/145 97/106/97 542/602/542 159/172/159
f 209/233/209 208/232/208 536/596/536 213/237/213
f 555/615/555 505/561/505 536/596/536 208/232/208
f 205/225/205 204/224/204 555/615/555 208/232/208
f 556/616/556 500/556/500 555/615/555 204/224/204
f 501/557/501 505/561/505 555/615/555 500/556/500
f 203/227/203 557/617/557 556/616/556 204/224/204
f 558/618/558 495/548/495 556/616/556 557/617/557
f 496/551/496 500/556/500 556/616/556 495/548/495
f 559/619/559 560/620/560 558/618/558 557/617/557
f 162/187/162 170/186/170 558/621/558 560/622/560
f 491/544/491 495/623/495 558/621/558 170/186/170
f 561/624/561 562/625/562 560/626/560 559/627/559
f 163/176/163 162/175/162 560/626/560 562/625/562
f 563/628/563 177/194/177 562/625/562 561/624/561
f 167/182/167 163/176/163 562/625/562 177/194/177
f 191/211/191 564/629/564 563/628/563 565/630/565
f 176/193/176 177/194/177 563/628/563 564/629/564
f 566/631/566 565/630/565 563/628/563 561/624/561
f 567/632/567 565/630/565 566/631/566 199/219/199
f 559/627/559 202/222/202 566/631/566 561/624/561
f 200/220/200 199/219/199 566/631/566 202/222/202
f 186/203/186 192/212/192 567/632/567 568/633/568
f 191/211/191 565/630/565 567/632/567 192/212/192
f 196/216/196 568/633/568 567/632/567 199/219/199
f 195/215/195 569/634/569 568/633/568 196/216/196
f 187/204/187 186/203/186 568/633/568 569/634/569
f 207/231/207 211/235/211 569/635/569 195/230/195
f 190/636/190 187/204/187 569/634/569 211/637/211
f 194/214/194 570/638/570 564/629/564 191/211/191
f 173/190/173 176/193/176 564/629/564 570/638/570
f 184/201/184 571/639/571 570/638/570 194/214/194
f 572/640/572 173/190/173 570/638/570 571/639/571
f 573/641/573 161/174/161 572/640/572 571/639/571
f 160/173/160 178/195/178 572/640/572 161/174/161
f 174/191/174 173/190/173 572/640/572 178/195/178
f 180/197/180 148/161/148 573/641/573 181/198/181
f 149/162/149 161/174/161 573/641/573 148/161/148
f 184/201/184 181/198/181 573/641/573 571/639/571
f 203/223/203 202/222/202 559/627/559 557/642/557
f 214/238/214 213/237/213 537/597/537 218/242/218
f 128/137/128 126/135/126 483/536/483 172/189/172
f 125/134/125 479/532/479 483/536/483 126/135/126
f 171/188/171 172/189/172 483/536/483 484/537/484
f 472/525/472 534/592/534 476/529/476 473/526/473
f 80/89/80 74/83/74 475/528/475 125/134/125
f 535/593/535 470/523/470 468/521/468 467/520/467
f 94/103/94 95/104/95 435/484/435 433/482/433
f 247/271/247 246/270/246 418/466/418 249/273/249
f 355/389/355 354/388/354 408/448/408 407/447/407
f 402/643/402 359/393/359 407/447/407 403/450/403
f 356/390/356 355/389/355 407/447/407 359/393/359
f 397/436/397 362/644/362 402/645/402 398/437/398
f 360/394/360 359/393/359 402/643/402 362/396/362
f 392/429/392 365/399/365 397/436/397 393/430/393
f 363/402/363 362/644/362 397/436/397 365/399/365
f 370/407/370 368/405/368 392/429/392 388/425/388
f 366/400/366 365/399/365 392/429/392 368/405/368
f 16/16/16 387/424/387 390/427/390 19/646/19
f 343/377/343 255/279/255 346/380/346 344/378/344
f 256/280/256 255/279/255 343/377/343 259/287/259
f 340/374/340 259/287/259 343/377/343 341/375/341
f 260/288/260 259/287/259 340/374/340 262/291/262
f 87/96/87 262/291/262 340/374/340 86/95/86
f 574/647/574 82/91/82 338/372/338 288/321/288
f 83/92/83 82/91/82 574/647/574 575/648/575
f 286/319/286 285/318/285 574/647/574 288/321/288
f 576/649/576 575/648/575 574/647/574 285/318/285
f 577/650/577 575/651/575 576/652/576 578/653/578
f 283/316/283 282/315/282 576/649/576 285/318/285
f 579/654/579 578/653/578 576/652/576 282/655/282
f 278/309/278 274/305/274 579/654/579 282/655/282
f 271/302/271 269/300/269 579/654/579 274/305/274
f 268/299/268 578/653/578 579/654/579 269/300/269
f 83/656/83 575/651/575 577/650/577 88/657/88
f 268/299/268 264/293/264 577/650/577 578/653/578
f 263/296/263 88/657/88 577/650/577 264/293/264
f 292/325/292 290/323/290 335/369/335 334/368/334
f 329/363/329 580/658/580 334/368/334 330/364/330
f 581/659/581 292/325/292 334/368/334 580/658/580
f 42/45/42 41/44/41 581/659/581 580/658/580
f 40/43/40 295/328/295 581/659/581 41/44/41
f 293/326/293 292/325/292 581/659/581 295/328/295
f 582/660/582 42/45/42 580/658/580 329/363/329
f 322/356/322 320/354/320 582/660/582 329/363/329
f 317/351/317 316/350/316 582/660/582 320/354/320
f 39/42/39 42/45/42 582/660/582 316/350/316
f 36/39/36 39/42/39 316/350/316 312/346/312
f 37/40/37 36/39/36 305/338/305 303/336/303
f 40/43/40 37/40/37 303/336/303 302/335/302
f 295/328/295 40/43/40 302/335/302 296/329/296
f 87/96/87 88/97/88 263/292/263 262/291/262
f 119/128/119 118/127/118 236/260/236 234/258/234
f 211/235/211 212/236/212 216/240/216 190/209/190
f 160/173/160 168/184/168 179/196/179 178/195/178
f 132/141/132 131/140/131 179/196/179 168/184/168
f 142/661/142 166/183/166 179/196/179 131/140/131
f 142/154/142 128/137/128 172/189/172 165/179/165
f 133/144/133 132/141/132 168/184/168 146/159/146
f 583/662/583 130/145/130 133/144/133 124/133/124
f 115/124/115 114/123/114 583/662/583 124/133/124
f 70/78/70 71/80/71 583/663/583 114/664/114
f 81/90/81 130/139/130 583/663/583 71/80/71
f 69/77/69 70/665/70 114/123/114 111/120/111
f 68/75/68 69/77/69 111/120/111 110/119/110
f 50/54/50 49/53/49 79/88/79 72/81/72
f 28/31/28 27/30/27 33/36/33 34/37/34
f 472/525/472 470/523/470 535/593/535 534/592/534
f 153/166/153 150/163/150 151/164/151 152/165/152
