# split from a merged terrain OBJ by scripts/split-terrain-obj-parts.py
o part-072
v 0.716913 1.167676 -0.094999
v 0.714545 1.168194 -0.100930
v 0.719191 1.167814 -0.102947
v 0.722749 1.169086 -0.096798
v 0.723001 1.174225 -0.098830
v 0.720164 1.172212 -0.104054
v 0.714143 1.172136 -0.104650
v 0.722032 1.173119 -0.091896
v 0.718716 1.169673 -0.090722
v 0.715896 1.176905 -0.089369
v 0.713209 1.171660 -0.090491
v 0.712912 1.169555 -0.093965
v 0.720157 1.182043 -0.096284
v 0.715311 1.182221 -0.093305
v 0.718615 1.179773 -0.091432
v 0.721633 1.177693 -0.094110
v 0.710942 1.178928 -0.091512
v 0.708405 1.174583 -0.093671
v 0.710151 1.170627 -0.097506
v 0.711627 1.182876 -0.096440
v 0.707873 1.180302 -0.094208
v 0.709401 1.181006 -0.099494
v 0.706271 1.178102 -0.097900
v 0.708315 1.174582 -0.102394
v 0.710496 1.177670 -0.103005
v 0.714562 1.175891 -0.105393
v 0.712193 1.183957 -0.101141
v 0.711429 1.181063 -0.103285
v 0.714692 1.178580 -0.105871
v 0.719802 1.176330 -0.104452
v 0.718170 1.180146 -0.104254
v 0.712244 1.183066 -0.104223
v 0.714635 1.181119 -0.106327
v 0.717070 1.182546 -0.104967
v 0.718224 1.182673 -0.101296
v 0.714826 1.184977 -0.102295
v 0.721288 1.179181 -0.100351
v 0.715273 1.184160 -0.098877
vt 0.981669 0.410298
vt 0.984583 0.412427
vt 0.983375 0.414774
vt 0.979974 0.413055
vt 0.468190 0.975230
vt 0.468913 0.972328
vt 0.472539 0.975139
vt 0.471007 0.977341
vt 0.987115 0.414075
vt 0.985436 0.416670
vt 0.465064 0.972172
vt 0.466100 0.969843
vt 0.468780 0.969206
vt 0.985065 0.403220
vt 0.984025 0.406546
vt 0.980295 0.407119
vt 0.980462 0.405010
vt 0.983648 0.408628
vt 0.464475 0.977425
vt 0.461666 0.977456
vt 0.462720 0.975261
vt 0.465056 0.974859
vt 0.461105 0.973570
vt 0.458978 0.976161
vt 0.987443 0.407089
vt 0.985883 0.409654
vt 0.460873 0.979997
vt 0.458290 0.978781
vt 0.992105 0.409540
vt 0.989970 0.408667
vt 0.990397 0.406297
vt 0.992615 0.407576
vt 0.988497 0.404471
vt 0.988874 0.411340
vt 0.990711 0.412307
vt 0.989193 0.414648
vt 0.993759 0.411033
vt 0.992446 0.412736
vt 0.990729 0.415061
vt 0.988106 0.417261
vt 0.990452 0.417176
vt 0.993217 0.413572
vt 0.991871 0.415346
vt 0.466694 0.981541
vt 0.467685 0.980583
vt 0.468384 0.982636
vt 0.467320 0.983001
vt 0.465600 0.979936
vt 0.464810 0.981957
vt 0.466981 0.977800
vt 0.463386 0.980201
vt 0.469319 0.979048
vt 0.463349 0.982168
vt 0.460829 0.982275
vt 0.464174 0.984195
vt 0.465523 0.983794
vn -0.0197 -0.9609 0.2761
vn -0.2945 -0.8860 -0.3581
vn 0.3269 -0.7603 -0.5613
vn 0.7928 -0.6079 0.0439
vn 0.9817 0.0540 -0.1824
vn 0.5540 -0.2359 -0.7984
vn -0.2870 -0.3842 -0.8775
vn 0.7425 -0.1548 0.6518
vn 0.2146 -0.6117 0.7614
vn 0.0330 0.2172 0.9756
vn -0.3644 -0.4479 0.8165
vn -0.4819 -0.8099 0.3343
vn 0.6373 0.7472 0.1885
vn 0.0571 0.8087 0.5855
vn 0.4134 0.5452 0.7293
vn 0.8485 0.3539 0.3935
vn -0.4589 0.3689 0.8082
vn -0.8056 -0.3143 0.5022
vn -0.6962 -0.7177 -0.0127
vn -0.3534 0.8922 0.2811
vn -0.7252 0.5266 0.4436
vn -0.7249 0.6296 -0.2796
vn -0.9810 0.1806 -0.0704
vn -0.7853 -0.2276 -0.5758
vn -0.6329 0.1733 -0.7546
vn -0.1459 -0.0420 -0.9884
vn -0.5602 0.8252 -0.0722
vn -0.7726 0.2347 -0.5899
vn -0.1329 -0.0378 -0.9904
vn 0.5982 0.0932 -0.7959
vn 0.6397 0.2777 -0.7167
vn -0.5787 0.5428 -0.6086
vn -0.1119 0.1739 -0.9784
vn 0.5093 0.5271 -0.6803
vn 0.6549 0.7270 -0.2063
vn 0.0937 0.9703 -0.2232
vn 0.8671 0.4183 -0.2704
vn 0.1110 0.9771 0.1816
f 1/1/1 2/2/2 3/3/3 4/4/4
f 5/5/5 4/6/4 3/7/3 6/8/6
f 7/9/7 6/10/6 3/3/3 2/2/2
f 4/6/4 8/11/8 9/12/9 1/13/1
f 10/14/10 11/15/11 9/16/9 8/17/8
f 12/18/12 1/1/1 9/16/9 11/15/11
f 13/19/13 14/20/14 15/21/15 16/22/16
f 8/11/8 16/22/16 15/21/15 10/23/10
f 17/24/17 10/23/10 15/21/15 14/20/14
f 18/25/18 19/26/19 12/18/12 11/15/11
f 2/2/2 1/1/1 12/18/12 19/26/19
f 14/20/14 20/27/20 21/28/21 17/24/17
f 22/29/22 23/30/23 21/31/21 20/32/20
f 18/25/18 17/33/17 21/31/21 23/30/23
f 19/26/19 18/25/18 23/30/23 24/34/24
f 25/35/25 24/34/24 23/30/23 22/29/22
f 7/9/7 24/34/24 25/35/25 26/36/26
f 27/37/27 28/38/28 25/35/25 22/29/22
f 29/39/29 26/36/26 25/35/25 28/38/28
f 30/40/30 26/36/26 29/39/29 31/41/31
f 32/42/32 33/43/33 29/39/29 28/38/28
f 34/44/34 31/45/31 29/46/29 33/47/33
f 35/48/35 31/45/31 34/44/34 36/49/36
f 13/19/13 37/50/37 35/48/35 38/51/38
f 30/52/30 31/45/31 35/48/35 37/50/37
f 27/53/27 38/51/38 35/48/35 36/49/36
f 16/22/16 5/5/5 37/50/37 13/19/13
f 6/8/6 30/52/30 37/50/37 5/5/5
f 14/20/14 13/19/13 38/51/38 20/27/20
f 22/54/22 20/27/20 38/51/38 27/53/27
f 28/55/28 27/53/27 36/49/36 32/56/32
f 7/9/7 26/36/26 30/40/30 6/10/6
f 2/2/2 19/26/19 24/34/24 7/9/7
f 10/14/10 17/33/17 18/25/18 11/15/11
f 4/6/4 5/5/5 16/22/16 8/11/8
f 34/44/34 33/47/33 32/56/32 36/49/36
