# split from a merged terrain OBJ by scripts/split-terrain-obj-parts.py
o part-034
v 0.050449 0.486432 -0.023439
v 0.048083 0.481919 -0.024886
v 0.046695 0.482395 -0.022219
v 0.048439 0.485508 -0.020631
v 0.047050 0.479399 -0.022634
v 0.047381 0.480039 -0.019810
v 0.048135 0.483816 -0.017344
v 0.057685 0.492484 -0.021157
v 0.061182 0.488901 -0.022765
v 0.054856 0.485712 -0.023808
v 0.054480 0.482534 -0.022675
v 0.062987 0.484888 -0.020445
v 0.054170 0.492451 -0.016908
v 0.053165 0.488847 -0.012292
v 0.052818 0.481746 -0.014414
v 0.054393 0.480389 -0.018881
v 0.154041 0.496500 0.011769
v 0.148467 0.498503 0.016006
v 0.153423 0.490653 0.016972
v 0.154893 0.489849 0.014244
v 0.141828 0.495342 0.012186
v 0.149546 0.489401 0.014762
v 0.150151 0.488123 0.010586
v 0.151416 0.493674 0.006125
v 0.156507 0.564748 -0.045281
v 0.157113 0.567072 -0.051619
v 0.156971 0.568933 -0.051840
v 0.153418 0.567823 -0.045428
v 0.150741 0.565737 -0.047869
v 0.154325 0.568153 -0.052517
v 0.178829 0.578901 -0.021754
v 0.184214 0.580218 -0.026980
v 0.182366 0.580544 -0.030745
v 0.175096 0.576739 -0.027970
v 0.178277 0.570643 -0.028332
v 0.182712 0.575120 -0.031758
v 0.181409 0.603907 0.002210
v 0.174747 0.600077 0.002141
v 0.180640 0.599048 0.005982
v 0.184872 0.600998 0.001893
v 0.172998 0.595703 -0.002580
v 0.182458 0.603390 -0.000890
v 0.184142 0.598544 -0.001165
v 0.176659 0.586805 -0.002258
v 0.176694 0.584814 0.005806
v 0.165351 0.569134 0.009563
v 0.169419 0.568992 -0.002366
v 0.175767 0.566374 -0.016465
v 0.170775 0.577836 -0.015069
v 0.169203 0.556896 -0.009604
v 0.159625 0.541326 -0.004313
v 0.156654 0.546516 0.004557
v 0.151426 0.551403 0.013784
v 0.162677 0.584632 -0.005758
v 0.153626 0.574599 -0.014057
v 0.181272 0.571975 -0.023474
v 0.167140 0.569056 -0.025664
v 0.158303 0.554701 -0.025419
v 0.155624 0.538629 -0.014488
v 0.150047 0.536861 -0.021925
v 0.164369 0.552235 -0.018661
v 0.171743 0.562913 -0.023673
v 0.154117 0.562123 -0.035777
v 0.148607 0.565222 -0.027279
v 0.151933 0.548948 -0.031457
v 0.144957 0.536318 -0.028450
v 0.147611 0.564824 -0.037422
v 0.140887 0.562458 -0.031010
v 0.141502 0.567426 -0.016451
v 0.135314 0.562647 0.002557
v 0.148337 0.578307 0.002603
v 0.138311 0.555911 -0.036278
v 0.130705 0.547145 -0.032861
v 0.130542 0.560594 -0.026399
v 0.122336 0.568655 -0.031071
v 0.126035 0.571454 -0.019199
v 0.117070 0.556710 -0.027792
v 0.144516 0.501248 -0.004121
v 0.152226 0.508227 0.005188
v 0.152573 0.523726 0.000925
v 0.148563 0.520363 -0.009316
v 0.141615 0.518499 -0.018566
v 0.133120 0.499297 -0.022236
v 0.134711 0.489009 -0.000500
v 0.119111 0.488181 -0.019936
v 0.155334 0.574798 0.013342
v 0.142035 0.560002 0.016641
v 0.126506 0.541586 0.023308
v 0.119108 0.542243 0.014803
v 0.126061 0.559235 -0.005849
v 0.116745 0.543330 0.006557
v 0.142327 0.510255 0.013861
v 0.147162 0.527194 0.010217
v 0.137658 0.531990 0.018223
v 0.127728 0.512608 0.025338
v 0.124681 0.498360 0.023145
v 0.135039 0.499652 0.012368
v 0.120700 0.560729 -0.008698
v 0.124609 0.584629 -0.028375
v 0.121094 0.571865 -0.020962
v 0.127701 0.583559 -0.029764
v 0.114962 0.560544 -0.013484
v 0.107873 0.538932 -0.021889
v 0.115135 0.535880 -0.026090
v 0.120315 0.529366 -0.030217
v 0.126017 0.488236 0.012259
v 0.115165 0.490874 -0.038328
v 0.114898 0.496425 -0.040518
v 0.122971 0.499351 -0.029531
v 0.128953 0.523075 -0.032065
v 0.135198 0.518254 -0.027112
v 0.116103 0.507487 -0.033256
v 0.106748 0.502311 -0.041251
v 0.115201 0.494969 0.038797
v 0.115297 0.505143 0.043868
v 0.108183 0.518723 0.026615
v 0.081512 0.485226 0.093726
v 0.076206 0.485488 0.098547
v 0.076025 0.484784 0.097081
v 0.079630 0.484068 0.092394
v 0.077303 0.485671 0.091147
v 0.074546 0.485969 0.097295
v 0.074426 0.486047 0.098286
v 0.075495 0.487623 0.098011
v 0.075003 0.487709 0.096507
v 0.077193 0.488503 0.091316
v 0.079484 0.489676 0.092851
v 0.102806 0.485217 -0.037060
v 0.094462 0.490429 -0.042801
v 0.096358 0.492155 -0.048194
v 0.101981 0.485545 -0.046885
v 0.098009 0.499004 -0.037880
v 0.101031 0.485172 -0.056078
v 0.096422 0.491044 -0.056423
v 0.110269 0.488222 -0.049271
v 0.105455 0.483541 -0.017918
v 0.095197 0.490329 -0.031574
v 0.105837 0.510737 -0.031379
v 0.087933 0.503192 -0.022955
v 0.102236 0.517219 -0.024940
v 0.091555 0.495062 -0.025512
v 0.094143 0.483187 -0.013933
v 0.073640 0.494593 -0.023718
v 0.076652 0.486334 -0.022282
v 0.076719 0.481101 -0.008592
v 0.118083 0.485514 0.022933
v 0.102492 0.485745 0.021498
v 0.105502 0.484026 0.013376
v 0.098780 0.500657 0.023882
v 0.100328 0.501275 0.019223
v 0.094580 0.502282 0.019776
v 0.098065 0.484529 0.012673
v 0.097945 0.478283 -0.000793
v 0.111796 0.480599 -0.002561
v 0.102597 0.509353 0.039515
v 0.107359 0.518142 0.019951
v 0.095970 0.499083 0.034125
v 0.084695 0.476258 0.003025
v 0.062518 0.481832 -0.014346
v 0.059864 0.485617 -0.006237
v 0.060950 0.487457 0.003979
v 0.070371 0.475836 0.007693
v 0.104189 0.522000 0.016941
v 0.097546 0.525831 0.010715
v 0.084122 0.511578 0.014039
v 0.087970 0.481837 0.015537
v 0.084112 0.495012 0.021654
v 0.073070 0.503581 0.012503
v 0.079665 0.512986 0.002186
v 0.066800 0.499706 -0.002191
v 0.079014 0.512410 -0.008355
v 0.067042 0.502071 -0.011075
v 0.055942 0.476340 0.014751
v 0.051318 0.485824 0.013972
v 0.061382 0.474962 0.022378
v 0.052122 0.473598 0.025444
v 0.048848 0.474419 0.021685
v 0.047859 0.479443 0.023060
v 0.072834 0.487536 0.023680
v 0.058621 0.483541 0.025100
v 0.076476 0.478211 0.018091
v 0.051180 0.478832 0.027413
v 0.082917 0.509366 -0.018154
v 0.070364 0.499748 -0.018243
v 0.095963 0.522762 -0.018766
v 0.092032 0.526694 -0.009288
v 0.103553 0.543507 -0.014242
v 0.092914 0.527914 0.001034
v 0.106101 0.546010 -0.005424
v 0.111749 0.558542 -0.021055
v 0.112102 0.546007 0.001143
v 0.118153 0.570681 -0.026578
v 0.123945 0.582814 -0.033905
v 0.121665 0.583925 -0.031324
v 0.126845 0.591358 -0.033420
v 0.123932 0.590528 -0.035885
v 0.121693 0.591310 -0.033642
v 0.124455 0.591906 -0.032220
v 0.098473 0.486723 0.033233
v 0.092992 0.486282 0.047458
v 0.091392 0.495900 0.048612
v 0.096746 0.502845 0.053619
v 0.086676 0.491946 0.065773
v 0.090622 0.496182 0.069347
v 0.096528 0.494103 0.071859
v 0.105277 0.499634 0.057595
v 0.097281 0.487715 0.070795
v 0.105553 0.491320 0.054906
v 0.092971 0.483263 0.068387
v 0.100727 0.484182 0.051083
v 0.109229 0.485621 0.035870
v 0.087516 0.485423 0.065545
v 0.085831 0.482573 0.082817
v 0.081930 0.485350 0.080911
v 0.081508 0.489776 0.081018
v 0.084722 0.492012 0.083198
v 0.081347 0.487931 0.093847
v 0.088581 0.489986 0.085142
v 0.089515 0.485279 0.085139
v 0.077372 0.486989 0.097585
v 0.104293 0.494747 -0.058769
v 0.109017 0.495827 -0.051122
v 0.107313 0.488404 -0.058010
v 0.097063 0.487642 -0.064783
v 0.101027 0.492231 -0.066413
v 0.105571 0.488378 -0.066275
v 0.099645 0.490055 -0.070858
v 0.104481 0.487796 -0.070957
v 0.101664 0.484127 -0.064775
v 0.101559 0.483919 -0.069860
v 0.097685 0.485480 -0.069675
v 0.137597 0.538787 -0.034766
v 0.144437 0.548335 -0.038050
v 0.149226 0.556423 -0.042881
v 0.144969 0.561026 -0.041543
v 0.153009 0.562574 -0.048557
v 0.155182 0.566350 -0.052673
v 0.161732 0.590970 0.004024
v 0.169743 0.588955 0.010452
v 0.185222 0.575500 -0.027647
vt 0.965000 0.132684
vt 0.964134 0.135083
vt 0.963108 0.134307
vt 0.962514 0.133131
vt 0.962885 0.135633
vt 0.962069 0.135363
vt 0.961347 0.134149
vt 0.967142 0.130527
vt 0.969360 0.135439
vt 0.966657 0.135718
vt 0.964959 0.138033
vt 0.967843 0.141088
vt 0.961603 0.131128
vt 0.959423 0.133082
vt 0.959382 0.136760
vt 0.962411 0.138828
vt 0.280416 0.492200
vt 0.284319 0.491174
vt 0.282780 0.494743
vt 0.281602 0.495022
vt 0.287678 0.495063
vt 0.283159 0.496811
vt 0.281654 0.497437
vt 0.278053 0.496433
vt 0.025993 0.696091
vt 0.029095 0.697824
vt 0.027975 0.698457
vt 0.024286 0.699243
vt 0.024944 0.701441
vt 0.028081 0.699655
vt 0.238539 0.445438
vt 0.237477 0.449866
vt 0.235429 0.450434
vt 0.231720 0.449745
vt 0.234134 0.455907
vt 0.236023 0.452764
vt 0.874409 0.007498
vt 0.869842 0.009528
vt 0.872509 0.006815
vt 0.876444 0.005176
vt 0.868849 0.011818
vt 0.874497 0.008482
vt 0.876203 0.008541
vt 0.872792 0.011682
vt 0.258133 0.436641
vt 0.253436 0.433960
vt 0.252450 0.428288
vt 0.252705 0.426045
vt 0.877897 0.010588
vt 0.875678 0.015333
vt 0.866941 0.017624
vt 0.245310 0.455660
vt 0.243319 0.444517
vt 0.254021 0.453723
vt 0.251439 0.461837
vt 0.261595 0.471398
vt 0.266897 0.466445
vt 0.272658 0.460993
vt 0.259427 0.449150
vt 0.859972 0.016257
vt 0.853848 0.025709
vt 0.865490 0.021544
vt 0.240405 0.452456
vt 0.870840 0.018576
vt 0.869273 0.023803
vt 0.870725 0.016699
vt 0.864839 0.032968
vt 0.256649 0.476935
vt 0.252505 0.481148
vt 0.246876 0.468628
vt 0.249185 0.466323
vt 0.237924 0.459181
vt 0.236010 0.461749
vt 0.860679 0.040171
vt 0.855119 0.038165
vt 0.868602 0.036424
vt 0.247701 0.483088
vt 0.242224 0.475683
vt 0.231677 0.470120
vt 0.234663 0.469637
vt 0.236820 0.473693
vt 0.231956 0.471571
vt 0.852460 0.043980
vt 0.858357 0.043712
vt 0.848162 0.034398
vt 0.834573 0.031683
vt 0.848474 0.021228
vt 0.838058 0.088723
vt 0.830732 0.086565
vt 0.836679 0.077380
vt 0.841222 0.084328
vt 0.838544 0.068115
vt 0.842028 0.077410
vt 0.830688 0.067932
vt 0.845106 0.045603
vt 0.270704 0.499544
vt 0.275131 0.488465
vt 0.269885 0.481554
vt 0.264113 0.487592
vt 0.258259 0.493265
vt 0.262542 0.508697
vt 0.284118 0.505684
vt 0.271528 0.518679
vt 0.265202 0.446649
vt 0.267889 0.439277
vt 0.276538 0.445781
vt 0.277977 0.454237
vt 0.812876 0.029443
vt 0.829316 0.026895
vt 0.812611 0.034960
vt 0.831665 0.041999
vt 0.815861 0.040006
vt 0.287140 0.484595
vt 0.277142 0.476983
vt 0.284721 0.471568
vt 0.296341 0.481406
vt 0.297738 0.492136
vt 0.291166 0.495401
vt 0.831447 0.047159
vt 0.839809 0.054006
vt 0.879609 0.978481
vt 0.877175 0.970695
vt 0.880008 0.969788
vt 0.881792 0.977818
vt 0.829745 0.053317
vt 0.838790 0.058234
vt 0.818372 0.068446
vt 0.819659 0.076234
vt 0.819448 0.084200
vt 0.293586 0.504194
vt 0.827835 0.955341
vt 0.828113 0.957997
vt 0.818051 0.955030
vt 0.811896 0.947462
vt 0.800324 0.963532
vt 0.801990 0.958552
vt 0.814528 0.960393
vt 0.828361 0.962335
vt 0.307134 0.489645
vt 0.308678 0.482621
vt 0.291149 0.464829
vt 0.304361 0.473197
vt 0.731327 0.007875
vt 0.729837 0.005929
vt 0.731540 0.006480
vt 0.733455 0.007622
vt 0.735407 0.007929
vt 0.731375 0.006105
vt 0.731091 0.005969
vt 0.731039 0.005630
vt 0.732217 0.006204
vt 0.735701 0.007592
vt 0.341685 0.476391
vt 0.342580 0.474666
vt 0.344633 0.475343
vt 0.344821 0.475817
vt 0.262870 0.531410
vt 0.260471 0.538985
vt 0.256863 0.540739
vt 0.256754 0.535926
vt 0.263287 0.543790
vt 0.257795 0.546165
vt 0.251548 0.540012
vt 0.251525 0.542934
vt 0.253556 0.533229
vt 0.257232 0.524901
vt 0.275955 0.528034
vt 0.266747 0.536210
vt 0.811046 0.966889
vt 0.797822 0.971362
vt 0.258627 0.550724
vt 0.254225 0.552577
vt 0.797189 0.082799
vt 0.807108 0.079374
vt 0.806123 0.087384
vt 0.794526 0.089674
vt 0.797189 0.095707
vt 0.801012 0.097307
vt 0.789524 0.100747
vt 0.791212 0.107646
vt 0.789486 0.085321
vt 0.786967 0.092499
vt 0.965644 0.153974
vt 0.974592 0.144495
vt 0.989901 0.154862
vt 0.978685 0.163310
vt 0.757279 0.031665
vt 0.767306 0.032999
vt 0.769565 0.036805
vt 0.754886 0.037130
vt 0.777645 0.034613
vt 0.778169 0.038565
vt 0.305304 0.526456
vt 0.296366 0.526197
vt 0.294430 0.521344
vt 0.305366 0.524510
vt 0.290043 0.530751
vt 0.285532 0.521582
vt 0.311665 0.474568
vt 0.792425 0.035908
vt 0.791072 0.031306
vt 0.772238 0.028991
vt 0.778858 0.026577
vt 0.976035 0.169619
vt 0.966900 0.165413
vt 0.963317 0.144133
vt 0.953720 0.139565
vt 0.951576 0.152543
vt 0.956133 0.162457
vt 0.795483 0.039547
vt 0.780319 0.041654
vt 0.797927 0.046552
vt 0.785359 0.051559
vt 0.299754 0.531535
vt 0.306824 0.532649
vt 0.313631 0.538081
vt 0.313463 0.534599
vt 0.319714 0.535687
vt 0.320447 0.542695
vt 0.964283 0.121522
vt 0.961847 0.127690
vt 0.955158 0.129515
vt 0.958720 0.121727
vt 0.317220 0.547442
vt 0.321512 0.550976
vt 0.944442 0.159485
vt 0.941727 0.157758
vt 0.940014 0.164659
vt 0.936607 0.165471
vt 0.936930 0.162925
vt 0.935191 0.161660
vt 0.308669 0.538040
vt 0.313914 0.543823
vt 0.310530 0.545009
vt 0.303466 0.538277
vt 0.316091 0.547438
vt 0.313622 0.548072
vt 0.299159 0.541358
vt 0.308456 0.547229
vt 0.935508 0.157107
vt 0.935768 0.153231
vt 0.932475 0.161345
vt 0.296322 0.534940
vt 0.796240 0.074171
vt 0.789760 0.081055
vt 0.787996 0.076519
vt 0.792073 0.066885
vt 0.971520 0.125426
vt 0.975568 0.135315
vt 0.806311 0.070758
vt 0.803384 0.062088
vt 0.817233 0.060158
vt 0.788730 0.060856
vt 0.800919 0.054499
vt 0.817208 0.052057
vt 0.829377 0.060335
vt 0.817278 0.045384
vt 0.838378 0.063125
vt 0.885226 0.978015
vt 0.886693 0.970418
vt 0.889604 0.971596
vt 0.886992 0.978381
vt 0.845110 0.064590
vt 0.844167 0.068423
vt 0.882567 0.981731
vt 0.884628 0.982017
vt 0.846304 0.070578
vt 0.845988 0.072548
vt 0.842707 0.069708
vt 0.847207 0.069251
vt 0.765185 0.028859
vt 0.758722 0.023444
vt 0.761727 0.022690
vt 0.764253 0.020801
vt 0.754718 0.017768
vt 0.755003 0.016655
vt 0.326947 0.480141
vt 0.317474 0.481953
vt 0.319220 0.476700
vt 0.327582 0.477235
vt 0.326084 0.482927
vt 0.317049 0.486910
vt 0.326830 0.484917
vt 0.317856 0.491905
vt 0.308886 0.496089
vt 0.301005 0.501192
vt 0.758068 0.027389
vt 0.751620 0.021427
vt 0.750760 0.016846
vt 0.746089 0.018139
vt 0.334891 0.482122
vt 0.337341 0.483416
vt 0.330832 0.487883
vt 0.743394 0.011074
vt 0.740047 0.010770
vt 0.737287 0.006873
vt 0.744483 0.010514
vt 0.341155 0.477421
vt 0.334040 0.478536
vt 0.333599 0.475590
vt 0.341264 0.478396
vt 0.334616 0.480519
vt 0.341650 0.479887
vt 0.344117 0.476459
vt 0.344993 0.476597
vt 0.737635 0.011476
vt 0.281971 0.533102
vt 0.843125 0.961344
vt 0.835844 0.963578
vt 0.836276 0.957855
vt 0.843569 0.957758
vt 0.249738 0.538115
vt 0.253546 0.548228
vt 0.248915 0.546049
vt 0.833175 0.970825
vt 0.852108 0.965151
vt 0.848593 0.965826
vt 0.849591 0.962642
vt 0.848491 0.960486
vt 0.853954 0.964049
vt 0.852956 0.961232
vt 0.248355 0.543875
vt 0.246195 0.542467
vt 0.245947 0.545988
vt 0.244689 0.543571
vt 0.855152 0.966976
vt 0.853308 0.968058
vt 0.854904 0.965644
vt 0.857599 0.965691
vt 0.253732 0.498333
vt 0.249452 0.496792
vt 0.243882 0.485809
vt 0.829668 0.095129
vt 0.820523 0.092749
vt 0.240339 0.478290
vt 0.837603 0.095329
vt 0.236040 0.474862
vt 0.019405 0.703920
vt 0.018752 0.707875
vt 0.015155 0.710682
vt 0.014152 0.705316
vt 0.232338 0.473263
vt 0.232502 0.475216
vt 0.230846 0.473395
vt 0.012617 0.700310
vt 0.018258 0.700053
vt 0.229387 0.471697
vt 0.229606 0.472823
vt 0.029378 0.700112
vt 0.028221 0.701939
vt 0.880902 0.982088
vt 0.263658 0.433783
vt 0.260722 0.435568
vt 0.857766 0.013027
vt 0.861711 0.008768
vt 0.256120 0.427534
vt 0.875896 0.019598
vt 0.874979 0.024460
vt 0.237637 0.451570
vt 0.729727 0.005015
vt 0.847890 0.071363
vt 0.315483 0.550185
vt 0.317249 0.549946
vt 0.244845 0.546813
vt 0.242668 0.546230
vt 0.258172 0.509418
vn -0.3640 0.5012 -0.7850
vn -0.4225 -0.2229 -0.8785
vn -0.9620 0.2358 -0.1378
vn -0.8311 0.5504 -0.0800
vn -0.5114 -0.8001 -0.3134
vn -0.7046 -0.6080 0.3659
vn -0.8417 0.1149 0.5276
vn -0.3211 0.6700 -0.6693
vn 0.0113 0.0761 -0.9970
vn 0.1515 0.0287 -0.9880
vn 0.3216 -0.5533 -0.7684
vn 0.1882 -0.6759 -0.7126
vn -0.6595 0.7487 -0.0671
vn -0.7741 0.3163 0.5483
vn -0.3493 -0.6789 0.6458
vn 0.1994 -0.9761 -0.0869
vn 0.9823 0.1704 0.0776
vn 0.1783 0.1821 0.9670
vn 0.3322 -0.2686 0.9042
vn 0.8420 -0.4903 0.2251
vn -0.2636 -0.4858 0.8334
vn -0.3082 -0.6697 0.6757
vn 0.2551 -0.9626 -0.0909
vn 0.7057 -0.3543 -0.6136
vn 0.9798 -0.0352 0.1966
vn 0.9206 -0.0442 -0.3879
vn 0.3885 0.8510 -0.3534
vn 0.0121 0.9727 0.2317
vn -0.7888 0.3495 -0.5056
vn -0.4741 0.4514 -0.7560
vn 0.1969 0.8211 0.5357
vn 0.6384 0.7525 0.1619
vn 0.0998 0.6930 -0.7140
vn -0.5456 0.5082 -0.6663
vn 0.2270 -0.6259 -0.7462
vn 0.3504 -0.3185 -0.8808
vn -0.0044 0.9878 0.1559
vn -0.4896 0.8612 0.1367
vn 0.2263 0.3080 0.9241
vn 0.8805 0.3371 0.3332
vn -0.2465 0.4451 -0.8609
vn 0.2643 0.6764 -0.6875
vn 0.7633 -0.1268 -0.6334
vn 0.6936 -0.3156 -0.6475
vn 0.7774 -0.3597 0.5161
vn 0.6549 -0.2879 0.6987
vn 0.9758 -0.1451 0.1633
vn 0.9096 -0.3160 0.2697
vn 0.3774 0.9251 -0.0419
vn 0.8917 -0.4072 0.1978
vn 0.8970 -0.4099 0.1656
vn 0.7889 -0.3004 0.5361
vn 0.5613 -0.1712 0.8097
vn -0.1614 0.6861 -0.7094
vn -0.2844 0.8114 -0.5106
vn 0.8355 -0.4159 0.3592
vn -0.2924 0.2373 -0.9264
vn 0.6519 -0.0532 -0.7564
vn 0.7919 -0.4842 -0.3721
vn 0.7335 -0.4582 -0.5020
vn 0.7071 -0.5544 -0.4388
vn 0.5275 -0.6003 -0.6011
vn 0.9342 0.3450 -0.0907
vn 0.2180 0.9010 -0.3750
vn 0.7896 -0.3701 -0.4895
vn 0.6350 -0.4529 -0.6258
vn -0.2715 0.9616 -0.0411
vn -0.4081 0.8314 -0.3773
vn -0.3520 0.8970 -0.2674
vn -0.6166 0.7466 0.2497
vn -0.6622 0.7373 0.1338
vn -0.5786 0.2507 -0.7761
vn -0.4536 0.1626 -0.8763
vn -0.1017 0.7132 -0.6936
vn 0.0375 -0.0368 -0.9986
vn 0.6296 0.6504 0.4249
vn -0.3860 0.0729 -0.9196
vn 0.7444 -0.4095 -0.5274
vn 0.9968 0.0333 0.0720
vn 0.9588 -0.2395 0.1525
vn 0.8433 -0.3420 -0.4146
vn 0.7590 -0.3532 -0.5469
vn 0.6926 -0.4858 -0.5332
vn 0.4049 -0.9101 -0.0881
vn 0.3886 -0.8864 -0.2517
vn -0.1571 0.3260 0.9322
vn -0.1808 0.4051 0.8962
vn -0.2133 0.4196 0.8823
vn -0.6531 0.6090 0.4501
vn -0.2774 0.8627 0.4228
vn -0.5147 0.6418 0.5684
vn 0.5652 -0.0059 0.8250
vn 0.7331 -0.1110 0.6710
vn 0.4818 -0.0345 0.8756
vn 0.5701 0.0232 0.8213
vn 0.7460 -0.3918 0.5384
vn 0.3804 -0.4667 0.7984
vn -0.0829 0.7344 0.6737
vn -0.2246 0.5192 0.8246
vn -0.5124 0.6286 0.5851
vn 0.9652 0.1687 0.1998
vn -0.6535 0.6395 0.4050
vn -0.5795 0.2091 -0.7877
vn -0.4159 0.1953 -0.8882
vn -0.3473 0.1959 -0.9171
vn 0.4377 -0.8092 0.3920
vn 0.7278 -0.5469 -0.4138
vn 0.6717 0.3146 -0.6707
vn 0.6318 0.0285 -0.7746
vn 0.1617 -0.1234 -0.9791
vn 0.5833 -0.3052 -0.7527
vn 0.2349 0.2647 -0.9353
vn -0.0369 0.7640 -0.6442
vn 0.8096 -0.3904 0.4383
vn 0.6605 0.3950 0.6385
vn -0.5082 0.6860 0.5207
vn 0.6152 -0.4838 0.6225
vn 0.1215 -0.4593 0.8799
vn -0.2130 -0.9679 0.1335
vn -0.0940 -0.9912 0.0937
vn -0.8054 -0.4812 -0.3462
vn -0.9368 -0.3495 0.0122
vn -0.6884 -0.1212 0.7151
vn -0.2972 0.7096 0.6389
vn -0.8113 0.5693 -0.1329
vn -0.8102 0.5271 -0.2562
vn -0.0323 0.9594 0.2802
vn -0.1244 -0.9886 -0.0844
vn -0.9499 -0.2294 -0.2124
vn -0.9242 0.2471 -0.2912
vn -0.1831 -0.9821 -0.0438
vn -0.7881 0.5006 -0.3582
vn -0.2163 -0.9749 0.0530
vn -0.9724 0.2332 -0.0009
vn 0.7666 -0.5796 -0.2762
vn -0.0328 -0.9700 -0.2407
vn -0.8138 -0.5297 -0.2390
vn -0.4026 0.4360 -0.8048
vn -0.3601 0.2954 -0.8849
vn -0.4731 0.3046 -0.8267
vn -0.5073 -0.2357 -0.8289
vn -0.0659 -0.9096 -0.4101
vn -0.1697 0.1936 -0.9663
vn 0.0339 -0.6030 -0.7970
vn -0.1004 -0.9357 -0.3381
vn 0.4416 -0.8575 0.2640
vn -0.6186 -0.7601 -0.1989
vn -0.0475 -0.9493 0.3108
vn -0.9675 0.1582 -0.1974
vn -0.7852 -0.0082 0.6191
vn -0.1125 0.0730 0.9910
vn 0.1812 -0.6914 0.6994
vn 0.1081 -0.9941 -0.0042
vn 0.2141 -0.9766 -0.0189
vn -0.4237 0.8673 0.2613
vn -0.6971 0.4527 0.5560
vn -0.9523 0.2192 -0.2123
vn 0.0474 -0.9975 -0.0533
vn 0.0482 -0.9985 -0.0248
vn -0.6028 -0.5439 0.5838
vn -0.9962 0.0409 -0.0765
vn -0.1719 -0.9531 -0.2490
vn -0.4356 0.4495 0.7799
vn -0.5000 0.5815 0.6418
vn -0.4968 0.5591 0.6638
vn 0.3307 -0.6719 0.6627
vn -0.0482 0.0622 0.9969
vn -0.6440 0.5754 0.5041
vn -0.7006 0.6926 0.1717
vn -0.7745 0.5969 0.2094
vn -0.6848 0.6993 -0.2048
vn -0.6200 0.7746 -0.1252
vn -0.3560 -0.7817 -0.5120
vn -0.7591 0.5417 -0.3611
vn 0.2442 -0.8227 0.5133
vn -0.1349 -0.8033 0.5801
vn -0.6759 -0.7231 -0.1423
vn -0.9621 0.2079 0.1762
vn -0.0758 0.1841 0.9800
vn 0.0121 0.5412 0.8408
vn 0.2710 -0.7642 0.5852
vn -0.3344 0.1728 0.9265
vn -0.4995 0.5531 -0.6667
vn -0.3818 0.6637 -0.6433
vn -0.5956 0.4055 -0.6934
vn -0.7701 0.5878 -0.2477
vn -0.8483 0.4652 -0.2529
vn -0.7156 0.6545 0.2440
vn -0.7109 0.6269 0.3188
vn -0.8843 0.3970 -0.2457
vn -0.4484 0.6483 0.6154
vn -0.9254 0.3162 -0.2091
vn 0.0724 -0.2943 -0.9530
vn -0.9847 0.1672 -0.0492
vn 0.8012 0.5852 -0.1249
vn -0.0227 0.3086 -0.9509
vn -0.8273 0.5515 -0.1064
vn -0.0654 0.8835 0.4638
vn -0.6525 -0.7193 -0.2386
vn -0.6919 -0.6668 -0.2769
vn -0.9394 0.2719 -0.2089
vn -0.3839 0.8958 0.2241
vn -0.9228 0.3252 -0.2065
vn -0.3028 0.9312 0.2029
vn 0.6361 0.5446 0.5467
vn 0.6332 0.4927 0.5969
vn 0.8271 -0.4002 0.3947
vn 0.8203 -0.4068 0.4020
vn 0.1956 -0.9798 0.0407
vn 0.2954 -0.9517 0.0838
vn 0.3783 -0.9057 0.1913
vn -0.7301 -0.6245 -0.2775
vn 0.0402 -0.9972 0.0625
vn -0.7722 -0.5514 -0.3157
vn -0.8656 0.4305 -0.2558
vn -0.1576 0.9683 0.1938
vn 0.5932 0.4540 0.6649
vn 0.6276 0.5315 0.5689
vn 0.7475 -0.4323 0.5044
vn 0.4982 0.3685 0.7848
vn 0.2248 0.9171 -0.3293
vn 0.5273 0.6659 -0.5278
vn 0.8909 -0.3590 -0.2781
vn -0.9968 -0.0771 -0.0229
vn -0.0714 0.9270 -0.3681
vn 0.9625 -0.0283 -0.2697
vn -0.3141 0.5758 -0.7549
vn 0.6855 0.0109 -0.7280
vn 0.0586 -0.9941 0.0911
vn 0.1054 -0.8638 -0.4927
vn -0.7929 -0.3855 -0.4719
vn 0.1079 -0.2603 -0.9595
vn 0.1545 -0.3895 -0.9080
vn 0.1649 -0.5832 -0.7954
vn -0.7276 0.2778 -0.6272
vn 0.0485 -0.7562 -0.6525
vn 0.0795 -0.4781 -0.8747
vn -0.6093 0.7783 0.1516
vn 0.0261 0.3000 0.9536
vn 0.9669 -0.2493 0.0536
f 1/1/1 2/2/2 3/3/3 4/4/4
f 5/5/5 6/6/6 3/3/3 2/2/2
f 7/7/7 4/4/4 3/3/3 6/6/6
f 8/8/8 9/9/9 10/10/10 1/1/1
f 2/2/2 1/1/1 10/10/10 11/11/11
f 12/12/12 11/11/11 10/10/10 9/9/9
f 13/13/13 4/4/4 7/7/7 14/14/14
f 15/15/15 14/14/14 7/7/7 6/6/6
f 11/11/11 16/16/16 5/5/5 2/2/2
f 15/15/15 6/6/6 5/5/5 16/16/16
f 17/17/17 18/18/18 19/19/19 20/20/20
f 21/21/21 22/22/22 19/19/19 18/18/18
f 20/20/20 23/23/23 24/24/24 17/17/17
f 25/25/25 26/26/26 27/27/27 28/28/28
f 29/29/29 28/28/28 27/27/27 30/30/30
f 31/31/31 32/32/32 33/33/33 34/34/34
f 35/35/35 34/34/34 33/33/33 36/36/36
f 37/37/37 38/38/38 39/39/39 40/40/40
f 41/41/41 42/42/42 43/43/43 44/44/44
f 45/45/45 44/46/44 43/47/43 40/48/40
f 38/38/38 37/37/37 42/42/42 41/41/41
f 45/49/45 46/50/46 47/51/47 44/44/44
f 48/52/48 49/53/49 47/54/47 50/55/50
f 51/56/51 50/55/50 47/54/47 52/57/52
f 53/58/53 52/57/52 47/54/47 46/59/46
f 41/41/41 44/44/44 47/51/47 54/60/54
f 55/61/55 54/60/54 47/51/47 49/62/49
f 56/63/56 31/31/31 49/53/49 48/52/48
f 34/64/34 57/65/57 49/62/49 31/66/31
f 58/67/58 55/61/55 49/62/49 57/65/57
f 59/68/59 60/69/60 58/70/58 61/71/61
f 62/72/62 61/71/61 58/70/58 57/73/57
f 63/74/63 64/75/64 58/67/58 65/76/65
f 66/77/66 65/78/65 58/70/58 60/69/60
f 28/79/28 67/80/67 63/81/63 25/82/25
f 68/83/68 64/75/64 63/74/63 67/84/67
f 69/85/69 55/61/55 58/67/58 64/75/64
f 70/86/70 71/87/71 55/61/55 69/85/69
f 72/88/72 73/89/73 74/90/74 68/91/68
f 75/92/75 76/93/76 74/90/74 77/94/77
f 64/75/64 68/83/68 74/95/74 69/85/69
f 17/17/17 24/24/24 78/96/78 79/97/79
f 80/98/80 79/97/79 78/96/78 81/99/81
f 82/100/82 81/99/81 78/96/78 83/101/83
f 23/23/23 84/102/84 78/96/78 24/24/24
f 85/103/85 83/101/83 78/96/78 84/102/84
f 86/104/86 71/105/71 70/106/70 87/107/87
f 88/108/88 87/109/87 70/86/70 89/110/89
f 74/95/74 90/111/90 70/86/70 69/85/69
f 91/112/91 89/110/89 70/86/70 90/111/90
f 17/17/17 79/97/79 92/113/92 18/18/18
f 80/98/80 93/114/93 92/113/92 79/97/79
f 94/115/94 95/116/95 92/113/92 93/114/93
f 96/117/96 97/118/97 92/113/92 95/116/95
f 21/21/21 18/18/18 92/113/92 97/118/97
f 98/119/98 90/111/90 74/95/74 76/120/76
f 99/121/99 100/122/100 76/123/76 101/124/101
f 102/125/102 98/119/98 76/120/76 100/126/100
f 103/127/103 77/94/77 74/90/74 104/128/104
f 105/129/105 104/128/104 74/90/74 73/89/73
f 97/118/97 106/130/106 84/102/84 21/21/21
f 107/131/107 108/132/108 109/133/109 83/134/83
f 110/135/110 111/136/111 109/133/109 112/137/112
f 113/138/113 112/137/112 109/133/109 108/132/108
f 22/22/22 21/21/21 84/102/84 23/23/23
f 114/139/114 96/117/96 95/116/95 115/140/115
f 88/141/88 116/142/116 95/116/95 94/115/94
f 117/143/117 118/144/118 119/145/119 120/146/120
f 121/147/121 120/146/120 119/145/119 122/148/122
f 123/149/123 122/148/122 119/145/119 118/144/118
f 123/149/123 124/150/124 125/151/125 122/148/122
f 121/147/121 122/148/122 125/151/125 126/152/126
f 127/153/127 126/154/126 125/155/125 124/156/124
f 128/157/128 129/158/129 130/159/130 131/160/131
f 132/161/132 113/162/113 130/159/130 129/158/129
f 133/163/133 131/160/131 130/159/130 134/164/134
f 135/165/135 107/166/107 128/157/128 131/160/131
f 136/167/136 137/168/137 128/157/128 85/103/85
f 110/135/110 112/137/112 138/169/138 105/170/105
f 113/162/113 132/161/132 138/171/138 112/172/112
f 139/173/139 140/174/140 138/175/138 141/176/141
f 137/177/137 141/176/141 138/175/138 132/178/132
f 104/128/104 105/129/105 138/175/138 140/174/140
f 142/179/142 141/176/141 137/177/137 136/180/136
f 143/181/143 139/173/139 141/176/141 144/182/144
f 145/183/145 144/184/144 141/185/141 142/186/142
f 146/187/146 147/188/147 148/189/148 106/190/106
f 149/191/149 150/192/150 148/189/148 147/188/147
f 151/193/151 152/194/152 148/195/148 150/196/150
f 153/197/153 154/198/154 148/195/148 152/194/152
f 115/140/115 95/116/95 116/142/116 155/199/155
f 89/110/89 156/200/156 116/201/116 88/108/88
f 150/192/150 149/191/149 116/201/116 156/200/156
f 157/202/157 155/203/155 116/201/116 149/191/149
f 153/204/153 158/205/158 145/183/145 142/186/142
f 12/12/12 144/184/144 145/183/145 159/206/159
f 160/207/160 159/206/159 145/183/145 161/208/161
f 162/209/162 161/208/161 145/183/145 158/205/158
f 156/200/156 163/210/163 151/211/151 150/192/150
f 164/212/164 165/213/165 151/211/151 163/210/163
f 166/214/166 152/194/152 151/193/151 167/215/167
f 168/216/168 167/215/167 151/193/151 165/217/165
f 165/217/165 169/218/169 170/219/170 168/216/168
f 171/220/171 172/221/172 170/222/170 169/223/169
f 161/224/161 168/216/168 170/219/170 160/225/160
f 173/226/173 174/227/174 161/208/161 162/209/162
f 175/228/175 176/229/176 177/230/177 173/226/173
f 174/227/174 173/226/173 177/230/177 178/231/178
f 179/232/179 180/233/180 175/234/175 181/235/181
f 182/236/182 176/237/176 175/234/175 180/233/180
f 162/238/162 181/235/181 175/234/175 173/239/173
f 161/208/161 174/227/174 180/240/180 179/241/179
f 178/231/178 182/242/182 180/240/180 174/227/174
f 168/216/168 161/224/161 179/232/179 167/215/167
f 166/214/166 167/215/167 179/232/179 181/235/181
f 158/243/158 166/214/166 181/235/181 162/238/162
f 13/13/13 14/14/14 170/222/170 172/221/172
f 15/15/15 160/207/160 170/222/170 14/14/14
f 183/244/183 184/245/184 172/246/172 171/247/171
f 8/8/8 13/13/13 172/221/172 184/248/184
f 139/173/139 143/181/143 184/245/184 183/244/183
f 9/9/9 8/8/8 184/248/184 143/249/143
f 140/174/140 139/173/139 183/244/183 185/250/185
f 186/251/186 185/250/185 183/244/183 171/247/171
f 103/127/103 185/250/185 186/251/186 187/252/187
f 169/253/169 188/254/188 186/251/186 171/247/171
f 189/255/189 187/252/187 186/251/186 188/254/188
f 190/256/190 187/252/187 189/255/189 102/125/102
f 164/212/164 191/257/191 189/255/189 188/254/188
f 98/119/98 102/125/102 189/255/189 191/257/191
f 163/210/163 91/112/91 191/257/191 164/212/164
f 90/111/90 98/119/98 191/257/191 91/112/91
f 75/92/75 77/94/77 190/256/190 192/258/192
f 103/127/103 187/252/187 190/256/190 77/94/77
f 100/126/100 192/258/192 190/256/190 102/125/102
f 193/259/193 75/260/75 192/261/192 194/262/194
f 99/263/99 194/264/194 192/258/192 100/126/100
f 195/265/195 101/124/101 193/259/193 196/266/196
f 76/123/76 75/260/75 193/259/193 101/124/101
f 197/267/197 196/268/196 193/269/193 194/264/194
f 198/270/198 197/267/197 194/264/194 99/263/99
f 165/213/165 164/212/164 188/254/188 169/253/169
f 104/128/104 140/174/140 185/250/185 103/127/103
f 153/197/153 152/194/152 166/214/166 158/243/158
f 89/110/89 91/112/91 163/210/163 156/200/156
f 16/16/16 159/206/159 160/207/160 15/15/15
f 11/11/11 12/12/12 159/206/159 16/16/16
f 147/188/147 199/271/199 157/202/157 149/191/149
f 200/272/200 201/273/201 157/202/157 199/271/199
f 202/274/202 155/203/155 157/202/157 201/273/201
f 203/275/203 204/276/204 202/274/202 201/273/201
f 205/277/205 206/278/206 202/279/202 204/280/204
f 115/140/115 155/199/155 202/279/202 206/278/206
f 207/281/207 208/282/208 206/278/206 205/277/205
f 114/139/114 115/140/115 206/278/206 208/282/208
f 209/283/209 210/284/210 208/282/208 207/281/207
f 211/285/211 114/139/114 208/282/208 210/284/210
f 96/117/96 114/139/114 211/285/211 146/286/146
f 200/272/200 199/271/199 211/287/211 210/288/210
f 147/188/147 146/187/146 211/287/211 199/271/199
f 212/289/212 200/272/200 210/288/210 209/290/209
f 213/291/213 214/292/214 212/293/212 209/283/209
f 215/294/215 203/275/203 212/289/212 214/295/214
f 201/273/201 200/272/200 212/289/212 203/275/203
f 121/147/121 126/152/126 215/294/215 214/295/214
f 127/296/127 216/297/216 215/294/215 126/152/126
f 204/276/204 203/275/203 215/294/215 216/297/216
f 217/298/217 218/299/218 216/300/216 127/153/127
f 205/277/205 204/280/204 216/300/216 218/299/218
f 117/301/117 219/302/219 218/299/218 217/298/217
f 207/281/207 205/277/205 218/299/218 219/302/219
f 120/303/120 213/291/213 219/302/219 117/301/117
f 209/283/209 207/281/207 219/302/219 213/291/213
f 124/156/124 220/304/220 217/298/217 127/153/127
f 118/305/118 117/301/117 217/298/217 220/304/220
f 120/146/120 121/147/121 214/295/214 213/306/213
f 85/103/85 84/102/84 154/198/154 136/167/136
f 106/130/106 148/195/148 154/198/154 84/102/84
f 142/307/142 136/167/136 154/198/154 153/197/153
f 97/118/97 96/117/96 146/286/146 106/130/106
f 12/12/12 9/9/9 143/249/143 144/184/144
f 83/101/83 85/103/85 128/157/128 107/166/107
f 221/308/221 222/309/222 135/310/135 223/311/223
f 108/132/108 107/131/107 135/310/135 222/309/222
f 133/163/133 223/312/223 135/165/135 131/160/131
f 134/164/134 130/159/130 222/313/222 221/314/221
f 113/138/113 108/132/108 222/309/222 130/315/130
f 224/316/224 134/317/134 221/308/221 225/318/225
f 226/319/226 225/318/225 221/308/221 223/311/223
f 227/320/227 225/318/225 226/319/226 228/321/228
f 133/163/133 229/322/229 226/323/226 223/312/223
f 230/324/230 228/325/228 226/323/226 229/322/229
f 134/317/134 224/316/224 229/326/229 133/327/133
f 231/328/231 230/329/230 229/326/229 224/316/224
f 227/320/227 231/328/231 224/316/224 225/318/225
f 66/77/66 111/330/111 110/331/110 232/332/232
f 73/89/73 232/333/232 110/334/110 105/129/105
f 65/78/65 66/77/66 232/332/232 233/335/233
f 72/88/72 233/336/233 232/333/232 73/89/73
f 63/81/63 65/78/65 233/335/233 234/337/234
f 235/338/235 234/339/234 233/340/233 72/341/72
f 236/342/236 234/337/234 235/343/235 29/344/29
f 68/345/68 67/346/67 235/338/235 72/341/72
f 28/28/28 29/29/29 235/338/235 67/346/67
f 26/347/26 25/82/25 236/342/236 237/348/237
f 63/81/63 234/337/234 236/342/236 25/82/25
f 30/30/30 237/349/237 236/350/236 29/29/29
f 195/265/195 198/351/198 99/121/99 101/124/101
f 87/107/87 88/141/88 94/115/94 53/58/53
f 52/57/52 53/58/53 94/115/94 93/114/93
f 51/56/51 52/57/52 93/114/93 80/98/80
f 60/69/60 82/100/82 111/330/111 66/77/66
f 238/352/238 71/105/71 86/104/86 239/353/239
f 53/58/53 46/59/46 86/104/86 87/107/87
f 45/45/45 239/353/239 86/104/86 46/59/46
f 41/41/41 54/60/54 238/354/238 38/38/38
f 55/61/55 71/87/71 238/354/238 54/60/54
f 39/39/39 38/38/38 238/354/238 239/355/239
f 40/48/40 39/356/39 239/353/239 45/45/45
f 59/68/59 81/99/81 82/100/82 60/69/60
f 59/68/59 51/56/51 80/98/80 81/99/81
f 56/63/56 48/52/48 62/72/62 35/35/35
f 50/55/50 61/71/61 62/72/62 48/52/48
f 34/64/34 35/357/35 62/358/62 57/65/57
f 50/55/50 51/56/51 59/68/59 61/71/61
f 32/32/32 31/31/31 56/63/56 240/359/240
f 36/36/36 240/359/240 56/63/56 35/35/35
f 1/1/1 4/4/4 13/13/13 8/8/8
f 23/23/23 20/20/20 19/19/19 22/22/22
f 124/150/124 123/149/123 118/144/118 220/360/220
f 237/349/237 30/30/30 27/27/27 26/26/26
f 240/359/240 36/36/36 33/33/33 32/32/32
f 195/361/195 196/268/196 197/267/197 198/270/198
f 177/362/177 176/237/176 182/236/182 178/363/178
f 231/364/231 227/365/227 228/325/228 230/324/230
f 43/43/43 42/42/42 37/37/37 40/40/40
f 129/158/129 128/157/128 137/168/137 132/161/132
f 111/330/111 82/100/82 83/101/83 109/366/109
