# split from a merged terrain OBJ by scripts/split-terrain-obj-parts.py
o part-076
v 0.476039 0.020871 0.111220
v 0.472106 0.016614 0.116858
v 0.474482 0.010977 0.112413
v 0.479311 0.015516 0.105139
v 0.465771 0.016554 0.115739
v 0.468998 0.008727 0.111272
v 0.473862 0.011334 0.097677
v 0.482999 0.019760 0.099317
v 0.487002 0.024910 0.093566
v 0.485770 0.027543 0.100990
v 0.481027 0.026576 0.107675
v 0.470392 0.030668 0.106515
v 0.477602 0.032086 0.097452
v 0.482177 0.031409 0.092124
v 0.468005 0.022040 0.110878
v 0.483500 0.023308 0.084522
v 0.478590 0.030660 0.085690
v 0.471240 0.032375 0.093551
v 0.467349 0.011778 0.085227
v 0.473973 0.015827 0.083271
v 0.479894 0.017544 0.090966
v 0.473883 0.019929 0.076453
v 0.462855 0.015477 0.076592
v 0.457635 0.011961 0.090284
v 0.461135 0.009207 0.100357
v 0.461474 0.008121 0.110209
v 0.459849 0.015047 0.112706
v 0.459231 0.019271 0.106017
v 0.462610 0.030616 0.102983
v 0.454587 0.028712 0.095061
v 0.451978 0.017968 0.094874
v 0.470247 0.027745 0.078857
v 0.459338 0.023863 0.075418
v 0.458130 0.028488 0.082444
v 0.463985 0.031054 0.087546
v 0.450901 0.018914 0.081976
v 0.451253 0.025334 0.085087
v 0.455148 0.013874 0.081194
vt 0.987998 0.247095
vt 0.986009 0.244151
vt 0.988608 0.240999
vt 0.992359 0.241179
vt 0.983487 0.243283
vt 0.986041 0.239239
vt 0.989840 0.232306
vt 0.029703 0.691975
vt 0.028203 0.686335
vt 0.032731 0.684771
vt 0.035506 0.684421
vt 0.039891 0.673930
vt 0.034009 0.676453
vt 0.030135 0.680821
vt 0.982748 0.247333
vt 0.989662 0.251009
vt 0.981801 0.251554
vt 0.994773 0.246286
vt 0.023535 0.683601
vt 0.026233 0.679377
vt 0.029350 0.674375
vt 0.013655 0.692715
vt 0.011514 0.681281
vt 0.016635 0.684248
vt 0.021665 0.688913
vt 0.018152 0.679774
vt 0.012947 0.677415
vt 0.023652 0.693937
vt 0.006147 0.676329
vt 0.005664 0.683431
vt 0.982072 0.238119
vt 0.980220 0.234359
vt 0.980778 0.242073
vt 0.976778 0.243078
vt 0.976983 0.250246
vt 0.020703 0.665420
vt 0.009407 0.666469
vt 0.021641 0.660460
vt 0.031240 0.668534
vt 0.974019 0.233484
vt 0.970824 0.239200
vt 0.021496 0.676022
vt 0.015268 0.674240
vt 0.017943 0.670540
vt 0.022919 0.670855
vt 0.012650 0.670880
vt 0.015779 0.668501
vt 0.010207 0.673675
vn 0.5410 0.2434 0.8050
vn 0.2925 0.0898 0.9520
vn 0.5786 -0.6379 0.5082
vn 0.8002 -0.5454 0.2494
vn -0.2673 0.1749 0.9476
vn 0.1264 -0.8946 0.4286
vn 0.4063 -0.9033 -0.1376
vn 0.8153 -0.5518 0.1757
vn 0.9976 0.0177 -0.0669
vn 0.8434 0.3581 0.4006
vn 0.6203 0.3710 0.6910
vn -0.0736 0.7934 0.6043
vn 0.2354 0.9638 0.1253
vn 0.5274 0.8332 -0.1660
vn -0.2401 0.6080 0.7568
vn 0.8217 -0.1001 -0.5611
vn 0.3743 0.7974 -0.4734
vn -0.0541 0.9964 -0.0657
vn 0.1951 -0.9312 -0.3080
vn 0.4851 -0.7874 -0.3804
vn 0.6419 -0.7384 -0.2064
vn 0.4579 -0.2466 -0.8541
vn -0.0417 -0.5709 -0.8199
vn -0.4371 -0.8993 -0.0146
vn -0.4314 -0.9020 0.0196
vn -0.5161 -0.7899 0.3314
vn -0.7719 0.0412 0.6344
vn -0.8444 0.1553 0.5127
vn -0.4494 0.7681 0.4562
vn -0.7026 0.6717 0.2347
vn -0.9173 -0.2326 0.3233
vn 0.1519 0.6589 -0.7367
vn -0.3065 0.3374 -0.8901
vn -0.3706 0.8304 -0.4160
vn -0.1737 0.9600 -0.2197
vn -0.9025 -0.1421 -0.4066
vn -0.8245 0.5361 -0.1812
vn -0.4954 -0.7425 -0.4508
f 1/1/1 2/2/2 3/3/3 4/4/4
f 5/5/5 6/6/6 3/3/3 2/2/2
f 7/7/7 4/4/4 3/3/3 6/6/6
f 8/8/8 9/9/9 10/10/10 11/11/11
f 12/12/12 11/11/11 10/10/10 13/13/13
f 14/14/14 13/13/13 10/10/10 9/9/9
f 15/15/15 1/1/1 11/16/11 12/17/12
f 4/4/4 8/18/8 11/16/11 1/1/1
f 15/15/15 5/5/5 2/2/2 1/1/1
f 16/19/16 17/20/17 14/14/14 9/9/9
f 18/21/18 13/13/13 14/14/14 17/20/17
f 7/22/7 19/23/19 20/24/20 21/25/21
f 16/19/16 21/25/21 20/24/20 22/26/22
f 23/27/23 22/26/22 20/24/20 19/23/19
f 8/8/8 4/28/4 7/22/7 21/25/21
f 24/29/24 19/23/19 7/22/7 25/30/25
f 7/7/7 6/6/6 26/31/26 25/32/25
f 5/5/5 27/33/27 26/31/26 6/6/6
f 28/34/28 25/32/25 26/31/26 27/33/27
f 15/15/15 28/34/28 27/33/27 5/5/5
f 12/17/12 29/35/29 28/34/28 15/15/15
f 30/36/30 31/37/31 28/38/28 29/39/29
f 24/40/24 25/32/25 28/34/28 31/41/31
f 32/42/32 33/43/33 34/44/34 35/45/35
f 36/46/36 37/47/37 34/44/34 33/43/33
f 30/36/30 35/45/35 34/44/34 37/47/37
f 31/37/31 36/46/36 38/48/38 24/29/24
f 33/43/33 23/27/23 38/48/38 36/46/36
f 19/23/19 24/29/24 38/48/38 23/27/23
f 31/37/31 30/36/30 37/47/37 36/46/36
f 22/26/22 23/27/23 33/43/33 32/42/32
f 18/21/18 17/20/17 32/42/32 35/45/35
f 16/19/16 22/26/22 32/42/32 17/20/17
f 29/39/29 18/21/18 35/45/35 30/36/30
f 13/13/13 18/21/18 29/39/29 12/12/12
f 9/9/9 8/8/8 21/25/21 16/19/16
