# split from a merged terrain OBJ by scripts/split-terrain-obj-parts.py
o part-060
v -0.221735 1.147813 0.095197
v -0.215712 1.148605 0.104485
v -0.219113 1.143132 0.104543
v -0.225340 1.141336 0.097764
v -0.219639 1.148579 0.115652
v -0.223245 1.142110 0.110615
v -0.231182 1.139548 0.103215
v -0.223324 1.155695 0.111058
v -0.230460 1.155247 0.115371
v -0.228475 1.147474 0.123307
v -0.230375 1.141958 0.115508
v -0.235794 1.143504 0.116793
v -0.235525 1.150562 0.117227
v -0.223551 1.154178 0.098375
v -0.217995 1.153381 0.104613
v -0.229359 1.156993 0.104208
v -0.235942 1.157821 0.119325
v -0.241898 1.152065 0.113022
v -0.241079 1.143626 0.112212
v -0.236857 1.139518 0.108238
v -0.243755 1.144883 0.084144
v -0.249464 1.151670 0.081321
v -0.245087 1.152722 0.076731
v -0.237511 1.150110 0.081400
v -0.237990 1.157759 0.084773
v -0.243776 1.158099 0.079812
v -0.249712 1.158833 0.083595
v -0.243893 1.160690 0.090793
v -0.255133 1.149075 0.085608
v -0.256399 1.158232 0.089012
v -0.260600 1.147921 0.088523
v -0.261236 1.153810 0.089714
v -0.255980 1.159887 0.102609
v -0.250138 1.161341 0.096908
v -0.258659 1.161295 0.096177
v -0.253565 1.141786 0.094037
v -0.255867 1.145673 0.099357
v -0.263776 1.147973 0.092203
v -0.255850 1.153318 0.101250
v -0.261971 1.153833 0.095539
v -0.235640 1.158280 0.109154
v -0.240571 1.159083 0.113312
v -0.242989 1.160297 0.103173
v -0.247826 1.160443 0.107826
v -0.248979 1.153119 0.107512
v -0.248483 1.144789 0.105767
v -0.244896 1.140569 0.101304
v -0.249742 1.142984 0.088868
v -0.240322 1.140718 0.095820
v -0.234970 1.142028 0.090586
v -0.230641 1.148428 0.087798
v -0.231442 1.156312 0.090986
v -0.237104 1.158980 0.097482
vt 0.523053 0.026131
vt 0.526109 0.029717
vt 0.523284 0.031461
vt 0.519456 0.028697
vt 0.528931 0.033992
vt 0.523158 0.034715
vt 0.516149 0.031934
vt 0.532413 0.029088
vt 0.535742 0.029975
vt 0.531666 0.038965
vt 0.522362 0.037718
vt 0.521261 0.039720
vt 0.523452 0.041396
vt 0.526939 0.024488
vt 0.528412 0.028142
vt 0.532010 0.023324
vt 0.641585 0.010000
vt 0.638976 0.012391
vt 0.636715 0.007740
vt 0.641605 0.006031
vt 0.641716 0.015430
vt 0.638179 0.018565
vt 0.635733 0.015774
vt 0.513300 0.034892
vt 0.514888 0.039245
vt 0.513175 0.018550
vt 0.513580 0.012674
vt 0.516360 0.014048
vt 0.517710 0.017887
vt 0.521649 0.015816
vt 0.519373 0.013282
vt 0.519170 0.010127
vt 0.524832 0.012697
vt 0.510871 0.011231
vt 0.519827 0.006562
vt 0.650973 0.032514
vt 0.653717 0.027786
vt 0.657230 0.025920
vt 0.653199 0.032898
vt 0.528638 0.006916
vt 0.527302 0.010030
vt 0.523983 0.005161
vt 0.644493 0.029036
vt 0.646064 0.025460
vt 0.650817 0.029096
vt 0.648896 0.022338
vt 0.652163 0.025338
vt 0.645018 0.008419
vt 0.644288 0.012495
vt 0.531542 0.014440
vt 0.534666 0.011757
vt 0.536774 0.019504
vt 0.536851 0.022982
vt 0.645185 0.018663
vt 0.648078 0.015736
vt 0.651230 0.019868
vt 0.641552 0.022469
vt 0.639514 0.025598
vt 0.635132 0.021622
vt 0.509305 0.018871
vt 0.512159 0.026080
vt 0.508853 0.028206
vt 0.505844 0.019531
vt 0.515889 0.023835
vt 0.520317 0.021544
vt 0.524807 0.019432
vt 0.529131 0.017136
vt 0.508011 0.013356
vt 0.654851 0.021858
vn 0.7379 -0.0922 -0.6686
vn 0.9946 -0.0234 -0.1012
vn 0.6646 -0.7449 -0.0596
vn 0.4214 -0.8295 -0.3666
vn 0.7760 -0.0161 0.6306
vn 0.4557 -0.8458 0.2775
vn 0.1137 -0.9932 -0.0246
vn 0.4573 0.8413 0.2883
vn 0.2621 0.8192 0.5101
vn 0.1823 -0.1232 0.9755
vn 0.0233 -0.8524 0.5224
vn -0.4639 -0.5390 0.7030
vn -0.4638 -0.0339 0.8853
vn 0.5561 0.7308 -0.3958
vn 0.7078 0.6989 -0.1023
vn 0.2674 0.9636 -0.0068
vn -0.1714 0.6346 0.7536
vn -0.6387 -0.0645 0.7668
vn -0.5428 -0.5374 0.6454
vn -0.1524 -0.9623 0.2253
vn -0.0260 -0.7782 -0.6275
vn -0.4909 -0.1974 -0.8486
vn -0.0616 -0.0602 -0.9963
vn 0.4928 -0.2181 -0.8424
vn 0.4906 0.7279 -0.4791
vn 0.0857 0.6963 -0.7126
vn -0.3822 0.7385 -0.5555
vn 0.1101 0.9857 -0.1278
vn -0.4791 -0.3002 -0.8249
vn -0.5066 0.6911 -0.5155
vn -0.7121 -0.3898 -0.5839
vn -0.7351 0.3437 -0.5844
vn -0.5655 0.6145 0.5501
vn -0.0037 0.9988 -0.0483
vn -0.5945 0.8003 0.0777
vn -0.3556 -0.9302 -0.0912
vn -0.6349 -0.5673 0.5245
vn -0.9388 -0.3335 0.0863
vn -0.6975 -0.0806 0.7120
vn -0.9484 0.1762 0.2637
vn 0.2350 0.9688 0.0793
vn -0.2660 0.7563 0.5977
vn 0.1374 0.9890 0.0540
vn -0.3592 0.7261 0.5864
vn -0.6301 -0.0817 0.7722
vn -0.5926 -0.5263 0.6098
vn -0.2675 -0.9533 0.1404
vn -0.1979 -0.8527 -0.4834
vn -0.0200 -0.9794 -0.2009
vn 0.2295 -0.8414 -0.4893
vn 0.6260 -0.1602 -0.7632
vn 0.5497 0.7245 -0.4157
vn 0.2707 0.9618 -0.0406
f 1/1/1 2/2/2 3/3/3 4/4/4
f 5/5/5 6/6/6 3/3/3 2/2/2
f 7/7/7 4/4/4 3/3/3 6/6/6
f 8/8/8 9/9/9 10/10/10 5/5/5
f 6/6/6 5/5/5 10/10/10 11/11/11
f 12/12/12 11/11/11 10/10/10 13/13/13
f 1/1/1 14/14/14 15/15/15 2/2/2
f 5/5/5 2/2/2 15/15/15 8/8/8
f 16/16/16 8/8/8 15/15/15 14/14/14
f 17/17/17 13/18/13 10/19/10 9/20/9
f 18/21/18 19/22/19 12/23/12 13/18/13
f 20/24/20 11/11/11 12/12/12 19/25/19
f 21/26/21 22/27/22 23/28/23 24/29/24
f 25/30/25 24/29/24 23/28/23 26/31/26
f 27/32/27 26/31/26 23/28/23 22/27/22
f 28/33/28 25/30/25 26/31/26 27/32/27
f 22/27/22 29/34/29 30/35/30 27/32/27
f 31/36/31 32/37/32 30/38/30 29/39/29
f 33/40/33 34/41/34 30/35/30 35/42/35
f 28/33/28 27/32/27 30/35/30 34/41/34
f 36/43/36 37/44/37 38/45/38 31/36/31
f 39/46/39 40/47/40 38/45/38 37/44/37
f 32/37/32 31/36/31 38/45/38 40/47/40
f 41/48/41 42/49/42 17/17/17 9/20/9
f 18/21/18 13/18/13 17/17/17 42/49/42
f 43/50/43 44/51/44 42/52/42 41/53/41
f 45/54/45 18/21/18 42/49/42 44/55/44
f 33/56/33 39/46/39 45/54/45 44/55/44
f 37/44/37 46/57/46 45/54/45 39/46/39
f 19/22/19 18/21/18 45/54/45 46/57/46
f 36/43/36 47/58/47 46/57/46 37/44/37
f 20/59/20 19/22/19 46/57/46 47/58/47
f 48/60/48 49/61/49 47/62/47 36/63/36
f 7/7/7 20/24/20 47/62/47 49/61/49
f 21/26/21 50/64/50 49/61/49 48/60/48
f 4/4/4 7/7/7 49/61/49 50/64/50
f 24/29/24 51/65/51 50/64/50 21/26/21
f 1/1/1 4/4/4 50/64/50 51/65/51
f 25/30/25 52/66/52 51/65/51 24/29/24
f 14/14/14 1/1/1 51/65/51 52/66/52
f 28/33/28 53/67/53 52/66/52 25/30/25
f 16/16/16 14/14/14 52/66/52 53/67/53
f 34/41/34 43/50/43 53/67/53 28/33/28
f 41/53/41 16/16/16 53/67/53 43/50/43
f 31/68/31 29/34/29 48/60/48 36/63/36
f 22/27/22 21/26/21 48/60/48 29/34/29
f 34/41/34 33/40/33 44/51/44 43/50/43
f 8/8/8 16/16/16 41/53/41 9/9/9
f 33/56/33 35/69/35 40/47/40 39/46/39
f 6/6/6 11/11/11 20/24/20 7/7/7
f 40/47/40 35/69/35 30/38/30 32/37/32
