# split from a merged terrain OBJ by scripts/split-terrain-obj-parts.py
o part-012
v -0.845080 1.249173 -0.019882
v -0.851367 1.250922 -0.015465
v -0.844882 1.250752 -0.009458
v -0.842399 1.247532 -0.009741
v -0.858971 1.251151 -0.008581
v -0.852525 1.250976 -0.002891
v -0.848729 1.248241 0.000158
v -0.842674 1.227457 -0.010175
v -0.837658 1.221516 -0.006346
v -0.834719 1.223592 -0.022166
v -0.841393 1.230037 -0.021684
v -0.848176 1.227343 -0.032720
v -0.842057 1.224133 -0.041328
v -0.827495 1.218541 0.001705
v -0.819913 1.218833 -0.012067
v -0.797959 1.186498 0.054496
v -0.800045 1.180492 0.070092
v -0.798056 1.174987 0.065286
v -0.797693 1.176620 0.054570
v -0.803680 1.173873 0.076676
v -0.799057 1.168537 0.068808
v -0.797967 1.166460 0.055636
v -0.798612 1.192549 -0.035198
v -0.805116 1.197820 -0.029098
v -0.790040 1.196236 -0.010714
v -0.783888 1.189008 -0.009154
v -0.789288 1.190561 0.005656
v -0.796539 1.197366 -0.005256
v -0.806927 1.211892 0.002305
v -0.801981 1.200847 0.017435
v -0.794864 1.195446 0.013853
v -0.801426 1.203615 -0.003427
v -0.802135 1.195334 0.035960
v -0.798672 1.189643 0.035447
v -0.815678 1.214098 0.012970
v -0.809519 1.202384 0.020700
v -0.822577 1.211718 0.027989
v -0.813053 1.199190 0.037280
v -0.824255 1.184535 -0.066354
v -0.833111 1.183983 -0.075933
v -0.833733 1.193710 -0.076276
v -0.825803 1.196733 -0.064641
v -0.844821 1.187336 -0.074115
v -0.841448 1.195247 -0.067094
v -0.832926 1.197176 -0.056895
v -0.813075 1.176665 0.076893
v -0.816212 1.165947 0.074355
v -0.807754 1.166807 0.077111
v -0.803713 1.158423 0.071830
v -0.815512 1.155377 0.070055
v -0.828932 1.208825 0.041858
v -0.824844 1.195526 0.047416
v -0.823165 1.192376 0.059709
v -0.811965 1.193047 0.056486
v -0.803580 1.191869 0.055108
v -0.847929 1.154606 -0.064605
v -0.853260 1.164613 -0.067007
v -0.842452 1.163101 -0.075430
v -0.835336 1.159037 -0.073888
v -0.833106 1.171812 -0.074867
v -0.844208 1.174327 -0.077038
v -0.854587 1.177981 -0.066999
v -0.868568 1.248912 -0.039975
v -0.878254 1.246912 -0.039813
v -0.879163 1.251358 -0.038482
v -0.872344 1.251221 -0.034116
v -0.878643 1.251326 -0.026284
v -0.884007 1.251362 -0.031238
v -0.884764 1.246118 -0.032439
v -0.850174 1.208336 -0.055060
v -0.858980 1.208418 -0.058971
v -0.858314 1.219378 -0.056867
v -0.850774 1.221458 -0.052948
v -0.869248 1.211404 -0.050489
v -0.863919 1.223625 -0.050840
v -0.856190 1.226541 -0.043447
v -0.879189 1.251113 0.011949
v -0.884238 1.251136 0.016457
v -0.876566 1.251095 0.022311
v -0.872861 1.250504 0.018877
v -0.886571 1.247269 0.017843
v -0.878154 1.246907 0.023247
v -0.870138 1.247549 0.022340
v -0.848660 1.196169 -0.057394
v -0.855529 1.193742 -0.062124
v -0.867839 1.178077 -0.057797
v -0.868412 1.193265 -0.055384
v -0.886624 1.190425 -0.041329
v -0.882931 1.207322 -0.039359
v -0.867860 1.229976 -0.043229
v -0.874234 1.225738 -0.042647
v -0.883008 1.224377 -0.034679
v -0.892358 1.251285 -0.001286
v -0.898957 1.251342 -0.007217
v -0.906218 1.250951 -0.003027
v -0.898016 1.251298 0.003082
v -0.903176 1.248058 -0.009829
v -0.906258 1.247365 -0.001982
v -0.899953 1.247454 0.005401
v -0.863918 1.227975 0.020787
v -0.870085 1.228876 0.026764
v -0.868464 1.220048 0.028893
v -0.862098 1.221422 0.023065
v -0.854514 1.218331 0.031070
v -0.861076 1.216304 0.036534
v -0.878424 1.228119 0.023550
v -0.877299 1.219029 0.023647
v -0.863999 1.207186 0.037142
v -0.870365 1.207919 0.030622
v -0.876877 1.207079 0.023435
v -0.858692 1.206238 0.042402
v -0.853180 1.212855 0.044368
v -0.863350 1.197621 0.037595
v -0.855852 1.199037 0.044969
v -0.846522 1.202711 0.050717
v -0.870285 1.154673 0.084340
v -0.869529 1.163995 0.086582
v -0.875631 1.162912 0.092981
v -0.875331 1.154219 0.090098
v -0.879085 1.155699 0.091560
v -0.882562 1.167079 0.087957
v -0.877395 1.168677 0.080695
v -0.865536 1.173133 0.062352
v -0.867741 1.168458 0.064911
v -0.858701 1.162972 0.070291
v -0.854158 1.171005 0.073089
v -0.848517 1.150788 0.069486
v -0.843879 1.156042 0.077388
v -0.859207 1.158081 0.069899
v -0.871590 1.169821 0.072520
v -0.863477 1.165037 0.077918
v -0.864335 1.156273 0.076649
v -0.887990 1.152505 0.077519
v -0.891563 1.159536 0.078032
v -0.866825 1.192003 0.043589
v -0.875103 1.191471 0.037829
v -0.880671 1.184355 0.044589
v -0.872031 1.188635 0.050274
v -0.898742 1.181140 0.038079
v -0.891728 1.176309 0.045059
v -0.892295 1.188823 0.036769
v -0.874176 1.183517 0.053507
v -0.878576 1.178396 0.049169
v -0.884809 1.173209 0.050634
v -0.879747 1.195489 0.022253
v -0.871167 1.197310 0.031807
v -0.880136 1.205584 0.017920
v -0.881990 1.196925 0.015956
v -0.889925 1.209942 0.014046
v -0.891875 1.197403 0.013375
v -0.897362 1.192230 0.019486
v -0.886223 1.191740 0.029643
v -0.882441 1.216768 0.016828
v -0.885691 1.226058 0.016817
v -0.891636 1.224354 0.010845
v -0.898207 1.225329 0.004031
v -0.899744 1.214657 0.005600
v -0.901667 1.202389 0.006487
v -0.898636 1.172713 0.050989
v -0.904247 1.167117 0.063444
v -0.903082 1.170211 0.063378
v -0.891677 1.172215 0.056401
v -0.893551 1.167262 0.077907
v -0.888566 1.169787 0.072271
v -0.902645 1.173168 0.034160
v -0.897185 1.169478 0.039108
v -0.900688 1.166613 0.048114
v -0.902553 1.149360 0.003187
v -0.910947 1.151768 -0.004090
v -0.900880 1.151012 -0.015371
v -0.891444 1.150683 -0.007491
v -0.873279 1.150144 -0.022258
v -0.879953 1.150554 -0.031613
v -0.915499 1.161603 -0.006674
v -0.901905 1.158718 -0.018683
v -0.886002 1.156241 -0.037450
v -0.901206 1.162008 0.034949
v -0.899567 1.159660 0.047302
v -0.895187 1.152739 0.046883
v -0.899373 1.153859 0.035021
v -0.906889 1.152516 0.027805
v -0.909471 1.157407 0.034592
v -0.906494 1.166507 0.031438
v -0.909565 1.165076 0.035197
v -0.913896 1.163149 0.044669
v -0.916668 1.153197 0.041904
v -0.916855 1.150853 0.020965
v -0.920638 1.150616 0.027721
v -0.921920 1.182833 0.013934
v -0.923698 1.178076 0.003010
v -0.926254 1.168928 0.009835
v -0.921346 1.173280 0.017233
v -0.926637 1.153257 0.015112
v -0.929357 1.164663 0.016358
v -0.921396 1.152296 0.007563
v -0.923929 1.168919 0.021090
v -0.920086 1.160878 0.051533
v -0.924801 1.167451 0.048722
v -0.929003 1.164782 0.053136
v -0.926443 1.158633 0.055469
v -0.931076 1.167242 0.044445
v -0.934231 1.162876 0.050526
v -0.930697 1.154511 0.052225
v -0.930578 1.148767 0.041379
v -0.936229 1.151260 0.045844
v -0.940050 1.150173 0.039770
v -0.937967 1.149618 0.034996
v -0.939243 1.158777 0.044852
v -0.943693 1.155108 0.039153
v -0.943105 1.157796 0.034202
v -0.937563 1.164068 0.039305
v -0.865243 1.180374 0.063112
v -0.872514 1.179183 0.055682
v -0.874113 1.174131 0.053701
v -0.864997 1.187340 0.062604
v -0.923711 1.151188 0.047994
v -0.925543 1.149672 0.034953
v -0.934602 1.150661 0.028640
v -0.930657 1.152013 0.022022
v -0.938992 1.160735 0.027964
v -0.934422 1.162339 0.021668
v -0.933607 1.167111 0.032783
v -0.928889 1.168405 0.026372
v -0.926443 1.169168 0.037404
v -0.921906 1.169691 0.030379
v -0.917794 1.169923 0.024741
v -0.915061 1.168607 0.033392
v -0.910773 1.169099 0.028300
v -0.908558 1.175470 0.028941
v -0.915447 1.175436 0.022802
v -0.907010 1.184503 0.030507
v -0.915732 1.184270 0.022311
v -0.903533 1.190743 0.027135
v -0.911035 1.190918 0.016784
v -0.916456 1.190137 0.006577
v -0.904441 1.192537 0.009655
v -0.910745 1.196870 -0.000243
v -0.911679 1.197258 -0.008929
v -0.917796 1.187641 -0.004001
v -0.905880 1.193933 -0.016526
v -0.911592 1.181650 -0.011663
v -0.915117 1.170976 -0.007943
v -0.902509 1.177075 -0.022450
v -0.902736 1.166838 -0.020609
v -0.888189 1.176429 -0.039949
v -0.887871 1.165978 -0.039241
v -0.866642 1.166277 -0.057097
v -0.862950 1.156517 -0.053227
v -0.857238 1.151983 -0.046649
v -0.840833 1.152156 -0.056914
v -0.849171 1.151511 -0.038020
v -0.832497 1.152216 -0.047673
v -0.827840 1.155868 -0.065475
v -0.820338 1.155654 -0.054377
v -0.820706 1.152899 -0.032875
v -0.807418 1.156172 -0.037670
v -0.824704 1.170533 -0.066173
v -0.816012 1.169399 -0.055763
v -0.802203 1.168782 -0.038902
v -0.797694 1.157917 -0.009035
v -0.787077 1.168407 -0.009564
v -0.814481 1.183740 -0.054939
v -0.799945 1.182051 -0.037368
v -0.783947 1.179544 -0.009624
v -0.793628 1.169166 0.009340
v -0.790263 1.179443 0.008170
v -0.803281 1.157527 0.028316
v -0.800082 1.157393 0.011775
v -0.795936 1.167861 0.023834
v -0.794227 1.180030 0.019963
v -0.799357 1.166911 0.040351
v -0.798909 1.178622 0.037068
v -0.802495 1.155510 0.057855
v -0.802950 1.155680 0.043073
v -0.814444 1.151397 0.059054
v -0.814623 1.151854 0.045967
v -0.815154 1.153353 0.032038
v -0.827627 1.151714 0.049540
v -0.829382 1.151713 0.035541
v -0.829964 1.151185 0.015219
v -0.813322 1.151733 0.013466
v -0.832589 1.152272 -0.006047
v -0.812127 1.152455 -0.009235
v -0.839914 1.151691 -0.024990
v -0.857236 1.151183 0.002436
v -0.865489 1.150308 -0.011617
v -0.874997 1.150244 0.014369
v -0.883348 1.150491 0.001675
v -0.886016 1.149578 0.023471
v -0.894621 1.149274 0.011906
v -0.894297 1.150100 0.030790
v -0.902417 1.149580 0.020774
v -0.911456 1.149186 0.013005
v -0.887380 1.151402 0.044001
v -0.878764 1.150824 0.038289
v -0.881437 1.150729 0.058592
v -0.871515 1.152504 0.054610
v -0.867048 1.150294 0.030744
v -0.859852 1.149903 0.048523
v -0.863697 1.153509 0.065103
v -0.853892 1.150360 0.060961
v -0.850562 1.151008 0.022105
v -0.845408 1.150420 0.041095
v -0.841108 1.150337 0.054279
v -0.836990 1.150726 0.064149
v -0.826087 1.151815 0.060211
v -0.833115 1.154173 0.071602
v -0.825173 1.155634 0.067807
v -0.840492 1.165987 0.080428
v -0.830926 1.164632 0.073413
v -0.823689 1.165317 0.069717
v -0.829947 1.175941 0.071943
v -0.821830 1.176737 0.072682
v -0.834965 1.186850 0.071458
v -0.836833 1.176959 0.077912
v -0.826031 1.186750 0.069745
v -0.816526 1.188317 0.071350
v -0.806899 1.186444 0.071517
v -0.849280 1.187248 0.070477
v -0.852058 1.179438 0.074840
v -0.861376 1.190786 0.057072
v -0.847300 1.190627 0.062811
v -0.834962 1.191460 0.062622
v -0.845479 1.192494 0.054803
v -0.835767 1.194914 0.053989
v -0.856917 1.192969 0.049824
v -0.837291 1.206156 0.049519
v -0.846109 1.214892 0.039962
v -0.839730 1.215818 0.031396
v -0.834562 1.217309 0.017644
v -0.843098 1.220141 0.009139
v -0.848988 1.219071 0.022173
v -0.849179 1.222308 0.002716
v -0.855743 1.221687 0.014979
v -0.850371 1.229690 0.000835
v -0.857515 1.227986 0.012055
v -0.849401 1.236375 0.000764
v -0.856384 1.235384 0.011570
v -0.863023 1.235244 0.020141
v -0.855511 1.242343 0.011016
v -0.861944 1.242473 0.019110
v -0.869079 1.242483 0.024212
v -0.869500 1.236050 0.025577
v -0.878613 1.241568 0.022764
v -0.878882 1.235294 0.023284
v -0.886870 1.240849 0.017273
v -0.886666 1.234017 0.016971
v -0.893620 1.240726 0.011080
v -0.893163 1.233565 0.010655
v -0.899721 1.240926 0.005007
v -0.899015 1.233741 0.004629
v -0.905338 1.241129 -0.001421
v -0.904430 1.234506 -0.001559
v -0.903387 1.226719 -0.002036
v -0.903684 1.217242 -0.002588
v -0.903036 1.235838 -0.009332
v -0.902724 1.228525 -0.009553
v -0.902804 1.220042 -0.010369
v -0.908311 1.207095 -0.001791
v -0.907832 1.208898 -0.011630
v -0.897412 1.230201 -0.016551
v -0.897724 1.221557 -0.017435
v -0.902279 1.207912 -0.019717
v -0.890958 1.222968 -0.025732
v -0.895107 1.206928 -0.028468
v -0.899531 1.191147 -0.025972
v -0.890860 1.231581 -0.024651
v -0.883931 1.233112 -0.032994
v -0.891265 1.238573 -0.024308
v -0.884476 1.239912 -0.032482
v -0.877793 1.241581 -0.039647
v -0.876680 1.234990 -0.040030
v -0.868604 1.243715 -0.040572
v -0.868523 1.237397 -0.041397
v -0.859962 1.232220 -0.037292
v -0.860392 1.238935 -0.035745
v -0.860450 1.245245 -0.034801
v -0.851014 1.239957 -0.028341
v -0.851841 1.245714 -0.027786
v -0.861523 1.250591 -0.032957
v -0.853589 1.250620 -0.026232
v -0.844583 1.244955 -0.020041
v -0.866102 1.251148 -0.027590
v -0.858987 1.251074 -0.021263
v -0.872257 1.251282 -0.020599
v -0.865591 1.251229 -0.014494
v -0.879231 1.251295 -0.013167
v -0.872780 1.251242 -0.007104
v -0.866428 1.251150 -0.000802
v -0.860098 1.250963 0.005086
v -0.879791 1.251217 -0.000367
v -0.873283 1.251109 0.006195
v -0.866753 1.250659 0.012697
v -0.854993 1.249007 0.010306
v -0.860887 1.248967 0.018462
v -0.848872 1.242507 0.000672
v -0.843001 1.238326 -0.010362
v -0.843231 1.243489 -0.010148
v -0.843628 1.239999 -0.020516
v -0.842818 1.232949 -0.010541
v -0.842570 1.234727 -0.021139
v -0.850183 1.233968 -0.029383
v -0.885732 1.251221 0.005156
v -0.886104 1.251285 -0.006547
v -0.891057 1.251201 0.009604
v -0.893678 1.247389 0.011573
v -0.885515 1.251335 -0.018779
v -0.892448 1.251332 -0.012467
v -0.890669 1.251362 -0.023333
v -0.897761 1.249487 -0.016687
v -0.903366 1.242453 -0.009194
v -0.897898 1.243891 -0.016500
v -0.891612 1.245355 -0.024260
v -0.897713 1.237320 -0.016360
v -0.872198 1.151000 0.070397
v -0.880424 1.149289 0.074510
v -0.891262 1.150313 0.060873
v -0.899245 1.155749 0.062279
v -0.902386 1.162579 0.062857
v -0.813681 1.195113 -0.053363
v -0.821593 1.198148 -0.045363
v -0.839420 1.197478 -0.048974
v -0.829687 1.199808 -0.037474
v -0.812258 1.197958 -0.024210
v -0.829175 1.210908 -0.035323
v -0.813526 1.208452 -0.021558
v -0.840133 1.209819 -0.046776
v -0.919346 1.169179 0.041650
v -0.876800 1.171144 0.057337
v -0.881275 1.171071 0.064976
vt 0.219309 0.082913
vt 0.217084 0.084466
vt 0.215034 0.077988
vt 0.215925 0.076757
vt 0.211808 0.083396
vt 0.209551 0.077445
vt 0.209841 0.074591
vt 0.216539 0.069706
vt 0.213509 0.065306
vt 0.226741 0.070867
vt 0.224019 0.080127
vt 0.226809 0.089985
vt 0.230349 0.092319
vt 0.212266 0.060989
vt 0.224220 0.064051
vt 0.389435 0.428126
vt 0.392737 0.419510
vt 0.395120 0.420479
vt 0.395697 0.426247
vt 0.395083 0.412488
vt 0.397545 0.415327
vt 0.400806 0.421186
vt 0.428261 0.474123
vt 0.424812 0.478315
vt 0.412049 0.467687
vt 0.413808 0.462367
vt 0.404823 0.457357
vt 0.407545 0.467684
vt 0.397308 0.467698
vt 0.391169 0.453787
vt 0.397671 0.454677
vt 0.405576 0.469990
vt 0.388822 0.443125
vt 0.393390 0.440749
vt 0.218139 0.055359
vt 0.207722 0.053856
vt 0.204355 0.047445
vt 0.209091 0.045848
vt 0.195162 0.051651
vt 0.190284 0.044350
vt 0.384071 0.447295
vt 0.379296 0.436430
vt 0.454703 0.478228
vt 0.462750 0.475172
vt 0.461988 0.479148
vt 0.452649 0.482383
vt 0.469352 0.476076
vt 0.463589 0.481690
vt 0.451662 0.485958
vt 0.395005 0.406882
vt 0.400458 0.401888
vt 0.398375 0.407262
vt 0.401966 0.409164
vt 0.405966 0.401451
vt 0.182687 0.052326
vt 0.176227 0.047509
vt 0.385025 0.416472
vt 0.385702 0.424626
vt 0.380878 0.419337
vt 0.386913 0.429403
vt 0.474194 0.455956
vt 0.479028 0.459145
vt 0.473360 0.464625
vt 0.470366 0.463961
vt 0.466755 0.470043
vt 0.473313 0.469932
vt 0.480393 0.466530
vt 0.217824 0.104606
vt 0.215262 0.110168
vt 0.214456 0.108821
vt 0.215701 0.103948
vt 0.210900 0.104256
vt 0.210556 0.109438
vt 0.211560 0.112061
vt 0.462139 0.488966
vt 0.470393 0.487457
vt 0.461063 0.493883
vt 0.456944 0.494076
vt 0.219864 0.125966
vt 0.223322 0.113203
vt 0.225126 0.114750
vt 0.226474 0.121690
vt 0.227497 0.103369
vt 0.230545 0.107703
vt 0.191987 0.085322
vt 0.187418 0.086663
vt 0.187555 0.081391
vt 0.190487 0.080337
vt 0.183955 0.086892
vt 0.184330 0.080943
vt 0.188271 0.077845
vt 0.464726 0.484151
vt 0.474064 0.479502
vt 0.486079 0.465026
vt 0.486196 0.475012
vt 0.228579 0.129912
vt 0.217991 0.134801
vt 0.200663 0.138063
vt 0.205064 0.129662
vt 0.220668 0.112819
vt 0.217170 0.119107
vt 0.209890 0.121449
vt 0.194325 0.097268
vt 0.194395 0.103115
vt 0.189536 0.103349
vt 0.189220 0.097627
vt 0.192497 0.106935
vt 0.187661 0.104060
vt 0.185524 0.098261
vt 0.186238 0.070981
vt 0.180149 0.074701
vt 0.174387 0.073972
vt 0.184195 0.069149
vt 0.181734 0.065860
vt 0.174079 0.068922
vt 0.175678 0.079800
vt 0.172002 0.080965
vt 0.167204 0.071072
vt 0.166792 0.076506
vt 0.166448 0.082405
vt 0.167141 0.067195
vt 0.172799 0.063801
vt 0.161554 0.071814
vt 0.162687 0.065863
vt 0.167362 0.059858
vt 0.424077 0.370798
vt 0.419713 0.369968
vt 0.420757 0.366265
vt 0.424588 0.366794
vt 0.424087 0.364588
vt 0.417774 0.363892
vt 0.414321 0.367038
vt 0.408192 0.379828
vt 0.411856 0.377387
vt 0.417821 0.379432
vt 0.408243 0.383198
vt 0.421109 0.385566
vt 0.414112 0.387215
vt 0.421645 0.379696
vt 0.413090 0.372635
vt 0.418250 0.374572
vt 0.423323 0.375599
vt 0.432057 0.362412
vt 0.424437 0.358932
vt 0.156292 0.072410
vt 0.156212 0.078654
vt 0.150545 0.080463
vt 0.151400 0.073388
vt 0.178603 0.937358
vt 0.184434 0.937544
vt 0.185821 0.946494
vt 0.178514 0.944150
vt 0.400824 0.382937
vt 0.395945 0.384429
vt 0.395801 0.380456
vt 0.399173 0.379901
vt 0.189424 0.941355
vt 0.189070 0.946382
vt 0.160639 0.087469
vt 0.161045 0.078033
vt 0.166536 0.086201
vt 0.163747 0.088869
vt 0.167342 0.096742
vt 0.162345 0.098738
vt 0.158199 0.098860
vt 0.156174 0.089038
vt 0.170439 0.087512
vt 0.173769 0.088798
vt 0.173855 0.094655
vt 0.175861 0.101932
vt 0.172591 0.105034
vt 0.167193 0.107364
vt 0.189436 0.933327
vt 0.197568 0.930987
vt 0.197210 0.932630
vt 0.192127 0.937597
vt 0.207801 0.933142
vt 0.204248 0.937672
vt 0.177822 0.931510
vt 0.182504 0.931236
vt 0.188358 0.929320
vt 0.477686 0.400879
vt 0.484840 0.402936
vt 0.484396 0.412650
vt 0.476493 0.410009
vt 0.473831 0.423631
vt 0.480420 0.428064
vt 0.161185 0.138814
vt 0.172575 0.144839
vt 0.169701 0.148449
vt 0.158728 0.144374
vt 0.486364 0.431484
vt 0.488690 0.415578
vt 0.181074 0.925414
vt 0.189065 0.924792
vt 0.189897 0.920537
vt 0.183837 0.921863
vt 0.470267 0.385814
vt 0.462581 0.382937
vt 0.465718 0.380027
vt 0.470950 0.381381
vt 0.176414 0.927222
vt 0.175418 0.924757
vt 0.177425 0.921716
vt 0.693780 0.992027
vt 0.699257 0.985693
vt 0.703619 0.990636
vt 0.698720 0.994323
vt 0.478049 0.387785
vt 0.479239 0.384007
vt 0.154432 0.119469
vt 0.158028 0.126254
vt 0.151412 0.128465
vt 0.149767 0.123751
vt 0.484676 0.388941
vt 0.490373 0.385369
vt 0.492885 0.387767
vt 0.484987 0.393727
vt 0.162031 0.924263
vt 0.164528 0.927516
vt 0.157898 0.925856
vt 0.158107 0.923257
vt 0.691907 0.987905
vt 0.687062 0.988078
vt 0.687829 0.985312
vt 0.691005 0.984255
vt 0.683370 0.985647
vt 0.686369 0.982857
vt 0.691144 0.980982
vt 0.695196 0.975636
vt 0.690910 0.977094
vt 0.689163 0.974326
vt 0.689614 0.972526
vt 0.685776 0.978908
vt 0.685377 0.975823
vt 0.683233 0.974626
vt 0.680932 0.980471
vt 0.403556 0.383266
vt 0.403792 0.381031
vt 0.405337 0.377392
vt 0.192795 0.946565
vt 0.192704 0.949980
vt 0.191112 0.950765
vt 0.400202 0.385809
vt 0.696177 0.981614
vt 0.700464 0.973824
vt 0.691272 0.970305
vt 0.485022 0.384964
vt 0.482741 0.380622
vt 0.487120 0.381753
vt 0.703116 0.976708
vt 0.157199 0.917591
vt 0.157888 0.920843
vt 0.152077 0.921001
vt 0.151670 0.917015
vt 0.490340 0.382726
vt 0.161180 0.918365
vt 0.162140 0.921517
vt 0.164624 0.919199
vt 0.167316 0.923103
vt 0.167654 0.925989
vt 0.171932 0.924278
vt 0.172584 0.927574
vt 0.172724 0.930856
vt 0.167630 0.929650
vt 0.172262 0.935869
vt 0.166169 0.933697
vt 0.161230 0.930706
vt 0.154720 0.102027
vt 0.157472 0.110513
vt 0.152500 0.112343
vt 0.150968 0.104622
vt 0.160939 0.117949
vt 0.162472 0.108878
vt 0.167082 0.116998
vt 0.171594 0.121935
vt 0.165263 0.124177
vt 0.177390 0.126982
vt 0.169991 0.130768
vt 0.164305 0.134557
vt 0.178752 0.136716
vt 0.175418 0.141195
vt 0.194736 0.141420
vt 0.192242 0.146619
vt 0.189954 0.151703
vt 0.485485 0.453014
vt 0.495693 0.436557
vt 0.496737 0.445511
vt 0.480846 0.446444
vt 0.474895 0.443128
vt 0.469576 0.452925
vt 0.467941 0.439877
vt 0.462039 0.450615
vt 0.464575 0.461396
vt 0.457883 0.459068
vt 0.450720 0.446930
vt 0.445146 0.455339
vt 0.460475 0.469628
vt 0.452594 0.467322
vt 0.439901 0.463537
vt 0.428731 0.445069
vt 0.421884 0.452123
vt 0.446537 0.475874
vt 0.433426 0.469388
vt 0.416115 0.457400
vt 0.414894 0.442354
vt 0.409708 0.449330
vt 0.415197 0.426903
vt 0.420969 0.434802
vt 0.410181 0.435515
vt 0.405053 0.444212
vt 0.404767 0.427104
vt 0.399373 0.435406
vt 0.405436 0.414059
vt 0.410191 0.420166
vt 0.410256 0.406134
vt 0.414987 0.411751
vt 0.420240 0.418053
vt 0.419499 0.403601
vt 0.425745 0.409354
vt 0.435103 0.418020
vt 0.427736 0.426830
vt 0.446091 0.427029
vt 0.436686 0.437778
vt 0.457709 0.434929
vt 0.455299 0.414060
vt 0.465320 0.419053
vt 0.458937 0.401406
vt 0.468908 0.405943
vt 0.460152 0.393177
vt 0.469706 0.397035
vt 0.461321 0.386819
vt 0.469631 0.390192
vt 0.477753 0.393091
vt 0.455138 0.378601
vt 0.451348 0.381610
vt 0.449560 0.387338
vt 0.440872 0.376724
vt 0.437731 0.382195
vt 0.447157 0.395598
vt 0.435068 0.389476
vt 0.428529 0.379954
vt 0.426758 0.386760
vt 0.442901 0.406080
vt 0.431556 0.399508
vt 0.423799 0.394951
vt 0.417878 0.393115
vt 0.414587 0.399151
vt 0.412016 0.392794
vt 0.409425 0.397154
vt 0.407098 0.388283
vt 0.404170 0.394207
vt 0.401314 0.397324
vt 0.396858 0.398238
vt 0.395758 0.402182
vt 0.394983 0.398539
vt 0.401724 0.391068
vt 0.391425 0.406370
vt 0.389369 0.412954
vt 0.389890 0.417497
vt 0.397603 0.391407
vt 0.402724 0.387251
vt 0.395156 0.389021
vt 0.392781 0.396889
vt 0.389514 0.405519
vt 0.388313 0.400673
vt 0.384314 0.407629
vt 0.157785 0.065007
vt 0.160514 0.058603
vt 0.390771 0.393369
vt 0.174212 0.055355
vt 0.167176 0.053488
vt 0.178727 0.061101
vt 0.187654 0.058481
vt 0.199033 0.058405
vt 0.200758 0.063040
vt 0.191119 0.063526
vt 0.204067 0.066265
vt 0.193365 0.066962
vt 0.204651 0.067944
vt 0.195837 0.068386
vt 0.207264 0.070000
vt 0.198497 0.069843
vt 0.189319 0.072041
vt 0.198720 0.071702
vt 0.192840 0.073250
vt 0.186720 0.075808
vt 0.181845 0.076416
vt 0.181989 0.080271
vt 0.178505 0.080786
vt 0.180176 0.087658
vt 0.176817 0.088350
vt 0.180770 0.093867
vt 0.177566 0.094967
vt 0.182058 0.099578
vt 0.179147 0.101327
vt 0.184307 0.105240
vt 0.181967 0.106794
vt 0.179303 0.108465
vt 0.176243 0.111192
vt 0.186713 0.110316
vt 0.184894 0.112337
vt 0.181852 0.114703
vt 0.171874 0.114054
vt 0.177531 0.118717
vt 0.190855 0.114760
vt 0.188553 0.117628
vt 0.183984 0.122567
vt 0.197089 0.120488
vt 0.193275 0.126164
vt 0.185510 0.131450
vt 0.199052 0.117649
vt 0.210016 0.117947
vt 0.201453 0.115171
vt 0.210051 0.114989
vt 0.215866 0.112555
vt 0.217348 0.114011
vt 0.218054 0.108065
vt 0.221061 0.107430
vt 0.224843 0.102806
vt 0.222703 0.100363
vt 0.220725 0.099429
vt 0.223222 0.091476
vt 0.222087 0.090169
vt 0.219013 0.098485
vt 0.220115 0.090979
vt 0.221234 0.083514
vt 0.216767 0.097811
vt 0.217199 0.091096
vt 0.211982 0.097457
vt 0.212080 0.090128
vt 0.205977 0.097175
vt 0.205819 0.090156
vt 0.205133 0.083203
vt 0.202796 0.078263
vt 0.199443 0.090678
vt 0.198187 0.084504
vt 0.196512 0.078828
vt 0.200557 0.074017
vt 0.194548 0.074885
vt 0.208929 0.072095
vt 0.216692 0.074039
vt 0.217400 0.076409
vt 0.221787 0.082583
vt 0.215808 0.071081
vt 0.222433 0.080746
vt 0.224426 0.091604
vt 0.193642 0.090880
vt 0.200247 0.097081
vt 0.188174 0.092160
vt 0.184549 0.092860
vt 0.205413 0.103674
vt 0.199585 0.103880
vt 0.204509 0.108780
vt 0.197809 0.108726
vt 0.189420 0.109006
vt 0.195957 0.111075
vt 0.202655 0.112644
vt 0.193559 0.113257
vt 0.390579 0.385976
vt 0.430664 0.375091
vt 0.431314 0.370003
vt 0.441218 0.372250
vt 0.208637 0.921742
vt 0.197902 0.924038
vt 0.199213 0.919535
vt 0.208572 0.916537
vt 0.190561 0.916531
vt 0.200663 0.914667
vt 0.208100 0.926874
vt 0.197420 0.928158
vt 0.441848 0.481553
vt 0.437203 0.484302
vt 0.450171 0.488677
vt 0.436215 0.487990
vt 0.421128 0.480377
vt 0.434192 0.491613
vt 0.417188 0.483794
vt 0.418973 0.496692
vt 0.406671 0.482406
vt 0.450107 0.491738
vt 0.440968 0.499177
vt 0.497632 0.456317
vt 0.171618 0.940768
vt 0.152039 0.090876
vt 0.680552 0.988443
vt 0.686020 0.992504
vt 0.681968 0.994791
vt 0.677924 0.992128
vt 0.173223 0.919922
vt 0.170146 0.921631
vt 0.677219 0.980331
vt 0.679901 0.971783
vt 0.194204 0.944320
vt 0.407213 0.375521
vt 0.198833 0.941699
vt 0.407559 0.369858
vt 0.408446 0.362017
vt 0.149593 0.138505
vt 0.416982 0.358951
vn 0.7012 0.6048 -0.3776
vn 0.1492 0.9875 -0.0505
vn 0.3840 0.9169 0.1090
vn 0.8972 0.4107 0.1622
vn 0.0178 0.9998 0.0033
vn 0.2182 0.9641 0.1511
vn 0.7425 0.4722 0.4752
vn 0.7877 0.5108 0.3444
vn 0.3252 0.9187 0.2239
vn 0.5596 0.8113 -0.1692
vn 0.7905 0.5883 -0.1701
vn 0.4784 0.7608 -0.4385
vn 0.5444 0.7068 -0.4518
vn 0.2227 0.9627 0.1539
vn 0.4594 0.8768 -0.1418
vn 0.9133 0.3809 0.1440
vn 0.7771 0.3564 0.5187
vn 0.9793 0.0236 0.2013
vn 0.9999 0.0023 0.0110
vn 0.4921 0.0812 0.8667
vn 0.9140 -0.1744 0.3664
vn 0.9759 -0.2179 0.0131
vn 0.7386 0.4759 -0.4775
vn 0.2905 0.9445 -0.1535
vn 0.4882 0.8718 -0.0404
vn 0.9256 0.3760 -0.0433
vn 0.8857 0.3757 0.2726
vn 0.6014 0.7974 -0.0499
vn 0.6069 0.7918 0.0693
vn 0.6387 0.7224 0.2650
vn 0.8605 0.4651 0.2080
vn 0.7655 0.6104 -0.2034
vn 0.5615 0.7958 0.2267
vn 0.9229 0.3508 0.1590
vn 0.4174 0.8640 0.2814
vn 0.5217 0.7781 0.3497
vn 0.4484 0.8240 0.3464
vn 0.3946 0.8422 0.3674
vn 0.7471 0.0400 -0.6635
vn 0.3629 0.1344 -0.9221
vn 0.1662 0.5998 -0.7827
vn 0.4468 0.7562 -0.4780
vn -0.4171 0.3437 -0.8414
vn -0.2016 0.8847 -0.4203
vn -0.0022 0.9917 -0.1289
vn -0.1295 0.1862 0.9739
vn -0.2935 -0.2394 0.9255
vn 0.1774 -0.2587 0.9495
vn 0.5213 -0.6162 0.5903
vn -0.0577 -0.7355 0.6750
vn 0.4198 0.7314 0.5375
vn 0.2658 0.8177 0.5107
vn 0.0011 0.9369 0.3497
vn 0.1077 0.9455 0.3074
vn 0.5021 0.8213 0.2707
vn -0.3049 -0.8015 -0.5144
vn -0.5902 -0.3207 -0.7408
vn -0.2970 -0.3254 -0.8977
vn 0.2140 -0.5515 -0.8063
vn 0.4517 -0.0738 -0.8891
vn -0.3238 -0.0102 -0.9461
vn -0.6241 0.0418 -0.7802
vn 0.2528 0.5534 -0.7936
vn -0.4105 0.2612 -0.8736
vn -0.3433 0.7647 -0.5454
vn 0.0509 0.9720 -0.2295
vn 0.0086 1.0000 0.0006
vn -0.4823 0.7857 -0.3874
vn -0.7647 0.0719 -0.6403
vn 0.5404 0.2166 -0.8130
vn -0.1231 0.2120 -0.9695
vn -0.0785 0.4698 -0.8793
vn 0.4082 0.6049 -0.6837
vn -0.6034 0.2079 -0.7698
vn -0.2771 0.6157 -0.7377
vn 0.2442 0.8453 -0.4753
vn 0.0268 0.9996 0.0122
vn -0.2939 0.8694 0.3973
vn -0.0170 0.8044 0.5938
vn 0.1401 0.9369 0.3204
vn -0.5955 0.2600 0.7601
vn -0.2579 0.2803 0.9246
vn 0.2286 0.4995 0.8356
vn 0.2215 0.6961 -0.6830
vn -0.3389 0.3776 -0.8617
vn -0.5990 0.0163 -0.8006
vn -0.5822 0.1380 -0.8013
vn -0.6912 0.1032 -0.7153
vn -0.6729 0.1961 -0.7133
vn -0.0393 0.4616 -0.8862
vn -0.5595 0.2088 -0.8021
vn -0.7035 0.1342 -0.6980
vn -0.0018 1.0000 0.0058
vn -0.2418 0.9556 -0.1686
vn -0.6038 0.7971 0.0042
vn -0.3210 0.8858 0.3351
vn -0.7908 0.3561 -0.4978
vn -0.9492 0.2539 0.1859
vn -0.6880 0.2566 0.6788
vn 0.7220 0.1965 0.6634
vn 0.1281 0.1465 0.9809
vn -0.2462 0.4424 0.8624
vn 0.4442 0.7459 0.4963
vn 0.1011 0.9540 0.2823
vn -0.3633 0.6822 0.6345
vn -0.5366 -0.0185 0.8436
vn -0.6557 -0.0275 0.7545
vn -0.6648 0.1425 0.7333
vn -0.6752 0.1287 0.7263
vn -0.7775 0.0636 0.6257
vn -0.6311 0.1311 0.7646
vn -0.2791 0.6039 0.7466
vn -0.6103 0.4151 0.6747
vn -0.5666 0.3534 0.7444
vn -0.2196 0.4421 0.8697
vn 0.5558 -0.6657 0.4979
vn 0.6638 0.4347 0.6086
vn 0.2391 0.3104 0.9200
vn 0.0550 -0.6219 0.7812
vn -0.5458 -0.2955 0.7841
vn -0.3303 0.6334 0.6998
vn 0.1074 0.9558 0.2735
vn -0.6135 0.2521 0.7484
vn -0.0842 0.8793 0.4689
vn 0.0068 0.1661 0.9861
vn -0.5096 0.0553 0.8586
vn -0.1549 -0.8626 0.4816
vn -0.0598 -0.5030 0.8622
vn 0.1418 -0.6972 0.7027
vn 0.2471 0.9574 0.1493
vn 0.7345 0.4975 0.4616
vn 0.6860 -0.5873 0.4295
vn -0.4891 -0.7789 0.3926
vn -0.7455 -0.3230 0.5829
vn -0.4064 0.8301 0.3818
vn -0.3483 0.8447 0.4064
vn -0.4257 0.6700 0.6082
vn -0.5042 0.7817 0.3670
vn -0.5756 0.2806 0.7681
vn -0.4936 0.6531 0.5743
vn -0.2811 0.7649 0.5796
vn -0.7171 0.3421 0.6073
vn -0.5166 0.4637 0.7198
vn -0.1447 0.8473 0.5110
vn -0.5942 0.5866 0.5504
vn -0.6003 0.5094 0.6166
vn -0.7040 0.0103 0.7101
vn -0.5317 0.2297 0.8152
vn -0.5006 0.0789 0.8621
vn -0.3882 0.5579 0.7335
vn -0.2147 0.9180 0.3334
vn -0.2104 0.9086 0.3608
vn -0.6403 -0.0698 0.7650
vn -0.6493 -0.0797 0.7563
vn -0.6545 -0.0057 0.7560
vn -0.7504 0.0025 0.6609
vn -0.7081 0.1620 0.6873
vn -0.6348 0.3176 0.7043
vn -0.6525 0.7562 -0.0490
vn -0.8613 0.4434 0.2480
vn -0.2962 0.9293 0.2207
vn -0.0762 0.9790 0.1893
vn -0.6542 0.4567 0.6029
vn -0.1335 0.9632 0.2333
vn -0.6570 -0.0051 0.7539
vn -0.9025 0.2049 0.3789
vn -0.9692 0.1810 -0.1672
vn -0.0502 -0.9958 -0.0763
vn -0.4950 -0.7709 -0.4008
vn -0.3884 -0.8461 -0.3651
vn -0.0165 -0.9991 -0.0385
vn 0.0034 -0.9998 -0.0213
vn -0.2192 -0.9345 -0.2804
vn -0.7649 -0.2408 -0.5974
vn -0.6838 -0.3812 -0.6222
vn -0.5664 -0.5504 -0.6135
vn -0.6903 -0.1154 0.7142
vn -0.9521 -0.3059 -0.0062
vn -0.5374 -0.8425 0.0380
vn -0.4828 -0.7806 0.3968
vn -0.0991 -0.8941 0.4367
vn 0.3881 -0.5807 0.7156
vn -0.2548 0.3634 0.8961
vn 0.5205 0.5238 0.6743
vn 0.7667 0.2395 0.5957
vn 0.6275 -0.7059 0.3287
vn -0.0865 -0.9904 0.1074
vn 0.1244 -0.9919 0.0259
vn -0.8461 0.4366 0.3058
vn -0.9422 0.1922 -0.2746
vn -0.9656 0.1196 -0.2310
vn -0.8063 0.4194 0.4172
vn -0.6152 -0.6681 -0.4186
vn -0.8565 0.3293 -0.3975
vn -0.6141 -0.7049 -0.3550
vn -0.5323 0.8416 0.0917
vn 0.6028 0.0711 0.7947
vn 0.1079 0.8527 0.5111
vn -0.2013 0.5907 0.7814
vn 0.1028 -0.0970 0.9900
vn -0.4037 0.8886 0.2176
vn -0.6662 0.4038 0.6270
vn -0.2640 -0.5080 0.8199
vn 0.0213 -0.9885 0.1495
vn -0.4720 -0.6711 0.5717
vn -0.6327 -0.7499 0.1931
vn -0.4592 -0.8476 -0.2658
vn -0.8211 0.2128 0.5297
vn -0.9764 -0.1197 0.1798
vn -0.9612 0.1111 -0.2524
vn -0.6678 0.7353 0.1154
vn -0.6638 0.1023 0.7409
vn -0.7215 0.0109 0.6924
vn -0.5381 0.4289 0.7256
vn -0.5264 0.5874 0.6147
vn 0.3540 -0.8024 0.4804
vn 0.1897 -0.9805 -0.0516
vn -0.4353 -0.7933 -0.4257
vn -0.4844 -0.7463 -0.4564
vn -0.8563 0.2430 -0.4557
vn -0.7987 0.2828 -0.5311
vn -0.5003 0.8616 -0.0860
vn -0.3911 0.9059 -0.1625
vn -0.1730 0.9827 0.0657
vn -0.0585 0.9981 0.0180
vn -0.3456 0.8423 0.4136
vn 0.2550 0.9394 0.2291
vn -0.2736 0.6509 0.7082
vn -0.6360 0.0747 0.7680
vn -0.6662 0.2349 0.7079
vn -0.6198 0.3533 0.7007
vn -0.7028 0.4099 0.5814
vn -0.3343 0.8485 0.4103
vn -0.4050 0.8635 0.3004
vn -0.6599 0.7363 0.1497
vn -0.3851 0.8029 0.4551
vn -0.7782 0.5579 0.2883
vn -0.8999 0.2673 -0.3447
vn -0.8666 0.3355 -0.3695
vn -0.7798 0.0883 -0.6197
vn -0.7628 0.0356 -0.6456
vn -0.7744 -0.0684 -0.6289
vn -0.7695 -0.0157 -0.6385
vn -0.7476 -0.1318 -0.6509
vn -0.7151 -0.0303 -0.6984
vn -0.6954 -0.1996 -0.6903
vn -0.5985 -0.2510 -0.7608
vn -0.4341 -0.6991 -0.5682
vn -0.1211 -0.9716 -0.2032
vn 0.0051 -0.9795 -0.2013
vn 0.0295 -0.9991 -0.0290
vn 0.1138 -0.9904 -0.0791
vn 0.4903 -0.6980 -0.5219
vn 0.5405 -0.7325 -0.4139
vn 0.1521 -0.9865 -0.0598
vn 0.5745 -0.7512 -0.3250
vn 0.7421 -0.1279 -0.6580
vn 0.7650 -0.1693 -0.6214
vn 0.8068 -0.2804 -0.5200
vn 0.6258 -0.7776 -0.0606
vn 0.9133 -0.3992 -0.0812
vn 0.7571 0.0170 -0.6530
vn 0.8230 -0.0450 -0.5662
vn 0.9892 -0.1161 -0.0900
vn 0.8976 -0.3817 0.2206
vn 0.9402 -0.0812 0.3307
vn 0.6541 -0.7547 0.0508
vn 0.6374 -0.7634 0.1047
vn 0.9438 -0.2825 0.1716
vn 0.9641 -0.0026 0.2654
vn 0.9728 -0.2307 0.0229
vn 0.9959 0.0018 0.0901
vn 0.6752 -0.7318 0.0927
vn 0.6635 -0.7461 -0.0553
vn 0.1371 -0.9784 0.1547
vn 0.1657 -0.9847 -0.0539
vn 0.1958 -0.9806 -0.0109
vn 0.0529 -0.9983 -0.0238
vn 0.0601 -0.9981 -0.0097
vn 0.0369 -0.9993 -0.0066
vn 0.2151 -0.9761 0.0307
vn 0.0302 -0.9994 -0.0164
vn 0.1967 -0.9799 -0.0338
vn 0.0459 -0.9989 -0.0042
vn 0.0346 -0.9994 -0.0058
vn 0.0289 -0.9996 0.0032
vn 0.0367 -0.9993 -0.0066
vn 0.0291 -0.9994 -0.0198
vn 0.0195 -0.9994 0.0296
vn 0.0278 -0.9995 -0.0124
vn -0.1306 -0.9798 0.1517
vn -0.0741 -0.9861 0.1487
vn -0.1336 -0.9910 0.0125
vn -0.0696 -0.9970 0.0334
vn -0.0025 -0.9986 0.0524
vn 0.0644 -0.9958 -0.0655
vn 0.0084 -0.9994 0.0329
vn 0.0026 -0.9999 0.0107
vn -0.0570 -0.9968 0.0552
vn 0.0669 -0.9724 0.2236
vn -0.1195 -0.9724 0.2004
vn 0.0288 -0.9993 -0.0229
vn 0.0410 -0.9990 -0.0154
vn 0.0537 -0.9985 0.0042
vn 0.1277 -0.9708 0.2029
vn 0.0727 -0.9823 0.1725
vn 0.3517 -0.6719 0.6519
vn 0.1183 -0.7011 0.7031
vn 0.0784 -0.0826 0.9935
vn 0.4551 -0.1695 0.8742
vn -0.0450 -0.1954 0.9797
vn 0.3222 0.0932 0.9421
vn -0.1875 0.0991 0.9773
vn 0.1346 0.6690 0.7310
vn 0.2081 0.2386 0.9486
vn 0.0437 0.6420 0.7655
vn -0.0672 0.7112 0.6998
vn 0.2909 0.6910 0.6617
vn -0.2056 0.7062 0.6774
vn -0.3971 0.2694 0.8773
vn -0.2653 0.9133 0.3090
vn -0.0980 0.9319 0.3492
vn -0.0029 0.9225 0.3861
vn -0.1735 0.8015 0.5723
vn 0.1034 0.7716 0.6277
vn -0.3464 0.8137 0.4668
vn 0.2386 0.6048 0.7598
vn 0.1228 0.8776 0.4635
vn 0.2214 0.9382 0.2660
vn 0.2033 0.9600 0.1928
vn 0.2056 0.9602 0.1890
vn 0.1766 0.9682 0.1775
vn 0.5844 0.6890 0.4287
vn 0.5105 0.7705 0.3818
vn 0.8427 0.0877 0.5312
vn 0.8121 0.1633 0.5602
vn 0.8538 -0.0643 0.5166
vn 0.8177 -0.0688 0.5715
vn 0.7210 -0.0011 0.6929
vn 0.8185 -0.0336 0.5735
vn 0.6740 0.0510 0.7369
vn 0.2467 0.1429 0.9585
vn 0.2227 0.0987 0.9699
vn -0.3688 0.0644 0.9273
vn -0.4527 0.0535 0.8901
vn -0.6268 -0.0349 0.7784
vn -0.6567 -0.0540 0.7522
vn -0.6915 -0.0698 0.7190
vn -0.7015 -0.0948 0.7063
vn -0.7311 -0.0831 0.6772
vn -0.7360 -0.1125 0.6675
vn -0.9674 -0.0972 0.2339
vn -0.9592 -0.1129 0.2590
vn -0.9635 -0.0246 0.2664
vn -0.9259 0.2335 0.2969
vn -0.9110 -0.0552 -0.4087
vn -0.9298 0.0001 -0.3679
vn -0.9195 0.2288 -0.3196
vn -0.8798 0.3321 0.3401
vn -0.9035 0.3015 -0.3046
vn -0.7913 0.0328 -0.6106
vn -0.7808 0.2123 -0.5876
vn -0.7786 0.2201 -0.5876
vn -0.7470 0.1767 -0.6409
vn -0.7340 0.2054 -0.6474
vn -0.7675 0.0783 -0.6363
vn -0.7724 0.0318 -0.6344
vn -0.7340 0.0154 -0.6790
vn -0.7708 -0.0241 -0.6367
vn -0.7448 -0.0351 -0.6664
vn -0.4548 0.0042 -0.8906
vn -0.4782 0.0753 -0.8750
vn 0.2501 0.1211 -0.9606
vn 0.1878 0.1741 -0.9667
vn 0.4908 0.4941 -0.7177
vn 0.5735 0.1771 -0.7998
vn 0.5914 0.2249 -0.7743
vn 0.6611 0.1904 -0.7257
vn 0.6467 0.2559 -0.7185
vn 0.3688 0.7895 -0.4905
vn 0.4101 0.8030 -0.4324
vn 0.8889 0.1460 -0.4342
vn 0.0378 0.9974 -0.0611
vn 0.0534 0.9981 -0.0296
vn 0.0097 1.0000 -0.0014
vn 0.0122 0.9999 -0.0008
vn 0.0040 1.0000 0.0041
vn 0.0053 1.0000 0.0065
vn 0.0104 0.9998 0.0171
vn 0.1275 0.9867 0.1013
vn 0.0056 1.0000 0.0075
vn 0.0155 0.9996 0.0255
vn 0.0893 0.9848 0.1487
vn 0.6588 0.5931 0.4629
vn 0.5213 0.5940 0.6127
vn 0.8582 -0.0389 0.5118
vn 0.9702 0.0393 0.2393
vn 0.9829 -0.0023 0.1842
vn 0.9102 0.1706 -0.3774
vn 0.9524 0.0858 0.2926
vn 0.9180 0.2338 -0.3202
vn 0.6413 0.3747 -0.6696
vn 0.0061 1.0000 0.0068
vn 0.0039 1.0000 0.0050
vn -0.2930 0.9009 0.3201
vn -0.6536 0.3003 0.6948
vn -0.0328 0.9995 -0.0028
vn -0.1139 0.9921 -0.0526
vn -0.5010 0.7713 -0.3925
vn -0.6340 0.6030 -0.4842
vn -0.8948 -0.0604 -0.4424
vn -0.7777 0.0017 -0.6286
vn -0.7618 0.0696 -0.6441
vn -0.7852 -0.0244 -0.6187
vn 0.2827 -0.9572 0.0619
vn 0.0065 -0.9888 0.1492
vn -0.3263 -0.9451 0.0166
vn -0.7942 -0.5865 0.1591
vn -0.9540 -0.2354 0.1854
vn 0.5994 0.6205 -0.5056
vn 0.1323 0.9838 -0.1208
vn 0.3909 0.7551 -0.5263
vn 0.4937 0.6868 -0.5334
vn 0.4548 0.8075 -0.3757
vn 0.6878 0.4107 -0.5985
vn 0.6765 0.5149 -0.5265
vn 0.7029 0.2664 -0.6595
vn 0.2640 0.9163 0.3012
vn -0.1124 0.9171 0.3824
vn 0.0527 0.9920 0.1145
f 1/1/1 2/2/2 3/3/3 4/4/4
f 5/5/5 6/6/6 3/3/3 2/2/2
f 7/7/7 4/4/4 3/3/3 6/6/6
f 8/8/8 9/9/9 10/10/10 11/11/11
f 12/12/12 11/11/11 10/10/10 13/13/13
f 14/14/14 15/15/15 10/10/10 9/9/9
f 16/16/16 17/17/17 18/18/18 19/19/19
f 20/20/20 21/21/21 18/18/18 17/17/17
f 22/22/22 19/19/19 18/18/18 21/21/21
f 23/23/23 24/24/24 25/25/25 26/26/26
f 27/27/27 26/26/26 25/25/25 28/28/28
f 29/29/29 30/30/30 31/31/31 32/32/32
f 28/28/28 32/32/32 31/31/31 27/27/27
f 33/33/33 34/34/34 31/31/31 30/30/30
f 29/35/29 35/36/35 36/37/36 30/38/30
f 37/39/37 38/40/38 36/37/36 35/36/35
f 33/33/33 30/30/30 36/41/36 38/42/38
f 39/43/39 40/44/40 41/45/41 42/46/42
f 43/47/43 44/48/44 41/45/41 40/44/40
f 45/49/45 42/46/42 41/45/41 44/48/44
f 46/50/46 47/51/47 48/52/48 20/20/20
f 21/21/21 20/20/20 48/52/48 49/53/49
f 50/54/50 49/53/49 48/52/48 47/51/47
f 51/55/51 52/56/52 38/40/38 37/39/37
f 53/57/53 54/58/54 38/42/38 52/59/52
f 55/60/55 33/33/33 38/42/38 54/58/54
f 56/61/56 57/62/57 58/63/58 59/64/59
f 60/65/60 59/64/59 58/63/58 61/66/61
f 62/67/62 61/66/61 58/63/58 57/62/57
f 63/68/63 64/69/64 65/70/65 66/71/66
f 67/72/67 66/71/66 65/70/65 68/73/68
f 69/74/69 68/73/68 65/70/65 64/69/64
f 70/75/70 71/76/71 72/77/72 73/78/73
f 74/79/74 75/80/75 72/81/72 71/82/71
f 76/83/76 73/84/73 72/81/72 75/80/75
f 77/85/77 78/86/78 79/87/79 80/88/80
f 81/89/81 82/90/82 79/87/79 78/86/78
f 83/91/83 80/88/80 79/87/79 82/90/82
f 70/75/70 84/92/84 85/93/85 71/76/71
f 44/48/44 43/47/43 85/93/85 84/92/84
f 86/94/86 87/95/87 85/93/85 62/67/62
f 74/79/74 71/82/71 85/96/85 87/97/87
f 88/98/88 89/99/89 74/79/74 87/97/87
f 90/100/90 75/80/75 74/79/74 91/101/91
f 92/102/92 91/101/91 74/79/74 89/99/89
f 93/103/93 94/104/94 95/105/95 96/106/96
f 97/107/97 98/108/98 95/105/95 94/104/94
f 99/109/99 96/106/96 95/105/95 98/108/98
f 100/110/100 101/111/101 102/112/102 103/113/103
f 104/114/104 103/113/103 102/112/102 105/115/105
f 106/116/106 107/117/107 102/112/102 101/111/101
f 108/118/108 105/115/105 102/112/102 109/119/109
f 110/120/110 109/119/109 102/112/102 107/117/107
f 105/115/105 108/118/108 111/121/111 112/122/112
f 113/123/113 114/124/114 111/121/111 108/118/108
f 115/125/115 112/122/112 111/121/111 114/124/114
f 116/126/116 117/127/117 118/128/118 119/129/119
f 120/130/120 119/129/119 118/128/118 121/131/121
f 122/132/122 121/131/121 118/128/118 117/127/117
f 123/133/123 124/134/124 125/135/125 126/136/126
f 127/137/127 128/138/128 125/135/125 129/139/129
f 130/140/130 131/141/131 125/135/125 124/134/124
f 132/142/132 129/139/129 125/135/125 131/141/131
f 133/143/133 119/129/119 120/130/120 134/144/134
f 135/145/135 136/146/136 137/147/137 138/148/138
f 139/149/139 140/150/140 137/151/137 141/152/141
f 142/153/142 138/154/138 137/155/137 143/156/143
f 144/157/144 143/158/143 137/151/137 140/150/140
f 109/119/109 110/120/110 145/159/145 146/160/146
f 147/161/147 148/162/148 145/159/145 110/120/110
f 149/163/149 150/164/150 145/159/145 148/162/148
f 151/165/151 152/166/152 145/159/145 150/164/150
f 136/146/136 146/160/146 145/159/145 152/166/152
f 149/163/149 148/162/148 147/161/147 153/167/153
f 107/117/107 153/167/153 147/161/147 110/120/110
f 154/168/154 155/169/155 149/163/149 153/167/153
f 156/170/156 157/171/157 149/163/149 155/169/155
f 158/172/158 150/164/150 149/163/149 157/171/157
f 159/173/159 160/174/160 161/175/161 162/176/162
f 163/177/163 164/178/164 161/175/161 160/174/160
f 162/176/162 144/157/144 140/150/140 159/173/159
f 165/179/165 166/180/166 140/150/140 139/149/139
f 167/181/167 159/173/159 140/150/140 166/180/166
f 168/182/168 169/183/169 170/184/170 171/185/171
f 172/186/172 171/185/171 170/184/170 173/187/173
f 174/188/174 175/189/175 170/190/170 169/191/169
f 176/192/176 173/187/173 170/184/170 175/193/175
f 167/181/167 166/180/166 177/194/177 178/195/178
f 179/196/179 178/195/178 177/194/177 180/197/180
f 181/198/181 180/199/180 177/200/177 182/201/182
f 165/179/165 183/202/183 177/194/177 166/180/166
f 184/203/184 182/204/182 177/194/177 183/202/183
f 185/205/185 186/206/186 182/207/182 184/208/184
f 187/209/187 181/198/181 182/201/182 188/210/188
f 189/211/189 190/212/190 191/213/191 192/214/192
f 193/215/193 194/216/194 191/217/191 195/218/195
f 196/219/196 192/220/192 191/221/191 194/222/194
f 197/223/197 198/224/198 199/225/199 200/226/200
f 201/227/201 202/228/202 199/225/199 198/224/198
f 203/229/203 200/226/200 199/225/199 202/228/202
f 204/230/204 205/231/205 206/232/206 207/233/207
f 208/234/208 209/235/209 206/232/206 205/231/205
f 210/236/210 207/233/207 206/232/206 209/235/209
f 211/237/211 210/236/210 209/235/209 208/234/208
f 123/133/123 212/238/212 213/239/213 214/240/214
f 143/158/143 214/241/214 213/242/213 142/243/142
f 215/244/215 142/153/142 213/239/213 212/238/212
f 216/245/216 197/223/197 200/226/200 203/229/203
f 205/231/205 204/230/204 216/245/216 203/229/203
f 217/246/217 186/206/186 216/245/216 204/230/204
f 185/205/185 197/223/197 216/245/216 186/206/186
f 207/233/207 218/247/218 217/246/217 204/230/204
f 219/248/219 188/210/188 217/249/217 218/250/218
f 182/207/182 186/206/186 217/246/217 188/251/188
f 220/252/220 221/253/221 219/254/219 218/255/218
f 194/216/194 193/215/193 219/248/219 221/256/221
f 187/209/187 188/210/188 219/248/219 193/215/193
f 222/257/222 223/258/223 221/253/221 220/252/220
f 196/219/196 194/222/194 221/253/221 223/258/223
f 224/259/224 225/260/225 223/258/223 222/257/222
f 226/261/226 196/219/196 223/258/223 225/260/225
f 227/262/227 228/263/228 226/261/226 225/260/225
f 229/264/229 230/265/230 226/261/226 228/263/228
f 192/220/192 196/219/196 226/261/226 230/265/230
f 231/266/231 232/267/232 230/265/230 229/264/229
f 189/268/189 192/220/192 230/265/230 232/267/232
f 233/269/233 234/270/234 232/271/232 231/272/231
f 235/273/235 189/211/189 232/271/232 234/270/234
f 236/274/236 237/275/237 235/273/235 234/270/234
f 238/276/238 239/277/239 235/273/235 237/275/237
f 190/212/190 189/211/189 235/273/235 239/277/239
f 240/278/240 241/279/241 239/277/239 238/276/238
f 242/280/242 190/212/190 239/277/239 241/279/241
f 191/213/191 190/212/190 242/280/242 174/188/174
f 243/281/243 244/282/244 242/280/242 241/279/241
f 175/189/175 174/188/174 242/280/242 244/282/244
f 245/283/245 246/284/246 244/282/244 243/281/243
f 176/285/176 175/189/175 244/282/244 246/284/246
f 86/94/86 247/286/247 246/287/246 245/288/245
f 248/289/248 176/192/176 246/287/246 247/286/247
f 173/187/173 176/192/176 248/289/248 249/290/249
f 57/62/57 56/61/56 248/289/248 247/286/247
f 250/291/250 249/290/249 248/289/248 56/61/56
f 251/292/251 249/290/249 250/291/250 252/293/252
f 59/64/59 253/294/253 250/291/250 56/61/56
f 254/295/254 252/293/252 250/291/250 253/294/253
f 255/296/255 252/293/252 254/295/254 256/297/256
f 257/298/257 258/299/258 254/295/254 253/294/253
f 259/300/259 256/297/256 254/295/254 258/299/258
f 260/301/260 256/297/256 259/300/259 261/302/261
f 262/303/262 263/304/263 259/300/259 258/299/258
f 264/305/264 261/302/261 259/300/259 263/304/263
f 265/306/265 261/302/261 264/305/264 266/307/266
f 23/23/23 26/26/26 264/305/264 263/304/263
f 27/27/27 266/307/266 264/305/264 26/26/26
f 267/308/267 268/309/268 265/306/265 269/310/269
f 260/301/260 261/302/261 265/306/265 268/309/268
f 270/311/270 269/310/269 265/306/265 266/307/266
f 271/312/271 269/310/269 270/311/270 272/313/272
f 27/27/27 31/31/31 270/311/270 266/307/266
f 34/34/34 272/313/272 270/311/270 31/31/31
f 273/314/273 274/315/274 271/312/271 22/22/22
f 267/308/267 269/310/269 271/312/271 274/315/274
f 19/19/19 22/22/22 271/312/271 272/313/272
f 275/316/275 276/317/276 274/315/274 273/314/273
f 277/318/277 267/308/267 274/315/274 276/317/276
f 278/319/278 279/320/279 277/318/277 276/317/276
f 280/321/280 281/322/281 277/318/277 279/320/279
f 268/309/268 267/308/267 277/318/277 281/322/281
f 282/323/282 283/324/283 281/322/281 280/321/280
f 260/301/260 268/309/268 281/322/281 283/324/283
f 284/325/284 255/296/255 283/324/283 282/323/282
f 256/297/256 260/301/260 283/324/283 255/296/255
f 285/326/285 286/327/286 284/325/284 282/323/282
f 172/186/172 251/292/251 284/325/284 286/327/286
f 252/293/252 255/296/255 284/325/284 251/292/251
f 287/328/287 288/329/288 286/327/286 285/326/285
f 171/185/171 172/186/172 286/327/286 288/329/288
f 289/330/289 290/331/290 288/329/288 287/328/287
f 168/182/168 171/185/171 288/329/288 290/331/290
f 291/332/291 292/333/292 290/331/290 289/330/289
f 293/334/293 168/182/168 290/331/290 292/333/292
f 181/198/181 187/209/187 293/334/293 292/333/292
f 193/215/193 195/218/195 293/334/293 187/209/187
f 169/183/169 168/182/168 293/334/293 195/218/195
f 180/199/180 181/198/181 292/333/292 291/332/291
f 179/335/179 180/199/180 291/332/291 294/336/294
f 295/337/295 294/336/294 291/332/291 289/330/289
f 296/338/296 294/336/294 295/337/295 297/339/297
f 287/328/287 298/340/298 295/337/295 289/330/289
f 299/341/299 297/339/297 295/337/295 298/340/298
f 300/342/300 297/339/297 299/341/299 301/343/301
f 302/344/302 303/345/303 299/341/299 298/340/298
f 304/346/304 301/343/301 299/341/299 303/345/303
f 127/137/127 301/343/301 304/346/304 305/347/305
f 279/320/279 278/319/278 304/346/304 303/345/303
f 306/348/306 305/347/305 304/346/304 278/319/278
f 307/349/307 305/347/305 306/348/306 308/350/308
f 276/317/276 275/316/275 306/348/306 278/319/278
f 50/54/50 308/350/308 306/348/306 275/316/275
f 309/351/309 128/138/128 307/349/307 310/352/310
f 127/137/127 305/347/305 307/349/307 128/138/128
f 311/353/311 310/352/310 307/349/307 308/350/308
f 312/354/312 310/352/310 311/353/311 313/355/313
f 50/54/50 47/51/47 311/353/311 308/350/308
f 46/50/46 313/355/313 311/353/311 47/51/47
f 314/356/314 315/357/315 312/354/312 316/358/316
f 309/351/309 310/352/310 312/354/312 315/357/315
f 317/359/317 316/358/316 312/354/312 313/355/313
f 53/57/53 316/358/316 317/359/317 54/58/54
f 46/50/46 318/360/318 317/359/317 313/355/313
f 55/60/55 54/58/54 317/359/317 318/360/318
f 20/20/20 17/17/17 318/360/318 46/50/46
f 16/16/16 55/60/55 318/360/318 17/17/17
f 319/361/319 320/362/320 315/357/315 314/356/314
f 126/136/126 309/351/309 315/357/315 320/362/320
f 215/244/215 212/238/212 320/362/320 319/361/319
f 123/133/123 126/136/126 320/362/320 212/238/212
f 321/363/321 215/244/215 319/361/319 322/364/322
f 323/365/323 322/364/322 319/361/319 314/356/314
f 324/366/324 322/364/322 323/365/323 325/367/325
f 316/358/316 53/57/53 323/365/323 314/356/314
f 52/59/52 325/367/325 323/365/323 53/57/53
f 114/124/114 326/368/326 324/369/324 115/125/115
f 321/363/321 322/364/322 324/366/324 326/370/326
f 327/371/327 115/125/115 324/369/324 325/372/325
f 112/122/112 115/125/115 327/371/327 328/373/328
f 52/56/52 51/55/51 327/371/327 325/372/325
f 329/374/329 328/373/328 327/371/327 51/55/51
f 37/39/37 330/375/330 329/374/329 51/55/51
f 331/376/331 332/377/332 329/374/329 330/375/330
f 104/114/104 328/373/328 329/374/329 332/377/332
f 333/378/333 334/379/334 332/377/332 331/376/331
f 103/113/103 104/114/104 332/377/332 334/379/334
f 335/380/335 336/381/336 334/379/334 333/378/333
f 100/110/100 103/113/103 334/379/334 336/381/336
f 337/382/337 338/383/338 336/381/336 335/380/335
f 339/384/339 100/110/100 336/381/336 338/383/338
f 340/385/340 341/386/341 339/384/339 338/383/338
f 342/387/342 343/388/343 339/384/339 341/386/341
f 101/111/101 100/110/100 339/384/339 343/388/343
f 344/389/344 345/390/345 343/388/343 342/387/342
f 106/116/106 101/111/101 343/388/343 345/390/345
f 346/391/346 347/392/347 345/390/345 344/389/344
f 154/168/154 106/116/106 345/390/345 347/392/347
f 348/393/348 349/394/349 347/392/347 346/391/346
f 155/169/155 154/168/154 347/392/347 349/394/349
f 350/395/350 351/396/351 349/394/349 348/393/348
f 156/170/156 155/169/155 349/394/349 351/396/351
f 352/397/352 353/398/353 351/396/351 350/395/350
f 354/399/354 156/170/156 351/396/351 353/398/353
f 157/171/157 156/170/156 354/399/354 355/400/355
f 356/401/356 357/402/357 354/399/354 353/398/353
f 358/403/358 355/400/355 354/399/354 357/402/357
f 359/404/359 355/400/355 358/403/358 360/405/360
f 361/406/361 362/407/362 358/403/358 357/402/357
f 363/408/363 360/405/360 358/403/358 362/407/362
f 238/276/238 360/405/360 363/408/363 240/278/240
f 364/409/364 365/410/365 363/408/363 362/407/362
f 366/411/366 240/278/240 363/408/363 365/410/365
f 241/279/241 240/278/240 366/411/366 243/281/243
f 89/99/89 88/98/88 366/411/366 365/410/365
f 245/283/245 243/281/243 366/411/366 88/98/88
f 92/102/92 89/99/89 365/410/365 364/409/364
f 361/406/361 367/412/367 364/409/364 362/407/362
f 368/413/368 92/102/92 364/409/364 367/412/367
f 369/414/369 370/415/370 368/413/368 367/412/367
f 371/416/371 372/417/372 368/413/368 370/415/370
f 91/101/91 92/102/92 368/413/368 372/417/372
f 373/418/373 374/419/374 372/417/372 371/416/371
f 90/100/90 91/101/91 372/417/372 374/419/374
f 375/420/375 90/100/90 374/419/374 376/421/376
f 377/422/377 376/421/376 374/419/374 373/418/373
f 378/423/378 376/421/376 377/422/377 379/424/379
f 63/68/63 380/425/380 377/422/377 373/418/373
f 381/426/381 379/424/379 377/422/377 380/425/380
f 382/427/382 379/424/379 381/426/381 1/1/1
f 383/428/383 384/429/384 381/426/381 380/425/380
f 2/2/2 1/1/1 381/426/381 384/429/384
f 385/430/385 386/431/386 384/429/384 383/428/383
f 5/5/5 2/2/2 384/429/384 386/431/386
f 387/432/387 388/433/388 386/431/386 385/430/385
f 389/434/389 5/5/5 386/431/386 388/433/388
f 6/6/6 5/5/5 389/434/389 390/435/390
f 391/436/391 392/437/392 389/434/389 388/433/388
f 393/438/393 390/435/390 389/434/389 392/437/392
f 394/439/394 390/435/390 393/438/393 395/440/395
f 77/85/77 80/88/80 393/438/393 392/437/392
f 83/91/83 395/440/395 393/438/393 80/88/80
f 396/441/396 7/7/7 394/439/394 340/385/340
f 6/6/6 390/435/390 394/439/394 7/7/7
f 341/386/341 340/385/340 394/439/394 395/440/395
f 397/442/397 398/443/398 396/441/396 337/382/337
f 4/4/4 7/7/7 396/441/396 398/443/398
f 338/383/338 337/382/337 396/441/396 340/385/340
f 399/444/399 382/427/382 398/443/398 397/442/397
f 1/1/1 4/4/4 398/443/398 382/427/382
f 400/445/400 401/446/401 399/444/399 397/442/397
f 402/447/402 378/423/378 399/444/399 401/446/401
f 379/424/379 382/427/382 399/444/399 378/423/378
f 11/11/11 12/12/12 402/447/402 401/446/401
f 76/83/76 375/420/375 402/447/402 12/12/12
f 376/421/376 378/423/378 402/447/402 375/420/375
f 8/8/8 11/11/11 401/446/401 400/445/400
f 337/382/337 335/380/335 400/445/400 397/442/397
f 333/378/333 8/8/8 400/445/400 335/380/335
f 342/387/342 341/386/341 395/440/395 83/91/83
f 403/448/403 77/85/77 392/437/392 391/436/391
f 404/449/404 93/103/93 403/448/403 391/436/391
f 96/106/96 405/450/405 403/448/403 93/103/93
f 78/86/78 77/85/77 403/448/403 405/450/405
f 99/109/99 406/451/406 405/450/405 96/106/96
f 81/89/81 78/86/78 405/450/405 406/451/406
f 346/391/346 81/89/81 406/451/406 348/393/348
f 350/395/350 348/393/348 406/451/406 99/109/99
f 388/433/388 387/432/387 404/449/404 391/436/391
f 407/452/407 408/453/408 404/449/404 387/432/387
f 94/104/94 93/103/93 404/449/404 408/453/408
f 409/454/409 410/455/410 408/453/408 407/452/407
f 97/107/97 94/104/94 408/453/408 410/455/410
f 411/456/411 97/107/97 410/455/410 412/457/412
f 413/458/413 412/457/412 410/455/410 409/454/409
f 414/459/414 412/457/412 413/458/413 369/414/369
f 68/73/68 69/74/69 413/458/413 409/454/409
f 370/415/370 369/414/369 413/458/413 69/74/69
f 357/402/357 356/401/356 414/459/414 361/406/361
f 411/456/411 412/457/412 414/459/414 356/401/356
f 367/412/367 361/406/361 414/459/414 369/414/369
f 353/398/353 352/397/352 411/456/411 356/401/356
f 98/108/98 97/107/97 411/456/411 352/397/352
f 67/72/67 68/73/68 409/454/409 407/452/407
f 385/430/385 67/72/67 407/452/407 387/432/387
f 66/71/66 67/72/67 385/430/385 383/428/383
f 63/68/63 66/71/66 383/428/383 380/425/380
f 75/80/75 90/100/90 375/420/375 76/83/76
f 64/69/64 63/68/63 373/418/373 371/416/371
f 69/74/69 64/69/64 371/416/371 370/415/370
f 236/274/236 158/172/158 359/404/359 237/275/237
f 157/171/157 355/400/355 359/404/359 158/172/158
f 238/276/238 237/275/237 359/404/359 360/405/360
f 99/109/99 98/108/98 352/397/352 350/395/350
f 82/90/82 81/89/81 346/391/346 344/389/344
f 83/91/83 82/90/82 344/389/344 342/387/342
f 9/9/9 8/8/8 333/378/333 331/376/331
f 14/14/14 9/9/9 331/376/331 330/375/330
f 35/36/35 14/14/14 330/375/330 37/39/37
f 105/115/105 112/122/112 328/373/328 104/114/104
f 113/123/113 135/145/135 326/368/326 114/124/114
f 138/154/138 321/363/321 326/370/326 135/460/135
f 142/153/142 215/244/215 321/363/321 138/154/138
f 125/135/125 128/138/128 309/351/309 126/136/126
f 280/321/280 279/320/279 303/345/303 302/344/302
f 287/328/287 285/326/285 302/344/302 298/340/298
f 282/323/282 280/321/280 302/344/302 285/326/285
f 132/142/132 415/461/415 300/342/300 129/139/129
f 296/338/296 297/339/297 300/342/300 415/461/415
f 127/137/127 129/139/129 300/342/300 301/343/301
f 116/126/116 416/462/416 415/461/415 132/142/132
f 417/463/417 296/338/296 415/461/415 416/462/416
f 133/464/133 418/465/418 417/466/417 416/467/416
f 178/195/178 179/196/179 417/466/417 418/465/418
f 294/468/294 296/469/296 417/466/417 179/196/179
f 134/470/134 419/471/419 418/465/418 133/464/133
f 167/181/167 178/195/178 418/465/418 419/471/419
f 163/177/163 160/174/160 419/471/419 134/470/134
f 159/173/159 167/181/167 419/471/419 160/174/160
f 119/129/119 133/143/133 416/462/416 116/126/116
f 49/53/49 50/54/50 275/316/275 273/314/273
f 21/21/21 49/53/49 273/314/273 22/22/22
f 16/16/16 19/19/19 272/313/272 34/34/34
f 420/472/420 23/23/23 263/304/263 262/303/262
f 39/43/39 42/46/42 420/472/420 262/303/262
f 45/49/45 421/473/421 420/472/420 42/46/42
f 24/24/24 23/23/23 420/472/420 421/473/421
f 422/474/422 423/475/423 421/473/421 45/49/45
f 424/476/424 24/24/24 421/473/421 423/475/423
f 25/25/25 24/24/24 424/476/424 28/28/28
f 425/477/425 426/478/426 424/476/424 423/475/423
f 32/32/32 28/28/28 424/476/424 426/478/426
f 10/479/10 15/480/15 426/478/426 425/477/425
f 29/29/29 32/32/32 426/478/426 15/480/15
f 422/474/422 427/481/427 425/477/425 423/475/423
f 13/482/13 10/479/10 425/477/425 427/481/427
f 84/92/84 70/75/70 427/481/427 422/474/422
f 73/78/73 13/482/13 427/481/427 70/75/70
f 44/48/44 84/92/84 422/474/422 45/49/45
f 257/298/257 39/43/39 262/303/262 258/299/258
f 59/64/59 60/65/60 257/298/257 253/294/253
f 40/44/40 39/43/39 257/298/257 60/65/60
f 173/187/173 249/290/249 251/292/251 172/186/172
f 62/67/62 57/62/57 247/286/247 86/94/86
f 87/95/87 86/94/86 245/288/245 88/483/88
f 233/269/233 151/165/151 236/274/236 234/270/234
f 150/164/150 158/172/158 236/274/236 151/165/151
f 139/149/139 141/152/141 233/484/233 231/266/231
f 152/166/152 151/165/151 233/269/233 141/485/141
f 165/179/165 139/149/139 231/266/231 229/264/229
f 183/202/183 165/179/165 229/264/229 228/263/228
f 184/203/184 183/202/183 228/263/228 227/262/227
f 224/486/224 428/487/428 227/488/227 225/489/225
f 185/490/185 184/203/184 227/262/227 428/491/428
f 201/227/201 198/224/198 428/487/428 224/486/224
f 197/223/197 185/205/185 428/487/428 198/224/198
f 211/237/211 201/227/201 224/486/224 222/492/222
f 210/236/210 211/237/211 222/492/222 220/493/220
f 207/233/207 210/236/210 220/493/220 218/247/218
f 144/157/144 429/494/429 214/241/214 143/158/143
f 124/134/124 123/133/123 214/240/214 429/495/429
f 162/176/162 430/496/430 429/494/429 144/157/144
f 130/140/130 124/134/124 429/495/429 430/497/430
f 161/175/161 164/178/164 430/496/430 162/176/162
f 122/132/122 130/140/130 430/497/430 164/498/164
f 202/228/202 201/227/201 211/237/211 208/234/208
f 203/229/203 202/228/202 208/234/208 205/231/205
f 174/188/174 169/191/169 195/499/195 191/213/191
f 121/131/121 122/132/122 164/498/164 163/500/163
f 120/130/120 121/131/121 163/500/163 134/144/134
f 107/117/107 106/116/106 154/168/154 153/167/153
f 137/147/137 136/146/136 152/166/152 141/485/141
f 135/145/135 113/123/113 146/160/146 136/146/136
f 108/118/108 109/119/109 146/160/146 113/123/113
f 117/127/117 116/126/116 132/142/132 131/141/131
f 122/132/122 117/127/117 131/141/131 130/140/130
f 61/66/61 62/67/62 85/93/85 43/47/43
f 13/13/13 73/84/73 76/83/76 12/12/12
f 43/47/43 40/44/40 60/65/60 61/66/61
f 34/34/34 33/33/33 55/60/55 16/16/16
f 15/15/15 14/14/14 35/36/35 29/35/29
