# split from a merged terrain OBJ by scripts/split-terrain-obj-parts.py
o part-053
v -0.870104 0.037984 -0.037970
v -0.871704 0.040035 -0.044775
v -0.864826 0.045259 -0.044460
v -0.863118 0.043103 -0.036403
v -0.861731 0.052294 -0.035660
v -0.865372 0.051288 -0.046628
v -0.874821 0.045181 -0.051862
v -0.865222 0.040497 -0.025630
v -0.876985 0.032456 -0.031969
v -0.882624 0.035274 -0.040932
v -0.866573 0.060032 -0.013190
v -0.874381 0.067977 -0.014210
v -0.876328 0.064611 -0.006074
v -0.872153 0.057966 -0.003530
v -0.885748 0.068912 -0.014083
v -0.884682 0.063102 -0.003757
v -0.881677 0.054712 0.001263
v -0.864848 0.061313 -0.035914
v -0.868380 0.059789 -0.046888
v -0.872580 0.066160 -0.045693
v -0.872010 0.069283 -0.037001
v -0.879365 0.054799 -0.052548
v -0.882745 0.063886 -0.048948
v -0.884976 0.070504 -0.038847
v -0.868549 0.039005 -0.015351
v -0.879186 0.030729 -0.021176
v -0.890377 0.027443 -0.023464
v -0.889973 0.028788 -0.030228
v -0.890568 0.032044 -0.036318
v -0.878892 0.045822 0.001531
v -0.888990 0.042683 0.002346
v -0.885757 0.037446 -0.000772
v -0.878859 0.037281 -0.003412
v -0.885758 0.034500 -0.010145
v -0.891886 0.034190 -0.005829
v -0.898912 0.038197 -0.003507
v -0.898400 0.031833 -0.012287
v -0.892179 0.032479 -0.013462
v -0.882547 0.033182 -0.015104
v -0.891890 0.030678 -0.018347
v -0.901145 0.029364 -0.019724
v -0.886357 0.038224 -0.049064
v -0.897088 0.031546 -0.040944
v -0.898592 0.025968 -0.032380
v -0.897877 0.066169 -0.025492
v -0.906556 0.058321 -0.022542
v -0.903719 0.058990 -0.014886
v -0.896764 0.064463 -0.014051
v -0.895751 0.058885 -0.004206
v -0.905289 0.053566 -0.009232
v -0.911431 0.050227 -0.017903
v -0.891231 0.048591 -0.050789
v -0.903664 0.043135 -0.046897
v -0.910260 0.039705 -0.041589
v -0.907623 0.031927 -0.037513
v -0.905108 0.027226 -0.033337
v -0.900442 0.026732 -0.025352
v -0.907268 0.028757 -0.027565
v -0.912087 0.034550 -0.031231
v -0.913011 0.043043 -0.036678
v -0.906953 0.051637 -0.042729
v -0.898020 0.064564 -0.037378
v -0.895382 0.058337 -0.046724
v -0.908058 0.056322 -0.033140
v -0.913982 0.047024 -0.027965
v -0.913476 0.037635 -0.023059
v -0.910436 0.041179 -0.013711
v -0.903708 0.045282 -0.004169
v -0.907714 0.031731 -0.020653
v -0.905290 0.034779 -0.012024
v -0.892869 0.050426 0.001615
v -0.885832 0.071872 -0.026502
v -0.873048 0.069607 -0.025496
v -0.864502 0.061173 -0.024409
v -0.863703 0.049487 -0.012469
v -0.861151 0.051073 -0.024079
v -0.873100 0.038198 -0.008516
v -0.870248 0.047885 -0.003691
vt 0.337284 0.971688
vt 0.337140 0.975755
vt 0.332369 0.978118
vt 0.332110 0.973794
vt 0.327266 0.976504
vt 0.328936 0.980476
vt 0.333699 0.983207
vt 0.331806 0.968082
vt 0.338464 0.964673
vt 0.021230 0.172079
vt 0.014031 0.169790
vt 0.018099 0.166858
vt 0.025256 0.167485
vt 0.317304 0.966657
vt 0.310921 0.967190
vt 0.311631 0.961775
vt 0.316235 0.960741
vt 0.305482 0.962382
vt 0.309235 0.957076
vt 0.314883 0.955068
vt 0.319316 0.978661
vt 0.322309 0.982996
vt 0.316237 0.984083
vt 0.312284 0.979723
vt 0.324252 0.987284
vt 0.314585 0.987834
vt 0.306040 0.982542
vt 0.329942 0.962227
vt 0.335225 0.957974
vt 0.034606 0.172213
vt 0.030858 0.172625
vt 0.032708 0.167441
vt 0.026257 0.173591
vt 0.320450 0.953407
vt 0.319165 0.948659
vt 0.323718 0.949389
vt 0.325549 0.953077
vt 0.329430 0.950975
vt 0.326331 0.946881
vt 0.320743 0.944063
vt 0.328551 0.944738
vt 0.330422 0.948274
vt 0.332363 0.953822
vt 0.332662 0.948718
vt 0.038390 0.179782
vt 0.038402 0.174440
vt 0.040635 0.176410
vt 0.041574 0.180662
vt 0.017627 0.176443
vt 0.025658 0.177328
vt 0.030822 0.176588
vt 0.022575 0.202591
vt 0.029384 0.199982
vt 0.033097 0.202494
vt 0.029244 0.205133
vt 0.306011 0.952346
vt 0.301641 0.957257
vt 0.300493 0.952384
vt 0.303544 0.948364
vt 0.034332 0.196705
vt 0.038123 0.199275
vt 0.014742 0.182971
vt 0.021903 0.185177
vt 0.026613 0.185941
vt 0.029569 0.182287
vt 0.032127 0.179930
vt 0.035808 0.177554
vt 0.034716 0.181664
vt 0.032626 0.185509
vt 0.028187 0.188861
vt 0.021530 0.190936
vt 0.017043 0.197608
vt 0.014453 0.190408
vt 0.024806 0.195400
vt 0.031268 0.193074
vt 0.035563 0.188291
vt 0.039724 0.191014
vt 0.042426 0.196502
vt 0.038020 0.183521
vt 0.041423 0.185558
vt 0.312942 0.943977
vt 0.318068 0.939634
vt 0.324521 0.941463
vt 0.313236 0.949421
vt 0.008882 0.197677
vt 0.007196 0.189247
vt 0.008138 0.182296
vt 0.014399 0.204477
vt 0.311737 0.973997
vt 0.304351 0.971759
vt 0.300652 0.965013
vt 0.319120 0.972873
vt 0.323428 0.964615
vt 0.325938 0.970686
vt 0.327719 0.956719
vt 0.321591 0.958711
vt 0.010275 0.175213
vt 0.037659 0.169202
vn 0.4987 -0.8255 -0.2643
vn 0.4331 -0.7327 -0.5249
vn 0.7688 -0.4116 -0.4894
vn 0.8514 -0.4971 -0.1672
vn 0.9854 0.0828 -0.1489
vn 0.7693 0.0099 -0.6388
vn 0.2865 -0.3381 -0.8964
vn 0.7929 -0.6075 0.0465
vn 0.3893 -0.8974 -0.2075
vn 0.2349 -0.8710 -0.4316
vn 0.8006 0.4730 0.3678
vn 0.3935 0.8582 0.3297
vn 0.3054 0.7330 0.6078
vn 0.5615 0.3844 0.7328
vn -0.1491 0.9297 0.3368
vn -0.0839 0.7076 0.7016
vn 0.1279 0.3079 0.9428
vn 0.8547 0.4955 -0.1546
vn 0.6374 0.3895 -0.6648
vn 0.3886 0.6999 -0.5993
vn 0.4552 0.8661 -0.2067
vn 0.0621 0.1602 -0.9851
vn -0.1060 0.6063 -0.7881
vn -0.1713 0.9291 -0.3278
vn 0.6931 -0.6677 0.2717
vn 0.3616 -0.9168 0.1696
vn 0.1567 -0.9646 0.2122
vn 0.2578 -0.9350 -0.2436
vn 0.2625 -0.8689 -0.4196
vn 0.3528 -0.1730 0.9196
vn -0.0955 -0.2971 0.9500
vn 0.1005 -0.7224 0.6842
vn 0.3593 -0.7377 0.5715
vn 0.1789 -0.9432 0.2800
vn -0.0359 -0.8753 0.4823
vn -0.4216 -0.5104 0.7495
vn -0.1236 -0.9035 0.4104
vn 0.1398 -0.9500 0.2793
vn 0.2199 -0.9063 0.3610
vn 0.0903 -0.9077 0.4099
vn -0.1874 -0.8958 0.4030
vn 0.0276 -0.6208 -0.7835
vn -0.0173 -0.7428 -0.6692
vn 0.0430 -0.9619 -0.2700
vn -0.5355 0.8437 0.0373
vn -0.7420 0.6635 0.0956
vn -0.6720 0.6743 0.3062
vn -0.4872 0.8063 0.3353
vn -0.4369 0.5914 0.6777
vn -0.7269 0.4289 0.5363
vn -0.8983 0.3346 0.2849
vn -0.2626 -0.0301 -0.9644
vn -0.4497 -0.1533 -0.8800
vn -0.6909 -0.2741 -0.6690
vn -0.5578 -0.6378 -0.5311
vn -0.4086 -0.8682 -0.2816
vn -0.1177 -0.9636 0.2399
vn -0.5750 -0.8109 0.1082
vn -0.8863 -0.4485 -0.1155
vn -0.9309 0.0233 -0.3645
vn -0.6842 0.3835 -0.6204
vn -0.5441 0.7711 -0.3307
vn -0.4430 0.4852 -0.7538
vn -0.7733 0.5971 -0.2131
vn -0.9727 0.2307 -0.0255
vn -0.9309 -0.3069 0.1981
vn -0.8549 -0.1811 0.4862
vn -0.6633 -0.0193 0.7481
vn -0.5991 -0.7237 0.3425
vn -0.5526 -0.6435 0.5296
vn -0.3075 0.1859 0.9332
vn -0.1488 0.9878 0.0453
vn 0.4378 0.8947 0.0882
vn 0.8491 0.5175 0.1058
vn 0.9150 -0.0993 0.3910
vn 0.9935 -0.0160 0.1126
vn 0.5319 -0.7060 0.4677
vn 0.6966 -0.1488 0.7019
f 1/1/1 2/2/2 3/3/3 4/4/4
f 5/5/5 4/4/4 3/3/3 6/6/6
f 7/7/7 6/6/6 3/3/3 2/2/2
f 8/8/8 9/9/9 1/1/1 4/4/4
f 10/10/10 2/11/2 1/12/1 9/13/9
f 11/14/11 12/15/12 13/16/13 14/17/14
f 15/18/15 16/19/16 13/16/13 12/15/12
f 17/20/17 14/17/14 13/16/13 16/19/16
f 18/21/18 19/22/19 20/23/20 21/24/21
f 22/25/22 23/26/23 20/23/20 19/22/19
f 24/27/24 21/24/21 20/23/20 23/26/23
f 25/28/25 26/29/26 9/9/9 8/8/8
f 27/30/27 28/31/28 9/13/9 26/32/26
f 29/33/29 10/10/10 9/13/9 28/31/28
f 30/34/30 31/35/31 32/36/32 33/37/33
f 34/38/34 33/37/33 32/36/32 35/39/35
f 36/40/36 35/39/35 32/36/32 31/35/31
f 35/39/35 37/41/37 38/42/38 34/38/34
f 39/43/39 34/38/34 38/42/38 40/44/40
f 41/45/41 40/46/40 38/47/38 37/48/37
f 42/49/42 10/10/10 29/33/29 43/50/43
f 44/51/44 43/50/43 29/33/29 28/31/28
f 45/52/45 46/53/46 47/54/47 48/55/48
f 49/56/49 48/57/48 47/58/47 50/59/50
f 51/60/51 50/61/50 47/54/47 46/53/46
f 52/62/52 42/49/42 43/50/43 53/63/53
f 54/64/54 53/63/53 43/50/43 55/65/55
f 56/66/56 55/65/55 43/50/43 44/51/44
f 57/67/57 58/68/58 56/66/56 44/51/44
f 59/69/59 55/65/55 56/66/56 58/68/58
f 59/69/59 60/70/60 54/64/54 55/65/55
f 61/71/61 53/63/53 54/64/54 60/70/60
f 62/72/62 63/73/63 61/71/61 64/74/64
f 52/62/52 53/63/53 61/71/61 63/73/63
f 65/75/65 64/74/64 61/71/61 60/70/60
f 46/53/46 64/74/64 65/75/65 51/60/51
f 59/69/59 66/76/66 65/75/65 60/70/60
f 67/77/67 51/60/51 65/75/65 66/76/66
f 50/61/50 51/60/51 67/77/67 68/78/68
f 69/79/69 70/80/70 67/77/67 66/76/66
f 36/40/36 68/81/68 67/82/67 70/83/70
f 41/45/41 37/48/37 70/80/70 69/79/69
f 35/39/35 36/40/36 70/83/70 37/41/37
f 59/69/59 58/68/58 69/79/69 66/76/66
f 57/67/57 41/45/41 69/79/69 58/68/58
f 49/56/49 50/59/50 68/81/68 71/84/71
f 31/35/31 71/84/71 68/81/68 36/40/36
f 16/19/16 49/56/49 71/84/71 17/20/17
f 30/34/30 17/20/17 71/84/71 31/35/31
f 24/85/24 23/86/23 63/73/63 62/72/62
f 22/87/22 52/62/52 63/73/63 23/86/23
f 72/88/72 24/85/24 62/72/62 45/52/45
f 46/53/46 45/52/45 62/72/62 64/74/64
f 12/15/12 73/89/73 72/90/72 15/18/15
f 21/24/21 24/27/24 72/90/72 73/89/73
f 48/57/48 15/18/15 72/90/72 45/91/45
f 11/14/11 74/92/74 73/89/73 12/15/12
f 18/21/18 21/24/21 73/89/73 74/92/74
f 75/93/75 76/94/76 74/92/74 11/14/11
f 5/5/5 18/21/18 74/92/74 76/94/76
f 25/28/25 8/8/8 76/94/76 75/93/75
f 4/4/4 5/5/5 76/94/76 8/8/8
f 77/95/77 25/28/25 75/93/75 78/96/78
f 14/17/14 78/96/78 75/93/75 11/14/11
f 34/38/34 39/43/39 77/95/77 33/37/33
f 26/29/26 25/28/25 77/95/77 39/43/39
f 30/34/30 33/37/33 77/95/77 78/96/78
f 17/20/17 30/34/30 78/96/78 14/17/14
f 28/31/28 27/30/27 57/67/57 44/51/44
f 40/46/40 41/45/41 57/67/57 27/30/27
f 7/97/7 42/49/42 52/62/52 22/87/22
f 15/18/15 48/57/48 49/56/49 16/19/16
f 2/11/2 10/10/10 42/49/42 7/97/7
f 27/30/27 26/32/26 39/98/39 40/46/40
f 6/6/6 7/7/7 22/25/22 19/22/19
f 5/5/5 6/6/6 19/22/19 18/21/18
