# split from a merged terrain OBJ by scripts/split-terrain-obj-parts.py
o part-013
v -0.291489 0.939115 -0.087403
v -0.296517 0.938564 -0.082349
v -0.301952 0.943241 -0.084771
v -0.295963 0.945941 -0.089184
v -0.300467 0.938099 -0.079230
v -0.304450 0.942665 -0.082436
v -0.223096 0.950523 -0.029664
v -0.227722 0.940503 -0.041053
v -0.225248 0.948938 -0.049149
v -0.226651 0.953081 -0.043040
v -0.240856 0.939833 -0.058503
v -0.240453 0.948694 -0.060807
v -0.241509 0.953955 -0.056837
v -0.229246 0.972279 -0.016192
v -0.234593 0.975486 -0.012575
v -0.227709 0.977923 -0.006123
v -0.226464 0.973018 -0.005539
v -0.223203 0.973386 -0.000708
v -0.226850 0.980151 -0.001896
v -0.234605 0.980732 -0.009906
v -0.244419 0.937838 -0.053374
v -0.234240 0.937834 -0.038187
v -0.227347 0.972690 0.007592
v -0.229886 0.979416 0.006253
v -0.231892 0.978813 0.010597
v -0.230068 0.972217 0.010706
v -0.237988 0.980861 -0.000530
v -0.239223 0.979209 0.004274
v -0.238248 0.972573 0.006826
v -0.223957 0.948300 -0.014310
v -0.224970 0.946811 -0.006297
v -0.227755 0.938862 -0.008695
v -0.226117 0.940007 -0.019875
v -0.222187 0.929263 -0.000151
v -0.227389 0.930357 -0.005808
v -0.223989 0.938266 -0.000812
v -0.222622 0.945846 -0.000221
v -0.232609 0.937965 -0.022161
v -0.234114 0.935624 -0.013770
v -0.233616 0.928956 -0.010731
v -0.225846 0.937659 0.004133
v -0.227411 0.931328 0.002998
v -0.230770 0.929079 -0.000417
v -0.229564 0.963321 0.010335
v -0.234915 0.962725 0.009606
v -0.249762 0.980371 -0.006785
v -0.249309 0.975421 -0.004282
v -0.249250 0.972922 0.000192
v -0.239729 0.970406 0.010655
v -0.238887 0.962025 0.011453
v -0.269042 0.943360 -0.082743
v -0.268054 0.951140 -0.084135
v -0.261793 0.951154 -0.076033
v -0.258126 0.941541 -0.072499
v -0.275543 0.950274 -0.088581
v -0.270028 0.952529 -0.083652
v -0.272866 0.953016 -0.079682
v -0.260806 0.953407 -0.069743
v -0.280299 0.938772 -0.085951
v -0.285274 0.941951 -0.093139
v -0.273920 0.943551 -0.087835
v -0.289307 0.949834 -0.092812
v -0.280587 0.952368 -0.086601
v -0.228554 0.936610 0.008878
v -0.228758 0.929449 0.009076
v -0.233334 0.935847 0.008273
v -0.233611 0.929372 0.005780
v -0.242462 0.960890 0.014986
v -0.243369 0.969242 0.014272
v -0.247275 0.967000 0.017628
v -0.246207 0.959434 0.018524
v -0.251237 0.957470 0.021487
v -0.255534 0.969754 0.016299
v -0.251784 0.972521 0.006386
v -0.241060 0.937502 -0.025703
v -0.251862 0.935523 -0.029462
v -0.251064 0.937460 -0.034473
v -0.242060 0.937371 -0.036560
v -0.262102 0.936013 -0.038594
v -0.257672 0.937322 -0.043456
v -0.250302 0.937407 -0.048911
v -0.256897 0.955175 0.024639
v -0.259351 0.966813 0.019313
v -0.265727 0.972800 -0.009179
v -0.268653 0.972488 -0.002866
v -0.272227 0.971500 0.002137
v -0.274267 0.967423 -0.077607
v -0.286224 0.966407 -0.084415
v -0.288233 0.972518 -0.084970
v -0.277304 0.971477 -0.073130
v -0.294144 0.965625 -0.085736
v -0.294942 0.972329 -0.084712
v -0.281725 0.972426 -0.067817
v -0.239939 0.935375 0.005010
v -0.239019 0.928713 0.000878
v -0.248060 0.928865 -0.006203
v -0.248830 0.934922 -0.003639
v -0.233152 0.944150 0.009129
v -0.237383 0.943375 0.009673
v -0.239210 0.941744 0.014349
v -0.243635 0.935646 0.009916
v -0.252743 0.934813 0.001419
v -0.265909 0.962723 0.029726
v -0.257099 0.952949 0.036702
v -0.276729 0.970018 0.008003
v -0.284562 0.969508 0.015607
v -0.276435 0.963047 0.038451
v -0.279941 0.962000 0.080284
v -0.284368 0.959373 0.087027
v -0.276449 0.957636 0.090070
v -0.272200 0.959795 0.083944
v -0.269206 0.951828 0.084393
v -0.275822 0.950434 0.091072
v -0.286170 0.950977 0.089413
v -0.300113 0.964396 -0.083598
v -0.305346 0.964420 -0.080233
v -0.306286 0.973012 -0.077903
v -0.301257 0.972163 -0.083206
v -0.289582 0.980749 -0.057459
v -0.288459 0.975880 -0.060361
v -0.303770 0.980989 -0.071132
v -0.286430 0.972620 -0.062833
v -0.312958 0.980760 -0.080740
v -0.312620 0.973818 -0.080134
v -0.311616 0.965607 -0.079698
v -0.298622 0.955150 -0.086706
v -0.303884 0.954384 -0.081987
v -0.309650 0.955080 -0.079564
v -0.275371 0.934994 0.086119
v -0.283376 0.935618 0.086111
v -0.283752 0.929905 0.084711
v -0.279201 0.927836 0.082596
v -0.291070 0.925241 0.074963
v -0.293930 0.930073 0.078133
v -0.294499 0.936614 0.078746
v -0.286208 0.965332 0.046172
v -0.281935 0.964183 0.059078
v -0.273652 0.962724 0.059252
v -0.295126 0.965356 0.054479
v -0.285307 0.963867 0.067154
v -0.275791 0.963155 0.071673
v -0.304854 0.934621 -0.076922
v -0.313679 0.945405 -0.078814
v -0.294482 0.937542 -0.072409
v -0.297108 0.935158 -0.070215
v -0.306007 0.981125 -0.064789
v -0.314443 0.981011 -0.073214
v -0.317455 0.976071 -0.076695
v -0.320830 0.980564 -0.072154
v -0.316791 0.979297 -0.066943
v -0.317243 0.967537 -0.076420
v -0.320997 0.969250 -0.071612
v -0.317964 0.970640 -0.063908
v -0.309353 0.979313 -0.058763
v -0.309410 0.973156 -0.056618
v -0.312887 0.972637 -0.050931
v -0.321582 0.968791 -0.058052
v -0.320822 0.958124 -0.072155
v -0.319198 0.958226 -0.065609
v -0.323751 0.958141 -0.059897
v -0.307865 0.929076 -0.062080
v -0.309883 0.935656 -0.058146
v -0.318485 0.937827 -0.067135
v -0.318335 0.936143 -0.072581
v -0.320420 0.946957 -0.073118
v -0.318992 0.947557 -0.065694
v -0.324720 0.947889 -0.059243
v -0.322321 0.939381 -0.056884
v -0.314678 0.935860 -0.051367
v -0.319073 0.954349 -0.037139
v -0.322566 0.953706 -0.032033
v -0.313538 0.967307 -0.018934
v -0.307097 0.962681 -0.024436
v -0.327875 0.956866 -0.030947
v -0.323520 0.967731 -0.023481
v -0.294388 0.969537 -0.011178
v -0.300413 0.968525 -0.003675
v -0.310074 0.968137 0.008485
v -0.321492 0.969036 -0.003646
v -0.330866 0.967864 -0.013522
v -0.327767 0.959193 -0.051059
v -0.324714 0.967210 -0.052339
v -0.317226 0.970191 -0.044520
v -0.319911 0.961876 -0.040329
v -0.337468 0.958254 -0.022782
v -0.330518 0.930955 -0.024244
v -0.336859 0.931275 -0.027209
v -0.331996 0.933919 -0.039804
v -0.322859 0.933031 -0.038510
v -0.319104 0.935773 -0.044225
v -0.326445 0.938701 -0.048973
v -0.328747 0.949366 -0.047738
v -0.333204 0.944048 -0.040783
v -0.343786 0.937998 -0.039359
v -0.340633 0.933596 -0.037159
v -0.343472 0.932931 -0.028706
v -0.341348 0.942150 -0.035615
v -0.335217 0.945583 -0.034322
v -0.319546 0.963246 0.054311
v -0.333008 0.964182 0.038474
v -0.341790 0.960109 0.042508
v -0.321194 0.957819 0.059157
v -0.338724 0.964075 0.032215
v -0.340990 0.954641 0.041153
v -0.319286 0.950068 0.057202
v -0.349681 0.964485 0.023830
v -0.348966 0.957744 0.031197
v -0.339911 0.949225 0.034057
v -0.339763 0.946345 0.039090
v -0.346049 0.937322 -0.029488
v -0.344637 0.941842 -0.027943
v -0.340511 0.946760 -0.025237
v -0.355073 0.944277 0.022202
v -0.361948 0.946873 0.016584
v -0.363018 0.939607 0.013192
v -0.356951 0.937640 0.022858
v -0.356283 0.930011 0.019971
v -0.364190 0.931727 0.012310
v -0.364039 0.949281 0.008382
v -0.365482 0.941384 0.004380
v -0.369440 0.934579 0.001984
v -0.353464 0.928287 -0.003017
v -0.360408 0.927779 0.006547
v -0.366012 0.929433 0.000875
v -0.360362 0.929133 -0.008010
v -0.363756 0.935927 -0.009323
v -0.360468 0.955021 0.021204
v -0.353515 0.950115 0.026117
v -0.343765 0.941147 0.030939
v -0.347008 0.935245 0.030387
v -0.337739 0.933067 0.038606
v -0.338110 0.938812 0.038167
v -0.320055 0.929859 0.053312
v -0.321023 0.935297 0.055332
v -0.317727 0.941116 0.054984
v -0.306044 0.932670 0.067995
v -0.306260 0.937672 0.068499
v -0.306839 0.946200 0.069959
v -0.308084 0.955193 0.071946
v -0.295405 0.944700 0.079659
v -0.296228 0.953011 0.081222
v -0.305713 0.961831 0.069131
v -0.294203 0.960019 0.079465
v -0.285060 0.943129 0.087954
v -0.275538 0.942583 0.089042
v -0.270144 0.935003 0.080776
v -0.269131 0.943535 0.082945
v -0.265173 0.934880 0.071838
v -0.263648 0.944101 0.073515
v -0.263541 0.953026 0.074149
v -0.259202 0.943895 0.058193
v -0.259581 0.952107 0.057376
v -0.265549 0.959336 0.055994
v -0.267470 0.960687 0.073647
v -0.255188 0.944021 0.040194
v -0.259809 0.935420 0.058103
v -0.255470 0.935973 0.041233
v -0.252920 0.936977 0.028860
v -0.254851 0.944566 0.028257
v -0.249949 0.939399 0.022117
v -0.250643 0.946866 0.022074
v -0.243299 0.940398 0.021165
v -0.245352 0.949012 0.019040
v -0.241413 0.950733 0.014900
v -0.238125 0.952263 0.010911
v -0.233605 0.953301 0.009393
v -0.228771 0.944718 0.009104
v -0.229064 0.953869 0.009647
v -0.225516 0.945229 0.004784
v -0.225695 0.954344 0.005855
v -0.226477 0.963837 0.006912
v -0.222933 0.954929 0.001095
v -0.223567 0.964291 0.002841
v -0.224429 0.973054 0.003988
v -0.223424 0.964822 -0.001894
v -0.228055 0.979775 0.002358
v -0.236181 0.981007 -0.005202
v -0.244839 0.976932 -0.021300
v -0.245674 0.980996 -0.017002
v -0.247970 0.981074 -0.011646
v -0.256983 0.979138 -0.031039
v -0.259856 0.981192 -0.026002
v -0.262889 0.980976 -0.020609
v -0.274624 0.981137 -0.042328
v -0.278252 0.981155 -0.036763
v -0.280508 0.978445 -0.032407
v -0.263703 0.977047 -0.017024
v -0.280739 0.973021 -0.030740
v -0.263696 0.972951 -0.014385
v -0.283361 0.972632 -0.025932
v -0.296232 0.973843 -0.046035
v -0.299953 0.972287 -0.040585
v -0.304098 0.970116 -0.034767
v -0.286792 0.972273 -0.020877
v -0.306326 0.965475 -0.029658
v -0.290405 0.971225 -0.016507
v -0.296595 0.979260 -0.047224
v -0.293389 0.981127 -0.051824
v -0.272365 0.977386 -0.046210
v -0.271305 0.972622 -0.048764
v -0.256020 0.973659 -0.034246
v -0.267550 0.972682 -0.054589
v -0.251696 0.972867 -0.040491
v -0.239953 0.973226 -0.026323
v -0.246687 0.971795 -0.046876
v -0.233104 0.972158 -0.032111
v -0.260773 0.968113 -0.065439
v -0.263512 0.972150 -0.060816
v -0.243418 0.967010 -0.051604
v -0.227462 0.966310 -0.036699
v -0.242800 0.959309 -0.053345
v -0.226725 0.958838 -0.039618
v -0.224859 0.966040 -0.019261
v -0.223809 0.957858 -0.023543
v -0.227532 0.965095 -0.007865
v -0.226211 0.956402 -0.011322
v -0.224208 0.955681 -0.004167
v -0.260727 0.960408 -0.067530
v -0.273842 0.960135 -0.078308
v -0.283525 0.959509 -0.086044
v -0.292164 0.957900 -0.089596
v -0.253465 0.934204 0.018803
v -0.248871 0.935249 0.014533
v -0.261251 0.932509 0.012836
v -0.257104 0.934266 0.006884
v -0.271850 0.932362 0.004363
v -0.267823 0.934467 -0.002077
v -0.263452 0.935262 -0.007909
v -0.281222 0.935153 -0.013245
v -0.277397 0.935861 -0.019646
v -0.273066 0.936322 -0.025657
v -0.259184 0.935901 -0.013391
v -0.272284 0.929575 -0.026979
v -0.258978 0.929375 -0.014871
v -0.268431 0.928353 -0.031450
v -0.255344 0.928175 -0.019741
v -0.244744 0.928053 -0.011473
v -0.251888 0.928513 -0.024693
v -0.241595 0.928478 -0.016758
v -0.236528 0.928210 -0.004990
v -0.250571 0.931740 -0.027842
v -0.241388 0.933541 -0.020014
v -0.264615 0.928458 -0.035788
v -0.262647 0.931940 -0.038350
v -0.277820 0.928911 -0.048413
v -0.275757 0.933313 -0.050355
v -0.273593 0.937505 -0.051488
v -0.287590 0.934259 -0.061295
v -0.285512 0.937566 -0.063130
v -0.281706 0.937441 -0.067329
v -0.269377 0.937408 -0.055733
v -0.277474 0.937562 -0.072049
v -0.264750 0.937463 -0.060829
v -0.272889 0.938558 -0.077520
v -0.260253 0.938093 -0.066540
v -0.285715 0.937698 -0.080956
v -0.290417 0.937563 -0.076255
v -0.296264 0.930385 -0.067724
v -0.289379 0.929215 -0.059906
v -0.301756 0.928844 -0.066847
v -0.293112 0.928731 -0.055840
v -0.281741 0.928485 -0.044228
v -0.296959 0.928865 -0.051267
v -0.285640 0.929806 -0.039823
v -0.298965 0.936154 -0.048642
v -0.287019 0.936083 -0.037978
v -0.303770 0.935885 -0.042329
v -0.291708 0.935847 -0.031823
v -0.308633 0.935250 -0.035983
v -0.296062 0.935230 -0.025559
v -0.312444 0.933075 -0.030126
v -0.299665 0.933129 -0.019839
v -0.284736 0.932790 -0.006567
v -0.306752 0.930838 -0.008822
v -0.289766 0.930383 0.003496
v -0.276253 0.930073 0.013284
v -0.299137 0.928455 0.022048
v -0.283691 0.928228 0.030865
v -0.265496 0.929757 0.020673
v -0.271692 0.928669 0.036065
v -0.290575 0.926970 0.046420
v -0.277675 0.927217 0.052605
v -0.257378 0.931065 0.025978
v -0.261933 0.930290 0.039196
v -0.266469 0.928585 0.056020
v -0.282474 0.925660 0.062778
v -0.270980 0.926804 0.068283
v -0.300566 0.925365 0.060850
v -0.295896 0.925836 0.054996
v -0.287059 0.925165 0.069930
v -0.275388 0.926837 0.077014
v -0.316719 0.926114 0.048784
v -0.312075 0.926286 0.042871
v -0.306632 0.927274 0.035284
v -0.330704 0.926776 0.028777
v -0.325273 0.927577 0.020848
v -0.317772 0.929016 0.009150
v -0.337249 0.927783 0.011238
v -0.330348 0.929512 -0.001044
v -0.320405 0.930991 -0.018057
v -0.338893 0.929508 -0.009079
v -0.344420 0.929739 -0.014097
v -0.346188 0.928073 0.003065
v -0.350632 0.931321 -0.017957
v -0.353501 0.936819 -0.019165
v -0.360304 0.941452 -0.005338
v -0.351898 0.942183 -0.016340
v -0.358500 0.949043 -0.001191
v -0.348715 0.947798 -0.012212
v -0.355781 0.958279 0.004442
v -0.347760 0.957177 -0.007650
v -0.345992 0.963270 0.013874
v -0.340678 0.963723 0.001599
v -0.335551 0.965937 0.023113
v -0.330044 0.966048 0.011391
v -0.326785 0.965553 0.032082
v -0.319624 0.966976 0.022207
v -0.314326 0.964680 0.046608
v -0.306860 0.965651 0.037184
v -0.295936 0.968716 0.025633
v -0.300870 0.964283 0.062522
v -0.289796 0.962862 0.073627
v -0.361989 0.959060 0.012741
v -0.352012 0.927045 0.012811
v -0.342596 0.926713 0.020159
v -0.346808 0.928544 0.027242
v -0.334968 0.927502 0.035234
v -0.304301 0.927241 0.065296
v -0.316817 0.956927 -0.077339
vt 0.458690 0.777741
vt 0.462366 0.778250
vt 0.462168 0.782170
vt 0.458103 0.782050
vt 0.465112 0.778983
vt 0.464210 0.782079
vt 0.461370 0.722939
vt 0.459924 0.732053
vt 0.453748 0.731850
vt 0.454472 0.727298
vt 0.456127 0.743947
vt 0.451575 0.743666
vt 0.118462 0.178042
vt 0.105338 0.179193
vt 0.106955 0.175517
vt 0.119249 0.174581
vt 0.100559 0.195320
vt 0.102273 0.199055
vt 0.097832 0.200203
vt 0.095901 0.198941
vt 0.094067 0.201079
vt 0.097027 0.202402
vt 0.102035 0.202103
vt 0.459435 0.744215
vt 0.463150 0.734666
vt 0.093287 0.206994
vt 0.096221 0.206515
vt 0.095950 0.208665
vt 0.093535 0.209761
vt 0.100909 0.207230
vt 0.099914 0.209875
vt 0.098002 0.213741
vt 0.468937 0.719471
vt 0.473421 0.717652
vt 0.473023 0.722030
vt 0.468657 0.725672
vt 0.479154 0.721978
vt 0.477997 0.724410
vt 0.478498 0.719411
vt 0.478202 0.717059
vt 0.469880 0.729784
vt 0.473776 0.727682
vt 0.477619 0.728038
vt 0.481836 0.719343
vt 0.481457 0.722275
vt 0.481229 0.724637
vt 0.091117 0.211669
vt 0.092828 0.214442
vt 0.107179 0.210167
vt 0.106249 0.213063
vt 0.104804 0.215372
vt 0.097522 0.216041
vt 0.093488 0.216915
vt 0.452817 0.765561
vt 0.448924 0.765781
vt 0.449551 0.759601
vt 0.454678 0.756988
vt 0.148793 0.175566
vt 0.143674 0.175917
vt 0.136829 0.174233
vt 0.144271 0.173947
vt 0.142715 0.178243
vt 0.132151 0.177672
vt 0.455603 0.772303
vt 0.454298 0.777245
vt 0.449113 0.771167
vt 0.452450 0.769756
vt 0.159712 0.182382
vt 0.150291 0.178582
vt 0.159285 0.177842
vt 0.484679 0.720485
vt 0.483679 0.722611
vt 0.486664 0.722855
vt 0.484574 0.724526
vt 0.093960 0.219771
vt 0.097816 0.218825
vt 0.098032 0.221748
vt 0.094366 0.222704
vt 0.094927 0.226125
vt 0.102133 0.224638
vt 0.103946 0.218916
vt 0.470581 0.734624
vt 0.471948 0.740752
vt 0.469290 0.741737
vt 0.465980 0.738022
vt 0.470774 0.748335
vt 0.467365 0.747698
vt 0.462981 0.745705
vt 0.095807 0.229888
vt 0.102272 0.227780
vt 0.114884 0.218485
vt 0.114204 0.222233
vt 0.114074 0.225721
vt 0.141070 0.185637
vt 0.149799 0.185490
vt 0.149116 0.188208
vt 0.140425 0.189165
vt 0.154495 0.188308
vt 0.151502 0.190148
vt 0.140072 0.192787
vt 0.489001 0.726739
vt 0.484682 0.727689
vt 0.484215 0.733156
vt 0.487849 0.733258
vt 0.488451 0.720223
vt 0.489799 0.722243
vt 0.492490 0.722772
vt 0.492310 0.727179
vt 0.491362 0.733574
vt 0.101374 0.234947
vt 0.093410 0.235542
vt 0.114030 0.229850
vt 0.114790 0.235860
vt 0.103147 0.242313
vt 0.091076 0.261918
vt 0.090378 0.266380
vt 0.086113 0.264793
vt 0.086943 0.260727
vt 0.083010 0.259553
vt 0.082789 0.266164
vt 0.089483 0.271267
vt 0.157695 0.191367
vt 0.159365 0.194398
vt 0.153838 0.196110
vt 0.153394 0.192711
vt 0.139942 0.201915
vt 0.139862 0.198864
vt 0.149708 0.201068
vt 0.139980 0.196335
vt 0.155418 0.200849
vt 0.157687 0.199554
vt 0.160626 0.198057
vt 0.162101 0.189162
vt 0.165846 0.186619
vt 0.169237 0.193009
vt 0.164026 0.193800
vt 0.165040 0.197713
vt 0.169883 0.196271
vt 0.539086 0.719098
vt 0.542658 0.722929
vt 0.540107 0.723949
vt 0.537361 0.723045
vt 0.537029 0.729927
vt 0.540467 0.730581
vt 0.544010 0.730611
vt 0.104798 0.249051
vt 0.098892 0.253430
vt 0.095609 0.250810
vt 0.105517 0.255600
vt 0.097608 0.257999
vt 0.092674 0.256960
vt 0.468445 0.779849
vt 0.467209 0.786379
vt 0.465434 0.774101
vt 0.467625 0.774320
vt 0.148672 0.204572
vt 0.154075 0.203997
vt 0.157588 0.203031
vt 0.156293 0.205672
vt 0.153799 0.207200
vt 0.161142 0.203235
vt 0.160134 0.207326
vt 0.155855 0.211497
vt 0.148534 0.208443
vt 0.148708 0.211739
vt 0.148517 0.215055
vt 0.155089 0.214800
vt 0.163933 0.208886
vt 0.161932 0.212620
vt 0.160496 0.216620
vt 0.476348 0.776666
vt 0.480588 0.776932
vt 0.478984 0.783011
vt 0.475458 0.784626
vt 0.168155 0.210033
vt 0.172262 0.212162
vt 0.170236 0.214041
vt 0.166052 0.214303
vt 0.164209 0.219817
vt 0.168377 0.218682
vt 0.485105 0.777380
vt 0.484799 0.782554
vt 0.150222 0.227348
vt 0.150792 0.230315
vt 0.139132 0.233073
vt 0.139273 0.227946
vt 0.151397 0.233368
vt 0.144648 0.236056
vt 0.128280 0.228848
vt 0.128240 0.234236
vt 0.127874 0.242818
vt 0.136750 0.242274
vt 0.144106 0.242074
vt 0.156691 0.220623
vt 0.154219 0.217784
vt 0.148535 0.219018
vt 0.149785 0.223539
vt 0.152114 0.240081
vt 0.502378 0.777354
vt 0.502841 0.781014
vt 0.495402 0.782322
vt 0.493598 0.777706
vt 0.489569 0.777627
vt 0.489330 0.782306
vt 0.489105 0.787486
vt 0.493663 0.786999
vt 0.498877 0.787883
vt 0.499339 0.785185
vt 0.503926 0.784430
vt 0.158814 0.224850
vt 0.483910 0.786489
vt 0.160224 0.229479
vt 0.161955 0.234635
vt 0.158626 0.233119
vt 0.164850 0.233782
vt 0.114920 0.264699
vt 0.126423 0.262744
vt 0.128361 0.267543
vt 0.113637 0.268549
vt 0.131610 0.262654
vt 0.130937 0.269145
vt 0.547576 0.749586
vt 0.551811 0.749860
vt 0.549678 0.764982
vt 0.546766 0.764991
vt 0.139442 0.263024
vt 0.137474 0.268052
vt 0.543121 0.767560
vt 0.542281 0.764495
vt 0.547267 0.773267
vt 0.504196 0.786936
vt 0.164423 0.238800
vt 0.161953 0.239356
vt 0.158421 0.239345
vt 0.538460 0.777165
vt 0.538229 0.782511
vt 0.533828 0.783281
vt 0.534875 0.776534
vt 0.530537 0.776406
vt 0.529545 0.782263
vt 0.537035 0.788014
vt 0.531837 0.788420
vt 0.526629 0.788209
vt 0.518990 0.781525
vt 0.525290 0.781781
vt 0.524158 0.785878
vt 0.518560 0.785811
vt 0.519154 0.789846
vt 0.543285 0.781450
vt 0.542235 0.776009
vt 0.538623 0.768910
vt 0.535057 0.769568
vt 0.535301 0.762628
vt 0.538296 0.763509
vt 0.536055 0.749742
vt 0.539187 0.749809
vt 0.542735 0.749123
vt 0.539897 0.738899
vt 0.542578 0.739039
vt 0.547284 0.739355
vt 0.552112 0.739284
vt 0.548113 0.730755
vt 0.552584 0.731179
vt 0.104217 0.265577
vt 0.103383 0.269641
vt 0.096114 0.270584
vt 0.096467 0.266489
vt 0.546662 0.722247
vt 0.550344 0.721370
vt 0.540954 0.716428
vt 0.544550 0.715118
vt 0.534013 0.718096
vt 0.535206 0.714668
vt 0.537610 0.711904
vt 0.527778 0.718951
vt 0.528108 0.715435
vt 0.529350 0.711506
vt 0.520196 0.716534
vt 0.520018 0.712503
vt 0.093011 0.246845
vt 0.088953 0.255126
vt 0.085405 0.252924
vt 0.088375 0.245167
vt 0.088429 0.235702
vt 0.084759 0.244166
vt 0.520292 0.720392
vt 0.510706 0.722664
vt 0.511808 0.719330
vt 0.085848 0.230080
vt 0.089804 0.230314
vt 0.084737 0.235178
vt 0.086236 0.226730
vt 0.089764 0.226453
vt 0.085476 0.223188
vt 0.089394 0.222930
vt 0.084967 0.218423
vt 0.089121 0.219652
vt 0.085247 0.215476
vt 0.088965 0.216691
vt 0.084862 0.212504
vt 0.088443 0.213801
vt 0.084510 0.209503
vt 0.087787 0.210344
vt 0.083705 0.205634
vt 0.086871 0.206134
vt 0.090035 0.206911
vt 0.086875 0.202236
vt 0.090140 0.203107
vt 0.093106 0.203902
vt 0.090840 0.199818
vt 0.096477 0.204471
vt 0.101527 0.204649
vt 0.109640 0.200980
vt 0.108779 0.204170
vt 0.107947 0.207412
vt 0.117866 0.202890
vt 0.117518 0.206369
vt 0.117078 0.209887
vt 0.128973 0.204699
vt 0.128811 0.208496
vt 0.128523 0.211719
vt 0.116407 0.212829
vt 0.128359 0.214990
vt 0.115694 0.215458
vt 0.128037 0.218153
vt 0.139735 0.212767
vt 0.139734 0.216543
vt 0.139962 0.220754
vt 0.128006 0.221667
vt 0.140039 0.224850
vt 0.128247 0.224965
vt 0.139820 0.209486
vt 0.139788 0.205937
vt 0.129005 0.201333
vt 0.129273 0.198174
vt 0.118322 0.199252
vt 0.129528 0.194240
vt 0.118478 0.194806
vt 0.109057 0.196355
vt 0.118410 0.190069
vt 0.107866 0.191492
vt 0.130642 0.186270
vt 0.130232 0.189977
vt 0.118299 0.185916
vt 0.106289 0.186553
vt 0.118207 0.181455
vt 0.105427 0.182600
vt 0.098407 0.191672
vt 0.096576 0.187253
vt 0.096279 0.182536
vt 0.093526 0.195823
vt 0.090518 0.192980
vt 0.087828 0.190018
vt 0.087643 0.197856
vt 0.084392 0.195855
vt 0.083895 0.200921
vt 0.131464 0.181766
vt 0.142112 0.181953
vt 0.151172 0.182317
vt 0.157554 0.185598
vt 0.482909 0.716371
vt 0.486355 0.718181
vt 0.499675 0.728748
vt 0.496139 0.728140
vt 0.496882 0.723210
vt 0.499974 0.724970
vt 0.499256 0.734085
vt 0.495200 0.733977
vt 0.498631 0.741564
vt 0.494395 0.741580
vt 0.490442 0.741211
vt 0.493205 0.751105
vt 0.489164 0.751240
vt 0.485232 0.750826
vt 0.486651 0.740827
vt 0.481560 0.750248
vt 0.483055 0.740522
vt 0.478374 0.749703
vt 0.479757 0.740122
vt 0.480737 0.732886
vt 0.476552 0.739899
vt 0.477297 0.733007
vt 0.481489 0.727659
vt 0.474058 0.739989
vt 0.474095 0.733430
vt 0.475322 0.749175
vt 0.472845 0.748908
vt 0.473848 0.759196
vt 0.471133 0.758631
vt 0.468714 0.757803
vt 0.469044 0.767169
vt 0.466841 0.766768
vt 0.463920 0.766396
vt 0.465602 0.757110
vt 0.460691 0.766068
vt 0.462061 0.756535
vt 0.457010 0.765762
vt 0.458337 0.756149
vt 0.459259 0.772979
vt 0.462639 0.773543
vt 0.470212 0.773195
vt 0.471868 0.767794
vt 0.472421 0.775183
vt 0.474789 0.768276
vt 0.476855 0.759771
vt 0.477895 0.768716
vt 0.480051 0.760311
vt 0.482093 0.769384
vt 0.483633 0.760917
vt 0.486274 0.769987
vt 0.487802 0.761422
vt 0.490567 0.770486
vt 0.491910 0.761740
vt 0.494508 0.770653
vt 0.495704 0.761763
vt 0.497441 0.750830
vt 0.502843 0.761838
vt 0.503611 0.750251
vt 0.504117 0.741031
vt 0.514820 0.749063
vt 0.514449 0.739367
vt 0.504368 0.733990
vt 0.513217 0.732376
vt 0.523661 0.738039
vt 0.522797 0.730641
vt 0.504435 0.728760
vt 0.511881 0.727131
vt 0.521196 0.724999
vt 0.529015 0.729783
vt 0.528300 0.723890
vt 0.533230 0.738301
vt 0.529227 0.738015
vt 0.533586 0.729756
vt 0.533551 0.722728
vt 0.532454 0.749297
vt 0.528343 0.749006
vt 0.523174 0.748727
vt 0.527248 0.761916
vt 0.521999 0.761740
vt 0.514294 0.761692
vt 0.520872 0.770211
vt 0.513164 0.770574
vt 0.502447 0.770933
vt 0.511873 0.776929
vt 0.511129 0.780825
vt 0.519649 0.776606
vt 0.511196 0.784738
vt 0.511356 0.787998
vt 0.161351 0.254733
vt 0.161381 0.247317
vt 0.164717 0.246814
vt 0.165662 0.254602
vt 0.156641 0.255878
vt 0.157301 0.248053
vt 0.150223 0.256954
vt 0.151393 0.249652
vt 0.141561 0.257822
vt 0.143334 0.251347
vt 0.133375 0.257918
vt 0.135140 0.251404
vt 0.126267 0.258217
vt 0.126779 0.251824
vt 0.115726 0.259618
vt 0.116169 0.253083
vt 0.115985 0.244200
vt 0.104873 0.260961
vt 0.096955 0.262254
vt 0.149428 0.262058
vt 0.156198 0.261622
vt 0.542496 0.787053
vt 0.147316 0.266277
vt 0.161002 0.260741
vt 0.164597 0.260419
vt 0.525922 0.776356
vt 0.526575 0.770019
vt 0.531110 0.769965
vt 0.531507 0.762071
vt 0.536506 0.738614
vt 0.503976 0.724637
vt 0.165153 0.203558
vt 0.169585 0.203727
vt 0.471804 0.787980
vt 0.453852 0.781612
vn -0.2408 -0.8022 -0.5463
vn -0.2284 -0.8894 -0.3960
vn -0.5177 -0.3512 -0.7801
vn -0.5195 -0.2078 -0.8288
vn -0.0817 -0.8423 -0.5329
vn -0.4110 -0.3552 -0.8396
vn 0.9963 -0.0453 -0.0726
vn 0.7287 -0.6456 -0.2285
vn 0.8292 0.0872 -0.5522
vn 0.8702 0.2955 -0.3942
vn 0.4854 -0.6879 -0.5396
vn 0.6243 0.2343 -0.7453
vn 0.5134 0.5850 -0.6279
vn 0.6911 0.6994 -0.1821
vn 0.4975 0.7430 -0.4477
vn 0.6744 0.4946 -0.5482
vn 0.8501 0.3056 -0.4290
vn 0.9628 0.2394 -0.1257
vn 0.6291 0.7646 -0.1401
vn 0.3852 0.8202 -0.4229
vn 0.1637 -0.9734 -0.1605
vn 0.2056 -0.9761 -0.0696
vn 0.7797 0.2049 0.5917
vn 0.4360 0.8052 0.4019
vn 0.0492 0.5700 0.8201
vn 0.2591 0.1457 0.9548
vn -0.0358 0.9903 0.1346
vn -0.4456 0.6738 0.5895
vn -0.3344 0.4107 0.8482
vn 0.9931 -0.1074 0.0464
vn 0.9786 -0.0925 -0.1838
vn 0.8609 -0.3579 -0.3616
vn 0.7515 -0.6587 -0.0356
vn 0.8127 -0.5767 0.0838
vn 0.6152 -0.6613 -0.4291
vn 0.9957 -0.0928 -0.0021
vn 0.9955 -0.0831 0.0445
vn 0.3210 -0.9379 -0.1315
vn 0.5768 -0.6430 -0.5038
vn 0.4628 -0.7662 -0.4458
vn 0.8649 -0.0789 0.4957
vn 0.6489 -0.6823 0.3367
vn 0.1339 -0.9902 0.0401
vn 0.3094 0.0030 0.9509
vn 0.1343 0.0778 0.9879
vn -0.4159 0.7814 0.4653
vn -0.5717 0.5104 0.6424
vn -0.1623 0.9360 0.3122
vn 0.4068 0.6421 0.6498
vn 0.6066 0.1178 0.7863
vn 0.5865 -0.4882 -0.6463
vn 0.6132 0.3615 -0.7023
vn 0.5825 0.5189 -0.6257
vn 0.5074 -0.5663 -0.6495
vn 0.4063 0.4121 -0.8156
vn 0.2746 0.8810 -0.3853
vn 0.4436 0.6809 -0.5828
vn 0.5051 0.5765 -0.6423
vn 0.2537 -0.8493 -0.4629
vn 0.0458 -0.3896 -0.9198
vn 0.5268 -0.4481 -0.7223
vn -0.1020 0.1571 -0.9823
vn 0.3753 0.4966 -0.7826
vn 0.4642 -0.1264 0.8766
vn 0.3661 -0.6060 0.7063
vn -0.2819 -0.2265 0.9323
vn -0.1717 -0.8023 0.5717
vn 0.6783 0.1043 0.7273
vn 0.4371 0.6543 0.6171
vn 0.3165 0.5237 0.7909
vn 0.4856 0.1724 0.8570
vn 0.3889 0.2753 0.8792
vn 0.0446 0.8362 0.5466
vn 0.0158 0.9799 0.1987
vn 0.2662 -0.9178 -0.2945
vn 0.4625 -0.6971 -0.5478
vn 0.1084 -0.9878 -0.1115
vn 0.0547 -0.9979 -0.0350
vn 0.4744 -0.7028 -0.5301
vn 0.0559 -0.9958 -0.0728
vn 0.0258 -0.9993 -0.0279
vn 0.7014 0.4270 0.5707
vn 0.1835 0.8143 0.5506
vn -0.0454 0.9973 0.0574
vn -0.1049 0.9832 0.1496
vn -0.1314 0.9662 0.2219
vn 0.5502 0.4432 -0.7077
vn 0.3591 0.3429 -0.8680
vn 0.2233 0.7253 -0.6513
vn 0.2715 0.9059 -0.3251
vn -0.1318 0.2020 -0.9705
vn -0.0771 0.7032 -0.7068
vn 0.0251 0.9991 -0.0333
vn -0.1424 -0.7291 0.6694
vn -0.3027 -0.8369 0.4561
vn -0.4116 -0.7842 0.4643
vn -0.3725 -0.8267 0.4217
vn 0.0013 -0.1103 0.9939
vn 0.4711 -0.2601 0.8429
vn 0.8044 -0.3095 0.5072
vn 0.3998 -0.8945 0.2002
vn 0.0432 -0.9987 -0.0278
vn 0.4205 0.8709 0.2544
vn 0.8913 0.4306 0.1419
vn -0.0300 0.9821 0.1859
vn 0.0628 0.9925 0.1050
vn 0.2057 0.9728 0.1062
vn 0.0323 0.9634 0.2660
vn -0.2541 0.6802 0.6876
vn 0.2293 0.5349 0.8132
vn 0.5099 0.7130 0.4813
vn 0.7985 0.1112 0.5916
vn 0.2960 0.0134 0.9551
vn -0.4259 0.0213 0.9045
vn -0.5065 0.1192 -0.8540
vn -0.3739 0.0763 -0.9243
vn 0.2567 0.4374 -0.8618
vn -0.2948 0.6091 -0.7363
vn 0.3260 0.8730 -0.3628
vn 0.4984 0.6567 -0.5660
vn 0.3681 0.8270 -0.4250
vn 0.2084 0.9448 -0.2527
vn -0.1183 0.6621 -0.7400
vn -0.1647 0.1573 -0.9737
vn -0.2439 0.0285 -0.9694
vn -0.5515 0.1342 -0.8233
vn -0.5137 0.0661 -0.8554
vn -0.3393 0.0401 -0.9398
vn 0.3876 -0.4154 0.8229
vn -0.2804 -0.2843 0.9168
vn -0.2634 -0.4819 0.8357
vn 0.1792 -0.7685 0.6142
vn -0.2411 -0.8962 0.3725
vn -0.5448 -0.4281 0.7211
vn -0.6140 -0.1662 0.7716
vn 0.1045 0.9914 0.0788
vn 0.1228 0.9919 0.0337
vn 0.2344 0.9720 0.0153
vn -0.0128 0.9957 0.0921
vn 0.0364 0.9947 0.0965
vn 0.1708 0.9807 0.0955
vn -0.0918 -0.7431 -0.6629
vn -0.4571 -0.1703 -0.8730
vn 0.2261 -0.9352 -0.2725
vn 0.4683 -0.6737 -0.5717
vn -0.0881 0.9925 0.0846
vn -0.2371 0.9559 -0.1734
vn -0.7254 0.2372 -0.6462
vn -0.7654 0.6249 -0.1539
vn -0.6157 0.6938 0.3736
vn -0.6637 -0.0244 -0.7476
vn -0.9930 0.0384 -0.1120
vn -0.8858 0.4055 0.2259
vn -0.5039 0.6888 0.5212
vn -0.5386 0.7075 0.4576
vn -0.2581 0.9611 0.0982
vn -0.7026 0.6554 -0.2770
vn -0.9765 -0.0098 -0.2153
vn -0.9839 0.0514 -0.1711
vn -0.8546 0.1173 -0.5058
vn -0.4461 -0.8809 0.1581
vn -0.4448 -0.8500 0.2821
vn -0.8574 -0.5092 0.0748
vn -0.7533 -0.5719 -0.3248
vn -0.9245 -0.1421 -0.3538
vn -0.9708 -0.0873 -0.2233
vn -0.8771 -0.0959 -0.4706
vn -0.6817 -0.6610 -0.3137
vn -0.1371 -0.9878 -0.0737
vn -0.6982 0.6909 0.1876
vn -0.2313 0.7966 -0.5585
vn 0.0079 0.9479 -0.3186
vn -0.4087 0.9107 -0.0602
vn -0.2679 0.6267 -0.7318
vn -0.0535 0.8303 -0.5548
vn -0.1920 0.9814 0.0087
vn -0.0276 0.9978 -0.0610
vn -0.0538 0.9979 0.0371
vn -0.0824 0.9964 0.0174
vn -0.3398 0.9199 -0.1958
vn -0.9680 0.2451 0.0539
vn -0.8037 0.5942 0.0316
vn -0.4965 0.7871 0.3661
vn -0.7130 0.4245 0.5581
vn -0.6448 0.5764 -0.5020
vn 0.0307 -0.9930 -0.1139
vn -0.0603 -0.9835 -0.1705
vn -0.2330 -0.7769 -0.5849
vn 0.0555 -0.9574 -0.2835
vn -0.0259 -0.9671 -0.2530
vn -0.6197 -0.6238 -0.4763
vn -0.9681 0.1999 -0.1509
vn -0.6369 0.4072 -0.6547
vn -0.7132 0.0450 -0.6995
vn -0.3722 -0.7427 -0.5566
vn -0.4507 -0.8327 -0.3216
vn -0.6066 0.7195 -0.3382
vn -0.4824 0.6882 -0.5419
vn -0.2830 0.8920 0.3525
vn -0.3284 0.9200 0.2138
vn -0.7541 0.4544 0.4742
vn -0.6556 0.2264 0.7204
vn -0.3671 0.8979 0.2427
vn -0.8049 -0.0846 0.5874
vn -0.6729 -0.2762 0.6862
vn -0.3994 0.8857 0.2366
vn -0.6554 0.2648 0.7074
vn -0.8114 -0.2747 0.5159
vn -0.7946 -0.1757 0.5812
vn -0.8955 -0.0425 -0.4431
vn -0.6853 0.6234 -0.3764
vn -0.6566 0.5778 -0.4848
vn -0.6626 -0.0531 0.7471
vn -0.8809 -0.0257 0.4727
vn -0.8774 0.0418 0.4779
vn -0.6948 -0.0479 0.7176
vn -0.5674 -0.6515 0.5036
vn -0.7769 -0.4410 0.4495
vn -0.9573 0.2625 -0.1212
vn -0.9304 0.3634 -0.0471
vn -0.9964 -0.0642 -0.0555
vn -0.0289 -0.9925 -0.1187
vn -0.3086 -0.9464 0.0951
vn -0.6002 -0.7913 -0.1165
vn -0.4359 -0.8013 -0.4098
vn -0.8051 0.0948 -0.5856
vn -0.8019 0.1651 0.5741
vn -0.5919 -0.2149 0.7769
vn -0.6879 0.0421 0.7245
vn -0.6350 -0.1148 0.7639
vn -0.6455 -0.3413 0.6832
vn -0.7304 0.0275 0.6824
vn -0.5579 -0.5958 0.5777
vn -0.6678 -0.1062 0.7367
vn -0.6858 -0.0671 0.7246
vn -0.6542 -0.2534 0.7126
vn -0.6915 -0.0734 0.7187
vn -0.6914 -0.2245 0.6868
vn -0.6618 0.1235 0.7394
vn -0.6311 -0.2088 0.7470
vn -0.6216 0.0837 0.7788
vn -0.3707 0.7865 0.4939
vn -0.3871 0.7170 0.5797
vn -0.3825 -0.2531 0.8886
vn 0.3224 -0.2536 0.9120
vn 0.7297 -0.4320 0.5300
vn 0.7888 -0.1667 0.5917
vn 0.8284 -0.4323 0.3562
vn 0.9161 -0.1021 0.3877
vn 0.9095 0.2469 0.3345
vn 0.9695 -0.0009 0.2450
vn 0.9169 0.3644 0.1627
vn 0.5658 0.8214 0.0723
vn 0.6090 0.7648 0.2102
vn 0.9820 0.1168 0.1485
vn 0.8763 -0.4200 0.2361
vn 0.9068 -0.3837 0.1746
vn 0.9137 -0.3304 0.2366
vn 0.9191 0.1906 0.3448
vn 0.6846 -0.3618 0.6328
vn 0.5513 0.1755 0.8157
vn 0.5901 -0.3067 0.7468
vn 0.5734 0.1491 0.8056
vn 0.7585 0.1116 0.6420
vn 0.5727 0.0167 0.8196
vn 0.1245 -0.0404 0.9914
vn 0.4402 -0.0514 0.8964
vn 0.3961 -0.0414 0.9173
vn 0.8503 -0.0634 0.5225
vn 0.8112 -0.0264 0.5842
vn 0.7837 0.0016 0.6211
vn 0.9866 -0.0024 0.1634
vn 0.9493 0.0077 0.3142
vn 0.8780 0.2495 0.4086
vn 0.9684 0.0600 -0.2420
vn 0.5054 0.8221 0.2622
vn 0.0829 0.9962 -0.0271
vn 0.4314 0.7703 -0.4696
vn 0.2239 0.9346 -0.2766
vn -0.0212 0.9993 0.0324
vn 0.4415 0.7590 -0.4786
vn 0.0910 0.9902 -0.1060
vn -0.2836 0.9043 0.3192
vn 0.2206 0.9423 -0.2516
vn -0.1722 0.9664 0.1910
vn -0.5500 0.5815 0.5994
vn -0.5738 0.5195 0.6332
vn -0.4374 0.7630 0.4759
vn -0.3416 0.8600 0.3792
vn -0.0878 0.9933 0.0754
vn -0.4765 0.7013 0.5301
vn -0.1360 0.9792 0.1502
vn -0.3384 0.8846 0.3210
vn -0.1885 0.9735 0.1297
vn -0.5733 0.7042 0.4187
vn -0.3117 0.9352 0.1678
vn -0.5086 0.6484 0.5665
vn -0.1065 0.9876 0.1153
vn 0.5061 0.6448 -0.5728
vn 0.3133 0.8734 -0.3729
vn 0.3580 0.8307 -0.4264
vn 0.0332 0.9979 -0.0563
vn 0.0744 0.9908 -0.1133
vn 0.2276 0.9460 -0.2308
vn 0.2746 0.9167 -0.2901
vn 0.4245 0.8783 -0.2198
vn 0.5426 0.5337 -0.6487
vn 0.2356 0.9293 -0.2844
vn 0.5633 0.5340 -0.6305
vn 0.7836 0.4867 -0.3861
vn 0.6055 0.3457 -0.7168
vn 0.8513 0.2863 -0.4396
vn 0.9495 0.3136 -0.0008
vn 0.9909 0.1346 0.0090
vn 0.9687 0.1386 -0.2062
vn 0.9949 0.1004 -0.0112
vn 0.9694 0.0803 -0.2320
vn 0.6060 0.2536 -0.7539
vn 0.5983 0.2277 -0.7682
vn 0.4371 0.3245 -0.8388
vn -0.0991 0.3103 -0.9455
vn 0.4483 -0.8908 0.0742
vn 0.3196 -0.9275 0.1938
vn 0.2100 -0.9627 -0.1706
vn 0.1312 -0.9873 -0.0895
vn 0.1446 -0.9679 -0.2054
vn 0.0991 -0.9828 -0.1556
vn 0.0256 -0.9962 -0.0827
vn 0.1103 -0.9808 -0.1608
vn 0.0390 -0.9969 -0.0678
vn -0.4021 -0.8081 0.4304
vn -0.4124 -0.8077 0.4213
vn -0.4741 -0.7183 0.5091
vn -0.4688 -0.7200 0.5117
vn -0.0646 -0.9964 0.0546
vn -0.0532 -0.9976 0.0450
vn -0.0163 -0.9996 0.0218
vn 0.2929 -0.8946 -0.3376
vn 0.3700 -0.8338 -0.4098
vn 0.0750 -0.9970 0.0164
vn 0.5388 -0.5402 -0.6465
vn 0.5116 -0.6364 -0.5773
vn 0.2767 -0.9036 -0.3272
vn 0.5926 -0.4551 -0.6646
vn 0.3304 -0.8637 -0.3807
vn 0.5849 -0.4988 -0.6396
vn 0.3534 -0.8475 -0.3960
vn 0.5757 -0.5325 -0.6205
vn 0.2778 -0.9102 -0.3073
vn -0.0031 -1.0000 -0.0043
vn 0.0078 -0.9996 -0.0265
vn 0.0406 -0.9975 -0.0571
vn 0.0275 -0.9986 -0.0442
vn 0.2290 -0.9350 -0.2706
vn 0.1583 -0.9596 -0.2326
vn 0.0126 -0.9890 -0.1475
vn -0.0223 -0.9979 -0.0612
vn 0.4336 -0.7150 -0.5485
vn 0.3976 -0.8050 -0.4403
vn 0.0389 -0.9396 -0.3402
vn 0.0151 -0.9994 -0.0296
vn -0.0403 -0.9986 0.0342
vn -0.3784 -0.8295 0.4107
vn -0.4430 -0.7577 0.4792
vn -0.3533 -0.8511 0.3883
vn -0.3825 -0.8262 0.4137
vn 0.0245 -0.9992 -0.0313
vn 0.0402 -0.9981 -0.0469
vn 0.1129 -0.9816 -0.1541
vn 0.1219 -0.9811 -0.1500
vn 0.1396 -0.9728 -0.1848
vn 0.1440 -0.9714 -0.1889
vn 0.1399 -0.9692 -0.2026
vn 0.0647 -0.9915 -0.1124
vn 0.0725 -0.9889 -0.1293
vn 0.0877 -0.9863 -0.1396
vn 0.0336 -0.9961 -0.0810
vn 0.0412 -0.9966 -0.0720
vn 0.1663 -0.9785 -0.1218
vn 0.1041 -0.9935 -0.0456
vn 0.0490 -0.9951 -0.0860
vn 0.1050 -0.9915 -0.0767
vn 0.4840 -0.8749 0.0132
vn 0.4343 -0.8990 0.0564
vn 0.4515 -0.8903 0.0588
vn 0.0841 -0.9950 -0.0538
vn 0.4458 -0.8838 0.1419
vn -0.1123 -0.9912 0.0707
vn 0.0330 -0.9963 -0.0790
vn 0.0191 -0.9982 0.0569
vn 0.3992 -0.8676 0.2965
vn -0.2243 -0.9547 0.1957
vn 0.0099 -0.9983 -0.0579
vn 0.0390 -0.9957 -0.0838
vn -0.0197 -0.9997 -0.0107
vn 0.0463 -0.9953 -0.0855
vn 0.0384 -0.9956 -0.0860
vn 0.0521 -0.9947 -0.0890
vn 0.0502 -0.9954 -0.0822
vn 0.0636 -0.9936 -0.0939
vn 0.0453 -0.9955 -0.0836
vn -0.0305 -0.9880 -0.1512
vn 0.0382 -0.9955 -0.0867
vn -0.3974 -0.8044 -0.4417
vn -0.7681 0.0359 -0.6393
vn -0.6923 0.5597 -0.4554
vn -0.6444 0.5903 -0.4860
vn -0.7208 0.4624 -0.5163
vn -0.6936 0.4998 -0.5187
vn -0.5430 0.7361 -0.4041
vn -0.6451 0.6375 -0.4213
vn -0.2212 0.9657 -0.1363
vn -0.3525 0.9282 -0.1191
vn -0.1099 0.9937 0.0211
vn -0.1468 0.9887 0.0316
vn -0.0730 0.9922 0.1006
vn -0.0694 0.9946 0.0773
vn -0.0758 0.9905 0.1152
vn -0.0515 0.9939 0.0975
vn 0.0126 0.9957 0.0913
vn -0.0871 0.9820 0.1678
vn -0.0811 0.9711 0.2246
vn -0.7725 0.6338 -0.0396
vn -0.1402 -0.9876 0.0705
vn -0.0685 -0.9970 0.0357
vn -0.4322 -0.7707 0.4682
vn -0.3306 -0.8813 0.3376
vn -0.4419 -0.7801 0.4429
vn -0.5850 -0.0010 -0.8111
f 1/1/1 2/2/2 3/3/3 4/4/4
f 5/5/5 6/6/6 3/3/3 2/2/2
f 7/7/7 8/8/8 9/9/9 10/10/10
f 11/11/11 12/12/12 9/9/9 8/8/8
f 13/13/13 10/14/10 9/15/9 12/16/12
f 14/17/14 15/18/15 16/19/16 17/20/17
f 18/21/18 17/20/17 16/19/16 19/22/19
f 20/23/20 19/22/19 16/19/16 15/18/15
f 21/24/21 11/11/11 8/8/8 22/25/22
f 23/26/23 24/27/24 25/28/25 26/29/26
f 27/30/27 28/31/28 25/28/25 24/27/24
f 29/32/29 26/29/26 25/28/25 28/31/28
f 30/33/30 31/34/31 32/35/32 33/36/33
f 34/37/34 35/38/35 32/35/32 36/39/36
f 37/40/37 36/39/36 32/35/32 31/34/31
f 38/41/38 33/36/33 32/35/32 39/42/39
f 40/43/40 39/42/39 32/35/32 35/38/35
f 41/44/41 42/45/42 34/37/34 36/39/36
f 43/46/43 35/38/35 34/37/34 42/45/42
f 44/47/44 26/29/26 29/32/29 45/48/45
f 46/49/46 47/50/47 29/32/29 28/31/28
f 48/51/48 49/52/49 29/32/29 47/50/47
f 50/53/50 45/48/45 29/32/29 49/52/49
f 51/54/51 52/55/52 53/56/53 54/57/54
f 55/58/55 56/59/56 53/60/53 52/61/52
f 57/62/57 58/63/58 53/60/53 56/59/56
f 59/64/59 60/65/60 55/66/55 61/67/61
f 62/68/62 63/69/63 55/58/55 60/70/60
f 57/62/57 56/59/56 55/58/55 63/69/63
f 41/44/41 64/71/64 65/72/65 42/45/42
f 66/73/66 67/74/67 65/72/65 64/71/64
f 43/46/43 42/45/42 65/72/65 67/74/67
f 68/75/68 69/76/69 70/77/70 71/78/71
f 72/79/72 71/78/71 70/77/70 73/80/73
f 74/81/74 73/80/73 70/77/70 69/76/69
f 75/82/75 76/83/76 77/84/77 78/85/78
f 79/86/79 80/87/80 77/84/77 76/83/76
f 81/88/81 78/85/78 77/84/77 80/87/80
f 82/89/82 72/79/72 73/80/73 83/90/83
f 84/91/84 85/92/85 73/80/73 74/81/74
f 86/93/86 83/90/83 73/80/73 85/92/85
f 87/94/87 88/95/88 89/96/89 90/97/90
f 91/98/91 92/99/92 89/96/89 88/95/88
f 93/100/93 90/97/90 89/96/89 92/99/92
f 67/74/67 66/73/66 94/101/94 95/102/95
f 96/103/96 95/102/95 94/101/94 97/104/97
f 98/105/98 99/106/99 94/101/94 66/73/66
f 100/107/100 101/108/101 94/101/94 99/106/99
f 102/109/102 97/104/97 94/101/94 101/108/101
f 82/89/82 83/90/83 103/110/103 104/111/104
f 86/93/86 105/112/105 103/110/103 83/90/83
f 106/113/106 107/114/107 103/110/103 105/112/105
f 108/115/108 109/116/109 110/117/110 111/118/111
f 112/119/112 111/118/111 110/117/110 113/120/113
f 114/121/114 113/120/113 110/117/110 109/116/109
f 115/122/115 116/123/116 117/124/117 118/125/118
f 119/126/119 120/127/120 117/124/117 121/128/121
f 122/129/122 118/125/118 117/124/117 120/127/120
f 123/130/123 121/128/121 117/124/117 124/131/124
f 125/132/125 124/131/124 117/124/117 116/123/116
f 126/133/126 4/134/4 3/135/3 127/136/127
f 128/137/128 127/136/127 3/135/3 6/138/6
f 129/139/129 130/140/130 131/141/131 132/142/132
f 133/143/133 132/142/132 131/141/131 134/144/134
f 135/145/135 134/144/134 131/141/131 130/140/130
f 107/114/107 136/146/136 137/147/137 138/148/138
f 139/149/139 140/150/140 137/147/137 136/146/136
f 141/151/141 138/148/138 137/147/137 140/150/140
f 142/152/142 143/153/143 6/6/6 5/5/5
f 144/154/144 145/155/145 142/152/142 5/5/5
f 146/156/146 121/128/121 123/130/123 147/157/147
f 148/158/148 147/157/147 123/130/123 124/131/124
f 147/157/147 148/158/148 149/159/149 150/160/150
f 151/161/151 152/162/152 149/159/149 148/158/148
f 153/163/153 150/160/150 149/159/149 152/162/152
f 154/164/154 150/160/150 153/163/153 155/165/155
f 156/166/156 155/165/155 153/163/153 157/167/157
f 158/168/158 159/169/159 153/163/153 152/162/152
f 160/170/160 157/167/157 153/163/153 159/169/159
f 161/171/161 162/172/162 163/173/163 164/174/164
f 165/175/165 164/176/164 163/177/163 166/178/166
f 167/179/167 166/178/166 163/177/163 168/180/168
f 169/181/169 168/182/168 163/173/163 162/172/162
f 170/183/170 171/184/171 172/185/172 173/186/173
f 174/187/174 175/188/175 172/185/172 171/184/171
f 176/189/176 173/186/173 172/185/172 177/190/177
f 178/191/178 177/190/177 172/185/172 179/192/179
f 180/193/180 179/192/179 172/185/172 175/188/175
f 160/170/160 181/194/181 182/195/182 157/167/157
f 156/166/156 157/167/157 182/195/182 183/196/183
f 184/197/184 183/196/183 182/195/182 181/194/181
f 185/198/185 180/193/180 175/188/175 174/187/174
f 186/199/186 187/200/187 188/201/188 189/202/189
f 190/203/190 189/202/189 188/201/188 191/204/191
f 192/205/192 191/204/191 188/201/188 193/206/193
f 194/207/194 193/206/193 188/201/188 195/208/195
f 196/209/196 195/208/195 188/201/188 187/200/187
f 160/170/160 167/179/167 192/210/192 181/194/181
f 184/197/184 181/194/181 192/210/192 170/183/170
f 168/182/168 191/204/191 192/205/192 167/211/167
f 171/184/171 170/183/170 192/210/192 193/212/193
f 197/213/197 198/214/198 193/212/193 194/215/194
f 199/216/199 200/217/200 201/218/201 202/219/202
f 203/220/203 204/221/204 201/218/201 200/217/200
f 205/222/205 202/223/202 201/224/201 204/225/204
f 206/226/206 207/227/207 204/221/204 203/220/203
f 208/228/208 209/229/209 204/225/204 207/230/207
f 210/231/210 194/207/194 195/208/195 196/209/196
f 210/232/210 211/233/211 197/213/197 194/215/194
f 212/234/212 198/214/198 197/213/197 211/233/211
f 213/235/213 214/236/214 215/237/215 216/238/216
f 217/239/217 216/238/216 215/237/215 218/240/218
f 219/241/219 220/242/220 215/237/215 214/236/214
f 221/243/221 218/240/218 215/237/215 220/242/220
f 222/244/222 223/245/223 224/246/224 225/247/225
f 218/240/218 221/243/221 224/246/224 223/245/223
f 226/248/226 225/247/225 224/246/224 221/243/221
f 207/230/207 227/249/227 228/250/228 208/228/208
f 229/251/229 208/228/208 228/250/228 213/235/213
f 214/236/214 213/235/213 228/250/228 227/249/227
f 216/238/216 230/252/230 229/251/229 213/235/213
f 231/253/231 232/254/232 229/251/229 230/252/230
f 209/229/209 208/228/208 229/251/229 232/254/232
f 233/255/233 234/256/234 232/254/232 231/253/231
f 235/257/235 209/229/209 232/254/232 234/256/234
f 204/225/204 209/229/209 235/257/235 205/222/205
f 236/258/236 237/259/237 235/257/235 234/256/234
f 238/260/238 205/222/205 235/257/235 237/259/237
f 202/223/202 205/222/205 238/260/238 239/261/239
f 135/145/135 240/262/240 238/260/238 237/259/237
f 241/263/241 239/261/239 238/260/238 240/262/240
f 242/264/242 239/265/239 241/266/241 243/267/243
f 244/268/244 114/269/114 241/263/241 240/262/240
f 109/116/109 243/267/243 241/266/241 114/121/114
f 135/145/135 130/140/130 244/268/244 240/262/240
f 129/139/129 245/270/245 244/268/244 130/140/130
f 113/271/113 114/269/114 244/268/244 245/270/245
f 246/272/246 247/273/247 245/270/245 129/139/129
f 112/274/112 113/271/113 245/270/245 247/273/247
f 248/275/248 249/276/249 247/273/247 246/272/246
f 250/277/250 112/274/112 247/273/247 249/276/249
f 251/278/251 252/279/252 250/277/250 249/276/249
f 253/280/253 254/281/254 250/282/250 252/283/252
f 111/118/111 112/119/112 250/282/250 254/281/254
f 138/148/138 141/151/141 254/281/254 253/280/253
f 108/115/108 111/118/111 254/281/254 141/151/141
f 104/111/104 103/110/103 253/280/253 252/283/252
f 107/114/107 138/148/138 253/280/253 103/110/103
f 255/284/255 104/111/104 252/283/252 251/285/251
f 256/286/256 257/287/257 255/288/255 251/278/251
f 258/289/258 259/290/259 255/284/255 257/291/257
f 82/89/82 104/111/104 255/284/255 259/290/259
f 260/292/260 261/293/261 259/290/259 258/289/258
f 72/79/72 82/89/82 259/290/259 261/293/261
f 262/294/262 263/295/263 261/293/261 260/292/260
f 71/78/71 72/79/72 261/293/261 263/295/263
f 100/296/100 264/297/264 263/295/263 262/294/262
f 68/75/68 71/78/71 263/295/263 264/297/264
f 99/298/99 265/299/265 264/297/264 100/296/100
f 50/53/50 68/75/68 264/297/264 265/299/265
f 98/300/98 266/301/266 265/299/265 99/298/99
f 45/48/45 50/53/50 265/299/265 266/301/266
f 267/302/267 268/303/268 266/301/266 98/300/98
f 44/47/44 45/48/45 266/301/266 268/303/268
f 269/304/269 270/305/270 268/303/268 267/302/267
f 271/306/271 44/47/44 268/303/268 270/305/270
f 272/307/272 273/308/273 271/306/271 270/305/270
f 274/309/274 23/26/23 271/306/271 273/308/273
f 26/29/26 44/47/44 271/306/271 23/26/23
f 275/310/275 18/21/18 274/309/274 273/308/273
f 19/22/19 276/311/276 274/309/274 18/21/18
f 24/27/24 23/26/23 274/309/274 276/311/276
f 20/23/20 277/312/277 276/311/276 19/22/19
f 27/30/27 24/27/24 276/311/276 277/312/277
f 278/313/278 279/314/279 277/312/277 20/23/20
f 280/315/280 27/30/27 277/312/277 279/314/279
f 281/316/281 282/317/282 280/315/280 279/314/279
f 283/318/283 46/49/46 280/315/280 282/317/282
f 28/31/28 27/30/27 280/315/280 46/49/46
f 284/319/284 285/320/285 283/318/283 282/317/282
f 286/321/286 287/322/287 283/318/283 285/320/285
f 47/50/47 46/49/46 283/318/283 287/322/287
f 288/323/288 289/324/289 287/322/287 286/321/286
f 48/51/48 47/50/47 287/322/287 289/324/289
f 290/325/290 84/91/84 289/324/289 288/323/288
f 74/81/74 48/51/48 289/324/289 84/91/84
f 291/326/291 292/327/292 290/325/290 288/323/288
f 293/328/293 294/329/294 290/325/290 292/327/292
f 85/92/85 84/91/84 290/325/290 294/329/294
f 295/330/295 296/331/296 294/329/294 293/328/293
f 86/93/86 85/92/85 294/329/294 296/331/296
f 173/186/173 176/189/176 296/331/296 295/330/295
f 105/112/105 86/93/86 296/331/296 176/189/176
f 183/196/183 184/197/184 295/330/295 293/328/293
f 170/183/170 173/186/173 295/330/295 184/197/184
f 156/166/156 183/196/183 293/328/293 292/327/292
f 155/165/155 156/166/156 292/327/292 291/326/291
f 154/164/154 155/165/155 291/326/291 297/332/297
f 286/321/286 297/332/297 291/326/291 288/323/288
f 146/156/146 154/164/154 297/332/297 298/333/298
f 285/320/285 298/333/298 297/332/297 286/321/286
f 121/128/121 146/156/146 298/333/298 119/126/119
f 284/319/284 119/126/119 298/333/298 285/320/285
f 120/127/120 119/126/119 284/319/284 299/334/299
f 281/316/281 299/334/299 284/319/284 282/317/282
f 122/129/122 120/127/120 299/334/299 300/335/300
f 301/336/301 300/335/300 299/334/299 281/316/281
f 302/337/302 300/335/300 301/336/301 303/338/303
f 279/314/279 278/313/278 301/336/301 281/316/281
f 304/339/304 303/338/303 301/336/301 278/313/278
f 305/340/305 303/338/303 304/339/304 306/341/306
f 20/23/20 15/18/15 304/339/304 278/313/278
f 14/17/14 306/341/306 304/339/304 15/18/15
f 307/342/307 308/343/308 305/340/305 309/344/309
f 302/337/302 303/338/303 305/340/305 308/343/308
f 310/345/310 309/344/309 305/340/305 306/341/306
f 311/346/311 309/344/309 310/345/310 312/347/312
f 14/17/14 313/348/313 310/345/310 306/341/306
f 314/349/314 312/347/312 310/345/310 313/348/313
f 10/14/10 312/347/312 314/349/314 7/350/7
f 315/351/315 316/352/316 314/349/314 313/348/313
f 30/353/30 7/350/7 314/349/314 316/352/316
f 275/310/275 317/354/317 316/352/316 315/351/315
f 31/355/31 30/353/30 316/352/316 317/354/317
f 273/308/273 272/307/272 317/354/317 275/310/275
f 37/356/37 31/355/31 317/354/317 272/307/272
f 14/17/14 17/20/17 315/351/315 313/348/313
f 18/21/18 275/310/275 315/351/315 17/20/17
f 58/63/58 318/357/318 311/346/311 13/13/13
f 307/342/307 309/344/309 311/346/311 318/357/318
f 10/14/10 13/13/13 311/346/311 312/347/312
f 57/62/57 319/358/319 318/357/318 58/63/58
f 87/94/87 307/342/307 318/357/318 319/358/319
f 63/69/63 320/359/320 319/358/319 57/62/57
f 88/95/88 87/94/87 319/358/319 320/359/320
f 91/98/91 88/95/88 320/359/320 321/360/321
f 62/68/62 321/360/321 320/359/320 63/69/63
f 115/122/115 91/98/91 321/360/321 126/133/126
f 4/134/4 126/133/126 321/360/321 62/68/62
f 87/94/87 90/97/90 308/343/308 307/342/307
f 93/100/93 302/337/302 308/343/308 90/97/90
f 122/129/122 300/335/300 302/337/302 93/100/93
f 269/304/269 37/356/37 272/307/272 270/305/270
f 36/39/36 37/40/37 269/361/269 41/44/41
f 64/71/64 41/44/41 269/361/269 267/362/267
f 66/73/66 64/71/64 267/362/267 98/105/98
f 322/363/322 323/364/323 262/365/262 260/366/260
f 101/108/101 100/107/100 262/365/262 323/364/323
f 324/367/324 325/368/325 323/364/323 322/363/322
f 102/109/102 101/108/101 323/364/323 325/368/325
f 326/369/326 327/370/327 325/368/325 324/367/324
f 328/371/328 102/109/102 325/368/325 327/370/327
f 329/372/329 330/373/330 328/371/328 327/370/327
f 331/374/331 332/375/332 328/371/328 330/373/330
f 97/104/97 102/109/102 328/371/328 332/375/332
f 333/376/333 334/377/334 332/375/332 331/374/331
f 96/103/96 97/104/97 332/375/332 334/377/334
f 335/378/335 336/379/336 334/377/334 333/376/333
f 337/380/337 96/103/96 334/377/334 336/379/336
f 338/381/338 339/382/339 337/380/337 336/379/336
f 40/43/40 340/383/340 337/380/337 339/382/339
f 95/102/95 96/103/96 337/380/337 340/383/340
f 35/38/35 43/46/43 340/383/340 40/43/40
f 67/74/67 95/102/95 340/383/340 43/46/43
f 341/384/341 342/385/342 339/382/339 338/381/338
f 39/42/39 40/43/40 339/382/339 342/385/342
f 76/83/76 75/82/75 342/385/342 341/384/341
f 38/41/38 39/42/39 342/385/342 75/82/75
f 343/386/343 344/387/344 341/384/341 338/381/338
f 79/86/79 76/83/76 341/384/341 344/387/344
f 345/388/345 346/389/346 344/387/344 343/386/343
f 347/390/347 79/86/79 344/387/344 346/389/346
f 348/391/348 349/392/349 347/390/347 346/389/346
f 350/393/350 351/394/351 347/390/347 349/392/349
f 80/87/80 79/86/79 347/390/347 351/394/351
f 352/395/352 353/396/353 351/394/351 350/393/350
f 81/88/81 80/87/80 351/394/351 353/396/353
f 354/397/354 355/398/355 353/396/353 352/395/352
f 21/24/21 81/88/81 353/396/353 355/398/355
f 51/54/51 54/57/54 355/398/355 354/397/354
f 11/11/11 21/24/21 355/398/355 54/57/54
f 356/399/356 59/64/59 354/397/354 352/395/352
f 61/67/61 51/54/51 354/397/354 59/64/59
f 2/2/2 1/1/1 356/399/356 357/400/357
f 60/65/60 59/64/59 356/399/356 1/1/1
f 350/393/350 357/400/357 356/399/356 352/395/352
f 5/5/5 2/2/2 357/400/357 144/154/144
f 349/392/349 144/154/144 357/400/357 350/393/350
f 145/155/145 144/154/144 349/392/349 348/391/348
f 358/401/358 145/155/145 348/391/348 359/402/359
f 345/388/345 359/402/359 348/391/348 346/389/346
f 360/403/360 358/401/358 359/402/359 361/404/361
f 362/405/362 361/404/361 359/402/359 345/388/345
f 363/406/363 361/404/361 362/405/362 364/407/364
f 343/386/343 335/378/335 362/405/362 345/388/345
f 333/376/333 364/407/364 362/405/362 335/378/335
f 162/172/162 161/171/161 363/406/363 365/408/365
f 360/403/360 361/404/361 363/406/363 161/171/161
f 366/409/366 365/408/365 363/406/363 364/407/364
f 367/410/367 365/408/365 366/409/366 368/411/368
f 333/376/333 331/374/331 366/409/366 364/407/364
f 330/373/330 368/411/368 366/409/366 331/374/331
f 190/203/190 169/181/169 367/410/367 369/412/369
f 162/172/162 365/408/365 367/410/367 169/181/169
f 370/413/370 369/412/369 367/410/367 368/411/368
f 371/414/371 369/412/369 370/413/370 372/415/372
f 330/373/330 329/372/329 370/413/370 368/411/368
f 373/416/373 372/415/372 370/413/370 329/372/329
f 374/417/374 372/415/372 373/416/373 375/418/375
f 327/370/327 326/369/326 373/416/373 329/372/329
f 376/419/376 375/418/375 373/416/373 326/369/326
f 377/420/377 375/418/375 376/419/376 378/421/378
f 324/367/324 379/422/379 376/419/376 326/369/326
f 380/423/380 378/421/378 376/419/376 379/422/379
f 381/424/381 378/421/378 380/423/380 382/425/382
f 383/426/383 384/427/384 380/423/380 379/422/379
f 385/428/385 382/425/382 380/423/380 384/427/384
f 386/429/386 382/425/382 385/428/385 387/430/387
f 257/287/257 256/286/256 385/428/385 384/427/384
f 248/275/248 387/430/387 385/428/385 256/286/256
f 388/431/388 389/432/389 386/429/386 390/433/390
f 381/424/381 382/425/382 386/429/386 389/432/389
f 391/434/391 390/433/390 386/429/386 387/430/387
f 133/143/133 390/433/390 391/434/391 132/142/132
f 248/275/248 246/272/246 391/434/391 387/430/387
f 129/139/129 132/142/132 391/434/391 246/272/246
f 392/435/392 393/436/393 389/432/389 388/431/388
f 394/437/394 381/424/381 389/432/389 393/436/393
f 395/438/395 396/439/396 394/437/394 393/436/393
f 397/440/397 377/420/377 394/437/394 396/439/396
f 378/421/378 381/424/381 394/437/394 377/420/377
f 398/441/398 399/442/399 397/440/397 396/439/396
f 400/443/400 374/417/374 397/440/397 399/442/399
f 375/418/375 377/420/377 397/440/397 374/417/374
f 401/444/401 186/199/186 400/443/400 399/442/399
f 189/202/189 371/414/371 400/443/400 186/199/186
f 372/415/372 374/417/374 400/443/400 371/414/371
f 222/244/222 402/445/402 401/444/401 403/446/403
f 187/200/187 186/199/186 401/444/401 402/445/402
f 398/441/398 403/446/403 401/444/401 399/442/399
f 225/247/225 404/447/404 402/445/402 222/244/222
f 196/209/196 187/200/187 402/445/402 404/447/404
f 226/248/226 405/448/405 404/447/404 225/247/225
f 210/231/210 196/209/196 404/447/404 405/448/405
f 406/449/406 407/450/407 405/451/405 226/452/226
f 211/233/211 210/232/210 405/451/405 407/450/407
f 408/453/408 409/454/409 407/450/407 406/449/406
f 212/234/212 211/233/211 407/450/407 409/454/409
f 410/455/410 411/456/411 409/454/409 408/453/408
f 185/198/185 212/234/212 409/454/409 411/456/411
f 412/457/412 413/458/413 411/456/411 410/455/410
f 180/193/180 185/198/185 411/456/411 413/458/413
f 414/459/414 415/460/415 413/458/413 412/457/412
f 179/192/179 180/193/180 413/458/413 415/460/415
f 416/461/416 417/462/417 415/460/415 414/459/414
f 178/191/178 179/192/179 415/460/415 417/462/417
f 418/463/418 419/464/419 417/462/417 416/461/416
f 420/465/420 178/191/178 417/462/417 419/464/419
f 177/190/177 178/191/178 420/465/420 106/113/106
f 139/149/139 136/146/136 420/465/420 419/464/419
f 107/114/107 106/113/106 420/465/420 136/146/136
f 421/466/421 139/149/139 419/464/419 418/463/418
f 199/216/199 242/264/242 421/466/421 418/463/418
f 243/267/243 422/467/422 421/466/421 242/264/242
f 140/150/140 139/149/139 421/466/421 422/467/422
f 109/116/109 108/115/108 422/467/422 243/267/243
f 141/151/141 140/150/140 422/467/422 108/115/108
f 200/217/200 199/216/199 418/463/418 416/461/416
f 203/220/203 200/217/200 416/461/416 414/459/414
f 206/226/206 203/220/203 414/459/414 412/457/412
f 423/468/423 206/226/206 412/457/412 410/455/410
f 408/453/408 219/469/219 423/468/423 410/455/410
f 214/236/214 227/249/227 423/470/423 219/241/219
f 207/227/207 206/226/206 423/468/423 227/471/227
f 220/472/220 219/469/219 408/453/408 406/449/406
f 221/473/221 220/472/220 406/449/406 226/452/226
f 223/245/223 222/244/222 403/446/403 424/474/424
f 425/475/425 424/474/424 403/446/403 398/441/398
f 217/239/217 424/474/424 425/475/425 426/476/426
f 396/439/396 395/438/395 425/475/425 398/441/398
f 427/477/427 426/476/426 425/475/425 395/438/395
f 230/252/230 426/476/426 427/477/427 231/253/231
f 393/436/393 392/435/392 427/477/427 395/438/395
f 233/255/233 231/253/231 427/477/427 392/435/392
f 216/238/216 217/239/217 426/476/426 230/252/230
f 218/240/218 223/245/223 424/474/424 217/239/217
f 428/478/428 233/255/233 392/435/392 388/431/388
f 234/256/234 233/255/233 428/478/428 236/258/236
f 390/433/390 133/143/133 428/478/428 388/431/388
f 134/144/134 236/258/236 428/478/428 133/143/133
f 258/479/258 257/287/257 384/427/384 383/426/383
f 324/367/324 322/363/322 383/426/383 379/422/379
f 260/366/260 258/479/258 383/426/383 322/363/322
f 190/203/190 369/412/369 371/414/371 189/202/189
f 336/379/336 335/378/335 343/386/343 338/381/338
f 249/276/249 248/275/248 256/286/256 251/278/251
f 202/219/202 239/265/239 242/264/242 199/216/199
f 134/144/134 135/145/135 237/259/237 236/258/236
f 174/187/174 198/214/198 212/234/212 185/198/185
f 171/184/171 193/212/193 198/214/198 174/187/174
f 168/182/168 169/181/169 190/203/190 191/204/191
f 106/113/106 105/112/105 176/189/176 177/190/177
f 159/169/159 166/178/166 167/179/167 160/170/160
f 159/169/159 158/168/158 165/175/165 166/178/166
f 429/480/429 143/481/143 165/175/165 158/168/158
f 142/152/142 164/174/164 165/482/165 143/153/143
f 152/162/152 151/161/151 429/480/429 158/168/158
f 125/132/125 128/137/128 429/480/429 151/161/151
f 6/138/6 143/481/143 429/480/429 128/137/128
f 142/152/142 360/403/360 161/171/161 164/174/164
f 147/157/147 150/160/150 154/164/154 146/156/146
f 124/131/124 125/132/125 151/161/151 148/158/148
f 142/152/142 145/155/145 358/401/358 360/403/360
f 116/123/116 127/136/127 128/137/128 125/132/125
f 116/123/116 115/122/115 126/133/126 127/136/127
f 92/99/92 118/125/118 122/129/122 93/100/93
f 92/99/92 91/98/91 115/122/115 118/125/118
f 22/25/22 78/85/78 81/88/81 21/24/21
f 22/25/22 38/41/38 75/82/75 78/85/78
f 49/52/49 48/51/48 74/81/74 69/76/69
f 50/53/50 49/52/49 69/76/69 68/75/68
f 1/1/1 4/4/4 62/483/62 60/65/60
f 12/16/12 53/60/53 58/63/58 13/13/13
f 12/12/12 11/11/11 54/57/54 53/56/53
f 8/8/8 33/36/33 38/41/38 22/25/22
f 8/8/8 7/7/7 30/33/30 33/36/33
f 51/54/51 61/67/61 55/66/55 52/55/52
