# split from a merged terrain OBJ by scripts/split-terrain-obj-parts.py
o part-031
v 0.233878 0.195318 -0.013566
v 0.225375 0.195138 0.002579
v 0.218196 0.195059 -0.007326
v 0.218045 0.195041 -0.016184
v 0.221719 0.205412 0.001476
v 0.215768 0.206277 -0.009699
v 0.214638 0.206775 -0.021707
v 0.216464 0.206368 -0.030298
v 0.218042 0.195023 -0.026488
v 0.234460 0.195478 -0.026763
v 0.231672 0.209391 -0.032926
v 0.264474 0.210451 0.006057
v 0.253244 0.211117 0.018979
v 0.246874 0.202050 0.017084
v 0.255014 0.201273 0.009151
v 0.235258 0.195247 0.015519
v 0.231336 0.203765 0.011812
v 0.263182 0.201022 -0.008719
v 0.248252 0.196139 -0.008941
v 0.238756 0.215116 0.021458
v 0.231990 0.211874 0.016626
v 0.223529 0.212339 0.009892
v 0.251092 0.196446 -0.026899
v 0.265906 0.199391 -0.026432
v 0.247823 0.211053 -0.034314
v 0.261717 0.213511 -0.035480
v 0.272282 0.210340 -0.010795
v 0.272919 0.211983 -0.026737
v 0.277502 0.216622 -0.025729
v 0.278262 0.216245 -0.013356
v 0.271902 0.218162 -0.036379
v 0.277418 0.220684 -0.029337
v 0.281882 0.221372 -0.015177
v 0.275597 0.226252 -0.029616
v 0.270483 0.227383 -0.035580
v 0.257642 0.228535 -0.038572
v 0.257757 0.223241 -0.039129
v 0.245249 0.218813 0.025386
v 0.248918 0.223928 0.024450
v 0.233599 0.222548 0.023217
v 0.235296 0.219102 0.024785
v 0.250168 0.228375 0.021269
v 0.234992 0.228284 0.020848
v 0.223838 0.224768 0.015067
v 0.226802 0.222046 0.020886
v 0.271525 0.235816 -0.031788
v 0.272250 0.229662 -0.038358
v 0.210295 0.219424 -0.031519
v 0.213432 0.215140 -0.036469
v 0.229447 0.219321 -0.042412
v 0.228695 0.223081 -0.038996
v 0.278606 0.225495 -0.015392
v 0.275712 0.234790 -0.017869
v 0.274629 0.251579 -0.020823
v 0.272087 0.251739 -0.032463
v 0.264563 0.229069 -0.038471
v 0.263135 0.236911 -0.035145
v 0.263079 0.251173 -0.035050
v 0.209177 0.220468 -0.027173
v 0.213105 0.227647 -0.032906
v 0.217341 0.227262 -0.035797
v 0.213071 0.234471 -0.032487
v 0.212068 0.228691 -0.039037
v 0.210556 0.232237 -0.022583
v 0.229331 0.218123 0.021874
v 0.223711 0.216939 0.016083
v 0.236052 0.235251 0.022032
v 0.223540 0.233919 0.013942
v 0.215190 0.232140 0.003768
v 0.214997 0.224011 0.005669
v 0.216123 0.217509 0.008322
v 0.279172 0.299992 -0.020486
v 0.272416 0.303713 -0.019986
v 0.272191 0.304955 -0.009975
v 0.277738 0.302136 -0.006336
v 0.260918 0.311615 -0.016319
v 0.261968 0.309560 -0.001589
v 0.264453 0.305528 0.010297
v 0.275397 0.283770 -0.026968
v 0.272028 0.281782 -0.035529
v 0.273903 0.286497 -0.039480
v 0.277202 0.289862 -0.028851
v 0.281207 0.292139 -0.030289
v 0.278451 0.290191 -0.039933
v 0.261473 0.281793 -0.038337
v 0.260697 0.287493 -0.041534
v 0.274291 0.292085 -0.045277
v 0.269491 0.291862 -0.045440
v 0.257650 0.292074 -0.045283
v 0.230157 0.227846 -0.038501
v 0.281475 0.300266 -0.000417
v 0.265306 0.303249 0.017791
v 0.261364 0.298735 0.026330
v 0.278769 0.295598 0.002664
v 0.253329 0.303968 0.023994
v 0.253404 0.301293 0.031878
v 0.239113 0.301905 0.029779
v 0.240583 0.297356 0.028876
v 0.241062 0.294167 0.023984
v 0.259568 0.293436 0.020463
v 0.220285 0.235329 -0.035353
v 0.219822 0.228569 -0.038950
v 0.245304 0.334917 -0.007564
v 0.249780 0.331928 -0.014514
v 0.246396 0.336121 -0.017831
v 0.244899 0.339754 -0.012300
v 0.247208 0.323617 -0.021226
v 0.245998 0.329479 -0.024435
v 0.241943 0.340802 -0.016206
v 0.238851 0.335682 -0.017693
v 0.242536 0.345977 -0.012963
v 0.243566 0.344607 -0.011787
v 0.239277 0.335471 -0.007985
v 0.240472 0.340713 -0.010733
v 0.242200 0.347498 -0.011894
v 0.238247 0.329291 -0.006639
v 0.245133 0.328214 -0.005560
v 0.237708 0.327526 -0.021652
v 0.234446 0.328759 -0.016550
v 0.240429 0.332242 -0.022861
v 0.239424 0.340616 -0.013788
v 0.237055 0.335724 -0.012286
v 0.235181 0.329617 -0.011124
v 0.240663 0.345739 -0.013264
v 0.258992 0.309891 -0.027851
v 0.250116 0.321150 -0.010251
v 0.242456 0.322863 -0.004575
v 0.248515 0.327751 -0.010635
v 0.251097 0.314183 0.005300
v 0.240942 0.315301 0.007851
v 0.234542 0.318849 -0.023147
v 0.243885 0.314129 -0.029230
v 0.237375 0.321822 -0.004950
v 0.254514 0.302275 -0.037510
v 0.267501 0.296573 -0.039588
v 0.247142 0.291795 -0.045597
v 0.245367 0.298619 -0.040068
v 0.269670 0.301689 -0.031536
v 0.240289 0.308389 -0.032962
v 0.235404 0.314152 -0.029111
v 0.232193 0.321016 -0.015014
v 0.228798 0.308995 -0.030591
v 0.224575 0.311594 -0.022809
v 0.223106 0.312446 -0.013982
v 0.218866 0.280539 -0.037098
v 0.212457 0.280735 -0.032859
v 0.210255 0.287876 -0.036612
v 0.218926 0.287241 -0.040377
v 0.219129 0.291256 -0.045318
v 0.210016 0.291153 -0.045143
v 0.209398 0.282271 -0.023419
v 0.206106 0.289707 -0.024916
v 0.205904 0.291257 -0.043565
v 0.204176 0.292778 -0.035592
v 0.202157 0.293693 -0.025547
v 0.203411 0.293186 -0.045806
v 0.205992 0.295019 -0.041564
v 0.205470 0.296444 -0.035007
v 0.217261 0.294417 -0.043734
v 0.215813 0.297164 -0.039735
v 0.239432 0.305364 0.024586
v 0.233432 0.303635 -0.036402
v 0.221181 0.303671 -0.032899
v 0.224601 0.299782 -0.038759
v 0.235967 0.296938 -0.041714
v 0.226402 0.295802 -0.042760
v 0.236593 0.291546 -0.045680
v 0.227120 0.291548 -0.045682
v 0.237152 0.287638 -0.041378
v 0.227036 0.287421 -0.041089
v 0.227135 0.281063 -0.038002
v 0.237794 0.281634 -0.038282
v 0.227980 0.267399 -0.035422
v 0.239135 0.267626 -0.035491
v 0.248451 0.287718 -0.041655
v 0.249641 0.281978 -0.038382
v 0.251223 0.267901 -0.035381
v 0.240935 0.250417 -0.035284
v 0.253130 0.250684 -0.035234
v 0.262273 0.268284 -0.034989
v 0.271285 0.269154 -0.032083
v 0.274486 0.270198 -0.023254
v 0.276291 0.284865 -0.015038
v 0.274536 0.271338 -0.011751
v 0.274154 0.251092 -0.007977
v 0.273041 0.233737 -0.002705
v 0.268436 0.271898 0.003006
v 0.265665 0.250288 0.006838
v 0.264399 0.234280 0.011633
v 0.274184 0.225476 0.000825
v 0.263701 0.227032 0.014392
v 0.252503 0.249194 0.018547
v 0.251130 0.235341 0.021683
v 0.237641 0.248616 0.019703
v 0.255053 0.270808 0.018142
v 0.239334 0.269710 0.020374
v 0.225859 0.268932 0.013644
v 0.225400 0.247716 0.012785
v 0.216271 0.268745 0.000941
v 0.216930 0.247275 0.001353
v 0.211147 0.268229 -0.011479
v 0.211627 0.247621 -0.009863
v 0.209753 0.231728 -0.007543
v 0.208939 0.223348 -0.007004
v 0.211306 0.248228 -0.020746
v 0.211279 0.267845 -0.021563
v 0.213045 0.267441 -0.030411
v 0.213297 0.249064 -0.030652
v 0.219414 0.267267 -0.034700
v 0.219935 0.249779 -0.034665
v 0.229159 0.250196 -0.035201
v 0.230179 0.236435 -0.035575
v 0.230645 0.228398 -0.038830
v 0.242156 0.237163 -0.035548
v 0.241455 0.228370 -0.038731
v 0.243979 0.223260 -0.039178
v 0.254655 0.237473 -0.035750
v 0.245142 0.219317 -0.042362
v 0.259325 0.219357 -0.042280
v 0.209021 0.283337 -0.012589
v 0.214748 0.284451 0.001388
v 0.211277 0.292591 0.003131
v 0.205205 0.290823 -0.012404
v 0.206652 0.297208 0.005554
v 0.200784 0.295207 -0.012172
v 0.207491 0.300115 0.005288
v 0.202807 0.299001 -0.012582
v 0.203806 0.297567 -0.025760
v 0.208315 0.302423 -0.013293
v 0.209972 0.301067 -0.025440
v 0.213272 0.299567 -0.034151
v 0.217081 0.305897 -0.024472
v 0.214902 0.306486 -0.013668
v 0.212097 0.302933 0.002494
v 0.217591 0.306786 -0.000512
v 0.225117 0.312888 -0.004576
v 0.226685 0.308692 0.012009
v 0.231461 0.313849 0.003988
v 0.233389 0.321132 -0.009673
v 0.239820 0.309442 0.018506
v 0.252825 0.308337 0.017536
v 0.223925 0.304454 0.017989
v 0.221215 0.301894 0.022721
v 0.221257 0.296903 0.022442
v 0.223608 0.292956 0.018371
v 0.240410 0.286441 0.021596
v 0.225622 0.285706 0.015262
v 0.257140 0.286420 0.018446
v 0.271381 0.285599 0.000767
v 0.274416 0.293116 0.001456
v 0.278564 0.291155 -0.016693
v 0.283552 0.294106 -0.018322
v 0.281851 0.295456 -0.031653
v 0.284286 0.297571 -0.019939
v 0.276572 0.297818 -0.031819
v 0.279227 0.294474 -0.038476
v 0.275040 0.295163 -0.040098
v 0.209590 0.217655 -0.002442
v 0.208383 0.217428 -0.015511
v 0.215643 0.212919 -0.000016
v 0.210832 0.214047 -0.013681
v 0.276724 0.221046 0.004845
v 0.264084 0.222543 0.018337
v 0.271468 0.217140 0.004726
v 0.259971 0.217053 0.020096
vt 0.244465 0.356472
vt 0.229477 0.358645
vt 0.227826 0.353934
vt 0.230331 0.350892
vt 0.220327 0.360539
vt 0.219231 0.355244
vt 0.220074 0.349396
vt 0.144911 0.468104
vt 0.150096 0.469048
vt 0.148466 0.474890
vt 0.142971 0.475383
vt 0.151289 0.486815
vt 0.156243 0.480055
vt 0.158886 0.472048
vt 0.240080 0.379993
vt 0.231111 0.376761
vt 0.231299 0.370555
vt 0.238249 0.373498
vt 0.231590 0.364618
vt 0.224045 0.365550
vt 0.249180 0.375440
vt 0.246602 0.366237
vt 0.222478 0.374391
vt 0.220705 0.370364
vt 0.217103 0.366458
vt 0.163980 0.490322
vt 0.166586 0.481794
vt 0.176036 0.482140
vt 0.174683 0.491526
vt 0.168159 0.473378
vt 0.177201 0.473578
vt 0.250110 0.383105
vt 0.256101 0.388389
vt 0.253734 0.391873
vt 0.248966 0.389004
vt 0.257511 0.394938
vt 0.253954 0.395328
vt 0.248406 0.393234
vt 0.260726 0.380926
vt 0.262026 0.389633
vt 0.254048 0.398959
vt 0.257646 0.398219
vt 0.176627 0.462929
vt 0.183169 0.466141
vt 0.182453 0.470925
vt 0.175857 0.465714
vt 0.223278 0.378810
vt 0.223817 0.382262
vt 0.217286 0.377943
vt 0.219103 0.376710
vt 0.223033 0.385304
vt 0.215996 0.380813
vt 0.212182 0.374108
vt 0.215398 0.375015
vt 0.186724 0.459303
vt 0.186846 0.466005
vt 0.182972 0.463774
vt 0.150227 0.460601
vt 0.152231 0.464085
vt 0.160828 0.464610
vt 0.160672 0.461748
vt 0.247332 0.396298
vt 0.252155 0.405150
vt 0.245002 0.401448
vt 0.242036 0.410134
vt 0.247907 0.413150
vt 0.179854 0.462868
vt 0.181262 0.458499
vt 0.182773 0.451367
vt 0.187893 0.452014
vt 0.147832 0.460237
vt 0.152025 0.456588
vt 0.154292 0.457950
vt 0.152788 0.452480
vt 0.155488 0.455524
vt 0.147527 0.452235
vt 0.217243 0.374150
vt 0.215438 0.370968
vt 0.214536 0.384192
vt 0.209885 0.378056
vt 0.205593 0.372001
vt 0.208323 0.369215
vt 0.211525 0.367475
vt 0.227894 0.437185
vt 0.226226 0.440757
vt 0.220669 0.439019
vt 0.220524 0.435074
vt 0.220543 0.446113
vt 0.214066 0.440651
vt 0.210762 0.435058
vt 0.236435 0.427486
vt 0.241557 0.428899
vt 0.241446 0.432420
vt 0.235623 0.431261
vt 0.235098 0.434042
vt 0.240149 0.435322
vt 0.186826 0.435378
vt 0.187460 0.431790
vt 0.193699 0.434812
vt 0.192245 0.437568
vt 0.194714 0.430651
vt 0.196855 0.432846
vt 0.192668 0.429865
vt 0.186962 0.428223
vt 0.162102 0.459360
vt 0.219575 0.430930
vt 0.208421 0.431637
vt 0.203961 0.425047
vt 0.218743 0.427450
vt 0.931142 0.055846
vt 0.936352 0.054767
vt 0.932546 0.059400
vt 0.927048 0.059381
vt 0.944378 0.052597
vt 0.943883 0.055538
vt 0.199924 0.412965
vt 0.207247 0.420043
vt 0.197998 0.415468
vt 0.158530 0.452466
vt 0.157889 0.456941
vt 0.206125 0.456172
vt 0.211902 0.455098
vt 0.210828 0.458457
vt 0.206975 0.458882
vt 0.187705 0.406379
vt 0.186957 0.403249
vt 0.189758 0.399766
vt 0.191204 0.401567
vt 0.188002 0.396369
vt 0.190779 0.396393
vt 0.185756 0.398275
vt 0.188959 0.393483
vt 0.189632 0.393512
vt 0.957280 0.025428
vt 0.954777 0.025059
vt 0.954230 0.021109
vt 0.957112 0.022183
vt 0.957431 0.018368
vt 0.956042 0.019247
vt 0.956928 0.029165
vt 0.953727 0.028618
vt 0.183303 0.403475
vt 0.182346 0.400565
vt 0.185800 0.401221
vt 0.186102 0.395287
vt 0.184263 0.396342
vt 0.180971 0.398032
vt 0.188257 0.393395
vt 0.226654 0.449674
vt 0.215878 0.453835
vt 0.212068 0.449416
vt 0.207809 0.452923
vt 0.206685 0.450501
vt 0.210758 0.452982
vt 0.207427 0.442930
vt 0.201747 0.444681
vt 0.179508 0.407366
vt 0.184124 0.412179
vt 0.955927 0.033154
vt 0.953435 0.031806
vt 0.187869 0.421132
vt 0.193732 0.425880
vt 0.181540 0.426776
vt 0.182111 0.422029
vt 0.196844 0.421593
vt 0.192550 0.415930
vt 0.181291 0.415127
vt 0.179045 0.411201
vt 0.179069 0.402626
vt 0.174407 0.412207
vt 0.171903 0.407707
vt 0.965830 0.038024
vt 0.962834 0.032187
vt 0.966295 0.030257
vt 0.969558 0.035637
vt 0.163722 0.429856
vt 0.159364 0.429023
vt 0.159600 0.424948
vt 0.165005 0.426308
vt 0.166524 0.423479
vt 0.162818 0.421925
vt 0.154151 0.426543
vt 0.154368 0.421416
vt 0.160937 0.420728
vt 0.158232 0.419417
vt 0.154403 0.417604
vt 0.162017 0.420075
vt 0.161659 0.418441
vt 0.159437 0.417269
vt 0.166966 0.420998
vt 0.166391 0.417751
vt 0.198119 0.439668
vt 0.196500 0.439207
vt 0.199378 0.435350
vt 0.203165 0.434826
vt 0.176548 0.416995
vt 0.169290 0.413876
vt 0.171203 0.417901
vt 0.176661 0.421812
vt 0.171324 0.421290
vt 0.175883 0.425361
vt 0.170898 0.424150
vt 0.175163 0.428423
vt 0.169574 0.427195
vt 0.168411 0.430727
vt 0.174410 0.431955
vt 0.166867 0.437883
vt 0.172885 0.439468
vt 0.181240 0.429929
vt 0.180822 0.433553
vt 0.179306 0.441146
vt 0.171319 0.448673
vt 0.177613 0.450299
vt 0.185148 0.442752
vt 0.190270 0.444269
vt 0.238103 0.419801
vt 0.243169 0.421850
vt 0.230035 0.424802
vt 0.231937 0.417134
vt 0.235700 0.406606
vt 0.238117 0.397174
vt 0.223483 0.412594
vt 0.227022 0.401217
vt 0.229902 0.392614
vt 0.239535 0.392572
vt 0.231260 0.388367
vt 0.218153 0.395619
vt 0.220950 0.388577
vt 0.210472 0.390624
vt 0.213525 0.406461
vt 0.205854 0.401349
vt 0.959734 0.071855
vt 0.964868 0.082472
vt 0.956995 0.083106
vt 0.951380 0.071893
vt 0.206181 0.381957
vt 0.968633 0.069830
vt 0.972670 0.080689
vt 0.201899 0.376973
vt 0.976115 0.068004
vt 0.979623 0.078155
vt 0.199823 0.367170
vt 0.195910 0.373660
vt 0.205365 0.363801
vt 0.150574 0.443824
vt 0.141278 0.450043
vt 0.145252 0.442594
vt 0.206830 0.354470
vt 0.201446 0.359539
vt 0.148712 0.432182
vt 0.153539 0.434024
vt 0.158074 0.435650
vt 0.155841 0.445002
vt 0.162226 0.436678
vt 0.160211 0.445556
vt 0.165166 0.446811
vt 0.163840 0.454002
vt 0.162900 0.458882
vt 0.169928 0.455918
vt 0.167892 0.460908
vt 0.168591 0.464089
vt 0.176501 0.457476
vt 0.168377 0.467156
vt 0.175702 0.468558
vt 0.149105 0.425734
vt 0.966259 0.061571
vt 0.974247 0.059922
vt 0.965518 0.056678
vt 0.974824 0.055218
vt 0.149245 0.419428
vt 0.965066 0.052959
vt 0.975165 0.051126
vt 0.149348 0.416373
vt 0.964498 0.051428
vt 0.973672 0.049067
vt 0.979046 0.046128
vt 0.980073 0.047643
vt 0.971676 0.045935
vt 0.976719 0.042798
vt 0.163600 0.413906
vt 0.156287 0.415531
vt 0.159469 0.410931
vt 0.166002 0.409339
vt 0.969074 0.042516
vt 0.973467 0.039241
vt 0.963703 0.048282
vt 0.962400 0.044749
vt 0.960812 0.039344
vt 0.954197 0.045634
vt 0.954808 0.039948
vt 0.959724 0.033090
vt 0.959474 0.028477
vt 0.962076 0.028125
vt 0.946654 0.044926
vt 0.949240 0.038763
vt 0.205039 0.437362
vt 0.199353 0.440330
vt 0.953414 0.049722
vt 0.945075 0.049096
vt 0.953565 0.052976
vt 0.954030 0.055661
vt 0.946001 0.058942
vt 0.955162 0.058937
vt 0.947909 0.063386
vt 0.956546 0.063118
vt 0.209681 0.415085
vt 0.202420 0.409936
vt 0.221498 0.420101
vt 0.219349 0.424263
vt 0.229426 0.428652
vt 0.229079 0.431995
vt 0.234928 0.436225
vt 0.228795 0.434243
vt 0.234216 0.439599
vt 0.198761 0.430781
vt 0.197047 0.428967
vt 0.200446 0.425791
vt 0.201740 0.427975
vt 0.232504 0.443885
vt 0.238643 0.436985
vt 0.209681 0.362839
vt 0.208753 0.358097
vt 0.214349 0.361899
vt 0.211803 0.356876
vt 0.240211 0.388830
vt 0.232029 0.385246
vt 0.241288 0.385177
vt 0.231322 0.381557
vt 0.958307 0.019700
vt 0.958992 0.022207
vt 0.959251 0.025119
vt 0.208604 0.351907
vt 0.189214 0.392517
vn 0.0373 -0.9993 -0.0052
vn -0.5124 -0.7652 0.3898
vn -0.6537 -0.7187 0.2371
vn -0.6121 -0.7908 -0.0006
vn -0.7857 -0.3290 0.5238
vn -0.9096 -0.3474 0.2279
vn -0.9370 -0.3442 -0.0592
vn -0.6013 -0.5307 -0.5974
vn -0.5055 -0.7252 -0.4674
vn 0.0106 -0.8371 -0.5469
vn -0.0265 -0.5496 -0.8350
vn 0.6625 -0.6152 0.4274
vn 0.3172 -0.5597 0.7656
vn 0.1056 -0.4254 0.8988
vn 0.5146 -0.7247 0.4583
vn -0.1064 -0.7493 0.6536
vn -0.5385 -0.3460 0.7683
vn 0.5636 -0.8058 0.1821
vn 0.1856 -0.9807 0.0621
vn -0.1167 -0.5799 0.8063
vn -0.3579 -0.5509 0.7539
vn -0.5868 -0.5862 0.5586
vn 0.1185 -0.8584 -0.4991
vn 0.4875 -0.7873 -0.3775
vn 0.0266 -0.5864 -0.8096
vn 0.2636 -0.4980 -0.8261
vn 0.7464 -0.6397 0.1832
vn 0.7060 -0.6211 -0.3404
vn 0.7981 -0.5544 -0.2359
vn 0.7643 -0.6399 0.0804
vn 0.5786 -0.1941 -0.7922
vn 0.8931 -0.0613 -0.4456
vn 0.9999 0.0118 -0.0043
vn 0.8874 0.2594 -0.3811
vn 0.6043 -0.1586 -0.7808
vn 0.0717 0.1869 -0.9798
vn 0.1513 0.2223 -0.9632
vn 0.0623 -0.1984 0.9781
vn 0.1792 0.3132 0.9326
vn -0.2891 0.3646 0.8851
vn -0.1856 -0.2285 0.9557
vn 0.2469 0.2755 0.9290
vn -0.2876 0.2500 0.9245
vn -0.6792 0.1358 0.7213
vn -0.6283 0.2401 0.7400
vn 0.7631 0.2027 -0.6137
vn 0.5829 0.0383 -0.8116
vn -0.8388 -0.0772 -0.5389
vn -0.6207 -0.1780 -0.7636
vn -0.1480 0.0124 -0.9889
vn -0.2276 0.3138 -0.9218
vn 0.9004 0.4349 0.0098
vn 0.9864 0.1582 -0.0444
vn 0.9944 0.0034 -0.1052
vn 0.7237 0.0003 -0.6902
vn 0.1260 -0.2095 -0.9697
vn 0.1561 0.2394 -0.9583
vn 0.1743 0.0062 -0.9847
vn -0.9518 -0.1744 -0.2525
vn -0.9391 -0.0322 -0.3422
vn -0.4628 -0.5412 -0.7021
vn -0.8091 0.1652 -0.5640
vn -0.7135 -0.1390 -0.6867
vn -0.9857 0.1024 -0.1339
vn -0.4611 -0.3406 0.8194
vn -0.6568 -0.3786 0.6521
vn -0.2499 0.0683 0.9659
vn -0.6601 0.1207 0.7414
vn -0.8402 0.1414 0.5235
vn -0.8233 0.1275 0.5531
vn -0.7611 -0.2862 0.5821
vn 0.4587 0.8716 -0.1728
vn 0.4935 0.8556 -0.1561
vn 0.4856 0.8739 0.0228
vn 0.4560 0.8896 0.0237
vn 0.5922 0.8044 -0.0475
vn 0.5164 0.8402 0.1657
vn 0.4072 0.8836 0.2311
vn 0.9535 -0.2580 -0.1556
vn 0.6549 -0.4032 -0.6392
vn 0.4453 -0.7177 -0.5355
vn 0.7547 -0.6548 -0.0397
vn 0.8182 -0.5672 -0.0940
vn 0.7731 -0.4222 -0.4734
vn 0.1119 -0.3952 -0.9117
vn 0.0393 -0.6103 -0.7912
vn 0.3997 0.0833 -0.9128
vn 0.1381 0.0372 -0.9897
vn 0.0483 0.0011 -0.9988
vn -0.0671 -0.2854 -0.9561
vn 0.8490 0.4497 0.2775
vn 0.5867 0.6476 0.4862
vn 0.5436 -0.0889 0.8346
vn 0.7856 -0.4160 0.4579
vn 0.2327 0.8576 0.4586
vn 0.1855 0.2089 0.9602
vn -0.1814 0.3554 0.9170
vn -0.0833 -0.6425 0.7618
vn -0.0371 -0.6230 0.7813
vn 0.4092 -0.6317 0.6584
vn -0.1823 0.3112 -0.9327
vn -0.0996 -0.2892 -0.9521
vn 0.5053 0.4319 0.7471
vn 0.9749 0.2226 0.0044
vn 0.6512 0.5928 -0.4739
vn 0.7623 0.6115 0.2119
vn 0.5814 0.4251 -0.6938
vn 0.3648 0.1293 -0.9221
vn -0.0004 0.5460 -0.8378
vn -0.5539 0.5975 -0.5798
vn 0.4603 0.5068 -0.7289
vn 0.8840 0.2645 0.3856
vn -0.4341 0.4459 0.7827
vn -0.4221 0.4372 0.7941
vn 0.0895 0.9786 0.1850
vn -0.4908 0.2809 0.8248
vn 0.4261 0.1764 0.8873
vn -0.5799 0.2440 -0.7773
vn -0.9094 0.3413 -0.2379
vn -0.3473 0.3865 -0.8544
vn -0.8738 0.4524 -0.1783
vn -0.8979 0.4256 0.1122
vn -0.9022 0.3199 0.2894
vn -0.8142 0.4843 -0.3203
vn 0.4338 0.7644 -0.4770
vn 0.7840 0.5737 0.2372
vn 0.1579 0.5862 0.7947
vn 0.9305 0.0620 0.3610
vn 0.3884 0.8532 0.3482
vn -0.0278 0.8842 0.4662
vn -0.4595 0.6221 -0.6339
vn 0.0752 0.6169 -0.7834
vn -0.4824 0.6159 0.6228
vn 0.1208 0.6574 -0.7438
vn 0.1789 0.7669 -0.6163
vn 0.0061 -0.0522 -0.9986
vn -0.0019 0.6022 -0.7984
vn 0.3813 0.8209 -0.4252
vn -0.0414 0.6019 -0.7975
vn -0.2005 0.6782 -0.7070
vn -0.8319 0.5434 -0.1126
vn -0.3204 0.7000 -0.6382
vn -0.5431 0.7614 -0.3540
vn -0.6225 0.7808 -0.0527
vn -0.3026 -0.3284 -0.8948
vn -0.7705 -0.3207 -0.5509
vn -0.5629 -0.7305 -0.3866
vn -0.1666 -0.6727 -0.7210
vn -0.0430 -0.2600 -0.9646
vn -0.2264 -0.4953 -0.8387
vn -0.9494 -0.2877 -0.1261
vn -0.7979 -0.5971 -0.0826
vn -0.7096 -0.7002 -0.0786
vn -0.9378 -0.2882 -0.1935
vn -0.9707 -0.2034 -0.1276
vn -0.7223 0.0444 -0.6902
vn -0.6281 0.6657 -0.4029
vn -0.6708 0.6873 -0.2787
vn -0.0214 0.6156 -0.7878
vn -0.1537 0.8385 -0.5227
vn -0.0830 0.8685 0.4887
vn -0.0818 0.6352 -0.7680
vn -0.3282 0.7799 -0.5330
vn -0.1370 0.7216 -0.6786
vn -0.0008 0.6126 -0.7904
vn -0.0337 0.6249 -0.7800
vn 0.0072 -0.0931 -0.9956
vn -0.0097 -0.1238 -0.9923
vn -0.0025 -0.6049 -0.7963
vn -0.0253 -0.6106 -0.7915
vn -0.0442 -0.3198 -0.9465
vn -0.0042 -0.3342 -0.9425
vn -0.0434 -0.1007 -0.9940
vn -0.0007 -0.1044 -0.9945
vn 0.0036 -0.5905 -0.8071
vn 0.0043 -0.3544 -0.9351
vn 0.0151 -0.1092 -0.9939
vn -0.0022 0.0074 -1.0000
vn 0.0172 0.0112 -0.9998
vn 0.1597 -0.1103 -0.9810
vn 0.7142 -0.1024 -0.6924
vn 0.9869 -0.0623 -0.1490
vn 0.9656 -0.2233 0.1330
vn 0.9787 -0.0493 0.1995
vn 0.9625 0.0296 0.2697
vn 0.9176 0.1769 0.3559
vn 0.8395 -0.0476 0.5413
vn 0.7900 0.0549 0.6107
vn 0.7259 0.1515 0.6709
vn 0.8030 0.4706 0.3656
vn 0.6196 0.4024 0.6739
vn 0.4010 0.0810 0.9125
vn 0.3136 0.0844 0.9458
vn -0.2207 0.0908 0.9711
vn 0.4661 -0.0496 0.8833
vn -0.1581 -0.0407 0.9866
vn -0.6362 -0.0427 0.7703
vn -0.6613 0.0854 0.7453
vn -0.8627 -0.0503 0.5033
vn -0.8566 0.0839 0.5092
vn -0.9775 -0.0650 0.2008
vn -0.9764 0.0590 0.2078
vn -0.9697 0.1257 0.2096
vn -0.9781 0.1052 0.1797
vn -0.9946 0.0298 -0.0998
vn -0.9914 -0.0714 -0.1092
vn -0.8288 -0.0846 -0.5531
vn -0.8134 0.0321 -0.5809
vn -0.3261 -0.0975 -0.9403
vn -0.2845 0.0234 -0.9584
vn -0.0306 0.0087 -0.9995
vn -0.0191 0.2100 -0.9775
vn -0.0058 -0.0711 -0.9975
vn -0.0058 0.1821 -0.9833
vn -0.0076 0.2132 -0.9770
vn -0.0025 0.3853 -0.9228
vn 0.0169 0.1787 -0.9838
vn 0.0121 -0.0448 -0.9989
vn 0.1912 -0.2047 -0.9600
vn -0.9383 -0.2909 0.1872
vn -0.8241 -0.2705 0.4977
vn -0.6710 -0.6058 0.4276
vn -0.7802 -0.6002 0.1762
vn -0.8463 -0.2497 0.4706
vn -0.9762 -0.1755 0.1272
vn -0.7321 0.5842 0.3505
vn -0.7537 0.6570 0.0138
vn -0.7236 0.6630 -0.1917
vn -0.5203 0.8533 -0.0344
vn -0.4691 0.8531 -0.2285
vn -0.3269 0.8637 -0.3837
vn -0.5008 0.8148 -0.2921
vn -0.5591 0.8284 -0.0348
vn -0.4853 0.8578 0.1695
vn -0.5307 0.8279 0.1815
vn -0.5772 0.7916 0.2004
vn -0.3969 0.8418 0.3660
vn -0.4088 0.8325 0.3739
vn -0.7706 0.5597 0.3048
vn -0.0768 0.8650 0.4958
vn 0.2631 0.8668 0.4235
vn -0.3469 0.8622 0.3692
vn -0.5256 0.4682 0.7103
vn -0.5100 -0.4362 0.7414
vn -0.4339 -0.6311 0.6430
vn -0.1014 -0.2159 0.9711
vn -0.5734 -0.2523 0.7795
vn 0.4844 -0.2346 0.8428
vn 0.8554 -0.2328 0.4626
vn 0.6704 -0.6354 0.3832
vn 0.7529 -0.6479 0.1156
vn 0.8100 -0.5801 0.0859
vn 0.8580 0.4059 -0.3147
vn 0.9218 0.3743 -0.1007
vn 0.3768 0.8672 -0.3256
vn 0.7605 0.4686 -0.4496
vn 0.3701 0.7552 -0.5410
vn -0.9036 -0.2886 0.3165
vn -0.9483 -0.3164 -0.0238
vn -0.7187 -0.5917 0.3652
vn -0.8286 -0.5566 0.0607
vn 0.8831 -0.0081 0.4690
vn 0.6180 0.1043 0.7792
vn 0.6751 -0.6140 0.4089
vn 0.4749 -0.4239 0.7712
f 1/1/1 2/2/2 3/3/3 4/4/4
f 5/5/5 6/6/6 3/3/3 2/2/2
f 7/7/7 4/4/4 3/3/3 6/6/6
f 7/8/7 8/9/8 9/10/9 4/11/4
f 1/12/1 4/11/4 9/10/9 10/13/10
f 11/14/11 10/13/10 9/10/9 8/9/8
f 12/15/12 13/16/13 14/17/14 15/18/15
f 16/19/16 15/18/15 14/17/14 17/20/17
f 18/21/18 15/18/15 16/19/16 19/22/19
f 1/1/1 19/22/19 16/19/16 2/2/2
f 5/5/5 2/2/2 16/19/16 17/20/17
f 20/23/20 21/24/21 14/17/14 13/16/13
f 22/25/22 17/20/17 14/17/14 21/24/21
f 19/26/19 23/27/23 24/28/24 18/29/18
f 25/30/25 26/31/26 24/28/24 23/27/23
f 27/32/27 28/33/28 29/34/29 30/35/30
f 31/36/31 32/37/32 29/34/29 28/33/28
f 33/38/33 30/35/30 29/34/29 32/37/32
f 27/32/27 18/21/18 24/39/24 28/33/28
f 31/36/31 28/33/28 24/39/24 26/40/26
f 34/41/34 32/37/32 31/36/31 35/42/35
f 36/43/36 35/44/35 31/45/31 37/46/37
f 38/47/38 39/48/39 40/49/40 41/50/41
f 42/51/42 43/52/43 40/49/40 39/48/39
f 44/53/44 45/54/45 40/49/40 43/52/43
f 46/55/46 34/56/34 35/44/35 47/57/47
f 7/8/7 48/58/48 49/59/49 8/9/8
f 11/14/11 8/9/8 49/59/49 50/60/50
f 51/61/51 50/60/50 49/59/49 48/58/48
f 52/62/52 34/41/34 46/63/46 53/64/53
f 54/65/54 53/64/53 46/63/46 55/66/55
f 56/67/56 57/68/57 46/55/46 47/57/47
f 58/69/58 55/70/55 46/55/46 57/68/57
f 48/58/48 59/71/59 60/72/60 61/73/61
f 61/73/61 60/72/60 62/74/62 63/75/63
f 62/74/62 60/72/60 59/71/59 64/76/64
f 65/77/65 45/54/45 44/53/44 66/78/66
f 67/79/67 68/80/68 44/53/44 43/52/43
f 69/81/69 70/82/70 44/53/44 68/80/68
f 71/83/71 66/78/66 44/53/44 70/82/70
f 72/84/72 73/85/73 74/86/74 75/87/75
f 76/88/76 77/89/77 74/86/74 73/85/73
f 78/90/78 75/87/75 74/86/74 77/89/77
f 79/91/79 80/92/80 81/93/81 82/94/82
f 83/95/83 82/94/82 81/93/81 84/96/84
f 85/97/85 86/98/86 81/99/81 80/100/80
f 87/101/87 84/102/84 81/99/81 88/103/88
f 89/104/89 88/103/88 81/99/81 86/98/86
f 51/61/51 48/58/48 61/73/61 90/105/90
f 91/106/91 92/107/92 93/108/93 94/109/94
f 95/110/95 96/111/96 93/112/93 92/113/92
f 97/114/97 98/115/98 93/112/93 96/111/96
f 99/116/99 100/117/100 93/108/93 98/118/98
f 101/119/101 102/120/102 63/75/63 62/74/62
f 103/121/103 104/122/104 105/123/105 106/124/106
f 107/125/107 108/126/108 105/127/105 104/128/104
f 109/129/109 106/130/106 105/127/105 110/131/110
f 111/132/111 112/133/112 106/130/106 109/129/109
f 113/134/113 103/135/103 106/136/106 114/137/114
f 115/138/115 114/137/114 106/136/106 112/139/112
f 116/140/116 117/141/117 103/135/103 113/134/113
f 118/142/118 119/143/119 110/131/110 120/144/120
f 121/145/121 109/129/109 110/131/110 122/146/122
f 123/147/123 122/146/122 110/131/110 119/143/119
f 109/129/109 121/145/121 124/148/124 111/132/111
f 118/142/118 120/144/120 108/126/108 107/125/107
f 125/149/125 107/150/107 126/151/126 76/88/76
f 117/152/117 127/153/127 126/151/126 128/154/128
f 77/89/77 76/88/76 126/151/126 129/155/129
f 130/156/130 129/155/129 126/151/126 127/153/127
f 104/122/104 128/154/128 126/151/126 107/150/107
f 131/157/131 118/142/118 107/125/107 132/158/132
f 133/159/133 127/160/127 117/141/117 116/140/116
f 88/103/88 89/104/89 134/161/134 135/162/135
f 136/163/136 137/164/137 134/161/134 89/104/89
f 138/165/138 135/162/135 134/161/134 125/166/125
f 107/125/107 125/166/125 134/161/134 132/158/132
f 139/167/139 132/158/132 134/161/134 137/164/137
f 139/167/139 140/168/140 131/157/131 132/158/132
f 119/143/119 118/142/118 131/157/131 141/169/141
f 142/170/142 143/171/143 131/157/131 140/168/140
f 144/172/144 141/173/141 131/174/131 143/175/143
f 145/176/145 146/177/146 147/178/147 148/179/148
f 149/180/149 148/179/148 147/178/147 150/181/150
f 151/182/151 152/183/152 147/178/147 146/177/146
f 153/184/153 150/181/150 147/178/147 154/185/154
f 155/186/155 154/185/154 147/178/147 152/183/152
f 156/187/156 150/181/150 153/184/153 157/188/157
f 158/189/158 157/188/157 153/184/153 154/185/154
f 149/180/149 150/181/150 156/187/156 159/190/159
f 160/191/160 159/190/159 156/187/156 157/188/157
f 161/192/161 97/193/97 96/194/96 95/195/95
f 162/196/162 142/170/142 140/168/140 139/167/139
f 163/197/163 142/170/142 162/196/162 164/198/164
f 137/164/137 165/199/165 162/196/162 139/167/139
f 166/200/166 164/198/164 162/196/162 165/199/165
f 160/191/160 164/198/164 166/200/166 159/190/159
f 167/201/167 168/202/168 166/200/166 165/199/165
f 149/180/149 159/190/159 166/200/166 168/202/168
f 169/203/169 170/204/170 168/202/168 167/201/167
f 148/179/148 149/180/149 168/202/168 170/204/170
f 145/176/145 148/179/148 170/204/170 171/205/171
f 172/206/172 171/205/171 170/204/170 169/203/169
f 173/207/173 171/205/171 172/206/172 174/208/174
f 175/209/175 176/210/176 172/206/172 169/203/169
f 177/211/177 174/208/174 172/206/172 176/210/176
f 178/212/178 174/208/174 177/211/177 179/213/179
f 85/97/85 180/214/180 177/211/177 176/210/176
f 58/69/58 179/213/179 177/211/177 180/214/180
f 80/100/80 181/215/181 180/214/180 85/97/85
f 55/70/55 58/69/58 180/214/180 181/215/181
f 79/91/79 182/216/182 181/217/181 80/92/80
f 54/65/54 55/66/55 181/217/181 182/216/182
f 183/218/183 184/219/184 182/216/182 79/91/79
f 185/220/185 54/65/54 182/216/182 184/219/184
f 53/64/53 54/65/54 185/220/185 186/221/186
f 187/222/187 188/223/188 185/220/185 184/219/184
f 189/224/189 186/221/186 185/220/185 188/223/188
f 190/225/190 186/221/186 189/224/189 191/226/191
f 192/227/192 193/228/193 189/224/189 188/223/188
f 42/51/42 191/226/191 189/224/189 193/228/193
f 194/229/194 67/79/67 193/228/193 192/227/192
f 43/52/43 42/51/42 193/228/193 67/79/67
f 195/230/195 196/231/196 194/229/194 192/227/192
f 197/232/197 198/233/198 194/234/194 196/235/196
f 68/80/68 67/79/67 194/229/194 198/236/198
f 199/237/199 200/238/200 198/233/198 197/232/197
f 69/81/69 68/80/68 198/236/198 200/239/200
f 201/240/201 202/241/202 200/238/200 199/237/199
f 203/242/203 69/81/69 200/239/200 202/243/202
f 70/82/70 69/81/69 203/242/203 204/244/204
f 205/245/205 64/76/64 203/246/203 202/247/202
f 59/248/59 204/244/204 203/242/203 64/249/64
f 201/250/201 206/251/206 205/245/205 202/247/202
f 207/252/207 208/253/208 205/245/205 206/251/206
f 62/74/62 64/76/64 205/245/205 208/253/208
f 209/254/209 210/255/210 208/253/208 207/252/207
f 101/119/101 62/74/62 208/253/208 210/255/210
f 173/207/173 211/256/211 210/255/210 209/254/209
f 212/257/212 101/119/101 210/255/210 211/256/211
f 102/120/102 101/119/101 212/257/212 213/258/213
f 178/212/178 214/259/214 212/257/212 211/256/211
f 215/260/215 213/258/213 212/257/212 214/259/214
f 51/61/51 90/105/90 215/260/215 216/261/216
f 217/262/217 36/43/36 215/260/215 214/259/214
f 37/46/37 216/261/216 215/260/215 36/43/36
f 178/212/178 179/213/179 217/262/217 214/259/214
f 58/69/58 57/68/57 217/262/217 179/213/179
f 50/60/50 51/61/51 216/261/216 218/263/218
f 219/264/219 218/263/218 216/261/216 37/46/37
f 11/14/11 50/60/50 218/263/218 25/30/25
f 26/31/26 25/30/25 218/263/218 219/264/219
f 174/208/174 178/212/178 211/256/211 173/207/173
f 146/177/146 145/176/145 209/254/209 207/252/207
f 171/205/171 173/207/173 209/254/209 145/176/145
f 151/182/151 146/177/146 207/252/207 206/251/206
f 220/265/220 151/182/151 206/251/206 201/250/201
f 199/237/199 221/266/221 220/267/220 201/240/201
f 222/268/222 223/269/223 220/267/220 221/266/221
f 152/183/152 151/182/151 220/265/220 223/270/223
f 224/271/224 225/272/225 223/269/223 222/268/222
f 155/186/155 152/183/152 223/270/223 225/273/225
f 226/274/226 227/275/227 225/272/225 224/271/224
f 228/276/228 155/277/155 225/272/225 227/275/227
f 229/278/229 230/279/230 228/276/228 227/275/227
f 231/280/231 158/189/158 228/281/228 230/282/230
f 154/185/154 155/186/155 228/281/228 158/189/158
f 232/283/232 163/197/163 231/280/231 230/282/230
f 164/198/164 160/191/160 231/280/231 163/197/163
f 157/188/157 158/189/158 231/280/231 160/191/160
f 229/278/229 233/284/233 232/285/232 230/279/230
f 144/172/144 143/175/143 232/285/232 233/284/233
f 142/170/142 163/197/163 232/283/232 143/171/143
f 234/286/234 235/287/235 233/284/233 229/278/229
f 236/288/236 144/172/144 233/284/233 235/287/235
f 237/289/237 238/290/238 236/288/236 235/287/235
f 133/159/133 239/291/239 236/288/236 238/290/238
f 141/173/141 144/172/144 236/288/236 239/291/239
f 116/140/116 123/292/123 239/291/239 133/159/133
f 119/293/119 141/173/141 239/291/239 123/292/123
f 240/294/240 130/295/130 238/290/238 237/289/237
f 127/160/127 133/159/133 238/290/238 130/295/130
f 95/195/95 241/296/241 240/297/240 161/192/161
f 129/155/129 130/156/130 240/297/240 241/296/241
f 242/298/242 161/299/161 240/294/240 237/289/237
f 97/114/97 161/299/161 242/298/242 243/300/243
f 235/287/235 234/286/234 242/298/242 237/289/237
f 226/274/226 243/300/243 242/298/242 234/286/234
f 98/115/98 97/114/97 243/300/243 244/301/244
f 224/271/224 244/301/244 243/300/243 226/274/226
f 99/302/99 98/115/98 244/301/244 245/303/245
f 222/268/222 245/303/245 244/301/244 224/271/224
f 246/304/246 99/302/99 245/303/245 247/305/247
f 221/266/221 247/305/247 245/303/245 222/268/222
f 195/230/195 248/306/248 246/307/246 196/231/196
f 100/117/100 99/116/99 246/307/246 248/306/248
f 197/232/197 196/235/196 246/304/246 247/305/247
f 187/222/187 249/308/249 248/306/248 195/230/195
f 250/309/250 100/117/100 248/306/248 249/308/249
f 183/218/183 251/310/251 250/309/250 249/308/249
f 252/311/252 94/109/94 250/309/250 251/310/251
f 93/108/93 100/117/100 250/309/250 94/109/94
f 82/94/82 83/95/83 252/311/252 251/310/251
f 253/312/253 254/313/254 252/311/252 83/95/83
f 91/106/91 94/109/94 252/311/252 254/313/254
f 255/314/255 72/84/72 254/313/254 253/312/253
f 75/87/75 91/106/91 254/313/254 72/84/72
f 256/315/256 257/316/257 255/317/255 253/318/253
f 135/162/135 138/165/138 255/317/255 257/316/257
f 73/85/73 72/84/72 255/314/255 138/319/138
f 84/96/84 256/320/256 253/312/253 83/95/83
f 79/91/79 82/94/82 251/310/251 183/218/183
f 184/219/184 183/218/183 249/308/249 187/222/187
f 199/237/199 197/232/197 247/305/247 221/266/221
f 92/107/92 78/90/78 241/296/241 95/195/95
f 77/89/77 129/155/129 241/296/241 78/90/78
f 227/275/227 226/274/226 234/286/234 229/278/229
f 71/83/71 70/82/70 204/244/204 258/321/258
f 259/322/259 258/321/258 204/244/204 59/248/59
f 22/25/22 71/83/71 258/321/258 260/323/260
f 261/324/261 260/323/260 258/321/258 259/322/259
f 17/20/17 22/25/22 260/323/260 5/5/5
f 6/6/6 5/5/5 260/323/260 261/324/261
f 188/223/188 187/222/187 195/230/195 192/227/192
f 33/38/33 52/62/52 190/225/190 262/325/262
f 53/64/53 186/221/186 190/225/190 52/62/52
f 263/326/263 262/325/262 190/225/190 191/226/191
f 264/327/264 262/325/262 263/326/263 265/328/265
f 42/51/42 39/48/39 263/326/263 191/226/191
f 38/47/38 265/328/265 263/326/263 39/48/39
f 27/32/27 30/35/30 264/327/264 12/15/12
f 33/38/33 262/325/262 264/327/264 30/35/30
f 13/16/13 12/15/12 264/327/264 265/328/265
f 20/23/20 13/16/13 265/328/265 38/47/38
f 86/98/86 85/97/85 176/210/176 175/209/175
f 167/201/167 136/163/136 175/209/175 169/203/169
f 89/104/89 86/98/86 175/209/175 136/163/136
f 137/164/137 136/163/136 167/201/167 165/199/165
f 76/88/76 73/85/73 138/319/138 125/149/125
f 87/101/87 88/103/88 135/162/135 257/316/257
f 114/137/114 115/138/115 124/329/124 121/330/121
f 113/134/113 122/331/122 123/292/123 116/140/116
f 113/134/113 114/137/114 121/330/121 122/331/122
f 75/87/75 78/90/78 92/107/92 91/106/91
f 21/24/21 66/78/66 71/83/71 22/25/22
f 20/23/20 65/77/65 66/78/66 21/24/21
f 7/7/7 6/6/6 261/324/261 48/332/48
f 32/37/32 34/41/34 52/62/52 33/38/33
f 38/47/38 41/50/41 65/77/65 20/23/20
f 15/18/15 18/21/18 27/32/27 12/15/12
f 10/13/10 11/14/11 25/30/25 23/27/23
f 1/12/1 10/13/10 23/27/23 19/26/19
f 219/264/219 37/46/37 31/45/31 26/31/26
f 65/77/65 41/50/41 40/49/40 45/54/45
f 259/322/259 59/248/59 48/332/48 261/324/261
f 257/316/257 256/315/256 84/102/84 87/101/87
f 120/144/120 110/131/110 105/127/105 108/126/108
f 128/154/128 104/122/104 103/121/103 117/152/117
f 56/67/56 36/43/36 217/262/217 57/68/57
f 35/44/35 36/43/36 56/67/56 47/57/47
f 61/73/61 63/75/63 102/120/102 90/105/90
f 215/260/215 90/105/90 102/120/102 213/258/213
f 115/333/115 111/132/111 124/148/124
f 115/333/115 112/133/112 111/132/111
