# split from a merged terrain OBJ by scripts/split-terrain-obj-parts.py
o part-063
v 0.669347 0.014930 0.058184
v 0.670438 0.015903 0.054975
v 0.672127 0.017038 0.056237
v 0.670833 0.016863 0.059405
v 0.668500 0.019462 0.058200
v 0.670160 0.019127 0.055088
v 0.670898 0.017779 0.052641
v 0.661892 0.019568 0.060807
v 0.659702 0.019367 0.058781
v 0.658554 0.018871 0.060623
v 0.659586 0.018686 0.062542
v 0.657619 0.017472 0.057569
v 0.656710 0.016796 0.060108
v 0.657084 0.016651 0.063232
v 0.667486 0.018033 0.051278
v 0.663544 0.017717 0.051575
v 0.663685 0.019783 0.052508
v 0.666827 0.020473 0.053436
v 0.660609 0.018371 0.053130
v 0.662067 0.019800 0.054347
v 0.665319 0.020683 0.056257
v 0.665423 0.016758 0.064637
v 0.661689 0.016620 0.066357
v 0.662179 0.014842 0.067267
v 0.665025 0.013988 0.064486
v 0.663418 0.013703 0.063066
v 0.660828 0.014299 0.065731
v 0.659505 0.016088 0.066820
v 0.660787 0.018143 0.064663
v 0.658227 0.016322 0.065491
v 0.659514 0.014246 0.064075
v 0.663970 0.015563 0.053065
v 0.661440 0.016101 0.053315
v 0.663366 0.014202 0.055830
v 0.660459 0.015531 0.055287
v 0.658885 0.017905 0.055095
v 0.658309 0.014423 0.062637
v 0.658931 0.014488 0.060412
v 0.661275 0.013861 0.061556
v 0.667205 0.015490 0.053760
v 0.666491 0.014161 0.056843
v 0.662426 0.013955 0.058732
v 0.665267 0.013848 0.059905
v 0.667739 0.014000 0.061247
v 0.668579 0.016743 0.062365
v 0.666183 0.019092 0.060766
v 0.663771 0.018790 0.062961
v 0.663631 0.020162 0.058705
v 0.660842 0.019769 0.056589
v 0.659487 0.014707 0.057782
vt 0.020566 0.988110
vt 0.021192 0.989906
vt 0.020144 0.990544
vt 0.019340 0.989318
vt 0.018348 0.992915
vt 0.020244 0.992275
vt 0.021351 0.991336
vt 0.967344 0.021213
vt 0.969235 0.019642
vt 0.969754 0.020644
vt 0.968902 0.021591
vt 0.972128 0.020371
vt 0.971501 0.021405
vt 0.970506 0.022266
vt 0.022831 0.991697
vt 0.024487 0.991726
vt 0.024025 0.993245
vt 0.022112 0.993247
vt 0.025703 0.992463
vt 0.024557 0.994237
vt 0.021537 0.994794
vt 0.967043 0.025128
vt 0.968497 0.023994
vt 0.969120 0.024828
vt 0.968658 0.026224
vt 0.970237 0.026642
vt 0.970102 0.024760
vt 0.969500 0.023784
vt 0.968356 0.022827
vt 0.969938 0.023136
vt 0.970866 0.024083
vt 0.024497 0.990262
vt 0.025739 0.990809
vt 0.024953 0.988522
vt 0.026636 0.990222
vt 0.026972 0.992171
vt 0.971483 0.023357
vt 0.972445 0.023244
vt 0.971841 0.025093
vt 0.022940 0.989642
vt 0.022759 0.987813
vt 0.972927 0.025794
vt 0.973317 0.027182
vt 0.971767 0.028746
vt 0.970726 0.028231
vt 0.019254 0.986065
vt 0.021602 0.986531
vt 0.967847 0.027670
vt 0.018070 0.988927
vt 0.965694 0.026348
vt 0.017273 0.991800
vt 0.966291 0.022927
vt 0.964496 0.022978
vt 0.965702 0.020690
vt 0.963041 0.022593
vt 0.964061 0.019990
vt 0.966098 0.018319
vt 0.967388 0.019167
vt 0.026011 0.994444
vt 0.028282 0.992151
vt 0.027380 0.994463
vt 0.973573 0.022771
vt 0.026652 0.987945
vt 0.027916 0.989552
vn 0.5168 -0.8551 0.0426
vn 0.6444 -0.6889 -0.3318
vn 0.9965 0.0035 0.0841
vn 0.8948 0.0503 0.4436
vn 0.4205 0.8574 0.2967
vn 0.6590 0.7420 -0.1231
vn 0.6972 0.0166 -0.7167
vn -0.0788 0.9695 0.2323
vn -0.4321 0.9018 -0.0083
vn -0.5334 0.8400 0.0996
vn -0.3541 0.8847 0.3031
vn -0.9234 0.1386 -0.3580
vn -0.9937 0.0303 -0.1077
vn -0.9340 0.1113 0.3396
vn 0.2680 0.0276 -0.9630
vn -0.2190 -0.0127 -0.9756
vn -0.2089 0.7775 -0.5932
vn 0.1645 0.9112 -0.3776
vn -0.6563 0.2363 -0.7165
vn -0.3615 0.8808 -0.3057
vn 0.0392 0.9975 0.0596
vn 0.5358 0.3726 0.7576
vn 0.1098 0.4483 0.8871
vn 0.1851 -0.4213 0.8878
vn 0.4179 -0.7043 0.5739
vn -0.0065 -0.9963 0.0861
vn -0.2646 -0.8251 0.4993
vn -0.4789 0.0652 0.8755
vn -0.1219 0.8488 0.5144
vn -0.7379 0.0928 0.6685
vn -0.4213 -0.8751 0.2382
vn -0.1018 -0.7553 -0.6475
vn -0.4543 -0.5995 -0.6589
vn -0.1008 -0.9464 -0.3069
vn -0.5236 -0.7141 -0.4646
vn -0.8480 0.1935 -0.4935
vn -0.5944 -0.7993 0.0881
vn -0.5062 -0.8504 -0.1436
vn -0.1297 -0.9911 -0.0283
vn 0.1831 -0.8280 -0.5300
vn 0.1570 -0.9642 -0.2137
vn -0.1188 -0.9837 -0.1353
vn 0.0762 -0.9958 -0.0518
vn 0.4961 -0.8180 0.2912
vn 0.7281 0.1819 0.6609
vn 0.2979 0.8604 0.4135
vn 0.1785 0.8674 0.4644
vn -0.0261 0.9835 0.1790
vn -0.3973 0.9127 -0.0957
vn -0.5080 -0.8040 -0.3092
f 1/1/1 2/2/2 3/3/3 4/4/4
f 5/5/5 4/4/4 3/3/3 6/6/6
f 7/7/7 6/6/6 3/3/3 2/2/2
f 8/8/8 9/9/9 10/10/10 11/11/11
f 12/12/12 13/13/13 10/10/10 9/9/9
f 14/14/14 11/11/11 10/10/10 13/13/13
f 15/15/15 16/16/16 17/17/17 18/18/18
f 19/19/19 20/20/20 17/17/17 16/16/16
f 21/21/21 18/18/18 17/17/17 20/20/20
f 22/22/22 23/23/23 24/24/24 25/25/25
f 26/26/26 25/25/25 24/24/24 27/27/27
f 28/28/28 27/27/27 24/24/24 23/23/23
f 29/29/29 30/30/30 28/28/28 23/23/23
f 31/31/31 27/27/27 28/28/28 30/30/30
f 16/16/16 32/32/32 33/33/33 19/19/19
f 34/34/34 35/35/35 33/33/33 32/32/32
f 36/36/36 19/19/19 33/33/33 35/35/35
f 30/30/30 14/14/14 37/37/37 31/31/31
f 13/13/13 38/38/38 37/37/37 14/14/14
f 39/39/39 31/31/31 37/37/37 38/38/38
f 18/18/18 6/6/6 7/7/7 15/15/15
f 40/40/40 15/15/15 7/7/7 2/2/2
f 34/34/34 32/32/32 40/40/40 41/41/41
f 16/16/16 15/15/15 40/40/40 32/32/32
f 1/1/1 41/41/41 40/40/40 2/2/2
f 42/42/42 34/43/34 41/44/41 43/45/43
f 44/46/44 43/47/43 41/41/41 1/1/1
f 26/26/26 43/45/43 44/48/44 25/25/25
f 4/4/4 45/49/45 44/46/44 1/1/1
f 22/22/22 25/25/25 44/48/44 45/50/45
f 5/5/5 46/51/46 45/49/45 4/4/4
f 47/52/47 22/22/22 45/50/45 46/53/46
f 23/23/23 22/22/22 47/52/47 29/29/29
f 48/54/48 8/8/8 47/52/47 46/53/46
f 11/11/11 29/29/29 47/52/47 8/8/8
f 5/55/5 21/56/21 48/54/48 46/53/46
f 20/57/20 49/58/49 48/54/48 21/56/21
f 9/9/9 8/8/8 48/54/48 49/58/49
f 19/19/19 36/36/36 49/59/49 20/20/20
f 12/60/12 9/61/9 49/59/49 36/36/36
f 38/38/38 50/62/50 42/42/42 39/39/39
f 35/35/35 34/34/34 42/63/42 50/64/50
f 26/26/26 39/39/39 42/42/42 43/45/43
f 13/13/13 12/12/12 50/62/50 38/38/38
f 36/36/36 35/35/35 50/64/50 12/60/12
f 27/27/27 31/31/31 39/39/39 26/26/26
f 11/11/11 14/14/14 30/30/30 29/29/29
f 6/6/6 18/18/18 21/21/21 5/5/5
