# split from a merged terrain OBJ by scripts/split-terrain-obj-parts.py
o part-029
v 0.911285 1.223525 -0.020080
v 0.909994 1.232107 -0.021223
v 0.915345 1.232084 -0.015596
v 0.914982 1.224749 -0.011742
v 0.908341 1.226468 -0.001967
v 0.906839 1.233818 -0.006069
v 0.901442 1.233862 -0.013411
v 0.923951 1.211216 -0.002885
v 0.929728 1.203020 -0.016851
v 0.915757 1.210416 -0.021453
v 0.914953 1.215668 -0.008710
v 0.925412 1.187972 -0.025090
v 0.915871 1.192706 -0.028692
v 0.906042 1.191674 -0.036833
v 0.903635 1.209840 -0.033799
v 0.902053 1.222337 -0.030216
v 0.890756 1.220403 0.033102
v 0.885810 1.220268 0.039373
v 0.894908 1.219458 0.048512
v 0.899482 1.219531 0.041453
v 0.883182 1.215608 0.043435
v 0.895514 1.213403 0.051063
v 0.903549 1.213013 0.044840
v 0.929046 1.184734 0.000276
v 0.926658 1.173068 -0.003248
v 0.928441 1.176319 -0.017812
v 0.933205 1.192600 -0.008323
v 0.923256 1.176301 -0.039520
v 0.925942 1.167957 -0.035719
v 0.918567 1.163994 -0.006410
v 0.920159 1.164172 -0.020346
v 0.921810 1.162397 -0.031052
v 0.915154 1.180556 0.026517
v 0.922188 1.184299 0.014969
v 0.921429 1.190036 0.018871
v 0.914415 1.189203 0.025933
v 0.913952 1.200875 0.026267
v 0.922944 1.199436 0.018622
v 0.929198 1.194046 0.009002
v 0.877544 1.221856 0.028437
v 0.872201 1.218626 0.031029
v 0.884469 1.206851 0.043760
v 0.872864 1.208718 0.033087
v 0.859873 1.207611 0.021923
v 0.859547 1.218826 0.021868
v 0.874722 1.231756 0.025768
v 0.868336 1.229119 0.030543
v 0.859738 1.229226 0.022219
v 0.916357 1.182093 -0.038349
v 0.913277 1.170667 -0.049332
v 0.910107 1.178375 -0.043511
v 0.907798 1.162145 -0.025520
v 0.909966 1.161869 -0.036575
v 0.912211 1.164526 -0.044440
v 0.865808 1.233817 0.018509
v 0.911772 1.179613 0.033303
v 0.912174 1.173622 0.032714
v 0.915548 1.173957 0.028084
v 0.921657 1.177977 0.012826
v 0.920111 1.171115 0.012022
v 0.914983 1.170558 0.024772
v 0.882652 1.229007 -0.051976
v 0.872992 1.227889 -0.056272
v 0.875748 1.234637 -0.052544
v 0.880544 1.235821 -0.045509
v 0.872107 1.235549 -0.035637
v 0.866521 1.234201 -0.044868
v 0.863382 1.229644 -0.050294
v 0.899034 1.179642 0.044181
v 0.897728 1.167637 0.037697
v 0.908654 1.168606 0.031094
v 0.907241 1.179269 0.037698
v 0.885230 1.163790 0.021974
v 0.892238 1.163928 0.015873
v 0.875869 1.186461 0.039373
v 0.863835 1.183546 0.034215
v 0.867203 1.174811 0.037976
v 0.876561 1.173660 0.040064
v 0.859956 1.178069 0.026290
v 0.863855 1.171414 0.027276
v 0.871047 1.167153 0.026655
v 0.851965 1.233823 -0.017207
v 0.843180 1.233681 -0.009189
v 0.848146 1.233628 0.003279
v 0.858452 1.233824 -0.006149
v 0.866119 1.233800 0.003399
v 0.857213 1.233712 0.010401
v 0.833854 1.232681 -0.003658
v 0.842597 1.228415 0.005920
v 0.852198 1.228454 0.012929
v 0.894246 1.230846 -0.042874
v 0.891703 1.219976 -0.044405
v 0.880213 1.214921 -0.053083
v 0.890637 1.205406 -0.044224
v 0.884871 1.199832 -0.056213
v 0.879145 1.194751 -0.065010
v 0.875520 1.206858 -0.063048
v 0.870966 1.210205 -0.055879
v 0.872216 1.218414 -0.054855
v 0.835670 1.221289 -0.028286
v 0.829411 1.221212 -0.021467
v 0.828708 1.233945 -0.021598
v 0.834353 1.233872 -0.028132
v 0.839137 1.233897 -0.020487
v 0.831189 1.233996 -0.013010
v 0.831998 1.221025 -0.012954
v 0.860722 1.191982 0.022674
v 0.859239 1.181046 0.017646
v 0.858856 1.172580 0.015310
v 0.874622 1.197384 0.034497
v 0.850569 1.207050 0.010330
v 0.848850 1.194982 0.008595
v 0.847343 1.186425 0.011421
v 0.872417 1.192583 -0.072247
v 0.865121 1.191910 -0.076872
v 0.866037 1.200528 -0.076170
v 0.870722 1.203451 -0.070873
v 0.864016 1.207452 -0.066090
v 0.859303 1.201497 -0.072283
v 0.857660 1.191863 -0.072897
v 0.833731 1.173799 0.010476
v 0.837828 1.171974 0.015852
v 0.838506 1.177873 0.018608
v 0.830594 1.180327 0.014131
v 0.844097 1.173020 0.012763
v 0.842894 1.180442 0.017219
v 0.834424 1.184574 0.013900
v 0.837942 1.188364 0.007153
v 0.829982 1.185018 0.005182
v 0.839989 1.170638 0.006242
v 0.841112 1.194222 0.003291
v 0.880064 1.174345 -0.067859
v 0.878814 1.166780 -0.067619
v 0.870522 1.167499 -0.076427
v 0.870332 1.173972 -0.077030
v 0.875602 1.160796 -0.064575
v 0.864872 1.163311 -0.074590
v 0.861206 1.172628 -0.078551
v 0.831021 1.176870 0.004427
v 0.835820 1.190311 -0.002103
v 0.834778 1.177185 -0.001453
v 0.846040 1.169770 0.004457
v 0.848789 1.175257 0.008867
v 0.862855 1.164406 0.008953
v 0.860098 1.167842 0.013219
v 0.843750 1.163602 -0.005043
v 0.838280 1.177642 -0.005531
v 0.829434 1.208218 -0.035964
v 0.823561 1.202582 -0.026946
v 0.829535 1.208051 -0.020845
v 0.836851 1.211974 -0.028102
v 0.834690 1.190663 -0.009038
v 0.832671 1.207459 -0.011907
v 0.831541 1.190024 -0.013786
v 0.827623 1.188366 -0.018681
v 0.841174 1.206372 0.002680
v 0.835164 1.206595 -0.004469
v 0.867925 1.163047 0.005229
v 0.850432 1.162411 -0.008689
v 0.829517 1.175723 -0.017250
v 0.832361 1.166597 -0.017681
v 0.835028 1.174491 -0.010790
v 0.838003 1.162328 -0.021402
v 0.820949 1.183624 -0.038658
v 0.820112 1.177470 -0.029775
v 0.822417 1.186341 -0.025255
v 0.819818 1.193036 -0.034221
v 0.836302 1.160593 -0.038344
v 0.829515 1.160437 -0.048346
v 0.834259 1.164776 -0.054165
v 0.842458 1.161005 -0.044853
v 0.849158 1.162047 -0.052570
v 0.842080 1.167877 -0.058859
v 0.822515 1.160489 -0.056769
v 0.825601 1.166613 -0.060331
v 0.825801 1.172239 -0.059248
v 0.830791 1.175972 -0.054695
v 0.841078 1.178935 -0.058425
v 0.840838 1.190012 -0.057353
v 0.832282 1.187771 -0.050430
v 0.825958 1.186574 -0.044804
v 0.824137 1.178570 -0.051824
v 0.821050 1.173966 -0.058869
v 0.819471 1.177512 -0.047385
v 0.815720 1.173376 -0.042658
v 0.822328 1.166190 -0.028417
v 0.816619 1.165185 -0.040338
v 0.820005 1.169180 -0.063525
v 0.814410 1.165978 -0.058623
v 0.816513 1.173342 -0.055009
v 0.823369 1.160140 -0.043134
v 0.819875 1.159641 -0.051111
v 0.813950 1.164822 -0.051195
v 0.814064 1.171816 -0.050279
v 0.829382 1.161032 -0.032043
v 0.844613 1.161153 -0.027338
v 0.863292 1.161787 -0.022722
v 0.856910 1.161836 -0.014052
v 0.851231 1.161180 -0.034431
v 0.881369 1.162769 -0.008480
v 0.873567 1.162785 0.000666
v 0.900803 1.163257 0.003095
v 0.913864 1.163955 0.010965
v 0.905495 1.162410 -0.012027
v 0.888457 1.162134 -0.021868
v 0.892876 1.163348 -0.032194
v 0.871067 1.161609 -0.033529
v 0.877402 1.162319 -0.042570
v 0.895855 1.162153 -0.040992
v 0.882097 1.162828 -0.049844
v 0.858787 1.161670 -0.043299
v 0.865507 1.162085 -0.052254
v 0.870874 1.162300 -0.059263
v 0.885966 1.161945 -0.055258
v 0.855316 1.161898 -0.060892
v 0.860947 1.161117 -0.068484
v 0.848516 1.169717 -0.066809
v 0.855464 1.171269 -0.073889
v 0.848708 1.180819 -0.066548
v 0.856348 1.181739 -0.073352
v 0.863398 1.182191 -0.077359
v 0.871864 1.182157 -0.074237
v 0.879540 1.182850 -0.066020
v 0.886556 1.184536 -0.056688
v 0.888269 1.175468 -0.058492
v 0.895989 1.187603 -0.046752
v 0.898657 1.176768 -0.049581
v 0.898538 1.170001 -0.050242
v 0.887847 1.168023 -0.058032
v 0.897738 1.164437 -0.047479
v 0.849415 1.191352 -0.065952
v 0.841476 1.200379 -0.057253
v 0.850529 1.201401 -0.065761
v 0.845938 1.207100 -0.052742
v 0.855885 1.207735 -0.059679
v 0.852336 1.208790 -0.045746
v 0.863377 1.209565 -0.049976
v 0.851158 1.220553 -0.045945
v 0.863163 1.219868 -0.050420
v 0.849225 1.233680 -0.045345
v 0.846452 1.233839 -0.027817
v 0.855796 1.233815 -0.036088
v 0.841238 1.233783 -0.036101
v 0.842821 1.221366 -0.036357
v 0.843926 1.210922 -0.036417
v 0.837229 1.208187 -0.044020
v 0.832443 1.199229 -0.049208
v 0.824976 1.197535 -0.042163
v 0.861091 1.233861 -0.025956
v 0.868058 1.233849 -0.015624
v 0.879213 1.235041 -0.024732
v 0.875918 1.233818 -0.004753
v 0.886198 1.233936 -0.013761
v 0.895374 1.233959 -0.022227
v 0.888435 1.235870 -0.034318
v 0.902255 1.231247 -0.029307
v 0.892065 1.233817 -0.004323
v 0.887647 1.233650 0.011730
v 0.897318 1.233793 0.004016
v 0.882652 1.233736 0.004295
v 0.890484 1.225269 0.017164
v 0.899149 1.226982 0.009010
v 0.896115 1.220528 0.025683
v 0.901990 1.219827 0.014723
v 0.909679 1.217696 0.002474
v 0.908873 1.218765 0.019969
v 0.916006 1.216672 0.008584
v 0.914255 1.211814 0.024382
v 0.922244 1.210673 0.015952
v 0.930946 1.205324 0.003842
v 0.912983 1.203298 0.036587
v 0.911440 1.213250 0.035460
v 0.904687 1.219278 0.031395
v 0.905809 1.191602 0.041474
v 0.912087 1.190636 0.034188
v 0.904401 1.203846 0.044161
v 0.897497 1.192573 0.047840
v 0.895898 1.203827 0.050688
v 0.886133 1.196517 0.044264
v 0.887422 1.183660 0.043783
v 0.885636 1.170960 0.039757
v 0.877988 1.164639 0.024646
v 0.883151 1.223396 0.023039
v 0.879984 1.231887 0.018706
v 0.873721 1.233727 0.011881
v 0.840978 1.218258 0.003737
v 0.834598 1.219720 -0.004604
v 0.850999 1.218624 0.011734
vt 0.092776 0.772732
vt 0.088354 0.774437
vt 0.088280 0.770808
vt 0.090718 0.767641
vt 0.084783 0.764131
vt 0.082723 0.768375
vt 0.082155 0.773343
vt 0.096406 0.758687
vt 0.104226 0.762506
vt 0.099333 0.770320
vt 0.093648 0.764004
vt 0.112053 0.766217
vt 0.108863 0.772062
vt 0.109206 0.779369
vt 0.099950 0.780348
vt 0.093507 0.780426
vt 0.069831 0.750099
vt 0.065732 0.747533
vt 0.069425 0.743471
vt 0.073092 0.744693
vt 0.064180 0.743064
vt 0.071018 0.740184
vt 0.075027 0.740156
vt 0.109864 0.749688
vt 0.117313 0.750347
vt 0.117821 0.759614
vt 0.107787 0.756124
vt 0.119390 0.771224
vt 0.123182 0.767925
vt 0.123226 0.750706
vt 0.126080 0.759292
vt 0.127398 0.766200
vt 0.101590 0.736366
vt 0.104605 0.742515
vt 0.099140 0.741936
vt 0.095658 0.739514
vt 0.089411 0.742493
vt 0.095447 0.745353
vt 0.102482 0.747801
vt 0.062206 0.753325
vt 0.058951 0.749537
vt 0.063308 0.739590
vt 0.057762 0.746565
vt 0.216887 0.848602
vt 0.226753 0.848025
vt 0.225492 0.853642
vt 0.216132 0.854320
vt 0.060483 0.759472
vt 0.056400 0.758131
vt 0.216026 0.859691
vt 0.223440 0.859210
vt 0.115502 0.774610
vt 0.121943 0.777735
vt 0.117005 0.778897
vt 0.134267 0.766266
vt 0.129128 0.772760
vt 0.125484 0.775125
vt 0.057758 0.765842
vt 0.053688 0.764989
vt 0.099598 0.733291
vt 0.103992 0.733358
vt 0.106520 0.735718
vt 0.109565 0.742522
vt 0.114615 0.740812
vt 0.109744 0.735733
vt 0.088569 0.796116
vt 0.087915 0.801353
vt 0.084591 0.798326
vt 0.083632 0.793843
vt 0.076925 0.792392
vt 0.078543 0.798562
vt 0.081573 0.802714
vt 0.090691 0.726275
vt 0.101189 0.723987
vt 0.106988 0.731935
vt 0.096166 0.730538
vt 0.226157 0.810613
vt 0.225450 0.804958
vt 0.238194 0.804070
vt 0.237812 0.812647
vt 0.232295 0.834230
vt 0.225701 0.832836
vt 0.227895 0.827350
vt 0.232156 0.824679
vt 0.222014 0.829455
vt 0.222570 0.824608
vt 0.224043 0.819796
vt 0.062550 0.789595
vt 0.057168 0.788530
vt 0.054566 0.779547
vt 0.061547 0.781522
vt 0.061852 0.774023
vt 0.056428 0.772845
vt 0.052321 0.788429
vt 0.050752 0.779445
vt 0.052767 0.772530
vt 0.089131 0.788697
vt 0.094650 0.790290
vt 0.096445 0.798758
vt 0.101881 0.789966
vt 0.105182 0.796694
vt 0.107873 0.801877
vt 0.101047 0.803930
vt 0.095680 0.805295
vt 0.092298 0.802806
vt 0.066011 0.808533
vt 0.061480 0.807654
vt 0.058386 0.800326
vt 0.062527 0.801754
vt 0.059728 0.795705
vt 0.054464 0.794850
vt 0.187937 0.852751
vt 0.187782 0.859688
vt 0.183764 0.858363
vt 0.183161 0.852632
vt 0.219364 0.840491
vt 0.218216 0.832053
vt 0.216277 0.824919
vt 0.228907 0.841549
vt 0.208034 0.848771
vt 0.208736 0.843119
vt 0.212156 0.838269
vt 0.109496 0.806659
vt 0.110130 0.811031
vt 0.105050 0.811456
vt 0.103543 0.808094
vt 0.098899 0.810304
vt 0.101974 0.814259
vt 0.153007 0.814020
vt 0.149168 0.820333
vt 0.147434 0.816899
vt 0.150525 0.812650
vt 0.204503 0.831879
vt 0.207022 0.831526
vt 0.208061 0.833851
vt 0.204770 0.834848
vt 0.209143 0.829883
vt 0.209786 0.834647
vt 0.205854 0.836888
vt 0.204097 0.839918
vt 0.201239 0.836745
vt 0.204556 0.828610
vt 0.203339 0.842641
vt 0.119197 0.799929
vt 0.123218 0.798949
vt 0.123481 0.805144
vt 0.119994 0.806345
vt 0.127123 0.798040
vt 0.126969 0.806083
vt 0.121227 0.810564
vt 0.201430 0.832688
vt 0.196646 0.839325
vt 0.199323 0.830800
vt 0.205941 0.825120
vt 0.212702 0.829034
vt 0.213180 0.817491
vt 0.215137 0.821242
vt 0.200430 0.820338
vt 0.197671 0.829322
vt 0.172637 0.841799
vt 0.179670 0.840047
vt 0.183231 0.844364
vt 0.175141 0.846479
vt 0.193188 0.837927
vt 0.189279 0.845914
vt 0.190187 0.836396
vt 0.186899 0.834612
vt 0.069854 0.813525
vt 0.064711 0.814551
vt 0.200522 0.847685
vt 0.194392 0.846792
vt 0.212956 0.813166
vt 0.200792 0.815224
vt 0.189124 0.827167
vt 0.190683 0.821090
vt 0.194085 0.827256
vt 0.190725 0.815991
vt 0.172745 0.830231
vt 0.179909 0.827669
vt 0.182029 0.832548
vt 0.175609 0.834711
vt 0.177531 0.806960
vt 0.172773 0.811583
vt 0.164736 0.814038
vt 0.178444 0.804174
vt 0.171984 0.803464
vt 0.165003 0.809140
vt 0.169882 0.814628
vt 0.166466 0.816165
vt 0.164917 0.819097
vt 0.162290 0.821741
vt 0.159051 0.817943
vt 0.158603 0.826767
vt 0.162727 0.829415
vt 0.166403 0.829671
vt 0.165534 0.824307
vt 0.165803 0.820618
vt 0.169180 0.825963
vt 0.173348 0.823884
vt 0.182620 0.820726
vt 0.176044 0.819965
vt 0.167284 0.817493
vt 0.169358 0.818616
vt 0.167283 0.821925
vt 0.176791 0.814466
vt 0.172800 0.815358
vt 0.171843 0.819213
vt 0.170252 0.822292
vt 0.183248 0.814486
vt 0.189096 0.810288
vt 0.197573 0.803649
vt 0.200291 0.810007
vt 0.186947 0.804697
vt 0.210593 0.801134
vt 0.212683 0.808439
vt 0.222049 0.795700
vt 0.223100 0.784491
vt 0.229798 0.792712
vt 0.215981 0.788487
vt 0.205705 0.793097
vt 0.209662 0.783190
vt 0.201586 0.787940
vt 0.193483 0.796844
vt 0.190840 0.791192
vt 0.130506 0.780985
vt 0.135652 0.779849
vt 0.133993 0.787448
vt 0.129707 0.789614
vt 0.182615 0.798103
vt 0.181451 0.793959
vt 0.130878 0.796858
vt 0.135191 0.795233
vt 0.126267 0.791236
vt 0.171396 0.797842
vt 0.169648 0.794529
vt 0.177882 0.791029
vt 0.130890 0.804560
vt 0.164556 0.804622
vt 0.161678 0.802192
vt 0.160752 0.799263
vt 0.166256 0.794033
vt 0.159051 0.810838
vt 0.156439 0.808220
vt 0.153337 0.803675
vt 0.115609 0.810760
vt 0.115392 0.806148
vt 0.114508 0.800537
vt 0.113322 0.794397
vt 0.118370 0.793289
vt 0.111263 0.787370
vt 0.117275 0.786022
vt 0.121628 0.785356
vt 0.122469 0.792012
vt 0.125950 0.784275
vt 0.153842 0.820335
vt 0.159052 0.834853
vt 0.152307 0.826586
vt 0.087793 0.816707
vt 0.093835 0.813126
vt 0.096289 0.817187
vt 0.090141 0.820587
vt 0.085376 0.812979
vt 0.090732 0.808751
vt 0.079977 0.809234
vt 0.086131 0.806496
vt 0.073992 0.804356
vt 0.064805 0.797066
vt 0.070939 0.797523
vt 0.067755 0.802561
vt 0.071991 0.809602
vt 0.076604 0.814143
vt 0.156755 0.837758
vt 0.165324 0.840621
vt 0.166638 0.845269
vt 0.159561 0.844402
vt 0.163361 0.834607
vt 0.169518 0.836298
vt 0.068965 0.790945
vt 0.068584 0.783513
vt 0.076135 0.784803
vt 0.068423 0.775737
vt 0.075796 0.777342
vt 0.082676 0.779329
vt 0.083350 0.786955
vt 0.088718 0.780355
vt 0.075337 0.770995
vt 0.069717 0.763972
vt 0.076187 0.765183
vt 0.068929 0.769071
vt 0.071521 0.758395
vt 0.077867 0.760654
vt 0.073901 0.752788
vt 0.079936 0.756034
vt 0.087517 0.759760
vt 0.082282 0.752098
vt 0.088942 0.755360
vt 0.085115 0.747189
vt 0.091080 0.750004
vt 0.098694 0.752980
vt 0.084898 0.739080
vt 0.080560 0.743442
vt 0.076990 0.748119
vt 0.087604 0.732814
vt 0.092390 0.736173
vt 0.079262 0.736934
vt 0.080555 0.731645
vt 0.072914 0.735233
vt 0.068788 0.732734
vt 0.238736 0.830469
vt 0.238135 0.840526
vt 0.078685 0.724474
vt 0.236337 0.846390
vt 0.234495 0.819465
vt 0.242366 0.823434
vt 0.224816 0.815174
vt 0.066656 0.756226
vt 0.064352 0.761848
vt 0.062863 0.767453
vt 0.120481 0.735974
vt 0.216519 0.778953
vt 0.199746 0.853239
vt 0.193215 0.852999
vt 0.200910 0.858306
vt 0.193582 0.859058
vt 0.208199 0.853944
vt 0.208215 0.858260
vn 0.8392 0.1036 -0.5338
vn 0.5933 0.6423 -0.4853
vn 0.8216 0.5548 -0.1311
vn 0.9711 0.2100 0.1136
vn 0.7584 0.4044 0.5112
vn 0.4461 0.8437 0.2987
vn 0.0624 0.9965 -0.0556
vn 0.6360 0.7656 -0.0967
vn 0.7691 0.4391 -0.4644
vn 0.6976 0.4221 -0.5789
vn 0.7900 0.6124 -0.0286
vn 0.7820 0.2683 -0.5626
vn 0.5269 0.4231 -0.7371
vn 0.5406 0.3758 -0.7526
vn 0.6650 0.2148 -0.7153
vn 0.7515 0.0989 -0.6523
vn 0.0782 0.9878 0.1350
vn -0.2168 0.8997 0.3788
vn 0.0684 0.7934 0.6048
vn 0.3687 0.8822 0.2929
vn -0.5866 0.3254 0.7417
vn 0.0771 0.2773 0.9577
vn 0.6703 0.3438 0.6576
vn 0.9330 -0.2542 0.2548
vn 0.8626 -0.4751 0.1737
vn 0.9564 -0.2805 -0.0817
vn 0.9971 0.0069 -0.0755
vn 0.7376 0.2442 -0.6295
vn 0.8393 -0.4410 -0.3181
vn 0.4709 -0.8789 0.0764
vn 0.5036 -0.8595 0.0875
vn 0.4746 -0.8798 -0.0276
vn 0.8858 0.0029 0.4640
vn 0.8594 -0.1645 0.4841
vn 0.7731 -0.0978 0.6266
vn 0.8724 -0.0282 0.4879
vn 0.8903 0.0415 0.4535
vn 0.7691 0.0369 0.6380
vn 0.9010 -0.1129 0.4189
vn 0.1978 0.7369 0.6464
vn -0.4592 0.2483 0.8529
vn -0.5986 -0.0553 0.7992
vn -0.6660 0.0075 0.7459
vn -0.7082 0.0033 0.7060
vn -0.7050 -0.0219 0.7088
vn 0.2899 0.7600 0.5817
vn -0.2287 0.4353 0.8708
vn -0.6210 0.4520 0.6404
vn 0.4169 0.6008 -0.6820
vn 0.3954 -0.0140 -0.9184
vn 0.3485 0.5202 -0.7797
vn 0.0273 -0.9991 0.0338
vn 0.1100 -0.9827 -0.1491
vn 0.3320 -0.7216 -0.6075
vn -0.1495 0.9594 0.2391
vn 0.7779 -0.0799 0.6233
vn 0.6817 -0.2957 0.6693
vn 0.8493 -0.2459 0.4672
vn 0.8964 -0.2318 0.3779
vn 0.8068 -0.5121 0.2948
vn 0.7542 -0.5603 0.3424
vn 0.5125 0.3126 -0.7998
vn -0.0761 0.2887 -0.9544
vn 0.0677 0.8075 -0.5860
vn 0.1778 0.9365 -0.3024
vn -0.0754 0.9971 0.0075
vn -0.1589 0.9542 -0.2535
vn -0.3631 0.4751 -0.8015
vn 0.2565 -0.3092 0.9157
vn 0.1807 -0.7719 0.6095
vn 0.4437 -0.7608 0.4735
vn 0.5979 -0.2594 0.7584
vn -0.0067 -0.9835 0.1810
vn 0.0598 -0.9931 0.1010
vn -0.4431 0.1527 0.8834
vn -0.7419 0.1438 0.6549
vn -0.5356 -0.3795 0.7544
vn -0.2967 -0.4566 0.8387
vn -0.9454 -0.1173 0.3042
vn -0.7159 -0.5699 0.4033
vn -0.3561 -0.8444 0.4003
vn -0.0021 1.0000 0.0046
vn -0.0506 0.9941 0.0963
vn -0.2053 0.9393 0.2749
vn -0.0057 1.0000 0.0046
vn -0.0017 1.0000 0.0033
vn -0.2402 0.9397 0.2436
vn -0.6884 0.5824 0.4322
vn -0.6056 0.4013 0.6872
vn -0.6318 0.4042 0.6614
vn 0.6711 0.4654 -0.5772
vn 0.7097 0.0344 -0.7037
vn 0.4977 0.2078 -0.8421
vn 0.6921 0.1818 -0.6986
vn 0.7458 0.2206 -0.6286
vn 0.7477 0.1832 -0.6383
vn 0.4701 0.5966 -0.6504
vn -0.1846 0.7040 -0.6858
vn -0.1845 0.1200 -0.9755
vn -0.7397 -0.0732 -0.6690
vn -0.9714 -0.0552 -0.2310
vn -0.7856 0.5924 -0.1786
vn -0.5440 0.6823 -0.4883
vn 0.0038 0.9999 0.0129
vn -0.6773 0.6982 0.2318
vn -0.9553 -0.0407 0.2929
vn -0.7630 0.1054 0.6377
vn -0.8216 -0.0993 0.5613
vn -0.6997 -0.4304 0.5702
vn -0.6256 0.1258 0.7700
vn -0.6999 -0.0267 0.7138
vn -0.6241 0.1306 0.7703
vn -0.2811 0.2666 0.9219
vn 0.6409 0.1263 -0.7572
vn 0.0316 0.1171 -0.9926
vn 0.0876 0.4106 -0.9076
vn 0.4146 0.5965 -0.6872
vn -0.1032 0.9049 -0.4129
vn -0.4183 0.5179 -0.7462
vn -0.5603 0.1168 -0.8200
vn -0.6572 -0.7371 0.1577
vn -0.1476 -0.7749 0.6147
vn -0.1187 -0.1244 0.9851
vn -0.8119 0.1272 0.5698
vn 0.4506 -0.6862 0.5710
vn 0.3859 0.2049 0.8995
vn -0.3023 0.7286 0.6146
vn -0.4136 0.7469 0.5206
vn -0.9295 0.3628 -0.0665
vn -0.1836 -0.9784 -0.0955
vn -0.6379 0.3186 0.7011
vn 0.7274 0.0376 -0.6852
vn 0.6533 -0.3817 -0.6539
vn 0.4195 -0.3764 -0.8260
vn 0.4303 -0.0044 -0.9027
vn 0.2769 -0.9168 -0.2878
vn -0.0697 -0.7388 -0.6704
vn -0.2797 -0.1299 -0.9513
vn -0.8468 -0.4496 -0.2841
vn -0.9741 0.1901 0.1228
vn -0.7313 -0.5033 -0.4604
vn -0.3702 -0.8164 0.4431
vn -0.0605 -0.4966 0.8658
vn -0.2347 -0.9273 0.2915
vn -0.4857 -0.7250 0.4883
vn -0.5153 -0.7584 0.3991
vn -0.9105 -0.3733 0.1781
vn -0.5720 0.7766 -0.2641
vn -0.8631 0.4520 0.2254
vn -0.9482 0.2666 0.1729
vn -0.7227 0.4436 -0.5301
vn -0.9533 -0.0580 0.2964
vn -0.9451 -0.0148 0.3265
vn -0.8320 0.0084 0.5547
vn -0.8040 0.0353 0.5936
vn -0.6964 -0.0139 0.7175
vn -0.8889 -0.0193 0.4576
vn -0.0488 -0.9934 0.1035
vn -0.1133 -0.9847 0.1323
vn -0.7702 -0.1312 0.6242
vn -0.6201 -0.5926 0.5141
vn -0.7896 -0.1964 0.5813
vn -0.2024 -0.9592 0.1975
vn -0.9357 0.2978 -0.1893
vn -0.9260 0.0102 0.3774
vn -0.9002 0.0162 0.4351
vn -0.9757 0.2068 -0.0719
vn 0.0357 -0.9991 -0.0224
vn 0.1546 -0.9674 -0.2004
vn 0.1234 -0.6719 -0.7303
vn 0.0260 -0.9821 -0.1867
vn -0.1244 -0.9639 -0.2353
vn -0.4792 -0.5228 -0.7050
vn -0.0364 -0.8829 -0.4682
vn 0.3767 -0.2880 -0.8804
vn 0.4009 0.4548 -0.7953
vn -0.1559 0.3502 -0.9236
vn -0.6160 0.0592 -0.7856
vn -0.6563 0.1049 -0.7472
vn -0.5858 0.2289 -0.7774
vn -0.7043 0.3355 -0.6257
vn -0.3981 0.7202 -0.5682
vn -0.2045 0.7224 -0.6606
vn -0.7176 0.6672 -0.1997
vn -0.9523 0.2520 0.1723
vn -0.7124 -0.5038 0.4885
vn -0.8182 -0.4715 0.3290
vn -0.1821 0.0950 -0.9787
vn -0.7668 -0.2405 -0.5952
vn -0.7302 0.6092 -0.3094
vn -0.2589 -0.9543 0.1493
vn -0.3444 -0.9386 -0.0197
vn -0.9091 -0.4164 -0.0116
vn -0.9373 0.3486 0.0013
vn -0.2344 -0.9443 0.2309
vn -0.0055 -0.9984 0.0564
vn 0.0234 -0.9994 0.0245
vn -0.0031 -0.9986 0.0527
vn 0.0330 -0.9994 -0.0046
vn 0.0122 -0.9991 0.0402
vn 0.0143 -0.9990 0.0430
vn 0.0310 -0.9964 0.0785
vn 0.3770 -0.9056 0.1944
vn 0.0494 -0.9985 0.0223
vn 0.0177 -0.9998 -0.0001
vn -0.0003 -1.0000 -0.0029
vn 0.0378 -0.9992 -0.0110
vn 0.0384 -0.9991 -0.0177
vn 0.0199 -0.9976 -0.0668
vn 0.0209 -0.9994 0.0288
vn 0.0272 -0.9993 -0.0258
vn 0.0264 -0.9996 -0.0037
vn -0.0009 -0.9994 0.0354
vn 0.3447 -0.8841 -0.3156
vn -0.2550 -0.9379 -0.2352
vn -0.2721 -0.9146 -0.2992
vn -0.6705 -0.3870 -0.6330
vn -0.6325 -0.2765 -0.7236
vn -0.7073 0.0577 -0.7045
vn -0.6053 0.1108 -0.7883
vn -0.1022 0.1404 -0.9848
vn 0.5522 0.1201 -0.8250
vn 0.7392 0.1444 -0.6578
vn 0.7303 0.2127 -0.6492
vn 0.6931 0.1036 -0.7134
vn 0.6116 0.3098 -0.7280
vn 0.4808 0.3126 -0.8192
vn 0.4286 -0.1782 -0.8857
vn 0.6578 -0.2971 -0.6921
vn 0.2390 -0.8317 -0.5011
vn -0.6761 0.0894 -0.7314
vn -0.6240 0.4087 -0.6660
vn -0.5792 0.4672 -0.6680
vn -0.3210 0.8697 -0.3749
vn -0.2738 0.9104 -0.3102
vn -0.3936 0.6900 -0.6074
vn -0.3774 0.6174 -0.6902
vn -0.5627 -0.0516 -0.8250
vn -0.4278 -0.0079 -0.9038
vn -0.4332 0.6179 -0.6561
vn 0.0006 1.0000 -0.0025
vn -0.0359 0.9964 -0.0766
vn -0.5529 0.6765 -0.4864
vn -0.7533 -0.0830 -0.6524
vn -0.5834 0.5664 -0.5821
vn -0.3594 0.8385 -0.4096
vn -0.6431 0.3725 -0.6691
vn -0.7739 0.3518 -0.5266
vn -0.0420 0.9990 0.0166
vn -0.0197 0.9993 0.0330
vn -0.0112 0.9976 0.0689
vn -0.0017 0.9998 0.0190
vn 0.0096 0.9990 0.0432
vn 0.1324 0.9901 -0.0471
vn 0.2006 0.9734 -0.1109
vn 0.6388 0.6032 -0.4777
vn 0.0002 1.0000 0.0082
vn 0.2561 0.8820 0.3955
vn 0.3414 0.8706 0.3542
vn 0.0015 0.9993 0.0366
vn 0.4113 0.7455 0.5245
vn 0.5960 0.5985 0.5353
vn 0.1927 0.9654 0.1757
vn 0.4058 0.8861 0.2241
vn 0.6132 0.7595 0.2171
vn 0.3901 0.9152 0.1010
vn 0.4444 0.8940 0.0567
vn 0.7917 0.4953 0.3576
vn 0.7366 0.5206 0.4318
vn 0.9070 0.3762 0.1893
vn 0.8815 0.0054 0.4722
vn 0.8120 0.4375 0.3864
vn 0.3985 0.9036 0.1571
vn 0.6540 -0.1304 0.7452
vn 0.8720 -0.0663 0.4850
vn 0.6584 -0.0301 0.7521
vn 0.1640 -0.1712 0.9715
vn 0.0532 -0.1009 0.9935
vn -0.4813 -0.0690 0.8739
vn -0.2515 -0.1560 0.9552
vn -0.1550 -0.6330 0.7585
vn -0.1795 -0.9313 0.3170
vn 0.3675 0.7906 0.4898
vn 0.3349 0.8372 0.4325
vn 0.0365 0.9971 0.0663
vn -0.7063 -0.0577 0.7056
vn -0.8844 -0.0506 0.4640
vn -0.6953 -0.0395 0.7176
f 1/1/1 2/2/2 3/3/3 4/4/4
f 5/5/5 4/4/4 3/3/3 6/6/6
f 7/7/7 6/6/6 3/3/3 2/2/2
f 8/8/8 9/9/9 10/10/10 11/11/11
f 12/12/12 13/13/13 10/10/10 9/9/9
f 14/14/14 15/15/15 10/10/10 13/13/13
f 4/4/4 11/11/11 10/10/10 1/1/1
f 16/16/16 1/1/1 10/10/10 15/15/15
f 17/17/17 18/18/18 19/19/19 20/20/20
f 21/21/21 22/22/22 19/19/19 18/18/18
f 23/23/23 20/20/20 19/19/19 22/22/22
f 24/24/24 25/25/25 26/26/26 27/27/27
f 9/9/9 27/27/27 26/26/26 12/12/12
f 28/28/28 12/12/12 26/26/26 29/29/29
f 30/30/30 31/31/31 26/26/26 25/25/25
f 32/32/32 29/29/29 26/26/26 31/31/31
f 33/33/33 34/34/34 35/35/35 36/36/36
f 37/37/37 36/36/36 35/35/35 38/38/38
f 39/39/39 38/38/38 35/35/35 34/34/34
f 18/18/18 40/40/40 41/41/41 21/21/21
f 42/42/42 21/21/21 41/41/41 43/43/43
f 44/44/44 43/45/43 41/46/41 45/47/45
f 46/48/46 47/49/47 41/41/41 40/40/40
f 48/50/48 45/47/45 41/46/41 47/51/47
f 12/12/12 28/28/28 49/52/49 13/13/13
f 50/53/50 51/54/51 49/52/49 28/28/28
f 14/14/14 13/13/13 49/52/49 51/54/51
f 52/55/52 53/56/53 32/32/32 31/31/31
f 54/57/54 29/29/29 32/32/32 53/56/53
f 55/58/55 48/59/48 47/49/47 46/48/46
f 56/60/56 57/61/57 58/62/58 33/33/33
f 34/34/34 33/33/33 58/62/58 59/63/59
f 60/64/60 59/63/59 58/62/58 61/65/61
f 62/66/62 63/67/63 64/68/64 65/69/65
f 66/70/66 65/69/65 64/68/64 67/71/67
f 68/72/68 67/71/67 64/68/64 63/67/63
f 69/73/69 70/74/70 71/75/71 72/76/72
f 56/60/56 72/76/72 71/75/71 57/61/57
f 73/77/73 74/78/74 71/79/71 70/80/70
f 75/81/75 76/82/76 77/83/77 78/84/78
f 79/85/79 80/86/80 77/83/77 76/82/76
f 81/87/81 78/84/78 77/83/77 80/86/80
f 82/88/82 83/89/83 84/90/84 85/91/85
f 86/92/86 85/91/85 84/90/84 87/93/87
f 88/94/88 89/95/89 84/90/84 83/89/83
f 90/96/90 87/93/87 84/90/84 89/95/89
f 91/97/91 92/98/92 93/99/93 62/66/62
f 94/100/94 95/101/95 93/99/93 92/98/92
f 96/102/96 97/103/97 93/99/93 95/101/95
f 98/104/98 99/105/99 93/99/93 97/103/97
f 63/67/63 62/66/62 93/99/93 99/105/99
f 100/106/100 101/107/101 102/108/102 103/109/103
f 104/110/104 103/109/103 102/108/102 105/111/105
f 106/112/106 105/113/105 102/114/102 101/115/101
f 107/116/107 108/117/108 79/85/79 76/82/76
f 109/118/109 80/86/80 79/85/79 108/117/108
f 75/81/75 110/119/110 107/116/107 76/82/76
f 43/45/43 44/44/44 107/116/107 110/119/110
f 111/120/111 112/121/112 107/116/107 44/44/44
f 113/122/113 108/117/108 107/116/107 112/121/112
f 114/123/114 115/124/115 116/125/116 117/126/117
f 118/127/118 117/126/117 116/125/116 119/128/119
f 120/129/120 119/130/119 116/131/116 115/132/115
f 121/133/121 122/134/122 123/135/123 124/136/124
f 125/137/125 126/138/126 123/135/123 122/134/122
f 127/139/127 124/136/124 123/135/123 126/138/126
f 113/122/113 128/140/128 127/139/127 126/138/126
f 129/141/129 124/136/124 127/139/127 128/140/128
f 130/142/130 125/137/125 122/134/122 121/133/121
f 131/143/131 128/140/128 113/122/113 112/121/112
f 132/144/132 133/145/133 134/146/134 135/147/135
f 136/148/136 137/149/137 134/146/134 133/145/133
f 138/150/138 135/147/135 134/146/134 137/149/137
f 124/136/124 129/141/129 139/151/139 121/133/121
f 140/152/140 141/153/141 139/151/139 129/141/129
f 130/142/130 121/133/121 139/151/139 141/153/141
f 125/137/125 130/142/130 142/154/142 143/155/143
f 144/156/144 145/157/145 142/154/142 146/158/146
f 109/118/109 143/155/143 142/154/142 145/157/145
f 141/153/141 147/159/147 142/154/142 130/142/130
f 148/160/148 149/161/149 150/162/150 151/163/151
f 152/164/152 153/165/153 150/162/150 154/166/154
f 155/167/155 154/166/154 150/162/150 149/161/149
f 100/106/100 151/168/151 150/169/150 101/107/101
f 106/112/106 101/115/101 150/162/150 153/165/153
f 156/170/156 157/171/157 140/152/140 131/143/131
f 128/140/128 131/143/131 140/152/140 129/141/129
f 153/165/153 152/164/152 140/152/140 157/171/157
f 147/159/147 141/153/141 140/152/140 152/164/152
f 158/172/158 144/156/144 146/158/146 159/173/159
f 160/174/160 161/175/161 146/158/146 162/176/162
f 163/177/163 159/173/159 146/158/146 161/175/161
f 164/178/164 165/179/165 166/180/166 167/181/167
f 160/174/160 155/167/155 166/180/166 165/179/165
f 149/161/149 167/181/167 166/180/166 155/167/155
f 168/182/168 169/183/169 170/184/170 171/185/171
f 172/186/172 171/185/171 170/184/170 173/187/173
f 174/188/174 175/189/175 170/184/170 169/183/169
f 176/190/176 177/191/177 170/184/170 175/189/175
f 178/192/178 173/187/173 170/184/170 177/191/177
f 179/193/179 178/192/178 177/191/177 180/194/180
f 181/195/181 180/194/180 177/191/177 182/196/182
f 183/197/183 182/196/182 177/191/177 176/190/176
f 184/198/184 185/199/185 165/179/165 164/178/164
f 161/175/161 160/174/160 165/179/165 186/200/186
f 187/201/187 186/200/186 165/179/165 185/199/185
f 188/202/188 183/197/183 176/190/176 175/189/175
f 174/188/174 189/203/189 188/202/188 175/189/175
f 190/204/190 183/197/183 188/202/188 189/203/189
f 169/183/169 191/205/191 192/206/192 174/188/174
f 187/201/187 193/207/193 192/206/192 191/205/191
f 189/203/189 174/188/174 192/206/192 193/207/193
f 189/203/189 193/207/193 194/208/194 190/204/190
f 184/198/184 190/204/190 194/208/194 185/199/185
f 187/201/187 185/199/185 194/208/194 193/207/193
f 152/164/152 154/166/154 162/176/162 147/159/147
f 155/167/155 160/174/160 162/176/162 154/166/154
f 168/182/168 195/209/195 191/205/191 169/183/169
f 186/200/186 187/201/187 191/205/191 195/209/195
f 196/210/196 163/177/163 195/209/195 168/182/168
f 161/175/161 186/200/186 195/209/195 163/177/163
f 197/211/197 198/212/198 196/210/196 199/213/199
f 159/173/159 163/177/163 196/210/196 198/212/198
f 171/185/171 199/213/199 196/210/196 168/182/168
f 200/214/200 201/215/201 198/212/198 197/211/197
f 158/172/158 159/173/159 198/212/198 201/215/201
f 202/216/202 74/78/74 201/215/201 200/214/200
f 73/77/73 158/172/158 201/215/201 74/78/74
f 30/217/30 203/218/203 202/216/202 204/219/204
f 71/79/71 74/78/74 202/216/202 203/218/203
f 205/220/205 204/219/204 202/216/202 200/214/200
f 52/221/52 204/219/204 205/220/205 206/222/206
f 197/211/197 207/223/207 205/220/205 200/214/200
f 208/224/208 206/222/206 205/220/205 207/223/207
f 209/225/209 206/226/206 208/227/208 210/228/210
f 211/229/211 212/230/212 208/224/208 207/223/207
f 213/231/213 210/228/210 208/227/208 212/232/212
f 214/233/214 210/228/210 213/231/213 136/148/136
f 215/234/215 216/235/216 213/236/213 212/230/212
f 137/149/137 136/148/136 213/231/213 216/237/216
f 217/238/217 218/239/218 216/235/216 215/234/215
f 138/240/138 137/241/137 216/235/216 218/239/218
f 219/242/219 220/243/220 218/239/218 217/238/217
f 221/244/221 138/240/138 218/239/218 220/243/220
f 135/147/135 138/150/138 221/245/221 222/246/222
f 120/129/120 115/132/115 221/244/221 220/243/220
f 114/123/114 222/246/222 221/245/221 115/124/115
f 96/102/96 223/247/223 222/246/222 114/123/114
f 132/144/132 135/147/135 222/246/222 223/247/223
f 95/101/95 224/248/224 223/247/223 96/102/96
f 225/249/225 132/144/132 223/247/223 224/248/224
f 226/250/226 227/251/227 225/249/225 224/248/224
f 228/252/228 229/253/229 225/249/225 227/251/227
f 133/145/133 132/144/132 225/249/225 229/253/229
f 230/254/230 214/233/214 229/253/229 228/252/228
f 136/148/136 133/145/133 229/253/229 214/233/214
f 50/53/50 54/57/54 230/254/230 228/252/228
f 53/56/53 209/225/209 230/254/230 54/57/54
f 210/228/210 214/233/214 230/254/230 209/225/209
f 51/54/51 50/53/50 228/252/228 227/251/227
f 14/14/14 51/54/51 227/251/227 226/250/226
f 15/15/15 14/14/14 226/250/226 94/100/94
f 95/101/95 94/100/94 226/250/226 224/248/224
f 231/255/231 120/129/120 220/243/220 219/242/219
f 178/192/178 179/193/179 231/255/231 219/242/219
f 232/256/232 233/257/233 231/255/231 179/193/179
f 119/130/119 120/129/120 231/255/231 233/257/233
f 234/258/234 235/259/235 233/260/233 232/261/232
f 118/127/118 119/128/119 233/260/233 235/259/235
f 236/262/236 237/263/237 235/259/235 234/258/234
f 98/104/98 118/127/118 235/259/235 237/263/237
f 238/264/238 239/265/239 237/263/237 236/262/236
f 99/105/99 98/104/98 237/263/237 239/265/239
f 240/266/240 68/72/68 239/265/239 238/264/238
f 63/67/63 99/105/99 239/265/239 68/72/68
f 241/267/241 242/268/242 240/266/240 243/269/243
f 67/71/67 68/72/68 240/266/240 242/268/242
f 244/270/244 243/269/243 240/266/240 238/264/238
f 151/168/151 100/106/100 244/270/244 245/271/245
f 103/109/103 243/269/243 244/270/244 100/106/100
f 234/272/234 246/273/246 245/274/245 236/275/236
f 148/160/148 151/163/151 245/274/245 246/273/246
f 238/264/238 236/262/236 245/271/245 244/270/244
f 232/256/232 247/276/247 246/273/246 234/272/234
f 248/277/248 148/160/148 246/273/246 247/276/247
f 180/194/180 181/195/181 248/277/248 247/276/247
f 164/178/164 167/181/167 248/277/248 181/195/181
f 149/161/149 148/160/148 248/277/248 167/181/167
f 179/193/179 180/194/180 247/276/247 232/256/232
f 82/88/82 249/278/249 242/268/242 241/267/241
f 66/70/66 67/71/67 242/268/242 249/278/249
f 85/91/85 250/279/250 249/278/249 82/88/82
f 251/280/251 66/70/66 249/278/249 250/279/250
f 252/281/252 253/282/253 251/280/251 250/279/250
f 254/283/254 255/284/255 251/280/251 253/282/253
f 65/69/65 66/70/66 251/280/251 255/284/255
f 256/285/256 91/97/91 255/284/255 254/283/254
f 62/66/62 65/69/65 255/284/255 91/97/91
f 7/7/7 2/2/2 256/285/256 254/283/254
f 1/1/1 16/16/16 256/285/256 2/2/2
f 92/98/92 91/97/91 256/285/256 16/16/16
f 257/286/257 7/7/7 254/283/254 253/282/253
f 258/287/258 259/288/259 257/286/257 260/289/260
f 6/6/6 7/7/7 257/286/257 259/288/259
f 252/281/252 260/289/260 257/286/257 253/282/253
f 261/290/261 262/291/262 259/288/259 258/287/258
f 5/5/5 6/6/6 259/288/259 262/291/262
f 263/292/263 264/293/264 262/291/262 261/290/261
f 265/294/265 5/5/5 262/291/262 264/293/264
f 266/295/266 267/296/267 265/294/265 264/293/264
f 8/8/8 11/11/11 265/294/265 267/296/267
f 4/4/4 5/5/5 265/294/265 11/11/11
f 268/297/268 269/298/269 267/296/267 266/295/266
f 270/299/270 8/8/8 267/296/267 269/298/269
f 38/38/38 39/39/39 270/299/270 269/298/269
f 24/24/24 27/27/27 270/299/270 39/39/39
f 9/9/9 8/8/8 270/299/270 27/27/27
f 37/37/37 38/38/38 269/298/269 268/297/268
f 271/300/271 37/37/37 268/297/268 272/301/272
f 273/302/273 272/301/272 268/297/268 266/295/266
f 23/23/23 272/301/272 273/302/273 20/20/20
f 264/293/264 263/292/263 273/302/273 266/295/266
f 17/17/17 20/20/20 273/302/273 263/292/263
f 274/303/274 275/304/275 271/300/271 276/305/276
f 36/36/36 37/37/37 271/300/271 275/304/275
f 23/23/23 276/305/276 271/300/271 272/301/272
f 72/76/72 56/60/56 275/304/275 274/303/274
f 33/33/33 36/36/36 275/304/275 56/60/56
f 69/73/69 72/76/72 274/303/274 277/306/277
f 278/307/278 277/306/277 274/303/274 276/305/276
f 279/308/279 277/306/277 278/307/278 42/42/42
f 23/23/23 22/22/22 278/307/278 276/305/276
f 21/21/21 42/42/42 278/307/278 22/22/22
f 75/81/75 280/309/280 279/310/279 110/119/110
f 69/73/69 277/306/277 279/308/279 280/311/280
f 43/45/43 110/119/110 279/310/279 42/312/42
f 78/84/78 281/313/281 280/309/280 75/81/75
f 70/80/70 69/314/69 280/309/280 281/313/281
f 81/87/81 282/315/282 281/313/281 78/84/78
f 73/77/73 70/80/70 281/313/281 282/315/282
f 145/157/145 144/156/144 282/315/282 81/87/81
f 158/172/158 73/77/73 282/315/282 144/156/144
f 283/316/283 17/17/17 263/292/263 261/290/261
f 18/18/18 17/17/17 283/316/283 40/40/40
f 258/287/258 284/317/284 283/316/283 261/290/261
f 46/48/46 40/40/40 283/316/283 284/317/284
f 260/289/260 285/318/285 284/317/284 258/287/258
f 55/58/55 46/48/46 284/317/284 285/318/285
f 252/281/252 86/92/86 285/318/285 260/289/260
f 87/93/87 55/58/55 285/318/285 86/92/86
f 85/91/85 86/92/86 252/281/252 250/279/250
f 83/89/83 82/88/82 241/267/241 104/110/104
f 103/109/103 104/110/104 241/267/241 243/269/243
f 173/187/173 178/192/178 219/242/219 217/238/217
f 172/186/172 173/187/173 217/238/217 215/234/215
f 211/229/211 172/186/172 215/234/215 212/230/212
f 197/211/197 199/213/199 211/229/211 207/223/207
f 171/185/171 172/186/172 211/229/211 199/213/199
f 52/55/52 206/226/206 209/225/209 53/56/53
f 25/25/25 60/64/60 203/319/203 30/30/30
f 61/65/61 71/75/71 203/319/203 60/64/60
f 31/320/31 30/217/30 204/219/204 52/221/52
f 182/196/182 183/197/183 190/204/190 184/198/184
f 181/195/181 182/196/182 184/198/184 164/178/164
f 286/321/286 287/322/287 157/171/157 156/170/156
f 106/112/106 153/165/153 157/171/157 287/322/287
f 89/323/89 88/324/88 287/322/287 286/321/286
f 105/113/105 106/112/106 287/322/287 88/324/88
f 111/120/111 288/325/288 286/321/286 156/170/156
f 90/326/90 89/323/89 286/321/286 288/325/288
f 44/44/44 45/47/45 288/325/288 111/120/111
f 48/50/48 90/326/90 288/325/288 45/47/45
f 112/121/112 111/120/111 156/170/156 131/143/131
f 80/86/80 109/118/109 145/157/145 81/87/81
f 108/117/108 113/122/113 143/155/143 109/118/109
f 126/138/126 125/137/125 143/155/143 113/122/113
f 97/103/97 117/126/117 118/127/118 98/104/98
f 97/103/97 96/102/96 114/123/114 117/126/117
f 88/94/88 83/89/83 104/110/104 105/111/105
f 16/16/16 15/15/15 94/100/94 92/98/92
f 55/58/55 87/93/87 90/96/90 48/59/48
f 24/24/24 59/63/59 60/64/60 25/25/25
f 39/39/39 34/34/34 59/63/59 24/24/24
f 28/28/28 29/29/29 54/57/54 50/53/50
f 71/75/71 61/65/61 58/62/58 57/61/57
f 146/158/146 142/154/142 147/159/147 162/176/162
