# split from a merged terrain OBJ by scripts/split-terrain-obj-parts.py
o part-052
v -0.174773 0.935356 0.097357
v -0.174754 0.935291 0.098203
v -0.173148 0.935206 0.098322
v -0.173431 0.935232 0.097076
v -0.174073 0.934812 0.096890
v -0.173982 0.934998 0.098471
v -0.174452 0.934610 0.095377
v -0.175861 0.934989 0.096737
v -0.175931 0.934628 0.095317
v -0.175607 0.935513 0.097797
v -0.175915 0.935354 0.096430
v -0.175483 0.935311 0.098286
v -0.176375 0.935149 0.094976
v -0.178815 0.932353 0.084874
v -0.179131 0.932420 0.084605
v -0.178778 0.933179 0.084842
v -0.178473 0.932957 0.084701
v -0.177921 0.933339 0.085543
v -0.178656 0.933462 0.085633
v -0.179310 0.933132 0.085331
v -0.178013 0.932493 0.085892
v -0.178528 0.932371 0.085191
v -0.178128 0.932649 0.084753
v -0.177560 0.932927 0.085460
v -0.175996 0.934659 0.091373
v -0.176343 0.934360 0.089992
v -0.177721 0.934534 0.090490
v -0.177198 0.934748 0.091925
v -0.176598 0.934081 0.088624
v -0.177691 0.934280 0.088838
v -0.178625 0.934153 0.088692
v -0.178779 0.934294 0.089993
v -0.178158 0.933803 0.090506
v -0.177533 0.933958 0.091355
v -0.177243 0.934267 0.092631
v -0.179429 0.932380 0.085248
v -0.179487 0.934024 0.088261
v -0.180050 0.933690 0.087778
v -0.180353 0.933839 0.088752
v -0.179581 0.934124 0.089356
v -0.178693 0.933635 0.089593
v -0.179133 0.933403 0.088575
v -0.179278 0.933171 0.087588
v -0.178722 0.932454 0.086408
v -0.179440 0.932786 0.086738
v -0.179578 0.932475 0.086029
v -0.179110 0.932306 0.085580
v -0.179789 0.933403 0.086780
v -0.179798 0.932957 0.085958
v -0.179368 0.933836 0.087057
v -0.179372 0.933606 0.086184
v -0.178543 0.933942 0.087449
v -0.178586 0.933704 0.086550
v -0.177664 0.933941 0.087595
v -0.177706 0.933633 0.086531
v -0.176813 0.933767 0.087462
v -0.177028 0.933205 0.086395
v -0.176977 0.933159 0.087716
v -0.177466 0.932771 0.086788
v -0.177968 0.932958 0.088223
v -0.178313 0.932696 0.087333
v -0.177572 0.933251 0.089214
v -0.176631 0.933472 0.088812
v -0.177222 0.933557 0.090280
v -0.176268 0.933713 0.090020
v -0.176805 0.933777 0.091458
v -0.175834 0.933982 0.091260
v -0.176357 0.934012 0.092718
v -0.175469 0.934331 0.092568
v -0.175612 0.934910 0.092773
v -0.174918 0.934410 0.093919
v -0.174946 0.935113 0.094239
v -0.176489 0.935008 0.093226
v -0.175845 0.935206 0.094638
v -0.174188 0.935169 0.095616
v -0.175282 0.935324 0.096015
v -0.176948 0.934768 0.093842
v -0.176124 0.934314 0.093974
vt 0.005720 0.956037
vt 0.005342 0.955772
vt 0.005810 0.955065
vt 0.006297 0.955543
vt 0.896370 0.993104
vt 0.896814 0.992982
vt 0.897316 0.993132
vt 0.897118 0.993385
vt 0.895388 0.992802
vt 0.895656 0.993585
vt 0.894871 0.993268
vt 0.896255 0.993802
vt 0.895460 0.993770
vt 0.896553 0.993796
vt 0.894586 0.993502
vt 0.972254 0.988363
vt 0.972134 0.988521
vt 0.971842 0.988370
vt 0.971969 0.988199
vt 0.971631 0.987725
vt 0.971566 0.988487
vt 0.971870 0.988866
vt 0.972719 0.987977
vt 0.972414 0.988258
vt 0.972121 0.988028
vt 0.972105 0.987582
vt 0.892182 0.993776
vt 0.891443 0.993876
vt 0.891781 0.993005
vt 0.892639 0.993364
vt 0.890697 0.994029
vt 0.890708 0.993483
vt 0.890543 0.993061
vt 0.891267 0.992666
vt 0.891790 0.992492
vt 0.892349 0.992740
vt 0.893070 0.993072
vt 0.972310 0.988756
vt 0.890175 0.992735
vt 0.889911 0.992301
vt 0.890354 0.992321
vt 0.890794 0.992470
vt 0.891263 0.992157
vt 0.890680 0.991825
vt 0.890060 0.991773
vt 0.972998 0.988505
vt 0.973000 0.989041
vt 0.972570 0.988954
vt 0.972518 0.988614
vt 0.972711 0.989391
vt 0.972229 0.989204
vt 0.889478 0.992609
vt 0.889017 0.992693
vt 0.888843 0.992137
vt 0.889379 0.992115
vt 0.971556 0.989201
vt 0.889813 0.993209
vt 0.889357 0.993288
vt 0.971272 0.988586
vt 0.889996 0.993674
vt 0.889493 0.993947
vt 0.971166 0.988081
vt 0.889978 0.994150
vt 0.889314 0.994275
vt 0.888786 0.994296
vt 0.888881 0.994032
vt 0.891117 0.990573
vt 0.890447 0.990542
vt 0.890530 0.990122
vt 0.891262 0.990185
vt 0.972802 0.987401
vt 0.973217 0.987751
vt 0.890944 0.991196
vt 0.890329 0.991143
vt 0.973584 0.988401
vt 0.973564 0.989066
vt 0.891512 0.991493
vt 0.891746 0.990903
vt 0.892081 0.991965
vt 0.892335 0.991413
vt 0.891876 0.990523
vt 0.892529 0.991087
vt 0.892652 0.992408
vt 0.892937 0.991907
vt 0.893400 0.992654
vt 0.893746 0.992278
vt 0.893155 0.991583
vt 0.893839 0.991966
vt 0.007476 0.956934
vt 0.007803 0.957580
vt 0.007474 0.957687
vt 0.007047 0.956993
vt 0.007351 0.958644
vt 0.007010 0.957959
vt 0.007934 0.958250
vt 0.006581 0.957298
vt 0.006653 0.956295
vt 0.006145 0.956667
vt 0.006590 0.958031
vt 0.006255 0.957471
vt 0.005783 0.956847
vt 0.006848 0.958673
vt 0.894152 0.992912
vt 0.893834 0.993265
vt 0.894565 0.992470
vt 0.895863 0.992563
vt 0.006997 0.956276
vt 0.005277 0.956290
vt 0.889502 0.991847
vt 0.005077 0.956099
vt 0.005432 0.955294
vn 0.1050 0.9942 -0.0239
vn 0.0785 0.9071 0.4136
vn 0.8985 0.1686 0.4052
vn 0.9497 0.2768 -0.1466
vn 0.3076 -0.9515 0.0116
vn 0.1729 -0.3891 0.9048
vn 0.5891 -0.7999 -0.1148
vn -0.6955 -0.6666 0.2682
vn -0.4646 -0.8418 0.2748
vn -0.5817 0.7820 0.2237
vn -0.7492 0.6524 0.1143
vn -0.4982 -0.0140 0.8670
vn -0.8599 0.4541 0.2331
vn -0.1313 -0.6779 -0.7234
vn -0.5289 0.0304 -0.8482
vn -0.1105 0.7069 -0.6986
vn 0.3341 0.2507 -0.9086
vn 0.3619 0.8120 -0.4578
vn -0.0367 0.9184 -0.3940
vn -0.6431 0.5707 -0.5107
vn 0.3879 -0.9216 -0.0115
vn 0.2299 -0.9433 -0.2395
vn 0.5898 -0.3378 -0.7335
vn 0.8474 -0.0964 -0.5221
vn 0.5647 0.7654 -0.3086
vn 0.6484 0.7010 -0.2970
vn -0.3698 0.9153 0.1593
vn -0.5680 0.8229 0.0156
vn 0.7440 0.5978 -0.2985
vn 0.0114 0.9802 -0.1975
vn -0.0849 0.9840 -0.1564
vn -0.6649 0.5753 0.4765
vn -0.5701 -0.4909 0.6588
vn -0.7424 -0.5059 0.4392
vn -0.8818 -0.3063 0.3586
vn -0.7436 -0.5938 -0.3075
vn -0.2136 0.9614 -0.1735
vn -0.9937 0.0814 -0.0766
vn -0.9699 0.0394 0.2402
vn -0.7569 0.3921 0.5229
vn -0.3952 -0.7789 0.4870
vn -0.3296 -0.8829 0.3343
vn -0.4360 -0.8572 0.2739
vn -0.0255 -0.9659 0.2578
vn -0.5427 -0.7671 0.3421
vn -0.5780 -0.7899 0.2049
vn -0.1852 -0.9806 0.0635
vn -0.9890 0.1445 -0.0323
vn -0.9871 -0.0127 -0.1594
vn -0.2811 0.9260 -0.2519
vn -0.4236 0.8316 -0.3593
vn -0.0091 0.9748 -0.2228
vn 0.0215 0.9579 -0.2864
vn 0.1053 0.9527 -0.2852
vn 0.2411 0.9048 -0.3511
vn 0.8228 0.4514 -0.3453
vn 0.9192 0.0676 -0.3879
vn 0.6855 -0.7272 0.0365
vn 0.5166 -0.8545 0.0534
vn 0.0060 -0.9630 0.2693
vn -0.0264 -0.9576 0.2870
vn 0.0330 -0.9680 0.2489
vn 0.7652 -0.6431 -0.0299
vn 0.0094 -0.9744 0.2248
vn 0.7935 -0.6022 -0.0885
vn -0.0060 -0.9778 0.2096
vn 0.8408 -0.5233 -0.1384
vn -0.0375 -0.9741 0.2231
vn 0.8571 -0.4766 -0.1956
vn 0.5222 0.7892 -0.3232
vn 0.7598 -0.6175 -0.2034
vn 0.6037 0.7235 -0.3348
vn -0.2989 0.9514 -0.0745
vn -0.0798 0.9918 -0.0994
vn 0.7942 0.5092 -0.3316
vn 0.0378 0.9953 -0.0888
vn -0.9336 0.0943 0.3456
vn -0.2209 -0.9374 0.2692
f 1/1/1 2/2/2 3/3/3 4/4/4
f 5/5/5 4/6/4 3/7/3 6/8/6
f 7/9/7 5/5/5 8/10/8 9/11/9
f 10/12/10 11/13/11 8/10/8 12/14/12
f 13/15/13 9/11/9 8/10/8 11/13/11
f 14/16/14 15/17/15 16/18/16 17/19/17
f 18/20/18 17/19/17 16/18/16 19/21/19
f 20/22/20 19/21/19 16/18/16 15/17/15
f 21/23/21 22/24/22 23/25/23 24/26/24
f 18/20/18 24/26/24 23/25/23 17/19/17
f 14/16/14 17/19/17 23/25/23 22/24/22
f 25/27/25 26/28/26 27/29/27 28/30/28
f 29/31/29 30/32/30 27/29/27 26/28/26
f 31/33/31 32/34/32 27/29/27 30/32/30
f 33/35/33 34/36/34 27/29/27 32/34/32
f 35/37/35 28/30/28 27/29/27 34/36/34
f 36/38/36 20/22/20 15/17/15 14/16/14
f 37/39/37 38/40/38 39/41/39 40/42/40
f 41/43/41 40/42/40 39/41/39 42/44/42
f 43/45/43 42/44/42 39/41/39 38/40/38
f 44/46/44 45/47/45 46/48/46 47/49/47
f 48/50/48 49/51/49 46/48/46 45/47/45
f 36/38/36 47/49/47 46/48/46 49/51/49
f 50/52/50 51/53/51 49/54/49 48/55/48
f 20/22/20 36/38/36 49/51/49 51/56/51
f 52/57/52 53/58/53 51/53/51 50/52/50
f 19/21/19 20/22/20 51/56/51 53/59/53
f 54/60/54 55/61/55 53/58/53 52/57/52
f 18/20/18 19/21/19 53/59/53 55/62/55
f 56/63/56 57/64/57 55/61/55 54/60/54
f 24/65/24 18/66/18 55/61/55 57/64/57
f 58/67/58 59/68/59 57/69/57 56/70/56
f 21/23/21 24/26/24 57/71/57 59/72/59
f 60/73/60 61/74/61 59/68/59 58/67/58
f 44/46/44 21/23/21 59/72/59 61/75/61
f 42/44/42 43/45/43 61/74/61 60/73/60
f 45/47/45 44/46/44 61/75/61 43/76/43
f 41/43/41 42/44/42 60/73/60 62/77/62
f 63/78/63 62/77/62 60/73/60 58/67/58
f 64/79/64 62/77/62 63/78/63 65/80/65
f 56/70/56 29/81/29 63/78/63 58/67/58
f 26/82/26 65/80/65 63/78/63 29/81/29
f 34/36/34 33/35/33 64/79/64 66/83/66
f 41/43/41 62/77/62 64/79/64 33/35/33
f 67/84/67 66/83/66 64/79/64 65/80/65
f 68/85/68 66/83/66 67/84/67 69/86/69
f 26/82/26 25/87/25 67/84/67 65/80/65
f 70/88/70 69/86/69 67/84/67 25/87/25
f 71/89/71 69/90/69 70/91/70 72/92/72
f 28/93/28 73/94/73 70/91/70 25/95/25
f 74/96/74 72/92/72 70/91/70 73/94/73
f 75/97/75 72/92/72 74/96/74 76/98/76
f 77/99/77 13/100/13 74/96/74 73/94/73
f 11/101/11 76/98/76 74/96/74 13/100/13
f 28/93/28 35/102/35 77/99/77 73/94/73
f 68/85/68 78/103/78 77/104/77 35/37/35
f 9/11/9 13/15/13 77/104/77 78/103/78
f 69/86/69 71/105/71 78/103/78 68/85/68
f 7/9/7 9/11/9 78/103/78 71/105/71
f 5/5/5 7/9/7 75/106/75 4/6/4
f 71/89/71 72/92/72 75/97/75 7/107/7
f 1/1/1 4/4/4 75/97/75 76/98/76
f 10/108/10 1/1/1 76/98/76 11/101/11
f 34/36/34 66/83/66 68/85/68 35/37/35
f 30/32/30 29/31/29 56/63/56 54/60/54
f 31/33/31 30/32/30 54/60/54 52/57/52
f 37/39/37 31/33/31 52/57/52 50/52/50
f 38/40/38 37/39/37 50/52/50 48/55/48
f 43/45/43 38/40/38 48/55/48 45/109/45
f 22/24/22 21/23/21 44/46/44 47/49/47
f 14/16/14 22/24/22 47/49/47 36/38/36
f 32/34/32 40/42/40 41/43/41 33/35/33
f 32/34/32 31/33/31 37/39/37 40/42/40
f 6/8/6 12/14/12 8/10/8 5/5/5
f 2/2/2 12/110/12 6/111/6 3/3/3
f 2/2/2 1/1/1 10/108/10
f 2/2/2 10/108/10 12/110/12
