# split from a merged terrain OBJ by scripts/split-terrain-obj-parts.py
o part-004
v -0.359489 1.206288 -0.016949
v -0.358021 1.195291 -0.015131
v -0.354079 1.195968 -0.025893
v -0.357390 1.208499 -0.028288
v -0.351342 1.191511 -0.010912
v -0.346992 1.192329 -0.020860
v -0.345292 1.189283 -0.026348
v -0.352110 1.188448 -0.029518
v -0.356817 1.210329 -0.036468
v -0.355390 1.198747 -0.036337
v -0.354778 1.190339 -0.037504
v -0.361609 1.224014 -0.052559
v -0.363433 1.235356 -0.050713
v -0.359816 1.234661 -0.049129
v -0.357832 1.223919 -0.049289
v -0.358062 1.222386 -0.042936
v -0.360156 1.233624 -0.043021
v -0.363681 1.239430 -0.044819
v -0.353803 1.192374 -0.051310
v -0.353567 1.183971 -0.052045
v -0.353772 1.185719 -0.056285
v -0.355612 1.192631 -0.056121
v -0.355031 1.176108 -0.054301
v -0.359596 1.181592 -0.058521
v -0.363220 1.191813 -0.058680
v -0.337479 1.181916 -0.027686
v -0.338206 1.190060 -0.023575
v -0.331969 1.191269 -0.019002
v -0.332159 1.181386 -0.022119
v -0.340861 1.191515 -0.015672
v -0.333789 1.189014 -0.010950
v -0.330853 1.179478 -0.013356
v -0.329230 1.176241 -0.002439
v -0.330657 1.184553 -0.002169
v -0.344340 1.190920 -0.006644
v -0.337370 1.190465 -0.004085
v -0.331359 1.188817 -0.002596
v -0.349086 1.170165 0.047432
v -0.340721 1.165352 0.042922
v -0.337555 1.171444 0.041228
v -0.341885 1.176677 0.043745
v -0.333702 1.179788 0.029494
v -0.332850 1.172089 0.028543
v -0.333610 1.164595 0.028650
v -0.341173 1.158622 -0.014867
v -0.339636 1.162452 -0.024875
v -0.332936 1.163754 -0.023462
v -0.333767 1.160117 -0.015458
v -0.338479 1.168874 -0.028033
v -0.332261 1.168981 -0.024129
v -0.330631 1.165853 -0.015038
v -0.362557 1.234710 -0.028359
v -0.367132 1.238622 -0.027050
v -0.363586 1.238494 -0.021509
v -0.362668 1.233181 -0.021861
v -0.364942 1.231631 -0.008453
v -0.365788 1.238462 -0.010323
v -0.371505 1.238869 -0.014285
v -0.361652 1.237258 -0.036334
v -0.368009 1.239089 -0.039067
v -0.378952 1.239086 -0.018777
v -0.376007 1.238666 -0.032317
v -0.374887 1.239460 -0.043735
v -0.369308 1.170981 0.039550
v -0.367496 1.162184 0.035265
v -0.363735 1.162423 0.041782
v -0.362265 1.168421 0.045298
v -0.353709 1.163969 0.045377
v -0.357580 1.158006 0.040568
v -0.359764 1.156477 0.033108
v -0.360038 1.170973 -0.049758
v -0.362566 1.166306 -0.049347
v -0.366888 1.168070 -0.058705
v -0.360611 1.171477 -0.056661
v -0.365177 1.179601 -0.060579
v -0.371884 1.178867 -0.063001
v -0.378111 1.178909 -0.070365
v -0.378135 1.170608 -0.068947
v -0.378032 1.159446 -0.064250
v -0.368722 1.158669 -0.047727
v -0.352581 1.155046 0.031299
v -0.349075 1.156310 0.035520
v -0.342275 1.156737 0.026275
v -0.349882 1.155303 0.024171
v -0.359719 1.155904 0.024467
v -0.368432 1.203119 0.010808
v -0.375215 1.201462 0.021610
v -0.372724 1.189926 0.022805
v -0.365547 1.193073 0.013652
v -0.372241 1.180012 0.027501
v -0.366803 1.187482 0.027042
v -0.375064 1.179670 0.021541
v -0.359990 1.189306 0.018430
v -0.382869 1.177513 0.021758
v -0.383499 1.188388 0.024904
v -0.384709 1.200123 0.028449
v -0.379478 1.237028 -0.055070
v -0.383591 1.236987 -0.059905
v -0.387740 1.241168 -0.056546
v -0.380484 1.239790 -0.048746
v -0.383205 1.239005 -0.036924
v -0.391222 1.239677 -0.042156
v -0.402318 1.242179 -0.048260
v -0.399727 1.243703 -0.061539
v -0.382339 1.240206 -0.070342
v -0.388758 1.243859 -0.070912
v -0.352068 1.168828 -0.031625
v -0.353282 1.162424 -0.028344
v -0.361026 1.162746 -0.036970
v -0.357866 1.169878 -0.038931
v -0.358515 1.158040 -0.014587
v -0.365773 1.157530 -0.020035
v -0.373748 1.154366 -0.027650
v -0.378892 1.171633 -0.079505
v -0.380682 1.163869 -0.079795
v -0.389034 1.159916 -0.083152
v -0.393867 1.156235 -0.070101
v -0.371743 1.169968 0.022797
v -0.373524 1.169630 0.015931
v -0.368687 1.157232 0.006847
v -0.367976 1.159769 0.017776
v -0.380195 1.166626 0.016503
v -0.378297 1.155535 0.003014
v -0.357151 1.155991 0.013598
v -0.353748 1.156795 0.000909
v -0.423404 1.231401 0.062106
v -0.425912 1.231008 0.069119
v -0.420529 1.231045 0.070768
v -0.417784 1.231297 0.064833
v -0.427528 1.225329 0.071214
v -0.421415 1.225493 0.070616
v -0.416056 1.226429 0.065989
v -0.429838 1.238706 -0.107147
v -0.428663 1.245500 -0.104558
v -0.424557 1.247600 -0.109397
v -0.423810 1.239713 -0.111926
v -0.416911 1.239672 -0.110343
v -0.418548 1.247324 -0.107679
v -0.422089 1.246936 -0.101569
v -0.438332 1.225796 0.069495
v -0.436312 1.230849 0.067173
v -0.440489 1.230673 0.067990
v -0.441962 1.226671 0.064925
v -0.442578 1.228109 0.056075
v -0.439515 1.231574 0.057346
v -0.434653 1.231519 0.058729
v -0.392335 1.161796 0.021212
v -0.395201 1.152020 0.016877
v -0.386202 1.152328 -0.008155
v -0.403197 1.149681 0.009475
v -0.427996 1.232269 0.041021
v -0.424044 1.233340 0.033164
v -0.430879 1.231101 0.027546
v -0.433777 1.232234 0.038229
v -0.416820 1.236227 0.022268
v -0.424720 1.234796 0.017856
v -0.435128 1.234781 0.013287
v -0.439596 1.230647 0.023970
v -0.436384 1.227153 0.038052
v -0.434729 1.225011 0.027515
v -0.441001 1.224753 0.025608
v -0.437843 1.220872 0.039215
v -0.436000 1.220159 0.032382
v -0.440452 1.217347 0.030338
v -0.450023 1.225649 0.026870
v -0.445209 1.216644 0.029787
v -0.455986 1.223290 0.033821
v -0.448600 1.215239 0.035344
v -0.441820 1.214176 0.037679
v -0.448486 1.231271 0.020343
v -0.458149 1.231389 0.016073
v -0.461931 1.227641 0.022546
v -0.467996 1.224514 0.027913
v -0.441525 1.221992 0.046766
v -0.444335 1.215211 0.045885
v -0.451699 1.213208 0.042116
v -0.442066 1.217027 -0.093103
v -0.442460 1.205552 -0.092963
v -0.452339 1.205461 -0.077019
v -0.449660 1.215612 -0.079665
v -0.465210 1.194390 -0.076812
v -0.464966 1.205045 -0.070326
v -0.452504 1.193622 -0.081965
v -0.441915 1.193262 -0.094571
v -0.453782 1.214548 -0.065776
v -0.456759 1.209482 -0.064292
v -0.464723 1.208764 -0.061852
v -0.428720 1.155246 0.052780
v -0.432473 1.148164 0.052240
v -0.427528 1.147462 0.045054
v -0.420341 1.154277 0.049281
v -0.438292 1.141714 0.053188
v -0.440063 1.140792 0.047603
v -0.407236 1.156469 0.035598
v -0.412508 1.149363 0.032591
v -0.420705 1.147198 0.026941
v -0.434276 1.144761 0.036826
v -0.445470 1.142911 0.040204
v -0.438552 1.149558 0.054230
v -0.443538 1.145353 0.053863
v -0.448386 1.143842 0.050355
v -0.448007 1.163431 0.061698
v -0.443924 1.154041 0.055883
v -0.439723 1.157196 0.057022
v -0.440109 1.163599 0.061329
v -0.432227 1.163548 0.059694
v -0.435033 1.156134 0.054610
v -0.446411 1.215058 0.061271
v -0.446062 1.215355 0.053198
v -0.454592 1.207586 0.047713
v -0.451316 1.206874 0.058584
v -0.461938 1.219285 0.039180
v -0.469799 1.210741 0.040932
v -0.456300 1.195264 0.055683
v -0.461728 1.197045 0.046269
v -0.473644 1.199681 0.039298
v -0.456913 1.234915 -0.013112
v -0.460964 1.229844 -0.013654
v -0.463474 1.231108 0.000148
v -0.461513 1.232825 0.002591
v -0.465873 1.225773 0.008570
v -0.465029 1.224752 0.000673
v -0.472714 1.221455 0.031875
v -0.479644 1.210375 0.025898
v -0.474801 1.217077 0.019629
v -0.431837 1.153915 -0.085194
v -0.447260 1.152108 -0.071061
v -0.461731 1.156946 -0.073830
v -0.442380 1.153851 -0.088076
v -0.446248 1.159253 -0.087717
v -0.462811 1.160381 -0.078714
v -0.461367 1.150979 -0.049190
v -0.472349 1.155826 -0.051618
v -0.480337 1.167993 -0.050329
v -0.474232 1.169456 -0.067784
v -0.470950 1.170171 -0.076275
v -0.465283 1.219555 0.000244
v -0.466398 1.218899 0.009101
v -0.468515 1.221235 0.016602
v -0.467644 1.216455 0.015680
v -0.463672 1.172052 -0.079044
v -0.459352 1.165008 -0.080007
v -0.449810 1.172842 -0.085704
v -0.447557 1.165176 -0.087056
v -0.455466 1.163008 0.059974
v -0.455098 1.178831 0.060844
v -0.460384 1.180619 0.053108
v -0.461932 1.164363 0.054365
v -0.464440 1.167415 0.044872
v -0.465267 1.183297 0.044789
v -0.452323 1.193744 0.063192
v -0.448537 1.146259 0.019303
v -0.454875 1.147132 0.007055
v -0.444282 1.147539 0.002518
v -0.437466 1.147224 0.010763
v -0.426298 1.148807 -0.007558
v -0.441465 1.149200 -0.014246
v -0.456321 1.148387 -0.017135
v -0.466427 1.214293 0.010111
v -0.466659 1.209795 0.010105
v -0.466492 1.210695 0.014852
v -0.466969 1.213314 0.015213
v -0.466620 1.208910 0.001776
v -0.469579 1.208635 0.003695
v -0.473257 1.208484 0.006318
v -0.470748 1.210431 -0.051281
v -0.469211 1.209676 -0.061039
v -0.473249 1.210606 -0.059519
v -0.476377 1.210396 -0.052542
v -0.480969 1.198968 0.028074
v -0.483075 1.196024 0.011901
v -0.481455 1.203437 0.010855
v -0.474961 1.208999 0.010501
v -0.476212 1.209030 -0.013593
v -0.481107 1.208904 -0.013238
v -0.484516 1.203231 -0.013978
v -0.465414 1.214359 0.000721
v -0.453101 1.221322 -0.065976
v -0.454886 1.218797 -0.050881
v -0.454646 1.224446 -0.051448
v -0.452887 1.229042 -0.065724
v -0.458105 1.218318 -0.032720
v -0.457293 1.222827 -0.031770
v -0.451676 1.237303 -0.063732
v -0.453568 1.232427 -0.048037
v -0.455389 1.227753 -0.030495
v -0.330459 1.181373 0.012506
v -0.333654 1.187182 0.012347
v -0.340666 1.188998 0.010724
v -0.397572 1.246531 -0.092148
v -0.404431 1.246035 -0.085972
v -0.398784 1.245705 -0.081389
v -0.391025 1.245781 -0.083047
v -0.409183 1.245183 -0.076640
v -0.398860 1.244949 -0.072957
v -0.412072 1.244165 -0.066352
v -0.418247 1.245316 -0.080405
v -0.423644 1.244376 -0.070933
v -0.427963 1.243195 -0.058702
v -0.415463 1.242888 -0.054312
v -0.430684 1.241108 -0.041473
v -0.418036 1.241012 -0.038576
v -0.404886 1.240221 -0.033486
v -0.394829 1.239575 -0.028114
v -0.422294 1.237112 -0.020061
v -0.409162 1.238493 -0.015640
v -0.399478 1.238803 -0.011823
v -0.386438 1.239260 -0.023345
v -0.391255 1.238416 -0.007301
v -0.416082 1.236812 0.002390
v -0.407233 1.237378 0.006503
v -0.399279 1.237040 0.010698
v -0.384011 1.238091 -0.002849
v -0.392608 1.236670 0.014868
v -0.409738 1.235943 0.026249
v -0.403744 1.235647 0.029618
v -0.386598 1.236166 0.019398
v -0.398487 1.235118 0.032978
v -0.417781 1.233309 0.036451
v -0.412126 1.232784 0.038948
v -0.406972 1.231979 0.041531
v -0.392756 1.232588 0.036824
v -0.402858 1.229273 0.042167
v -0.416398 1.232016 0.046483
v -0.410783 1.231811 0.049407
v -0.407239 1.227826 0.050511
v -0.400537 1.223157 0.042133
v -0.406870 1.221198 0.050238
v -0.414190 1.231601 0.057671
v -0.411598 1.227217 0.058817
v -0.411300 1.220709 0.058736
v -0.406498 1.214204 0.049366
v -0.411219 1.212853 0.058190
v -0.416108 1.219691 0.065929
v -0.416418 1.211188 0.065350
v -0.411329 1.203631 0.056726
v -0.417359 1.201748 0.064246
v -0.422574 1.218286 0.069883
v -0.423913 1.209973 0.068951
v -0.425676 1.200933 0.067771
v -0.418707 1.190955 0.062793
v -0.427762 1.190137 0.065552
v -0.431338 1.210260 0.069217
v -0.433860 1.201523 0.067789
v -0.436504 1.190780 0.065682
v -0.429891 1.175934 0.063689
v -0.439211 1.176662 0.063810
v -0.441184 1.203063 0.067272
v -0.444723 1.192326 0.065109
v -0.447755 1.177773 0.063279
v -0.447740 1.205248 0.065092
v -0.437593 1.211683 0.068710
v -0.443434 1.213774 0.067235
v -0.435130 1.218846 0.069868
v -0.440062 1.220276 0.067747
v -0.443561 1.221649 0.062903
v -0.444119 1.222567 0.054965
v -0.440545 1.228392 0.046795
v -0.437595 1.232044 0.047757
v -0.431722 1.231940 0.049868
v -0.422190 1.232152 0.043772
v -0.426251 1.231852 0.051927
v -0.429656 1.231451 0.060187
v -0.420139 1.231728 0.054736
v -0.431579 1.230908 0.067796
v -0.433287 1.225373 0.070851
v -0.429217 1.218186 0.070357
v -0.423866 1.162545 0.058133
v -0.420029 1.176160 0.061311
v -0.414269 1.163728 0.051945
v -0.411820 1.177980 0.053225
v -0.411550 1.192812 0.054988
v -0.405233 1.181456 0.040633
v -0.405739 1.195137 0.044311
v -0.406096 1.205623 0.047558
v -0.395627 1.197882 0.035871
v -0.396984 1.207464 0.039564
v -0.398638 1.215943 0.041524
v -0.385934 1.210172 0.032381
v -0.387693 1.218799 0.035893
v -0.389655 1.226559 0.037358
v -0.378743 1.221604 0.022981
v -0.379288 1.228871 0.023784
v -0.380645 1.235668 0.023526
v -0.370571 1.230408 0.006750
v -0.371257 1.237370 0.005456
v -0.377218 1.237741 0.001601
v -0.364488 1.223975 -0.006867
v -0.370491 1.222710 0.007676
v -0.360447 1.216794 -0.018936
v -0.361536 1.225850 -0.020430
v -0.364107 1.215017 -0.005382
v -0.370163 1.213736 0.008777
v -0.363599 1.204575 -0.003307
v -0.377729 1.212609 0.021817
v -0.361735 1.194564 -0.000194
v -0.355041 1.190334 0.004629
v -0.347514 1.189503 0.008762
v -0.352583 1.188080 0.023662
v -0.345687 1.187396 0.026799
v -0.361100 1.186971 0.032525
v -0.355011 1.186001 0.037993
v -0.338492 1.186054 0.029149
v -0.347630 1.183124 0.042080
v -0.370167 1.181419 0.035443
v -0.364785 1.181329 0.043872
v -0.356898 1.176395 0.047488
v -0.370973 1.170962 0.030952
v -0.367875 1.161456 0.026785
v -0.359056 1.218884 -0.028932
v -0.360717 1.227848 -0.028983
v -0.358436 1.220560 -0.036138
v -0.360252 1.230272 -0.035858
v -0.356318 1.211679 -0.043527
v -0.355015 1.200638 -0.043933
v -0.354519 1.201887 -0.050733
v -0.355882 1.212971 -0.049986
v -0.357271 1.202401 -0.055259
v -0.359266 1.213238 -0.054024
v -0.364244 1.201892 -0.057562
v -0.365675 1.212850 -0.056033
v -0.367232 1.223393 -0.054384
v -0.368577 1.233941 -0.052515
v -0.371905 1.212553 -0.058073
v -0.373074 1.222755 -0.056386
v -0.374034 1.231814 -0.054640
v -0.368836 1.239798 -0.048081
v -0.374121 1.238479 -0.053110
v -0.378523 1.222359 -0.058364
v -0.379304 1.230531 -0.056737
v -0.379775 1.223358 -0.063891
v -0.381825 1.230973 -0.062252
v -0.378111 1.226018 -0.072720
v -0.378834 1.234121 -0.071345
v -0.377585 1.228978 -0.084462
v -0.379260 1.237810 -0.084164
v -0.382686 1.244330 -0.083454
v -0.387306 1.239963 -0.097495
v -0.390506 1.246879 -0.096160
v -0.398454 1.240139 -0.105050
v -0.401315 1.247589 -0.103016
v -0.406279 1.246948 -0.097210
v -0.412120 1.246193 -0.089282
v -0.410542 1.247500 -0.106156
v -0.414722 1.246949 -0.099577
v -0.420215 1.246227 -0.092203
v -0.427111 1.246145 -0.094922
v -0.433488 1.244557 -0.087637
v -0.426951 1.245314 -0.084212
v -0.440854 1.244259 -0.077120
v -0.433389 1.244419 -0.074295
v -0.446187 1.241575 -0.061865
v -0.437827 1.243084 -0.060501
v -0.449288 1.237274 -0.044771
v -0.440152 1.240292 -0.042622
v -0.450614 1.231093 -0.028253
v -0.442691 1.234303 -0.025432
v -0.434689 1.236965 -0.023347
v -0.448834 1.236802 -0.009716
v -0.440065 1.236611 -0.006384
v -0.428460 1.236159 -0.002412
v -0.445330 1.235101 0.009191
v -0.454320 1.235297 0.005924
v -0.446702 1.240374 -0.079741
v -0.438735 1.241479 -0.090646
v -0.441436 1.234799 -0.092453
v -0.448211 1.232728 -0.081007
v -0.441884 1.227036 -0.093038
v -0.448844 1.224512 -0.081065
v -0.435214 1.236967 -0.100588
v -0.435276 1.228908 -0.101761
v -0.434979 1.218881 -0.102482
v -0.429934 1.230080 -0.108570
v -0.429399 1.219900 -0.109051
v -0.429006 1.206826 -0.110562
v -0.434910 1.206143 -0.103231
v -0.428174 1.193599 -0.111317
v -0.434387 1.193297 -0.104060
v -0.427527 1.184045 -0.112470
v -0.433629 1.183304 -0.105395
v -0.440969 1.182398 -0.095895
v -0.433181 1.175574 -0.106381
v -0.439865 1.173543 -0.097987
v -0.452062 1.182402 -0.084054
v -0.464783 1.182977 -0.078561
v -0.474228 1.182218 -0.074176
v -0.474461 1.193815 -0.072032
v -0.477743 1.181934 -0.063023
v -0.478494 1.192704 -0.060441
v -0.470686 1.202890 -0.070503
v -0.478780 1.201895 -0.058654
v -0.482786 1.180764 -0.046754
v -0.483488 1.191115 -0.043513
v -0.483541 1.199075 -0.041253
v -0.481779 1.206274 -0.052137
v -0.483641 1.204993 -0.039104
v -0.485362 1.188897 -0.016066
v -0.484980 1.196538 -0.015000
v -0.483865 1.186882 0.012103
v -0.484966 1.177349 -0.018109
v -0.484060 1.174009 0.011893
v -0.479842 1.171521 0.028437
v -0.481439 1.186760 0.028780
v -0.471587 1.169675 0.037132
v -0.474443 1.185626 0.038401
v -0.476241 1.157452 0.028910
v -0.465777 1.156804 0.035988
v -0.459644 1.153961 0.044375
v -0.459242 1.149053 0.034948
v -0.453519 1.146125 0.042627
v -0.454313 1.151906 0.050657
v -0.449237 1.152156 0.054464
v -0.451305 1.145019 0.032054
v -0.468245 1.149222 0.026914
v -0.458783 1.146091 0.023186
v -0.441243 1.145532 0.028446
v -0.428638 1.147091 0.019411
v -0.413189 1.149151 0.001617
v -0.415431 1.150924 -0.028687
v -0.398286 1.151099 -0.017380
v -0.404618 1.153123 -0.048428
v -0.387248 1.152813 -0.038549
v -0.408104 1.155402 -0.075540
v -0.421215 1.152452 -0.058115
v -0.433854 1.150554 -0.038066
v -0.435227 1.152152 -0.065247
v -0.448703 1.150230 -0.044497
v -0.420790 1.154670 -0.081002
v -0.422422 1.156793 -0.095531
v -0.411828 1.157033 -0.092121
v -0.400021 1.157966 -0.087930
v -0.406854 1.159952 -0.100305
v -0.396133 1.161474 -0.096094
v -0.385682 1.161990 -0.091875
v -0.392682 1.163365 -0.103036
v -0.384010 1.163482 -0.098496
v -0.378463 1.168100 -0.098540
v -0.379021 1.166037 -0.089513
v -0.377736 1.174569 -0.098335
v -0.378254 1.173055 -0.088971
v -0.378078 1.179638 -0.079112
v -0.377651 1.180566 -0.088429
v -0.377324 1.181454 -0.097604
v -0.377182 1.189426 -0.087328
v -0.377353 1.190122 -0.096013
v -0.389486 1.175634 -0.105097
v -0.389151 1.182781 -0.104469
v -0.388943 1.191493 -0.103182
v -0.376420 1.205900 -0.094958
v -0.389284 1.206314 -0.102896
v -0.400944 1.183616 -0.109325
v -0.401533 1.192686 -0.108802
v -0.402625 1.206317 -0.108495
v -0.392860 1.220293 -0.103682
v -0.404802 1.220130 -0.108393
v -0.412165 1.193456 -0.112058
v -0.413547 1.206641 -0.111663
v -0.414819 1.220186 -0.111161
v -0.406637 1.230742 -0.108807
v -0.415785 1.230600 -0.111076
v -0.421708 1.207037 -0.114038
v -0.422899 1.220256 -0.112712
v -0.423527 1.230647 -0.112702
v -0.420546 1.193845 -0.114238
v -0.411237 1.183924 -0.112565
v -0.419595 1.184327 -0.114933
v -0.410877 1.176321 -0.112933
v -0.419074 1.176663 -0.115228
v -0.427141 1.176738 -0.113549
v -0.418672 1.170588 -0.114890
v -0.426167 1.170555 -0.114560
v -0.432262 1.168773 -0.107575
v -0.438901 1.166385 -0.099179
v -0.430603 1.162267 -0.108778
v -0.437443 1.159965 -0.100427
v -0.424528 1.159701 -0.106594
v -0.430904 1.156571 -0.098752
v -0.416646 1.159425 -0.103283
v -0.420083 1.163933 -0.113092
v -0.413181 1.163092 -0.109446
v -0.403645 1.163095 -0.106930
v -0.411185 1.169455 -0.112717
v -0.401346 1.168917 -0.110398
v -0.389950 1.169157 -0.105570
v -0.400812 1.176108 -0.110026
v -0.396096 1.230904 -0.105007
v -0.408312 1.239773 -0.108391
v -0.384304 1.231057 -0.097313
v -0.381037 1.220984 -0.096176
v -0.376899 1.218710 -0.084765
v -0.376125 1.204617 -0.085870
v -0.377633 1.215721 -0.074229
v -0.377026 1.203009 -0.075998
v -0.377334 1.189184 -0.078086
v -0.377485 1.201496 -0.067358
v -0.377619 1.188853 -0.069237
v -0.376733 1.200721 -0.061794
v -0.375265 1.188837 -0.062986
v -0.370758 1.201269 -0.059758
v -0.369012 1.190232 -0.060714
v -0.377644 1.212431 -0.059982
v -0.378178 1.213606 -0.065538
v -0.468233 1.149199 -0.018961
v -0.477777 1.153712 -0.020200
v -0.466212 1.146992 0.008996
v -0.476961 1.149912 0.010598
v -0.483088 1.164669 -0.019984
v -0.482978 1.160197 0.011381
v -0.480933 1.210066 -0.036780
v -0.474615 1.210048 -0.035607
v -0.464927 1.210464 -0.050984
v -0.468164 1.210047 -0.034665
v -0.470113 1.209221 -0.013980
v -0.461600 1.210128 -0.033693
v -0.464904 1.209450 -0.013192
v -0.455142 1.213294 -0.050544
v -0.458595 1.210504 -0.050770
v -0.458540 1.212539 -0.032937
v -0.463036 1.213433 -0.012742
v -0.462849 1.218882 -0.013022
v -0.462218 1.224091 -0.013351
v -0.433552 1.243795 -0.098538
v -0.354450 1.191601 -0.044733
v -0.355048 1.182799 -0.038528
v -0.354322 1.183330 -0.046192
v -0.356169 1.175810 -0.039287
v -0.355894 1.175995 -0.048215
v -0.351983 1.181897 -0.031122
v -0.351908 1.175013 -0.031463
v -0.345023 1.181663 -0.028772
v -0.345148 1.174887 -0.029477
v -0.345471 1.168326 -0.029286
v -0.337819 1.174943 -0.028345
v -0.346905 1.161369 -0.025939
v -0.349442 1.158164 -0.014443
v -0.342817 1.157114 -0.001596
v -0.334351 1.157527 -0.003196
v -0.336400 1.156242 0.011637
v -0.345761 1.156176 0.012021
v -0.328974 1.161863 -0.003398
v -0.329685 1.158830 0.011953
v -0.337005 1.158925 0.028350
v -0.329264 1.165352 0.012294
v -0.344823 1.159665 0.039987
v -0.328782 1.168826 -0.002767
v -0.329163 1.173259 0.012403
v -0.330579 1.172213 -0.014240
v -0.332151 1.174340 -0.023552
v -0.393332 1.185484 0.032196
v -0.392697 1.173718 0.026199
v -0.405480 1.167797 0.037706
v -0.473182 1.207004 -0.062342
v -0.468043 1.205505 -0.066246
v -0.424860 1.164938 -0.115270
vt 0.852091 0.146698
vt 0.844580 0.150260
vt 0.841573 0.141973
vt 0.851563 0.137424
vt 0.838286 0.151980
vt 0.834917 0.144833
vt 0.831442 0.141269
vt 0.834295 0.137519
vt 0.852438 0.130698
vt 0.843737 0.133047
vt 0.837080 0.132579
vt 0.863008 0.112721
vt 0.871327 0.110962
vt 0.869392 0.114171
vt 0.862205 0.116932
vt 0.861416 0.122212
vt 0.869524 0.118429
vt 0.874532 0.114764
vt 0.839442 0.121696
vt 0.833438 0.120851
vt 0.835034 0.117788
vt 0.840047 0.117577
vt 0.828317 0.117266
vt 0.832428 0.112581
vt 0.840594 0.111238
vt 0.818992 0.137818
vt 0.824828 0.141866
vt 0.821644 0.144098
vt 0.814567 0.139310
vt 0.828612 0.146607
vt 0.821324 0.147887
vt 0.810813 0.142020
vt 0.806802 0.145122
vt 0.814854 0.148563
vt 0.830654 0.151715
vt 0.822379 0.152935
vt 0.819130 0.150685
vt 0.544638 0.957373
vt 0.541733 0.953895
vt 0.544093 0.951367
vt 0.547057 0.953018
vt 0.547350 0.945437
vt 0.541841 0.946149
vt 0.537648 0.948367
vt 0.792887 0.126231
vt 0.803162 0.128900
vt 0.800026 0.131628
vt 0.793766 0.133020
vt 0.808902 0.131582
vt 0.803626 0.133619
vt 0.798199 0.137337
vt 0.666546 0.289593
vt 0.665613 0.292418
vt 0.662778 0.290455
vt 0.663837 0.287947
vt 0.872456 0.144720
vt 0.870771 0.133702
vt 0.873557 0.133372
vt 0.876147 0.141170
vt 0.657534 0.293258
vt 0.655601 0.290274
vt 0.671064 0.290221
vt 0.672333 0.293521
vt 0.659559 0.297034
vt 0.667960 0.296878
vt 0.674761 0.297117
vt 0.544955 0.967480
vt 0.539856 0.967942
vt 0.541191 0.964862
vt 0.544036 0.963462
vt 0.542069 0.960077
vt 0.538848 0.962199
vt 0.535909 0.964332
vt 0.176491 0.913931
vt 0.175511 0.911573
vt 0.180479 0.908590
vt 0.179802 0.912513
vt 0.184345 0.913202
vt 0.186797 0.910512
vt 0.190546 0.906595
vt 0.187066 0.903472
vt 0.181163 0.900172
vt 0.173137 0.907458
vt 0.534375 0.960308
vt 0.536312 0.958216
vt 0.532676 0.953883
vt 0.531205 0.958505
vt 0.531976 0.965245
vt 0.859489 0.169194
vt 0.862971 0.179717
vt 0.857111 0.189981
vt 0.854536 0.175988
vt 0.550048 0.974100
vt 0.555531 0.966916
vt 0.557276 0.973139
vt 0.549009 0.977552
vt 0.558302 0.959067
vt 0.560152 0.962338
vt 0.858199 0.199275
vt 0.854401 0.193715
vt 0.861927 0.194400
vt 0.866812 0.187133
vt 0.681820 0.300148
vt 0.684329 0.302544
vt 0.681618 0.304681
vt 0.677582 0.300330
vt 0.670222 0.300513
vt 0.672573 0.304836
vt 0.675314 0.310958
vt 0.683460 0.311216
vt 0.690584 0.304015
vt 0.690421 0.307366
vt 0.816126 0.128424
vt 0.808964 0.125393
vt 0.814528 0.123375
vt 0.819620 0.124952
vt 0.171089 0.916676
vt 0.169231 0.913861
vt 0.794519 0.119994
vt 0.796462 0.117505
vt 0.161465 0.907968
vt 0.158325 0.913604
vt 0.191809 0.900261
vt 0.189547 0.896408
vt 0.188900 0.890848
vt 0.181058 0.890506
vt 0.540112 0.974347
vt 0.536119 0.977085
vt 0.525667 0.976733
vt 0.532933 0.972823
vt 0.856636 0.206545
vt 0.856052 0.215864
vt 0.851118 0.211419
vt 0.854290 0.202888
vt 0.527018 0.966262
vt 0.520441 0.960356
vt 0.608857 0.308025
vt 0.604586 0.309245
vt 0.604046 0.307537
vt 0.607621 0.306107
vt 0.601738 0.310880
vt 0.601094 0.308891
vt 0.603163 0.305851
vt 0.705226 0.340063
vt 0.703756 0.335138
vt 0.706648 0.333887
vt 0.708499 0.338297
vt 0.711178 0.334636
vt 0.707334 0.330300
vt 0.703612 0.329787
vt 0.602456 0.315608
vt 0.604940 0.313091
vt 0.604801 0.314907
vt 0.604518 0.317570
vt 0.608595 0.317745
vt 0.609406 0.314900
vt 0.609438 0.312480
vt 0.513552 0.960204
vt 0.520945 0.977077
vt 0.509021 0.964070
vt 0.860497 0.213266
vt 0.860329 0.225378
vt 0.144387 0.911141
vt 0.148481 0.905208
vt 0.859673 0.233081
vt 0.855345 0.223641
vt 0.620781 0.312941
vt 0.625588 0.312681
vt 0.627840 0.317433
vt 0.620701 0.315683
vt 0.632217 0.310699
vt 0.634234 0.315312
vt 0.636178 0.321223
vt 0.629198 0.322593
vt 0.619541 0.317890
vt 0.625026 0.320021
vt 0.625729 0.323625
vt 0.617174 0.320189
vt 0.620785 0.321363
vt 0.620948 0.323700
vt 0.625929 0.328755
vt 0.620643 0.326047
vt 0.621502 0.332531
vt 0.617377 0.328245
vt 0.616082 0.324415
vt 0.630903 0.327820
vt 0.632833 0.333381
vt 0.628537 0.335633
vt 0.624800 0.338768
vt 0.612404 0.320919
vt 0.611765 0.325656
vt 0.613175 0.330938
vt 0.694933 0.354892
vt 0.694228 0.361662
vt 0.683524 0.361456
vt 0.686158 0.355200
vt 0.678447 0.372248
vt 0.676458 0.365605
vt 0.685512 0.369423
vt 0.694347 0.368806
vt 0.678056 0.354312
vt 0.676384 0.357710
vt 0.673082 0.361206
vt 0.579991 0.351386
vt 0.580708 0.358809
vt 0.577877 0.359656
vt 0.577543 0.346319
vt 0.583343 0.366356
vt 0.582047 0.369565
vt 0.866021 0.229190
vt 0.871840 0.236371
vt 0.867643 0.245066
vt 0.865038 0.235617
vt 0.864561 0.242648
vt 0.867928 0.253241
vt 0.870102 0.260350
vt 0.872606 0.254826
vt 0.583613 0.361436
vt 0.586408 0.366455
vt 0.587688 0.370123
vt 0.588188 0.354860
vt 0.585868 0.359957
vt 0.584341 0.356078
vt 0.586165 0.349971
vt 0.583961 0.346259
vt 0.582207 0.354243
vt 0.603592 0.325585
vt 0.607816 0.326052
vt 0.608701 0.334764
vt 0.603180 0.332126
vt 0.617534 0.335847
vt 0.614832 0.342625
vt 0.601739 0.340697
vt 0.606420 0.344072
vt 0.611853 0.349747
vt 0.649514 0.336057
vt 0.649422 0.339669
vt 0.641300 0.338317
vt 0.640281 0.336600
vt 0.635488 0.339571
vt 0.640490 0.341630
vt 0.622014 0.341232
vt 0.621923 0.349756
vt 0.626522 0.346611
vt 0.182351 0.867480
vt 0.172374 0.861984
vt 0.171379 0.853810
vt 0.182846 0.861865
vt 0.684853 0.391849
vt 0.685990 0.394564
vt 0.672200 0.395750
vt 0.675647 0.391809
vt 0.159355 0.857569
vt 0.158097 0.850940
vt 0.655474 0.388239
vt 0.667142 0.388124
vt 0.655538 0.395224
vt 0.673163 0.387193
vt 0.640533 0.344438
vt 0.635316 0.343127
vt 0.629835 0.342514
vt 0.631146 0.344903
vt 0.678115 0.385101
vt 0.678956 0.389219
vt 0.686051 0.382644
vt 0.686173 0.387465
vt 0.590758 0.357551
vt 0.595090 0.348260
vt 0.598899 0.351265
vt 0.595020 0.360220
vt 0.599224 0.362957
vt 0.603540 0.353659
vt 0.597800 0.338581
vt 0.867918 0.270410
vt 0.866025 0.274920
vt 0.863635 0.266903
vt 0.863881 0.257324
vt 0.858598 0.250408
vt 0.859905 0.268919
vt 0.861389 0.277370
vt 0.634678 0.345431
vt 0.634883 0.348096
vt 0.632644 0.347367
vt 0.631512 0.346670
vt 0.638622 0.349784
vt 0.635934 0.351761
vt 0.632171 0.354284
vt 0.665682 0.361547
vt 0.671033 0.363221
vt 0.668974 0.364819
vt 0.664647 0.364729
vt 0.618029 0.355223
vt 0.625532 0.361174
vt 0.628284 0.358978
vt 0.629715 0.355466
vt 0.643829 0.356951
vt 0.642576 0.359723
vt 0.641277 0.363506
vt 0.639808 0.346978
vt 0.678819 0.350150
vt 0.670078 0.349485
vt 0.670834 0.346226
vt 0.679326 0.345592
vt 0.659796 0.347177
vt 0.659604 0.344272
vt 0.679015 0.340510
vt 0.669734 0.341005
vt 0.659542 0.340887
vt 0.545174 0.938171
vt 0.541351 0.932373
vt 0.545929 0.931715
vt 0.551624 0.938106
vt 0.560431 0.937778
vt 0.547131 0.930085
vt 0.701670 0.315183
vt 0.697385 0.317008
vt 0.695421 0.313406
vt 0.697484 0.310613
vt 0.691505 0.317954
vt 0.690420 0.312294
vt 0.685097 0.317806
vt 0.692584 0.323136
vt 0.686483 0.324665
vt 0.679014 0.325400
vt 0.677668 0.318131
vt 0.668894 0.325328
vt 0.668184 0.318166
vt 0.666231 0.310804
vt 0.663848 0.305354
vt 0.656866 0.318822
vt 0.655317 0.311541
vt 0.653762 0.306219
vt 0.661666 0.300908
vt 0.651727 0.301877
vt 0.644010 0.312797
vt 0.642159 0.307975
vt 0.640182 0.303595
vt 0.649663 0.298039
vt 0.638364 0.300154
vt 0.630403 0.306673
vt 0.628616 0.303312
vt 0.635939 0.297113
vt 0.626896 0.300697
vt 0.623962 0.309100
vt 0.622469 0.306156
vt 0.620943 0.303695
vt 0.624387 0.297788
vt 0.619267 0.301934
vt 0.618434 0.307357
vt 0.616514 0.304839
vt 0.614814 0.302955
vt 0.616155 0.299578
vt 0.609859 0.301748
vt 0.612190 0.305160
vt 0.607888 0.304107
vt 0.602926 0.303235
vt 0.604839 0.300533
vt 0.600264 0.302522
vt 0.599991 0.307083
vt 0.595699 0.309710
vt 0.594651 0.307465
vt 0.592903 0.313923
vt 0.598552 0.309647
vt 0.595962 0.314643
vt 0.593119 0.320478
vt 0.589929 0.320711
vt 0.590290 0.328163
vt 0.596274 0.319715
vt 0.593976 0.326108
vt 0.591282 0.332972
vt 0.586550 0.336421
vt 0.589087 0.342263
vt 0.596529 0.328884
vt 0.594664 0.335951
vt 0.592038 0.345650
vt 0.599407 0.330617
vt 0.597450 0.323101
vt 0.600091 0.324550
vt 0.599385 0.318056
vt 0.601344 0.319389
vt 0.603568 0.321106
vt 0.607971 0.321022
vt 0.613417 0.317192
vt 0.614524 0.315345
vt 0.614933 0.312726
vt 0.619724 0.310139
vt 0.614638 0.310426
vt 0.609306 0.310217
vt 0.614017 0.307782
vt 0.604453 0.311327
vt 0.601198 0.314138
vt 0.598824 0.313456
vt 0.581747 0.341576
vt 0.584839 0.331111
vt 0.579453 0.332123
vt 0.585320 0.321667
vt 0.590721 0.310756
vt 0.588059 0.306769
vt 0.595988 0.299538
vt 0.598970 0.299422
vt 0.870116 0.196305
vt 0.876151 0.194133
vt 0.878602 0.202092
vt 0.872999 0.205979
vt 0.611031 0.298317
vt 0.607915 0.296000
vt 0.873092 0.184853
vt 0.878180 0.182531
vt 0.880858 0.191246
vt 0.882628 0.180516
vt 0.884957 0.188784
vt 0.874985 0.171396
vt 0.879303 0.168920
vt 0.883280 0.166227
vt 0.886606 0.178697
vt 0.888311 0.186835
vt 0.875576 0.156092
vt 0.879738 0.152613
vt 0.647612 0.294469
vt 0.634157 0.294279
vt 0.645770 0.291484
vt 0.868194 0.148127
vt 0.871077 0.159797
vt 0.859696 0.142232
vt 0.865925 0.137137
vt 0.861865 0.152648
vt 0.865554 0.163573
vt 0.854229 0.157970
vt 0.869689 0.174852
vt 0.847553 0.163724
vt 0.838371 0.161657
vt 0.563865 0.947041
vt 0.564183 0.953327
vt 0.829253 0.158668
vt 0.557040 0.952993
vt 0.561369 0.944173
vt 0.554939 0.949045
vt 0.554031 0.962571
vt 0.552732 0.958272
vt 0.552640 0.945716
vt 0.550017 0.955027
vt 0.551086 0.968242
vt 0.549311 0.964340
vt 0.547482 0.960594
vt 0.545026 0.971724
vt 0.536556 0.970351
vt 0.825202 0.161250
vt 0.859301 0.133984
vt 0.866149 0.130679
vt 0.871569 0.128618
vt 0.860167 0.127962
vt 0.867646 0.124694
vt 0.872947 0.121862
vt 0.853523 0.124796
vt 0.845226 0.126785
vt 0.846425 0.121280
vt 0.854560 0.119316
vt 0.847176 0.116885
vt 0.855167 0.115175
vt 0.848126 0.110907
vt 0.856216 0.109696
vt 0.864038 0.108024
vt 0.871969 0.106940
vt 0.857340 0.104320
vt 0.865054 0.103072
vt 0.872263 0.101827
vt 0.877292 0.109710
vt 0.877512 0.103483
vt 0.866085 0.098363
vt 0.872530 0.097589
vt 0.877495 0.098547
vt 0.867271 0.093670
vt 0.873815 0.092731
vt 0.878580 0.093734
vt 0.869471 0.086082
vt 0.875828 0.084323
vt 0.880586 0.084397
vt 0.872372 0.076405
vt 0.879212 0.074235
vt 0.884591 0.073316
vt 0.699043 0.307341
vt 0.883196 0.061104
vt 0.889082 0.061926
vt 0.706167 0.314639
vt 0.712982 0.322172
vt 0.708387 0.320976
vt 0.712346 0.314746
vt 0.703672 0.320441
vt 0.698163 0.321287
vt 0.707589 0.325247
vt 0.704275 0.325755
vt 0.698999 0.326352
vt 0.699483 0.331312
vt 0.694698 0.333448
vt 0.693677 0.328672
vt 0.687979 0.335239
vt 0.687341 0.330443
vt 0.679021 0.336187
vt 0.679070 0.331186
vt 0.668991 0.336676
vt 0.668635 0.330829
vt 0.659197 0.336792
vt 0.658520 0.331253
vt 0.657997 0.325860
vt 0.648921 0.331149
vt 0.647552 0.326195
vt 0.646032 0.319667
vt 0.637932 0.326913
vt 0.639194 0.332122
vt 0.688341 0.339868
vt 0.695251 0.338090
vt 0.695492 0.343231
vt 0.688421 0.344757
vt 0.695677 0.348612
vt 0.687754 0.349834
vt 0.700823 0.341818
vt 0.701393 0.347197
vt 0.701713 0.353911
vt 0.706016 0.345985
vt 0.706658 0.352434
vt 0.707065 0.360294
vt 0.701545 0.361229
vt 0.706857 0.367683
vt 0.701142 0.368569
vt 0.706401 0.373131
vt 0.700937 0.374333
vt 0.694196 0.375329
vt 0.700302 0.378956
vt 0.694244 0.381072
vt 0.685978 0.376583
vt 0.678566 0.379161
vt 0.672465 0.381252
vt 0.672866 0.374838
vt 0.665507 0.381567
vt 0.665658 0.376171
vt 0.673680 0.368979
vt 0.665850 0.370904
vt 0.654983 0.381210
vt 0.654874 0.375255
vt 0.654974 0.370752
vt 0.662179 0.367974
vt 0.655124 0.367063
vt 0.638804 0.371677
vt 0.639602 0.367357
vt 0.623239 0.366266
vt 0.637666 0.378311
vt 0.621039 0.373261
vt 0.611120 0.369329
vt 0.614437 0.361324
vt 0.604559 0.366448
vt 0.608457 0.357640
vt 0.607675 0.376562
vt 0.601037 0.373352
vt 0.595234 0.370394
vt 0.598287 0.377954
vt 0.591757 0.374636
vt 0.591440 0.366944
vt 0.587923 0.363289
vt 0.593242 0.379702
vt 0.587640 0.375917
vt 0.874902 0.280486
vt 0.871421 0.277297
vt 0.869862 0.268664
vt 0.874010 0.272951
vt 0.867324 0.259170
vt 0.863447 0.247538
vt 0.857939 0.243750
vt 0.155941 0.885957
vt 0.152409 0.897519
vt 0.142308 0.893123
vt 0.145306 0.882880
vt 0.849606 0.234074
vt 0.167599 0.888377
vt 0.165821 0.899179
vt 0.181044 0.881740
vt 0.170048 0.877699
vt 0.158043 0.873998
vt 0.171425 0.868853
vt 0.158466 0.864834
vt 0.146499 0.872775
vt 0.145766 0.864110
vt 0.182116 0.874070
vt 0.189505 0.870568
vt 0.189347 0.876815
vt 0.189107 0.883866
vt 0.194486 0.878159
vt 0.194372 0.884599
vt 0.194001 0.890755
vt 0.198604 0.885228
vt 0.197681 0.890273
vt 0.199289 0.893700
vt 0.194787 0.895276
vt 0.201830 0.896282
vt 0.196908 0.898406
vt 0.194452 0.903935
vt 0.199190 0.901659
vt 0.203800 0.899493
vt 0.201910 0.905457
vt 0.206185 0.903430
vt 0.728149 0.366975
vt 0.727798 0.362086
vt 0.733121 0.354540
vt 0.733125 0.360242
vt 0.727860 0.354923
vt 0.730722 0.346511
vt 0.727487 0.332402
vt 0.724313 0.341960
vt 0.722524 0.366562
vt 0.721950 0.361725
vt 0.721549 0.352642
vt 0.720587 0.332496
vt 0.717886 0.342446
vt 0.716638 0.364923
vt 0.716172 0.356399
vt 0.715127 0.348512
vt 0.715500 0.333395
vt 0.712920 0.340717
vt 0.712023 0.358861
vt 0.710768 0.351035
vt 0.710323 0.344469
vt 0.711625 0.366466
vt 0.716701 0.370287
vt 0.711233 0.371876
vt 0.715655 0.374713
vt 0.710601 0.376247
vt 0.705790 0.377420
vt 0.710056 0.379673
vt 0.705679 0.380985
vt 0.700049 0.383083
vt 0.694039 0.385558
vt 0.700241 0.386994
vt 0.693968 0.389629
vt 0.195524 0.868083
vt 0.190042 0.865560
vt 0.192284 0.862955
vt 0.196904 0.864674
vt 0.694815 0.393402
vt 0.194651 0.872381
vt 0.199638 0.868783
vt 0.198865 0.873086
vt 0.198723 0.878756
vt 0.202544 0.873959
vt 0.202499 0.879496
vt 0.202164 0.886406
vt 0.204535 0.888662
vt 0.722333 0.371668
vt 0.727454 0.372317
vt 0.720184 0.376836
vt 0.714532 0.378939
vt 0.708655 0.383899
vt 0.713221 0.383269
vt 0.717216 0.325575
vt 0.711705 0.327681
vt 0.716553 0.317516
vt 0.723266 0.322980
vt 0.864867 0.078821
vt 0.868467 0.068916
vt 0.875797 0.064639
vt 0.208441 0.910768
vt 0.211250 0.909703
vt 0.216983 0.915760
vt 0.213072 0.916847
vt 0.861891 0.087616
vt 0.852522 0.088721
vt 0.854624 0.080664
vt 0.197456 0.908115
vt 0.203352 0.912897
vt 0.850740 0.095701
vt 0.841357 0.095660
vt 0.842276 0.088662
vt 0.193493 0.910896
vt 0.849728 0.100252
vt 0.840680 0.100956
vt 0.191305 0.913351
vt 0.849021 0.105371
vt 0.840655 0.106290
vt 0.832263 0.107746
vt 0.832906 0.102169
vt 0.858568 0.099430
vt 0.859870 0.094819
vt 0.144528 0.856793
vt 0.143581 0.850824
vt 0.868794 0.282267
vt 0.865180 0.287680
vt 0.876396 0.291398
vt 0.862086 0.296649
vt 0.636421 0.385591
vt 0.635018 0.391859
vt 0.616129 0.386463
vt 0.618376 0.380284
vt 0.604688 0.382085
vt 0.655251 0.363464
vt 0.656398 0.359954
vt 0.667210 0.358491
vt 0.657650 0.356394
vt 0.645818 0.353667
vt 0.658908 0.352732
vt 0.647365 0.351007
vt 0.669362 0.352700
vt 0.668739 0.355150
vt 0.659294 0.350505
vt 0.648089 0.348714
vt 0.648460 0.345747
vt 0.648894 0.342946
vt 0.700184 0.336390
vt 0.677658 0.294806
vt 0.680436 0.297552
vt 0.676507 0.292516
vt 0.838495 0.127207
vt 0.830742 0.129737
vt 0.831956 0.124899
vt 0.824791 0.127043
vt 0.826617 0.121500
vt 0.820787 0.118957
vt 0.179883 0.916000
vt 0.176776 0.916977
vt 0.828497 0.134257
vt 0.821880 0.131083
vt 0.823968 0.136638
vt 0.818424 0.132994
vt 0.812631 0.130042
vt 0.813962 0.134450
vt 0.804575 0.126735
vt 0.792964 0.123564
vt 0.518732 0.950186
vt 0.512140 0.952774
vt 0.511441 0.947241
vt 0.512576 0.940965
vt 0.519467 0.943673
vt 0.526303 0.948762
vt 0.525404 0.955448
vt 0.521324 0.938706
vt 0.528550 0.944732
vt 0.534729 0.950957
vt 0.532033 0.942093
vt 0.539032 0.956167
vt 0.526482 0.935634
vt 0.532967 0.934577
vt 0.538176 0.939747
vt 0.804569 0.138428
vt 0.798414 0.141612
vt 0.790238 0.139415
vt 0.808435 0.135187
vt 0.513732 0.936899
vt 0.865319 0.203320
vt 0.869025 0.214501
vt 0.862436 0.207179
vt 0.865267 0.219040
vt 0.581875 0.317165
vt 0.874058 0.228629
vt 0.669927 0.366820
vt 0.673701 0.365364
vt 0.200777 0.866637
vt 0.705211 0.384337
vt 0.183196 0.915956
vn 0.9469 0.1818 0.2653
vn 0.7379 0.6225 0.2607
vn 0.8655 0.4999 -0.0331
vn 0.9735 0.1829 0.1372
vn 0.2322 0.9625 0.1406
vn 0.2839 0.9476 -0.1466
vn 0.3271 0.6133 -0.7189
vn 0.7629 0.3255 -0.5586
vn 0.9849 0.1538 0.0791
vn 0.9893 0.1456 0.0006
vn 0.9927 0.0780 -0.0915
vn 0.4604 0.1953 -0.8660
vn 0.4728 0.5187 -0.7124
vn 0.8281 0.4204 -0.3709
vn 0.9094 0.2034 -0.3628
vn 0.9811 0.1702 0.0921
vn 0.9354 0.3530 0.0186
vn 0.4734 0.8723 -0.1227
vn 0.9907 0.0905 -0.1015
vn 0.9834 -0.0986 -0.1525
vn 0.7574 0.0171 -0.6528
vn 0.6820 0.1440 -0.7170
vn 0.8267 -0.4260 -0.3675
vn 0.4703 -0.0733 -0.8795
vn 0.3040 0.1162 -0.9455
vn 0.4327 0.2285 -0.8721
vn 0.3436 0.7467 -0.5696
vn 0.6879 0.7010 -0.1882
vn 0.8882 0.1603 -0.4305
vn 0.1011 0.9949 0.0009
vn 0.6909 0.7225 -0.0244
vn 0.9884 0.1230 -0.0893
vn 0.9911 0.1208 -0.0553
vn 0.9370 0.3482 -0.0289
vn 0.0777 0.9938 0.0797
vn 0.2678 0.9628 0.0354
vn 0.6469 0.7625 0.0107
vn 0.1879 -0.0940 0.9777
vn 0.5897 -0.3587 0.7236
vn 0.8015 0.0060 0.5980
vn 0.5547 0.3143 0.7704
vn 0.8482 0.3828 0.3660
vn 0.9463 0.0213 0.3225
vn 0.8905 -0.2882 0.3519
vn 0.1063 -0.9695 -0.2209
vn 0.2352 -0.7270 -0.6451
vn 0.6276 -0.5776 -0.5220
vn 0.5244 -0.8126 -0.2543
vn 0.3411 -0.2164 -0.9148
vn 0.8025 -0.1674 -0.5727
vn 0.9541 -0.2395 -0.1797
vn 0.8624 0.5012 0.0711
vn 0.3122 0.9500 -0.0006
vn 0.6618 0.7496 0.0117
vn 0.9611 0.2616 0.0891
vn 0.9489 0.1485 0.2785
vn 0.6396 0.7434 0.1957
vn 0.0240 0.9992 0.0320
vn 0.7372 0.6659 0.1145
vn 0.1051 0.9904 0.0892
vn 0.0161 0.9996 0.0222
vn 0.0166 0.9996 0.0210
vn -0.0162 0.9999 -0.0055
vn -0.8477 -0.1267 0.5152
vn -0.7690 -0.5783 0.2724
vn -0.5336 -0.5616 0.6323
vn -0.4373 -0.2465 0.8649
vn -0.0107 -0.4921 0.8705
vn -0.1889 -0.8048 0.5627
vn -0.3443 -0.9232 0.1709
vn 0.7843 -0.5978 -0.1658
vn 0.7439 -0.5971 -0.3002
vn 0.6395 -0.4267 -0.6395
vn 0.6264 -0.5074 -0.5917
vn 0.3709 -0.0621 -0.9266
vn 0.5942 0.0170 -0.8041
vn 0.9510 -0.0034 -0.3093
vn 0.9067 -0.1571 -0.3913
vn 0.5306 -0.7814 -0.3283
vn 0.5043 -0.8173 -0.2789
vn 0.0003 -0.9939 0.1100
vn 0.1616 -0.9272 0.3378
vn 0.2493 -0.9589 0.1355
vn 0.0434 -0.9990 0.0087
vn -0.3010 -0.9536 0.0111
vn 0.8585 0.2489 0.4483
vn 0.6958 0.1238 0.7075
vn 0.1963 0.3586 0.9126
vn 0.6106 0.6727 0.4179
vn -0.8952 0.1797 0.4078
vn -0.3230 0.8506 0.4150
vn -0.3890 -0.2271 0.8928
vn 0.1483 0.9638 0.2215
vn 0.3662 -0.3154 0.8754
vn 0.4393 -0.1719 0.8817
vn 0.5850 -0.1033 0.8044
vn 0.4687 0.6594 -0.5878
vn 0.7756 0.6237 -0.0975
vn 0.3026 0.9522 0.0405
vn 0.1120 0.9899 -0.0867
vn 0.0355 0.9986 0.0393
vn 0.0849 0.9926 0.0870
vn 0.0643 0.9907 0.1199
vn 0.0643 0.9898 0.1268
vn 0.7359 0.6448 0.2065
vn 0.2792 0.9452 0.1691
vn 0.5495 -0.2922 -0.7827
vn 0.2915 -0.7998 -0.5247
vn 0.6172 -0.7266 -0.3019
vn 0.8359 -0.3905 -0.3858
vn 0.0717 -0.9893 -0.1267
vn 0.2778 -0.9586 -0.0622
vn 0.3055 -0.9511 -0.0465
vn 0.9935 -0.1130 -0.0150
vn 0.7829 -0.6101 -0.1223
vn 0.3064 -0.9361 -0.1729
vn 0.1935 -0.9688 -0.1550
vn -0.9277 -0.3073 0.2120
vn -0.4550 -0.5872 0.6694
vn -0.1149 -0.9649 0.2360
vn -0.6589 -0.7442 0.1091
vn 0.3330 -0.5180 0.7879
vn 0.2615 -0.9169 0.3015
vn -0.1248 -0.9922 -0.0047
vn -0.0234 -0.9983 -0.0537
vn -0.0087 0.9988 0.0476
vn -0.0762 0.8011 0.5937
vn 0.3275 0.6253 0.7083
vn 0.4675 0.8099 0.3543
vn -0.0511 0.1103 0.9926
vn 0.3600 0.0262 0.9326
vn 0.7734 0.1273 0.6210
vn -0.7213 0.2012 -0.6627
vn -0.5736 0.7437 -0.3434
vn -0.2689 0.7653 -0.5848
vn -0.2202 0.2218 -0.9499
vn 0.2182 0.2201 -0.9508
vn 0.0898 0.8499 -0.5192
vn -0.1108 0.9916 0.0675
vn -0.4430 0.1177 0.8887
vn -0.1525 0.8319 0.5336
vn -0.5411 0.6300 0.5570
vn -0.8751 0.2667 0.4038
vn -0.9024 0.4268 -0.0601
vn -0.4709 0.8821 0.0139
vn -0.0087 0.9980 0.0619
vn 0.6044 -0.4316 0.6697
vn 0.4452 -0.8251 0.3478
vn 0.1987 -0.9796 0.0293
vn 0.1626 -0.9866 0.0165
vn -0.0484 0.9983 0.0315
vn -0.1459 0.9856 0.0854
vn -0.4210 0.8874 0.1877
vn -0.4785 0.8603 -0.1758
vn -0.1278 0.9867 0.1003
vn -0.1637 0.9792 0.1200
vn -0.0720 0.9783 0.1943
vn -0.1780 0.7441 0.6440
vn -0.8845 0.3356 -0.3241
vn -0.7272 0.4724 0.4981
vn -0.1802 0.4869 0.8547
vn -0.8856 0.3581 -0.2958
vn -0.8545 0.5007 0.1383
vn -0.3407 0.7675 0.5430
vn 0.0941 0.7249 0.6824
vn 0.1933 0.7241 0.6620
vn 0.2053 0.8108 0.5481
vn 0.2378 0.8680 0.4359
vn -0.4621 0.8865 -0.0227
vn -0.0998 0.8589 0.5024
vn -0.3889 0.8646 0.3181
vn -0.3744 0.8932 0.2489
vn -0.4238 0.8913 0.1610
vn -0.8926 0.2956 -0.3404
vn -0.6748 0.7264 -0.1304
vn -0.1303 0.8660 0.4828
vn -0.8341 0.0275 -0.5509
vn -0.8176 0.0656 -0.5720
vn -0.7232 0.3516 -0.5944
vn -0.9100 0.0872 -0.4054
vn -0.3897 0.2857 -0.8755
vn -0.3030 0.7363 -0.6051
vn -0.6068 0.1925 -0.7712
vn -0.7834 0.0581 -0.6188
vn -0.9480 0.2394 -0.2096
vn -0.5608 0.7846 -0.2643
vn -0.0999 0.9535 -0.2843
vn 0.3114 -0.5337 0.7863
vn 0.4407 -0.5073 0.7405
vn 0.4357 -0.8472 0.3039
vn 0.5325 -0.6007 0.5963
vn 0.2204 -0.6986 0.6807
vn 0.0897 -0.9883 0.1231
vn 0.6780 -0.4875 0.5501
vn 0.4210 -0.8538 0.3063
vn 0.1526 -0.9882 0.0085
vn 0.1733 -0.9793 -0.1049
vn -0.1250 -0.9863 -0.1073
vn 0.1526 -0.2051 0.9668
vn -0.1916 -0.5000 0.8445
vn -0.4974 -0.7627 0.4134
vn -0.0958 -0.3185 0.9431
vn 0.0240 -0.3887 0.9210
vn 0.1663 -0.4726 0.8655
vn 0.0879 -0.3758 0.9225
vn 0.1448 -0.4396 0.8865
vn 0.1989 -0.4200 0.8855
vn -0.8694 0.3778 0.3184
vn -0.8463 0.5326 0.0100
vn -0.6249 0.5341 0.5694
vn -0.8343 0.3977 0.3818
vn -0.1385 0.6865 0.7138
vn -0.5585 0.2998 0.7735
vn -0.8418 0.2246 0.4909
vn -0.6746 0.1547 0.7217
vn -0.6893 0.0973 0.7179
vn -0.4511 0.8695 -0.2011
vn -0.8254 0.5005 -0.2611
vn -0.8743 0.4716 -0.1152
vn -0.6376 0.7687 0.0508
vn -0.8968 0.4424 0.0008
vn -0.9737 0.1886 -0.1281
vn -0.6434 0.6681 0.3736
vn -0.8946 0.4115 0.1744
vn -0.6627 0.6584 -0.3570
vn 0.0405 -0.9895 -0.1386
vn -0.1006 -0.9867 -0.1274
vn -0.5226 -0.7735 -0.3585
vn -0.2930 -0.8807 -0.3721
vn -0.6172 -0.3728 -0.6928
vn -0.5898 -0.4021 -0.7003
vn -0.2045 -0.9696 -0.1347
vn -0.6287 -0.7401 -0.2387
vn -0.9159 -0.3198 -0.2426
vn -0.8702 -0.3552 -0.3415
vn -0.6997 -0.2532 -0.6681
vn -0.9873 0.0427 -0.1530
vn -0.9846 -0.0077 -0.1746
vn -0.7638 0.5800 -0.2830
vn -0.7503 0.3452 -0.5638
vn -0.3937 -0.0131 -0.9191
vn -0.4348 -0.0220 -0.9003
vn -0.6196 -0.0308 -0.7843
vn -0.6614 -0.0417 -0.7489
vn -0.4746 -0.3093 0.8241
vn -0.5819 0.0064 0.8133
vn -0.8481 0.0856 0.5229
vn -0.8220 -0.2422 0.5155
vn -0.8393 -0.2112 0.5009
vn -0.7493 0.0190 0.6620
vn -0.6206 0.0620 0.7816
vn 0.0134 -0.9966 -0.0813
vn 0.0045 -0.9977 -0.0672
vn 0.0295 -0.9968 -0.0747
vn 0.0375 -0.9966 -0.0738
vn 0.0432 -0.9968 -0.0667
vn 0.0383 -0.9972 -0.0648
vn 0.0016 -0.9980 -0.0638
vn -0.9944 -0.0027 -0.1060
vn -0.7172 0.6860 -0.1224
vn -0.6016 0.7203 -0.3453
vn -0.6862 0.5472 -0.4792
vn -0.6256 0.7769 -0.0712
vn -0.0020 0.9943 -0.1061
vn 0.0725 0.9754 -0.2080
vn 0.0377 0.9992 -0.0157
vn -0.0755 0.9175 -0.3904
vn -0.4305 0.8247 -0.3668
vn -0.4064 0.8901 -0.2061
vn -0.9319 0.1222 0.3415
vn -0.9899 0.1078 0.0916
vn -0.9254 0.3782 0.0258
vn -0.5065 0.7846 -0.3575
vn 0.0017 0.9996 0.0297
vn -0.4756 0.8776 0.0609
vn -0.9407 0.3354 0.0521
vn -0.9850 0.1159 -0.1279
vn -0.9804 0.0554 -0.1893
vn -0.9887 0.0698 -0.1323
vn -0.9868 0.1268 -0.1010
vn -0.9767 0.1180 -0.1793
vn -0.9757 0.0923 -0.1986
vn -0.9607 0.2019 -0.1907
vn -0.8589 0.5073 -0.0703
vn -0.8823 0.4700 0.0228
vn -0.8488 0.5086 -0.1446
vn 0.9426 0.2985 0.1494
vn 0.6032 0.7776 0.1775
vn 0.1229 0.9847 0.1236
vn 0.0208 0.9960 0.0872
vn -0.0083 0.9966 0.0825
vn 0.0124 0.9955 0.0939
vn 0.1193 0.9858 0.1180
vn -0.0143 0.9958 0.0908
vn 0.0369 0.9925 0.1162
vn -0.0108 0.9950 0.0996
vn -0.0245 0.9962 0.0836
vn -0.0224 0.9959 0.0874
vn -0.0318 0.9938 0.1063
vn -0.0080 0.9937 0.1116
vn -0.0889 0.9818 0.1677
vn -0.0325 0.9889 0.1452
vn 0.0076 0.9943 0.1067
vn 0.0351 0.9980 0.0528
vn -0.0551 0.9929 0.1050
vn -0.0615 0.9953 0.0747
vn -0.0169 0.9978 0.0636
vn 0.0278 0.9993 0.0245
vn 0.0033 0.9978 0.0667
vn -0.0902 0.9947 0.0486
vn -0.0466 0.9972 0.0590
vn 0.0033 0.9971 0.0762
vn 0.0008 0.9974 0.0722
vn 0.0100 0.9964 0.0839
vn -0.0300 0.9889 0.1452
vn -0.0132 0.9851 0.1716
vn 0.0346 0.9909 0.1298
vn 0.0639 0.9500 0.3057
vn -0.0453 0.9849 0.1672
vn -0.0105 0.9832 0.1823
vn 0.1996 0.9226 0.3300
vn 0.3805 0.6316 0.6755
vn 0.5006 0.5466 0.6712
vn 0.0155 0.9972 0.0727
vn 0.3556 0.9073 0.2243
vn 0.7875 0.4038 0.4656
vn 0.6067 0.1026 0.7883
vn 0.8370 0.0528 0.5446
vn 0.4228 0.8688 0.2576
vn 0.8296 0.2926 0.4756
vn 0.8597 -0.0059 0.5107
vn 0.8091 -0.0304 0.5869
vn 0.8492 -0.0662 0.5238
vn 0.7048 -0.0677 0.7062
vn 0.6555 -0.1222 0.7452
vn 0.8353 -0.1127 0.5381
vn 0.6061 -0.1690 0.7772
vn 0.3119 -0.1264 0.9416
vn 0.2494 -0.1508 0.9566
vn 0.1950 -0.1854 0.9631
vn 0.5474 -0.1599 0.8215
vn 0.1516 -0.1709 0.9736
vn -0.0370 -0.1334 0.9904
vn -0.0511 -0.1601 0.9858
vn -0.0473 -0.1500 0.9876
vn 0.1352 -0.2113 0.9680
vn -0.0039 -0.1614 0.9869
vn -0.2030 -0.1056 0.9735
vn -0.1968 -0.1040 0.9749
vn -0.1743 -0.1010 0.9795
vn -0.6152 0.1204 0.7791
vn -0.2036 -0.0735 0.9763
vn -0.5874 0.1402 0.7971
vn -0.2102 -0.0842 0.9740
vn -0.5909 0.0570 0.8047
vn -0.9128 0.2420 0.3290
vn -0.9523 0.2899 -0.0950
vn -0.8610 0.4043 -0.3085
vn -0.4427 0.8879 -0.1253
vn -0.0013 0.9992 0.0398
vn -0.0113 0.9967 0.0807
vn 0.0005 0.9991 0.0420
vn -0.0096 0.9984 0.0558
vn 0.0028 0.9992 0.0402
vn -0.0899 0.8451 0.5270
vn -0.1780 0.1781 0.9678
vn -0.0114 -0.1247 0.9921
vn 0.3399 -0.4578 0.8215
vn 0.4764 -0.2111 0.8535
vn 0.7000 -0.3547 0.6198
vn 0.7979 -0.1512 0.5835
vn 0.8226 -0.1117 0.5575
vn 0.7773 -0.1597 0.6085
vn 0.7784 -0.1333 0.6135
vn 0.7909 -0.1119 0.6016
vn 0.6157 -0.1812 0.7669
vn 0.6159 -0.1677 0.7698
vn 0.6059 -0.0523 0.7939
vn 0.6704 -0.1105 0.7337
vn 0.6575 -0.0424 0.7522
vn 0.5988 0.1373 0.7891
vn 0.8436 0.0299 0.5361
vn 0.8225 0.1411 0.5510
vn 0.5277 0.7233 0.4454
vn 0.9018 0.1257 0.4135
vn 0.5953 0.7398 0.3134
vn 0.0077 0.9967 0.0812
vn 0.9450 0.1113 0.3076
vn 0.8996 0.0718 0.4307
vn 0.9659 0.1367 0.2198
vn 0.9709 0.1570 0.1806
vn 0.9368 0.1235 0.3274
vn 0.8864 0.1318 0.4437
vn 0.9284 0.2008 0.3127
vn 0.8116 0.0559 0.5816
vn 0.7321 0.6295 0.2603
vn 0.2345 0.9610 0.1467
vn 0.0487 0.9933 0.1046
vn 0.0336 0.9904 0.1338
vn 0.1078 0.9780 0.1787
vn -0.2165 0.9443 0.2477
vn -0.0304 0.9110 0.4112
vn 0.4861 0.8107 0.3263
vn 0.2717 0.7053 0.6547
vn -0.8029 0.4769 0.3576
vn -0.5046 0.5170 0.6915
vn -0.1279 0.2565 0.9580
vn -0.9662 -0.1715 0.1926
vn -0.7707 -0.6311 0.0875
vn 0.9765 0.1613 0.1427
vn 0.9717 0.1934 0.1356
vn 0.9797 0.1680 0.1096
vn 0.9678 0.2258 0.1108
vn 0.9864 0.1369 0.0905
vn 0.9925 0.0894 0.0834
vn 0.9694 0.1298 -0.2083
vn 0.9424 0.1780 -0.2831
vn 0.6133 0.1654 -0.7723
vn 0.5447 0.1922 -0.8163
vn 0.2989 0.1509 -0.9423
vn 0.2935 0.1787 -0.9391
vn 0.2879 0.1963 -0.9373
vn 0.3293 0.3720 -0.8679
vn 0.3047 0.1787 -0.9356
vn 0.3057 0.1985 -0.9312
vn 0.3224 0.2522 -0.9124
vn 0.1543 0.9201 -0.3601
vn 0.2351 0.7433 -0.6263
vn 0.7301 0.2195 -0.6472
vn 0.6465 0.2617 -0.7166
vn 0.9895 0.1445 0.0037
vn 0.9671 0.2515 -0.0381
vn 0.9859 0.0947 0.1383
vn 0.9485 0.2580 0.1838
vn 0.9717 0.1499 -0.1827
vn 0.9227 0.3398 -0.1821
vn 0.6359 0.7708 -0.0393
vn 0.7014 0.3170 -0.6384
vn 0.4479 0.8213 -0.3532
vn 0.4275 0.2498 -0.8688
vn 0.2460 0.8351 -0.4921
vn -0.0158 0.9964 0.0827
vn -0.0199 0.9965 0.0817
vn 0.1346 0.8289 -0.5430
vn -0.0270 0.9970 0.0726
vn -0.0435 0.9958 0.0808
vn -0.1962 0.9803 0.0223
vn -0.2564 0.9649 -0.0572
vn -0.0584 0.9963 0.0631
vn -0.3221 0.9451 -0.0552
vn -0.0656 0.9957 0.0651
vn -0.4452 0.8923 0.0743
vn -0.1278 0.9851 0.1151
vn -0.5384 0.8250 0.1717
vn -0.2450 0.9494 0.1967
vn -0.5035 0.8621 -0.0578
vn -0.2389 0.9707 0.0270
vn -0.0992 0.9905 0.0952
vn -0.1537 0.9859 -0.0654
vn -0.0297 0.9991 0.0312
vn -0.0390 0.9973 0.0617
vn -0.0505 0.9780 0.2023
vn -0.2535 0.9525 0.1689
vn -0.7525 0.5972 -0.2776
vn -0.6562 0.6715 -0.3442
vn -0.8271 0.2228 -0.5160
vn -0.9077 0.1740 -0.3819
vn -0.8358 0.0500 -0.5467
vn -0.9193 0.0490 -0.3905
vn -0.7991 0.2350 -0.5533
vn -0.7917 0.0548 -0.6084
vn -0.7876 0.0232 -0.6157
vn -0.6749 0.0494 -0.7363
vn -0.6443 0.0265 -0.7644
vn -0.6142 0.0290 -0.7886
vn -0.7855 0.0228 -0.6185
vn -0.5840 0.0240 -0.8114
vn -0.7783 0.0161 -0.6276
vn -0.5487 0.0552 -0.8342
vn -0.7751 0.0322 -0.6311
vn -0.7694 0.0240 -0.6383
vn -0.7746 0.0220 -0.6321
vn -0.7815 -0.0089 -0.6238
vn -0.5807 0.0553 -0.8122
vn -0.4078 0.0851 -0.9091
vn -0.7562 -0.0009 -0.6543
vn -0.7320 0.2080 -0.6488
vn -0.9477 -0.0566 -0.3140
vn -0.9405 0.0851 -0.3289
vn -0.5524 0.5316 -0.6421
vn -0.8559 0.3034 -0.4189
vn -0.9780 -0.0689 -0.1970
vn -0.9850 0.0136 -0.1722
vn -0.9885 -0.0008 -0.1510
vn -0.8902 0.3448 -0.2977
vn -0.9479 0.3024 -0.1002
vn -0.9999 0.0139 -0.0067
vn -0.9975 0.0696 0.0142
vn -0.9941 0.0155 0.1075
vn -0.9966 -0.0755 -0.0336
vn -0.9883 -0.0837 0.1275
vn -0.8748 -0.1517 0.4601
vn -0.9205 -0.0216 0.3901
vn -0.7088 -0.2014 0.6761
vn -0.7097 -0.0491 0.7028
vn -0.7575 -0.4133 0.5053
vn -0.6712 -0.4654 0.5769
vn -0.7790 -0.5216 0.3480
vn -0.5156 -0.8051 0.2931
vn -0.5755 -0.7999 0.1702
vn -0.6745 -0.5437 0.4994
vn -0.3308 -0.4653 0.8210
vn -0.1774 -0.9838 -0.0268
vn -0.4852 -0.8014 0.3497
vn -0.1557 -0.9864 0.0525
vn 0.0406 -0.9907 -0.1297
vn 0.0641 -0.9949 -0.0774
vn 0.0758 -0.9958 -0.0518
vn 0.0487 -0.9966 -0.0664
vn 0.0845 -0.9954 -0.0460
vn 0.0886 -0.9917 -0.0932
vn 0.1393 -0.9850 -0.1023
vn 0.1143 -0.9867 -0.1154
vn 0.0734 -0.9941 -0.0792
vn 0.0498 -0.9970 -0.0588
vn 0.0510 -0.9959 -0.0748
vn 0.0122 -0.9979 -0.0638
vn 0.0918 -0.9891 -0.1152
vn 0.0999 -0.9714 -0.2155
vn 0.1314 -0.9714 -0.1978
vn 0.1752 -0.9652 -0.1941
vn 0.1614 -0.9394 -0.3025
vn 0.1771 -0.9549 -0.2383
vn 0.3657 -0.9188 -0.1483
vn 0.2750 -0.7911 -0.5463
vn 0.4150 -0.8092 -0.4159
vn 0.8032 -0.3798 -0.4589
vn 0.8433 -0.5373 -0.0093
vn 0.8728 -0.0363 -0.4868
vn 0.9923 -0.1130 0.0500
vn 0.9974 -0.0706 0.0114
vn 0.9975 -0.0652 0.0283
vn 0.8730 0.0269 -0.4869
vn 0.9985 -0.0528 0.0122
vn 0.8758 0.0202 -0.4822
vn 0.4517 0.0404 -0.8913
vn 0.4553 0.0928 -0.8855
vn 0.4651 0.0754 -0.8820
vn 0.8635 0.0702 -0.4995
vn 0.4646 0.0548 -0.8838
vn 0.3468 0.0838 -0.9342
vn 0.3475 0.0666 -0.9353
vn 0.3358 0.0506 -0.9406
vn 0.4545 0.0578 -0.8889
vn 0.3155 0.0343 -0.9483
vn 0.2796 0.0659 -0.9579
vn 0.2666 0.0599 -0.9620
vn 0.2407 0.0460 -0.9695
vn 0.2914 0.0539 -0.9551
vn 0.2231 0.0579 -0.9731
vn -0.0922 0.0549 -0.9942
vn -0.1506 0.0441 -0.9876
vn -0.1900 0.0556 -0.9802
vn -0.0507 0.0529 -0.9973
vn 0.2823 0.0741 -0.9565
vn -0.0072 0.0739 -0.9972
vn 0.2722 0.0226 -0.9620
vn 0.0438 0.0352 -0.9984
vn -0.5153 0.0421 -0.8560
vn 0.1557 -0.1280 -0.9795
vn -0.4230 -0.0301 -0.9056
vn -0.7632 -0.0342 -0.6453
vn -0.7902 -0.0569 -0.6102
vn -0.5279 -0.5333 -0.6610
vn -0.6428 -0.4587 -0.6135
vn -0.0103 -0.9027 -0.4302
vn -0.1255 -0.9200 -0.3713
vn 0.1281 -0.9294 -0.3462
vn 0.1426 -0.6213 -0.7705
vn 0.1998 -0.7295 -0.6542
vn 0.2162 -0.7674 -0.6037
vn 0.2582 -0.2610 -0.9302
vn 0.3036 -0.2751 -0.9122
vn 0.4285 -0.2552 -0.8668
vn 0.3352 0.0451 -0.9411
vn 0.4437 0.0796 -0.8926
vn 0.2627 0.2201 -0.9394
vn 0.7373 0.1585 -0.6567
vn 0.7831 0.1335 -0.6073
vn 0.9895 0.1099 -0.0944
vn 0.9995 0.0256 -0.0162
vn 0.9941 0.0538 0.0945
vn 0.9981 0.0022 0.0615
vn 0.9981 -0.0528 0.0328
vn 0.9970 0.0466 -0.0613
vn 0.9809 0.0396 -0.1902
vn 0.7562 0.1350 -0.6403
vn 0.6888 0.1308 -0.7131
vn 0.3044 0.1511 -0.9405
vn 0.3116 0.1172 -0.9430
vn 0.7662 0.1712 -0.6194
vn 0.9961 0.0878 -0.0050
vn -0.2200 -0.9713 -0.0906
vn -0.6739 -0.7303 -0.1118
vn -0.1795 -0.9835 -0.0217
vn -0.6244 -0.7776 0.0740
vn -0.9490 -0.3055 -0.0783
vn -0.9317 -0.3390 0.1306
vn -0.4934 0.8697 -0.0094
vn -0.0102 0.9994 0.0337
vn -0.0028 0.9990 -0.0454
vn -0.0160 0.9994 0.0300
vn -0.0315 0.9989 0.0350
vn -0.3831 0.9224 -0.0492
vn -0.5190 0.8523 -0.0647
vn -0.9049 0.4081 -0.1205
vn -0.4032 0.9121 -0.0743
vn -0.8943 0.4128 -0.1726
vn -0.9502 0.2546 -0.1795
vn -0.9742 0.0774 -0.2118
vn -0.9537 0.1875 -0.2351
vn -0.6261 0.7172 -0.3060
vn 0.9961 0.0278 0.0833
vn 0.9843 -0.0493 -0.1694
vn 0.9902 -0.1091 0.0866
vn 0.9377 -0.2203 -0.2686
vn 0.9141 -0.4055 0.0079
vn 0.6962 0.0955 -0.7114
vn 0.6235 -0.0301 -0.7812
vn 0.2541 0.2047 -0.9453
vn 0.2314 0.0240 -0.9726
vn 0.2362 -0.2678 -0.9341
vn 0.4129 0.0311 -0.9102
vn 0.1371 -0.7963 -0.5892
vn 0.0209 -0.9822 -0.1867
vn 0.0352 -0.9950 -0.0938
vn 0.3592 -0.9236 -0.1342
vn 0.2447 -0.9695 0.0128
vn 0.0297 -0.9988 -0.0381
vn 0.8982 -0.4255 -0.1104
vn 0.7896 -0.6025 0.1166
vn 0.6100 -0.7265 0.3163
vn 0.9832 -0.0982 0.1536
vn 0.3709 -0.7214 0.5848
vn 0.9983 0.0073 -0.0583
vn 0.9906 0.0598 0.1234
vn 0.9883 0.0278 -0.1498
vn 0.8658 0.0331 -0.4993
vn 0.6162 -0.2037 0.7608
vn 0.6030 -0.2715 0.7501
vn 0.7654 -0.2578 0.5897
vn -0.5190 0.6278 -0.5800
vn -0.3298 0.7968 -0.5063
vn -0.2398 -0.4113 -0.8794
f 1/1/1 2/2/2 3/3/3 4/4/4
f 5/5/5 6/6/6 3/3/3 2/2/2
f 7/7/7 8/8/8 3/3/3 6/6/6
f 9/9/9 4/4/4 3/3/3 10/10/10
f 11/11/11 10/10/10 3/3/3 8/8/8
f 12/12/12 13/13/13 14/14/14 15/15/15
f 16/16/16 15/15/15 14/14/14 17/17/17
f 18/18/18 17/17/17 14/14/14 13/13/13
f 19/19/19 20/20/20 21/21/21 22/22/22
f 23/23/23 24/24/24 21/21/21 20/20/20
f 25/25/25 22/22/22 21/21/21 24/24/24
f 26/26/26 27/27/27 28/28/28 29/29/29
f 30/30/30 31/31/31 28/28/28 27/27/27
f 32/32/32 29/29/29 28/28/28 31/31/31
f 33/33/33 32/32/32 31/31/31 34/34/34
f 35/35/35 36/36/36 31/31/31 30/30/30
f 37/37/37 34/34/34 31/31/31 36/36/36
f 38/38/38 39/39/39 40/40/40 41/41/41
f 42/42/42 41/41/41 40/40/40 43/43/43
f 44/44/44 43/43/43 40/40/40 39/39/39
f 45/45/45 46/46/46 47/47/47 48/48/48
f 49/49/49 50/50/50 47/47/47 46/46/46
f 51/51/51 48/48/48 47/47/47 50/50/50
f 52/52/52 53/53/53 54/54/54 55/55/55
f 56/56/56 55/57/55 54/58/54 57/59/57
f 58/60/58 57/61/57 54/54/54 53/53/53
f 59/62/59 60/63/60 53/53/53 52/52/52
f 61/64/61 58/60/58 53/53/53 62/65/62
f 63/66/63 62/65/62 53/53/53 60/63/60
f 64/67/64 65/68/65 66/69/66 67/70/67
f 68/71/68 67/70/67 66/69/66 69/72/69
f 70/73/70 69/72/69 66/69/66 65/68/65
f 71/74/71 72/75/72 73/76/73 74/77/74
f 75/78/75 74/77/74 73/76/73 76/79/76
f 77/80/77 76/79/76 73/76/73 78/81/78
f 79/82/79 78/81/78 73/76/73 80/83/80
f 69/72/69 70/73/70 81/84/81 82/85/82
f 83/86/83 82/85/82 81/84/81 84/87/84
f 85/88/85 84/87/84 81/84/81 70/73/70
f 86/89/86 87/90/87 88/91/88 89/92/89
f 90/93/90 91/94/91 88/95/88 92/96/92
f 93/97/93 89/98/89 88/95/88 91/94/91
f 94/99/94 92/100/92 88/91/88 95/101/95
f 96/102/96 95/101/95 88/91/88 87/90/87
f 97/103/97 98/104/98 99/105/99 100/106/100
f 101/107/101 100/106/100 99/105/99 102/108/102
f 103/109/103 102/108/102 99/105/99 104/110/104
f 105/111/105 106/112/106 99/105/99 98/104/98
f 107/113/107 108/114/108 109/115/109 110/116/110
f 71/74/71 110/117/110 109/118/109 72/75/72
f 111/119/111 112/120/112 109/115/109 108/114/108
f 113/121/113 80/83/80 109/118/109 112/122/112
f 114/123/114 78/81/78 79/82/79 115/124/115
f 116/125/116 115/124/115 79/82/79 117/126/117
f 118/127/118 119/128/119 120/129/120 121/130/121
f 122/131/122 123/132/123 120/133/120 119/134/119
f 124/135/124 121/130/121 120/129/120 125/136/125
f 126/137/126 127/138/127 128/139/128 129/140/129
f 130/141/130 131/142/131 128/139/128 127/138/127
f 132/143/132 129/140/129 128/139/128 131/142/131
f 133/144/133 134/145/134 135/146/135 136/147/136
f 137/148/137 136/147/136 135/146/135 138/149/138
f 139/150/139 138/149/138 135/146/135 134/145/134
f 140/151/140 141/152/141 142/153/142 143/154/143
f 144/155/144 143/154/143 142/153/142 145/156/145
f 146/157/146 145/156/145 142/153/142 141/152/141
f 111/158/111 120/129/120 123/159/123 112/160/112
f 147/161/147 148/162/148 123/132/123 122/131/122
f 113/121/113 112/122/112 123/163/123 149/164/149
f 150/165/150 149/166/149 123/132/123 148/162/148
f 151/167/151 152/168/152 153/169/153 154/170/154
f 155/171/155 156/172/156 153/169/153 152/168/152
f 157/173/157 158/174/158 153/169/153 156/172/156
f 159/175/159 154/170/154 153/169/153 160/176/160
f 161/177/161 160/176/160 153/169/153 158/174/158
f 162/178/162 159/175/159 160/176/160 163/179/163
f 164/180/164 163/179/163 160/176/160 161/177/161
f 161/177/161 165/181/165 166/182/166 164/180/164
f 167/183/167 168/184/168 166/182/166 165/181/165
f 169/185/169 164/180/164 166/182/166 168/184/168
f 158/174/158 170/186/170 165/181/165 161/177/161
f 171/187/171 172/188/172 165/181/165 170/186/170
f 173/189/173 167/183/167 165/181/165 172/188/172
f 174/190/174 162/178/162 169/185/169 175/191/175
f 176/192/176 175/191/175 169/185/169 168/184/168
f 177/193/177 178/194/178 179/195/179 180/196/180
f 181/197/181 182/198/182 179/195/179 183/199/183
f 184/200/184 183/199/183 179/195/179 178/194/178
f 185/201/185 180/196/180 179/195/179 186/202/186
f 187/203/187 186/202/186 179/195/179 182/198/182
f 188/204/188 189/205/189 190/206/190 191/207/191
f 192/208/192 193/209/193 190/206/190 189/205/189
f 194/210/194 191/211/191 190/212/190 195/213/195
f 196/214/196 195/213/195 190/212/190 197/215/197
f 198/216/198 197/215/197 190/212/190 193/217/193
f 199/218/199 200/219/200 192/208/192 189/205/189
f 201/220/201 193/209/193 192/208/192 200/219/200
f 202/221/202 203/222/203 204/223/204 205/224/205
f 206/225/206 205/224/205 204/223/204 207/226/207
f 199/218/199 207/226/207 204/223/204 203/222/203
f 208/227/208 209/228/209 210/229/210 211/230/211
f 175/191/175 176/192/176 210/229/210 209/228/209
f 212/231/212 213/232/213 210/229/210 176/192/176
f 214/233/214 211/230/211 210/229/210 215/234/215
f 216/235/216 215/234/215 210/229/210 213/232/213
f 217/236/217 218/237/218 219/238/219 220/239/220
f 221/240/221 220/239/220 219/238/219 222/241/222
f 167/183/167 173/189/173 223/242/223 212/231/212
f 213/232/213 212/231/212 223/242/223 224/243/224
f 225/244/225 224/243/224 223/242/223 173/189/173
f 226/245/226 227/246/227 228/247/228 229/248/229
f 230/249/230 229/250/229 228/251/228 231/252/231
f 232/253/232 233/254/233 228/247/228 227/246/227
f 234/255/234 235/256/235 228/251/228 233/257/233
f 236/258/236 231/252/231 228/251/228 235/256/235
f 237/259/237 238/260/238 221/240/221 222/241/222
f 172/188/172 171/187/171 221/240/221 239/261/239
f 240/262/240 239/261/239 221/240/221 238/260/238
f 236/258/236 241/263/241 242/264/242 231/252/231
f 243/265/243 244/266/244 242/264/242 241/263/241
f 245/267/245 246/268/246 247/269/247 248/270/248
f 249/271/249 248/270/248 247/269/247 250/272/250
f 251/273/251 214/233/214 247/269/247 246/268/246
f 215/234/215 250/272/250 247/269/247 214/233/214
f 252/274/252 253/275/253 254/276/254 255/277/255
f 256/278/256 255/277/255 254/276/254 257/279/257
f 258/280/258 257/279/257 254/276/254 253/275/253
f 259/281/259 260/282/260 261/283/261 262/284/262
f 263/285/263 264/286/264 261/283/261 260/282/260
f 265/287/265 262/284/262 261/283/261 264/286/264
f 266/288/266 267/289/267 268/290/268 269/291/269
f 216/235/216 213/232/213 224/243/224 270/292/270
f 271/293/271 270/292/270 224/243/224 272/294/272
f 273/295/273 272/294/272 224/243/224 225/244/225
f 262/284/262 265/287/265 273/295/273 240/262/240
f 239/261/239 240/262/240 273/295/273 225/244/225
f 274/296/274 275/297/275 273/295/273 265/287/265
f 276/298/276 272/294/272 273/295/273 275/297/275
f 277/299/277 263/285/263 260/282/260 259/281/259
f 278/300/278 279/301/279 280/302/280 281/303/281
f 282/304/282 283/305/283 280/302/280 279/301/279
f 284/306/284 281/303/281 280/302/280 285/307/285
f 286/308/286 285/307/285 280/302/280 283/305/283
f 287/309/287 34/310/34 37/311/37 288/312/288
f 289/313/289 288/312/288 37/311/37 36/314/36
f 290/315/290 291/316/291 292/317/292 293/318/293
f 294/319/294 295/320/295 292/317/292 291/316/291
f 106/112/106 293/318/293 292/317/292 295/320/295
f 296/321/296 104/110/104 295/320/295 294/319/294
f 99/105/99 106/112/106 295/320/295 104/110/104
f 297/322/297 298/323/298 296/321/296 294/319/294
f 299/324/299 300/325/300 296/321/296 298/323/298
f 103/109/103 104/110/104 296/321/296 300/325/300
f 301/326/301 302/327/302 300/325/300 299/324/299
f 303/328/303 103/109/103 300/325/300 302/327/302
f 102/108/102 103/109/103 303/328/303 304/329/304
f 305/330/305 306/331/306 303/328/303 302/327/302
f 307/332/307 304/329/304 303/328/303 306/331/306
f 308/333/308 304/329/304 307/332/307 309/334/309
f 310/335/310 311/336/311 307/332/307 306/331/306
f 312/337/312 309/334/309 307/332/307 311/336/311
f 313/338/313 309/334/309 312/337/312 314/339/314
f 155/171/155 315/340/315 312/337/312 311/336/311
f 316/341/316 314/339/314 312/337/312 315/340/315
f 317/342/317 314/339/314 316/341/316 318/343/318
f 319/344/319 320/345/320 316/341/316 315/340/315
f 321/346/321 318/343/318 316/341/316 320/345/320
f 322/347/322 318/343/318 321/346/321 323/348/323
f 324/349/324 325/350/325 321/346/321 320/345/320
f 326/351/326 323/348/323 321/346/321 325/350/325
f 327/352/327 323/348/323 326/351/326 328/353/328
f 329/354/329 330/355/330 326/351/326 325/350/325
f 331/356/331 328/353/328 326/351/326 330/355/330
f 332/357/332 328/353/328 331/356/331 333/358/333
f 132/143/132 334/359/334 331/356/331 330/355/330
f 335/360/335 333/358/333 331/356/331 334/359/334
f 336/361/336 333/358/333 335/360/335 337/362/337
f 338/363/338 339/364/339 335/360/335 334/359/334
f 340/365/340 337/362/337 335/360/335 339/364/339
f 341/366/341 337/362/337 340/365/340 342/367/342
f 343/368/343 344/369/344 340/365/340 339/364/339
f 345/370/345 342/367/342 340/365/340 344/369/344
f 346/371/346 342/367/342 345/370/345 347/372/347
f 348/373/348 349/374/349 345/370/345 344/369/344
f 350/375/350 347/372/347 345/370/345 349/374/349
f 205/224/205 347/372/347 350/375/350 202/221/202
f 251/273/251 246/268/246 350/375/350 349/374/349
f 245/267/245 202/221/202 350/375/350 246/268/246
f 351/376/351 251/273/251 349/374/349 348/373/348
f 352/377/352 353/378/353 351/376/351 348/373/348
f 208/227/208 211/230/211 351/376/351 353/378/353
f 214/233/214 251/273/251 351/376/351 211/230/211
f 354/379/354 355/380/355 353/378/353 352/377/352
f 356/381/356 208/227/208 353/378/353 355/380/355
f 140/151/140 143/154/143 356/381/356 355/380/355
f 144/155/144 357/382/357 356/381/356 143/154/143
f 209/228/209 208/227/208 356/381/356 357/382/357
f 358/383/358 174/190/174 357/382/357 144/155/144
f 175/191/175 209/228/209 357/382/357 174/190/174
f 154/170/154 159/175/159 358/383/358 359/384/359
f 162/178/162 174/190/174 358/383/358 159/175/159
f 145/156/145 359/384/359 358/383/358 144/155/144
f 151/167/151 154/170/154 359/384/359 360/385/360
f 146/157/146 360/385/360 359/384/359 145/156/145
f 361/386/361 151/167/151 360/385/360 362/387/362
f 363/388/363 362/387/362 360/385/360 146/157/146
f 364/389/364 362/387/362 363/388/363 126/137/126
f 141/152/141 365/390/365 363/388/363 146/157/146
f 127/138/127 126/137/126 363/388/363 365/390/365
f 140/151/140 366/391/366 365/390/365 141/152/141
f 130/141/130 127/138/127 365/390/365 366/391/366
f 367/392/367 130/141/130 366/391/366 354/379/354
f 355/380/355 354/379/354 366/391/366 140/151/140
f 339/364/339 338/363/338 367/392/367 343/368/343
f 131/142/131 130/141/130 367/392/367 338/363/338
f 352/377/352 343/368/343 367/392/367 354/379/354
f 325/350/325 324/349/324 364/389/364 329/354/329
f 361/386/361 362/387/362 364/389/364 324/349/324
f 129/140/129 329/354/329 364/389/364 126/137/126
f 320/345/320 319/344/319 361/386/361 324/349/324
f 152/168/152 151/167/151 361/386/361 319/344/319
f 344/369/344 343/368/343 352/377/352 348/373/348
f 368/393/368 369/394/369 346/371/346 206/225/206
f 341/366/341 342/367/342 346/371/346 369/394/369
f 205/224/205 206/225/206 346/371/346 347/372/347
f 370/395/370 371/396/371 369/394/369 368/393/368
f 372/397/372 341/366/341 369/394/369 371/396/371
f 373/398/373 374/399/374 372/397/372 371/396/371
f 375/400/375 336/361/336 372/397/372 374/399/374
f 337/362/337 341/366/341 372/397/372 336/361/336
f 376/401/376 377/402/377 375/403/375 374/404/374
f 378/405/378 332/357/332 375/400/375 377/406/377
f 333/358/333 336/361/336 375/400/375 332/357/332
f 379/407/379 380/408/380 378/409/378 377/402/377
f 381/410/381 327/411/327 378/409/378 380/408/380
f 328/353/328 332/357/332 378/405/378 327/352/327
f 382/412/382 383/413/383 381/410/381 380/408/380
f 384/414/384 322/415/322 381/410/381 383/413/383
f 323/416/323 327/411/327 381/410/381 322/415/322
f 385/417/385 386/418/386 384/414/384 383/413/383
f 387/419/387 317/342/317 384/420/384 386/421/386
f 318/343/318 322/347/322 384/420/384 317/342/317
f 57/61/57 58/60/58 387/419/387 386/421/386
f 61/64/61 313/338/313 387/419/387 58/60/58
f 314/339/314 317/342/317 387/419/387 313/338/313
f 56/56/56 57/59/57 386/418/386 385/417/385
f 388/422/388 56/56/56 385/417/385 389/423/389
f 382/412/382 389/423/389 385/417/385 383/413/383
f 390/424/390 391/425/391 388/422/388 392/426/392
f 55/57/55 56/56/56 388/422/388 391/425/391
f 393/427/393 392/426/392 388/422/388 389/423/389
f 394/428/394 392/426/392 393/427/393 86/89/86
f 382/412/382 395/429/395 393/427/393 389/423/389
f 87/90/87 86/89/86 393/427/393 395/429/395
f 380/408/380 379/407/379 395/429/395 382/412/382
f 96/102/96 87/90/87 395/429/395 379/407/379
f 2/2/2 1/1/1 394/428/394 396/430/396
f 390/424/390 392/426/392 394/428/394 1/1/1
f 89/92/89 396/430/396 394/428/394 86/89/86
f 5/5/5 2/2/2 396/430/396 397/431/397
f 93/97/93 397/432/397 396/433/396 89/98/89
f 35/35/35 5/5/5 397/431/397 398/434/398
f 399/435/399 398/436/398 397/432/397 93/97/93
f 289/313/289 398/436/398 399/435/399 400/437/400
f 91/94/91 401/438/401 399/435/399 93/97/93
f 402/439/402 400/437/400 399/435/399 401/438/401
f 403/440/403 400/437/400 402/439/402 404/441/404
f 405/442/405 406/443/406 402/439/402 401/438/401
f 407/444/407 404/441/404 402/439/402 406/443/406
f 41/41/41 404/441/404 407/444/407 38/38/38
f 64/67/64 67/70/67 407/444/407 406/443/406
f 68/71/68 38/38/38 407/444/407 67/70/67
f 408/445/408 64/67/64 406/443/406 405/442/405
f 65/68/65 64/67/64 408/445/408 409/446/409
f 90/93/90 118/127/118 408/445/408 405/442/405
f 121/130/121 409/446/409 408/445/408 118/127/118
f 70/73/70 65/68/65 409/446/409 85/88/85
f 124/135/124 85/88/85 409/446/409 121/130/121
f 91/94/91 90/93/90 405/442/405 401/438/401
f 287/309/287 288/312/288 403/440/403 42/42/42
f 289/313/289 400/437/400 403/440/403 288/312/288
f 41/41/41 42/42/42 403/440/403 404/441/404
f 36/36/36 35/35/35 398/434/398 289/447/289
f 410/448/410 411/449/411 391/425/391 390/424/390
f 52/450/52 55/57/55 391/425/391 411/449/411
f 412/451/412 413/452/413 411/449/411 410/448/410
f 59/453/59 52/450/52 411/449/411 413/452/413
f 16/16/16 17/17/17 413/452/413 412/451/412
f 18/18/18 59/453/59 413/452/413 17/17/17
f 4/4/4 9/9/9 412/451/412 410/448/410
f 414/454/414 16/16/16 412/451/412 9/9/9
f 10/10/10 415/455/415 414/454/414 9/9/9
f 416/456/416 417/457/417 414/454/414 415/455/415
f 15/15/15 16/16/16 414/454/414 417/457/417
f 418/458/418 419/459/419 417/457/417 416/456/416
f 12/12/12 15/15/15 417/457/417 419/459/419
f 420/460/420 421/461/421 419/459/419 418/458/418
f 422/462/422 12/12/12 419/459/419 421/461/421
f 13/13/13 12/12/12 422/462/422 423/463/423
f 424/464/424 425/465/425 422/462/422 421/461/421
f 426/466/426 423/463/423 422/462/422 425/465/425
f 427/467/427 423/463/423 426/466/426 428/468/428
f 429/469/429 430/470/430 426/466/426 425/465/425
f 97/471/97 428/468/428 426/466/426 430/470/430
f 431/472/431 432/473/432 430/470/430 429/469/429
f 98/474/98 97/471/97 430/470/430 432/473/432
f 433/475/433 434/476/434 432/473/432 431/472/431
f 105/477/105 98/474/98 432/473/432 434/476/434
f 435/478/435 436/479/436 434/476/434 433/475/433
f 437/480/437 105/477/105 434/476/434 436/479/436
f 106/112/106 105/111/105 437/481/437 293/318/293
f 438/482/438 439/483/439 437/480/437 436/479/436
f 290/315/290 293/318/293 437/481/437 439/484/439
f 440/485/440 441/486/441 439/484/439 438/487/438
f 442/488/442 290/315/290 439/484/439 441/486/441
f 291/316/291 290/315/290 442/488/442 443/489/443
f 444/490/444 445/491/445 442/488/442 441/486/441
f 446/492/446 443/489/443 442/488/442 445/491/445
f 139/150/139 447/493/447 446/492/446 445/491/445
f 448/494/448 449/495/449 446/492/446 447/493/447
f 297/322/297 443/489/443 446/492/446 449/495/449
f 450/496/450 451/497/451 449/495/449 448/494/448
f 298/323/298 297/322/297 449/495/449 451/497/451
f 452/498/452 453/499/453 451/497/451 450/496/450
f 299/324/299 298/323/298 451/497/451 453/499/453
f 454/500/454 455/501/455 453/499/453 452/498/452
f 301/326/301 299/324/299 453/499/453 455/501/455
f 456/502/456 457/503/457 455/501/455 454/500/454
f 458/504/458 301/326/301 455/501/455 457/503/457
f 302/327/302 301/326/301 458/504/458 305/330/305
f 459/505/459 460/506/460 458/504/458 457/503/457
f 461/507/461 305/330/305 458/504/458 460/506/460
f 306/331/306 305/330/305 461/507/461 310/335/310
f 462/508/462 157/173/157 461/507/461 460/506/460
f 156/172/156 310/335/310 461/507/461 157/173/157
f 459/505/459 463/509/463 462/508/462 460/506/460
f 171/187/171 170/186/170 462/508/462 463/509/463
f 158/174/158 157/173/157 462/508/462 170/186/170
f 217/236/217 220/239/220 463/509/463 459/505/459
f 221/240/221 171/187/171 463/509/463 220/239/220
f 456/502/456 217/236/217 459/505/459 457/503/457
f 285/307/285 286/308/286 456/502/456 454/500/454
f 218/237/218 217/236/217 456/502/456 286/308/286
f 284/306/284 285/307/285 454/500/454 452/498/452
f 464/510/464 284/306/284 452/498/452 450/496/450
f 448/494/448 465/511/465 464/510/464 450/496/450
f 466/512/466 467/513/467 464/510/464 465/511/465
f 281/303/281 284/306/284 464/510/464 467/513/467
f 468/514/468 469/515/469 467/513/467 466/512/466
f 278/300/278 281/303/281 467/513/467 469/515/469
f 177/193/177 180/196/180 469/515/469 468/514/468
f 185/201/185 278/300/278 469/515/469 180/196/180
f 470/516/470 471/517/471 468/514/468 466/512/466
f 472/518/472 177/193/177 468/514/468 471/517/471
f 473/519/473 474/520/474 472/518/472 471/517/471
f 475/521/475 476/522/476 472/518/472 474/520/474
f 178/194/178 177/193/177 472/518/472 476/522/476
f 477/523/477 478/524/478 476/522/476 475/521/475
f 184/200/184 178/194/178 476/522/476 478/524/478
f 479/525/479 480/526/480 478/524/478 477/523/477
f 481/527/481 184/200/184 478/524/478 480/526/480
f 482/528/482 483/529/483 481/527/481 480/526/480
f 243/265/243 484/530/484 481/527/481 483/529/483
f 183/199/183 184/200/184 481/527/481 484/530/484
f 241/263/241 485/531/485 484/530/484 243/265/243
f 181/197/181 183/199/183 484/530/484 485/531/485
f 236/258/236 486/532/486 485/531/485 241/263/241
f 487/533/487 181/197/181 485/531/485 486/532/486
f 235/256/235 488/534/488 486/532/486 236/258/236
f 489/535/489 487/533/487 486/532/486 488/534/488
f 490/536/490 487/533/487 489/535/489 491/537/491
f 492/538/492 493/539/493 489/535/489 488/534/488
f 494/540/494 491/537/491 489/535/489 493/539/493
f 495/541/495 491/537/491 494/540/494 496/542/496
f 497/543/497 498/544/498 494/540/494 493/539/493
f 276/298/276 496/542/496 494/540/494 498/544/498
f 499/545/499 271/293/271 498/544/498 497/543/497
f 272/294/272 276/298/276 498/544/498 271/293/271
f 500/546/500 501/547/501 499/545/499 497/543/497
f 502/548/502 503/549/503 499/545/499 501/547/501
f 270/292/270 271/293/271 499/545/499 503/549/503
f 504/550/504 505/551/505 503/549/503 502/548/502
f 216/235/216 270/292/270 503/549/503 505/551/505
f 249/271/249 250/272/250 505/551/505 504/550/504
f 215/234/215 216/235/216 505/551/505 250/272/250
f 506/552/506 507/553/507 504/550/504 502/548/502
f 508/554/508 249/271/249 504/550/504 507/553/507
f 509/555/509 510/556/510 508/554/508 507/553/507
f 201/220/201 511/557/511 508/554/508 510/556/510
f 248/270/248 249/271/249 508/554/508 511/557/511
f 200/219/200 512/558/512 511/557/511 201/220/201
f 245/267/245 248/270/248 511/557/511 512/558/512
f 199/218/199 203/222/203 512/558/512 200/219/200
f 202/221/202 245/267/245 512/558/512 203/222/203
f 513/559/513 198/560/198 510/556/510 509/555/509
f 193/209/193 201/220/201 510/556/510 198/560/198
f 514/561/514 515/562/515 513/563/513 509/564/509
f 252/274/252 516/565/516 513/563/513 515/562/515
f 197/215/197 198/216/198 513/563/513 516/565/516
f 255/277/255 517/566/517 516/565/516 252/274/252
f 196/214/196 197/215/197 516/565/516 517/566/517
f 256/278/256 518/567/518 517/566/517 255/277/255
f 150/165/150 196/214/196 517/566/517 518/567/518
f 519/568/519 520/569/520 518/570/518 256/571/256
f 149/166/149 150/165/150 518/567/518 520/572/520
f 521/573/521 522/574/522 520/569/520 519/568/519
f 113/121/113 149/164/149 520/569/520 522/574/522
f 117/126/117 79/82/79 522/574/522 521/573/521
f 80/83/80 113/121/113 522/574/522 79/82/79
f 523/575/523 117/126/117 521/573/521 524/576/524
f 525/577/525 524/576/524 521/573/521 519/568/519
f 526/578/526 524/576/524 525/577/525 527/579/527
f 256/571/256 257/580/257 525/577/525 519/568/519
f 258/581/258 527/579/527 525/577/525 257/580/257
f 226/245/226 528/582/528 526/578/526 227/246/227
f 523/575/523 524/576/524 526/578/526 528/582/528
f 232/253/232 227/246/227 526/578/526 527/579/527
f 529/583/529 530/584/530 528/582/528 226/245/226
f 531/585/531 523/575/523 528/582/528 530/584/530
f 532/586/532 533/587/533 531/585/531 530/584/530
f 534/588/534 116/125/116 531/585/531 533/587/533
f 117/126/117 523/575/523 531/585/531 116/125/116
f 535/589/535 536/590/536 534/588/534 533/587/533
f 537/591/537 538/592/538 534/588/534 536/590/536
f 115/124/115 116/125/116 534/588/534 538/592/538
f 539/593/539 540/594/540 538/592/538 537/591/537
f 114/123/114 115/124/115 538/592/538 540/594/540
f 541/595/541 114/123/114 540/594/540 542/596/542
f 543/597/543 542/596/542 540/594/540 539/593/539
f 544/598/544 542/596/542 543/597/543 545/599/545
f 546/600/546 547/601/547 543/602/543 539/603/539
f 548/604/548 545/605/545 543/602/543 547/601/547
f 549/606/549 545/605/545 548/604/548 550/607/550
f 551/608/551 552/609/552 548/604/548 547/601/547
f 553/610/553 550/607/550 548/604/548 552/609/552
f 554/611/554 550/607/550 553/610/553 555/612/555
f 556/613/556 557/614/557 553/610/553 552/609/552
f 558/615/558 555/612/555 553/610/553 557/614/557
f 559/616/559 555/612/555 558/615/558 560/617/560
f 561/618/561 562/619/562 558/615/558 557/614/557
f 563/620/563 560/617/560 558/615/558 562/619/562
f 137/148/137 560/617/560 563/620/563 136/147/136
f 474/520/474 473/519/473 563/620/563 562/619/562
f 133/144/133 136/147/136 563/620/563 473/519/473
f 475/521/475 474/520/474 562/619/562 561/618/561
f 556/613/556 564/621/564 561/618/561 557/614/557
f 477/523/477 475/521/475 561/618/561 564/621/564
f 565/622/565 566/623/566 564/621/564 556/613/556
f 479/525/479 477/523/477 564/621/564 566/623/566
f 567/624/567 568/625/568 566/623/566 565/622/565
f 569/626/569 479/525/479 566/623/566 568/625/568
f 570/627/570 571/628/571 569/626/569 568/625/568
f 572/629/572 482/528/482 569/626/569 571/628/571
f 480/526/480 479/525/479 569/626/569 482/528/482
f 483/529/483 482/528/482 572/629/572 573/630/573
f 483/529/483 573/630/573 244/266/244 243/265/243
f 572/629/572 574/631/574 575/632/575 573/630/573
f 576/633/576 577/634/577 575/635/575 574/636/574
f 229/250/229 230/249/230 575/632/575 577/637/577
f 578/638/578 529/583/529 577/634/577 576/633/576
f 226/245/226 229/248/229 577/634/577 529/583/529
f 579/639/579 580/640/580 578/638/578 576/633/576
f 581/641/581 532/586/532 578/638/578 580/640/580
f 530/584/530 529/583/529 578/638/578 532/586/532
f 582/642/582 583/643/583 581/641/581 580/640/580
f 584/644/584 535/589/535 581/641/581 583/643/583
f 533/587/533 532/586/532 581/641/581 535/589/535
f 539/593/539 537/591/537 584/644/584 546/645/546
f 585/646/585 546/600/546 584/647/584 583/648/583
f 547/601/547 546/600/546 585/646/585 551/608/551
f 582/649/582 567/624/567 585/646/585 583/648/583
f 565/622/565 551/608/551 585/646/585 567/624/567
f 579/650/579 570/627/570 582/649/582 580/651/580
f 568/625/568 567/624/567 582/649/582 570/627/570
f 552/609/552 551/608/551 565/622/565 556/613/556
f 440/485/440 586/652/586 559/616/559 587/653/587
f 554/611/554 555/612/555 559/616/559 586/652/586
f 137/148/137 587/653/587 559/616/559 560/617/560
f 438/487/438 588/654/588 586/652/586 440/485/440
f 589/655/589 554/611/554 586/652/586 588/654/588
f 435/478/435 590/656/590 589/657/589 588/658/588
f 591/659/591 549/660/549 589/661/589 590/662/590
f 550/607/550 554/611/554 589/655/589 549/606/549
f 592/663/592 593/664/593 591/665/591 590/656/590
f 594/666/594 544/598/544 591/659/591 593/667/593
f 545/599/545 549/660/549 591/659/591 544/598/544
f 595/668/595 596/669/596 594/670/594 593/664/593
f 77/80/77 541/595/541 594/666/594 596/671/596
f 542/596/542 544/598/544 594/666/594 541/595/541
f 597/672/597 598/673/598 596/669/596 595/668/595
f 76/79/76 77/80/77 596/671/596 598/674/598
f 599/675/599 600/676/600 598/673/598 597/672/597
f 75/677/75 76/678/76 598/673/598 600/676/600
f 420/460/420 25/25/25 600/676/600 599/675/599
f 24/24/24 75/677/75 600/676/600 25/25/25
f 421/461/421 420/460/420 599/675/599 424/464/424
f 601/679/601 424/464/424 599/675/599 597/672/597
f 425/465/425 424/464/424 601/679/601 429/469/429
f 595/668/595 602/680/602 601/679/601 597/672/597
f 431/472/431 429/469/429 601/679/601 602/680/602
f 593/664/593 592/663/592 602/680/602 595/668/595
f 433/475/433 431/472/431 602/680/602 592/663/592
f 435/478/435 433/475/433 592/663/592 590/656/590
f 436/479/436 435/478/435 588/658/588 438/482/438
f 441/486/441 440/485/440 587/653/587 444/490/444
f 138/149/138 444/490/444 587/653/587 137/148/137
f 78/81/78 114/123/114 541/595/541 77/80/77
f 584/644/584 537/591/537 536/590/536 535/589/535
f 603/681/603 232/253/232 527/579/527 258/581/258
f 233/254/233 232/253/232 603/681/603 604/682/604
f 253/275/253 605/683/605 603/684/603 258/280/258
f 606/685/606 604/686/604 603/684/603 605/683/605
f 607/687/607 604/688/604 606/689/606 608/690/608
f 515/562/515 514/561/514 606/685/606 605/683/605
f 506/552/506 608/690/608 606/689/606 514/691/514
f 492/538/492 234/255/234 607/687/607 500/546/500
f 233/257/233 604/688/604 607/687/607 234/255/234
f 501/547/501 500/546/500 607/687/607 608/690/608
f 502/548/502 501/547/501 608/690/608 506/552/506
f 252/274/252 515/562/515 605/683/605 253/275/253
f 507/553/507 506/552/506 514/691/514 509/555/509
f 493/539/493 492/538/492 500/546/500 497/543/497
f 609/692/609 269/291/269 495/541/495 496/542/496
f 266/288/266 269/291/269 609/692/609 610/693/610
f 276/298/276 275/297/275 609/692/609 496/542/496
f 274/296/274 610/693/610 609/692/609 275/297/275
f 611/694/611 266/288/266 610/693/610 612/695/612
f 613/696/613 612/695/612 610/693/610 274/296/274
f 614/697/614 612/695/612 613/696/613 615/698/615
f 265/287/265 264/286/264 613/696/613 274/296/274
f 263/285/263 615/698/615 613/696/613 264/286/264
f 616/699/616 617/700/617 614/697/614 618/701/618
f 611/694/611 612/695/612 614/697/614 617/700/617
f 619/702/619 618/701/618 614/697/614 615/698/615
f 282/304/282 618/701/618 619/702/619 620/703/620
f 263/285/263 277/299/277 619/702/619 615/698/615
f 237/259/237 620/703/620 619/702/619 277/299/277
f 283/305/283 282/304/282 620/703/620 621/704/621
f 222/241/222 621/704/621 620/703/620 237/259/237
f 286/308/286 283/305/283 621/704/621 218/237/218
f 219/238/219 218/237/218 621/704/621 222/241/222
f 185/201/185 186/202/186 617/700/617 616/699/616
f 187/203/187 611/694/611 617/700/617 186/202/186
f 278/300/278 185/201/185 616/699/616 279/301/279
f 282/304/282 279/301/279 616/699/616 618/701/618
f 267/289/267 266/288/266 611/694/611 187/203/187
f 235/256/235 234/255/234 492/538/492 488/534/488
f 470/516/470 133/144/133 473/519/473 471/517/471
f 134/145/134 133/144/133 470/516/470 622/705/622
f 465/511/465 622/705/622 470/516/470 466/512/466
f 139/150/139 134/145/134 622/705/622 447/493/447
f 448/494/448 447/493/447 622/705/622 465/511/465
f 138/149/138 139/150/139 445/491/445 444/490/444
f 294/319/294 291/316/291 443/489/443 297/322/297
f 13/13/13 423/463/423 427/467/427 18/18/18
f 63/66/63 60/63/60 427/706/427 428/707/428
f 59/62/59 18/708/18 427/706/427 60/63/60
f 100/106/100 63/66/63 428/707/428 97/103/97
f 22/22/22 25/25/25 420/460/420 418/458/418
f 19/19/19 22/22/22 418/458/418 416/456/416
f 623/709/623 19/19/19 416/456/416 415/455/415
f 10/10/10 11/11/11 623/709/623 415/455/415
f 624/710/624 625/711/625 623/709/623 11/11/11
f 20/20/20 19/19/19 623/709/623 625/711/625
f 626/712/626 627/713/627 625/711/625 624/710/624
f 23/23/23 20/20/20 625/711/625 627/713/627
f 110/116/110 71/714/71 627/713/627 626/712/626
f 74/77/74 23/715/23 627/716/627 71/74/71
f 628/717/628 629/718/629 626/712/626 624/710/624
f 107/113/107 110/116/110 626/712/626 629/718/629
f 630/719/630 631/720/631 629/718/629 628/717/628
f 632/721/632 107/113/107 629/718/629 631/720/631
f 633/722/633 49/49/49 632/721/632 631/720/631
f 46/46/46 634/723/634 632/721/632 49/49/49
f 108/114/108 107/113/107 632/721/632 634/723/634
f 45/45/45 635/724/635 634/723/634 46/46/46
f 111/119/111 108/114/108 634/723/634 635/724/635
f 636/725/636 125/136/125 635/726/635 45/727/45
f 120/129/120 111/158/111 635/726/635 125/136/125
f 48/728/48 637/729/637 636/725/636 45/727/45
f 638/730/638 639/731/639 636/725/636 637/729/637
f 124/135/124 125/136/125 636/725/636 639/731/639
f 83/86/83 84/87/84 639/731/639 638/730/638
f 85/88/85 124/135/124 639/731/639 84/87/84
f 640/732/640 641/733/641 638/730/638 637/729/637
f 642/734/642 83/86/83 638/730/638 641/733/641
f 643/735/643 44/44/44 642/734/642 641/733/641
f 39/39/39 644/736/644 642/734/642 44/44/44
f 82/85/82 83/86/83 642/734/642 644/736/644
f 38/38/38 68/71/68 644/736/644 39/39/39
f 69/72/69 82/85/82 644/736/644 68/71/68
f 640/732/640 645/737/645 643/735/643 641/733/641
f 33/738/33 646/739/646 643/735/643 645/737/645
f 43/43/43 44/44/44 643/735/643 646/739/646
f 34/310/34 287/309/287 646/739/646 33/738/33
f 42/42/42 43/43/43 646/739/646 287/309/287
f 51/51/51 647/740/647 645/741/645 640/742/640
f 32/32/32 33/33/33 645/741/645 647/740/647
f 50/50/50 648/743/648 647/740/647 51/51/51
f 29/29/29 32/32/32 647/740/647 648/743/648
f 49/49/49 633/722/633 648/743/648 50/50/50
f 26/26/26 29/29/29 648/743/648 633/722/633
f 48/728/48 51/744/51 640/732/640 637/729/637
f 630/719/630 26/26/26 633/722/633 631/720/631
f 27/27/27 26/26/26 630/719/630 7/7/7
f 8/8/8 7/7/7 630/719/630 628/717/628
f 11/11/11 8/8/8 628/717/628 624/710/624
f 1/1/1 4/4/4 410/448/410 390/424/390
f 376/401/376 96/102/96 379/407/379 377/402/377
f 95/101/95 96/102/96 376/401/376 649/745/649
f 373/746/373 649/745/649 376/401/376 374/404/374
f 94/99/94 95/101/95 649/745/649 650/747/650
f 651/748/651 650/747/650 649/745/649 373/746/373
f 147/161/147 650/747/650 651/748/651 194/210/194
f 371/396/371 370/395/370 651/749/651 373/398/373
f 191/211/191 194/210/194 651/748/651 370/750/370
f 122/131/122 94/99/94 650/747/650 147/161/147
f 188/204/188 191/207/191 370/395/370 368/393/368
f 207/226/207 188/204/188 368/393/368 206/225/206
f 132/143/132 131/142/131 338/363/338 334/359/334
f 129/140/129 132/143/132 330/355/330 329/354/329
f 155/171/155 152/168/152 319/344/319 315/340/315
f 308/333/308 309/334/309 313/338/313 61/64/61
f 156/172/156 155/171/155 311/336/311 310/335/310
f 62/65/62 101/107/101 308/333/308 61/64/61
f 102/108/102 304/329/304 308/333/308 101/107/101
f 238/260/238 237/259/237 277/299/277 259/281/259
f 490/536/490 491/537/491 652/751/652 653/752/653
f 240/262/240 238/260/238 259/281/259 262/284/262
f 173/189/173 172/188/172 239/261/239 225/244/225
f 168/184/168 167/183/167 212/231/212 176/192/176
f 189/205/189 188/204/188 207/226/207 199/218/199
f 148/162/148 195/213/195 196/214/196 150/165/150
f 148/162/148 147/161/147 194/210/194 195/213/195
f 574/636/574 654/753/654 579/639/579 576/633/576
f 571/628/571 570/627/570 579/650/579 654/754/654
f 92/100/92 94/99/94 122/131/122 119/134/119
f 90/93/90 92/96/92 119/128/119 118/127/118
f 63/66/63 100/106/100 101/107/101 62/65/62
f 23/715/23 74/77/74 75/78/75 24/755/24
f 80/83/80 73/76/73 72/75/72 109/118/109
f 6/6/6 5/5/5 35/35/35 30/30/30
f 7/7/7 6/6/6 30/30/30 27/27/27
f 163/179/163 164/180/164 169/185/169 162/178/162
f 654/754/654 574/631/574 572/629/572 571/628/571
f 230/249/230 231/252/231 242/264/242 244/266/244
f 575/632/575 230/249/230 244/266/244 573/630/573
f 182/198/182 181/197/181 487/533/487 490/536/490
f 187/203/187 182/198/182 653/752/653 267/289/267
f 268/290/268 267/289/267 653/752/653 652/751/652
f 491/537/491 495/541/495 269/291/269 652/751/652
f 490/536/490 653/752/653 182/198/182
f 652/751/652 269/291/269 268/290/268
