# split from a merged terrain OBJ by scripts/split-terrain-obj-parts.py
o part-049
v 0.457966 0.953688 0.141865
v 0.452236 0.951597 0.147438
v 0.460786 0.951197 0.156788
v 0.465509 0.950468 0.148147
v 0.451957 0.943023 0.147595
v 0.459307 0.943086 0.155552
v 0.466697 0.943018 0.149448
v 0.480988 0.935102 0.113074
v 0.482582 0.937299 0.122418
v 0.480313 0.933284 0.122680
v 0.476987 0.933036 0.116463
v 0.477801 0.940834 0.132686
v 0.475829 0.934790 0.130920
v 0.470833 0.933425 0.125067
v 0.480290 0.942681 0.122293
v 0.479449 0.939201 0.114813
v 0.476461 0.942924 0.115427
v 0.475111 0.945845 0.119985
v 0.467707 0.946903 0.113847
v 0.472219 0.943197 0.110489
v 0.474784 0.938329 0.108186
v 0.453188 0.934705 0.146535
v 0.460264 0.934492 0.154441
v 0.458978 0.933967 0.141073
v 0.465286 0.935575 0.147306
v 0.468819 0.938985 0.087325
v 0.469889 0.946119 0.086232
v 0.465085 0.943136 0.098900
v 0.469438 0.938351 0.098829
v 0.459885 0.946490 0.105173
v 0.463126 0.949288 0.081638
v 0.457532 0.946239 0.092076
v 0.452878 0.946233 0.097775
v 0.467706 0.937072 0.077353
v 0.464994 0.939926 0.068751
v 0.472822 0.941615 0.066654
v 0.474557 0.938728 0.076085
v 0.473811 0.946987 0.077445
v 0.469934 0.949424 0.070616
v 0.464052 0.948177 0.067069
v 0.456432 0.948597 0.077587
v 0.456166 0.939741 0.077989
v 0.463370 0.937461 0.087996
v 0.469255 0.934922 0.099550
v 0.466244 0.933287 0.103381
v 0.459835 0.933452 0.094135
v 0.452563 0.936920 0.084434
v 0.452188 0.945235 0.086235
v 0.455644 0.933804 0.102072
v 0.450874 0.934050 0.094680
v 0.444631 0.934460 0.088995
v 0.444122 0.942659 0.086659
v 0.447425 0.945294 0.090771
v 0.443480 0.947036 0.095871
v 0.447106 0.948349 0.102287
v 0.438288 0.947642 0.095548
v 0.439600 0.950542 0.106167
v 0.439079 0.934830 0.083552
v 0.435620 0.942863 0.083879
v 0.431082 0.948204 0.095234
v 0.424395 0.936467 0.088066
v 0.428695 0.940612 0.084407
v 0.435083 0.935136 0.076240
v 0.430481 0.935335 0.089667
v 0.436739 0.934931 0.093320
v 0.428433 0.935394 0.102268
v 0.424925 0.940160 0.099985
v 0.424348 0.947531 0.096610
v 0.446024 0.934377 0.103393
v 0.443075 0.934544 0.096547
v 0.436952 0.934915 0.104841
v 0.448773 0.934238 0.109182
v 0.439739 0.934772 0.113529
v 0.430633 0.935332 0.115146
v 0.444597 0.934562 0.123068
v 0.437044 0.936113 0.127354
v 0.435674 0.943831 0.127332
v 0.426989 0.942140 0.114344
v 0.435006 0.951996 0.126502
v 0.426130 0.949713 0.112162
v 0.439318 0.954308 0.122317
v 0.431725 0.951461 0.109195
v 0.446434 0.952018 0.116246
v 0.448821 0.954127 0.132579
v 0.455048 0.952527 0.125910
v 0.461535 0.950086 0.119333
v 0.453537 0.949369 0.110702
v 0.463940 0.951999 0.134125
v 0.469948 0.949363 0.126674
v 0.470941 0.949338 0.139332
v 0.475836 0.946498 0.131026
v 0.472890 0.942365 0.141360
v 0.470400 0.935729 0.139124
v 0.465107 0.933701 0.133516
v 0.451835 0.934159 0.132408
v 0.458925 0.933793 0.125863
v 0.465447 0.933482 0.118353
v 0.471829 0.933153 0.111136
v 0.453208 0.934051 0.116979
v 0.460310 0.933639 0.110313
v 0.475890 0.934764 0.106988
v 0.445680 0.934703 0.137005
v 0.444139 0.943220 0.137861
v 0.444223 0.952014 0.137444
vt 0.977795 0.500184
vt 0.982200 0.502263
vt 0.978801 0.507370
vt 0.974477 0.504801
vt 0.986306 0.505117
vt 0.980604 0.510818
vt 0.972038 0.508354
vt 0.984476 0.796531
vt 0.987965 0.800725
vt 0.985307 0.801248
vt 0.982644 0.798423
vt 0.987361 0.807666
vt 0.984033 0.806222
vt 0.980411 0.803444
vt 0.962215 0.493448
vt 0.960752 0.489487
vt 0.963201 0.489255
vt 0.965049 0.491407
vt 0.967567 0.486651
vt 0.964595 0.485661
vt 0.961964 0.484817
vt 0.971400 0.821113
vt 0.973787 0.816900
vt 0.978291 0.819641
vt 0.978182 0.824486
vt 0.976420 0.813337
vt 0.980602 0.816140
vt 0.984083 0.818905
vt 0.961139 0.473903
vt 0.962798 0.471282
vt 0.967015 0.477692
vt 0.963780 0.478663
vt 0.970520 0.480655
vt 0.965677 0.468267
vt 0.969962 0.473080
vt 0.973142 0.475599
vt 0.974070 0.777260
vt 0.971117 0.773020
vt 0.974558 0.770776
vt 0.976437 0.775481
vt 0.977997 0.771209
vt 0.977329 0.767377
vt 0.962853 0.461387
vt 0.960988 0.463175
vt 0.958434 0.459000
vt 0.960518 0.457634
vt 0.957021 0.468638
vt 0.960022 0.467182
vt 0.968139 0.465071
vt 0.970295 0.780003
vt 0.967187 0.774994
vt 0.968732 0.770060
vt 0.975237 0.782276
vt 0.972894 0.784008
vt 0.977025 0.789581
vt 0.978244 0.788047
vt 0.975549 0.792036
vt 0.971025 0.787973
vt 0.965614 0.783365
vt 0.970453 0.463038
vt 0.973349 0.465998
vt 0.971550 0.469224
vt 0.968848 0.792512
vt 0.965109 0.789625
vt 0.961547 0.787095
vt 0.959605 0.783290
vt 0.974982 0.471339
vt 0.977143 0.469138
vt 0.978085 0.473787
vt 0.976836 0.477545
vt 0.981216 0.473204
vt 0.981541 0.478637
vt 0.956624 0.786306
vt 0.952424 0.781151
vt 0.985382 0.472219
vt 0.982038 0.466662
vt 0.949794 0.791774
vt 0.946831 0.786185
vt 0.952650 0.785902
vt 0.953210 0.791831
vt 0.957276 0.791657
vt 0.953988 0.798239
vt 0.950373 0.798691
vt 0.946388 0.796205
vt 0.963607 0.794723
vt 0.961134 0.791386
vt 0.959042 0.797159
vt 0.966170 0.797355
vt 0.962079 0.801221
vt 0.957645 0.803732
vt 0.966128 0.805599
vt 0.962721 0.809134
vt 0.959329 0.811941
vt 0.953408 0.805477
vt 0.987787 0.488936
vt 0.989973 0.480226
vt 0.994848 0.481710
vt 0.992093 0.490639
vt 0.989418 0.471929
vt 0.994158 0.473446
vt 0.984390 0.487363
vt 0.986251 0.479478
vt 0.979273 0.485024
vt 0.980903 0.493998
vt 0.976426 0.491466
vt 0.971783 0.488782
vt 0.974538 0.482793
vt 0.973248 0.497224
vt 0.968863 0.494349
vt 0.970340 0.501189
vt 0.966390 0.497704
vt 0.967497 0.504124
vt 0.963966 0.500196
vt 0.960339 0.495744
vt 0.982120 0.811173
vt 0.985753 0.813422
vt 0.978511 0.808595
vt 0.971397 0.809628
vt 0.974167 0.805128
vt 0.976560 0.800162
vt 0.979384 0.795795
vt 0.969774 0.801040
vt 0.972528 0.796352
vt 0.981323 0.793292
vt 0.986744 0.795688
vt 0.983046 0.792289
vt 0.968600 0.813181
vt 0.965296 0.816794
vt 0.984584 0.496108
vt 0.989270 0.498275
vt 0.986312 0.465780
vt 0.990226 0.798757
vn 0.0927 0.9919 0.0869
vn -0.5300 0.6515 0.5428
vn 0.0868 0.5227 0.8481
vn 0.5945 0.6866 0.4186
vn -0.7581 -0.0772 0.6476
vn -0.0611 -0.1080 0.9923
vn 0.7893 -0.0552 0.6115
vn 0.8475 -0.3067 -0.4332
vn 0.9874 -0.1100 0.1141
vn 0.5137 -0.8366 0.1905
vn 0.2572 -0.9648 -0.0554
vn 0.8899 -0.0000 0.4562
vn 0.4948 -0.7828 0.3772
vn 0.0171 -0.9969 0.0771
vn 0.7978 0.6002 -0.0570
vn 0.7521 0.5172 -0.4084
vn 0.5810 0.7060 -0.4049
vn 0.4840 0.8414 -0.2402
vn 0.3269 0.9018 -0.2826
vn 0.5351 0.7438 -0.4005
vn 0.7157 0.4591 -0.5263
vn -0.4874 -0.7544 0.4397
vn 0.0423 -0.6538 0.7555
vn 0.0382 -0.9976 0.0577
vn 0.5258 -0.7422 0.4155
vn 0.8386 -0.5179 0.1691
vn 0.6702 0.6430 0.3706
vn 0.5612 0.8261 -0.0509
vn 0.9384 0.0707 -0.3382
vn 0.2611 0.9400 -0.2197
vn 0.0112 0.9882 0.1525
vn 0.0297 0.9951 0.0938
vn 0.1359 0.9772 -0.1632
vn 0.0416 -0.9947 -0.0945
vn -0.2861 -0.5955 -0.7507
vn 0.5937 -0.2561 -0.7629
vn 0.8274 -0.5605 -0.0358
vn 0.8187 0.5500 0.1649
vn 0.4159 0.8049 -0.4233
vn -0.3612 0.5106 -0.7803
vn -0.6748 0.6588 -0.3326
vn -0.6403 -0.5679 -0.5171
vn 0.2453 -0.9407 -0.2341
vn 0.5671 -0.7149 -0.4090
vn 0.1070 -0.9875 -0.1153
vn 0.1008 -0.9699 -0.2218
vn -0.2889 -0.6654 -0.6883
vn -0.4713 0.7958 -0.3803
vn -0.0576 -0.9981 -0.0198
vn -0.0840 -0.9816 -0.1715
vn 0.0340 -0.8872 -0.4602
vn 0.1158 0.4482 -0.8864
vn -0.0432 0.9045 -0.4244
vn 0.0902 0.9425 -0.3219
vn 0.1556 0.9551 -0.2522
vn 0.0867 0.9379 -0.3359
vn 0.0979 0.9645 -0.2453
vn 0.3077 -0.6607 -0.6847
vn 0.1914 0.7113 -0.6764
vn -0.1040 0.9290 -0.3552
vn -0.8734 -0.4288 -0.2311
vn -0.6211 0.2728 -0.7347
vn -0.0073 -0.3354 -0.9421
vn -0.3538 -0.9294 -0.1055
vn -0.0604 -0.9982 -0.0029
vn -0.4728 -0.8772 0.0836
vn -0.9407 -0.3351 0.0523
vn -0.7572 0.6114 -0.2297
vn -0.0595 -0.9982 0.0025
vn -0.0615 -0.9981 -0.0004
vn -0.0590 -0.9983 0.0016
vn -0.0559 -0.9984 0.0057
vn -0.0697 -0.9972 0.0262
vn -0.5728 -0.7797 0.2528
vn -0.0887 -0.9957 0.0275
vn -0.5860 -0.6996 0.4088
vn -0.8057 -0.0911 0.5852
vn -0.9136 -0.1959 0.3564
vn -0.6740 0.5931 0.4403
vn -0.8129 0.5520 0.1856
vn -0.1135 0.9933 -0.0204
vn -0.1457 0.9791 -0.1417
vn 0.1339 0.9689 -0.2082
vn -0.0367 0.9981 0.0490
vn 0.1678 0.9736 -0.1547
vn 0.2236 0.9502 -0.2169
vn 0.1850 0.9527 -0.2411
vn 0.2753 0.9598 -0.0550
vn 0.3610 0.9240 -0.1259
vn 0.6545 0.7107 0.2580
vn 0.7141 0.6831 0.1529
vn 0.8486 -0.0229 0.5285
vn 0.5140 -0.7691 0.3797
vn 0.0634 -0.9945 0.0833
vn -0.0738 -0.9971 0.0203
vn -0.0415 -0.9991 0.0084
vn -0.0393 -0.9992 0.0116
vn 0.0917 -0.9918 -0.0889
vn -0.0521 -0.9986 0.0056
vn -0.0481 -0.9988 0.0093
vn 0.6920 -0.4747 -0.5439
vn -0.5305 -0.7500 0.3951
vn -0.7741 -0.0778 0.6283
vn -0.6020 0.6093 0.5160
f 1/1/1 2/2/2 3/3/3 4/4/4
f 5/5/5 6/6/6 3/3/3 2/2/2
f 7/7/7 4/4/4 3/3/3 6/6/6
f 8/8/8 9/9/9 10/10/10 11/11/11
f 12/12/12 13/13/13 10/10/10 9/9/9
f 14/14/14 11/11/11 10/10/10 13/13/13
f 15/15/15 16/16/16 17/17/17 18/18/18
f 19/19/19 18/18/18 17/17/17 20/20/20
f 21/21/21 20/20/20 17/17/17 16/16/16
f 5/22/5 22/23/22 23/24/23 6/25/6
f 24/26/24 25/27/25 23/24/23 22/23/22
f 7/28/7 6/25/6 23/24/23 25/27/25
f 26/29/26 27/30/27 28/31/28 29/32/29
f 21/21/21 29/32/29 28/31/28 20/20/20
f 19/19/19 20/20/20 28/31/28 30/33/30
f 31/34/31 32/35/32 28/31/28 27/30/27
f 33/36/33 30/33/30 28/31/28 32/35/32
f 34/37/34 35/38/35 36/39/36 37/40/37
f 38/41/38 37/40/37 36/39/36 39/42/39
f 40/43/40 39/44/39 36/45/36 35/46/35
f 26/29/26 37/47/37 38/48/38 27/30/27
f 31/34/31 27/30/27 38/48/38 39/44/39
f 31/34/31 39/44/39 40/43/40 41/49/41
f 42/50/42 41/51/41 40/52/40 35/38/35
f 34/37/34 37/40/37 26/53/26 43/54/43
f 44/55/44 43/54/43 26/53/26 29/56/29
f 42/50/42 35/38/35 34/37/34 43/54/43
f 45/57/45 46/58/46 43/54/43 44/55/44
f 47/59/47 42/50/42 43/54/43 46/58/46
f 41/49/41 42/60/42 47/61/47 48/62/48
f 49/63/49 50/64/50 47/59/47 46/58/46
f 51/65/51 52/66/52 47/59/47 50/64/50
f 53/67/53 48/62/48 47/61/47 52/68/52
f 33/36/33 53/67/53 54/69/54 55/70/55
f 52/68/52 56/71/56 54/69/54 53/67/53
f 57/72/57 55/70/55 54/69/54 56/71/56
f 58/73/58 59/74/59 52/66/52 51/65/51
f 60/75/60 56/71/56 52/68/52 59/76/59
f 61/77/61 62/78/62 63/79/63 64/80/64
f 65/81/65 64/80/64 63/79/63 58/73/58
f 59/74/59 58/73/58 63/79/63 62/78/62
f 66/82/66 67/83/67 61/77/61 64/80/64
f 68/84/68 62/78/62 61/77/61 67/83/67
f 50/64/50 69/85/69 70/86/70 51/65/51
f 58/73/58 51/65/51 70/86/70 65/81/65
f 71/87/71 65/81/65 70/86/70 69/85/69
f 72/88/72 73/89/73 71/87/71 69/85/69
f 74/90/74 66/82/66 71/87/71 73/89/73
f 64/80/64 65/81/65 71/87/71 66/82/66
f 75/91/75 76/92/76 74/90/74 73/89/73
f 77/93/77 78/94/78 74/90/74 76/92/76
f 67/83/67 66/82/66 74/90/74 78/94/78
f 79/95/79 80/96/80 78/97/78 77/98/77
f 68/99/68 67/100/67 78/97/78 80/96/80
f 81/101/81 82/102/82 80/96/80 79/95/79
f 60/75/60 68/99/68 80/96/80 82/102/82
f 83/103/83 57/72/57 82/102/82 81/101/81
f 56/71/56 60/75/60 82/102/82 57/72/57
f 84/104/84 85/105/85 83/103/83 81/101/81
f 86/106/86 87/107/87 83/103/83 85/105/85
f 55/70/55 57/72/57 83/103/83 87/107/87
f 19/19/19 30/33/30 87/107/87 86/106/86
f 33/36/33 55/70/55 87/107/87 30/33/30
f 88/108/88 89/109/89 86/106/86 85/105/85
f 18/18/18 19/19/19 86/106/86 89/109/89
f 90/110/90 91/111/91 89/109/89 88/108/88
f 15/15/15 18/18/18 89/109/89 91/111/91
f 92/112/92 12/113/12 91/111/91 90/110/90
f 9/114/9 15/15/15 91/111/91 12/113/12
f 25/27/25 93/115/93 92/116/92 7/28/7
f 13/13/13 12/12/12 92/116/92 93/115/93
f 4/4/4 7/7/7 92/112/92 90/110/90
f 24/26/24 94/117/94 93/115/93 25/27/25
f 14/14/14 13/13/13 93/115/93 94/117/94
f 95/118/95 96/119/96 94/117/94 24/26/24
f 97/120/97 14/14/14 94/117/94 96/119/96
f 11/11/11 14/14/14 97/120/97 98/121/98
f 99/122/99 100/123/100 97/120/97 96/119/96
f 45/57/45 98/121/98 97/120/97 100/123/100
f 72/88/72 49/63/49 100/123/100 99/122/99
f 46/58/46 45/57/45 100/123/100 49/63/49
f 95/118/95 75/91/75 99/122/99 96/119/96
f 73/89/73 72/88/72 99/122/99 75/91/75
f 8/8/8 11/11/11 98/121/98 101/124/101
f 44/55/44 101/124/101 98/121/98 45/57/45
f 16/125/16 8/8/8 101/124/101 21/126/21
f 29/56/29 21/126/21 101/124/101 44/55/44
f 22/23/22 102/127/102 95/118/95 24/26/24
f 76/92/76 75/91/75 95/118/95 102/127/102
f 5/22/5 103/128/103 102/127/102 22/23/22
f 77/93/77 76/92/76 102/127/102 103/128/103
f 2/2/2 104/129/104 103/130/103 5/5/5
f 79/95/79 77/98/77 103/130/103 104/129/104
f 1/1/1 84/104/84 104/129/104 2/2/2
f 81/101/81 79/95/79 104/129/104 84/104/84
f 1/1/1 4/4/4 90/110/90 88/108/88
f 84/104/84 1/1/1 88/108/88 85/105/85
f 50/64/50 49/63/49 72/88/72 69/85/69
f 59/76/59 62/131/62 68/99/68 60/75/60
f 32/35/32 48/62/48 53/67/53 33/36/33
f 31/34/31 41/49/41 48/62/48 32/35/32
f 9/9/9 8/8/8 16/125/16 15/132/15
