# split from a merged terrain OBJ by scripts/split-terrain-obj-parts.py
o part-066
v -0.473678 1.161290 0.053426
v -0.474050 1.161416 0.053728
v -0.474136 1.160788 0.053800
v -0.474077 1.160905 0.053283
v -0.474635 1.161564 0.054014
v -0.474762 1.160793 0.053892
v -0.474667 1.160765 0.053243
v -0.474032 1.161205 0.052737
v -0.473689 1.161516 0.052940
v -0.473947 1.161879 0.053327
v -0.474358 1.162280 0.052955
v -0.474309 1.162552 0.052355
v -0.474745 1.162546 0.052509
v -0.474922 1.162361 0.052965
v -0.474468 1.162511 0.051796
v -0.474938 1.162405 0.052115
v -0.475360 1.162270 0.052590
v -0.473906 1.162000 0.051871
v -0.474090 1.162216 0.051355
v -0.473995 1.162592 0.051609
v -0.473815 1.162422 0.052129
v -0.474529 1.162202 0.051477
v -0.474530 1.161133 0.052697
v -0.475107 1.161141 0.052623
v -0.474935 1.161416 0.052225
v -0.474512 1.161536 0.052234
v -0.475647 1.161462 0.052630
v -0.475188 1.161768 0.052195
v -0.474739 1.161846 0.051827
v -0.474276 1.161887 0.051785
v -0.475907 1.161862 0.052757
v -0.475954 1.161114 0.053161
v -0.476123 1.161678 0.053163
v -0.475352 1.160815 0.053220
v -0.475447 1.160956 0.053981
v -0.475904 1.161141 0.053862
v -0.475838 1.161803 0.053702
v -0.475262 1.161707 0.053977
v -0.475645 1.162152 0.053180
v -0.475097 1.162146 0.053475
v -0.474489 1.162049 0.053502
v -0.473880 1.162168 0.052778
v -0.473703 1.161763 0.052438
v -0.474096 1.161631 0.052322
v -0.475470 1.162043 0.052230
v -0.474992 1.162186 0.051782
vt 0.973313 0.586459
vt 0.973499 0.586644
vt 0.973244 0.586822
vt 0.973081 0.586587
vt 0.973729 0.586916
vt 0.973303 0.587160
vt 0.972838 0.586800
vt 0.973031 0.586246
vt 0.973302 0.586167
vt 0.973601 0.586355
vt 0.973923 0.586218
vt 0.974019 0.585892
vt 0.974214 0.586021
vt 0.974234 0.586319
vt 0.974148 0.585578
vt 0.974398 0.585820
vt 0.974497 0.586147
vt 0.973465 0.585485
vt 0.973805 0.585387
vt 0.973900 0.585542
vt 0.973740 0.585724
vt 0.974070 0.585230
vt 0.006215 0.023850
vt 0.006048 0.024103
vt 0.005809 0.023965
vt 0.005850 0.023754
vt 0.005821 0.024372
vt 0.005596 0.024123
vt 0.005501 0.023830
vt 0.973671 0.585198
vt 0.005693 0.024626
vt 0.006087 0.024568
vt 0.005865 0.024789
vt 0.006353 0.024400
vt 0.006504 0.024836
vt 0.006251 0.024824
vt 0.006050 0.025056
vt 0.006186 0.025285
vt 0.006638 0.024243
vt 0.006870 0.024726
vt 0.006628 0.025192
vt 0.005573 0.024986
vt 0.005565 0.025272
vt 0.973881 0.586530
vt 0.974193 0.586625
vt 0.974061 0.586991
vt 0.973672 0.586053
vt 0.973412 0.585883
vt 0.006240 0.023573
vt 0.005916 0.023545
vt 0.005953 0.023308
vt 0.006257 0.023305
vt 0.005514 0.023587
vt 0.005542 0.023389
vt 0.005451 0.024331
vt 0.005357 0.024620
vt 0.005125 0.024967
vt 0.005173 0.024205
vt 0.005292 0.023985
vt 0.974426 0.585470
vt 0.005238 0.023702
vt 0.972795 0.586378
vn 0.9562 -0.1728 0.2361
vn 0.6480 0.1525 0.7462
vn 0.4643 -0.6797 0.5679
vn 0.5258 -0.8411 -0.1268
vn 0.2181 0.2977 0.9294
vn 0.0694 -0.7449 0.6635
vn 0.0381 -0.9667 -0.2532
vn 0.4563 -0.7292 -0.5100
vn 0.9835 -0.1681 -0.0663
vn 0.6522 0.5854 0.4816
vn 0.2625 0.8657 0.4263
vn 0.1198 0.9722 0.2012
vn -0.1488 0.9776 0.1490
vn -0.0864 0.9540 0.2872
vn -0.2319 0.9088 -0.3468
vn -0.4251 0.8706 -0.2477
vn -0.4915 0.8669 -0.0831
vn 0.7662 -0.4567 -0.4521
vn 0.3382 -0.0944 -0.9363
vn 0.4615 0.7517 -0.4712
vn 0.7796 0.6261 0.0178
vn -0.3356 -0.0005 -0.9420
vn 0.1453 -0.8088 -0.5698
vn -0.1762 -0.7571 -0.6291
vn -0.1551 -0.6834 -0.7134
vn 0.1020 -0.7548 -0.6480
vn -0.5663 -0.4724 -0.6754
vn -0.4572 -0.4933 -0.7400
vn -0.2106 -0.6461 -0.7337
vn 0.1087 -0.7895 -0.6041
vn -0.8502 0.2890 -0.4400
vn -0.7733 -0.5920 -0.2269
vn -0.9765 0.1942 -0.0931
vn -0.2601 -0.9353 -0.2399
vn -0.2960 -0.5962 0.7463
vn -0.7071 -0.3714 0.6018
vn -0.6429 0.4924 0.5868
vn -0.1049 0.4341 0.8947
vn -0.4678 0.8641 0.1858
vn -0.0515 0.8678 0.4942
vn 0.2708 0.7618 0.5885
vn 0.7352 0.6111 0.2935
vn 0.9278 -0.2691 -0.2583
vn 0.3543 -0.7457 -0.5643
vn -0.7371 0.2398 -0.6318
vn -0.6044 0.1768 -0.7768
f 1/1/1 2/2/2 3/3/3 4/4/4
f 5/5/5 6/6/6 3/3/3 2/2/2
f 7/7/7 4/4/4 3/3/3 6/6/6
f 8/8/8 9/9/9 1/1/1 4/4/4
f 10/10/10 2/2/2 1/1/1 9/9/9
f 11/11/11 12/12/12 13/13/13 14/14/14
f 15/15/15 16/16/16 13/13/13 12/12/12
f 17/17/17 14/14/14 13/13/13 16/16/16
f 18/18/18 19/19/19 20/20/20 21/21/21
f 12/12/12 21/21/21 20/20/20 15/15/15
f 22/22/22 15/15/15 20/20/20 19/19/19
f 23/23/23 24/24/24 25/25/25 26/26/26
f 27/27/27 28/28/28 25/25/25 24/24/24
f 29/29/29 26/26/26 25/25/25 28/28/28
f 30/30/30 22/22/22 19/19/19 18/18/18
f 31/31/31 27/27/27 32/32/32 33/33/33
f 24/24/24 34/34/34 32/32/32 27/27/27
f 35/35/35 36/36/36 32/32/32 34/34/34
f 37/37/37 36/36/36 35/35/35 38/38/38
f 7/39/7 6/40/6 35/35/35 34/34/34
f 5/41/5 38/38/38 35/35/35 6/40/6
f 39/42/39 37/37/37 38/38/38 40/43/40
f 41/44/41 40/45/40 38/46/38 5/5/5
f 14/14/14 40/45/40 41/44/41 11/11/11
f 2/2/2 10/10/10 41/44/41 5/5/5
f 42/47/42 11/11/11 41/44/41 10/10/10
f 12/12/12 11/11/11 42/47/42 21/21/21
f 9/9/9 43/48/43 42/47/42 10/10/10
f 18/18/18 21/21/21 42/47/42 43/48/43
f 8/49/8 44/50/44 43/51/43 9/52/9
f 30/53/30 18/54/18 43/51/43 44/50/44
f 23/23/23 26/26/26 44/50/44 8/49/8
f 29/29/29 30/53/30 44/50/44 26/26/26
f 45/55/45 31/31/31 39/42/39 17/56/17
f 33/33/33 37/37/37 39/42/39 31/31/31
f 14/57/14 17/56/17 39/42/39 40/43/40
f 16/58/16 46/59/46 45/55/45 17/56/17
f 29/29/29 28/28/28 45/55/45 46/59/46
f 27/27/27 31/31/31 45/55/45 28/28/28
f 15/15/15 22/22/22 46/60/46 16/16/16
f 30/53/30 29/29/29 46/59/46 22/61/22
f 23/23/23 7/39/7 34/34/34 24/24/24
f 4/4/4 7/7/7 23/62/23 8/8/8
f 33/33/33 32/32/32 36/36/36 37/37/37
