# split from a merged terrain OBJ by scripts/split-terrain-obj-parts.py
o part-065
v 0.881730 0.020736 0.081661
v 0.876029 0.021138 0.075851
v 0.882893 0.025623 0.071687
v 0.888619 0.026452 0.075174
v 0.871458 0.024833 0.072737
v 0.881426 0.030450 0.070019
v 0.886478 0.034029 0.074631
v 0.871354 0.034963 0.083167
v 0.879844 0.036577 0.078892
v 0.879593 0.033936 0.071919
v 0.870924 0.031296 0.077024
v 0.877254 0.032858 0.104771
v 0.867753 0.031651 0.108717
v 0.869172 0.025247 0.110221
v 0.876567 0.024983 0.104978
v 0.858671 0.022651 0.105326
v 0.865069 0.019682 0.105453
v 0.861861 0.024679 0.110048
v 0.872448 0.019508 0.102031
v 0.880195 0.019906 0.094775
v 0.869321 0.017920 0.097236
v 0.874189 0.018405 0.089699
v 0.863590 0.018393 0.097191
v 0.867621 0.019116 0.085118
v 0.855393 0.028444 0.093958
v 0.862984 0.033016 0.094532
v 0.862937 0.035654 0.084786
v 0.862107 0.029944 0.082970
v 0.872191 0.034938 0.091935
v 0.880853 0.036135 0.086874
v 0.865301 0.032390 0.102394
v 0.874391 0.033933 0.099132
v 0.882784 0.035108 0.094094
v 0.888423 0.035690 0.081322
v 0.889729 0.035558 0.088801
v 0.885866 0.032408 0.100302
v 0.890584 0.031626 0.096093
v 0.883928 0.025547 0.098656
v 0.890132 0.026631 0.092458
v 0.887423 0.022167 0.087267
v 0.893437 0.029261 0.086494
v 0.892075 0.028492 0.080778
v 0.858096 0.028750 0.103917
v 0.862378 0.030792 0.108728
v 0.857219 0.020950 0.095117
v 0.862741 0.022434 0.082252
vt 0.010250 0.572672
vt 0.010909 0.564586
vt 0.014422 0.566091
vt 0.015524 0.569286
vt 0.014576 0.560228
vt 0.017153 0.564690
vt 0.019155 0.567231
vt 0.026697 0.562626
vt 0.023179 0.565694
vt 0.019457 0.563678
vt 0.020689 0.559257
vt 0.789748 0.975199
vt 0.787677 0.979557
vt 0.785572 0.975974
vt 0.786042 0.972019
vt 0.781575 0.979613
vt 0.781125 0.976081
vt 0.783926 0.979169
vt 0.781473 0.971686
vt 0.778170 0.967864
vt 0.776962 0.972880
vt 0.773091 0.969791
vt 0.776801 0.976096
vt 0.770130 0.975069
vt 0.777469 0.985496
vt 0.780732 0.988863
vt 0.773048 0.990927
vt 0.771065 0.985876
vt 0.765612 0.985522
vt 0.768597 0.989554
vt 0.030271 0.568345
vt 0.031136 0.561646
vt 0.034849 0.566344
vt 0.025727 0.569823
vt 0.786120 0.984524
vt 0.791092 0.980895
vt 0.788349 0.988104
vt 0.027098 0.574599
vt 0.031384 0.572463
vt 0.021361 0.569747
vt 0.022648 0.573290
vt 0.791185 0.969221
vt 0.792578 0.974440
vt 0.022925 0.576989
vt 0.024968 0.579088
vt 0.785009 0.967559
vt 0.019644 0.577602
vt 0.021470 0.582083
vt 0.014345 0.575830
vt 0.014095 0.580439
vt 0.018992 0.574255
vt 0.017714 0.571805
vt 0.007146 0.577116
vt 0.782226 0.982689
vt 0.785808 0.980959
vt 0.776076 0.980630
vt 0.769399 0.979678
vt 0.763423 0.973540
vt 0.762671 0.979461
vt 0.766534 0.968008
vn 0.3139 -0.9262 -0.2091
vn 0.0054 -0.8528 -0.5221
vn 0.3372 -0.5317 -0.7769
vn 0.7260 -0.3865 -0.5689
vn -0.4526 -0.2712 -0.8495
vn 0.0934 0.2141 -0.9723
vn 0.5392 0.6201 -0.5698
vn -0.2422 0.9409 -0.2367
vn -0.0870 0.9659 -0.2440
vn -0.2025 0.7334 -0.6490
vn -0.5198 0.5333 -0.6674
vn 0.3444 0.6304 0.6957
vn 0.0348 0.6923 0.7207
vn 0.2355 -0.2718 0.9331
vn 0.5140 -0.3870 0.7655
vn -0.7263 -0.4857 0.4864
vn -0.0672 -0.8735 0.4821
vn -0.4062 -0.2338 0.8834
vn 0.2870 -0.8659 0.4096
vn 0.4079 -0.8757 0.2583
vn 0.0460 -0.9958 0.0794
vn 0.1151 -0.9919 -0.0539
vn -0.2472 -0.9681 0.0420
vn -0.1932 -0.9456 -0.2618
vn -0.9477 0.3045 -0.0955
vn -0.3975 0.9138 0.0839
vn -0.4198 0.8751 -0.2408
vn -0.7422 0.3637 -0.5629
vn -0.0832 0.9881 0.1292
vn -0.0155 0.9987 0.0477
vn -0.2578 0.9557 0.1423
vn -0.0390 0.9816 0.1871
vn 0.1075 0.9699 0.2185
vn 0.5376 0.8166 -0.2100
vn 0.5970 0.7931 0.1208
vn 0.5499 0.4288 0.7168
vn 0.7775 0.2770 0.5646
vn 0.5909 -0.5160 0.6202
vn 0.8220 -0.4404 0.3610
vn 0.5700 -0.8208 0.0363
vn 0.9976 -0.0693 0.0089
vn 0.9414 -0.1611 -0.2965
vn -0.8243 0.4601 0.3299
vn -0.4440 0.6312 0.6360
vn -0.7987 -0.5957 -0.0850
vn -0.6689 -0.4851 -0.5632
f 1/1/1 2/2/2 3/3/3 4/4/4
f 5/5/5 6/6/6 3/3/3 2/2/2
f 7/7/7 4/4/4 3/3/3 6/6/6
f 8/8/8 9/9/9 10/10/10 11/11/11
f 5/5/5 11/11/11 10/10/10 6/6/6
f 7/7/7 6/6/6 10/10/10 9/9/9
f 12/12/12 13/13/13 14/14/14 15/15/15
f 16/16/16 17/17/17 14/14/14 18/18/18
f 19/19/19 15/15/15 14/14/14 17/17/17
f 20/20/20 19/19/19 21/21/21 22/22/22
f 17/17/17 23/23/23 21/21/21 19/19/19
f 24/24/24 22/22/22 21/21/21 23/23/23
f 25/25/25 26/26/26 27/27/27 28/28/28
f 11/29/11 28/28/28 27/27/27 8/30/8
f 29/31/29 8/8/8 27/32/27 26/33/26
f 9/9/9 8/8/8 29/31/29 30/34/30
f 31/35/31 32/36/32 29/37/29 26/26/26
f 33/38/33 30/34/30 29/31/29 32/39/32
f 34/40/34 30/34/30 33/38/33 35/41/35
f 12/12/12 36/42/36 33/43/33 32/36/32
f 37/44/37 35/41/35 33/38/33 36/45/36
f 15/15/15 38/46/38 36/42/36 12/12/12
f 39/47/39 37/44/37 36/45/36 38/48/38
f 19/19/19 20/20/20 38/46/38 15/15/15
f 40/49/40 39/47/39 38/48/38 20/50/20
f 41/51/41 39/47/39 40/49/40 42/52/42
f 22/53/22 1/1/1 40/49/40 20/50/20
f 4/4/4 42/52/42 40/49/40 1/1/1
f 35/41/35 41/51/41 42/52/42 34/40/34
f 7/7/7 34/40/34 42/52/42 4/4/4
f 9/9/9 30/34/30 34/40/34 7/7/7
f 13/13/13 12/12/12 32/36/32 31/35/31
f 25/25/25 43/54/43 31/35/31 26/26/26
f 44/55/44 13/13/13 31/35/31 43/54/43
f 45/56/45 16/16/16 43/54/43 25/25/25
f 18/18/18 44/55/44 43/54/43 16/16/16
f 28/28/28 46/57/46 45/56/45 25/25/25
f 24/24/24 23/23/23 45/56/45 46/57/46
f 17/17/17 16/16/16 45/56/45 23/23/23
f 2/58/2 24/24/24 46/57/46 5/59/5
f 11/29/11 5/59/5 46/57/46 28/28/28
f 1/60/1 22/22/22 24/24/24 2/58/2
f 37/44/37 39/47/39 41/51/41 35/41/35
f 44/55/44 18/18/18 14/14/14 13/13/13
