# split from a merged terrain OBJ by scripts/split-terrain-obj-parts.py
o part-036
v -0.038850 0.368602 0.002201
v -0.038624 0.363825 0.000863
v -0.032919 0.365745 -0.001392
v -0.032199 0.369984 0.001092
v -0.026113 0.371508 0.000441
v -0.025786 0.368718 -0.001540
v -0.026286 0.372267 -0.002723
v -0.033390 0.371263 -0.003563
v -0.003655 0.376874 -0.001465
v 0.001992 0.376639 -0.001776
v 0.002822 0.372731 -0.005139
v -0.003882 0.375353 -0.004853
v 0.006023 0.377602 -0.002659
v 0.007113 0.372962 -0.006728
v -0.003530 0.373328 -0.003047
v 0.002576 0.372228 -0.003449
v 0.003220 0.365166 -0.003994
v 0.004234 0.364995 -0.006759
v 0.007870 0.364881 -0.008500
v 0.005895 0.371735 -0.002459
v 0.006003 0.364642 -0.002222
v 0.001640 0.308951 -0.002058
v 0.000788 0.295236 -0.002407
v 0.004622 0.297206 -0.006564
v 0.007430 0.309143 -0.005208
v -0.016952 0.226929 0.002494
v -0.024001 0.216635 -0.001340
v -0.020691 0.213174 -0.001076
v -0.012733 0.227770 -0.001562
v -0.022391 0.224063 0.003114
v -0.025458 0.219574 -0.003793
v -0.020782 0.221150 -0.004799
v -0.012176 0.229577 -0.008935
v -0.008945 0.241803 -0.001544
v -0.004644 0.240568 -0.005093
v -0.032628 0.228226 -0.002890
v -0.037909 0.230098 -0.000448
v -0.033472 0.224482 -0.004682
v -0.031846 0.223929 -0.005279
v -0.029092 0.229002 -0.006379
v -0.034049 0.229700 -0.006884
v 0.000209 0.277891 -0.003347
v 0.002045 0.277627 -0.007974
v -0.002597 0.276576 -0.010960
v -0.000978 0.295099 -0.011197
v -0.000166 0.309717 -0.010976
v 0.006360 0.309192 -0.010661
v 0.006426 0.333721 -0.011315
v -0.000239 0.335362 -0.009811
v -0.001271 0.346047 -0.008686
v 0.006965 0.344598 -0.010884
v 0.007925 0.355590 -0.010131
v 0.002392 0.356380 -0.008247
v -0.008963 0.336442 -0.007794
v -0.011269 0.343841 -0.005558
v -0.000180 0.358995 -0.003270
v -0.004835 0.353288 -0.000877
v -0.011159 0.345451 0.001163
v 0.006185 0.345512 -0.002563
v 0.000252 0.348368 -0.000894
v -0.006333 0.337001 0.000156
v 0.003394 0.334014 -0.001962
v -0.020455 0.342254 0.002217
v -0.018477 0.334501 0.001718
v 0.002368 0.321675 -0.001839
v -0.005297 0.323890 0.000859
v -0.016395 0.325051 0.001492
v -0.019563 0.325967 -0.006770
v -0.031945 0.327412 -0.005768
v -0.031705 0.339661 -0.004180
v -0.020448 0.336579 -0.005382
v -0.039899 0.326829 -0.006000
v -0.039917 0.338480 -0.005609
v -0.041063 0.345873 -0.004995
v -0.035191 0.345820 -0.004441
v -0.034167 0.348464 0.000078
v -0.029415 0.345589 -0.000828
v -0.020786 0.343227 -0.002750
v -0.038872 0.353132 -0.000292
v -0.043012 0.346216 0.004279
v -0.036883 0.343807 0.003767
v -0.039176 0.335800 0.004137
v -0.044897 0.336281 0.004036
v -0.042108 0.358125 -0.000059
v -0.044826 0.354714 0.003907
v -0.049848 0.352613 0.003584
v -0.050124 0.345306 0.003116
v -0.050677 0.336450 0.002312
v -0.045374 0.358699 -0.001784
v -0.046467 0.352921 -0.002834
v -0.046414 0.345686 -0.004139
v -0.042509 0.363091 -0.003154
v -0.041044 0.360658 -0.000948
v -0.041843 0.362158 0.002318
v -0.046017 0.360367 0.003429
v -0.040547 0.367765 -0.004836
v -0.040388 0.371207 -0.000731
v -0.051391 0.360044 -0.000825
v -0.048155 0.365659 -0.000701
v -0.044654 0.368737 -0.001179
v -0.043997 0.367140 0.002354
v -0.049588 0.357716 0.003751
v -0.048720 0.364782 0.002868
v -0.052690 0.359972 0.003159
v -0.053978 0.352813 0.001603
v -0.052341 0.353077 -0.001905
v -0.052053 0.345871 -0.003643
v -0.054576 0.345625 -0.000149
v -0.052168 0.337090 -0.004786
v -0.054916 0.336932 -0.000892
v -0.052155 0.326106 -0.005947
v -0.054895 0.325576 -0.002085
v -0.051095 0.325377 0.001229
v -0.054958 0.310903 -0.002190
v -0.050927 0.310921 0.000659
v -0.045958 0.311040 0.002264
v -0.045755 0.325251 0.003440
v -0.039483 0.311861 0.003971
v -0.040058 0.325378 0.004189
v -0.028904 0.313144 0.003648
v -0.029776 0.325406 0.003019
v -0.030038 0.334555 0.003008
v -0.029532 0.342138 0.003294
v -0.015279 0.312814 0.002493
v -0.026991 0.298009 0.004062
v -0.013752 0.297695 0.002784
v -0.005192 0.295623 0.001852
v -0.005068 0.310774 0.001375
v -0.012541 0.279337 0.003427
v -0.005325 0.278548 0.000762
v -0.013003 0.258876 0.004192
v -0.006684 0.257806 -0.000747
v -0.001007 0.257689 -0.004288
v -0.003528 0.244462 -0.009407
v 0.000474 0.257364 -0.008923
v -0.008011 0.241459 -0.010202
v -0.004765 0.257275 -0.011021
v -0.013770 0.243229 -0.009032
v -0.011085 0.257980 -0.010193
v -0.009552 0.276419 -0.010049
v -0.007689 0.295377 -0.009558
v -0.020202 0.258973 -0.006710
v -0.019618 0.276755 -0.007116
v -0.018477 0.296475 -0.006812
v -0.006745 0.311018 -0.008941
v -0.018116 0.312275 -0.007096
v -0.031815 0.276478 -0.006203
v -0.032235 0.295638 -0.005596
v -0.032023 0.312603 -0.006117
v -0.041638 0.293925 -0.007148
v -0.040949 0.312156 -0.006638
v -0.047514 0.293050 -0.006658
v -0.047237 0.311606 -0.006748
v -0.046262 0.326493 -0.006153
v -0.046111 0.337359 -0.005249
v -0.052281 0.311027 -0.005725
v -0.051856 0.297575 -0.005362
v -0.053655 0.297445 -0.000874
v -0.039750 0.275486 -0.007199
v -0.045520 0.274344 -0.005738
v -0.031138 0.258891 -0.006901
v -0.038272 0.258938 -0.007625
v -0.043805 0.258480 -0.004996
v -0.038866 0.246746 -0.007335
v -0.043288 0.246439 -0.003126
v -0.038546 0.246227 0.000301
v -0.041198 0.258232 0.000241
v -0.045127 0.273825 -0.000657
v -0.032442 0.245488 0.000811
v -0.035461 0.258071 0.001280
v -0.039704 0.275632 0.001393
v -0.049239 0.292691 0.000647
v -0.044424 0.293360 0.001641
v -0.030015 0.258501 0.004429
v -0.033879 0.277257 0.004851
v -0.037839 0.295606 0.004375
v -0.023819 0.279446 0.004965
v -0.021465 0.259331 0.005760
v -0.027962 0.244387 0.003783
v -0.021098 0.242260 0.004762
v -0.014154 0.242932 0.003235
v -0.027122 0.231614 0.001982
v -0.030571 0.234914 -0.000090
v -0.035564 0.236494 -0.001366
v -0.029626 0.226520 -0.001564
v -0.027711 0.225218 -0.000150
v -0.029176 0.221894 -0.004251
v -0.024588 0.225965 -0.005598
v -0.018526 0.232743 -0.006731
v -0.025337 0.235956 -0.006321
v -0.021807 0.245917 -0.006519
v -0.032626 0.237483 -0.007570
v -0.031607 0.247177 -0.007412
v -0.039577 0.237297 -0.006524
v -0.039157 0.231513 -0.006094
v -0.041593 0.237017 -0.000862
v -0.000099 0.323425 -0.010347
v -0.007216 0.324969 -0.008293
v 0.006325 0.321946 -0.011242
v 0.011861 0.333076 -0.009436
v 0.011485 0.321151 -0.009012
v 0.010849 0.311988 -0.009341
v 0.009686 0.333150 -0.005116
v 0.008392 0.320929 -0.004989
v 0.011552 0.344763 -0.005465
v 0.012554 0.344533 -0.009534
v 0.012781 0.355602 -0.005764
v 0.013161 0.355557 -0.009095
v 0.009772 0.364592 -0.003193
v 0.008723 0.355711 -0.003258
v 0.012859 0.365127 -0.005408
v 0.012233 0.365244 -0.008363
v 0.011895 0.370701 -0.004694
v 0.010102 0.372894 -0.007028
v 0.004272 0.356806 -0.001739
v 0.008939 0.371763 -0.002930
v 0.008662 0.375762 -0.003148
v -0.009398 0.375746 -0.001162
v -0.008904 0.372597 -0.002487
v -0.009404 0.375230 -0.004086
v -0.014423 0.371513 -0.001799
v -0.015091 0.374057 -0.003625
v -0.014924 0.374505 -0.000816
v -0.020636 0.373085 -0.003074
v -0.020579 0.373162 -0.000278
v -0.020115 0.370356 -0.001417
vt 0.094423 0.902585
vt 0.093305 0.899403
vt 0.097962 0.900128
vt 0.098692 0.903281
vt 0.102686 0.903754
vt 0.102772 0.901302
vt 0.102663 0.906423
vt 0.102441 0.909513
vt 0.097766 0.910647
vt 0.098254 0.906436
vt 0.117091 0.905684
vt 0.119853 0.906817
vt 0.119598 0.911969
vt 0.116339 0.908191
vt 0.121976 0.907685
vt 0.123714 0.911223
vt 0.116076 0.910132
vt 0.119298 0.912373
vt 0.126150 0.901906
vt 0.121092 0.902910
vt 0.121463 0.901976
vt 0.125408 0.900667
vt 0.126004 0.913121
vt 0.124425 0.914091
vt 0.123302 0.904218
vt 0.117021 0.903244
vt 0.127043 0.903296
vt 0.471322 0.885103
vt 0.467439 0.890437
vt 0.464942 0.888485
vt 0.469297 0.882746
vt 0.968499 0.875627
vt 0.970438 0.881001
vt 0.968896 0.881795
vt 0.964357 0.880179
vt 0.972340 0.877492
vt 0.972020 0.882347
vt 0.970102 0.885065
vt 0.964182 0.887869
vt 0.848953 0.982453
vt 0.843733 0.987458
vt 0.841221 0.983549
vt 0.846751 0.979894
vt 0.977760 0.881251
vt 0.980333 0.883219
vt 0.976359 0.883747
vt 0.975519 0.883660
vt 0.975448 0.887723
vt 0.977859 0.887204
vt 0.464790 0.899506
vt 0.462194 0.899085
vt 0.459245 0.899169
vt 0.460989 0.889166
vt 0.461928 0.880985
vt 0.465383 0.881388
vt 0.466679 0.868172
vt 0.463124 0.867050
vt 0.464351 0.862041
vt 0.468236 0.862774
vt 0.470983 0.857596
vt 0.468051 0.857634
vt 0.458541 0.865463
vt 0.457876 0.861349
vt 0.130424 0.899706
vt 0.129800 0.897023
vt 0.136108 0.895329
vt 0.134985 0.899348
vt 0.140385 0.896430
vt 0.139248 0.894593
vt 0.138000 0.902949
vt 0.136471 0.901122
vt 0.143301 0.897238
vt 0.144566 0.901665
vt 0.411542 0.861133
vt 0.411279 0.865364
vt 0.405209 0.864350
vt 0.406986 0.859753
vt 0.474298 0.877863
vt 0.476056 0.869974
vt 0.480698 0.871396
vt 0.478283 0.878785
vt 0.410403 0.870597
vt 0.404876 0.872170
vt 0.452133 0.870734
vt 0.445476 0.869264
vt 0.446430 0.862775
vt 0.452316 0.864871
vt 0.441106 0.868858
vt 0.441372 0.862969
vt 0.441620 0.859208
vt 0.444811 0.859725
vt 0.446681 0.857853
vt 0.448420 0.859341
vt 0.452432 0.860980
vt 0.082916 0.894037
vt 0.086516 0.895957
vt 0.082165 0.898005
vt 0.080205 0.896181
vt 0.421896 0.863767
vt 0.420005 0.859560
vt 0.422984 0.859362
vt 0.424792 0.863634
vt 0.089890 0.898817
vt 0.086092 0.899579
vt 0.082334 0.901946
vt 0.078882 0.900344
vt 0.427424 0.862562
vt 0.425759 0.859409
vt 0.087995 0.910575
vt 0.090051 0.911896
vt 0.086960 0.913792
vt 0.084544 0.911025
vt 0.080850 0.911937
vt 0.081380 0.913925
vt 0.091137 0.909730
vt 0.091731 0.911416
vt 0.090776 0.900579
vt 0.091612 0.898565
vt 0.087738 0.901402
vt 0.093608 0.907896
vt 0.093947 0.905131
vt 0.085907 0.907627
vt 0.088806 0.906199
vt 0.091061 0.906141
vt 0.091431 0.903266
vt 0.084883 0.902604
vt 0.088433 0.903894
vt 0.085363 0.904954
vt 0.081567 0.905353
vt 0.082489 0.908842
vt 0.079889 0.910366
vt 0.078128 0.906111
vt 0.434732 0.863152
vt 0.431745 0.862418
vt 0.433195 0.859162
vt 0.435446 0.858836
vt 0.073499 0.900445
vt 0.072348 0.904541
vt 0.434208 0.868606
vt 0.431492 0.868644
vt 0.428571 0.868599
vt 0.431183 0.876320
vt 0.428341 0.876861
vt 0.425198 0.877690
vt 0.425436 0.869020
vt 0.422082 0.877071
vt 0.422440 0.869005
vt 0.416912 0.877143
vt 0.417181 0.869768
vt 0.417258 0.864439
vt 0.416035 0.860989
vt 0.417409 0.858055
vt 0.415022 0.858470
vt 0.411171 0.858954
vt 0.410098 0.878447
vt 0.416640 0.886377
vt 0.410240 0.887737
vt 0.406200 0.889392
vt 0.405004 0.880177
vt 0.475349 0.886343
vt 0.470652 0.891720
vt 0.411588 0.898009
vt 0.407683 0.898595
vt 0.468107 0.900567
vt 0.858703 0.978792
vt 0.855678 0.975953
vt 0.866385 0.973659
vt 0.868648 0.976283
vt 0.462473 0.910073
vt 0.465669 0.911277
vt 0.852798 0.973008
vt 0.845899 0.976641
vt 0.850715 0.970930
vt 0.459939 0.909529
vt 0.843056 0.977331
vt 0.847801 0.969565
vt 0.456835 0.908988
vt 0.839643 0.975446
vt 0.844721 0.967898
vt 0.455327 0.898736
vt 0.453363 0.908398
vt 0.457252 0.888501
vt 0.447964 0.907171
vt 0.449381 0.897747
vt 0.451227 0.887316
vt 0.458225 0.879846
vt 0.452168 0.878483
vt 0.442496 0.896620
vt 0.443692 0.886523
vt 0.444778 0.877381
vt 0.438199 0.886818
vt 0.439868 0.876910
vt 0.434862 0.886726
vt 0.436498 0.876665
vt 0.437622 0.868619
vt 0.438168 0.862998
vt 0.433759 0.876516
vt 0.432980 0.883605
vt 0.430815 0.882407
vt 0.438634 0.859165
vt 0.437599 0.896803
vt 0.433973 0.896649
vt 0.441544 0.905758
vt 0.437189 0.905626
vt 0.432101 0.905165
vt 0.988248 0.889357
vt 0.989600 0.884296
vt 0.994805 0.888133
vt 0.994004 0.891027
vt 0.429766 0.910428
vt 0.430175 0.905796
vt 0.431547 0.910177
vt 0.430795 0.896769
vt 0.985948 0.876431
vt 0.992062 0.873083
vt 0.994111 0.876153
vt 0.988183 0.879776
vt 0.427407 0.896759
vt 0.426994 0.906577
vt 0.429090 0.886467
vt 0.426071 0.887025
vt 0.423416 0.906981
vt 0.423405 0.896944
vt 0.421982 0.886937
vt 0.417737 0.896836
vt 0.418553 0.907536
vt 0.413885 0.908236
vt 0.983680 0.873813
vt 0.980459 0.870806
vt 0.987196 0.866604
vt 0.989881 0.869867
vt 0.851633 0.985246
vt 0.859972 0.982733
vt 0.852743 0.988089
vt 0.974133 0.869801
vt 0.844878 0.990341
vt 0.977587 0.876732
vt 0.980394 0.877800
vt 0.982420 0.880174
vt 0.975962 0.880553
vt 0.974864 0.879668
vt 0.973885 0.883216
vt 0.972559 0.887617
vt 0.970886 0.891381
vt 0.976404 0.892403
vt 0.973410 0.897130
vt 0.978128 0.896645
vt 0.980378 0.889467
vt 0.984265 0.891303
vt 0.446031 0.912500
vt 0.440779 0.911244
vt 0.983433 0.886787
vt 0.437768 0.911150
vt 0.980088 0.885754
vt 0.984472 0.882908
vt 0.836096 0.972168
vt 0.840572 0.965093
vt 0.837404 0.981125
vt 0.462447 0.873308
vt 0.458651 0.871967
vt 0.465899 0.874376
vt 0.469669 0.868977
vt 0.469050 0.875131
vt 0.467688 0.880047
vt 0.472343 0.869304
vt 0.471302 0.876254
vt 0.476584 0.863807
vt 0.473168 0.863500
vt 0.470878 0.863089
vt 0.474249 0.858846
vt 0.472774 0.858018
vt 0.128279 0.905107
vt 0.132562 0.903769
vt 0.133748 0.907561
vt 0.129018 0.908192
vt 0.477093 0.858953
vt 0.129111 0.910476
vt 0.133757 0.911078
vt 0.126284 0.907920
vt 0.125039 0.909631
vt 0.130696 0.915697
vt 0.131483 0.901948
vt 0.124903 0.906088
vt 0.406207 0.856855
vt 0.128091 0.918004
vt 0.123713 0.907339
vt 0.113373 0.905101
vt 0.113520 0.902787
vt 0.113161 0.907159
vt 0.112989 0.909776
vt 0.109601 0.909283
vt 0.109664 0.906892
vt 0.109858 0.904759
vt 0.106266 0.906497
vt 0.106190 0.904454
vt 0.106292 0.902300
vt 0.109988 0.902468
vt 0.105961 0.909010
vt 0.094119 0.912096
vt 0.444070 0.855810
vn 0.0971 0.3795 0.9201
vn 0.5495 -0.6147 0.5658
vn 0.5407 -0.8321 -0.1231
vn 0.1527 0.3450 0.9261
vn 0.0130 0.3924 0.9197
vn 0.3416 -0.9337 -0.1076
vn -0.1019 0.6545 -0.7492
vn 0.0749 0.6940 -0.7160
vn 0.1268 0.7517 0.6472
vn -0.0954 0.8004 0.5919
vn -0.5092 0.1551 -0.8466
vn -0.0949 0.2415 -0.9657
vn -0.1361 0.9491 0.2841
vn -0.1344 0.4509 -0.8824
vn -0.0800 -0.9713 0.2239
vn -0.6100 -0.5181 0.5996
vn -0.9120 0.1412 0.3851
vn -0.6523 0.1692 -0.7389
vn -0.1565 0.1683 -0.9732
vn -0.0217 -0.0315 0.9993
vn -0.0462 0.0403 0.9981
vn 0.5078 -0.0515 0.8599
vn 0.6649 -0.0791 0.7428
vn 0.9695 -0.2245 -0.0983
vn 0.8185 -0.2290 0.5270
vn 0.3139 -0.2275 0.9218
vn -0.0879 -0.9648 0.2479
vn 0.4993 -0.8617 0.0906
vn 0.8004 -0.4618 0.3822
vn -0.2649 -0.3548 0.8967
vn -0.4953 -0.8015 -0.3352
vn 0.1690 -0.4551 -0.8743
vn 0.4463 -0.4577 -0.7690
vn 0.6927 -0.2175 0.6876
vn 0.9008 -0.4021 0.1640
vn -0.1466 -0.3500 0.9252
vn -0.4888 -0.4913 0.7210
vn -0.1238 -0.9915 0.0390
vn -0.3615 -0.8394 -0.4058
vn 0.0321 -0.1710 -0.9847
vn -0.2659 -0.3363 -0.9034
vn 0.7560 -0.0863 0.6488
vn 0.9570 -0.0836 -0.2776
vn 0.1961 -0.0048 -0.9806
vn 0.1649 -0.0327 -0.9858
vn -0.0494 -0.0219 -0.9985
vn 0.5368 -0.2204 -0.8144
vn 0.0582 0.0136 -0.9982
vn -0.2310 0.0573 -0.9713
vn -0.4146 0.2518 -0.8745
vn -0.0008 0.0540 -0.9985
vn -0.0617 0.1178 -0.9911
vn -0.5509 0.2393 -0.7995
vn -0.2292 0.1184 -0.9661
vn -0.3780 0.5643 -0.7339
vn -0.8297 0.4591 0.3174
vn -0.6065 0.6411 0.4704
vn -0.1723 0.6744 0.7179
vn 0.3651 -0.0371 0.9302
vn 0.1819 0.0462 0.9822
vn 0.1765 0.0096 0.9842
vn 0.3503 -0.0177 0.9365
vn 0.0851 0.5573 0.8260
vn 0.1125 -0.0088 0.9936
vn 0.4015 -0.0124 0.9158
vn 0.2113 0.0351 0.9768
vn 0.0984 0.0447 0.9941
vn -0.1107 0.0570 -0.9922
vn -0.0005 0.0678 -0.9977
vn 0.1033 0.2442 -0.9642
vn -0.1276 0.2160 -0.9680
vn 0.0320 0.0523 -0.9981
vn 0.0246 0.0781 -0.9966
vn 0.1016 0.2804 -0.9545
vn 0.3196 0.3854 -0.8656
vn 0.5428 0.8316 0.1174
vn 0.3765 0.9106 -0.1705
vn -0.0984 0.8543 -0.5104
vn 0.7225 0.6861 -0.0853
vn 0.0874 0.1238 0.9884
vn 0.1865 0.2506 0.9500
vn 0.0410 -0.0079 0.9991
vn -0.1524 -0.0251 0.9880
vn 0.9776 -0.1648 -0.1306
vn 0.2960 0.0725 0.9524
vn -0.2667 -0.0475 0.9626
vn -0.3737 -0.0468 0.9264
vn -0.4562 -0.0475 0.8886
vn 0.0602 0.0085 -0.9981
vn 0.0404 0.2414 -0.9696
vn -0.0507 0.2005 -0.9784
vn 0.0230 -0.3208 -0.9469
vn 0.6613 -0.7031 -0.2614
vn 0.4827 -0.1787 0.8573
vn 0.2086 0.0484 0.9768
vn -0.1232 0.1812 -0.9757
vn -0.2662 0.9633 0.0330
vn -0.6700 0.3183 -0.6707
vn -0.6762 0.5570 -0.4821
vn -0.5928 0.7594 -0.2681
vn -0.1694 0.5096 0.8436
vn -0.1450 0.0197 0.9892
vn -0.4836 0.5701 0.6642
vn -0.7911 0.3123 0.5260
vn -0.9436 0.0596 0.3258
vn -0.5934 0.2067 -0.7779
vn -0.5050 0.1542 -0.8493
vn -0.9855 0.0357 0.1659
vn -0.4903 0.1007 -0.8657
vn -0.9887 0.0122 0.1492
vn -0.4882 0.0476 -0.8714
vn -0.9934 -0.0085 0.1143
vn -0.4928 -0.0498 0.8687
vn -0.9822 -0.0407 0.1833
vn -0.4284 -0.0309 0.9031
vn -0.2804 -0.0459 0.9588
vn -0.2420 -0.0458 0.9692
vn -0.1070 -0.0106 0.9942
vn -0.0243 -0.0136 0.9996
vn 0.0715 0.0396 0.9967
vn 0.0999 0.0232 0.9947
vn 0.1100 -0.0119 0.9939
vn 0.1934 0.3749 0.9067
vn 0.0982 0.0514 0.9938
vn 0.0570 0.0381 0.9976
vn 0.1312 0.0304 0.9909
vn 0.3685 -0.0131 0.9295
vn 0.2815 0.0208 0.9593
vn 0.2460 0.0141 0.9692
vn 0.4737 -0.0478 0.8794
vn 0.3742 -0.0410 0.9264
vn 0.5616 -0.0947 0.8219
vn 0.8085 -0.1460 0.5701
vn 0.7965 -0.2728 -0.5396
vn 0.8958 -0.1461 -0.4197
vn 0.2484 -0.2327 -0.9403
vn 0.1261 -0.0340 -0.9914
vn -0.2468 -0.0263 -0.9687
vn -0.2339 0.0005 -0.9723
vn -0.2216 0.0235 -0.9748
vn -0.2264 0.0311 -0.9735
vn -0.1640 0.0084 -0.9864
vn -0.1739 0.0214 -0.9845
vn -0.1562 0.0143 -0.9876
vn -0.2231 0.0317 -0.9743
vn -0.1236 0.0105 -0.9923
vn 0.0356 0.0247 -0.9991
vn 0.0235 0.0058 -0.9997
vn -0.0001 0.0068 -1.0000
vn 0.0139 -0.0001 -0.9999
vn 0.0371 0.0205 -0.9991
vn -0.5433 -0.2158 -0.8113
vn -0.0930 0.0136 -0.9956
vn -0.0427 0.0532 -0.9977
vn -0.0680 0.0936 -0.9933
vn -0.5602 -0.0225 -0.8281
vn -0.6588 -0.2945 -0.6923
vn -0.9089 -0.3051 0.2843
vn -0.0582 -0.0039 -0.9983
vn -0.7958 -0.1296 -0.5915
vn 0.0436 0.0157 -0.9989
vn -0.1785 -0.0152 -0.9838
vn -0.9316 -0.1173 -0.3439
vn -0.3774 -0.0594 -0.9241
vn -0.9914 -0.1165 0.0597
vn -0.3325 -0.0697 0.9405
vn -0.5804 -0.0777 0.8106
vn -0.7657 -0.1417 0.6274
vn -0.3732 -0.1360 0.9177
vn -0.3520 -0.0878 0.9319
vn -0.3598 -0.0919 0.9285
vn -0.7337 -0.2935 0.6129
vn -0.3127 -0.0708 0.9472
vn -0.3138 -0.0812 0.9460
vn -0.2501 -0.0460 0.9671
vn -0.1852 -0.0167 0.9826
vn 0.0505 0.0349 0.9981
vn 0.0352 -0.0185 0.9992
vn -0.3815 -0.1156 0.9171
vn -0.0041 -0.0842 0.9964
vn 0.4443 -0.1100 0.8891
vn -0.4790 -0.1856 0.8579
vn -0.4744 -0.1975 0.8579
vn -0.0963 -0.0924 0.9911
vn -0.5753 -0.3624 0.7333
vn -0.5745 -0.4128 0.7068
vn -0.5832 -0.7718 -0.2536
vn -0.0778 -0.1774 -0.9811
vn -0.1917 -0.0690 -0.9790
vn 0.0012 -0.0546 -0.9985
vn -0.1075 -0.0122 -0.9941
vn 0.0072 -0.0518 -0.9986
vn 0.0380 -0.0092 -0.9992
vn -0.6073 -0.1596 -0.7783
vn -0.7013 -0.3702 -0.6092
vn -0.8218 -0.1990 0.5340
vn -0.1924 0.0223 -0.9811
vn -0.2055 0.0363 -0.9780
vn 0.1289 -0.0075 -0.9916
vn 0.9180 -0.0654 -0.3911
vn 0.9576 -0.0686 -0.2799
vn 0.9443 -0.1754 -0.2785
vn 0.7024 -0.0602 0.7092
vn 0.6561 -0.0530 0.7528
vn 0.7791 -0.0769 0.6222
vn 0.8601 -0.0507 -0.5076
vn 0.8615 -0.0379 0.5064
vn 0.7956 0.0406 -0.6044
vn 0.4164 -0.0149 0.9091
vn 0.4125 -0.0372 0.9102
vn 0.9230 0.0870 0.3748
vn 0.6563 0.1972 -0.7283
vn 0.9115 0.2482 0.3280
vn 0.5854 0.5465 -0.5988
vn 0.0865 0.0902 0.9922
vn 0.5048 0.1616 0.8480
vn 0.5447 0.7599 0.3549
vn -0.0354 0.6577 0.7524
vn 0.1408 -0.9843 0.1060
vn -0.1694 0.3824 -0.9083
vn 0.2030 -0.9711 0.1255
vn -0.1728 0.3896 -0.9047
vn -0.0622 0.6266 0.7769
vn -0.1540 0.4936 -0.8559
vn -0.0431 0.5480 0.8354
vn 0.2446 -0.9681 0.0539
f 1/1/1 2/2/2 3/3/3 4/4/4
f 5/5/5 4/4/4 3/3/3 6/6/6
f 7/7/7 6/8/6 3/9/3 8/10/8
f 9/11/9 10/12/10 11/13/11 12/14/12
f 13/15/13 14/16/14 11/13/11 10/12/10
f 15/17/15 12/14/12 11/13/11 16/18/16
f 17/19/17 16/20/16 11/21/11 18/22/18
f 19/23/19 18/24/18 11/13/11 14/16/14
f 13/15/13 10/12/10 16/20/16 20/25/20
f 9/11/9 15/26/15 16/20/16 10/12/10
f 21/27/21 20/25/20 16/20/16 17/19/17
f 22/28/22 23/29/23 24/30/24 25/31/25
f 26/32/26 27/33/27 28/34/28 29/35/29
f 27/33/27 26/32/26 30/36/30 31/37/31
f 28/34/28 32/38/32 33/39/33 29/35/29
f 34/40/34 29/41/29 33/42/33 35/43/35
f 36/44/36 37/45/37 38/46/38 39/47/39
f 40/48/40 39/47/39 38/46/38 41/49/41
f 42/50/42 43/51/43 24/30/24 23/29/23
f 44/52/44 45/53/45 24/30/24 43/51/43
f 46/54/46 47/55/47 24/30/24 45/53/45
f 48/56/48 49/57/49 50/58/50 51/59/51
f 52/60/52 51/59/51 50/58/50 53/61/53
f 54/62/54 55/63/55 50/58/50 49/57/49
f 56/64/56 53/65/53 50/66/50 57/67/57
f 58/68/58 57/67/57 50/66/50 55/69/55
f 59/70/59 60/71/60 61/72/61 62/73/62
f 57/67/57 58/68/58 61/72/61 60/71/60
f 63/74/63 64/75/64 61/76/61 58/77/58
f 65/78/65 62/79/62 61/80/61 66/81/66
f 67/82/67 66/83/66 61/76/61 64/75/64
f 68/84/68 69/85/69 70/86/70 71/87/71
f 72/88/72 73/89/73 70/86/70 69/85/69
f 74/90/74 75/91/75 70/86/70 73/89/73
f 76/92/76 77/93/77 70/86/70 75/91/75
f 78/94/78 71/87/71 70/86/70 77/93/77
f 76/95/76 79/96/79 80/97/80 81/98/81
f 82/99/82 81/100/81 80/101/80 83/102/83
f 84/103/84 85/104/85 80/97/80 79/96/79
f 86/105/86 87/106/87 80/97/80 85/104/85
f 88/107/88 83/102/83 80/101/80 87/108/87
f 89/109/89 84/110/84 79/111/79 90/112/90
f 91/113/91 90/112/90 79/111/79 74/114/74
f 92/115/92 93/116/93 84/110/84 89/109/89
f 2/2/2 94/117/94 84/103/84 93/118/93
f 95/119/95 85/104/85 84/103/84 94/117/94
f 96/120/96 8/10/8 3/9/3 92/115/92
f 5/5/5 7/7/7 8/10/8 4/4/4
f 1/1/1 4/4/4 8/10/8 97/121/97
f 98/122/98 99/123/99 92/115/92 89/109/89
f 100/124/100 96/120/96 92/115/92 99/123/99
f 101/125/101 1/1/1 97/121/97 100/124/100
f 85/104/85 95/119/95 102/126/102 86/105/86
f 103/127/103 104/128/104 102/126/102 95/119/95
f 105/129/105 86/105/86 102/126/102 104/128/104
f 98/122/98 106/130/106 105/129/105 104/128/104
f 107/131/107 108/132/108 105/129/105 106/130/106
f 87/106/87 86/105/86 105/129/105 108/132/108
f 109/133/109 110/134/110 108/135/108 107/136/107
f 88/137/88 87/106/87 108/132/108 110/138/110
f 111/139/111 112/140/112 110/134/110 109/133/109
f 113/141/113 88/107/88 110/134/110 112/140/112
f 114/142/114 115/143/115 113/141/113 112/140/112
f 116/144/116 117/145/117 113/141/113 115/143/115
f 83/102/83 88/107/88 113/141/113 117/145/117
f 118/146/118 119/147/119 117/145/117 116/144/116
f 82/99/82 83/102/83 117/145/117 119/147/119
f 120/148/120 121/149/121 119/147/119 118/146/118
f 122/150/122 82/99/82 119/147/119 121/149/121
f 81/100/81 82/99/82 122/150/122 123/151/123
f 67/82/67 64/75/64 122/150/122 121/149/121
f 63/74/63 123/151/123 122/150/122 64/75/64
f 76/152/76 81/100/81 123/151/123 77/153/77
f 78/154/78 77/153/77 123/151/123 63/74/63
f 124/155/124 67/82/67 121/149/121 120/148/120
f 125/156/125 126/157/126 124/155/124 120/148/120
f 127/158/127 128/159/128 124/155/124 126/157/126
f 66/83/66 67/82/67 124/155/124 128/159/128
f 23/29/23 22/28/22 128/160/128 127/161/127
f 65/78/65 66/81/66 128/160/128 22/28/22
f 129/162/129 130/163/130 127/158/127 126/157/126
f 42/50/42 23/29/23 127/161/127 130/164/130
f 131/165/131 132/166/132 130/167/130 129/168/129
f 133/169/133 42/50/42 130/164/130 132/170/132
f 34/40/34 35/43/35 133/171/133 132/166/132
f 134/172/134 135/173/135 133/171/133 35/43/35
f 43/51/43 42/50/42 133/169/133 135/174/135
f 136/175/136 137/176/137 135/173/135 134/172/134
f 44/52/44 43/51/43 135/174/135 137/177/137
f 138/178/138 139/179/139 137/176/137 136/175/136
f 140/180/140 44/52/44 137/177/137 139/181/139
f 45/53/45 44/52/44 140/180/140 141/182/141
f 142/183/142 143/184/143 140/180/140 139/181/139
f 144/185/144 141/182/141 140/180/140 143/184/143
f 145/186/145 141/182/141 144/185/144 146/187/146
f 147/188/147 148/189/148 144/185/144 143/184/143
f 149/190/149 146/187/146 144/185/144 148/189/148
f 68/84/68 146/187/146 149/190/149 69/85/69
f 150/191/150 151/192/151 149/190/149 148/189/148
f 72/88/72 69/85/69 149/190/149 151/192/151
f 152/193/152 153/194/153 151/192/151 150/191/150
f 154/195/154 72/88/72 151/192/151 153/194/153
f 73/89/73 72/88/72 154/195/154 155/196/155
f 156/197/156 111/139/111 154/195/154 153/194/153
f 109/133/109 155/196/155 154/195/154 111/139/111
f 152/193/152 157/198/157 156/197/156 153/194/153
f 158/199/158 114/142/114 156/197/156 157/198/157
f 112/140/112 111/139/111 156/197/156 114/142/114
f 74/90/74 73/89/73 155/196/155 91/200/91
f 107/136/107 91/200/91 155/196/155 109/133/109
f 147/188/147 159/201/159 150/191/150 148/189/148
f 160/202/160 152/193/152 150/191/150 159/201/159
f 161/203/161 162/204/162 159/201/159 147/188/147
f 163/205/163 160/202/160 159/201/159 162/204/162
f 164/206/164 165/207/165 163/208/163 162/209/162
f 166/210/166 167/211/167 163/205/163 165/212/165
f 168/213/168 160/202/160 163/205/163 167/211/167
f 169/214/169 170/215/170 167/216/167 166/217/166
f 171/218/171 168/213/168 167/211/167 170/219/170
f 172/220/172 168/213/168 171/218/171 173/221/173
f 174/222/174 175/223/175 171/218/171 170/219/170
f 176/224/176 173/221/173 171/218/171 175/223/175
f 116/144/116 173/221/173 176/224/176 118/146/118
f 177/225/177 125/156/125 176/224/176 175/223/175
f 120/148/120 118/146/118 176/224/176 125/156/125
f 174/222/174 178/226/178 177/225/177 175/223/175
f 131/227/131 129/162/129 177/225/177 178/226/178
f 126/157/126 125/156/125 177/225/177 129/162/129
f 179/228/179 180/229/180 178/230/178 174/231/174
f 181/232/181 131/165/131 178/233/178 180/234/180
f 30/36/30 26/32/26 181/235/181 180/229/180
f 29/41/29 34/40/34 181/232/181 26/236/26
f 132/166/132 131/165/131 181/232/181 34/40/34
f 182/237/182 30/36/30 180/229/180 179/228/179
f 170/215/170 169/214/169 179/228/179 174/231/174
f 183/238/183 182/237/182 179/228/179 169/214/169
f 166/217/166 184/239/184 183/238/183 169/214/169
f 36/44/36 185/240/185 183/238/183 184/239/184
f 186/241/186 182/237/182 183/238/183 185/240/185
f 39/47/39 187/242/187 185/240/185 36/44/36
f 31/37/31 186/241/186 185/240/185 187/242/187
f 32/38/32 31/37/31 187/242/187 188/243/188
f 40/48/40 188/243/188 187/242/187 39/47/39
f 33/39/33 32/38/32 188/243/188 189/244/189
f 190/245/190 189/244/189 188/243/188 40/48/40
f 138/246/138 189/244/189 190/245/190 191/247/191
f 41/49/41 192/248/192 190/245/190 40/48/40
f 193/249/193 191/247/191 190/245/190 192/248/192
f 142/183/142 191/250/191 193/251/193 161/203/161
f 194/252/194 164/206/164 193/249/193 192/248/192
f 162/204/162 161/203/161 193/251/193 164/253/164
f 41/49/41 195/254/195 194/252/194 192/248/192
f 37/45/37 196/255/196 194/252/194 195/254/195
f 165/207/165 164/206/164 194/252/194 196/255/196
f 36/44/36 184/239/184 196/255/196 37/45/37
f 166/217/166 165/207/165 196/255/196 184/239/184
f 139/179/139 138/178/138 191/256/191 142/257/142
f 136/175/136 33/42/33 189/258/189 138/178/138
f 115/143/115 172/220/172 173/221/173 116/144/116
f 143/184/143 142/183/142 161/203/161 147/188/147
f 197/259/197 46/54/46 145/186/145 198/260/198
f 45/53/45 141/182/141 145/186/145 46/54/46
f 68/84/68 198/260/198 145/186/145 146/187/146
f 48/56/48 199/261/199 197/259/197 49/57/49
f 47/55/47 46/54/46 197/259/197 199/261/199
f 54/62/54 49/57/49 197/259/197 198/260/198
f 200/262/200 201/263/201 199/261/199 48/56/48
f 202/264/202 47/55/47 199/261/199 201/263/201
f 203/265/203 204/266/204 201/263/201 200/262/200
f 25/31/25 202/264/202 201/263/201 204/266/204
f 62/79/62 65/78/65 204/266/204 203/265/203
f 22/28/22 25/31/25 204/266/204 65/78/65
f 59/267/59 62/79/62 203/265/203 205/268/205
f 206/269/206 205/268/205 203/265/203 200/262/200
f 207/270/207 205/268/205 206/269/206 208/271/208
f 48/56/48 51/59/51 206/269/206 200/262/200
f 52/60/52 208/271/208 206/269/206 51/59/51
f 209/272/209 210/273/210 207/274/207 211/275/211
f 59/267/59 205/268/205 207/270/207 210/276/210
f 212/277/212 211/275/211 207/274/207 208/278/208
f 213/279/213 211/275/211 212/277/212 214/280/214
f 52/281/52 19/23/19 212/277/212 208/278/208
f 14/16/14 214/280/214 212/277/212 19/23/19
f 21/27/21 215/282/215 210/273/210 209/272/209
f 60/71/60 59/70/59 210/273/210 215/282/215
f 17/19/17 56/64/56 215/282/215 21/27/21
f 57/67/57 60/71/60 215/282/215 56/64/56
f 213/279/213 216/283/216 209/272/209 211/275/211
f 20/25/20 21/27/21 209/272/209 216/283/216
f 71/87/71 54/62/54 198/260/198 68/84/68
f 158/199/158 172/220/172 115/143/115 114/142/114
f 90/112/90 91/113/91 107/131/107 106/130/106
f 89/109/89 90/112/90 106/130/106 98/122/98
f 99/123/99 98/122/98 104/128/104 103/127/103
f 100/124/100 99/123/99 103/127/103 101/125/101
f 94/117/94 101/125/101 103/127/103 95/119/95
f 2/2/2 1/1/1 101/125/101 94/117/94
f 58/77/58 55/284/55 78/154/78 63/74/63
f 54/62/54 71/87/71 78/94/78 55/63/55
f 18/22/18 53/65/53 56/64/56 17/19/17
f 18/24/18 19/23/19 52/281/52 53/285/53
f 27/33/27 31/37/31 32/38/32 28/34/28
f 217/286/217 13/15/13 20/25/20 216/283/216
f 218/287/218 219/288/219 15/26/15 9/11/9
f 220/289/220 12/14/12 15/17/15 219/290/219
f 221/291/221 222/292/222 220/289/220 219/290/219
f 223/293/223 218/287/218 220/289/220 222/292/222
f 9/11/9 12/14/12 220/289/220 218/287/218
f 224/294/224 225/295/225 223/293/223 222/292/222
f 226/296/226 221/297/221 223/293/223 225/295/225
f 219/288/219 218/287/218 223/293/223 221/297/221
f 5/5/5 6/6/6 226/296/226 225/295/225
f 7/7/7 224/294/224 226/298/226 6/8/6
f 222/292/222 221/291/221 226/298/226 224/294/224
f 7/7/7 5/5/5 225/295/225 224/294/224
f 217/286/217 214/280/214 14/16/14 13/15/13
f 100/124/100 97/121/97 8/10/8 96/120/96
f 213/279/213 214/280/214 217/286/217 216/283/216
f 202/264/202 25/31/25 24/30/24 47/55/47
f 186/241/186 31/37/31 30/36/30 182/237/182
f 134/172/134 35/43/35 33/42/33 136/175/136
f 172/220/172 152/193/152 160/202/160 168/213/168
f 157/198/157 152/193/152 172/220/172 158/199/158
f 93/116/93 92/115/92 3/9/3 2/299/2
f 195/254/195 41/49/41 38/46/38 37/45/37
f 75/91/75 74/90/74 79/300/79 76/92/76
