# split from a merged terrain OBJ by scripts/split-terrain-obj-parts.py
o part-048
v 0.677444 0.536313 -0.004145
v 0.679547 0.537831 -0.005167
v 0.681400 0.525462 -0.010508
v 0.679949 0.523245 -0.005809
v 0.683739 0.511255 -0.006007
v 0.689805 0.514817 -0.008020
v 0.711189 0.500104 0.006708
v 0.702676 0.489716 0.009198
v 0.708305 0.491054 -0.003269
v 0.708125 0.503966 -0.001938
v 0.696802 0.500423 -0.007980
v 0.698718 0.491316 -0.006164
v 0.693528 0.489354 0.005873
v 0.686743 0.490589 0.014287
v 0.681412 0.489568 0.009787
v 0.686525 0.489809 0.003793
v 0.682727 0.499102 0.015290
v 0.679511 0.497611 0.006957
v 0.680941 0.494873 0.003191
v 0.692927 0.490695 0.020190
v 0.706808 0.494206 0.016278
v 0.701317 0.499090 0.022065
v 0.706213 0.507023 0.015390
v 0.711229 0.498253 0.013159
v 0.697560 0.494528 0.033376
v 0.692493 0.490567 0.031593
v 0.688675 0.501288 0.022752
v 0.691197 0.496935 0.033726
v 0.695928 0.500098 0.035061
v 0.698121 0.506256 0.025737
v 0.698691 0.515863 0.017644
v 0.706463 0.510205 0.006843
v 0.701824 0.518288 0.006484
v 0.686713 0.514320 0.017909
v 0.684005 0.526500 0.014181
v 0.691908 0.529413 0.013380
v 0.695845 0.529972 0.005319
v 0.690368 0.490166 -0.012243
v 0.695873 0.490836 -0.012677
v 0.690721 0.490217 -0.005210
v 0.694597 0.495192 -0.013672
v 0.682023 0.510700 0.011752
v 0.687471 0.497363 -0.007126
v 0.682271 0.501339 -0.000534
v 0.686258 0.504069 -0.006854
v 0.680335 0.508646 0.002225
v 0.702080 0.510224 -0.002885
v 0.693740 0.507626 -0.007628
v 0.689737 0.494239 -0.013351
v 0.697741 0.517420 -0.003318
v 0.692190 0.528155 -0.003927
v 0.683474 0.540396 -0.002911
v 0.669124 0.564155 -0.013646
v 0.670100 0.560993 -0.016154
v 0.670831 0.565488 -0.021620
v 0.668413 0.569286 -0.018679
v 0.668297 0.558208 -0.018010
v 0.667862 0.560927 -0.021877
v 0.669682 0.572320 -0.022556
v 0.672571 0.569005 -0.024898
v 0.663696 0.568737 -0.019867
v 0.666421 0.571925 -0.025468
v 0.665032 0.564782 -0.013110
v 0.661055 0.562287 -0.013825
v 0.659277 0.564111 -0.021579
v 0.664327 0.557095 -0.022076
v 0.660241 0.557937 -0.014968
v 0.658318 0.558749 -0.018716
v 0.690056 0.490110 -0.019326
v 0.694023 0.489660 -0.018181
v 0.691328 0.492827 -0.018688
v 0.665374 0.555184 -0.018403
v 0.662170 0.554010 -0.016681
v 0.661531 0.554925 -0.020310
v 0.668069 0.552037 -0.013476
v 0.665290 0.551950 -0.011662
v 0.664321 0.554633 -0.009080
v 0.669540 0.546569 -0.005727
v 0.669402 0.548342 -0.003144
v 0.670740 0.550828 -0.001318
v 0.665284 0.557336 -0.007599
v 0.673321 0.552693 -0.001328
v 0.667898 0.559381 -0.007271
v 0.675431 0.552399 -0.003823
v 0.670709 0.558896 -0.009099
v 0.675711 0.550429 -0.006860
v 0.671469 0.556463 -0.011645
v 0.674234 0.548031 -0.008753
v 0.670470 0.554002 -0.013404
v 0.671767 0.546541 -0.008271
v 0.675529 0.535940 -0.000163
v 0.678401 0.521960 0.000996
v 0.679150 0.523169 0.008751
v 0.675390 0.537522 0.004000
v 0.678171 0.540525 0.006582
v 0.682100 0.543038 0.006056
v 0.684282 0.542686 0.002009
v 0.694057 0.493449 -0.018212
v 0.691264 0.493776 0.044257
v 0.694208 0.496011 0.044893
v 0.695198 0.492518 0.044284
v 0.693943 0.493869 0.049938
v 0.694431 0.491852 0.049230
v 0.692739 0.490236 0.048898
v 0.692347 0.490527 0.043678
v 0.691519 0.492364 0.049309
vt 0.919024 0.018678
vt 0.918535 0.016872
vt 0.926472 0.015277
vt 0.927105 0.018344
vt 0.934282 0.018080
vt 0.934567 0.014085
vt 0.044311 0.699836
vt 0.041834 0.706609
vt 0.038840 0.699825
vt 0.043178 0.695066
vt 0.037701 0.692657
vt 0.035122 0.698464
vt 0.037984 0.709775
vt 0.971509 0.195524
vt 0.971450 0.202876
vt 0.969100 0.200398
vt 0.968814 0.194443
vt 0.967430 0.206495
vt 0.966296 0.200383
vt 0.966271 0.196980
vt 0.049172 0.711128
vt 0.047038 0.705104
vt 0.053731 0.704769
vt 0.051475 0.698833
vt 0.046770 0.701595
vt 0.058294 0.709680
vt 0.055823 0.712738
vt 0.044401 0.713904
vt 0.974195 0.207759
vt 0.970102 0.212751
vt 0.978582 0.215507
vt 0.980227 0.213141
vt 0.060827 0.707060
vt 0.058868 0.700908
vt 0.056859 0.694102
vt 0.048651 0.694650
vt 0.050521 0.690225
vt 0.970023 0.218746
vt 0.961985 0.222090
vt 0.960685 0.217169
vt 0.952448 0.223092
vt 0.951969 0.227540
vt 0.052833 0.683877
vt 0.057480 0.685503
vt 0.968000 0.183435
vt 0.970116 0.181612
vt 0.971382 0.186216
vt 0.968563 0.188182
vt 0.032836 0.694028
vt 0.032101 0.697138
vt 0.978303 0.218162
vt 0.961192 0.212114
vt 0.941820 0.015789
vt 0.943802 0.023001
vt 0.940035 0.021248
vt 0.938574 0.017326
vt 0.941910 0.025408
vt 0.935598 0.023127
vt 0.043567 0.690481
vt 0.965322 0.188343
vt 0.939471 0.013049
vt 0.944107 0.012050
vt 0.949079 0.011983
vt 0.947340 0.015010
vt 0.965620 0.183467
vt 0.038044 0.688116
vt 0.045011 0.686348
vt 0.040104 0.683583
vt 0.042681 0.675933
vt 0.048399 0.680272
vt 0.052429 0.672931
vt 0.049850 0.671381
vt 0.058743 0.657226
vt 0.056631 0.657376
vt 0.055383 0.654201
vt 0.058977 0.653899
vt 0.902506 0.013480
vt 0.898901 0.013227
vt 0.897191 0.011816
vt 0.901714 0.012095
vt 0.059304 0.651756
vt 0.057961 0.651438
vt 0.892541 0.013118
vt 0.892571 0.010360
vt 0.059091 0.647250
vt 0.061981 0.651016
vt 0.060607 0.656791
vt 0.899251 0.019302
vt 0.896998 0.020484
vt 0.897843 0.016081
vt 0.899866 0.014635
vt 0.901161 0.018308
vt 0.900200 0.016831
vt 0.967026 0.178520
vt 0.969007 0.178618
vt 0.950580 0.012691
vt 0.952036 0.012379
vt 0.949573 0.015788
vt 0.903335 0.014960
vt 0.903168 0.016821
vt 0.901498 0.015803
vt 0.906828 0.015689
vt 0.906339 0.017798
vt 0.905540 0.020038
vt 0.911200 0.019785
vt 0.910767 0.021706
vt 0.909959 0.023668
vt 0.904515 0.021373
vt 0.908924 0.025343
vt 0.903450 0.022516
vt 0.056998 0.666394
vt 0.057457 0.660986
vt 0.059198 0.660745
vt 0.059038 0.666146
vt 0.054835 0.666026
vt 0.055594 0.661066
vt 0.052878 0.665429
vt 0.053915 0.660791
vt 0.055016 0.657318
vt 0.911442 0.017655
vt 0.906964 0.013563
vt 0.911485 0.015801
vt 0.918944 0.021676
vt 0.927566 0.022529
vt 0.927012 0.027136
vt 0.918352 0.024741
vt 0.925817 0.031927
vt 0.917228 0.027897
vt 0.058416 0.674677
vt 0.060321 0.676744
vt 0.060461 0.683468
vt 0.915596 0.030123
vt 0.055636 0.674099
vt 0.934362 0.028677
vt 0.932748 0.033807
vt 0.950294 0.012207
vt 0.940951 0.031398
vt 0.951652 0.011081
vt 0.950440 0.009190
vt 0.984752 0.220217
vt 0.984367 0.222045
vt 0.984875 0.223719
vt 0.978809 0.221811
vt 0.062279 0.718959
vt 0.061564 0.718723
vt 0.061289 0.716617
vt 0.062777 0.717019
vt 0.060856 0.719226
vt 0.059859 0.717096
vt 0.987985 0.222182
vt 0.985588 0.219038
vt 0.988713 0.221273
vt 0.987942 0.223535
vt 0.061856 0.719859
vn -0.7395 -0.3052 -0.6000
vn 0.0888 0.0396 -0.9953
vn -0.2275 0.0670 -0.9715
vn -0.8096 -0.2078 -0.5490
vn -0.6624 -0.1971 -0.7228
vn 0.0996 0.0114 -0.9950
vn 0.9999 -0.0114 0.0005
vn 0.4167 -0.9024 0.1097
vn 0.6553 -0.5888 -0.4731
vn 0.8169 0.2119 -0.5364
vn 0.3059 0.2492 -0.9189
vn 0.4429 -0.7402 -0.5059
vn 0.0174 -0.9998 -0.0100
vn -0.4384 -0.7917 0.4253
vn -0.6700 -0.7243 0.1629
vn -0.3586 -0.9068 -0.2218
vn -0.8332 -0.1104 0.5419
vn -0.9858 -0.1670 0.0147
vn -0.8168 -0.3793 -0.4348
vn -0.1679 -0.9146 0.3679
vn 0.6816 -0.5317 0.5027
vn 0.8012 -0.2238 0.5549
vn 0.8145 0.3573 0.4570
vn 0.9420 -0.1632 0.2932
vn 0.9173 -0.3641 0.1615
vn -0.2908 -0.9567 -0.0153
vn -0.7795 0.1350 0.6116
vn -0.9371 0.2929 0.1898
vn 0.3050 0.7945 0.5250
vn 0.3340 0.5470 0.7677
vn 0.4733 0.4957 0.7282
vn 0.8556 0.5172 -0.0205
vn 0.8642 0.5027 -0.0211
vn -0.4999 0.2379 0.8328
vn -0.4213 0.2193 0.8800
vn 0.4001 0.5365 0.7430
vn 0.8237 0.5669 -0.0073
vn -0.6091 -0.7929 -0.0192
vn 0.7424 -0.6294 -0.2295
vn -0.3714 -0.9102 -0.1835
vn 0.4853 0.6697 -0.5621
vn -0.9070 0.0188 0.4207
vn -0.7209 -0.0735 -0.6891
vn -0.8699 -0.1158 -0.4795
vn -0.5209 -0.0826 -0.8496
vn -0.9839 -0.1051 -0.1444
vn 0.6536 0.3740 -0.6580
vn 0.1619 0.1108 -0.9806
vn -0.8201 0.4503 -0.3530
vn 0.6717 0.3247 -0.6659
vn 0.6397 0.3927 -0.6607
vn 0.6660 0.4224 -0.6148
vn 0.6396 0.6207 0.4535
vn 0.9893 -0.0090 -0.1458
vn 0.8479 -0.2773 -0.4518
vn 0.3847 0.7086 0.5916
vn 0.7492 -0.4387 -0.4963
vn 0.4418 -0.3303 -0.8341
vn 0.4083 0.8850 0.2236
vn 0.8253 -0.0996 -0.5558
vn -0.5774 0.7964 -0.1799
vn -0.3601 0.5893 -0.7232
vn -0.2599 0.7257 0.6371
vn -0.7583 0.3888 0.5234
vn -0.7277 0.3960 -0.5600
vn 0.1402 -0.4650 -0.8741
vn -0.9063 -0.2134 0.3648
vn -0.9661 -0.1985 -0.1652
vn -0.5345 -0.5636 -0.6298
vn 0.5653 -0.6340 -0.5276
vn -0.4316 0.4692 -0.7705
vn 0.3694 -0.7679 -0.5233
vn -0.4953 -0.8638 -0.0924
vn -0.4021 -0.7690 -0.4970
vn 0.1005 -0.7456 -0.6587
vn -0.6353 -0.7657 -0.1008
vn -0.8544 -0.2546 0.4530
vn -0.7917 -0.5985 -0.1228
vn -0.8610 -0.2274 0.4550
vn -0.5638 0.2358 0.7915
vn -0.6495 0.2452 0.7198
vn 0.1251 0.6939 0.7092
vn -0.0369 0.6767 0.7353
vn 0.7356 0.6733 0.0752
vn 0.7311 0.6320 0.2569
vn 0.8092 0.3023 -0.5037
vn 0.9249 0.1812 -0.3344
vn 0.4540 -0.2017 -0.8679
vn 0.6716 -0.2918 -0.6811
vn -0.2460 -0.6309 -0.7358
vn -0.9313 -0.3469 -0.1111
vn -0.9743 -0.1970 -0.1090
vn -0.9038 -0.0805 0.4203
vn -0.8826 -0.1303 0.4518
vn -0.4658 0.2689 0.8431
vn 0.2664 0.6668 0.6960
vn 0.7394 0.6732 0.0078
vn 0.4943 0.5642 -0.6613
vn -0.9512 0.2769 0.1360
vn 0.2874 0.8705 0.3995
vn 0.9304 -0.3514 0.1046
vn 0.2504 0.5445 0.8005
vn 0.7134 -0.3787 0.5896
vn -0.1743 -0.8818 0.4382
vn -0.3179 -0.9472 -0.0418
vn -0.7846 0.0558 0.6174
f 1/1/1 2/2/2 3/3/3 4/4/4
f 5/5/5 4/4/4 3/3/3 6/6/6
f 7/7/7 8/8/8 9/9/9 10/10/10
f 11/11/11 10/10/10 9/9/9 12/12/12
f 13/13/13 12/12/12 9/9/9 8/8/8
f 13/14/13 14/15/14 15/16/15 16/17/16
f 17/18/17 18/19/18 15/16/15 14/15/14
f 19/20/19 16/17/16 15/16/15 18/19/18
f 20/21/20 8/8/8 21/22/21 22/23/22
f 23/24/23 22/23/22 21/22/21 24/25/24
f 7/7/7 24/25/24 21/22/21 8/8/8
f 25/26/25 26/27/26 20/21/20 22/23/22
f 13/13/13 8/8/8 20/21/20 14/28/14
f 17/18/17 14/15/14 20/29/20 27/30/27
f 28/31/28 27/30/27 20/29/20 26/32/26
f 29/33/29 25/26/25 22/23/22 30/34/30
f 31/35/31 30/34/30 22/23/22 23/24/23
f 32/36/32 23/24/23 24/25/24 7/7/7
f 32/36/32 33/37/33 31/35/31 23/24/23
f 27/30/27 30/38/30 31/39/31 34/40/34
f 35/41/35 34/40/34 31/39/31 36/42/36
f 37/43/37 36/44/36 31/35/31 33/37/33
f 38/45/38 39/46/39 12/47/12 40/48/40
f 16/17/16 40/48/40 12/47/12 13/14/13
f 41/49/41 11/11/11 12/12/12 39/50/39
f 29/51/29 30/38/30 27/30/27 28/31/28
f 42/52/42 17/18/17 27/30/27 34/40/34
f 43/53/43 19/54/19 44/55/44 45/56/45
f 18/57/18 46/58/46 44/55/44 19/54/19
f 5/5/5 45/56/45 44/55/44 46/58/46
f 32/36/32 7/7/7 10/10/10 47/59/47
f 16/17/16 19/20/19 43/60/43 40/48/40
f 48/61/48 11/62/11 43/53/43 45/56/45
f 41/63/41 49/64/49 43/53/43 11/62/11
f 38/45/38 40/48/40 43/60/43 49/65/49
f 47/59/47 10/10/10 11/11/11 48/66/48
f 50/67/50 6/68/6 3/69/3 51/70/51
f 52/71/52 51/70/51 3/69/3 2/72/2
f 53/73/53 54/74/54 55/75/55 56/76/56
f 57/77/57 58/78/58 55/79/55 54/80/54
f 59/81/59 56/76/56 55/75/55 60/82/60
f 61/83/61 62/84/62 55/79/55 58/78/58
f 59/81/59 62/85/62 61/86/61 56/76/56
f 53/73/53 56/76/56 61/86/61 63/87/63
f 64/88/64 63/89/63 61/83/61 65/90/65
f 66/91/66 65/90/65 61/83/61 58/78/58
f 67/92/67 64/88/64 65/90/65 68/93/68
f 39/46/39 38/45/38 69/94/69 70/95/70
f 49/64/49 71/96/71 69/97/69 38/98/38
f 72/99/72 73/100/73 74/101/74 66/91/66
f 67/92/67 68/93/68 74/101/74 73/100/73
f 75/102/75 76/103/76 73/100/73 72/99/72
f 77/104/77 67/92/67 73/100/73 76/103/76
f 78/105/78 79/106/79 77/104/77 76/103/76
f 80/107/80 81/108/81 77/104/77 79/106/79
f 64/88/64 67/92/67 77/104/77 81/108/81
f 82/109/82 83/110/83 81/108/81 80/107/80
f 63/89/63 64/88/64 81/108/81 83/110/83
f 84/111/84 85/112/85 83/113/83 82/114/82
f 53/73/53 63/87/63 83/113/83 85/112/85
f 86/115/86 87/116/87 85/112/85 84/111/84
f 54/74/54 53/73/53 85/112/85 87/116/87
f 88/117/88 89/118/89 87/116/87 86/115/86
f 57/119/57 54/74/54 87/116/87 89/118/89
f 90/120/90 75/102/75 89/121/89 88/122/88
f 72/99/72 57/77/57 89/121/89 75/102/75
f 2/2/2 1/1/1 90/120/90 88/122/88
f 91/123/91 78/105/78 90/120/90 1/1/1
f 76/103/76 75/102/75 90/120/90 78/105/78
f 4/4/4 92/124/92 91/123/91 1/1/1
f 93/125/93 94/126/94 91/123/91 92/124/92
f 79/106/79 78/105/78 91/123/91 94/126/94
f 35/127/35 95/128/95 94/126/94 93/125/93
f 80/107/80 79/106/79 94/126/94 95/128/95
f 36/44/36 96/129/96 95/130/95 35/131/35
f 82/109/82 80/107/80 95/128/95 96/132/96
f 37/43/37 97/133/97 96/129/96 36/44/36
f 84/111/84 82/114/82 96/129/96 97/133/97
f 51/70/51 52/71/52 97/133/97 37/43/37
f 86/115/86 84/111/84 97/133/97 52/71/52
f 46/58/46 42/134/42 93/125/93 92/124/92
f 34/135/34 35/127/35 93/125/93 42/134/42
f 5/5/5 46/58/46 92/124/92 4/4/4
f 52/71/52 2/72/2 88/117/88 86/115/86
f 58/78/58 57/77/57 72/99/72 66/91/66
f 32/36/32 47/59/47 50/67/50 33/37/33
f 48/66/48 6/68/6 50/67/50 47/59/47
f 37/43/37 33/37/33 50/67/50 51/70/51
f 98/136/98 71/96/71 49/64/49 41/63/41
f 5/5/5 6/6/6 48/61/48 45/56/45
f 17/137/17 42/134/42 46/58/46 18/57/18
f 70/138/70 98/136/98 41/63/41 39/139/39
f 99/140/99 100/141/100 29/51/29 28/31/28
f 101/142/101 25/143/25 29/51/29 100/141/100
f 102/144/102 103/145/103 101/146/101 100/147/100
f 104/148/104 105/149/105 101/146/101 103/145/103
f 26/27/26 25/26/25 101/146/101 105/149/105
f 106/150/106 99/140/99 105/151/105 104/152/104
f 28/31/28 26/32/26 105/151/105 99/140/99
f 106/150/106 102/153/102 100/141/100 99/140/99
f 104/148/104 103/145/103 102/144/102 106/154/106
f 98/136/98 70/138/70 69/97/69 71/96/71
f 74/101/74 68/93/68 65/90/65 66/91/66
f 62/85/62 60/82/60 55/75/55
f 62/85/62 59/81/59 60/82/60
