# split from a merged terrain OBJ by scripts/split-terrain-obj-parts.py
o part-067
v -0.919071 0.948885 0.003557
v -0.918127 0.951374 0.003191
v -0.916977 0.950609 0.005531
v -0.918248 0.949112 0.006679
v -0.920170 0.952708 0.004190
v -0.918787 0.951799 0.006592
v -0.917949 0.950339 0.008258
v -0.921934 0.951942 0.007351
v -0.921265 0.950318 0.009520
v -0.921437 0.948151 0.007826
v -0.922253 0.952852 0.005230
v -0.921920 0.953422 0.002101
v -0.924097 0.952982 0.004009
v -0.924794 0.951937 0.006411
v -0.925046 0.948920 -0.003303
v -0.926325 0.950152 -0.002702
v -0.925371 0.952137 -0.004044
v -0.923596 0.951522 -0.003651
v -0.927952 0.952699 -0.002091
v -0.926464 0.953984 -0.004082
v -0.923992 0.953392 -0.002554
v -0.921351 0.949680 -0.002194
v -0.923986 0.948142 -0.000997
v -0.926469 0.948680 -0.000352
v -0.925747 0.953809 -0.000591
v -0.924792 0.950571 0.009164
v -0.927556 0.950674 0.007546
v -0.927275 0.948859 0.007836
v -0.924649 0.947921 0.008360
v -0.925103 0.947635 0.005375
v -0.927720 0.948756 0.005577
v -0.929163 0.949690 0.005710
v -0.927024 0.951935 0.004985
v -0.928710 0.951062 0.003680
v -0.928123 0.949443 0.002927
v -0.927641 0.952955 0.001492
v -0.928452 0.950619 0.000105
v -0.925753 0.947831 0.002485
v -0.922856 0.947705 0.001760
v -0.921964 0.947435 0.004729
v -0.920035 0.949219 0.000593
v -0.921556 0.952894 -0.001371
v -0.919502 0.952143 0.000394
v -0.923944 0.953700 0.000690
v -0.925901 0.952984 0.002682
vt 0.318062 0.020812
vt 0.318464 0.019358
vt 0.319411 0.020054
vt 0.319656 0.021055
vt 0.319683 0.018316
vt 0.320339 0.019445
vt 0.320455 0.020476
vt 0.321796 0.019265
vt 0.321895 0.020781
vt 0.320850 0.022112
vt 0.320984 0.017906
vt 0.319325 0.017110
vt 0.321258 0.016823
vt 0.322558 0.018436
vt 0.119157 0.023356
vt 0.118500 0.023879
vt 0.117750 0.022587
vt 0.118068 0.021834
vt 0.117110 0.023944
vt 0.116922 0.022866
vt 0.116726 0.021601
vt 0.119455 0.021349
vt 0.120409 0.023934
vt 0.119379 0.025129
vt 0.115389 0.023613
vt 0.116746 0.031203
vt 0.116219 0.029430
vt 0.117528 0.029635
vt 0.119103 0.030444
vt 0.119371 0.028638
vt 0.117907 0.028381
vt 0.117079 0.028234
vt 0.115658 0.027780
vt 0.116725 0.026994
vt 0.117848 0.026831
vt 0.115831 0.025399
vt 0.117560 0.025319
vt 0.119509 0.026900
vt 0.315686 0.023786
vt 0.317012 0.023551
vt 0.318286 0.025018
vt 0.316380 0.025223
vt 0.318589 0.023064
vt 0.320127 0.024200
vt 0.321826 0.023012
vt 0.316364 0.020088
vt 0.121323 0.021794
vt 0.121821 0.023126
vt 0.316756 0.017158
vt 0.317492 0.018269
vt 0.315400 0.018553
vt 0.319144 0.015964
vt 0.321614 0.015685
vt 0.115206 0.022116
vt 0.116784 0.019930
vt 0.321274 0.014723
vt 0.319285 0.014755
vt 0.323025 0.017411
vt 0.114924 0.026286
vt 0.323854 0.021089
vt 0.324066 0.018945
vn 0.6429 -0.7269 -0.2412
vn 0.9104 0.3180 -0.2646
vn 0.9912 0.1169 -0.0613
vn 0.7342 -0.6277 0.2585
vn 0.3335 0.9359 0.1134
vn 0.4964 0.7964 0.3454
vn 0.6525 0.0940 0.7519
vn 0.0335 0.8842 0.4659
vn 0.1869 0.1517 0.9706
vn 0.2130 -0.8429 0.4941
vn 0.0126 0.9541 0.2993
vn 0.2150 0.9755 0.0478
vn -0.1077 0.9552 0.2756
vn -0.1778 0.8942 0.4110
vn -0.1308 -0.6701 -0.7306
vn -0.5557 -0.5014 -0.6632
vn -0.0956 0.0053 -0.9954
vn 0.3716 0.0040 -0.9284
vn -0.8467 0.3450 -0.4050
vn -0.3022 0.6425 -0.7042
vn 0.3356 0.8233 -0.4579
vn 0.6197 -0.3885 -0.6820
vn 0.0284 -0.9161 -0.3999
vn -0.5335 -0.7990 -0.2775
vn -0.2185 0.9731 0.0737
vn -0.2119 0.3414 0.9157
vn -0.6308 0.3841 0.6742
vn -0.5511 -0.5729 0.6067
vn -0.1825 -0.7605 0.6232
vn -0.2194 -0.9744 0.0499
vn -0.6458 -0.7570 0.0992
vn -0.9780 -0.0541 0.2014
vn -0.4128 0.8482 0.3319
vn -0.9379 0.3391 0.0736
vn -0.8078 -0.5709 -0.1463
vn -0.6624 0.7356 0.1419
vn -0.9524 -0.1873 -0.2405
vn -0.3410 -0.9338 -0.1084
vn 0.1410 -0.9713 -0.1915
vn 0.1936 -0.9810 -0.0108
vn 0.6915 -0.5818 -0.4283
vn 0.5777 0.6675 -0.4698
vn 0.7993 0.4624 -0.3837
vn 0.0725 0.9955 0.0618
vn -0.2326 0.9325 0.2762
f 1/1/1 2/2/2 3/3/3 4/4/4
f 5/5/5 6/6/6 3/3/3 2/2/2
f 7/7/7 4/4/4 3/3/3 6/6/6
f 8/8/8 9/9/9 7/7/7 6/6/6
f 10/10/10 4/4/4 7/7/7 9/9/9
f 6/6/6 5/5/5 11/11/11 8/8/8
f 12/12/12 13/13/13 11/11/11 5/5/5
f 14/14/14 8/8/8 11/11/11 13/13/13
f 15/15/15 16/16/16 17/17/17 18/18/18
f 19/19/19 20/20/20 17/17/17 16/16/16
f 21/21/21 18/18/18 17/17/17 20/20/20
f 22/22/22 23/23/23 15/15/15 18/18/18
f 24/24/24 16/16/16 15/15/15 23/23/23
f 25/25/25 21/21/21 20/20/20 19/19/19
f 26/26/26 27/27/27 28/28/28 29/29/29
f 30/30/30 29/29/29 28/28/28 31/31/31
f 32/32/32 31/31/31 28/28/28 27/27/27
f 33/33/33 34/34/34 32/32/32 27/27/27
f 35/35/35 31/31/31 32/32/32 34/34/34
f 36/36/36 37/37/37 35/35/35 34/34/34
f 24/24/24 38/38/38 35/35/35 37/37/37
f 30/30/30 31/31/31 35/35/35 38/38/38
f 23/39/23 39/40/39 38/41/38 24/42/24
f 40/43/40 30/44/30 38/41/38 39/40/39
f 29/45/29 30/44/30 40/43/40 10/10/10
f 41/46/41 1/1/1 40/43/40 39/40/39
f 4/4/4 10/10/10 40/43/40 1/1/1
f 23/23/23 22/22/22 41/47/41 39/48/39
f 42/49/42 43/50/43 41/46/41 22/51/22
f 2/2/2 1/1/1 41/46/41 43/50/43
f 44/52/44 12/12/12 43/50/43 42/49/42
f 5/5/5 2/2/2 43/50/43 12/12/12
f 13/13/13 12/12/12 44/52/44 45/53/45
f 21/21/21 25/25/25 44/54/44 42/55/42
f 36/56/36 45/53/45 44/52/44 25/57/25
f 14/14/14 13/13/13 45/53/45 33/58/33
f 34/34/34 33/33/33 45/59/45 36/36/36
f 18/18/18 21/21/21 42/55/42 22/22/22
f 25/25/25 19/19/19 37/37/37 36/36/36
f 16/16/16 24/24/24 37/37/37 19/19/19
f 26/60/26 14/14/14 33/58/33 27/61/27
f 10/10/10 9/9/9 26/60/26 29/45/29
f 8/8/8 14/14/14 26/60/26 9/9/9
