# split from a merged terrain OBJ by scripts/split-terrain-obj-parts.py
o part-009
v -0.599491 1.023761 0.002850
v -0.600068 1.022603 0.017758
v -0.595631 1.011407 0.017054
v -0.599268 1.015524 0.000650
v -0.600928 1.004429 0.038493
v -0.590469 1.003214 0.024792
v -0.605704 1.010821 0.033720
v -0.609213 1.019415 0.031283
v -0.599399 1.007914 -0.000864
v -0.588122 1.006947 0.007054
v -0.579797 1.004396 0.014202
v -0.608183 1.024773 -0.003885
v -0.610663 1.032535 -0.000054
v -0.603191 1.030620 0.005167
v -0.607745 1.030225 0.015642
v -0.617134 1.032409 0.009083
v -0.561647 0.998439 -0.002652
v -0.559564 0.998894 -0.012417
v -0.561901 1.004088 -0.011253
v -0.565674 1.005469 -0.003358
v -0.575419 1.006724 -0.008937
v -0.569045 1.006335 -0.016844
v -0.565786 1.000494 -0.021275
v -0.581441 1.006039 -0.000243
v -0.601421 1.008771 -0.007129
v -0.606578 1.016899 -0.005287
v -0.605569 1.009035 -0.028041
v -0.614047 1.010378 -0.018645
v -0.589444 1.008042 -0.017107
v -0.618434 1.017921 -0.013648
v -0.556894 0.958336 -0.014225
v -0.556242 0.953927 -0.014137
v -0.555643 0.955886 -0.018046
v -0.555749 0.958125 -0.019495
v -0.559345 0.957132 -0.023669
v -0.559871 0.953581 -0.022910
v -0.560845 0.949241 -0.018924
v -0.560912 0.960558 -0.018630
v -0.560305 0.957507 -0.006757
v -0.563817 0.959135 -0.008709
v -0.564822 0.962957 -0.008837
v -0.562163 0.964263 -0.018043
v -0.565606 0.957231 -0.029288
v -0.567302 0.960350 -0.026092
v -0.568416 0.965100 -0.024169
v -0.615116 1.026752 0.027602
v -0.618732 1.026946 0.041339
v -0.610783 1.017273 0.044729
v -0.616774 1.013765 0.051231
v -0.619341 1.018994 0.050009
v -0.633488 1.028603 0.035659
v -0.625355 1.026189 0.043532
v -0.629028 1.029640 0.030124
v -0.623811 1.030941 0.020518
v -0.609279 1.005362 0.049105
v -0.609153 0.999634 0.055004
v -0.596089 0.998996 0.043480
v -0.613498 0.983729 0.064624
v -0.604997 0.987161 0.056322
v -0.615103 0.991882 0.063426
v -0.594893 0.988526 0.045204
v -0.616779 1.004377 0.049818
v -0.619560 1.001237 0.053948
v -0.623437 0.994012 0.059671
v -0.624074 0.985768 0.060278
v -0.654588 1.029182 -0.036858
v -0.663661 1.028987 -0.041144
v -0.662399 1.036043 -0.040070
v -0.656207 1.036183 -0.033462
v -0.661837 1.036097 -0.027280
v -0.668837 1.036272 -0.033128
v -0.671675 1.029100 -0.035905
v -0.623098 0.943940 0.058607
v -0.620479 0.938536 0.055102
v -0.612931 0.940719 0.056932
v -0.612709 0.944883 0.059483
v -0.605084 0.947007 0.052885
v -0.607109 0.940789 0.051392
v -0.614123 0.937172 0.047784
v -0.676599 1.032211 -0.001871
v -0.684584 1.031612 -0.006364
v -0.686725 1.029328 0.001159
v -0.680003 1.029154 0.004974
v -0.687279 1.024810 -0.009046
v -0.687088 1.022785 -0.000683
v -0.680940 1.021897 0.004726
v -0.644380 1.011054 -0.052380
v -0.650778 1.008803 -0.057691
v -0.660053 1.010871 -0.046694
v -0.651168 1.012144 -0.043145
v -0.654236 1.020625 -0.038396
v -0.663046 1.020919 -0.042116
v -0.653079 1.000667 -0.061120
v -0.661492 1.000662 -0.051143
v -0.671089 1.020805 -0.036618
v -0.669775 1.011602 -0.037949
v -0.670049 1.001677 -0.040958
v -0.640649 0.959288 -0.082637
v -0.636795 0.962225 -0.081765
v -0.633661 0.957222 -0.084099
v -0.636878 0.953030 -0.082695
v -0.629677 0.948299 -0.077697
v -0.626537 0.954371 -0.080161
v -0.626941 0.960956 -0.078804
v -0.645007 0.963541 -0.078414
v -0.643319 0.963622 -0.076097
v -0.629213 0.965783 -0.077014
v -0.637160 0.967098 -0.079969
v -0.642688 0.967147 -0.074258
v -0.653521 0.962249 -0.071357
v -0.647282 0.961157 -0.079194
v -0.653487 0.956979 -0.073298
v -0.651527 0.950200 -0.074592
v -0.644650 0.955276 -0.079990
v -0.627142 0.938351 0.023468
v -0.635828 0.938759 0.030374
v -0.651831 0.940312 0.014454
v -0.640852 0.939545 0.005774
v -0.672093 0.939927 0.003742
v -0.663768 0.939646 -0.002880
v -0.663915 0.938378 0.014852
v -0.653062 0.940448 -0.012971
v -0.640805 0.942177 0.036656
v -0.654203 0.946135 0.023314
v -0.665846 0.943529 0.017088
v -0.676867 0.942551 0.008333
v -0.687198 0.965789 -0.000011
v -0.693973 0.965948 -0.006644
v -0.694791 0.959972 -0.008391
v -0.686804 0.960169 -0.000699
v -0.691893 0.966760 -0.015303
v -0.691502 0.960618 -0.016748
v -0.696056 0.959185 -0.021262
v -0.701755 0.958236 -0.016171
v -0.705596 0.957251 -0.012703
v -0.697730 0.957109 -0.004970
v -0.688786 0.957233 0.001824
v -0.703854 0.953264 -0.018549
v -0.706949 0.951936 -0.011627
v -0.699089 0.952139 -0.003132
v -0.694767 0.940739 -0.019506
v -0.700889 0.941486 -0.013489
v -0.704120 0.941605 -0.018408
v -0.698625 0.942535 -0.024051
v -0.698874 0.948622 -0.024433
v -0.704187 0.947409 -0.018077
v -0.704588 0.945969 -0.010517
v -0.631264 1.005139 -0.076490
v -0.640879 1.003724 -0.074185
v -0.642128 1.012318 -0.071152
v -0.633539 1.011292 -0.069097
v -0.646657 1.001884 -0.068622
v -0.645882 1.009953 -0.065300
v -0.638007 1.011770 -0.060733
v -0.634651 1.010599 -0.046364
v -0.627741 1.011315 -0.055495
v -0.622133 1.011352 -0.064622
v -0.615849 1.010460 -0.047661
v -0.609627 1.009017 -0.055786
v -0.608134 1.001913 -0.059031
v -0.619603 1.004107 -0.070014
v -0.608482 0.993061 -0.060119
v -0.619689 0.995262 -0.070748
v -0.630047 0.996424 -0.078432
v -0.620193 0.986643 -0.071089
v -0.629198 0.987809 -0.078436
v -0.638588 0.987486 -0.078545
v -0.639587 0.995504 -0.076906
v -0.644831 0.985582 -0.071680
v -0.645804 0.993199 -0.070444
v -0.651326 0.983620 -0.063873
v -0.652324 0.991389 -0.062577
v -0.659829 0.983123 -0.053702
v -0.660733 0.990889 -0.052552
v -0.668621 0.982910 -0.043233
v -0.669390 0.990637 -0.042281
v -0.676998 0.981867 -0.033244
v -0.677470 0.989023 -0.032665
v -0.678393 1.000954 -0.030985
v -0.685446 0.987903 -0.022958
v -0.685772 0.999545 -0.021739
v -0.681310 1.009430 -0.018923
v -0.676320 1.010553 -0.027865
v -0.682135 1.018185 -0.018613
v -0.677214 1.019796 -0.027423
v -0.682978 1.026626 -0.017909
v -0.677948 1.028229 -0.027158
v -0.680447 1.033416 -0.015255
v -0.674996 1.035055 -0.024656
v -0.672349 1.033937 -0.010739
v -0.667252 1.035244 -0.019650
v -0.663049 1.033657 -0.004273
v -0.658050 1.034818 -0.012686
v -0.652985 1.035500 -0.019655
v -0.647887 1.033788 -0.003629
v -0.642672 1.034508 -0.010777
v -0.637203 1.034516 -0.017623
v -0.647739 1.035537 -0.026141
v -0.634634 1.028148 -0.022111
v -0.645193 1.028893 -0.030034
v -0.633665 1.018454 -0.024023
v -0.644486 1.019190 -0.031993
v -0.629460 1.010121 -0.029363
v -0.641276 1.010498 -0.036991
v -0.622553 1.009765 -0.038907
v -0.598218 1.009178 -0.035927
v -0.581046 1.008077 -0.024713
v -0.576329 1.003610 -0.030103
v -0.592210 1.007767 -0.042381
v -0.575750 0.995275 -0.031971
v -0.591054 0.998904 -0.044321
v -0.576105 0.987037 -0.032844
v -0.591001 0.990017 -0.044848
v -0.576855 0.979998 -0.033171
v -0.591290 0.982213 -0.045105
v -0.608905 0.984739 -0.060434
v -0.591671 0.974727 -0.045234
v -0.609382 0.976982 -0.060292
v -0.620480 0.978530 -0.070552
v -0.609692 0.969675 -0.060037
v -0.620685 0.971097 -0.069887
v -0.629222 0.972434 -0.077597
v -0.629225 0.979686 -0.078194
v -0.637411 0.973153 -0.079604
v -0.637808 0.979886 -0.079308
v -0.643323 0.972801 -0.073401
v -0.644027 0.978933 -0.072600
v -0.650091 0.971727 -0.065366
v -0.650666 0.977633 -0.064670
v -0.658197 0.970547 -0.055654
v -0.659010 0.976726 -0.054695
v -0.667492 0.969402 -0.044615
v -0.668021 0.975910 -0.043959
v -0.676596 0.968209 -0.033710
v -0.676709 0.974896 -0.033582
v -0.684761 0.967232 -0.023981
v -0.685035 0.974057 -0.023616
v -0.685261 0.980994 -0.023259
v -0.692277 0.973842 -0.014477
v -0.692257 0.981363 -0.013872
v -0.692333 0.989246 -0.013741
v -0.694592 0.981757 -0.004520
v -0.694398 0.990477 -0.003682
v -0.691678 1.000401 -0.003431
v -0.691335 0.999745 -0.012766
v -0.686082 1.007562 -0.004483
v -0.684793 1.008457 -0.011249
v -0.686877 1.015153 -0.002604
v -0.685965 1.016751 -0.010216
v -0.680946 1.006845 0.001433
v -0.681007 1.014261 0.002990
v -0.673717 1.006169 0.007462
v -0.673296 1.012983 0.009102
v -0.672940 1.020159 0.010508
v -0.662929 1.011641 0.016441
v -0.662904 1.018785 0.017624
v -0.661749 1.025921 0.017604
v -0.671854 1.027386 0.010351
v -0.657517 1.030941 0.012451
v -0.667878 1.031953 0.004554
v -0.652485 1.032701 0.004555
v -0.644901 1.029142 0.023623
v -0.640147 1.031307 0.016816
v -0.635338 1.032288 0.008868
v -0.629406 1.033209 0.000214
v -0.623623 1.032797 -0.007609
v -0.620106 1.026516 -0.012042
v -0.648288 1.024247 0.027801
v -0.635249 1.022992 0.038588
v -0.648659 1.017142 0.028180
v -0.635553 1.016068 0.038298
v -0.624841 1.014594 0.045835
v -0.624736 1.020252 0.046212
v -0.635059 1.009394 0.037372
v -0.624738 1.008782 0.044804
v -0.616540 1.008939 0.050688
v -0.625015 1.003128 0.044637
v -0.609747 1.010458 0.046396
v -0.639001 1.001469 0.042344
v -0.628512 1.001795 0.049552
v -0.635389 1.003390 0.037604
v -0.641531 0.995843 0.045553
v -0.631706 0.996094 0.053712
v -0.641537 0.987935 0.045918
v -0.632402 0.987832 0.053987
v -0.640892 0.979646 0.045047
v -0.631955 0.979408 0.052897
v -0.623890 0.977745 0.059472
v -0.631213 0.971158 0.051641
v -0.623416 0.969751 0.058094
v -0.613902 0.968694 0.061185
v -0.613695 0.976193 0.063059
v -0.605362 0.977775 0.054787
v -0.606351 0.970305 0.053288
v -0.596208 0.979148 0.044200
v -0.597571 0.971486 0.042901
v -0.614453 0.961690 0.059419
v -0.607489 0.963265 0.051913
v -0.598818 0.964799 0.041544
v -0.587593 0.972511 0.030179
v -0.588605 0.966085 0.028669
v -0.608716 0.957244 0.050946
v -0.599961 0.958538 0.040286
v -0.589656 0.959817 0.027324
v -0.577115 0.967552 0.012767
v -0.578032 0.961275 0.011273
v -0.598415 0.954559 0.041511
v -0.588249 0.955733 0.028051
v -0.576631 0.957038 0.011762
v -0.570487 0.962514 -0.001564
v -0.568625 0.958082 -0.000449
v -0.585949 0.951219 0.029212
v -0.574024 0.953661 0.013198
v -0.565428 0.955156 0.001515
v -0.574520 0.947916 0.011016
v -0.566316 0.949837 -0.000097
v -0.559997 0.951514 -0.007972
v -0.570840 0.945967 -0.004392
v -0.564727 0.946944 -0.012684
v -0.578134 0.944361 -0.010789
v -0.571781 0.944615 -0.018715
v -0.567757 0.947028 -0.024316
v -0.565932 0.951776 -0.028140
v -0.580886 0.941911 -0.027233
v -0.576184 0.944323 -0.033158
v -0.574764 0.950403 -0.036126
v -0.575030 0.957184 -0.037209
v -0.591813 0.943534 -0.047164
v -0.589660 0.950550 -0.049199
v -0.589575 0.957871 -0.049390
v -0.577430 0.960630 -0.034572
v -0.591697 0.961267 -0.046265
v -0.606954 0.952179 -0.063487
v -0.606239 0.958660 -0.063495
v -0.609922 0.963515 -0.059710
v -0.592246 0.967502 -0.045076
v -0.618189 0.959573 -0.072225
v -0.620937 0.964547 -0.069303
v -0.617970 0.952802 -0.072923
v -0.609749 0.946364 -0.061086
v -0.620765 0.946475 -0.070704
v -0.615173 0.943803 -0.055645
v -0.625994 0.944270 -0.064221
v -0.634667 0.945331 -0.071633
v -0.632889 0.943574 -0.056950
v -0.641371 0.944105 -0.064352
v -0.647502 0.944896 -0.071542
v -0.640764 0.948651 -0.078117
v -0.649688 0.943374 -0.056366
v -0.656650 0.944068 -0.062902
v -0.661088 0.947310 -0.065837
v -0.667653 0.943030 -0.049704
v -0.672404 0.945705 -0.053365
v -0.672830 0.952033 -0.052734
v -0.661723 0.953721 -0.064834
v -0.672932 0.958338 -0.051680
v -0.662082 0.959926 -0.063612
v -0.670071 0.961421 -0.048348
v -0.659293 0.962132 -0.059850
v -0.650968 0.962870 -0.068182
v -0.657350 0.964763 -0.056656
v -0.649546 0.966102 -0.066027
v -0.667213 0.963485 -0.045251
v -0.680442 0.960266 -0.037066
v -0.676523 0.962231 -0.033792
v -0.688912 0.959691 -0.028243
v -0.684536 0.961208 -0.024222
v -0.683476 0.956767 -0.040110
v -0.691920 0.955898 -0.031388
v -0.698806 0.954914 -0.024027
v -0.692108 0.949566 -0.031874
v -0.683058 0.944267 -0.040586
v -0.691653 0.943251 -0.031503
v -0.683652 0.950529 -0.040778
v -0.678525 0.941829 -0.036603
v -0.687383 0.941119 -0.026984
v -0.672239 0.941438 -0.030994
v -0.681411 0.940656 -0.020920
v -0.688782 0.940364 -0.013281
v -0.673578 0.940154 -0.013555
v -0.680952 0.939863 -0.005689
v -0.686233 0.941786 0.000138
v -0.694234 0.941664 -0.007146
v -0.688941 0.947137 0.002919
v -0.697473 0.946488 -0.003918
v -0.690066 0.952800 0.003740
v -0.679327 0.947658 0.010519
v -0.680659 0.953277 0.011582
v -0.679113 0.956982 0.008910
v -0.669891 0.953135 0.019704
v -0.668537 0.957357 0.017262
v -0.668273 0.962077 0.015848
v -0.678025 0.960782 0.006973
v -0.669174 0.969012 0.016035
v -0.678605 0.967051 0.007519
v -0.669882 0.976596 0.016996
v -0.679163 0.974770 0.008553
v -0.687563 0.973752 0.001443
v -0.693893 0.973661 -0.005687
v -0.679382 0.983768 0.010074
v -0.687915 0.982434 0.002875
v -0.679269 0.992565 0.011261
v -0.687903 0.991239 0.003962
v -0.677825 1.001057 0.011086
v -0.686219 1.000323 0.004249
v -0.669472 0.994049 0.019449
v -0.667535 1.001684 0.019971
v -0.662791 1.005157 0.015133
v -0.652840 1.001359 0.032067
v -0.648492 1.004360 0.027280
v -0.648241 1.010312 0.027415
v -0.655348 0.994706 0.034201
v -0.670181 0.985476 0.018234
v -0.655847 0.986675 0.033860
v -0.655467 0.978455 0.032624
v -0.654936 0.970657 0.031078
v -0.640300 0.971412 0.043741
v -0.654432 0.963490 0.029580
v -0.639742 0.963732 0.042182
v -0.630202 0.963036 0.050484
v -0.639659 0.957035 0.040886
v -0.629383 0.956072 0.049345
v -0.622162 0.955016 0.055377
v -0.622961 0.962118 0.056553
v -0.615375 0.954965 0.058083
v -0.622990 0.949917 0.057964
v -0.614352 0.951044 0.058464
v -0.606430 0.953063 0.052599
v -0.596946 0.948987 0.042421
v -0.598960 0.942350 0.040935
v -0.587382 0.944694 0.027170
v -0.604702 0.938157 0.037737
v -0.591605 0.939736 0.022934
v -0.578655 0.943619 0.006215
v -0.598977 0.938901 0.016610
v -0.586210 0.942029 -0.000015
v -0.609595 0.939132 0.007752
v -0.596954 0.940326 -0.008894
v -0.587823 0.941289 -0.019760
v -0.610706 0.940980 -0.021420
v -0.602660 0.941817 -0.032669
v -0.596510 0.942593 -0.040822
v -0.621903 0.943016 -0.048245
v -0.629783 0.942488 -0.038659
v -0.641007 0.942835 -0.048489
v -0.640494 0.943309 -0.025916
v -0.651811 0.942148 -0.036779
v -0.660792 0.942572 -0.044086
v -0.663747 0.940953 -0.023744
v -0.623286 0.939937 -0.007089
v -0.613852 0.937593 0.032819
v -0.623621 0.937025 0.041282
v -0.630341 0.939533 0.047229
v -0.633117 0.944812 0.051345
v -0.643641 0.946758 0.041430
v -0.656676 0.948311 0.028858
v -0.632843 0.950390 0.052733
v -0.643455 0.952298 0.043395
v -0.657081 0.953032 0.030621
v -0.668648 0.947946 0.019204
v -0.654120 0.957568 0.028261
v -0.577511 0.973018 -0.033276
v -0.578183 0.966006 -0.033174
v -0.567893 0.971880 -0.023893
v -0.560384 0.977354 -0.015716
v -0.561207 0.970552 -0.016724
v -0.567161 0.978573 -0.023613
v -0.562548 0.976343 -0.006427
v -0.563610 0.969270 -0.007669
v -0.568935 0.975665 0.001166
v -0.569771 0.968844 -0.000374
v -0.576065 0.974097 0.014118
v -0.568401 0.983016 0.002759
v -0.574885 0.981121 0.015383
v -0.586389 0.979642 0.031604
v -0.574209 0.989515 0.016510
v -0.585125 0.988180 0.032541
v -0.574686 0.997881 0.017556
v -0.586198 0.997023 0.030888
v -0.571931 1.004763 0.004909
v -0.567838 0.999004 0.006306
v -0.567848 0.990846 0.004543
v -0.561568 0.991021 -0.003647
v -0.561751 0.983567 -0.005016
v -0.559344 0.991702 -0.013755
v -0.559713 0.984436 -0.014761
v -0.566447 0.985467 -0.023247
v -0.565868 0.992930 -0.022599
vt 0.781410 0.546856
vt 0.788437 0.550282
vt 0.785796 0.556383
vt 0.778394 0.550042
vt 0.798712 0.560491
vt 0.788974 0.562481
vt 0.797598 0.556002
vt 0.797793 0.551196
vt 0.775635 0.552853
vt 0.778704 0.559388
vt 0.781080 0.564888
vt 0.777097 0.543188
vt 0.781496 0.539927
vt 0.783737 0.543738
vt 0.789842 0.544681
vt 0.789062 0.538749
vt 0.770329 0.574585
vt 0.765545 0.575140
vt 0.765885 0.572015
vt 0.769987 0.570048
vt 0.767882 0.564417
vt 0.763058 0.568316
vt 0.760677 0.572487
vt 0.773680 0.561536
vt 0.772007 0.551552
vt 0.774120 0.546898
vt 0.758652 0.550388
vt 0.764463 0.545696
vt 0.764579 0.557370
vt 0.768343 0.541793
vt 0.767831 0.599462
vt 0.768240 0.601306
vt 0.765859 0.600558
vt 0.765660 0.599334
vt 0.763567 0.599322
vt 0.764249 0.602365
vt 0.767286 0.604564
vt 0.765571 0.596064
vt 0.772117 0.598946
vt 0.772050 0.596696
vt 0.771366 0.594562
vt 0.765407 0.594046
vt 0.760387 0.598916
vt 0.760537 0.596436
vt 0.760525 0.593663
vt 0.797930 0.545801
vt 0.805776 0.547041
vt 0.805099 0.553464
vt 0.810042 0.554075
vt 0.810170 0.551159
vt 0.342966 0.138387
vt 0.344564 0.143951
vt 0.340038 0.145544
vt 0.337880 0.138842
vt 0.797228 0.539633
vt 0.803216 0.539374
vt 0.806640 0.559743
vt 0.809139 0.563216
vt 0.799706 0.565244
vt 0.815850 0.571061
vt 0.809300 0.570468
vt 0.815260 0.566929
vt 0.801053 0.570982
vt 0.811888 0.558664
vt 0.814290 0.560595
vt 0.818576 0.563680
vt 0.820841 0.568571
vt 0.755968 0.522606
vt 0.751761 0.519256
vt 0.755386 0.517248
vt 0.759244 0.519648
vt 0.313439 0.105068
vt 0.309040 0.102506
vt 0.311207 0.097402
vt 0.315410 0.100660
vt 0.317373 0.096824
vt 0.313024 0.093752
vt 0.822660 0.594029
vt 0.820974 0.598051
vt 0.817696 0.596259
vt 0.817652 0.593616
vt 0.812765 0.593790
vt 0.813645 0.597293
vt 0.815936 0.601291
vt 0.331410 0.115812
vt 0.330094 0.110985
vt 0.334524 0.112812
vt 0.337551 0.115544
vt 0.331390 0.107578
vt 0.335760 0.109936
vt 0.339597 0.112791
vt 0.742682 0.534193
vt 0.738713 0.531840
vt 0.744220 0.526125
vt 0.747703 0.529721
vt 0.752382 0.525865
vt 0.749275 0.522263
vt 0.313772 0.071264
vt 0.319101 0.077003
vt 0.315973 0.082657
vt 0.310653 0.075235
vt 0.319368 0.092633
vt 0.314841 0.089088
vt 0.321732 0.088054
vt 0.324310 0.082927
vt 0.325023 0.042185
vt 0.322093 0.043202
vt 0.324418 0.039087
vt 0.327449 0.038203
vt 0.329102 0.033938
vt 0.325170 0.035251
vt 0.321134 0.038299
vt 0.325065 0.046550
vt 0.323906 0.047928
vt 0.318727 0.041923
vt 0.320213 0.046175
vt 0.322324 0.049965
vt 0.329590 0.050223
vt 0.326930 0.045596
vt 0.331742 0.047219
vt 0.334170 0.043137
vt 0.328816 0.042074
vt 0.814528 0.616465
vt 0.822913 0.610763
vt 0.830522 0.615388
vt 0.825363 0.620023
vt 0.380645 0.069618
vt 0.379346 0.062587
vt 0.389322 0.067204
vt 0.384622 0.072391
vt 0.374335 0.052492
vt 0.386334 0.057398
vt 0.829685 0.604182
vt 0.836466 0.605544
vt 0.385144 0.075546
vt 0.390200 0.071548
vt 0.379851 0.075494
vt 0.363066 0.088086
vt 0.357909 0.086153
vt 0.359219 0.083437
vt 0.365407 0.085814
vt 0.352986 0.082973
vt 0.354879 0.079954
vt 0.356203 0.076478
vt 0.360122 0.077854
vt 0.362888 0.078206
vt 0.363982 0.081605
vt 0.367422 0.084144
vt 0.361405 0.075225
vt 0.364964 0.076505
vt 0.367199 0.079983
vt 0.366397 0.066691
vt 0.368598 0.071083
vt 0.365667 0.070902
vt 0.362924 0.068134
vt 0.360234 0.070478
vt 0.363488 0.073085
vt 0.367480 0.074213
vt 0.302434 0.059722
vt 0.306280 0.062733
vt 0.304579 0.066296
vt 0.300218 0.064236
vt 0.309825 0.066966
vt 0.307038 0.070866
vt 0.302830 0.069005
vt 0.746829 0.538286
vt 0.741743 0.543292
vt 0.738183 0.538883
vt 0.736769 0.548192
vt 0.733181 0.543018
vt 0.735002 0.535330
vt 0.746565 0.548067
vt 0.742042 0.553446
vt 0.738680 0.558466
vt 0.732675 0.552619
vt 0.296408 0.058594
vt 0.298301 0.053425
vt 0.301737 0.041301
vt 0.302455 0.048979
vt 0.297250 0.044968
vt 0.305193 0.055344
vt 0.306438 0.046038
vt 0.308717 0.051226
vt 0.311438 0.055357
vt 0.308838 0.059142
vt 0.315372 0.059050
vt 0.312740 0.062815
vt 0.319700 0.062809
vt 0.316997 0.066831
vt 0.324916 0.068463
vt 0.322270 0.072339
vt 0.330646 0.074101
vt 0.328134 0.077832
vt 0.336774 0.079137
vt 0.334247 0.082448
vt 0.330431 0.088139
vt 0.340030 0.087416
vt 0.336353 0.092806
vt 0.332223 0.097111
vt 0.327309 0.092794
vt 0.329490 0.100545
vt 0.324583 0.096912
vt 0.326963 0.104047
vt 0.321965 0.100706
vt 0.324808 0.107348
vt 0.319719 0.104421
vt 0.323908 0.112154
vt 0.318598 0.109337
vt 0.324892 0.117030
vt 0.319422 0.114696
vt 0.313794 0.111682
vt 0.321988 0.120847
vt 0.316466 0.118624
vt 0.310965 0.115903
vt 0.309346 0.108522
vt 0.765698 0.531165
vt 0.760489 0.526528
vt 0.763719 0.523507
vt 0.769237 0.528241
vt 0.761484 0.534876
vt 0.756276 0.530144
vt 0.757163 0.539007
vt 0.751818 0.534045
vt 0.752166 0.543258
vt 0.753568 0.554806
vt 0.759276 0.562495
vt 0.755591 0.567274
vt 0.749026 0.560098
vt 0.753885 0.572238
vt 0.746694 0.566239
vt 0.753135 0.578477
vt 0.746052 0.572952
vt 0.737142 0.565109
vt 0.753001 0.583467
vt 0.745603 0.578643
vt 0.736629 0.571474
vt 0.745762 0.584037
vt 0.735755 0.576467
vt 0.310503 0.041984
vt 0.306624 0.037312
vt 0.311622 0.034074
vt 0.316329 0.031078
vt 0.314888 0.038566
vt 0.315615 0.044480
vt 0.312373 0.047880
vt 0.317417 0.048664
vt 0.314629 0.052017
vt 0.320092 0.052729
vt 0.317916 0.055829
vt 0.324260 0.057057
vt 0.321964 0.059908
vt 0.329375 0.062112
vt 0.327170 0.065272
vt 0.335597 0.067514
vt 0.333212 0.070743
vt 0.342011 0.073108
vt 0.339413 0.076060
vt 0.347939 0.078207
vt 0.345356 0.081299
vt 0.342721 0.084438
vt 0.350490 0.086180
vt 0.347800 0.089438
vt 0.344533 0.092923
vt 0.352204 0.092922
vt 0.348967 0.096648
vt 0.344862 0.100766
vt 0.340767 0.097291
vt 0.340367 0.103726
vt 0.336370 0.100661
vt 0.337869 0.106998
vt 0.333784 0.104415
vt 0.344223 0.106677
vt 0.342033 0.109745
vt 0.349030 0.109564
vt 0.346451 0.112699
vt 0.343808 0.115839
vt 0.351160 0.116531
vt 0.348361 0.119571
vt 0.345129 0.122424
vt 0.339494 0.119139
vt 0.338405 0.124543
vt 0.332330 0.119779
vt 0.328568 0.123740
vt 0.342756 0.130774
vt 0.335078 0.131075
vt 0.326065 0.129785
vt 0.329040 0.136836
vt 0.319913 0.134863
vt 0.318566 0.127448
vt 0.312385 0.132731
vt 0.312245 0.124813
vt 0.771631 0.537962
vt 0.775427 0.534643
vt 0.348818 0.129750
vt 0.347619 0.139050
vt 0.829451 0.546346
vt 0.820879 0.549123
vt 0.818958 0.546513
vt 0.828182 0.543965
vt 0.814305 0.551706
vt 0.812551 0.548331
vt 0.347463 0.146200
vt 0.822255 0.551736
vt 0.815667 0.554146
vt 0.810578 0.556928
vt 0.817425 0.556373
vt 0.805423 0.556969
vt 0.825995 0.556604
vt 0.819711 0.558578
vt 0.823980 0.554132
vt 0.828173 0.559127
vt 0.823072 0.561618
vt 0.830330 0.563899
vt 0.825471 0.566127
vt 0.831592 0.569798
vt 0.826843 0.571296
vt 0.821890 0.573699
vt 0.826933 0.577037
vt 0.821899 0.578806
vt 0.816707 0.580028
vt 0.816144 0.575596
vt 0.809820 0.575868
vt 0.810482 0.580278
vt 0.802249 0.576384
vt 0.803040 0.580932
vt 0.816958 0.584043
vt 0.811212 0.584365
vt 0.803684 0.584937
vt 0.794462 0.582175
vt 0.794953 0.586212
vt 0.811985 0.587713
vt 0.804409 0.588600
vt 0.795498 0.590074
vt 0.784677 0.588638
vt 0.785006 0.592563
vt 0.804940 0.591102
vt 0.795890 0.592626
vt 0.785291 0.595244
vt 0.776899 0.594231
vt 0.777299 0.596936
vt 0.796268 0.595646
vt 0.785599 0.597895
vt 0.777579 0.599628
vt 0.785720 0.601552
vt 0.778172 0.602471
vt 0.772399 0.602202
vt 0.777669 0.605915
vt 0.771643 0.605794
vt 0.777066 0.610023
vt 0.769122 0.609302
vt 0.765184 0.607319
vt 0.761722 0.602992
vt 0.764609 0.614422
vt 0.760608 0.608577
vt 0.757963 0.604066
vt 0.755773 0.599351
vt 0.344116 0.012742
vt 0.337086 0.012899
vt 0.347051 0.005106
vt 0.352765 0.006759
vt 0.747394 0.597613
vt 0.747751 0.601932
vt 0.754771 0.596051
vt 0.746964 0.594224
vt 0.331709 0.022611
vt 0.326277 0.024726
vt 0.333666 0.013364
vt 0.738596 0.597177
vt 0.738878 0.600627
vt 0.746067 0.589470
vt 0.737652 0.595748
vt 0.322542 0.031910
vt 0.318066 0.036354
vt 0.319899 0.028220
vt 0.327903 0.029573
vt 0.337553 0.020418
vt 0.333368 0.027732
vt 0.342692 0.021380
vt 0.340400 0.026917
vt 0.335242 0.032856
vt 0.345387 0.029791
vt 0.341657 0.035065
vt 0.337618 0.039148
vt 0.332057 0.037776
vt 0.346893 0.039174
vt 0.342848 0.043795
vt 0.340089 0.047033
vt 0.350427 0.049687
vt 0.347350 0.052975
vt 0.344402 0.056203
vt 0.337317 0.050590
vt 0.341763 0.059455
vt 0.334757 0.053895
vt 0.339741 0.062267
vt 0.332894 0.056605
vt 0.327938 0.052365
vt 0.331382 0.059115
vt 0.326381 0.054361
vt 0.337951 0.064665
vt 0.346493 0.067891
vt 0.344387 0.070480
vt 0.351869 0.072520
vt 0.350038 0.075586
vt 0.348592 0.065175
vt 0.353901 0.069672
vt 0.357966 0.073565
vt 0.356414 0.066717
vt 0.354224 0.059223
vt 0.359435 0.063755
vt 0.351340 0.062147
vt 0.357468 0.056358
vt 0.362819 0.061509
vt 0.361930 0.053716
vt 0.367386 0.060714
vt 0.371360 0.066965
vt 0.373064 0.061576
vt 0.375593 0.068453
vt 0.375971 0.073664
vt 0.372060 0.073181
vt 0.373557 0.078578
vt 0.370345 0.077271
vt 0.370843 0.082250
vt 0.377891 0.079817
vt 0.375708 0.083421
vt 0.373465 0.086255
vt 0.381441 0.084489
vt 0.379421 0.087680
vt 0.377064 0.090500
vt 0.371114 0.088162
vt 0.373965 0.094319
vt 0.368463 0.090995
vt 0.370567 0.098130
vt 0.365385 0.094843
vt 0.360161 0.091857
vt 0.354994 0.089158
vt 0.361733 0.099184
vt 0.356942 0.096018
vt 0.358146 0.103513
vt 0.353219 0.100013
vt 0.353811 0.106991
vt 0.348849 0.104095
vt 0.362964 0.107806
vt 0.359453 0.111258
vt 0.354164 0.112903
vt 0.834621 0.555083
vt 0.832339 0.552000
vt 0.841398 0.549672
vt 0.843327 0.551490
vt 0.355020 0.125463
vt 0.358024 0.124091
vt 0.831088 0.549255
vt 0.353337 0.127339
vt 0.845456 0.553774
vt 0.836893 0.558250
vt 0.366613 0.103043
vt 0.375890 0.107408
vt 0.372174 0.111637
vt 0.838402 0.563672
vt 0.379055 0.103481
vt 0.839555 0.569854
vt 0.382125 0.099179
vt 0.832426 0.575889
vt 0.840039 0.576268
vt 0.840210 0.582380
vt 0.832578 0.581731
vt 0.827129 0.582640
vt 0.832753 0.586960
vt 0.827034 0.587200
vt 0.822452 0.587407
vt 0.822049 0.583426
vt 0.817696 0.587982
vt 0.822213 0.590595
vt 0.817682 0.590204
vt 0.812331 0.590456
vt 0.805578 0.594393
vt 0.806788 0.598527
vt 0.797071 0.599632
vt 0.808625 0.602951
vt 0.797855 0.604047
vt 0.786353 0.605856
vt 0.798243 0.609373
vt 0.786036 0.610555
vt 0.797974 0.616743
vt 0.782980 0.615505
vt 0.772899 0.613949
vt 0.367040 0.027664
vt 0.358302 0.019756
vt 0.364395 0.016277
vt 0.373006 0.025181
vt 0.349695 0.013941
vt 0.358122 0.010792
vt 0.351024 0.024288
vt 0.358333 0.031449
vt 0.351778 0.034015
vt 0.366241 0.040554
vt 0.359086 0.042645
vt 0.354649 0.045169
vt 0.367115 0.051379
vt 0.376734 0.040110
vt 0.382992 0.035342
vt 0.391873 0.048994
vt 0.811125 0.609025
vt 0.818977 0.605597
vt 0.825810 0.600182
vt 0.827039 0.595383
vt 0.832640 0.596966
vt 0.838414 0.599531
vt 0.827499 0.591265
vt 0.832664 0.591771
vt 0.839066 0.593647
vt 0.843431 0.603274
vt 0.845379 0.599011
vt 0.839747 0.587579
vt 0.388396 0.088688
vt 0.386657 0.092076
vt 0.384804 0.095202
vt 0.383124 0.081187
vt 0.842326 0.605088
vt 0.753299 0.588002
vt 0.754205 0.592539
vt 0.305841 0.024077
vt 0.308522 0.022387
vt 0.759637 0.589983
vt 0.765064 0.587254
vt 0.765488 0.590853
vt 0.759646 0.586133
vt 0.770786 0.587223
vt 0.771219 0.591246
vt 0.776379 0.586440
vt 0.776598 0.590605
vt 0.784189 0.584571
vt 0.776100 0.581910
vt 0.783516 0.580259
vt 0.793723 0.577734
vt 0.782720 0.575109
vt 0.792630 0.572511
vt 0.782075 0.570025
vt 0.791062 0.567215
vt 0.774903 0.567470
vt 0.775456 0.571909
vt 0.775860 0.577040
vt 0.770474 0.578903
vt 0.770755 0.583275
vt 0.764867 0.579360
vt 0.765152 0.583285
vt 0.759217 0.582115
vt 0.759337 0.577128
vt 0.810034 0.546076
vn 0.8369 0.4268 -0.3427
vn 0.8112 0.4894 0.3199
vn 0.7454 0.6345 0.2044
vn 0.8106 0.4009 -0.4269
vn 0.6059 0.6926 0.3914
vn 0.5167 0.7688 0.3767
vn 0.7699 0.5094 0.3843
vn 0.7532 0.5389 0.3772
vn 0.5128 0.8241 -0.2406
vn 0.3522 0.9355 0.0270
vn 0.4287 0.8353 0.3442
vn 0.5663 0.4016 -0.7197
vn 0.3464 0.8772 -0.3324
vn 0.5916 0.7948 -0.1353
vn 0.4211 0.8553 0.3019
vn 0.0766 0.9889 0.1271
vn 0.8855 0.2033 0.4178
vn 0.9452 0.2867 -0.1564
vn 0.6749 0.7346 -0.0693
vn 0.5044 0.8218 0.2652
vn 0.1022 0.9923 0.0703
vn 0.3816 0.8975 -0.2212
vn 0.7019 0.4134 -0.5801
vn 0.0998 0.9913 0.0857
vn 0.4050 0.8751 -0.2650
vn 0.6273 0.3813 -0.6790
vn 0.0486 0.9987 0.0150
vn 0.3046 0.8883 -0.3438
vn 0.0712 0.9964 0.0469
vn 0.5403 0.4415 -0.7164
vn 0.7520 0.6087 0.2529
vn 0.9259 -0.3388 0.1671
vn 0.9650 -0.2068 -0.1614
vn 0.8446 0.4192 -0.3332
vn 0.7135 0.3136 -0.6265
vn 0.7166 -0.4328 -0.5470
vn 0.6248 -0.7539 -0.2030
vn 0.6519 0.7341 -0.1901
vn 0.7092 0.5026 0.4945
vn 0.6209 0.6757 0.3974
vn 0.8935 0.0505 0.4462
vn 0.9578 0.1372 -0.2526
vn 0.6346 0.3337 -0.6971
vn 0.5648 0.5856 -0.5814
vn 0.6942 0.1710 -0.6992
vn 0.4115 0.8632 0.2925
vn 0.3369 0.8436 0.4181
vn 0.7542 0.4587 0.4698
vn 0.0710 0.1639 0.9839
vn -0.0309 0.4038 0.9143
vn -0.2918 0.8329 0.4701
vn -0.2234 0.7343 0.6410
vn 0.0416 0.9846 0.1700
vn 0.0808 0.9825 0.1676
vn 0.4354 0.6041 0.6675
vn 0.3800 0.5853 0.7163
vn 0.6691 0.4980 0.5516
vn 0.2126 -0.0080 0.9771
vn 0.7069 0.0663 0.7042
vn 0.1119 0.3716 0.9216
vn 0.7598 0.0364 0.6491
vn -0.1525 0.5475 0.8228
vn -0.1431 0.7857 0.6019
vn -0.3544 0.4122 0.8394
vn -0.4983 -0.0213 0.8667
vn 0.5290 0.2846 -0.7995
vn -0.1035 0.2431 -0.9645
vn 0.0214 0.7053 -0.7086
vn 0.3324 0.8524 -0.4037
vn -0.0098 0.9986 0.0524
vn -0.4171 0.8449 -0.3349
vn -0.7089 0.2238 -0.6688
vn -0.3313 -0.3116 0.8906
vn -0.1425 -0.8398 0.5239
vn 0.3093 -0.6886 0.6559
vn 0.3234 -0.1659 0.9316
vn 0.7284 -0.0674 0.6819
vn 0.5621 -0.6817 0.4683
vn 0.1378 -0.9756 0.1710
vn -0.1466 0.9594 0.2409
vn -0.6406 0.7679 0.0046
vn -0.7344 0.4992 0.4598
vn -0.4431 0.5720 0.6903
vn -0.9629 0.1404 -0.2304
vn -0.9209 -0.0232 0.3891
vn -0.6118 -0.0779 0.7872
vn -0.0584 0.9971 -0.0497
vn -0.5095 0.7588 -0.4057
vn -0.3984 0.5436 -0.7387
vn 0.2249 0.8513 -0.4740
vn 0.4552 0.3598 -0.8144
vn -0.1698 0.2239 -0.9597
vn -0.7609 0.2088 -0.6144
vn -0.7326 0.1974 -0.6514
vn -0.7216 0.0140 -0.6922
vn -0.7373 0.1588 -0.6567
vn -0.7499 0.1684 -0.6398
vn -0.2958 0.2228 -0.9289
vn -0.0100 0.4448 -0.8956
vn 0.2065 0.0377 -0.9777
vn -0.0912 -0.4442 -0.8913
vn 0.2192 -0.7397 -0.6363
vn 0.4962 -0.1498 -0.8552
vn 0.5173 0.3969 -0.7582
vn -0.3549 0.7183 -0.5984
vn -0.4368 0.7372 -0.5155
vn 0.4978 0.2381 -0.8339
vn -0.2233 0.2196 -0.9497
vn -0.7168 0.2247 -0.6601
vn -0.5372 0.7308 -0.4212
vn -0.5951 0.1961 -0.7794
vn -0.6886 0.1062 -0.7173
vn -0.5222 -0.3915 -0.7577
vn -0.4635 -0.2273 -0.8564
vn -0.0332 -0.9982 -0.0492
vn -0.2335 -0.9675 0.0972
vn -0.1035 -0.9741 0.2010
vn -0.0198 -0.9987 -0.0470
vn -0.1511 -0.9778 0.1451
vn 0.0142 -0.9992 -0.0367
vn -0.1352 -0.9263 0.3516
vn 0.0285 -0.9974 -0.0665
vn -0.4555 -0.8406 0.2930
vn -0.3228 -0.8292 0.4563
vn -0.3121 -0.7426 0.5926
vn -0.4268 -0.7449 0.5129
vn -0.6738 -0.1320 0.7270
vn -0.9561 -0.0441 0.2899
vn -0.6896 0.6814 0.2452
vn -0.6249 0.3361 0.7046
vn -0.8914 0.0485 -0.4506
vn -0.6405 0.6886 -0.3400
vn -0.4148 0.8643 -0.2844
vn -0.5522 0.8044 -0.2190
vn -0.7688 0.6333 0.0882
vn -0.5205 0.6619 0.5394
vn -0.4997 0.6127 0.6123
vn -0.8303 0.2002 -0.5202
vn -0.9798 0.0715 0.1866
vn -0.6620 0.0828 0.7449
vn -0.0981 -0.9915 -0.0850
vn -0.4675 -0.8607 0.2017
vn -0.7235 -0.6390 -0.2612
vn -0.5537 -0.6323 -0.5419
vn -0.7415 -0.0064 -0.6709
vn -0.9084 -0.1592 -0.3867
vn -0.8241 -0.4188 0.3813
vn 0.1692 0.4439 -0.8799
vn -0.4728 0.3012 -0.8281
vn -0.3783 0.7754 -0.5056
vn 0.0753 0.9088 -0.4104
vn -0.7692 0.1721 -0.6155
vn -0.5785 0.7434 -0.3357
vn -0.0693 0.9972 0.0280
vn 0.0368 0.9980 0.0505
vn 0.0418 0.9983 0.0396
vn 0.3056 0.8836 -0.3547
vn 0.0720 0.9972 0.0195
vn 0.4291 0.8063 -0.4072
vn 0.6578 0.2509 -0.7101
vn 0.5669 0.3829 -0.7294
vn 0.6751 0.0254 -0.7372
vn 0.6388 0.0594 -0.7670
vn 0.2311 0.1391 -0.9629
vn 0.6551 -0.0233 -0.7552
vn 0.3391 0.0286 -0.9403
vn -0.4001 0.0436 -0.9154
vn -0.4597 0.1204 -0.8799
vn -0.7525 0.0086 -0.6586
vn -0.7494 0.0442 -0.6607
vn -0.7679 0.0030 -0.6405
vn -0.7679 0.0236 -0.6402
vn -0.7663 0.0036 -0.6425
vn -0.7654 0.0200 -0.6432
vn -0.7659 0.0022 -0.6429
vn -0.7659 0.0180 -0.6428
vn -0.7683 0.0024 -0.6401
vn -0.7711 0.0179 -0.6365
vn -0.7900 0.1908 -0.5827
vn -0.7927 0.0284 -0.6089
vn -0.8059 0.2630 -0.5305
vn -0.8613 0.2099 -0.4627
vn -0.8350 0.1456 -0.5306
vn -0.8850 -0.0640 -0.4611
vn -0.8487 -0.0484 -0.5266
vn -0.8853 0.2063 -0.4166
vn -0.8391 0.2276 -0.4940
vn -0.5501 0.8242 -0.1343
vn -0.5010 0.8424 -0.1983
vn -0.0923 0.9881 0.1227
vn -0.0579 0.9936 0.0969
vn -0.0461 0.9889 0.1409
vn -0.0177 0.9939 0.1088
vn 0.0202 0.9973 0.0712
vn -0.0014 0.9933 0.1157
vn 0.0387 0.9965 0.0747
vn 0.3164 0.8997 -0.3006
vn 0.3271 0.8857 -0.3295
vn 0.5571 0.4353 -0.7072
vn 0.5700 0.3863 -0.7251
vn 0.5303 0.4319 -0.7296
vn 0.5473 0.4010 -0.7346
vn 0.2717 0.8948 -0.3542
vn 0.3082 0.8855 -0.3476
vn 0.0297 0.9991 0.0295
vn 0.1150 0.9925 -0.0412
vn 0.2260 0.9657 -0.1278
vn 0.5796 0.5747 -0.5777
vn 0.4805 0.7264 -0.4913
vn 0.6652 0.1173 -0.7374
vn 0.6432 0.1688 -0.7468
vn 0.6671 0.0065 -0.7450
vn 0.6457 0.0237 -0.7632
vn 0.6666 -0.0338 -0.7446
vn 0.6436 -0.0217 -0.7650
vn 0.6675 -0.0286 -0.7441
vn 0.6425 -0.0503 -0.7646
vn 0.6589 -0.0578 -0.7500
vn 0.6604 -0.0644 -0.7481
vn 0.6494 -0.0371 -0.7596
vn 0.6618 -0.0748 -0.7459
vn 0.4649 -0.0455 -0.8842
vn 0.4023 -0.0262 -0.9151
vn -0.2823 -0.0037 -0.9593
vn -0.3353 0.0051 -0.9421
vn -0.7463 0.0042 -0.6656
vn -0.7498 -0.0023 -0.6616
vn -0.7670 0.0010 -0.6416
vn -0.7670 -0.0006 -0.6417
vn -0.7655 0.0048 -0.6434
vn -0.7665 0.0008 -0.6423
vn -0.7668 0.0086 -0.6418
vn -0.7663 0.0008 -0.6425
vn -0.7683 0.0042 -0.6400
vn -0.7674 0.0015 -0.6412
vn -0.7666 0.0173 -0.6419
vn -0.7768 0.0127 -0.6297
vn -0.7838 0.0103 -0.6210
vn -0.9070 0.0086 -0.4212
vn -0.9089 0.0078 -0.4169
vn -0.9158 0.0714 -0.3953
vn -0.9655 -0.0607 0.2531
vn -0.9632 0.0802 0.2564
vn -0.8725 0.4167 0.2552
vn -0.8848 0.3545 -0.3025
vn -0.9146 0.3106 0.2590
vn -0.9194 0.2667 -0.2892
vn -0.9372 -0.1506 0.3146
vn -0.9578 -0.0799 -0.2763
vn -0.6696 0.2756 0.6897
vn -0.6641 -0.1681 0.7285
vn -0.5807 0.3451 0.7373
vn -0.6036 -0.1490 0.7832
vn -0.5855 -0.0284 0.8102
vn -0.5981 -0.1262 0.7914
vn -0.5897 -0.0186 0.8074
vn -0.4857 0.4830 0.7286
vn -0.4495 0.5206 0.7259
vn -0.1864 0.9123 0.3645
vn -0.1484 0.9363 0.3182
vn -0.0339 0.9870 0.1571
vn -0.2610 0.8827 0.3909
vn -0.0452 0.9861 0.1598
vn -0.0037 0.9930 0.1177
vn 0.0294 0.9973 0.0679
vn 0.2941 0.8992 -0.3240
vn 0.5337 0.4411 -0.7215
vn -0.5511 0.4095 0.7271
vn -0.5769 0.2816 0.7667
vn -0.6085 -0.0378 0.7926
vn -0.6014 -0.0694 0.7959
vn -0.5770 -0.0959 0.8111
vn -0.4350 0.2774 0.8566
vn -0.5954 -0.0555 0.8015
vn -0.5709 -0.0779 0.8173
vn -0.0560 0.0427 0.9975
vn -0.4518 0.5992 0.6609
vn 0.7067 0.3568 0.6109
vn -0.3648 0.8003 0.4758
vn -0.2954 0.8298 0.4735
vn -0.4629 0.6090 0.6441
vn -0.6024 0.3238 0.7296
vn -0.5227 0.4039 0.7507
vn -0.6478 -0.0448 0.7605
vn -0.6304 -0.0178 0.7761
vn -0.6443 -0.1526 0.7494
vn -0.6455 -0.1438 0.7501
vn -0.5044 -0.1569 0.8491
vn -0.6479 -0.1784 0.7405
vn -0.4955 -0.1937 0.8467
vn 0.2431 -0.2517 0.9368
vn 0.2152 -0.2083 0.9541
vn 0.7349 -0.1851 0.6524
vn 0.7402 -0.2302 0.6318
vn 0.7634 -0.2004 0.6141
vn 0.7627 -0.2461 0.5981
vn 0.2550 -0.2543 0.9329
vn 0.7480 -0.2442 0.6172
vn 0.7641 -0.2557 0.5923
vn 0.7848 -0.2475 0.5682
vn 0.7830 -0.2536 0.5679
vn 0.7282 0.1008 0.6779
vn 0.7739 0.1026 0.6249
vn 0.7955 0.0604 0.6030
vn 0.8291 -0.2329 0.5082
vn 0.8316 0.0695 0.5510
vn 0.7048 0.3899 0.5927
vn 0.7007 0.4238 0.5739
vn 0.6815 0.5131 0.5217
vn 0.8252 0.0711 0.5603
vn 0.6240 0.6080 0.4909
vn 0.7841 0.0809 0.6153
vn 0.7820 0.2020 0.5896
vn 0.7577 0.3079 0.5754
vn 0.7033 -0.5728 0.4210
vn 0.7088 -0.5688 0.4172
vn 0.7863 -0.4901 0.3763
vn 0.3779 -0.9160 0.1347
vn 0.4429 -0.8925 0.0856
vn 0.2113 -0.9764 0.0440
vn 0.2913 -0.9566 -0.0014
vn 0.5241 -0.7903 -0.3175
vn 0.6612 -0.3917 -0.6399
vn 0.1890 -0.9805 -0.0529
vn 0.4798 -0.7834 -0.3951
vn 0.6549 -0.3018 -0.6929
vn 0.6154 0.3500 -0.7063
vn 0.3693 -0.7878 -0.4929
vn 0.6161 -0.2544 -0.7455
vn 0.6076 0.3760 -0.6996
vn 0.5597 0.5303 -0.6368
vn 0.5736 0.4783 -0.6650
vn 0.6022 -0.2525 -0.7574
vn 0.6012 0.3745 -0.7059
vn 0.6061 0.3791 -0.6992
vn 0.6404 0.0436 -0.7668
vn 0.6077 0.3738 -0.7007
vn 0.6439 0.2993 -0.7042
vn 0.6003 -0.2316 -0.7655
vn 0.3596 -0.7852 -0.5041
vn 0.3467 -0.7857 -0.5123
vn 0.0690 -0.9848 -0.1597
vn 0.0744 -0.9798 -0.1856
vn 0.0363 -0.9459 -0.3224
vn 0.0124 -0.9962 -0.0860
vn 0.0103 -0.9887 -0.1493
vn -0.1712 -0.8739 -0.4550
vn -0.1726 -0.7298 -0.6615
vn -0.0027 -0.9967 -0.0814
vn -0.1872 -0.9369 -0.2951
vn -0.5950 -0.4714 -0.6509
vn -0.1450 -0.9665 -0.2117
vn -0.6076 -0.5324 -0.5893
vn -0.7454 0.0436 -0.6652
vn -0.7235 0.0645 -0.6873
vn -0.6629 0.5084 -0.5496
vn -0.6323 0.5721 -0.5224
vn -0.4253 0.8550 -0.2967
vn -0.4392 0.8448 -0.3057
vn -0.4513 0.8386 -0.3052
vn -0.6971 0.4471 -0.5605
vn -0.7319 0.3307 -0.5958
vn -0.6710 0.5269 -0.5217
vn -0.4058 0.8679 -0.2866
vn -0.6543 0.5693 -0.4977
vn -0.3836 0.8759 -0.2925
vn -0.6193 0.6125 -0.4912
vn -0.6682 0.4696 -0.5770
vn -0.6708 0.4385 -0.5981
vn -0.7034 0.3814 -0.5998
vn -0.7291 -0.0067 -0.6843
vn -0.5691 -0.5921 -0.5706
vn -0.5489 -0.6143 -0.5669
vn -0.7368 0.0126 -0.6760
vn -0.1138 -0.9757 -0.1872
vn -0.1012 -0.9810 -0.1656
vn 0.0064 -0.9970 -0.0770
vn -0.0052 -0.9980 -0.0637
vn -0.0674 -0.9974 0.0262
vn -0.0008 -0.9987 -0.0505
vn -0.0889 -0.9932 0.0746
vn -0.3505 -0.8320 0.4301
vn -0.3175 -0.8777 0.3590
vn -0.5546 -0.4343 0.7098
vn -0.5739 -0.4658 0.6735
vn -0.6106 0.1324 0.7808
vn -0.5580 -0.4154 0.7184
vn -0.6086 0.1795 0.7729
vn -0.5372 0.5348 0.6523
vn -0.6135 0.1847 0.7678
vn -0.5913 0.3962 0.7024
vn -0.6732 0.0304 0.7388
vn -0.6394 0.2049 0.7411
vn -0.6778 -0.1472 0.7204
vn -0.6452 -0.1383 0.7514
vn -0.6824 -0.1458 0.7163
vn -0.6381 -0.1482 0.7556
vn -0.6795 -0.1443 0.7193
vn -0.9614 -0.0794 0.2635
vn -0.6384 -0.1135 0.7612
vn -0.6878 -0.1137 0.7169
vn -0.6457 0.0154 0.7634
vn -0.7113 0.0289 0.7023
vn -0.5666 0.4645 0.6806
vn -0.6573 0.3944 0.6421
vn -0.6784 0.0780 0.7305
vn -0.5226 0.5879 0.6175
vn -0.5431 0.4376 0.7167
vn -0.4507 0.7040 0.5489
vn -0.5117 0.5364 0.6711
vn -0.6122 -0.0789 0.7868
vn -0.6594 0.1999 0.7248
vn -0.6865 -0.0884 0.7218
vn -0.6849 -0.0645 0.7258
vn -0.6770 -0.1526 0.7200
vn -0.6710 -0.1758 0.7203
vn -0.6429 -0.1838 0.7436
vn -0.6632 -0.1355 0.7361
vn -0.6437 -0.1852 0.7425
vn -0.6461 -0.1870 0.7400
vn -0.6136 0.2620 0.7448
vn -0.5912 0.2270 0.7739
vn -0.4346 0.1568 0.8869
vn -0.5000 -0.1924 0.8444
vn 0.1698 0.1107 0.9792
vn -0.3278 0.2340 0.9153
vn 0.2246 0.2797 0.9335
vn 0.6393 0.3486 0.6854
vn 0.7885 -0.0214 0.6146
vn 0.6396 -0.6313 0.4386
vn 0.6765 -0.5860 0.4460
vn 0.2722 -0.9528 0.1346
vn 0.3540 -0.9247 0.1404
vn 0.3955 -0.9120 0.1085
vn 0.1027 -0.9938 -0.0418
vn 0.1898 -0.9814 -0.0285
vn 0.0289 -0.9980 -0.0559
vn 0.0862 -0.9955 -0.0400
vn 0.1110 -0.9938 -0.0024
vn -0.0117 -0.9977 -0.0672
vn 0.0103 -0.9971 -0.0753
vn 0.0630 -0.9885 -0.1376
vn 0.0077 -0.9970 -0.0769
vn -0.0120 -0.9989 -0.0446
vn 0.0090 -0.9989 -0.0455
vn 0.0108 -0.9983 -0.0579
vn 0.0306 -0.9985 -0.0461
vn 0.0018 -0.9971 -0.0764
vn 0.0328 -0.9970 -0.0698
vn -0.0141 -0.9971 -0.0742
vn 0.0277 -0.9988 -0.0407
vn -0.1185 -0.9916 0.0517
vn -0.4052 -0.8501 0.3365
vn -0.6064 -0.4228 0.6735
vn -0.6373 -0.5220 0.5668
vn -0.5489 -0.5842 0.5979
vn -0.5633 0.2553 0.7859
vn -0.6391 0.2560 0.7253
vn -0.6432 0.2057 0.7376
vn -0.5148 -0.4914 0.7025
vn -0.6217 0.2896 0.7278
vn 0.6648 -0.0511 -0.7452
vn 0.6579 0.1177 -0.7438
vn 0.7108 -0.0300 -0.7027
vn 0.9649 -0.0946 -0.2449
vn 0.9615 -0.1141 -0.2499
vn 0.7283 -0.0317 -0.6845
vn 0.8859 -0.1854 0.4251
vn 0.8781 -0.2129 0.4286
vn 0.8161 -0.2104 0.5382
vn 0.8117 -0.2226 0.5400
vn 0.8360 -0.2256 0.5002
vn 0.8266 -0.1761 0.5346
vn 0.8472 -0.1854 0.4978
vn 0.7923 -0.2057 0.5744
vn 0.8473 -0.0708 0.5263
vn 0.8025 -0.0156 0.5964
vn 0.7405 0.3681 0.5623
vn 0.7019 0.4610 0.5430
vn 0.4082 0.8508 0.3308
vn 0.7902 0.2802 0.5450
vn 0.8363 -0.1178 0.5354
vn 0.9041 -0.0900 0.4178
vn 0.8949 -0.1444 0.4222
vn 0.9772 0.0121 -0.2122
vn 0.9714 -0.0559 -0.2306
vn 0.7427 -0.0025 -0.6696
vn 0.7513 0.0791 -0.6552
f 1/1/1 2/2/2 3/3/3 4/4/4
f 5/5/5 6/6/6 3/3/3 7/7/7
f 8/8/8 7/7/7 3/3/3 2/2/2
f 9/9/9 4/4/4 3/3/3 10/10/10
f 11/11/11 10/10/10 3/3/3 6/6/6
f 12/12/12 13/13/13 14/14/14 1/1/1
f 2/2/2 1/1/1 14/14/14 15/15/15
f 16/16/16 15/15/15 14/14/14 13/13/13
f 17/17/17 18/18/18 19/19/19 20/20/20
f 21/21/21 20/20/20 19/19/19 22/22/22
f 23/23/23 22/22/22 19/19/19 18/18/18
f 24/24/24 25/25/25 9/9/9 10/10/10
f 26/26/26 4/4/4 9/9/9 25/25/25
f 27/27/27 28/28/28 25/25/25 29/29/29
f 30/30/30 26/26/26 25/25/25 28/28/28
f 31/31/31 32/32/32 33/33/33 34/34/34
f 35/35/35 34/34/34 33/33/33 36/36/36
f 37/37/37 36/36/36 33/33/33 32/32/32
f 38/38/38 31/31/31 34/34/34 35/35/35
f 39/39/39 31/31/31 38/38/38 40/40/40
f 41/41/41 40/40/40 38/38/38 42/42/42
f 43/43/43 44/44/44 38/38/38 35/35/35
f 45/45/45 42/42/42 38/38/38 44/44/44
f 8/8/8 46/46/46 47/47/47 48/48/48
f 49/49/49 48/48/48 47/47/47 50/50/50
f 51/51/51 52/52/52 47/53/47 53/54/53
f 54/55/54 53/56/53 47/47/47 46/46/46
f 5/5/5 55/57/55 56/58/56 57/59/57
f 58/60/58 59/61/59 56/58/56 60/62/60
f 61/63/61 57/59/57 56/58/56 59/61/59
f 62/64/62 63/65/63 56/58/56 55/57/55
f 64/66/64 60/62/60 56/58/56 63/65/63
f 65/67/65 58/60/58 60/62/60 64/66/64
f 66/68/66 67/69/67 68/70/68 69/71/69
f 70/72/70 69/73/69 68/74/68 71/75/71
f 72/76/72 71/75/71 68/74/68 67/77/67
f 73/78/73 74/79/74 75/80/75 76/81/76
f 77/82/77 76/81/76 75/80/75 78/83/78
f 79/84/79 78/83/78 75/80/75 74/79/74
f 80/85/80 81/86/81 82/87/82 83/88/83
f 84/89/84 85/90/85 82/87/82 81/86/81
f 86/91/86 83/88/83 82/87/82 85/90/85
f 87/92/87 88/93/88 89/94/89 90/95/90
f 91/96/91 90/95/90 89/94/89 92/97/92
f 93/98/93 94/99/94 89/100/89 88/101/88
f 95/102/95 92/103/92 89/100/89 96/104/96
f 97/105/97 96/104/96 89/100/89 94/99/94
f 98/106/98 99/107/99 100/108/100 101/109/101
f 102/110/102 101/109/101 100/108/100 103/111/103
f 104/112/104 103/111/103 100/108/100 99/107/99
f 105/113/105 106/114/106 99/107/99 98/106/98
f 107/115/107 104/112/104 99/107/99 108/116/108
f 109/117/109 108/116/108 99/107/99 106/114/106
f 110/118/110 105/113/105 111/119/111 112/120/112
f 113/121/113 112/120/112 111/119/111 114/122/114
f 98/106/98 114/122/114 111/119/111 105/113/105
f 115/123/115 116/124/116 117/125/117 118/126/118
f 119/127/119 120/128/120 117/129/117 121/130/121
f 122/131/122 118/132/118 117/129/117 120/128/120
f 123/133/123 124/134/124 117/125/117 116/124/116
f 125/135/125 121/130/121 117/129/117 124/136/124
f 126/137/126 119/127/119 121/130/121 125/135/125
f 127/138/127 128/139/128 129/140/129 130/141/130
f 131/142/131 132/143/132 129/140/129 128/139/128
f 133/144/133 134/145/134 129/140/129 132/143/132
f 135/146/135 136/147/136 129/140/129 134/145/134
f 137/148/137 130/141/130 129/140/129 136/147/136
f 138/149/138 139/150/139 135/146/135 134/145/134
f 140/151/140 136/147/136 135/146/135 139/150/139
f 141/152/141 142/153/142 143/154/143 144/155/144
f 145/156/145 144/155/144 143/154/143 146/157/146
f 147/158/147 146/157/146 143/154/143 142/153/142
f 148/159/148 149/160/149 150/161/150 151/162/151
f 152/163/152 153/164/153 150/161/150 149/160/149
f 154/165/154 151/162/151 150/161/150 153/164/153
f 155/166/155 156/167/156 154/168/154 87/92/87
f 157/169/157 151/170/151 154/168/154 156/167/156
f 88/93/88 87/92/87 154/168/154 153/171/153
f 158/172/158 159/173/159 157/169/157 156/167/156
f 160/174/160 161/175/161 157/169/157 159/173/159
f 148/159/148 151/162/151 157/176/157 161/177/161
f 162/178/162 163/179/163 161/177/161 160/180/160
f 164/181/164 148/159/148 161/177/161 163/179/163
f 165/182/165 166/183/166 164/181/164 163/179/163
f 167/184/167 168/185/168 164/181/164 166/183/166
f 149/160/149 148/159/148 164/181/164 168/185/168
f 169/186/169 170/187/170 168/185/168 167/184/167
f 152/163/152 149/160/149 168/185/168 170/187/170
f 171/188/171 172/189/172 170/187/170 169/186/169
f 93/98/93 152/163/152 170/187/170 172/189/172
f 173/190/173 174/191/174 172/189/172 171/188/171
f 94/99/94 93/98/93 172/189/172 174/191/174
f 175/192/175 176/193/176 174/191/174 173/190/173
f 97/105/97 94/99/94 174/191/174 176/193/176
f 177/194/177 178/195/178 176/193/176 175/192/175
f 179/196/179 97/105/97 176/193/176 178/195/178
f 180/197/180 181/198/181 179/196/179 178/195/178
f 182/199/182 183/200/183 179/196/179 181/198/181
f 96/104/96 97/105/97 179/196/179 183/200/183
f 184/201/184 185/202/185 183/200/183 182/199/182
f 95/102/95 96/104/96 183/200/183 185/202/185
f 186/203/186 187/204/187 185/202/185 184/201/184
f 72/76/72 95/102/95 185/202/185 187/204/187
f 188/205/188 189/206/189 187/204/187 186/203/186
f 71/75/71 72/76/72 187/204/187 189/206/189
f 190/207/190 191/208/191 189/206/189 188/205/188
f 70/72/70 71/75/71 189/206/189 191/208/191
f 192/209/192 193/210/193 191/208/191 190/207/190
f 194/211/194 70/72/70 191/208/191 193/210/193
f 195/212/195 196/213/196 194/211/194 193/210/193
f 197/214/197 198/215/198 194/211/194 196/213/196
f 69/73/69 70/72/70 194/211/194 198/215/198
f 199/216/199 200/217/200 198/218/198 197/219/197
f 66/68/66 69/71/69 198/218/198 200/217/200
f 201/220/201 202/221/202 200/217/200 199/216/199
f 91/96/91 66/68/66 200/217/200 202/221/202
f 203/222/203 204/223/204 202/221/202 201/220/201
f 90/95/90 91/96/91 202/221/202 204/223/204
f 205/224/205 155/166/155 204/223/204 203/222/203
f 87/92/87 90/95/90 204/223/204 155/166/155
f 28/28/28 27/27/27 205/224/205 203/222/203
f 206/225/206 158/172/158 205/224/205 27/27/27
f 156/167/156 155/166/155 205/224/205 158/172/158
f 29/29/29 207/226/207 206/225/206 27/27/27
f 208/227/208 209/228/209 206/225/206 207/226/207
f 159/173/159 158/172/158 206/225/206 209/228/209
f 210/229/210 211/230/211 209/228/209 208/227/208
f 160/174/160 159/173/159 209/228/209 211/230/211
f 212/231/212 213/232/213 211/230/211 210/229/210
f 162/233/162 160/174/160 211/230/211 213/232/213
f 214/234/214 215/235/215 213/232/213 212/231/212
f 216/236/216 162/233/162 213/232/213 215/235/215
f 217/237/217 218/238/218 216/236/216 215/235/215
f 219/239/219 165/182/165 216/240/216 218/241/218
f 163/179/163 162/178/162 216/240/216 165/182/165
f 220/242/220 221/243/221 219/239/219 218/241/218
f 222/244/222 223/245/223 219/239/219 221/243/221
f 166/183/166 165/182/165 219/239/219 223/245/223
f 224/246/224 225/247/225 223/245/223 222/244/222
f 167/184/167 166/183/166 223/245/223 225/247/225
f 226/248/226 227/249/227 225/247/225 224/246/224
f 169/186/169 167/184/167 225/247/225 227/249/227
f 228/250/228 229/251/229 227/249/227 226/248/226
f 171/188/171 169/186/169 227/249/227 229/251/229
f 230/252/230 231/253/231 229/251/229 228/250/228
f 173/190/173 171/188/171 229/251/229 231/253/231
f 232/254/232 233/255/233 231/253/231 230/252/230
f 175/192/175 173/190/173 231/253/231 233/255/233
f 234/256/234 235/257/235 233/255/233 232/254/232
f 177/194/177 175/192/175 233/255/233 235/257/235
f 236/258/236 237/259/237 235/257/235 234/256/234
f 238/260/238 177/194/177 235/257/235 237/259/237
f 239/261/239 240/262/240 238/260/238 237/259/237
f 241/263/241 180/197/180 238/260/238 240/262/240
f 178/195/178 177/194/177 238/260/238 180/197/180
f 242/264/242 243/265/243 241/263/241 240/262/240
f 244/266/244 245/267/245 241/263/241 243/265/243
f 181/198/181 180/197/180 241/263/241 245/267/245
f 246/268/246 247/269/247 245/267/245 244/266/244
f 182/199/182 181/198/181 245/267/245 247/269/247
f 248/270/248 249/271/249 247/269/247 246/268/246
f 184/201/184 182/199/182 247/269/247 249/271/249
f 85/90/85 84/89/84 249/271/249 248/270/248
f 186/203/186 184/201/184 249/271/249 84/89/84
f 250/272/250 251/273/251 248/270/248 246/268/246
f 86/91/86 85/90/85 248/270/248 251/273/251
f 252/274/252 253/275/253 251/273/251 250/272/250
f 254/276/254 86/91/86 251/273/251 253/275/253
f 255/277/255 256/278/256 254/276/254 253/275/253
f 257/279/257 258/280/258 254/276/254 256/278/256
f 83/88/83 86/91/86 254/276/254 258/280/258
f 259/281/259 260/282/260 258/280/258 257/279/257
f 80/85/80 83/88/83 258/280/258 260/282/260
f 261/283/261 192/209/192 260/282/260 259/281/259
f 190/207/190 80/85/80 260/282/260 192/209/192
f 262/284/262 263/285/263 261/283/261 259/281/259
f 264/286/264 195/212/195 261/283/261 263/285/263
f 193/210/193 192/209/192 261/283/261 195/212/195
f 53/54/53 54/287/54 264/286/264 263/285/263
f 16/288/16 265/289/265 264/286/264 54/287/54
f 196/213/196 195/212/195 264/286/264 265/289/265
f 13/290/13 266/291/266 265/289/265 16/288/16
f 197/214/197 196/213/196 265/289/265 266/291/266
f 12/12/12 267/292/267 266/293/266 13/13/13
f 199/216/199 197/219/197 266/293/266 267/292/267
f 26/26/26 30/30/30 267/292/267 12/12/12
f 201/220/201 199/216/199 267/292/267 30/30/30
f 51/51/51 53/54/53 263/285/263 262/284/262
f 257/279/257 268/294/268 262/284/262 259/281/259
f 269/295/269 51/51/51 262/284/262 268/294/268
f 270/296/270 271/297/271 269/298/269 268/299/268
f 272/300/272 273/301/273 269/298/269 271/297/271
f 52/52/52 51/51/51 269/295/269 273/302/273
f 274/303/274 275/304/275 272/300/272 271/297/271
f 276/305/276 49/49/49 272/300/272 275/304/275
f 50/50/50 273/301/273 272/300/272 49/49/49
f 277/306/277 62/64/62 276/305/276 275/304/275
f 55/57/55 278/307/278 276/305/276 62/64/62
f 48/48/48 49/49/49 276/305/276 278/307/278
f 5/5/5 7/7/7 278/307/278 55/57/55
f 8/8/8 48/48/48 278/307/278 7/7/7
f 279/308/279 280/309/280 277/306/277 281/310/281
f 63/65/63 62/64/62 277/306/277 280/309/280
f 274/303/274 281/310/281 277/306/277 275/304/275
f 282/311/282 283/312/283 280/309/280 279/308/279
f 64/66/64 63/65/63 280/309/280 283/312/283
f 284/313/284 285/314/285 283/312/283 282/311/282
f 65/67/65 64/66/64 283/312/283 285/314/285
f 286/315/286 287/316/287 285/314/285 284/313/284
f 288/317/288 65/67/65 285/314/285 287/316/287
f 289/318/289 290/319/290 288/317/288 287/316/287
f 291/320/291 292/321/292 288/317/288 290/319/290
f 58/60/58 65/67/65 288/317/288 292/321/292
f 59/61/59 58/60/58 292/321/292 293/322/293
f 294/323/294 293/322/293 292/321/292 291/320/291
f 295/324/295 293/322/293 294/323/294 296/325/296
f 297/326/297 298/327/298 294/323/294 291/320/291
f 299/328/299 296/325/296 294/323/294 298/327/298
f 300/329/300 296/325/296 299/328/299 301/330/301
f 302/331/302 303/332/303 299/328/299 298/327/298
f 304/333/304 301/330/301 299/328/299 303/332/303
f 305/334/305 301/330/301 304/333/304 306/335/306
f 307/336/307 308/337/308 304/333/304 303/332/303
f 309/338/309 306/335/306 304/333/304 308/337/308
f 310/339/310 306/335/306 309/338/309 311/340/311
f 312/341/312 313/342/313 309/338/309 308/337/308
f 314/343/314 311/340/311 309/338/309 313/342/313
f 40/40/40 311/340/311 314/343/314 39/39/39
f 315/344/315 316/345/316 314/343/314 313/342/313
f 317/346/317 39/39/39 314/343/314 316/345/316
f 31/31/31 39/39/39 317/346/317 32/32/32
f 318/347/318 319/348/319 317/346/317 316/345/316
f 37/37/37 32/32/32 317/346/317 319/348/319
f 320/349/320 321/350/321 319/348/319 318/347/318
f 322/351/322 37/37/37 319/348/319 321/350/321
f 36/36/36 37/37/37 322/351/322 323/352/323
f 324/353/324 325/354/325 322/351/322 321/350/321
f 326/355/326 323/352/323 322/351/322 325/354/325
f 43/43/43 323/352/323 326/355/326 327/356/327
f 328/357/328 329/358/329 326/359/326 325/360/325
f 330/361/330 327/356/327 326/355/326 329/362/329
f 331/363/331 327/356/327 330/361/330 332/364/332
f 333/365/333 334/366/334 330/367/330 329/358/329
f 335/368/335 332/364/332 330/361/330 334/369/334
f 336/370/336 332/364/332 335/368/335 220/371/220
f 337/372/337 338/373/338 335/374/335 334/366/334
f 221/243/221 220/242/220 335/374/335 338/373/338
f 104/112/104 107/115/107 338/373/338 337/372/337
f 222/244/222 221/243/221 338/373/338 107/115/107
f 333/365/333 339/375/339 337/372/337 334/366/334
f 103/111/103 104/112/104 337/372/337 339/375/339
f 340/376/340 341/377/341 339/375/339 333/365/333
f 102/110/102 103/111/103 339/375/339 341/377/341
f 342/378/342 343/379/343 341/377/341 340/376/340
f 344/380/344 102/110/102 341/377/341 343/379/343
f 345/381/345 346/382/346 344/380/344 343/379/343
f 347/383/347 348/384/348 344/380/344 346/382/346
f 101/109/101 102/110/102 344/380/344 348/384/348
f 113/121/113 114/122/114 348/384/348 347/383/347
f 98/106/98 101/109/101 348/384/348 114/122/114
f 349/385/349 350/386/350 347/383/347 346/382/346
f 351/387/351 113/121/113 347/383/347 350/386/350
f 352/388/352 353/389/353 351/387/351 350/386/350
f 354/390/354 355/391/355 351/387/351 353/389/353
f 112/120/112 113/121/113 351/387/351 355/391/355
f 356/392/356 357/393/357 355/391/355 354/390/354
f 110/118/110 112/120/112 355/391/355 357/393/357
f 358/394/358 359/395/359 357/393/357 356/392/356
f 360/396/360 110/118/110 357/393/357 359/395/359
f 105/113/105 110/118/110 360/396/360 106/114/106
f 361/397/361 362/398/362 360/396/360 359/395/359
f 109/117/109 106/114/106 360/396/360 362/398/362
f 230/252/230 228/250/228 362/398/362 361/397/361
f 226/248/226 109/117/109 362/398/362 228/250/228
f 358/394/358 363/399/363 361/397/361 359/395/359
f 232/254/232 230/252/230 361/397/361 363/399/363
f 364/400/364 365/401/365 363/399/363 358/394/358
f 234/256/234 232/254/232 363/399/363 365/401/365
f 366/402/366 367/403/367 365/401/365 364/400/364
f 236/258/236 234/256/234 365/401/365 367/403/367
f 133/144/133 132/143/132 367/403/367 366/402/366
f 131/142/131 236/258/236 367/403/367 132/143/132
f 368/404/368 369/405/369 366/402/366 364/400/364
f 370/406/370 133/144/133 366/402/366 369/405/369
f 371/407/371 145/156/145 370/406/370 369/405/369
f 146/157/146 138/149/138 370/406/370 145/156/145
f 134/145/134 133/144/133 370/406/370 138/149/138
f 372/408/372 373/409/373 371/407/371 374/410/374
f 144/155/144 145/156/145 371/407/371 373/409/373
f 368/404/368 374/410/374 371/407/371 369/405/369
f 375/411/375 376/412/376 373/409/373 372/408/372
f 141/152/141 144/155/144 373/409/373 376/412/376
f 377/413/377 378/414/378 376/412/376 375/411/375
f 379/415/379 141/152/141 376/412/376 378/414/378
f 380/416/380 381/417/381 379/415/379 378/414/378
f 382/418/382 383/419/383 379/415/379 381/417/381
f 142/153/142 141/152/141 379/415/379 383/419/383
f 384/420/384 385/421/385 383/419/383 382/418/382
f 147/158/147 142/153/142 383/419/383 385/421/385
f 386/422/386 140/151/140 385/421/385 384/420/384
f 139/150/139 147/158/147 385/421/385 140/151/140
f 387/423/387 388/424/388 386/422/386 384/420/384
f 389/425/389 137/148/137 386/422/386 388/424/388
f 136/147/136 140/151/140 386/422/386 137/148/137
f 390/426/390 391/427/391 389/425/389 388/424/388
f 392/428/392 393/429/393 389/425/389 391/427/391
f 130/141/130 137/148/137 389/425/389 393/429/393
f 394/430/394 395/431/395 393/429/393 392/428/392
f 127/138/127 130/141/130 393/429/393 395/431/395
f 396/432/396 397/433/397 395/431/395 394/430/394
f 398/434/398 127/138/127 395/431/395 397/433/397
f 128/139/128 127/138/127 398/434/398 399/435/399
f 400/436/400 401/437/401 398/434/398 397/433/397
f 242/264/242 399/435/399 398/434/398 401/437/401
f 402/438/402 403/439/403 401/437/401 400/436/400
f 243/265/243 242/264/242 401/437/401 403/439/403
f 404/440/404 405/441/405 403/439/403 402/438/402
f 244/266/244 243/265/243 403/439/403 405/441/405
f 252/274/252 250/272/250 405/441/405 404/440/404
f 246/268/246 244/266/244 405/441/405 250/272/250
f 406/442/406 407/443/407 404/440/404 402/438/402
f 408/444/408 252/274/252 404/440/404 407/443/407
f 409/445/409 410/446/410 408/447/408 407/448/407
f 411/449/411 255/277/255 408/444/408 410/450/410
f 253/275/253 252/274/252 408/444/408 255/277/255
f 281/310/281 274/303/274 411/451/411 410/446/410
f 271/297/271 270/296/270 411/451/411 274/303/274
f 256/278/256 255/277/255 411/449/411 270/452/270
f 279/308/279 281/310/281 410/446/410 409/445/409
f 406/453/406 412/454/412 409/445/409 407/448/407
f 282/311/282 279/308/279 409/445/409 412/454/412
f 413/455/413 414/456/414 412/457/412 406/442/406
f 284/313/284 282/311/282 412/454/412 414/458/414
f 396/432/396 415/459/415 414/456/414 413/455/413
f 286/315/286 284/313/284 414/458/414 415/460/415
f 394/430/394 416/461/416 415/459/415 396/432/396
f 417/462/417 286/315/286 415/460/415 416/463/416
f 418/464/418 419/465/419 417/462/417 416/463/416
f 420/466/420 289/318/289 417/462/417 419/465/419
f 287/316/287 286/315/286 417/462/417 289/318/289
f 421/467/421 422/468/422 420/466/420 419/465/419
f 423/469/423 424/470/424 420/466/420 422/468/422
f 290/319/290 289/318/289 420/466/420 424/470/424
f 425/471/425 297/326/297 424/470/424 423/469/423
f 291/320/291 290/319/290 424/470/424 297/326/297
f 298/327/298 297/326/297 425/471/425 302/331/302
f 426/472/426 427/473/427 425/471/425 423/469/423
f 428/474/428 302/331/302 425/471/425 427/473/427
f 303/332/303 302/331/302 428/474/428 307/336/307
f 76/81/76 77/82/77 428/474/428 427/473/427
f 429/475/429 307/336/307 428/474/428 77/82/77
f 308/337/308 307/336/307 429/475/429 312/341/312
f 78/83/78 430/476/430 429/475/429 77/82/77
f 431/477/431 312/341/312 429/475/429 430/476/430
f 313/342/313 312/341/312 431/477/431 315/344/315
f 432/478/432 433/479/433 431/477/431 430/476/430
f 434/480/434 315/344/315 431/477/431 433/479/433
f 316/345/316 315/344/315 434/480/434 318/347/318
f 435/481/435 436/482/436 434/480/434 433/479/433
f 320/349/320 318/347/318 434/480/434 436/482/436
f 437/483/437 438/484/438 436/482/436 435/481/435
f 439/485/439 320/349/320 436/482/436 438/484/438
f 321/350/321 320/349/320 439/485/439 324/353/324
f 440/486/440 441/487/441 439/488/439 438/489/438
f 442/490/442 324/491/324 439/488/439 441/487/441
f 325/360/325 324/491/324 442/490/442 328/357/328
f 443/492/443 342/378/342 442/490/442 441/487/441
f 340/376/340 328/357/328 442/490/442 342/378/342
f 440/486/440 444/493/444 443/492/443 441/487/441
f 445/494/445 345/381/345 443/492/443 444/493/444
f 343/379/343 342/378/342 443/492/443 345/381/345
f 446/495/446 447/496/447 445/494/445 444/493/444
f 448/497/448 349/385/349 445/494/445 447/496/447
f 346/382/346 345/381/345 445/494/445 349/385/349
f 449/498/449 377/413/377 448/497/448 447/496/447
f 375/411/375 352/388/352 448/497/448 377/413/377
f 350/386/350 349/385/349 448/497/448 352/388/352
f 446/495/446 122/131/122 449/498/449 447/496/447
f 120/128/120 380/416/380 449/498/449 122/131/122
f 378/414/378 377/413/377 449/498/449 380/416/380
f 440/486/440 450/499/450 446/495/446 444/493/444
f 118/132/118 122/131/122 446/495/446 450/499/450
f 438/489/438 437/500/437 450/499/450 440/486/440
f 115/501/115 118/132/118 450/499/450 437/500/437
f 451/502/451 115/123/115 437/483/437 435/481/435
f 433/479/433 432/478/432 451/502/451 435/481/435
f 79/84/79 452/503/452 451/502/451 432/478/432
f 116/124/116 115/123/115 451/502/451 452/503/452
f 74/79/74 453/504/453 452/503/452 79/84/79
f 123/133/123 116/124/116 452/503/452 453/504/453
f 73/78/73 454/505/454 453/504/453 74/79/74
f 455/506/455 123/133/123 453/504/453 454/505/454
f 124/134/124 123/133/123 455/506/455 456/507/456
f 457/508/457 458/509/458 455/506/455 454/505/454
f 459/510/459 456/507/456 455/506/455 458/509/458
f 460/511/460 456/507/456 459/510/459 390/512/390
f 421/467/421 461/513/461 459/510/459 458/509/458
f 391/427/391 390/426/390 459/514/459 461/515/461
f 419/465/419 418/464/418 461/513/461 421/467/421
f 392/428/392 391/427/391 461/515/461 418/516/418
f 126/137/126 125/135/125 460/517/460 387/423/387
f 124/134/124 456/507/456 460/511/460 125/518/125
f 388/424/388 387/423/387 460/517/460 390/426/390
f 422/468/422 421/467/421 458/509/458 457/508/457
f 73/78/73 426/472/426 457/508/457 454/505/454
f 423/469/423 422/468/422 457/508/457 426/472/426
f 78/83/78 79/84/79 432/478/432 430/476/430
f 73/78/73 76/81/76 427/473/427 426/472/426
f 394/430/394 392/428/392 418/516/418 416/461/416
f 397/433/397 396/432/396 413/455/413 400/436/400
f 402/438/402 400/436/400 413/455/413 406/442/406
f 131/142/131 128/139/128 399/435/399 239/261/239
f 240/262/240 239/261/239 399/435/399 242/264/242
f 382/418/382 126/137/126 387/423/387 384/420/384
f 119/127/119 126/137/126 382/418/382 381/417/381
f 120/128/120 119/127/119 381/417/381 380/416/380
f 353/389/353 352/388/352 375/411/375 372/408/372
f 354/390/354 353/389/353 372/408/372 374/410/374
f 356/392/356 354/390/354 374/410/374 368/404/368
f 358/394/358 356/392/356 368/404/368 364/400/364
f 329/358/329 328/357/328 340/376/340 333/365/333
f 462/519/462 463/520/463 336/370/336 217/237/217
f 331/363/331 332/364/332 336/370/336 463/520/463
f 218/241/218 217/521/217 336/522/336 220/242/220
f 464/523/464 45/45/45 463/520/463 462/519/462
f 44/44/44 331/363/331 463/520/463 45/45/45
f 465/524/465 466/525/466 464/523/464 467/526/467
f 42/42/42 45/45/45 464/523/464 466/525/466
f 214/234/214 467/526/467 464/523/464 462/519/462
f 468/527/468 469/528/469 466/525/466 465/524/465
f 41/41/41 42/42/42 466/525/466 469/528/469
f 470/529/470 471/530/471 469/528/469 468/527/468
f 310/339/310 41/41/41 469/528/469 471/530/471
f 472/531/472 305/334/305 471/530/471 470/529/470
f 306/335/306 310/339/310 471/530/471 305/334/305
f 473/532/473 474/533/474 472/531/472 470/529/470
f 475/534/475 300/329/300 472/531/472 474/533/474
f 301/330/301 305/334/305 472/531/472 300/329/300
f 476/535/476 477/536/477 475/534/475 474/533/474
f 61/63/61 295/324/295 475/534/475 477/536/477
f 296/325/296 300/329/300 475/534/475 295/324/295
f 478/537/478 479/538/479 477/536/477 476/535/476
f 57/59/57 61/63/61 477/536/477 479/538/479
f 11/11/11 6/6/6 479/538/479 478/537/478
f 5/5/5 57/59/57 479/538/479 6/6/6
f 480/539/480 11/11/11 478/537/478 481/540/481
f 482/541/482 481/540/481 478/537/478 476/535/476
f 17/17/17 481/540/481 482/541/482 483/542/483
f 474/533/474 473/532/473 482/541/482 476/535/476
f 484/543/484 483/542/483 482/541/482 473/532/473
f 485/544/485 483/542/483 484/543/484 486/545/486
f 470/529/470 468/527/468 484/543/484 473/532/473
f 465/524/465 486/545/486 484/543/484 468/527/468
f 17/17/17 483/542/483 485/544/485 18/18/18
f 487/546/487 488/547/488 485/544/485 486/545/486
f 23/23/23 18/18/18 485/544/485 488/547/488
f 212/231/212 210/229/210 488/547/488 487/546/487
f 208/227/208 23/23/23 488/547/488 210/229/210
f 465/524/465 467/526/467 487/546/487 486/545/486
f 214/234/214 212/231/212 487/546/487 467/526/467
f 21/21/21 24/24/24 480/539/480 20/20/20
f 10/10/10 11/11/11 480/539/480 24/24/24
f 17/17/17 20/20/20 480/539/480 481/540/481
f 215/235/215 214/234/214 462/519/462 217/237/217
f 43/43/43 327/356/327 331/363/331 44/44/44
f 35/35/35 36/36/36 323/352/323 43/43/43
f 40/40/40 41/41/41 310/339/310 311/340/311
f 59/61/59 293/322/293 295/324/295 61/63/61
f 257/279/257 256/278/256 270/452/270 268/294/268
f 236/258/236 131/142/131 239/261/239 237/259/237
f 108/116/108 109/117/109 226/248/226 224/246/224
f 107/115/107 108/116/108 224/246/224 222/244/222
f 22/22/22 23/23/23 208/227/208 207/226/207
f 21/21/21 22/22/22 207/226/207 29/29/29
f 30/30/30 28/28/28 203/222/203 201/220/201
f 81/86/81 80/85/80 190/207/190 188/205/188
f 84/89/84 81/86/81 188/205/188 186/203/186
f 93/98/93 88/101/88 153/164/153 152/163/152
f 138/149/138 146/157/146 147/158/147 139/150/139
f 67/77/67 92/103/92 95/102/95 72/76/72
f 67/69/67 66/68/66 91/96/91 92/97/92
f 15/15/15 16/16/16 54/55/54 46/46/46
f 2/2/2 15/15/15 46/46/46 8/8/8
f 24/24/24 21/21/21 29/29/29 25/25/25
f 1/1/1 4/4/4 26/26/26 12/12/12
f 273/301/273 50/50/50 47/47/47 52/548/52
