# split from a merged terrain OBJ by scripts/split-terrain-obj-parts.py
o part-044
v 0.936947 0.986408 0.002463
v 0.932122 0.987135 0.008313
v 0.949606 0.985817 0.014911
v 0.949379 0.981323 0.014935
v 0.938637 0.984680 0.027284
v 0.933617 0.987746 0.023359
v 0.943211 0.964734 0.008493
v 0.941709 0.962876 0.022291
v 0.940127 0.953651 0.018037
v 0.940139 0.957175 0.005717
v 0.933532 0.957267 0.031176
v 0.929750 0.948277 0.027384
v 0.917035 0.944081 0.021306
v 0.930464 0.946308 0.011251
v 0.908771 0.974767 -0.035377
v 0.901718 0.975033 -0.034697
v 0.905941 0.982862 -0.037581
v 0.910813 0.983494 -0.034107
v 0.904767 0.987043 -0.027445
v 0.898956 0.984613 -0.032041
v 0.894904 0.976206 -0.029165
v 0.926389 0.979941 0.036121
v 0.917953 0.971668 0.043346
v 0.923915 0.967533 0.040836
v 0.930335 0.973307 0.035656
v 0.914113 0.960633 0.047077
v 0.923676 0.959983 0.041628
v 0.932707 0.965403 0.033136
v 0.908936 0.948509 -0.024367
v 0.901488 0.953313 -0.032414
v 0.908357 0.953737 -0.032648
v 0.914555 0.955891 -0.025737
v 0.917169 0.966227 -0.024244
v 0.910574 0.964991 -0.032037
v 0.903253 0.964537 -0.035284
v 0.915729 0.950524 0.045759
v 0.923523 0.951033 0.041081
v 0.905555 0.963655 0.041935
v 0.906023 0.951442 0.042786
v 0.916434 0.944552 0.037630
v 0.895551 0.952834 -0.027208
v 0.888758 0.951108 -0.019716
v 0.888733 0.964376 -0.022144
v 0.897258 0.964975 -0.030566
v 0.889513 0.978273 -0.023692
v 0.884991 0.969633 -0.015817
v 0.898530 0.987792 -0.021694
v 0.893017 0.985712 -0.026363
v 0.888330 0.986805 -0.021409
v 0.892785 0.988325 -0.016567
v 0.887481 0.980723 -0.017166
v 0.889464 0.982230 -0.012287
v 0.897574 0.967408 0.038252
v 0.897794 0.955159 0.037343
v 0.879646 0.968347 0.042266
v 0.889143 0.966805 0.048849
v 0.889555 0.972744 0.030932
v 0.893331 0.956505 0.047523
v 0.910776 0.975393 0.038143
v 0.906403 0.976612 0.030067
v 0.900400 0.976906 0.020373
v 0.892018 0.946811 0.044211
v 0.901494 0.944327 0.034270
v 0.885293 0.941386 0.037714
v 0.893210 0.942542 0.022731
v 0.893851 0.983277 -0.005315
v 0.880670 0.974566 -0.003958
v 0.886763 0.975684 0.002301
v 0.875932 0.969669 0.015077
v 0.870696 0.965650 0.008818
v 0.883297 0.973998 -0.010745
v 0.898494 0.942453 -0.001599
v 0.882818 0.940918 0.007283
v 0.877478 0.939861 -0.002828
v 0.892614 0.941583 -0.012641
v 0.879335 0.947561 -0.006397
v 0.874549 0.944558 0.002925
v 0.877628 0.962956 -0.006319
v 0.867393 0.939054 0.021690
v 0.875807 0.939792 0.029093
v 0.870800 0.951508 0.069758
v 0.867703 0.959131 0.067958
v 0.863637 0.959173 0.074983
v 0.860840 0.947595 0.072551
v 0.853556 0.945723 0.063103
v 0.852338 0.955984 0.064751
v 0.860005 0.960587 0.059362
v 0.841370 0.954539 0.042826
v 0.839687 0.952620 0.035045
v 0.840478 0.945685 0.034486
v 0.841722 0.944266 0.041595
v 0.842964 0.955210 0.030731
v 0.843579 0.945548 0.028834
v 0.847141 0.937862 0.036128
v 0.848176 0.958930 0.039347
v 0.883127 0.954916 0.061467
v 0.874639 0.945415 0.068030
v 0.884875 0.946408 0.058344
v 0.867485 0.937780 0.066391
v 0.878198 0.939994 0.053218
v 0.859686 0.936112 0.057576
v 0.869238 0.938051 0.045915
v 0.852672 0.936398 0.047196
v 0.861254 0.937679 0.036688
v 0.853753 0.938737 0.027266
v 0.861586 0.943244 0.014930
v 0.869951 0.957605 0.004839
v 0.872261 0.950194 0.003850
v 0.858955 0.952920 0.013710
v 0.849343 0.948692 0.021774
v 0.859024 0.962641 0.016942
v 0.849125 0.959250 0.024363
v 0.864549 0.965480 0.025486
v 0.855461 0.962008 0.033011
v 0.871789 0.967114 0.034207
v 0.862609 0.963427 0.042887
v 0.853595 0.959975 0.049144
v 0.869949 0.964458 0.052127
v 0.845262 0.955502 0.053201
v 0.845945 0.944782 0.052540
v 0.878167 0.963004 0.059922
v 0.882520 0.971843 0.022560
v 0.893284 0.976468 0.010414
v 0.908297 0.983668 0.013245
v 0.900599 0.983487 0.003505
v 0.913765 0.988506 0.007993
v 0.905109 0.988633 -0.000738
v 0.897830 0.988751 -0.009237
v 0.911201 0.987901 -0.007197
v 0.904250 0.987942 -0.014754
v 0.917460 0.987009 -0.014653
v 0.910644 0.986995 -0.021401
v 0.921294 0.983408 -0.020846
v 0.915732 0.983641 -0.027885
v 0.919319 0.975261 -0.022715
v 0.913678 0.975152 -0.029728
v 0.924723 0.966483 -0.014936
v 0.926647 0.974647 -0.013550
v 0.928462 0.982445 -0.011792
v 0.935874 0.973619 -0.001930
v 0.937641 0.980560 -0.000413
v 0.926267 0.986779 -0.006621
v 0.920389 0.987670 0.000821
v 0.923313 0.988320 0.016315
v 0.915981 0.984116 0.022537
v 0.922130 0.982963 0.030730
v 0.932812 0.965996 -0.004772
v 0.948881 0.971496 0.014990
v 0.949161 0.977020 0.014959
v 0.941550 0.970274 0.024305
v 0.940097 0.977884 0.026195
v 0.930941 0.957307 -0.005752
v 0.922641 0.956998 -0.015974
v 0.927121 0.948478 -0.003732
v 0.917783 0.948307 -0.014554
v 0.919900 0.943163 0.001796
v 0.910377 0.942370 -0.009620
v 0.901923 0.944545 -0.020403
v 0.906572 0.944413 0.011093
v 0.934628 0.949529 0.004552
v 0.879475 0.955578 -0.007736
vt 0.693394 0.736045
vt 0.691456 0.742804
vt 0.684300 0.737843
vt 0.682111 0.735156
vt 0.678962 0.743580
vt 0.682552 0.746488
vt 0.666368 0.729672
vt 0.665557 0.737765
vt 0.659229 0.736040
vt 0.660672 0.728164
vt 0.659674 0.744525
vt 0.651348 0.745498
vt 0.063380 0.931946
vt 0.065919 0.920015
vt 0.073022 0.913930
vt 0.071674 0.926504
vt 0.036771 0.896213
vt 0.031951 0.897887
vt 0.033531 0.892980
vt 0.037616 0.891364
vt 0.032256 0.889622
vt 0.029255 0.893665
vt 0.026760 0.898945
vt 0.675410 0.750897
vt 0.671300 0.756324
vt 0.668812 0.752252
vt 0.671451 0.747842
vt 0.666059 0.758831
vt 0.664941 0.752685
vt 0.666214 0.745243
vt 0.044754 0.912248
vt 0.037717 0.909673
vt 0.041410 0.907491
vt 0.046813 0.905823
vt 0.047961 0.898530
vt 0.041152 0.900903
vt 0.035830 0.902990
vt 0.660966 0.758115
vt 0.660414 0.753028
vt 0.668037 0.764254
vt 0.660210 0.763426
vt 0.656106 0.756183
vt 0.033730 0.912638
vt 0.030483 0.917122
vt 0.024828 0.908701
vt 0.031373 0.904854
vt 0.022310 0.900411
vt 0.019543 0.908144
vt 0.026918 0.890343
vt 0.025459 0.893536
vt 0.022190 0.894766
vt 0.024265 0.891338
vt 0.019884 0.899422
vt 0.019952 0.894536
vt 0.671750 0.769149
vt 0.662037 0.768483
vt 0.672332 0.781140
vt 0.668342 0.777224
vt 0.677213 0.773855
vt 0.941908 0.955093
vt 0.935510 0.955112
vt 0.940104 0.949949
vt 0.946955 0.950505
vt 0.674760 0.760751
vt 0.679232 0.763388
vt 0.684289 0.767447
vt 0.940062 0.961339
vt 0.931885 0.961660
vt 0.654397 0.766329
vt 0.939686 0.968281
vt 0.930697 0.970576
vt 0.019205 0.893339
vt 0.012500 0.907605
vt 0.015470 0.898088
vt 0.685431 0.782516
vt 0.693080 0.776161
vt 0.695381 0.779797
vt 0.687733 0.787516
vt 0.016460 0.905949
vt 0.043129 0.928222
vt 0.032644 0.935685
vt 0.030488 0.928869
vt 0.037261 0.922475
vt 0.026935 0.923906
vt 0.026910 0.930241
vt 0.017837 0.915057
vt 0.025920 0.939533
vt 0.028652 0.944126
vt 0.958911 0.959689
vt 0.962240 0.956434
vt 0.964452 0.960327
vt 0.962499 0.964845
vt 0.966129 0.969131
vt 0.969574 0.964106
vt 0.967999 0.956631
vt 0.679323 0.806145
vt 0.681917 0.806694
vt 0.682682 0.810616
vt 0.679141 0.812171
vt 0.683293 0.804737
vt 0.685159 0.809232
vt 0.686409 0.815470
vt 0.679752 0.801657
vt 0.950864 0.957038
vt 0.955821 0.962338
vt 0.948745 0.961925
vt 0.957281 0.967775
vt 0.948826 0.968037
vt 0.959174 0.974312
vt 0.950522 0.975087
vt 0.940324 0.976891
vt 0.959519 0.981753
vt 0.951311 0.982490
vt 0.941781 0.983315
vt 0.690001 0.811931
vt 0.692584 0.817849
vt 0.689043 0.822511
vt 0.941052 0.987735
vt 0.949211 0.987414
vt 0.017001 0.921840
vt 0.021853 0.926973
vt 0.020655 0.934389
vt 0.015452 0.930432
vt 0.687838 0.805140
vt 0.689363 0.798757
vt 0.692622 0.803536
vt 0.685635 0.794456
vt 0.684501 0.800591
vt 0.682310 0.790142
vt 0.689950 0.791680
vt 0.681100 0.796833
vt 0.678385 0.786179
vt 0.677506 0.793210
vt 0.675813 0.800001
vt 0.963211 0.949693
vt 0.967675 0.948061
vt 0.975150 0.958300
vt 0.675286 0.804032
vt 0.973786 0.968580
vt 0.969674 0.980320
vt 0.966821 0.976110
vt 0.974463 0.975917
vt 0.964628 0.985002
vt 0.957088 0.947127
vt 0.955474 0.952922
vt 0.963644 0.942275
vt 0.682034 0.777851
vt 0.689265 0.771866
vt 0.027507 0.878693
vt 0.025676 0.884233
vt 0.016020 0.892133
vt 0.018358 0.882788
vt 0.031990 0.877248
vt 0.029416 0.883267
vt 0.025955 0.887735
vt 0.033899 0.883408
vt 0.032783 0.885904
vt 0.041719 0.884628
vt 0.037594 0.887325
vt 0.045033 0.887715
vt 0.041194 0.890025
vt 0.047867 0.891922
vt 0.041974 0.894445
vt 0.054787 0.896920
vt 0.053764 0.891172
vt 0.051429 0.885291
vt 0.062162 0.891044
vt 0.060612 0.886092
vt 0.047340 0.882277
vt 0.058165 0.881669
vt 0.035861 0.879683
vt 0.049577 0.878919
vt 0.042572 0.875541
vt 0.688724 0.751031
vt 0.689545 0.760283
vt 0.684518 0.756304
vt 0.692906 0.755524
vt 0.679565 0.753357
vt 0.069706 0.898604
vt 0.061802 0.897993
vt 0.073087 0.893227
vt 0.071850 0.888697
vt 0.670773 0.738656
vt 0.673541 0.732194
vt 0.679055 0.732187
vt 0.675381 0.741038
vt 0.692833 0.733302
vt 0.069156 0.905420
vt 0.061340 0.905169
vt 0.054622 0.905001
vt 0.060626 0.912482
vt 0.052746 0.912639
vt 0.058127 0.920385
vt 0.049383 0.919994
vt 0.041970 0.917697
vt 0.054199 0.931095
vt 0.057216 0.942476
vt 0.047255 0.939253
vt 0.066023 0.912812
vt 0.022454 0.918406
vt 0.012129 0.919084
vt 0.928921 0.978735
vt 0.647321 0.753559
vn 0.5233 0.7322 -0.4360
vn 0.1547 0.9803 -0.1230
vn 0.4612 0.8852 0.0608
vn 0.8618 0.5041 0.0557
vn 0.5238 0.4926 0.6950
vn 0.1074 0.9407 0.3217
vn 0.9193 -0.2197 -0.3265
vn 0.8578 -0.3368 0.3882
vn 0.7959 -0.5816 0.1681
vn 0.8596 -0.3646 -0.3580
vn 0.7425 -0.3170 0.5901
vn 0.5267 -0.7991 0.2898
vn 0.1525 -0.9869 0.0518
vn 0.4240 -0.9054 -0.0215
vn 0.3789 -0.1310 -0.9161
vn -0.4298 -0.0319 -0.9023
vn -0.0743 0.3804 -0.9218
vn 0.4674 0.5199 -0.7150
vn 0.0652 0.9660 -0.2504
vn -0.4339 0.6035 -0.6690
vn -0.6941 0.0088 -0.7198
vn 0.2379 0.5824 0.7773
vn 0.0764 0.4401 0.8947
vn 0.5538 0.1069 0.8258
vn 0.6140 0.0966 0.7834
vn -0.0172 0.1074 0.9941
vn 0.5969 -0.0068 0.8023
vn 0.7108 -0.0537 0.7014
vn 0.3206 -0.7874 -0.5265
vn -0.1534 -0.4902 -0.8580
vn 0.4643 -0.4389 -0.7693
vn 0.7027 -0.3625 -0.6122
vn 0.7711 -0.0933 -0.6298
vn 0.6125 -0.1312 -0.7795
vn -0.1137 -0.1044 -0.9880
vn 0.0841 -0.4381 0.8950
vn 0.5643 -0.4443 0.6959
vn -0.4416 0.2501 0.8616
vn -0.3731 -0.3915 0.8411
vn 0.1473 -0.9046 0.3999
vn -0.5184 -0.4559 -0.7235
vn -0.6407 -0.3741 -0.6705
vn -0.7633 -0.0607 -0.6432
vn -0.6250 -0.0716 -0.7774
vn -0.8210 0.0420 -0.5693
vn -0.8571 0.0883 -0.5076
vn -0.0308 0.9839 -0.1758
vn -0.5439 0.6153 -0.5706
vn -0.7565 0.6105 -0.2346
vn -0.4024 0.9105 0.0948
vn -0.9230 0.3458 -0.1687
vn -0.7158 0.6663 0.2091
vn 0.0240 0.6971 0.7166
vn 0.3190 -0.1587 0.9344
vn -0.1271 0.9683 0.2149
vn 0.4580 0.7151 0.5280
vn -0.1600 0.9531 0.2571
vn 0.8203 0.0518 0.5695
vn -0.3241 0.6930 0.6439
vn -0.3382 0.8315 0.4408
vn -0.3415 0.8929 0.2934
vn 0.6969 -0.5728 0.4316
vn 0.1310 -0.9128 0.3869
vn 0.2709 -0.9574 0.0999
vn 0.1401 -0.9890 0.0477
vn -0.5448 0.7632 0.3475
vn -0.7529 0.6483 -0.1134
vn -0.4660 0.8602 0.2073
vn -0.3907 0.9199 0.0343
vn -0.6656 0.6675 -0.3337
vn -0.8729 0.3668 -0.3217
vn 0.0858 -0.9961 0.0181
vn -0.0312 -0.9987 -0.0391
vn -0.5166 -0.8325 -0.2003
vn -0.2029 -0.9027 -0.3794
vn -0.7628 -0.3217 -0.5610
vn -0.6585 -0.6529 -0.3743
vn -0.8465 0.1088 -0.5212
vn -0.0927 -0.9650 -0.2455
vn 0.1160 -0.9920 -0.0497
vn 0.4815 0.0076 0.8764
vn 0.1904 0.7488 0.6348
vn -0.0780 0.4863 0.8703
vn -0.2660 -0.3180 0.9100
vn -0.6938 -0.4185 0.5861
vn -0.7036 0.4740 0.5295
vn -0.2623 0.9462 0.1896
vn -0.8632 0.4641 0.1990
vn -0.9393 0.3106 -0.1460
vn -0.9250 -0.3284 -0.1911
vn -0.8797 -0.4351 0.1919
vn -0.7727 0.5239 -0.3585
vn -0.7584 -0.3546 -0.5469
vn -0.4668 -0.8725 -0.1445
vn -0.4527 0.8905 0.0460
vn 0.6723 0.1566 0.7235
vn 0.5292 -0.3781 0.7596
vn 0.7221 -0.4611 0.5157
vn 0.0893 -0.8183 0.5678
vn 0.4005 -0.9007 0.1685
vn -0.2299 -0.9360 0.2664
vn 0.1576 -0.9871 -0.0296
vn -0.3225 -0.9350 0.1477
vn 0.0437 -0.9933 -0.1069
vn -0.3089 -0.8496 -0.4275
vn -0.4834 -0.6128 -0.6251
vn -0.7529 0.0780 -0.6535
vn -0.7024 -0.3012 -0.6449
vn -0.6508 -0.0224 -0.7589
vn -0.6846 -0.1925 -0.7030
vn -0.5831 0.6723 -0.4560
vn -0.6613 0.6254 -0.4143
vn -0.3488 0.9372 -0.0097
vn -0.3680 0.9295 0.0257
vn -0.2940 0.9511 0.0948
vn -0.2925 0.9511 0.0994
vn -0.3621 0.9226 0.1330
vn -0.1873 0.9596 0.2101
vn -0.7961 0.4691 0.3824
vn -0.7989 -0.4200 0.4305
vn 0.2731 0.7569 0.5937
vn -0.2988 0.9486 0.1044
vn -0.3926 0.8916 0.2254
vn -0.4185 0.8451 0.3328
vn -0.4772 0.7994 0.3651
vn -0.1725 0.9715 0.1623
vn -0.2290 0.9537 0.1950
vn -0.3022 0.9350 0.1858
vn 0.0717 0.9958 -0.0567
vn 0.0636 0.9958 -0.0654
vn 0.2322 0.9537 -0.1913
vn 0.1863 0.9683 -0.1666
vn 0.6745 0.4975 -0.5455
vn 0.6520 0.5318 -0.5404
vn 0.7774 -0.0637 -0.6257
vn 0.7429 -0.0879 -0.6636
vn 0.7754 -0.0893 -0.6252
vn 0.7778 -0.0619 -0.6254
vn 0.7139 0.3890 -0.5823
vn 0.7821 -0.0646 -0.6198
vn 0.7652 0.1920 -0.6145
vn 0.3270 0.9056 -0.2701
vn 0.0752 0.9957 -0.0550
vn -0.1006 0.9841 0.1465
vn -0.3337 0.8835 0.3288
vn -0.1736 0.8663 0.4683
vn 0.7783 -0.0866 -0.6218
vn 0.9774 -0.2102 0.0223
vn 0.9990 0.0409 0.0165
vn 0.7953 -0.1552 0.5860
vn 0.7157 0.0361 0.6975
vn 0.7479 -0.2701 -0.6063
vn 0.7406 -0.2939 -0.6043
vn 0.5807 -0.6882 -0.4349
vn 0.5463 -0.6944 -0.4685
vn 0.2349 -0.9675 -0.0935
vn 0.2136 -0.9608 -0.1766
vn -0.0383 -0.8902 -0.4540
vn 0.0769 -0.9958 0.0496
vn 0.6575 -0.6843 -0.3153
vn -0.8119 -0.0956 -0.5759
f 1/1/1 2/2/2 3/3/3 4/4/4
f 5/5/5 4/4/4 3/3/3 6/6/6
f 7/7/7 8/8/8 9/9/9 10/10/10
f 11/11/11 12/12/12 9/9/9 8/8/8
f 13/13/13 14/14/14 9/15/9 12/16/12
f 15/17/15 16/18/16 17/19/17 18/20/18
f 19/21/19 18/20/18 17/19/17 20/22/20
f 21/23/21 20/22/20 17/19/17 16/18/16
f 22/24/22 23/25/23 24/26/24 25/27/25
f 26/28/26 27/29/27 24/26/24 23/25/23
f 28/30/28 25/27/25 24/26/24 27/29/27
f 29/31/29 30/32/30 31/33/31 32/34/32
f 33/35/33 32/34/32 31/33/31 34/36/34
f 35/37/35 34/36/34 31/33/31 30/32/30
f 27/29/27 26/28/26 36/38/36 37/39/37
f 38/40/38 39/41/39 36/38/36 26/28/26
f 40/42/40 37/39/37 36/38/36 39/41/39
f 41/43/41 42/44/42 43/45/43 44/46/44
f 16/18/16 44/46/44 43/45/43 21/23/21
f 45/47/45 21/23/21 43/45/43 46/48/46
f 47/49/47 48/50/48 49/51/49 50/52/50
f 45/47/45 51/53/51 49/51/49 48/50/48
f 52/54/52 50/52/50 49/51/49 51/53/51
f 39/41/39 38/40/38 53/55/53 54/56/54
f 55/57/55 56/58/56 53/55/53 57/59/57
f 58/60/58 54/61/54 53/62/53 56/63/56
f 59/64/59 60/65/60 53/55/53 38/40/38
f 61/66/61 57/59/57 53/55/53 60/65/60
f 58/60/58 62/67/62 63/68/63 54/61/54
f 39/41/39 54/56/54 63/69/63 40/42/40
f 64/70/64 65/71/65 63/68/63 62/67/62
f 66/72/66 52/54/52 67/73/67 68/74/68
f 69/75/69 68/76/68 67/77/67 70/78/70
f 51/53/51 71/79/71 67/73/67 52/54/52
f 72/80/72 73/81/73 74/82/74 75/83/75
f 42/44/42 75/83/75 74/82/74 76/84/76
f 77/85/77 76/84/76 74/82/74 73/81/73
f 78/86/78 67/73/67 71/79/71 46/48/46
f 79/87/79 77/85/77 73/81/73 80/88/80
f 81/89/81 82/90/82 83/91/83 84/92/84
f 85/93/85 84/92/84 83/91/83 86/94/86
f 87/95/87 86/94/86 83/91/83 82/90/82
f 88/96/88 89/97/89 90/98/90 91/99/91
f 92/100/92 93/101/93 90/98/90 89/97/89
f 94/102/94 91/99/91 90/98/90 93/101/93
f 95/103/95 92/100/92 89/97/89 88/96/88
f 96/104/96 81/89/81 97/105/97 98/106/98
f 84/92/84 99/107/99 97/105/97 81/89/81
f 100/108/100 98/106/98 97/105/97 99/107/99
f 101/109/101 102/110/102 100/108/100 99/107/99
f 80/111/80 64/70/64 100/108/100 102/110/102
f 62/67/62 98/106/98 100/108/100 64/70/64
f 103/112/103 104/113/104 102/110/102 101/109/101
f 79/114/79 80/111/80 102/110/102 104/113/104
f 94/102/94 105/115/105 104/116/104 103/117/103
f 106/118/106 79/114/79 104/113/104 105/119/105
f 107/120/107 108/121/108 106/122/106 109/123/109
f 77/85/77 79/87/79 106/122/106 108/121/108
f 110/124/110 109/125/109 106/126/106 105/115/105
f 111/127/111 109/125/109 110/124/110 112/128/112
f 94/102/94 93/101/93 110/124/110 105/115/105
f 92/100/92 112/128/112 110/124/110 93/101/93
f 69/75/69 70/78/70 111/127/111 113/129/113
f 107/130/107 109/125/109 111/127/111 70/78/70
f 114/131/114 113/129/113 111/127/111 112/128/112
f 115/132/115 113/129/113 114/131/114 116/133/116
f 92/100/92 95/103/95 114/131/114 112/128/112
f 117/134/117 116/133/116 114/131/114 95/103/95
f 118/135/118 116/136/116 117/137/117 87/95/87
f 88/96/88 119/138/119 117/134/117 95/103/95
f 86/94/86 87/95/87 117/137/117 119/139/119
f 91/140/91 120/141/120 119/139/119 88/142/88
f 85/93/85 86/94/86 119/139/119 120/141/120
f 94/143/94 103/112/103 120/141/120 91/140/91
f 101/109/101 85/93/85 120/141/120 103/112/103
f 56/63/56 55/144/55 118/135/118 121/145/121
f 115/146/115 116/136/116 118/135/118 55/144/55
f 82/90/82 121/145/121 118/135/118 87/95/87
f 58/60/58 56/63/56 121/145/121 96/104/96
f 81/89/81 96/104/96 121/145/121 82/90/82
f 57/59/57 122/147/122 115/132/115 55/57/55
f 69/75/69 113/129/113 115/132/115 122/147/122
f 61/66/61 123/148/123 122/147/122 57/59/57
f 68/76/68 69/75/69 122/147/122 123/148/123
f 124/149/124 125/150/125 123/151/123 61/152/61
f 66/72/66 68/74/68 123/151/123 125/150/125
f 126/153/126 127/154/127 125/150/125 124/149/124
f 128/155/128 66/72/66 125/150/125 127/154/127
f 129/156/129 130/157/130 128/155/128 127/154/127
f 47/49/47 50/52/50 128/155/128 130/157/130
f 52/54/52 66/72/66 128/155/128 50/52/50
f 131/158/131 132/159/132 130/157/130 129/156/129
f 19/21/19 47/49/47 130/157/130 132/159/132
f 133/160/133 134/161/134 132/159/132 131/158/131
f 18/20/18 19/21/19 132/159/132 134/161/134
f 135/162/135 136/163/136 134/161/134 133/160/133
f 15/17/15 18/20/18 134/161/134 136/163/136
f 33/35/33 34/36/34 136/163/136 135/162/135
f 35/37/35 15/17/15 136/163/136 34/36/34
f 137/164/137 33/35/33 135/162/135 138/165/138
f 139/166/139 138/165/138 135/162/135 133/160/133
f 140/167/140 138/165/138 139/166/139 141/168/141
f 131/158/131 142/169/142 139/166/139 133/160/133
f 1/170/1 141/168/141 139/166/139 142/169/142
f 129/156/129 143/171/143 142/169/142 131/158/131
f 2/172/2 1/170/1 142/169/142 143/171/143
f 127/154/127 126/153/126 143/171/143 129/156/129
f 144/173/144 2/172/2 143/171/143 126/153/126
f 3/3/3 2/2/2 144/174/144 6/6/6
f 124/175/124 145/176/145 144/174/144 126/177/126
f 146/178/146 6/6/6 144/174/144 145/176/145
f 5/5/5 6/6/6 146/178/146 22/24/22
f 60/65/60 59/64/59 146/178/146 145/176/145
f 23/25/23 22/24/22 146/178/146 59/64/59
f 61/66/61 60/65/60 145/176/145 124/175/124
f 7/179/7 147/180/147 140/167/140 148/181/148
f 137/164/137 138/165/138 140/167/140 147/180/147
f 149/182/149 148/181/148 140/167/140 141/168/141
f 150/183/150 148/184/148 149/185/149 151/186/151
f 1/1/1 4/4/4 149/185/149 141/187/141
f 5/5/5 151/186/151 149/185/149 4/4/4
f 7/7/7 148/184/148 150/183/150 8/8/8
f 25/27/25 28/30/28 150/183/150 151/186/151
f 11/11/11 8/8/8 150/183/150 28/30/28
f 22/24/22 25/27/25 151/186/151 5/5/5
f 10/188/10 152/189/152 147/180/147 7/179/7
f 153/190/153 137/164/137 147/180/147 152/189/152
f 154/191/154 155/192/155 153/190/153 152/189/152
f 29/31/29 32/34/32 153/190/153 155/192/155
f 33/35/33 137/164/137 153/190/153 32/34/32
f 156/193/156 157/194/157 155/192/155 154/191/154
f 158/195/158 29/31/29 155/192/155 157/194/157
f 72/80/72 75/83/75 158/195/158 157/194/157
f 42/44/42 41/43/41 158/195/158 75/83/75
f 30/32/30 29/31/29 158/195/158 41/43/41
f 159/196/159 72/80/72 157/194/157 156/193/156
f 63/197/63 65/198/65 159/196/159 13/13/13
f 73/81/73 72/80/72 159/196/159 65/198/65
f 14/14/14 13/13/13 159/196/159 156/193/156
f 160/199/160 14/14/14 156/193/156 154/191/154
f 10/188/10 160/199/160 154/191/154 152/189/152
f 78/86/78 161/200/161 108/121/108 107/120/107
f 76/84/76 77/85/77 108/121/108 161/200/161
f 46/48/46 43/45/43 161/200/161 78/86/78
f 42/44/42 76/84/76 161/200/161 43/45/43
f 67/73/67 78/86/78 107/120/107 70/201/70
f 84/92/84 85/93/85 101/109/101 99/107/99
f 62/67/62 58/60/58 96/104/96 98/106/98
f 65/71/65 64/70/64 80/111/80 73/202/73
f 45/47/45 46/48/46 71/79/71 51/53/51
f 12/12/12 40/42/40 63/69/63 13/203/13
f 26/28/26 23/25/23 59/64/59 38/40/38
f 21/23/21 45/47/45 48/50/48 20/22/20
f 19/21/19 20/22/20 48/50/48 47/49/47
f 35/37/35 30/32/30 41/43/41 44/46/44
f 15/17/15 35/37/35 44/46/44 16/18/16
f 11/11/11 37/39/37 40/42/40 12/12/12
f 28/30/28 27/29/27 37/39/37 11/11/11
f 160/199/160 10/188/10 9/15/9 14/14/14
