# split from a merged terrain OBJ by scripts/split-terrain-obj-parts.py
o part-051
v 0.381900 1.171407 0.012210
v 0.383312 1.172339 0.012079
v 0.383426 1.172716 0.015056
v 0.382037 1.172024 0.014848
v 0.382491 1.173372 0.011576
v 0.382521 1.173754 0.014188
v 0.382243 1.173468 0.016237
v 0.380040 1.172010 0.014741
v 0.380374 1.173982 0.015616
v 0.380894 1.174473 0.013432
v 0.372306 1.173689 0.006186
v 0.374039 1.174590 0.004982
v 0.373601 1.173386 0.003539
v 0.371710 1.173007 0.005099
v 0.376405 1.174543 0.004440
v 0.375933 1.173156 0.002840
v 0.375251 1.171502 0.002034
v 0.373654 1.172217 0.002585
v 0.373014 1.171573 0.004425
v 0.375146 1.170746 0.003862
v 0.378263 1.172770 0.002707
v 0.377828 1.170907 0.001647
v 0.377571 1.170172 0.003546
v 0.375287 1.170724 0.006029
v 0.377521 1.170303 0.005683
v 0.380277 1.170848 0.002085
v 0.380026 1.170167 0.003464
v 0.379989 1.170167 0.005591
v 0.377601 1.170559 0.007725
v 0.379969 1.170431 0.007554
v 0.382663 1.169772 0.003707
v 0.382311 1.170317 0.005637
v 0.381898 1.170827 0.007623
v 0.379892 1.170770 0.009565
v 0.381777 1.171135 0.009668
v 0.384128 1.170944 0.005583
v 0.383316 1.171501 0.007508
v 0.382916 1.171902 0.009585
v 0.382653 1.172765 0.007000
v 0.382465 1.173133 0.009147
v 0.380971 1.173776 0.006636
v 0.380886 1.174046 0.008771
v 0.380954 1.174239 0.011009
v 0.379155 1.174952 0.008428
v 0.379190 1.175030 0.010520
v 0.379163 1.175131 0.012672
v 0.377246 1.175686 0.010018
v 0.377285 1.175761 0.012070
v 0.377188 1.175499 0.013772
v 0.378850 1.174622 0.014510
v 0.376925 1.173815 0.013486
v 0.378483 1.172811 0.014241
v 0.376634 1.172696 0.011876
v 0.378256 1.171483 0.012296
v 0.380011 1.171229 0.012212
v 0.377976 1.171091 0.009826
v 0.376147 1.171833 0.010063
v 0.375699 1.171147 0.008042
v 0.374601 1.173319 0.009858
v 0.374044 1.172633 0.008158
v 0.373388 1.172035 0.006405
v 0.373082 1.174607 0.007623
v 0.374921 1.176118 0.008077
v 0.374619 1.175894 0.006546
v 0.373352 1.175081 0.009079
v 0.377074 1.175559 0.008114
v 0.376850 1.175420 0.006338
v 0.378987 1.174573 0.006424
v 0.378660 1.173905 0.004498
v 0.380925 1.173201 0.004628
v 0.380748 1.172276 0.002870
v 0.383057 1.172139 0.005018
v 0.383215 1.171419 0.003216
v 0.382343 1.170692 0.002156
v 0.384601 1.170726 0.004317
v 0.375247 1.176268 0.009832
v 0.373533 1.175564 0.010487
v 0.373880 1.175650 0.011673
v 0.375467 1.176375 0.011616
v 0.374958 1.174155 0.011348
v 0.375108 1.174951 0.012543
v 0.375921 1.176224 0.013060
vt 0.825508 0.022343
vt 0.825606 0.023387
vt 0.824608 0.023270
vt 0.824461 0.022612
vt 0.825233 0.024498
vt 0.824232 0.023803
vt 0.823981 0.023173
vt 0.823704 0.022146
vt 0.823072 0.022932
vt 0.823005 0.023807
vt 0.822107 0.016495
vt 0.821311 0.015575
vt 0.822923 0.014831
vt 0.822789 0.016169
vt 0.563578 0.967088
vt 0.562924 0.968095
vt 0.561847 0.967244
vt 0.562571 0.966314
vt 0.825150 0.015145
vt 0.823918 0.015297
vt 0.824753 0.014299
vt 0.823784 0.016192
vt 0.825074 0.016340
vt 0.563985 0.968735
vt 0.563606 0.969928
vt 0.562288 0.969072
vt 0.826575 0.016962
vt 0.826988 0.015865
vt 0.824594 0.017419
vt 0.825854 0.017959
vt 0.564889 0.970147
vt 0.565255 0.971128
vt 0.563802 0.971136
vt 0.827028 0.018890
vt 0.827691 0.017882
vt 0.825235 0.018903
vt 0.826405 0.019853
vt 0.566794 0.970729
vt 0.568226 0.970651
vt 0.567083 0.971955
vt 0.827078 0.021560
vt 0.827988 0.019869
vt 0.825697 0.020553
vt 0.826334 0.021851
vt 0.567641 0.969765
vt 0.567909 0.968699
vt 0.568817 0.969050
vt 0.826670 0.023215
vt 0.827670 0.021491
vt 0.567360 0.967957
vt 0.567971 0.966872
vt 0.568629 0.967339
vt 0.826976 0.023591
vt 0.566397 0.967377
vt 0.567007 0.966409
vt 0.567741 0.965485
vt 0.568685 0.965775
vt 0.566007 0.965886
vt 0.566578 0.964943
vt 0.821241 0.023624
vt 0.823520 0.024704
vt 0.822055 0.025139
vt 0.565449 0.964555
vt 0.565767 0.963517
vt 0.566801 0.963876
vt 0.821192 0.022018
vt 0.822079 0.022603
vt 0.820391 0.022179
vt 0.822054 0.021367
vt 0.822907 0.021771
vt 0.822873 0.020409
vt 0.823834 0.020903
vt 0.824744 0.021296
vt 0.824595 0.019835
vt 0.823487 0.019453
vt 0.824093 0.018435
vt 0.822361 0.019017
vt 0.822785 0.018098
vt 0.823209 0.017174
vt 0.821521 0.017536
vt 0.820212 0.018327
vt 0.820473 0.017324
vt 0.821248 0.018495
vt 0.564901 0.965380
vt 0.564335 0.966168
vt 0.563398 0.965451
vt 0.563946 0.964653
vt 0.565373 0.966805
vt 0.564652 0.967701
vt 0.565722 0.968294
vt 0.565156 0.969207
vt 0.566809 0.968851
vt 0.566267 0.969669
vt 0.565828 0.970183
vt 0.567000 0.969817
vt 0.564522 0.963930
vt 0.820944 0.019295
vt 0.819837 0.019335
vt 0.820782 0.019921
vt 0.819806 0.020434
vt 0.564878 0.963140
vt 0.821863 0.019861
vt 0.821324 0.020481
vt 0.820731 0.021077
vn 0.3136 -0.9374 0.1512
vn 0.9780 -0.2081 -0.0160
vn 0.9204 -0.1635 0.3550
vn 0.2755 -0.7791 0.5631
vn 0.6977 0.7073 -0.1140
vn 0.6289 0.7641 0.1435
vn 0.3035 0.2528 0.9187
vn -0.2739 -0.7141 0.6443
vn -0.1285 0.4336 0.8919
vn 0.3465 0.9343 0.0844
vn -0.9691 0.2095 0.1305
vn -0.3485 0.8171 -0.4592
vn -0.4826 0.5451 -0.6855
vn -0.9930 0.0393 -0.1110
vn 0.0885 0.8254 -0.5575
vn -0.0207 0.6493 -0.7602
vn -0.3093 -0.2793 -0.9090
vn -0.5442 -0.1241 -0.8297
vn -0.7300 -0.6634 -0.1641
vn -0.3503 -0.9220 -0.1652
vn 0.1432 0.6443 -0.7513
vn -0.0344 -0.3491 -0.9364
vn -0.1269 -0.9740 -0.1877
vn -0.3556 -0.9165 0.1831
vn -0.1233 -0.9882 0.0909
vn 0.1084 -0.2953 -0.9492
vn -0.0339 -0.9799 -0.1966
vn -0.0031 -0.9925 0.1221
vn -0.1547 -0.9648 0.2128
vn 0.0456 -0.9831 0.1773
vn 0.2887 -0.9270 -0.2395
vn 0.1920 -0.9490 0.2502
vn 0.2923 -0.9280 0.2312
vn 0.0254 -0.9844 0.1738
vn 0.3452 -0.9275 0.1436
vn 0.9405 -0.2031 0.2725
vn 0.9344 -0.2496 0.2540
vn 0.9548 -0.2916 0.0569
vn 0.6976 0.7145 -0.0543
vn 0.7325 0.6776 -0.0657
vn 0.4496 0.8722 -0.1929
vn 0.4789 0.8724 -0.0982
vn 0.4619 0.8834 -0.0792
vn 0.3813 0.9178 -0.1104
vn 0.3759 0.9249 -0.0573
vn 0.3254 0.9406 0.0974
vn 0.3047 0.9499 -0.0699
vn 0.3339 0.9415 0.0452
vn -0.1168 0.6201 0.7758
vn -0.1588 0.5872 0.7937
vn -0.5805 -0.3453 0.7374
vn -0.5150 -0.4653 0.7199
vn -0.5985 -0.6611 0.4525
vn -0.3924 -0.8439 0.3659
vn -0.0677 -0.9664 0.2479
vn -0.2434 -0.9341 0.2613
vn -0.5185 -0.7607 0.3906
vn -0.4208 -0.8457 0.3281
vn -0.7341 -0.5410 0.4103
vn -0.7202 -0.5510 0.4216
vn -0.6419 -0.6634 0.3846
vn -0.9393 0.3041 0.1588
vn -0.1798 0.9774 -0.1110
vn -0.2611 0.9221 -0.2856
vn -0.9426 0.2711 0.1950
vn 0.2867 0.9502 -0.1223
vn 0.2226 0.9203 -0.3216
vn 0.3535 0.8985 -0.2604
vn 0.2635 0.8432 -0.4686
vn 0.3740 0.8543 -0.3610
vn 0.2613 0.6966 -0.6682
vn 0.6075 0.7777 -0.1619
vn 0.6495 0.3948 -0.6499
vn 0.2821 -0.2337 -0.9305
vn 0.9753 -0.1843 -0.1219
vn -0.0835 0.9938 -0.0730
vn -0.9139 0.3273 0.2402
vn -0.8595 0.2533 0.4440
vn -0.1202 0.9713 0.2051
vn -0.7005 -0.5687 0.4312
vn -0.7055 -0.1643 0.6894
vn -0.1833 0.7317 0.6565
f 1/1/1 2/2/2 3/3/3 4/4/4
f 5/5/5 6/6/6 3/3/3 2/2/2
f 7/7/7 4/4/4 3/3/3 6/6/6
f 8/8/8 4/4/4 7/7/7 9/9/9
f 10/10/10 9/9/9 7/7/7 6/6/6
f 11/11/11 12/12/12 13/13/13 14/14/14
f 15/15/15 16/16/16 13/17/13 12/18/12
f 17/19/17 18/20/18 13/13/13 16/21/16
f 19/22/19 18/20/18 17/19/17 20/23/20
f 21/24/21 22/25/22 17/26/17 16/16/16
f 23/27/23 20/23/20 17/19/17 22/28/22
f 24/29/24 20/23/20 23/27/23 25/30/25
f 26/31/26 27/32/27 23/33/23 22/25/22
f 28/34/28 25/30/25 23/27/23 27/35/27
f 29/36/29 25/30/25 28/34/28 30/37/30
f 31/38/31 32/39/32 28/40/28 27/32/27
f 33/41/33 30/37/30 28/34/28 32/42/32
f 34/43/34 30/37/30 33/41/33 35/44/35
f 36/45/36 37/46/37 33/47/33 32/39/32
f 38/48/38 35/44/35 33/41/33 37/49/37
f 39/50/39 40/51/40 38/52/38 37/46/37
f 5/5/5 2/2/2 38/48/38 40/53/40
f 1/1/1 35/44/35 38/48/38 2/2/2
f 41/54/41 42/55/42 40/51/40 39/50/39
f 43/56/43 5/57/5 40/51/40 42/55/42
f 44/58/44 45/59/45 43/56/43 42/55/42
f 46/60/46 10/10/10 43/61/43 45/62/45
f 6/6/6 5/5/5 43/61/43 10/10/10
f 47/63/47 48/64/48 46/65/46 45/59/45
f 49/66/49 50/67/50 46/60/46 48/68/48
f 9/9/9 10/10/10 46/60/46 50/67/50
f 51/69/51 52/70/52 50/67/50 49/66/49
f 8/8/8 9/9/9 50/67/50 52/70/52
f 53/71/53 54/72/54 52/70/52 51/69/51
f 55/73/55 8/8/8 52/70/52 54/72/54
f 56/74/56 34/43/34 55/73/55 54/72/54
f 35/44/35 1/1/1 55/73/55 34/43/34
f 4/4/4 8/8/8 55/73/55 1/1/1
f 53/71/53 57/75/57 56/74/56 54/72/54
f 58/76/58 29/36/29 56/74/56 57/75/57
f 30/37/30 34/43/34 56/74/56 29/36/29
f 59/77/59 60/78/60 58/76/58 57/75/57
f 61/79/61 24/29/24 58/76/58 60/78/60
f 25/30/25 29/36/29 58/76/58 24/29/24
f 62/80/62 11/11/11 61/79/61 60/78/60
f 14/14/14 19/22/19 61/79/61 11/11/11
f 20/23/20 24/29/24 61/79/61 19/22/19
f 63/81/63 64/82/64 62/80/62 65/83/65
f 12/12/12 11/11/11 62/80/62 64/82/64
f 59/77/59 65/83/65 62/80/62 60/78/60
f 66/84/66 67/85/67 64/86/64 63/87/63
f 15/15/15 12/18/12 64/86/64 67/85/67
f 44/58/44 68/88/68 67/85/67 66/84/66
f 69/89/69 15/15/15 67/85/67 68/88/68
f 16/16/16 15/15/15 69/89/69 21/24/21
f 41/54/41 70/90/70 69/89/69 68/88/68
f 71/91/71 21/24/21 69/89/69 70/90/70
f 22/25/22 21/24/21 71/91/71 26/31/26
f 72/92/72 73/93/73 71/91/71 70/90/70
f 74/94/74 26/31/26 71/91/71 73/93/73
f 41/54/41 39/50/39 72/92/72 70/90/70
f 37/46/37 36/45/36 72/92/72 39/50/39
f 75/95/75 73/93/73 72/92/72 36/45/36
f 42/55/42 41/54/41 68/88/68 44/58/44
f 76/96/76 47/63/47 66/84/66 63/87/63
f 45/59/45 44/58/44 66/84/66 47/63/47
f 65/83/65 77/97/77 76/98/76 63/81/63
f 78/99/78 79/100/79 76/98/76 77/97/77
f 48/64/48 47/63/47 76/96/76 79/101/79
f 59/77/59 80/102/80 77/97/77 65/83/65
f 81/103/81 78/99/78 77/97/77 80/102/80
f 57/75/57 53/71/53 80/102/80 59/77/59
f 51/69/51 81/103/81 80/102/80 53/71/53
f 82/104/82 81/103/81 51/69/51 49/66/49
f 79/100/79 82/104/82 49/66/49 48/68/48
f 31/38/31 75/95/75 36/45/36 32/39/32
f 74/94/74 31/38/31 27/32/27 26/31/26
f 74/94/74 73/93/73 75/95/75 31/38/31
f 78/99/78 81/103/81 82/104/82 79/100/79
f 14/14/14 13/13/13 18/20/18 19/22/19
