# split from a merged terrain OBJ by scripts/split-terrain-obj-parts.py
o part-027
v 0.419959 1.162319 0.028421
v 0.413496 1.155895 0.021223
v 0.418032 1.151707 0.024110
v 0.422180 1.155057 0.028363
v 0.419130 1.147080 0.015313
v 0.424412 1.148325 0.022081
v 0.429166 1.180683 0.042402
v 0.439066 1.174616 0.045377
v 0.440186 1.180694 0.043269
v 0.436432 1.182296 0.037977
v 0.447581 1.175089 0.040404
v 0.453752 1.177063 0.033286
v 0.455791 1.181625 0.034610
v 0.447653 1.181645 0.040194
v 0.443656 1.183970 0.032768
v 0.450191 1.185476 0.027827
v 0.451816 1.180694 0.024940
v 0.429167 1.182496 0.017566
v 0.424013 1.179520 0.023940
v 0.423404 1.185892 0.024164
v 0.429116 1.188134 0.020639
v 0.432868 1.185159 0.029253
v 0.426058 1.183410 0.033355
v 0.426673 1.175748 0.031776
v 0.447553 1.181839 0.016723
v 0.442959 1.181982 0.009985
v 0.442740 1.189477 0.013302
v 0.445802 1.187808 0.020304
v 0.439532 1.186628 0.024501
v 0.435455 1.189469 0.015940
v 0.434812 1.183422 0.013367
v 0.434475 1.180012 0.011014
v 0.429226 1.176343 0.015311
v 0.424653 1.172932 0.022513
v 0.422159 1.167619 0.021584
v 0.426033 1.169619 0.016692
v 0.420105 1.172871 0.011682
v 0.430167 1.174547 0.012765
v 0.431160 1.181885 0.007218
v 0.455157 1.161623 0.014270
v 0.460157 1.166022 0.010257
v 0.452482 1.168466 0.013591
v 0.452197 1.165230 0.021801
v 0.453069 1.170354 0.028930
v 0.451232 1.174232 0.021101
v 0.464901 1.169615 0.007918
v 0.457155 1.171884 0.007340
v 0.449783 1.173092 0.006235
v 0.448946 1.170523 0.010784
v 0.447812 1.175039 0.013357
v 0.415403 1.167544 0.018562
v 0.420441 1.184283 0.009146
v 0.456720 1.231805 -0.000077
v 0.463513 1.232815 -0.006483
v 0.463815 1.236618 -0.004096
v 0.454811 1.237145 -0.001743
v 0.449935 1.239169 -0.010142
v 0.456812 1.240136 -0.013569
v 0.459024 1.235469 -0.015752
v 0.444726 1.238881 -0.026499
v 0.446004 1.240891 -0.019040
v 0.452682 1.241467 -0.021492
v 0.454297 1.238194 -0.024805
v 0.464281 1.213326 -0.010272
v 0.465673 1.205035 -0.008826
v 0.468865 1.206377 -0.018887
v 0.464189 1.214507 -0.019708
v 0.470240 1.202956 -0.032607
v 0.463136 1.206316 -0.027937
v 0.478300 1.204351 -0.020722
v 0.459919 1.213688 -0.027339
v 0.473800 1.194438 -0.014364
v 0.478418 1.194091 -0.023180
v 0.471762 1.190819 -0.036500
v 0.449988 1.183717 0.002790
v 0.450147 1.178209 0.002814
v 0.461952 1.177221 0.002956
v 0.459075 1.184509 -0.001065
v 0.467321 1.184604 -0.007590
v 0.472502 1.177991 -0.001692
v 0.473944 1.171312 0.003564
v 0.469217 1.174995 0.006622
v 0.424205 1.235675 0.011116
v 0.414570 1.235706 0.009095
v 0.418578 1.231582 0.018700
v 0.427104 1.231991 0.018603
v 0.410615 1.229767 0.006327
v 0.417331 1.225326 0.015951
v 0.427479 1.224425 0.017080
v 0.463718 1.194841 -0.041545
v 0.465626 1.203977 -0.039883
v 0.458980 1.204403 -0.033787
v 0.455524 1.198928 -0.041147
v 0.471000 1.165715 0.007747
v 0.461948 1.183360 -0.050226
v 0.470506 1.181359 -0.049582
v 0.475223 1.172484 -0.047636
v 0.474464 1.175056 -0.031339
v 0.478634 1.182803 -0.020909
v 0.441350 1.182912 0.005817
v 0.445403 1.176724 0.009102
v 0.440721 1.187551 0.005307
v 0.476900 1.166242 -0.000101
v 0.471858 1.160802 0.003436
v 0.464385 1.160213 0.007135
v 0.465780 1.163344 0.007940
v 0.426396 1.167700 0.029441
v 0.428890 1.162705 0.033179
v 0.433861 1.159549 0.033828
v 0.424644 1.151916 0.027878
v 0.405511 1.167397 0.012863
v 0.408944 1.178153 0.009290
v 0.410518 1.188465 0.004678
v 0.483994 1.169400 -0.011853
v 0.480356 1.164364 -0.018756
v 0.476729 1.156052 -0.014764
v 0.468447 1.160495 -0.032709
v 0.470648 1.160435 -0.048574
v 0.478407 1.160464 -0.004201
v 0.447527 1.153568 0.020604
v 0.446635 1.160369 0.029123
v 0.460863 1.154651 0.006098
v 0.439347 1.146869 0.013056
v 0.454836 1.149050 -0.000703
v 0.446901 1.207994 -0.042235
v 0.454360 1.212085 -0.032723
v 0.452020 1.220716 -0.035021
v 0.447447 1.217178 -0.039589
v 0.445944 1.216606 -0.048377
v 0.446725 1.209612 -0.048374
v 0.437339 1.204269 -0.053829
v 0.443063 1.195504 -0.052212
v 0.474053 1.171238 -0.058111
v 0.471981 1.178271 -0.060162
v 0.467125 1.167341 -0.061228
v 0.462629 1.177199 -0.060356
v 0.437896 1.212949 -0.059055
v 0.404325 1.223834 -0.018039
v 0.399641 1.213296 -0.011823
v 0.407182 1.215808 -0.002832
v 0.413365 1.221384 -0.012657
v 0.415075 1.226821 -0.008231
v 0.409304 1.223045 0.002637
v 0.401598 1.200901 -0.009213
v 0.408293 1.201898 0.001784
v 0.415047 1.226598 -0.030108
v 0.404962 1.225917 -0.040658
v 0.397376 1.220297 -0.028579
v 0.398410 1.213609 -0.046899
v 0.393829 1.209858 -0.028238
v 0.402604 1.152920 -0.026070
v 0.414455 1.148175 -0.024679
v 0.412222 1.145397 -0.011091
v 0.402860 1.147394 -0.006489
v 0.410982 1.147055 0.006663
v 0.420420 1.145323 -0.003762
v 0.427809 1.147353 -0.020830
v 0.467619 1.152024 -0.011189
v 0.456533 1.152049 -0.030540
v 0.458203 1.155697 -0.049583
v 0.438378 1.155821 -0.056321
v 0.431094 1.151334 -0.043808
v 0.444982 1.146975 -0.011799
v 0.424845 1.204318 -0.065395
v 0.421763 1.211195 -0.066833
v 0.431622 1.221587 -0.059876
v 0.419167 1.225865 -0.052355
v 0.412121 1.214795 -0.059866
v 0.412688 1.205523 -0.060265
v 0.423840 1.186657 -0.075531
v 0.428068 1.195539 -0.062809
v 0.439872 1.182446 -0.063243
v 0.430504 1.176327 -0.075792
v 0.430668 1.163241 -0.076342
v 0.441653 1.164680 -0.064028
v 0.455668 1.164334 -0.059023
v 0.452631 1.176422 -0.057248
v 0.453050 1.187112 -0.049705
v 0.414252 1.196008 -0.061084
v 0.413658 1.187203 -0.074001
v 0.403836 1.189483 -0.007654
v 0.400315 1.189263 -0.027823
v 0.395897 1.178486 -0.024825
v 0.399929 1.179547 -0.004492
v 0.397746 1.171256 -0.047202
v 0.392008 1.170375 -0.024737
v 0.399695 1.178602 -0.048381
v 0.396264 1.168096 -0.002152
v 0.425839 1.173946 -0.090754
v 0.422545 1.182986 -0.086932
v 0.414968 1.182039 -0.088416
v 0.418460 1.174796 -0.093954
v 0.414805 1.151477 -0.044171
v 0.423873 1.156197 -0.073484
v 0.417198 1.154073 -0.068256
v 0.409415 1.153412 -0.065785
v 0.402658 1.189700 -0.051241
v 0.397228 1.197378 -0.028516
v 0.399027 1.201752 -0.049077
v 0.402628 1.174952 -0.066835
v 0.406869 1.181102 -0.070285
v 0.421924 1.164151 -0.089303
v 0.413110 1.169808 -0.092218
v 0.408229 1.176441 -0.085199
v 0.408200 1.165746 -0.088396
v 0.402694 1.171016 -0.081538
v 0.398915 1.168684 -0.063363
v 0.395963 1.168187 -0.074985
v 0.392405 1.167055 -0.083179
v 0.398307 1.166138 -0.086389
v 0.402823 1.161074 -0.086977
v 0.403462 1.155439 -0.076603
v 0.398347 1.156009 -0.083188
v 0.409278 1.156599 -0.081454
v 0.415059 1.159750 -0.085515
v 0.393863 1.162892 -0.092826
v 0.396770 1.158813 -0.092908
v 0.394860 1.154491 -0.090229
v 0.392014 1.154964 -0.094796
v 0.394166 1.157885 -0.096312
v 0.389593 1.156071 -0.092632
v 0.389934 1.159728 -0.095428
v 0.390955 1.164816 -0.090348
v 0.388097 1.160476 -0.089109
v 0.390455 1.161808 -0.080722
v 0.389658 1.155628 -0.087651
v 0.456466 1.231412 -0.026582
v 0.446425 1.230366 -0.029941
v 0.433981 1.227677 -0.030945
v 0.436930 1.231517 -0.024735
v 0.441892 1.224723 -0.035812
v 0.436566 1.236926 -0.021382
v 0.458520 1.222358 -0.028352
v 0.429000 1.239187 -0.007753
v 0.417719 1.237968 -0.001657
v 0.422933 1.237263 0.002787
v 0.432054 1.237887 0.000153
v 0.435757 1.236337 0.009308
v 0.438641 1.232473 0.015264
v 0.449990 1.232039 0.007806
v 0.446677 1.236699 0.003639
v 0.442048 1.238038 -0.004718
v 0.438520 1.239111 -0.013704
v 0.426992 1.234675 -0.013165
v 0.415013 1.233725 -0.005570
v 0.426001 1.228792 -0.016237
v 0.422319 1.225642 -0.022250
v 0.428136 1.228314 -0.040599
v 0.439188 1.224827 -0.046482
v 0.438238 1.225027 0.013797
v 0.448980 1.225119 0.006796
v 0.456475 1.225544 -0.001071
v 0.448723 1.217602 0.005789
v 0.456137 1.218860 -0.002723
v 0.464268 1.220225 -0.008764
v 0.464156 1.226330 -0.006665
v 0.463167 1.222026 -0.019025
v 0.461196 1.229188 -0.017382
v 0.456891 1.211332 -0.002964
v 0.449954 1.200129 0.004696
v 0.458739 1.202713 -0.001576
v 0.448765 1.209416 0.004674
v 0.449911 1.190975 0.003380
v 0.459055 1.193077 -0.001284
v 0.466741 1.194385 -0.008286
v 0.474134 1.184814 -0.014162
v 0.478926 1.174869 -0.005608
v 0.439680 1.197445 0.007428
v 0.429177 1.195176 0.009364
v 0.438548 1.207220 0.009471
v 0.427993 1.206295 0.012144
v 0.418335 1.197128 0.010395
v 0.416679 1.208742 0.011696
v 0.438102 1.216508 0.011750
v 0.427501 1.215932 0.014776
v 0.416365 1.217530 0.013440
v 0.393493 1.156925 -0.080908
v 0.397927 1.156832 -0.073292
v 0.394258 1.161955 -0.072225
v 0.401196 1.154950 -0.063272
v 0.397415 1.161306 -0.062259
v 0.404742 1.155793 -0.044749
v 0.398896 1.162540 -0.045824
v 0.395087 1.161255 -0.025680
v 0.395834 1.156111 -0.002441
v 0.404750 1.155677 0.012749
v 0.431185 1.144802 0.004257
v 0.471104 1.156715 -0.001114
v 0.446852 1.167864 0.035636
v 0.437654 1.167970 0.039882
v 0.430643 1.171108 0.038278
vt 0.634475 0.772792
vt 0.630943 0.777850
vt 0.629231 0.774399
vt 0.631952 0.770445
vt 0.174747 0.712312
vt 0.169876 0.710188
vt 0.172474 0.707314
vt 0.176774 0.706060
vt 0.139399 0.697215
vt 0.145031 0.701388
vt 0.140681 0.701262
vt 0.136528 0.701567
vt 0.145254 0.705073
vt 0.143169 0.708659
vt 0.140358 0.707492
vt 0.141213 0.704262
vt 0.136904 0.705299
vt 0.136954 0.709727
vt 0.139355 0.711646
vt 0.644339 0.770332
vt 0.640965 0.769239
vt 0.642116 0.766516
vt 0.644264 0.767113
vt 0.645672 0.761334
vt 0.639825 0.763354
vt 0.638096 0.765939
vt 0.136268 0.715571
vt 0.131214 0.720789
vt 0.132051 0.715837
vt 0.133903 0.712289
vt 0.131680 0.708165
vt 0.128508 0.714709
vt 0.128891 0.717497
vt 0.647417 0.770865
vt 0.647707 0.772810
vt 0.644435 0.773921
vt 0.639999 0.772228
vt 0.638129 0.774272
vt 0.641217 0.775560
vt 0.643382 0.779833
vt 0.645453 0.775952
vt 0.648405 0.774702
vt 0.149051 0.719352
vt 0.145038 0.722321
vt 0.143409 0.718690
vt 0.147492 0.715289
vt 0.145303 0.711554
vt 0.141618 0.714475
vt 0.142006 0.725358
vt 0.139073 0.723751
vt 0.136832 0.721786
vt 0.139746 0.719319
vt 0.138660 0.717371
vt 0.637484 0.778957
vt 0.650716 0.782039
vt 0.243802 0.931110
vt 0.246518 0.925534
vt 0.247541 0.927639
vt 0.248604 0.933288
vt 0.254916 0.932688
vt 0.254222 0.927829
vt 0.253499 0.924215
vt 0.264261 0.929517
vt 0.260527 0.931545
vt 0.259221 0.927557
vt 0.260365 0.925082
vt 0.241111 0.917502
vt 0.237175 0.916130
vt 0.243216 0.911681
vt 0.247510 0.914712
vt 0.139381 0.761566
vt 0.136443 0.763049
vt 0.132464 0.756793
vt 0.135318 0.754755
vt 0.253116 0.913144
vt 0.250108 0.909962
vt 0.131902 0.748799
vt 0.137994 0.752044
vt 0.143588 0.759415
vt 0.129297 0.727121
vt 0.132838 0.724696
vt 0.133912 0.729387
vt 0.130749 0.733002
vt 0.132355 0.738115
vt 0.135478 0.735235
vt 0.139822 0.731729
vt 0.138893 0.729219
vt 0.251606 0.948195
vt 0.255105 0.950936
vt 0.250016 0.951564
vt 0.246329 0.949630
vt 0.255619 0.953836
vt 0.248840 0.953539
vt 0.243640 0.951486
vt 0.146620 0.767799
vt 0.141788 0.765886
vt 0.138768 0.768006
vt 0.145035 0.771176
vt 0.144197 0.727888
vt 0.151310 0.767853
vt 0.150423 0.762663
vt 0.152582 0.758140
vt 0.147693 0.751247
vt 0.140686 0.748337
vt 0.127738 0.717589
vt 0.128778 0.721611
vt 0.134920 0.720336
vt 0.127563 0.722751
vt 0.125201 0.719096
vt 0.143203 0.733009
vt 0.146984 0.729600
vt 0.149111 0.724860
vt 0.146626 0.725317
vt 0.636908 0.769445
vt 0.634633 0.767539
vt 0.632971 0.764153
vt 0.630357 0.769136
vt 0.637220 0.785121
vt 0.643611 0.786414
vt 0.649594 0.788925
vt 0.141974 0.741002
vt 0.146960 0.742482
vt 0.150795 0.739045
vt 0.156780 0.747824
vt 0.159020 0.755881
vt 0.146363 0.734722
vt 0.158064 0.706038
vt 0.167177 0.707367
vt 0.155845 0.715586
vt 0.152287 0.711200
vt 0.153385 0.725181
vt 0.164395 0.717412
vt 0.159794 0.727138
vt 0.143143 0.775707
vt 0.137398 0.771805
vt 0.263166 0.917443
vt 0.258221 0.912664
vt 0.265757 0.911817
vt 0.266950 0.916557
vt 0.271476 0.915077
vt 0.270033 0.911815
vt 0.273748 0.906654
vt 0.271804 0.904280
vt 0.156394 0.761886
vt 0.155151 0.764397
vt 0.160319 0.762819
vt 0.158379 0.767819
vt 0.278085 0.912741
vt 0.671297 0.802195
vt 0.664287 0.800821
vt 0.665305 0.794028
vt 0.673011 0.796671
vt 0.265051 0.952037
vt 0.269304 0.950181
vt 0.262792 0.960235
vt 0.258894 0.956457
vt 0.656890 0.798902
vt 0.657097 0.791852
vt 0.278180 0.940174
vt 0.285452 0.940773
vt 0.279471 0.948809
vt 0.273246 0.949895
vt 0.665749 0.819932
vt 0.663025 0.810096
vt 0.669302 0.810052
vt 0.673860 0.818318
vt 0.192488 0.732161
vt 0.185543 0.733910
vt 0.184387 0.725422
vt 0.188787 0.721100
vt 0.181261 0.715458
vt 0.178618 0.722978
vt 0.178024 0.733725
vt 0.155177 0.735102
vt 0.165039 0.743516
vt 0.166048 0.755249
vt 0.177211 0.757036
vt 0.180101 0.748099
vt 0.167526 0.731063
vt 0.284955 0.907907
vt 0.287454 0.912763
vt 0.282905 0.919838
vt 0.677942 0.828893
vt 0.679051 0.835248
vt 0.669155 0.834695
vt 0.668550 0.828722
vt 0.662307 0.828744
vt 0.666329 0.834866
vt 0.174659 0.782823
vt 0.166252 0.782440
vt 0.167575 0.775321
vt 0.176787 0.776076
vt 0.181904 0.769298
vt 0.174363 0.765282
vt 0.166980 0.763378
vt 0.162979 0.770172
vt 0.153551 0.772531
vt 0.155065 0.776812
vt 0.155739 0.781723
vt 0.280673 0.902146
vt 0.661434 0.834835
vt 0.655996 0.829982
vt 0.175710 0.788168
vt 0.168897 0.789518
vt 0.649926 0.797628
vt 0.650499 0.809448
vt 0.643765 0.808407
vt 0.643806 0.796282
vt 0.639861 0.821324
vt 0.638744 0.808385
vt 0.644328 0.821821
vt 0.637117 0.795244
vt 0.184289 0.779046
vt 0.180800 0.783395
vt 0.184113 0.785852
vt 0.187266 0.781414
vt 0.188436 0.745203
vt 0.186581 0.764750
vt 0.189833 0.760278
vt 0.193801 0.757194
vt 0.651152 0.822781
vt 0.655445 0.809614
vt 0.658586 0.820170
vt 0.642010 0.832293
vt 0.645907 0.834613
vt 0.650552 0.837315
vt 0.187918 0.774729
vt 0.191332 0.778100
vt 0.192516 0.784162
vt 0.196050 0.774166
vt 0.197002 0.778689
vt 0.642923 0.842918
vt 0.637897 0.839466
vt 0.637831 0.830328
vt 0.634676 0.836765
vt 0.632496 0.841300
vt 0.633966 0.843613
vt 0.635568 0.845501
vt 0.637733 0.845598
vt 0.197891 0.762074
vt 0.201387 0.766432
vt 0.198763 0.769350
vt 0.195052 0.766483
vt 0.192179 0.770936
vt 0.631733 0.847196
vt 0.632268 0.848943
vt 0.203684 0.768365
vt 0.203327 0.771956
vt 0.205889 0.771137
vt 0.205096 0.772188
vt 0.207559 0.771586
vt 0.206960 0.773238
vt 0.204219 0.773931
vt 0.630773 0.844839
vt 0.212224 0.773323
vt 0.207695 0.775698
vt 0.630289 0.840477
vt 0.628697 0.844720
vt 0.207567 0.769685
vt 0.258915 0.921417
vt 0.267071 0.924301
vt 0.272368 0.931436
vt 0.269026 0.933264
vt 0.270892 0.923389
vt 0.266265 0.934808
vt 0.256953 0.917059
vt 0.262003 0.942720
vt 0.260206 0.949412
vt 0.257711 0.947688
vt 0.255829 0.943461
vt 0.248257 0.944465
vt 0.243929 0.944781
vt 0.242556 0.937060
vt 0.247511 0.938097
vt 0.255354 0.938263
vt 0.262118 0.936713
vt 0.266585 0.942594
vt 0.261918 0.951432
vt 0.269510 0.942092
vt 0.273071 0.940606
vt 0.277151 0.930024
vt 0.275321 0.921096
vt 0.285128 0.929119
vt 0.240101 0.946189
vt 0.239406 0.937017
vt 0.240811 0.928635
vt 0.236062 0.933730
vt 0.238837 0.925851
vt 0.242838 0.920072
vt 0.244798 0.922322
vt 0.249781 0.917391
vt 0.251787 0.920872
vt 0.236274 0.923210
vt 0.230332 0.930718
vt 0.233029 0.922192
vt 0.233054 0.932820
vt 0.227336 0.929852
vt 0.229527 0.920902
vt 0.232682 0.913519
vt 0.129896 0.740604
vt 0.128594 0.736066
vt 0.135122 0.744353
vt 0.235417 0.909793
vt 0.138854 0.737385
vt 0.225038 0.928697
vt 0.225597 0.921426
vt 0.223371 0.935898
vt 0.224480 0.937808
vt 0.228034 0.941347
vt 0.221839 0.945694
vt 0.228798 0.949461
vt 0.231910 0.942554
vt 0.234752 0.953752
vt 0.233516 0.959426
vt 0.243464 0.958724
vt 0.235625 0.944098
vt 0.238617 0.951984
vt 0.246688 0.955824
vt 0.654866 0.784607
vt 0.223940 0.954381
vt 0.662534 0.784676
vt 0.626369 0.840650
vt 0.628534 0.839719
vt 0.626890 0.844307
vt 0.624498 0.845446
vt 0.624608 0.838799
vt 0.628696 0.836041
vt 0.631995 0.835274
vt 0.628879 0.830876
vt 0.633096 0.829793
vt 0.629783 0.821079
vt 0.634710 0.820694
vt 0.628007 0.810127
vt 0.633453 0.808937
vt 0.624957 0.798340
vt 0.630531 0.794904
vt 0.183662 0.708910
vt 0.191062 0.715176
vt 0.630596 0.784739
vt 0.194109 0.743380
vt 0.198090 0.754521
vt 0.200756 0.759935
vt 0.646554 0.844769
vt 0.171405 0.720160
vt 0.149805 0.731092
vt 0.253839 0.909357
vt 0.148878 0.707512
vt 0.151869 0.701005
vt 0.150895 0.696579
vt 0.158355 0.700663
vt 0.635021 0.762259
vt 0.636693 0.759192
vt 0.647317 0.767724
vt 0.126853 0.708077
vt 0.131151 0.702284
vt 0.132754 0.697108
vt 0.168930 0.705433
vn -0.6499 0.2345 0.7229
vn -0.6777 -0.2365 0.6963
vn -0.5608 -0.5889 0.5819
vn -0.4610 -0.3196 0.8279
vn -0.2905 -0.9103 0.2948
vn -0.1113 -0.8933 0.4354
vn -0.5857 0.3437 0.7341
vn 0.0589 -0.1562 0.9860
vn 0.1487 0.6531 0.7426
vn -0.0257 0.9057 0.4232
vn 0.5746 -0.2901 0.7653
vn 0.9579 -0.1521 0.2435
vn 0.8436 0.4461 0.2989
vn 0.4025 0.5722 0.7146
vn 0.0404 0.9512 0.3060
vn 0.5682 0.8227 -0.0151
vn 0.9159 0.2189 -0.3364
vn -0.7043 0.2518 -0.6637
vn -0.9838 0.0076 -0.1791
vn -0.8168 0.5706 -0.0854
vn -0.4602 0.8541 -0.2424
vn -0.0306 0.9487 0.3146
vn -0.7152 0.5529 0.4276
vn -0.9395 -0.1369 0.3140
vn 0.8504 0.3280 -0.4114
vn 0.5570 0.7796 -0.2863
vn 0.2847 0.8071 -0.5172
vn 0.5141 0.8561 -0.0526
vn 0.0204 0.9554 0.2947
vn -0.2960 0.8793 -0.3733
vn -0.4941 0.5150 -0.7004
vn -0.5507 0.8342 0.0294
vn -0.8288 0.5141 -0.2208
vn -0.9649 0.2399 -0.1066
vn -0.6429 0.6725 0.3666
vn -0.6153 0.7791 0.1203
vn -0.1443 0.6098 0.7793
vn -0.4079 0.6609 0.6299
vn -0.0090 0.3060 0.9520
vn 0.7515 -0.0739 0.6556
vn 0.4596 0.2421 0.8545
vn 0.7382 0.5967 0.3148
vn 0.9376 -0.1590 0.3092
vn 0.9478 -0.2486 0.1996
vn 0.9505 0.1841 -0.2502
vn 0.1924 0.3153 0.9293
vn 0.0985 0.6303 0.7701
vn 0.4420 0.6603 0.6072
vn 0.6179 0.7752 0.1316
vn 0.8553 0.4268 -0.2937
vn -0.4177 0.5620 0.7140
vn -0.1044 0.1531 0.9827
vn 0.6352 0.1028 0.7655
vn 0.9504 0.2178 0.2220
vn 0.6917 0.5821 0.4275
vn 0.2967 0.8022 0.5181
vn -0.0017 0.9794 0.2017
vn 0.4678 0.8828 -0.0422
vn 0.8573 0.3997 -0.3245
vn -0.1997 0.6837 -0.7019
vn -0.1362 0.9878 -0.0752
vn 0.2872 0.9310 -0.2254
vn 0.5119 0.6086 -0.6062
vn 0.8922 0.1776 0.4153
vn 0.7770 0.2641 0.5714
vn 0.7796 0.6116 0.1350
vn 0.9373 0.2511 -0.2416
vn 0.5834 0.6631 -0.4689
vn 0.5077 0.7438 -0.4347
vn 0.7984 0.5830 0.1509
vn 0.7667 0.2363 -0.5970
vn 0.7476 0.1725 0.6413
vn 0.9882 0.1526 0.0097
vn 0.8233 0.2594 -0.5049
vn 0.3571 0.2295 0.9055
vn 0.3584 0.4667 0.8086
vn 0.1632 0.6047 0.7795
vn 0.4202 0.2771 0.8641
vn 0.5860 0.4110 0.6983
vn 0.5214 0.6648 0.5350
vn 0.6610 0.3159 0.6806
vn 0.2902 0.5837 0.7583
vn -0.0207 0.9413 0.3370
vn -0.5981 0.7359 0.3175
vn -0.3835 0.3524 0.8537
vn 0.0769 0.3963 0.9149
vn -0.9563 0.2317 0.1784
vn -0.5468 -0.1440 0.8248
vn 0.0964 -0.2519 0.9629
vn 0.3505 0.5056 -0.7884
vn 0.2975 0.6598 -0.6900
vn 0.3724 0.6822 -0.6293
vn 0.3247 0.5227 -0.7882
vn 0.5151 -0.1327 0.8468
vn 0.1744 0.7299 -0.6609
vn 0.6974 0.6221 -0.3559
vn 0.9939 -0.0723 -0.0838
vn 0.9543 -0.0941 -0.2836
vn 0.9840 0.1659 -0.0643
vn 0.2069 0.6304 0.7482
vn 0.8950 0.4152 0.1631
vn 0.2311 0.0306 0.9725
vn 0.8090 -0.0681 0.5839
vn 0.6001 -0.4531 0.6592
vn 0.5238 -0.3862 0.7593
vn 0.3701 -0.2133 0.9042
vn -0.8351 0.1216 0.5364
vn -0.5077 -0.2185 0.8333
vn 0.0062 -0.6061 0.7954
vn -0.1064 -0.6932 0.7129
vn -0.6443 0.3028 0.7023
vn -0.4821 0.4458 0.7543
vn -0.6527 0.1628 0.7400
vn 0.9963 0.0189 0.0834
vn 0.8846 -0.2950 -0.3610
vn 0.6858 -0.7131 -0.1453
vn 0.6919 -0.6925 -0.2041
vn 0.6719 -0.7086 -0.2155
vn 0.7835 -0.4943 0.3764
vn 0.5098 -0.6898 0.5142
vn 0.5505 -0.6122 0.5676
vn 0.5300 -0.6784 0.5088
vn 0.2151 -0.9355 0.2801
vn 0.3126 -0.9393 0.1415
vn 0.7942 0.2121 -0.5694
vn 0.6817 0.2387 -0.6916
vn 0.5389 0.3278 -0.7760
vn 0.7808 0.3706 -0.5030
vn 0.8667 0.2820 -0.4114
vn 0.8656 -0.0745 -0.4951
vn 0.6952 -0.0236 -0.7184
vn 0.5944 0.3426 -0.7275
vn 0.8365 -0.0899 -0.5405
vn 0.5252 0.5408 -0.6571
vn 0.2842 -0.3821 -0.8794
vn -0.0282 0.4651 -0.8848
vn 0.6503 0.0949 -0.7537
vn -0.4563 0.8328 0.3135
vn -0.8406 0.2891 0.4580
vn -0.8621 0.2978 0.4100
vn -0.5160 0.8550 0.0527
vn -0.7539 0.4821 -0.4464
vn -0.9833 0.1215 0.1356
vn -0.9080 -0.1005 0.4068
vn -0.7819 -0.0116 0.6233
vn -0.1345 0.9854 0.1049
vn -0.5034 0.8344 -0.2244
vn -0.7618 0.6458 0.0509
vn -0.8415 0.2672 -0.4696
vn -0.9925 0.1082 0.0566
vn -0.5787 -0.7938 -0.1870
vn -0.1623 -0.9688 -0.1875
vn -0.1442 -0.9834 -0.1106
vn -0.5235 -0.8515 0.0304
vn -0.3747 -0.8831 0.2822
vn -0.0432 -0.9989 -0.0160
vn 0.0443 -0.9876 -0.1509
vn 0.3946 -0.9188 0.0086
vn 0.2663 -0.9480 -0.1740
vn 0.2707 -0.8870 -0.3740
vn 0.2641 -0.8811 -0.3922
vn 0.0788 -0.9807 -0.1789
vn 0.1405 -0.9864 -0.0855
vn 0.1209 -0.1265 -0.9846
vn -0.1383 0.2027 -0.9694
vn 0.2692 0.6512 -0.7096
vn -0.1954 0.8763 -0.4404
vn -0.5196 0.3645 -0.7727
vn -0.5393 -0.0775 -0.8385
vn 0.3684 0.7702 -0.5206
vn 0.3794 0.3340 -0.8629
vn 0.5913 0.3362 -0.7331
vn 0.8101 0.2372 -0.5362
vn 0.7211 -0.4378 -0.5369
vn 0.5589 -0.3287 -0.7613
vn 0.1719 -0.4195 -0.8914
vn 0.2196 0.3713 -0.9022
vn 0.3513 0.5496 -0.7580
vn -0.5016 0.3346 -0.7978
vn -0.4189 0.8019 -0.4260
vn -0.9226 0.1374 0.3605
vn -0.9988 0.0412 0.0272
vn -0.9324 0.3608 0.0195
vn -0.8491 0.3971 0.3483
vn -0.9799 0.1347 -0.1470
vn -0.9950 0.0964 -0.0275
vn -0.9337 0.3084 -0.1819
vn -0.9237 0.1638 0.3463
vn 0.6692 0.1251 -0.7325
vn 0.4259 0.7457 -0.5123
vn -0.3168 0.7092 -0.6298
vn -0.0236 0.1781 -0.9837
vn -0.1570 -0.9812 -0.1119
vn 0.3367 -0.8674 -0.3665
vn 0.0973 -0.9741 -0.2043
vn -0.1166 -0.9890 -0.0910
vn -0.9131 0.1490 -0.3795
vn -0.9732 -0.2254 0.0461
vn -0.8683 -0.1205 -0.4812
vn -0.8523 0.4922 -0.1766
vn -0.7914 0.5355 -0.2946
vn 0.4347 -0.5337 -0.7254
vn -0.3397 -0.1233 -0.9324
vn -0.7304 0.4550 -0.5094
vn -0.3135 -0.1487 -0.9379
vn -0.6159 0.6515 -0.4429
vn -0.9396 0.3422 0.0083
vn -0.7591 0.6447 0.0906
vn -0.6065 0.7940 -0.0419
vn 0.0209 0.7881 -0.6152
vn 0.3161 -0.3059 -0.8981
vn -0.0655 -0.9815 -0.1799
vn 0.1336 -0.9830 -0.1259
vn 0.0882 -0.8765 -0.4733
vn 0.1296 -0.7609 -0.6358
vn 0.0956 0.7290 -0.6778
vn 0.7245 -0.0928 -0.6830
vn 0.2872 -0.9483 -0.1353
vn -0.0786 -0.7993 -0.5957
vn 0.3417 -0.1380 -0.9296
vn -0.7256 -0.6214 -0.2957
vn -0.5641 0.2158 -0.7970
vn -0.4991 0.8054 -0.3197
vn -0.9886 0.1458 -0.0372
vn -0.9354 0.0229 0.3529
vn -0.6573 -0.7284 0.1932
vn 0.6402 0.4058 -0.6522
vn 0.0732 0.5578 -0.8267
vn -0.0768 0.9724 -0.2205
vn -0.4457 0.6377 -0.6283
vn 0.3168 0.8321 -0.4553
vn -0.5012 0.6801 -0.5350
vn 0.7356 0.2430 -0.6323
vn -0.1778 0.9722 -0.1524
vn -0.4225 0.8975 -0.1264
vn -0.0254 0.9828 0.1831
vn 0.0169 0.9880 0.1532
vn 0.1032 0.9327 0.3456
vn 0.3648 0.3931 0.8440
vn 0.6017 0.2920 0.7434
vn 0.2380 0.8945 0.3783
vn 0.0221 0.9879 0.1536
vn -0.1839 0.9810 -0.0623
vn -0.5008 0.6348 -0.5884
vn -0.7173 0.5228 -0.4606
vn -0.5601 0.6353 -0.5317
vn -0.2629 0.9638 -0.0456
vn 0.0687 0.9937 -0.0880
vn 0.4870 0.8167 -0.3096
vn 0.4090 -0.2005 0.8903
vn 0.6344 -0.1745 0.7531
vn 0.6818 -0.1533 0.7153
vn 0.6200 -0.1279 0.7741
vn 0.6828 -0.1171 0.7212
vn 0.9316 0.0027 0.3635
vn 0.9262 0.0267 0.3760
vn 0.9448 0.1790 -0.2746
vn 0.9131 0.2795 -0.2968
vn 0.6669 0.0863 0.7401
vn 0.4501 -0.0226 0.8927
vn 0.6262 0.1139 0.7713
vn 0.5485 -0.0180 0.8360
vn 0.3755 -0.0596 0.9249
vn 0.5785 0.0191 0.8155
vn 0.7066 0.1355 0.6945
vn 0.7754 0.3580 0.5202
vn 0.7776 0.4244 0.4640
vn 0.2774 -0.1398 0.9505
vn 0.1518 -0.1537 0.9764
vn 0.3339 -0.1597 0.9290
vn 0.0981 -0.2094 0.9729
vn -0.3257 -0.0947 0.9407
vn -0.5005 -0.1421 0.8540
vn 0.3876 -0.2013 0.8996
vn 0.0728 -0.2487 0.9658
vn -0.5668 -0.1983 0.7996
vn -0.5247 -0.7913 0.3140
vn -0.5299 -0.8358 0.1434
vn -0.9382 -0.1087 0.3287
vn -0.5523 -0.8303 0.0744
vn -0.9548 -0.2494 0.1616
vn -0.5632 -0.8248 -0.0501
vn -0.9195 -0.3873 -0.0672
vn -0.9053 -0.4089 -0.1150
vn -0.8899 -0.3877 0.2403
vn -0.7243 -0.3272 0.6069
vn 0.0389 -0.9979 0.0510
vn 0.5263 -0.7280 0.4394
vn 0.5596 -0.5556 0.6150
vn -0.0157 -0.5771 0.8165
vn -0.6806 -0.3321 0.6530
f 1/1/1 2/2/2 3/3/3 4/4/4
f 5/5/5 6/6/6 3/7/3 2/8/2
f 7/9/7 8/10/8 9/11/9 10/12/10
f 11/13/11 12/14/12 13/15/13 14/16/14
f 15/17/15 14/16/14 13/15/13 16/18/16
f 17/19/17 16/18/16 13/15/13 12/14/12
f 18/20/18 19/21/19 20/22/20 21/23/21
f 22/24/22 21/23/21 20/22/20 23/25/23
f 24/26/24 23/25/23 20/22/20 19/21/19
f 25/27/25 26/28/26 27/29/27 28/30/28
f 29/31/29 28/30/28 27/29/27 30/32/30
f 31/33/31 30/32/30 27/29/27 26/28/26
f 31/34/31 32/35/32 33/36/33 18/20/18
f 19/21/19 18/20/18 33/36/33 34/37/34
f 35/38/35 34/37/34 33/36/33 36/39/36
f 37/40/37 36/39/36 33/36/33 38/41/38
f 39/42/39 38/41/38 33/36/33 32/35/32
f 40/43/40 41/44/41 42/45/42 43/46/43
f 44/47/44 43/46/43 42/45/42 45/48/45
f 46/49/46 47/50/47 42/45/42 41/44/41
f 48/51/48 49/52/49 42/45/42 47/50/47
f 50/53/50 45/48/45 42/45/42 49/52/49
f 51/54/51 35/38/35 36/39/36 37/40/37
f 52/55/52 37/40/37 38/41/38 39/42/39
f 53/56/53 54/57/54 55/58/55 56/59/56
f 57/60/57 56/59/56 55/58/55 58/61/58
f 59/62/59 58/61/58 55/58/55 54/57/54
f 60/63/60 61/64/61 62/65/62 63/66/63
f 57/60/57 58/61/58 62/65/62 61/64/61
f 59/62/59 63/66/63 62/65/62 58/61/58
f 64/67/64 65/68/65 66/69/66 67/70/67
f 68/71/68 69/72/69 66/73/66 70/74/70
f 71/75/71 67/70/67 66/69/66 69/76/69
f 72/77/72 73/78/73 70/74/70 66/73/66
f 74/79/74 68/71/68 70/74/70 73/78/73
f 75/80/75 76/81/76 77/82/77 78/83/78
f 79/84/79 78/83/78 77/82/77 80/85/80
f 81/86/81 80/85/80 77/82/77 82/87/82
f 48/51/48 47/50/47 77/82/77 76/81/76
f 46/49/46 82/87/82 77/82/77 47/50/47
f 83/88/83 84/89/84 85/90/85 86/91/86
f 87/92/87 88/93/88 85/90/85 84/89/84
f 89/94/89 86/91/86 85/90/85 88/93/88
f 74/79/74 90/95/90 91/96/91 68/71/68
f 69/72/69 68/71/68 91/96/91 92/97/92
f 93/98/93 92/97/92 91/96/91 90/95/90
f 94/99/94 81/86/81 82/87/82 46/49/46
f 95/100/95 90/95/90 74/79/74 96/101/96
f 97/102/97 96/101/96 74/79/74 98/103/98
f 99/104/99 98/103/98 74/79/74 73/78/73
f 32/105/32 31/33/31 26/28/26 100/106/100
f 75/80/75 100/106/100 26/28/26 76/81/76
f 50/53/50 101/107/101 26/28/26 25/27/25
f 48/51/48 76/81/76 26/28/26 101/107/101
f 100/106/100 102/108/102 39/109/39 32/105/32
f 103/110/103 81/86/81 94/99/94 104/111/104
f 105/112/105 104/111/104 94/99/94 106/113/106
f 41/44/41 106/113/106 94/99/94 46/49/46
f 107/114/107 1/1/1 4/4/4 108/115/108
f 109/116/109 108/115/108 4/4/4 110/117/110
f 40/43/40 105/112/105 106/113/106 41/44/41
f 111/118/111 51/54/51 37/40/37 112/119/112
f 113/120/113 112/119/112 37/40/37 52/55/52
f 114/121/114 115/122/115 98/103/98 99/104/99
f 116/123/116 117/124/117 98/103/98 115/122/115
f 118/125/118 97/102/97 98/103/98 117/124/117
f 119/126/119 116/123/116 115/122/115 114/121/114
f 109/127/109 110/128/110 120/129/120 121/130/121
f 105/112/105 40/43/40 120/129/120 122/131/122
f 43/46/43 121/130/121 120/129/120 40/43/40
f 6/6/6 123/132/123 120/129/120 110/128/110
f 124/133/124 122/131/122 120/129/120 123/132/123
f 92/97/92 93/98/93 125/134/125 126/135/126
f 127/136/127 126/137/126 125/138/125 128/139/128
f 129/140/129 128/139/128 125/138/125 130/141/130
f 131/142/131 130/141/130 125/138/125 132/143/132
f 96/101/96 97/102/97 133/144/133 134/145/134
f 118/125/118 135/146/135 133/144/133 97/102/97
f 136/147/136 134/145/134 133/144/133 135/146/135
f 95/100/95 96/101/96 134/145/134 136/147/136
f 137/148/137 129/140/129 130/141/130 131/142/131
f 138/149/138 139/150/139 140/151/140 141/152/141
f 142/153/142 141/154/141 140/155/140 143/156/143
f 144/157/144 145/158/145 140/151/140 139/150/139
f 146/159/146 147/160/147 148/161/148 138/162/138
f 149/163/149 150/164/150 148/165/148 147/166/147
f 139/150/139 138/149/138 148/165/148 150/164/150
f 151/167/151 152/168/152 153/169/153 154/170/154
f 155/171/155 154/170/154 153/169/153 156/172/156
f 157/173/157 156/172/156 153/169/153 152/168/152
f 116/123/116 158/174/158 159/175/159 117/124/117
f 118/125/118 117/124/117 159/175/159 160/176/160
f 161/177/161 160/176/160 159/175/159 162/178/162
f 157/173/157 162/178/162 159/175/159 163/179/163
f 124/133/124 163/179/163 159/175/159 158/174/158
f 137/148/137 164/180/164 165/181/165 166/182/166
f 167/183/167 166/184/166 165/185/165 168/186/168
f 169/187/169 168/186/168 165/185/165 164/188/164
f 170/189/170 171/190/171 172/191/172 173/192/173
f 174/193/174 173/192/173 172/191/172 175/194/175
f 176/195/176 175/194/175 172/191/172 177/196/177
f 178/197/178 177/196/177 172/191/172 132/198/132
f 131/199/131 132/198/132 172/191/172 171/190/171
f 137/148/137 131/142/131 171/200/171 164/180/164
f 169/187/169 164/188/164 171/201/171 179/202/179
f 180/203/180 179/204/179 171/190/171 170/189/170
f 181/205/181 182/206/182 183/207/183 184/208/184
f 185/209/185 186/210/186 183/207/183 187/211/187
f 188/212/188 184/208/184 183/207/183 186/210/186
f 173/192/173 189/213/189 190/214/190 170/189/170
f 180/203/180 170/189/170 190/214/190 191/215/191
f 192/216/192 191/215/191 190/214/190 189/213/189
f 152/168/152 193/217/193 162/178/162 157/173/157
f 194/218/194 161/177/161 162/178/162 195/219/195
f 196/220/196 195/219/195 162/178/162 193/217/193
f 197/221/197 187/211/187 183/207/183 182/206/182
f 198/222/198 199/223/199 197/221/197 182/206/182
f 169/187/169 179/202/179 197/221/197 199/223/199
f 200/224/200 187/211/187 197/221/197 201/225/201
f 180/226/180 201/225/201 197/221/197 179/202/179
f 202/227/202 203/228/203 192/216/192 189/213/189
f 204/229/204 191/215/191 192/216/192 203/228/203
f 203/228/203 205/230/205 206/231/206 204/229/204
f 201/225/201 204/232/204 206/233/206 200/224/200
f 207/234/207 200/224/200 206/233/206 208/235/208
f 209/236/209 208/235/208 206/233/206 210/237/210
f 211/238/211 210/237/210 206/233/206 205/239/205
f 212/240/212 213/241/213 211/242/211 214/243/214
f 215/244/215 214/243/214 211/242/211 205/230/205
f 216/245/216 210/237/210 211/238/211 217/246/217
f 218/247/218 217/248/217 211/242/211 213/241/213
f 218/247/218 219/249/219 220/250/220 217/248/217
f 221/251/221 222/252/222 220/250/220 219/249/219
f 216/253/216 217/248/217 220/250/220 222/252/222
f 210/237/210 216/245/216 223/254/223 209/236/209
f 222/252/222 224/255/224 223/256/223 216/253/216
f 225/257/225 209/236/209 223/254/223 224/258/224
f 226/259/226 221/251/221 219/249/219 218/247/218
f 224/255/224 222/252/222 221/251/221 226/259/226
f 63/66/63 227/260/227 228/261/228 60/63/60
f 229/262/229 230/263/230 228/261/228 231/264/231
f 232/265/232 60/63/60 228/261/228 230/263/230
f 233/266/233 127/136/127 228/261/228 227/260/227
f 128/139/128 231/264/231 228/261/228 127/136/127
f 234/267/234 235/268/235 236/269/236 237/270/237
f 84/89/84 83/88/83 236/269/236 235/268/235
f 238/271/238 237/270/237 236/269/236 83/88/83
f 86/91/86 239/272/239 238/271/238 83/88/83
f 240/273/240 241/274/241 238/271/238 239/272/239
f 242/275/242 237/270/237 238/271/238 241/274/241
f 56/59/56 57/60/57 242/275/242 241/274/241
f 61/64/61 243/276/243 242/275/242 57/60/57
f 234/267/234 237/270/237 242/275/242 243/276/243
f 60/63/60 232/265/232 243/276/243 61/64/61
f 244/277/244 234/267/234 243/276/243 232/265/232
f 235/268/235 234/267/234 244/277/244 245/278/245
f 230/263/230 246/279/246 244/277/244 232/265/232
f 142/153/142 245/278/245 244/277/244 246/279/246
f 229/262/229 247/280/247 246/279/246 230/263/230
f 141/154/141 142/153/142 246/279/246 247/280/247
f 248/281/248 146/159/146 247/280/247 229/262/229
f 138/162/138 141/154/141 247/280/247 146/159/146
f 231/264/231 249/282/249 248/281/248 229/262/229
f 166/182/166 167/283/167 248/281/248 249/282/249
f 147/160/147 146/159/146 248/281/248 167/283/167
f 128/139/128 129/140/129 249/282/249 231/264/231
f 137/148/137 166/182/166 249/282/249 129/140/129
f 84/89/84 235/268/235 245/278/245 87/92/87
f 143/156/143 87/92/87 245/278/245 142/153/142
f 53/56/53 56/59/56 241/274/241 240/273/240
f 250/284/250 251/285/251 240/273/240 239/272/239
f 252/286/252 53/56/53 240/273/240 251/285/251
f 253/287/253 254/288/254 252/286/252 251/285/251
f 255/289/255 256/290/256 252/286/252 254/288/254
f 54/57/54 53/56/53 252/286/252 256/290/256
f 257/291/257 258/292/258 256/290/256 255/289/255
f 59/62/59 54/57/54 256/290/256 258/292/258
f 233/266/233 227/260/227 258/292/258 257/291/257
f 63/66/63 59/62/59 258/292/258 227/260/227
f 64/67/64 67/70/67 257/291/257 255/289/255
f 71/75/71 233/266/233 257/291/257 67/70/67
f 259/293/259 64/67/64 255/289/255 254/288/254
f 260/294/260 261/295/261 259/293/259 262/296/262
f 65/68/65 64/67/64 259/293/259 261/295/261
f 253/287/253 262/296/262 259/293/259 254/288/254
f 263/297/263 264/298/264 261/295/261 260/294/260
f 265/299/265 65/68/65 261/295/261 264/298/264
f 78/83/78 79/84/79 265/300/265 264/301/264
f 266/302/266 72/77/72 265/300/265 79/84/79
f 66/69/66 65/68/65 265/299/265 72/303/72
f 80/85/80 267/304/267 266/302/266 79/84/79
f 114/121/114 99/104/99 266/302/266 267/304/267
f 73/78/73 72/77/72 266/302/266 99/104/99
f 81/86/81 103/110/103 267/304/267 80/85/80
f 119/126/119 114/121/114 267/304/267 103/110/103
f 75/305/75 78/306/78 264/298/264 263/297/263
f 100/307/100 75/305/75 263/297/263 102/308/102
f 268/309/268 102/308/102 263/297/263 260/294/260
f 39/310/39 102/308/102 268/309/268 269/311/269
f 262/296/262 270/312/270 268/309/268 260/294/260
f 271/313/271 269/311/269 268/309/268 270/312/270
f 272/314/272 269/311/269 271/313/271 273/315/273
f 274/316/274 275/317/275 271/313/271 270/312/270
f 276/318/276 273/315/273 271/313/271 275/317/275
f 140/155/140 273/315/273 276/318/276 143/156/143
f 89/94/89 88/93/88 276/318/276 275/317/275
f 87/92/87 143/156/143 276/318/276 88/93/88
f 250/284/250 89/94/89 275/317/275 274/316/274
f 262/296/262 253/287/253 274/316/274 270/312/270
f 251/285/251 250/284/250 274/316/274 253/287/253
f 113/120/113 52/55/52 272/319/272 145/158/145
f 39/310/39 269/311/269 272/314/272 52/320/52
f 140/151/140 145/158/145 272/319/272 273/321/273
f 86/91/86 89/94/89 250/284/250 239/272/239
f 126/137/126 127/136/127 233/266/233 71/75/71
f 213/322/213 277/323/277 226/324/226 218/325/218
f 225/257/225 224/258/224 226/324/226 277/323/277
f 212/326/212 278/327/278 277/323/277 213/322/213
f 279/328/279 225/257/225 277/323/277 278/327/278
f 280/329/280 281/330/281 279/328/279 278/327/278
f 207/234/207 208/235/208 279/328/279 281/330/281
f 209/236/209 225/257/225 279/328/279 208/235/208
f 282/331/282 283/332/283 281/330/281 280/329/280
f 185/209/185 207/234/207 281/330/281 283/332/283
f 151/333/151 284/334/284 283/332/283 282/331/282
f 186/210/186 185/209/185 283/332/283 284/334/284
f 154/335/154 285/336/285 284/334/284 151/333/151
f 188/212/188 186/210/186 284/334/284 285/336/285
f 155/171/155 286/337/286 285/338/285 154/170/154
f 111/118/111 188/212/188 285/336/285 286/339/286
f 5/5/5 2/8/2 286/337/286 155/171/155
f 51/54/51 111/118/111 286/339/286 2/2/2
f 196/220/196 193/217/193 282/340/282 280/341/280
f 152/168/152 151/167/151 282/340/282 193/217/193
f 212/240/212 196/220/196 280/341/280 278/342/278
f 203/228/203 202/227/202 215/244/215 205/230/205
f 174/193/174 194/218/194 215/244/215 202/227/202
f 195/219/195 214/243/214 215/244/215 194/218/194
f 195/219/195 196/220/196 212/240/212 214/243/214
f 187/211/187 200/224/200 207/234/207 185/209/185
f 180/226/180 191/343/191 204/232/204 201/225/201
f 173/192/173 174/193/174 202/227/202 189/213/189
f 150/164/150 149/163/149 199/223/199 198/222/198
f 168/186/168 169/187/169 199/223/199 149/163/149
f 181/205/181 144/157/144 198/222/198 182/206/182
f 139/150/139 150/164/150 198/222/198 144/157/144
f 175/194/175 161/177/161 194/218/194 174/193/174
f 112/119/112 184/208/184 188/212/188 111/118/111
f 112/119/112 113/120/113 181/205/181 184/208/184
f 145/158/145 144/157/144 181/205/181 113/120/113
f 125/134/125 93/98/93 178/197/178 132/198/132
f 90/95/90 95/100/95 178/197/178 93/98/93
f 136/147/136 177/196/177 178/197/178 95/100/95
f 136/147/136 135/146/135 176/195/176 177/196/177
f 118/125/118 160/176/160 176/195/176 135/146/135
f 161/177/161 175/194/175 176/195/176 160/176/160
f 149/163/149 147/166/147 167/183/167 168/186/168
f 123/132/123 287/344/287 163/179/163 124/133/124
f 156/172/156 157/173/157 163/179/163 287/344/287
f 6/6/6 5/5/5 287/344/287 123/132/123
f 155/171/155 156/172/156 287/344/287 5/5/5
f 119/126/119 288/345/288 158/174/158 116/123/116
f 122/131/122 124/133/124 158/174/158 288/345/288
f 103/110/103 104/111/104 288/345/288 119/126/119
f 105/112/105 122/131/122 288/345/288 104/111/104
f 69/76/69 92/346/92 126/137/126 71/75/71
f 44/47/44 289/347/289 121/130/121 43/46/43
f 290/348/290 109/127/109 121/130/121 289/347/289
f 11/13/11 8/10/8 290/348/290 289/347/289
f 7/9/7 291/349/291 290/348/290 8/10/8
f 108/350/108 109/127/109 290/348/290 291/349/291
f 23/25/23 24/26/24 291/351/291 7/352/7
f 107/114/107 108/115/108 291/351/291 24/26/24
f 12/14/12 11/13/11 289/347/289 44/47/44
f 19/21/19 34/37/34 107/114/107 24/26/24
f 35/38/35 1/1/1 107/114/107 34/37/34
f 1/1/1 35/38/35 51/54/51 2/2/2
f 17/19/17 45/48/45 50/53/50 25/27/25
f 17/19/17 12/14/12 44/47/44 45/48/45
f 21/23/21 30/353/30 31/34/31 18/20/18
f 21/354/21 22/355/22 29/31/29 30/32/30
f 10/12/10 15/17/15 29/31/29 22/355/22
f 16/18/16 28/30/28 29/31/29 15/17/15
f 16/18/16 17/19/17 25/27/25 28/30/28
f 7/9/7 10/12/10 22/355/22 23/356/23
f 9/11/9 14/16/14 15/17/15 10/12/10
f 9/11/9 8/10/8 11/13/11 14/16/14
f 3/7/3 6/6/6 110/128/110 4/357/4
f 49/52/49 48/51/48 101/107/101 50/53/50
