# split from a merged terrain OBJ by scripts/split-terrain-obj-parts.py
o part-040
v -0.334980 0.270674 -0.001423
v -0.327886 0.278752 -0.004497
v -0.330031 0.266167 0.005824
v -0.339216 0.261412 0.010799
v -0.324466 0.281335 0.007416
v -0.334133 0.284374 0.011053
v -0.323943 0.265274 0.004249
v -0.359777 0.243465 0.000786
v -0.362361 0.245456 -0.007201
v -0.363818 0.232914 -0.005616
v -0.360730 0.229547 0.001427
v -0.355641 0.243754 -0.005111
v -0.357816 0.229268 -0.003028
v -0.364535 0.213239 0.001541
v -0.363679 0.216632 -0.000343
v -0.362542 0.214085 -0.001208
v -0.364549 0.211133 0.002011
v -0.359771 0.212048 0.002649
v -0.361743 0.215039 0.003959
v -0.356458 0.227825 0.006665
v -0.361490 0.263880 -0.007256
v -0.359668 0.257042 0.000743
v -0.367592 0.259641 -0.003716
v -0.366938 0.270642 -0.005787
v -0.354881 0.264059 0.004710
v -0.362860 0.265012 -0.001150
v -0.346253 0.251605 0.010378
v -0.351449 0.240598 0.008814
v -0.364875 0.284536 -0.004493
v -0.359630 0.281724 -0.007702
v -0.351362 0.278240 -0.006276
v -0.353451 0.260447 -0.006063
v -0.345445 0.256595 -0.002679
v -0.342266 0.274927 -0.003239
v -0.339848 0.252150 0.001407
v -0.322431 0.247952 0.002598
v -0.326363 0.248534 0.000090
v -0.322020 0.280710 -0.005420
v -0.323804 0.264530 -0.007063
v -0.324227 0.248041 -0.006240
v -0.345899 0.370805 -0.001840
v -0.351703 0.369024 -0.001317
v -0.349394 0.362818 0.000568
v -0.344597 0.364423 -0.003229
v -0.358721 0.366269 -0.001252
v -0.358395 0.360539 -0.000505
v -0.348309 0.360761 -0.004472
v -0.341929 0.358800 -0.000527
v -0.338482 0.356202 0.005268
v -0.350253 0.356272 0.003576
v -0.358209 0.354479 0.000994
v -0.348278 0.353679 -0.005295
v -0.339537 0.353537 -0.002566
v -0.304677 0.359861 -0.004362
v -0.302244 0.365810 -0.002483
v -0.304594 0.365418 -0.001246
v -0.306948 0.360806 -0.001700
v -0.310371 0.362255 0.001362
v -0.306558 0.368239 -0.000541
v -0.303298 0.372287 -0.002611
v -0.312295 0.370833 -0.000931
v -0.312677 0.372221 -0.006241
v -0.318816 0.365907 -0.004686
v -0.306238 0.365481 -0.005757
v -0.313831 0.359732 -0.005010
v -0.312379 0.355385 -0.003918
v -0.312722 0.356365 0.003957
v -0.313770 0.346330 0.005168
v -0.314481 0.345905 -0.003090
v -0.321938 0.346362 -0.006605
v -0.321436 0.354624 -0.005861
v -0.320341 0.358742 -0.004283
v -0.326903 0.369458 -0.001463
v -0.326607 0.364825 -0.002692
v -0.321462 0.365279 -0.004525
v -0.324630 0.361789 -0.003035
v -0.336510 0.349159 0.005171
v -0.323249 0.348617 0.005237
v -0.322686 0.358920 0.004105
v -0.315562 0.365053 0.001807
v -0.328814 0.353746 -0.005058
v -0.317699 0.372227 -0.006384
v -0.317716 0.371848 -0.001459
v -0.323219 0.372715 -0.001726
v -0.324691 0.367966 -0.008044
v -0.324926 0.372584 -0.008000
v -0.332311 0.366508 -0.006573
v -0.335350 0.373057 -0.006852
v -0.333013 0.368838 -0.001172
v -0.335277 0.372996 -0.001839
v -0.329844 0.373066 -0.001742
v -0.340891 0.372633 -0.005952
v -0.339241 0.367151 -0.006164
v -0.339053 0.366751 -0.001655
v -0.340567 0.371643 -0.001640
v -0.345111 0.367462 -0.006293
v -0.350906 0.366489 -0.006514
v -0.356440 0.352656 -0.007378
v -0.356746 0.359319 -0.006865
v -0.357807 0.364413 -0.006685
v -0.362539 0.358026 -0.005084
v -0.364081 0.360674 -0.003373
v -0.352323 0.370872 -0.005460
v -0.357351 0.370203 -0.006005
v -0.346324 0.371845 -0.005784
v -0.361883 0.352205 -0.004867
v -0.356552 0.344808 -0.007752
v -0.361445 0.344926 -0.004744
v -0.357942 0.345831 0.001632
v -0.348982 0.336995 0.005367
v -0.349716 0.347582 0.004440
v -0.357509 0.335577 0.001896
v -0.361604 0.334994 -0.004534
v -0.356923 0.334706 -0.008037
v -0.357905 0.320528 -0.008095
v -0.362084 0.321930 -0.003998
v -0.357177 0.322342 0.001798
v -0.363059 0.302299 -0.003553
v -0.357603 0.303541 0.001109
v -0.348979 0.304928 0.007577
v -0.349107 0.323404 0.006285
v -0.334727 0.304912 0.009053
v -0.335139 0.324971 0.007287
v -0.335820 0.338377 0.005815
v -0.324071 0.323993 0.007020
v -0.323810 0.337609 0.006198
v -0.316382 0.322256 0.004097
v -0.314979 0.335726 0.005378
v -0.318274 0.321935 -0.003449
v -0.316444 0.335319 -0.002897
v -0.324250 0.321824 -0.008091
v -0.322667 0.335741 -0.007312
v -0.331676 0.320669 -0.005651
v -0.330479 0.335675 -0.006083
v -0.329622 0.346272 -0.005987
v -0.340090 0.335114 -0.005152
v -0.339180 0.345685 -0.004281
v -0.349270 0.334505 -0.006202
v -0.348716 0.345318 -0.005758
v -0.340952 0.321040 -0.005078
v -0.349915 0.320701 -0.006462
v -0.341169 0.299514 -0.004123
v -0.350300 0.300067 -0.006470
v -0.358725 0.301100 -0.007782
v -0.332279 0.298653 -0.003635
v -0.326125 0.300758 -0.007787
v -0.321136 0.301627 -0.003515
v -0.317428 0.301358 0.002634
v -0.319048 0.281177 0.000587
v -0.323645 0.302705 0.008534
v -0.320403 0.264860 -0.001146
v -0.320874 0.247866 -0.002257
v -0.322817 0.229531 0.000234
v -0.321314 0.229670 -0.003377
v -0.324075 0.229770 -0.005552
v -0.320725 0.210025 -0.003699
v -0.323687 0.209901 -0.005084
v -0.325468 0.209879 -0.002349
v -0.325639 0.229917 -0.002183
v -0.322485 0.209998 -0.001044
v -0.324302 0.194893 -0.001370
v -0.321271 0.190177 -0.000318
v -0.319964 0.189653 -0.003503
v -0.323215 0.189997 -0.004436
v -0.349410 0.286641 0.008528
v -0.358854 0.285935 0.000720
v -0.361456 0.273156 -0.000347
v -0.351711 0.272333 0.007213
v -0.345136 0.238805 0.004070
v -0.349316 0.241510 -0.001840
v -0.351297 0.225593 0.004681
v -0.353109 0.227373 -0.000658
v -0.358246 0.215816 -0.000340
v -0.321110 0.171989 -0.001386
vt 0.900251 0.039588
vt 0.892360 0.041504
vt 0.898345 0.031801
vt 0.906034 0.032195
vt 0.878207 0.039423
vt 0.872347 0.040378
vt 0.877586 0.028761
vt 0.881485 0.029518
vt 0.148505 0.028791
vt 0.150225 0.033183
vt 0.144784 0.034157
vt 0.141685 0.030105
vt 0.923920 0.044540
vt 0.932276 0.045211
vt 0.931148 0.047400
vt 0.925387 0.047492
vt 0.133681 0.033219
vt 0.135680 0.034033
vt 0.134480 0.035351
vt 0.142055 0.037575
vt 0.945062 0.040141
vt 0.942120 0.041117
vt 0.941777 0.039065
vt 0.944494 0.039088
vt 0.134329 0.030493
vt 0.140544 0.026316
vt 0.160568 0.034427
vt 0.155177 0.028500
vt 0.159713 0.029793
vt 0.164586 0.030842
vt 0.159560 0.023235
vt 0.161861 0.027329
vt 0.157914 0.014507
vt 0.152507 0.018483
vt 0.146857 0.022514
vt 0.172185 0.030306
vt 0.170727 0.033953
vt 0.169386 0.038901
vt 0.159879 0.039133
vt 0.913929 0.040841
vt 0.901815 0.042628
vt 0.913589 0.037996
vt 0.914163 0.034133
vt 0.881872 0.017933
vt 0.879376 0.016790
vt 0.887847 0.042343
vt 0.889336 0.030550
vt 0.888195 0.019077
vt 0.891516 0.018905
vt 0.219315 0.024023
vt 0.217351 0.025006
vt 0.214650 0.021199
vt 0.217926 0.020843
vt 0.214749 0.026248
vt 0.212062 0.025452
vt 0.217115 0.019496
vt 0.214752 0.016162
vt 0.211967 0.015500
vt 0.210562 0.020934
vt 0.209047 0.024964
vt 0.210070 0.036192
vt 0.213984 0.034946
vt 0.213995 0.038310
vt 0.211162 0.040407
vt 0.892991 0.302200
vt 0.889938 0.301135
vt 0.890095 0.300069
vt 0.892742 0.300290
vt 0.892063 0.297343
vt 0.888736 0.299252
vt 0.887711 0.301315
vt 0.886043 0.298717
vt 0.885924 0.302513
vt 0.889271 0.306081
vt 0.890135 0.302843
vt 0.893843 0.304546
vt 0.897535 0.302491
vt 0.895951 0.296994
vt 0.901689 0.296718
vt 0.902451 0.301947
vt 0.902023 0.306911
vt 0.897123 0.307042
vt 0.894391 0.306483
vt 0.881207 0.297641
vt 0.882126 0.293770
vt 0.884618 0.292545
vt 0.885469 0.293003
vt 0.892423 0.308111
vt 0.208814 0.014814
vt 0.210213 0.006898
vt 0.215189 0.007309
vt 0.893993 0.290782
vt 0.900179 0.290440
vt 0.218317 0.008842
vt 0.889467 0.294816
vt 0.889651 0.289568
vt 0.218065 0.015479
vt 0.221266 0.011877
vt 0.884932 0.303143
vt 0.888201 0.306076
vt 0.884482 0.299543
vt 0.882779 0.298936
vt 0.884905 0.306490
vt 0.882858 0.304643
vt 0.223945 0.034564
vt 0.224810 0.029219
vt 0.228675 0.032101
vt 0.227936 0.035448
vt 0.878638 0.296216
vt 0.878971 0.292456
vt 0.877608 0.298860
vt 0.879952 0.299472
vt 0.897129 0.310717
vt 0.222648 0.028535
vt 0.221600 0.032978
vt 0.220365 0.036800
vt 0.223186 0.036775
vt 0.877934 0.302306
vt 0.222526 0.024438
vt 0.222144 0.021777
vt 0.218273 0.034778
vt 0.219715 0.031841
vt 0.217349 0.031773
vt 0.208549 0.032279
vt 0.212078 0.031479
vt 0.214702 0.030316
vt 0.210829 0.028717
vt 0.212399 0.028307
vt 0.218511 0.028103
vt 0.216736 0.028467
vt 0.220619 0.027689
vt 0.208079 0.028908
vt 0.204514 0.032257
vt 0.204313 0.029069
vt 0.204597 0.024973
vt 0.199940 0.019582
vt 0.205731 0.020415
vt 0.199252 0.024890
vt 0.199054 0.029364
vt 0.199272 0.032684
vt 0.191575 0.032483
vt 0.192073 0.029056
vt 0.192314 0.024577
vt 0.181571 0.029018
vt 0.182229 0.024886
vt 0.183070 0.018718
vt 0.192775 0.018885
vt 0.182793 0.010591
vt 0.194014 0.011084
vt 0.201529 0.012383
vt 0.914386 0.290540
vt 0.906860 0.291992
vt 0.906321 0.285901
vt 0.913467 0.286305
vt 0.901401 0.286249
vt 0.915799 0.296306
vt 0.907922 0.297433
vt 0.916366 0.301599
vt 0.908580 0.302454
vt 0.916460 0.307083
vt 0.908150 0.307125
vt 0.916880 0.311770
vt 0.908035 0.311649
vt 0.901688 0.311026
vt 0.907832 0.316477
vt 0.902069 0.316270
vt 0.897760 0.316518
vt 0.199628 0.036837
vt 0.205538 0.036509
vt 0.206844 0.041204
vt 0.201010 0.041390
vt 0.193550 0.041852
vt 0.192299 0.037027
vt 0.182123 0.042229
vt 0.180694 0.037094
vt 0.181019 0.032544
vt 0.169250 0.042901
vt 0.930027 0.311236
vt 0.929551 0.316600
vt 0.916396 0.316945
vt 0.888880 0.053034
vt 0.885818 0.051809
vt 0.928378 0.305999
vt 0.881866 0.052347
vt 0.927938 0.300399
vt 0.879271 0.052202
vt 0.927886 0.295650
vt 0.939249 0.296667
vt 0.939512 0.299640
vt 0.870148 0.048649
vt 0.882359 0.040649
vt 0.874682 0.050480
vt 0.885212 0.029584
vt 0.884724 0.017860
vt 0.880190 0.005218
vt 0.882094 0.006008
vt 0.883849 0.006648
vt 0.988200 0.057209
vt 0.990190 0.056671
vt 0.992133 0.066363
vt 0.989517 0.066724
vt 0.992249 0.056359
vt 0.994451 0.066130
vt 0.885251 0.006268
vt 0.986221 0.057405
vt 0.987100 0.067221
vt 0.985492 0.067552
vt 0.984332 0.057605
vt 0.984409 0.076138
vt 0.982842 0.076471
vt 0.983166 0.050230
vt 0.984497 0.047642
vt 0.986961 0.047445
vt 0.989546 0.047366
vt 0.992373 0.048567
vt 0.864939 0.049203
vt 0.926457 0.290416
vt 0.183913 0.005181
vt 0.193797 0.006761
vt 0.172924 0.018360
vt 0.171788 0.009297
vt 0.172841 0.025550
vt 0.166056 0.026832
vt 0.164733 0.020361
vt 0.161263 0.008723
vt 0.225311 0.022137
vt 0.225062 0.024889
vt 0.914292 0.044378
vt 0.902416 0.046010
vt 0.921466 0.037615
vt 0.923878 0.041414
vt 0.932428 0.039956
vt 0.932385 0.042763
vt 0.940147 0.042445
vt 0.942896 0.043804
vt 0.932286 0.037195
vt 0.921700 0.033993
vt 0.860747 0.993467
vt 0.851053 0.993433
vt 0.848573 0.991684
vt 0.851444 0.990444
vt 0.151000 0.038923
vt 0.132649 0.032990
vt 0.882795 0.291101
vt 0.985184 0.038732
vn 0.3107 -0.4368 -0.8442
vn -0.3805 -0.1542 -0.9118
vn -0.2571 -0.7150 0.6501
vn 0.4108 -0.1765 0.8945
vn 0.5159 -0.1116 0.8493
vn 0.0526 -0.0723 0.9960
vn 0.5060 -0.1582 0.8479
vn -0.8189 0.0915 0.5666
vn -0.7153 -0.0385 -0.6977
vn -0.7650 -0.0631 -0.6409
vn -0.8269 0.1445 0.5435
vn 0.3136 -0.1306 -0.9405
vn 0.2561 -0.1976 -0.9462
vn -0.9641 -0.1582 0.2132
vn -0.8601 -0.0572 -0.5069
vn -0.0828 -0.4670 -0.8804
vn -0.4264 -0.8960 0.1240
vn 0.4192 -0.8633 0.2812
vn -0.3176 -0.1090 0.9419
vn -0.2278 -0.0744 0.9709
vn -0.1693 -0.1923 -0.9666
vn -0.7912 -0.0298 0.6108
vn -0.8585 -0.5089 -0.0637
vn -0.9664 0.0112 -0.2568
vn -0.4454 0.0814 0.8916
vn -0.6124 0.0435 0.7893
vn 0.1392 -0.1428 0.9799
vn -0.0719 -0.0968 0.9927
vn -0.9916 0.0924 -0.0905
vn -0.1478 0.0222 -0.9888
vn 0.2257 -0.0379 -0.9735
vn 0.2630 -0.0657 -0.9626
vn 0.3894 -0.1533 -0.9082
vn 0.2492 -0.0784 -0.9653
vn 0.8851 -0.3772 -0.2727
vn 0.4040 -0.1339 0.9049
vn -0.9314 -0.1331 0.3389
vn 0.5226 -0.0585 -0.8506
vn -0.0071 -0.0841 -0.9964
vn -0.1624 -0.0256 -0.9864
vn -0.0453 0.6178 0.7850
vn -0.0668 0.5950 0.8010
vn 0.1745 0.4103 0.8951
vn 0.7778 -0.5992 0.1898
vn -0.6037 0.4943 0.6255
vn -0.4326 0.0886 0.8972
vn 0.4569 0.0603 -0.8875
vn 0.3139 0.9259 -0.2102
vn -0.0407 0.4708 0.8813
vn -0.1555 0.3093 0.9382
vn -0.5966 0.1099 0.7950
vn 0.2840 0.1408 -0.9484
vn 0.0273 0.2370 -0.9711
vn 0.6206 -0.5332 -0.5749
vn 0.9898 -0.0841 0.1148
vn 0.5086 -0.1653 0.8450
vn 0.6912 -0.5774 0.4346
vn 0.4463 -0.0357 0.8942
vn 0.2792 0.3244 0.9038
vn 0.6434 0.7604 -0.0881
vn -0.0877 0.6707 0.7365
vn 0.1220 0.7646 -0.6328
vn -0.4948 0.0408 -0.8681
vn 0.2809 -0.0090 -0.9597
vn 0.0643 -0.1818 -0.9812
vn 0.7305 -0.3673 -0.5757
vn 0.5983 -0.0525 0.7996
vn 0.7324 -0.0528 0.6788
vn 0.8152 -0.1187 -0.5669
vn 0.1563 0.0182 -0.9875
vn 0.0479 0.1249 -0.9910
vn -0.0822 0.1165 -0.9898
vn 0.0119 -0.0598 0.9981
vn 0.0175 -0.9253 0.3787
vn 0.4487 -0.8936 -0.0099
vn -0.3669 0.8123 -0.4533
vn -0.0282 0.0601 0.9978
vn 0.0288 0.0758 0.9967
vn -0.1019 0.5073 0.8557
vn -0.1888 0.4306 0.8826
vn -0.1590 0.2255 -0.9612
vn 0.2058 0.6490 -0.7324
vn -0.1267 0.6956 0.7072
vn 0.1225 0.6454 0.7539
vn 0.1033 -0.4495 -0.8873
vn 0.1372 0.6500 -0.7475
vn -0.1448 -0.8134 -0.5634
vn -0.1284 0.7056 -0.6969
vn -0.0529 -0.4167 0.9075
vn -0.0582 0.7460 0.6634
vn 0.0285 0.7975 0.6026
vn -0.1541 0.7835 -0.6020
vn 0.0675 -0.6426 -0.7632
vn 0.0497 -0.7058 0.7067
vn -0.1505 0.5883 0.7945
vn 0.1360 -0.2657 -0.9544
vn 0.1177 -0.0236 -0.9928
vn -0.0828 0.0368 -0.9959
vn -0.0744 0.0207 -0.9970
vn -0.3696 0.2256 -0.9014
vn -0.9443 -0.0107 -0.3289
vn -0.9932 0.0433 0.1076
vn -0.1961 0.8817 -0.4292
vn -0.4356 0.8017 -0.4092
vn -0.1482 0.8272 -0.5420
vn -0.9604 0.0027 -0.2787
vn -0.1464 0.0235 -0.9889
vn -0.9686 0.0034 -0.2487
vn -0.6377 0.0221 0.7700
vn -0.2248 0.0553 0.9728
vn -0.2103 0.0519 0.9763
vn -0.6411 0.0187 0.7672
vn -0.9852 0.0188 -0.1706
vn -0.2042 0.0167 -0.9788
vn -0.2721 0.0069 -0.9623
vn -0.9978 0.0266 -0.0608
vn -0.6378 0.0197 0.7699
vn -0.9989 0.0475 0.0008
vn -0.6406 0.0279 0.7674
vn -0.3564 0.0546 0.9327
vn -0.2922 0.0527 0.9549
vn 0.0013 0.0655 0.9979
vn -0.0266 0.0825 0.9962
vn -0.0320 0.0783 0.9964
vn 0.1931 0.0326 0.9806
vn 0.0609 0.0471 0.9970
vn 0.9046 -0.0721 0.4201
vn 0.7888 -0.0844 0.6088
vn 0.8175 -0.0744 -0.5711
vn 0.8341 -0.0901 -0.5442
vn 0.1634 -0.0269 -0.9862
vn 0.2068 0.0006 -0.9784
vn -0.1974 -0.0197 -0.9801
vn -0.1468 0.0329 -0.9886
vn -0.1434 0.0990 -0.9847
vn 0.0136 0.0241 -0.9996
vn -0.0040 0.1048 -0.9945
vn 0.1805 0.0174 -0.9834
vn 0.2077 0.0607 -0.9763
vn 0.0629 -0.0259 -0.9977
vn 0.1831 -0.0101 -0.9830
vn 0.1460 -0.0493 -0.9881
vn 0.2029 -0.0218 -0.9789
vn -0.2612 0.0159 -0.9651
vn -0.2023 -0.0582 -0.9776
vn 0.0080 -0.0557 -0.9984
vn 0.7358 -0.0552 -0.6749
vn 0.9756 -0.0615 0.2109
vn 0.9927 -0.0739 0.0955
vn 0.3960 -0.0004 0.9182
vn 0.9988 -0.0488 -0.0053
vn 0.9895 -0.0232 -0.1429
vn 0.2681 -0.0767 0.9603
vn 0.9683 -0.0120 -0.2494
vn -0.2344 -0.0043 -0.9721
vn 0.9489 0.0205 -0.3149
vn -0.3244 -0.0270 -0.9455
vn -0.9537 -0.0336 0.2988
vn -0.9688 -0.0538 0.2418
vn 0.3073 0.0138 0.9515
vn -0.9080 -0.0456 0.4165
vn 0.1114 -0.0796 0.9906
vn 0.9099 -0.0436 -0.4126
vn -0.6428 -0.1901 -0.7421
vn -0.3653 -0.0114 0.9308
vn -0.6455 0.0414 0.7626
vn -0.6486 0.0514 0.7594
vn -0.3417 0.0247 0.9395
vn 0.9095 -0.3994 0.1156
vn 0.5359 -0.2319 -0.8118
vn 0.8113 -0.4564 0.3653
vn 0.6318 -0.3022 -0.7138
vn 0.5983 -0.4359 -0.6723
vn 0.0468 -0.9978 0.0468
f 1/1/1 2/2/2 3/3/3 4/4/4
f 5/5/5 6/6/6 3/7/3 7/8/7
f 8/9/8 9/10/9 10/11/10 11/12/11
f 12/13/12 13/14/13 10/15/10 9/16/9
f 14/17/14 11/12/11 10/11/10 15/18/15
f 16/19/16 15/18/15 10/11/10 13/20/13
f 17/21/17 18/22/18 19/23/19 14/24/14
f 11/12/11 14/17/14 19/25/19 20/26/20
f 21/27/21 22/28/22 23/29/23 24/30/24
f 25/31/25 26/32/26 23/29/23 22/28/22
f 9/10/9 8/9/8 22/28/22 21/27/21
f 4/33/4 25/31/25 22/28/22 27/34/27
f 28/35/28 27/34/27 22/28/22 8/9/8
f 29/36/29 30/37/30 21/27/21 24/30/24
f 31/38/31 32/39/32 21/27/21 30/37/30
f 33/40/33 34/41/34 1/1/1 35/42/35
f 27/43/27 35/42/35 1/1/1 4/4/4
f 36/44/36 7/8/7 3/7/3 37/45/37
f 38/46/38 39/47/39 3/3/3 2/2/2
f 40/48/40 37/49/37 3/3/3 39/47/39
f 41/50/41 42/51/42 43/52/43 44/53/44
f 45/54/45 46/55/46 43/52/43 42/51/42
f 47/56/47 44/53/44 43/52/43 48/57/48
f 49/58/49 48/57/48 43/52/43 50/59/50
f 51/60/51 50/59/50 43/52/43 46/55/46
f 52/61/52 47/62/47 48/63/48 53/64/53
f 54/65/54 55/66/55 56/67/56 57/68/57
f 58/69/58 57/68/57 56/67/56 59/70/59
f 60/71/60 59/70/59 56/67/56 55/66/55
f 61/72/61 59/70/59 60/71/60 62/73/62
f 63/74/63 64/75/64 54/65/54 65/76/65
f 66/77/66 65/76/65 54/65/54 57/68/57
f 58/69/58 67/78/67 66/77/66 57/68/57
f 68/79/68 69/80/69 66/77/66 67/78/67
f 70/81/70 71/82/71 66/77/66 69/80/69
f 72/83/72 65/76/65 66/77/66 71/82/71
f 73/84/73 74/85/74 75/86/75 63/87/63
f 63/74/63 65/76/65 72/83/72 76/88/76
f 77/89/77 78/90/78 79/91/79 49/58/49
f 68/79/68 67/78/67 79/92/79 78/93/78
f 48/57/48 49/58/49 79/91/79 76/94/76
f 58/69/58 80/95/80 79/92/79 67/78/67
f 63/87/63 76/96/76 79/92/79 80/95/80
f 53/97/53 48/57/48 76/94/76 81/98/81
f 82/99/82 62/73/62 63/74/63 75/100/75
f 61/72/61 83/101/83 63/87/63 80/95/80
f 84/102/84 73/84/73 63/87/63 83/101/83
f 75/100/75 85/103/85 86/104/86 82/99/82
f 83/101/83 82/99/82 86/104/86 84/102/84
f 87/105/87 88/106/88 86/107/86 85/108/85
f 89/109/89 87/110/87 74/85/74 73/84/73
f 90/111/90 89/109/89 73/84/73 91/112/91
f 71/82/71 81/113/81 76/88/76 72/83/72
f 92/114/92 88/106/88 87/105/87 93/115/93
f 94/116/94 93/115/93 87/105/87 89/117/89
f 90/111/90 91/112/91 86/104/86 88/118/88
f 95/119/95 41/50/41 44/53/44 94/120/94
f 93/115/93 94/116/94 44/121/44 96/122/96
f 97/123/97 96/122/96 44/121/44 47/62/47
f 98/124/98 99/125/99 47/62/47 52/61/52
f 100/126/100 97/123/97 47/62/47 99/125/99
f 99/125/99 101/127/101 102/128/102 100/126/100
f 46/55/46 45/54/45 102/128/102 101/127/101
f 42/51/42 103/129/103 104/130/104 45/54/45
f 97/123/97 100/126/100 104/130/104 103/129/103
f 41/50/41 105/131/105 103/129/103 42/51/42
f 96/122/96 97/123/97 103/129/103 105/131/105
f 95/119/95 92/114/92 105/131/105 41/50/41
f 93/115/93 96/122/96 105/131/105 92/114/92
f 98/124/98 106/132/106 101/127/101 99/125/99
f 51/60/51 46/55/46 101/127/101 106/132/106
f 107/133/107 108/134/108 106/132/106 98/124/98
f 109/135/109 51/60/51 106/132/106 108/134/108
f 110/136/110 111/137/111 109/135/109 112/138/112
f 50/59/50 51/60/51 109/135/109 111/137/111
f 113/139/113 112/138/112 109/135/109 108/134/108
f 107/133/107 114/140/114 113/139/113 108/134/108
f 115/141/115 116/142/116 113/139/113 114/140/114
f 117/143/117 112/138/112 113/139/113 116/142/116
f 118/144/118 119/145/119 117/143/117 116/142/116
f 120/146/120 121/147/121 117/143/117 119/145/119
f 110/136/110 112/138/112 117/143/117 121/147/121
f 122/148/122 123/149/123 121/147/121 120/146/120
f 124/150/124 110/136/110 121/147/121 123/149/123
f 125/151/125 126/152/126 124/153/124 123/154/123
f 78/93/78 77/155/77 124/153/124 126/152/126
f 111/137/111 110/136/110 124/150/124 77/89/77
f 127/156/127 128/157/128 126/152/126 125/151/125
f 68/79/68 78/93/78 126/152/126 128/157/128
f 129/158/129 130/159/130 128/157/128 127/156/127
f 69/80/69 68/79/68 128/157/128 130/159/130
f 131/160/131 132/161/132 130/159/130 129/158/129
f 70/81/70 69/80/69 130/159/130 132/161/132
f 133/162/133 134/163/134 132/161/132 131/160/131
f 135/164/135 70/81/70 132/161/132 134/163/134
f 71/82/71 70/81/70 135/164/135 81/113/81
f 136/165/136 137/166/137 135/164/135 134/163/134
f 53/167/53 81/113/81 135/164/135 137/166/137
f 138/168/138 139/169/139 137/170/137 136/171/136
f 52/61/52 53/64/53 137/170/137 139/169/139
f 114/140/114 107/133/107 139/169/139 138/168/138
f 98/124/98 52/61/52 139/169/139 107/133/107
f 140/172/140 141/173/141 138/168/138 136/171/136
f 115/141/115 114/140/114 138/168/138 141/173/141
f 142/174/142 143/175/143 141/173/141 140/172/140
f 144/176/144 115/141/115 141/173/141 143/175/143
f 31/38/31 30/37/30 144/176/144 143/175/143
f 29/36/29 118/144/118 144/176/144 30/37/30
f 116/142/116 115/141/115 144/176/144 118/144/118
f 34/177/34 31/38/31 143/175/143 142/174/142
f 133/162/133 145/178/145 142/179/142 140/180/140
f 1/1/1 34/41/34 142/181/142 145/182/145
f 131/160/131 146/183/146 145/178/145 133/162/133
f 2/2/2 1/1/1 145/182/145 146/184/146
f 129/158/129 147/185/147 146/183/146 131/160/131
f 38/46/38 2/2/2 146/184/146 147/186/147
f 127/156/127 148/187/148 147/185/147 129/158/129
f 149/188/149 38/189/38 147/185/147 148/187/148
f 150/190/150 5/5/5 149/191/149 148/192/148
f 7/8/7 151/193/151 149/191/149 5/5/5
f 39/47/39 38/46/38 149/191/149 151/193/151
f 36/44/36 152/194/152 151/193/151 7/8/7
f 40/48/40 39/47/39 151/193/151 152/194/152
f 153/195/153 154/196/154 152/194/152 36/44/36
f 155/197/155 40/48/40 152/194/152 154/196/154
f 156/198/156 157/199/157 155/200/155 154/201/154
f 158/202/158 159/203/159 155/200/155 157/199/157
f 37/49/37 40/48/40 155/197/155 159/204/159
f 160/205/160 153/206/153 159/207/159 158/208/158
f 36/209/36 37/210/37 159/207/159 153/206/153
f 161/211/161 162/212/162 160/205/160 158/208/158
f 163/213/163 156/198/156 160/205/160 162/212/162
f 154/201/154 153/206/153 160/205/160 156/198/156
f 164/214/164 161/215/161 158/202/158 157/199/157
f 163/213/163 164/214/164 157/199/157 156/198/156
f 6/6/6 5/5/5 150/190/150 122/216/122
f 127/156/127 125/151/125 150/217/150 148/187/148
f 123/149/123 122/148/122 150/218/150 125/219/125
f 134/163/134 133/162/133 140/180/140 136/165/136
f 165/220/165 6/221/6 122/148/122 120/146/120
f 119/145/119 166/222/166 165/220/165 120/146/120
f 167/223/167 168/224/168 165/220/165 166/222/166
f 3/225/3 6/221/6 165/220/165 168/224/168
f 26/32/26 25/31/25 168/224/168 167/223/167
f 4/33/4 3/225/3 168/224/168 25/31/25
f 29/36/29 24/30/24 167/223/167 166/222/166
f 23/29/23 26/32/26 167/223/167 24/30/24
f 118/144/118 29/36/29 166/222/166 119/145/119
f 49/58/49 50/59/50 111/137/111 77/89/77
f 89/226/89 90/227/90 95/119/95 94/120/94
f 88/106/88 92/114/92 95/119/95 90/227/90
f 62/73/62 82/99/82 83/101/83 61/72/61
f 59/70/59 61/72/61 80/95/80 58/69/58
f 60/71/60 64/75/64 63/74/63 62/73/62
f 32/228/32 31/229/31 34/41/34 33/40/33
f 169/230/169 170/231/170 33/40/33 35/42/35
f 12/13/12 32/228/32 33/40/33 170/231/170
f 171/232/171 172/233/172 170/231/170 169/230/169
f 13/14/13 12/13/12 170/231/170 172/233/172
f 18/22/18 173/234/173 172/233/172 171/232/171
f 16/235/16 13/14/13 172/233/172 173/234/173
f 19/23/19 18/22/18 171/232/171 20/236/20
f 28/237/28 20/236/20 171/232/171 169/230/169
f 27/43/27 28/237/28 169/230/169 35/42/35
f 174/238/174 162/239/162 161/240/161 164/241/164
f 9/10/9 21/27/21 32/39/32 12/242/12
f 11/12/11 20/26/20 28/35/28 8/9/8
f 18/22/18 17/21/17 16/235/16 173/234/173
f 104/130/104 100/126/100 102/128/102 45/54/45
f 14/17/14 15/18/15 16/19/16 17/243/17
f 85/244/85 75/86/75 74/85/74 87/110/87
f 73/84/73 84/102/84 86/104/86 91/112/91
f 174/245/174 163/213/163 162/212/162
f 174/245/174 164/214/164 163/213/163
f 55/66/55 64/75/64 60/71/60
f 55/66/55 54/65/54 64/75/64
