# split from a merged terrain OBJ by scripts/split-terrain-obj-parts.py
o part-018
v -0.009108 1.028444 -0.045594
v -0.006565 1.026934 -0.054357
v -0.007918 1.034139 -0.055352
v -0.010010 1.036138 -0.046662
v -0.013759 1.025722 -0.060146
v -0.015832 1.032741 -0.056974
v -0.018087 1.035849 -0.049116
v 0.043542 0.955054 -0.014541
v 0.041098 0.961709 -0.013988
v 0.047607 0.961477 -0.004683
v 0.051123 0.954635 -0.001942
v 0.034846 0.963952 -0.011051
v 0.040252 0.964045 0.001076
v 0.048447 0.955827 0.009963
v 0.038078 1.018418 0.004841
v 0.040342 1.017579 -0.009476
v 0.042550 1.033025 -0.009269
v 0.040769 1.034391 0.003210
v 0.031798 1.019319 -0.015447
v 0.034728 1.032915 -0.014425
v 0.030970 1.034719 -0.002237
v 0.027172 1.032516 -0.019311
v 0.021460 1.033492 -0.009923
v 0.012896 1.031912 0.003350
v 0.018267 1.034464 0.006526
v 0.016980 1.032154 -0.006503
v 0.015429 1.023964 -0.007687
v 0.019800 1.022394 -0.012952
v 0.024727 1.020724 -0.017783
v 0.018948 1.034548 0.021637
v 0.013409 1.027868 0.026279
v 0.019160 1.031578 0.032155
v 0.025970 1.035848 0.027246
v 0.025169 1.019581 0.026446
v 0.017851 1.018951 0.031649
v 0.010976 1.017821 0.026346
v 0.038174 1.002926 -0.008809
v 0.026663 1.006507 -0.018155
v 0.037786 0.990042 -0.009263
v 0.026469 0.992846 -0.018611
v 0.015773 0.992934 -0.024873
v 0.014253 1.003447 -0.024669
v 0.012120 1.010421 -0.022466
v 0.021983 1.011932 -0.016476
v 0.008015 1.031318 0.012028
v 0.011835 1.033607 0.017453
v 0.009602 1.025458 0.001226
v 0.004909 1.026046 0.011686
v 0.006910 1.026308 0.020557
v 0.009571 1.009170 0.025368
v 0.016980 1.007223 0.032213
v 0.004291 1.006656 0.029168
v 0.013293 1.005779 0.036904
v 0.023926 1.006061 0.026245
v 0.012827 0.993327 0.037544
v 0.017729 0.993353 0.032795
v 0.002039 1.029139 -0.018367
v -0.002830 1.028072 -0.012772
v 0.004511 1.026077 -0.006909
v 0.007306 1.026248 -0.012301
v -0.007906 1.022809 -0.008786
v 0.002868 1.020914 -0.004124
v 0.008528 1.020935 -0.011240
v 0.007891 1.003311 -0.036329
v 0.002794 1.013288 -0.032073
v 0.004003 1.023467 -0.031492
v 0.010692 1.019036 -0.025876
v 0.010931 1.016216 -0.017876
v 0.013433 1.010820 -0.014913
v 0.018314 1.013739 -0.012844
v 0.031477 0.971457 0.016251
v 0.034093 0.964448 0.017307
v 0.036397 0.971006 0.000708
v 0.037320 0.970940 -0.009663
v 0.003827 1.017496 0.009577
v 0.002810 1.009832 0.006803
v 0.001594 1.009043 0.015077
v 0.003971 1.017678 0.018808
v -0.005814 1.006291 0.020066
v -0.017822 1.006236 0.008993
v -0.011443 1.008174 0.003678
v -0.004858 1.010412 -0.000358
v -0.009765 1.016927 -0.009248
v 0.001357 1.015013 -0.004167
v -0.012457 1.013449 -0.012530
v 0.008908 1.015552 -0.010475
v 0.010933 1.011732 -0.008523
v 0.006608 1.011024 -0.001507
v -0.002667 1.026150 -0.025895
v -0.005830 1.026334 -0.019903
v -0.006347 1.018697 -0.030215
v -0.009829 1.021361 -0.020865
v -0.007360 1.013709 -0.030700
v -0.003642 1.009843 -0.038559
v 0.001595 1.004550 -0.046183
v 0.000218 1.001129 0.031545
v 0.008820 1.002711 0.039455
v -0.000523 0.991810 0.030298
v 0.006638 0.992612 0.037327
v -0.023287 1.036837 -0.030621
v -0.025996 1.035613 -0.021679
v -0.019997 1.034893 -0.014184
v -0.016894 1.036317 -0.026154
v -0.027529 1.031203 -0.016561
v -0.019825 1.028894 -0.014214
v -0.015155 1.029499 -0.025213
v -0.005587 1.008825 -0.052424
v -0.008322 1.013814 -0.042826
v -0.008909 1.020805 -0.044527
v -0.006802 1.018710 -0.052806
v -0.014715 1.016947 -0.059429
v -0.015054 1.006832 -0.063589
v -0.011399 1.015800 -0.021826
v -0.014040 1.015079 -0.024021
v -0.021796 1.011661 -0.013420
v 0.031486 0.961806 -0.025826
v 0.024053 0.964614 -0.023654
v 0.020802 0.961906 -0.040422
v 0.015228 0.963512 -0.037231
v 0.010421 0.966758 -0.034639
v 0.014683 0.965621 -0.024695
v 0.025236 0.973085 -0.019775
v 0.016134 0.973824 -0.024361
v 0.010320 0.973952 -0.035065
v -0.030393 1.030409 -0.060218
v -0.038458 1.027906 -0.056807
v -0.038186 1.034121 -0.056966
v -0.033238 1.035169 -0.055151
v -0.037438 1.036462 -0.044171
v -0.042116 1.033197 -0.044426
v -0.042446 1.026717 -0.044288
v 0.020060 0.949498 0.046749
v 0.017561 0.959773 0.044474
v 0.011855 0.962925 0.050906
v 0.013672 0.950359 0.048898
v 0.011206 0.964295 0.038651
v 0.005246 0.963855 0.045485
v 0.007022 0.950637 0.046714
v -0.034350 1.027473 -0.021958
v -0.033087 1.019059 -0.020698
v -0.025605 1.023989 -0.016007
v -0.019653 1.022895 -0.014245
v -0.033561 1.011605 -0.020180
v -0.027007 1.007130 -0.006459
v 0.046085 0.938071 0.009263
v 0.040594 0.928964 0.006350
v 0.044068 0.929311 -0.000786
v 0.049180 0.937118 -0.001075
v 0.031978 0.926091 -0.001183
v 0.039526 0.927296 -0.008948
v 0.044039 0.936877 -0.012937
v -0.000503 0.940835 0.041798
v 0.000045 0.932113 0.042073
v 0.007778 0.932576 0.049169
v 0.008230 0.940696 0.049002
v 0.014842 0.939782 0.050226
v 0.012777 0.930044 0.048841
v 0.002575 0.926901 0.040070
v 0.017504 0.972828 0.033032
v 0.011224 0.972684 0.037763
v 0.019584 0.965212 0.034790
v 0.004719 0.972479 0.033526
v 0.003173 0.964246 0.034279
v 0.024723 0.958976 0.039631
v -0.001482 0.964198 0.039433
v -0.027949 0.944960 -0.083181
v -0.023930 0.953741 -0.083037
v -0.018785 0.949314 -0.081955
v -0.019638 0.942844 -0.082535
v -0.011514 0.943202 -0.075372
v -0.011456 0.951283 -0.076114
v -0.013428 0.959240 -0.076203
v -0.020439 0.935008 -0.080651
v -0.023455 0.927676 -0.076096
v -0.028237 0.927679 -0.080742
v -0.028874 0.936689 -0.083088
v -0.031050 0.926515 -0.069242
v -0.036084 0.929368 -0.073911
v -0.036707 0.938629 -0.075573
v -0.035661 0.975866 -0.019591
v -0.031653 0.965202 -0.018070
v -0.034253 0.967806 -0.010071
v -0.030697 0.975174 -0.009541
v -0.022354 0.972916 0.004831
v -0.025233 0.964955 0.004268
v -0.033660 0.964102 0.009683
v -0.044285 0.964651 -0.001404
v -0.051164 0.965463 -0.023710
v -0.037230 0.964959 -0.010712
v -0.044967 0.966166 -0.030788
v -0.044814 0.976144 -0.032179
v -0.028197 0.959053 -0.077817
v -0.034673 0.948542 -0.077171
v -0.041819 0.954416 -0.067314
v -0.030331 0.963839 -0.071342
v -0.030684 0.968559 -0.067145
v -0.040720 0.965648 -0.061500
v -0.044440 0.940786 -0.066579
v -0.049288 0.964644 -0.052103
v -0.052236 0.952223 -0.054158
v -0.053335 0.940981 -0.055073
v -0.051214 0.976598 -0.042457
v -0.053693 0.965591 -0.040249
v -0.049844 0.976273 -0.053021
v -0.061029 0.962642 -0.032456
v -0.059863 0.952340 -0.045255
v -0.065622 0.951749 -0.036426
v -0.068436 0.962422 -0.026083
v -0.058585 0.965070 -0.016469
v -0.067053 0.950529 -0.026971
v -0.060247 0.950518 -0.017102
v -0.055129 0.926674 -0.027254
v -0.060153 0.927287 -0.021028
v -0.068219 0.926152 -0.027441
v -0.062929 0.926348 -0.034474
v -0.061712 0.932563 -0.018873
v -0.069234 0.933073 -0.028154
v -0.068267 0.933234 -0.038711
v -0.030857 1.036580 -0.034234
v -0.031378 1.036196 -0.027044
v -0.038568 1.036166 -0.033222
v -0.035588 1.033172 -0.022419
v 0.010680 1.022621 -0.018129
v 0.009796 1.027280 -0.016591
v 0.011018 1.024376 -0.023355
v 0.006287 1.029482 -0.023323
v -0.041838 1.030956 -0.031555
v -0.041474 1.024032 -0.030574
v -0.042979 1.020131 -0.044114
v -0.041284 1.017422 -0.030712
v -0.044875 1.012473 -0.043806
v -0.042847 1.008727 -0.030796
v -0.036118 1.003830 -0.018847
v -0.030591 1.000654 -0.004679
v -0.046166 0.998490 -0.030909
v -0.037061 0.994834 -0.019520
v -0.030292 0.992584 -0.005701
v -0.020618 0.999511 0.010186
v -0.020996 0.990814 0.008636
v -0.036705 0.985177 -0.020169
v -0.030023 0.983767 -0.007711
v -0.021374 0.981888 0.006742
v -0.009333 0.990643 0.020906
v -0.009575 0.981091 0.019625
v -0.009682 0.971538 0.018131
v -0.001249 0.981716 0.028611
v -0.001786 0.971850 0.027041
v -0.011933 0.963058 0.018478
v -0.003533 0.963787 0.027601
v -0.018026 0.962171 0.023468
v -0.009081 0.963316 0.032495
v -0.019815 0.949965 0.022531
v -0.009003 0.949823 0.033228
v -0.000838 0.950196 0.040910
v -0.009303 0.940918 0.033316
v -0.021524 0.933151 0.021733
v -0.009674 0.932730 0.033138
v -0.020944 0.941042 0.022285
v -0.019513 0.927555 0.018541
v -0.007512 0.927822 0.030340
v -0.014716 0.926941 0.012218
v -0.002509 0.926768 0.024684
v 0.007435 0.926478 0.034659
v 0.002841 0.926337 0.018204
v 0.013184 0.926098 0.027874
v 0.022161 0.928461 0.035509
v 0.016652 0.928586 0.042934
v 0.026049 0.937889 0.039456
v 0.020241 0.938570 0.046376
v 0.026293 0.948600 0.040418
v 0.032488 0.937635 0.030767
v 0.032717 0.948069 0.031764
v 0.031673 0.957856 0.031577
v 0.039546 0.947697 0.021200
v 0.038690 0.956762 0.020997
v 0.026513 0.964440 0.028149
v 0.023555 0.972184 0.026317
v 0.030492 0.980074 0.017134
v 0.023035 0.981408 0.026654
v 0.017434 0.982083 0.032868
v 0.023148 0.992523 0.026819
v 0.011905 0.982186 0.037952
v 0.005368 0.982122 0.035201
v 0.030261 0.991316 0.017918
v 0.030629 1.004768 0.017501
v 0.036047 0.990092 0.004312
v 0.036207 1.003563 0.005233
v 0.032745 1.019331 0.017117
v 0.035605 1.035248 0.017393
v 0.025802 1.035580 0.011756
v 0.037575 0.979360 -0.009500
v 0.036135 0.978929 0.002599
v 0.026349 0.982054 -0.018994
v 0.016213 0.983132 -0.024607
v 0.009767 0.992050 -0.036339
v 0.010217 0.982444 -0.035752
v 0.002636 0.991595 -0.048955
v 0.002589 0.981033 -0.048987
v -0.006198 0.991623 -0.058449
v -0.007354 0.979700 -0.059219
v 0.001875 0.972970 -0.048511
v -0.007949 0.972164 -0.059095
v -0.018137 0.978264 -0.066961
v -0.019309 0.970322 -0.065770
v 0.000994 0.966119 -0.047846
v -0.008723 0.965938 -0.058932
v -0.019040 0.965528 -0.067102
v -0.006016 0.963735 -0.062918
v -0.016535 0.963411 -0.072079
v -0.003260 0.960378 -0.066332
v 0.004392 0.963495 -0.050846
v 0.007592 0.959865 -0.054705
v 0.008230 0.953188 -0.055859
v -0.002569 0.952773 -0.067188
v 0.007814 0.945257 -0.055598
v -0.003108 0.944354 -0.067055
v 0.006981 0.936608 -0.054895
v -0.004446 0.935556 -0.066394
v -0.013298 0.935198 -0.073904
v -0.008301 0.928070 -0.062985
v -0.017373 0.928696 -0.070134
v -0.015349 0.926783 -0.055316
v -0.023930 0.926681 -0.062924
v -0.024203 0.926591 -0.045507
v -0.032794 0.926456 -0.053692
v -0.039528 0.926403 -0.059944
v -0.044671 0.930800 -0.065199
v -0.042117 0.926403 -0.043476
v -0.049276 0.926469 -0.050425
v -0.053878 0.931508 -0.055117
v -0.056818 0.926302 -0.042200
v -0.061871 0.932194 -0.046699
v -0.061269 0.941498 -0.046427
v -0.067794 0.942181 -0.038214
v -0.068774 0.941682 -0.027626
v -0.061193 0.941061 -0.018100
v -0.051956 0.933200 -0.008627
v -0.050995 0.941517 -0.007320
v -0.048844 0.951226 -0.005269
v -0.037438 0.941513 0.006464
v -0.035915 0.950971 0.007829
v -0.038416 0.933487 0.005078
v -0.050559 0.927376 -0.011812
v -0.037180 0.927718 0.001435
v -0.045859 0.927176 -0.018561
v -0.032535 0.927364 -0.005425
v -0.040267 0.926896 -0.026206
v -0.027217 0.927135 -0.013010
v -0.009589 0.926708 0.005195
v -0.020833 0.926895 -0.021885
v -0.003518 0.926581 -0.003466
v 0.008655 0.926434 0.010053
v 0.004058 0.926657 -0.014043
v 0.015459 0.926636 -0.000562
v 0.025418 0.927205 0.009087
v 0.019115 0.926406 0.019793
v 0.034730 0.929025 0.016239
v 0.028310 0.928504 0.026970
v 0.039230 0.937972 0.020100
v 0.047448 0.947382 0.009987
v 0.050634 0.947126 -0.001366
v 0.044053 0.946759 -0.013796
v 0.033960 0.954780 -0.026044
v 0.034532 0.946368 -0.025157
v 0.034699 0.936891 -0.024002
v 0.022893 0.946264 -0.039537
v 0.022945 0.937569 -0.038125
v 0.031754 0.927464 -0.020296
v 0.019631 0.929597 -0.033765
v 0.003856 0.928546 -0.051924
v 0.023401 0.926082 -0.011332
v 0.012633 0.926941 -0.025080
v -0.003846 0.926921 -0.043928
v -0.012595 0.926825 -0.033414
v -0.033397 0.926641 -0.034760
v -0.049117 0.926490 -0.035087
v 0.022543 0.954351 -0.040598
v -0.027714 0.990274 -0.069502
v -0.016495 0.990539 -0.067290
v -0.030003 0.977750 -0.067477
v -0.025315 1.005502 -0.069278
v -0.032301 1.015039 -0.063435
v -0.023500 1.016216 -0.064424
v -0.035283 1.003904 -0.063905
v -0.038618 0.990489 -0.062535
v -0.044786 1.004211 -0.055663
v -0.048909 0.990650 -0.054752
v -0.040707 0.977087 -0.060887
v -0.040137 1.013531 -0.055440
v -0.050680 1.003444 -0.043454
v -0.053447 0.989264 -0.043501
v -0.046292 0.986887 -0.031998
v -0.038819 1.021327 -0.055942
v -0.030695 1.023949 -0.062735
v -0.023895 1.031647 -0.058283
v -0.021721 1.025056 -0.063317
v -0.026272 1.035509 -0.051881
v -0.020749 1.036919 -0.039880
v -0.029069 1.036590 -0.042652
v -0.013824 1.037201 -0.036802
v -0.011997 1.029801 -0.035813
v -0.014821 1.022372 -0.024542
v -0.011616 1.022015 -0.034750
v -0.010907 1.015516 -0.033425
v -0.008988 0.999675 0.021795
v 0.013337 1.015903 -0.007434
v 0.008010 1.017512 0.000054
vt 0.647885 0.184026
vt 0.644662 0.189275
vt 0.640873 0.186211
vt 0.642956 0.181905
vt 0.638185 0.191979
vt 0.635572 0.187458
vt 0.636042 0.181798
vt 0.691044 0.242084
vt 0.689199 0.236523
vt 0.695677 0.243217
vt 0.698652 0.247915
vt 0.690576 0.234687
vt 0.697134 0.241367
vt 0.702175 0.248535
vt 0.102885 0.940612
vt 0.100823 0.948646
vt 0.092202 0.945637
vt 0.093634 0.938526
vt 0.684195 0.178181
vt 0.688546 0.170759
vt 0.692244 0.170852
vt 0.688497 0.178374
vt 0.687677 0.162277
vt 0.692110 0.160787
vt 0.685180 0.171123
vt 0.683573 0.166348
vt 0.680444 0.159905
vt 0.682851 0.156799
vt 0.681613 0.165295
vt 0.679011 0.168642
vt 0.680293 0.172419
vt 0.681503 0.176123
vt 0.096206 0.920151
vt 0.102603 0.917912
vt 0.102510 0.921369
vt 0.099301 0.924229
vt 0.107071 0.927011
vt 0.108531 0.922661
vt 0.109156 0.918333
vt 0.109469 0.950081
vt 0.106587 0.957481
vt 0.099602 0.954143
vt 0.116478 0.952086
vt 0.114535 0.959678
vt 0.676831 0.197333
vt 0.674581 0.190998
vt 0.681318 0.185801
vt 0.681452 0.194016
vt 0.674623 0.185142
vt 0.679374 0.181439
vt 0.678712 0.155813
vt 0.680209 0.151572
vt 0.677459 0.163460
vt 0.676225 0.157573
vt 0.676349 0.152194
vt 0.114331 0.918435
vt 0.115240 0.923596
vt 0.670052 0.146539
vt 0.673101 0.139532
vt 0.674487 0.142150
vt 0.673149 0.148286
vt 0.114093 0.928817
vt 0.123341 0.922741
vt 0.122060 0.926173
vt 0.117255 0.921158
vt 0.666519 0.174670
vt 0.664200 0.171897
vt 0.666768 0.170171
vt 0.669627 0.172831
vt 0.660908 0.168529
vt 0.666587 0.168397
vt 0.671063 0.171927
vt 0.666308 0.195364
vt 0.664803 0.187521
vt 0.667055 0.181823
vt 0.671856 0.180555
vt 0.674766 0.177809
vt 0.676432 0.177909
vt 0.678176 0.176829
vt 0.129573 0.941302
vt 0.132892 0.942945
vt 0.130771 0.951790
vt 0.127033 0.950230
vt 0.125813 0.956145
vt 0.128925 0.958868
vt 0.672963 0.159486
vt 0.668449 0.161157
vt 0.667437 0.156622
vt 0.673171 0.154061
vt 0.107513 0.913208
vt 0.111890 0.912334
vt 0.663843 0.151979
vt 0.655138 0.154390
vt 0.658058 0.158994
vt 0.662525 0.162427
vt 0.657762 0.166637
vt 0.666587 0.166414
vt 0.654051 0.165016
vt 0.674345 0.173257
vt 0.675290 0.172898
vt 0.670820 0.167046
vt 0.664123 0.177968
vt 0.662606 0.174219
vt 0.660852 0.179669
vt 0.660044 0.173912
vt 0.659930 0.181904
vt 0.659062 0.188932
vt 0.658626 0.197329
vt 0.665828 0.143894
vt 0.670977 0.139794
vt 0.660625 0.140822
vt 0.665164 0.136589
vt 0.119770 0.919314
vt 0.125053 0.920109
vt 0.638405 0.170486
vt 0.639920 0.167067
vt 0.645278 0.167612
vt 0.643721 0.171613
vt 0.641536 0.164463
vt 0.647259 0.166643
vt 0.648619 0.172112
vt 0.651034 0.197434
vt 0.655159 0.187638
vt 0.651758 0.186107
vt 0.647704 0.192569
vt 0.640022 0.196163
vt 0.639454 0.201935
vt 0.657634 0.173433
vt 0.656421 0.173921
vt 0.644007 0.159072
vt 0.683582 0.231555
vt 0.686010 0.226255
vt 0.671505 0.228900
vt 0.671282 0.224972
vt 0.671272 0.221145
vt 0.679775 0.220277
vt 0.127498 0.966376
vt 0.123840 0.963236
vt 0.123680 0.968525
vt 0.126926 0.970895
vt 0.671130 0.216193
vt 0.679886 0.213918
vt 0.625670 0.188622
vt 0.620725 0.184747
vt 0.623118 0.183032
vt 0.626025 0.183196
vt 0.625315 0.175198
vt 0.622954 0.175456
vt 0.619534 0.177196
vt 0.698407 0.600429
vt 0.702491 0.593946
vt 0.705550 0.596372
vt 0.700749 0.602434
vt 0.709060 0.591156
vt 0.709577 0.596826
vt 0.703728 0.603904
vt 0.633530 0.162557
vt 0.630575 0.160822
vt 0.642669 0.162475
vt 0.648803 0.165272
vt 0.628690 0.159332
vt 0.639581 0.155963
vt 0.703584 0.259265
vt 0.700489 0.263998
vt 0.697065 0.260119
vt 0.698408 0.255506
vt 0.694295 0.265289
vt 0.691800 0.258303
vt 0.692075 0.252709
vt 0.705080 0.611973
vt 0.703155 0.617372
vt 0.698509 0.615140
vt 0.699793 0.610220
vt 0.696087 0.610186
vt 0.695881 0.616956
vt 0.701568 0.620968
vt 0.707516 0.585433
vt 0.711174 0.587076
vt 0.704588 0.588080
vt 0.714024 0.589075
vt 0.716035 0.592946
vt 0.699679 0.591819
vt 0.714296 0.597101
vt 0.774428 0.654577
vt 0.778588 0.647379
vt 0.778470 0.655152
vt 0.775726 0.662119
vt 0.633208 0.242571
vt 0.624935 0.242720
vt 0.625419 0.238665
vt 0.632975 0.237734
vt 0.631931 0.232996
vt 0.622672 0.234589
vt 0.769970 0.661419
vt 0.762232 0.661572
vt 0.765475 0.658990
vt 0.770324 0.656378
vt 0.759102 0.658492
vt 0.763395 0.655327
vt 0.768720 0.651091
vt 0.611357 0.154699
vt 0.605441 0.160624
vt 0.610870 0.153330
vt 0.619911 0.151335
vt 0.627634 0.145374
vt 0.619711 0.146322
vt 0.734634 0.608194
vt 0.736317 0.602900
vt 0.744998 0.608800
vt 0.742097 0.613223
vt 0.754679 0.616309
vt 0.746376 0.610221
vt 0.749953 0.607948
vt 0.757750 0.614641
vt 0.607675 0.176457
vt 0.604862 0.182566
vt 0.779678 0.639482
vt 0.773675 0.646717
vt 0.775271 0.635015
vt 0.783342 0.632003
vt 0.782181 0.629108
vt 0.776042 0.627232
vt 0.767750 0.644861
vt 0.770987 0.623204
vt 0.769042 0.631535
vt 0.765019 0.639290
vt 0.609323 0.193576
vt 0.607375 0.198030
vt 0.610766 0.202726
vt 0.604185 0.206041
vt 0.765474 0.619520
vt 0.760184 0.621525
vt 0.764241 0.629533
vt 0.760076 0.627987
vt 0.755996 0.622665
vt 0.750721 0.618667
vt 0.753909 0.626699
vt 0.747359 0.623873
vt 0.744459 0.639400
vt 0.744083 0.635180
vt 0.749156 0.636198
vt 0.750992 0.639961
vt 0.744419 0.632089
vt 0.750965 0.633763
vt 0.755352 0.636907
vt 0.632377 0.170619
vt 0.634429 0.166979
vt 0.627349 0.168668
vt 0.633829 0.164353
vt 0.672663 0.175739
vt 0.670051 0.174821
vt 0.670809 0.177070
vt 0.668366 0.177144
vt 0.624644 0.166729
vt 0.621726 0.165965
vt 0.617288 0.177737
vt 0.619346 0.165397
vt 0.615583 0.179047
vt 0.615889 0.168052
vt 0.617540 0.159281
vt 0.633891 0.154518
vt 0.614143 0.167626
vt 0.615054 0.158684
vt 0.628593 0.152639
vt 0.647785 0.151400
vt 0.641721 0.148361
vt 0.613931 0.157491
vt 0.622571 0.152599
vt 0.636457 0.144881
vt 0.654433 0.146018
vt 0.647062 0.141696
vt 0.637760 0.138448
vt 0.653351 0.138679
vt 0.646089 0.135953
vt 0.631998 0.134390
vt 0.640071 0.134020
vt 0.650405 0.132959
vt 0.645215 0.130230
vt 0.724162 0.603140
vt 0.718443 0.599894
vt 0.720742 0.595158
vt 0.726745 0.598630
vt 0.720459 0.611109
vt 0.713272 0.608406
vt 0.708053 0.605972
vt 0.710633 0.614360
vt 0.716496 0.622874
vt 0.708788 0.620329
vt 0.718282 0.617185
vt 0.715565 0.627482
vt 0.707363 0.624712
vt 0.714272 0.632646
vt 0.705096 0.629638
vt 0.699586 0.625061
vt 0.693022 0.286369
vt 0.702518 0.287392
vt 0.703603 0.293162
vt 0.695427 0.291514
vt 0.690932 0.621628
vt 0.692919 0.618157
vt 0.695078 0.627520
vt 0.688007 0.610930
vt 0.692771 0.610102
vt 0.693870 0.600274
vt 0.714894 0.269783
vt 0.716986 0.261737
vt 0.722246 0.267447
vt 0.720892 0.273147
vt 0.695505 0.588640
vt 0.690442 0.593256
vt 0.710771 0.258356
vt 0.708779 0.251716
vt 0.716872 0.255712
vt 0.699044 0.579947
vt 0.702273 0.584540
vt 0.695329 0.582124
vt 0.700318 0.577616
vt 0.704857 0.581684
vt 0.125556 0.939082
vt 0.126830 0.932328
vt 0.131256 0.934676
vt 0.708336 0.581472
vt 0.706518 0.577886
vt 0.121095 0.930451
vt 0.127603 0.927965
vt 0.129059 0.924379
vt 0.711695 0.582009
vt 0.657789 0.134752
vt 0.660928 0.131120
vt 0.665836 0.132574
vt 0.654192 0.129170
vt 0.119920 0.936774
vt 0.112816 0.935122
vt 0.118541 0.944894
vt 0.111276 0.942397
vt 0.104851 0.933269
vt 0.095685 0.930679
vt 0.087581 0.935606
vt 0.091883 0.926246
vt 0.685597 0.153277
vt 0.094953 0.916042
vt 0.089511 0.921700
vt 0.121724 0.954181
vt 0.123696 0.947447
vt 0.119879 0.961439
vt 0.115455 0.965603
vt 0.119763 0.967073
vt 0.668889 0.202903
vt 0.678956 0.207015
vt 0.669927 0.209967
vt 0.658137 0.206217
vt 0.658747 0.213456
vt 0.647906 0.209234
vt 0.646188 0.216688
vt 0.657976 0.218744
vt 0.645553 0.221432
vt 0.634833 0.218786
vt 0.633511 0.222996
vt 0.657508 0.223221
vt 0.644551 0.225177
vt 0.632910 0.225648
vt 0.623470 0.222573
vt 0.622451 0.226224
vt 0.643140 0.228357
vt 0.631961 0.229133
vt 0.622130 0.229749
vt 0.642818 0.231636
vt 0.656776 0.226581
vt 0.656029 0.230420
vt 0.655256 0.234724
vt 0.642756 0.236340
vt 0.654846 0.239893
vt 0.642486 0.241602
vt 0.654842 0.245520
vt 0.642307 0.247354
vt 0.633410 0.247831
vt 0.767042 0.666848
vt 0.761211 0.666288
vt 0.748319 0.665704
vt 0.756246 0.663743
vt 0.753074 0.668981
vt 0.746231 0.662338
vt 0.752217 0.660526
vt 0.743546 0.655732
vt 0.749308 0.654975
vt 0.755337 0.654198
vt 0.761689 0.650744
vt 0.748005 0.649233
vt 0.753774 0.648485
vt 0.759174 0.646177
vt 0.752536 0.643844
vt 0.757286 0.641000
vt 0.761842 0.636084
vt 0.757697 0.632517
vt 0.752136 0.630198
vt 0.745164 0.627780
vt 0.737477 0.629375
vt 0.738328 0.624772
vt 0.739158 0.619261
vt 0.728810 0.621561
vt 0.730629 0.615447
vt 0.727946 0.626901
vt 0.737183 0.633373
vt 0.727584 0.631491
vt 0.737122 0.638139
vt 0.727231 0.636818
vt 0.738086 0.642616
vt 0.727757 0.642497
vt 0.713654 0.637965
vt 0.660082 0.276829
vt 0.678390 0.276433
vt 0.681800 0.283408
vt 0.662191 0.283991
vt 0.690814 0.279781
vt 0.704872 0.633857
vt 0.676162 0.267643
vt 0.687638 0.271067
vt 0.697180 0.272631
vt 0.701631 0.280702
vt 0.704921 0.270583
vt 0.710620 0.275589
vt 0.714364 0.280859
vt 0.709822 0.264090
vt 0.704957 0.255016
vt 0.697997 0.250403
vt 0.690941 0.245908
vt 0.683496 0.236865
vt 0.683383 0.242141
vt 0.683691 0.247197
vt 0.671266 0.239092
vt 0.671657 0.244838
vt 0.683903 0.253997
vt 0.672950 0.251075
vt 0.655026 0.251496
vt 0.685370 0.262032
vt 0.674228 0.258969
vt 0.655865 0.258794
vt 0.642822 0.253168
vt 0.643859 0.259952
vt 0.657624 0.267795
vt 0.645464 0.268462
vt 0.647203 0.277535
vt 0.739560 0.647549
vt 0.730583 0.646566
vt 0.745891 0.644236
vt 0.671358 0.233873
vt 0.627523 0.211823
vt 0.636479 0.211549
vt 0.623550 0.217934
vt 0.629352 0.204063
vt 0.623418 0.197669
vt 0.630760 0.198172
vt 0.621878 0.202624
vt 0.618759 0.208272
vt 0.616339 0.193713
vt 0.613934 0.199213
vt 0.614392 0.212006
vt 0.613160 0.217191
vt 0.617711 0.189046
vt 0.614036 0.179730
vt 0.611509 0.187033
vt 0.612207 0.168402
vt 0.618929 0.185756
vt 0.624604 0.193123
vt 0.630276 0.188012
vt 0.631549 0.193858
vt 0.630159 0.182259
vt 0.636410 0.175651
vt 0.630985 0.175378
vt 0.644868 0.176886
vt 0.649290 0.178213
vt 0.652921 0.172619
vt 0.654275 0.179817
vt 0.658179 0.181130
vt 0.708762 0.245393
vt 0.660469 0.148758
vt 0.676584 0.171294
vt 0.673923 0.165825
vt 0.101794 0.914294
vn 0.9579 0.1251 0.2584
vn 0.9288 0.0910 -0.3591
vn 0.6426 0.6265 -0.4411
vn 0.6290 0.7766 0.0367
vn 0.4448 0.1474 -0.8834
vn 0.1569 0.7220 -0.6739
vn 0.0011 0.9708 -0.2398
vn 0.8085 0.1334 -0.5731
vn 0.5867 0.6959 -0.4142
vn 0.6913 0.7012 -0.1746
vn 0.9619 0.2531 -0.1034
vn 0.6424 0.6542 -0.3992
vn 0.7533 0.6482 0.1114
vn 0.8421 0.3575 0.4038
vn 0.9509 -0.1334 0.2792
vn 0.9094 -0.1274 -0.3959
vn 0.7891 0.5060 -0.3482
vn 0.7714 0.6184 0.1499
vn 0.4427 -0.0652 -0.8943
vn 0.3720 0.6353 -0.6768
vn 0.0120 0.9960 -0.0888
vn -0.1203 0.5177 -0.8471
vn -0.4496 0.7880 -0.4206
vn -0.6100 0.7374 -0.2900
vn -0.2200 0.9718 -0.0853
vn -0.6420 0.6350 -0.4297
vn -0.7509 0.2476 -0.6123
vn -0.7181 0.1682 -0.6753
vn -0.2639 0.0604 -0.9627
vn -0.3189 0.9308 0.1786
vn -0.6554 0.4371 0.6160
vn -0.1412 0.4477 0.8829
vn 0.3007 0.7135 0.6329
vn 0.6875 -0.0803 0.7217
vn -0.0438 0.0149 0.9989
vn -0.6968 0.0741 0.7134
vn 0.9277 -0.0659 -0.3675
vn 0.4644 0.0921 -0.8808
vn 0.9299 -0.0054 -0.3678
vn 0.5654 0.0221 -0.8245
vn 0.7088 0.0589 -0.7030
vn 0.6533 0.2990 -0.6955
vn 0.7078 0.4651 -0.5318
vn -0.0759 0.4328 -0.8983
vn -0.6960 0.7129 -0.0858
vn -0.4831 0.8499 0.2106
vn -0.8263 0.3298 -0.4566
vn -0.9180 0.3828 -0.1034
vn -0.7978 0.3874 0.4620
vn -0.5516 0.5835 0.5961
vn 0.3442 0.3141 0.8848
vn -0.3715 0.8364 0.4031
vn 0.1983 0.5708 0.7968
vn 0.7244 -0.0280 0.6889
vn 0.4111 -0.0368 0.9108
vn 0.7150 0.0085 0.6991
vn -0.0536 0.9985 -0.0053
vn -0.3334 0.9010 0.2776
vn 0.3462 0.6702 0.6565
vn 0.6196 0.6580 0.4280
vn -0.6791 0.4562 0.5751
vn 0.2328 0.2668 0.9352
vn 0.8662 0.0957 0.4905
vn 0.7718 0.3859 -0.5053
vn 0.4074 0.4665 -0.7851
vn 0.2134 0.4452 -0.8696
vn 0.8674 0.1025 -0.4869
vn 0.9715 0.2122 0.1060
vn 0.3050 0.9351 -0.1804
vn -0.5756 0.5523 -0.6030
vn 0.8630 0.2263 0.4517
vn 0.7254 0.5662 0.3915
vn 0.9806 0.1457 0.1310
vn 0.9152 0.0456 -0.4005
vn -0.9541 0.2339 -0.1869
vn -0.6164 0.7870 0.0274
vn -0.6145 0.7522 0.2380
vn -0.9089 0.1329 0.3952
vn -0.4515 0.7814 0.4307
vn -0.5049 0.7371 0.4492
vn -0.1924 0.9538 0.2308
vn -0.2085 0.8952 0.3938
vn -0.7010 0.4399 0.5613
vn 0.0602 0.5688 0.8203
vn -0.2429 0.8369 0.4905
vn 0.7984 0.3744 0.4715
vn -0.0272 0.9916 -0.1268
vn -0.4411 0.8973 0.0182
vn -0.4185 0.7462 -0.5177
vn -0.5939 0.7909 -0.1474
vn -0.5396 0.4747 -0.6953
vn -0.8668 0.4714 -0.1626
vn -0.0158 0.9075 -0.4197
vn 0.4982 0.7931 -0.3505
vn 0.7374 0.4548 -0.4995
vn -0.6713 0.3181 0.6695
vn -0.2720 0.2828 0.9198
vn -0.7097 -0.0484 0.7029
vn -0.4017 -0.0589 0.9139
vn -0.0244 0.9977 0.0625
vn -0.1814 0.9121 0.3676
vn 0.2745 0.6747 0.6852
vn 0.5734 0.7799 0.2509
vn -0.4745 0.2906 0.8309
vn 0.4019 0.1991 0.8938
vn 0.9340 0.1413 0.3281
vn 0.8171 0.3231 -0.4774
vn 0.8797 0.4684 0.0817
vn 0.9650 0.0954 0.2442
vn 0.9592 0.0549 -0.2774
vn 0.5764 0.0735 -0.8139
vn 0.5516 0.1963 -0.8107
vn -0.7363 0.6731 -0.0701
vn 0.6160 0.7684 0.1735
vn -0.3286 0.5913 0.7364
vn 0.5717 0.6876 -0.4476
vn 0.4159 0.7227 -0.5520
vn 0.5693 0.6484 -0.5054
vn 0.2974 0.9224 -0.2466
vn 0.7391 0.5014 -0.4498
vn 0.6008 0.5323 -0.5964
vn 0.5547 0.0580 -0.8300
vn 0.6672 0.0258 -0.7444
vn 0.8663 -0.0646 -0.4953
vn -0.1483 0.5123 -0.8459
vn -0.7495 0.1450 -0.6460
vn -0.6028 0.5392 -0.5881
vn -0.1327 0.8623 -0.4887
vn -0.3105 0.9489 -0.0562
vn -0.8847 0.4542 -0.1050
vn -0.9924 0.0261 -0.1203
vn 0.6126 0.1005 0.7840
vn 0.5210 0.5850 0.6215
vn 0.1002 0.5320 0.8408
vn 0.1112 0.0767 0.9908
vn 0.1370 0.7821 0.6080
vn -0.3075 0.7010 0.6435
vn -0.5153 0.0311 0.8565
vn -0.6970 0.0246 0.7166
vn -0.6524 0.1313 0.7465
vn -0.4146 0.0106 0.9099
vn 0.3810 0.1897 0.9049
vn -0.6848 0.3703 0.6276
vn -0.5763 0.6655 0.4743
vn 0.8470 -0.3398 0.4089
vn 0.5081 -0.8185 0.2681
vn 0.6572 -0.7533 0.0236
vn 0.9393 -0.3403 -0.0449
vn 0.1039 -0.9931 0.0538
vn 0.4985 -0.8334 -0.2387
vn 0.8142 -0.2943 -0.5005
vn -0.6616 0.0330 0.7491
vn -0.6270 -0.3143 0.7128
vn -0.4190 -0.2734 0.8659
vn -0.4020 0.0524 0.9142
vn 0.2382 -0.0535 0.9697
vn 0.1433 -0.6049 0.7833
vn -0.2839 -0.8709 0.4012
vn 0.6506 0.1413 0.7461
vn 0.0310 0.0785 0.9964
vn 0.5248 0.5634 0.6382
vn -0.6077 0.0476 0.7928
vn -0.4036 0.7799 0.4784
vn 0.6108 0.4965 0.6168
vn -0.4699 0.7195 0.5115
vn -0.3040 0.0571 -0.9509
vn -0.0479 0.3597 -0.9318
vn 0.4367 0.0618 -0.8975
vn 0.4029 -0.1182 -0.9076
vn 0.6739 -0.1474 -0.7239
vn 0.6449 0.0665 -0.7614
vn 0.4255 0.5252 -0.7369
vn 0.4732 -0.3724 -0.7984
vn 0.2752 -0.8565 -0.4367
vn -0.1547 -0.6822 -0.7146
vn -0.2650 -0.1930 -0.9447
vn -0.0941 -0.9876 -0.1257
vn -0.5761 -0.6255 -0.5261
vn -0.7237 -0.0465 -0.6885
vn -0.8648 -0.0525 0.4993
vn -0.7574 0.5968 0.2649
vn -0.7868 0.6154 0.0474
vn -0.9018 0.0581 0.4283
vn -0.7849 0.1038 0.6109
vn -0.4556 0.7682 0.4498
vn -0.4795 0.6562 0.5827
vn -0.5328 0.6808 0.5027
vn -0.0947 0.9955 0.0061
vn -0.3188 0.9264 -0.2003
vn -0.5753 0.6854 0.4463
vn -0.8004 -0.0065 0.5994
vn -0.3315 0.6149 -0.7155
vn -0.6748 0.2097 -0.7076
vn -0.7174 0.2806 -0.6377
vn -0.3219 0.6131 -0.7215
vn -0.2667 0.2612 -0.9277
vn -0.6579 0.2130 -0.7224
vn -0.7689 0.0237 -0.6389
vn -0.8271 0.2061 -0.5228
vn -0.7712 0.2479 -0.5864
vn -0.7567 0.0772 -0.6492
vn -0.9872 0.0105 0.1592
vn -0.8422 0.5281 -0.1085
vn -0.8554 -0.0217 -0.5175
vn -0.5641 0.7699 -0.2983
vn -0.7698 0.3234 -0.5503
vn -0.8617 0.2998 -0.4093
vn -0.8486 0.5225 0.0822
vn -0.5484 0.7256 0.4156
vn -0.9685 0.1336 0.2100
vn -0.7512 0.0197 0.6597
vn 0.0122 -0.9990 0.0440
vn -0.3879 -0.8133 0.4336
vn -0.6381 -0.7415 0.2077
vn -0.3824 -0.9071 -0.1761
vn -0.7160 -0.1909 0.6714
vn -0.9532 -0.1927 0.2331
vn -0.8736 -0.2724 -0.4033
vn -0.0674 0.9956 0.0647
vn -0.1474 0.9604 0.2363
vn -0.5189 0.8320 0.1963
vn -0.5929 0.5425 0.5952
vn 0.9710 0.1875 0.1485
vn 0.7002 0.6692 0.2489
vn 0.8926 0.3508 -0.2833
vn 0.3402 0.8889 -0.3069
vn -0.9205 0.2290 0.3166
vn -0.9218 0.0182 0.3873
vn -0.9887 0.1131 -0.0980
vn -0.9061 0.1235 0.4047
vn -0.9409 0.3363 -0.0399
vn -0.8520 0.2638 0.4523
vn -0.8258 0.2163 0.5208
vn -0.8486 0.1976 0.4907
vn -0.8456 0.1398 0.5152
vn -0.8531 -0.0053 0.5216
vn -0.8749 -0.0727 0.4788
vn -0.7593 0.1859 0.6237
vn -0.7861 -0.0872 0.6119
vn -0.8414 -0.0748 0.5352
vn -0.8743 -0.0693 0.4804
vn -0.7972 -0.0787 0.5985
vn -0.7239 -0.0663 0.6867
vn -0.7313 -0.0811 0.6772
vn -0.7326 0.0699 0.6770
vn -0.7156 -0.0721 0.6948
vn -0.7250 0.0652 0.6856
vn -0.4718 0.7581 0.4503
vn -0.5062 0.7586 0.4102
vn -0.5056 0.6689 0.5449
vn -0.5338 0.6941 0.4830
vn -0.6870 0.0373 0.7257
vn -0.6929 0.0422 0.7198
vn -0.6551 0.0443 0.7542
vn -0.6900 0.0229 0.7234
vn -0.6678 -0.2887 0.6861
vn -0.6666 -0.2886 0.6873
vn -0.6911 0.0182 0.7225
vn -0.3604 -0.8595 0.3625
vn -0.3756 -0.8536 0.3610
vn -0.0494 -0.9982 0.0343
vn -0.0657 -0.9970 0.0404
vn 0.0125 -0.9944 0.1051
vn -0.0234 -0.9997 0.0028
vn 0.0630 -0.9962 0.0598
vn 0.4559 -0.8145 0.3589
vn 0.4089 -0.8004 0.4384
vn 0.7465 -0.2858 0.6009
vn 0.6563 -0.2116 0.7242
vn 0.7491 0.0592 0.6598
vn 0.7872 -0.3097 0.5333
vn 0.8183 0.0177 0.5745
vn 0.7437 0.4117 0.5266
vn 0.8240 -0.0272 0.5659
vn 0.7671 0.4004 0.5012
vn 0.6654 0.5505 0.5042
vn 0.7538 0.2053 0.6242
vn 0.8679 -0.0024 0.4967
vn 0.7637 0.0004 0.6455
vn 0.7034 -0.0110 0.7107
vn 0.7527 -0.0051 0.6583
vn 0.1842 -0.0443 0.9819
vn -0.5465 -0.0630 0.8351
vn 0.8572 -0.0220 0.5145
vn 0.8520 -0.0594 0.5202
vn 0.9639 -0.0252 0.2651
vn 0.9561 -0.0738 0.2837
vn 0.8438 -0.1143 0.5243
vn 0.6777 0.6176 0.3991
vn -0.0474 0.9984 -0.0324
vn 0.9289 -0.0080 -0.3702
vn 0.9713 -0.0088 0.2375
vn 0.5682 0.0031 -0.8229
vn 0.7089 0.0016 -0.7053
vn 0.8702 0.0802 -0.4862
vn 0.8726 -0.0166 -0.4881
vn 0.7957 0.0892 -0.5991
vn 0.7999 -0.0414 -0.5988
vn 0.6941 0.0762 -0.7158
vn 0.6609 -0.0735 -0.7468
vn 0.7912 -0.0948 -0.6041
vn 0.6522 -0.0821 -0.7536
vn 0.3557 -0.1065 -0.9285
vn 0.3502 0.0781 -0.9334
vn 0.6926 0.4671 -0.5497
vn 0.5620 0.5349 -0.6309
vn 0.2436 0.6806 -0.6910
vn 0.3599 0.8540 -0.3758
vn 0.1723 0.8388 -0.5164
vn 0.6020 0.5181 -0.6076
vn 0.3714 0.8673 -0.3314
vn 0.6084 0.5477 -0.5743
vn 0.7256 0.0555 -0.6859
vn 0.7128 0.0515 -0.6995
vn 0.7242 -0.0937 -0.6832
vn 0.7072 -0.1178 -0.6971
vn 0.6898 -0.3290 -0.6449
vn 0.6389 -0.3784 -0.6698
vn 0.6120 -0.4352 -0.6604
vn 0.3554 -0.8465 -0.3964
vn 0.3542 -0.8601 -0.3671
vn 0.0577 -0.9966 -0.0582
vn 0.0693 -0.9961 -0.0538
vn 0.0136 -0.9999 0.0041
vn 0.0116 -0.9999 0.0008
vn -0.1954 -0.9664 -0.1671
vn -0.6530 -0.5133 -0.5569
vn 0.0068 -0.9999 0.0094
vn -0.2390 -0.9474 -0.2128
vn -0.6719 -0.4406 -0.5954
vn -0.2785 -0.9357 -0.2163
vn -0.7082 -0.3832 -0.5929
vn -0.7603 0.1232 -0.6378
vn -0.9192 0.1488 -0.3647
vn -0.9576 0.0909 0.2735
vn -0.7592 0.0117 0.6507
vn -0.6858 -0.2616 0.6792
vn -0.7182 -0.0089 0.6958
vn -0.7184 0.0270 0.6951
vn -0.7017 -0.0013 0.7125
vn -0.6950 0.0268 0.7185
vn -0.6761 -0.2795 0.6817
vn -0.3582 -0.8526 0.3806
vn -0.3627 -0.8562 0.3679
vn -0.0071 -0.9993 0.0371
vn -0.0261 -0.9993 0.0252
vn 0.0017 -0.9996 0.0295
vn -0.0180 -0.9997 0.0155
vn -0.0271 -0.9996 0.0049
vn -0.0073 -0.9999 0.0084
vn -0.0102 -0.9999 -0.0048
vn 0.0111 -0.9998 -0.0143
vn -0.0075 -0.9999 -0.0088
vn -0.0033 -1.0000 0.0066
vn 0.0840 -0.9949 0.0552
vn 0.0987 -0.9948 0.0260
vn 0.4806 -0.8293 0.2852
vn 0.4860 -0.8214 0.2985
vn 0.7987 -0.3312 0.5025
vn 0.8950 -0.0878 0.4374
vn 0.9904 -0.0954 -0.0996
vn 0.8305 -0.0516 -0.5546
vn 0.7726 0.1270 -0.6221
vn 0.7710 -0.0461 -0.6351
vn 0.7305 -0.2922 -0.6172
vn 0.7528 -0.0709 -0.6544
vn 0.7131 -0.3042 -0.6316
vn 0.4172 -0.8231 -0.3852
vn 0.4226 -0.8142 -0.3982
vn 0.4254 -0.8214 -0.3799
vn 0.0236 -0.9986 -0.0473
vn 0.0518 -0.9956 -0.0776
vn 0.0747 -0.9958 -0.0529
vn 0.0067 -1.0000 -0.0010
vn 0.0061 -0.9998 0.0185
vn 0.0099 -0.9997 0.0228
vn 0.7560 0.0854 -0.6489
vn -0.1575 -0.0031 -0.9875
vn 0.4576 0.0132 -0.8890
vn -0.2346 -0.0555 -0.9705
vn -0.0222 0.1993 -0.9797
vn -0.4780 0.2160 -0.8514
vn 0.1271 0.1974 -0.9720
vn -0.5542 0.1792 -0.8129
vn -0.5770 0.0311 -0.8162
vn -0.7772 0.2771 -0.5649
vn -0.8165 0.0663 -0.5736
vn -0.5971 -0.0132 -0.8021
vn -0.8008 0.2656 -0.5368
vn -0.9472 0.3198 0.0239
vn -0.9968 0.0291 0.0749
vn -0.8343 -0.0492 0.5491
vn -0.8208 0.1187 -0.5587
vn -0.3368 0.2277 -0.9136
vn 0.0818 0.7239 -0.6850
vn 0.1684 0.2790 -0.9454
vn 0.0375 0.9515 -0.3054
vn -0.0106 0.9988 -0.0488
vn -0.0155 0.9982 -0.0586
vn 0.5634 0.8109 0.1579
vn 0.9448 0.1622 0.2846
vn 0.9379 0.1842 0.2941
vn 0.9550 0.1097 0.2756
vn 0.8076 0.5708 0.1478
vn -0.6990 0.2170 0.6814
vn -0.7144 0.3737 -0.5916
vn -0.8376 0.2723 -0.4736
f 1/1/1 2/2/2 3/3/3 4/4/4
f 5/5/5 6/6/6 3/3/3 2/2/2
f 7/7/7 4/4/4 3/3/3 6/6/6
f 8/8/8 9/9/9 10/10/10 11/11/11
f 12/12/12 13/13/13 10/10/10 9/9/9
f 14/14/14 11/11/11 10/10/10 13/13/13
f 15/15/15 16/16/16 17/17/17 18/18/18
f 19/19/19 20/20/20 17/21/17 16/22/16
f 21/23/21 18/24/18 17/21/17 20/20/20
f 20/20/20 22/25/22 23/26/23 21/23/21
f 24/27/24 25/28/25 23/26/23 26/29/26
f 27/30/27 26/29/26 23/26/23 28/31/28
f 29/32/29 28/31/28 23/26/23 22/25/22
f 19/19/19 29/32/29 22/25/22 20/20/20
f 30/33/30 31/34/31 32/35/32 33/36/33
f 34/37/34 33/36/33 32/35/32 35/38/35
f 36/39/36 35/38/35 32/35/32 31/34/31
f 16/16/16 37/40/37 38/41/38 19/42/19
f 39/43/39 40/44/40 38/41/38 37/40/37
f 41/45/41 42/46/42 38/47/38 40/48/40
f 43/49/43 44/50/44 38/47/38 42/46/42
f 29/32/29 19/19/19 38/47/38 44/50/44
f 25/28/25 24/27/24 45/51/45 46/52/46
f 47/53/47 48/54/48 45/51/45 24/27/24
f 49/55/49 46/52/46 45/51/45 48/54/48
f 36/39/36 50/56/50 51/57/51 35/38/35
f 52/58/52 53/59/53 51/60/51 50/61/50
f 34/37/34 35/38/35 51/57/51 54/62/54
f 55/63/55 56/64/56 51/57/51 53/65/53
f 57/66/57 58/67/58 59/68/59 60/69/60
f 61/70/61 62/71/62 59/68/59 58/67/58
f 63/72/63 60/69/60 59/68/59 62/71/62
f 64/73/64 65/74/65 43/49/43 42/46/42
f 66/75/66 67/76/67 43/49/43 65/74/65
f 68/77/68 69/78/69 43/49/43 67/76/67
f 70/79/70 44/50/44 43/49/43 69/78/69
f 71/80/71 72/81/72 13/82/13 73/83/73
f 74/84/74 73/83/73 13/82/13 12/85/12
f 75/86/75 76/87/76 77/88/77 78/89/78
f 36/39/36 78/90/78 77/91/77 50/56/50
f 52/58/52 50/61/50 77/88/77 79/92/79
f 80/93/80 79/92/79 77/88/77 81/94/81
f 82/95/82 81/94/81 77/88/77 76/87/76
f 61/70/61 83/96/83 84/97/84 62/71/62
f 85/98/85 82/95/82 84/97/84 83/96/83
f 63/72/63 62/71/62 84/97/84 86/99/86
f 87/100/87 86/99/86 84/97/84 88/101/88
f 76/87/76 88/101/88 84/97/84 82/95/82
f 57/66/57 89/102/89 90/103/90 58/67/58
f 91/104/91 92/105/92 90/103/90 89/102/89
f 61/70/61 58/67/58 90/103/90 92/105/92
f 89/102/89 66/75/66 65/74/65 91/104/91
f 93/106/93 91/104/91 65/74/65 94/107/94
f 95/108/95 94/107/94 65/74/65 64/73/64
f 52/58/52 96/109/96 97/110/97 53/59/53
f 98/111/98 99/112/99 97/110/97 96/109/96
f 55/63/55 53/65/53 97/113/97 99/114/99
f 100/115/100 101/116/101 102/117/102 103/118/103
f 104/119/104 105/120/105 102/117/102 101/116/101
f 106/121/106 103/118/103 102/117/102 105/120/105
f 94/107/94 95/108/95 107/122/107 108/123/108
f 109/124/109 108/123/108 107/122/107 110/125/110
f 111/126/111 110/125/110 107/122/107 112/127/112
f 113/128/113 114/129/114 85/98/85 83/96/83
f 81/94/81 82/95/82 85/98/85 115/130/115
f 9/9/9 116/131/116 117/132/117 12/12/12
f 118/133/118 119/134/119 117/132/117 116/131/116
f 120/135/120 121/136/121 117/132/117 119/134/119
f 74/84/74 12/85/12 117/137/117 122/138/122
f 123/139/123 122/138/122 117/137/117 121/140/121
f 124/141/124 123/142/123 121/136/121 120/135/120
f 125/143/125 126/144/126 127/145/127 128/146/128
f 129/147/129 128/146/128 127/145/127 130/148/130
f 131/149/131 130/148/130 127/145/127 126/144/126
f 132/150/132 133/151/133 134/152/134 135/153/135
f 136/154/136 137/155/137 134/152/134 133/151/133
f 138/156/138 135/153/135 134/152/134 137/155/137
f 139/157/139 140/158/140 115/130/115 141/159/141
f 142/160/142 141/159/141 115/130/115 85/98/85
f 143/161/143 144/162/144 115/130/115 140/158/140
f 80/93/80 81/94/81 115/130/115 144/162/144
f 145/163/145 146/164/146 147/165/147 148/166/148
f 149/167/149 150/168/150 147/165/147 146/164/146
f 151/169/151 148/166/148 147/165/147 150/168/150
f 152/170/152 153/171/153 154/172/154 155/173/155
f 156/174/156 155/173/155 154/172/154 157/175/157
f 158/176/158 157/175/157 154/172/154 153/171/153
f 159/177/159 160/178/160 136/154/136 161/179/161
f 162/180/162 163/181/163 136/154/136 160/178/160
f 164/182/164 161/179/161 136/154/136 133/151/133
f 165/183/165 137/155/137 136/154/136 163/181/163
f 166/184/166 167/185/167 168/186/168 169/187/169
f 170/188/170 169/189/169 168/190/168 171/191/171
f 172/192/172 171/191/171 168/190/168 167/193/167
f 173/194/173 174/195/174 175/196/175 176/197/176
f 177/198/177 178/199/178 175/196/175 174/195/174
f 179/200/179 176/197/176 175/196/175 178/199/178
f 180/201/180 181/202/181 182/203/182 183/204/183
f 184/205/184 183/204/183 182/203/182 185/206/185
f 186/207/186 185/208/185 182/209/182 187/210/187
f 188/211/188 189/212/189 181/213/181 190/214/190
f 191/215/191 190/216/190 181/202/181 180/201/180
f 192/217/192 193/218/193 194/219/194 195/220/195
f 196/221/196 195/220/195 194/219/194 197/222/197
f 179/200/179 198/223/198 194/219/194 193/218/193
f 199/224/199 197/222/197 194/219/194 200/225/200
f 201/226/201 200/225/200 194/219/194 198/223/198
f 191/215/191 202/227/202 203/228/203 190/216/190
f 204/229/204 199/230/199 203/228/203 202/227/202
f 188/211/188 190/214/190 203/231/203 205/232/205
f 200/225/200 206/233/206 203/231/203 199/224/199
f 207/234/207 205/232/205 203/231/203 206/233/206
f 188/211/188 205/232/205 208/235/208 209/236/209
f 207/234/207 210/237/210 208/235/208 205/232/205
f 211/238/211 209/236/209 208/235/208 210/237/210
f 212/239/212 213/240/213 214/241/214 215/242/215
f 216/243/216 217/244/217 214/241/214 213/240/213
f 218/245/218 215/242/215 214/241/214 217/244/217
f 100/115/100 219/246/219 220/247/220 101/116/101
f 221/248/221 222/249/222 220/247/220 219/246/219
f 104/119/104 101/116/101 220/247/220 222/249/222
f 47/53/47 24/27/24 26/29/26 27/30/27
f 60/69/60 63/72/63 223/250/223 224/251/224
f 86/99/86 68/77/68 223/250/223 63/72/63
f 67/76/67 225/252/225 223/250/223 68/77/68
f 57/66/57 60/69/60 224/251/224 226/253/226
f 67/76/67 66/75/66 226/253/226 225/252/225
f 89/102/89 57/66/57 226/253/226 66/75/66
f 227/254/227 139/157/139 222/249/222 221/248/221
f 141/159/141 104/119/104 222/249/222 139/157/139
f 129/147/129 130/148/130 227/254/227 221/248/221
f 131/149/131 228/255/228 227/254/227 130/148/130
f 140/158/140 139/157/139 227/254/227 228/255/228
f 229/256/229 230/257/230 228/255/228 131/149/131
f 143/161/143 140/158/140 228/255/228 230/257/230
f 231/258/231 232/259/232 230/257/230 229/256/229
f 233/260/233 143/161/143 230/257/230 232/259/232
f 144/162/144 143/161/143 233/260/233 234/261/234
f 235/262/235 236/263/236 233/260/233 232/259/232
f 237/264/237 234/261/234 233/260/233 236/263/236
f 238/265/238 234/261/234 237/264/237 239/266/239
f 240/267/240 241/268/241 237/264/237 236/263/236
f 242/269/242 239/266/239 237/264/237 241/268/241
f 243/270/243 239/266/239 242/269/242 244/271/244
f 183/204/183 184/205/184 242/269/242 241/268/241
f 245/272/245 244/271/244 242/269/242 184/205/184
f 246/273/246 244/271/244 245/272/245 247/274/247
f 185/206/185 248/275/248 245/272/245 184/205/184
f 249/276/249 247/274/247 245/272/245 248/275/248
f 162/277/162 247/274/247 249/276/249 163/278/163
f 250/279/250 251/280/251 249/281/249 248/282/248
f 165/183/165 163/181/163 249/281/249 251/280/251
f 252/283/252 253/284/253 251/280/251 250/279/250
f 254/285/254 165/183/165 251/280/251 253/284/253
f 255/286/255 152/170/152 254/285/254 253/284/253
f 155/173/155 138/156/138 254/285/254 152/170/152
f 137/155/137 165/183/165 254/285/254 138/156/138
f 256/287/256 257/288/257 255/286/255 258/289/258
f 153/171/153 152/170/152 255/286/255 257/288/257
f 252/283/252 258/289/258 255/286/255 253/284/253
f 259/290/259 260/291/260 257/288/257 256/287/256
f 158/176/158 153/171/153 257/288/257 260/291/260
f 261/292/261 262/293/262 260/291/260 259/290/259
f 263/294/263 158/176/158 260/291/260 262/293/262
f 264/295/264 265/296/265 263/297/263 262/298/262
f 266/299/266 267/300/267 263/294/263 265/301/265
f 157/175/157 158/176/158 263/294/263 267/300/267
f 268/302/268 269/303/269 267/300/267 266/299/266
f 156/174/156 157/175/157 267/300/267 269/303/269
f 270/304/270 132/150/132 269/303/269 268/302/268
f 135/153/135 156/174/156 269/303/269 132/150/132
f 271/305/271 272/306/272 270/307/270 268/308/268
f 273/309/273 164/182/164 270/304/270 272/310/272
f 133/151/133 132/150/132 270/304/270 164/182/164
f 274/311/274 275/312/275 273/313/273 272/306/272
f 72/314/72 276/315/276 273/309/273 275/316/275
f 161/179/161 164/182/164 273/309/273 276/315/276
f 71/317/71 277/318/277 276/315/276 72/314/72
f 159/177/159 161/179/161 276/315/276 277/318/277
f 278/319/278 279/320/279 277/321/277 71/80/71
f 280/322/280 159/177/159 277/318/277 279/323/279
f 281/324/281 56/64/56 280/325/280 279/320/279
f 55/63/55 282/326/282 280/325/280 56/64/56
f 160/178/160 159/177/159 280/322/280 282/327/282
f 99/112/99 283/328/283 282/329/282 55/330/55
f 162/277/162 160/331/160 282/329/282 283/328/283
f 98/111/98 246/273/246 283/328/283 99/112/99
f 247/274/247 162/277/162 283/328/283 246/273/246
f 278/319/278 284/332/284 281/324/281 279/320/279
f 285/333/285 54/62/54 281/324/281 284/332/284
f 51/57/51 56/64/56 281/324/281 54/62/54
f 286/334/286 287/335/287 285/333/285 284/332/284
f 15/15/15 288/336/288 285/333/285 287/335/287
f 34/37/34 54/62/54 285/333/285 288/336/288
f 18/18/18 289/337/289 288/336/288 15/15/15
f 33/36/33 34/37/34 288/336/288 289/337/289
f 21/338/21 290/339/290 289/337/289 18/18/18
f 30/33/30 33/36/33 289/337/289 290/339/290
f 23/26/23 25/28/25 290/340/290 21/23/21
f 46/341/46 30/33/30 290/339/290 25/342/25
f 39/43/39 37/40/37 287/335/287 286/334/286
f 16/16/16 15/15/15 287/335/287 37/40/37
f 291/343/291 39/43/39 286/334/286 292/344/292
f 278/319/278 292/344/292 286/334/286 284/332/284
f 122/138/122 293/345/293 291/343/291 74/84/74
f 40/44/40 39/43/39 291/343/291 293/345/293
f 73/83/73 74/84/74 291/343/291 292/344/292
f 41/346/41 40/44/40 293/345/293 294/347/294
f 123/139/123 294/347/294 293/345/293 122/138/122
f 295/348/295 41/45/41 294/349/294 296/350/296
f 124/141/124 296/350/296 294/349/294 123/142/123
f 95/108/95 64/73/64 295/348/295 297/351/297
f 42/46/42 41/45/41 295/348/295 64/73/64
f 298/352/298 297/351/297 295/348/295 296/350/296
f 299/353/299 297/351/297 298/352/298 300/354/300
f 124/141/124 301/355/301 298/352/298 296/350/296
f 302/356/302 300/354/300 298/352/298 301/355/301
f 303/357/303 300/354/300 302/356/302 304/358/304
f 305/359/305 306/360/306 302/356/302 301/355/301
f 307/361/307 304/358/304 302/356/302 306/360/306
f 196/362/196 304/358/304 307/361/307 195/363/195
f 308/364/308 309/365/309 307/361/307 306/360/306
f 192/366/192 195/363/195 307/361/307 309/365/309
f 310/367/310 172/192/172 309/365/309 308/364/308
f 167/193/167 192/366/192 309/365/309 172/192/172
f 311/368/311 312/369/312 310/367/310 308/364/308
f 313/370/313 314/371/314 310/367/310 312/369/312
f 171/191/171 172/192/172 310/367/310 314/371/314
f 315/372/315 316/373/316 314/371/314 313/370/313
f 170/188/170 171/191/171 314/371/314 316/373/316
f 317/374/317 318/375/318 316/373/316 315/372/315
f 319/376/319 170/188/170 316/373/316 318/375/318
f 169/187/169 170/377/170 319/378/319 173/194/173
f 320/379/320 321/380/321 319/378/319 318/381/318
f 174/195/174 173/194/173 319/378/319 321/380/321
f 322/382/322 323/383/323 321/380/321 320/379/320
f 177/198/177 174/195/174 321/380/321 323/383/323
f 324/384/324 325/385/325 323/383/323 322/382/322
f 326/386/326 177/198/177 323/383/323 325/385/325
f 178/199/178 177/198/177 326/386/326 327/387/327
f 328/388/328 329/389/329 326/386/326 325/385/325
f 330/390/330 327/387/327 326/386/326 329/389/329
f 198/223/198 327/387/327 330/390/330 201/226/201
f 331/391/331 332/392/332 330/390/330 329/389/329
f 333/393/333 201/226/201 330/390/330 332/392/332
f 200/225/200 201/226/201 333/393/333 206/233/206
f 218/245/218 334/394/334 333/393/333 332/392/332
f 207/234/207 206/233/206 333/393/333 334/394/334
f 217/244/217 335/395/335 334/394/334 218/245/218
f 210/237/210 207/234/207 334/394/334 335/395/335
f 216/243/216 336/396/336 335/395/335 217/244/217
f 211/238/211 210/237/210 335/395/335 336/396/336
f 337/397/337 338/398/338 336/396/336 216/243/216
f 339/399/339 211/238/211 336/396/336 338/398/338
f 340/400/340 341/401/341 339/399/339 338/398/338
f 186/207/186 187/210/187 339/399/339 341/401/341
f 258/289/258 252/283/252 341/401/341 340/400/340
f 250/279/250 186/207/186 341/401/341 252/283/252
f 337/397/337 342/402/342 340/400/340 338/398/338
f 256/287/256 258/289/258 340/400/340 342/402/342
f 343/403/343 344/404/344 342/402/342 337/397/337
f 259/290/259 256/287/256 342/402/342 344/404/344
f 345/405/345 346/406/346 344/404/344 343/403/343
f 261/292/261 259/290/259 344/404/344 346/406/346
f 347/407/347 348/408/348 346/406/346 345/405/345
f 349/409/349 261/292/261 346/406/346 348/408/348
f 350/410/350 351/411/351 349/412/349 348/413/348
f 352/414/352 264/295/264 349/412/349 351/411/351
f 262/293/262 261/292/261 349/409/349 264/415/264
f 353/416/353 354/417/354 352/414/352 351/411/351
f 355/418/355 356/419/356 352/414/352 354/417/354
f 265/296/265 264/295/264 352/414/352 356/419/356
f 357/420/357 358/421/358 356/419/356 355/418/355
f 266/422/266 265/296/265 356/419/356 358/421/358
f 359/423/359 271/305/271 358/421/358 357/420/357
f 268/308/268 266/422/266 358/421/358 271/305/271
f 146/164/146 145/163/145 359/423/359 357/420/357
f 360/424/360 274/311/274 359/423/359 145/163/145
f 272/306/272 271/305/271 359/423/359 274/311/274
f 148/166/148 361/425/361 360/424/360 145/163/145
f 11/11/11 14/14/14 360/424/360 361/425/361
f 275/312/275 274/311/274 360/424/360 14/14/14
f 151/169/151 362/426/362 361/425/361 148/166/148
f 8/8/8 11/11/11 361/425/361 362/426/362
f 363/427/363 8/8/8 362/426/362 364/428/364
f 365/429/365 364/428/364 362/426/362 151/169/151
f 366/430/366 364/428/364 365/429/365 367/431/367
f 150/168/150 368/432/368 365/429/365 151/169/151
f 369/433/369 367/431/367 365/429/365 368/432/368
f 317/374/317 367/431/367 369/433/369 370/434/370
f 371/435/371 372/436/372 369/433/369 368/432/368
f 373/437/373 370/434/370 369/433/369 372/436/372
f 320/438/320 370/434/370 373/437/373 322/439/322
f 353/416/353 374/440/374 373/437/373 372/436/372
f 324/441/324 322/439/322 373/437/373 374/440/374
f 351/411/351 350/410/350 374/440/374 353/416/353
f 375/442/375 324/441/324 374/440/374 350/410/350
f 325/385/325 324/384/324 375/443/375 328/388/328
f 348/408/348 347/407/347 375/443/375 350/444/350
f 376/445/376 328/388/328 375/443/375 347/407/347
f 329/389/329 328/388/328 376/445/376 331/391/331
f 345/405/345 212/239/212 376/445/376 347/407/347
f 215/242/215 331/391/331 376/445/376 212/239/212
f 354/417/354 353/416/353 372/436/372 371/435/371
f 150/168/150 149/167/149 371/435/371 368/432/368
f 355/418/355 354/417/354 371/435/371 149/167/149
f 318/375/318 317/374/317 370/434/370 320/438/320
f 313/370/313 377/446/377 366/430/366 315/372/315
f 363/427/363 364/428/364 366/430/366 377/446/377
f 317/374/317 315/372/315 366/430/366 367/431/367
f 312/369/312 118/133/118 377/446/377 313/370/313
f 116/131/116 363/427/363 377/446/377 118/133/118
f 9/9/9 8/8/8 363/427/363 116/131/116
f 149/167/149 146/164/146 357/420/357 355/418/355
f 213/240/213 212/239/212 345/405/345 343/403/343
f 216/243/216 213/240/213 343/403/343 337/397/337
f 215/242/215 218/245/218 332/392/332 331/391/331
f 179/200/179 178/199/178 327/387/327 198/223/198
f 119/134/119 118/133/118 312/369/312 311/368/311
f 306/360/306 305/359/305 311/368/311 308/364/308
f 120/135/120 119/134/119 311/368/311 305/359/305
f 124/141/124 120/135/120 305/359/305 301/355/301
f 378/447/378 379/448/379 303/357/303 380/449/380
f 299/353/299 300/354/300 303/357/303 379/448/379
f 196/362/196 380/449/380 303/357/303 304/358/304
f 381/450/381 112/127/112 379/448/379 378/447/378
f 107/122/107 299/353/299 379/448/379 112/127/112
f 382/451/382 383/452/383 381/450/381 384/453/384
f 111/126/111 112/127/112 381/450/381 383/452/383
f 385/454/385 384/453/384 381/450/381 378/447/378
f 386/455/386 384/453/384 385/454/385 387/456/387
f 380/449/380 388/457/388 385/454/385 378/447/378
f 204/229/204 387/456/387 385/454/385 388/457/388
f 196/362/196 197/458/197 388/457/388 380/449/380
f 199/230/199 204/229/204 388/457/388 197/458/197
f 231/258/231 389/459/389 386/455/386 390/460/390
f 382/451/382 384/453/384 386/455/386 389/459/389
f 391/461/391 390/460/390 386/455/386 387/456/387
f 235/262/235 390/460/390 391/461/391 392/462/392
f 204/229/204 202/227/202 391/461/391 387/456/387
f 191/215/191 392/462/392 391/461/391 202/227/202
f 236/263/236 235/262/235 392/462/392 240/267/240
f 180/201/180 240/267/240 392/462/392 191/215/191
f 229/256/229 393/463/393 389/459/389 231/258/231
f 394/464/394 382/451/382 389/459/389 393/463/393
f 126/144/126 125/143/125 394/464/394 393/463/393
f 395/465/395 396/466/396 394/464/394 125/143/125
f 383/452/383 382/451/382 394/464/394 396/466/396
f 6/6/6 5/5/5 396/466/396 395/465/395
f 111/126/111 383/452/383 396/466/396 5/5/5
f 128/146/128 397/467/397 395/465/395 125/143/125
f 7/7/7 6/6/6 395/465/395 397/467/397
f 398/468/398 7/7/7 397/467/397 399/469/399
f 129/147/129 399/469/399 397/467/397 128/146/128
f 103/118/103 400/470/400 398/468/398 100/115/100
f 4/4/4 7/7/7 398/468/398 400/470/400
f 219/246/219 100/115/100 398/468/398 399/469/399
f 106/121/106 401/471/401 400/470/400 103/118/103
f 1/1/1 4/4/4 400/470/400 401/471/401
f 402/472/402 403/473/403 401/471/401 106/121/106
f 109/124/109 1/1/1 401/471/401 403/473/403
f 114/129/114 404/474/404 403/473/403 402/472/402
f 108/123/108 109/124/109 403/473/403 404/474/404
f 113/128/113 93/106/93 404/474/404 114/129/114
f 94/107/94 108/123/108 404/474/404 93/106/93
f 85/98/85 114/129/114 402/472/402 142/160/142
f 105/120/105 142/160/142 402/472/402 106/121/106
f 221/248/221 219/246/219 399/469/399 129/147/129
f 131/149/131 126/144/126 393/463/393 229/256/229
f 232/259/232 231/258/231 390/460/390 235/262/235
f 95/108/95 297/351/297 299/353/299 107/122/107
f 71/80/71 73/83/73 292/344/292 278/319/278
f 13/13/13 72/475/72 275/312/275 14/14/14
f 185/208/185 186/207/186 250/279/250 248/282/248
f 243/270/243 244/271/244 246/273/246 98/111/98
f 96/109/96 405/476/405 243/270/243 98/111/98
f 238/265/238 239/266/239 243/270/243 405/476/405
f 52/58/52 79/92/79 405/476/405 96/109/96
f 80/93/80 238/265/238 405/476/405 79/92/79
f 180/201/180 183/204/183 241/268/241 240/267/240
f 144/162/144 234/261/234 238/265/238 80/93/80
f 339/399/339 187/210/187 209/236/209 211/238/211
f 167/185/167 166/184/166 193/218/193 192/217/192
f 176/197/176 179/200/179 193/218/193 166/184/166
f 166/184/166 169/187/169 173/194/173 176/197/176
f 138/156/138 155/173/155 156/174/156 135/153/135
f 104/119/104 141/159/141 142/160/142 105/120/105
f 61/70/61 92/105/92 113/128/113 83/96/83
f 91/104/91 93/106/93 113/128/113 92/105/92
f 2/2/2 110/125/110 111/126/111 5/5/5
f 2/2/2 1/1/1 109/124/109 110/125/110
f 70/79/70 69/78/69 87/100/87 406/477/406
f 68/77/68 86/99/86 87/100/87 69/78/69
f 407/478/407 406/477/406 87/100/87 88/101/88
f 27/30/27 406/477/406 407/478/407 47/53/47
f 76/87/76 75/86/75 407/478/407 88/101/88
f 48/54/48 47/53/47 407/478/407 75/86/75
f 28/31/28 70/79/70 406/477/406 27/30/27
f 49/55/49 48/54/48 75/86/75 78/89/78
f 31/34/31 49/479/49 78/90/78 36/39/36
f 29/32/29 44/50/44 70/79/70 28/31/28
f 30/33/30 46/341/46 49/479/49 31/34/31
f 224/251/224 223/250/223 225/252/225 226/253/226
f 182/209/182 181/213/181 189/212/189 187/210/187
f 209/236/209 187/210/187 189/212/189 188/211/188
