# split from a merged terrain OBJ by scripts/split-terrain-obj-parts.py
o part-037
v 0.510825 0.504938 -0.030822
v 0.512611 0.501655 -0.023838
v 0.509345 0.497890 -0.027316
v 0.508023 0.501117 -0.033408
v 0.544679 0.578129 -0.032611
v 0.545992 0.573647 -0.035936
v 0.542917 0.577247 -0.038796
v 0.541670 0.580397 -0.036390
v 0.542783 0.570180 -0.039026
v 0.539705 0.575036 -0.040434
v 0.585377 0.505159 -0.021592
v 0.583936 0.502128 -0.015807
v 0.589925 0.500476 -0.020761
v 0.590862 0.498853 -0.024931
v 0.567342 0.558551 -0.011350
v 0.567474 0.566544 -0.015574
v 0.563012 0.572076 -0.009631
v 0.564145 0.560434 -0.003301
v 0.555735 0.562081 0.005977
v 0.554950 0.572962 0.001491
v 0.550966 0.583481 0.000098
v 0.553762 0.583634 -0.008654
v 0.549919 0.584743 -0.016142
v 0.559420 0.573781 -0.019040
v 0.545116 0.601260 -0.004201
v 0.547559 0.599984 -0.006573
v 0.545724 0.599717 -0.010830
v 0.541828 0.600188 -0.009198
v 0.541018 0.598582 -0.005636
v 0.547743 0.595447 -0.002779
v 0.550267 0.593797 -0.007176
v 0.546756 0.593861 -0.012587
v 0.538855 0.593878 -0.014663
v 0.538108 0.592073 -0.008421
v 0.534596 0.581567 -0.005374
v 0.542769 0.582915 0.000526
v 0.541415 0.587024 -0.023020
v 0.530043 0.589148 -0.012884
v 0.532645 0.596187 -0.026217
v 0.530785 0.598970 -0.021230
v 0.552376 0.567706 -0.030033
v 0.549183 0.576511 -0.026658
v 0.561905 0.567814 -0.021493
v 0.520908 0.603147 -0.026997
v 0.524859 0.605604 -0.026943
v 0.520360 0.609114 -0.031733
v 0.517541 0.608034 -0.032789
v 0.526206 0.603740 -0.030543
v 0.520773 0.608460 -0.033768
v 0.518275 0.608495 -0.035316
v 0.517191 0.605755 -0.035198
v 0.516580 0.605450 -0.033712
v 0.518882 0.600307 -0.029332
v 0.520691 0.599038 -0.032673
v 0.524391 0.601176 -0.032908
v 0.580649 0.493452 0.054333
v 0.580494 0.489992 0.060008
v 0.579686 0.489455 0.059729
v 0.580367 0.490715 0.054106
v 0.576821 0.492340 0.055809
v 0.576332 0.490640 0.055005
v 0.577134 0.489186 0.051961
v 0.578746 0.494524 0.042410
v 0.575293 0.490695 0.041903
v 0.571424 0.493354 0.043124
v 0.578398 0.505716 -0.010460
v 0.579481 0.513758 -0.017025
v 0.571996 0.527776 -0.011264
v 0.574760 0.511148 0.000499
v 0.573074 0.520030 0.008805
v 0.569139 0.533657 -0.000624
v 0.578416 0.514400 -0.025939
v 0.571196 0.528314 -0.024468
v 0.566766 0.546605 -0.006386
v 0.567162 0.545787 -0.015550
v 0.563436 0.545101 -0.025463
v 0.536482 0.580403 -0.029687
v 0.530015 0.592283 -0.029582
v 0.565317 0.558221 -0.019791
v 0.558150 0.557354 -0.027640
v 0.551277 0.554428 -0.034875
v 0.546803 0.563217 -0.036542
v 0.571121 0.496954 0.015569
v 0.570435 0.499515 0.002131
v 0.575217 0.504908 0.016705
v 0.574697 0.512838 0.020627
v 0.573857 0.498846 -0.009748
v 0.564595 0.534887 0.009747
v 0.563585 0.519994 0.016628
v 0.567087 0.514185 0.024687
v 0.557161 0.506144 0.014808
v 0.561093 0.508175 0.014186
v 0.554699 0.516264 0.018279
v 0.555071 0.532152 0.014068
v 0.564190 0.506002 0.021784
v 0.525057 0.583139 -0.016816
v 0.527506 0.574324 -0.011994
v 0.530322 0.565292 -0.009139
v 0.536333 0.569262 -0.001148
v 0.544340 0.571793 0.003511
v 0.536103 0.577765 -0.037048
v 0.523806 0.590005 -0.028313
v 0.527223 0.579903 -0.024599
v 0.528868 0.571774 -0.021593
v 0.533496 0.571317 -0.030115
v 0.536353 0.569569 -0.036885
v 0.563355 0.510439 -0.036413
v 0.569090 0.505195 -0.034054
v 0.564072 0.494641 -0.040817
v 0.563778 0.502307 -0.045526
v 0.569214 0.497350 -0.026018
v 0.559236 0.494639 -0.022643
v 0.556483 0.497339 -0.007591
v 0.567551 0.496456 -0.011696
v 0.574080 0.511089 -0.031625
v 0.578017 0.500268 -0.030733
v 0.577211 0.495404 -0.022388
v 0.564105 0.523115 -0.031798
v 0.556337 0.541632 -0.032556
v 0.544214 0.538472 -0.032432
v 0.547741 0.522928 -0.032580
v 0.550822 0.510463 -0.035257
v 0.579839 0.496243 -0.017512
v 0.562332 0.498560 0.006990
v 0.554771 0.498860 0.007442
v 0.552777 0.501482 0.019952
v 0.550170 0.507118 0.023335
v 0.540937 0.505358 0.015258
v 0.541719 0.518227 0.016444
v 0.544283 0.531227 0.014872
v 0.563921 0.498242 0.018355
v 0.549670 0.496197 0.014782
v 0.544199 0.502934 0.004761
v 0.544801 0.503079 -0.006973
v 0.542758 0.494691 0.020411
v 0.539327 0.500634 0.021624
v 0.544964 0.502100 0.027187
v 0.539484 0.514689 0.006995
v 0.554462 0.501155 -0.045971
v 0.553063 0.493097 -0.043300
v 0.544428 0.502474 -0.023861
v 0.532997 0.509507 -0.006849
v 0.534812 0.519958 -0.022519
v 0.535581 0.538697 -0.025194
v 0.519099 0.521730 -0.018099
v 0.528936 0.527644 -0.014541
v 0.523920 0.514390 -0.022978
v 0.531920 0.540438 -0.015220
v 0.536529 0.543375 0.006081
v 0.532196 0.541826 -0.004200
v 0.528115 0.526719 -0.003727
v 0.537277 0.528637 0.007355
v 0.517639 0.518689 -0.009334
v 0.522918 0.508533 -0.013213
v 0.516829 0.506131 -0.018060
v 0.510649 0.513267 -0.012570
v 0.511377 0.502940 -0.018498
v 0.503854 0.501104 -0.032322
v 0.503894 0.505398 -0.028641
v 0.516744 0.510507 -0.026194
v 0.510432 0.515156 -0.022562
v 0.536877 0.558570 0.002032
v 0.532141 0.555365 -0.006571
v 0.531449 0.553221 -0.017763
v 0.530783 0.563332 -0.019721
v 0.532863 0.562305 -0.029363
v 0.533256 0.551815 -0.028054
v 0.538377 0.561264 -0.035401
v 0.541155 0.551774 -0.034273
v 0.545051 0.561142 0.006942
v 0.545275 0.545872 0.011153
v 0.555839 0.547499 0.010684
v 0.563336 0.547575 0.003084
v 0.557493 0.495712 -0.062207
v 0.556786 0.489232 -0.061017
v 0.563773 0.489645 -0.060462
v 0.563991 0.495989 -0.061670
v 0.559198 0.487470 -0.078627
v 0.565312 0.487710 -0.077709
v 0.565731 0.493344 -0.078262
v 0.559281 0.493731 -0.079187
v 0.565920 0.487153 -0.087168
v 0.565931 0.492085 -0.087507
v 0.561252 0.491833 -0.087793
v 0.561498 0.487418 -0.087018
v 0.547263 0.497996 0.025483
v 0.573066 0.494128 0.028821
v 0.567767 0.496240 0.030147
v 0.566718 0.502563 0.032559
v 0.570623 0.508146 0.034715
v 0.571403 0.497778 0.044780
v 0.574756 0.501041 0.045915
v 0.577239 0.506235 0.032428
v 0.579024 0.499105 0.044132
v 0.577605 0.495970 0.053242
v 0.576901 0.500076 0.029739
v 0.584838 0.492779 -0.026265
v 0.586135 0.493015 -0.022184
v 0.584104 0.496329 -0.031409
v 0.583859 0.504881 -0.027804
v 0.589064 0.497862 -0.028819
v 0.522149 0.592243 -0.023169
v 0.525340 0.596150 -0.019936
v 0.590328 0.491007 -0.025376
v 0.589738 0.490665 -0.026693
vt 0.768094 0.672204
vt 0.768305 0.673127
vt 0.765656 0.671664
vt 0.766801 0.671591
vt 0.836269 0.683921
vt 0.831960 0.686468
vt 0.832458 0.683868
vt 0.834254 0.682266
vt 0.828183 0.685345
vt 0.830547 0.682857
vt 0.920384 0.760002
vt 0.915634 0.759584
vt 0.917535 0.758365
vt 0.919702 0.757874
vt 0.348184 0.712814
vt 0.341793 0.713556
vt 0.342567 0.709386
vt 0.349916 0.708010
vt 0.350998 0.700821
vt 0.343513 0.703019
vt 0.338309 0.700835
vt 0.334843 0.707083
vt 0.846467 0.683625
vt 0.851381 0.686693
vt 0.848884 0.694733
vt 0.841547 0.693393
vt 0.857931 0.677215
vt 0.856326 0.678244
vt 0.854050 0.677391
vt 0.855537 0.675849
vt 0.858533 0.674895
vt 0.859858 0.679263
vt 0.856483 0.680817
vt 0.851609 0.679501
vt 0.846328 0.674542
vt 0.856609 0.673019
vt 0.861449 0.669518
vt 0.864555 0.680516
vt 0.842942 0.676002
vt 0.851449 0.667788
vt 0.308248 0.675129
vt 0.312417 0.675176
vt 0.316272 0.679370
vt 0.306977 0.678028
vt 0.831692 0.692229
vt 0.838311 0.687327
vt 0.837204 0.697356
vt 0.310336 0.671452
vt 0.308880 0.672525
vt 0.305783 0.671321
vt 0.305325 0.669976
vt 0.029802 0.789085
vt 0.027962 0.792557
vt 0.026417 0.792661
vt 0.028277 0.788598
vt 0.027954 0.793810
vt 0.026542 0.795278
vt 0.029285 0.794360
vt 0.029296 0.795061
vt 0.031376 0.798053
vt 0.032723 0.795784
vt 0.032788 0.793654
vt 0.032360 0.791035
vt 0.968028 0.764049
vt 0.965989 0.764889
vt 0.965620 0.764659
vt 0.966387 0.762935
vt 0.966326 0.767464
vt 0.964306 0.766393
vt 0.963681 0.762939
vt 0.966253 0.757710
vt 0.962495 0.758615
vt 0.959367 0.760518
vt 0.912381 0.761282
vt 0.920513 0.762759
vt 0.925192 0.771708
vt 0.907968 0.764238
vt 0.965958 0.732897
vt 0.958469 0.732901
vt 0.959165 0.721667
vt 0.966239 0.723006
vt 0.928983 0.759853
vt 0.935291 0.762596
vt 0.967237 0.715467
vt 0.961697 0.712023
vt 0.820052 0.705952
vt 0.825405 0.709399
vt 0.823154 0.725255
vt 0.816396 0.720054
vt 0.836313 0.676120
vt 0.304804 0.674308
vt 0.300030 0.676632
vt 0.831908 0.702373
vt 0.826094 0.698742
vt 0.820752 0.694753
vt 0.825119 0.689582
vt 0.957810 0.744505
vt 0.952926 0.738012
vt 0.962707 0.742262
vt 0.968418 0.741385
vt 0.908947 0.753943
vt 0.903656 0.753750
vt 0.971903 0.723998
vt 0.973264 0.733810
vt 0.973735 0.740344
vt 0.980138 0.731569
vt 0.979084 0.732888
vt 0.977969 0.731144
vt 0.976748 0.725173
vt 0.986415 0.943741
vt 0.981652 0.945290
vt 0.980042 0.940253
vt 0.986476 0.939519
vt 0.327915 0.674688
vt 0.335918 0.676098
vt 0.331816 0.681983
vt 0.322194 0.677523
vt 0.343415 0.678363
vt 0.341361 0.684795
vt 0.868787 0.682895
vt 0.870251 0.675459
vt 0.832315 0.680422
vt 0.037982 0.793388
vt 0.037577 0.789146
vt 0.044514 0.787767
vt 0.044173 0.793090
vt 0.048791 0.793270
vt 0.049646 0.787864
vt 0.827354 0.680794
vt 0.827007 0.676342
vt 0.936169 0.746239
vt 0.930969 0.746513
vt 0.930050 0.737620
vt 0.937045 0.737376
vt 0.922058 0.746264
vt 0.917276 0.742132
vt 0.907926 0.743715
vt 0.909470 0.748864
vt 0.930956 0.752369
vt 0.924469 0.752125
vt 0.917445 0.750590
vt 0.939495 0.756223
vt 0.810014 0.717143
vt 0.813905 0.702264
vt 0.806520 0.696005
vt 0.805114 0.709645
vt 0.943632 0.748783
vt 0.946725 0.758607
vt 0.912866 0.755063
vt 0.900363 0.750549
vt 0.898076 0.746959
vt 0.392023 0.712847
vt 0.390207 0.717802
vt 0.380152 0.711683
vt 0.388058 0.709758
vt 0.393610 0.700165
vt 0.382542 0.700384
vt 0.373429 0.696712
vt 0.371035 0.702710
vt 0.991772 0.936671
vt 0.990663 0.942738
vt 0.397793 0.710356
vt 0.399378 0.715457
vt 0.389224 0.719781
vt 0.954712 0.747651
vt 0.949865 0.742199
vt 0.395333 0.709463
vt 0.396613 0.696976
vt 0.901435 0.739627
vt 0.894561 0.742492
vt 0.394357 0.708833
vt 0.393447 0.707286
vt 0.392300 0.709241
vt 0.381578 0.692502
vt 0.269970 0.964530
vt 0.265193 0.963515
vt 0.272486 0.953389
vt 0.275978 0.958946
vt 0.911350 0.734746
vt 0.894774 0.737170
vt 0.900852 0.731232
vt 0.952120 0.752599
vt 0.957853 0.765132
vt 0.952680 0.769114
vt 0.959678 0.773107
vt 0.783816 0.673746
vt 0.792117 0.678796
vt 0.791362 0.683334
vt 0.780333 0.675333
vt 0.801122 0.681780
vt 0.802706 0.687181
vt 0.361852 0.687101
vt 0.362246 0.679391
vt 0.371988 0.680086
vt 0.372268 0.689238
vt 0.364120 0.672724
vt 0.374630 0.670943
vt 0.385258 0.687729
vt 0.382842 0.661881
vt 0.383746 0.665028
vt 0.774469 0.676271
vt 0.777097 0.680098
vt 0.766647 0.675983
vt 0.768199 0.673773
vt 0.395720 0.688108
vt 0.394755 0.658161
vt 0.389787 0.658598
vt 0.395832 0.654136
vt 0.399656 0.651685
vt 0.764831 0.670465
vt 0.768054 0.669171
vt 0.773424 0.672185
vt 0.775640 0.669255
vt 0.388343 0.655154
vt 0.395429 0.648807
vt 0.771726 0.675161
vt 0.390500 0.664711
vt 0.350331 0.685871
vt 0.351628 0.679564
vt 0.353174 0.672661
vt 0.344710 0.672276
vt 0.819828 0.680730
vt 0.812470 0.684660
vt 0.810753 0.678293
vt 0.817773 0.675354
vt 0.821362 0.685216
vt 0.815497 0.690200
vt 0.823750 0.672771
vt 0.338847 0.670983
vt 0.341857 0.691079
vt 0.349683 0.692908
vt 0.361448 0.693753
vt 0.360795 0.701909
vt 0.358607 0.707168
vt 0.972718 0.716710
vt 0.978188 0.717937
vt 0.356302 0.712125
vt 0.926612 0.733146
vt 0.267603 0.973525
vt 0.263873 0.973063
vt 0.259899 0.972763
vt 0.258579 0.962757
vt 0.254164 0.964444
vt 0.255858 0.971962
vt 0.263180 0.982373
vt 0.259664 0.982280
vt 0.950946 0.717696
vt 0.944872 0.725935
vt 0.941261 0.722135
vt 0.950403 0.715036
vt 0.948148 0.728814
vt 0.953677 0.718888
vt 0.955280 0.712578
vt 0.955677 0.714485
vt 0.957519 0.715321
vt 0.266778 0.982782
vt 0.263041 0.986791
vt 0.265790 0.987300
vt 0.260520 0.987236
vt 0.943392 0.738658
vt 0.393324 0.710142
vt 0.960420 0.751869
vt 0.957285 0.753789
vt 0.987738 0.950196
vt 0.991477 0.949215
vt 0.983903 0.951310
vt 0.992076 0.956320
vt 0.988658 0.957138
vt 0.985063 0.958210
vt 0.980441 0.953256
vt 0.983832 0.959150
vt 0.990772 0.963339
vt 0.987627 0.962686
vt 0.970217 0.758956
vt 0.971964 0.762837
vt 0.969480 0.765264
vt 0.968354 0.749201
vt 0.964249 0.750236
vt 0.977416 0.946817
vt 0.992249 0.962954
vt 0.917903 0.753638
vt 0.916334 0.755190
vt 0.921198 0.753869
vt 0.924506 0.758128
vt 0.921209 0.756371
vt 0.044013 0.797428
vt 0.049357 0.798502
vt 0.038009 0.797031
vt 0.312082 0.670156
vt 0.318577 0.671981
vt 0.316339 0.673877
vt 0.860284 0.684599
vt 0.865228 0.686353
vt 0.345468 0.717139
vt 0.340014 0.717719
vt 0.354213 0.716554
vt 0.305718 0.672730
vt 0.303788 0.671903
vt 0.918305 0.755801
vt 0.918640 0.755390
vt 0.841845 0.698449
vt 0.957674 0.712482
vt 0.402488 0.648109
vt 0.397950 0.643564
vt 0.400418 0.641227
vn 0.4942 0.1890 -0.8486
vn 0.4568 -0.8789 0.1374
vn 0.0886 -0.9935 0.0715
vn -0.0795 -0.2450 -0.9663
vn 0.5679 0.7215 -0.3961
vn 0.7529 0.2791 -0.5960
vn 0.4875 0.4613 -0.7413
vn 0.2284 0.8906 -0.3934
vn 0.2087 -0.1258 -0.9699
vn -0.1070 0.1181 -0.9872
vn 0.7930 0.6035 0.0831
vn 0.7273 -0.0178 0.6861
vn 0.7637 0.1748 0.6214
vn 0.9644 0.2504 0.0855
vn 0.9918 0.1055 0.0719
vn 0.9384 0.3056 -0.1612
vn 0.8435 0.5073 0.1765
vn 0.8445 0.2325 0.4825
vn 0.4333 0.3277 0.8396
vn 0.5173 0.3885 0.7626
vn 0.4802 0.3733 0.7938
vn 0.8616 0.5068 0.0283
vn 0.6532 0.5907 -0.4737
vn 0.6731 0.6065 -0.4231
vn 0.0495 0.8375 0.5442
vn 0.7175 0.6957 -0.0359
vn 0.3917 0.6803 -0.6195
vn -0.4790 0.8466 -0.2321
vn -0.6764 0.4077 0.6134
vn 0.4295 0.4174 0.8009
vn 0.9242 0.3799 -0.0383
vn 0.5738 0.5109 -0.6401
vn -0.0251 0.9887 -0.1478
vn -0.7472 0.4569 0.4827
vn -0.6873 0.2351 0.6873
vn -0.3372 0.2542 0.9065
vn 0.5486 0.5989 -0.5834
vn -0.5908 0.4258 0.6853
vn 0.7344 0.4853 -0.4744
vn 0.3466 0.8391 0.4192
vn 0.6885 0.2993 -0.6606
vn 0.6014 0.5887 -0.5401
vn 0.7375 0.3663 -0.5674
vn -0.5924 0.3638 0.7188
vn 0.2900 0.8363 0.4653
vn 0.0542 0.9472 0.3159
vn -0.7147 0.6489 0.2613
vn 0.7568 0.4776 -0.4464
vn 0.4717 0.7366 -0.4847
vn -0.2409 0.6097 -0.7551
vn -0.6190 -0.1279 -0.7749
vn -0.9963 -0.0830 0.0224
vn -0.9537 -0.2128 0.2123
vn -0.4407 -0.4946 -0.7491
vn 0.4047 -0.0603 -0.9125
vn 0.8351 0.4517 0.3139
vn 0.5828 0.1127 0.8048
vn -0.0467 -0.5811 0.8125
vn 0.7520 -0.6493 -0.1135
vn -0.5925 0.4178 0.6887
vn -0.7046 -0.6114 0.3601
vn -0.0111 -0.9948 -0.1014
vn 0.9086 -0.3419 -0.2400
vn 0.1079 -0.9703 -0.2164
vn -0.8315 -0.5321 0.1595
vn 0.8661 -0.0531 0.4971
vn 0.8938 0.4213 0.1536
vn 0.9487 0.3153 0.0233
vn 0.9912 -0.0073 0.1320
vn 0.8862 0.3859 0.2563
vn 0.9265 0.2930 0.2362
vn 0.7502 0.4691 -0.4659
vn 0.8077 0.3772 -0.4532
vn 0.9695 0.1713 0.1755
vn 0.9688 0.1767 -0.1739
vn 0.7949 0.2019 -0.5721
vn -0.2417 0.5085 -0.8264
vn 0.2853 -0.0368 -0.9577
vn 0.8780 0.0753 -0.4727
vn 0.7142 0.1602 -0.6814
vn 0.3670 0.0144 -0.9301
vn 0.3395 -0.0390 -0.9398
vn 0.4331 -0.8802 -0.1942
vn 0.5953 -0.7990 0.0848
vn 0.9765 -0.1655 -0.1378
vn 0.8039 0.5573 0.2079
vn 0.4976 -0.7656 0.4077
vn 0.6391 0.3469 0.6865
vn 0.2031 0.4499 0.8697
vn -0.3607 0.7280 0.5830
vn 0.5462 -0.4320 0.7177
vn -0.4670 -0.3182 0.8250
vn 0.1497 0.0915 0.9845
vn 0.1585 0.2708 0.9495
vn -0.9440 0.0202 0.3293
vn -0.9475 -0.0774 0.3104
vn -0.9370 -0.0833 0.3393
vn -0.9447 -0.0698 0.3203
vn -0.6887 0.1263 0.7139
vn -0.2367 0.2571 0.9369
vn -0.6379 0.5247 -0.5637
vn -0.6415 -0.4409 -0.6278
vn -0.8069 -0.2740 -0.5233
vn -0.9369 -0.1930 -0.2915
vn -0.8882 -0.0317 -0.4583
vn -0.6897 -0.1517 -0.7081
vn 0.3121 0.3999 -0.8618
vn 0.6111 -0.2169 -0.7613
vn 0.6330 -0.7738 -0.0250
vn 0.6323 0.5978 -0.4928
vn 0.2395 -0.9258 -0.2925
vn -0.0312 -0.9971 0.0696
vn -0.2230 -0.9726 0.0663
vn 0.1044 -0.9886 0.1088
vn 0.4311 0.1762 -0.8849
vn 0.0595 -0.3560 -0.9326
vn -0.1973 -0.9773 -0.0771
vn 0.3333 0.2496 -0.9092
vn 0.3598 0.0629 -0.9309
vn -0.3229 -0.1374 -0.9364
vn -0.3549 -0.0234 -0.9346
vn -0.5343 0.2153 -0.8174
vn 0.2497 -0.7931 0.5556
vn -0.1246 -0.9655 0.2286
vn -0.0159 -0.9777 0.2092
vn 0.7650 -0.4058 0.5001
vn 0.2433 0.2818 0.9281
vn -0.9883 -0.1074 0.1085
vn -0.6696 0.1126 0.7341
vn -0.3987 0.1708 0.9010
vn -0.7354 -0.6730 0.0789
vn 0.1277 -0.9876 -0.0912
vn -0.6689 -0.7432 0.0151
vn -0.5891 -0.8074 0.0316
vn -0.3776 -0.9256 0.0265
vn -0.9807 -0.0308 0.1932
vn -0.1967 0.1846 0.9629
vn -0.9051 -0.2630 0.3340
vn -0.6517 0.5497 -0.5226
vn -0.7219 -0.6882 -0.0723
vn -0.7109 -0.6498 -0.2691
vn -0.6172 -0.7379 0.2729
vn -0.5661 -0.2233 -0.7935
vn -0.7953 -0.1214 -0.5939
vn -0.4330 0.8121 -0.3911
vn -0.8071 0.4738 -0.3523
vn 0.3149 -0.1552 -0.9364
vn -0.9835 0.0363 -0.1772
vn -0.7529 0.1478 0.6413
vn -0.9586 0.1178 0.2591
vn -0.8724 0.1281 0.4718
vn -0.8142 0.0127 0.5804
vn -0.6595 0.2549 0.7072
vn 0.1428 -0.9283 0.3432
vn 0.4968 -0.8169 0.2929
vn -0.6976 0.0359 0.7156
vn -0.3889 -0.5409 0.7457
vn -0.8057 -0.1350 -0.5767
vn -0.9271 0.1105 -0.3580
vn 0.4769 0.0446 -0.8778
vn -0.6625 0.6720 -0.3308
vn -0.7307 0.1537 0.6651
vn -0.9633 0.0099 0.2683
vn -0.9921 -0.0914 -0.0863
vn -0.9808 -0.1475 -0.1279
vn -0.8831 -0.1350 -0.4493
vn -0.8492 -0.1803 -0.4963
vn -0.4662 -0.2190 -0.8572
vn -0.3444 -0.2070 -0.9157
vn -0.2494 0.2836 0.9259
vn -0.2882 0.2316 0.9292
vn 0.3352 0.2829 0.8987
vn 0.7999 0.2497 0.5457
vn -0.6839 0.6751 -0.2767
vn -0.6905 -0.7232 0.0102
vn 0.6898 -0.7070 0.1558
vn 0.7242 0.6755 -0.1385
vn -0.6986 -0.7111 -0.0788
vn 0.6935 -0.7133 0.1015
vn 0.7425 0.6679 -0.0522
vn -0.6779 0.6968 -0.2342
vn 0.5873 -0.6288 -0.5096
vn 0.6165 0.4890 -0.6171
vn -0.4926 0.4717 -0.7313
vn -0.4891 -0.6359 -0.5969
vn 0.2883 -0.5847 0.7583
vn 0.2827 -0.9245 -0.2558
vn -0.7759 -0.6258 0.0793
vn -0.9283 0.0981 0.3587
vn -0.2753 0.7872 0.5518
vn -0.8721 0.1768 0.4563
vn -0.1442 0.8027 0.5787
vn 0.8375 0.5250 0.1514
vn 0.8759 0.4652 0.1280
vn -0.0698 0.7969 0.6001
vn 0.9482 -0.2317 -0.2172
vn -0.2619 -0.9115 -0.3172
vn 0.1846 -0.7979 0.5738
vn -0.0655 -0.3118 -0.9479
vn 0.6150 0.5058 -0.6050
vn 0.6378 0.1358 -0.7582
vn -0.9519 -0.1405 0.2724
vn -0.5269 0.4075 0.7459
vn 0.6745 -0.7247 0.1407
vn 0.3815 -0.8169 -0.4325
f 1/1/1 2/2/2 3/3/3 4/4/4
f 5/5/5 6/6/6 7/7/7 8/8/8
f 9/9/9 10/10/10 7/7/7 6/6/6
f 11/11/11 12/12/12 13/13/13 14/14/14
f 15/15/15 16/16/16 17/17/17 18/18/18
f 19/19/19 18/18/18 17/17/17 20/20/20
f 21/21/21 20/20/20 17/17/17 22/22/22
f 23/23/23 22/24/22 17/25/17 24/26/24
f 25/27/25 26/28/26 27/29/27 28/30/28
f 29/31/29 30/32/30 25/27/25 28/30/28
f 31/33/31 26/28/26 25/27/25 30/32/30
f 32/34/32 27/29/27 26/28/26 31/33/31
f 33/35/33 34/36/34 29/31/29 28/30/28
f 35/37/35 36/38/36 29/31/29 34/36/34
f 23/23/23 37/39/37 33/35/33 32/34/32
f 27/29/27 32/34/32 33/35/33 28/30/28
f 35/37/35 34/36/34 33/35/33 38/40/38
f 39/41/39 40/42/40 33/43/33 37/44/37
f 41/45/41 42/46/42 24/26/24 43/47/43
f 44/48/44 45/49/45 46/50/46 47/51/47
f 48/52/48 49/53/49 46/54/46 45/55/45
f 50/56/50 47/57/47 46/54/46 49/53/49
f 50/56/50 51/58/51 52/59/52 47/57/47
f 44/60/44 47/57/47 52/59/52 53/61/53
f 54/62/54 53/61/53 52/59/52 51/58/51
f 55/63/55 54/62/54 51/58/51 50/56/50
f 55/63/55 50/56/50 49/53/49 48/52/48
f 56/64/56 57/65/57 58/66/58 59/67/59
f 60/68/60 61/69/61 58/66/58 57/65/57
f 62/70/62 59/67/59 58/66/58 61/69/61
f 63/71/63 59/67/59 62/70/62 64/72/64
f 65/73/65 64/72/64 62/70/62 61/69/61
f 66/74/66 67/75/67 68/76/68 69/77/69
f 70/78/70 69/79/69 68/80/68 71/81/71
f 72/82/72 73/83/73 68/76/68 67/75/67
f 74/84/74 71/81/71 68/80/68 75/85/75
f 76/86/76 75/87/75 68/88/68 73/89/73
f 24/26/24 42/46/42 37/39/37 23/23/23
f 5/5/5 77/90/77 37/39/37 42/46/42
f 78/91/78 39/41/39 37/44/37 77/92/77
f 79/93/79 80/94/80 41/45/41 43/47/43
f 81/95/81 82/96/82 41/45/41 80/94/80
f 5/5/5 42/46/42 41/45/41 6/6/6
f 9/9/9 6/6/6 41/45/41 82/96/82
f 83/97/83 84/98/84 69/79/69 85/99/85
f 86/100/86 85/99/85 69/79/69 70/78/70
f 87/101/87 66/74/66 69/77/69 84/102/84
f 71/81/71 88/103/88 89/104/89 70/78/70
f 86/100/86 70/78/70 89/104/89 90/105/90
f 91/106/91 92/107/92 89/104/89 93/108/93
f 94/109/94 93/108/93 89/104/89 88/103/88
f 95/110/95 90/111/90 89/112/89 92/113/92
f 96/114/96 97/115/97 35/116/35 38/117/38
f 98/118/98 99/119/99 35/116/35 97/115/97
f 100/120/100 36/38/36 35/37/35 99/121/99
f 8/8/8 101/122/101 77/90/77 5/5/5
f 102/123/102 78/124/78 77/125/77 103/126/103
f 104/127/104 103/126/103 77/125/77 105/128/105
f 106/129/106 105/130/105 77/90/77 101/122/101
f 107/131/107 108/132/108 109/133/109 110/134/110
f 109/133/109 108/132/108 111/135/111 112/136/112
f 113/137/113 112/136/112 111/135/111 114/138/114
f 115/139/115 116/140/116 111/135/111 108/132/108
f 117/141/117 114/138/114 111/135/111 116/140/116
f 72/82/72 115/139/115 118/142/118 73/83/73
f 76/86/76 73/89/73 118/143/118 119/144/119
f 108/132/108 107/131/107 118/142/118 115/139/115
f 120/145/120 119/144/119 118/143/118 121/146/121
f 122/147/122 121/148/121 118/142/118 107/131/107
f 123/149/123 87/101/87 114/138/114 117/141/117
f 84/102/84 124/150/124 114/138/114 87/101/87
f 125/151/125 113/137/113 114/138/114 124/150/124
f 126/152/126 91/153/91 93/154/93 127/155/127
f 128/156/128 127/155/127 93/154/93 129/157/129
f 130/158/130 129/157/129 93/154/93 94/159/94
f 95/110/95 92/113/92 124/160/124 131/161/131
f 91/153/91 125/162/125 124/163/124 92/164/92
f 83/97/83 131/165/131 124/166/124 84/98/84
f 126/152/126 132/167/132 125/162/125 91/153/91
f 128/156/128 133/168/133 125/162/125 132/167/132
f 134/169/134 113/137/113 125/151/125 133/170/133
f 135/171/135 136/172/136 128/156/128 132/167/132
f 137/173/137 127/155/127 128/156/128 136/172/136
f 138/174/138 133/168/133 128/156/128 129/157/129
f 139/175/139 140/176/140 141/177/141 122/178/122
f 113/137/113 134/169/134 141/179/141 112/136/112
f 142/180/142 143/181/143 141/179/141 134/169/134
f 121/148/121 122/147/122 141/182/141 143/183/143
f 120/184/120 121/148/121 143/183/143 144/185/144
f 145/186/145 146/187/146 143/188/143 147/189/147
f 148/190/148 144/191/144 143/188/143 146/187/146
f 149/192/149 150/193/150 151/194/151 152/195/152
f 148/196/148 146/197/146 151/194/151 150/193/150
f 138/174/138 152/195/152 151/194/151 142/198/142
f 145/199/145 153/200/153 151/194/151 146/197/146
f 154/201/154 142/202/142 151/203/151 153/204/153
f 133/168/133 138/174/138 142/198/142 134/205/134
f 147/189/147 143/188/143 142/202/142 154/201/154
f 155/206/155 156/207/156 157/208/157 2/209/2
f 4/4/4 158/210/158 159/211/159 1/1/1
f 160/212/160 1/1/1 159/211/159 161/213/161
f 156/207/156 161/214/161 159/215/159 157/208/157
f 154/201/154 155/216/155 160/212/160 147/189/147
f 2/2/2 1/1/1 160/212/160 155/216/155
f 145/186/145 147/189/147 160/212/160 161/213/161
f 153/200/153 145/199/145 161/214/161 156/207/156
f 154/217/154 153/200/153 156/207/156 155/206/155
f 162/218/162 163/219/163 150/193/150 149/192/149
f 164/220/164 148/196/148 150/193/150 163/219/163
f 98/118/98 165/221/165 164/220/164 163/219/163
f 166/222/166 167/223/167 164/224/164 165/225/165
f 144/191/144 148/190/148 164/224/164 167/223/167
f 168/226/168 169/227/169 167/223/167 166/222/166
f 120/145/120 144/191/144 167/223/167 169/227/169
f 82/96/82 81/95/81 169/227/169 168/226/168
f 119/144/119 120/145/120 169/227/169 81/95/81
f 105/130/105 106/129/106 168/226/168 166/222/166
f 9/9/9 82/96/82 168/226/168 106/129/106
f 104/228/104 105/130/105 166/222/166 165/225/165
f 97/115/97 104/229/104 165/221/165 98/118/98
f 99/119/99 98/118/98 163/219/163 162/218/162
f 100/230/100 99/119/99 162/218/162 170/231/170
f 171/232/171 170/231/170 162/218/162 149/192/149
f 19/19/19 170/231/170 171/232/171 172/233/172
f 152/195/152 130/158/130 171/232/171 149/192/149
f 94/159/94 172/233/172 171/232/171 130/158/130
f 18/18/18 19/19/19 172/233/172 173/234/173
f 88/103/88 173/235/173 172/236/172 94/109/94
f 15/15/15 18/18/18 173/234/173 74/237/74
f 71/81/71 74/84/74 173/235/173 88/103/88
f 20/20/20 100/230/100 170/231/170 19/19/19
f 129/157/129 130/158/130 152/195/152 138/174/138
f 109/133/109 112/136/112 141/179/141 140/238/140
f 174/239/174 175/240/175 140/176/140 139/175/139
f 176/241/176 109/242/109 140/176/140 175/240/175
f 110/243/110 109/242/109 176/241/176 177/244/177
f 178/245/178 179/246/179 176/241/176 175/240/175
f 180/247/180 177/248/177 176/249/176 179/250/179
f 174/251/174 177/248/177 180/247/180 181/252/181
f 182/253/182 183/254/183 180/247/180 179/250/179
f 184/255/184 181/252/181 180/247/180 183/254/183
f 175/240/175 174/239/174 181/256/181 178/245/178
f 185/257/185 178/245/178 181/256/181 184/258/184
f 185/257/185 182/259/182 179/246/179 178/245/178
f 139/260/139 110/134/110 177/248/177 174/251/174
f 107/131/107 110/134/110 139/260/139 122/147/122
f 126/152/126 127/155/127 137/173/137 186/261/186
f 132/167/132 126/152/126 186/261/186 135/171/135
f 187/262/187 188/263/188 131/165/131 83/97/83
f 189/264/189 95/110/95 131/161/131 188/265/188
f 90/111/90 95/110/95 189/264/189 190/266/190
f 65/267/65 191/268/191 189/264/189 188/265/188
f 192/269/192 190/266/190 189/264/189 191/268/191
f 193/270/193 190/266/190 192/269/192 194/271/194
f 60/272/60 195/273/195 192/269/192 191/268/191
f 56/64/56 194/274/194 192/275/192 195/276/195
f 85/99/85 86/100/86 193/277/193 196/278/196
f 90/111/90 190/266/190 193/270/193 86/279/86
f 63/71/63 196/278/196 193/277/193 194/274/194
f 83/97/83 85/99/85 196/278/196 187/262/187
f 64/72/64 187/262/187 196/278/196 63/71/63
f 59/67/59 63/71/63 194/274/194 56/64/56
f 61/280/61 60/272/60 191/268/191 65/267/65
f 64/72/64 65/73/65 188/263/188 187/262/187
f 66/74/66 87/101/87 123/149/123 12/12/12
f 197/281/197 198/282/198 123/149/123 117/141/117
f 13/13/13 12/12/12 123/149/123 198/282/198
f 80/94/80 76/86/76 119/144/119 81/95/81
f 199/283/199 197/281/197 117/141/117 116/140/116
f 72/82/72 200/284/200 116/140/116 115/139/115
f 201/285/201 199/283/199 116/140/116 200/284/200
f 67/75/67 11/11/11 200/284/200 72/82/72
f 14/14/14 201/285/201 200/284/200 11/11/11
f 10/10/10 9/9/9 106/129/106 101/122/101
f 96/286/96 103/126/103 104/127/104 97/287/97
f 53/61/53 54/62/54 102/123/102 202/288/202
f 55/63/55 78/124/78 102/123/102 54/62/54
f 96/286/96 202/288/202 102/123/102 103/126/103
f 44/48/44 53/289/53 202/290/202 203/291/203
f 38/117/38 203/291/203 202/290/202 96/114/96
f 45/49/45 44/48/44 203/291/203 40/42/40
f 33/43/33 40/42/40 203/291/203 38/117/38
f 21/292/21 36/38/36 100/120/100 20/293/20
f 75/87/75 76/86/76 80/94/80 79/93/79
f 16/16/16 15/15/15 79/294/79 43/295/43
f 74/237/74 75/296/75 79/294/79 15/15/15
f 48/297/48 39/41/39 78/91/78 55/298/55
f 12/12/12 11/11/11 67/75/67 66/74/66
f 40/42/40 39/41/39 48/297/48 45/49/45
f 30/32/30 29/31/29 36/38/36 21/292/21
f 22/24/22 23/23/23 32/34/32 31/33/31
f 21/292/21 22/24/22 31/33/31 30/32/30
f 204/299/204 205/300/205 201/285/201 14/14/14
f 204/299/204 198/282/198 197/281/197 205/300/205
f 101/122/101 8/8/8 7/7/7 10/10/10
f 204/299/204 14/14/14 13/13/13 198/282/198
f 199/283/199 201/285/201 205/300/205 197/281/197
f 43/47/43 24/26/24 17/25/17 16/301/16
f 60/68/60 57/65/57 56/64/56 195/276/195
f 185/302/185 184/255/184 183/254/183 182/253/182
f 137/173/137 136/172/136 135/171/135 186/261/186
f 157/208/157 159/215/159 3/303/3 2/209/2
f 158/304/158 4/305/4 3/303/3 159/215/159
