# split from a merged terrain OBJ by scripts/split-terrain-obj-parts.py
o part-084
v 0.919066 1.172884 0.055473
v 0.918896 1.169670 0.053975
v 0.921898 1.170142 0.052390
v 0.922366 1.172920 0.053147
v 0.923681 1.173385 0.050299
v 0.921841 1.170644 0.049679
v 0.918012 1.168773 0.050590
v 0.920569 1.172025 0.048529
v 0.921536 1.174021 0.049501
v 0.921194 1.174319 0.052588
v 0.917274 1.171589 0.048609
v 0.917721 1.174879 0.050208
v 0.918567 1.175200 0.053749
v 0.908156 1.168118 0.056042
v 0.910845 1.167808 0.053626
v 0.913282 1.168881 0.056269
v 0.912442 1.170515 0.057965
v 0.916034 1.172181 0.057147
v 0.915980 1.169284 0.055191
v 0.914665 1.167525 0.051735
v 0.911371 1.174061 0.058059
v 0.907835 1.170119 0.056150
v 0.909693 1.170949 0.052568
v 0.913273 1.171064 0.049777
v 0.913620 1.175283 0.051470
v 0.910718 1.174560 0.053485
v 0.915012 1.175765 0.056217
vt 0.982046 0.693424
vt 0.980148 0.693330
vt 0.980613 0.691792
vt 0.981757 0.691307
vt 0.981315 0.690144
vt 0.980241 0.690506
vt 0.978892 0.691301
vt 0.980153 0.689179
vt 0.981492 0.689149
vt 0.982644 0.690410
vt 0.979049 0.688425
vt 0.982464 0.687006
vt 0.983831 0.690371
vt 0.832399 0.976479
vt 0.831068 0.976894
vt 0.830905 0.974802
vt 0.832519 0.973898
vt 0.829638 0.973213
vt 0.829217 0.975123
vt 0.829216 0.977224
vt 0.834689 0.975445
vt 0.833023 0.976954
vt 0.832248 0.978527
vt 0.830370 0.979537
vt 0.833378 0.982221
vt 0.834732 0.979428
vt 0.828030 0.980050
vt 0.829216 0.981769
vt 0.988230 0.690822
vt 0.985824 0.690703
vt 0.984417 0.686906
vt 0.987117 0.687782
vt 0.987547 0.693411
vt 0.985128 0.693227
vt 0.827392 0.977936
vt 0.827308 0.975622
vt 0.827299 0.973800
vn 0.5368 0.0930 0.8385
vn 0.4526 -0.7294 0.5130
vn 0.6477 -0.6830 0.3376
vn 0.7996 0.1911 0.5694
vn 0.9327 0.2763 -0.2319
vn 0.6022 -0.6133 -0.5112
vn 0.1686 -0.8916 -0.4202
vn 0.1615 -0.0488 -0.9857
vn 0.3872 0.6785 -0.6243
vn 0.4162 0.8694 0.2663
vn -0.1217 -0.0760 -0.9897
vn -0.0169 0.8154 -0.5786
vn 0.3341 0.8908 0.3081
vn -0.6485 -0.7112 0.2713
vn -0.3537 -0.9096 -0.2179
vn 0.2348 -0.8022 0.5489
vn 0.0873 -0.3578 0.9297
vn 0.4312 -0.0643 0.8999
vn 0.3621 -0.7474 0.5570
vn -0.0335 -0.9470 -0.3196
vn -0.3788 0.5615 0.7357
vn -0.9526 -0.0129 0.3038
vn -0.7952 0.0442 -0.6047
vn -0.4144 -0.0952 -0.9051
vn -0.3215 0.8003 -0.5061
vn -0.6514 0.7130 -0.2596
vn 0.1234 0.8473 0.5165
f 1/1/1 2/2/2 3/3/3 4/4/4
f 5/5/5 4/4/4 3/3/3 6/6/6
f 7/7/7 6/6/6 3/3/3 2/2/2
f 8/8/8 9/9/9 5/5/5 6/6/6
f 10/10/10 4/4/4 5/5/5 9/9/9
f 7/7/7 11/11/11 8/8/8 6/6/6
f 12/12/12 9/9/9 8/8/8 11/11/11
f 12/12/12 13/13/13 10/10/10 9/9/9
f 1/1/1 4/4/4 10/10/10 13/13/13
f 14/14/14 15/15/15 16/16/16 17/17/17
f 18/18/18 17/17/17 16/16/16 19/19/19
f 20/20/20 19/19/19 16/16/16 15/15/15
f 21/21/21 22/22/22 14/14/14 17/17/17
f 23/23/23 15/15/15 14/14/14 22/22/22
f 20/20/20 15/15/15 23/23/23 24/24/24
f 25/25/25 24/24/24 23/23/23 26/26/26
f 11/27/11 24/24/24 25/25/25 12/28/12
f 21/29/21 27/30/27 25/31/25 26/32/26
f 13/13/13 12/12/12 25/31/25 27/30/27
f 17/33/17 18/34/18 27/30/27 21/29/21
f 1/1/1 13/13/13 27/30/27 18/34/18
f 7/35/7 20/20/20 24/24/24 11/27/11
f 2/36/2 19/19/19 20/20/20 7/35/7
f 2/36/2 1/37/1 18/18/18 19/19/19
f 26/26/26 23/23/23 22/22/22 21/21/21
