# split from a merged terrain OBJ by scripts/split-terrain-obj-parts.py
o part-022
v 0.502964 0.341157 -0.017507
v 0.502081 0.343376 -0.008853
v 0.508730 0.345606 -0.011412
v 0.511926 0.340749 -0.017706
v 0.502317 0.342243 0.002327
v 0.513482 0.343725 0.001738
v 0.543849 0.203833 0.029724
v 0.542838 0.204868 0.036178
v 0.541598 0.200306 0.036672
v 0.542226 0.198854 0.029625
v 0.536317 0.191896 0.029451
v 0.535583 0.198540 0.036197
v 0.535746 0.204930 0.036985
v 0.537679 0.207542 0.030181
v 0.543885 0.209995 0.006778
v 0.539914 0.222833 0.006142
v 0.533460 0.222350 0.022785
v 0.540482 0.209661 0.020685
v 0.540134 0.248790 0.004974
v 0.535267 0.248848 0.019805
v 0.524451 0.248591 0.027985
v 0.520109 0.222312 0.028893
v 0.528801 0.209463 0.031633
v 0.517395 0.209990 0.032816
v 0.501049 0.191363 0.021450
v 0.501991 0.191310 0.031049
v 0.491620 0.192497 0.032935
v 0.489217 0.191756 0.023644
v 0.502490 0.197296 0.036487
v 0.489270 0.197474 0.036176
v 0.481716 0.196261 0.026655
v 0.542162 0.196850 -0.033019
v 0.541585 0.199012 -0.039790
v 0.540703 0.207106 -0.041936
v 0.544022 0.203862 -0.032501
v 0.524257 0.200602 -0.046269
v 0.525150 0.206833 -0.044619
v 0.533633 0.200415 -0.045700
v 0.524603 0.211521 -0.042314
v 0.536731 0.211835 -0.039735
v 0.542005 0.210340 -0.031505
v 0.541184 0.298043 0.013907
v 0.538441 0.299549 0.023381
v 0.530410 0.291550 0.025723
v 0.537892 0.290133 0.014961
v 0.536102 0.302511 0.031036
v 0.527401 0.300411 0.031936
v 0.536273 0.273429 0.017013
v 0.527615 0.274014 0.026548
v 0.513692 0.274499 0.029233
v 0.514960 0.292060 0.029725
v 0.514761 0.299535 0.032739
v 0.475566 0.209943 -0.025827
v 0.478192 0.211734 -0.035001
v 0.475427 0.206483 -0.039511
v 0.472955 0.202457 -0.028177
v 0.483671 0.211883 -0.039575
v 0.482938 0.206753 -0.042703
v 0.530179 0.322302 -0.002222
v 0.522052 0.331181 -0.005427
v 0.516948 0.329513 0.009250
v 0.527742 0.322109 0.012078
v 0.525200 0.322226 0.022031
v 0.514972 0.321870 0.022839
v 0.498792 0.322221 0.025089
v 0.502409 0.332345 0.007467
v 0.517202 0.329944 -0.020044
v 0.519005 0.341059 -0.007315
v 0.502870 0.339301 -0.022119
v 0.508332 0.338374 -0.024299
v 0.495842 0.339635 -0.009320
v 0.494836 0.337439 0.000871
v 0.496812 0.331564 -0.012202
v 0.497630 0.331655 -0.000202
v 0.504714 0.329626 -0.020173
v 0.514527 0.317064 0.029719
v 0.501182 0.316535 0.031599
v 0.492188 0.316359 0.031233
v 0.486861 0.317700 0.022187
v 0.543344 0.312014 -0.031653
v 0.538553 0.309515 -0.043108
v 0.536394 0.313416 -0.040788
v 0.537638 0.315854 -0.030942
v 0.528529 0.311115 -0.046008
v 0.527628 0.315270 -0.040796
v 0.527316 0.322172 -0.030325
v 0.501884 0.311538 0.036945
v 0.490079 0.312657 0.034413
v 0.481052 0.313662 0.022140
v 0.529374 0.322306 -0.017562
v 0.503541 0.321607 -0.029354
v 0.515815 0.321852 -0.029860
v 0.489441 0.322064 0.002580
v 0.488410 0.322067 -0.012904
v 0.491038 0.321781 -0.028799
v 0.496104 0.326626 -0.021584
v 0.498881 0.334844 -0.018346
v 0.497476 0.339744 -0.015872
v 0.504197 0.317080 -0.037293
v 0.494184 0.316792 -0.037258
v 0.485636 0.315110 -0.038521
v 0.481300 0.318160 -0.028439
v 0.480124 0.317809 -0.013166
v 0.488792 0.310815 -0.044475
v 0.481993 0.309166 -0.046098
v 0.478840 0.312337 -0.040243
v 0.489672 0.307631 -0.045897
v 0.482352 0.307041 -0.045353
v 0.475144 0.308842 -0.041482
v 0.482718 0.303443 -0.042975
v 0.475681 0.303555 -0.039167
v 0.471389 0.304467 -0.028618
v 0.470444 0.309908 -0.029513
v 0.475429 0.313628 -0.028820
v 0.470465 0.310076 -0.012569
v 0.474957 0.313385 -0.012910
v 0.472972 0.309936 0.004781
v 0.476744 0.313905 0.004217
v 0.481287 0.318029 0.003362
v 0.477118 0.310205 0.022903
v 0.472966 0.305136 0.004545
v 0.477474 0.304636 0.022353
v 0.487712 0.302958 0.034453
v 0.487828 0.308628 0.036120
v 0.501592 0.303722 0.036720
v 0.501644 0.307618 0.039805
v 0.514542 0.304016 0.035776
v 0.514622 0.308128 0.038367
v 0.514465 0.312481 0.034934
v 0.524518 0.308534 0.037996
v 0.524476 0.312555 0.034341
v 0.524843 0.317012 0.029315
v 0.532426 0.311790 0.034531
v 0.533340 0.314241 0.029194
v 0.534930 0.316751 0.022108
v 0.541623 0.313451 0.012190
v 0.536666 0.317828 0.012494
v 0.540430 0.312924 0.021428
v 0.539386 0.312008 0.028940
v 0.544710 0.309459 0.021061
v 0.543602 0.309709 0.028596
v 0.538442 0.310938 0.034232
v 0.542042 0.310275 0.033165
v 0.544757 0.303410 0.012771
v 0.545875 0.309171 0.012244
v 0.543012 0.304272 0.021857
v 0.541679 0.305620 0.029532
v 0.540044 0.306436 0.035358
v 0.533811 0.305257 0.036116
v 0.525582 0.304558 0.035595
v 0.532190 0.309299 0.038156
v 0.537098 0.309881 0.037455
v 0.546130 0.303175 -0.000137
v 0.546922 0.309065 -0.000520
v 0.542894 0.313478 -0.000893
v 0.538250 0.318135 -0.001212
v 0.546858 0.308597 -0.016743
v 0.543459 0.312992 -0.017024
v 0.538032 0.317033 -0.017374
v 0.545514 0.307445 -0.031691
v 0.545561 0.303651 -0.016469
v 0.543775 0.303182 -0.030857
v 0.538727 0.302127 -0.041248
v 0.539186 0.305623 -0.043049
v 0.528931 0.302717 -0.044554
v 0.529027 0.306828 -0.047516
v 0.518268 0.303679 -0.045051
v 0.517604 0.307824 -0.047423
v 0.516833 0.312045 -0.044315
v 0.516069 0.316551 -0.038928
v 0.506906 0.308322 -0.046968
v 0.505746 0.312620 -0.042950
v 0.497686 0.308319 -0.046375
v 0.496505 0.312352 -0.043047
v 0.507739 0.303946 -0.044704
v 0.498151 0.304013 -0.044355
v 0.490068 0.303873 -0.043908
v 0.498504 0.299039 -0.041125
v 0.490560 0.299118 -0.040487
v 0.483931 0.298966 -0.039194
v 0.490800 0.290116 -0.037016
v 0.484661 0.290062 -0.036118
v 0.481056 0.290214 -0.032082
v 0.478586 0.298990 -0.035811
v 0.478554 0.290992 -0.025038
v 0.474856 0.299828 -0.027310
v 0.478191 0.292721 -0.013539
v 0.474107 0.300772 -0.013102
v 0.470878 0.305468 -0.012669
v 0.475360 0.300740 0.003756
v 0.479342 0.293543 0.002433
v 0.483322 0.293450 0.017623
v 0.480355 0.300097 0.020381
v 0.490613 0.292199 0.028137
v 0.489352 0.298695 0.031744
v 0.502004 0.292077 0.030675
v 0.501960 0.298996 0.033556
v 0.489892 0.274322 0.026047
v 0.501019 0.274478 0.029568
v 0.488045 0.247795 0.024185
v 0.498612 0.248094 0.029736
v 0.510839 0.248375 0.029400
v 0.495759 0.223132 0.029224
v 0.507092 0.222650 0.029910
v 0.504110 0.210441 0.033655
v 0.492117 0.211845 0.033830
v 0.502917 0.203919 0.038231
v 0.489753 0.204284 0.037166
v 0.487354 0.223061 0.023038
v 0.483121 0.211184 0.026175
v 0.480257 0.203431 0.027833
v 0.478710 0.209983 0.014051
v 0.475708 0.202451 0.014831
v 0.478432 0.195002 0.014211
v 0.487295 0.191740 0.012179
v 0.472882 0.201837 0.000351
v 0.476010 0.194191 0.000084
v 0.485264 0.191506 -0.001121
v 0.499218 0.191344 0.009919
v 0.497630 0.191314 -0.003087
v 0.475981 0.194278 -0.015435
v 0.485268 0.191476 -0.016170
v 0.497837 0.191329 -0.017472
v 0.513807 0.191313 -0.004550
v 0.513246 0.191348 -0.018731
v 0.487013 0.191937 -0.029466
v 0.499084 0.191581 -0.030275
v 0.512776 0.191635 -0.031498
v 0.527073 0.191443 -0.019648
v 0.525479 0.191954 -0.032256
v 0.499803 0.193815 -0.039707
v 0.512736 0.193629 -0.040617
v 0.524794 0.194440 -0.041529
v 0.535195 0.192771 -0.033132
v 0.534506 0.196669 -0.041399
v 0.512406 0.199961 -0.045517
v 0.500448 0.199691 -0.045345
v 0.500945 0.205969 -0.044097
v 0.512381 0.206306 -0.044503
v 0.501271 0.211297 -0.041268
v 0.512466 0.211316 -0.041745
v 0.501104 0.224628 -0.037038
v 0.512366 0.224701 -0.037368
v 0.523678 0.224749 -0.037961
v 0.511069 0.248499 -0.037108
v 0.522611 0.248409 -0.037576
v 0.531978 0.248433 -0.037639
v 0.533454 0.224194 -0.036843
v 0.538118 0.248487 -0.031884
v 0.538409 0.223454 -0.030376
v 0.539340 0.248492 -0.022624
v 0.539749 0.222904 -0.020977
v 0.543582 0.209478 -0.020731
v 0.540432 0.222873 -0.008741
v 0.544274 0.209645 -0.007859
v 0.547221 0.202205 -0.007382
v 0.546047 0.202519 -0.020992
v 0.545458 0.194925 -0.006525
v 0.543960 0.195220 -0.021097
v 0.538064 0.191843 -0.005730
v 0.536638 0.191636 -0.020565
v 0.528342 0.191386 -0.005173
v 0.537548 0.192473 0.008123
v 0.528082 0.191389 0.007939
v 0.514068 0.191310 0.008184
v 0.527186 0.191575 0.019601
v 0.514532 0.191317 0.020036
v 0.526780 0.191556 0.029110
v 0.515054 0.191290 0.029543
v 0.526614 0.197209 0.035597
v 0.515595 0.196956 0.035624
v 0.527105 0.204589 0.036860
v 0.516232 0.204082 0.036941
v 0.536674 0.192830 0.019530
v 0.543219 0.197381 0.019984
v 0.545056 0.196239 0.007986
v 0.545493 0.203492 0.020173
v 0.548401 0.202922 0.007085
v 0.540093 0.248620 -0.010790
v 0.539193 0.273499 -0.024240
v 0.540063 0.273361 -0.012983
v 0.540516 0.273185 0.002593
v 0.541194 0.289565 0.001133
v 0.540576 0.289955 -0.014810
v 0.543490 0.297561 0.000354
v 0.542985 0.298212 -0.015890
v 0.539343 0.289114 -0.026771
v 0.541220 0.297786 -0.029272
v 0.536530 0.288335 -0.035006
v 0.537261 0.296581 -0.038237
v 0.529054 0.288598 -0.038237
v 0.528816 0.297602 -0.041122
v 0.519596 0.289170 -0.037964
v 0.518861 0.298972 -0.041553
v 0.508969 0.289767 -0.037650
v 0.508385 0.299458 -0.041398
v 0.498763 0.290167 -0.037393
v 0.509495 0.273774 -0.037058
v 0.498120 0.273580 -0.036696
v 0.490568 0.273046 -0.036444
v 0.499049 0.248653 -0.036685
v 0.490671 0.248719 -0.036410
v 0.483499 0.248701 -0.035513
v 0.483786 0.272790 -0.035835
v 0.479350 0.248835 -0.030631
v 0.479573 0.272613 -0.030823
v 0.478888 0.248464 -0.022956
v 0.478879 0.272979 -0.023519
v 0.479071 0.247893 -0.013410
v 0.478977 0.273295 -0.013745
v 0.479704 0.247571 -0.000213
v 0.479750 0.273617 0.000958
v 0.482415 0.247500 0.013136
v 0.483350 0.274027 0.015172
v 0.481851 0.222630 0.012563
v 0.479110 0.222766 -0.000569
v 0.476467 0.209573 -0.000059
v 0.478722 0.223195 -0.013303
v 0.475390 0.209113 -0.014041
v 0.472045 0.201380 -0.014818
v 0.478335 0.223840 -0.023228
v 0.479698 0.224491 -0.031012
v 0.484665 0.224821 -0.035745
v 0.491715 0.224769 -0.036861
v 0.491634 0.211517 -0.040822
v 0.491235 0.206070 -0.043889
v 0.490239 0.200388 -0.044929
v 0.483409 0.201314 -0.044769
v 0.488698 0.194412 -0.039643
v 0.479220 0.197089 -0.040242
v 0.476856 0.194400 -0.029167
v 0.520837 0.273738 -0.037541
v 0.530170 0.273617 -0.037664
v 0.537401 0.273530 -0.033263
vt 0.272446 0.249047
vt 0.267743 0.247643
vt 0.272935 0.244155
vt 0.279191 0.246944
vt 0.260964 0.247190
vt 0.261326 0.242672
vt 0.205180 0.491293
vt 0.202682 0.491283
vt 0.202193 0.489321
vt 0.205069 0.488562
vt 0.202666 0.484831
vt 0.199746 0.488374
vt 0.200086 0.491648
vt 0.203074 0.495098
vt 0.215549 0.497087
vt 0.215054 0.504214
vt 0.204534 0.504037
vt 0.208046 0.496342
vt 0.215501 0.517885
vt 0.206386 0.517982
vt 0.198517 0.517970
vt 0.196035 0.504172
vt 0.198880 0.496351
vt 0.193391 0.497497
vt 0.243584 0.348990
vt 0.238618 0.346910
vt 0.238275 0.340287
vt 0.242537 0.341683
vt 0.186520 0.488990
vt 0.180424 0.489498
vt 0.182106 0.485422
vt 0.187442 0.483893
vt 0.241573 0.336075
vt 0.236925 0.336082
vt 0.235777 0.489345
vt 0.239042 0.489877
vt 0.240660 0.494550
vt 0.235736 0.493374
vt 0.294085 0.333627
vt 0.295139 0.329867
vt 0.301892 0.330171
vt 0.297583 0.334735
vt 0.295517 0.326748
vt 0.300841 0.326528
vt 0.235946 0.497179
vt 0.240991 0.497906
vt 0.210248 0.544093
vt 0.205126 0.545314
vt 0.201293 0.540190
vt 0.208966 0.539665
vt 0.201489 0.547568
vt 0.197761 0.546028
vt 0.207343 0.530802
vt 0.199859 0.531296
vt 0.191900 0.532478
vt 0.192465 0.541726
vt 0.191873 0.545927
vt 0.265168 0.326333
vt 0.270472 0.325767
vt 0.271424 0.329360
vt 0.266042 0.330824
vt 0.274508 0.325701
vt 0.275266 0.328716
vt 0.217852 0.562820
vt 0.217704 0.569112
vt 0.206132 0.572706
vt 0.208837 0.564051
vt 0.202816 0.562984
vt 0.197479 0.564560
vt 0.188261 0.565191
vt 0.199145 0.573544
vt 0.227282 0.571049
vt 0.224475 0.576660
vt 0.217401 0.573873
vt 0.274232 0.250834
vt 0.276735 0.250430
vt 0.265765 0.251271
vt 0.260236 0.250751
vt 0.265994 0.255045
vt 0.258098 0.253343
vt 0.253388 0.249499
vt 0.277966 0.254540
vt 0.284563 0.253245
vt 0.193581 0.560004
vt 0.187206 0.560166
vt 0.182892 0.560899
vt 0.182006 0.566355
vt 0.251784 0.240953
vt 0.234613 0.553672
vt 0.240708 0.552616
vt 0.240252 0.555737
vt 0.234530 0.557294
vt 0.297892 0.269301
vt 0.296939 0.265813
vt 0.301508 0.266888
vt 0.302587 0.269809
vt 0.234497 0.563977
vt 0.241028 0.560609
vt 0.186474 0.555833
vt 0.181577 0.557879
vt 0.241271 0.266907
vt 0.233567 0.267088
vt 0.234777 0.264044
vt 0.240649 0.263185
vt 0.226836 0.563279
vt 0.281824 0.260438
vt 0.288587 0.259312
vt 0.254100 0.258969
vt 0.241321 0.255891
vt 0.262752 0.260749
vt 0.273856 0.261291
vt 0.272413 0.257739
vt 0.271488 0.253062
vt 0.269679 0.251238
vt 0.284644 0.265004
vt 0.279461 0.266055
vt 0.275746 0.267602
vt 0.270046 0.265978
vt 0.260600 0.265217
vt 0.278768 0.271619
vt 0.276308 0.273323
vt 0.273627 0.271123
vt 0.279392 0.273923
vt 0.276249 0.274499
vt 0.272824 0.273462
vt 0.275714 0.276773
vt 0.272076 0.276480
vt 0.266787 0.276045
vt 0.267130 0.272950
vt 0.267709 0.269398
vt 0.259038 0.272094
vt 0.259506 0.269072
vt 0.250250 0.271156
vt 0.250696 0.267819
vt 0.251633 0.264104
vt 0.241223 0.269809
vt 0.250033 0.273836
vt 0.241143 0.273004
vt 0.233588 0.273601
vt 0.233299 0.270288
vt 0.185403 0.549993
vt 0.186030 0.552807
vt 0.180900 0.555166
vt 0.180099 0.551908
vt 0.191098 0.549213
vt 0.191213 0.552228
vt 0.191674 0.555776
vt 0.195139 0.551955
vt 0.195917 0.555509
vt 0.198321 0.559569
vt 0.199221 0.555074
vt 0.201677 0.556733
vt 0.205758 0.558322
vt 0.211767 0.554272
vt 0.210928 0.558013
vt 0.207178 0.554520
vt 0.203634 0.554634
vt 0.207795 0.551350
vt 0.204385 0.551967
vt 0.201077 0.553479
vt 0.202439 0.552738
vt 0.211529 0.547426
vt 0.212075 0.550744
vt 0.207025 0.548469
vt 0.203511 0.549740
vt 0.201340 0.551101
vt 0.199107 0.549667
vt 0.195856 0.549060
vt 0.198087 0.552521
vt 0.199940 0.552311
vt 0.218322 0.547491
vt 0.218572 0.550754
vt 0.218570 0.554041
vt 0.218199 0.557791
vt 0.226996 0.550919
vt 0.227148 0.554080
vt 0.227087 0.557862
vt 0.234536 0.550908
vt 0.227056 0.547981
vt 0.234428 0.548379
vt 0.240369 0.548270
vt 0.240604 0.550209
vt 0.298541 0.274326
vt 0.297990 0.271798
vt 0.302677 0.272087
vt 0.302777 0.274350
vt 0.293097 0.274631
vt 0.292513 0.271989
vt 0.291929 0.269009
vt 0.290766 0.264960
vt 0.287266 0.272295
vt 0.286246 0.269074
vt 0.282861 0.273071
vt 0.281966 0.270101
vt 0.287746 0.275132
vt 0.283039 0.275729
vt 0.279222 0.276442
vt 0.282803 0.279062
vt 0.278715 0.279618
vt 0.275151 0.280201
vt 0.277952 0.284749
vt 0.274150 0.284946
vt 0.270924 0.284801
vt 0.271646 0.279792
vt 0.266294 0.284102
vt 0.266618 0.279033
vt 0.259600 0.282576
vt 0.259119 0.277720
vt 0.258823 0.274677
vt 0.250045 0.276763
vt 0.250434 0.281136
vt 0.241875 0.280531
vt 0.240954 0.276212
vt 0.235108 0.280797
vt 0.233964 0.276620
vt 0.185720 0.542781
vt 0.185887 0.546747
vt 0.180410 0.548768
vt 0.180115 0.544971
vt 0.236217 0.290757
vt 0.230169 0.291041
vt 0.229398 0.281649
vt 0.184853 0.533137
vt 0.237697 0.305429
vt 0.231772 0.305827
vt 0.190626 0.518470
vt 0.183803 0.518713
vt 0.182899 0.505060
vt 0.188846 0.504552
vt 0.186792 0.497651
vt 0.180570 0.498347
vt 0.186329 0.493202
vt 0.180056 0.493774
vt 0.239077 0.319223
vt 0.239864 0.326723
vt 0.234979 0.326868
vt 0.234266 0.320001
vt 0.240420 0.331520
vt 0.235366 0.331735
vt 0.245237 0.326665
vt 0.246155 0.331421
vt 0.246736 0.336216
vt 0.247908 0.341670
vt 0.252573 0.331128
vt 0.253260 0.336259
vt 0.254199 0.342694
vt 0.249942 0.348520
vt 0.259222 0.348359
vt 0.260677 0.336087
vt 0.262792 0.341134
vt 0.269575 0.347953
vt 0.267085 0.355047
vt 0.277945 0.350596
vt 0.270788 0.340400
vt 0.277415 0.342919
vt 0.284392 0.345375
vt 0.286686 0.352152
vt 0.290799 0.344429
vt 0.281629 0.338305
vt 0.287349 0.338539
vt 0.292823 0.338522
vt 0.295831 0.343626
vt 0.298077 0.337818
vt 0.288746 0.333417
vt 0.283199 0.333302
vt 0.283896 0.329427
vt 0.289273 0.329528
vt 0.283982 0.326122
vt 0.289761 0.326227
vt 0.283488 0.318733
vt 0.289637 0.318615
vt 0.295731 0.318371
vt 0.289409 0.305669
vt 0.295757 0.305168
vt 0.300868 0.304935
vt 0.300521 0.318797
vt 0.236372 0.518275
vt 0.235588 0.504582
vt 0.239875 0.504978
vt 0.240910 0.518362
vt 0.231321 0.518089
vt 0.230423 0.504295
vt 0.230455 0.496824
vt 0.223687 0.504272
vt 0.223423 0.497043
vt 0.223367 0.492718
vt 0.230171 0.492717
vt 0.222817 0.488455
vt 0.230097 0.488320
vt 0.222179 0.483881
vt 0.229730 0.483656
vt 0.235974 0.485138
vt 0.221236 0.478091
vt 0.229190 0.478167
vt 0.292452 0.351409
vt 0.214708 0.483829
vt 0.212741 0.479193
vt 0.205721 0.473017
vt 0.215086 0.471273
vt 0.277080 0.358334
vt 0.204488 0.479709
vt 0.196052 0.475971
vt 0.257133 0.356482
vt 0.249174 0.356024
vt 0.199463 0.481848
vt 0.193380 0.482530
vt 0.189032 0.478170
vt 0.196596 0.486650
vt 0.192218 0.488496
vt 0.196788 0.492418
vt 0.192265 0.493326
vt 0.208412 0.483525
vt 0.209470 0.488201
vt 0.215505 0.488370
vt 0.209292 0.491956
vt 0.215987 0.492576
vt 0.224592 0.518019
vt 0.231682 0.531641
vt 0.225243 0.531259
vt 0.216302 0.530865
vt 0.217189 0.539675
vt 0.226247 0.540141
vt 0.217935 0.544126
vt 0.226780 0.544773
vt 0.232936 0.540148
vt 0.234092 0.544979
vt 0.237743 0.540256
vt 0.239420 0.544790
vt 0.298685 0.283079
vt 0.298089 0.277991
vt 0.302008 0.276667
vt 0.301797 0.281134
vt 0.293604 0.283460
vt 0.293209 0.277830
vt 0.287953 0.283723
vt 0.287859 0.278211
vt 0.282358 0.284214
vt 0.288424 0.292148
vt 0.281872 0.292948
vt 0.277497 0.293621
vt 0.282702 0.306104
vt 0.277656 0.306471
vt 0.273377 0.306407
vt 0.273443 0.293803
vt 0.269501 0.306220
vt 0.269522 0.293828
vt 0.264848 0.306135
vt 0.265108 0.293345
vt 0.259088 0.305980
vt 0.259288 0.292632
vt 0.251609 0.305669
vt 0.250762 0.291742
vt 0.243975 0.305293
vt 0.242721 0.291166
vt 0.244965 0.319213
vt 0.251645 0.318839
vt 0.251639 0.326338
vt 0.259010 0.318909
vt 0.258942 0.326460
vt 0.259653 0.331365
vt 0.264787 0.318868
vt 0.269619 0.318844
vt 0.273848 0.318841
vt 0.278129 0.318874
vt 0.278986 0.325584
vt 0.279385 0.329168
vt 0.278803 0.332838
vt 0.275919 0.331557
vt 0.276064 0.337359
vt 0.273154 0.333812
vt 0.267458 0.336312
vt 0.294704 0.291636
vt 0.299713 0.291060
vt 0.236821 0.531975
vt 0.241382 0.532395
vt 0.241778 0.539973
vt 0.240234 0.485794
vt 0.295133 0.258804
vt 0.210144 0.576418
vt 0.301031 0.335374
vt 0.234659 0.570286
vt 0.219665 0.579554
vn -0.3229 0.8361 -0.4435
vn -0.3399 0.9385 -0.0611
vn 0.0612 0.9774 -0.2022
vn 0.4196 0.6901 -0.5897
vn -0.3663 0.7313 0.5753
vn 0.3618 0.7988 0.4806
vn 0.9235 0.3061 0.2312
vn 0.6688 0.4129 0.6182
vn 0.5626 -0.3830 0.7327
vn 0.8009 -0.5504 0.2357
vn 0.3360 -0.8899 0.3085
vn 0.1639 -0.4747 0.8648
vn 0.1141 0.4839 0.8677
vn 0.4576 0.7771 0.4322
vn 0.8956 0.4289 0.1183
vn 0.9701 0.1670 0.1763
vn 0.7130 0.2322 0.6616
vn 0.7619 0.5493 0.3432
vn 0.9865 -0.0024 0.1635
vn 0.8118 0.0011 0.5839
vn 0.3670 0.0095 0.9302
vn 0.2398 0.1802 0.9540
vn 0.2624 0.6095 0.7481
vn 0.1104 0.4744 0.8734
vn -0.0243 -0.9996 0.0123
vn 0.0005 -0.9135 0.4069
vn -0.2136 -0.8570 0.4690
vn -0.2608 -0.9557 0.1366
vn 0.0234 -0.4476 0.8939
vn -0.4012 -0.4533 0.7960
vn -0.7186 -0.5669 0.4028
vn 0.7608 -0.5899 -0.2707
vn 0.7364 -0.4471 -0.5078
vn 0.6870 0.2451 -0.6841
vn 0.9703 0.1073 -0.2168
vn 0.0386 -0.1990 -0.9792
vn 0.0548 0.3750 -0.9254
vn 0.2569 -0.1988 -0.9458
vn 0.0566 0.3937 -0.9175
vn 0.5134 0.4467 -0.7327
vn 0.8977 0.3642 -0.2481
vn 0.8505 -0.4529 0.2673
vn 0.6831 -0.5793 0.4447
vn 0.5289 -0.3090 0.7904
vn 0.8883 -0.2222 0.4019
vn 0.4255 -0.7288 0.5365
vn 0.2106 -0.6079 0.7656
vn 0.8682 -0.0197 0.4957
vn 0.4771 -0.0114 0.8788
vn 0.1125 -0.0123 0.9936
vn 0.1299 -0.2368 0.9628
vn 0.0932 -0.5011 0.8603
vn -0.9481 0.3100 -0.0703
vn -0.7982 0.4160 -0.4357
vn -0.8071 0.2103 -0.5517
vn -0.9893 -0.0357 -0.1417
vn -0.3359 0.4540 -0.8253
vn -0.3113 0.3636 -0.8780
vn 0.5475 0.8362 0.0330
vn 0.7897 0.6134 0.0091
vn 0.3910 0.7754 0.4959
vn 0.4450 0.8742 0.1945
vn 0.2795 0.8759 0.3933
vn 0.1111 0.8485 0.5174
vn -0.1918 0.8629 0.4675
vn -0.3567 0.6448 0.6760
vn 0.4960 0.6474 -0.5787
vn 0.7913 0.6045 -0.0919
vn -0.4165 0.4442 -0.7932
vn 0.0435 0.3351 -0.9412
vn -0.8877 0.4488 -0.1023
vn -0.8842 0.2717 0.3800
vn -0.9078 0.3508 -0.2297
vn -0.8814 0.3590 0.3070
vn -0.1704 0.4274 -0.8879
vn 0.0491 0.7755 0.6294
vn -0.0354 0.7707 0.6362
vn -0.2954 0.7722 0.5625
vn -0.4743 0.8269 0.3020
vn 0.7541 0.6078 -0.2487
vn 0.5663 0.4698 -0.6772
vn 0.4048 0.7741 -0.4867
vn 0.5145 0.8266 -0.2282
vn 0.1375 0.5617 -0.8158
vn 0.1355 0.8122 -0.5674
vn 0.2888 0.8864 -0.3617
vn -0.0226 0.6429 0.7656
vn -0.3397 0.6653 0.6648
vn -0.6078 0.7266 0.3204
vn 0.5137 0.8437 -0.1560
vn -0.0408 0.8259 -0.5624
vn 0.0516 0.8509 -0.5228
vn -0.5644 0.8149 0.1320
vn -0.5685 0.8215 -0.0440
vn -0.2723 0.8829 -0.3825
vn -0.4520 0.7544 -0.4760
vn -0.7220 0.1839 -0.6670
vn -0.7728 0.5076 -0.3809
vn -0.0288 0.8261 -0.5628
vn -0.0777 0.8318 -0.5496
vn -0.2153 0.8395 -0.4989
vn -0.4425 0.8727 -0.2063
vn -0.5439 0.8391 -0.0001
vn -0.0395 0.6083 -0.7927
vn -0.2308 0.4916 -0.8397
vn -0.4388 0.7477 -0.4983
vn -0.0173 -0.0641 -0.9978
vn -0.2673 -0.1407 -0.9533
vn -0.7517 0.1517 -0.6418
vn -0.2618 -0.5727 -0.7768
vn -0.6825 -0.5066 -0.5268
vn -0.9032 -0.3997 -0.1566
vn -0.9174 0.3471 -0.1948
vn -0.5688 0.8076 -0.1557
vn -0.9214 0.3849 0.0541
vn -0.6345 0.7726 0.0226
vn -0.9121 0.3751 0.1657
vn -0.6479 0.7535 0.1120
vn -0.5386 0.8370 0.0969
vn -0.8472 0.3257 0.4198
vn -0.9385 -0.3011 0.1688
vn -0.8519 -0.3294 0.4072
vn -0.4867 -0.4510 0.7481
vn -0.5093 0.1549 0.8465
vn -0.0371 -0.5334 0.8451
vn -0.0532 0.0171 0.9984
vn 0.0708 -0.5638 0.8229
vn 0.0723 0.0471 0.9963
vn 0.0461 0.6900 0.7224
vn 0.0205 0.1099 0.9937
vn 0.0542 0.7435 0.6665
vn 0.1531 0.8041 0.5745
vn 0.1162 0.8447 0.5224
vn 0.3138 0.8496 0.4239
vn 0.4774 0.8360 0.2706
vn 0.6751 0.7309 0.1000
vn 0.5524 0.8252 0.1181
vn 0.5844 0.7949 0.1630
vn 0.4174 0.8810 0.2225
vn 0.9395 0.2981 0.1689
vn 0.9170 0.3187 0.2400
vn 0.3801 0.7827 0.4928
vn 0.7942 0.4317 0.4277
vn 0.9180 -0.3606 0.1651
vn 0.9491 0.2916 0.1192
vn 0.8512 -0.4642 0.2450
vn 0.7652 -0.5542 0.3276
vn 0.6099 -0.3956 0.6867
vn 0.1757 -0.6275 0.7585
vn 0.0627 -0.5882 0.8063
vn 0.0658 0.2260 0.9719
vn 0.2863 0.3477 0.8928
vn 0.9481 -0.3153 0.0403
vn 0.9609 0.2747 0.0357
vn 0.7081 0.7057 0.0266
vn 0.5741 0.8185 0.0226
vn 0.9809 0.1876 -0.0518
vn 0.7194 0.6929 -0.0479
vn 0.5616 0.8252 -0.0603
vn 0.9599 0.0394 -0.2776
vn 0.9366 -0.3450 -0.0619
vn 0.8879 -0.3967 -0.2328
vn 0.5930 -0.4998 -0.6313
vn 0.6529 -0.1397 -0.7444
vn 0.1118 -0.5497 -0.8279
vn 0.1617 -0.1054 -0.9812
vn -0.0380 -0.5527 -0.8325
vn -0.0432 0.0262 -0.9987
vn -0.0325 0.6797 -0.7328
vn -0.0311 0.8163 -0.5768
vn -0.0480 0.1168 -0.9920
vn -0.0335 0.7189 -0.6943
vn -0.0386 0.1093 -0.9933
vn -0.0327 0.7064 -0.7070
vn -0.0381 -0.5262 -0.8495
vn -0.0365 -0.5085 -0.8603
vn -0.0572 -0.5381 -0.8409
vn -0.0384 -0.4736 -0.8799
vn -0.0911 -0.4859 -0.8693
vn -0.3115 -0.5321 -0.7873
vn -0.0933 -0.1989 -0.9756
vn -0.4343 -0.1994 -0.8784
vn -0.8478 -0.1985 -0.4918
vn -0.6652 -0.5586 -0.4955
vn -0.9668 -0.2185 -0.1326
vn -0.8394 -0.5251 -0.1405
vn -0.9673 -0.2512 0.0344
vn -0.8612 -0.5067 0.0400
vn -0.9441 -0.3256 0.0525
vn -0.8461 -0.5125 0.1468
vn -0.9487 -0.2732 0.1591
vn -0.8763 -0.2856 0.3879
vn -0.7691 -0.5330 0.3527
vn -0.5462 -0.2936 0.7845
vn -0.4288 -0.5552 0.7127
vn -0.0731 -0.2450 0.9668
vn -0.0268 -0.4893 0.8717
vn -0.6301 -0.0302 0.7759
vn -0.1416 -0.0304 0.9895
vn -0.7059 0.0074 0.7082
vn -0.2279 0.0040 0.9737
vn 0.0631 0.0081 0.9980
vn -0.2918 0.2096 0.9332
vn 0.0405 0.1594 0.9864
vn 0.0390 0.4262 0.9038
vn -0.3181 0.4492 0.8349
vn 0.0257 0.1607 0.9867
vn -0.3952 0.1536 0.9056
vn -0.7560 0.2084 0.6205
vn -0.7590 0.4032 0.5112
vn -0.8507 0.0958 0.5169
vn -0.9091 0.3396 0.2411
vn -0.9688 0.0300 0.2462
vn -0.6944 -0.6927 0.1947
vn -0.1883 -0.9803 0.0601
vn -0.9937 0.0013 0.1119
vn -0.6683 -0.7392 0.0835
vn -0.1621 -0.9865 0.0246
vn -0.0144 -0.9999 0.0057
vn -0.0093 -1.0000 0.0032
vn -0.6445 -0.7641 -0.0270
vn -0.1515 -0.9883 -0.0198
vn -0.0093 -0.9999 -0.0135
vn 0.0026 -1.0000 -0.0011
vn 0.0051 -0.9999 -0.0147
vn -0.1442 -0.9786 -0.1467
vn -0.0234 -0.9915 -0.1282
vn 0.0045 -0.9915 -0.1300
vn 0.0248 -0.9993 -0.0262
vn 0.0546 -0.9836 -0.1719
vn -0.0417 -0.8611 -0.5068
vn -0.0106 -0.8502 -0.5263
vn 0.0617 -0.8305 -0.5536
vn 0.2659 -0.9333 -0.2415
vn 0.3149 -0.7301 -0.6065
vn -0.0335 -0.2480 -0.9682
vn -0.0388 -0.2762 -0.9603
vn -0.0291 0.3338 -0.9422
vn -0.0387 0.3342 -0.9417
vn -0.0314 0.3920 -0.9194
vn -0.0416 0.3901 -0.9198
vn -0.0301 0.1590 -0.9868
vn -0.0417 0.1609 -0.9861
vn 0.0287 0.1530 -0.9878
vn -0.0384 0.0050 -0.9993
vn -0.0111 0.0012 -0.9999
vn 0.3711 -0.0007 -0.9286
vn 0.4818 0.1639 -0.8608
vn 0.8836 0.0041 -0.4683
vn 0.9160 0.1542 -0.3703
vn 0.9942 0.0051 -0.1070
vn 0.9852 0.1445 -0.0925
vn 0.9477 0.3064 -0.0888
vn 0.9891 0.1459 -0.0180
vn 0.9387 0.3433 -0.0330
vn 0.9973 0.0486 -0.0552
vn 0.9919 0.0338 -0.1228
vn 0.7477 -0.6638 -0.0179
vn 0.7595 -0.6369 -0.1327
vn 0.2472 -0.9688 0.0164
vn 0.2432 -0.9675 -0.0696
vn 0.0324 -0.9995 0.0064
vn 0.2903 -0.9548 0.0637
vn 0.0562 -0.9983 0.0169
vn 0.0036 -1.0000 0.0027
vn 0.0593 -0.9982 -0.0023
vn 0.0071 -1.0000 0.0009
vn 0.0449 -0.9382 0.3431
vn 0.0274 -0.9325 0.3602
vn 0.0140 -0.4889 0.8722
vn 0.0462 -0.4910 0.8700
vn 0.0371 0.3230 0.9457
vn 0.0559 0.2187 0.9742
vn 0.3620 -0.9311 0.0445
vn 0.7820 -0.6075 0.1393
vn 0.7443 -0.6595 0.1051
vn 0.9617 0.1645 0.2192
vn 0.9926 0.0824 0.0890
vn 0.9995 0.0008 -0.0327
vn 0.9898 -0.0106 -0.1419
vn 0.9984 -0.0207 -0.0523
vn 0.9916 -0.0211 0.1276
vn 0.9807 -0.1687 0.0983
vn 0.9848 -0.1599 -0.0673
vn 0.9245 -0.3762 0.0616
vn 0.9308 -0.3583 -0.0725
vn 0.9704 -0.1443 -0.1935
vn 0.9062 -0.3605 -0.2210
vn 0.7423 -0.1731 -0.6473
vn 0.6222 -0.4293 -0.6547
vn 0.1852 -0.1893 -0.9643
vn 0.1219 -0.4502 -0.8846
vn -0.0313 -0.1894 -0.9814
vn -0.0336 -0.4729 -0.8805
vn -0.0329 -0.2041 -0.9784
vn -0.0304 -0.4814 -0.8759
vn -0.0384 -0.2121 -0.9765
vn -0.0353 -0.0190 -0.9992
vn -0.0338 -0.0199 -0.9992
vn -0.0739 -0.0162 -0.9971
vn -0.0309 0.0059 -0.9995
vn -0.0773 0.0035 -0.9970
vn -0.4697 -0.0034 -0.8828
vn -0.4720 -0.0007 -0.8816
vn -0.9171 -0.0009 -0.3987
vn -0.9129 0.0104 -0.4080
vn -0.9993 0.0062 -0.0372
vn -0.9974 -0.0038 -0.0715
vn -0.9994 0.0085 0.0340
vn -0.9994 -0.0167 0.0294
vn -0.9917 0.0102 0.1284
vn -0.9891 -0.0164 0.1465
vn -0.9392 0.0101 0.3432
vn -0.9259 -0.0177 0.3773
vn -0.9416 0.1520 0.3006
vn -0.9856 0.1220 0.1173
vn -0.9432 0.3150 0.1056
vn -0.9925 0.1166 0.0372
vn -0.9520 0.3049 0.0283
vn -0.9990 -0.0445 -0.0039
vn -0.9919 0.1117 -0.0609
vn -0.8900 0.1255 -0.4384
vn -0.4393 0.1501 -0.8857
vn -0.0836 0.1536 -0.9846
vn -0.0703 0.3986 -0.9144
vn -0.0485 0.3614 -0.9311
vn -0.0729 -0.2522 -0.9649
vn -0.2700 -0.1723 -0.9473
vn -0.1220 -0.8521 -0.5090
vn -0.5480 -0.5900 -0.5930
vn -0.6286 -0.7542 -0.1899
vn -0.0280 -0.0177 -0.9995
vn 0.2689 -0.0172 -0.9630
vn 0.8256 -0.0093 -0.5642
f 1/1/1 2/2/2 3/3/3 4/4/4
f 5/5/5 6/6/6 3/3/3 2/2/2
f 7/7/7 8/8/8 9/9/9 10/10/10
f 11/11/11 10/10/10 9/9/9 12/12/12
f 13/13/13 12/12/12 9/9/9 8/8/8
f 14/14/14 13/13/13 8/8/8 7/7/7
f 15/15/15 16/16/16 17/17/17 18/18/18
f 19/19/19 20/20/20 17/17/17 16/16/16
f 21/21/21 22/22/22 17/17/17 20/20/20
f 14/14/14 18/18/18 17/17/17 23/23/23
f 24/24/24 23/23/23 17/17/17 22/22/22
f 25/25/25 26/26/26 27/27/27 28/28/28
f 29/29/29 30/30/30 27/31/27 26/32/26
f 31/33/31 28/28/28 27/27/27 30/34/30
f 32/35/32 33/36/33 34/37/34 35/38/35
f 36/39/36 37/40/37 34/41/34 38/42/38
f 39/43/39 40/44/40 34/41/34 37/40/37
f 41/45/41 35/38/35 34/37/34 40/46/40
f 42/47/42 43/48/43 44/49/44 45/50/45
f 46/51/46 47/52/47 44/49/44 43/48/43
f 48/53/48 45/50/45 44/49/44 49/54/49
f 50/55/50 49/54/49 44/49/44 51/56/51
f 52/57/52 51/56/51 44/49/44 47/52/47
f 53/58/53 54/59/54 55/60/55 56/61/56
f 57/62/57 58/63/58 55/60/55 54/59/54
f 59/64/59 60/65/60 61/66/61 62/67/62
f 63/68/63 62/67/62 61/66/61 64/69/64
f 65/70/65 64/69/64 61/66/61 66/71/66
f 60/65/60 67/72/67 4/73/4 68/74/68
f 69/75/69 1/1/1 4/4/4 70/76/70
f 2/2/2 71/77/71 72/78/72 5/5/5
f 73/79/73 74/80/74 72/78/72 71/77/71
f 66/81/66 5/5/5 72/78/72 74/80/74
f 75/82/75 70/76/70 4/4/4 67/83/67
f 76/84/76 64/69/64 65/70/65 77/85/77
f 78/86/78 77/85/77 65/70/65 79/87/79
f 6/6/6 5/5/5 66/81/66 61/88/61
f 80/89/80 81/90/81 82/91/82 83/92/83
f 84/93/84 85/94/85 82/95/82 81/96/81
f 86/97/86 83/92/83 82/91/82 85/98/85
f 87/99/87 77/85/77 78/86/78 88/100/88
f 89/101/89 88/102/88 78/103/78 79/104/79
f 59/64/59 90/105/90 67/72/67 60/65/60
f 91/106/91 75/82/75 67/83/67 92/107/92
f 93/108/93 65/109/65 66/81/66 74/80/74
f 93/108/93 74/80/74 73/79/73 94/110/94
f 95/111/95 94/110/94 73/79/73 96/112/96
f 75/82/75 96/112/96 73/79/73 97/113/97
f 98/114/98 97/113/97 73/79/73 71/77/71
f 69/75/69 70/76/70 75/82/75 97/113/97
f 95/111/95 96/112/96 75/82/75 91/106/91
f 99/115/99 100/116/100 95/111/95 91/106/91
f 101/117/101 102/118/102 95/111/95 100/116/100
f 103/119/103 94/110/94 95/111/95 102/118/102
f 101/117/101 104/120/104 105/121/105 106/122/106
f 107/123/107 108/124/108 105/121/105 104/120/104
f 109/125/109 106/122/106 105/121/105 108/124/108
f 110/126/110 111/127/111 109/125/109 108/124/108
f 112/128/112 113/129/113 109/125/109 111/127/111
f 114/130/114 106/122/106 109/125/109 113/129/113
f 101/117/101 106/122/106 114/130/114 102/118/102
f 115/131/115 116/132/116 114/130/114 113/129/113
f 103/119/103 102/118/102 114/130/114 116/132/116
f 117/133/117 118/134/118 116/132/116 115/131/115
f 119/135/119 103/119/103 116/132/116 118/134/118
f 94/110/94 103/119/103 119/135/119 93/108/93
f 89/101/89 79/104/79 119/135/119 118/134/118
f 65/109/65 93/108/93 119/135/119 79/104/79
f 120/136/120 89/101/89 118/134/118 117/133/117
f 121/137/121 122/138/122 120/136/120 117/133/117
f 123/139/123 124/140/124 120/136/120 122/138/122
f 88/102/88 89/101/89 120/136/120 124/140/124
f 125/141/125 126/142/126 124/143/124 123/144/123
f 87/99/87 88/100/88 124/143/124 126/142/126
f 127/145/127 128/146/128 126/142/126 125/141/125
f 129/147/129 87/99/87 126/142/126 128/146/128
f 77/85/77 87/99/87 129/147/129 76/84/76
f 130/148/130 131/149/131 129/147/129 128/146/128
f 132/150/132 76/84/76 129/147/129 131/149/131
f 64/69/64 76/84/76 132/150/132 63/68/63
f 133/151/133 134/152/134 132/150/132 131/149/131
f 135/153/135 63/68/63 132/150/132 134/152/134
f 136/154/136 137/155/137 135/153/135 138/156/138
f 62/67/62 63/68/63 135/153/135 137/155/137
f 139/157/139 138/156/138 135/153/135 134/152/134
f 140/158/140 138/156/138 139/157/139 141/159/141
f 133/151/133 142/160/142 139/157/139 134/152/134
f 143/161/143 141/159/141 139/157/139 142/160/142
f 144/162/144 145/163/145 140/158/140 146/164/146
f 136/154/136 138/156/138 140/158/140 145/163/145
f 147/165/147 146/164/146 140/158/140 141/159/141
f 43/48/43 146/164/146 147/165/147 46/51/46
f 143/161/143 148/166/148 147/165/147 141/159/141
f 149/167/149 46/51/46 147/165/147 148/166/148
f 130/148/130 150/168/150 149/167/149 151/169/151
f 47/52/47 46/51/46 149/167/149 150/168/150
f 152/170/152 151/169/151 149/167/149 148/166/148
f 128/146/128 127/145/127 150/168/150 130/148/130
f 52/57/52 47/52/47 150/168/150 127/145/127
f 131/149/131 130/148/130 151/169/151 133/151/133
f 142/160/142 133/151/133 151/169/151 152/170/152
f 153/171/153 154/172/154 145/163/145 144/162/144
f 155/173/155 136/154/136 145/163/145 154/172/154
f 137/155/137 136/154/136 155/173/155 156/174/156
f 157/175/157 158/176/158 155/173/155 154/172/154
f 159/177/159 156/174/156 155/173/155 158/176/158
f 59/64/59 156/174/156 159/177/159 90/105/90
f 80/89/80 83/92/83 159/177/159 158/176/158
f 86/97/86 90/105/90 159/177/159 83/92/83
f 160/178/160 80/89/80 158/176/158 157/175/157
f 161/179/161 162/180/162 160/178/160 157/175/157
f 163/181/163 164/182/164 160/178/160 162/180/162
f 81/90/81 80/89/80 160/178/160 164/182/164
f 165/183/165 166/184/166 164/185/164 163/186/163
f 84/93/84 81/96/81 164/185/164 166/184/166
f 167/187/167 168/188/168 166/184/166 165/183/165
f 169/189/169 84/93/84 166/184/166 168/188/168
f 85/94/85 84/93/84 169/189/169 170/190/170
f 171/191/171 172/192/172 169/189/169 168/188/168
f 99/115/99 170/190/170 169/189/169 172/192/172
f 173/193/173 174/194/174 172/192/172 171/191/171
f 100/116/100 99/115/99 172/192/172 174/194/174
f 107/123/107 104/120/104 174/194/174 173/193/173
f 101/117/101 100/116/100 174/194/174 104/120/104
f 175/195/175 176/196/176 173/193/173 171/191/171
f 177/197/177 107/123/107 173/193/173 176/196/176
f 178/198/178 179/199/179 177/197/177 176/196/176
f 180/200/180 110/126/110 177/197/177 179/199/179
f 108/124/108 107/123/107 177/197/177 110/126/110
f 181/201/181 182/202/182 180/200/180 179/199/179
f 183/203/183 184/204/184 180/200/180 182/202/182
f 111/127/111 110/126/110 180/200/180 184/204/184
f 185/205/185 186/206/186 184/204/184 183/203/183
f 112/128/112 111/127/111 184/204/184 186/206/186
f 187/207/187 188/208/188 186/206/186 185/205/185
f 189/209/189 112/128/112 186/206/186 188/208/188
f 113/129/113 112/128/112 189/209/189 115/131/115
f 190/210/190 121/137/121 189/209/189 188/208/188
f 117/133/117 115/131/115 189/209/189 121/137/121
f 187/207/187 191/211/191 190/210/190 188/208/188
f 192/212/192 193/213/193 190/210/190 191/211/191
f 122/138/122 121/137/121 190/210/190 193/213/193
f 194/214/194 195/215/195 193/213/193 192/212/192
f 123/139/123 122/138/122 193/213/193 195/215/195
f 196/216/196 197/217/197 195/218/195 194/219/194
f 125/141/125 123/144/123 195/218/195 197/217/197
f 51/56/51 52/57/52 197/217/197 196/216/196
f 127/145/127 125/141/125 197/217/197 52/57/52
f 198/220/198 199/221/199 196/222/196 194/214/194
f 50/55/50 51/56/51 196/216/196 199/223/199
f 200/224/200 201/225/201 199/221/199 198/220/198
f 202/226/202 50/55/50 199/223/199 201/227/201
f 203/228/203 204/229/204 202/226/202 201/227/201
f 22/22/22 21/21/21 202/226/202 204/229/204
f 49/54/49 50/55/50 202/226/202 21/21/21
f 24/24/24 22/22/22 204/229/204 205/230/205
f 206/231/206 205/230/205 204/229/204 203/228/203
f 207/232/207 205/230/205 206/231/206 208/233/208
f 209/234/209 210/235/210 206/236/206 203/237/203
f 211/238/211 208/239/208 206/236/206 210/235/210
f 30/34/30 208/239/208 211/238/211 31/33/31
f 212/240/212 213/241/213 211/238/211 210/235/210
f 214/242/214 31/33/31 211/238/211 213/241/213
f 28/28/28 31/33/31 214/242/214 215/243/215
f 216/244/216 217/245/217 214/242/214 213/241/213
f 218/246/218 215/243/215 214/242/214 217/245/217
f 219/247/219 215/243/215 218/246/218 220/248/220
f 221/249/221 222/250/222 218/246/218 217/245/217
f 223/251/223 220/248/220 218/246/218 222/250/222
f 224/252/224 220/248/220 223/251/223 225/253/225
f 226/254/226 227/255/227 223/251/223 222/250/222
f 228/256/228 225/253/225 223/251/223 227/255/227
f 229/257/229 225/253/225 228/256/228 230/258/230
f 231/259/231 232/260/232 228/256/228 227/255/227
f 233/261/233 230/258/230 228/256/228 232/260/232
f 234/262/234 230/258/230 233/261/233 235/263/235
f 236/264/236 36/39/36 233/261/233 232/260/232
f 38/42/38 235/263/235 233/261/233 36/39/36
f 231/259/231 237/265/237 236/264/236 232/260/232
f 238/266/238 239/267/239 236/264/236 237/265/237
f 37/40/37 36/39/36 236/264/236 239/267/239
f 240/268/240 241/269/241 239/267/239 238/266/238
f 39/43/39 37/40/37 239/267/239 241/269/241
f 242/270/242 243/271/243 241/269/241 240/268/240
f 244/272/244 39/43/39 241/269/241 243/271/243
f 245/273/245 246/274/246 244/272/244 243/271/243
f 247/275/247 248/276/248 244/272/244 246/274/246
f 40/44/40 39/43/39 244/272/244 248/276/248
f 249/277/249 250/278/250 248/279/248 247/280/247
f 41/45/41 40/46/40 248/279/248 250/278/250
f 251/281/251 252/282/252 250/278/250 249/277/249
f 253/283/253 41/45/41 250/278/250 252/282/252
f 254/284/254 255/285/255 253/283/253 252/282/252
f 256/286/256 257/287/257 253/283/253 255/285/255
f 35/38/35 41/45/41 253/283/253 257/287/257
f 258/288/258 259/289/259 257/287/257 256/286/256
f 32/35/32 35/38/35 257/287/257 259/289/259
f 260/290/260 261/291/261 259/289/259 258/288/258
f 234/292/234 32/35/32 259/289/259 261/291/261
f 262/293/262 229/294/229 261/291/261 260/290/260
f 230/258/230 234/262/234 261/295/261 229/257/229
f 263/296/263 264/297/264 262/293/262 260/290/260
f 265/298/265 224/299/224 262/293/262 264/297/264
f 225/253/225 229/257/229 262/300/262 224/252/224
f 266/301/266 267/302/267 265/298/265 264/297/264
f 25/25/25 219/247/219 265/303/265 267/304/267
f 220/248/220 224/252/224 265/303/265 219/247/219
f 268/305/268 269/306/269 267/302/267 266/301/266
f 26/32/26 25/307/25 267/302/267 269/306/269
f 270/308/270 271/309/271 269/306/269 268/305/268
f 29/29/29 26/32/26 269/306/269 271/309/271
f 272/310/272 273/311/273 271/309/271 270/308/270
f 207/232/207 29/29/29 271/309/271 273/311/273
f 23/23/23 24/24/24 273/311/273 272/310/272
f 205/230/205 207/232/207 273/311/273 24/24/24
f 14/14/14 23/23/23 272/310/272 13/13/13
f 12/12/12 13/13/13 272/310/272 270/308/270
f 11/11/11 12/12/12 270/308/270 268/305/268
f 274/312/274 11/11/11 268/305/268 266/301/266
f 10/10/10 11/11/11 274/312/274 275/313/275
f 264/297/264 263/296/263 274/312/274 266/301/266
f 276/314/276 275/313/275 274/312/274 263/296/263
f 277/315/277 275/313/275 276/314/276 278/316/278
f 260/290/260 258/288/258 276/314/276 263/296/263
f 256/286/256 278/316/278 276/314/276 258/288/258
f 14/14/14 7/7/7 277/315/277 18/18/18
f 10/10/10 275/313/275 277/315/277 7/7/7
f 15/15/15 18/18/18 277/315/277 278/316/278
f 255/285/255 15/15/15 278/316/278 256/286/256
f 16/16/16 15/15/15 255/285/255 254/284/254
f 251/281/251 279/317/279 254/284/254 252/282/252
f 19/19/19 16/16/16 254/284/254 279/317/279
f 280/318/280 281/319/281 279/317/279 251/281/251
f 282/320/282 19/19/19 279/317/279 281/319/281
f 45/50/45 48/53/48 282/320/282 283/321/283
f 20/20/20 19/19/19 282/320/282 48/53/48
f 284/322/284 283/321/283 282/320/282 281/319/281
f 285/323/285 283/321/283 284/322/284 286/324/286
f 280/318/280 287/325/287 284/322/284 281/319/281
f 288/326/288 286/324/286 284/322/284 287/325/287
f 161/179/161 286/324/286 288/326/288 162/180/162
f 289/327/289 290/328/290 288/326/288 287/325/287
f 163/181/163 162/180/162 288/326/288 290/328/290
f 291/329/291 292/330/292 290/331/290 289/332/289
f 165/183/165 163/186/163 290/331/290 292/330/292
f 293/333/293 294/334/294 292/330/292 291/329/291
f 167/187/167 165/183/165 292/330/292 294/334/294
f 295/335/295 296/336/296 294/334/294 293/333/293
f 175/195/175 167/187/167 294/334/294 296/336/296
f 297/337/297 178/198/178 296/336/296 295/335/295
f 176/196/176 175/195/175 296/336/296 178/198/178
f 298/338/298 299/339/299 297/337/297 295/335/295
f 300/340/300 181/201/181 297/337/297 299/339/299
f 179/199/179 178/198/178 297/337/297 181/201/181
f 301/341/301 302/342/302 300/340/300 299/339/299
f 303/343/303 304/344/304 300/340/300 302/342/302
f 182/202/182 181/201/181 300/340/300 304/344/304
f 305/345/305 306/346/306 304/344/304 303/343/303
f 183/203/183 182/202/182 304/344/304 306/346/306
f 307/347/307 308/348/308 306/346/306 305/345/305
f 185/205/185 183/203/183 306/346/306 308/348/308
f 309/349/309 310/350/310 308/348/308 307/347/307
f 187/207/187 185/205/185 308/348/308 310/350/310
f 311/351/311 312/352/312 310/350/310 309/349/309
f 191/211/191 187/207/187 310/350/310 312/352/312
f 313/353/313 314/354/314 312/352/312 311/351/311
f 192/212/192 191/211/191 312/352/312 314/354/314
f 200/224/200 198/220/198 314/354/314 313/353/313
f 194/214/194 192/212/192 314/354/314 198/220/198
f 209/234/209 200/224/200 313/353/313 315/355/315
f 316/356/316 315/355/315 313/353/313 311/351/311
f 212/240/212 315/355/315 316/356/316 317/357/317
f 309/349/309 318/358/318 316/356/316 311/351/311
f 319/359/319 317/357/317 316/356/316 318/358/318
f 216/244/216 317/357/317 319/359/319 320/360/320
f 321/361/321 53/58/53 319/359/319 318/358/318
f 56/61/56 320/360/320 319/359/319 53/58/53
f 309/349/309 307/347/307 321/361/321 318/358/318
f 305/345/305 322/362/322 321/361/321 307/347/307
f 54/59/54 53/58/53 321/361/321 322/362/322
f 303/343/303 323/363/323 322/362/322 305/345/305
f 57/62/57 54/59/54 322/362/322 323/363/323
f 302/342/302 324/364/324 323/363/323 303/343/303
f 325/365/325 57/62/57 323/363/323 324/364/324
f 58/63/58 57/62/57 325/365/325 326/366/326
f 242/270/242 240/268/240 325/365/325 324/364/324
f 238/266/238 326/366/326 325/365/325 240/268/240
f 237/265/237 327/367/327 326/366/326 238/266/238
f 328/368/328 58/63/58 326/366/326 327/367/327
f 231/259/231 329/369/329 327/367/327 237/265/237
f 330/370/330 328/368/328 327/367/327 329/369/329
f 227/255/227 226/254/226 329/369/329 231/259/231
f 331/371/331 330/370/330 329/369/329 226/254/226
f 222/250/222 221/249/221 331/371/331 226/254/226
f 320/360/320 56/61/56 331/371/331 221/249/221
f 55/60/55 330/370/330 331/371/331 56/61/56
f 301/341/301 242/270/242 324/364/324 302/342/302
f 217/245/217 216/244/216 320/360/320 221/249/221
f 213/241/213 212/240/212 317/357/317 216/244/216
f 210/235/210 209/234/209 315/355/315 212/240/212
f 298/338/298 245/273/245 301/341/301 299/339/299
f 243/271/243 242/270/242 301/341/301 245/273/245
f 293/333/293 332/372/332 298/338/298 295/335/295
f 246/274/246 245/273/245 298/338/298 332/372/332
f 291/329/291 333/373/333 332/372/332 293/333/293
f 247/275/247 246/274/246 332/372/332 333/373/333
f 289/327/289 334/374/334 333/375/333 291/376/291
f 249/277/249 247/280/247 333/375/333 334/374/334
f 287/325/287 280/318/280 334/374/334 289/327/289
f 251/281/251 249/277/249 334/374/334 280/318/280
f 161/179/161 153/171/153 285/323/285 286/324/286
f 144/162/144 42/47/42 285/323/285 153/171/153
f 45/50/45 283/321/283 285/323/285 42/47/42
f 33/36/33 32/35/32 234/292/234 235/377/235
f 28/28/28 215/243/215 219/247/219 25/25/25
f 201/225/201 200/224/200 209/234/209 203/237/203
f 30/30/30 29/29/29 207/232/207 208/233/208
f 168/188/168 167/187/167 175/195/175 171/191/171
f 86/378/86 85/94/85 170/190/170 92/107/92
f 91/106/91 92/107/92 170/190/170 99/115/99
f 154/172/154 153/171/153 161/179/161 157/175/157
f 62/67/62 137/155/137 156/174/156 59/64/59
f 43/48/43 42/47/42 144/162/144 146/164/146
f 2/2/2 1/1/1 98/114/98 71/77/71
f 68/74/68 6/379/6 61/66/61 60/65/60
f 21/21/21 20/20/20 48/53/48 49/54/49
f 152/170/152 148/166/148 143/161/143 142/160/142
f 235/263/235 38/42/38 34/41/34 33/380/33
f 328/368/328 330/370/330 55/60/55 58/63/58
f 97/113/97 98/114/98 1/1/1 69/75/69
f 67/72/67 90/105/90 86/97/86 92/381/92
f 68/74/68 4/73/4 3/382/3 6/379/6
