# split from a merged terrain OBJ by scripts/split-terrain-obj-parts.py
o part-030
v -0.182914 0.937031 0.062179
v -0.188725 0.936397 0.059584
v -0.189293 0.931128 0.062873
v -0.182136 0.930168 0.061792
v -0.178514 0.929556 0.058631
v -0.187332 0.928762 0.056370
v -0.192878 0.933122 0.054978
v -0.184187 0.939495 0.055660
v -0.177327 0.937807 0.060497
v -0.183996 0.930391 0.049887
v -0.189296 0.936976 0.049573
v -0.171213 0.935108 0.054569
v -0.178096 0.941370 0.051910
v -0.175626 0.930493 0.052777
v -0.172536 0.931360 0.048599
v -0.166465 0.930687 0.051884
v -0.170813 0.940804 0.049685
v -0.162789 0.936482 0.055674
v -0.160724 0.929395 0.057810
v -0.163341 0.942980 0.047829
v -0.157263 0.942756 0.056251
v -0.151313 0.941999 0.065082
v -0.155397 0.936151 0.065755
v -0.154531 0.929003 0.065706
v -0.089633 0.968340 -0.004761
v -0.095208 0.972991 0.002085
v -0.092249 0.972872 0.007478
v -0.088952 0.968222 0.006879
v -0.090197 0.961388 0.007776
v -0.096611 0.960907 0.020196
v -0.097725 0.951271 0.018435
v -0.091804 0.953319 0.006669
v -0.106204 0.960855 0.035176
v -0.107052 0.953092 0.033991
v -0.108469 0.945165 0.033630
v -0.101435 0.943480 0.022013
v -0.102304 0.939936 0.010994
v -0.099416 0.944252 0.004177
v -0.095891 0.948910 -0.002816
v -0.094684 0.956025 -0.008091
v -0.091258 0.955497 -0.000738
v -0.089817 0.962429 -0.002480
v -0.095085 0.964185 -0.009917
v -0.105113 0.968717 0.036077
v -0.108744 0.973287 0.033018
v -0.120065 0.971149 0.044502
v -0.117177 0.964279 0.048279
v -0.115934 0.973360 0.028545
v -0.126791 0.972021 0.041297
v -0.124780 0.961874 0.057889
v -0.129503 0.967375 0.053533
v -0.133651 0.970855 0.052993
v -0.131344 0.968173 0.060284
v -0.129217 0.963112 0.066229
v -0.135786 0.971221 0.062802
v -0.134749 0.966854 0.072918
v -0.106246 0.933455 0.036983
v -0.101609 0.934306 0.016261
v -0.101218 0.937530 0.024992
v -0.108003 0.937800 0.035197
v -0.110335 0.939231 -0.007846
v -0.108644 0.933719 -0.008053
v -0.108738 0.927555 -0.007990
v -0.101795 0.927304 0.015574
v -0.107107 0.927099 0.037262
v -0.144484 0.970228 0.066997
v -0.142833 0.967064 0.073589
v -0.136506 0.958297 0.077426
v -0.144614 0.959339 0.075237
v -0.149140 0.960362 0.068275
v -0.132556 0.948896 0.070626
v -0.138534 0.949442 0.078326
v -0.140765 0.941503 0.078143
v -0.133727 0.942106 0.070914
v -0.145129 0.949756 0.074561
v -0.146375 0.941680 0.072744
v -0.130940 0.937107 0.074037
v -0.135323 0.935953 0.079634
v -0.149732 0.936005 0.073404
v -0.144981 0.936535 0.079145
v -0.138415 0.929319 0.079312
v -0.132804 0.931226 0.074864
v -0.133868 0.924593 0.073363
v -0.137887 0.924183 0.072083
v -0.148410 0.928817 0.072852
v -0.143287 0.924787 0.067595
v -0.134926 0.924482 0.042473
v -0.141088 0.924717 0.036823
v -0.132044 0.924375 0.028514
v -0.125182 0.924138 0.029859
v -0.145797 0.924829 0.029154
v -0.132601 0.924361 0.020723
v -0.123561 0.924144 0.018062
v -0.125069 0.932200 0.065016
v -0.126600 0.926162 0.064898
v -0.130244 0.924054 0.063297
v -0.146168 0.930544 -0.043248
v -0.131789 0.929979 -0.035347
v -0.130068 0.924609 -0.023065
v -0.146923 0.925468 -0.036656
v -0.153668 0.964694 -0.061417
v -0.165537 0.964128 -0.059591
v -0.164069 0.973150 -0.061610
v -0.150989 0.973117 -0.061242
v -0.159426 0.973335 -0.045916
v -0.170726 0.973158 -0.052016
v -0.171033 0.962611 -0.051020
v -0.142042 0.957056 -0.052531
v -0.144455 0.949386 -0.052906
v -0.164433 0.947106 -0.061547
v -0.156819 0.956098 -0.061358
v -0.146046 0.945616 -0.049379
v -0.161056 0.946296 -0.055912
v -0.166475 0.954495 -0.058045
v -0.168162 0.927393 0.042540
v -0.160954 0.926289 0.049382
v -0.177675 0.930397 0.034705
v -0.171392 0.927213 0.029803
v -0.176792 0.931931 0.042836
v -0.179724 0.932806 0.046620
v -0.152253 0.925209 0.044721
v -0.157950 0.925510 0.037370
v -0.162998 0.925639 0.024533
v -0.189482 0.973544 -0.004992
v -0.197467 0.973251 -0.014151
v -0.205148 0.973366 -0.003168
v -0.199985 0.973411 0.005719
v -0.195981 0.958037 -0.016083
v -0.203759 0.959397 -0.005099
v -0.200193 0.960169 0.005285
v -0.176302 0.941117 0.039747
v -0.178592 0.938772 0.043996
v -0.161709 0.951010 0.049245
v -0.173073 0.950072 0.041115
v -0.184862 0.950485 0.028305
v -0.184719 0.942412 0.025359
v -0.152091 0.924644 -0.023789
v -0.156578 0.925255 -0.014819
v -0.164241 0.925316 -0.019120
v -0.164720 0.925085 -0.027352
v -0.164354 0.925575 -0.006632
v -0.171838 0.925571 -0.015175
v -0.178777 0.925916 -0.023685
v -0.162573 0.940577 -0.047277
v -0.164524 0.934239 -0.046728
v -0.180855 0.942865 -0.037122
v -0.173428 0.947773 -0.045288
v -0.177979 0.959464 -0.041155
v -0.186203 0.957685 -0.029841
v -0.166046 0.926590 -0.042659
v -0.184966 0.932226 -0.035981
v -0.196696 0.934669 0.005957
v -0.202862 0.932484 -0.003399
v -0.197100 0.929279 -0.003472
v -0.191486 0.929050 0.001878
v -0.182743 0.926161 -0.007164
v -0.190077 0.927022 -0.013181
v -0.196400 0.929983 -0.017403
v -0.144026 0.972620 0.054870
v -0.153632 0.961343 0.060389
v -0.134357 0.972993 0.039730
v -0.144564 0.973279 0.036807
v -0.154356 0.972144 0.049180
v -0.159852 0.961313 0.051726
v -0.155497 0.950912 0.058478
v -0.169995 0.972851 0.043998
v -0.171621 0.960812 0.042866
v -0.184709 0.973462 0.030532
v -0.184738 0.960962 0.029868
v -0.194180 0.973483 0.016600
v -0.194019 0.960665 0.016249
v -0.193376 0.950278 0.015201
v -0.191844 0.942814 0.013936
v -0.200112 0.948926 0.004736
v -0.199069 0.941151 0.005516
v -0.189159 0.935745 0.011914
v -0.203042 0.946888 -0.005994
v -0.203569 0.939592 -0.004978
v -0.197913 0.936570 -0.019504
v -0.194003 0.944682 -0.018577
v -0.183101 0.926979 -0.030685
v -0.165537 0.925371 -0.035435
v -0.149149 0.924723 -0.030608
v -0.134080 0.924463 -0.019062
v -0.139342 0.924753 -0.014309
v -0.121924 0.924060 -0.001170
v -0.127982 0.924269 0.002391
v -0.137293 0.924515 0.007782
v -0.147020 0.925237 -0.006903
v -0.150599 0.925032 0.016729
v -0.157701 0.925376 0.002525
v -0.168938 0.926038 0.011231
v -0.175296 0.926498 0.001230
v -0.176847 0.927902 0.017032
v -0.183401 0.928933 0.007529
v -0.182356 0.934188 0.021297
v -0.116449 0.923859 0.017496
v -0.114193 0.923659 0.034498
v -0.119628 0.923892 0.032196
v -0.110642 0.923589 0.016805
v -0.117006 0.923896 -0.004366
v -0.105030 0.923321 0.015926
v -0.111810 0.923734 -0.006635
v -0.121215 0.924800 -0.019827
v -0.109263 0.923730 0.036756
v -0.124996 0.923970 0.048809
v -0.120267 0.923912 0.051465
v -0.117279 0.927196 0.052706
v -0.116149 0.933144 0.052374
v -0.117306 0.938274 0.050260
v -0.124725 0.938147 0.063653
v -0.118627 0.942927 0.048156
v -0.127262 0.942269 0.060989
v -0.117823 0.949377 0.048658
v -0.126251 0.948069 0.060981
v -0.117307 0.956469 0.049098
v -0.124911 0.954740 0.060081
v -0.130880 0.955909 0.069340
v -0.140396 0.924559 0.055523
v -0.129709 0.924182 0.045664
v -0.134940 0.924250 0.059789
v -0.145947 0.924884 0.050671
v -0.154663 0.925514 0.055397
v -0.148842 0.925237 0.061834
v -0.120397 0.929488 -0.025142
v -0.170360 0.974098 0.018300
v -0.180873 0.974136 0.006269
v -0.155487 0.976877 0.003196
v -0.168206 0.977073 -0.007513
v -0.179268 0.973561 -0.017151
v -0.156374 0.975172 -0.024617
v -0.168263 0.973519 -0.032266
v -0.179482 0.973149 -0.039569
v -0.189108 0.973126 -0.026104
v -0.147355 0.973458 -0.038077
v -0.142289 0.976272 -0.015252
v -0.133474 0.973376 -0.027419
v -0.125411 0.972895 -0.038111
v -0.139149 0.973173 -0.050946
v -0.126136 0.965167 -0.038943
v -0.140169 0.965077 -0.051870
v -0.127424 0.957250 -0.039227
v -0.113424 0.965248 -0.027012
v -0.114142 0.957481 -0.026724
v -0.115469 0.950294 -0.025366
v -0.129170 0.950340 -0.039441
v -0.118040 0.945931 -0.023114
v -0.131287 0.946213 -0.037071
v -0.119644 0.940895 -0.022715
v -0.132434 0.941693 -0.035352
v -0.146943 0.942282 -0.045501
v -0.131805 0.935764 -0.035751
v -0.147000 0.936786 -0.044166
v -0.161295 0.945054 -0.050381
v -0.169249 0.952406 -0.051477
v -0.119138 0.935099 -0.024949
v -0.107130 0.944455 -0.009867
v -0.103614 0.949840 -0.014110
v -0.103073 0.957330 -0.016638
v -0.102987 0.965109 -0.017253
v -0.096278 0.972269 -0.010135
v -0.103968 0.972758 -0.016580
v -0.113231 0.972725 -0.026224
v -0.111502 0.973121 -0.008730
v -0.121282 0.973262 -0.016967
v -0.111411 0.972679 0.009021
v -0.102990 0.973180 -0.002605
v -0.120022 0.970997 0.002298
v -0.130320 0.971517 -0.006153
v -0.132260 0.973010 0.019214
v -0.143347 0.973325 0.012739
v -0.122992 0.973421 0.024099
v -0.157288 0.973726 0.029534
v -0.103892 0.973145 0.014154
v -0.097902 0.973158 0.018384
v -0.095541 0.968458 0.020475
v -0.150044 0.950257 0.066941
v -0.182829 0.939219 0.045846
vt 0.395742 0.017183
vt 0.394629 0.019747
vt 0.392001 0.017124
vt 0.391785 0.013486
vt 0.390233 0.009791
vt 0.389531 0.016944
vt 0.391381 0.020274
vt 0.399424 0.024465
vt 0.397631 0.016510
vt 0.387077 0.020287
vt 0.391008 0.022624
vt 0.623822 0.941733
vt 0.625388 0.942571
vt 0.626961 0.946036
vt 0.624182 0.944175
vt 0.627204 0.942635
vt 0.628803 0.944079
vt 0.632184 0.945142
vt 0.632943 0.947488
vt 0.624145 0.947293
vt 0.629480 0.951220
vt 0.633989 0.951647
vt 0.389736 0.037902
vt 0.392245 0.031816
vt 0.393329 0.038454
vt 0.392570 0.043376
vt 0.852827 0.815971
vt 0.850283 0.822656
vt 0.847565 0.819999
vt 0.850166 0.814580
vt 0.633962 0.957470
vt 0.629516 0.958544
vt 0.913208 0.830961
vt 0.908637 0.829890
vt 0.908370 0.826756
vt 0.910854 0.825329
vt 0.913005 0.823122
vt 0.905914 0.818478
vt 0.909394 0.815929
vt 0.916640 0.822128
vt 0.896072 0.813815
vt 0.897178 0.811023
vt 0.898686 0.808239
vt 0.907642 0.811425
vt 0.951389 0.937277
vt 0.956008 0.935586
vt 0.955993 0.943226
vt 0.952251 0.942993
vt 0.960948 0.934121
vt 0.961862 0.939267
vt 0.921615 0.828619
vt 0.918840 0.832611
vt 0.918188 0.827668
vt 0.915775 0.829508
vt 0.915929 0.834891
vt 0.894147 0.817069
vt 0.893504 0.820297
vt 0.884443 0.817966
vt 0.884980 0.813770
vt 0.891558 0.824030
vt 0.882414 0.821487
vt 0.878376 0.811306
vt 0.877306 0.816029
vt 0.875352 0.818628
vt 0.873991 0.814321
vt 0.872757 0.810479
vt 0.870886 0.815554
vt 0.868152 0.811374
vt 0.665415 0.970712
vt 0.677042 0.970572
vt 0.672159 0.974130
vt 0.665565 0.974226
vt 0.666376 0.979184
vt 0.673493 0.977981
vt 0.948616 0.943630
vt 0.946634 0.939484
vt 0.953830 0.927614
vt 0.950385 0.927390
vt 0.946750 0.927058
vt 0.942199 0.938375
vt 0.665131 0.966276
vt 0.677693 0.966545
vt 0.866393 0.816535
vt 0.864841 0.813505
vt 0.864515 0.808708
vt 0.861796 0.812329
vt 0.860628 0.816912
vt 0.868717 0.803945
vt 0.862025 0.806309
vt 0.859228 0.804265
vt 0.866621 0.801692
vt 0.858511 0.810058
vt 0.855308 0.810123
vt 0.639921 0.973801
vt 0.640194 0.976625
vt 0.634171 0.974057
vt 0.636752 0.972147
vt 0.852944 0.809856
vt 0.855837 0.805655
vt 0.636046 0.968984
vt 0.640320 0.971177
vt 0.640756 0.967451
vt 0.639848 0.965318
vt 0.629420 0.964716
vt 0.633938 0.962804
vt 0.631531 0.969044
vt 0.638802 0.961527
vt 0.652370 0.953659
vt 0.651892 0.949148
vt 0.658900 0.948765
vt 0.660867 0.952253
vt 0.653024 0.944789
vt 0.661522 0.945301
vt 0.665145 0.947901
vt 0.647092 0.971437
vt 0.646657 0.967530
vt 0.646139 0.964733
vt 0.949434 0.900443
vt 0.950692 0.908978
vt 0.944493 0.913411
vt 0.944979 0.901895
vt 0.903312 0.882041
vt 0.896150 0.884934
vt 0.897070 0.880696
vt 0.901683 0.877170
vt 0.894733 0.873018
vt 0.891522 0.878835
vt 0.889740 0.884040
vt 0.911048 0.875340
vt 0.913321 0.877050
vt 0.907755 0.890090
vt 0.904075 0.886894
vt 0.958240 0.897903
vt 0.956616 0.889343
vt 0.958696 0.886714
vt 0.960741 0.897279
vt 0.956627 0.884228
vt 0.961594 0.880932
vt 0.378394 0.015912
vt 0.383538 0.016623
vt 0.377693 0.019827
vt 0.373774 0.015609
vt 0.904861 0.909867
vt 0.908722 0.912472
vt 0.903190 0.914003
vt 0.902065 0.910775
vt 0.384432 0.021638
vt 0.382331 0.023828
vt 0.644083 0.948573
vt 0.637890 0.947200
vt 0.637723 0.943810
vt 0.644673 0.944319
vt 0.646993 0.939127
vt 0.640921 0.938622
vt 0.869423 0.862471
vt 0.867970 0.868459
vt 0.861861 0.865247
vt 0.861178 0.860412
vt 0.862864 0.874782
vt 0.856486 0.868893
vt 0.854158 0.862789
vt 0.384767 0.029196
vt 0.387380 0.026917
vt 0.853354 0.828073
vt 0.850515 0.836213
vt 0.845897 0.837938
vt 0.849225 0.828456
vt 0.378667 0.025955
vt 0.848814 0.846969
vt 0.844937 0.849160
vt 0.937486 0.903655
vt 0.932160 0.904819
vt 0.931943 0.899816
vt 0.935559 0.896952
vt 0.926493 0.903712
vt 0.928033 0.897556
vt 0.929866 0.891733
vt 0.950667 0.890605
vt 0.947398 0.891253
vt 0.941238 0.881039
vt 0.948683 0.883905
vt 0.881569 0.882855
vt 0.882765 0.889141
vt 0.873282 0.887213
vt 0.872654 0.879589
vt 0.942654 0.891828
vt 0.935194 0.884344
vt 0.911217 0.892050
vt 0.915674 0.886226
vt 0.916844 0.889412
vt 0.915407 0.893712
vt 0.921563 0.894964
vt 0.922862 0.889391
vt 0.923213 0.884595
vt 0.869859 0.821767
vt 0.860679 0.821515
vt 0.879652 0.824746
vt 0.875957 0.829429
vt 0.866930 0.827448
vt 0.859282 0.826948
vt 0.854790 0.821918
vt 0.862442 0.834998
vt 0.855703 0.835668
vt 0.860520 0.845198
vt 0.853894 0.846031
vt 0.860602 0.854276
vt 0.853809 0.855504
vt 0.848367 0.856786
vt 0.844873 0.857667
vt 0.848717 0.864689
vt 0.844977 0.865385
vt 0.841403 0.859180
vt 0.841454 0.865158
vt 0.850655 0.871613
vt 0.846519 0.872726
vt 0.842925 0.872047
vt 0.915792 0.880564
vt 0.924618 0.880683
vt 0.858088 0.879560
vt 0.852864 0.879845
vt 0.927949 0.874730
vt 0.932282 0.887459
vt 0.939166 0.894167
vt 0.941466 0.902972
vt 0.941061 0.913270
vt 0.936830 0.912503
vt 0.938065 0.924190
vt 0.934703 0.924139
vt 0.930357 0.923620
vt 0.931477 0.912432
vt 0.920584 0.918044
vt 0.924271 0.909798
vt 0.913462 0.914696
vt 0.917454 0.907451
vt 0.919990 0.901136
vt 0.912716 0.905622
vt 0.914973 0.899383
vt 0.908361 0.903555
vt 0.910483 0.897365
vt 0.840588 0.851316
vt 0.840897 0.842389
vt 0.655873 0.939452
vt 0.663291 0.940784
vt 0.930601 0.931074
vt 0.928296 0.928573
vt 0.933621 0.933661
vt 0.663993 0.959111
vt 0.661937 0.955771
vt 0.667503 0.951283
vt 0.668817 0.953982
vt 0.940755 0.925293
vt 0.936302 0.935654
vt 0.939400 0.937120
vt 0.943922 0.926257
vt 0.946313 0.918111
vt 0.664571 0.963083
vt 0.676526 0.964530
vt 0.936910 0.943267
vt 0.938610 0.943921
vt 0.654046 0.960384
vt 0.654568 0.964094
vt 0.655070 0.967234
vt 0.655377 0.971494
vt 0.655822 0.975411
vt 0.647639 0.975198
vt 0.656123 0.979076
vt 0.647218 0.978488
vt 0.886107 0.806968
vt 0.876942 0.804246
vt 0.875583 0.800929
vt 0.886486 0.804386
vt 0.885387 0.809867
vt 0.877924 0.807740
vt 0.870806 0.806524
vt 0.644997 0.957131
vt 0.653401 0.956910
vt 0.645617 0.961089
vt 0.644605 0.952962
vt 0.638509 0.952027
vt 0.638797 0.956732
vt 0.950362 0.916753
vt 0.870809 0.846192
vt 0.870105 0.854987
vt 0.882332 0.848254
vt 0.880159 0.857510
vt 0.877943 0.865661
vt 0.890755 0.861943
vt 0.887248 0.869194
vt 0.883966 0.876141
vt 0.875305 0.872337
vt 0.899265 0.865363
vt 0.893882 0.852943
vt 0.901800 0.855759
vt 0.908510 0.858469
vt 0.906333 0.869453
vt 0.912325 0.860305
vt 0.909306 0.872679
vt 0.916047 0.862078
vt 0.913872 0.850169
vt 0.917104 0.850427
vt 0.920036 0.850379
vt 0.918720 0.863872
vt 0.959712 0.918509
vt 0.960017 0.907847
vt 0.962853 0.907733
vt 0.962626 0.918560
vt 0.957009 0.918140
vt 0.957419 0.908302
vt 0.955731 0.898596
vt 0.954225 0.908662
vt 0.952753 0.899366
vt 0.953647 0.890187
vt 0.953346 0.884768
vt 0.889690 0.888825
vt 0.895717 0.889688
vt 0.953673 0.917575
vt 0.957495 0.927825
vt 0.961699 0.927431
vt 0.921607 0.838943
vt 0.918386 0.840643
vt 0.914756 0.841378
vt 0.912235 0.835970
vt 0.910895 0.841194
vt 0.910172 0.848819
vt 0.905526 0.839911
vt 0.903782 0.846863
vt 0.899908 0.831541
vt 0.907365 0.834420
vt 0.898203 0.837344
vt 0.896444 0.844432
vt 0.887327 0.833134
vt 0.884579 0.839678
vt 0.889851 0.828059
vt 0.872795 0.836816
vt 0.901612 0.827000
vt 0.903038 0.823540
vt 0.904275 0.821012
vt 0.856422 0.816092
vt 0.389121 0.024628
vt 0.394546 0.026545
vt 0.386480 0.013935
vn 0.0482 0.5276 0.8481
vn -0.6144 0.5423 0.5731
vn -0.4904 -0.3941 0.7773
vn 0.1420 -0.5558 0.8191
vn 0.4020 -0.7883 0.4658
vn -0.4204 -0.9054 -0.0597
vn -0.9872 -0.0603 -0.1476
vn -0.2307 0.9561 0.1808
vn 0.4946 0.4453 0.7463
vn -0.2422 -0.7880 -0.5660
vn -0.7644 0.3227 -0.5582
vn 0.2256 0.0289 0.9738
vn 0.0159 0.9937 0.1105
vn 0.2749 -0.9512 0.1404
vn -0.1905 -0.9567 0.2202
vn -0.3634 -0.7342 0.5734
vn -0.1892 0.8876 0.4200
vn -0.5475 0.3108 0.7770
vn -0.6127 -0.5703 0.5471
vn -0.5946 0.4086 0.6925
vn -0.7417 0.3275 0.5854
vn -0.7906 0.2799 0.5446
vn -0.7787 0.2199 0.5875
vn -0.6616 -0.5507 0.5090
vn 0.8425 0.3649 -0.3964
vn 0.3061 0.9496 -0.0675
vn 0.5155 0.8521 0.0910
vn 0.9467 0.2813 0.1568
vn 0.9564 -0.1653 0.2407
vn 0.8594 -0.1676 0.4831
vn 0.8790 -0.3144 0.3585
vn 0.8936 -0.4254 0.1434
vn 0.8079 -0.1321 0.5744
vn 0.8226 -0.1613 0.5453
vn 0.8392 0.0267 0.5431
vn 0.9541 -0.1026 0.2813
vn 0.9598 -0.2351 -0.1530
vn 0.7309 -0.6738 -0.1081
vn 0.7178 -0.6362 -0.2830
vn 0.7749 -0.2965 -0.5582
vn 0.9139 -0.3356 -0.2284
vn 0.9430 -0.1515 -0.2964
vn 0.7253 -0.0601 -0.6858
vn 0.7286 0.3111 0.6103
vn 0.3088 0.8942 0.3241
vn 0.2768 0.8490 0.4500
vn 0.6515 0.3521 0.6720
vn 0.0064 0.9989 0.0463
vn 0.0998 0.9764 0.1917
vn 0.7618 0.3914 0.5162
vn 0.4894 0.7935 0.3617
vn 0.2812 0.9424 0.1810
vn 0.6764 0.7141 0.1806
vn 0.8263 0.3708 0.4240
vn 0.3514 0.9110 0.2160
vn 0.4550 0.5968 0.6609
vn 0.9099 0.0438 0.4125
vn 0.9986 -0.0189 -0.0491
vn 0.9525 0.0178 0.3040
vn 0.8558 0.1953 0.4790
vn 0.8600 -0.2165 -0.4621
vn 0.9071 0.0480 -0.4181
vn 0.8360 -0.3661 -0.4089
vn 0.9403 -0.3380 -0.0398
vn 0.8566 -0.3580 0.3716
vn -0.4205 0.8313 0.3635
vn -0.3476 0.6260 0.6980
vn 0.3413 0.1287 0.9311
vn -0.5668 0.2147 0.7954
vn -0.8448 0.2616 0.4667
vn 0.7998 -0.1237 0.5874
vn 0.1969 -0.0593 0.9786
vn -0.0441 0.2692 0.9621
vn 0.7509 0.2744 0.6007
vn -0.6792 0.0275 0.7335
vn -0.7292 0.2881 0.6207
vn 0.7441 0.2910 0.6014
vn 0.4696 0.1652 0.8673
vn -0.7387 0.1410 0.6591
vn -0.4961 0.1029 0.8621
vn 0.0369 -0.4711 0.8813
vn 0.7004 -0.2861 0.6539
vn 0.4942 -0.6864 0.5335
vn 0.0070 -0.9295 0.3687
vn -0.5669 -0.5859 0.5791
vn -0.2230 -0.9541 0.1998
vn -0.0432 -0.9990 -0.0073
vn -0.0400 -0.9992 0.0016
vn -0.0328 -0.9995 0.0014
vn -0.0385 -0.9992 -0.0051
vn -0.0417 -0.9991 0.0041
vn -0.0311 -0.9995 0.0001
vn -0.0338 -0.9994 -0.0021
vn 0.8163 -0.0667 0.5738
vn 0.6574 -0.5796 0.4816
vn 0.1634 -0.9796 0.1174
vn 0.2911 -0.4429 -0.8480
vn 0.4870 -0.4884 -0.7241
vn 0.1439 -0.9567 -0.2529
vn 0.1290 -0.9092 -0.3958
vn 0.2465 -0.0994 -0.9640
vn -0.5596 -0.0493 -0.8273
vn -0.3515 0.5870 -0.7293
vn 0.2886 0.5997 -0.7464
vn -0.0081 0.9995 -0.0314
vn -0.5890 0.6961 -0.4105
vn -0.8288 -0.0504 -0.5573
vn 0.5922 -0.1547 -0.7908
vn 0.4900 -0.4988 -0.7149
vn -0.2764 -0.3575 -0.8921
vn 0.1039 -0.1370 -0.9851
vn 0.3263 -0.7805 -0.5333
vn -0.2595 -0.8058 -0.5323
vn -0.7474 -0.1873 -0.6374
vn -0.2981 -0.9401 0.1655
vn -0.2853 -0.9407 0.1837
vn -0.7605 -0.6226 0.1844
vn -0.3378 -0.9378 0.0798
vn -0.7377 -0.6713 -0.0722
vn -0.3944 -0.6927 -0.6038
vn -0.0808 -0.9967 0.0094
vn -0.1019 -0.9945 0.0244
vn -0.1095 -0.9937 0.0233
vn -0.0643 0.9978 -0.0185
vn -0.5856 0.6964 -0.4149
vn -0.8162 0.5761 -0.0432
vn -0.6540 0.6882 0.3140
vn -0.8163 -0.0090 -0.5776
vn -0.9897 -0.0379 -0.1383
vn -0.8999 -0.0526 0.4330
vn -0.8714 0.2098 0.4434
vn -0.6942 0.6034 -0.3925
vn -0.7083 0.0013 0.7060
vn -0.6635 -0.0236 0.7478
vn -0.7986 -0.0865 0.5956
vn -0.8380 -0.2303 0.4946
vn -0.0271 -0.9995 0.0134
vn -0.0279 -0.9992 0.0281
vn -0.0353 -0.9991 0.0247
vn -0.0522 -0.9985 -0.0140
vn -0.0344 -0.9992 0.0204
vn -0.0454 -0.9988 0.0201
vn -0.1274 -0.9909 -0.0440
vn -0.1655 -0.3357 -0.9273
vn -0.1863 -0.3021 -0.9349
vn -0.6821 -0.0009 -0.7313
vn -0.6390 -0.2187 -0.7374
vn -0.7984 -0.0380 -0.6009
vn -0.8077 -0.0138 -0.5894
vn -0.1962 -0.7153 -0.6708
vn -0.6465 -0.3051 -0.6993
vn -0.6241 -0.4991 0.6012
vn -0.8291 -0.5367 0.1566
vn -0.3834 -0.9055 0.1821
vn -0.3025 -0.8856 0.3524
vn -0.1092 -0.9908 0.0797
vn -0.2432 -0.9698 -0.0182
vn -0.6555 -0.6972 -0.2901
vn -0.2096 0.9504 0.2297
vn -0.7870 0.3429 0.5128
vn 0.0459 0.9965 0.0701
vn 0.0002 0.9995 0.0305
vn -0.2917 0.8479 0.4427
vn -0.6356 0.1938 0.7473
vn -0.8318 0.0284 0.5544
vn -0.3966 0.6874 0.6084
vn -0.6211 0.0085 0.7837
vn -0.5602 0.6666 0.4917
vn -0.7685 -0.0439 0.6384
vn -0.6301 0.6772 0.3800
vn -0.8469 -0.0491 0.5294
vn -0.8251 -0.1340 0.5488
vn -0.7621 -0.2851 0.5813
vn -0.8976 -0.0656 0.4360
vn -0.8285 -0.1462 0.5406
vn -0.6158 -0.5733 0.5405
vn -0.9861 0.0534 -0.1573
vn -0.9994 -0.0291 -0.0194
vn -0.8534 -0.0523 -0.5186
vn -0.8086 0.1361 -0.5724
vn -0.3890 -0.8685 -0.3073
vn -0.1122 -0.9779 -0.1765
vn -0.0036 -0.9979 -0.0650
vn -0.0108 -0.9997 -0.0226
vn -0.0324 -0.9994 0.0119
vn -0.0343 -0.9994 -0.0040
vn -0.0385 -0.9993 -0.0007
vn -0.0371 -0.9993 -0.0057
vn -0.0346 -0.9994 0.0081
vn -0.0446 -0.9990 -0.0024
vn -0.0441 -0.9990 -0.0007
vn -0.1256 -0.9917 0.0273
vn -0.1112 -0.9910 0.0740
vn -0.3946 -0.9095 0.1306
vn -0.3388 -0.8982 0.2800
vn -0.7403 -0.5858 0.3298
vn -0.0409 -0.9992 -0.0030
vn -0.0251 -0.9997 0.0031
vn -0.0423 -0.9991 -0.0076
vn -0.0350 -0.9994 0.0001
vn -0.0218 -0.9995 -0.0227
vn 0.4703 -0.8824 -0.0112
vn 0.3888 -0.8930 -0.2267
vn 0.3075 -0.8926 -0.3298
vn 0.4392 -0.8737 0.2090
vn -0.0283 -0.9996 -0.0026
vn 0.2989 -0.9272 0.2258
vn 0.7380 -0.4329 0.5177
vn 0.8321 0.0950 0.5465
vn 0.7728 0.3937 0.4977
vn 0.7729 0.3780 0.5098
vn 0.8246 0.1346 0.5495
vn 0.8088 0.2490 0.5328
vn 0.8189 -0.1335 0.5582
vn 0.8274 -0.1172 0.5492
vn 0.8005 -0.0425 0.5979
vn 0.8345 -0.0089 0.5510
vn 0.8271 -0.0078 0.5620
vn -0.0574 -0.9983 -0.0026
vn -0.0437 -0.9990 -0.0107
vn -0.0505 -0.9987 -0.0089
vn -0.0612 -0.9981 0.0020
vn -0.2564 -0.9535 0.1585
vn -0.2373 -0.9583 0.1594
vn 0.6324 -0.4498 -0.6307
vn -0.0186 0.9971 0.0739
vn -0.0794 0.9965 0.0252
vn 0.0586 0.9957 0.0723
vn -0.0889 0.9956 -0.0304
vn -0.0829 0.9950 -0.0555
vn -0.0151 0.9943 -0.1053
vn -0.0444 0.9968 -0.0659
vn -0.5863 0.6915 -0.4220
vn -0.5888 0.6898 -0.4213
vn 0.0175 0.9980 -0.0609
vn 0.1173 0.9931 -0.0066
vn 0.0656 0.9974 -0.0291
vn 0.4942 0.7000 -0.5156
vn 0.4752 0.6859 -0.5511
vn 0.6828 -0.0346 -0.7298
vn 0.6334 -0.0769 -0.7700
vn 0.6779 -0.1376 -0.7222
vn 0.6890 -0.0069 -0.7247
vn 0.6769 -0.1607 -0.7183
vn 0.6214 -0.4534 -0.6390
vn 0.6276 -0.4150 -0.6587
vn 0.6164 -0.5333 -0.5793
vn 0.5628 -0.5594 -0.6086
vn 0.7644 -0.0838 -0.6393
vn 0.6213 -0.1998 -0.7576
vn 0.3399 -0.5311 -0.7761
vn 0.5896 0.0124 -0.8076
vn 0.3348 -0.1554 -0.9294
vn -0.2383 -0.6960 -0.6773
vn -0.7381 -0.3417 -0.5818
vn 0.7616 0.0801 -0.6430
vn 0.6068 -0.6641 -0.4367
vn 0.6179 -0.5401 -0.5714
vn 0.6813 -0.2054 -0.7025
vn 0.6841 0.0138 -0.7292
vn 0.5416 0.6947 -0.4732
vn 0.4631 0.7438 -0.4820
vn 0.4907 0.7139 -0.4995
vn -0.0285 0.9993 0.0233
vn 0.0360 0.9988 0.0342
vn -0.0455 0.9985 -0.0321
vn 0.0521 0.9984 -0.0213
vn -0.0370 0.9993 -0.0060
vn 0.1021 0.9928 0.0630
vn 0.0162 0.9991 -0.0397
vn 0.0997 0.9940 0.0455
vn -0.0050 0.9998 -0.0175
vn 0.0196 0.9977 0.0655
vn 0.0012 0.9999 -0.0113
vn 0.4182 0.8795 0.2272
vn 0.8449 0.2404 0.4778
vn -0.8420 0.0156 0.5392
vn -0.4982 0.5352 -0.6822
f 1/1/1 2/2/2 3/3/3 4/4/4
f 5/5/5 4/4/4 3/3/3 6/6/6
f 7/7/7 6/6/6 3/3/3 2/2/2
f 8/8/8 2/2/2 1/1/1 9/9/9
f 5/5/5 9/9/9 1/1/1 4/4/4
f 10/10/10 6/6/6 7/7/7 11/11/11
f 8/8/8 11/11/11 7/7/7 2/2/2
f 8/12/8 9/13/9 12/14/12 13/15/13
f 5/16/5 14/17/14 12/14/12 9/13/9
f 15/18/15 16/19/16 12/14/12 14/17/14
f 17/20/17 13/15/13 12/14/12 18/21/18
f 19/22/19 18/21/18 12/14/12 16/19/16
f 20/23/20 17/24/17 18/25/18 21/26/21
f 22/27/22 21/28/21 18/29/18 23/30/23
f 24/31/24 23/32/23 18/21/18 19/22/19
f 25/33/25 26/34/26 27/35/27 28/36/28
f 29/37/29 30/38/30 31/39/31 32/40/32
f 33/41/33 34/42/34 31/39/31 30/38/30
f 35/43/35 36/44/36 31/39/31 34/42/34
f 37/45/37 38/46/38 31/47/31 36/48/36
f 39/49/39 32/50/32 31/47/31 38/46/38
f 39/51/39 40/52/40 41/53/41 32/40/32
f 29/37/29 32/40/32 41/53/41 42/54/42
f 43/55/43 42/54/42 41/53/41 40/52/40
f 44/56/44 45/57/45 46/58/46 47/59/47
f 48/60/48 49/61/49 46/58/46 45/57/45
f 50/62/50 47/59/47 46/58/46 51/63/51
f 52/64/52 51/63/51 46/58/46 49/61/49
f 50/62/50 51/63/51 53/65/53 54/66/54
f 52/64/52 55/67/55 53/65/53 51/63/51
f 56/68/56 54/66/54 53/65/53 55/67/55
f 57/69/57 58/70/58 59/71/59 60/72/60
f 35/73/35 60/72/60 59/71/59 36/74/36
f 37/45/37 36/48/36 59/75/59 58/76/58
f 61/77/61 37/45/37 58/76/58 62/78/62
f 63/79/63 62/78/62 58/76/58 64/80/64
f 65/81/65 64/82/64 58/70/58 57/69/57
f 55/67/55 66/83/66 67/84/67 56/68/56
f 68/85/68 56/68/56 67/84/67 69/86/69
f 70/87/70 69/86/69 67/84/67 66/83/66
f 71/88/71 72/89/72 73/90/73 74/91/74
f 75/92/75 76/93/76 73/90/73 72/89/72
f 77/94/77 74/95/74 73/96/73 78/97/78
f 79/98/79 80/99/80 73/90/73 76/93/76
f 77/94/77 78/97/78 81/100/81 82/101/82
f 83/102/83 82/101/82 81/100/81 84/103/84
f 79/104/79 85/105/85 81/100/81 80/106/80
f 86/107/86 84/103/84 81/100/81 85/105/85
f 87/108/87 88/109/88 89/110/89 90/111/90
f 91/112/91 92/113/92 89/110/89 88/109/88
f 93/114/93 90/111/90 89/110/89 92/113/92
f 94/115/94 82/101/82 83/102/83 95/116/95
f 96/117/96 95/116/95 83/102/83 84/103/84
f 97/118/97 98/119/98 99/120/99 100/121/100
f 101/122/101 102/123/102 103/124/103 104/125/104
f 105/126/105 104/125/104 103/124/103 106/127/106
f 107/128/107 106/127/106 103/124/103 102/123/102
f 108/129/108 109/130/109 110/131/110 111/132/111
f 112/133/112 113/134/113 110/135/110 109/136/109
f 114/137/114 111/138/111 110/135/110 113/134/113
f 16/139/16 15/140/15 115/141/115 116/142/116
f 117/143/117 118/144/118 115/145/115 119/146/119
f 120/147/120 119/148/119 115/141/115 15/140/15
f 121/149/121 116/150/116 115/151/115 122/152/122
f 123/153/123 122/152/122 115/151/115 118/154/118
f 124/155/124 125/156/125 126/157/126 127/158/127
f 128/159/128 129/160/129 126/157/126 125/156/125
f 130/161/130 127/158/127 126/157/126 129/160/129
f 17/24/17 20/23/20 131/162/131 132/163/132
f 133/164/133 134/165/134 131/166/131 20/167/20
f 119/148/119 132/163/132 131/162/131 117/168/117
f 135/169/135 136/170/136 131/166/131 134/165/134
f 137/171/137 138/172/138 139/173/139 140/174/140
f 141/175/141 142/176/142 139/173/139 138/172/138
f 143/177/143 140/174/140 139/173/139 142/176/142
f 144/178/144 145/179/145 146/180/146 147/181/147
f 148/182/148 147/183/147 146/184/146 149/185/149
f 150/186/150 151/187/151 146/180/146 145/179/145
f 152/188/152 153/189/153 154/190/154 155/191/155
f 156/192/156 155/191/155 154/190/154 157/193/157
f 158/194/158 157/193/157 154/190/154 153/189/153
f 55/67/55 52/64/52 159/195/159 66/83/66
f 70/87/70 66/83/66 159/195/159 160/196/160
f 49/61/49 161/197/161 159/195/159 52/64/52
f 162/198/162 163/199/163 159/195/159 161/197/161
f 164/200/164 160/196/160 159/195/159 163/199/163
f 165/201/165 160/196/160 164/200/164 133/164/133
f 166/202/166 167/203/167 164/200/164 163/199/163
f 134/165/134 133/164/133 164/200/164 167/203/167
f 168/204/168 169/205/169 167/203/167 166/202/166
f 135/169/135 134/165/134 167/203/167 169/205/169
f 170/206/170 171/207/171 169/205/169 168/204/168
f 172/208/172 135/169/135 169/205/169 171/207/171
f 136/170/136 135/169/135 172/208/172 173/209/173
f 130/161/130 174/210/174 172/208/172 171/207/171
f 175/211/175 173/209/173 172/208/172 174/210/174
f 176/212/176 173/209/173 175/211/175 152/213/152
f 177/214/177 178/215/178 175/211/175 174/210/174
f 153/216/153 152/213/152 175/211/175 178/215/178
f 158/194/158 153/189/153 178/217/178 179/218/179
f 180/219/180 179/220/179 178/215/178 177/214/177
f 151/187/151 179/218/179 180/221/180 146/180/146
f 129/160/129 128/159/128 180/219/180 177/214/177
f 149/185/149 146/184/146 180/219/180 128/159/128
f 181/222/181 158/194/158 179/218/179 151/187/151
f 140/174/140 143/177/143 181/222/181 182/223/182
f 157/193/157 158/194/158 181/222/181 143/177/143
f 150/186/150 182/223/182 181/222/181 151/187/151
f 100/121/100 183/224/183 182/223/182 150/186/150
f 137/171/137 140/174/140 182/223/182 183/224/183
f 99/120/99 184/225/184 183/224/183 100/121/100
f 185/226/185 137/171/137 183/224/183 184/225/184
f 186/227/186 187/228/187 185/226/185 184/225/184
f 188/229/188 189/230/189 185/226/185 187/228/187
f 138/172/138 137/171/137 185/226/185 189/230/189
f 190/231/190 191/232/191 189/230/189 188/229/188
f 141/175/141 138/172/138 189/230/189 191/232/191
f 123/233/123 192/234/192 191/232/191 190/231/190
f 193/235/193 141/175/141 191/232/191 192/234/192
f 194/236/194 195/237/195 193/235/193 192/234/192
f 155/191/155 156/192/156 193/235/193 195/237/195
f 142/176/142 141/175/141 193/235/193 156/192/156
f 196/238/196 176/239/176 195/237/195 194/236/194
f 152/188/152 155/191/155 195/237/195 176/239/176
f 118/144/118 117/143/117 196/238/196 194/236/194
f 131/166/131 136/170/136 196/240/196 117/241/117
f 173/209/173 176/212/176 196/240/196 136/170/136
f 123/233/123 118/144/118 194/236/194 192/234/192
f 92/113/92 91/112/91 190/242/190 188/243/188
f 122/152/122 123/153/123 190/242/190 91/112/91
f 93/244/93 92/245/92 188/229/188 187/228/187
f 197/246/197 93/244/93 187/228/187 186/227/186
f 198/247/198 199/248/199 197/249/197 200/250/200
f 90/111/90 93/114/93 197/249/197 199/248/199
f 201/251/201 200/252/200 197/246/197 186/227/186
f 202/253/202 200/252/200 201/251/201 203/254/203
f 184/225/184 99/120/99 201/251/201 186/227/186
f 204/255/204 203/254/203 201/251/201 99/120/99
f 65/81/65 205/256/205 202/257/202 64/82/64
f 198/258/198 200/252/200 202/253/202 205/259/205
f 63/79/63 64/80/64 202/253/202 203/254/203
f 206/260/206 198/247/198 205/256/205 207/261/207
f 208/262/208 207/261/207 205/256/205 65/81/65
f 96/117/96 207/261/207 208/262/208 95/116/95
f 57/69/57 209/263/209 208/262/208 65/81/65
f 94/115/94 95/116/95 208/262/208 209/263/209
f 60/72/60 210/264/210 209/263/209 57/69/57
f 211/265/211 94/115/94 209/263/209 210/264/210
f 82/101/82 94/115/94 211/265/211 77/94/77
f 212/266/212 213/267/213 211/265/211 210/264/210
f 74/95/74 77/94/77 211/265/211 213/267/213
f 214/268/214 215/269/215 213/270/213 212/271/212
f 71/88/71 74/91/74 213/270/213 215/269/215
f 216/272/216 217/273/217 215/269/215 214/268/214
f 218/274/218 71/88/71 215/269/215 217/273/217
f 72/89/72 71/88/71 218/274/218 68/85/68
f 50/62/50 54/66/54 218/274/218 217/273/217
f 56/68/56 68/85/68 218/274/218 54/66/54
f 47/59/47 50/62/50 217/273/217 216/272/216
f 34/42/34 33/41/33 216/272/216 214/268/214
f 44/56/44 47/59/47 216/272/216 33/41/33
f 35/43/35 34/42/34 214/268/214 212/271/212
f 60/72/60 35/73/35 212/266/212 210/264/210
f 219/275/219 220/276/220 206/260/206 221/277/221
f 199/248/199 198/247/198 206/260/206 220/276/220
f 96/117/96 221/277/221 206/260/206 207/261/207
f 222/278/222 87/108/87 220/276/220 219/275/219
f 90/111/90 199/248/199 220/276/220 87/108/87
f 116/150/116 121/149/121 222/278/222 223/279/223
f 88/109/88 87/108/87 222/278/222 121/149/121
f 224/280/224 223/279/223 222/278/222 219/275/219
f 19/22/19 223/279/223 224/280/224 24/31/24
f 221/277/221 86/107/86 224/280/224 219/275/219
f 85/105/85 24/31/24 224/280/224 86/107/86
f 16/19/16 116/150/116 223/279/223 19/22/19
f 84/103/84 86/107/86 221/277/221 96/117/96
f 225/281/225 63/79/63 203/254/203 204/255/204
f 130/161/130 129/160/129 177/214/177 174/210/174
f 127/158/127 130/161/130 171/207/171 170/206/170
f 226/282/226 227/283/227 170/206/170 168/204/168
f 124/155/124 127/158/127 170/206/170 227/283/227
f 228/284/228 229/285/229 227/283/227 226/282/226
f 230/286/230 124/155/124 227/283/227 229/285/229
f 231/287/231 232/288/232 230/286/230 229/285/229
f 233/289/233 234/290/234 230/286/230 232/288/232
f 125/156/125 124/155/124 230/286/230 234/290/234
f 148/182/148 149/185/149 234/290/234 233/289/233
f 128/159/128 125/156/125 234/290/234 149/185/149
f 105/126/105 106/127/106 233/289/233 232/288/232
f 107/128/107 148/182/148 233/289/233 106/127/106
f 235/291/235 105/126/105 232/288/232 231/287/231
f 236/292/236 237/293/237 235/291/235 231/287/231
f 238/294/238 239/295/239 235/291/235 237/293/237
f 104/125/104 105/126/105 235/291/235 239/295/239
f 240/296/240 241/297/241 239/295/239 238/294/238
f 101/122/101 104/125/104 239/295/239 241/297/241
f 242/298/242 108/129/108 241/297/241 240/296/240
f 111/132/111 101/122/101 241/297/241 108/129/108
f 243/299/243 244/300/244 242/298/242 240/296/240
f 245/301/245 246/302/246 242/298/242 244/300/244
f 109/130/109 108/129/108 242/298/242 246/302/246
f 247/303/247 248/304/248 246/305/246 245/306/245
f 112/133/112 109/136/109 246/305/246 248/304/248
f 249/307/249 250/308/250 248/304/248 247/303/247
f 251/309/251 112/133/112 248/304/248 250/308/250
f 252/310/252 253/311/253 251/309/251 250/308/250
f 144/178/144 254/312/254 251/309/251 253/311/253
f 113/134/113 112/133/112 251/309/251 254/312/254
f 147/181/147 255/313/255 254/312/254 144/178/144
f 114/137/114 113/134/113 254/312/254 255/313/255
f 148/182/148 107/128/107 255/314/255 147/183/147
f 102/123/102 114/315/114 255/314/255 107/128/107
f 98/119/98 97/118/97 253/311/253 252/310/252
f 145/179/145 144/178/144 253/311/253 97/118/97
f 249/307/249 256/316/256 252/310/252 250/308/250
f 225/281/225 98/119/98 252/310/252 256/316/256
f 61/77/61 62/78/62 256/316/256 249/307/249
f 63/79/63 225/281/225 256/316/256 62/78/62
f 257/317/257 61/77/61 249/307/249 247/303/247
f 39/49/39 38/46/38 257/317/257 258/318/258
f 37/45/37 61/77/61 257/317/257 38/46/38
f 245/306/245 258/318/258 257/317/257 247/303/247
f 40/52/40 39/51/39 258/319/258 259/320/259
f 244/300/244 259/320/259 258/319/258 245/301/245
f 43/55/43 40/52/40 259/320/259 260/321/260
f 243/299/243 260/321/260 259/320/259 244/300/244
f 261/322/261 43/55/43 260/321/260 262/323/262
f 263/324/263 262/323/262 260/321/260 243/299/243
f 264/325/264 262/323/262 263/324/263 265/326/265
f 240/296/240 238/294/238 263/324/263 243/299/243
f 237/293/237 265/326/265 263/324/263 238/294/238
f 266/327/266 267/328/267 264/325/264 268/329/268
f 261/322/261 262/323/262 264/325/264 267/328/267
f 269/330/269 268/329/268 264/325/264 265/326/265
f 270/331/270 268/329/268 269/330/269 271/332/271
f 237/293/237 236/292/236 269/330/269 265/326/265
f 228/284/228 271/332/271 269/330/269 236/292/236
f 161/197/161 272/333/272 270/331/270 162/198/162
f 266/327/266 268/329/268 270/331/270 272/333/272
f 273/334/273 162/198/162 270/331/270 271/332/271
f 163/199/163 162/198/162 273/334/273 166/202/166
f 228/284/228 226/282/226 273/334/273 271/332/271
f 168/204/168 166/202/166 273/334/273 226/282/226
f 49/61/49 48/60/48 272/333/272 161/197/161
f 274/335/274 266/327/266 272/333/272 48/60/48
f 45/57/45 275/336/275 274/335/274 48/60/48
f 27/35/27 26/34/26 274/335/274 275/336/275
f 267/328/267 266/327/266 274/335/274 26/34/26
f 44/56/44 276/337/276 275/336/275 45/57/45
f 28/36/28 27/35/27 275/336/275 276/337/276
f 33/41/33 30/38/30 276/337/276 44/56/44
f 29/37/29 28/36/28 276/337/276 30/38/30
f 25/33/25 261/322/261 267/328/267 26/34/26
f 42/54/42 43/55/43 261/322/261 25/33/25
f 229/285/229 228/284/228 236/292/236 231/287/231
f 22/27/22 277/338/277 165/201/165 21/28/21
f 70/87/70 160/196/160 165/201/165 277/338/277
f 20/167/20 21/28/21 165/201/165 133/164/133
f 76/93/76 75/92/75 277/338/277 22/27/22
f 69/86/69 70/87/70 277/338/277 75/92/75
f 143/177/143 142/176/142 156/192/156 157/193/157
f 97/118/97 100/121/100 150/186/150 145/179/145
f 120/147/120 278/339/278 132/163/132 119/148/119
f 13/340/13 17/24/17 132/163/132 278/339/278
f 10/10/10 11/11/11 278/339/278 120/147/120
f 8/8/8 13/340/13 278/339/278 11/11/11
f 91/112/91 88/109/88 121/149/121 122/152/122
f 14/341/14 10/10/10 120/147/120 15/140/15
f 101/122/101 111/132/111 114/315/114 102/123/102
f 23/32/23 24/31/24 85/105/85 79/104/79
f 22/27/22 23/30/23 79/98/79 76/93/76
f 68/85/68 69/86/69 75/92/75 72/89/72
f 28/36/28 29/37/29 42/54/42 25/33/25
f 6/6/6 10/10/10 14/341/14 5/5/5
f 204/255/204 99/120/99 98/119/98 225/281/225
f 81/100/81 78/97/78 73/96/73 80/106/80
