# split from a merged terrain OBJ by scripts/split-terrain-obj-parts.py
o part-079
v 0.522162 0.941901 -0.041386
v 0.521698 0.941720 -0.040091
v 0.522284 0.940935 -0.040040
v 0.523064 0.940862 -0.041287
v 0.520523 0.941557 -0.039924
v 0.520973 0.940427 -0.040382
v 0.521786 0.939756 -0.041511
v 0.520644 0.942252 -0.041228
v 0.521914 0.939233 -0.045048
v 0.520892 0.939298 -0.046699
v 0.522732 0.940094 -0.047041
v 0.523112 0.940218 -0.045305
v 0.522438 0.941711 -0.045333
v 0.521835 0.940945 -0.047247
v 0.520306 0.941125 -0.047019
v 0.520702 0.942701 -0.044829
v 0.520276 0.939543 -0.042224
v 0.521046 0.939120 -0.043246
v 0.522309 0.939385 -0.043152
v 0.519051 0.939362 -0.043281
v 0.520344 0.939082 -0.044358
v 0.518987 0.941633 -0.041473
v 0.519196 0.941127 -0.040435
v 0.518040 0.940597 -0.042467
v 0.519447 0.940231 -0.041127
v 0.520949 0.942680 -0.042964
v 0.519372 0.942312 -0.042684
v 0.519083 0.942357 -0.044000
v 0.517887 0.939647 -0.044639
v 0.517830 0.941244 -0.044630
v 0.518906 0.941388 -0.045917
v 0.519235 0.939203 -0.045889
v 0.522555 0.941952 -0.043285
v 0.523371 0.940416 -0.043201
vt 0.688184 0.091364
vt 0.688054 0.090819
vt 0.688452 0.090624
vt 0.688889 0.091009
vt 0.687703 0.090532
vt 0.688230 0.090103
vt 0.689067 0.089348
vt 0.687372 0.091210
vt 0.689974 0.093174
vt 0.689281 0.095005
vt 0.688897 0.094046
vt 0.689201 0.093058
vt 0.688276 0.093071
vt 0.688203 0.094006
vt 0.687466 0.094399
vt 0.686940 0.093072
vt 0.006111 0.037222
vt 0.006643 0.037949
vt 0.005903 0.038190
vt 0.005282 0.037729
vt 0.006803 0.038734
vt 0.005922 0.038941
vt 0.005081 0.038750
vt 0.686778 0.090547
vt 0.687197 0.090204
vt 0.686162 0.089537
vt 0.687724 0.089769
vt 0.687338 0.092106
vt 0.686555 0.091648
vt 0.686125 0.092473
vt 0.007481 0.037668
vt 0.007872 0.038748
vt 0.006885 0.039585
vt 0.007462 0.039963
vt 0.007686 0.040861
vt 0.008515 0.040021
vt 0.006258 0.040266
vt 0.687794 0.095341
vt 0.686090 0.094860
vt 0.005004 0.039920
vt 0.688477 0.092131
vt 0.689565 0.091639
vt 0.690172 0.091242
vt 0.688307 0.089017
vn 0.5456 0.7979 0.2563
vn 0.2979 0.5662 0.7686
vn 0.5652 -0.1595 0.8094
vn 0.9055 -0.0718 0.4183
vn -0.2100 0.3405 0.9165
vn -0.0022 -0.6662 0.7458
vn 0.2698 -0.8676 0.4176
vn -0.0674 0.9427 0.3266
vn 0.3587 -0.9296 -0.0844
vn -0.0603 -0.7541 -0.6540
vn 0.6861 -0.2590 -0.6798
vn 0.9467 -0.2269 -0.2288
vn 0.6205 0.7229 -0.3038
vn 0.2856 0.3635 -0.8868
vn -0.2612 0.3561 -0.8972
vn 0.0325 0.9589 -0.2819
vn -0.1580 -0.9188 0.3618
vn 0.0386 -0.9839 0.1744
vn 0.4345 -0.8870 0.1565
vn -0.4454 -0.8619 0.2425
vn -0.0440 -0.9983 0.0375
vn -0.7080 0.5686 0.4189
vn -0.6156 0.0953 0.7823
vn -0.9313 -0.0991 0.3505
vn -0.4665 -0.6469 0.6033
vn 0.1105 0.9880 0.1076
vn -0.4798 0.8592 0.1778
vn -0.4938 0.8671 -0.0648
vn -0.7918 -0.5808 -0.1890
vn -0.9434 0.2687 -0.1945
vn -0.6386 0.4258 -0.6410
vn -0.4606 -0.7277 -0.5082
vn 0.6749 0.7379 0.0041
vn 0.9813 -0.1754 0.0795
f 1/1/1 2/2/2 3/3/3 4/4/4
f 5/5/5 6/6/6 3/3/3 2/2/2
f 7/7/7 4/4/4 3/3/3 6/6/6
f 8/8/8 5/5/5 2/2/2 1/1/1
f 9/9/9 10/10/10 11/11/11 12/12/12
f 13/13/13 12/12/12 11/11/11 14/14/14
f 15/15/15 14/14/14 11/11/11 10/10/10
f 16/16/16 13/13/13 14/14/14 15/15/15
f 7/17/7 17/18/17 18/19/18 19/20/19
f 20/21/20 21/22/21 18/19/18 17/18/17
f 9/23/9 19/20/19 18/19/18 21/22/21
f 8/8/8 22/24/22 23/25/23 5/5/5
f 24/26/24 25/27/25 23/25/23 22/24/22
f 6/6/6 5/5/5 23/25/23 25/27/25
f 8/8/8 26/28/26 27/29/27 22/24/22
f 16/16/16 28/30/28 27/29/27 26/28/26
f 24/26/24 22/24/22 27/29/27 28/30/28
f 17/18/17 25/31/25 24/32/24 20/21/20
f 29/33/29 20/21/20 24/32/24 30/34/30
f 31/35/31 30/34/30 24/32/24 28/36/28
f 32/37/32 29/33/29 30/34/30 31/35/31
f 21/22/21 20/21/20 29/33/29 32/37/32
f 15/15/15 10/10/10 32/38/32 31/39/31
f 9/23/9 21/22/21 32/37/32 10/40/10
f 16/16/16 15/15/15 31/39/31 28/30/28
f 1/1/1 33/41/33 26/28/26 8/8/8
f 13/13/13 16/16/16 26/28/26 33/41/33
f 4/4/4 34/42/34 33/41/33 1/1/1
f 12/12/12 13/13/13 33/41/33 34/42/34
f 7/7/7 19/43/19 34/42/34 4/4/4
f 9/9/9 12/12/12 34/42/34 19/43/19
f 7/7/7 6/6/6 25/27/25 17/44/17
