# split from a merged terrain OBJ by scripts/split-terrain-obj-parts.py
o part-016
v -0.013339 1.148092 0.068193
v -0.012613 1.151032 0.071512
v -0.018167 1.147992 0.072839
v -0.018833 1.149359 0.069212
v -0.018614 1.157422 0.065467
v -0.020073 1.154510 0.062430
v -0.009723 1.150187 0.065704
v -0.007437 1.152851 0.069023
v -0.010301 1.153904 0.056799
v -0.006828 1.159089 0.063502
v -0.013310 1.159725 0.067190
v -0.016539 1.152475 0.059217
v 0.044764 1.164264 -0.058804
v 0.031268 1.163435 -0.069959
v 0.036134 1.174010 -0.070704
v 0.048493 1.172236 -0.059441
v 0.022290 1.188984 -0.074488
v 0.036788 1.185983 -0.068379
v 0.022156 1.178637 -0.075133
v 0.049923 1.184137 -0.059039
v 0.056212 1.210219 -0.026917
v 0.056576 1.220481 -0.029390
v 0.054497 1.223796 -0.019415
v 0.053656 1.211628 -0.013416
v 0.041750 1.231714 -0.000589
v 0.046892 1.222376 0.003217
v 0.048781 1.230937 -0.024062
v 0.046032 1.212501 0.004651
v 0.053505 1.217511 -0.042479
v 0.053889 1.226141 -0.043502
v 0.057435 1.228678 -0.032601
v 0.048495 1.230029 -0.041058
v 0.038744 1.230972 -0.038628
v 0.037107 1.232112 -0.024393
v 0.030735 1.233419 -0.006391
v 0.053633 1.202160 0.011071
v 0.043167 1.205916 0.027192
v 0.049266 1.194177 0.031135
v 0.058038 1.192591 0.014824
v 0.057681 1.180821 0.015356
v 0.051331 1.180543 0.029864
v 0.035193 1.204345 0.037951
v 0.042072 1.195303 0.040291
v 0.044906 1.179035 0.038397
v 0.063898 1.164217 -0.027279
v 0.060405 1.161758 -0.045219
v 0.061381 1.169569 -0.046480
v 0.066053 1.173896 -0.026926
v 0.065389 1.186030 -0.027026
v 0.059696 1.184377 -0.044542
v 0.059593 1.154557 -0.027882
v 0.051086 1.156842 -0.043630
v 0.051948 1.167334 0.025170
v 0.054847 1.156556 0.021782
v 0.053790 1.156562 0.012379
v 0.056031 1.168861 0.014124
v 0.062539 1.148337 0.022788
v 0.059106 1.150674 0.017103
v 0.063846 1.166831 -0.004834
v 0.060763 1.154835 -0.006012
v 0.053353 1.147601 0.016998
v 0.050873 1.150151 0.007359
v 0.039156 1.157609 -0.055600
v 0.063683 1.140331 0.020360
v 0.046384 1.149774 0.028991
v 0.042299 1.148379 0.024810
v 0.053370 1.140067 0.025505
v 0.057857 1.141454 0.026290
v 0.041147 1.149507 0.014979
v 0.051347 1.153671 0.026963
v 0.058317 1.146955 0.026201
v 0.043086 1.228930 -0.053967
v 0.037589 1.230036 -0.048790
v 0.027098 1.231916 -0.039212
v 0.028918 1.230676 -0.049832
v 0.031177 1.229532 -0.057658
v 0.040439 1.150057 0.004636
v 0.030032 1.198018 0.040896
v 0.033890 1.192873 0.043568
v 0.035452 1.178293 0.042141
v 0.030018 1.180807 0.038492
v 0.035262 1.221464 0.020942
v 0.027118 1.220090 0.033691
v 0.026246 1.209967 0.035651
v 0.034955 1.212165 0.021962
v 0.037292 1.207304 0.024197
v 0.030334 1.206560 0.035695
v 0.021108 1.219789 0.042949
v 0.022035 1.212897 0.047418
v 0.026851 1.200325 0.038436
v 0.024277 1.200821 0.039759
v 0.023495 1.201303 0.046408
v 0.022462 1.183599 0.061731
v 0.021586 1.179323 0.052886
v 0.022577 1.187101 0.049734
v 0.023058 1.191410 0.060872
v 0.022533 1.202621 0.062366
v 0.023338 1.201544 0.054092
v 0.022308 1.188080 0.041203
v 0.018504 1.173113 0.031140
v 0.019403 1.172942 0.040587
v 0.019663 1.172725 0.046159
v 0.020448 1.212665 0.056354
v 0.012018 1.216068 0.058730
v 0.009960 1.215812 0.048926
v 0.013787 1.219904 0.042673
v 0.007316 1.234769 0.026751
v 0.003144 1.227452 0.030371
v 0.011811 1.227069 0.039537
v 0.018096 1.230389 0.038245
v 0.002602 1.218190 0.031001
v 0.030005 1.160051 0.031205
v 0.039055 1.160287 0.035638
v 0.026155 1.185351 0.035261
v 0.024395 1.168521 0.027801
v 0.021071 1.161503 0.018611
v 0.027277 1.151898 0.018173
v 0.023224 1.155193 -0.067931
v 0.023072 1.156986 -0.073227
v 0.027684 1.157183 -0.063873
v 0.018346 1.159663 -0.075671
v 0.023475 1.166967 -0.075985
v 0.021608 1.150148 -0.058645
v 0.018328 1.150161 -0.064631
v 0.017853 1.149889 -0.070348
v 0.019269 1.212651 0.063876
v 0.019239 1.216208 0.069440
v 0.020134 1.203547 0.068303
v 0.012674 1.216579 0.066048
v 0.012980 1.211996 0.066826
v 0.014348 1.203166 0.067753
v 0.007582 1.211545 0.062109
v 0.005516 1.164190 -0.073790
v 0.006994 1.173158 -0.073508
v 0.003849 1.152403 -0.069168
v 0.003567 1.155097 -0.073991
v 0.017378 1.149616 -0.076070
v 0.019283 1.171495 0.056326
v 0.016501 1.165308 0.047879
v 0.015659 1.162904 0.040106
v 0.014711 1.193539 0.067931
v 0.008054 1.194183 0.063000
v 0.004549 1.183676 0.062639
v 0.013839 1.184910 0.067423
v 0.000789 1.194932 0.055759
v -0.002959 1.189348 0.056841
v -0.012524 1.187269 0.061673
v -0.007896 1.178486 0.066701
v -0.006606 1.168912 0.065122
v 0.003964 1.171298 0.061789
v 0.013817 1.177127 0.066684
v 0.021804 1.209069 -0.059617
v 0.021272 1.199097 -0.060619
v 0.008753 1.201484 -0.058724
v 0.008707 1.211039 -0.058698
v 0.022528 1.197186 -0.069859
v 0.008414 1.199581 -0.069836
v -0.003306 1.200698 -0.070436
v -0.007215 1.202134 -0.062417
v -0.011229 1.203580 -0.054214
v 0.003229 1.203415 -0.048672
v 0.003373 1.213118 -0.048311
v 0.007441 1.191869 -0.072325
v -0.004668 1.193521 -0.069584
v -0.009544 1.194670 -0.060895
v -0.005786 1.235695 -0.011243
v -0.015549 1.234452 -0.017920
v -0.020427 1.234719 -0.011227
v -0.013674 1.236023 -0.003811
v -0.020244 1.226305 -0.019910
v -0.025154 1.228801 -0.010596
v -0.020500 1.232511 0.001469
v -0.000254 1.160733 0.056949
v 0.009532 1.159187 0.053381
v 0.013006 1.166303 0.060853
v 0.011770 1.152075 -0.052980
v 0.019830 1.151240 -0.043728
v 0.006693 1.154168 -0.032537
v 0.000025 1.153887 -0.047812
v -0.012908 1.153796 -0.042964
v -0.009570 1.153723 -0.030497
v 0.010161 1.160068 -0.011274
v 0.004897 1.158143 -0.011491
v 0.017573 1.153027 -0.022732
v 0.029635 1.150311 -0.032289
v -0.008321 1.154436 -0.013334
v 0.012448 1.168509 0.000191
v 0.013767 1.167825 0.004118
v 0.007982 1.173774 0.007645
v 0.007113 1.172833 0.002396
v 0.007113 1.168139 -0.003296
v 0.005347 1.165861 0.003451
v 0.016024 1.168226 0.010270
v 0.011762 1.170891 0.011621
v 0.007650 1.164447 0.010777
v -0.018318 1.176435 0.066108
v -0.029612 1.174865 0.057923
v -0.025920 1.164246 0.059933
v -0.015343 1.167542 0.066474
v -0.037002 1.171682 0.040446
v -0.036658 1.164348 0.041311
v -0.027489 1.156160 0.053991
v -0.009566 1.154006 -0.000537
v 0.002580 1.157653 0.000015
v 0.010767 1.166959 -0.006037
v -0.002938 1.155752 0.049790
v -0.022397 1.214418 -0.019029
v -0.027476 1.220043 -0.008370
v -0.038443 1.204863 -0.016564
v -0.032671 1.209805 -0.022512
v -0.021830 1.202630 -0.021402
v -0.033701 1.210797 -0.006912
v -0.014364 1.207486 -0.027671
v -0.012983 1.215288 -0.028923
v -0.011368 1.225808 -0.029139
v -0.005649 1.185681 -0.069608
v -0.015878 1.186330 -0.058618
v -0.006703 1.176385 -0.069776
v -0.018011 1.176973 -0.062353
v -0.033951 1.175829 -0.051932
v -0.032077 1.184409 -0.049456
v -0.028403 1.187813 -0.044783
v -0.019447 1.189306 -0.048404
v -0.014059 1.195948 -0.051646
v -0.011402 1.217172 0.015205
v -0.023104 1.215598 0.003410
v -0.028830 1.211408 0.007246
v -0.015862 1.212709 0.018885
v -0.020317 1.207165 0.023462
v -0.031212 1.200284 0.014592
v -0.037503 1.203277 0.001261
v -0.018538 1.205699 -0.039256
v -0.022320 1.199258 -0.029321
v -0.022580 1.189096 -0.021296
v -0.032612 1.189624 -0.022786
v -0.022200 1.153864 0.047834
v -0.015054 1.153798 0.043890
v -0.005779 1.154274 0.039050
v -0.039645 1.192534 0.010455
v -0.021386 1.224142 0.002856
v -0.044036 1.209153 -0.006806
v -0.042788 1.197602 -0.003123
v -0.030402 1.191451 0.019055
v -0.026165 1.188326 0.027691
v -0.020977 1.189086 0.027541
v -0.021524 1.197522 0.024027
v -0.008092 1.201958 0.040662
v -0.008288 1.193252 0.041205
v -0.012813 1.188778 0.043790
v -0.018767 1.197449 -0.040555
v -0.023315 1.190902 -0.036620
v -0.031653 1.188619 -0.036557
v -0.032083 1.156280 -0.051688
v -0.028089 1.154148 -0.047923
v -0.036896 1.153355 -0.046768
v -0.042448 1.155670 -0.049718
v -0.041244 1.156079 -0.040975
v -0.035970 1.154063 -0.039981
v -0.039295 1.162237 -0.048108
v -0.028177 1.184614 0.053902
v -0.036210 1.182449 0.038023
v -0.020500 1.188053 0.048574
v -0.032144 1.187707 0.033206
v -0.038130 1.188875 0.021984
v -0.047788 1.184225 0.027470
v -0.050691 1.173361 0.030122
v -0.044448 1.192976 -0.011100
v -0.040425 1.185203 -0.039564
v -0.045942 1.187884 -0.028331
v -0.054481 1.186361 -0.016283
v -0.048041 1.188844 0.003193
v -0.051254 1.185693 0.015841
v -0.056732 1.186223 0.010394
v -0.041935 1.156867 -0.032908
v -0.044719 1.163621 -0.035839
v -0.043736 1.169559 -0.038057
v -0.035136 1.169262 -0.051032
v -0.060727 1.183705 -0.005118
v -0.055051 1.188855 -0.002024
v -0.019780 1.153860 0.030407
v -0.029690 1.154868 0.034724
v -0.040926 1.154592 0.022530
v -0.024134 1.153951 0.015662
v -0.035306 1.158365 0.038469
v -0.044101 1.158274 0.029816
v -0.054158 1.157756 0.016238
v -0.043871 1.154561 0.011135
v -0.054687 1.155520 0.019216
v -0.027163 1.154134 0.000069
v -0.050315 1.162918 0.029524
v -0.053722 1.176237 0.017248
v -0.054652 1.166865 0.018028
v -0.062910 1.186628 0.006466
v -0.063266 1.179964 0.004959
v -0.058368 1.178142 0.010552
v -0.053154 1.155101 -0.005522
v -0.048048 1.154529 0.002361
v -0.058849 1.155751 0.009672
v -0.060819 1.153480 0.000414
v -0.070702 1.151085 0.004252
v -0.066707 1.151626 0.009909
v -0.058841 1.168311 0.010664
v -0.069729 1.153231 0.013370
v -0.066571 1.160775 0.008248
v -0.063832 1.169389 0.003484
v -0.060244 1.174989 -0.005845
v -0.059475 1.167784 -0.007258
v -0.064214 1.163125 -0.000010
v -0.070439 1.158856 0.004231
v -0.074483 1.151063 0.007044
v 0.015650 1.162599 0.031792
v 0.022300 1.188246 0.036225
v 0.022046 1.173915 0.026256
v 0.018929 1.169617 0.017720
v 0.015237 1.170110 0.018505
v 0.013398 1.162732 0.019575
v 0.033288 1.224488 -0.060258
v 0.019636 1.225797 -0.060392
v 0.020575 1.230613 -0.056135
v 0.007124 1.229135 -0.055662
v 0.016666 1.231522 -0.051040
v -0.001623 1.214906 0.035228
v -0.007464 1.210255 0.039506
v 0.000802 1.211612 0.054858
v -0.020908 1.185306 0.062496
v -0.015582 1.204768 -0.045605
v -0.002780 1.205443 -0.037160
v -0.022852 1.154117 -0.015935
v -0.035029 1.154440 -0.020236
v -0.038486 1.154426 -0.008531
v -0.009803 1.153811 0.012168
v 0.005484 1.154943 0.022145
v -0.007898 1.153739 0.026210
v 0.001909 1.157178 0.010172
v 0.006877 1.155296 0.034648
v 0.007075 1.157030 0.044263
v -0.047262 1.155717 -0.014552
v -0.043725 1.156317 -0.024149
v -0.034539 1.154572 -0.030458
v -0.022835 1.153822 -0.029146
v -0.025640 1.153808 -0.040519
v -0.015754 1.154270 -0.050678
v -0.003865 1.154646 -0.056048
v -0.018995 1.156953 -0.057324
v -0.007590 1.155770 -0.063542
v 0.006722 1.152457 -0.060905
v -0.021632 1.161832 -0.059890
v -0.009493 1.159415 -0.068766
v -0.020110 1.168844 -0.061928
v -0.007838 1.167455 -0.070170
v -0.052800 1.162837 -0.017516
v -0.048259 1.163697 -0.026637
v -0.054379 1.171179 -0.017052
v -0.048939 1.171466 -0.027551
v -0.054844 1.178730 -0.016706
v -0.048617 1.179196 -0.028396
v -0.042804 1.176681 -0.039130
v -0.058095 1.160982 -0.009161
v -0.063657 1.158159 -0.002249
v -0.070380 1.156740 0.001048
v -0.001426 1.214621 -0.037968
v -0.000987 1.224897 -0.038959
v 0.003165 1.223467 -0.047775
v 0.000966 1.233215 -0.037670
v 0.005036 1.232981 -0.046241
v 0.008663 1.220363 -0.058672
v 0.021461 1.218033 -0.060017
v 0.034839 1.208380 -0.058727
v 0.034374 1.216664 -0.059563
v 0.046857 1.200229 -0.054017
v 0.035199 1.200020 -0.059131
v 0.046852 1.208519 -0.053691
v 0.047117 1.216568 -0.054417
v 0.053348 1.208934 -0.041709
v 0.047237 1.224152 -0.056048
v 0.056489 1.201165 -0.025895
v 0.053405 1.200434 -0.041524
v 0.061975 1.195582 -0.026090
v 0.057890 1.195022 -0.043563
v 0.049946 1.193879 -0.057495
v 0.036855 1.195563 -0.065202
v 0.064476 1.189398 -0.005854
v 0.060961 1.198742 -0.008089
v 0.052753 1.202880 -0.010967
v 0.046872 1.204766 0.006984
v 0.064434 1.178422 -0.004862
v 0.010655 1.233488 -0.032996
v 0.014799 1.232557 -0.042358
v 0.023433 1.233011 -0.028450
v 0.015882 1.233354 -0.013627
v 0.002594 1.234681 -0.021358
v 0.007475 1.235138 -0.001014
v -0.007084 1.234008 -0.027116
v 0.013903 1.235251 0.020188
v 0.021800 1.234635 0.009503
v -0.000368 1.235600 0.007664
v 0.025343 1.231365 0.030302
v 0.032720 1.232080 0.017703
v -0.006834 1.234634 0.013754
v -0.010297 1.226882 0.015848
v 0.007952 1.203493 0.062829
v 0.000490 1.203600 0.055222
v 0.018424 1.159210 0.009687
v 0.015980 1.159007 0.001407
v 0.024780 1.152416 -0.003039
v 0.026143 1.151668 0.007209
v 0.039771 1.149721 -0.007687
v 0.022487 1.152495 -0.013268
v 0.036452 1.149796 -0.019830
v 0.049693 1.148450 -0.025497
v 0.053173 1.148359 -0.007780
v 0.041967 1.150138 -0.039580
v 0.033092 1.148630 -0.051770
v 0.013566 1.159243 -0.005713
v 0.006923 1.182960 -0.072902
v 0.020604 1.176219 0.063397
v 0.015689 1.172001 0.065562
v 0.020547 1.184911 0.068865
v 0.020963 1.193009 0.068552
v 0.020462 1.179407 0.068352
v 0.045973 1.164152 0.031862
vt 0.539092 0.845185
vt 0.540709 0.846150
vt 0.538996 0.847274
vt 0.537698 0.847135
vt 0.538053 0.850311
vt 0.535011 0.847247
vt 0.539636 0.843400
vt 0.542275 0.844492
vt 0.538216 0.839437
vt 0.545632 0.842765
vt 0.542765 0.849246
vt 0.535179 0.843541
vt 0.538706 0.653670
vt 0.546851 0.657400
vt 0.541731 0.663431
vt 0.534846 0.658799
vt 0.546258 0.674540
vt 0.538652 0.670632
vt 0.548719 0.668675
vt 0.530501 0.666247
vt 0.510852 0.676331
vt 0.510166 0.680203
vt 0.503647 0.680390
vt 0.503682 0.675449
vt 0.127683 0.285594
vt 0.121817 0.280664
vt 0.133758 0.274683
vt 0.139646 0.279469
vt 0.493724 0.672588
vt 0.492252 0.677226
vt 0.517893 0.681815
vt 0.516426 0.685111
vt 0.508453 0.683342
vt 0.149662 0.278820
vt 0.143597 0.274079
vt 0.150551 0.274940
vt 0.503312 0.685076
vt 0.150117 0.284378
vt 0.142310 0.286391
vt 0.133473 0.291569
vt 0.922272 0.616989
vt 0.935273 0.617999
vt 0.933596 0.624347
vt 0.923150 0.623985
vt 0.923228 0.630889
vt 0.932594 0.631243
vt 0.943094 0.621562
vt 0.940720 0.626016
vt 0.939172 0.633078
vt 0.903357 0.650502
vt 0.894136 0.650787
vt 0.893692 0.647646
vt 0.902572 0.642705
vt 0.901532 0.634024
vt 0.893349 0.636969
vt 0.521496 0.664281
vt 0.527354 0.653822
vt 0.530901 0.648081
vt 0.533358 0.636477
vt 0.537897 0.643329
vt 0.528400 0.639340
vt 0.929990 0.637456
vt 0.929255 0.642531
vt 0.922254 0.646551
vt 0.923425 0.638313
vt 0.928744 0.646748
vt 0.925709 0.647751
vt 0.912987 0.643348
vt 0.914362 0.651600
vt 0.927003 0.653285
vt 0.922474 0.653780
vt 0.543855 0.648173
vt 0.929298 0.649206
vt 0.937009 0.646962
vt 0.937771 0.649958
vt 0.932990 0.650714
vt 0.932011 0.649028
vt 0.935649 0.655619
vt 0.933854 0.643955
vt 0.931682 0.646727
vt 0.157506 0.280080
vt 0.155507 0.283751
vt 0.152284 0.291010
vt 0.157470 0.288445
vt 0.160853 0.285974
vt 0.927353 0.658938
vt 0.948376 0.626374
vt 0.945996 0.628144
vt 0.945362 0.634952
vt 0.949248 0.635365
vt 0.113504 0.290525
vt 0.108161 0.298395
vt 0.103118 0.298181
vt 0.108676 0.289361
vt 0.937686 0.615104
vt 0.937918 0.612012
vt 0.947215 0.619236
vt 0.945181 0.620273
vt 0.105221 0.304604
vt 0.101208 0.305557
vt 0.949752 0.625066
vt 0.951306 0.625145
vt 0.097223 0.300197
vt 0.098533 0.297591
vt 0.560864 0.825945
vt 0.555562 0.822622
vt 0.558058 0.818766
vt 0.564537 0.823816
vt 0.571009 0.821872
vt 0.566976 0.818644
vt 0.094466 0.302350
vt 0.090477 0.298644
vt 0.092106 0.295259
vt 0.084551 0.290436
vt 0.082878 0.293109
vt 0.549683 0.821416
vt 0.547503 0.818694
vt 0.096613 0.307412
vt 0.096513 0.312336
vt 0.102237 0.312902
vt 0.106022 0.309793
vt 0.118712 0.308399
vt 0.115745 0.312735
vt 0.110179 0.308721
vt 0.111486 0.305046
vt 0.112313 0.316942
vt 0.946528 0.647195
vt 0.941447 0.642882
vt 0.952698 0.634517
vt 0.952046 0.646427
vt 0.949373 0.653669
vt 0.942988 0.655069
vt 0.552980 0.652414
vt 0.552892 0.655620
vt 0.550250 0.650933
vt 0.554838 0.658982
vt 0.550639 0.661802
vt 0.557228 0.646863
vt 0.558296 0.649878
vt 0.557998 0.652046
vt 0.577106 0.821115
vt 0.577983 0.825742
vt 0.571831 0.827180
vt 0.092703 0.312173
vt 0.091228 0.314090
vt 0.089777 0.309834
vt 0.092711 0.307967
vt 0.571996 0.831994
vt 0.576900 0.830793
vt 0.094615 0.315790
vt 0.561327 0.664318
vt 0.558553 0.668731
vt 0.565810 0.657086
vt 0.564409 0.659783
vt 0.557798 0.654775
vt 0.553032 0.826615
vt 0.546923 0.825198
vt 0.542684 0.822865
vt 0.085416 0.321798
vt 0.089219 0.323747
vt 0.086941 0.328939
vt 0.083071 0.325321
vt 0.093745 0.326817
vt 0.092248 0.330471
vt 0.551016 0.858019
vt 0.550187 0.851056
vt 0.557554 0.840591
vt 0.556222 0.850513
vt 0.548613 0.846250
vt 0.551929 0.838222
vt 0.557981 0.834169
vt 0.561951 0.836008
vt 0.540371 0.689113
vt 0.542773 0.684709
vt 0.549561 0.689760
vt 0.546332 0.694053
vt 0.544443 0.679559
vt 0.551539 0.683044
vt 0.557342 0.684390
vt 0.559625 0.688308
vt 0.562058 0.692503
vt 0.554016 0.695303
vt 0.550704 0.699449
vt 0.553695 0.678662
vt 0.560209 0.681624
vt 0.563783 0.685770
vt 0.141430 0.312555
vt 0.146014 0.317968
vt 0.142651 0.321205
vt 0.138087 0.317470
vt 0.561944 0.718247
vt 0.564555 0.721763
vt 0.561250 0.725297
vt 0.558437 0.722176
vt 0.135355 0.321822
vt 0.141381 0.325657
vt 0.544690 0.837077
vt 0.545539 0.831148
vt 0.551547 0.831852
vt 0.564693 0.647176
vt 0.560566 0.641414
vt 0.570237 0.642370
vt 0.574032 0.651053
vt 0.493386 0.805341
vt 0.495964 0.796777
vt 0.504907 0.800227
vt 0.499934 0.808280
vt 0.514630 0.804663
vt 0.513512 0.808050
vt 0.510460 0.796769
vt 0.918807 0.674960
vt 0.927916 0.672234
vt 0.928429 0.678992
vt 0.919206 0.681699
vt 0.507874 0.814035
vt 0.949419 0.663009
vt 0.949996 0.661347
vt 0.955920 0.661568
vt 0.953458 0.663172
vt 0.521157 0.806115
vt 0.525314 0.804973
vt 0.528232 0.806174
vt 0.523264 0.809898
vt 0.952317 0.657995
vt 0.955423 0.658494
vt 0.526621 0.812888
vt 0.529948 0.809905
vt 0.544802 0.855158
vt 0.538291 0.857799
vt 0.536471 0.853482
vt 0.543871 0.851741
vt 0.528369 0.856407
vt 0.524638 0.850505
vt 0.530484 0.847316
vt 0.513306 0.819044
vt 0.518366 0.813072
vt 0.519366 0.804122
vt 0.538856 0.834693
vt 0.569922 0.714591
vt 0.567230 0.721083
vt 0.139325 0.345094
vt 0.142531 0.342109
vt 0.144477 0.346100
vt 0.143013 0.349576
vt 0.568646 0.722209
vt 0.570046 0.719347
vt 0.565710 0.706651
vt 0.571548 0.707790
vt 0.562351 0.709751
vt 0.557568 0.713464
vt 0.562729 0.678009
vt 0.569732 0.683231
vt 0.565763 0.673549
vt 0.572457 0.677050
vt 0.582204 0.680254
vt 0.579630 0.685330
vt 0.577693 0.689096
vt 0.572242 0.689023
vt 0.567002 0.690504
vt 0.121980 0.324300
vt 0.129922 0.330226
vt 0.127517 0.333751
vt 0.119566 0.327678
vt 0.116416 0.331432
vt 0.121326 0.338634
vt 0.136179 0.338961
vt 0.129741 0.340613
vt 0.567488 0.699618
vt 0.573431 0.703070
vt 0.144146 0.353937
vt 0.138961 0.353090
vt 0.147293 0.350304
vt 0.529602 0.842322
vt 0.530453 0.837759
vt 0.532264 0.832211
vt 0.123317 0.344866
vt 0.132521 0.325923
vt 0.138630 0.330176
vt 0.135308 0.344136
vt 0.130526 0.345119
vt 0.116355 0.341868
vt 0.110364 0.341797
vt 0.109535 0.338925
vt 0.113368 0.335823
vt 0.104204 0.327820
vt 0.101647 0.332109
vt 0.099953 0.335706
vt 0.570978 0.696005
vt 0.576182 0.694899
vt 0.580538 0.701695
vt 0.581015 0.692531
vt 0.585098 0.698822
vt 0.586839 0.668163
vt 0.586951 0.664266
vt 0.591128 0.666696
vt 0.591072 0.669638
vt 0.594936 0.670169
vt 0.593438 0.664727
vt 0.589945 0.673914
vt 0.539285 0.862356
vt 0.529819 0.860095
vt 0.540040 0.867300
vt 0.530556 0.864948
vt 0.116321 0.346444
vt 0.115680 0.352662
vt 0.107603 0.350267
vt 0.108516 0.345861
vt 0.113573 0.358123
vt 0.105702 0.355738
vt 0.133803 0.351161
vt 0.585329 0.688700
vt 0.590957 0.692351
vt 0.134200 0.359507
vt 0.140956 0.358081
vt 0.127418 0.349733
vt 0.121525 0.353138
vt 0.124859 0.354867
vt 0.597711 0.672132
vt 0.595178 0.676450
vt 0.591996 0.679760
vt 0.584923 0.676808
vt 0.130452 0.359795
vt 0.129799 0.354482
vt 0.522608 0.835559
vt 0.521262 0.841719
vt 0.511510 0.842240
vt 0.514676 0.831793
vt 0.521769 0.846337
vt 0.514500 0.846784
vt 0.503823 0.846268
vt 0.505229 0.839199
vt 0.504944 0.848010
vt 0.506590 0.827456
vt 0.512616 0.850446
vt 0.111735 0.363464
vt 0.104504 0.359424
vt 0.120137 0.358387
vt 0.118456 0.363146
vt 0.118038 0.368217
vt 0.116237 0.369157
vt 0.126864 0.357544
vt 0.126793 0.361347
vt 0.123485 0.359188
vt 0.494182 0.837137
vt 0.499695 0.837792
vt 0.499753 0.846196
vt 0.493547 0.841425
vt 0.490605 0.844802
vt 0.493203 0.846183
vt 0.122254 0.364286
vt 0.120493 0.369955
vt 0.492358 0.847389
vt 0.492938 0.849109
vt 0.491653 0.851390
vt 0.494483 0.851992
vt 0.124859 0.365715
vt 0.605872 0.691305
vt 0.607738 0.687076
vt 0.613912 0.685504
vt 0.611731 0.690553
vt 0.608704 0.683559
vt 0.614389 0.681781
vt 0.490196 0.850770
vt 0.488476 0.853336
vt 0.490241 0.846727
vt 0.538790 0.819803
vt 0.542756 0.814928
vt 0.093063 0.293227
vt 0.084354 0.288249
vt 0.953922 0.653605
vt 0.955155 0.645743
vt 0.957331 0.646670
vt 0.956035 0.654259
vt 0.532593 0.815656
vt 0.534624 0.811878
vt 0.530391 0.692247
vt 0.536307 0.697165
vt 0.534182 0.700193
vt 0.529665 0.695580
vt 0.541478 0.702587
vt 0.535629 0.704166
vt 0.162003 0.291519
vt 0.159874 0.294469
vt 0.109787 0.319841
vt 0.107000 0.323892
vt 0.098895 0.318666
vt 0.545497 0.859258
vt 0.565522 0.696343
vt 0.558797 0.701431
vt 0.501103 0.819468
vt 0.494644 0.823411
vt 0.498372 0.829437
vt 0.518862 0.823811
vt 0.529217 0.821211
vt 0.525602 0.828578
vt 0.522795 0.817262
vt 0.535338 0.825495
vt 0.540239 0.828816
vt 0.492223 0.831515
vt 0.489375 0.825993
vt 0.487086 0.822418
vt 0.490305 0.819198
vt 0.495190 0.814364
vt 0.589422 0.659837
vt 0.595785 0.658202
vt 0.598874 0.665360
vt 0.490907 0.810629
vt 0.581274 0.660268
vt 0.582214 0.655777
vt 0.573653 0.656255
vt 0.579548 0.665007
vt 0.573149 0.661145
vt 0.567089 0.652525
vt 0.578805 0.668972
vt 0.571150 0.664806
vt 0.575923 0.672786
vt 0.568321 0.668944
vt 0.604714 0.678488
vt 0.599608 0.677737
vt 0.602571 0.672530
vt 0.607520 0.673334
vt 0.602710 0.683346
vt 0.596914 0.682530
vt 0.600921 0.687557
vt 0.594217 0.686975
vt 0.589188 0.684054
vt 0.598856 0.692112
vt 0.609746 0.680169
vt 0.487298 0.843077
vt 0.489132 0.838936
vt 0.614846 0.679570
vt 0.487346 0.833381
vt 0.487351 0.848015
vt 0.619089 0.680961
vt 0.618948 0.679646
vt 0.555088 0.704544
vt 0.551015 0.708527
vt 0.547301 0.703984
vt 0.547627 0.711915
vt 0.543428 0.707978
vt 0.543208 0.697963
vt 0.537797 0.692984
vt 0.533747 0.684311
vt 0.531962 0.688456
vt 0.528319 0.676770
vt 0.535132 0.680119
vt 0.526788 0.680760
vt 0.525178 0.684457
vt 0.519516 0.678247
vt 0.523313 0.687984
vt 0.523460 0.691765
vt 0.157360 0.276284
vt 0.511625 0.673161
vt 0.520038 0.674272
vt 0.511172 0.669794
vt 0.520229 0.670123
vt 0.528530 0.672439
vt 0.536504 0.676314
vt 0.511418 0.663400
vt 0.911583 0.627785
vt 0.902223 0.626237
vt 0.911011 0.620940
vt 0.909383 0.614354
vt 0.902647 0.620129
vt 0.923033 0.612143
vt 0.503191 0.672236
vt 0.921715 0.607612
vt 0.909093 0.609738
vt 0.912303 0.635632
vt 0.151698 0.301363
vt 0.156022 0.297710
vt 0.158604 0.302788
vt 0.154923 0.306412
vt 0.537537 0.708780
vt 0.147126 0.294284
vt 0.139985 0.299713
vt 0.146191 0.307055
vt 0.134301 0.305661
vt 0.150224 0.312316
vt 0.553721 0.717158
vt 0.121599 0.304071
vt 0.126026 0.298174
vt 0.130217 0.310941
vt 0.113801 0.299183
vt 0.119076 0.292804
vt 0.127411 0.315152
vt 0.124797 0.319451
vt 0.091964 0.319526
vt 0.096632 0.322698
vt 0.088086 0.317754
vt 0.946511 0.658919
vt 0.942692 0.663063
vt 0.934049 0.664088
vt 0.937504 0.660301
vt 0.922498 0.663058
vt 0.930396 0.668119
vt 0.918046 0.668340
vt 0.909789 0.664504
vt 0.916459 0.657701
vt 0.905160 0.658278
vt 0.553880 0.634878
vt 0.545413 0.637388
vt 0.541154 0.631185
vt 0.549713 0.628592
vt 0.550909 0.642535
vt 0.941188 0.666238
vt 0.939740 0.668977
vt 0.945228 0.667874
vt 0.954888 0.633476
vt 0.098162 0.340335
vt 0.090436 0.336206
vt 0.556175 0.673916
vt 0.557643 0.828595
vt 0.555737 0.831887
vt 0.562925 0.830758
vt 0.566732 0.828798
vt 0.566827 0.834445
vt 0.559912 0.830796
vt 0.090749 0.303675
vt 0.936362 0.639543
vt 0.116232 0.278636
vt 0.522588 0.801975
vn 0.1336 -0.9906 -0.0278
vn 0.2682 -0.2161 0.9388
vn -0.3681 -0.4343 0.8221
vn -0.7983 -0.5930 0.1053
vn -0.6579 0.1336 0.7412
vn -0.7732 -0.5934 0.2238
vn 0.5975 -0.7884 -0.1460
vn 0.8443 -0.1136 0.5237
vn 0.3789 -0.9240 -0.0518
vn 0.7050 -0.2907 0.6469
vn -0.0064 0.2810 0.9597
vn -0.1641 -0.9671 -0.1945
vn 0.5438 -0.5261 -0.6538
vn 0.5412 -0.4337 -0.7204
vn 0.5270 -0.0797 -0.8461
vn 0.6748 -0.1270 -0.7270
vn 0.1514 0.2383 -0.9593
vn 0.4904 0.1757 -0.8536
vn 0.1244 0.0549 -0.9907
vn 0.7072 0.1073 -0.6988
vn 0.9999 -0.0056 0.0113
vn 0.9961 0.0789 0.0385
vn 0.9030 0.3217 0.2847
vn 0.9589 0.0408 0.2810
vn 0.5122 0.8343 0.2039
vn 0.8642 0.2863 0.4137
vn 0.4672 0.8786 0.0994
vn 0.8933 0.1241 0.4319
vn 0.9353 -0.0892 -0.3425
vn 0.8299 0.4209 -0.3661
vn 0.8207 0.5688 -0.0542
vn 0.2652 0.9480 -0.1759
vn 0.0859 0.9928 -0.0835
vn 0.0894 0.9952 -0.0406
vn 0.1008 0.9948 -0.0161
vn 0.6437 0.7450 0.1748
vn 0.5101 0.8100 0.2894
vn 0.8064 0.3038 0.5074
vn 0.8996 0.2610 0.3501
vn 0.9283 -0.0422 0.3693
vn 0.8565 -0.0485 0.5139
vn 0.2252 0.7094 0.6678
vn 0.5437 0.2949 0.7858
vn 0.6242 -0.1139 0.7729
vn 0.9420 -0.3226 -0.0930
vn 0.7585 -0.4862 -0.4339
vn 0.8667 -0.0969 -0.4894
vn 0.9951 -0.0398 -0.0903
vn 0.9747 0.1801 -0.1321
vn 0.8896 0.1419 -0.4342
vn 0.7044 -0.6877 -0.1759
vn 0.5092 -0.7563 -0.4107
vn 0.8860 -0.0725 0.4579
vn 0.8687 0.3334 0.3663
vn 0.9815 -0.1912 0.0120
vn 0.9413 -0.1179 0.3164
vn 0.9460 0.2885 0.1478
vn 0.8034 0.2450 -0.5427
vn 0.9579 -0.1999 0.2062
vn 0.8317 -0.5341 0.1518
vn 0.1803 -0.7710 -0.6107
vn 0.3653 -0.9297 -0.0478
vn 0.4520 -0.7156 -0.5326
vn 0.6589 -0.6791 -0.3235
vn 0.0027 -0.3986 0.9171
vn -0.3810 -0.8615 0.3355
vn -0.3672 -0.9138 0.1737
vn 0.1969 -0.7465 0.6356
vn -0.2116 -0.9763 -0.0452
vn 0.5365 0.1128 0.8364
vn 0.4896 0.1739 0.8544
vn 0.2943 0.8407 -0.4545
vn 0.0835 0.9903 -0.1107
vn 0.0793 0.9931 -0.0860
vn 0.0830 0.9904 -0.1101
vn 0.1073 0.8251 -0.5547
vn -0.1007 -0.9949 -0.0089
vn -0.3485 0.2240 0.9102
vn -0.1250 0.0704 0.9897
vn -0.0833 -0.2307 0.9695
vn -0.6507 -0.2000 0.7325
vn 0.8270 0.2066 0.5228
vn 0.8214 0.2168 0.5276
vn 0.8099 0.2317 0.5388
vn 0.8146 0.2543 0.5214
vn 0.5295 0.7848 0.3220
vn 0.3071 0.6562 0.6892
vn 0.5329 0.4429 0.7210
vn 0.8091 0.4696 0.3535
vn -0.0274 0.1564 0.9873
vn 0.8129 -0.0390 0.5811
vn 0.9944 -0.0032 0.1059
vn 0.9851 -0.1296 0.1130
vn 0.9765 -0.2134 -0.0285
vn 0.9938 -0.1072 -0.0309
vn 0.9904 -0.0300 0.1347
vn 0.9804 0.1203 0.1558
vn 0.9950 0.0839 0.0548
vn 0.9841 -0.1727 0.0425
vn 0.9111 -0.4076 0.0611
vn 0.9639 -0.2607 -0.0546
vn 0.9565 -0.2895 -0.0370
vn 0.7497 0.6597 0.0525
vn -0.0973 0.9848 0.1441
vn -0.1698 0.9428 0.2870
vn -0.2261 0.6198 0.7514
vn -0.2469 0.8882 0.3875
vn -0.6566 0.3665 0.6592
vn -0.4476 0.4302 0.7840
vn 0.1863 0.7133 0.6756
vn -0.6527 0.5276 0.5437
vn -0.5830 -0.5247 0.6203
vn -0.0123 -0.4426 0.8966
vn -0.5589 -0.2533 0.7896
vn -0.7703 -0.2866 0.5696
vn -0.8319 -0.3915 0.3933
vn -0.5243 -0.8071 0.2716
vn 0.6587 -0.7111 -0.2457
vn 0.6626 -0.4887 -0.5676
vn 0.5216 -0.7143 -0.4666
vn 0.1916 -0.1078 -0.9755
vn 0.2198 -0.0732 -0.9728
vn 0.1356 -0.9719 -0.1927
vn 0.2196 -0.9727 -0.0747
vn 0.3077 -0.9210 -0.2391
vn 0.7714 0.6273 0.1069
vn 0.3399 0.5992 0.7249
vn 0.5629 0.0703 0.8235
vn -0.2303 0.9467 0.2252
vn -0.5341 0.3606 0.7646
vn -0.3965 -0.0033 0.9180
vn -0.7123 0.4053 0.5730
vn -0.2053 0.0430 -0.9778
vn -0.1842 0.0592 -0.9811
vn -0.3007 -0.9414 -0.1525
vn -0.3491 -0.4899 -0.7988
vn 0.1598 -0.6006 -0.7834
vn 0.8662 -0.4790 0.1419
vn 0.8191 -0.5671 0.0861
vn 0.8043 -0.5935 0.0298
vn -0.3426 0.0247 0.9391
vn -0.6014 0.0897 0.7939
vn -0.2651 0.1841 0.9465
vn -0.3431 -0.0128 0.9392
vn -0.7266 0.2400 0.6438
vn -0.3544 0.7198 0.5969
vn -0.0851 0.8156 0.5724
vn 0.1243 0.2232 0.9668
vn 0.3218 -0.1444 0.9357
vn 0.0832 -0.3270 0.9414
vn -0.1700 -0.2803 0.9447
vn -0.0126 0.0103 -0.9999
vn 0.0875 0.6757 -0.7320
vn -0.1877 0.7862 -0.5888
vn -0.5581 0.0119 -0.8297
vn 0.1815 0.7184 -0.6716
vn 0.0554 0.7527 -0.6560
vn -0.3389 0.6223 -0.7056
vn -0.5206 0.7514 -0.4055
vn -0.5327 0.7563 -0.3798
vn -0.5699 0.7086 -0.4160
vn -0.8927 0.0202 -0.4502
vn -0.1078 0.1706 -0.9794
vn -0.5415 0.1590 -0.8255
vn -0.8260 0.2500 -0.5052
vn 0.0140 0.9979 -0.0628
vn -0.4042 0.8314 -0.3813
vn -0.5115 0.8412 -0.1752
vn -0.2049 0.9775 0.0493
vn -0.7518 0.2926 -0.5910
vn -0.8882 0.4349 -0.1480
vn -0.6776 0.6376 0.3665
vn 0.3444 -0.7103 0.6139
vn 0.3951 -0.8113 0.4309
vn 0.3474 -0.6698 0.6563
vn -0.1584 -0.9859 0.0540
vn -0.1372 -0.9885 0.0640
vn -0.0534 -0.9937 0.0990
vn -0.0771 -0.9970 0.0051
vn -0.0004 -0.9996 -0.0297
vn 0.0417 -0.9983 0.0398
vn -0.2781 -0.8378 0.4699
vn 0.2743 -0.9223 0.2723
vn -0.2212 -0.9645 0.1441
vn -0.1178 -0.9923 0.0373
vn 0.1115 -0.9930 0.0396
vn -0.6904 -0.6316 0.3528
vn -0.8007 -0.5467 0.2450
vn 0.3335 -0.9263 -0.1754
vn 0.3638 -0.8901 0.2746
vn 0.5117 -0.7241 0.4625
vn 0.9379 -0.3344 -0.0920
vn -0.7486 -0.6020 0.2779
vn 0.2327 -0.9334 -0.2730
vn 0.8031 -0.4318 -0.4106
vn -0.3246 0.1370 0.9359
vn -0.7892 0.0654 0.6107
vn -0.7212 -0.1520 0.6759
vn -0.1757 -0.0238 0.9842
vn -0.7822 0.0829 0.6175
vn -0.7713 -0.2366 0.5909
vn -0.6756 -0.6501 0.3478
vn 0.1371 -0.9905 -0.0097
vn 0.6502 -0.7595 0.0172
vn -0.4015 -0.6439 0.6513
vn 0.2376 -0.9501 0.2020
vn -0.6772 0.2246 -0.7007
vn -0.9025 0.4307 0.0073
vn -0.6194 0.4103 -0.6693
vn -0.3745 0.3929 -0.8399
vn -0.5759 0.1755 -0.7985
vn -0.6451 0.7572 0.1026
vn -0.6891 0.4812 -0.5418
vn -0.6750 0.0452 -0.7365
vn -0.6792 0.2527 -0.6891
vn -0.4857 0.1644 -0.8585
vn -0.6493 0.4365 -0.6228
vn -0.4240 0.1251 -0.8970
vn -0.5645 0.2065 -0.7992
vn -0.6732 0.1827 -0.7165
vn -0.5333 0.6240 -0.5712
vn -0.2916 0.9140 -0.2821
vn -0.5955 0.7068 -0.3819
vn -0.8515 0.3040 -0.4273
vn -0.6611 0.5017 0.5579
vn -0.6995 0.5567 0.4481
vn -0.6291 0.6910 0.3560
vn -0.5126 0.7749 0.3699
vn -0.6861 0.4827 0.5443
vn -0.6541 0.4915 0.5750
vn -0.6502 0.5857 0.4840
vn -0.6433 0.7134 -0.2778
vn -0.8879 0.3600 -0.2865
vn -0.6474 0.5930 -0.4788
vn -0.3572 0.7806 -0.5130
vn -0.1906 -0.9813 0.0276
vn 0.0416 -0.9990 -0.0130
vn 0.1009 -0.9938 0.0467
vn -0.5586 0.7286 0.3964
vn -0.8064 0.2610 0.5307
vn -0.7951 0.5886 0.1463
vn -0.7956 0.5606 0.2296
vn -0.4451 0.6687 0.5956
vn -0.2735 0.8934 0.3565
vn -0.5944 0.6068 0.5278
vn -0.6865 0.2480 0.6836
vn -0.8247 0.0979 0.5570
vn -0.7485 0.4404 0.4958
vn -0.3221 0.9277 0.1888
vn -0.9136 0.2314 -0.3343
vn -0.6348 0.7540 -0.1688
vn -0.2025 0.9661 -0.1600
vn -0.3228 -0.6155 -0.7190
vn -0.0282 -0.9759 -0.2163
vn -0.1535 -0.9728 -0.1733
vn -0.7208 -0.3892 -0.5735
vn -0.7637 -0.6312 -0.1357
vn -0.1922 -0.9793 0.0640
vn -0.7874 0.1002 -0.6083
vn -0.6566 0.6292 0.4159
vn -0.6252 0.6120 0.4843
vn -0.2217 0.9667 0.1279
vn -0.2432 0.9421 0.2309
vn -0.3102 0.8778 0.3651
vn -0.6377 0.6093 0.4712
vn -0.8106 0.1465 0.5670
vn -0.6373 0.6946 -0.3337
vn -0.6105 0.6489 -0.4541
vn -0.5673 0.7156 -0.4076
vn -0.7184 0.5701 -0.3987
vn -0.4541 0.8677 0.2024
vn -0.6196 0.6924 0.3696
vn -0.5312 0.6733 0.5143
vn -0.6409 -0.7562 -0.1319
vn -0.9162 -0.1788 -0.3585
vn -0.8755 0.0449 -0.4812
vn -0.7029 0.0285 -0.7107
vn -0.8636 0.3804 -0.3310
vn -0.5138 0.8569 -0.0417
vn -0.0259 -0.9996 0.0093
vn -0.2014 -0.9734 0.1097
vn -0.1835 -0.9685 0.1684
vn -0.0249 -0.9997 0.0046
vn -0.5544 -0.7237 0.4109
vn -0.4090 -0.7529 0.5157
vn -0.7176 -0.6313 0.2941
vn -0.0769 -0.9968 0.0215
vn -0.6783 -0.6934 0.2430
vn -0.0147 -0.9999 -0.0060
vn -0.7464 -0.3112 0.5883
vn -0.8751 0.1711 0.4527
vn -0.9120 0.0127 0.4100
vn -0.7139 0.6308 0.3040
vn -0.9606 0.1588 0.2283
vn -0.7570 0.0849 0.6479
vn -0.2438 -0.9274 -0.2835
vn -0.0223 -0.9987 0.0452
vn -0.1773 -0.7614 0.6235
vn -0.0526 -0.9304 -0.3628
vn -0.3644 -0.8389 -0.4044
vn 0.2944 -0.7842 0.5463
vn -0.7521 0.0599 0.6563
vn -0.3619 -0.0853 0.9283
vn -0.6017 0.4609 0.6524
vn -0.9668 0.1881 0.1731
vn -0.9194 0.0356 -0.3917
vn -0.8781 0.0223 -0.4780
vn -0.8453 0.3105 -0.4347
vn -0.8617 0.4657 -0.2013
vn -0.9106 -0.3782 0.1667
vn 0.8353 -0.5457 -0.0667
vn 0.6345 -0.3568 0.6856
vn -0.2067 -0.7206 0.6619
vn -0.5953 -0.6983 0.3974
vn 0.5412 -0.8361 -0.0893
vn 0.7984 -0.5175 -0.3079
vn 0.1691 0.2357 -0.9570
vn -0.0951 0.3734 -0.9228
vn -0.0047 0.8794 -0.4760
vn -0.5540 0.5456 -0.6289
vn 0.0083 0.9604 -0.2784
vn -0.4461 0.8512 0.2764
vn -0.7095 0.5542 0.4353
vn -0.7004 0.5432 0.4629
vn -0.4013 0.6481 0.6472
vn -0.5755 0.7321 -0.3644
vn -0.5296 0.6510 -0.5438
vn -0.0115 -0.9999 0.0052
vn -0.1002 -0.9945 -0.0317
vn -0.0535 -0.9980 -0.0331
vn 0.0957 -0.9947 -0.0387
vn 0.4180 -0.8948 -0.1568
vn 0.0607 -0.9980 -0.0190
vn 0.5177 -0.8377 -0.1741
vn 0.3971 -0.9170 0.0365
vn 0.3913 -0.9057 0.1632
vn -0.3757 -0.8931 -0.2473
vn -0.4945 -0.8463 -0.1980
vn -0.1537 -0.9881 0.0084
vn -0.0209 -0.9996 0.0167
vn -0.0097 -1.0000 -0.0007
vn -0.0581 -0.9850 -0.1627
vn -0.1364 -0.9892 -0.0533
vn -0.3043 -0.8092 -0.5026
vn -0.3276 -0.8980 -0.2939
vn -0.1844 -0.9818 0.0451
vn -0.5403 -0.2896 -0.7901
vn -0.4955 -0.4123 -0.7645
vn -0.5676 0.0080 -0.8233
vn -0.4198 0.0313 -0.9071
vn -0.7909 -0.3963 -0.4664
vn -0.8589 -0.3445 -0.3788
vn -0.8790 -0.0628 -0.4728
vn -0.8927 -0.0514 -0.4477
vn -0.8788 0.0406 -0.4755
vn -0.8671 0.1080 -0.4863
vn -0.8366 0.1353 -0.5308
vn -0.7234 -0.3693 -0.5834
vn -0.5847 -0.2305 -0.7778
vn -0.6128 -0.0327 -0.7896
vn -0.7889 0.0225 -0.6141
vn -0.7986 0.1733 -0.5764
vn -0.9025 0.0896 -0.4213
vn -0.4420 0.8202 -0.3631
vn -0.4924 0.7988 -0.3456
vn -0.5616 0.0549 -0.8256
vn -0.0496 -0.0212 -0.9985
vn 0.2330 -0.0059 -0.9725
vn 0.1984 -0.0874 -0.9762
vn 0.6329 0.4031 -0.6610
vn 0.2685 0.5104 -0.8169
vn 0.6782 -0.0247 -0.7344
vn 0.6679 -0.0991 -0.7376
vn 0.9420 -0.0281 -0.3343
vn 0.6121 0.2798 -0.7397
vn 0.8919 0.4491 -0.0538
vn 0.8689 0.3678 -0.3312
vn 0.8384 0.5302 -0.1267
vn 0.8227 0.4383 -0.3620
vn 0.6580 0.4098 -0.6317
vn 0.3795 0.5830 -0.7184
vn 0.9665 0.2067 0.1520
vn 0.7562 0.6519 0.0567
vn 0.8315 0.5328 0.1573
vn 0.6881 0.6891 0.2274
vn 0.9786 -0.0483 0.1999
vn 0.0453 0.9975 -0.0542
vn 0.0494 0.9919 -0.1171
vn 0.0664 0.9966 -0.0477
vn 0.0687 0.9968 -0.0415
vn 0.0389 0.9973 -0.0629
vn 0.0614 0.9975 -0.0359
vn -0.3745 0.8323 -0.4087
vn 0.0825 0.9913 0.1027
vn 0.1147 0.9932 0.0210
vn -0.0371 0.9982 0.0463
vn 0.5369 0.7323 0.4190
vn 0.5429 0.7763 0.3203
vn -0.4315 0.8087 0.3998
vn -0.7130 0.2622 0.6503
vn -0.6673 0.0161 0.7446
vn -0.7978 0.0460 0.6012
vn -0.8186 -0.5154 0.2537
vn -0.7823 -0.5850 0.2141
vn -0.3724 -0.9256 0.0678
vn -0.4263 -0.9010 0.0798
vn -0.1176 -0.9926 0.0309
vn -0.3339 -0.9371 0.1020
vn -0.1276 -0.9917 0.0133
vn 0.2505 -0.9595 -0.1289
vn 0.3290 -0.9419 0.0671
vn 0.2401 -0.9466 -0.2152
vn 0.2231 -0.9279 -0.2988
vn -0.7338 -0.6253 0.2658
vn -0.1848 0.0586 -0.9810
vn 0.8290 -0.4247 0.3638
vn 0.2708 -0.6083 0.7461
vn 0.5176 -0.0834 0.8516
vn 0.5626 0.0079 0.8267
vn 0.5233 -0.2624 0.8107
vn 0.6364 -0.1556 0.7555
f 1/1/1 2/2/2 3/3/3 4/4/4
f 5/5/5 6/6/6 4/4/4 3/3/3
f 1/1/1 7/7/7 8/8/8 2/2/2
f 9/9/9 10/10/10 8/8/8 7/7/7
f 11/11/11 2/2/2 8/8/8 10/10/10
f 12/12/12 9/9/9 7/7/7 1/1/1
f 13/13/13 14/14/14 15/15/15 16/16/16
f 17/17/17 18/18/18 15/15/15 19/19/19
f 20/20/20 16/16/16 15/15/15 18/18/18
f 21/21/21 22/22/22 23/23/23 24/24/24
f 25/25/25 26/26/26 23/27/23 27/28/27
f 28/29/28 24/24/24 23/23/23 26/30/26
f 29/31/29 30/32/30 31/33/31 22/22/22
f 32/34/32 27/28/27 31/35/31 30/36/30
f 23/23/23 22/22/22 31/33/31 27/37/27
f 33/38/33 34/39/34 27/28/27 32/34/32
f 35/40/35 25/25/25 27/28/27 34/39/34
f 36/41/36 37/42/37 38/43/38 39/44/39
f 40/45/40 39/44/39 38/43/38 41/46/41
f 42/47/42 43/48/43 38/43/38 37/42/37
f 44/49/44 41/46/41 38/43/38 43/48/43
f 45/50/45 46/51/46 47/52/47 48/53/48
f 49/54/49 48/53/48 47/52/47 50/55/50
f 20/20/20 50/56/50 47/57/47 16/16/16
f 13/13/13 16/16/16 47/57/47 46/58/46
f 51/59/51 52/60/52 46/58/46 45/61/45
f 53/62/53 54/63/54 55/64/55 56/65/56
f 57/66/57 58/67/58 55/64/55 54/63/54
f 59/68/59 56/65/56 55/64/55 60/69/60
f 61/70/61 62/71/62 55/64/55 58/67/58
f 63/72/63 13/13/13 46/58/46 52/60/52
f 64/73/64 61/70/61 58/67/58 57/66/57
f 65/74/65 66/75/66 67/76/67 68/77/68
f 64/73/64 68/77/68 67/76/67 61/70/61
f 69/78/69 61/70/61 67/76/67 66/75/66
f 54/63/54 70/79/70 71/80/71 57/66/57
f 64/73/64 57/66/57 71/80/71 68/77/68
f 65/74/65 68/77/68 71/80/71 70/79/70
f 32/34/32 72/81/72 73/82/73 33/38/33
f 74/83/74 33/38/33 73/82/73 75/84/75
f 76/85/76 75/84/75 73/82/73 72/81/72
f 77/86/77 62/71/62 61/70/61 69/78/69
f 42/47/42 78/87/78 79/88/79 43/48/43
f 44/49/44 43/48/43 79/88/79 80/89/80
f 81/90/81 80/89/80 79/88/79 78/87/78
f 82/91/82 83/92/83 84/93/84 85/94/85
f 86/95/86 85/96/85 84/97/84 87/98/87
f 88/99/88 89/100/89 84/93/84 83/92/83
f 90/101/90 87/98/87 84/97/84 91/102/91
f 92/103/92 91/104/91 84/93/84 89/100/89
f 93/105/93 94/106/94 95/107/95 96/108/96
f 97/109/97 96/108/96 95/107/95 98/110/98
f 92/103/92 98/111/98 95/112/95 99/113/99
f 100/114/100 99/113/99 95/112/95 101/115/101
f 102/116/102 101/117/101 95/107/95 94/106/94
f 98/111/98 92/103/92 89/100/89 103/118/103
f 104/119/104 103/118/103 89/100/89 105/120/105
f 106/121/106 105/120/105 89/100/89 88/99/88
f 107/122/107 108/123/108 109/124/109 110/125/110
f 88/99/88 110/125/110 109/124/109 106/121/106
f 111/126/111 106/121/106 109/124/109 108/123/108
f 80/89/80 81/90/81 112/127/112 113/128/113
f 114/129/114 115/130/115 112/127/112 81/90/81
f 116/131/116 117/132/117 112/127/112 115/130/115
f 65/74/65 113/128/113 112/127/112 66/75/66
f 69/78/69 66/75/66 112/127/112 117/132/117
f 118/133/118 119/134/119 14/14/14 120/135/120
f 121/136/121 122/137/122 14/14/14 119/134/119
f 123/138/123 124/139/124 118/133/118 120/135/120
f 125/140/125 119/134/119 118/133/118 124/139/124
f 97/109/97 126/141/126 127/142/127 128/143/128
f 129/144/129 130/145/130 127/146/127 126/147/126
f 131/148/131 128/143/128 127/142/127 130/149/130
f 103/118/103 104/119/104 129/144/129 126/147/126
f 132/150/132 130/145/130 129/144/129 104/119/104
f 133/151/133 134/152/134 122/137/122 121/136/121
f 135/153/135 136/154/136 137/155/137 125/140/125
f 119/134/119 125/140/125 137/155/137 121/136/121
f 133/151/133 121/136/121 137/155/137 136/154/136
f 138/156/138 139/157/139 102/116/102 94/106/94
f 140/158/140 101/117/101 102/116/102 139/157/139
f 141/159/141 142/160/142 143/161/143 144/162/144
f 145/163/145 146/164/146 143/161/143 142/160/142
f 147/165/147 148/166/148 143/167/143 146/168/146
f 149/169/149 150/170/150 143/167/143 148/166/148
f 151/171/151 144/172/144 143/167/143 150/170/150
f 152/173/152 153/174/153 154/175/154 155/176/155
f 156/177/156 157/178/157 154/175/154 153/174/153
f 158/179/158 159/180/159 154/175/154 157/178/157
f 160/181/160 161/182/161 154/175/154 159/180/159
f 162/183/162 155/176/155 154/175/154 161/182/161
f 163/184/163 164/185/164 158/179/158 157/178/157
f 165/186/165 159/180/159 158/179/158 164/185/164
f 166/187/166 167/188/167 168/189/168 169/190/169
f 170/191/170 171/192/171 168/193/168 167/194/167
f 172/195/172 169/190/169 168/189/168 171/196/171
f 10/10/10 173/197/173 150/170/150 149/169/149
f 174/198/174 175/199/175 150/170/150 173/197/173
f 176/200/176 177/201/177 178/202/178 179/203/179
f 180/204/180 179/205/179 178/206/178 181/207/181
f 182/208/182 183/209/183 178/206/178 184/210/184
f 185/211/185 184/212/184 178/213/178 177/214/177
f 186/215/186 181/207/181 178/206/178 183/209/183
f 187/216/187 188/217/188 189/218/189 190/219/190
f 191/220/191 190/221/190 189/222/189 192/223/192
f 193/224/193 194/225/194 189/218/189 188/217/188
f 195/226/195 192/223/192 189/222/189 194/227/194
f 196/228/196 197/229/197 198/230/198 199/231/199
f 200/232/200 201/233/201 198/230/198 197/229/197
f 11/11/11 199/231/199 198/230/198 5/5/5
f 6/6/6 5/5/5 198/230/198 202/234/202
f 203/235/203 186/215/186 183/209/183 204/236/204
f 192/223/192 204/236/204 183/209/183 191/220/191
f 205/237/205 191/220/191 183/209/183 182/208/182
f 199/231/199 11/11/11 10/10/10 149/169/149
f 206/238/206 173/197/173 10/10/10 9/9/9
f 171/192/171 170/191/170 207/239/207 208/240/208
f 209/241/209 210/242/210 207/243/207 211/244/211
f 212/245/212 208/240/208 207/239/207 210/246/210
f 213/247/213 211/248/211 207/239/207 214/249/214
f 215/250/215 214/249/214 207/239/207 170/191/170
f 164/185/164 216/251/216 217/252/217 165/186/165
f 218/253/218 219/254/219 217/252/217 216/251/216
f 220/255/220 221/256/221 217/252/217 219/254/219
f 222/257/222 223/258/223 217/252/217 221/256/221
f 224/259/224 165/186/165 217/252/217 223/258/223
f 225/260/225 226/261/226 227/262/227 228/263/228
f 229/264/229 228/263/228 227/262/227 230/265/230
f 212/266/212 231/267/231 227/262/227 226/261/226
f 232/268/232 233/269/233 211/248/211 213/247/213
f 234/270/234 235/271/235 211/244/211 233/272/233
f 236/273/236 237/274/237 9/9/9 12/12/12
f 238/275/238 206/238/206 9/9/9 237/274/237
f 239/276/239 230/265/230 227/262/227 231/267/231
f 240/277/240 208/278/208 212/266/212 226/261/226
f 209/241/209 241/279/241 212/266/212 210/242/210
f 242/280/242 231/267/231 212/266/212 241/279/241
f 243/281/243 244/282/244 245/283/245 246/284/246
f 247/285/247 246/284/246 245/283/245 248/286/248
f 249/287/249 248/286/248 245/283/245 244/282/244
f 250/288/250 251/289/251 234/290/234 233/269/233
f 252/291/252 235/292/235 234/290/234 251/289/251
f 253/293/253 254/294/254 255/295/255 256/296/256
f 257/297/257 256/296/256 255/295/255 258/298/258
f 259/299/259 253/293/253 256/296/256 257/297/257
f 197/229/197 260/300/260 261/301/261 200/232/200
f 262/302/262 263/303/263 261/301/261 260/300/260
f 264/304/264 265/305/265 261/306/261 263/307/263
f 266/308/266 200/309/200 261/306/261 265/305/265
f 209/241/209 211/244/211 235/271/235 267/310/267
f 268/311/268 269/312/269 235/292/235 252/291/252
f 270/313/270 267/310/267 235/271/235 269/314/269
f 242/280/242 271/315/271 239/276/239 231/267/231
f 243/281/243 230/265/230 239/276/239 264/304/264
f 265/305/265 264/304/264 239/276/239 272/316/272
f 273/317/273 272/316/272 239/276/239 271/315/271
f 267/310/267 242/280/242 241/279/241 209/241/209
f 274/318/274 275/319/275 259/299/259 257/297/257
f 276/320/276 277/321/277 259/299/259 275/319/275
f 278/322/278 279/323/279 267/310/267 270/313/270
f 271/315/271 242/280/242 267/310/267 279/323/279
f 280/324/280 281/325/281 282/326/282 283/327/283
f 284/328/284 285/329/285 282/326/282 281/325/281
f 286/330/286 287/331/287 282/326/282 288/332/288
f 289/333/289 283/327/283 282/326/282 287/331/287
f 284/328/284 201/233/201 290/334/290 285/329/285
f 200/309/200 266/308/266 290/335/290 201/336/201
f 291/337/291 292/338/292 290/335/290 266/308/266
f 286/339/286 288/340/288 290/335/290 292/338/292
f 271/315/271 279/323/279 293/341/293 273/317/273
f 278/322/278 294/342/294 293/341/293 279/323/279
f 295/343/295 273/317/273 293/341/293 294/342/294
f 296/344/296 297/345/297 298/346/298 299/347/299
f 287/331/287 286/330/286 298/346/298 297/345/297
f 300/348/300 299/347/299 298/346/298 301/349/301
f 292/338/292 302/350/302 298/351/298 286/339/286
f 303/352/303 301/349/301 298/346/298 304/353/304
f 305/354/305 304/353/304 298/346/298 302/355/302
f 295/343/295 294/342/294 305/356/305 302/350/302
f 278/357/278 306/358/306 305/359/305 294/360/294
f 307/361/307 308/362/308 305/359/305 306/358/306
f 309/363/309 304/353/304 305/354/305 308/364/308
f 309/363/309 310/365/310 303/352/303 304/353/304
f 140/158/140 311/366/311 100/367/100 101/117/101
f 312/368/312 99/113/99 100/114/100 313/369/313
f 314/370/314 313/371/313 100/372/100 315/373/315
f 316/374/316 315/375/315 100/367/100 311/366/311
f 317/376/317 318/377/318 319/378/319 76/379/76
f 320/380/320 321/381/321 319/378/319 318/377/318
f 75/84/75 76/85/76 319/382/319 321/383/321
f 111/126/111 322/384/322 105/120/105 106/121/106
f 323/385/323 324/386/324 105/120/105 322/384/322
f 132/150/132 104/119/104 105/120/105 324/386/324
f 148/166/148 147/165/147 325/387/325 196/228/196
f 262/302/262 260/300/260 325/387/325 147/165/147
f 197/229/197 196/228/196 325/387/325 260/300/260
f 250/288/250 233/269/233 232/268/232 326/388/326
f 327/389/327 326/388/326 232/268/232 213/247/213
f 186/215/186 203/235/203 289/333/289 328/390/328
f 329/391/329 328/390/328 289/333/289 330/392/330
f 331/393/331 283/327/283 289/333/289 203/235/203
f 297/345/297 330/392/330 289/333/289 287/331/287
f 268/311/268 252/291/252 222/257/222 221/256/221
f 251/289/251 223/258/223 222/257/222 252/291/252
f 332/394/332 333/395/333 331/393/331 334/396/334
f 280/324/280 283/327/283 331/393/331 333/395/333
f 204/236/204 334/396/334 331/393/331 203/235/203
f 335/397/335 238/275/238 333/395/333 332/394/332
f 237/274/237 280/324/280 333/395/333 238/275/238
f 140/158/140 336/398/336 335/397/335 311/366/311
f 206/238/206 238/275/238 335/397/335 336/398/336
f 316/374/316 311/366/311 335/397/335 332/394/332
f 139/157/139 174/198/174 336/398/336 140/158/140
f 173/197/173 206/238/206 336/398/336 174/198/174
f 195/226/195 316/374/316 332/394/332 334/396/334
f 192/223/192 195/226/195 334/396/334 204/236/204
f 337/399/337 338/400/338 329/391/329 330/392/330
f 274/401/274 339/402/339 329/391/329 338/400/338
f 340/403/340 328/390/328 329/391/329 339/402/339
f 186/215/186 328/390/328 340/403/340 181/207/181
f 258/298/258 341/404/341 340/405/340 339/406/339
f 180/204/180 181/207/181 340/403/340 341/407/341
f 255/295/255 254/294/254 341/404/341 258/298/258
f 342/408/342 180/409/180 341/404/341 254/294/254
f 179/203/179 180/409/180 342/408/342 343/410/343
f 253/293/253 344/411/344 342/408/342 254/294/254
f 345/412/345 343/410/343 342/408/342 344/411/344
f 346/413/346 343/410/343 345/412/345 135/153/135
f 347/414/347 348/415/348 345/412/345 344/411/344
f 136/154/136 135/153/135 345/412/345 348/415/348
f 349/416/349 350/417/350 348/415/348 347/414/347
f 133/151/133 136/154/136 348/415/348 350/417/350
f 219/254/219 218/253/218 350/417/350 349/416/349
f 134/152/134 133/151/133 350/417/350 218/253/218
f 259/299/259 277/321/277 349/416/349 347/414/347
f 220/255/220 219/254/219 349/416/349 277/321/277
f 253/293/253 259/299/259 347/414/347 344/411/344
f 123/138/123 176/200/176 346/413/346 124/139/124
f 179/203/179 343/410/343 346/413/346 176/200/176
f 125/140/125 124/139/124 346/413/346 135/153/135
f 257/297/257 258/298/258 339/406/339 274/318/274
f 351/418/351 352/419/352 338/420/338 337/421/337
f 275/319/275 274/318/274 338/420/338 352/419/352
f 353/422/353 354/423/354 352/419/352 351/418/351
f 276/320/276 275/319/275 352/419/352 354/423/354
f 355/424/355 356/425/356 354/423/354 353/422/353
f 357/426/357 276/320/276 354/423/354 356/425/356
f 269/312/269 268/311/268 357/426/357 356/425/356
f 221/256/221 220/255/220 357/426/357 268/311/268
f 277/321/277 276/320/276 357/426/357 220/255/220
f 270/427/270 269/312/269 356/425/356 355/424/355
f 307/361/307 306/358/306 355/424/355 353/422/353
f 278/357/278 270/427/270 355/424/355 306/358/306
f 358/428/358 307/361/307 353/422/353 351/418/351
f 299/347/299 359/429/359 358/430/358 296/344/296
f 308/362/308 307/361/307 358/428/358 359/431/359
f 337/399/337 296/344/296 358/430/358 351/432/351
f 300/348/300 360/433/360 359/429/359 299/347/299
f 309/434/309 308/362/308 359/431/359 360/435/360
f 297/345/297 296/344/296 337/399/337 330/392/330
f 162/183/162 161/182/161 327/389/327 361/436/361
f 160/181/160 326/388/326 327/389/327 161/182/161
f 214/249/214 361/436/361 327/389/327 213/247/213
f 215/250/215 362/437/362 361/436/361 214/249/214
f 363/438/363 162/183/162 361/436/361 362/437/362
f 364/439/364 365/440/365 363/438/363 362/437/362
f 320/380/320 366/441/366 363/438/363 365/440/365
f 155/176/155 162/183/162 363/438/363 366/441/366
f 318/377/318 367/442/367 366/441/366 320/380/320
f 152/173/152 155/176/155 366/441/366 367/442/367
f 368/443/368 152/173/152 367/442/367 369/444/369
f 317/376/317 369/444/369 367/442/367 318/377/318
f 370/445/370 371/446/371 368/443/368 372/447/372
f 153/174/153 152/173/152 368/443/368 371/446/371
f 373/448/373 372/447/372 368/443/368 369/444/369
f 374/449/374 372/447/372 373/448/373 29/31/29
f 317/376/317 375/450/375 373/448/373 369/444/369
f 30/32/30 29/31/29 373/448/373 375/450/375
f 76/379/76 72/451/72 375/450/375 317/376/317
f 32/34/32 30/36/30 375/452/375 72/81/72
f 376/453/376 377/454/377 374/449/374 21/21/21
f 370/445/370 372/447/372 374/449/374 377/454/377
f 22/22/22 21/21/21 374/449/374 29/31/29
f 378/455/378 379/456/379 377/454/377 376/453/376
f 380/457/380 370/445/370 377/454/377 379/456/379
f 50/56/50 20/20/20 380/457/380 379/456/379
f 18/18/18 381/458/381 380/457/380 20/20/20
f 371/446/371 370/445/370 380/457/380 381/458/381
f 17/17/17 156/177/156 381/458/381 18/18/18
f 153/174/153 371/446/371 381/458/381 156/177/156
f 49/459/49 50/56/50 379/456/379 378/455/378
f 382/460/382 49/54/49 378/461/378 383/462/383
f 384/463/384 383/462/383 378/461/378 376/464/376
f 36/41/36 383/462/383 384/463/384 385/465/385
f 21/21/21 24/24/24 384/466/384 376/453/376
f 28/467/28 385/465/385 384/463/384 24/468/24
f 37/42/37 36/41/36 385/465/385 86/95/86
f 85/96/85 86/95/86 385/465/385 28/467/28
f 40/45/40 386/469/386 382/460/382 39/44/39
f 48/53/48 49/54/49 382/460/382 386/469/386
f 36/41/36 39/44/39 382/460/382 383/462/383
f 56/65/56 59/68/59 386/469/386 40/45/40
f 45/50/45 48/53/48 386/469/386 59/68/59
f 387/470/387 388/471/388 365/472/365 364/473/364
f 321/381/321 320/380/320 365/440/365 388/474/388
f 389/475/389 74/83/74 388/471/388 387/470/387
f 75/84/75 321/383/321 388/471/388 74/83/74
f 35/40/35 34/39/34 389/475/389 390/476/390
f 33/38/33 74/83/74 389/475/389 34/39/34
f 391/477/391 390/476/390 389/475/389 387/470/387
f 392/478/392 390/476/390 391/477/391 166/187/166
f 364/473/364 393/479/393 391/477/391 387/470/387
f 167/188/167 166/187/166 391/477/391 393/479/393
f 362/437/362 215/250/215 393/480/393 364/439/364
f 170/191/170 167/194/167 393/480/393 215/250/215
f 394/481/394 395/482/395 392/478/392 396/483/396
f 35/40/35 390/476/390 392/478/392 395/482/395
f 169/190/169 396/483/396 392/478/392 166/187/166
f 397/484/397 398/485/398 395/482/395 394/481/394
f 25/25/25 35/40/35 395/482/395 398/485/398
f 83/92/83 82/91/82 398/485/398 397/484/397
f 26/26/26 25/25/25 398/485/398 82/91/82
f 88/99/88 83/92/83 397/484/397 110/125/110
f 107/122/107 110/125/110 397/484/397 394/481/394
f 399/486/399 107/122/107 394/481/394 396/483/396
f 108/123/108 107/122/107 399/486/399 400/487/400
f 169/190/169 172/195/172 399/486/399 396/483/396
f 240/277/240 400/487/400 399/486/399 172/195/172
f 111/126/111 108/123/108 400/487/400 225/260/225
f 226/261/226 225/260/225 400/487/400 240/277/240
f 224/259/224 250/288/250 326/388/326 160/181/160
f 401/488/401 132/150/132 324/386/324 402/489/402
f 247/285/247 402/489/402 324/386/324 323/385/323
f 141/159/141 131/490/131 401/488/401 142/160/142
f 130/145/130 132/150/132 401/488/401 131/490/131
f 145/163/145 142/160/142 401/488/401 402/489/402
f 248/286/248 145/163/145 402/489/402 247/285/247
f 228/263/228 229/264/229 323/385/323 322/384/322
f 246/284/246 247/285/247 323/385/323 229/264/229
f 225/260/225 228/263/228 322/384/322 111/126/111
f 194/227/194 315/375/315 316/374/316 195/226/195
f 194/225/194 193/224/193 314/370/314 315/373/315
f 403/491/403 116/131/116 314/370/314 193/224/193
f 115/130/115 313/371/313 314/370/314 116/131/116
f 188/217/188 404/492/404 403/491/403 193/224/193
f 405/493/405 406/494/406 403/491/403 404/492/404
f 117/132/117 116/131/116 403/491/403 406/494/406
f 407/495/407 77/86/77 406/494/406 405/493/405
f 69/78/69 117/132/117 406/494/406 77/86/77
f 408/496/408 409/497/409 407/495/407 405/493/405
f 410/498/410 411/499/411 407/495/407 409/497/409
f 62/71/62 77/86/77 407/495/407 411/499/411
f 51/500/51 60/69/60 411/499/411 410/498/410
f 55/64/55 62/71/62 411/499/411 60/69/60
f 185/501/185 412/502/412 410/503/410 409/504/409
f 52/60/52 51/59/51 410/503/410 412/502/412
f 177/201/177 413/505/413 412/502/412 185/501/185
f 63/72/63 52/60/52 412/502/412 413/505/413
f 176/200/176 123/138/123 413/505/413 177/201/177
f 120/135/120 63/72/63 413/505/413 123/138/123
f 184/212/184 185/211/185 409/497/409 408/496/408
f 404/492/404 414/506/414 408/496/408 405/493/405
f 182/507/182 184/212/184 408/496/408 414/506/414
f 188/217/188 187/216/187 414/506/414 404/492/404
f 205/508/205 182/507/182 414/506/414 187/216/187
f 115/130/115 114/129/114 312/509/312 313/371/313
f 90/101/90 91/102/91 312/509/312 114/129/114
f 92/103/92 99/113/99 312/368/312 91/104/91
f 310/365/310 309/363/309 360/433/360 300/348/300
f 291/337/291 295/343/295 302/350/302 292/338/292
f 310/365/310 300/348/300 301/349/301 303/352/303
f 272/316/272 273/317/273 295/343/295 291/337/291
f 265/305/265 272/316/272 291/337/291 266/308/266
f 236/273/236 202/234/202 284/328/284 281/325/281
f 198/230/198 201/233/201 284/328/284 202/234/202
f 237/274/237 236/273/236 281/325/281 280/324/280
f 244/282/244 243/281/243 264/304/264 263/307/263
f 249/287/249 244/282/244 263/307/263 262/510/262
f 146/164/146 249/287/249 262/510/262 147/511/147
f 224/259/224 223/258/223 251/289/251 250/288/250
f 145/163/145 248/286/248 249/287/249 146/164/146
f 229/264/229 230/265/230 243/281/243 246/284/246
f 171/196/171 208/278/208 240/277/240 172/195/172
f 6/6/6 202/234/202 236/273/236 12/12/12
f 159/180/159 165/186/165 224/259/224 160/181/160
f 415/512/415 134/152/134 218/253/218 216/251/216
f 122/137/122 134/152/134 415/512/415 19/19/19
f 164/185/164 163/184/163 415/512/415 216/251/216
f 17/17/17 19/19/19 415/512/415 163/184/163
f 149/169/149 148/166/148 196/228/196 199/231/199
f 416/513/416 417/514/417 175/199/175 138/156/138
f 151/171/151 150/170/150 175/199/175 417/514/417
f 139/157/139 138/156/138 175/199/175 174/198/174
f 156/177/156 17/17/17 163/184/163 157/178/157
f 418/515/418 419/516/419 141/517/141 144/172/144
f 128/143/128 131/148/131 141/517/141 419/516/419
f 93/105/93 96/108/96 419/516/419 418/515/418
f 97/109/97 128/143/128 419/516/419 96/108/96
f 416/513/416 93/105/93 418/515/418 420/518/420
f 151/171/151 420/518/420 418/515/418 144/172/144
f 93/105/93 416/513/416 138/156/138 94/106/94
f 98/111/98 103/118/103 126/147/126 97/519/97
f 13/13/13 63/72/63 120/135/120 14/14/14
f 78/87/78 90/101/90 114/129/114 81/90/81
f 70/79/70 421/520/421 113/128/113 65/74/65
f 44/49/44 80/89/80 113/128/113 421/520/421
f 54/63/54 53/62/53 421/520/421 70/79/70
f 41/46/41 44/49/44 421/520/421 53/62/53
f 42/47/42 87/98/87 90/101/90 78/87/78
f 42/47/42 37/42/37 86/95/86 87/98/87
f 28/521/28 26/26/26 82/91/82 85/94/85
f 51/500/51 45/50/45 59/68/59 60/69/60
f 40/45/40 41/46/41 53/62/53 56/65/56
f 4/4/4 6/6/6 12/12/12 1/1/1
f 3/3/3 2/2/2 11/11/11 5/5/5
f 290/334/290 288/332/288 282/326/282 285/329/285
f 122/137/122 19/19/19 15/15/15 14/14/14
f 417/514/417 416/513/416 420/518/420 151/171/151
f 190/221/190 191/220/191 205/237/205 187/522/187
