# split from a merged terrain OBJ by scripts/split-terrain-obj-parts.py
o part-054
v 0.915142 0.012405 0.071065
v 0.913028 0.009618 0.068944
v 0.915941 0.009487 0.063894
v 0.917910 0.012104 0.064478
v 0.915819 0.010896 0.058307
v 0.912326 0.009028 0.061773
v 0.909226 0.008617 0.066529
v 0.910644 0.013611 0.056482
v 0.909353 0.015620 0.060154
v 0.911862 0.015495 0.062419
v 0.914217 0.014078 0.060383
v 0.915357 0.014662 0.065893
v 0.911312 0.016026 0.065823
v 0.908092 0.016314 0.064113
v 0.906024 0.013399 0.054857
v 0.901866 0.013284 0.055066
v 0.902873 0.015125 0.057042
v 0.905590 0.015449 0.057794
v 0.904601 0.016591 0.061793
v 0.901266 0.016033 0.060090
v 0.898507 0.014371 0.058440
v 0.905169 0.010904 0.056022
v 0.901760 0.011523 0.056305
v 0.903077 0.010383 0.060082
v 0.899335 0.011861 0.058889
v 0.894873 0.015473 0.075513
v 0.896280 0.012762 0.076212
v 0.896411 0.014093 0.078355
v 0.896624 0.015929 0.076342
v 0.900423 0.016117 0.077154
v 0.900396 0.013155 0.079235
v 0.900237 0.010938 0.076359
v 0.896918 0.016427 0.072250
v 0.894835 0.014545 0.071819
v 0.897219 0.011657 0.072070
v 0.910207 0.016486 0.068932
v 0.907099 0.016850 0.067102
v 0.906143 0.017308 0.069557
v 0.907778 0.016864 0.071847
v 0.903831 0.017057 0.065348
v 0.903421 0.017595 0.069226
v 0.903860 0.017115 0.073291
v 0.909269 0.009898 0.073175
v 0.905015 0.010183 0.075574
v 0.904213 0.009590 0.072811
v 0.906573 0.009102 0.070246
v 0.902650 0.009802 0.068620
v 0.900964 0.010219 0.072481
v 0.898810 0.011143 0.067877
v 0.900764 0.010486 0.063850
v 0.904914 0.009101 0.064903
v 0.907563 0.009152 0.060612
v 0.910143 0.010603 0.056517
v 0.895904 0.013366 0.067343
v 0.897217 0.012574 0.062828
v 0.896872 0.015813 0.067604
v 0.897048 0.015554 0.062796
v 0.900195 0.017067 0.068500
v 0.900448 0.016554 0.064035
v 0.900256 0.017216 0.073050
v 0.905081 0.015947 0.076833
v 0.905779 0.012727 0.078239
v 0.910636 0.012583 0.075322
v 0.909971 0.015848 0.074607
v 0.913929 0.015506 0.070877
vt 0.017583 0.879066
vt 0.016089 0.877496
vt 0.017821 0.874891
vt 0.019510 0.875366
vt 0.018183 0.871754
vt 0.016020 0.873579
vt 0.014204 0.875967
vt 0.973820 0.179185
vt 0.976007 0.178945
vt 0.976650 0.180612
vt 0.975099 0.181603
vt 0.977877 0.183065
vt 0.978499 0.180930
vt 0.978219 0.179033
vt 0.973869 0.176150
vt 0.974820 0.173942
vt 0.975840 0.175005
vt 0.975675 0.176535
vt 0.977840 0.176848
vt 0.977687 0.174831
vt 0.977359 0.172886
vt 0.012562 0.868460
vt 0.012371 0.870003
vt 0.010591 0.870038
vt 0.010308 0.868940
vt 0.011245 0.872171
vt 0.009267 0.871304
vt 0.008122 0.870481
vt 0.986598 0.174479
vt 0.988270 0.174642
vt 0.988094 0.176048
vt 0.986643 0.175641
vt 0.986273 0.177755
vt 0.987965 0.178724
vt 0.009053 0.880623
vt 0.009032 0.882561
vt 0.006628 0.881626
vt 0.006753 0.880267
vt 0.984576 0.174931
vt 0.984879 0.173419
vt 0.007514 0.878119
vt 0.005196 0.879735
vt 0.005563 0.877751
vt 0.980301 0.180899
vt 0.979906 0.179069
vt 0.981334 0.179027
vt 0.982199 0.180252
vt 0.979733 0.177168
vt 0.981697 0.177605
vt 0.983569 0.178556
vt 0.013881 0.879504
vt 0.011611 0.880518
vt 0.011278 0.878986
vt 0.012660 0.877787
vt 0.010644 0.876666
vt 0.009589 0.878598
vt 0.008521 0.876027
vt 0.009836 0.874081
vt 0.012062 0.874824
vt 0.013617 0.872631
vt 0.015057 0.870389
vt 0.015370 0.868830
vt 0.018652 0.869549
vt 0.006584 0.875475
vt 0.007843 0.873181
vt 0.005412 0.874812
vt 0.006527 0.872406
vt 0.982037 0.175872
vt 0.979780 0.175258
vt 0.979848 0.173319
vt 0.982340 0.173916
vt 0.984234 0.176784
vt 0.985187 0.179994
vt 0.986533 0.181412
vt 0.984271 0.183493
vt 0.983233 0.181936
vt 0.980994 0.184824
vt 0.980631 0.183060
vt 0.976806 0.184900
vt 0.014847 0.881350
vt 0.011883 0.882466
vt 0.982962 0.172854
vt 0.973768 0.183296
vn 0.8237 -0.1538 0.5458
vn 0.3892 -0.8722 0.2962
vn 0.4990 -0.8658 0.0362
vn 0.9984 -0.0572 -0.0002
vn 0.6991 -0.2658 -0.6638
vn 0.1879 -0.9695 -0.1570
vn 0.0221 -0.9983 0.0534
vn 0.3493 0.5238 -0.7769
vn 0.2027 0.9354 -0.2897
vn 0.2759 0.9419 -0.1914
vn 0.5116 0.7472 -0.4241
vn 0.6292 0.7771 -0.0128
vn 0.2480 0.9633 -0.1028
vn 0.1478 0.9805 -0.1298
vn 0.1142 0.2843 -0.9519
vn -0.3658 0.1712 -0.9148
vn -0.1159 0.8652 -0.4878
vn 0.0808 0.9087 -0.4096
vn 0.0366 0.9823 -0.1835
vn -0.1796 0.9366 -0.3010
vn -0.7504 0.3610 -0.5536
vn -0.0689 -0.7419 -0.6670
vn -0.4036 -0.7075 -0.5801
vn -0.2620 -0.9458 -0.1919
vn -0.6525 -0.6607 -0.3710
vn -0.9487 0.2721 0.1608
vn -0.6895 -0.6315 0.3546
vn -0.5353 -0.0033 0.8446
vn -0.4927 0.7529 0.4363
vn -0.0215 0.8167 0.5767
vn -0.0932 -0.1563 0.9833
vn -0.2248 -0.8863 0.4048
vn -0.4396 0.8972 -0.0413
vn -0.9936 0.0482 -0.1018
vn -0.5810 -0.8137 0.0197
vn 0.2273 0.9737 -0.0121
vn 0.1538 0.9834 -0.0961
vn 0.1393 0.9902 -0.0064
vn 0.1706 0.9771 0.1269
vn 0.0117 0.9914 -0.1306
vn 0.0064 0.9996 -0.0266
vn 0.0531 0.9812 0.1855
vn 0.2738 -0.8676 0.4150
vn 0.0777 -0.8851 0.4588
vn -0.0999 -0.9852 0.1390
vn -0.0397 -0.9917 0.1227
vn -0.2565 -0.9665 0.0073
vn -0.2751 -0.9584 0.0766
vn -0.4790 -0.8766 -0.0456
vn -0.3831 -0.9195 -0.0882
vn -0.1980 -0.9789 -0.0510
vn -0.0775 -0.9740 -0.2131
vn 0.2236 -0.5897 -0.7760
vn -0.9461 -0.2830 -0.1578
vn -0.8312 -0.5124 -0.2157
vn -0.6507 0.7434 -0.1550
vn -0.7668 0.5794 -0.2761
vn -0.1899 0.9792 -0.0709
vn -0.1966 0.9680 -0.1557
vn -0.1202 0.9860 0.1152
vn 0.2146 0.7422 0.6349
vn 0.2976 -0.1938 0.9348
vn 0.5745 -0.2182 0.7889
vn 0.4318 0.7127 0.5529
vn 0.5998 0.7304 0.3268
f 1/1/1 2/2/2 3/3/3 4/4/4
f 5/5/5 4/4/4 3/3/3 6/6/6
f 7/7/7 6/6/6 3/3/3 2/2/2
f 8/8/8 9/9/9 10/10/10 11/11/11
f 12/12/12 11/11/11 10/10/10 13/13/13
f 14/14/14 13/13/13 10/10/10 9/9/9
f 15/15/15 16/16/16 17/17/17 18/18/18
f 19/19/19 18/18/18 17/17/17 20/20/20
f 21/21/21 20/20/20 17/17/17 16/16/16
f 15/22/15 22/23/22 23/24/23 16/25/16
f 24/26/24 25/27/25 23/24/23 22/23/22
f 21/28/21 16/25/16 23/24/23 25/27/25
f 26/29/26 27/30/27 28/31/28 29/32/29
f 30/33/30 29/32/29 28/31/28 31/34/31
f 32/35/32 31/36/31 28/37/28 27/38/27
f 33/39/33 34/40/34 26/29/26 29/32/29
f 35/41/35 27/38/27 26/42/26 34/43/34
f 36/44/36 37/45/37 38/46/38 39/47/39
f 40/48/40 41/49/41 38/46/38 37/45/37
f 42/50/42 39/47/39 38/46/38 41/49/41
f 43/51/43 44/52/44 45/53/45 46/54/46
f 47/55/47 46/54/46 45/53/45 48/56/48
f 32/35/32 48/56/48 45/53/45 44/52/44
f 35/41/35 49/57/49 47/55/47 48/56/48
f 50/58/50 51/59/51 47/55/47 49/57/49
f 7/7/7 46/54/46 47/55/47 51/59/51
f 24/26/24 52/60/52 51/59/51 50/58/50
f 6/6/6 7/7/7 51/59/51 52/60/52
f 22/23/22 53/61/53 52/60/52 24/26/24
f 5/5/5 6/6/6 52/60/52 53/61/53
f 15/22/15 8/62/8 53/61/53 22/23/22
f 11/63/11 5/5/5 53/61/53 8/62/8
f 54/64/54 55/65/55 50/58/50 49/57/49
f 25/27/25 24/26/24 50/58/50 55/65/55
f 56/66/56 57/67/57 55/65/55 54/64/54
f 21/28/21 25/27/25 55/65/55 57/67/57
f 58/68/58 59/69/59 57/70/57 56/71/56
f 20/20/20 21/21/21 57/70/57 59/69/59
f 41/49/41 40/48/40 59/69/59 58/68/58
f 19/19/19 20/20/20 59/69/59 40/48/40
f 33/39/33 60/72/60 58/68/58 56/71/56
f 42/50/42 41/49/41 58/68/58 60/72/60
f 29/32/29 30/33/30 60/72/60 33/39/33
f 61/73/61 42/50/42 60/72/60 30/33/30
f 31/34/31 62/74/62 61/73/61 30/33/30
f 63/75/63 64/76/64 61/73/61 62/74/62
f 39/47/39 42/50/42 61/73/61 64/76/64
f 1/77/1 65/78/65 64/76/64 63/75/63
f 36/44/36 39/47/39 64/76/64 65/78/65
f 4/79/4 12/12/12 65/78/65 1/77/1
f 13/13/13 36/44/36 65/78/65 12/12/12
f 44/52/44 43/51/43 63/80/63 62/81/62
f 2/2/2 1/1/1 63/80/63 43/51/43
f 32/35/32 44/52/44 62/81/62 31/36/31
f 34/40/34 33/39/33 56/71/56 54/82/54
f 35/41/35 34/43/34 54/64/54 49/57/49
f 27/38/27 35/41/35 48/56/48 32/35/32
f 7/7/7 2/2/2 43/51/43 46/54/46
f 14/14/14 19/19/19 40/48/40 37/45/37
f 13/13/13 14/14/14 37/45/37 36/44/36
f 9/9/9 18/18/18 19/19/19 14/14/14
f 9/9/9 8/8/8 15/15/15 18/18/18
f 5/83/5 11/11/11 12/12/12 4/79/4
