# split from a merged terrain OBJ by scripts/split-terrain-obj-parts.py
o part-082
v 0.846477 1.173456 0.059848
v 0.854149 1.172825 0.056442
v 0.855063 1.177680 0.058918
v 0.848195 1.178046 0.061366
v 0.842981 1.180993 0.053807
v 0.849753 1.181255 0.050184
v 0.851114 1.176740 0.047673
v 0.837386 1.177182 0.056949
v 0.836648 1.172051 0.054742
v 0.842150 1.167547 0.053962
v 0.851581 1.167802 0.053572
v 0.830072 1.173645 0.049967
v 0.832105 1.168244 0.046807
v 0.836326 1.167698 0.042110
v 0.843131 1.166646 0.046755
v 0.833146 1.180396 0.048104
v 0.829039 1.178773 0.031965
v 0.835915 1.173958 0.032763
v 0.831385 1.170545 0.037021
v 0.826728 1.172600 0.038760
v 0.842503 1.172270 0.038828
v 0.825753 1.176347 0.043121
v 0.829360 1.181961 0.039957
v 0.839152 1.183185 0.044897
v 0.835045 1.185206 0.037138
v 0.832584 1.182896 0.030998
v 0.844798 1.183917 0.041839
v 0.840324 1.185417 0.036677
v 0.845679 1.178845 0.039418
v 0.840053 1.180124 0.032017
v 0.848312 1.170395 0.045670
vt 0.990860 0.755825
vt 0.990940 0.750275
vt 0.993442 0.747979
vt 0.993384 0.753737
vt 0.983548 0.653326
vt 0.983714 0.658225
vt 0.979437 0.658553
vt 0.979443 0.652391
vt 0.987101 0.746614
vt 0.988701 0.743947
vt 0.987239 0.653783
vt 0.987018 0.658890
vt 0.990381 0.653833
vt 0.992460 0.657052
vt 0.987834 0.756497
vt 0.988384 0.751765
vt 0.991644 0.649570
vt 0.994804 0.649786
vt 0.979112 0.753286
vt 0.983776 0.752980
vt 0.978689 0.756347
vt 0.987915 0.648563
vt 0.971138 0.747708
vt 0.975517 0.747657
vt 0.975069 0.751756
vt 0.972986 0.753668
vt 0.980013 0.748897
vt 0.989206 0.639573
vt 0.993899 0.643180
vt 0.991535 0.645023
vt 0.987868 0.643764
vt 0.983906 0.647819
vt 0.984286 0.643253
vt 0.985338 0.639661
vt 0.980461 0.647081
vt 0.981472 0.643798
vt 0.981710 0.745104
vt 0.983132 0.742422
vt 0.976938 0.743425
vt 0.979653 0.740787
vt 0.984431 0.749724
vt 0.972472 0.743746
vt 0.980975 0.640160
vn -0.0679 -0.3072 0.9492
vn 0.8674 -0.4015 0.2941
vn 0.7863 0.3562 0.5048
vn 0.0747 0.4616 0.8839
vn -0.1315 0.8766 0.4629
vn 0.5987 0.7987 -0.0592
vn 0.8864 0.0588 -0.4592
vn -0.5245 0.3099 0.7930
vn -0.5654 -0.3509 0.7465
vn -0.1302 -0.8687 0.4779
vn 0.6006 -0.7900 0.1231
vn -0.7946 -0.1285 0.5934
vn -0.5150 -0.8274 0.2239
vn -0.0210 -0.9495 -0.3132
vn 0.1556 -0.9584 -0.2391
vn -0.5097 0.7007 0.4992
vn -0.6475 0.0969 -0.7558
vn 0.1393 -0.5443 -0.8272
vn -0.2365 -0.8147 -0.5294
vn -0.8443 -0.4621 -0.2713
vn 0.5198 -0.5692 -0.6371
vn -0.9566 0.1322 0.2597
vn -0.7069 0.6971 0.1200
vn -0.1255 0.9413 0.3133
vn -0.2042 0.9737 -0.1008
vn -0.2626 0.5516 -0.7917
vn 0.5255 0.8388 -0.1425
vn 0.3759 0.8790 -0.2935
vn 0.8032 0.0653 -0.5921
vn 0.4928 0.1469 -0.8576
vn 0.6368 -0.5896 -0.4968
f 1/1/1 2/2/2 3/3/3 4/4/4
f 5/5/5 4/6/4 3/7/3 6/8/6
f 7/9/7 6/10/6 3/3/3 2/2/2
f 8/11/8 1/12/1 4/6/4 5/5/5
f 8/11/8 9/13/9 10/14/10 1/12/1
f 2/2/2 1/1/1 10/15/10 11/16/11
f 12/17/12 13/18/13 10/14/10 9/13/9
f 14/19/14 15/20/15 10/15/10 13/21/13
f 16/22/16 12/17/12 9/13/9 8/11/8
f 17/23/17 18/24/18 19/25/19 20/26/20
f 21/27/21 14/19/14 19/25/19 18/24/18
f 13/21/13 20/26/20 19/25/19 14/19/14
f 17/28/17 20/29/20 22/30/22 23/31/23
f 16/22/16 23/31/23 22/30/22 12/17/12
f 13/18/13 12/17/12 22/30/22 20/29/20
f 24/32/24 25/33/25 23/31/23 16/22/16
f 26/34/26 17/28/17 23/31/23 25/33/25
f 6/8/6 27/35/27 24/32/24 5/5/5
f 28/36/28 25/33/25 24/32/24 27/35/27
f 8/11/8 5/5/5 24/32/24 16/22/16
f 7/9/7 29/37/29 27/38/27 6/10/6
f 30/39/30 28/40/28 27/38/27 29/37/29
f 31/41/31 21/27/21 29/37/29 7/9/7
f 18/24/18 30/39/30 29/37/29 21/27/21
f 15/20/15 14/19/14 21/27/21 31/41/31
f 26/42/26 30/39/30 18/24/18 17/23/17
f 2/2/2 11/16/11 31/41/31 7/9/7
f 31/41/31 11/16/11 10/15/10 15/20/15
f 26/34/26 25/33/25 28/36/28 30/43/30
