# split from a merged terrain OBJ by scripts/split-terrain-obj-parts.py
o part-debris
v 0.922652 0.037282 -0.024401
v 0.922061 0.033198 -0.015004
v 0.926249 0.026457 -0.020092
v 0.926902 0.028991 -0.027573
v 0.921245 0.027320 -0.010195
v 0.922570 0.019857 -0.019696
v 0.923013 0.021157 -0.030628
v 0.920989 0.028744 -0.037990
v 0.924341 0.031910 -0.034452
v 0.918124 0.033830 -0.038194
v 0.920148 0.036610 -0.033878
v 0.914213 0.020577 -0.020648
v 0.914403 0.024362 -0.011680
v 0.911944 0.032527 -0.016242
v 0.913734 0.021835 -0.030705
v 0.913986 0.027023 -0.038198
v 0.909279 0.028347 -0.028973
v 0.912008 0.032114 -0.035910
v 0.909815 0.026500 -0.022142
v 0.912724 0.036324 -0.032369
v 0.911282 0.036689 -0.024957
v 0.933182 0.023470 -0.000581
v 0.933259 0.022912 0.000106
v 0.933638 0.022576 -0.000391
v 0.933612 0.022847 -0.000998
v 0.932770 0.022184 0.000232
v 0.933331 0.022105 -0.000538
v 0.933527 0.022355 -0.001317
v 0.932414 0.022315 -0.000744
v 0.932664 0.022715 -0.001363
v 0.933002 0.023081 -0.001507
v 0.932533 0.023778 -0.000322
v 0.931803 0.023543 -0.000174
v 0.932079 0.023358 0.000449
v 0.932625 0.023252 0.000425
v 0.932319 0.022529 0.000733
v 0.931973 0.022607 0.000244
v 0.931832 0.022978 -0.000529
v 0.932301 0.022188 -0.000106
v 0.932897 0.023604 -0.001159
v 0.932239 0.023359 -0.001144
v -0.417091 0.928326 0.006686
v -0.416473 0.926791 0.006311
v -0.415525 0.927718 0.007773
v -0.415301 0.928864 0.007703
v -0.413678 0.927967 0.008146
v -0.413704 0.926674 0.007100
v -0.414544 0.926176 0.005334
v -0.413810 0.929304 0.006383
v -0.412714 0.928701 0.007211
v -0.412475 0.927432 0.006049
v -0.412966 0.926841 0.004741
v -0.412923 0.928343 0.005487
v -0.414027 0.928243 0.004457
v -0.415682 0.927944 0.003618
v -0.415807 0.929430 0.005387
v -0.416883 0.927274 0.003372
v -0.417691 0.929029 0.004872
v -0.418178 0.927244 0.005063
v -0.039039 0.930884 0.033561
v -0.041208 0.937254 0.035357
v -0.037702 0.934719 0.039782
v -0.036510 0.929722 0.039753
v -0.038815 0.929483 0.043531
v -0.040489 0.933368 0.043594
v -0.045324 0.934258 0.040950
v -0.044924 0.928708 0.042691
v -0.041520 0.924976 0.038704
v -0.046040 0.930055 0.031356
v -0.045726 0.935307 0.032036
v -0.050779 0.934260 0.036356
v -0.050478 0.929258 0.037213
v -0.039964 0.925984 0.034237
v -0.045343 0.926272 0.033347
v -0.048115 0.925625 0.037047
v 0.500066 0.381002 -0.004040
v 0.502113 0.380758 -0.005522
v 0.505690 0.373635 -0.005387
v 0.501808 0.376697 -0.004941
v 0.501615 0.380621 -0.005052
v 0.505962 0.371735 -0.003900
v 0.505680 0.369834 -0.004326
v 0.510445 0.368211 -0.004507
v 0.499511 0.384441 -0.004488
v 0.501694 0.383789 -0.005210
v 0.510412 0.366161 -0.003222
v 0.511491 0.368537 -0.005238
v -0.906475 0.042158 0.025600
v -0.903092 0.039084 0.019443
v -0.897822 0.045086 0.022835
v -0.902431 0.044064 0.026552
v -0.903650 0.043618 0.014439
v -0.902647 0.050836 0.019703
v -0.908114 0.048943 0.024197
v -0.911682 0.042655 0.022045
v -0.911443 0.039105 0.018628
v -0.909383 0.043376 0.012533
v -0.908318 0.051783 0.016497
v -0.912779 0.049707 0.020527
v -0.913998 0.044433 0.015829
v 0.668048 0.038562 -0.052780
v 0.668831 0.033726 -0.051874
v 0.671209 0.033174 -0.055717
v 0.670785 0.037416 -0.057063
v 0.665853 0.033601 -0.060225
v 0.664244 0.032793 -0.058306
v 0.663976 0.034560 -0.054198
v 0.664232 0.039904 -0.054778
v 0.668340 0.040564 -0.058207
v 0.665184 0.037898 -0.061353
v 0.661108 0.037669 -0.060301
v 0.715521 0.078898 0.020006
v 0.711257 0.084390 0.032857
v 0.718240 0.082030 0.029666
v 0.717109 0.072103 0.023252
v 0.712987 0.068305 0.032052
v 0.717090 0.076290 0.037725
v 0.710857 0.076576 0.040063
v 0.705767 0.070143 0.032465
v 0.706288 0.070585 0.020669
v 0.701845 0.079921 0.023153
v 0.701311 0.077140 0.032725
v 0.754100 0.321669 -0.003834
v 0.755827 0.323258 -0.006032
v 0.754034 0.327263 -0.005111
v 0.753120 0.327389 -0.004995
v 0.755632 0.323045 -0.008286
v 0.754362 0.321258 -0.008255
v 0.753637 0.319724 -0.005749
v 0.754366 0.321171 -0.008490
v 0.644252 0.320665 -0.008579
v 0.644592 0.320007 -0.008723
v 0.643971 0.323555 -0.008456
v 0.641919 0.321728 -0.009077
v 0.752469 0.361553 -0.004918
v 0.752807 0.359894 -0.003038
v 0.753699 0.357572 -0.005423
v 0.751185 0.361496 -0.004593
v 0.378508 0.366949 -0.009396
v 0.379164 0.366159 -0.007067
v 0.378746 0.368527 -0.008813
v 0.380185 0.366143 -0.008092
v -0.860936 0.776801 -0.046122
v -0.861580 0.777885 -0.046968
v -0.861134 0.777142 -0.046461
v -0.860936 0.776801 -0.046122
v -0.861240 0.775797 -0.045522
v -0.860388 0.775711 -0.045139
v -0.865263 0.372547 -0.003544
v -0.865940 0.371642 -0.002459
v -0.865776 0.373471 -0.002140
v -0.867432 0.394527 -0.001337
v -0.866452 0.390861 -0.002070
v -0.866479 0.390777 -0.001161
v -0.866687 0.396426 -0.001419
v -0.867432 0.394527 -0.001337
v -0.863235 0.396680 -0.001394
v 0.641919 0.321728 -0.009077
v 0.642064 0.325048 -0.008873
v 0.643971 0.323555 -0.008456
v 0.756786 0.382061 -0.003774
v 0.755830 0.382242 -0.003053
v 0.756913 0.381553 -0.003821
v 0.758857 0.377914 -0.004445
v 0.755126 0.383218 -0.003024
v 0.757090 0.383545 -0.003823
v 0.753614 0.349731 -0.004066
v 0.753597 0.352348 -0.005820
v 0.753092 0.352451 -0.003747
v 0.757090 0.383545 -0.003823
v 0.755126 0.383218 -0.003024
v 0.758857 0.377914 -0.004445
v 0.896022 0.347944 -0.008265
v 0.894705 0.347890 -0.006761
v 0.894927 0.346239 -0.008119
v 0.468408 0.571675 -0.036927
v 0.463648 0.570665 -0.034861
v 0.463449 0.571221 -0.035171
v 0.242103 0.365683 -0.018935
v 0.242068 0.365946 -0.018992
v 0.242122 0.365450 -0.018814
v 0.385597 0.380912 -0.006377
v 0.384099 0.382050 -0.005981
v 0.382575 0.382848 -0.005865
v 0.371815 0.382192 -0.005350
v 0.372063 0.380540 -0.005570
v 0.372004 0.382325 -0.005825
v 0.371815 0.382192 -0.005350
v 0.372004 0.382325 -0.005825
v 0.373932 0.383954 -0.005746
v 0.371815 0.382192 -0.005350
v 0.373932 0.383954 -0.005746
v 0.380003 0.384364 -0.006239
v 0.118979 0.406965 -0.004947
v 0.121276 0.406309 -0.004776
v 0.118891 0.406537 -0.004592
v 0.118979 0.406965 -0.004947
v 0.118891 0.406537 -0.004592
v 0.115605 0.405769 -0.004428
v 0.509327 0.362876 -0.002632
v 0.510517 0.357077 -0.004254
v 0.509661 0.357535 -0.004023
v -0.876085 0.030171 0.018193
v -0.869552 0.027802 0.017180
v -0.873517 0.027794 0.017758
v -0.174754 0.935291 0.098203
v -0.175168 0.935555 0.098339
v -0.175607 0.935513 0.097797
v -0.860936 0.776801 -0.046122
v -0.861240 0.775797 -0.045522
v -0.861134 0.777142 -0.046461
v -0.430828 0.268686 -0.005042
v -0.430628 0.267494 -0.004046
v -0.432198 0.274753 0.000725
v -0.861203 0.326794 -0.009369
v -0.862740 0.320609 -0.005252
v -0.858209 0.328725 -0.004875
v -0.862788 0.364498 -0.003582
v -0.863823 0.361465 -0.003216
v -0.864603 0.366745 -0.002809
v -0.861880 0.354028 -0.003066
v -0.862769 0.351511 -0.004215
v -0.863449 0.356540 -0.003719
v 0.753462 0.311926 -0.006060
v 0.754248 0.315641 -0.003862
v 0.754331 0.309827 -0.005428
v 0.118979 0.406965 -0.004947
v 0.121276 0.406309 -0.004776
v 0.122452 0.409320 -0.005596
v 0.505962 0.371735 -0.003900
v 0.510412 0.366161 -0.003222
v 0.509327 0.362876 -0.002632
v 0.501615 0.380621 -0.005052
v 0.501819 0.383985 -0.005245
v 0.501694 0.383789 -0.005210
v 0.600833 0.942495 0.062986
v 0.603861 0.945026 0.064085
v 0.604954 0.949815 0.066654
v 0.144013 0.960158 -0.054077
v 0.145742 0.963432 -0.052562
v 0.141753 0.964074 -0.053449
v 0.786535 0.112066 0.012777
v 0.784854 0.110014 0.013887
v 0.786085 0.107181 0.012442
v -0.856331 0.759708 -0.037832
v -0.853296 0.767942 -0.035916
v -0.860696 0.759467 -0.030011
v -0.302244 0.365810 -0.002483
v -0.301438 0.364836 -0.005176
v -0.306238 0.365481 -0.005757
v -0.860240 0.337864 -0.004000
v -0.860314 0.341437 -0.005061
v -0.859907 0.337524 -0.005631
v -0.861106 0.343570 -0.003522
v -0.861599 0.346359 -0.005103
v -0.860314 0.341437 -0.005061
v -0.861106 0.343570 -0.003522
v -0.860314 0.341437 -0.005061
v -0.860240 0.337864 -0.004000
v -0.864249 0.368871 -0.004107
v -0.864603 0.366745 -0.002809
v -0.865940 0.371642 -0.002459
v -0.864249 0.368871 -0.004107
v -0.865940 0.371642 -0.002459
v -0.865263 0.372547 -0.003544
v -0.864603 0.366745 -0.002809
v -0.862788 0.364498 -0.003582
v -0.864249 0.368871 -0.004107
v -0.862008 0.359097 -0.003144
v -0.863449 0.356540 -0.003719
v -0.863823 0.361465 -0.003216
v -0.862008 0.359097 -0.003144
v -0.863823 0.361465 -0.003216
v -0.862788 0.364498 -0.003582
v -0.863449 0.356540 -0.003719
v -0.861880 0.354028 -0.003066
v -0.862008 0.359097 -0.003144
v -0.861827 0.348955 -0.003185
v -0.861599 0.346359 -0.005103
v -0.862769 0.351511 -0.004215
v -0.861827 0.348955 -0.003185
v -0.862769 0.351511 -0.004215
v -0.861880 0.354028 -0.003066
v -0.861599 0.346359 -0.005103
v -0.861106 0.343570 -0.003522
v -0.861827 0.348955 -0.003185
v -0.669982 0.267303 -0.006294
v -0.668296 0.261005 -0.006209
v -0.666330 0.261507 -0.011538
v 0.641919 0.321728 -0.009077
v 0.643224 0.320408 -0.009058
v 0.644592 0.320007 -0.008723
v 0.645133 0.301096 -0.006597
v 0.642549 0.303910 -0.008143
v 0.645142 0.305024 -0.007713
v 0.753699 0.357572 -0.005423
v 0.752710 0.357774 -0.003211
v 0.751185 0.361496 -0.004593
v 0.754248 0.315641 -0.003862
v 0.754100 0.321669 -0.003834
v 0.753637 0.319724 -0.005749
v 0.754248 0.315641 -0.003862
v 0.753637 0.319724 -0.005749
v 0.753462 0.311926 -0.006060
v 0.429602 0.572513 -0.022912
v 0.428862 0.565278 -0.030244
v 0.432330 0.571560 -0.031022
v 0.393364 0.505655 0.033326
v 0.400385 0.499115 0.032538
v 0.397641 0.503949 0.034269
v 0.379963 0.355387 -0.009449
v 0.378745 0.360940 -0.009916
v 0.377629 0.355549 -0.009774
v 0.380185 0.366143 -0.008092
v 0.378508 0.366949 -0.009396
v 0.378745 0.360940 -0.009916
v 0.382575 0.382848 -0.005865
v 0.385597 0.380912 -0.006377
v 0.380003 0.384364 -0.006239
v 0.666421 0.571925 -0.025468
v 0.669156 0.571163 -0.028746
v 0.672571 0.569005 -0.024898
vt 0.994854 0.262121
vt 0.990699 0.263188
vt 0.986831 0.257184
vt 0.987386 0.253823
vt 0.987079 0.262619
vt 0.981931 0.260162
vt 0.977046 0.256002
vt 0.016723 0.751273
vt 0.014529 0.745805
vt 0.017277 0.744267
vt 0.020725 0.744949
vt 0.012875 0.743360
vt 0.014811 0.741332
vt 0.017917 0.737366
vt 0.980965 0.266212
vt 0.985017 0.266248
vt 0.987647 0.268657
vt 0.008525 0.750380
vt 0.010738 0.746507
vt 0.005507 0.744293
vt 0.009773 0.743604
vt 0.981761 0.270704
vt 0.009972 0.740254
vt 0.008657 0.737536
vt 0.976337 0.265753
vt 0.979090 0.273766
vt 0.988965 0.273448
vt 0.705783 0.976415
vt 0.706130 0.975901
vt 0.706281 0.976235
vt 0.706179 0.976567
vt 0.706740 0.975852
vt 0.706599 0.976297
vt 0.706451 0.976659
vt 0.707038 0.976613
vt 0.706695 0.977040
vt 0.706295 0.977033
vt 0.691039 0.024276
vt 0.690647 0.024258
vt 0.690636 0.023954
vt 0.690817 0.023758
vt 0.690417 0.023653
vt 0.690297 0.023913
vt 0.690356 0.024318
vt 0.691090 0.023382
vt 0.690265 0.023396
vt 0.689972 0.023889
vt 0.705893 0.976913
vt 0.690214 0.025107
vt 0.690598 0.024772
vt 0.691120 0.024910
vt 0.690689 0.025208
vt 0.691375 0.024226
vt 0.689981 0.024421
vt 0.707090 0.976159
vt 0.006596 0.950904
vt 0.007497 0.950990
vt 0.006925 0.951940
vt 0.006042 0.951464
vt 0.006072 0.952617
vt 0.007828 0.952635
vt 0.008999 0.950822
vt 0.005030 0.951075
vt 0.005032 0.952238
vt 0.969039 0.228148
vt 0.969327 0.228935
vt 0.968375 0.229090
vt 0.968078 0.227971
vt 0.968503 0.226854
vt 0.969222 0.227480
vt 0.969666 0.228107
vt 0.970162 0.227356
vt 0.970044 0.226294
vt 0.970085 0.228853
vt 0.971079 0.228225
vt 0.007829 0.949697
vt 0.008086 0.948489
vt 0.006749 0.949390
vt 0.006796 0.950010
vt 0.005064 0.949054
vt 0.006416 0.948391
vt 0.663663 0.022128
vt 0.660847 0.019061
vt 0.663074 0.017819
vt 0.665376 0.017843
vt 0.664739 0.014908
vt 0.662482 0.015715
vt 0.658584 0.014634
vt 0.661397 0.013148
vt 0.780592 0.018288
vt 0.777506 0.017044
vt 0.780143 0.014747
vt 0.783672 0.016271
vt 0.659990 0.024256
vt 0.658834 0.020706
vt 0.655461 0.018015
vt 0.784920 0.020906
vt 0.787471 0.021234
vt 0.784864 0.025199
vt 0.781802 0.023935
vt 0.776422 0.021912
vt 0.779023 0.020304
vt 0.781296 0.021828
vt 0.782989 0.020140
vt 0.786891 0.016735
vt 0.885208 0.992368
vt 0.884802 0.994041
vt 0.880959 0.993733
vt 0.882900 0.992370
vt 0.872662 0.994488
vt 0.867244 0.993377
vt 0.868244 0.991926
vt 0.872873 0.993569
vt 0.879353 0.992524
vt 0.877476 0.994214
vt 0.884617 0.991512
vt 0.886670 0.991568
vt 0.873538 0.994204
vt 0.873902 0.993306
vt 0.874365 0.994821
vt 0.876551 0.993065
vt 0.876918 0.994465
vt 0.879742 0.991479
vt 0.862922 0.992080
vt 0.864230 0.990433
vt 0.864662 0.990106
vt 0.626228 0.012594
vt 0.632278 0.013624
vt 0.629038 0.016105
vt 0.626404 0.014895
vt 0.632709 0.019993
vt 0.627609 0.019525
vt 0.623763 0.018174
vt 0.622969 0.012345
vt 0.139839 0.018551
vt 0.136890 0.015491
vt 0.140017 0.013680
vt 0.143697 0.016865
vt 0.626899 0.022696
vt 0.632782 0.023534
vt 0.142987 0.021144
vt 0.139511 0.021469
vt 0.623146 0.021769
vt 0.136995 0.018902
vt 0.135423 0.022217
vt 0.132710 0.018944
vt 0.136981 0.024741
vt 0.049493 0.989369
vt 0.048241 0.991197
vt 0.044195 0.991615
vt 0.047729 0.988036
vt 0.949187 0.990748
vt 0.950187 0.994268
vt 0.947838 0.993996
vt 0.947892 0.990150
vt 0.051327 0.992827
vt 0.053300 0.995000
vt 0.051647 0.990097
vt 0.052629 0.987385
vt 0.951610 0.990225
vt 0.952165 0.993108
vt 0.054577 0.991548
vt 0.056276 0.990423
vt 0.055763 0.994483
vt 0.016364 0.472154
vt 0.017631 0.465161
vt 0.023239 0.467028
vt 0.017576 0.475822
vt 0.834322 0.020582
vt 0.837172 0.015495
vt 0.841323 0.021026
vt 0.837485 0.025115
vt 0.016577 0.459070
vt 0.019866 0.460130
vt 0.830370 0.021792
vt 0.834314 0.026659
vt 0.007011 0.475735
vt 0.010885 0.470781
vt 0.009987 0.466152
vt 0.830936 0.015321
vt 0.006552 0.464289
vt 0.007887 0.053037
vt 0.006221 0.052928
vt 0.005961 0.050684
vt 0.006409 0.050326
vt 0.687232 0.037162
vt 0.688430 0.037237
vt 0.686478 0.039967
vt 0.686045 0.039660
vt 0.005124 0.053429
vt 0.007289 0.054707
vt 0.005496 0.054686
vt 0.689709 0.038193
vt 0.688544 0.037099
vt 0.689384 0.039884
vt 0.975129 0.664464
vt 0.974745 0.664257
vt 0.976615 0.664212
vt 0.026574 0.163132
vt 0.026655 0.164620
vt 0.025375 0.164097
vt 0.025001 0.164262
vt 0.975822 0.662984
vt 0.963181 0.368843
vt 0.963912 0.367737
vt 0.965388 0.368782
vt 0.745447 0.971821
vt 0.746336 0.973952
vt 0.744844 0.973128
vt 0.962581 0.368353
vt 0.746320 0.971876
vt 0.025988 0.610699
vt 0.027005 0.611491
vt 0.025470 0.611471
vt 0.153463 0.977159
vt 0.153383 0.975733
vt 0.154270 0.976956
vt 0.152646 0.976271
vt 0.027204 0.610704
vt 0.043520 0.283355
vt 0.042713 0.283405
vt 0.043244 0.283339
vt 0.401795 0.972954
vt 0.401828 0.972311
vt 0.402327 0.972311
vt 0.115222 0.972183
vt 0.115801 0.972783
vt 0.114842 0.973038
vt 0.402547 0.965779
vt 0.401637 0.963935
vt 0.402094 0.963769
vt 0.006236 0.971592
vt 0.005169 0.971385
vt 0.007333 0.970113
vt 0.977191 0.989113
vt 0.975913 0.987888
vt 0.977191 0.987615
vt 0.040334 0.283569
vt 0.039689 0.283569
vt 0.040442 0.283312
vt 0.961887 0.586073
vt 0.960762 0.582725
vt 0.961887 0.582916
vt 0.149141 0.976256
vt 0.147605 0.976927
vt 0.147730 0.975798
vt 0.005917 0.962908
vt 0.005086 0.962126
vt 0.008434 0.961001
vt 0.974928 0.583107
vt 0.973864 0.583107
vt 0.974461 0.582132
vt 0.401757 0.958515
vt 0.402111 0.961306
vt 0.401757 0.961325
vt 0.034711 0.283383
vt 0.034659 0.283248
vt 0.034795 0.283495
vt 0.727223 0.051700
vt 0.727180 0.050678
vt 0.727339 0.049774
vt 0.727536 0.039262
vt 0.727043 0.040010
vt 0.727313 0.039090
vt 0.727257 0.042126
vt 0.727514 0.042241
vt 0.727514 0.043584
vt 0.945174 0.994434
vt 0.944306 0.993233
vt 0.944306 0.989985
vt 0.115610 0.968690
vt 0.115610 0.969964
vt 0.115312 0.968721
vt 0.402093 0.968116
vt 0.402368 0.968235
vt 0.402288 0.970030
vt 0.944819 0.367203
vt 0.948065 0.367566
vt 0.947672 0.367923
vt 0.962437 0.993656
vt 0.958922 0.994924
vt 0.960563 0.993563
vt 0.037448 0.283558
vt 0.037177 0.283547
vt 0.037090 0.283186
vt 0.727414 0.036338
vt 0.727155 0.036927
vt 0.727340 0.036072
vt 0.006125 0.057729
vt 0.006706 0.057131
vt 0.008920 0.061273
vt 0.690912 0.045989
vt 0.686876 0.046098
vt 0.690692 0.042945
vt 0.968834 0.367212
vt 0.970466 0.367743
vt 0.967673 0.368300
vt 0.691893 0.028227
vt 0.691893 0.029773
vt 0.690472 0.027462
vt 0.625879 0.961029
vt 0.627273 0.959156
vt 0.626302 0.962210
vt 0.427745 0.977534
vt 0.426570 0.977039
vt 0.427138 0.975358
vt 0.005141 0.081876
vt 0.007362 0.084974
vt 0.006698 0.086719
vt 0.045778 0.283353
vt 0.047574 0.283373
vt 0.047464 0.283433
vt 0.006914 0.066472
vt 0.005423 0.064882
vt 0.005080 0.061952
vt 0.966278 0.584257
vt 0.964343 0.585144
vt 0.964234 0.582945
vt 0.686307 0.025181
vt 0.685958 0.023691
vt 0.687591 0.022901
vt 0.941967 0.990081
vt 0.941967 0.994861
vt 0.937200 0.990067
vt 0.970175 0.584614
vt 0.968625 0.584934
vt 0.968625 0.582339
vt 0.006768 0.973675
vt 0.006733 0.975658
vt 0.005866 0.973729
vt 0.027697 0.208988
vt 0.025978 0.209139
vt 0.028221 0.207624
vt 0.038425 0.208638
vt 0.036977 0.208831
vt 0.035604 0.207399
vt 0.974975 0.227399
vt 0.974561 0.228673
vt 0.973451 0.226203
vt 0.379779 0.972172
vt 0.381215 0.973473
vt 0.380611 0.974047
vt 0.270426 0.974287
vt 0.270748 0.972729
vt 0.271505 0.975079
vt 0.026576 0.006471
vt 0.024984 0.006471
vt 0.027180 0.005002
vt 0.691114 0.034772
vt 0.690982 0.033190
vt 0.692327 0.032124
vt 0.971385 0.991491
vt 0.972999 0.991476
vt 0.970734 0.992943
vt 0.031664 0.208833
vt 0.030652 0.207440
vt 0.033208 0.208702
vt 0.029080 0.164140
vt 0.030258 0.163134
vt 0.031729 0.163613
vt 0.006723 0.029206
vt 0.005082 0.029740
vt 0.006912 0.027495
vt 0.960472 0.991396
vt 0.960747 0.987938
vt 0.963769 0.988202
vt 0.727194 0.047516
vt 0.727050 0.046539
vt 0.727355 0.045822
vt 0.375343 0.972828
vt 0.376996 0.974269
vt 0.375653 0.974979
vt 0.431075 0.972332
vt 0.430596 0.973533
vt 0.428565 0.972535
vt 0.148950 0.970283
vt 0.148474 0.973456
vt 0.147589 0.972278
vt 0.958369 0.227835
vt 0.960680 0.228538
vt 0.956611 0.229370
vt 0.686096 0.059129
vt 0.689953 0.055215
vt 0.690675 0.058987
vt 0.008586 0.080583
vt 0.006731 0.075808
vt 0.008823 0.078093
vt 0.967889 0.992784
vt 0.965642 0.994824
vt 0.966811 0.992137
vt 0.376025 0.965299
vt 0.375223 0.964394
vt 0.378199 0.963186
vt 0.727517 0.055430
vt 0.727065 0.057305
vt 0.727466 0.053830
vt 0.005177 0.967378
vt 0.005021 0.965076
vt 0.007990 0.965076
vn 0.4853 0.8621 0.1459
vn 0.4591 0.5935 0.6610
vn 0.9701 -0.0776 0.2300
vn 0.9903 0.0502 -0.1295
vn 0.3147 -0.1055 0.9433
vn 0.5086 -0.8252 0.2456
vn 0.4997 -0.7781 -0.3807
vn 0.4119 -0.1898 -0.8912
vn 0.8372 0.2484 -0.4872
vn 0.0412 0.4977 -0.8664
vn 0.3171 0.8441 -0.4323
vn -0.4892 -0.8487 0.2007
vn -0.4666 -0.3657 0.8054
vn -0.6732 0.4795 0.5629
vn -0.4699 -0.8036 -0.3652
vn -0.4044 -0.4039 -0.8206
vn -0.9806 -0.1315 -0.1455
vn -0.7129 0.2512 -0.6548
vn -0.9599 -0.2408 0.1439
vn -0.5347 0.7895 -0.3012
vn -0.6297 0.7674 0.1205
vn 0.6151 0.7872 0.0443
vn 0.7574 0.1843 0.6264
vn 0.9360 -0.0959 0.3386
vn 0.9285 0.1844 -0.3222
vn 0.2034 -0.7976 0.5678
vn 0.4618 -0.8862 0.0366
vn 0.4689 -0.5780 -0.6679
vn -0.5078 -0.7706 -0.3851
vn -0.3191 -0.3260 -0.8899
vn 0.2587 0.3498 -0.9004
vn -0.0016 0.9934 0.1143
vn -0.7717 0.6232 0.1267
vn -0.5508 0.4899 0.6758
vn 0.2508 0.5141 0.8203
vn -0.1102 -0.3338 0.9362
vn -0.8088 -0.4257 0.4056
vn -0.9548 -0.0654 -0.2900
vn -0.4981 -0.8671 0.0018
vn 0.1982 0.7978 -0.5694
vn -0.5750 0.4189 -0.7028
vn -0.7122 0.2268 0.6643
vn -0.3651 -0.8749 0.3183
vn -0.3568 -0.4660 0.8096
vn -0.2888 0.5092 0.8107
vn 0.3268 0.0339 0.9445
vn 0.3158 -0.7643 0.5623
vn 0.1390 -0.9636 -0.2284
vn 0.3084 0.9507 0.0311
vn 0.7867 0.4415 0.4314
vn 0.9731 -0.2264 -0.0433
vn 0.6653 -0.4693 -0.5806
vn 0.6832 0.5669 -0.4603
vn 0.3923 0.3684 -0.8429
vn -0.1077 -0.0041 -0.9942
vn -0.1208 0.9769 -0.1764
vn -0.5711 -0.4415 -0.6920
vn -0.5841 0.7746 -0.2424
vn -0.9768 -0.2127 -0.0233
vn 0.7068 -0.0414 -0.7062
vn 0.3266 0.9014 -0.2843
vn 0.7182 0.6662 0.2007
vn 0.9521 -0.2179 0.2144
vn 0.4051 -0.2568 0.8775
vn 0.1506 0.4993 0.8532
vn -0.3971 0.6350 0.6627
vn -0.3473 -0.3563 0.8674
vn 0.2300 -0.9503 0.2096
vn -0.2592 -0.1317 -0.9568
vn -0.2377 0.6364 -0.7339
vn -0.8683 0.4961 -0.0022
vn -0.9528 -0.2912 0.0857
vn 0.4867 -0.6922 -0.5329
vn -0.2011 -0.6995 -0.6857
vn -0.5433 -0.8395 0.0064
vn 0.8302 0.1467 -0.5379
vn 0.6974 0.2754 -0.6617
vn 0.7005 0.2900 -0.6521
vn -0.9595 -0.2798 0.0320
vn 0.5886 0.1588 0.7927
vn 0.1042 0.2254 0.9687
vn -0.7842 -0.6203 -0.0165
vn -0.3025 -0.4730 -0.8275
vn -0.8143 -0.2899 0.5028
vn -0.8147 -0.3977 0.4219
vn 0.7690 -0.6367 0.0564
vn 0.8611 0.1049 -0.4975
vn -0.1775 -0.5021 0.8464
vn 0.4680 -0.8743 -0.1285
vn 0.9569 0.0140 0.2902
vn 0.3037 -0.1099 0.9464
vn 0.5390 -0.1547 -0.8280
vn 0.5841 0.8067 -0.0899
vn -0.2727 0.5862 0.7629
vn -0.6910 -0.4463 0.5686
vn -0.4225 -0.8976 -0.1260
vn -0.2516 -0.1795 -0.9511
vn -0.0821 0.8757 -0.4758
vn -0.7642 0.6126 0.2019
vn -0.9572 0.0169 -0.2891
vn 0.2744 0.5156 0.8117
vn 0.2434 -0.4326 0.8681
vn 0.7467 -0.6614 0.0710
vn 0.9511 0.2231 -0.2137
vn 0.2313 -0.4192 -0.8779
vn -0.4341 -0.8326 -0.3440
vn -0.6377 -0.4528 0.6231
vn -0.5024 0.7143 0.4872
vn 0.4202 0.8308 -0.3648
vn -0.0051 0.3310 -0.9436
vn -0.8870 0.1967 -0.4178
vn 0.2307 0.5794 -0.7817
vn 0.0299 0.9276 0.3723
vn 0.8972 0.4376 0.0587
vn 0.6692 -0.3963 -0.6286
vn 0.3857 -0.8876 0.2519
vn 0.6930 -0.0711 0.7174
vn -0.0958 0.0016 0.9954
vn -0.5522 -0.7373 0.3892
vn -0.3710 -0.6336 -0.6789
vn -0.7298 0.3616 -0.5802
vn -0.9247 0.2670 0.2713
vn -0.0605 -0.3625 0.9300
vn 0.9637 -0.0164 0.2665
vn 0.5176 0.8548 -0.0383
vn -0.4625 0.8866 -0.0039
vn 0.6078 0.1357 -0.7824
vn -0.8707 0.2870 -0.3993
vn -0.2650 -0.9603 0.0872
vn -0.1150 -0.5762 -0.8091
vn -0.0050 -0.1676 0.9858
vn 0.5238 -0.8503 -0.0521
vn 0.1921 0.9728 0.1298
vn -0.9746 0.0762 -0.2108
vn 0.3663 0.8299 -0.4209
vn 0.1832 -0.1673 0.9687
vn 0.3782 -0.8572 -0.3497
vn -0.8431 0.5349 -0.0553
vn -0.5143 -0.2079 -0.8320
vn -0.1508 -0.4314 0.8895
vn -0.1796 0.9680 -0.1752
vn 0.8669 -0.4984 -0.0023
vn -0.4242 0.7139 -0.5572
vn 0.4391 -0.7334 0.5190
vn 0.1201 -0.2827 0.9517
vn -0.2940 0.5543 0.7786
vn -0.8909 0.1544 -0.4271
vn -0.9673 -0.2483 -0.0518
vn -0.0107 0.0473 0.9988
vn 0.4723 0.6468 -0.5988
vn 0.3804 -0.8981 0.2208
vn -0.7726 -0.6342 -0.0306
vn -0.9975 0.0688 -0.0167
vn -0.5186 -0.1341 -0.8444
vn 0.2193 0.7799 0.5862
vn -0.1124 0.8076 0.5790
vn 0.9398 0.1391 -0.3121
vn 0.2125 -0.6622 0.7186
vn -0.9558 -0.2095 -0.2063
vn -0.6484 -0.1561 0.7452
vn -0.9914 -0.0377 0.1254
vn -0.7985 -0.3827 -0.4646
vn 0.5470 -0.7896 -0.2779
vn -0.6348 0.7113 -0.3019
vn -0.2518 -0.2110 0.9445
vn 0.8687 -0.3732 0.3257
vn 0.7119 0.2534 0.6549
vn -0.3107 -0.5462 -0.7779
vn 0.3809 0.6498 -0.6578
vn -0.0337 -0.9036 -0.4272
vn -0.2919 0.2957 0.9096
vn 0.7689 -0.5589 0.3106
vn -0.8344 0.3778 -0.4012
vn -0.3927 0.8438 -0.3658
vn 0.3593 0.5172 -0.7768
vn 0.1803 0.6402 -0.7467
vn 0.3297 -0.8198 -0.4682
vn 0.1717 0.9696 0.1745
vn -0.3891 -0.4801 0.7862
vn -0.0724 0.6420 -0.7633
vn 0.3931 -0.1431 0.9083
vn 0.2842 -0.9584 0.0270
vn 0.3457 0.2220 -0.9117
vn 0.0745 0.1261 0.9892
vn -0.9620 -0.2566 0.0930
vn -0.1191 -0.6193 -0.7761
vn -0.1910 -0.3810 0.9046
vn 0.0348 -0.5920 -0.8052
vn 0.8681 -0.1758 -0.4642
vn -0.0831 -0.0718 -0.9940
vn -0.2402 0.9069 -0.3462
vn 0.5021 -0.1320 -0.8547
vn -0.1443 0.0252 -0.9892
vn -0.4010 -0.8294 0.3890
vn 0.3409 -0.5566 -0.7576
vn -0.9810 -0.1912 -0.0319
vn -0.8223 0.4425 0.3577
vn -0.3749 0.0161 -0.9269
vn 0.5836 0.1575 -0.7966
vn 0.8079 0.1640 -0.5661
vn 0.0029 0.2617 0.9651
vn 0.4579 -0.8722 -0.1722
vn -0.5583 0.5659 -0.6066
vn 0.2153 0.9373 0.2742
vn 0.2058 0.0438 0.9776
vn 0.2059 0.0438 0.9776
vn 0.1018 0.6878 -0.7187
vn 0.0704 0.9496 -0.3053
vn -0.3758 -0.9265 -0.0207
vn 0.2938 0.3815 -0.8764
vn -0.4995 -0.1986 -0.8432
vn -0.1707 0.5434 -0.8219
vn -0.4855 -0.8739 -0.0237
vn 0.8671 0.4097 0.2832
vn -0.2052 0.7847 0.5849
vn 0.8059 -0.3989 0.4375
vn 0.1620 0.9425 -0.2924
vn -0.9800 -0.0751 -0.1844
vn -0.9571 -0.2511 -0.1444
vn -0.9286 -0.1548 -0.3373
vn -0.9394 -0.1402 -0.3129
vn -0.9446 -0.0658 -0.3215
vn -0.8681 -0.1571 0.4709
vn -0.7081 0.6538 -0.2666
vn 0.8904 -0.0266 0.4545
vn 0.6490 0.3133 0.6933
vn 0.7282 0.5764 -0.3708
vn -0.7960 -0.3009 -0.5252
vn -0.3706 -0.2447 -0.8960
vn 0.6612 0.3118 0.6823
vn -0.0921 -0.9857 0.1409
vn -0.0600 -0.2550 0.9651
vn 0.1912 0.9815 0.0083
vn 0.3696 -0.1846 -0.9107
vn -0.0131 0.6235 0.7817
vn 0.8336 0.1955 0.5167
vn -0.2957 -0.8450 -0.4456
vn -0.3656 -0.0021 0.9308
vn -0.3835 0.0442 0.9225
vn -0.3845 -0.0643 0.9209
vn 0.7394 0.3013 -0.6021
vn -0.0795 0.9805 0.1797
vn 0.4964 -0.8454 -0.1971
vn -0.7533 0.4947 0.4333
vn 0.6686 -0.0102 0.7435
vn 0.2810 -0.6322 -0.7220
vn 0.8792 -0.4111 0.2410
vn 0.5364 0.8184 -0.2063
vn -0.9212 -0.3879 -0.0288
vn 0.5197 -0.8395 -0.1586
vn 0.5136 0.8222 0.2453
vn 0.0471 0.0364 0.9982
vn 0.4245 0.1885 -0.8856
vn 0.3990 0.7816 0.4795
vn -0.8834 0.3446 0.3177
vn 0.1729 0.3737 -0.9113
vn 0.5915 -0.5826 -0.5574
vn 0.1778 -0.8898 -0.4203
vn -0.5737 0.7420 0.3468
vn 0.3106 0.1123 -0.9439
vn 0.4677 -0.8736 0.1344
vn 0.5054 0.7382 -0.4469
vn -0.5494 -0.7754 -0.3113
vn 0.7782 0.1730 0.6038
vn -0.9429 0.2771 0.1850
vn -0.2951 -0.9538 0.0557
vn 0.9451 -0.0157 -0.3265
vn 0.8423 -0.4237 0.3331
vn -0.2002 -0.5864 0.7849
vn -0.4589 -0.3114 0.8322
vn -0.4356 -0.6122 0.6599
vn -0.1340 0.0538 0.9895
vn -0.4820 0.3649 -0.7966
vn -0.5679 -0.1240 0.8137
vn 0.5853 0.4365 -0.6833
vn 0.8749 -0.4506 -0.1776
vn -0.1464 0.9849 -0.0922
vn 0.1506 -0.9790 0.1372
vn -0.4145 -0.8997 -0.1367
f 1/1/1 2/2/2 3/3/3 4/4/4
f 5/5/5 6/6/6 3/3/3 2/2/2
f 7/7/7 4/4/4 3/3/3 6/6/6
f 7/8/7 8/9/8 9/10/9 4/11/4
f 10/12/10 11/13/11 9/10/9 8/9/8
f 1/14/1 4/11/4 9/10/9 11/13/11
f 12/15/12 6/6/6 5/5/5 13/16/13
f 14/17/14 13/16/13 5/5/5 2/2/2
f 7/8/7 15/18/15 16/19/16 8/9/8
f 17/20/17 18/21/18 16/19/16 15/18/15
f 10/12/10 8/9/8 16/19/16 18/21/18
f 19/22/19 12/15/12 13/16/13 14/17/14
f 20/23/20 11/13/11 10/12/10 18/21/18
f 1/14/1 11/13/11 20/23/20 21/24/21
f 17/20/17 21/24/21 20/23/20 18/21/18
f 15/25/15 12/15/12 19/22/19 17/26/17
f 21/27/21 17/26/17 19/22/19 14/17/14
f 2/2/2 1/1/1 21/27/21 14/17/14
f 6/6/6 12/15/12 15/25/15 7/7/7
f 22/28/22 23/29/23 24/30/24 25/31/25
f 26/32/26 27/33/27 24/30/24 23/29/23
f 28/34/28 25/31/25 24/30/24 27/33/27
f 29/35/29 30/36/30 28/34/28 27/33/27
f 31/37/31 25/31/25 28/34/28 30/36/30
f 32/38/32 33/39/33 34/40/34 35/41/35
f 36/42/36 35/41/35 34/40/34 37/43/37
f 38/44/38 37/43/37 34/40/34 33/39/33
f 23/45/23 35/41/35 36/42/36 26/46/26
f 39/47/39 26/46/26 36/42/36 37/43/37
f 25/31/25 31/37/31 40/48/40 22/28/22
f 30/49/30 41/50/41 40/51/40 31/52/31
f 32/38/32 22/53/22 40/51/40 41/50/41
f 41/50/41 38/44/38 33/39/33 32/38/32
f 38/44/38 29/54/29 39/47/39 37/43/37
f 27/33/27 26/32/26 39/55/39 29/35/29
f 29/54/29 38/44/38 41/50/41 30/49/30
f 23/45/23 22/53/22 32/38/32 35/41/35
f 42/56/42 43/57/43 44/58/44 45/59/45
f 46/60/46 45/59/45 44/58/44 47/61/47
f 48/62/48 47/61/47 44/58/44 43/57/43
f 49/63/49 45/59/45 46/60/46 50/64/50
f 51/65/51 50/66/50 46/67/46 47/68/47
f 47/68/47 48/69/48 52/70/52 51/65/51
f 53/71/53 51/65/51 52/70/52 54/72/54
f 55/73/55 54/72/54 52/70/52 48/69/48
f 50/66/50 51/65/51 53/71/53 49/74/49
f 56/75/56 49/74/49 53/71/53 54/72/54
f 48/62/48 43/57/43 57/76/57 55/77/55
f 58/78/58 55/77/55 57/76/57 59/79/59
f 42/56/42 59/79/59 57/76/57 43/57/43
f 56/80/56 58/78/58 59/79/59 42/56/42
f 54/81/54 55/77/55 58/78/58 56/80/56
f 45/59/45 49/63/49 56/80/56 42/56/42
f 60/82/60 61/83/61 62/84/62 63/85/63
f 64/86/64 63/85/63 62/84/62 65/87/65
f 66/88/66 65/87/65 62/84/62 61/83/61
f 66/88/66 67/89/67 64/86/64 65/87/65
f 68/90/68 63/91/63 64/92/64 67/93/67
f 60/82/60 69/94/69 70/95/70 61/83/61
f 66/88/66 61/83/61 70/95/70 71/96/71
f 72/97/72 71/98/71 70/99/70 69/100/69
f 60/101/60 73/102/73 74/103/74 69/100/69
f 72/97/72 69/100/69 74/103/74 75/104/75
f 68/90/68 75/104/75 74/103/74 73/102/73
f 67/93/67 72/97/72 75/104/75 68/90/68
f 67/93/67 66/105/66 71/98/71 72/97/72
f 63/91/63 68/90/68 73/102/73 60/101/60
f 76/106/76 77/107/77 78/108/78 79/109/79
f 80/110/80 81/111/81 78/112/78 77/113/77
f 82/114/82 79/109/79 78/108/78 83/115/83
f 80/116/80 84/117/84 76/106/76 79/109/79
f 85/118/85 77/113/77 76/119/76 84/120/84
f 86/121/86 82/114/82 83/115/83 87/122/87
f 79/109/79 82/114/82 81/123/81 80/116/80
f 86/124/86 87/125/87 78/112/78 81/111/81
f 78/112/78 87/125/87 83/126/83
f 80/110/80 77/113/77 85/118/85
f 81/123/81 82/114/82 86/121/86
f 80/110/80 85/118/85 84/120/84
f 88/127/88 89/128/89 90/129/90 91/130/91
f 92/131/92 93/132/93 90/129/90 89/128/89
f 94/133/94 91/130/91 90/129/90 93/132/93
f 95/134/95 88/127/88 91/130/91 94/133/94
f 96/135/96 97/136/97 92/137/92 89/138/89
f 98/139/98 93/132/93 92/131/92 97/140/97
f 96/135/96 89/138/89 88/141/88 95/142/95
f 94/133/94 93/132/93 98/139/98 99/143/99
f 100/144/100 99/145/99 98/146/98 97/136/97
f 95/142/95 94/147/94 99/145/99 100/144/100
f 100/144/100 97/136/97 96/135/96 95/142/95
f 101/148/101 102/149/102 103/150/103 104/151/104
f 105/152/105 104/153/104 103/154/103 106/155/106
f 107/156/107 106/157/106 103/150/103 102/149/102
f 108/158/108 107/156/107 102/149/102 101/148/101
f 109/159/109 108/158/108 101/148/101 104/151/104
f 105/152/105 110/160/110 109/161/109 104/153/104
f 111/162/111 108/158/108 109/159/109 110/163/110
f 111/162/111 110/163/110 105/164/105 106/157/106
f 111/162/111 106/157/106 107/156/107 108/158/108
f 112/165/112 113/166/113 114/167/114 115/168/115
f 116/169/116 115/170/115 114/171/114 117/172/117
f 118/173/118 117/174/117 114/167/114 113/166/113
f 119/175/119 116/169/116 117/172/117 118/176/118
f 120/177/120 121/178/121 112/165/112 115/168/115
f 122/179/122 113/166/113 112/165/112 121/178/121
f 120/180/120 115/170/115 116/169/116 119/175/119
f 122/179/122 119/181/119 118/173/118 113/166/113
f 122/179/122 121/178/121 120/177/120 119/181/119
f 123/182/123 124/183/124 125/184/125 126/185/126
f 127/186/127 128/187/128 126/188/126 125/189/125
f 127/190/127 124/183/124 129/191/129 130/192/130
f 129/193/129 126/188/126 128/187/128 130/194/130
f 124/183/124 127/190/127 125/184/125
f 126/188/126 129/193/129 123/195/123
f 128/187/128 127/186/127 130/194/130
f 129/191/129 124/183/124 123/182/123
f 131/196/131 132/197/132 133/198/133
f 133/199/133 134/200/134 131/201/131
f 134/200/134 132/202/132 131/201/131
f 132/197/132 134/203/134 133/198/133
f 135/204/135 136/205/136 137/206/137
f 138/207/138 137/208/137 136/209/136
f 138/210/138 136/205/136 135/204/135
f 137/208/137 138/207/138 135/211/135
f 139/212/139 140/213/140 141/214/141
f 142/215/142 141/216/141 140/217/140
f 141/216/141 142/215/142 139/218/139
f 142/219/142 140/213/140 139/212/139
f 143/220/143 144/221/144 145/222/145
f 146/223/146 147/224/146 148/225/146
f 149/226/147 150/227/147 151/228/147
f 152/229/148 153/230/148 154/231/148
f 155/232/149 156/233/149 157/234/149
f 158/235/150 159/236/151 160/237/152
f 161/238/153 162/239/154 163/240/155
f 164/241/156 165/242/157 166/243/158
f 167/244/159 168/245/160 169/246/161
f 170/247/162 171/248/163 172/249/164
f 173/250/165 174/251/166 175/252/167
f 176/253/168 177/254/169 178/255/170
f 179/256/171 180/257/172 181/258/173
f 182/259/174 183/260/175 184/261/176
f 185/262/177 186/263/178 187/264/179
f 188/265/180 189/266/181 190/267/182
f 191/268/183 192/269/184 193/270/185
f 194/271/186 195/272/186 196/273/186
f 197/274/187 198/275/188 199/276/189
f 200/277/190 201/278/191 202/279/192
f 203/280/193 204/281/193 205/282/193
f 206/283/194 207/284/194 208/285/194
f 209/286/195 210/287/195 211/288/195
f 212/289/196 213/290/196 214/291/196
f 215/292/197 216/293/197 217/294/197
f 218/295/198 219/296/198 220/297/198
f 221/298/199 222/299/199 223/300/199
f 224/301/200 225/302/200 226/303/200
f 227/304/201 228/305/201 229/306/201
f 230/307/202 231/308/203 232/309/204
f 233/310/205 234/311/206 235/312/205
f 236/313/207 237/314/208 238/315/209
f 239/316/210 240/317/211 241/318/212
f 242/319/213 243/320/214 244/321/215
f 245/322/216 246/323/216 247/324/216
f 248/325/217 249/326/217 250/327/217
f 251/328/218 252/329/218 253/330/218
f 254/331/219 255/332/219 256/333/219
f 257/334/220 258/335/221 259/336/222
f 260/337/223 261/338/224 262/339/225
f 263/340/226 264/341/227 265/342/228
f 266/343/229 267/344/230 268/345/231
f 269/346/232 270/347/233 271/348/234
f 272/349/235 273/350/236 274/351/237
f 275/352/238 276/353/239 277/354/240
f 278/355/241 279/356/242 280/357/243
f 281/358/244 282/359/245 283/360/246
f 284/361/247 285/362/248 286/363/249
f 287/364/250 288/365/251 289/366/252
f 290/367/253 291/368/254 292/369/255
f 293/370/256 294/371/257 295/372/258
f 296/373/259 297/374/260 298/375/261
f 299/376/262 300/377/263 301/378/264
f 302/379/265 303/380/266 304/381/267
f 305/382/268 306/383/268 307/384/268
f 308/385/269 309/386/270 310/387/271
f 311/388/272 312/389/272 313/390/272
f 314/391/273 315/392/274 316/393/275
f 317/394/276 318/395/277 319/396/278
f 320/397/279 321/398/279 322/399/279
