# split from a merged terrain OBJ by scripts/split-terrain-obj-parts.py
o part-032
v -0.594223 0.536487 -0.053400
v -0.589418 0.534366 -0.053684
v -0.590922 0.531798 -0.057357
v -0.596972 0.532273 -0.055683
v -0.584845 0.529883 -0.050643
v -0.590325 0.522124 -0.051446
v -0.556168 0.603505 -0.068433
v -0.554681 0.596659 -0.063114
v -0.550430 0.595770 -0.070738
v -0.552281 0.600694 -0.072881
v -0.558091 0.591821 -0.067183
v -0.553629 0.593567 -0.073085
v -0.560710 0.606695 -0.065306
v -0.558317 0.601320 -0.058801
v -0.560643 0.594009 -0.054222
v -0.559650 0.590077 -0.057972
v -0.562265 0.587714 -0.062382
v -0.562546 0.595443 -0.069263
v -0.556372 0.596941 -0.074791
v -0.567303 0.600054 -0.064864
v -0.566756 0.589522 -0.063159
v -0.570085 0.593169 -0.060502
v -0.546619 0.539844 -0.025763
v -0.540830 0.550118 -0.028990
v -0.540727 0.543219 -0.018449
v -0.548371 0.535931 -0.017577
v -0.540363 0.557581 -0.013960
v -0.548419 0.548855 -0.011443
v -0.535734 0.549710 -0.018702
v -0.535612 0.556001 -0.029451
v -0.510673 0.559978 -0.019464
v -0.511637 0.555335 -0.017283
v -0.504345 0.555539 -0.017696
v -0.504207 0.557480 -0.020088
v -0.511725 0.552732 -0.021699
v -0.505270 0.552453 -0.020356
v -0.531411 0.564757 -0.019330
v -0.524950 0.565421 -0.027668
v -0.531088 0.569404 -0.027774
v -0.536898 0.568043 -0.024115
v -0.539237 0.565485 -0.028756
v -0.533510 0.568013 -0.029915
v -0.531689 0.564614 -0.031762
v -0.521213 0.562254 -0.018855
v -0.519739 0.561552 -0.025331
v -0.521318 0.554358 -0.025019
v -0.529299 0.555672 -0.027500
v -0.522097 0.554334 -0.017493
v -0.530332 0.552231 -0.018808
v -0.544960 0.564486 -0.019684
v -0.556861 0.533110 -0.022871
v -0.556493 0.533036 -0.030680
v -0.544643 0.542221 -0.031938
v -0.549413 0.553222 -0.032173
v -0.545946 0.561757 -0.027242
v -0.553224 0.560550 -0.017622
v -0.561664 0.557135 -0.016675
v -0.559207 0.547367 -0.009710
v -0.558246 0.539325 -0.010663
v -0.551088 0.540531 -0.011485
v -0.557939 0.533599 -0.015644
v -0.560444 0.552550 -0.032198
v -0.561818 0.543774 -0.042049
v -0.567065 0.567741 -0.044027
v -0.571350 0.572274 -0.037353
v -0.572884 0.562689 -0.033699
v -0.569174 0.557384 -0.042732
v -0.579843 0.575397 -0.038493
v -0.585024 0.569015 -0.035004
v -0.589307 0.563203 -0.031507
v -0.579930 0.560031 -0.027216
v -0.571503 0.554946 -0.026842
v -0.568745 0.553962 -0.033303
v -0.568526 0.549628 -0.041883
v -0.568370 0.526859 -0.039745
v -0.572749 0.533061 -0.045934
v -0.560605 0.532359 -0.039825
v -0.576495 0.540833 -0.049004
v -0.585352 0.555797 -0.023189
v -0.576979 0.553296 -0.016414
v -0.560634 0.555512 -0.025339
v -0.572267 0.543312 -0.007077
v -0.590605 0.535879 -0.002421
v -0.593494 0.547068 -0.005137
v -0.596501 0.548093 -0.013903
v -0.578385 0.580398 -0.047003
v -0.579624 0.575948 -0.051603
v -0.585717 0.575321 -0.047519
v -0.584171 0.575272 -0.043796
v -0.585318 0.566227 -0.051923
v -0.592253 0.566618 -0.048351
v -0.573888 0.588437 -0.051463
v -0.573165 0.585408 -0.055421
v -0.570419 0.583153 -0.059153
v -0.574683 0.574458 -0.055770
v -0.579433 0.565665 -0.054419
v -0.590691 0.568685 -0.041613
v -0.593777 0.561517 -0.038604
v -0.594112 0.559169 -0.045622
v -0.572387 0.554826 -0.050660
v -0.578325 0.554323 -0.054896
v -0.584100 0.542754 -0.052473
v -0.580420 0.524519 -0.047349
v -0.603078 0.526241 -0.053162
v -0.600002 0.519250 -0.053677
v -0.596919 0.511050 -0.052865
v -0.591485 0.499325 -0.039748
v -0.594725 0.493020 -0.045296
v -0.591132 0.495184 -0.052879
v -0.589889 0.502149 -0.046659
v -0.597270 0.489271 -0.052401
v -0.593180 0.489967 -0.059448
v -0.588701 0.493989 -0.062659
v -0.592710 0.498398 -0.055412
v -0.581494 0.491143 -0.062042
v -0.591553 0.505983 -0.050868
v -0.585295 0.489550 -0.068231
v -0.581109 0.491028 -0.074161
v -0.580225 0.489976 -0.071285
v -0.582957 0.491722 -0.071190
v -0.602369 0.535307 -0.048929
v -0.589243 0.545406 -0.051943
v -0.594512 0.547352 -0.048545
v -0.612194 0.517087 -0.050042
v -0.614366 0.524983 -0.045632
v -0.598854 0.551437 -0.043156
v -0.606305 0.542308 -0.040838
v -0.617767 0.532634 -0.037659
v -0.598509 0.509963 -0.013265
v -0.601163 0.514845 -0.003234
v -0.607824 0.500051 -0.002307
v -0.605895 0.498987 -0.016952
v -0.606090 0.523735 0.000793
v -0.616046 0.511559 0.002697
v -0.603726 0.486435 -0.045754
v -0.606221 0.498659 -0.055101
v -0.609205 0.508400 -0.052610
v -0.615220 0.481491 -0.037891
v -0.619503 0.490492 -0.047568
v -0.621905 0.500952 -0.049647
v -0.610850 0.487673 -0.025665
v -0.625081 0.488734 -0.015709
v -0.680544 0.492213 0.058998
v -0.681657 0.493391 0.057702
v -0.686119 0.491424 0.061539
v -0.683382 0.491401 0.060967
v -0.681992 0.491545 0.056699
v -0.684410 0.491042 0.059545
v -0.623041 0.521825 0.005535
v -0.632761 0.510286 0.010796
v -0.629863 0.497464 0.003177
v -0.645321 0.500909 0.023825
v -0.645939 0.490640 0.017470
v -0.657935 0.495842 0.040073
v -0.660709 0.487737 0.036379
v -0.668223 0.493266 0.033808
v -0.658280 0.497791 0.014859
v -0.647153 0.492144 -0.011027
v -0.647334 0.487710 0.000011
v -0.645879 0.481888 -0.020556
v -0.630612 0.479750 -0.034104
v -0.647518 0.476518 -0.034451
v -0.630624 0.526038 -0.000392
v -0.631724 0.520132 -0.011448
v -0.646184 0.504724 -0.003619
v -0.641959 0.514666 0.006247
v -0.633382 0.518054 -0.024221
v -0.645651 0.505162 -0.021743
v -0.654894 0.506356 0.020488
v -0.643453 0.510251 -0.044525
v -0.641274 0.504270 -0.048698
v -0.658450 0.500075 -0.048758
v -0.653808 0.507120 -0.044894
v -0.638498 0.496937 -0.050880
v -0.656085 0.493950 -0.049395
v -0.666017 0.494930 -0.037688
v -0.662875 0.502789 -0.039428
v -0.656064 0.502438 -0.027768
v -0.655617 0.506852 -0.036900
v -0.670039 0.491722 -0.025828
v -0.661421 0.491490 -0.016531
v -0.647018 0.511926 -0.035481
v -0.658926 0.479144 -0.020068
v -0.651192 0.483841 -0.045867
v -0.664967 0.483254 -0.039945
v -0.673980 0.484990 -0.030588
v -0.679388 0.484714 -0.022842
v -0.677159 0.485993 -0.018518
v -0.673129 0.478001 -0.027227
v -0.681725 0.480482 -0.021250
v -0.680434 0.483854 -0.017364
v -0.671187 0.477840 -0.019431
v -0.678273 0.478454 -0.017543
v -0.661132 0.477161 -0.031738
v -0.672827 0.483987 -0.014656
v -0.677981 0.482084 -0.014373
v -0.634529 0.486595 -0.045794
v -0.633613 0.520316 -0.035543
v -0.628769 0.515815 -0.043128
v -0.624866 0.509004 -0.047132
v -0.618138 0.534726 -0.025640
v -0.601309 0.548224 -0.021179
v -0.606389 0.546904 -0.030204
v -0.615812 0.533971 -0.014569
v -0.593876 0.556866 -0.028091
v -0.598424 0.554731 -0.035377
v -0.615517 0.537837 -0.004989
v -0.611535 0.534127 0.001953
v -0.664954 0.500301 0.036823
v -0.675757 0.492058 0.048230
v -0.674188 0.496724 0.050256
v -0.670197 0.494474 0.053706
v -0.671924 0.489446 0.051476
v -0.680478 0.490474 0.058028
v -0.682948 0.489990 0.059858
v -0.600385 0.489491 -0.036276
v -0.597560 0.498087 -0.029613
v -0.585983 0.507474 -0.035151
v -0.591685 0.507542 -0.025142
v -0.577786 0.516249 -0.032260
v -0.581367 0.516926 -0.022581
v -0.584888 0.520467 -0.012715
v -0.568480 0.525901 -0.021605
v -0.569973 0.529099 -0.014383
v -0.571173 0.534575 -0.008650
v -0.587239 0.526674 -0.005860
v -0.567394 0.525130 -0.030619
v -0.577195 0.518878 -0.041087
v -0.584002 0.510325 -0.043330
v -0.586630 0.515618 -0.048420
v -0.589412 0.557379 -0.050248
v -0.583966 0.556027 -0.053086
v -0.573352 0.564659 -0.055672
v -0.569355 0.573405 -0.057317
v -0.565021 0.574479 -0.052886
v -0.568097 0.564774 -0.051742
v -0.564981 0.577512 -0.046611
v -0.562403 0.583006 -0.054939
v -0.563226 0.586286 -0.050042
v -0.566727 0.588912 -0.047389
v -0.568947 0.580900 -0.042282
v -0.571531 0.590227 -0.047649
v -0.575007 0.582424 -0.042575
v -0.564073 0.596998 -0.051687
v -0.569190 0.598200 -0.051696
v -0.571367 0.596396 -0.056027
v -0.567831 0.603521 -0.054950
v -0.568846 0.603317 -0.060452
v -0.561633 0.603710 -0.055674
v -0.565497 0.581419 -0.059436
v -0.552539 0.558595 -0.025892
v -0.510829 0.557362 -0.023394
v -0.504874 0.555520 -0.021978
v -0.562419 0.609031 -0.062780
vt 0.765458 0.925252
vt 0.763151 0.928268
vt 0.760822 0.927043
vt 0.762148 0.923943
vt 0.759163 0.932452
vt 0.755394 0.928885
vt 0.455510 0.984284
vt 0.448631 0.984026
vt 0.450761 0.980446
vt 0.453277 0.980499
vt 0.447493 0.975559
vt 0.450632 0.977170
vt 0.921671 0.725171
vt 0.925291 0.720298
vt 0.928181 0.722005
vt 0.923638 0.728819
vt 0.925196 0.715819
vt 0.926796 0.714150
vt 0.909097 0.722450
vt 0.911164 0.725884
vt 0.910428 0.728206
vt 0.907023 0.724672
vt 0.455877 0.972168
vt 0.452716 0.977289
vt 0.916016 0.727243
vt 0.917107 0.722894
vt 0.911686 0.721264
vt 0.913671 0.718892
vt 0.808100 0.853426
vt 0.812871 0.849993
vt 0.813050 0.856070
vt 0.806931 0.858065
vt 0.819912 0.860688
vt 0.813212 0.862723
vt 0.817521 0.854853
vt 0.817002 0.848002
vt 0.832605 0.851661
vt 0.831546 0.850549
vt 0.834256 0.850192
vt 0.835527 0.851468
vt 0.831342 0.849278
vt 0.833939 0.849145
vt 0.078769 0.547431
vt 0.080778 0.553237
vt 0.076269 0.550370
vt 0.072589 0.546434
vt 0.071007 0.550415
vt 0.074560 0.551261
vt 0.068368 0.556773
vt 0.075574 0.552926
vt 0.086217 0.550596
vt 0.084607 0.553786
vt 0.082303 0.557154
vt 0.074751 0.557888
vt 0.826815 0.851931
vt 0.829115 0.855257
vt 0.825302 0.857050
vt 0.821104 0.853158
vt 0.825913 0.862778
vt 0.828534 0.858834
vt 0.801145 0.856049
vt 0.799484 0.851941
vt 0.807480 0.849789
vt 0.812356 0.845652
vt 0.820801 0.848200
vt 0.066039 0.550774
vt 0.065669 0.556743
vt 0.065300 0.547296
vt 0.058861 0.545915
vt 0.058835 0.538086
vt 0.065178 0.542124
vt 0.052828 0.544205
vt 0.051741 0.536508
vt 0.805446 0.864022
vt 0.808630 0.861507
vt 0.808720 0.867051
vt 0.802419 0.860562
vt 0.051489 0.554587
vt 0.058494 0.555707
vt 0.055144 0.564441
vt 0.045568 0.562949
vt 0.923586 0.699457
vt 0.918617 0.700065
vt 0.918438 0.694079
vt 0.924895 0.694531
vt 0.913745 0.701210
vt 0.911344 0.696641
vt 0.909094 0.692566
vt 0.914712 0.690052
vt 0.920369 0.688999
vt 0.922510 0.691208
vt 0.926780 0.692569
vt 0.038305 0.578355
vt 0.036703 0.575329
vt 0.043714 0.571189
vt 0.046831 0.552945
vt 0.042614 0.559858
vt 0.037306 0.569463
vt 0.911681 0.686951
vt 0.916702 0.683994
vt 0.053022 0.549842
vt 0.046310 0.548200
vt 0.043411 0.541277
vt 0.041822 0.531807
vt 0.033557 0.523786
vt 0.033115 0.528548
vt 0.907214 0.679800
vt 0.910148 0.675817
vt 0.911626 0.707432
vt 0.907749 0.708548
vt 0.908272 0.704228
vt 0.910138 0.702863
vt 0.902695 0.704914
vt 0.903759 0.700717
vt 0.914257 0.712547
vt 0.911576 0.713930
vt 0.909453 0.716110
vt 0.905806 0.711939
vt 0.901567 0.708337
vt 0.907020 0.698547
vt 0.904426 0.694742
vt 0.900853 0.697321
vt 0.892581 0.715802
vt 0.888476 0.714533
vt 0.888000 0.707098
vt 0.894439 0.711230
vt 0.895651 0.707314
vt 0.890299 0.702892
vt 0.031990 0.581207
vt 0.030433 0.579343
vt 0.886365 0.699805
vt 0.883378 0.702225
vt 0.759639 0.919581
vt 0.755200 0.920734
vt 0.750281 0.922052
vt 0.771750 0.857317
vt 0.766522 0.856342
vt 0.766127 0.851760
vt 0.771254 0.853543
vt 0.762438 0.854004
vt 0.760691 0.850737
vt 0.737617 0.927132
vt 0.741796 0.921848
vt 0.742960 0.925155
vt 0.737453 0.930164
vt 0.770324 0.850412
vt 0.765864 0.850360
vt 0.754300 0.847324
vt 0.759516 0.845571
vt 0.754698 0.844778
vt 0.754946 0.843600
vt 0.736053 0.931197
vt 0.736068 0.932917
vt 0.737206 0.925018
vt 0.738959 0.920310
vt 0.765414 0.920235
vt 0.892272 0.700081
vt 0.887426 0.697244
vt 0.888072 0.691885
vt 0.894135 0.696735
vt 0.756371 0.912794
vt 0.761859 0.911733
vt 0.897446 0.693429
vt 0.892781 0.688263
vt 0.886900 0.681916
vt 0.882723 0.685642
vt 0.779178 0.871917
vt 0.781506 0.878549
vt 0.774924 0.878606
vt 0.771647 0.871864
vt 0.779692 0.885507
vt 0.773375 0.889624
vt 0.737049 0.916999
vt 0.745424 0.914891
vt 0.750997 0.913936
vt 0.746125 0.924284
vt 0.735070 0.910196
vt 0.740047 0.906023
vt 0.747095 0.905833
vt 0.763731 0.870533
vt 0.759996 0.881085
vt 0.291831 0.692793
vt 0.293523 0.692229
vt 0.297198 0.693555
vt 0.294217 0.693396
vt 0.874300 0.791977
vt 0.872087 0.791817
vt 0.869943 0.791026
vt 0.874409 0.790988
vt 0.225601 0.658673
vt 0.232100 0.670751
vt 0.225703 0.680933
vt 0.219046 0.661334
vt 0.246522 0.678412
vt 0.245962 0.685926
vt 0.265676 0.688403
vt 0.265315 0.692258
vt 0.266267 0.697729
vt 0.251921 0.694574
vt 0.214611 0.701014
vt 0.229394 0.696172
vt 0.205859 0.700840
vt 0.210007 0.684033
vt 0.196059 0.688875
vt 0.201738 0.683178
vt 0.198109 0.694814
vt 0.196666 0.705595
vt 0.928182 0.800641
vt 0.929461 0.808076
vt 0.915561 0.810456
vt 0.917402 0.801204
vt 0.931180 0.817727
vt 0.921426 0.822546
vt 0.904026 0.796787
vt 0.901510 0.805879
vt 0.224287 0.706767
vt 0.219750 0.713104
vt 0.755700 0.893754
vt 0.751564 0.895102
vt 0.751142 0.885740
vt 0.755060 0.887996
vt 0.747094 0.896358
vt 0.747775 0.886654
vt 0.749407 0.878018
vt 0.754765 0.881034
vt 0.204268 0.722840
vt 0.202236 0.724237
vt 0.208677 0.714193
vt 0.209137 0.719993
vt 0.204335 0.719242
vt 0.204939 0.713749
vt 0.760745 0.890293
vt 0.758908 0.884573
vt 0.763271 0.883439
vt 0.766489 0.885752
vt 0.202339 0.710871
vt 0.741696 0.886909
vt 0.742467 0.878868
vt 0.743063 0.871961
vt 0.747902 0.870962
vt 0.742415 0.866511
vt 0.744389 0.865076
vt 0.739134 0.870567
vt 0.740089 0.864885
vt 0.200018 0.724681
vt 0.201865 0.724024
vt 0.197926 0.728096
vt 0.194359 0.728416
vt 0.198434 0.719557
vt 0.197362 0.724269
vt 0.195030 0.721670
vt 0.194602 0.716561
vt 0.201200 0.719967
vt 0.199513 0.723566
vt 0.734005 0.884826
vt 0.736216 0.877905
vt 0.739640 0.897350
vt 0.733335 0.893673
vt 0.191139 0.696407
vt 0.188705 0.691122
vt 0.883523 0.668600
vt 0.880781 0.673478
vt 0.874192 0.667549
vt 0.877796 0.661682
vt 0.756889 0.902433
vt 0.761675 0.898683
vt 0.765886 0.908410
vt 0.752326 0.904740
vt 0.892329 0.677537
vt 0.903026 0.682059
vt 0.898172 0.684923
vt 0.896608 0.672962
vt 0.887777 0.665321
vt 0.906365 0.688728
vt 0.901601 0.690748
vt 0.901632 0.669926
vt 0.904399 0.666150
vt 0.940386 0.796167
vt 0.942091 0.802041
vt 0.929164 0.793821
vt 0.940123 0.790674
vt 0.210250 0.630190
vt 0.213564 0.622931
vt 0.220229 0.642684
vt 0.215473 0.647458
vt 0.919004 0.794227
vt 0.908439 0.792418
vt 0.889642 0.798485
vt 0.889925 0.794800
vt 0.252266 0.677105
vt 0.267446 0.685192
vt 0.880685 0.793628
vt 0.881204 0.792719
vt 0.880168 0.791823
vt 0.888176 0.792809
vt 0.280939 0.689385
vt 0.281396 0.693595
vt 0.285977 0.688394
vt 0.292116 0.694942
vt 0.877422 0.795327
vt 0.874033 0.793084
vt 0.294371 0.693902
vt 0.871864 0.792667
vt 0.281589 0.696050
vt 0.760640 0.859161
vt 0.765470 0.862292
vt 0.756835 0.866898
vt 0.771439 0.864132
vt 0.777831 0.857796
vt 0.778240 0.864192
vt 0.784826 0.856905
vt 0.786043 0.862795
vt 0.788257 0.868931
vt 0.794248 0.859442
vt 0.796410 0.864129
vt 0.798955 0.868487
vt 0.790673 0.874057
vt 0.033627 0.518695
vt 0.041055 0.526782
vt 0.024885 0.511840
vt 0.026610 0.507612
vt 0.802554 0.870060
vt 0.792186 0.854716
vt 0.795027 0.848380
vt 0.789924 0.849830
vt 0.783496 0.851908
vt 0.032991 0.584974
vt 0.777274 0.852790
vt 0.027082 0.588243
vt 0.029030 0.593048
vt 0.025951 0.584432
vt 0.774426 0.848464
vt 0.750875 0.928940
vt 0.898734 0.700886
vt 0.897215 0.704262
vt 0.900162 0.711661
vt 0.904303 0.714869
vt 0.902784 0.718069
vt 0.898601 0.715055
vt 0.901473 0.721641
vt 0.896705 0.719215
vt 0.906208 0.721115
vt 0.904982 0.724098
vt 0.919702 0.711168
vt 0.918529 0.705947
vt 0.922251 0.705826
vt 0.922481 0.710865
vt 0.916986 0.711750
vt 0.915025 0.706489
vt 0.922424 0.715725
vt 0.919243 0.716007
vt 0.916250 0.717084
vt 0.920068 0.718843
vt 0.918577 0.720693
vt 0.922917 0.719506
vt 0.925542 0.710808
vt 0.907676 0.718396
vt 0.735898 0.929369
vt 0.059091 0.550831
vt 0.825369 0.848571
vt 0.090856 0.557503
vt 0.088979 0.559181
vt 0.095925 0.556630
vt 0.095275 0.557777
vt 0.092394 0.554552
vt 0.832425 0.847293
vt 0.836297 0.848931
vt 0.921237 0.723343
vt 0.295524 0.694504
vt 0.048361 0.573511
vt 0.213795 0.664282
vt 0.753529 0.844856
vn -0.2653 0.4343 -0.8608
vn 0.3260 0.1169 -0.9381
vn 0.2642 0.1217 -0.9568
vn -0.3693 0.3253 -0.8705
vn 0.4911 -0.1792 -0.8525
vn 0.4197 -0.2021 -0.8849
vn 0.3409 0.8863 -0.3136
vn 0.9158 -0.0986 0.3893
vn 0.9745 -0.2199 -0.0436
vn 0.5220 0.6695 -0.5284
vn 0.2604 -0.9091 -0.3252
vn 0.3552 -0.7534 -0.5534
vn 0.2063 0.8488 -0.4867
vn 0.8257 0.3283 0.4588
vn 0.8028 0.0337 0.5953
vn 0.9127 -0.3657 0.1822
vn 0.4074 -0.6935 -0.5942
vn -0.5242 -0.1699 -0.8345
vn -0.2452 -0.0264 -0.9691
vn -0.7039 0.2044 -0.6802
vn -0.4887 -0.3440 -0.8018
vn -0.8548 0.0088 -0.5188
vn 0.6654 -0.7079 -0.2370
vn 0.5937 -0.2865 -0.7520
vn 0.7743 -0.5728 0.2692
vn 0.5547 -0.7841 0.2785
vn 0.1880 0.2445 0.9513
vn 0.2590 0.0643 0.9637
vn 0.6887 -0.6259 0.3660
vn 0.1710 -0.3909 -0.9044
vn 0.2898 0.8917 0.3477
vn 0.0217 -0.3271 0.9447
vn 0.6290 -0.1664 0.7594
vn 0.7909 0.6093 0.0569
vn 0.0783 -0.9237 -0.3751
vn 0.4715 -0.8722 -0.1300
vn 0.1967 0.6073 0.7697
vn 0.5520 0.6390 -0.5357
vn 0.2210 0.9604 -0.1696
vn -0.1855 0.9562 0.2266
vn -0.4528 0.5424 -0.7076
vn -0.1806 0.6558 -0.7330
vn 0.1322 0.0872 -0.9874
vn 0.1957 0.7162 0.6699
vn 0.4318 0.5472 -0.7171
vn 0.1818 -0.7451 -0.6417
vn 0.3057 -0.6439 -0.7014
vn -0.0221 -0.5986 0.8008
vn 0.3062 -0.7924 0.5276
vn -0.3281 0.8687 0.3711
vn 0.4951 -0.8677 0.0429
vn 0.6188 -0.7464 -0.2449
vn 0.7058 -0.2365 -0.6678
vn 0.2321 0.4952 -0.8372
vn -0.3118 0.6450 -0.6977
vn -0.3018 0.8584 0.4147
vn -0.1799 0.8865 0.4263
vn 0.0622 0.2711 0.9605
vn 0.2476 -0.3822 0.8903
vn 0.3516 -0.3781 0.8564
vn 0.3796 -0.8080 0.4506
vn 0.1628 0.7870 -0.5951
vn 0.4827 0.1373 -0.8649
vn 0.9537 -0.1455 0.2632
vn 0.5015 0.2529 0.8274
vn 0.6386 0.4212 0.6441
vn 0.9977 -0.0553 -0.0391
vn -0.2809 0.6304 0.7236
vn -0.2983 0.6653 0.6844
vn -0.4040 0.7091 0.5778
vn 0.1636 0.7517 0.6389
vn 0.2137 0.9532 0.2141
vn 0.6240 0.7750 -0.0995
vn 0.7564 0.2655 -0.5978
vn 0.5944 -0.6022 -0.5329
vn 0.4485 -0.2026 -0.8705
vn 0.5631 -0.5353 -0.6296
vn 0.4842 -0.1333 -0.8647
vn -0.1422 0.8401 0.5234
vn -0.0192 0.8379 0.5455
vn -0.1720 0.9423 -0.2871
vn 0.1559 0.2392 0.9584
vn 0.2568 0.0763 0.9635
vn -0.0598 0.7019 0.7097
vn -0.3648 0.8761 0.3153
vn -0.7562 0.6540 0.0196
vn -0.6454 0.4168 -0.6401
vn -0.6509 0.6597 -0.3757
vn -0.6392 0.7485 0.1767
vn -0.4847 0.1732 -0.8574
vn -0.8157 0.3381 -0.4693
vn -0.9144 0.4047 -0.0091
vn -0.8403 0.1656 -0.5162
vn -0.4902 -0.1479 -0.8590
vn -0.4372 0.0304 -0.8989
vn -0.3586 0.0775 -0.9303
vn -0.7734 0.5861 0.2416
vn -0.8293 0.5393 0.1464
vn -0.8404 0.2857 -0.4605
vn 0.7372 -0.2967 -0.6070
vn 0.1375 -0.1773 -0.9745
vn 0.1728 -0.0938 -0.9805
vn 0.5016 -0.2906 -0.8148
vn -0.4426 0.1917 -0.8760
vn -0.0529 -0.0774 -0.9956
vn 0.1903 0.0270 -0.9814
vn 0.7952 -0.5661 0.2171
vn 0.7406 -0.6408 0.2022
vn 0.9577 -0.2612 0.1208
vn 0.9241 -0.3330 -0.1875
vn 0.2179 -0.8473 -0.4844
vn -0.6119 -0.7296 -0.3053
vn -0.2487 0.8448 -0.4737
vn 0.2901 0.3916 -0.8732
vn 0.8945 -0.0899 0.4379
vn 0.6087 0.0065 -0.7933
vn -0.5456 -0.7475 -0.3790
vn 0.9716 0.0092 -0.2364
vn 0.9727 -0.1966 0.1236
vn -0.2847 0.8560 -0.4314
vn -0.5616 0.4142 -0.7163
vn -0.3021 0.1475 -0.9418
vn -0.5589 0.2765 -0.7818
vn -0.3809 0.2222 -0.8975
vn -0.5086 0.4210 -0.7511
vn -0.7613 0.4429 -0.4735
vn -0.6888 0.5432 -0.4801
vn -0.6522 0.6364 -0.4118
vn 0.6702 -0.6024 0.4335
vn 0.5502 -0.3701 0.7485
vn 0.5312 -0.5886 0.6094
vn 0.6259 -0.6664 0.4052
vn 0.3038 -0.0615 0.9508
vn 0.3616 -0.2642 0.8941
vn 0.2563 -0.9008 -0.3506
vn -0.1584 -0.2115 -0.9645
vn -0.2283 0.0705 -0.9710
vn 0.1968 -0.9683 -0.1537
vn -0.0704 -0.5338 -0.8427
vn -0.1639 0.0101 -0.9864
vn 0.4333 -0.8166 0.3812
vn 0.2107 -0.8476 0.4871
vn 0.4449 0.2928 0.8463
vn -0.4256 0.9049 -0.0014
vn -0.7976 0.1166 0.5918
vn 0.2232 -0.0113 0.9747
vn -0.7116 -0.2841 -0.6425
vn -0.7647 -0.4913 -0.4169
vn 0.0357 0.2952 0.9548
vn 0.3570 0.2319 0.9049
vn 0.4473 -0.6617 0.6017
vn 0.6430 0.2493 0.7241
vn 0.2688 -0.9499 0.1597
vn 0.7064 0.2345 0.6678
vn 0.2097 -0.9711 0.1136
vn -0.8404 -0.2533 -0.4792
vn -0.8944 -0.0839 -0.4394
vn -0.5900 -0.4591 0.6642
vn -0.3284 -0.9207 -0.2110
vn 0.0624 -0.8458 0.5299
vn 0.1677 -0.9825 -0.0810
vn 0.0841 -0.9847 -0.1527
vn -0.5988 0.7591 0.2552
vn -0.7217 0.6830 -0.1121
vn -0.9264 0.3295 -0.1822
vn -0.5334 0.8144 0.2288
vn -0.6766 0.7287 0.1058
vn -0.6613 0.6875 0.3000
vn -0.4082 0.9019 0.1414
vn -0.2517 0.7203 -0.6464
vn -0.0734 0.3791 -0.9224
vn -0.5436 0.3451 -0.7651
vn -0.3595 0.7752 -0.5195
vn 0.0053 -0.0609 -0.9981
vn -0.3834 -0.0983 -0.9183
vn -0.8741 0.3555 -0.3311
vn -0.8288 0.5510 -0.0976
vn -0.5269 0.7290 0.4370
vn -0.5674 0.8168 0.1043
vn -0.6518 0.7568 0.0483
vn -0.3201 0.3516 0.8797
vn -0.4932 0.8694 0.0311
vn 0.0778 -0.8031 0.5908
vn -0.1393 -0.6107 -0.7795
vn -0.5728 -0.4347 -0.6950
vn -0.7991 0.0396 -0.5999
vn -0.8102 0.4319 -0.3964
vn -0.5143 0.8116 0.2771
vn -0.3973 -0.8381 -0.3738
vn -0.9181 -0.3761 -0.1248
vn -0.7986 0.3996 0.4501
vn 0.0620 -0.8786 0.4736
vn -0.3428 -0.8138 0.4693
vn -0.1343 -0.9661 -0.2207
vn -0.0443 0.1709 0.9843
vn -0.3321 -0.0459 0.9421
vn 0.0768 -0.6135 -0.7859
vn -0.5846 0.7786 -0.2283
vn -0.3466 0.5552 -0.7561
vn -0.2070 0.3240 -0.9231
vn -0.6884 0.7246 0.0320
vn -0.5558 0.7998 0.2267
vn -0.7045 0.7097 0.0066
vn -0.6573 0.7535 -0.0118
vn -0.4998 0.7583 0.4187
vn -0.7659 0.6426 0.0212
vn -0.5277 0.8177 0.2300
vn -0.0851 0.4739 0.8765
vn -0.3420 0.9370 0.0716
vn -0.8086 -0.2861 -0.5140
vn -0.3515 0.9357 0.0301
vn 0.5677 0.2772 0.7752
vn 0.1755 -0.9413 0.2883
vn 0.1670 -0.9500 0.2640
vn 0.1058 -0.9664 0.2341
vn 0.6105 -0.7349 0.2953
vn 0.6720 -0.6098 0.4201
vn 0.7363 -0.6570 0.1620
vn 0.6202 -0.6685 0.4105
vn 0.6722 -0.7370 0.0709
vn 0.5572 -0.7471 0.3625
vn 0.5033 -0.6737 0.5411
vn 0.5225 -0.8092 0.2686
vn 0.4299 -0.7181 0.5473
vn 0.3252 -0.3980 0.8578
vn 0.4128 -0.4090 0.8138
vn 0.6027 -0.7977 -0.0182
vn 0.6937 -0.5658 -0.4457
vn 0.7965 -0.4861 -0.3594
vn 0.5669 -0.2189 -0.7942
vn -0.5379 0.0867 -0.8386
vn -0.3419 0.0305 -0.9392
vn 0.2050 -0.2038 -0.9573
vn 0.2649 -0.3016 -0.9159
vn 0.9099 -0.3301 -0.2510
vn 0.8435 -0.3375 -0.4178
vn 0.9187 -0.0607 0.3902
vn 0.9381 -0.3407 -0.0623
vn 0.8614 -0.0012 0.5079
vn 0.4249 0.3428 0.8378
vn 0.4706 0.3282 0.8191
vn -0.4301 0.5754 0.6956
vn -0.3375 0.6441 0.6865
vn 0.4152 0.3404 0.8436
vn -0.4677 0.5395 0.7002
vn -0.9562 0.2886 -0.0497
vn -0.4544 0.6794 0.5761
vn -0.8007 0.5807 -0.1471
vn 0.4070 0.6338 0.6578
vn 0.3789 -0.4703 -0.7971
vn -0.2579 0.8268 -0.4998
vn 0.3094 0.3178 -0.8963
vn 0.6618 0.0364 -0.7488
vn 0.0196 0.9941 -0.1067
f 1/1/1 2/2/2 3/3/3 4/4/4
f 5/5/5 6/6/6 3/3/3 2/2/2
f 7/7/7 8/8/8 9/9/9 10/10/10
f 11/11/11 12/12/12 9/9/9 8/8/8
f 13/13/13 14/14/14 8/15/8 7/16/7
f 15/17/15 16/18/16 8/15/8 14/14/14
f 17/19/17 11/20/11 8/21/8 16/22/16
f 12/12/12 11/11/11 18/23/18 19/24/19
f 10/10/10 19/24/19 18/23/18 7/7/7
f 13/13/13 7/16/7 18/25/18 20/26/20
f 17/19/17 21/27/21 18/25/18 11/20/11
f 22/28/22 20/26/20 18/25/18 21/27/21
f 23/29/23 24/30/24 25/31/25 26/32/26
f 27/33/27 28/34/28 25/31/25 29/35/29
f 30/36/30 29/35/29 25/31/25 24/30/24
f 31/37/31 32/38/32 33/39/33 34/40/34
f 35/41/35 36/42/36 33/39/33 32/38/32
f 37/43/37 38/44/38 39/45/39 40/46/40
f 41/47/41 40/46/40 39/45/39 42/48/42
f 30/49/30 41/47/41 42/48/42 43/50/43
f 44/51/44 45/52/45 38/44/38 37/43/37
f 46/53/46 47/54/47 38/44/38 45/52/45
f 30/49/30 43/50/43 38/44/38 47/54/47
f 48/55/48 44/56/44 37/57/37 49/58/49
f 29/35/29 49/58/49 37/57/37 27/33/27
f 50/59/50 27/33/27 37/57/37 40/60/40
f 51/61/51 52/62/52 53/63/53 23/29/23
f 24/30/24 23/29/23 53/63/53 54/64/54
f 49/58/49 29/35/29 30/36/30 47/65/47
f 55/66/55 41/47/41 30/49/30 24/67/24
f 50/68/50 56/69/56 28/70/28 27/71/27
f 57/72/57 58/73/58 28/70/28 56/69/56
f 59/74/59 60/75/60 28/34/28 58/76/58
f 59/74/59 61/77/61 26/32/26 60/75/60
f 51/61/51 23/29/23 26/32/26 61/77/61
f 62/78/62 54/79/54 53/80/53 63/81/63
f 64/82/64 65/83/65 66/84/66 67/85/67
f 68/86/68 69/87/69 66/84/66 65/83/65
f 70/88/70 71/89/71 66/84/66 69/87/69
f 72/90/72 73/91/73 66/84/66 71/89/71
f 74/92/74 67/85/67 66/84/66 73/91/73
f 75/93/75 76/94/76 63/81/63 77/95/77
f 73/96/73 62/78/62 63/81/63 74/97/74
f 78/98/78 74/97/74 63/81/63 76/94/76
f 71/89/71 79/99/79 80/100/80 72/90/72
f 81/101/81 72/102/72 80/103/80 57/72/57
f 58/73/58 57/72/57 80/103/80 82/104/82
f 83/105/83 82/104/82 80/103/80 84/106/84
f 85/107/85 84/108/84 80/100/80 79/99/79
f 86/109/86 87/110/87 88/111/88 89/112/89
f 90/113/90 91/114/91 88/111/88 87/110/87
f 92/115/92 93/116/93 87/110/87 86/109/86
f 94/117/94 95/118/95 87/110/87 93/116/93
f 96/119/96 90/113/90 87/110/87 95/118/95
f 70/88/70 69/87/69 97/120/97 98/121/98
f 99/122/99 98/121/98 97/120/97 91/114/91
f 68/86/68 89/112/89 97/120/97 69/87/69
f 67/123/67 74/124/74 78/125/78 100/126/100
f 101/127/101 100/126/100 78/125/78 102/128/102
f 103/129/103 5/130/5 78/98/78 76/94/76
f 2/131/2 102/128/102 78/125/78 5/132/5
f 104/133/104 4/4/4 3/3/3 105/134/105
f 106/135/106 105/134/105 3/3/3 6/6/6
f 107/136/107 108/137/108 109/138/109 110/139/110
f 111/140/111 112/141/112 109/138/109 108/137/108
f 113/142/113 114/143/114 109/144/109 115/145/115
f 116/146/116 110/139/110 109/138/109 114/147/114
f 112/141/112 117/148/117 115/149/115 109/138/109
f 118/150/118 119/151/119 115/149/115 117/148/117
f 120/152/120 113/142/113 115/145/115 119/153/119
f 112/154/112 111/155/111 114/143/114 113/142/113
f 4/4/4 104/133/104 121/156/121 1/1/1
f 122/157/122 1/158/1 121/159/121 123/160/123
f 124/161/124 125/162/125 121/156/121 104/133/104
f 126/163/126 123/160/123 121/159/121 127/164/127
f 128/165/128 127/164/127 121/159/121 125/166/125
f 129/167/129 130/168/130 131/169/131 132/170/132
f 133/171/133 134/172/134 131/169/131 130/168/130
f 111/155/111 135/173/135 136/174/136 114/143/114
f 105/134/105 106/135/106 136/174/136 137/175/137
f 116/176/116 114/143/114 136/174/136 106/135/106
f 138/177/138 139/178/139 136/174/136 135/173/135
f 140/179/140 137/175/137 136/174/136 139/178/139
f 141/180/141 132/170/132 131/169/131 142/181/142
f 143/182/143 144/183/144 145/184/145 146/185/146
f 147/186/147 148/187/148 145/188/145 144/189/144
f 149/190/149 150/191/150 151/192/151 134/193/134
f 152/194/152 153/195/153 151/192/151 150/191/150
f 154/196/154 155/197/155 153/195/153 152/194/152
f 156/198/156 157/199/157 153/195/153 155/197/155
f 158/200/158 151/192/151 153/195/153 159/201/159
f 160/202/160 142/203/142 151/192/151 158/200/158
f 138/204/138 141/205/141 142/203/142 161/206/161
f 162/207/162 161/206/161 142/203/142 160/202/160
f 163/208/163 164/209/164 165/210/165 166/211/166
f 167/212/167 168/213/168 165/210/165 164/209/164
f 169/214/169 166/211/166 165/210/165 157/215/157
f 158/200/158 159/201/159 165/216/165 168/217/168
f 170/218/170 171/219/171 172/220/172 173/221/173
f 174/222/174 175/223/175 172/220/172 171/219/171
f 176/224/176 177/225/177 172/220/172 175/223/175
f 177/226/177 176/227/176 178/228/178 179/229/179
f 180/230/180 181/231/181 178/228/178 176/227/176
f 182/232/182 179/233/179 178/234/178 168/235/168
f 183/236/183 160/202/160 158/200/158 181/231/181
f 184/237/184 185/238/185 176/224/176 175/223/175
f 186/239/186 180/240/180 176/224/176 185/238/185
f 180/240/180 186/239/186 187/241/187 188/242/188
f 189/243/189 190/244/190 187/241/187 186/239/186
f 191/245/191 188/246/188 187/247/187 190/248/190
f 192/249/192 193/250/193 190/248/190 189/251/189
f 194/252/194 183/236/183 192/249/192 189/251/189
f 181/231/181 195/253/195 192/249/192 183/236/183
f 196/254/196 193/250/193 192/249/192 195/253/195
f 180/230/180 188/246/188 195/253/195 181/231/181
f 191/245/191 196/254/196 195/253/195 188/246/188
f 184/237/184 162/255/162 194/256/194 185/238/185
f 160/202/160 183/236/183 194/252/194 162/207/162
f 186/239/186 185/238/185 194/256/194 189/243/189
f 174/222/174 197/257/197 184/237/184 175/223/175
f 161/258/161 162/255/162 184/237/184 197/257/197
f 140/179/140 139/178/139 197/257/197 174/222/174
f 138/204/138 161/206/161 197/259/197 139/260/139
f 167/261/167 198/262/198 182/263/182 168/264/168
f 199/265/199 170/218/170 182/232/182 198/266/198
f 173/221/173 179/233/179 182/232/182 170/218/170
f 128/267/128 125/162/125 199/265/199 198/266/198
f 124/161/124 200/268/200 199/265/199 125/162/125
f 171/219/171 170/218/170 199/265/199 200/268/200
f 137/175/137 140/179/140 200/268/200 124/161/124
f 174/222/174 171/219/171 200/268/200 140/179/140
f 201/269/201 128/165/128 198/262/198 167/261/167
f 202/270/202 203/271/203 201/269/201 204/272/204
f 127/164/127 128/165/128 201/269/201 203/271/203
f 164/273/164 204/272/204 201/269/201 167/261/167
f 205/274/205 206/275/206 203/271/203 202/270/202
f 126/163/126 127/164/127 203/271/203 206/275/206
f 70/88/70 98/121/98 206/275/206 205/274/205
f 99/122/99 126/163/126 206/275/206 98/121/98
f 71/89/71 70/88/70 205/274/205 79/99/79
f 85/107/85 79/99/79 205/274/205 202/270/202
f 207/276/207 85/107/85 202/270/202 204/272/204
f 84/108/84 85/107/85 207/276/207 208/277/208
f 164/209/164 163/208/163 207/278/207 204/279/204
f 149/280/149 208/281/208 207/278/207 163/208/163
f 83/282/83 84/283/84 208/284/208 133/285/133
f 134/193/134 133/285/133 208/284/208 149/190/149
f 150/286/150 166/211/166 169/214/169 152/287/152
f 156/288/156 209/289/209 169/214/169 157/215/157
f 154/196/154 152/194/152 169/290/169 209/291/209
f 210/292/210 211/293/211 209/289/209 156/288/156
f 212/294/212 154/295/154 209/289/209 211/293/211
f 155/197/155 154/196/154 212/296/212 213/297/213
f 144/183/144 143/182/143 212/296/212 211/298/211
f 214/299/214 213/297/213 212/296/212 143/182/143
f 210/292/210 213/300/213 214/301/214 147/186/147
f 146/185/146 215/302/215 214/299/214 143/182/143
f 148/187/148 147/186/147 214/301/214 215/303/215
f 156/198/156 155/197/155 213/297/213 210/304/210
f 147/186/147 144/189/144 211/293/211 210/292/210
f 150/286/150 149/280/149 163/208/163 166/211/166
f 157/199/157 165/216/165 159/201/159 153/195/153
f 135/305/135 216/306/216 141/180/141 138/307/138
f 217/308/217 132/170/132 141/180/141 216/306/216
f 218/309/218 219/310/219 217/308/217 107/136/107
f 129/167/129 132/170/132 217/308/217 219/310/219
f 108/137/108 107/136/107 217/308/217 216/306/216
f 220/311/220 221/312/221 219/310/219 218/309/218
f 222/313/222 129/167/129 219/310/219 221/312/221
f 223/314/223 224/315/224 222/313/222 221/312/221
f 225/316/225 226/317/226 222/313/222 224/315/224
f 130/168/130 129/167/129 222/313/222 226/317/226
f 82/104/82 83/105/83 226/318/226 225/319/225
f 133/320/133 130/321/130 226/318/226 83/105/83
f 61/77/61 59/74/59 225/316/225 224/315/224
f 58/76/58 82/322/82 225/316/225 59/74/59
f 51/61/51 61/77/61 224/315/224 223/314/223
f 52/62/52 51/61/51 223/314/223 227/323/227
f 220/311/220 227/323/227 223/314/223 221/312/221
f 77/324/77 52/62/52 227/323/227 75/325/75
f 228/326/228 75/325/75 227/323/227 220/311/220
f 76/94/76 75/93/75 228/327/228 103/129/103
f 218/309/218 229/328/229 228/326/228 220/311/220
f 230/329/230 103/129/103 228/327/228 229/330/229
f 5/130/5 103/129/103 230/329/230 6/331/6
f 110/139/110 116/146/116 230/332/230 229/328/229
f 106/135/106 6/6/6 230/333/230 116/176/116
f 107/136/107 110/139/110 229/328/229 218/309/218
f 111/140/111 108/137/108 216/306/216 135/305/135
f 104/133/104 105/134/105 137/175/137 124/161/124
f 231/334/231 123/160/123 126/163/126 99/122/99
f 91/114/91 90/113/90 231/334/231 99/122/99
f 96/119/96 232/335/232 231/334/231 90/113/90
f 122/157/122 123/160/123 231/334/231 232/335/232
f 233/336/233 101/127/101 232/335/232 96/119/96
f 102/128/102 122/157/122 232/335/232 101/127/101
f 95/118/95 234/337/234 233/336/233 96/119/96
f 235/338/235 236/339/236 233/336/233 234/337/234
f 100/126/100 101/127/101 233/336/233 236/339/236
f 237/340/237 64/341/64 236/339/236 235/338/235
f 67/123/67 100/126/100 236/339/236 64/341/64
f 238/342/238 239/343/239 237/340/237 235/338/235
f 240/344/240 241/345/241 237/346/237 239/347/239
f 65/83/65 64/82/64 237/346/237 241/345/241
f 242/348/242 243/349/243 241/345/241 240/344/240
f 68/86/68 65/83/65 241/345/241 243/349/243
f 92/115/92 86/109/86 243/349/243 242/348/242
f 89/112/89 68/86/68 243/349/243 86/109/86
f 244/350/244 245/351/245 242/348/242 240/344/240
f 246/352/246 92/115/92 242/348/242 245/351/245
f 247/353/247 248/354/248 246/352/246 245/351/245
f 20/26/20 22/28/22 246/352/246 248/354/248
f 93/116/93 92/115/92 246/352/246 22/28/22
f 249/355/249 247/353/247 245/351/245 244/350/244
f 14/14/14 249/355/249 244/350/244 15/17/15
f 239/347/239 15/17/15 244/350/244 240/344/240
f 16/18/16 15/17/15 239/347/239 238/356/238
f 17/19/17 16/22/16 238/342/238 250/357/250
f 234/337/234 250/357/250 238/342/238 235/338/235
f 21/27/21 17/19/17 250/357/250 94/117/94
f 95/118/95 94/117/94 250/357/250 234/337/234
f 2/131/2 1/158/1 122/157/122 102/128/102
f 113/142/113 120/152/120 117/358/117 112/154/112
f 22/28/22 21/27/21 94/117/94 93/116/93
f 56/69/56 251/359/251 81/101/81 57/72/57
f 54/79/54 62/78/62 81/101/81 251/359/251
f 73/96/73 72/102/72 81/101/81 62/78/62
f 50/68/50 55/66/55 251/359/251 56/69/56
f 24/67/24 54/79/54 251/359/251 55/66/55
f 40/46/40 41/47/41 55/66/55 50/68/50
f 35/41/35 32/38/32 48/55/48 46/360/46
f 31/37/31 44/56/44 48/55/48 32/38/32
f 47/65/47 46/360/46 48/55/48 49/58/49
f 252/361/252 35/362/35 46/53/46 45/52/45
f 34/363/34 253/364/253 252/361/252 31/365/31
f 36/42/36 35/41/35 252/366/252 253/367/253
f 44/51/44 31/365/31 252/361/252 45/52/45
f 254/368/254 13/13/13 20/26/20 248/354/248
f 254/368/254 249/355/249 14/14/14 13/13/13
f 254/368/254 248/354/248 247/353/247 249/355/249
f 43/50/43 42/48/42 39/45/39 38/44/38
f 97/120/97 89/112/89 88/111/88 91/114/91
f 19/24/19 10/10/10 9/9/9 12/12/12
f 253/367/253 34/40/34 33/39/33 36/42/36
f 215/302/215 146/185/146 145/184/145 148/369/148
f 190/248/190 193/250/193 196/254/196 191/245/191
f 60/75/60 26/32/26 25/31/25 28/34/28
f 77/95/77 63/81/63 53/80/53 52/370/52
f 179/233/179 173/221/173 172/220/172 177/225/177
f 178/228/178 181/231/181 158/200/158 168/217/168
f 151/192/151 142/203/142 131/371/131 134/193/134
f 117/148/117 120/372/120 118/150/118
f 118/150/118 120/372/120 119/151/119
