# split from a merged terrain OBJ by scripts/split-terrain-obj-parts.py
o part-017
v 0.323428 0.990064 0.040920
v 0.314196 0.988100 0.044758
v 0.316150 0.979446 0.043471
v 0.322007 0.979113 0.041123
v 0.310210 0.980668 0.044004
v 0.312789 0.973638 0.042551
v 0.318255 0.969843 0.040398
v 0.316774 0.935766 0.021541
v 0.312352 0.933671 0.013728
v 0.309488 0.943070 0.015276
v 0.315351 0.943180 0.023591
v 0.315404 0.950532 0.024623
v 0.312772 0.951561 0.020409
v 0.305566 0.955819 0.014875
v 0.299929 0.951300 0.005902
v 0.300011 0.928541 0.022985
v 0.309067 0.928769 0.015394
v 0.316503 0.928947 0.021233
v 0.307612 0.928563 0.032016
v 0.307868 0.936603 0.031977
v 0.326295 0.992533 0.030010
v 0.324897 0.999932 0.032080
v 0.330132 0.999612 0.035363
v 0.328973 0.990915 0.036049
v 0.324365 0.999866 0.040695
v 0.321194 1.003391 0.036898
v 0.315813 0.999972 0.045459
v 0.306962 1.003855 0.039618
v 0.305680 0.990354 0.041187
v 0.305474 0.979805 0.041386
v 0.296447 0.970371 -0.000957
v 0.306060 0.968683 0.015526
v 0.316453 0.963114 0.023081
v 0.305278 0.938713 0.002500
v 0.298565 0.941683 0.003556
v 0.291004 0.941893 -0.011305
v 0.289982 0.954660 -0.013085
v 0.296525 0.936982 -0.012637
v 0.287249 0.941703 0.059634
v 0.277932 0.938948 0.057313
v 0.282549 0.929132 0.063562
v 0.285245 0.930468 0.056342
v 0.276287 0.928758 0.042048
v 0.272918 0.933248 0.043875
v 0.315476 1.005449 0.041076
v 0.308480 1.007114 0.028880
v 0.307355 0.969673 0.040612
v 0.313637 1.004650 0.026177
v 0.302434 1.005105 0.007519
v 0.296775 1.006253 0.009146
v 0.306051 1.011982 0.035986
v 0.306419 1.012006 0.026169
v 0.295429 1.011159 0.008466
v 0.282367 0.953591 0.050833
v 0.277530 0.945280 0.055183
v 0.281299 0.944980 0.064082
v 0.283855 0.946717 0.056914
v 0.301536 1.011277 0.040814
v 0.301150 1.004127 0.040566
v 0.301064 0.990759 0.040504
v 0.290104 0.960780 0.052325
v 0.289933 0.951504 0.053548
v 0.306359 1.022241 0.021117
v 0.301355 1.024265 0.021783
v 0.306755 1.024278 0.030905
v 0.308663 1.021188 0.033177
v 0.293876 1.024288 0.024033
v 0.299806 1.024273 0.034416
v 0.302888 1.021848 0.040190
v 0.318730 0.975779 0.024383
v 0.305584 0.982457 0.014656
v 0.307217 0.993068 0.013735
v 0.318607 0.986382 0.023675
v 0.293145 0.988703 -0.007551
v 0.293655 0.999108 -0.007291
v 0.319758 0.995310 0.023048
v 0.309148 1.000074 0.007141
v 0.295350 1.002214 -0.019912
v 0.276493 0.946340 0.041222
v 0.281973 0.954139 0.039666
v 0.302000 1.017304 0.040465
v 0.296426 1.017946 0.044828
v 0.296055 1.010263 0.046309
v 0.290939 1.018096 0.046108
v 0.289919 1.012342 0.045225
v 0.297527 1.002193 0.045399
v 0.287168 1.009720 0.047422
v 0.291643 1.006754 0.051360
v 0.294625 0.999898 0.050604
v 0.292674 1.024180 0.036958
v 0.286626 1.023704 0.039322
v 0.291499 1.023377 0.050680
v 0.296820 1.023610 0.044706
v 0.284754 1.018509 0.039020
v 0.289929 0.998580 -0.008971
v 0.280252 0.999282 -0.028526
v 0.289373 0.973702 -0.013678
v 0.281091 0.975671 -0.028178
v 0.272025 0.956772 -0.045129
v 0.272339 0.972816 -0.044734
v 0.281404 0.956945 -0.028524
v 0.252863 0.928673 -0.068694
v 0.251263 0.928802 -0.077226
v 0.258635 0.929078 -0.080616
v 0.260735 0.928784 -0.072558
v 0.264611 0.931635 -0.075271
v 0.258500 0.932407 -0.080134
v 0.251278 0.931902 -0.080327
v 0.276550 1.009008 0.042828
v 0.272382 1.005760 0.045338
v 0.277962 1.003973 0.053632
v 0.282497 1.007474 0.051390
v 0.273049 1.000527 0.043481
v 0.280422 1.000417 0.052332
v 0.286877 1.003263 0.055387
v 0.245509 0.928678 -0.065417
v 0.236513 0.928831 -0.063221
v 0.234661 0.929129 -0.075781
v 0.244015 0.928862 -0.076120
v 0.229690 0.930850 -0.060162
v 0.234640 0.932676 -0.075064
v 0.243668 0.932041 -0.079635
v 0.235469 0.938529 -0.073947
v 0.229994 0.940100 -0.064225
v 0.228402 0.943087 -0.059845
v 0.226286 0.937295 -0.054423
v 0.239606 0.928817 -0.052303
v 0.233686 0.930608 -0.048280
v 0.230422 0.935025 -0.044459
v 0.277700 0.994948 0.037824
v 0.271249 0.999137 0.030762
v 0.274418 0.998293 0.024387
v 0.275757 0.991719 0.026896
v 0.262436 0.999658 0.015219
v 0.268503 0.999096 0.008781
v 0.268876 0.989603 0.009254
v 0.281886 0.984005 0.049695
v 0.281453 0.994067 0.049586
v 0.280969 0.982063 0.037910
v 0.275384 0.979686 0.025926
v 0.266178 1.001382 0.034024
v 0.260578 1.015820 -0.058998
v 0.249609 1.013966 -0.062159
v 0.257829 1.023464 -0.060950
v 0.263736 1.022365 -0.056217
v 0.260541 1.024060 -0.052319
v 0.257044 1.024047 -0.056213
v 0.224541 0.942063 -0.052858
v 0.225939 0.945560 -0.055473
v 0.223035 0.945316 -0.053372
v 0.235490 0.946832 -0.050022
v 0.240132 0.950575 -0.056811
v 0.230611 0.941129 -0.041874
v 0.233366 0.946219 -0.039933
v 0.240999 0.950955 -0.039008
v 0.237059 0.943287 -0.061135
v 0.241510 0.941956 -0.064488
v 0.246657 0.953933 -0.071003
v 0.246674 0.943310 -0.073604
v 0.240719 0.951679 -0.065731
v 0.265754 0.985905 -0.056034
v 0.261499 0.985899 -0.064571
v 0.262122 0.996426 -0.063511
v 0.266407 0.996071 -0.054904
v 0.261849 0.986728 -0.071592
v 0.264372 0.999313 -0.067777
v 0.271388 1.000461 -0.056897
v 0.236087 0.964957 -0.058932
v 0.236226 0.964498 -0.049715
v 0.239614 0.964638 -0.040035
v 0.239510 0.946387 -0.031577
v 0.246510 0.946989 -0.033792
v 0.248719 1.024313 -0.045573
v 0.243983 1.024133 -0.053287
v 0.237503 1.024041 -0.050318
v 0.243299 1.023961 -0.043088
v 0.241758 1.021495 -0.057076
v 0.238334 1.019050 -0.051178
v 0.242195 1.018376 -0.042695
v 0.265192 1.010708 -0.049095
v 0.264591 1.006109 -0.050370
v 0.255165 1.005520 -0.066047
v 0.257800 1.010264 -0.061827
v 0.268393 1.005332 -0.053319
v 0.259486 1.004596 -0.068127
v 0.252892 0.987235 -0.074774
v 0.247573 0.986047 -0.071840
v 0.246995 1.008457 -0.061921
v 0.243557 1.001164 -0.064862
v 0.239708 1.001679 -0.017308
v 0.234170 0.999949 -0.029622
v 0.238890 0.999400 -0.029349
v 0.243880 0.999647 -0.020279
v 0.249744 0.999203 -0.023481
v 0.242045 0.999350 -0.034695
v 0.234966 0.998975 -0.040009
v 0.239717 1.010037 -0.050562
v 0.243096 1.011369 -0.043073
v 0.243294 1.016400 -0.058137
v 0.236365 1.009474 -0.039828
v 0.233384 1.009257 -0.045300
v 0.241460 1.010898 -0.057188
v 0.234428 1.008211 -0.053054
v 0.229496 1.007394 -0.046611
v 0.235275 0.991700 -0.049429
v 0.236964 0.990051 -0.041324
v 0.232501 0.999701 -0.050093
v 0.245275 0.989912 -0.036070
v 0.228553 1.002754 -0.047137
v 0.227549 1.003187 -0.038868
v 0.231690 1.004874 -0.028557
v 0.229899 1.007429 -0.038234
v 0.236950 0.995361 -0.058655
v 0.238782 1.005328 -0.058002
v 0.301683 0.967488 0.039642
v 0.298518 0.965404 0.044043
v 0.300499 0.952072 0.041283
v 0.304900 0.958392 0.036110
v 0.310285 0.952536 0.030177
v 0.308325 0.945120 0.031878
v 0.294721 0.941900 0.052083
v 0.299373 0.939738 0.042988
v 0.295164 0.953122 0.050459
v 0.295517 0.963836 0.049528
v 0.297902 0.977703 0.045020
v 0.295332 0.976357 0.049561
v 0.289492 0.974576 0.052334
v 0.295405 0.988516 0.049671
v 0.289652 0.986469 0.052425
v 0.282412 0.970811 0.049857
v 0.281574 0.968558 0.039161
v 0.275094 0.966464 0.025166
v 0.274936 0.954074 0.025066
v 0.272183 0.946443 0.026441
v 0.268630 0.964411 0.009356
v 0.268230 0.952500 0.009118
v 0.264536 0.946329 0.010814
v 0.266653 0.942740 0.029033
v 0.259815 0.943190 0.013113
v 0.261332 0.947059 -0.006925
v 0.254931 0.946156 -0.005836
v 0.250838 0.942651 -0.005225
v 0.259555 0.936065 0.012971
v 0.250271 0.936094 -0.006265
v 0.245609 0.946301 -0.021486
v 0.242362 0.942232 -0.021411
v 0.241598 0.935730 -0.023037
v 0.252589 0.930169 -0.008749
v 0.243725 0.930123 -0.026588
v 0.236513 0.941836 -0.031945
v 0.235874 0.935368 -0.033984
v 0.238189 0.930152 -0.037741
v 0.250350 0.928696 -0.031746
v 0.244295 0.928758 -0.042621
v 0.267641 0.928629 -0.018432
v 0.260101 0.928783 -0.013579
v 0.257841 0.928618 -0.036761
v 0.251894 0.928623 -0.047551
v 0.264795 0.928609 -0.041191
v 0.259218 0.928619 -0.052027
v 0.247895 0.928648 -0.055954
v 0.255676 0.928633 -0.060019
v 0.266705 0.928639 -0.056148
v 0.263581 0.928711 -0.064622
v 0.277449 0.930433 -0.048183
v 0.271699 0.928657 -0.045195
v 0.271735 0.930688 -0.059346
v 0.269051 0.930883 -0.067965
v 0.271599 0.937161 -0.059805
v 0.267963 0.936757 -0.068339
v 0.263734 0.936718 -0.074699
v 0.264349 0.944258 -0.067274
v 0.262166 0.944476 -0.072688
v 0.258028 0.936589 -0.078139
v 0.257664 0.944247 -0.075834
v 0.261636 0.955949 -0.071209
v 0.258017 0.955456 -0.075059
v 0.251454 0.936846 -0.078818
v 0.251889 0.943825 -0.076021
v 0.252216 0.954976 -0.074209
v 0.258144 0.969744 -0.075071
v 0.252368 0.969262 -0.074339
v 0.246316 0.968545 -0.070833
v 0.239984 0.967143 -0.066208
v 0.241483 0.985047 -0.067252
v 0.236411 0.982043 -0.059497
v 0.235781 0.979474 -0.049762
v 0.238147 0.978244 -0.040575
v 0.246186 0.963489 -0.034653
v 0.245858 0.977581 -0.035286
v 0.252018 0.963472 -0.023485
v 0.251883 0.977493 -0.023974
v 0.251471 0.989604 -0.024228
v 0.261340 0.977474 -0.007556
v 0.261121 0.988845 -0.007572
v 0.260921 0.999199 -0.007586
v 0.253285 0.999355 -0.003275
v 0.258216 1.002112 0.018540
v 0.247907 1.001932 0.000001
v 0.258637 1.007157 0.019016
v 0.248727 1.007218 -0.000064
v 0.238327 1.006836 -0.016267
v 0.253231 1.009285 -0.002256
v 0.242629 1.009554 -0.018275
v 0.235084 1.009176 -0.029564
v 0.249317 1.009744 -0.021227
v 0.242004 1.009653 -0.031844
v 0.254423 1.012301 -0.023287
v 0.247687 1.011796 -0.034249
v 0.253479 1.018573 -0.022365
v 0.247230 1.018190 -0.033669
v 0.254656 1.023850 -0.022894
v 0.248498 1.023865 -0.033920
v 0.259874 1.024226 -0.025898
v 0.253769 1.024268 -0.036900
v 0.265883 1.024363 -0.029426
v 0.259636 1.024354 -0.040621
v 0.254925 1.024336 -0.048550
v 0.265483 1.024250 -0.044698
v 0.251166 1.024284 -0.055197
v 0.250088 1.024273 -0.058255
v 0.271945 1.024405 -0.032813
v 0.276271 1.022383 -0.035683
v 0.269617 1.022574 -0.048089
v 0.275102 1.016646 -0.035463
v 0.267665 1.016487 -0.048710
v 0.272297 1.010555 -0.035049
v 0.285468 1.016827 -0.016041
v 0.283731 1.010519 -0.014882
v 0.283672 1.006216 -0.014866
v 0.272138 1.006302 -0.035615
v 0.288110 1.005327 -0.017825
v 0.276212 1.005415 -0.039144
v 0.292957 1.004491 -0.020724
v 0.280743 1.003868 -0.042950
v 0.272483 1.004289 -0.056663
v 0.280747 1.000110 -0.043375
v 0.263766 1.002456 -0.069589
v 0.258081 0.987240 -0.075053
v 0.261489 0.970261 -0.070887
v 0.260873 0.970981 -0.064413
v 0.261633 0.956122 -0.065452
v 0.265175 0.971784 -0.057127
v 0.264880 0.955902 -0.057738
v 0.267032 0.941888 -0.059053
v 0.271864 0.941800 -0.045299
v 0.277593 0.937217 -0.048120
v 0.281145 0.942129 -0.028750
v 0.286771 0.937472 -0.031691
v 0.286890 0.930544 -0.031169
v 0.297576 0.930616 -0.012135
v 0.292370 0.928594 -0.008101
v 0.281290 0.928645 -0.027501
v 0.285694 0.928539 -0.002945
v 0.274491 0.928601 -0.023022
v 0.278209 0.928534 0.002493
v 0.293710 0.928521 0.011840
v 0.284953 0.928505 0.017840
v 0.276812 0.928600 0.023136
v 0.269910 0.928585 0.007484
v 0.269303 0.928980 0.027349
v 0.261862 0.929317 0.011472
v 0.266669 0.935244 0.029047
v 0.272186 0.941164 0.042679
v 0.283178 0.928643 0.038115
v 0.298532 0.928551 0.042382
v 0.291205 0.930888 0.050510
v 0.291220 0.928519 0.031332
v 0.301654 0.928637 0.006300
v 0.306290 0.931776 0.002755
v 0.273025 0.988055 -0.044028
v 0.275755 0.996900 -0.039365
v 0.307859 1.004329 0.005978
v 0.318165 1.001674 0.024147
v 0.297267 1.016714 0.006348
v 0.306386 1.016927 0.023325
v 0.297887 1.022356 0.005290
v 0.286353 1.022344 -0.016315
v 0.292903 1.024323 0.006871
v 0.281757 1.024366 -0.013928
v 0.286206 1.024334 0.009199
v 0.275554 1.024329 -0.010698
v 0.280055 1.024193 0.011509
v 0.269423 1.024260 -0.008176
v 0.281160 1.023490 0.027871
v 0.287185 1.024171 0.025794
v 0.274313 1.023745 0.013658
v 0.263667 1.023946 -0.005888
v 0.272351 1.018971 0.014054
v 0.262225 1.019047 -0.005458
v 0.280418 1.012683 0.027159
v 0.279061 1.018633 0.027904
v 0.273389 1.012964 0.012858
v 0.262893 1.012576 -0.006671
v 0.269844 1.009918 0.014104
v 0.259342 1.009809 -0.005209
v 0.270811 1.009120 0.031722
v 0.276887 1.009824 0.028745
v 0.263815 1.009262 0.016841
v 0.282177 1.009823 0.039098
v 0.285911 1.012665 0.037685
v 0.266177 1.006724 0.034219
v 0.307226 1.017130 0.034522
v 0.269663 0.977200 0.009865
v 0.261390 0.964141 -0.007333
v 0.252002 0.946760 -0.023180
v 0.244075 0.937555 -0.078383
v 0.288763 0.996379 0.052998
v 0.297977 0.989927 0.044819
v 0.300972 0.978743 0.040997
v 0.319641 0.959108 0.030649
v 0.316185 0.960069 0.033900
v 0.311586 0.963110 0.037342
v 0.323310 0.968722 0.036986
v 0.327289 0.980163 0.036855
v 0.324829 0.970425 0.030387
v 0.325831 0.982239 0.030240
vt 0.331006 0.764716
vt 0.333742 0.763247
vt 0.332996 0.773335
vt 0.330722 0.772717
vt 0.334942 0.772220
vt 0.333624 0.776537
vt 0.330467 0.778453
vt 0.318810 0.798956
vt 0.314054 0.800553
vt 0.313648 0.794790
vt 0.319551 0.794983
vt 0.320351 0.790990
vt 0.317487 0.790110
vt 0.312706 0.787525
vt 0.306847 0.790047
vt 0.317045 0.809447
vt 0.314673 0.804295
vt 0.318547 0.802408
vt 0.323131 0.806289
vt 0.325414 0.801074
vt 0.324615 0.763696
vt 0.325037 0.759706
vt 0.327514 0.761318
vt 0.327695 0.765223
vt 0.329008 0.759335
vt 0.326429 0.756708
vt 0.329454 0.754161
vt 0.331059 0.750089
vt 0.336227 0.762185
vt 0.336993 0.771336
vt 0.303620 0.779101
vt 0.313442 0.779870
vt 0.319716 0.783183
vt 0.306914 0.797858
vt 0.304596 0.795118
vt 0.296090 0.796284
vt 0.294857 0.789262
vt 0.297366 0.800288
vt 0.834442 0.832228
vt 0.832829 0.825687
vt 0.837355 0.826170
vt 0.840151 0.827329
vt 0.839753 0.818119
vt 0.835676 0.817893
vt 0.325735 0.753568
vt 0.321071 0.749105
vt 0.335700 0.778244
vt 0.319422 0.753888
vt 0.309203 0.752367
vt 0.307570 0.749616
vt 0.325531 0.747121
vt 0.318428 0.747014
vt 0.307075 0.747251
vt 0.824579 0.827119
vt 0.829662 0.825574
vt 0.831250 0.829648
vt 0.828134 0.830336
vt 0.787081 0.844675
vt 0.792959 0.842724
vt 0.791773 0.845044
vt 0.784997 0.847890
vt 0.337516 0.761542
vt 0.333668 0.751063
vt 0.821419 0.832294
vt 0.827038 0.833954
vt 0.769013 0.840659
vt 0.770170 0.836911
vt 0.773681 0.842018
vt 0.776139 0.845425
vt 0.771439 0.833074
vt 0.775503 0.839789
vt 0.779370 0.844232
vt 0.320862 0.774161
vt 0.313102 0.770807
vt 0.312732 0.763104
vt 0.320300 0.767193
vt 0.301376 0.769703
vt 0.297785 0.763363
vt 0.320059 0.761126
vt 0.310271 0.757770
vt 0.294157 0.757194
vt 0.827460 0.819327
vt 0.822886 0.820977
vt 0.783264 0.844614
vt 0.785176 0.841064
vt 0.789809 0.840248
vt 0.785247 0.837788
vt 0.787883 0.836495
vt 0.796220 0.840199
vt 0.789914 0.835491
vt 0.793628 0.837187
vt 0.799070 0.837636
vt 0.777483 0.838007
vt 0.779239 0.835136
vt 0.782652 0.839030
vt 0.781255 0.841598
vt 0.781546 0.833500
vt 0.296914 0.765373
vt 0.284703 0.764846
vt 0.294814 0.778508
vt 0.284723 0.777962
vt 0.274223 0.787423
vt 0.274434 0.778064
vt 0.284913 0.788061
vt 0.256855 0.807457
vt 0.252448 0.803743
vt 0.254219 0.801655
vt 0.257797 0.803577
vt 0.258041 0.800623
vt 0.254174 0.800007
vt 0.251011 0.800866
vt 0.789831 0.828921
vt 0.792988 0.827389
vt 0.795607 0.831228
vt 0.792740 0.833121
vt 0.796185 0.826028
vt 0.798360 0.831175
vt 0.796757 0.834394
vt 0.255767 0.810062
vt 0.253093 0.812059
vt 0.248531 0.807501
vt 0.250934 0.805891
vt 0.247255 0.812028
vt 0.245165 0.804473
vt 0.248607 0.803159
vt 0.240638 0.802457
vt 0.242354 0.809521
vt 0.817190 0.756678
vt 0.817773 0.754318
vt 0.824940 0.755509
vt 0.821788 0.759220
vt 0.259788 0.817065
vt 0.258234 0.819197
vt 0.824037 0.764263
vt 0.826759 0.762333
vt 0.801085 0.823396
vt 0.796664 0.819383
vt 0.798539 0.816068
vt 0.802262 0.816996
vt 0.792391 0.810524
vt 0.796232 0.807555
vt 0.801377 0.806600
vt 0.807957 0.829326
vt 0.802265 0.830042
vt 0.808350 0.822696
vt 0.808586 0.815236
vt 0.793293 0.820768
vt 0.262629 0.748658
vt 0.256269 0.748943
vt 0.260602 0.744961
vt 0.264346 0.745403
vt 0.754977 0.778681
vt 0.754507 0.776386
vt 0.758202 0.772698
vt 0.757113 0.776241
vt 0.819439 0.760393
vt 0.816966 0.759488
vt 0.817826 0.760622
vt 0.813101 0.764130
vt 0.810281 0.760415
vt 0.820963 0.766230
vt 0.818153 0.768230
vt 0.813835 0.771128
vt 0.813456 0.756142
vt 0.812059 0.754335
vt 0.816436 0.749505
vt 0.249179 0.786782
vt 0.248490 0.793020
vt 0.243187 0.791926
vt 0.244869 0.787155
vt 0.808529 0.756212
vt 0.267698 0.769202
vt 0.262556 0.769138
vt 0.263735 0.762968
vt 0.268697 0.763226
vt 0.258960 0.768004
vt 0.262173 0.760401
vt 0.269121 0.759370
vt 0.802337 0.762772
vt 0.803949 0.767199
vt 0.805994 0.772296
vt 0.819028 0.773258
vt 0.816155 0.775296
vt 0.760965 0.781786
vt 0.761839 0.776779
vt 0.764184 0.777484
vt 0.763833 0.781841
vt 0.763763 0.774341
vt 0.766259 0.776290
vt 0.766529 0.781195
vt 0.269728 0.750103
vt 0.269576 0.752262
vt 0.258811 0.754571
vt 0.261134 0.751539
vt 0.269585 0.754487
vt 0.260021 0.756481
vt 0.253746 0.766650
vt 0.251169 0.765933
vt 0.255032 0.751491
vt 0.252283 0.755153
vt 0.783531 0.790334
vt 0.783046 0.782915
vt 0.785363 0.783707
vt 0.786519 0.789176
vt 0.790309 0.788169
vt 0.787934 0.781400
vt 0.785494 0.777043
vt 0.770693 0.773748
vt 0.769888 0.780145
vt 0.765116 0.772262
vt 0.773450 0.779904
vt 0.774474 0.776562
vt 0.768996 0.769988
vt 0.774168 0.772457
vt 0.776969 0.775342
vt 0.787338 0.771286
vt 0.790561 0.775030
vt 0.781192 0.771685
vt 0.793315 0.779819
vt 0.780042 0.774644
vt 0.780039 0.778055
vt 0.780003 0.783227
vt 0.777330 0.779040
vt 0.783134 0.766825
vt 0.775486 0.768993
vt 0.818077 0.841675
vt 0.818981 0.838893
vt 0.825352 0.841394
vt 0.822470 0.844430
vt 0.324905 0.791436
vt 0.329754 0.790141
vt 0.331846 0.794018
vt 0.325442 0.796062
vt 0.834169 0.836744
vt 0.836873 0.840746
vt 0.826128 0.836574
vt 0.819931 0.835601
vt 0.331205 0.802327
vt 0.812455 0.838555
vt 0.813028 0.835916
vt 0.813882 0.832534
vt 0.805975 0.837538
vt 0.807188 0.834082
vt 0.815406 0.828190
vt 0.815657 0.822035
vt 0.815251 0.813253
vt 0.821584 0.811798
vt 0.825705 0.811041
vt 0.814404 0.803549
vt 0.820380 0.801983
vt 0.824176 0.801256
vt 0.829177 0.810530
vt 0.827211 0.800877
vt 0.820366 0.791674
vt 0.823210 0.790177
vt 0.825658 0.789137
vt 0.830685 0.800191
vt 0.828481 0.787971
vt 0.821029 0.779993
vt 0.823194 0.778762
vt 0.825959 0.777090
vt 0.831302 0.786657
vt 0.828785 0.775315
vt 0.821557 0.771999
vt 0.824697 0.770387
vt 0.827658 0.768431
vt 0.274665 0.819406
vt 0.274821 0.822756
vt 0.266356 0.823090
vt 0.266529 0.819052
vt 0.286757 0.815415
vt 0.287106 0.819671
vt 0.274629 0.815183
vt 0.287486 0.823891
vt 0.267152 0.814689
vt 0.274586 0.811373
vt 0.267431 0.810526
vt 0.261362 0.813390
vt 0.262614 0.809616
vt 0.267807 0.806378
vt 0.262578 0.804958
vt 0.274593 0.803623
vt 0.274610 0.807285
vt 0.267418 0.802957
vt 0.262402 0.801486
vt 0.267479 0.799305
vt 0.262159 0.798327
vt 0.257929 0.797694
vt 0.262027 0.793659
vt 0.258601 0.793380
vt 0.254437 0.797572
vt 0.255475 0.793268
vt 0.258543 0.786946
vt 0.255776 0.786904
vt 0.250879 0.797564
vt 0.251764 0.793186
vt 0.252588 0.786819
vt 0.255923 0.778252
vt 0.252871 0.777905
vt 0.249304 0.777704
vt 0.245576 0.777203
vt 0.247892 0.764690
vt 0.792059 0.765251
vt 0.788857 0.761379
vt 0.800334 0.759160
vt 0.777384 0.764329
vt 0.795434 0.769496
vt 0.798187 0.773942
vt 0.807758 0.776541
vt 0.800280 0.778435
vt 0.809637 0.783374
vt 0.802274 0.785067
vt 0.795778 0.786681
vt 0.805115 0.795114
vt 0.799184 0.796736
vt 0.793737 0.798110
vt 0.789114 0.799626
vt 0.789410 0.812210
vt 0.785540 0.800963
vt 0.786706 0.813448
vt 0.782693 0.802015
vt 0.780543 0.791190
vt 0.779776 0.803009
vt 0.777727 0.792148
vt 0.776822 0.784231
vt 0.773921 0.793361
vt 0.773236 0.785797
vt 0.771009 0.794350
vt 0.770060 0.786584
vt 0.767880 0.795382
vt 0.766967 0.787336
vt 0.765389 0.795940
vt 0.764168 0.787970
vt 0.762601 0.796509
vt 0.761340 0.788154
vt 0.759502 0.796547
vt 0.758064 0.786653
vt 0.757875 0.780915
vt 0.754524 0.784111
vt 0.759280 0.775838
vt 0.760525 0.774072
vt 0.756640 0.796629
vt 0.278930 0.743768
vt 0.270512 0.744666
vt 0.270689 0.742302
vt 0.278925 0.741439
vt 0.265209 0.743011
vt 0.279119 0.746207
vt 0.270121 0.747384
vt 0.279033 0.749113
vt 0.292119 0.744994
vt 0.292644 0.747837
vt 0.292786 0.749899
vt 0.278971 0.751192
vt 0.292711 0.752472
vt 0.278596 0.753847
vt 0.292978 0.755298
vt 0.278209 0.757100
vt 0.269473 0.757195
vt 0.278042 0.759134
vt 0.260882 0.759007
vt 0.256259 0.767604
vt 0.258726 0.778285
vt 0.262258 0.778068
vt 0.261951 0.786866
vt 0.266826 0.777945
vt 0.266641 0.786979
vt 0.266412 0.795332
vt 0.274442 0.795602
vt 0.274566 0.799906
vt 0.284914 0.796193
vt 0.285294 0.800330
vt 0.285594 0.804037
vt 0.298160 0.803516
vt 0.298849 0.806945
vt 0.285928 0.807502
vt 0.299564 0.810948
vt 0.286380 0.811488
vt 0.300221 0.815367
vt 0.309286 0.810750
vt 0.310132 0.815692
vt 0.312171 0.819606
vt 0.301205 0.819812
vt 0.312079 0.823863
vt 0.301311 0.824008
vt 0.832874 0.810146
vt 0.834162 0.799468
vt 0.836156 0.809288
vt 0.831013 0.818438
vt 0.845489 0.818906
vt 0.840955 0.808728
vt 0.327570 0.812082
vt 0.330211 0.816126
vt 0.322775 0.818862
vt 0.319526 0.814910
vt 0.842732 0.830346
vt 0.842885 0.835483
vt 0.308755 0.805857
vt 0.307550 0.801977
vt 0.275187 0.768783
vt 0.278404 0.763701
vt 0.310076 0.755289
vt 0.320082 0.757348
vt 0.306925 0.744512
vt 0.317554 0.742453
vt 0.318733 0.744949
vt 0.306656 0.742156
vt 0.292060 0.742637
vt 0.306215 0.739888
vt 0.291823 0.740427
vt 0.764920 0.825875
vt 0.767405 0.823639
vt 0.316552 0.740278
vt 0.762790 0.809824
vt 0.759989 0.810744
vt 0.769747 0.821711
vt 0.765606 0.808576
vt 0.775940 0.828721
vt 0.773647 0.830903
vt 0.772357 0.820099
vt 0.768193 0.807338
vt 0.774587 0.818832
vt 0.770646 0.806445
vt 0.780801 0.825999
vt 0.778087 0.827296
vt 0.777612 0.817344
vt 0.773756 0.805124
vt 0.779967 0.816254
vt 0.776198 0.804181
vt 0.786966 0.823190
vt 0.783328 0.824821
vt 0.783508 0.814763
vt 0.786403 0.830666
vt 0.784040 0.831963
vt 0.790355 0.821870
vt 0.324351 0.743423
vt 0.324983 0.745374
vt 0.779509 0.847952
vt 0.808005 0.805590
vt 0.811979 0.793504
vt 0.818130 0.781594
vt 0.246248 0.798817
vt 0.801375 0.834577
vt 0.804459 0.840169
vt 0.811985 0.840912
vt 0.803367 0.842441
vt 0.338827 0.773154
vt 0.336942 0.783308
vt 0.324579 0.785061
vt 0.327394 0.785208
vt 0.331577 0.784419
vt 0.327550 0.778947
vt 0.328107 0.771120
vt 0.324566 0.777781
vt 0.325258 0.769789
vt 0.771478 0.767261
vt 0.765931 0.768145
vn 0.5448 -0.0550 0.8367
vn -0.0071 -0.0088 0.9999
vn 0.2290 -0.1478 0.9621
vn 0.4886 -0.1500 0.8595
vn -0.2195 -0.0905 0.9714
vn -0.0049 -0.2843 0.9587
vn 0.3043 -0.4005 0.8643
vn 0.9996 0.0269 0.0036
vn 0.8351 -0.1383 -0.5324
vn 0.7780 0.2541 -0.5746
vn 0.9930 0.0722 0.0938
vn 0.9757 -0.2176 0.0274
vn 0.7747 0.0317 -0.6315
vn 0.7445 0.0704 -0.6639
vn 0.8232 0.1199 -0.5550
vn 0.0110 -0.9999 -0.0032
vn 0.3599 -0.9024 -0.2370
vn 0.7640 -0.6452 0.0059
vn 0.5352 -0.7222 0.4381
vn 0.7674 -0.0367 0.6402
vn 0.7950 0.0341 -0.6057
vn 0.6760 0.6227 -0.3941
vn 0.9061 0.4209 0.0433
vn 0.9817 -0.0541 0.1825
vn 0.5956 0.4420 0.6708
vn 0.4395 0.8923 0.1031
vn 0.0681 0.3714 0.9260
vn 0.0949 0.4471 0.8895
vn -0.2443 0.0608 0.9678
vn -0.2336 -0.0540 0.9708
vn 0.8642 -0.0028 -0.5031
vn 0.7357 -0.0156 -0.6772
vn 0.7110 -0.0959 -0.6966
vn 0.7649 0.3986 -0.5060
vn 0.7245 0.4638 -0.5099
vn 0.7848 0.4488 -0.4275
vn 0.8780 0.0032 -0.4786
vn 0.7667 0.4731 -0.4340
vn 0.3970 0.0759 0.9147
vn -0.7052 -0.0700 0.7056
vn -0.3541 -0.3968 0.8468
vn 0.2092 -0.7699 0.6028
vn -0.2935 -0.9450 0.1444
vn -0.8322 -0.4399 0.3376
vn 0.1451 0.9129 0.3815
vn 0.6586 0.7505 -0.0539
vn -0.0656 -0.2965 0.9528
vn 0.3421 0.9288 -0.1422
vn 0.2114 0.9716 -0.1061
vn 0.6513 0.6592 -0.3758
vn 0.8867 0.1111 0.4487
vn 0.9672 -0.0188 -0.2532
vn 0.8680 -0.1327 -0.4784
vn -0.7141 0.4321 0.5508
vn -0.7683 0.4396 0.4653
vn -0.2969 0.2231 0.9285
vn -0.0156 0.7145 0.6995
vn 0.6570 0.0740 0.7503
vn 0.5498 0.0699 0.8324
vn 0.4308 0.0268 0.9020
vn 0.1108 0.0974 0.9891
vn 0.2919 0.3051 0.9065
vn 0.8639 0.3835 -0.3264
vn 0.2274 0.9694 -0.0926
vn 0.3908 0.9196 0.0409
vn 0.8993 0.3735 0.2274
vn -0.0063 1.0000 0.0048
vn 0.1380 0.9821 0.1280
vn 0.6073 0.4998 0.6176
vn 0.6454 -0.0843 -0.7592
vn 0.7411 -0.0635 -0.6684
vn 0.6709 -0.3478 -0.6549
vn 0.6346 -0.1541 -0.7573
vn 0.8233 -0.0683 -0.5635
vn 0.5319 -0.7055 -0.4685
vn 0.7535 -0.0026 -0.6575
vn 0.7928 -0.2491 -0.5563
vn 0.8277 -0.3425 -0.4446
vn -0.7912 0.5688 0.2247
vn -0.9379 0.2587 0.2311
vn 0.6917 -0.0157 0.7220
vn 0.4847 -0.0817 0.8708
vn 0.5148 0.2188 0.8289
vn -0.3840 -0.1462 0.9117
vn -0.3883 0.4727 0.7911
vn 0.7988 0.0465 0.5998
vn -0.1359 0.8705 0.4730
vn 0.4048 0.4704 0.7841
vn 0.6896 0.0351 0.7233
vn 0.0132 0.9986 0.0512
vn -0.5853 0.7397 0.3322
vn -0.1316 0.4294 0.8935
vn 0.4431 0.6555 0.6115
vn -0.8687 -0.0082 0.4952
vn 0.6987 -0.3785 -0.6071
vn 0.8100 -0.5121 -0.2858
vn 0.8652 0.0246 -0.5008
vn 0.8828 0.0214 -0.4692
vn 0.8813 0.0207 -0.4721
vn 0.8744 0.0027 -0.4852
vn 0.8733 0.0052 -0.4872
vn 0.0012 -0.9999 -0.0133
vn -0.0658 -0.9062 -0.4176
vn 0.2045 -0.7825 -0.5881
vn 0.2544 -0.9507 -0.1774
vn 0.7414 -0.2985 -0.6010
vn 0.3303 -0.0929 -0.9393
vn -0.0812 -0.1418 -0.9866
vn -0.2721 0.9313 0.2422
vn -0.7560 0.3535 0.5509
vn -0.5738 0.1997 0.7943
vn -0.1767 0.7630 0.6218
vn -0.7473 -0.5210 0.4124
vn -0.5016 -0.3421 0.7946
vn 0.0953 0.1576 0.9829
vn -0.0138 -0.9999 -0.0078
vn -0.2760 -0.9608 -0.0279
vn -0.3669 -0.8223 -0.4349
vn -0.1052 -0.8920 -0.4396
vn -0.7792 -0.6137 -0.1275
vn -0.6903 -0.2696 -0.6714
vn -0.2296 -0.1727 -0.9578
vn -0.6106 0.5340 -0.5849
vn -0.7203 0.4150 -0.5558
vn -0.6921 0.4613 -0.5552
vn -0.9419 -0.3345 -0.0315
vn -0.1316 -0.9906 0.0377
vn -0.5057 -0.8458 0.1702
vn -0.8153 -0.4555 0.3575
vn -0.8466 -0.4708 0.2480
vn -0.5356 -0.8364 0.1169
vn -0.7212 -0.6676 0.1849
vn -0.9381 -0.2006 0.2823
vn -0.2264 -0.9688 0.1011
vn -0.6704 -0.6872 0.2799
vn -0.9206 -0.0241 0.3897
vn -0.7716 -0.0711 0.6322
vn -0.6771 -0.3355 0.6550
vn -0.9620 -0.0790 0.2615
vn -0.9287 -0.0254 0.3700
vn -0.7568 -0.5339 0.3771
vn 0.6233 -0.1224 -0.7724
vn -0.1647 0.2274 -0.9598
vn 0.2192 0.5754 -0.7880
vn 0.6381 0.4912 -0.5929
vn 0.1407 0.9847 -0.1030
vn 0.1146 0.9898 -0.0846
vn -0.9952 0.0407 0.0895
vn -0.6308 0.6743 -0.3840
vn -0.6682 0.7337 0.1233
vn -0.6743 0.7381 -0.0256
vn -0.8929 0.2279 -0.3883
vn -0.8638 -0.0311 0.5029
vn -0.6263 0.6832 0.3754
vn -0.6842 0.4465 0.5766
vn -0.4151 0.6970 -0.5847
vn -0.6326 0.6042 -0.4845
vn -0.6063 0.0397 -0.7942
vn -0.4925 0.4754 -0.7290
vn -0.8499 -0.0122 -0.5268
vn 0.8741 -0.0078 -0.4857
vn 0.9837 -0.0593 -0.1697
vn 0.8987 -0.3937 -0.1933
vn 0.7837 -0.4421 -0.4363
vn 0.9375 -0.0578 -0.3431
vn 0.8640 -0.2515 -0.4362
vn 0.7331 -0.5094 -0.4507
vn -0.9592 -0.0761 -0.2723
vn -0.9942 -0.0491 0.0953
vn -0.8118 -0.0165 0.5837
vn -0.5107 0.7564 0.4086
vn -0.5910 0.6321 0.5011
vn -0.0263 0.9996 0.0127
vn -0.2526 0.9399 -0.2297
vn -0.7564 0.6539 0.0159
vn -0.5725 0.7467 0.3386
vn -0.5938 0.3682 -0.7154
vn -0.9945 0.0454 -0.0947
vn -0.8790 -0.0112 0.4766
vn 0.8631 -0.1449 -0.4839
vn 0.6545 0.6527 -0.3817
vn -0.1089 0.6420 -0.7589
vn 0.5252 0.1355 -0.8401
vn 0.1755 0.9753 -0.1339
vn -0.0500 0.8041 -0.5924
vn -0.2943 0.2148 -0.9313
vn -0.4782 0.1731 -0.8610
vn -0.3678 0.3973 -0.8407
vn -0.5408 0.3395 -0.7696
vn -0.6416 -0.6699 0.3736
vn -0.4890 -0.8371 0.2452
vn -0.0983 -0.9908 0.0930
vn -0.1556 -0.9824 0.1033
vn -0.5545 -0.7595 0.3403
vn -0.4663 -0.7580 0.4561
vn -0.6637 -0.6804 0.3107
vn -0.7770 0.6279 -0.0455
vn -0.7595 0.5563 0.3371
vn -0.5962 0.2046 -0.7763
vn -0.2424 0.9694 0.0398
vn -0.2977 0.9540 -0.0357
vn -0.6680 0.4584 -0.5862
vn -0.6864 0.5108 -0.5176
vn -0.7442 0.6059 -0.2813
vn -0.9942 -0.1061 -0.0181
vn -0.8251 -0.1620 0.5413
vn -0.9035 -0.2476 -0.3498
vn -0.7284 -0.1373 0.6713
vn -0.9008 -0.2993 -0.3147
vn -0.9637 -0.2294 0.1364
vn -0.9159 0.0508 0.3982
vn -0.6599 0.7424 0.1157
vn -0.8762 0.0867 -0.4741
vn -0.7132 0.1985 -0.6723
vn 0.4831 -0.1376 0.8647
vn 0.8359 0.0066 0.5489
vn 0.8188 0.0030 0.5741
vn 0.5452 -0.2354 0.8046
vn 0.6057 -0.3198 0.7286
vn 0.7599 -0.0290 0.6493
vn 0.7586 -0.0673 0.6481
vn 0.8053 -0.0730 0.5883
vn 0.7239 0.0718 0.6862
vn 0.6944 0.0270 0.7191
vn 0.8433 -0.0002 0.5374
vn 0.6869 0.0007 0.7267
vn 0.0613 0.0052 0.9981
vn 0.6919 -0.0095 0.7220
vn 0.0546 -0.0258 0.9982
vn -0.7839 -0.0059 0.6208
vn -0.9687 -0.0125 0.2479
vn -0.9185 0.0110 0.3952
vn -0.8926 0.2437 0.3792
vn -0.6946 0.6571 0.2929
vn -0.9217 0.0229 0.3872
vn -0.8787 0.3257 0.3491
vn -0.6028 0.7591 0.2458
vn -0.8121 0.4658 0.3515
vn -0.7892 0.4889 0.3717
vn -0.7525 0.5710 0.3283
vn -0.4399 0.8756 0.1997
vn -0.8148 0.4015 0.4182
vn -0.8914 -0.2021 0.4056
vn -0.8720 -0.2316 0.4312
vn -0.4178 0.8769 0.2376
vn -0.8387 0.2983 0.4557
vn -0.8488 -0.2845 0.4457
vn -0.5187 -0.8186 0.2468
vn -0.4902 -0.8336 0.2545
vn -0.8510 0.1812 0.4929
vn -0.8254 -0.3563 0.4380
vn -0.4742 -0.8510 0.2255
vn -0.0803 -0.9959 0.0418
vn -0.1016 -0.9941 0.0392
vn -0.0070 -1.0000 0.0017
vn -0.0705 -0.9971 0.0288
vn -0.0062 -1.0000 0.0031
vn -0.0082 -1.0000 0.0014
vn 0.0014 -1.0000 -0.0009
vn 0.0008 -1.0000 -0.0023
vn -0.0104 -0.9999 0.0006
vn 0.0010 -1.0000 -0.0049
vn 0.1405 -0.9879 -0.0657
vn 0.1675 -0.9821 -0.0860
vn 0.6980 -0.6118 -0.3722
vn 0.1252 -0.9899 -0.0663
vn 0.7367 -0.5921 -0.3266
vn 0.7769 -0.5033 -0.3783
vn 0.8570 0.3834 -0.3443
vn 0.8679 0.2969 -0.3982
vn 0.6973 0.2844 -0.6580
vn 0.8979 0.3193 -0.3030
vn 0.7765 0.2388 -0.5831
vn 0.3068 0.3299 -0.8928
vn 0.3003 0.2183 -0.9285
vn 0.9088 0.0761 -0.4102
vn 0.3343 0.0553 -0.9408
vn -0.0306 0.3717 -0.9278
vn -0.1698 0.3046 -0.9372
vn -0.3036 0.0727 -0.9500
vn 0.3572 -0.0071 -0.9340
vn -0.3128 -0.0069 -0.9498
vn -0.5551 -0.0098 -0.8317
vn -0.7828 -0.0400 -0.6209
vn -0.6787 0.1175 -0.7250
vn -0.9449 0.0367 -0.3254
vn -0.9953 -0.0308 0.0921
vn -0.8171 -0.0296 0.5758
vn -0.7745 0.0048 0.6326
vn -0.7527 -0.0017 0.6584
vn -0.8761 0.0079 0.4821
vn -0.8754 -0.0056 0.4834
vn -0.8593 -0.1010 0.5015
vn -0.8875 -0.0021 0.4608
vn -0.8815 -0.0398 0.4706
vn -0.6301 -0.6962 0.3439
vn -0.1889 -0.9768 0.1006
vn -0.7562 -0.5266 0.3883
vn -0.7323 -0.5521 0.3987
vn -0.7201 0.5817 0.3783
vn -0.7239 0.5572 0.4068
vn -0.8111 0.3770 0.4472
vn -0.2019 0.9719 0.1209
vn -0.2658 0.9533 0.1431
vn -0.4256 0.8916 0.1544
vn -0.2157 0.9691 0.1197
vn -0.1965 0.9772 0.0800
vn -0.7834 0.4435 0.4355
vn -0.7436 0.5254 0.4135
vn -0.8780 0.0371 0.4773
vn -0.8709 0.0363 0.4901
vn -0.5614 0.7712 0.3001
vn -0.5666 0.7593 0.3199
vn -0.0333 0.9993 0.0182
vn -0.0314 0.9993 0.0211
vn -0.0076 1.0000 0.0032
vn -0.0006 1.0000 -0.0042
vn 0.0068 0.9999 -0.0133
vn 0.1457 0.9845 -0.0979
vn -0.0374 0.9952 -0.0904
vn -0.1995 0.7557 -0.6238
vn 0.1576 0.9839 -0.0839
vn 0.7714 0.4849 -0.4121
vn 0.7393 0.4931 -0.4585
vn 0.8449 -0.2791 -0.4563
vn 0.8298 -0.2522 -0.4978
vn 0.8666 -0.1767 -0.4666
vn 0.8513 -0.2696 -0.4502
vn 0.8702 -0.1588 -0.4664
vn 0.6586 0.6627 -0.3565
vn 0.6725 0.6463 -0.3605
vn 0.1512 0.9850 -0.0833
vn 0.1645 0.9819 -0.0939
vn 0.5658 0.7569 -0.3271
vn 0.6337 0.6680 -0.3902
vn 0.6817 0.5677 -0.4616
vn 0.7584 -0.4714 -0.4502
vn 0.4516 0.4815 -0.7511
vn 0.3123 0.1205 -0.9423
vn 0.9459 -0.0030 -0.3245
vn 0.9771 0.0040 -0.2129
vn 0.9678 0.1102 -0.2265
vn 0.8757 0.0011 -0.4829
vn 0.9040 0.0848 -0.4191
vn 0.8442 0.4341 -0.3143
vn 0.7980 0.4477 -0.4033
vn 0.8004 0.4302 -0.4174
vn 0.7858 0.4374 -0.4373
vn 0.7839 0.4493 -0.4286
vn 0.7042 -0.5965 -0.3851
vn 0.7260 -0.5560 -0.4048
vn 0.1535 -0.9848 -0.0818
vn 0.1239 -0.9899 -0.0692
vn 0.0024 -1.0000 -0.0033
vn 0.0009 -1.0000 -0.0023
vn -0.0058 -1.0000 -0.0005
vn 0.0071 -1.0000 -0.0025
vn -0.0034 -1.0000 0.0018
vn -0.0275 -0.9996 0.0088
vn -0.0502 -0.9987 0.0125
vn -0.4928 -0.8462 0.2025
vn -0.5317 -0.8154 0.2289
vn -0.8947 -0.2402 0.3766
vn -0.8969 0.2800 0.3423
vn 0.0029 -0.9982 0.0595
vn 0.4764 -0.7595 0.4429
vn 0.4873 -0.7391 0.4650
vn -0.0107 -0.9995 0.0304
vn 0.2392 -0.9630 -0.1242
vn 0.7981 -0.4206 -0.4314
vn 0.8785 -0.0612 -0.4738
vn 0.5632 -0.7985 -0.2126
vn 0.6100 0.7327 -0.3016
vn 0.6610 0.6490 -0.3767
vn 0.8487 -0.2727 -0.4531
vn 0.9253 -0.2401 -0.2935
vn 0.7708 0.4867 -0.4110
vn 0.7710 0.4902 -0.4065
vn 0.1641 0.9827 -0.0864
vn 0.1613 0.9833 -0.0837
vn -0.0073 1.0000 0.0058
vn -0.0082 1.0000 0.0055
vn -0.0405 0.9988 0.0258
vn -0.0328 0.9993 0.0189
vn -0.5482 0.7914 0.2703
vn -0.0482 0.9985 0.0240
vn -0.5268 0.8043 0.2748
vn -0.5446 0.7877 0.2879
vn -0.8890 0.0662 0.4530
vn -0.8840 0.0528 0.4645
vn -0.8422 0.3331 0.4239
vn -0.8949 0.0496 0.4434
vn -0.8414 0.3291 0.4286
vn -0.8176 0.3821 0.4307
vn -0.3303 0.9282 0.1711
vn -0.2861 0.9456 0.1550
vn -0.2383 0.9611 0.1399
vn -0.3242 0.9309 0.1684
vn -0.2061 0.9722 0.1113
vn -0.3237 0.9230 0.2081
vn -0.8056 0.3597 0.4707
vn -0.7509 0.5028 0.4282
vn 0.9389 -0.1101 0.3260
vn -0.9227 0.0044 0.3854
vn -0.8914 0.0165 0.4529
vn -0.6374 0.6846 0.3536
vn -0.2844 0.5007 -0.8176
vn 0.1061 -0.1411 0.9843
vn 0.8418 0.0058 0.5398
vn 0.4216 -0.0269 0.9064
vn 0.8567 -0.5129 0.0543
vn 0.4409 -0.6013 0.6664
vn 0.1618 -0.4998 0.8509
vn 0.7260 -0.4318 0.5352
vn 0.9213 -0.1724 0.3484
vn 0.9098 -0.2767 -0.3093
vn 0.8549 -0.1160 -0.5056
f 1/1/1 2/2/2 3/3/3 4/4/4
f 5/5/5 6/6/6 3/3/3 2/2/2
f 7/7/7 4/4/4 3/3/3 6/6/6
f 8/8/8 9/9/9 10/10/10 11/11/11
f 12/12/12 11/11/11 10/10/10 13/13/13
f 14/14/14 13/13/13 10/10/10 15/15/15
f 16/16/16 17/17/17 18/18/18 19/19/19
f 20/20/20 19/19/19 18/18/18 8/8/8
f 9/9/9 8/8/8 18/18/18 17/17/17
f 21/21/21 22/22/22 23/23/23 24/24/24
f 1/1/1 24/24/24 23/23/23 25/25/25
f 26/26/26 25/25/25 23/23/23 22/22/22
f 25/25/25 27/27/27 2/2/2 1/1/1
f 28/28/28 29/29/29 2/2/2 27/27/27
f 30/30/30 5/5/5 2/2/2 29/29/29
f 31/31/31 32/32/32 14/14/14 15/15/15
f 33/33/33 13/13/13 14/14/14 32/32/32
f 34/34/34 35/35/35 15/15/15 10/10/10
f 36/36/36 37/37/37 15/15/15 35/35/35
f 38/38/38 36/36/36 35/35/35 34/34/34
f 39/39/39 40/40/40 41/41/41 42/42/42
f 43/43/43 42/42/42 41/41/41 44/44/44
f 26/26/26 45/45/45 27/27/27 25/25/25
f 46/46/46 28/28/28 27/27/27 45/45/45
f 47/47/47 6/6/6 5/5/5 30/30/30
f 48/48/48 46/46/46 45/45/45 26/26/26
f 49/49/49 50/50/50 46/46/46 48/48/48
f 51/51/51 28/28/28 46/46/46 52/52/52
f 53/53/53 52/52/52 46/46/46 50/50/50
f 54/54/54 55/55/55 56/56/56 57/57/57
f 40/40/40 39/39/39 56/56/56 55/55/55
f 58/58/58 59/59/59 28/60/28 51/61/51
f 60/62/60 29/29/29 28/28/28 59/63/59
f 61/64/61 54/54/54 57/57/57 62/65/62
f 63/66/63 64/67/64 65/68/65 66/69/66
f 67/70/67 68/71/68 65/68/65 64/67/64
f 69/72/69 66/69/66 65/68/65 68/71/68
f 70/73/70 71/74/71 72/75/72 73/76/73
f 74/77/74 75/78/75 72/75/72 71/74/71
f 76/79/76 73/76/73 72/75/72 77/80/77
f 78/81/78 77/80/77 72/75/72 75/78/75
f 79/82/79 55/55/55 54/54/54 80/83/80
f 81/84/81 82/85/82 83/86/83 58/58/58
f 84/87/84 85/88/85 83/86/83 82/85/82
f 59/59/59 58/58/58 83/86/83 86/89/86
f 87/90/87 88/91/88 83/86/83 85/88/85
f 89/92/89 86/89/86 83/86/83 88/91/88
f 90/93/90 91/94/91 92/95/92 93/96/93
f 82/85/82 93/96/93 92/95/92 84/87/84
f 94/97/94 84/87/84 92/95/92 91/94/91
f 95/98/95 96/99/96 75/78/75 74/77/74
f 31/31/31 97/100/97 95/98/95 74/77/74
f 98/101/98 96/99/96 95/98/95 97/100/97
f 99/102/99 100/103/100 98/101/98 101/104/101
f 37/37/37 101/104/101 98/101/98 97/100/97
f 102/105/102 103/106/103 104/107/104 105/108/105
f 106/109/106 105/108/105 104/107/104 107/110/107
f 108/111/108 107/110/107 104/107/104 103/106/103
f 109/112/109 110/113/110 111/114/111 112/115/112
f 113/116/113 114/117/114 111/114/111 110/113/110
f 115/118/115 112/115/112 111/114/111 114/117/114
f 116/119/116 117/120/117 118/121/118 119/122/119
f 120/123/120 121/124/121 118/121/118 117/120/117
f 122/125/122 119/122/119 118/121/118 121/124/121
f 123/126/123 121/124/121 120/123/120 124/127/124
f 125/128/125 124/129/124 120/130/120 126/131/126
f 127/132/127 128/133/128 120/123/120 117/120/117
f 129/134/129 126/131/126 120/130/120 128/135/128
f 130/136/130 131/137/131 132/138/132 133/139/133
f 134/140/134 135/141/135 132/138/132 131/137/131
f 136/142/136 133/139/133 132/138/132 135/141/135
f 137/143/137 138/144/138 130/136/130 139/145/139
f 140/146/140 139/145/139 130/136/130 133/139/133
f 141/147/141 131/137/131 130/136/130 113/116/113
f 114/117/114 113/116/113 130/136/130 138/144/138
f 142/148/142 143/149/143 144/150/144 145/151/145
f 146/152/146 145/153/145 144/154/144 147/155/147
f 126/131/126 148/156/148 149/157/149 125/128/125
f 150/158/150 151/159/151 149/157/149 148/156/148
f 152/160/152 125/128/125 149/157/149 151/159/151
f 153/161/153 154/162/154 150/158/150 148/156/148
f 155/163/155 151/159/151 150/158/150 154/162/154
f 124/129/124 156/164/156 157/165/157 123/166/123
f 158/167/158 159/168/159 157/169/157 160/170/160
f 125/128/125 152/160/152 156/164/156 124/129/124
f 152/160/152 160/171/160 157/165/157 156/164/156
f 161/172/161 162/173/162 163/174/163 164/175/164
f 165/176/165 166/177/166 163/174/163 162/173/162
f 167/178/167 164/175/164 163/174/163 166/177/166
f 168/179/168 152/160/152 151/159/151 169/180/169
f 170/181/170 169/180/169 151/159/151 155/163/155
f 171/182/171 172/183/172 155/163/155 154/162/154
f 173/184/173 174/185/174 175/186/175 176/187/176
f 177/188/177 178/189/178 175/186/175 174/185/174
f 179/190/179 176/187/176 175/186/175 178/189/178
f 180/191/180 181/192/181 182/193/182 183/194/183
f 184/195/184 185/196/185 182/193/182 181/192/181
f 186/197/186 187/198/187 182/193/182 185/196/185
f 188/199/188 183/194/183 182/193/182 189/200/189
f 190/201/190 191/202/191 192/203/192 193/204/193
f 194/205/194 193/204/193 192/203/192 195/206/195
f 196/207/196 195/206/195 192/203/192 191/202/191
f 179/190/179 178/189/178 197/208/197 198/209/198
f 177/188/177 199/210/199 197/208/197 178/189/178
f 200/211/200 198/209/198 197/208/197 201/212/201
f 202/213/202 203/214/203 197/208/197 199/210/199
f 204/215/204 201/212/201 197/208/197 203/214/203
f 205/216/205 206/217/206 196/207/196 207/218/207
f 208/219/208 195/206/195 196/207/196 206/217/206
f 209/220/209 207/218/207 196/207/196 210/221/210
f 211/222/211 210/221/210 196/207/196 191/202/191
f 212/223/212 200/211/200 201/212/201 204/215/204
f 213/224/213 205/216/205 207/218/207 214/225/214
f 202/213/202 214/225/214 207/218/207 203/214/203
f 204/215/204 203/214/203 207/218/207 209/220/209
f 215/226/215 216/227/216 217/228/217 218/229/218
f 219/230/219 218/231/218 217/232/217 220/233/220
f 221/234/221 222/235/222 217/228/217 223/236/223
f 224/237/224 223/236/223 217/228/217 216/227/216
f 20/20/20 220/233/220 217/232/217 222/238/222
f 212/223/212 204/215/204 209/220/209 210/221/210
f 225/239/225 226/240/226 224/237/224 216/227/216
f 227/241/227 61/64/61 224/237/224 226/240/226
f 62/65/62 223/236/223 224/237/224 61/64/61
f 228/242/228 229/243/229 227/241/227 226/240/226
f 137/143/137 230/244/230 227/241/227 229/243/229
f 54/54/54 61/64/61 227/241/227 230/244/230
f 139/145/139 231/245/231 230/244/230 137/143/137
f 80/83/80 54/54/54 230/244/230 231/245/231
f 140/146/140 232/246/232 231/245/231 139/145/139
f 233/247/233 80/83/80 231/245/231 232/246/232
f 79/82/79 80/83/80 233/247/233 234/248/234
f 235/249/235 236/250/236 233/247/233 232/246/232
f 237/251/237 234/248/234 233/247/233 236/250/236
f 238/252/238 234/248/234 237/251/237 239/253/239
f 240/254/240 241/255/241 237/251/237 236/250/236
f 242/256/242 239/253/239 237/251/237 241/255/241
f 243/257/243 239/253/239 242/256/242 244/258/244
f 245/259/245 246/260/246 242/256/242 241/255/241
f 247/261/247 244/258/244 242/256/242 246/260/246
f 248/262/248 244/258/244 247/261/247 249/263/249
f 250/264/250 251/265/251 247/261/247 246/260/246
f 252/266/252 249/263/249 247/261/247 251/265/251
f 253/267/253 249/268/249 252/269/252 254/270/254
f 129/134/129 128/135/128 252/266/252 251/265/251
f 127/132/127 254/270/254 252/269/252 128/133/128
f 255/271/255 256/272/256 253/267/253 257/273/257
f 248/274/248 249/268/249 253/267/253 256/272/256
f 258/275/258 257/273/257 253/267/253 254/270/254
f 259/276/259 257/273/257 258/275/258 260/277/260
f 127/132/127 261/278/261 258/275/258 254/270/254
f 262/279/262 260/277/260 258/275/258 261/278/261
f 263/280/263 260/277/260 262/279/262 264/281/264
f 116/119/116 102/105/102 262/279/262 261/278/261
f 105/108/105 264/281/264 262/279/262 102/105/102
f 265/282/265 266/283/266 263/280/263 267/284/267
f 259/276/259 260/277/260 263/280/263 266/283/266
f 268/285/268 267/284/267 263/280/263 264/281/264
f 269/286/269 267/284/267 268/285/268 270/287/270
f 105/108/105 106/109/106 268/285/268 264/281/264
f 271/288/271 270/287/270 268/285/268 106/109/106
f 272/289/272 270/287/270 271/288/271 273/290/273
f 107/110/107 274/291/274 271/288/271 106/109/106
f 275/292/275 273/290/273 271/288/271 274/291/274
f 276/293/276 273/290/273 275/292/275 277/294/277
f 278/295/278 279/296/279 275/292/275 274/291/274
f 280/297/280 277/294/277 275/292/275 279/296/279
f 281/298/281 277/294/277 280/297/280 282/299/282
f 159/168/159 158/167/158 280/297/280 279/296/279
f 283/300/283 282/299/282 280/297/280 158/167/158
f 186/197/186 282/299/282 283/300/283 187/198/187
f 160/170/160 284/301/284 283/300/283 158/167/158
f 285/302/285 187/198/187 283/300/283 284/301/284
f 182/193/182 187/198/187 285/302/285 189/200/189
f 168/179/168 286/303/286 285/304/285 284/305/284
f 213/224/213 189/306/189 285/304/285 286/303/286
f 169/180/169 287/307/287 286/303/286 168/179/168
f 205/216/205 213/224/213 286/303/286 287/307/287
f 170/181/170 288/308/288 287/307/287 169/180/169
f 206/217/206 205/216/205 287/307/287 288/308/288
f 289/309/289 290/310/290 288/308/288 170/181/170
f 208/219/208 206/217/206 288/308/288 290/310/290
f 291/311/291 292/312/292 290/310/290 289/309/289
f 293/313/293 208/219/208 290/310/290 292/312/292
f 294/314/294 295/315/295 293/313/293 292/312/292
f 296/316/296 194/205/194 293/313/293 295/315/295
f 195/206/195 208/219/208 293/313/293 194/205/194
f 136/142/136 135/141/135 296/316/296 295/315/295
f 134/140/134 297/317/297 296/316/296 135/141/135
f 193/204/193 194/205/194 296/316/296 297/317/297
f 298/318/298 299/319/299 297/317/297 134/140/134
f 190/201/190 193/204/193 297/317/297 299/319/299
f 300/320/300 301/321/301 299/319/299 298/318/298
f 302/322/302 190/201/190 299/319/299 301/321/301
f 303/323/303 304/324/304 302/322/302 301/321/301
f 305/325/305 211/222/211 302/322/302 304/324/304
f 191/202/191 190/201/190 302/322/302 211/222/211
f 306/326/306 307/327/307 305/325/305 304/324/304
f 200/211/200 212/223/212 305/325/305 307/327/307
f 210/221/210 211/222/211 305/325/305 212/223/212
f 308/328/308 309/329/309 307/327/307 306/326/306
f 198/209/198 200/211/200 307/327/307 309/329/309
f 310/330/310 311/331/311 309/329/309 308/328/308
f 179/190/179 198/209/198 309/329/309 311/331/311
f 312/332/312 313/333/313 311/331/311 310/330/310
f 176/187/176 179/190/179 311/331/311 313/333/313
f 314/334/314 315/335/315 313/333/313 312/332/312
f 173/184/173 176/187/176 313/333/313 315/335/315
f 316/336/316 317/337/317 315/335/315 314/334/314
f 318/338/318 173/184/173 315/335/315 317/337/317
f 319/339/319 146/152/146 318/338/318 317/337/317
f 147/155/147 320/340/320 318/338/318 146/152/146
f 174/185/174 173/184/173 318/338/318 320/340/320
f 177/188/177 174/185/174 320/340/320 321/341/321
f 316/336/316 322/342/322 319/339/319 317/337/317
f 323/343/323 324/344/324 319/345/319 322/346/322
f 145/151/145 146/347/146 319/345/319 324/344/324
f 325/348/325 326/349/326 324/344/324 323/343/323
f 142/148/142 145/151/145 324/344/324 326/349/326
f 327/350/327 180/191/180 326/349/326 325/348/325
f 183/194/183 142/148/142 326/349/326 180/191/180
f 328/351/328 329/352/329 327/350/327 325/348/325
f 330/353/330 331/354/331 327/350/327 329/352/329
f 181/192/181 180/191/180 327/350/327 331/354/331
f 332/355/332 333/356/333 331/354/331 330/353/330
f 184/195/184 181/192/181 331/354/331 333/356/333
f 334/357/334 335/358/335 333/356/333 332/355/332
f 336/359/336 184/195/184 333/356/333 335/358/335
f 337/360/337 167/178/167 336/359/336 335/358/335
f 166/177/166 338/361/338 336/359/336 167/178/167
f 185/196/185 184/195/184 336/359/336 338/361/338
f 165/176/165 339/362/339 338/361/338 166/177/166
f 186/197/186 185/196/185 338/361/338 339/362/339
f 340/363/340 281/298/281 339/362/339 165/176/165
f 282/299/282 186/197/186 339/362/339 281/298/281
f 162/173/162 341/364/341 340/363/340 165/176/165
f 342/365/342 276/293/276 340/363/340 341/364/341
f 277/294/277 281/298/281 340/363/340 276/293/276
f 343/366/343 344/367/344 342/365/342 341/364/341
f 345/368/345 272/289/272 342/365/342 344/367/344
f 273/290/273 276/293/276 342/365/342 272/289/272
f 99/102/99 346/369/346 345/368/345 344/367/344
f 347/370/347 269/286/269 345/368/345 346/369/346
f 270/287/270 272/289/272 345/368/345 269/286/269
f 348/371/348 349/372/349 347/370/347 346/369/346
f 350/373/350 265/282/265 347/370/347 349/372/349
f 267/284/267 269/286/269 347/370/347 265/282/265
f 38/38/38 351/374/351 350/373/350 349/372/349
f 352/375/352 353/376/353 350/373/350 351/374/351
f 266/283/266 265/282/265 350/373/350 353/376/353
f 354/377/354 355/378/355 353/376/353 352/375/352
f 259/276/259 266/283/266 353/376/353 355/378/355
f 356/379/356 255/271/255 355/378/355 354/377/354
f 257/273/257 259/276/259 355/378/355 255/271/255
f 357/380/357 358/381/358 356/379/356 354/377/354
f 359/382/359 360/383/360 356/379/356 358/381/358
f 256/272/256 255/271/255 356/379/356 360/383/360
f 361/384/361 362/385/362 360/383/360 359/382/359
f 248/274/248 256/272/256 360/383/360 362/385/362
f 363/386/363 243/257/243 362/387/362 361/388/361
f 244/258/244 248/262/248 362/387/362 243/257/243
f 43/43/43 44/44/44 363/386/363 361/388/361
f 364/389/364 238/252/238 363/386/363 44/44/44
f 239/253/239 243/257/243 363/386/363 238/252/238
f 41/41/41 40/40/40 364/389/364 44/44/44
f 55/55/55 79/82/79 364/389/364 40/40/40
f 234/248/234 238/252/238 364/389/364 79/82/79
f 365/390/365 43/43/43 361/388/361 359/391/359
f 366/392/366 367/393/367 365/394/365 368/395/368
f 42/42/42 43/43/43 365/390/365 367/396/367
f 358/381/358 368/395/368 365/394/365 359/382/359
f 222/235/222 221/234/221 367/396/367 366/397/366
f 39/39/39 42/42/42 367/396/367 221/234/221
f 20/20/20 222/238/222 366/392/366 19/19/19
f 16/16/16 19/19/19 366/392/366 368/395/368
f 357/380/357 16/16/16 368/395/368 358/381/358
f 17/17/17 16/16/16 357/380/357 369/398/369
f 352/375/352 369/398/369 357/380/357 354/377/354
f 9/9/9 17/17/17 369/398/369 370/399/370
f 351/374/351 370/399/370 369/398/369 352/375/352
f 10/10/10 9/9/9 370/399/370 34/34/34
f 38/38/38 34/34/34 370/399/370 351/374/351
f 36/36/36 38/38/38 349/372/349 348/371/348
f 37/37/37 36/36/36 348/371/348 101/104/101
f 99/102/99 101/104/101 348/371/348 346/369/346
f 100/103/100 99/102/99 344/367/344 343/366/343
f 371/400/371 100/103/100 343/366/343 161/172/161
f 162/173/162 161/172/161 343/366/343 341/364/341
f 334/357/334 78/81/78 337/360/337 335/358/335
f 75/78/75 372/401/372 337/360/337 78/81/78
f 164/175/164 167/178/167 337/360/337 372/401/372
f 96/99/96 371/400/371 372/401/372 75/78/75
f 161/172/161 164/175/164 372/401/372 371/400/371
f 49/49/49 373/402/373 334/357/334 332/355/332
f 77/80/77 78/81/78 334/357/334 373/402/373
f 48/48/48 374/403/374 373/402/373 49/49/49
f 76/79/76 77/80/77 373/402/373 374/403/374
f 26/26/26 22/22/22 374/403/374 48/48/48
f 21/21/21 76/79/76 374/403/374 22/22/22
f 50/50/50 49/49/49 332/355/332 330/353/330
f 53/53/53 50/50/50 330/353/330 329/352/329
f 375/404/375 53/53/53 329/352/329 328/351/328
f 63/405/63 376/406/376 375/404/375 377/407/377
f 52/52/52 53/53/53 375/404/375 376/406/376
f 378/408/378 377/407/377 375/404/375 328/351/328
f 379/409/379 377/407/377 378/408/378 380/410/380
f 325/348/325 323/343/323 378/408/378 328/351/328
f 322/346/322 380/410/380 378/408/378 323/343/323
f 67/70/67 64/67/64 379/411/379 381/412/381
f 63/405/63 377/407/377 379/409/379 64/413/64
f 382/414/382 381/412/381 379/411/379 380/415/380
f 383/416/383 381/412/381 382/414/382 384/417/384
f 322/342/322 316/336/316 382/414/382 380/415/380
f 314/334/314 384/417/384 382/414/382 316/336/316
f 385/418/385 386/419/386 383/416/383 387/420/387
f 67/70/67 381/412/381 383/416/383 386/419/386
f 388/421/388 387/420/387 383/416/383 384/417/384
f 389/422/389 387/420/387 388/421/388 390/423/390
f 314/334/314 312/332/312 388/421/388 384/417/384
f 310/330/310 390/423/390 388/421/388 312/332/312
f 391/424/391 392/425/392 389/422/389 393/426/393
f 385/418/385 387/420/387 389/422/389 392/425/392
f 394/427/394 393/426/393 389/422/389 390/423/390
f 395/428/395 393/426/393 394/427/394 396/429/396
f 310/330/310 308/328/308 394/427/394 390/423/390
f 306/326/306 396/429/396 394/427/394 308/328/308
f 397/430/397 398/431/398 395/428/395 399/432/399
f 391/424/391 393/426/393 395/428/395 398/431/398
f 303/323/303 399/432/399 395/428/395 396/429/396
f 109/112/109 400/433/400 398/431/398 397/430/397
f 401/434/401 391/424/391 398/431/398 400/433/400
f 87/90/87 85/88/85 401/434/401 400/433/400
f 84/87/84 94/97/94 401/434/401 85/88/85
f 392/425/392 391/424/391 401/434/401 94/97/94
f 112/115/112 87/90/87 400/433/400 109/112/109
f 110/113/110 109/112/109 397/430/397 402/435/402
f 300/320/300 402/435/402 397/430/397 399/432/399
f 113/116/113 110/113/110 402/435/402 141/147/141
f 298/318/298 141/147/141 402/435/402 300/320/300
f 301/321/301 300/320/300 399/432/399 303/323/303
f 304/324/304 303/323/303 396/429/396 306/326/306
f 91/94/91 385/418/385 392/425/392 94/97/94
f 91/94/91 90/93/90 386/419/386 385/418/385
f 68/71/68 67/70/67 386/419/386 90/93/90
f 66/436/66 403/437/403 376/406/376 63/405/63
f 51/51/51 52/52/52 376/406/376 403/437/403
f 69/72/69 81/84/81 403/438/403 66/69/66
f 58/58/58 51/61/51 403/438/403 81/84/81
f 131/137/131 141/147/141 298/318/298 134/140/134
f 404/439/404 136/142/136 295/315/295 294/314/294
f 232/246/232 140/146/140 404/439/404 235/249/235
f 133/139/133 136/142/136 404/439/404 140/146/140
f 405/440/405 235/249/235 404/439/404 294/314/294
f 236/250/236 235/249/235 405/440/405 240/254/240
f 292/312/292 291/311/291 405/440/405 294/314/294
f 406/441/406 240/254/240 405/440/405 291/311/291
f 241/255/241 240/254/240 406/441/406 245/259/245
f 152/160/152 168/179/168 284/305/284 160/171/160
f 407/442/407 159/168/159 279/296/279 278/295/278
f 108/111/108 122/125/122 407/442/407 278/295/278
f 121/124/121 123/126/123 407/442/407 122/125/122
f 157/169/157 159/168/159 407/442/407 123/126/123
f 107/110/107 108/111/108 278/295/278 274/291/274
f 117/120/117 116/119/116 261/278/261 127/132/127
f 153/161/153 129/134/129 251/265/251 250/264/250
f 245/259/245 171/182/171 250/264/250 246/260/246
f 154/162/154 153/161/153 250/264/250 171/182/171
f 89/92/89 408/443/408 229/243/229 228/242/228
f 138/144/138 137/143/137 229/243/229 408/443/408
f 88/91/88 115/118/115 408/443/408 89/92/89
f 114/117/114 138/144/138 408/443/408 115/118/115
f 225/239/225 409/444/409 228/242/228 226/240/226
f 86/89/86 89/92/89 228/242/228 409/444/409
f 410/445/410 60/446/60 409/444/409 225/239/225
f 59/59/59 86/89/86 409/444/409 60/446/60
f 47/47/47 30/30/30 410/447/410 215/448/215
f 29/29/29 60/62/60 410/447/410 30/30/30
f 216/227/216 215/226/215 410/445/410 225/239/225
f 411/449/411 412/450/412 219/230/219 12/12/12
f 413/451/413 218/231/218 219/230/219 412/450/412
f 11/11/11 12/12/12 219/230/219 220/233/220
f 414/452/414 7/7/7 413/451/413 412/450/412
f 6/6/6 47/47/47 413/451/413 7/7/7
f 215/448/215 218/231/218 413/451/413 47/47/47
f 4/4/4 7/7/7 414/452/414 415/453/415
f 411/449/411 416/454/416 414/452/414 412/450/412
f 417/455/417 415/453/415 414/452/414 416/454/416
f 24/24/24 415/453/415 417/455/417 21/21/21
f 70/73/70 73/76/73 417/455/417 416/454/416
f 76/79/76 21/21/21 417/455/417 73/76/73
f 33/33/33 70/73/70 416/454/416 411/449/411
f 1/1/1 4/4/4 415/453/415 24/24/24
f 13/13/13 33/33/33 411/449/411 12/12/12
f 8/8/8 11/11/11 220/233/220 20/20/20
f 188/456/188 189/306/189 213/224/213 214/225/214
f 143/457/143 188/456/188 214/225/214 202/213/202
f 144/154/144 143/457/143 202/213/202 199/210/199
f 321/341/321 144/154/144 199/210/199 177/188/177
f 142/148/142 183/194/183 188/199/188 143/149/143
f 126/131/126 129/134/129 153/161/153 148/156/148
f 103/106/103 119/122/119 122/125/122 108/111/108
f 103/106/103 102/105/102 116/119/116 119/122/119
f 87/90/87 112/115/112 115/118/115 88/91/88
f 15/15/15 37/37/37 97/100/97 31/31/31
f 69/72/69 68/71/68 90/93/90 93/96/93
f 81/84/81 69/72/69 93/96/93 82/85/82
f 32/32/32 31/31/31 74/77/74 71/74/71
f 33/33/33 32/32/32 71/74/71 70/73/70
f 56/56/56 39/39/39 62/65/62 57/57/57
f 221/234/221 223/236/223 62/65/62 39/39/39
f 320/340/320 147/155/147 144/154/144 321/341/321
f 96/99/96 98/101/98 100/103/100 371/400/371
f 245/259/245 406/441/406 172/183/172 171/182/171
f 289/309/289 170/181/170 155/163/155 172/183/172
f 291/311/291 289/309/289 172/183/172 406/441/406
