# split from a merged terrain OBJ by scripts/split-terrain-obj-parts.py
o part-039
v 0.674965 0.238903 -0.022003
v 0.676089 0.248932 -0.018189
v 0.672190 0.251617 -0.014419
v 0.668659 0.237934 -0.013919
v 0.662098 0.236105 -0.001555
v 0.667288 0.251902 -0.005756
v 0.675418 0.242086 -0.031992
v 0.679757 0.261229 -0.024961
v 0.676765 0.259286 -0.011227
v 0.666826 0.208578 0.006626
v 0.657967 0.207812 0.022912
v 0.660115 0.202701 0.020281
v 0.662834 0.202028 0.006555
v 0.651913 0.201701 0.004549
v 0.649881 0.201743 0.019343
v 0.650175 0.207329 0.025185
v 0.659297 0.233940 0.014259
v 0.660357 0.248533 0.012096
v 0.665644 0.258810 0.011450
v 0.671560 0.259386 -0.001242
v 0.672203 0.209594 -0.023540
v 0.667180 0.202174 -0.023586
v 0.666900 0.202393 -0.036201
v 0.669635 0.210416 -0.037484
v 0.654896 0.208499 -0.037869
v 0.655204 0.201800 -0.033909
v 0.655661 0.201817 -0.022145
v 0.674231 0.223312 -0.022841
v 0.672518 0.225631 -0.035366
v 0.664147 0.220620 0.002934
v 0.659435 0.219421 0.017975
v 0.650575 0.217982 0.022866
v 0.655500 0.217392 -0.034791
v 0.664929 0.217266 -0.037305
v 0.667997 0.228288 -0.040012
v 0.678220 0.264409 -0.009815
v 0.681044 0.265070 -0.020809
v 0.668223 0.244538 -0.040105
v 0.669401 0.263013 -0.035678
v 0.674673 0.271417 -0.014368
v 0.669499 0.274235 -0.018600
v 0.661831 0.275952 -0.026903
v 0.656286 0.230251 -0.035292
v 0.640293 0.201337 0.004209
v 0.640390 0.201410 0.019950
v 0.628235 0.202035 0.023878
v 0.627963 0.200943 0.006916
v 0.639830 0.207383 0.025833
v 0.628510 0.207503 0.022618
v 0.621334 0.206358 0.008389
v 0.619130 0.217483 -0.009047
v 0.621658 0.220273 -0.026723
v 0.620965 0.213554 -0.029043
v 0.617678 0.207029 -0.009067
v 0.631379 0.219888 -0.032093
v 0.631800 0.212990 -0.034291
v 0.664572 0.265703 0.025493
v 0.655645 0.262988 0.027223
v 0.658550 0.257487 0.021364
v 0.666676 0.264969 0.018948
v 0.669912 0.265101 0.010611
v 0.654409 0.246375 0.020757
v 0.644287 0.261908 0.027888
v 0.643364 0.256413 0.024388
v 0.641638 0.245789 0.022354
v 0.669624 0.271244 0.009889
v 0.663713 0.276628 0.007392
v 0.659301 0.277107 0.015853
v 0.667605 0.271205 0.017540
v 0.666801 0.270796 0.023495
v 0.659948 0.273214 0.023926
v 0.655209 0.283779 -0.000728
v 0.652139 0.283964 0.005942
v 0.650361 0.274590 0.024847
v 0.649024 0.278630 0.018879
v 0.645714 0.283372 0.009386
v 0.648369 0.295009 -0.000948
v 0.650283 0.294762 -0.006746
v 0.644713 0.302618 -0.009784
v 0.645133 0.301096 -0.006597
v 0.649097 0.294009 -0.012749
v 0.642897 0.298971 -0.011772
v 0.640976 0.298417 -0.005786
v 0.642549 0.303910 -0.008143
v 0.667227 0.276169 -0.002252
v 0.656733 0.283251 -0.010308
v 0.646919 0.284242 -0.017850
v 0.644820 0.292158 -0.018670
v 0.643408 0.294265 0.002025
v 0.638605 0.292357 -0.013278
v 0.636316 0.287814 -0.003300
v 0.639321 0.288568 0.001472
v 0.630515 0.280301 -0.016753
v 0.636576 0.285481 -0.013153
v 0.640381 0.280598 -0.024229
v 0.639026 0.282567 0.009688
v 0.632771 0.281151 0.008268
v 0.629887 0.266780 0.033437
v 0.628632 0.265239 0.030117
v 0.632991 0.262283 0.027648
v 0.635938 0.265862 0.032111
v 0.644216 0.265436 0.031068
v 0.631274 0.255403 0.022424
v 0.623935 0.266679 0.028966
v 0.623582 0.263647 0.023377
v 0.621390 0.257689 0.012429
v 0.625173 0.267137 0.034002
v 0.642071 0.248462 -0.033556
v 0.629636 0.249433 -0.032138
v 0.629196 0.263461 -0.034496
v 0.641965 0.262725 -0.036632
v 0.620552 0.249186 -0.023478
v 0.618062 0.261805 -0.023550
v 0.622330 0.274048 -0.021627
v 0.632325 0.272895 -0.030715
v 0.631087 0.282569 -0.004584
v 0.626873 0.279143 0.006978
v 0.629944 0.245583 0.019502
v 0.623168 0.245911 0.009727
v 0.617196 0.267867 0.020636
v 0.615780 0.268713 0.008577
v 0.619285 0.247452 -0.008032
v 0.616161 0.260073 -0.007273
v 0.616312 0.272463 -0.007143
v 0.620731 0.274806 0.006888
v 0.623665 0.279383 -0.006076
v 0.625982 0.275756 0.017673
v 0.621034 0.272417 0.018455
v 0.632962 0.274494 0.026048
v 0.631322 0.277845 0.018396
v 0.627511 0.273471 0.026666
v 0.622992 0.271753 0.027252
v 0.629710 0.271429 0.032500
v 0.625350 0.271135 0.033295
v 0.620564 0.269074 0.028244
v 0.622175 0.269018 0.032576
v 0.636986 0.268998 0.034667
v 0.635252 0.271834 0.031187
v 0.631082 0.268745 0.036026
v 0.627546 0.268210 0.036449
v 0.643529 0.269284 0.033367
v 0.642333 0.272270 0.029684
v 0.640856 0.274699 0.025456
v 0.651022 0.271923 0.029501
v 0.639494 0.278882 0.019503
v 0.658263 0.270523 0.032099
v 0.659889 0.271373 0.029141
v 0.651787 0.269202 0.033139
v 0.661657 0.267198 0.030854
v 0.653441 0.266320 0.031094
v 0.620945 0.233182 -0.024536
v 0.619540 0.232003 -0.009090
v 0.622794 0.231289 0.007699
v 0.629143 0.231380 0.018770
v 0.622417 0.216452 0.007483
v 0.628411 0.217574 0.020445
v 0.640543 0.231593 0.022230
v 0.639600 0.217387 0.023422
v 0.651636 0.232287 0.021364
v 0.630273 0.233349 -0.031864
v 0.642704 0.232216 -0.033153
v 0.643012 0.218847 -0.033035
v 0.642708 0.209607 -0.036701
v 0.633999 0.201106 -0.031411
v 0.643134 0.201417 -0.032507
v 0.630863 0.200970 -0.023484
v 0.642836 0.201388 -0.021858
v 0.627945 0.200866 -0.008800
v 0.641456 0.201338 -0.009424
v 0.655023 0.201792 -0.009272
v 0.666869 0.202272 -0.008939
v 0.672709 0.209194 -0.008815
v 0.669210 0.222363 -0.010731
v 0.656541 0.246260 -0.035817
v 0.656110 0.262157 -0.037827
v 0.641230 0.270968 -0.034980
v 0.651782 0.273876 -0.033203
v 0.673002 0.270779 0.000799
v 0.676820 0.269842 -0.007956
v 0.673650 0.264813 0.000800
v 0.664169 0.271051 0.028441
vt 0.036442 0.757006
vt 0.041048 0.760718
vt 0.041072 0.764010
vt 0.034011 0.761667
vt 0.030868 0.767922
vt 0.039720 0.768975
vt 0.039868 0.752682
vt 0.048739 0.759270
vt 0.045557 0.766326
vt 0.707157 0.964309
vt 0.699473 0.957741
vt 0.704344 0.958579
vt 0.710840 0.959793
vt 0.712086 0.953665
vt 0.702892 0.954621
vt 0.697212 0.954454
vt 0.029123 0.776524
vt 0.036830 0.778687
vt 0.042566 0.778818
vt 0.044073 0.771863
vt 0.727433 0.961504
vt 0.726859 0.954378
vt 0.732193 0.946442
vt 0.733561 0.949701
vt 0.025921 0.734878
vt 0.026340 0.743183
vt 0.022660 0.740894
vt 0.022516 0.734107
vt 0.725940 0.945842
vt 0.731292 0.939236
vt 0.028697 0.753360
vt 0.022012 0.749633
vt 0.032622 0.747436
vt 0.698793 0.964802
vt 0.692601 0.959346
vt 0.691541 0.954588
vt 0.030962 0.735579
vt 0.030049 0.741062
vt 0.034876 0.744349
vt 0.048071 0.767346
vt 0.049917 0.761952
vt 0.042876 0.747619
vt 0.052395 0.752090
vt 0.969671 0.278538
vt 0.973644 0.282344
vt 0.972238 0.285883
vt 0.965540 0.280987
vt 0.959255 0.285439
vt 0.963181 0.291888
vt 0.037759 0.738419
vt 0.710431 0.946797
vt 0.702486 0.950499
vt 0.698297 0.945456
vt 0.705371 0.940917
vt 0.695745 0.950201
vt 0.695718 0.944215
vt 0.700897 0.937835
vt 0.702989 0.926968
vt 0.709930 0.920620
vt 0.713779 0.922571
vt 0.707173 0.931066
vt 0.716509 0.918209
vt 0.720532 0.922507
vt 0.971654 0.250635
vt 0.969901 0.246588
vt 0.974233 0.245750
vt 0.974025 0.254629
vt 0.046305 0.778913
vt 0.045679 0.783720
vt 0.040524 0.784443
vt 0.036532 0.784202
vt 0.962491 0.242560
vt 0.963688 0.240345
vt 0.677358 0.943168
vt 0.676353 0.951257
vt 0.670855 0.950525
vt 0.672797 0.941106
vt 0.970353 0.263138
vt 0.966277 0.265047
vt 0.963918 0.259082
vt 0.970120 0.257598
vt 0.969735 0.253742
vt 0.965569 0.254137
vt 0.959967 0.268683
vt 0.958387 0.263753
vt 0.960535 0.251872
vt 0.958505 0.255341
vt 0.954695 0.260229
vt 0.952993 0.267210
vt 0.953894 0.270851
vt 0.949589 0.271307
vt 0.950451 0.269347
vt 0.951753 0.273862
vt 0.948496 0.272228
vt 0.947779 0.268230
vt 0.949516 0.269977
vt 0.966809 0.270765
vt 0.959501 0.276369
vt 0.949432 0.279544
vt 0.949514 0.276151
vt 0.950912 0.265070
vt 0.945827 0.272901
vt 0.944380 0.265920
vt 0.947862 0.262974
vt 0.939395 0.273270
vt 0.942763 0.272825
vt 0.944780 0.280085
vt 0.950541 0.258492
vt 0.945910 0.258029
vt 0.951231 0.240349
vt 0.950324 0.238685
vt 0.952798 0.235783
vt 0.954499 0.241040
vt 0.960184 0.243773
vt 0.957092 0.233020
vt 0.947011 0.240162
vt 0.944168 0.239405
vt 0.677957 0.926414
vt 0.673869 0.933799
vt 0.670160 0.932543
vt 0.671911 0.926838
vt 0.948385 0.241094
vt 0.050313 0.735334
vt 0.053600 0.729677
vt 0.060931 0.732773
vt 0.057856 0.738743
vt 0.056441 0.723942
vt 0.063945 0.725614
vt 0.935324 0.274494
vt 0.939966 0.282901
vt 0.936119 0.285223
vt 0.930259 0.275101
vt 0.941522 0.265571
vt 0.942421 0.257988
vt 0.678928 0.935142
vt 0.683477 0.928371
vt 0.940024 0.246290
vt 0.935613 0.253377
vt 0.935722 0.242595
vt 0.690339 0.918687
vt 0.685134 0.914813
vt 0.679699 0.912544
vt 0.674734 0.920747
vt 0.938661 0.256268
vt 0.938339 0.264836
vt 0.933838 0.263844
vt 0.928134 0.265980
vt 0.944423 0.251562
vt 0.941812 0.249530
vt 0.950551 0.248376
vt 0.947921 0.252307
vt 0.947312 0.247234
vt 0.944962 0.245606
vt 0.949647 0.244774
vt 0.947802 0.243732
vt 0.944633 0.242891
vt 0.946615 0.242605
vt 0.953261 0.243457
vt 0.952771 0.245601
vt 0.950859 0.242259
vt 0.949241 0.242240
vt 0.958970 0.245583
vt 0.956938 0.247637
vt 0.955144 0.249844
vt 0.962127 0.249202
vt 0.952872 0.253592
vt 0.966174 0.249754
vt 0.966373 0.251395
vt 0.964038 0.247192
vt 0.968933 0.249885
vt 0.966670 0.246804
vt 0.691620 0.908696
vt 0.696975 0.912412
vt 0.704325 0.916512
vt 0.696976 0.922925
vt 0.689423 0.930845
vt 0.684998 0.938239
vt 0.696252 0.934838
vt 0.690145 0.941893
vt 0.683218 0.946463
vt 0.690524 0.948487
vt 0.684248 0.953398
vt 0.677331 0.956343
vt 0.684339 0.959915
vt 0.045074 0.726130
vt 0.047801 0.720468
vt 0.711823 0.913963
vt 0.041726 0.731971
vt 0.724596 0.918346
vt 0.719273 0.911870
vt 0.034189 0.729571
vt 0.730542 0.932201
vt 0.725852 0.926645
vt 0.733384 0.924265
vt 0.722067 0.929005
vt 0.725897 0.933968
vt 0.718725 0.931808
vt 0.722387 0.939550
vt 0.712835 0.936009
vt 0.716787 0.943614
vt 0.719742 0.952826
vt 0.719741 0.960593
vt 0.719293 0.965566
vt 0.025629 0.759555
vt 0.019199 0.756470
vt 0.021135 0.765853
vt 0.014152 0.763945
vt 0.046255 0.741851
vt 0.054770 0.745435
vt 0.944326 0.287252
vt 0.950635 0.287559
vt 0.953655 0.293553
vt 0.943358 0.290959
vt 0.971048 0.269101
vt 0.971946 0.274700
vt 0.973379 0.262004
vt 0.974100 0.268467
vt 0.974920 0.275474
vt 0.046846 0.773593
vt 0.968302 0.251771
vt 0.691980 0.966905
vn 0.9539 -0.1337 0.2687
vn 0.8969 -0.2499 0.3649
vn 0.8171 -0.3401 0.4655
vn 0.8578 -0.0580 0.5106
vn 0.9381 0.0025 0.3464
vn 0.8456 -0.3822 0.3728
vn 0.9218 -0.0512 -0.3844
vn 0.9467 0.1749 -0.2705
vn 0.8369 -0.4347 0.3327
vn 0.9284 -0.1007 0.3576
vn 0.5660 -0.1482 0.8110
vn 0.5281 -0.7191 0.4518
vn 0.5215 -0.8338 0.1813
vn 0.0391 -0.9992 0.0095
vn 0.0660 -0.9157 0.3965
vn 0.1551 -0.2387 0.9586
vn 0.8640 0.0286 0.5027
vn 0.8665 -0.2655 0.4226
vn 0.7894 -0.4953 0.3626
vn 0.7950 -0.4941 0.3520
vn 0.9535 -0.2994 -0.0348
vn 0.5016 -0.8643 -0.0373
vn 0.3963 -0.7417 -0.5411
vn 0.6285 -0.2503 -0.7365
vn -0.0838 -0.0954 -0.9919
vn -0.0207 -0.8470 -0.5312
vn 0.0353 -0.9994 -0.0014
vn 0.9935 -0.0424 0.1057
vn 0.8394 -0.1006 -0.5341
vn 0.9147 0.2055 0.3479
vn 0.7629 0.1875 0.6187
vn 0.2554 0.1841 0.9492
vn -0.1642 0.1165 -0.9795
vn -0.0089 0.0037 -1.0000
vn 0.1715 -0.0476 -0.9840
vn 0.9596 -0.0362 0.2792
vn 0.9402 0.3056 -0.1503
vn 0.2774 0.0439 -0.9598
vn 0.4475 0.3844 -0.8074
vn 0.6622 0.7417 -0.1071
vn 0.5297 0.8003 -0.2809
vn 0.3588 0.7715 -0.5254
vn -0.2531 -0.0333 -0.9669
vn 0.0261 -0.9996 0.0107
vn 0.0289 -0.9023 0.4301
vn -0.3505 -0.7672 0.5371
vn -0.3682 -0.9260 0.0838
vn -0.0367 -0.1698 0.9848
vn -0.6036 -0.1753 0.7778
vn -0.9156 -0.3104 0.2556
vn -0.9962 0.0768 0.0417
vn -0.8362 0.1267 -0.5335
vn -0.8031 -0.1550 -0.5752
vn -0.9179 -0.3954 -0.0341
vn -0.2980 0.1712 -0.9391
vn -0.3601 -0.0359 -0.9322
vn 0.7120 -0.4907 0.5023
vn 0.2479 -0.7132 0.6556
vn 0.5421 -0.5039 0.6725
vn 0.8433 -0.3879 0.3719
vn 0.9025 -0.2412 0.3568
vn 0.4919 -0.1392 0.8595
vn 0.0513 -0.6603 0.7493
vn 0.0285 -0.4106 0.9114
vn -0.0495 -0.0977 0.9940
vn 0.8361 0.4668 0.2880
vn 0.5584 0.8092 0.1827
vn 0.3919 0.8618 0.3220
vn 0.8416 0.4500 0.2986
vn 0.8441 0.3929 0.3649
vn 0.2697 0.9017 0.3380
vn 0.6965 0.6987 0.1633
vn 0.4759 0.7626 0.4381
vn 0.1124 0.8706 0.4789
vn 0.1233 0.8764 0.4654
vn 0.0432 0.8096 0.5853
vn 0.5104 0.6807 0.5255
vn 0.8278 0.5611 0.0048
vn 0.2635 0.9001 -0.3470
vn 0.4310 0.7196 0.5444
vn 0.6182 0.5286 -0.5817
vn -0.3146 0.7010 -0.6400
vn -0.6934 0.6543 0.3017
vn -0.4279 0.8803 0.2048
vn 0.5725 0.8151 0.0888
vn 0.6450 0.7427 -0.1798
vn 0.1653 0.6669 -0.7266
vn 0.0116 0.3336 -0.9426
vn -0.2167 0.6747 0.7055
vn -0.7112 0.4408 -0.5476
vn -0.7602 0.6313 0.1535
vn -0.5508 0.6398 0.5359
vn -0.4288 0.8415 -0.3287
vn -0.6097 0.6576 -0.4425
vn -0.1470 0.8277 -0.5415
vn -0.2682 0.8442 0.4642
vn -0.4128 0.8665 0.2808
vn -0.0194 -0.8552 0.5180
vn -0.2212 -0.8690 0.4427
vn -0.2015 -0.7136 0.6710
vn 0.0364 -0.7183 0.6948
vn 0.0574 -0.6428 0.7639
vn -0.4333 -0.4122 0.8014
vn -0.4680 -0.8147 0.3423
vn -0.5974 -0.6648 0.4485
vn -0.8652 -0.3474 0.3616
vn -0.4575 -0.6157 0.6416
vn -0.1375 -0.1044 -0.9850
vn -0.4267 -0.0975 -0.8991
vn -0.4620 0.1090 -0.8802
vn -0.1294 0.0646 -0.9895
vn -0.8862 -0.1035 -0.4517
vn -0.8853 0.0533 -0.4620
vn -0.6913 0.5788 -0.4325
vn -0.3729 0.5901 -0.7160
vn -0.5906 0.8070 0.0061
vn -0.4926 0.8508 0.1832
vn -0.5685 -0.1094 0.8154
vn -0.9101 -0.1112 0.3993
vn -0.9506 0.0239 0.3096
vn -0.9711 0.1735 0.1641
vn -0.9915 -0.1187 0.0528
vn -0.9925 -0.1220 -0.0109
vn -0.9091 0.4113 -0.0666
vn -0.6397 0.7545 0.1466
vn -0.5774 0.8157 -0.0347
vn -0.4195 0.8718 0.2527
vn -0.6196 0.7613 0.1910
vn -0.0953 0.8958 0.4342
vn -0.2440 0.9051 0.3481
vn -0.2369 0.9181 0.3177
vn -0.5044 0.8259 0.2518
vn -0.0249 0.8699 0.4926
vn -0.3739 0.7231 0.5808
vn -0.9114 0.0281 0.4105
vn -0.8535 -0.0163 0.5208
vn 0.1489 0.1113 0.9826
vn 0.0409 0.8515 0.5227
vn 0.1257 0.0245 0.9918
vn -0.1107 -0.1198 0.9866
vn 0.0960 0.1802 0.9789
vn 0.0482 0.8393 0.5416
vn 0.0119 0.8629 0.5052
vn 0.0527 0.8647 0.4996
vn -0.0639 0.8913 0.4488
vn 0.1815 0.3959 0.9002
vn 0.2516 0.8117 0.5270
vn 0.0629 0.1989 0.9780
vn 0.4858 -0.3259 0.8111
vn 0.1235 -0.6027 0.7884
vn -0.8794 0.0042 -0.4760
vn -0.9990 -0.0021 0.0444
vn -0.9390 0.0130 0.3436
vn -0.6257 0.0396 0.7791
vn -0.9440 0.0827 0.3195
vn -0.6452 0.1333 0.7523
vn -0.0972 0.0501 0.9940
vn -0.1121 0.1642 0.9800
vn 0.3776 0.0540 0.9244
vn -0.3712 0.0023 -0.9285
vn -0.1282 -0.0190 -0.9916
vn -0.1005 0.1677 -0.9807
vn -0.1319 -0.0582 -0.9895
vn -0.2888 -0.7697 -0.5693
vn -0.0762 -0.8425 -0.5333
vn -0.3392 -0.9080 -0.2459
vn 0.0339 -0.9994 -0.0009
vn -0.3171 -0.9465 -0.0602
vn 0.0337 -0.9994 0.0012
vn 0.0345 -0.9994 0.0005
vn 0.4874 -0.8704 0.0703
vn 0.9550 -0.2106 0.2087
vn 0.9219 0.1450 0.3592
vn -0.1816 -0.0298 -0.9829
vn 0.0072 0.1995 -0.9799
vn -0.1279 0.4914 -0.8615
vn 0.0743 0.6293 -0.7736
vn 0.8284 0.4873 0.2762
vn 0.8295 0.5162 0.2134
vn 0.9056 -0.1814 0.3834
vn 0.6704 0.5001 0.5482
f 1/1/1 2/2/2 3/3/3 4/4/4
f 5/5/5 4/4/4 3/3/3 6/6/6
f 7/7/7 8/8/8 2/2/2 1/1/1
f 8/8/8 9/9/9 3/3/3 2/2/2
f 10/10/10 11/11/11 12/12/12 13/13/13
f 14/14/14 13/13/13 12/12/12 15/15/15
f 16/16/16 15/15/15 12/12/12 11/11/11
f 17/17/17 5/5/5 6/6/6 18/18/18
f 19/19/19 18/18/18 6/6/6 20/20/20
f 9/9/9 20/20/20 6/6/6 3/3/3
f 21/21/21 22/22/22 23/23/23 24/24/24
f 25/25/25 24/26/24 23/27/23 26/28/26
f 27/29/27 26/30/26 23/23/23 22/22/22
f 28/31/28 21/32/21 24/26/24 29/33/29
f 30/34/30 31/35/31 11/11/11 10/10/10
f 32/36/32 16/16/16 11/11/11 31/35/31
f 33/37/33 34/38/34 24/26/24 25/25/25
f 35/39/35 29/33/29 24/26/24 34/38/34
f 36/40/36 9/9/9 8/8/8 37/41/37
f 38/42/38 39/43/39 8/8/8 7/7/7
f 40/44/40 37/45/37 8/46/8 41/47/41
f 42/48/42 41/47/41 8/46/8 39/49/39
f 43/50/43 35/39/35 34/38/34 33/37/33
f 44/51/44 45/52/45 46/53/46 47/54/47
f 48/55/48 49/56/49 46/53/46 45/52/45
f 50/57/50 47/54/47 46/53/46 49/56/49
f 51/58/51 52/59/52 53/60/53 54/61/54
f 55/62/55 56/63/56 53/60/53 52/59/52
f 57/64/57 58/65/58 59/66/59 60/67/60
f 61/68/61 60/69/60 59/70/59 19/19/19
f 18/18/18 19/19/19 59/70/59 62/71/62
f 63/72/63 64/73/64 59/66/59 58/65/58
f 65/74/65 62/75/62 59/76/59 64/77/64
f 66/78/66 67/79/67 68/80/68 69/81/69
f 70/82/70 69/81/69 68/80/68 71/83/71
f 72/84/72 73/85/73 68/80/68 67/79/67
f 74/86/74 71/83/71 68/80/68 75/87/75
f 76/88/76 75/87/75 68/80/68 73/85/73
f 77/89/77 78/90/78 79/91/79 80/92/80
f 81/93/81 82/94/82 79/91/79 78/90/78
f 83/95/83 84/96/84 79/91/79 82/94/82
f 67/79/67 85/97/85 86/98/86 72/84/72
f 78/90/78 72/84/72 86/98/86 81/93/81
f 42/48/42 87/99/87 86/98/86 41/47/41
f 88/100/88 81/93/81 86/98/86 87/99/87
f 77/89/77 80/92/80 83/95/83 89/101/89
f 90/102/90 91/103/91 83/95/83 82/94/82
f 92/104/92 89/101/89 83/95/83 91/103/91
f 93/105/93 94/106/94 87/99/87 95/107/95
f 90/102/90 88/100/88 87/99/87 94/106/94
f 76/88/76 89/101/89 92/104/92 96/108/96
f 97/109/97 96/108/96 92/104/92 91/103/91
f 98/110/98 99/111/99 100/112/100 101/113/101
f 102/114/102 101/113/101 100/112/100 63/72/63
f 64/73/64 63/72/63 100/112/100 103/115/103
f 104/116/104 105/117/105 100/112/100 99/111/99
f 106/118/106 103/119/103 100/120/100 105/121/105
f 107/122/107 104/116/104 99/111/99 98/110/98
f 108/123/108 109/124/109 110/125/110 111/126/111
f 112/127/112 113/128/113 110/125/110 109/124/109
f 114/129/114 115/130/115 110/131/110 113/132/113
f 94/106/94 116/133/116 91/103/91 90/102/90
f 117/134/117 97/109/97 91/103/91 116/133/116
f 118/135/118 103/119/103 106/118/106 119/136/119
f 120/137/120 121/138/121 106/139/106 105/117/105
f 122/140/122 119/136/119 106/118/106 123/141/123
f 124/142/124 123/141/123 106/118/106 121/143/121
f 82/94/82 81/93/81 88/100/88 90/102/90
f 125/144/125 126/145/126 124/146/124 121/138/121
f 93/105/93 114/129/114 124/146/124 126/145/126
f 113/132/113 123/147/123 124/146/124 114/129/114
f 117/134/117 116/133/116 126/145/126 125/144/125
f 94/106/94 93/105/93 126/145/126 116/133/116
f 127/148/127 117/134/117 125/144/125 128/149/128
f 120/137/120 128/149/128 125/144/125 121/138/121
f 129/150/129 130/151/130 127/148/127 131/152/131
f 97/109/97 117/134/117 127/148/127 130/151/130
f 132/153/132 131/152/131 127/148/127 128/149/128
f 133/154/133 131/152/131 132/153/132 134/155/134
f 120/137/120 135/156/135 132/153/132 128/149/128
f 136/157/136 134/155/134 132/153/132 135/156/135
f 105/117/105 104/116/104 135/156/135 120/137/120
f 107/122/107 136/157/136 135/156/135 104/116/104
f 137/158/137 138/159/138 133/154/133 139/160/139
f 129/150/129 131/152/131 133/154/133 138/159/138
f 140/161/140 139/160/139 133/154/133 134/155/134
f 141/162/141 142/163/142 138/159/138 137/158/137
f 143/164/143 129/150/129 138/159/138 142/163/142
f 144/165/144 74/86/74 143/164/143 142/163/142
f 75/87/75 145/166/145 143/164/143 74/86/74
f 130/151/130 129/150/129 143/164/143 145/166/145
f 76/88/76 96/108/96 145/166/145 75/87/75
f 97/109/97 130/151/130 145/166/145 96/108/96
f 146/167/146 147/168/147 144/165/144 148/169/148
f 71/83/71 74/86/74 144/165/144 147/168/147
f 141/162/141 148/169/148 144/165/144 142/163/142
f 149/170/149 146/167/146 148/169/148 150/171/150
f 102/114/102 150/171/150 148/169/148 141/162/141
f 57/64/57 149/170/149 150/171/150 58/65/58
f 63/72/63 58/65/58 150/171/150 102/114/102
f 101/113/101 102/114/102 141/162/141 137/158/137
f 98/110/98 101/113/101 137/158/137 139/160/139
f 107/122/107 98/110/98 139/160/139 140/161/140
f 113/172/113 112/173/112 122/140/122 123/141/123
f 151/174/151 152/175/152 122/140/122 112/173/112
f 153/176/153 119/136/119 122/140/122 152/175/152
f 118/135/118 119/136/119 153/176/153 154/177/154
f 51/58/51 155/178/155 153/176/153 152/175/152
f 156/179/156 154/177/154 153/176/153 155/178/155
f 157/180/157 154/177/154 156/179/156 158/181/158
f 50/57/50 49/56/49 156/179/156 155/178/155
f 48/55/48 158/181/158 156/179/156 49/56/49
f 62/75/62 65/74/65 157/180/157 159/182/159
f 118/135/118 154/177/154 157/180/157 65/74/65
f 32/36/32 159/182/159 157/180/157 158/181/158
f 18/183/18 62/75/62 159/182/159 17/184/17
f 31/35/31 17/184/17 159/182/159 32/36/32
f 16/16/16 32/36/32 158/181/158 48/55/48
f 54/61/54 50/57/50 155/178/155 51/58/51
f 52/59/52 51/58/51 152/175/152 151/174/151
f 109/124/109 160/185/160 151/186/151 112/127/112
f 55/62/55 52/59/52 151/174/151 160/187/160
f 108/123/108 161/188/161 160/185/160 109/124/109
f 162/189/162 55/62/55 160/187/160 161/190/161
f 43/50/43 33/37/33 162/191/162 161/188/161
f 25/192/25 163/193/163 162/189/162 33/194/33
f 56/63/56 55/62/55 162/189/162 163/193/163
f 164/195/164 56/63/56 163/193/163 165/196/165
f 26/30/26 165/196/165 163/193/163 25/192/25
f 166/197/166 164/195/164 165/196/165 167/198/167
f 27/29/27 167/198/167 165/196/165 26/30/26
f 168/199/168 166/197/166 167/198/167 169/200/169
f 170/201/170 169/200/169 167/198/167 27/29/27
f 44/51/44 169/200/169 170/201/170 14/14/14
f 22/22/22 171/202/171 170/201/170 27/29/27
f 13/13/13 14/14/14 170/201/170 171/202/171
f 21/21/21 172/203/172 171/202/171 22/22/22
f 10/10/10 13/13/13 171/202/171 172/203/172
f 28/31/28 173/204/173 172/205/172 21/32/21
f 30/206/30 10/207/10 172/205/172 173/204/173
f 1/1/1 4/4/4 173/204/173 28/31/28
f 5/5/5 30/206/30 173/204/173 4/4/4
f 50/57/50 54/61/54 168/199/168 47/54/47
f 53/60/53 166/197/166 168/199/168 54/61/54
f 44/51/44 47/54/47 168/199/168 169/200/169
f 174/208/174 43/50/43 161/188/161 108/123/108
f 111/126/111 175/209/175 174/208/174 108/123/108
f 39/43/39 38/42/38 174/208/174 175/209/175
f 35/39/35 43/50/43 174/208/174 38/42/38
f 176/210/176 177/211/177 175/212/175 111/213/111
f 42/48/42 39/49/39 175/212/175 177/211/177
f 115/130/115 95/107/95 177/211/177 176/210/176
f 87/99/87 42/48/42 177/211/177 95/107/95
f 64/77/64 103/119/103 118/135/118 65/74/65
f 95/107/95 115/130/115 114/129/114 93/105/93
f 73/85/73 77/89/77 89/101/89 76/88/76
f 40/44/40 41/47/41 86/98/86 85/97/85
f 66/78/66 178/214/178 85/97/85 67/79/67
f 179/215/179 40/44/40 85/97/85 178/214/178
f 61/216/61 180/217/180 178/214/178 66/78/66
f 36/218/36 179/215/179 178/214/178 180/217/180
f 19/19/19 20/20/20 180/219/180 61/68/61
f 9/9/9 36/40/36 180/219/180 20/20/20
f 73/85/73 72/84/72 78/90/78 77/89/77
f 147/168/147 181/220/181 70/82/70 71/83/71
f 149/170/149 57/64/57 70/82/70 181/220/181
f 60/67/60 69/81/69 70/82/70 57/64/57
f 60/67/60 61/216/61 66/78/66 69/81/69
f 15/15/15 16/16/16 48/55/48 45/52/45
f 14/14/14 15/15/15 45/52/45 44/51/44
f 29/33/29 35/39/35 38/42/38 7/7/7
f 5/221/5 17/184/17 31/35/31 30/34/30
f 7/7/7 1/1/1 28/31/28 29/33/29
f 164/195/164 166/197/166 53/60/53 56/63/56
f 179/215/179 36/218/36 37/45/37 40/44/40
f 146/167/146 149/170/149 181/220/181 147/168/147
f 136/157/136 107/122/107 140/161/140 134/155/134
f 176/210/176 111/213/111 110/131/110 115/130/115
f 84/96/84 83/95/83 80/92/80
f 80/92/80 79/91/79 84/96/84
